<?xml version="1.0" encoding="utf-8" standalone="no"?>
<!DOCTYPE svg PUBLIC "-//W3C//DTD SVG 1.1//EN"
  "http://www.w3.org/Graphics/SVG/1.1/DTD/svg11.dtd">
<svg xmlns:xlink="http://www.w3.org/1999/xlink" width="615.34375pt" height="614.274375pt" viewBox="0 0 615.34375 614.274375" xmlns="http://www.w3.org/2000/svg" version="1.1">
 <metadata>
  <rdf:RDF xmlns:dc="http://purl.org/dc/elements/1.1/" xmlns:cc="http://creativecommons.org/ns#" xmlns:rdf="http://www.w3.org/1999/02/22-rdf-syntax-ns#">
   <cc:Work>
    <dc:type rdf:resource="http://purl.org/dc/dcmitype/StillImage"/>
    <dc:date>2026-06-01T20:48:48.165883</dc:date>
    <dc:format>image/svg+xml</dc:format>
    <dc:creator>
     <cc:Agent>
      <dc:title>Matplotlib v3.10.9, https://matplotlib.org/</dc:title>
     </cc:Agent>
    </dc:creator>
   </cc:Work>
  </rdf:RDF>
 </metadata>
 <defs>
  <style type="text/css">*{stroke-linejoin: round; stroke-linecap: butt}</style>
 </defs>
 <g id="figure_1">
  <g id="patch_1">
   <path d="M 0 614.274375 
L 615.34375 614.274375 
L 615.34375 0 
L 0 0 
z
" style="fill: #ffffff"/>
  </g>
  <g id="axes_1">
   <g id="patch_2">
    <path d="M 50.14375 576.718125 
L 608.14375 576.718125 
L 608.14375 22.318125 
L 50.14375 22.318125 
z
" style="fill: #ffffff"/>
   </g>
   <g id="matplotlib.axis_1">
    <g id="xtick_1">
     <g id="line2d_1">
      <path d="M 75.507386 576.718125 
L 75.507386 22.318125 
" clip-path="url(#p533ed9886e)" style="fill: none; stroke: #b0b0b0; stroke-width: 0.8; stroke-linecap: square"/>
     </g>
     <g id="line2d_2">
      <defs>
       <path id="md63dd842bb" d="M 0 0 
L 0 3.5 
" style="stroke: #000000; stroke-width: 0.8"/>
      </defs>
      <g>
       <use xlink:href="#md63dd842bb" x="75.507386" y="576.718125" style="stroke: #000000; stroke-width: 0.8"/>
      </g>
     </g>
     <g id="text_1">
      <!-- 0 -->
      <g transform="translate(72.326136 591.316563) scale(0.1 -0.1)">
       <defs>
        <path id="DejaVuSans-30" d="M 2034 4250 
Q 1547 4250 1301 3770 
Q 1056 3291 1056 2328 
Q 1056 1369 1301 889 
Q 1547 409 2034 409 
Q 2525 409 2770 889 
Q 3016 1369 3016 2328 
Q 3016 3291 2770 3770 
Q 2525 4250 2034 4250 
z
M 2034 4750 
Q 2819 4750 3233 4129 
Q 3647 3509 3647 2328 
Q 3647 1150 3233 529 
Q 2819 -91 2034 -91 
Q 1250 -91 836 529 
Q 422 1150 422 2328 
Q 422 3509 836 4129 
Q 1250 4750 2034 4750 
z
" transform="scale(0.015625)"/>
       </defs>
       <use xlink:href="#DejaVuSans-30"/>
      </g>
     </g>
    </g>
    <g id="xtick_2">
     <g id="line2d_3">
      <path d="M 138.995838 576.718125 
L 138.995838 22.318125 
" clip-path="url(#p533ed9886e)" style="fill: none; stroke: #b0b0b0; stroke-width: 0.8; stroke-linecap: square"/>
     </g>
     <g id="line2d_4">
      <g>
       <use xlink:href="#md63dd842bb" x="138.995838" y="576.718125" style="stroke: #000000; stroke-width: 0.8"/>
      </g>
     </g>
     <g id="text_2">
      <!-- 100 -->
      <g transform="translate(129.452088 591.316563) scale(0.1 -0.1)">
       <defs>
        <path id="DejaVuSans-31" d="M 794 531 
L 1825 531 
L 1825 4091 
L 703 3866 
L 703 4441 
L 1819 4666 
L 2450 4666 
L 2450 531 
L 3481 531 
L 3481 0 
L 794 0 
L 794 531 
z
" transform="scale(0.015625)"/>
       </defs>
       <use xlink:href="#DejaVuSans-31"/>
       <use xlink:href="#DejaVuSans-30" transform="translate(63.623047 0)"/>
       <use xlink:href="#DejaVuSans-30" transform="translate(127.246094 0)"/>
      </g>
     </g>
    </g>
    <g id="xtick_3">
     <g id="line2d_5">
      <path d="M 202.484289 576.718125 
L 202.484289 22.318125 
" clip-path="url(#p533ed9886e)" style="fill: none; stroke: #b0b0b0; stroke-width: 0.8; stroke-linecap: square"/>
     </g>
     <g id="line2d_6">
      <g>
       <use xlink:href="#md63dd842bb" x="202.484289" y="576.718125" style="stroke: #000000; stroke-width: 0.8"/>
      </g>
     </g>
     <g id="text_3">
      <!-- 200 -->
      <g transform="translate(192.940539 591.316563) scale(0.1 -0.1)">
       <defs>
        <path id="DejaVuSans-32" d="M 1228 531 
L 3431 531 
L 3431 0 
L 469 0 
L 469 531 
Q 828 903 1448 1529 
Q 2069 2156 2228 2338 
Q 2531 2678 2651 2914 
Q 2772 3150 2772 3378 
Q 2772 3750 2511 3984 
Q 2250 4219 1831 4219 
Q 1534 4219 1204 4116 
Q 875 4013 500 3803 
L 500 4441 
Q 881 4594 1212 4672 
Q 1544 4750 1819 4750 
Q 2544 4750 2975 4387 
Q 3406 4025 3406 3419 
Q 3406 3131 3298 2873 
Q 3191 2616 2906 2266 
Q 2828 2175 2409 1742 
Q 1991 1309 1228 531 
z
" transform="scale(0.015625)"/>
       </defs>
       <use xlink:href="#DejaVuSans-32"/>
       <use xlink:href="#DejaVuSans-30" transform="translate(63.623047 0)"/>
       <use xlink:href="#DejaVuSans-30" transform="translate(127.246094 0)"/>
      </g>
     </g>
    </g>
    <g id="xtick_4">
     <g id="line2d_7">
      <path d="M 265.972741 576.718125 
L 265.972741 22.318125 
" clip-path="url(#p533ed9886e)" style="fill: none; stroke: #b0b0b0; stroke-width: 0.8; stroke-linecap: square"/>
     </g>
     <g id="line2d_8">
      <g>
       <use xlink:href="#md63dd842bb" x="265.972741" y="576.718125" style="stroke: #000000; stroke-width: 0.8"/>
      </g>
     </g>
     <g id="text_4">
      <!-- 300 -->
      <g transform="translate(256.428991 591.316563) scale(0.1 -0.1)">
       <defs>
        <path id="DejaVuSans-33" d="M 2597 2516 
Q 3050 2419 3304 2112 
Q 3559 1806 3559 1356 
Q 3559 666 3084 287 
Q 2609 -91 1734 -91 
Q 1441 -91 1130 -33 
Q 819 25 488 141 
L 488 750 
Q 750 597 1062 519 
Q 1375 441 1716 441 
Q 2309 441 2620 675 
Q 2931 909 2931 1356 
Q 2931 1769 2642 2001 
Q 2353 2234 1838 2234 
L 1294 2234 
L 1294 2753 
L 1863 2753 
Q 2328 2753 2575 2939 
Q 2822 3125 2822 3475 
Q 2822 3834 2567 4026 
Q 2313 4219 1838 4219 
Q 1578 4219 1281 4162 
Q 984 4106 628 3988 
L 628 4550 
Q 988 4650 1302 4700 
Q 1616 4750 1894 4750 
Q 2613 4750 3031 4423 
Q 3450 4097 3450 3541 
Q 3450 3153 3228 2886 
Q 3006 2619 2597 2516 
z
" transform="scale(0.015625)"/>
       </defs>
       <use xlink:href="#DejaVuSans-33"/>
       <use xlink:href="#DejaVuSans-30" transform="translate(63.623047 0)"/>
       <use xlink:href="#DejaVuSans-30" transform="translate(127.246094 0)"/>
      </g>
     </g>
    </g>
    <g id="xtick_5">
     <g id="line2d_9">
      <path d="M 329.461192 576.718125 
L 329.461192 22.318125 
" clip-path="url(#p533ed9886e)" style="fill: none; stroke: #b0b0b0; stroke-width: 0.8; stroke-linecap: square"/>
     </g>
     <g id="line2d_10">
      <g>
       <use xlink:href="#md63dd842bb" x="329.461192" y="576.718125" style="stroke: #000000; stroke-width: 0.8"/>
      </g>
     </g>
     <g id="text_5">
      <!-- 400 -->
      <g transform="translate(319.917442 591.316563) scale(0.1 -0.1)">
       <defs>
        <path id="DejaVuSans-34" d="M 2419 4116 
L 825 1625 
L 2419 1625 
L 2419 4116 
z
M 2253 4666 
L 3047 4666 
L 3047 1625 
L 3713 1625 
L 3713 1100 
L 3047 1100 
L 3047 0 
L 2419 0 
L 2419 1100 
L 313 1100 
L 313 1709 
L 2253 4666 
z
" transform="scale(0.015625)"/>
       </defs>
       <use xlink:href="#DejaVuSans-34"/>
       <use xlink:href="#DejaVuSans-30" transform="translate(63.623047 0)"/>
       <use xlink:href="#DejaVuSans-30" transform="translate(127.246094 0)"/>
      </g>
     </g>
    </g>
    <g id="xtick_6">
     <g id="line2d_11">
      <path d="M 392.949644 576.718125 
L 392.949644 22.318125 
" clip-path="url(#p533ed9886e)" style="fill: none; stroke: #b0b0b0; stroke-width: 0.8; stroke-linecap: square"/>
     </g>
     <g id="line2d_12">
      <g>
       <use xlink:href="#md63dd842bb" x="392.949644" y="576.718125" style="stroke: #000000; stroke-width: 0.8"/>
      </g>
     </g>
     <g id="text_6">
      <!-- 500 -->
      <g transform="translate(383.405894 591.316563) scale(0.1 -0.1)">
       <defs>
        <path id="DejaVuSans-35" d="M 691 4666 
L 3169 4666 
L 3169 4134 
L 1269 4134 
L 1269 2991 
Q 1406 3038 1543 3061 
Q 1681 3084 1819 3084 
Q 2600 3084 3056 2656 
Q 3513 2228 3513 1497 
Q 3513 744 3044 326 
Q 2575 -91 1722 -91 
Q 1428 -91 1123 -41 
Q 819 9 494 109 
L 494 744 
Q 775 591 1075 516 
Q 1375 441 1709 441 
Q 2250 441 2565 725 
Q 2881 1009 2881 1497 
Q 2881 1984 2565 2268 
Q 2250 2553 1709 2553 
Q 1456 2553 1204 2497 
Q 953 2441 691 2322 
L 691 4666 
z
" transform="scale(0.015625)"/>
       </defs>
       <use xlink:href="#DejaVuSans-35"/>
       <use xlink:href="#DejaVuSans-30" transform="translate(63.623047 0)"/>
       <use xlink:href="#DejaVuSans-30" transform="translate(127.246094 0)"/>
      </g>
     </g>
    </g>
    <g id="xtick_7">
     <g id="line2d_13">
      <path d="M 456.438095 576.718125 
L 456.438095 22.318125 
" clip-path="url(#p533ed9886e)" style="fill: none; stroke: #b0b0b0; stroke-width: 0.8; stroke-linecap: square"/>
     </g>
     <g id="line2d_14">
      <g>
       <use xlink:href="#md63dd842bb" x="456.438095" y="576.718125" style="stroke: #000000; stroke-width: 0.8"/>
      </g>
     </g>
     <g id="text_7">
      <!-- 600 -->
      <g transform="translate(446.894345 591.316563) scale(0.1 -0.1)">
       <defs>
        <path id="DejaVuSans-36" d="M 2113 2584 
Q 1688 2584 1439 2293 
Q 1191 2003 1191 1497 
Q 1191 994 1439 701 
Q 1688 409 2113 409 
Q 2538 409 2786 701 
Q 3034 994 3034 1497 
Q 3034 2003 2786 2293 
Q 2538 2584 2113 2584 
z
M 3366 4563 
L 3366 3988 
Q 3128 4100 2886 4159 
Q 2644 4219 2406 4219 
Q 1781 4219 1451 3797 
Q 1122 3375 1075 2522 
Q 1259 2794 1537 2939 
Q 1816 3084 2150 3084 
Q 2853 3084 3261 2657 
Q 3669 2231 3669 1497 
Q 3669 778 3244 343 
Q 2819 -91 2113 -91 
Q 1303 -91 875 529 
Q 447 1150 447 2328 
Q 447 3434 972 4092 
Q 1497 4750 2381 4750 
Q 2619 4750 2861 4703 
Q 3103 4656 3366 4563 
z
" transform="scale(0.015625)"/>
       </defs>
       <use xlink:href="#DejaVuSans-36"/>
       <use xlink:href="#DejaVuSans-30" transform="translate(63.623047 0)"/>
       <use xlink:href="#DejaVuSans-30" transform="translate(127.246094 0)"/>
      </g>
     </g>
    </g>
    <g id="xtick_8">
     <g id="line2d_15">
      <path d="M 519.926547 576.718125 
L 519.926547 22.318125 
" clip-path="url(#p533ed9886e)" style="fill: none; stroke: #b0b0b0; stroke-width: 0.8; stroke-linecap: square"/>
     </g>
     <g id="line2d_16">
      <g>
       <use xlink:href="#md63dd842bb" x="519.926547" y="576.718125" style="stroke: #000000; stroke-width: 0.8"/>
      </g>
     </g>
     <g id="text_8">
      <!-- 700 -->
      <g transform="translate(510.382797 591.316563) scale(0.1 -0.1)">
       <defs>
        <path id="DejaVuSans-37" d="M 525 4666 
L 3525 4666 
L 3525 4397 
L 1831 0 
L 1172 0 
L 2766 4134 
L 525 4134 
L 525 4666 
z
" transform="scale(0.015625)"/>
       </defs>
       <use xlink:href="#DejaVuSans-37"/>
       <use xlink:href="#DejaVuSans-30" transform="translate(63.623047 0)"/>
       <use xlink:href="#DejaVuSans-30" transform="translate(127.246094 0)"/>
      </g>
     </g>
    </g>
    <g id="xtick_9">
     <g id="line2d_17">
      <path d="M 583.414998 576.718125 
L 583.414998 22.318125 
" clip-path="url(#p533ed9886e)" style="fill: none; stroke: #b0b0b0; stroke-width: 0.8; stroke-linecap: square"/>
     </g>
     <g id="line2d_18">
      <g>
       <use xlink:href="#md63dd842bb" x="583.414998" y="576.718125" style="stroke: #000000; stroke-width: 0.8"/>
      </g>
     </g>
     <g id="text_9">
      <!-- 800 -->
      <g transform="translate(573.871248 591.316563) scale(0.1 -0.1)">
       <defs>
        <path id="DejaVuSans-38" d="M 2034 2216 
Q 1584 2216 1326 1975 
Q 1069 1734 1069 1313 
Q 1069 891 1326 650 
Q 1584 409 2034 409 
Q 2484 409 2743 651 
Q 3003 894 3003 1313 
Q 3003 1734 2745 1975 
Q 2488 2216 2034 2216 
z
M 1403 2484 
Q 997 2584 770 2862 
Q 544 3141 544 3541 
Q 544 4100 942 4425 
Q 1341 4750 2034 4750 
Q 2731 4750 3128 4425 
Q 3525 4100 3525 3541 
Q 3525 3141 3298 2862 
Q 3072 2584 2669 2484 
Q 3125 2378 3379 2068 
Q 3634 1759 3634 1313 
Q 3634 634 3220 271 
Q 2806 -91 2034 -91 
Q 1263 -91 848 271 
Q 434 634 434 1313 
Q 434 1759 690 2068 
Q 947 2378 1403 2484 
z
M 1172 3481 
Q 1172 3119 1398 2916 
Q 1625 2713 2034 2713 
Q 2441 2713 2670 2916 
Q 2900 3119 2900 3481 
Q 2900 3844 2670 4047 
Q 2441 4250 2034 4250 
Q 1625 4250 1398 4047 
Q 1172 3844 1172 3481 
z
" transform="scale(0.015625)"/>
       </defs>
       <use xlink:href="#DejaVuSans-38"/>
       <use xlink:href="#DejaVuSans-30" transform="translate(63.623047 0)"/>
       <use xlink:href="#DejaVuSans-30" transform="translate(127.246094 0)"/>
      </g>
     </g>
    </g>
    <g id="text_10">
     <!-- Epochs -->
     <g transform="translate(311.228125 604.994688) scale(0.1 -0.1)">
      <defs>
       <path id="DejaVuSans-45" d="M 628 4666 
L 3578 4666 
L 3578 4134 
L 1259 4134 
L 1259 2753 
L 3481 2753 
L 3481 2222 
L 1259 2222 
L 1259 531 
L 3634 531 
L 3634 0 
L 628 0 
L 628 4666 
z
" transform="scale(0.015625)"/>
       <path id="DejaVuSans-70" d="M 1159 525 
L 1159 -1331 
L 581 -1331 
L 581 3500 
L 1159 3500 
L 1159 2969 
Q 1341 3281 1617 3432 
Q 1894 3584 2278 3584 
Q 2916 3584 3314 3078 
Q 3713 2572 3713 1747 
Q 3713 922 3314 415 
Q 2916 -91 2278 -91 
Q 1894 -91 1617 61 
Q 1341 213 1159 525 
z
M 3116 1747 
Q 3116 2381 2855 2742 
Q 2594 3103 2138 3103 
Q 1681 3103 1420 2742 
Q 1159 2381 1159 1747 
Q 1159 1113 1420 752 
Q 1681 391 2138 391 
Q 2594 391 2855 752 
Q 3116 1113 3116 1747 
z
" transform="scale(0.015625)"/>
       <path id="DejaVuSans-6f" d="M 1959 3097 
Q 1497 3097 1228 2736 
Q 959 2375 959 1747 
Q 959 1119 1226 758 
Q 1494 397 1959 397 
Q 2419 397 2687 759 
Q 2956 1122 2956 1747 
Q 2956 2369 2687 2733 
Q 2419 3097 1959 3097 
z
M 1959 3584 
Q 2709 3584 3137 3096 
Q 3566 2609 3566 1747 
Q 3566 888 3137 398 
Q 2709 -91 1959 -91 
Q 1206 -91 779 398 
Q 353 888 353 1747 
Q 353 2609 779 3096 
Q 1206 3584 1959 3584 
z
" transform="scale(0.015625)"/>
       <path id="DejaVuSans-63" d="M 3122 3366 
L 3122 2828 
Q 2878 2963 2633 3030 
Q 2388 3097 2138 3097 
Q 1578 3097 1268 2742 
Q 959 2388 959 1747 
Q 959 1106 1268 751 
Q 1578 397 2138 397 
Q 2388 397 2633 464 
Q 2878 531 3122 666 
L 3122 134 
Q 2881 22 2623 -34 
Q 2366 -91 2075 -91 
Q 1284 -91 818 406 
Q 353 903 353 1747 
Q 353 2603 823 3093 
Q 1294 3584 2113 3584 
Q 2378 3584 2631 3529 
Q 2884 3475 3122 3366 
z
" transform="scale(0.015625)"/>
       <path id="DejaVuSans-68" d="M 3513 2113 
L 3513 0 
L 2938 0 
L 2938 2094 
Q 2938 2591 2744 2837 
Q 2550 3084 2163 3084 
Q 1697 3084 1428 2787 
Q 1159 2491 1159 1978 
L 1159 0 
L 581 0 
L 581 4863 
L 1159 4863 
L 1159 2956 
Q 1366 3272 1645 3428 
Q 1925 3584 2291 3584 
Q 2894 3584 3203 3211 
Q 3513 2838 3513 2113 
z
" transform="scale(0.015625)"/>
       <path id="DejaVuSans-73" d="M 2834 3397 
L 2834 2853 
Q 2591 2978 2328 3040 
Q 2066 3103 1784 3103 
Q 1356 3103 1142 2972 
Q 928 2841 928 2578 
Q 928 2378 1081 2264 
Q 1234 2150 1697 2047 
L 1894 2003 
Q 2506 1872 2764 1633 
Q 3022 1394 3022 966 
Q 3022 478 2636 193 
Q 2250 -91 1575 -91 
Q 1294 -91 989 -36 
Q 684 19 347 128 
L 347 722 
Q 666 556 975 473 
Q 1284 391 1588 391 
Q 1994 391 2212 530 
Q 2431 669 2431 922 
Q 2431 1156 2273 1281 
Q 2116 1406 1581 1522 
L 1381 1569 
Q 847 1681 609 1914 
Q 372 2147 372 2553 
Q 372 3047 722 3315 
Q 1072 3584 1716 3584 
Q 2034 3584 2315 3537 
Q 2597 3491 2834 3397 
z
" transform="scale(0.015625)"/>
      </defs>
      <use xlink:href="#DejaVuSans-45"/>
      <use xlink:href="#DejaVuSans-70" transform="translate(63.183594 0)"/>
      <use xlink:href="#DejaVuSans-6f" transform="translate(126.660156 0)"/>
      <use xlink:href="#DejaVuSans-63" transform="translate(187.841797 0)"/>
      <use xlink:href="#DejaVuSans-68" transform="translate(242.822266 0)"/>
      <use xlink:href="#DejaVuSans-73" transform="translate(306.201172 0)"/>
     </g>
    </g>
   </g>
   <g id="matplotlib.axis_2">
    <g id="ytick_1">
     <g id="line2d_19">
      <path d="M 50.14375 557.733227 
L 608.14375 557.733227 
" clip-path="url(#p533ed9886e)" style="fill: none; stroke: #b0b0b0; stroke-width: 0.8; stroke-linecap: square"/>
     </g>
     <g id="line2d_20">
      <defs>
       <path id="mcedd2d8402" d="M 0 0 
L -3.5 0 
" style="stroke: #000000; stroke-width: 0.8"/>
      </defs>
      <g>
       <use xlink:href="#mcedd2d8402" x="50.14375" y="557.733227" style="stroke: #000000; stroke-width: 0.8"/>
      </g>
     </g>
     <g id="text_11">
      <!-- 0.00 -->
      <g transform="translate(20.878125 561.532446) scale(0.1 -0.1)">
       <defs>
        <path id="DejaVuSans-2e" d="M 684 794 
L 1344 794 
L 1344 0 
L 684 0 
L 684 794 
z
" transform="scale(0.015625)"/>
       </defs>
       <use xlink:href="#DejaVuSans-30"/>
       <use xlink:href="#DejaVuSans-2e" transform="translate(63.623047 0)"/>
       <use xlink:href="#DejaVuSans-30" transform="translate(95.410156 0)"/>
       <use xlink:href="#DejaVuSans-30" transform="translate(159.033203 0)"/>
      </g>
     </g>
    </g>
    <g id="ytick_2">
     <g id="line2d_21">
      <path d="M 50.14375 478.179921 
L 608.14375 478.179921 
" clip-path="url(#p533ed9886e)" style="fill: none; stroke: #b0b0b0; stroke-width: 0.8; stroke-linecap: square"/>
     </g>
     <g id="line2d_22">
      <g>
       <use xlink:href="#mcedd2d8402" x="50.14375" y="478.179921" style="stroke: #000000; stroke-width: 0.8"/>
      </g>
     </g>
     <g id="text_12">
      <!-- 0.05 -->
      <g transform="translate(20.878125 481.97914) scale(0.1 -0.1)">
       <use xlink:href="#DejaVuSans-30"/>
       <use xlink:href="#DejaVuSans-2e" transform="translate(63.623047 0)"/>
       <use xlink:href="#DejaVuSans-30" transform="translate(95.410156 0)"/>
       <use xlink:href="#DejaVuSans-35" transform="translate(159.033203 0)"/>
      </g>
     </g>
    </g>
    <g id="ytick_3">
     <g id="line2d_23">
      <path d="M 50.14375 398.626616 
L 608.14375 398.626616 
" clip-path="url(#p533ed9886e)" style="fill: none; stroke: #b0b0b0; stroke-width: 0.8; stroke-linecap: square"/>
     </g>
     <g id="line2d_24">
      <g>
       <use xlink:href="#mcedd2d8402" x="50.14375" y="398.626616" style="stroke: #000000; stroke-width: 0.8"/>
      </g>
     </g>
     <g id="text_13">
      <!-- 0.10 -->
      <g transform="translate(20.878125 402.425835) scale(0.1 -0.1)">
       <use xlink:href="#DejaVuSans-30"/>
       <use xlink:href="#DejaVuSans-2e" transform="translate(63.623047 0)"/>
       <use xlink:href="#DejaVuSans-31" transform="translate(95.410156 0)"/>
       <use xlink:href="#DejaVuSans-30" transform="translate(159.033203 0)"/>
      </g>
     </g>
    </g>
    <g id="ytick_4">
     <g id="line2d_25">
      <path d="M 50.14375 319.07331 
L 608.14375 319.07331 
" clip-path="url(#p533ed9886e)" style="fill: none; stroke: #b0b0b0; stroke-width: 0.8; stroke-linecap: square"/>
     </g>
     <g id="line2d_26">
      <g>
       <use xlink:href="#mcedd2d8402" x="50.14375" y="319.07331" style="stroke: #000000; stroke-width: 0.8"/>
      </g>
     </g>
     <g id="text_14">
      <!-- 0.15 -->
      <g transform="translate(20.878125 322.872529) scale(0.1 -0.1)">
       <use xlink:href="#DejaVuSans-30"/>
       <use xlink:href="#DejaVuSans-2e" transform="translate(63.623047 0)"/>
       <use xlink:href="#DejaVuSans-31" transform="translate(95.410156 0)"/>
       <use xlink:href="#DejaVuSans-35" transform="translate(159.033203 0)"/>
      </g>
     </g>
    </g>
    <g id="ytick_5">
     <g id="line2d_27">
      <path d="M 50.14375 239.520005 
L 608.14375 239.520005 
" clip-path="url(#p533ed9886e)" style="fill: none; stroke: #b0b0b0; stroke-width: 0.8; stroke-linecap: square"/>
     </g>
     <g id="line2d_28">
      <g>
       <use xlink:href="#mcedd2d8402" x="50.14375" y="239.520005" style="stroke: #000000; stroke-width: 0.8"/>
      </g>
     </g>
     <g id="text_15">
      <!-- 0.20 -->
      <g transform="translate(20.878125 243.319224) scale(0.1 -0.1)">
       <use xlink:href="#DejaVuSans-30"/>
       <use xlink:href="#DejaVuSans-2e" transform="translate(63.623047 0)"/>
       <use xlink:href="#DejaVuSans-32" transform="translate(95.410156 0)"/>
       <use xlink:href="#DejaVuSans-30" transform="translate(159.033203 0)"/>
      </g>
     </g>
    </g>
    <g id="ytick_6">
     <g id="line2d_29">
      <path d="M 50.14375 159.966699 
L 608.14375 159.966699 
" clip-path="url(#p533ed9886e)" style="fill: none; stroke: #b0b0b0; stroke-width: 0.8; stroke-linecap: square"/>
     </g>
     <g id="line2d_30">
      <g>
       <use xlink:href="#mcedd2d8402" x="50.14375" y="159.966699" style="stroke: #000000; stroke-width: 0.8"/>
      </g>
     </g>
     <g id="text_16">
      <!-- 0.25 -->
      <g transform="translate(20.878125 163.765918) scale(0.1 -0.1)">
       <use xlink:href="#DejaVuSans-30"/>
       <use xlink:href="#DejaVuSans-2e" transform="translate(63.623047 0)"/>
       <use xlink:href="#DejaVuSans-32" transform="translate(95.410156 0)"/>
       <use xlink:href="#DejaVuSans-35" transform="translate(159.033203 0)"/>
      </g>
     </g>
    </g>
    <g id="ytick_7">
     <g id="line2d_31">
      <path d="M 50.14375 80.413394 
L 608.14375 80.413394 
" clip-path="url(#p533ed9886e)" style="fill: none; stroke: #b0b0b0; stroke-width: 0.8; stroke-linecap: square"/>
     </g>
     <g id="line2d_32">
      <g>
       <use xlink:href="#mcedd2d8402" x="50.14375" y="80.413394" style="stroke: #000000; stroke-width: 0.8"/>
      </g>
     </g>
     <g id="text_17">
      <!-- 0.30 -->
      <g transform="translate(20.878125 84.212613) scale(0.1 -0.1)">
       <use xlink:href="#DejaVuSans-30"/>
       <use xlink:href="#DejaVuSans-2e" transform="translate(63.623047 0)"/>
       <use xlink:href="#DejaVuSans-33" transform="translate(95.410156 0)"/>
       <use xlink:href="#DejaVuSans-30" transform="translate(159.033203 0)"/>
      </g>
     </g>
    </g>
    <g id="text_18">
     <!-- Accuracy -->
     <g transform="translate(14.798437 322.34625) rotate(-90) scale(0.1 -0.1)">
      <defs>
       <path id="DejaVuSans-41" d="M 2188 4044 
L 1331 1722 
L 3047 1722 
L 2188 4044 
z
M 1831 4666 
L 2547 4666 
L 4325 0 
L 3669 0 
L 3244 1197 
L 1141 1197 
L 716 0 
L 50 0 
L 1831 4666 
z
" transform="scale(0.015625)"/>
       <path id="DejaVuSans-75" d="M 544 1381 
L 544 3500 
L 1119 3500 
L 1119 1403 
Q 1119 906 1312 657 
Q 1506 409 1894 409 
Q 2359 409 2629 706 
Q 2900 1003 2900 1516 
L 2900 3500 
L 3475 3500 
L 3475 0 
L 2900 0 
L 2900 538 
Q 2691 219 2414 64 
Q 2138 -91 1772 -91 
Q 1169 -91 856 284 
Q 544 659 544 1381 
z
M 1991 3584 
L 1991 3584 
z
" transform="scale(0.015625)"/>
       <path id="DejaVuSans-72" d="M 2631 2963 
Q 2534 3019 2420 3045 
Q 2306 3072 2169 3072 
Q 1681 3072 1420 2755 
Q 1159 2438 1159 1844 
L 1159 0 
L 581 0 
L 581 3500 
L 1159 3500 
L 1159 2956 
Q 1341 3275 1631 3429 
Q 1922 3584 2338 3584 
Q 2397 3584 2469 3576 
Q 2541 3569 2628 3553 
L 2631 2963 
z
" transform="scale(0.015625)"/>
       <path id="DejaVuSans-61" d="M 2194 1759 
Q 1497 1759 1228 1600 
Q 959 1441 959 1056 
Q 959 750 1161 570 
Q 1363 391 1709 391 
Q 2188 391 2477 730 
Q 2766 1069 2766 1631 
L 2766 1759 
L 2194 1759 
z
M 3341 1997 
L 3341 0 
L 2766 0 
L 2766 531 
Q 2569 213 2275 61 
Q 1981 -91 1556 -91 
Q 1019 -91 701 211 
Q 384 513 384 1019 
Q 384 1609 779 1909 
Q 1175 2209 1959 2209 
L 2766 2209 
L 2766 2266 
Q 2766 2663 2505 2880 
Q 2244 3097 1772 3097 
Q 1472 3097 1187 3025 
Q 903 2953 641 2809 
L 641 3341 
Q 956 3463 1253 3523 
Q 1550 3584 1831 3584 
Q 2591 3584 2966 3190 
Q 3341 2797 3341 1997 
z
" transform="scale(0.015625)"/>
       <path id="DejaVuSans-79" d="M 2059 -325 
Q 1816 -950 1584 -1140 
Q 1353 -1331 966 -1331 
L 506 -1331 
L 506 -850 
L 844 -850 
Q 1081 -850 1212 -737 
Q 1344 -625 1503 -206 
L 1606 56 
L 191 3500 
L 800 3500 
L 1894 763 
L 2988 3500 
L 3597 3500 
L 2059 -325 
z
" transform="scale(0.015625)"/>
      </defs>
      <use xlink:href="#DejaVuSans-41"/>
      <use xlink:href="#DejaVuSans-63" transform="translate(66.658203 0)"/>
      <use xlink:href="#DejaVuSans-63" transform="translate(121.638672 0)"/>
      <use xlink:href="#DejaVuSans-75" transform="translate(176.619141 0)"/>
      <use xlink:href="#DejaVuSans-72" transform="translate(239.998047 0)"/>
      <use xlink:href="#DejaVuSans-61" transform="translate(281.111328 0)"/>
      <use xlink:href="#DejaVuSans-63" transform="translate(342.390625 0)"/>
      <use xlink:href="#DejaVuSans-79" transform="translate(397.371094 0)"/>
     </g>
    </g>
   </g>
   <g id="line2d_33">
    <path d="M 75.507386 315.922126 
L 76.142271 302.07542 
L 76.777155 304.731628 
L 77.41204 295.821649 
L 78.046924 289.660674 
L 78.681809 278.014968 
L 79.316693 285.842122 
L 79.951578 282.02798 
L 80.586462 275.800739 
L 81.221347 273.683739 
L 81.856232 275.155458 
L 82.491116 276.91448 
L 83.126001 276.529972 
L 84.39577 272.658383 
L 85.030654 271.045217 
L 85.665539 272.55231 
L 86.300423 271.098254 
L 86.935308 268.959157 
L 87.570192 272.662793 
L 88.205077 271.951247 
L 88.839961 267.425534 
L 89.474846 265.609066 
L 90.10973 258.555339 
L 90.744615 238.198547 
L 91.379499 223.344172 
L 92.014384 203.393961 
L 92.649268 196.905948 
L 93.284153 198.081569 
L 93.919037 202.31557 
L 95.188806 198.289305 
L 96.458575 203.380708 
L 97.09346 203.641457 
L 97.728344 203.734276 
L 98.363229 198.766609 
L 98.998113 206.881042 
L 99.632998 205.678914 
L 100.267882 206.279978 
L 100.902767 209.833372 
L 101.537651 206.554003 
L 102.172536 208.962692 
L 102.80742 206.664486 
L 103.442305 209.815685 
L 104.07719 210.509568 
L 104.712074 212.127144 
L 105.346959 205.245779 
L 105.981843 212.233217 
L 106.616728 213.099463 
L 107.251612 217.669368 
L 107.886497 213.506068 
L 108.521381 214.42535 
L 109.156266 214.257421 
L 109.79115 214.955714 
L 110.426035 213.382332 
L 111.060919 217.779851 
L 111.695804 216.816376 
L 112.330688 216.692616 
L 112.965573 217.094811 
L 113.600457 222.256937 
L 114.235342 221.452571 
L 114.870226 222.33207 
L 115.505111 221.960815 
L 116.139995 224.590493 
L 116.77488 225.505365 
L 117.409764 230.764721 
L 118.044649 226.459997 
L 118.679533 229.770306 
L 119.314418 229.597943 
L 119.949302 232.369043 
L 120.584187 234.525827 
L 121.219071 235.140144 
L 121.853956 241.632591 
L 122.48884 241.199456 
L 123.123725 244.995935 
L 123.758609 246.80356 
L 124.393494 246.622354 
L 125.028379 253.357863 
L 125.663263 252.385544 
L 126.298148 254.997535 
L 126.933032 255.121295 
L 127.567917 261.945189 
L 128.202801 256.332266 
L 128.837686 261.19386 
L 129.47257 262.201528 
L 130.107455 265.58256 
L 131.377224 274.262706 
L 132.012108 266.325046 
L 132.646993 273.343423 
L 133.281877 274.240609 
L 133.916762 273.719088 
L 134.551646 275.973101 
L 135.186531 281.086601 
L 135.821415 276.671395 
L 136.4563 280.251295 
L 137.091184 281.674411 
L 137.726069 280.967275 
L 138.360953 287.132659 
L 138.995838 283.535073 
L 139.630722 282.827936 
L 140.265607 282.792586 
L 140.900491 283.663242 
L 141.535376 285.210118 
L 142.17026 283.924014 
L 142.805145 283.605796 
L 143.440029 287.079623 
L 144.074914 284.847707 
L 144.709798 286.363643 
L 145.344683 290.637426 
L 146.614452 283.592543 
L 147.249337 290.690463 
L 147.884221 284.065437 
L 148.519106 286.743741 
L 149.15399 291.013091 
L 149.788875 284.604621 
L 150.423759 286.478559 
L 151.058644 287.225479 
L 151.693528 286.054268 
L 152.328413 285.342698 
L 152.963297 290.252918 
L 153.598182 281.413663 
L 154.233066 287.238732 
L 154.867951 285.108479 
L 155.502835 281.89981 
L 156.13772 286.513909 
L 156.772604 284.299679 
L 157.407489 286.814441 
L 158.677258 285.987978 
L 159.312142 282.956105 
L 159.947027 285.011226 
L 160.581911 287.795603 
L 161.216796 289.638578 
L 162.486565 285.934942 
L 163.121449 282.664417 
L 163.756334 281.820267 
L 164.391218 281.298746 
L 165.026103 287.013333 
L 165.660987 284.723971 
L 166.295872 283.990304 
L 166.930756 278.947504 
L 167.565641 282.951696 
L 168.200526 283.813508 
L 168.83541 280.666743 
L 169.470295 283.596952 
L 170.105179 284.069847 
L 170.740064 278.704418 
L 171.374948 276.370863 
L 172.009833 279.106613 
L 172.644717 280.830262 
L 173.279602 277.670243 
L 173.914486 278.761888 
L 174.549371 278.956347 
L 175.184255 276.180813 
L 175.81914 274.82842 
L 176.454024 272.972168 
L 177.088909 272.945662 
L 177.723793 274.426225 
L 178.358678 272.954482 
L 178.993562 272.773276 
L 179.628447 270.903795 
L 180.263331 264.464385 
L 180.898216 262.166179 
L 181.5331 267.429968 
L 182.167985 264.574867 
L 182.802869 264.177106 
L 183.437754 259.430428 
L 184.072638 262.705363 
L 184.707523 258.926594 
L 185.342407 253.212007 
L 185.977292 256.509062 
L 187.247061 252.244121 
L 187.881945 254.820763 
L 188.51683 251.908216 
L 189.151715 253.897047 
L 189.786599 250.767968 
L 190.421484 255.788648 
L 191.056368 249.274128 
L 191.691253 248.880777 
L 192.326137 254.427411 
L 192.961022 253.304826 
L 193.595906 248.549305 
L 194.230791 250.542546 
L 194.865675 249.875192 
L 195.50056 247.475347 
L 196.135444 248.491859 
L 196.770329 245.004755 
L 197.405213 247.643276 
L 198.040098 246.357172 
L 198.674982 248.637691 
L 199.309867 245.155021 
L 199.944751 248.412292 
L 200.579636 248.376943 
L 201.21452 249.866349 
L 201.849405 241.893339 
L 202.484289 241.508831 
L 203.119174 248.403449 
L 203.754058 246.255509 
L 204.388943 242.021509 
L 205.023827 247.223418 
L 205.658712 243.077804 
L 206.293596 249.870782 
L 206.928481 245.570469 
L 207.563365 246.74609 
L 208.19825 243.413709 
L 208.833134 246.282039 
L 209.468019 239.944292 
L 210.102903 245.30972 
L 210.737788 243.546288 
L 211.372673 242.534186 
L 212.007557 245.256684 
L 212.642442 245.96382 
L 213.277326 246.330642 
L 213.912211 245.517432 
L 214.547095 239.568627 
L 215.18198 243.12643 
L 215.816864 238.030594 
L 217.086633 245.906374 
L 217.721518 240.496753 
L 218.356402 242.724235 
L 218.991287 239.61723 
L 219.626171 243.272263 
L 220.261056 241.72541 
L 220.89594 243.2546 
L 221.530825 243.793784 
L 222.165709 244.063376 
L 222.800594 238.790767 
L 223.435478 237.283674 
L 224.070363 245.212491 
L 224.705247 245.132924 
L 225.340132 241.7917 
L 225.975016 245.817964 
L 226.609901 235.325783 
L 227.244785 243.647928 
L 227.87967 239.948702 
L 229.149439 242.043605 
L 229.784323 238.255993 
L 230.419208 240.620488 
L 231.054092 241.084563 
L 231.688977 242.357414 
L 232.323862 237.33671 
L 232.958746 238.362066 
L 233.593631 236.558851 
L 234.228515 239.422771 
L 234.8634 240.633742 
L 235.498284 241.367408 
L 236.133169 239.033853 
L 236.768053 239.011756 
L 237.402938 241.840303 
L 238.037822 241.866833 
L 238.672707 239.002913 
L 239.307591 237.195288 
L 239.942476 234.525827 
L 240.57736 240.94755 
L 241.212245 241.195046 
L 241.847129 242.865658 
L 242.482014 235.555592 
L 243.116898 233.385555 
L 243.751783 239.931039 
L 244.386667 236.351138 
L 245.021552 238.507922 
L 245.656436 238.777514 
L 246.291321 238.649344 
L 246.926205 236.633984 
L 247.56109 242.472306 
L 248.195974 236.510248 
L 248.830859 235.126891 
L 249.465743 235.674918 
L 250.100628 243.104334 
L 250.735512 236.576537 
L 251.370397 240.797285 
L 252.005281 238.826117 
L 252.640166 235.882654 
L 253.27505 236.815189 
L 253.909935 235.148987 
L 254.54482 240.854731 
L 255.179704 237.981967 
L 255.814589 238.667007 
L 256.449473 238.516742 
L 257.084358 234.60096 
L 257.719242 233.690521 
L 258.354127 235.803087 
L 258.989011 238.631658 
L 259.623896 235.467206 
L 260.25878 234.406501 
L 260.893665 238.393006 
L 261.528549 238.309029 
L 262.163434 235.25506 
L 262.798318 235.206457 
L 263.433203 237.955461 
L 264.068087 236.642827 
L 264.702972 236.912419 
L 265.337856 238.750984 
L 265.972741 240.244824 
L 266.607625 232.170175 
L 267.24251 235.28159 
L 267.877394 236.099209 
L 268.512279 231.723787 
L 269.147163 232.996637 
L 269.782048 241.398348 
L 270.416932 233.827534 
L 271.051817 233.730304 
L 271.686701 242.459053 
L 272.321586 235.93569 
L 272.95647 239.696796 
L 273.591355 234.981058 
L 274.226239 240.430439 
L 274.861124 237.690279 
L 275.496009 236.262729 
L 276.130893 238.746574 
L 276.765778 236.059426 
L 277.400662 239.086889 
L 278.035547 233.451845 
L 278.670431 239.665856 
L 279.305316 236.647237 
L 279.9402 234.689346 
L 280.575085 236.68702 
L 281.209969 240.160847 
L 281.844854 237.951027 
L 282.479738 244.461161 
L 283.749507 234.437441 
L 284.384392 236.492561 
L 285.019276 232.523743 
L 285.654161 233.88498 
L 286.289045 237.641652 
L 286.92393 236.121306 
L 287.558814 234.163415 
L 288.193699 236.638417 
L 288.828583 230.035488 
L 289.463468 234.114789 
L 290.098352 240.059208 
L 290.733237 237.394157 
L 291.368121 235.785424 
L 292.003006 235.34788 
L 292.63789 235.577688 
L 293.272775 232.232031 
L 293.907659 237.142251 
L 294.542544 233.562351 
L 295.177428 234.870552 
L 295.812313 235.060601 
L 296.447197 235.458362 
L 297.082082 235.330193 
L 297.716967 239.418361 
L 298.351851 237.120155 
L 298.986736 233.725871 
L 299.62162 237.535603 
L 300.256505 238.636068 
L 300.891389 234.963372 
L 301.526274 237.296927 
L 302.161158 231.520484 
L 302.796043 230.327176 
L 303.430927 234.857299 
L 304.065812 235.374386 
L 304.700696 237.230638 
L 305.335581 234.905902 
L 305.970465 234.808672 
L 306.60535 233.88939 
L 307.240234 231.224362 
L 307.875119 238.737731 
L 308.510003 233.451845 
L 309.144888 238.697947 
L 309.779772 239.833809 
L 310.414657 235.330193 
L 311.049541 234.159005 
L 311.684426 230.716094 
L 312.31931 238.233896 
L 312.954195 234.945685 
L 313.589079 239.064793 
L 314.223964 234.083872 
L 314.858848 235.502556 
L 315.493733 236.364392 
L 316.128617 236.527911 
L 316.763502 233.451845 
L 317.398386 234.578863 
L 318.033271 232.090608 
L 318.668156 241.433698 
L 319.30304 234.879395 
L 319.937925 235.445109 
L 320.572809 235.719135 
L 321.207694 232.196681 
L 321.842578 237.615146 
L 322.477463 231.060843 
L 323.112347 232.170175 
L 323.747232 235.851714 
L 324.382116 235.652821 
L 325.017001 234.463947 
L 325.651885 234.768912 
L 326.28677 240.823791 
L 326.921654 233.562351 
L 327.556539 232.081765 
L 328.191423 232.470706 
L 328.826308 233.217626 
L 329.461192 230.795661 
L 330.096077 236.302512 
L 330.730961 230.95477 
L 331.365846 233.323676 
L 332.00073 238.618405 
L 332.635615 232.952444 
L 333.270499 235.666098 
L 333.905384 232.810998 
L 334.540268 236.258319 
L 335.175153 234.326934 
L 335.810037 239.687953 
L 336.444922 235.683761 
L 337.079806 236.099209 
L 337.714691 238.954286 
L 338.349575 230.397899 
L 338.98446 233.319266 
L 339.619344 233.469532 
L 340.889114 236.439525 
L 341.523998 233.049674 
L 342.158883 233.602135 
L 342.793767 236.399741 
L 343.428652 237.062685 
L 344.063536 233.500472 
L 344.698421 232.307164 
L 345.333305 232.32485 
L 345.96819 236.837286 
L 346.603074 234.097126 
L 347.237959 240.505572 
L 347.872843 238.596308 
L 348.507728 232.45302 
L 349.142612 232.413237 
L 349.777497 231.401158 
L 350.412381 234.53908 
L 351.68215 235.666098 
L 352.317035 238.348813 
L 352.951919 233.637484 
L 353.586804 234.008739 
L 354.221688 235.93569 
L 354.856573 232.550249 
L 355.491457 237.752159 
L 356.126342 232.112705 
L 356.761226 233.014324 
L 357.396111 235.140144 
L 358.030995 234.035246 
L 359.300764 234.433007 
L 359.935649 232.285067 
L 360.570533 236.567694 
L 361.205418 229.871969 
L 361.840303 233.089457 
L 362.475187 237.942208 
L 363.110072 232.095042 
L 363.744956 229.014542 
L 364.379841 234.777756 
L 365.014725 234.972215 
L 365.64961 233.650738 
L 366.284494 235.294843 
L 366.919379 233.367892 
L 367.554263 233.394399 
L 368.189148 233.575605 
L 368.824032 232.475116 
L 369.458917 232.528153 
L 370.093801 232.974541 
L 370.728686 232.258561 
L 371.36357 232.978951 
L 371.998455 235.922437 
L 372.633339 233.434182 
L 373.268224 233.619798 
L 373.903108 232.346947 
L 374.537993 236.315765 
L 375.172877 231.940342 
L 375.807762 232.395574 
L 376.442646 229.107362 
L 377.077531 233.84963 
L 377.712415 232.45743 
L 378.3473 232.934758 
L 378.982184 237.124565 
L 379.617069 229.52281 
L 380.251953 237.840545 
L 380.886838 233.734714 
L 381.521722 233.13806 
L 382.156607 236.417428 
L 382.791491 230.605612 
L 383.426376 234.901492 
L 384.061261 229.580256 
L 384.696145 236.78425 
L 385.33103 230.835444 
L 385.965914 232.028728 
L 386.600799 232.660732 
L 387.235683 235.082698 
L 387.870568 235.767738 
L 388.505452 231.935932 
L 389.140337 234.883805 
L 389.775221 231.281808 
L 390.410106 234.919178 
L 391.04499 229.673076 
L 391.679875 237.451627 
L 392.314759 230.415562 
L 392.949644 232.819841 
L 393.584528 233.765654 
L 394.219413 233.893823 
L 394.854297 235.520242 
L 395.489182 230.141561 
L 396.124066 233.314856 
L 396.758951 232.430923 
L 397.393835 234.163415 
L 398.02872 231.74145 
L 398.663604 234.379971 
L 399.298489 233.301579 
L 399.933373 237.442783 
L 400.568258 236.443934 
L 401.203142 230.636552 
L 401.838027 233.354615 
L 402.472911 232.112705 
L 403.107796 230.450936 
L 403.74268 234.004306 
L 404.377565 234.402067 
L 405.647334 234.048499 
L 406.282219 229.001289 
L 407.551988 234.181102 
L 408.186872 238.543272 
L 408.821757 226.985928 
L 409.456641 235.745641 
L 410.091526 231.874053 
L 410.72641 231.268555 
L 411.361295 234.075029 
L 411.996179 233.845197 
L 412.631064 230.579105 
L 413.265948 231.74145 
L 413.900833 239.502337 
L 415.170602 230.442093 
L 415.805486 235.710291 
L 416.440371 228.364852 
L 417.075255 235.007565 
L 417.71014 234.167825 
L 418.345024 233.023144 
L 418.979909 233.686087 
L 419.614793 234.57002 
L 420.249678 231.661907 
L 420.884562 232.894974 
L 421.519447 233.222036 
L 422.154331 234.499297 
L 423.4241 232.576779 
L 424.058985 231.790076 
L 424.693869 233.239723 
L 425.963638 235.719135 
L 426.598523 233.876136 
L 427.233408 235.895907 
L 427.868292 234.441851 
L 428.503177 233.831943 
L 429.138061 228.214586 
L 429.772946 231.463014 
L 430.40783 237.690279 
L 431.042715 235.834027 
L 431.677599 231.745883 
L 432.312484 233.549098 
L 432.947368 233.637484 
L 433.582253 234.079439 
L 434.217137 229.049916 
L 434.852022 231.524894 
L 435.486906 231.551424 
L 436.121791 231.409978 
L 436.756675 233.84963 
L 437.39156 230.795661 
L 438.026444 231.622124 
L 438.661329 235.754485 
L 439.296213 237.685869 
L 439.931098 228.590275 
L 440.565982 230.89289 
L 441.200867 235.007565 
L 441.835751 235.197614 
L 443.10552 229.403484 
L 443.740405 232.550249 
L 444.375289 232.532563 
L 445.010174 231.73704 
L 445.645058 229.390207 
L 446.279943 238.441609 
L 446.914827 230.614455 
L 447.549712 234.658406 
L 448.184597 227.533979 
L 448.819481 236.337862 
L 449.454366 231.339278 
L 450.08925 231.803329 
L 450.724135 231.67075 
L 451.993904 234.269488 
L 452.628788 231.078506 
L 453.263673 231.834269 
L 453.898557 229.942668 
L 454.533442 235.104794 
L 455.168326 231.246459 
L 455.803211 239.480217 
L 456.438095 226.685396 
L 457.07298 236.271572 
L 457.707864 230.663082 
L 458.342749 235.215277 
L 458.977633 235.16224 
L 459.612518 233.655147 
L 460.247402 229.960355 
L 460.882287 229.562593 
L 461.517171 235.184361 
L 462.152056 227.715185 
L 462.78694 228.15714 
L 463.421825 232.965697 
L 464.056709 231.078506 
L 464.691594 232.735865 
L 465.326478 229.894065 
L 465.961363 230.442093 
L 466.596247 236.872659 
L 467.231132 228.948253 
L 467.866016 234.291585 
L 468.500901 231.847522 
L 469.135785 235.96663 
L 469.77067 226.676577 
L 470.405555 230.318333 
L 471.040439 235.35229 
L 471.675324 230.128284 
L 472.310208 235.630725 
L 472.945093 238.105727 
L 473.579977 230.521635 
L 474.214862 232.29391 
L 474.849746 236.342295 
L 475.484631 229.483027 
L 476.119515 232.519309 
L 476.7544 232.532563 
L 477.389284 234.101535 
L 478.024169 230.380213 
L 478.659053 232.921504 
L 479.293938 228.820083 
L 479.928822 233.239723 
L 480.563707 236.02851 
L 481.198591 232.550249 
L 481.833476 230.30949 
L 483.103245 235.913594 
L 483.738129 232.996637 
L 484.373014 229.399051 
L 485.007898 229.478617 
L 485.642783 230.247633 
L 486.277667 232.925914 
L 486.912552 231.277399 
L 488.817205 235.135734 
L 489.45209 232.722612 
L 490.086974 231.551424 
L 490.721859 232.541406 
L 491.356744 234.66284 
L 491.991628 231.476291 
L 492.626513 233.005481 
L 493.261397 232.735865 
L 493.896282 235.887064 
L 494.531166 229.085265 
L 495.166051 237.447193 
L 495.800935 231.759136 
L 496.43582 232.704949 
L 497.070704 229.041072 
L 497.705589 230.503972 
L 498.340473 239.011756 
L 498.975358 231.666317 
L 499.610242 236.324608 
L 500.245127 236.342295 
L 500.880011 234.353464 
L 501.514896 233.557918 
L 502.14978 231.507231 
L 502.784665 233.836353 
L 503.419549 230.27414 
L 504.054434 233.518158 
L 504.689318 230.791251 
L 505.324203 234.919178 
L 505.959087 228.18367 
L 506.593972 231.440918 
L 507.228856 229.787992 
L 507.863741 233.332519 
L 508.498625 233.350206 
L 509.13351 238.0571 
L 509.768394 228.448828 
L 510.403279 234.556767 
L 511.038163 235.93569 
L 511.673048 231.63981 
L 512.307933 232.276224 
L 512.942817 226.773806 
L 513.577702 231.401158 
L 514.212586 228.674227 
L 514.847471 231.900559 
L 515.482355 230.18132 
L 516.11724 230.671901 
L 516.752124 231.692847 
L 517.387009 233.306013 
L 518.021893 229.45652 
L 518.656778 237.053842 
L 519.291662 229.48746 
L 519.926547 235.873811 
L 520.561431 228.165983 
L 521.196316 229.328351 
L 521.8312 228.851023 
L 522.466085 235.34788 
L 523.100969 230.976867 
L 523.735854 233.385555 
L 524.370738 231.776823 
L 525.005623 229.005699 
L 525.640507 230.782408 
L 526.275392 232.059668 
L 526.910276 231.418821 
L 527.545161 232.382297 
L 528.180045 233.027577 
L 528.81493 229.673076 
L 529.449814 231.211109 
L 530.084699 233.615388 
L 530.719583 226.048983 
L 531.989352 233.960113 
L 532.624237 231.078506 
L 533.259121 226.999205 
L 533.894006 227.922897 
L 534.528891 232.519309 
L 535.163775 235.003155 
L 535.79866 230.870794 
L 536.433544 233.367892 
L 537.068429 228.939409 
L 537.703313 232.802178 
L 538.338198 230.530479 
L 538.973082 226.517467 
L 539.607967 229.46534 
L 540.242851 231.76798 
L 540.877736 232.656322 
L 541.51262 232.510466 
L 542.147505 231.01665 
L 542.782389 230.057584 
L 543.417274 232.740298 
L 544.052158 233.067337 
L 544.687043 235.038504 
L 545.321927 230.26973 
L 545.956812 232.307164 
L 546.591696 227.423473 
L 547.226581 230.86195 
L 547.861465 231.940342 
L 548.49635 235.272747 
L 549.131234 233.840787 
L 549.766119 229.61563 
L 550.401003 233.686087 
L 551.035888 227.883114 
L 551.670772 232.373477 
L 552.305657 227.940584 
L 552.940541 236.395332 
L 553.575426 231.569087 
L 554.845195 232.399983 
L 555.48008 229.973608 
L 556.114964 230.950337 
L 556.749849 232.320441 
L 557.384733 229.151555 
L 558.019618 228.683071 
L 558.654502 231.409978 
L 559.289387 227.980367 
L 559.924271 234.079439 
L 560.559156 232.506056 
L 561.19404 228.386972 
L 561.828925 228.404635 
L 562.463809 233.85845 
L 563.098694 231.02547 
L 563.733578 231.754726 
L 564.368463 229.438834 
L 565.638232 235.011974 
L 566.273116 229.381388 
L 566.908001 231.73263 
L 567.542885 230.658648 
L 568.17777 232.757985 
L 568.812654 230.972433 
L 569.447539 231.785666 
L 570.082423 231.723787 
L 570.717308 232.528153 
L 571.352192 232.130391 
L 571.987077 233.553508 
L 572.621961 233.177843 
L 573.256846 230.21226 
L 573.89173 230.853107 
L 575.161499 228.917313 
L 575.796384 233.407652 
L 576.431268 232.554683 
L 577.066153 232.501646 
L 577.701038 229.359291 
L 578.335922 233.328109 
L 578.970807 230.508382 
L 579.605691 233.443025 
L 580.240576 227.993621 
L 580.87546 230.98571 
L 581.510345 229.606786 
L 582.145229 231.816583 
L 582.780114 228.81124 
L 582.780114 228.81124 
" clip-path="url(#p533ed9886e)" style="fill: none; stroke: #1f77b4; stroke-width: 1.5; stroke-linecap: square"/>
   </g>
   <g id="line2d_34">
    <path d="M 75.507386 110.524319 
L 76.142271 315.016097 
L 76.777155 295.923288 
L 77.41204 203.959675 
L 78.046924 349.780875 
L 78.681809 387.926697 
L 79.316693 326.272884 
L 79.951578 442.500263 
L 80.586462 186.895505 
L 81.221347 352.684578 
L 81.856232 351.809489 
L 82.491116 332.99514 
L 83.126001 184.827107 
L 83.760885 172.933883 
L 84.39577 205.073417 
L 85.030654 359.844379 
L 85.665539 219.910104 
L 86.300423 270.46625 
L 86.935308 333.034923 
L 87.570192 240.076871 
L 88.205077 208.016903 
L 88.839961 288.962381 
L 89.474846 288.962381 
L 90.10973 201.5333 
L 90.744615 211.55702 
L 91.379499 184.111127 
L 92.014384 182.002971 
L 92.649268 112.552933 
L 93.284153 192.981323 
L 93.919037 123.332393 
L 94.553922 152.289812 
L 95.188806 335.341973 
L 95.823691 371.180721 
L 97.09346 142.226308 
L 97.728344 163.148838 
L 98.363229 275.836088 
L 98.998113 175.240932 
L 99.632998 187.651244 
L 100.267882 254.834016 
L 100.902767 228.581431 
L 101.537651 222.813808 
L 102.172536 144.77201 
L 102.80742 250.41881 
L 104.07719 237.451627 
L 104.712074 123.730178 
L 105.346959 187.293266 
L 105.981843 161.557769 
L 106.616728 223.490005 
L 107.251612 214.540266 
L 107.886497 189.282097 
L 108.521381 234.667249 
L 109.156266 142.624094 
L 109.79115 241.230396 
L 110.426035 198.152292 
L 111.060919 105.552218 
L 111.695804 136.498468 
L 112.330688 318.237995 
L 112.965573 260.203854 
L 113.600457 309.248473 
L 114.235342 216.926858 
L 114.870226 291.547866 
L 115.505111 321.897462 
L 116.139995 201.851519 
L 116.77488 189.679858 
L 117.409764 271.977753 
L 118.044649 195.725917 
L 118.679533 281.882147 
L 119.314418 217.682622 
L 119.949302 229.257628 
L 120.584187 175.917129 
L 121.219071 221.779609 
L 121.853956 250.657462 
L 122.48884 251.532551 
L 123.123725 219.472584 
L 123.758609 249.464178 
L 124.393494 343.933709 
L 125.028379 229.337171 
L 125.663263 363.503833 
L 126.298148 216.250662 
L 126.933032 239.082456 
L 127.567917 327.068407 
L 128.202801 252.089422 
L 128.837686 238.764237 
L 129.47257 258.970787 
L 130.107455 342.30288 
L 131.377224 153.721772 
L 132.012108 171.143944 
L 132.646993 307.697187 
L 133.281877 272.176646 
L 133.916762 345.92254 
L 134.551646 225.359509 
L 135.186531 193.219975 
L 135.821415 328.261715 
L 136.4563 390.870171 
L 137.091184 198.987598 
L 137.726069 353.79832 
L 138.360953 349.025136 
L 138.995838 315.612751 
L 139.630722 260.124311 
L 140.265607 388.602905 
L 140.900491 245.088731 
L 141.535376 210.522821 
L 142.17026 219.711236 
L 142.805145 234.627466 
L 143.440029 336.336388 
L 144.074914 255.072668 
L 144.709798 209.846625 
L 145.344683 230.689588 
L 145.979567 258.374133 
L 146.614452 310.720217 
L 147.249337 237.133408 
L 147.884221 308.373384 
L 148.519106 229.138302 
L 149.15399 184.827107 
L 149.788875 401.490534 
L 150.423759 330.13122 
L 151.058644 293.138935 
L 151.693528 277.626027 
L 152.328413 375.07884 
L 152.963297 190.157186 
L 153.598182 312.19196 
L 154.233066 332.836031 
L 154.867951 303.401307 
L 155.502835 147.75528 
L 156.13772 309.288257 
L 156.772604 307.935839 
L 157.407489 223.848006 
L 158.042373 276.114524 
L 158.677258 300.656713 
L 159.312142 353.519885 
L 159.947027 277.546484 
L 160.581911 236.775406 
L 161.216796 365.015348 
L 161.85168 197.118094 
L 163.121449 277.307832 
L 163.756334 386.375411 
L 164.391218 378.340521 
L 165.026103 259.925419 
L 165.660987 293.775348 
L 166.295872 125.122355 
L 167.565641 319.550629 
L 168.200526 292.383172 
L 168.83541 243.895447 
L 169.470295 232.718202 
L 170.105179 299.582755 
L 170.740064 329.216347 
L 171.374948 257.896829 
L 172.009833 213.466308 
L 172.644717 386.176518 
L 173.279602 340.592485 
L 173.914486 322.732768 
L 174.549371 169.27444 
L 175.184255 167.762913 
L 175.81914 387.250488 
L 176.454024 218.040624 
L 177.088909 270.187815 
L 177.723793 294.332243 
L 178.358678 276.034981 
L 178.993562 222.495589 
L 179.628447 207.380466 
L 180.263331 279.376205 
L 180.898216 214.301614 
L 181.5331 271.102664 
L 182.167985 215.574465 
L 182.802869 237.769822 
L 183.437754 290.951212 
L 184.072638 304.87305 
L 184.707523 215.296029 
L 185.342407 347.712502 
L 185.977292 212.750328 
L 186.612176 332.080267 
L 187.247061 342.939294 
L 187.881945 393.654537 
L 188.51683 146.641538 
L 189.151715 170.666616 
L 189.786599 233.275073 
L 190.421484 257.101282 
L 191.056368 289.320383 
L 191.691253 297.633684 
L 192.326137 298.906558 
L 192.961022 206.54516 
L 193.595906 243.020358 
L 194.230791 311.117978 
L 194.865675 169.433549 
L 195.50056 299.383862 
L 196.135444 295.127766 
L 196.770329 274.04615 
L 197.405213 278.819335 
L 198.040098 241.747507 
L 198.674982 348.03072 
L 199.309867 310.680433 
L 199.944751 190.157186 
L 200.579636 175.519367 
L 201.21452 150.340764 
L 201.849405 314.697878 
L 202.484289 137.453124 
L 203.119174 277.029396 
L 203.754058 125.52014 
L 204.388943 315.493401 
L 205.023827 257.061499 
L 205.658712 323.210072 
L 206.293596 263.028015 
L 206.928481 302.685327 
L 207.563365 280.847949 
L 208.19825 250.697245 
L 208.833134 252.288314 
L 209.468019 281.802581 
L 210.102903 184.150911 
L 210.737788 238.605151 
L 211.372673 195.964569 
L 212.007557 264.261082 
L 212.642442 289.877253 
L 213.277326 271.77886 
L 213.912211 142.902529 
L 214.547095 255.271561 
L 215.18198 176.473999 
L 215.816864 288.087292 
L 216.451749 281.643471 
L 217.086633 131.844586 
L 217.721518 258.175264 
L 218.356402 247.236671 
L 218.991287 254.754473 
L 219.626171 89.999574 
L 220.261056 247.276454 
L 220.89594 290.036363 
L 221.530825 249.344828 
L 222.165709 110.882321 
L 222.800594 235.701448 
L 224.070363 323.130529 
L 224.705247 162.67151 
L 225.340132 270.943554 
L 225.975016 210.880823 
L 226.609901 282.956105 
L 227.244785 198.311402 
L 227.87967 239.082456 
L 229.149439 178.025309 
L 229.784323 256.822847 
L 230.419208 241.82705 
L 231.054092 312.828373 
L 231.688977 203.084586 
L 232.323862 194.970154 
L 232.958746 256.345519 
L 233.593631 251.492768 
L 234.228515 248.98685 
L 234.8634 259.328789 
L 235.498284 256.106867 
L 236.133169 214.699376 
L 236.768053 285.263155 
L 237.402938 327.028648 
L 238.037822 225.081074 
L 238.672707 341.785769 
L 239.307591 179.536812 
L 239.942476 271.89821 
L 240.57736 297.315489 
L 241.212245 248.071977 
L 241.847129 244.651186 
L 242.482014 158.733608 
L 243.116898 219.552126 
L 243.751783 167.922022 
L 244.386667 248.787957 
L 245.021552 267.522764 
L 245.656436 188.247898 
L 246.291321 244.730753 
L 246.926205 251.293899 
L 247.56109 185.383978 
L 248.195974 210.642148 
L 248.830859 191.628906 
L 249.465743 270.3469 
L 250.100628 183.991801 
L 250.735512 220.626085 
L 251.370397 226.910795 
L 252.005281 174.564735 
L 252.640166 245.844494 
L 253.27505 282.836779 
L 253.909935 168.956221 
L 254.54482 159.21096 
L 255.179704 332.239377 
L 255.814589 240.39509 
L 256.449473 236.934516 
L 257.084358 165.972975 
L 257.719242 296.400616 
L 258.354127 318.715323 
L 258.989011 298.389447 
L 259.623896 273.568822 
L 260.25878 238.485802 
L 260.893665 211.119475 
L 261.528549 251.810987 
L 262.163434 194.055281 
L 262.798318 174.524952 
L 263.433203 132.679892 
L 264.068087 265.732825 
L 264.702972 268.636505 
L 265.972741 198.390944 
L 266.607625 118.996729 
L 267.24251 268.716072 
L 267.877394 328.619717 
L 268.512279 200.578668 
L 269.147163 358.889735 
L 269.782048 136.657601 
L 270.416932 403.678245 
L 271.686701 286.098461 
L 272.321586 302.406892 
L 272.95647 275.319001 
L 273.591355 174.564735 
L 274.226239 223.72868 
L 274.861124 239.758676 
L 276.130893 266.130587 
L 276.765778 320.1075 
L 277.400662 210.244386 
L 278.035547 181.804078 
L 278.670431 255.271561 
L 279.305316 216.091552 
L 279.9402 297.951902 
L 280.575085 234.746816 
L 281.209969 323.170312 
L 281.844854 185.145326 
L 282.479738 286.695115 
L 283.114623 160.52357 
L 283.749507 271.18223 
L 284.384392 273.131278 
L 285.019276 340.433375 
L 285.654161 268.716072 
L 286.289045 215.335789 
L 286.92393 269.03429 
L 287.558814 275.915631 
L 288.193699 219.711236 
L 288.828583 296.99727 
L 289.463468 157.739217 
L 290.098352 203.442588 
L 290.733237 289.83747 
L 291.368121 204.118785 
L 292.003006 304.594615 
L 292.63789 203.999459 
L 293.272775 294.332243 
L 293.907659 221.143196 
L 294.542544 267.60233 
L 295.177428 294.411786 
L 295.812313 229.297411 
L 296.447197 208.613557 
L 297.082082 311.117978 
L 297.716967 279.972859 
L 298.351851 241.389505 
L 298.986736 292.422955 
L 299.62162 258.493459 
L 300.256505 192.424452 
L 300.891389 263.505319 
L 301.526274 211.079692 
L 302.161158 195.049697 
L 302.796043 226.910795 
L 303.430927 210.005734 
L 304.065812 301.253367 
L 305.335581 225.001531 
L 305.970465 269.392268 
L 306.60535 249.305068 
L 307.240234 265.016845 
L 307.875119 182.400732 
L 308.510003 300.139626 
L 309.144888 298.111012 
L 309.779772 236.695863 
L 310.414657 196.760092 
L 311.049541 226.791469 
L 311.684426 228.820083 
L 312.31931 199.862688 
L 312.954195 301.531802 
L 313.589079 185.423761 
L 314.223964 224.762855 
L 314.858848 201.5333 
L 315.493733 265.772585 
L 316.128617 297.71325 
L 316.763502 355.588282 
L 317.398386 193.577977 
L 318.033271 266.011261 
L 318.668156 167.007174 
L 319.30304 248.469762 
L 319.937925 168.638002 
L 320.572809 217.642838 
L 321.207694 228.223429 
L 321.842578 204.039242 
L 322.477463 244.651186 
L 323.112347 238.406259 
L 323.747232 197.515855 
L 324.382116 207.579359 
L 325.017001 275.637196 
L 325.651885 266.011261 
L 326.28677 232.797745 
L 326.921654 270.545793 
L 327.556539 325.278469 
L 328.191423 341.109572 
L 328.826308 243.060117 
L 329.461192 275.676979 
L 330.096077 246.441148 
L 330.730961 336.734149 
L 331.365846 251.373442 
L 332.00073 275.557653 
L 332.635615 237.849388 
L 333.270499 296.639268 
L 334.540268 356.463371 
L 335.175153 343.73484 
L 335.810037 246.759367 
L 336.444922 224.48442 
L 337.079806 282.637887 
L 337.714691 141.311436 
L 338.349575 291.229647 
L 338.98446 263.664428 
L 339.619344 199.584252 
L 340.254229 304.475289 
L 340.889114 118.280773 
L 341.523998 257.061499 
L 342.158883 248.390196 
L 342.793767 305.708357 
L 343.428652 153.920641 
L 344.063536 293.178718 
L 344.698421 258.175264 
L 345.333305 312.470395 
L 345.96819 305.071919 
L 346.603074 284.427849 
L 347.237959 223.05246 
L 347.872843 187.969463 
L 348.507728 212.511652 
L 349.142612 249.54372 
L 349.777497 268.159201 
L 350.412381 268.477419 
L 351.047266 287.769097 
L 351.68215 211.914998 
L 352.317035 226.552817 
L 352.951919 163.188598 
L 353.586804 298.667882 
L 354.221688 211.55702 
L 354.856573 305.62879 
L 356.126342 147.675713 
L 356.761226 276.91007 
L 357.396111 172.933883 
L 358.030995 249.623263 
L 358.66588 147.437061 
L 359.300764 236.457211 
L 359.935649 152.647814 
L 360.570533 190.833383 
L 361.205418 218.398602 
L 361.840303 356.463371 
L 362.475187 166.171868 
L 363.110072 117.525033 
L 363.744956 279.415989 
L 364.379841 130.213757 
L 365.014725 248.350413 
L 365.64961 281.205927 
L 366.284494 294.29246 
L 366.919379 207.181597 
L 367.554263 271.420882 
L 368.189148 186.179525 
L 368.824032 144.732227 
L 369.458917 147.317711 
L 370.093801 166.092301 
L 370.728686 297.315489 
L 371.36357 206.823595 
L 371.998455 271.341316 
L 372.633339 270.3469 
L 373.268224 259.567441 
L 373.903108 254.277145 
L 374.537993 239.162022 
L 375.172877 328.69926 
L 375.807762 186.060175 
L 376.442646 272.773276 
L 377.077531 291.309213 
L 377.712415 198.908032 
L 378.3473 277.108939 
L 378.982184 256.305759 
L 379.617069 338.882089 
L 380.251953 298.389447 
L 380.886838 183.514473 
L 381.521722 307.259643 
L 382.156607 336.773933 
L 382.791491 376.192581 
L 383.426376 194.850828 
L 384.061261 271.06288 
L 384.696145 200.976429 
L 385.33103 150.181631 
L 385.965914 197.834074 
L 386.600799 380.28958 
L 387.235683 346.916979 
L 387.870568 92.624842 
L 388.505452 291.229647 
L 389.140337 258.254807 
L 389.775221 289.757927 
L 390.410106 224.205985 
L 391.04499 319.431303 
L 391.679875 295.72442 
L 392.314759 295.485744 
L 392.949644 350.655964 
L 393.584528 245.96382 
L 394.219413 268.954724 
L 394.854297 180.968772 
L 395.489182 286.098461 
L 396.124066 216.250662 
L 396.758951 226.274382 
L 397.393835 149.545194 
L 398.02872 306.066335 
L 398.663604 261.238053 
L 399.298489 274.80189 
L 399.933373 302.088673 
L 400.568258 256.425085 
L 401.203142 307.498295 
L 401.838027 145.328881 
L 402.472911 247.196888 
L 403.107796 309.049605 
L 403.74268 147.556363 
L 404.377565 279.853533 
L 405.01245 356.463371 
L 405.647334 184.588455 
L 406.282219 218.199709 
L 406.917103 310.401998 
L 407.551988 144.374272 
L 408.186872 247.912868 
L 408.821757 256.305759 
L 409.456641 198.550054 
L 410.091526 298.548556 
L 410.72641 253.680491 
L 411.361295 261.794924 
L 411.996179 171.382596 
L 412.631064 180.053899 
L 413.900833 261.87449 
L 414.535717 93.897669 
L 415.170602 230.689588 
L 415.805486 236.019667 
L 416.440371 244.094316 
L 417.075255 216.966642 
L 417.71014 255.152235 
L 418.345024 270.227574 
L 418.979909 255.43067 
L 419.614793 305.787899 
L 420.249678 183.59404 
L 420.884562 231.405568 
L 421.519447 264.897519 
L 422.154331 47.518125 
L 422.789216 247.873108 
L 423.4241 230.450936 
L 424.058985 302.287566 
L 424.693869 315.970729 
L 425.328754 372.254691 
L 425.963638 275.120108 
L 426.598523 249.54372 
L 427.233408 85.10704 
L 427.868292 128.901147 
L 428.503177 349.860442 
L 429.138061 277.188506 
L 429.772946 265.613499 
L 430.40783 211.795672 
L 431.042715 104.876045 
L 431.677599 231.286242 
L 432.312484 254.476038 
L 432.947368 290.513667 
L 433.582253 169.672201 
L 434.217137 308.254058 
L 434.852022 234.070595 
L 435.486906 227.746125 
L 436.121791 281.007058 
L 436.756675 166.41052 
L 437.39156 249.225502 
L 438.026444 181.605209 
L 438.661329 192.146017 
L 439.296213 254.515797 
L 439.931098 185.423761 
L 440.565982 286.97355 
L 441.200867 224.921965 
L 442.470636 152.568247 
L 443.10552 133.833417 
L 443.740405 237.411843 
L 444.375289 206.028073 
L 445.010174 165.217212 
L 445.645058 206.584943 
L 446.279943 173.57032 
L 446.914827 335.540841 
L 447.549712 250.737028 
L 448.184597 335.739734 
L 448.819481 159.489395 
L 449.454366 313.265918 
L 450.08925 214.778918 
L 450.724135 143.260483 
L 451.359019 292.303629 
L 451.993904 316.169621 
L 452.628788 156.903911 
L 453.263673 206.425834 
L 453.898557 278.063571 
L 454.533442 202.96526 
L 455.168326 222.535372 
L 455.803211 176.633109 
L 456.438095 239.321131 
L 457.07298 264.300865 
L 457.707864 264.380408 
L 458.342749 250.816571 
L 458.977633 241.866833 
L 459.612518 237.37206 
L 460.247402 291.030778 
L 460.882287 330.926743 
L 461.517171 347.195414 
L 462.152056 158.097219 
L 462.78694 72.89562 
L 463.421825 298.508773 
L 464.056709 315.891186 
L 464.691594 257.459284 
L 465.326478 254.555581 
L 465.961363 364.219813 
L 466.596247 187.969463 
L 467.231132 328.500367 
L 467.866016 300.855606 
L 468.500901 228.143887 
L 469.135785 176.633109 
L 469.77067 295.366418 
L 470.405555 259.209439 
L 471.040439 94.693192 
L 471.675324 249.981265 
L 472.310208 361.515003 
L 472.945093 145.44823 
L 473.579977 336.296605 
L 474.214862 315.851403 
L 474.849746 255.470453 
L 475.484631 218.955472 
L 476.119515 200.737777 
L 476.7544 279.773967 
L 477.389284 244.253425 
L 478.024169 145.726666 
L 478.659053 244.492077 
L 479.293938 317.362906 
L 480.563707 136.975773 
L 481.198591 315.175206 
L 481.833476 337.410346 
L 482.46836 198.112509 
L 483.103245 284.984719 
L 483.738129 250.657462 
L 484.373014 185.901066 
L 485.642783 216.489314 
L 486.277667 224.086659 
L 487.547436 195.725917 
L 488.182321 220.387432 
L 488.817205 289.877253 
L 489.45209 259.129896 
L 490.086974 404.593118 
L 490.721859 257.220608 
L 491.991628 366.288199 
L 493.261397 199.982014 
L 493.896282 140.555696 
L 494.531166 233.354615 
L 495.166051 233.115963 
L 495.800935 305.429921 
L 496.43582 227.030145 
L 497.070704 187.92968 
L 497.705589 319.510846 
L 498.340473 217.722405 
L 498.975358 207.380466 
L 499.610242 354.912085 
L 500.245127 118.79786 
L 500.880011 200.180906 
L 501.514896 299.14521 
L 502.14978 283.831195 
L 503.419549 336.813692 
L 504.054434 217.404186 
L 504.689318 224.046875 
L 505.324203 114.820199 
L 505.959087 165.336538 
L 506.593972 239.281348 
L 507.228856 220.785194 
L 507.863741 170.388181 
L 508.498625 249.981265 
L 509.13351 127.628273 
L 509.768394 245.486492 
L 510.403279 325.716014 
L 511.038163 263.903104 
L 511.673048 308.094949 
L 512.307933 106.387572 
L 512.942817 219.4328 
L 513.577702 286.854224 
L 514.212586 296.480183 
L 514.847471 249.424394 
L 515.482355 323.130529 
L 516.11724 176.354673 
L 516.752124 158.256304 
L 517.387009 178.860615 
L 518.021893 327.426409 
L 519.291662 140.834132 
L 519.926547 247.912868 
L 520.561431 236.616321 
L 521.196316 220.228323 
L 521.8312 103.603171 
L 522.466085 202.328846 
L 523.100969 225.31975 
L 523.735854 195.08948 
L 524.370738 325.238686 
L 525.005623 201.294648 
L 525.640507 268.716072 
L 526.275392 186.815938 
L 526.910276 349.701332 
L 527.545161 69.633915 
L 528.180045 209.40908 
L 528.81493 257.658153 
L 529.449814 215.455139 
L 530.084699 237.292517 
L 530.719583 280.450187 
L 531.354468 280.688839 
L 531.989352 168.081132 
L 532.624237 254.038493 
L 533.259121 245.605842 
L 533.894006 255.589779 
L 534.528891 160.125809 
L 535.163775 196.52144 
L 535.79866 105.830654 
L 536.433544 142.226308 
L 537.068429 273.688148 
L 537.703313 207.619118 
L 538.338198 181.286991 
L 538.973082 224.285551 
L 539.607967 238.286933 
L 540.242851 237.252734 
L 540.877736 222.614939 
L 541.51262 263.743995 
L 542.147505 147.039276 
L 542.782389 288.127075 
L 543.417274 242.503246 
L 544.052158 262.709796 
L 544.687043 158.256304 
L 545.321927 260.362963 
L 545.956812 244.730753 
L 546.591696 240.037111 
L 547.226581 80.333856 
L 547.861465 329.932327 
L 548.49635 208.533991 
L 549.131234 217.28486 
L 549.766119 232.042005 
L 550.401003 217.44397 
L 551.670772 135.185858 
L 552.305657 285.342698 
L 552.940541 57.502062 
L 553.575426 224.205985 
L 554.21031 204.39722 
L 554.845195 141.510352 
L 555.48008 261.834707 
L 556.114964 246.083146 
L 556.749849 264.897519 
L 557.384733 226.314165 
L 558.019618 335.262406 
L 558.654502 163.467057 
L 559.289387 252.884968 
L 559.924271 255.589779 
L 560.559156 263.505319 
L 561.19404 214.500483 
L 561.828925 261.954033 
L 562.463809 191.35047 
L 563.098694 241.031527 
L 563.733578 128.821581 
L 564.368463 240.792851 
L 565.003347 208.533991 
L 565.638232 164.421689 
L 566.273116 269.988922 
L 566.908001 255.510213 
L 567.542885 237.53117 
L 568.17777 177.508198 
L 568.812654 255.390887 
L 569.447539 165.654756 
L 570.082423 278.461356 
L 570.717308 236.218536 
L 571.352192 352.764145 
L 571.987077 96.164935 
L 572.621961 307.935839 
L 573.256846 214.540266 
L 573.89173 335.938603 
L 574.526615 348.985352 
L 575.161499 275.319001 
L 575.796384 286.496222 
L 576.431268 289.917013 
L 577.066153 376.391462 
L 577.701038 316.965144 
L 578.335922 208.533991 
L 578.970807 371.538711 
L 579.605691 238.883587 
L 580.240576 240.673525 
L 580.87546 292.582064 
L 581.510345 205.312093 
L 582.145229 327.863954 
L 582.780114 244.213642 
L 582.780114 244.213642 
" clip-path="url(#p533ed9886e)" style="fill: none; stroke: #ff7f0e; stroke-width: 1.5; stroke-linecap: square"/>
   </g>
   <g id="line2d_35">
    <path d="M 50.14375 551.518125 
L 608.14375 551.518125 
" clip-path="url(#p533ed9886e)" style="fill: none; stroke-dasharray: 11.1,4.8; stroke-dashoffset: 0; stroke: #ff0000; stroke-width: 3"/>
   </g>
   <g id="patch_3">
    <path d="M 50.14375 576.718125 
L 50.14375 22.318125 
" style="fill: none; stroke: #000000; stroke-width: 0.8; stroke-linejoin: miter; stroke-linecap: square"/>
   </g>
   <g id="patch_4">
    <path d="M 608.14375 576.718125 
L 608.14375 22.318125 
" style="fill: none; stroke: #000000; stroke-width: 0.8; stroke-linejoin: miter; stroke-linecap: square"/>
   </g>
   <g id="patch_5">
    <path d="M 50.14375 576.718125 
L 608.14375 576.718125 
" style="fill: none; stroke: #000000; stroke-width: 0.8; stroke-linejoin: miter; stroke-linecap: square"/>
   </g>
   <g id="patch_6">
    <path d="M 50.14375 22.318125 
L 608.14375 22.318125 
" style="fill: none; stroke: #000000; stroke-width: 0.8; stroke-linejoin: miter; stroke-linecap: square"/>
   </g>
   <g id="text_19">
    <!-- Train and Val Accuracy -->
    <g transform="translate(261.365313 16.318125) scale(0.12 -0.12)">
     <defs>
      <path id="DejaVuSans-54" d="M -19 4666 
L 3928 4666 
L 3928 4134 
L 2272 4134 
L 2272 0 
L 1638 0 
L 1638 4134 
L -19 4134 
L -19 4666 
z
" transform="scale(0.015625)"/>
      <path id="DejaVuSans-69" d="M 603 3500 
L 1178 3500 
L 1178 0 
L 603 0 
L 603 3500 
z
M 603 4863 
L 1178 4863 
L 1178 4134 
L 603 4134 
L 603 4863 
z
" transform="scale(0.015625)"/>
      <path id="DejaVuSans-6e" d="M 3513 2113 
L 3513 0 
L 2938 0 
L 2938 2094 
Q 2938 2591 2744 2837 
Q 2550 3084 2163 3084 
Q 1697 3084 1428 2787 
Q 1159 2491 1159 1978 
L 1159 0 
L 581 0 
L 581 3500 
L 1159 3500 
L 1159 2956 
Q 1366 3272 1645 3428 
Q 1925 3584 2291 3584 
Q 2894 3584 3203 3211 
Q 3513 2838 3513 2113 
z
" transform="scale(0.015625)"/>
      <path id="DejaVuSans-20" transform="scale(0.015625)"/>
      <path id="DejaVuSans-64" d="M 2906 2969 
L 2906 4863 
L 3481 4863 
L 3481 0 
L 2906 0 
L 2906 525 
Q 2725 213 2448 61 
Q 2172 -91 1784 -91 
Q 1150 -91 751 415 
Q 353 922 353 1747 
Q 353 2572 751 3078 
Q 1150 3584 1784 3584 
Q 2172 3584 2448 3432 
Q 2725 3281 2906 2969 
z
M 947 1747 
Q 947 1113 1208 752 
Q 1469 391 1925 391 
Q 2381 391 2643 752 
Q 2906 1113 2906 1747 
Q 2906 2381 2643 2742 
Q 2381 3103 1925 3103 
Q 1469 3103 1208 2742 
Q 947 2381 947 1747 
z
" transform="scale(0.015625)"/>
      <path id="DejaVuSans-56" d="M 1831 0 
L 50 4666 
L 709 4666 
L 2188 738 
L 3669 4666 
L 4325 4666 
L 2547 0 
L 1831 0 
z
" transform="scale(0.015625)"/>
      <path id="DejaVuSans-6c" d="M 603 4863 
L 1178 4863 
L 1178 0 
L 603 0 
L 603 4863 
z
" transform="scale(0.015625)"/>
     </defs>
     <use xlink:href="#DejaVuSans-54"/>
     <use xlink:href="#DejaVuSans-72" transform="translate(46.333984 0)"/>
     <use xlink:href="#DejaVuSans-61" transform="translate(87.447266 0)"/>
     <use xlink:href="#DejaVuSans-69" transform="translate(148.726562 0)"/>
     <use xlink:href="#DejaVuSans-6e" transform="translate(176.509766 0)"/>
     <use xlink:href="#DejaVuSans-20" transform="translate(239.888672 0)"/>
     <use xlink:href="#DejaVuSans-61" transform="translate(271.675781 0)"/>
     <use xlink:href="#DejaVuSans-6e" transform="translate(332.955078 0)"/>
     <use xlink:href="#DejaVuSans-64" transform="translate(396.333984 0)"/>
     <use xlink:href="#DejaVuSans-20" transform="translate(459.810547 0)"/>
     <use xlink:href="#DejaVuSans-56" transform="translate(491.597656 0)"/>
     <use xlink:href="#DejaVuSans-61" transform="translate(552.255859 0)"/>
     <use xlink:href="#DejaVuSans-6c" transform="translate(613.535156 0)"/>
     <use xlink:href="#DejaVuSans-20" transform="translate(641.318359 0)"/>
     <use xlink:href="#DejaVuSans-41" transform="translate(673.105469 0)"/>
     <use xlink:href="#DejaVuSans-63" transform="translate(739.763672 0)"/>
     <use xlink:href="#DejaVuSans-63" transform="translate(794.744141 0)"/>
     <use xlink:href="#DejaVuSans-75" transform="translate(849.724609 0)"/>
     <use xlink:href="#DejaVuSans-72" transform="translate(913.103516 0)"/>
     <use xlink:href="#DejaVuSans-61" transform="translate(954.216797 0)"/>
     <use xlink:href="#DejaVuSans-63" transform="translate(1015.496094 0)"/>
     <use xlink:href="#DejaVuSans-79" transform="translate(1070.476562 0)"/>
    </g>
   </g>
   <g id="legend_1">
    <g id="patch_7">
     <path d="M 57.14375 74.90875 
L 224.267187 74.90875 
Q 226.267187 74.90875 226.267187 72.90875 
L 226.267187 29.318125 
Q 226.267187 27.318125 224.267187 27.318125 
L 57.14375 27.318125 
Q 55.14375 27.318125 55.14375 29.318125 
L 55.14375 72.90875 
Q 55.14375 74.90875 57.14375 74.90875 
z
" style="fill: #ffffff; opacity: 0.8; stroke: #cccccc; stroke-linejoin: miter"/>
    </g>
    <g id="line2d_36">
     <path d="M 59.14375 35.416562 
L 69.14375 35.416562 
L 79.14375 35.416562 
" style="fill: none; stroke: #1f77b4; stroke-width: 1.5; stroke-linecap: square"/>
    </g>
    <g id="text_20">
     <!-- train_accuracy -->
     <g transform="translate(87.14375 38.916562) scale(0.1 -0.1)">
      <defs>
       <path id="DejaVuSans-74" d="M 1172 4494 
L 1172 3500 
L 2356 3500 
L 2356 3053 
L 1172 3053 
L 1172 1153 
Q 1172 725 1289 603 
Q 1406 481 1766 481 
L 2356 481 
L 2356 0 
L 1766 0 
Q 1100 0 847 248 
Q 594 497 594 1153 
L 594 3053 
L 172 3053 
L 172 3500 
L 594 3500 
L 594 4494 
L 1172 4494 
z
" transform="scale(0.015625)"/>
       <path id="DejaVuSans-5f" d="M 3263 -1063 
L 3263 -1509 
L -63 -1509 
L -63 -1063 
L 3263 -1063 
z
" transform="scale(0.015625)"/>
      </defs>
      <use xlink:href="#DejaVuSans-74"/>
      <use xlink:href="#DejaVuSans-72" transform="translate(39.208984 0)"/>
      <use xlink:href="#DejaVuSans-61" transform="translate(80.322266 0)"/>
      <use xlink:href="#DejaVuSans-69" transform="translate(141.601562 0)"/>
      <use xlink:href="#DejaVuSans-6e" transform="translate(169.384766 0)"/>
      <use xlink:href="#DejaVuSans-5f" transform="translate(232.763672 0)"/>
      <use xlink:href="#DejaVuSans-61" transform="translate(282.763672 0)"/>
      <use xlink:href="#DejaVuSans-63" transform="translate(344.042969 0)"/>
      <use xlink:href="#DejaVuSans-63" transform="translate(399.023438 0)"/>
      <use xlink:href="#DejaVuSans-75" transform="translate(454.003906 0)"/>
      <use xlink:href="#DejaVuSans-72" transform="translate(517.382812 0)"/>
      <use xlink:href="#DejaVuSans-61" transform="translate(558.496094 0)"/>
      <use xlink:href="#DejaVuSans-63" transform="translate(619.775391 0)"/>
      <use xlink:href="#DejaVuSans-79" transform="translate(674.755859 0)"/>
     </g>
    </g>
    <g id="line2d_37">
     <path d="M 59.14375 50.372812 
L 69.14375 50.372812 
L 79.14375 50.372812 
" style="fill: none; stroke: #ff7f0e; stroke-width: 1.5; stroke-linecap: square"/>
    </g>
    <g id="text_21">
     <!-- val_accuracy -->
     <g transform="translate(87.14375 53.872812) scale(0.1 -0.1)">
      <defs>
       <path id="DejaVuSans-76" d="M 191 3500 
L 800 3500 
L 1894 563 
L 2988 3500 
L 3597 3500 
L 2284 0 
L 1503 0 
L 191 3500 
z
" transform="scale(0.015625)"/>
      </defs>
      <use xlink:href="#DejaVuSans-76"/>
      <use xlink:href="#DejaVuSans-61" transform="translate(59.179688 0)"/>
      <use xlink:href="#DejaVuSans-6c" transform="translate(120.458984 0)"/>
      <use xlink:href="#DejaVuSans-5f" transform="translate(148.242188 0)"/>
      <use xlink:href="#DejaVuSans-61" transform="translate(198.242188 0)"/>
      <use xlink:href="#DejaVuSans-63" transform="translate(259.521484 0)"/>
      <use xlink:href="#DejaVuSans-63" transform="translate(314.501953 0)"/>
      <use xlink:href="#DejaVuSans-75" transform="translate(369.482422 0)"/>
      <use xlink:href="#DejaVuSans-72" transform="translate(432.861328 0)"/>
      <use xlink:href="#DejaVuSans-61" transform="translate(473.974609 0)"/>
      <use xlink:href="#DejaVuSans-63" transform="translate(535.253906 0)"/>
      <use xlink:href="#DejaVuSans-79" transform="translate(590.234375 0)"/>
     </g>
    </g>
    <g id="line2d_38">
     <path d="M 59.14375 65.329062 
L 69.14375 65.329062 
L 79.14375 65.329062 
" style="fill: none; stroke-dasharray: 11.1,4.8; stroke-dashoffset: 0; stroke: #ff0000; stroke-width: 3"/>
    </g>
    <g id="text_22">
     <!-- Random-Guesser Accuracy -->
     <g transform="translate(87.14375 68.829062) scale(0.1 -0.1)">
      <defs>
       <path id="DejaVuSans-52" d="M 2841 2188 
Q 3044 2119 3236 1894 
Q 3428 1669 3622 1275 
L 4263 0 
L 3584 0 
L 2988 1197 
Q 2756 1666 2539 1819 
Q 2322 1972 1947 1972 
L 1259 1972 
L 1259 0 
L 628 0 
L 628 4666 
L 2053 4666 
Q 2853 4666 3247 4331 
Q 3641 3997 3641 3322 
Q 3641 2881 3436 2590 
Q 3231 2300 2841 2188 
z
M 1259 4147 
L 1259 2491 
L 2053 2491 
Q 2509 2491 2742 2702 
Q 2975 2913 2975 3322 
Q 2975 3731 2742 3939 
Q 2509 4147 2053 4147 
L 1259 4147 
z
" transform="scale(0.015625)"/>
       <path id="DejaVuSans-6d" d="M 3328 2828 
Q 3544 3216 3844 3400 
Q 4144 3584 4550 3584 
Q 5097 3584 5394 3201 
Q 5691 2819 5691 2113 
L 5691 0 
L 5113 0 
L 5113 2094 
Q 5113 2597 4934 2840 
Q 4756 3084 4391 3084 
Q 3944 3084 3684 2787 
Q 3425 2491 3425 1978 
L 3425 0 
L 2847 0 
L 2847 2094 
Q 2847 2600 2669 2842 
Q 2491 3084 2119 3084 
Q 1678 3084 1418 2786 
Q 1159 2488 1159 1978 
L 1159 0 
L 581 0 
L 581 3500 
L 1159 3500 
L 1159 2956 
Q 1356 3278 1631 3431 
Q 1906 3584 2284 3584 
Q 2666 3584 2933 3390 
Q 3200 3197 3328 2828 
z
" transform="scale(0.015625)"/>
       <path id="DejaVuSans-2d" d="M 313 2009 
L 1997 2009 
L 1997 1497 
L 313 1497 
L 313 2009 
z
" transform="scale(0.015625)"/>
       <path id="DejaVuSans-47" d="M 3809 666 
L 3809 1919 
L 2778 1919 
L 2778 2438 
L 4434 2438 
L 4434 434 
Q 4069 175 3628 42 
Q 3188 -91 2688 -91 
Q 1594 -91 976 548 
Q 359 1188 359 2328 
Q 359 3472 976 4111 
Q 1594 4750 2688 4750 
Q 3144 4750 3555 4637 
Q 3966 4525 4313 4306 
L 4313 3634 
Q 3963 3931 3569 4081 
Q 3175 4231 2741 4231 
Q 1884 4231 1454 3753 
Q 1025 3275 1025 2328 
Q 1025 1384 1454 906 
Q 1884 428 2741 428 
Q 3075 428 3337 486 
Q 3600 544 3809 666 
z
" transform="scale(0.015625)"/>
       <path id="DejaVuSans-65" d="M 3597 1894 
L 3597 1613 
L 953 1613 
Q 991 1019 1311 708 
Q 1631 397 2203 397 
Q 2534 397 2845 478 
Q 3156 559 3463 722 
L 3463 178 
Q 3153 47 2828 -22 
Q 2503 -91 2169 -91 
Q 1331 -91 842 396 
Q 353 884 353 1716 
Q 353 2575 817 3079 
Q 1281 3584 2069 3584 
Q 2775 3584 3186 3129 
Q 3597 2675 3597 1894 
z
M 3022 2063 
Q 3016 2534 2758 2815 
Q 2500 3097 2075 3097 
Q 1594 3097 1305 2825 
Q 1016 2553 972 2059 
L 3022 2063 
z
" transform="scale(0.015625)"/>
      </defs>
      <use xlink:href="#DejaVuSans-52"/>
      <use xlink:href="#DejaVuSans-61" transform="translate(67.232422 0)"/>
      <use xlink:href="#DejaVuSans-6e" transform="translate(128.511719 0)"/>
      <use xlink:href="#DejaVuSans-64" transform="translate(191.890625 0)"/>
      <use xlink:href="#DejaVuSans-6f" transform="translate(255.367188 0)"/>
      <use xlink:href="#DejaVuSans-6d" transform="translate(316.548828 0)"/>
      <use xlink:href="#DejaVuSans-2d" transform="translate(413.960938 0)"/>
      <use xlink:href="#DejaVuSans-47" transform="translate(453.669922 0)"/>
      <use xlink:href="#DejaVuSans-75" transform="translate(531.160156 0)"/>
      <use xlink:href="#DejaVuSans-65" transform="translate(594.539062 0)"/>
      <use xlink:href="#DejaVuSans-73" transform="translate(656.0625 0)"/>
      <use xlink:href="#DejaVuSans-73" transform="translate(708.162109 0)"/>
      <use xlink:href="#DejaVuSans-65" transform="translate(760.261719 0)"/>
      <use xlink:href="#DejaVuSans-72" transform="translate(821.785156 0)"/>
      <use xlink:href="#DejaVuSans-20" transform="translate(862.898438 0)"/>
      <use xlink:href="#DejaVuSans-41" transform="translate(894.685547 0)"/>
      <use xlink:href="#DejaVuSans-63" transform="translate(961.34375 0)"/>
      <use xlink:href="#DejaVuSans-63" transform="translate(1016.324219 0)"/>
      <use xlink:href="#DejaVuSans-75" transform="translate(1071.304688 0)"/>
      <use xlink:href="#DejaVuSans-72" transform="translate(1134.683594 0)"/>
      <use xlink:href="#DejaVuSans-61" transform="translate(1175.796875 0)"/>
      <use xlink:href="#DejaVuSans-63" transform="translate(1237.076172 0)"/>
      <use xlink:href="#DejaVuSans-79" transform="translate(1292.056641 0)"/>
     </g>
    </g>
   </g>
  </g>
 </g>
 <defs>
  <clipPath id="p533ed9886e">
   <rect x="50.14375" y="22.318125" width="558" height="554.4"/>
  </clipPath>
 </defs>
</svg>
