<?xml version="1.0" encoding="utf-8" standalone="no"?>
<!DOCTYPE svg PUBLIC "-//W3C//DTD SVG 1.1//EN"
  "http://www.w3.org/Graphics/SVG/1.1/DTD/svg11.dtd">
<svg xmlns:xlink="http://www.w3.org/1999/xlink" width="621.70625pt" height="614.274375pt" viewBox="0 0 621.70625 614.274375" xmlns="http://www.w3.org/2000/svg" version="1.1">
 <metadata>
  <rdf:RDF xmlns:dc="http://purl.org/dc/elements/1.1/" xmlns:cc="http://creativecommons.org/ns#" xmlns:rdf="http://www.w3.org/1999/02/22-rdf-syntax-ns#">
   <cc:Work>
    <dc:type rdf:resource="http://purl.org/dc/dcmitype/StillImage"/>
    <dc:date>2026-06-01T20:48:46.003831</dc:date>
    <dc:format>image/svg+xml</dc:format>
    <dc:creator>
     <cc:Agent>
      <dc:title>Matplotlib v3.10.9, https://matplotlib.org/</dc:title>
     </cc:Agent>
    </dc:creator>
   </cc:Work>
  </rdf:RDF>
 </metadata>
 <defs>
  <style type="text/css">*{stroke-linejoin: round; stroke-linecap: butt}</style>
 </defs>
 <g id="figure_1">
  <g id="patch_1">
   <path d="M 0 614.274375 
L 621.70625 614.274375 
L 621.70625 0 
L 0 0 
z
" style="fill: #ffffff"/>
  </g>
  <g id="axes_1">
   <g id="patch_2">
    <path d="M 56.50625 576.718125 
L 614.50625 576.718125 
L 614.50625 22.318125 
L 56.50625 22.318125 
z
" style="fill: #ffffff"/>
   </g>
   <g id="matplotlib.axis_1">
    <g id="xtick_1">
     <g id="line2d_1">
      <path d="M 81.869886 576.718125 
L 81.869886 22.318125 
" clip-path="url(#p2455e5910b)" style="fill: none; stroke: #b0b0b0; stroke-width: 0.8; stroke-linecap: square"/>
     </g>
     <g id="line2d_2">
      <defs>
       <path id="mf0cfc67893" d="M 0 0 
L 0 3.5 
" style="stroke: #000000; stroke-width: 0.8"/>
      </defs>
      <g>
       <use xlink:href="#mf0cfc67893" x="81.869886" y="576.718125" style="stroke: #000000; stroke-width: 0.8"/>
      </g>
     </g>
     <g id="text_1">
      <!-- 0 -->
      <g transform="translate(78.688636 591.316563) scale(0.1 -0.1)">
       <defs>
        <path id="DejaVuSans-30" d="M 2034 4250 
Q 1547 4250 1301 3770 
Q 1056 3291 1056 2328 
Q 1056 1369 1301 889 
Q 1547 409 2034 409 
Q 2525 409 2770 889 
Q 3016 1369 3016 2328 
Q 3016 3291 2770 3770 
Q 2525 4250 2034 4250 
z
M 2034 4750 
Q 2819 4750 3233 4129 
Q 3647 3509 3647 2328 
Q 3647 1150 3233 529 
Q 2819 -91 2034 -91 
Q 1250 -91 836 529 
Q 422 1150 422 2328 
Q 422 3509 836 4129 
Q 1250 4750 2034 4750 
z
" transform="scale(0.015625)"/>
       </defs>
       <use xlink:href="#DejaVuSans-30"/>
      </g>
     </g>
    </g>
    <g id="xtick_2">
     <g id="line2d_3">
      <path d="M 145.358338 576.718125 
L 145.358338 22.318125 
" clip-path="url(#p2455e5910b)" style="fill: none; stroke: #b0b0b0; stroke-width: 0.8; stroke-linecap: square"/>
     </g>
     <g id="line2d_4">
      <g>
       <use xlink:href="#mf0cfc67893" x="145.358338" y="576.718125" style="stroke: #000000; stroke-width: 0.8"/>
      </g>
     </g>
     <g id="text_2">
      <!-- 100 -->
      <g transform="translate(135.814588 591.316563) scale(0.1 -0.1)">
       <defs>
        <path id="DejaVuSans-31" d="M 794 531 
L 1825 531 
L 1825 4091 
L 703 3866 
L 703 4441 
L 1819 4666 
L 2450 4666 
L 2450 531 
L 3481 531 
L 3481 0 
L 794 0 
L 794 531 
z
" transform="scale(0.015625)"/>
       </defs>
       <use xlink:href="#DejaVuSans-31"/>
       <use xlink:href="#DejaVuSans-30" transform="translate(63.623047 0)"/>
       <use xlink:href="#DejaVuSans-30" transform="translate(127.246094 0)"/>
      </g>
     </g>
    </g>
    <g id="xtick_3">
     <g id="line2d_5">
      <path d="M 208.846789 576.718125 
L 208.846789 22.318125 
" clip-path="url(#p2455e5910b)" style="fill: none; stroke: #b0b0b0; stroke-width: 0.8; stroke-linecap: square"/>
     </g>
     <g id="line2d_6">
      <g>
       <use xlink:href="#mf0cfc67893" x="208.846789" y="576.718125" style="stroke: #000000; stroke-width: 0.8"/>
      </g>
     </g>
     <g id="text_3">
      <!-- 200 -->
      <g transform="translate(199.303039 591.316563) scale(0.1 -0.1)">
       <defs>
        <path id="DejaVuSans-32" d="M 1228 531 
L 3431 531 
L 3431 0 
L 469 0 
L 469 531 
Q 828 903 1448 1529 
Q 2069 2156 2228 2338 
Q 2531 2678 2651 2914 
Q 2772 3150 2772 3378 
Q 2772 3750 2511 3984 
Q 2250 4219 1831 4219 
Q 1534 4219 1204 4116 
Q 875 4013 500 3803 
L 500 4441 
Q 881 4594 1212 4672 
Q 1544 4750 1819 4750 
Q 2544 4750 2975 4387 
Q 3406 4025 3406 3419 
Q 3406 3131 3298 2873 
Q 3191 2616 2906 2266 
Q 2828 2175 2409 1742 
Q 1991 1309 1228 531 
z
" transform="scale(0.015625)"/>
       </defs>
       <use xlink:href="#DejaVuSans-32"/>
       <use xlink:href="#DejaVuSans-30" transform="translate(63.623047 0)"/>
       <use xlink:href="#DejaVuSans-30" transform="translate(127.246094 0)"/>
      </g>
     </g>
    </g>
    <g id="xtick_4">
     <g id="line2d_7">
      <path d="M 272.335241 576.718125 
L 272.335241 22.318125 
" clip-path="url(#p2455e5910b)" style="fill: none; stroke: #b0b0b0; stroke-width: 0.8; stroke-linecap: square"/>
     </g>
     <g id="line2d_8">
      <g>
       <use xlink:href="#mf0cfc67893" x="272.335241" y="576.718125" style="stroke: #000000; stroke-width: 0.8"/>
      </g>
     </g>
     <g id="text_4">
      <!-- 300 -->
      <g transform="translate(262.791491 591.316563) scale(0.1 -0.1)">
       <defs>
        <path id="DejaVuSans-33" d="M 2597 2516 
Q 3050 2419 3304 2112 
Q 3559 1806 3559 1356 
Q 3559 666 3084 287 
Q 2609 -91 1734 -91 
Q 1441 -91 1130 -33 
Q 819 25 488 141 
L 488 750 
Q 750 597 1062 519 
Q 1375 441 1716 441 
Q 2309 441 2620 675 
Q 2931 909 2931 1356 
Q 2931 1769 2642 2001 
Q 2353 2234 1838 2234 
L 1294 2234 
L 1294 2753 
L 1863 2753 
Q 2328 2753 2575 2939 
Q 2822 3125 2822 3475 
Q 2822 3834 2567 4026 
Q 2313 4219 1838 4219 
Q 1578 4219 1281 4162 
Q 984 4106 628 3988 
L 628 4550 
Q 988 4650 1302 4700 
Q 1616 4750 1894 4750 
Q 2613 4750 3031 4423 
Q 3450 4097 3450 3541 
Q 3450 3153 3228 2886 
Q 3006 2619 2597 2516 
z
" transform="scale(0.015625)"/>
       </defs>
       <use xlink:href="#DejaVuSans-33"/>
       <use xlink:href="#DejaVuSans-30" transform="translate(63.623047 0)"/>
       <use xlink:href="#DejaVuSans-30" transform="translate(127.246094 0)"/>
      </g>
     </g>
    </g>
    <g id="xtick_5">
     <g id="line2d_9">
      <path d="M 335.823692 576.718125 
L 335.823692 22.318125 
" clip-path="url(#p2455e5910b)" style="fill: none; stroke: #b0b0b0; stroke-width: 0.8; stroke-linecap: square"/>
     </g>
     <g id="line2d_10">
      <g>
       <use xlink:href="#mf0cfc67893" x="335.823692" y="576.718125" style="stroke: #000000; stroke-width: 0.8"/>
      </g>
     </g>
     <g id="text_5">
      <!-- 400 -->
      <g transform="translate(326.279942 591.316563) scale(0.1 -0.1)">
       <defs>
        <path id="DejaVuSans-34" d="M 2419 4116 
L 825 1625 
L 2419 1625 
L 2419 4116 
z
M 2253 4666 
L 3047 4666 
L 3047 1625 
L 3713 1625 
L 3713 1100 
L 3047 1100 
L 3047 0 
L 2419 0 
L 2419 1100 
L 313 1100 
L 313 1709 
L 2253 4666 
z
" transform="scale(0.015625)"/>
       </defs>
       <use xlink:href="#DejaVuSans-34"/>
       <use xlink:href="#DejaVuSans-30" transform="translate(63.623047 0)"/>
       <use xlink:href="#DejaVuSans-30" transform="translate(127.246094 0)"/>
      </g>
     </g>
    </g>
    <g id="xtick_6">
     <g id="line2d_11">
      <path d="M 399.312144 576.718125 
L 399.312144 22.318125 
" clip-path="url(#p2455e5910b)" style="fill: none; stroke: #b0b0b0; stroke-width: 0.8; stroke-linecap: square"/>
     </g>
     <g id="line2d_12">
      <g>
       <use xlink:href="#mf0cfc67893" x="399.312144" y="576.718125" style="stroke: #000000; stroke-width: 0.8"/>
      </g>
     </g>
     <g id="text_6">
      <!-- 500 -->
      <g transform="translate(389.768394 591.316563) scale(0.1 -0.1)">
       <defs>
        <path id="DejaVuSans-35" d="M 691 4666 
L 3169 4666 
L 3169 4134 
L 1269 4134 
L 1269 2991 
Q 1406 3038 1543 3061 
Q 1681 3084 1819 3084 
Q 2600 3084 3056 2656 
Q 3513 2228 3513 1497 
Q 3513 744 3044 326 
Q 2575 -91 1722 -91 
Q 1428 -91 1123 -41 
Q 819 9 494 109 
L 494 744 
Q 775 591 1075 516 
Q 1375 441 1709 441 
Q 2250 441 2565 725 
Q 2881 1009 2881 1497 
Q 2881 1984 2565 2268 
Q 2250 2553 1709 2553 
Q 1456 2553 1204 2497 
Q 953 2441 691 2322 
L 691 4666 
z
" transform="scale(0.015625)"/>
       </defs>
       <use xlink:href="#DejaVuSans-35"/>
       <use xlink:href="#DejaVuSans-30" transform="translate(63.623047 0)"/>
       <use xlink:href="#DejaVuSans-30" transform="translate(127.246094 0)"/>
      </g>
     </g>
    </g>
    <g id="xtick_7">
     <g id="line2d_13">
      <path d="M 462.800595 576.718125 
L 462.800595 22.318125 
" clip-path="url(#p2455e5910b)" style="fill: none; stroke: #b0b0b0; stroke-width: 0.8; stroke-linecap: square"/>
     </g>
     <g id="line2d_14">
      <g>
       <use xlink:href="#mf0cfc67893" x="462.800595" y="576.718125" style="stroke: #000000; stroke-width: 0.8"/>
      </g>
     </g>
     <g id="text_7">
      <!-- 600 -->
      <g transform="translate(453.256845 591.316563) scale(0.1 -0.1)">
       <defs>
        <path id="DejaVuSans-36" d="M 2113 2584 
Q 1688 2584 1439 2293 
Q 1191 2003 1191 1497 
Q 1191 994 1439 701 
Q 1688 409 2113 409 
Q 2538 409 2786 701 
Q 3034 994 3034 1497 
Q 3034 2003 2786 2293 
Q 2538 2584 2113 2584 
z
M 3366 4563 
L 3366 3988 
Q 3128 4100 2886 4159 
Q 2644 4219 2406 4219 
Q 1781 4219 1451 3797 
Q 1122 3375 1075 2522 
Q 1259 2794 1537 2939 
Q 1816 3084 2150 3084 
Q 2853 3084 3261 2657 
Q 3669 2231 3669 1497 
Q 3669 778 3244 343 
Q 2819 -91 2113 -91 
Q 1303 -91 875 529 
Q 447 1150 447 2328 
Q 447 3434 972 4092 
Q 1497 4750 2381 4750 
Q 2619 4750 2861 4703 
Q 3103 4656 3366 4563 
z
" transform="scale(0.015625)"/>
       </defs>
       <use xlink:href="#DejaVuSans-36"/>
       <use xlink:href="#DejaVuSans-30" transform="translate(63.623047 0)"/>
       <use xlink:href="#DejaVuSans-30" transform="translate(127.246094 0)"/>
      </g>
     </g>
    </g>
    <g id="xtick_8">
     <g id="line2d_15">
      <path d="M 526.289047 576.718125 
L 526.289047 22.318125 
" clip-path="url(#p2455e5910b)" style="fill: none; stroke: #b0b0b0; stroke-width: 0.8; stroke-linecap: square"/>
     </g>
     <g id="line2d_16">
      <g>
       <use xlink:href="#mf0cfc67893" x="526.289047" y="576.718125" style="stroke: #000000; stroke-width: 0.8"/>
      </g>
     </g>
     <g id="text_8">
      <!-- 700 -->
      <g transform="translate(516.745297 591.316563) scale(0.1 -0.1)">
       <defs>
        <path id="DejaVuSans-37" d="M 525 4666 
L 3525 4666 
L 3525 4397 
L 1831 0 
L 1172 0 
L 2766 4134 
L 525 4134 
L 525 4666 
z
" transform="scale(0.015625)"/>
       </defs>
       <use xlink:href="#DejaVuSans-37"/>
       <use xlink:href="#DejaVuSans-30" transform="translate(63.623047 0)"/>
       <use xlink:href="#DejaVuSans-30" transform="translate(127.246094 0)"/>
      </g>
     </g>
    </g>
    <g id="xtick_9">
     <g id="line2d_17">
      <path d="M 589.777498 576.718125 
L 589.777498 22.318125 
" clip-path="url(#p2455e5910b)" style="fill: none; stroke: #b0b0b0; stroke-width: 0.8; stroke-linecap: square"/>
     </g>
     <g id="line2d_18">
      <g>
       <use xlink:href="#mf0cfc67893" x="589.777498" y="576.718125" style="stroke: #000000; stroke-width: 0.8"/>
      </g>
     </g>
     <g id="text_9">
      <!-- 800 -->
      <g transform="translate(580.233748 591.316563) scale(0.1 -0.1)">
       <defs>
        <path id="DejaVuSans-38" d="M 2034 2216 
Q 1584 2216 1326 1975 
Q 1069 1734 1069 1313 
Q 1069 891 1326 650 
Q 1584 409 2034 409 
Q 2484 409 2743 651 
Q 3003 894 3003 1313 
Q 3003 1734 2745 1975 
Q 2488 2216 2034 2216 
z
M 1403 2484 
Q 997 2584 770 2862 
Q 544 3141 544 3541 
Q 544 4100 942 4425 
Q 1341 4750 2034 4750 
Q 2731 4750 3128 4425 
Q 3525 4100 3525 3541 
Q 3525 3141 3298 2862 
Q 3072 2584 2669 2484 
Q 3125 2378 3379 2068 
Q 3634 1759 3634 1313 
Q 3634 634 3220 271 
Q 2806 -91 2034 -91 
Q 1263 -91 848 271 
Q 434 634 434 1313 
Q 434 1759 690 2068 
Q 947 2378 1403 2484 
z
M 1172 3481 
Q 1172 3119 1398 2916 
Q 1625 2713 2034 2713 
Q 2441 2713 2670 2916 
Q 2900 3119 2900 3481 
Q 2900 3844 2670 4047 
Q 2441 4250 2034 4250 
Q 1625 4250 1398 4047 
Q 1172 3844 1172 3481 
z
" transform="scale(0.015625)"/>
       </defs>
       <use xlink:href="#DejaVuSans-38"/>
       <use xlink:href="#DejaVuSans-30" transform="translate(63.623047 0)"/>
       <use xlink:href="#DejaVuSans-30" transform="translate(127.246094 0)"/>
      </g>
     </g>
    </g>
    <g id="text_10">
     <!-- Epochs -->
     <g transform="translate(317.590625 604.994688) scale(0.1 -0.1)">
      <defs>
       <path id="DejaVuSans-45" d="M 628 4666 
L 3578 4666 
L 3578 4134 
L 1259 4134 
L 1259 2753 
L 3481 2753 
L 3481 2222 
L 1259 2222 
L 1259 531 
L 3634 531 
L 3634 0 
L 628 0 
L 628 4666 
z
" transform="scale(0.015625)"/>
       <path id="DejaVuSans-70" d="M 1159 525 
L 1159 -1331 
L 581 -1331 
L 581 3500 
L 1159 3500 
L 1159 2969 
Q 1341 3281 1617 3432 
Q 1894 3584 2278 3584 
Q 2916 3584 3314 3078 
Q 3713 2572 3713 1747 
Q 3713 922 3314 415 
Q 2916 -91 2278 -91 
Q 1894 -91 1617 61 
Q 1341 213 1159 525 
z
M 3116 1747 
Q 3116 2381 2855 2742 
Q 2594 3103 2138 3103 
Q 1681 3103 1420 2742 
Q 1159 2381 1159 1747 
Q 1159 1113 1420 752 
Q 1681 391 2138 391 
Q 2594 391 2855 752 
Q 3116 1113 3116 1747 
z
" transform="scale(0.015625)"/>
       <path id="DejaVuSans-6f" d="M 1959 3097 
Q 1497 3097 1228 2736 
Q 959 2375 959 1747 
Q 959 1119 1226 758 
Q 1494 397 1959 397 
Q 2419 397 2687 759 
Q 2956 1122 2956 1747 
Q 2956 2369 2687 2733 
Q 2419 3097 1959 3097 
z
M 1959 3584 
Q 2709 3584 3137 3096 
Q 3566 2609 3566 1747 
Q 3566 888 3137 398 
Q 2709 -91 1959 -91 
Q 1206 -91 779 398 
Q 353 888 353 1747 
Q 353 2609 779 3096 
Q 1206 3584 1959 3584 
z
" transform="scale(0.015625)"/>
       <path id="DejaVuSans-63" d="M 3122 3366 
L 3122 2828 
Q 2878 2963 2633 3030 
Q 2388 3097 2138 3097 
Q 1578 3097 1268 2742 
Q 959 2388 959 1747 
Q 959 1106 1268 751 
Q 1578 397 2138 397 
Q 2388 397 2633 464 
Q 2878 531 3122 666 
L 3122 134 
Q 2881 22 2623 -34 
Q 2366 -91 2075 -91 
Q 1284 -91 818 406 
Q 353 903 353 1747 
Q 353 2603 823 3093 
Q 1294 3584 2113 3584 
Q 2378 3584 2631 3529 
Q 2884 3475 3122 3366 
z
" transform="scale(0.015625)"/>
       <path id="DejaVuSans-68" d="M 3513 2113 
L 3513 0 
L 2938 0 
L 2938 2094 
Q 2938 2591 2744 2837 
Q 2550 3084 2163 3084 
Q 1697 3084 1428 2787 
Q 1159 2491 1159 1978 
L 1159 0 
L 581 0 
L 581 4863 
L 1159 4863 
L 1159 2956 
Q 1366 3272 1645 3428 
Q 1925 3584 2291 3584 
Q 2894 3584 3203 3211 
Q 3513 2838 3513 2113 
z
" transform="scale(0.015625)"/>
       <path id="DejaVuSans-73" d="M 2834 3397 
L 2834 2853 
Q 2591 2978 2328 3040 
Q 2066 3103 1784 3103 
Q 1356 3103 1142 2972 
Q 928 2841 928 2578 
Q 928 2378 1081 2264 
Q 1234 2150 1697 2047 
L 1894 2003 
Q 2506 1872 2764 1633 
Q 3022 1394 3022 966 
Q 3022 478 2636 193 
Q 2250 -91 1575 -91 
Q 1294 -91 989 -36 
Q 684 19 347 128 
L 347 722 
Q 666 556 975 473 
Q 1284 391 1588 391 
Q 1994 391 2212 530 
Q 2431 669 2431 922 
Q 2431 1156 2273 1281 
Q 2116 1406 1581 1522 
L 1381 1569 
Q 847 1681 609 1914 
Q 372 2147 372 2553 
Q 372 3047 722 3315 
Q 1072 3584 1716 3584 
Q 2034 3584 2315 3537 
Q 2597 3491 2834 3397 
z
" transform="scale(0.015625)"/>
      </defs>
      <use xlink:href="#DejaVuSans-45"/>
      <use xlink:href="#DejaVuSans-70" transform="translate(63.183594 0)"/>
      <use xlink:href="#DejaVuSans-6f" transform="translate(126.660156 0)"/>
      <use xlink:href="#DejaVuSans-63" transform="translate(187.841797 0)"/>
      <use xlink:href="#DejaVuSans-68" transform="translate(242.822266 0)"/>
      <use xlink:href="#DejaVuSans-73" transform="translate(306.201172 0)"/>
     </g>
    </g>
   </g>
   <g id="matplotlib.axis_2">
    <g id="ytick_1">
     <g id="line2d_19">
      <path d="M 56.50625 559.846552 
L 614.50625 559.846552 
" clip-path="url(#p2455e5910b)" style="fill: none; stroke: #b0b0b0; stroke-width: 0.8; stroke-linecap: square"/>
     </g>
     <g id="line2d_20">
      <defs>
       <path id="ma2140cb93a" d="M 0 0 
L -3.5 0 
" style="stroke: #000000; stroke-width: 0.8"/>
      </defs>
      <g>
       <use xlink:href="#ma2140cb93a" x="56.50625" y="559.846552" style="stroke: #000000; stroke-width: 0.8"/>
      </g>
     </g>
     <g id="text_11">
      <!-- 0.642 -->
      <g transform="translate(20.878125 563.645771) scale(0.1 -0.1)">
       <defs>
        <path id="DejaVuSans-2e" d="M 684 794 
L 1344 794 
L 1344 0 
L 684 0 
L 684 794 
z
" transform="scale(0.015625)"/>
       </defs>
       <use xlink:href="#DejaVuSans-30"/>
       <use xlink:href="#DejaVuSans-2e" transform="translate(63.623047 0)"/>
       <use xlink:href="#DejaVuSans-36" transform="translate(95.410156 0)"/>
       <use xlink:href="#DejaVuSans-34" transform="translate(159.033203 0)"/>
       <use xlink:href="#DejaVuSans-32" transform="translate(222.65625 0)"/>
      </g>
     </g>
    </g>
    <g id="ytick_2">
     <g id="line2d_21">
      <path d="M 56.50625 495.297124 
L 614.50625 495.297124 
" clip-path="url(#p2455e5910b)" style="fill: none; stroke: #b0b0b0; stroke-width: 0.8; stroke-linecap: square"/>
     </g>
     <g id="line2d_22">
      <g>
       <use xlink:href="#ma2140cb93a" x="56.50625" y="495.297124" style="stroke: #000000; stroke-width: 0.8"/>
      </g>
     </g>
     <g id="text_12">
      <!-- 0.644 -->
      <g transform="translate(20.878125 499.096343) scale(0.1 -0.1)">
       <use xlink:href="#DejaVuSans-30"/>
       <use xlink:href="#DejaVuSans-2e" transform="translate(63.623047 0)"/>
       <use xlink:href="#DejaVuSans-36" transform="translate(95.410156 0)"/>
       <use xlink:href="#DejaVuSans-34" transform="translate(159.033203 0)"/>
       <use xlink:href="#DejaVuSans-34" transform="translate(222.65625 0)"/>
      </g>
     </g>
    </g>
    <g id="ytick_3">
     <g id="line2d_23">
      <path d="M 56.50625 430.747696 
L 614.50625 430.747696 
" clip-path="url(#p2455e5910b)" style="fill: none; stroke: #b0b0b0; stroke-width: 0.8; stroke-linecap: square"/>
     </g>
     <g id="line2d_24">
      <g>
       <use xlink:href="#ma2140cb93a" x="56.50625" y="430.747696" style="stroke: #000000; stroke-width: 0.8"/>
      </g>
     </g>
     <g id="text_13">
      <!-- 0.646 -->
      <g transform="translate(20.878125 434.546915) scale(0.1 -0.1)">
       <use xlink:href="#DejaVuSans-30"/>
       <use xlink:href="#DejaVuSans-2e" transform="translate(63.623047 0)"/>
       <use xlink:href="#DejaVuSans-36" transform="translate(95.410156 0)"/>
       <use xlink:href="#DejaVuSans-34" transform="translate(159.033203 0)"/>
       <use xlink:href="#DejaVuSans-36" transform="translate(222.65625 0)"/>
      </g>
     </g>
    </g>
    <g id="ytick_4">
     <g id="line2d_25">
      <path d="M 56.50625 366.198268 
L 614.50625 366.198268 
" clip-path="url(#p2455e5910b)" style="fill: none; stroke: #b0b0b0; stroke-width: 0.8; stroke-linecap: square"/>
     </g>
     <g id="line2d_26">
      <g>
       <use xlink:href="#ma2140cb93a" x="56.50625" y="366.198268" style="stroke: #000000; stroke-width: 0.8"/>
      </g>
     </g>
     <g id="text_14">
      <!-- 0.648 -->
      <g transform="translate(20.878125 369.997487) scale(0.1 -0.1)">
       <use xlink:href="#DejaVuSans-30"/>
       <use xlink:href="#DejaVuSans-2e" transform="translate(63.623047 0)"/>
       <use xlink:href="#DejaVuSans-36" transform="translate(95.410156 0)"/>
       <use xlink:href="#DejaVuSans-34" transform="translate(159.033203 0)"/>
       <use xlink:href="#DejaVuSans-38" transform="translate(222.65625 0)"/>
      </g>
     </g>
    </g>
    <g id="ytick_5">
     <g id="line2d_27">
      <path d="M 56.50625 301.64884 
L 614.50625 301.64884 
" clip-path="url(#p2455e5910b)" style="fill: none; stroke: #b0b0b0; stroke-width: 0.8; stroke-linecap: square"/>
     </g>
     <g id="line2d_28">
      <g>
       <use xlink:href="#ma2140cb93a" x="56.50625" y="301.64884" style="stroke: #000000; stroke-width: 0.8"/>
      </g>
     </g>
     <g id="text_15">
      <!-- 0.650 -->
      <g transform="translate(20.878125 305.448059) scale(0.1 -0.1)">
       <use xlink:href="#DejaVuSans-30"/>
       <use xlink:href="#DejaVuSans-2e" transform="translate(63.623047 0)"/>
       <use xlink:href="#DejaVuSans-36" transform="translate(95.410156 0)"/>
       <use xlink:href="#DejaVuSans-35" transform="translate(159.033203 0)"/>
       <use xlink:href="#DejaVuSans-30" transform="translate(222.65625 0)"/>
      </g>
     </g>
    </g>
    <g id="ytick_6">
     <g id="line2d_29">
      <path d="M 56.50625 237.099412 
L 614.50625 237.099412 
" clip-path="url(#p2455e5910b)" style="fill: none; stroke: #b0b0b0; stroke-width: 0.8; stroke-linecap: square"/>
     </g>
     <g id="line2d_30">
      <g>
       <use xlink:href="#ma2140cb93a" x="56.50625" y="237.099412" style="stroke: #000000; stroke-width: 0.8"/>
      </g>
     </g>
     <g id="text_16">
      <!-- 0.652 -->
      <g transform="translate(20.878125 240.898631) scale(0.1 -0.1)">
       <use xlink:href="#DejaVuSans-30"/>
       <use xlink:href="#DejaVuSans-2e" transform="translate(63.623047 0)"/>
       <use xlink:href="#DejaVuSans-36" transform="translate(95.410156 0)"/>
       <use xlink:href="#DejaVuSans-35" transform="translate(159.033203 0)"/>
       <use xlink:href="#DejaVuSans-32" transform="translate(222.65625 0)"/>
      </g>
     </g>
    </g>
    <g id="ytick_7">
     <g id="line2d_31">
      <path d="M 56.50625 172.549985 
L 614.50625 172.549985 
" clip-path="url(#p2455e5910b)" style="fill: none; stroke: #b0b0b0; stroke-width: 0.8; stroke-linecap: square"/>
     </g>
     <g id="line2d_32">
      <g>
       <use xlink:href="#ma2140cb93a" x="56.50625" y="172.549985" style="stroke: #000000; stroke-width: 0.8"/>
      </g>
     </g>
     <g id="text_17">
      <!-- 0.654 -->
      <g transform="translate(20.878125 176.349203) scale(0.1 -0.1)">
       <use xlink:href="#DejaVuSans-30"/>
       <use xlink:href="#DejaVuSans-2e" transform="translate(63.623047 0)"/>
       <use xlink:href="#DejaVuSans-36" transform="translate(95.410156 0)"/>
       <use xlink:href="#DejaVuSans-35" transform="translate(159.033203 0)"/>
       <use xlink:href="#DejaVuSans-34" transform="translate(222.65625 0)"/>
      </g>
     </g>
    </g>
    <g id="ytick_8">
     <g id="line2d_33">
      <path d="M 56.50625 108.000557 
L 614.50625 108.000557 
" clip-path="url(#p2455e5910b)" style="fill: none; stroke: #b0b0b0; stroke-width: 0.8; stroke-linecap: square"/>
     </g>
     <g id="line2d_34">
      <g>
       <use xlink:href="#ma2140cb93a" x="56.50625" y="108.000557" style="stroke: #000000; stroke-width: 0.8"/>
      </g>
     </g>
     <g id="text_18">
      <!-- 0.656 -->
      <g transform="translate(20.878125 111.799775) scale(0.1 -0.1)">
       <use xlink:href="#DejaVuSans-30"/>
       <use xlink:href="#DejaVuSans-2e" transform="translate(63.623047 0)"/>
       <use xlink:href="#DejaVuSans-36" transform="translate(95.410156 0)"/>
       <use xlink:href="#DejaVuSans-35" transform="translate(159.033203 0)"/>
       <use xlink:href="#DejaVuSans-36" transform="translate(222.65625 0)"/>
      </g>
     </g>
    </g>
    <g id="ytick_9">
     <g id="line2d_35">
      <path d="M 56.50625 43.451129 
L 614.50625 43.451129 
" clip-path="url(#p2455e5910b)" style="fill: none; stroke: #b0b0b0; stroke-width: 0.8; stroke-linecap: square"/>
     </g>
     <g id="line2d_36">
      <g>
       <use xlink:href="#ma2140cb93a" x="56.50625" y="43.451129" style="stroke: #000000; stroke-width: 0.8"/>
      </g>
     </g>
     <g id="text_19">
      <!-- 0.658 -->
      <g transform="translate(20.878125 47.250347) scale(0.1 -0.1)">
       <use xlink:href="#DejaVuSans-30"/>
       <use xlink:href="#DejaVuSans-2e" transform="translate(63.623047 0)"/>
       <use xlink:href="#DejaVuSans-36" transform="translate(95.410156 0)"/>
       <use xlink:href="#DejaVuSans-35" transform="translate(159.033203 0)"/>
       <use xlink:href="#DejaVuSans-38" transform="translate(222.65625 0)"/>
      </g>
     </g>
    </g>
    <g id="text_20">
     <!-- Loss -->
     <g transform="translate(14.798437 310.485313) rotate(-90) scale(0.1 -0.1)">
      <defs>
       <path id="DejaVuSans-4c" d="M 628 4666 
L 1259 4666 
L 1259 531 
L 3531 531 
L 3531 0 
L 628 0 
L 628 4666 
z
" transform="scale(0.015625)"/>
      </defs>
      <use xlink:href="#DejaVuSans-4c"/>
      <use xlink:href="#DejaVuSans-6f" transform="translate(53.962891 0)"/>
      <use xlink:href="#DejaVuSans-73" transform="translate(115.144531 0)"/>
      <use xlink:href="#DejaVuSans-73" transform="translate(167.244141 0)"/>
     </g>
    </g>
   </g>
   <g id="line2d_37">
    <path d="M 81.869886 47.518125 
L 82.504771 284.220681 
L 83.139655 332.41571 
L 83.77454 359.099669 
L 84.409424 372.82928 
L 85.679193 393.642037 
L 86.948962 408.65477 
L 87.583847 412.990842 
L 88.218732 418.173351 
L 88.853616 422.093898 
L 90.75827 431.243124 
L 91.393154 433.045653 
L 93.297808 439.649793 
L 93.932692 441.279186 
L 94.567577 442.408412 
L 95.202461 445.39403 
L 95.837346 446.984948 
L 96.47223 449.091425 
L 97.741999 454.48362 
L 98.376884 457.607746 
L 99.011768 459.194817 
L 99.646653 461.214726 
L 100.281537 462.790255 
L 100.916422 463.723261 
L 101.551306 465.568111 
L 102.186191 466.381846 
L 102.821075 467.501453 
L 104.090844 470.775629 
L 104.725729 471.033408 
L 105.360613 471.691321 
L 105.995498 473.21491 
L 106.630382 474.178695 
L 107.265267 474.536507 
L 108.535036 476.88922 
L 109.16992 477.525973 
L 109.804805 478.83218 
L 110.43969 479.272713 
L 111.074574 480.342303 
L 112.344343 481.225292 
L 112.979228 483.508751 
L 114.248997 484.285935 
L 114.883881 484.94 
L 115.518766 486.240437 
L 116.15365 486.452047 
L 116.788535 487.213841 
L 117.423419 487.238849 
L 118.058304 487.462001 
L 118.693188 488.429634 
L 119.328073 488.756667 
L 119.962957 490.022476 
L 120.597842 489.989773 
L 121.232726 491.159396 
L 121.867611 490.926626 
L 122.502495 491.942352 
L 123.13738 492.57718 
L 123.772264 492.484842 
L 125.676918 493.623685 
L 126.946687 494.675962 
L 128.216456 495.133808 
L 128.85134 495.857128 
L 129.486225 496.086051 
L 130.121109 496.863235 
L 130.755994 497.144098 
L 131.390879 496.96904 
L 132.025763 498.329112 
L 132.660648 497.507682 
L 133.295532 498.098265 
L 134.565301 498.7985 
L 135.200186 499.040889 
L 135.83507 498.996643 
L 136.469955 499.581455 
L 137.104839 500.362487 
L 137.739724 499.854624 
L 138.374608 500.95307 
L 139.009493 500.50869 
L 139.644377 501.230086 
L 140.279262 500.851112 
L 142.183915 502.844089 
L 142.8188 502.830623 
L 143.453684 503.834806 
L 144.088569 504.384991 
L 144.723453 503.413511 
L 145.358338 503.436596 
L 145.993222 504.000247 
L 146.628107 504.89093 
L 147.262991 505.060218 
L 147.897876 505.750834 
L 148.53276 505.162175 
L 149.167645 505.889342 
L 149.802529 505.760453 
L 150.437414 506.908916 
L 151.707183 506.564569 
L 152.342067 506.906992 
L 152.976952 507.028186 
L 153.611837 507.591837 
L 154.246721 508.613334 
L 154.881606 507.774591 
L 155.51649 508.519072 
L 156.151375 508.842257 
L 156.786259 509.325111 
L 157.421144 508.965375 
L 158.056028 510.088829 
L 158.690913 508.786469 
L 159.325797 510.006109 
L 159.960682 509.163519 
L 160.595566 509.644449 
L 161.230451 509.796424 
L 161.865335 510.754438 
L 162.50022 511.141106 
L 163.135104 510.844853 
L 163.769989 510.790988 
L 164.404873 511.248834 
L 165.674642 511.72207 
L 166.309527 511.183428 
L 166.944411 512.797431 
L 167.579296 511.774011 
L 168.21418 512.599288 
L 168.849065 512.62622 
L 169.483949 512.783965 
L 170.118834 513.151396 
L 170.753718 512.770499 
L 171.388603 513.366853 
L 172.023487 513.330302 
L 172.658372 513.572692 
L 173.293256 514.873128 
L 173.928141 513.94397 
L 174.563026 514.361418 
L 175.832795 514.263308 
L 176.467679 515.071272 
L 177.102564 515.052034 
L 177.737448 514.340257 
L 179.007217 515.454093 
L 179.642102 515.536813 
L 180.276986 515.407923 
L 180.911871 516.552538 
L 181.546755 516.15048 
L 182.18164 515.471406 
L 182.816524 516.036981 
L 184.086293 516.927664 
L 185.356062 518.020339 
L 185.990947 518.018415 
L 186.625831 518.40316 
L 187.260716 518.48588 
L 187.8956 518.133838 
L 189.165369 519.493911 
L 189.800254 519.455436 
L 190.435138 519.757461 
L 191.070023 520.546187 
L 192.339792 519.55547 
L 192.974676 520.696237 
L 193.609561 520.736635 
L 194.244445 520.66161 
L 194.87933 521.561913 
L 195.514215 522.743078 
L 196.149099 521.386854 
L 196.783984 522.364105 
L 197.418868 522.668053 
L 198.688637 522.154419 
L 199.323522 523.056645 
L 200.593291 523.601059 
L 201.228175 523.060493 
L 201.86306 522.925832 
L 202.497944 523.195153 
L 203.132829 523.935787 
L 203.767713 523.891541 
L 204.402598 524.014659 
L 205.037482 524.591776 
L 205.672367 524.401328 
L 206.307251 525.070783 
L 206.942136 525.09002 
L 207.57702 523.793431 
L 208.211905 525.140037 
L 209.481674 526.142297 
L 210.116558 525.38435 
L 210.751443 525.659442 
L 212.021212 526.805981 
L 212.656096 526.580906 
L 213.925865 526.713642 
L 214.56075 526.40777 
L 215.195634 526.750193 
L 216.465403 526.546279 
L 217.100288 527.333081 
L 217.735173 527.879418 
L 218.370057 526.842532 
L 219.004942 528.337265 
L 219.639826 527.88519 
L 220.274711 528.112189 
L 220.909595 527.931359 
L 221.54448 528.733551 
L 222.179364 527.261903 
L 222.814249 528.924 
L 223.449133 528.304561 
L 224.084018 529.085593 
L 224.718902 528.616204 
L 225.353787 528.95478 
L 225.988671 528.581577 
L 226.623556 528.656603 
L 227.25844 529.472261 
L 227.893325 529.264499 
L 228.528209 529.377999 
L 229.163094 529.733887 
L 229.797978 529.772362 
L 230.432863 529.928183 
L 231.067747 529.660786 
L 231.702632 530.230208 
L 232.337516 530.141717 
L 232.972401 529.235643 
L 233.607285 530.441817 
L 234.24217 530.285996 
L 234.877054 530.907358 
L 235.511939 530.765003 
L 236.146823 530.89774 
L 236.781708 530.614952 
L 237.416592 531.34212 
L 238.051477 529.953192 
L 238.686362 530.915053 
L 239.321246 531.509484 
L 239.956131 531.207459 
L 240.591015 531.286332 
L 241.2259 531.147824 
L 241.860784 530.853494 
L 242.495669 531.671076 
L 243.130553 531.519102 
L 245.035207 532.211642 
L 245.670091 532.261659 
L 246.304976 532.873403 
L 246.93986 532.246269 
L 247.574745 531.876915 
L 248.209629 532.43287 
L 248.844514 532.700268 
L 249.479398 532.069287 
L 250.114283 532.444413 
L 250.749167 532.473269 
L 251.384052 533.215826 
L 252.018936 532.721429 
L 252.653821 533.140801 
L 254.558474 533.444749 
L 255.193359 533.856425 
L 255.828243 533.942993 
L 256.463128 533.32163 
L 257.098012 533.442825 
L 257.732897 533.789095 
L 258.367781 533.829493 
L 259.002666 534.329661 
L 259.63755 534.645152 
L 260.272435 532.871479 
L 261.542204 533.937222 
L 262.177089 534.081501 
L 262.811973 534.071882 
L 263.446858 533.640968 
L 264.081742 533.842959 
L 264.716627 534.198848 
L 265.351511 534.223856 
L 265.986396 535.258819 
L 266.62128 534.220009 
L 267.256165 535.064523 
L 267.891049 534.531652 
L 268.525934 535.572386 
L 269.160818 535.472353 
L 269.795703 535.632022 
L 270.430587 534.285416 
L 271.065472 535.924427 
L 271.700356 534.872151 
L 272.335241 534.677855 
L 272.970125 535.226116 
L 273.60501 535.281904 
L 274.239894 536.672756 
L 275.509663 535.274209 
L 276.144548 536.595807 
L 276.779432 535.891724 
L 277.414317 534.929863 
L 278.049201 536.326486 
L 278.684086 535.893648 
L 279.31897 536.10141 
L 279.953855 535.753216 
L 280.588739 536.645824 
L 281.223624 536.588112 
L 281.858509 536.263003 
L 282.493393 536.743933 
L 283.128278 536.216833 
L 285.032931 537.026721 
L 285.667816 536.468841 
L 286.3027 536.293782 
L 286.937585 535.995605 
L 287.572469 537.324898 
L 288.207354 536.718925 
L 288.842238 537.26911 
L 289.477123 537.094051 
L 290.746892 537.076737 
L 291.381776 536.830501 
L 292.016661 537.515346 
L 292.651545 537.309508 
L 293.28643 537.471101 
L 293.921314 536.880518 
L 294.556199 537.586524 
L 296.460852 538.009743 
L 297.095737 537.573058 
L 297.730621 537.884701 
L 298.365506 537.771201 
L 299.00039 538.134785 
L 299.635275 537.801981 
L 300.270159 538.615716 
L 300.905044 538.494521 
L 301.539928 538.005896 
L 302.174813 538.19442 
L 302.809697 538.217505 
L 303.444582 538.544538 
L 304.079467 538.634953 
L 304.714351 539.088952 
L 305.349236 538.246361 
L 305.98412 539.102418 
L 306.619005 538.019362 
L 307.253889 538.609945 
L 307.888774 538.615716 
L 308.523658 538.91774 
L 309.158543 538.623411 
L 309.793427 538.833096 
L 310.428312 538.659961 
L 311.063196 539.379434 
L 311.698081 538.250208 
L 312.332965 539.092799 
L 312.96785 539.648755 
L 313.602734 538.448352 
L 314.237619 538.906198 
L 314.872503 539.067791 
L 315.507388 539.687229 
L 316.142272 539.412137 
L 316.777157 538.688817 
L 317.412041 539.260163 
L 318.046926 539.627594 
L 320.586464 540.095059 
L 321.221348 539.200528 
L 321.856233 540.372075 
L 322.491117 539.864212 
L 323.126002 540.089287 
L 324.395771 539.556416 
L 325.030656 539.464078 
L 325.66554 540.096982 
L 326.300425 539.893068 
L 326.935309 540.36438 
L 327.570194 539.98733 
L 328.205078 540.11622 
L 328.839963 539.819966 
L 329.474847 540.737582 
L 330.109732 540.752972 
L 330.744616 540.541362 
L 331.379501 541.180038 
L 332.014385 540.895327 
L 332.64927 539.985406 
L 333.284154 540.685642 
L 333.919039 541.15503 
L 334.553923 540.256651 
L 335.188808 541.347402 
L 335.823692 540.410549 
L 336.458577 540.670252 
L 337.093461 541.716757 
L 337.728346 541.728299 
L 338.36323 540.979971 
L 338.998115 540.931878 
L 339.632999 540.676023 
L 340.267884 541.735994 
L 340.902768 541.947604 
L 341.537653 541.557088 
L 342.172537 541.924519 
L 342.807422 541.828333 
L 343.442306 541.308928 
L 344.077191 542.045714 
L 344.712075 541.453207 
L 345.981844 541.483987 
L 347.251614 540.995361 
L 347.886498 541.33586 
L 348.521383 541.318546 
L 349.156267 542.009163 
L 349.791152 541.84757 
L 350.426036 542.251552 
L 351.060921 541.570554 
L 351.695805 542.122663 
L 352.33069 541.955299 
L 352.965574 542.241933 
L 353.600459 542.695932 
L 354.235343 541.668664 
L 354.870228 541.653274 
L 356.139997 542.391984 
L 356.774881 542.120739 
L 358.04465 541.989926 
L 358.679535 542.313111 
L 359.314419 541.762926 
L 359.949304 541.918748 
L 360.584188 542.484322 
L 361.219073 542.813279 
L 361.853957 542.663229 
L 362.488842 542.303492 
L 363.123726 542.164984 
L 363.758611 542.297721 
L 364.393495 542.584356 
L 365.02838 543.746285 
L 365.663264 542.124586 
L 366.298149 541.84757 
L 366.933033 542.178451 
L 367.567918 541.437817 
L 368.202803 542.103425 
L 368.837687 543.06721 
L 369.472572 542.874838 
L 370.107456 542.497789 
L 370.742341 542.624754 
L 371.377225 542.607441 
L 372.01211 543.469269 
L 372.646994 543.061439 
L 373.916763 543.457726 
L 374.551648 543.838623 
L 375.186532 543.003728 
L 375.821417 543.730895 
L 376.456301 543.011423 
L 377.091186 544.090631 
L 377.72607 542.476628 
L 378.360955 543.446184 
L 378.995839 543.249964 
L 380.265608 543.12877 
L 380.900493 543.761674 
L 381.535377 543.173015 
L 382.170262 543.438489 
L 382.805146 543.088371 
L 383.440031 543.653946 
L 384.074915 543.519285 
L 384.7098 544.231063 
L 385.344684 543.880945 
L 385.979569 543.088371 
L 386.614453 543.386548 
L 387.249338 544.044462 
L 387.884222 543.705886 
L 388.519107 542.686313 
L 389.153991 543.646251 
L 389.788876 544.075241 
L 390.423761 543.767446 
L 391.058645 543.838623 
L 391.69353 544.952459 
L 392.328414 543.890564 
L 392.963299 544.144495 
L 393.598183 543.546217 
L 394.233068 543.436565 
L 394.867952 544.688909 
L 395.502837 544.294546 
L 396.137721 545.165992 
L 396.772606 543.717429 
L 397.40749 544.48307 
L 398.042375 544.467681 
L 398.677259 543.702039 
L 399.312144 543.838623 
L 399.947028 544.298393 
L 400.581913 544.127182 
L 401.216797 544.394579 
L 401.851682 544.802408 
L 402.486566 544.550401 
L 403.121451 543.973284 
L 403.756335 545.450703 
L 404.39122 544.508079 
L 405.660989 544.854349 
L 406.295873 543.759751 
L 406.930758 544.575409 
L 407.565642 544.086784 
L 408.200527 544.344562 
L 408.835411 544.842807 
L 410.10518 544.829341 
L 410.740065 544.937069 
L 411.37495 544.396503 
L 412.009834 545.258331 
L 412.644719 544.69468 
L 413.279603 545.223704 
L 414.549372 544.869739 
L 415.184257 545.331432 
L 415.819141 544.742773 
L 416.454026 544.571562 
L 417.08891 544.954383 
L 417.723795 544.962077 
L 418.358679 545.444932 
L 418.993564 545.281415 
L 419.628448 544.983238 
L 420.263333 545.173687 
L 420.898217 545.600753 
L 421.533102 544.885129 
L 422.167986 545.63538 
L 422.802871 545.496872 
L 423.437755 545.158297 
L 424.07264 546.222116 
L 424.707524 545.483406 
L 425.342409 545.208314 
L 425.977293 545.133289 
L 426.612178 545.250636 
L 427.247062 545.085196 
L 427.881947 545.683474 
L 428.516831 546.039362 
L 429.151716 545.40261 
L 429.7866 546.11054 
L 431.056369 545.61422 
L 431.691254 545.504567 
L 432.326138 546.256743 
L 432.961023 545.821982 
L 433.595908 545.117899 
L 434.865677 546.137472 
L 435.500561 546.258667 
L 436.135446 545.977803 
L 436.77033 546.26059 
L 437.405215 545.879693 
L 438.040099 545.820058 
L 438.674984 545.571898 
L 439.309868 545.766194 
L 439.944753 546.595318 
L 440.579637 546.106693 
L 441.214522 546.70497 
L 441.849406 545.920091 
L 442.484291 546.416412 
L 443.119175 546.091303 
L 443.75406 546.489513 
L 444.388944 546.739597 
L 445.023829 547.414824 
L 445.658713 545.198695 
L 446.293598 545.998964 
L 446.928482 545.889312 
L 447.563367 546.654954 
L 448.198251 546.729979 
L 448.833136 547.039698 
L 449.46802 546.050905 
L 450.102905 545.860456 
L 450.737789 546.481819 
L 452.007558 546.410641 
L 452.642443 546.837707 
L 453.277327 547.126266 
L 453.912212 547.03008 
L 454.547097 546.408717 
L 455.181981 546.422183 
L 456.45175 547.193596 
L 457.086635 546.40487 
L 457.721519 547.168588 
L 458.991288 546.662648 
L 459.626173 546.997376 
L 460.261057 546.612632 
L 460.895942 547.803416 
L 461.530826 547.876518 
L 462.165711 547.010842 
L 462.800595 546.739597 
L 463.43548 546.966597 
L 464.070364 546.618403 
L 465.340133 547.389816 
L 465.975018 546.681886 
L 466.609902 547.080096 
L 467.244787 547.035851 
L 467.879671 547.914992 
L 468.514556 547.999636 
L 469.14944 547.151274 
L 470.419209 548.022721 
L 471.054094 548.013102 
L 471.688978 546.993529 
L 472.323863 547.337875 
L 472.958747 547.491773 
L 473.593632 547.843814 
L 474.863401 547.776484 
L 475.498285 548.26511 
L 476.13317 547.19552 
L 476.768055 547.97078 
L 477.402939 547.726467 
L 478.037824 548.003483 
L 478.672708 547.87267 
L 479.942477 547.162816 
L 480.577362 547.813035 
L 481.847131 547.449451 
L 482.482015 547.732238 
L 483.1169 547.174359 
L 483.751784 547.239765 
L 485.021553 548.519041 
L 485.656438 548.21894 
L 486.291322 548.315126 
L 486.926207 547.957314 
L 488.195976 547.884213 
L 488.83086 547.699535 
L 489.465745 547.736086 
L 490.100629 548.005407 
L 490.735514 548.028492 
L 491.370398 548.293965 
L 492.005283 547.82073 
L 492.640167 548.661397 
L 493.275052 547.951543 
L 493.909936 547.938077 
L 494.544821 548.717185 
L 495.179705 548.765278 
L 495.81459 548.126602 
L 496.449474 548.509422 
L 497.084359 547.855357 
L 497.719244 548.345906 
L 498.354128 548.132373 
L 498.989013 548.130449 
L 500.258782 548.405541 
L 500.893666 548.178542 
L 501.528551 548.361296 
L 502.163435 548.699871 
L 502.79832 548.503651 
L 503.433204 548.116983 
L 504.068089 548.817218 
L 504.702973 549.111548 
L 505.337858 548.853769 
L 505.972742 548.907633 
L 506.607627 548.642159 
L 507.242511 548.536355 
L 507.877396 549.144251 
L 508.51228 548.549821 
L 509.147165 549.327005 
L 509.782049 548.85954 
L 510.416934 549.176954 
L 511.051818 548.357448 
L 511.686703 548.48249 
L 512.321587 549.150022 
L 512.956472 549.394335 
L 513.591356 548.749888 
L 514.226241 548.74604 
L 514.861125 548.936489 
L 515.49601 548.30166 
L 516.130894 548.990353 
L 516.765779 548.794133 
L 517.400663 549.088463 
L 518.035548 549.111548 
L 518.670433 548.965345 
L 519.940202 549.294301 
L 520.575086 548.615227 
L 521.209971 548.769125 
L 522.47974 548.613303 
L 523.114624 548.703718 
L 523.749509 548.324745 
L 524.384393 549.602097 
L 525.019278 549.323157 
L 525.654162 548.62677 
L 526.289047 549.328928 
L 526.923931 549.827173 
L 527.558816 548.713337 
L 528.1937 549.369327 
L 529.463469 548.524812 
L 530.098354 548.913404 
L 530.733238 548.87493 
L 531.368123 550.133045 
L 532.003007 549.734834 
L 532.637892 549.101929 
L 533.272776 549.198115 
L 533.907661 549.611716 
L 535.17743 548.724879 
L 535.812314 549.755995 
L 536.447199 549.290454 
L 537.082083 549.342394 
L 537.716968 549.704054 
L 538.351852 549.346242 
L 538.986737 549.848334 
L 539.621621 549.921435 
L 540.256506 549.117319 
L 540.891391 549.488597 
L 541.526275 549.20581 
L 542.796044 550.098418 
L 543.430929 550.038782 
L 544.065813 549.41742 
L 544.700698 549.398182 
L 545.335582 549.644419 
L 545.970467 549.111548 
L 546.605351 549.761766 
L 547.240236 550.213841 
L 547.87512 549.636724 
L 548.510005 549.611716 
L 549.144889 549.865647 
L 551.049543 550.019545 
L 551.684427 550.298485 
L 552.319312 549.984918 
L 552.954196 549.032675 
L 553.589081 550.140739 
L 554.223965 549.498216 
L 554.85885 550.481238 
L 555.493734 549.836791 
L 556.128619 550.492781 
L 556.763503 550.194604 
L 557.398388 549.580936 
L 558.033272 549.940672 
L 558.668157 549.792546 
L 559.937926 550.829432 
L 560.57281 549.465513 
L 561.207695 550.450459 
L 561.84258 550.285019 
L 562.477464 549.821401 
L 564.382118 550.363891 
L 565.017002 550.975635 
L 565.651887 550.142663 
L 566.921656 550.146511 
L 567.55654 550.246544 
L 568.191425 550.12535 
L 568.826309 550.42545 
L 569.461194 549.979147 
L 570.096078 550.83328 
L 570.730963 550.267705 
L 571.365847 550.410061 
L 572.000732 549.869495 
L 572.635616 550.454306 
L 573.270501 550.625518 
L 573.905385 550.127273 
L 574.54027 550.835203 
L 575.175154 550.798653 
L 575.810039 549.746376 
L 576.444923 550.496628 
L 577.714692 550.271553 
L 578.349577 550.527408 
L 578.984461 550.50817 
L 579.619346 550.119578 
L 580.25423 551.183397 
L 580.889115 550.929466 
L 581.523999 550.800576 
L 582.158884 550.887144 
L 582.793768 550.856364 
L 583.428653 551.518125 
L 584.063538 550.71978 
L 584.698422 550.860212 
L 585.333307 551.202634 
L 586.603076 550.898686 
L 587.23796 551.471956 
L 587.872845 550.887144 
L 588.507729 550.544721 
L 589.142614 551.420015 
L 589.142614 551.420015 
" clip-path="url(#p2455e5910b)" style="fill: none; stroke: #1f77b4; stroke-width: 1.5; stroke-linecap: square"/>
   </g>
   <g id="line2d_38">
    <path d="M 81.869886 241.723719 
L 82.504771 348.800057 
L 83.139655 332.331066 
L 83.77454 388.75001 
L 84.409424 388.596112 
L 85.044309 397.233628 
L 85.679193 416.199611 
L 86.314078 404.255216 
L 86.948962 429.159732 
L 87.583847 436.791141 
L 88.218732 433.570829 
L 88.853616 448.468139 
L 89.488501 447.006109 
L 90.123385 442.356471 
L 90.75827 423.211581 
L 91.393154 430.723719 
L 92.028039 431.241201 
L 92.662923 450.272591 
L 93.297808 453.365937 
L 93.932692 458.100219 
L 94.567577 457.440382 
L 95.202461 458.910106 
L 95.837346 464.023362 
L 96.47223 465.233383 
L 97.107115 455.106906 
L 97.741999 471.735567 
L 98.376884 479.334272 
L 99.011768 472.797462 
L 99.646653 478.299309 
L 100.281537 464.044523 
L 100.916422 475.294454 
L 101.551306 462.961467 
L 102.186191 475.152099 
L 102.821075 471.514339 
L 103.45596 477.283583 
L 104.090844 471.14306 
L 104.725729 466.18755 
L 105.360613 482.791202 
L 105.995498 487.446611 
L 106.630382 480.848242 
L 107.265267 466.485727 
L 107.900151 485.205474 
L 108.535036 493.073501 
L 109.16992 485.871082 
L 109.804805 492.475223 
L 110.43969 484.69184 
L 111.074574 487.777492 
L 111.709459 494.40087 
L 112.344343 492.150114 
L 112.979228 488.260346 
L 113.614112 495.420443 
L 114.248997 495.179977 
L 114.883881 486.854105 
L 115.518766 486.894503 
L 116.15365 498.631136 
L 116.788535 490.374518 
L 117.423419 488.500811 
L 118.058304 498.78311 
L 118.693188 497.921282 
L 119.328073 499.462184 
L 119.962957 479.155366 
L 120.597842 487.827508 
L 121.232726 493.392839 
L 121.867611 489.864731 
L 122.502495 499.789217 
L 123.13738 497.778927 
L 123.772264 501.926473 
L 124.407149 494.672114 
L 125.042033 502.969131 
L 125.676918 507.274423 
L 126.311802 503.927145 
L 126.946687 506.949314 
L 127.581571 489.177962 
L 128.85134 499.044736 
L 129.486225 491.107456 
L 130.121109 511.221902 
L 130.755994 506.068249 
L 131.390879 478.801401 
L 132.025763 496.618922 
L 132.660648 503.467375 
L 133.295532 499.000491 
L 133.930417 499.063974 
L 134.565301 496.001407 
L 135.200186 508.649885 
L 135.83507 502.543988 
L 136.469955 505.543072 
L 137.104839 493.471711 
L 137.739724 508.696054 
L 138.374608 489.277996 
L 139.644377 506.901221 
L 140.279262 499.529515 
L 140.914146 509.209688 
L 141.549031 508.82302 
L 142.183915 502.901801 
L 142.8188 507.022415 
L 143.453684 509.357815 
L 144.088569 506.814653 
L 144.723453 495.562798 
L 145.358338 503.963696 
L 145.993222 507.616846 
L 146.628107 497.684664 
L 147.262991 505.925893 
L 147.897876 499.514125 
L 148.53276 506.535713 
L 149.167645 509.617517 
L 149.802529 507.882319 
L 150.437414 514.476841 
L 151.072298 509.961864 
L 151.707183 513.464963 
L 152.342067 476.177443 
L 152.976952 517.018079 
L 153.611837 506.845433 
L 154.246721 509.729093 
L 154.881606 501.612907 
L 155.51649 511.34502 
L 156.151375 503.350028 
L 156.786259 501.520568 
L 157.421144 518.0415 
L 158.056028 502.832547 
L 158.690913 501.772576 
L 159.325797 496.645854 
L 159.960682 500.662587 
L 160.595566 520.124892 
L 161.230451 521.915878 
L 161.865335 503.369265 
L 162.50022 510.063821 
L 163.135104 507.543744 
L 163.769989 514.671137 
L 164.404873 509.315493 
L 165.039758 508.5133 
L 165.674642 512.90516 
L 166.309527 508.665275 
L 166.944411 514.726925 
L 167.579296 519.507377 
L 168.849065 501.739872 
L 169.483949 512.587745 
L 170.118834 495.655137 
L 170.753718 512.770499 
L 171.388603 523.978109 
L 172.023487 510.185016 
L 172.658372 513.149473 
L 173.293256 517.518247 
L 173.928141 516.477513 
L 174.563026 510.402396 
L 175.19791 515.450245 
L 175.832795 505.029438 
L 176.467679 511.189199 
L 177.102564 504.588906 
L 177.737448 514.457604 
L 178.372333 514.536477 
L 179.007217 515.908091 
L 179.642102 518.980277 
L 180.276986 511.504689 
L 180.911871 517.433603 
L 181.546755 513.186023 
L 182.18164 507.713032 
L 182.816524 518.684023 
L 183.451409 501.786042 
L 185.356062 524.489819 
L 185.990947 516.208192 
L 186.625831 523.187458 
L 187.260716 509.009621 
L 187.8956 519.547775 
L 188.530485 513.211032 
L 189.165369 510.839081 
L 189.800254 517.708696 
L 191.070023 522.704604 
L 191.704907 528.745094 
L 192.339792 512.939787 
L 192.974676 502.738284 
L 193.609561 467.607257 
L 194.244445 514.047851 
L 194.87933 521.638862 
L 195.514215 511.144953 
L 196.149099 525.5344 
L 196.783984 514.596112 
L 197.418868 524.339768 
L 198.053753 525.101563 
L 198.688637 524.341692 
L 199.323522 492.744544 
L 199.958406 506.379892 
L 200.593291 522.870044 
L 201.228175 527.467742 
L 201.86306 534.245017 
L 202.497944 525.545943 
L 203.132829 529.597303 
L 203.767713 521.915878 
L 204.402598 525.215062 
L 205.037482 524.153167 
L 205.672367 527.002201 
L 206.307251 531.474857 
L 206.942136 520.7905 
L 208.211905 525.838349 
L 208.846789 523.795355 
L 209.481674 532.171244 
L 210.116558 526.432779 
L 210.751443 521.706192 
L 211.386327 525.25546 
L 212.021212 510.862166 
L 212.656096 512.985956 
L 213.290981 525.713307 
L 213.925865 532.388625 
L 214.56075 529.116372 
L 215.195634 522.895053 
L 215.830519 521.02327 
L 216.465403 522.823875 
L 217.100288 533.260071 
L 217.735173 531.534492 
L 218.370057 528.152587 
L 219.004942 528.764331 
L 219.639826 523.595288 
L 220.274711 531.488323 
L 220.909595 526.269262 
L 221.54448 527.721673 
L 222.179364 535.027973 
L 222.814249 537.89432 
L 223.449133 530.811172 
L 224.084018 510.635167 
L 224.718902 519.70552 
L 225.353787 513.936275 
L 225.988671 530.462978 
L 226.623556 531.784576 
L 227.25844 528.710467 
L 227.893325 526.594372 
L 228.528209 531.134358 
L 229.163094 522.348715 
L 229.797978 531.613365 
L 230.432863 522.63535 
L 231.067747 530.180191 
L 231.702632 536.037927 
L 232.337516 536.551561 
L 232.972401 539.993101 
L 233.607285 534.043027 
L 234.24217 534.441237 
L 234.877054 526.711719 
L 235.511939 525.405511 
L 236.146823 519.486216 
L 236.781708 533.179275 
L 237.416592 527.548538 
L 238.051477 527.59086 
L 238.686362 525.097715 
L 239.321246 529.493422 
L 239.956131 531.671076 
L 240.591015 523.075882 
L 241.2259 531.632602 
L 241.860784 534.04495 
L 242.495669 527.069531 
L 243.130553 531.11512 
L 243.765438 513.890106 
L 244.400322 532.998445 
L 245.035207 528.614281 
L 245.670091 525.178512 
L 246.304976 519.391953 
L 246.93986 532.565607 
L 247.574745 528.233383 
L 248.209629 526.213474 
L 249.479398 537.313355 
L 250.114283 536.351494 
L 250.749167 528.658526 
L 251.384052 535.426183 
L 252.018936 533.506308 
L 252.653821 537.274881 
L 253.288705 523.347127 
L 253.92359 526.567439 
L 254.558474 504.914015 
L 255.193359 535.512751 
L 255.828243 533.514003 
L 256.463128 538.45797 
L 257.098012 522.998934 
L 257.732897 527.798622 
L 258.367781 542.669 
L 259.002666 530.924672 
L 259.63755 533.817951 
L 260.272435 526.155763 
L 260.90732 531.159366 
L 261.542204 537.696176 
L 262.177089 528.062172 
L 262.811973 511.770163 
L 263.446858 525.107334 
L 264.081742 530.88235 
L 264.716627 528.039087 
L 265.351511 529.620388 
L 265.986396 532.554065 
L 266.62128 534.543194 
L 267.256165 518.478185 
L 267.891049 536.355341 
L 268.525934 538.534919 
L 269.160818 535.464658 
L 269.795703 519.697825 
L 270.430587 532.763751 
L 271.065472 538.053989 
L 271.700356 541.045378 
L 272.970125 523.812668 
L 273.60501 525.370884 
L 274.239894 523.574127 
L 274.874779 527.036828 
L 275.509663 526.63477 
L 276.144548 534.071882 
L 276.779432 508.976918 
L 277.414317 520.403831 
L 278.049201 520.055638 
L 278.684086 521.606158 
L 279.31897 534.175763 
L 279.953855 520.228773 
L 280.588739 522.333325 
L 281.223624 532.746437 
L 281.858509 530.157106 
L 282.493393 500.535622 
L 283.128278 532.736819 
L 283.763162 524.997682 
L 285.032931 532.092372 
L 285.667816 532.858013 
L 286.3027 511.339249 
L 286.937585 533.625579 
L 287.572469 531.055485 
L 288.207354 531.149747 
L 288.842238 515.240559 
L 290.112007 528.191062 
L 290.746892 522.471834 
L 291.381776 526.230788 
L 292.016661 527.742834 
L 292.651545 524.626403 
L 293.28643 535.82247 
L 293.921314 533.971849 
L 294.556199 530.168649 
L 295.191083 537.065195 
L 295.825968 534.106509 
L 296.460852 539.898839 
L 297.095737 521.602311 
L 297.730621 539.404442 
L 298.365506 529.112525 
L 299.00039 536.743933 
L 299.635275 537.8116 
L 300.270159 524.205108 
L 300.905044 528.31418 
L 301.539928 518.530125 
L 302.174813 514.286393 
L 302.809697 532.53098 
L 303.444582 531.490246 
L 304.079467 526.35583 
L 304.714351 524.31476 
L 305.349236 537.505728 
L 305.98412 526.12306 
L 306.619005 541.018446 
L 307.253889 525.390121 
L 307.888774 538.552233 
L 309.158543 521.91203 
L 309.793427 539.621823 
L 311.063196 525.409358 
L 311.698081 526.854074 
L 312.332965 535.395404 
L 313.602734 525.732544 
L 314.237619 537.007483 
L 314.872503 533.260071 
L 315.507388 532.227032 
L 316.142272 535.333845 
L 316.777157 510.494735 
L 317.412041 515.975421 
L 318.046926 538.481055 
L 318.68181 530.697672 
L 319.316695 526.369296 
L 319.951579 540.347066 
L 320.586464 531.245933 
L 321.221348 530.645732 
L 321.856233 545.477635 
L 322.491117 533.902595 
L 323.126002 515.436779 
L 323.760886 541.634037 
L 324.395771 527.279217 
L 325.030656 538.030904 
L 325.66554 536.18413 
L 326.300425 539.72378 
L 326.935309 527.946749 
L 327.570194 531.399831 
L 328.205078 522.281385 
L 328.839963 541.939909 
L 329.474847 523.81844 
L 330.109732 533.952612 
L 330.744616 535.85325 
L 331.379501 535.122235 
L 332.014385 521.602311 
L 332.64927 516.585242 
L 333.284154 531.242086 
L 333.919039 526.305813 
L 335.188808 536.997865 
L 335.823692 538.15787 
L 336.458577 539.623747 
L 337.093461 512.885922 
L 337.728346 537.686558 
L 338.36323 531.28056 
L 338.998115 533.442825 
L 339.632999 527.698589 
L 340.267884 528.625823 
L 340.902768 537.232559 
L 341.537653 539.631441 
L 342.172537 538.47336 
L 342.807422 532.152007 
L 343.442306 530.449512 
L 344.712075 540.801065 
L 345.34696 529.82815 
L 345.981844 535.343463 
L 346.616729 535.264591 
L 347.251614 534.325814 
L 347.886498 528.01985 
L 348.521383 532.97536 
L 349.156267 527.377327 
L 349.791152 534.86638 
L 350.426036 508.592173 
L 351.060921 539.841127 
L 351.695805 533.725612 
L 352.33069 521.971666 
L 352.965574 532.823386 
L 353.600459 524.189718 
L 354.235343 529.4511 
L 354.870228 541.480139 
L 355.505112 540.674099 
L 356.139997 535.249201 
L 356.774881 533.042691 
L 357.409766 532.6137 
L 358.04465 539.785339 
L 358.679535 535.091455 
L 359.314419 535.447344 
L 359.949304 537.730803 
L 360.584188 535.027973 
L 361.219073 534.004552 
L 361.853957 529.897404 
L 362.488842 537.594219 
L 363.123726 539.379434 
L 363.758611 536.445756 
L 364.393495 529.414549 
L 365.02838 532.088524 
L 365.663264 535.522369 
L 366.298149 535.882106 
L 367.567918 526.155763 
L 368.202803 525.915297 
L 368.837687 536.118723 
L 369.472572 538.148251 
L 370.107456 526.103822 
L 370.742341 538.140556 
L 371.377225 529.780057 
L 372.01211 533.463986 
L 372.646994 535.029896 
L 373.281879 539.210146 
L 373.916763 532.257812 
L 374.551648 533.54863 
L 375.186532 538.525301 
L 375.821417 535.093379 
L 376.456301 530.126327 
L 377.091186 534.098814 
L 377.72607 540.485574 
L 378.360955 529.17216 
L 378.995839 524.889953 
L 379.630724 537.44994 
L 380.265608 534.497025 
L 380.900493 533.817951 
L 381.535377 526.640541 
L 382.170262 528.079486 
L 382.805146 542.876762 
L 383.440031 524.918809 
L 384.074915 527.338852 
L 384.7098 533.704451 
L 385.344684 533.43513 
L 385.979569 532.54637 
L 386.614453 538.559928 
L 387.249338 527.242666 
L 387.884222 535.316531 
L 388.519107 537.322974 
L 389.153991 529.251033 
L 389.788876 538.683046 
L 390.423761 540.626006 
L 391.058645 528.485391 
L 391.69353 539.319798 
L 392.328414 539.125502 
L 392.963299 527.725521 
L 393.598183 532.307829 
L 394.233068 529.347219 
L 394.867952 530.809248 
L 395.502837 524.730284 
L 396.137721 532.71181 
L 396.772606 534.385449 
L 397.40749 528.504628 
L 398.042375 523.874227 
L 398.677259 539.735322 
L 399.312144 534.412381 
L 399.947028 522.098631 
L 400.581913 529.306821 
L 401.216797 533.817951 
L 401.851682 528.722009 
L 403.121451 544.750468 
L 403.756335 531.840364 
L 404.39122 543.3096 
L 405.026104 536.553485 
L 405.660989 537.095975 
L 406.295873 537.919328 
L 406.930758 534.3085 
L 407.565642 535.176099 
L 408.200527 531.90577 
L 408.835411 531.065104 
L 409.470296 528.922076 
L 410.10518 534.329661 
L 410.740065 525.628663 
L 411.37495 545.564203 
L 412.009834 533.292775 
L 412.644719 540.970353 
L 413.279603 535.930199 
L 413.914488 535.222269 
L 414.549372 537.011331 
L 415.184257 527.054141 
L 415.819141 545.291034 
L 416.454026 533.406274 
L 417.08891 528.421908 
L 417.723795 538.550309 
L 418.358679 540.651015 
L 418.993564 524.522522 
L 420.263333 537.311432 
L 420.898217 536.241842 
L 421.533102 537.455711 
L 422.167986 537.111364 
L 422.802871 517.329722 
L 423.437755 531.773034 
L 424.07264 538.748453 
L 424.707524 527.748605 
L 425.342409 534.625915 
L 425.977293 531.701856 
L 426.612178 540.827997 
L 427.247062 536.218757 
L 427.881947 535.172252 
L 428.516831 526.884854 
L 429.151716 542.81905 
L 429.7866 537.877006 
L 430.421485 534.754804 
L 431.056369 534.875999 
L 431.691254 525.382426 
L 432.326138 532.082753 
L 432.961023 536.634281 
L 433.595908 520.028705 
L 434.230792 538.30792 
L 434.865677 533.612113 
L 435.500561 531.503712 
L 436.135446 537.149839 
L 436.77033 533.841036 
L 437.405215 529.302973 
L 438.040099 529.499193 
L 438.674984 536.703535 
L 439.309868 536.26685 
L 439.944753 536.728544 
L 440.579637 538.848486 
L 441.214522 532.827234 
L 441.849406 530.264835 
L 442.484291 530.559164 
L 443.119175 532.657946 
L 443.75406 527.850563 
L 444.388944 527.525453 
L 445.023829 531.170908 
L 445.658713 541.497453 
L 446.293598 542.070722 
L 446.928482 536.651595 
L 447.563367 536.607349 
L 448.198251 527.665885 
L 448.833136 526.173076 
L 449.46802 526.721337 
L 450.102905 538.309844 
L 450.737789 536.170664 
L 451.372674 537.771201 
L 452.642443 532.140465 
L 453.277327 527.292683 
L 453.912212 537.71349 
L 454.547097 535.102998 
L 455.181981 534.279644 
L 455.816866 530.420656 
L 456.45175 541.707138 
L 457.086635 532.484811 
L 457.721519 517.8145 
L 458.356404 535.258819 
L 458.991288 513.38609 
L 459.626173 528.24685 
L 460.261057 537.482643 
L 460.895942 538.727292 
L 462.165711 528.756636 
L 462.800595 533.038843 
L 463.43548 539.125502 
L 464.070364 540.502888 
L 464.705249 536.601578 
L 465.340133 529.731964 
L 465.975018 528.146816 
L 466.609902 528.612357 
L 467.244787 534.868304 
L 467.879671 522.879663 
L 468.514556 531.067027 
L 469.14944 525.082325 
L 469.784325 522.904671 
L 470.419209 537.732727 
L 471.054094 530.680359 
L 471.688978 541.006903 
L 472.323863 528.258392 
L 472.958747 533.400503 
L 473.593632 541.545546 
L 474.228516 537.261415 
L 474.863401 534.497025 
L 475.498285 538.17326 
L 476.13317 534.004552 
L 476.768055 540.756819 
L 477.402939 528.010232 
L 478.037824 530.32447 
L 478.672708 528.729704 
L 479.307593 539.03124 
L 480.577362 526.084585 
L 481.847131 535.955207 
L 482.482015 537.51727 
L 483.1169 525.297782 
L 483.751784 536.767018 
L 484.386669 535.603166 
L 485.021553 529.876243 
L 485.656438 525.649824 
L 486.291322 536.909374 
L 486.926207 523.368288 
L 487.561091 529.195245 
L 488.195976 523.685703 
L 488.83086 538.05976 
L 489.465745 539.862288 
L 490.100629 529.553057 
L 490.735514 538.367556 
L 492.005283 530.320623 
L 492.640167 530.305233 
L 493.275052 521.373388 
L 493.909936 540.477879 
L 494.544821 544.783171 
L 495.179705 537.26911 
L 495.81459 525.946077 
L 496.449474 520.448077 
L 497.084359 536.534248 
L 497.719244 522.275614 
L 498.354128 532.161626 
L 499.623897 542.384289 
L 500.258782 533.966078 
L 500.893666 518.778286 
L 501.528551 539.64106 
L 502.163435 543.324989 
L 502.79832 544.779324 
L 503.433204 528.814348 
L 504.068089 530.990078 
L 504.702973 531.799966 
L 505.337858 530.68613 
L 505.972742 526.923328 
L 506.607627 516.742987 
L 507.242511 533.54863 
L 507.877396 529.412626 
L 508.51228 543.057592 
L 509.147165 523.583745 
L 509.782049 530.836181 
L 510.416934 532.771446 
L 511.051818 529.924336 
L 511.686703 536.701612 
L 512.321587 533.477452 
L 512.956472 539.800729 
L 513.591356 536.666985 
L 514.226241 540.668328 
L 514.861125 521.831234 
L 516.130894 536.009071 
L 516.765779 538.425267 
L 517.400663 535.012583 
L 518.035548 530.705367 
L 518.670433 528.506552 
L 519.305317 541.339707 
L 519.940202 527.240742 
L 520.575086 535.449268 
L 521.209971 537.23833 
L 521.844855 533.989162 
L 522.47974 535.414641 
L 523.114624 535.791691 
L 523.749509 529.785828 
L 524.384393 526.557821 
L 525.019278 535.16071 
L 525.654162 533.589028 
L 526.289047 535.008735 
L 526.923931 543.321142 
L 527.558816 541.264682 
L 528.1937 530.96507 
L 528.828585 531.561424 
L 529.463469 536.645824 
L 530.098354 540.195092 
L 530.733238 536.903602 
L 531.368123 537.199856 
L 532.003007 521.935115 
L 532.637892 536.330333 
L 533.272776 518.922565 
L 533.907661 531.265171 
L 534.542545 533.898747 
L 535.17743 541.066539 
L 535.812314 539.979635 
L 536.447199 542.874838 
L 537.082083 535.945588 
L 537.716968 520.930931 
L 538.351852 529.5646 
L 538.986737 525.48246 
L 539.621621 538.259827 
L 540.256506 536.701612 
L 540.891391 540.337448 
L 541.526275 532.138541 
L 542.16116 533.460138 
L 542.796044 526.482796 
L 543.430929 527.648572 
L 544.065813 543.546217 
L 544.700698 529.364533 
L 545.335582 537.898167 
L 545.970467 540.218177 
L 546.605351 524.522522 
L 547.240236 544.077165 
L 547.87512 534.32389 
L 548.510005 533.244682 
L 549.144889 516.271675 
L 549.779774 535.497361 
L 550.414658 534.650923 
L 551.049543 539.781492 
L 551.684427 535.331921 
L 552.319312 532.911877 
L 552.954196 534.712482 
L 553.589081 530.074386 
L 554.223965 520.374976 
L 554.85885 531.567195 
L 555.493734 528.00446 
L 556.128619 534.087272 
L 556.763503 535.102998 
L 557.398388 533.442825 
L 558.033272 535.318455 
L 558.668157 541.505148 
L 559.303041 527.725521 
L 559.937926 537.380686 
L 560.57281 528.71239 
L 561.207695 523.627991 
L 561.84258 541.218513 
L 562.477464 542.744025 
L 563.112349 543.37693 
L 563.747233 528.595043 
L 564.382118 532.150083 
L 565.017002 517.345112 
L 565.651887 540.581761 
L 566.286771 533.685214 
L 566.921656 540.073898 
L 567.55654 543.371159 
L 568.191425 538.604173 
L 568.826309 530.070539 
L 569.461194 539.941161 
L 570.096078 541.986078 
L 570.730963 543.055668 
L 571.365847 538.988918 
L 572.000732 539.854593 
L 572.635616 528.410366 
L 573.270501 530.212894 
L 573.905385 542.532416 
L 574.54027 539.571806 
L 575.175154 525.430519 
L 575.810039 533.769858 
L 576.444923 527.635106 
L 577.079808 524.782225 
L 577.714692 537.569211 
L 578.349577 526.444321 
L 578.984461 528.902839 
L 579.619346 534.275797 
L 580.25423 535.406946 
L 580.889115 524.078142 
L 581.523999 539.258239 
L 582.158884 535.791691 
L 582.793768 528.146816 
L 583.428653 514.73462 
L 584.698422 541.622495 
L 585.333307 523.052798 
L 585.968191 523.96849 
L 586.603076 531.372899 
L 587.23796 533.121563 
L 587.872845 526.7021 
L 588.507729 526.688634 
L 589.142614 536.480383 
L 589.142614 536.480383 
" clip-path="url(#p2455e5910b)" style="fill: none; stroke: #ff7f0e; stroke-width: 1.5; stroke-linecap: square"/>
   </g>
   <g id="patch_3">
    <path d="M 56.50625 576.718125 
L 56.50625 22.318125 
" style="fill: none; stroke: #000000; stroke-width: 0.8; stroke-linejoin: miter; stroke-linecap: square"/>
   </g>
   <g id="patch_4">
    <path d="M 614.50625 576.718125 
L 614.50625 22.318125 
" style="fill: none; stroke: #000000; stroke-width: 0.8; stroke-linejoin: miter; stroke-linecap: square"/>
   </g>
   <g id="patch_5">
    <path d="M 56.50625 576.718125 
L 614.50625 576.718125 
" style="fill: none; stroke: #000000; stroke-width: 0.8; stroke-linejoin: miter; stroke-linecap: square"/>
   </g>
   <g id="patch_6">
    <path d="M 56.50625 22.318125 
L 614.50625 22.318125 
" style="fill: none; stroke: #000000; stroke-width: 0.8; stroke-linejoin: miter; stroke-linecap: square"/>
   </g>
   <g id="text_21">
    <!-- Train and Val Loss -->
    <g transform="translate(281.960938 16.318125) scale(0.12 -0.12)">
     <defs>
      <path id="DejaVuSans-54" d="M -19 4666 
L 3928 4666 
L 3928 4134 
L 2272 4134 
L 2272 0 
L 1638 0 
L 1638 4134 
L -19 4134 
L -19 4666 
z
" transform="scale(0.015625)"/>
      <path id="DejaVuSans-72" d="M 2631 2963 
Q 2534 3019 2420 3045 
Q 2306 3072 2169 3072 
Q 1681 3072 1420 2755 
Q 1159 2438 1159 1844 
L 1159 0 
L 581 0 
L 581 3500 
L 1159 3500 
L 1159 2956 
Q 1341 3275 1631 3429 
Q 1922 3584 2338 3584 
Q 2397 3584 2469 3576 
Q 2541 3569 2628 3553 
L 2631 2963 
z
" transform="scale(0.015625)"/>
      <path id="DejaVuSans-61" d="M 2194 1759 
Q 1497 1759 1228 1600 
Q 959 1441 959 1056 
Q 959 750 1161 570 
Q 1363 391 1709 391 
Q 2188 391 2477 730 
Q 2766 1069 2766 1631 
L 2766 1759 
L 2194 1759 
z
M 3341 1997 
L 3341 0 
L 2766 0 
L 2766 531 
Q 2569 213 2275 61 
Q 1981 -91 1556 -91 
Q 1019 -91 701 211 
Q 384 513 384 1019 
Q 384 1609 779 1909 
Q 1175 2209 1959 2209 
L 2766 2209 
L 2766 2266 
Q 2766 2663 2505 2880 
Q 2244 3097 1772 3097 
Q 1472 3097 1187 3025 
Q 903 2953 641 2809 
L 641 3341 
Q 956 3463 1253 3523 
Q 1550 3584 1831 3584 
Q 2591 3584 2966 3190 
Q 3341 2797 3341 1997 
z
" transform="scale(0.015625)"/>
      <path id="DejaVuSans-69" d="M 603 3500 
L 1178 3500 
L 1178 0 
L 603 0 
L 603 3500 
z
M 603 4863 
L 1178 4863 
L 1178 4134 
L 603 4134 
L 603 4863 
z
" transform="scale(0.015625)"/>
      <path id="DejaVuSans-6e" d="M 3513 2113 
L 3513 0 
L 2938 0 
L 2938 2094 
Q 2938 2591 2744 2837 
Q 2550 3084 2163 3084 
Q 1697 3084 1428 2787 
Q 1159 2491 1159 1978 
L 1159 0 
L 581 0 
L 581 3500 
L 1159 3500 
L 1159 2956 
Q 1366 3272 1645 3428 
Q 1925 3584 2291 3584 
Q 2894 3584 3203 3211 
Q 3513 2838 3513 2113 
z
" transform="scale(0.015625)"/>
      <path id="DejaVuSans-20" transform="scale(0.015625)"/>
      <path id="DejaVuSans-64" d="M 2906 2969 
L 2906 4863 
L 3481 4863 
L 3481 0 
L 2906 0 
L 2906 525 
Q 2725 213 2448 61 
Q 2172 -91 1784 -91 
Q 1150 -91 751 415 
Q 353 922 353 1747 
Q 353 2572 751 3078 
Q 1150 3584 1784 3584 
Q 2172 3584 2448 3432 
Q 2725 3281 2906 2969 
z
M 947 1747 
Q 947 1113 1208 752 
Q 1469 391 1925 391 
Q 2381 391 2643 752 
Q 2906 1113 2906 1747 
Q 2906 2381 2643 2742 
Q 2381 3103 1925 3103 
Q 1469 3103 1208 2742 
Q 947 2381 947 1747 
z
" transform="scale(0.015625)"/>
      <path id="DejaVuSans-56" d="M 1831 0 
L 50 4666 
L 709 4666 
L 2188 738 
L 3669 4666 
L 4325 4666 
L 2547 0 
L 1831 0 
z
" transform="scale(0.015625)"/>
      <path id="DejaVuSans-6c" d="M 603 4863 
L 1178 4863 
L 1178 0 
L 603 0 
L 603 4863 
z
" transform="scale(0.015625)"/>
     </defs>
     <use xlink:href="#DejaVuSans-54"/>
     <use xlink:href="#DejaVuSans-72" transform="translate(46.333984 0)"/>
     <use xlink:href="#DejaVuSans-61" transform="translate(87.447266 0)"/>
     <use xlink:href="#DejaVuSans-69" transform="translate(148.726562 0)"/>
     <use xlink:href="#DejaVuSans-6e" transform="translate(176.509766 0)"/>
     <use xlink:href="#DejaVuSans-20" transform="translate(239.888672 0)"/>
     <use xlink:href="#DejaVuSans-61" transform="translate(271.675781 0)"/>
     <use xlink:href="#DejaVuSans-6e" transform="translate(332.955078 0)"/>
     <use xlink:href="#DejaVuSans-64" transform="translate(396.333984 0)"/>
     <use xlink:href="#DejaVuSans-20" transform="translate(459.810547 0)"/>
     <use xlink:href="#DejaVuSans-56" transform="translate(491.597656 0)"/>
     <use xlink:href="#DejaVuSans-61" transform="translate(552.255859 0)"/>
     <use xlink:href="#DejaVuSans-6c" transform="translate(613.535156 0)"/>
     <use xlink:href="#DejaVuSans-20" transform="translate(641.318359 0)"/>
     <use xlink:href="#DejaVuSans-4c" transform="translate(673.105469 0)"/>
     <use xlink:href="#DejaVuSans-6f" transform="translate(727.068359 0)"/>
     <use xlink:href="#DejaVuSans-73" transform="translate(788.25 0)"/>
     <use xlink:href="#DejaVuSans-73" transform="translate(840.349609 0)"/>
    </g>
   </g>
   <g id="legend_1">
    <g id="patch_7">
     <path d="M 527.915625 60.230625 
L 607.50625 60.230625 
Q 609.50625 60.230625 609.50625 58.230625 
L 609.50625 29.318125 
Q 609.50625 27.318125 607.50625 27.318125 
L 527.915625 27.318125 
Q 525.915625 27.318125 525.915625 29.318125 
L 525.915625 58.230625 
Q 525.915625 60.230625 527.915625 60.230625 
z
" style="fill: #ffffff; opacity: 0.8; stroke: #cccccc; stroke-linejoin: miter"/>
    </g>
    <g id="line2d_39">
     <path d="M 529.915625 35.416563 
L 539.915625 35.416563 
L 549.915625 35.416563 
" style="fill: none; stroke: #1f77b4; stroke-width: 1.5; stroke-linecap: square"/>
    </g>
    <g id="text_22">
     <!-- train_loss -->
     <g transform="translate(557.915625 38.916563) scale(0.1 -0.1)">
      <defs>
       <path id="DejaVuSans-74" d="M 1172 4494 
L 1172 3500 
L 2356 3500 
L 2356 3053 
L 1172 3053 
L 1172 1153 
Q 1172 725 1289 603 
Q 1406 481 1766 481 
L 2356 481 
L 2356 0 
L 1766 0 
Q 1100 0 847 248 
Q 594 497 594 1153 
L 594 3053 
L 172 3053 
L 172 3500 
L 594 3500 
L 594 4494 
L 1172 4494 
z
" transform="scale(0.015625)"/>
       <path id="DejaVuSans-5f" d="M 3263 -1063 
L 3263 -1509 
L -63 -1509 
L -63 -1063 
L 3263 -1063 
z
" transform="scale(0.015625)"/>
      </defs>
      <use xlink:href="#DejaVuSans-74"/>
      <use xlink:href="#DejaVuSans-72" transform="translate(39.208984 0)"/>
      <use xlink:href="#DejaVuSans-61" transform="translate(80.322266 0)"/>
      <use xlink:href="#DejaVuSans-69" transform="translate(141.601562 0)"/>
      <use xlink:href="#DejaVuSans-6e" transform="translate(169.384766 0)"/>
      <use xlink:href="#DejaVuSans-5f" transform="translate(232.763672 0)"/>
      <use xlink:href="#DejaVuSans-6c" transform="translate(282.763672 0)"/>
      <use xlink:href="#DejaVuSans-6f" transform="translate(310.546875 0)"/>
      <use xlink:href="#DejaVuSans-73" transform="translate(371.728516 0)"/>
      <use xlink:href="#DejaVuSans-73" transform="translate(423.828125 0)"/>
     </g>
    </g>
    <g id="line2d_40">
     <path d="M 529.915625 50.372813 
L 539.915625 50.372813 
L 549.915625 50.372813 
" style="fill: none; stroke: #ff7f0e; stroke-width: 1.5; stroke-linecap: square"/>
    </g>
    <g id="text_23">
     <!-- val_loss -->
     <g transform="translate(557.915625 53.872813) scale(0.1 -0.1)">
      <defs>
       <path id="DejaVuSans-76" d="M 191 3500 
L 800 3500 
L 1894 563 
L 2988 3500 
L 3597 3500 
L 2284 0 
L 1503 0 
L 191 3500 
z
" transform="scale(0.015625)"/>
      </defs>
      <use xlink:href="#DejaVuSans-76"/>
      <use xlink:href="#DejaVuSans-61" transform="translate(59.179688 0)"/>
      <use xlink:href="#DejaVuSans-6c" transform="translate(120.458984 0)"/>
      <use xlink:href="#DejaVuSans-5f" transform="translate(148.242188 0)"/>
      <use xlink:href="#DejaVuSans-6c" transform="translate(198.242188 0)"/>
      <use xlink:href="#DejaVuSans-6f" transform="translate(226.025391 0)"/>
      <use xlink:href="#DejaVuSans-73" transform="translate(287.207031 0)"/>
      <use xlink:href="#DejaVuSans-73" transform="translate(339.306641 0)"/>
     </g>
    </g>
   </g>
  </g>
 </g>
 <defs>
  <clipPath id="p2455e5910b">
   <rect x="56.50625" y="22.318125" width="558" height="554.4"/>
  </clipPath>
 </defs>
</svg>
