<?xml version="1.0" encoding="utf-8" standalone="no"?>
<!DOCTYPE svg PUBLIC "-//W3C//DTD SVG 1.1//EN"
  "http://www.w3.org/Graphics/SVG/1.1/DTD/svg11.dtd">
<svg xmlns:xlink="http://www.w3.org/1999/xlink" width="621.70625pt" height="614.274375pt" viewBox="0 0 621.70625 614.274375" xmlns="http://www.w3.org/2000/svg" version="1.1">
 <metadata>
  <rdf:RDF xmlns:dc="http://purl.org/dc/elements/1.1/" xmlns:cc="http://creativecommons.org/ns#" xmlns:rdf="http://www.w3.org/1999/02/22-rdf-syntax-ns#">
   <cc:Work>
    <dc:type rdf:resource="http://purl.org/dc/dcmitype/StillImage"/>
    <dc:date>2026-05-23T00:27:15.690636</dc:date>
    <dc:format>image/svg+xml</dc:format>
    <dc:creator>
     <cc:Agent>
      <dc:title>Matplotlib v3.10.9, https://matplotlib.org/</dc:title>
     </cc:Agent>
    </dc:creator>
   </cc:Work>
  </rdf:RDF>
 </metadata>
 <defs>
  <style type="text/css">*{stroke-linejoin: round; stroke-linecap: butt}</style>
 </defs>
 <g id="figure_1">
  <g id="patch_1">
   <path d="M 0 614.274375 
L 621.70625 614.274375 
L 621.70625 0 
L 0 0 
z
" style="fill: #ffffff"/>
  </g>
  <g id="axes_1">
   <g id="patch_2">
    <path d="M 56.50625 576.718125 
L 614.50625 576.718125 
L 614.50625 22.318125 
L 56.50625 22.318125 
z
" style="fill: #ffffff"/>
   </g>
   <g id="matplotlib.axis_1">
    <g id="xtick_1">
     <g id="line2d_1">
      <path d="M 81.869886 576.718125 
L 81.869886 22.318125 
" clip-path="url(#pae39107f75)" style="fill: none; stroke: #b0b0b0; stroke-width: 0.8; stroke-linecap: square"/>
     </g>
     <g id="line2d_2">
      <defs>
       <path id="m673103a066" d="M 0 0 
L 0 3.5 
" style="stroke: #000000; stroke-width: 0.8"/>
      </defs>
      <g>
       <use xlink:href="#m673103a066" x="81.869886" y="576.718125" style="stroke: #000000; stroke-width: 0.8"/>
      </g>
     </g>
     <g id="text_1">
      <!-- 0 -->
      <g transform="translate(78.688636 591.316563) scale(0.1 -0.1)">
       <defs>
        <path id="DejaVuSans-30" d="M 2034 4250 
Q 1547 4250 1301 3770 
Q 1056 3291 1056 2328 
Q 1056 1369 1301 889 
Q 1547 409 2034 409 
Q 2525 409 2770 889 
Q 3016 1369 3016 2328 
Q 3016 3291 2770 3770 
Q 2525 4250 2034 4250 
z
M 2034 4750 
Q 2819 4750 3233 4129 
Q 3647 3509 3647 2328 
Q 3647 1150 3233 529 
Q 2819 -91 2034 -91 
Q 1250 -91 836 529 
Q 422 1150 422 2328 
Q 422 3509 836 4129 
Q 1250 4750 2034 4750 
z
" transform="scale(0.015625)"/>
       </defs>
       <use xlink:href="#DejaVuSans-30"/>
      </g>
     </g>
    </g>
    <g id="xtick_2">
     <g id="line2d_3">
      <path d="M 145.358338 576.718125 
L 145.358338 22.318125 
" clip-path="url(#pae39107f75)" style="fill: none; stroke: #b0b0b0; stroke-width: 0.8; stroke-linecap: square"/>
     </g>
     <g id="line2d_4">
      <g>
       <use xlink:href="#m673103a066" x="145.358338" y="576.718125" style="stroke: #000000; stroke-width: 0.8"/>
      </g>
     </g>
     <g id="text_2">
      <!-- 100 -->
      <g transform="translate(135.814588 591.316563) scale(0.1 -0.1)">
       <defs>
        <path id="DejaVuSans-31" d="M 794 531 
L 1825 531 
L 1825 4091 
L 703 3866 
L 703 4441 
L 1819 4666 
L 2450 4666 
L 2450 531 
L 3481 531 
L 3481 0 
L 794 0 
L 794 531 
z
" transform="scale(0.015625)"/>
       </defs>
       <use xlink:href="#DejaVuSans-31"/>
       <use xlink:href="#DejaVuSans-30" transform="translate(63.623047 0)"/>
       <use xlink:href="#DejaVuSans-30" transform="translate(127.246094 0)"/>
      </g>
     </g>
    </g>
    <g id="xtick_3">
     <g id="line2d_5">
      <path d="M 208.846789 576.718125 
L 208.846789 22.318125 
" clip-path="url(#pae39107f75)" style="fill: none; stroke: #b0b0b0; stroke-width: 0.8; stroke-linecap: square"/>
     </g>
     <g id="line2d_6">
      <g>
       <use xlink:href="#m673103a066" x="208.846789" y="576.718125" style="stroke: #000000; stroke-width: 0.8"/>
      </g>
     </g>
     <g id="text_3">
      <!-- 200 -->
      <g transform="translate(199.303039 591.316563) scale(0.1 -0.1)">
       <defs>
        <path id="DejaVuSans-32" d="M 1228 531 
L 3431 531 
L 3431 0 
L 469 0 
L 469 531 
Q 828 903 1448 1529 
Q 2069 2156 2228 2338 
Q 2531 2678 2651 2914 
Q 2772 3150 2772 3378 
Q 2772 3750 2511 3984 
Q 2250 4219 1831 4219 
Q 1534 4219 1204 4116 
Q 875 4013 500 3803 
L 500 4441 
Q 881 4594 1212 4672 
Q 1544 4750 1819 4750 
Q 2544 4750 2975 4387 
Q 3406 4025 3406 3419 
Q 3406 3131 3298 2873 
Q 3191 2616 2906 2266 
Q 2828 2175 2409 1742 
Q 1991 1309 1228 531 
z
" transform="scale(0.015625)"/>
       </defs>
       <use xlink:href="#DejaVuSans-32"/>
       <use xlink:href="#DejaVuSans-30" transform="translate(63.623047 0)"/>
       <use xlink:href="#DejaVuSans-30" transform="translate(127.246094 0)"/>
      </g>
     </g>
    </g>
    <g id="xtick_4">
     <g id="line2d_7">
      <path d="M 272.335241 576.718125 
L 272.335241 22.318125 
" clip-path="url(#pae39107f75)" style="fill: none; stroke: #b0b0b0; stroke-width: 0.8; stroke-linecap: square"/>
     </g>
     <g id="line2d_8">
      <g>
       <use xlink:href="#m673103a066" x="272.335241" y="576.718125" style="stroke: #000000; stroke-width: 0.8"/>
      </g>
     </g>
     <g id="text_4">
      <!-- 300 -->
      <g transform="translate(262.791491 591.316563) scale(0.1 -0.1)">
       <defs>
        <path id="DejaVuSans-33" d="M 2597 2516 
Q 3050 2419 3304 2112 
Q 3559 1806 3559 1356 
Q 3559 666 3084 287 
Q 2609 -91 1734 -91 
Q 1441 -91 1130 -33 
Q 819 25 488 141 
L 488 750 
Q 750 597 1062 519 
Q 1375 441 1716 441 
Q 2309 441 2620 675 
Q 2931 909 2931 1356 
Q 2931 1769 2642 2001 
Q 2353 2234 1838 2234 
L 1294 2234 
L 1294 2753 
L 1863 2753 
Q 2328 2753 2575 2939 
Q 2822 3125 2822 3475 
Q 2822 3834 2567 4026 
Q 2313 4219 1838 4219 
Q 1578 4219 1281 4162 
Q 984 4106 628 3988 
L 628 4550 
Q 988 4650 1302 4700 
Q 1616 4750 1894 4750 
Q 2613 4750 3031 4423 
Q 3450 4097 3450 3541 
Q 3450 3153 3228 2886 
Q 3006 2619 2597 2516 
z
" transform="scale(0.015625)"/>
       </defs>
       <use xlink:href="#DejaVuSans-33"/>
       <use xlink:href="#DejaVuSans-30" transform="translate(63.623047 0)"/>
       <use xlink:href="#DejaVuSans-30" transform="translate(127.246094 0)"/>
      </g>
     </g>
    </g>
    <g id="xtick_5">
     <g id="line2d_9">
      <path d="M 335.823692 576.718125 
L 335.823692 22.318125 
" clip-path="url(#pae39107f75)" style="fill: none; stroke: #b0b0b0; stroke-width: 0.8; stroke-linecap: square"/>
     </g>
     <g id="line2d_10">
      <g>
       <use xlink:href="#m673103a066" x="335.823692" y="576.718125" style="stroke: #000000; stroke-width: 0.8"/>
      </g>
     </g>
     <g id="text_5">
      <!-- 400 -->
      <g transform="translate(326.279942 591.316563) scale(0.1 -0.1)">
       <defs>
        <path id="DejaVuSans-34" d="M 2419 4116 
L 825 1625 
L 2419 1625 
L 2419 4116 
z
M 2253 4666 
L 3047 4666 
L 3047 1625 
L 3713 1625 
L 3713 1100 
L 3047 1100 
L 3047 0 
L 2419 0 
L 2419 1100 
L 313 1100 
L 313 1709 
L 2253 4666 
z
" transform="scale(0.015625)"/>
       </defs>
       <use xlink:href="#DejaVuSans-34"/>
       <use xlink:href="#DejaVuSans-30" transform="translate(63.623047 0)"/>
       <use xlink:href="#DejaVuSans-30" transform="translate(127.246094 0)"/>
      </g>
     </g>
    </g>
    <g id="xtick_6">
     <g id="line2d_11">
      <path d="M 399.312144 576.718125 
L 399.312144 22.318125 
" clip-path="url(#pae39107f75)" style="fill: none; stroke: #b0b0b0; stroke-width: 0.8; stroke-linecap: square"/>
     </g>
     <g id="line2d_12">
      <g>
       <use xlink:href="#m673103a066" x="399.312144" y="576.718125" style="stroke: #000000; stroke-width: 0.8"/>
      </g>
     </g>
     <g id="text_6">
      <!-- 500 -->
      <g transform="translate(389.768394 591.316563) scale(0.1 -0.1)">
       <defs>
        <path id="DejaVuSans-35" d="M 691 4666 
L 3169 4666 
L 3169 4134 
L 1269 4134 
L 1269 2991 
Q 1406 3038 1543 3061 
Q 1681 3084 1819 3084 
Q 2600 3084 3056 2656 
Q 3513 2228 3513 1497 
Q 3513 744 3044 326 
Q 2575 -91 1722 -91 
Q 1428 -91 1123 -41 
Q 819 9 494 109 
L 494 744 
Q 775 591 1075 516 
Q 1375 441 1709 441 
Q 2250 441 2565 725 
Q 2881 1009 2881 1497 
Q 2881 1984 2565 2268 
Q 2250 2553 1709 2553 
Q 1456 2553 1204 2497 
Q 953 2441 691 2322 
L 691 4666 
z
" transform="scale(0.015625)"/>
       </defs>
       <use xlink:href="#DejaVuSans-35"/>
       <use xlink:href="#DejaVuSans-30" transform="translate(63.623047 0)"/>
       <use xlink:href="#DejaVuSans-30" transform="translate(127.246094 0)"/>
      </g>
     </g>
    </g>
    <g id="xtick_7">
     <g id="line2d_13">
      <path d="M 462.800595 576.718125 
L 462.800595 22.318125 
" clip-path="url(#pae39107f75)" style="fill: none; stroke: #b0b0b0; stroke-width: 0.8; stroke-linecap: square"/>
     </g>
     <g id="line2d_14">
      <g>
       <use xlink:href="#m673103a066" x="462.800595" y="576.718125" style="stroke: #000000; stroke-width: 0.8"/>
      </g>
     </g>
     <g id="text_7">
      <!-- 600 -->
      <g transform="translate(453.256845 591.316563) scale(0.1 -0.1)">
       <defs>
        <path id="DejaVuSans-36" d="M 2113 2584 
Q 1688 2584 1439 2293 
Q 1191 2003 1191 1497 
Q 1191 994 1439 701 
Q 1688 409 2113 409 
Q 2538 409 2786 701 
Q 3034 994 3034 1497 
Q 3034 2003 2786 2293 
Q 2538 2584 2113 2584 
z
M 3366 4563 
L 3366 3988 
Q 3128 4100 2886 4159 
Q 2644 4219 2406 4219 
Q 1781 4219 1451 3797 
Q 1122 3375 1075 2522 
Q 1259 2794 1537 2939 
Q 1816 3084 2150 3084 
Q 2853 3084 3261 2657 
Q 3669 2231 3669 1497 
Q 3669 778 3244 343 
Q 2819 -91 2113 -91 
Q 1303 -91 875 529 
Q 447 1150 447 2328 
Q 447 3434 972 4092 
Q 1497 4750 2381 4750 
Q 2619 4750 2861 4703 
Q 3103 4656 3366 4563 
z
" transform="scale(0.015625)"/>
       </defs>
       <use xlink:href="#DejaVuSans-36"/>
       <use xlink:href="#DejaVuSans-30" transform="translate(63.623047 0)"/>
       <use xlink:href="#DejaVuSans-30" transform="translate(127.246094 0)"/>
      </g>
     </g>
    </g>
    <g id="xtick_8">
     <g id="line2d_15">
      <path d="M 526.289047 576.718125 
L 526.289047 22.318125 
" clip-path="url(#pae39107f75)" style="fill: none; stroke: #b0b0b0; stroke-width: 0.8; stroke-linecap: square"/>
     </g>
     <g id="line2d_16">
      <g>
       <use xlink:href="#m673103a066" x="526.289047" y="576.718125" style="stroke: #000000; stroke-width: 0.8"/>
      </g>
     </g>
     <g id="text_8">
      <!-- 700 -->
      <g transform="translate(516.745297 591.316563) scale(0.1 -0.1)">
       <defs>
        <path id="DejaVuSans-37" d="M 525 4666 
L 3525 4666 
L 3525 4397 
L 1831 0 
L 1172 0 
L 2766 4134 
L 525 4134 
L 525 4666 
z
" transform="scale(0.015625)"/>
       </defs>
       <use xlink:href="#DejaVuSans-37"/>
       <use xlink:href="#DejaVuSans-30" transform="translate(63.623047 0)"/>
       <use xlink:href="#DejaVuSans-30" transform="translate(127.246094 0)"/>
      </g>
     </g>
    </g>
    <g id="xtick_9">
     <g id="line2d_17">
      <path d="M 589.777498 576.718125 
L 589.777498 22.318125 
" clip-path="url(#pae39107f75)" style="fill: none; stroke: #b0b0b0; stroke-width: 0.8; stroke-linecap: square"/>
     </g>
     <g id="line2d_18">
      <g>
       <use xlink:href="#m673103a066" x="589.777498" y="576.718125" style="stroke: #000000; stroke-width: 0.8"/>
      </g>
     </g>
     <g id="text_9">
      <!-- 800 -->
      <g transform="translate(580.233748 591.316563) scale(0.1 -0.1)">
       <defs>
        <path id="DejaVuSans-38" d="M 2034 2216 
Q 1584 2216 1326 1975 
Q 1069 1734 1069 1313 
Q 1069 891 1326 650 
Q 1584 409 2034 409 
Q 2484 409 2743 651 
Q 3003 894 3003 1313 
Q 3003 1734 2745 1975 
Q 2488 2216 2034 2216 
z
M 1403 2484 
Q 997 2584 770 2862 
Q 544 3141 544 3541 
Q 544 4100 942 4425 
Q 1341 4750 2034 4750 
Q 2731 4750 3128 4425 
Q 3525 4100 3525 3541 
Q 3525 3141 3298 2862 
Q 3072 2584 2669 2484 
Q 3125 2378 3379 2068 
Q 3634 1759 3634 1313 
Q 3634 634 3220 271 
Q 2806 -91 2034 -91 
Q 1263 -91 848 271 
Q 434 634 434 1313 
Q 434 1759 690 2068 
Q 947 2378 1403 2484 
z
M 1172 3481 
Q 1172 3119 1398 2916 
Q 1625 2713 2034 2713 
Q 2441 2713 2670 2916 
Q 2900 3119 2900 3481 
Q 2900 3844 2670 4047 
Q 2441 4250 2034 4250 
Q 1625 4250 1398 4047 
Q 1172 3844 1172 3481 
z
" transform="scale(0.015625)"/>
       </defs>
       <use xlink:href="#DejaVuSans-38"/>
       <use xlink:href="#DejaVuSans-30" transform="translate(63.623047 0)"/>
       <use xlink:href="#DejaVuSans-30" transform="translate(127.246094 0)"/>
      </g>
     </g>
    </g>
    <g id="text_10">
     <!-- Epochs -->
     <g transform="translate(317.590625 604.994688) scale(0.1 -0.1)">
      <defs>
       <path id="DejaVuSans-45" d="M 628 4666 
L 3578 4666 
L 3578 4134 
L 1259 4134 
L 1259 2753 
L 3481 2753 
L 3481 2222 
L 1259 2222 
L 1259 531 
L 3634 531 
L 3634 0 
L 628 0 
L 628 4666 
z
" transform="scale(0.015625)"/>
       <path id="DejaVuSans-70" d="M 1159 525 
L 1159 -1331 
L 581 -1331 
L 581 3500 
L 1159 3500 
L 1159 2969 
Q 1341 3281 1617 3432 
Q 1894 3584 2278 3584 
Q 2916 3584 3314 3078 
Q 3713 2572 3713 1747 
Q 3713 922 3314 415 
Q 2916 -91 2278 -91 
Q 1894 -91 1617 61 
Q 1341 213 1159 525 
z
M 3116 1747 
Q 3116 2381 2855 2742 
Q 2594 3103 2138 3103 
Q 1681 3103 1420 2742 
Q 1159 2381 1159 1747 
Q 1159 1113 1420 752 
Q 1681 391 2138 391 
Q 2594 391 2855 752 
Q 3116 1113 3116 1747 
z
" transform="scale(0.015625)"/>
       <path id="DejaVuSans-6f" d="M 1959 3097 
Q 1497 3097 1228 2736 
Q 959 2375 959 1747 
Q 959 1119 1226 758 
Q 1494 397 1959 397 
Q 2419 397 2687 759 
Q 2956 1122 2956 1747 
Q 2956 2369 2687 2733 
Q 2419 3097 1959 3097 
z
M 1959 3584 
Q 2709 3584 3137 3096 
Q 3566 2609 3566 1747 
Q 3566 888 3137 398 
Q 2709 -91 1959 -91 
Q 1206 -91 779 398 
Q 353 888 353 1747 
Q 353 2609 779 3096 
Q 1206 3584 1959 3584 
z
" transform="scale(0.015625)"/>
       <path id="DejaVuSans-63" d="M 3122 3366 
L 3122 2828 
Q 2878 2963 2633 3030 
Q 2388 3097 2138 3097 
Q 1578 3097 1268 2742 
Q 959 2388 959 1747 
Q 959 1106 1268 751 
Q 1578 397 2138 397 
Q 2388 397 2633 464 
Q 2878 531 3122 666 
L 3122 134 
Q 2881 22 2623 -34 
Q 2366 -91 2075 -91 
Q 1284 -91 818 406 
Q 353 903 353 1747 
Q 353 2603 823 3093 
Q 1294 3584 2113 3584 
Q 2378 3584 2631 3529 
Q 2884 3475 3122 3366 
z
" transform="scale(0.015625)"/>
       <path id="DejaVuSans-68" d="M 3513 2113 
L 3513 0 
L 2938 0 
L 2938 2094 
Q 2938 2591 2744 2837 
Q 2550 3084 2163 3084 
Q 1697 3084 1428 2787 
Q 1159 2491 1159 1978 
L 1159 0 
L 581 0 
L 581 4863 
L 1159 4863 
L 1159 2956 
Q 1366 3272 1645 3428 
Q 1925 3584 2291 3584 
Q 2894 3584 3203 3211 
Q 3513 2838 3513 2113 
z
" transform="scale(0.015625)"/>
       <path id="DejaVuSans-73" d="M 2834 3397 
L 2834 2853 
Q 2591 2978 2328 3040 
Q 2066 3103 1784 3103 
Q 1356 3103 1142 2972 
Q 928 2841 928 2578 
Q 928 2378 1081 2264 
Q 1234 2150 1697 2047 
L 1894 2003 
Q 2506 1872 2764 1633 
Q 3022 1394 3022 966 
Q 3022 478 2636 193 
Q 2250 -91 1575 -91 
Q 1294 -91 989 -36 
Q 684 19 347 128 
L 347 722 
Q 666 556 975 473 
Q 1284 391 1588 391 
Q 1994 391 2212 530 
Q 2431 669 2431 922 
Q 2431 1156 2273 1281 
Q 2116 1406 1581 1522 
L 1381 1569 
Q 847 1681 609 1914 
Q 372 2147 372 2553 
Q 372 3047 722 3315 
Q 1072 3584 1716 3584 
Q 2034 3584 2315 3537 
Q 2597 3491 2834 3397 
z
" transform="scale(0.015625)"/>
      </defs>
      <use xlink:href="#DejaVuSans-45"/>
      <use xlink:href="#DejaVuSans-70" transform="translate(63.183594 0)"/>
      <use xlink:href="#DejaVuSans-6f" transform="translate(126.660156 0)"/>
      <use xlink:href="#DejaVuSans-63" transform="translate(187.841797 0)"/>
      <use xlink:href="#DejaVuSans-68" transform="translate(242.822266 0)"/>
      <use xlink:href="#DejaVuSans-73" transform="translate(306.201172 0)"/>
     </g>
    </g>
   </g>
   <g id="matplotlib.axis_2">
    <g id="ytick_1">
     <g id="line2d_19">
      <path d="M 56.50625 539.080877 
L 614.50625 539.080877 
" clip-path="url(#pae39107f75)" style="fill: none; stroke: #b0b0b0; stroke-width: 0.8; stroke-linecap: square"/>
     </g>
     <g id="line2d_20">
      <defs>
       <path id="me5bd5f99cd" d="M 0 0 
L -3.5 0 
" style="stroke: #000000; stroke-width: 0.8"/>
      </defs>
      <g>
       <use xlink:href="#me5bd5f99cd" x="56.50625" y="539.080877" style="stroke: #000000; stroke-width: 0.8"/>
      </g>
     </g>
     <g id="text_11">
      <!-- 1.764 -->
      <g transform="translate(20.878125 542.880096) scale(0.1 -0.1)">
       <defs>
        <path id="DejaVuSans-2e" d="M 684 794 
L 1344 794 
L 1344 0 
L 684 0 
L 684 794 
z
" transform="scale(0.015625)"/>
       </defs>
       <use xlink:href="#DejaVuSans-31"/>
       <use xlink:href="#DejaVuSans-2e" transform="translate(63.623047 0)"/>
       <use xlink:href="#DejaVuSans-37" transform="translate(95.410156 0)"/>
       <use xlink:href="#DejaVuSans-36" transform="translate(159.033203 0)"/>
       <use xlink:href="#DejaVuSans-34" transform="translate(222.65625 0)"/>
      </g>
     </g>
    </g>
    <g id="ytick_2">
     <g id="line2d_21">
      <path d="M 56.50625 475.37713 
L 614.50625 475.37713 
" clip-path="url(#pae39107f75)" style="fill: none; stroke: #b0b0b0; stroke-width: 0.8; stroke-linecap: square"/>
     </g>
     <g id="line2d_22">
      <g>
       <use xlink:href="#me5bd5f99cd" x="56.50625" y="475.37713" style="stroke: #000000; stroke-width: 0.8"/>
      </g>
     </g>
     <g id="text_12">
      <!-- 1.766 -->
      <g transform="translate(20.878125 479.176349) scale(0.1 -0.1)">
       <use xlink:href="#DejaVuSans-31"/>
       <use xlink:href="#DejaVuSans-2e" transform="translate(63.623047 0)"/>
       <use xlink:href="#DejaVuSans-37" transform="translate(95.410156 0)"/>
       <use xlink:href="#DejaVuSans-36" transform="translate(159.033203 0)"/>
       <use xlink:href="#DejaVuSans-36" transform="translate(222.65625 0)"/>
      </g>
     </g>
    </g>
    <g id="ytick_3">
     <g id="line2d_23">
      <path d="M 56.50625 411.673383 
L 614.50625 411.673383 
" clip-path="url(#pae39107f75)" style="fill: none; stroke: #b0b0b0; stroke-width: 0.8; stroke-linecap: square"/>
     </g>
     <g id="line2d_24">
      <g>
       <use xlink:href="#me5bd5f99cd" x="56.50625" y="411.673383" style="stroke: #000000; stroke-width: 0.8"/>
      </g>
     </g>
     <g id="text_13">
      <!-- 1.768 -->
      <g transform="translate(20.878125 415.472602) scale(0.1 -0.1)">
       <use xlink:href="#DejaVuSans-31"/>
       <use xlink:href="#DejaVuSans-2e" transform="translate(63.623047 0)"/>
       <use xlink:href="#DejaVuSans-37" transform="translate(95.410156 0)"/>
       <use xlink:href="#DejaVuSans-36" transform="translate(159.033203 0)"/>
       <use xlink:href="#DejaVuSans-38" transform="translate(222.65625 0)"/>
      </g>
     </g>
    </g>
    <g id="ytick_4">
     <g id="line2d_25">
      <path d="M 56.50625 347.969636 
L 614.50625 347.969636 
" clip-path="url(#pae39107f75)" style="fill: none; stroke: #b0b0b0; stroke-width: 0.8; stroke-linecap: square"/>
     </g>
     <g id="line2d_26">
      <g>
       <use xlink:href="#me5bd5f99cd" x="56.50625" y="347.969636" style="stroke: #000000; stroke-width: 0.8"/>
      </g>
     </g>
     <g id="text_14">
      <!-- 1.770 -->
      <g transform="translate(20.878125 351.768855) scale(0.1 -0.1)">
       <use xlink:href="#DejaVuSans-31"/>
       <use xlink:href="#DejaVuSans-2e" transform="translate(63.623047 0)"/>
       <use xlink:href="#DejaVuSans-37" transform="translate(95.410156 0)"/>
       <use xlink:href="#DejaVuSans-37" transform="translate(159.033203 0)"/>
       <use xlink:href="#DejaVuSans-30" transform="translate(222.65625 0)"/>
      </g>
     </g>
    </g>
    <g id="ytick_5">
     <g id="line2d_27">
      <path d="M 56.50625 284.265889 
L 614.50625 284.265889 
" clip-path="url(#pae39107f75)" style="fill: none; stroke: #b0b0b0; stroke-width: 0.8; stroke-linecap: square"/>
     </g>
     <g id="line2d_28">
      <g>
       <use xlink:href="#me5bd5f99cd" x="56.50625" y="284.265889" style="stroke: #000000; stroke-width: 0.8"/>
      </g>
     </g>
     <g id="text_15">
      <!-- 1.772 -->
      <g transform="translate(20.878125 288.065108) scale(0.1 -0.1)">
       <use xlink:href="#DejaVuSans-31"/>
       <use xlink:href="#DejaVuSans-2e" transform="translate(63.623047 0)"/>
       <use xlink:href="#DejaVuSans-37" transform="translate(95.410156 0)"/>
       <use xlink:href="#DejaVuSans-37" transform="translate(159.033203 0)"/>
       <use xlink:href="#DejaVuSans-32" transform="translate(222.65625 0)"/>
      </g>
     </g>
    </g>
    <g id="ytick_6">
     <g id="line2d_29">
      <path d="M 56.50625 220.562142 
L 614.50625 220.562142 
" clip-path="url(#pae39107f75)" style="fill: none; stroke: #b0b0b0; stroke-width: 0.8; stroke-linecap: square"/>
     </g>
     <g id="line2d_30">
      <g>
       <use xlink:href="#me5bd5f99cd" x="56.50625" y="220.562142" style="stroke: #000000; stroke-width: 0.8"/>
      </g>
     </g>
     <g id="text_16">
      <!-- 1.774 -->
      <g transform="translate(20.878125 224.361361) scale(0.1 -0.1)">
       <use xlink:href="#DejaVuSans-31"/>
       <use xlink:href="#DejaVuSans-2e" transform="translate(63.623047 0)"/>
       <use xlink:href="#DejaVuSans-37" transform="translate(95.410156 0)"/>
       <use xlink:href="#DejaVuSans-37" transform="translate(159.033203 0)"/>
       <use xlink:href="#DejaVuSans-34" transform="translate(222.65625 0)"/>
      </g>
     </g>
    </g>
    <g id="ytick_7">
     <g id="line2d_31">
      <path d="M 56.50625 156.858395 
L 614.50625 156.858395 
" clip-path="url(#pae39107f75)" style="fill: none; stroke: #b0b0b0; stroke-width: 0.8; stroke-linecap: square"/>
     </g>
     <g id="line2d_32">
      <g>
       <use xlink:href="#me5bd5f99cd" x="56.50625" y="156.858395" style="stroke: #000000; stroke-width: 0.8"/>
      </g>
     </g>
     <g id="text_17">
      <!-- 1.776 -->
      <g transform="translate(20.878125 160.657614) scale(0.1 -0.1)">
       <use xlink:href="#DejaVuSans-31"/>
       <use xlink:href="#DejaVuSans-2e" transform="translate(63.623047 0)"/>
       <use xlink:href="#DejaVuSans-37" transform="translate(95.410156 0)"/>
       <use xlink:href="#DejaVuSans-37" transform="translate(159.033203 0)"/>
       <use xlink:href="#DejaVuSans-36" transform="translate(222.65625 0)"/>
      </g>
     </g>
    </g>
    <g id="ytick_8">
     <g id="line2d_33">
      <path d="M 56.50625 93.154648 
L 614.50625 93.154648 
" clip-path="url(#pae39107f75)" style="fill: none; stroke: #b0b0b0; stroke-width: 0.8; stroke-linecap: square"/>
     </g>
     <g id="line2d_34">
      <g>
       <use xlink:href="#me5bd5f99cd" x="56.50625" y="93.154648" style="stroke: #000000; stroke-width: 0.8"/>
      </g>
     </g>
     <g id="text_18">
      <!-- 1.778 -->
      <g transform="translate(20.878125 96.953867) scale(0.1 -0.1)">
       <use xlink:href="#DejaVuSans-31"/>
       <use xlink:href="#DejaVuSans-2e" transform="translate(63.623047 0)"/>
       <use xlink:href="#DejaVuSans-37" transform="translate(95.410156 0)"/>
       <use xlink:href="#DejaVuSans-37" transform="translate(159.033203 0)"/>
       <use xlink:href="#DejaVuSans-38" transform="translate(222.65625 0)"/>
      </g>
     </g>
    </g>
    <g id="ytick_9">
     <g id="line2d_35">
      <path d="M 56.50625 29.450901 
L 614.50625 29.450901 
" clip-path="url(#pae39107f75)" style="fill: none; stroke: #b0b0b0; stroke-width: 0.8; stroke-linecap: square"/>
     </g>
     <g id="line2d_36">
      <g>
       <use xlink:href="#me5bd5f99cd" x="56.50625" y="29.450901" style="stroke: #000000; stroke-width: 0.8"/>
      </g>
     </g>
     <g id="text_19">
      <!-- 1.780 -->
      <g transform="translate(20.878125 33.25012) scale(0.1 -0.1)">
       <use xlink:href="#DejaVuSans-31"/>
       <use xlink:href="#DejaVuSans-2e" transform="translate(63.623047 0)"/>
       <use xlink:href="#DejaVuSans-37" transform="translate(95.410156 0)"/>
       <use xlink:href="#DejaVuSans-38" transform="translate(159.033203 0)"/>
       <use xlink:href="#DejaVuSans-30" transform="translate(222.65625 0)"/>
      </g>
     </g>
    </g>
    <g id="text_20">
     <!-- Loss -->
     <g transform="translate(14.798437 310.485313) rotate(-90) scale(0.1 -0.1)">
      <defs>
       <path id="DejaVuSans-4c" d="M 628 4666 
L 1259 4666 
L 1259 531 
L 3531 531 
L 3531 0 
L 628 0 
L 628 4666 
z
" transform="scale(0.015625)"/>
      </defs>
      <use xlink:href="#DejaVuSans-4c"/>
      <use xlink:href="#DejaVuSans-6f" transform="translate(53.962891 0)"/>
      <use xlink:href="#DejaVuSans-73" transform="translate(115.144531 0)"/>
      <use xlink:href="#DejaVuSans-73" transform="translate(167.244141 0)"/>
     </g>
    </g>
   </g>
   <g id="line2d_37">
    <path d="M 81.869886 47.518125 
L 82.504771 499.961927 
L 83.139655 494.213209 
L 83.77454 511.930194 
L 84.409424 510.008892 
L 85.044309 520.800078 
L 85.679193 523.682031 
L 86.314078 523.750377 
L 86.948962 528.500473 
L 87.583847 524.699637 
L 88.218732 531.758333 
L 88.853616 531.158401 
L 90.123385 533.474595 
L 90.75827 534.00618 
L 91.393154 535.426273 
L 92.028039 537.514644 
L 92.662923 538.2133 
L 93.297808 540.650999 
L 93.932692 542.02173 
L 94.567577 544.554355 
L 95.202461 547.888156 
L 95.837346 549.129787 
L 96.47223 543.460808 
L 97.107115 547.97169 
L 97.741999 546.365543 
L 98.376884 548.370379 
L 99.011768 544.391082 
L 99.646653 547.519843 
L 100.281537 546.722464 
L 100.916422 544.531573 
L 101.551306 546.794608 
L 102.186191 546.900925 
L 102.821075 544.622702 
L 103.45596 548.636172 
L 104.090844 548.620984 
L 104.725729 544.766989 
L 105.360613 543.282347 
L 105.995498 549.312045 
L 106.630382 549.084223 
L 107.265267 545.602338 
L 107.900151 548.032443 
L 108.535036 543.570922 
L 109.16992 547.056604 
L 109.804805 547.257847 
L 110.43969 547.022431 
L 111.074574 545.644105 
L 111.709459 550.052468 
L 112.344343 546.506033 
L 112.979228 545.549179 
L 113.614112 548.245077 
L 114.248997 544.334127 
L 114.883881 544.478414 
L 115.518766 546.893331 
L 116.15365 546.213661 
L 116.788535 547.679318 
L 117.423419 546.821187 
L 118.058304 543.217797 
L 118.693188 547.204688 
L 119.328073 546.794608 
L 119.962957 547.193297 
L 120.597842 544.20123 
L 121.232726 546.578177 
L 121.867611 547.29202 
L 122.502495 545.955463 
L 123.772264 547.413526 
L 124.407149 546.187082 
L 125.042033 549.425956 
L 125.676918 546.635133 
L 126.311802 546.851564 
L 127.581571 546.506033 
L 128.216456 548.61339 
L 128.85134 548.814633 
L 129.486225 549.604417 
L 130.121109 545.883319 
L 131.390879 548.476697 
L 132.660648 545.617526 
L 133.295532 546.995851 
L 133.930417 546.600959 
L 134.565301 545.602338 
L 135.200186 546.900925 
L 135.83507 545.621323 
L 136.469955 545.070752 
L 137.104839 546.893331 
L 137.739724 546.092156 
L 138.374608 549.25509 
L 139.009493 544.284765 
L 139.644377 546.160503 
L 140.914146 548.438726 
L 141.549031 547.181906 
L 142.183915 551.518125 
L 142.8188 547.641348 
L 143.453684 545.970651 
L 144.088569 547.759056 
L 144.723453 548.005864 
L 145.358338 548.043834 
L 145.993222 548.537449 
L 146.628107 544.888495 
L 147.262991 546.938896 
L 147.897876 545.275793 
L 149.167645 548.089399 
L 149.802529 548.172933 
L 150.437414 547.436308 
L 151.072298 547.109762 
L 151.707183 545.032782 
L 152.342067 549.714531 
L 152.976952 550.341043 
L 153.611837 549.027267 
L 154.246721 545.655496 
L 154.881606 546.866752 
L 156.151375 547.238862 
L 156.786259 546.999648 
L 157.421144 546.395919 
L 158.056028 547.899547 
L 158.690913 547.390743 
L 159.325797 543.981002 
L 159.960682 549.604417 
L 160.595566 546.027606 
L 161.230451 549.813254 
L 161.865335 544.083522 
L 163.135104 545.678279 
L 163.769989 545.093535 
L 164.404873 544.808757 
L 165.039758 544.288562 
L 165.674642 547.554016 
L 166.944411 545.108723 
L 167.579296 546.111141 
L 168.21418 547.827403 
L 168.849065 544.770786 
L 169.483949 544.091116 
L 170.118834 544.90748 
L 170.753718 547.105965 
L 171.388603 546.187082 
L 172.023487 545.712452 
L 172.658372 547.62616 
L 173.293256 546.274414 
L 173.928141 548.13876 
L 174.563026 544.277171 
L 175.19791 544.979623 
L 175.832795 548.78046 
L 176.467679 542.348275 
L 177.102564 547.064198 
L 177.737448 545.530194 
L 178.372333 544.67586 
L 179.007217 546.866752 
L 179.642102 547.519843 
L 180.276986 548.81843 
L 180.911871 543.935438 
L 181.546755 546.790811 
L 182.18164 547.314803 
L 182.816524 548.662752 
L 183.451409 547.76665 
L 184.086293 549.885398 
L 184.721178 544.84293 
L 185.356062 548.670346 
L 185.990947 544.645484 
L 186.625831 547.645145 
L 187.8956 545.826363 
L 188.530485 544.20123 
L 189.165369 547.227471 
L 189.800254 548.13876 
L 190.435138 545.571962 
L 191.070023 547.694507 
L 191.704907 545.89471 
L 192.339792 545.04797 
L 193.609561 550.063859 
L 194.244445 547.861576 
L 194.87933 544.953044 
L 195.514215 545.682076 
L 196.149099 545.363124 
L 196.783984 545.378313 
L 197.418868 544.960638 
L 198.053753 549.239901 
L 198.688637 546.403513 
L 199.323522 545.670685 
L 199.958406 544.273374 
L 200.593291 547.918532 
L 201.228175 545.814972 
L 201.86306 546.768029 
L 202.497944 545.184664 
L 203.132829 546.331369 
L 203.767713 546.395919 
L 204.402598 545.04797 
L 205.037482 545.985839 
L 205.672367 550.671385 
L 206.307251 546.225052 
L 206.942136 549.70314 
L 207.57702 545.811175 
L 208.211905 549.205728 
L 208.846789 546.346558 
L 209.481674 551.183986 
L 210.116558 548.396959 
L 210.751443 546.190879 
L 211.386327 545.860537 
L 212.021212 547.329991 
L 212.656096 545.025188 
L 213.290981 547.386946 
L 213.925865 546.938896 
L 214.56075 546.768029 
L 215.830519 546.680697 
L 216.465403 548.503276 
L 217.100288 546.038997 
L 217.735173 546.528815 
L 218.370057 547.675521 
L 219.004942 547.219877 
L 219.639826 547.607175 
L 220.274711 545.256807 
L 220.909595 545.594744 
L 221.54448 545.287184 
L 222.179364 547.72868 
L 223.449133 544.167057 
L 224.084018 546.354152 
L 224.718902 544.239201 
L 225.353787 545.473239 
L 225.988671 546.999648 
L 226.623556 545.99723 
L 227.25844 548.845009 
L 227.893325 549.350016 
L 228.528209 544.288562 
L 229.163094 545.849145 
L 229.797978 544.77838 
L 230.432863 545.970651 
L 231.067747 543.088698 
L 231.702632 546.923708 
L 232.337516 548.332409 
L 232.972401 548.172933 
L 233.607285 544.683454 
L 234.24217 546.042794 
L 234.877054 545.108723 
L 235.511939 545.822566 
L 236.146823 544.63789 
L 236.781708 548.746286 
L 237.416592 545.814972 
L 238.051477 550.367622 
L 238.686362 549.034861 
L 239.321246 544.808757 
L 239.956131 545.784596 
L 240.591015 546.319978 
L 241.2259 547.690709 
L 241.860784 545.571962 
L 242.495669 548.271656 
L 243.130553 544.770786 
L 243.765438 547.569204 
L 244.400322 547.990676 
L 245.035207 545.169475 
L 245.670091 545.294778 
L 246.304976 542.86847 
L 246.93986 546.130126 
L 247.574745 546.555395 
L 248.209629 547.276832 
L 248.844514 544.736613 
L 249.479398 546.673103 
L 250.114283 546.961678 
L 251.384052 543.373476 
L 252.018936 546.020012 
L 252.653821 545.488427 
L 253.288705 547.371758 
L 253.92359 543.639269 
L 254.558474 544.694846 
L 255.193359 548.670346 
L 255.828243 548.457711 
L 256.463128 549.008282 
L 257.098012 544.311345 
L 257.732897 545.602338 
L 258.367781 546.479454 
L 259.002666 548.389365 
L 259.63755 547.21608 
L 260.272435 541.81669 
L 260.90732 546.323775 
L 261.542204 546.088359 
L 262.177089 546.627538 
L 262.811973 546.555395 
L 263.446858 545.234025 
L 264.081742 548.51087 
L 264.716627 545.875725 
L 265.351511 546.589568 
L 266.62128 546.938896 
L 267.256165 548.161542 
L 267.891049 546.562989 
L 268.525934 544.178448 
L 269.160818 543.58611 
L 269.795703 548.112181 
L 270.430587 546.961678 
L 271.065472 546.152909 
L 271.700356 548.723504 
L 272.335241 550.546083 
L 272.970125 547.910938 
L 273.60501 545.788393 
L 274.239894 545.313763 
L 274.874779 548.772866 
L 275.509663 545.21504 
L 276.144548 548.30583 
L 276.779432 546.221255 
L 277.414317 544.759395 
L 278.049201 548.51087 
L 278.684086 547.071792 
L 279.31897 545.944071 
L 279.953855 546.1643 
L 280.588739 544.003784 
L 281.223624 547.542625 
L 281.858509 545.093535 
L 282.493393 545.606135 
L 283.128278 548.898168 
L 283.763162 545.811175 
L 284.398047 546.821187 
L 285.032931 548.081805 
L 285.667816 546.938896 
L 286.3027 545.31756 
L 286.937585 546.346558 
L 287.572469 546.270617 
L 288.207354 548.696925 
L 289.477123 543.737992 
L 290.112007 542.978584 
L 290.746892 548.165339 
L 291.381776 551.26752 
L 292.016661 545.693467 
L 292.651545 546.054186 
L 293.28643 548.040037 
L 293.921314 548.966515 
L 294.556199 545.131505 
L 295.191083 548.013458 
L 295.825968 547.155327 
L 296.460852 547.075589 
L 297.095737 545.256807 
L 297.730621 549.365204 
L 298.365506 548.104587 
L 299.00039 544.391082 
L 299.635275 544.140478 
L 300.270159 544.953044 
L 300.905044 545.583353 
L 301.539928 547.569204 
L 302.174813 547.880561 
L 302.809697 546.433889 
L 303.444582 547.812215 
L 304.079467 547.675521 
L 304.714351 546.057983 
L 305.349236 544.839133 
L 305.98412 546.171894 
L 306.619005 543.255768 
L 307.253889 545.469442 
L 307.888774 545.158084 
L 308.523658 546.904722 
L 309.158543 546.057983 
L 309.793427 544.865712 
L 310.428312 547.554016 
L 311.063196 547.242659 
L 311.698081 546.525018 
L 312.332965 544.972029 
L 312.96785 546.954084 
L 313.602734 545.909898 
L 314.872503 549.577838 
L 315.507388 546.597162 
L 316.142272 548.355191 
L 316.777157 543.99619 
L 317.412041 546.828782 
L 318.046926 546.187082 
L 318.68181 546.623741 
L 319.316695 547.360367 
L 319.951579 547.170515 
L 320.586464 547.288223 
L 321.221348 550.633415 
L 321.856233 545.207446 
L 322.491117 547.686912 
L 323.126002 545.883319 
L 323.760886 547.117357 
L 324.395771 545.511209 
L 325.030656 547.451496 
L 325.66554 545.207446 
L 326.300425 545.864334 
L 326.935309 545.936477 
L 328.205078 545.716249 
L 328.839963 547.607175 
L 329.474847 545.590947 
L 330.109732 543.95822 
L 330.744616 547.033822 
L 331.379501 547.022431 
L 332.014385 548.57542 
L 332.64927 548.332409 
L 333.284154 543.775962 
L 333.919039 546.190879 
L 334.553923 545.966854 
L 335.188808 547.390743 
L 335.823692 548.286845 
L 336.458577 545.131505 
L 337.093461 550.052468 
L 337.728346 544.3683 
L 338.36323 543.415243 
L 338.998115 545.640308 
L 339.632999 546.809796 
L 340.267884 550.211944 
L 340.902768 546.270617 
L 341.537653 547.337585 
L 342.172537 546.528815 
L 342.807422 544.592325 
L 343.442306 544.603717 
L 344.077191 545.966854 
L 344.712075 545.328951 
L 345.34696 549.027267 
L 345.981844 545.302372 
L 347.251614 548.9855 
L 347.886498 545.750422 
L 348.521383 548.620984 
L 349.156267 547.994473 
L 349.791152 548.674143 
L 350.426036 543.627878 
L 351.060921 546.733856 
L 351.695805 543.730398 
L 352.33069 546.673103 
L 352.965574 546.130126 
L 353.600459 549.558853 
L 354.235343 545.059361 
L 354.870228 544.90748 
L 355.505112 546.384528 
L 356.139997 545.245416 
L 356.774881 545.397298 
L 357.409766 547.485669 
L 358.04465 544.622702 
L 358.679535 545.268198 
L 359.314419 547.573001 
L 359.949304 544.43285 
L 360.584188 547.227471 
L 361.219073 544.493602 
L 361.853957 545.207446 
L 362.488842 545.446659 
L 363.123726 549.410768 
L 363.758611 548.248874 
L 364.393495 548.419741 
L 365.02838 543.707615 
L 365.663264 546.502236 
L 366.298149 546.357949 
L 366.933033 547.341382 
L 367.567918 546.456672 
L 368.202803 546.080765 
L 368.837687 547.314803 
L 369.472572 543.874685 
L 370.107456 546.09975 
L 370.742341 548.807039 
L 371.377225 547.197094 
L 372.01211 547.121154 
L 372.646994 545.860537 
L 373.281879 548.123572 
L 373.916763 546.81739 
L 374.551648 544.90748 
L 375.186532 548.184325 
L 375.821417 548.245077 
L 376.456301 548.61339 
L 377.091186 547.056604 
L 377.72607 546.870549 
L 378.360955 545.723843 
L 378.995839 549.543665 
L 379.630724 543.44562 
L 380.265608 544.975826 
L 380.900493 546.893331 
L 381.535377 545.955463 
L 382.170262 545.628917 
L 382.805146 549.467724 
L 383.440031 548.20331 
L 384.074915 547.573001 
L 384.7098 546.646524 
L 385.344684 546.828782 
L 385.979569 548.564028 
L 386.614453 548.488088 
L 387.249338 545.158084 
L 387.884222 547.702101 
L 388.519107 546.323775 
L 389.153991 546.802202 
L 389.788876 549.991715 
L 390.423761 547.580595 
L 391.058645 543.665848 
L 391.69353 546.63893 
L 392.328414 546.756638 
L 392.963299 546.323775 
L 393.598183 543.669645 
L 394.233068 544.592325 
L 394.867952 546.36934 
L 395.502837 544.827742 
L 396.137721 546.684494 
L 396.772606 547.022431 
L 397.40749 545.363124 
L 398.042375 545.99723 
L 398.677259 545.765611 
L 399.312144 547.379352 
L 399.947028 548.115978 
L 400.581913 547.269238 
L 401.216797 546.771826 
L 401.851682 547.97169 
L 402.486566 543.453214 
L 403.756335 547.629957 
L 404.39122 545.366921 
L 405.026104 545.218837 
L 406.295873 546.547801 
L 406.930758 548.10079 
L 407.565642 547.014836 
L 408.200527 545.135302 
L 408.835411 546.160503 
L 409.470296 545.499818 
L 410.10518 546.293399 
L 410.740065 543.75318 
L 411.37495 549.509491 
L 412.009834 547.759056 
L 412.644719 546.976866 
L 413.279603 546.722464 
L 413.914488 546.802202 
L 414.549372 547.250253 
L 415.184257 546.935099 
L 415.819141 545.461847 
L 416.454026 547.872967 
L 417.08891 544.068334 
L 418.358679 546.141517 
L 418.993564 545.606135 
L 419.628448 549.775284 
L 420.263333 547.143936 
L 420.898217 546.623741 
L 421.533102 547.29202 
L 422.167986 545.290981 
L 422.802871 545.761814 
L 423.437755 544.615108 
L 424.07264 548.791851 
L 425.342409 545.473239 
L 425.977293 547.979284 
L 426.612178 547.713492 
L 427.247062 547.265441 
L 427.881947 545.287184 
L 428.516831 548.264062 
L 429.151716 547.337585 
L 429.7866 545.093535 
L 430.421485 546.597162 
L 431.056369 545.336545 
L 431.691254 547.960299 
L 432.326138 546.771826 
L 432.961023 547.990676 
L 433.595908 547.231268 
L 434.230792 550.025889 
L 434.865677 546.293399 
L 435.500561 546.760435 
L 436.135446 544.888495 
L 436.77033 547.888156 
L 437.405215 547.66413 
L 438.040099 545.811175 
L 438.674984 547.702101 
L 439.944753 545.887116 
L 440.579637 547.386946 
L 441.214522 549.862616 
L 441.849406 545.682076 
L 442.484291 550.804282 
L 443.119175 545.518803 
L 443.75406 545.606135 
L 444.388944 547.62616 
L 445.023829 544.831539 
L 445.658713 548.112181 
L 446.928482 548.005864 
L 447.563367 542.621662 
L 448.198251 545.925086 
L 448.833136 546.342761 
L 449.46802 543.016554 
L 450.102905 544.793569 
L 450.737789 546.950287 
L 451.372674 548.377974 
L 452.642443 545.401095 
L 453.277327 547.227471 
L 453.912212 547.52364 
L 454.547097 545.082144 
L 455.181981 545.059361 
L 455.816866 546.502236 
L 456.45175 547.603378 
L 457.086635 544.793569 
L 457.721519 547.705898 
L 458.356404 547.679318 
L 459.626173 545.45805 
L 460.261057 547.413526 
L 460.895942 547.485669 
L 461.530826 544.246795 
L 462.165711 547.132545 
L 462.800595 546.213661 
L 463.43548 545.742828 
L 464.070364 542.7014 
L 464.705249 547.774244 
L 465.340133 547.789432 
L 465.975018 548.852603 
L 466.609902 548.852603 
L 467.879671 543.962017 
L 468.514556 548.112181 
L 469.14944 547.166718 
L 469.784325 547.424917 
L 470.419209 545.427674 
L 471.054094 550.246117 
L 471.688978 544.542964 
L 472.323863 544.299953 
L 472.958747 544.903683 
L 473.593632 546.589568 
L 474.228516 545.241619 
L 474.863401 545.814972 
L 475.498285 549.475318 
L 476.13317 545.48463 
L 476.768055 545.192258 
L 477.402939 547.227471 
L 478.037824 544.167057 
L 478.672708 541.995151 
L 479.307593 547.603378 
L 479.942477 546.323775 
L 480.577362 547.386946 
L 481.212246 545.530194 
L 481.847131 546.319978 
L 482.482015 547.774244 
L 483.1169 547.531234 
L 483.751784 545.594744 
L 484.386669 547.402134 
L 485.021553 547.276832 
L 486.926207 544.391082 
L 487.561091 547.542625 
L 488.195976 546.63893 
L 488.83086 546.088359 
L 489.465745 545.906101 
L 490.100629 550.413187 
L 490.735514 546.395919 
L 491.370398 548.028646 
L 492.005283 548.624781 
L 492.640167 547.178109 
L 493.275052 542.879861 
L 493.909936 547.554016 
L 494.544821 545.784596 
L 495.179705 548.438726 
L 495.81459 546.711073 
L 496.449474 546.426295 
L 497.084359 544.660672 
L 497.719244 544.47082 
L 498.354128 547.064198 
L 499.623897 546.088359 
L 500.258782 550.747326 
L 500.893666 546.282008 
L 501.528551 548.742489 
L 502.163435 545.325154 
L 502.79832 546.380731 
L 503.433204 546.988257 
L 504.068089 544.410068 
L 504.702973 547.440105 
L 505.337858 544.129087 
L 505.972742 545.256807 
L 506.607627 549.334827 
L 507.242511 548.017255 
L 507.877396 548.670346 
L 509.147165 545.860537 
L 509.782049 550.800485 
L 510.416934 548.062819 
L 511.051818 546.027606 
L 511.686703 548.17673 
L 512.321587 546.506033 
L 512.956472 546.688291 
L 513.591356 550.538489 
L 514.226241 551.157406 
L 514.861125 547.641348 
L 515.49601 546.494642 
L 516.130894 548.54884 
L 516.765779 544.106304 
L 517.400663 544.140478 
L 518.035548 546.445281 
L 518.670433 548.051428 
L 519.305317 546.900925 
L 519.940202 547.329991 
L 520.575086 547.967893 
L 521.209971 545.583353 
L 521.844855 544.216419 
L 522.47974 544.030364 
L 523.114624 544.178448 
L 523.749509 547.747665 
L 524.384393 542.538127 
L 525.019278 544.113899 
L 525.654162 546.346558 
L 526.289047 545.496021 
L 526.923931 544.296156 
L 527.558816 544.941653 
L 528.828585 547.656536 
L 529.463469 546.441484 
L 530.098354 543.532952 
L 530.733238 546.88194 
L 531.368123 546.684494 
L 532.003007 545.966854 
L 532.637892 544.296156 
L 533.272776 547.705898 
L 533.907661 548.662752 
L 534.542545 546.054186 
L 535.17743 546.63893 
L 535.812314 549.099411 
L 536.447199 541.900225 
L 537.082083 546.619944 
L 537.716968 545.993433 
L 538.351852 545.678279 
L 538.986737 544.645484 
L 539.621621 549.171555 
L 540.256506 548.17673 
L 540.891391 547.504655 
L 541.526275 545.002406 
L 542.16116 547.371758 
L 542.796044 542.853282 
L 543.430929 546.36934 
L 544.065813 545.146693 
L 544.700698 548.670346 
L 545.335582 546.878143 
L 545.970467 546.335166 
L 546.605351 545.533991 
L 547.240236 547.702101 
L 547.87512 545.678279 
L 549.144889 548.901965 
L 549.779774 542.864673 
L 550.414658 548.10079 
L 551.049543 548.275454 
L 551.684427 545.347936 
L 552.319312 543.449417 
L 552.954196 543.498778 
L 553.589081 549.593026 
L 554.223965 546.923708 
L 554.85885 548.317221 
L 555.493734 544.694846 
L 556.128619 548.966515 
L 556.763503 546.270617 
L 557.398388 546.456672 
L 558.033272 546.870549 
L 558.668157 546.855361 
L 559.303041 547.948908 
L 559.937926 546.63893 
L 560.57281 546.365543 
L 561.207695 548.347597 
L 561.84258 548.807039 
L 562.477464 545.397298 
L 563.112349 543.134262 
L 563.747233 546.74145 
L 564.382118 544.356909 
L 565.017002 545.351733 
L 565.651887 545.944071 
L 566.286771 547.595783 
L 566.921656 548.40835 
L 567.55654 544.846727 
L 568.191425 545.917492 
L 568.826309 550.454954 
L 569.461194 544.360706 
L 570.096078 545.849145 
L 570.730963 547.846388 
L 571.365847 547.288223 
L 572.000732 546.395919 
L 572.635616 546.088359 
L 573.270501 548.112181 
L 573.905385 546.312384 
L 574.54027 543.24058 
L 575.175154 547.208485 
L 575.810039 545.799784 
L 576.444923 546.988257 
L 577.079808 545.518803 
L 577.714692 545.860537 
L 578.349577 548.620984 
L 578.984461 546.232646 
L 579.619346 549.980324 
L 580.25423 548.708316 
L 580.889115 548.3438 
L 582.158884 546.452875 
L 582.793768 546.418701 
L 583.428653 548.571623 
L 584.063538 546.038997 
L 584.698422 542.940613 
L 585.333307 545.499818 
L 585.968191 543.848106 
L 586.603076 544.47082 
L 587.23796 545.803581 
L 587.872845 548.696925 
L 588.507729 545.499818 
L 589.142614 547.705898 
L 589.142614 547.705898 
" clip-path="url(#pae39107f75)" style="fill: none; stroke: #1f77b4; stroke-width: 1.5; stroke-linecap: square"/>
   </g>
   <g id="line2d_38">
    <path d="M 81.869886 429.720498 
L 82.504771 465.796168 
L 83.139655 483.179013 
L 83.77454 318.881126 
L 84.409424 446.31356 
L 85.044309 417.440873 
L 85.679193 457.864153 
L 86.314078 428.558604 
L 86.948962 462.519323 
L 87.583847 463.225572 
L 88.218732 474.119278 
L 88.853616 461.019492 
L 89.488501 451.196552 
L 90.123385 480.29706 
L 90.75827 481.603242 
L 91.393154 470.572843 
L 92.028039 494.414452 
L 92.662923 458.202089 
L 93.297808 477.145518 
L 93.932692 489.895976 
L 94.567577 495.868718 
L 95.202461 447.650117 
L 96.47223 500.322645 
L 97.107115 488.920137 
L 97.741999 462.940794 
L 98.376884 475.508994 
L 99.011768 472.604259 
L 99.646653 448.914531 
L 100.281537 461.129607 
L 100.916422 463.502756 
L 101.551306 489.406158 
L 102.186191 489.804847 
L 102.821075 481.341246 
L 103.45596 493.40444 
L 104.090844 437.933494 
L 104.725729 503.519752 
L 105.360613 491.923595 
L 105.995498 483.589093 
L 106.630382 452.009118 
L 107.265267 468.446501 
L 107.900151 442.82408 
L 108.535036 473.25735 
L 109.16992 473.933223 
L 109.804805 492.35266 
L 110.43969 474.897671 
L 111.074574 470.933562 
L 111.709459 473.306711 
L 112.979228 481.436172 
L 113.614112 495.944659 
L 114.248997 485.28637 
L 114.883881 481.572866 
L 115.518766 486.622928 
L 116.15365 484.496586 
L 116.788535 368.424894 
L 117.423419 485.316746 
L 118.058304 484.473804 
L 118.693188 472.296699 
L 119.328073 500.827652 
L 119.962957 470.212124 
L 120.597842 482.77273 
L 121.232726 463.381251 
L 121.867611 480.946354 
L 122.502495 445.690845 
L 123.13738 498.917741 
L 123.772264 453.888653 
L 124.407149 464.379872 
L 125.042033 485.829347 
L 125.676918 500.075838 
L 126.311802 488.0696 
L 126.946687 403.767735 
L 127.581571 487.165904 
L 128.216456 468.457892 
L 128.85134 478.531437 
L 129.486225 435.423651 
L 130.121109 444.631471 
L 130.755994 463.631855 
L 131.390879 466.077149 
L 132.025763 460.336025 
L 132.660648 483.570108 
L 133.295532 500.311254 
L 133.930417 487.781025 
L 134.565301 457.647722 
L 135.200186 449.472696 
L 135.83507 487.564594 
L 136.469955 484.253575 
L 137.104839 459.443721 
L 137.739724 493.127256 
L 138.374608 480.653982 
L 139.009493 473.132047 
L 139.644377 491.217345 
L 140.279262 472.440986 
L 140.914146 466.411288 
L 142.183915 485.449643 
L 142.8188 501.890822 
L 143.453684 475.060943 
L 144.088569 431.884811 
L 144.723453 464.296337 
L 145.358338 437.322171 
L 145.993222 460.165159 
L 146.628107 497.603965 
L 147.262991 487.477262 
L 147.897876 469.198315 
L 148.53276 474.905265 
L 149.167645 494.892879 
L 149.802529 487.029211 
L 150.437414 460.062639 
L 151.072298 482.582878 
L 151.707183 491.373024 
L 152.342067 494.778968 
L 152.976952 465.910079 
L 153.611837 478.277036 
L 154.246721 477.60496 
L 154.881606 482.613254 
L 155.51649 462.120634 
L 156.151375 483.011944 
L 156.786259 496.119323 
L 157.421144 479.830025 
L 158.056028 459.770266 
L 158.690913 482.020916 
L 159.325797 469.859 
L 159.960682 472.520724 
L 160.595566 456.447857 
L 161.230451 493.206994 
L 161.865335 445.865509 
L 162.50022 483.676425 
L 163.135104 477.692292 
L 163.769989 496.890122 
L 164.404873 440.955937 
L 165.039758 490.526284 
L 165.674642 447.794405 
L 166.309527 444.661847 
L 166.944411 447.464062 
L 167.579296 498.029234 
L 168.21418 490.066842 
L 168.849065 472.41061 
L 169.483949 475.645687 
L 170.118834 489.231494 
L 171.388603 477.080968 
L 172.658372 443.313899 
L 173.293256 479.583217 
L 173.928141 478.86178 
L 175.19791 499.813842 
L 175.832795 486.524205 
L 176.467679 493.860085 
L 177.102564 484.386472 
L 177.737448 485.062345 
L 178.372333 472.235946 
L 179.007217 482.412011 
L 179.642102 489.375781 
L 180.276986 486.619131 
L 180.911871 482.009525 
L 181.546755 442.630431 
L 182.18164 489.425143 
L 182.816524 496.335754 
L 183.451409 473.504157 
L 184.086293 488.050615 
L 184.721178 460.852423 
L 185.990947 487.651925 
L 186.625831 467.352954 
L 187.260716 484.185229 
L 187.8956 474.495185 
L 188.530485 489.307435 
L 189.165369 477.411311 
L 189.800254 490.792077 
L 190.435138 496.229437 
L 191.070023 482.332273 
L 191.704907 484.23459 
L 192.339792 464.440625 
L 192.974676 480.035065 
L 193.609561 474.202813 
L 194.244445 496.521809 
L 194.87933 441.620419 
L 195.514215 474.711616 
L 196.149099 497.083771 
L 196.783984 474.236986 
L 197.418868 500.603626 
L 198.053753 464.482392 
L 198.688637 487.264627 
L 199.323522 497.019221 
L 199.958406 458.183104 
L 200.593291 491.612237 
L 201.228175 495.242207 
L 201.86306 483.053711 
L 202.497944 479.526262 
L 203.132829 502.114848 
L 204.402598 480.559056 
L 205.037482 457.412305 
L 205.672367 471.427177 
L 206.307251 430.195128 
L 206.942136 488.346784 
L 207.57702 479.173137 
L 208.211905 472.509333 
L 208.846789 477.734059 
L 209.481674 494.835924 
L 210.116558 490.997117 
L 210.751443 485.267385 
L 211.386327 471.465147 
L 212.021212 502.98437 
L 213.290981 476.044377 
L 213.925865 468.184505 
L 214.56075 476.682279 
L 215.195634 479.457915 
L 215.830519 464.645665 
L 216.465403 500.353022 
L 217.100288 487.105152 
L 217.735173 497.809005 
L 218.370057 467.21626 
L 219.004942 466.449258 
L 219.639826 481.231132 
L 220.274711 492.633641 
L 220.909595 489.01886 
L 221.54448 496.84076 
L 222.179364 497.660921 
L 222.814249 467.614949 
L 223.449133 498.150739 
L 224.084018 494.190427 
L 224.718902 488.821414 
L 225.353787 472.137223 
L 225.988671 475.767193 
L 226.623556 485.90149 
L 227.25844 468.302214 
L 227.893325 472.277714 
L 228.528209 485.96604 
L 229.163094 490.651586 
L 229.797978 488.551824 
L 230.432863 478.178313 
L 231.067747 482.427199 
L 231.702632 470.219718 
L 232.337516 477.179691 
L 232.972401 476.689873 
L 233.607285 468.583194 
L 234.24217 490.408576 
L 234.877054 459.63737 
L 235.511939 486.539393 
L 236.146823 500.679567 
L 236.781708 485.597727 
L 237.416592 429.838206 
L 238.051477 495.124499 
L 238.686362 482.506937 
L 239.321246 476.534195 
L 239.956131 484.43963 
L 240.591015 494.091704 
L 241.2259 469.48689 
L 241.860784 477.916317 
L 243.130553 500.30366 
L 243.765438 476.951869 
L 244.400322 478.296021 
L 245.035207 461.832059 
L 245.670091 475.843133 
L 246.304976 478.007446 
L 246.93986 495.606723 
L 247.574745 452.620442 
L 248.209629 471.848648 
L 248.844514 498.014045 
L 249.479398 483.24736 
L 250.114283 473.933223 
L 250.749167 489.155553 
L 251.384052 485.199038 
L 252.018936 460.68915 
L 252.653821 451.412983 
L 253.288705 485.385093 
L 253.92359 450.991512 
L 254.558474 489.630183 
L 255.193359 469.069216 
L 255.828243 440.879996 
L 256.463128 461.118215 
L 257.098012 498.974696 
L 257.732897 487.146919 
L 258.367781 492.86526 
L 259.002666 489.755485 
L 259.63755 465.397479 
L 260.272435 471.651202 
L 260.90732 494.406858 
L 261.542204 444.950422 
L 262.177089 497.592574 
L 262.811973 483.737178 
L 263.446858 447.984257 
L 264.081742 459.682935 
L 264.716627 492.933607 
L 265.351511 498.557022 
L 265.986396 449.833415 
L 266.62128 470.952547 
L 267.256165 485.100315 
L 267.891049 457.63633 
L 268.525934 499.25188 
L 269.160818 484.678844 
L 269.795703 478.728883 
L 270.430587 478.755463 
L 271.065472 476.602541 
L 271.700356 475.695049 
L 272.335241 489.406158 
L 272.970125 449.092992 
L 273.60501 432.966967 
L 274.239894 498.986087 
L 274.874779 467.979465 
L 275.509663 477.361949 
L 276.144548 494.942241 
L 276.779432 493.195603 
L 277.414317 487.382336 
L 278.049201 503.508361 
L 278.684086 490.097219 
L 279.31897 463.252151 
L 279.953855 473.66743 
L 280.588739 478.444105 
L 281.223624 494.638478 
L 281.858509 490.887003 
L 282.493393 453.030522 
L 283.128278 483.646049 
L 283.763162 474.806542 
L 284.398047 497.034409 
L 285.032931 479.624985 
L 285.667816 496.18767 
L 286.3027 493.685421 
L 286.937585 471.233528 
L 287.572469 481.193162 
L 288.207354 478.132748 
L 288.842238 471.973951 
L 289.477123 475.140681 
L 290.746892 493.275341 
L 291.381776 472.004327 
L 292.016661 494.611898 
L 292.651545 483.406836 
L 293.28643 481.944975 
L 293.921314 484.272561 
L 294.556199 448.96769 
L 295.191083 472.94979 
L 295.825968 473.443405 
L 296.460852 480.638794 
L 297.095737 462.716769 
L 297.730621 490.495908 
L 298.365506 446.560367 
L 299.00039 498.598789 
L 299.635275 480.342625 
L 300.270159 485.157271 
L 300.905044 462.62564 
L 301.539928 486.611537 
L 302.174813 499.992303 
L 302.809697 472.794111 
L 303.444582 451.450954 
L 304.079467 480.186946 
L 304.714351 486.717854 
L 305.349236 488.403739 
L 305.98412 490.879409 
L 306.619005 498.891162 
L 307.253889 467.930104 
L 307.888774 488.286031 
L 308.523658 481.045077 
L 309.158543 492.698191 
L 310.428312 464.603897 
L 311.698081 491.179375 
L 312.332965 474.525561 
L 312.96785 480.912181 
L 313.602734 454.761972 
L 314.237619 465.602519 
L 314.872503 454.4696 
L 315.507388 493.575307 
L 316.142272 466.996032 
L 316.777157 493.541133 
L 317.412041 474.069916 
L 318.046926 500.390992 
L 318.68181 464.003965 
L 319.316695 440.040851 
L 319.951579 473.777544 
L 320.586464 493.487975 
L 321.221348 475.315345 
L 321.856233 494.346106 
L 322.491117 460.765091 
L 323.760886 495.95605 
L 324.395771 486.903909 
L 325.030656 465.063339 
L 325.66554 499.68854 
L 326.300425 440.868605 
L 326.935309 475.725425 
L 327.570194 500.409977 
L 328.205078 474.028149 
L 328.839963 469.312226 
L 329.474847 475.246998 
L 330.109732 487.845574 
L 330.744616 473.686415 
L 331.379501 474.047134 
L 332.014385 463.36986 
L 332.64927 479.602202 
L 333.284154 463.278731 
L 333.919039 499.988506 
L 334.553923 496.909107 
L 335.188808 473.788935 
L 335.823692 470.075431 
L 336.458577 491.502123 
L 337.093461 492.477962 
L 337.728346 484.838319 
L 338.36323 494.482799 
L 338.998115 465.219018 
L 339.632999 452.806497 
L 340.267884 472.228352 
L 340.902768 456.30357 
L 341.537653 489.926352 
L 342.807422 449.168933 
L 343.442306 477.160706 
L 344.077191 491.092043 
L 344.712075 488.999874 
L 345.34696 463.643246 
L 345.981844 464.383669 
L 346.616729 443.275928 
L 347.251614 496.111729 
L 347.886498 498.169724 
L 349.156267 480.012283 
L 349.791152 452.453372 
L 350.426036 470.629799 
L 351.060921 424.328702 
L 351.695805 463.533132 
L 352.33069 475.782381 
L 352.965574 458.152728 
L 353.600459 460.491704 
L 354.235343 493.886664 
L 354.870228 493.039924 
L 355.505112 467.227652 
L 356.139997 494.179036 
L 356.774881 474.081307 
L 357.409766 485.996416 
L 358.04465 482.791715 
L 358.679535 481.944975 
L 359.314419 463.863475 
L 359.949304 492.944998 
L 360.584188 463.483771 
L 361.219073 479.799648 
L 361.853957 480.764096 
L 362.488842 498.146942 
L 363.123726 457.465464 
L 363.758611 436.900699 
L 364.393495 446.754016 
L 365.02838 484.242184 
L 365.663264 474.252174 
L 366.298149 478.865577 
L 366.933033 460.806858 
L 367.567918 491.562876 
L 368.202803 474.806542 
L 368.837687 469.057824 
L 369.472572 483.528341 
L 370.107456 480.384392 
L 370.742341 457.135121 
L 371.377225 473.549722 
L 372.01211 482.468967 
L 372.646994 488.703705 
L 373.281879 485.517989 
L 373.916763 498.822815 
L 374.551648 470.831042 
L 375.186532 470.170357 
L 375.821417 491.764119 
L 376.456301 473.728183 
L 377.091186 472.862458 
L 377.72607 477.60496 
L 378.360955 494.623289 
L 378.995839 441.533087 
L 380.265608 500.835246 
L 380.900493 474.48759 
L 381.535377 495.128296 
L 382.170262 500.269487 
L 382.805146 477.821391 
L 383.440031 497.171103 
L 384.074915 467.121334 
L 384.7098 494.076516 
L 385.344684 489.204914 
L 385.979569 501.059271 
L 386.614453 470.451338 
L 387.249338 482.442388 
L 387.884222 479.602202 
L 388.519107 474.779962 
L 389.153991 481.337449 
L 389.788876 480.293263 
L 390.423761 464.588709 
L 391.058645 488.217684 
L 391.69353 481.174177 
L 392.328414 492.933607 
L 392.963299 492.018521 
L 393.598183 501.52251 
L 394.233068 487.640534 
L 394.867952 485.685059 
L 395.502837 495.166266 
L 396.137721 493.256355 
L 396.772606 489.064424 
L 397.40749 489.759282 
L 398.042375 492.291907 
L 398.677259 479.370583 
L 399.312144 493.939822 
L 399.947028 466.168278 
L 400.581913 491.316068 
L 401.216797 496.442071 
L 401.851682 467.71747 
L 402.486566 484.086506 
L 403.121451 485.536975 
L 403.756335 472.403016 
L 404.39122 480.73372 
L 405.026104 501.040286 
L 405.660989 444.882076 
L 406.295873 490.632601 
L 406.930758 423.743958 
L 407.565642 474.445823 
L 408.200527 469.89697 
L 408.835411 466.407491 
L 409.470296 450.83963 
L 410.10518 482.818295 
L 410.740065 465.30635 
L 411.37495 487.439291 
L 412.009834 459.743687 
L 412.644719 464.926646 
L 413.279603 461.938376 
L 413.914488 480.483115 
L 414.549372 485.229414 
L 415.184257 483.851089 
L 415.819141 478.687116 
L 416.454026 493.229776 
L 417.08891 497.6875 
L 417.723795 476.465848 
L 418.358679 476.086144 
L 418.993564 481.360231 
L 419.628448 478.432714 
L 420.263333 421.837845 
L 420.898217 495.302959 
L 421.533102 489.660559 
L 422.167986 477.217662 
L 423.437755 476.708858 
L 424.07264 489.307435 
L 424.707524 491.665396 
L 425.342409 495.625708 
L 425.977293 476.807581 
L 426.612178 491.373024 
L 427.247062 469.403355 
L 427.881947 473.652242 
L 428.516831 451.431968 
L 429.151716 463.620464 
L 429.7866 485.647089 
L 430.421485 492.367848 
L 431.056369 470.705739 
L 431.691254 485.791376 
L 432.326138 449.305626 
L 432.961023 496.013006 
L 433.595908 475.474821 
L 434.230792 444.525154 
L 434.865677 451.701558 
L 435.500561 461.2663 
L 436.135446 486.125516 
L 436.77033 482.332273 
L 437.405215 452.650818 
L 438.040099 492.223561 
L 438.674984 490.002293 
L 439.309868 478.041619 
L 439.944753 473.310508 
L 440.579637 484.826928 
L 441.214522 464.273555 
L 441.849406 498.974696 
L 442.484291 481.398202 
L 443.119175 470.47412 
L 443.75406 491.221142 
L 444.388944 471.69297 
L 445.023829 484.272561 
L 445.658713 493.229776 
L 446.293598 489.998496 
L 446.928482 483.646049 
L 447.563367 475.854525 
L 448.198251 480.236308 
L 448.833136 498.500066 
L 449.46802 441.316656 
L 450.102905 461.125809 
L 450.737789 498.196303 
L 451.372674 446.138896 
L 452.007558 445.557949 
L 452.642443 497.136929 
L 453.277327 468.173114 
L 453.912212 433.452988 
L 454.547097 495.709243 
L 455.181981 462.918012 
L 455.816866 483.357474 
L 456.45175 443.5683 
L 457.086635 459.462706 
L 457.721519 454.044331 
L 458.356404 479.621187 
L 458.991288 478.588393 
L 459.626173 494.589116 
L 460.261057 498.598789 
L 460.895942 477.411311 
L 461.530826 478.941517 
L 462.165711 497.258435 
L 462.800595 475.372301 
L 463.43548 485.255994 
L 464.070364 460.738511 
L 464.705249 461.964955 
L 465.340133 494.832127 
L 465.975018 487.446885 
L 466.609902 496.316769 
L 467.244787 473.238365 
L 467.879671 488.403739 
L 468.514556 463.601479 
L 469.14944 469.528657 
L 469.784325 477.988461 
L 470.419209 497.307796 
L 471.054094 498.583601 
L 471.688978 394.98898 
L 472.323863 485.419266 
L 472.958747 483.733381 
L 473.593632 457.890732 
L 474.228516 481.599445 
L 474.863401 464.452016 
L 475.498285 484.952231 
L 476.13317 419.373566 
L 476.768055 480.672967 
L 477.402939 499.084811 
L 478.037824 464.467204 
L 478.672708 493.461395 
L 479.307593 464.691229 
L 479.942477 495.743416 
L 481.847131 467.189681 
L 482.482015 474.874888 
L 483.1169 449.44232 
L 483.751784 465.689851 
L 484.386669 468.60218 
L 485.021553 482.449982 
L 485.656438 486.387511 
L 486.291322 459.743687 
L 486.926207 486.550784 
L 487.561091 454.860695 
L 488.195976 467.801004 
L 488.83086 469.080607 
L 489.465745 482.096857 
L 490.100629 488.430318 
L 491.370398 476.716452 
L 492.005283 495.762401 
L 492.640167 468.651541 
L 493.275052 485.225617 
L 493.909936 466.35813 
L 494.544821 441.791286 
L 495.179705 493.685421 
L 496.449474 453.592484 
L 497.084359 483.148637 
L 497.719244 468.924928 
L 498.354128 471.134805 
L 498.989013 472.137223 
L 499.623897 491.764119 
L 500.258782 454.20001 
L 500.893666 491.338851 
L 501.528551 498.948117 
L 502.163435 489.398563 
L 502.79832 488.27464 
L 503.433204 454.074708 
L 504.068089 464.862096 
L 504.702973 435.20722 
L 505.337858 488.813819 
L 505.972742 494.057531 
L 506.607627 446.86413 
L 507.242511 480.52868 
L 507.877396 444.134059 
L 508.51228 488.122758 
L 509.147165 481.341246 
L 509.782049 483.930827 
L 510.416934 471.157587 
L 511.051818 467.630138 
L 511.686703 463.039517 
L 512.321587 492.846275 
L 512.956472 483.346083 
L 514.226241 493.575307 
L 514.861125 489.983308 
L 515.49601 472.733358 
L 516.130894 485.225617 
L 516.765779 474.066119 
L 517.400663 484.340907 
L 518.035548 461.334647 
L 518.670433 425.813345 
L 519.940202 495.078934 
L 520.575086 458.809616 
L 521.209971 496.821775 
L 521.844855 486.638116 
L 522.47974 461.661192 
L 523.114624 487.83798 
L 523.749509 476.682279 
L 524.384393 493.518351 
L 525.019278 487.302598 
L 525.654162 482.651225 
L 526.923931 455.350513 
L 527.558816 484.211808 
L 528.1937 489.687138 
L 528.828585 481.121018 
L 529.463469 446.537585 
L 530.098354 453.368458 
L 530.733238 484.971216 
L 531.368123 473.754762 
L 532.003007 456.390902 
L 532.637892 494.687839 
L 533.272776 459.5994 
L 534.542545 482.256333 
L 535.17743 481.033686 
L 535.812314 454.860695 
L 536.447199 456.326352 
L 537.082083 503.53494 
L 537.716968 475.490009 
L 538.351852 439.456107 
L 538.986737 493.100677 
L 539.621621 499.563237 
L 540.256506 493.575307 
L 540.891391 421.329041 
L 541.526275 473.891455 
L 542.16116 481.067859 
L 542.796044 492.857666 
L 543.430929 460.096812 
L 544.065813 491.16039 
L 544.700698 486.763418 
L 545.335582 491.559079 
L 545.970467 471.651202 
L 546.605351 465.27977 
L 547.240236 484.371284 
L 547.87512 492.234952 
L 548.510005 459.500677 
L 549.144889 461.197953 
L 549.779774 481.056468 
L 550.414658 463.829301 
L 551.049543 498.351982 
L 551.684427 501.909808 
L 552.319312 493.001954 
L 552.954196 503.265351 
L 553.589081 464.19002 
L 554.223965 491.073058 
L 554.85885 487.572188 
L 555.493734 503.067905 
L 556.128619 479.761678 
L 556.763503 468.700903 
L 557.398388 476.055768 
L 558.033272 505.338534 
L 558.668157 485.79897 
L 559.303041 432.568278 
L 559.937926 465.765791 
L 560.57281 456.759214 
L 561.207695 487.010226 
L 561.84258 460.563848 
L 562.477464 485.168662 
L 563.112349 432.917605 
L 563.747233 478.641551 
L 564.382118 500.311254 
L 565.017002 494.668854 
L 565.651887 473.864876 
L 566.286771 468.328793 
L 566.921656 470.762695 
L 567.55654 494.384076 
L 568.191425 492.777928 
L 568.826309 489.394766 
L 569.461194 495.663678 
L 570.096078 475.406474 
L 570.730963 446.100925 
L 571.365847 482.370244 
L 572.000732 503.470391 
L 572.635616 472.353654 
L 573.270501 489.933946 
L 573.905385 478.59219 
L 574.54027 458.027425 
L 575.175154 449.913153 
L 575.810039 487.291207 
L 576.444923 460.146173 
L 577.079808 489.687138 
L 577.714692 504.503185 
L 578.349577 481.660198 
L 578.984461 444.912452 
L 580.25423 493.374064 
L 580.889115 474.164842 
L 581.523999 475.220419 
L 582.158884 479.651564 
L 582.793768 500.895998 
L 583.428653 480.031268 
L 584.063538 487.302598 
L 584.698422 489.125177 
L 585.333307 486.212848 
L 585.968191 469.817232 
L 586.603076 464.619086 
L 587.23796 451.325651 
L 587.872845 482.8107 
L 588.507729 483.463791 
L 589.142614 480.741314 
L 589.142614 480.741314 
" clip-path="url(#pae39107f75)" style="fill: none; stroke: #ff7f0e; stroke-width: 1.5; stroke-linecap: square"/>
   </g>
   <g id="patch_3">
    <path d="M 56.50625 576.718125 
L 56.50625 22.318125 
" style="fill: none; stroke: #000000; stroke-width: 0.8; stroke-linejoin: miter; stroke-linecap: square"/>
   </g>
   <g id="patch_4">
    <path d="M 614.50625 576.718125 
L 614.50625 22.318125 
" style="fill: none; stroke: #000000; stroke-width: 0.8; stroke-linejoin: miter; stroke-linecap: square"/>
   </g>
   <g id="patch_5">
    <path d="M 56.50625 576.718125 
L 614.50625 576.718125 
" style="fill: none; stroke: #000000; stroke-width: 0.8; stroke-linejoin: miter; stroke-linecap: square"/>
   </g>
   <g id="patch_6">
    <path d="M 56.50625 22.318125 
L 614.50625 22.318125 
" style="fill: none; stroke: #000000; stroke-width: 0.8; stroke-linejoin: miter; stroke-linecap: square"/>
   </g>
   <g id="text_21">
    <!-- Train and Val Loss -->
    <g transform="translate(281.960938 16.318125) scale(0.12 -0.12)">
     <defs>
      <path id="DejaVuSans-54" d="M -19 4666 
L 3928 4666 
L 3928 4134 
L 2272 4134 
L 2272 0 
L 1638 0 
L 1638 4134 
L -19 4134 
L -19 4666 
z
" transform="scale(0.015625)"/>
      <path id="DejaVuSans-72" d="M 2631 2963 
Q 2534 3019 2420 3045 
Q 2306 3072 2169 3072 
Q 1681 3072 1420 2755 
Q 1159 2438 1159 1844 
L 1159 0 
L 581 0 
L 581 3500 
L 1159 3500 
L 1159 2956 
Q 1341 3275 1631 3429 
Q 1922 3584 2338 3584 
Q 2397 3584 2469 3576 
Q 2541 3569 2628 3553 
L 2631 2963 
z
" transform="scale(0.015625)"/>
      <path id="DejaVuSans-61" d="M 2194 1759 
Q 1497 1759 1228 1600 
Q 959 1441 959 1056 
Q 959 750 1161 570 
Q 1363 391 1709 391 
Q 2188 391 2477 730 
Q 2766 1069 2766 1631 
L 2766 1759 
L 2194 1759 
z
M 3341 1997 
L 3341 0 
L 2766 0 
L 2766 531 
Q 2569 213 2275 61 
Q 1981 -91 1556 -91 
Q 1019 -91 701 211 
Q 384 513 384 1019 
Q 384 1609 779 1909 
Q 1175 2209 1959 2209 
L 2766 2209 
L 2766 2266 
Q 2766 2663 2505 2880 
Q 2244 3097 1772 3097 
Q 1472 3097 1187 3025 
Q 903 2953 641 2809 
L 641 3341 
Q 956 3463 1253 3523 
Q 1550 3584 1831 3584 
Q 2591 3584 2966 3190 
Q 3341 2797 3341 1997 
z
" transform="scale(0.015625)"/>
      <path id="DejaVuSans-69" d="M 603 3500 
L 1178 3500 
L 1178 0 
L 603 0 
L 603 3500 
z
M 603 4863 
L 1178 4863 
L 1178 4134 
L 603 4134 
L 603 4863 
z
" transform="scale(0.015625)"/>
      <path id="DejaVuSans-6e" d="M 3513 2113 
L 3513 0 
L 2938 0 
L 2938 2094 
Q 2938 2591 2744 2837 
Q 2550 3084 2163 3084 
Q 1697 3084 1428 2787 
Q 1159 2491 1159 1978 
L 1159 0 
L 581 0 
L 581 3500 
L 1159 3500 
L 1159 2956 
Q 1366 3272 1645 3428 
Q 1925 3584 2291 3584 
Q 2894 3584 3203 3211 
Q 3513 2838 3513 2113 
z
" transform="scale(0.015625)"/>
      <path id="DejaVuSans-20" transform="scale(0.015625)"/>
      <path id="DejaVuSans-64" d="M 2906 2969 
L 2906 4863 
L 3481 4863 
L 3481 0 
L 2906 0 
L 2906 525 
Q 2725 213 2448 61 
Q 2172 -91 1784 -91 
Q 1150 -91 751 415 
Q 353 922 353 1747 
Q 353 2572 751 3078 
Q 1150 3584 1784 3584 
Q 2172 3584 2448 3432 
Q 2725 3281 2906 2969 
z
M 947 1747 
Q 947 1113 1208 752 
Q 1469 391 1925 391 
Q 2381 391 2643 752 
Q 2906 1113 2906 1747 
Q 2906 2381 2643 2742 
Q 2381 3103 1925 3103 
Q 1469 3103 1208 2742 
Q 947 2381 947 1747 
z
" transform="scale(0.015625)"/>
      <path id="DejaVuSans-56" d="M 1831 0 
L 50 4666 
L 709 4666 
L 2188 738 
L 3669 4666 
L 4325 4666 
L 2547 0 
L 1831 0 
z
" transform="scale(0.015625)"/>
      <path id="DejaVuSans-6c" d="M 603 4863 
L 1178 4863 
L 1178 0 
L 603 0 
L 603 4863 
z
" transform="scale(0.015625)"/>
     </defs>
     <use xlink:href="#DejaVuSans-54"/>
     <use xlink:href="#DejaVuSans-72" transform="translate(46.333984 0)"/>
     <use xlink:href="#DejaVuSans-61" transform="translate(87.447266 0)"/>
     <use xlink:href="#DejaVuSans-69" transform="translate(148.726562 0)"/>
     <use xlink:href="#DejaVuSans-6e" transform="translate(176.509766 0)"/>
     <use xlink:href="#DejaVuSans-20" transform="translate(239.888672 0)"/>
     <use xlink:href="#DejaVuSans-61" transform="translate(271.675781 0)"/>
     <use xlink:href="#DejaVuSans-6e" transform="translate(332.955078 0)"/>
     <use xlink:href="#DejaVuSans-64" transform="translate(396.333984 0)"/>
     <use xlink:href="#DejaVuSans-20" transform="translate(459.810547 0)"/>
     <use xlink:href="#DejaVuSans-56" transform="translate(491.597656 0)"/>
     <use xlink:href="#DejaVuSans-61" transform="translate(552.255859 0)"/>
     <use xlink:href="#DejaVuSans-6c" transform="translate(613.535156 0)"/>
     <use xlink:href="#DejaVuSans-20" transform="translate(641.318359 0)"/>
     <use xlink:href="#DejaVuSans-4c" transform="translate(673.105469 0)"/>
     <use xlink:href="#DejaVuSans-6f" transform="translate(727.068359 0)"/>
     <use xlink:href="#DejaVuSans-73" transform="translate(788.25 0)"/>
     <use xlink:href="#DejaVuSans-73" transform="translate(840.349609 0)"/>
    </g>
   </g>
   <g id="legend_1">
    <g id="patch_7">
     <path d="M 527.915625 60.230625 
L 607.50625 60.230625 
Q 609.50625 60.230625 609.50625 58.230625 
L 609.50625 29.318125 
Q 609.50625 27.318125 607.50625 27.318125 
L 527.915625 27.318125 
Q 525.915625 27.318125 525.915625 29.318125 
L 525.915625 58.230625 
Q 525.915625 60.230625 527.915625 60.230625 
z
" style="fill: #ffffff; opacity: 0.8; stroke: #cccccc; stroke-linejoin: miter"/>
    </g>
    <g id="line2d_39">
     <path d="M 529.915625 35.416563 
L 539.915625 35.416563 
L 549.915625 35.416563 
" style="fill: none; stroke: #1f77b4; stroke-width: 1.5; stroke-linecap: square"/>
    </g>
    <g id="text_22">
     <!-- train_loss -->
     <g transform="translate(557.915625 38.916563) scale(0.1 -0.1)">
      <defs>
       <path id="DejaVuSans-74" d="M 1172 4494 
L 1172 3500 
L 2356 3500 
L 2356 3053 
L 1172 3053 
L 1172 1153 
Q 1172 725 1289 603 
Q 1406 481 1766 481 
L 2356 481 
L 2356 0 
L 1766 0 
Q 1100 0 847 248 
Q 594 497 594 1153 
L 594 3053 
L 172 3053 
L 172 3500 
L 594 3500 
L 594 4494 
L 1172 4494 
z
" transform="scale(0.015625)"/>
       <path id="DejaVuSans-5f" d="M 3263 -1063 
L 3263 -1509 
L -63 -1509 
L -63 -1063 
L 3263 -1063 
z
" transform="scale(0.015625)"/>
      </defs>
      <use xlink:href="#DejaVuSans-74"/>
      <use xlink:href="#DejaVuSans-72" transform="translate(39.208984 0)"/>
      <use xlink:href="#DejaVuSans-61" transform="translate(80.322266 0)"/>
      <use xlink:href="#DejaVuSans-69" transform="translate(141.601562 0)"/>
      <use xlink:href="#DejaVuSans-6e" transform="translate(169.384766 0)"/>
      <use xlink:href="#DejaVuSans-5f" transform="translate(232.763672 0)"/>
      <use xlink:href="#DejaVuSans-6c" transform="translate(282.763672 0)"/>
      <use xlink:href="#DejaVuSans-6f" transform="translate(310.546875 0)"/>
      <use xlink:href="#DejaVuSans-73" transform="translate(371.728516 0)"/>
      <use xlink:href="#DejaVuSans-73" transform="translate(423.828125 0)"/>
     </g>
    </g>
    <g id="line2d_40">
     <path d="M 529.915625 50.372813 
L 539.915625 50.372813 
L 549.915625 50.372813 
" style="fill: none; stroke: #ff7f0e; stroke-width: 1.5; stroke-linecap: square"/>
    </g>
    <g id="text_23">
     <!-- val_loss -->
     <g transform="translate(557.915625 53.872813) scale(0.1 -0.1)">
      <defs>
       <path id="DejaVuSans-76" d="M 191 3500 
L 800 3500 
L 1894 563 
L 2988 3500 
L 3597 3500 
L 2284 0 
L 1503 0 
L 191 3500 
z
" transform="scale(0.015625)"/>
      </defs>
      <use xlink:href="#DejaVuSans-76"/>
      <use xlink:href="#DejaVuSans-61" transform="translate(59.179688 0)"/>
      <use xlink:href="#DejaVuSans-6c" transform="translate(120.458984 0)"/>
      <use xlink:href="#DejaVuSans-5f" transform="translate(148.242188 0)"/>
      <use xlink:href="#DejaVuSans-6c" transform="translate(198.242188 0)"/>
      <use xlink:href="#DejaVuSans-6f" transform="translate(226.025391 0)"/>
      <use xlink:href="#DejaVuSans-73" transform="translate(287.207031 0)"/>
      <use xlink:href="#DejaVuSans-73" transform="translate(339.306641 0)"/>
     </g>
    </g>
   </g>
  </g>
 </g>
 <defs>
  <clipPath id="pae39107f75">
   <rect x="56.50625" y="22.318125" width="558" height="554.4"/>
  </clipPath>
 </defs>
</svg>
