<?xml version="1.0" encoding="utf-8" standalone="no"?>
<!DOCTYPE svg PUBLIC "-//W3C//DTD SVG 1.1//EN"
  "http://www.w3.org/Graphics/SVG/1.1/DTD/svg11.dtd">
<svg xmlns:xlink="http://www.w3.org/1999/xlink" width="608.98125pt" height="614.274375pt" viewBox="0 0 608.98125 614.274375" xmlns="http://www.w3.org/2000/svg" version="1.1">
 <metadata>
  <rdf:RDF xmlns:dc="http://purl.org/dc/elements/1.1/" xmlns:cc="http://creativecommons.org/ns#" xmlns:rdf="http://www.w3.org/1999/02/22-rdf-syntax-ns#">
   <cc:Work>
    <dc:type rdf:resource="http://purl.org/dc/dcmitype/StillImage"/>
    <dc:date>2026-05-25T00:48:06.675273</dc:date>
    <dc:format>image/svg+xml</dc:format>
    <dc:creator>
     <cc:Agent>
      <dc:title>Matplotlib v3.10.9, https://matplotlib.org/</dc:title>
     </cc:Agent>
    </dc:creator>
   </cc:Work>
  </rdf:RDF>
 </metadata>
 <defs>
  <style type="text/css">*{stroke-linejoin: round; stroke-linecap: butt}</style>
 </defs>
 <g id="figure_1">
  <g id="patch_1">
   <path d="M 0 614.274375 
L 608.98125 614.274375 
L 608.98125 0 
L 0 0 
z
" style="fill: #ffffff"/>
  </g>
  <g id="axes_1">
   <g id="patch_2">
    <path d="M 43.78125 576.718125 
L 601.78125 576.718125 
L 601.78125 22.318125 
L 43.78125 22.318125 
z
" style="fill: #ffffff"/>
   </g>
   <g id="matplotlib.axis_1">
    <g id="xtick_1">
     <g id="line2d_1">
      <path d="M 69.144886 576.718125 
L 69.144886 22.318125 
" clip-path="url(#p6a8262f03b)" style="fill: none; stroke: #b0b0b0; stroke-width: 0.8; stroke-linecap: square"/>
     </g>
     <g id="line2d_2">
      <defs>
       <path id="m3b6d4ae3ac" d="M 0 0 
L 0 3.5 
" style="stroke: #000000; stroke-width: 0.8"/>
      </defs>
      <g>
       <use xlink:href="#m3b6d4ae3ac" x="69.144886" y="576.718125" style="stroke: #000000; stroke-width: 0.8"/>
      </g>
     </g>
     <g id="text_1">
      <!-- 0 -->
      <g transform="translate(65.963636 591.316563) scale(0.1 -0.1)">
       <defs>
        <path id="DejaVuSans-30" d="M 2034 4250 
Q 1547 4250 1301 3770 
Q 1056 3291 1056 2328 
Q 1056 1369 1301 889 
Q 1547 409 2034 409 
Q 2525 409 2770 889 
Q 3016 1369 3016 2328 
Q 3016 3291 2770 3770 
Q 2525 4250 2034 4250 
z
M 2034 4750 
Q 2819 4750 3233 4129 
Q 3647 3509 3647 2328 
Q 3647 1150 3233 529 
Q 2819 -91 2034 -91 
Q 1250 -91 836 529 
Q 422 1150 422 2328 
Q 422 3509 836 4129 
Q 1250 4750 2034 4750 
z
" transform="scale(0.015625)"/>
       </defs>
       <use xlink:href="#DejaVuSans-30"/>
      </g>
     </g>
    </g>
    <g id="xtick_2">
     <g id="line2d_3">
      <path d="M 132.633338 576.718125 
L 132.633338 22.318125 
" clip-path="url(#p6a8262f03b)" style="fill: none; stroke: #b0b0b0; stroke-width: 0.8; stroke-linecap: square"/>
     </g>
     <g id="line2d_4">
      <g>
       <use xlink:href="#m3b6d4ae3ac" x="132.633338" y="576.718125" style="stroke: #000000; stroke-width: 0.8"/>
      </g>
     </g>
     <g id="text_2">
      <!-- 100 -->
      <g transform="translate(123.089588 591.316563) scale(0.1 -0.1)">
       <defs>
        <path id="DejaVuSans-31" d="M 794 531 
L 1825 531 
L 1825 4091 
L 703 3866 
L 703 4441 
L 1819 4666 
L 2450 4666 
L 2450 531 
L 3481 531 
L 3481 0 
L 794 0 
L 794 531 
z
" transform="scale(0.015625)"/>
       </defs>
       <use xlink:href="#DejaVuSans-31"/>
       <use xlink:href="#DejaVuSans-30" transform="translate(63.623047 0)"/>
       <use xlink:href="#DejaVuSans-30" transform="translate(127.246094 0)"/>
      </g>
     </g>
    </g>
    <g id="xtick_3">
     <g id="line2d_5">
      <path d="M 196.121789 576.718125 
L 196.121789 22.318125 
" clip-path="url(#p6a8262f03b)" style="fill: none; stroke: #b0b0b0; stroke-width: 0.8; stroke-linecap: square"/>
     </g>
     <g id="line2d_6">
      <g>
       <use xlink:href="#m3b6d4ae3ac" x="196.121789" y="576.718125" style="stroke: #000000; stroke-width: 0.8"/>
      </g>
     </g>
     <g id="text_3">
      <!-- 200 -->
      <g transform="translate(186.578039 591.316563) scale(0.1 -0.1)">
       <defs>
        <path id="DejaVuSans-32" d="M 1228 531 
L 3431 531 
L 3431 0 
L 469 0 
L 469 531 
Q 828 903 1448 1529 
Q 2069 2156 2228 2338 
Q 2531 2678 2651 2914 
Q 2772 3150 2772 3378 
Q 2772 3750 2511 3984 
Q 2250 4219 1831 4219 
Q 1534 4219 1204 4116 
Q 875 4013 500 3803 
L 500 4441 
Q 881 4594 1212 4672 
Q 1544 4750 1819 4750 
Q 2544 4750 2975 4387 
Q 3406 4025 3406 3419 
Q 3406 3131 3298 2873 
Q 3191 2616 2906 2266 
Q 2828 2175 2409 1742 
Q 1991 1309 1228 531 
z
" transform="scale(0.015625)"/>
       </defs>
       <use xlink:href="#DejaVuSans-32"/>
       <use xlink:href="#DejaVuSans-30" transform="translate(63.623047 0)"/>
       <use xlink:href="#DejaVuSans-30" transform="translate(127.246094 0)"/>
      </g>
     </g>
    </g>
    <g id="xtick_4">
     <g id="line2d_7">
      <path d="M 259.610241 576.718125 
L 259.610241 22.318125 
" clip-path="url(#p6a8262f03b)" style="fill: none; stroke: #b0b0b0; stroke-width: 0.8; stroke-linecap: square"/>
     </g>
     <g id="line2d_8">
      <g>
       <use xlink:href="#m3b6d4ae3ac" x="259.610241" y="576.718125" style="stroke: #000000; stroke-width: 0.8"/>
      </g>
     </g>
     <g id="text_4">
      <!-- 300 -->
      <g transform="translate(250.066491 591.316563) scale(0.1 -0.1)">
       <defs>
        <path id="DejaVuSans-33" d="M 2597 2516 
Q 3050 2419 3304 2112 
Q 3559 1806 3559 1356 
Q 3559 666 3084 287 
Q 2609 -91 1734 -91 
Q 1441 -91 1130 -33 
Q 819 25 488 141 
L 488 750 
Q 750 597 1062 519 
Q 1375 441 1716 441 
Q 2309 441 2620 675 
Q 2931 909 2931 1356 
Q 2931 1769 2642 2001 
Q 2353 2234 1838 2234 
L 1294 2234 
L 1294 2753 
L 1863 2753 
Q 2328 2753 2575 2939 
Q 2822 3125 2822 3475 
Q 2822 3834 2567 4026 
Q 2313 4219 1838 4219 
Q 1578 4219 1281 4162 
Q 984 4106 628 3988 
L 628 4550 
Q 988 4650 1302 4700 
Q 1616 4750 1894 4750 
Q 2613 4750 3031 4423 
Q 3450 4097 3450 3541 
Q 3450 3153 3228 2886 
Q 3006 2619 2597 2516 
z
" transform="scale(0.015625)"/>
       </defs>
       <use xlink:href="#DejaVuSans-33"/>
       <use xlink:href="#DejaVuSans-30" transform="translate(63.623047 0)"/>
       <use xlink:href="#DejaVuSans-30" transform="translate(127.246094 0)"/>
      </g>
     </g>
    </g>
    <g id="xtick_5">
     <g id="line2d_9">
      <path d="M 323.098692 576.718125 
L 323.098692 22.318125 
" clip-path="url(#p6a8262f03b)" style="fill: none; stroke: #b0b0b0; stroke-width: 0.8; stroke-linecap: square"/>
     </g>
     <g id="line2d_10">
      <g>
       <use xlink:href="#m3b6d4ae3ac" x="323.098692" y="576.718125" style="stroke: #000000; stroke-width: 0.8"/>
      </g>
     </g>
     <g id="text_5">
      <!-- 400 -->
      <g transform="translate(313.554942 591.316563) scale(0.1 -0.1)">
       <defs>
        <path id="DejaVuSans-34" d="M 2419 4116 
L 825 1625 
L 2419 1625 
L 2419 4116 
z
M 2253 4666 
L 3047 4666 
L 3047 1625 
L 3713 1625 
L 3713 1100 
L 3047 1100 
L 3047 0 
L 2419 0 
L 2419 1100 
L 313 1100 
L 313 1709 
L 2253 4666 
z
" transform="scale(0.015625)"/>
       </defs>
       <use xlink:href="#DejaVuSans-34"/>
       <use xlink:href="#DejaVuSans-30" transform="translate(63.623047 0)"/>
       <use xlink:href="#DejaVuSans-30" transform="translate(127.246094 0)"/>
      </g>
     </g>
    </g>
    <g id="xtick_6">
     <g id="line2d_11">
      <path d="M 386.587144 576.718125 
L 386.587144 22.318125 
" clip-path="url(#p6a8262f03b)" style="fill: none; stroke: #b0b0b0; stroke-width: 0.8; stroke-linecap: square"/>
     </g>
     <g id="line2d_12">
      <g>
       <use xlink:href="#m3b6d4ae3ac" x="386.587144" y="576.718125" style="stroke: #000000; stroke-width: 0.8"/>
      </g>
     </g>
     <g id="text_6">
      <!-- 500 -->
      <g transform="translate(377.043394 591.316563) scale(0.1 -0.1)">
       <defs>
        <path id="DejaVuSans-35" d="M 691 4666 
L 3169 4666 
L 3169 4134 
L 1269 4134 
L 1269 2991 
Q 1406 3038 1543 3061 
Q 1681 3084 1819 3084 
Q 2600 3084 3056 2656 
Q 3513 2228 3513 1497 
Q 3513 744 3044 326 
Q 2575 -91 1722 -91 
Q 1428 -91 1123 -41 
Q 819 9 494 109 
L 494 744 
Q 775 591 1075 516 
Q 1375 441 1709 441 
Q 2250 441 2565 725 
Q 2881 1009 2881 1497 
Q 2881 1984 2565 2268 
Q 2250 2553 1709 2553 
Q 1456 2553 1204 2497 
Q 953 2441 691 2322 
L 691 4666 
z
" transform="scale(0.015625)"/>
       </defs>
       <use xlink:href="#DejaVuSans-35"/>
       <use xlink:href="#DejaVuSans-30" transform="translate(63.623047 0)"/>
       <use xlink:href="#DejaVuSans-30" transform="translate(127.246094 0)"/>
      </g>
     </g>
    </g>
    <g id="xtick_7">
     <g id="line2d_13">
      <path d="M 450.075595 576.718125 
L 450.075595 22.318125 
" clip-path="url(#p6a8262f03b)" style="fill: none; stroke: #b0b0b0; stroke-width: 0.8; stroke-linecap: square"/>
     </g>
     <g id="line2d_14">
      <g>
       <use xlink:href="#m3b6d4ae3ac" x="450.075595" y="576.718125" style="stroke: #000000; stroke-width: 0.8"/>
      </g>
     </g>
     <g id="text_7">
      <!-- 600 -->
      <g transform="translate(440.531845 591.316563) scale(0.1 -0.1)">
       <defs>
        <path id="DejaVuSans-36" d="M 2113 2584 
Q 1688 2584 1439 2293 
Q 1191 2003 1191 1497 
Q 1191 994 1439 701 
Q 1688 409 2113 409 
Q 2538 409 2786 701 
Q 3034 994 3034 1497 
Q 3034 2003 2786 2293 
Q 2538 2584 2113 2584 
z
M 3366 4563 
L 3366 3988 
Q 3128 4100 2886 4159 
Q 2644 4219 2406 4219 
Q 1781 4219 1451 3797 
Q 1122 3375 1075 2522 
Q 1259 2794 1537 2939 
Q 1816 3084 2150 3084 
Q 2853 3084 3261 2657 
Q 3669 2231 3669 1497 
Q 3669 778 3244 343 
Q 2819 -91 2113 -91 
Q 1303 -91 875 529 
Q 447 1150 447 2328 
Q 447 3434 972 4092 
Q 1497 4750 2381 4750 
Q 2619 4750 2861 4703 
Q 3103 4656 3366 4563 
z
" transform="scale(0.015625)"/>
       </defs>
       <use xlink:href="#DejaVuSans-36"/>
       <use xlink:href="#DejaVuSans-30" transform="translate(63.623047 0)"/>
       <use xlink:href="#DejaVuSans-30" transform="translate(127.246094 0)"/>
      </g>
     </g>
    </g>
    <g id="xtick_8">
     <g id="line2d_15">
      <path d="M 513.564047 576.718125 
L 513.564047 22.318125 
" clip-path="url(#p6a8262f03b)" style="fill: none; stroke: #b0b0b0; stroke-width: 0.8; stroke-linecap: square"/>
     </g>
     <g id="line2d_16">
      <g>
       <use xlink:href="#m3b6d4ae3ac" x="513.564047" y="576.718125" style="stroke: #000000; stroke-width: 0.8"/>
      </g>
     </g>
     <g id="text_8">
      <!-- 700 -->
      <g transform="translate(504.020297 591.316563) scale(0.1 -0.1)">
       <defs>
        <path id="DejaVuSans-37" d="M 525 4666 
L 3525 4666 
L 3525 4397 
L 1831 0 
L 1172 0 
L 2766 4134 
L 525 4134 
L 525 4666 
z
" transform="scale(0.015625)"/>
       </defs>
       <use xlink:href="#DejaVuSans-37"/>
       <use xlink:href="#DejaVuSans-30" transform="translate(63.623047 0)"/>
       <use xlink:href="#DejaVuSans-30" transform="translate(127.246094 0)"/>
      </g>
     </g>
    </g>
    <g id="xtick_9">
     <g id="line2d_17">
      <path d="M 577.052498 576.718125 
L 577.052498 22.318125 
" clip-path="url(#p6a8262f03b)" style="fill: none; stroke: #b0b0b0; stroke-width: 0.8; stroke-linecap: square"/>
     </g>
     <g id="line2d_18">
      <g>
       <use xlink:href="#m3b6d4ae3ac" x="577.052498" y="576.718125" style="stroke: #000000; stroke-width: 0.8"/>
      </g>
     </g>
     <g id="text_9">
      <!-- 800 -->
      <g transform="translate(567.508748 591.316563) scale(0.1 -0.1)">
       <defs>
        <path id="DejaVuSans-38" d="M 2034 2216 
Q 1584 2216 1326 1975 
Q 1069 1734 1069 1313 
Q 1069 891 1326 650 
Q 1584 409 2034 409 
Q 2484 409 2743 651 
Q 3003 894 3003 1313 
Q 3003 1734 2745 1975 
Q 2488 2216 2034 2216 
z
M 1403 2484 
Q 997 2584 770 2862 
Q 544 3141 544 3541 
Q 544 4100 942 4425 
Q 1341 4750 2034 4750 
Q 2731 4750 3128 4425 
Q 3525 4100 3525 3541 
Q 3525 3141 3298 2862 
Q 3072 2584 2669 2484 
Q 3125 2378 3379 2068 
Q 3634 1759 3634 1313 
Q 3634 634 3220 271 
Q 2806 -91 2034 -91 
Q 1263 -91 848 271 
Q 434 634 434 1313 
Q 434 1759 690 2068 
Q 947 2378 1403 2484 
z
M 1172 3481 
Q 1172 3119 1398 2916 
Q 1625 2713 2034 2713 
Q 2441 2713 2670 2916 
Q 2900 3119 2900 3481 
Q 2900 3844 2670 4047 
Q 2441 4250 2034 4250 
Q 1625 4250 1398 4047 
Q 1172 3844 1172 3481 
z
" transform="scale(0.015625)"/>
       </defs>
       <use xlink:href="#DejaVuSans-38"/>
       <use xlink:href="#DejaVuSans-30" transform="translate(63.623047 0)"/>
       <use xlink:href="#DejaVuSans-30" transform="translate(127.246094 0)"/>
      </g>
     </g>
    </g>
    <g id="text_10">
     <!-- Epochs -->
     <g transform="translate(304.865625 604.994688) scale(0.1 -0.1)">
      <defs>
       <path id="DejaVuSans-45" d="M 628 4666 
L 3578 4666 
L 3578 4134 
L 1259 4134 
L 1259 2753 
L 3481 2753 
L 3481 2222 
L 1259 2222 
L 1259 531 
L 3634 531 
L 3634 0 
L 628 0 
L 628 4666 
z
" transform="scale(0.015625)"/>
       <path id="DejaVuSans-70" d="M 1159 525 
L 1159 -1331 
L 581 -1331 
L 581 3500 
L 1159 3500 
L 1159 2969 
Q 1341 3281 1617 3432 
Q 1894 3584 2278 3584 
Q 2916 3584 3314 3078 
Q 3713 2572 3713 1747 
Q 3713 922 3314 415 
Q 2916 -91 2278 -91 
Q 1894 -91 1617 61 
Q 1341 213 1159 525 
z
M 3116 1747 
Q 3116 2381 2855 2742 
Q 2594 3103 2138 3103 
Q 1681 3103 1420 2742 
Q 1159 2381 1159 1747 
Q 1159 1113 1420 752 
Q 1681 391 2138 391 
Q 2594 391 2855 752 
Q 3116 1113 3116 1747 
z
" transform="scale(0.015625)"/>
       <path id="DejaVuSans-6f" d="M 1959 3097 
Q 1497 3097 1228 2736 
Q 959 2375 959 1747 
Q 959 1119 1226 758 
Q 1494 397 1959 397 
Q 2419 397 2687 759 
Q 2956 1122 2956 1747 
Q 2956 2369 2687 2733 
Q 2419 3097 1959 3097 
z
M 1959 3584 
Q 2709 3584 3137 3096 
Q 3566 2609 3566 1747 
Q 3566 888 3137 398 
Q 2709 -91 1959 -91 
Q 1206 -91 779 398 
Q 353 888 353 1747 
Q 353 2609 779 3096 
Q 1206 3584 1959 3584 
z
" transform="scale(0.015625)"/>
       <path id="DejaVuSans-63" d="M 3122 3366 
L 3122 2828 
Q 2878 2963 2633 3030 
Q 2388 3097 2138 3097 
Q 1578 3097 1268 2742 
Q 959 2388 959 1747 
Q 959 1106 1268 751 
Q 1578 397 2138 397 
Q 2388 397 2633 464 
Q 2878 531 3122 666 
L 3122 134 
Q 2881 22 2623 -34 
Q 2366 -91 2075 -91 
Q 1284 -91 818 406 
Q 353 903 353 1747 
Q 353 2603 823 3093 
Q 1294 3584 2113 3584 
Q 2378 3584 2631 3529 
Q 2884 3475 3122 3366 
z
" transform="scale(0.015625)"/>
       <path id="DejaVuSans-68" d="M 3513 2113 
L 3513 0 
L 2938 0 
L 2938 2094 
Q 2938 2591 2744 2837 
Q 2550 3084 2163 3084 
Q 1697 3084 1428 2787 
Q 1159 2491 1159 1978 
L 1159 0 
L 581 0 
L 581 4863 
L 1159 4863 
L 1159 2956 
Q 1366 3272 1645 3428 
Q 1925 3584 2291 3584 
Q 2894 3584 3203 3211 
Q 3513 2838 3513 2113 
z
" transform="scale(0.015625)"/>
       <path id="DejaVuSans-73" d="M 2834 3397 
L 2834 2853 
Q 2591 2978 2328 3040 
Q 2066 3103 1784 3103 
Q 1356 3103 1142 2972 
Q 928 2841 928 2578 
Q 928 2378 1081 2264 
Q 1234 2150 1697 2047 
L 1894 2003 
Q 2506 1872 2764 1633 
Q 3022 1394 3022 966 
Q 3022 478 2636 193 
Q 2250 -91 1575 -91 
Q 1294 -91 989 -36 
Q 684 19 347 128 
L 347 722 
Q 666 556 975 473 
Q 1284 391 1588 391 
Q 1994 391 2212 530 
Q 2431 669 2431 922 
Q 2431 1156 2273 1281 
Q 2116 1406 1581 1522 
L 1381 1569 
Q 847 1681 609 1914 
Q 372 2147 372 2553 
Q 372 3047 722 3315 
Q 1072 3584 1716 3584 
Q 2034 3584 2315 3537 
Q 2597 3491 2834 3397 
z
" transform="scale(0.015625)"/>
      </defs>
      <use xlink:href="#DejaVuSans-45"/>
      <use xlink:href="#DejaVuSans-70" transform="translate(63.183594 0)"/>
      <use xlink:href="#DejaVuSans-6f" transform="translate(126.660156 0)"/>
      <use xlink:href="#DejaVuSans-63" transform="translate(187.841797 0)"/>
      <use xlink:href="#DejaVuSans-68" transform="translate(242.822266 0)"/>
      <use xlink:href="#DejaVuSans-73" transform="translate(306.201172 0)"/>
     </g>
    </g>
   </g>
   <g id="matplotlib.axis_2">
    <g id="ytick_1">
     <g id="line2d_19">
      <path d="M 43.78125 573.816209 
L 601.78125 573.816209 
" clip-path="url(#p6a8262f03b)" style="fill: none; stroke: #b0b0b0; stroke-width: 0.8; stroke-linecap: square"/>
     </g>
     <g id="line2d_20">
      <defs>
       <path id="mcb8fd8c06a" d="M 0 0 
L -3.5 0 
" style="stroke: #000000; stroke-width: 0.8"/>
      </defs>
      <g>
       <use xlink:href="#mcb8fd8c06a" x="43.78125" y="573.816209" style="stroke: #000000; stroke-width: 0.8"/>
      </g>
     </g>
     <g id="text_11">
      <!-- 0.5 -->
      <g transform="translate(20.878125 577.615428) scale(0.1 -0.1)">
       <defs>
        <path id="DejaVuSans-2e" d="M 684 794 
L 1344 794 
L 1344 0 
L 684 0 
L 684 794 
z
" transform="scale(0.015625)"/>
       </defs>
       <use xlink:href="#DejaVuSans-30"/>
       <use xlink:href="#DejaVuSans-2e" transform="translate(63.623047 0)"/>
       <use xlink:href="#DejaVuSans-35" transform="translate(95.410156 0)"/>
      </g>
     </g>
    </g>
    <g id="ytick_2">
     <g id="line2d_21">
      <path d="M 43.78125 454.98232 
L 601.78125 454.98232 
" clip-path="url(#p6a8262f03b)" style="fill: none; stroke: #b0b0b0; stroke-width: 0.8; stroke-linecap: square"/>
     </g>
     <g id="line2d_22">
      <g>
       <use xlink:href="#mcb8fd8c06a" x="43.78125" y="454.98232" style="stroke: #000000; stroke-width: 0.8"/>
      </g>
     </g>
     <g id="text_12">
      <!-- 0.6 -->
      <g transform="translate(20.878125 458.781539) scale(0.1 -0.1)">
       <use xlink:href="#DejaVuSans-30"/>
       <use xlink:href="#DejaVuSans-2e" transform="translate(63.623047 0)"/>
       <use xlink:href="#DejaVuSans-36" transform="translate(95.410156 0)"/>
      </g>
     </g>
    </g>
    <g id="ytick_3">
     <g id="line2d_23">
      <path d="M 43.78125 336.148432 
L 601.78125 336.148432 
" clip-path="url(#p6a8262f03b)" style="fill: none; stroke: #b0b0b0; stroke-width: 0.8; stroke-linecap: square"/>
     </g>
     <g id="line2d_24">
      <g>
       <use xlink:href="#mcb8fd8c06a" x="43.78125" y="336.148432" style="stroke: #000000; stroke-width: 0.8"/>
      </g>
     </g>
     <g id="text_13">
      <!-- 0.7 -->
      <g transform="translate(20.878125 339.94765) scale(0.1 -0.1)">
       <use xlink:href="#DejaVuSans-30"/>
       <use xlink:href="#DejaVuSans-2e" transform="translate(63.623047 0)"/>
       <use xlink:href="#DejaVuSans-37" transform="translate(95.410156 0)"/>
      </g>
     </g>
    </g>
    <g id="ytick_4">
     <g id="line2d_25">
      <path d="M 43.78125 217.314543 
L 601.78125 217.314543 
" clip-path="url(#p6a8262f03b)" style="fill: none; stroke: #b0b0b0; stroke-width: 0.8; stroke-linecap: square"/>
     </g>
     <g id="line2d_26">
      <g>
       <use xlink:href="#mcb8fd8c06a" x="43.78125" y="217.314543" style="stroke: #000000; stroke-width: 0.8"/>
      </g>
     </g>
     <g id="text_14">
      <!-- 0.8 -->
      <g transform="translate(20.878125 221.113761) scale(0.1 -0.1)">
       <use xlink:href="#DejaVuSans-30"/>
       <use xlink:href="#DejaVuSans-2e" transform="translate(63.623047 0)"/>
       <use xlink:href="#DejaVuSans-38" transform="translate(95.410156 0)"/>
      </g>
     </g>
    </g>
    <g id="ytick_5">
     <g id="line2d_27">
      <path d="M 43.78125 98.480654 
L 601.78125 98.480654 
" clip-path="url(#p6a8262f03b)" style="fill: none; stroke: #b0b0b0; stroke-width: 0.8; stroke-linecap: square"/>
     </g>
     <g id="line2d_28">
      <g>
       <use xlink:href="#mcb8fd8c06a" x="43.78125" y="98.480654" style="stroke: #000000; stroke-width: 0.8"/>
      </g>
     </g>
     <g id="text_15">
      <!-- 0.9 -->
      <g transform="translate(20.878125 102.279873) scale(0.1 -0.1)">
       <defs>
        <path id="DejaVuSans-39" d="M 703 97 
L 703 672 
Q 941 559 1184 500 
Q 1428 441 1663 441 
Q 2288 441 2617 861 
Q 2947 1281 2994 2138 
Q 2813 1869 2534 1725 
Q 2256 1581 1919 1581 
Q 1219 1581 811 2004 
Q 403 2428 403 3163 
Q 403 3881 828 4315 
Q 1253 4750 1959 4750 
Q 2769 4750 3195 4129 
Q 3622 3509 3622 2328 
Q 3622 1225 3098 567 
Q 2575 -91 1691 -91 
Q 1453 -91 1209 -44 
Q 966 3 703 97 
z
M 1959 2075 
Q 2384 2075 2632 2365 
Q 2881 2656 2881 3163 
Q 2881 3666 2632 3958 
Q 2384 4250 1959 4250 
Q 1534 4250 1286 3958 
Q 1038 3666 1038 3163 
Q 1038 2656 1286 2365 
Q 1534 2075 1959 2075 
z
" transform="scale(0.015625)"/>
       </defs>
       <use xlink:href="#DejaVuSans-30"/>
       <use xlink:href="#DejaVuSans-2e" transform="translate(63.623047 0)"/>
       <use xlink:href="#DejaVuSans-39" transform="translate(95.410156 0)"/>
      </g>
     </g>
    </g>
    <g id="text_16">
     <!-- Loss -->
     <g transform="translate(14.798438 310.485313) rotate(-90) scale(0.1 -0.1)">
      <defs>
       <path id="DejaVuSans-4c" d="M 628 4666 
L 1259 4666 
L 1259 531 
L 3531 531 
L 3531 0 
L 628 0 
L 628 4666 
z
" transform="scale(0.015625)"/>
      </defs>
      <use xlink:href="#DejaVuSans-4c"/>
      <use xlink:href="#DejaVuSans-6f" transform="translate(53.962891 0)"/>
      <use xlink:href="#DejaVuSans-73" transform="translate(115.144531 0)"/>
      <use xlink:href="#DejaVuSans-73" transform="translate(167.244141 0)"/>
     </g>
    </g>
   </g>
   <g id="line2d_29">
    <path d="M 69.144886 341.006003 
L 69.779771 343.611928 
L 71.04954 345.124301 
L 72.954193 347.050254 
L 74.223962 347.986775 
L 78.03327 350.313558 
L 85.651884 354.907979 
L 92.635613 359.533637 
L 109.142611 371.752255 
L 113.586802 375.193698 
L 116.761225 377.633809 
L 129.458915 387.424641 
L 142.156606 396.899851 
L 158.028718 408.083919 
L 163.742679 411.946803 
L 178.979907 421.760655 
L 180.249676 422.525837 
L 185.963637 426.014594 
L 187.868291 427.155461 
L 192.312482 429.838096 
L 196.756674 432.419231 
L 199.931096 434.251545 
L 209.454364 439.596204 
L 211.993902 440.944321 
L 218.977632 444.67716 
L 228.5009 449.551362 
L 231.040438 450.814766 
L 232.310207 451.443175 
L 239.293936 454.829582 
L 240.563705 455.45629 
L 250.086973 459.879868 
L 256.435818 462.782503 
L 258.340472 463.631123 
L 264.689317 466.394363 
L 267.863739 467.776338 
L 269.133509 468.299209 
L 271.673047 469.396161 
L 299.607965 480.56415 
L 301.512619 481.254748 
L 304.052157 482.271803 
L 307.861464 483.618645 
L 312.94054 485.504295 
L 316.114963 486.607693 
L 317.384732 487.134814 
L 321.194039 488.4376 
L 329.447537 491.289449 
L 333.256844 492.623258 
L 335.161498 493.258325 
L 345.31965 496.602446 
L 354.208033 499.446008 
L 357.382456 500.407532 
L 359.921994 501.268902 
L 363.731301 502.370812 
L 366.905724 503.369806 
L 370.715031 504.489778 
L 373.889453 505.456331 
L 375.159222 505.802338 
L 375.794107 506.060303 
L 377.698761 506.546696 
L 385.952259 508.960813 
L 391.031335 510.360849 
L 394.205758 511.312032 
L 395.475527 511.614124 
L 401.824372 513.302865 
L 403.094141 513.727282 
L 429.759291 520.69233 
L 431.02906 521.002567 
L 432.298829 521.31833 
L 433.568598 521.623539 
L 434.838367 521.976629 
L 453.250018 526.401128 
L 455.789556 526.97953 
L 458.963978 527.715813 
L 460.233747 528.00211 
L 462.773285 528.630943 
L 471.661669 530.640688 
L 474.201207 531.237365 
L 478.645398 532.209938 
L 489.438435 534.549754 
L 490.708204 534.827905 
L 491.977973 535.016173 
L 493.247742 535.396249 
L 496.422165 536.076576 
L 503.405894 537.525698 
L 506.580317 538.182793 
L 509.75474 538.814034 
L 511.024509 539.058045 
L 512.929162 539.521419 
L 514.833816 539.837464 
L 528.166391 542.504304 
L 543.403619 545.460203 
L 550.387349 546.759093 
L 551.657118 546.977889 
L 558.005963 548.186541 
L 561.180385 548.718407 
L 566.259461 549.675965 
L 576.417614 551.518125 
L 576.417614 551.518125 
" clip-path="url(#p6a8262f03b)" style="fill: none; stroke: #1f77b4; stroke-width: 1.5; stroke-linecap: square"/>
   </g>
   <g id="line2d_30">
    <path d="M 69.144886 342.955329 
L 69.779771 343.555476 
L 72.319309 345.025564 
L 73.589078 345.571384 
L 74.858847 345.717436 
L 75.493732 345.778421 
L 76.128616 345.695762 
L 80.572808 345.828498 
L 81.207692 345.682658 
L 81.842577 345.721828 
L 88.191422 344.893181 
L 90.73096 344.292539 
L 91.365844 344.236299 
L 93.905382 343.484717 
L 94.540267 343.486912 
L 95.175151 343.200261 
L 95.810036 343.055767 
L 97.71469 342.38741 
L 98.984459 341.922195 
L 99.619343 341.527032 
L 102.158881 340.687053 
L 102.793766 340.191948 
L 103.42865 340.083294 
L 104.063535 339.857557 
L 104.698419 339.488459 
L 105.333304 339.313578 
L 105.968188 338.863096 
L 107.237957 338.343342 
L 109.142611 337.479989 
L 109.777495 337.087446 
L 111.047264 336.522856 
L 111.682149 335.94155 
L 112.951918 335.650153 
L 113.586802 334.908983 
L 114.221687 334.639756 
L 114.856571 334.576008 
L 115.491456 333.854174 
L 116.761225 333.049327 
L 117.396109 332.889109 
L 118.030994 332.341872 
L 118.665879 332.276425 
L 120.570532 330.847277 
L 121.205417 330.625578 
L 121.840301 329.942701 
L 122.475186 329.687569 
L 123.11007 329.000017 
L 123.744955 328.955465 
L 124.379839 328.525524 
L 125.014724 327.865313 
L 125.649608 327.664366 
L 126.284493 326.928367 
L 126.919377 326.796976 
L 127.554262 326.528953 
L 128.189146 325.926894 
L 128.824031 325.727577 
L 129.458915 324.971036 
L 130.0938 324.762015 
L 131.363569 323.500878 
L 131.998453 323.320756 
L 132.633338 322.774298 
L 133.268222 322.521646 
L 133.903107 321.747043 
L 134.537991 321.565009 
L 135.80776 320.854366 
L 136.442645 319.756635 
L 137.077529 319.909346 
L 137.712414 319.428477 
L 138.347298 318.678878 
L 138.982183 318.240933 
L 139.617067 318.107701 
L 140.886837 316.720202 
L 141.521721 316.699023 
L 142.156606 316.066648 
L 143.426375 315.437815 
L 144.061259 314.486207 
L 145.331028 313.926221 
L 145.965913 313.321187 
L 146.600797 312.915469 
L 147.235682 312.143488 
L 147.870566 312.067416 
L 148.505451 311.443753 
L 149.140335 311.15186 
L 149.77522 310.159596 
L 150.410104 310.281778 
L 151.044989 309.082334 
L 151.679873 309.164285 
L 152.314758 308.631569 
L 152.949642 308.421981 
L 154.219411 307.239962 
L 155.48918 306.525565 
L 156.124065 305.778232 
L 156.758949 304.825279 
L 157.393834 304.8058 
L 158.028718 304.48763 
L 158.663603 303.782583 
L 159.298487 303.591411 
L 159.933372 303.109197 
L 160.568256 302.34614 
L 161.203141 301.86428 
L 161.838026 301.687699 
L 162.47291 300.602151 
L 163.107795 300.910547 
L 163.742679 300.558377 
L 164.377564 299.706003 
L 165.012448 299.371116 
L 165.647333 299.171374 
L 166.282217 297.930565 
L 166.917102 297.94551 
L 168.186871 296.925126 
L 168.821755 295.978476 
L 169.45664 296.134374 
L 170.726409 294.890165 
L 171.361293 294.506901 
L 171.996178 293.8083 
L 172.631062 293.717283 
L 173.265947 293.119615 
L 173.900831 293.154463 
L 174.535716 292.288631 
L 175.805485 291.159451 
L 176.440369 290.526368 
L 177.075254 290.35765 
L 177.710138 289.966028 
L 178.345023 288.919436 
L 178.979907 289.004574 
L 180.249676 287.586831 
L 182.15433 286.412815 
L 182.789215 285.889519 
L 183.424099 285.517021 
L 184.693868 284.059471 
L 185.328753 284.060108 
L 185.963637 283.547083 
L 186.598522 282.812287 
L 187.233406 283.293085 
L 187.868291 282.628411 
L 188.503175 281.399006 
L 189.13806 280.908363 
L 189.772944 280.772652 
L 190.407829 279.679878 
L 191.042713 279.945634 
L 191.677598 278.514504 
L 192.312482 278.668489 
L 193.582251 277.530739 
L 194.217136 277.533359 
L 194.85202 276.27888 
L 195.486905 276.863232 
L 196.121789 275.280807 
L 196.756674 275.302411 
L 197.391558 274.558619 
L 198.026443 274.041911 
L 198.661327 273.887642 
L 199.296212 273.568055 
L 199.931096 273.122035 
L 200.565981 272.283543 
L 201.83575 271.927974 
L 202.470634 270.956179 
L 203.105519 271.116185 
L 203.740403 270.044236 
L 205.010173 269.788751 
L 205.645057 268.68082 
L 206.914826 268.00283 
L 207.549711 267.042722 
L 208.184595 267.21647 
L 208.81948 265.927425 
L 209.454364 266.164636 
L 210.089249 265.308437 
L 210.724133 264.983963 
L 211.359018 264.082219 
L 211.993902 263.833108 
L 212.628787 263.413083 
L 213.263671 263.236149 
L 215.168325 260.916803 
L 217.072978 260.63851 
L 218.342747 259.272331 
L 218.977632 258.612049 
L 219.612516 258.634361 
L 220.247401 257.725747 
L 221.51717 257.261949 
L 222.152054 256.307366 
L 222.786939 255.649067 
L 223.421823 256.372742 
L 224.056708 255.346125 
L 224.691592 255.01995 
L 225.961362 253.917261 
L 227.866015 252.065326 
L 228.5009 251.909003 
L 229.135784 251.550601 
L 229.770669 250.813822 
L 230.405553 250.574202 
L 231.040438 250.027107 
L 231.675322 249.191095 
L 232.310207 249.42349 
L 232.945091 248.462815 
L 234.21486 247.702804 
L 234.849745 247.084453 
L 235.484629 246.981962 
L 236.119514 246.199143 
L 236.754398 245.819987 
L 237.389283 245.597721 
L 238.024167 244.971083 
L 238.659052 244.553821 
L 239.293936 243.819804 
L 240.563705 243.025511 
L 241.19859 242.228596 
L 242.468359 241.825996 
L 243.103243 241.481193 
L 243.738128 240.531072 
L 244.373012 240.785495 
L 245.007897 240.068761 
L 245.642781 239.548865 
L 246.277666 239.469819 
L 246.91255 239.075576 
L 247.547435 238.300123 
L 248.18232 238.072262 
L 249.452089 236.37325 
L 250.086973 235.833521 
L 250.721858 236.234281 
L 251.991627 234.770214 
L 252.626511 234.342397 
L 253.261396 234.589383 
L 255.166049 232.393071 
L 255.800934 232.038068 
L 256.435818 231.908803 
L 257.070703 230.927729 
L 257.705587 230.607575 
L 258.340472 229.523302 
L 258.975356 229.85663 
L 260.245125 228.986902 
L 260.88001 229.47542 
L 261.514894 228.049885 
L 262.149779 227.817774 
L 262.784663 227.313673 
L 263.419548 227.433235 
L 264.054432 227.180441 
L 264.689317 226.055935 
L 265.959086 225.271912 
L 266.59397 224.279931 
L 267.228855 224.122333 
L 267.863739 223.200332 
L 268.498624 223.078433 
L 269.133509 223.739494 
L 269.768393 222.617184 
L 270.403278 222.467732 
L 271.038162 221.708783 
L 271.673047 220.464645 
L 272.307931 220.303293 
L 272.942816 221.018327 
L 273.5777 220.054607 
L 274.212585 219.746919 
L 274.847469 219.772489 
L 275.482354 218.162795 
L 276.117238 218.444842 
L 276.752123 217.896189 
L 277.387007 217.871044 
L 278.656776 216.32368 
L 279.291661 216.29294 
L 280.56143 215.26271 
L 281.196314 215.099658 
L 281.831199 214.476208 
L 282.466083 214.080832 
L 283.100968 214.198836 
L 283.735852 213.24312 
L 285.640506 211.765524 
L 286.27539 211.642775 
L 286.910275 211.035899 
L 287.545159 211.191514 
L 288.180044 210.110711 
L 288.814928 209.662354 
L 289.449813 210.39807 
L 290.084697 209.103147 
L 291.354467 207.753613 
L 291.989351 207.384798 
L 292.624236 206.512379 
L 293.25912 207.210343 
L 293.894005 206.501683 
L 295.163774 206.205895 
L 295.798658 204.704076 
L 296.433543 204.110658 
L 297.068427 204.154573 
L 298.338196 203.913041 
L 298.973081 203.321393 
L 299.607965 202.408955 
L 300.24285 201.826869 
L 300.877734 201.864622 
L 301.512619 201.318944 
L 302.147503 201.321494 
L 302.782388 201.210856 
L 303.417272 200.252307 
L 304.052157 199.87733 
L 304.687041 198.804673 
L 305.321926 199.144872 
L 305.95681 198.541962 
L 306.591695 198.124771 
L 307.226579 197.332106 
L 307.861464 197.14823 
L 308.496348 195.782405 
L 309.131233 197.495654 
L 310.401002 194.935131 
L 311.035886 195.305716 
L 311.670771 195.341769 
L 312.305656 194.133613 
L 312.94054 193.977148 
L 313.575425 193.117195 
L 314.210309 192.765238 
L 314.845194 192.197744 
L 315.480078 192.796687 
L 316.114963 192.142284 
L 316.749847 191.280772 
L 317.384732 190.873992 
L 318.019616 190.785454 
L 318.654501 190.086003 
L 319.289385 189.035799 
L 319.92427 189.743325 
L 320.559154 188.63504 
L 321.194039 188.352497 
L 322.463808 188.119039 
L 323.098692 186.589808 
L 323.733577 186.822133 
L 324.368461 187.394018 
L 325.003346 185.873712 
L 325.63823 186.342681 
L 326.273115 184.469709 
L 326.907999 184.899226 
L 327.542884 183.690574 
L 328.812653 183.820194 
L 329.447537 183.326292 
L 330.082422 182.082933 
L 330.717306 182.640228 
L 331.352191 182.379218 
L 331.987075 181.637693 
L 332.62196 181.262716 
L 333.256844 180.303246 
L 333.891729 180.485351 
L 334.526614 180.083671 
L 335.161498 180.159247 
L 335.796383 178.873178 
L 336.431267 178.482689 
L 337.066152 178.586172 
L 338.335921 177.534906 
L 338.970805 177.807745 
L 339.60569 177.225518 
L 340.875459 175.534794 
L 341.510343 175.44321 
L 342.145228 175.003069 
L 342.780112 174.366444 
L 343.414997 174.537571 
L 344.049881 174.121937 
L 344.684766 173.178546 
L 345.31965 173.564997 
L 345.954535 173.045172 
L 346.589419 171.492142 
L 347.224304 171.074242 
L 347.859188 171.182967 
L 348.494073 170.997674 
L 349.128957 171.489309 
L 349.763842 170.217759 
L 350.398726 170.480045 
L 351.033611 169.536228 
L 351.668495 169.646865 
L 352.30338 168.910015 
L 352.938264 168.796899 
L 353.573149 167.916051 
L 354.842918 166.926903 
L 355.477803 167.266677 
L 356.112687 165.827117 
L 356.747572 165.533737 
L 357.382456 165.60733 
L 358.017341 165.148561 
L 358.652225 164.948819 
L 359.921994 164.077391 
L 360.556879 163.292093 
L 361.191763 163.496935 
L 361.826648 162.603266 
L 362.461532 163.392035 
L 363.096417 161.897936 
L 363.731301 161.833409 
L 364.366186 160.310482 
L 365.00107 160.742974 
L 366.270839 159.447767 
L 367.540608 160.047489 
L 368.175493 158.874181 
L 368.810377 158.707588 
L 369.445262 157.358762 
L 370.715031 157.349625 
L 371.349915 157.563817 
L 371.9848 156.101946 
L 372.619684 156.450573 
L 373.889453 155.899583 
L 374.524338 154.555503 
L 375.159222 154.339186 
L 375.794107 155.084111 
L 376.428991 154.087455 
L 377.698761 153.218152 
L 378.333645 152.260877 
L 378.96853 153.202498 
L 379.603414 151.734465 
L 380.238299 152.06149 
L 380.873183 150.650616 
L 381.508068 151.235039 
L 382.142952 151.422102 
L 382.777837 150.909148 
L 383.412721 150.605922 
L 384.047606 149.926091 
L 384.68249 148.541425 
L 385.317375 149.059692 
L 385.952259 148.403802 
L 386.587144 148.320647 
L 387.222028 147.6071 
L 387.856913 147.067938 
L 388.491797 146.321597 
L 389.126682 146.007039 
L 389.761566 145.494651 
L 390.396451 145.470497 
L 391.031335 144.89422 
L 391.66622 145.610246 
L 392.301104 144.102406 
L 392.935989 144.997633 
L 393.570873 144.450821 
L 394.205758 142.825898 
L 394.840642 142.568713 
L 396.110411 141.686023 
L 396.745296 141.758128 
L 397.38018 141.656911 
L 398.015065 141.111233 
L 398.64995 141.126603 
L 399.284834 140.818137 
L 399.919719 141.005554 
L 401.189488 138.817245 
L 401.824372 139.566065 
L 402.459257 138.91747 
L 403.094141 138.711495 
L 403.729026 138.177929 
L 404.36391 138.070408 
L 404.998795 136.825845 
L 405.633679 136.234765 
L 406.268564 136.810829 
L 407.538333 135.914115 
L 408.173217 134.579951 
L 408.808102 134.607079 
L 409.442986 135.071515 
L 410.077871 134.394021 
L 410.712755 134.104962 
L 411.34764 134.475972 
L 411.982524 132.402054 
L 412.617409 132.954816 
L 413.252293 131.930323 
L 413.887178 131.7808 
L 414.522062 131.376429 
L 415.156947 131.621715 
L 415.791831 130.445361 
L 417.0616 130.445928 
L 417.696485 129.922916 
L 418.331369 130.253198 
L 418.966254 128.70031 
L 420.236023 128.114967 
L 420.870908 128.370381 
L 421.505792 127.328889 
L 422.140677 127.9993 
L 422.775561 126.58014 
L 423.410446 127.510003 
L 424.04533 126.035524 
L 424.680215 126.085885 
L 425.315099 124.762558 
L 425.949984 124.940555 
L 426.584868 125.572576 
L 427.219753 124.344871 
L 427.854637 123.640249 
L 428.489522 123.140893 
L 429.759291 123.379592 
L 430.394175 123.052568 
L 431.663944 121.379126 
L 432.298829 121.938829 
L 432.933713 120.869005 
L 433.568598 121.008966 
L 434.203482 121.323099 
L 434.838367 119.968253 
L 435.473251 119.786148 
L 436.108136 120.003314 
L 436.74302 120.460738 
L 437.377905 119.606876 
L 438.012789 120.119547 
L 438.647674 117.142824 
L 439.282558 117.658399 
L 439.917443 117.45554 
L 441.822097 116.100128 
L 442.456981 116.203469 
L 443.091866 115.531783 
L 443.72675 115.464849 
L 444.361635 115.273465 
L 444.996519 114.928024 
L 445.631404 114.332198 
L 446.266288 113.484498 
L 446.901173 112.450019 
L 447.536057 113.112992 
L 448.170942 113.573957 
L 448.805826 112.95844 
L 449.440711 112.090837 
L 450.075595 112.520141 
L 450.71048 112.272942 
L 451.345364 111.690503 
L 451.980249 110.869577 
L 452.615133 110.450615 
L 453.250018 109.495323 
L 453.884902 109.868954 
L 454.519787 109.651646 
L 455.154671 108.890714 
L 455.789556 109.4643 
L 456.42444 107.97353 
L 457.059325 108.478481 
L 457.694209 108.113491 
L 458.329094 106.335432 
L 458.963978 107.681 
L 459.598863 106.316946 
L 460.233747 105.424056 
L 460.868632 106.518671 
L 461.503516 105.906483 
L 462.138401 105.802999 
L 462.773285 106.246753 
L 463.40817 105.645402 
L 464.043055 103.758547 
L 464.677939 104.046828 
L 465.312824 104.74975 
L 465.947708 103.502637 
L 466.582593 103.039193 
L 467.217477 102.844692 
L 467.852362 101.764597 
L 468.487246 102.557191 
L 469.122131 101.314824 
L 469.757015 101.689659 
L 470.3919 101.750644 
L 471.026784 101.474972 
L 471.661669 100.462662 
L 472.296553 100.988224 
L 472.931438 100.730472 
L 473.566322 99.581459 
L 474.201207 98.914873 
L 474.836091 98.487269 
L 475.470976 98.617456 
L 476.10586 98.120934 
L 476.740745 97.17393 
L 477.375629 98.292981 
L 478.010514 96.097944 
L 478.645398 96.072161 
L 479.280283 96.845985 
L 479.915167 95.727713 
L 481.184936 95.334249 
L 481.819821 94.932498 
L 482.454705 93.882082 
L 483.08959 94.325622 
L 483.724474 93.361265 
L 484.359359 93.527362 
L 484.994244 93.818759 
L 485.629128 92.155517 
L 486.264013 92.438556 
L 486.898897 92.577029 
L 487.533782 91.809581 
L 488.803551 91.087889 
L 489.438435 90.59675 
L 490.07332 91.812981 
L 490.708204 90.765256 
L 491.343089 90.714328 
L 491.977973 89.992141 
L 493.247742 87.83698 
L 493.882627 89.412464 
L 494.517511 88.667681 
L 495.152396 88.54734 
L 495.78728 87.466112 
L 496.422165 85.723327 
L 497.057049 87.844063 
L 497.691934 86.671323 
L 498.326818 85.764834 
L 498.961703 86.639874 
L 499.596587 86.147248 
L 500.231472 84.690689 
L 500.866356 85.209452 
L 501.501241 84.551082 
L 502.136125 85.65703 
L 502.77101 83.800278 
L 503.405894 84.178442 
L 504.040779 83.23243 
L 504.675663 83.127318 
L 505.310548 82.396559 
L 505.945433 82.476244 
L 507.215202 81.270991 
L 507.850086 80.020195 
L 508.484971 81.424764 
L 509.119855 80.709518 
L 509.75474 81.225022 
L 510.389624 80.1042 
L 511.024509 80.523588 
L 511.659393 79.95751 
L 512.294278 78.912194 
L 512.929162 79.236526 
L 513.564047 78.629226 
L 514.198931 78.505272 
L 514.833816 78.050824 
L 515.4687 77.793213 
L 516.103585 76.153345 
L 516.738469 77.522924 
L 517.373354 77.615995 
L 518.008238 77.225506 
L 518.643123 77.854269 
L 519.278007 75.930654 
L 519.912892 75.955799 
L 520.547776 74.701107 
L 521.182661 75.305574 
L 521.817545 74.023967 
L 522.45243 74.728731 
L 523.087314 73.499325 
L 523.722199 73.811688 
L 524.357083 74.727243 
L 524.991968 73.906955 
L 525.626852 72.125497 
L 526.261737 71.162202 
L 526.896621 72.009335 
L 527.531506 70.711224 
L 528.166391 72.626127 
L 528.801275 70.246576 
L 529.43616 71.409188 
L 530.071044 70.14118 
L 530.705929 70.117168 
L 531.340813 69.449661 
L 531.975698 68.499966 
L 532.610582 68.8867 
L 533.245467 68.150063 
L 533.880351 69.107692 
L 534.515236 67.898686 
L 535.15012 66.979093 
L 535.785005 68.584325 
L 536.419889 66.512107 
L 537.054774 66.861443 
L 538.324543 65.297789 
L 538.959427 66.039809 
L 539.594312 65.239566 
L 540.229196 64.945265 
L 540.864081 65.11023 
L 541.498965 63.238746 
L 542.13385 63.7636 
L 542.768734 64.545073 
L 543.403619 63.742634 
L 544.038503 63.379769 
L 544.673388 62.032219 
L 545.943157 62.988077 
L 546.578041 60.916709 
L 547.212926 61.166599 
L 547.84781 61.705478 
L 548.482695 60.154785 
L 549.11758 61.713056 
L 549.752464 58.9467 
L 551.022233 60.517437 
L 551.657118 59.330247 
L 552.292002 60.181701 
L 552.926887 59.211606 
L 553.561771 57.71517 
L 554.196656 59.780233 
L 555.466425 58.093121 
L 556.101309 57.706245 
L 556.736194 58.403713 
L 557.371078 57.180045 
L 558.005963 56.266969 
L 558.640847 56.508643 
L 559.275732 54.503501 
L 559.910616 55.567447 
L 560.545501 55.080983 
L 561.180385 54.30553 
L 561.81527 55.424581 
L 562.450154 53.657785 
L 563.085039 53.92262 
L 563.719923 52.882333 
L 564.354808 53.464418 
L 564.989692 52.991766 
L 565.624577 53.059055 
L 566.894346 52.704548 
L 567.52923 51.906571 
L 568.164115 49.998256 
L 568.798999 51.773127 
L 569.433884 50.507527 
L 570.068768 51.39815 
L 570.703653 51.14656 
L 571.338538 51.382071 
L 571.973422 49.797309 
L 573.243191 49.44939 
L 573.878076 48.563371 
L 574.51296 51.257905 
L 575.147845 49.175701 
L 575.782729 47.518125 
L 576.417614 47.70873 
L 576.417614 47.70873 
" clip-path="url(#p6a8262f03b)" style="fill: none; stroke: #ff7f0e; stroke-width: 1.5; stroke-linecap: square"/>
   </g>
   <g id="patch_3">
    <path d="M 43.78125 576.718125 
L 43.78125 22.318125 
" style="fill: none; stroke: #000000; stroke-width: 0.8; stroke-linejoin: miter; stroke-linecap: square"/>
   </g>
   <g id="patch_4">
    <path d="M 601.78125 576.718125 
L 601.78125 22.318125 
" style="fill: none; stroke: #000000; stroke-width: 0.8; stroke-linejoin: miter; stroke-linecap: square"/>
   </g>
   <g id="patch_5">
    <path d="M 43.78125 576.718125 
L 601.78125 576.718125 
" style="fill: none; stroke: #000000; stroke-width: 0.8; stroke-linejoin: miter; stroke-linecap: square"/>
   </g>
   <g id="patch_6">
    <path d="M 43.78125 22.318125 
L 601.78125 22.318125 
" style="fill: none; stroke: #000000; stroke-width: 0.8; stroke-linejoin: miter; stroke-linecap: square"/>
   </g>
   <g id="text_17">
    <!-- Train and Val Loss -->
    <g transform="translate(269.235937 16.318125) scale(0.12 -0.12)">
     <defs>
      <path id="DejaVuSans-54" d="M -19 4666 
L 3928 4666 
L 3928 4134 
L 2272 4134 
L 2272 0 
L 1638 0 
L 1638 4134 
L -19 4134 
L -19 4666 
z
" transform="scale(0.015625)"/>
      <path id="DejaVuSans-72" d="M 2631 2963 
Q 2534 3019 2420 3045 
Q 2306 3072 2169 3072 
Q 1681 3072 1420 2755 
Q 1159 2438 1159 1844 
L 1159 0 
L 581 0 
L 581 3500 
L 1159 3500 
L 1159 2956 
Q 1341 3275 1631 3429 
Q 1922 3584 2338 3584 
Q 2397 3584 2469 3576 
Q 2541 3569 2628 3553 
L 2631 2963 
z
" transform="scale(0.015625)"/>
      <path id="DejaVuSans-61" d="M 2194 1759 
Q 1497 1759 1228 1600 
Q 959 1441 959 1056 
Q 959 750 1161 570 
Q 1363 391 1709 391 
Q 2188 391 2477 730 
Q 2766 1069 2766 1631 
L 2766 1759 
L 2194 1759 
z
M 3341 1997 
L 3341 0 
L 2766 0 
L 2766 531 
Q 2569 213 2275 61 
Q 1981 -91 1556 -91 
Q 1019 -91 701 211 
Q 384 513 384 1019 
Q 384 1609 779 1909 
Q 1175 2209 1959 2209 
L 2766 2209 
L 2766 2266 
Q 2766 2663 2505 2880 
Q 2244 3097 1772 3097 
Q 1472 3097 1187 3025 
Q 903 2953 641 2809 
L 641 3341 
Q 956 3463 1253 3523 
Q 1550 3584 1831 3584 
Q 2591 3584 2966 3190 
Q 3341 2797 3341 1997 
z
" transform="scale(0.015625)"/>
      <path id="DejaVuSans-69" d="M 603 3500 
L 1178 3500 
L 1178 0 
L 603 0 
L 603 3500 
z
M 603 4863 
L 1178 4863 
L 1178 4134 
L 603 4134 
L 603 4863 
z
" transform="scale(0.015625)"/>
      <path id="DejaVuSans-6e" d="M 3513 2113 
L 3513 0 
L 2938 0 
L 2938 2094 
Q 2938 2591 2744 2837 
Q 2550 3084 2163 3084 
Q 1697 3084 1428 2787 
Q 1159 2491 1159 1978 
L 1159 0 
L 581 0 
L 581 3500 
L 1159 3500 
L 1159 2956 
Q 1366 3272 1645 3428 
Q 1925 3584 2291 3584 
Q 2894 3584 3203 3211 
Q 3513 2838 3513 2113 
z
" transform="scale(0.015625)"/>
      <path id="DejaVuSans-20" transform="scale(0.015625)"/>
      <path id="DejaVuSans-64" d="M 2906 2969 
L 2906 4863 
L 3481 4863 
L 3481 0 
L 2906 0 
L 2906 525 
Q 2725 213 2448 61 
Q 2172 -91 1784 -91 
Q 1150 -91 751 415 
Q 353 922 353 1747 
Q 353 2572 751 3078 
Q 1150 3584 1784 3584 
Q 2172 3584 2448 3432 
Q 2725 3281 2906 2969 
z
M 947 1747 
Q 947 1113 1208 752 
Q 1469 391 1925 391 
Q 2381 391 2643 752 
Q 2906 1113 2906 1747 
Q 2906 2381 2643 2742 
Q 2381 3103 1925 3103 
Q 1469 3103 1208 2742 
Q 947 2381 947 1747 
z
" transform="scale(0.015625)"/>
      <path id="DejaVuSans-56" d="M 1831 0 
L 50 4666 
L 709 4666 
L 2188 738 
L 3669 4666 
L 4325 4666 
L 2547 0 
L 1831 0 
z
" transform="scale(0.015625)"/>
      <path id="DejaVuSans-6c" d="M 603 4863 
L 1178 4863 
L 1178 0 
L 603 0 
L 603 4863 
z
" transform="scale(0.015625)"/>
     </defs>
     <use xlink:href="#DejaVuSans-54"/>
     <use xlink:href="#DejaVuSans-72" transform="translate(46.333984 0)"/>
     <use xlink:href="#DejaVuSans-61" transform="translate(87.447266 0)"/>
     <use xlink:href="#DejaVuSans-69" transform="translate(148.726562 0)"/>
     <use xlink:href="#DejaVuSans-6e" transform="translate(176.509766 0)"/>
     <use xlink:href="#DejaVuSans-20" transform="translate(239.888672 0)"/>
     <use xlink:href="#DejaVuSans-61" transform="translate(271.675781 0)"/>
     <use xlink:href="#DejaVuSans-6e" transform="translate(332.955078 0)"/>
     <use xlink:href="#DejaVuSans-64" transform="translate(396.333984 0)"/>
     <use xlink:href="#DejaVuSans-20" transform="translate(459.810547 0)"/>
     <use xlink:href="#DejaVuSans-56" transform="translate(491.597656 0)"/>
     <use xlink:href="#DejaVuSans-61" transform="translate(552.255859 0)"/>
     <use xlink:href="#DejaVuSans-6c" transform="translate(613.535156 0)"/>
     <use xlink:href="#DejaVuSans-20" transform="translate(641.318359 0)"/>
     <use xlink:href="#DejaVuSans-4c" transform="translate(673.105469 0)"/>
     <use xlink:href="#DejaVuSans-6f" transform="translate(727.068359 0)"/>
     <use xlink:href="#DejaVuSans-73" transform="translate(788.25 0)"/>
     <use xlink:href="#DejaVuSans-73" transform="translate(840.349609 0)"/>
    </g>
   </g>
   <g id="legend_1">
    <g id="patch_7">
     <path d="M 50.78125 60.230625 
L 130.371875 60.230625 
Q 132.371875 60.230625 132.371875 58.230625 
L 132.371875 29.318125 
Q 132.371875 27.318125 130.371875 27.318125 
L 50.78125 27.318125 
Q 48.78125 27.318125 48.78125 29.318125 
L 48.78125 58.230625 
Q 48.78125 60.230625 50.78125 60.230625 
z
" style="fill: #ffffff; opacity: 0.8; stroke: #cccccc; stroke-linejoin: miter"/>
    </g>
    <g id="line2d_31">
     <path d="M 52.78125 35.416563 
L 62.78125 35.416563 
L 72.78125 35.416563 
" style="fill: none; stroke: #1f77b4; stroke-width: 1.5; stroke-linecap: square"/>
    </g>
    <g id="text_18">
     <!-- train_loss -->
     <g transform="translate(80.78125 38.916563) scale(0.1 -0.1)">
      <defs>
       <path id="DejaVuSans-74" d="M 1172 4494 
L 1172 3500 
L 2356 3500 
L 2356 3053 
L 1172 3053 
L 1172 1153 
Q 1172 725 1289 603 
Q 1406 481 1766 481 
L 2356 481 
L 2356 0 
L 1766 0 
Q 1100 0 847 248 
Q 594 497 594 1153 
L 594 3053 
L 172 3053 
L 172 3500 
L 594 3500 
L 594 4494 
L 1172 4494 
z
" transform="scale(0.015625)"/>
       <path id="DejaVuSans-5f" d="M 3263 -1063 
L 3263 -1509 
L -63 -1509 
L -63 -1063 
L 3263 -1063 
z
" transform="scale(0.015625)"/>
      </defs>
      <use xlink:href="#DejaVuSans-74"/>
      <use xlink:href="#DejaVuSans-72" transform="translate(39.208984 0)"/>
      <use xlink:href="#DejaVuSans-61" transform="translate(80.322266 0)"/>
      <use xlink:href="#DejaVuSans-69" transform="translate(141.601562 0)"/>
      <use xlink:href="#DejaVuSans-6e" transform="translate(169.384766 0)"/>
      <use xlink:href="#DejaVuSans-5f" transform="translate(232.763672 0)"/>
      <use xlink:href="#DejaVuSans-6c" transform="translate(282.763672 0)"/>
      <use xlink:href="#DejaVuSans-6f" transform="translate(310.546875 0)"/>
      <use xlink:href="#DejaVuSans-73" transform="translate(371.728516 0)"/>
      <use xlink:href="#DejaVuSans-73" transform="translate(423.828125 0)"/>
     </g>
    </g>
    <g id="line2d_32">
     <path d="M 52.78125 50.372813 
L 62.78125 50.372813 
L 72.78125 50.372813 
" style="fill: none; stroke: #ff7f0e; stroke-width: 1.5; stroke-linecap: square"/>
    </g>
    <g id="text_19">
     <!-- val_loss -->
     <g transform="translate(80.78125 53.872813) scale(0.1 -0.1)">
      <defs>
       <path id="DejaVuSans-76" d="M 191 3500 
L 800 3500 
L 1894 563 
L 2988 3500 
L 3597 3500 
L 2284 0 
L 1503 0 
L 191 3500 
z
" transform="scale(0.015625)"/>
      </defs>
      <use xlink:href="#DejaVuSans-76"/>
      <use xlink:href="#DejaVuSans-61" transform="translate(59.179688 0)"/>
      <use xlink:href="#DejaVuSans-6c" transform="translate(120.458984 0)"/>
      <use xlink:href="#DejaVuSans-5f" transform="translate(148.242188 0)"/>
      <use xlink:href="#DejaVuSans-6c" transform="translate(198.242188 0)"/>
      <use xlink:href="#DejaVuSans-6f" transform="translate(226.025391 0)"/>
      <use xlink:href="#DejaVuSans-73" transform="translate(287.207031 0)"/>
      <use xlink:href="#DejaVuSans-73" transform="translate(339.306641 0)"/>
     </g>
    </g>
   </g>
  </g>
 </g>
 <defs>
  <clipPath id="p6a8262f03b">
   <rect x="43.78125" y="22.318125" width="558" height="554.4"/>
  </clipPath>
 </defs>
</svg>
