<?xml version="1.0" encoding="utf-8" standalone="no"?>
<!DOCTYPE svg PUBLIC "-//W3C//DTD SVG 1.1//EN"
  "http://www.w3.org/Graphics/SVG/1.1/DTD/svg11.dtd">
<svg xmlns:xlink="http://www.w3.org/1999/xlink" width="621.70625pt" height="614.274375pt" viewBox="0 0 621.70625 614.274375" xmlns="http://www.w3.org/2000/svg" version="1.1">
 <metadata>
  <rdf:RDF xmlns:dc="http://purl.org/dc/elements/1.1/" xmlns:cc="http://creativecommons.org/ns#" xmlns:rdf="http://www.w3.org/1999/02/22-rdf-syntax-ns#">
   <cc:Work>
    <dc:type rdf:resource="http://purl.org/dc/dcmitype/StillImage"/>
    <dc:date>2026-05-25T00:48:08.611796</dc:date>
    <dc:format>image/svg+xml</dc:format>
    <dc:creator>
     <cc:Agent>
      <dc:title>Matplotlib v3.10.9, https://matplotlib.org/</dc:title>
     </cc:Agent>
    </dc:creator>
   </cc:Work>
  </rdf:RDF>
 </metadata>
 <defs>
  <style type="text/css">*{stroke-linejoin: round; stroke-linecap: butt}</style>
 </defs>
 <g id="figure_1">
  <g id="patch_1">
   <path d="M 0 614.274375 
L 621.70625 614.274375 
L 621.70625 0 
L 0 0 
z
" style="fill: #ffffff"/>
  </g>
  <g id="axes_1">
   <g id="patch_2">
    <path d="M 56.50625 576.718125 
L 614.50625 576.718125 
L 614.50625 22.318125 
L 56.50625 22.318125 
z
" style="fill: #ffffff"/>
   </g>
   <g id="matplotlib.axis_1">
    <g id="xtick_1">
     <g id="line2d_1">
      <path d="M 81.869886 576.718125 
L 81.869886 22.318125 
" clip-path="url(#pc1bf6a420a)" style="fill: none; stroke: #b0b0b0; stroke-width: 0.8; stroke-linecap: square"/>
     </g>
     <g id="line2d_2">
      <defs>
       <path id="m81db067719" d="M 0 0 
L 0 3.5 
" style="stroke: #000000; stroke-width: 0.8"/>
      </defs>
      <g>
       <use xlink:href="#m81db067719" x="81.869886" y="576.718125" style="stroke: #000000; stroke-width: 0.8"/>
      </g>
     </g>
     <g id="text_1">
      <!-- 0 -->
      <g transform="translate(78.688636 591.316563) scale(0.1 -0.1)">
       <defs>
        <path id="DejaVuSans-30" d="M 2034 4250 
Q 1547 4250 1301 3770 
Q 1056 3291 1056 2328 
Q 1056 1369 1301 889 
Q 1547 409 2034 409 
Q 2525 409 2770 889 
Q 3016 1369 3016 2328 
Q 3016 3291 2770 3770 
Q 2525 4250 2034 4250 
z
M 2034 4750 
Q 2819 4750 3233 4129 
Q 3647 3509 3647 2328 
Q 3647 1150 3233 529 
Q 2819 -91 2034 -91 
Q 1250 -91 836 529 
Q 422 1150 422 2328 
Q 422 3509 836 4129 
Q 1250 4750 2034 4750 
z
" transform="scale(0.015625)"/>
       </defs>
       <use xlink:href="#DejaVuSans-30"/>
      </g>
     </g>
    </g>
    <g id="xtick_2">
     <g id="line2d_3">
      <path d="M 145.358338 576.718125 
L 145.358338 22.318125 
" clip-path="url(#pc1bf6a420a)" style="fill: none; stroke: #b0b0b0; stroke-width: 0.8; stroke-linecap: square"/>
     </g>
     <g id="line2d_4">
      <g>
       <use xlink:href="#m81db067719" x="145.358338" y="576.718125" style="stroke: #000000; stroke-width: 0.8"/>
      </g>
     </g>
     <g id="text_2">
      <!-- 100 -->
      <g transform="translate(135.814588 591.316563) scale(0.1 -0.1)">
       <defs>
        <path id="DejaVuSans-31" d="M 794 531 
L 1825 531 
L 1825 4091 
L 703 3866 
L 703 4441 
L 1819 4666 
L 2450 4666 
L 2450 531 
L 3481 531 
L 3481 0 
L 794 0 
L 794 531 
z
" transform="scale(0.015625)"/>
       </defs>
       <use xlink:href="#DejaVuSans-31"/>
       <use xlink:href="#DejaVuSans-30" transform="translate(63.623047 0)"/>
       <use xlink:href="#DejaVuSans-30" transform="translate(127.246094 0)"/>
      </g>
     </g>
    </g>
    <g id="xtick_3">
     <g id="line2d_5">
      <path d="M 208.846789 576.718125 
L 208.846789 22.318125 
" clip-path="url(#pc1bf6a420a)" style="fill: none; stroke: #b0b0b0; stroke-width: 0.8; stroke-linecap: square"/>
     </g>
     <g id="line2d_6">
      <g>
       <use xlink:href="#m81db067719" x="208.846789" y="576.718125" style="stroke: #000000; stroke-width: 0.8"/>
      </g>
     </g>
     <g id="text_3">
      <!-- 200 -->
      <g transform="translate(199.303039 591.316563) scale(0.1 -0.1)">
       <defs>
        <path id="DejaVuSans-32" d="M 1228 531 
L 3431 531 
L 3431 0 
L 469 0 
L 469 531 
Q 828 903 1448 1529 
Q 2069 2156 2228 2338 
Q 2531 2678 2651 2914 
Q 2772 3150 2772 3378 
Q 2772 3750 2511 3984 
Q 2250 4219 1831 4219 
Q 1534 4219 1204 4116 
Q 875 4013 500 3803 
L 500 4441 
Q 881 4594 1212 4672 
Q 1544 4750 1819 4750 
Q 2544 4750 2975 4387 
Q 3406 4025 3406 3419 
Q 3406 3131 3298 2873 
Q 3191 2616 2906 2266 
Q 2828 2175 2409 1742 
Q 1991 1309 1228 531 
z
" transform="scale(0.015625)"/>
       </defs>
       <use xlink:href="#DejaVuSans-32"/>
       <use xlink:href="#DejaVuSans-30" transform="translate(63.623047 0)"/>
       <use xlink:href="#DejaVuSans-30" transform="translate(127.246094 0)"/>
      </g>
     </g>
    </g>
    <g id="xtick_4">
     <g id="line2d_7">
      <path d="M 272.335241 576.718125 
L 272.335241 22.318125 
" clip-path="url(#pc1bf6a420a)" style="fill: none; stroke: #b0b0b0; stroke-width: 0.8; stroke-linecap: square"/>
     </g>
     <g id="line2d_8">
      <g>
       <use xlink:href="#m81db067719" x="272.335241" y="576.718125" style="stroke: #000000; stroke-width: 0.8"/>
      </g>
     </g>
     <g id="text_4">
      <!-- 300 -->
      <g transform="translate(262.791491 591.316563) scale(0.1 -0.1)">
       <defs>
        <path id="DejaVuSans-33" d="M 2597 2516 
Q 3050 2419 3304 2112 
Q 3559 1806 3559 1356 
Q 3559 666 3084 287 
Q 2609 -91 1734 -91 
Q 1441 -91 1130 -33 
Q 819 25 488 141 
L 488 750 
Q 750 597 1062 519 
Q 1375 441 1716 441 
Q 2309 441 2620 675 
Q 2931 909 2931 1356 
Q 2931 1769 2642 2001 
Q 2353 2234 1838 2234 
L 1294 2234 
L 1294 2753 
L 1863 2753 
Q 2328 2753 2575 2939 
Q 2822 3125 2822 3475 
Q 2822 3834 2567 4026 
Q 2313 4219 1838 4219 
Q 1578 4219 1281 4162 
Q 984 4106 628 3988 
L 628 4550 
Q 988 4650 1302 4700 
Q 1616 4750 1894 4750 
Q 2613 4750 3031 4423 
Q 3450 4097 3450 3541 
Q 3450 3153 3228 2886 
Q 3006 2619 2597 2516 
z
" transform="scale(0.015625)"/>
       </defs>
       <use xlink:href="#DejaVuSans-33"/>
       <use xlink:href="#DejaVuSans-30" transform="translate(63.623047 0)"/>
       <use xlink:href="#DejaVuSans-30" transform="translate(127.246094 0)"/>
      </g>
     </g>
    </g>
    <g id="xtick_5">
     <g id="line2d_9">
      <path d="M 335.823692 576.718125 
L 335.823692 22.318125 
" clip-path="url(#pc1bf6a420a)" style="fill: none; stroke: #b0b0b0; stroke-width: 0.8; stroke-linecap: square"/>
     </g>
     <g id="line2d_10">
      <g>
       <use xlink:href="#m81db067719" x="335.823692" y="576.718125" style="stroke: #000000; stroke-width: 0.8"/>
      </g>
     </g>
     <g id="text_5">
      <!-- 400 -->
      <g transform="translate(326.279942 591.316563) scale(0.1 -0.1)">
       <defs>
        <path id="DejaVuSans-34" d="M 2419 4116 
L 825 1625 
L 2419 1625 
L 2419 4116 
z
M 2253 4666 
L 3047 4666 
L 3047 1625 
L 3713 1625 
L 3713 1100 
L 3047 1100 
L 3047 0 
L 2419 0 
L 2419 1100 
L 313 1100 
L 313 1709 
L 2253 4666 
z
" transform="scale(0.015625)"/>
       </defs>
       <use xlink:href="#DejaVuSans-34"/>
       <use xlink:href="#DejaVuSans-30" transform="translate(63.623047 0)"/>
       <use xlink:href="#DejaVuSans-30" transform="translate(127.246094 0)"/>
      </g>
     </g>
    </g>
    <g id="xtick_6">
     <g id="line2d_11">
      <path d="M 399.312144 576.718125 
L 399.312144 22.318125 
" clip-path="url(#pc1bf6a420a)" style="fill: none; stroke: #b0b0b0; stroke-width: 0.8; stroke-linecap: square"/>
     </g>
     <g id="line2d_12">
      <g>
       <use xlink:href="#m81db067719" x="399.312144" y="576.718125" style="stroke: #000000; stroke-width: 0.8"/>
      </g>
     </g>
     <g id="text_6">
      <!-- 500 -->
      <g transform="translate(389.768394 591.316563) scale(0.1 -0.1)">
       <defs>
        <path id="DejaVuSans-35" d="M 691 4666 
L 3169 4666 
L 3169 4134 
L 1269 4134 
L 1269 2991 
Q 1406 3038 1543 3061 
Q 1681 3084 1819 3084 
Q 2600 3084 3056 2656 
Q 3513 2228 3513 1497 
Q 3513 744 3044 326 
Q 2575 -91 1722 -91 
Q 1428 -91 1123 -41 
Q 819 9 494 109 
L 494 744 
Q 775 591 1075 516 
Q 1375 441 1709 441 
Q 2250 441 2565 725 
Q 2881 1009 2881 1497 
Q 2881 1984 2565 2268 
Q 2250 2553 1709 2553 
Q 1456 2553 1204 2497 
Q 953 2441 691 2322 
L 691 4666 
z
" transform="scale(0.015625)"/>
       </defs>
       <use xlink:href="#DejaVuSans-35"/>
       <use xlink:href="#DejaVuSans-30" transform="translate(63.623047 0)"/>
       <use xlink:href="#DejaVuSans-30" transform="translate(127.246094 0)"/>
      </g>
     </g>
    </g>
    <g id="xtick_7">
     <g id="line2d_13">
      <path d="M 462.800595 576.718125 
L 462.800595 22.318125 
" clip-path="url(#pc1bf6a420a)" style="fill: none; stroke: #b0b0b0; stroke-width: 0.8; stroke-linecap: square"/>
     </g>
     <g id="line2d_14">
      <g>
       <use xlink:href="#m81db067719" x="462.800595" y="576.718125" style="stroke: #000000; stroke-width: 0.8"/>
      </g>
     </g>
     <g id="text_7">
      <!-- 600 -->
      <g transform="translate(453.256845 591.316563) scale(0.1 -0.1)">
       <defs>
        <path id="DejaVuSans-36" d="M 2113 2584 
Q 1688 2584 1439 2293 
Q 1191 2003 1191 1497 
Q 1191 994 1439 701 
Q 1688 409 2113 409 
Q 2538 409 2786 701 
Q 3034 994 3034 1497 
Q 3034 2003 2786 2293 
Q 2538 2584 2113 2584 
z
M 3366 4563 
L 3366 3988 
Q 3128 4100 2886 4159 
Q 2644 4219 2406 4219 
Q 1781 4219 1451 3797 
Q 1122 3375 1075 2522 
Q 1259 2794 1537 2939 
Q 1816 3084 2150 3084 
Q 2853 3084 3261 2657 
Q 3669 2231 3669 1497 
Q 3669 778 3244 343 
Q 2819 -91 2113 -91 
Q 1303 -91 875 529 
Q 447 1150 447 2328 
Q 447 3434 972 4092 
Q 1497 4750 2381 4750 
Q 2619 4750 2861 4703 
Q 3103 4656 3366 4563 
z
" transform="scale(0.015625)"/>
       </defs>
       <use xlink:href="#DejaVuSans-36"/>
       <use xlink:href="#DejaVuSans-30" transform="translate(63.623047 0)"/>
       <use xlink:href="#DejaVuSans-30" transform="translate(127.246094 0)"/>
      </g>
     </g>
    </g>
    <g id="xtick_8">
     <g id="line2d_15">
      <path d="M 526.289047 576.718125 
L 526.289047 22.318125 
" clip-path="url(#pc1bf6a420a)" style="fill: none; stroke: #b0b0b0; stroke-width: 0.8; stroke-linecap: square"/>
     </g>
     <g id="line2d_16">
      <g>
       <use xlink:href="#m81db067719" x="526.289047" y="576.718125" style="stroke: #000000; stroke-width: 0.8"/>
      </g>
     </g>
     <g id="text_8">
      <!-- 700 -->
      <g transform="translate(516.745297 591.316563) scale(0.1 -0.1)">
       <defs>
        <path id="DejaVuSans-37" d="M 525 4666 
L 3525 4666 
L 3525 4397 
L 1831 0 
L 1172 0 
L 2766 4134 
L 525 4134 
L 525 4666 
z
" transform="scale(0.015625)"/>
       </defs>
       <use xlink:href="#DejaVuSans-37"/>
       <use xlink:href="#DejaVuSans-30" transform="translate(63.623047 0)"/>
       <use xlink:href="#DejaVuSans-30" transform="translate(127.246094 0)"/>
      </g>
     </g>
    </g>
    <g id="xtick_9">
     <g id="line2d_17">
      <path d="M 589.777498 576.718125 
L 589.777498 22.318125 
" clip-path="url(#pc1bf6a420a)" style="fill: none; stroke: #b0b0b0; stroke-width: 0.8; stroke-linecap: square"/>
     </g>
     <g id="line2d_18">
      <g>
       <use xlink:href="#m81db067719" x="589.777498" y="576.718125" style="stroke: #000000; stroke-width: 0.8"/>
      </g>
     </g>
     <g id="text_9">
      <!-- 800 -->
      <g transform="translate(580.233748 591.316563) scale(0.1 -0.1)">
       <defs>
        <path id="DejaVuSans-38" d="M 2034 2216 
Q 1584 2216 1326 1975 
Q 1069 1734 1069 1313 
Q 1069 891 1326 650 
Q 1584 409 2034 409 
Q 2484 409 2743 651 
Q 3003 894 3003 1313 
Q 3003 1734 2745 1975 
Q 2488 2216 2034 2216 
z
M 1403 2484 
Q 997 2584 770 2862 
Q 544 3141 544 3541 
Q 544 4100 942 4425 
Q 1341 4750 2034 4750 
Q 2731 4750 3128 4425 
Q 3525 4100 3525 3541 
Q 3525 3141 3298 2862 
Q 3072 2584 2669 2484 
Q 3125 2378 3379 2068 
Q 3634 1759 3634 1313 
Q 3634 634 3220 271 
Q 2806 -91 2034 -91 
Q 1263 -91 848 271 
Q 434 634 434 1313 
Q 434 1759 690 2068 
Q 947 2378 1403 2484 
z
M 1172 3481 
Q 1172 3119 1398 2916 
Q 1625 2713 2034 2713 
Q 2441 2713 2670 2916 
Q 2900 3119 2900 3481 
Q 2900 3844 2670 4047 
Q 2441 4250 2034 4250 
Q 1625 4250 1398 4047 
Q 1172 3844 1172 3481 
z
" transform="scale(0.015625)"/>
       </defs>
       <use xlink:href="#DejaVuSans-38"/>
       <use xlink:href="#DejaVuSans-30" transform="translate(63.623047 0)"/>
       <use xlink:href="#DejaVuSans-30" transform="translate(127.246094 0)"/>
      </g>
     </g>
    </g>
    <g id="text_10">
     <!-- Epochs -->
     <g transform="translate(317.590625 604.994688) scale(0.1 -0.1)">
      <defs>
       <path id="DejaVuSans-45" d="M 628 4666 
L 3578 4666 
L 3578 4134 
L 1259 4134 
L 1259 2753 
L 3481 2753 
L 3481 2222 
L 1259 2222 
L 1259 531 
L 3634 531 
L 3634 0 
L 628 0 
L 628 4666 
z
" transform="scale(0.015625)"/>
       <path id="DejaVuSans-70" d="M 1159 525 
L 1159 -1331 
L 581 -1331 
L 581 3500 
L 1159 3500 
L 1159 2969 
Q 1341 3281 1617 3432 
Q 1894 3584 2278 3584 
Q 2916 3584 3314 3078 
Q 3713 2572 3713 1747 
Q 3713 922 3314 415 
Q 2916 -91 2278 -91 
Q 1894 -91 1617 61 
Q 1341 213 1159 525 
z
M 3116 1747 
Q 3116 2381 2855 2742 
Q 2594 3103 2138 3103 
Q 1681 3103 1420 2742 
Q 1159 2381 1159 1747 
Q 1159 1113 1420 752 
Q 1681 391 2138 391 
Q 2594 391 2855 752 
Q 3116 1113 3116 1747 
z
" transform="scale(0.015625)"/>
       <path id="DejaVuSans-6f" d="M 1959 3097 
Q 1497 3097 1228 2736 
Q 959 2375 959 1747 
Q 959 1119 1226 758 
Q 1494 397 1959 397 
Q 2419 397 2687 759 
Q 2956 1122 2956 1747 
Q 2956 2369 2687 2733 
Q 2419 3097 1959 3097 
z
M 1959 3584 
Q 2709 3584 3137 3096 
Q 3566 2609 3566 1747 
Q 3566 888 3137 398 
Q 2709 -91 1959 -91 
Q 1206 -91 779 398 
Q 353 888 353 1747 
Q 353 2609 779 3096 
Q 1206 3584 1959 3584 
z
" transform="scale(0.015625)"/>
       <path id="DejaVuSans-63" d="M 3122 3366 
L 3122 2828 
Q 2878 2963 2633 3030 
Q 2388 3097 2138 3097 
Q 1578 3097 1268 2742 
Q 959 2388 959 1747 
Q 959 1106 1268 751 
Q 1578 397 2138 397 
Q 2388 397 2633 464 
Q 2878 531 3122 666 
L 3122 134 
Q 2881 22 2623 -34 
Q 2366 -91 2075 -91 
Q 1284 -91 818 406 
Q 353 903 353 1747 
Q 353 2603 823 3093 
Q 1294 3584 2113 3584 
Q 2378 3584 2631 3529 
Q 2884 3475 3122 3366 
z
" transform="scale(0.015625)"/>
       <path id="DejaVuSans-68" d="M 3513 2113 
L 3513 0 
L 2938 0 
L 2938 2094 
Q 2938 2591 2744 2837 
Q 2550 3084 2163 3084 
Q 1697 3084 1428 2787 
Q 1159 2491 1159 1978 
L 1159 0 
L 581 0 
L 581 4863 
L 1159 4863 
L 1159 2956 
Q 1366 3272 1645 3428 
Q 1925 3584 2291 3584 
Q 2894 3584 3203 3211 
Q 3513 2838 3513 2113 
z
" transform="scale(0.015625)"/>
       <path id="DejaVuSans-73" d="M 2834 3397 
L 2834 2853 
Q 2591 2978 2328 3040 
Q 2066 3103 1784 3103 
Q 1356 3103 1142 2972 
Q 928 2841 928 2578 
Q 928 2378 1081 2264 
Q 1234 2150 1697 2047 
L 1894 2003 
Q 2506 1872 2764 1633 
Q 3022 1394 3022 966 
Q 3022 478 2636 193 
Q 2250 -91 1575 -91 
Q 1294 -91 989 -36 
Q 684 19 347 128 
L 347 722 
Q 666 556 975 473 
Q 1284 391 1588 391 
Q 1994 391 2212 530 
Q 2431 669 2431 922 
Q 2431 1156 2273 1281 
Q 2116 1406 1581 1522 
L 1381 1569 
Q 847 1681 609 1914 
Q 372 2147 372 2553 
Q 372 3047 722 3315 
Q 1072 3584 1716 3584 
Q 2034 3584 2315 3537 
Q 2597 3491 2834 3397 
z
" transform="scale(0.015625)"/>
      </defs>
      <use xlink:href="#DejaVuSans-45"/>
      <use xlink:href="#DejaVuSans-70" transform="translate(63.183594 0)"/>
      <use xlink:href="#DejaVuSans-6f" transform="translate(126.660156 0)"/>
      <use xlink:href="#DejaVuSans-63" transform="translate(187.841797 0)"/>
      <use xlink:href="#DejaVuSans-68" transform="translate(242.822266 0)"/>
      <use xlink:href="#DejaVuSans-73" transform="translate(306.201172 0)"/>
     </g>
    </g>
   </g>
   <g id="matplotlib.axis_2">
    <g id="ytick_1">
     <g id="line2d_19">
      <path d="M 56.50625 561.292673 
L 614.50625 561.292673 
" clip-path="url(#pc1bf6a420a)" style="fill: none; stroke: #b0b0b0; stroke-width: 0.8; stroke-linecap: square"/>
     </g>
     <g id="line2d_20">
      <defs>
       <path id="m5bcc111691" d="M 0 0 
L -3.5 0 
" style="stroke: #000000; stroke-width: 0.8"/>
      </defs>
      <g>
       <use xlink:href="#m5bcc111691" x="56.50625" y="561.292673" style="stroke: #000000; stroke-width: 0.8"/>
      </g>
     </g>
     <g id="text_11">
      <!-- 0.000 -->
      <g transform="translate(20.878125 565.091891) scale(0.1 -0.1)">
       <defs>
        <path id="DejaVuSans-2e" d="M 684 794 
L 1344 794 
L 1344 0 
L 684 0 
L 684 794 
z
" transform="scale(0.015625)"/>
       </defs>
       <use xlink:href="#DejaVuSans-30"/>
       <use xlink:href="#DejaVuSans-2e" transform="translate(63.623047 0)"/>
       <use xlink:href="#DejaVuSans-30" transform="translate(95.410156 0)"/>
       <use xlink:href="#DejaVuSans-30" transform="translate(159.033203 0)"/>
       <use xlink:href="#DejaVuSans-30" transform="translate(222.65625 0)"/>
      </g>
     </g>
    </g>
    <g id="ytick_2">
     <g id="line2d_21">
      <path d="M 56.50625 498.735568 
L 614.50625 498.735568 
" clip-path="url(#pc1bf6a420a)" style="fill: none; stroke: #b0b0b0; stroke-width: 0.8; stroke-linecap: square"/>
     </g>
     <g id="line2d_22">
      <g>
       <use xlink:href="#m5bcc111691" x="56.50625" y="498.735568" style="stroke: #000000; stroke-width: 0.8"/>
      </g>
     </g>
     <g id="text_12">
      <!-- 0.025 -->
      <g transform="translate(20.878125 502.534787) scale(0.1 -0.1)">
       <use xlink:href="#DejaVuSans-30"/>
       <use xlink:href="#DejaVuSans-2e" transform="translate(63.623047 0)"/>
       <use xlink:href="#DejaVuSans-30" transform="translate(95.410156 0)"/>
       <use xlink:href="#DejaVuSans-32" transform="translate(159.033203 0)"/>
       <use xlink:href="#DejaVuSans-35" transform="translate(222.65625 0)"/>
      </g>
     </g>
    </g>
    <g id="ytick_3">
     <g id="line2d_23">
      <path d="M 56.50625 436.178463 
L 614.50625 436.178463 
" clip-path="url(#pc1bf6a420a)" style="fill: none; stroke: #b0b0b0; stroke-width: 0.8; stroke-linecap: square"/>
     </g>
     <g id="line2d_24">
      <g>
       <use xlink:href="#m5bcc111691" x="56.50625" y="436.178463" style="stroke: #000000; stroke-width: 0.8"/>
      </g>
     </g>
     <g id="text_13">
      <!-- 0.050 -->
      <g transform="translate(20.878125 439.977682) scale(0.1 -0.1)">
       <use xlink:href="#DejaVuSans-30"/>
       <use xlink:href="#DejaVuSans-2e" transform="translate(63.623047 0)"/>
       <use xlink:href="#DejaVuSans-30" transform="translate(95.410156 0)"/>
       <use xlink:href="#DejaVuSans-35" transform="translate(159.033203 0)"/>
       <use xlink:href="#DejaVuSans-30" transform="translate(222.65625 0)"/>
      </g>
     </g>
    </g>
    <g id="ytick_4">
     <g id="line2d_25">
      <path d="M 56.50625 373.621358 
L 614.50625 373.621358 
" clip-path="url(#pc1bf6a420a)" style="fill: none; stroke: #b0b0b0; stroke-width: 0.8; stroke-linecap: square"/>
     </g>
     <g id="line2d_26">
      <g>
       <use xlink:href="#m5bcc111691" x="56.50625" y="373.621358" style="stroke: #000000; stroke-width: 0.8"/>
      </g>
     </g>
     <g id="text_14">
      <!-- 0.075 -->
      <g transform="translate(20.878125 377.420577) scale(0.1 -0.1)">
       <use xlink:href="#DejaVuSans-30"/>
       <use xlink:href="#DejaVuSans-2e" transform="translate(63.623047 0)"/>
       <use xlink:href="#DejaVuSans-30" transform="translate(95.410156 0)"/>
       <use xlink:href="#DejaVuSans-37" transform="translate(159.033203 0)"/>
       <use xlink:href="#DejaVuSans-35" transform="translate(222.65625 0)"/>
      </g>
     </g>
    </g>
    <g id="ytick_5">
     <g id="line2d_27">
      <path d="M 56.50625 311.064253 
L 614.50625 311.064253 
" clip-path="url(#pc1bf6a420a)" style="fill: none; stroke: #b0b0b0; stroke-width: 0.8; stroke-linecap: square"/>
     </g>
     <g id="line2d_28">
      <g>
       <use xlink:href="#m5bcc111691" x="56.50625" y="311.064253" style="stroke: #000000; stroke-width: 0.8"/>
      </g>
     </g>
     <g id="text_15">
      <!-- 0.100 -->
      <g transform="translate(20.878125 314.863472) scale(0.1 -0.1)">
       <use xlink:href="#DejaVuSans-30"/>
       <use xlink:href="#DejaVuSans-2e" transform="translate(63.623047 0)"/>
       <use xlink:href="#DejaVuSans-31" transform="translate(95.410156 0)"/>
       <use xlink:href="#DejaVuSans-30" transform="translate(159.033203 0)"/>
       <use xlink:href="#DejaVuSans-30" transform="translate(222.65625 0)"/>
      </g>
     </g>
    </g>
    <g id="ytick_6">
     <g id="line2d_29">
      <path d="M 56.50625 248.507149 
L 614.50625 248.507149 
" clip-path="url(#pc1bf6a420a)" style="fill: none; stroke: #b0b0b0; stroke-width: 0.8; stroke-linecap: square"/>
     </g>
     <g id="line2d_30">
      <g>
       <use xlink:href="#m5bcc111691" x="56.50625" y="248.507149" style="stroke: #000000; stroke-width: 0.8"/>
      </g>
     </g>
     <g id="text_16">
      <!-- 0.125 -->
      <g transform="translate(20.878125 252.306367) scale(0.1 -0.1)">
       <use xlink:href="#DejaVuSans-30"/>
       <use xlink:href="#DejaVuSans-2e" transform="translate(63.623047 0)"/>
       <use xlink:href="#DejaVuSans-31" transform="translate(95.410156 0)"/>
       <use xlink:href="#DejaVuSans-32" transform="translate(159.033203 0)"/>
       <use xlink:href="#DejaVuSans-35" transform="translate(222.65625 0)"/>
      </g>
     </g>
    </g>
    <g id="ytick_7">
     <g id="line2d_31">
      <path d="M 56.50625 185.950044 
L 614.50625 185.950044 
" clip-path="url(#pc1bf6a420a)" style="fill: none; stroke: #b0b0b0; stroke-width: 0.8; stroke-linecap: square"/>
     </g>
     <g id="line2d_32">
      <g>
       <use xlink:href="#m5bcc111691" x="56.50625" y="185.950044" style="stroke: #000000; stroke-width: 0.8"/>
      </g>
     </g>
     <g id="text_17">
      <!-- 0.150 -->
      <g transform="translate(20.878125 189.749263) scale(0.1 -0.1)">
       <use xlink:href="#DejaVuSans-30"/>
       <use xlink:href="#DejaVuSans-2e" transform="translate(63.623047 0)"/>
       <use xlink:href="#DejaVuSans-31" transform="translate(95.410156 0)"/>
       <use xlink:href="#DejaVuSans-35" transform="translate(159.033203 0)"/>
       <use xlink:href="#DejaVuSans-30" transform="translate(222.65625 0)"/>
      </g>
     </g>
    </g>
    <g id="ytick_8">
     <g id="line2d_33">
      <path d="M 56.50625 123.392939 
L 614.50625 123.392939 
" clip-path="url(#pc1bf6a420a)" style="fill: none; stroke: #b0b0b0; stroke-width: 0.8; stroke-linecap: square"/>
     </g>
     <g id="line2d_34">
      <g>
       <use xlink:href="#m5bcc111691" x="56.50625" y="123.392939" style="stroke: #000000; stroke-width: 0.8"/>
      </g>
     </g>
     <g id="text_18">
      <!-- 0.175 -->
      <g transform="translate(20.878125 127.192158) scale(0.1 -0.1)">
       <use xlink:href="#DejaVuSans-30"/>
       <use xlink:href="#DejaVuSans-2e" transform="translate(63.623047 0)"/>
       <use xlink:href="#DejaVuSans-31" transform="translate(95.410156 0)"/>
       <use xlink:href="#DejaVuSans-37" transform="translate(159.033203 0)"/>
       <use xlink:href="#DejaVuSans-35" transform="translate(222.65625 0)"/>
      </g>
     </g>
    </g>
    <g id="ytick_9">
     <g id="line2d_35">
      <path d="M 56.50625 60.835834 
L 614.50625 60.835834 
" clip-path="url(#pc1bf6a420a)" style="fill: none; stroke: #b0b0b0; stroke-width: 0.8; stroke-linecap: square"/>
     </g>
     <g id="line2d_36">
      <g>
       <use xlink:href="#m5bcc111691" x="56.50625" y="60.835834" style="stroke: #000000; stroke-width: 0.8"/>
      </g>
     </g>
     <g id="text_19">
      <!-- 0.200 -->
      <g transform="translate(20.878125 64.635053) scale(0.1 -0.1)">
       <use xlink:href="#DejaVuSans-30"/>
       <use xlink:href="#DejaVuSans-2e" transform="translate(63.623047 0)"/>
       <use xlink:href="#DejaVuSans-32" transform="translate(95.410156 0)"/>
       <use xlink:href="#DejaVuSans-30" transform="translate(159.033203 0)"/>
       <use xlink:href="#DejaVuSans-30" transform="translate(222.65625 0)"/>
      </g>
     </g>
    </g>
    <g id="text_20">
     <!-- Accuracy -->
     <g transform="translate(14.798437 322.34625) rotate(-90) scale(0.1 -0.1)">
      <defs>
       <path id="DejaVuSans-41" d="M 2188 4044 
L 1331 1722 
L 3047 1722 
L 2188 4044 
z
M 1831 4666 
L 2547 4666 
L 4325 0 
L 3669 0 
L 3244 1197 
L 1141 1197 
L 716 0 
L 50 0 
L 1831 4666 
z
" transform="scale(0.015625)"/>
       <path id="DejaVuSans-75" d="M 544 1381 
L 544 3500 
L 1119 3500 
L 1119 1403 
Q 1119 906 1312 657 
Q 1506 409 1894 409 
Q 2359 409 2629 706 
Q 2900 1003 2900 1516 
L 2900 3500 
L 3475 3500 
L 3475 0 
L 2900 0 
L 2900 538 
Q 2691 219 2414 64 
Q 2138 -91 1772 -91 
Q 1169 -91 856 284 
Q 544 659 544 1381 
z
M 1991 3584 
L 1991 3584 
z
" transform="scale(0.015625)"/>
       <path id="DejaVuSans-72" d="M 2631 2963 
Q 2534 3019 2420 3045 
Q 2306 3072 2169 3072 
Q 1681 3072 1420 2755 
Q 1159 2438 1159 1844 
L 1159 0 
L 581 0 
L 581 3500 
L 1159 3500 
L 1159 2956 
Q 1341 3275 1631 3429 
Q 1922 3584 2338 3584 
Q 2397 3584 2469 3576 
Q 2541 3569 2628 3553 
L 2631 2963 
z
" transform="scale(0.015625)"/>
       <path id="DejaVuSans-61" d="M 2194 1759 
Q 1497 1759 1228 1600 
Q 959 1441 959 1056 
Q 959 750 1161 570 
Q 1363 391 1709 391 
Q 2188 391 2477 730 
Q 2766 1069 2766 1631 
L 2766 1759 
L 2194 1759 
z
M 3341 1997 
L 3341 0 
L 2766 0 
L 2766 531 
Q 2569 213 2275 61 
Q 1981 -91 1556 -91 
Q 1019 -91 701 211 
Q 384 513 384 1019 
Q 384 1609 779 1909 
Q 1175 2209 1959 2209 
L 2766 2209 
L 2766 2266 
Q 2766 2663 2505 2880 
Q 2244 3097 1772 3097 
Q 1472 3097 1187 3025 
Q 903 2953 641 2809 
L 641 3341 
Q 956 3463 1253 3523 
Q 1550 3584 1831 3584 
Q 2591 3584 2966 3190 
Q 3341 2797 3341 1997 
z
" transform="scale(0.015625)"/>
       <path id="DejaVuSans-79" d="M 2059 -325 
Q 1816 -950 1584 -1140 
Q 1353 -1331 966 -1331 
L 506 -1331 
L 506 -850 
L 844 -850 
Q 1081 -850 1212 -737 
Q 1344 -625 1503 -206 
L 1606 56 
L 191 3500 
L 800 3500 
L 1894 763 
L 2988 3500 
L 3597 3500 
L 2059 -325 
z
" transform="scale(0.015625)"/>
      </defs>
      <use xlink:href="#DejaVuSans-41"/>
      <use xlink:href="#DejaVuSans-63" transform="translate(66.658203 0)"/>
      <use xlink:href="#DejaVuSans-63" transform="translate(121.638672 0)"/>
      <use xlink:href="#DejaVuSans-75" transform="translate(176.619141 0)"/>
      <use xlink:href="#DejaVuSans-72" transform="translate(239.998047 0)"/>
      <use xlink:href="#DejaVuSans-61" transform="translate(281.111328 0)"/>
      <use xlink:href="#DejaVuSans-63" transform="translate(342.390625 0)"/>
      <use xlink:href="#DejaVuSans-79" transform="translate(397.371094 0)"/>
     </g>
    </g>
   </g>
   <g id="line2d_37">
    <path d="M 81.869886 247.408936 
L 82.504771 229.920728 
L 83.139655 223.790158 
L 83.77454 231.658448 
L 84.409424 245.949265 
L 85.044309 245.003966 
L 86.314078 277.908982 
L 87.583847 283.66424 
L 88.218732 291.2545 
L 88.853616 283.789356 
L 89.488501 288.627113 
L 90.123385 288.627113 
L 90.75827 291.504733 
L 91.393154 285.23512 
L 92.028039 284.623447 
L 92.662923 282.788444 
L 93.297808 282.83015 
L 93.932692 280.953442 
L 94.567577 277.158303 
L 95.202461 279.007213 
L 95.837346 276.560537 
L 97.107115 273.780218 
L 97.741999 271.250131 
L 98.376884 269.234399 
L 99.011768 270.082398 
L 99.646653 269.276105 
L 100.281537 263.326228 
L 100.916422 267.774746 
L 101.551306 262.631162 
L 102.186191 263.409639 
L 102.821075 262.74237 
L 103.45596 256.903701 
L 104.090844 259.642315 
L 104.725729 257.876816 
L 105.360613 253.233678 
L 105.995498 254.067787 
L 106.630382 253.066875 
L 107.265267 249.813888 
L 107.900151 249.494153 
L 108.535036 249.41076 
L 109.16992 247.214299 
L 109.804805 243.085516 
L 110.43969 245.087377 
L 111.074574 242.918731 
L 111.709459 242.237536 
L 112.344343 238.748224 
L 112.979228 237.650012 
L 113.614112 237.080044 
L 114.248997 236.287659 
L 115.518766 232.853979 
L 116.15365 232.742752 
L 116.788535 231.269173 
L 117.423419 228.099633 
L 118.058304 229.90682 
L 118.693188 226.639962 
L 119.328073 226.389729 
L 119.962957 222.969957 
L 120.597842 224.207175 
L 121.867611 222.108032 
L 122.502495 220.231343 
L 123.13738 220.45376 
L 123.772264 219.703062 
L 124.407149 217.270313 
L 125.042033 216.172063 
L 125.676918 214.587294 
L 126.311802 213.69759 
L 126.946687 215.616003 
L 127.581571 211.097982 
L 128.216456 212.126729 
L 128.85134 210.097089 
L 129.486225 210.333413 
L 130.121109 208.178676 
L 130.755994 208.762552 
L 131.390879 206.524366 
L 132.025763 206.621685 
L 132.660648 205.996122 
L 133.295532 204.202806 
L 133.930417 203.048999 
L 134.565301 202.409528 
L 135.200186 200.880354 
L 135.83507 201.742241 
L 136.469955 200.83863 
L 137.104839 199.62919 
L 137.739724 198.016605 
L 138.374608 199.281676 
L 139.009493 196.682068 
L 139.644377 195.444813 
L 140.279262 195.75064 
L 140.914146 193.164977 
L 141.549031 194.610741 
L 142.183915 191.844311 
L 142.8188 193.707129 
L 143.453684 193.05375 
L 144.088569 190.843418 
L 144.723453 190.982424 
L 145.358338 190.27345 
L 145.993222 189.244703 
L 146.628107 187.659933 
L 147.262991 188.744275 
L 147.897876 186.964868 
L 148.53276 187.228971 
L 149.167645 184.406984 
L 149.802529 186.798046 
L 150.437414 184.963044 
L 151.072298 184.671087 
L 151.707183 182.099295 
L 152.342067 182.41903 
L 153.611837 180.57012 
L 154.881606 179.777735 
L 155.51649 179.749957 
L 156.151375 177.748095 
L 156.786259 178.16515 
L 157.421144 177.60909 
L 158.056028 177.4979 
L 158.690913 178.16515 
L 159.325797 174.37001 
L 159.960682 173.396933 
L 160.595566 175.412665 
L 161.230451 173.132792 
L 161.865335 174.981703 
L 163.135104 171.534115 
L 163.769989 171.130968 
L 164.404873 172.409911 
L 165.039758 170.839012 
L 165.674642 171.103152 
L 166.309527 168.767685 
L 166.944411 168.225533 
L 167.579296 169.977124 
L 168.21418 169.434972 
L 168.849065 167.377516 
L 169.483949 166.279304 
L 170.118834 164.750129 
L 170.753718 164.194069 
L 171.388603 166.57126 
L 172.023487 163.415592 
L 172.658372 164.388707 
L 173.293256 162.609299 
L 173.928141 164.416485 
L 174.563026 163.98556 
L 175.19791 161.830823 
L 175.832795 162.790029 
L 176.467679 159.25903 
L 177.102564 160.635254 
L 177.737448 159.411944 
L 178.372333 159.620453 
L 179.007217 157.96618 
L 179.642102 156.812336 
L 180.276986 157.729856 
L 180.911871 156.297963 
L 182.18164 156.909655 
L 182.816524 156.450876 
L 183.451409 154.82442 
L 184.086293 155.964356 
L 184.721178 154.852199 
L 185.990947 153.489846 
L 186.625831 153.809581 
L 187.8956 152.05799 
L 189.165369 150.959778 
L 189.800254 150.348086 
L 190.435138 151.599249 
L 191.070023 150.612226 
L 191.704907 149.041365 
L 192.339792 150.626134 
L 192.974676 149.333284 
L 193.609561 149.458382 
L 194.244445 147.651196 
L 194.87933 148.707721 
L 195.514215 146.817087 
L 196.149099 148.665997 
L 196.783984 147.150731 
L 197.418868 146.88659 
L 198.053753 145.134999 
L 198.688637 146.316659 
L 199.323522 146.608578 
L 199.958406 146.386162 
L 200.593291 143.828278 
L 201.228175 145.009901 
L 201.86306 142.702249 
L 202.497944 144.843079 
L 203.132829 143.828278 
L 203.767713 143.313904 
L 204.402598 142.271287 
L 205.037482 142.591023 
L 205.672367 141.78473 
L 206.307251 141.22867 
L 207.57702 142.465888 
L 208.211905 140.658701 
L 209.481674 141.145259 
L 210.116558 139.046116 
L 211.386327 140.978437 
L 212.021212 139.157343 
L 212.656096 138.948797 
L 213.290981 137.489125 
L 213.925865 137.364027 
L 214.56075 138.184228 
L 215.195634 137.155519 
L 215.830519 137.892271 
L 216.465403 135.02856 
L 217.100288 135.139787 
L 217.735173 136.933065 
L 218.370057 134.4725 
L 219.004942 137.642039 
L 219.639826 133.55498 
L 220.274711 134.305678 
L 221.54448 132.720908 
L 222.179364 134.875646 
L 222.814249 131.970211 
L 223.449133 132.095345 
L 224.084018 131.970211 
L 224.718902 132.762595 
L 225.353787 130.59395 
L 225.988671 132.415081 
L 226.623556 131.233421 
L 227.25844 129.704246 
L 227.893325 129.843289 
L 228.528209 129.120407 
L 229.163094 129.94057 
L 229.797978 130.135208 
L 230.432863 129.217689 
L 231.067747 127.869244 
L 231.702632 129.85716 
L 232.337516 127.924839 
L 232.972401 127.577324 
L 233.607285 127.660735 
L 234.24217 126.923945 
L 234.877054 126.993448 
L 235.511939 124.741391 
L 236.146823 125.770101 
L 236.781708 126.145468 
L 237.416592 125.436457 
L 238.051477 125.005532 
L 238.686362 126.757123 
L 239.321246 123.657087 
L 239.956131 123.949007 
L 240.591015 123.810001 
L 241.2259 122.822978 
L 241.860784 124.115828 
L 242.495669 122.503243 
L 243.130553 124.866489 
L 243.765438 122.364237 
L 244.400322 121.947183 
L 245.035207 122.864665 
L 245.670091 122.114004 
L 246.304976 120.543106 
L 246.93986 122.364237 
L 247.574745 122.141783 
L 248.209629 118.638601 
L 248.844514 120.501419 
L 249.479398 119.736813 
L 250.114283 119.736813 
L 250.749167 120.02877 
L 251.384052 120.181683 
L 252.018936 119.430985 
L 252.653821 117.123334 
L 253.288705 118.708104 
L 253.92359 117.665486 
L 254.558474 119.750721 
L 255.193359 117.317935 
L 255.828243 117.165021 
L 256.463128 116.817507 
L 257.098012 116.650685 
L 257.732897 117.039923 
L 258.367781 116.720188 
L 259.002666 114.912964 
L 259.63755 116.428231 
L 260.272435 115.191013 
L 260.90732 116.442139 
L 261.542204 115.482932 
L 262.177089 116.205814 
L 262.811973 115.621938 
L 263.446858 114.746142 
L 264.081742 114.440315 
L 264.716627 112.688724 
L 265.351511 113.258692 
L 265.986396 112.216074 
L 266.62128 112.772135 
L 267.256165 113.731341 
L 268.525934 113.2726 
L 269.160818 112.007529 
L 269.795703 112.063161 
L 270.430587 111.340279 
L 271.700356 110.32544 
L 272.335241 110.839813 
L 272.970125 110.50617 
L 273.60501 110.964911 
L 274.239894 111.131733 
L 274.874779 110.089115 
L 275.509663 109.852791 
L 276.144548 110.089115 
L 276.779432 108.504346 
L 277.414317 109.060406 
L 278.049201 109.21332 
L 278.684086 108.031697 
L 279.31897 109.21332 
L 279.953855 107.531231 
L 281.223624 106.919576 
L 281.858509 107.128085 
L 282.493393 107.044674 
L 283.128278 105.807456 
L 283.763162 106.752755 
L 284.398047 106.015965 
L 285.032931 107.086398 
L 285.667816 106.3357 
L 286.3027 106.321792 
L 286.937585 106.669344 
L 287.572469 105.59891 
L 288.207354 106.558117 
L 288.842238 104.86212 
L 289.477123 104.876028 
L 290.112007 106.794441 
L 290.746892 104.375563 
L 291.381776 103.819503 
L 292.016661 104.639704 
L 292.651545 104.625796 
L 293.28643 103.360762 
L 293.921314 103.207848 
L 294.556199 103.722221 
L 295.191083 103.346854 
L 295.825968 102.471058 
L 296.460852 103.805632 
L 297.730621 101.72036 
L 298.365506 102.874204 
L 299.00039 102.067912 
L 299.635275 102.151322 
L 300.270159 99.523936 
L 301.539928 100.927975 
L 302.174813 101.567446 
L 302.809697 100.775062 
L 303.444582 100.246817 
L 304.714351 100.163407 
L 305.349236 98.995654 
L 305.98412 99.496119 
L 306.619005 97.619431 
L 307.253889 99.690757 
L 307.888774 99.162476 
L 308.523658 97.383069 
L 309.158543 98.814962 
L 309.793427 98.606416 
L 310.428312 97.452609 
L 311.063196 95.853894 
L 311.698081 96.882641 
L 312.332965 97.466479 
L 312.96785 97.758436 
L 313.602734 96.827008 
L 314.237619 97.424793 
L 314.872503 97.53602 
L 315.507388 97.800123 
L 316.142272 96.43777 
L 316.777157 95.979029 
L 317.412041 95.367374 
L 318.68181 94.40813 
L 319.316695 95.214423 
L 319.951579 94.269124 
L 320.586464 94.686179 
L 321.221348 93.323826 
L 321.856233 93.448924 
L 322.491117 93.977205 
L 323.126002 93.977205 
L 323.760886 92.934587 
L 324.395771 94.088395 
L 325.030656 93.699156 
L 325.66554 94.241346 
L 326.300425 91.975381 
L 326.935309 92.475846 
L 327.570194 92.420214 
L 328.205078 91.850246 
L 328.839963 92.058792 
L 329.474847 91.850246 
L 330.109732 92.906771 
L 330.744616 91.238591 
L 331.379501 92.698263 
L 332.014385 92.656539 
L 332.64927 90.140379 
L 333.284154 91.697332 
L 333.919039 92.878955 
L 334.553923 90.487893 
L 335.188808 90.390574 
L 335.823692 90.557396 
L 336.458577 89.528687 
L 337.093461 90.585212 
L 337.728346 89.806735 
L 338.36323 89.834514 
L 338.998115 91.182996 
L 339.632999 89.959649 
L 340.267884 89.473092 
L 340.902768 89.792827 
L 341.537653 88.402658 
L 342.172537 90.97445 
L 342.807422 87.957825 
L 343.442306 88.527793 
L 344.077191 89.347957 
L 344.712075 89.86233 
L 345.34696 88.56948 
L 345.981844 88.235836 
L 346.616729 88.124647 
L 347.251614 88.263653 
L 347.886498 86.553748 
L 348.521383 88.56948 
L 349.156267 87.373949 
L 349.791152 86.498153 
L 350.426036 87.568587 
L 351.060921 87.499047 
L 351.695805 86.150602 
L 352.33069 86.289607 
L 352.965574 85.969872 
L 353.600459 86.331331 
L 354.235343 86.206234 
L 354.870228 85.288714 
L 355.505112 86.261829 
L 356.774881 85.413812 
L 357.409766 85.038481 
L 358.04465 84.204372 
L 358.679535 84.593648 
L 359.314419 85.858682 
L 359.949304 83.940269 
L 360.584188 83.356393 
L 361.219073 83.898545 
L 361.853957 82.716922 
L 362.488842 83.022749 
L 363.123726 83.523215 
L 363.758611 82.480597 
L 364.393495 83.453712 
L 365.02838 82.661327 
L 365.663264 82.73083 
L 366.298149 80.562184 
L 366.933033 82.619603 
L 367.567918 81.604802 
L 368.202803 82.633511 
L 368.837687 80.909698 
L 369.472572 82.091359 
L 370.107456 81.479667 
L 370.742341 80.200725 
L 371.377225 81.660396 
L 372.01211 80.576092 
L 372.646994 80.909698 
L 373.281879 81.020925 
L 373.916763 79.992216 
L 374.551648 78.463041 
L 375.186532 78.741053 
L 375.821417 79.269334 
L 377.72607 78.824464 
L 378.360955 79.046918 
L 378.995839 78.643771 
L 379.630724 77.323105 
L 380.265608 78.921783 
L 380.900493 77.573338 
L 381.535377 77.337013 
L 382.170262 78.37963 
L 382.805146 78.518636 
L 383.440031 77.031186 
L 385.344684 77.003369 
L 385.979569 76.419493 
L 386.614453 77.795754 
L 387.249338 75.877341 
L 387.884222 75.821746 
L 388.519107 76.391715 
L 389.153991 77.323105 
L 389.788876 75.251778 
L 390.423761 75.154459 
L 391.058645 74.32035 
L 391.69353 75.543698 
L 392.963299 73.291641 
L 393.598183 74.514988 
L 394.233068 74.445485 
L 394.867952 74.097934 
L 396.137721 76.016347 
L 396.772606 72.957997 
L 397.40749 75.668833 
L 398.042375 75.05714 
L 398.677259 74.084026 
L 399.312144 74.779129 
L 399.947028 72.957997 
L 400.581913 73.222138 
L 401.216797 72.666078 
L 401.851682 72.777305 
L 402.486566 72.638262 
L 403.121451 74.334258 
L 403.756335 73.110911 
L 404.39122 73.152635 
L 405.026104 73.541874 
L 405.660989 73.305549 
L 406.295873 71.470547 
L 406.930758 71.456639 
L 408.200527 72.012699 
L 408.835411 73.361144 
L 409.470296 70.761573 
L 410.10518 72.360251 
L 410.740065 72.012699 
L 411.37495 72.54098 
L 412.009834 72.860716 
L 412.644719 71.957104 
L 413.914488 71.234222 
L 414.549372 71.345412 
L 415.819141 71.91538 
L 416.454026 71.414952 
L 417.08891 69.107263 
L 417.723795 70.219384 
L 418.358679 70.052599 
L 418.993564 69.03776 
L 419.628448 70.858855 
L 420.263333 70.98399 
L 420.898217 70.441837 
L 421.533102 68.996074 
L 422.167986 69.21849 
L 422.802871 69.663323 
L 423.437755 70.344519 
L 424.07264 68.66243 
L 425.342409 69.135079 
L 425.977293 69.371404 
L 426.612178 68.620706 
L 427.247062 68.926571 
L 427.881947 68.84316 
L 428.516831 68.4817 
L 429.151716 68.898755 
L 429.7866 68.857031 
L 430.421485 68.370473 
L 431.056369 68.648522 
L 431.691254 67.675408 
L 432.326138 67.494678 
L 432.961023 67.758818 
L 433.595908 66.757925 
L 434.230792 68.259284 
L 434.865677 69.051668 
L 435.500561 69.468723 
L 436.135446 68.036867 
L 436.77033 67.619813 
L 437.405215 67.828321 
L 438.674984 66.785704 
L 439.944753 67.105439 
L 440.579637 67.800542 
L 441.214522 67.133255 
L 441.849406 67.18885 
L 442.484291 65.200934 
L 443.119175 67.313985 
L 443.75406 65.089707 
L 444.388944 65.409443 
L 445.023829 66.271368 
L 446.928482 66.354779 
L 447.563367 65.284345 
L 448.198251 66.841299 
L 448.833136 65.103615 
L 449.46802 64.366825 
L 450.102905 65.15921 
L 450.737789 65.145339 
L 451.372674 64.881199 
L 452.007558 65.15921 
L 452.642443 65.71527 
L 453.277327 63.393711 
L 453.912212 63.9359 
L 454.547097 64.867291 
L 455.181981 65.465075 
L 455.816866 65.659676 
L 456.45175 64.22782 
L 457.086635 64.533647 
L 457.721519 65.52067 
L 458.356404 64.797788 
L 458.991288 64.49196 
L 459.626173 63.504938 
L 460.261057 64.478052 
L 460.895942 64.49196 
L 461.530826 64.825604 
L 462.165711 63.630036 
L 462.800595 64.895107 
L 463.43548 63.018381 
L 464.070364 63.532754 
L 465.340133 62.545731 
L 465.975018 63.060105 
L 466.609902 64.311231 
L 467.244787 62.601326 
L 467.879671 61.252881 
L 468.514556 62.337223 
L 469.14944 62.323315 
L 470.419209 61.628212 
L 471.054094 62.837651 
L 471.688978 60.543907 
L 472.323863 61.46139 
L 472.958747 61.238973 
L 473.593632 62.08699 
L 474.228516 61.308476 
L 474.863401 59.737615 
L 475.498285 60.502183 
L 476.13317 61.544801 
L 476.768055 60.43268 
L 477.402939 61.433611 
L 478.037824 61.002649 
L 478.672708 62.309407 
L 479.942477 60.335362 
L 480.577362 60.947054 
L 481.212246 61.183378 
L 481.847131 59.821025 
L 482.482015 59.334468 
L 483.1169 60.307583 
L 483.751784 60.307583 
L 484.386669 58.722776 
L 485.021553 60.696821 
L 485.656438 60.821919 
L 486.291322 61.127784 
L 486.926207 60.363178 
L 487.561091 58.361354 
L 488.195976 60.418772 
L 488.83086 59.181554 
L 489.465745 59.278873 
L 490.100629 59.987847 
L 491.370398 58.569862 
L 492.005283 59.542977 
L 492.640167 58.125029 
L 493.275052 58.778408 
L 493.909936 58.834003 
L 494.544821 57.374331 
L 495.179705 59.167646 
L 495.81459 58.111121 
L 496.449474 60.363178 
L 497.084359 58.347446 
L 498.354128 58.875727 
L 498.989013 57.416055 
L 499.623897 58.40304 
L 500.258782 57.860888 
L 502.163435 56.832179 
L 502.79832 57.680159 
L 503.433204 57.791385 
L 504.068089 56.73486 
L 504.702973 57.805293 
L 505.337858 57.83311 
L 505.972742 58.222348 
L 506.607627 56.62367 
L 507.242511 57.999894 
L 508.51228 57.054596 
L 509.147165 58.083305 
L 509.782049 58.166716 
L 510.416934 55.747875 
L 511.051818 56.401216 
L 511.686703 56.679265 
L 512.321587 55.761745 
L 512.956472 56.1788 
L 513.591356 55.928567 
L 514.226241 56.62367 
L 514.861125 57.610656 
L 515.49601 55.817378 
L 516.130894 55.956383 
L 516.765779 55.928567 
L 517.400663 56.137113 
L 518.035548 57.346552 
L 518.670433 56.540259 
L 519.305317 56.512443 
L 519.940202 54.343798 
L 520.575086 56.164892 
L 521.844855 54.983269 
L 522.47974 55.970291 
L 523.114624 54.010154 
L 523.749509 55.970291 
L 525.019278 56.081481 
L 525.654162 55.247409 
L 526.289047 56.248303 
L 526.923931 55.024993 
L 527.558816 55.163999 
L 528.1937 53.801646 
L 528.828585 55.900788 
L 529.463469 55.80347 
L 530.098354 54.468895 
L 530.733238 53.968467 
L 531.368123 54.065749 
L 532.003007 55.15009 
L 532.637892 54.635717 
L 533.272776 54.70522 
L 533.907661 52.967537 
L 534.542545 53.954559 
L 535.17743 53.370683 
L 535.812314 54.733036 
L 536.447199 54.288203 
L 537.716968 55.011085 
L 538.351852 54.343798 
L 538.986737 53.454094 
L 539.621621 52.870218 
L 540.256506 54.204792 
L 540.891391 54.802539 
L 541.526275 53.231677 
L 542.16116 53.662603 
L 542.796044 53.245585 
L 543.430929 53.759921 
L 544.065813 53.064856 
L 544.700698 54.343798 
L 545.335582 53.523597 
L 545.970467 53.815554 
L 546.605351 54.510619 
L 547.240236 53.106542 
L 547.87512 55.219593 
L 548.510005 51.883233 
L 549.144889 53.77383 
L 549.779774 53.495818 
L 551.049543 52.30025 
L 551.684427 52.119557 
L 552.319312 52.842439 
L 552.954196 52.30025 
L 553.589081 52.884126 
L 554.223965 52.36979 
L 554.85885 52.550482 
L 555.493734 51.938827 
L 556.128619 51.549589 
L 556.763503 52.216839 
L 558.033272 52.550482 
L 559.303041 52.30025 
L 559.937926 51.396675 
L 560.57281 52.258563 
L 561.207695 52.036146 
L 561.84258 50.937897 
L 562.477464 52.119557 
L 563.112349 52.091741 
L 563.747233 51.341043 
L 564.382118 51.605184 
L 565.017002 52.286379 
L 565.651887 50.228923 
L 566.286771 50.562566 
L 566.921656 52.661709 
L 567.55654 51.424454 
L 568.191425 52.689525 
L 568.826309 51.549589 
L 569.461194 51.202037 
L 570.096078 51.188129 
L 571.365847 50.076009 
L 572.000732 49.992598 
L 572.635616 50.89621 
L 573.270501 50.284518 
L 573.905385 50.354058 
L 574.54027 50.673793 
L 575.175154 49.353127 
L 575.810039 50.423561 
L 576.444923 49.436538 
L 577.079808 50.52088 
L 577.714692 48.699748 
L 578.349577 50.673793 
L 578.984461 49.436538 
L 579.619346 51.507865 
L 580.25423 48.254915 
L 580.889115 48.977797 
L 581.523999 51.229853 
L 582.158884 49.617268 
L 582.793768 49.867501 
L 583.428653 49.075116 
L 584.063538 47.518125 
L 584.698422 50.131604 
L 585.333307 48.227099 
L 585.968191 49.325311 
L 586.603076 49.088986 
L 587.23796 47.990774 
L 587.872845 49.088986 
L 588.507729 48.991705 
L 589.142614 49.492133 
L 589.142614 49.492133 
" clip-path="url(#pc1bf6a420a)" style="fill: none; stroke: #1f77b4; stroke-width: 1.5; stroke-linecap: square"/>
   </g>
   <g id="line2d_38">
    <path d="M 81.869886 255.138202 
L 82.504771 189.578347 
L 83.139655 250.759205 
L 83.77454 264.897108 
L 84.409424 170.435865 
L 85.044309 218.98018 
L 85.679193 321.198504 
L 86.314078 287.793004 
L 87.583847 346.471574 
L 88.218732 319.446913 
L 88.853616 362.486203 
L 89.488501 363.487115 
L 90.75827 304.558313 
L 91.393154 289.044149 
L 92.028039 281.161951 
L 92.662923 307.185718 
L 93.297808 307.310834 
L 93.932692 314.817684 
L 94.567577 331.207643 
L 95.202461 301.805809 
L 95.837346 314.817684 
L 96.47223 310.688919 
L 97.107115 296.175668 
L 97.741999 294.173844 
L 98.376884 337.71358 
L 99.011768 321.949184 
L 99.646653 311.814948 
L 100.281537 357.606741 
L 100.916422 314.442335 
L 101.551306 315.193014 
L 102.186191 333.584816 
L 102.821075 300.054199 
L 103.45596 332.834118 
L 104.090844 284.039589 
L 104.725729 285.540948 
L 105.360613 288.29347 
L 105.995498 326.203064 
L 106.630382 282.663328 
L 107.265267 288.29347 
L 107.900151 330.832294 
L 108.535036 293.423146 
L 109.16992 292.046885 
L 109.804805 317.06974 
L 110.43969 295.925435 
L 111.709459 275.406712 
L 112.344343 302.806721 
L 113.614112 314.442335 
L 114.248997 323.075212 
L 114.883881 303.432284 
L 115.518766 336.587552 
L 116.15365 341.842344 
L 116.788535 288.29347 
L 117.423419 326.077967 
L 118.058304 294.424058 
L 118.693188 321.073388 
L 119.328073 295.800319 
L 119.962957 314.567451 
L 120.597842 321.949184 
L 121.232726 312.065162 
L 121.867611 316.944624 
L 122.502495 296.050551 
L 123.13738 325.827734 
L 123.772264 289.794847 
L 124.407149 288.543702 
L 125.042033 289.919945 
L 125.676918 295.299872 
L 126.311802 304.057866 
L 126.946687 267.149165 
L 127.581571 302.431372 
L 128.85134 292.172001 
L 129.486225 296.926347 
L 130.121109 264.646875 
L 130.755994 326.828646 
L 131.390879 292.54735 
L 132.025763 321.824067 
L 132.660648 318.070652 
L 133.295532 295.299872 
L 134.565301 308.687077 
L 135.200186 336.462435 
L 135.83507 318.571099 
L 136.469955 281.662416 
L 137.104839 309.813105 
L 137.739724 314.567451 
L 138.374608 315.193014 
L 139.009493 286.291646 
L 139.644377 308.061514 
L 140.279262 291.671555 
L 140.914146 291.296206 
L 141.549031 290.670643 
L 142.183915 297.426812 
L 142.8188 290.295294 
L 143.453684 294.549174 
L 144.088569 323.575677 
L 144.723453 294.924523 
L 145.358338 306.05969 
L 145.993222 306.810369 
L 146.628107 261.894372 
L 147.262991 281.412183 
L 147.897876 314.817684 
L 148.53276 290.795759 
L 149.167645 307.435932 
L 149.802529 298.302608 
L 150.437414 304.182964 
L 151.072298 267.64963 
L 151.707183 305.559225 
L 152.342067 302.556489 
L 152.976952 288.919033 
L 153.611837 299.929083 
L 154.246721 294.67429 
L 154.881606 280.78662 
L 155.51649 291.921787 
L 156.151375 297.426812 
L 156.786259 300.554665 
L 157.421144 283.66424 
L 158.056028 293.548262 
L 158.690913 280.035923 
L 159.325797 305.434108 
L 160.595566 293.548262 
L 161.230451 299.428636 
L 161.865335 276.53274 
L 162.50022 308.436863 
L 163.135104 273.404869 
L 163.769989 315.31813 
L 164.404873 261.769256 
L 165.039758 292.922699 
L 165.674642 283.914473 
L 166.309527 310.438687 
L 166.944411 305.684341 
L 167.579296 278.784797 
L 168.21418 289.044149 
L 168.849065 276.782954 
L 169.483949 300.929995 
L 170.118834 303.807633 
L 170.753718 316.569275 
L 171.388603 295.049639 
L 172.023487 292.922699 
L 172.658372 297.927259 
L 173.293256 320.572941 
L 174.563026 296.676114 
L 175.19791 318.946448 
L 175.832795 285.916297 
L 176.467679 278.784797 
L 177.102564 310.939133 
L 177.737448 285.666064 
L 178.372333 266.773816 
L 179.007217 297.17658 
L 179.642102 283.66424 
L 180.276986 293.798495 
L 180.911871 314.442335 
L 181.546755 313.816772 
L 182.18164 279.660592 
L 182.816524 273.655102 
L 183.451409 280.161039 
L 184.086293 299.553753 
L 184.721178 265.89802 
L 185.356062 264.771992 
L 185.990947 291.421322 
L 186.625831 275.156479 
L 187.260716 289.044149 
L 187.8956 273.780218 
L 188.530485 286.291646 
L 189.165369 287.042325 
L 189.800254 285.666064 
L 190.435138 275.406712 
L 191.070023 274.530897 
L 191.704907 274.530897 
L 192.339792 291.546438 
L 192.974676 297.17658 
L 193.609561 264.646875 
L 194.244445 278.159215 
L 194.87933 280.035923 
L 195.514215 273.905334 
L 196.149099 292.172001 
L 196.783984 277.783866 
L 197.418868 276.032275 
L 198.053753 288.543702 
L 198.688637 297.426812 
L 199.323522 286.166529 
L 199.958406 265.772904 
L 201.228175 302.056023 
L 201.86306 296.175668 
L 202.497944 295.174756 
L 203.132829 284.915385 
L 203.767713 293.047816 
L 204.402598 309.062426 
L 205.037482 284.915385 
L 205.672367 301.555577 
L 206.307251 296.050551 
L 206.942136 285.666064 
L 207.57702 296.175668 
L 208.211905 288.168353 
L 208.846789 306.05969 
L 209.481674 290.295294 
L 210.116558 291.045973 
L 210.751443 304.558313 
L 211.386327 292.046885 
L 212.021212 286.917209 
L 212.656096 298.052375 
L 213.290981 304.808545 
L 213.925865 295.675202 
L 214.56075 292.422234 
L 215.195634 305.934574 
L 215.830519 281.5373 
L 216.465403 262.144605 
L 217.735173 294.173844 
L 218.370057 290.045061 
L 219.004942 262.019488 
L 219.639826 277.158303 
L 220.274711 286.041413 
L 220.909595 279.785709 
L 221.54448 312.315394 
L 222.179364 292.797583 
L 222.814249 278.159215 
L 223.449133 298.928171 
L 224.718902 277.533652 
L 225.353787 274.906246 
L 225.988671 274.030451 
L 226.623556 281.787532 
L 227.25844 298.803055 
L 227.893325 301.680693 
L 228.528209 288.168353 
L 229.163094 283.789356 
L 229.797978 274.656014 
L 230.432863 277.908982 
L 231.067747 291.921787 
L 231.702632 275.406712 
L 232.337516 282.413095 
L 232.972401 265.022224 
L 233.607285 285.79118 
L 234.24217 284.790268 
L 234.877054 295.174756 
L 235.511939 291.546438 
L 236.146823 272.529073 
L 236.781708 265.772904 
L 237.416592 287.918121 
L 238.051477 292.422234 
L 238.686362 280.78662 
L 239.321246 290.545526 
L 239.956131 272.779306 
L 240.591015 282.663328 
L 241.2259 282.538212 
L 241.860784 281.036834 
L 242.495669 296.676114 
L 243.130553 270.402133 
L 243.765438 282.037765 
L 244.400322 261.393907 
L 245.035207 286.166529 
L 245.670091 278.65968 
L 246.304976 291.421322 
L 246.93986 272.779306 
L 247.574745 298.803055 
L 248.209629 285.165617 
L 248.844514 279.160127 
L 249.479398 290.795759 
L 250.114283 280.78662 
L 250.749167 284.039589 
L 251.384052 288.29347 
L 252.018936 282.413095 
L 252.653821 281.787532 
L 253.288705 294.298941 
L 253.92359 291.045973 
L 254.558474 286.041413 
L 255.193359 290.045061 
L 255.828243 274.280683 
L 256.463128 304.683429 
L 257.098012 282.788444 
L 257.732897 283.038677 
L 258.367781 284.915385 
L 259.002666 281.161951 
L 259.63755 261.519023 
L 260.272435 295.550086 
L 260.90732 280.035923 
L 261.542204 296.300784 
L 262.177089 294.173844 
L 262.811973 286.666976 
L 263.446858 280.78662 
L 264.716627 287.042325 
L 265.351511 291.421322 
L 265.986396 291.171089 
L 266.62128 272.779306 
L 267.891049 292.797583 
L 268.525934 289.794847 
L 269.160818 283.914473 
L 269.795703 298.552841 
L 270.430587 305.684341 
L 271.065472 299.053287 
L 271.700356 295.299872 
L 272.335241 289.419498 
L 272.970125 275.281595 
L 273.60501 285.040501 
L 274.239894 278.034099 
L 274.874779 306.309922 
L 275.509663 275.907158 
L 276.144548 281.5373 
L 276.779432 291.296206 
L 277.414317 283.414007 
L 278.049201 294.173844 
L 278.684086 294.298941 
L 279.31897 298.552841 
L 279.953855 300.554665 
L 280.588739 296.425882 
L 281.223624 281.662416 
L 281.858509 285.666064 
L 282.493393 283.163793 
L 283.128278 269.651454 
L 283.763162 271.403045 
L 284.398047 290.170177 
L 285.032931 275.156479 
L 285.667816 290.295294 
L 286.3027 295.800319 
L 286.937585 278.784797 
L 287.572469 286.917209 
L 288.207354 287.167441 
L 288.842238 289.294382 
L 289.477123 280.661504 
L 290.112007 279.910806 
L 290.746892 282.538212 
L 291.381776 284.540036 
L 292.016661 278.284331 
L 292.651545 281.036834 
L 293.28643 300.179316 
L 293.921314 288.919033 
L 294.556199 267.774746 
L 295.191083 279.41036 
L 295.825968 281.912649 
L 296.460852 285.79118 
L 297.095737 301.055111 
L 297.730621 285.040501 
L 298.365506 278.034099 
L 299.00039 289.669731 
L 299.635275 303.557401 
L 300.270159 294.799407 
L 300.905044 300.554665 
L 301.539928 308.061514 
L 302.174813 274.656014 
L 302.809697 285.916297 
L 303.444582 299.30352 
L 304.079467 307.060602 
L 304.714351 295.049639 
L 305.349236 300.804897 
L 305.98412 274.906246 
L 306.619005 290.670643 
L 307.253889 294.173844 
L 307.888774 282.162863 
L 308.523658 307.936397 
L 309.158543 286.792092 
L 309.793427 287.042325 
L 310.428312 288.793916 
L 311.063196 301.180228 
L 311.698081 299.428636 
L 312.332965 301.180228 
L 312.96785 283.163793 
L 314.237619 300.679781 
L 314.872503 298.302608 
L 315.507388 286.792092 
L 316.142272 290.795759 
L 316.777157 296.175668 
L 317.412041 291.045973 
L 318.046926 286.917209 
L 318.68181 285.415831 
L 319.316695 300.929995 
L 319.951579 286.166529 
L 320.586464 284.414919 
L 321.221348 292.922699 
L 321.856233 290.670643 
L 322.491117 279.535476 
L 323.126002 300.054199 
L 323.760886 278.65968 
L 324.395771 289.044149 
L 325.030656 281.787532 
L 325.66554 288.29347 
L 326.300425 303.682517 
L 326.935309 302.18114 
L 327.570194 294.549174 
L 328.205078 308.18663 
L 328.839963 285.040501 
L 329.474847 293.172913 
L 330.109732 304.933662 
L 330.744616 286.917209 
L 332.014385 296.175668 
L 332.64927 295.174756 
L 333.284154 305.434108 
L 333.919039 287.54279 
L 334.553923 279.41036 
L 335.188808 289.669731 
L 335.823692 292.797583 
L 336.458577 292.54735 
L 337.093461 285.79118 
L 337.728346 294.048727 
L 338.36323 289.419498 
L 338.998115 290.545526 
L 339.632999 292.54735 
L 340.267884 316.819508 
L 340.902768 290.545526 
L 341.537653 301.680693 
L 342.172537 287.042325 
L 342.807422 292.297118 
L 343.442306 283.66424 
L 344.077191 298.177492 
L 344.712075 285.79118 
L 345.34696 285.79118 
L 345.981844 289.919945 
L 346.616729 298.552841 
L 347.251614 290.295294 
L 347.886498 289.669731 
L 348.521383 290.920857 
L 349.156267 270.026784 
L 349.791152 294.799407 
L 350.426036 288.543702 
L 351.060921 292.672467 
L 351.695805 281.787532 
L 352.33069 295.675202 
L 352.965574 298.052375 
L 353.600459 299.929083 
L 354.235343 288.168353 
L 354.870228 290.795759 
L 355.505112 274.030451 
L 356.139997 290.42041 
L 356.774881 287.793004 
L 357.409766 296.425882 
L 358.04465 299.553753 
L 358.679535 280.411272 
L 359.314419 286.54186 
L 359.949304 302.056023 
L 360.584188 291.421322 
L 361.219073 283.539124 
L 361.853957 290.545526 
L 362.488842 292.422234 
L 363.123726 282.413095 
L 363.758611 294.424058 
L 364.393495 283.789356 
L 365.02838 280.661504 
L 365.663264 283.914473 
L 366.298149 289.669731 
L 366.933033 301.43046 
L 367.567918 303.056935 
L 368.202803 282.913561 
L 368.837687 291.796671 
L 369.472572 274.280683 
L 370.107456 291.171089 
L 370.742341 302.18114 
L 371.377225 295.42497 
L 372.01211 283.66424 
L 372.646994 286.917209 
L 373.281879 287.793004 
L 374.551648 303.807633 
L 375.186532 284.289822 
L 375.821417 288.418586 
L 376.456301 285.040501 
L 377.091186 294.799407 
L 377.72607 278.034099 
L 378.360955 276.407624 
L 378.995839 287.793004 
L 379.630724 283.539124 
L 380.265608 266.773816 
L 380.900493 301.555577 
L 381.535377 291.921787 
L 382.170262 278.284331 
L 382.805146 288.793916 
L 383.440031 296.175668 
L 384.074915 284.039589 
L 384.7098 298.427724 
L 385.344684 279.660592 
L 385.979569 279.535476 
L 386.614453 276.782954 
L 387.884222 298.552841 
L 388.519107 295.42497 
L 389.153991 288.168353 
L 389.788876 287.667888 
L 390.423761 280.911737 
L 391.058645 293.047816 
L 391.69353 286.041413 
L 392.328414 288.543702 
L 392.963299 285.415831 
L 393.598183 298.052375 
L 394.233068 292.046885 
L 394.867952 279.660592 
L 395.502837 284.915385 
L 396.137721 276.032275 
L 397.40749 291.796671 
L 398.042375 285.540948 
L 398.677259 301.680693 
L 399.312144 278.409448 
L 399.947028 293.172913 
L 400.581913 286.792092 
L 401.216797 276.657838 
L 401.851682 296.550998 
L 402.486566 289.794847 
L 403.121451 284.915385 
L 403.756335 289.544614 
L 404.39122 292.672467 
L 405.026104 289.794847 
L 405.660989 284.164705 
L 406.295873 287.042325 
L 406.930758 285.165617 
L 407.565642 298.052375 
L 408.200527 304.057866 
L 408.835411 289.544614 
L 409.470296 289.294382 
L 410.10518 288.418586 
L 410.740065 280.78662 
L 411.37495 286.54186 
L 412.009834 287.167441 
L 412.644719 294.424058 
L 413.279603 285.916297 
L 413.914488 299.428636 
L 414.549372 296.300784 
L 415.184257 292.422234 
L 415.819141 284.289822 
L 417.08891 292.046885 
L 417.723795 275.156479 
L 418.993564 292.422234 
L 419.628448 283.038677 
L 420.898217 299.803967 
L 421.533102 294.924523 
L 422.167986 283.789356 
L 422.802871 287.667888 
L 423.437755 277.408536 
L 424.07264 289.419498 
L 424.707524 288.919033 
L 425.342409 285.290734 
L 425.977293 276.157391 
L 426.612178 289.544614 
L 427.247062 273.154655 
L 427.881947 289.919945 
L 428.516831 287.793004 
L 429.151716 294.67429 
L 429.7866 281.912649 
L 430.421485 289.169265 
L 431.056369 293.047816 
L 431.691254 284.414919 
L 432.326138 287.918121 
L 432.961023 293.047816 
L 433.595908 278.409448 
L 434.230792 291.421322 
L 434.865677 291.546438 
L 435.500561 291.421322 
L 436.135446 283.66424 
L 436.77033 289.169265 
L 437.405215 298.552841 
L 438.040099 297.426812 
L 438.674984 289.419498 
L 439.309868 297.301696 
L 439.944753 279.660592 
L 440.579637 284.790268 
L 441.214522 288.29347 
L 441.849406 285.79118 
L 442.484291 294.048727 
L 443.119175 282.538212 
L 443.75406 280.536388 
L 444.388944 285.290734 
L 445.023829 287.167441 
L 445.658713 290.545526 
L 446.293598 291.296206 
L 446.928482 283.539124 
L 447.563367 290.170177 
L 448.198251 276.90807 
L 448.833136 292.797583 
L 449.46802 287.54279 
L 450.102905 290.920857 
L 450.737789 283.038677 
L 451.372674 299.678869 
L 452.007558 302.806721 
L 452.642443 286.792092 
L 453.277327 283.539124 
L 453.912212 307.310834 
L 454.547097 304.683429 
L 455.181981 291.296206 
L 455.816866 288.29347 
L 457.086635 291.296206 
L 457.721519 284.665152 
L 458.356404 285.79118 
L 458.991288 288.793916 
L 459.626173 285.290734 
L 460.261057 299.178404 
L 460.895942 288.543702 
L 461.530826 285.290734 
L 462.165711 292.672467 
L 462.800595 303.307168 
L 463.43548 290.545526 
L 464.070364 285.79118 
L 464.705249 291.421322 
L 465.340133 295.174756 
L 465.975018 294.173844 
L 466.609902 291.921787 
L 467.244787 293.29803 
L 467.879671 285.165617 
L 468.514556 300.304432 
L 469.14944 289.044149 
L 469.784325 289.919945 
L 470.419209 299.553753 
L 471.054094 295.550086 
L 471.688978 302.931838 
L 472.323863 297.55191 
L 472.958747 301.555577 
L 473.593632 288.043237 
L 474.228516 298.677938 
L 475.498285 284.540036 
L 476.13317 289.294382 
L 476.768055 297.677026 
L 477.402939 296.175668 
L 478.037824 301.805809 
L 478.672708 279.41036 
L 479.307593 297.802143 
L 479.942477 295.299872 
L 480.577362 297.927259 
L 481.212246 291.045973 
L 481.847131 293.423146 
L 482.482015 300.179316 
L 483.1169 296.175668 
L 483.751784 290.795759 
L 484.386669 299.553753 
L 485.021553 275.031363 
L 485.656438 293.673378 
L 486.291322 284.790268 
L 486.926207 289.919945 
L 487.561091 299.803967 
L 488.195976 295.049639 
L 488.83086 301.055111 
L 489.465745 296.050551 
L 490.100629 287.042325 
L 490.735514 295.299872 
L 491.370398 299.553753 
L 492.005283 305.308992 
L 492.640167 291.171089 
L 493.275052 302.056023 
L 493.909936 293.29803 
L 494.544821 292.922699 
L 495.179705 286.54186 
L 495.81459 288.793916 
L 496.449474 298.928171 
L 497.084359 285.916297 
L 498.354128 296.926347 
L 498.989013 299.803967 
L 499.623897 297.301696 
L 500.258782 300.679781 
L 500.893666 305.934574 
L 502.163435 291.045973 
L 502.79832 293.047816 
L 503.433204 293.923611 
L 504.068089 289.044149 
L 504.702973 285.916297 
L 505.337858 294.67429 
L 505.972742 296.926347 
L 506.607627 292.046885 
L 507.242511 299.428636 
L 507.877396 298.928171 
L 508.51228 307.310834 
L 509.147165 299.30352 
L 509.782049 289.294382 
L 510.416934 290.045061 
L 511.051818 297.802143 
L 511.686703 295.049639 
L 512.321587 305.434108 
L 512.956472 298.052375 
L 513.591356 294.799407 
L 514.226241 295.049639 
L 514.861125 287.667888 
L 515.49601 304.808545 
L 516.130894 296.550998 
L 516.765779 300.679781 
L 517.400663 295.049639 
L 518.035548 290.920857 
L 518.670433 291.921787 
L 519.305317 297.927259 
L 519.940202 310.063338 
L 520.575086 288.043237 
L 521.209971 294.67429 
L 521.844855 299.178404 
L 522.47974 298.052375 
L 523.114624 288.793916 
L 523.749509 293.548262 
L 524.384393 301.305344 
L 525.019278 292.422234 
L 525.654162 300.929995 
L 526.289047 298.302608 
L 526.923931 298.928171 
L 527.558816 292.922699 
L 528.1937 300.804897 
L 528.828585 312.315394 
L 529.463469 300.179316 
L 530.098354 290.920857 
L 530.733238 290.295294 
L 531.368123 296.550998 
L 532.003007 291.796671 
L 532.637892 302.806721 
L 533.907661 293.423146 
L 534.542545 292.54735 
L 535.17743 286.792092 
L 535.812314 295.174756 
L 536.447199 287.042325 
L 537.082083 287.918121 
L 537.716968 295.174756 
L 538.351852 291.045973 
L 538.986737 295.42497 
L 539.621621 289.669731 
L 540.256506 311.940045 
L 540.891391 299.929083 
L 542.16116 294.549174 
L 542.796044 303.307168 
L 543.430929 288.668819 
L 544.065813 305.434108 
L 545.335582 299.428636 
L 545.970467 290.795759 
L 546.605351 290.795759 
L 547.240236 293.29803 
L 547.87512 296.300784 
L 548.510005 304.057866 
L 549.144889 295.675202 
L 549.779774 296.550998 
L 550.414658 292.922699 
L 551.049543 308.812193 
L 551.684427 293.423146 
L 552.319312 286.54186 
L 552.954196 302.431372 
L 553.589081 302.306256 
L 554.223965 296.676114 
L 554.85885 303.056935 
L 555.493734 296.300784 
L 556.128619 301.930907 
L 556.763503 308.937309 
L 557.398388 293.673378 
L 558.033272 297.677026 
L 558.668157 300.679781 
L 559.303041 305.684341 
L 559.937926 308.18663 
L 560.57281 285.916297 
L 561.207695 290.795759 
L 561.84258 299.553753 
L 562.477464 286.917209 
L 563.112349 289.794847 
L 563.747233 295.675202 
L 564.382118 285.040501 
L 565.017002 290.795759 
L 565.651887 298.177492 
L 566.286771 294.298941 
L 566.921656 280.411272 
L 567.55654 299.30352 
L 568.191425 293.423146 
L 568.826309 291.421322 
L 569.461194 291.546438 
L 570.096078 301.805809 
L 570.730963 291.796671 
L 571.365847 295.675202 
L 572.000732 298.177492 
L 572.635616 288.418586 
L 573.270501 290.045061 
L 573.905385 300.304432 
L 574.54027 299.178404 
L 575.175154 285.79118 
L 575.810039 297.802143 
L 576.444923 301.930907 
L 577.079808 292.172001 
L 577.714692 306.184806 
L 578.349577 285.415831 
L 578.984461 290.295294 
L 579.619346 280.78662 
L 580.25423 287.167441 
L 580.889115 307.686165 
L 581.523999 298.052375 
L 582.158884 296.676114 
L 582.793768 286.666976 
L 583.428653 293.29803 
L 584.063538 302.056023 
L 584.698422 295.42497 
L 585.333307 298.803055 
L 585.968191 297.051463 
L 586.603076 290.295294 
L 587.23796 285.415831 
L 587.872845 296.801231 
L 588.507729 305.934574 
L 589.142614 289.044149 
L 589.142614 289.044149 
" clip-path="url(#pc1bf6a420a)" style="fill: none; stroke: #ff7f0e; stroke-width: 1.5; stroke-linecap: square"/>
   </g>
   <g id="line2d_39">
    <path d="M 56.50625 551.518125 
L 614.50625 551.518125 
" clip-path="url(#pc1bf6a420a)" style="fill: none; stroke-dasharray: 11.1,4.8; stroke-dashoffset: 0; stroke: #ff0000; stroke-width: 3"/>
   </g>
   <g id="patch_3">
    <path d="M 56.50625 576.718125 
L 56.50625 22.318125 
" style="fill: none; stroke: #000000; stroke-width: 0.8; stroke-linejoin: miter; stroke-linecap: square"/>
   </g>
   <g id="patch_4">
    <path d="M 614.50625 576.718125 
L 614.50625 22.318125 
" style="fill: none; stroke: #000000; stroke-width: 0.8; stroke-linejoin: miter; stroke-linecap: square"/>
   </g>
   <g id="patch_5">
    <path d="M 56.50625 576.718125 
L 614.50625 576.718125 
" style="fill: none; stroke: #000000; stroke-width: 0.8; stroke-linejoin: miter; stroke-linecap: square"/>
   </g>
   <g id="patch_6">
    <path d="M 56.50625 22.318125 
L 614.50625 22.318125 
" style="fill: none; stroke: #000000; stroke-width: 0.8; stroke-linejoin: miter; stroke-linecap: square"/>
   </g>
   <g id="text_21">
    <!-- Train and Val Accuracy -->
    <g transform="translate(267.727813 16.318125) scale(0.12 -0.12)">
     <defs>
      <path id="DejaVuSans-54" d="M -19 4666 
L 3928 4666 
L 3928 4134 
L 2272 4134 
L 2272 0 
L 1638 0 
L 1638 4134 
L -19 4134 
L -19 4666 
z
" transform="scale(0.015625)"/>
      <path id="DejaVuSans-69" d="M 603 3500 
L 1178 3500 
L 1178 0 
L 603 0 
L 603 3500 
z
M 603 4863 
L 1178 4863 
L 1178 4134 
L 603 4134 
L 603 4863 
z
" transform="scale(0.015625)"/>
      <path id="DejaVuSans-6e" d="M 3513 2113 
L 3513 0 
L 2938 0 
L 2938 2094 
Q 2938 2591 2744 2837 
Q 2550 3084 2163 3084 
Q 1697 3084 1428 2787 
Q 1159 2491 1159 1978 
L 1159 0 
L 581 0 
L 581 3500 
L 1159 3500 
L 1159 2956 
Q 1366 3272 1645 3428 
Q 1925 3584 2291 3584 
Q 2894 3584 3203 3211 
Q 3513 2838 3513 2113 
z
" transform="scale(0.015625)"/>
      <path id="DejaVuSans-20" transform="scale(0.015625)"/>
      <path id="DejaVuSans-64" d="M 2906 2969 
L 2906 4863 
L 3481 4863 
L 3481 0 
L 2906 0 
L 2906 525 
Q 2725 213 2448 61 
Q 2172 -91 1784 -91 
Q 1150 -91 751 415 
Q 353 922 353 1747 
Q 353 2572 751 3078 
Q 1150 3584 1784 3584 
Q 2172 3584 2448 3432 
Q 2725 3281 2906 2969 
z
M 947 1747 
Q 947 1113 1208 752 
Q 1469 391 1925 391 
Q 2381 391 2643 752 
Q 2906 1113 2906 1747 
Q 2906 2381 2643 2742 
Q 2381 3103 1925 3103 
Q 1469 3103 1208 2742 
Q 947 2381 947 1747 
z
" transform="scale(0.015625)"/>
      <path id="DejaVuSans-56" d="M 1831 0 
L 50 4666 
L 709 4666 
L 2188 738 
L 3669 4666 
L 4325 4666 
L 2547 0 
L 1831 0 
z
" transform="scale(0.015625)"/>
      <path id="DejaVuSans-6c" d="M 603 4863 
L 1178 4863 
L 1178 0 
L 603 0 
L 603 4863 
z
" transform="scale(0.015625)"/>
     </defs>
     <use xlink:href="#DejaVuSans-54"/>
     <use xlink:href="#DejaVuSans-72" transform="translate(46.333984 0)"/>
     <use xlink:href="#DejaVuSans-61" transform="translate(87.447266 0)"/>
     <use xlink:href="#DejaVuSans-69" transform="translate(148.726562 0)"/>
     <use xlink:href="#DejaVuSans-6e" transform="translate(176.509766 0)"/>
     <use xlink:href="#DejaVuSans-20" transform="translate(239.888672 0)"/>
     <use xlink:href="#DejaVuSans-61" transform="translate(271.675781 0)"/>
     <use xlink:href="#DejaVuSans-6e" transform="translate(332.955078 0)"/>
     <use xlink:href="#DejaVuSans-64" transform="translate(396.333984 0)"/>
     <use xlink:href="#DejaVuSans-20" transform="translate(459.810547 0)"/>
     <use xlink:href="#DejaVuSans-56" transform="translate(491.597656 0)"/>
     <use xlink:href="#DejaVuSans-61" transform="translate(552.255859 0)"/>
     <use xlink:href="#DejaVuSans-6c" transform="translate(613.535156 0)"/>
     <use xlink:href="#DejaVuSans-20" transform="translate(641.318359 0)"/>
     <use xlink:href="#DejaVuSans-41" transform="translate(673.105469 0)"/>
     <use xlink:href="#DejaVuSans-63" transform="translate(739.763672 0)"/>
     <use xlink:href="#DejaVuSans-63" transform="translate(794.744141 0)"/>
     <use xlink:href="#DejaVuSans-75" transform="translate(849.724609 0)"/>
     <use xlink:href="#DejaVuSans-72" transform="translate(913.103516 0)"/>
     <use xlink:href="#DejaVuSans-61" transform="translate(954.216797 0)"/>
     <use xlink:href="#DejaVuSans-63" transform="translate(1015.496094 0)"/>
     <use xlink:href="#DejaVuSans-79" transform="translate(1070.476562 0)"/>
    </g>
   </g>
   <g id="legend_1">
    <g id="patch_7">
     <path d="M 63.50625 74.90875 
L 230.629687 74.90875 
Q 232.629687 74.90875 232.629687 72.90875 
L 232.629687 29.318125 
Q 232.629687 27.318125 230.629687 27.318125 
L 63.50625 27.318125 
Q 61.50625 27.318125 61.50625 29.318125 
L 61.50625 72.90875 
Q 61.50625 74.90875 63.50625 74.90875 
z
" style="fill: #ffffff; opacity: 0.8; stroke: #cccccc; stroke-linejoin: miter"/>
    </g>
    <g id="line2d_40">
     <path d="M 65.50625 35.416562 
L 75.50625 35.416562 
L 85.50625 35.416562 
" style="fill: none; stroke: #1f77b4; stroke-width: 1.5; stroke-linecap: square"/>
    </g>
    <g id="text_22">
     <!-- train_accuracy -->
     <g transform="translate(93.50625 38.916562) scale(0.1 -0.1)">
      <defs>
       <path id="DejaVuSans-74" d="M 1172 4494 
L 1172 3500 
L 2356 3500 
L 2356 3053 
L 1172 3053 
L 1172 1153 
Q 1172 725 1289 603 
Q 1406 481 1766 481 
L 2356 481 
L 2356 0 
L 1766 0 
Q 1100 0 847 248 
Q 594 497 594 1153 
L 594 3053 
L 172 3053 
L 172 3500 
L 594 3500 
L 594 4494 
L 1172 4494 
z
" transform="scale(0.015625)"/>
       <path id="DejaVuSans-5f" d="M 3263 -1063 
L 3263 -1509 
L -63 -1509 
L -63 -1063 
L 3263 -1063 
z
" transform="scale(0.015625)"/>
      </defs>
      <use xlink:href="#DejaVuSans-74"/>
      <use xlink:href="#DejaVuSans-72" transform="translate(39.208984 0)"/>
      <use xlink:href="#DejaVuSans-61" transform="translate(80.322266 0)"/>
      <use xlink:href="#DejaVuSans-69" transform="translate(141.601562 0)"/>
      <use xlink:href="#DejaVuSans-6e" transform="translate(169.384766 0)"/>
      <use xlink:href="#DejaVuSans-5f" transform="translate(232.763672 0)"/>
      <use xlink:href="#DejaVuSans-61" transform="translate(282.763672 0)"/>
      <use xlink:href="#DejaVuSans-63" transform="translate(344.042969 0)"/>
      <use xlink:href="#DejaVuSans-63" transform="translate(399.023438 0)"/>
      <use xlink:href="#DejaVuSans-75" transform="translate(454.003906 0)"/>
      <use xlink:href="#DejaVuSans-72" transform="translate(517.382812 0)"/>
      <use xlink:href="#DejaVuSans-61" transform="translate(558.496094 0)"/>
      <use xlink:href="#DejaVuSans-63" transform="translate(619.775391 0)"/>
      <use xlink:href="#DejaVuSans-79" transform="translate(674.755859 0)"/>
     </g>
    </g>
    <g id="line2d_41">
     <path d="M 65.50625 50.372812 
L 75.50625 50.372812 
L 85.50625 50.372812 
" style="fill: none; stroke: #ff7f0e; stroke-width: 1.5; stroke-linecap: square"/>
    </g>
    <g id="text_23">
     <!-- val_accuracy -->
     <g transform="translate(93.50625 53.872812) scale(0.1 -0.1)">
      <defs>
       <path id="DejaVuSans-76" d="M 191 3500 
L 800 3500 
L 1894 563 
L 2988 3500 
L 3597 3500 
L 2284 0 
L 1503 0 
L 191 3500 
z
" transform="scale(0.015625)"/>
      </defs>
      <use xlink:href="#DejaVuSans-76"/>
      <use xlink:href="#DejaVuSans-61" transform="translate(59.179688 0)"/>
      <use xlink:href="#DejaVuSans-6c" transform="translate(120.458984 0)"/>
      <use xlink:href="#DejaVuSans-5f" transform="translate(148.242188 0)"/>
      <use xlink:href="#DejaVuSans-61" transform="translate(198.242188 0)"/>
      <use xlink:href="#DejaVuSans-63" transform="translate(259.521484 0)"/>
      <use xlink:href="#DejaVuSans-63" transform="translate(314.501953 0)"/>
      <use xlink:href="#DejaVuSans-75" transform="translate(369.482422 0)"/>
      <use xlink:href="#DejaVuSans-72" transform="translate(432.861328 0)"/>
      <use xlink:href="#DejaVuSans-61" transform="translate(473.974609 0)"/>
      <use xlink:href="#DejaVuSans-63" transform="translate(535.253906 0)"/>
      <use xlink:href="#DejaVuSans-79" transform="translate(590.234375 0)"/>
     </g>
    </g>
    <g id="line2d_42">
     <path d="M 65.50625 65.329062 
L 75.50625 65.329062 
L 85.50625 65.329062 
" style="fill: none; stroke-dasharray: 11.1,4.8; stroke-dashoffset: 0; stroke: #ff0000; stroke-width: 3"/>
    </g>
    <g id="text_24">
     <!-- Random-Guesser Accuracy -->
     <g transform="translate(93.50625 68.829062) scale(0.1 -0.1)">
      <defs>
       <path id="DejaVuSans-52" d="M 2841 2188 
Q 3044 2119 3236 1894 
Q 3428 1669 3622 1275 
L 4263 0 
L 3584 0 
L 2988 1197 
Q 2756 1666 2539 1819 
Q 2322 1972 1947 1972 
L 1259 1972 
L 1259 0 
L 628 0 
L 628 4666 
L 2053 4666 
Q 2853 4666 3247 4331 
Q 3641 3997 3641 3322 
Q 3641 2881 3436 2590 
Q 3231 2300 2841 2188 
z
M 1259 4147 
L 1259 2491 
L 2053 2491 
Q 2509 2491 2742 2702 
Q 2975 2913 2975 3322 
Q 2975 3731 2742 3939 
Q 2509 4147 2053 4147 
L 1259 4147 
z
" transform="scale(0.015625)"/>
       <path id="DejaVuSans-6d" d="M 3328 2828 
Q 3544 3216 3844 3400 
Q 4144 3584 4550 3584 
Q 5097 3584 5394 3201 
Q 5691 2819 5691 2113 
L 5691 0 
L 5113 0 
L 5113 2094 
Q 5113 2597 4934 2840 
Q 4756 3084 4391 3084 
Q 3944 3084 3684 2787 
Q 3425 2491 3425 1978 
L 3425 0 
L 2847 0 
L 2847 2094 
Q 2847 2600 2669 2842 
Q 2491 3084 2119 3084 
Q 1678 3084 1418 2786 
Q 1159 2488 1159 1978 
L 1159 0 
L 581 0 
L 581 3500 
L 1159 3500 
L 1159 2956 
Q 1356 3278 1631 3431 
Q 1906 3584 2284 3584 
Q 2666 3584 2933 3390 
Q 3200 3197 3328 2828 
z
" transform="scale(0.015625)"/>
       <path id="DejaVuSans-2d" d="M 313 2009 
L 1997 2009 
L 1997 1497 
L 313 1497 
L 313 2009 
z
" transform="scale(0.015625)"/>
       <path id="DejaVuSans-47" d="M 3809 666 
L 3809 1919 
L 2778 1919 
L 2778 2438 
L 4434 2438 
L 4434 434 
Q 4069 175 3628 42 
Q 3188 -91 2688 -91 
Q 1594 -91 976 548 
Q 359 1188 359 2328 
Q 359 3472 976 4111 
Q 1594 4750 2688 4750 
Q 3144 4750 3555 4637 
Q 3966 4525 4313 4306 
L 4313 3634 
Q 3963 3931 3569 4081 
Q 3175 4231 2741 4231 
Q 1884 4231 1454 3753 
Q 1025 3275 1025 2328 
Q 1025 1384 1454 906 
Q 1884 428 2741 428 
Q 3075 428 3337 486 
Q 3600 544 3809 666 
z
" transform="scale(0.015625)"/>
       <path id="DejaVuSans-65" d="M 3597 1894 
L 3597 1613 
L 953 1613 
Q 991 1019 1311 708 
Q 1631 397 2203 397 
Q 2534 397 2845 478 
Q 3156 559 3463 722 
L 3463 178 
Q 3153 47 2828 -22 
Q 2503 -91 2169 -91 
Q 1331 -91 842 396 
Q 353 884 353 1716 
Q 353 2575 817 3079 
Q 1281 3584 2069 3584 
Q 2775 3584 3186 3129 
Q 3597 2675 3597 1894 
z
M 3022 2063 
Q 3016 2534 2758 2815 
Q 2500 3097 2075 3097 
Q 1594 3097 1305 2825 
Q 1016 2553 972 2059 
L 3022 2063 
z
" transform="scale(0.015625)"/>
      </defs>
      <use xlink:href="#DejaVuSans-52"/>
      <use xlink:href="#DejaVuSans-61" transform="translate(67.232422 0)"/>
      <use xlink:href="#DejaVuSans-6e" transform="translate(128.511719 0)"/>
      <use xlink:href="#DejaVuSans-64" transform="translate(191.890625 0)"/>
      <use xlink:href="#DejaVuSans-6f" transform="translate(255.367188 0)"/>
      <use xlink:href="#DejaVuSans-6d" transform="translate(316.548828 0)"/>
      <use xlink:href="#DejaVuSans-2d" transform="translate(413.960938 0)"/>
      <use xlink:href="#DejaVuSans-47" transform="translate(453.669922 0)"/>
      <use xlink:href="#DejaVuSans-75" transform="translate(531.160156 0)"/>
      <use xlink:href="#DejaVuSans-65" transform="translate(594.539062 0)"/>
      <use xlink:href="#DejaVuSans-73" transform="translate(656.0625 0)"/>
      <use xlink:href="#DejaVuSans-73" transform="translate(708.162109 0)"/>
      <use xlink:href="#DejaVuSans-65" transform="translate(760.261719 0)"/>
      <use xlink:href="#DejaVuSans-72" transform="translate(821.785156 0)"/>
      <use xlink:href="#DejaVuSans-20" transform="translate(862.898438 0)"/>
      <use xlink:href="#DejaVuSans-41" transform="translate(894.685547 0)"/>
      <use xlink:href="#DejaVuSans-63" transform="translate(961.34375 0)"/>
      <use xlink:href="#DejaVuSans-63" transform="translate(1016.324219 0)"/>
      <use xlink:href="#DejaVuSans-75" transform="translate(1071.304688 0)"/>
      <use xlink:href="#DejaVuSans-72" transform="translate(1134.683594 0)"/>
      <use xlink:href="#DejaVuSans-61" transform="translate(1175.796875 0)"/>
      <use xlink:href="#DejaVuSans-63" transform="translate(1237.076172 0)"/>
      <use xlink:href="#DejaVuSans-79" transform="translate(1292.056641 0)"/>
     </g>
    </g>
   </g>
  </g>
 </g>
 <defs>
  <clipPath id="pc1bf6a420a">
   <rect x="56.50625" y="22.318125" width="558" height="554.4"/>
  </clipPath>
 </defs>
</svg>
