<?xml version="1.0" encoding="utf-8" standalone="no"?>
<!DOCTYPE svg PUBLIC "-//W3C//DTD SVG 1.1//EN"
  "http://www.w3.org/Graphics/SVG/1.1/DTD/svg11.dtd">
<svg xmlns:xlink="http://www.w3.org/1999/xlink" width="615.34375pt" height="614.274375pt" viewBox="0 0 615.34375 614.274375" xmlns="http://www.w3.org/2000/svg" version="1.1">
 <metadata>
  <rdf:RDF xmlns:dc="http://purl.org/dc/elements/1.1/" xmlns:cc="http://creativecommons.org/ns#" xmlns:rdf="http://www.w3.org/1999/02/22-rdf-syntax-ns#">
   <cc:Work>
    <dc:type rdf:resource="http://purl.org/dc/dcmitype/StillImage"/>
    <dc:date>2026-05-23T18:03:14.315141</dc:date>
    <dc:format>image/svg+xml</dc:format>
    <dc:creator>
     <cc:Agent>
      <dc:title>Matplotlib v3.10.9, https://matplotlib.org/</dc:title>
     </cc:Agent>
    </dc:creator>
   </cc:Work>
  </rdf:RDF>
 </metadata>
 <defs>
  <style type="text/css">*{stroke-linejoin: round; stroke-linecap: butt}</style>
 </defs>
 <g id="figure_1">
  <g id="patch_1">
   <path d="M 0 614.274375 
L 615.34375 614.274375 
L 615.34375 0 
L 0 0 
z
" style="fill: #ffffff"/>
  </g>
  <g id="axes_1">
   <g id="patch_2">
    <path d="M 50.14375 576.718125 
L 608.14375 576.718125 
L 608.14375 22.318125 
L 50.14375 22.318125 
z
" style="fill: #ffffff"/>
   </g>
   <g id="matplotlib.axis_1">
    <g id="xtick_1">
     <g id="line2d_1">
      <path d="M 75.507386 576.718125 
L 75.507386 22.318125 
" clip-path="url(#p3ec8bcfb89)" style="fill: none; stroke: #b0b0b0; stroke-width: 0.8; stroke-linecap: square"/>
     </g>
     <g id="line2d_2">
      <defs>
       <path id="mfd7739b47e" d="M 0 0 
L 0 3.5 
" style="stroke: #000000; stroke-width: 0.8"/>
      </defs>
      <g>
       <use xlink:href="#mfd7739b47e" x="75.507386" y="576.718125" style="stroke: #000000; stroke-width: 0.8"/>
      </g>
     </g>
     <g id="text_1">
      <!-- 0 -->
      <g transform="translate(72.326136 591.316563) scale(0.1 -0.1)">
       <defs>
        <path id="DejaVuSans-30" d="M 2034 4250 
Q 1547 4250 1301 3770 
Q 1056 3291 1056 2328 
Q 1056 1369 1301 889 
Q 1547 409 2034 409 
Q 2525 409 2770 889 
Q 3016 1369 3016 2328 
Q 3016 3291 2770 3770 
Q 2525 4250 2034 4250 
z
M 2034 4750 
Q 2819 4750 3233 4129 
Q 3647 3509 3647 2328 
Q 3647 1150 3233 529 
Q 2819 -91 2034 -91 
Q 1250 -91 836 529 
Q 422 1150 422 2328 
Q 422 3509 836 4129 
Q 1250 4750 2034 4750 
z
" transform="scale(0.015625)"/>
       </defs>
       <use xlink:href="#DejaVuSans-30"/>
      </g>
     </g>
    </g>
    <g id="xtick_2">
     <g id="line2d_3">
      <path d="M 138.995838 576.718125 
L 138.995838 22.318125 
" clip-path="url(#p3ec8bcfb89)" style="fill: none; stroke: #b0b0b0; stroke-width: 0.8; stroke-linecap: square"/>
     </g>
     <g id="line2d_4">
      <g>
       <use xlink:href="#mfd7739b47e" x="138.995838" y="576.718125" style="stroke: #000000; stroke-width: 0.8"/>
      </g>
     </g>
     <g id="text_2">
      <!-- 100 -->
      <g transform="translate(129.452088 591.316563) scale(0.1 -0.1)">
       <defs>
        <path id="DejaVuSans-31" d="M 794 531 
L 1825 531 
L 1825 4091 
L 703 3866 
L 703 4441 
L 1819 4666 
L 2450 4666 
L 2450 531 
L 3481 531 
L 3481 0 
L 794 0 
L 794 531 
z
" transform="scale(0.015625)"/>
       </defs>
       <use xlink:href="#DejaVuSans-31"/>
       <use xlink:href="#DejaVuSans-30" transform="translate(63.623047 0)"/>
       <use xlink:href="#DejaVuSans-30" transform="translate(127.246094 0)"/>
      </g>
     </g>
    </g>
    <g id="xtick_3">
     <g id="line2d_5">
      <path d="M 202.484289 576.718125 
L 202.484289 22.318125 
" clip-path="url(#p3ec8bcfb89)" style="fill: none; stroke: #b0b0b0; stroke-width: 0.8; stroke-linecap: square"/>
     </g>
     <g id="line2d_6">
      <g>
       <use xlink:href="#mfd7739b47e" x="202.484289" y="576.718125" style="stroke: #000000; stroke-width: 0.8"/>
      </g>
     </g>
     <g id="text_3">
      <!-- 200 -->
      <g transform="translate(192.940539 591.316563) scale(0.1 -0.1)">
       <defs>
        <path id="DejaVuSans-32" d="M 1228 531 
L 3431 531 
L 3431 0 
L 469 0 
L 469 531 
Q 828 903 1448 1529 
Q 2069 2156 2228 2338 
Q 2531 2678 2651 2914 
Q 2772 3150 2772 3378 
Q 2772 3750 2511 3984 
Q 2250 4219 1831 4219 
Q 1534 4219 1204 4116 
Q 875 4013 500 3803 
L 500 4441 
Q 881 4594 1212 4672 
Q 1544 4750 1819 4750 
Q 2544 4750 2975 4387 
Q 3406 4025 3406 3419 
Q 3406 3131 3298 2873 
Q 3191 2616 2906 2266 
Q 2828 2175 2409 1742 
Q 1991 1309 1228 531 
z
" transform="scale(0.015625)"/>
       </defs>
       <use xlink:href="#DejaVuSans-32"/>
       <use xlink:href="#DejaVuSans-30" transform="translate(63.623047 0)"/>
       <use xlink:href="#DejaVuSans-30" transform="translate(127.246094 0)"/>
      </g>
     </g>
    </g>
    <g id="xtick_4">
     <g id="line2d_7">
      <path d="M 265.972741 576.718125 
L 265.972741 22.318125 
" clip-path="url(#p3ec8bcfb89)" style="fill: none; stroke: #b0b0b0; stroke-width: 0.8; stroke-linecap: square"/>
     </g>
     <g id="line2d_8">
      <g>
       <use xlink:href="#mfd7739b47e" x="265.972741" y="576.718125" style="stroke: #000000; stroke-width: 0.8"/>
      </g>
     </g>
     <g id="text_4">
      <!-- 300 -->
      <g transform="translate(256.428991 591.316563) scale(0.1 -0.1)">
       <defs>
        <path id="DejaVuSans-33" d="M 2597 2516 
Q 3050 2419 3304 2112 
Q 3559 1806 3559 1356 
Q 3559 666 3084 287 
Q 2609 -91 1734 -91 
Q 1441 -91 1130 -33 
Q 819 25 488 141 
L 488 750 
Q 750 597 1062 519 
Q 1375 441 1716 441 
Q 2309 441 2620 675 
Q 2931 909 2931 1356 
Q 2931 1769 2642 2001 
Q 2353 2234 1838 2234 
L 1294 2234 
L 1294 2753 
L 1863 2753 
Q 2328 2753 2575 2939 
Q 2822 3125 2822 3475 
Q 2822 3834 2567 4026 
Q 2313 4219 1838 4219 
Q 1578 4219 1281 4162 
Q 984 4106 628 3988 
L 628 4550 
Q 988 4650 1302 4700 
Q 1616 4750 1894 4750 
Q 2613 4750 3031 4423 
Q 3450 4097 3450 3541 
Q 3450 3153 3228 2886 
Q 3006 2619 2597 2516 
z
" transform="scale(0.015625)"/>
       </defs>
       <use xlink:href="#DejaVuSans-33"/>
       <use xlink:href="#DejaVuSans-30" transform="translate(63.623047 0)"/>
       <use xlink:href="#DejaVuSans-30" transform="translate(127.246094 0)"/>
      </g>
     </g>
    </g>
    <g id="xtick_5">
     <g id="line2d_9">
      <path d="M 329.461192 576.718125 
L 329.461192 22.318125 
" clip-path="url(#p3ec8bcfb89)" style="fill: none; stroke: #b0b0b0; stroke-width: 0.8; stroke-linecap: square"/>
     </g>
     <g id="line2d_10">
      <g>
       <use xlink:href="#mfd7739b47e" x="329.461192" y="576.718125" style="stroke: #000000; stroke-width: 0.8"/>
      </g>
     </g>
     <g id="text_5">
      <!-- 400 -->
      <g transform="translate(319.917442 591.316563) scale(0.1 -0.1)">
       <defs>
        <path id="DejaVuSans-34" d="M 2419 4116 
L 825 1625 
L 2419 1625 
L 2419 4116 
z
M 2253 4666 
L 3047 4666 
L 3047 1625 
L 3713 1625 
L 3713 1100 
L 3047 1100 
L 3047 0 
L 2419 0 
L 2419 1100 
L 313 1100 
L 313 1709 
L 2253 4666 
z
" transform="scale(0.015625)"/>
       </defs>
       <use xlink:href="#DejaVuSans-34"/>
       <use xlink:href="#DejaVuSans-30" transform="translate(63.623047 0)"/>
       <use xlink:href="#DejaVuSans-30" transform="translate(127.246094 0)"/>
      </g>
     </g>
    </g>
    <g id="xtick_6">
     <g id="line2d_11">
      <path d="M 392.949644 576.718125 
L 392.949644 22.318125 
" clip-path="url(#p3ec8bcfb89)" style="fill: none; stroke: #b0b0b0; stroke-width: 0.8; stroke-linecap: square"/>
     </g>
     <g id="line2d_12">
      <g>
       <use xlink:href="#mfd7739b47e" x="392.949644" y="576.718125" style="stroke: #000000; stroke-width: 0.8"/>
      </g>
     </g>
     <g id="text_6">
      <!-- 500 -->
      <g transform="translate(383.405894 591.316563) scale(0.1 -0.1)">
       <defs>
        <path id="DejaVuSans-35" d="M 691 4666 
L 3169 4666 
L 3169 4134 
L 1269 4134 
L 1269 2991 
Q 1406 3038 1543 3061 
Q 1681 3084 1819 3084 
Q 2600 3084 3056 2656 
Q 3513 2228 3513 1497 
Q 3513 744 3044 326 
Q 2575 -91 1722 -91 
Q 1428 -91 1123 -41 
Q 819 9 494 109 
L 494 744 
Q 775 591 1075 516 
Q 1375 441 1709 441 
Q 2250 441 2565 725 
Q 2881 1009 2881 1497 
Q 2881 1984 2565 2268 
Q 2250 2553 1709 2553 
Q 1456 2553 1204 2497 
Q 953 2441 691 2322 
L 691 4666 
z
" transform="scale(0.015625)"/>
       </defs>
       <use xlink:href="#DejaVuSans-35"/>
       <use xlink:href="#DejaVuSans-30" transform="translate(63.623047 0)"/>
       <use xlink:href="#DejaVuSans-30" transform="translate(127.246094 0)"/>
      </g>
     </g>
    </g>
    <g id="xtick_7">
     <g id="line2d_13">
      <path d="M 456.438095 576.718125 
L 456.438095 22.318125 
" clip-path="url(#p3ec8bcfb89)" style="fill: none; stroke: #b0b0b0; stroke-width: 0.8; stroke-linecap: square"/>
     </g>
     <g id="line2d_14">
      <g>
       <use xlink:href="#mfd7739b47e" x="456.438095" y="576.718125" style="stroke: #000000; stroke-width: 0.8"/>
      </g>
     </g>
     <g id="text_7">
      <!-- 600 -->
      <g transform="translate(446.894345 591.316563) scale(0.1 -0.1)">
       <defs>
        <path id="DejaVuSans-36" d="M 2113 2584 
Q 1688 2584 1439 2293 
Q 1191 2003 1191 1497 
Q 1191 994 1439 701 
Q 1688 409 2113 409 
Q 2538 409 2786 701 
Q 3034 994 3034 1497 
Q 3034 2003 2786 2293 
Q 2538 2584 2113 2584 
z
M 3366 4563 
L 3366 3988 
Q 3128 4100 2886 4159 
Q 2644 4219 2406 4219 
Q 1781 4219 1451 3797 
Q 1122 3375 1075 2522 
Q 1259 2794 1537 2939 
Q 1816 3084 2150 3084 
Q 2853 3084 3261 2657 
Q 3669 2231 3669 1497 
Q 3669 778 3244 343 
Q 2819 -91 2113 -91 
Q 1303 -91 875 529 
Q 447 1150 447 2328 
Q 447 3434 972 4092 
Q 1497 4750 2381 4750 
Q 2619 4750 2861 4703 
Q 3103 4656 3366 4563 
z
" transform="scale(0.015625)"/>
       </defs>
       <use xlink:href="#DejaVuSans-36"/>
       <use xlink:href="#DejaVuSans-30" transform="translate(63.623047 0)"/>
       <use xlink:href="#DejaVuSans-30" transform="translate(127.246094 0)"/>
      </g>
     </g>
    </g>
    <g id="xtick_8">
     <g id="line2d_15">
      <path d="M 519.926547 576.718125 
L 519.926547 22.318125 
" clip-path="url(#p3ec8bcfb89)" style="fill: none; stroke: #b0b0b0; stroke-width: 0.8; stroke-linecap: square"/>
     </g>
     <g id="line2d_16">
      <g>
       <use xlink:href="#mfd7739b47e" x="519.926547" y="576.718125" style="stroke: #000000; stroke-width: 0.8"/>
      </g>
     </g>
     <g id="text_8">
      <!-- 700 -->
      <g transform="translate(510.382797 591.316563) scale(0.1 -0.1)">
       <defs>
        <path id="DejaVuSans-37" d="M 525 4666 
L 3525 4666 
L 3525 4397 
L 1831 0 
L 1172 0 
L 2766 4134 
L 525 4134 
L 525 4666 
z
" transform="scale(0.015625)"/>
       </defs>
       <use xlink:href="#DejaVuSans-37"/>
       <use xlink:href="#DejaVuSans-30" transform="translate(63.623047 0)"/>
       <use xlink:href="#DejaVuSans-30" transform="translate(127.246094 0)"/>
      </g>
     </g>
    </g>
    <g id="xtick_9">
     <g id="line2d_17">
      <path d="M 583.414998 576.718125 
L 583.414998 22.318125 
" clip-path="url(#p3ec8bcfb89)" style="fill: none; stroke: #b0b0b0; stroke-width: 0.8; stroke-linecap: square"/>
     </g>
     <g id="line2d_18">
      <g>
       <use xlink:href="#mfd7739b47e" x="583.414998" y="576.718125" style="stroke: #000000; stroke-width: 0.8"/>
      </g>
     </g>
     <g id="text_9">
      <!-- 800 -->
      <g transform="translate(573.871248 591.316563) scale(0.1 -0.1)">
       <defs>
        <path id="DejaVuSans-38" d="M 2034 2216 
Q 1584 2216 1326 1975 
Q 1069 1734 1069 1313 
Q 1069 891 1326 650 
Q 1584 409 2034 409 
Q 2484 409 2743 651 
Q 3003 894 3003 1313 
Q 3003 1734 2745 1975 
Q 2488 2216 2034 2216 
z
M 1403 2484 
Q 997 2584 770 2862 
Q 544 3141 544 3541 
Q 544 4100 942 4425 
Q 1341 4750 2034 4750 
Q 2731 4750 3128 4425 
Q 3525 4100 3525 3541 
Q 3525 3141 3298 2862 
Q 3072 2584 2669 2484 
Q 3125 2378 3379 2068 
Q 3634 1759 3634 1313 
Q 3634 634 3220 271 
Q 2806 -91 2034 -91 
Q 1263 -91 848 271 
Q 434 634 434 1313 
Q 434 1759 690 2068 
Q 947 2378 1403 2484 
z
M 1172 3481 
Q 1172 3119 1398 2916 
Q 1625 2713 2034 2713 
Q 2441 2713 2670 2916 
Q 2900 3119 2900 3481 
Q 2900 3844 2670 4047 
Q 2441 4250 2034 4250 
Q 1625 4250 1398 4047 
Q 1172 3844 1172 3481 
z
" transform="scale(0.015625)"/>
       </defs>
       <use xlink:href="#DejaVuSans-38"/>
       <use xlink:href="#DejaVuSans-30" transform="translate(63.623047 0)"/>
       <use xlink:href="#DejaVuSans-30" transform="translate(127.246094 0)"/>
      </g>
     </g>
    </g>
    <g id="text_10">
     <!-- Epochs -->
     <g transform="translate(311.228125 604.994688) scale(0.1 -0.1)">
      <defs>
       <path id="DejaVuSans-45" d="M 628 4666 
L 3578 4666 
L 3578 4134 
L 1259 4134 
L 1259 2753 
L 3481 2753 
L 3481 2222 
L 1259 2222 
L 1259 531 
L 3634 531 
L 3634 0 
L 628 0 
L 628 4666 
z
" transform="scale(0.015625)"/>
       <path id="DejaVuSans-70" d="M 1159 525 
L 1159 -1331 
L 581 -1331 
L 581 3500 
L 1159 3500 
L 1159 2969 
Q 1341 3281 1617 3432 
Q 1894 3584 2278 3584 
Q 2916 3584 3314 3078 
Q 3713 2572 3713 1747 
Q 3713 922 3314 415 
Q 2916 -91 2278 -91 
Q 1894 -91 1617 61 
Q 1341 213 1159 525 
z
M 3116 1747 
Q 3116 2381 2855 2742 
Q 2594 3103 2138 3103 
Q 1681 3103 1420 2742 
Q 1159 2381 1159 1747 
Q 1159 1113 1420 752 
Q 1681 391 2138 391 
Q 2594 391 2855 752 
Q 3116 1113 3116 1747 
z
" transform="scale(0.015625)"/>
       <path id="DejaVuSans-6f" d="M 1959 3097 
Q 1497 3097 1228 2736 
Q 959 2375 959 1747 
Q 959 1119 1226 758 
Q 1494 397 1959 397 
Q 2419 397 2687 759 
Q 2956 1122 2956 1747 
Q 2956 2369 2687 2733 
Q 2419 3097 1959 3097 
z
M 1959 3584 
Q 2709 3584 3137 3096 
Q 3566 2609 3566 1747 
Q 3566 888 3137 398 
Q 2709 -91 1959 -91 
Q 1206 -91 779 398 
Q 353 888 353 1747 
Q 353 2609 779 3096 
Q 1206 3584 1959 3584 
z
" transform="scale(0.015625)"/>
       <path id="DejaVuSans-63" d="M 3122 3366 
L 3122 2828 
Q 2878 2963 2633 3030 
Q 2388 3097 2138 3097 
Q 1578 3097 1268 2742 
Q 959 2388 959 1747 
Q 959 1106 1268 751 
Q 1578 397 2138 397 
Q 2388 397 2633 464 
Q 2878 531 3122 666 
L 3122 134 
Q 2881 22 2623 -34 
Q 2366 -91 2075 -91 
Q 1284 -91 818 406 
Q 353 903 353 1747 
Q 353 2603 823 3093 
Q 1294 3584 2113 3584 
Q 2378 3584 2631 3529 
Q 2884 3475 3122 3366 
z
" transform="scale(0.015625)"/>
       <path id="DejaVuSans-68" d="M 3513 2113 
L 3513 0 
L 2938 0 
L 2938 2094 
Q 2938 2591 2744 2837 
Q 2550 3084 2163 3084 
Q 1697 3084 1428 2787 
Q 1159 2491 1159 1978 
L 1159 0 
L 581 0 
L 581 4863 
L 1159 4863 
L 1159 2956 
Q 1366 3272 1645 3428 
Q 1925 3584 2291 3584 
Q 2894 3584 3203 3211 
Q 3513 2838 3513 2113 
z
" transform="scale(0.015625)"/>
       <path id="DejaVuSans-73" d="M 2834 3397 
L 2834 2853 
Q 2591 2978 2328 3040 
Q 2066 3103 1784 3103 
Q 1356 3103 1142 2972 
Q 928 2841 928 2578 
Q 928 2378 1081 2264 
Q 1234 2150 1697 2047 
L 1894 2003 
Q 2506 1872 2764 1633 
Q 3022 1394 3022 966 
Q 3022 478 2636 193 
Q 2250 -91 1575 -91 
Q 1294 -91 989 -36 
Q 684 19 347 128 
L 347 722 
Q 666 556 975 473 
Q 1284 391 1588 391 
Q 1994 391 2212 530 
Q 2431 669 2431 922 
Q 2431 1156 2273 1281 
Q 2116 1406 1581 1522 
L 1381 1569 
Q 847 1681 609 1914 
Q 372 2147 372 2553 
Q 372 3047 722 3315 
Q 1072 3584 1716 3584 
Q 2034 3584 2315 3537 
Q 2597 3491 2834 3397 
z
" transform="scale(0.015625)"/>
      </defs>
      <use xlink:href="#DejaVuSans-45"/>
      <use xlink:href="#DejaVuSans-70" transform="translate(63.183594 0)"/>
      <use xlink:href="#DejaVuSans-6f" transform="translate(126.660156 0)"/>
      <use xlink:href="#DejaVuSans-63" transform="translate(187.841797 0)"/>
      <use xlink:href="#DejaVuSans-68" transform="translate(242.822266 0)"/>
      <use xlink:href="#DejaVuSans-73" transform="translate(306.201172 0)"/>
     </g>
    </g>
   </g>
   <g id="matplotlib.axis_2">
    <g id="ytick_1">
     <g id="line2d_19">
      <path d="M 50.14375 565.483711 
L 608.14375 565.483711 
" clip-path="url(#p3ec8bcfb89)" style="fill: none; stroke: #b0b0b0; stroke-width: 0.8; stroke-linecap: square"/>
     </g>
     <g id="line2d_20">
      <defs>
       <path id="m3bc0d938ca" d="M 0 0 
L -3.5 0 
" style="stroke: #000000; stroke-width: 0.8"/>
      </defs>
      <g>
       <use xlink:href="#m3bc0d938ca" x="50.14375" y="565.483711" style="stroke: #000000; stroke-width: 0.8"/>
      </g>
     </g>
     <g id="text_11">
      <!-- 0.00 -->
      <g transform="translate(20.878125 569.28293) scale(0.1 -0.1)">
       <defs>
        <path id="DejaVuSans-2e" d="M 684 794 
L 1344 794 
L 1344 0 
L 684 0 
L 684 794 
z
" transform="scale(0.015625)"/>
       </defs>
       <use xlink:href="#DejaVuSans-30"/>
       <use xlink:href="#DejaVuSans-2e" transform="translate(63.623047 0)"/>
       <use xlink:href="#DejaVuSans-30" transform="translate(95.410156 0)"/>
       <use xlink:href="#DejaVuSans-30" transform="translate(159.033203 0)"/>
      </g>
     </g>
    </g>
    <g id="ytick_2">
     <g id="line2d_21">
      <path d="M 50.14375 493.97991 
L 608.14375 493.97991 
" clip-path="url(#p3ec8bcfb89)" style="fill: none; stroke: #b0b0b0; stroke-width: 0.8; stroke-linecap: square"/>
     </g>
     <g id="line2d_22">
      <g>
       <use xlink:href="#m3bc0d938ca" x="50.14375" y="493.97991" style="stroke: #000000; stroke-width: 0.8"/>
      </g>
     </g>
     <g id="text_12">
      <!-- 0.02 -->
      <g transform="translate(20.878125 497.779129) scale(0.1 -0.1)">
       <use xlink:href="#DejaVuSans-30"/>
       <use xlink:href="#DejaVuSans-2e" transform="translate(63.623047 0)"/>
       <use xlink:href="#DejaVuSans-30" transform="translate(95.410156 0)"/>
       <use xlink:href="#DejaVuSans-32" transform="translate(159.033203 0)"/>
      </g>
     </g>
    </g>
    <g id="ytick_3">
     <g id="line2d_23">
      <path d="M 50.14375 422.476109 
L 608.14375 422.476109 
" clip-path="url(#p3ec8bcfb89)" style="fill: none; stroke: #b0b0b0; stroke-width: 0.8; stroke-linecap: square"/>
     </g>
     <g id="line2d_24">
      <g>
       <use xlink:href="#m3bc0d938ca" x="50.14375" y="422.476109" style="stroke: #000000; stroke-width: 0.8"/>
      </g>
     </g>
     <g id="text_13">
      <!-- 0.04 -->
      <g transform="translate(20.878125 426.275328) scale(0.1 -0.1)">
       <use xlink:href="#DejaVuSans-30"/>
       <use xlink:href="#DejaVuSans-2e" transform="translate(63.623047 0)"/>
       <use xlink:href="#DejaVuSans-30" transform="translate(95.410156 0)"/>
       <use xlink:href="#DejaVuSans-34" transform="translate(159.033203 0)"/>
      </g>
     </g>
    </g>
    <g id="ytick_4">
     <g id="line2d_25">
      <path d="M 50.14375 350.972308 
L 608.14375 350.972308 
" clip-path="url(#p3ec8bcfb89)" style="fill: none; stroke: #b0b0b0; stroke-width: 0.8; stroke-linecap: square"/>
     </g>
     <g id="line2d_26">
      <g>
       <use xlink:href="#m3bc0d938ca" x="50.14375" y="350.972308" style="stroke: #000000; stroke-width: 0.8"/>
      </g>
     </g>
     <g id="text_14">
      <!-- 0.06 -->
      <g transform="translate(20.878125 354.771526) scale(0.1 -0.1)">
       <use xlink:href="#DejaVuSans-30"/>
       <use xlink:href="#DejaVuSans-2e" transform="translate(63.623047 0)"/>
       <use xlink:href="#DejaVuSans-30" transform="translate(95.410156 0)"/>
       <use xlink:href="#DejaVuSans-36" transform="translate(159.033203 0)"/>
      </g>
     </g>
    </g>
    <g id="ytick_5">
     <g id="line2d_27">
      <path d="M 50.14375 279.468507 
L 608.14375 279.468507 
" clip-path="url(#p3ec8bcfb89)" style="fill: none; stroke: #b0b0b0; stroke-width: 0.8; stroke-linecap: square"/>
     </g>
     <g id="line2d_28">
      <g>
       <use xlink:href="#m3bc0d938ca" x="50.14375" y="279.468507" style="stroke: #000000; stroke-width: 0.8"/>
      </g>
     </g>
     <g id="text_15">
      <!-- 0.08 -->
      <g transform="translate(20.878125 283.267725) scale(0.1 -0.1)">
       <use xlink:href="#DejaVuSans-30"/>
       <use xlink:href="#DejaVuSans-2e" transform="translate(63.623047 0)"/>
       <use xlink:href="#DejaVuSans-30" transform="translate(95.410156 0)"/>
       <use xlink:href="#DejaVuSans-38" transform="translate(159.033203 0)"/>
      </g>
     </g>
    </g>
    <g id="ytick_6">
     <g id="line2d_29">
      <path d="M 50.14375 207.964705 
L 608.14375 207.964705 
" clip-path="url(#p3ec8bcfb89)" style="fill: none; stroke: #b0b0b0; stroke-width: 0.8; stroke-linecap: square"/>
     </g>
     <g id="line2d_30">
      <g>
       <use xlink:href="#m3bc0d938ca" x="50.14375" y="207.964705" style="stroke: #000000; stroke-width: 0.8"/>
      </g>
     </g>
     <g id="text_16">
      <!-- 0.10 -->
      <g transform="translate(20.878125 211.763924) scale(0.1 -0.1)">
       <use xlink:href="#DejaVuSans-30"/>
       <use xlink:href="#DejaVuSans-2e" transform="translate(63.623047 0)"/>
       <use xlink:href="#DejaVuSans-31" transform="translate(95.410156 0)"/>
       <use xlink:href="#DejaVuSans-30" transform="translate(159.033203 0)"/>
      </g>
     </g>
    </g>
    <g id="ytick_7">
     <g id="line2d_31">
      <path d="M 50.14375 136.460904 
L 608.14375 136.460904 
" clip-path="url(#p3ec8bcfb89)" style="fill: none; stroke: #b0b0b0; stroke-width: 0.8; stroke-linecap: square"/>
     </g>
     <g id="line2d_32">
      <g>
       <use xlink:href="#m3bc0d938ca" x="50.14375" y="136.460904" style="stroke: #000000; stroke-width: 0.8"/>
      </g>
     </g>
     <g id="text_17">
      <!-- 0.12 -->
      <g transform="translate(20.878125 140.260123) scale(0.1 -0.1)">
       <use xlink:href="#DejaVuSans-30"/>
       <use xlink:href="#DejaVuSans-2e" transform="translate(63.623047 0)"/>
       <use xlink:href="#DejaVuSans-31" transform="translate(95.410156 0)"/>
       <use xlink:href="#DejaVuSans-32" transform="translate(159.033203 0)"/>
      </g>
     </g>
    </g>
    <g id="ytick_8">
     <g id="line2d_33">
      <path d="M 50.14375 64.957103 
L 608.14375 64.957103 
" clip-path="url(#p3ec8bcfb89)" style="fill: none; stroke: #b0b0b0; stroke-width: 0.8; stroke-linecap: square"/>
     </g>
     <g id="line2d_34">
      <g>
       <use xlink:href="#m3bc0d938ca" x="50.14375" y="64.957103" style="stroke: #000000; stroke-width: 0.8"/>
      </g>
     </g>
     <g id="text_18">
      <!-- 0.14 -->
      <g transform="translate(20.878125 68.756322) scale(0.1 -0.1)">
       <use xlink:href="#DejaVuSans-30"/>
       <use xlink:href="#DejaVuSans-2e" transform="translate(63.623047 0)"/>
       <use xlink:href="#DejaVuSans-31" transform="translate(95.410156 0)"/>
       <use xlink:href="#DejaVuSans-34" transform="translate(159.033203 0)"/>
      </g>
     </g>
    </g>
    <g id="text_19">
     <!-- Accuracy -->
     <g transform="translate(14.798437 322.34625) rotate(-90) scale(0.1 -0.1)">
      <defs>
       <path id="DejaVuSans-41" d="M 2188 4044 
L 1331 1722 
L 3047 1722 
L 2188 4044 
z
M 1831 4666 
L 2547 4666 
L 4325 0 
L 3669 0 
L 3244 1197 
L 1141 1197 
L 716 0 
L 50 0 
L 1831 4666 
z
" transform="scale(0.015625)"/>
       <path id="DejaVuSans-75" d="M 544 1381 
L 544 3500 
L 1119 3500 
L 1119 1403 
Q 1119 906 1312 657 
Q 1506 409 1894 409 
Q 2359 409 2629 706 
Q 2900 1003 2900 1516 
L 2900 3500 
L 3475 3500 
L 3475 0 
L 2900 0 
L 2900 538 
Q 2691 219 2414 64 
Q 2138 -91 1772 -91 
Q 1169 -91 856 284 
Q 544 659 544 1381 
z
M 1991 3584 
L 1991 3584 
z
" transform="scale(0.015625)"/>
       <path id="DejaVuSans-72" d="M 2631 2963 
Q 2534 3019 2420 3045 
Q 2306 3072 2169 3072 
Q 1681 3072 1420 2755 
Q 1159 2438 1159 1844 
L 1159 0 
L 581 0 
L 581 3500 
L 1159 3500 
L 1159 2956 
Q 1341 3275 1631 3429 
Q 1922 3584 2338 3584 
Q 2397 3584 2469 3576 
Q 2541 3569 2628 3553 
L 2631 2963 
z
" transform="scale(0.015625)"/>
       <path id="DejaVuSans-61" d="M 2194 1759 
Q 1497 1759 1228 1600 
Q 959 1441 959 1056 
Q 959 750 1161 570 
Q 1363 391 1709 391 
Q 2188 391 2477 730 
Q 2766 1069 2766 1631 
L 2766 1759 
L 2194 1759 
z
M 3341 1997 
L 3341 0 
L 2766 0 
L 2766 531 
Q 2569 213 2275 61 
Q 1981 -91 1556 -91 
Q 1019 -91 701 211 
Q 384 513 384 1019 
Q 384 1609 779 1909 
Q 1175 2209 1959 2209 
L 2766 2209 
L 2766 2266 
Q 2766 2663 2505 2880 
Q 2244 3097 1772 3097 
Q 1472 3097 1187 3025 
Q 903 2953 641 2809 
L 641 3341 
Q 956 3463 1253 3523 
Q 1550 3584 1831 3584 
Q 2591 3584 2966 3190 
Q 3341 2797 3341 1997 
z
" transform="scale(0.015625)"/>
       <path id="DejaVuSans-79" d="M 2059 -325 
Q 1816 -950 1584 -1140 
Q 1353 -1331 966 -1331 
L 506 -1331 
L 506 -850 
L 844 -850 
Q 1081 -850 1212 -737 
Q 1344 -625 1503 -206 
L 1606 56 
L 191 3500 
L 800 3500 
L 1894 763 
L 2988 3500 
L 3597 3500 
L 2059 -325 
z
" transform="scale(0.015625)"/>
      </defs>
      <use xlink:href="#DejaVuSans-41"/>
      <use xlink:href="#DejaVuSans-63" transform="translate(66.658203 0)"/>
      <use xlink:href="#DejaVuSans-63" transform="translate(121.638672 0)"/>
      <use xlink:href="#DejaVuSans-75" transform="translate(176.619141 0)"/>
      <use xlink:href="#DejaVuSans-72" transform="translate(239.998047 0)"/>
      <use xlink:href="#DejaVuSans-61" transform="translate(281.111328 0)"/>
      <use xlink:href="#DejaVuSans-63" transform="translate(342.390625 0)"/>
      <use xlink:href="#DejaVuSans-79" transform="translate(397.371094 0)"/>
     </g>
    </g>
   </g>
   <g id="line2d_35">
    <path d="M 75.507386 166.92947 
L 76.777155 116.400114 
L 77.41204 139.599127 
L 78.046924 130.661161 
L 78.681809 124.742232 
L 79.316693 125.258648 
L 79.951578 132.50832 
L 80.586462 135.547256 
L 81.221347 157.117562 
L 81.856232 157.574391 
L 82.491116 178.528976 
L 83.126001 176.224962 
L 83.760885 168.836244 
L 84.39577 172.629919 
L 85.030654 165.102155 
L 85.665539 160.871495 
L 86.300423 161.427654 
L 86.935308 155.23066 
L 87.570192 158.567507 
L 88.205077 155.310092 
L 88.839961 152.688295 
L 89.474846 151.417112 
L 90.10973 152.926645 
L 90.744615 152.886929 
L 91.379499 151.278093 
L 92.014384 146.372125 
L 92.649268 149.013794 
L 93.284153 144.127698 
L 93.919037 143.909219 
L 94.553922 147.544004 
L 95.188806 143.929091 
L 95.823691 141.843555 
L 96.458575 142.240796 
L 97.09346 141.525746 
L 97.728344 141.96273 
L 98.363229 143.968807 
L 98.998113 136.361584 
L 99.632998 134.911665 
L 100.267882 136.937587 
L 100.902767 134.713031 
L 101.537651 133.819245 
L 102.172536 134.812335 
L 102.80742 133.83909 
L 103.442305 134.772619 
L 104.07719 133.024736 
L 104.712074 132.687083 
L 105.346959 129.111912 
L 105.981843 128.317403 
L 106.616728 129.747503 
L 107.886497 124.047054 
L 108.521381 127.820858 
L 109.156266 123.212828 
L 109.79115 123.292287 
L 110.426035 123.590225 
L 111.060919 121.941673 
L 111.695804 118.962324 
L 112.330688 119.756833 
L 112.965573 118.445908 
L 113.600457 118.207557 
L 114.235342 112.765356 
L 114.870226 116.042589 
L 115.505111 114.63236 
L 116.139995 112.765356 
L 116.77488 111.851699 
L 117.409764 109.170287 
L 118.044649 110.222991 
L 118.679533 107.77993 
L 119.314418 105.932744 
L 119.949302 106.111533 
L 120.584187 104.462954 
L 121.219071 101.721982 
L 121.853956 101.642549 
L 122.48884 98.80222 
L 123.123725 98.484438 
L 123.758609 100.728892 
L 124.393494 97.570781 
L 125.028379 98.385134 
L 125.663263 96.418773 
L 126.298148 93.578497 
L 126.933032 95.048287 
L 127.567917 89.228689 
L 128.202801 89.089643 
L 128.837686 90.51969 
L 129.47257 88.692375 
L 130.107455 88.076682 
L 130.742339 87.897893 
L 131.377224 88.29516 
L 132.012108 84.322695 
L 132.646993 85.196663 
L 133.281877 83.409038 
L 133.916762 83.230302 
L 134.551646 81.740641 
L 135.186531 81.065334 
L 135.821415 79.893455 
L 136.4563 80.807112 
L 137.091184 80.807112 
L 137.726069 76.199082 
L 138.360953 76.616222 
L 138.995838 79.238019 
L 139.630722 76.258697 
L 140.265607 74.490943 
L 140.900491 73.994371 
L 141.535376 74.68955 
L 142.17026 73.060842 
L 142.805145 72.127367 
L 143.440029 73.756021 
L 144.074914 69.823352 
L 144.709798 72.425278 
L 145.344683 69.167863 
L 145.979567 70.756881 
L 146.614452 67.221373 
L 147.249337 67.717944 
L 148.519106 67.459723 
L 149.15399 65.612537 
L 149.788875 64.599576 
L 150.423759 64.202361 
L 151.058644 65.433801 
L 151.693528 66.228283 
L 152.328413 62.891436 
L 152.963297 62.99074 
L 153.598182 62.75239 
L 154.233066 62.653086 
L 154.867951 59.634021 
L 155.502835 58.919024 
L 156.13772 58.899153 
L 156.772604 58.064928 
L 157.407489 60.448375 
L 158.677258 56.694442 
L 159.312142 57.568356 
L 159.947027 57.806706 
L 160.581911 58.362839 
L 161.216796 57.270445 
L 161.85168 59.375853 
L 162.486565 56.039006 
L 163.121449 57.349878 
L 163.756334 55.244523 
L 164.391218 56.535524 
L 165.026103 57.032095 
L 165.660987 53.139116 
L 166.295872 53.675377 
L 166.930756 53.059683 
L 167.565641 53.278162 
L 168.200526 50.398144 
L 168.83541 53.198677 
L 169.470295 53.317852 
L 170.105179 52.781591 
L 170.740064 50.557008 
L 171.374948 52.066541 
L 172.009833 52.801462 
L 172.644717 53.099373 
L 173.279602 49.146833 
L 173.914486 51.748758 
L 174.549371 50.139922 
L 175.184255 52.582983 
L 175.81914 52.980198 
L 176.454024 49.146833 
L 177.088909 50.715926 
L 177.723793 51.212497 
L 178.358678 47.776346 
L 179.628447 49.58379 
L 180.263331 50.000876 
L 180.898216 50.06049 
L 181.5331 51.689197 
L 182.167985 48.35235 
L 182.802869 48.451654 
L 183.437754 50.159794 
L 184.072638 52.225458 
L 184.707523 49.504358 
L 185.342407 50.696054 
L 185.977292 49.762526 
L 186.612176 49.981004 
L 187.247061 50.894715 
L 187.881945 48.193432 
L 188.51683 50.656365 
L 189.151715 47.518125 
L 189.786599 51.570022 
L 190.421484 50.874844 
L 191.056368 49.206393 
L 191.691253 50.159794 
L 192.326137 48.292736 
L 192.961022 49.921443 
L 193.595906 51.172755 
L 194.230791 49.702965 
L 195.50056 51.113194 
L 196.135444 48.332479 
L 196.770329 51.987108 
L 197.405213 52.225458 
L 198.040098 52.106283 
L 198.674982 52.48368 
L 199.309867 50.914533 
L 199.944751 52.602855 
L 200.579636 52.304891 
L 201.21452 54.171948 
L 201.849405 53.516512 
L 202.484289 53.198677 
L 203.119174 50.914533 
L 203.754058 55.383516 
L 204.388943 53.576073 
L 205.023827 54.827384 
L 205.658712 53.715119 
L 206.293596 53.536384 
L 206.928481 54.747952 
L 207.563365 53.298034 
L 208.19825 55.760913 
L 208.833134 56.078695 
L 209.468019 54.410298 
L 210.102903 57.191013 
L 210.737788 54.310995 
L 211.372673 53.456898 
L 212.007557 55.006173 
L 212.642442 54.469859 
L 213.277326 55.026045 
L 213.912211 56.634881 
L 214.547095 57.508795 
L 215.18198 57.369749 
L 215.816864 56.138309 
L 216.451749 57.707403 
L 217.086633 57.071838 
L 217.721518 57.985495 
L 218.356402 59.395671 
L 218.991287 58.779978 
L 219.626171 61.242857 
L 220.261056 59.077889 
L 220.89594 59.8525 
L 221.530825 59.792939 
L 222.165709 60.428503 
L 222.800594 60.388814 
L 223.435478 57.588228 
L 224.070363 59.673764 
L 224.705247 59.892243 
L 225.340132 61.858604 
L 225.975016 59.8525 
L 226.609901 61.7593 
L 227.244785 61.540821 
L 227.87967 62.772261 
L 228.514554 62.99074 
L 229.149439 63.010611 
L 229.784323 64.003701 
L 230.419208 64.679008 
L 231.054092 63.666047 
L 231.688977 63.725661 
L 232.323862 64.89754 
L 232.958746 63.983883 
L 233.593631 65.235194 
L 234.228515 65.235194 
L 234.8634 64.500272 
L 236.133169 66.983023 
L 236.768053 66.446762 
L 237.402938 67.499466 
L 238.037822 66.625551 
L 238.672707 66.009805 
L 239.307591 67.837119 
L 239.942476 68.929513 
L 240.57736 66.963205 
L 241.212245 69.863042 
L 241.847129 69.287038 
L 242.482014 70.280181 
L 243.116898 71.551363 
L 243.751783 71.03492 
L 244.386667 71.610924 
L 245.021552 69.84317 
L 245.656436 70.955488 
L 246.291321 70.955488 
L 246.926205 72.604014 
L 248.195974 73.358807 
L 248.830859 73.378678 
L 249.465743 73.756021 
L 250.100628 72.047881 
L 250.735512 74.729293 
L 251.370397 72.683499 
L 252.005281 72.882107 
L 252.640166 74.391639 
L 253.27505 76.556607 
L 253.909935 74.232721 
L 254.54482 77.07305 
L 255.179704 76.536736 
L 255.814589 77.053179 
L 256.449473 76.060036 
L 257.084358 78.324361 
L 257.719242 77.331218 
L 258.354127 78.105883 
L 258.989011 78.105883 
L 259.623896 80.131805 
L 260.25878 80.787241 
L 260.893665 78.383922 
L 261.528549 81.283812 
L 262.163434 80.052373 
L 262.798318 79.714719 
L 263.433203 81.899505 
L 264.702972 82.654298 
L 265.337856 82.773473 
L 265.972741 83.647388 
L 266.607625 82.415948 
L 267.877394 83.309734 
L 268.512279 85.09736 
L 269.147163 83.905609 
L 270.416932 85.137049 
L 271.051817 84.958313 
L 271.686701 85.63362 
L 272.321586 86.686324 
L 272.95647 87.282199 
L 273.591355 85.772667 
L 274.226239 86.090449 
L 274.861124 87.34176 
L 275.496009 88.315032 
L 276.130893 87.838332 
L 276.765778 89.387554 
L 277.400662 90.122475 
L 278.035547 88.434207 
L 278.670431 90.619047 
L 279.305316 90.440257 
L 279.9402 90.062861 
L 280.575085 90.182036 
L 281.209969 89.387554 
L 281.844854 93.220972 
L 282.479738 90.380697 
L 283.114623 93.14154 
L 283.749507 92.486051 
L 284.384392 92.287444 
L 285.019276 92.843576 
L 285.654161 92.625097 
L 286.289045 95.385941 
L 286.92393 97.491348 
L 287.558814 96.498206 
L 288.193699 94.512026 
L 288.828583 95.882512 
L 289.463468 96.418773 
L 290.098352 96.637252 
L 290.733237 94.690762 
L 291.368121 98.782349 
L 292.003006 96.915345 
L 292.63789 97.868692 
L 293.272775 98.32552 
L 293.907659 99.69606 
L 294.542544 97.372173 
L 295.177428 99.179617 
L 295.812313 99.020699 
L 296.447197 99.080313 
L 297.082082 101.304843 
L 297.716967 99.080313 
L 298.351851 98.722788 
L 298.986736 101.304843 
L 299.62162 103.271204 
L 300.256505 100.252192 
L 300.891389 103.668472 
L 301.526274 101.582935 
L 302.796043 104.244475 
L 303.430927 103.271204 
L 304.065812 104.621872 
L 304.700696 103.628729 
L 305.335581 105.058829 
L 305.970465 104.661561 
L 306.60535 102.6952 
L 307.240234 104.383522 
L 307.875119 103.747904 
L 308.510003 105.158133 
L 309.144888 105.436225 
L 309.779772 107.184055 
L 310.414657 106.032047 
L 311.049541 105.932744 
L 311.684426 106.032047 
L 312.31931 108.157326 
L 312.954195 108.25663 
L 313.589079 107.223797 
L 314.858848 107.402533 
L 315.493733 107.720369 
L 316.128617 107.144365 
L 316.763502 110.083945 
L 317.398386 109.388766 
L 318.033271 109.666859 
L 318.668156 109.44838 
L 319.30304 111.355127 
L 319.937925 109.110726 
L 320.572809 111.235952 
L 321.207694 109.070984 
L 321.842578 110.302423 
L 322.477463 114.274888 
L 323.747232 110.520902 
L 324.382116 114.155713 
L 325.017001 112.209224 
L 325.651885 112.467392 
L 326.28677 114.652232 
L 327.556539 114.215274 
L 328.191423 112.010563 
L 328.826308 114.950196 
L 329.461192 114.612542 
L 330.096077 116.53916 
L 330.730961 113.976924 
L 331.365846 115.387153 
L 332.00073 114.930324 
L 333.270499 116.698025 
L 333.905384 116.797382 
L 334.540268 117.313771 
L 335.175153 115.565889 
L 335.810037 118.86302 
L 336.444922 117.393204 
L 337.079806 116.499418 
L 337.714691 116.936375 
L 338.349575 119.10137 
L 338.98446 116.797382 
L 339.619344 118.128125 
L 340.254229 117.611682 
L 340.889114 116.380243 
L 341.523998 120.015028 
L 342.158883 117.2939 
L 342.793767 118.445908 
L 343.428652 117.452818 
L 344.063536 118.326733 
L 345.333305 121.584148 
L 345.96819 119.002066 
L 346.603074 120.551315 
L 347.237959 120.888969 
L 347.872843 119.915724 
L 348.507728 120.43214 
L 349.142612 120.43214 
L 349.777497 121.643735 
L 350.412381 121.584148 
L 351.047266 122.438217 
L 351.68215 121.981389 
L 352.317035 123.113525 
L 352.951919 123.689528 
L 353.586804 121.445101 
L 354.221688 123.451178 
L 354.856573 121.147164 
L 355.491457 122.199867 
L 356.126342 122.895046 
L 356.761226 123.927879 
L 357.396111 123.61007 
L 358.030995 123.153241 
L 358.66588 123.411462 
L 359.300764 123.828575 
L 359.935649 121.107447 
L 360.570533 122.37863 
L 361.205418 121.66358 
L 361.840303 123.768987 
L 362.475187 123.649812 
L 363.110072 126.430501 
L 363.744956 124.742232 
L 364.379841 123.927879 
L 365.014725 124.702489 
L 365.64961 124.205945 
L 366.284494 124.543598 
L 366.919379 124.702489 
L 367.554263 127.364029 
L 368.189148 126.668851 
L 368.824032 125.199061 
L 369.458917 125.04017 
L 370.093801 127.423617 
L 370.728686 127.165422 
L 371.36357 126.728438 
L 371.998455 124.245661 
L 372.633339 125.854497 
L 373.268224 127.145551 
L 373.903108 126.331197 
L 374.537993 126.927072 
L 375.172877 126.649006 
L 375.807762 127.185267 
L 376.442646 127.364029 
L 377.077531 129.608457 
L 377.712415 126.609263 
L 378.3473 127.344158 
L 378.982184 125.834652 
L 379.617069 130.323507 
L 380.251953 127.324313 
L 380.886838 128.992737 
L 381.521722 127.383901 
L 382.156607 129.151628 
L 382.791491 127.443488 
L 383.426376 128.516037 
L 384.061261 126.847613 
L 384.696145 127.979749 
L 385.33103 128.496165 
L 385.965914 130.859768 
L 386.600799 128.496165 
L 387.235683 128.098924 
L 387.870568 129.250932 
L 389.140337 128.674928 
L 389.775221 130.18446 
L 390.410106 129.926239 
L 391.04499 131.058402 
L 391.679875 129.846807 
L 392.314759 130.482398 
L 392.949644 130.105002 
L 393.584528 129.489282 
L 394.219413 130.124873 
L 394.854297 131.018659 
L 395.489182 130.502243 
L 396.124066 130.541986 
L 396.758951 130.959071 
L 397.393835 130.422811 
L 398.02872 131.137834 
L 398.663604 131.137834 
L 399.298489 132.726825 
L 400.568258 132.250125 
L 401.203142 131.03853 
L 401.838027 131.972059 
L 402.472911 133.83909 
L 403.107796 131.872755 
L 403.74268 130.621418 
L 404.377565 134.355506 
L 405.01245 131.316597 
L 405.647334 132.468604 
L 406.282219 132.647366 
L 406.917103 132.945304 
L 407.551988 132.587779 
L 408.186872 132.766541 
L 408.821757 132.587779 
L 409.456641 134.534269 
L 410.091526 134.017853 
L 410.72641 133.22337 
L 411.361295 134.137028 
L 411.996179 132.806258 
L 412.631064 133.501436 
L 413.265948 134.772619 
L 413.900833 133.680199 
L 414.535717 133.898678 
L 415.170602 134.713031 
L 415.805486 133.104195 
L 416.440371 133.501436 
L 417.71014 136.619805 
L 418.345024 132.409016 
L 418.979909 133.084324 
L 419.614793 133.322674 
L 420.249678 135.149989 
L 420.884562 135.348623 
L 421.519447 136.282151 
L 422.154331 134.454836 
L 422.789216 135.78558 
L 423.4241 132.567908 
L 424.058985 134.017853 
L 424.693869 135.070556 
L 425.328754 133.978136 
L 425.963638 137.136221 
L 426.598523 135.865039 
L 427.233408 136.083517 
L 427.868292 135.765735 
L 428.503177 135.666405 
L 429.138061 136.143105 
L 429.772946 137.275241 
L 430.40783 138.784773 
L 431.042715 137.275241 
L 431.677599 135.289035 
L 432.312484 136.699237 
L 432.947368 137.791657 
L 433.582253 137.652637 
L 434.217137 137.096505 
L 434.852022 139.201886 
L 435.486906 138.288229 
L 436.756675 138.049879 
L 437.39156 139.122427 
L 438.026444 138.725186 
L 438.661329 139.082711 
L 439.296213 137.851245 
L 439.931098 138.049879 
L 441.200867 138.745057 
L 441.835751 137.533462 
L 442.470636 139.102582 
L 443.740405 140.63196 
L 444.375289 142.280512 
L 445.010174 138.983407 
L 445.645058 138.20877 
L 446.279943 138.44712 
L 446.914827 139.877193 
L 447.549712 141.664792 
L 448.184597 139.042995 
L 448.819481 139.658715 
L 449.454366 138.963536 
L 450.724135 141.982574 
L 451.359019 140.25459 
L 451.993904 141.625076 
L 452.628788 139.221757 
L 453.263673 141.207963 
L 453.898557 141.863426 
L 454.533442 140.691547 
L 455.168326 141.287422 
L 455.803211 141.029201 
L 456.438095 139.77789 
L 457.07298 139.877193 
L 457.707864 142.081905 
L 458.342749 139.53954 
L 458.977633 140.075827 
L 459.612518 143.233912 
L 460.247402 141.783967 
L 460.882287 141.565488 
L 461.517171 142.697624 
L 462.152056 142.399687 
L 462.78694 140.910026 
L 463.421825 141.764096 
L 464.056709 139.837477 
L 464.691594 141.545617 
L 465.326478 142.43943 
L 465.961363 141.486029 
L 466.596247 143.273628 
L 467.231132 142.638037 
L 467.866016 142.657908 
L 468.500901 141.247679 
L 469.135785 142.121621 
L 469.77067 140.512785 
L 470.405555 143.114737 
L 471.040439 140.850438 
L 471.675324 143.313344 
L 472.945093 143.134582 
L 473.579977 142.856516 
L 474.214862 143.214041 
L 474.849746 144.425636 
L 476.119515 142.757212 
L 476.7544 144.207157 
L 477.389284 144.346177 
L 478.024169 144.028394 
L 478.659053 143.194169 
L 479.293938 144.842748 
L 479.928822 144.405764 
L 480.563707 142.757212 
L 481.198591 145.339293 
L 481.833476 143.035278 
L 482.46836 144.366048 
L 483.103245 143.730457 
L 483.738129 142.916103 
L 484.373014 144.783161 
L 485.642783 146.789238 
L 486.277667 144.445507 
L 486.912552 145.537927 
L 487.547436 143.452391 
L 488.182321 145.299577 
L 488.817205 143.730457 
L 489.45209 144.564655 
L 490.086974 145.815993 
L 491.356744 146.25295 
L 491.991628 147.10702 
L 492.626513 147.325499 
L 493.261397 145.39888 
L 493.896282 145.220118 
L 494.531166 146.968 
L 495.166051 147.246067 
L 495.800935 146.411841 
L 496.43582 145.875581 
L 497.070704 145.577643 
L 498.340473 147.782328 
L 498.975358 149.649385 
L 499.610242 146.411841 
L 500.245127 147.524133 
L 500.880011 149.192556 
L 501.514896 148.616553 
L 502.14978 150.026755 
L 502.784665 148.120008 
L 503.419549 148.159724 
L 504.054434 148.358331 
L 504.689318 149.232273 
L 505.324203 150.423996 
L 505.959087 146.590604 
L 506.593972 149.987039 
L 507.228856 148.696012 
L 507.863741 150.423996 
L 508.498625 149.589798 
L 509.13351 150.225389 
L 509.768394 149.76856 
L 510.403279 148.497378 
L 511.038163 150.364409 
L 511.673048 148.835031 
L 512.942817 150.682217 
L 514.212586 150.066498 
L 514.847471 148.854903 
L 515.482355 150.106214 
L 516.11724 149.90758 
L 516.752124 150.185673 
L 517.387009 150.284976 
L 518.021893 152.787598 
L 518.656778 151.357525 
L 519.291662 152.867057 
L 520.561431 149.867864 
L 521.196316 152.132162 
L 521.8312 151.397241 
L 522.466085 152.251337 
L 523.100969 153.542365 
L 523.735854 150.86098 
L 524.370738 153.244427 
L 525.005623 151.417112 
L 525.640507 153.105407 
L 526.275392 151.317809 
L 526.910276 152.370513 
L 527.545161 154.197827 
L 528.81493 152.112291 
L 529.449814 152.449945 
L 530.084699 154.396435 
L 530.719583 154.972438 
L 531.354468 152.867057 
L 531.989352 153.244427 
L 532.624237 153.224582 
L 534.528891 154.118368 
L 535.163775 152.529404 
L 536.433544 155.409422 
L 537.068429 155.449138 
L 537.703313 155.84638 
L 538.338198 154.773831 
L 538.973082 153.979349 
L 539.607967 154.237543 
L 540.242851 156.879212 
L 540.877736 155.747076 
L 541.51262 154.158085 
L 542.147505 156.005271 
L 542.782389 155.905967 
L 543.417274 156.581274 
L 544.052158 156.640862 
L 544.687043 155.985426 
L 545.956812 156.899083 
L 546.591696 154.356718 
L 547.226581 156.025142 
L 547.861465 157.117562 
L 548.49635 157.95176 
L 549.131234 154.317002 
L 549.766119 156.899083 
L 550.401003 155.349835 
L 551.035888 155.051897 
L 551.670772 158.567507 
L 552.305657 156.283337 
L 553.575426 156.223749 
L 554.845195 157.336041 
L 555.48008 158.428461 
L 556.114964 155.707333 
L 556.749849 157.554519 
L 557.384733 156.799753 
L 558.019618 158.984593 
L 558.654502 158.031219 
L 559.289387 158.448332 
L 560.559156 157.991503 
L 561.19404 158.329157 
L 561.828925 160.593429 
L 562.463809 158.527764 
L 563.098694 159.083923 
L 563.733578 159.918122 
L 564.368463 159.163355 
L 565.003347 159.878406 
L 565.638232 159.580468 
L 566.273116 159.580468 
L 566.908001 160.235931 
L 567.542885 159.302402 
L 568.17777 161.09 
L 568.812654 157.614107 
L 569.447539 159.262659 
L 570.082423 159.083923 
L 570.717308 159.89825 
L 571.987077 160.871495 
L 572.621961 159.441422 
L 573.256846 158.845573 
L 573.89173 160.85165 
L 574.526615 158.746243 
L 575.161499 160.6133 
L 575.796384 159.977709 
L 576.431268 161.149588 
L 577.066153 159.838663 
L 577.701038 162.281724 
L 578.335922 162.480331 
L 578.970807 160.573584 
L 579.605691 161.884483 
L 580.240576 162.539919 
L 581.510345 162.122833 
L 582.145229 162.678965 
L 582.780114 159.222943 
L 582.780114 159.222943 
" clip-path="url(#p3ec8bcfb89)" style="fill: none; stroke: #1f77b4; stroke-width: 1.5; stroke-linecap: square"/>
   </g>
   <g id="line2d_36">
    <path d="M 75.507386 190.982553 
L 76.142271 115.724807 
L 76.777155 279.110988 
L 77.41204 184.904733 
L 78.046924 166.850011 
L 79.316693 216.545168 
L 79.951578 128.237971 
L 80.586462 194.736513 
L 81.221347 206.177101 
L 81.856232 268.742948 
L 82.491116 201.886881 
L 83.126001 200.278044 
L 83.760885 220.835389 
L 84.39577 213.148733 
L 85.030654 236.387463 
L 85.665539 211.71866 
L 86.300423 210.646085 
L 86.935308 228.522045 
L 87.570192 189.373717 
L 88.205077 233.348553 
L 88.839961 234.421101 
L 89.474846 208.858513 
L 90.10973 220.477864 
L 90.744615 260.87753 
L 91.379499 157.196994 
L 92.014384 233.16979 
L 92.649268 226.734446 
L 93.284153 209.216011 
L 93.919037 231.918479 
L 94.553922 210.646085 
L 95.188806 163.096078 
L 95.823691 214.042519 
L 96.458575 219.584078 
L 97.09346 252.297061 
L 97.728344 269.994259 
L 98.363229 211.00361 
L 98.998113 222.444225 
L 99.632998 218.332767 
L 100.267882 240.320185 
L 100.902767 238.353824 
L 101.537651 238.711349 
L 102.172536 244.610406 
L 102.80742 229.237095 
L 103.442305 223.695536 
L 104.07719 221.907938 
L 104.712074 193.127677 
L 105.346959 251.04575 
L 105.981843 241.035209 
L 106.616728 244.789168 
L 107.251612 238.353824 
L 107.886497 224.053061 
L 108.521381 192.412626 
L 109.156266 229.415857 
L 109.79115 231.382192 
L 110.426035 229.773356 
L 111.060919 237.817536 
L 111.695804 221.371677 
L 112.330688 261.235028 
L 112.965573 238.353824 
L 113.600457 220.120339 
L 114.235342 241.035209 
L 114.870226 220.299101 
L 115.505111 226.019422 
L 116.139995 238.890111 
L 116.77488 258.911168 
L 117.409764 259.983717 
L 118.044649 233.16979 
L 118.679533 233.884841 
L 119.314418 246.219242 
L 119.949302 254.442185 
L 120.584187 215.472593 
L 121.219071 237.102513 
L 121.853956 232.812265 
L 122.48884 276.608366 
L 123.123725 259.804954 
L 123.758609 218.511503 
L 124.393494 243.537857 
L 125.028379 248.006841 
L 125.663263 213.148733 
L 126.298148 248.900627 
L 126.933032 218.332767 
L 127.567917 240.320185 
L 128.202801 248.364366 
L 128.837686 213.327496 
L 129.47257 237.281275 
L 130.107455 206.534626 
L 130.742339 240.141423 
L 131.377224 205.283315 
L 132.012108 260.341242 
L 132.646993 231.203429 
L 133.281877 254.799683 
L 133.916762 211.00361 
L 134.551646 246.75553 
L 135.186531 256.229784 
L 135.821415 271.603095 
L 136.4563 231.024693 
L 137.091184 230.488406 
L 137.726069 229.237095 
L 138.360953 243.180332 
L 138.995838 272.318118 
L 139.630722 211.897422 
L 140.265607 250.866988 
L 140.900491 239.068847 
L 141.535376 239.068847 
L 142.17026 257.659857 
L 142.805145 229.415857 
L 143.440029 251.760774 
L 144.074914 237.281275 
L 144.709798 232.097242 
L 145.344683 229.952118 
L 145.979567 259.983717 
L 146.614452 276.608366 
L 147.249337 240.320185 
L 147.884221 245.325429 
L 148.519106 263.558914 
L 149.15399 211.897422 
L 149.788875 241.035209 
L 150.423759 231.382192 
L 151.058644 259.983717 
L 151.693528 248.006841 
L 152.328413 205.283315 
L 152.963297 235.493677 
L 153.598182 257.659857 
L 154.233066 233.884841 
L 154.867951 232.991028 
L 155.502835 245.682954 
L 156.13772 214.936332 
L 156.772604 234.599864 
L 157.407489 243.895356 
L 158.677258 200.63557 
L 159.312142 267.312847 
L 159.947027 257.12357 
L 160.581911 215.293857 
L 161.216796 246.398004 
L 161.85168 247.29179 
L 162.486565 225.12561 
L 163.121449 229.952118 
L 163.756334 262.843864 
L 164.391218 239.783897 
L 165.026103 241.392734 
L 165.660987 257.481095 
L 166.295872 266.419061 
L 166.930756 239.426372 
L 167.565641 248.185603 
L 168.200526 245.325429 
L 168.83541 246.040479 
L 169.470295 246.576767 
L 170.105179 256.229784 
L 170.740064 243.180332 
L 171.374948 258.732406 
L 172.009833 232.454767 
L 172.644717 239.068847 
L 173.279602 224.410586 
L 173.914486 234.421101 
L 174.549371 252.833349 
L 175.184255 261.235028 
L 175.81914 243.895356 
L 176.454024 246.75553 
L 177.088909 243.895356 
L 177.723793 237.996299 
L 178.358678 254.442185 
L 178.993562 267.849135 
L 179.628447 256.40852 
L 180.263331 242.28652 
L 180.898216 256.40852 
L 181.5331 238.175061 
L 182.167985 249.615677 
L 182.802869 269.815496 
L 183.437754 273.390693 
L 184.072638 236.744988 
L 184.707523 251.403275 
L 185.342407 237.817536 
L 185.977292 249.079389 
L 186.612176 246.75553 
L 187.247061 243.00157 
L 187.881945 260.162479 
L 188.51683 250.688225 
L 189.151715 256.051021 
L 189.786599 249.973202 
L 190.421484 235.136152 
L 191.056368 242.107784 
L 191.691253 255.157209 
L 192.326137 255.872259 
L 192.961022 249.079389 
L 193.595906 245.325429 
L 194.230791 246.398004 
L 194.865675 264.810225 
L 195.50056 253.548372 
L 196.135444 254.620948 
L 196.770329 243.895356 
L 197.405213 247.828078 
L 198.040098 240.498948 
L 198.674982 257.12357 
L 199.309867 267.312847 
L 199.944751 268.20666 
L 200.579636 268.385423 
L 201.21452 256.229784 
L 201.849405 263.558914 
L 202.484289 260.698767 
L 203.119174 267.849135 
L 203.754058 270.173021 
L 204.388943 270.888045 
L 205.023827 248.721864 
L 205.658712 286.440118 
L 206.293596 265.346513 
L 206.928481 278.038439 
L 207.563365 251.939536 
L 208.19825 274.28448 
L 208.833134 278.217202 
L 209.468019 270.53052 
L 210.102903 258.017356 
L 210.737788 266.419061 
L 211.372673 280.362299 
L 212.007557 277.323389 
L 212.642442 275.535791 
L 213.277326 281.971135 
L 213.912211 249.794439 
L 214.547095 252.833349 
L 215.18198 261.950078 
L 215.816864 276.250841 
L 216.451749 268.385423 
L 217.086633 277.680914 
L 217.721518 257.481095 
L 218.356402 268.20666 
L 218.991287 267.670372 
L 219.626171 286.618881 
L 220.261056 249.615677 
L 220.89594 263.737677 
L 221.530825 263.558914 
L 222.165709 272.139356 
L 222.800594 273.033168 
L 223.435478 291.981677 
L 224.070363 273.390693 
L 224.705247 293.232988 
L 225.340132 279.647275 
L 225.975016 251.760774 
L 226.609901 277.859677 
L 227.87967 266.240299 
L 228.514554 280.541061 
L 229.149439 265.16775 
L 229.784323 282.32866 
L 230.419208 266.061536 
L 231.054092 279.28975 
L 231.688977 266.419061 
L 232.323862 275.357028 
L 232.958746 280.004774 
L 233.593631 280.183536 
L 234.228515 275.893316 
L 234.8634 288.048954 
L 235.498284 280.004774 
L 236.133169 296.986948 
L 236.768053 280.719824 
L 237.402938 296.808185 
L 238.037822 275.893316 
L 238.672707 292.875463 
L 239.307591 301.634694 
L 239.942476 284.295021 
L 240.57736 290.015316 
L 241.212245 271.603095 
L 241.847129 266.061536 
L 242.482014 290.194078 
L 243.116898 281.256112 
L 243.751783 294.126774 
L 244.386667 279.468513 
L 245.021552 292.517938 
L 245.656436 277.859677 
L 246.291321 302.52848 
L 246.926205 287.870192 
L 247.56109 287.870192 
L 248.195974 282.864948 
L 248.830859 284.473784 
L 249.465743 302.170955 
L 250.100628 278.217202 
L 250.735512 287.870192 
L 251.370397 290.909102 
L 252.005281 310.57266 
L 252.640166 287.155168 
L 253.909935 296.986948 
L 254.54482 289.300292 
L 255.179704 293.054225 
L 255.814589 294.841824 
L 256.449473 289.12153 
L 257.084358 295.378112 
L 257.719242 292.875463 
L 258.354127 300.383356 
L 258.989011 295.556874 
L 259.623896 293.054225 
L 260.25878 291.802914 
L 260.893665 310.393898 
L 261.528549 294.484299 
L 262.163434 294.841824 
L 262.798318 306.8187 
L 263.433203 287.691456 
L 264.068087 304.316078 
L 264.702972 286.261356 
L 265.337856 308.963824 
L 265.972741 310.215135 
L 266.607625 301.992192 
L 267.24251 306.639938 
L 267.877394 288.227717 
L 268.512279 304.852366 
L 269.147163 286.261356 
L 269.782048 309.85761 
L 270.416932 291.445389 
L 271.051817 301.098406 
L 271.686701 307.176225 
L 272.321586 324.515898 
L 272.95647 313.969095 
L 273.591355 298.77452 
L 274.226239 305.924914 
L 274.861124 317.901791 
L 275.496009 303.064767 
L 276.130893 300.562118 
L 276.765778 303.958553 
L 277.400662 290.730366 
L 278.035547 300.919643 
L 278.670431 321.298225 
L 279.305316 316.114192 
L 279.9402 314.147858 
L 280.575085 310.57266 
L 281.209969 315.041644 
L 281.844854 312.717784 
L 282.479738 304.673603 
L 283.114623 308.963824 
L 284.384392 321.298225 
L 285.019276 311.108948 
L 285.654161 318.259316 
L 286.289045 305.388627 
L 286.92393 296.629423 
L 287.558814 333.275128 
L 288.193699 321.298225 
L 288.828583 324.515898 
L 289.463468 305.209864 
L 290.098352 317.186767 
L 290.733237 313.61157 
L 291.368121 311.466446 
L 292.003006 324.337135 
L 292.63789 303.064767 
L 293.272775 304.673603 
L 293.907659 302.349717 
L 294.542544 312.717784 
L 295.177428 307.354988 
L 295.812313 319.153128 
L 296.447197 308.785062 
L 297.082082 311.28771 
L 297.716967 326.482259 
L 298.351851 300.20462 
L 298.986736 323.085824 
L 299.62162 313.61157 
L 300.256505 318.974366 
L 300.891389 307.354988 
L 301.526274 321.834513 
L 302.161158 322.192038 
L 302.796043 319.868152 
L 303.430927 321.655751 
L 304.065812 326.303496 
L 304.700696 328.44862 
L 305.335581 310.393898 
L 305.970465 321.298225 
L 306.60535 313.969095 
L 307.240234 312.539021 
L 307.875119 315.756694 
L 308.510003 324.515898 
L 309.144888 315.220406 
L 309.779772 338.10161 
L 310.414657 317.544292 
L 311.049541 332.738841 
L 311.684426 332.917603 
L 312.31931 328.806119 
L 312.954195 332.381316 
L 313.589079 322.192038 
L 314.223964 332.738841 
L 314.858848 329.163644 
L 315.493733 316.292955 
L 316.128617 315.935456 
L 316.763502 312.181496 
L 317.398386 325.052185 
L 318.033271 333.275128 
L 318.668156 332.023791 
L 319.30304 328.091095 
L 319.937925 314.32662 
L 320.572809 312.002734 
L 321.207694 320.761965 
L 321.842578 332.023791 
L 322.477463 330.057456 
L 323.112347 331.130005 
L 323.747232 310.751423 
L 324.382116 341.676807 
L 325.017001 322.370774 
L 325.651885 329.163644 
L 326.28677 326.482259 
L 326.921654 334.347677 
L 327.556539 314.862881 
L 328.191423 342.570607 
L 328.826308 316.65048 
L 329.461192 329.521169 
L 330.096077 320.046914 
L 330.730961 339.53171 
L 331.365846 328.627383 
L 332.00073 327.912332 
L 332.635615 332.023791 
L 333.270499 342.570607 
L 333.905384 326.482259 
L 334.540268 336.850299 
L 335.175153 318.438078 
L 335.810037 349.005951 
L 337.079806 321.476988 
L 337.714691 342.391858 
L 338.349575 323.622112 
L 338.98446 334.52644 
L 339.619344 321.476988 
L 340.254229 327.376045 
L 340.889114 337.029062 
L 341.523998 330.057456 
L 342.158883 341.85557 
L 342.793767 323.97961 
L 344.063536 332.560078 
L 344.698421 347.039603 
L 345.333305 344.89448 
L 345.96819 323.622112 
L 346.603074 319.510627 
L 347.237959 334.347677 
L 347.872843 345.788279 
L 348.507728 333.275128 
L 349.142612 325.945971 
L 350.412381 339.889209 
L 351.047266 339.710446 
L 351.68215 334.705202 
L 352.317035 355.620058 
L 352.951919 336.314038 
L 353.586804 347.75464 
L 354.221688 332.381316 
L 354.856573 320.583202 
L 355.491457 347.75464 
L 356.126342 337.207824 
L 356.761226 338.637898 
L 357.396111 328.984881 
L 358.030995 337.207824 
L 358.66588 341.319282 
L 359.300764 346.860841 
L 359.935649 341.140547 
L 360.570533 337.744112 
L 361.205418 348.827189 
L 361.840303 352.044861 
L 362.475187 332.560078 
L 363.110072 332.560078 
L 363.744956 345.430767 
L 364.379841 338.10161 
L 365.014725 345.073242 
L 365.64961 336.850299 
L 366.284494 335.241463 
L 366.919379 349.899751 
L 367.554263 333.096366 
L 368.189148 327.554807 
L 369.458917 340.425496 
L 370.093801 339.174185 
L 370.728686 348.112152 
L 371.36357 346.324567 
L 371.998455 348.64844 
L 372.633339 342.749369 
L 373.268224 335.777751 
L 373.903108 340.961784 
L 374.537993 345.073242 
L 375.807762 339.174185 
L 376.442646 342.749369 
L 377.077531 353.83246 
L 377.712415 313.432807 
L 378.3473 341.319282 
L 378.982184 345.252005 
L 379.617069 339.53171 
L 380.251953 358.837731 
L 380.886838 346.324567 
L 381.521722 353.474935 
L 382.156607 349.005951 
L 382.791491 333.453864 
L 383.426376 336.314038 
L 384.061261 354.011222 
L 384.696145 350.79355 
L 385.33103 341.319282 
L 385.965914 355.798821 
L 386.600799 345.788279 
L 387.235683 345.609517 
L 387.870568 347.75464 
L 388.505452 340.604259 
L 389.140337 354.547496 
L 389.775221 335.241463 
L 390.410106 355.620058 
L 391.04499 349.363476 
L 391.679875 344.536968 
L 392.314759 338.10161 
L 392.949644 352.223624 
L 393.584528 344.715731 
L 394.219413 344.358205 
L 394.854297 364.379276 
L 395.489182 340.783021 
L 396.124066 335.0627 
L 396.758951 353.474935 
L 398.02872 335.241463 
L 398.663604 352.402386 
L 399.933373 345.430767 
L 400.568258 348.469677 
L 401.203142 345.967042 
L 401.838027 341.140547 
L 402.472911 350.972312 
L 403.107796 347.218353 
L 403.74268 352.402386 
L 404.377565 351.329824 
L 405.01245 347.575878 
L 405.647334 353.474935 
L 406.282219 347.397115 
L 406.917103 344.715731 
L 407.551988 340.961784 
L 408.186872 365.451824 
L 408.821757 343.464406 
L 409.456641 342.034333 
L 410.091526 346.860841 
L 410.72641 330.951242 
L 411.361295 341.319282 
L 411.996179 345.252005 
L 412.631064 338.81666 
L 413.265948 350.79355 
L 413.900833 338.459135 
L 414.535717 352.759898 
L 415.170602 335.777751 
L 415.805486 344.179443 
L 416.440371 362.591677 
L 417.075255 353.474935 
L 417.71014 354.189985 
L 418.345024 356.335095 
L 418.979909 348.112152 
L 419.614793 356.513858 
L 420.249678 349.184714 
L 420.884562 348.290915 
L 421.519447 352.759898 
L 422.154331 366.703149 
L 422.789216 345.788279 
L 423.4241 342.749369 
L 424.058985 357.050132 
L 424.693869 353.296185 
L 425.328754 357.228894 
L 425.963638 349.005951 
L 426.598523 354.011222 
L 427.233408 351.151062 
L 427.868292 336.492801 
L 428.503177 349.363476 
L 429.138061 357.586406 
L 429.772946 357.586406 
L 430.40783 345.430767 
L 431.042715 350.257276 
L 431.677599 358.301443 
L 432.312484 349.363476 
L 432.947368 354.368734 
L 433.582253 352.044861 
L 434.217137 346.682078 
L 434.852022 346.324567 
L 435.486906 355.620058 
L 436.121791 362.412915 
L 436.756675 349.363476 
L 437.39156 358.301443 
L 438.026444 347.575878 
L 438.661329 360.446567 
L 439.296213 366.524386 
L 439.931098 350.078513 
L 440.565982 357.228894 
L 441.200867 346.503316 
L 441.835751 357.586406 
L 442.470636 350.078513 
L 443.740405 357.228894 
L 444.375289 354.547496 
L 445.010174 364.200513 
L 445.645058 357.228894 
L 446.279943 356.871369 
L 446.914827 356.871369 
L 447.549712 348.827189 
L 448.184597 359.01648 
L 448.819481 364.200513 
L 449.454366 351.687349 
L 450.08925 357.228894 
L 450.724135 359.195242 
L 451.359019 362.234152 
L 451.993904 354.189985 
L 453.263673 356.871369 
L 453.898557 361.340353 
L 454.533442 362.412915 
L 455.168326 362.055403 
L 455.803211 343.821931 
L 456.438095 364.736787 
L 457.07298 362.412915 
L 457.707864 361.340353 
L 458.342749 358.301443 
L 458.977633 370.09957 
L 459.612518 346.860841 
L 460.247402 355.262533 
L 460.882287 359.73153 
L 461.517171 360.982841 
L 462.152056 364.379276 
L 462.78694 352.93866 
L 463.421825 355.798821 
L 464.056709 354.547496 
L 464.691594 357.943931 
L 465.326478 367.775697 
L 465.961363 355.083771 
L 466.596247 344.89448 
L 467.231132 350.79355 
L 467.866016 364.558025 
L 468.500901 365.094313 
L 469.135785 367.06066 
L 469.77067 367.06066 
L 470.405555 347.039603 
L 471.040439 360.089042 
L 471.675324 367.239423 
L 472.310208 364.379276 
L 472.945093 353.474935 
L 473.579977 363.664239 
L 474.214862 367.596948 
L 474.849746 357.943931 
L 475.484631 355.798821 
L 476.119515 358.301443 
L 476.7544 362.234152 
L 477.389284 353.296185 
L 478.024169 364.021751 
L 478.659053 352.581149 
L 479.293938 361.697878 
L 479.928822 360.625316 
L 480.563707 351.329824 
L 481.198591 351.687349 
L 481.833476 358.301443 
L 482.46836 363.485476 
L 483.103245 363.842988 
L 483.738129 362.949189 
L 484.373014 354.368734 
L 485.007898 371.708406 
L 485.642783 354.547496 
L 486.277667 376.356152 
L 486.912552 365.094313 
L 487.547436 362.234152 
L 488.182321 358.837731 
L 488.817205 353.296185 
L 489.45209 358.301443 
L 490.086974 354.905022 
L 490.721859 365.451824 
L 491.356744 365.273062 
L 491.991628 368.311985 
L 492.626513 369.742058 
L 493.261397 372.959731 
L 493.896282 363.127951 
L 494.531166 351.329824 
L 495.166051 373.496005 
L 495.800935 365.451824 
L 496.43582 365.094313 
L 497.070704 364.379276 
L 497.705589 373.13848 
L 498.340473 365.273062 
L 498.975358 362.77044 
L 499.610242 372.602206 
L 500.245127 369.563296 
L 500.880011 364.379276 
L 501.514896 375.641115 
L 502.14978 370.635858 
L 502.784665 356.335095 
L 503.419549 356.156333 
L 504.054434 369.205771 
L 504.689318 367.95446 
L 505.959087 374.926078 
L 506.593972 372.780968 
L 507.228856 369.920821 
L 507.863741 363.664239 
L 508.498625 378.322513 
L 509.13351 370.993369 
L 509.768394 376.534915 
L 510.403279 367.418185 
L 511.038163 366.524386 
L 511.673048 370.278333 
L 512.307933 370.278333 
L 512.942817 368.669497 
L 513.577702 373.496005 
L 514.212586 362.591677 
L 514.847471 363.127951 
L 515.482355 359.73153 
L 516.11724 367.239423 
L 516.752124 359.73153 
L 517.387009 369.205771 
L 518.021893 370.278333 
L 518.656778 356.513858 
L 519.291662 377.964988 
L 519.926547 374.926078 
L 520.561431 364.379276 
L 521.196316 373.674767 
L 521.8312 371.887169 
L 522.466085 375.819878 
L 523.100969 367.596948 
L 523.735854 365.988112 
L 524.370738 369.742058 
L 525.005623 367.06066 
L 525.640507 354.547496 
L 526.910276 374.389804 
L 527.545161 371.887169 
L 528.180045 373.317242 
L 528.81493 369.384533 
L 529.449814 369.563296 
L 530.084699 381.361423 
L 530.719583 371.172132 
L 531.354468 370.635858 
L 531.989352 374.926078 
L 532.624237 357.586406 
L 533.259121 373.674767 
L 533.894006 375.283604 
L 534.528891 372.423443 
L 535.163775 373.13848 
L 535.79866 367.95446 
L 536.433544 372.244694 
L 537.068429 362.591677 
L 537.703313 371.529657 
L 538.338198 370.814607 
L 538.973082 374.568567 
L 539.607967 362.77044 
L 540.242851 374.926078 
L 540.877736 369.027022 
L 541.51262 371.172132 
L 542.147505 369.742058 
L 542.782389 375.283604 
L 543.417274 366.703149 
L 544.052158 365.988112 
L 544.687043 373.13848 
L 545.321927 376.713677 
L 545.956812 365.094313 
L 546.591696 370.814607 
L 547.226581 357.765169 
L 547.861465 371.350894 
L 548.49635 361.161603 
L 549.131234 378.680025 
L 549.766119 376.356152 
L 550.401003 366.703149 
L 551.035888 365.988112 
L 551.670772 371.350894 
L 552.305657 377.964988 
L 552.940541 368.133222 
L 553.575426 371.529657 
L 554.21031 382.433985 
L 554.845195 362.591677 
L 555.48008 365.273062 
L 556.114964 383.685296 
L 556.749849 371.350894 
L 557.384733 369.742058 
L 558.019618 363.127951 
L 558.654502 378.501276 
L 559.289387 370.993369 
L 559.924271 383.327784 
L 560.559156 374.389804 
L 561.19404 370.457095 
L 561.828925 377.786239 
L 562.463809 373.13848 
L 563.098694 373.317242 
L 563.733578 379.395075 
L 564.368463 375.462366 
L 565.003347 372.244694 
L 565.638232 380.646386 
L 566.273116 377.428714 
L 566.908001 370.814607 
L 567.542885 384.579095 
L 568.17777 368.311985 
L 568.812654 376.177403 
L 569.447539 372.423443 
L 570.082423 372.244694 
L 570.717308 372.959731 
L 571.352192 369.205771 
L 571.987077 377.964988 
L 572.621961 385.115369 
L 573.256846 367.418185 
L 573.89173 376.713677 
L 574.526615 371.708406 
L 575.161499 374.211042 
L 575.796384 370.993369 
L 576.431268 377.786239 
L 577.066153 373.317242 
L 577.701038 383.149022 
L 578.335922 368.311985 
L 578.970807 374.211042 
L 579.605691 377.071189 
L 580.240576 381.18266 
L 580.87546 381.18266 
L 581.510345 380.110112 
L 582.145229 374.211042 
L 582.780114 372.780968 
L 582.780114 372.780968 
" clip-path="url(#p3ec8bcfb89)" style="fill: none; stroke: #ff7f0e; stroke-width: 1.5; stroke-linecap: square"/>
   </g>
   <g id="line2d_37">
    <path d="M 50.14375 551.518125 
L 608.14375 551.518125 
" clip-path="url(#p3ec8bcfb89)" style="fill: none; stroke-dasharray: 11.1,4.8; stroke-dashoffset: 0; stroke: #ff0000; stroke-width: 3"/>
   </g>
   <g id="patch_3">
    <path d="M 50.14375 576.718125 
L 50.14375 22.318125 
" style="fill: none; stroke: #000000; stroke-width: 0.8; stroke-linejoin: miter; stroke-linecap: square"/>
   </g>
   <g id="patch_4">
    <path d="M 608.14375 576.718125 
L 608.14375 22.318125 
" style="fill: none; stroke: #000000; stroke-width: 0.8; stroke-linejoin: miter; stroke-linecap: square"/>
   </g>
   <g id="patch_5">
    <path d="M 50.14375 576.718125 
L 608.14375 576.718125 
" style="fill: none; stroke: #000000; stroke-width: 0.8; stroke-linejoin: miter; stroke-linecap: square"/>
   </g>
   <g id="patch_6">
    <path d="M 50.14375 22.318125 
L 608.14375 22.318125 
" style="fill: none; stroke: #000000; stroke-width: 0.8; stroke-linejoin: miter; stroke-linecap: square"/>
   </g>
   <g id="text_20">
    <!-- Train and Val Accuracy -->
    <g transform="translate(261.365313 16.318125) scale(0.12 -0.12)">
     <defs>
      <path id="DejaVuSans-54" d="M -19 4666 
L 3928 4666 
L 3928 4134 
L 2272 4134 
L 2272 0 
L 1638 0 
L 1638 4134 
L -19 4134 
L -19 4666 
z
" transform="scale(0.015625)"/>
      <path id="DejaVuSans-69" d="M 603 3500 
L 1178 3500 
L 1178 0 
L 603 0 
L 603 3500 
z
M 603 4863 
L 1178 4863 
L 1178 4134 
L 603 4134 
L 603 4863 
z
" transform="scale(0.015625)"/>
      <path id="DejaVuSans-6e" d="M 3513 2113 
L 3513 0 
L 2938 0 
L 2938 2094 
Q 2938 2591 2744 2837 
Q 2550 3084 2163 3084 
Q 1697 3084 1428 2787 
Q 1159 2491 1159 1978 
L 1159 0 
L 581 0 
L 581 3500 
L 1159 3500 
L 1159 2956 
Q 1366 3272 1645 3428 
Q 1925 3584 2291 3584 
Q 2894 3584 3203 3211 
Q 3513 2838 3513 2113 
z
" transform="scale(0.015625)"/>
      <path id="DejaVuSans-20" transform="scale(0.015625)"/>
      <path id="DejaVuSans-64" d="M 2906 2969 
L 2906 4863 
L 3481 4863 
L 3481 0 
L 2906 0 
L 2906 525 
Q 2725 213 2448 61 
Q 2172 -91 1784 -91 
Q 1150 -91 751 415 
Q 353 922 353 1747 
Q 353 2572 751 3078 
Q 1150 3584 1784 3584 
Q 2172 3584 2448 3432 
Q 2725 3281 2906 2969 
z
M 947 1747 
Q 947 1113 1208 752 
Q 1469 391 1925 391 
Q 2381 391 2643 752 
Q 2906 1113 2906 1747 
Q 2906 2381 2643 2742 
Q 2381 3103 1925 3103 
Q 1469 3103 1208 2742 
Q 947 2381 947 1747 
z
" transform="scale(0.015625)"/>
      <path id="DejaVuSans-56" d="M 1831 0 
L 50 4666 
L 709 4666 
L 2188 738 
L 3669 4666 
L 4325 4666 
L 2547 0 
L 1831 0 
z
" transform="scale(0.015625)"/>
      <path id="DejaVuSans-6c" d="M 603 4863 
L 1178 4863 
L 1178 0 
L 603 0 
L 603 4863 
z
" transform="scale(0.015625)"/>
     </defs>
     <use xlink:href="#DejaVuSans-54"/>
     <use xlink:href="#DejaVuSans-72" transform="translate(46.333984 0)"/>
     <use xlink:href="#DejaVuSans-61" transform="translate(87.447266 0)"/>
     <use xlink:href="#DejaVuSans-69" transform="translate(148.726562 0)"/>
     <use xlink:href="#DejaVuSans-6e" transform="translate(176.509766 0)"/>
     <use xlink:href="#DejaVuSans-20" transform="translate(239.888672 0)"/>
     <use xlink:href="#DejaVuSans-61" transform="translate(271.675781 0)"/>
     <use xlink:href="#DejaVuSans-6e" transform="translate(332.955078 0)"/>
     <use xlink:href="#DejaVuSans-64" transform="translate(396.333984 0)"/>
     <use xlink:href="#DejaVuSans-20" transform="translate(459.810547 0)"/>
     <use xlink:href="#DejaVuSans-56" transform="translate(491.597656 0)"/>
     <use xlink:href="#DejaVuSans-61" transform="translate(552.255859 0)"/>
     <use xlink:href="#DejaVuSans-6c" transform="translate(613.535156 0)"/>
     <use xlink:href="#DejaVuSans-20" transform="translate(641.318359 0)"/>
     <use xlink:href="#DejaVuSans-41" transform="translate(673.105469 0)"/>
     <use xlink:href="#DejaVuSans-63" transform="translate(739.763672 0)"/>
     <use xlink:href="#DejaVuSans-63" transform="translate(794.744141 0)"/>
     <use xlink:href="#DejaVuSans-75" transform="translate(849.724609 0)"/>
     <use xlink:href="#DejaVuSans-72" transform="translate(913.103516 0)"/>
     <use xlink:href="#DejaVuSans-61" transform="translate(954.216797 0)"/>
     <use xlink:href="#DejaVuSans-63" transform="translate(1015.496094 0)"/>
     <use xlink:href="#DejaVuSans-79" transform="translate(1070.476562 0)"/>
    </g>
   </g>
   <g id="legend_1">
    <g id="patch_7">
     <path d="M 434.020312 74.90875 
L 601.14375 74.90875 
Q 603.14375 74.90875 603.14375 72.90875 
L 603.14375 29.318125 
Q 603.14375 27.318125 601.14375 27.318125 
L 434.020312 27.318125 
Q 432.020312 27.318125 432.020312 29.318125 
L 432.020312 72.90875 
Q 432.020312 74.90875 434.020312 74.90875 
z
" style="fill: #ffffff; opacity: 0.8; stroke: #cccccc; stroke-linejoin: miter"/>
    </g>
    <g id="line2d_38">
     <path d="M 436.020312 35.416562 
L 446.020312 35.416562 
L 456.020312 35.416562 
" style="fill: none; stroke: #1f77b4; stroke-width: 1.5; stroke-linecap: square"/>
    </g>
    <g id="text_21">
     <!-- train_accuracy -->
     <g transform="translate(464.020312 38.916562) scale(0.1 -0.1)">
      <defs>
       <path id="DejaVuSans-74" d="M 1172 4494 
L 1172 3500 
L 2356 3500 
L 2356 3053 
L 1172 3053 
L 1172 1153 
Q 1172 725 1289 603 
Q 1406 481 1766 481 
L 2356 481 
L 2356 0 
L 1766 0 
Q 1100 0 847 248 
Q 594 497 594 1153 
L 594 3053 
L 172 3053 
L 172 3500 
L 594 3500 
L 594 4494 
L 1172 4494 
z
" transform="scale(0.015625)"/>
       <path id="DejaVuSans-5f" d="M 3263 -1063 
L 3263 -1509 
L -63 -1509 
L -63 -1063 
L 3263 -1063 
z
" transform="scale(0.015625)"/>
      </defs>
      <use xlink:href="#DejaVuSans-74"/>
      <use xlink:href="#DejaVuSans-72" transform="translate(39.208984 0)"/>
      <use xlink:href="#DejaVuSans-61" transform="translate(80.322266 0)"/>
      <use xlink:href="#DejaVuSans-69" transform="translate(141.601562 0)"/>
      <use xlink:href="#DejaVuSans-6e" transform="translate(169.384766 0)"/>
      <use xlink:href="#DejaVuSans-5f" transform="translate(232.763672 0)"/>
      <use xlink:href="#DejaVuSans-61" transform="translate(282.763672 0)"/>
      <use xlink:href="#DejaVuSans-63" transform="translate(344.042969 0)"/>
      <use xlink:href="#DejaVuSans-63" transform="translate(399.023438 0)"/>
      <use xlink:href="#DejaVuSans-75" transform="translate(454.003906 0)"/>
      <use xlink:href="#DejaVuSans-72" transform="translate(517.382812 0)"/>
      <use xlink:href="#DejaVuSans-61" transform="translate(558.496094 0)"/>
      <use xlink:href="#DejaVuSans-63" transform="translate(619.775391 0)"/>
      <use xlink:href="#DejaVuSans-79" transform="translate(674.755859 0)"/>
     </g>
    </g>
    <g id="line2d_39">
     <path d="M 436.020312 50.372812 
L 446.020312 50.372812 
L 456.020312 50.372812 
" style="fill: none; stroke: #ff7f0e; stroke-width: 1.5; stroke-linecap: square"/>
    </g>
    <g id="text_22">
     <!-- val_accuracy -->
     <g transform="translate(464.020312 53.872812) scale(0.1 -0.1)">
      <defs>
       <path id="DejaVuSans-76" d="M 191 3500 
L 800 3500 
L 1894 563 
L 2988 3500 
L 3597 3500 
L 2284 0 
L 1503 0 
L 191 3500 
z
" transform="scale(0.015625)"/>
      </defs>
      <use xlink:href="#DejaVuSans-76"/>
      <use xlink:href="#DejaVuSans-61" transform="translate(59.179688 0)"/>
      <use xlink:href="#DejaVuSans-6c" transform="translate(120.458984 0)"/>
      <use xlink:href="#DejaVuSans-5f" transform="translate(148.242188 0)"/>
      <use xlink:href="#DejaVuSans-61" transform="translate(198.242188 0)"/>
      <use xlink:href="#DejaVuSans-63" transform="translate(259.521484 0)"/>
      <use xlink:href="#DejaVuSans-63" transform="translate(314.501953 0)"/>
      <use xlink:href="#DejaVuSans-75" transform="translate(369.482422 0)"/>
      <use xlink:href="#DejaVuSans-72" transform="translate(432.861328 0)"/>
      <use xlink:href="#DejaVuSans-61" transform="translate(473.974609 0)"/>
      <use xlink:href="#DejaVuSans-63" transform="translate(535.253906 0)"/>
      <use xlink:href="#DejaVuSans-79" transform="translate(590.234375 0)"/>
     </g>
    </g>
    <g id="line2d_40">
     <path d="M 436.020312 65.329062 
L 446.020312 65.329062 
L 456.020312 65.329062 
" style="fill: none; stroke-dasharray: 11.1,4.8; stroke-dashoffset: 0; stroke: #ff0000; stroke-width: 3"/>
    </g>
    <g id="text_23">
     <!-- Random-Guesser Accuracy -->
     <g transform="translate(464.020312 68.829062) scale(0.1 -0.1)">
      <defs>
       <path id="DejaVuSans-52" d="M 2841 2188 
Q 3044 2119 3236 1894 
Q 3428 1669 3622 1275 
L 4263 0 
L 3584 0 
L 2988 1197 
Q 2756 1666 2539 1819 
Q 2322 1972 1947 1972 
L 1259 1972 
L 1259 0 
L 628 0 
L 628 4666 
L 2053 4666 
Q 2853 4666 3247 4331 
Q 3641 3997 3641 3322 
Q 3641 2881 3436 2590 
Q 3231 2300 2841 2188 
z
M 1259 4147 
L 1259 2491 
L 2053 2491 
Q 2509 2491 2742 2702 
Q 2975 2913 2975 3322 
Q 2975 3731 2742 3939 
Q 2509 4147 2053 4147 
L 1259 4147 
z
" transform="scale(0.015625)"/>
       <path id="DejaVuSans-6d" d="M 3328 2828 
Q 3544 3216 3844 3400 
Q 4144 3584 4550 3584 
Q 5097 3584 5394 3201 
Q 5691 2819 5691 2113 
L 5691 0 
L 5113 0 
L 5113 2094 
Q 5113 2597 4934 2840 
Q 4756 3084 4391 3084 
Q 3944 3084 3684 2787 
Q 3425 2491 3425 1978 
L 3425 0 
L 2847 0 
L 2847 2094 
Q 2847 2600 2669 2842 
Q 2491 3084 2119 3084 
Q 1678 3084 1418 2786 
Q 1159 2488 1159 1978 
L 1159 0 
L 581 0 
L 581 3500 
L 1159 3500 
L 1159 2956 
Q 1356 3278 1631 3431 
Q 1906 3584 2284 3584 
Q 2666 3584 2933 3390 
Q 3200 3197 3328 2828 
z
" transform="scale(0.015625)"/>
       <path id="DejaVuSans-2d" d="M 313 2009 
L 1997 2009 
L 1997 1497 
L 313 1497 
L 313 2009 
z
" transform="scale(0.015625)"/>
       <path id="DejaVuSans-47" d="M 3809 666 
L 3809 1919 
L 2778 1919 
L 2778 2438 
L 4434 2438 
L 4434 434 
Q 4069 175 3628 42 
Q 3188 -91 2688 -91 
Q 1594 -91 976 548 
Q 359 1188 359 2328 
Q 359 3472 976 4111 
Q 1594 4750 2688 4750 
Q 3144 4750 3555 4637 
Q 3966 4525 4313 4306 
L 4313 3634 
Q 3963 3931 3569 4081 
Q 3175 4231 2741 4231 
Q 1884 4231 1454 3753 
Q 1025 3275 1025 2328 
Q 1025 1384 1454 906 
Q 1884 428 2741 428 
Q 3075 428 3337 486 
Q 3600 544 3809 666 
z
" transform="scale(0.015625)"/>
       <path id="DejaVuSans-65" d="M 3597 1894 
L 3597 1613 
L 953 1613 
Q 991 1019 1311 708 
Q 1631 397 2203 397 
Q 2534 397 2845 478 
Q 3156 559 3463 722 
L 3463 178 
Q 3153 47 2828 -22 
Q 2503 -91 2169 -91 
Q 1331 -91 842 396 
Q 353 884 353 1716 
Q 353 2575 817 3079 
Q 1281 3584 2069 3584 
Q 2775 3584 3186 3129 
Q 3597 2675 3597 1894 
z
M 3022 2063 
Q 3016 2534 2758 2815 
Q 2500 3097 2075 3097 
Q 1594 3097 1305 2825 
Q 1016 2553 972 2059 
L 3022 2063 
z
" transform="scale(0.015625)"/>
      </defs>
      <use xlink:href="#DejaVuSans-52"/>
      <use xlink:href="#DejaVuSans-61" transform="translate(67.232422 0)"/>
      <use xlink:href="#DejaVuSans-6e" transform="translate(128.511719 0)"/>
      <use xlink:href="#DejaVuSans-64" transform="translate(191.890625 0)"/>
      <use xlink:href="#DejaVuSans-6f" transform="translate(255.367188 0)"/>
      <use xlink:href="#DejaVuSans-6d" transform="translate(316.548828 0)"/>
      <use xlink:href="#DejaVuSans-2d" transform="translate(413.960938 0)"/>
      <use xlink:href="#DejaVuSans-47" transform="translate(453.669922 0)"/>
      <use xlink:href="#DejaVuSans-75" transform="translate(531.160156 0)"/>
      <use xlink:href="#DejaVuSans-65" transform="translate(594.539062 0)"/>
      <use xlink:href="#DejaVuSans-73" transform="translate(656.0625 0)"/>
      <use xlink:href="#DejaVuSans-73" transform="translate(708.162109 0)"/>
      <use xlink:href="#DejaVuSans-65" transform="translate(760.261719 0)"/>
      <use xlink:href="#DejaVuSans-72" transform="translate(821.785156 0)"/>
      <use xlink:href="#DejaVuSans-20" transform="translate(862.898438 0)"/>
      <use xlink:href="#DejaVuSans-41" transform="translate(894.685547 0)"/>
      <use xlink:href="#DejaVuSans-63" transform="translate(961.34375 0)"/>
      <use xlink:href="#DejaVuSans-63" transform="translate(1016.324219 0)"/>
      <use xlink:href="#DejaVuSans-75" transform="translate(1071.304688 0)"/>
      <use xlink:href="#DejaVuSans-72" transform="translate(1134.683594 0)"/>
      <use xlink:href="#DejaVuSans-61" transform="translate(1175.796875 0)"/>
      <use xlink:href="#DejaVuSans-63" transform="translate(1237.076172 0)"/>
      <use xlink:href="#DejaVuSans-79" transform="translate(1292.056641 0)"/>
     </g>
    </g>
   </g>
  </g>
 </g>
 <defs>
  <clipPath id="p3ec8bcfb89">
   <rect x="50.14375" y="22.318125" width="558" height="554.4"/>
  </clipPath>
 </defs>
</svg>
