<?xml version="1.0" encoding="utf-8" standalone="no"?>
<!DOCTYPE svg PUBLIC "-//W3C//DTD SVG 1.1//EN"
  "http://www.w3.org/Graphics/SVG/1.1/DTD/svg11.dtd">
<svg xmlns:xlink="http://www.w3.org/1999/xlink" width="608.98125pt" height="614.274375pt" viewBox="0 0 608.98125 614.274375" xmlns="http://www.w3.org/2000/svg" version="1.1">
 <metadata>
  <rdf:RDF xmlns:dc="http://purl.org/dc/elements/1.1/" xmlns:cc="http://creativecommons.org/ns#" xmlns:rdf="http://www.w3.org/1999/02/22-rdf-syntax-ns#">
   <cc:Work>
    <dc:type rdf:resource="http://purl.org/dc/dcmitype/StillImage"/>
    <dc:date>2026-05-23T18:03:12.196381</dc:date>
    <dc:format>image/svg+xml</dc:format>
    <dc:creator>
     <cc:Agent>
      <dc:title>Matplotlib v3.10.9, https://matplotlib.org/</dc:title>
     </cc:Agent>
    </dc:creator>
   </cc:Work>
  </rdf:RDF>
 </metadata>
 <defs>
  <style type="text/css">*{stroke-linejoin: round; stroke-linecap: butt}</style>
 </defs>
 <g id="figure_1">
  <g id="patch_1">
   <path d="M 0 614.274375 
L 608.98125 614.274375 
L 608.98125 0 
L 0 0 
z
" style="fill: #ffffff"/>
  </g>
  <g id="axes_1">
   <g id="patch_2">
    <path d="M 43.78125 576.718125 
L 601.78125 576.718125 
L 601.78125 22.318125 
L 43.78125 22.318125 
z
" style="fill: #ffffff"/>
   </g>
   <g id="matplotlib.axis_1">
    <g id="xtick_1">
     <g id="line2d_1">
      <path d="M 69.144886 576.718125 
L 69.144886 22.318125 
" clip-path="url(#pd43b288006)" style="fill: none; stroke: #b0b0b0; stroke-width: 0.8; stroke-linecap: square"/>
     </g>
     <g id="line2d_2">
      <defs>
       <path id="md8cb20c239" d="M 0 0 
L 0 3.5 
" style="stroke: #000000; stroke-width: 0.8"/>
      </defs>
      <g>
       <use xlink:href="#md8cb20c239" x="69.144886" y="576.718125" style="stroke: #000000; stroke-width: 0.8"/>
      </g>
     </g>
     <g id="text_1">
      <!-- 0 -->
      <g transform="translate(65.963636 591.316563) scale(0.1 -0.1)">
       <defs>
        <path id="DejaVuSans-30" d="M 2034 4250 
Q 1547 4250 1301 3770 
Q 1056 3291 1056 2328 
Q 1056 1369 1301 889 
Q 1547 409 2034 409 
Q 2525 409 2770 889 
Q 3016 1369 3016 2328 
Q 3016 3291 2770 3770 
Q 2525 4250 2034 4250 
z
M 2034 4750 
Q 2819 4750 3233 4129 
Q 3647 3509 3647 2328 
Q 3647 1150 3233 529 
Q 2819 -91 2034 -91 
Q 1250 -91 836 529 
Q 422 1150 422 2328 
Q 422 3509 836 4129 
Q 1250 4750 2034 4750 
z
" transform="scale(0.015625)"/>
       </defs>
       <use xlink:href="#DejaVuSans-30"/>
      </g>
     </g>
    </g>
    <g id="xtick_2">
     <g id="line2d_3">
      <path d="M 132.633338 576.718125 
L 132.633338 22.318125 
" clip-path="url(#pd43b288006)" style="fill: none; stroke: #b0b0b0; stroke-width: 0.8; stroke-linecap: square"/>
     </g>
     <g id="line2d_4">
      <g>
       <use xlink:href="#md8cb20c239" x="132.633338" y="576.718125" style="stroke: #000000; stroke-width: 0.8"/>
      </g>
     </g>
     <g id="text_2">
      <!-- 100 -->
      <g transform="translate(123.089588 591.316563) scale(0.1 -0.1)">
       <defs>
        <path id="DejaVuSans-31" d="M 794 531 
L 1825 531 
L 1825 4091 
L 703 3866 
L 703 4441 
L 1819 4666 
L 2450 4666 
L 2450 531 
L 3481 531 
L 3481 0 
L 794 0 
L 794 531 
z
" transform="scale(0.015625)"/>
       </defs>
       <use xlink:href="#DejaVuSans-31"/>
       <use xlink:href="#DejaVuSans-30" transform="translate(63.623047 0)"/>
       <use xlink:href="#DejaVuSans-30" transform="translate(127.246094 0)"/>
      </g>
     </g>
    </g>
    <g id="xtick_3">
     <g id="line2d_5">
      <path d="M 196.121789 576.718125 
L 196.121789 22.318125 
" clip-path="url(#pd43b288006)" style="fill: none; stroke: #b0b0b0; stroke-width: 0.8; stroke-linecap: square"/>
     </g>
     <g id="line2d_6">
      <g>
       <use xlink:href="#md8cb20c239" x="196.121789" y="576.718125" style="stroke: #000000; stroke-width: 0.8"/>
      </g>
     </g>
     <g id="text_3">
      <!-- 200 -->
      <g transform="translate(186.578039 591.316563) scale(0.1 -0.1)">
       <defs>
        <path id="DejaVuSans-32" d="M 1228 531 
L 3431 531 
L 3431 0 
L 469 0 
L 469 531 
Q 828 903 1448 1529 
Q 2069 2156 2228 2338 
Q 2531 2678 2651 2914 
Q 2772 3150 2772 3378 
Q 2772 3750 2511 3984 
Q 2250 4219 1831 4219 
Q 1534 4219 1204 4116 
Q 875 4013 500 3803 
L 500 4441 
Q 881 4594 1212 4672 
Q 1544 4750 1819 4750 
Q 2544 4750 2975 4387 
Q 3406 4025 3406 3419 
Q 3406 3131 3298 2873 
Q 3191 2616 2906 2266 
Q 2828 2175 2409 1742 
Q 1991 1309 1228 531 
z
" transform="scale(0.015625)"/>
       </defs>
       <use xlink:href="#DejaVuSans-32"/>
       <use xlink:href="#DejaVuSans-30" transform="translate(63.623047 0)"/>
       <use xlink:href="#DejaVuSans-30" transform="translate(127.246094 0)"/>
      </g>
     </g>
    </g>
    <g id="xtick_4">
     <g id="line2d_7">
      <path d="M 259.610241 576.718125 
L 259.610241 22.318125 
" clip-path="url(#pd43b288006)" style="fill: none; stroke: #b0b0b0; stroke-width: 0.8; stroke-linecap: square"/>
     </g>
     <g id="line2d_8">
      <g>
       <use xlink:href="#md8cb20c239" x="259.610241" y="576.718125" style="stroke: #000000; stroke-width: 0.8"/>
      </g>
     </g>
     <g id="text_4">
      <!-- 300 -->
      <g transform="translate(250.066491 591.316563) scale(0.1 -0.1)">
       <defs>
        <path id="DejaVuSans-33" d="M 2597 2516 
Q 3050 2419 3304 2112 
Q 3559 1806 3559 1356 
Q 3559 666 3084 287 
Q 2609 -91 1734 -91 
Q 1441 -91 1130 -33 
Q 819 25 488 141 
L 488 750 
Q 750 597 1062 519 
Q 1375 441 1716 441 
Q 2309 441 2620 675 
Q 2931 909 2931 1356 
Q 2931 1769 2642 2001 
Q 2353 2234 1838 2234 
L 1294 2234 
L 1294 2753 
L 1863 2753 
Q 2328 2753 2575 2939 
Q 2822 3125 2822 3475 
Q 2822 3834 2567 4026 
Q 2313 4219 1838 4219 
Q 1578 4219 1281 4162 
Q 984 4106 628 3988 
L 628 4550 
Q 988 4650 1302 4700 
Q 1616 4750 1894 4750 
Q 2613 4750 3031 4423 
Q 3450 4097 3450 3541 
Q 3450 3153 3228 2886 
Q 3006 2619 2597 2516 
z
" transform="scale(0.015625)"/>
       </defs>
       <use xlink:href="#DejaVuSans-33"/>
       <use xlink:href="#DejaVuSans-30" transform="translate(63.623047 0)"/>
       <use xlink:href="#DejaVuSans-30" transform="translate(127.246094 0)"/>
      </g>
     </g>
    </g>
    <g id="xtick_5">
     <g id="line2d_9">
      <path d="M 323.098692 576.718125 
L 323.098692 22.318125 
" clip-path="url(#pd43b288006)" style="fill: none; stroke: #b0b0b0; stroke-width: 0.8; stroke-linecap: square"/>
     </g>
     <g id="line2d_10">
      <g>
       <use xlink:href="#md8cb20c239" x="323.098692" y="576.718125" style="stroke: #000000; stroke-width: 0.8"/>
      </g>
     </g>
     <g id="text_5">
      <!-- 400 -->
      <g transform="translate(313.554942 591.316563) scale(0.1 -0.1)">
       <defs>
        <path id="DejaVuSans-34" d="M 2419 4116 
L 825 1625 
L 2419 1625 
L 2419 4116 
z
M 2253 4666 
L 3047 4666 
L 3047 1625 
L 3713 1625 
L 3713 1100 
L 3047 1100 
L 3047 0 
L 2419 0 
L 2419 1100 
L 313 1100 
L 313 1709 
L 2253 4666 
z
" transform="scale(0.015625)"/>
       </defs>
       <use xlink:href="#DejaVuSans-34"/>
       <use xlink:href="#DejaVuSans-30" transform="translate(63.623047 0)"/>
       <use xlink:href="#DejaVuSans-30" transform="translate(127.246094 0)"/>
      </g>
     </g>
    </g>
    <g id="xtick_6">
     <g id="line2d_11">
      <path d="M 386.587144 576.718125 
L 386.587144 22.318125 
" clip-path="url(#pd43b288006)" style="fill: none; stroke: #b0b0b0; stroke-width: 0.8; stroke-linecap: square"/>
     </g>
     <g id="line2d_12">
      <g>
       <use xlink:href="#md8cb20c239" x="386.587144" y="576.718125" style="stroke: #000000; stroke-width: 0.8"/>
      </g>
     </g>
     <g id="text_6">
      <!-- 500 -->
      <g transform="translate(377.043394 591.316563) scale(0.1 -0.1)">
       <defs>
        <path id="DejaVuSans-35" d="M 691 4666 
L 3169 4666 
L 3169 4134 
L 1269 4134 
L 1269 2991 
Q 1406 3038 1543 3061 
Q 1681 3084 1819 3084 
Q 2600 3084 3056 2656 
Q 3513 2228 3513 1497 
Q 3513 744 3044 326 
Q 2575 -91 1722 -91 
Q 1428 -91 1123 -41 
Q 819 9 494 109 
L 494 744 
Q 775 591 1075 516 
Q 1375 441 1709 441 
Q 2250 441 2565 725 
Q 2881 1009 2881 1497 
Q 2881 1984 2565 2268 
Q 2250 2553 1709 2553 
Q 1456 2553 1204 2497 
Q 953 2441 691 2322 
L 691 4666 
z
" transform="scale(0.015625)"/>
       </defs>
       <use xlink:href="#DejaVuSans-35"/>
       <use xlink:href="#DejaVuSans-30" transform="translate(63.623047 0)"/>
       <use xlink:href="#DejaVuSans-30" transform="translate(127.246094 0)"/>
      </g>
     </g>
    </g>
    <g id="xtick_7">
     <g id="line2d_13">
      <path d="M 450.075595 576.718125 
L 450.075595 22.318125 
" clip-path="url(#pd43b288006)" style="fill: none; stroke: #b0b0b0; stroke-width: 0.8; stroke-linecap: square"/>
     </g>
     <g id="line2d_14">
      <g>
       <use xlink:href="#md8cb20c239" x="450.075595" y="576.718125" style="stroke: #000000; stroke-width: 0.8"/>
      </g>
     </g>
     <g id="text_7">
      <!-- 600 -->
      <g transform="translate(440.531845 591.316563) scale(0.1 -0.1)">
       <defs>
        <path id="DejaVuSans-36" d="M 2113 2584 
Q 1688 2584 1439 2293 
Q 1191 2003 1191 1497 
Q 1191 994 1439 701 
Q 1688 409 2113 409 
Q 2538 409 2786 701 
Q 3034 994 3034 1497 
Q 3034 2003 2786 2293 
Q 2538 2584 2113 2584 
z
M 3366 4563 
L 3366 3988 
Q 3128 4100 2886 4159 
Q 2644 4219 2406 4219 
Q 1781 4219 1451 3797 
Q 1122 3375 1075 2522 
Q 1259 2794 1537 2939 
Q 1816 3084 2150 3084 
Q 2853 3084 3261 2657 
Q 3669 2231 3669 1497 
Q 3669 778 3244 343 
Q 2819 -91 2113 -91 
Q 1303 -91 875 529 
Q 447 1150 447 2328 
Q 447 3434 972 4092 
Q 1497 4750 2381 4750 
Q 2619 4750 2861 4703 
Q 3103 4656 3366 4563 
z
" transform="scale(0.015625)"/>
       </defs>
       <use xlink:href="#DejaVuSans-36"/>
       <use xlink:href="#DejaVuSans-30" transform="translate(63.623047 0)"/>
       <use xlink:href="#DejaVuSans-30" transform="translate(127.246094 0)"/>
      </g>
     </g>
    </g>
    <g id="xtick_8">
     <g id="line2d_15">
      <path d="M 513.564047 576.718125 
L 513.564047 22.318125 
" clip-path="url(#pd43b288006)" style="fill: none; stroke: #b0b0b0; stroke-width: 0.8; stroke-linecap: square"/>
     </g>
     <g id="line2d_16">
      <g>
       <use xlink:href="#md8cb20c239" x="513.564047" y="576.718125" style="stroke: #000000; stroke-width: 0.8"/>
      </g>
     </g>
     <g id="text_8">
      <!-- 700 -->
      <g transform="translate(504.020297 591.316563) scale(0.1 -0.1)">
       <defs>
        <path id="DejaVuSans-37" d="M 525 4666 
L 3525 4666 
L 3525 4397 
L 1831 0 
L 1172 0 
L 2766 4134 
L 525 4134 
L 525 4666 
z
" transform="scale(0.015625)"/>
       </defs>
       <use xlink:href="#DejaVuSans-37"/>
       <use xlink:href="#DejaVuSans-30" transform="translate(63.623047 0)"/>
       <use xlink:href="#DejaVuSans-30" transform="translate(127.246094 0)"/>
      </g>
     </g>
    </g>
    <g id="xtick_9">
     <g id="line2d_17">
      <path d="M 577.052498 576.718125 
L 577.052498 22.318125 
" clip-path="url(#pd43b288006)" style="fill: none; stroke: #b0b0b0; stroke-width: 0.8; stroke-linecap: square"/>
     </g>
     <g id="line2d_18">
      <g>
       <use xlink:href="#md8cb20c239" x="577.052498" y="576.718125" style="stroke: #000000; stroke-width: 0.8"/>
      </g>
     </g>
     <g id="text_9">
      <!-- 800 -->
      <g transform="translate(567.508748 591.316563) scale(0.1 -0.1)">
       <defs>
        <path id="DejaVuSans-38" d="M 2034 2216 
Q 1584 2216 1326 1975 
Q 1069 1734 1069 1313 
Q 1069 891 1326 650 
Q 1584 409 2034 409 
Q 2484 409 2743 651 
Q 3003 894 3003 1313 
Q 3003 1734 2745 1975 
Q 2488 2216 2034 2216 
z
M 1403 2484 
Q 997 2584 770 2862 
Q 544 3141 544 3541 
Q 544 4100 942 4425 
Q 1341 4750 2034 4750 
Q 2731 4750 3128 4425 
Q 3525 4100 3525 3541 
Q 3525 3141 3298 2862 
Q 3072 2584 2669 2484 
Q 3125 2378 3379 2068 
Q 3634 1759 3634 1313 
Q 3634 634 3220 271 
Q 2806 -91 2034 -91 
Q 1263 -91 848 271 
Q 434 634 434 1313 
Q 434 1759 690 2068 
Q 947 2378 1403 2484 
z
M 1172 3481 
Q 1172 3119 1398 2916 
Q 1625 2713 2034 2713 
Q 2441 2713 2670 2916 
Q 2900 3119 2900 3481 
Q 2900 3844 2670 4047 
Q 2441 4250 2034 4250 
Q 1625 4250 1398 4047 
Q 1172 3844 1172 3481 
z
" transform="scale(0.015625)"/>
       </defs>
       <use xlink:href="#DejaVuSans-38"/>
       <use xlink:href="#DejaVuSans-30" transform="translate(63.623047 0)"/>
       <use xlink:href="#DejaVuSans-30" transform="translate(127.246094 0)"/>
      </g>
     </g>
    </g>
    <g id="text_10">
     <!-- Epochs -->
     <g transform="translate(304.865625 604.994688) scale(0.1 -0.1)">
      <defs>
       <path id="DejaVuSans-45" d="M 628 4666 
L 3578 4666 
L 3578 4134 
L 1259 4134 
L 1259 2753 
L 3481 2753 
L 3481 2222 
L 1259 2222 
L 1259 531 
L 3634 531 
L 3634 0 
L 628 0 
L 628 4666 
z
" transform="scale(0.015625)"/>
       <path id="DejaVuSans-70" d="M 1159 525 
L 1159 -1331 
L 581 -1331 
L 581 3500 
L 1159 3500 
L 1159 2969 
Q 1341 3281 1617 3432 
Q 1894 3584 2278 3584 
Q 2916 3584 3314 3078 
Q 3713 2572 3713 1747 
Q 3713 922 3314 415 
Q 2916 -91 2278 -91 
Q 1894 -91 1617 61 
Q 1341 213 1159 525 
z
M 3116 1747 
Q 3116 2381 2855 2742 
Q 2594 3103 2138 3103 
Q 1681 3103 1420 2742 
Q 1159 2381 1159 1747 
Q 1159 1113 1420 752 
Q 1681 391 2138 391 
Q 2594 391 2855 752 
Q 3116 1113 3116 1747 
z
" transform="scale(0.015625)"/>
       <path id="DejaVuSans-6f" d="M 1959 3097 
Q 1497 3097 1228 2736 
Q 959 2375 959 1747 
Q 959 1119 1226 758 
Q 1494 397 1959 397 
Q 2419 397 2687 759 
Q 2956 1122 2956 1747 
Q 2956 2369 2687 2733 
Q 2419 3097 1959 3097 
z
M 1959 3584 
Q 2709 3584 3137 3096 
Q 3566 2609 3566 1747 
Q 3566 888 3137 398 
Q 2709 -91 1959 -91 
Q 1206 -91 779 398 
Q 353 888 353 1747 
Q 353 2609 779 3096 
Q 1206 3584 1959 3584 
z
" transform="scale(0.015625)"/>
       <path id="DejaVuSans-63" d="M 3122 3366 
L 3122 2828 
Q 2878 2963 2633 3030 
Q 2388 3097 2138 3097 
Q 1578 3097 1268 2742 
Q 959 2388 959 1747 
Q 959 1106 1268 751 
Q 1578 397 2138 397 
Q 2388 397 2633 464 
Q 2878 531 3122 666 
L 3122 134 
Q 2881 22 2623 -34 
Q 2366 -91 2075 -91 
Q 1284 -91 818 406 
Q 353 903 353 1747 
Q 353 2603 823 3093 
Q 1294 3584 2113 3584 
Q 2378 3584 2631 3529 
Q 2884 3475 3122 3366 
z
" transform="scale(0.015625)"/>
       <path id="DejaVuSans-68" d="M 3513 2113 
L 3513 0 
L 2938 0 
L 2938 2094 
Q 2938 2591 2744 2837 
Q 2550 3084 2163 3084 
Q 1697 3084 1428 2787 
Q 1159 2491 1159 1978 
L 1159 0 
L 581 0 
L 581 4863 
L 1159 4863 
L 1159 2956 
Q 1366 3272 1645 3428 
Q 1925 3584 2291 3584 
Q 2894 3584 3203 3211 
Q 3513 2838 3513 2113 
z
" transform="scale(0.015625)"/>
       <path id="DejaVuSans-73" d="M 2834 3397 
L 2834 2853 
Q 2591 2978 2328 3040 
Q 2066 3103 1784 3103 
Q 1356 3103 1142 2972 
Q 928 2841 928 2578 
Q 928 2378 1081 2264 
Q 1234 2150 1697 2047 
L 1894 2003 
Q 2506 1872 2764 1633 
Q 3022 1394 3022 966 
Q 3022 478 2636 193 
Q 2250 -91 1575 -91 
Q 1294 -91 989 -36 
Q 684 19 347 128 
L 347 722 
Q 666 556 975 473 
Q 1284 391 1588 391 
Q 1994 391 2212 530 
Q 2431 669 2431 922 
Q 2431 1156 2273 1281 
Q 2116 1406 1581 1522 
L 1381 1569 
Q 847 1681 609 1914 
Q 372 2147 372 2553 
Q 372 3047 722 3315 
Q 1072 3584 1716 3584 
Q 2034 3584 2315 3537 
Q 2597 3491 2834 3397 
z
" transform="scale(0.015625)"/>
      </defs>
      <use xlink:href="#DejaVuSans-45"/>
      <use xlink:href="#DejaVuSans-70" transform="translate(63.183594 0)"/>
      <use xlink:href="#DejaVuSans-6f" transform="translate(126.660156 0)"/>
      <use xlink:href="#DejaVuSans-63" transform="translate(187.841797 0)"/>
      <use xlink:href="#DejaVuSans-68" transform="translate(242.822266 0)"/>
      <use xlink:href="#DejaVuSans-73" transform="translate(306.201172 0)"/>
     </g>
    </g>
   </g>
   <g id="matplotlib.axis_2">
    <g id="ytick_1">
     <g id="line2d_19">
      <path d="M 43.78125 522.86845 
L 601.78125 522.86845 
" clip-path="url(#pd43b288006)" style="fill: none; stroke: #b0b0b0; stroke-width: 0.8; stroke-linecap: square"/>
     </g>
     <g id="line2d_20">
      <defs>
       <path id="m2c0034b7bb" d="M 0 0 
L -3.5 0 
" style="stroke: #000000; stroke-width: 0.8"/>
      </defs>
      <g>
       <use xlink:href="#m2c0034b7bb" x="43.78125" y="522.86845" style="stroke: #000000; stroke-width: 0.8"/>
      </g>
     </g>
     <g id="text_11">
      <!-- 0.5 -->
      <g transform="translate(20.878125 526.667669) scale(0.1 -0.1)">
       <defs>
        <path id="DejaVuSans-2e" d="M 684 794 
L 1344 794 
L 1344 0 
L 684 0 
L 684 794 
z
" transform="scale(0.015625)"/>
       </defs>
       <use xlink:href="#DejaVuSans-30"/>
       <use xlink:href="#DejaVuSans-2e" transform="translate(63.623047 0)"/>
       <use xlink:href="#DejaVuSans-35" transform="translate(95.410156 0)"/>
      </g>
     </g>
    </g>
    <g id="ytick_2">
     <g id="line2d_21">
      <path d="M 43.78125 408.742548 
L 601.78125 408.742548 
" clip-path="url(#pd43b288006)" style="fill: none; stroke: #b0b0b0; stroke-width: 0.8; stroke-linecap: square"/>
     </g>
     <g id="line2d_22">
      <g>
       <use xlink:href="#m2c0034b7bb" x="43.78125" y="408.742548" style="stroke: #000000; stroke-width: 0.8"/>
      </g>
     </g>
     <g id="text_12">
      <!-- 1.0 -->
      <g transform="translate(20.878125 412.541766) scale(0.1 -0.1)">
       <use xlink:href="#DejaVuSans-31"/>
       <use xlink:href="#DejaVuSans-2e" transform="translate(63.623047 0)"/>
       <use xlink:href="#DejaVuSans-30" transform="translate(95.410156 0)"/>
      </g>
     </g>
    </g>
    <g id="ytick_3">
     <g id="line2d_23">
      <path d="M 43.78125 294.616645 
L 601.78125 294.616645 
" clip-path="url(#pd43b288006)" style="fill: none; stroke: #b0b0b0; stroke-width: 0.8; stroke-linecap: square"/>
     </g>
     <g id="line2d_24">
      <g>
       <use xlink:href="#m2c0034b7bb" x="43.78125" y="294.616645" style="stroke: #000000; stroke-width: 0.8"/>
      </g>
     </g>
     <g id="text_13">
      <!-- 1.5 -->
      <g transform="translate(20.878125 298.415864) scale(0.1 -0.1)">
       <use xlink:href="#DejaVuSans-31"/>
       <use xlink:href="#DejaVuSans-2e" transform="translate(63.623047 0)"/>
       <use xlink:href="#DejaVuSans-35" transform="translate(95.410156 0)"/>
      </g>
     </g>
    </g>
    <g id="ytick_4">
     <g id="line2d_25">
      <path d="M 43.78125 180.490742 
L 601.78125 180.490742 
" clip-path="url(#pd43b288006)" style="fill: none; stroke: #b0b0b0; stroke-width: 0.8; stroke-linecap: square"/>
     </g>
     <g id="line2d_26">
      <g>
       <use xlink:href="#m2c0034b7bb" x="43.78125" y="180.490742" style="stroke: #000000; stroke-width: 0.8"/>
      </g>
     </g>
     <g id="text_14">
      <!-- 2.0 -->
      <g transform="translate(20.878125 184.289961) scale(0.1 -0.1)">
       <use xlink:href="#DejaVuSans-32"/>
       <use xlink:href="#DejaVuSans-2e" transform="translate(63.623047 0)"/>
       <use xlink:href="#DejaVuSans-30" transform="translate(95.410156 0)"/>
      </g>
     </g>
    </g>
    <g id="ytick_5">
     <g id="line2d_27">
      <path d="M 43.78125 66.364839 
L 601.78125 66.364839 
" clip-path="url(#pd43b288006)" style="fill: none; stroke: #b0b0b0; stroke-width: 0.8; stroke-linecap: square"/>
     </g>
     <g id="line2d_28">
      <g>
       <use xlink:href="#m2c0034b7bb" x="43.78125" y="66.364839" style="stroke: #000000; stroke-width: 0.8"/>
      </g>
     </g>
     <g id="text_15">
      <!-- 2.5 -->
      <g transform="translate(20.878125 70.164058) scale(0.1 -0.1)">
       <use xlink:href="#DejaVuSans-32"/>
       <use xlink:href="#DejaVuSans-2e" transform="translate(63.623047 0)"/>
       <use xlink:href="#DejaVuSans-35" transform="translate(95.410156 0)"/>
      </g>
     </g>
    </g>
    <g id="text_16">
     <!-- Loss -->
     <g transform="translate(14.798438 310.485313) rotate(-90) scale(0.1 -0.1)">
      <defs>
       <path id="DejaVuSans-4c" d="M 628 4666 
L 1259 4666 
L 1259 531 
L 3531 531 
L 3531 0 
L 628 0 
L 628 4666 
z
" transform="scale(0.015625)"/>
      </defs>
      <use xlink:href="#DejaVuSans-4c"/>
      <use xlink:href="#DejaVuSans-6f" transform="translate(53.962891 0)"/>
      <use xlink:href="#DejaVuSans-73" transform="translate(115.144531 0)"/>
      <use xlink:href="#DejaVuSans-73" transform="translate(167.244141 0)"/>
     </g>
    </g>
   </g>
   <g id="line2d_29">
    <path d="M 69.144886 478.444639 
L 69.779771 478.71577 
L 72.954193 479.166785 
L 74.858847 479.540103 
L 89.461191 483.080633 
L 98.349574 485.714182 
L 117.396109 491.647075 
L 131.363569 495.809838 
L 140.886837 498.482337 
L 156.758949 502.622502 
L 165.012448 504.63488 
L 179.614792 507.997527 
L 213.898556 515.021652 
L 229.135784 517.839207 
L 246.277666 520.830931 
L 252.626511 521.903539 
L 260.88001 523.245291 
L 262.784663 523.569611 
L 267.863739 524.372047 
L 283.100968 526.705152 
L 314.845194 531.05186 
L 318.019616 531.445054 
L 326.907999 532.516233 
L 334.526614 533.386319 
L 358.652225 535.947537 
L 364.366186 536.510568 
L 382.142952 538.168485 
L 401.824372 539.866583 
L 404.36391 540.08273 
L 473.566322 545.265226 
L 479.915167 545.689215 
L 483.08959 545.913885 
L 491.977973 546.496235 
L 506.580317 547.436359 
L 528.166391 548.770282 
L 531.340813 548.955233 
L 541.498965 549.557534 
L 547.212926 549.879895 
L 576.417614 551.518125 
L 576.417614 551.518125 
" clip-path="url(#pd43b288006)" style="fill: none; stroke: #1f77b4; stroke-width: 1.5; stroke-linecap: square"/>
   </g>
   <g id="line2d_30">
    <path d="M 69.144886 478.552933 
L 71.04954 478.630046 
L 74.223962 478.802678 
L 77.398385 479.054844 
L 81.842577 479.081333 
L 86.921653 478.887341 
L 95.175151 477.983407 
L 101.523997 476.830163 
L 103.42865 476.456573 
L 107.872842 475.41493 
L 110.41238 474.707314 
L 114.856571 473.617958 
L 116.12634 473.071641 
L 116.761225 472.983277 
L 117.396109 472.751369 
L 118.665879 472.481707 
L 119.935648 471.997605 
L 124.379839 470.662409 
L 126.919377 469.710504 
L 128.189146 469.534226 
L 141.521721 464.926652 
L 142.156606 464.603278 
L 143.426375 464.209838 
L 145.965913 463.262287 
L 147.235682 462.656067 
L 147.870566 462.480782 
L 148.505451 462.422839 
L 149.140335 462.169938 
L 149.77522 461.733031 
L 150.410104 461.697523 
L 151.044989 461.2655 
L 151.679873 461.151423 
L 152.314758 460.851599 
L 152.949642 460.723006 
L 156.124065 459.462515 
L 156.758949 459.266714 
L 157.393834 458.853194 
L 159.298487 458.217534 
L 160.568256 457.554664 
L 161.838026 457.223031 
L 165.647333 455.613195 
L 166.917102 455.140765 
L 169.45664 453.92064 
L 171.361293 453.211296 
L 171.996178 452.748866 
L 172.631062 452.551909 
L 173.265947 452.585812 
L 175.1706 451.484389 
L 177.075254 450.793779 
L 177.710138 450.383728 
L 178.345023 450.193315 
L 178.979907 449.577436 
L 179.614792 449.694193 
L 180.249676 448.952564 
L 180.884561 449.006548 
L 182.15433 448.463537 
L 182.789215 448.341896 
L 183.424099 447.640851 
L 184.058984 447.612444 
L 184.693868 447.271275 
L 185.328753 447.098193 
L 185.963637 446.677844 
L 186.598522 446.51245 
L 187.868291 445.678308 
L 189.772944 445.034947 
L 190.407829 444.54826 
L 191.677598 444.177732 
L 192.312482 443.733614 
L 195.486905 442.105561 
L 196.121789 441.62837 
L 196.756674 441.58029 
L 198.026443 440.988152 
L 198.661327 440.735442 
L 199.931096 439.786801 
L 200.565981 439.794951 
L 201.200865 439.490433 
L 201.83575 438.824801 
L 202.470634 438.620892 
L 203.105519 438.091118 
L 204.375288 437.570623 
L 205.010173 437.47011 
L 206.279942 436.443664 
L 207.549711 436.203715 
L 208.184595 435.532246 
L 209.454364 435.048879 
L 210.089249 434.482658 
L 210.724133 434.392417 
L 211.359018 433.837094 
L 211.993902 433.604682 
L 213.263671 432.858468 
L 213.898556 432.592452 
L 214.53344 432.021361 
L 215.168325 431.9552 
L 215.803209 431.655444 
L 217.072978 430.684437 
L 217.707863 430.529342 
L 218.342747 429.835684 
L 218.977632 429.452449 
L 219.612516 429.295258 
L 220.247401 428.883099 
L 220.882285 428.306647 
L 222.786939 427.550719 
L 223.421823 426.912665 
L 224.691592 426.120712 
L 225.326477 425.618597 
L 225.961362 425.666241 
L 226.596246 425.328718 
L 227.866015 424.131027 
L 228.5009 423.674298 
L 229.135784 423.409928 
L 231.040438 421.837831 
L 232.310207 421.288467 
L 232.945091 420.692982 
L 233.579976 420.751007 
L 234.21486 419.804842 
L 235.484629 419.010046 
L 236.119514 418.433703 
L 236.754398 418.011558 
L 237.389283 417.39625 
L 238.024167 417.16675 
L 238.659052 417.213632 
L 239.293936 415.85003 
L 239.928821 416.171635 
L 240.563705 415.321753 
L 241.19859 414.792088 
L 241.833474 414.730526 
L 242.468359 413.745357 
L 243.103243 413.333769 
L 244.373012 412.788227 
L 245.007897 412.100855 
L 245.642781 411.20711 
L 246.277666 411.448733 
L 246.91255 411.156024 
L 247.547435 409.963231 
L 248.18232 409.5896 
L 249.452089 408.639858 
L 250.086973 407.906583 
L 250.721858 407.551931 
L 251.991627 406.320908 
L 253.89628 405.156087 
L 254.531165 404.44292 
L 255.800934 403.769642 
L 256.435818 402.400938 
L 257.070703 401.972575 
L 257.705587 402.491845 
L 258.340472 401.296603 
L 260.245125 399.109594 
L 260.88001 399.092016 
L 262.784663 397.142466 
L 264.054432 395.993399 
L 264.689317 395.55505 
L 265.324201 394.873392 
L 265.959086 393.946764 
L 267.228855 393.482566 
L 267.863739 392.929474 
L 268.498624 392.12899 
L 269.133509 391.87613 
L 269.768393 390.404628 
L 270.403278 390.304714 
L 271.038162 389.042128 
L 271.673047 388.862108 
L 272.307931 387.982118 
L 272.942816 387.677369 
L 273.5777 386.513391 
L 274.212585 386.357778 
L 274.847469 385.377466 
L 276.117238 384.774498 
L 276.752123 383.867489 
L 277.387007 383.464404 
L 278.021892 382.339934 
L 278.656776 381.778897 
L 279.291661 381.591748 
L 279.926545 380.326196 
L 280.56143 379.877263 
L 281.831199 378.305166 
L 282.466083 378.247209 
L 283.100968 376.971535 
L 283.735852 376.16044 
L 284.370737 375.886329 
L 285.005621 374.865039 
L 285.640506 374.262235 
L 286.27539 373.995225 
L 286.910275 373.035484 
L 287.545159 372.409932 
L 288.180044 370.880201 
L 289.449813 370.310864 
L 291.989351 367.331534 
L 293.25912 364.936941 
L 293.894005 364.586317 
L 294.528889 364.688163 
L 295.163774 363.524946 
L 295.798658 362.816813 
L 297.068427 361.041187 
L 298.338196 359.917942 
L 300.24285 356.925497 
L 300.877734 356.545813 
L 301.512619 356.032936 
L 302.147503 355.299797 
L 302.782388 353.892292 
L 304.052157 353.169683 
L 304.687041 352.563831 
L 305.321926 351.666536 
L 305.95681 350.529631 
L 307.226579 349.182232 
L 307.861464 348.273373 
L 308.496348 347.0836 
L 309.131233 346.848753 
L 309.766117 345.878725 
L 310.401002 345.151899 
L 311.035886 343.826431 
L 311.670771 342.884838 
L 312.305656 343.179873 
L 312.94054 341.647829 
L 313.575425 340.414466 
L 314.210309 340.649749 
L 314.845194 338.801582 
L 315.480078 338.754292 
L 316.114963 337.511188 
L 316.749847 336.671114 
L 317.384732 336.66608 
L 318.019616 335.204183 
L 318.654501 334.785561 
L 319.289385 333.724028 
L 319.92427 333.28957 
L 321.194039 330.608377 
L 322.463808 329.558081 
L 323.098692 328.579646 
L 323.733577 328.540546 
L 324.368461 327.582491 
L 325.63823 325.323838 
L 326.273115 325.206619 
L 326.907999 324.112379 
L 327.542884 322.759566 
L 328.177768 322.38516 
L 328.812653 322.786313 
L 329.447537 320.440589 
L 330.082422 320.225904 
L 330.717306 319.26989 
L 331.352191 318.670514 
L 331.987075 317.703725 
L 332.62196 316.29573 
L 333.256844 315.773928 
L 333.891729 314.383729 
L 334.526614 314.718218 
L 335.161498 314.096394 
L 335.796383 312.258213 
L 336.431267 312.358399 
L 337.066152 311.516911 
L 337.701036 310.903603 
L 338.335921 309.379668 
L 338.970805 309.344431 
L 339.60569 308.48425 
L 340.875459 306.34649 
L 341.510343 305.635608 
L 342.145228 304.460148 
L 342.780112 304.053362 
L 343.414997 303.040915 
L 344.684766 301.556025 
L 345.31965 301.451513 
L 345.954535 300.177226 
L 346.589419 299.418973 
L 347.224304 299.319331 
L 347.859188 297.644435 
L 348.494073 297.14111 
L 349.763842 295.403142 
L 350.398726 295.290222 
L 351.033611 293.817957 
L 351.668495 293.314795 
L 352.30338 291.936976 
L 353.573149 290.824478 
L 354.208033 289.396512 
L 354.842918 289.651603 
L 356.112687 287.067766 
L 356.747572 286.924398 
L 357.382456 285.389443 
L 358.652225 284.232267 
L 359.921994 282.230392 
L 360.556879 282.04036 
L 361.191763 281.054143 
L 361.826648 281.456656 
L 362.461532 279.84467 
L 363.731301 278.740499 
L 364.366186 277.136893 
L 365.00107 276.748039 
L 365.635955 275.266523 
L 366.270839 274.913531 
L 366.905724 273.701773 
L 367.540608 273.874609 
L 368.175493 272.702278 
L 368.810377 272.970511 
L 369.445262 271.13984 
L 370.080146 270.239524 
L 370.715031 269.561322 
L 371.349915 268.460851 
L 371.9848 268.772348 
L 372.619684 267.023443 
L 373.254569 266.656193 
L 373.889453 265.055172 
L 374.524338 265.619284 
L 375.159222 263.607886 
L 375.794107 263.128859 
L 376.428991 262.399202 
L 377.063876 262.275561 
L 377.698761 260.998636 
L 379.603414 258.848876 
L 380.238299 257.684844 
L 380.873183 257.77752 
L 381.508068 255.685581 
L 382.142952 255.781169 
L 382.777837 254.790136 
L 383.412721 254.596702 
L 384.68249 252.037844 
L 385.317375 252.553414 
L 385.952259 251.019873 
L 386.587144 250.58264 
L 387.222028 249.317387 
L 387.856913 249.199215 
L 388.491797 248.133873 
L 389.126682 247.524184 
L 389.761566 246.175588 
L 391.031335 245.636046 
L 392.301104 243.450887 
L 392.935989 243.124696 
L 393.570873 241.394076 
L 394.205758 241.485337 
L 394.840642 240.693262 
L 395.475527 239.384691 
L 396.110411 239.402704 
L 396.745296 238.049509 
L 397.38018 237.529749 
L 398.015065 237.843232 
L 398.64995 234.74456 
L 399.284834 235.476121 
L 399.919719 234.107036 
L 400.554603 234.281587 
L 401.189488 233.080712 
L 401.824372 232.585305 
L 402.459257 230.779911 
L 403.094141 231.870124 
L 403.729026 230.666229 
L 404.36391 228.794308 
L 404.998795 229.168061 
L 405.633679 228.180429 
L 406.268564 227.467942 
L 406.903448 226.523928 
L 407.538333 225.815795 
L 408.173217 224.580826 
L 408.808102 224.960402 
L 409.442986 224.693475 
L 410.077871 221.983847 
L 410.712755 222.611903 
L 411.34764 220.994474 
L 411.982524 221.704676 
L 412.617409 219.949103 
L 413.252293 219.959171 
L 413.887178 218.514497 
L 414.522062 218.525028 
L 415.156947 217.163235 
L 416.426716 215.986931 
L 417.0616 215.639952 
L 417.696485 214.848203 
L 418.331369 214.285642 
L 419.601138 212.309181 
L 420.236023 212.434237 
L 420.870908 211.112361 
L 422.140677 209.464675 
L 422.775561 208.104651 
L 423.410446 208.670559 
L 424.04533 207.598006 
L 424.680215 205.895874 
L 425.315099 207.336411 
L 425.949984 205.104179 
L 426.584868 204.882257 
L 427.219753 203.569088 
L 427.854637 203.146874 
L 428.489522 202.887865 
L 429.124406 201.641713 
L 429.759291 200.756526 
L 430.394175 200.234426 
L 431.02906 198.787793 
L 431.663944 199.996014 
L 432.298829 198.019689 
L 432.933713 196.443266 
L 433.568598 197.51552 
L 434.203482 195.710861 
L 434.838367 194.963655 
L 435.473251 195.24865 
L 436.108136 193.932596 
L 436.74302 193.027437 
L 437.377905 193.066755 
L 438.012789 192.228505 
L 438.647674 192.130822 
L 439.282558 191.396241 
L 439.917443 190.25569 
L 440.552327 188.607869 
L 441.187212 188.829819 
L 441.822097 188.440774 
L 442.456981 186.737989 
L 443.091866 186.813006 
L 443.72675 185.176231 
L 444.361635 184.264352 
L 444.996519 183.129189 
L 445.631404 183.488275 
L 446.266288 182.378853 
L 446.901173 182.861608 
L 447.536057 180.835789 
L 448.805826 181.387711 
L 449.440711 179.910304 
L 450.075595 180.34332 
L 450.71048 178.14129 
L 451.345364 177.400043 
L 451.980249 177.135999 
L 452.615133 177.113034 
L 453.250018 175.706672 
L 453.884902 174.660186 
L 454.519787 174.269508 
L 455.154671 173.338282 
L 455.789556 171.579935 
L 456.42444 172.426157 
L 457.059325 171.099193 
L 457.694209 170.756895 
L 458.329094 171.189203 
L 458.963978 168.016548 
L 459.598863 169.633622 
L 460.233747 168.076191 
L 460.868632 167.156775 
L 461.503516 165.932173 
L 462.138401 166.148654 
L 462.773285 166.233494 
L 463.40817 165.602609 
L 464.043055 164.281359 
L 464.677939 163.602965 
L 465.312824 164.478139 
L 465.947708 161.579432 
L 466.582593 162.231377 
L 467.217477 161.406378 
L 467.852362 161.105166 
L 468.487246 160.635363 
L 469.122131 158.4674 
L 469.757015 159.224429 
L 470.3919 157.62798 
L 472.296553 154.732592 
L 472.931438 154.893728 
L 473.566322 154.64318 
L 474.201207 154.20173 
L 474.836091 152.719779 
L 475.470976 152.747478 
L 476.10586 151.17481 
L 476.740745 152.377698 
L 477.375629 149.66086 
L 478.010514 150.481343 
L 478.645398 148.15676 
L 479.280283 147.977884 
L 479.915167 147.043229 
L 480.550052 147.046168 
L 481.184936 147.819414 
L 481.819821 145.925399 
L 482.454705 146.815647 
L 483.08959 144.036934 
L 483.724474 143.701547 
L 484.359359 143.615891 
L 484.994244 142.917526 
L 485.629128 142.666761 
L 486.264013 141.24946 
L 486.898897 140.206457 
L 487.533782 140.089836 
L 488.168666 139.303257 
L 488.803551 137.899778 
L 489.438435 137.811891 
L 490.07332 136.692047 
L 490.708204 137.596009 
L 491.343089 136.095011 
L 491.977973 135.672281 
L 492.612858 135.024798 
L 493.247742 133.520916 
L 493.882627 133.719384 
L 494.517511 131.809042 
L 495.152396 131.799628 
L 495.78728 130.185002 
L 496.422165 130.629228 
L 497.057049 130.40921 
L 497.691934 129.171276 
L 498.326818 128.313517 
L 498.961703 127.693407 
L 499.596587 126.679517 
L 500.231472 127.043257 
L 500.866356 124.950284 
L 501.501241 124.698703 
L 502.136125 124.247947 
L 502.77101 124.513459 
L 503.405894 122.582112 
L 504.040779 122.258425 
L 504.675663 122.316872 
L 505.310548 122.052665 
L 505.945433 120.150215 
L 506.580317 120.203492 
L 507.215202 118.493414 
L 507.850086 118.89737 
L 508.484971 118.833862 
L 509.119855 117.676143 
L 509.75474 117.273874 
L 511.659393 114.017032 
L 512.294278 113.389031 
L 512.929162 113.215596 
L 513.564047 113.275131 
L 514.198931 112.55576 
L 514.833816 112.207367 
L 515.4687 110.176595 
L 516.103585 109.394206 
L 516.738469 111.085128 
L 517.373354 109.692262 
L 518.008238 108.024958 
L 518.643123 108.880051 
L 519.912892 105.868478 
L 520.547776 105.735803 
L 521.182661 105.205268 
L 521.817545 103.860399 
L 522.45243 103.710038 
L 523.087314 103.83085 
L 523.722199 103.538018 
L 524.357083 102.416923 
L 524.991968 100.361118 
L 525.626852 100.358289 
L 526.261737 99.810121 
L 526.896621 98.110982 
L 527.531506 99.458082 
L 528.166391 97.347314 
L 528.801275 97.780819 
L 529.43616 95.363887 
L 530.071044 94.939415 
L 530.705929 93.613267 
L 531.340813 94.932178 
L 532.610582 92.854769 
L 533.245467 92.627023 
L 534.515236 90.863397 
L 535.15012 90.401648 
L 535.785005 88.516612 
L 536.419889 89.365392 
L 537.054774 86.574762 
L 537.689658 87.297942 
L 538.324543 86.959616 
L 538.959427 86.289114 
L 539.594312 86.669941 
L 540.229196 84.586655 
L 540.864081 83.898793 
L 541.498965 84.954585 
L 542.13385 83.949349 
L 542.768734 81.541777 
L 543.403619 81.705035 
L 544.673388 81.324807 
L 545.308272 79.605206 
L 545.943157 79.007462 
L 546.578041 78.626145 
L 547.212926 78.078032 
L 547.84781 79.158095 
L 548.482695 76.422918 
L 549.11758 75.55052 
L 549.752464 75.364024 
L 550.387349 74.889704 
L 551.022233 74.894166 
L 551.657118 72.643159 
L 552.292002 70.801822 
L 552.926887 72.019403 
L 553.561771 70.247778 
L 554.196656 71.027663 
L 554.83154 71.00595 
L 555.466425 68.193551 
L 556.101309 66.848411 
L 556.736194 68.312131 
L 557.371078 68.804736 
L 558.005963 65.790605 
L 558.640847 67.155718 
L 559.275732 66.792577 
L 559.910616 66.057152 
L 560.545501 63.808267 
L 561.180385 62.887925 
L 561.81527 62.601407 
L 562.450154 62.54394 
L 563.085039 61.293979 
L 563.719923 61.064111 
L 564.354808 60.672889 
L 564.989692 60.563561 
L 565.624577 59.363775 
L 566.259461 58.695068 
L 566.894346 58.450888 
L 567.52923 57.940052 
L 568.164115 57.039138 
L 568.798999 56.815855 
L 569.433884 54.336994 
L 570.068768 55.908791 
L 570.703653 52.651514 
L 571.338538 53.332573 
L 571.973422 51.811712 
L 572.608307 52.248538 
L 573.243191 51.227574 
L 574.51296 48.529511 
L 575.147845 47.518125 
L 575.782729 48.520804 
L 576.417614 47.997506 
L 576.417614 47.997506 
" clip-path="url(#pd43b288006)" style="fill: none; stroke: #ff7f0e; stroke-width: 1.5; stroke-linecap: square"/>
   </g>
   <g id="patch_3">
    <path d="M 43.78125 576.718125 
L 43.78125 22.318125 
" style="fill: none; stroke: #000000; stroke-width: 0.8; stroke-linejoin: miter; stroke-linecap: square"/>
   </g>
   <g id="patch_4">
    <path d="M 601.78125 576.718125 
L 601.78125 22.318125 
" style="fill: none; stroke: #000000; stroke-width: 0.8; stroke-linejoin: miter; stroke-linecap: square"/>
   </g>
   <g id="patch_5">
    <path d="M 43.78125 576.718125 
L 601.78125 576.718125 
" style="fill: none; stroke: #000000; stroke-width: 0.8; stroke-linejoin: miter; stroke-linecap: square"/>
   </g>
   <g id="patch_6">
    <path d="M 43.78125 22.318125 
L 601.78125 22.318125 
" style="fill: none; stroke: #000000; stroke-width: 0.8; stroke-linejoin: miter; stroke-linecap: square"/>
   </g>
   <g id="text_17">
    <!-- Train and Val Loss -->
    <g transform="translate(269.235937 16.318125) scale(0.12 -0.12)">
     <defs>
      <path id="DejaVuSans-54" d="M -19 4666 
L 3928 4666 
L 3928 4134 
L 2272 4134 
L 2272 0 
L 1638 0 
L 1638 4134 
L -19 4134 
L -19 4666 
z
" transform="scale(0.015625)"/>
      <path id="DejaVuSans-72" d="M 2631 2963 
Q 2534 3019 2420 3045 
Q 2306 3072 2169 3072 
Q 1681 3072 1420 2755 
Q 1159 2438 1159 1844 
L 1159 0 
L 581 0 
L 581 3500 
L 1159 3500 
L 1159 2956 
Q 1341 3275 1631 3429 
Q 1922 3584 2338 3584 
Q 2397 3584 2469 3576 
Q 2541 3569 2628 3553 
L 2631 2963 
z
" transform="scale(0.015625)"/>
      <path id="DejaVuSans-61" d="M 2194 1759 
Q 1497 1759 1228 1600 
Q 959 1441 959 1056 
Q 959 750 1161 570 
Q 1363 391 1709 391 
Q 2188 391 2477 730 
Q 2766 1069 2766 1631 
L 2766 1759 
L 2194 1759 
z
M 3341 1997 
L 3341 0 
L 2766 0 
L 2766 531 
Q 2569 213 2275 61 
Q 1981 -91 1556 -91 
Q 1019 -91 701 211 
Q 384 513 384 1019 
Q 384 1609 779 1909 
Q 1175 2209 1959 2209 
L 2766 2209 
L 2766 2266 
Q 2766 2663 2505 2880 
Q 2244 3097 1772 3097 
Q 1472 3097 1187 3025 
Q 903 2953 641 2809 
L 641 3341 
Q 956 3463 1253 3523 
Q 1550 3584 1831 3584 
Q 2591 3584 2966 3190 
Q 3341 2797 3341 1997 
z
" transform="scale(0.015625)"/>
      <path id="DejaVuSans-69" d="M 603 3500 
L 1178 3500 
L 1178 0 
L 603 0 
L 603 3500 
z
M 603 4863 
L 1178 4863 
L 1178 4134 
L 603 4134 
L 603 4863 
z
" transform="scale(0.015625)"/>
      <path id="DejaVuSans-6e" d="M 3513 2113 
L 3513 0 
L 2938 0 
L 2938 2094 
Q 2938 2591 2744 2837 
Q 2550 3084 2163 3084 
Q 1697 3084 1428 2787 
Q 1159 2491 1159 1978 
L 1159 0 
L 581 0 
L 581 3500 
L 1159 3500 
L 1159 2956 
Q 1366 3272 1645 3428 
Q 1925 3584 2291 3584 
Q 2894 3584 3203 3211 
Q 3513 2838 3513 2113 
z
" transform="scale(0.015625)"/>
      <path id="DejaVuSans-20" transform="scale(0.015625)"/>
      <path id="DejaVuSans-64" d="M 2906 2969 
L 2906 4863 
L 3481 4863 
L 3481 0 
L 2906 0 
L 2906 525 
Q 2725 213 2448 61 
Q 2172 -91 1784 -91 
Q 1150 -91 751 415 
Q 353 922 353 1747 
Q 353 2572 751 3078 
Q 1150 3584 1784 3584 
Q 2172 3584 2448 3432 
Q 2725 3281 2906 2969 
z
M 947 1747 
Q 947 1113 1208 752 
Q 1469 391 1925 391 
Q 2381 391 2643 752 
Q 2906 1113 2906 1747 
Q 2906 2381 2643 2742 
Q 2381 3103 1925 3103 
Q 1469 3103 1208 2742 
Q 947 2381 947 1747 
z
" transform="scale(0.015625)"/>
      <path id="DejaVuSans-56" d="M 1831 0 
L 50 4666 
L 709 4666 
L 2188 738 
L 3669 4666 
L 4325 4666 
L 2547 0 
L 1831 0 
z
" transform="scale(0.015625)"/>
      <path id="DejaVuSans-6c" d="M 603 4863 
L 1178 4863 
L 1178 0 
L 603 0 
L 603 4863 
z
" transform="scale(0.015625)"/>
     </defs>
     <use xlink:href="#DejaVuSans-54"/>
     <use xlink:href="#DejaVuSans-72" transform="translate(46.333984 0)"/>
     <use xlink:href="#DejaVuSans-61" transform="translate(87.447266 0)"/>
     <use xlink:href="#DejaVuSans-69" transform="translate(148.726562 0)"/>
     <use xlink:href="#DejaVuSans-6e" transform="translate(176.509766 0)"/>
     <use xlink:href="#DejaVuSans-20" transform="translate(239.888672 0)"/>
     <use xlink:href="#DejaVuSans-61" transform="translate(271.675781 0)"/>
     <use xlink:href="#DejaVuSans-6e" transform="translate(332.955078 0)"/>
     <use xlink:href="#DejaVuSans-64" transform="translate(396.333984 0)"/>
     <use xlink:href="#DejaVuSans-20" transform="translate(459.810547 0)"/>
     <use xlink:href="#DejaVuSans-56" transform="translate(491.597656 0)"/>
     <use xlink:href="#DejaVuSans-61" transform="translate(552.255859 0)"/>
     <use xlink:href="#DejaVuSans-6c" transform="translate(613.535156 0)"/>
     <use xlink:href="#DejaVuSans-20" transform="translate(641.318359 0)"/>
     <use xlink:href="#DejaVuSans-4c" transform="translate(673.105469 0)"/>
     <use xlink:href="#DejaVuSans-6f" transform="translate(727.068359 0)"/>
     <use xlink:href="#DejaVuSans-73" transform="translate(788.25 0)"/>
     <use xlink:href="#DejaVuSans-73" transform="translate(840.349609 0)"/>
    </g>
   </g>
   <g id="legend_1">
    <g id="patch_7">
     <path d="M 50.78125 60.230625 
L 130.371875 60.230625 
Q 132.371875 60.230625 132.371875 58.230625 
L 132.371875 29.318125 
Q 132.371875 27.318125 130.371875 27.318125 
L 50.78125 27.318125 
Q 48.78125 27.318125 48.78125 29.318125 
L 48.78125 58.230625 
Q 48.78125 60.230625 50.78125 60.230625 
z
" style="fill: #ffffff; opacity: 0.8; stroke: #cccccc; stroke-linejoin: miter"/>
    </g>
    <g id="line2d_31">
     <path d="M 52.78125 35.416563 
L 62.78125 35.416563 
L 72.78125 35.416563 
" style="fill: none; stroke: #1f77b4; stroke-width: 1.5; stroke-linecap: square"/>
    </g>
    <g id="text_18">
     <!-- train_loss -->
     <g transform="translate(80.78125 38.916563) scale(0.1 -0.1)">
      <defs>
       <path id="DejaVuSans-74" d="M 1172 4494 
L 1172 3500 
L 2356 3500 
L 2356 3053 
L 1172 3053 
L 1172 1153 
Q 1172 725 1289 603 
Q 1406 481 1766 481 
L 2356 481 
L 2356 0 
L 1766 0 
Q 1100 0 847 248 
Q 594 497 594 1153 
L 594 3053 
L 172 3053 
L 172 3500 
L 594 3500 
L 594 4494 
L 1172 4494 
z
" transform="scale(0.015625)"/>
       <path id="DejaVuSans-5f" d="M 3263 -1063 
L 3263 -1509 
L -63 -1509 
L -63 -1063 
L 3263 -1063 
z
" transform="scale(0.015625)"/>
      </defs>
      <use xlink:href="#DejaVuSans-74"/>
      <use xlink:href="#DejaVuSans-72" transform="translate(39.208984 0)"/>
      <use xlink:href="#DejaVuSans-61" transform="translate(80.322266 0)"/>
      <use xlink:href="#DejaVuSans-69" transform="translate(141.601562 0)"/>
      <use xlink:href="#DejaVuSans-6e" transform="translate(169.384766 0)"/>
      <use xlink:href="#DejaVuSans-5f" transform="translate(232.763672 0)"/>
      <use xlink:href="#DejaVuSans-6c" transform="translate(282.763672 0)"/>
      <use xlink:href="#DejaVuSans-6f" transform="translate(310.546875 0)"/>
      <use xlink:href="#DejaVuSans-73" transform="translate(371.728516 0)"/>
      <use xlink:href="#DejaVuSans-73" transform="translate(423.828125 0)"/>
     </g>
    </g>
    <g id="line2d_32">
     <path d="M 52.78125 50.372813 
L 62.78125 50.372813 
L 72.78125 50.372813 
" style="fill: none; stroke: #ff7f0e; stroke-width: 1.5; stroke-linecap: square"/>
    </g>
    <g id="text_19">
     <!-- val_loss -->
     <g transform="translate(80.78125 53.872813) scale(0.1 -0.1)">
      <defs>
       <path id="DejaVuSans-76" d="M 191 3500 
L 800 3500 
L 1894 563 
L 2988 3500 
L 3597 3500 
L 2284 0 
L 1503 0 
L 191 3500 
z
" transform="scale(0.015625)"/>
      </defs>
      <use xlink:href="#DejaVuSans-76"/>
      <use xlink:href="#DejaVuSans-61" transform="translate(59.179688 0)"/>
      <use xlink:href="#DejaVuSans-6c" transform="translate(120.458984 0)"/>
      <use xlink:href="#DejaVuSans-5f" transform="translate(148.242188 0)"/>
      <use xlink:href="#DejaVuSans-6c" transform="translate(198.242188 0)"/>
      <use xlink:href="#DejaVuSans-6f" transform="translate(226.025391 0)"/>
      <use xlink:href="#DejaVuSans-73" transform="translate(287.207031 0)"/>
      <use xlink:href="#DejaVuSans-73" transform="translate(339.306641 0)"/>
     </g>
    </g>
   </g>
  </g>
 </g>
 <defs>
  <clipPath id="pd43b288006">
   <rect x="43.78125" y="22.318125" width="558" height="554.4"/>
  </clipPath>
 </defs>
</svg>
