<?xml version="1.0" encoding="utf-8" standalone="no"?>
<!DOCTYPE svg PUBLIC "-//W3C//DTD SVG 1.1//EN"
  "http://www.w3.org/Graphics/SVG/1.1/DTD/svg11.dtd">
<svg xmlns:xlink="http://www.w3.org/1999/xlink" width="605.803125pt" height="614.274375pt" viewBox="0 0 605.803125 614.274375" xmlns="http://www.w3.org/2000/svg" version="1.1">
 <metadata>
  <rdf:RDF xmlns:dc="http://purl.org/dc/elements/1.1/" xmlns:cc="http://creativecommons.org/ns#" xmlns:rdf="http://www.w3.org/1999/02/22-rdf-syntax-ns#">
   <cc:Work>
    <dc:type rdf:resource="http://purl.org/dc/dcmitype/StillImage"/>
    <dc:date>2026-05-23T09:41:04.198354</dc:date>
    <dc:format>image/svg+xml</dc:format>
    <dc:creator>
     <cc:Agent>
      <dc:title>Matplotlib v3.10.9, https://matplotlib.org/</dc:title>
     </cc:Agent>
    </dc:creator>
   </cc:Work>
  </rdf:RDF>
 </metadata>
 <defs>
  <style type="text/css">*{stroke-linejoin: round; stroke-linecap: butt}</style>
 </defs>
 <g id="figure_1">
  <g id="patch_1">
   <path d="M 0 614.274375 
L 605.803125 614.274375 
L 605.803125 0 
L 0 0 
z
" style="fill: #ffffff"/>
  </g>
  <g id="axes_1">
   <g id="patch_2">
    <path d="M 40.603125 576.718125 
L 598.603125 576.718125 
L 598.603125 22.318125 
L 40.603125 22.318125 
z
" style="fill: #ffffff"/>
   </g>
   <g id="matplotlib.axis_1">
    <g id="xtick_1">
     <g id="line2d_1">
      <path d="M 65.966761 576.718125 
L 65.966761 22.318125 
" clip-path="url(#p132433fbf3)" style="fill: none; stroke: #b0b0b0; stroke-width: 0.8; stroke-linecap: square"/>
     </g>
     <g id="line2d_2">
      <defs>
       <path id="m2622f0579b" d="M 0 0 
L 0 3.5 
" style="stroke: #000000; stroke-width: 0.8"/>
      </defs>
      <g>
       <use xlink:href="#m2622f0579b" x="65.966761" y="576.718125" style="stroke: #000000; stroke-width: 0.8"/>
      </g>
     </g>
     <g id="text_1">
      <!-- 0 -->
      <g transform="translate(62.785511 591.316563) scale(0.1 -0.1)">
       <defs>
        <path id="DejaVuSans-30" d="M 2034 4250 
Q 1547 4250 1301 3770 
Q 1056 3291 1056 2328 
Q 1056 1369 1301 889 
Q 1547 409 2034 409 
Q 2525 409 2770 889 
Q 3016 1369 3016 2328 
Q 3016 3291 2770 3770 
Q 2525 4250 2034 4250 
z
M 2034 4750 
Q 2819 4750 3233 4129 
Q 3647 3509 3647 2328 
Q 3647 1150 3233 529 
Q 2819 -91 2034 -91 
Q 1250 -91 836 529 
Q 422 1150 422 2328 
Q 422 3509 836 4129 
Q 1250 4750 2034 4750 
z
" transform="scale(0.015625)"/>
       </defs>
       <use xlink:href="#DejaVuSans-30"/>
      </g>
     </g>
    </g>
    <g id="xtick_2">
     <g id="line2d_3">
      <path d="M 129.455213 576.718125 
L 129.455213 22.318125 
" clip-path="url(#p132433fbf3)" style="fill: none; stroke: #b0b0b0; stroke-width: 0.8; stroke-linecap: square"/>
     </g>
     <g id="line2d_4">
      <g>
       <use xlink:href="#m2622f0579b" x="129.455213" y="576.718125" style="stroke: #000000; stroke-width: 0.8"/>
      </g>
     </g>
     <g id="text_2">
      <!-- 100 -->
      <g transform="translate(119.911463 591.316563) scale(0.1 -0.1)">
       <defs>
        <path id="DejaVuSans-31" d="M 794 531 
L 1825 531 
L 1825 4091 
L 703 3866 
L 703 4441 
L 1819 4666 
L 2450 4666 
L 2450 531 
L 3481 531 
L 3481 0 
L 794 0 
L 794 531 
z
" transform="scale(0.015625)"/>
       </defs>
       <use xlink:href="#DejaVuSans-31"/>
       <use xlink:href="#DejaVuSans-30" transform="translate(63.623047 0)"/>
       <use xlink:href="#DejaVuSans-30" transform="translate(127.246094 0)"/>
      </g>
     </g>
    </g>
    <g id="xtick_3">
     <g id="line2d_5">
      <path d="M 192.943664 576.718125 
L 192.943664 22.318125 
" clip-path="url(#p132433fbf3)" style="fill: none; stroke: #b0b0b0; stroke-width: 0.8; stroke-linecap: square"/>
     </g>
     <g id="line2d_6">
      <g>
       <use xlink:href="#m2622f0579b" x="192.943664" y="576.718125" style="stroke: #000000; stroke-width: 0.8"/>
      </g>
     </g>
     <g id="text_3">
      <!-- 200 -->
      <g transform="translate(183.399914 591.316563) scale(0.1 -0.1)">
       <defs>
        <path id="DejaVuSans-32" d="M 1228 531 
L 3431 531 
L 3431 0 
L 469 0 
L 469 531 
Q 828 903 1448 1529 
Q 2069 2156 2228 2338 
Q 2531 2678 2651 2914 
Q 2772 3150 2772 3378 
Q 2772 3750 2511 3984 
Q 2250 4219 1831 4219 
Q 1534 4219 1204 4116 
Q 875 4013 500 3803 
L 500 4441 
Q 881 4594 1212 4672 
Q 1544 4750 1819 4750 
Q 2544 4750 2975 4387 
Q 3406 4025 3406 3419 
Q 3406 3131 3298 2873 
Q 3191 2616 2906 2266 
Q 2828 2175 2409 1742 
Q 1991 1309 1228 531 
z
" transform="scale(0.015625)"/>
       </defs>
       <use xlink:href="#DejaVuSans-32"/>
       <use xlink:href="#DejaVuSans-30" transform="translate(63.623047 0)"/>
       <use xlink:href="#DejaVuSans-30" transform="translate(127.246094 0)"/>
      </g>
     </g>
    </g>
    <g id="xtick_4">
     <g id="line2d_7">
      <path d="M 256.432116 576.718125 
L 256.432116 22.318125 
" clip-path="url(#p132433fbf3)" style="fill: none; stroke: #b0b0b0; stroke-width: 0.8; stroke-linecap: square"/>
     </g>
     <g id="line2d_8">
      <g>
       <use xlink:href="#m2622f0579b" x="256.432116" y="576.718125" style="stroke: #000000; stroke-width: 0.8"/>
      </g>
     </g>
     <g id="text_4">
      <!-- 300 -->
      <g transform="translate(246.888366 591.316563) scale(0.1 -0.1)">
       <defs>
        <path id="DejaVuSans-33" d="M 2597 2516 
Q 3050 2419 3304 2112 
Q 3559 1806 3559 1356 
Q 3559 666 3084 287 
Q 2609 -91 1734 -91 
Q 1441 -91 1130 -33 
Q 819 25 488 141 
L 488 750 
Q 750 597 1062 519 
Q 1375 441 1716 441 
Q 2309 441 2620 675 
Q 2931 909 2931 1356 
Q 2931 1769 2642 2001 
Q 2353 2234 1838 2234 
L 1294 2234 
L 1294 2753 
L 1863 2753 
Q 2328 2753 2575 2939 
Q 2822 3125 2822 3475 
Q 2822 3834 2567 4026 
Q 2313 4219 1838 4219 
Q 1578 4219 1281 4162 
Q 984 4106 628 3988 
L 628 4550 
Q 988 4650 1302 4700 
Q 1616 4750 1894 4750 
Q 2613 4750 3031 4423 
Q 3450 4097 3450 3541 
Q 3450 3153 3228 2886 
Q 3006 2619 2597 2516 
z
" transform="scale(0.015625)"/>
       </defs>
       <use xlink:href="#DejaVuSans-33"/>
       <use xlink:href="#DejaVuSans-30" transform="translate(63.623047 0)"/>
       <use xlink:href="#DejaVuSans-30" transform="translate(127.246094 0)"/>
      </g>
     </g>
    </g>
    <g id="xtick_5">
     <g id="line2d_9">
      <path d="M 319.920567 576.718125 
L 319.920567 22.318125 
" clip-path="url(#p132433fbf3)" style="fill: none; stroke: #b0b0b0; stroke-width: 0.8; stroke-linecap: square"/>
     </g>
     <g id="line2d_10">
      <g>
       <use xlink:href="#m2622f0579b" x="319.920567" y="576.718125" style="stroke: #000000; stroke-width: 0.8"/>
      </g>
     </g>
     <g id="text_5">
      <!-- 400 -->
      <g transform="translate(310.376817 591.316563) scale(0.1 -0.1)">
       <defs>
        <path id="DejaVuSans-34" d="M 2419 4116 
L 825 1625 
L 2419 1625 
L 2419 4116 
z
M 2253 4666 
L 3047 4666 
L 3047 1625 
L 3713 1625 
L 3713 1100 
L 3047 1100 
L 3047 0 
L 2419 0 
L 2419 1100 
L 313 1100 
L 313 1709 
L 2253 4666 
z
" transform="scale(0.015625)"/>
       </defs>
       <use xlink:href="#DejaVuSans-34"/>
       <use xlink:href="#DejaVuSans-30" transform="translate(63.623047 0)"/>
       <use xlink:href="#DejaVuSans-30" transform="translate(127.246094 0)"/>
      </g>
     </g>
    </g>
    <g id="xtick_6">
     <g id="line2d_11">
      <path d="M 383.409019 576.718125 
L 383.409019 22.318125 
" clip-path="url(#p132433fbf3)" style="fill: none; stroke: #b0b0b0; stroke-width: 0.8; stroke-linecap: square"/>
     </g>
     <g id="line2d_12">
      <g>
       <use xlink:href="#m2622f0579b" x="383.409019" y="576.718125" style="stroke: #000000; stroke-width: 0.8"/>
      </g>
     </g>
     <g id="text_6">
      <!-- 500 -->
      <g transform="translate(373.865269 591.316563) scale(0.1 -0.1)">
       <defs>
        <path id="DejaVuSans-35" d="M 691 4666 
L 3169 4666 
L 3169 4134 
L 1269 4134 
L 1269 2991 
Q 1406 3038 1543 3061 
Q 1681 3084 1819 3084 
Q 2600 3084 3056 2656 
Q 3513 2228 3513 1497 
Q 3513 744 3044 326 
Q 2575 -91 1722 -91 
Q 1428 -91 1123 -41 
Q 819 9 494 109 
L 494 744 
Q 775 591 1075 516 
Q 1375 441 1709 441 
Q 2250 441 2565 725 
Q 2881 1009 2881 1497 
Q 2881 1984 2565 2268 
Q 2250 2553 1709 2553 
Q 1456 2553 1204 2497 
Q 953 2441 691 2322 
L 691 4666 
z
" transform="scale(0.015625)"/>
       </defs>
       <use xlink:href="#DejaVuSans-35"/>
       <use xlink:href="#DejaVuSans-30" transform="translate(63.623047 0)"/>
       <use xlink:href="#DejaVuSans-30" transform="translate(127.246094 0)"/>
      </g>
     </g>
    </g>
    <g id="xtick_7">
     <g id="line2d_13">
      <path d="M 446.89747 576.718125 
L 446.89747 22.318125 
" clip-path="url(#p132433fbf3)" style="fill: none; stroke: #b0b0b0; stroke-width: 0.8; stroke-linecap: square"/>
     </g>
     <g id="line2d_14">
      <g>
       <use xlink:href="#m2622f0579b" x="446.89747" y="576.718125" style="stroke: #000000; stroke-width: 0.8"/>
      </g>
     </g>
     <g id="text_7">
      <!-- 600 -->
      <g transform="translate(437.35372 591.316563) scale(0.1 -0.1)">
       <defs>
        <path id="DejaVuSans-36" d="M 2113 2584 
Q 1688 2584 1439 2293 
Q 1191 2003 1191 1497 
Q 1191 994 1439 701 
Q 1688 409 2113 409 
Q 2538 409 2786 701 
Q 3034 994 3034 1497 
Q 3034 2003 2786 2293 
Q 2538 2584 2113 2584 
z
M 3366 4563 
L 3366 3988 
Q 3128 4100 2886 4159 
Q 2644 4219 2406 4219 
Q 1781 4219 1451 3797 
Q 1122 3375 1075 2522 
Q 1259 2794 1537 2939 
Q 1816 3084 2150 3084 
Q 2853 3084 3261 2657 
Q 3669 2231 3669 1497 
Q 3669 778 3244 343 
Q 2819 -91 2113 -91 
Q 1303 -91 875 529 
Q 447 1150 447 2328 
Q 447 3434 972 4092 
Q 1497 4750 2381 4750 
Q 2619 4750 2861 4703 
Q 3103 4656 3366 4563 
z
" transform="scale(0.015625)"/>
       </defs>
       <use xlink:href="#DejaVuSans-36"/>
       <use xlink:href="#DejaVuSans-30" transform="translate(63.623047 0)"/>
       <use xlink:href="#DejaVuSans-30" transform="translate(127.246094 0)"/>
      </g>
     </g>
    </g>
    <g id="xtick_8">
     <g id="line2d_15">
      <path d="M 510.385922 576.718125 
L 510.385922 22.318125 
" clip-path="url(#p132433fbf3)" style="fill: none; stroke: #b0b0b0; stroke-width: 0.8; stroke-linecap: square"/>
     </g>
     <g id="line2d_16">
      <g>
       <use xlink:href="#m2622f0579b" x="510.385922" y="576.718125" style="stroke: #000000; stroke-width: 0.8"/>
      </g>
     </g>
     <g id="text_8">
      <!-- 700 -->
      <g transform="translate(500.842172 591.316563) scale(0.1 -0.1)">
       <defs>
        <path id="DejaVuSans-37" d="M 525 4666 
L 3525 4666 
L 3525 4397 
L 1831 0 
L 1172 0 
L 2766 4134 
L 525 4134 
L 525 4666 
z
" transform="scale(0.015625)"/>
       </defs>
       <use xlink:href="#DejaVuSans-37"/>
       <use xlink:href="#DejaVuSans-30" transform="translate(63.623047 0)"/>
       <use xlink:href="#DejaVuSans-30" transform="translate(127.246094 0)"/>
      </g>
     </g>
    </g>
    <g id="xtick_9">
     <g id="line2d_17">
      <path d="M 573.874373 576.718125 
L 573.874373 22.318125 
" clip-path="url(#p132433fbf3)" style="fill: none; stroke: #b0b0b0; stroke-width: 0.8; stroke-linecap: square"/>
     </g>
     <g id="line2d_18">
      <g>
       <use xlink:href="#m2622f0579b" x="573.874373" y="576.718125" style="stroke: #000000; stroke-width: 0.8"/>
      </g>
     </g>
     <g id="text_9">
      <!-- 800 -->
      <g transform="translate(564.330623 591.316563) scale(0.1 -0.1)">
       <defs>
        <path id="DejaVuSans-38" d="M 2034 2216 
Q 1584 2216 1326 1975 
Q 1069 1734 1069 1313 
Q 1069 891 1326 650 
Q 1584 409 2034 409 
Q 2484 409 2743 651 
Q 3003 894 3003 1313 
Q 3003 1734 2745 1975 
Q 2488 2216 2034 2216 
z
M 1403 2484 
Q 997 2584 770 2862 
Q 544 3141 544 3541 
Q 544 4100 942 4425 
Q 1341 4750 2034 4750 
Q 2731 4750 3128 4425 
Q 3525 4100 3525 3541 
Q 3525 3141 3298 2862 
Q 3072 2584 2669 2484 
Q 3125 2378 3379 2068 
Q 3634 1759 3634 1313 
Q 3634 634 3220 271 
Q 2806 -91 2034 -91 
Q 1263 -91 848 271 
Q 434 634 434 1313 
Q 434 1759 690 2068 
Q 947 2378 1403 2484 
z
M 1172 3481 
Q 1172 3119 1398 2916 
Q 1625 2713 2034 2713 
Q 2441 2713 2670 2916 
Q 2900 3119 2900 3481 
Q 2900 3844 2670 4047 
Q 2441 4250 2034 4250 
Q 1625 4250 1398 4047 
Q 1172 3844 1172 3481 
z
" transform="scale(0.015625)"/>
       </defs>
       <use xlink:href="#DejaVuSans-38"/>
       <use xlink:href="#DejaVuSans-30" transform="translate(63.623047 0)"/>
       <use xlink:href="#DejaVuSans-30" transform="translate(127.246094 0)"/>
      </g>
     </g>
    </g>
    <g id="text_10">
     <!-- Epochs -->
     <g transform="translate(301.6875 604.994688) scale(0.1 -0.1)">
      <defs>
       <path id="DejaVuSans-45" d="M 628 4666 
L 3578 4666 
L 3578 4134 
L 1259 4134 
L 1259 2753 
L 3481 2753 
L 3481 2222 
L 1259 2222 
L 1259 531 
L 3634 531 
L 3634 0 
L 628 0 
L 628 4666 
z
" transform="scale(0.015625)"/>
       <path id="DejaVuSans-70" d="M 1159 525 
L 1159 -1331 
L 581 -1331 
L 581 3500 
L 1159 3500 
L 1159 2969 
Q 1341 3281 1617 3432 
Q 1894 3584 2278 3584 
Q 2916 3584 3314 3078 
Q 3713 2572 3713 1747 
Q 3713 922 3314 415 
Q 2916 -91 2278 -91 
Q 1894 -91 1617 61 
Q 1341 213 1159 525 
z
M 3116 1747 
Q 3116 2381 2855 2742 
Q 2594 3103 2138 3103 
Q 1681 3103 1420 2742 
Q 1159 2381 1159 1747 
Q 1159 1113 1420 752 
Q 1681 391 2138 391 
Q 2594 391 2855 752 
Q 3116 1113 3116 1747 
z
" transform="scale(0.015625)"/>
       <path id="DejaVuSans-6f" d="M 1959 3097 
Q 1497 3097 1228 2736 
Q 959 2375 959 1747 
Q 959 1119 1226 758 
Q 1494 397 1959 397 
Q 2419 397 2687 759 
Q 2956 1122 2956 1747 
Q 2956 2369 2687 2733 
Q 2419 3097 1959 3097 
z
M 1959 3584 
Q 2709 3584 3137 3096 
Q 3566 2609 3566 1747 
Q 3566 888 3137 398 
Q 2709 -91 1959 -91 
Q 1206 -91 779 398 
Q 353 888 353 1747 
Q 353 2609 779 3096 
Q 1206 3584 1959 3584 
z
" transform="scale(0.015625)"/>
       <path id="DejaVuSans-63" d="M 3122 3366 
L 3122 2828 
Q 2878 2963 2633 3030 
Q 2388 3097 2138 3097 
Q 1578 3097 1268 2742 
Q 959 2388 959 1747 
Q 959 1106 1268 751 
Q 1578 397 2138 397 
Q 2388 397 2633 464 
Q 2878 531 3122 666 
L 3122 134 
Q 2881 22 2623 -34 
Q 2366 -91 2075 -91 
Q 1284 -91 818 406 
Q 353 903 353 1747 
Q 353 2603 823 3093 
Q 1294 3584 2113 3584 
Q 2378 3584 2631 3529 
Q 2884 3475 3122 3366 
z
" transform="scale(0.015625)"/>
       <path id="DejaVuSans-68" d="M 3513 2113 
L 3513 0 
L 2938 0 
L 2938 2094 
Q 2938 2591 2744 2837 
Q 2550 3084 2163 3084 
Q 1697 3084 1428 2787 
Q 1159 2491 1159 1978 
L 1159 0 
L 581 0 
L 581 4863 
L 1159 4863 
L 1159 2956 
Q 1366 3272 1645 3428 
Q 1925 3584 2291 3584 
Q 2894 3584 3203 3211 
Q 3513 2838 3513 2113 
z
" transform="scale(0.015625)"/>
       <path id="DejaVuSans-73" d="M 2834 3397 
L 2834 2853 
Q 2591 2978 2328 3040 
Q 2066 3103 1784 3103 
Q 1356 3103 1142 2972 
Q 928 2841 928 2578 
Q 928 2378 1081 2264 
Q 1234 2150 1697 2047 
L 1894 2003 
Q 2506 1872 2764 1633 
Q 3022 1394 3022 966 
Q 3022 478 2636 193 
Q 2250 -91 1575 -91 
Q 1294 -91 989 -36 
Q 684 19 347 128 
L 347 722 
Q 666 556 975 473 
Q 1284 391 1588 391 
Q 1994 391 2212 530 
Q 2431 669 2431 922 
Q 2431 1156 2273 1281 
Q 2116 1406 1581 1522 
L 1381 1569 
Q 847 1681 609 1914 
Q 372 2147 372 2553 
Q 372 3047 722 3315 
Q 1072 3584 1716 3584 
Q 2034 3584 2315 3537 
Q 2597 3491 2834 3397 
z
" transform="scale(0.015625)"/>
      </defs>
      <use xlink:href="#DejaVuSans-45"/>
      <use xlink:href="#DejaVuSans-70" transform="translate(63.183594 0)"/>
      <use xlink:href="#DejaVuSans-6f" transform="translate(126.660156 0)"/>
      <use xlink:href="#DejaVuSans-63" transform="translate(187.841797 0)"/>
      <use xlink:href="#DejaVuSans-68" transform="translate(242.822266 0)"/>
      <use xlink:href="#DejaVuSans-73" transform="translate(306.201172 0)"/>
     </g>
    </g>
   </g>
   <g id="matplotlib.axis_2">
    <g id="ytick_1">
     <g id="line2d_19">
      <path d="M 40.603125 535.661879 
L 598.603125 535.661879 
" clip-path="url(#p132433fbf3)" style="fill: none; stroke: #b0b0b0; stroke-width: 0.8; stroke-linecap: square"/>
     </g>
     <g id="line2d_20">
      <defs>
       <path id="me4ed8592ad" d="M 0 0 
L -3.5 0 
" style="stroke: #000000; stroke-width: 0.8"/>
      </defs>
      <g>
       <use xlink:href="#me4ed8592ad" x="40.603125" y="535.661879" style="stroke: #000000; stroke-width: 0.8"/>
      </g>
     </g>
     <g id="text_11">
      <!-- 3 -->
      <g transform="translate(27.240625 539.461098) scale(0.1 -0.1)">
       <use xlink:href="#DejaVuSans-33"/>
      </g>
     </g>
    </g>
    <g id="ytick_2">
     <g id="line2d_21">
      <path d="M 40.603125 471.325763 
L 598.603125 471.325763 
" clip-path="url(#p132433fbf3)" style="fill: none; stroke: #b0b0b0; stroke-width: 0.8; stroke-linecap: square"/>
     </g>
     <g id="line2d_22">
      <g>
       <use xlink:href="#me4ed8592ad" x="40.603125" y="471.325763" style="stroke: #000000; stroke-width: 0.8"/>
      </g>
     </g>
     <g id="text_12">
      <!-- 4 -->
      <g transform="translate(27.240625 475.124981) scale(0.1 -0.1)">
       <use xlink:href="#DejaVuSans-34"/>
      </g>
     </g>
    </g>
    <g id="ytick_3">
     <g id="line2d_23">
      <path d="M 40.603125 406.989646 
L 598.603125 406.989646 
" clip-path="url(#p132433fbf3)" style="fill: none; stroke: #b0b0b0; stroke-width: 0.8; stroke-linecap: square"/>
     </g>
     <g id="line2d_24">
      <g>
       <use xlink:href="#me4ed8592ad" x="40.603125" y="406.989646" style="stroke: #000000; stroke-width: 0.8"/>
      </g>
     </g>
     <g id="text_13">
      <!-- 5 -->
      <g transform="translate(27.240625 410.788865) scale(0.1 -0.1)">
       <use xlink:href="#DejaVuSans-35"/>
      </g>
     </g>
    </g>
    <g id="ytick_4">
     <g id="line2d_25">
      <path d="M 40.603125 342.65353 
L 598.603125 342.65353 
" clip-path="url(#p132433fbf3)" style="fill: none; stroke: #b0b0b0; stroke-width: 0.8; stroke-linecap: square"/>
     </g>
     <g id="line2d_26">
      <g>
       <use xlink:href="#me4ed8592ad" x="40.603125" y="342.65353" style="stroke: #000000; stroke-width: 0.8"/>
      </g>
     </g>
     <g id="text_14">
      <!-- 6 -->
      <g transform="translate(27.240625 346.452749) scale(0.1 -0.1)">
       <use xlink:href="#DejaVuSans-36"/>
      </g>
     </g>
    </g>
    <g id="ytick_5">
     <g id="line2d_27">
      <path d="M 40.603125 278.317414 
L 598.603125 278.317414 
" clip-path="url(#p132433fbf3)" style="fill: none; stroke: #b0b0b0; stroke-width: 0.8; stroke-linecap: square"/>
     </g>
     <g id="line2d_28">
      <g>
       <use xlink:href="#me4ed8592ad" x="40.603125" y="278.317414" style="stroke: #000000; stroke-width: 0.8"/>
      </g>
     </g>
     <g id="text_15">
      <!-- 7 -->
      <g transform="translate(27.240625 282.116633) scale(0.1 -0.1)">
       <use xlink:href="#DejaVuSans-37"/>
      </g>
     </g>
    </g>
    <g id="ytick_6">
     <g id="line2d_29">
      <path d="M 40.603125 213.981298 
L 598.603125 213.981298 
" clip-path="url(#p132433fbf3)" style="fill: none; stroke: #b0b0b0; stroke-width: 0.8; stroke-linecap: square"/>
     </g>
     <g id="line2d_30">
      <g>
       <use xlink:href="#me4ed8592ad" x="40.603125" y="213.981298" style="stroke: #000000; stroke-width: 0.8"/>
      </g>
     </g>
     <g id="text_16">
      <!-- 8 -->
      <g transform="translate(27.240625 217.780516) scale(0.1 -0.1)">
       <use xlink:href="#DejaVuSans-38"/>
      </g>
     </g>
    </g>
    <g id="ytick_7">
     <g id="line2d_31">
      <path d="M 40.603125 149.645181 
L 598.603125 149.645181 
" clip-path="url(#p132433fbf3)" style="fill: none; stroke: #b0b0b0; stroke-width: 0.8; stroke-linecap: square"/>
     </g>
     <g id="line2d_32">
      <g>
       <use xlink:href="#me4ed8592ad" x="40.603125" y="149.645181" style="stroke: #000000; stroke-width: 0.8"/>
      </g>
     </g>
     <g id="text_17">
      <!-- 9 -->
      <g transform="translate(27.240625 153.4444) scale(0.1 -0.1)">
       <defs>
        <path id="DejaVuSans-39" d="M 703 97 
L 703 672 
Q 941 559 1184 500 
Q 1428 441 1663 441 
Q 2288 441 2617 861 
Q 2947 1281 2994 2138 
Q 2813 1869 2534 1725 
Q 2256 1581 1919 1581 
Q 1219 1581 811 2004 
Q 403 2428 403 3163 
Q 403 3881 828 4315 
Q 1253 4750 1959 4750 
Q 2769 4750 3195 4129 
Q 3622 3509 3622 2328 
Q 3622 1225 3098 567 
Q 2575 -91 1691 -91 
Q 1453 -91 1209 -44 
Q 966 3 703 97 
z
M 1959 2075 
Q 2384 2075 2632 2365 
Q 2881 2656 2881 3163 
Q 2881 3666 2632 3958 
Q 2384 4250 1959 4250 
Q 1534 4250 1286 3958 
Q 1038 3666 1038 3163 
Q 1038 2656 1286 2365 
Q 1534 2075 1959 2075 
z
" transform="scale(0.015625)"/>
       </defs>
       <use xlink:href="#DejaVuSans-39"/>
      </g>
     </g>
    </g>
    <g id="ytick_8">
     <g id="line2d_33">
      <path d="M 40.603125 85.309065 
L 598.603125 85.309065 
" clip-path="url(#p132433fbf3)" style="fill: none; stroke: #b0b0b0; stroke-width: 0.8; stroke-linecap: square"/>
     </g>
     <g id="line2d_34">
      <g>
       <use xlink:href="#me4ed8592ad" x="40.603125" y="85.309065" style="stroke: #000000; stroke-width: 0.8"/>
      </g>
     </g>
     <g id="text_18">
      <!-- 10 -->
      <g transform="translate(20.878125 89.108284) scale(0.1 -0.1)">
       <use xlink:href="#DejaVuSans-31"/>
       <use xlink:href="#DejaVuSans-30" transform="translate(63.623047 0)"/>
      </g>
     </g>
    </g>
    <g id="text_19">
     <!-- Loss -->
     <g transform="translate(14.798437 310.485313) rotate(-90) scale(0.1 -0.1)">
      <defs>
       <path id="DejaVuSans-4c" d="M 628 4666 
L 1259 4666 
L 1259 531 
L 3531 531 
L 3531 0 
L 628 0 
L 628 4666 
z
" transform="scale(0.015625)"/>
      </defs>
      <use xlink:href="#DejaVuSans-4c"/>
      <use xlink:href="#DejaVuSans-6f" transform="translate(53.962891 0)"/>
      <use xlink:href="#DejaVuSans-73" transform="translate(115.144531 0)"/>
      <use xlink:href="#DejaVuSans-73" transform="translate(167.244141 0)"/>
     </g>
    </g>
   </g>
   <g id="line2d_35">
    <path d="M 65.966761 371.541328 
L 66.601646 371.919586 
L 73.585376 373.641902 
L 76.759798 374.728849 
L 79.934221 376.027074 
L 83.743528 377.844277 
L 87.552835 379.920523 
L 91.362142 382.267379 
L 93.90168 384.05645 
L 95.806334 385.612952 
L 97.710987 387.467888 
L 101.520294 391.755731 
L 104.059832 394.456241 
L 106.59937 396.890345 
L 109.773793 399.691324 
L 114.217984 403.336681 
L 125.011021 411.460483 
L 129.455213 414.634567 
L 135.804058 418.995178 
L 142.152903 423.249582 
L 152.94594 430.100928 
L 173.262244 441.928773 
L 184.690166 448.048974 
L 197.387856 454.344161 
L 213.259969 461.677517 
L 230.401851 468.968262 
L 253.257693 477.853442 
L 261.511192 480.83605 
L 278.018189 486.539661 
L 282.462381 488.001153 
L 297.699609 492.883303 
L 302.143801 494.248069 
L 318.650798 499.14588 
L 321.190336 499.854906 
L 326.269412 501.334468 
L 335.79268 503.960753 
L 341.506641 505.517102 
L 344.046179 506.162456 
L 345.950832 506.693812 
L 349.125255 507.523449 
L 352.299678 508.35985 
L 355.4741 509.169867 
L 361.822945 510.805058 
L 363.727599 511.23352 
L 366.267137 511.875562 
L 380.234596 515.259206 
L 411.343937 522.350223 
L 413.248591 522.743743 
L 420.232321 524.239365 
L 432.930011 526.920946 
L 434.19978 527.15488 
L 436.104433 527.519517 
L 436.739318 527.72104 
L 438.009087 527.914541 
L 440.548625 528.457017 
L 443.088163 528.95024 
L 455.150969 531.377364 
L 457.690507 531.828022 
L 462.134699 532.700454 
L 472.292851 534.644448 
L 476.102158 535.326877 
L 479.27658 535.924405 
L 504.671961 540.485956 
L 507.211499 540.878694 
L 511.655691 541.655319 
L 517.369651 542.648453 
L 521.178958 543.231485 
L 524.353381 543.81191 
L 527.527804 544.331286 
L 531.971995 545.064042 
L 573.239489 551.518125 
L 573.239489 551.518125 
" clip-path="url(#p132433fbf3)" style="fill: none; stroke: #1f77b4; stroke-width: 1.5; stroke-linecap: square"/>
   </g>
   <g id="line2d_36">
    <path d="M 65.966761 371.703185 
L 67.23653 371.773805 
L 71.045837 371.589523 
L 78.664452 370.734409 
L 83.743528 369.704707 
L 86.283066 369.028168 
L 86.91795 368.932607 
L 90.727257 367.74111 
L 91.997026 367.438197 
L 93.90168 366.855471 
L 97.710987 366.514517 
L 98.345872 366.692633 
L 100.250525 366.922042 
L 101.520294 367.098501 
L 104.059832 367.204861 
L 104.694717 367.041931 
L 106.59937 366.966156 
L 107.234255 366.663918 
L 109.138908 366.242313 
L 111.678446 365.58688 
L 112.948215 364.990227 
L 117.392407 363.400071 
L 118.027292 362.97417 
L 118.662176 362.788661 
L 119.297061 362.448782 
L 119.931945 362.342483 
L 121.836599 361.308793 
L 122.471483 361.230994 
L 123.106368 360.976766 
L 125.645906 359.496928 
L 126.28079 359.497266 
L 126.915675 358.898004 
L 127.550559 358.627027 
L 128.185444 358.505543 
L 128.820328 358.229994 
L 129.455213 357.663988 
L 130.090097 357.553241 
L 130.724982 357.259071 
L 131.359866 356.735001 
L 132.629635 356.350301 
L 133.899404 355.548965 
L 134.534289 355.271637 
L 135.804058 354.459103 
L 136.438942 354.328631 
L 139.613365 352.655522 
L 140.24825 352.298831 
L 140.883134 352.08384 
L 141.518019 351.584374 
L 142.152903 351.445403 
L 144.057557 350.128281 
L 144.692441 349.874789 
L 145.327326 349.777234 
L 145.96221 349.203957 
L 147.231979 348.993814 
L 147.866864 348.362709 
L 149.136633 347.608433 
L 149.771517 347.264841 
L 151.041286 346.315361 
L 152.311055 345.837032 
L 154.850593 344.676121 
L 155.485478 344.012467 
L 156.755247 343.494318 
L 157.390131 342.872325 
L 158.025016 342.964021 
L 159.294785 341.835106 
L 160.564554 341.227133 
L 161.199439 341.356225 
L 161.834323 340.529856 
L 162.469208 340.268879 
L 163.104092 339.745147 
L 163.738977 339.634461 
L 165.008746 338.635038 
L 165.64363 338.475023 
L 166.278515 337.973992 
L 166.913399 337.774893 
L 167.548284 337.162011 
L 168.183168 337.076604 
L 168.818053 336.633002 
L 169.452937 336.755928 
L 170.087822 336.027053 
L 173.262244 334.055418 
L 173.897129 334.113706 
L 174.532013 332.994486 
L 176.436667 332.209808 
L 177.706436 331.244284 
L 178.34132 331.309198 
L 178.976205 330.263206 
L 179.61109 330.294651 
L 181.515743 328.962189 
L 182.150628 328.903533 
L 183.420397 327.952489 
L 184.055281 327.874291 
L 184.690166 327.440016 
L 185.32505 326.780289 
L 185.959935 326.616898 
L 187.229704 325.493322 
L 187.864588 325.236487 
L 188.499473 324.684991 
L 190.404126 323.613966 
L 191.039011 323.609273 
L 193.578549 321.575945 
L 194.213433 321.161886 
L 194.848318 321.256251 
L 195.483202 320.680182 
L 196.118087 320.362697 
L 196.752971 319.869612 
L 197.387856 319.870992 
L 198.02274 318.963265 
L 198.657625 319.118986 
L 199.292509 318.396676 
L 199.927394 318.352408 
L 201.197163 317.071792 
L 202.466932 316.760197 
L 203.101817 315.944933 
L 203.736701 315.877503 
L 204.371586 315.689693 
L 205.00647 314.95005 
L 205.641355 314.612318 
L 206.911124 313.779292 
L 208.180893 313.366674 
L 208.815777 312.432994 
L 209.450662 311.857293 
L 210.085546 311.474158 
L 210.720431 311.574413 
L 211.355315 311.300153 
L 211.9902 310.512192 
L 212.625084 310.141757 
L 213.259969 309.588544 
L 213.894853 308.577709 
L 214.529738 309.057817 
L 215.164622 308.857644 
L 215.799507 308.138985 
L 216.434391 308.408397 
L 217.70416 307.006297 
L 218.973929 305.855693 
L 219.608814 305.931192 
L 221.513467 304.455464 
L 222.148352 304.579526 
L 222.783237 303.581054 
L 223.418121 303.562401 
L 224.68789 302.534693 
L 225.322775 302.311665 
L 225.957659 302.258286 
L 226.592544 301.206158 
L 227.227428 301.122101 
L 227.862313 300.378869 
L 228.497197 300.381047 
L 229.132082 299.745156 
L 229.766966 299.713957 
L 230.401851 298.774479 
L 231.036735 298.42923 
L 231.67162 298.350388 
L 232.941389 297.297432 
L 233.576273 296.682249 
L 234.211158 297.045598 
L 234.846042 296.847572 
L 235.480927 296.869077 
L 236.115811 295.476272 
L 236.750696 294.759269 
L 238.020465 294.627079 
L 238.655349 294.230843 
L 239.290234 293.268387 
L 239.925118 292.934428 
L 240.560003 291.688509 
L 241.194887 292.69373 
L 241.829772 291.900124 
L 242.464656 291.496066 
L 243.099541 290.84361 
L 243.734425 291.221039 
L 244.36931 289.433687 
L 245.004195 289.444761 
L 245.639079 289.682484 
L 246.273964 289.424943 
L 248.178617 287.678361 
L 248.813502 287.487177 
L 249.448386 287.156255 
L 250.083271 287.062565 
L 250.718155 285.558338 
L 251.35304 285.480324 
L 251.987924 284.480809 
L 252.622809 285.836954 
L 253.257693 283.93324 
L 255.162347 283.53044 
L 258.336769 281.511254 
L 258.971654 280.938468 
L 259.606538 280.117253 
L 260.241423 279.591281 
L 260.876307 280.055652 
L 261.511192 279.278827 
L 262.146076 278.743836 
L 262.780961 279.142863 
L 263.415845 278.312229 
L 264.05073 278.02806 
L 264.685614 277.48859 
L 265.320499 277.275226 
L 265.955384 276.167571 
L 266.590268 275.947243 
L 267.225153 276.032528 
L 267.860037 275.655619 
L 268.494922 274.886587 
L 269.764691 274.015582 
L 270.399575 273.836852 
L 271.03446 273.97297 
L 272.304229 271.604793 
L 272.939113 271.762416 
L 273.573998 272.180801 
L 276.113536 269.876066 
L 276.74842 268.974658 
L 277.383305 269.569195 
L 278.018189 268.353248 
L 278.653074 268.20805 
L 279.287958 267.444601 
L 279.922843 267.178869 
L 280.557727 266.692779 
L 281.192612 266.686398 
L 281.827496 265.710965 
L 282.462381 266.14386 
L 283.73215 264.561189 
L 284.367034 264.17563 
L 285.001919 264.154463 
L 285.636803 263.23787 
L 286.271688 262.779328 
L 286.906572 263.470101 
L 287.541457 261.535985 
L 288.176342 261.819357 
L 288.811226 261.921146 
L 289.446111 260.728023 
L 290.080995 260.920219 
L 290.71588 260.676392 
L 291.985649 258.796177 
L 292.620533 258.68273 
L 293.255418 259.151795 
L 293.890302 257.574156 
L 294.525187 257.749756 
L 295.160071 256.92897 
L 295.794956 257.086132 
L 296.42984 256.17816 
L 297.064725 255.998971 
L 297.699609 254.971661 
L 298.334494 254.485264 
L 298.969378 254.641077 
L 299.604263 254.072248 
L 300.239147 253.941315 
L 300.874032 253.223208 
L 301.508916 253.763874 
L 302.778685 252.194978 
L 303.41357 252.269434 
L 304.048454 251.949157 
L 304.683339 250.900925 
L 305.953108 250.152662 
L 306.587992 250.099528 
L 307.222877 249.477136 
L 308.492646 247.56158 
L 309.127531 247.224522 
L 309.762415 247.462122 
L 310.3973 246.980296 
L 311.032184 246.661338 
L 311.667069 246.110149 
L 312.301953 246.676217 
L 312.936838 245.072717 
L 313.571722 244.850057 
L 314.206607 244.284725 
L 314.841491 243.294506 
L 315.476376 244.407467 
L 316.11126 243.501213 
L 318.015914 242.587811 
L 318.650798 241.0083 
L 319.285683 240.323018 
L 319.920567 241.639129 
L 320.555452 241.030358 
L 321.190336 239.826865 
L 321.825221 240.93903 
L 322.460105 239.523247 
L 323.09499 238.668838 
L 323.729874 238.166212 
L 324.364759 238.222935 
L 324.999643 236.831725 
L 325.634528 238.312423 
L 326.269412 237.05279 
L 326.904297 236.250442 
L 327.539181 236.38027 
L 328.174066 235.305564 
L 328.80895 234.716917 
L 329.443835 233.601348 
L 330.078719 233.864779 
L 330.713604 233.226004 
L 331.348489 234.159715 
L 331.983373 232.689725 
L 332.618258 232.653648 
L 333.253142 232.010947 
L 333.888027 231.564062 
L 334.522911 230.066216 
L 335.157796 230.02744 
L 335.79268 229.558038 
L 336.427565 229.764162 
L 337.062449 228.955187 
L 337.697334 229.548773 
L 338.332218 228.244259 
L 338.967103 227.798786 
L 339.601987 226.5494 
L 340.236872 226.502616 
L 341.506641 226.65757 
L 342.141525 226.522158 
L 342.77641 225.667411 
L 343.411294 224.464962 
L 344.046179 224.710815 
L 344.681063 223.411025 
L 345.315948 223.35697 
L 345.950832 223.78103 
L 346.585717 221.788136 
L 347.220601 222.773478 
L 347.855486 220.86326 
L 348.49037 220.611548 
L 349.125255 220.684071 
L 349.760139 221.238757 
L 350.395024 220.41613 
L 351.029908 220.446471 
L 351.664793 219.626881 
L 352.299678 219.478676 
L 353.569447 216.730647 
L 354.204331 218.344025 
L 354.839216 216.907228 
L 355.4741 216.766386 
L 356.108985 215.67677 
L 356.743869 215.96551 
L 358.013638 214.255466 
L 358.648523 215.447392 
L 359.283407 213.266995 
L 359.918292 213.024394 
L 360.553176 213.527143 
L 361.188061 211.478108 
L 361.822945 212.273094 
L 362.45783 211.385092 
L 363.092714 210.728464 
L 363.727599 210.585689 
L 364.362483 210.772456 
L 364.997368 210.73914 
L 366.267137 209.040262 
L 366.902021 208.960683 
L 367.536906 208.068817 
L 368.17179 208.175698 
L 368.806675 205.729078 
L 369.441559 207.135965 
L 370.076444 207.092218 
L 370.711328 205.276641 
L 371.346213 205.302595 
L 371.981097 204.312927 
L 372.615982 203.623044 
L 373.250866 204.340599 
L 373.885751 204.186105 
L 374.520636 203.366332 
L 375.15552 202.237571 
L 375.790405 202.691358 
L 376.425289 201.398286 
L 377.060174 201.007819 
L 377.695058 202.116087 
L 378.329943 200.374689 
L 378.964827 200.27382 
L 379.599712 199.493253 
L 380.234596 198.911846 
L 380.869481 197.827323 
L 381.504365 198.189322 
L 382.13925 198.256077 
L 382.774134 196.968282 
L 383.409019 196.856124 
L 384.043903 195.73675 
L 384.678788 195.936647 
L 385.313672 195.810745 
L 385.948557 196.265514 
L 386.583441 195.355547 
L 387.218326 193.516717 
L 387.85321 193.589485 
L 388.488095 194.148865 
L 389.122979 193.109683 
L 389.757864 194.041001 
L 390.392748 192.210209 
L 391.027633 191.197655 
L 392.297402 190.242347 
L 392.932286 189.886423 
L 393.567171 188.417813 
L 394.202055 189.11193 
L 394.83694 188.084528 
L 395.471825 187.331939 
L 396.106709 187.618286 
L 396.741594 188.133429 
L 397.376478 185.1243 
L 398.646247 186.45081 
L 399.281132 184.735857 
L 399.916016 184.463683 
L 400.550901 184.581977 
L 401.185785 181.813301 
L 401.82067 182.797078 
L 402.455554 181.880915 
L 403.090439 182.868803 
L 403.725323 181.575241 
L 404.360208 182.162783 
L 404.995092 181.772193 
L 405.629977 181.13078 
L 406.264861 179.197707 
L 406.899746 180.229894 
L 407.53463 179.949008 
L 408.169515 179.341464 
L 408.804399 178.483097 
L 409.439284 178.561019 
L 410.074168 178.507456 
L 410.709053 176.639849 
L 411.343937 176.278955 
L 412.613706 175.884868 
L 413.883475 175.039325 
L 414.51836 175.905299 
L 415.153244 174.603086 
L 415.788129 171.853921 
L 416.423013 171.999395 
L 417.057898 173.223257 
L 417.692783 170.919228 
L 418.327667 172.677744 
L 418.962552 170.680247 
L 419.597436 170.328188 
L 420.232321 170.289657 
L 420.867205 168.469663 
L 421.50209 169.043277 
L 422.136974 168.469356 
L 422.771859 168.795339 
L 423.406743 166.576717 
L 424.041628 167.112536 
L 424.676512 165.668959 
L 425.311397 165.784369 
L 426.581166 164.664505 
L 427.21605 165.881066 
L 427.850935 165.46943 
L 428.485819 163.701589 
L 429.120704 162.760576 
L 429.755588 163.103739 
L 430.390473 162.760024 
L 431.025357 162.694005 
L 431.660242 162.417475 
L 432.295126 161.161217 
L 432.930011 162.612893 
L 433.564895 159.851825 
L 434.19978 160.066509 
L 434.834664 159.855138 
L 435.469549 158.315417 
L 436.104433 157.779904 
L 436.739318 157.472696 
L 437.374202 157.327467 
L 438.009087 156.187663 
L 438.643972 155.651536 
L 439.278856 154.760529 
L 439.913741 157.130761 
L 440.548625 157.75481 
L 441.18351 155.250086 
L 441.818394 153.894555 
L 442.453279 154.741631 
L 443.088163 153.34223 
L 443.723048 152.370049 
L 444.357932 151.939087 
L 444.992817 151.040226 
L 445.627701 151.038815 
L 446.262586 151.38891 
L 446.89747 151.277795 
L 447.532355 151.029489 
L 448.167239 148.785343 
L 448.802124 148.720367 
L 449.437008 147.853718 
L 450.071893 147.185431 
L 450.706777 148.154974 
L 451.341662 148.44218 
L 451.976546 148.353153 
L 452.611431 145.375499 
L 453.246315 145.165847 
L 453.8812 145.184683 
L 454.516084 143.590171 
L 455.150969 144.419332 
L 455.785853 142.78316 
L 456.420738 143.819826 
L 457.055622 143.755034 
L 457.690507 141.96719 
L 458.325391 142.521662 
L 458.960276 139.724946 
L 459.59516 141.6309 
L 460.230045 141.649429 
L 460.86493 140.58773 
L 461.499814 139.036044 
L 462.134699 138.165345 
L 462.769583 138.838233 
L 463.404468 138.812709 
L 464.039352 136.994985 
L 464.674237 136.863255 
L 465.309121 135.487599 
L 465.944006 134.932329 
L 466.57889 135.948196 
L 467.213775 135.438944 
L 467.848659 133.931066 
L 468.483544 133.717425 
L 469.118428 133.037236 
L 469.753313 132.122054 
L 470.388197 133.105218 
L 471.023082 132.630938 
L 471.657966 131.74079 
L 472.292851 131.739992 
L 472.927735 131.329339 
L 473.56262 129.560883 
L 474.197504 128.61938 
L 474.832389 129.465475 
L 475.467273 129.132191 
L 476.102158 128.253823 
L 476.737042 128.129639 
L 477.371927 125.600986 
L 478.006811 128.349599 
L 478.641696 125.980901 
L 479.27658 126.711218 
L 479.911465 125.322247 
L 480.546349 124.310369 
L 481.816119 123.822407 
L 482.451003 123.007235 
L 483.085888 121.372903 
L 483.720772 120.483798 
L 484.355657 120.501284 
L 484.990541 121.85338 
L 485.625426 121.057658 
L 486.895195 117.875997 
L 487.530079 120.328568 
L 488.164964 115.54767 
L 488.799848 117.73402 
L 489.434733 116.828287 
L 490.069617 117.305634 
L 490.704502 116.685328 
L 491.339386 114.919449 
L 491.974271 118.266464 
L 492.609155 115.932984 
L 493.24404 115.167326 
L 493.878924 114.206005 
L 494.513809 114.788455 
L 495.148693 113.352548 
L 495.783578 112.211393 
L 496.418462 112.873482 
L 497.053347 112.142 
L 497.688231 110.699711 
L 498.323116 111.21878 
L 498.958 111.097787 
L 499.592885 109.790051 
L 500.227769 107.935269 
L 500.862654 107.921218 
L 501.497538 108.31684 
L 502.132423 107.456142 
L 502.767308 106.212646 
L 503.402192 106.896639 
L 504.037077 107.968032 
L 504.671961 105.621668 
L 505.306846 106.374686 
L 505.94173 103.753448 
L 506.576615 104.763792 
L 507.211499 103.646014 
L 508.481268 103.69516 
L 509.116153 101.957873 
L 509.751037 101.838107 
L 510.385922 100.242 
L 511.020806 100.070633 
L 511.655691 101.637106 
L 512.290575 98.757253 
L 512.92546 97.799429 
L 513.560344 98.476796 
L 514.195229 97.656348 
L 514.830113 98.075714 
L 515.464998 100.029341 
L 516.099882 96.459728 
L 516.734767 96.566241 
L 517.369651 93.531649 
L 518.004536 94.797724 
L 519.274305 95.220097 
L 519.909189 95.129291 
L 520.544074 93.079028 
L 521.178958 92.265452 
L 521.813843 90.421283 
L 522.448727 90.982013 
L 523.083612 89.520336 
L 523.718496 88.913222 
L 524.353381 87.910976 
L 524.988266 90.422388 
L 525.62315 89.814598 
L 526.258035 84.884115 
L 526.892919 88.125905 
L 527.527804 86.128102 
L 528.162688 87.95141 
L 528.797573 86.299223 
L 529.432457 84.241967 
L 530.067342 84.771037 
L 530.702226 86.589927 
L 531.971995 82.175323 
L 532.60688 83.951877 
L 533.241764 82.406572 
L 533.876649 81.606371 
L 534.511533 81.539309 
L 535.146418 80.484789 
L 535.781302 78.889541 
L 536.416187 79.961363 
L 537.051071 78.962738 
L 537.685956 79.288537 
L 538.32084 79.035874 
L 538.955725 76.903089 
L 539.590609 77.970003 
L 540.225494 76.629749 
L 540.860378 75.671373 
L 541.495263 75.393431 
L 542.130147 74.193682 
L 542.765032 75.608054 
L 543.399916 73.166956 
L 544.034801 72.355711 
L 544.669685 73.480422 
L 545.30457 70.501173 
L 545.939455 72.166981 
L 546.574339 71.241798 
L 547.209224 70.930909 
L 547.844108 72.260487 
L 548.478993 69.709623 
L 549.113877 69.214912 
L 549.748762 69.232215 
L 551.018531 68.814014 
L 551.653415 66.201304 
L 552.2883 65.409141 
L 552.923184 66.684051 
L 553.558069 65.906245 
L 554.192953 65.426566 
L 554.827838 63.497543 
L 555.462722 64.138035 
L 556.097607 63.319304 
L 556.732491 61.974265 
L 557.367376 63.717441 
L 558.00226 63.592767 
L 558.637145 61.83057 
L 559.272029 61.284872 
L 559.906914 59.713798 
L 560.541798 60.258821 
L 561.176683 59.718338 
L 561.811567 58.269423 
L 562.446452 59.001335 
L 563.081336 58.927709 
L 563.716221 58.504354 
L 564.351105 57.194471 
L 564.98599 56.527719 
L 565.620874 53.130883 
L 566.255759 54.474021 
L 566.890643 53.258871 
L 567.525528 53.730635 
L 568.160413 52.627889 
L 568.795297 52.24957 
L 569.430182 51.052091 
L 570.065066 48.312252 
L 570.699951 52.202142 
L 571.334835 51.40912 
L 571.96972 51.411022 
L 572.604604 47.752811 
L 573.239489 47.518125 
L 573.239489 47.518125 
" clip-path="url(#p132433fbf3)" style="fill: none; stroke: #ff7f0e; stroke-width: 1.5; stroke-linecap: square"/>
   </g>
   <g id="patch_3">
    <path d="M 40.603125 576.718125 
L 40.603125 22.318125 
" style="fill: none; stroke: #000000; stroke-width: 0.8; stroke-linejoin: miter; stroke-linecap: square"/>
   </g>
   <g id="patch_4">
    <path d="M 598.603125 576.718125 
L 598.603125 22.318125 
" style="fill: none; stroke: #000000; stroke-width: 0.8; stroke-linejoin: miter; stroke-linecap: square"/>
   </g>
   <g id="patch_5">
    <path d="M 40.603125 576.718125 
L 598.603125 576.718125 
" style="fill: none; stroke: #000000; stroke-width: 0.8; stroke-linejoin: miter; stroke-linecap: square"/>
   </g>
   <g id="patch_6">
    <path d="M 40.603125 22.318125 
L 598.603125 22.318125 
" style="fill: none; stroke: #000000; stroke-width: 0.8; stroke-linejoin: miter; stroke-linecap: square"/>
   </g>
   <g id="text_20">
    <!-- Train and Val Loss -->
    <g transform="translate(266.057812 16.318125) scale(0.12 -0.12)">
     <defs>
      <path id="DejaVuSans-54" d="M -19 4666 
L 3928 4666 
L 3928 4134 
L 2272 4134 
L 2272 0 
L 1638 0 
L 1638 4134 
L -19 4134 
L -19 4666 
z
" transform="scale(0.015625)"/>
      <path id="DejaVuSans-72" d="M 2631 2963 
Q 2534 3019 2420 3045 
Q 2306 3072 2169 3072 
Q 1681 3072 1420 2755 
Q 1159 2438 1159 1844 
L 1159 0 
L 581 0 
L 581 3500 
L 1159 3500 
L 1159 2956 
Q 1341 3275 1631 3429 
Q 1922 3584 2338 3584 
Q 2397 3584 2469 3576 
Q 2541 3569 2628 3553 
L 2631 2963 
z
" transform="scale(0.015625)"/>
      <path id="DejaVuSans-61" d="M 2194 1759 
Q 1497 1759 1228 1600 
Q 959 1441 959 1056 
Q 959 750 1161 570 
Q 1363 391 1709 391 
Q 2188 391 2477 730 
Q 2766 1069 2766 1631 
L 2766 1759 
L 2194 1759 
z
M 3341 1997 
L 3341 0 
L 2766 0 
L 2766 531 
Q 2569 213 2275 61 
Q 1981 -91 1556 -91 
Q 1019 -91 701 211 
Q 384 513 384 1019 
Q 384 1609 779 1909 
Q 1175 2209 1959 2209 
L 2766 2209 
L 2766 2266 
Q 2766 2663 2505 2880 
Q 2244 3097 1772 3097 
Q 1472 3097 1187 3025 
Q 903 2953 641 2809 
L 641 3341 
Q 956 3463 1253 3523 
Q 1550 3584 1831 3584 
Q 2591 3584 2966 3190 
Q 3341 2797 3341 1997 
z
" transform="scale(0.015625)"/>
      <path id="DejaVuSans-69" d="M 603 3500 
L 1178 3500 
L 1178 0 
L 603 0 
L 603 3500 
z
M 603 4863 
L 1178 4863 
L 1178 4134 
L 603 4134 
L 603 4863 
z
" transform="scale(0.015625)"/>
      <path id="DejaVuSans-6e" d="M 3513 2113 
L 3513 0 
L 2938 0 
L 2938 2094 
Q 2938 2591 2744 2837 
Q 2550 3084 2163 3084 
Q 1697 3084 1428 2787 
Q 1159 2491 1159 1978 
L 1159 0 
L 581 0 
L 581 3500 
L 1159 3500 
L 1159 2956 
Q 1366 3272 1645 3428 
Q 1925 3584 2291 3584 
Q 2894 3584 3203 3211 
Q 3513 2838 3513 2113 
z
" transform="scale(0.015625)"/>
      <path id="DejaVuSans-20" transform="scale(0.015625)"/>
      <path id="DejaVuSans-64" d="M 2906 2969 
L 2906 4863 
L 3481 4863 
L 3481 0 
L 2906 0 
L 2906 525 
Q 2725 213 2448 61 
Q 2172 -91 1784 -91 
Q 1150 -91 751 415 
Q 353 922 353 1747 
Q 353 2572 751 3078 
Q 1150 3584 1784 3584 
Q 2172 3584 2448 3432 
Q 2725 3281 2906 2969 
z
M 947 1747 
Q 947 1113 1208 752 
Q 1469 391 1925 391 
Q 2381 391 2643 752 
Q 2906 1113 2906 1747 
Q 2906 2381 2643 2742 
Q 2381 3103 1925 3103 
Q 1469 3103 1208 2742 
Q 947 2381 947 1747 
z
" transform="scale(0.015625)"/>
      <path id="DejaVuSans-56" d="M 1831 0 
L 50 4666 
L 709 4666 
L 2188 738 
L 3669 4666 
L 4325 4666 
L 2547 0 
L 1831 0 
z
" transform="scale(0.015625)"/>
      <path id="DejaVuSans-6c" d="M 603 4863 
L 1178 4863 
L 1178 0 
L 603 0 
L 603 4863 
z
" transform="scale(0.015625)"/>
     </defs>
     <use xlink:href="#DejaVuSans-54"/>
     <use xlink:href="#DejaVuSans-72" transform="translate(46.333984 0)"/>
     <use xlink:href="#DejaVuSans-61" transform="translate(87.447266 0)"/>
     <use xlink:href="#DejaVuSans-69" transform="translate(148.726562 0)"/>
     <use xlink:href="#DejaVuSans-6e" transform="translate(176.509766 0)"/>
     <use xlink:href="#DejaVuSans-20" transform="translate(239.888672 0)"/>
     <use xlink:href="#DejaVuSans-61" transform="translate(271.675781 0)"/>
     <use xlink:href="#DejaVuSans-6e" transform="translate(332.955078 0)"/>
     <use xlink:href="#DejaVuSans-64" transform="translate(396.333984 0)"/>
     <use xlink:href="#DejaVuSans-20" transform="translate(459.810547 0)"/>
     <use xlink:href="#DejaVuSans-56" transform="translate(491.597656 0)"/>
     <use xlink:href="#DejaVuSans-61" transform="translate(552.255859 0)"/>
     <use xlink:href="#DejaVuSans-6c" transform="translate(613.535156 0)"/>
     <use xlink:href="#DejaVuSans-20" transform="translate(641.318359 0)"/>
     <use xlink:href="#DejaVuSans-4c" transform="translate(673.105469 0)"/>
     <use xlink:href="#DejaVuSans-6f" transform="translate(727.068359 0)"/>
     <use xlink:href="#DejaVuSans-73" transform="translate(788.25 0)"/>
     <use xlink:href="#DejaVuSans-73" transform="translate(840.349609 0)"/>
    </g>
   </g>
   <g id="legend_1">
    <g id="patch_7">
     <path d="M 47.603125 60.230625 
L 127.19375 60.230625 
Q 129.19375 60.230625 129.19375 58.230625 
L 129.19375 29.318125 
Q 129.19375 27.318125 127.19375 27.318125 
L 47.603125 27.318125 
Q 45.603125 27.318125 45.603125 29.318125 
L 45.603125 58.230625 
Q 45.603125 60.230625 47.603125 60.230625 
z
" style="fill: #ffffff; opacity: 0.8; stroke: #cccccc; stroke-linejoin: miter"/>
    </g>
    <g id="line2d_37">
     <path d="M 49.603125 35.416563 
L 59.603125 35.416563 
L 69.603125 35.416563 
" style="fill: none; stroke: #1f77b4; stroke-width: 1.5; stroke-linecap: square"/>
    </g>
    <g id="text_21">
     <!-- train_loss -->
     <g transform="translate(77.603125 38.916563) scale(0.1 -0.1)">
      <defs>
       <path id="DejaVuSans-74" d="M 1172 4494 
L 1172 3500 
L 2356 3500 
L 2356 3053 
L 1172 3053 
L 1172 1153 
Q 1172 725 1289 603 
Q 1406 481 1766 481 
L 2356 481 
L 2356 0 
L 1766 0 
Q 1100 0 847 248 
Q 594 497 594 1153 
L 594 3053 
L 172 3053 
L 172 3500 
L 594 3500 
L 594 4494 
L 1172 4494 
z
" transform="scale(0.015625)"/>
       <path id="DejaVuSans-5f" d="M 3263 -1063 
L 3263 -1509 
L -63 -1509 
L -63 -1063 
L 3263 -1063 
z
" transform="scale(0.015625)"/>
      </defs>
      <use xlink:href="#DejaVuSans-74"/>
      <use xlink:href="#DejaVuSans-72" transform="translate(39.208984 0)"/>
      <use xlink:href="#DejaVuSans-61" transform="translate(80.322266 0)"/>
      <use xlink:href="#DejaVuSans-69" transform="translate(141.601562 0)"/>
      <use xlink:href="#DejaVuSans-6e" transform="translate(169.384766 0)"/>
      <use xlink:href="#DejaVuSans-5f" transform="translate(232.763672 0)"/>
      <use xlink:href="#DejaVuSans-6c" transform="translate(282.763672 0)"/>
      <use xlink:href="#DejaVuSans-6f" transform="translate(310.546875 0)"/>
      <use xlink:href="#DejaVuSans-73" transform="translate(371.728516 0)"/>
      <use xlink:href="#DejaVuSans-73" transform="translate(423.828125 0)"/>
     </g>
    </g>
    <g id="line2d_38">
     <path d="M 49.603125 50.372813 
L 59.603125 50.372813 
L 69.603125 50.372813 
" style="fill: none; stroke: #ff7f0e; stroke-width: 1.5; stroke-linecap: square"/>
    </g>
    <g id="text_22">
     <!-- val_loss -->
     <g transform="translate(77.603125 53.872813) scale(0.1 -0.1)">
      <defs>
       <path id="DejaVuSans-76" d="M 191 3500 
L 800 3500 
L 1894 563 
L 2988 3500 
L 3597 3500 
L 2284 0 
L 1503 0 
L 191 3500 
z
" transform="scale(0.015625)"/>
      </defs>
      <use xlink:href="#DejaVuSans-76"/>
      <use xlink:href="#DejaVuSans-61" transform="translate(59.179688 0)"/>
      <use xlink:href="#DejaVuSans-6c" transform="translate(120.458984 0)"/>
      <use xlink:href="#DejaVuSans-5f" transform="translate(148.242188 0)"/>
      <use xlink:href="#DejaVuSans-6c" transform="translate(198.242188 0)"/>
      <use xlink:href="#DejaVuSans-6f" transform="translate(226.025391 0)"/>
      <use xlink:href="#DejaVuSans-73" transform="translate(287.207031 0)"/>
      <use xlink:href="#DejaVuSans-73" transform="translate(339.306641 0)"/>
     </g>
    </g>
   </g>
  </g>
 </g>
 <defs>
  <clipPath id="p132433fbf3">
   <rect x="40.603125" y="22.318125" width="558" height="554.4"/>
  </clipPath>
 </defs>
</svg>
