<?xml version="1.0" encoding="utf-8" standalone="no"?>
<!DOCTYPE svg PUBLIC "-//W3C//DTD SVG 1.1//EN"
  "http://www.w3.org/Graphics/SVG/1.1/DTD/svg11.dtd">
<svg xmlns:xlink="http://www.w3.org/1999/xlink" width="605.803125pt" height="614.274375pt" viewBox="0 0 605.803125 614.274375" xmlns="http://www.w3.org/2000/svg" version="1.1">
 <metadata>
  <rdf:RDF xmlns:dc="http://purl.org/dc/elements/1.1/" xmlns:cc="http://creativecommons.org/ns#" xmlns:rdf="http://www.w3.org/1999/02/22-rdf-syntax-ns#">
   <cc:Work>
    <dc:type rdf:resource="http://purl.org/dc/dcmitype/StillImage"/>
    <dc:date>2026-05-25T08:56:54.830482</dc:date>
    <dc:format>image/svg+xml</dc:format>
    <dc:creator>
     <cc:Agent>
      <dc:title>Matplotlib v3.10.9, https://matplotlib.org/</dc:title>
     </cc:Agent>
    </dc:creator>
   </cc:Work>
  </rdf:RDF>
 </metadata>
 <defs>
  <style type="text/css">*{stroke-linejoin: round; stroke-linecap: butt}</style>
 </defs>
 <g id="figure_1">
  <g id="patch_1">
   <path d="M 0 614.274375 
L 605.803125 614.274375 
L 605.803125 0 
L 0 0 
z
" style="fill: #ffffff"/>
  </g>
  <g id="axes_1">
   <g id="patch_2">
    <path d="M 40.603125 576.718125 
L 598.603125 576.718125 
L 598.603125 22.318125 
L 40.603125 22.318125 
z
" style="fill: #ffffff"/>
   </g>
   <g id="matplotlib.axis_1">
    <g id="xtick_1">
     <g id="line2d_1">
      <path d="M 65.966761 576.718125 
L 65.966761 22.318125 
" clip-path="url(#pa35c6874b4)" style="fill: none; stroke: #b0b0b0; stroke-width: 0.8; stroke-linecap: square"/>
     </g>
     <g id="line2d_2">
      <defs>
       <path id="mc17cf73c8d" d="M 0 0 
L 0 3.5 
" style="stroke: #000000; stroke-width: 0.8"/>
      </defs>
      <g>
       <use xlink:href="#mc17cf73c8d" x="65.966761" y="576.718125" style="stroke: #000000; stroke-width: 0.8"/>
      </g>
     </g>
     <g id="text_1">
      <!-- 0 -->
      <g transform="translate(62.785511 591.316563) scale(0.1 -0.1)">
       <defs>
        <path id="DejaVuSans-30" d="M 2034 4250 
Q 1547 4250 1301 3770 
Q 1056 3291 1056 2328 
Q 1056 1369 1301 889 
Q 1547 409 2034 409 
Q 2525 409 2770 889 
Q 3016 1369 3016 2328 
Q 3016 3291 2770 3770 
Q 2525 4250 2034 4250 
z
M 2034 4750 
Q 2819 4750 3233 4129 
Q 3647 3509 3647 2328 
Q 3647 1150 3233 529 
Q 2819 -91 2034 -91 
Q 1250 -91 836 529 
Q 422 1150 422 2328 
Q 422 3509 836 4129 
Q 1250 4750 2034 4750 
z
" transform="scale(0.015625)"/>
       </defs>
       <use xlink:href="#DejaVuSans-30"/>
      </g>
     </g>
    </g>
    <g id="xtick_2">
     <g id="line2d_3">
      <path d="M 129.455213 576.718125 
L 129.455213 22.318125 
" clip-path="url(#pa35c6874b4)" style="fill: none; stroke: #b0b0b0; stroke-width: 0.8; stroke-linecap: square"/>
     </g>
     <g id="line2d_4">
      <g>
       <use xlink:href="#mc17cf73c8d" x="129.455213" y="576.718125" style="stroke: #000000; stroke-width: 0.8"/>
      </g>
     </g>
     <g id="text_2">
      <!-- 100 -->
      <g transform="translate(119.911463 591.316563) scale(0.1 -0.1)">
       <defs>
        <path id="DejaVuSans-31" d="M 794 531 
L 1825 531 
L 1825 4091 
L 703 3866 
L 703 4441 
L 1819 4666 
L 2450 4666 
L 2450 531 
L 3481 531 
L 3481 0 
L 794 0 
L 794 531 
z
" transform="scale(0.015625)"/>
       </defs>
       <use xlink:href="#DejaVuSans-31"/>
       <use xlink:href="#DejaVuSans-30" transform="translate(63.623047 0)"/>
       <use xlink:href="#DejaVuSans-30" transform="translate(127.246094 0)"/>
      </g>
     </g>
    </g>
    <g id="xtick_3">
     <g id="line2d_5">
      <path d="M 192.943664 576.718125 
L 192.943664 22.318125 
" clip-path="url(#pa35c6874b4)" style="fill: none; stroke: #b0b0b0; stroke-width: 0.8; stroke-linecap: square"/>
     </g>
     <g id="line2d_6">
      <g>
       <use xlink:href="#mc17cf73c8d" x="192.943664" y="576.718125" style="stroke: #000000; stroke-width: 0.8"/>
      </g>
     </g>
     <g id="text_3">
      <!-- 200 -->
      <g transform="translate(183.399914 591.316563) scale(0.1 -0.1)">
       <defs>
        <path id="DejaVuSans-32" d="M 1228 531 
L 3431 531 
L 3431 0 
L 469 0 
L 469 531 
Q 828 903 1448 1529 
Q 2069 2156 2228 2338 
Q 2531 2678 2651 2914 
Q 2772 3150 2772 3378 
Q 2772 3750 2511 3984 
Q 2250 4219 1831 4219 
Q 1534 4219 1204 4116 
Q 875 4013 500 3803 
L 500 4441 
Q 881 4594 1212 4672 
Q 1544 4750 1819 4750 
Q 2544 4750 2975 4387 
Q 3406 4025 3406 3419 
Q 3406 3131 3298 2873 
Q 3191 2616 2906 2266 
Q 2828 2175 2409 1742 
Q 1991 1309 1228 531 
z
" transform="scale(0.015625)"/>
       </defs>
       <use xlink:href="#DejaVuSans-32"/>
       <use xlink:href="#DejaVuSans-30" transform="translate(63.623047 0)"/>
       <use xlink:href="#DejaVuSans-30" transform="translate(127.246094 0)"/>
      </g>
     </g>
    </g>
    <g id="xtick_4">
     <g id="line2d_7">
      <path d="M 256.432116 576.718125 
L 256.432116 22.318125 
" clip-path="url(#pa35c6874b4)" style="fill: none; stroke: #b0b0b0; stroke-width: 0.8; stroke-linecap: square"/>
     </g>
     <g id="line2d_8">
      <g>
       <use xlink:href="#mc17cf73c8d" x="256.432116" y="576.718125" style="stroke: #000000; stroke-width: 0.8"/>
      </g>
     </g>
     <g id="text_4">
      <!-- 300 -->
      <g transform="translate(246.888366 591.316563) scale(0.1 -0.1)">
       <defs>
        <path id="DejaVuSans-33" d="M 2597 2516 
Q 3050 2419 3304 2112 
Q 3559 1806 3559 1356 
Q 3559 666 3084 287 
Q 2609 -91 1734 -91 
Q 1441 -91 1130 -33 
Q 819 25 488 141 
L 488 750 
Q 750 597 1062 519 
Q 1375 441 1716 441 
Q 2309 441 2620 675 
Q 2931 909 2931 1356 
Q 2931 1769 2642 2001 
Q 2353 2234 1838 2234 
L 1294 2234 
L 1294 2753 
L 1863 2753 
Q 2328 2753 2575 2939 
Q 2822 3125 2822 3475 
Q 2822 3834 2567 4026 
Q 2313 4219 1838 4219 
Q 1578 4219 1281 4162 
Q 984 4106 628 3988 
L 628 4550 
Q 988 4650 1302 4700 
Q 1616 4750 1894 4750 
Q 2613 4750 3031 4423 
Q 3450 4097 3450 3541 
Q 3450 3153 3228 2886 
Q 3006 2619 2597 2516 
z
" transform="scale(0.015625)"/>
       </defs>
       <use xlink:href="#DejaVuSans-33"/>
       <use xlink:href="#DejaVuSans-30" transform="translate(63.623047 0)"/>
       <use xlink:href="#DejaVuSans-30" transform="translate(127.246094 0)"/>
      </g>
     </g>
    </g>
    <g id="xtick_5">
     <g id="line2d_9">
      <path d="M 319.920567 576.718125 
L 319.920567 22.318125 
" clip-path="url(#pa35c6874b4)" style="fill: none; stroke: #b0b0b0; stroke-width: 0.8; stroke-linecap: square"/>
     </g>
     <g id="line2d_10">
      <g>
       <use xlink:href="#mc17cf73c8d" x="319.920567" y="576.718125" style="stroke: #000000; stroke-width: 0.8"/>
      </g>
     </g>
     <g id="text_5">
      <!-- 400 -->
      <g transform="translate(310.376817 591.316563) scale(0.1 -0.1)">
       <defs>
        <path id="DejaVuSans-34" d="M 2419 4116 
L 825 1625 
L 2419 1625 
L 2419 4116 
z
M 2253 4666 
L 3047 4666 
L 3047 1625 
L 3713 1625 
L 3713 1100 
L 3047 1100 
L 3047 0 
L 2419 0 
L 2419 1100 
L 313 1100 
L 313 1709 
L 2253 4666 
z
" transform="scale(0.015625)"/>
       </defs>
       <use xlink:href="#DejaVuSans-34"/>
       <use xlink:href="#DejaVuSans-30" transform="translate(63.623047 0)"/>
       <use xlink:href="#DejaVuSans-30" transform="translate(127.246094 0)"/>
      </g>
     </g>
    </g>
    <g id="xtick_6">
     <g id="line2d_11">
      <path d="M 383.409019 576.718125 
L 383.409019 22.318125 
" clip-path="url(#pa35c6874b4)" style="fill: none; stroke: #b0b0b0; stroke-width: 0.8; stroke-linecap: square"/>
     </g>
     <g id="line2d_12">
      <g>
       <use xlink:href="#mc17cf73c8d" x="383.409019" y="576.718125" style="stroke: #000000; stroke-width: 0.8"/>
      </g>
     </g>
     <g id="text_6">
      <!-- 500 -->
      <g transform="translate(373.865269 591.316563) scale(0.1 -0.1)">
       <defs>
        <path id="DejaVuSans-35" d="M 691 4666 
L 3169 4666 
L 3169 4134 
L 1269 4134 
L 1269 2991 
Q 1406 3038 1543 3061 
Q 1681 3084 1819 3084 
Q 2600 3084 3056 2656 
Q 3513 2228 3513 1497 
Q 3513 744 3044 326 
Q 2575 -91 1722 -91 
Q 1428 -91 1123 -41 
Q 819 9 494 109 
L 494 744 
Q 775 591 1075 516 
Q 1375 441 1709 441 
Q 2250 441 2565 725 
Q 2881 1009 2881 1497 
Q 2881 1984 2565 2268 
Q 2250 2553 1709 2553 
Q 1456 2553 1204 2497 
Q 953 2441 691 2322 
L 691 4666 
z
" transform="scale(0.015625)"/>
       </defs>
       <use xlink:href="#DejaVuSans-35"/>
       <use xlink:href="#DejaVuSans-30" transform="translate(63.623047 0)"/>
       <use xlink:href="#DejaVuSans-30" transform="translate(127.246094 0)"/>
      </g>
     </g>
    </g>
    <g id="xtick_7">
     <g id="line2d_13">
      <path d="M 446.89747 576.718125 
L 446.89747 22.318125 
" clip-path="url(#pa35c6874b4)" style="fill: none; stroke: #b0b0b0; stroke-width: 0.8; stroke-linecap: square"/>
     </g>
     <g id="line2d_14">
      <g>
       <use xlink:href="#mc17cf73c8d" x="446.89747" y="576.718125" style="stroke: #000000; stroke-width: 0.8"/>
      </g>
     </g>
     <g id="text_7">
      <!-- 600 -->
      <g transform="translate(437.35372 591.316563) scale(0.1 -0.1)">
       <defs>
        <path id="DejaVuSans-36" d="M 2113 2584 
Q 1688 2584 1439 2293 
Q 1191 2003 1191 1497 
Q 1191 994 1439 701 
Q 1688 409 2113 409 
Q 2538 409 2786 701 
Q 3034 994 3034 1497 
Q 3034 2003 2786 2293 
Q 2538 2584 2113 2584 
z
M 3366 4563 
L 3366 3988 
Q 3128 4100 2886 4159 
Q 2644 4219 2406 4219 
Q 1781 4219 1451 3797 
Q 1122 3375 1075 2522 
Q 1259 2794 1537 2939 
Q 1816 3084 2150 3084 
Q 2853 3084 3261 2657 
Q 3669 2231 3669 1497 
Q 3669 778 3244 343 
Q 2819 -91 2113 -91 
Q 1303 -91 875 529 
Q 447 1150 447 2328 
Q 447 3434 972 4092 
Q 1497 4750 2381 4750 
Q 2619 4750 2861 4703 
Q 3103 4656 3366 4563 
z
" transform="scale(0.015625)"/>
       </defs>
       <use xlink:href="#DejaVuSans-36"/>
       <use xlink:href="#DejaVuSans-30" transform="translate(63.623047 0)"/>
       <use xlink:href="#DejaVuSans-30" transform="translate(127.246094 0)"/>
      </g>
     </g>
    </g>
    <g id="xtick_8">
     <g id="line2d_15">
      <path d="M 510.385922 576.718125 
L 510.385922 22.318125 
" clip-path="url(#pa35c6874b4)" style="fill: none; stroke: #b0b0b0; stroke-width: 0.8; stroke-linecap: square"/>
     </g>
     <g id="line2d_16">
      <g>
       <use xlink:href="#mc17cf73c8d" x="510.385922" y="576.718125" style="stroke: #000000; stroke-width: 0.8"/>
      </g>
     </g>
     <g id="text_8">
      <!-- 700 -->
      <g transform="translate(500.842172 591.316563) scale(0.1 -0.1)">
       <defs>
        <path id="DejaVuSans-37" d="M 525 4666 
L 3525 4666 
L 3525 4397 
L 1831 0 
L 1172 0 
L 2766 4134 
L 525 4134 
L 525 4666 
z
" transform="scale(0.015625)"/>
       </defs>
       <use xlink:href="#DejaVuSans-37"/>
       <use xlink:href="#DejaVuSans-30" transform="translate(63.623047 0)"/>
       <use xlink:href="#DejaVuSans-30" transform="translate(127.246094 0)"/>
      </g>
     </g>
    </g>
    <g id="xtick_9">
     <g id="line2d_17">
      <path d="M 573.874373 576.718125 
L 573.874373 22.318125 
" clip-path="url(#pa35c6874b4)" style="fill: none; stroke: #b0b0b0; stroke-width: 0.8; stroke-linecap: square"/>
     </g>
     <g id="line2d_18">
      <g>
       <use xlink:href="#mc17cf73c8d" x="573.874373" y="576.718125" style="stroke: #000000; stroke-width: 0.8"/>
      </g>
     </g>
     <g id="text_9">
      <!-- 800 -->
      <g transform="translate(564.330623 591.316563) scale(0.1 -0.1)">
       <defs>
        <path id="DejaVuSans-38" d="M 2034 2216 
Q 1584 2216 1326 1975 
Q 1069 1734 1069 1313 
Q 1069 891 1326 650 
Q 1584 409 2034 409 
Q 2484 409 2743 651 
Q 3003 894 3003 1313 
Q 3003 1734 2745 1975 
Q 2488 2216 2034 2216 
z
M 1403 2484 
Q 997 2584 770 2862 
Q 544 3141 544 3541 
Q 544 4100 942 4425 
Q 1341 4750 2034 4750 
Q 2731 4750 3128 4425 
Q 3525 4100 3525 3541 
Q 3525 3141 3298 2862 
Q 3072 2584 2669 2484 
Q 3125 2378 3379 2068 
Q 3634 1759 3634 1313 
Q 3634 634 3220 271 
Q 2806 -91 2034 -91 
Q 1263 -91 848 271 
Q 434 634 434 1313 
Q 434 1759 690 2068 
Q 947 2378 1403 2484 
z
M 1172 3481 
Q 1172 3119 1398 2916 
Q 1625 2713 2034 2713 
Q 2441 2713 2670 2916 
Q 2900 3119 2900 3481 
Q 2900 3844 2670 4047 
Q 2441 4250 2034 4250 
Q 1625 4250 1398 4047 
Q 1172 3844 1172 3481 
z
" transform="scale(0.015625)"/>
       </defs>
       <use xlink:href="#DejaVuSans-38"/>
       <use xlink:href="#DejaVuSans-30" transform="translate(63.623047 0)"/>
       <use xlink:href="#DejaVuSans-30" transform="translate(127.246094 0)"/>
      </g>
     </g>
    </g>
    <g id="text_10">
     <!-- Epochs -->
     <g transform="translate(301.6875 604.994688) scale(0.1 -0.1)">
      <defs>
       <path id="DejaVuSans-45" d="M 628 4666 
L 3578 4666 
L 3578 4134 
L 1259 4134 
L 1259 2753 
L 3481 2753 
L 3481 2222 
L 1259 2222 
L 1259 531 
L 3634 531 
L 3634 0 
L 628 0 
L 628 4666 
z
" transform="scale(0.015625)"/>
       <path id="DejaVuSans-70" d="M 1159 525 
L 1159 -1331 
L 581 -1331 
L 581 3500 
L 1159 3500 
L 1159 2969 
Q 1341 3281 1617 3432 
Q 1894 3584 2278 3584 
Q 2916 3584 3314 3078 
Q 3713 2572 3713 1747 
Q 3713 922 3314 415 
Q 2916 -91 2278 -91 
Q 1894 -91 1617 61 
Q 1341 213 1159 525 
z
M 3116 1747 
Q 3116 2381 2855 2742 
Q 2594 3103 2138 3103 
Q 1681 3103 1420 2742 
Q 1159 2381 1159 1747 
Q 1159 1113 1420 752 
Q 1681 391 2138 391 
Q 2594 391 2855 752 
Q 3116 1113 3116 1747 
z
" transform="scale(0.015625)"/>
       <path id="DejaVuSans-6f" d="M 1959 3097 
Q 1497 3097 1228 2736 
Q 959 2375 959 1747 
Q 959 1119 1226 758 
Q 1494 397 1959 397 
Q 2419 397 2687 759 
Q 2956 1122 2956 1747 
Q 2956 2369 2687 2733 
Q 2419 3097 1959 3097 
z
M 1959 3584 
Q 2709 3584 3137 3096 
Q 3566 2609 3566 1747 
Q 3566 888 3137 398 
Q 2709 -91 1959 -91 
Q 1206 -91 779 398 
Q 353 888 353 1747 
Q 353 2609 779 3096 
Q 1206 3584 1959 3584 
z
" transform="scale(0.015625)"/>
       <path id="DejaVuSans-63" d="M 3122 3366 
L 3122 2828 
Q 2878 2963 2633 3030 
Q 2388 3097 2138 3097 
Q 1578 3097 1268 2742 
Q 959 2388 959 1747 
Q 959 1106 1268 751 
Q 1578 397 2138 397 
Q 2388 397 2633 464 
Q 2878 531 3122 666 
L 3122 134 
Q 2881 22 2623 -34 
Q 2366 -91 2075 -91 
Q 1284 -91 818 406 
Q 353 903 353 1747 
Q 353 2603 823 3093 
Q 1294 3584 2113 3584 
Q 2378 3584 2631 3529 
Q 2884 3475 3122 3366 
z
" transform="scale(0.015625)"/>
       <path id="DejaVuSans-68" d="M 3513 2113 
L 3513 0 
L 2938 0 
L 2938 2094 
Q 2938 2591 2744 2837 
Q 2550 3084 2163 3084 
Q 1697 3084 1428 2787 
Q 1159 2491 1159 1978 
L 1159 0 
L 581 0 
L 581 4863 
L 1159 4863 
L 1159 2956 
Q 1366 3272 1645 3428 
Q 1925 3584 2291 3584 
Q 2894 3584 3203 3211 
Q 3513 2838 3513 2113 
z
" transform="scale(0.015625)"/>
       <path id="DejaVuSans-73" d="M 2834 3397 
L 2834 2853 
Q 2591 2978 2328 3040 
Q 2066 3103 1784 3103 
Q 1356 3103 1142 2972 
Q 928 2841 928 2578 
Q 928 2378 1081 2264 
Q 1234 2150 1697 2047 
L 1894 2003 
Q 2506 1872 2764 1633 
Q 3022 1394 3022 966 
Q 3022 478 2636 193 
Q 2250 -91 1575 -91 
Q 1294 -91 989 -36 
Q 684 19 347 128 
L 347 722 
Q 666 556 975 473 
Q 1284 391 1588 391 
Q 1994 391 2212 530 
Q 2431 669 2431 922 
Q 2431 1156 2273 1281 
Q 2116 1406 1581 1522 
L 1381 1569 
Q 847 1681 609 1914 
Q 372 2147 372 2553 
Q 372 3047 722 3315 
Q 1072 3584 1716 3584 
Q 2034 3584 2315 3537 
Q 2597 3491 2834 3397 
z
" transform="scale(0.015625)"/>
      </defs>
      <use xlink:href="#DejaVuSans-45"/>
      <use xlink:href="#DejaVuSans-70" transform="translate(63.183594 0)"/>
      <use xlink:href="#DejaVuSans-6f" transform="translate(126.660156 0)"/>
      <use xlink:href="#DejaVuSans-63" transform="translate(187.841797 0)"/>
      <use xlink:href="#DejaVuSans-68" transform="translate(242.822266 0)"/>
      <use xlink:href="#DejaVuSans-73" transform="translate(306.201172 0)"/>
     </g>
    </g>
   </g>
   <g id="matplotlib.axis_2">
    <g id="ytick_1">
     <g id="line2d_19">
      <path d="M 40.603125 568.860708 
L 598.603125 568.860708 
" clip-path="url(#pa35c6874b4)" style="fill: none; stroke: #b0b0b0; stroke-width: 0.8; stroke-linecap: square"/>
     </g>
     <g id="line2d_20">
      <defs>
       <path id="m0939c32fe5" d="M 0 0 
L -3.5 0 
" style="stroke: #000000; stroke-width: 0.8"/>
      </defs>
      <g>
       <use xlink:href="#m0939c32fe5" x="40.603125" y="568.860708" style="stroke: #000000; stroke-width: 0.8"/>
      </g>
     </g>
     <g id="text_11">
      <!-- 0 -->
      <g transform="translate(27.240625 572.659926) scale(0.1 -0.1)">
       <use xlink:href="#DejaVuSans-30"/>
      </g>
     </g>
    </g>
    <g id="ytick_2">
     <g id="line2d_21">
      <path d="M 40.603125 480.697105 
L 598.603125 480.697105 
" clip-path="url(#pa35c6874b4)" style="fill: none; stroke: #b0b0b0; stroke-width: 0.8; stroke-linecap: square"/>
     </g>
     <g id="line2d_22">
      <g>
       <use xlink:href="#m0939c32fe5" x="40.603125" y="480.697105" style="stroke: #000000; stroke-width: 0.8"/>
      </g>
     </g>
     <g id="text_12">
      <!-- 2 -->
      <g transform="translate(27.240625 484.496324) scale(0.1 -0.1)">
       <use xlink:href="#DejaVuSans-32"/>
      </g>
     </g>
    </g>
    <g id="ytick_3">
     <g id="line2d_23">
      <path d="M 40.603125 392.533503 
L 598.603125 392.533503 
" clip-path="url(#pa35c6874b4)" style="fill: none; stroke: #b0b0b0; stroke-width: 0.8; stroke-linecap: square"/>
     </g>
     <g id="line2d_24">
      <g>
       <use xlink:href="#m0939c32fe5" x="40.603125" y="392.533503" style="stroke: #000000; stroke-width: 0.8"/>
      </g>
     </g>
     <g id="text_13">
      <!-- 4 -->
      <g transform="translate(27.240625 396.332722) scale(0.1 -0.1)">
       <use xlink:href="#DejaVuSans-34"/>
      </g>
     </g>
    </g>
    <g id="ytick_4">
     <g id="line2d_25">
      <path d="M 40.603125 304.369901 
L 598.603125 304.369901 
" clip-path="url(#pa35c6874b4)" style="fill: none; stroke: #b0b0b0; stroke-width: 0.8; stroke-linecap: square"/>
     </g>
     <g id="line2d_26">
      <g>
       <use xlink:href="#m0939c32fe5" x="40.603125" y="304.369901" style="stroke: #000000; stroke-width: 0.8"/>
      </g>
     </g>
     <g id="text_14">
      <!-- 6 -->
      <g transform="translate(27.240625 308.16912) scale(0.1 -0.1)">
       <use xlink:href="#DejaVuSans-36"/>
      </g>
     </g>
    </g>
    <g id="ytick_5">
     <g id="line2d_27">
      <path d="M 40.603125 216.206299 
L 598.603125 216.206299 
" clip-path="url(#pa35c6874b4)" style="fill: none; stroke: #b0b0b0; stroke-width: 0.8; stroke-linecap: square"/>
     </g>
     <g id="line2d_28">
      <g>
       <use xlink:href="#m0939c32fe5" x="40.603125" y="216.206299" style="stroke: #000000; stroke-width: 0.8"/>
      </g>
     </g>
     <g id="text_15">
      <!-- 8 -->
      <g transform="translate(27.240625 220.005518) scale(0.1 -0.1)">
       <use xlink:href="#DejaVuSans-38"/>
      </g>
     </g>
    </g>
    <g id="ytick_6">
     <g id="line2d_29">
      <path d="M 40.603125 128.042697 
L 598.603125 128.042697 
" clip-path="url(#pa35c6874b4)" style="fill: none; stroke: #b0b0b0; stroke-width: 0.8; stroke-linecap: square"/>
     </g>
     <g id="line2d_30">
      <g>
       <use xlink:href="#m0939c32fe5" x="40.603125" y="128.042697" style="stroke: #000000; stroke-width: 0.8"/>
      </g>
     </g>
     <g id="text_16">
      <!-- 10 -->
      <g transform="translate(20.878125 131.841915) scale(0.1 -0.1)">
       <use xlink:href="#DejaVuSans-31"/>
       <use xlink:href="#DejaVuSans-30" transform="translate(63.623047 0)"/>
      </g>
     </g>
    </g>
    <g id="ytick_7">
     <g id="line2d_31">
      <path d="M 40.603125 39.879094 
L 598.603125 39.879094 
" clip-path="url(#pa35c6874b4)" style="fill: none; stroke: #b0b0b0; stroke-width: 0.8; stroke-linecap: square"/>
     </g>
     <g id="line2d_32">
      <g>
       <use xlink:href="#m0939c32fe5" x="40.603125" y="39.879094" style="stroke: #000000; stroke-width: 0.8"/>
      </g>
     </g>
     <g id="text_17">
      <!-- 12 -->
      <g transform="translate(20.878125 43.678313) scale(0.1 -0.1)">
       <use xlink:href="#DejaVuSans-31"/>
       <use xlink:href="#DejaVuSans-32" transform="translate(63.623047 0)"/>
      </g>
     </g>
    </g>
    <g id="text_18">
     <!-- Loss -->
     <g transform="translate(14.798437 310.485313) rotate(-90) scale(0.1 -0.1)">
      <defs>
       <path id="DejaVuSans-4c" d="M 628 4666 
L 1259 4666 
L 1259 531 
L 3531 531 
L 3531 0 
L 628 0 
L 628 4666 
z
" transform="scale(0.015625)"/>
      </defs>
      <use xlink:href="#DejaVuSans-4c"/>
      <use xlink:href="#DejaVuSans-6f" transform="translate(53.962891 0)"/>
      <use xlink:href="#DejaVuSans-73" transform="translate(115.144531 0)"/>
      <use xlink:href="#DejaVuSans-73" transform="translate(167.244141 0)"/>
     </g>
    </g>
   </g>
   <g id="line2d_33">
    <path d="M 65.966761 489.396004 
L 66.601646 490.866877 
L 67.871415 491.214356 
L 72.315607 492.008134 
L 85.648181 494.189021 
L 93.90168 495.823944 
L 108.504024 498.989711 
L 140.883134 506.005467 
L 182.150628 513.879546 
L 189.769242 515.198294 
L 201.197163 517.119292 
L 245.004195 523.785404 
L 283.73215 528.894872 
L 288.176342 529.422962 
L 326.269412 533.794729 
L 331.348489 534.328459 
L 338.967103 535.14734 
L 353.569447 536.602882 
L 364.362483 537.639765 
L 403.090439 541.107006 
L 406.264861 541.368716 
L 410.709053 541.735021 
L 414.51836 542.039732 
L 424.676512 542.805062 
L 427.850935 543.059363 
L 439.278856 543.935877 
L 442.453279 544.160492 
L 448.167239 544.560292 
L 466.57889 545.831359 
L 469.753313 546.016447 
L 472.292851 546.175115 
L 476.737042 546.467472 
L 479.911465 546.581615 
L 481.181234 546.743944 
L 486.895195 547.090183 
L 488.799848 547.210364 
L 493.24404 547.4858 
L 497.688231 547.748619 
L 507.211499 548.26088 
L 509.116153 548.367701 
L 511.020806 548.466578 
L 512.290575 548.529971 
L 517.369651 548.836144 
L 531.337111 549.580738 
L 534.511533 549.729786 
L 537.685956 549.89143 
L 540.860378 550.087733 
L 542.130147 550.120956 
L 548.478993 550.421022 
L 551.018531 550.56477 
L 554.827838 550.713361 
L 556.097607 550.770394 
L 573.239489 551.501242 
L 573.239489 551.501242 
" clip-path="url(#pa35c6874b4)" style="fill: none; stroke: #1f77b4; stroke-width: 1.5; stroke-linecap: square"/>
   </g>
   <g id="line2d_34">
    <path d="M 65.966761 490.603614 
L 67.23653 490.801816 
L 72.315607 491.012624 
L 75.490029 491.002476 
L 85.648181 490.506303 
L 90.092373 490.049127 
L 93.90168 489.567783 
L 105.329601 487.565711 
L 105.964486 487.360442 
L 107.869139 487.059958 
L 108.504024 486.842608 
L 109.773793 486.639935 
L 110.408677 486.440567 
L 111.043562 486.387224 
L 114.852869 485.303456 
L 115.487754 485.326021 
L 118.662176 484.445868 
L 119.931945 484.252627 
L 120.56683 484.136272 
L 121.201714 483.809676 
L 121.836599 483.759454 
L 122.471483 483.331217 
L 123.106368 483.312678 
L 124.376137 482.941919 
L 125.011021 483.001894 
L 126.915675 482.209945 
L 128.185444 481.971533 
L 129.455213 481.638311 
L 130.724982 481.262134 
L 131.359866 480.911308 
L 131.994751 481.044101 
L 133.899404 480.291254 
L 134.534289 480.323562 
L 135.169173 479.74519 
L 135.804058 479.808576 
L 136.438942 479.727313 
L 137.708712 479.252843 
L 138.343596 479.184738 
L 138.978481 478.839498 
L 139.613365 478.755713 
L 140.883134 478.302346 
L 141.518019 478.340224 
L 142.787788 477.684868 
L 143.422672 477.733539 
L 146.597095 476.516427 
L 147.231979 476.58511 
L 147.866864 476.064522 
L 148.501748 476.17908 
L 149.771517 475.472193 
L 150.406402 475.518079 
L 151.676171 474.919066 
L 152.311055 474.877121 
L 152.94594 474.408841 
L 153.580824 474.407412 
L 154.215709 473.942579 
L 156.120362 473.358238 
L 156.755247 473.348884 
L 157.390131 473.047796 
L 158.025016 472.572664 
L 158.659901 472.772773 
L 161.834323 471.380219 
L 162.469208 471.539181 
L 163.738977 470.852253 
L 164.373861 470.958056 
L 165.008746 470.322647 
L 165.64363 470.190937 
L 166.278515 469.85978 
L 166.913399 469.859339 
L 167.548284 469.692641 
L 168.183168 469.381988 
L 169.452937 469.115636 
L 170.087822 468.291416 
L 171.357591 468.329168 
L 173.897129 466.973766 
L 175.166898 466.874857 
L 175.801782 466.207982 
L 176.436667 466.260542 
L 177.071551 465.885054 
L 177.706436 465.983879 
L 178.34132 465.108644 
L 178.976205 465.484574 
L 179.61109 464.879518 
L 180.245974 464.729089 
L 180.880859 463.853402 
L 181.515743 463.874853 
L 182.150628 464.055834 
L 182.785512 463.763038 
L 184.055281 463.696983 
L 184.690166 463.22411 
L 185.32505 463.010475 
L 185.959935 462.529836 
L 186.594819 462.463991 
L 189.134357 461.150325 
L 189.769242 461.009092 
L 190.404126 460.294701 
L 191.673895 460.074886 
L 192.30878 460.079731 
L 192.943664 459.745442 
L 193.578549 459.197571 
L 194.213433 459.267525 
L 195.483202 458.520511 
L 196.118087 457.793445 
L 196.752971 457.6101 
L 197.387856 457.083006 
L 198.02274 457.698919 
L 198.657625 457.781874 
L 199.292509 456.615273 
L 199.927394 455.915543 
L 200.562278 456.488061 
L 201.197163 455.892548 
L 201.832048 456.131533 
L 202.466932 455.791768 
L 203.101817 455.325222 
L 203.736701 454.645798 
L 204.371586 454.729184 
L 205.641355 453.958628 
L 206.276239 453.78533 
L 208.180893 452.494848 
L 208.815777 452.878061 
L 209.450662 452.110647 
L 210.720431 451.954008 
L 211.355315 451.633655 
L 211.9902 451.114622 
L 212.625084 450.898664 
L 213.259969 450.412602 
L 213.894853 450.409543 
L 215.164622 449.983376 
L 215.799507 448.79544 
L 216.434391 449.057158 
L 217.069276 448.925805 
L 217.70416 448.544158 
L 218.339045 448.497978 
L 218.973929 447.669124 
L 219.608814 447.117132 
L 220.243698 446.871137 
L 220.878583 447.196419 
L 221.513467 446.467892 
L 222.148352 446.652226 
L 222.783237 445.210559 
L 223.418121 446.126803 
L 224.053006 445.164778 
L 224.68789 444.755521 
L 225.322775 443.870996 
L 225.957659 444.06524 
L 226.592544 443.873098 
L 227.227428 443.968108 
L 227.862313 443.362421 
L 228.497197 443.454803 
L 229.132082 442.393995 
L 229.766966 442.169156 
L 230.401851 442.347383 
L 231.036735 442.160948 
L 231.67162 440.38764 
L 232.306504 441.436478 
L 232.941389 441.019434 
L 233.576273 439.372246 
L 234.211158 439.9377 
L 235.480927 439.370112 
L 236.115811 438.806633 
L 236.750696 438.887854 
L 237.38558 438.166011 
L 238.020465 438.484714 
L 239.290234 436.578236 
L 239.925118 437.804754 
L 240.560003 436.782475 
L 241.194887 436.437539 
L 241.829772 435.5758 
L 242.464656 435.560266 
L 243.099541 435.370982 
L 243.734425 435.403426 
L 244.36931 433.727304 
L 245.004195 433.696636 
L 245.639079 433.431618 
L 246.273964 432.550992 
L 246.908848 433.206758 
L 247.543733 433.60088 
L 248.178617 431.743073 
L 248.813502 431.905756 
L 249.448386 430.696264 
L 250.083271 430.913967 
L 250.718155 430.641781 
L 251.35304 429.968074 
L 251.987924 429.89627 
L 252.622809 429.221239 
L 253.257693 428.80286 
L 253.892578 429.034005 
L 254.527462 426.986672 
L 255.162347 428.900434 
L 255.797231 427.401152 
L 256.432116 426.991833 
L 257.067 427.845595 
L 257.701885 426.190703 
L 258.336769 426.370738 
L 258.971654 426.274793 
L 259.606538 424.905435 
L 260.241423 425.56715 
L 260.876307 424.110843 
L 261.511192 423.62807 
L 262.146076 424.528528 
L 262.780961 423.170594 
L 263.415845 423.747704 
L 264.05073 421.784619 
L 264.685614 422.593126 
L 265.320499 421.505013 
L 265.955384 420.840166 
L 266.590268 420.713711 
L 267.225153 421.5505 
L 267.860037 421.236369 
L 269.129806 418.612778 
L 270.399575 418.73566 
L 271.03446 417.170354 
L 271.669344 418.090792 
L 272.304229 417.256935 
L 272.939113 415.347587 
L 273.573998 416.368016 
L 274.843767 414.675604 
L 275.478651 416.043932 
L 276.113536 414.199326 
L 276.74842 413.856891 
L 277.383305 414.171832 
L 278.018189 414.104158 
L 278.653074 412.77005 
L 279.287958 411.741097 
L 279.922843 411.202453 
L 280.557727 410.309678 
L 281.192612 410.441514 
L 281.827496 410.194394 
L 282.462381 409.204633 
L 283.097265 410.521926 
L 283.73215 408.490684 
L 284.367034 407.01713 
L 285.001919 407.15172 
L 285.636803 408.266917 
L 286.271688 406.945978 
L 286.906572 407.252163 
L 287.541457 407.193266 
L 288.176342 406.153782 
L 288.811226 406.738722 
L 289.446111 404.828912 
L 290.080995 404.91853 
L 290.71588 404.666765 
L 291.350764 403.932752 
L 291.985649 403.517978 
L 292.620533 404.819674 
L 293.255418 401.227225 
L 293.890302 400.8889 
L 294.525187 402.69007 
L 295.160071 400.806334 
L 295.794956 401.303391 
L 296.42984 399.70666 
L 297.064725 400.172513 
L 297.699609 397.774748 
L 298.334494 395.967746 
L 298.969378 399.205905 
L 299.604263 396.435416 
L 300.239147 396.356445 
L 300.874032 393.838478 
L 301.508916 396.720225 
L 302.143801 395.816466 
L 302.778685 393.381633 
L 303.41357 396.12386 
L 304.048454 391.67995 
L 304.683339 392.915255 
L 305.318223 391.958274 
L 305.953108 392.266656 
L 306.587992 391.141969 
L 307.222877 389.496241 
L 307.857761 390.313535 
L 308.492646 389.881199 
L 309.127531 390.307082 
L 309.762415 388.581878 
L 310.3973 387.507029 
L 311.032184 389.777865 
L 312.301953 385.108013 
L 312.936838 385.753764 
L 313.571722 386.808161 
L 314.206607 383.226948 
L 314.841491 385.519834 
L 315.476376 382.761022 
L 316.11126 384.494675 
L 317.381029 381.319944 
L 318.015914 380.870329 
L 318.650798 380.561275 
L 319.920567 379.518333 
L 320.555452 380.482009 
L 321.190336 378.315872 
L 321.825221 379.623138 
L 322.460105 376.455553 
L 323.09499 378.091716 
L 323.729874 378.4294 
L 324.364759 378.625305 
L 324.999643 375.029483 
L 325.634528 375.882783 
L 326.269412 375.400714 
L 326.904297 374.68892 
L 327.539181 373.222702 
L 328.174066 375.248762 
L 328.80895 372.248747 
L 329.443835 370.625995 
L 330.078719 372.895612 
L 330.713604 372.347057 
L 331.348489 370.94867 
L 331.983373 367.407794 
L 332.618258 369.542947 
L 333.253142 366.941805 
L 333.888027 370.306178 
L 335.157796 365.35838 
L 335.79268 364.14583 
L 336.427565 364.977312 
L 337.062449 363.977272 
L 337.697334 363.585693 
L 338.332218 364.110453 
L 338.967103 361.708432 
L 339.601987 361.857589 
L 340.236872 362.431641 
L 340.871756 361.377958 
L 341.506641 362.462372 
L 342.141525 358.006355 
L 342.77641 359.833483 
L 343.411294 358.883534 
L 344.046179 355.796812 
L 344.681063 357.791658 
L 345.315948 356.565045 
L 345.950832 353.367759 
L 346.585717 356.325987 
L 347.220601 355.555105 
L 347.855486 354.551303 
L 348.49037 354.579112 
L 349.125255 352.743975 
L 349.760139 352.189009 
L 350.395024 353.835094 
L 351.029908 349.904404 
L 351.664793 351.980093 
L 352.299678 351.409047 
L 352.934562 349.185274 
L 353.569447 349.825075 
L 354.204331 347.762504 
L 354.839216 348.093041 
L 355.4741 344.672986 
L 356.108985 348.225739 
L 356.743869 341.694706 
L 357.378754 345.294081 
L 358.013638 343.76453 
L 358.648523 345.781257 
L 359.283407 342.239414 
L 359.918292 344.334504 
L 360.553176 337.642228 
L 361.188061 342.869652 
L 361.822945 341.143713 
L 362.45783 338.804478 
L 363.092714 340.179365 
L 363.727599 337.10164 
L 364.362483 338.77854 
L 364.997368 338.875882 
L 365.632252 335.023976 
L 366.267137 335.532361 
L 366.902021 333.752086 
L 367.536906 337.214579 
L 368.17179 335.84726 
L 368.806675 333.549203 
L 369.441559 332.951419 
L 370.076444 329.302795 
L 370.711328 332.986817 
L 371.346213 330.222182 
L 371.981097 330.508788 
L 372.615982 331.024215 
L 373.250866 328.34757 
L 373.885751 328.657066 
L 374.520636 325.694067 
L 375.15552 328.087113 
L 375.790405 325.461041 
L 376.425289 328.393183 
L 377.060174 324.85073 
L 377.695058 322.816724 
L 378.329943 320.294511 
L 378.964827 322.43143 
L 379.599712 320.499076 
L 380.234596 320.731093 
L 380.869481 319.917373 
L 381.504365 321.600075 
L 382.13925 316.747581 
L 382.774134 316.380218 
L 383.409019 318.375379 
L 384.043903 319.711484 
L 384.678788 314.050589 
L 385.313672 313.714523 
L 385.948557 315.09826 
L 386.583441 314.158736 
L 387.218326 314.23735 
L 387.85321 311.345461 
L 388.488095 312.428235 
L 389.122979 311.489048 
L 389.757864 309.610736 
L 390.392748 308.646619 
L 391.027633 309.158809 
L 391.662517 308.575046 
L 392.297402 309.263257 
L 392.932286 299.833 
L 393.567171 305.796938 
L 394.202055 309.198411 
L 394.83694 303.222701 
L 395.471825 301.414764 
L 396.106709 303.170782 
L 396.741594 304.072722 
L 397.376478 297.123206 
L 398.011363 297.61177 
L 398.646247 300.482387 
L 399.281132 298.280516 
L 399.916016 298.99002 
L 400.550901 296.530047 
L 401.185785 296.279574 
L 401.82067 296.923181 
L 402.455554 296.653559 
L 403.090439 293.564778 
L 403.725323 292.584076 
L 404.360208 292.588217 
L 404.995092 295.33612 
L 405.629977 293.51391 
L 406.264861 291.124185 
L 406.899746 290.067749 
L 407.53463 291.320132 
L 408.169515 286.863926 
L 408.804399 288.936819 
L 409.439284 286.885766 
L 410.074168 288.721639 
L 410.709053 288.888557 
L 411.343937 286.03463 
L 411.978822 280.813491 
L 412.613706 279.377079 
L 413.248591 283.012503 
L 413.883475 281.733929 
L 414.51836 278.849124 
L 415.153244 281.256778 
L 415.788129 278.098526 
L 416.423013 280.190673 
L 417.057898 279.900578 
L 417.692783 273.087081 
L 418.327667 277.349379 
L 418.962552 277.18038 
L 419.597436 274.955387 
L 420.232321 270.438287 
L 420.867205 273.495139 
L 421.50209 267.370147 
L 422.136974 270.003723 
L 422.771859 274.993265 
L 423.406743 264.916038 
L 424.041628 272.653042 
L 425.311397 268.367664 
L 425.946281 262.897986 
L 426.581166 264.355817 
L 427.21605 259.306116 
L 427.850935 264.669181 
L 428.485819 258.764666 
L 429.120704 263.758518 
L 429.755588 257.595458 
L 430.390473 262.305815 
L 431.660242 256.531644 
L 432.295126 257.458766 
L 432.930011 257.345154 
L 433.564895 259.300735 
L 434.19978 252.83026 
L 434.834664 253.628089 
L 435.469549 252.578842 
L 436.104433 255.161487 
L 436.739318 256.963055 
L 437.374202 251.786331 
L 438.009087 245.358254 
L 438.643972 247.593461 
L 439.278856 245.772828 
L 439.913741 245.939999 
L 440.548625 252.171646 
L 441.818394 244.839148 
L 442.453279 245.620182 
L 443.088163 241.427039 
L 443.723048 245.189801 
L 444.357932 245.51008 
L 445.627701 235.149968 
L 446.262586 239.010114 
L 446.89747 238.181113 
L 447.532355 242.660819 
L 448.167239 237.046357 
L 448.802124 235.457782 
L 449.437008 236.490824 
L 450.071893 233.464051 
L 450.706777 226.710985 
L 451.341662 231.59957 
L 451.976546 230.736138 
L 453.246315 231.695609 
L 453.8812 228.201376 
L 454.516084 230.302898 
L 455.150969 234.675403 
L 455.785853 224.401725 
L 456.420738 227.212456 
L 457.055622 220.784567 
L 457.690507 220.003596 
L 458.325391 222.486502 
L 458.960276 225.557879 
L 459.59516 226.115998 
L 460.230045 220.420798 
L 460.86493 217.13237 
L 461.499814 216.83805 
L 462.134699 215.676305 
L 462.769583 215.556576 
L 464.039352 215.726626 
L 464.674237 214.938929 
L 465.309121 213.080228 
L 465.944006 218.926014 
L 467.848659 208.694606 
L 468.483544 209.575548 
L 469.118428 205.210946 
L 469.753313 214.697789 
L 470.388197 206.83372 
L 471.023082 209.040971 
L 471.657966 207.085033 
L 472.292851 205.709999 
L 472.927735 200.965653 
L 473.56262 204.13906 
L 474.197504 201.039433 
L 474.832389 201.177239 
L 475.467273 196.051256 
L 476.102158 196.480313 
L 476.737042 195.647633 
L 478.006811 199.748016 
L 478.641696 190.953819 
L 479.27658 193.97273 
L 479.911465 192.11857 
L 480.546349 192.697667 
L 481.816119 190.80008 
L 482.451003 190.1665 
L 483.085888 189.281102 
L 483.720772 196.567293 
L 484.355657 191.512484 
L 484.990541 187.891817 
L 485.625426 186.346144 
L 486.26031 175.82235 
L 486.895195 186.725384 
L 487.530079 188.258066 
L 488.164964 184.306168 
L 488.799848 182.676878 
L 489.434733 186.452924 
L 490.069617 177.563087 
L 490.704502 175.661506 
L 491.339386 168.750267 
L 491.974271 181.794802 
L 492.609155 177.645233 
L 493.24404 170.834468 
L 493.878924 172.924429 
L 494.513809 173.402756 
L 495.148693 169.872306 
L 495.783578 169.203413 
L 496.418462 166.331514 
L 497.053347 171.451989 
L 497.688231 174.707164 
L 498.323116 166.607588 
L 498.958 170.631795 
L 499.592885 167.777931 
L 500.227769 165.545876 
L 500.862654 162.178876 
L 501.497538 161.106612 
L 502.132423 163.605324 
L 502.767308 154.722298 
L 503.402192 156.711237 
L 504.037077 156.950149 
L 504.671961 157.440626 
L 505.306846 155.368279 
L 505.94173 152.865615 
L 506.576615 161.671121 
L 507.211499 152.185077 
L 508.481268 155.074548 
L 511.020806 142.0079 
L 511.655691 143.566017 
L 512.290575 149.722056 
L 512.92546 143.671453 
L 513.560344 143.345015 
L 514.830113 148.704696 
L 515.464998 142.86509 
L 516.099882 144.343163 
L 516.734767 133.232537 
L 517.369651 138.270867 
L 518.004536 136.996644 
L 518.63942 136.665203 
L 519.274305 137.478713 
L 519.909189 144.760617 
L 520.544074 138.643885 
L 521.178958 133.732137 
L 521.813843 138.768995 
L 522.448727 134.620562 
L 523.083612 139.782068 
L 523.718496 135.573223 
L 524.353381 127.404156 
L 524.988266 125.137334 
L 525.62315 126.887867 
L 526.258035 124.978761 
L 526.892919 122.312268 
L 527.527804 127.782597 
L 528.162688 123.346444 
L 528.797573 118.025439 
L 529.432457 128.180881 
L 530.067342 120.433724 
L 530.702226 120.577837 
L 531.337111 120.141086 
L 531.971995 123.97994 
L 532.60688 119.045406 
L 533.241764 117.739696 
L 533.876649 119.509945 
L 534.511533 110.972232 
L 535.146418 116.506251 
L 535.781302 105.486432 
L 536.416187 117.702196 
L 537.685956 107.887486 
L 538.32084 107.875925 
L 538.955725 108.772968 
L 539.590609 104.232052 
L 540.225494 106.265889 
L 540.860378 103.917637 
L 541.495263 105.241803 
L 542.130147 111.541533 
L 542.765032 90.603628 
L 543.399916 99.58797 
L 544.034801 96.033809 
L 544.669685 108.499037 
L 545.30457 97.684161 
L 545.939455 93.600006 
L 546.574339 94.761016 
L 547.209224 97.271037 
L 547.844108 101.412702 
L 548.478993 91.786666 
L 549.113877 91.455057 
L 549.748762 86.747706 
L 550.383646 91.257177 
L 551.018531 93.675047 
L 551.653415 89.073509 
L 552.2883 88.277488 
L 552.923184 83.046406 
L 553.558069 88.177476 
L 554.192953 86.058508 
L 554.827838 85.226752 
L 555.462722 92.005735 
L 556.097607 83.119093 
L 556.732491 80.832681 
L 557.367376 87.497189 
L 558.00226 77.059115 
L 558.637145 76.590709 
L 559.272029 71.36215 
L 559.906914 69.829803 
L 560.541798 78.144664 
L 561.176683 76.759162 
L 561.811567 78.214996 
L 562.446452 68.874914 
L 563.081336 69.501599 
L 563.716221 69.330666 
L 564.351105 66.970979 
L 564.98599 66.30238 
L 565.620874 68.463471 
L 566.255759 60.988732 
L 566.890643 60.85555 
L 567.525528 69.465361 
L 568.160413 59.98638 
L 568.795297 69.914976 
L 569.430182 54.970121 
L 570.065066 59.959979 
L 570.699951 62.245929 
L 571.334835 54.417047 
L 571.96972 71.053116 
L 572.604604 61.100431 
L 573.239489 47.518125 
L 573.239489 47.518125 
" clip-path="url(#pa35c6874b4)" style="fill: none; stroke: #ff7f0e; stroke-width: 1.5; stroke-linecap: square"/>
   </g>
   <g id="patch_3">
    <path d="M 40.603125 576.718125 
L 40.603125 22.318125 
" style="fill: none; stroke: #000000; stroke-width: 0.8; stroke-linejoin: miter; stroke-linecap: square"/>
   </g>
   <g id="patch_4">
    <path d="M 598.603125 576.718125 
L 598.603125 22.318125 
" style="fill: none; stroke: #000000; stroke-width: 0.8; stroke-linejoin: miter; stroke-linecap: square"/>
   </g>
   <g id="patch_5">
    <path d="M 40.603125 576.718125 
L 598.603125 576.718125 
" style="fill: none; stroke: #000000; stroke-width: 0.8; stroke-linejoin: miter; stroke-linecap: square"/>
   </g>
   <g id="patch_6">
    <path d="M 40.603125 22.318125 
L 598.603125 22.318125 
" style="fill: none; stroke: #000000; stroke-width: 0.8; stroke-linejoin: miter; stroke-linecap: square"/>
   </g>
   <g id="text_19">
    <!-- Train and Val Loss -->
    <g transform="translate(266.057812 16.318125) scale(0.12 -0.12)">
     <defs>
      <path id="DejaVuSans-54" d="M -19 4666 
L 3928 4666 
L 3928 4134 
L 2272 4134 
L 2272 0 
L 1638 0 
L 1638 4134 
L -19 4134 
L -19 4666 
z
" transform="scale(0.015625)"/>
      <path id="DejaVuSans-72" d="M 2631 2963 
Q 2534 3019 2420 3045 
Q 2306 3072 2169 3072 
Q 1681 3072 1420 2755 
Q 1159 2438 1159 1844 
L 1159 0 
L 581 0 
L 581 3500 
L 1159 3500 
L 1159 2956 
Q 1341 3275 1631 3429 
Q 1922 3584 2338 3584 
Q 2397 3584 2469 3576 
Q 2541 3569 2628 3553 
L 2631 2963 
z
" transform="scale(0.015625)"/>
      <path id="DejaVuSans-61" d="M 2194 1759 
Q 1497 1759 1228 1600 
Q 959 1441 959 1056 
Q 959 750 1161 570 
Q 1363 391 1709 391 
Q 2188 391 2477 730 
Q 2766 1069 2766 1631 
L 2766 1759 
L 2194 1759 
z
M 3341 1997 
L 3341 0 
L 2766 0 
L 2766 531 
Q 2569 213 2275 61 
Q 1981 -91 1556 -91 
Q 1019 -91 701 211 
Q 384 513 384 1019 
Q 384 1609 779 1909 
Q 1175 2209 1959 2209 
L 2766 2209 
L 2766 2266 
Q 2766 2663 2505 2880 
Q 2244 3097 1772 3097 
Q 1472 3097 1187 3025 
Q 903 2953 641 2809 
L 641 3341 
Q 956 3463 1253 3523 
Q 1550 3584 1831 3584 
Q 2591 3584 2966 3190 
Q 3341 2797 3341 1997 
z
" transform="scale(0.015625)"/>
      <path id="DejaVuSans-69" d="M 603 3500 
L 1178 3500 
L 1178 0 
L 603 0 
L 603 3500 
z
M 603 4863 
L 1178 4863 
L 1178 4134 
L 603 4134 
L 603 4863 
z
" transform="scale(0.015625)"/>
      <path id="DejaVuSans-6e" d="M 3513 2113 
L 3513 0 
L 2938 0 
L 2938 2094 
Q 2938 2591 2744 2837 
Q 2550 3084 2163 3084 
Q 1697 3084 1428 2787 
Q 1159 2491 1159 1978 
L 1159 0 
L 581 0 
L 581 3500 
L 1159 3500 
L 1159 2956 
Q 1366 3272 1645 3428 
Q 1925 3584 2291 3584 
Q 2894 3584 3203 3211 
Q 3513 2838 3513 2113 
z
" transform="scale(0.015625)"/>
      <path id="DejaVuSans-20" transform="scale(0.015625)"/>
      <path id="DejaVuSans-64" d="M 2906 2969 
L 2906 4863 
L 3481 4863 
L 3481 0 
L 2906 0 
L 2906 525 
Q 2725 213 2448 61 
Q 2172 -91 1784 -91 
Q 1150 -91 751 415 
Q 353 922 353 1747 
Q 353 2572 751 3078 
Q 1150 3584 1784 3584 
Q 2172 3584 2448 3432 
Q 2725 3281 2906 2969 
z
M 947 1747 
Q 947 1113 1208 752 
Q 1469 391 1925 391 
Q 2381 391 2643 752 
Q 2906 1113 2906 1747 
Q 2906 2381 2643 2742 
Q 2381 3103 1925 3103 
Q 1469 3103 1208 2742 
Q 947 2381 947 1747 
z
" transform="scale(0.015625)"/>
      <path id="DejaVuSans-56" d="M 1831 0 
L 50 4666 
L 709 4666 
L 2188 738 
L 3669 4666 
L 4325 4666 
L 2547 0 
L 1831 0 
z
" transform="scale(0.015625)"/>
      <path id="DejaVuSans-6c" d="M 603 4863 
L 1178 4863 
L 1178 0 
L 603 0 
L 603 4863 
z
" transform="scale(0.015625)"/>
     </defs>
     <use xlink:href="#DejaVuSans-54"/>
     <use xlink:href="#DejaVuSans-72" transform="translate(46.333984 0)"/>
     <use xlink:href="#DejaVuSans-61" transform="translate(87.447266 0)"/>
     <use xlink:href="#DejaVuSans-69" transform="translate(148.726562 0)"/>
     <use xlink:href="#DejaVuSans-6e" transform="translate(176.509766 0)"/>
     <use xlink:href="#DejaVuSans-20" transform="translate(239.888672 0)"/>
     <use xlink:href="#DejaVuSans-61" transform="translate(271.675781 0)"/>
     <use xlink:href="#DejaVuSans-6e" transform="translate(332.955078 0)"/>
     <use xlink:href="#DejaVuSans-64" transform="translate(396.333984 0)"/>
     <use xlink:href="#DejaVuSans-20" transform="translate(459.810547 0)"/>
     <use xlink:href="#DejaVuSans-56" transform="translate(491.597656 0)"/>
     <use xlink:href="#DejaVuSans-61" transform="translate(552.255859 0)"/>
     <use xlink:href="#DejaVuSans-6c" transform="translate(613.535156 0)"/>
     <use xlink:href="#DejaVuSans-20" transform="translate(641.318359 0)"/>
     <use xlink:href="#DejaVuSans-4c" transform="translate(673.105469 0)"/>
     <use xlink:href="#DejaVuSans-6f" transform="translate(727.068359 0)"/>
     <use xlink:href="#DejaVuSans-73" transform="translate(788.25 0)"/>
     <use xlink:href="#DejaVuSans-73" transform="translate(840.349609 0)"/>
    </g>
   </g>
   <g id="legend_1">
    <g id="patch_7">
     <path d="M 47.603125 60.230625 
L 127.19375 60.230625 
Q 129.19375 60.230625 129.19375 58.230625 
L 129.19375 29.318125 
Q 129.19375 27.318125 127.19375 27.318125 
L 47.603125 27.318125 
Q 45.603125 27.318125 45.603125 29.318125 
L 45.603125 58.230625 
Q 45.603125 60.230625 47.603125 60.230625 
z
" style="fill: #ffffff; opacity: 0.8; stroke: #cccccc; stroke-linejoin: miter"/>
    </g>
    <g id="line2d_35">
     <path d="M 49.603125 35.416563 
L 59.603125 35.416563 
L 69.603125 35.416563 
" style="fill: none; stroke: #1f77b4; stroke-width: 1.5; stroke-linecap: square"/>
    </g>
    <g id="text_20">
     <!-- train_loss -->
     <g transform="translate(77.603125 38.916563) scale(0.1 -0.1)">
      <defs>
       <path id="DejaVuSans-74" d="M 1172 4494 
L 1172 3500 
L 2356 3500 
L 2356 3053 
L 1172 3053 
L 1172 1153 
Q 1172 725 1289 603 
Q 1406 481 1766 481 
L 2356 481 
L 2356 0 
L 1766 0 
Q 1100 0 847 248 
Q 594 497 594 1153 
L 594 3053 
L 172 3053 
L 172 3500 
L 594 3500 
L 594 4494 
L 1172 4494 
z
" transform="scale(0.015625)"/>
       <path id="DejaVuSans-5f" d="M 3263 -1063 
L 3263 -1509 
L -63 -1509 
L -63 -1063 
L 3263 -1063 
z
" transform="scale(0.015625)"/>
      </defs>
      <use xlink:href="#DejaVuSans-74"/>
      <use xlink:href="#DejaVuSans-72" transform="translate(39.208984 0)"/>
      <use xlink:href="#DejaVuSans-61" transform="translate(80.322266 0)"/>
      <use xlink:href="#DejaVuSans-69" transform="translate(141.601562 0)"/>
      <use xlink:href="#DejaVuSans-6e" transform="translate(169.384766 0)"/>
      <use xlink:href="#DejaVuSans-5f" transform="translate(232.763672 0)"/>
      <use xlink:href="#DejaVuSans-6c" transform="translate(282.763672 0)"/>
      <use xlink:href="#DejaVuSans-6f" transform="translate(310.546875 0)"/>
      <use xlink:href="#DejaVuSans-73" transform="translate(371.728516 0)"/>
      <use xlink:href="#DejaVuSans-73" transform="translate(423.828125 0)"/>
     </g>
    </g>
    <g id="line2d_36">
     <path d="M 49.603125 50.372813 
L 59.603125 50.372813 
L 69.603125 50.372813 
" style="fill: none; stroke: #ff7f0e; stroke-width: 1.5; stroke-linecap: square"/>
    </g>
    <g id="text_21">
     <!-- val_loss -->
     <g transform="translate(77.603125 53.872813) scale(0.1 -0.1)">
      <defs>
       <path id="DejaVuSans-76" d="M 191 3500 
L 800 3500 
L 1894 563 
L 2988 3500 
L 3597 3500 
L 2284 0 
L 1503 0 
L 191 3500 
z
" transform="scale(0.015625)"/>
      </defs>
      <use xlink:href="#DejaVuSans-76"/>
      <use xlink:href="#DejaVuSans-61" transform="translate(59.179688 0)"/>
      <use xlink:href="#DejaVuSans-6c" transform="translate(120.458984 0)"/>
      <use xlink:href="#DejaVuSans-5f" transform="translate(148.242188 0)"/>
      <use xlink:href="#DejaVuSans-6c" transform="translate(198.242188 0)"/>
      <use xlink:href="#DejaVuSans-6f" transform="translate(226.025391 0)"/>
      <use xlink:href="#DejaVuSans-73" transform="translate(287.207031 0)"/>
      <use xlink:href="#DejaVuSans-73" transform="translate(339.306641 0)"/>
     </g>
    </g>
   </g>
  </g>
 </g>
 <defs>
  <clipPath id="pa35c6874b4">
   <rect x="40.603125" y="22.318125" width="558" height="554.4"/>
  </clipPath>
 </defs>
</svg>
