<?xml version="1.0" encoding="utf-8" standalone="no"?>
<!DOCTYPE svg PUBLIC "-//W3C//DTD SVG 1.1//EN"
  "http://www.w3.org/Graphics/SVG/1.1/DTD/svg11.dtd">
<svg xmlns:xlink="http://www.w3.org/1999/xlink" width="608.98125pt" height="614.274375pt" viewBox="0 0 608.98125 614.274375" xmlns="http://www.w3.org/2000/svg" version="1.1">
 <metadata>
  <rdf:RDF xmlns:dc="http://purl.org/dc/elements/1.1/" xmlns:cc="http://creativecommons.org/ns#" xmlns:rdf="http://www.w3.org/1999/02/22-rdf-syntax-ns#">
   <cc:Work>
    <dc:type rdf:resource="http://purl.org/dc/dcmitype/StillImage"/>
    <dc:date>2026-05-25T08:56:59.511688</dc:date>
    <dc:format>image/svg+xml</dc:format>
    <dc:creator>
     <cc:Agent>
      <dc:title>Matplotlib v3.10.9, https://matplotlib.org/</dc:title>
     </cc:Agent>
    </dc:creator>
   </cc:Work>
  </rdf:RDF>
 </metadata>
 <defs>
  <style type="text/css">*{stroke-linejoin: round; stroke-linecap: butt}</style>
 </defs>
 <g id="figure_1">
  <g id="patch_1">
   <path d="M 0 614.274375 
L 608.98125 614.274375 
L 608.98125 0 
L 0 0 
z
" style="fill: #ffffff"/>
  </g>
  <g id="axes_1">
   <g id="patch_2">
    <path d="M 43.78125 576.718125 
L 601.78125 576.718125 
L 601.78125 22.318125 
L 43.78125 22.318125 
z
" style="fill: #ffffff"/>
   </g>
   <g id="matplotlib.axis_1">
    <g id="xtick_1">
     <g id="line2d_1">
      <path d="M 69.144886 576.718125 
L 69.144886 22.318125 
" clip-path="url(#pf6b37f9949)" style="fill: none; stroke: #b0b0b0; stroke-width: 0.8; stroke-linecap: square"/>
     </g>
     <g id="line2d_2">
      <defs>
       <path id="m227bdc832c" d="M 0 0 
L 0 3.5 
" style="stroke: #000000; stroke-width: 0.8"/>
      </defs>
      <g>
       <use xlink:href="#m227bdc832c" x="69.144886" y="576.718125" style="stroke: #000000; stroke-width: 0.8"/>
      </g>
     </g>
     <g id="text_1">
      <!-- 0 -->
      <g transform="translate(65.963636 591.316563) scale(0.1 -0.1)">
       <defs>
        <path id="DejaVuSans-30" d="M 2034 4250 
Q 1547 4250 1301 3770 
Q 1056 3291 1056 2328 
Q 1056 1369 1301 889 
Q 1547 409 2034 409 
Q 2525 409 2770 889 
Q 3016 1369 3016 2328 
Q 3016 3291 2770 3770 
Q 2525 4250 2034 4250 
z
M 2034 4750 
Q 2819 4750 3233 4129 
Q 3647 3509 3647 2328 
Q 3647 1150 3233 529 
Q 2819 -91 2034 -91 
Q 1250 -91 836 529 
Q 422 1150 422 2328 
Q 422 3509 836 4129 
Q 1250 4750 2034 4750 
z
" transform="scale(0.015625)"/>
       </defs>
       <use xlink:href="#DejaVuSans-30"/>
      </g>
     </g>
    </g>
    <g id="xtick_2">
     <g id="line2d_3">
      <path d="M 132.633338 576.718125 
L 132.633338 22.318125 
" clip-path="url(#pf6b37f9949)" style="fill: none; stroke: #b0b0b0; stroke-width: 0.8; stroke-linecap: square"/>
     </g>
     <g id="line2d_4">
      <g>
       <use xlink:href="#m227bdc832c" x="132.633338" y="576.718125" style="stroke: #000000; stroke-width: 0.8"/>
      </g>
     </g>
     <g id="text_2">
      <!-- 100 -->
      <g transform="translate(123.089588 591.316563) scale(0.1 -0.1)">
       <defs>
        <path id="DejaVuSans-31" d="M 794 531 
L 1825 531 
L 1825 4091 
L 703 3866 
L 703 4441 
L 1819 4666 
L 2450 4666 
L 2450 531 
L 3481 531 
L 3481 0 
L 794 0 
L 794 531 
z
" transform="scale(0.015625)"/>
       </defs>
       <use xlink:href="#DejaVuSans-31"/>
       <use xlink:href="#DejaVuSans-30" transform="translate(63.623047 0)"/>
       <use xlink:href="#DejaVuSans-30" transform="translate(127.246094 0)"/>
      </g>
     </g>
    </g>
    <g id="xtick_3">
     <g id="line2d_5">
      <path d="M 196.121789 576.718125 
L 196.121789 22.318125 
" clip-path="url(#pf6b37f9949)" style="fill: none; stroke: #b0b0b0; stroke-width: 0.8; stroke-linecap: square"/>
     </g>
     <g id="line2d_6">
      <g>
       <use xlink:href="#m227bdc832c" x="196.121789" y="576.718125" style="stroke: #000000; stroke-width: 0.8"/>
      </g>
     </g>
     <g id="text_3">
      <!-- 200 -->
      <g transform="translate(186.578039 591.316563) scale(0.1 -0.1)">
       <defs>
        <path id="DejaVuSans-32" d="M 1228 531 
L 3431 531 
L 3431 0 
L 469 0 
L 469 531 
Q 828 903 1448 1529 
Q 2069 2156 2228 2338 
Q 2531 2678 2651 2914 
Q 2772 3150 2772 3378 
Q 2772 3750 2511 3984 
Q 2250 4219 1831 4219 
Q 1534 4219 1204 4116 
Q 875 4013 500 3803 
L 500 4441 
Q 881 4594 1212 4672 
Q 1544 4750 1819 4750 
Q 2544 4750 2975 4387 
Q 3406 4025 3406 3419 
Q 3406 3131 3298 2873 
Q 3191 2616 2906 2266 
Q 2828 2175 2409 1742 
Q 1991 1309 1228 531 
z
" transform="scale(0.015625)"/>
       </defs>
       <use xlink:href="#DejaVuSans-32"/>
       <use xlink:href="#DejaVuSans-30" transform="translate(63.623047 0)"/>
       <use xlink:href="#DejaVuSans-30" transform="translate(127.246094 0)"/>
      </g>
     </g>
    </g>
    <g id="xtick_4">
     <g id="line2d_7">
      <path d="M 259.610241 576.718125 
L 259.610241 22.318125 
" clip-path="url(#pf6b37f9949)" style="fill: none; stroke: #b0b0b0; stroke-width: 0.8; stroke-linecap: square"/>
     </g>
     <g id="line2d_8">
      <g>
       <use xlink:href="#m227bdc832c" x="259.610241" y="576.718125" style="stroke: #000000; stroke-width: 0.8"/>
      </g>
     </g>
     <g id="text_4">
      <!-- 300 -->
      <g transform="translate(250.066491 591.316563) scale(0.1 -0.1)">
       <defs>
        <path id="DejaVuSans-33" d="M 2597 2516 
Q 3050 2419 3304 2112 
Q 3559 1806 3559 1356 
Q 3559 666 3084 287 
Q 2609 -91 1734 -91 
Q 1441 -91 1130 -33 
Q 819 25 488 141 
L 488 750 
Q 750 597 1062 519 
Q 1375 441 1716 441 
Q 2309 441 2620 675 
Q 2931 909 2931 1356 
Q 2931 1769 2642 2001 
Q 2353 2234 1838 2234 
L 1294 2234 
L 1294 2753 
L 1863 2753 
Q 2328 2753 2575 2939 
Q 2822 3125 2822 3475 
Q 2822 3834 2567 4026 
Q 2313 4219 1838 4219 
Q 1578 4219 1281 4162 
Q 984 4106 628 3988 
L 628 4550 
Q 988 4650 1302 4700 
Q 1616 4750 1894 4750 
Q 2613 4750 3031 4423 
Q 3450 4097 3450 3541 
Q 3450 3153 3228 2886 
Q 3006 2619 2597 2516 
z
" transform="scale(0.015625)"/>
       </defs>
       <use xlink:href="#DejaVuSans-33"/>
       <use xlink:href="#DejaVuSans-30" transform="translate(63.623047 0)"/>
       <use xlink:href="#DejaVuSans-30" transform="translate(127.246094 0)"/>
      </g>
     </g>
    </g>
    <g id="xtick_5">
     <g id="line2d_9">
      <path d="M 323.098692 576.718125 
L 323.098692 22.318125 
" clip-path="url(#pf6b37f9949)" style="fill: none; stroke: #b0b0b0; stroke-width: 0.8; stroke-linecap: square"/>
     </g>
     <g id="line2d_10">
      <g>
       <use xlink:href="#m227bdc832c" x="323.098692" y="576.718125" style="stroke: #000000; stroke-width: 0.8"/>
      </g>
     </g>
     <g id="text_5">
      <!-- 400 -->
      <g transform="translate(313.554942 591.316563) scale(0.1 -0.1)">
       <defs>
        <path id="DejaVuSans-34" d="M 2419 4116 
L 825 1625 
L 2419 1625 
L 2419 4116 
z
M 2253 4666 
L 3047 4666 
L 3047 1625 
L 3713 1625 
L 3713 1100 
L 3047 1100 
L 3047 0 
L 2419 0 
L 2419 1100 
L 313 1100 
L 313 1709 
L 2253 4666 
z
" transform="scale(0.015625)"/>
       </defs>
       <use xlink:href="#DejaVuSans-34"/>
       <use xlink:href="#DejaVuSans-30" transform="translate(63.623047 0)"/>
       <use xlink:href="#DejaVuSans-30" transform="translate(127.246094 0)"/>
      </g>
     </g>
    </g>
    <g id="xtick_6">
     <g id="line2d_11">
      <path d="M 386.587144 576.718125 
L 386.587144 22.318125 
" clip-path="url(#pf6b37f9949)" style="fill: none; stroke: #b0b0b0; stroke-width: 0.8; stroke-linecap: square"/>
     </g>
     <g id="line2d_12">
      <g>
       <use xlink:href="#m227bdc832c" x="386.587144" y="576.718125" style="stroke: #000000; stroke-width: 0.8"/>
      </g>
     </g>
     <g id="text_6">
      <!-- 500 -->
      <g transform="translate(377.043394 591.316563) scale(0.1 -0.1)">
       <defs>
        <path id="DejaVuSans-35" d="M 691 4666 
L 3169 4666 
L 3169 4134 
L 1269 4134 
L 1269 2991 
Q 1406 3038 1543 3061 
Q 1681 3084 1819 3084 
Q 2600 3084 3056 2656 
Q 3513 2228 3513 1497 
Q 3513 744 3044 326 
Q 2575 -91 1722 -91 
Q 1428 -91 1123 -41 
Q 819 9 494 109 
L 494 744 
Q 775 591 1075 516 
Q 1375 441 1709 441 
Q 2250 441 2565 725 
Q 2881 1009 2881 1497 
Q 2881 1984 2565 2268 
Q 2250 2553 1709 2553 
Q 1456 2553 1204 2497 
Q 953 2441 691 2322 
L 691 4666 
z
" transform="scale(0.015625)"/>
       </defs>
       <use xlink:href="#DejaVuSans-35"/>
       <use xlink:href="#DejaVuSans-30" transform="translate(63.623047 0)"/>
       <use xlink:href="#DejaVuSans-30" transform="translate(127.246094 0)"/>
      </g>
     </g>
    </g>
    <g id="xtick_7">
     <g id="line2d_13">
      <path d="M 450.075595 576.718125 
L 450.075595 22.318125 
" clip-path="url(#pf6b37f9949)" style="fill: none; stroke: #b0b0b0; stroke-width: 0.8; stroke-linecap: square"/>
     </g>
     <g id="line2d_14">
      <g>
       <use xlink:href="#m227bdc832c" x="450.075595" y="576.718125" style="stroke: #000000; stroke-width: 0.8"/>
      </g>
     </g>
     <g id="text_7">
      <!-- 600 -->
      <g transform="translate(440.531845 591.316563) scale(0.1 -0.1)">
       <defs>
        <path id="DejaVuSans-36" d="M 2113 2584 
Q 1688 2584 1439 2293 
Q 1191 2003 1191 1497 
Q 1191 994 1439 701 
Q 1688 409 2113 409 
Q 2538 409 2786 701 
Q 3034 994 3034 1497 
Q 3034 2003 2786 2293 
Q 2538 2584 2113 2584 
z
M 3366 4563 
L 3366 3988 
Q 3128 4100 2886 4159 
Q 2644 4219 2406 4219 
Q 1781 4219 1451 3797 
Q 1122 3375 1075 2522 
Q 1259 2794 1537 2939 
Q 1816 3084 2150 3084 
Q 2853 3084 3261 2657 
Q 3669 2231 3669 1497 
Q 3669 778 3244 343 
Q 2819 -91 2113 -91 
Q 1303 -91 875 529 
Q 447 1150 447 2328 
Q 447 3434 972 4092 
Q 1497 4750 2381 4750 
Q 2619 4750 2861 4703 
Q 3103 4656 3366 4563 
z
" transform="scale(0.015625)"/>
       </defs>
       <use xlink:href="#DejaVuSans-36"/>
       <use xlink:href="#DejaVuSans-30" transform="translate(63.623047 0)"/>
       <use xlink:href="#DejaVuSans-30" transform="translate(127.246094 0)"/>
      </g>
     </g>
    </g>
    <g id="xtick_8">
     <g id="line2d_15">
      <path d="M 513.564047 576.718125 
L 513.564047 22.318125 
" clip-path="url(#pf6b37f9949)" style="fill: none; stroke: #b0b0b0; stroke-width: 0.8; stroke-linecap: square"/>
     </g>
     <g id="line2d_16">
      <g>
       <use xlink:href="#m227bdc832c" x="513.564047" y="576.718125" style="stroke: #000000; stroke-width: 0.8"/>
      </g>
     </g>
     <g id="text_8">
      <!-- 700 -->
      <g transform="translate(504.020297 591.316563) scale(0.1 -0.1)">
       <defs>
        <path id="DejaVuSans-37" d="M 525 4666 
L 3525 4666 
L 3525 4397 
L 1831 0 
L 1172 0 
L 2766 4134 
L 525 4134 
L 525 4666 
z
" transform="scale(0.015625)"/>
       </defs>
       <use xlink:href="#DejaVuSans-37"/>
       <use xlink:href="#DejaVuSans-30" transform="translate(63.623047 0)"/>
       <use xlink:href="#DejaVuSans-30" transform="translate(127.246094 0)"/>
      </g>
     </g>
    </g>
    <g id="xtick_9">
     <g id="line2d_17">
      <path d="M 577.052498 576.718125 
L 577.052498 22.318125 
" clip-path="url(#pf6b37f9949)" style="fill: none; stroke: #b0b0b0; stroke-width: 0.8; stroke-linecap: square"/>
     </g>
     <g id="line2d_18">
      <g>
       <use xlink:href="#m227bdc832c" x="577.052498" y="576.718125" style="stroke: #000000; stroke-width: 0.8"/>
      </g>
     </g>
     <g id="text_9">
      <!-- 800 -->
      <g transform="translate(567.508748 591.316563) scale(0.1 -0.1)">
       <defs>
        <path id="DejaVuSans-38" d="M 2034 2216 
Q 1584 2216 1326 1975 
Q 1069 1734 1069 1313 
Q 1069 891 1326 650 
Q 1584 409 2034 409 
Q 2484 409 2743 651 
Q 3003 894 3003 1313 
Q 3003 1734 2745 1975 
Q 2488 2216 2034 2216 
z
M 1403 2484 
Q 997 2584 770 2862 
Q 544 3141 544 3541 
Q 544 4100 942 4425 
Q 1341 4750 2034 4750 
Q 2731 4750 3128 4425 
Q 3525 4100 3525 3541 
Q 3525 3141 3298 2862 
Q 3072 2584 2669 2484 
Q 3125 2378 3379 2068 
Q 3634 1759 3634 1313 
Q 3634 634 3220 271 
Q 2806 -91 2034 -91 
Q 1263 -91 848 271 
Q 434 634 434 1313 
Q 434 1759 690 2068 
Q 947 2378 1403 2484 
z
M 1172 3481 
Q 1172 3119 1398 2916 
Q 1625 2713 2034 2713 
Q 2441 2713 2670 2916 
Q 2900 3119 2900 3481 
Q 2900 3844 2670 4047 
Q 2441 4250 2034 4250 
Q 1625 4250 1398 4047 
Q 1172 3844 1172 3481 
z
" transform="scale(0.015625)"/>
       </defs>
       <use xlink:href="#DejaVuSans-38"/>
       <use xlink:href="#DejaVuSans-30" transform="translate(63.623047 0)"/>
       <use xlink:href="#DejaVuSans-30" transform="translate(127.246094 0)"/>
      </g>
     </g>
    </g>
    <g id="text_10">
     <!-- Epochs -->
     <g transform="translate(304.865625 604.994688) scale(0.1 -0.1)">
      <defs>
       <path id="DejaVuSans-45" d="M 628 4666 
L 3578 4666 
L 3578 4134 
L 1259 4134 
L 1259 2753 
L 3481 2753 
L 3481 2222 
L 1259 2222 
L 1259 531 
L 3634 531 
L 3634 0 
L 628 0 
L 628 4666 
z
" transform="scale(0.015625)"/>
       <path id="DejaVuSans-70" d="M 1159 525 
L 1159 -1331 
L 581 -1331 
L 581 3500 
L 1159 3500 
L 1159 2969 
Q 1341 3281 1617 3432 
Q 1894 3584 2278 3584 
Q 2916 3584 3314 3078 
Q 3713 2572 3713 1747 
Q 3713 922 3314 415 
Q 2916 -91 2278 -91 
Q 1894 -91 1617 61 
Q 1341 213 1159 525 
z
M 3116 1747 
Q 3116 2381 2855 2742 
Q 2594 3103 2138 3103 
Q 1681 3103 1420 2742 
Q 1159 2381 1159 1747 
Q 1159 1113 1420 752 
Q 1681 391 2138 391 
Q 2594 391 2855 752 
Q 3116 1113 3116 1747 
z
" transform="scale(0.015625)"/>
       <path id="DejaVuSans-6f" d="M 1959 3097 
Q 1497 3097 1228 2736 
Q 959 2375 959 1747 
Q 959 1119 1226 758 
Q 1494 397 1959 397 
Q 2419 397 2687 759 
Q 2956 1122 2956 1747 
Q 2956 2369 2687 2733 
Q 2419 3097 1959 3097 
z
M 1959 3584 
Q 2709 3584 3137 3096 
Q 3566 2609 3566 1747 
Q 3566 888 3137 398 
Q 2709 -91 1959 -91 
Q 1206 -91 779 398 
Q 353 888 353 1747 
Q 353 2609 779 3096 
Q 1206 3584 1959 3584 
z
" transform="scale(0.015625)"/>
       <path id="DejaVuSans-63" d="M 3122 3366 
L 3122 2828 
Q 2878 2963 2633 3030 
Q 2388 3097 2138 3097 
Q 1578 3097 1268 2742 
Q 959 2388 959 1747 
Q 959 1106 1268 751 
Q 1578 397 2138 397 
Q 2388 397 2633 464 
Q 2878 531 3122 666 
L 3122 134 
Q 2881 22 2623 -34 
Q 2366 -91 2075 -91 
Q 1284 -91 818 406 
Q 353 903 353 1747 
Q 353 2603 823 3093 
Q 1294 3584 2113 3584 
Q 2378 3584 2631 3529 
Q 2884 3475 3122 3366 
z
" transform="scale(0.015625)"/>
       <path id="DejaVuSans-68" d="M 3513 2113 
L 3513 0 
L 2938 0 
L 2938 2094 
Q 2938 2591 2744 2837 
Q 2550 3084 2163 3084 
Q 1697 3084 1428 2787 
Q 1159 2491 1159 1978 
L 1159 0 
L 581 0 
L 581 4863 
L 1159 4863 
L 1159 2956 
Q 1366 3272 1645 3428 
Q 1925 3584 2291 3584 
Q 2894 3584 3203 3211 
Q 3513 2838 3513 2113 
z
" transform="scale(0.015625)"/>
       <path id="DejaVuSans-73" d="M 2834 3397 
L 2834 2853 
Q 2591 2978 2328 3040 
Q 2066 3103 1784 3103 
Q 1356 3103 1142 2972 
Q 928 2841 928 2578 
Q 928 2378 1081 2264 
Q 1234 2150 1697 2047 
L 1894 2003 
Q 2506 1872 2764 1633 
Q 3022 1394 3022 966 
Q 3022 478 2636 193 
Q 2250 -91 1575 -91 
Q 1294 -91 989 -36 
Q 684 19 347 128 
L 347 722 
Q 666 556 975 473 
Q 1284 391 1588 391 
Q 1994 391 2212 530 
Q 2431 669 2431 922 
Q 2431 1156 2273 1281 
Q 2116 1406 1581 1522 
L 1381 1569 
Q 847 1681 609 1914 
Q 372 2147 372 2553 
Q 372 3047 722 3315 
Q 1072 3584 1716 3584 
Q 2034 3584 2315 3537 
Q 2597 3491 2834 3397 
z
" transform="scale(0.015625)"/>
      </defs>
      <use xlink:href="#DejaVuSans-45"/>
      <use xlink:href="#DejaVuSans-70" transform="translate(63.183594 0)"/>
      <use xlink:href="#DejaVuSans-6f" transform="translate(126.660156 0)"/>
      <use xlink:href="#DejaVuSans-63" transform="translate(187.841797 0)"/>
      <use xlink:href="#DejaVuSans-68" transform="translate(242.822266 0)"/>
      <use xlink:href="#DejaVuSans-73" transform="translate(306.201172 0)"/>
     </g>
    </g>
   </g>
   <g id="matplotlib.axis_2">
    <g id="ytick_1">
     <g id="line2d_19">
      <path d="M 43.78125 553.787899 
L 601.78125 553.787899 
" clip-path="url(#pf6b37f9949)" style="fill: none; stroke: #b0b0b0; stroke-width: 0.8; stroke-linecap: square"/>
     </g>
     <g id="line2d_20">
      <defs>
       <path id="me6b73440ca" d="M 0 0 
L -3.5 0 
" style="stroke: #000000; stroke-width: 0.8"/>
      </defs>
      <g>
       <use xlink:href="#me6b73440ca" x="43.78125" y="553.787899" style="stroke: #000000; stroke-width: 0.8"/>
      </g>
     </g>
     <g id="text_11">
      <!-- 0.0 -->
      <g transform="translate(20.878125 557.587118) scale(0.1 -0.1)">
       <defs>
        <path id="DejaVuSans-2e" d="M 684 794 
L 1344 794 
L 1344 0 
L 684 0 
L 684 794 
z
" transform="scale(0.015625)"/>
       </defs>
       <use xlink:href="#DejaVuSans-30"/>
       <use xlink:href="#DejaVuSans-2e" transform="translate(63.623047 0)"/>
       <use xlink:href="#DejaVuSans-30" transform="translate(95.410156 0)"/>
      </g>
     </g>
    </g>
    <g id="ytick_2">
     <g id="line2d_21">
      <path d="M 43.78125 437.57547 
L 601.78125 437.57547 
" clip-path="url(#pf6b37f9949)" style="fill: none; stroke: #b0b0b0; stroke-width: 0.8; stroke-linecap: square"/>
     </g>
     <g id="line2d_22">
      <g>
       <use xlink:href="#me6b73440ca" x="43.78125" y="437.57547" style="stroke: #000000; stroke-width: 0.8"/>
      </g>
     </g>
     <g id="text_12">
      <!-- 0.2 -->
      <g transform="translate(20.878125 441.374689) scale(0.1 -0.1)">
       <use xlink:href="#DejaVuSans-30"/>
       <use xlink:href="#DejaVuSans-2e" transform="translate(63.623047 0)"/>
       <use xlink:href="#DejaVuSans-32" transform="translate(95.410156 0)"/>
      </g>
     </g>
    </g>
    <g id="ytick_3">
     <g id="line2d_23">
      <path d="M 43.78125 321.363041 
L 601.78125 321.363041 
" clip-path="url(#pf6b37f9949)" style="fill: none; stroke: #b0b0b0; stroke-width: 0.8; stroke-linecap: square"/>
     </g>
     <g id="line2d_24">
      <g>
       <use xlink:href="#me6b73440ca" x="43.78125" y="321.363041" style="stroke: #000000; stroke-width: 0.8"/>
      </g>
     </g>
     <g id="text_13">
      <!-- 0.4 -->
      <g transform="translate(20.878125 325.16226) scale(0.1 -0.1)">
       <use xlink:href="#DejaVuSans-30"/>
       <use xlink:href="#DejaVuSans-2e" transform="translate(63.623047 0)"/>
       <use xlink:href="#DejaVuSans-34" transform="translate(95.410156 0)"/>
      </g>
     </g>
    </g>
    <g id="ytick_4">
     <g id="line2d_25">
      <path d="M 43.78125 205.150612 
L 601.78125 205.150612 
" clip-path="url(#pf6b37f9949)" style="fill: none; stroke: #b0b0b0; stroke-width: 0.8; stroke-linecap: square"/>
     </g>
     <g id="line2d_26">
      <g>
       <use xlink:href="#me6b73440ca" x="43.78125" y="205.150612" style="stroke: #000000; stroke-width: 0.8"/>
      </g>
     </g>
     <g id="text_14">
      <!-- 0.6 -->
      <g transform="translate(20.878125 208.94983) scale(0.1 -0.1)">
       <use xlink:href="#DejaVuSans-30"/>
       <use xlink:href="#DejaVuSans-2e" transform="translate(63.623047 0)"/>
       <use xlink:href="#DejaVuSans-36" transform="translate(95.410156 0)"/>
      </g>
     </g>
    </g>
    <g id="ytick_5">
     <g id="line2d_27">
      <path d="M 43.78125 88.938183 
L 601.78125 88.938183 
" clip-path="url(#pf6b37f9949)" style="fill: none; stroke: #b0b0b0; stroke-width: 0.8; stroke-linecap: square"/>
     </g>
     <g id="line2d_28">
      <g>
       <use xlink:href="#me6b73440ca" x="43.78125" y="88.938183" style="stroke: #000000; stroke-width: 0.8"/>
      </g>
     </g>
     <g id="text_15">
      <!-- 0.8 -->
      <g transform="translate(20.878125 92.737401) scale(0.1 -0.1)">
       <use xlink:href="#DejaVuSans-30"/>
       <use xlink:href="#DejaVuSans-2e" transform="translate(63.623047 0)"/>
       <use xlink:href="#DejaVuSans-38" transform="translate(95.410156 0)"/>
      </g>
     </g>
    </g>
    <g id="text_16">
     <!-- Accuracy -->
     <g transform="translate(14.798438 322.34625) rotate(-90) scale(0.1 -0.1)">
      <defs>
       <path id="DejaVuSans-41" d="M 2188 4044 
L 1331 1722 
L 3047 1722 
L 2188 4044 
z
M 1831 4666 
L 2547 4666 
L 4325 0 
L 3669 0 
L 3244 1197 
L 1141 1197 
L 716 0 
L 50 0 
L 1831 4666 
z
" transform="scale(0.015625)"/>
       <path id="DejaVuSans-75" d="M 544 1381 
L 544 3500 
L 1119 3500 
L 1119 1403 
Q 1119 906 1312 657 
Q 1506 409 1894 409 
Q 2359 409 2629 706 
Q 2900 1003 2900 1516 
L 2900 3500 
L 3475 3500 
L 3475 0 
L 2900 0 
L 2900 538 
Q 2691 219 2414 64 
Q 2138 -91 1772 -91 
Q 1169 -91 856 284 
Q 544 659 544 1381 
z
M 1991 3584 
L 1991 3584 
z
" transform="scale(0.015625)"/>
       <path id="DejaVuSans-72" d="M 2631 2963 
Q 2534 3019 2420 3045 
Q 2306 3072 2169 3072 
Q 1681 3072 1420 2755 
Q 1159 2438 1159 1844 
L 1159 0 
L 581 0 
L 581 3500 
L 1159 3500 
L 1159 2956 
Q 1341 3275 1631 3429 
Q 1922 3584 2338 3584 
Q 2397 3584 2469 3576 
Q 2541 3569 2628 3553 
L 2631 2963 
z
" transform="scale(0.015625)"/>
       <path id="DejaVuSans-61" d="M 2194 1759 
Q 1497 1759 1228 1600 
Q 959 1441 959 1056 
Q 959 750 1161 570 
Q 1363 391 1709 391 
Q 2188 391 2477 730 
Q 2766 1069 2766 1631 
L 2766 1759 
L 2194 1759 
z
M 3341 1997 
L 3341 0 
L 2766 0 
L 2766 531 
Q 2569 213 2275 61 
Q 1981 -91 1556 -91 
Q 1019 -91 701 211 
Q 384 513 384 1019 
Q 384 1609 779 1909 
Q 1175 2209 1959 2209 
L 2766 2209 
L 2766 2266 
Q 2766 2663 2505 2880 
Q 2244 3097 1772 3097 
Q 1472 3097 1187 3025 
Q 903 2953 641 2809 
L 641 3341 
Q 956 3463 1253 3523 
Q 1550 3584 1831 3584 
Q 2591 3584 2966 3190 
Q 3341 2797 3341 1997 
z
" transform="scale(0.015625)"/>
       <path id="DejaVuSans-79" d="M 2059 -325 
Q 1816 -950 1584 -1140 
Q 1353 -1331 966 -1331 
L 506 -1331 
L 506 -850 
L 844 -850 
Q 1081 -850 1212 -737 
Q 1344 -625 1503 -206 
L 1606 56 
L 191 3500 
L 800 3500 
L 1894 763 
L 2988 3500 
L 3597 3500 
L 2059 -325 
z
" transform="scale(0.015625)"/>
      </defs>
      <use xlink:href="#DejaVuSans-41"/>
      <use xlink:href="#DejaVuSans-63" transform="translate(66.658203 0)"/>
      <use xlink:href="#DejaVuSans-63" transform="translate(121.638672 0)"/>
      <use xlink:href="#DejaVuSans-75" transform="translate(176.619141 0)"/>
      <use xlink:href="#DejaVuSans-72" transform="translate(239.998047 0)"/>
      <use xlink:href="#DejaVuSans-61" transform="translate(281.111328 0)"/>
      <use xlink:href="#DejaVuSans-63" transform="translate(342.390625 0)"/>
      <use xlink:href="#DejaVuSans-79" transform="translate(397.371094 0)"/>
     </g>
    </g>
   </g>
   <g id="line2d_29">
    <path d="M 69.144886 405.31683 
L 69.779771 398.450621 
L 70.414655 396.28778 
L 71.04954 394.77701 
L 74.223962 390.877447 
L 75.493732 388.914738 
L 76.763501 387.332968 
L 77.398385 386.01911 
L 78.03327 385.286341 
L 78.668154 384.23719 
L 79.303039 382.674781 
L 79.937923 382.145366 
L 80.572808 381.364161 
L 81.207692 379.811432 
L 82.477461 377.377424 
L 83.112346 377.157914 
L 83.74723 375.537406 
L 86.286768 371.134247 
L 86.921653 370.40146 
L 87.556537 369.145718 
L 88.191422 368.587245 
L 88.826306 367.357339 
L 89.461191 366.379223 
L 90.73096 363.806402 
L 92.000729 361.753315 
L 93.270498 359.445201 
L 94.540267 357.485731 
L 97.079805 352.998653 
L 97.71469 352.114136 
L 98.349574 350.880992 
L 98.984459 349.36378 
L 99.619343 348.618075 
L 100.889112 346.300299 
L 102.793766 343.127045 
L 103.42865 341.738949 
L 104.698419 339.927971 
L 105.333304 338.268725 
L 105.968188 337.594038 
L 106.603073 336.364132 
L 107.237957 335.647485 
L 107.872842 334.298127 
L 108.507726 333.420086 
L 109.142611 332.777677 
L 109.777495 331.289524 
L 110.41238 330.424383 
L 111.047264 328.842597 
L 111.682149 328.31642 
L 112.317033 326.883126 
L 112.951918 326.092241 
L 113.586802 324.901057 
L 114.221687 324.471716 
L 114.856571 322.977103 
L 115.491456 322.089364 
L 116.12634 320.953075 
L 116.761225 320.346183 
L 117.396109 318.777315 
L 118.030994 317.866977 
L 118.665879 317.376317 
L 119.935648 315.294173 
L 120.570532 313.680107 
L 121.205417 313.308865 
L 121.840301 312.527661 
L 122.475186 311.494667 
L 123.11007 310.151768 
L 124.379839 308.334332 
L 125.014724 307.227083 
L 126.284493 305.858364 
L 126.919377 304.450907 
L 127.554262 303.902132 
L 128.189146 302.475297 
L 128.824031 301.613378 
L 129.458915 300.983905 
L 130.728684 299.179387 
L 131.363569 298.569257 
L 131.998453 297.165039 
L 132.633338 296.606566 
L 133.268222 295.312085 
L 133.903107 294.821408 
L 134.537991 293.520485 
L 135.172876 293.120186 
L 135.80776 291.980658 
L 136.442645 291.238191 
L 137.077529 290.021187 
L 138.347298 288.329662 
L 138.982183 287.793788 
L 139.617067 286.337913 
L 140.251952 286.350814 
L 141.521721 284.317105 
L 142.156606 283.164659 
L 144.061259 280.772627 
L 144.696144 280.29163 
L 145.331028 279.633099 
L 145.965913 278.477431 
L 147.235682 276.869825 
L 147.870566 276.327491 
L 148.505451 275.417171 
L 149.140335 274.125911 
L 149.77522 273.089697 
L 150.410104 272.676496 
L 151.044989 271.604747 
L 151.679873 271.440114 
L 153.584527 268.350813 
L 154.219411 268.131285 
L 158.663603 262.720969 
L 159.298487 262.30453 
L 159.933372 261.342536 
L 160.568256 261.110142 
L 161.203141 259.638093 
L 161.838026 259.557395 
L 162.47291 258.35331 
L 163.107795 257.95301 
L 163.742679 256.852237 
L 164.377564 256.506832 
L 165.012448 255.948359 
L 165.647333 254.799134 
L 166.282217 254.250358 
L 166.917102 253.465932 
L 167.551986 253.036575 
L 169.45664 250.596124 
L 170.091524 250.03443 
L 170.726409 249.969872 
L 172.631062 247.313132 
L 173.265947 247.14204 
L 173.900831 246.096128 
L 174.535716 245.631271 
L 175.1706 244.569219 
L 175.805485 244.269011 
L 177.075254 242.745323 
L 178.345023 241.26039 
L 178.979907 241.02474 
L 180.249676 239.45911 
L 180.884561 238.626232 
L 181.519445 238.409977 
L 182.15433 237.977398 
L 182.789215 236.708755 
L 183.424099 236.844312 
L 184.058984 235.733842 
L 184.693868 235.70804 
L 185.328753 234.326386 
L 185.963637 233.951923 
L 186.598522 233.235276 
L 187.233406 232.825313 
L 187.868291 231.934354 
L 190.407829 229.384148 
L 191.042713 228.654583 
L 192.312482 228.037994 
L 193.582251 226.391666 
L 195.486905 224.864757 
L 196.121789 223.993158 
L 197.391558 222.83749 
L 198.026443 222.672875 
L 198.661327 221.739939 
L 199.296212 221.649544 
L 199.931096 220.577795 
L 202.470634 218.159961 
L 203.105519 218.085705 
L 204.375288 216.46518 
L 205.010173 216.152054 
L 208.81948 212.704412 
L 209.454364 212.459065 
L 210.089249 212.013603 
L 210.724133 211.16784 
L 211.359018 210.809517 
L 213.898556 208.475566 
L 214.53344 208.09144 
L 215.168325 207.319899 
L 215.803209 206.86796 
L 216.438094 206.583891 
L 217.072978 206.083534 
L 217.707863 205.098959 
L 218.342747 205.115098 
L 219.612516 203.917454 
L 220.247401 202.874798 
L 221.51717 202.309848 
L 222.152054 201.799827 
L 222.786939 201.067041 
L 223.421823 200.831391 
L 224.056708 200.24386 
L 224.691592 199.979153 
L 226.596246 197.848607 
L 227.231131 197.632318 
L 228.5009 196.809137 
L 229.135784 196.52829 
L 230.405553 194.817405 
L 231.040438 194.749591 
L 231.675322 194.5075 
L 232.310207 193.794074 
L 232.945091 193.732737 
L 234.21486 192.477012 
L 235.484629 191.627994 
L 236.119514 190.901684 
L 236.754398 190.572419 
L 237.389283 189.75568 
L 238.024167 189.787959 
L 238.659052 189.252101 
L 239.293936 188.987394 
L 239.928821 187.976981 
L 240.563705 187.408845 
L 241.833474 186.553385 
L 242.468359 186.617943 
L 243.103243 185.668902 
L 243.738128 185.478415 
L 245.642781 183.857925 
L 246.277666 183.660996 
L 246.91255 182.999244 
L 247.547435 182.812012 
L 248.18232 182.447212 
L 248.817204 181.491695 
L 249.452089 181.249603 
L 250.086973 180.555538 
L 250.721858 180.397364 
L 251.356742 180.445783 
L 251.991627 179.516102 
L 252.626511 179.1255 
L 253.261396 178.115088 
L 253.89628 177.90524 
L 254.531165 177.540475 
L 255.166049 177.304825 
L 255.800934 176.59462 
L 256.435818 176.413865 
L 258.340472 175.106466 
L 258.975356 174.796561 
L 259.610241 174.183228 
L 260.245125 173.818462 
L 260.88001 172.895189 
L 261.514894 172.814492 
L 262.149779 172.898445 
L 262.784663 172.062345 
L 263.419548 171.910614 
L 264.054432 171.051933 
L 264.689317 170.596773 
L 265.324201 170.357902 
L 265.959086 169.534721 
L 266.59397 169.621895 
L 267.228855 168.585646 
L 268.498624 167.994928 
L 269.133509 167.952952 
L 269.768393 167.123329 
L 271.038162 166.193614 
L 271.673047 165.722314 
L 272.307931 165.786872 
L 272.942816 164.828133 
L 273.5777 164.866854 
L 274.212585 164.48917 
L 275.482354 163.026819 
L 276.117238 163.310922 
L 276.752123 163.013935 
L 278.021892 161.832431 
L 278.656776 161.603223 
L 279.291661 161.503165 
L 279.926545 159.969814 
L 280.56143 160.015011 
L 281.196314 159.559817 
L 281.831199 159.256388 
L 282.466083 159.133715 
L 283.100968 158.720531 
L 284.370737 157.6617 
L 285.005621 157.871513 
L 285.640506 156.744903 
L 286.910275 156.196128 
L 287.545159 155.883002 
L 288.814928 154.966205 
L 289.449813 154.778974 
L 290.084697 154.094606 
L 290.719582 153.610388 
L 291.354467 153.558748 
L 293.25912 152.457976 
L 295.163774 151.111821 
L 295.798658 151.079543 
L 296.433543 150.753498 
L 297.068427 149.856096 
L 297.703312 149.875457 
L 298.338196 149.184647 
L 299.607965 148.752068 
L 300.24285 147.654517 
L 300.877734 147.702935 
L 301.512619 147.250996 
L 302.782388 147.144462 
L 303.417272 146.724802 
L 304.052157 145.785423 
L 304.687041 145.953295 
L 305.321926 144.962243 
L 306.591695 144.423164 
L 307.226579 143.906667 
L 307.861464 143.968004 
L 308.496348 143.254578 
L 309.131233 142.918871 
L 309.766117 142.947894 
L 310.401002 142.234503 
L 313.575425 140.714036 
L 314.210309 139.958668 
L 314.845194 139.800495 
L 315.480078 139.832774 
L 316.114963 139.022511 
L 316.749847 139.09029 
L 317.384732 138.412398 
L 318.019616 138.36398 
L 318.654501 138.060517 
L 319.289385 137.169557 
L 319.92427 136.972663 
L 320.559154 136.304435 
L 321.194039 136.078448 
L 321.828923 135.649125 
L 323.098692 135.274662 
L 323.733577 135.10357 
L 325.63823 133.973739 
L 326.907999 133.17314 
L 327.542884 132.995606 
L 328.177768 132.337075 
L 328.812653 131.943252 
L 330.082422 131.952914 
L 330.717306 130.771445 
L 331.352191 130.803724 
L 331.987075 130.5519 
L 332.62196 130.490598 
L 333.256844 130.264611 
L 333.891729 129.473709 
L 334.526614 129.770695 
L 335.161498 129.063746 
L 335.796383 128.631167 
L 336.431267 128.408436 
L 337.066152 127.82416 
L 338.335921 127.394803 
L 338.970805 127.130095 
L 339.60569 126.229472 
L 340.240574 125.87437 
L 340.875459 126.168136 
L 341.510343 125.832394 
L 342.145228 124.780039 
L 342.780112 124.854295 
L 343.414997 124.54439 
L 344.049881 124.944655 
L 344.684766 124.17959 
L 345.31965 123.953637 
L 345.954535 123.588872 
L 346.589419 123.443582 
L 347.224304 122.581681 
L 347.859188 122.042568 
L 348.494073 122.262113 
L 349.128957 121.755279 
L 349.763842 121.974789 
L 350.398726 121.794034 
L 352.30338 120.031475 
L 353.573149 119.879744 
L 354.208033 119.085621 
L 354.842918 119.369689 
L 355.477803 118.969423 
L 356.112687 118.853192 
L 356.747572 118.146242 
L 357.382456 118.078464 
L 358.017341 117.645885 
L 358.652225 116.832402 
L 359.28711 117.210085 
L 360.556879 116.357846 
L 361.826648 115.905907 
L 362.461532 115.486282 
L 363.096417 115.253853 
L 363.731301 114.843856 
L 364.366186 114.785774 
L 365.00107 114.291859 
L 365.635955 114.285417 
L 366.270839 113.946454 
L 366.905724 113.459015 
L 368.175493 112.845647 
L 368.810377 113.000599 
L 369.445262 111.851409 
L 370.080146 111.970827 
L 370.715031 111.80299 
L 371.349915 111.509225 
L 372.619684 110.411673 
L 373.254569 110.592428 
L 373.889453 110.36322 
L 374.524338 109.956478 
L 375.159222 110.066234 
L 376.428991 109.046158 
L 377.063876 108.846008 
L 377.698761 108.32307 
L 378.333645 108.37793 
L 378.96853 108.219756 
L 379.603414 107.332018 
L 380.238299 106.718684 
L 380.873183 106.902694 
L 381.508068 106.554034 
L 382.142952 106.341 
L 382.777837 106.382977 
L 383.412721 106.066595 
L 384.047606 105.491982 
L 384.68249 105.472622 
L 385.952259 105.033601 
L 386.587144 104.736615 
L 387.222028 104.736615 
L 387.856913 104.019968 
L 388.491797 103.942492 
L 389.761566 103.258124 
L 390.396451 103.409855 
L 391.031335 102.522117 
L 391.66622 102.215467 
L 392.301104 102.318746 
L 392.935989 101.837749 
L 393.570873 101.579517 
L 394.205758 101.172776 
L 394.840642 101.195357 
L 396.110411 100.317316 
L 396.745296 100.585245 
L 397.38018 100.417374 
L 398.015065 99.917016 
L 398.64995 99.187485 
L 399.284834 98.92922 
L 399.919719 99.145509 
L 400.554603 98.461141 
L 401.189488 98.680651 
L 401.824372 98.07376 
L 402.459257 98.370746 
L 403.094141 97.673495 
L 403.729026 97.227997 
L 404.998795 97.692855 
L 405.633679 97.224777 
L 406.268564 96.317677 
L 406.903448 95.917378 
L 407.538333 95.310486 
L 408.173217 95.694646 
L 408.808102 95.646228 
L 409.442986 95.387962 
L 410.077871 94.5422 
L 410.712755 94.955418 
L 411.34764 94.093482 
L 412.617409 93.838472 
L 413.252293 93.422032 
L 414.522062 93.418811 
L 415.791831 92.724781 
L 416.426716 92.979791 
L 417.0616 92.111412 
L 417.696485 91.869321 
L 418.331369 91.778926 
L 418.966254 91.304405 
L 419.601138 91.155895 
L 420.236023 91.21079 
L 420.870908 90.642619 
L 421.505792 90.452167 
L 422.140677 90.10032 
L 423.410446 89.758136 
L 424.04533 89.800078 
L 425.315099 89.219023 
L 425.949984 88.62505 
L 426.584868 88.476574 
L 427.219753 88.20861 
L 427.854637 88.58955 
L 428.489522 88.198948 
L 429.124406 87.634032 
L 429.759291 87.637253 
L 430.394175 87.33379 
L 431.02906 87.327348 
L 431.663944 86.865712 
L 432.298829 86.820549 
L 432.933713 86.200739 
L 433.568598 86.226576 
L 434.838367 85.574487 
L 435.473251 85.500231 
L 437.377905 84.425261 
L 438.012789 84.618969 
L 438.647674 84.354262 
L 439.282558 84.292925 
L 439.917443 83.673115 
L 440.552327 83.650533 
L 441.187212 82.769236 
L 441.822097 83.208257 
L 442.456981 82.704679 
L 443.091866 82.575563 
L 443.72675 82.020311 
L 444.361635 81.878277 
L 445.631404 82.191403 
L 446.266288 81.151967 
L 447.536057 80.971178 
L 450.075595 80.128636 
L 450.71048 80.480518 
L 451.345364 79.715418 
L 451.980249 79.634721 
L 452.615133 79.092421 
L 453.884902 79.34099 
L 455.154671 78.382217 
L 455.789556 78.01423 
L 456.42444 78.114288 
L 457.059325 77.846359 
L 457.694209 78.052951 
L 458.329094 77.21041 
L 458.963978 77.094213 
L 459.598863 76.684215 
L 460.233747 76.619658 
L 460.868632 76.884365 
L 461.503516 76.267811 
L 462.138401 76.416287 
L 462.773285 75.518885 
L 463.40817 76.128998 
L 464.043055 75.912708 
L 464.677939 75.070167 
L 465.312824 75.354235 
L 467.217477 74.489112 
L 467.852362 73.843465 
L 468.487246 74.556891 
L 469.122131 73.594897 
L 471.026784 73.346363 
L 471.661669 73.362503 
L 472.931438 72.684577 
L 473.566322 72.952505 
L 474.201207 72.16808 
L 474.836091 72.694274 
L 476.10586 71.993767 
L 476.740745 71.377178 
L 477.375629 71.49341 
L 478.645398 70.63795 
L 479.280283 70.618589 
L 479.915167 70.863937 
L 481.184936 70.576613 
L 481.819821 70.589531 
L 482.454705 69.992337 
L 483.08959 69.921303 
L 483.724474 69.372527 
L 484.359359 69.663072 
L 484.994244 68.969006 
L 486.898897 68.668799 
L 487.533782 68.610683 
L 488.803551 68.139383 
L 489.438435 67.984431 
L 490.07332 68.500928 
L 490.708204 67.387237 
L 491.343089 67.80042 
L 491.977973 66.802927 
L 492.612858 66.819101 
L 493.247742 67.180645 
L 495.78728 66.008838 
L 496.422165 66.115338 
L 497.057049 65.56012 
L 497.691934 66.01528 
L 498.326818 65.585957 
L 498.961703 64.982286 
L 499.596587 64.866055 
L 500.231472 65.214715 
L 500.866356 65.314773 
L 501.501241 64.653021 
L 502.136125 64.714358 
L 502.77101 64.233361 
L 503.405894 64.333418 
L 504.040779 64.142966 
L 504.675663 63.484435 
L 505.945433 63.923456 
L 507.215202 63.222948 
L 507.850086 63.113193 
L 508.484971 63.184227 
L 509.75474 62.890462 
L 510.389624 62.183512 
L 511.024509 62.260989 
L 512.294278 61.970444 
L 512.929162 61.315134 
L 513.564047 61.499145 
L 514.198931 61.512063 
L 514.833816 61.1376 
L 516.103585 61.215077 
L 517.373354 60.743742 
L 519.278007 60.469372 
L 519.912892 59.559052 
L 520.547776 59.804364 
L 521.182661 59.539657 
L 522.45243 59.468657 
L 523.087314 58.929544 
L 523.722199 59.381483 
L 524.357083 59.032857 
L 524.991968 58.903742 
L 525.626852 58.639034 
L 526.261737 57.893329 
L 526.896621 58.448547 
L 527.531506 57.806156 
L 528.801275 57.486588 
L 529.43616 57.189601 
L 530.071044 57.273519 
L 532.610582 56.673104 
L 533.880351 56.811917 
L 534.515236 56.482617 
L 535.785005 55.546495 
L 536.419889 56.427757 
L 537.054774 55.572297 
L 537.689658 55.927399 
L 538.959427 55.265648 
L 539.594312 55.362484 
L 540.229196 55.181695 
L 540.864081 55.162334 
L 541.498965 54.739453 
L 542.13385 54.481187 
L 542.768734 54.36499 
L 543.403619 54.519943 
L 544.038503 53.829133 
L 544.673388 54.077667 
L 545.308272 54.12612 
L 545.943157 53.364275 
L 546.578041 53.464333 
L 547.212926 53.367496 
L 547.84781 53.687064 
L 548.482695 52.976894 
L 549.11758 53.131847 
L 551.022233 53.022091 
L 552.292002 52.047179 
L 552.926887 52.286084 
L 553.561771 52.340945 
L 554.196656 52.092376 
L 555.466425 52.079458 
L 556.101309 51.317648 
L 558.005963 51.459682 
L 558.640847 50.565467 
L 559.275732 51.459682 
L 559.910616 51.265974 
L 561.180385 50.565467 
L 561.81527 50.839872 
L 562.450154 50.155504 
L 563.719923 50.074807 
L 564.354808 49.493752 
L 564.989692 49.971494 
L 566.259461 49.209684 
L 566.894346 49.241963 
L 567.52923 48.760966 
L 568.164115 49.442113 
L 569.433884 48.486561 
L 570.068768 48.861024 
L 570.703653 48.786803 
L 571.338538 48.441364 
L 572.608307 48.24769 
L 573.243191 48.383282 
L 573.878076 47.924867 
L 574.51296 47.876448 
L 575.147845 48.005599 
L 575.782729 47.666636 
L 576.417614 47.518125 
L 576.417614 47.518125 
" clip-path="url(#pf6b37f9949)" style="fill: none; stroke: #1f77b4; stroke-width: 1.5; stroke-linecap: square"/>
   </g>
   <g id="line2d_30">
    <path d="M 69.144886 402.508376 
L 69.779771 402.130675 
L 70.414655 401.98542 
L 71.04954 400.503708 
L 71.684424 400.184123 
L 72.319309 401.317191 
L 72.954193 402.682689 
L 73.589078 400.561806 
L 74.223962 400.503708 
L 74.858847 400.329395 
L 75.493732 402.275947 
L 76.128616 400.067908 
L 76.763501 401.491504 
L 77.398385 400.852334 
L 78.03327 399.57401 
L 78.668154 402.827961 
L 79.303039 399.515894 
L 79.937923 401.752991 
L 80.572808 403.060373 
L 81.207692 401.811089 
L 81.842577 404.367772 
L 82.477461 402.043518 
L 83.112346 402.62459 
L 83.74723 402.217831 
L 84.382115 404.542085 
L 85.016999 402.479318 
L 85.651884 404.454928 
L 86.286768 404.513027 
L 86.921653 404.774513 
L 87.556537 404.193441 
L 88.191422 406.140011 
L 88.826306 405.355568 
L 89.461191 405.152197 
L 90.096075 405.529898 
L 90.73096 405.297469 
L 92.000729 406.052854 
L 92.635613 405.93664 
L 93.270498 405.704211 
L 93.905382 407.447392 
L 94.540267 406.83728 
L 95.175151 407.389294 
L 95.810036 406.198109 
L 96.44492 408.522363 
L 97.079805 407.505508 
L 97.71469 407.999407 
L 98.349574 409.074368 
L 98.984459 409.597324 
L 99.619343 407.302137 
L 100.254228 407.127807 
L 100.889112 408.929104 
L 101.523997 409.190582 
L 102.158881 409.21964 
L 102.793766 408.37709 
L 103.42865 410.846607 
L 104.063535 407.883192 
L 104.698419 410.497973 
L 105.333304 410.875665 
L 105.968188 410.12028 
L 106.603073 411.137143 
L 107.237957 408.37709 
L 108.507726 412.415476 
L 109.142611 411.137143 
L 109.777495 411.950627 
L 110.41238 410.614187 
L 111.047264 411.049987 
L 111.682149 413.141803 
L 112.317033 411.19525 
L 112.951918 412.560748 
L 113.586802 414.303929 
L 114.221687 410.759451 
L 114.856571 413.025597 
L 115.491456 412.124948 
L 116.12634 411.514836 
L 116.761225 412.96749 
L 117.396109 412.96749 
L 118.030994 411.689149 
L 118.665879 413.60666 
L 119.935648 415.001207 
L 120.570532 413.403281 
L 121.205417 414.623515 
L 121.840301 415.349842 
L 122.475186 415.262685 
L 123.11007 416.68629 
L 123.744955 417.122081 
L 124.379839 416.453861 
L 125.014724 414.914051 
L 125.649608 416.018061 
L 126.284493 416.366705 
L 126.919377 415.378899 
L 127.554262 414.972149 
L 128.189146 416.947768 
L 128.824031 416.68629 
L 129.458915 416.192383 
L 130.0938 417.906515 
L 130.728684 418.458529 
L 131.363569 416.773446 
L 131.998453 419.533491 
L 132.633338 417.063974 
L 133.268222 417.58693 
L 133.903107 417.645037 
L 134.537991 416.541017 
L 135.172876 418.429471 
L 136.442645 416.628183 
L 137.077529 416.889661 
L 137.712414 416.453861 
L 138.347298 418.807164 
L 138.982183 418.313257 
L 139.617067 418.080837 
L 140.251952 419.853076 
L 140.886837 417.761251 
L 141.521721 420.463188 
L 142.156606 419.184856 
L 142.79149 419.882125 
L 143.426375 418.2261 
L 144.061259 419.388227 
L 144.696144 416.860603 
L 145.331028 418.342315 
L 145.965913 418.487578 
L 146.600797 420.434139 
L 147.235682 420.550345 
L 147.870566 419.882125 
L 148.505451 419.039584 
L 149.140335 418.836213 
L 149.77522 418.952427 
L 150.410104 419.184856 
L 151.044989 419.126749 
L 151.679873 419.620647 
L 152.314758 418.313257 
L 152.949642 418.690949 
L 153.584527 421.450993 
L 154.219411 420.550345 
L 154.854296 418.545685 
L 155.48918 420.376032 
L 156.124065 419.213905 
L 156.758949 418.284207 
L 157.393834 419.33012 
L 158.028718 420.666559 
L 159.298487 418.458529 
L 160.568256 420.695617 
L 161.203141 418.429471 
L 161.838026 420.027397 
L 162.47291 420.085496 
L 163.742679 420.63751 
L 164.377564 420.928037 
L 165.012448 421.015202 
L 165.647333 420.405081 
L 166.282217 423.397554 
L 167.551986 419.707812 
L 168.186871 421.160466 
L 168.821755 421.915842 
L 169.45664 419.765919 
L 170.091524 423.136076 
L 170.726409 421.9449 
L 171.361293 422.467856 
L 171.996178 420.695617 
L 172.631062 420.434139 
L 173.900831 422.787442 
L 174.535716 426.825818 
L 175.1706 420.957095 
L 175.805485 422.003007 
L 176.440369 424.35631 
L 177.075254 419.765919 
L 177.710138 422.264486 
L 178.345023 422.84554 
L 178.979907 424.792101 
L 179.614792 424.240096 
L 180.249676 422.235428 
L 180.884561 422.351642 
L 182.15433 425.402214 
L 182.789215 424.298203 
L 183.424099 421.160466 
L 184.058984 421.799637 
L 184.693868 421.480051 
L 185.328753 422.671227 
L 185.963637 424.327252 
L 186.598522 424.501574 
L 187.233406 422.816491 
L 187.868291 423.368496 
L 188.503175 423.746189 
L 189.13806 424.559681 
L 189.772944 422.584071 
L 190.407829 424.937365 
L 191.042713 423.165125 
L 192.312482 422.874598 
L 192.947367 424.269145 
L 193.582251 421.044252 
L 194.217136 424.646837 
L 194.85202 421.421944 
L 195.486905 426.070442 
L 196.121789 423.891452 
L 196.756674 423.136076 
L 197.391558 423.484711 
L 198.026443 422.990813 
L 198.661327 424.675887 
L 199.296212 425.053579 
L 199.931096 423.629974 
L 200.565981 421.567208 
L 201.200865 424.966423 
L 201.83575 423.833354 
L 202.470634 424.58873 
L 203.105519 423.455661 
L 203.740403 425.198843 
L 204.375288 425.25695 
L 205.010173 425.576535 
L 205.645057 426.419077 
L 206.279942 424.966423 
L 206.914826 422.700277 
L 207.549711 426.273813 
L 208.184595 424.443467 
L 208.81948 425.838013 
L 209.454364 423.833354 
L 210.089249 423.862403 
L 210.724133 426.535291 
L 211.359018 423.571876 
L 211.993902 424.240096 
L 212.628787 425.69275 
L 213.263671 424.704945 
L 213.898556 424.472516 
L 214.53344 426.419077 
L 215.168325 426.186648 
L 215.803209 424.094832 
L 216.438094 425.69275 
L 217.072978 425.896121 
L 217.707863 425.547486 
L 218.342747 424.792101 
L 218.977632 426.215706 
L 219.612516 423.455661 
L 220.882285 425.605593 
L 221.51717 425.808964 
L 222.152054 426.360969 
L 222.786939 427.145404 
L 223.421823 424.966423 
L 224.056708 423.659032 
L 224.691592 425.808964 
L 225.326477 426.971082 
L 225.961362 424.733994 
L 227.231131 426.971082 
L 227.866015 427.00014 
L 228.5009 424.530623 
L 229.135784 425.663692 
L 229.770669 426.419077 
L 230.405553 426.593398 
L 231.675322 425.605593 
L 232.310207 424.094832 
L 232.945091 427.784574 
L 233.579976 426.302862 
L 234.21486 426.041384 
L 234.849745 427.203511 
L 236.119514 426.070442 
L 236.754398 425.69275 
L 237.389283 425.808964 
L 238.024167 425.02453 
L 238.659052 426.593398 
L 239.293936 425.518428 
L 239.928821 427.523096 
L 240.563705 428.743321 
L 241.19859 426.883926 
L 241.833474 425.896121 
L 242.468359 426.971082 
L 243.103243 427.66836 
L 243.738128 425.431272 
L 244.373012 425.896121 
L 245.007897 425.518428 
L 245.642781 428.714272 
L 246.277666 426.448126 
L 246.91255 426.796769 
L 247.547435 425.954228 
L 248.18232 425.663692 
L 248.817204 428.394687 
L 249.452089 428.33658 
L 250.086973 427.377832 
L 250.721858 427.63931 
L 251.356742 425.92517 
L 251.991627 426.390027 
L 252.626511 426.448126 
L 253.261396 425.227901 
L 253.89628 429.527755 
L 254.531165 426.012335 
L 255.800934 427.552145 
L 256.435818 426.535291 
L 257.070703 427.464989 
L 257.705587 424.58873 
L 258.340472 429.033857 
L 258.975356 426.477184 
L 259.610241 427.755516 
L 260.245125 427.348774 
L 260.88001 427.552145 
L 261.514894 429.208179 
L 262.149779 427.348774 
L 262.784663 426.593398 
L 263.419548 428.423745 
L 264.054432 427.900789 
L 264.689317 428.075101 
L 265.324201 427.464989 
L 265.959086 428.946701 
L 266.59397 428.452794 
L 267.228855 428.220365 
L 267.863739 428.394687 
L 268.498624 426.622447 
L 269.133509 429.498706 
L 269.768393 429.673028 
L 270.403278 427.203511 
L 271.038162 429.963555 
L 271.673047 429.382492 
L 272.307931 426.854876 
L 272.942816 426.942033 
L 273.5777 429.324385 
L 274.212585 426.912983 
L 274.847469 429.295335 
L 275.482354 427.377832 
L 276.752123 430.28314 
L 277.387007 429.062907 
L 278.021892 426.709604 
L 278.656776 432.810765 
L 279.291661 429.062907 
L 279.926545 429.091964 
L 280.56143 429.992613 
L 281.196314 427.900789 
L 281.831199 431.445267 
L 282.466083 429.818291 
L 283.100968 426.854876 
L 283.735852 428.917643 
L 284.370737 429.498706 
L 285.005621 429.150072 
L 285.640506 429.876399 
L 286.27539 429.033857 
L 286.910275 429.440599 
L 287.545159 427.958896 
L 288.180044 427.66836 
L 288.814928 431.009467 
L 289.449813 428.917643 
L 290.084697 432.839814 
L 290.719582 429.033857 
L 291.354467 429.934506 
L 292.624236 430.254091 
L 293.25912 429.992613 
L 293.894005 430.021662 
L 294.528889 429.41155 
L 295.163774 430.108819 
L 295.798658 432.374965 
L 296.433543 427.900789 
L 297.068427 430.28314 
L 297.703312 431.241896 
L 298.338196 430.399355 
L 298.973081 431.125682 
L 299.607965 430.137877 
L 300.24285 430.108819 
L 300.877734 428.220365 
L 301.512619 429.150072 
L 302.147503 428.627116 
L 302.782388 430.370297 
L 303.417272 428.278472 
L 304.052157 427.63931 
L 304.687041 429.062907 
L 305.321926 428.946701 
L 305.95681 427.987945 
L 306.591695 427.66836 
L 307.226579 429.295335 
L 307.861464 430.31219 
L 308.496348 429.469657 
L 309.131233 431.61958 
L 309.766117 427.377832 
L 310.401002 430.195984 
L 311.035886 428.97575 
L 311.670771 431.677687 
L 312.305656 430.050712 
L 312.94054 430.95136 
L 313.575425 429.324385 
L 314.210309 430.864204 
L 314.845194 427.726467 
L 315.480078 430.573668 
L 316.114963 427.900789 
L 316.749847 431.474316 
L 317.384732 429.731135 
L 318.019616 429.237228 
L 318.654501 429.702077 
L 319.289385 429.324385 
L 319.92427 430.050712 
L 320.559154 432.868863 
L 321.194039 430.747989 
L 321.828923 430.195984 
L 322.463808 430.31219 
L 323.098692 429.876399 
L 323.733577 429.847341 
L 324.368461 429.208179 
L 325.003346 433.943833 
L 325.63823 429.440599 
L 326.273115 430.806096 
L 326.907999 431.503374 
L 328.177768 431.532423 
L 328.812653 430.515569 
L 329.447537 430.864204 
L 330.082422 428.714272 
L 330.717306 429.934506 
L 331.352191 430.544618 
L 331.987075 429.731135 
L 332.62196 429.847341 
L 333.256844 431.270945 
L 333.891729 429.295335 
L 334.526614 430.689882 
L 335.161498 428.220365 
L 335.796383 430.137877 
L 336.431267 428.046052 
L 337.066152 431.329053 
L 338.335921 427.784574 
L 338.970805 428.946701 
L 339.60569 430.602726 
L 340.240574 429.324385 
L 340.875459 429.527755 
L 341.510343 430.341248 
L 342.145228 428.365637 
L 342.780112 430.225033 
L 343.414997 429.179121 
L 344.049881 430.370297 
L 344.684766 429.469657 
L 345.31965 429.585863 
L 345.954535 432.084429 
L 346.589419 430.689882 
L 347.224304 430.71894 
L 347.859188 431.939165 
L 348.494073 428.97575 
L 349.128957 431.154731 
L 349.763842 429.731135 
L 350.398726 426.971082 
L 351.033611 430.835146 
L 351.668495 429.702077 
L 352.30338 433.188448 
L 352.938264 432.02633 
L 354.208033 428.743321 
L 354.842918 430.166926 
L 355.477803 428.830486 
L 356.112687 430.922311 
L 356.747572 429.614921 
L 357.382456 430.166926 
L 358.017341 430.225033 
L 358.652225 429.498706 
L 359.28711 432.142536 
L 359.921994 428.016994 
L 360.556879 429.004799 
L 361.191763 432.142536 
L 361.826648 430.108819 
L 362.461532 431.881058 
L 363.096417 431.096624 
L 363.731301 431.154731 
L 364.366186 433.072243 
L 365.00107 432.316858 
L 365.635955 429.353443 
L 366.270839 431.590531 
L 366.905724 429.992613 
L 367.540608 431.61958 
L 368.175493 435.164058 
L 368.810377 430.195984 
L 369.445262 431.503374 
L 370.080146 430.486511 
L 370.715031 433.391819 
L 371.349915 431.212838 
L 371.9848 434.408682 
L 372.619684 429.64397 
L 373.254569 432.868863 
L 373.889453 432.433072 
L 374.524338 433.711404 
L 375.159222 432.491179 
L 375.794107 433.972883 
L 376.428991 432.229701 
L 377.063876 433.304663 
L 377.698761 432.868863 
L 378.333645 432.810765 
L 378.96853 431.212838 
L 379.603414 430.777039 
L 380.238299 431.416209 
L 380.873183 431.881058 
L 381.508068 430.660833 
L 382.142952 433.972883 
L 382.777837 433.275613 
L 383.412721 433.972883 
L 384.047606 428.278472 
L 384.68249 434.176253 
L 385.317375 432.229701 
L 385.952259 431.735794 
L 386.587144 431.910116 
L 387.222028 434.524897 
L 387.856913 432.345907 
L 388.491797 432.200643 
L 389.126682 434.292468 
L 389.761566 432.839814 
L 390.396451 433.217506 
L 391.031335 433.043185 
L 391.66622 432.287808 
L 392.301104 433.188448 
L 392.935989 430.835146 
L 393.570873 431.125682 
L 394.205758 433.333712 
L 394.840642 434.089097 
L 395.475527 432.810765 
L 396.110411 431.270945 
L 396.745296 431.822951 
L 397.38018 434.437731 
L 398.015065 431.968223 
L 398.64995 432.171594 
L 399.284834 433.566141 
L 399.919719 433.79857 
L 400.554603 429.614921 
L 401.824372 433.130341 
L 402.459257 433.188448 
L 403.094141 433.449926 
L 403.729026 432.462121 
L 404.36391 430.631775 
L 404.998795 434.815424 
L 405.633679 431.793902 
L 406.268564 433.508034 
L 406.903448 432.549286 
L 407.538333 433.827619 
L 408.173217 432.491179 
L 408.808102 433.885726 
L 409.442986 432.665492 
L 410.077871 433.769512 
L 410.712755 433.508034 
L 411.34764 433.072243 
L 411.982524 433.856668 
L 412.617409 430.370297 
L 413.252293 434.263419 
L 413.887178 435.251224 
L 414.522062 433.072243 
L 415.156947 434.437731 
L 415.791831 429.702077 
L 416.426716 431.735794 
L 417.0616 431.358102 
L 417.696485 433.014135 
L 418.331369 433.653297 
L 418.966254 431.852009 
L 419.601138 431.416209 
L 420.236023 433.682355 
L 420.870908 430.370297 
L 421.505792 433.014135 
L 422.140677 434.466789 
L 422.775561 433.624248 
L 423.410446 430.893253 
L 424.04533 433.566141 
L 424.680215 430.864204 
L 425.315099 433.740462 
L 425.949984 434.67016 
L 426.584868 429.585863 
L 427.219753 432.92697 
L 427.854637 431.706745 
L 428.489522 433.711404 
L 429.124406 433.711404 
L 429.759291 432.69455 
L 430.394175 432.607385 
L 431.02906 434.089097 
L 431.663944 433.653297 
L 432.298829 432.142536 
L 432.933713 430.980418 
L 433.568598 432.897921 
L 434.203482 434.060048 
L 434.838367 430.31219 
L 435.473251 430.922311 
L 436.108136 432.956028 
L 436.74302 432.723599 
L 437.377905 430.31219 
L 438.012789 432.433072 
L 438.647674 433.275613 
L 439.282558 430.835146 
L 439.917443 434.553946 
L 440.552327 432.897921 
L 441.187212 430.922311 
L 441.822097 431.154731 
L 442.456981 429.818291 
L 443.091866 429.731135 
L 443.72675 435.425536 
L 444.361635 432.25875 
L 444.996519 433.537092 
L 445.631404 433.449926 
L 446.266288 431.125682 
L 446.901173 434.350575 
L 447.536057 433.566141 
L 448.170942 434.815424 
L 448.805826 429.992613 
L 449.440711 431.939165 
L 450.075595 430.631775 
L 450.71048 431.968223 
L 451.345364 432.200643 
L 451.980249 433.769512 
L 452.615133 431.764852 
L 453.250018 431.590531 
L 453.884902 431.154731 
L 454.519787 433.653297 
L 455.154671 432.287808 
L 455.789556 434.321526 
L 456.42444 433.420877 
L 457.059325 432.229701 
L 457.694209 433.246556 
L 458.329094 433.36277 
L 458.963978 431.706745 
L 459.598863 432.607385 
L 460.233747 431.125682 
L 460.868632 431.677687 
L 461.503516 431.677687 
L 462.138401 433.333712 
L 462.773285 433.275613 
L 463.40817 433.79857 
L 464.043055 432.723599 
L 464.677939 431.881058 
L 465.312824 431.822951 
L 465.947708 433.072243 
L 466.582593 430.747989 
L 467.217477 429.847341 
L 467.852362 429.992613 
L 468.487246 431.793902 
L 469.122131 434.147204 
L 469.757015 434.931638 
L 470.3919 432.25875 
L 471.026784 433.014135 
L 471.661669 432.985077 
L 472.296553 430.922311 
L 472.931438 435.251224 
L 473.566322 431.793902 
L 474.201207 433.420877 
L 474.836091 430.777039 
L 475.470976 430.835146 
L 476.10586 431.416209 
L 476.740745 432.781707 
L 477.375629 432.316858 
L 478.010514 432.171594 
L 478.645398 432.752657 
L 479.280283 430.893253 
L 479.915167 432.839814 
L 480.550052 432.810765 
L 481.184936 434.69921 
L 481.819821 432.171594 
L 482.454705 429.033857 
L 483.08959 432.985077 
L 483.724474 434.147204 
L 484.359359 433.59519 
L 484.994244 431.38716 
L 485.629128 433.914775 
L 486.264013 431.532423 
L 487.533782 434.350575 
L 488.168666 433.159399 
L 488.803551 433.478984 
L 489.438435 428.220365 
L 490.07332 432.636443 
L 490.708204 434.00194 
L 491.343089 432.607385 
L 491.977973 432.520229 
L 492.612858 434.553946 
L 493.247742 433.711404 
L 493.882627 431.793902 
L 495.152396 434.263419 
L 495.78728 433.478984 
L 496.422165 433.972883 
L 497.057049 428.30753 
L 497.691934 432.839814 
L 498.326818 431.997272 
L 498.961703 433.624248 
L 499.596587 430.457462 
L 500.231472 430.108819 
L 500.866356 431.997272 
L 501.501241 430.254091 
L 502.136125 434.757317 
L 502.77101 431.793902 
L 503.405894 429.992613 
L 504.040779 431.154731 
L 504.675663 431.532423 
L 505.310548 433.885726 
L 505.945433 432.897921 
L 506.580317 430.835146 
L 507.215202 431.270945 
L 507.850086 433.420877 
L 508.484971 432.02633 
L 509.119855 431.503374 
L 509.75474 433.478984 
L 510.389624 432.810765 
L 511.024509 434.234361 
L 511.659393 434.118146 
L 512.294278 433.682355 
L 512.929162 433.449926 
L 513.564047 430.050712 
L 514.198931 430.137877 
L 514.833816 435.251224 
L 515.4687 430.95136 
L 516.103585 431.532423 
L 516.738469 431.764852 
L 517.373354 433.043185 
L 518.008238 433.537092 
L 518.643123 433.624248 
L 519.278007 432.868863 
L 519.912892 430.195984 
L 520.547776 431.968223 
L 521.182661 430.428404 
L 521.817545 431.997272 
L 522.45243 431.212838 
L 523.087314 435.251224 
L 523.722199 433.79857 
L 524.357083 434.234361 
L 524.991968 433.420877 
L 525.626852 434.612053 
L 526.261737 431.852009 
L 526.896621 434.69921 
L 527.531506 433.827619 
L 528.166391 431.706745 
L 528.801275 434.292468 
L 529.43616 432.665492 
L 530.705929 433.827619 
L 531.340813 433.246556 
L 531.975698 431.822951 
L 532.610582 434.379624 
L 533.245467 433.943833 
L 533.880351 431.299995 
L 534.515236 432.433072 
L 535.15012 433.304663 
L 535.785005 433.566141 
L 536.419889 432.374965 
L 537.054774 434.90258 
L 537.689658 434.69921 
L 538.324543 436.151863 
L 538.959427 433.072243 
L 539.594312 431.096624 
L 540.229196 432.171594 
L 540.864081 431.61958 
L 541.498965 433.508034 
L 542.13385 434.176253 
L 542.768734 432.665492 
L 543.403619 431.735794 
L 544.038503 431.648638 
L 544.673388 432.636443 
L 545.308272 432.985077 
L 545.943157 428.801428 
L 546.578041 431.561473 
L 547.212926 432.839814 
L 547.84781 433.769512 
L 548.482695 431.532423 
L 549.11758 431.067575 
L 549.752464 434.67016 
L 550.387349 434.437731 
L 551.022233 433.391819 
L 551.657118 432.985077 
L 552.292002 432.897921 
L 552.926887 432.462121 
L 553.561771 433.914775 
L 554.196656 433.856668 
L 554.83154 434.350575 
L 555.466425 434.00194 
L 556.101309 433.304663 
L 556.736194 433.711404 
L 557.371078 434.67016 
L 558.005963 433.943833 
L 558.640847 433.566141 
L 559.275732 434.786375 
L 559.910616 434.960688 
L 561.180385 432.752657 
L 561.81527 432.462121 
L 562.450154 434.263419 
L 563.085039 430.602726 
L 563.719923 433.391819 
L 564.354808 434.060048 
L 564.989692 434.90258 
L 565.624577 431.793902 
L 566.259461 433.740462 
L 566.894346 433.188448 
L 567.52923 432.200643 
L 568.164115 433.449926 
L 568.798999 431.764852 
L 569.433884 431.939165 
L 570.068768 430.864204 
L 570.703653 431.852009 
L 571.338538 433.101292 
L 571.973422 433.043185 
L 572.608307 430.95136 
L 573.243191 434.03099 
L 573.878076 431.881058 
L 574.51296 432.374965 
L 575.147845 434.205311 
L 575.782729 435.018795 
L 576.417614 431.416209 
L 576.417614 431.416209 
" clip-path="url(#pf6b37f9949)" style="fill: none; stroke: #ff7f0e; stroke-width: 1.5; stroke-linecap: square"/>
   </g>
   <g id="line2d_31">
    <path d="M 43.78125 551.518125 
L 601.78125 551.518125 
" clip-path="url(#pf6b37f9949)" style="fill: none; stroke-dasharray: 11.1,4.8; stroke-dashoffset: 0; stroke: #ff0000; stroke-width: 3"/>
   </g>
   <g id="patch_3">
    <path d="M 43.78125 576.718125 
L 43.78125 22.318125 
" style="fill: none; stroke: #000000; stroke-width: 0.8; stroke-linejoin: miter; stroke-linecap: square"/>
   </g>
   <g id="patch_4">
    <path d="M 601.78125 576.718125 
L 601.78125 22.318125 
" style="fill: none; stroke: #000000; stroke-width: 0.8; stroke-linejoin: miter; stroke-linecap: square"/>
   </g>
   <g id="patch_5">
    <path d="M 43.78125 576.718125 
L 601.78125 576.718125 
" style="fill: none; stroke: #000000; stroke-width: 0.8; stroke-linejoin: miter; stroke-linecap: square"/>
   </g>
   <g id="patch_6">
    <path d="M 43.78125 22.318125 
L 601.78125 22.318125 
" style="fill: none; stroke: #000000; stroke-width: 0.8; stroke-linejoin: miter; stroke-linecap: square"/>
   </g>
   <g id="text_17">
    <!-- Train and Val Accuracy -->
    <g transform="translate(255.002813 16.318125) scale(0.12 -0.12)">
     <defs>
      <path id="DejaVuSans-54" d="M -19 4666 
L 3928 4666 
L 3928 4134 
L 2272 4134 
L 2272 0 
L 1638 0 
L 1638 4134 
L -19 4134 
L -19 4666 
z
" transform="scale(0.015625)"/>
      <path id="DejaVuSans-69" d="M 603 3500 
L 1178 3500 
L 1178 0 
L 603 0 
L 603 3500 
z
M 603 4863 
L 1178 4863 
L 1178 4134 
L 603 4134 
L 603 4863 
z
" transform="scale(0.015625)"/>
      <path id="DejaVuSans-6e" d="M 3513 2113 
L 3513 0 
L 2938 0 
L 2938 2094 
Q 2938 2591 2744 2837 
Q 2550 3084 2163 3084 
Q 1697 3084 1428 2787 
Q 1159 2491 1159 1978 
L 1159 0 
L 581 0 
L 581 3500 
L 1159 3500 
L 1159 2956 
Q 1366 3272 1645 3428 
Q 1925 3584 2291 3584 
Q 2894 3584 3203 3211 
Q 3513 2838 3513 2113 
z
" transform="scale(0.015625)"/>
      <path id="DejaVuSans-20" transform="scale(0.015625)"/>
      <path id="DejaVuSans-64" d="M 2906 2969 
L 2906 4863 
L 3481 4863 
L 3481 0 
L 2906 0 
L 2906 525 
Q 2725 213 2448 61 
Q 2172 -91 1784 -91 
Q 1150 -91 751 415 
Q 353 922 353 1747 
Q 353 2572 751 3078 
Q 1150 3584 1784 3584 
Q 2172 3584 2448 3432 
Q 2725 3281 2906 2969 
z
M 947 1747 
Q 947 1113 1208 752 
Q 1469 391 1925 391 
Q 2381 391 2643 752 
Q 2906 1113 2906 1747 
Q 2906 2381 2643 2742 
Q 2381 3103 1925 3103 
Q 1469 3103 1208 2742 
Q 947 2381 947 1747 
z
" transform="scale(0.015625)"/>
      <path id="DejaVuSans-56" d="M 1831 0 
L 50 4666 
L 709 4666 
L 2188 738 
L 3669 4666 
L 4325 4666 
L 2547 0 
L 1831 0 
z
" transform="scale(0.015625)"/>
      <path id="DejaVuSans-6c" d="M 603 4863 
L 1178 4863 
L 1178 0 
L 603 0 
L 603 4863 
z
" transform="scale(0.015625)"/>
     </defs>
     <use xlink:href="#DejaVuSans-54"/>
     <use xlink:href="#DejaVuSans-72" transform="translate(46.333984 0)"/>
     <use xlink:href="#DejaVuSans-61" transform="translate(87.447266 0)"/>
     <use xlink:href="#DejaVuSans-69" transform="translate(148.726562 0)"/>
     <use xlink:href="#DejaVuSans-6e" transform="translate(176.509766 0)"/>
     <use xlink:href="#DejaVuSans-20" transform="translate(239.888672 0)"/>
     <use xlink:href="#DejaVuSans-61" transform="translate(271.675781 0)"/>
     <use xlink:href="#DejaVuSans-6e" transform="translate(332.955078 0)"/>
     <use xlink:href="#DejaVuSans-64" transform="translate(396.333984 0)"/>
     <use xlink:href="#DejaVuSans-20" transform="translate(459.810547 0)"/>
     <use xlink:href="#DejaVuSans-56" transform="translate(491.597656 0)"/>
     <use xlink:href="#DejaVuSans-61" transform="translate(552.255859 0)"/>
     <use xlink:href="#DejaVuSans-6c" transform="translate(613.535156 0)"/>
     <use xlink:href="#DejaVuSans-20" transform="translate(641.318359 0)"/>
     <use xlink:href="#DejaVuSans-41" transform="translate(673.105469 0)"/>
     <use xlink:href="#DejaVuSans-63" transform="translate(739.763672 0)"/>
     <use xlink:href="#DejaVuSans-63" transform="translate(794.744141 0)"/>
     <use xlink:href="#DejaVuSans-75" transform="translate(849.724609 0)"/>
     <use xlink:href="#DejaVuSans-72" transform="translate(913.103516 0)"/>
     <use xlink:href="#DejaVuSans-61" transform="translate(954.216797 0)"/>
     <use xlink:href="#DejaVuSans-63" transform="translate(1015.496094 0)"/>
     <use xlink:href="#DejaVuSans-79" transform="translate(1070.476562 0)"/>
    </g>
   </g>
   <g id="legend_1">
    <g id="patch_7">
     <path d="M 50.78125 74.90875 
L 217.904687 74.90875 
Q 219.904687 74.90875 219.904687 72.90875 
L 219.904687 29.318125 
Q 219.904687 27.318125 217.904687 27.318125 
L 50.78125 27.318125 
Q 48.78125 27.318125 48.78125 29.318125 
L 48.78125 72.90875 
Q 48.78125 74.90875 50.78125 74.90875 
z
" style="fill: #ffffff; opacity: 0.8; stroke: #cccccc; stroke-linejoin: miter"/>
    </g>
    <g id="line2d_32">
     <path d="M 52.78125 35.416562 
L 62.78125 35.416562 
L 72.78125 35.416562 
" style="fill: none; stroke: #1f77b4; stroke-width: 1.5; stroke-linecap: square"/>
    </g>
    <g id="text_18">
     <!-- train_accuracy -->
     <g transform="translate(80.78125 38.916562) scale(0.1 -0.1)">
      <defs>
       <path id="DejaVuSans-74" d="M 1172 4494 
L 1172 3500 
L 2356 3500 
L 2356 3053 
L 1172 3053 
L 1172 1153 
Q 1172 725 1289 603 
Q 1406 481 1766 481 
L 2356 481 
L 2356 0 
L 1766 0 
Q 1100 0 847 248 
Q 594 497 594 1153 
L 594 3053 
L 172 3053 
L 172 3500 
L 594 3500 
L 594 4494 
L 1172 4494 
z
" transform="scale(0.015625)"/>
       <path id="DejaVuSans-5f" d="M 3263 -1063 
L 3263 -1509 
L -63 -1509 
L -63 -1063 
L 3263 -1063 
z
" transform="scale(0.015625)"/>
      </defs>
      <use xlink:href="#DejaVuSans-74"/>
      <use xlink:href="#DejaVuSans-72" transform="translate(39.208984 0)"/>
      <use xlink:href="#DejaVuSans-61" transform="translate(80.322266 0)"/>
      <use xlink:href="#DejaVuSans-69" transform="translate(141.601562 0)"/>
      <use xlink:href="#DejaVuSans-6e" transform="translate(169.384766 0)"/>
      <use xlink:href="#DejaVuSans-5f" transform="translate(232.763672 0)"/>
      <use xlink:href="#DejaVuSans-61" transform="translate(282.763672 0)"/>
      <use xlink:href="#DejaVuSans-63" transform="translate(344.042969 0)"/>
      <use xlink:href="#DejaVuSans-63" transform="translate(399.023438 0)"/>
      <use xlink:href="#DejaVuSans-75" transform="translate(454.003906 0)"/>
      <use xlink:href="#DejaVuSans-72" transform="translate(517.382812 0)"/>
      <use xlink:href="#DejaVuSans-61" transform="translate(558.496094 0)"/>
      <use xlink:href="#DejaVuSans-63" transform="translate(619.775391 0)"/>
      <use xlink:href="#DejaVuSans-79" transform="translate(674.755859 0)"/>
     </g>
    </g>
    <g id="line2d_33">
     <path d="M 52.78125 50.372812 
L 62.78125 50.372812 
L 72.78125 50.372812 
" style="fill: none; stroke: #ff7f0e; stroke-width: 1.5; stroke-linecap: square"/>
    </g>
    <g id="text_19">
     <!-- val_accuracy -->
     <g transform="translate(80.78125 53.872812) scale(0.1 -0.1)">
      <defs>
       <path id="DejaVuSans-76" d="M 191 3500 
L 800 3500 
L 1894 563 
L 2988 3500 
L 3597 3500 
L 2284 0 
L 1503 0 
L 191 3500 
z
" transform="scale(0.015625)"/>
      </defs>
      <use xlink:href="#DejaVuSans-76"/>
      <use xlink:href="#DejaVuSans-61" transform="translate(59.179688 0)"/>
      <use xlink:href="#DejaVuSans-6c" transform="translate(120.458984 0)"/>
      <use xlink:href="#DejaVuSans-5f" transform="translate(148.242188 0)"/>
      <use xlink:href="#DejaVuSans-61" transform="translate(198.242188 0)"/>
      <use xlink:href="#DejaVuSans-63" transform="translate(259.521484 0)"/>
      <use xlink:href="#DejaVuSans-63" transform="translate(314.501953 0)"/>
      <use xlink:href="#DejaVuSans-75" transform="translate(369.482422 0)"/>
      <use xlink:href="#DejaVuSans-72" transform="translate(432.861328 0)"/>
      <use xlink:href="#DejaVuSans-61" transform="translate(473.974609 0)"/>
      <use xlink:href="#DejaVuSans-63" transform="translate(535.253906 0)"/>
      <use xlink:href="#DejaVuSans-79" transform="translate(590.234375 0)"/>
     </g>
    </g>
    <g id="line2d_34">
     <path d="M 52.78125 65.329062 
L 62.78125 65.329062 
L 72.78125 65.329062 
" style="fill: none; stroke-dasharray: 11.1,4.8; stroke-dashoffset: 0; stroke: #ff0000; stroke-width: 3"/>
    </g>
    <g id="text_20">
     <!-- Random-Guesser Accuracy -->
     <g transform="translate(80.78125 68.829062) scale(0.1 -0.1)">
      <defs>
       <path id="DejaVuSans-52" d="M 2841 2188 
Q 3044 2119 3236 1894 
Q 3428 1669 3622 1275 
L 4263 0 
L 3584 0 
L 2988 1197 
Q 2756 1666 2539 1819 
Q 2322 1972 1947 1972 
L 1259 1972 
L 1259 0 
L 628 0 
L 628 4666 
L 2053 4666 
Q 2853 4666 3247 4331 
Q 3641 3997 3641 3322 
Q 3641 2881 3436 2590 
Q 3231 2300 2841 2188 
z
M 1259 4147 
L 1259 2491 
L 2053 2491 
Q 2509 2491 2742 2702 
Q 2975 2913 2975 3322 
Q 2975 3731 2742 3939 
Q 2509 4147 2053 4147 
L 1259 4147 
z
" transform="scale(0.015625)"/>
       <path id="DejaVuSans-6d" d="M 3328 2828 
Q 3544 3216 3844 3400 
Q 4144 3584 4550 3584 
Q 5097 3584 5394 3201 
Q 5691 2819 5691 2113 
L 5691 0 
L 5113 0 
L 5113 2094 
Q 5113 2597 4934 2840 
Q 4756 3084 4391 3084 
Q 3944 3084 3684 2787 
Q 3425 2491 3425 1978 
L 3425 0 
L 2847 0 
L 2847 2094 
Q 2847 2600 2669 2842 
Q 2491 3084 2119 3084 
Q 1678 3084 1418 2786 
Q 1159 2488 1159 1978 
L 1159 0 
L 581 0 
L 581 3500 
L 1159 3500 
L 1159 2956 
Q 1356 3278 1631 3431 
Q 1906 3584 2284 3584 
Q 2666 3584 2933 3390 
Q 3200 3197 3328 2828 
z
" transform="scale(0.015625)"/>
       <path id="DejaVuSans-2d" d="M 313 2009 
L 1997 2009 
L 1997 1497 
L 313 1497 
L 313 2009 
z
" transform="scale(0.015625)"/>
       <path id="DejaVuSans-47" d="M 3809 666 
L 3809 1919 
L 2778 1919 
L 2778 2438 
L 4434 2438 
L 4434 434 
Q 4069 175 3628 42 
Q 3188 -91 2688 -91 
Q 1594 -91 976 548 
Q 359 1188 359 2328 
Q 359 3472 976 4111 
Q 1594 4750 2688 4750 
Q 3144 4750 3555 4637 
Q 3966 4525 4313 4306 
L 4313 3634 
Q 3963 3931 3569 4081 
Q 3175 4231 2741 4231 
Q 1884 4231 1454 3753 
Q 1025 3275 1025 2328 
Q 1025 1384 1454 906 
Q 1884 428 2741 428 
Q 3075 428 3337 486 
Q 3600 544 3809 666 
z
" transform="scale(0.015625)"/>
       <path id="DejaVuSans-65" d="M 3597 1894 
L 3597 1613 
L 953 1613 
Q 991 1019 1311 708 
Q 1631 397 2203 397 
Q 2534 397 2845 478 
Q 3156 559 3463 722 
L 3463 178 
Q 3153 47 2828 -22 
Q 2503 -91 2169 -91 
Q 1331 -91 842 396 
Q 353 884 353 1716 
Q 353 2575 817 3079 
Q 1281 3584 2069 3584 
Q 2775 3584 3186 3129 
Q 3597 2675 3597 1894 
z
M 3022 2063 
Q 3016 2534 2758 2815 
Q 2500 3097 2075 3097 
Q 1594 3097 1305 2825 
Q 1016 2553 972 2059 
L 3022 2063 
z
" transform="scale(0.015625)"/>
      </defs>
      <use xlink:href="#DejaVuSans-52"/>
      <use xlink:href="#DejaVuSans-61" transform="translate(67.232422 0)"/>
      <use xlink:href="#DejaVuSans-6e" transform="translate(128.511719 0)"/>
      <use xlink:href="#DejaVuSans-64" transform="translate(191.890625 0)"/>
      <use xlink:href="#DejaVuSans-6f" transform="translate(255.367188 0)"/>
      <use xlink:href="#DejaVuSans-6d" transform="translate(316.548828 0)"/>
      <use xlink:href="#DejaVuSans-2d" transform="translate(413.960938 0)"/>
      <use xlink:href="#DejaVuSans-47" transform="translate(453.669922 0)"/>
      <use xlink:href="#DejaVuSans-75" transform="translate(531.160156 0)"/>
      <use xlink:href="#DejaVuSans-65" transform="translate(594.539062 0)"/>
      <use xlink:href="#DejaVuSans-73" transform="translate(656.0625 0)"/>
      <use xlink:href="#DejaVuSans-73" transform="translate(708.162109 0)"/>
      <use xlink:href="#DejaVuSans-65" transform="translate(760.261719 0)"/>
      <use xlink:href="#DejaVuSans-72" transform="translate(821.785156 0)"/>
      <use xlink:href="#DejaVuSans-20" transform="translate(862.898438 0)"/>
      <use xlink:href="#DejaVuSans-41" transform="translate(894.685547 0)"/>
      <use xlink:href="#DejaVuSans-63" transform="translate(961.34375 0)"/>
      <use xlink:href="#DejaVuSans-63" transform="translate(1016.324219 0)"/>
      <use xlink:href="#DejaVuSans-75" transform="translate(1071.304688 0)"/>
      <use xlink:href="#DejaVuSans-72" transform="translate(1134.683594 0)"/>
      <use xlink:href="#DejaVuSans-61" transform="translate(1175.796875 0)"/>
      <use xlink:href="#DejaVuSans-63" transform="translate(1237.076172 0)"/>
      <use xlink:href="#DejaVuSans-79" transform="translate(1292.056641 0)"/>
     </g>
    </g>
   </g>
  </g>
 </g>
 <defs>
  <clipPath id="pf6b37f9949">
   <rect x="43.78125" y="22.318125" width="558" height="554.4"/>
  </clipPath>
 </defs>
</svg>
