<?xml version="1.0" encoding="utf-8" standalone="no"?>
<!DOCTYPE svg PUBLIC "-//W3C//DTD SVG 1.1//EN"
  "http://www.w3.org/Graphics/SVG/1.1/DTD/svg11.dtd">
<svg xmlns:xlink="http://www.w3.org/1999/xlink" width="621.70625pt" height="614.274375pt" viewBox="0 0 621.70625 614.274375" xmlns="http://www.w3.org/2000/svg" version="1.1">
 <metadata>
  <rdf:RDF xmlns:dc="http://purl.org/dc/elements/1.1/" xmlns:cc="http://creativecommons.org/ns#" xmlns:rdf="http://www.w3.org/1999/02/22-rdf-syntax-ns#">
   <cc:Work>
    <dc:type rdf:resource="http://purl.org/dc/dcmitype/StillImage"/>
    <dc:date>2026-05-21T21:19:18.743051</dc:date>
    <dc:format>image/svg+xml</dc:format>
    <dc:creator>
     <cc:Agent>
      <dc:title>Matplotlib v3.10.9, https://matplotlib.org/</dc:title>
     </cc:Agent>
    </dc:creator>
   </cc:Work>
  </rdf:RDF>
 </metadata>
 <defs>
  <style type="text/css">*{stroke-linejoin: round; stroke-linecap: butt}</style>
 </defs>
 <g id="figure_1">
  <g id="patch_1">
   <path d="M 0 614.274375 
L 621.70625 614.274375 
L 621.70625 0 
L 0 0 
z
" style="fill: #ffffff"/>
  </g>
  <g id="axes_1">
   <g id="patch_2">
    <path d="M 56.50625 576.718125 
L 614.50625 576.718125 
L 614.50625 22.318125 
L 56.50625 22.318125 
z
" style="fill: #ffffff"/>
   </g>
   <g id="matplotlib.axis_1">
    <g id="xtick_1">
     <g id="line2d_1">
      <path d="M 81.869886 576.718125 
L 81.869886 22.318125 
" clip-path="url(#pe8c7b4507d)" style="fill: none; stroke: #b0b0b0; stroke-width: 0.8; stroke-linecap: square"/>
     </g>
     <g id="line2d_2">
      <defs>
       <path id="mafa93457bc" d="M 0 0 
L 0 3.5 
" style="stroke: #000000; stroke-width: 0.8"/>
      </defs>
      <g>
       <use xlink:href="#mafa93457bc" x="81.869886" y="576.718125" style="stroke: #000000; stroke-width: 0.8"/>
      </g>
     </g>
     <g id="text_1">
      <!-- 0 -->
      <g transform="translate(78.688636 591.316563) scale(0.1 -0.1)">
       <defs>
        <path id="DejaVuSans-30" d="M 2034 4250 
Q 1547 4250 1301 3770 
Q 1056 3291 1056 2328 
Q 1056 1369 1301 889 
Q 1547 409 2034 409 
Q 2525 409 2770 889 
Q 3016 1369 3016 2328 
Q 3016 3291 2770 3770 
Q 2525 4250 2034 4250 
z
M 2034 4750 
Q 2819 4750 3233 4129 
Q 3647 3509 3647 2328 
Q 3647 1150 3233 529 
Q 2819 -91 2034 -91 
Q 1250 -91 836 529 
Q 422 1150 422 2328 
Q 422 3509 836 4129 
Q 1250 4750 2034 4750 
z
" transform="scale(0.015625)"/>
       </defs>
       <use xlink:href="#DejaVuSans-30"/>
      </g>
     </g>
    </g>
    <g id="xtick_2">
     <g id="line2d_3">
      <path d="M 145.358338 576.718125 
L 145.358338 22.318125 
" clip-path="url(#pe8c7b4507d)" style="fill: none; stroke: #b0b0b0; stroke-width: 0.8; stroke-linecap: square"/>
     </g>
     <g id="line2d_4">
      <g>
       <use xlink:href="#mafa93457bc" x="145.358338" y="576.718125" style="stroke: #000000; stroke-width: 0.8"/>
      </g>
     </g>
     <g id="text_2">
      <!-- 100 -->
      <g transform="translate(135.814588 591.316563) scale(0.1 -0.1)">
       <defs>
        <path id="DejaVuSans-31" d="M 794 531 
L 1825 531 
L 1825 4091 
L 703 3866 
L 703 4441 
L 1819 4666 
L 2450 4666 
L 2450 531 
L 3481 531 
L 3481 0 
L 794 0 
L 794 531 
z
" transform="scale(0.015625)"/>
       </defs>
       <use xlink:href="#DejaVuSans-31"/>
       <use xlink:href="#DejaVuSans-30" transform="translate(63.623047 0)"/>
       <use xlink:href="#DejaVuSans-30" transform="translate(127.246094 0)"/>
      </g>
     </g>
    </g>
    <g id="xtick_3">
     <g id="line2d_5">
      <path d="M 208.846789 576.718125 
L 208.846789 22.318125 
" clip-path="url(#pe8c7b4507d)" style="fill: none; stroke: #b0b0b0; stroke-width: 0.8; stroke-linecap: square"/>
     </g>
     <g id="line2d_6">
      <g>
       <use xlink:href="#mafa93457bc" x="208.846789" y="576.718125" style="stroke: #000000; stroke-width: 0.8"/>
      </g>
     </g>
     <g id="text_3">
      <!-- 200 -->
      <g transform="translate(199.303039 591.316563) scale(0.1 -0.1)">
       <defs>
        <path id="DejaVuSans-32" d="M 1228 531 
L 3431 531 
L 3431 0 
L 469 0 
L 469 531 
Q 828 903 1448 1529 
Q 2069 2156 2228 2338 
Q 2531 2678 2651 2914 
Q 2772 3150 2772 3378 
Q 2772 3750 2511 3984 
Q 2250 4219 1831 4219 
Q 1534 4219 1204 4116 
Q 875 4013 500 3803 
L 500 4441 
Q 881 4594 1212 4672 
Q 1544 4750 1819 4750 
Q 2544 4750 2975 4387 
Q 3406 4025 3406 3419 
Q 3406 3131 3298 2873 
Q 3191 2616 2906 2266 
Q 2828 2175 2409 1742 
Q 1991 1309 1228 531 
z
" transform="scale(0.015625)"/>
       </defs>
       <use xlink:href="#DejaVuSans-32"/>
       <use xlink:href="#DejaVuSans-30" transform="translate(63.623047 0)"/>
       <use xlink:href="#DejaVuSans-30" transform="translate(127.246094 0)"/>
      </g>
     </g>
    </g>
    <g id="xtick_4">
     <g id="line2d_7">
      <path d="M 272.335241 576.718125 
L 272.335241 22.318125 
" clip-path="url(#pe8c7b4507d)" style="fill: none; stroke: #b0b0b0; stroke-width: 0.8; stroke-linecap: square"/>
     </g>
     <g id="line2d_8">
      <g>
       <use xlink:href="#mafa93457bc" x="272.335241" y="576.718125" style="stroke: #000000; stroke-width: 0.8"/>
      </g>
     </g>
     <g id="text_4">
      <!-- 300 -->
      <g transform="translate(262.791491 591.316563) scale(0.1 -0.1)">
       <defs>
        <path id="DejaVuSans-33" d="M 2597 2516 
Q 3050 2419 3304 2112 
Q 3559 1806 3559 1356 
Q 3559 666 3084 287 
Q 2609 -91 1734 -91 
Q 1441 -91 1130 -33 
Q 819 25 488 141 
L 488 750 
Q 750 597 1062 519 
Q 1375 441 1716 441 
Q 2309 441 2620 675 
Q 2931 909 2931 1356 
Q 2931 1769 2642 2001 
Q 2353 2234 1838 2234 
L 1294 2234 
L 1294 2753 
L 1863 2753 
Q 2328 2753 2575 2939 
Q 2822 3125 2822 3475 
Q 2822 3834 2567 4026 
Q 2313 4219 1838 4219 
Q 1578 4219 1281 4162 
Q 984 4106 628 3988 
L 628 4550 
Q 988 4650 1302 4700 
Q 1616 4750 1894 4750 
Q 2613 4750 3031 4423 
Q 3450 4097 3450 3541 
Q 3450 3153 3228 2886 
Q 3006 2619 2597 2516 
z
" transform="scale(0.015625)"/>
       </defs>
       <use xlink:href="#DejaVuSans-33"/>
       <use xlink:href="#DejaVuSans-30" transform="translate(63.623047 0)"/>
       <use xlink:href="#DejaVuSans-30" transform="translate(127.246094 0)"/>
      </g>
     </g>
    </g>
    <g id="xtick_5">
     <g id="line2d_9">
      <path d="M 335.823692 576.718125 
L 335.823692 22.318125 
" clip-path="url(#pe8c7b4507d)" style="fill: none; stroke: #b0b0b0; stroke-width: 0.8; stroke-linecap: square"/>
     </g>
     <g id="line2d_10">
      <g>
       <use xlink:href="#mafa93457bc" x="335.823692" y="576.718125" style="stroke: #000000; stroke-width: 0.8"/>
      </g>
     </g>
     <g id="text_5">
      <!-- 400 -->
      <g transform="translate(326.279942 591.316563) scale(0.1 -0.1)">
       <defs>
        <path id="DejaVuSans-34" d="M 2419 4116 
L 825 1625 
L 2419 1625 
L 2419 4116 
z
M 2253 4666 
L 3047 4666 
L 3047 1625 
L 3713 1625 
L 3713 1100 
L 3047 1100 
L 3047 0 
L 2419 0 
L 2419 1100 
L 313 1100 
L 313 1709 
L 2253 4666 
z
" transform="scale(0.015625)"/>
       </defs>
       <use xlink:href="#DejaVuSans-34"/>
       <use xlink:href="#DejaVuSans-30" transform="translate(63.623047 0)"/>
       <use xlink:href="#DejaVuSans-30" transform="translate(127.246094 0)"/>
      </g>
     </g>
    </g>
    <g id="xtick_6">
     <g id="line2d_11">
      <path d="M 399.312144 576.718125 
L 399.312144 22.318125 
" clip-path="url(#pe8c7b4507d)" style="fill: none; stroke: #b0b0b0; stroke-width: 0.8; stroke-linecap: square"/>
     </g>
     <g id="line2d_12">
      <g>
       <use xlink:href="#mafa93457bc" x="399.312144" y="576.718125" style="stroke: #000000; stroke-width: 0.8"/>
      </g>
     </g>
     <g id="text_6">
      <!-- 500 -->
      <g transform="translate(389.768394 591.316563) scale(0.1 -0.1)">
       <defs>
        <path id="DejaVuSans-35" d="M 691 4666 
L 3169 4666 
L 3169 4134 
L 1269 4134 
L 1269 2991 
Q 1406 3038 1543 3061 
Q 1681 3084 1819 3084 
Q 2600 3084 3056 2656 
Q 3513 2228 3513 1497 
Q 3513 744 3044 326 
Q 2575 -91 1722 -91 
Q 1428 -91 1123 -41 
Q 819 9 494 109 
L 494 744 
Q 775 591 1075 516 
Q 1375 441 1709 441 
Q 2250 441 2565 725 
Q 2881 1009 2881 1497 
Q 2881 1984 2565 2268 
Q 2250 2553 1709 2553 
Q 1456 2553 1204 2497 
Q 953 2441 691 2322 
L 691 4666 
z
" transform="scale(0.015625)"/>
       </defs>
       <use xlink:href="#DejaVuSans-35"/>
       <use xlink:href="#DejaVuSans-30" transform="translate(63.623047 0)"/>
       <use xlink:href="#DejaVuSans-30" transform="translate(127.246094 0)"/>
      </g>
     </g>
    </g>
    <g id="xtick_7">
     <g id="line2d_13">
      <path d="M 462.800595 576.718125 
L 462.800595 22.318125 
" clip-path="url(#pe8c7b4507d)" style="fill: none; stroke: #b0b0b0; stroke-width: 0.8; stroke-linecap: square"/>
     </g>
     <g id="line2d_14">
      <g>
       <use xlink:href="#mafa93457bc" x="462.800595" y="576.718125" style="stroke: #000000; stroke-width: 0.8"/>
      </g>
     </g>
     <g id="text_7">
      <!-- 600 -->
      <g transform="translate(453.256845 591.316563) scale(0.1 -0.1)">
       <defs>
        <path id="DejaVuSans-36" d="M 2113 2584 
Q 1688 2584 1439 2293 
Q 1191 2003 1191 1497 
Q 1191 994 1439 701 
Q 1688 409 2113 409 
Q 2538 409 2786 701 
Q 3034 994 3034 1497 
Q 3034 2003 2786 2293 
Q 2538 2584 2113 2584 
z
M 3366 4563 
L 3366 3988 
Q 3128 4100 2886 4159 
Q 2644 4219 2406 4219 
Q 1781 4219 1451 3797 
Q 1122 3375 1075 2522 
Q 1259 2794 1537 2939 
Q 1816 3084 2150 3084 
Q 2853 3084 3261 2657 
Q 3669 2231 3669 1497 
Q 3669 778 3244 343 
Q 2819 -91 2113 -91 
Q 1303 -91 875 529 
Q 447 1150 447 2328 
Q 447 3434 972 4092 
Q 1497 4750 2381 4750 
Q 2619 4750 2861 4703 
Q 3103 4656 3366 4563 
z
" transform="scale(0.015625)"/>
       </defs>
       <use xlink:href="#DejaVuSans-36"/>
       <use xlink:href="#DejaVuSans-30" transform="translate(63.623047 0)"/>
       <use xlink:href="#DejaVuSans-30" transform="translate(127.246094 0)"/>
      </g>
     </g>
    </g>
    <g id="xtick_8">
     <g id="line2d_15">
      <path d="M 526.289047 576.718125 
L 526.289047 22.318125 
" clip-path="url(#pe8c7b4507d)" style="fill: none; stroke: #b0b0b0; stroke-width: 0.8; stroke-linecap: square"/>
     </g>
     <g id="line2d_16">
      <g>
       <use xlink:href="#mafa93457bc" x="526.289047" y="576.718125" style="stroke: #000000; stroke-width: 0.8"/>
      </g>
     </g>
     <g id="text_8">
      <!-- 700 -->
      <g transform="translate(516.745297 591.316563) scale(0.1 -0.1)">
       <defs>
        <path id="DejaVuSans-37" d="M 525 4666 
L 3525 4666 
L 3525 4397 
L 1831 0 
L 1172 0 
L 2766 4134 
L 525 4134 
L 525 4666 
z
" transform="scale(0.015625)"/>
       </defs>
       <use xlink:href="#DejaVuSans-37"/>
       <use xlink:href="#DejaVuSans-30" transform="translate(63.623047 0)"/>
       <use xlink:href="#DejaVuSans-30" transform="translate(127.246094 0)"/>
      </g>
     </g>
    </g>
    <g id="xtick_9">
     <g id="line2d_17">
      <path d="M 589.777498 576.718125 
L 589.777498 22.318125 
" clip-path="url(#pe8c7b4507d)" style="fill: none; stroke: #b0b0b0; stroke-width: 0.8; stroke-linecap: square"/>
     </g>
     <g id="line2d_18">
      <g>
       <use xlink:href="#mafa93457bc" x="589.777498" y="576.718125" style="stroke: #000000; stroke-width: 0.8"/>
      </g>
     </g>
     <g id="text_9">
      <!-- 800 -->
      <g transform="translate(580.233748 591.316563) scale(0.1 -0.1)">
       <defs>
        <path id="DejaVuSans-38" d="M 2034 2216 
Q 1584 2216 1326 1975 
Q 1069 1734 1069 1313 
Q 1069 891 1326 650 
Q 1584 409 2034 409 
Q 2484 409 2743 651 
Q 3003 894 3003 1313 
Q 3003 1734 2745 1975 
Q 2488 2216 2034 2216 
z
M 1403 2484 
Q 997 2584 770 2862 
Q 544 3141 544 3541 
Q 544 4100 942 4425 
Q 1341 4750 2034 4750 
Q 2731 4750 3128 4425 
Q 3525 4100 3525 3541 
Q 3525 3141 3298 2862 
Q 3072 2584 2669 2484 
Q 3125 2378 3379 2068 
Q 3634 1759 3634 1313 
Q 3634 634 3220 271 
Q 2806 -91 2034 -91 
Q 1263 -91 848 271 
Q 434 634 434 1313 
Q 434 1759 690 2068 
Q 947 2378 1403 2484 
z
M 1172 3481 
Q 1172 3119 1398 2916 
Q 1625 2713 2034 2713 
Q 2441 2713 2670 2916 
Q 2900 3119 2900 3481 
Q 2900 3844 2670 4047 
Q 2441 4250 2034 4250 
Q 1625 4250 1398 4047 
Q 1172 3844 1172 3481 
z
" transform="scale(0.015625)"/>
       </defs>
       <use xlink:href="#DejaVuSans-38"/>
       <use xlink:href="#DejaVuSans-30" transform="translate(63.623047 0)"/>
       <use xlink:href="#DejaVuSans-30" transform="translate(127.246094 0)"/>
      </g>
     </g>
    </g>
    <g id="text_10">
     <!-- Epochs -->
     <g transform="translate(317.590625 604.994688) scale(0.1 -0.1)">
      <defs>
       <path id="DejaVuSans-45" d="M 628 4666 
L 3578 4666 
L 3578 4134 
L 1259 4134 
L 1259 2753 
L 3481 2753 
L 3481 2222 
L 1259 2222 
L 1259 531 
L 3634 531 
L 3634 0 
L 628 0 
L 628 4666 
z
" transform="scale(0.015625)"/>
       <path id="DejaVuSans-70" d="M 1159 525 
L 1159 -1331 
L 581 -1331 
L 581 3500 
L 1159 3500 
L 1159 2969 
Q 1341 3281 1617 3432 
Q 1894 3584 2278 3584 
Q 2916 3584 3314 3078 
Q 3713 2572 3713 1747 
Q 3713 922 3314 415 
Q 2916 -91 2278 -91 
Q 1894 -91 1617 61 
Q 1341 213 1159 525 
z
M 3116 1747 
Q 3116 2381 2855 2742 
Q 2594 3103 2138 3103 
Q 1681 3103 1420 2742 
Q 1159 2381 1159 1747 
Q 1159 1113 1420 752 
Q 1681 391 2138 391 
Q 2594 391 2855 752 
Q 3116 1113 3116 1747 
z
" transform="scale(0.015625)"/>
       <path id="DejaVuSans-6f" d="M 1959 3097 
Q 1497 3097 1228 2736 
Q 959 2375 959 1747 
Q 959 1119 1226 758 
Q 1494 397 1959 397 
Q 2419 397 2687 759 
Q 2956 1122 2956 1747 
Q 2956 2369 2687 2733 
Q 2419 3097 1959 3097 
z
M 1959 3584 
Q 2709 3584 3137 3096 
Q 3566 2609 3566 1747 
Q 3566 888 3137 398 
Q 2709 -91 1959 -91 
Q 1206 -91 779 398 
Q 353 888 353 1747 
Q 353 2609 779 3096 
Q 1206 3584 1959 3584 
z
" transform="scale(0.015625)"/>
       <path id="DejaVuSans-63" d="M 3122 3366 
L 3122 2828 
Q 2878 2963 2633 3030 
Q 2388 3097 2138 3097 
Q 1578 3097 1268 2742 
Q 959 2388 959 1747 
Q 959 1106 1268 751 
Q 1578 397 2138 397 
Q 2388 397 2633 464 
Q 2878 531 3122 666 
L 3122 134 
Q 2881 22 2623 -34 
Q 2366 -91 2075 -91 
Q 1284 -91 818 406 
Q 353 903 353 1747 
Q 353 2603 823 3093 
Q 1294 3584 2113 3584 
Q 2378 3584 2631 3529 
Q 2884 3475 3122 3366 
z
" transform="scale(0.015625)"/>
       <path id="DejaVuSans-68" d="M 3513 2113 
L 3513 0 
L 2938 0 
L 2938 2094 
Q 2938 2591 2744 2837 
Q 2550 3084 2163 3084 
Q 1697 3084 1428 2787 
Q 1159 2491 1159 1978 
L 1159 0 
L 581 0 
L 581 4863 
L 1159 4863 
L 1159 2956 
Q 1366 3272 1645 3428 
Q 1925 3584 2291 3584 
Q 2894 3584 3203 3211 
Q 3513 2838 3513 2113 
z
" transform="scale(0.015625)"/>
       <path id="DejaVuSans-73" d="M 2834 3397 
L 2834 2853 
Q 2591 2978 2328 3040 
Q 2066 3103 1784 3103 
Q 1356 3103 1142 2972 
Q 928 2841 928 2578 
Q 928 2378 1081 2264 
Q 1234 2150 1697 2047 
L 1894 2003 
Q 2506 1872 2764 1633 
Q 3022 1394 3022 966 
Q 3022 478 2636 193 
Q 2250 -91 1575 -91 
Q 1294 -91 989 -36 
Q 684 19 347 128 
L 347 722 
Q 666 556 975 473 
Q 1284 391 1588 391 
Q 1994 391 2212 530 
Q 2431 669 2431 922 
Q 2431 1156 2273 1281 
Q 2116 1406 1581 1522 
L 1381 1569 
Q 847 1681 609 1914 
Q 372 2147 372 2553 
Q 372 3047 722 3315 
Q 1072 3584 1716 3584 
Q 2034 3584 2315 3537 
Q 2597 3491 2834 3397 
z
" transform="scale(0.015625)"/>
      </defs>
      <use xlink:href="#DejaVuSans-45"/>
      <use xlink:href="#DejaVuSans-70" transform="translate(63.183594 0)"/>
      <use xlink:href="#DejaVuSans-6f" transform="translate(126.660156 0)"/>
      <use xlink:href="#DejaVuSans-63" transform="translate(187.841797 0)"/>
      <use xlink:href="#DejaVuSans-68" transform="translate(242.822266 0)"/>
      <use xlink:href="#DejaVuSans-73" transform="translate(306.201172 0)"/>
     </g>
    </g>
   </g>
   <g id="matplotlib.axis_2">
    <g id="ytick_1">
     <g id="line2d_19">
      <path d="M 56.50625 569.195449 
L 614.50625 569.195449 
" clip-path="url(#pe8c7b4507d)" style="fill: none; stroke: #b0b0b0; stroke-width: 0.8; stroke-linecap: square"/>
     </g>
     <g id="line2d_20">
      <defs>
       <path id="m56b43593ba" d="M 0 0 
L -3.5 0 
" style="stroke: #000000; stroke-width: 0.8"/>
      </defs>
      <g>
       <use xlink:href="#m56b43593ba" x="56.50625" y="569.195449" style="stroke: #000000; stroke-width: 0.8"/>
      </g>
     </g>
     <g id="text_11">
      <!-- 0.003 -->
      <g transform="translate(20.878125 572.994668) scale(0.1 -0.1)">
       <defs>
        <path id="DejaVuSans-2e" d="M 684 794 
L 1344 794 
L 1344 0 
L 684 0 
L 684 794 
z
" transform="scale(0.015625)"/>
       </defs>
       <use xlink:href="#DejaVuSans-30"/>
       <use xlink:href="#DejaVuSans-2e" transform="translate(63.623047 0)"/>
       <use xlink:href="#DejaVuSans-30" transform="translate(95.410156 0)"/>
       <use xlink:href="#DejaVuSans-30" transform="translate(159.033203 0)"/>
       <use xlink:href="#DejaVuSans-33" transform="translate(222.65625 0)"/>
      </g>
     </g>
    </g>
    <g id="ytick_2">
     <g id="line2d_21">
      <path d="M 56.50625 498.486173 
L 614.50625 498.486173 
" clip-path="url(#pe8c7b4507d)" style="fill: none; stroke: #b0b0b0; stroke-width: 0.8; stroke-linecap: square"/>
     </g>
     <g id="line2d_22">
      <g>
       <use xlink:href="#m56b43593ba" x="56.50625" y="498.486173" style="stroke: #000000; stroke-width: 0.8"/>
      </g>
     </g>
     <g id="text_12">
      <!-- 0.004 -->
      <g transform="translate(20.878125 502.285391) scale(0.1 -0.1)">
       <use xlink:href="#DejaVuSans-30"/>
       <use xlink:href="#DejaVuSans-2e" transform="translate(63.623047 0)"/>
       <use xlink:href="#DejaVuSans-30" transform="translate(95.410156 0)"/>
       <use xlink:href="#DejaVuSans-30" transform="translate(159.033203 0)"/>
       <use xlink:href="#DejaVuSans-34" transform="translate(222.65625 0)"/>
      </g>
     </g>
    </g>
    <g id="ytick_3">
     <g id="line2d_23">
      <path d="M 56.50625 427.776896 
L 614.50625 427.776896 
" clip-path="url(#pe8c7b4507d)" style="fill: none; stroke: #b0b0b0; stroke-width: 0.8; stroke-linecap: square"/>
     </g>
     <g id="line2d_24">
      <g>
       <use xlink:href="#m56b43593ba" x="56.50625" y="427.776896" style="stroke: #000000; stroke-width: 0.8"/>
      </g>
     </g>
     <g id="text_13">
      <!-- 0.005 -->
      <g transform="translate(20.878125 431.576115) scale(0.1 -0.1)">
       <use xlink:href="#DejaVuSans-30"/>
       <use xlink:href="#DejaVuSans-2e" transform="translate(63.623047 0)"/>
       <use xlink:href="#DejaVuSans-30" transform="translate(95.410156 0)"/>
       <use xlink:href="#DejaVuSans-30" transform="translate(159.033203 0)"/>
       <use xlink:href="#DejaVuSans-35" transform="translate(222.65625 0)"/>
      </g>
     </g>
    </g>
    <g id="ytick_4">
     <g id="line2d_25">
      <path d="M 56.50625 357.06762 
L 614.50625 357.06762 
" clip-path="url(#pe8c7b4507d)" style="fill: none; stroke: #b0b0b0; stroke-width: 0.8; stroke-linecap: square"/>
     </g>
     <g id="line2d_26">
      <g>
       <use xlink:href="#m56b43593ba" x="56.50625" y="357.06762" style="stroke: #000000; stroke-width: 0.8"/>
      </g>
     </g>
     <g id="text_14">
      <!-- 0.006 -->
      <g transform="translate(20.878125 360.866839) scale(0.1 -0.1)">
       <use xlink:href="#DejaVuSans-30"/>
       <use xlink:href="#DejaVuSans-2e" transform="translate(63.623047 0)"/>
       <use xlink:href="#DejaVuSans-30" transform="translate(95.410156 0)"/>
       <use xlink:href="#DejaVuSans-30" transform="translate(159.033203 0)"/>
       <use xlink:href="#DejaVuSans-36" transform="translate(222.65625 0)"/>
      </g>
     </g>
    </g>
    <g id="ytick_5">
     <g id="line2d_27">
      <path d="M 56.50625 286.358344 
L 614.50625 286.358344 
" clip-path="url(#pe8c7b4507d)" style="fill: none; stroke: #b0b0b0; stroke-width: 0.8; stroke-linecap: square"/>
     </g>
     <g id="line2d_28">
      <g>
       <use xlink:href="#m56b43593ba" x="56.50625" y="286.358344" style="stroke: #000000; stroke-width: 0.8"/>
      </g>
     </g>
     <g id="text_15">
      <!-- 0.007 -->
      <g transform="translate(20.878125 290.157563) scale(0.1 -0.1)">
       <use xlink:href="#DejaVuSans-30"/>
       <use xlink:href="#DejaVuSans-2e" transform="translate(63.623047 0)"/>
       <use xlink:href="#DejaVuSans-30" transform="translate(95.410156 0)"/>
       <use xlink:href="#DejaVuSans-30" transform="translate(159.033203 0)"/>
       <use xlink:href="#DejaVuSans-37" transform="translate(222.65625 0)"/>
      </g>
     </g>
    </g>
    <g id="ytick_6">
     <g id="line2d_29">
      <path d="M 56.50625 215.649068 
L 614.50625 215.649068 
" clip-path="url(#pe8c7b4507d)" style="fill: none; stroke: #b0b0b0; stroke-width: 0.8; stroke-linecap: square"/>
     </g>
     <g id="line2d_30">
      <g>
       <use xlink:href="#m56b43593ba" x="56.50625" y="215.649068" style="stroke: #000000; stroke-width: 0.8"/>
      </g>
     </g>
     <g id="text_16">
      <!-- 0.008 -->
      <g transform="translate(20.878125 219.448287) scale(0.1 -0.1)">
       <use xlink:href="#DejaVuSans-30"/>
       <use xlink:href="#DejaVuSans-2e" transform="translate(63.623047 0)"/>
       <use xlink:href="#DejaVuSans-30" transform="translate(95.410156 0)"/>
       <use xlink:href="#DejaVuSans-30" transform="translate(159.033203 0)"/>
       <use xlink:href="#DejaVuSans-38" transform="translate(222.65625 0)"/>
      </g>
     </g>
    </g>
    <g id="ytick_7">
     <g id="line2d_31">
      <path d="M 56.50625 144.939792 
L 614.50625 144.939792 
" clip-path="url(#pe8c7b4507d)" style="fill: none; stroke: #b0b0b0; stroke-width: 0.8; stroke-linecap: square"/>
     </g>
     <g id="line2d_32">
      <g>
       <use xlink:href="#m56b43593ba" x="56.50625" y="144.939792" style="stroke: #000000; stroke-width: 0.8"/>
      </g>
     </g>
     <g id="text_17">
      <!-- 0.009 -->
      <g transform="translate(20.878125 148.73901) scale(0.1 -0.1)">
       <defs>
        <path id="DejaVuSans-39" d="M 703 97 
L 703 672 
Q 941 559 1184 500 
Q 1428 441 1663 441 
Q 2288 441 2617 861 
Q 2947 1281 2994 2138 
Q 2813 1869 2534 1725 
Q 2256 1581 1919 1581 
Q 1219 1581 811 2004 
Q 403 2428 403 3163 
Q 403 3881 828 4315 
Q 1253 4750 1959 4750 
Q 2769 4750 3195 4129 
Q 3622 3509 3622 2328 
Q 3622 1225 3098 567 
Q 2575 -91 1691 -91 
Q 1453 -91 1209 -44 
Q 966 3 703 97 
z
M 1959 2075 
Q 2384 2075 2632 2365 
Q 2881 2656 2881 3163 
Q 2881 3666 2632 3958 
Q 2384 4250 1959 4250 
Q 1534 4250 1286 3958 
Q 1038 3666 1038 3163 
Q 1038 2656 1286 2365 
Q 1534 2075 1959 2075 
z
" transform="scale(0.015625)"/>
       </defs>
       <use xlink:href="#DejaVuSans-30"/>
       <use xlink:href="#DejaVuSans-2e" transform="translate(63.623047 0)"/>
       <use xlink:href="#DejaVuSans-30" transform="translate(95.410156 0)"/>
       <use xlink:href="#DejaVuSans-30" transform="translate(159.033203 0)"/>
       <use xlink:href="#DejaVuSans-39" transform="translate(222.65625 0)"/>
      </g>
     </g>
    </g>
    <g id="ytick_8">
     <g id="line2d_33">
      <path d="M 56.50625 74.230516 
L 614.50625 74.230516 
" clip-path="url(#pe8c7b4507d)" style="fill: none; stroke: #b0b0b0; stroke-width: 0.8; stroke-linecap: square"/>
     </g>
     <g id="line2d_34">
      <g>
       <use xlink:href="#m56b43593ba" x="56.50625" y="74.230516" style="stroke: #000000; stroke-width: 0.8"/>
      </g>
     </g>
     <g id="text_18">
      <!-- 0.010 -->
      <g transform="translate(20.878125 78.029734) scale(0.1 -0.1)">
       <use xlink:href="#DejaVuSans-30"/>
       <use xlink:href="#DejaVuSans-2e" transform="translate(63.623047 0)"/>
       <use xlink:href="#DejaVuSans-30" transform="translate(95.410156 0)"/>
       <use xlink:href="#DejaVuSans-31" transform="translate(159.033203 0)"/>
       <use xlink:href="#DejaVuSans-30" transform="translate(222.65625 0)"/>
      </g>
     </g>
    </g>
    <g id="text_19">
     <!-- Accuracy -->
     <g transform="translate(14.798437 322.34625) rotate(-90) scale(0.1 -0.1)">
      <defs>
       <path id="DejaVuSans-41" d="M 2188 4044 
L 1331 1722 
L 3047 1722 
L 2188 4044 
z
M 1831 4666 
L 2547 4666 
L 4325 0 
L 3669 0 
L 3244 1197 
L 1141 1197 
L 716 0 
L 50 0 
L 1831 4666 
z
" transform="scale(0.015625)"/>
       <path id="DejaVuSans-75" d="M 544 1381 
L 544 3500 
L 1119 3500 
L 1119 1403 
Q 1119 906 1312 657 
Q 1506 409 1894 409 
Q 2359 409 2629 706 
Q 2900 1003 2900 1516 
L 2900 3500 
L 3475 3500 
L 3475 0 
L 2900 0 
L 2900 538 
Q 2691 219 2414 64 
Q 2138 -91 1772 -91 
Q 1169 -91 856 284 
Q 544 659 544 1381 
z
M 1991 3584 
L 1991 3584 
z
" transform="scale(0.015625)"/>
       <path id="DejaVuSans-72" d="M 2631 2963 
Q 2534 3019 2420 3045 
Q 2306 3072 2169 3072 
Q 1681 3072 1420 2755 
Q 1159 2438 1159 1844 
L 1159 0 
L 581 0 
L 581 3500 
L 1159 3500 
L 1159 2956 
Q 1341 3275 1631 3429 
Q 1922 3584 2338 3584 
Q 2397 3584 2469 3576 
Q 2541 3569 2628 3553 
L 2631 2963 
z
" transform="scale(0.015625)"/>
       <path id="DejaVuSans-61" d="M 2194 1759 
Q 1497 1759 1228 1600 
Q 959 1441 959 1056 
Q 959 750 1161 570 
Q 1363 391 1709 391 
Q 2188 391 2477 730 
Q 2766 1069 2766 1631 
L 2766 1759 
L 2194 1759 
z
M 3341 1997 
L 3341 0 
L 2766 0 
L 2766 531 
Q 2569 213 2275 61 
Q 1981 -91 1556 -91 
Q 1019 -91 701 211 
Q 384 513 384 1019 
Q 384 1609 779 1909 
Q 1175 2209 1959 2209 
L 2766 2209 
L 2766 2266 
Q 2766 2663 2505 2880 
Q 2244 3097 1772 3097 
Q 1472 3097 1187 3025 
Q 903 2953 641 2809 
L 641 3341 
Q 956 3463 1253 3523 
Q 1550 3584 1831 3584 
Q 2591 3584 2966 3190 
Q 3341 2797 3341 1997 
z
" transform="scale(0.015625)"/>
       <path id="DejaVuSans-79" d="M 2059 -325 
Q 1816 -950 1584 -1140 
Q 1353 -1331 966 -1331 
L 506 -1331 
L 506 -850 
L 844 -850 
Q 1081 -850 1212 -737 
Q 1344 -625 1503 -206 
L 1606 56 
L 191 3500 
L 800 3500 
L 1894 763 
L 2988 3500 
L 3597 3500 
L 2059 -325 
z
" transform="scale(0.015625)"/>
      </defs>
      <use xlink:href="#DejaVuSans-41"/>
      <use xlink:href="#DejaVuSans-63" transform="translate(66.658203 0)"/>
      <use xlink:href="#DejaVuSans-63" transform="translate(121.638672 0)"/>
      <use xlink:href="#DejaVuSans-75" transform="translate(176.619141 0)"/>
      <use xlink:href="#DejaVuSans-72" transform="translate(239.998047 0)"/>
      <use xlink:href="#DejaVuSans-61" transform="translate(281.111328 0)"/>
      <use xlink:href="#DejaVuSans-63" transform="translate(342.390625 0)"/>
      <use xlink:href="#DejaVuSans-79" transform="translate(397.371094 0)"/>
     </g>
    </g>
   </g>
   <g id="line2d_35">
    <path d="M 81.869886 510.663887 
L 82.504771 489.451108 
L 83.139655 500.057481 
L 83.77454 480.416023 
L 84.409424 477.273379 
L 85.044309 476.094904 
L 85.679193 429.348226 
L 86.948962 384.958498 
L 87.583847 344.10426 
L 88.218732 351.960837 
L 88.853616 353.924973 
L 89.488501 351.960837 
L 90.123385 331.140871 
L 90.75827 318.963176 
L 91.393154 345.675582 
L 92.028039 318.963176 
L 92.662923 328.783921 
L 93.297808 318.177515 
L 93.932692 301.678701 
L 94.567577 295.78626 
L 95.202461 305.99982 
L 95.837346 281.644396 
L 96.47223 286.751176 
L 97.107115 270.645176 
L 97.741999 249.432396 
L 98.376884 248.253888 
L 99.011768 253.753515 
L 99.646653 236.861854 
L 100.281537 234.112057 
L 100.916422 214.470599 
L 101.551306 216.434735 
L 102.186191 232.147888 
L 102.821075 213.292091 
L 103.45596 187.758193 
L 104.090844 202.685718 
L 105.360613 196.793244 
L 105.995498 183.044227 
L 106.630382 218.006057 
L 107.265267 181.080091 
L 107.900151 210.149447 
L 108.535036 203.471346 
L 109.16992 170.080838 
L 109.804805 212.113583 
L 110.43969 205.435482 
L 111.074574 164.18843 
L 111.709459 183.437041 
L 112.344343 190.115143 
L 112.979228 175.187617 
L 113.614112 177.151819 
L 114.248997 191.29365 
L 114.883881 190.115143 
L 116.15365 171.65216 
L 116.788535 192.079278 
L 117.423419 196.40043 
L 118.058304 167.331074 
L 118.693188 172.437854 
L 119.328073 157.903142 
L 119.962957 177.937447 
L 120.597842 187.365379 
L 121.232726 137.08321 
L 121.867611 183.437041 
L 122.502495 155.939007 
L 123.13738 157.117514 
L 123.772264 182.651413 
L 124.407149 164.18843 
L 125.042033 164.974058 
L 125.676918 177.544633 
L 126.311802 174.401989 
L 126.946687 156.331821 
L 127.581571 165.759752 
L 128.216456 168.509582 
L 128.85134 186.186871 
L 129.486225 164.18843 
L 130.121109 148.082397 
L 130.755994 170.473718 
L 131.390879 159.08165 
L 132.025763 154.367685 
L 132.660648 154.760499 
L 133.295532 176.366125 
L 133.930417 161.045786 
L 134.565301 181.472905 
L 135.200186 146.118261 
L 135.83507 163.795616 
L 136.469955 177.937447 
L 137.104839 182.651413 
L 137.739724 167.723888 
L 138.374608 159.867278 
L 139.009493 143.368497 
L 139.644377 186.972499 
L 140.279262 162.617108 
L 140.914146 151.617921 
L 141.549031 164.18843 
L 142.183915 156.7247 
L 142.8188 170.080838 
L 143.453684 158.688836 
L 144.088569 179.115955 
L 144.723453 152.796363 
L 145.358338 147.296769 
L 145.993222 173.223482 
L 146.628107 168.509582 
L 147.262991 170.080838 
L 147.897876 144.154125 
L 148.53276 164.974058 
L 149.167645 134.33338 
L 149.802529 161.4386 
L 150.437414 146.118261 
L 151.072298 174.794803 
L 151.707183 159.867278 
L 152.342067 168.116702 
L 153.611837 141.797175 
L 154.246721 155.939007 
L 154.881606 166.93826 
L 155.51649 154.367685 
L 156.151375 144.546939 
L 156.786259 141.404295 
L 157.421144 139.833039 
L 158.056028 158.295956 
L 158.690913 151.225041 
L 159.325797 139.047346 
L 159.960682 145.725447 
L 160.595566 131.190736 
L 161.230451 154.760499 
L 161.865335 148.868091 
L 162.50022 170.080838 
L 163.135104 130.797922 
L 163.769989 136.297516 
L 164.404873 153.189177 
L 165.039758 150.832227 
L 165.674642 144.939819 
L 166.309527 119.798735 
L 166.944411 153.974871 
L 167.579296 154.760499 
L 168.21418 165.366938 
L 168.849065 148.475277 
L 170.118834 135.904702 
L 170.753718 137.868838 
L 171.388603 145.332633 
L 172.023487 144.154125 
L 172.658372 152.796363 
L 173.928141 133.940566 
L 174.563026 128.440972 
L 175.19791 142.582803 
L 175.832795 141.797175 
L 176.467679 151.617921 
L 177.102564 150.832227 
L 177.737448 148.082397 
L 178.372333 146.903955 
L 179.007217 133.547752 
L 179.642102 154.367685 
L 180.276986 139.047346 
L 180.911871 133.547752 
L 181.546755 129.61948 
L 182.18164 151.225041 
L 182.816524 145.725447 
L 183.451409 128.048158 
L 184.086293 144.546939 
L 184.721178 144.939819 
L 185.356062 138.261718 
L 185.990947 127.655278 
L 186.625831 136.690396 
L 187.260716 115.477583 
L 187.8956 139.44016 
L 188.530485 141.404295 
L 189.165369 117.048905 
L 189.800254 133.547752 
L 190.435138 138.261718 
L 191.070023 141.011481 
L 191.704907 133.547752 
L 192.339792 120.584363 
L 192.974676 144.154125 
L 193.609561 140.618667 
L 194.244445 126.476836 
L 194.87933 125.691142 
L 195.514215 124.11982 
L 196.149099 137.476024 
L 196.783984 114.299075 
L 197.418868 150.046599 
L 198.053753 149.260905 
L 198.688637 124.11982 
L 199.323522 152.403549 
L 199.958406 119.405855 
L 200.593291 122.155685 
L 201.228175 145.725447 
L 201.86306 151.617921 
L 202.497944 118.227413 
L 203.132829 109.585175 
L 203.767713 136.297516 
L 204.402598 123.334192 
L 205.037482 141.404295 
L 205.672367 125.691142 
L 206.307251 133.940566 
L 206.942136 119.405855 
L 208.211905 135.511888 
L 208.846789 117.834599 
L 209.481674 139.833039 
L 210.116558 123.727006 
L 210.751443 127.655278 
L 211.386327 129.61948 
L 212.021212 124.5127 
L 212.656096 130.405108 
L 213.290981 100.550058 
L 213.925865 104.085516 
L 214.56075 103.299888 
L 215.195634 128.833786 
L 215.830519 123.334192 
L 216.465403 109.977989 
L 217.100288 120.977177 
L 217.735173 112.727819 
L 218.370057 121.370057 
L 219.004942 121.762871 
L 219.639826 100.942938 
L 220.274711 123.727006 
L 220.909595 131.583616 
L 221.54448 108.406667 
L 222.179364 115.477583 
L 222.814249 137.476024 
L 223.449133 111.942125 
L 224.084018 123.727006 
L 224.718902 116.656091 
L 225.353787 122.548499 
L 225.988671 111.549311 
L 226.623556 114.691955 
L 227.25844 111.549311 
L 227.893325 140.225853 
L 228.528209 126.083956 
L 229.163094 97.800294 
L 229.797978 126.86965 
L 230.432863 126.083956 
L 231.067747 127.655278 
L 231.702632 141.011481 
L 232.337516 101.335752 
L 232.972401 137.476024 
L 233.607285 114.299075 
L 234.24217 109.977989 
L 234.877054 121.762871 
L 235.511939 125.691142 
L 236.146823 122.941378 
L 236.781708 144.154125 
L 237.416592 117.048905 
L 238.051477 99.371616 
L 238.686362 114.299075 
L 239.321246 113.513447 
L 239.956131 99.371616 
L 240.591015 115.477583 
L 241.2259 127.262464 
L 241.860784 132.369244 
L 242.495669 120.977177 
L 243.130553 111.942125 
L 243.765438 111.942125 
L 244.400322 100.157244 
L 245.035207 123.727006 
L 245.670091 127.262464 
L 246.304976 136.690396 
L 246.93986 129.2266 
L 247.574745 113.120633 
L 248.209629 125.691142 
L 248.844514 102.907074 
L 250.114283 122.941378 
L 250.749167 128.440972 
L 251.384052 107.228159 
L 252.018936 108.406667 
L 252.653821 142.975617 
L 253.288705 115.084769 
L 253.92359 114.691955 
L 254.558474 119.013041 
L 255.193359 114.691955 
L 255.828243 129.2266 
L 256.463128 119.013041 
L 257.732897 133.547752 
L 258.367781 112.727819 
L 259.002666 122.548499 
L 259.63755 109.192295 
L 260.272435 115.870397 
L 260.90732 101.335752 
L 261.542204 110.763617 
L 262.177089 109.585175 
L 262.811973 122.548499 
L 263.446858 102.907074 
L 264.081742 127.262464 
L 264.716627 82.479955 
L 265.351511 106.049717 
L 265.986396 112.334939 
L 266.62128 110.763617 
L 267.256165 106.442531 
L 267.891049 111.156497 
L 268.525934 139.44016 
L 269.160818 98.193108 
L 269.795703 110.370803 
L 270.430587 92.693514 
L 271.065472 96.228972 
L 271.700356 96.621786 
L 272.335241 116.656091 
L 272.970125 116.263277 
L 273.60501 126.86965 
L 274.239894 98.978736 
L 274.874779 106.049717 
L 275.509663 130.797922 
L 276.779432 92.693514 
L 277.414317 100.550058 
L 278.049201 91.515006 
L 278.684086 113.513447 
L 279.953855 78.944497 
L 280.588739 133.154938 
L 281.223624 109.585175 
L 281.858509 94.264836 
L 282.493393 111.942125 
L 283.128278 105.656838 
L 283.763162 103.692702 
L 284.398047 110.763617 
L 285.032931 100.942938 
L 285.667816 123.334192 
L 286.3027 95.443278 
L 286.937585 109.585175 
L 287.572469 101.335752 
L 288.207354 102.12138 
L 288.842238 86.408227 
L 289.477123 92.300634 
L 290.112007 124.5127 
L 290.746892 94.65765 
L 291.381776 123.334192 
L 292.016661 103.299888 
L 292.651545 120.977177 
L 293.28643 113.513447 
L 293.921314 104.478396 
L 294.556199 114.299075 
L 295.191083 103.692702 
L 295.825968 108.406667 
L 296.460852 117.441719 
L 297.095737 101.728566 
L 297.730621 90.336498 
L 298.365506 108.013853 
L 299.00039 107.621039 
L 299.635275 84.444091 
L 300.270159 105.264024 
L 300.905044 88.372363 
L 301.539928 104.085516 
L 302.174813 98.585922 
L 302.809697 110.370803 
L 303.444582 124.5127 
L 304.079467 94.65765 
L 304.714351 112.334939 
L 305.349236 95.836158 
L 305.98412 98.978736 
L 306.619005 113.906261 
L 307.253889 98.585922 
L 307.888774 79.730125 
L 308.523658 78.944497 
L 309.158543 108.013853 
L 309.793427 91.90782 
L 310.428312 93.479142 
L 311.063196 104.085516 
L 311.698081 91.90782 
L 312.332965 88.372363 
L 312.96785 83.658397 
L 313.602734 73.052023 
L 314.237619 112.727819 
L 314.872503 113.120633 
L 315.507388 104.478396 
L 316.142272 91.90782 
L 316.777157 113.120633 
L 317.412041 75.801853 
L 318.046926 100.157244 
L 318.68181 98.978736 
L 319.316695 89.943684 
L 319.951579 75.408973 
L 320.586464 98.585922 
L 321.221348 102.514194 
L 321.856233 98.585922 
L 322.491117 77.373175 
L 323.126002 99.76443 
L 324.395771 85.229719 
L 325.030656 81.694261 
L 325.66554 110.763617 
L 326.300425 120.191549 
L 326.935309 85.622533 
L 327.570194 75.408973 
L 328.205078 89.943684 
L 328.839963 87.586735 
L 329.474847 103.692702 
L 330.109732 70.695074 
L 330.744616 97.407414 
L 331.379501 116.656091 
L 332.014385 87.586735 
L 332.64927 122.155685 
L 333.284154 106.442531 
L 333.919039 93.871956 
L 334.553923 97.800294 
L 335.188808 87.193855 
L 336.458577 135.904702 
L 337.093461 88.765177 
L 337.728346 89.55087 
L 338.36323 120.191549 
L 338.998115 99.76443 
L 339.632999 100.550058 
L 340.267884 91.90782 
L 340.902768 76.587481 
L 342.172537 106.442531 
L 342.807422 102.907074 
L 343.442306 85.622533 
L 344.077191 88.765177 
L 344.712075 109.192295 
L 345.34696 100.550058 
L 345.981844 95.050464 
L 346.616729 85.622533 
L 347.251614 106.049717 
L 347.886498 114.299075 
L 348.521383 95.050464 
L 349.156267 92.693514 
L 349.791152 94.65765 
L 350.426036 99.371616 
L 351.060921 97.407414 
L 351.695805 104.085516 
L 352.33069 99.371616 
L 352.965574 97.0146 
L 353.600459 85.622533 
L 354.235343 93.086328 
L 354.870228 77.765989 
L 355.505112 113.513447 
L 356.139997 107.228159 
L 356.774881 102.514194 
L 357.409766 111.549311 
L 358.04465 111.549311 
L 358.679535 88.765177 
L 359.314419 93.871956 
L 359.949304 79.337311 
L 360.584188 97.407414 
L 361.219073 93.086328 
L 361.853957 98.978736 
L 362.488842 96.228972 
L 363.123726 98.978736 
L 363.758611 106.049717 
L 364.393495 87.193855 
L 365.02838 95.443278 
L 365.663264 115.477583 
L 366.298149 79.730125 
L 366.933033 93.086328 
L 367.567918 91.90782 
L 368.202803 79.730125 
L 368.837687 80.908633 
L 369.472572 106.049717 
L 370.107456 105.264024 
L 370.742341 72.266395 
L 371.377225 95.050464 
L 372.01211 95.443278 
L 372.646994 91.515006 
L 373.281879 85.229719 
L 373.916763 102.514194 
L 375.186532 87.193855 
L 375.821417 110.370803 
L 376.456301 78.944497 
L 377.091186 99.76443 
L 377.72607 95.836158 
L 378.360955 89.158056 
L 378.995839 75.016159 
L 379.630724 98.978736 
L 380.265608 102.907074 
L 380.900493 75.801853 
L 381.535377 98.585922 
L 382.805146 91.122192 
L 383.440031 85.622533 
L 384.074915 104.085516 
L 384.7098 75.801853 
L 385.344684 83.265583 
L 385.979569 97.407414 
L 386.614453 84.444091 
L 387.249338 91.515006 
L 387.884222 82.087075 
L 388.519107 82.087075 
L 389.153991 93.871956 
L 389.788876 97.800294 
L 390.423761 91.515006 
L 391.058645 69.516566 
L 391.69353 100.157244 
L 392.328414 97.407414 
L 392.963299 101.728566 
L 393.598183 86.801041 
L 394.233068 86.801041 
L 394.867952 91.122192 
L 395.502837 76.980295 
L 396.137721 102.12138 
L 396.772606 98.585922 
L 397.40749 76.587481 
L 398.042375 78.551617 
L 398.677259 87.586735 
L 399.312144 74.230531 
L 399.947028 108.406667 
L 400.581913 69.516566 
L 401.216797 88.372363 
L 401.851682 93.871956 
L 402.486566 100.942938 
L 403.121451 93.086328 
L 403.756335 93.086328 
L 404.39122 95.836158 
L 405.026104 105.264024 
L 405.660989 71.087888 
L 406.295873 81.301447 
L 406.930758 70.302194 
L 408.200527 96.228972 
L 408.835411 73.837717 
L 409.470296 75.801853 
L 410.10518 118.227413 
L 410.740065 111.942125 
L 411.37495 101.728566 
L 412.644719 78.551617 
L 413.279603 86.801041 
L 413.914488 92.300634 
L 414.549372 65.981108 
L 415.184257 108.013853 
L 415.819141 80.515753 
L 416.454026 99.76443 
L 417.08891 76.194667 
L 417.723795 61.267142 
L 418.358679 103.692702 
L 418.993564 67.945244 
L 419.628448 100.550058 
L 420.263333 102.907074 
L 420.898217 91.515006 
L 421.533102 97.0146 
L 422.167986 74.623345 
L 422.802871 93.871956 
L 423.437755 107.621039 
L 424.07264 87.979549 
L 424.707524 78.944497 
L 425.342409 99.76443 
L 425.977293 102.907074 
L 426.612178 48.303753 
L 427.247062 79.337311 
L 427.881947 69.516566 
L 428.516831 86.408227 
L 429.151716 80.908633 
L 429.7866 93.871956 
L 430.421485 98.193108 
L 431.056369 89.943684 
L 431.691254 85.622533 
L 432.326138 87.586735 
L 432.961023 79.730125 
L 433.595908 80.515753 
L 434.230792 71.087888 
L 434.865677 82.479955 
L 435.500561 64.8026 
L 436.135446 90.336498 
L 436.77033 98.193108 
L 437.405215 70.695074 
L 438.040099 84.836905 
L 438.674984 83.265583 
L 439.309868 82.087075 
L 439.944753 113.513447 
L 440.579637 73.837717 
L 441.214522 105.656838 
L 441.849406 79.730125 
L 442.484291 100.942938 
L 443.119175 69.516566 
L 443.75406 91.90782 
L 444.388944 95.836158 
L 445.023829 95.443278 
L 445.658713 71.873516 
L 446.293598 77.373175 
L 446.928482 87.979549 
L 447.563367 87.979549 
L 448.198251 73.837717 
L 448.833136 75.801853 
L 449.46802 76.980295 
L 450.102905 67.55243 
L 450.737789 70.695074 
L 451.372674 92.693514 
L 452.007558 79.730125 
L 452.642443 87.979549 
L 453.277327 105.656838 
L 453.912212 77.765989 
L 454.547097 95.050464 
L 455.181981 82.087075 
L 455.816866 78.551617 
L 456.45175 93.086328 
L 457.086635 115.477583 
L 457.721519 106.049717 
L 458.356404 73.837717 
L 458.991288 87.586735 
L 459.626173 60.088634 
L 460.261057 83.658397 
L 460.895942 89.943684 
L 461.530826 97.800294 
L 462.165711 111.942125 
L 462.800595 64.016972 
L 463.43548 85.622533 
L 464.070364 90.729378 
L 464.705249 85.622533 
L 465.340133 79.337311 
L 465.975018 100.157244 
L 466.609902 76.194667 
L 467.244787 73.837717 
L 467.879671 88.372363 
L 468.514556 74.623345 
L 469.14944 76.194667 
L 469.784325 84.836905 
L 470.419209 73.444838 
L 471.054094 73.444838 
L 471.688978 47.518125 
L 472.323863 87.586735 
L 472.958747 86.801041 
L 473.593632 102.514194 
L 474.228516 83.265583 
L 474.863401 73.837717 
L 475.498285 85.622533 
L 476.13317 109.192295 
L 476.768055 79.337311 
L 477.402939 78.551617 
L 478.037824 75.016159 
L 478.672708 82.479955 
L 479.307593 81.301447 
L 479.942477 64.409786 
L 480.577362 82.479955 
L 481.212246 74.230531 
L 482.482015 93.871956 
L 483.1169 82.479955 
L 483.751784 79.337311 
L 484.386669 68.338058 
L 485.021553 59.303006 
L 485.656438 95.050464 
L 486.291322 68.338058 
L 486.926207 109.585175 
L 487.561091 82.872769 
L 488.195976 92.300634 
L 488.83086 76.980295 
L 489.465745 97.407414 
L 490.100629 73.052023 
L 490.735514 64.016972 
L 491.370398 84.051277 
L 492.005283 52.232091 
L 492.640167 92.693514 
L 493.275052 89.943684 
L 493.909936 89.158056 
L 494.544821 95.050464 
L 495.179705 91.90782 
L 495.81459 86.408227 
L 496.449474 67.159616 
L 497.084359 80.908633 
L 497.719244 51.053583 
L 498.354128 61.659956 
L 498.989013 69.516566 
L 499.623897 79.730125 
L 500.258782 66.373922 
L 500.893666 74.230531 
L 501.528551 69.90938 
L 502.163435 64.016972 
L 502.79832 85.229719 
L 503.433204 95.050464 
L 504.068089 61.659956 
L 504.702973 69.516566 
L 505.337858 83.265583 
L 505.972742 76.980295 
L 506.607627 73.052023 
L 507.242511 87.586735 
L 507.877396 71.480702 
L 508.51228 70.302194 
L 509.147165 77.765989 
L 509.782049 71.087888 
L 510.416934 88.372363 
L 511.051818 64.8026 
L 511.686703 66.373922 
L 512.321587 76.194667 
L 512.956472 83.265583 
L 513.591356 75.016159 
L 514.226241 76.587481 
L 514.861125 74.623345 
L 515.49601 90.336498 
L 516.130894 69.123752 
L 516.765779 78.551617 
L 517.400663 76.194667 
L 518.035548 79.337311 
L 518.670433 76.587481 
L 519.305317 84.051277 
L 519.940202 96.228972 
L 520.575086 65.981108 
L 521.844855 79.730125 
L 522.47974 68.338058 
L 523.114624 60.088634 
L 523.749509 64.8026 
L 524.384393 88.372363 
L 525.019278 73.444838 
L 525.654162 49.482261 
L 526.289047 63.231278 
L 526.923931 56.553177 
L 527.558816 80.908633 
L 528.1937 77.765989 
L 528.828585 76.194667 
L 529.463469 67.159616 
L 530.098354 76.587481 
L 530.733238 66.766736 
L 531.368123 85.229719 
L 532.003007 65.588294 
L 532.637892 63.231278 
L 533.272776 73.444838 
L 533.907661 55.374734 
L 534.542545 78.944497 
L 535.17743 83.658397 
L 535.812314 51.053583 
L 536.447199 79.730125 
L 537.082083 67.159616 
L 537.716968 61.659956 
L 538.351852 67.159616 
L 539.621621 102.907074 
L 540.256506 60.088634 
L 540.891391 74.230531 
L 541.526275 82.087075 
L 542.16116 94.65765 
L 542.796044 92.300634 
L 543.430929 91.122192 
L 544.065813 62.44565 
L 544.700698 66.373922 
L 545.335582 65.588294 
L 545.970467 64.016972 
L 546.605351 84.051277 
L 547.240236 70.695074 
L 547.87512 52.624905 
L 548.510005 71.873516 
L 549.144889 67.55243 
L 549.779774 86.015413 
L 550.414658 57.33887 
L 551.049543 75.801853 
L 551.684427 76.980295 
L 552.319312 80.122939 
L 552.954196 79.730125 
L 554.223965 65.195414 
L 554.85885 82.479955 
L 555.493734 85.229719 
L 556.128619 82.087075 
L 556.763503 89.55087 
L 557.398388 79.730125 
L 558.033272 52.232091 
L 558.668157 73.837717 
L 559.303041 72.659209 
L 559.937926 69.123752 
L 560.57281 64.409786 
L 561.207695 73.444838 
L 561.84258 56.946056 
L 562.477464 75.801853 
L 563.112349 90.729378 
L 563.747233 55.767548 
L 564.382118 70.695074 
L 565.017002 54.589041 
L 565.651887 56.160363 
L 566.286771 78.551617 
L 566.921656 75.801853 
L 567.55654 63.624092 
L 568.191425 80.122939 
L 568.826309 65.981108 
L 569.461194 78.944497 
L 570.096078 85.229719 
L 570.730963 78.944497 
L 571.365847 97.407414 
L 572.000732 65.981108 
L 572.635616 55.374734 
L 573.270501 72.266395 
L 573.905385 59.69582 
L 574.54027 76.980295 
L 575.175154 58.910192 
L 575.810039 83.265583 
L 576.444923 62.838464 
L 577.079808 50.660769 
L 577.714692 84.051277 
L 578.349577 60.481514 
L 578.984461 68.338058 
L 579.619346 69.90938 
L 580.25423 67.945244 
L 580.889115 66.766736 
L 581.523999 64.016972 
L 582.158884 72.659209 
L 582.793768 75.801853 
L 583.428653 65.588294 
L 584.063538 77.373175 
L 584.698422 73.837717 
L 585.333307 80.908633 
L 585.968191 65.588294 
L 586.603076 94.65765 
L 587.23796 61.267142 
L 587.872845 61.659956 
L 588.507729 61.267142 
L 589.142614 50.660769 
L 589.142614 50.660769 
" clip-path="url(#pe8c7b4507d)" style="fill: none; stroke: #1f77b4; stroke-width: 1.5; stroke-linecap: square"/>
   </g>
   <g id="line2d_36">
    <path d="M 81.869886 498.486159 
L 82.504771 505.557108 
L 83.139655 551.518125 
L 83.77454 533.840803 
L 84.409424 452.525142 
L 85.044309 466.667006 
L 85.679193 547.982667 
L 86.314078 537.376277 
L 86.948962 484.344328 
L 87.583847 470.202464 
L 88.218732 491.415244 
L 88.853616 473.737922 
L 89.488501 484.344328 
L 90.123385 466.667006 
L 90.75827 523.234413 
L 91.393154 473.737922 
L 92.028039 466.667006 
L 92.662923 473.737922 
L 93.297808 484.344328 
L 93.932692 424.241447 
L 94.567577 445.454226 
L 95.202461 480.808837 
L 95.837346 484.344328 
L 96.47223 441.918736 
L 97.107115 448.989684 
L 97.741999 498.486159 
L 98.376884 378.280396 
L 99.011768 420.705956 
L 99.646653 477.273379 
L 100.281537 445.454226 
L 100.916422 399.493176 
L 101.551306 392.42226 
L 102.186191 417.170498 
L 102.821075 388.886803 
L 103.45596 427.776904 
L 104.725729 388.886803 
L 105.360613 395.957718 
L 105.995498 399.493176 
L 106.630382 434.84782 
L 107.265267 477.273379 
L 107.900151 395.957718 
L 108.535036 452.525142 
L 109.16992 403.028634 
L 109.804805 438.383278 
L 110.43969 413.63504 
L 111.074574 438.383278 
L 112.344343 374.744939 
L 112.979228 434.84782 
L 113.614112 403.028634 
L 114.248997 420.705956 
L 114.883881 371.209481 
L 115.518766 452.525142 
L 116.15365 399.493176 
L 116.788535 395.957718 
L 117.423419 438.383278 
L 118.058304 406.564125 
L 118.693188 466.667006 
L 119.328073 459.596057 
L 119.962957 413.63504 
L 120.597842 392.42226 
L 121.232726 417.170498 
L 121.867611 424.241447 
L 122.502495 434.84782 
L 123.13738 456.0606 
L 123.772264 427.776904 
L 124.407149 420.705956 
L 125.042033 427.776904 
L 125.676918 410.099582 
L 126.311802 452.525142 
L 126.946687 406.564125 
L 128.216456 456.0606 
L 128.85134 406.564125 
L 129.486225 406.564125 
L 130.121109 456.0606 
L 130.755994 427.776904 
L 131.390879 452.525142 
L 132.025763 452.525142 
L 132.660648 406.564125 
L 133.295532 420.705956 
L 133.930417 417.170498 
L 134.565301 477.273379 
L 135.200186 420.705956 
L 135.83507 438.383278 
L 136.469955 438.383278 
L 137.104839 420.705956 
L 137.739724 410.099582 
L 138.374608 424.241447 
L 139.009493 434.84782 
L 139.644377 463.131548 
L 140.279262 424.241447 
L 140.914146 463.131548 
L 141.549031 459.596057 
L 142.183915 445.454226 
L 142.8188 417.170498 
L 143.453684 395.957718 
L 144.088569 420.705956 
L 144.723453 367.674023 
L 145.358338 445.454226 
L 145.993222 406.564125 
L 146.628107 441.918736 
L 147.262991 403.028634 
L 147.897876 441.918736 
L 148.53276 441.918736 
L 149.167645 463.131548 
L 149.802529 456.0606 
L 150.437414 417.170498 
L 151.072298 410.099582 
L 151.707183 388.886803 
L 152.342067 470.202464 
L 152.976952 431.312362 
L 153.611837 487.879786 
L 154.246721 406.564125 
L 154.881606 424.241447 
L 155.51649 392.42226 
L 156.151375 378.280396 
L 156.786259 406.564125 
L 157.421144 403.028634 
L 158.056028 395.957718 
L 158.690913 424.241447 
L 159.325797 431.312362 
L 159.960682 374.744939 
L 160.595566 463.131548 
L 161.230451 374.744939 
L 161.865335 438.383278 
L 162.50022 431.312362 
L 163.135104 413.63504 
L 163.769989 413.63504 
L 164.404873 452.525142 
L 165.039758 441.918736 
L 165.674642 406.564125 
L 166.309527 413.63504 
L 166.944411 385.351345 
L 167.579296 434.84782 
L 168.21418 438.383278 
L 168.849065 413.63504 
L 169.483949 403.028634 
L 170.118834 399.493176 
L 170.753718 431.312362 
L 171.388603 441.918736 
L 172.023487 392.42226 
L 172.658372 374.744939 
L 173.293256 395.957718 
L 173.928141 378.280396 
L 174.563026 417.170498 
L 175.19791 410.099582 
L 175.832795 410.099582 
L 177.102564 456.0606 
L 177.737448 406.564125 
L 178.372333 392.42226 
L 179.007217 371.209481 
L 179.642102 456.0606 
L 180.276986 399.493176 
L 180.911871 417.170498 
L 181.546755 448.989684 
L 182.18164 434.84782 
L 182.816524 427.776904 
L 183.451409 381.815854 
L 184.086293 417.170498 
L 184.721178 403.028634 
L 185.356062 403.028634 
L 185.990947 427.776904 
L 186.625831 381.815854 
L 187.260716 431.312362 
L 187.8956 374.744939 
L 188.530485 392.42226 
L 189.165369 459.596057 
L 189.800254 445.454226 
L 190.435138 417.170498 
L 191.070023 378.280396 
L 191.704907 438.383278 
L 192.339792 445.454226 
L 193.609561 431.312362 
L 194.244445 448.989684 
L 194.87933 448.989684 
L 195.514215 371.209481 
L 196.149099 406.564125 
L 196.783984 395.957718 
L 197.418868 438.383278 
L 198.053753 420.705956 
L 198.688637 392.42226 
L 199.323522 417.170498 
L 199.958406 477.273379 
L 200.593291 406.564125 
L 201.228175 406.564125 
L 201.86306 399.493176 
L 202.497944 427.776904 
L 203.132829 420.705956 
L 203.767713 427.776904 
L 204.402598 378.280396 
L 205.037482 413.63504 
L 205.672367 413.63504 
L 206.307251 395.957718 
L 206.942136 399.493176 
L 207.57702 417.170498 
L 208.211905 463.131548 
L 208.846789 342.925752 
L 209.481674 342.925752 
L 210.116558 413.63504 
L 210.751443 438.383278 
L 211.386327 445.454226 
L 212.021212 392.42226 
L 212.656096 374.744939 
L 213.290981 431.312362 
L 213.925865 417.170498 
L 214.56075 399.493176 
L 215.195634 417.170498 
L 215.830519 417.170498 
L 216.465403 406.564125 
L 217.100288 403.028634 
L 217.735173 406.564125 
L 218.370057 424.241447 
L 219.004942 424.241447 
L 219.639826 427.776904 
L 220.274711 427.776904 
L 220.909595 388.886803 
L 221.54448 420.705956 
L 222.814249 427.776904 
L 223.449133 388.886803 
L 224.084018 413.63504 
L 224.718902 420.705956 
L 225.353787 385.351345 
L 225.988671 399.493176 
L 227.25844 406.564125 
L 227.893325 406.564125 
L 228.528209 410.099582 
L 229.163094 406.564125 
L 229.797978 441.918736 
L 230.432863 395.957718 
L 231.067747 374.744939 
L 231.702632 448.989684 
L 232.337516 371.209481 
L 232.972401 371.209481 
L 233.607285 470.202464 
L 234.24217 424.241447 
L 234.877054 403.028634 
L 235.511939 452.525142 
L 236.146823 438.383278 
L 236.781708 381.815854 
L 237.416592 399.493176 
L 238.051477 434.84782 
L 238.686362 445.454226 
L 239.321246 413.63504 
L 239.956131 374.744939 
L 240.591015 463.131548 
L 241.2259 392.42226 
L 241.860784 431.312362 
L 242.495669 431.312362 
L 243.130553 438.383278 
L 243.765438 410.099582 
L 244.400322 413.63504 
L 245.035207 456.0606 
L 245.670091 381.815854 
L 246.304976 434.84782 
L 246.93986 413.63504 
L 247.574745 399.493176 
L 248.209629 424.241447 
L 248.844514 434.84782 
L 249.479398 438.383278 
L 250.114283 420.705956 
L 250.749167 420.705956 
L 251.384052 441.918736 
L 252.018936 388.886803 
L 252.653821 427.776904 
L 253.288705 417.170498 
L 253.92359 448.989684 
L 254.558474 491.415244 
L 255.193359 470.202464 
L 255.828243 410.099582 
L 256.463128 434.84782 
L 257.098012 441.918736 
L 258.367781 441.918736 
L 259.002666 367.674023 
L 259.63755 410.099582 
L 260.272435 399.493176 
L 260.90732 470.202464 
L 261.542204 452.525142 
L 262.177089 427.776904 
L 262.811973 441.918736 
L 263.446858 395.957718 
L 264.081742 385.351345 
L 264.716627 424.241447 
L 265.351511 371.209481 
L 266.62128 431.312362 
L 267.256165 424.241447 
L 267.891049 431.312362 
L 268.525934 378.280396 
L 269.160818 431.312362 
L 269.795703 417.170498 
L 270.430587 431.312362 
L 271.065472 470.202464 
L 271.700356 328.783921 
L 272.335241 392.42226 
L 272.970125 410.099582 
L 273.60501 374.744939 
L 274.239894 431.312362 
L 274.874779 424.241447 
L 275.509663 445.454226 
L 276.144548 434.84782 
L 276.779432 456.0606 
L 277.414317 406.564125 
L 278.049201 410.099582 
L 278.684086 459.596057 
L 279.31897 466.667006 
L 279.953855 491.415244 
L 280.588739 424.241447 
L 281.223624 406.564125 
L 281.858509 360.603074 
L 282.493393 441.918736 
L 283.128278 406.564125 
L 283.763162 413.63504 
L 284.398047 381.815854 
L 285.032931 367.674023 
L 285.667816 441.918736 
L 286.3027 395.957718 
L 286.937585 410.099582 
L 288.207354 448.989684 
L 288.842238 381.815854 
L 289.477123 456.0606 
L 290.112007 424.241447 
L 290.746892 417.170498 
L 291.381776 452.525142 
L 292.016661 406.564125 
L 292.651545 434.84782 
L 293.28643 456.0606 
L 293.921314 463.131548 
L 294.556199 417.170498 
L 295.191083 491.415244 
L 295.825968 438.383278 
L 296.460852 456.0606 
L 297.095737 463.131548 
L 297.730621 445.454226 
L 298.365506 367.674023 
L 299.00039 431.312362 
L 299.635275 424.241447 
L 300.270159 399.493176 
L 300.905044 424.241447 
L 301.539928 487.879786 
L 302.174813 403.028634 
L 302.809697 448.989684 
L 303.444582 410.099582 
L 304.079467 448.989684 
L 304.714351 399.493176 
L 305.349236 388.886803 
L 305.98412 413.63504 
L 306.619005 420.705956 
L 307.253889 456.0606 
L 307.888774 413.63504 
L 308.523658 406.564125 
L 309.158543 484.344328 
L 309.793427 459.596057 
L 310.428312 381.815854 
L 311.063196 456.0606 
L 311.698081 445.454226 
L 312.96785 417.170498 
L 313.602734 438.383278 
L 314.237619 448.989684 
L 314.872503 420.705956 
L 315.507388 480.808837 
L 316.142272 431.312362 
L 316.777157 410.099582 
L 317.412041 410.099582 
L 318.046926 403.028634 
L 318.68181 417.170498 
L 319.316695 441.918736 
L 319.951579 385.351345 
L 320.586464 427.776904 
L 321.221348 420.705956 
L 321.856233 434.84782 
L 322.491117 445.454226 
L 323.126002 410.099582 
L 323.760886 392.42226 
L 324.395771 417.170498 
L 325.030656 410.099582 
L 325.66554 438.383278 
L 326.300425 424.241447 
L 326.935309 431.312362 
L 327.570194 424.241447 
L 328.205078 424.241447 
L 328.839963 438.383278 
L 329.474847 385.351345 
L 330.109732 466.667006 
L 330.744616 438.383278 
L 331.379501 420.705956 
L 332.014385 445.454226 
L 332.64927 371.209481 
L 333.284154 434.84782 
L 333.919039 406.564125 
L 334.553923 441.918736 
L 335.188808 441.918736 
L 335.823692 399.493176 
L 336.458577 434.84782 
L 337.093461 395.957718 
L 337.728346 448.989684 
L 338.36323 399.493176 
L 338.998115 427.776904 
L 339.632999 441.918736 
L 340.267884 349.996701 
L 340.902768 410.099582 
L 341.537653 456.0606 
L 342.172537 459.596057 
L 342.807422 420.705956 
L 343.442306 427.776904 
L 344.077191 395.957718 
L 344.712075 424.241447 
L 345.34696 431.312362 
L 345.981844 427.776904 
L 346.616729 445.454226 
L 347.251614 395.957718 
L 347.886498 417.170498 
L 348.521383 445.454226 
L 349.156267 434.84782 
L 349.791152 371.209481 
L 350.426036 434.84782 
L 351.060921 441.918736 
L 351.695805 417.170498 
L 352.33069 466.667006 
L 352.965574 357.067617 
L 353.600459 448.989684 
L 354.235343 456.0606 
L 354.870228 456.0606 
L 355.505112 441.918736 
L 356.139997 395.957718 
L 356.774881 388.886803 
L 357.409766 388.886803 
L 358.04465 452.525142 
L 358.679535 438.383278 
L 359.314419 441.918736 
L 359.949304 420.705956 
L 360.584188 431.312362 
L 361.219073 395.957718 
L 361.853957 395.957718 
L 362.488842 424.241447 
L 363.123726 420.705956 
L 363.758611 470.202464 
L 365.02838 392.42226 
L 365.663264 403.028634 
L 366.298149 448.989684 
L 366.933033 445.454226 
L 367.567918 448.989684 
L 368.202803 406.564125 
L 368.837687 448.989684 
L 369.472572 424.241447 
L 370.107456 477.273379 
L 370.742341 399.493176 
L 371.377225 438.383278 
L 372.01211 434.84782 
L 372.646994 424.241447 
L 373.281879 463.131548 
L 373.916763 374.744939 
L 374.551648 452.525142 
L 375.186532 438.383278 
L 375.821417 448.989684 
L 376.456301 381.815854 
L 377.091186 441.918736 
L 377.72607 438.383278 
L 378.360955 406.564125 
L 378.995839 438.383278 
L 379.630724 392.42226 
L 380.265608 403.028634 
L 380.900493 441.918736 
L 381.535377 413.63504 
L 382.170262 424.241447 
L 382.805146 413.63504 
L 383.440031 420.705956 
L 384.074915 424.241447 
L 384.7098 466.667006 
L 385.344684 494.950701 
L 385.979569 427.776904 
L 386.614453 385.351345 
L 387.249338 413.63504 
L 387.884222 466.667006 
L 388.519107 395.957718 
L 389.153991 427.776904 
L 389.788876 441.918736 
L 390.423761 452.525142 
L 391.058645 477.273379 
L 392.328414 399.493176 
L 392.963299 427.776904 
L 393.598183 431.312362 
L 394.233068 452.525142 
L 394.867952 434.84782 
L 395.502837 452.525142 
L 396.137721 410.099582 
L 396.772606 399.493176 
L 397.40749 448.989684 
L 398.042375 413.63504 
L 398.677259 452.525142 
L 399.312144 434.84782 
L 400.581913 406.564125 
L 401.216797 395.957718 
L 401.851682 448.989684 
L 402.486566 473.737922 
L 403.121451 466.667006 
L 404.39122 417.170498 
L 405.026104 466.667006 
L 405.660989 480.808837 
L 406.295873 406.564125 
L 406.930758 463.131548 
L 407.565642 381.815854 
L 408.200527 452.525142 
L 408.835411 427.776904 
L 409.470296 410.099582 
L 410.10518 438.383278 
L 410.740065 417.170498 
L 411.37495 441.918736 
L 412.009834 413.63504 
L 412.644719 463.131548 
L 413.279603 424.241447 
L 413.914488 417.170498 
L 414.549372 448.989684 
L 415.184257 403.028634 
L 415.819141 410.099582 
L 416.454026 448.989684 
L 417.08891 420.705956 
L 417.723795 431.312362 
L 418.358679 434.84782 
L 418.993564 477.273379 
L 419.628448 424.241447 
L 420.263333 456.0606 
L 420.898217 420.705956 
L 421.533102 420.705956 
L 422.167986 466.667006 
L 422.802871 410.099582 
L 423.437755 420.705956 
L 424.07264 424.241447 
L 424.707524 459.596057 
L 425.342409 463.131548 
L 425.977293 392.42226 
L 426.612178 452.525142 
L 427.247062 434.84782 
L 427.881947 406.564125 
L 428.516831 385.351345 
L 429.151716 441.918736 
L 429.7866 410.099582 
L 430.421485 417.170498 
L 431.056369 420.705956 
L 431.691254 487.879786 
L 432.326138 406.564125 
L 432.961023 413.63504 
L 433.595908 431.312362 
L 434.230792 424.241447 
L 434.865677 456.0606 
L 435.500561 385.351345 
L 436.135446 427.776904 
L 437.405215 406.564125 
L 438.040099 484.344328 
L 438.674984 413.63504 
L 439.309868 473.737922 
L 439.944753 448.989684 
L 440.579637 431.312362 
L 441.214522 431.312362 
L 441.849406 413.63504 
L 442.484291 431.312362 
L 443.119175 420.705956 
L 443.75406 424.241447 
L 444.388944 406.564125 
L 445.023829 441.918736 
L 445.658713 424.241447 
L 446.293598 424.241447 
L 446.928482 445.454226 
L 447.563367 413.63504 
L 448.198251 413.63504 
L 448.833136 406.564125 
L 449.46802 417.170498 
L 450.102905 388.886803 
L 450.737789 438.383278 
L 451.372674 381.815854 
L 452.007558 403.028634 
L 452.642443 445.454226 
L 453.277327 441.918736 
L 453.912212 427.776904 
L 454.547097 417.170498 
L 455.181981 463.131548 
L 455.816866 413.63504 
L 456.45175 403.028634 
L 457.086635 445.454226 
L 457.721519 441.918736 
L 458.356404 378.280396 
L 458.991288 413.63504 
L 459.626173 392.42226 
L 460.261057 392.42226 
L 460.895942 459.596057 
L 461.530826 441.918736 
L 462.165711 417.170498 
L 462.800595 452.525142 
L 463.43548 392.42226 
L 464.070364 410.099582 
L 464.705249 410.099582 
L 465.340133 403.028634 
L 465.975018 452.525142 
L 466.609902 378.280396 
L 467.244787 420.705956 
L 467.879671 413.63504 
L 468.514556 448.989684 
L 469.14944 420.705956 
L 469.784325 410.099582 
L 470.419209 403.028634 
L 471.054094 445.454226 
L 471.688978 381.815854 
L 472.323863 427.776904 
L 472.958747 403.028634 
L 473.593632 431.312362 
L 474.228516 388.886803 
L 474.863401 406.564125 
L 475.498285 448.989684 
L 476.13317 410.099582 
L 476.768055 385.351345 
L 477.402939 417.170498 
L 478.037824 438.383278 
L 478.672708 477.273379 
L 479.307593 427.776904 
L 479.942477 466.667006 
L 480.577362 417.170498 
L 481.212246 463.131548 
L 481.847131 456.0606 
L 482.482015 410.099582 
L 483.1169 413.63504 
L 483.751784 424.241447 
L 484.386669 456.0606 
L 485.021553 431.312362 
L 485.656438 395.957718 
L 486.291322 413.63504 
L 486.926207 470.202464 
L 487.561091 392.42226 
L 488.195976 403.028634 
L 488.83086 459.596057 
L 489.465745 417.170498 
L 490.100629 388.886803 
L 490.735514 410.099582 
L 492.005283 431.312362 
L 492.640167 417.170498 
L 493.275052 445.454226 
L 493.909936 417.170498 
L 494.544821 367.674023 
L 495.179705 417.170498 
L 495.81459 445.454226 
L 496.449474 395.957718 
L 497.084359 395.957718 
L 497.719244 438.383278 
L 498.354128 441.918736 
L 499.623897 385.351345 
L 500.258782 431.312362 
L 500.893666 431.312362 
L 501.528551 395.957718 
L 502.163435 417.170498 
L 502.79832 427.776904 
L 503.433204 403.028634 
L 504.068089 417.170498 
L 504.702973 399.493176 
L 505.337858 385.351345 
L 505.972742 441.918736 
L 506.607627 427.776904 
L 507.242511 417.170498 
L 507.877396 434.84782 
L 508.51228 417.170498 
L 509.782049 417.170498 
L 510.416934 420.705956 
L 511.051818 403.028634 
L 511.686703 395.957718 
L 512.321587 420.705956 
L 512.956472 505.557108 
L 513.591356 406.564125 
L 514.226241 445.454226 
L 514.861125 463.131548 
L 515.49601 431.312362 
L 516.130894 410.099582 
L 516.765779 463.131548 
L 517.400663 417.170498 
L 518.035548 456.0606 
L 518.670433 466.667006 
L 519.305317 434.84782 
L 519.940202 417.170498 
L 520.575086 441.918736 
L 521.209971 395.957718 
L 521.844855 431.312362 
L 522.47974 420.705956 
L 523.114624 456.0606 
L 523.749509 413.63504 
L 524.384393 399.493176 
L 525.019278 395.957718 
L 525.654162 399.493176 
L 526.289047 456.0606 
L 526.923931 417.170498 
L 527.558816 420.705956 
L 528.1937 459.596057 
L 528.828585 431.312362 
L 529.463469 385.351345 
L 530.098354 410.099582 
L 530.733238 392.42226 
L 531.368123 413.63504 
L 532.003007 420.705956 
L 533.272776 413.63504 
L 533.907661 395.957718 
L 534.542545 385.351345 
L 535.17743 381.815854 
L 535.812314 441.918736 
L 536.447199 381.815854 
L 537.082083 371.209481 
L 537.716968 374.744939 
L 538.351852 438.383278 
L 538.986737 424.241447 
L 539.621621 452.525142 
L 540.256506 392.42226 
L 540.891391 427.776904 
L 541.526275 420.705956 
L 542.16116 448.989684 
L 542.796044 381.815854 
L 543.430929 388.886803 
L 544.065813 357.067617 
L 544.700698 388.886803 
L 545.335582 466.667006 
L 545.970467 427.776904 
L 546.605351 395.957718 
L 547.240236 371.209481 
L 547.87512 395.957718 
L 548.510005 413.63504 
L 549.144889 480.808837 
L 549.779774 367.674023 
L 550.414658 413.63504 
L 551.049543 357.067617 
L 552.319312 463.131548 
L 552.954196 420.705956 
L 553.589081 427.776904 
L 554.85885 448.989684 
L 555.493734 388.886803 
L 556.128619 459.596057 
L 556.763503 406.564125 
L 557.398388 448.989684 
L 558.033272 399.493176 
L 558.668157 392.42226 
L 559.303041 406.564125 
L 559.937926 417.170498 
L 560.57281 466.667006 
L 561.207695 438.383278 
L 561.84258 395.957718 
L 562.477464 395.957718 
L 563.112349 441.918736 
L 563.747233 473.737922 
L 564.382118 420.705956 
L 565.017002 410.099582 
L 565.651887 403.028634 
L 566.286771 424.241447 
L 566.921656 434.84782 
L 567.55654 452.525142 
L 568.191425 413.63504 
L 568.826309 473.737922 
L 569.461194 381.815854 
L 570.096078 395.957718 
L 570.730963 417.170498 
L 571.365847 406.564125 
L 572.000732 427.776904 
L 572.635616 413.63504 
L 573.270501 445.454226 
L 573.905385 420.705956 
L 574.54027 427.776904 
L 575.175154 395.957718 
L 575.810039 388.886803 
L 576.444923 463.131548 
L 577.079808 448.989684 
L 577.714692 417.170498 
L 578.349577 431.312362 
L 578.984461 452.525142 
L 579.619346 381.815854 
L 580.25423 417.170498 
L 580.889115 410.099582 
L 581.523999 473.737922 
L 582.158884 399.493176 
L 582.793768 463.131548 
L 583.428653 434.84782 
L 584.063538 424.241447 
L 584.698422 448.989684 
L 585.333307 441.918736 
L 585.968191 456.0606 
L 586.603076 448.989684 
L 587.23796 413.63504 
L 587.872845 417.170498 
L 588.507729 388.886803 
L 589.142614 410.099582 
L 589.142614 410.099582 
" clip-path="url(#pe8c7b4507d)" style="fill: none; stroke: #ff7f0e; stroke-width: 1.5; stroke-linecap: square"/>
   </g>
   <g id="line2d_37">
    <path d="M 56.50625 505.115167 
L 614.50625 505.115167 
" clip-path="url(#pe8c7b4507d)" style="fill: none; stroke-dasharray: 11.1,4.8; stroke-dashoffset: 0; stroke: #ff0000; stroke-width: 3"/>
   </g>
   <g id="patch_3">
    <path d="M 56.50625 576.718125 
L 56.50625 22.318125 
" style="fill: none; stroke: #000000; stroke-width: 0.8; stroke-linejoin: miter; stroke-linecap: square"/>
   </g>
   <g id="patch_4">
    <path d="M 614.50625 576.718125 
L 614.50625 22.318125 
" style="fill: none; stroke: #000000; stroke-width: 0.8; stroke-linejoin: miter; stroke-linecap: square"/>
   </g>
   <g id="patch_5">
    <path d="M 56.50625 576.718125 
L 614.50625 576.718125 
" style="fill: none; stroke: #000000; stroke-width: 0.8; stroke-linejoin: miter; stroke-linecap: square"/>
   </g>
   <g id="patch_6">
    <path d="M 56.50625 22.318125 
L 614.50625 22.318125 
" style="fill: none; stroke: #000000; stroke-width: 0.8; stroke-linejoin: miter; stroke-linecap: square"/>
   </g>
   <g id="text_20">
    <!-- Train and Val Accuracy -->
    <g transform="translate(267.727813 16.318125) scale(0.12 -0.12)">
     <defs>
      <path id="DejaVuSans-54" d="M -19 4666 
L 3928 4666 
L 3928 4134 
L 2272 4134 
L 2272 0 
L 1638 0 
L 1638 4134 
L -19 4134 
L -19 4666 
z
" transform="scale(0.015625)"/>
      <path id="DejaVuSans-69" d="M 603 3500 
L 1178 3500 
L 1178 0 
L 603 0 
L 603 3500 
z
M 603 4863 
L 1178 4863 
L 1178 4134 
L 603 4134 
L 603 4863 
z
" transform="scale(0.015625)"/>
      <path id="DejaVuSans-6e" d="M 3513 2113 
L 3513 0 
L 2938 0 
L 2938 2094 
Q 2938 2591 2744 2837 
Q 2550 3084 2163 3084 
Q 1697 3084 1428 2787 
Q 1159 2491 1159 1978 
L 1159 0 
L 581 0 
L 581 3500 
L 1159 3500 
L 1159 2956 
Q 1366 3272 1645 3428 
Q 1925 3584 2291 3584 
Q 2894 3584 3203 3211 
Q 3513 2838 3513 2113 
z
" transform="scale(0.015625)"/>
      <path id="DejaVuSans-20" transform="scale(0.015625)"/>
      <path id="DejaVuSans-64" d="M 2906 2969 
L 2906 4863 
L 3481 4863 
L 3481 0 
L 2906 0 
L 2906 525 
Q 2725 213 2448 61 
Q 2172 -91 1784 -91 
Q 1150 -91 751 415 
Q 353 922 353 1747 
Q 353 2572 751 3078 
Q 1150 3584 1784 3584 
Q 2172 3584 2448 3432 
Q 2725 3281 2906 2969 
z
M 947 1747 
Q 947 1113 1208 752 
Q 1469 391 1925 391 
Q 2381 391 2643 752 
Q 2906 1113 2906 1747 
Q 2906 2381 2643 2742 
Q 2381 3103 1925 3103 
Q 1469 3103 1208 2742 
Q 947 2381 947 1747 
z
" transform="scale(0.015625)"/>
      <path id="DejaVuSans-56" d="M 1831 0 
L 50 4666 
L 709 4666 
L 2188 738 
L 3669 4666 
L 4325 4666 
L 2547 0 
L 1831 0 
z
" transform="scale(0.015625)"/>
      <path id="DejaVuSans-6c" d="M 603 4863 
L 1178 4863 
L 1178 0 
L 603 0 
L 603 4863 
z
" transform="scale(0.015625)"/>
     </defs>
     <use xlink:href="#DejaVuSans-54"/>
     <use xlink:href="#DejaVuSans-72" transform="translate(46.333984 0)"/>
     <use xlink:href="#DejaVuSans-61" transform="translate(87.447266 0)"/>
     <use xlink:href="#DejaVuSans-69" transform="translate(148.726562 0)"/>
     <use xlink:href="#DejaVuSans-6e" transform="translate(176.509766 0)"/>
     <use xlink:href="#DejaVuSans-20" transform="translate(239.888672 0)"/>
     <use xlink:href="#DejaVuSans-61" transform="translate(271.675781 0)"/>
     <use xlink:href="#DejaVuSans-6e" transform="translate(332.955078 0)"/>
     <use xlink:href="#DejaVuSans-64" transform="translate(396.333984 0)"/>
     <use xlink:href="#DejaVuSans-20" transform="translate(459.810547 0)"/>
     <use xlink:href="#DejaVuSans-56" transform="translate(491.597656 0)"/>
     <use xlink:href="#DejaVuSans-61" transform="translate(552.255859 0)"/>
     <use xlink:href="#DejaVuSans-6c" transform="translate(613.535156 0)"/>
     <use xlink:href="#DejaVuSans-20" transform="translate(641.318359 0)"/>
     <use xlink:href="#DejaVuSans-41" transform="translate(673.105469 0)"/>
     <use xlink:href="#DejaVuSans-63" transform="translate(739.763672 0)"/>
     <use xlink:href="#DejaVuSans-63" transform="translate(794.744141 0)"/>
     <use xlink:href="#DejaVuSans-75" transform="translate(849.724609 0)"/>
     <use xlink:href="#DejaVuSans-72" transform="translate(913.103516 0)"/>
     <use xlink:href="#DejaVuSans-61" transform="translate(954.216797 0)"/>
     <use xlink:href="#DejaVuSans-63" transform="translate(1015.496094 0)"/>
     <use xlink:href="#DejaVuSans-79" transform="translate(1070.476562 0)"/>
    </g>
   </g>
   <g id="legend_1">
    <g id="patch_7">
     <path d="M 63.50625 74.90875 
L 230.629687 74.90875 
Q 232.629687 74.90875 232.629687 72.90875 
L 232.629687 29.318125 
Q 232.629687 27.318125 230.629687 27.318125 
L 63.50625 27.318125 
Q 61.50625 27.318125 61.50625 29.318125 
L 61.50625 72.90875 
Q 61.50625 74.90875 63.50625 74.90875 
z
" style="fill: #ffffff; opacity: 0.8; stroke: #cccccc; stroke-linejoin: miter"/>
    </g>
    <g id="line2d_38">
     <path d="M 65.50625 35.416562 
L 75.50625 35.416562 
L 85.50625 35.416562 
" style="fill: none; stroke: #1f77b4; stroke-width: 1.5; stroke-linecap: square"/>
    </g>
    <g id="text_21">
     <!-- train_accuracy -->
     <g transform="translate(93.50625 38.916562) scale(0.1 -0.1)">
      <defs>
       <path id="DejaVuSans-74" d="M 1172 4494 
L 1172 3500 
L 2356 3500 
L 2356 3053 
L 1172 3053 
L 1172 1153 
Q 1172 725 1289 603 
Q 1406 481 1766 481 
L 2356 481 
L 2356 0 
L 1766 0 
Q 1100 0 847 248 
Q 594 497 594 1153 
L 594 3053 
L 172 3053 
L 172 3500 
L 594 3500 
L 594 4494 
L 1172 4494 
z
" transform="scale(0.015625)"/>
       <path id="DejaVuSans-5f" d="M 3263 -1063 
L 3263 -1509 
L -63 -1509 
L -63 -1063 
L 3263 -1063 
z
" transform="scale(0.015625)"/>
      </defs>
      <use xlink:href="#DejaVuSans-74"/>
      <use xlink:href="#DejaVuSans-72" transform="translate(39.208984 0)"/>
      <use xlink:href="#DejaVuSans-61" transform="translate(80.322266 0)"/>
      <use xlink:href="#DejaVuSans-69" transform="translate(141.601562 0)"/>
      <use xlink:href="#DejaVuSans-6e" transform="translate(169.384766 0)"/>
      <use xlink:href="#DejaVuSans-5f" transform="translate(232.763672 0)"/>
      <use xlink:href="#DejaVuSans-61" transform="translate(282.763672 0)"/>
      <use xlink:href="#DejaVuSans-63" transform="translate(344.042969 0)"/>
      <use xlink:href="#DejaVuSans-63" transform="translate(399.023438 0)"/>
      <use xlink:href="#DejaVuSans-75" transform="translate(454.003906 0)"/>
      <use xlink:href="#DejaVuSans-72" transform="translate(517.382812 0)"/>
      <use xlink:href="#DejaVuSans-61" transform="translate(558.496094 0)"/>
      <use xlink:href="#DejaVuSans-63" transform="translate(619.775391 0)"/>
      <use xlink:href="#DejaVuSans-79" transform="translate(674.755859 0)"/>
     </g>
    </g>
    <g id="line2d_39">
     <path d="M 65.50625 50.372812 
L 75.50625 50.372812 
L 85.50625 50.372812 
" style="fill: none; stroke: #ff7f0e; stroke-width: 1.5; stroke-linecap: square"/>
    </g>
    <g id="text_22">
     <!-- val_accuracy -->
     <g transform="translate(93.50625 53.872812) scale(0.1 -0.1)">
      <defs>
       <path id="DejaVuSans-76" d="M 191 3500 
L 800 3500 
L 1894 563 
L 2988 3500 
L 3597 3500 
L 2284 0 
L 1503 0 
L 191 3500 
z
" transform="scale(0.015625)"/>
      </defs>
      <use xlink:href="#DejaVuSans-76"/>
      <use xlink:href="#DejaVuSans-61" transform="translate(59.179688 0)"/>
      <use xlink:href="#DejaVuSans-6c" transform="translate(120.458984 0)"/>
      <use xlink:href="#DejaVuSans-5f" transform="translate(148.242188 0)"/>
      <use xlink:href="#DejaVuSans-61" transform="translate(198.242188 0)"/>
      <use xlink:href="#DejaVuSans-63" transform="translate(259.521484 0)"/>
      <use xlink:href="#DejaVuSans-63" transform="translate(314.501953 0)"/>
      <use xlink:href="#DejaVuSans-75" transform="translate(369.482422 0)"/>
      <use xlink:href="#DejaVuSans-72" transform="translate(432.861328 0)"/>
      <use xlink:href="#DejaVuSans-61" transform="translate(473.974609 0)"/>
      <use xlink:href="#DejaVuSans-63" transform="translate(535.253906 0)"/>
      <use xlink:href="#DejaVuSans-79" transform="translate(590.234375 0)"/>
     </g>
    </g>
    <g id="line2d_40">
     <path d="M 65.50625 65.329062 
L 75.50625 65.329062 
L 85.50625 65.329062 
" style="fill: none; stroke-dasharray: 11.1,4.8; stroke-dashoffset: 0; stroke: #ff0000; stroke-width: 3"/>
    </g>
    <g id="text_23">
     <!-- Random-Guesser Accuracy -->
     <g transform="translate(93.50625 68.829062) scale(0.1 -0.1)">
      <defs>
       <path id="DejaVuSans-52" d="M 2841 2188 
Q 3044 2119 3236 1894 
Q 3428 1669 3622 1275 
L 4263 0 
L 3584 0 
L 2988 1197 
Q 2756 1666 2539 1819 
Q 2322 1972 1947 1972 
L 1259 1972 
L 1259 0 
L 628 0 
L 628 4666 
L 2053 4666 
Q 2853 4666 3247 4331 
Q 3641 3997 3641 3322 
Q 3641 2881 3436 2590 
Q 3231 2300 2841 2188 
z
M 1259 4147 
L 1259 2491 
L 2053 2491 
Q 2509 2491 2742 2702 
Q 2975 2913 2975 3322 
Q 2975 3731 2742 3939 
Q 2509 4147 2053 4147 
L 1259 4147 
z
" transform="scale(0.015625)"/>
       <path id="DejaVuSans-6d" d="M 3328 2828 
Q 3544 3216 3844 3400 
Q 4144 3584 4550 3584 
Q 5097 3584 5394 3201 
Q 5691 2819 5691 2113 
L 5691 0 
L 5113 0 
L 5113 2094 
Q 5113 2597 4934 2840 
Q 4756 3084 4391 3084 
Q 3944 3084 3684 2787 
Q 3425 2491 3425 1978 
L 3425 0 
L 2847 0 
L 2847 2094 
Q 2847 2600 2669 2842 
Q 2491 3084 2119 3084 
Q 1678 3084 1418 2786 
Q 1159 2488 1159 1978 
L 1159 0 
L 581 0 
L 581 3500 
L 1159 3500 
L 1159 2956 
Q 1356 3278 1631 3431 
Q 1906 3584 2284 3584 
Q 2666 3584 2933 3390 
Q 3200 3197 3328 2828 
z
" transform="scale(0.015625)"/>
       <path id="DejaVuSans-2d" d="M 313 2009 
L 1997 2009 
L 1997 1497 
L 313 1497 
L 313 2009 
z
" transform="scale(0.015625)"/>
       <path id="DejaVuSans-47" d="M 3809 666 
L 3809 1919 
L 2778 1919 
L 2778 2438 
L 4434 2438 
L 4434 434 
Q 4069 175 3628 42 
Q 3188 -91 2688 -91 
Q 1594 -91 976 548 
Q 359 1188 359 2328 
Q 359 3472 976 4111 
Q 1594 4750 2688 4750 
Q 3144 4750 3555 4637 
Q 3966 4525 4313 4306 
L 4313 3634 
Q 3963 3931 3569 4081 
Q 3175 4231 2741 4231 
Q 1884 4231 1454 3753 
Q 1025 3275 1025 2328 
Q 1025 1384 1454 906 
Q 1884 428 2741 428 
Q 3075 428 3337 486 
Q 3600 544 3809 666 
z
" transform="scale(0.015625)"/>
       <path id="DejaVuSans-65" d="M 3597 1894 
L 3597 1613 
L 953 1613 
Q 991 1019 1311 708 
Q 1631 397 2203 397 
Q 2534 397 2845 478 
Q 3156 559 3463 722 
L 3463 178 
Q 3153 47 2828 -22 
Q 2503 -91 2169 -91 
Q 1331 -91 842 396 
Q 353 884 353 1716 
Q 353 2575 817 3079 
Q 1281 3584 2069 3584 
Q 2775 3584 3186 3129 
Q 3597 2675 3597 1894 
z
M 3022 2063 
Q 3016 2534 2758 2815 
Q 2500 3097 2075 3097 
Q 1594 3097 1305 2825 
Q 1016 2553 972 2059 
L 3022 2063 
z
" transform="scale(0.015625)"/>
      </defs>
      <use xlink:href="#DejaVuSans-52"/>
      <use xlink:href="#DejaVuSans-61" transform="translate(67.232422 0)"/>
      <use xlink:href="#DejaVuSans-6e" transform="translate(128.511719 0)"/>
      <use xlink:href="#DejaVuSans-64" transform="translate(191.890625 0)"/>
      <use xlink:href="#DejaVuSans-6f" transform="translate(255.367188 0)"/>
      <use xlink:href="#DejaVuSans-6d" transform="translate(316.548828 0)"/>
      <use xlink:href="#DejaVuSans-2d" transform="translate(413.960938 0)"/>
      <use xlink:href="#DejaVuSans-47" transform="translate(453.669922 0)"/>
      <use xlink:href="#DejaVuSans-75" transform="translate(531.160156 0)"/>
      <use xlink:href="#DejaVuSans-65" transform="translate(594.539062 0)"/>
      <use xlink:href="#DejaVuSans-73" transform="translate(656.0625 0)"/>
      <use xlink:href="#DejaVuSans-73" transform="translate(708.162109 0)"/>
      <use xlink:href="#DejaVuSans-65" transform="translate(760.261719 0)"/>
      <use xlink:href="#DejaVuSans-72" transform="translate(821.785156 0)"/>
      <use xlink:href="#DejaVuSans-20" transform="translate(862.898438 0)"/>
      <use xlink:href="#DejaVuSans-41" transform="translate(894.685547 0)"/>
      <use xlink:href="#DejaVuSans-63" transform="translate(961.34375 0)"/>
      <use xlink:href="#DejaVuSans-63" transform="translate(1016.324219 0)"/>
      <use xlink:href="#DejaVuSans-75" transform="translate(1071.304688 0)"/>
      <use xlink:href="#DejaVuSans-72" transform="translate(1134.683594 0)"/>
      <use xlink:href="#DejaVuSans-61" transform="translate(1175.796875 0)"/>
      <use xlink:href="#DejaVuSans-63" transform="translate(1237.076172 0)"/>
      <use xlink:href="#DejaVuSans-79" transform="translate(1292.056641 0)"/>
     </g>
    </g>
   </g>
  </g>
 </g>
 <defs>
  <clipPath id="pe8c7b4507d">
   <rect x="56.50625" y="22.318125" width="558" height="554.4"/>
  </clipPath>
 </defs>
</svg>
