<?xml version="1.0" encoding="utf-8" standalone="no"?>
<!DOCTYPE svg PUBLIC "-//W3C//DTD SVG 1.1//EN"
  "http://www.w3.org/Graphics/SVG/1.1/DTD/svg11.dtd">
<svg xmlns:xlink="http://www.w3.org/1999/xlink" width="615.34375pt" height="614.274375pt" viewBox="0 0 615.34375 614.274375" xmlns="http://www.w3.org/2000/svg" version="1.1">
 <metadata>
  <rdf:RDF xmlns:dc="http://purl.org/dc/elements/1.1/" xmlns:cc="http://creativecommons.org/ns#" xmlns:rdf="http://www.w3.org/1999/02/22-rdf-syntax-ns#">
   <cc:Work>
    <dc:type rdf:resource="http://purl.org/dc/dcmitype/StillImage"/>
    <dc:date>2026-05-21T21:19:16.760700</dc:date>
    <dc:format>image/svg+xml</dc:format>
    <dc:creator>
     <cc:Agent>
      <dc:title>Matplotlib v3.10.9, https://matplotlib.org/</dc:title>
     </cc:Agent>
    </dc:creator>
   </cc:Work>
  </rdf:RDF>
 </metadata>
 <defs>
  <style type="text/css">*{stroke-linejoin: round; stroke-linecap: butt}</style>
 </defs>
 <g id="figure_1">
  <g id="patch_1">
   <path d="M 0 614.274375 
L 615.34375 614.274375 
L 615.34375 0 
L 0 0 
z
" style="fill: #ffffff"/>
  </g>
  <g id="axes_1">
   <g id="patch_2">
    <path d="M 50.14375 576.718125 
L 608.14375 576.718125 
L 608.14375 22.318125 
L 50.14375 22.318125 
z
" style="fill: #ffffff"/>
   </g>
   <g id="matplotlib.axis_1">
    <g id="xtick_1">
     <g id="line2d_1">
      <path d="M 75.507386 576.718125 
L 75.507386 22.318125 
" clip-path="url(#p9fbf73d7c0)" style="fill: none; stroke: #b0b0b0; stroke-width: 0.8; stroke-linecap: square"/>
     </g>
     <g id="line2d_2">
      <defs>
       <path id="mf370bbc2ca" d="M 0 0 
L 0 3.5 
" style="stroke: #000000; stroke-width: 0.8"/>
      </defs>
      <g>
       <use xlink:href="#mf370bbc2ca" x="75.507386" y="576.718125" style="stroke: #000000; stroke-width: 0.8"/>
      </g>
     </g>
     <g id="text_1">
      <!-- 0 -->
      <g transform="translate(72.326136 591.316563) scale(0.1 -0.1)">
       <defs>
        <path id="DejaVuSans-30" d="M 2034 4250 
Q 1547 4250 1301 3770 
Q 1056 3291 1056 2328 
Q 1056 1369 1301 889 
Q 1547 409 2034 409 
Q 2525 409 2770 889 
Q 3016 1369 3016 2328 
Q 3016 3291 2770 3770 
Q 2525 4250 2034 4250 
z
M 2034 4750 
Q 2819 4750 3233 4129 
Q 3647 3509 3647 2328 
Q 3647 1150 3233 529 
Q 2819 -91 2034 -91 
Q 1250 -91 836 529 
Q 422 1150 422 2328 
Q 422 3509 836 4129 
Q 1250 4750 2034 4750 
z
" transform="scale(0.015625)"/>
       </defs>
       <use xlink:href="#DejaVuSans-30"/>
      </g>
     </g>
    </g>
    <g id="xtick_2">
     <g id="line2d_3">
      <path d="M 138.995838 576.718125 
L 138.995838 22.318125 
" clip-path="url(#p9fbf73d7c0)" style="fill: none; stroke: #b0b0b0; stroke-width: 0.8; stroke-linecap: square"/>
     </g>
     <g id="line2d_4">
      <g>
       <use xlink:href="#mf370bbc2ca" x="138.995838" y="576.718125" style="stroke: #000000; stroke-width: 0.8"/>
      </g>
     </g>
     <g id="text_2">
      <!-- 100 -->
      <g transform="translate(129.452088 591.316563) scale(0.1 -0.1)">
       <defs>
        <path id="DejaVuSans-31" d="M 794 531 
L 1825 531 
L 1825 4091 
L 703 3866 
L 703 4441 
L 1819 4666 
L 2450 4666 
L 2450 531 
L 3481 531 
L 3481 0 
L 794 0 
L 794 531 
z
" transform="scale(0.015625)"/>
       </defs>
       <use xlink:href="#DejaVuSans-31"/>
       <use xlink:href="#DejaVuSans-30" transform="translate(63.623047 0)"/>
       <use xlink:href="#DejaVuSans-30" transform="translate(127.246094 0)"/>
      </g>
     </g>
    </g>
    <g id="xtick_3">
     <g id="line2d_5">
      <path d="M 202.484289 576.718125 
L 202.484289 22.318125 
" clip-path="url(#p9fbf73d7c0)" style="fill: none; stroke: #b0b0b0; stroke-width: 0.8; stroke-linecap: square"/>
     </g>
     <g id="line2d_6">
      <g>
       <use xlink:href="#mf370bbc2ca" x="202.484289" y="576.718125" style="stroke: #000000; stroke-width: 0.8"/>
      </g>
     </g>
     <g id="text_3">
      <!-- 200 -->
      <g transform="translate(192.940539 591.316563) scale(0.1 -0.1)">
       <defs>
        <path id="DejaVuSans-32" d="M 1228 531 
L 3431 531 
L 3431 0 
L 469 0 
L 469 531 
Q 828 903 1448 1529 
Q 2069 2156 2228 2338 
Q 2531 2678 2651 2914 
Q 2772 3150 2772 3378 
Q 2772 3750 2511 3984 
Q 2250 4219 1831 4219 
Q 1534 4219 1204 4116 
Q 875 4013 500 3803 
L 500 4441 
Q 881 4594 1212 4672 
Q 1544 4750 1819 4750 
Q 2544 4750 2975 4387 
Q 3406 4025 3406 3419 
Q 3406 3131 3298 2873 
Q 3191 2616 2906 2266 
Q 2828 2175 2409 1742 
Q 1991 1309 1228 531 
z
" transform="scale(0.015625)"/>
       </defs>
       <use xlink:href="#DejaVuSans-32"/>
       <use xlink:href="#DejaVuSans-30" transform="translate(63.623047 0)"/>
       <use xlink:href="#DejaVuSans-30" transform="translate(127.246094 0)"/>
      </g>
     </g>
    </g>
    <g id="xtick_4">
     <g id="line2d_7">
      <path d="M 265.972741 576.718125 
L 265.972741 22.318125 
" clip-path="url(#p9fbf73d7c0)" style="fill: none; stroke: #b0b0b0; stroke-width: 0.8; stroke-linecap: square"/>
     </g>
     <g id="line2d_8">
      <g>
       <use xlink:href="#mf370bbc2ca" x="265.972741" y="576.718125" style="stroke: #000000; stroke-width: 0.8"/>
      </g>
     </g>
     <g id="text_4">
      <!-- 300 -->
      <g transform="translate(256.428991 591.316563) scale(0.1 -0.1)">
       <defs>
        <path id="DejaVuSans-33" d="M 2597 2516 
Q 3050 2419 3304 2112 
Q 3559 1806 3559 1356 
Q 3559 666 3084 287 
Q 2609 -91 1734 -91 
Q 1441 -91 1130 -33 
Q 819 25 488 141 
L 488 750 
Q 750 597 1062 519 
Q 1375 441 1716 441 
Q 2309 441 2620 675 
Q 2931 909 2931 1356 
Q 2931 1769 2642 2001 
Q 2353 2234 1838 2234 
L 1294 2234 
L 1294 2753 
L 1863 2753 
Q 2328 2753 2575 2939 
Q 2822 3125 2822 3475 
Q 2822 3834 2567 4026 
Q 2313 4219 1838 4219 
Q 1578 4219 1281 4162 
Q 984 4106 628 3988 
L 628 4550 
Q 988 4650 1302 4700 
Q 1616 4750 1894 4750 
Q 2613 4750 3031 4423 
Q 3450 4097 3450 3541 
Q 3450 3153 3228 2886 
Q 3006 2619 2597 2516 
z
" transform="scale(0.015625)"/>
       </defs>
       <use xlink:href="#DejaVuSans-33"/>
       <use xlink:href="#DejaVuSans-30" transform="translate(63.623047 0)"/>
       <use xlink:href="#DejaVuSans-30" transform="translate(127.246094 0)"/>
      </g>
     </g>
    </g>
    <g id="xtick_5">
     <g id="line2d_9">
      <path d="M 329.461192 576.718125 
L 329.461192 22.318125 
" clip-path="url(#p9fbf73d7c0)" style="fill: none; stroke: #b0b0b0; stroke-width: 0.8; stroke-linecap: square"/>
     </g>
     <g id="line2d_10">
      <g>
       <use xlink:href="#mf370bbc2ca" x="329.461192" y="576.718125" style="stroke: #000000; stroke-width: 0.8"/>
      </g>
     </g>
     <g id="text_5">
      <!-- 400 -->
      <g transform="translate(319.917442 591.316563) scale(0.1 -0.1)">
       <defs>
        <path id="DejaVuSans-34" d="M 2419 4116 
L 825 1625 
L 2419 1625 
L 2419 4116 
z
M 2253 4666 
L 3047 4666 
L 3047 1625 
L 3713 1625 
L 3713 1100 
L 3047 1100 
L 3047 0 
L 2419 0 
L 2419 1100 
L 313 1100 
L 313 1709 
L 2253 4666 
z
" transform="scale(0.015625)"/>
       </defs>
       <use xlink:href="#DejaVuSans-34"/>
       <use xlink:href="#DejaVuSans-30" transform="translate(63.623047 0)"/>
       <use xlink:href="#DejaVuSans-30" transform="translate(127.246094 0)"/>
      </g>
     </g>
    </g>
    <g id="xtick_6">
     <g id="line2d_11">
      <path d="M 392.949644 576.718125 
L 392.949644 22.318125 
" clip-path="url(#p9fbf73d7c0)" style="fill: none; stroke: #b0b0b0; stroke-width: 0.8; stroke-linecap: square"/>
     </g>
     <g id="line2d_12">
      <g>
       <use xlink:href="#mf370bbc2ca" x="392.949644" y="576.718125" style="stroke: #000000; stroke-width: 0.8"/>
      </g>
     </g>
     <g id="text_6">
      <!-- 500 -->
      <g transform="translate(383.405894 591.316563) scale(0.1 -0.1)">
       <defs>
        <path id="DejaVuSans-35" d="M 691 4666 
L 3169 4666 
L 3169 4134 
L 1269 4134 
L 1269 2991 
Q 1406 3038 1543 3061 
Q 1681 3084 1819 3084 
Q 2600 3084 3056 2656 
Q 3513 2228 3513 1497 
Q 3513 744 3044 326 
Q 2575 -91 1722 -91 
Q 1428 -91 1123 -41 
Q 819 9 494 109 
L 494 744 
Q 775 591 1075 516 
Q 1375 441 1709 441 
Q 2250 441 2565 725 
Q 2881 1009 2881 1497 
Q 2881 1984 2565 2268 
Q 2250 2553 1709 2553 
Q 1456 2553 1204 2497 
Q 953 2441 691 2322 
L 691 4666 
z
" transform="scale(0.015625)"/>
       </defs>
       <use xlink:href="#DejaVuSans-35"/>
       <use xlink:href="#DejaVuSans-30" transform="translate(63.623047 0)"/>
       <use xlink:href="#DejaVuSans-30" transform="translate(127.246094 0)"/>
      </g>
     </g>
    </g>
    <g id="xtick_7">
     <g id="line2d_13">
      <path d="M 456.438095 576.718125 
L 456.438095 22.318125 
" clip-path="url(#p9fbf73d7c0)" style="fill: none; stroke: #b0b0b0; stroke-width: 0.8; stroke-linecap: square"/>
     </g>
     <g id="line2d_14">
      <g>
       <use xlink:href="#mf370bbc2ca" x="456.438095" y="576.718125" style="stroke: #000000; stroke-width: 0.8"/>
      </g>
     </g>
     <g id="text_7">
      <!-- 600 -->
      <g transform="translate(446.894345 591.316563) scale(0.1 -0.1)">
       <defs>
        <path id="DejaVuSans-36" d="M 2113 2584 
Q 1688 2584 1439 2293 
Q 1191 2003 1191 1497 
Q 1191 994 1439 701 
Q 1688 409 2113 409 
Q 2538 409 2786 701 
Q 3034 994 3034 1497 
Q 3034 2003 2786 2293 
Q 2538 2584 2113 2584 
z
M 3366 4563 
L 3366 3988 
Q 3128 4100 2886 4159 
Q 2644 4219 2406 4219 
Q 1781 4219 1451 3797 
Q 1122 3375 1075 2522 
Q 1259 2794 1537 2939 
Q 1816 3084 2150 3084 
Q 2853 3084 3261 2657 
Q 3669 2231 3669 1497 
Q 3669 778 3244 343 
Q 2819 -91 2113 -91 
Q 1303 -91 875 529 
Q 447 1150 447 2328 
Q 447 3434 972 4092 
Q 1497 4750 2381 4750 
Q 2619 4750 2861 4703 
Q 3103 4656 3366 4563 
z
" transform="scale(0.015625)"/>
       </defs>
       <use xlink:href="#DejaVuSans-36"/>
       <use xlink:href="#DejaVuSans-30" transform="translate(63.623047 0)"/>
       <use xlink:href="#DejaVuSans-30" transform="translate(127.246094 0)"/>
      </g>
     </g>
    </g>
    <g id="xtick_8">
     <g id="line2d_15">
      <path d="M 519.926547 576.718125 
L 519.926547 22.318125 
" clip-path="url(#p9fbf73d7c0)" style="fill: none; stroke: #b0b0b0; stroke-width: 0.8; stroke-linecap: square"/>
     </g>
     <g id="line2d_16">
      <g>
       <use xlink:href="#mf370bbc2ca" x="519.926547" y="576.718125" style="stroke: #000000; stroke-width: 0.8"/>
      </g>
     </g>
     <g id="text_8">
      <!-- 700 -->
      <g transform="translate(510.382797 591.316563) scale(0.1 -0.1)">
       <defs>
        <path id="DejaVuSans-37" d="M 525 4666 
L 3525 4666 
L 3525 4397 
L 1831 0 
L 1172 0 
L 2766 4134 
L 525 4134 
L 525 4666 
z
" transform="scale(0.015625)"/>
       </defs>
       <use xlink:href="#DejaVuSans-37"/>
       <use xlink:href="#DejaVuSans-30" transform="translate(63.623047 0)"/>
       <use xlink:href="#DejaVuSans-30" transform="translate(127.246094 0)"/>
      </g>
     </g>
    </g>
    <g id="xtick_9">
     <g id="line2d_17">
      <path d="M 583.414998 576.718125 
L 583.414998 22.318125 
" clip-path="url(#p9fbf73d7c0)" style="fill: none; stroke: #b0b0b0; stroke-width: 0.8; stroke-linecap: square"/>
     </g>
     <g id="line2d_18">
      <g>
       <use xlink:href="#mf370bbc2ca" x="583.414998" y="576.718125" style="stroke: #000000; stroke-width: 0.8"/>
      </g>
     </g>
     <g id="text_9">
      <!-- 800 -->
      <g transform="translate(573.871248 591.316563) scale(0.1 -0.1)">
       <defs>
        <path id="DejaVuSans-38" d="M 2034 2216 
Q 1584 2216 1326 1975 
Q 1069 1734 1069 1313 
Q 1069 891 1326 650 
Q 1584 409 2034 409 
Q 2484 409 2743 651 
Q 3003 894 3003 1313 
Q 3003 1734 2745 1975 
Q 2488 2216 2034 2216 
z
M 1403 2484 
Q 997 2584 770 2862 
Q 544 3141 544 3541 
Q 544 4100 942 4425 
Q 1341 4750 2034 4750 
Q 2731 4750 3128 4425 
Q 3525 4100 3525 3541 
Q 3525 3141 3298 2862 
Q 3072 2584 2669 2484 
Q 3125 2378 3379 2068 
Q 3634 1759 3634 1313 
Q 3634 634 3220 271 
Q 2806 -91 2034 -91 
Q 1263 -91 848 271 
Q 434 634 434 1313 
Q 434 1759 690 2068 
Q 947 2378 1403 2484 
z
M 1172 3481 
Q 1172 3119 1398 2916 
Q 1625 2713 2034 2713 
Q 2441 2713 2670 2916 
Q 2900 3119 2900 3481 
Q 2900 3844 2670 4047 
Q 2441 4250 2034 4250 
Q 1625 4250 1398 4047 
Q 1172 3844 1172 3481 
z
" transform="scale(0.015625)"/>
       </defs>
       <use xlink:href="#DejaVuSans-38"/>
       <use xlink:href="#DejaVuSans-30" transform="translate(63.623047 0)"/>
       <use xlink:href="#DejaVuSans-30" transform="translate(127.246094 0)"/>
      </g>
     </g>
    </g>
    <g id="text_10">
     <!-- Epochs -->
     <g transform="translate(311.228125 604.994688) scale(0.1 -0.1)">
      <defs>
       <path id="DejaVuSans-45" d="M 628 4666 
L 3578 4666 
L 3578 4134 
L 1259 4134 
L 1259 2753 
L 3481 2753 
L 3481 2222 
L 1259 2222 
L 1259 531 
L 3634 531 
L 3634 0 
L 628 0 
L 628 4666 
z
" transform="scale(0.015625)"/>
       <path id="DejaVuSans-70" d="M 1159 525 
L 1159 -1331 
L 581 -1331 
L 581 3500 
L 1159 3500 
L 1159 2969 
Q 1341 3281 1617 3432 
Q 1894 3584 2278 3584 
Q 2916 3584 3314 3078 
Q 3713 2572 3713 1747 
Q 3713 922 3314 415 
Q 2916 -91 2278 -91 
Q 1894 -91 1617 61 
Q 1341 213 1159 525 
z
M 3116 1747 
Q 3116 2381 2855 2742 
Q 2594 3103 2138 3103 
Q 1681 3103 1420 2742 
Q 1159 2381 1159 1747 
Q 1159 1113 1420 752 
Q 1681 391 2138 391 
Q 2594 391 2855 752 
Q 3116 1113 3116 1747 
z
" transform="scale(0.015625)"/>
       <path id="DejaVuSans-6f" d="M 1959 3097 
Q 1497 3097 1228 2736 
Q 959 2375 959 1747 
Q 959 1119 1226 758 
Q 1494 397 1959 397 
Q 2419 397 2687 759 
Q 2956 1122 2956 1747 
Q 2956 2369 2687 2733 
Q 2419 3097 1959 3097 
z
M 1959 3584 
Q 2709 3584 3137 3096 
Q 3566 2609 3566 1747 
Q 3566 888 3137 398 
Q 2709 -91 1959 -91 
Q 1206 -91 779 398 
Q 353 888 353 1747 
Q 353 2609 779 3096 
Q 1206 3584 1959 3584 
z
" transform="scale(0.015625)"/>
       <path id="DejaVuSans-63" d="M 3122 3366 
L 3122 2828 
Q 2878 2963 2633 3030 
Q 2388 3097 2138 3097 
Q 1578 3097 1268 2742 
Q 959 2388 959 1747 
Q 959 1106 1268 751 
Q 1578 397 2138 397 
Q 2388 397 2633 464 
Q 2878 531 3122 666 
L 3122 134 
Q 2881 22 2623 -34 
Q 2366 -91 2075 -91 
Q 1284 -91 818 406 
Q 353 903 353 1747 
Q 353 2603 823 3093 
Q 1294 3584 2113 3584 
Q 2378 3584 2631 3529 
Q 2884 3475 3122 3366 
z
" transform="scale(0.015625)"/>
       <path id="DejaVuSans-68" d="M 3513 2113 
L 3513 0 
L 2938 0 
L 2938 2094 
Q 2938 2591 2744 2837 
Q 2550 3084 2163 3084 
Q 1697 3084 1428 2787 
Q 1159 2491 1159 1978 
L 1159 0 
L 581 0 
L 581 4863 
L 1159 4863 
L 1159 2956 
Q 1366 3272 1645 3428 
Q 1925 3584 2291 3584 
Q 2894 3584 3203 3211 
Q 3513 2838 3513 2113 
z
" transform="scale(0.015625)"/>
       <path id="DejaVuSans-73" d="M 2834 3397 
L 2834 2853 
Q 2591 2978 2328 3040 
Q 2066 3103 1784 3103 
Q 1356 3103 1142 2972 
Q 928 2841 928 2578 
Q 928 2378 1081 2264 
Q 1234 2150 1697 2047 
L 1894 2003 
Q 2506 1872 2764 1633 
Q 3022 1394 3022 966 
Q 3022 478 2636 193 
Q 2250 -91 1575 -91 
Q 1294 -91 989 -36 
Q 684 19 347 128 
L 347 722 
Q 666 556 975 473 
Q 1284 391 1588 391 
Q 1994 391 2212 530 
Q 2431 669 2431 922 
Q 2431 1156 2273 1281 
Q 2116 1406 1581 1522 
L 1381 1569 
Q 847 1681 609 1914 
Q 372 2147 372 2553 
Q 372 3047 722 3315 
Q 1072 3584 1716 3584 
Q 2034 3584 2315 3537 
Q 2597 3491 2834 3397 
z
" transform="scale(0.015625)"/>
      </defs>
      <use xlink:href="#DejaVuSans-45"/>
      <use xlink:href="#DejaVuSans-70" transform="translate(63.183594 0)"/>
      <use xlink:href="#DejaVuSans-6f" transform="translate(126.660156 0)"/>
      <use xlink:href="#DejaVuSans-63" transform="translate(187.841797 0)"/>
      <use xlink:href="#DejaVuSans-68" transform="translate(242.822266 0)"/>
      <use xlink:href="#DejaVuSans-73" transform="translate(306.201172 0)"/>
     </g>
    </g>
   </g>
   <g id="matplotlib.axis_2">
    <g id="ytick_1">
     <g id="line2d_19">
      <path d="M 50.14375 501.210234 
L 608.14375 501.210234 
" clip-path="url(#p9fbf73d7c0)" style="fill: none; stroke: #b0b0b0; stroke-width: 0.8; stroke-linecap: square"/>
     </g>
     <g id="line2d_20">
      <defs>
       <path id="m0c1ea7fa9d" d="M 0 0 
L -3.5 0 
" style="stroke: #000000; stroke-width: 0.8"/>
      </defs>
      <g>
       <use xlink:href="#m0c1ea7fa9d" x="50.14375" y="501.210234" style="stroke: #000000; stroke-width: 0.8"/>
      </g>
     </g>
     <g id="text_11">
      <!-- 5.46 -->
      <g transform="translate(20.878125 505.009453) scale(0.1 -0.1)">
       <defs>
        <path id="DejaVuSans-2e" d="M 684 794 
L 1344 794 
L 1344 0 
L 684 0 
L 684 794 
z
" transform="scale(0.015625)"/>
       </defs>
       <use xlink:href="#DejaVuSans-35"/>
       <use xlink:href="#DejaVuSans-2e" transform="translate(63.623047 0)"/>
       <use xlink:href="#DejaVuSans-34" transform="translate(95.410156 0)"/>
       <use xlink:href="#DejaVuSans-36" transform="translate(159.033203 0)"/>
      </g>
     </g>
    </g>
    <g id="ytick_2">
     <g id="line2d_21">
      <path d="M 50.14375 425.13048 
L 608.14375 425.13048 
" clip-path="url(#p9fbf73d7c0)" style="fill: none; stroke: #b0b0b0; stroke-width: 0.8; stroke-linecap: square"/>
     </g>
     <g id="line2d_22">
      <g>
       <use xlink:href="#m0c1ea7fa9d" x="50.14375" y="425.13048" style="stroke: #000000; stroke-width: 0.8"/>
      </g>
     </g>
     <g id="text_12">
      <!-- 5.48 -->
      <g transform="translate(20.878125 428.929699) scale(0.1 -0.1)">
       <use xlink:href="#DejaVuSans-35"/>
       <use xlink:href="#DejaVuSans-2e" transform="translate(63.623047 0)"/>
       <use xlink:href="#DejaVuSans-34" transform="translate(95.410156 0)"/>
       <use xlink:href="#DejaVuSans-38" transform="translate(159.033203 0)"/>
      </g>
     </g>
    </g>
    <g id="ytick_3">
     <g id="line2d_23">
      <path d="M 50.14375 349.050726 
L 608.14375 349.050726 
" clip-path="url(#p9fbf73d7c0)" style="fill: none; stroke: #b0b0b0; stroke-width: 0.8; stroke-linecap: square"/>
     </g>
     <g id="line2d_24">
      <g>
       <use xlink:href="#m0c1ea7fa9d" x="50.14375" y="349.050726" style="stroke: #000000; stroke-width: 0.8"/>
      </g>
     </g>
     <g id="text_13">
      <!-- 5.50 -->
      <g transform="translate(20.878125 352.849945) scale(0.1 -0.1)">
       <use xlink:href="#DejaVuSans-35"/>
       <use xlink:href="#DejaVuSans-2e" transform="translate(63.623047 0)"/>
       <use xlink:href="#DejaVuSans-35" transform="translate(95.410156 0)"/>
       <use xlink:href="#DejaVuSans-30" transform="translate(159.033203 0)"/>
      </g>
     </g>
    </g>
    <g id="ytick_4">
     <g id="line2d_25">
      <path d="M 50.14375 272.970972 
L 608.14375 272.970972 
" clip-path="url(#p9fbf73d7c0)" style="fill: none; stroke: #b0b0b0; stroke-width: 0.8; stroke-linecap: square"/>
     </g>
     <g id="line2d_26">
      <g>
       <use xlink:href="#m0c1ea7fa9d" x="50.14375" y="272.970972" style="stroke: #000000; stroke-width: 0.8"/>
      </g>
     </g>
     <g id="text_14">
      <!-- 5.52 -->
      <g transform="translate(20.878125 276.770191) scale(0.1 -0.1)">
       <use xlink:href="#DejaVuSans-35"/>
       <use xlink:href="#DejaVuSans-2e" transform="translate(63.623047 0)"/>
       <use xlink:href="#DejaVuSans-35" transform="translate(95.410156 0)"/>
       <use xlink:href="#DejaVuSans-32" transform="translate(159.033203 0)"/>
      </g>
     </g>
    </g>
    <g id="ytick_5">
     <g id="line2d_27">
      <path d="M 50.14375 196.891219 
L 608.14375 196.891219 
" clip-path="url(#p9fbf73d7c0)" style="fill: none; stroke: #b0b0b0; stroke-width: 0.8; stroke-linecap: square"/>
     </g>
     <g id="line2d_28">
      <g>
       <use xlink:href="#m0c1ea7fa9d" x="50.14375" y="196.891219" style="stroke: #000000; stroke-width: 0.8"/>
      </g>
     </g>
     <g id="text_15">
      <!-- 5.54 -->
      <g transform="translate(20.878125 200.690437) scale(0.1 -0.1)">
       <use xlink:href="#DejaVuSans-35"/>
       <use xlink:href="#DejaVuSans-2e" transform="translate(63.623047 0)"/>
       <use xlink:href="#DejaVuSans-35" transform="translate(95.410156 0)"/>
       <use xlink:href="#DejaVuSans-34" transform="translate(159.033203 0)"/>
      </g>
     </g>
    </g>
    <g id="ytick_6">
     <g id="line2d_29">
      <path d="M 50.14375 120.811465 
L 608.14375 120.811465 
" clip-path="url(#p9fbf73d7c0)" style="fill: none; stroke: #b0b0b0; stroke-width: 0.8; stroke-linecap: square"/>
     </g>
     <g id="line2d_30">
      <g>
       <use xlink:href="#m0c1ea7fa9d" x="50.14375" y="120.811465" style="stroke: #000000; stroke-width: 0.8"/>
      </g>
     </g>
     <g id="text_16">
      <!-- 5.56 -->
      <g transform="translate(20.878125 124.610684) scale(0.1 -0.1)">
       <use xlink:href="#DejaVuSans-35"/>
       <use xlink:href="#DejaVuSans-2e" transform="translate(63.623047 0)"/>
       <use xlink:href="#DejaVuSans-35" transform="translate(95.410156 0)"/>
       <use xlink:href="#DejaVuSans-36" transform="translate(159.033203 0)"/>
      </g>
     </g>
    </g>
    <g id="ytick_7">
     <g id="line2d_31">
      <path d="M 50.14375 44.731711 
L 608.14375 44.731711 
" clip-path="url(#p9fbf73d7c0)" style="fill: none; stroke: #b0b0b0; stroke-width: 0.8; stroke-linecap: square"/>
     </g>
     <g id="line2d_32">
      <g>
       <use xlink:href="#m0c1ea7fa9d" x="50.14375" y="44.731711" style="stroke: #000000; stroke-width: 0.8"/>
      </g>
     </g>
     <g id="text_17">
      <!-- 5.58 -->
      <g transform="translate(20.878125 48.53093) scale(0.1 -0.1)">
       <use xlink:href="#DejaVuSans-35"/>
       <use xlink:href="#DejaVuSans-2e" transform="translate(63.623047 0)"/>
       <use xlink:href="#DejaVuSans-35" transform="translate(95.410156 0)"/>
       <use xlink:href="#DejaVuSans-38" transform="translate(159.033203 0)"/>
      </g>
     </g>
    </g>
    <g id="text_18">
     <!-- Loss -->
     <g transform="translate(14.798437 310.485313) rotate(-90) scale(0.1 -0.1)">
      <defs>
       <path id="DejaVuSans-4c" d="M 628 4666 
L 1259 4666 
L 1259 531 
L 3531 531 
L 3531 0 
L 628 0 
L 628 4666 
z
" transform="scale(0.015625)"/>
      </defs>
      <use xlink:href="#DejaVuSans-4c"/>
      <use xlink:href="#DejaVuSans-6f" transform="translate(53.962891 0)"/>
      <use xlink:href="#DejaVuSans-73" transform="translate(115.144531 0)"/>
      <use xlink:href="#DejaVuSans-73" transform="translate(167.244141 0)"/>
     </g>
    </g>
   </g>
   <g id="line2d_33">
    <path d="M 75.507386 156.514335 
L 76.142271 174.359313 
L 76.777155 174.373824 
L 77.41204 175.422248 
L 78.046924 177.145437 
L 78.681809 180.198201 
L 79.951578 191.87235 
L 81.221347 207.665827 
L 82.491116 220.067343 
L 84.39577 233.798435 
L 85.665539 242.12597 
L 86.935308 247.821562 
L 87.570192 251.565416 
L 88.839961 256.321416 
L 89.474846 260.422605 
L 90.10973 265.307391 
L 90.744615 275.909535 
L 91.379499 289.038418 
L 92.649268 309.049172 
L 93.284153 316.910539 
L 93.919037 326.999355 
L 95.823691 349.801674 
L 96.458575 355.263274 
L 97.09346 362.241281 
L 97.728344 365.6931 
L 98.998113 374.196582 
L 100.267882 380.271275 
L 100.902767 384.519388 
L 101.537651 387.615686 
L 102.172536 389.97192 
L 102.80742 393.478155 
L 103.442305 395.861597 
L 104.07719 396.668774 
L 105.346959 401.114601 
L 105.981843 404.307034 
L 107.251612 406.276911 
L 107.886497 409.16824 
L 108.521381 409.919187 
L 109.156266 412.451368 
L 109.79115 412.946558 
L 110.426035 414.559099 
L 111.060919 416.539859 
L 111.695804 417.343409 
L 112.330688 418.792701 
L 112.965573 421.172516 
L 113.600457 421.751144 
L 114.235342 422.699805 
L 114.870226 424.145469 
L 115.505111 425.11771 
L 116.139995 426.412823 
L 116.77488 428.17773 
L 117.409764 427.854859 
L 118.679533 431.881679 
L 119.949302 433.973086 
L 120.584187 432.948242 
L 121.219071 435.645485 
L 121.853956 436.193278 
L 122.48884 436.891623 
L 123.123725 438.467887 
L 123.758609 437.967255 
L 124.393494 437.91828 
L 125.028379 441.448096 
L 125.663263 440.945651 
L 126.298148 441.731062 
L 126.933032 443.296443 
L 127.567917 443.472389 
L 128.837686 445.56561 
L 129.47257 445.511193 
L 130.107455 446.098891 
L 130.742339 446.115216 
L 131.377224 446.895186 
L 132.012108 447.42484 
L 132.646993 450.631784 
L 133.281877 450.499371 
L 133.916762 450.9474 
L 134.551646 451.779972 
L 135.186531 451.47524 
L 135.821415 453.198428 
L 136.4563 452.85379 
L 137.726069 455.302532 
L 138.360953 454.845434 
L 138.995838 456.193148 
L 139.630722 456.278401 
L 140.265607 457.112787 
L 140.900491 457.288734 
L 141.535376 458.523988 
L 142.17026 459.220519 
L 142.805145 458.803326 
L 143.440029 459.641339 
L 144.074914 460.07123 
L 144.709798 461.834324 
L 145.344683 461.672888 
L 145.979567 460.756877 
L 146.614452 462.587085 
L 147.249337 462.503646 
L 148.519106 464.342923 
L 149.15399 463.142133 
L 149.788875 463.907592 
L 150.423759 464.286693 
L 151.058644 465.162798 
L 151.693528 466.788037 
L 152.328413 465.759566 
L 152.963297 467.361224 
L 153.598182 466.726365 
L 154.867951 467.553496 
L 155.502835 468.291746 
L 156.13772 469.458073 
L 156.772604 469.886149 
L 157.407489 468.681731 
L 158.042373 470.031259 
L 158.677258 470.618957 
L 159.312142 472.43284 
L 159.947027 471.313675 
L 160.581911 471.384416 
L 161.216796 471.594826 
L 161.85168 472.840964 
L 162.486565 473.524797 
L 163.121449 473.004213 
L 163.756334 474.409972 
L 165.026103 474.903348 
L 165.660987 474.977718 
L 166.295872 475.696015 
L 166.930756 475.262497 
L 167.565641 476.606584 
L 168.200526 475.893728 
L 168.83541 476.127719 
L 169.470295 477.589709 
L 170.105179 476.728114 
L 170.740064 478.030482 
L 172.009833 478.159268 
L 172.644717 479.055326 
L 173.279602 479.604932 
L 173.914486 479.122439 
L 174.549371 480.967158 
L 175.184255 480.125517 
L 175.81914 480.364949 
L 176.454024 480.143655 
L 177.088909 480.678751 
L 177.723793 479.684743 
L 178.358678 481.02883 
L 179.628447 482.752019 
L 180.263331 482.601466 
L 180.898216 482.597839 
L 181.5331 482.995079 
L 182.167985 482.61235 
L 182.802869 484.166847 
L 183.437754 484.331911 
L 184.072638 484.979467 
L 185.342407 484.223078 
L 185.977292 484.691059 
L 186.612176 485.697764 
L 187.881945 485.60707 
L 188.51683 485.6633 
L 189.151715 486.68633 
L 189.786599 487.217798 
L 190.421484 486.777024 
L 191.056368 486.47592 
L 191.691253 487.580574 
L 192.326137 488.413147 
L 192.961022 487.299423 
L 193.595906 488.141064 
L 194.230791 487.92884 
L 194.865675 488.13925 
L 195.50056 489.390829 
L 196.135444 488.988147 
L 196.770329 490.020247 
L 197.405213 489.642959 
L 198.674982 491.003371 
L 199.309867 489.760861 
L 199.944751 490.508181 
L 200.579636 491.037835 
L 201.21452 489.659284 
L 201.849405 491.121273 
L 202.484289 491.275453 
L 203.119174 491.034207 
L 203.754058 491.474981 
L 205.023827 492.708421 
L 205.658712 491.324428 
L 206.293596 492.869856 
L 206.928481 492.548799 
L 207.563365 495.255112 
L 208.19825 493.606293 
L 209.468019 494.143202 
L 210.102903 494.11418 
L 210.737788 493.834842 
L 211.372673 495.246043 
L 212.007557 494.580348 
L 212.642442 493.083894 
L 213.277326 494.070647 
L 213.912211 494.213943 
L 214.547095 494.861499 
L 215.18198 496.002432 
L 216.451749 496.873095 
L 217.086633 496.2074 
L 217.721518 496.980114 
L 218.356402 496.544783 
L 218.991287 496.528458 
L 219.626171 497.005509 
L 220.261056 496.367022 
L 220.89594 496.733426 
L 221.530825 496.713474 
L 222.165709 496.827748 
L 222.800594 497.995889 
L 223.435478 497.816314 
L 224.070363 498.645259 
L 224.705247 497.520651 
L 225.340132 498.592656 
L 225.975016 498.971758 
L 226.609901 498.710559 
L 227.244785 498.915527 
L 227.87967 500.927123 
L 228.514554 500.127201 
L 229.149439 499.670102 
L 229.784323 499.996601 
L 230.419208 500.076412 
L 231.054092 500.446444 
L 231.688977 500.580672 
L 232.323862 499.009849 
L 232.958746 500.35575 
L 233.593631 500.622391 
L 234.228515 501.358827 
L 234.8634 501.115767 
L 235.498284 501.170183 
L 236.133169 502.695659 
L 236.768053 501.803228 
L 237.402938 501.857645 
L 238.037822 501.217344 
L 238.672707 501.692582 
L 239.307591 501.725232 
L 239.942476 501.578307 
L 240.57736 502.924208 
L 241.212245 503.686039 
L 241.847129 503.671528 
L 242.482014 503.283357 
L 243.116898 502.590454 
L 243.751783 503.800313 
L 244.386667 503.793058 
L 245.021552 503.072946 
L 245.656436 504.282806 
L 246.291321 503.715061 
L 246.926205 503.798499 
L 247.56109 506.191011 
L 248.195974 504.13044 
L 248.830859 504.846924 
L 250.100628 504.22839 
L 250.735512 507.029024 
L 251.370397 504.574841 
L 252.005281 504.895898 
L 252.640166 506.368771 
L 253.27505 506.464907 
L 253.909935 506.969166 
L 254.54482 506.702526 
L 255.814589 507.126974 
L 256.449473 505.98967 
L 257.084358 507.301107 
L 257.719242 507.538726 
L 258.354127 506.238172 
L 258.989011 509.104106 
L 259.623896 506.278077 
L 260.25878 506.617273 
L 260.893665 507.228552 
L 261.528549 508.282417 
L 262.163434 507.723742 
L 262.798318 508.4239 
L 263.433203 508.238884 
L 264.702972 508.356787 
L 265.337856 507.633047 
L 265.972741 508.387623 
L 266.607625 509.960259 
L 267.24251 509.648271 
L 267.877394 508.529105 
L 268.512279 509.060573 
L 269.147163 509.811521 
L 269.782048 509.162151 
L 270.416932 509.555763 
L 271.051817 509.180289 
L 272.321586 510.411916 
L 272.95647 509.163964 
L 273.591355 510.635023 
L 274.226239 510.136206 
L 274.861124 511.291649 
L 275.496009 510.791017 
L 276.130893 509.992909 
L 276.765778 511.881161 
L 277.400662 511.710656 
L 278.035547 510.522563 
L 278.670431 510.836364 
L 279.305316 510.836364 
L 280.575085 511.852139 
L 281.209969 513.014837 
L 281.844854 512.858843 
L 282.479738 510.221458 
L 283.114623 511.899299 
L 283.749507 510.863572 
L 284.384392 511.121144 
L 285.019276 510.479029 
L 285.654161 512.806241 
L 286.289045 513.341336 
L 286.92393 512.029899 
L 287.558814 512.646619 
L 288.193699 512.278401 
L 288.828583 514.215628 
L 289.463468 513.074695 
L 290.733237 512.394489 
L 291.368121 513.950801 
L 292.003006 513.58621 
L 293.272775 513.468308 
L 293.907659 514.745281 
L 294.542544 513.914523 
L 295.177428 514.135817 
L 295.812313 514.806953 
L 296.447197 514.808767 
L 297.716967 514.293625 
L 298.351851 515.784636 
L 298.986736 515.66492 
L 299.62162 515.853564 
L 300.256505 517.072493 
L 300.891389 515.173358 
L 301.526274 513.972567 
L 302.161158 515.56697 
L 302.796043 515.144336 
L 303.430927 516.163738 
L 304.065812 515.561529 
L 304.700696 515.931561 
L 305.335581 515.766497 
L 305.970465 517.228487 
L 306.60535 517.382667 
L 307.240234 516.664369 
L 307.875119 517.023518 
L 308.510003 516.564606 
L 309.144888 517.941343 
L 309.779772 517.792604 
L 310.414657 516.89836 
L 311.049541 515.72115 
L 312.31931 517.404433 
L 312.954195 516.615394 
L 313.589079 516.651672 
L 314.223964 517.801674 
L 314.858848 517.134165 
L 315.493733 517.747257 
L 316.128617 518.928095 
L 317.398386 517.691027 
L 318.033271 518.929909 
L 318.668156 517.709166 
L 319.30304 518.186217 
L 319.937925 517.317367 
L 320.572809 519.789689 
L 321.207694 518.392999 
L 321.842578 518.998836 
L 322.477463 519.920289 
L 323.112347 520.333854 
L 323.747232 519.503096 
L 324.382116 518.284167 
L 325.017001 519.559326 
L 325.651885 520.099863 
L 326.28677 520.054516 
L 326.921654 518.909956 
L 327.556539 520.255857 
L 328.191423 518.929909 
L 328.826308 520.888902 
L 329.461192 519.847733 
L 330.096077 521.041268 
L 330.730961 519.240083 
L 331.365846 519.96745 
L 332.635615 520.790952 
L 333.270499 520.402781 
L 333.905384 520.7057 
L 334.540268 521.380464 
L 335.175153 521.788588 
L 335.810037 519.352543 
L 336.444922 521.376836 
L 337.079806 520.722025 
L 337.714691 519.35073 
L 338.349575 520.419106 
L 338.98446 521.228098 
L 339.619344 520.337482 
L 340.254229 522.009882 
L 340.889114 521.991743 
L 341.523998 523.234252 
L 342.158883 522.989378 
L 342.793767 521.37865 
L 343.428652 522.481491 
L 344.063536 522.174945 
L 345.333305 522.164062 
L 345.96819 521.734171 
L 346.603074 522.392611 
L 347.237959 521.621711 
L 347.872843 523.337644 
L 348.507728 521.998998 
L 349.777497 522.777154 
L 350.412381 522.869662 
L 351.047266 522.554046 
L 351.68215 523.357596 
L 352.317035 521.821238 
L 353.586804 524.460437 
L 354.221688 523.176208 
L 354.856573 524.337093 
L 355.491457 524.777867 
L 356.126342 524.50397 
L 356.761226 523.731256 
L 357.396111 524.083149 
L 358.030995 523.694979 
L 358.66588 523.843717 
L 359.300764 523.642376 
L 360.570533 524.930233 
L 361.205418 524.108544 
L 361.840303 524.562014 
L 362.475187 524.289932 
L 363.110072 525.039066 
L 363.744956 524.803261 
L 365.014725 525.029996 
L 365.64961 525.347426 
L 366.284494 525.955076 
L 366.919379 524.990091 
L 367.554263 524.734333 
L 368.189148 525.347426 
L 368.824032 526.660677 
L 369.458917 525.599555 
L 370.093801 526.784021 
L 370.728686 527.094195 
L 371.36357 525.643089 
L 371.998455 525.532442 
L 372.633339 526.426686 
L 373.268224 525.311148 
L 373.903108 525.621322 
L 374.537993 526.481102 
L 375.172877 528.449165 
L 375.807762 527.125031 
L 376.442646 526.909179 
L 377.077531 526.455708 
L 377.712415 526.774951 
L 378.3473 526.234414 
L 378.982184 527.456971 
L 379.617069 526.731418 
L 380.251953 527.128658 
L 380.886838 527.083311 
L 381.521722 526.720535 
L 382.156607 527.690962 
L 382.791491 527.544038 
L 383.426376 528.625112 
L 384.061261 527.179447 
L 384.696145 527.939464 
L 385.33103 528.414701 
L 385.965914 526.941829 
L 386.600799 527.413438 
L 387.235683 528.18071 
L 387.870568 527.181261 
L 388.505452 527.088753 
L 389.140337 528.309496 
L 389.775221 528.784733 
L 390.410106 529.02598 
L 391.04499 528.621484 
L 391.679875 527.556735 
L 392.314759 529.283551 
L 392.949644 529.060444 
L 393.584528 526.909179 
L 394.219413 528.917147 
L 394.854297 529.265412 
L 395.489182 527.944906 
L 396.124066 529.6427 
L 396.758951 528.073691 
L 397.393835 530.07259 
L 398.663604 528.548929 
L 399.298489 530.406344 
L 399.933373 530.805399 
L 400.568258 530.404531 
L 401.203142 529.421406 
L 401.838027 530.772749 
L 402.472911 529.798694 
L 403.107796 530.484341 
L 403.74268 531.414863 
L 404.377565 530.785446 
L 405.01245 529.738836 
L 405.647334 530.571408 
L 406.282219 530.319278 
L 406.917103 530.839862 
L 407.551988 530.23584 
L 408.186872 531.09562 
L 408.821757 530.796329 
L 409.456641 530.119751 
L 410.091526 530.353742 
L 410.72641 530.858001 
L 411.361295 531.570857 
L 411.996179 531.431188 
L 412.631064 531.734107 
L 413.265948 531.284264 
L 413.900833 530.547827 
L 414.535717 530.616755 
L 415.170602 531.008554 
L 415.805486 531.616204 
L 416.440371 533.580639 
L 417.075255 532.782531 
L 417.71014 532.787972 
L 418.345024 531.855637 
L 418.979909 532.073303 
L 419.614793 530.504294 
L 420.249678 532.017072 
L 420.884562 531.113759 
L 421.519447 532.341757 
L 422.154331 532.490496 
L 422.789216 532.436079 
L 423.4241 532.113208 
L 424.058985 530.906976 
L 424.693869 532.501379 
L 426.598523 533.702169 
L 427.233408 533.223304 
L 427.868292 533.187027 
L 428.503177 531.563602 
L 429.138061 534.678038 
L 429.772946 532.095069 
L 430.40783 533.069124 
L 431.042715 532.310921 
L 431.677599 533.121727 
L 432.312484 533.045544 
L 432.947368 534.371492 
L 433.582253 531.784895 
L 434.217137 534.449489 
L 434.852022 533.439156 
L 435.486906 533.036474 
L 436.121791 534.572833 
L 436.756675 534.587344 
L 437.39156 533.125355 
L 438.026444 533.35209 
L 438.661329 533.885371 
L 439.296213 533.798305 
L 439.931098 534.897518 
L 440.565982 535.051698 
L 441.200867 534.449489 
L 441.835751 534.346098 
L 442.470636 534.596413 
L 443.10552 533.990577 
L 443.740405 535.287503 
L 444.375289 535.345547 
L 445.010174 535.262108 
L 445.645058 534.895704 
L 446.279943 536.236163 
L 446.914827 534.512975 
L 447.549712 535.517866 
L 448.184597 533.769283 
L 448.819481 536.12733 
L 449.454366 534.356981 
L 450.08925 535.441683 
L 450.724135 535.205878 
L 451.359019 534.779616 
L 451.993904 536.486479 
L 452.628788 536.820234 
L 453.263673 535.621257 
L 453.898557 535.521494 
L 454.533442 536.597126 
L 455.168326 535.227645 
L 455.803211 536.368577 
L 456.438095 536.408482 
L 457.07298 536.120075 
L 457.707864 536.798467 
L 458.342749 535.887898 
L 458.977633 537.329935 
L 459.612518 535.207692 
L 460.247402 537.95391 
L 460.882287 536.357694 
L 461.517171 537.380723 
L 462.152056 537.063294 
L 462.78694 536.457457 
L 463.421825 537.368026 
L 464.056709 537.016133 
L 464.691594 537.455093 
L 465.326478 537.725361 
L 465.961363 538.98601 
L 466.596247 537.741686 
L 467.866016 536.479224 
L 468.500901 538.608722 
L 469.135785 537.560298 
L 469.77067 536.910928 
L 470.405555 536.829303 
L 471.040439 538.186087 
L 471.675324 537.914005 
L 472.310208 538.086324 
L 472.945093 537.819683 
L 474.214862 538.512586 
L 474.849746 539.430411 
L 475.484631 538.040977 
L 476.119515 538.596025 
L 476.7544 539.711563 
L 477.389284 538.380173 
L 478.024169 539.811326 
L 478.659053 538.864479 
L 479.293938 538.770158 
L 479.928822 539.189164 
L 480.563707 540.232147 
L 481.198591 538.708486 
L 482.46836 540.005412 
L 483.103245 539.980017 
L 483.738129 539.651705 
L 484.373014 539.74784 
L 485.007898 539.227256 
L 485.642783 540.564087 
L 486.277667 539.648077 
L 486.912552 539.236325 
L 487.547436 539.564638 
L 488.182321 539.392319 
L 488.817205 540.877889 
L 489.45209 539.78049 
L 490.086974 539.192792 
L 490.721859 539.65896 
L 491.991628 541.284199 
L 492.626513 540.830728 
L 493.261397 541.137274 
L 493.896282 541.039325 
L 494.531166 539.697052 
L 495.166051 539.16377 
L 495.800935 541.472843 
L 496.43582 540.253914 
L 497.070704 541.510934 
L 497.705589 541.748553 
L 498.340473 541.494609 
L 498.975358 541.636092 
L 499.610242 541.942638 
L 500.245127 541.238852 
L 500.880011 541.937197 
L 501.514896 541.846503 
L 502.14978 541.489168 
L 502.784665 539.675285 
L 503.419549 541.855572 
L 504.054434 542.327181 
L 504.689318 542.46685 
L 505.324203 542.156676 
L 505.959087 541.708647 
L 507.228856 542.209279 
L 507.863741 543.065432 
L 508.498625 542.160304 
L 509.13351 541.743111 
L 509.768394 542.356204 
L 510.403279 542.285462 
L 511.038163 542.628286 
L 511.673048 542.550289 
L 512.307933 541.888222 
L 512.942817 541.939011 
L 513.577702 542.490431 
L 514.212586 544.416774 
L 515.482355 542.592008 
L 516.11724 542.75163 
L 517.387009 543.609597 
L 518.021893 544.008651 
L 519.291662 543.595085 
L 519.926547 544.072137 
L 520.561431 543.284912 
L 521.196316 541.567165 
L 522.466085 544.184597 
L 523.100969 543.613224 
L 523.735854 543.662199 
L 524.370738 543.562436 
L 525.005623 543.662199 
L 525.640507 545.392643 
L 526.275392 544.721507 
L 526.910276 543.451789 
L 527.545161 543.5316 
L 528.180045 543.419139 
L 528.81493 544.059439 
L 529.449814 544.494771 
L 530.084699 544.202736 
L 530.719583 544.866617 
L 531.354468 545.287438 
L 531.989352 545.184047 
L 533.259121 544.443983 
L 533.894006 545.858811 
L 534.528891 545.10605 
L 535.163775 545.289252 
L 535.79866 545.964016 
L 536.433544 545.028053 
L 537.068429 544.674346 
L 537.703313 544.72332 
L 538.338198 545.858811 
L 538.973082 546.100057 
L 539.607967 546.611572 
L 540.242851 546.30684 
L 540.877736 546.684128 
L 541.51262 546.058338 
L 542.147505 546.446509 
L 542.782389 546.571667 
L 544.052158 547.057787 
L 544.687043 546.183496 
L 545.321927 546.402976 
L 546.591696 546.528134 
L 547.226581 546.93263 
L 547.861465 548.757396 
L 548.49635 547.389728 
L 549.131234 546.477345 
L 549.766119 547.433261 
L 550.401003 547.215595 
L 551.035888 546.139963 
L 551.670772 546.938071 
L 552.305657 548.414572 
L 552.940541 547.97017 
L 553.575426 546.903607 
L 554.21031 546.725847 
L 554.845195 547.384286 
L 555.48008 548.371039 
L 556.114964 547.788782 
L 557.384733 548.249508 
L 558.019618 547.148482 
L 558.654502 548.605029 
L 559.289387 548.356527 
L 559.924271 548.449036 
L 560.559156 548.240439 
L 561.19404 547.788782 
L 561.828925 549.038547 
L 562.463809 549.428532 
L 563.098694 548.365597 
L 563.733578 549.254399 
L 564.368463 547.429633 
L 565.003347 548.541544 
L 565.638232 548.683026 
L 566.273116 549.062128 
L 566.908001 547.560233 
L 567.542885 549.337838 
L 568.17777 549.412207 
L 568.812654 548.536102 
L 569.447539 548.478058 
L 570.082423 550.297382 
L 570.717308 549.591782 
L 571.352192 549.891072 
L 572.621961 549.085708 
L 573.256846 549.285235 
L 573.89173 549.776798 
L 574.526615 550.070647 
L 575.161499 549.814889 
L 575.796384 549.923722 
L 576.431268 549.566387 
L 577.066153 549.508343 
L 578.335922 551.097304 
L 578.970807 551.29139 
L 579.605691 550.112366 
L 580.240576 549.540993 
L 580.87546 549.833028 
L 581.510345 550.585789 
L 582.145229 550.69825 
L 582.780114 551.518125 
L 582.780114 551.518125 
" clip-path="url(#p9fbf73d7c0)" style="fill: none; stroke: #1f77b4; stroke-width: 1.5; stroke-linecap: square"/>
   </g>
   <g id="line2d_34">
    <path d="M 75.507386 170.403235 
L 76.142271 171.426265 
L 76.777155 169.612382 
L 77.41204 170.833125 
L 78.046924 170.356074 
L 79.316693 169.255047 
L 79.951578 156.046354 
L 80.586462 155.554791 
L 81.856232 139.781268 
L 82.491116 138.792701 
L 83.126001 131.528101 
L 83.760885 127.348916 
L 84.39577 135.014384 
L 85.030654 134.114698 
L 86.300423 113.753865 
L 86.935308 115.389987 
L 87.570192 108.167106 
L 88.205077 115.841644 
L 88.839961 104.410555 
L 89.474846 102.386262 
L 90.10973 113.581546 
L 90.744615 111.067505 
L 91.379499 117.388886 
L 92.014384 137.998221 
L 92.649268 151.114407 
L 93.919037 152.39138 
L 94.553922 159.860949 
L 95.188806 156.055423 
L 95.823691 164.769315 
L 96.458575 152.627185 
L 97.09346 170.093061 
L 97.728344 164.821918 
L 98.363229 168.235645 
L 99.632998 154.836494 
L 100.902767 161.796362 
L 101.537651 170.011436 
L 102.172536 170.528393 
L 102.80742 161.221361 
L 103.442305 170.892983 
L 104.07719 156.267647 
L 104.712074 174.424613 
L 105.346959 178.117678 
L 105.981843 161.310241 
L 106.616728 158.397146 
L 107.886497 179.050014 
L 108.521381 162.443918 
L 109.156266 168.638327 
L 110.426035 149.744925 
L 111.060919 177.359475 
L 111.695804 183.238269 
L 112.330688 148.52781 
L 112.965573 169.686751 
L 113.600457 154.156288 
L 114.235342 174.970592 
L 114.870226 179.060897 
L 115.505111 170.539276 
L 116.139995 169.528944 
L 116.77488 164.232406 
L 117.409764 172.969879 
L 118.679533 153.492407 
L 119.314418 172.958996 
L 119.949302 178.676354 
L 120.584187 163.987532 
L 121.219071 177.129112 
L 121.853956 172.286045 
L 122.48884 157.818517 
L 123.123725 157.272538 
L 123.758609 155.952032 
L 124.393494 173.071456 
L 125.028379 166.686589 
L 125.663263 166.786353 
L 126.298148 174.433682 
L 126.933032 167.000391 
L 127.567917 172.697797 
L 128.837686 157.439415 
L 129.47257 164.763874 
L 130.107455 174.702137 
L 130.742339 179.238658 
L 131.377224 167.332332 
L 132.012108 167.644319 
L 132.646993 172.079263 
L 133.281877 137.415965 
L 133.916762 135.977556 
L 134.551646 156.244067 
L 135.186531 160.695335 
L 135.821415 149.777575 
L 136.4563 161.11797 
L 137.091184 145.888611 
L 137.726069 146.501703 
L 138.360953 163.680986 
L 138.995838 165.182881 
L 139.630722 134.778579 
L 140.265607 181.729118 
L 140.900491 133.710202 
L 141.535376 168.721766 
L 142.17026 175.444015 
L 142.805145 183.894894 
L 143.440029 159.944387 
L 144.074914 152.728762 
L 144.709798 170.347005 
L 145.344683 166.040847 
L 145.979567 155.4514 
L 146.614452 157.562759 
L 147.249337 144.328671 
L 147.884221 161.208664 
L 148.519106 124.780458 
L 149.15399 161.975936 
L 149.788875 146.079068 
L 150.423759 159.051957 
L 151.058644 151.386489 
L 151.693528 148.475207 
L 152.328413 150.619217 
L 152.963297 149.044766 
L 153.598182 148.917795 
L 154.233066 153.862439 
L 154.867951 150.943902 
L 155.502835 164.067343 
L 156.13772 150.432387 
L 156.772604 165.277203 
L 157.407489 146.804621 
L 158.042373 154.709522 
L 158.677258 140.283713 
L 159.312142 151.234123 
L 159.947027 141.110844 
L 160.581911 154.874585 
L 161.216796 160.28177 
L 161.85168 157.009525 
L 163.121449 125.792604 
L 163.756334 160.172937 
L 164.391218 171.654814 
L 165.026103 148.8924 
L 165.660987 160.116706 
L 166.295872 158.720017 
L 166.930756 132.986463 
L 167.565641 144.361321 
L 168.200526 146.033721 
L 168.83541 135.368091 
L 169.470295 162.951805 
L 170.105179 152.33515 
L 170.740064 132.661778 
L 171.374948 148.511485 
L 172.009833 154.232471 
L 172.644717 152.048556 
L 173.279602 137.671722 
L 173.914486 143.399963 
L 174.549371 157.809448 
L 175.184255 143.011793 
L 175.81914 149.668742 
L 177.088909 139.110131 
L 177.723793 140.437893 
L 178.358678 149.60707 
L 178.993562 146.728438 
L 179.628447 126.14087 
L 180.263331 150.991063 
L 180.898216 167.564509 
L 181.5331 158.362682 
L 182.167985 140.339943 
L 182.802869 142.032296 
L 183.437754 136.58702 
L 184.072638 139.307844 
L 184.707523 150.896741 
L 185.342407 153.011728 
L 185.977292 146.782855 
L 186.612176 135.977556 
L 187.247061 171.170507 
L 187.881945 150.831441 
L 188.51683 151.174265 
L 189.151715 138.994042 
L 189.786599 139.545463 
L 190.421484 130.924078 
L 191.056368 124.918313 
L 191.691253 139.494674 
L 192.326137 131.167139 
L 192.961022 137.956502 
L 193.595906 150.878602 
L 194.865675 133.093482 
L 195.50056 150.131282 
L 196.135444 122.761606 
L 196.770329 143.867945 
L 197.405213 142.121176 
L 198.040098 138.591361 
L 198.674982 129.090243 
L 199.309867 139.465652 
L 199.944751 128.879833 
L 200.579636 139.474721 
L 201.21452 152.826712 
L 201.849405 131.080072 
L 202.484289 153.777186 
L 203.119174 144.970786 
L 203.754058 133.993168 
L 204.388943 151.079943 
L 205.658712 131.950736 
L 206.293596 155.324428 
L 206.928481 147.178281 
L 207.563365 140.884108 
L 208.19825 144.597126 
L 208.833134 141.399251 
L 209.468019 129.837563 
L 210.102903 132.099474 
L 210.737788 143.563213 
L 211.372673 116.442039 
L 212.007557 141.653194 
L 212.642442 141.353904 
L 213.277326 154.992488 
L 213.912211 159.984293 
L 214.547095 143.035373 
L 215.18198 142.884821 
L 215.816864 120.428953 
L 216.451749 153.7137 
L 217.086633 135.632918 
L 217.721518 126.530855 
L 218.356402 157.98358 
L 218.991287 146.690347 
L 219.626171 161.078064 
L 220.261056 120.000877 
L 220.89594 142.65083 
L 221.530825 148.208566 
L 222.165709 133.068088 
L 222.800594 130.394425 
L 223.435478 143.971337 
L 224.070363 147.640821 
L 224.705247 143.572282 
L 225.340132 143.127881 
L 225.975016 148.034434 
L 226.609901 138.93237 
L 227.244785 114.753314 
L 227.87967 150.04603 
L 228.514554 117.887704 
L 229.149439 125.647494 
L 229.784323 113.349369 
L 230.419208 142.757849 
L 231.054092 141.511712 
L 231.688977 126.931723 
L 232.323862 132.859491 
L 232.958746 134.399478 
L 233.593631 107.499597 
L 234.228515 137.994593 
L 234.8634 122.135817 
L 235.498284 144.254302 
L 236.133169 136.775664 
L 236.768053 132.542062 
L 237.402938 118.952453 
L 238.037822 131.930783 
L 238.672707 115.767275 
L 239.307591 151.526158 
L 239.942476 118.974219 
L 240.57736 119.757817 
L 241.212245 137.276296 
L 241.847129 126.256958 
L 242.482014 154.548086 
L 243.116898 137.713441 
L 243.751783 128.250415 
L 244.386667 127.844106 
L 245.021552 123.8191 
L 245.656436 122.150328 
L 246.291321 153.207627 
L 246.926205 135.261072 
L 247.56109 132.083149 
L 248.195974 95.435464 
L 249.465743 120.915074 
L 250.100628 140.325432 
L 250.735512 129.269817 
L 251.370397 134.950898 
L 252.005281 117.011598 
L 252.640166 134.934573 
L 253.27505 122.812395 
L 253.909935 148.195869 
L 254.54482 105.08532 
L 255.179704 132.309885 
L 255.814589 149.51819 
L 256.449473 134.528263 
L 257.084358 139.781268 
L 257.719242 132.797819 
L 258.354127 122.703562 
L 258.989011 117.140384 
L 259.623896 125.145048 
L 260.25878 122.353483 
L 260.893665 136.33489 
L 261.528549 121.370358 
L 262.163434 125.110584 
L 262.798318 112.277364 
L 263.433203 139.529138 
L 264.068087 142.783243 
L 264.702972 128.07991 
L 265.337856 150.031519 
L 265.972741 110.632173 
L 266.607625 133.456259 
L 267.24251 129.536458 
L 267.877394 101.009525 
L 268.512279 144.881906 
L 269.147163 140.0207 
L 269.782048 130.519583 
L 270.416932 127.735273 
L 271.051817 111.76585 
L 271.686701 136.454607 
L 272.321586 131.901761 
L 272.95647 149.325918 
L 273.591355 133.352867 
L 274.226239 147.151073 
L 274.861124 125.050726 
L 275.496009 120.561367 
L 276.130893 120.50695 
L 276.765778 145.914005 
L 277.400662 130.974867 
L 278.035547 121.330453 
L 278.670431 132.159333 
L 279.305316 128.08898 
L 279.9402 128.232277 
L 280.575085 135.021639 
L 281.209969 145.725361 
L 281.844854 96.882942 
L 282.479738 94.405178 
L 283.114623 128.745605 
L 283.749507 118.792831 
L 284.384392 135.837887 
L 285.019276 107.287373 
L 285.654161 129.012246 
L 286.289045 141.502642 
L 286.92393 110.345579 
L 287.558814 132.133938 
L 288.193699 124.613581 
L 288.828583 102.086972 
L 289.463468 133.380076 
L 290.098352 122.161211 
L 290.733237 130.026206 
L 291.368121 99.084996 
L 292.003006 125.302856 
L 292.63789 115.270271 
L 293.272775 118.018303 
L 293.907659 129.676127 
L 294.542544 114.818614 
L 295.177428 106.356851 
L 295.812313 114.842195 
L 296.447197 115.832575 
L 297.082082 132.736147 
L 297.716967 131.954364 
L 298.351851 83.968097 
L 298.986736 114.033203 
L 299.62162 121.763971 
L 300.256505 140.940339 
L 300.891389 133.857127 
L 301.526274 112.906782 
L 302.161158 105.656693 
L 302.796043 96.153761 
L 303.430927 133.574161 
L 304.065812 110.931464 
L 304.700696 123.314841 
L 305.335581 115.353709 
L 305.970465 99.846826 
L 306.60535 121.283292 
L 307.240234 116.338648 
L 307.875119 126.851912 
L 308.510003 121.787551 
L 309.144888 125.828882 
L 309.779772 123.799147 
L 310.414657 119.993621 
L 311.049541 124.580931 
L 311.684426 127.969264 
L 312.31931 136.483629 
L 312.954195 112.928548 
L 313.589079 137.267226 
L 314.223964 118.235969 
L 314.858848 88.686006 
L 315.493733 125.885112 
L 316.128617 132.206493 
L 316.763502 129.911932 
L 317.398386 134.038515 
L 318.033271 101.804006 
L 318.668156 112.908596 
L 319.937925 130.232989 
L 320.572809 108.056459 
L 321.207694 127.426913 
L 321.842578 121.052929 
L 322.477463 89.413373 
L 323.112347 116.828396 
L 323.747232 105.527907 
L 324.382116 119.050402 
L 325.017001 125.538661 
L 325.651885 109.578307 
L 326.28677 120.242123 
L 326.921654 88.310533 
L 327.556539 118.687626 
L 328.191423 118.303083 
L 328.826308 108.067343 
L 329.461192 110.583198 
L 330.096077 105.716551 
L 330.730961 124.200015 
L 331.365846 135.402555 
L 332.00073 121.687788 
L 332.635615 129.648919 
L 333.270499 99.043276 
L 333.905384 122.525802 
L 334.540268 88.724098 
L 335.175153 101.533737 
L 335.810037 102.099669 
L 336.444922 129.746869 
L 337.079806 128.598681 
L 337.714691 142.741524 
L 338.349575 102.868755 
L 338.98446 99.67088 
L 339.619344 113.915301 
L 340.254229 116.74133 
L 340.889114 90.079068 
L 341.523998 109.391477 
L 342.158883 121.339522 
L 342.793767 120.008132 
L 343.428652 122.533057 
L 344.063536 131.450104 
L 344.698421 110.848025 
L 345.333305 117.044248 
L 345.96819 116.89551 
L 346.603074 112.273737 
L 347.237959 126.512716 
L 347.872843 104.958348 
L 348.507728 113.610568 
L 349.142612 130.111459 
L 349.777497 129.866585 
L 350.412381 118.491727 
L 351.047266 122.241022 
L 351.68215 95.384675 
L 352.317035 124.279826 
L 352.951919 103.998804 
L 353.586804 130.989378 
L 354.221688 111.154571 
L 354.856573 119.864836 
L 355.491457 104.474041 
L 356.761226 96.560071 
L 357.396111 85.986949 
L 358.030995 84.477799 
L 358.66588 133.84443 
L 359.300764 99.893987 
L 359.935649 113.492666 
L 360.570533 121.256084 
L 361.205418 113.240536 
L 361.840303 112.331781 
L 362.475187 121.724065 
L 363.110072 110.296605 
L 363.744956 110.833514 
L 365.014725 124.965474 
L 365.64961 106.044864 
L 366.284494 112.99929 
L 366.919379 96.734204 
L 367.554263 124.252618 
L 368.189148 124.849385 
L 368.824032 98.459206 
L 369.458917 118.849061 
L 370.093801 112.529494 
L 370.728686 111.27066 
L 371.36357 116.663333 
L 372.633339 103.86639 
L 373.268224 114.967352 
L 373.903108 117.23652 
L 374.537993 132.551131 
L 375.172877 109.681698 
L 375.807762 136.070064 
L 376.442646 105.509768 
L 377.077531 112.993848 
L 377.712415 105.32838 
L 378.3473 71.943869 
L 378.982184 107.425228 
L 379.617069 91.062193 
L 380.251953 116.126424 
L 380.886838 91.103912 
L 381.521722 116.287859 
L 382.156607 113.657729 
L 382.791491 103.799277 
L 383.426376 81.096721 
L 384.061261 130.089692 
L 384.696145 104.131217 
L 385.33103 97.236649 
L 385.965914 138.424483 
L 386.600799 128.199627 
L 387.235683 105.979564 
L 388.505452 127.762481 
L 389.140337 99.932079 
L 389.775221 110.42539 
L 390.410106 125.288345 
L 391.04499 110.448971 
L 391.679875 89.587506 
L 392.314759 113.039195 
L 392.949644 121.179901 
L 394.219413 107.314581 
L 394.854297 105.716551 
L 395.489182 106.258902 
L 396.124066 89.906749 
L 396.758951 104.392416 
L 397.393835 132.400579 
L 398.02872 121.446541 
L 398.663604 92.094292 
L 399.298489 123.594179 
L 399.933373 98.613386 
L 400.568258 123.342049 
L 401.203142 123.583295 
L 401.838027 119.583684 
L 402.472911 124.778644 
L 403.107796 120.699222 
L 403.74268 110.49069 
L 404.377565 97.604867 
L 405.01245 104.064104 
L 405.647334 117.075084 
L 406.282219 104.713474 
L 406.917103 105.58051 
L 407.551988 109.277203 
L 408.186872 107.914977 
L 408.821757 93.868269 
L 409.456641 107.156774 
L 410.091526 85.343021 
L 410.72641 109.262691 
L 411.361295 121.083765 
L 411.996179 113.596057 
L 412.631064 118.528004 
L 413.265948 101.882003 
L 413.900833 101.852981 
L 414.535717 88.807536 
L 415.170602 108.197942 
L 415.805486 104.245492 
L 416.440371 117.971142 
L 417.075255 128.89253 
L 418.345024 89.28096 
L 418.979909 113.519874 
L 419.614793 88.782142 
L 420.249678 77.216826 
L 420.884562 124.268943 
L 421.519447 106.041236 
L 422.154331 103.74486 
L 422.789216 114.116642 
L 423.4241 99.124901 
L 424.058985 92.691059 
L 424.693869 102.651089 
L 425.328754 110.49069 
L 425.963638 102.836105 
L 426.598523 111.593531 
L 427.233408 98.925374 
L 427.868292 115.516959 
L 428.503177 110.699287 
L 429.138061 109.888481 
L 429.772946 111.669714 
L 430.40783 84.463287 
L 431.042715 106.316946 
L 431.677599 88.666054 
L 432.312484 97.699189 
L 432.947368 95.720243 
L 433.582253 107.737216 
L 434.217137 112.126812 
L 434.852022 106.291552 
L 435.486906 103.298645 
L 436.121791 105.337449 
L 436.756675 92.789009 
L 437.39156 101.098406 
L 438.026444 114.25631 
L 438.661329 99.859524 
L 439.296213 97.34911 
L 439.931098 102.701878 
L 440.565982 90.340267 
L 441.200867 115.045349 
L 441.835751 92.623946 
L 442.470636 101.09115 
L 443.10552 115.856155 
L 443.740405 106.940922 
L 444.375289 99.997379 
L 445.010174 102.047066 
L 445.645058 114.472163 
L 446.279943 98.6152 
L 446.914827 100.472616 
L 447.549712 121.038418 
L 448.184597 93.937197 
L 448.819481 108.274125 
L 449.454366 87.214947 
L 450.08925 86.634505 
L 450.724135 118.181553 
L 451.359019 118.888967 
L 451.993904 112.752602 
L 452.628788 112.928548 
L 453.263673 88.50099 
L 453.898557 103.917179 
L 454.533442 109.375152 
L 455.168326 89.446023 
L 455.803211 110.719239 
L 456.438095 86.541997 
L 457.07298 95.11622 
L 457.707864 95.179706 
L 458.342749 112.201181 
L 458.977633 103.759371 
L 459.612518 118.620512 
L 460.247402 102.765364 
L 460.882287 109.527518 
L 461.517171 102.388076 
L 462.152056 90.218737 
L 462.78694 108.288636 
L 463.421825 110.837142 
L 464.056709 100.180581 
L 464.691594 109.416871 
L 465.326478 99.719855 
L 465.961363 98.239726 
L 466.596247 82.384578 
L 467.231132 101.83847 
L 467.866016 89.106827 
L 468.500901 110.532409 
L 469.135785 95.950606 
L 469.77067 106.209927 
L 470.405555 95.245006 
L 471.040439 103.768441 
L 471.675324 73.418556 
L 472.310208 96.057626 
L 472.945093 113.327603 
L 473.579977 90.519842 
L 474.214862 104.981928 
L 474.849746 71.376124 
L 475.484631 103.857321 
L 476.119515 82.495225 
L 476.7544 99.669066 
L 477.389284 97.441618 
L 478.024169 91.138376 
L 478.659053 114.524765 
L 479.293938 101.261655 
L 479.928822 106.082955 
L 480.563707 90.4491 
L 481.198591 94.570242 
L 481.833476 101.345094 
L 482.46836 84.160369 
L 483.103245 107.788005 
L 483.738129 90.311245 
L 484.373014 94.737119 
L 485.007898 114.680759 
L 485.642783 108.366633 
L 486.277667 104.751565 
L 486.912552 87.374569 
L 487.547436 95.636805 
L 488.182321 105.569626 
L 488.817205 110.626731 
L 489.45209 94.087749 
L 490.086974 106.030353 
L 491.356744 73.37865 
L 491.991628 99.304476 
L 492.626513 70.848284 
L 493.261397 88.473782 
L 493.896282 88.129144 
L 494.531166 93.110066 
L 495.166051 87.135137 
L 495.800935 94.075052 
L 496.43582 96.833967 
L 497.070704 97.980341 
L 497.705589 80.414701 
L 498.340473 82.598616 
L 498.975358 104.499436 
L 499.610242 91.751468 
L 500.245127 118.473588 
L 500.880011 102.444306 
L 501.514896 109.041398 
L 502.14978 99.685391 
L 502.784665 98.248796 
L 503.419549 73.705149 
L 504.054434 101.671592 
L 504.689318 110.204097 
L 505.324203 110.615848 
L 505.959087 75.73307 
L 506.593972 98.528134 
L 507.228856 91.04224 
L 507.863741 59.638489 
L 508.498625 108.009299 
L 509.13351 77.115249 
L 509.768394 94.022449 
L 511.038163 113.848187 
L 511.673048 108.787454 
L 512.307933 92.698315 
L 512.942817 102.732714 
L 513.577702 92.478835 
L 514.212586 100.965992 
L 514.847471 98.232471 
L 515.482355 96.41496 
L 516.11724 76.367929 
L 516.752124 92.172289 
L 517.387009 103.942574 
L 518.021893 95.747452 
L 518.656778 95.589644 
L 519.291662 75.841903 
L 519.926547 88.270627 
L 520.561431 104.116706 
L 521.196316 89.279146 
L 521.8312 93.36401 
L 522.466085 90.556119 
L 523.100969 71.087717 
L 523.735854 88.794839 
L 524.370738 81.816833 
L 525.005623 109.128464 
L 525.640507 108.078226 
L 526.275392 110.456226 
L 526.910276 76.984649 
L 527.545161 89.542159 
L 528.180045 86.765105 
L 528.81493 78.666118 
L 529.449814 101.424904 
L 530.084699 105.279405 
L 530.719583 71.81327 
L 531.354468 80.012019 
L 531.989352 92.27568 
L 532.624237 101.823959 
L 533.259121 105.546046 
L 533.894006 99.141226 
L 534.528891 87.637582 
L 535.163775 47.518125 
L 535.79866 84.102325 
L 536.433544 103.481847 
L 537.068429 92.899656 
L 537.703313 87.483402 
L 538.973082 61.336283 
L 539.607967 93.977102 
L 540.242851 106.521915 
L 540.877736 97.753606 
L 541.51262 77.809966 
L 542.147505 82.792701 
L 542.782389 56.456939 
L 543.417274 94.528522 
L 544.052158 100.262206 
L 544.687043 110.314743 
L 545.321927 90.138926 
L 545.956812 53.964664 
L 546.591696 111.653389 
L 547.226581 83.890101 
L 547.861465 79.515015 
L 549.131234 88.923625 
L 549.766119 91.484827 
L 550.401003 87.612188 
L 551.035888 93.868269 
L 551.670772 85.25414 
L 552.305657 71.314452 
L 552.940541 90.969685 
L 553.575426 89.433326 
L 554.21031 105.26308 
L 554.845195 92.598551 
L 555.48008 89.09413 
L 556.114964 96.006837 
L 556.749849 96.177342 
L 557.384733 68.07123 
L 558.019618 84.105953 
L 558.654502 74.847895 
L 559.289387 107.358115 
L 559.924271 102.944938 
L 560.559156 66.656401 
L 561.19404 111.17271 
L 561.828925 121.745832 
L 562.463809 95.87261 
L 563.098694 83.233475 
L 563.733578 102.050694 
L 564.368463 96.953684 
L 565.003347 81.299876 
L 565.638232 94.310857 
L 566.273116 85.625986 
L 566.908001 97.916855 
L 567.542885 80.088202 
L 568.17777 90.817318 
L 568.812654 79.449716 
L 569.447539 73.219029 
L 570.717308 91.473944 
L 571.352192 80.403818 
L 571.987077 97.915041 
L 572.621961 96.565513 
L 573.256846 100.84809 
L 573.89173 62.134392 
L 574.526615 85.615103 
L 575.161499 68.785899 
L 575.796384 92.789009 
L 576.431268 78.733232 
L 577.066153 96.590907 
L 577.701038 85.335765 
L 578.335922 101.67522 
L 578.970807 84.033397 
L 579.605691 71.945683 
L 580.240576 98.25061 
L 580.87546 94.786094 
L 581.510345 99.266384 
L 582.145229 90.002885 
L 582.780114 84.742625 
L 582.780114 84.742625 
" clip-path="url(#p9fbf73d7c0)" style="fill: none; stroke: #ff7f0e; stroke-width: 1.5; stroke-linecap: square"/>
   </g>
   <g id="patch_3">
    <path d="M 50.14375 576.718125 
L 50.14375 22.318125 
" style="fill: none; stroke: #000000; stroke-width: 0.8; stroke-linejoin: miter; stroke-linecap: square"/>
   </g>
   <g id="patch_4">
    <path d="M 608.14375 576.718125 
L 608.14375 22.318125 
" style="fill: none; stroke: #000000; stroke-width: 0.8; stroke-linejoin: miter; stroke-linecap: square"/>
   </g>
   <g id="patch_5">
    <path d="M 50.14375 576.718125 
L 608.14375 576.718125 
" style="fill: none; stroke: #000000; stroke-width: 0.8; stroke-linejoin: miter; stroke-linecap: square"/>
   </g>
   <g id="patch_6">
    <path d="M 50.14375 22.318125 
L 608.14375 22.318125 
" style="fill: none; stroke: #000000; stroke-width: 0.8; stroke-linejoin: miter; stroke-linecap: square"/>
   </g>
   <g id="text_19">
    <!-- Train and Val Loss -->
    <g transform="translate(275.598437 16.318125) scale(0.12 -0.12)">
     <defs>
      <path id="DejaVuSans-54" d="M -19 4666 
L 3928 4666 
L 3928 4134 
L 2272 4134 
L 2272 0 
L 1638 0 
L 1638 4134 
L -19 4134 
L -19 4666 
z
" transform="scale(0.015625)"/>
      <path id="DejaVuSans-72" d="M 2631 2963 
Q 2534 3019 2420 3045 
Q 2306 3072 2169 3072 
Q 1681 3072 1420 2755 
Q 1159 2438 1159 1844 
L 1159 0 
L 581 0 
L 581 3500 
L 1159 3500 
L 1159 2956 
Q 1341 3275 1631 3429 
Q 1922 3584 2338 3584 
Q 2397 3584 2469 3576 
Q 2541 3569 2628 3553 
L 2631 2963 
z
" transform="scale(0.015625)"/>
      <path id="DejaVuSans-61" d="M 2194 1759 
Q 1497 1759 1228 1600 
Q 959 1441 959 1056 
Q 959 750 1161 570 
Q 1363 391 1709 391 
Q 2188 391 2477 730 
Q 2766 1069 2766 1631 
L 2766 1759 
L 2194 1759 
z
M 3341 1997 
L 3341 0 
L 2766 0 
L 2766 531 
Q 2569 213 2275 61 
Q 1981 -91 1556 -91 
Q 1019 -91 701 211 
Q 384 513 384 1019 
Q 384 1609 779 1909 
Q 1175 2209 1959 2209 
L 2766 2209 
L 2766 2266 
Q 2766 2663 2505 2880 
Q 2244 3097 1772 3097 
Q 1472 3097 1187 3025 
Q 903 2953 641 2809 
L 641 3341 
Q 956 3463 1253 3523 
Q 1550 3584 1831 3584 
Q 2591 3584 2966 3190 
Q 3341 2797 3341 1997 
z
" transform="scale(0.015625)"/>
      <path id="DejaVuSans-69" d="M 603 3500 
L 1178 3500 
L 1178 0 
L 603 0 
L 603 3500 
z
M 603 4863 
L 1178 4863 
L 1178 4134 
L 603 4134 
L 603 4863 
z
" transform="scale(0.015625)"/>
      <path id="DejaVuSans-6e" d="M 3513 2113 
L 3513 0 
L 2938 0 
L 2938 2094 
Q 2938 2591 2744 2837 
Q 2550 3084 2163 3084 
Q 1697 3084 1428 2787 
Q 1159 2491 1159 1978 
L 1159 0 
L 581 0 
L 581 3500 
L 1159 3500 
L 1159 2956 
Q 1366 3272 1645 3428 
Q 1925 3584 2291 3584 
Q 2894 3584 3203 3211 
Q 3513 2838 3513 2113 
z
" transform="scale(0.015625)"/>
      <path id="DejaVuSans-20" transform="scale(0.015625)"/>
      <path id="DejaVuSans-64" d="M 2906 2969 
L 2906 4863 
L 3481 4863 
L 3481 0 
L 2906 0 
L 2906 525 
Q 2725 213 2448 61 
Q 2172 -91 1784 -91 
Q 1150 -91 751 415 
Q 353 922 353 1747 
Q 353 2572 751 3078 
Q 1150 3584 1784 3584 
Q 2172 3584 2448 3432 
Q 2725 3281 2906 2969 
z
M 947 1747 
Q 947 1113 1208 752 
Q 1469 391 1925 391 
Q 2381 391 2643 752 
Q 2906 1113 2906 1747 
Q 2906 2381 2643 2742 
Q 2381 3103 1925 3103 
Q 1469 3103 1208 2742 
Q 947 2381 947 1747 
z
" transform="scale(0.015625)"/>
      <path id="DejaVuSans-56" d="M 1831 0 
L 50 4666 
L 709 4666 
L 2188 738 
L 3669 4666 
L 4325 4666 
L 2547 0 
L 1831 0 
z
" transform="scale(0.015625)"/>
      <path id="DejaVuSans-6c" d="M 603 4863 
L 1178 4863 
L 1178 0 
L 603 0 
L 603 4863 
z
" transform="scale(0.015625)"/>
     </defs>
     <use xlink:href="#DejaVuSans-54"/>
     <use xlink:href="#DejaVuSans-72" transform="translate(46.333984 0)"/>
     <use xlink:href="#DejaVuSans-61" transform="translate(87.447266 0)"/>
     <use xlink:href="#DejaVuSans-69" transform="translate(148.726562 0)"/>
     <use xlink:href="#DejaVuSans-6e" transform="translate(176.509766 0)"/>
     <use xlink:href="#DejaVuSans-20" transform="translate(239.888672 0)"/>
     <use xlink:href="#DejaVuSans-61" transform="translate(271.675781 0)"/>
     <use xlink:href="#DejaVuSans-6e" transform="translate(332.955078 0)"/>
     <use xlink:href="#DejaVuSans-64" transform="translate(396.333984 0)"/>
     <use xlink:href="#DejaVuSans-20" transform="translate(459.810547 0)"/>
     <use xlink:href="#DejaVuSans-56" transform="translate(491.597656 0)"/>
     <use xlink:href="#DejaVuSans-61" transform="translate(552.255859 0)"/>
     <use xlink:href="#DejaVuSans-6c" transform="translate(613.535156 0)"/>
     <use xlink:href="#DejaVuSans-20" transform="translate(641.318359 0)"/>
     <use xlink:href="#DejaVuSans-4c" transform="translate(673.105469 0)"/>
     <use xlink:href="#DejaVuSans-6f" transform="translate(727.068359 0)"/>
     <use xlink:href="#DejaVuSans-73" transform="translate(788.25 0)"/>
     <use xlink:href="#DejaVuSans-73" transform="translate(840.349609 0)"/>
    </g>
   </g>
   <g id="legend_1">
    <g id="patch_7">
     <path d="M 57.14375 60.230625 
L 136.734375 60.230625 
Q 138.734375 60.230625 138.734375 58.230625 
L 138.734375 29.318125 
Q 138.734375 27.318125 136.734375 27.318125 
L 57.14375 27.318125 
Q 55.14375 27.318125 55.14375 29.318125 
L 55.14375 58.230625 
Q 55.14375 60.230625 57.14375 60.230625 
z
" style="fill: #ffffff; opacity: 0.8; stroke: #cccccc; stroke-linejoin: miter"/>
    </g>
    <g id="line2d_35">
     <path d="M 59.14375 35.416563 
L 69.14375 35.416563 
L 79.14375 35.416563 
" style="fill: none; stroke: #1f77b4; stroke-width: 1.5; stroke-linecap: square"/>
    </g>
    <g id="text_20">
     <!-- train_loss -->
     <g transform="translate(87.14375 38.916563) scale(0.1 -0.1)">
      <defs>
       <path id="DejaVuSans-74" d="M 1172 4494 
L 1172 3500 
L 2356 3500 
L 2356 3053 
L 1172 3053 
L 1172 1153 
Q 1172 725 1289 603 
Q 1406 481 1766 481 
L 2356 481 
L 2356 0 
L 1766 0 
Q 1100 0 847 248 
Q 594 497 594 1153 
L 594 3053 
L 172 3053 
L 172 3500 
L 594 3500 
L 594 4494 
L 1172 4494 
z
" transform="scale(0.015625)"/>
       <path id="DejaVuSans-5f" d="M 3263 -1063 
L 3263 -1509 
L -63 -1509 
L -63 -1063 
L 3263 -1063 
z
" transform="scale(0.015625)"/>
      </defs>
      <use xlink:href="#DejaVuSans-74"/>
      <use xlink:href="#DejaVuSans-72" transform="translate(39.208984 0)"/>
      <use xlink:href="#DejaVuSans-61" transform="translate(80.322266 0)"/>
      <use xlink:href="#DejaVuSans-69" transform="translate(141.601562 0)"/>
      <use xlink:href="#DejaVuSans-6e" transform="translate(169.384766 0)"/>
      <use xlink:href="#DejaVuSans-5f" transform="translate(232.763672 0)"/>
      <use xlink:href="#DejaVuSans-6c" transform="translate(282.763672 0)"/>
      <use xlink:href="#DejaVuSans-6f" transform="translate(310.546875 0)"/>
      <use xlink:href="#DejaVuSans-73" transform="translate(371.728516 0)"/>
      <use xlink:href="#DejaVuSans-73" transform="translate(423.828125 0)"/>
     </g>
    </g>
    <g id="line2d_36">
     <path d="M 59.14375 50.372813 
L 69.14375 50.372813 
L 79.14375 50.372813 
" style="fill: none; stroke: #ff7f0e; stroke-width: 1.5; stroke-linecap: square"/>
    </g>
    <g id="text_21">
     <!-- val_loss -->
     <g transform="translate(87.14375 53.872813) scale(0.1 -0.1)">
      <defs>
       <path id="DejaVuSans-76" d="M 191 3500 
L 800 3500 
L 1894 563 
L 2988 3500 
L 3597 3500 
L 2284 0 
L 1503 0 
L 191 3500 
z
" transform="scale(0.015625)"/>
      </defs>
      <use xlink:href="#DejaVuSans-76"/>
      <use xlink:href="#DejaVuSans-61" transform="translate(59.179688 0)"/>
      <use xlink:href="#DejaVuSans-6c" transform="translate(120.458984 0)"/>
      <use xlink:href="#DejaVuSans-5f" transform="translate(148.242188 0)"/>
      <use xlink:href="#DejaVuSans-6c" transform="translate(198.242188 0)"/>
      <use xlink:href="#DejaVuSans-6f" transform="translate(226.025391 0)"/>
      <use xlink:href="#DejaVuSans-73" transform="translate(287.207031 0)"/>
      <use xlink:href="#DejaVuSans-73" transform="translate(339.306641 0)"/>
     </g>
    </g>
   </g>
  </g>
 </g>
 <defs>
  <clipPath id="p9fbf73d7c0">
   <rect x="50.14375" y="22.318125" width="558" height="554.4"/>
  </clipPath>
 </defs>
</svg>
