<?xml version="1.0" encoding="utf-8" standalone="no"?>
<!DOCTYPE svg PUBLIC "-//W3C//DTD SVG 1.1//EN"
  "http://www.w3.org/Graphics/SVG/1.1/DTD/svg11.dtd">
<svg xmlns:xlink="http://www.w3.org/1999/xlink" width="615.34375pt" height="614.274375pt" viewBox="0 0 615.34375 614.274375" xmlns="http://www.w3.org/2000/svg" version="1.1">
 <metadata>
  <rdf:RDF xmlns:dc="http://purl.org/dc/elements/1.1/" xmlns:cc="http://creativecommons.org/ns#" xmlns:rdf="http://www.w3.org/1999/02/22-rdf-syntax-ns#">
   <cc:Work>
    <dc:type rdf:resource="http://purl.org/dc/dcmitype/StillImage"/>
    <dc:date>2026-05-23T12:36:12.372888</dc:date>
    <dc:format>image/svg+xml</dc:format>
    <dc:creator>
     <cc:Agent>
      <dc:title>Matplotlib v3.10.9, https://matplotlib.org/</dc:title>
     </cc:Agent>
    </dc:creator>
   </cc:Work>
  </rdf:RDF>
 </metadata>
 <defs>
  <style type="text/css">*{stroke-linejoin: round; stroke-linecap: butt}</style>
 </defs>
 <g id="figure_1">
  <g id="patch_1">
   <path d="M 0 614.274375 
L 615.34375 614.274375 
L 615.34375 0 
L 0 0 
z
" style="fill: #ffffff"/>
  </g>
  <g id="axes_1">
   <g id="patch_2">
    <path d="M 50.14375 576.718125 
L 608.14375 576.718125 
L 608.14375 22.318125 
L 50.14375 22.318125 
z
" style="fill: #ffffff"/>
   </g>
   <g id="matplotlib.axis_1">
    <g id="xtick_1">
     <g id="line2d_1">
      <path d="M 75.507386 576.718125 
L 75.507386 22.318125 
" clip-path="url(#pd6ad4c8b76)" style="fill: none; stroke: #b0b0b0; stroke-width: 0.8; stroke-linecap: square"/>
     </g>
     <g id="line2d_2">
      <defs>
       <path id="mc42559a1c1" d="M 0 0 
L 0 3.5 
" style="stroke: #000000; stroke-width: 0.8"/>
      </defs>
      <g>
       <use xlink:href="#mc42559a1c1" x="75.507386" y="576.718125" style="stroke: #000000; stroke-width: 0.8"/>
      </g>
     </g>
     <g id="text_1">
      <!-- 0 -->
      <g transform="translate(72.326136 591.316563) scale(0.1 -0.1)">
       <defs>
        <path id="DejaVuSans-30" d="M 2034 4250 
Q 1547 4250 1301 3770 
Q 1056 3291 1056 2328 
Q 1056 1369 1301 889 
Q 1547 409 2034 409 
Q 2525 409 2770 889 
Q 3016 1369 3016 2328 
Q 3016 3291 2770 3770 
Q 2525 4250 2034 4250 
z
M 2034 4750 
Q 2819 4750 3233 4129 
Q 3647 3509 3647 2328 
Q 3647 1150 3233 529 
Q 2819 -91 2034 -91 
Q 1250 -91 836 529 
Q 422 1150 422 2328 
Q 422 3509 836 4129 
Q 1250 4750 2034 4750 
z
" transform="scale(0.015625)"/>
       </defs>
       <use xlink:href="#DejaVuSans-30"/>
      </g>
     </g>
    </g>
    <g id="xtick_2">
     <g id="line2d_3">
      <path d="M 138.995838 576.718125 
L 138.995838 22.318125 
" clip-path="url(#pd6ad4c8b76)" style="fill: none; stroke: #b0b0b0; stroke-width: 0.8; stroke-linecap: square"/>
     </g>
     <g id="line2d_4">
      <g>
       <use xlink:href="#mc42559a1c1" x="138.995838" y="576.718125" style="stroke: #000000; stroke-width: 0.8"/>
      </g>
     </g>
     <g id="text_2">
      <!-- 100 -->
      <g transform="translate(129.452088 591.316563) scale(0.1 -0.1)">
       <defs>
        <path id="DejaVuSans-31" d="M 794 531 
L 1825 531 
L 1825 4091 
L 703 3866 
L 703 4441 
L 1819 4666 
L 2450 4666 
L 2450 531 
L 3481 531 
L 3481 0 
L 794 0 
L 794 531 
z
" transform="scale(0.015625)"/>
       </defs>
       <use xlink:href="#DejaVuSans-31"/>
       <use xlink:href="#DejaVuSans-30" transform="translate(63.623047 0)"/>
       <use xlink:href="#DejaVuSans-30" transform="translate(127.246094 0)"/>
      </g>
     </g>
    </g>
    <g id="xtick_3">
     <g id="line2d_5">
      <path d="M 202.484289 576.718125 
L 202.484289 22.318125 
" clip-path="url(#pd6ad4c8b76)" style="fill: none; stroke: #b0b0b0; stroke-width: 0.8; stroke-linecap: square"/>
     </g>
     <g id="line2d_6">
      <g>
       <use xlink:href="#mc42559a1c1" x="202.484289" y="576.718125" style="stroke: #000000; stroke-width: 0.8"/>
      </g>
     </g>
     <g id="text_3">
      <!-- 200 -->
      <g transform="translate(192.940539 591.316563) scale(0.1 -0.1)">
       <defs>
        <path id="DejaVuSans-32" d="M 1228 531 
L 3431 531 
L 3431 0 
L 469 0 
L 469 531 
Q 828 903 1448 1529 
Q 2069 2156 2228 2338 
Q 2531 2678 2651 2914 
Q 2772 3150 2772 3378 
Q 2772 3750 2511 3984 
Q 2250 4219 1831 4219 
Q 1534 4219 1204 4116 
Q 875 4013 500 3803 
L 500 4441 
Q 881 4594 1212 4672 
Q 1544 4750 1819 4750 
Q 2544 4750 2975 4387 
Q 3406 4025 3406 3419 
Q 3406 3131 3298 2873 
Q 3191 2616 2906 2266 
Q 2828 2175 2409 1742 
Q 1991 1309 1228 531 
z
" transform="scale(0.015625)"/>
       </defs>
       <use xlink:href="#DejaVuSans-32"/>
       <use xlink:href="#DejaVuSans-30" transform="translate(63.623047 0)"/>
       <use xlink:href="#DejaVuSans-30" transform="translate(127.246094 0)"/>
      </g>
     </g>
    </g>
    <g id="xtick_4">
     <g id="line2d_7">
      <path d="M 265.972741 576.718125 
L 265.972741 22.318125 
" clip-path="url(#pd6ad4c8b76)" style="fill: none; stroke: #b0b0b0; stroke-width: 0.8; stroke-linecap: square"/>
     </g>
     <g id="line2d_8">
      <g>
       <use xlink:href="#mc42559a1c1" x="265.972741" y="576.718125" style="stroke: #000000; stroke-width: 0.8"/>
      </g>
     </g>
     <g id="text_4">
      <!-- 300 -->
      <g transform="translate(256.428991 591.316563) scale(0.1 -0.1)">
       <defs>
        <path id="DejaVuSans-33" d="M 2597 2516 
Q 3050 2419 3304 2112 
Q 3559 1806 3559 1356 
Q 3559 666 3084 287 
Q 2609 -91 1734 -91 
Q 1441 -91 1130 -33 
Q 819 25 488 141 
L 488 750 
Q 750 597 1062 519 
Q 1375 441 1716 441 
Q 2309 441 2620 675 
Q 2931 909 2931 1356 
Q 2931 1769 2642 2001 
Q 2353 2234 1838 2234 
L 1294 2234 
L 1294 2753 
L 1863 2753 
Q 2328 2753 2575 2939 
Q 2822 3125 2822 3475 
Q 2822 3834 2567 4026 
Q 2313 4219 1838 4219 
Q 1578 4219 1281 4162 
Q 984 4106 628 3988 
L 628 4550 
Q 988 4650 1302 4700 
Q 1616 4750 1894 4750 
Q 2613 4750 3031 4423 
Q 3450 4097 3450 3541 
Q 3450 3153 3228 2886 
Q 3006 2619 2597 2516 
z
" transform="scale(0.015625)"/>
       </defs>
       <use xlink:href="#DejaVuSans-33"/>
       <use xlink:href="#DejaVuSans-30" transform="translate(63.623047 0)"/>
       <use xlink:href="#DejaVuSans-30" transform="translate(127.246094 0)"/>
      </g>
     </g>
    </g>
    <g id="xtick_5">
     <g id="line2d_9">
      <path d="M 329.461192 576.718125 
L 329.461192 22.318125 
" clip-path="url(#pd6ad4c8b76)" style="fill: none; stroke: #b0b0b0; stroke-width: 0.8; stroke-linecap: square"/>
     </g>
     <g id="line2d_10">
      <g>
       <use xlink:href="#mc42559a1c1" x="329.461192" y="576.718125" style="stroke: #000000; stroke-width: 0.8"/>
      </g>
     </g>
     <g id="text_5">
      <!-- 400 -->
      <g transform="translate(319.917442 591.316563) scale(0.1 -0.1)">
       <defs>
        <path id="DejaVuSans-34" d="M 2419 4116 
L 825 1625 
L 2419 1625 
L 2419 4116 
z
M 2253 4666 
L 3047 4666 
L 3047 1625 
L 3713 1625 
L 3713 1100 
L 3047 1100 
L 3047 0 
L 2419 0 
L 2419 1100 
L 313 1100 
L 313 1709 
L 2253 4666 
z
" transform="scale(0.015625)"/>
       </defs>
       <use xlink:href="#DejaVuSans-34"/>
       <use xlink:href="#DejaVuSans-30" transform="translate(63.623047 0)"/>
       <use xlink:href="#DejaVuSans-30" transform="translate(127.246094 0)"/>
      </g>
     </g>
    </g>
    <g id="xtick_6">
     <g id="line2d_11">
      <path d="M 392.949644 576.718125 
L 392.949644 22.318125 
" clip-path="url(#pd6ad4c8b76)" style="fill: none; stroke: #b0b0b0; stroke-width: 0.8; stroke-linecap: square"/>
     </g>
     <g id="line2d_12">
      <g>
       <use xlink:href="#mc42559a1c1" x="392.949644" y="576.718125" style="stroke: #000000; stroke-width: 0.8"/>
      </g>
     </g>
     <g id="text_6">
      <!-- 500 -->
      <g transform="translate(383.405894 591.316563) scale(0.1 -0.1)">
       <defs>
        <path id="DejaVuSans-35" d="M 691 4666 
L 3169 4666 
L 3169 4134 
L 1269 4134 
L 1269 2991 
Q 1406 3038 1543 3061 
Q 1681 3084 1819 3084 
Q 2600 3084 3056 2656 
Q 3513 2228 3513 1497 
Q 3513 744 3044 326 
Q 2575 -91 1722 -91 
Q 1428 -91 1123 -41 
Q 819 9 494 109 
L 494 744 
Q 775 591 1075 516 
Q 1375 441 1709 441 
Q 2250 441 2565 725 
Q 2881 1009 2881 1497 
Q 2881 1984 2565 2268 
Q 2250 2553 1709 2553 
Q 1456 2553 1204 2497 
Q 953 2441 691 2322 
L 691 4666 
z
" transform="scale(0.015625)"/>
       </defs>
       <use xlink:href="#DejaVuSans-35"/>
       <use xlink:href="#DejaVuSans-30" transform="translate(63.623047 0)"/>
       <use xlink:href="#DejaVuSans-30" transform="translate(127.246094 0)"/>
      </g>
     </g>
    </g>
    <g id="xtick_7">
     <g id="line2d_13">
      <path d="M 456.438095 576.718125 
L 456.438095 22.318125 
" clip-path="url(#pd6ad4c8b76)" style="fill: none; stroke: #b0b0b0; stroke-width: 0.8; stroke-linecap: square"/>
     </g>
     <g id="line2d_14">
      <g>
       <use xlink:href="#mc42559a1c1" x="456.438095" y="576.718125" style="stroke: #000000; stroke-width: 0.8"/>
      </g>
     </g>
     <g id="text_7">
      <!-- 600 -->
      <g transform="translate(446.894345 591.316563) scale(0.1 -0.1)">
       <defs>
        <path id="DejaVuSans-36" d="M 2113 2584 
Q 1688 2584 1439 2293 
Q 1191 2003 1191 1497 
Q 1191 994 1439 701 
Q 1688 409 2113 409 
Q 2538 409 2786 701 
Q 3034 994 3034 1497 
Q 3034 2003 2786 2293 
Q 2538 2584 2113 2584 
z
M 3366 4563 
L 3366 3988 
Q 3128 4100 2886 4159 
Q 2644 4219 2406 4219 
Q 1781 4219 1451 3797 
Q 1122 3375 1075 2522 
Q 1259 2794 1537 2939 
Q 1816 3084 2150 3084 
Q 2853 3084 3261 2657 
Q 3669 2231 3669 1497 
Q 3669 778 3244 343 
Q 2819 -91 2113 -91 
Q 1303 -91 875 529 
Q 447 1150 447 2328 
Q 447 3434 972 4092 
Q 1497 4750 2381 4750 
Q 2619 4750 2861 4703 
Q 3103 4656 3366 4563 
z
" transform="scale(0.015625)"/>
       </defs>
       <use xlink:href="#DejaVuSans-36"/>
       <use xlink:href="#DejaVuSans-30" transform="translate(63.623047 0)"/>
       <use xlink:href="#DejaVuSans-30" transform="translate(127.246094 0)"/>
      </g>
     </g>
    </g>
    <g id="xtick_8">
     <g id="line2d_15">
      <path d="M 519.926547 576.718125 
L 519.926547 22.318125 
" clip-path="url(#pd6ad4c8b76)" style="fill: none; stroke: #b0b0b0; stroke-width: 0.8; stroke-linecap: square"/>
     </g>
     <g id="line2d_16">
      <g>
       <use xlink:href="#mc42559a1c1" x="519.926547" y="576.718125" style="stroke: #000000; stroke-width: 0.8"/>
      </g>
     </g>
     <g id="text_8">
      <!-- 700 -->
      <g transform="translate(510.382797 591.316563) scale(0.1 -0.1)">
       <defs>
        <path id="DejaVuSans-37" d="M 525 4666 
L 3525 4666 
L 3525 4397 
L 1831 0 
L 1172 0 
L 2766 4134 
L 525 4134 
L 525 4666 
z
" transform="scale(0.015625)"/>
       </defs>
       <use xlink:href="#DejaVuSans-37"/>
       <use xlink:href="#DejaVuSans-30" transform="translate(63.623047 0)"/>
       <use xlink:href="#DejaVuSans-30" transform="translate(127.246094 0)"/>
      </g>
     </g>
    </g>
    <g id="xtick_9">
     <g id="line2d_17">
      <path d="M 583.414998 576.718125 
L 583.414998 22.318125 
" clip-path="url(#pd6ad4c8b76)" style="fill: none; stroke: #b0b0b0; stroke-width: 0.8; stroke-linecap: square"/>
     </g>
     <g id="line2d_18">
      <g>
       <use xlink:href="#mc42559a1c1" x="583.414998" y="576.718125" style="stroke: #000000; stroke-width: 0.8"/>
      </g>
     </g>
     <g id="text_9">
      <!-- 800 -->
      <g transform="translate(573.871248 591.316563) scale(0.1 -0.1)">
       <defs>
        <path id="DejaVuSans-38" d="M 2034 2216 
Q 1584 2216 1326 1975 
Q 1069 1734 1069 1313 
Q 1069 891 1326 650 
Q 1584 409 2034 409 
Q 2484 409 2743 651 
Q 3003 894 3003 1313 
Q 3003 1734 2745 1975 
Q 2488 2216 2034 2216 
z
M 1403 2484 
Q 997 2584 770 2862 
Q 544 3141 544 3541 
Q 544 4100 942 4425 
Q 1341 4750 2034 4750 
Q 2731 4750 3128 4425 
Q 3525 4100 3525 3541 
Q 3525 3141 3298 2862 
Q 3072 2584 2669 2484 
Q 3125 2378 3379 2068 
Q 3634 1759 3634 1313 
Q 3634 634 3220 271 
Q 2806 -91 2034 -91 
Q 1263 -91 848 271 
Q 434 634 434 1313 
Q 434 1759 690 2068 
Q 947 2378 1403 2484 
z
M 1172 3481 
Q 1172 3119 1398 2916 
Q 1625 2713 2034 2713 
Q 2441 2713 2670 2916 
Q 2900 3119 2900 3481 
Q 2900 3844 2670 4047 
Q 2441 4250 2034 4250 
Q 1625 4250 1398 4047 
Q 1172 3844 1172 3481 
z
" transform="scale(0.015625)"/>
       </defs>
       <use xlink:href="#DejaVuSans-38"/>
       <use xlink:href="#DejaVuSans-30" transform="translate(63.623047 0)"/>
       <use xlink:href="#DejaVuSans-30" transform="translate(127.246094 0)"/>
      </g>
     </g>
    </g>
    <g id="text_10">
     <!-- Epochs -->
     <g transform="translate(311.228125 604.994688) scale(0.1 -0.1)">
      <defs>
       <path id="DejaVuSans-45" d="M 628 4666 
L 3578 4666 
L 3578 4134 
L 1259 4134 
L 1259 2753 
L 3481 2753 
L 3481 2222 
L 1259 2222 
L 1259 531 
L 3634 531 
L 3634 0 
L 628 0 
L 628 4666 
z
" transform="scale(0.015625)"/>
       <path id="DejaVuSans-70" d="M 1159 525 
L 1159 -1331 
L 581 -1331 
L 581 3500 
L 1159 3500 
L 1159 2969 
Q 1341 3281 1617 3432 
Q 1894 3584 2278 3584 
Q 2916 3584 3314 3078 
Q 3713 2572 3713 1747 
Q 3713 922 3314 415 
Q 2916 -91 2278 -91 
Q 1894 -91 1617 61 
Q 1341 213 1159 525 
z
M 3116 1747 
Q 3116 2381 2855 2742 
Q 2594 3103 2138 3103 
Q 1681 3103 1420 2742 
Q 1159 2381 1159 1747 
Q 1159 1113 1420 752 
Q 1681 391 2138 391 
Q 2594 391 2855 752 
Q 3116 1113 3116 1747 
z
" transform="scale(0.015625)"/>
       <path id="DejaVuSans-6f" d="M 1959 3097 
Q 1497 3097 1228 2736 
Q 959 2375 959 1747 
Q 959 1119 1226 758 
Q 1494 397 1959 397 
Q 2419 397 2687 759 
Q 2956 1122 2956 1747 
Q 2956 2369 2687 2733 
Q 2419 3097 1959 3097 
z
M 1959 3584 
Q 2709 3584 3137 3096 
Q 3566 2609 3566 1747 
Q 3566 888 3137 398 
Q 2709 -91 1959 -91 
Q 1206 -91 779 398 
Q 353 888 353 1747 
Q 353 2609 779 3096 
Q 1206 3584 1959 3584 
z
" transform="scale(0.015625)"/>
       <path id="DejaVuSans-63" d="M 3122 3366 
L 3122 2828 
Q 2878 2963 2633 3030 
Q 2388 3097 2138 3097 
Q 1578 3097 1268 2742 
Q 959 2388 959 1747 
Q 959 1106 1268 751 
Q 1578 397 2138 397 
Q 2388 397 2633 464 
Q 2878 531 3122 666 
L 3122 134 
Q 2881 22 2623 -34 
Q 2366 -91 2075 -91 
Q 1284 -91 818 406 
Q 353 903 353 1747 
Q 353 2603 823 3093 
Q 1294 3584 2113 3584 
Q 2378 3584 2631 3529 
Q 2884 3475 3122 3366 
z
" transform="scale(0.015625)"/>
       <path id="DejaVuSans-68" d="M 3513 2113 
L 3513 0 
L 2938 0 
L 2938 2094 
Q 2938 2591 2744 2837 
Q 2550 3084 2163 3084 
Q 1697 3084 1428 2787 
Q 1159 2491 1159 1978 
L 1159 0 
L 581 0 
L 581 4863 
L 1159 4863 
L 1159 2956 
Q 1366 3272 1645 3428 
Q 1925 3584 2291 3584 
Q 2894 3584 3203 3211 
Q 3513 2838 3513 2113 
z
" transform="scale(0.015625)"/>
       <path id="DejaVuSans-73" d="M 2834 3397 
L 2834 2853 
Q 2591 2978 2328 3040 
Q 2066 3103 1784 3103 
Q 1356 3103 1142 2972 
Q 928 2841 928 2578 
Q 928 2378 1081 2264 
Q 1234 2150 1697 2047 
L 1894 2003 
Q 2506 1872 2764 1633 
Q 3022 1394 3022 966 
Q 3022 478 2636 193 
Q 2250 -91 1575 -91 
Q 1294 -91 989 -36 
Q 684 19 347 128 
L 347 722 
Q 666 556 975 473 
Q 1284 391 1588 391 
Q 1994 391 2212 530 
Q 2431 669 2431 922 
Q 2431 1156 2273 1281 
Q 2116 1406 1581 1522 
L 1381 1569 
Q 847 1681 609 1914 
Q 372 2147 372 2553 
Q 372 3047 722 3315 
Q 1072 3584 1716 3584 
Q 2034 3584 2315 3537 
Q 2597 3491 2834 3397 
z
" transform="scale(0.015625)"/>
      </defs>
      <use xlink:href="#DejaVuSans-45"/>
      <use xlink:href="#DejaVuSans-70" transform="translate(63.183594 0)"/>
      <use xlink:href="#DejaVuSans-6f" transform="translate(126.660156 0)"/>
      <use xlink:href="#DejaVuSans-63" transform="translate(187.841797 0)"/>
      <use xlink:href="#DejaVuSans-68" transform="translate(242.822266 0)"/>
      <use xlink:href="#DejaVuSans-73" transform="translate(306.201172 0)"/>
     </g>
    </g>
   </g>
   <g id="matplotlib.axis_2">
    <g id="ytick_1">
     <g id="line2d_19">
      <path d="M 50.14375 557.223688 
L 608.14375 557.223688 
" clip-path="url(#pd6ad4c8b76)" style="fill: none; stroke: #b0b0b0; stroke-width: 0.8; stroke-linecap: square"/>
     </g>
     <g id="line2d_20">
      <defs>
       <path id="m6b3e036bff" d="M 0 0 
L -3.5 0 
" style="stroke: #000000; stroke-width: 0.8"/>
      </defs>
      <g>
       <use xlink:href="#m6b3e036bff" x="50.14375" y="557.223688" style="stroke: #000000; stroke-width: 0.8"/>
      </g>
     </g>
     <g id="text_11">
      <!-- 0.00 -->
      <g transform="translate(20.878125 561.022907) scale(0.1 -0.1)">
       <defs>
        <path id="DejaVuSans-2e" d="M 684 794 
L 1344 794 
L 1344 0 
L 684 0 
L 684 794 
z
" transform="scale(0.015625)"/>
       </defs>
       <use xlink:href="#DejaVuSans-30"/>
       <use xlink:href="#DejaVuSans-2e" transform="translate(63.623047 0)"/>
       <use xlink:href="#DejaVuSans-30" transform="translate(95.410156 0)"/>
       <use xlink:href="#DejaVuSans-30" transform="translate(159.033203 0)"/>
      </g>
     </g>
    </g>
    <g id="ytick_2">
     <g id="line2d_21">
      <path d="M 50.14375 480.121483 
L 608.14375 480.121483 
" clip-path="url(#pd6ad4c8b76)" style="fill: none; stroke: #b0b0b0; stroke-width: 0.8; stroke-linecap: square"/>
     </g>
     <g id="line2d_22">
      <g>
       <use xlink:href="#m6b3e036bff" x="50.14375" y="480.121483" style="stroke: #000000; stroke-width: 0.8"/>
      </g>
     </g>
     <g id="text_12">
      <!-- 0.05 -->
      <g transform="translate(20.878125 483.920701) scale(0.1 -0.1)">
       <use xlink:href="#DejaVuSans-30"/>
       <use xlink:href="#DejaVuSans-2e" transform="translate(63.623047 0)"/>
       <use xlink:href="#DejaVuSans-30" transform="translate(95.410156 0)"/>
       <use xlink:href="#DejaVuSans-35" transform="translate(159.033203 0)"/>
      </g>
     </g>
    </g>
    <g id="ytick_3">
     <g id="line2d_23">
      <path d="M 50.14375 403.019277 
L 608.14375 403.019277 
" clip-path="url(#pd6ad4c8b76)" style="fill: none; stroke: #b0b0b0; stroke-width: 0.8; stroke-linecap: square"/>
     </g>
     <g id="line2d_24">
      <g>
       <use xlink:href="#m6b3e036bff" x="50.14375" y="403.019277" style="stroke: #000000; stroke-width: 0.8"/>
      </g>
     </g>
     <g id="text_13">
      <!-- 0.10 -->
      <g transform="translate(20.878125 406.818496) scale(0.1 -0.1)">
       <use xlink:href="#DejaVuSans-30"/>
       <use xlink:href="#DejaVuSans-2e" transform="translate(63.623047 0)"/>
       <use xlink:href="#DejaVuSans-31" transform="translate(95.410156 0)"/>
       <use xlink:href="#DejaVuSans-30" transform="translate(159.033203 0)"/>
      </g>
     </g>
    </g>
    <g id="ytick_4">
     <g id="line2d_25">
      <path d="M 50.14375 325.917071 
L 608.14375 325.917071 
" clip-path="url(#pd6ad4c8b76)" style="fill: none; stroke: #b0b0b0; stroke-width: 0.8; stroke-linecap: square"/>
     </g>
     <g id="line2d_26">
      <g>
       <use xlink:href="#m6b3e036bff" x="50.14375" y="325.917071" style="stroke: #000000; stroke-width: 0.8"/>
      </g>
     </g>
     <g id="text_14">
      <!-- 0.15 -->
      <g transform="translate(20.878125 329.71629) scale(0.1 -0.1)">
       <use xlink:href="#DejaVuSans-30"/>
       <use xlink:href="#DejaVuSans-2e" transform="translate(63.623047 0)"/>
       <use xlink:href="#DejaVuSans-31" transform="translate(95.410156 0)"/>
       <use xlink:href="#DejaVuSans-35" transform="translate(159.033203 0)"/>
      </g>
     </g>
    </g>
    <g id="ytick_5">
     <g id="line2d_27">
      <path d="M 50.14375 248.814865 
L 608.14375 248.814865 
" clip-path="url(#pd6ad4c8b76)" style="fill: none; stroke: #b0b0b0; stroke-width: 0.8; stroke-linecap: square"/>
     </g>
     <g id="line2d_28">
      <g>
       <use xlink:href="#m6b3e036bff" x="50.14375" y="248.814865" style="stroke: #000000; stroke-width: 0.8"/>
      </g>
     </g>
     <g id="text_15">
      <!-- 0.20 -->
      <g transform="translate(20.878125 252.614084) scale(0.1 -0.1)">
       <use xlink:href="#DejaVuSans-30"/>
       <use xlink:href="#DejaVuSans-2e" transform="translate(63.623047 0)"/>
       <use xlink:href="#DejaVuSans-32" transform="translate(95.410156 0)"/>
       <use xlink:href="#DejaVuSans-30" transform="translate(159.033203 0)"/>
      </g>
     </g>
    </g>
    <g id="ytick_6">
     <g id="line2d_29">
      <path d="M 50.14375 171.71266 
L 608.14375 171.71266 
" clip-path="url(#pd6ad4c8b76)" style="fill: none; stroke: #b0b0b0; stroke-width: 0.8; stroke-linecap: square"/>
     </g>
     <g id="line2d_30">
      <g>
       <use xlink:href="#m6b3e036bff" x="50.14375" y="171.71266" style="stroke: #000000; stroke-width: 0.8"/>
      </g>
     </g>
     <g id="text_16">
      <!-- 0.25 -->
      <g transform="translate(20.878125 175.511878) scale(0.1 -0.1)">
       <use xlink:href="#DejaVuSans-30"/>
       <use xlink:href="#DejaVuSans-2e" transform="translate(63.623047 0)"/>
       <use xlink:href="#DejaVuSans-32" transform="translate(95.410156 0)"/>
       <use xlink:href="#DejaVuSans-35" transform="translate(159.033203 0)"/>
      </g>
     </g>
    </g>
    <g id="ytick_7">
     <g id="line2d_31">
      <path d="M 50.14375 94.610454 
L 608.14375 94.610454 
" clip-path="url(#pd6ad4c8b76)" style="fill: none; stroke: #b0b0b0; stroke-width: 0.8; stroke-linecap: square"/>
     </g>
     <g id="line2d_32">
      <g>
       <use xlink:href="#m6b3e036bff" x="50.14375" y="94.610454" style="stroke: #000000; stroke-width: 0.8"/>
      </g>
     </g>
     <g id="text_17">
      <!-- 0.30 -->
      <g transform="translate(20.878125 98.409673) scale(0.1 -0.1)">
       <use xlink:href="#DejaVuSans-30"/>
       <use xlink:href="#DejaVuSans-2e" transform="translate(63.623047 0)"/>
       <use xlink:href="#DejaVuSans-33" transform="translate(95.410156 0)"/>
       <use xlink:href="#DejaVuSans-30" transform="translate(159.033203 0)"/>
      </g>
     </g>
    </g>
    <g id="text_18">
     <!-- Accuracy -->
     <g transform="translate(14.798437 322.34625) rotate(-90) scale(0.1 -0.1)">
      <defs>
       <path id="DejaVuSans-41" d="M 2188 4044 
L 1331 1722 
L 3047 1722 
L 2188 4044 
z
M 1831 4666 
L 2547 4666 
L 4325 0 
L 3669 0 
L 3244 1197 
L 1141 1197 
L 716 0 
L 50 0 
L 1831 4666 
z
" transform="scale(0.015625)"/>
       <path id="DejaVuSans-75" d="M 544 1381 
L 544 3500 
L 1119 3500 
L 1119 1403 
Q 1119 906 1312 657 
Q 1506 409 1894 409 
Q 2359 409 2629 706 
Q 2900 1003 2900 1516 
L 2900 3500 
L 3475 3500 
L 3475 0 
L 2900 0 
L 2900 538 
Q 2691 219 2414 64 
Q 2138 -91 1772 -91 
Q 1169 -91 856 284 
Q 544 659 544 1381 
z
M 1991 3584 
L 1991 3584 
z
" transform="scale(0.015625)"/>
       <path id="DejaVuSans-72" d="M 2631 2963 
Q 2534 3019 2420 3045 
Q 2306 3072 2169 3072 
Q 1681 3072 1420 2755 
Q 1159 2438 1159 1844 
L 1159 0 
L 581 0 
L 581 3500 
L 1159 3500 
L 1159 2956 
Q 1341 3275 1631 3429 
Q 1922 3584 2338 3584 
Q 2397 3584 2469 3576 
Q 2541 3569 2628 3553 
L 2631 2963 
z
" transform="scale(0.015625)"/>
       <path id="DejaVuSans-61" d="M 2194 1759 
Q 1497 1759 1228 1600 
Q 959 1441 959 1056 
Q 959 750 1161 570 
Q 1363 391 1709 391 
Q 2188 391 2477 730 
Q 2766 1069 2766 1631 
L 2766 1759 
L 2194 1759 
z
M 3341 1997 
L 3341 0 
L 2766 0 
L 2766 531 
Q 2569 213 2275 61 
Q 1981 -91 1556 -91 
Q 1019 -91 701 211 
Q 384 513 384 1019 
Q 384 1609 779 1909 
Q 1175 2209 1959 2209 
L 2766 2209 
L 2766 2266 
Q 2766 2663 2505 2880 
Q 2244 3097 1772 3097 
Q 1472 3097 1187 3025 
Q 903 2953 641 2809 
L 641 3341 
Q 956 3463 1253 3523 
Q 1550 3584 1831 3584 
Q 2591 3584 2966 3190 
Q 3341 2797 3341 1997 
z
" transform="scale(0.015625)"/>
       <path id="DejaVuSans-79" d="M 2059 -325 
Q 1816 -950 1584 -1140 
Q 1353 -1331 966 -1331 
L 506 -1331 
L 506 -850 
L 844 -850 
Q 1081 -850 1212 -737 
Q 1344 -625 1503 -206 
L 1606 56 
L 191 3500 
L 800 3500 
L 1894 763 
L 2988 3500 
L 3597 3500 
L 2059 -325 
z
" transform="scale(0.015625)"/>
      </defs>
      <use xlink:href="#DejaVuSans-41"/>
      <use xlink:href="#DejaVuSans-63" transform="translate(66.658203 0)"/>
      <use xlink:href="#DejaVuSans-63" transform="translate(121.638672 0)"/>
      <use xlink:href="#DejaVuSans-75" transform="translate(176.619141 0)"/>
      <use xlink:href="#DejaVuSans-72" transform="translate(239.998047 0)"/>
      <use xlink:href="#DejaVuSans-61" transform="translate(281.111328 0)"/>
      <use xlink:href="#DejaVuSans-63" transform="translate(342.390625 0)"/>
      <use xlink:href="#DejaVuSans-79" transform="translate(397.371094 0)"/>
     </g>
    </g>
   </g>
   <g id="line2d_33">
    <path d="M 75.507386 551.149748 
L 76.142271 550.447261 
L 77.41204 549.427798 
L 78.046924 548.3141 
L 79.316693 547.354606 
L 79.951578 546.575017 
L 80.586462 546.258041 
L 81.221347 545.62409 
L 81.856232 545.341381 
L 82.491116 544.493258 
L 83.126001 544.099179 
L 83.760885 543.456662 
L 85.665539 542.291561 
L 86.935308 541.340634 
L 87.570192 540.526777 
L 88.205077 540.329739 
L 88.839961 539.35311 
L 89.474846 538.710592 
L 90.10973 537.905302 
L 91.379499 537.399854 
L 92.014384 536.928675 
L 92.649268 536.063416 
L 93.284153 535.643638 
L 94.553922 533.870287 
L 95.188806 533.579012 
L 95.823691 533.056431 
L 96.458575 532.379644 
L 97.09346 532.011268 
L 97.728344 531.000372 
L 98.363229 530.597727 
L 98.998113 529.929508 
L 99.632998 528.850076 
L 100.267882 528.464564 
L 100.902767 527.599307 
L 101.537651 526.220034 
L 102.80742 525.072067 
L 103.442305 523.846999 
L 104.07719 523.641395 
L 104.712074 522.296389 
L 105.346959 521.576768 
L 105.981843 521.174123 
L 106.616728 520.128961 
L 107.251612 519.632079 
L 107.886497 518.766821 
L 108.521381 517.481786 
L 109.156266 516.984904 
L 109.79115 516.033975 
L 110.426035 515.648466 
L 111.695804 513.541005 
L 112.330688 512.949889 
L 112.965573 511.707685 
L 113.600457 510.953798 
L 114.235342 510.688224 
L 114.870226 509.189014 
L 115.505111 508.383727 
L 116.139995 507.912546 
L 116.77488 506.978751 
L 118.044649 504.87986 
L 119.949302 502.746697 
L 120.584187 501.538759 
L 121.219071 500.630671 
L 121.853956 499.93675 
L 123.123725 497.786452 
L 124.393494 496.141606 
L 125.663263 494.608129 
L 126.298148 493.383061 
L 126.933032 493.211724 
L 127.567917 492.337901 
L 128.202801 490.58168 
L 129.47257 489.605052 
L 130.107455 488.457088 
L 130.742339 487.643233 
L 131.377224 486.512398 
L 132.012108 486.195425 
L 132.646993 485.193097 
L 133.281877 483.668185 
L 133.916762 482.674422 
L 134.551646 482.648721 
L 135.186531 481.440789 
L 135.821415 480.635499 
L 137.091184 479.418996 
L 137.726069 478.647973 
L 138.360953 478.296733 
L 138.995838 476.926023 
L 139.630722 475.975097 
L 140.265607 474.647224 
L 141.535376 473.764836 
L 142.17026 471.948647 
L 142.805145 471.528869 
L 143.440029 470.723579 
L 144.074914 469.464245 
L 144.709798 469.095869 
L 145.344683 467.836529 
L 147.884221 464.409765 
L 149.15399 462.670685 
L 149.788875 461.462748 
L 150.423759 460.648893 
L 151.058644 460.374751 
L 151.693528 459.286754 
L 152.328413 457.753277 
L 152.963297 457.624771 
L 153.598182 457.162162 
L 154.233066 455.645816 
L 154.867951 455.046129 
L 155.502835 453.469822 
L 156.772604 452.29615 
L 157.407489 451.028245 
L 158.042373 450.008792 
L 159.312142 448.775147 
L 159.947027 447.413008 
L 160.581911 447.010372 
L 161.85168 444.868638 
L 162.486565 444.842937 
L 163.121449 443.240928 
L 163.756334 442.983916 
L 165.026103 441.270543 
L 165.660987 439.934094 
L 166.295872 439.548588 
L 166.930756 439.000304 
L 167.565641 437.458257 
L 168.200526 436.901413 
L 168.83541 436.019026 
L 169.470295 435.830547 
L 170.105179 434.905327 
L 170.740064 433.508916 
L 171.374948 433.157671 
L 172.009833 432.66936 
L 172.644717 431.350053 
L 173.279602 430.450523 
L 173.914486 430.150691 
L 174.549371 428.668606 
L 175.184255 427.794789 
L 175.81914 427.769088 
L 176.454024 426.030002 
L 177.088909 425.832964 
L 178.993562 423.69123 
L 179.628447 422.714609 
L 180.263331 421.38673 
L 181.5331 420.572875 
L 182.167985 419.810422 
L 182.802869 418.302647 
L 183.437754 417.326014 
L 184.072638 417.120416 
L 184.707523 415.981017 
L 185.342407 415.84394 
L 185.977292 414.576046 
L 186.612176 413.685076 
L 187.247061 412.468585 
L 187.881945 412.160171 
L 188.51683 410.909407 
L 189.786599 409.144621 
L 190.421484 409.315958 
L 191.056368 407.379834 
L 191.691253 406.925783 
L 192.326137 405.854928 
L 192.961022 405.041073 
L 193.595906 403.918804 
L 194.230791 403.944505 
L 196.135444 400.84328 
L 196.770329 400.82615 
L 197.405213 400.106529 
L 198.040098 398.367443 
L 198.674982 398.238937 
L 199.309867 396.765434 
L 199.944751 396.148618 
L 200.579636 395.369023 
L 201.21452 394.13539 
L 201.849405 394.049715 
L 202.484289 392.738979 
L 203.119174 393.047393 
L 203.754058 391.582449 
L 205.023827 389.937597 
L 205.658712 389.449286 
L 206.293596 387.821576 
L 206.928481 387.564565 
L 207.563365 386.51941 
L 208.19825 385.13157 
L 208.833134 385.739816 
L 209.468019 384.283443 
L 210.102903 383.555251 
L 210.737788 382.59576 
L 211.372673 383.032668 
L 212.007557 380.282689 
L 212.642442 380.582532 
L 213.912211 378.843446 
L 214.547095 377.549851 
L 215.18198 376.873062 
L 216.451749 375.339585 
L 217.086633 375.022612 
L 217.721518 373.694733 
L 218.356402 373.523396 
L 218.991287 372.641008 
L 219.626171 370.824819 
L 220.261056 371.655816 
L 220.89594 370.644922 
L 222.165709 367.329517 
L 222.800594 368.383254 
L 223.435478 366.250091 
L 224.070363 366.318624 
L 224.705247 366.018781 
L 225.340132 363.971292 
L 225.975016 363.243112 
L 226.609901 363.414437 
L 227.244785 361.701064 
L 227.87967 361.101378 
L 228.514554 360.972884 
L 229.149439 360.073354 
L 229.784323 359.850603 
L 230.419208 358.574138 
L 231.054092 357.983023 
L 231.688977 356.432405 
L 232.323862 355.84986 
L 232.958746 355.969807 
L 233.593631 354.230721 
L 234.228515 353.485399 
L 234.8634 353.836644 
L 235.498284 351.986183 
L 236.133169 352.080417 
L 237.402938 350.032917 
L 238.037822 350.606914 
L 238.672707 348.585126 
L 239.307591 347.334351 
L 239.942476 346.965964 
L 240.57736 346.134979 
L 241.212245 347.07734 
L 241.847129 344.798541 
L 243.116898 343.359298 
L 243.751783 342.391248 
L 245.656436 340.103878 
L 246.291321 339.684089 
L 246.926205 338.784582 
L 247.56109 337.636612 
L 248.195974 337.679443 
L 249.465743 335.57197 
L 250.100628 335.503449 
L 250.735512 334.012804 
L 251.370397 333.413118 
L 252.005281 332.505018 
L 253.909935 330.971541 
L 254.54482 329.926376 
L 255.814589 328.37578 
L 256.449473 327.784665 
L 257.084358 326.696668 
L 257.719242 326.945109 
L 258.354127 325.334517 
L 258.989011 324.383586 
L 259.623896 324.580624 
L 260.25878 323.689665 
L 260.893665 322.16476 
L 261.528549 321.582215 
L 262.798318 319.971624 
L 263.433203 320.074429 
L 264.068087 318.969313 
L 264.702972 318.600926 
L 265.337856 317.435837 
L 265.972741 317.607162 
L 266.607625 315.662467 
L 267.24251 314.745819 
L 267.877394 314.977118 
L 268.512279 313.529328 
L 271.051817 311.327621 
L 271.686701 309.896949 
L 272.95647 308.800381 
L 273.591355 309.391497 
L 274.226239 307.40397 
L 274.861124 306.478751 
L 275.496009 306.170337 
L 276.130893 304.696834 
L 276.765778 304.345588 
L 277.400662 304.379849 
L 278.035547 303.163357 
L 278.670431 303.805875 
L 279.305316 303.094813 
L 279.9402 301.030195 
L 281.209969 299.9936 
L 281.844854 299.214017 
L 282.479738 299.222565 
L 283.114623 298.897032 
L 283.749507 297.70623 
L 284.384392 297.800464 
L 285.019276 296.249846 
L 285.654161 295.59878 
L 286.92393 295.230393 
L 287.558814 293.054399 
L 288.193699 292.531805 
L 288.828583 292.951594 
L 290.098352 290.390094 
L 290.733237 289.713293 
L 291.368121 290.80129 
L 292.003006 288.873737 
L 292.63789 288.23979 
L 293.272775 288.925139 
L 293.907659 287.52018 
L 294.542544 286.560677 
L 295.177428 286.526417 
L 295.812313 285.969562 
L 296.447197 284.830162 
L 297.082082 284.067698 
L 297.716967 282.405727 
L 298.351851 283.767855 
L 298.986736 282.071624 
L 299.62162 280.923653 
L 300.256505 281.249186 
L 300.891389 279.89563 
L 301.526274 279.210257 
L 302.161158 279.938461 
L 302.796043 278.413556 
L 303.430927 278.002337 
L 304.065812 276.623068 
L 304.700696 276.785822 
L 305.335581 275.252346 
L 305.970465 274.798319 
L 306.60535 273.367624 
L 307.240234 274.190062 
L 307.875119 272.75939 
L 308.510003 272.810792 
L 309.144888 271.697083 
L 309.779772 271.028875 
L 310.414657 270.600515 
L 311.049541 270.01797 
L 311.684426 268.887142 
L 312.954195 268.167509 
L 313.589079 267.919068 
L 314.223964 266.428446 
L 314.858848 266.659745 
L 315.493733 264.286713 
L 316.128617 265.151958 
L 316.763502 264.569414 
L 317.398386 262.059316 
L 318.668156 262.239213 
L 319.30304 261.562434 
L 319.937925 261.048411 
L 320.572809 260.32023 
L 321.207694 259.977556 
L 322.477463 257.741588 
L 323.112347 257.416056 
L 323.747232 256.482243 
L 324.382116 256.764967 
L 325.651885 254.220586 
L 326.28677 254.580402 
L 326.921654 254.143494 
L 327.556539 253.509524 
L 328.191423 252.635707 
L 328.826308 252.96124 
L 329.461192 251.78758 
L 330.096077 250.913763 
L 330.730961 249.50021 
L 331.365846 249.405976 
L 332.635615 248.08668 
L 333.270499 247.238553 
L 333.905384 245.979207 
L 334.540268 246.681698 
L 335.810037 244.942612 
L 336.444922 245.062559 
L 337.079806 244.077367 
L 337.714691 243.44342 
L 338.349575 242.372541 
L 338.98446 242.158384 
L 339.619344 241.096077 
L 340.254229 241.301686 
L 340.889114 240.847636 
L 341.523998 239.536911 
L 342.158883 239.142811 
L 342.793767 238.346109 
L 343.428652 238.14907 
L 344.063536 236.718376 
L 344.698421 237.600786 
L 345.96819 235.013574 
L 346.603074 235.099237 
L 347.237959 234.251109 
L 347.872843 233.839914 
L 348.507728 234.371056 
L 349.777497 231.295532 
L 350.412381 230.447405 
L 351.047266 230.987118 
L 352.317035 229.282316 
L 352.951919 230.156133 
L 353.586804 228.365645 
L 354.221688 228.759722 
L 354.856573 227.132012 
L 355.491457 226.489494 
L 356.126342 226.352429 
L 356.761226 225.444328 
L 359.300764 223.071296 
L 359.935649 223.079867 
L 360.570533 221.734858 
L 361.205418 221.09234 
L 361.840303 221.674885 
L 362.475187 220.124289 
L 363.110072 219.695929 
L 363.744956 218.136763 
L 364.379841 218.128192 
L 365.014725 217.125858 
L 365.64961 218.239568 
L 366.284494 217.434272 
L 366.919379 215.481006 
L 367.554263 215.446745 
L 368.189148 213.836154 
L 368.824032 214.872772 
L 369.458917 214.144568 
L 370.093801 213.938959 
L 370.728686 212.422624 
L 371.36357 212.80813 
L 371.998455 211.540236 
L 372.633339 211.317485 
L 373.268224 211.317485 
L 373.903108 209.921097 
L 375.172877 208.85879 
L 375.807762 208.833077 
L 376.442646 207.273911 
L 377.077531 206.520018 
L 377.712415 207.608015 
L 378.3473 205.800408 
L 378.982184 204.858047 
L 379.617069 204.498231 
L 380.251953 203.710077 
L 380.886838 203.855713 
L 381.521722 204.618177 
L 382.156607 202.930494 
L 382.791491 202.981896 
L 383.426376 202.305095 
L 384.061261 200.30902 
L 384.696145 200.874423 
L 385.965914 198.535651 
L 386.600799 198.381467 
L 387.235683 198.073053 
L 387.870568 198.92118 
L 388.505452 196.17976 
L 389.140337 195.314491 
L 389.775221 196.650929 
L 390.410106 195.734281 
L 391.04499 194.509219 
L 391.679875 194.851893 
L 392.314759 193.352677 
L 392.949644 192.864367 
L 393.584528 192.187588 
L 394.219413 191.724967 
L 394.854297 192.581665 
L 395.489182 192.127615 
L 396.124066 190.439932 
L 396.758951 189.446168 
L 397.393835 188.889314 
L 398.02872 189.46331 
L 398.663604 188.272509 
L 399.298489 188.563781 
L 399.933373 187.561447 
L 400.568258 186.293553 
L 401.203142 186.918929 
L 401.838027 184.742935 
L 402.472911 184.914261 
L 403.107796 183.740601 
L 403.74268 184.751506 
L 404.377565 183.49216 
L 405.01245 181.795906 
L 405.647334 182.781121 
L 406.282219 181.187671 
L 406.917103 180.836426 
L 407.551988 179.645624 
L 408.186872 179.465704 
L 408.821757 179.474275 
L 410.091526 177.889397 
L 410.72641 178.317757 
L 411.361295 177.632385 
L 411.996179 175.773376 
L 413.265948 174.925249 
L 413.900833 174.642547 
L 414.535717 173.888654 
L 415.170602 173.597382 
L 415.805486 174.077121 
L 416.440371 172.843488 
L 417.075255 171.92684 
L 417.71014 171.961101 
L 418.345024 171.112973 
L 418.979909 170.881674 
L 419.614793 171.404246 
L 420.249678 169.408171 
L 420.884562 169.785106 
L 421.519447 168.585734 
L 422.154331 169.416719 
L 422.789216 166.906621 
L 423.4241 167.095089 
L 424.058985 166.178441 
L 424.693869 165.989973 
L 425.328754 165.004758 
L 425.963638 164.379382 
L 426.598523 164.045278 
L 427.233408 163.239982 
L 427.868292 162.845905 
L 428.503177 162.117725 
L 429.138061 162.914426 
L 429.772946 161.415234 
L 430.40783 160.884068 
L 431.042715 161.612249 
L 431.677599 160.078773 
L 432.312484 159.179266 
L 432.947368 158.862304 
L 433.582253 158.922278 
L 434.852022 156.866184 
L 435.486906 156.420728 
L 436.121791 155.538317 
L 436.756675 156.874778 
L 438.026444 153.328085 
L 438.661329 153.850657 
L 439.296213 151.871678 
L 439.931098 152.642736 
L 440.565982 152.617 
L 441.835751 151.340559 
L 442.470636 151.845988 
L 443.10552 149.944125 
L 443.740405 148.941813 
L 444.375289 149.421553 
L 445.010174 149.233086 
L 445.645058 147.845246 
L 446.279943 147.288391 
L 446.914827 147.365506 
L 448.184597 146.123302 
L 448.819481 144.71832 
L 449.454366 144.958212 
L 450.08925 144.872504 
L 450.724135 143.947307 
L 451.359019 143.621752 
L 451.993904 144.221438 
L 452.628788 142.105417 
L 453.263673 141.342953 
L 453.898557 140.246385 
L 454.533442 140.691887 
L 455.803211 139.783787 
L 456.438095 138.747192 
L 457.07298 138.190337 
L 457.707864 138.207479 
L 458.977633 136.86247 
L 459.612518 136.425562 
L 460.882287 134.806423 
L 461.517171 134.420894 
L 462.152056 133.45282 
L 462.78694 134.249568 
L 464.056709 131.525267 
L 464.691594 132.322014 
L 465.326478 131.76516 
L 466.596247 129.914675 
L 467.866016 129.71766 
L 468.500901 129.957553 
L 469.77067 127.293225 
L 470.405555 126.976263 
L 471.040439 126.427956 
L 471.675324 126.830627 
L 472.310208 125.134372 
L 472.945093 124.71456 
L 473.579977 125.425645 
L 474.214862 124.012115 
L 474.849746 124.157751 
L 475.484631 122.744175 
L 476.7544 122.024588 
L 477.389284 121.125036 
L 478.024169 122.058826 
L 478.659053 120.636748 
L 479.293938 120.670986 
L 480.563707 118.871927 
L 481.198591 118.169482 
L 481.833476 118.195171 
L 482.46836 118.435018 
L 483.103245 117.629769 
L 483.738129 115.967752 
L 484.373014 116.567438 
L 485.007898 115.942062 
L 485.642783 115.522296 
L 486.277667 114.502843 
L 486.912552 114.245808 
L 487.547436 112.678048 
L 488.182321 113.371991 
L 488.817205 112.969366 
L 490.086974 111.230281 
L 490.721859 111.778542 
L 491.356744 110.630594 
L 491.991628 109.773873 
L 492.626513 110.219376 
L 493.261397 109.825299 
L 493.896282 108.351796 
L 494.531166 108.814394 
L 495.166051 108.531669 
L 495.800935 107.426553 
L 496.43582 107.289465 
L 497.070704 105.567521 
L 497.705589 105.858793 
L 498.340473 104.822199 
L 498.975358 105.781724 
L 499.610242 104.428122 
L 500.245127 104.779367 
L 500.880011 103.228749 
L 501.514896 103.15168 
L 502.14978 102.946071 
L 502.784665 101.438284 
L 503.419549 100.770077 
L 504.054434 101.541089 
L 504.689318 100.19608 
L 505.324203 100.812908 
L 505.959087 99.759172 
L 506.593972 99.048133 
L 507.228856 99.74203 
L 507.863741 98.225695 
L 508.498625 97.754503 
L 509.13351 97.617461 
L 509.768394 96.452326 
L 510.403279 95.664172 
L 511.038163 95.98118 
L 511.673048 96.563725 
L 512.307933 95.175884 
L 512.942817 95.141601 
L 513.577702 94.798903 
L 514.212586 93.616672 
L 514.847471 93.616672 
L 515.482355 93.102695 
L 516.11724 93.291162 
L 516.752124 92.383062 
L 517.387009 91.971843 
L 518.021893 92.023269 
L 518.656778 89.967175 
L 519.291662 89.693045 
L 519.926547 88.485124 
L 520.561431 89.624523 
L 521.196316 88.065311 
L 521.8312 88.887749 
L 522.466085 86.806012 
L 523.100969 87.302893 
L 523.735854 86.566119 
L 524.370738 86.411935 
L 525.005623 87.105832 
L 525.640507 86.206325 
L 526.275392 84.912696 
L 526.910276 85.032642 
L 527.545161 84.775654 
L 528.180045 83.482024 
L 528.81493 83.62766 
L 529.449814 82.642491 
L 530.084699 82.488261 
L 530.719583 82.137015 
L 531.354468 82.085636 
L 531.989352 80.860574 
L 532.624237 79.909642 
L 533.894006 79.575538 
L 535.163775 79.789695 
L 535.79866 80.509328 
L 536.433544 78.881595 
L 537.068429 76.337214 
L 537.703313 77.082536 
L 538.338198 76.345808 
L 538.973082 76.311524 
L 539.607967 76.388639 
L 540.242851 75.797501 
L 540.877736 76.208719 
L 541.51262 73.861399 
L 542.147505 73.929921 
L 542.782389 74.641005 
L 543.417274 72.550674 
L 544.052158 72.850494 
L 544.687043 72.130862 
L 545.321927 72.396444 
L 545.956812 72.173693 
L 546.591696 71.000056 
L 547.226581 70.357538 
L 547.861465 71.651122 
L 548.49635 70.597385 
L 549.131234 69.046767 
L 549.766119 69.098192 
L 550.401003 68.498506 
L 551.035888 68.678426 
L 551.670772 67.804609 
L 552.305657 67.616095 
L 552.940541 67.23916 
L 553.575426 65.5515 
L 554.21031 67.196329 
L 555.48008 65.07176 
L 556.114964 65.662853 
L 557.384733 64.429242 
L 558.019618 62.810057 
L 558.654502 64.215039 
L 559.289387 63.221276 
L 559.924271 61.790604 
L 560.559156 62.321769 
L 561.19404 60.034377 
L 561.828925 61.071017 
L 562.463809 61.096707 
L 563.098694 61.516474 
L 563.733578 59.074897 
L 564.368463 59.366169 
L 565.003347 58.398096 
L 566.273116 57.978329 
L 566.908001 57.952639 
L 567.542885 56.907497 
L 568.17777 57.858383 
L 568.812654 56.616178 
L 569.447539 55.665293 
L 570.082423 56.367738 
L 570.717308 55.493921 
L 571.352192 54.183196 
L 571.987077 53.98618 
L 572.621961 55.116986 
L 573.256846 53.292237 
L 573.89173 53.000965 
L 574.526615 53.069486 
L 575.161499 52.606888 
L 575.796384 51.570293 
L 576.431268 51.647408 
L 577.066153 50.139621 
L 577.701038 50.996296 
L 578.970807 50.362373 
L 579.605691 50.019675 
L 580.240576 50.310947 
L 580.87546 47.955033 
L 581.510345 48.34911 
L 582.780114 47.518125 
L 582.780114 47.518125 
" clip-path="url(#pd6ad4c8b76)" style="fill: none; stroke: #1f77b4; stroke-width: 1.5; stroke-linecap: square"/>
   </g>
   <g id="line2d_34">
    <path d="M 75.507386 550.28449 
L 76.142271 550.515796 
L 76.777155 550.130285 
L 78.046924 550.207387 
L 78.681809 551.518125 
L 79.316693 550.207387 
L 80.586462 551.286818 
L 81.221347 549.976081 
L 81.856232 550.824205 
L 82.491116 550.901307 
L 83.126001 550.438694 
L 83.760885 550.747103 
L 85.030654 550.824205 
L 85.665539 550.438694 
L 86.935308 550.515796 
L 87.570192 550.207387 
L 88.205077 550.901307 
L 88.839961 550.053183 
L 89.474846 549.59057 
L 90.10973 549.898979 
L 90.744615 549.513468 
L 91.379499 549.976081 
L 92.014384 549.667672 
L 92.649268 549.205059 
L 93.284153 549.667672 
L 93.919037 549.436366 
L 94.553922 548.434037 
L 95.823691 549.127957 
L 96.458575 549.513468 
L 97.09346 548.742446 
L 97.728344 548.742446 
L 98.998113 547.663014 
L 99.632998 548.973752 
L 100.267882 548.665344 
L 100.902767 547.123299 
L 101.537651 548.434037 
L 102.172536 547.817219 
L 102.80742 548.356935 
L 103.442305 547.740117 
L 104.07719 546.891993 
L 104.712074 547.277503 
L 105.346959 546.891993 
L 105.981843 546.969095 
L 106.616728 547.354606 
L 107.251612 547.894321 
L 107.886497 547.277503 
L 108.521381 547.431708 
L 109.156266 546.81489 
L 109.79115 547.431708 
L 110.426035 547.354606 
L 111.060919 547.585912 
L 111.695804 547.354606 
L 112.330688 546.81489 
L 113.600457 547.431708 
L 114.235342 546.891993 
L 114.870226 547.354606 
L 115.505111 546.891993 
L 116.139995 547.123299 
L 116.77488 547.663014 
L 117.409764 548.048526 
L 118.044649 547.200401 
L 118.679533 547.663014 
L 119.314418 547.354606 
L 119.949302 546.660686 
L 120.584187 547.585912 
L 121.219071 547.200401 
L 121.853956 547.431708 
L 123.123725 546.737788 
L 123.758609 547.817219 
L 124.393494 548.279832 
L 125.028379 548.20273 
L 125.663263 547.663014 
L 126.933032 547.585912 
L 127.567917 547.50881 
L 128.202801 548.048526 
L 128.837686 547.663014 
L 129.47257 548.279832 
L 130.107455 547.046197 
L 130.742339 547.431708 
L 131.377224 547.277503 
L 132.012108 547.894321 
L 132.646993 547.277503 
L 133.281877 547.200401 
L 133.916762 547.431708 
L 134.551646 546.891993 
L 135.186531 547.431708 
L 135.821415 547.585912 
L 136.4563 547.894321 
L 137.091184 547.123299 
L 137.726069 546.891993 
L 138.360953 547.354606 
L 138.995838 547.50881 
L 139.630722 548.048526 
L 140.265607 546.81489 
L 140.900491 547.431708 
L 141.535376 547.740117 
L 142.17026 546.81489 
L 142.805145 547.431708 
L 143.440029 547.663014 
L 144.074914 547.663014 
L 144.709798 546.81489 
L 145.344683 546.275175 
L 145.979567 547.740117 
L 146.614452 547.740117 
L 147.249337 547.277503 
L 147.884221 547.431708 
L 149.15399 547.431708 
L 149.788875 547.585912 
L 150.423759 547.046197 
L 151.058644 547.817219 
L 152.328413 547.431708 
L 152.963297 546.969095 
L 153.598182 548.048526 
L 154.233066 547.277503 
L 154.867951 547.894321 
L 155.502835 546.891993 
L 156.13772 547.50881 
L 158.042373 546.506482 
L 158.677258 547.046197 
L 159.312142 546.81489 
L 159.947027 546.891993 
L 160.581911 546.81489 
L 161.216796 547.200401 
L 161.85168 547.200401 
L 162.486565 547.046197 
L 163.121449 546.737788 
L 163.756334 546.969095 
L 164.391218 546.737788 
L 165.026103 547.277503 
L 165.660987 547.971423 
L 166.295872 547.123299 
L 166.930756 547.354606 
L 167.565641 546.120971 
L 168.200526 547.431708 
L 168.83541 547.123299 
L 169.470295 547.585912 
L 170.105179 546.583584 
L 170.740064 547.046197 
L 171.374948 547.200401 
L 172.009833 547.50881 
L 172.644717 547.971423 
L 173.279602 547.123299 
L 173.914486 547.894321 
L 174.549371 546.81489 
L 175.184255 547.200401 
L 175.81914 547.971423 
L 176.454024 547.663014 
L 177.088909 546.891993 
L 177.723793 547.123299 
L 178.358678 546.969095 
L 178.993562 547.046197 
L 179.628447 546.969095 
L 180.263331 546.660686 
L 181.5331 547.046197 
L 182.167985 546.969095 
L 182.802869 547.277503 
L 183.437754 547.200401 
L 184.072638 546.275175 
L 184.707523 546.737788 
L 185.342407 547.046197 
L 185.977292 546.81489 
L 186.612176 546.352277 
L 187.881945 546.81489 
L 188.51683 546.275175 
L 189.151715 546.583584 
L 189.786599 546.583584 
L 190.421484 547.046197 
L 191.056368 546.198073 
L 191.691253 546.969095 
L 192.326137 546.198073 
L 192.961022 546.275175 
L 193.595906 546.506482 
L 194.230791 546.429379 
L 194.865675 545.966766 
L 195.50056 546.583584 
L 196.135444 545.581255 
L 196.770329 546.043869 
L 197.405213 546.275175 
L 198.040098 546.969095 
L 198.674982 546.429379 
L 199.309867 546.352277 
L 199.944751 545.812562 
L 200.579636 546.120971 
L 201.21452 545.581255 
L 201.849405 546.120971 
L 202.484289 546.198073 
L 203.119174 545.812562 
L 203.754058 546.120971 
L 205.023827 545.581255 
L 205.658712 546.506482 
L 206.293596 546.275175 
L 206.928481 545.504153 
L 207.563365 546.81489 
L 208.19825 546.043869 
L 208.833134 546.043869 
L 209.468019 545.73546 
L 210.102903 546.120971 
L 210.737788 546.660686 
L 211.372673 546.275175 
L 212.642442 546.891993 
L 213.912211 546.352277 
L 214.547095 546.043869 
L 215.18198 546.737788 
L 215.816864 546.275175 
L 216.451749 546.737788 
L 217.086633 546.81489 
L 218.356402 546.120971 
L 219.626171 546.969095 
L 220.261056 545.73546 
L 220.89594 546.660686 
L 221.530825 546.275175 
L 222.165709 545.427051 
L 222.800594 546.120971 
L 223.435478 546.198073 
L 224.070363 546.043869 
L 224.705247 545.504153 
L 225.340132 546.198073 
L 225.975016 545.966766 
L 227.244785 546.506482 
L 227.87967 546.198073 
L 228.514554 546.429379 
L 229.149439 546.506482 
L 229.784323 546.120971 
L 231.054092 546.352277 
L 231.688977 545.966766 
L 232.323862 545.889664 
L 233.593631 546.81489 
L 234.228515 545.504153 
L 234.8634 546.352277 
L 235.498284 546.583584 
L 236.133169 546.198073 
L 236.768053 546.81489 
L 237.402938 545.966766 
L 238.037822 546.275175 
L 239.307591 546.120971 
L 239.942476 546.660686 
L 240.57736 545.349949 
L 241.212245 545.812562 
L 241.847129 545.966766 
L 242.482014 546.275175 
L 243.116898 546.120971 
L 243.751783 546.275175 
L 244.386667 545.889664 
L 245.656436 546.198073 
L 246.291321 545.581255 
L 247.56109 545.658358 
L 248.195974 546.275175 
L 248.830859 546.120971 
L 249.465743 546.198073 
L 250.100628 546.043869 
L 250.735512 546.352277 
L 251.370397 546.043869 
L 252.005281 546.198073 
L 252.640166 547.123299 
L 253.27505 546.429379 
L 253.909935 546.81489 
L 254.54482 545.118642 
L 255.179704 545.966766 
L 255.814589 545.73546 
L 257.084358 546.120971 
L 257.719242 546.506482 
L 258.354127 546.198073 
L 259.623896 545.966766 
L 260.25878 546.429379 
L 260.893665 546.198073 
L 261.528549 545.812562 
L 262.163434 546.969095 
L 262.798318 546.120971 
L 263.433203 546.506482 
L 264.068087 546.737788 
L 265.337856 546.275175 
L 265.972741 546.737788 
L 266.607625 547.046197 
L 267.24251 546.198073 
L 267.877394 546.198073 
L 268.512279 545.889664 
L 269.147163 545.966766 
L 269.782048 546.506482 
L 270.416932 546.506482 
L 271.051817 545.966766 
L 271.686701 546.043869 
L 272.321586 546.352277 
L 272.95647 546.120971 
L 273.591355 546.198073 
L 274.226239 546.429379 
L 274.861124 546.043869 
L 275.496009 546.737788 
L 276.130893 546.969095 
L 276.765778 546.506482 
L 277.400662 546.429379 
L 278.035547 547.354606 
L 278.670431 546.352277 
L 279.305316 546.81489 
L 280.575085 545.504153 
L 281.209969 546.737788 
L 281.844854 547.431708 
L 282.479738 546.429379 
L 283.114623 547.123299 
L 284.384392 546.275175 
L 285.019276 546.660686 
L 286.289045 546.737788 
L 286.92393 546.275175 
L 287.558814 547.200401 
L 288.193699 546.737788 
L 288.828583 547.123299 
L 289.463468 546.429379 
L 290.098352 546.352277 
L 290.733237 546.120971 
L 291.368121 547.277503 
L 292.003006 546.737788 
L 292.63789 546.429379 
L 293.272775 546.969095 
L 293.907659 546.737788 
L 294.542544 546.969095 
L 295.177428 546.043869 
L 295.812313 546.891993 
L 296.447197 546.81489 
L 297.082082 546.429379 
L 297.716967 546.660686 
L 298.351851 546.583584 
L 298.986736 546.891993 
L 299.62162 546.969095 
L 300.256505 546.81489 
L 300.891389 547.277503 
L 301.526274 547.200401 
L 302.161158 546.81489 
L 302.796043 546.198073 
L 303.430927 546.583584 
L 304.065812 546.506482 
L 304.700696 546.737788 
L 305.970465 546.660686 
L 306.60535 546.275175 
L 307.240234 546.275175 
L 307.875119 546.660686 
L 308.510003 545.966766 
L 309.144888 546.660686 
L 309.779772 546.660686 
L 310.414657 545.889664 
L 311.049541 546.891993 
L 311.684426 547.046197 
L 312.31931 546.198073 
L 312.954195 546.352277 
L 313.589079 546.352277 
L 314.223964 546.043869 
L 315.493733 546.198073 
L 316.128617 546.583584 
L 316.763502 546.275175 
L 317.398386 547.200401 
L 318.033271 547.046197 
L 318.668156 546.352277 
L 319.30304 546.506482 
L 319.937925 546.969095 
L 320.572809 547.046197 
L 321.207694 547.277503 
L 321.842578 546.891993 
L 322.477463 546.198073 
L 323.112347 546.275175 
L 323.747232 546.660686 
L 324.382116 546.198073 
L 325.017001 546.81489 
L 325.651885 546.737788 
L 326.28677 546.891993 
L 327.556539 546.275175 
L 328.191423 546.969095 
L 329.461192 546.352277 
L 330.730961 546.737788 
L 331.365846 547.200401 
L 332.00073 547.046197 
L 332.635615 546.583584 
L 333.270499 547.200401 
L 333.905384 546.81489 
L 335.175153 547.046197 
L 335.810037 547.200401 
L 337.714691 546.198073 
L 338.349575 547.354606 
L 338.98446 546.429379 
L 339.619344 546.506482 
L 340.254229 546.81489 
L 342.158883 546.891993 
L 342.793767 547.585912 
L 343.428652 547.123299 
L 344.063536 547.277503 
L 344.698421 547.046197 
L 345.333305 547.354606 
L 345.96819 547.354606 
L 347.237959 546.969095 
L 347.872843 547.046197 
L 348.507728 547.277503 
L 349.142612 546.969095 
L 349.777497 546.81489 
L 350.412381 547.046197 
L 351.047266 546.506482 
L 351.68215 547.200401 
L 352.317035 546.81489 
L 352.951919 547.046197 
L 353.586804 546.81489 
L 354.221688 547.431708 
L 354.856573 547.123299 
L 355.491457 547.277503 
L 356.761226 546.969095 
L 357.396111 547.123299 
L 358.030995 546.737788 
L 358.66588 546.891993 
L 359.300764 547.354606 
L 359.935649 546.969095 
L 361.205418 547.354606 
L 361.840303 547.200401 
L 362.475187 546.891993 
L 363.110072 546.969095 
L 363.744956 546.660686 
L 364.379841 547.277503 
L 365.014725 546.660686 
L 365.64961 547.123299 
L 366.919379 547.354606 
L 367.554263 547.123299 
L 368.189148 547.50881 
L 368.824032 546.737788 
L 369.458917 547.277503 
L 370.093801 547.663014 
L 371.36357 547.354606 
L 371.998455 546.969095 
L 372.633339 546.81489 
L 373.903108 547.123299 
L 374.537993 547.50881 
L 375.172877 547.046197 
L 375.807762 547.50881 
L 376.442646 547.50881 
L 377.077531 546.81489 
L 377.712415 547.817219 
L 378.3473 547.354606 
L 378.982184 547.277503 
L 379.617069 546.81489 
L 380.251953 547.354606 
L 380.886838 546.81489 
L 381.521722 546.583584 
L 382.156607 546.969095 
L 383.426376 547.046197 
L 384.061261 546.81489 
L 384.696145 547.200401 
L 385.33103 547.046197 
L 385.965914 547.585912 
L 386.600799 547.50881 
L 387.235683 546.737788 
L 387.870568 547.50881 
L 389.140337 547.200401 
L 389.775221 547.200401 
L 390.410106 547.663014 
L 391.04499 547.277503 
L 391.679875 547.50881 
L 392.314759 547.277503 
L 392.949644 546.737788 
L 393.584528 547.200401 
L 394.219413 547.200401 
L 394.854297 548.048526 
L 395.489182 547.354606 
L 396.124066 547.431708 
L 396.758951 546.81489 
L 397.393835 547.431708 
L 398.02872 547.663014 
L 398.663604 547.200401 
L 399.298489 546.969095 
L 399.933373 547.663014 
L 401.203142 547.354606 
L 401.838027 546.81489 
L 402.472911 547.585912 
L 403.107796 547.046197 
L 403.74268 548.279832 
L 404.377565 546.969095 
L 405.01245 547.277503 
L 405.647334 547.200401 
L 406.282219 547.354606 
L 406.917103 546.969095 
L 407.551988 547.585912 
L 408.186872 546.969095 
L 408.821757 547.431708 
L 409.456641 547.431708 
L 410.091526 547.663014 
L 410.72641 547.585912 
L 411.361295 547.971423 
L 411.996179 547.200401 
L 412.631064 547.50881 
L 413.265948 547.046197 
L 413.900833 548.125628 
L 414.535717 546.891993 
L 415.170602 547.740117 
L 415.805486 547.277503 
L 416.440371 547.817219 
L 417.075255 547.277503 
L 417.71014 546.891993 
L 418.345024 547.354606 
L 418.979909 547.200401 
L 419.614793 548.89665 
L 420.249678 547.431708 
L 420.884562 547.740117 
L 421.519447 547.200401 
L 422.154331 546.81489 
L 422.789216 547.50881 
L 423.4241 547.894321 
L 424.058985 547.277503 
L 424.693869 548.048526 
L 425.328754 547.277503 
L 425.963638 547.431708 
L 426.598523 547.200401 
L 427.233408 548.356935 
L 427.868292 547.046197 
L 428.503177 547.663014 
L 429.772946 547.123299 
L 430.40783 547.50881 
L 431.042715 546.660686 
L 431.677599 547.740117 
L 432.312484 547.046197 
L 432.947368 547.971423 
L 433.582253 547.431708 
L 434.217137 548.356935 
L 435.486906 547.50881 
L 436.121791 547.585912 
L 436.756675 546.891993 
L 437.39156 547.277503 
L 438.026444 547.123299 
L 438.661329 547.971423 
L 439.296213 547.431708 
L 439.931098 547.431708 
L 440.565982 548.048526 
L 441.200867 547.585912 
L 441.835751 547.585912 
L 442.470636 547.200401 
L 443.10552 547.200401 
L 443.740405 547.971423 
L 444.375289 547.277503 
L 445.010174 546.891993 
L 445.645058 547.663014 
L 446.279943 547.740117 
L 446.914827 547.50881 
L 447.549712 548.356935 
L 448.184597 547.894321 
L 448.819481 547.663014 
L 449.454366 547.740117 
L 450.08925 547.200401 
L 450.724135 547.740117 
L 451.359019 547.663014 
L 451.993904 547.971423 
L 452.628788 547.585912 
L 453.898557 547.431708 
L 454.533442 547.971423 
L 455.168326 547.354606 
L 455.803211 547.740117 
L 456.438095 548.279832 
L 457.07298 548.511139 
L 457.707864 547.663014 
L 458.342749 548.279832 
L 458.977633 547.740117 
L 459.612518 547.354606 
L 460.247402 547.585912 
L 460.882287 546.891993 
L 461.517171 547.894321 
L 462.152056 547.971423 
L 462.78694 547.663014 
L 464.056709 547.354606 
L 464.691594 547.971423 
L 465.326478 547.354606 
L 465.961363 547.663014 
L 466.596247 547.585912 
L 467.231132 547.354606 
L 467.866016 547.431708 
L 468.500901 548.356935 
L 469.135785 547.740117 
L 469.77067 548.048526 
L 470.405555 547.740117 
L 471.040439 548.20273 
L 471.675324 547.894321 
L 472.310208 547.431708 
L 472.945093 547.971423 
L 473.579977 548.125628 
L 474.214862 547.740117 
L 474.849746 548.279832 
L 475.484631 547.50881 
L 476.119515 548.048526 
L 476.7544 547.894321 
L 477.389284 547.50881 
L 478.024169 547.50881 
L 478.659053 548.511139 
L 479.293938 547.817219 
L 479.928822 547.817219 
L 480.563707 549.127957 
L 481.198591 547.354606 
L 481.833476 547.740117 
L 482.46836 547.894321 
L 483.103245 547.431708 
L 483.738129 547.663014 
L 484.373014 547.354606 
L 485.007898 547.663014 
L 485.642783 547.585912 
L 486.277667 548.20273 
L 486.912552 548.048526 
L 487.547436 547.663014 
L 488.182321 547.431708 
L 488.817205 547.894321 
L 489.45209 547.663014 
L 490.086974 547.663014 
L 491.356744 547.123299 
L 491.991628 547.817219 
L 492.626513 547.431708 
L 493.261397 548.125628 
L 493.896282 547.894321 
L 494.531166 548.279832 
L 495.166051 547.663014 
L 495.800935 547.585912 
L 496.43582 547.740117 
L 497.705589 547.817219 
L 498.340473 547.585912 
L 498.975358 547.200401 
L 499.610242 546.969095 
L 500.245127 547.354606 
L 500.880011 547.585912 
L 501.514896 547.585912 
L 502.14978 547.431708 
L 502.784665 547.894321 
L 504.689318 547.817219 
L 505.324203 548.125628 
L 505.959087 547.585912 
L 506.593972 547.585912 
L 507.228856 548.20273 
L 507.863741 547.894321 
L 508.498625 548.20273 
L 509.13351 547.740117 
L 509.768394 547.740117 
L 510.403279 547.431708 
L 511.038163 547.817219 
L 511.673048 547.585912 
L 512.307933 548.20273 
L 513.577702 547.663014 
L 514.212586 547.354606 
L 514.847471 547.663014 
L 515.482355 547.431708 
L 516.11724 547.50881 
L 516.752124 548.511139 
L 517.387009 547.971423 
L 518.021893 547.740117 
L 519.926547 547.50881 
L 520.561431 547.817219 
L 521.196316 547.663014 
L 521.8312 546.969095 
L 522.466085 547.971423 
L 523.100969 547.894321 
L 523.735854 547.50881 
L 524.370738 547.971423 
L 526.275392 547.50881 
L 526.910276 547.123299 
L 527.545161 547.277503 
L 528.180045 547.740117 
L 528.81493 547.894321 
L 529.449814 547.277503 
L 530.084699 547.585912 
L 530.719583 547.431708 
L 531.354468 547.971423 
L 531.989352 547.663014 
L 532.624237 547.123299 
L 533.894006 548.048526 
L 534.528891 548.048526 
L 535.163775 547.431708 
L 535.79866 547.431708 
L 536.433544 547.200401 
L 537.068429 547.740117 
L 537.703313 547.046197 
L 538.338198 546.891993 
L 538.973082 546.969095 
L 539.607967 547.585912 
L 540.877736 548.279832 
L 541.51262 547.50881 
L 542.147505 547.971423 
L 542.782389 547.817219 
L 543.417274 548.434037 
L 544.052158 547.123299 
L 544.687043 547.50881 
L 545.956812 547.277503 
L 546.591696 547.354606 
L 547.226581 548.125628 
L 547.861465 547.740117 
L 549.131234 547.740117 
L 549.766119 547.50881 
L 550.401003 547.971423 
L 551.035888 547.354606 
L 551.670772 548.048526 
L 552.305657 548.125628 
L 552.940541 547.50881 
L 553.575426 547.50881 
L 554.21031 547.740117 
L 554.845195 547.277503 
L 555.48008 547.50881 
L 556.114964 547.354606 
L 556.749849 547.740117 
L 557.384733 547.894321 
L 558.019618 547.663014 
L 558.654502 547.740117 
L 559.289387 547.277503 
L 559.924271 547.740117 
L 560.559156 547.817219 
L 561.19404 548.048526 
L 561.828925 547.971423 
L 562.463809 547.50881 
L 563.098694 548.048526 
L 563.733578 547.585912 
L 564.368463 547.354606 
L 565.003347 547.354606 
L 565.638232 546.969095 
L 566.273116 547.663014 
L 567.542885 547.123299 
L 568.17777 548.048526 
L 568.812654 547.277503 
L 569.447539 547.354606 
L 570.082423 547.277503 
L 570.717308 547.50881 
L 571.352192 547.200401 
L 571.987077 548.279832 
L 572.621961 547.971423 
L 573.256846 547.971423 
L 573.89173 547.817219 
L 574.526615 547.431708 
L 575.161499 547.50881 
L 575.796384 547.740117 
L 576.431268 547.585912 
L 577.066153 547.277503 
L 577.701038 547.354606 
L 578.335922 547.894321 
L 578.970807 547.894321 
L 579.605691 548.048526 
L 580.240576 547.663014 
L 580.87546 547.740117 
L 581.510345 548.125628 
L 582.145229 547.894321 
L 582.780114 548.279832 
L 582.780114 548.279832 
" clip-path="url(#pd6ad4c8b76)" style="fill: none; stroke: #ff7f0e; stroke-width: 1.5; stroke-linecap: square"/>
   </g>
   <g id="line2d_35">
    <path d="M 50.14375 551.200078 
L 608.14375 551.200078 
" clip-path="url(#pd6ad4c8b76)" style="fill: none; stroke-dasharray: 11.1,4.8; stroke-dashoffset: 0; stroke: #ff0000; stroke-width: 3"/>
   </g>
   <g id="patch_3">
    <path d="M 50.14375 576.718125 
L 50.14375 22.318125 
" style="fill: none; stroke: #000000; stroke-width: 0.8; stroke-linejoin: miter; stroke-linecap: square"/>
   </g>
   <g id="patch_4">
    <path d="M 608.14375 576.718125 
L 608.14375 22.318125 
" style="fill: none; stroke: #000000; stroke-width: 0.8; stroke-linejoin: miter; stroke-linecap: square"/>
   </g>
   <g id="patch_5">
    <path d="M 50.14375 576.718125 
L 608.14375 576.718125 
" style="fill: none; stroke: #000000; stroke-width: 0.8; stroke-linejoin: miter; stroke-linecap: square"/>
   </g>
   <g id="patch_6">
    <path d="M 50.14375 22.318125 
L 608.14375 22.318125 
" style="fill: none; stroke: #000000; stroke-width: 0.8; stroke-linejoin: miter; stroke-linecap: square"/>
   </g>
   <g id="text_19">
    <!-- Train and Val Accuracy -->
    <g transform="translate(261.365313 16.318125) scale(0.12 -0.12)">
     <defs>
      <path id="DejaVuSans-54" d="M -19 4666 
L 3928 4666 
L 3928 4134 
L 2272 4134 
L 2272 0 
L 1638 0 
L 1638 4134 
L -19 4134 
L -19 4666 
z
" transform="scale(0.015625)"/>
      <path id="DejaVuSans-69" d="M 603 3500 
L 1178 3500 
L 1178 0 
L 603 0 
L 603 3500 
z
M 603 4863 
L 1178 4863 
L 1178 4134 
L 603 4134 
L 603 4863 
z
" transform="scale(0.015625)"/>
      <path id="DejaVuSans-6e" d="M 3513 2113 
L 3513 0 
L 2938 0 
L 2938 2094 
Q 2938 2591 2744 2837 
Q 2550 3084 2163 3084 
Q 1697 3084 1428 2787 
Q 1159 2491 1159 1978 
L 1159 0 
L 581 0 
L 581 3500 
L 1159 3500 
L 1159 2956 
Q 1366 3272 1645 3428 
Q 1925 3584 2291 3584 
Q 2894 3584 3203 3211 
Q 3513 2838 3513 2113 
z
" transform="scale(0.015625)"/>
      <path id="DejaVuSans-20" transform="scale(0.015625)"/>
      <path id="DejaVuSans-64" d="M 2906 2969 
L 2906 4863 
L 3481 4863 
L 3481 0 
L 2906 0 
L 2906 525 
Q 2725 213 2448 61 
Q 2172 -91 1784 -91 
Q 1150 -91 751 415 
Q 353 922 353 1747 
Q 353 2572 751 3078 
Q 1150 3584 1784 3584 
Q 2172 3584 2448 3432 
Q 2725 3281 2906 2969 
z
M 947 1747 
Q 947 1113 1208 752 
Q 1469 391 1925 391 
Q 2381 391 2643 752 
Q 2906 1113 2906 1747 
Q 2906 2381 2643 2742 
Q 2381 3103 1925 3103 
Q 1469 3103 1208 2742 
Q 947 2381 947 1747 
z
" transform="scale(0.015625)"/>
      <path id="DejaVuSans-56" d="M 1831 0 
L 50 4666 
L 709 4666 
L 2188 738 
L 3669 4666 
L 4325 4666 
L 2547 0 
L 1831 0 
z
" transform="scale(0.015625)"/>
      <path id="DejaVuSans-6c" d="M 603 4863 
L 1178 4863 
L 1178 0 
L 603 0 
L 603 4863 
z
" transform="scale(0.015625)"/>
     </defs>
     <use xlink:href="#DejaVuSans-54"/>
     <use xlink:href="#DejaVuSans-72" transform="translate(46.333984 0)"/>
     <use xlink:href="#DejaVuSans-61" transform="translate(87.447266 0)"/>
     <use xlink:href="#DejaVuSans-69" transform="translate(148.726562 0)"/>
     <use xlink:href="#DejaVuSans-6e" transform="translate(176.509766 0)"/>
     <use xlink:href="#DejaVuSans-20" transform="translate(239.888672 0)"/>
     <use xlink:href="#DejaVuSans-61" transform="translate(271.675781 0)"/>
     <use xlink:href="#DejaVuSans-6e" transform="translate(332.955078 0)"/>
     <use xlink:href="#DejaVuSans-64" transform="translate(396.333984 0)"/>
     <use xlink:href="#DejaVuSans-20" transform="translate(459.810547 0)"/>
     <use xlink:href="#DejaVuSans-56" transform="translate(491.597656 0)"/>
     <use xlink:href="#DejaVuSans-61" transform="translate(552.255859 0)"/>
     <use xlink:href="#DejaVuSans-6c" transform="translate(613.535156 0)"/>
     <use xlink:href="#DejaVuSans-20" transform="translate(641.318359 0)"/>
     <use xlink:href="#DejaVuSans-41" transform="translate(673.105469 0)"/>
     <use xlink:href="#DejaVuSans-63" transform="translate(739.763672 0)"/>
     <use xlink:href="#DejaVuSans-63" transform="translate(794.744141 0)"/>
     <use xlink:href="#DejaVuSans-75" transform="translate(849.724609 0)"/>
     <use xlink:href="#DejaVuSans-72" transform="translate(913.103516 0)"/>
     <use xlink:href="#DejaVuSans-61" transform="translate(954.216797 0)"/>
     <use xlink:href="#DejaVuSans-63" transform="translate(1015.496094 0)"/>
     <use xlink:href="#DejaVuSans-79" transform="translate(1070.476562 0)"/>
    </g>
   </g>
   <g id="legend_1">
    <g id="patch_7">
     <path d="M 57.14375 74.90875 
L 224.267187 74.90875 
Q 226.267187 74.90875 226.267187 72.90875 
L 226.267187 29.318125 
Q 226.267187 27.318125 224.267187 27.318125 
L 57.14375 27.318125 
Q 55.14375 27.318125 55.14375 29.318125 
L 55.14375 72.90875 
Q 55.14375 74.90875 57.14375 74.90875 
z
" style="fill: #ffffff; opacity: 0.8; stroke: #cccccc; stroke-linejoin: miter"/>
    </g>
    <g id="line2d_36">
     <path d="M 59.14375 35.416562 
L 69.14375 35.416562 
L 79.14375 35.416562 
" style="fill: none; stroke: #1f77b4; stroke-width: 1.5; stroke-linecap: square"/>
    </g>
    <g id="text_20">
     <!-- train_accuracy -->
     <g transform="translate(87.14375 38.916562) scale(0.1 -0.1)">
      <defs>
       <path id="DejaVuSans-74" d="M 1172 4494 
L 1172 3500 
L 2356 3500 
L 2356 3053 
L 1172 3053 
L 1172 1153 
Q 1172 725 1289 603 
Q 1406 481 1766 481 
L 2356 481 
L 2356 0 
L 1766 0 
Q 1100 0 847 248 
Q 594 497 594 1153 
L 594 3053 
L 172 3053 
L 172 3500 
L 594 3500 
L 594 4494 
L 1172 4494 
z
" transform="scale(0.015625)"/>
       <path id="DejaVuSans-5f" d="M 3263 -1063 
L 3263 -1509 
L -63 -1509 
L -63 -1063 
L 3263 -1063 
z
" transform="scale(0.015625)"/>
      </defs>
      <use xlink:href="#DejaVuSans-74"/>
      <use xlink:href="#DejaVuSans-72" transform="translate(39.208984 0)"/>
      <use xlink:href="#DejaVuSans-61" transform="translate(80.322266 0)"/>
      <use xlink:href="#DejaVuSans-69" transform="translate(141.601562 0)"/>
      <use xlink:href="#DejaVuSans-6e" transform="translate(169.384766 0)"/>
      <use xlink:href="#DejaVuSans-5f" transform="translate(232.763672 0)"/>
      <use xlink:href="#DejaVuSans-61" transform="translate(282.763672 0)"/>
      <use xlink:href="#DejaVuSans-63" transform="translate(344.042969 0)"/>
      <use xlink:href="#DejaVuSans-63" transform="translate(399.023438 0)"/>
      <use xlink:href="#DejaVuSans-75" transform="translate(454.003906 0)"/>
      <use xlink:href="#DejaVuSans-72" transform="translate(517.382812 0)"/>
      <use xlink:href="#DejaVuSans-61" transform="translate(558.496094 0)"/>
      <use xlink:href="#DejaVuSans-63" transform="translate(619.775391 0)"/>
      <use xlink:href="#DejaVuSans-79" transform="translate(674.755859 0)"/>
     </g>
    </g>
    <g id="line2d_37">
     <path d="M 59.14375 50.372812 
L 69.14375 50.372812 
L 79.14375 50.372812 
" style="fill: none; stroke: #ff7f0e; stroke-width: 1.5; stroke-linecap: square"/>
    </g>
    <g id="text_21">
     <!-- val_accuracy -->
     <g transform="translate(87.14375 53.872812) scale(0.1 -0.1)">
      <defs>
       <path id="DejaVuSans-76" d="M 191 3500 
L 800 3500 
L 1894 563 
L 2988 3500 
L 3597 3500 
L 2284 0 
L 1503 0 
L 191 3500 
z
" transform="scale(0.015625)"/>
      </defs>
      <use xlink:href="#DejaVuSans-76"/>
      <use xlink:href="#DejaVuSans-61" transform="translate(59.179688 0)"/>
      <use xlink:href="#DejaVuSans-6c" transform="translate(120.458984 0)"/>
      <use xlink:href="#DejaVuSans-5f" transform="translate(148.242188 0)"/>
      <use xlink:href="#DejaVuSans-61" transform="translate(198.242188 0)"/>
      <use xlink:href="#DejaVuSans-63" transform="translate(259.521484 0)"/>
      <use xlink:href="#DejaVuSans-63" transform="translate(314.501953 0)"/>
      <use xlink:href="#DejaVuSans-75" transform="translate(369.482422 0)"/>
      <use xlink:href="#DejaVuSans-72" transform="translate(432.861328 0)"/>
      <use xlink:href="#DejaVuSans-61" transform="translate(473.974609 0)"/>
      <use xlink:href="#DejaVuSans-63" transform="translate(535.253906 0)"/>
      <use xlink:href="#DejaVuSans-79" transform="translate(590.234375 0)"/>
     </g>
    </g>
    <g id="line2d_38">
     <path d="M 59.14375 65.329062 
L 69.14375 65.329062 
L 79.14375 65.329062 
" style="fill: none; stroke-dasharray: 11.1,4.8; stroke-dashoffset: 0; stroke: #ff0000; stroke-width: 3"/>
    </g>
    <g id="text_22">
     <!-- Random-Guesser Accuracy -->
     <g transform="translate(87.14375 68.829062) scale(0.1 -0.1)">
      <defs>
       <path id="DejaVuSans-52" d="M 2841 2188 
Q 3044 2119 3236 1894 
Q 3428 1669 3622 1275 
L 4263 0 
L 3584 0 
L 2988 1197 
Q 2756 1666 2539 1819 
Q 2322 1972 1947 1972 
L 1259 1972 
L 1259 0 
L 628 0 
L 628 4666 
L 2053 4666 
Q 2853 4666 3247 4331 
Q 3641 3997 3641 3322 
Q 3641 2881 3436 2590 
Q 3231 2300 2841 2188 
z
M 1259 4147 
L 1259 2491 
L 2053 2491 
Q 2509 2491 2742 2702 
Q 2975 2913 2975 3322 
Q 2975 3731 2742 3939 
Q 2509 4147 2053 4147 
L 1259 4147 
z
" transform="scale(0.015625)"/>
       <path id="DejaVuSans-6d" d="M 3328 2828 
Q 3544 3216 3844 3400 
Q 4144 3584 4550 3584 
Q 5097 3584 5394 3201 
Q 5691 2819 5691 2113 
L 5691 0 
L 5113 0 
L 5113 2094 
Q 5113 2597 4934 2840 
Q 4756 3084 4391 3084 
Q 3944 3084 3684 2787 
Q 3425 2491 3425 1978 
L 3425 0 
L 2847 0 
L 2847 2094 
Q 2847 2600 2669 2842 
Q 2491 3084 2119 3084 
Q 1678 3084 1418 2786 
Q 1159 2488 1159 1978 
L 1159 0 
L 581 0 
L 581 3500 
L 1159 3500 
L 1159 2956 
Q 1356 3278 1631 3431 
Q 1906 3584 2284 3584 
Q 2666 3584 2933 3390 
Q 3200 3197 3328 2828 
z
" transform="scale(0.015625)"/>
       <path id="DejaVuSans-2d" d="M 313 2009 
L 1997 2009 
L 1997 1497 
L 313 1497 
L 313 2009 
z
" transform="scale(0.015625)"/>
       <path id="DejaVuSans-47" d="M 3809 666 
L 3809 1919 
L 2778 1919 
L 2778 2438 
L 4434 2438 
L 4434 434 
Q 4069 175 3628 42 
Q 3188 -91 2688 -91 
Q 1594 -91 976 548 
Q 359 1188 359 2328 
Q 359 3472 976 4111 
Q 1594 4750 2688 4750 
Q 3144 4750 3555 4637 
Q 3966 4525 4313 4306 
L 4313 3634 
Q 3963 3931 3569 4081 
Q 3175 4231 2741 4231 
Q 1884 4231 1454 3753 
Q 1025 3275 1025 2328 
Q 1025 1384 1454 906 
Q 1884 428 2741 428 
Q 3075 428 3337 486 
Q 3600 544 3809 666 
z
" transform="scale(0.015625)"/>
       <path id="DejaVuSans-65" d="M 3597 1894 
L 3597 1613 
L 953 1613 
Q 991 1019 1311 708 
Q 1631 397 2203 397 
Q 2534 397 2845 478 
Q 3156 559 3463 722 
L 3463 178 
Q 3153 47 2828 -22 
Q 2503 -91 2169 -91 
Q 1331 -91 842 396 
Q 353 884 353 1716 
Q 353 2575 817 3079 
Q 1281 3584 2069 3584 
Q 2775 3584 3186 3129 
Q 3597 2675 3597 1894 
z
M 3022 2063 
Q 3016 2534 2758 2815 
Q 2500 3097 2075 3097 
Q 1594 3097 1305 2825 
Q 1016 2553 972 2059 
L 3022 2063 
z
" transform="scale(0.015625)"/>
      </defs>
      <use xlink:href="#DejaVuSans-52"/>
      <use xlink:href="#DejaVuSans-61" transform="translate(67.232422 0)"/>
      <use xlink:href="#DejaVuSans-6e" transform="translate(128.511719 0)"/>
      <use xlink:href="#DejaVuSans-64" transform="translate(191.890625 0)"/>
      <use xlink:href="#DejaVuSans-6f" transform="translate(255.367188 0)"/>
      <use xlink:href="#DejaVuSans-6d" transform="translate(316.548828 0)"/>
      <use xlink:href="#DejaVuSans-2d" transform="translate(413.960938 0)"/>
      <use xlink:href="#DejaVuSans-47" transform="translate(453.669922 0)"/>
      <use xlink:href="#DejaVuSans-75" transform="translate(531.160156 0)"/>
      <use xlink:href="#DejaVuSans-65" transform="translate(594.539062 0)"/>
      <use xlink:href="#DejaVuSans-73" transform="translate(656.0625 0)"/>
      <use xlink:href="#DejaVuSans-73" transform="translate(708.162109 0)"/>
      <use xlink:href="#DejaVuSans-65" transform="translate(760.261719 0)"/>
      <use xlink:href="#DejaVuSans-72" transform="translate(821.785156 0)"/>
      <use xlink:href="#DejaVuSans-20" transform="translate(862.898438 0)"/>
      <use xlink:href="#DejaVuSans-41" transform="translate(894.685547 0)"/>
      <use xlink:href="#DejaVuSans-63" transform="translate(961.34375 0)"/>
      <use xlink:href="#DejaVuSans-63" transform="translate(1016.324219 0)"/>
      <use xlink:href="#DejaVuSans-75" transform="translate(1071.304688 0)"/>
      <use xlink:href="#DejaVuSans-72" transform="translate(1134.683594 0)"/>
      <use xlink:href="#DejaVuSans-61" transform="translate(1175.796875 0)"/>
      <use xlink:href="#DejaVuSans-63" transform="translate(1237.076172 0)"/>
      <use xlink:href="#DejaVuSans-79" transform="translate(1292.056641 0)"/>
     </g>
    </g>
   </g>
  </g>
 </g>
 <defs>
  <clipPath id="pd6ad4c8b76">
   <rect x="50.14375" y="22.318125" width="558" height="554.4"/>
  </clipPath>
 </defs>
</svg>
