<?xml version="1.0" encoding="utf-8" standalone="no"?>
<!DOCTYPE svg PUBLIC "-//W3C//DTD SVG 1.1//EN"
  "http://www.w3.org/Graphics/SVG/1.1/DTD/svg11.dtd">
<svg xmlns:xlink="http://www.w3.org/1999/xlink" width="605.803125pt" height="614.274375pt" viewBox="0 0 605.803125 614.274375" xmlns="http://www.w3.org/2000/svg" version="1.1">
 <metadata>
  <rdf:RDF xmlns:dc="http://purl.org/dc/elements/1.1/" xmlns:cc="http://creativecommons.org/ns#" xmlns:rdf="http://www.w3.org/1999/02/22-rdf-syntax-ns#">
   <cc:Work>
    <dc:type rdf:resource="http://purl.org/dc/dcmitype/StillImage"/>
    <dc:date>2026-05-23T12:36:10.524354</dc:date>
    <dc:format>image/svg+xml</dc:format>
    <dc:creator>
     <cc:Agent>
      <dc:title>Matplotlib v3.10.9, https://matplotlib.org/</dc:title>
     </cc:Agent>
    </dc:creator>
   </cc:Work>
  </rdf:RDF>
 </metadata>
 <defs>
  <style type="text/css">*{stroke-linejoin: round; stroke-linecap: butt}</style>
 </defs>
 <g id="figure_1">
  <g id="patch_1">
   <path d="M 0 614.274375 
L 605.803125 614.274375 
L 605.803125 0 
L 0 0 
z
" style="fill: #ffffff"/>
  </g>
  <g id="axes_1">
   <g id="patch_2">
    <path d="M 40.603125 576.718125 
L 598.603125 576.718125 
L 598.603125 22.318125 
L 40.603125 22.318125 
z
" style="fill: #ffffff"/>
   </g>
   <g id="matplotlib.axis_1">
    <g id="xtick_1">
     <g id="line2d_1">
      <path d="M 65.966761 576.718125 
L 65.966761 22.318125 
" clip-path="url(#p2681f64899)" style="fill: none; stroke: #b0b0b0; stroke-width: 0.8; stroke-linecap: square"/>
     </g>
     <g id="line2d_2">
      <defs>
       <path id="m97e2ff1781" d="M 0 0 
L 0 3.5 
" style="stroke: #000000; stroke-width: 0.8"/>
      </defs>
      <g>
       <use xlink:href="#m97e2ff1781" x="65.966761" y="576.718125" style="stroke: #000000; stroke-width: 0.8"/>
      </g>
     </g>
     <g id="text_1">
      <!-- 0 -->
      <g transform="translate(62.785511 591.316563) scale(0.1 -0.1)">
       <defs>
        <path id="DejaVuSans-30" d="M 2034 4250 
Q 1547 4250 1301 3770 
Q 1056 3291 1056 2328 
Q 1056 1369 1301 889 
Q 1547 409 2034 409 
Q 2525 409 2770 889 
Q 3016 1369 3016 2328 
Q 3016 3291 2770 3770 
Q 2525 4250 2034 4250 
z
M 2034 4750 
Q 2819 4750 3233 4129 
Q 3647 3509 3647 2328 
Q 3647 1150 3233 529 
Q 2819 -91 2034 -91 
Q 1250 -91 836 529 
Q 422 1150 422 2328 
Q 422 3509 836 4129 
Q 1250 4750 2034 4750 
z
" transform="scale(0.015625)"/>
       </defs>
       <use xlink:href="#DejaVuSans-30"/>
      </g>
     </g>
    </g>
    <g id="xtick_2">
     <g id="line2d_3">
      <path d="M 129.455213 576.718125 
L 129.455213 22.318125 
" clip-path="url(#p2681f64899)" style="fill: none; stroke: #b0b0b0; stroke-width: 0.8; stroke-linecap: square"/>
     </g>
     <g id="line2d_4">
      <g>
       <use xlink:href="#m97e2ff1781" x="129.455213" y="576.718125" style="stroke: #000000; stroke-width: 0.8"/>
      </g>
     </g>
     <g id="text_2">
      <!-- 100 -->
      <g transform="translate(119.911463 591.316563) scale(0.1 -0.1)">
       <defs>
        <path id="DejaVuSans-31" d="M 794 531 
L 1825 531 
L 1825 4091 
L 703 3866 
L 703 4441 
L 1819 4666 
L 2450 4666 
L 2450 531 
L 3481 531 
L 3481 0 
L 794 0 
L 794 531 
z
" transform="scale(0.015625)"/>
       </defs>
       <use xlink:href="#DejaVuSans-31"/>
       <use xlink:href="#DejaVuSans-30" transform="translate(63.623047 0)"/>
       <use xlink:href="#DejaVuSans-30" transform="translate(127.246094 0)"/>
      </g>
     </g>
    </g>
    <g id="xtick_3">
     <g id="line2d_5">
      <path d="M 192.943664 576.718125 
L 192.943664 22.318125 
" clip-path="url(#p2681f64899)" style="fill: none; stroke: #b0b0b0; stroke-width: 0.8; stroke-linecap: square"/>
     </g>
     <g id="line2d_6">
      <g>
       <use xlink:href="#m97e2ff1781" x="192.943664" y="576.718125" style="stroke: #000000; stroke-width: 0.8"/>
      </g>
     </g>
     <g id="text_3">
      <!-- 200 -->
      <g transform="translate(183.399914 591.316563) scale(0.1 -0.1)">
       <defs>
        <path id="DejaVuSans-32" d="M 1228 531 
L 3431 531 
L 3431 0 
L 469 0 
L 469 531 
Q 828 903 1448 1529 
Q 2069 2156 2228 2338 
Q 2531 2678 2651 2914 
Q 2772 3150 2772 3378 
Q 2772 3750 2511 3984 
Q 2250 4219 1831 4219 
Q 1534 4219 1204 4116 
Q 875 4013 500 3803 
L 500 4441 
Q 881 4594 1212 4672 
Q 1544 4750 1819 4750 
Q 2544 4750 2975 4387 
Q 3406 4025 3406 3419 
Q 3406 3131 3298 2873 
Q 3191 2616 2906 2266 
Q 2828 2175 2409 1742 
Q 1991 1309 1228 531 
z
" transform="scale(0.015625)"/>
       </defs>
       <use xlink:href="#DejaVuSans-32"/>
       <use xlink:href="#DejaVuSans-30" transform="translate(63.623047 0)"/>
       <use xlink:href="#DejaVuSans-30" transform="translate(127.246094 0)"/>
      </g>
     </g>
    </g>
    <g id="xtick_4">
     <g id="line2d_7">
      <path d="M 256.432116 576.718125 
L 256.432116 22.318125 
" clip-path="url(#p2681f64899)" style="fill: none; stroke: #b0b0b0; stroke-width: 0.8; stroke-linecap: square"/>
     </g>
     <g id="line2d_8">
      <g>
       <use xlink:href="#m97e2ff1781" x="256.432116" y="576.718125" style="stroke: #000000; stroke-width: 0.8"/>
      </g>
     </g>
     <g id="text_4">
      <!-- 300 -->
      <g transform="translate(246.888366 591.316563) scale(0.1 -0.1)">
       <defs>
        <path id="DejaVuSans-33" d="M 2597 2516 
Q 3050 2419 3304 2112 
Q 3559 1806 3559 1356 
Q 3559 666 3084 287 
Q 2609 -91 1734 -91 
Q 1441 -91 1130 -33 
Q 819 25 488 141 
L 488 750 
Q 750 597 1062 519 
Q 1375 441 1716 441 
Q 2309 441 2620 675 
Q 2931 909 2931 1356 
Q 2931 1769 2642 2001 
Q 2353 2234 1838 2234 
L 1294 2234 
L 1294 2753 
L 1863 2753 
Q 2328 2753 2575 2939 
Q 2822 3125 2822 3475 
Q 2822 3834 2567 4026 
Q 2313 4219 1838 4219 
Q 1578 4219 1281 4162 
Q 984 4106 628 3988 
L 628 4550 
Q 988 4650 1302 4700 
Q 1616 4750 1894 4750 
Q 2613 4750 3031 4423 
Q 3450 4097 3450 3541 
Q 3450 3153 3228 2886 
Q 3006 2619 2597 2516 
z
" transform="scale(0.015625)"/>
       </defs>
       <use xlink:href="#DejaVuSans-33"/>
       <use xlink:href="#DejaVuSans-30" transform="translate(63.623047 0)"/>
       <use xlink:href="#DejaVuSans-30" transform="translate(127.246094 0)"/>
      </g>
     </g>
    </g>
    <g id="xtick_5">
     <g id="line2d_9">
      <path d="M 319.920567 576.718125 
L 319.920567 22.318125 
" clip-path="url(#p2681f64899)" style="fill: none; stroke: #b0b0b0; stroke-width: 0.8; stroke-linecap: square"/>
     </g>
     <g id="line2d_10">
      <g>
       <use xlink:href="#m97e2ff1781" x="319.920567" y="576.718125" style="stroke: #000000; stroke-width: 0.8"/>
      </g>
     </g>
     <g id="text_5">
      <!-- 400 -->
      <g transform="translate(310.376817 591.316563) scale(0.1 -0.1)">
       <defs>
        <path id="DejaVuSans-34" d="M 2419 4116 
L 825 1625 
L 2419 1625 
L 2419 4116 
z
M 2253 4666 
L 3047 4666 
L 3047 1625 
L 3713 1625 
L 3713 1100 
L 3047 1100 
L 3047 0 
L 2419 0 
L 2419 1100 
L 313 1100 
L 313 1709 
L 2253 4666 
z
" transform="scale(0.015625)"/>
       </defs>
       <use xlink:href="#DejaVuSans-34"/>
       <use xlink:href="#DejaVuSans-30" transform="translate(63.623047 0)"/>
       <use xlink:href="#DejaVuSans-30" transform="translate(127.246094 0)"/>
      </g>
     </g>
    </g>
    <g id="xtick_6">
     <g id="line2d_11">
      <path d="M 383.409019 576.718125 
L 383.409019 22.318125 
" clip-path="url(#p2681f64899)" style="fill: none; stroke: #b0b0b0; stroke-width: 0.8; stroke-linecap: square"/>
     </g>
     <g id="line2d_12">
      <g>
       <use xlink:href="#m97e2ff1781" x="383.409019" y="576.718125" style="stroke: #000000; stroke-width: 0.8"/>
      </g>
     </g>
     <g id="text_6">
      <!-- 500 -->
      <g transform="translate(373.865269 591.316563) scale(0.1 -0.1)">
       <defs>
        <path id="DejaVuSans-35" d="M 691 4666 
L 3169 4666 
L 3169 4134 
L 1269 4134 
L 1269 2991 
Q 1406 3038 1543 3061 
Q 1681 3084 1819 3084 
Q 2600 3084 3056 2656 
Q 3513 2228 3513 1497 
Q 3513 744 3044 326 
Q 2575 -91 1722 -91 
Q 1428 -91 1123 -41 
Q 819 9 494 109 
L 494 744 
Q 775 591 1075 516 
Q 1375 441 1709 441 
Q 2250 441 2565 725 
Q 2881 1009 2881 1497 
Q 2881 1984 2565 2268 
Q 2250 2553 1709 2553 
Q 1456 2553 1204 2497 
Q 953 2441 691 2322 
L 691 4666 
z
" transform="scale(0.015625)"/>
       </defs>
       <use xlink:href="#DejaVuSans-35"/>
       <use xlink:href="#DejaVuSans-30" transform="translate(63.623047 0)"/>
       <use xlink:href="#DejaVuSans-30" transform="translate(127.246094 0)"/>
      </g>
     </g>
    </g>
    <g id="xtick_7">
     <g id="line2d_13">
      <path d="M 446.89747 576.718125 
L 446.89747 22.318125 
" clip-path="url(#p2681f64899)" style="fill: none; stroke: #b0b0b0; stroke-width: 0.8; stroke-linecap: square"/>
     </g>
     <g id="line2d_14">
      <g>
       <use xlink:href="#m97e2ff1781" x="446.89747" y="576.718125" style="stroke: #000000; stroke-width: 0.8"/>
      </g>
     </g>
     <g id="text_7">
      <!-- 600 -->
      <g transform="translate(437.35372 591.316563) scale(0.1 -0.1)">
       <defs>
        <path id="DejaVuSans-36" d="M 2113 2584 
Q 1688 2584 1439 2293 
Q 1191 2003 1191 1497 
Q 1191 994 1439 701 
Q 1688 409 2113 409 
Q 2538 409 2786 701 
Q 3034 994 3034 1497 
Q 3034 2003 2786 2293 
Q 2538 2584 2113 2584 
z
M 3366 4563 
L 3366 3988 
Q 3128 4100 2886 4159 
Q 2644 4219 2406 4219 
Q 1781 4219 1451 3797 
Q 1122 3375 1075 2522 
Q 1259 2794 1537 2939 
Q 1816 3084 2150 3084 
Q 2853 3084 3261 2657 
Q 3669 2231 3669 1497 
Q 3669 778 3244 343 
Q 2819 -91 2113 -91 
Q 1303 -91 875 529 
Q 447 1150 447 2328 
Q 447 3434 972 4092 
Q 1497 4750 2381 4750 
Q 2619 4750 2861 4703 
Q 3103 4656 3366 4563 
z
" transform="scale(0.015625)"/>
       </defs>
       <use xlink:href="#DejaVuSans-36"/>
       <use xlink:href="#DejaVuSans-30" transform="translate(63.623047 0)"/>
       <use xlink:href="#DejaVuSans-30" transform="translate(127.246094 0)"/>
      </g>
     </g>
    </g>
    <g id="xtick_8">
     <g id="line2d_15">
      <path d="M 510.385922 576.718125 
L 510.385922 22.318125 
" clip-path="url(#p2681f64899)" style="fill: none; stroke: #b0b0b0; stroke-width: 0.8; stroke-linecap: square"/>
     </g>
     <g id="line2d_16">
      <g>
       <use xlink:href="#m97e2ff1781" x="510.385922" y="576.718125" style="stroke: #000000; stroke-width: 0.8"/>
      </g>
     </g>
     <g id="text_8">
      <!-- 700 -->
      <g transform="translate(500.842172 591.316563) scale(0.1 -0.1)">
       <defs>
        <path id="DejaVuSans-37" d="M 525 4666 
L 3525 4666 
L 3525 4397 
L 1831 0 
L 1172 0 
L 2766 4134 
L 525 4134 
L 525 4666 
z
" transform="scale(0.015625)"/>
       </defs>
       <use xlink:href="#DejaVuSans-37"/>
       <use xlink:href="#DejaVuSans-30" transform="translate(63.623047 0)"/>
       <use xlink:href="#DejaVuSans-30" transform="translate(127.246094 0)"/>
      </g>
     </g>
    </g>
    <g id="xtick_9">
     <g id="line2d_17">
      <path d="M 573.874373 576.718125 
L 573.874373 22.318125 
" clip-path="url(#p2681f64899)" style="fill: none; stroke: #b0b0b0; stroke-width: 0.8; stroke-linecap: square"/>
     </g>
     <g id="line2d_18">
      <g>
       <use xlink:href="#m97e2ff1781" x="573.874373" y="576.718125" style="stroke: #000000; stroke-width: 0.8"/>
      </g>
     </g>
     <g id="text_9">
      <!-- 800 -->
      <g transform="translate(564.330623 591.316563) scale(0.1 -0.1)">
       <defs>
        <path id="DejaVuSans-38" d="M 2034 2216 
Q 1584 2216 1326 1975 
Q 1069 1734 1069 1313 
Q 1069 891 1326 650 
Q 1584 409 2034 409 
Q 2484 409 2743 651 
Q 3003 894 3003 1313 
Q 3003 1734 2745 1975 
Q 2488 2216 2034 2216 
z
M 1403 2484 
Q 997 2584 770 2862 
Q 544 3141 544 3541 
Q 544 4100 942 4425 
Q 1341 4750 2034 4750 
Q 2731 4750 3128 4425 
Q 3525 4100 3525 3541 
Q 3525 3141 3298 2862 
Q 3072 2584 2669 2484 
Q 3125 2378 3379 2068 
Q 3634 1759 3634 1313 
Q 3634 634 3220 271 
Q 2806 -91 2034 -91 
Q 1263 -91 848 271 
Q 434 634 434 1313 
Q 434 1759 690 2068 
Q 947 2378 1403 2484 
z
M 1172 3481 
Q 1172 3119 1398 2916 
Q 1625 2713 2034 2713 
Q 2441 2713 2670 2916 
Q 2900 3119 2900 3481 
Q 2900 3844 2670 4047 
Q 2441 4250 2034 4250 
Q 1625 4250 1398 4047 
Q 1172 3844 1172 3481 
z
" transform="scale(0.015625)"/>
       </defs>
       <use xlink:href="#DejaVuSans-38"/>
       <use xlink:href="#DejaVuSans-30" transform="translate(63.623047 0)"/>
       <use xlink:href="#DejaVuSans-30" transform="translate(127.246094 0)"/>
      </g>
     </g>
    </g>
    <g id="text_10">
     <!-- Epochs -->
     <g transform="translate(301.6875 604.994688) scale(0.1 -0.1)">
      <defs>
       <path id="DejaVuSans-45" d="M 628 4666 
L 3578 4666 
L 3578 4134 
L 1259 4134 
L 1259 2753 
L 3481 2753 
L 3481 2222 
L 1259 2222 
L 1259 531 
L 3634 531 
L 3634 0 
L 628 0 
L 628 4666 
z
" transform="scale(0.015625)"/>
       <path id="DejaVuSans-70" d="M 1159 525 
L 1159 -1331 
L 581 -1331 
L 581 3500 
L 1159 3500 
L 1159 2969 
Q 1341 3281 1617 3432 
Q 1894 3584 2278 3584 
Q 2916 3584 3314 3078 
Q 3713 2572 3713 1747 
Q 3713 922 3314 415 
Q 2916 -91 2278 -91 
Q 1894 -91 1617 61 
Q 1341 213 1159 525 
z
M 3116 1747 
Q 3116 2381 2855 2742 
Q 2594 3103 2138 3103 
Q 1681 3103 1420 2742 
Q 1159 2381 1159 1747 
Q 1159 1113 1420 752 
Q 1681 391 2138 391 
Q 2594 391 2855 752 
Q 3116 1113 3116 1747 
z
" transform="scale(0.015625)"/>
       <path id="DejaVuSans-6f" d="M 1959 3097 
Q 1497 3097 1228 2736 
Q 959 2375 959 1747 
Q 959 1119 1226 758 
Q 1494 397 1959 397 
Q 2419 397 2687 759 
Q 2956 1122 2956 1747 
Q 2956 2369 2687 2733 
Q 2419 3097 1959 3097 
z
M 1959 3584 
Q 2709 3584 3137 3096 
Q 3566 2609 3566 1747 
Q 3566 888 3137 398 
Q 2709 -91 1959 -91 
Q 1206 -91 779 398 
Q 353 888 353 1747 
Q 353 2609 779 3096 
Q 1206 3584 1959 3584 
z
" transform="scale(0.015625)"/>
       <path id="DejaVuSans-63" d="M 3122 3366 
L 3122 2828 
Q 2878 2963 2633 3030 
Q 2388 3097 2138 3097 
Q 1578 3097 1268 2742 
Q 959 2388 959 1747 
Q 959 1106 1268 751 
Q 1578 397 2138 397 
Q 2388 397 2633 464 
Q 2878 531 3122 666 
L 3122 134 
Q 2881 22 2623 -34 
Q 2366 -91 2075 -91 
Q 1284 -91 818 406 
Q 353 903 353 1747 
Q 353 2603 823 3093 
Q 1294 3584 2113 3584 
Q 2378 3584 2631 3529 
Q 2884 3475 3122 3366 
z
" transform="scale(0.015625)"/>
       <path id="DejaVuSans-68" d="M 3513 2113 
L 3513 0 
L 2938 0 
L 2938 2094 
Q 2938 2591 2744 2837 
Q 2550 3084 2163 3084 
Q 1697 3084 1428 2787 
Q 1159 2491 1159 1978 
L 1159 0 
L 581 0 
L 581 4863 
L 1159 4863 
L 1159 2956 
Q 1366 3272 1645 3428 
Q 1925 3584 2291 3584 
Q 2894 3584 3203 3211 
Q 3513 2838 3513 2113 
z
" transform="scale(0.015625)"/>
       <path id="DejaVuSans-73" d="M 2834 3397 
L 2834 2853 
Q 2591 2978 2328 3040 
Q 2066 3103 1784 3103 
Q 1356 3103 1142 2972 
Q 928 2841 928 2578 
Q 928 2378 1081 2264 
Q 1234 2150 1697 2047 
L 1894 2003 
Q 2506 1872 2764 1633 
Q 3022 1394 3022 966 
Q 3022 478 2636 193 
Q 2250 -91 1575 -91 
Q 1294 -91 989 -36 
Q 684 19 347 128 
L 347 722 
Q 666 556 975 473 
Q 1284 391 1588 391 
Q 1994 391 2212 530 
Q 2431 669 2431 922 
Q 2431 1156 2273 1281 
Q 2116 1406 1581 1522 
L 1381 1569 
Q 847 1681 609 1914 
Q 372 2147 372 2553 
Q 372 3047 722 3315 
Q 1072 3584 1716 3584 
Q 2034 3584 2315 3537 
Q 2597 3491 2834 3397 
z
" transform="scale(0.015625)"/>
      </defs>
      <use xlink:href="#DejaVuSans-45"/>
      <use xlink:href="#DejaVuSans-70" transform="translate(63.183594 0)"/>
      <use xlink:href="#DejaVuSans-6f" transform="translate(126.660156 0)"/>
      <use xlink:href="#DejaVuSans-63" transform="translate(187.841797 0)"/>
      <use xlink:href="#DejaVuSans-68" transform="translate(242.822266 0)"/>
      <use xlink:href="#DejaVuSans-73" transform="translate(306.201172 0)"/>
     </g>
    </g>
   </g>
   <g id="matplotlib.axis_2">
    <g id="ytick_1">
     <g id="line2d_19">
      <path d="M 40.603125 494.589512 
L 598.603125 494.589512 
" clip-path="url(#p2681f64899)" style="fill: none; stroke: #b0b0b0; stroke-width: 0.8; stroke-linecap: square"/>
     </g>
     <g id="line2d_20">
      <defs>
       <path id="m2091578c5f" d="M 0 0 
L -3.5 0 
" style="stroke: #000000; stroke-width: 0.8"/>
      </defs>
      <g>
       <use xlink:href="#m2091578c5f" x="40.603125" y="494.589512" style="stroke: #000000; stroke-width: 0.8"/>
      </g>
     </g>
     <g id="text_11">
      <!-- 4 -->
      <g transform="translate(27.240625 498.388731) scale(0.1 -0.1)">
       <use xlink:href="#DejaVuSans-34"/>
      </g>
     </g>
    </g>
    <g id="ytick_2">
     <g id="line2d_21">
      <path d="M 40.603125 404.916317 
L 598.603125 404.916317 
" clip-path="url(#p2681f64899)" style="fill: none; stroke: #b0b0b0; stroke-width: 0.8; stroke-linecap: square"/>
     </g>
     <g id="line2d_22">
      <g>
       <use xlink:href="#m2091578c5f" x="40.603125" y="404.916317" style="stroke: #000000; stroke-width: 0.8"/>
      </g>
     </g>
     <g id="text_12">
      <!-- 6 -->
      <g transform="translate(27.240625 408.715536) scale(0.1 -0.1)">
       <use xlink:href="#DejaVuSans-36"/>
      </g>
     </g>
    </g>
    <g id="ytick_3">
     <g id="line2d_23">
      <path d="M 40.603125 315.243122 
L 598.603125 315.243122 
" clip-path="url(#p2681f64899)" style="fill: none; stroke: #b0b0b0; stroke-width: 0.8; stroke-linecap: square"/>
     </g>
     <g id="line2d_24">
      <g>
       <use xlink:href="#m2091578c5f" x="40.603125" y="315.243122" style="stroke: #000000; stroke-width: 0.8"/>
      </g>
     </g>
     <g id="text_13">
      <!-- 8 -->
      <g transform="translate(27.240625 319.042341) scale(0.1 -0.1)">
       <use xlink:href="#DejaVuSans-38"/>
      </g>
     </g>
    </g>
    <g id="ytick_4">
     <g id="line2d_25">
      <path d="M 40.603125 225.569928 
L 598.603125 225.569928 
" clip-path="url(#p2681f64899)" style="fill: none; stroke: #b0b0b0; stroke-width: 0.8; stroke-linecap: square"/>
     </g>
     <g id="line2d_26">
      <g>
       <use xlink:href="#m2091578c5f" x="40.603125" y="225.569928" style="stroke: #000000; stroke-width: 0.8"/>
      </g>
     </g>
     <g id="text_14">
      <!-- 10 -->
      <g transform="translate(20.878125 229.369146) scale(0.1 -0.1)">
       <use xlink:href="#DejaVuSans-31"/>
       <use xlink:href="#DejaVuSans-30" transform="translate(63.623047 0)"/>
      </g>
     </g>
    </g>
    <g id="ytick_5">
     <g id="line2d_27">
      <path d="M 40.603125 135.896733 
L 598.603125 135.896733 
" clip-path="url(#p2681f64899)" style="fill: none; stroke: #b0b0b0; stroke-width: 0.8; stroke-linecap: square"/>
     </g>
     <g id="line2d_28">
      <g>
       <use xlink:href="#m2091578c5f" x="40.603125" y="135.896733" style="stroke: #000000; stroke-width: 0.8"/>
      </g>
     </g>
     <g id="text_15">
      <!-- 12 -->
      <g transform="translate(20.878125 139.695952) scale(0.1 -0.1)">
       <use xlink:href="#DejaVuSans-31"/>
       <use xlink:href="#DejaVuSans-32" transform="translate(63.623047 0)"/>
      </g>
     </g>
    </g>
    <g id="ytick_6">
     <g id="line2d_29">
      <path d="M 40.603125 46.223538 
L 598.603125 46.223538 
" clip-path="url(#p2681f64899)" style="fill: none; stroke: #b0b0b0; stroke-width: 0.8; stroke-linecap: square"/>
     </g>
     <g id="line2d_30">
      <g>
       <use xlink:href="#m2091578c5f" x="40.603125" y="46.223538" style="stroke: #000000; stroke-width: 0.8"/>
      </g>
     </g>
     <g id="text_16">
      <!-- 14 -->
      <g transform="translate(20.878125 50.022757) scale(0.1 -0.1)">
       <use xlink:href="#DejaVuSans-31"/>
       <use xlink:href="#DejaVuSans-34" transform="translate(63.623047 0)"/>
      </g>
     </g>
    </g>
    <g id="text_17">
     <!-- Loss -->
     <g transform="translate(14.798437 310.485313) rotate(-90) scale(0.1 -0.1)">
      <defs>
       <path id="DejaVuSans-4c" d="M 628 4666 
L 1259 4666 
L 1259 531 
L 3531 531 
L 3531 0 
L 628 0 
L 628 4666 
z
" transform="scale(0.015625)"/>
      </defs>
      <use xlink:href="#DejaVuSans-4c"/>
      <use xlink:href="#DejaVuSans-6f" transform="translate(53.962891 0)"/>
      <use xlink:href="#DejaVuSans-73" transform="translate(115.144531 0)"/>
      <use xlink:href="#DejaVuSans-73" transform="translate(167.244141 0)"/>
     </g>
    </g>
   </g>
   <g id="line2d_31">
    <path d="M 65.966761 425.041359 
L 66.601646 425.319916 
L 74.22026 426.663783 
L 78.029567 427.654414 
L 81.20399 428.694347 
L 83.743528 429.784351 
L 85.013297 430.539527 
L 86.283066 431.564536 
L 90.727257 435.68743 
L 93.266795 437.526474 
L 97.710987 440.294425 
L 105.329601 444.577624 
L 118.662176 451.621291 
L 128.820328 456.642733 
L 134.534289 459.348299 
L 142.152903 462.763308 
L 151.041286 466.558023 
L 171.357591 474.505263 
L 178.34132 477.055076 
L 184.690166 479.309507 
L 203.101817 485.442483 
L 220.243698 490.723496 
L 229.766966 493.484799 
L 239.290234 496.164847 
L 257.067 500.896497 
L 288.811226 508.61879 
L 295.160071 510.057124 
L 324.999643 516.476556 
L 331.983373 517.891906 
L 338.332218 519.158988 
L 349.125255 521.244498 
L 352.934562 521.969635 
L 358.648523 523.029397 
L 370.711328 525.216579 
L 380.869481 526.99795 
L 385.313672 527.740694 
L 424.676512 533.985443 
L 436.739318 535.729892 
L 481.181234 541.640036 
L 488.164964 542.487968 
L 490.704502 542.80178 
L 493.24404 543.109392 
L 498.958 543.754387 
L 517.369651 545.835653 
L 540.225494 548.257498 
L 544.034801 548.668289 
L 545.939455 548.830893 
L 551.018531 549.353222 
L 559.906914 550.2324 
L 573.239489 551.518125 
L 573.239489 551.518125 
" clip-path="url(#p2681f64899)" style="fill: none; stroke: #1f77b4; stroke-width: 1.5; stroke-linecap: square"/>
   </g>
   <g id="line2d_32">
    <path d="M 65.966761 425.166538 
L 67.871415 425.212012 
L 72.950491 425.033406 
L 78.029567 424.627126 
L 84.378412 424.073604 
L 86.283066 424.556595 
L 88.822604 425.522297 
L 90.727257 426.004132 
L 93.90168 426.116248 
L 96.441218 426.13457 
L 97.710987 426.002101 
L 100.88541 425.724271 
L 102.155179 425.52606 
L 108.504024 424.422501 
L 109.773793 424.017269 
L 110.408677 424.008097 
L 112.948215 423.281121 
L 113.5831 423.273232 
L 114.852869 422.997583 
L 115.487754 422.755051 
L 117.392407 422.331368 
L 120.56683 421.297914 
L 121.201714 421.251541 
L 122.471483 420.851932 
L 123.741252 420.582975 
L 124.376137 420.180287 
L 125.011021 420.113432 
L 128.185444 418.988494 
L 130.724982 418.327945 
L 131.994751 417.809721 
L 132.629635 417.728114 
L 137.708712 415.814241 
L 138.343596 415.666058 
L 138.978481 415.397721 
L 139.613365 414.990821 
L 140.24825 414.964417 
L 140.883134 414.530964 
L 141.518019 414.488739 
L 142.152903 414.113418 
L 142.787788 414.028326 
L 143.422672 413.716524 
L 144.057557 413.571697 
L 144.692441 413.237746 
L 145.96221 412.841386 
L 146.597095 412.338043 
L 147.866864 412.039368 
L 148.501748 411.657867 
L 149.136633 411.584193 
L 149.771517 411.138617 
L 150.406402 411.004673 
L 151.041286 410.613124 
L 151.676171 410.491602 
L 152.94594 409.872871 
L 153.580824 409.589162 
L 154.215709 409.511596 
L 154.850593 409.027858 
L 155.485478 408.897185 
L 156.120362 408.519041 
L 156.755247 408.500975 
L 157.390131 407.978262 
L 158.025016 407.944332 
L 158.659901 407.349376 
L 160.564554 406.685257 
L 161.834323 406.150998 
L 162.469208 406.118116 
L 163.738977 405.132381 
L 164.373861 405.11718 
L 165.008746 404.906269 
L 165.64363 404.386741 
L 166.278515 404.162659 
L 166.913399 403.71997 
L 168.183168 403.424844 
L 168.818053 402.887956 
L 170.087822 402.524628 
L 171.357591 401.927256 
L 171.992475 401.616095 
L 172.62736 401.505391 
L 173.262244 401.172273 
L 173.897129 401.062445 
L 174.532013 400.430951 
L 175.801782 400.021615 
L 176.436667 399.571229 
L 177.706436 399.140341 
L 178.34132 398.867428 
L 179.61109 397.950493 
L 180.880859 397.678393 
L 181.515743 397.2877 
L 182.150628 397.113091 
L 182.785512 396.365462 
L 183.420397 396.451046 
L 184.055281 396.221192 
L 184.690166 395.84773 
L 185.32505 395.721932 
L 185.959935 395.184808 
L 186.594819 394.8162 
L 187.229704 394.710434 
L 187.864588 394.373169 
L 188.499473 393.867281 
L 189.134357 393.725725 
L 189.769242 393.318719 
L 191.039011 392.904892 
L 191.673895 392.698792 
L 192.30878 392.355091 
L 192.943664 392.160471 
L 193.578549 391.420282 
L 194.213433 391.262222 
L 196.752971 389.938644 
L 198.02274 389.360386 
L 198.657625 389.261718 
L 199.292509 388.559329 
L 199.927394 388.232646 
L 200.562278 388.426561 
L 201.197163 387.779566 
L 201.832048 387.499705 
L 202.466932 387.004101 
L 203.101817 386.653559 
L 203.736701 386.160969 
L 206.276239 385.111352 
L 208.180893 383.994986 
L 208.815777 383.925481 
L 209.450662 383.496282 
L 210.085546 383.210755 
L 210.720431 383.081429 
L 211.355315 382.633395 
L 211.9902 381.891261 
L 212.625084 381.49208 
L 213.259969 381.46435 
L 213.894853 381.050673 
L 215.164622 380.658034 
L 216.434391 379.591163 
L 217.069276 379.723439 
L 217.70416 379.009698 
L 220.878583 377.336967 
L 221.513467 376.51173 
L 222.148352 376.660127 
L 222.783237 376.269411 
L 223.418121 375.576429 
L 224.053006 375.578054 
L 224.68789 375.284852 
L 225.957659 374.27778 
L 226.592544 373.779012 
L 227.227428 373.802423 
L 227.862313 372.939621 
L 228.497197 373.100611 
L 229.766966 372.57375 
L 232.306504 370.881243 
L 232.941389 370.356306 
L 233.576273 370.186037 
L 234.211158 369.660801 
L 234.846042 369.523928 
L 235.480927 369.048827 
L 236.115811 368.82962 
L 237.38558 367.778976 
L 238.020465 367.426274 
L 238.655349 367.271164 
L 240.560003 366.024425 
L 241.194887 365.397891 
L 241.829772 365.352566 
L 242.464656 365.040849 
L 243.099541 364.580992 
L 244.36931 364.153932 
L 245.004195 363.547024 
L 245.639079 362.783639 
L 246.273964 362.578906 
L 246.908848 362.515494 
L 247.543733 361.387434 
L 248.813502 361.217272 
L 249.448386 360.652548 
L 250.083271 360.360586 
L 250.718155 359.611289 
L 251.35304 359.665936 
L 252.622809 358.71381 
L 253.257693 358.068163 
L 253.892578 358.226394 
L 254.527462 357.321047 
L 255.162347 357.323677 
L 255.797231 356.477616 
L 257.067 355.982033 
L 258.336769 354.888865 
L 258.971654 355.027299 
L 259.606538 354.176983 
L 260.241423 353.606999 
L 260.876307 353.637999 
L 262.146076 352.684313 
L 262.780961 352.534098 
L 263.415845 352.228689 
L 264.05073 350.921872 
L 264.685614 351.215074 
L 265.320499 350.727359 
L 265.955384 350.054859 
L 266.590268 349.797212 
L 267.225153 348.885985 
L 269.129806 347.958596 
L 269.764691 347.19722 
L 270.399575 347.120124 
L 271.03446 346.399819 
L 271.669344 346.160088 
L 272.304229 345.785664 
L 272.939113 344.861503 
L 273.573998 345.083981 
L 274.208882 344.630217 
L 274.843767 344.369041 
L 275.478651 343.389015 
L 276.74842 343.11653 
L 277.383305 342.452133 
L 278.018189 342.147108 
L 278.653074 341.463661 
L 279.287958 341.033543 
L 279.922843 340.930193 
L 281.192612 339.594151 
L 282.462381 338.727544 
L 283.097265 338.458715 
L 285.001919 337.178966 
L 285.636803 336.210719 
L 286.271688 336.061424 
L 286.906572 335.778036 
L 287.541457 335.195993 
L 288.176342 335.354374 
L 288.811226 334.788901 
L 290.080995 333.21843 
L 290.71588 333.403172 
L 291.350764 332.80377 
L 291.985649 331.912918 
L 292.620533 331.403118 
L 293.255418 331.442136 
L 293.890302 330.565459 
L 294.525187 330.328571 
L 295.794956 329.016303 
L 296.42984 328.66157 
L 297.064725 328.07925 
L 297.699609 328.101741 
L 299.604263 326.072076 
L 300.239147 324.992911 
L 300.874032 325.38617 
L 301.508916 324.977432 
L 302.143801 324.797757 
L 302.778685 324.285327 
L 303.41357 323.161799 
L 304.048454 322.794858 
L 304.683339 322.782886 
L 305.318223 321.919122 
L 305.953108 320.814558 
L 307.222877 320.133421 
L 307.857761 320.147617 
L 308.492646 319.95738 
L 309.127531 318.741428 
L 309.762415 318.482604 
L 310.3973 317.627072 
L 311.032184 317.16373 
L 311.667069 317.084497 
L 312.301953 316.604051 
L 313.571722 315.180907 
L 314.206607 314.449848 
L 314.841491 314.712135 
L 315.476376 314.018191 
L 316.11126 312.682597 
L 316.746145 312.53234 
L 317.381029 312.254575 
L 318.015914 311.737826 
L 318.650798 310.754999 
L 319.285683 311.440006 
L 319.920567 309.819207 
L 320.555452 309.749167 
L 321.190336 309.149165 
L 321.825221 308.832873 
L 322.460105 307.886006 
L 323.09499 307.55338 
L 323.729874 307.603623 
L 324.364759 306.171051 
L 325.634528 305.388295 
L 326.269412 304.122956 
L 326.904297 304.2597 
L 327.539181 303.871359 
L 328.174066 303.331263 
L 328.80895 303.409385 
L 329.443835 301.310876 
L 330.078719 301.391392 
L 330.713604 301.327339 
L 331.983373 299.790134 
L 332.618258 298.757492 
L 333.253142 299.322645 
L 333.888027 298.055937 
L 334.522911 297.228455 
L 335.157796 297.611409 
L 335.79268 296.147409 
L 336.427565 296.104564 
L 337.062449 295.349388 
L 339.601987 293.360515 
L 340.236872 292.430538 
L 340.871756 292.31915 
L 341.506641 291.784442 
L 342.141525 291.582446 
L 342.77641 290.871142 
L 343.411294 289.755204 
L 344.046179 289.019997 
L 344.681063 289.126211 
L 345.315948 287.675167 
L 345.950832 287.358277 
L 346.585717 287.695564 
L 347.220601 286.246871 
L 347.855486 286.192738 
L 348.49037 285.609798 
L 349.125255 284.254962 
L 349.760139 284.147508 
L 350.395024 283.07899 
L 351.029908 282.689665 
L 351.664793 282.709078 
L 352.299678 280.933318 
L 352.934562 281.093495 
L 353.569447 280.681593 
L 354.204331 279.073493 
L 354.839216 278.804536 
L 355.4741 278.111746 
L 356.743869 277.408865 
L 357.378754 277.54142 
L 358.013638 275.701906 
L 358.648523 275.254171 
L 359.283407 275.219322 
L 359.918292 274.18467 
L 360.553176 274.157646 
L 361.188061 273.179308 
L 361.822945 273.457416 
L 362.45783 272.877383 
L 363.092714 271.093243 
L 363.727599 270.784476 
L 364.362483 270.6051 
L 364.997368 269.545306 
L 365.632252 268.242552 
L 366.267137 268.916997 
L 366.902021 267.712847 
L 367.536906 267.407287 
L 368.17179 266.813871 
L 368.806675 265.273716 
L 369.441559 264.465775 
L 370.076444 264.895081 
L 370.711328 264.261983 
L 371.346213 262.809272 
L 371.981097 262.458729 
L 373.250866 262.947727 
L 373.885751 260.852126 
L 374.520636 260.023233 
L 375.15552 259.79866 
L 375.790405 259.348146 
L 376.425289 256.872584 
L 377.060174 257.454626 
L 377.695058 256.953827 
L 378.329943 255.432443 
L 378.964827 255.44215 
L 379.599712 254.547065 
L 380.234596 254.991507 
L 380.869481 253.094781 
L 381.504365 252.700367 
L 382.13925 252.485629 
L 382.774134 251.377131 
L 383.409019 251.332362 
L 384.043903 249.940455 
L 384.678788 250.310624 
L 385.313672 248.744557 
L 385.948557 247.995923 
L 386.583441 246.257877 
L 387.218326 246.828503 
L 387.85321 245.57659 
L 388.488095 246.45239 
L 389.122979 245.213604 
L 390.392748 244.122424 
L 392.297402 242.183238 
L 392.932286 241.845694 
L 393.567171 241.264037 
L 394.202055 240.918967 
L 394.83694 239.008515 
L 395.471825 237.987204 
L 396.106709 237.279919 
L 396.741594 236.971238 
L 397.376478 236.028348 
L 398.011363 235.300667 
L 398.646247 235.208264 
L 399.281132 233.985427 
L 399.916016 234.226804 
L 400.550901 233.384998 
L 401.185785 233.021713 
L 402.455554 229.862427 
L 403.090439 232.331575 
L 403.725323 230.621622 
L 404.360208 229.634091 
L 404.995092 230.210617 
L 405.629977 227.795859 
L 406.264861 226.646569 
L 407.53463 226.104122 
L 408.169515 224.84045 
L 408.804399 224.084847 
L 409.439284 223.049853 
L 410.074168 223.858093 
L 410.709053 222.418552 
L 411.343937 220.502883 
L 411.978822 219.47349 
L 412.613706 220.020684 
L 413.248591 219.625415 
L 413.883475 218.818457 
L 414.51836 219.430517 
L 415.153244 215.123565 
L 415.788129 216.719564 
L 416.423013 217.881767 
L 417.057898 215.215113 
L 418.327667 213.826626 
L 418.962552 212.937656 
L 419.597436 213.668202 
L 420.232321 212.143099 
L 420.867205 211.477162 
L 421.50209 209.758829 
L 422.136974 210.996503 
L 422.771859 210.400863 
L 423.406743 209.539002 
L 424.041628 207.215664 
L 424.676512 207.078876 
L 425.946281 206.473059 
L 426.581166 204.452929 
L 427.21605 204.216597 
L 427.850935 205.1603 
L 428.485819 203.842238 
L 429.120704 201.961845 
L 431.025357 199.784788 
L 431.660242 199.812068 
L 432.295126 198.26721 
L 432.930011 198.273325 
L 433.564895 195.977866 
L 434.19978 197.050189 
L 434.834664 196.689127 
L 435.469549 195.078248 
L 436.104433 194.250168 
L 436.739318 194.146262 
L 437.374202 193.504313 
L 438.009087 192.566811 
L 438.643972 192.412193 
L 439.278856 192.087862 
L 439.913741 190.447393 
L 440.548625 189.972805 
L 441.818394 189.296307 
L 442.453279 186.949323 
L 443.088163 186.95253 
L 443.723048 186.316482 
L 444.357932 186.090199 
L 444.992817 184.073575 
L 445.627701 184.300842 
L 446.262586 183.947734 
L 446.89747 184.376569 
L 447.532355 181.934787 
L 448.167239 180.723453 
L 448.802124 180.157616 
L 449.437008 179.323335 
L 450.071893 179.617863 
L 450.706777 178.921995 
L 451.341662 177.946351 
L 451.976546 176.698115 
L 452.611431 176.194494 
L 453.246315 175.968125 
L 453.8812 176.036454 
L 454.516084 174.682817 
L 455.150969 173.662831 
L 455.785853 171.814038 
L 456.420738 172.817433 
L 457.690507 169.808874 
L 458.325391 169.352373 
L 458.960276 169.586653 
L 459.59516 168.840157 
L 460.230045 168.649022 
L 460.86493 167.561092 
L 461.499814 166.176667 
L 462.134699 165.670095 
L 462.769583 163.657576 
L 463.404468 164.885586 
L 464.039352 164.697787 
L 464.674237 162.227527 
L 465.309121 163.97917 
L 465.944006 161.415866 
L 466.57889 161.298192 
L 467.213775 160.329304 
L 467.848659 160.335846 
L 469.118428 157.372954 
L 469.753313 157.341697 
L 470.388197 156.831148 
L 471.023082 155.673905 
L 471.657966 156.256161 
L 472.292851 155.807999 
L 472.927735 153.145791 
L 473.56262 154.233551 
L 474.197504 152.716443 
L 474.832389 152.899197 
L 475.467273 152.210555 
L 476.102158 151.708815 
L 477.371927 148.215235 
L 478.006811 148.503391 
L 478.641696 147.81817 
L 479.27658 146.184244 
L 480.546349 146.700479 
L 481.181234 145.042821 
L 481.816119 144.682957 
L 482.451003 143.841193 
L 483.085888 142.126794 
L 483.720772 143.549103 
L 484.355657 142.387199 
L 484.990541 142.013866 
L 485.625426 141.038436 
L 486.26031 140.671303 
L 488.164964 136.774072 
L 488.799848 136.018512 
L 489.434733 136.157395 
L 490.069617 136.607054 
L 490.704502 133.975291 
L 491.339386 133.866084 
L 491.974271 132.732443 
L 492.609155 132.445399 
L 493.24404 131.377908 
L 493.878924 131.914155 
L 494.513809 132.189996 
L 495.148693 130.097688 
L 495.783578 129.856097 
L 496.418462 128.225078 
L 497.053347 127.724834 
L 497.688231 126.381587 
L 498.323116 125.335732 
L 498.958 125.303363 
L 500.227769 123.64408 
L 500.862654 123.24368 
L 501.497538 123.845777 
L 502.132423 123.665375 
L 502.767308 121.199434 
L 503.402192 120.275956 
L 504.037077 119.657782 
L 504.671961 118.561001 
L 505.306846 119.641234 
L 505.94173 119.531813 
L 506.576615 115.729124 
L 507.211499 115.177954 
L 507.846384 116.643194 
L 508.481268 114.926742 
L 509.116153 115.120699 
L 509.751037 114.758611 
L 510.385922 113.870795 
L 511.020806 111.712723 
L 511.655691 111.95906 
L 512.290575 111.81449 
L 512.92546 109.552555 
L 513.560344 110.568307 
L 514.195229 107.2742 
L 514.830113 108.471338 
L 515.464998 107.973147 
L 516.099882 106.794609 
L 516.734767 107.278904 
L 517.369651 106.605527 
L 518.004536 106.892657 
L 518.63942 106.275937 
L 519.274305 102.694272 
L 519.909189 104.232374 
L 520.544074 102.273518 
L 521.178958 102.487187 
L 521.813843 101.038581 
L 522.448727 100.842656 
L 523.083612 97.964257 
L 523.718496 99.751519 
L 524.353381 98.114899 
L 524.988266 98.818464 
L 525.62315 98.721443 
L 526.258035 95.460816 
L 526.892919 96.551654 
L 527.527804 95.024156 
L 528.162688 94.191928 
L 528.797573 94.32786 
L 529.432457 93.704298 
L 530.067342 89.766703 
L 530.702226 92.472653 
L 531.337111 90.811361 
L 531.971995 91.603737 
L 532.60688 89.611956 
L 533.241764 90.898419 
L 533.876649 87.494634 
L 534.511533 87.707063 
L 535.146418 88.482293 
L 535.781302 85.545014 
L 536.416187 85.669102 
L 537.051071 85.916038 
L 537.685956 83.809448 
L 538.32084 82.677433 
L 538.955725 82.400565 
L 539.590609 81.24717 
L 540.225494 81.292922 
L 540.860378 82.926934 
L 541.495263 81.108501 
L 542.130147 78.25178 
L 542.765032 80.044259 
L 544.034801 76.97186 
L 544.669685 75.82381 
L 545.30457 75.247198 
L 545.939455 75.538048 
L 546.574339 76.770933 
L 547.209224 75.067565 
L 547.844108 75.704981 
L 548.478993 69.898154 
L 549.113877 72.222604 
L 549.748762 72.897947 
L 550.383646 71.056082 
L 551.018531 70.431707 
L 552.2883 68.231431 
L 552.923184 68.828952 
L 553.558069 67.238299 
L 554.192953 66.582667 
L 554.827838 67.424816 
L 555.462722 65.722987 
L 556.097607 66.457681 
L 556.732491 64.941984 
L 557.367376 64.537693 
L 558.00226 65.683392 
L 558.637145 61.908411 
L 559.272029 60.841604 
L 559.906914 62.124817 
L 560.541798 60.441375 
L 561.176683 59.124638 
L 562.446452 59.584688 
L 563.081336 57.854424 
L 563.716221 56.528324 
L 564.98599 56.558854 
L 565.620874 55.20047 
L 566.255759 55.04568 
L 566.890643 54.100439 
L 567.525528 52.206278 
L 568.160413 53.491757 
L 568.795297 51.984613 
L 569.430182 52.854384 
L 570.065066 51.381276 
L 570.699951 48.925512 
L 571.334835 52.291968 
L 572.604604 47.518125 
L 573.239489 47.732478 
L 573.239489 47.732478 
" clip-path="url(#p2681f64899)" style="fill: none; stroke: #ff7f0e; stroke-width: 1.5; stroke-linecap: square"/>
   </g>
   <g id="patch_3">
    <path d="M 40.603125 576.718125 
L 40.603125 22.318125 
" style="fill: none; stroke: #000000; stroke-width: 0.8; stroke-linejoin: miter; stroke-linecap: square"/>
   </g>
   <g id="patch_4">
    <path d="M 598.603125 576.718125 
L 598.603125 22.318125 
" style="fill: none; stroke: #000000; stroke-width: 0.8; stroke-linejoin: miter; stroke-linecap: square"/>
   </g>
   <g id="patch_5">
    <path d="M 40.603125 576.718125 
L 598.603125 576.718125 
" style="fill: none; stroke: #000000; stroke-width: 0.8; stroke-linejoin: miter; stroke-linecap: square"/>
   </g>
   <g id="patch_6">
    <path d="M 40.603125 22.318125 
L 598.603125 22.318125 
" style="fill: none; stroke: #000000; stroke-width: 0.8; stroke-linejoin: miter; stroke-linecap: square"/>
   </g>
   <g id="text_18">
    <!-- Train and Val Loss -->
    <g transform="translate(266.057812 16.318125) scale(0.12 -0.12)">
     <defs>
      <path id="DejaVuSans-54" d="M -19 4666 
L 3928 4666 
L 3928 4134 
L 2272 4134 
L 2272 0 
L 1638 0 
L 1638 4134 
L -19 4134 
L -19 4666 
z
" transform="scale(0.015625)"/>
      <path id="DejaVuSans-72" d="M 2631 2963 
Q 2534 3019 2420 3045 
Q 2306 3072 2169 3072 
Q 1681 3072 1420 2755 
Q 1159 2438 1159 1844 
L 1159 0 
L 581 0 
L 581 3500 
L 1159 3500 
L 1159 2956 
Q 1341 3275 1631 3429 
Q 1922 3584 2338 3584 
Q 2397 3584 2469 3576 
Q 2541 3569 2628 3553 
L 2631 2963 
z
" transform="scale(0.015625)"/>
      <path id="DejaVuSans-61" d="M 2194 1759 
Q 1497 1759 1228 1600 
Q 959 1441 959 1056 
Q 959 750 1161 570 
Q 1363 391 1709 391 
Q 2188 391 2477 730 
Q 2766 1069 2766 1631 
L 2766 1759 
L 2194 1759 
z
M 3341 1997 
L 3341 0 
L 2766 0 
L 2766 531 
Q 2569 213 2275 61 
Q 1981 -91 1556 -91 
Q 1019 -91 701 211 
Q 384 513 384 1019 
Q 384 1609 779 1909 
Q 1175 2209 1959 2209 
L 2766 2209 
L 2766 2266 
Q 2766 2663 2505 2880 
Q 2244 3097 1772 3097 
Q 1472 3097 1187 3025 
Q 903 2953 641 2809 
L 641 3341 
Q 956 3463 1253 3523 
Q 1550 3584 1831 3584 
Q 2591 3584 2966 3190 
Q 3341 2797 3341 1997 
z
" transform="scale(0.015625)"/>
      <path id="DejaVuSans-69" d="M 603 3500 
L 1178 3500 
L 1178 0 
L 603 0 
L 603 3500 
z
M 603 4863 
L 1178 4863 
L 1178 4134 
L 603 4134 
L 603 4863 
z
" transform="scale(0.015625)"/>
      <path id="DejaVuSans-6e" d="M 3513 2113 
L 3513 0 
L 2938 0 
L 2938 2094 
Q 2938 2591 2744 2837 
Q 2550 3084 2163 3084 
Q 1697 3084 1428 2787 
Q 1159 2491 1159 1978 
L 1159 0 
L 581 0 
L 581 3500 
L 1159 3500 
L 1159 2956 
Q 1366 3272 1645 3428 
Q 1925 3584 2291 3584 
Q 2894 3584 3203 3211 
Q 3513 2838 3513 2113 
z
" transform="scale(0.015625)"/>
      <path id="DejaVuSans-20" transform="scale(0.015625)"/>
      <path id="DejaVuSans-64" d="M 2906 2969 
L 2906 4863 
L 3481 4863 
L 3481 0 
L 2906 0 
L 2906 525 
Q 2725 213 2448 61 
Q 2172 -91 1784 -91 
Q 1150 -91 751 415 
Q 353 922 353 1747 
Q 353 2572 751 3078 
Q 1150 3584 1784 3584 
Q 2172 3584 2448 3432 
Q 2725 3281 2906 2969 
z
M 947 1747 
Q 947 1113 1208 752 
Q 1469 391 1925 391 
Q 2381 391 2643 752 
Q 2906 1113 2906 1747 
Q 2906 2381 2643 2742 
Q 2381 3103 1925 3103 
Q 1469 3103 1208 2742 
Q 947 2381 947 1747 
z
" transform="scale(0.015625)"/>
      <path id="DejaVuSans-56" d="M 1831 0 
L 50 4666 
L 709 4666 
L 2188 738 
L 3669 4666 
L 4325 4666 
L 2547 0 
L 1831 0 
z
" transform="scale(0.015625)"/>
      <path id="DejaVuSans-6c" d="M 603 4863 
L 1178 4863 
L 1178 0 
L 603 0 
L 603 4863 
z
" transform="scale(0.015625)"/>
     </defs>
     <use xlink:href="#DejaVuSans-54"/>
     <use xlink:href="#DejaVuSans-72" transform="translate(46.333984 0)"/>
     <use xlink:href="#DejaVuSans-61" transform="translate(87.447266 0)"/>
     <use xlink:href="#DejaVuSans-69" transform="translate(148.726562 0)"/>
     <use xlink:href="#DejaVuSans-6e" transform="translate(176.509766 0)"/>
     <use xlink:href="#DejaVuSans-20" transform="translate(239.888672 0)"/>
     <use xlink:href="#DejaVuSans-61" transform="translate(271.675781 0)"/>
     <use xlink:href="#DejaVuSans-6e" transform="translate(332.955078 0)"/>
     <use xlink:href="#DejaVuSans-64" transform="translate(396.333984 0)"/>
     <use xlink:href="#DejaVuSans-20" transform="translate(459.810547 0)"/>
     <use xlink:href="#DejaVuSans-56" transform="translate(491.597656 0)"/>
     <use xlink:href="#DejaVuSans-61" transform="translate(552.255859 0)"/>
     <use xlink:href="#DejaVuSans-6c" transform="translate(613.535156 0)"/>
     <use xlink:href="#DejaVuSans-20" transform="translate(641.318359 0)"/>
     <use xlink:href="#DejaVuSans-4c" transform="translate(673.105469 0)"/>
     <use xlink:href="#DejaVuSans-6f" transform="translate(727.068359 0)"/>
     <use xlink:href="#DejaVuSans-73" transform="translate(788.25 0)"/>
     <use xlink:href="#DejaVuSans-73" transform="translate(840.349609 0)"/>
    </g>
   </g>
   <g id="legend_1">
    <g id="patch_7">
     <path d="M 47.603125 60.230625 
L 127.19375 60.230625 
Q 129.19375 60.230625 129.19375 58.230625 
L 129.19375 29.318125 
Q 129.19375 27.318125 127.19375 27.318125 
L 47.603125 27.318125 
Q 45.603125 27.318125 45.603125 29.318125 
L 45.603125 58.230625 
Q 45.603125 60.230625 47.603125 60.230625 
z
" style="fill: #ffffff; opacity: 0.8; stroke: #cccccc; stroke-linejoin: miter"/>
    </g>
    <g id="line2d_33">
     <path d="M 49.603125 35.416563 
L 59.603125 35.416563 
L 69.603125 35.416563 
" style="fill: none; stroke: #1f77b4; stroke-width: 1.5; stroke-linecap: square"/>
    </g>
    <g id="text_19">
     <!-- train_loss -->
     <g transform="translate(77.603125 38.916563) scale(0.1 -0.1)">
      <defs>
       <path id="DejaVuSans-74" d="M 1172 4494 
L 1172 3500 
L 2356 3500 
L 2356 3053 
L 1172 3053 
L 1172 1153 
Q 1172 725 1289 603 
Q 1406 481 1766 481 
L 2356 481 
L 2356 0 
L 1766 0 
Q 1100 0 847 248 
Q 594 497 594 1153 
L 594 3053 
L 172 3053 
L 172 3500 
L 594 3500 
L 594 4494 
L 1172 4494 
z
" transform="scale(0.015625)"/>
       <path id="DejaVuSans-5f" d="M 3263 -1063 
L 3263 -1509 
L -63 -1509 
L -63 -1063 
L 3263 -1063 
z
" transform="scale(0.015625)"/>
      </defs>
      <use xlink:href="#DejaVuSans-74"/>
      <use xlink:href="#DejaVuSans-72" transform="translate(39.208984 0)"/>
      <use xlink:href="#DejaVuSans-61" transform="translate(80.322266 0)"/>
      <use xlink:href="#DejaVuSans-69" transform="translate(141.601562 0)"/>
      <use xlink:href="#DejaVuSans-6e" transform="translate(169.384766 0)"/>
      <use xlink:href="#DejaVuSans-5f" transform="translate(232.763672 0)"/>
      <use xlink:href="#DejaVuSans-6c" transform="translate(282.763672 0)"/>
      <use xlink:href="#DejaVuSans-6f" transform="translate(310.546875 0)"/>
      <use xlink:href="#DejaVuSans-73" transform="translate(371.728516 0)"/>
      <use xlink:href="#DejaVuSans-73" transform="translate(423.828125 0)"/>
     </g>
    </g>
    <g id="line2d_34">
     <path d="M 49.603125 50.372813 
L 59.603125 50.372813 
L 69.603125 50.372813 
" style="fill: none; stroke: #ff7f0e; stroke-width: 1.5; stroke-linecap: square"/>
    </g>
    <g id="text_20">
     <!-- val_loss -->
     <g transform="translate(77.603125 53.872813) scale(0.1 -0.1)">
      <defs>
       <path id="DejaVuSans-76" d="M 191 3500 
L 800 3500 
L 1894 563 
L 2988 3500 
L 3597 3500 
L 2284 0 
L 1503 0 
L 191 3500 
z
" transform="scale(0.015625)"/>
      </defs>
      <use xlink:href="#DejaVuSans-76"/>
      <use xlink:href="#DejaVuSans-61" transform="translate(59.179688 0)"/>
      <use xlink:href="#DejaVuSans-6c" transform="translate(120.458984 0)"/>
      <use xlink:href="#DejaVuSans-5f" transform="translate(148.242188 0)"/>
      <use xlink:href="#DejaVuSans-6c" transform="translate(198.242188 0)"/>
      <use xlink:href="#DejaVuSans-6f" transform="translate(226.025391 0)"/>
      <use xlink:href="#DejaVuSans-73" transform="translate(287.207031 0)"/>
      <use xlink:href="#DejaVuSans-73" transform="translate(339.306641 0)"/>
     </g>
    </g>
   </g>
  </g>
 </g>
 <defs>
  <clipPath id="p2681f64899">
   <rect x="40.603125" y="22.318125" width="558" height="554.4"/>
  </clipPath>
 </defs>
</svg>
