<?xml version="1.0" encoding="utf-8" standalone="no"?>
<!DOCTYPE svg PUBLIC "-//W3C//DTD SVG 1.1//EN"
  "http://www.w3.org/Graphics/SVG/1.1/DTD/svg11.dtd">
<svg xmlns:xlink="http://www.w3.org/1999/xlink" width="605.803125pt" height="614.274375pt" viewBox="0 0 605.803125 614.274375" xmlns="http://www.w3.org/2000/svg" version="1.1">
 <metadata>
  <rdf:RDF xmlns:dc="http://purl.org/dc/elements/1.1/" xmlns:cc="http://creativecommons.org/ns#" xmlns:rdf="http://www.w3.org/1999/02/22-rdf-syntax-ns#">
   <cc:Work>
    <dc:type rdf:resource="http://purl.org/dc/dcmitype/StillImage"/>
    <dc:date>2026-05-24T02:02:07.672301</dc:date>
    <dc:format>image/svg+xml</dc:format>
    <dc:creator>
     <cc:Agent>
      <dc:title>Matplotlib v3.10.9, https://matplotlib.org/</dc:title>
     </cc:Agent>
    </dc:creator>
   </cc:Work>
  </rdf:RDF>
 </metadata>
 <defs>
  <style type="text/css">*{stroke-linejoin: round; stroke-linecap: butt}</style>
 </defs>
 <g id="figure_1">
  <g id="patch_1">
   <path d="M 0 614.274375 
L 605.803125 614.274375 
L 605.803125 0 
L 0 0 
z
" style="fill: #ffffff"/>
  </g>
  <g id="axes_1">
   <g id="patch_2">
    <path d="M 40.603125 576.718125 
L 598.603125 576.718125 
L 598.603125 22.318125 
L 40.603125 22.318125 
z
" style="fill: #ffffff"/>
   </g>
   <g id="matplotlib.axis_1">
    <g id="xtick_1">
     <g id="line2d_1">
      <path d="M 65.966761 576.718125 
L 65.966761 22.318125 
" clip-path="url(#p7cc2003e48)" style="fill: none; stroke: #b0b0b0; stroke-width: 0.8; stroke-linecap: square"/>
     </g>
     <g id="line2d_2">
      <defs>
       <path id="m29ec940515" d="M 0 0 
L 0 3.5 
" style="stroke: #000000; stroke-width: 0.8"/>
      </defs>
      <g>
       <use xlink:href="#m29ec940515" x="65.966761" y="576.718125" style="stroke: #000000; stroke-width: 0.8"/>
      </g>
     </g>
     <g id="text_1">
      <!-- 0 -->
      <g transform="translate(62.785511 591.316563) scale(0.1 -0.1)">
       <defs>
        <path id="DejaVuSans-30" d="M 2034 4250 
Q 1547 4250 1301 3770 
Q 1056 3291 1056 2328 
Q 1056 1369 1301 889 
Q 1547 409 2034 409 
Q 2525 409 2770 889 
Q 3016 1369 3016 2328 
Q 3016 3291 2770 3770 
Q 2525 4250 2034 4250 
z
M 2034 4750 
Q 2819 4750 3233 4129 
Q 3647 3509 3647 2328 
Q 3647 1150 3233 529 
Q 2819 -91 2034 -91 
Q 1250 -91 836 529 
Q 422 1150 422 2328 
Q 422 3509 836 4129 
Q 1250 4750 2034 4750 
z
" transform="scale(0.015625)"/>
       </defs>
       <use xlink:href="#DejaVuSans-30"/>
      </g>
     </g>
    </g>
    <g id="xtick_2">
     <g id="line2d_3">
      <path d="M 129.455213 576.718125 
L 129.455213 22.318125 
" clip-path="url(#p7cc2003e48)" style="fill: none; stroke: #b0b0b0; stroke-width: 0.8; stroke-linecap: square"/>
     </g>
     <g id="line2d_4">
      <g>
       <use xlink:href="#m29ec940515" x="129.455213" y="576.718125" style="stroke: #000000; stroke-width: 0.8"/>
      </g>
     </g>
     <g id="text_2">
      <!-- 100 -->
      <g transform="translate(119.911463 591.316563) scale(0.1 -0.1)">
       <defs>
        <path id="DejaVuSans-31" d="M 794 531 
L 1825 531 
L 1825 4091 
L 703 3866 
L 703 4441 
L 1819 4666 
L 2450 4666 
L 2450 531 
L 3481 531 
L 3481 0 
L 794 0 
L 794 531 
z
" transform="scale(0.015625)"/>
       </defs>
       <use xlink:href="#DejaVuSans-31"/>
       <use xlink:href="#DejaVuSans-30" transform="translate(63.623047 0)"/>
       <use xlink:href="#DejaVuSans-30" transform="translate(127.246094 0)"/>
      </g>
     </g>
    </g>
    <g id="xtick_3">
     <g id="line2d_5">
      <path d="M 192.943664 576.718125 
L 192.943664 22.318125 
" clip-path="url(#p7cc2003e48)" style="fill: none; stroke: #b0b0b0; stroke-width: 0.8; stroke-linecap: square"/>
     </g>
     <g id="line2d_6">
      <g>
       <use xlink:href="#m29ec940515" x="192.943664" y="576.718125" style="stroke: #000000; stroke-width: 0.8"/>
      </g>
     </g>
     <g id="text_3">
      <!-- 200 -->
      <g transform="translate(183.399914 591.316563) scale(0.1 -0.1)">
       <defs>
        <path id="DejaVuSans-32" d="M 1228 531 
L 3431 531 
L 3431 0 
L 469 0 
L 469 531 
Q 828 903 1448 1529 
Q 2069 2156 2228 2338 
Q 2531 2678 2651 2914 
Q 2772 3150 2772 3378 
Q 2772 3750 2511 3984 
Q 2250 4219 1831 4219 
Q 1534 4219 1204 4116 
Q 875 4013 500 3803 
L 500 4441 
Q 881 4594 1212 4672 
Q 1544 4750 1819 4750 
Q 2544 4750 2975 4387 
Q 3406 4025 3406 3419 
Q 3406 3131 3298 2873 
Q 3191 2616 2906 2266 
Q 2828 2175 2409 1742 
Q 1991 1309 1228 531 
z
" transform="scale(0.015625)"/>
       </defs>
       <use xlink:href="#DejaVuSans-32"/>
       <use xlink:href="#DejaVuSans-30" transform="translate(63.623047 0)"/>
       <use xlink:href="#DejaVuSans-30" transform="translate(127.246094 0)"/>
      </g>
     </g>
    </g>
    <g id="xtick_4">
     <g id="line2d_7">
      <path d="M 256.432116 576.718125 
L 256.432116 22.318125 
" clip-path="url(#p7cc2003e48)" style="fill: none; stroke: #b0b0b0; stroke-width: 0.8; stroke-linecap: square"/>
     </g>
     <g id="line2d_8">
      <g>
       <use xlink:href="#m29ec940515" x="256.432116" y="576.718125" style="stroke: #000000; stroke-width: 0.8"/>
      </g>
     </g>
     <g id="text_4">
      <!-- 300 -->
      <g transform="translate(246.888366 591.316563) scale(0.1 -0.1)">
       <defs>
        <path id="DejaVuSans-33" d="M 2597 2516 
Q 3050 2419 3304 2112 
Q 3559 1806 3559 1356 
Q 3559 666 3084 287 
Q 2609 -91 1734 -91 
Q 1441 -91 1130 -33 
Q 819 25 488 141 
L 488 750 
Q 750 597 1062 519 
Q 1375 441 1716 441 
Q 2309 441 2620 675 
Q 2931 909 2931 1356 
Q 2931 1769 2642 2001 
Q 2353 2234 1838 2234 
L 1294 2234 
L 1294 2753 
L 1863 2753 
Q 2328 2753 2575 2939 
Q 2822 3125 2822 3475 
Q 2822 3834 2567 4026 
Q 2313 4219 1838 4219 
Q 1578 4219 1281 4162 
Q 984 4106 628 3988 
L 628 4550 
Q 988 4650 1302 4700 
Q 1616 4750 1894 4750 
Q 2613 4750 3031 4423 
Q 3450 4097 3450 3541 
Q 3450 3153 3228 2886 
Q 3006 2619 2597 2516 
z
" transform="scale(0.015625)"/>
       </defs>
       <use xlink:href="#DejaVuSans-33"/>
       <use xlink:href="#DejaVuSans-30" transform="translate(63.623047 0)"/>
       <use xlink:href="#DejaVuSans-30" transform="translate(127.246094 0)"/>
      </g>
     </g>
    </g>
    <g id="xtick_5">
     <g id="line2d_9">
      <path d="M 319.920567 576.718125 
L 319.920567 22.318125 
" clip-path="url(#p7cc2003e48)" style="fill: none; stroke: #b0b0b0; stroke-width: 0.8; stroke-linecap: square"/>
     </g>
     <g id="line2d_10">
      <g>
       <use xlink:href="#m29ec940515" x="319.920567" y="576.718125" style="stroke: #000000; stroke-width: 0.8"/>
      </g>
     </g>
     <g id="text_5">
      <!-- 400 -->
      <g transform="translate(310.376817 591.316563) scale(0.1 -0.1)">
       <defs>
        <path id="DejaVuSans-34" d="M 2419 4116 
L 825 1625 
L 2419 1625 
L 2419 4116 
z
M 2253 4666 
L 3047 4666 
L 3047 1625 
L 3713 1625 
L 3713 1100 
L 3047 1100 
L 3047 0 
L 2419 0 
L 2419 1100 
L 313 1100 
L 313 1709 
L 2253 4666 
z
" transform="scale(0.015625)"/>
       </defs>
       <use xlink:href="#DejaVuSans-34"/>
       <use xlink:href="#DejaVuSans-30" transform="translate(63.623047 0)"/>
       <use xlink:href="#DejaVuSans-30" transform="translate(127.246094 0)"/>
      </g>
     </g>
    </g>
    <g id="xtick_6">
     <g id="line2d_11">
      <path d="M 383.409019 576.718125 
L 383.409019 22.318125 
" clip-path="url(#p7cc2003e48)" style="fill: none; stroke: #b0b0b0; stroke-width: 0.8; stroke-linecap: square"/>
     </g>
     <g id="line2d_12">
      <g>
       <use xlink:href="#m29ec940515" x="383.409019" y="576.718125" style="stroke: #000000; stroke-width: 0.8"/>
      </g>
     </g>
     <g id="text_6">
      <!-- 500 -->
      <g transform="translate(373.865269 591.316563) scale(0.1 -0.1)">
       <defs>
        <path id="DejaVuSans-35" d="M 691 4666 
L 3169 4666 
L 3169 4134 
L 1269 4134 
L 1269 2991 
Q 1406 3038 1543 3061 
Q 1681 3084 1819 3084 
Q 2600 3084 3056 2656 
Q 3513 2228 3513 1497 
Q 3513 744 3044 326 
Q 2575 -91 1722 -91 
Q 1428 -91 1123 -41 
Q 819 9 494 109 
L 494 744 
Q 775 591 1075 516 
Q 1375 441 1709 441 
Q 2250 441 2565 725 
Q 2881 1009 2881 1497 
Q 2881 1984 2565 2268 
Q 2250 2553 1709 2553 
Q 1456 2553 1204 2497 
Q 953 2441 691 2322 
L 691 4666 
z
" transform="scale(0.015625)"/>
       </defs>
       <use xlink:href="#DejaVuSans-35"/>
       <use xlink:href="#DejaVuSans-30" transform="translate(63.623047 0)"/>
       <use xlink:href="#DejaVuSans-30" transform="translate(127.246094 0)"/>
      </g>
     </g>
    </g>
    <g id="xtick_7">
     <g id="line2d_13">
      <path d="M 446.89747 576.718125 
L 446.89747 22.318125 
" clip-path="url(#p7cc2003e48)" style="fill: none; stroke: #b0b0b0; stroke-width: 0.8; stroke-linecap: square"/>
     </g>
     <g id="line2d_14">
      <g>
       <use xlink:href="#m29ec940515" x="446.89747" y="576.718125" style="stroke: #000000; stroke-width: 0.8"/>
      </g>
     </g>
     <g id="text_7">
      <!-- 600 -->
      <g transform="translate(437.35372 591.316563) scale(0.1 -0.1)">
       <defs>
        <path id="DejaVuSans-36" d="M 2113 2584 
Q 1688 2584 1439 2293 
Q 1191 2003 1191 1497 
Q 1191 994 1439 701 
Q 1688 409 2113 409 
Q 2538 409 2786 701 
Q 3034 994 3034 1497 
Q 3034 2003 2786 2293 
Q 2538 2584 2113 2584 
z
M 3366 4563 
L 3366 3988 
Q 3128 4100 2886 4159 
Q 2644 4219 2406 4219 
Q 1781 4219 1451 3797 
Q 1122 3375 1075 2522 
Q 1259 2794 1537 2939 
Q 1816 3084 2150 3084 
Q 2853 3084 3261 2657 
Q 3669 2231 3669 1497 
Q 3669 778 3244 343 
Q 2819 -91 2113 -91 
Q 1303 -91 875 529 
Q 447 1150 447 2328 
Q 447 3434 972 4092 
Q 1497 4750 2381 4750 
Q 2619 4750 2861 4703 
Q 3103 4656 3366 4563 
z
" transform="scale(0.015625)"/>
       </defs>
       <use xlink:href="#DejaVuSans-36"/>
       <use xlink:href="#DejaVuSans-30" transform="translate(63.623047 0)"/>
       <use xlink:href="#DejaVuSans-30" transform="translate(127.246094 0)"/>
      </g>
     </g>
    </g>
    <g id="xtick_8">
     <g id="line2d_15">
      <path d="M 510.385922 576.718125 
L 510.385922 22.318125 
" clip-path="url(#p7cc2003e48)" style="fill: none; stroke: #b0b0b0; stroke-width: 0.8; stroke-linecap: square"/>
     </g>
     <g id="line2d_16">
      <g>
       <use xlink:href="#m29ec940515" x="510.385922" y="576.718125" style="stroke: #000000; stroke-width: 0.8"/>
      </g>
     </g>
     <g id="text_8">
      <!-- 700 -->
      <g transform="translate(500.842172 591.316563) scale(0.1 -0.1)">
       <defs>
        <path id="DejaVuSans-37" d="M 525 4666 
L 3525 4666 
L 3525 4397 
L 1831 0 
L 1172 0 
L 2766 4134 
L 525 4134 
L 525 4666 
z
" transform="scale(0.015625)"/>
       </defs>
       <use xlink:href="#DejaVuSans-37"/>
       <use xlink:href="#DejaVuSans-30" transform="translate(63.623047 0)"/>
       <use xlink:href="#DejaVuSans-30" transform="translate(127.246094 0)"/>
      </g>
     </g>
    </g>
    <g id="xtick_9">
     <g id="line2d_17">
      <path d="M 573.874373 576.718125 
L 573.874373 22.318125 
" clip-path="url(#p7cc2003e48)" style="fill: none; stroke: #b0b0b0; stroke-width: 0.8; stroke-linecap: square"/>
     </g>
     <g id="line2d_18">
      <g>
       <use xlink:href="#m29ec940515" x="573.874373" y="576.718125" style="stroke: #000000; stroke-width: 0.8"/>
      </g>
     </g>
     <g id="text_9">
      <!-- 800 -->
      <g transform="translate(564.330623 591.316563) scale(0.1 -0.1)">
       <defs>
        <path id="DejaVuSans-38" d="M 2034 2216 
Q 1584 2216 1326 1975 
Q 1069 1734 1069 1313 
Q 1069 891 1326 650 
Q 1584 409 2034 409 
Q 2484 409 2743 651 
Q 3003 894 3003 1313 
Q 3003 1734 2745 1975 
Q 2488 2216 2034 2216 
z
M 1403 2484 
Q 997 2584 770 2862 
Q 544 3141 544 3541 
Q 544 4100 942 4425 
Q 1341 4750 2034 4750 
Q 2731 4750 3128 4425 
Q 3525 4100 3525 3541 
Q 3525 3141 3298 2862 
Q 3072 2584 2669 2484 
Q 3125 2378 3379 2068 
Q 3634 1759 3634 1313 
Q 3634 634 3220 271 
Q 2806 -91 2034 -91 
Q 1263 -91 848 271 
Q 434 634 434 1313 
Q 434 1759 690 2068 
Q 947 2378 1403 2484 
z
M 1172 3481 
Q 1172 3119 1398 2916 
Q 1625 2713 2034 2713 
Q 2441 2713 2670 2916 
Q 2900 3119 2900 3481 
Q 2900 3844 2670 4047 
Q 2441 4250 2034 4250 
Q 1625 4250 1398 4047 
Q 1172 3844 1172 3481 
z
" transform="scale(0.015625)"/>
       </defs>
       <use xlink:href="#DejaVuSans-38"/>
       <use xlink:href="#DejaVuSans-30" transform="translate(63.623047 0)"/>
       <use xlink:href="#DejaVuSans-30" transform="translate(127.246094 0)"/>
      </g>
     </g>
    </g>
    <g id="text_10">
     <!-- Epochs -->
     <g transform="translate(301.6875 604.994688) scale(0.1 -0.1)">
      <defs>
       <path id="DejaVuSans-45" d="M 628 4666 
L 3578 4666 
L 3578 4134 
L 1259 4134 
L 1259 2753 
L 3481 2753 
L 3481 2222 
L 1259 2222 
L 1259 531 
L 3634 531 
L 3634 0 
L 628 0 
L 628 4666 
z
" transform="scale(0.015625)"/>
       <path id="DejaVuSans-70" d="M 1159 525 
L 1159 -1331 
L 581 -1331 
L 581 3500 
L 1159 3500 
L 1159 2969 
Q 1341 3281 1617 3432 
Q 1894 3584 2278 3584 
Q 2916 3584 3314 3078 
Q 3713 2572 3713 1747 
Q 3713 922 3314 415 
Q 2916 -91 2278 -91 
Q 1894 -91 1617 61 
Q 1341 213 1159 525 
z
M 3116 1747 
Q 3116 2381 2855 2742 
Q 2594 3103 2138 3103 
Q 1681 3103 1420 2742 
Q 1159 2381 1159 1747 
Q 1159 1113 1420 752 
Q 1681 391 2138 391 
Q 2594 391 2855 752 
Q 3116 1113 3116 1747 
z
" transform="scale(0.015625)"/>
       <path id="DejaVuSans-6f" d="M 1959 3097 
Q 1497 3097 1228 2736 
Q 959 2375 959 1747 
Q 959 1119 1226 758 
Q 1494 397 1959 397 
Q 2419 397 2687 759 
Q 2956 1122 2956 1747 
Q 2956 2369 2687 2733 
Q 2419 3097 1959 3097 
z
M 1959 3584 
Q 2709 3584 3137 3096 
Q 3566 2609 3566 1747 
Q 3566 888 3137 398 
Q 2709 -91 1959 -91 
Q 1206 -91 779 398 
Q 353 888 353 1747 
Q 353 2609 779 3096 
Q 1206 3584 1959 3584 
z
" transform="scale(0.015625)"/>
       <path id="DejaVuSans-63" d="M 3122 3366 
L 3122 2828 
Q 2878 2963 2633 3030 
Q 2388 3097 2138 3097 
Q 1578 3097 1268 2742 
Q 959 2388 959 1747 
Q 959 1106 1268 751 
Q 1578 397 2138 397 
Q 2388 397 2633 464 
Q 2878 531 3122 666 
L 3122 134 
Q 2881 22 2623 -34 
Q 2366 -91 2075 -91 
Q 1284 -91 818 406 
Q 353 903 353 1747 
Q 353 2603 823 3093 
Q 1294 3584 2113 3584 
Q 2378 3584 2631 3529 
Q 2884 3475 3122 3366 
z
" transform="scale(0.015625)"/>
       <path id="DejaVuSans-68" d="M 3513 2113 
L 3513 0 
L 2938 0 
L 2938 2094 
Q 2938 2591 2744 2837 
Q 2550 3084 2163 3084 
Q 1697 3084 1428 2787 
Q 1159 2491 1159 1978 
L 1159 0 
L 581 0 
L 581 4863 
L 1159 4863 
L 1159 2956 
Q 1366 3272 1645 3428 
Q 1925 3584 2291 3584 
Q 2894 3584 3203 3211 
Q 3513 2838 3513 2113 
z
" transform="scale(0.015625)"/>
       <path id="DejaVuSans-73" d="M 2834 3397 
L 2834 2853 
Q 2591 2978 2328 3040 
Q 2066 3103 1784 3103 
Q 1356 3103 1142 2972 
Q 928 2841 928 2578 
Q 928 2378 1081 2264 
Q 1234 2150 1697 2047 
L 1894 2003 
Q 2506 1872 2764 1633 
Q 3022 1394 3022 966 
Q 3022 478 2636 193 
Q 2250 -91 1575 -91 
Q 1294 -91 989 -36 
Q 684 19 347 128 
L 347 722 
Q 666 556 975 473 
Q 1284 391 1588 391 
Q 1994 391 2212 530 
Q 2431 669 2431 922 
Q 2431 1156 2273 1281 
Q 2116 1406 1581 1522 
L 1381 1569 
Q 847 1681 609 1914 
Q 372 2147 372 2553 
Q 372 3047 722 3315 
Q 1072 3584 1716 3584 
Q 2034 3584 2315 3537 
Q 2597 3491 2834 3397 
z
" transform="scale(0.015625)"/>
      </defs>
      <use xlink:href="#DejaVuSans-45"/>
      <use xlink:href="#DejaVuSans-70" transform="translate(63.183594 0)"/>
      <use xlink:href="#DejaVuSans-6f" transform="translate(126.660156 0)"/>
      <use xlink:href="#DejaVuSans-63" transform="translate(187.841797 0)"/>
      <use xlink:href="#DejaVuSans-68" transform="translate(242.822266 0)"/>
      <use xlink:href="#DejaVuSans-73" transform="translate(306.201172 0)"/>
     </g>
    </g>
   </g>
   <g id="matplotlib.axis_2">
    <g id="ytick_1">
     <g id="line2d_19">
      <path d="M 40.603125 551.788986 
L 598.603125 551.788986 
" clip-path="url(#p7cc2003e48)" style="fill: none; stroke: #b0b0b0; stroke-width: 0.8; stroke-linecap: square"/>
     </g>
     <g id="line2d_20">
      <defs>
       <path id="m4bedd7101d" d="M 0 0 
L -3.5 0 
" style="stroke: #000000; stroke-width: 0.8"/>
      </defs>
      <g>
       <use xlink:href="#m4bedd7101d" x="40.603125" y="551.788986" style="stroke: #000000; stroke-width: 0.8"/>
      </g>
     </g>
     <g id="text_11">
      <!-- 0 -->
      <g transform="translate(27.240625 555.588205) scale(0.1 -0.1)">
       <use xlink:href="#DejaVuSans-30"/>
      </g>
     </g>
    </g>
    <g id="ytick_2">
     <g id="line2d_21">
      <path d="M 40.603125 435.281472 
L 598.603125 435.281472 
" clip-path="url(#p7cc2003e48)" style="fill: none; stroke: #b0b0b0; stroke-width: 0.8; stroke-linecap: square"/>
     </g>
     <g id="line2d_22">
      <g>
       <use xlink:href="#m4bedd7101d" x="40.603125" y="435.281472" style="stroke: #000000; stroke-width: 0.8"/>
      </g>
     </g>
     <g id="text_12">
      <!-- 10 -->
      <g transform="translate(20.878125 439.080691) scale(0.1 -0.1)">
       <use xlink:href="#DejaVuSans-31"/>
       <use xlink:href="#DejaVuSans-30" transform="translate(63.623047 0)"/>
      </g>
     </g>
    </g>
    <g id="ytick_3">
     <g id="line2d_23">
      <path d="M 40.603125 318.773959 
L 598.603125 318.773959 
" clip-path="url(#p7cc2003e48)" style="fill: none; stroke: #b0b0b0; stroke-width: 0.8; stroke-linecap: square"/>
     </g>
     <g id="line2d_24">
      <g>
       <use xlink:href="#m4bedd7101d" x="40.603125" y="318.773959" style="stroke: #000000; stroke-width: 0.8"/>
      </g>
     </g>
     <g id="text_13">
      <!-- 20 -->
      <g transform="translate(20.878125 322.573177) scale(0.1 -0.1)">
       <use xlink:href="#DejaVuSans-32"/>
       <use xlink:href="#DejaVuSans-30" transform="translate(63.623047 0)"/>
      </g>
     </g>
    </g>
    <g id="ytick_4">
     <g id="line2d_25">
      <path d="M 40.603125 202.266445 
L 598.603125 202.266445 
" clip-path="url(#p7cc2003e48)" style="fill: none; stroke: #b0b0b0; stroke-width: 0.8; stroke-linecap: square"/>
     </g>
     <g id="line2d_26">
      <g>
       <use xlink:href="#m4bedd7101d" x="40.603125" y="202.266445" style="stroke: #000000; stroke-width: 0.8"/>
      </g>
     </g>
     <g id="text_14">
      <!-- 30 -->
      <g transform="translate(20.878125 206.065663) scale(0.1 -0.1)">
       <use xlink:href="#DejaVuSans-33"/>
       <use xlink:href="#DejaVuSans-30" transform="translate(63.623047 0)"/>
      </g>
     </g>
    </g>
    <g id="ytick_5">
     <g id="line2d_27">
      <path d="M 40.603125 85.758931 
L 598.603125 85.758931 
" clip-path="url(#p7cc2003e48)" style="fill: none; stroke: #b0b0b0; stroke-width: 0.8; stroke-linecap: square"/>
     </g>
     <g id="line2d_28">
      <g>
       <use xlink:href="#m4bedd7101d" x="40.603125" y="85.758931" style="stroke: #000000; stroke-width: 0.8"/>
      </g>
     </g>
     <g id="text_15">
      <!-- 40 -->
      <g transform="translate(20.878125 89.558149) scale(0.1 -0.1)">
       <use xlink:href="#DejaVuSans-34"/>
       <use xlink:href="#DejaVuSans-30" transform="translate(63.623047 0)"/>
      </g>
     </g>
    </g>
    <g id="text_16">
     <!-- Loss -->
     <g transform="translate(14.798437 310.485313) rotate(-90) scale(0.1 -0.1)">
      <defs>
       <path id="DejaVuSans-4c" d="M 628 4666 
L 1259 4666 
L 1259 531 
L 3531 531 
L 3531 0 
L 628 0 
L 628 4666 
z
" transform="scale(0.015625)"/>
      </defs>
      <use xlink:href="#DejaVuSans-4c"/>
      <use xlink:href="#DejaVuSans-6f" transform="translate(53.962891 0)"/>
      <use xlink:href="#DejaVuSans-73" transform="translate(115.144531 0)"/>
      <use xlink:href="#DejaVuSans-73" transform="translate(167.244141 0)"/>
     </g>
    </g>
   </g>
   <g id="line2d_29">
    <path d="M 65.966761 530.829655 
L 66.601646 531.21659 
L 78.664452 532.050536 
L 88.822604 533.081745 
L 102.790063 534.769168 
L 134.534289 538.684227 
L 148.501748 540.310133 
L 171.992475 542.855864 
L 181.515743 543.813827 
L 203.736701 545.866825 
L 229.132082 547.786468 
L 251.35304 549.028636 
L 268.494922 549.723126 
L 285.636803 550.24151 
L 326.269412 550.984015 
L 338.332218 551.10609 
L 350.395024 551.202962 
L 385.313672 551.36356 
L 391.662517 551.393599 
L 396.741594 551.403805 
L 403.725323 551.420932 
L 445.627701 551.476038 
L 450.706777 551.470275 
L 465.944006 551.491839 
L 471.657966 551.474949 
L 476.102158 551.499073 
L 479.911465 551.489969 
L 489.434733 551.486424 
L 495.148693 551.501881 
L 524.353381 551.502235 
L 533.241764 551.508137 
L 537.685956 551.490702 
L 548.478993 551.508282 
L 552.2883 551.490856 
L 556.732491 551.5099 
L 573.239489 551.510153 
L 573.239489 551.510153 
" clip-path="url(#p7cc2003e48)" style="fill: none; stroke: #1f77b4; stroke-width: 1.5; stroke-linecap: square"/>
   </g>
   <g id="line2d_30">
    <path d="M 65.966761 531.14993 
L 74.22026 531.234524 
L 79.934221 531.118004 
L 86.91795 530.73155 
L 90.092373 530.478155 
L 91.362142 530.339117 
L 97.076103 529.750796 
L 98.980756 529.471228 
L 101.520294 529.147999 
L 102.790063 528.96997 
L 105.329601 528.5319 
L 105.964486 528.514717 
L 107.234255 528.299916 
L 109.773793 527.835708 
L 113.5831 527.179027 
L 114.217984 526.947299 
L 117.392407 526.433908 
L 118.662176 526.135111 
L 123.741252 525.052547 
L 124.376137 524.668628 
L 125.645906 524.567932 
L 126.28079 524.268898 
L 126.915675 524.279559 
L 128.820328 523.645081 
L 129.455213 523.719244 
L 130.090097 523.365252 
L 131.994751 522.874742 
L 133.26452 522.482001 
L 134.534289 522.13202 
L 140.883134 520.112592 
L 142.787788 519.468789 
L 143.422672 519.328279 
L 144.692441 518.716087 
L 145.327326 518.613946 
L 145.96221 518.168788 
L 146.597095 518.033295 
L 147.866864 517.460874 
L 148.501748 517.307787 
L 149.136633 516.99472 
L 149.771517 517.091705 
L 151.041286 516.404455 
L 151.676171 515.922245 
L 152.311055 515.858609 
L 153.580824 515.180532 
L 154.850593 514.633494 
L 155.485478 514.454371 
L 156.120362 513.909447 
L 156.755247 513.964625 
L 157.390131 513.152473 
L 158.659901 512.736173 
L 159.294785 512.328671 
L 159.92967 512.125345 
L 160.564554 511.520841 
L 161.199439 511.413103 
L 161.834323 511.030126 
L 163.738977 510.398509 
L 164.373861 509.956554 
L 165.008746 509.677253 
L 165.64363 509.186941 
L 166.278515 508.949037 
L 166.913399 508.57942 
L 167.548284 508.026553 
L 168.183168 507.634303 
L 168.818053 507.45849 
L 170.087822 506.651783 
L 170.722706 506.331997 
L 173.897129 504.134134 
L 174.532013 503.844386 
L 176.436667 502.308337 
L 177.071551 502.199221 
L 177.706436 501.393422 
L 178.34132 500.826654 
L 179.61109 499.981511 
L 180.245974 499.210067 
L 180.880859 498.811709 
L 181.515743 499.151351 
L 183.420397 497.235994 
L 184.055281 496.821075 
L 185.32505 495.316437 
L 185.959935 495.266549 
L 186.594819 494.430522 
L 187.864588 493.789438 
L 188.499473 492.93049 
L 189.134357 492.37245 
L 189.769242 492.3054 
L 190.404126 491.117438 
L 191.039011 490.304461 
L 191.673895 489.974502 
L 192.30878 489.493923 
L 193.578549 488.163222 
L 194.848318 487.356551 
L 195.483202 486.209755 
L 196.118087 485.905951 
L 196.752971 485.290467 
L 198.657625 483.125746 
L 199.927394 481.89835 
L 200.562278 481.084573 
L 201.197163 480.644871 
L 201.832048 479.819083 
L 203.101817 478.666215 
L 205.00647 475.892304 
L 206.276239 474.995 
L 206.911124 474.247328 
L 208.180893 472.079234 
L 210.720431 469.412083 
L 211.355315 468.241431 
L 211.9902 468.081494 
L 212.625084 466.307786 
L 213.259969 466.450507 
L 213.894853 465.109818 
L 214.529738 464.644816 
L 215.164622 463.440603 
L 216.434391 461.625906 
L 217.069276 461.088489 
L 218.973929 457.822915 
L 219.608814 457.363418 
L 220.243698 456.568725 
L 220.878583 455.538422 
L 221.513467 453.612648 
L 222.148352 453.61177 
L 222.783237 452.885654 
L 224.053006 450.027732 
L 224.68789 450.35613 
L 226.592544 447.222322 
L 227.227428 446.695437 
L 227.862313 444.990328 
L 228.497197 444.476155 
L 229.132082 443.175898 
L 229.766966 442.436282 
L 230.401851 441.288513 
L 231.036735 441.493556 
L 231.67162 439.156097 
L 232.306504 437.642298 
L 232.941389 436.592829 
L 233.576273 436.186932 
L 234.846042 434.055438 
L 235.480927 432.574016 
L 236.115811 432.091109 
L 236.750696 431.438814 
L 238.020465 428.463782 
L 238.655349 428.584704 
L 239.925118 425.047121 
L 240.560003 423.206213 
L 241.194887 423.147247 
L 241.829772 421.612304 
L 243.099541 420.246537 
L 243.734425 418.168142 
L 244.36931 417.661547 
L 245.004195 417.953589 
L 245.639079 416.066604 
L 246.273964 414.747448 
L 246.908848 412.217823 
L 247.543733 412.027058 
L 248.813502 409.883842 
L 249.448386 409.561511 
L 250.083271 407.662504 
L 250.718155 406.698667 
L 251.987924 405.358278 
L 252.622809 403.449593 
L 253.257693 403.201295 
L 253.892578 399.011295 
L 254.527462 399.517747 
L 255.162347 398.010081 
L 255.797231 398.563432 
L 256.432116 396.343461 
L 257.067 396.014386 
L 257.701885 392.721712 
L 258.336769 393.089332 
L 258.971654 393.026021 
L 260.241423 388.388291 
L 260.876307 389.209163 
L 261.511192 386.365808 
L 262.146076 385.518403 
L 262.780961 384.258769 
L 263.415845 383.841361 
L 264.05073 381.964298 
L 264.685614 381.561679 
L 265.320499 381.855044 
L 265.955384 378.849568 
L 266.590268 377.69061 
L 267.860037 376.151067 
L 268.494922 374.634068 
L 269.129806 373.813397 
L 269.764691 373.342689 
L 270.399575 371.669803 
L 271.03446 369.12219 
L 271.669344 369.126301 
L 272.304229 367.987332 
L 272.939113 364.071663 
L 273.573998 365.0745 
L 274.208882 364.506082 
L 274.843767 362.563364 
L 275.478651 362.222678 
L 276.113536 360.31136 
L 276.74842 360.377937 
L 277.383305 359.007215 
L 278.653074 355.396955 
L 279.287958 355.582442 
L 279.922843 353.136862 
L 280.557727 351.539786 
L 281.192612 352.875331 
L 281.827496 350.991146 
L 282.462381 349.538668 
L 283.097265 347.66375 
L 283.73215 347.509351 
L 284.367034 344.149267 
L 285.001919 345.100504 
L 285.636803 343.450561 
L 286.271688 342.839877 
L 286.906572 340.896671 
L 287.541457 341.448222 
L 290.080995 335.58498 
L 290.71588 334.591232 
L 291.350764 334.4133 
L 291.985649 332.41285 
L 292.620533 331.185015 
L 293.255418 331.50539 
L 293.890302 328.567169 
L 294.525187 329.289763 
L 295.160071 325.485038 
L 295.794956 325.987256 
L 296.42984 325.642504 
L 297.064725 324.324603 
L 298.969378 318.102564 
L 299.604263 318.642871 
L 300.239147 318.733537 
L 301.508916 316.407866 
L 302.143801 313.287136 
L 302.778685 312.797184 
L 303.41357 312.996182 
L 304.048454 310.243693 
L 304.683339 309.071969 
L 305.318223 309.397411 
L 305.953108 308.555173 
L 306.587992 306.28508 
L 307.857761 303.678546 
L 308.492646 303.440859 
L 309.127531 302.4576 
L 309.762415 299.975064 
L 310.3973 301.109433 
L 311.032184 298.863362 
L 311.667069 299.432291 
L 312.301953 296.262583 
L 312.936838 296.363715 
L 313.571722 294.658884 
L 314.206607 293.876113 
L 314.841491 294.009823 
L 315.476376 290.01521 
L 316.11126 288.869886 
L 316.746145 289.308883 
L 318.015914 287.574585 
L 318.650798 287.486875 
L 319.285683 286.974635 
L 319.920567 284.353389 
L 320.555452 284.565454 
L 321.190336 282.589336 
L 321.825221 281.557567 
L 322.460105 279.653382 
L 323.09499 280.608397 
L 324.364759 276.415586 
L 324.999643 277.174491 
L 325.634528 275.247217 
L 326.269412 273.763874 
L 326.904297 274.85042 
L 327.539181 271.634379 
L 328.174066 272.958836 
L 328.80895 271.360426 
L 329.443835 270.558855 
L 330.078719 268.624092 
L 330.713604 267.631634 
L 331.348489 268.338139 
L 331.983373 266.909484 
L 332.618258 264.752101 
L 333.888027 261.41155 
L 334.522911 261.350417 
L 335.157796 260.253981 
L 335.79268 258.817348 
L 336.427565 258.22542 
L 337.062449 258.748349 
L 337.697334 257.706246 
L 338.332218 252.20589 
L 338.967103 255.759306 
L 339.601987 253.452991 
L 340.236872 253.747345 
L 340.871756 252.799263 
L 341.506641 249.386246 
L 342.141525 252.094424 
L 342.77641 247.386573 
L 343.411294 246.334137 
L 344.046179 248.42132 
L 344.681063 244.369575 
L 345.315948 247.242619 
L 345.950832 245.526277 
L 346.585717 247.102642 
L 347.220601 243.228695 
L 347.855486 243.380894 
L 348.49037 238.572621 
L 349.125255 238.661198 
L 349.760139 237.433986 
L 350.395024 239.363193 
L 351.664793 237.293654 
L 352.299678 232.200694 
L 352.934562 238.013092 
L 353.569447 235.032116 
L 354.204331 233.851126 
L 354.839216 232.309249 
L 355.4741 229.310384 
L 356.108985 229.544093 
L 356.743869 229.340451 
L 357.378754 227.96815 
L 358.013638 229.366828 
L 358.648523 227.055647 
L 359.283407 225.778501 
L 359.918292 224.071626 
L 360.553176 223.404187 
L 361.188061 221.30127 
L 361.822945 223.013012 
L 362.45783 219.353841 
L 363.092714 222.808969 
L 363.727599 220.262568 
L 364.362483 216.487798 
L 364.997368 217.453012 
L 365.632252 217.833342 
L 366.267137 218.999067 
L 366.902021 213.352867 
L 367.536906 216.602619 
L 368.17179 214.681301 
L 368.806675 211.946545 
L 369.441559 212.122499 
L 370.076444 210.102338 
L 371.346213 212.191543 
L 371.981097 210.447713 
L 373.250866 206.511077 
L 373.885751 206.838808 
L 375.15552 203.308681 
L 375.790405 203.907409 
L 376.425289 204.913268 
L 377.060174 202.279489 
L 377.695058 197.602349 
L 378.329943 202.468154 
L 378.964827 203.329214 
L 379.599712 199.05087 
L 380.234596 199.357757 
L 380.869481 198.144233 
L 381.504365 194.330397 
L 382.13925 197.347639 
L 382.774134 197.080664 
L 383.409019 195.09028 
L 384.043903 194.312086 
L 384.678788 193.747935 
L 385.313672 190.939557 
L 385.948557 193.02023 
L 386.583441 188.92764 
L 387.218326 190.742181 
L 387.85321 190.009676 
L 388.488095 187.472496 
L 389.122979 188.279979 
L 389.757864 188.539265 
L 390.392748 189.242726 
L 391.027633 188.021825 
L 391.662517 189.08355 
L 392.932286 183.222552 
L 394.202055 185.282269 
L 394.83694 182.47258 
L 395.471825 180.556462 
L 396.106709 180.543774 
L 396.741594 181.15088 
L 397.376478 180.895949 
L 398.011363 177.536598 
L 398.646247 178.447346 
L 399.281132 177.791796 
L 399.916016 176.83207 
L 400.550901 177.33851 
L 401.185785 177.55562 
L 401.82067 174.28569 
L 402.455554 173.454008 
L 403.090439 175.845145 
L 403.725323 174.007959 
L 404.995092 172.024864 
L 405.629977 171.421091 
L 406.264861 171.13576 
L 406.899746 167.166903 
L 407.53463 168.560314 
L 408.169515 171.365003 
L 408.804399 166.160377 
L 409.439284 164.595812 
L 410.074168 163.788707 
L 410.709053 164.424258 
L 411.343937 169.125643 
L 411.978822 165.980246 
L 412.613706 164.521146 
L 413.248591 161.977655 
L 413.883475 162.881826 
L 414.51836 158.095597 
L 415.153244 158.34684 
L 415.788129 160.122692 
L 416.423013 160.170781 
L 417.057898 157.555557 
L 417.692783 156.808363 
L 418.327667 157.865555 
L 418.962552 158.052087 
L 419.597436 154.832868 
L 420.232321 157.419114 
L 420.867205 157.330715 
L 421.50209 156.153168 
L 422.136974 151.904891 
L 423.406743 156.89494 
L 424.041628 156.465255 
L 424.676512 152.337999 
L 425.311397 150.90161 
L 425.946281 153.455368 
L 426.581166 148.994203 
L 427.21605 152.735329 
L 427.850935 147.786969 
L 428.485819 151.112053 
L 429.120704 146.660889 
L 429.755588 149.909174 
L 430.390473 149.286379 
L 431.025357 147.79488 
L 431.660242 150.20286 
L 432.295126 147.774702 
L 433.564895 145.331122 
L 434.19978 141.798528 
L 434.834664 143.347182 
L 435.469549 146.449468 
L 436.104433 141.566752 
L 436.739318 141.997859 
L 437.374202 143.386915 
L 438.009087 136.477459 
L 438.643972 139.03975 
L 439.278856 140.270584 
L 439.913741 140.982001 
L 440.548625 139.204282 
L 441.18351 138.01678 
L 441.818394 136.493637 
L 442.453279 138.89184 
L 443.088163 135.423956 
L 443.723048 134.048545 
L 444.357932 133.236463 
L 444.992817 131.405455 
L 445.627701 134.638807 
L 446.262586 137.161765 
L 446.89747 132.512646 
L 447.532355 133.545927 
L 448.167239 129.864578 
L 448.802124 131.228079 
L 449.437008 126.270474 
L 450.071893 132.16536 
L 451.976546 124.626042 
L 452.611431 130.309642 
L 453.246315 126.958157 
L 453.8812 125.022662 
L 454.516084 126.776248 
L 455.150969 125.777722 
L 455.785853 123.289875 
L 456.420738 126.801936 
L 457.055622 122.098685 
L 457.690507 126.505761 
L 458.325391 125.144216 
L 458.960276 123.228009 
L 459.59516 125.292793 
L 460.86493 119.761192 
L 461.499814 118.558269 
L 462.134699 120.415498 
L 462.769583 120.356699 
L 463.404468 115.722069 
L 464.039352 120.512786 
L 465.309121 110.174469 
L 465.944006 115.017319 
L 466.57889 117.53081 
L 467.213775 116.100999 
L 467.848659 118.611735 
L 468.483544 115.18154 
L 469.118428 113.418532 
L 469.753313 112.674716 
L 470.388197 116.213799 
L 471.023082 112.302096 
L 471.657966 112.881603 
L 472.292851 116.238732 
L 472.927735 111.330415 
L 473.56262 112.13792 
L 474.197504 111.24966 
L 474.832389 109.199988 
L 475.467273 108.600393 
L 476.102158 110.124158 
L 476.737042 109.154477 
L 477.371927 109.581274 
L 478.006811 112.000499 
L 478.641696 108.129596 
L 479.27658 112.59285 
L 479.911465 109.116389 
L 480.546349 104.44807 
L 481.181234 104.076429 
L 481.816119 105.792548 
L 482.451003 106.72623 
L 483.085888 102.595996 
L 483.720772 101.473739 
L 484.355657 106.04428 
L 484.990541 102.785639 
L 485.625426 103.040615 
L 486.26031 100.430014 
L 486.895195 101.440094 
L 487.530079 102.731906 
L 488.799848 97.595058 
L 489.434733 103.163147 
L 490.069617 99.453799 
L 490.704502 106.782318 
L 491.339386 106.102724 
L 491.974271 96.457779 
L 492.609155 99.617131 
L 493.24404 98.090921 
L 493.878924 97.406304 
L 494.513809 99.158113 
L 495.148693 95.813339 
L 496.418462 96.497867 
L 497.053347 98.321097 
L 497.688231 93.590468 
L 498.323116 94.267752 
L 498.958 91.288842 
L 499.592885 95.2073 
L 500.227769 91.849904 
L 500.862654 93.993043 
L 501.497538 88.877084 
L 502.132423 93.367581 
L 502.767308 92.942873 
L 503.402192 94.954057 
L 504.037077 87.997713 
L 504.671961 89.248458 
L 505.306846 94.200063 
L 505.94173 92.168213 
L 506.576615 87.994113 
L 507.211499 88.749662 
L 507.846384 88.734685 
L 508.481268 89.496234 
L 509.116153 88.51162 
L 510.385922 84.19881 
L 511.655691 84.928671 
L 512.290575 85.710087 
L 512.92546 82.025316 
L 513.560344 84.899471 
L 514.195229 80.77937 
L 514.830113 83.892679 
L 515.464998 89.975608 
L 516.099882 78.01757 
L 516.734767 80.469728 
L 517.369651 79.937955 
L 518.004536 84.573429 
L 518.63942 79.953199 
L 519.274305 82.921264 
L 519.909189 79.245427 
L 520.544074 84.468052 
L 521.178958 74.307555 
L 521.813843 83.621126 
L 522.448727 80.262263 
L 523.083612 81.144256 
L 523.718496 80.710304 
L 524.353381 81.350521 
L 524.988266 78.463878 
L 525.62315 73.872359 
L 526.258035 78.802986 
L 526.892919 71.838464 
L 527.527804 71.564822 
L 528.162688 77.153488 
L 528.797573 72.38126 
L 529.432457 77.242865 
L 530.067342 76.97989 
L 530.702226 69.162841 
L 531.337111 75.000528 
L 531.971995 76.149319 
L 532.60688 77.837216 
L 533.241764 69.40515 
L 533.876649 77.669262 
L 534.511533 71.405801 
L 535.146418 74.407866 
L 535.781302 73.86787 
L 536.416187 76.264207 
L 537.051071 72.700279 
L 537.685956 70.122211 
L 538.32084 65.369538 
L 538.955725 64.032526 
L 539.590609 69.595682 
L 540.225494 71.304113 
L 540.860378 72.549658 
L 541.495263 68.831644 
L 542.130147 67.696631 
L 542.765032 70.174388 
L 543.399916 67.921162 
L 544.034801 61.160283 
L 544.669685 66.309219 
L 545.30457 64.199103 
L 545.939455 67.662275 
L 546.574339 67.018858 
L 547.209224 61.606012 
L 547.844108 68.690978 
L 548.478993 63.510308 
L 549.113877 65.871578 
L 549.748762 67.127168 
L 550.383646 64.477945 
L 551.018531 64.502878 
L 551.653415 62.923869 
L 552.2883 62.561738 
L 552.923184 61.49068 
L 553.558069 58.673147 
L 554.192953 61.08975 
L 554.827838 59.47123 
L 555.462722 59.946959 
L 556.097607 65.670202 
L 556.732491 60.80953 
L 557.367376 63.465198 
L 558.00226 62.16503 
L 558.637145 52.51413 
L 559.272029 60.611976 
L 559.906914 58.311417 
L 560.541798 58.180129 
L 561.176683 55.213664 
L 561.811567 54.679623 
L 562.446452 60.283979 
L 563.081336 56.822851 
L 563.716221 51.711647 
L 564.351105 52.174043 
L 564.98599 54.058251 
L 565.620874 57.312491 
L 566.255759 53.419189 
L 566.890643 57.120893 
L 567.525528 48.603539 
L 568.160413 57.717288 
L 568.795297 55.851614 
L 569.430182 57.08916 
L 570.065066 55.833125 
L 570.699951 47.518125 
L 571.334835 59.82176 
L 571.96972 58.11324 
L 572.604604 53.76932 
L 573.239489 53.969807 
L 573.239489 53.969807 
" clip-path="url(#p7cc2003e48)" style="fill: none; stroke: #ff7f0e; stroke-width: 1.5; stroke-linecap: square"/>
   </g>
   <g id="patch_3">
    <path d="M 40.603125 576.718125 
L 40.603125 22.318125 
" style="fill: none; stroke: #000000; stroke-width: 0.8; stroke-linejoin: miter; stroke-linecap: square"/>
   </g>
   <g id="patch_4">
    <path d="M 598.603125 576.718125 
L 598.603125 22.318125 
" style="fill: none; stroke: #000000; stroke-width: 0.8; stroke-linejoin: miter; stroke-linecap: square"/>
   </g>
   <g id="patch_5">
    <path d="M 40.603125 576.718125 
L 598.603125 576.718125 
" style="fill: none; stroke: #000000; stroke-width: 0.8; stroke-linejoin: miter; stroke-linecap: square"/>
   </g>
   <g id="patch_6">
    <path d="M 40.603125 22.318125 
L 598.603125 22.318125 
" style="fill: none; stroke: #000000; stroke-width: 0.8; stroke-linejoin: miter; stroke-linecap: square"/>
   </g>
   <g id="text_17">
    <!-- Train and Val Loss -->
    <g transform="translate(266.057812 16.318125) scale(0.12 -0.12)">
     <defs>
      <path id="DejaVuSans-54" d="M -19 4666 
L 3928 4666 
L 3928 4134 
L 2272 4134 
L 2272 0 
L 1638 0 
L 1638 4134 
L -19 4134 
L -19 4666 
z
" transform="scale(0.015625)"/>
      <path id="DejaVuSans-72" d="M 2631 2963 
Q 2534 3019 2420 3045 
Q 2306 3072 2169 3072 
Q 1681 3072 1420 2755 
Q 1159 2438 1159 1844 
L 1159 0 
L 581 0 
L 581 3500 
L 1159 3500 
L 1159 2956 
Q 1341 3275 1631 3429 
Q 1922 3584 2338 3584 
Q 2397 3584 2469 3576 
Q 2541 3569 2628 3553 
L 2631 2963 
z
" transform="scale(0.015625)"/>
      <path id="DejaVuSans-61" d="M 2194 1759 
Q 1497 1759 1228 1600 
Q 959 1441 959 1056 
Q 959 750 1161 570 
Q 1363 391 1709 391 
Q 2188 391 2477 730 
Q 2766 1069 2766 1631 
L 2766 1759 
L 2194 1759 
z
M 3341 1997 
L 3341 0 
L 2766 0 
L 2766 531 
Q 2569 213 2275 61 
Q 1981 -91 1556 -91 
Q 1019 -91 701 211 
Q 384 513 384 1019 
Q 384 1609 779 1909 
Q 1175 2209 1959 2209 
L 2766 2209 
L 2766 2266 
Q 2766 2663 2505 2880 
Q 2244 3097 1772 3097 
Q 1472 3097 1187 3025 
Q 903 2953 641 2809 
L 641 3341 
Q 956 3463 1253 3523 
Q 1550 3584 1831 3584 
Q 2591 3584 2966 3190 
Q 3341 2797 3341 1997 
z
" transform="scale(0.015625)"/>
      <path id="DejaVuSans-69" d="M 603 3500 
L 1178 3500 
L 1178 0 
L 603 0 
L 603 3500 
z
M 603 4863 
L 1178 4863 
L 1178 4134 
L 603 4134 
L 603 4863 
z
" transform="scale(0.015625)"/>
      <path id="DejaVuSans-6e" d="M 3513 2113 
L 3513 0 
L 2938 0 
L 2938 2094 
Q 2938 2591 2744 2837 
Q 2550 3084 2163 3084 
Q 1697 3084 1428 2787 
Q 1159 2491 1159 1978 
L 1159 0 
L 581 0 
L 581 3500 
L 1159 3500 
L 1159 2956 
Q 1366 3272 1645 3428 
Q 1925 3584 2291 3584 
Q 2894 3584 3203 3211 
Q 3513 2838 3513 2113 
z
" transform="scale(0.015625)"/>
      <path id="DejaVuSans-20" transform="scale(0.015625)"/>
      <path id="DejaVuSans-64" d="M 2906 2969 
L 2906 4863 
L 3481 4863 
L 3481 0 
L 2906 0 
L 2906 525 
Q 2725 213 2448 61 
Q 2172 -91 1784 -91 
Q 1150 -91 751 415 
Q 353 922 353 1747 
Q 353 2572 751 3078 
Q 1150 3584 1784 3584 
Q 2172 3584 2448 3432 
Q 2725 3281 2906 2969 
z
M 947 1747 
Q 947 1113 1208 752 
Q 1469 391 1925 391 
Q 2381 391 2643 752 
Q 2906 1113 2906 1747 
Q 2906 2381 2643 2742 
Q 2381 3103 1925 3103 
Q 1469 3103 1208 2742 
Q 947 2381 947 1747 
z
" transform="scale(0.015625)"/>
      <path id="DejaVuSans-56" d="M 1831 0 
L 50 4666 
L 709 4666 
L 2188 738 
L 3669 4666 
L 4325 4666 
L 2547 0 
L 1831 0 
z
" transform="scale(0.015625)"/>
      <path id="DejaVuSans-6c" d="M 603 4863 
L 1178 4863 
L 1178 0 
L 603 0 
L 603 4863 
z
" transform="scale(0.015625)"/>
     </defs>
     <use xlink:href="#DejaVuSans-54"/>
     <use xlink:href="#DejaVuSans-72" transform="translate(46.333984 0)"/>
     <use xlink:href="#DejaVuSans-61" transform="translate(87.447266 0)"/>
     <use xlink:href="#DejaVuSans-69" transform="translate(148.726562 0)"/>
     <use xlink:href="#DejaVuSans-6e" transform="translate(176.509766 0)"/>
     <use xlink:href="#DejaVuSans-20" transform="translate(239.888672 0)"/>
     <use xlink:href="#DejaVuSans-61" transform="translate(271.675781 0)"/>
     <use xlink:href="#DejaVuSans-6e" transform="translate(332.955078 0)"/>
     <use xlink:href="#DejaVuSans-64" transform="translate(396.333984 0)"/>
     <use xlink:href="#DejaVuSans-20" transform="translate(459.810547 0)"/>
     <use xlink:href="#DejaVuSans-56" transform="translate(491.597656 0)"/>
     <use xlink:href="#DejaVuSans-61" transform="translate(552.255859 0)"/>
     <use xlink:href="#DejaVuSans-6c" transform="translate(613.535156 0)"/>
     <use xlink:href="#DejaVuSans-20" transform="translate(641.318359 0)"/>
     <use xlink:href="#DejaVuSans-4c" transform="translate(673.105469 0)"/>
     <use xlink:href="#DejaVuSans-6f" transform="translate(727.068359 0)"/>
     <use xlink:href="#DejaVuSans-73" transform="translate(788.25 0)"/>
     <use xlink:href="#DejaVuSans-73" transform="translate(840.349609 0)"/>
    </g>
   </g>
   <g id="legend_1">
    <g id="patch_7">
     <path d="M 47.603125 60.230625 
L 127.19375 60.230625 
Q 129.19375 60.230625 129.19375 58.230625 
L 129.19375 29.318125 
Q 129.19375 27.318125 127.19375 27.318125 
L 47.603125 27.318125 
Q 45.603125 27.318125 45.603125 29.318125 
L 45.603125 58.230625 
Q 45.603125 60.230625 47.603125 60.230625 
z
" style="fill: #ffffff; opacity: 0.8; stroke: #cccccc; stroke-linejoin: miter"/>
    </g>
    <g id="line2d_31">
     <path d="M 49.603125 35.416563 
L 59.603125 35.416563 
L 69.603125 35.416563 
" style="fill: none; stroke: #1f77b4; stroke-width: 1.5; stroke-linecap: square"/>
    </g>
    <g id="text_18">
     <!-- train_loss -->
     <g transform="translate(77.603125 38.916563) scale(0.1 -0.1)">
      <defs>
       <path id="DejaVuSans-74" d="M 1172 4494 
L 1172 3500 
L 2356 3500 
L 2356 3053 
L 1172 3053 
L 1172 1153 
Q 1172 725 1289 603 
Q 1406 481 1766 481 
L 2356 481 
L 2356 0 
L 1766 0 
Q 1100 0 847 248 
Q 594 497 594 1153 
L 594 3053 
L 172 3053 
L 172 3500 
L 594 3500 
L 594 4494 
L 1172 4494 
z
" transform="scale(0.015625)"/>
       <path id="DejaVuSans-5f" d="M 3263 -1063 
L 3263 -1509 
L -63 -1509 
L -63 -1063 
L 3263 -1063 
z
" transform="scale(0.015625)"/>
      </defs>
      <use xlink:href="#DejaVuSans-74"/>
      <use xlink:href="#DejaVuSans-72" transform="translate(39.208984 0)"/>
      <use xlink:href="#DejaVuSans-61" transform="translate(80.322266 0)"/>
      <use xlink:href="#DejaVuSans-69" transform="translate(141.601562 0)"/>
      <use xlink:href="#DejaVuSans-6e" transform="translate(169.384766 0)"/>
      <use xlink:href="#DejaVuSans-5f" transform="translate(232.763672 0)"/>
      <use xlink:href="#DejaVuSans-6c" transform="translate(282.763672 0)"/>
      <use xlink:href="#DejaVuSans-6f" transform="translate(310.546875 0)"/>
      <use xlink:href="#DejaVuSans-73" transform="translate(371.728516 0)"/>
      <use xlink:href="#DejaVuSans-73" transform="translate(423.828125 0)"/>
     </g>
    </g>
    <g id="line2d_32">
     <path d="M 49.603125 50.372813 
L 59.603125 50.372813 
L 69.603125 50.372813 
" style="fill: none; stroke: #ff7f0e; stroke-width: 1.5; stroke-linecap: square"/>
    </g>
    <g id="text_19">
     <!-- val_loss -->
     <g transform="translate(77.603125 53.872813) scale(0.1 -0.1)">
      <defs>
       <path id="DejaVuSans-76" d="M 191 3500 
L 800 3500 
L 1894 563 
L 2988 3500 
L 3597 3500 
L 2284 0 
L 1503 0 
L 191 3500 
z
" transform="scale(0.015625)"/>
      </defs>
      <use xlink:href="#DejaVuSans-76"/>
      <use xlink:href="#DejaVuSans-61" transform="translate(59.179688 0)"/>
      <use xlink:href="#DejaVuSans-6c" transform="translate(120.458984 0)"/>
      <use xlink:href="#DejaVuSans-5f" transform="translate(148.242188 0)"/>
      <use xlink:href="#DejaVuSans-6c" transform="translate(198.242188 0)"/>
      <use xlink:href="#DejaVuSans-6f" transform="translate(226.025391 0)"/>
      <use xlink:href="#DejaVuSans-73" transform="translate(287.207031 0)"/>
      <use xlink:href="#DejaVuSans-73" transform="translate(339.306641 0)"/>
     </g>
    </g>
   </g>
  </g>
 </g>
 <defs>
  <clipPath id="p7cc2003e48">
   <rect x="40.603125" y="22.318125" width="558" height="554.4"/>
  </clipPath>
 </defs>
</svg>
