<?xml version="1.0" encoding="utf-8" standalone="no"?>
<!DOCTYPE svg PUBLIC "-//W3C//DTD SVG 1.1//EN"
  "http://www.w3.org/Graphics/SVG/1.1/DTD/svg11.dtd">
<svg xmlns:xlink="http://www.w3.org/1999/xlink" width="608.98125pt" height="614.274375pt" viewBox="0 0 608.98125 614.274375" xmlns="http://www.w3.org/2000/svg" version="1.1">
 <metadata>
  <rdf:RDF xmlns:dc="http://purl.org/dc/elements/1.1/" xmlns:cc="http://creativecommons.org/ns#" xmlns:rdf="http://www.w3.org/1999/02/22-rdf-syntax-ns#">
   <cc:Work>
    <dc:type rdf:resource="http://purl.org/dc/dcmitype/StillImage"/>
    <dc:date>2026-05-24T02:02:09.659368</dc:date>
    <dc:format>image/svg+xml</dc:format>
    <dc:creator>
     <cc:Agent>
      <dc:title>Matplotlib v3.10.9, https://matplotlib.org/</dc:title>
     </cc:Agent>
    </dc:creator>
   </cc:Work>
  </rdf:RDF>
 </metadata>
 <defs>
  <style type="text/css">*{stroke-linejoin: round; stroke-linecap: butt}</style>
 </defs>
 <g id="figure_1">
  <g id="patch_1">
   <path d="M 0 614.274375 
L 608.98125 614.274375 
L 608.98125 0 
L 0 0 
z
" style="fill: #ffffff"/>
  </g>
  <g id="axes_1">
   <g id="patch_2">
    <path d="M 43.78125 576.718125 
L 601.78125 576.718125 
L 601.78125 22.318125 
L 43.78125 22.318125 
z
" style="fill: #ffffff"/>
   </g>
   <g id="matplotlib.axis_1">
    <g id="xtick_1">
     <g id="line2d_1">
      <path d="M 69.144886 576.718125 
L 69.144886 22.318125 
" clip-path="url(#p18e3243841)" style="fill: none; stroke: #b0b0b0; stroke-width: 0.8; stroke-linecap: square"/>
     </g>
     <g id="line2d_2">
      <defs>
       <path id="md2a779f75b" d="M 0 0 
L 0 3.5 
" style="stroke: #000000; stroke-width: 0.8"/>
      </defs>
      <g>
       <use xlink:href="#md2a779f75b" x="69.144886" y="576.718125" style="stroke: #000000; stroke-width: 0.8"/>
      </g>
     </g>
     <g id="text_1">
      <!-- 0 -->
      <g transform="translate(65.963636 591.316563) scale(0.1 -0.1)">
       <defs>
        <path id="DejaVuSans-30" d="M 2034 4250 
Q 1547 4250 1301 3770 
Q 1056 3291 1056 2328 
Q 1056 1369 1301 889 
Q 1547 409 2034 409 
Q 2525 409 2770 889 
Q 3016 1369 3016 2328 
Q 3016 3291 2770 3770 
Q 2525 4250 2034 4250 
z
M 2034 4750 
Q 2819 4750 3233 4129 
Q 3647 3509 3647 2328 
Q 3647 1150 3233 529 
Q 2819 -91 2034 -91 
Q 1250 -91 836 529 
Q 422 1150 422 2328 
Q 422 3509 836 4129 
Q 1250 4750 2034 4750 
z
" transform="scale(0.015625)"/>
       </defs>
       <use xlink:href="#DejaVuSans-30"/>
      </g>
     </g>
    </g>
    <g id="xtick_2">
     <g id="line2d_3">
      <path d="M 132.633338 576.718125 
L 132.633338 22.318125 
" clip-path="url(#p18e3243841)" style="fill: none; stroke: #b0b0b0; stroke-width: 0.8; stroke-linecap: square"/>
     </g>
     <g id="line2d_4">
      <g>
       <use xlink:href="#md2a779f75b" x="132.633338" y="576.718125" style="stroke: #000000; stroke-width: 0.8"/>
      </g>
     </g>
     <g id="text_2">
      <!-- 100 -->
      <g transform="translate(123.089588 591.316563) scale(0.1 -0.1)">
       <defs>
        <path id="DejaVuSans-31" d="M 794 531 
L 1825 531 
L 1825 4091 
L 703 3866 
L 703 4441 
L 1819 4666 
L 2450 4666 
L 2450 531 
L 3481 531 
L 3481 0 
L 794 0 
L 794 531 
z
" transform="scale(0.015625)"/>
       </defs>
       <use xlink:href="#DejaVuSans-31"/>
       <use xlink:href="#DejaVuSans-30" transform="translate(63.623047 0)"/>
       <use xlink:href="#DejaVuSans-30" transform="translate(127.246094 0)"/>
      </g>
     </g>
    </g>
    <g id="xtick_3">
     <g id="line2d_5">
      <path d="M 196.121789 576.718125 
L 196.121789 22.318125 
" clip-path="url(#p18e3243841)" style="fill: none; stroke: #b0b0b0; stroke-width: 0.8; stroke-linecap: square"/>
     </g>
     <g id="line2d_6">
      <g>
       <use xlink:href="#md2a779f75b" x="196.121789" y="576.718125" style="stroke: #000000; stroke-width: 0.8"/>
      </g>
     </g>
     <g id="text_3">
      <!-- 200 -->
      <g transform="translate(186.578039 591.316563) scale(0.1 -0.1)">
       <defs>
        <path id="DejaVuSans-32" d="M 1228 531 
L 3431 531 
L 3431 0 
L 469 0 
L 469 531 
Q 828 903 1448 1529 
Q 2069 2156 2228 2338 
Q 2531 2678 2651 2914 
Q 2772 3150 2772 3378 
Q 2772 3750 2511 3984 
Q 2250 4219 1831 4219 
Q 1534 4219 1204 4116 
Q 875 4013 500 3803 
L 500 4441 
Q 881 4594 1212 4672 
Q 1544 4750 1819 4750 
Q 2544 4750 2975 4387 
Q 3406 4025 3406 3419 
Q 3406 3131 3298 2873 
Q 3191 2616 2906 2266 
Q 2828 2175 2409 1742 
Q 1991 1309 1228 531 
z
" transform="scale(0.015625)"/>
       </defs>
       <use xlink:href="#DejaVuSans-32"/>
       <use xlink:href="#DejaVuSans-30" transform="translate(63.623047 0)"/>
       <use xlink:href="#DejaVuSans-30" transform="translate(127.246094 0)"/>
      </g>
     </g>
    </g>
    <g id="xtick_4">
     <g id="line2d_7">
      <path d="M 259.610241 576.718125 
L 259.610241 22.318125 
" clip-path="url(#p18e3243841)" style="fill: none; stroke: #b0b0b0; stroke-width: 0.8; stroke-linecap: square"/>
     </g>
     <g id="line2d_8">
      <g>
       <use xlink:href="#md2a779f75b" x="259.610241" y="576.718125" style="stroke: #000000; stroke-width: 0.8"/>
      </g>
     </g>
     <g id="text_4">
      <!-- 300 -->
      <g transform="translate(250.066491 591.316563) scale(0.1 -0.1)">
       <defs>
        <path id="DejaVuSans-33" d="M 2597 2516 
Q 3050 2419 3304 2112 
Q 3559 1806 3559 1356 
Q 3559 666 3084 287 
Q 2609 -91 1734 -91 
Q 1441 -91 1130 -33 
Q 819 25 488 141 
L 488 750 
Q 750 597 1062 519 
Q 1375 441 1716 441 
Q 2309 441 2620 675 
Q 2931 909 2931 1356 
Q 2931 1769 2642 2001 
Q 2353 2234 1838 2234 
L 1294 2234 
L 1294 2753 
L 1863 2753 
Q 2328 2753 2575 2939 
Q 2822 3125 2822 3475 
Q 2822 3834 2567 4026 
Q 2313 4219 1838 4219 
Q 1578 4219 1281 4162 
Q 984 4106 628 3988 
L 628 4550 
Q 988 4650 1302 4700 
Q 1616 4750 1894 4750 
Q 2613 4750 3031 4423 
Q 3450 4097 3450 3541 
Q 3450 3153 3228 2886 
Q 3006 2619 2597 2516 
z
" transform="scale(0.015625)"/>
       </defs>
       <use xlink:href="#DejaVuSans-33"/>
       <use xlink:href="#DejaVuSans-30" transform="translate(63.623047 0)"/>
       <use xlink:href="#DejaVuSans-30" transform="translate(127.246094 0)"/>
      </g>
     </g>
    </g>
    <g id="xtick_5">
     <g id="line2d_9">
      <path d="M 323.098692 576.718125 
L 323.098692 22.318125 
" clip-path="url(#p18e3243841)" style="fill: none; stroke: #b0b0b0; stroke-width: 0.8; stroke-linecap: square"/>
     </g>
     <g id="line2d_10">
      <g>
       <use xlink:href="#md2a779f75b" x="323.098692" y="576.718125" style="stroke: #000000; stroke-width: 0.8"/>
      </g>
     </g>
     <g id="text_5">
      <!-- 400 -->
      <g transform="translate(313.554942 591.316563) scale(0.1 -0.1)">
       <defs>
        <path id="DejaVuSans-34" d="M 2419 4116 
L 825 1625 
L 2419 1625 
L 2419 4116 
z
M 2253 4666 
L 3047 4666 
L 3047 1625 
L 3713 1625 
L 3713 1100 
L 3047 1100 
L 3047 0 
L 2419 0 
L 2419 1100 
L 313 1100 
L 313 1709 
L 2253 4666 
z
" transform="scale(0.015625)"/>
       </defs>
       <use xlink:href="#DejaVuSans-34"/>
       <use xlink:href="#DejaVuSans-30" transform="translate(63.623047 0)"/>
       <use xlink:href="#DejaVuSans-30" transform="translate(127.246094 0)"/>
      </g>
     </g>
    </g>
    <g id="xtick_6">
     <g id="line2d_11">
      <path d="M 386.587144 576.718125 
L 386.587144 22.318125 
" clip-path="url(#p18e3243841)" style="fill: none; stroke: #b0b0b0; stroke-width: 0.8; stroke-linecap: square"/>
     </g>
     <g id="line2d_12">
      <g>
       <use xlink:href="#md2a779f75b" x="386.587144" y="576.718125" style="stroke: #000000; stroke-width: 0.8"/>
      </g>
     </g>
     <g id="text_6">
      <!-- 500 -->
      <g transform="translate(377.043394 591.316563) scale(0.1 -0.1)">
       <defs>
        <path id="DejaVuSans-35" d="M 691 4666 
L 3169 4666 
L 3169 4134 
L 1269 4134 
L 1269 2991 
Q 1406 3038 1543 3061 
Q 1681 3084 1819 3084 
Q 2600 3084 3056 2656 
Q 3513 2228 3513 1497 
Q 3513 744 3044 326 
Q 2575 -91 1722 -91 
Q 1428 -91 1123 -41 
Q 819 9 494 109 
L 494 744 
Q 775 591 1075 516 
Q 1375 441 1709 441 
Q 2250 441 2565 725 
Q 2881 1009 2881 1497 
Q 2881 1984 2565 2268 
Q 2250 2553 1709 2553 
Q 1456 2553 1204 2497 
Q 953 2441 691 2322 
L 691 4666 
z
" transform="scale(0.015625)"/>
       </defs>
       <use xlink:href="#DejaVuSans-35"/>
       <use xlink:href="#DejaVuSans-30" transform="translate(63.623047 0)"/>
       <use xlink:href="#DejaVuSans-30" transform="translate(127.246094 0)"/>
      </g>
     </g>
    </g>
    <g id="xtick_7">
     <g id="line2d_13">
      <path d="M 450.075595 576.718125 
L 450.075595 22.318125 
" clip-path="url(#p18e3243841)" style="fill: none; stroke: #b0b0b0; stroke-width: 0.8; stroke-linecap: square"/>
     </g>
     <g id="line2d_14">
      <g>
       <use xlink:href="#md2a779f75b" x="450.075595" y="576.718125" style="stroke: #000000; stroke-width: 0.8"/>
      </g>
     </g>
     <g id="text_7">
      <!-- 600 -->
      <g transform="translate(440.531845 591.316563) scale(0.1 -0.1)">
       <defs>
        <path id="DejaVuSans-36" d="M 2113 2584 
Q 1688 2584 1439 2293 
Q 1191 2003 1191 1497 
Q 1191 994 1439 701 
Q 1688 409 2113 409 
Q 2538 409 2786 701 
Q 3034 994 3034 1497 
Q 3034 2003 2786 2293 
Q 2538 2584 2113 2584 
z
M 3366 4563 
L 3366 3988 
Q 3128 4100 2886 4159 
Q 2644 4219 2406 4219 
Q 1781 4219 1451 3797 
Q 1122 3375 1075 2522 
Q 1259 2794 1537 2939 
Q 1816 3084 2150 3084 
Q 2853 3084 3261 2657 
Q 3669 2231 3669 1497 
Q 3669 778 3244 343 
Q 2819 -91 2113 -91 
Q 1303 -91 875 529 
Q 447 1150 447 2328 
Q 447 3434 972 4092 
Q 1497 4750 2381 4750 
Q 2619 4750 2861 4703 
Q 3103 4656 3366 4563 
z
" transform="scale(0.015625)"/>
       </defs>
       <use xlink:href="#DejaVuSans-36"/>
       <use xlink:href="#DejaVuSans-30" transform="translate(63.623047 0)"/>
       <use xlink:href="#DejaVuSans-30" transform="translate(127.246094 0)"/>
      </g>
     </g>
    </g>
    <g id="xtick_8">
     <g id="line2d_15">
      <path d="M 513.564047 576.718125 
L 513.564047 22.318125 
" clip-path="url(#p18e3243841)" style="fill: none; stroke: #b0b0b0; stroke-width: 0.8; stroke-linecap: square"/>
     </g>
     <g id="line2d_16">
      <g>
       <use xlink:href="#md2a779f75b" x="513.564047" y="576.718125" style="stroke: #000000; stroke-width: 0.8"/>
      </g>
     </g>
     <g id="text_8">
      <!-- 700 -->
      <g transform="translate(504.020297 591.316563) scale(0.1 -0.1)">
       <defs>
        <path id="DejaVuSans-37" d="M 525 4666 
L 3525 4666 
L 3525 4397 
L 1831 0 
L 1172 0 
L 2766 4134 
L 525 4134 
L 525 4666 
z
" transform="scale(0.015625)"/>
       </defs>
       <use xlink:href="#DejaVuSans-37"/>
       <use xlink:href="#DejaVuSans-30" transform="translate(63.623047 0)"/>
       <use xlink:href="#DejaVuSans-30" transform="translate(127.246094 0)"/>
      </g>
     </g>
    </g>
    <g id="xtick_9">
     <g id="line2d_17">
      <path d="M 577.052498 576.718125 
L 577.052498 22.318125 
" clip-path="url(#p18e3243841)" style="fill: none; stroke: #b0b0b0; stroke-width: 0.8; stroke-linecap: square"/>
     </g>
     <g id="line2d_18">
      <g>
       <use xlink:href="#md2a779f75b" x="577.052498" y="576.718125" style="stroke: #000000; stroke-width: 0.8"/>
      </g>
     </g>
     <g id="text_9">
      <!-- 800 -->
      <g transform="translate(567.508748 591.316563) scale(0.1 -0.1)">
       <defs>
        <path id="DejaVuSans-38" d="M 2034 2216 
Q 1584 2216 1326 1975 
Q 1069 1734 1069 1313 
Q 1069 891 1326 650 
Q 1584 409 2034 409 
Q 2484 409 2743 651 
Q 3003 894 3003 1313 
Q 3003 1734 2745 1975 
Q 2488 2216 2034 2216 
z
M 1403 2484 
Q 997 2584 770 2862 
Q 544 3141 544 3541 
Q 544 4100 942 4425 
Q 1341 4750 2034 4750 
Q 2731 4750 3128 4425 
Q 3525 4100 3525 3541 
Q 3525 3141 3298 2862 
Q 3072 2584 2669 2484 
Q 3125 2378 3379 2068 
Q 3634 1759 3634 1313 
Q 3634 634 3220 271 
Q 2806 -91 2034 -91 
Q 1263 -91 848 271 
Q 434 634 434 1313 
Q 434 1759 690 2068 
Q 947 2378 1403 2484 
z
M 1172 3481 
Q 1172 3119 1398 2916 
Q 1625 2713 2034 2713 
Q 2441 2713 2670 2916 
Q 2900 3119 2900 3481 
Q 2900 3844 2670 4047 
Q 2441 4250 2034 4250 
Q 1625 4250 1398 4047 
Q 1172 3844 1172 3481 
z
" transform="scale(0.015625)"/>
       </defs>
       <use xlink:href="#DejaVuSans-38"/>
       <use xlink:href="#DejaVuSans-30" transform="translate(63.623047 0)"/>
       <use xlink:href="#DejaVuSans-30" transform="translate(127.246094 0)"/>
      </g>
     </g>
    </g>
    <g id="text_10">
     <!-- Epochs -->
     <g transform="translate(304.865625 604.994688) scale(0.1 -0.1)">
      <defs>
       <path id="DejaVuSans-45" d="M 628 4666 
L 3578 4666 
L 3578 4134 
L 1259 4134 
L 1259 2753 
L 3481 2753 
L 3481 2222 
L 1259 2222 
L 1259 531 
L 3634 531 
L 3634 0 
L 628 0 
L 628 4666 
z
" transform="scale(0.015625)"/>
       <path id="DejaVuSans-70" d="M 1159 525 
L 1159 -1331 
L 581 -1331 
L 581 3500 
L 1159 3500 
L 1159 2969 
Q 1341 3281 1617 3432 
Q 1894 3584 2278 3584 
Q 2916 3584 3314 3078 
Q 3713 2572 3713 1747 
Q 3713 922 3314 415 
Q 2916 -91 2278 -91 
Q 1894 -91 1617 61 
Q 1341 213 1159 525 
z
M 3116 1747 
Q 3116 2381 2855 2742 
Q 2594 3103 2138 3103 
Q 1681 3103 1420 2742 
Q 1159 2381 1159 1747 
Q 1159 1113 1420 752 
Q 1681 391 2138 391 
Q 2594 391 2855 752 
Q 3116 1113 3116 1747 
z
" transform="scale(0.015625)"/>
       <path id="DejaVuSans-6f" d="M 1959 3097 
Q 1497 3097 1228 2736 
Q 959 2375 959 1747 
Q 959 1119 1226 758 
Q 1494 397 1959 397 
Q 2419 397 2687 759 
Q 2956 1122 2956 1747 
Q 2956 2369 2687 2733 
Q 2419 3097 1959 3097 
z
M 1959 3584 
Q 2709 3584 3137 3096 
Q 3566 2609 3566 1747 
Q 3566 888 3137 398 
Q 2709 -91 1959 -91 
Q 1206 -91 779 398 
Q 353 888 353 1747 
Q 353 2609 779 3096 
Q 1206 3584 1959 3584 
z
" transform="scale(0.015625)"/>
       <path id="DejaVuSans-63" d="M 3122 3366 
L 3122 2828 
Q 2878 2963 2633 3030 
Q 2388 3097 2138 3097 
Q 1578 3097 1268 2742 
Q 959 2388 959 1747 
Q 959 1106 1268 751 
Q 1578 397 2138 397 
Q 2388 397 2633 464 
Q 2878 531 3122 666 
L 3122 134 
Q 2881 22 2623 -34 
Q 2366 -91 2075 -91 
Q 1284 -91 818 406 
Q 353 903 353 1747 
Q 353 2603 823 3093 
Q 1294 3584 2113 3584 
Q 2378 3584 2631 3529 
Q 2884 3475 3122 3366 
z
" transform="scale(0.015625)"/>
       <path id="DejaVuSans-68" d="M 3513 2113 
L 3513 0 
L 2938 0 
L 2938 2094 
Q 2938 2591 2744 2837 
Q 2550 3084 2163 3084 
Q 1697 3084 1428 2787 
Q 1159 2491 1159 1978 
L 1159 0 
L 581 0 
L 581 4863 
L 1159 4863 
L 1159 2956 
Q 1366 3272 1645 3428 
Q 1925 3584 2291 3584 
Q 2894 3584 3203 3211 
Q 3513 2838 3513 2113 
z
" transform="scale(0.015625)"/>
       <path id="DejaVuSans-73" d="M 2834 3397 
L 2834 2853 
Q 2591 2978 2328 3040 
Q 2066 3103 1784 3103 
Q 1356 3103 1142 2972 
Q 928 2841 928 2578 
Q 928 2378 1081 2264 
Q 1234 2150 1697 2047 
L 1894 2003 
Q 2506 1872 2764 1633 
Q 3022 1394 3022 966 
Q 3022 478 2636 193 
Q 2250 -91 1575 -91 
Q 1294 -91 989 -36 
Q 684 19 347 128 
L 347 722 
Q 666 556 975 473 
Q 1284 391 1588 391 
Q 1994 391 2212 530 
Q 2431 669 2431 922 
Q 2431 1156 2273 1281 
Q 2116 1406 1581 1522 
L 1381 1569 
Q 847 1681 609 1914 
Q 372 2147 372 2553 
Q 372 3047 722 3315 
Q 1072 3584 1716 3584 
Q 2034 3584 2315 3537 
Q 2597 3491 2834 3397 
z
" transform="scale(0.015625)"/>
      </defs>
      <use xlink:href="#DejaVuSans-45"/>
      <use xlink:href="#DejaVuSans-70" transform="translate(63.183594 0)"/>
      <use xlink:href="#DejaVuSans-6f" transform="translate(126.660156 0)"/>
      <use xlink:href="#DejaVuSans-63" transform="translate(187.841797 0)"/>
      <use xlink:href="#DejaVuSans-68" transform="translate(242.822266 0)"/>
      <use xlink:href="#DejaVuSans-73" transform="translate(306.201172 0)"/>
     </g>
    </g>
   </g>
   <g id="matplotlib.axis_2">
    <g id="ytick_1">
     <g id="line2d_19">
      <path d="M 43.78125 553.507466 
L 601.78125 553.507466 
" clip-path="url(#p18e3243841)" style="fill: none; stroke: #b0b0b0; stroke-width: 0.8; stroke-linecap: square"/>
     </g>
     <g id="line2d_20">
      <defs>
       <path id="m992ecbdd18" d="M 0 0 
L -3.5 0 
" style="stroke: #000000; stroke-width: 0.8"/>
      </defs>
      <g>
       <use xlink:href="#m992ecbdd18" x="43.78125" y="553.507466" style="stroke: #000000; stroke-width: 0.8"/>
      </g>
     </g>
     <g id="text_11">
      <!-- 0.0 -->
      <g transform="translate(20.878125 557.306685) scale(0.1 -0.1)">
       <defs>
        <path id="DejaVuSans-2e" d="M 684 794 
L 1344 794 
L 1344 0 
L 684 0 
L 684 794 
z
" transform="scale(0.015625)"/>
       </defs>
       <use xlink:href="#DejaVuSans-30"/>
       <use xlink:href="#DejaVuSans-2e" transform="translate(63.623047 0)"/>
       <use xlink:href="#DejaVuSans-30" transform="translate(95.410156 0)"/>
      </g>
     </g>
    </g>
    <g id="ytick_2">
     <g id="line2d_21">
      <path d="M 43.78125 451.653203 
L 601.78125 451.653203 
" clip-path="url(#p18e3243841)" style="fill: none; stroke: #b0b0b0; stroke-width: 0.8; stroke-linecap: square"/>
     </g>
     <g id="line2d_22">
      <g>
       <use xlink:href="#m992ecbdd18" x="43.78125" y="451.653203" style="stroke: #000000; stroke-width: 0.8"/>
      </g>
     </g>
     <g id="text_12">
      <!-- 0.2 -->
      <g transform="translate(20.878125 455.452421) scale(0.1 -0.1)">
       <use xlink:href="#DejaVuSans-30"/>
       <use xlink:href="#DejaVuSans-2e" transform="translate(63.623047 0)"/>
       <use xlink:href="#DejaVuSans-32" transform="translate(95.410156 0)"/>
      </g>
     </g>
    </g>
    <g id="ytick_3">
     <g id="line2d_23">
      <path d="M 43.78125 349.798939 
L 601.78125 349.798939 
" clip-path="url(#p18e3243841)" style="fill: none; stroke: #b0b0b0; stroke-width: 0.8; stroke-linecap: square"/>
     </g>
     <g id="line2d_24">
      <g>
       <use xlink:href="#m992ecbdd18" x="43.78125" y="349.798939" style="stroke: #000000; stroke-width: 0.8"/>
      </g>
     </g>
     <g id="text_13">
      <!-- 0.4 -->
      <g transform="translate(20.878125 353.598158) scale(0.1 -0.1)">
       <use xlink:href="#DejaVuSans-30"/>
       <use xlink:href="#DejaVuSans-2e" transform="translate(63.623047 0)"/>
       <use xlink:href="#DejaVuSans-34" transform="translate(95.410156 0)"/>
      </g>
     </g>
    </g>
    <g id="ytick_4">
     <g id="line2d_25">
      <path d="M 43.78125 247.944676 
L 601.78125 247.944676 
" clip-path="url(#p18e3243841)" style="fill: none; stroke: #b0b0b0; stroke-width: 0.8; stroke-linecap: square"/>
     </g>
     <g id="line2d_26">
      <g>
       <use xlink:href="#m992ecbdd18" x="43.78125" y="247.944676" style="stroke: #000000; stroke-width: 0.8"/>
      </g>
     </g>
     <g id="text_14">
      <!-- 0.6 -->
      <g transform="translate(20.878125 251.743895) scale(0.1 -0.1)">
       <use xlink:href="#DejaVuSans-30"/>
       <use xlink:href="#DejaVuSans-2e" transform="translate(63.623047 0)"/>
       <use xlink:href="#DejaVuSans-36" transform="translate(95.410156 0)"/>
      </g>
     </g>
    </g>
    <g id="ytick_5">
     <g id="line2d_27">
      <path d="M 43.78125 146.090413 
L 601.78125 146.090413 
" clip-path="url(#p18e3243841)" style="fill: none; stroke: #b0b0b0; stroke-width: 0.8; stroke-linecap: square"/>
     </g>
     <g id="line2d_28">
      <g>
       <use xlink:href="#m992ecbdd18" x="43.78125" y="146.090413" style="stroke: #000000; stroke-width: 0.8"/>
      </g>
     </g>
     <g id="text_15">
      <!-- 0.8 -->
      <g transform="translate(20.878125 149.889631) scale(0.1 -0.1)">
       <use xlink:href="#DejaVuSans-30"/>
       <use xlink:href="#DejaVuSans-2e" transform="translate(63.623047 0)"/>
       <use xlink:href="#DejaVuSans-38" transform="translate(95.410156 0)"/>
      </g>
     </g>
    </g>
    <g id="ytick_6">
     <g id="line2d_29">
      <path d="M 43.78125 44.236149 
L 601.78125 44.236149 
" clip-path="url(#p18e3243841)" style="fill: none; stroke: #b0b0b0; stroke-width: 0.8; stroke-linecap: square"/>
     </g>
     <g id="line2d_30">
      <g>
       <use xlink:href="#m992ecbdd18" x="43.78125" y="44.236149" style="stroke: #000000; stroke-width: 0.8"/>
      </g>
     </g>
     <g id="text_16">
      <!-- 1.0 -->
      <g transform="translate(20.878125 48.035368) scale(0.1 -0.1)">
       <use xlink:href="#DejaVuSans-31"/>
       <use xlink:href="#DejaVuSans-2e" transform="translate(63.623047 0)"/>
       <use xlink:href="#DejaVuSans-30" transform="translate(95.410156 0)"/>
      </g>
     </g>
    </g>
    <g id="text_17">
     <!-- Accuracy -->
     <g transform="translate(14.798438 322.34625) rotate(-90) scale(0.1 -0.1)">
      <defs>
       <path id="DejaVuSans-41" d="M 2188 4044 
L 1331 1722 
L 3047 1722 
L 2188 4044 
z
M 1831 4666 
L 2547 4666 
L 4325 0 
L 3669 0 
L 3244 1197 
L 1141 1197 
L 716 0 
L 50 0 
L 1831 4666 
z
" transform="scale(0.015625)"/>
       <path id="DejaVuSans-75" d="M 544 1381 
L 544 3500 
L 1119 3500 
L 1119 1403 
Q 1119 906 1312 657 
Q 1506 409 1894 409 
Q 2359 409 2629 706 
Q 2900 1003 2900 1516 
L 2900 3500 
L 3475 3500 
L 3475 0 
L 2900 0 
L 2900 538 
Q 2691 219 2414 64 
Q 2138 -91 1772 -91 
Q 1169 -91 856 284 
Q 544 659 544 1381 
z
M 1991 3584 
L 1991 3584 
z
" transform="scale(0.015625)"/>
       <path id="DejaVuSans-72" d="M 2631 2963 
Q 2534 3019 2420 3045 
Q 2306 3072 2169 3072 
Q 1681 3072 1420 2755 
Q 1159 2438 1159 1844 
L 1159 0 
L 581 0 
L 581 3500 
L 1159 3500 
L 1159 2956 
Q 1341 3275 1631 3429 
Q 1922 3584 2338 3584 
Q 2397 3584 2469 3576 
Q 2541 3569 2628 3553 
L 2631 2963 
z
" transform="scale(0.015625)"/>
       <path id="DejaVuSans-61" d="M 2194 1759 
Q 1497 1759 1228 1600 
Q 959 1441 959 1056 
Q 959 750 1161 570 
Q 1363 391 1709 391 
Q 2188 391 2477 730 
Q 2766 1069 2766 1631 
L 2766 1759 
L 2194 1759 
z
M 3341 1997 
L 3341 0 
L 2766 0 
L 2766 531 
Q 2569 213 2275 61 
Q 1981 -91 1556 -91 
Q 1019 -91 701 211 
Q 384 513 384 1019 
Q 384 1609 779 1909 
Q 1175 2209 1959 2209 
L 2766 2209 
L 2766 2266 
Q 2766 2663 2505 2880 
Q 2244 3097 1772 3097 
Q 1472 3097 1187 3025 
Q 903 2953 641 2809 
L 641 3341 
Q 956 3463 1253 3523 
Q 1550 3584 1831 3584 
Q 2591 3584 2966 3190 
Q 3341 2797 3341 1997 
z
" transform="scale(0.015625)"/>
       <path id="DejaVuSans-79" d="M 2059 -325 
Q 1816 -950 1584 -1140 
Q 1353 -1331 966 -1331 
L 506 -1331 
L 506 -850 
L 844 -850 
Q 1081 -850 1212 -737 
Q 1344 -625 1503 -206 
L 1606 56 
L 191 3500 
L 800 3500 
L 1894 763 
L 2988 3500 
L 3597 3500 
L 2059 -325 
z
" transform="scale(0.015625)"/>
      </defs>
      <use xlink:href="#DejaVuSans-41"/>
      <use xlink:href="#DejaVuSans-63" transform="translate(66.658203 0)"/>
      <use xlink:href="#DejaVuSans-63" transform="translate(121.638672 0)"/>
      <use xlink:href="#DejaVuSans-75" transform="translate(176.619141 0)"/>
      <use xlink:href="#DejaVuSans-72" transform="translate(239.998047 0)"/>
      <use xlink:href="#DejaVuSans-61" transform="translate(281.111328 0)"/>
      <use xlink:href="#DejaVuSans-63" transform="translate(342.390625 0)"/>
      <use xlink:href="#DejaVuSans-79" transform="translate(397.371094 0)"/>
     </g>
    </g>
   </g>
   <g id="line2d_31">
    <path d="M 69.144886 421.798583 
L 69.779771 415.27426 
L 70.414655 414.668785 
L 71.04954 413.729467 
L 71.684424 413.271123 
L 72.319309 412.490242 
L 73.589078 410.003292 
L 74.223962 409.1432 
L 74.858847 407.954896 
L 75.493732 406.39878 
L 76.128616 405.65469 
L 78.668154 399.384984 
L 79.303039 398.21084 
L 80.572808 394.430907 
L 81.842577 391.714792 
L 82.477461 389.618298 
L 83.112346 388.056537 
L 83.74723 386.093013 
L 84.382115 384.845288 
L 85.016999 382.819521 
L 86.921653 377.735297 
L 88.826306 372.266294 
L 90.096075 368.851348 
L 90.73096 367.10002 
L 91.365844 365.739133 
L 92.000729 363.642639 
L 92.635613 362.211009 
L 96.44492 351.142856 
L 97.079805 349.832888 
L 97.71469 347.804298 
L 98.349574 346.16331 
L 98.984459 344.17998 
L 99.619343 342.72572 
L 100.889112 338.600636 
L 101.523997 337.358573 
L 102.793766 333.442847 
L 103.42865 332.056491 
L 104.063535 330.143903 
L 104.698419 328.587787 
L 105.968188 324.926694 
L 106.603073 323.752534 
L 107.872842 319.887744 
L 109.142611 316.996209 
L 110.41238 313.270034 
L 111.047264 311.945937 
L 111.682149 310.053139 
L 112.317033 308.530991 
L 112.951918 306.541999 
L 113.586802 304.980238 
L 114.221687 303.871159 
L 114.856571 301.870845 
L 115.491456 300.60899 
L 116.12634 298.704886 
L 117.396109 295.884093 
L 118.030994 293.73384 
L 118.665879 292.471955 
L 119.300763 290.545236 
L 119.935648 289.52103 
L 121.205417 285.910857 
L 121.840301 284.623535 
L 123.11007 281.392495 
L 124.379839 278.888577 
L 125.014724 276.842988 
L 125.649608 275.671682 
L 126.919377 272.454787 
L 128.824031 268.32685 
L 129.458915 266.456682 
L 131.998453 261.061244 
L 133.903107 256.506091 
L 134.537991 255.3574 
L 135.172876 253.614571 
L 135.80776 253.110953 
L 137.077529 249.6762 
L 138.347298 247.342027 
L 138.982183 245.61899 
L 139.617067 244.591961 
L 140.251952 242.990587 
L 140.886837 241.887185 
L 141.521721 240.554573 
L 142.156606 238.868326 
L 142.79149 237.9177 
L 147.870566 227.220165 
L 148.505451 226.337413 
L 149.77522 223.290294 
L 151.679873 220.127158 
L 152.949642 217.020603 
L 154.219411 214.440282 
L 159.933372 203.56168 
L 161.203141 200.924777 
L 161.838026 199.900571 
L 162.47291 198.344486 
L 163.107795 197.495701 
L 163.742679 195.979199 
L 164.377564 195.300159 
L 166.282217 191.370288 
L 166.917102 190.552617 
L 167.551986 189.270971 
L 168.186871 188.374073 
L 168.821755 186.617099 
L 170.091524 184.797867 
L 170.726409 183.510545 
L 171.361293 182.610825 
L 173.265947 179.27509 
L 173.900831 177.860459 
L 174.535716 176.904157 
L 175.1706 175.486673 
L 175.805485 174.957617 
L 177.710138 171.763337 
L 178.345023 170.764598 
L 178.979907 170.020508 
L 180.884561 166.062346 
L 183.424099 162.503108 
L 184.058984 161.113914 
L 185.328753 159.351264 
L 186.598522 157.150076 
L 187.233406 156.39184 
L 187.868291 155.285585 
L 188.503175 154.606575 
L 189.13806 153.166446 
L 189.772944 152.295047 
L 190.407829 151.771606 
L 191.042713 150.772868 
L 192.312482 148.226514 
L 192.947367 147.389051 
L 193.582251 146.302618 
L 194.217136 145.626401 
L 194.85202 144.571081 
L 196.121789 143.094192 
L 196.756674 142.214294 
L 197.391558 140.966584 
L 198.026443 140.197026 
L 198.661327 138.95214 
L 199.296212 138.50228 
L 199.931096 137.271539 
L 201.200865 136.094557 
L 201.83575 134.855316 
L 205.010173 130.566133 
L 205.645057 130.121919 
L 206.279942 128.970405 
L 206.914826 128.192347 
L 207.549711 127.094591 
L 208.81948 125.665815 
L 209.454364 124.797208 
L 210.089249 123.719244 
L 211.359018 122.63281 
L 211.993902 121.591636 
L 212.628787 120.918272 
L 213.263671 120.04402 
L 213.898556 118.968878 
L 214.53344 118.674648 
L 215.168325 117.726815 
L 215.803209 117.090242 
L 218.342747 113.881816 
L 218.977632 113.267888 
L 219.612516 112.970804 
L 220.247401 111.816466 
L 221.51717 110.512145 
L 222.152054 110.113221 
L 223.421823 108.466587 
L 224.691592 106.975552 
L 225.961362 105.968315 
L 226.596246 105.085593 
L 227.231131 104.581974 
L 227.866015 103.750158 
L 229.135784 102.940987 
L 230.405553 101.268885 
L 231.675322 100.069258 
L 232.945091 99.197828 
L 234.21486 97.678503 
L 234.849745 97.03343 
L 235.484629 96.95988 
L 236.119514 96.1705 
L 236.754398 95.686703 
L 238.024167 94.37109 
L 238.659052 93.949521 
L 239.293936 93.386497 
L 239.928821 93.02151 
L 240.563705 92.345323 
L 243.738128 89.711243 
L 244.373012 88.8087 
L 245.007897 88.752118 
L 245.642781 88.002351 
L 246.277666 87.824107 
L 246.91255 87.453473 
L 247.547435 86.655624 
L 251.991627 83.413262 
L 252.626511 83.342535 
L 253.261396 82.527687 
L 254.531165 82.11744 
L 255.166049 81.32809 
L 257.070703 79.981333 
L 257.705587 79.837056 
L 258.340472 79.121226 
L 258.975356 79.092935 
L 259.610241 78.430894 
L 260.88001 77.797143 
L 261.514894 77.208652 
L 262.784663 76.645598 
L 263.419548 75.946767 
L 264.054432 75.918476 
L 264.689317 75.403565 
L 265.324201 75.041401 
L 265.959086 74.506668 
L 266.59397 74.373683 
L 267.228855 74.051162 
L 267.863739 73.58148 
L 268.498624 73.414558 
L 269.133509 72.919439 
L 269.768393 72.712904 
L 271.673047 71.476517 
L 272.942816 71.091738 
L 273.5777 70.288212 
L 276.117238 69.456396 
L 276.752123 68.918841 
L 278.656776 68.17472 
L 279.291661 67.739035 
L 279.926545 67.821085 
L 281.196314 66.876075 
L 282.466083 66.74312 
L 284.370737 65.730237 
L 285.005621 65.571784 
L 285.640506 65.189828 
L 286.910275 64.949356 
L 287.545159 64.360865 
L 288.180044 64.012845 
L 288.814928 63.899682 
L 289.449813 63.653534 
L 290.084697 63.189528 
L 290.719582 63.288546 
L 291.354467 63.048074 
L 291.989351 62.651973 
L 293.894005 61.989901 
L 294.528889 61.839948 
L 295.798658 61.367473 
L 296.433543 61.308069 
L 297.703312 60.677111 
L 298.973081 60.394203 
L 299.607965 60.082974 
L 300.877734 59.887761 
L 301.512619 59.364351 
L 302.147503 59.449224 
L 302.782388 59.07859 
L 303.417272 58.928636 
L 304.052157 58.603262 
L 304.687041 58.504244 
L 305.321926 58.668343 
L 305.95681 58.300532 
L 306.591695 58.102466 
L 307.226579 57.590378 
L 307.861464 57.805413 
L 308.496348 57.576233 
L 309.131233 57.07826 
L 309.766117 57.321585 
L 310.401002 57.149018 
L 311.035886 56.622754 
L 311.670771 56.840612 
L 312.305656 56.614285 
L 312.94054 56.583141 
L 316.114963 55.689097 
L 317.384732 55.459917 
L 318.654501 55.09496 
L 319.289385 55.145865 
L 319.92427 54.837489 
L 321.194039 54.622455 
L 323.733577 54.226353 
L 324.368461 54.166949 
L 325.003346 53.745379 
L 326.273115 53.558636 
L 326.907999 53.674652 
L 328.177768 53.374746 
L 328.812653 53.088984 
L 330.082422 53.114452 
L 333.256844 52.480671 
L 333.891729 52.514639 
L 334.526614 52.217555 
L 335.161498 52.415621 
L 336.431267 51.89218 
L 337.066152 52.115714 
L 337.701036 51.880888 
L 338.970805 51.861066 
L 339.60569 51.784693 
L 340.240574 51.538545 
L 341.510343 51.58945 
L 342.145228 51.354625 
L 344.049881 51.266929 
L 344.684766 50.884973 
L 345.31965 51.162235 
L 345.954535 50.890619 
L 346.589419 51.000959 
L 347.224304 50.978345 
L 347.859188 50.817069 
L 348.494073 51.02925 
L 349.763842 50.406822 
L 350.398726 50.500194 
L 351.033611 50.409645 
L 352.30338 50.517162 
L 354.842918 50.327596 
L 355.477803 50.010721 
L 356.112687 50.197464 
L 356.747572 50.053157 
L 357.382456 50.200287 
L 358.652225 49.939994 
L 359.28711 50.101269 
L 359.921994 49.87209 
L 360.556879 49.928671 
L 361.191763 49.722136 
L 361.826648 49.770218 
L 362.461532 49.56936 
L 363.096417 49.526924 
L 363.731301 49.75325 
L 364.366186 49.521247 
L 365.00107 49.671201 
L 365.635955 49.410907 
L 366.905724 49.572183 
L 368.175493 49.535393 
L 368.810377 49.243985 
L 370.080146 49.272276 
L 370.715031 49.258131 
L 371.349915 49.444874 
L 371.9848 49.130822 
L 372.619684 49.258131 
L 373.254569 49.122323 
L 373.889453 49.111 
L 374.524338 48.966723 
L 375.794107 49.116677 
L 377.063876 49.082709 
L 377.698761 48.813947 
L 378.96853 48.88182 
L 379.603414 49.00066 
L 380.238299 48.802624 
L 380.873183 48.92711 
L 382.142952 48.658317 
L 382.777837 48.992191 
L 383.412721 48.763011 
L 384.047606 48.921434 
L 385.317375 48.644172 
L 385.952259 48.683785 
L 386.587144 48.497041 
L 387.222028 48.777157 
L 390.396451 48.632849 
L 391.66622 48.279184 
L 392.935989 48.763011 
L 393.570873 48.494218 
L 394.205758 48.420668 
L 396.745296 48.519686 
L 397.38018 48.364087 
L 398.015065 48.553653 
L 398.64995 48.253747 
L 399.919719 48.310328 
L 400.554603 48.51404 
L 401.189488 48.332943 
L 401.824372 48.621527 
L 402.459257 48.613058 
L 403.094141 48.253747 
L 405.633679 48.282037 
L 407.538333 48.055681 
L 408.173217 48.296183 
L 408.808102 48.069826 
L 409.442986 48.168844 
L 410.712755 48.004745 
L 411.34764 48.290506 
L 411.982524 48.228279 
L 412.617409 48.310328 
L 413.252293 48.245247 
L 413.887178 48.296183 
L 414.522062 48.083971 
L 415.156947 48.033036 
L 417.0616 48.245247 
L 417.696485 48.061357 
L 418.331369 48.103793 
L 418.966254 48.276361 
L 420.236023 48.21128 
L 420.870908 48.044358 
L 421.505792 48.250893 
L 422.140677 48.296183 
L 422.775561 48.007598 
L 423.410446 48.214133 
L 424.680215 48.197135 
L 425.315099 48.024567 
L 427.854637 48.004745 
L 428.489522 47.874613 
L 429.124406 48.267892 
L 429.759291 47.962309 
L 431.02906 48.004745 
L 431.663944 48.140553 
L 432.298829 48.02739 
L 432.933713 48.185843 
L 434.203482 47.984954 
L 434.838367 48.083971 
L 435.473251 47.936841 
L 436.108136 47.942517 
L 436.74302 47.707692 
L 437.377905 47.891582 
L 438.012789 48.21128 
L 439.282558 47.820855 
L 441.187212 48.149052 
L 442.456981 47.840646 
L 443.091866 47.993453 
L 444.361635 47.789741 
L 445.631404 47.928372 
L 446.266288 47.809532 
L 446.901173 47.919873 
L 447.536057 47.72466 
L 448.170942 47.931195 
L 448.805826 47.857645 
L 449.440711 48.041535 
L 450.075595 47.68787 
L 450.71048 47.987777 
L 451.980249 47.809532 
L 452.615133 48.013244 
L 453.250018 47.888759 
L 455.154671 47.928372 
L 455.789556 48.01889 
L 457.059325 47.727483 
L 458.329094 47.911404 
L 458.963978 47.984954 
L 459.598863 47.815209 
L 460.233747 47.76145 
L 460.868632 47.866114 
L 461.503516 47.735982 
L 462.138401 47.897258 
L 462.773285 47.702015 
L 463.40817 47.976454 
L 464.043055 48.013244 
L 464.677939 47.778419 
L 465.312824 48.033036 
L 465.947708 47.9906 
L 466.582593 47.730306 
L 468.487246 47.934018 
L 469.122131 47.792564 
L 469.757015 47.863291 
L 472.296553 47.622789 
L 472.931438 48.016067 
L 474.201207 47.639788 
L 474.836091 47.965162 
L 475.470976 47.755774 
L 476.10586 47.956663 
L 477.375629 47.685047 
L 478.010514 47.8435 
L 479.915167 47.888759 
L 480.550052 47.996276 
L 482.454705 47.693546 
L 483.08959 47.902904 
L 483.724474 47.730306 
L 484.994244 47.786888 
L 485.629128 47.560561 
L 486.264013 47.784065 
L 486.898897 47.750128 
L 487.533782 48.016067 
L 488.168666 47.820855 
L 488.803551 47.90855 
L 489.438435 47.735982 
L 490.07332 47.922696 
L 491.343089 47.721837 
L 491.977973 47.713338 
L 492.612858 47.863291 
L 493.882627 47.518125 
L 495.152396 47.820855 
L 496.422165 47.784065 
L 497.057049 47.668078 
L 497.691934 47.837823 
L 498.326818 47.693546 
L 498.961703 47.820855 
L 500.231472 47.818032 
L 500.866356 47.622789 
L 501.501241 47.662402 
L 502.136125 47.942517 
L 502.77101 47.68787 
L 504.040779 47.866114 
L 505.310548 47.744451 
L 505.945433 47.823678 
L 507.215202 47.786888 
L 509.119855 47.8435 
L 509.75474 47.769919 
L 510.389624 47.967985 
L 511.024509 47.857645 
L 511.659393 47.891582 
L 512.294278 47.710515 
L 512.929162 48.061357 
L 513.564047 47.744451 
L 518.008238 47.803886 
L 518.643123 47.716161 
L 519.278007 47.860468 
L 520.547776 47.786888 
L 521.182661 47.891582 
L 521.817545 47.854792 
L 522.45243 47.636965 
L 524.357083 47.94534 
L 524.991968 47.764273 
L 525.626852 47.87179 
L 527.531506 47.781242 
L 528.166391 47.710515 
L 528.801275 47.79821 
L 529.43616 48.047181 
L 530.071044 47.775596 
L 530.705929 47.721837 
L 533.245467 47.959486 
L 535.15012 47.549239 
L 535.785005 47.710515 
L 536.419889 47.72466 
L 537.054774 47.902904 
L 537.689658 47.772742 
L 538.324543 47.976454 
L 538.959427 47.702015 
L 539.594312 47.868937 
L 542.13385 47.979308 
L 542.768734 47.645434 
L 543.403619 47.90855 
L 545.943157 47.65111 
L 546.578041 47.851969 
L 547.84781 47.713338 
L 548.482695 47.849146 
L 549.752464 47.818032 
L 550.387349 47.591675 
L 551.022233 47.826501 
L 552.292002 48.052858 
L 553.561771 47.61432 
L 554.196656 47.880259 
L 554.83154 47.812355 
L 555.466425 48.106616 
L 556.101309 47.835 
L 557.371078 47.826501 
L 562.450154 47.786888 
L 563.085039 47.987777 
L 563.719923 47.634111 
L 564.989692 47.900081 
L 565.624577 47.965162 
L 566.894346 47.840646 
L 567.52923 47.95384 
L 568.164115 47.716161 
L 568.798999 47.679401 
L 570.068768 47.874613 
L 570.703653 47.707692 
L 571.973422 47.897258 
L 572.608307 47.702015 
L 573.878076 47.702015 
L 575.147845 47.76145 
L 575.782729 48.098117 
L 576.417614 47.733159 
L 576.417614 47.733159 
" clip-path="url(#p18e3243841)" style="fill: none; stroke: #1f77b4; stroke-width: 1.5; stroke-linecap: square"/>
   </g>
   <g id="line2d_32">
    <path d="M 69.144886 420.944137 
L 69.779771 418.346862 
L 70.414655 416.895441 
L 71.04954 416.74265 
L 71.684424 418.168618 
L 72.319309 417.481094 
L 72.954193 417.786662 
L 73.589078 419.441795 
L 74.223962 418.652415 
L 74.858847 420.638584 
L 75.493732 417.608418 
L 76.128616 419.823752 
L 76.763501 421.504337 
L 77.398385 419.034371 
L 78.03327 419.569104 
L 78.668154 420.358484 
L 79.303039 422.930306 
L 79.937923 421.860826 
L 80.572808 424.559971 
L 81.207692 422.446494 
L 81.842577 423.38865 
L 82.477461 422.752062 
L 83.74723 425.222028 
L 84.382115 422.853903 
L 85.016999 424.68728 
L 85.651884 424.661827 
L 86.286768 424.763683 
L 86.921653 426.571593 
L 88.191422 425.502128 
L 88.826306 423.872447 
L 89.461191 426.418809 
L 90.096075 425.069236 
L 90.73096 424.63636 
L 91.365844 426.393349 
L 92.000729 427.462814 
L 92.635613 425.19656 
L 93.270498 427.819302 
L 93.905382 427.488282 
L 94.540267 428.506819 
L 95.175151 428.914235 
L 95.810036 428.659603 
L 96.44492 426.851693 
L 97.079805 429.856392 
L 97.71469 429.703608 
L 99.619343 429.754536 
L 100.254228 429.296191 
L 100.889112 431.435129 
L 101.523997 429.576292 
L 102.158881 431.638841 
L 103.42865 431.104109 
L 104.063535 433.090262 
L 104.698419 431.664301 
L 105.333304 430.747613 
L 105.968188 432.351818 
L 106.603073 431.944402 
L 107.237957 432.199042 
L 107.872842 431.842546 
L 108.507726 431.740697 
L 109.142611 433.599535 
L 109.777495 432.249962 
L 110.41238 432.733774 
L 111.047264 433.930563 
L 111.682149 433.192118 
L 112.317033 432.962946 
L 112.951918 432.886558 
L 113.586802 432.631918 
L 114.221687 433.14119 
L 114.856571 433.854167 
L 115.491456 433.956023 
L 116.761225 435.432912 
L 117.396109 432.631918 
L 118.030994 436.018573 
L 118.665879 433.675923 
L 119.935648 437.57185 
L 120.570532 435.865789 
L 121.205417 435.076424 
L 121.840301 436.018573 
L 122.475186 437.54639 
L 123.11007 437.54639 
L 123.744955 434.745396 
L 124.379839 436.680629 
L 125.014724 435.916717 
L 125.649608 437.699166 
L 126.284493 434.694468 
L 126.919377 436.324133 
L 127.554262 434.083339 
L 128.189146 437.240822 
L 128.824031 436.273213 
L 129.458915 436.833405 
L 130.0938 436.349601 
L 130.728684 437.469994 
L 131.363569 435.76394 
L 132.633338 440.398304 
L 133.268222 437.01165 
L 133.903107 438.386683 
L 134.537991 438.437611 
L 135.80776 437.26629 
L 136.442645 438.819567 
L 137.077529 438.895955 
L 137.712414 437.979266 
L 138.347298 438.845027 
L 138.982183 439.9145 
L 139.617067 441.365921 
L 140.251952 440.831188 
L 140.886837 438.768639 
L 141.521721 438.997811 
L 142.156606 439.9145 
L 142.79149 439.583472 
L 143.426375 441.085821 
L 144.061259 440.296456 
L 144.696144 441.416849 
L 145.331028 441.365921 
L 145.965913 441.926121 
L 146.600797 441.569633 
L 147.235682 440.551088 
L 147.870566 441.111289 
L 148.505451 439.965428 
L 149.140335 441.136749 
L 149.77522 441.442309 
L 150.410104 441.085821 
L 151.044989 439.93996 
L 151.679873 441.798805 
L 152.314758 441.620561 
L 152.949642 442.766422 
L 153.584527 443.301154 
L 154.219411 440.576548 
L 154.854296 440.067284 
L 155.48918 443.021054 
L 156.124065 441.289533 
L 156.758949 442.027977 
L 157.393834 441.391389 
L 158.028718 443.734031 
L 158.663603 441.722409 
L 159.298487 442.86827 
L 159.933372 442.104366 
L 160.568256 441.034893 
L 161.203141 442.56271 
L 161.838026 442.919198 
L 162.47291 442.766422 
L 163.107795 441.569633 
L 163.742679 441.289533 
L 165.012448 443.632183 
L 165.647333 442.28261 
L 166.282217 443.301154 
L 166.917102 444.727115 
L 167.551986 442.333538 
L 168.186871 443.173838 
L 168.821755 442.715494 
L 169.45664 443.708571 
L 170.091524 443.632183 
L 170.726409 442.053438 
L 171.361293 443.224766 
L 171.996178 443.937743 
L 172.631062 443.377543 
L 173.265947 443.224766 
L 173.900831 444.090527 
L 174.535716 442.995594 
L 175.1706 444.574332 
L 175.805485 444.014131 
L 176.440369 443.14837 
L 177.075254 443.810427 
L 177.710138 443.504859 
L 178.345023 444.396087 
L 178.979907 444.752576 
L 179.614792 442.613638 
L 180.249676 443.937743 
L 180.884561 444.90536 
L 181.519445 444.421548 
L 182.15433 442.409926 
L 182.789215 443.810427 
L 183.424099 443.301154 
L 184.058984 443.097442 
L 184.693868 444.956288 
L 185.328753 444.115987 
L 185.963637 444.828964 
L 186.598522 443.071982 
L 187.233406 443.784959 
L 187.868291 445.414632 
L 188.503175 442.766422 
L 189.13806 444.243303 
L 189.772944 442.944666 
L 190.407829 444.90536 
L 191.042713 445.923897 
L 191.677598 443.784959 
L 192.312482 445.109064 
L 192.947367 445.134532 
L 193.582251 444.676187 
L 194.217136 444.625259 
L 194.85202 446.203997 
L 195.486905 444.854432 
L 196.121789 445.389164 
L 196.756674 444.243303 
L 197.391558 443.835887 
L 198.026443 446.305853 
L 198.661327 444.447015 
L 199.296212 444.548871 
L 199.931096 445.745653 
L 200.565981 445.083604 
L 201.83575 444.701648 
L 202.470634 444.548871 
L 203.105519 444.701648 
L 204.375288 445.592876 
L 205.010173 444.319699 
L 205.645057 445.18546 
L 206.279942 444.879892 
L 206.914826 446.127609 
L 207.549711 444.956288 
L 208.184595 445.49102 
L 208.81948 445.694725 
L 209.454364 445.312776 
L 210.089249 445.669264 
L 210.724133 445.49102 
L 211.359018 444.981748 
L 211.993902 445.18546 
L 213.263671 446.687809 
L 213.898556 445.720192 
L 214.53344 445.389164 
L 215.168325 446.484097 
L 215.803209 445.567408 
L 216.438094 445.49102 
L 217.072978 446.433169 
L 217.707863 446.153069 
L 218.342747 444.752576 
L 218.977632 444.854432 
L 219.612516 445.46556 
L 220.247401 445.694725 
L 220.882285 446.866053 
L 221.51717 447.044297 
L 222.152054 444.752576 
L 222.786939 446.738737 
L 223.421823 446.305853 
L 224.056708 447.29893 
L 224.691592 445.134532 
L 225.326477 445.898437 
L 225.961362 445.77112 
L 226.596246 446.102149 
L 227.231131 445.898437 
L 227.866015 446.713269 
L 228.5009 446.305853 
L 229.135784 445.592876 
L 229.770669 445.541948 
L 230.405553 446.993369 
L 231.040438 446.560493 
L 231.675322 447.29893 
L 232.310207 446.076681 
L 232.945091 446.942441 
L 233.579976 445.872976 
L 234.21486 447.29893 
L 234.849745 447.095225 
L 235.484629 445.694725 
L 236.119514 447.018837 
L 236.754398 446.764197 
L 237.389283 446.866053 
L 238.024167 448.673963 
L 238.659052 446.153069 
L 239.928821 447.910058 
L 240.563705 446.713269 
L 241.19859 446.407709 
L 241.833474 448.342942 
L 242.468359 447.528102 
L 243.103243 446.127609 
L 243.738128 445.338236 
L 244.373012 446.203997 
L 245.007897 446.051221 
L 245.642781 447.120686 
L 246.277666 446.713269 
L 246.91255 446.713269 
L 247.547435 447.248009 
L 248.18232 448.088302 
L 248.817204 447.451714 
L 249.452089 447.29893 
L 250.086973 446.025753 
L 250.721858 446.178537 
L 251.356742 447.451714 
L 251.991627 447.57903 
L 252.626511 448.11377 
L 253.89628 446.866053 
L 254.531165 447.604498 
L 255.166049 447.629958 
L 255.800934 447.986446 
L 256.435818 447.680886 
L 257.070703 446.611413 
L 257.705587 447.680886 
L 258.340472 447.502642 
L 258.975356 448.648503 
L 259.610241 447.095225 
L 260.245125 449.030459 
L 260.88001 447.400786 
L 261.514894 448.470259 
L 262.149779 448.623035 
L 262.784663 447.29893 
L 263.419548 447.451714 
L 264.054432 448.190158 
L 265.324201 447.960986 
L 266.59397 447.29893 
L 267.228855 448.241086 
L 267.863739 447.960986 
L 268.498624 449.616119 
L 269.133509 448.292014 
L 269.768393 448.393863 
L 270.403278 449.157775 
L 271.038162 448.750359 
L 271.673047 448.062842 
L 272.307931 448.215619 
L 272.942816 448.521187 
L 273.5777 449.412407 
L 274.212585 448.241086 
L 274.847469 449.743436 
L 275.482354 448.903135 
L 276.117238 447.018837 
L 276.752123 448.444791 
L 277.387007 448.521187 
L 278.021892 447.884598 
L 278.656776 447.680886 
L 279.291661 448.826747 
L 279.926545 449.590652 
L 280.56143 448.623035 
L 281.196314 449.004991 
L 281.831199 448.495719 
L 282.466083 449.463335 
L 283.100968 448.317475 
L 283.735852 449.106847 
L 284.370737 449.437875 
L 285.005621 449.310551 
L 285.640506 449.819824 
L 286.27539 449.259631 
L 286.910275 449.183235 
L 287.545159 447.935518 
L 288.180044 449.590652 
L 288.814928 447.986446 
L 289.449813 449.437875 
L 290.084697 448.368403 
L 290.719582 449.972608 
L 291.354467 448.597575 
L 292.624236 449.310551 
L 293.25912 449.336019 
L 293.894005 449.030459 
L 294.528889 450.405484 
L 295.163774 449.004991 
L 295.798658 449.132307 
L 296.433543 450.22724 
L 297.068427 450.099924 
L 297.703312 450.736513 
L 298.338196 449.208703 
L 298.973081 450.558268 
L 300.24285 449.743436 
L 300.877734 450.048996 
L 301.512619 449.208703 
L 302.147503 448.750359 
L 302.782388 450.176312 
L 303.417272 450.20178 
L 304.052157 450.711052 
L 304.687041 450.583736 
L 305.321926 449.157775 
L 305.95681 449.667047 
L 306.591695 449.870752 
L 307.226579 449.616119 
L 307.861464 449.488803 
L 308.496348 449.870752 
L 309.131233 451.449497 
L 309.766117 449.667047 
L 310.401002 450.048996 
L 311.035886 449.030459 
L 311.670771 450.991152 
L 312.305656 449.488803 
L 312.94054 449.081379 
L 313.575425 450.863829 
L 314.210309 451.016613 
L 314.845194 450.812908 
L 316.114963 449.310551 
L 316.749847 449.463335 
L 317.384732 449.234163 
L 318.019616 450.20178 
L 318.654501 448.368403 
L 319.92427 450.405484 
L 320.559154 450.150852 
L 321.194039 451.118469 
L 321.828923 450.838368 
L 322.463808 449.845292 
L 323.098692 450.125392 
L 323.733577 450.838368 
L 324.368461 450.099924 
L 325.003346 450.48188 
L 325.63823 451.729597 
L 326.273115 450.456412 
L 326.907999 450.303636 
L 327.542884 449.972608 
L 328.177768 451.424029 
L 328.812653 450.76198 
L 329.447537 450.863829 
L 330.082422 450.074464 
L 330.717306 451.118469 
L 331.987075 451.551345 
L 332.62196 450.48188 
L 333.256844 451.805985 
L 333.891729 449.870752 
L 334.526614 451.755057 
L 335.161498 451.194857 
L 335.796383 451.067541 
L 336.431267 451.525885 
L 337.066152 451.093001 
L 337.701036 450.50734 
L 338.335921 451.958769 
L 338.970805 451.984229 
L 339.60569 452.82453 
L 340.240574 451.093001 
L 340.875459 452.137013 
L 341.510343 451.016613 
L 342.145228 452.671746 
L 342.780112 451.322173 
L 343.414997 450.940224 
L 344.049881 451.04208 
L 344.684766 449.845292 
L 345.31965 452.56989 
L 345.954535 450.812908 
L 346.589419 451.856913 
L 347.224304 450.278168 
L 347.859188 450.812908 
L 348.494073 451.04208 
L 349.128957 450.430952 
L 349.763842 452.28979 
L 350.398726 451.500425 
L 351.033611 451.500425 
L 351.668495 450.278168 
L 352.30338 451.016613 
L 352.938264 450.354564 
L 353.573149 452.187941 
L 354.208033 451.424029 
L 354.842918 451.704129 
L 355.477803 451.067541 
L 356.112687 452.671746 
L 357.382456 450.863829 
L 358.017341 451.805985 
L 358.652225 450.965685 
L 359.28711 451.449497 
L 359.921994 451.322173 
L 360.556879 451.322173 
L 361.191763 452.26433 
L 361.826648 451.907841 
L 363.096417 451.500425 
L 363.731301 452.315258 
L 364.366186 451.220325 
L 365.00107 452.111546 
L 365.635955 451.882373 
L 366.270839 452.187941 
L 366.905724 452.87545 
L 367.540608 451.143929 
L 368.175493 451.780517 
L 368.810377 451.805985 
L 369.445262 452.773602 
L 370.080146 451.449497 
L 370.715031 452.926378 
L 371.349915 452.620818 
L 371.9848 451.347641 
L 372.619684 451.474957 
L 373.254569 450.736513 
L 374.524338 451.984229 
L 375.159222 452.87545 
L 375.794107 451.04208 
L 376.428991 451.067541 
L 377.063876 452.162474 
L 377.698761 451.551345 
L 378.333645 450.685585 
L 378.96853 452.493502 
L 379.603414 451.958769 
L 380.238299 452.87545 
L 380.873183 450.736513 
L 381.508068 451.780517 
L 382.142952 452.417106 
L 382.777837 452.26433 
L 383.412721 451.474957 
L 384.047606 452.086085 
L 384.68249 451.729597 
L 385.317375 452.137013 
L 385.952259 451.551345 
L 387.222028 451.525885 
L 387.856913 451.907841 
L 388.491797 451.143929 
L 389.126682 452.00969 
L 389.761566 450.380024 
L 390.396451 450.634657 
L 391.031335 452.187941 
L 391.66622 451.602273 
L 392.301104 451.729597 
L 392.935989 452.518962 
L 393.570873 451.271253 
L 394.840642 451.729597 
L 395.475527 452.315258 
L 396.110411 450.863829 
L 396.745296 451.958769 
L 397.38018 452.54443 
L 398.015065 451.245785 
L 398.64995 450.965685 
L 399.284834 452.28979 
L 400.554603 452.493502 
L 401.189488 451.805985 
L 401.824372 452.54443 
L 402.459257 452.799062 
L 403.094141 451.984229 
L 403.729026 452.213402 
L 404.36391 452.187941 
L 404.998795 451.373101 
L 405.633679 452.238862 
L 406.268564 452.366186 
L 406.903448 451.067541 
L 407.538333 452.111546 
L 408.173217 452.137013 
L 408.808102 451.882373 
L 409.442986 452.111546 
L 410.077871 451.576813 
L 410.712755 452.111546 
L 411.34764 451.449497 
L 411.982524 451.627741 
L 412.617409 450.532808 
L 413.887178 452.086085 
L 414.522062 452.238862 
L 415.156947 450.711052 
L 415.791831 452.722674 
L 416.426716 451.653201 
L 417.0616 451.856913 
L 417.696485 450.074464 
L 418.331369 451.653201 
L 418.966254 451.856913 
L 419.601138 451.882373 
L 420.236023 450.456412 
L 420.870908 451.678669 
L 421.505792 451.551345 
L 422.140677 451.882373 
L 422.775561 450.736513 
L 423.410446 451.958769 
L 424.04533 452.82453 
L 424.680215 452.56989 
L 425.315099 451.424029 
L 425.949984 451.551345 
L 426.584868 451.245785 
L 427.219753 452.773602 
L 427.854637 451.704129 
L 428.489522 451.882373 
L 429.124406 450.405484 
L 429.759291 451.882373 
L 430.394175 451.958769 
L 431.02906 452.493502 
L 431.663944 452.468034 
L 432.298829 450.76198 
L 432.933713 453.079162 
L 433.568598 452.340718 
L 434.203482 452.238862 
L 434.838367 453.384723 
L 435.473251 451.169397 
L 436.108136 452.900918 
L 436.74302 451.194857 
L 438.012789 451.373101 
L 438.647674 452.060618 
L 439.282558 451.551345 
L 439.917443 452.417106 
L 440.552327 452.213402 
L 441.187212 450.838368 
L 441.822097 451.093001 
L 442.456981 451.984229 
L 443.091866 452.137013 
L 443.72675 452.54443 
L 444.361635 451.780517 
L 444.996519 451.755057 
L 445.631404 452.340718 
L 446.901173 451.169397 
L 447.536057 451.576813 
L 448.170942 451.704129 
L 448.805826 452.595358 
L 449.440711 452.137013 
L 450.075595 452.086085 
L 450.71048 451.576813 
L 451.345364 450.863829 
L 451.980249 451.933301 
L 452.615133 451.474957 
L 453.250018 452.620818 
L 453.884902 452.187941 
L 454.519787 452.340718 
L 455.154671 451.755057 
L 455.789556 452.620818 
L 456.42444 451.780517 
L 457.059325 451.704129 
L 457.694209 452.086085 
L 458.329094 452.213402 
L 458.963978 450.863829 
L 459.598863 451.704129 
L 460.233747 451.780517 
L 462.138401 453.053702 
L 462.773285 452.748134 
L 463.40817 452.671746 
L 464.043055 451.398569 
L 464.677939 451.882373 
L 465.312824 452.54443 
L 465.947708 452.162474 
L 466.582593 450.583736 
L 467.217477 452.162474 
L 467.852362 450.558268 
L 468.487246 450.711052 
L 469.122131 452.137013 
L 469.757015 452.187941 
L 470.3919 451.169397 
L 471.026784 451.805985 
L 471.661669 452.086085 
L 472.931438 450.22724 
L 473.566322 452.773602 
L 474.201207 451.958769 
L 474.836091 450.863829 
L 475.470976 451.933301 
L 476.10586 451.805985 
L 476.740745 450.838368 
L 477.375629 451.602273 
L 478.010514 450.634657 
L 478.645398 451.933301 
L 479.280283 450.354564 
L 479.915167 451.576813 
L 480.550052 451.958769 
L 481.184936 451.143929 
L 481.819821 451.322173 
L 482.454705 453.053702 
L 483.08959 452.697206 
L 483.724474 450.430952 
L 484.359359 451.449497 
L 484.994244 450.558268 
L 486.264013 451.500425 
L 487.533782 451.856913 
L 488.168666 452.28979 
L 488.803551 452.00969 
L 489.438435 451.194857 
L 490.07332 451.474957 
L 490.708204 452.315258 
L 491.343089 450.940224 
L 491.977973 451.424029 
L 492.612858 451.474957 
L 493.247742 450.583736 
L 494.517511 453.995851 
L 495.152396 451.220325 
L 495.78728 452.468034 
L 496.422165 451.449497 
L 497.057049 452.493502 
L 497.691934 451.805985 
L 498.326818 450.48188 
L 498.961703 451.424029 
L 499.596587 451.245785 
L 500.231472 452.28979 
L 500.866356 451.780517 
L 501.501241 450.863829 
L 502.136125 450.736513 
L 502.77101 453.002774 
L 503.405894 452.646278 
L 504.040779 451.194857 
L 504.675663 451.627741 
L 505.310548 451.805985 
L 505.945433 451.143929 
L 506.580317 451.525885 
L 507.215202 450.991152 
L 507.850086 451.143929 
L 508.484971 453.664823 
L 509.119855 450.78744 
L 509.75474 451.194857 
L 510.389624 450.303636 
L 511.024509 451.067541 
L 511.659393 451.118469 
L 512.294278 451.907841 
L 512.929162 451.194857 
L 513.564047 451.245785 
L 514.198931 451.678669 
L 514.833816 451.322173 
L 515.4687 452.748134 
L 516.103585 451.373101 
L 516.738469 451.882373 
L 517.373354 450.711052 
L 518.008238 451.831445 
L 518.643123 452.56989 
L 519.278007 450.150852 
L 519.912892 451.424029 
L 520.547776 451.093001 
L 521.182661 451.805985 
L 521.817545 451.525885 
L 522.45243 451.525885 
L 523.087314 451.016613 
L 523.722199 452.366186 
L 524.357083 449.947148 
L 524.991968 453.231946 
L 525.626852 452.035157 
L 526.261737 451.933301 
L 526.896621 451.525885 
L 527.531506 451.678669 
L 528.166391 451.271253 
L 528.801275 450.660124 
L 529.43616 452.00969 
L 530.071044 450.048996 
L 530.705929 449.768896 
L 531.340813 451.474957 
L 531.975698 449.89622 
L 532.610582 452.391646 
L 533.245467 452.54443 
L 533.880351 449.768896 
L 534.515236 451.398569 
L 535.15012 450.889296 
L 535.785005 452.137013 
L 536.419889 449.692508 
L 537.054774 452.00969 
L 537.689658 449.870752 
L 538.324543 452.162474 
L 538.959427 450.889296 
L 539.594312 452.518962 
L 540.229196 451.118469 
L 540.864081 451.602273 
L 541.498965 451.220325 
L 542.13385 451.093001 
L 542.768734 451.194857 
L 543.403619 451.500425 
L 544.038503 451.653201 
L 544.673388 450.914757 
L 545.308272 450.76198 
L 545.943157 451.271253 
L 546.578041 451.500425 
L 547.84781 450.278168 
L 548.482695 451.118469 
L 549.752464 450.711052 
L 551.657118 451.907841 
L 552.292002 452.060618 
L 552.926887 451.678669 
L 553.561771 451.882373 
L 554.83154 451.118469 
L 555.466425 451.755057 
L 556.101309 452.111546 
L 556.736194 450.150852 
L 557.371078 452.111546 
L 558.005963 450.965685 
L 558.640847 451.04208 
L 559.275732 452.442574 
L 559.910616 451.576813 
L 560.545501 451.551345 
L 561.180385 452.162474 
L 561.81527 451.322173 
L 562.450154 450.838368 
L 563.085039 451.016613 
L 563.719923 451.907841 
L 564.354808 450.889296 
L 564.989692 451.398569 
L 565.624577 452.493502 
L 566.259461 451.627741 
L 566.894346 450.405484 
L 567.52923 450.48188 
L 568.164115 451.04208 
L 568.798999 452.162474 
L 569.433884 449.692508 
L 570.068768 452.28979 
L 570.703653 450.048996 
L 571.338538 450.125392 
L 571.973422 451.169397 
L 572.608307 449.717975 
L 573.243191 452.137013 
L 573.878076 448.750359 
L 574.51296 451.755057 
L 575.147845 451.576813 
L 575.782729 450.838368 
L 576.417614 450.660124 
L 576.417614 450.660124 
" clip-path="url(#p18e3243841)" style="fill: none; stroke: #ff7f0e; stroke-width: 1.5; stroke-linecap: square"/>
   </g>
   <g id="line2d_33">
    <path d="M 43.78125 551.518125 
L 601.78125 551.518125 
" clip-path="url(#p18e3243841)" style="fill: none; stroke-dasharray: 11.1,4.8; stroke-dashoffset: 0; stroke: #ff0000; stroke-width: 3"/>
   </g>
   <g id="patch_3">
    <path d="M 43.78125 576.718125 
L 43.78125 22.318125 
" style="fill: none; stroke: #000000; stroke-width: 0.8; stroke-linejoin: miter; stroke-linecap: square"/>
   </g>
   <g id="patch_4">
    <path d="M 601.78125 576.718125 
L 601.78125 22.318125 
" style="fill: none; stroke: #000000; stroke-width: 0.8; stroke-linejoin: miter; stroke-linecap: square"/>
   </g>
   <g id="patch_5">
    <path d="M 43.78125 576.718125 
L 601.78125 576.718125 
" style="fill: none; stroke: #000000; stroke-width: 0.8; stroke-linejoin: miter; stroke-linecap: square"/>
   </g>
   <g id="patch_6">
    <path d="M 43.78125 22.318125 
L 601.78125 22.318125 
" style="fill: none; stroke: #000000; stroke-width: 0.8; stroke-linejoin: miter; stroke-linecap: square"/>
   </g>
   <g id="text_18">
    <!-- Train and Val Accuracy -->
    <g transform="translate(255.002813 16.318125) scale(0.12 -0.12)">
     <defs>
      <path id="DejaVuSans-54" d="M -19 4666 
L 3928 4666 
L 3928 4134 
L 2272 4134 
L 2272 0 
L 1638 0 
L 1638 4134 
L -19 4134 
L -19 4666 
z
" transform="scale(0.015625)"/>
      <path id="DejaVuSans-69" d="M 603 3500 
L 1178 3500 
L 1178 0 
L 603 0 
L 603 3500 
z
M 603 4863 
L 1178 4863 
L 1178 4134 
L 603 4134 
L 603 4863 
z
" transform="scale(0.015625)"/>
      <path id="DejaVuSans-6e" d="M 3513 2113 
L 3513 0 
L 2938 0 
L 2938 2094 
Q 2938 2591 2744 2837 
Q 2550 3084 2163 3084 
Q 1697 3084 1428 2787 
Q 1159 2491 1159 1978 
L 1159 0 
L 581 0 
L 581 3500 
L 1159 3500 
L 1159 2956 
Q 1366 3272 1645 3428 
Q 1925 3584 2291 3584 
Q 2894 3584 3203 3211 
Q 3513 2838 3513 2113 
z
" transform="scale(0.015625)"/>
      <path id="DejaVuSans-20" transform="scale(0.015625)"/>
      <path id="DejaVuSans-64" d="M 2906 2969 
L 2906 4863 
L 3481 4863 
L 3481 0 
L 2906 0 
L 2906 525 
Q 2725 213 2448 61 
Q 2172 -91 1784 -91 
Q 1150 -91 751 415 
Q 353 922 353 1747 
Q 353 2572 751 3078 
Q 1150 3584 1784 3584 
Q 2172 3584 2448 3432 
Q 2725 3281 2906 2969 
z
M 947 1747 
Q 947 1113 1208 752 
Q 1469 391 1925 391 
Q 2381 391 2643 752 
Q 2906 1113 2906 1747 
Q 2906 2381 2643 2742 
Q 2381 3103 1925 3103 
Q 1469 3103 1208 2742 
Q 947 2381 947 1747 
z
" transform="scale(0.015625)"/>
      <path id="DejaVuSans-56" d="M 1831 0 
L 50 4666 
L 709 4666 
L 2188 738 
L 3669 4666 
L 4325 4666 
L 2547 0 
L 1831 0 
z
" transform="scale(0.015625)"/>
      <path id="DejaVuSans-6c" d="M 603 4863 
L 1178 4863 
L 1178 0 
L 603 0 
L 603 4863 
z
" transform="scale(0.015625)"/>
     </defs>
     <use xlink:href="#DejaVuSans-54"/>
     <use xlink:href="#DejaVuSans-72" transform="translate(46.333984 0)"/>
     <use xlink:href="#DejaVuSans-61" transform="translate(87.447266 0)"/>
     <use xlink:href="#DejaVuSans-69" transform="translate(148.726562 0)"/>
     <use xlink:href="#DejaVuSans-6e" transform="translate(176.509766 0)"/>
     <use xlink:href="#DejaVuSans-20" transform="translate(239.888672 0)"/>
     <use xlink:href="#DejaVuSans-61" transform="translate(271.675781 0)"/>
     <use xlink:href="#DejaVuSans-6e" transform="translate(332.955078 0)"/>
     <use xlink:href="#DejaVuSans-64" transform="translate(396.333984 0)"/>
     <use xlink:href="#DejaVuSans-20" transform="translate(459.810547 0)"/>
     <use xlink:href="#DejaVuSans-56" transform="translate(491.597656 0)"/>
     <use xlink:href="#DejaVuSans-61" transform="translate(552.255859 0)"/>
     <use xlink:href="#DejaVuSans-6c" transform="translate(613.535156 0)"/>
     <use xlink:href="#DejaVuSans-20" transform="translate(641.318359 0)"/>
     <use xlink:href="#DejaVuSans-41" transform="translate(673.105469 0)"/>
     <use xlink:href="#DejaVuSans-63" transform="translate(739.763672 0)"/>
     <use xlink:href="#DejaVuSans-63" transform="translate(794.744141 0)"/>
     <use xlink:href="#DejaVuSans-75" transform="translate(849.724609 0)"/>
     <use xlink:href="#DejaVuSans-72" transform="translate(913.103516 0)"/>
     <use xlink:href="#DejaVuSans-61" transform="translate(954.216797 0)"/>
     <use xlink:href="#DejaVuSans-63" transform="translate(1015.496094 0)"/>
     <use xlink:href="#DejaVuSans-79" transform="translate(1070.476562 0)"/>
    </g>
   </g>
   <g id="legend_1">
    <g id="patch_7">
     <path d="M 50.78125 74.90875 
L 217.904687 74.90875 
Q 219.904687 74.90875 219.904687 72.90875 
L 219.904687 29.318125 
Q 219.904687 27.318125 217.904687 27.318125 
L 50.78125 27.318125 
Q 48.78125 27.318125 48.78125 29.318125 
L 48.78125 72.90875 
Q 48.78125 74.90875 50.78125 74.90875 
z
" style="fill: #ffffff; opacity: 0.8; stroke: #cccccc; stroke-linejoin: miter"/>
    </g>
    <g id="line2d_34">
     <path d="M 52.78125 35.416562 
L 62.78125 35.416562 
L 72.78125 35.416562 
" style="fill: none; stroke: #1f77b4; stroke-width: 1.5; stroke-linecap: square"/>
    </g>
    <g id="text_19">
     <!-- train_accuracy -->
     <g transform="translate(80.78125 38.916562) scale(0.1 -0.1)">
      <defs>
       <path id="DejaVuSans-74" d="M 1172 4494 
L 1172 3500 
L 2356 3500 
L 2356 3053 
L 1172 3053 
L 1172 1153 
Q 1172 725 1289 603 
Q 1406 481 1766 481 
L 2356 481 
L 2356 0 
L 1766 0 
Q 1100 0 847 248 
Q 594 497 594 1153 
L 594 3053 
L 172 3053 
L 172 3500 
L 594 3500 
L 594 4494 
L 1172 4494 
z
" transform="scale(0.015625)"/>
       <path id="DejaVuSans-5f" d="M 3263 -1063 
L 3263 -1509 
L -63 -1509 
L -63 -1063 
L 3263 -1063 
z
" transform="scale(0.015625)"/>
      </defs>
      <use xlink:href="#DejaVuSans-74"/>
      <use xlink:href="#DejaVuSans-72" transform="translate(39.208984 0)"/>
      <use xlink:href="#DejaVuSans-61" transform="translate(80.322266 0)"/>
      <use xlink:href="#DejaVuSans-69" transform="translate(141.601562 0)"/>
      <use xlink:href="#DejaVuSans-6e" transform="translate(169.384766 0)"/>
      <use xlink:href="#DejaVuSans-5f" transform="translate(232.763672 0)"/>
      <use xlink:href="#DejaVuSans-61" transform="translate(282.763672 0)"/>
      <use xlink:href="#DejaVuSans-63" transform="translate(344.042969 0)"/>
      <use xlink:href="#DejaVuSans-63" transform="translate(399.023438 0)"/>
      <use xlink:href="#DejaVuSans-75" transform="translate(454.003906 0)"/>
      <use xlink:href="#DejaVuSans-72" transform="translate(517.382812 0)"/>
      <use xlink:href="#DejaVuSans-61" transform="translate(558.496094 0)"/>
      <use xlink:href="#DejaVuSans-63" transform="translate(619.775391 0)"/>
      <use xlink:href="#DejaVuSans-79" transform="translate(674.755859 0)"/>
     </g>
    </g>
    <g id="line2d_35">
     <path d="M 52.78125 50.372812 
L 62.78125 50.372812 
L 72.78125 50.372812 
" style="fill: none; stroke: #ff7f0e; stroke-width: 1.5; stroke-linecap: square"/>
    </g>
    <g id="text_20">
     <!-- val_accuracy -->
     <g transform="translate(80.78125 53.872812) scale(0.1 -0.1)">
      <defs>
       <path id="DejaVuSans-76" d="M 191 3500 
L 800 3500 
L 1894 563 
L 2988 3500 
L 3597 3500 
L 2284 0 
L 1503 0 
L 191 3500 
z
" transform="scale(0.015625)"/>
      </defs>
      <use xlink:href="#DejaVuSans-76"/>
      <use xlink:href="#DejaVuSans-61" transform="translate(59.179688 0)"/>
      <use xlink:href="#DejaVuSans-6c" transform="translate(120.458984 0)"/>
      <use xlink:href="#DejaVuSans-5f" transform="translate(148.242188 0)"/>
      <use xlink:href="#DejaVuSans-61" transform="translate(198.242188 0)"/>
      <use xlink:href="#DejaVuSans-63" transform="translate(259.521484 0)"/>
      <use xlink:href="#DejaVuSans-63" transform="translate(314.501953 0)"/>
      <use xlink:href="#DejaVuSans-75" transform="translate(369.482422 0)"/>
      <use xlink:href="#DejaVuSans-72" transform="translate(432.861328 0)"/>
      <use xlink:href="#DejaVuSans-61" transform="translate(473.974609 0)"/>
      <use xlink:href="#DejaVuSans-63" transform="translate(535.253906 0)"/>
      <use xlink:href="#DejaVuSans-79" transform="translate(590.234375 0)"/>
     </g>
    </g>
    <g id="line2d_36">
     <path d="M 52.78125 65.329062 
L 62.78125 65.329062 
L 72.78125 65.329062 
" style="fill: none; stroke-dasharray: 11.1,4.8; stroke-dashoffset: 0; stroke: #ff0000; stroke-width: 3"/>
    </g>
    <g id="text_21">
     <!-- Random-Guesser Accuracy -->
     <g transform="translate(80.78125 68.829062) scale(0.1 -0.1)">
      <defs>
       <path id="DejaVuSans-52" d="M 2841 2188 
Q 3044 2119 3236 1894 
Q 3428 1669 3622 1275 
L 4263 0 
L 3584 0 
L 2988 1197 
Q 2756 1666 2539 1819 
Q 2322 1972 1947 1972 
L 1259 1972 
L 1259 0 
L 628 0 
L 628 4666 
L 2053 4666 
Q 2853 4666 3247 4331 
Q 3641 3997 3641 3322 
Q 3641 2881 3436 2590 
Q 3231 2300 2841 2188 
z
M 1259 4147 
L 1259 2491 
L 2053 2491 
Q 2509 2491 2742 2702 
Q 2975 2913 2975 3322 
Q 2975 3731 2742 3939 
Q 2509 4147 2053 4147 
L 1259 4147 
z
" transform="scale(0.015625)"/>
       <path id="DejaVuSans-6d" d="M 3328 2828 
Q 3544 3216 3844 3400 
Q 4144 3584 4550 3584 
Q 5097 3584 5394 3201 
Q 5691 2819 5691 2113 
L 5691 0 
L 5113 0 
L 5113 2094 
Q 5113 2597 4934 2840 
Q 4756 3084 4391 3084 
Q 3944 3084 3684 2787 
Q 3425 2491 3425 1978 
L 3425 0 
L 2847 0 
L 2847 2094 
Q 2847 2600 2669 2842 
Q 2491 3084 2119 3084 
Q 1678 3084 1418 2786 
Q 1159 2488 1159 1978 
L 1159 0 
L 581 0 
L 581 3500 
L 1159 3500 
L 1159 2956 
Q 1356 3278 1631 3431 
Q 1906 3584 2284 3584 
Q 2666 3584 2933 3390 
Q 3200 3197 3328 2828 
z
" transform="scale(0.015625)"/>
       <path id="DejaVuSans-2d" d="M 313 2009 
L 1997 2009 
L 1997 1497 
L 313 1497 
L 313 2009 
z
" transform="scale(0.015625)"/>
       <path id="DejaVuSans-47" d="M 3809 666 
L 3809 1919 
L 2778 1919 
L 2778 2438 
L 4434 2438 
L 4434 434 
Q 4069 175 3628 42 
Q 3188 -91 2688 -91 
Q 1594 -91 976 548 
Q 359 1188 359 2328 
Q 359 3472 976 4111 
Q 1594 4750 2688 4750 
Q 3144 4750 3555 4637 
Q 3966 4525 4313 4306 
L 4313 3634 
Q 3963 3931 3569 4081 
Q 3175 4231 2741 4231 
Q 1884 4231 1454 3753 
Q 1025 3275 1025 2328 
Q 1025 1384 1454 906 
Q 1884 428 2741 428 
Q 3075 428 3337 486 
Q 3600 544 3809 666 
z
" transform="scale(0.015625)"/>
       <path id="DejaVuSans-65" d="M 3597 1894 
L 3597 1613 
L 953 1613 
Q 991 1019 1311 708 
Q 1631 397 2203 397 
Q 2534 397 2845 478 
Q 3156 559 3463 722 
L 3463 178 
Q 3153 47 2828 -22 
Q 2503 -91 2169 -91 
Q 1331 -91 842 396 
Q 353 884 353 1716 
Q 353 2575 817 3079 
Q 1281 3584 2069 3584 
Q 2775 3584 3186 3129 
Q 3597 2675 3597 1894 
z
M 3022 2063 
Q 3016 2534 2758 2815 
Q 2500 3097 2075 3097 
Q 1594 3097 1305 2825 
Q 1016 2553 972 2059 
L 3022 2063 
z
" transform="scale(0.015625)"/>
      </defs>
      <use xlink:href="#DejaVuSans-52"/>
      <use xlink:href="#DejaVuSans-61" transform="translate(67.232422 0)"/>
      <use xlink:href="#DejaVuSans-6e" transform="translate(128.511719 0)"/>
      <use xlink:href="#DejaVuSans-64" transform="translate(191.890625 0)"/>
      <use xlink:href="#DejaVuSans-6f" transform="translate(255.367188 0)"/>
      <use xlink:href="#DejaVuSans-6d" transform="translate(316.548828 0)"/>
      <use xlink:href="#DejaVuSans-2d" transform="translate(413.960938 0)"/>
      <use xlink:href="#DejaVuSans-47" transform="translate(453.669922 0)"/>
      <use xlink:href="#DejaVuSans-75" transform="translate(531.160156 0)"/>
      <use xlink:href="#DejaVuSans-65" transform="translate(594.539062 0)"/>
      <use xlink:href="#DejaVuSans-73" transform="translate(656.0625 0)"/>
      <use xlink:href="#DejaVuSans-73" transform="translate(708.162109 0)"/>
      <use xlink:href="#DejaVuSans-65" transform="translate(760.261719 0)"/>
      <use xlink:href="#DejaVuSans-72" transform="translate(821.785156 0)"/>
      <use xlink:href="#DejaVuSans-20" transform="translate(862.898438 0)"/>
      <use xlink:href="#DejaVuSans-41" transform="translate(894.685547 0)"/>
      <use xlink:href="#DejaVuSans-63" transform="translate(961.34375 0)"/>
      <use xlink:href="#DejaVuSans-63" transform="translate(1016.324219 0)"/>
      <use xlink:href="#DejaVuSans-75" transform="translate(1071.304688 0)"/>
      <use xlink:href="#DejaVuSans-72" transform="translate(1134.683594 0)"/>
      <use xlink:href="#DejaVuSans-61" transform="translate(1175.796875 0)"/>
      <use xlink:href="#DejaVuSans-63" transform="translate(1237.076172 0)"/>
      <use xlink:href="#DejaVuSans-79" transform="translate(1292.056641 0)"/>
     </g>
    </g>
   </g>
  </g>
 </g>
 <defs>
  <clipPath id="p18e3243841">
   <rect x="43.78125" y="22.318125" width="558" height="554.4"/>
  </clipPath>
 </defs>
</svg>
