<?xml version="1.0" encoding="utf-8" standalone="no"?>
<!DOCTYPE svg PUBLIC "-//W3C//DTD SVG 1.1//EN"
  "http://www.w3.org/Graphics/SVG/1.1/DTD/svg11.dtd">
<svg xmlns:xlink="http://www.w3.org/1999/xlink" width="608.98125pt" height="614.274375pt" viewBox="0 0 608.98125 614.274375" xmlns="http://www.w3.org/2000/svg" version="1.1">
 <metadata>
  <rdf:RDF xmlns:dc="http://purl.org/dc/elements/1.1/" xmlns:cc="http://creativecommons.org/ns#" xmlns:rdf="http://www.w3.org/1999/02/22-rdf-syntax-ns#">
   <cc:Work>
    <dc:type rdf:resource="http://purl.org/dc/dcmitype/StillImage"/>
    <dc:date>2026-05-24T07:23:59.140748</dc:date>
    <dc:format>image/svg+xml</dc:format>
    <dc:creator>
     <cc:Agent>
      <dc:title>Matplotlib v3.10.9, https://matplotlib.org/</dc:title>
     </cc:Agent>
    </dc:creator>
   </cc:Work>
  </rdf:RDF>
 </metadata>
 <defs>
  <style type="text/css">*{stroke-linejoin: round; stroke-linecap: butt}</style>
 </defs>
 <g id="figure_1">
  <g id="patch_1">
   <path d="M 0 614.274375 
L 608.98125 614.274375 
L 608.98125 0 
L 0 0 
z
" style="fill: #ffffff"/>
  </g>
  <g id="axes_1">
   <g id="patch_2">
    <path d="M 43.78125 576.718125 
L 601.78125 576.718125 
L 601.78125 22.318125 
L 43.78125 22.318125 
z
" style="fill: #ffffff"/>
   </g>
   <g id="matplotlib.axis_1">
    <g id="xtick_1">
     <g id="line2d_1">
      <path d="M 69.144886 576.718125 
L 69.144886 22.318125 
" clip-path="url(#p0f744489e2)" style="fill: none; stroke: #b0b0b0; stroke-width: 0.8; stroke-linecap: square"/>
     </g>
     <g id="line2d_2">
      <defs>
       <path id="mc97ff883d0" d="M 0 0 
L 0 3.5 
" style="stroke: #000000; stroke-width: 0.8"/>
      </defs>
      <g>
       <use xlink:href="#mc97ff883d0" x="69.144886" y="576.718125" style="stroke: #000000; stroke-width: 0.8"/>
      </g>
     </g>
     <g id="text_1">
      <!-- 0 -->
      <g transform="translate(65.963636 591.316563) scale(0.1 -0.1)">
       <defs>
        <path id="DejaVuSans-30" d="M 2034 4250 
Q 1547 4250 1301 3770 
Q 1056 3291 1056 2328 
Q 1056 1369 1301 889 
Q 1547 409 2034 409 
Q 2525 409 2770 889 
Q 3016 1369 3016 2328 
Q 3016 3291 2770 3770 
Q 2525 4250 2034 4250 
z
M 2034 4750 
Q 2819 4750 3233 4129 
Q 3647 3509 3647 2328 
Q 3647 1150 3233 529 
Q 2819 -91 2034 -91 
Q 1250 -91 836 529 
Q 422 1150 422 2328 
Q 422 3509 836 4129 
Q 1250 4750 2034 4750 
z
" transform="scale(0.015625)"/>
       </defs>
       <use xlink:href="#DejaVuSans-30"/>
      </g>
     </g>
    </g>
    <g id="xtick_2">
     <g id="line2d_3">
      <path d="M 132.633338 576.718125 
L 132.633338 22.318125 
" clip-path="url(#p0f744489e2)" style="fill: none; stroke: #b0b0b0; stroke-width: 0.8; stroke-linecap: square"/>
     </g>
     <g id="line2d_4">
      <g>
       <use xlink:href="#mc97ff883d0" x="132.633338" y="576.718125" style="stroke: #000000; stroke-width: 0.8"/>
      </g>
     </g>
     <g id="text_2">
      <!-- 100 -->
      <g transform="translate(123.089588 591.316563) scale(0.1 -0.1)">
       <defs>
        <path id="DejaVuSans-31" d="M 794 531 
L 1825 531 
L 1825 4091 
L 703 3866 
L 703 4441 
L 1819 4666 
L 2450 4666 
L 2450 531 
L 3481 531 
L 3481 0 
L 794 0 
L 794 531 
z
" transform="scale(0.015625)"/>
       </defs>
       <use xlink:href="#DejaVuSans-31"/>
       <use xlink:href="#DejaVuSans-30" transform="translate(63.623047 0)"/>
       <use xlink:href="#DejaVuSans-30" transform="translate(127.246094 0)"/>
      </g>
     </g>
    </g>
    <g id="xtick_3">
     <g id="line2d_5">
      <path d="M 196.121789 576.718125 
L 196.121789 22.318125 
" clip-path="url(#p0f744489e2)" style="fill: none; stroke: #b0b0b0; stroke-width: 0.8; stroke-linecap: square"/>
     </g>
     <g id="line2d_6">
      <g>
       <use xlink:href="#mc97ff883d0" x="196.121789" y="576.718125" style="stroke: #000000; stroke-width: 0.8"/>
      </g>
     </g>
     <g id="text_3">
      <!-- 200 -->
      <g transform="translate(186.578039 591.316563) scale(0.1 -0.1)">
       <defs>
        <path id="DejaVuSans-32" d="M 1228 531 
L 3431 531 
L 3431 0 
L 469 0 
L 469 531 
Q 828 903 1448 1529 
Q 2069 2156 2228 2338 
Q 2531 2678 2651 2914 
Q 2772 3150 2772 3378 
Q 2772 3750 2511 3984 
Q 2250 4219 1831 4219 
Q 1534 4219 1204 4116 
Q 875 4013 500 3803 
L 500 4441 
Q 881 4594 1212 4672 
Q 1544 4750 1819 4750 
Q 2544 4750 2975 4387 
Q 3406 4025 3406 3419 
Q 3406 3131 3298 2873 
Q 3191 2616 2906 2266 
Q 2828 2175 2409 1742 
Q 1991 1309 1228 531 
z
" transform="scale(0.015625)"/>
       </defs>
       <use xlink:href="#DejaVuSans-32"/>
       <use xlink:href="#DejaVuSans-30" transform="translate(63.623047 0)"/>
       <use xlink:href="#DejaVuSans-30" transform="translate(127.246094 0)"/>
      </g>
     </g>
    </g>
    <g id="xtick_4">
     <g id="line2d_7">
      <path d="M 259.610241 576.718125 
L 259.610241 22.318125 
" clip-path="url(#p0f744489e2)" style="fill: none; stroke: #b0b0b0; stroke-width: 0.8; stroke-linecap: square"/>
     </g>
     <g id="line2d_8">
      <g>
       <use xlink:href="#mc97ff883d0" x="259.610241" y="576.718125" style="stroke: #000000; stroke-width: 0.8"/>
      </g>
     </g>
     <g id="text_4">
      <!-- 300 -->
      <g transform="translate(250.066491 591.316563) scale(0.1 -0.1)">
       <defs>
        <path id="DejaVuSans-33" d="M 2597 2516 
Q 3050 2419 3304 2112 
Q 3559 1806 3559 1356 
Q 3559 666 3084 287 
Q 2609 -91 1734 -91 
Q 1441 -91 1130 -33 
Q 819 25 488 141 
L 488 750 
Q 750 597 1062 519 
Q 1375 441 1716 441 
Q 2309 441 2620 675 
Q 2931 909 2931 1356 
Q 2931 1769 2642 2001 
Q 2353 2234 1838 2234 
L 1294 2234 
L 1294 2753 
L 1863 2753 
Q 2328 2753 2575 2939 
Q 2822 3125 2822 3475 
Q 2822 3834 2567 4026 
Q 2313 4219 1838 4219 
Q 1578 4219 1281 4162 
Q 984 4106 628 3988 
L 628 4550 
Q 988 4650 1302 4700 
Q 1616 4750 1894 4750 
Q 2613 4750 3031 4423 
Q 3450 4097 3450 3541 
Q 3450 3153 3228 2886 
Q 3006 2619 2597 2516 
z
" transform="scale(0.015625)"/>
       </defs>
       <use xlink:href="#DejaVuSans-33"/>
       <use xlink:href="#DejaVuSans-30" transform="translate(63.623047 0)"/>
       <use xlink:href="#DejaVuSans-30" transform="translate(127.246094 0)"/>
      </g>
     </g>
    </g>
    <g id="xtick_5">
     <g id="line2d_9">
      <path d="M 323.098692 576.718125 
L 323.098692 22.318125 
" clip-path="url(#p0f744489e2)" style="fill: none; stroke: #b0b0b0; stroke-width: 0.8; stroke-linecap: square"/>
     </g>
     <g id="line2d_10">
      <g>
       <use xlink:href="#mc97ff883d0" x="323.098692" y="576.718125" style="stroke: #000000; stroke-width: 0.8"/>
      </g>
     </g>
     <g id="text_5">
      <!-- 400 -->
      <g transform="translate(313.554942 591.316563) scale(0.1 -0.1)">
       <defs>
        <path id="DejaVuSans-34" d="M 2419 4116 
L 825 1625 
L 2419 1625 
L 2419 4116 
z
M 2253 4666 
L 3047 4666 
L 3047 1625 
L 3713 1625 
L 3713 1100 
L 3047 1100 
L 3047 0 
L 2419 0 
L 2419 1100 
L 313 1100 
L 313 1709 
L 2253 4666 
z
" transform="scale(0.015625)"/>
       </defs>
       <use xlink:href="#DejaVuSans-34"/>
       <use xlink:href="#DejaVuSans-30" transform="translate(63.623047 0)"/>
       <use xlink:href="#DejaVuSans-30" transform="translate(127.246094 0)"/>
      </g>
     </g>
    </g>
    <g id="xtick_6">
     <g id="line2d_11">
      <path d="M 386.587144 576.718125 
L 386.587144 22.318125 
" clip-path="url(#p0f744489e2)" style="fill: none; stroke: #b0b0b0; stroke-width: 0.8; stroke-linecap: square"/>
     </g>
     <g id="line2d_12">
      <g>
       <use xlink:href="#mc97ff883d0" x="386.587144" y="576.718125" style="stroke: #000000; stroke-width: 0.8"/>
      </g>
     </g>
     <g id="text_6">
      <!-- 500 -->
      <g transform="translate(377.043394 591.316563) scale(0.1 -0.1)">
       <defs>
        <path id="DejaVuSans-35" d="M 691 4666 
L 3169 4666 
L 3169 4134 
L 1269 4134 
L 1269 2991 
Q 1406 3038 1543 3061 
Q 1681 3084 1819 3084 
Q 2600 3084 3056 2656 
Q 3513 2228 3513 1497 
Q 3513 744 3044 326 
Q 2575 -91 1722 -91 
Q 1428 -91 1123 -41 
Q 819 9 494 109 
L 494 744 
Q 775 591 1075 516 
Q 1375 441 1709 441 
Q 2250 441 2565 725 
Q 2881 1009 2881 1497 
Q 2881 1984 2565 2268 
Q 2250 2553 1709 2553 
Q 1456 2553 1204 2497 
Q 953 2441 691 2322 
L 691 4666 
z
" transform="scale(0.015625)"/>
       </defs>
       <use xlink:href="#DejaVuSans-35"/>
       <use xlink:href="#DejaVuSans-30" transform="translate(63.623047 0)"/>
       <use xlink:href="#DejaVuSans-30" transform="translate(127.246094 0)"/>
      </g>
     </g>
    </g>
    <g id="xtick_7">
     <g id="line2d_13">
      <path d="M 450.075595 576.718125 
L 450.075595 22.318125 
" clip-path="url(#p0f744489e2)" style="fill: none; stroke: #b0b0b0; stroke-width: 0.8; stroke-linecap: square"/>
     </g>
     <g id="line2d_14">
      <g>
       <use xlink:href="#mc97ff883d0" x="450.075595" y="576.718125" style="stroke: #000000; stroke-width: 0.8"/>
      </g>
     </g>
     <g id="text_7">
      <!-- 600 -->
      <g transform="translate(440.531845 591.316563) scale(0.1 -0.1)">
       <defs>
        <path id="DejaVuSans-36" d="M 2113 2584 
Q 1688 2584 1439 2293 
Q 1191 2003 1191 1497 
Q 1191 994 1439 701 
Q 1688 409 2113 409 
Q 2538 409 2786 701 
Q 3034 994 3034 1497 
Q 3034 2003 2786 2293 
Q 2538 2584 2113 2584 
z
M 3366 4563 
L 3366 3988 
Q 3128 4100 2886 4159 
Q 2644 4219 2406 4219 
Q 1781 4219 1451 3797 
Q 1122 3375 1075 2522 
Q 1259 2794 1537 2939 
Q 1816 3084 2150 3084 
Q 2853 3084 3261 2657 
Q 3669 2231 3669 1497 
Q 3669 778 3244 343 
Q 2819 -91 2113 -91 
Q 1303 -91 875 529 
Q 447 1150 447 2328 
Q 447 3434 972 4092 
Q 1497 4750 2381 4750 
Q 2619 4750 2861 4703 
Q 3103 4656 3366 4563 
z
" transform="scale(0.015625)"/>
       </defs>
       <use xlink:href="#DejaVuSans-36"/>
       <use xlink:href="#DejaVuSans-30" transform="translate(63.623047 0)"/>
       <use xlink:href="#DejaVuSans-30" transform="translate(127.246094 0)"/>
      </g>
     </g>
    </g>
    <g id="xtick_8">
     <g id="line2d_15">
      <path d="M 513.564047 576.718125 
L 513.564047 22.318125 
" clip-path="url(#p0f744489e2)" style="fill: none; stroke: #b0b0b0; stroke-width: 0.8; stroke-linecap: square"/>
     </g>
     <g id="line2d_16">
      <g>
       <use xlink:href="#mc97ff883d0" x="513.564047" y="576.718125" style="stroke: #000000; stroke-width: 0.8"/>
      </g>
     </g>
     <g id="text_8">
      <!-- 700 -->
      <g transform="translate(504.020297 591.316563) scale(0.1 -0.1)">
       <defs>
        <path id="DejaVuSans-37" d="M 525 4666 
L 3525 4666 
L 3525 4397 
L 1831 0 
L 1172 0 
L 2766 4134 
L 525 4134 
L 525 4666 
z
" transform="scale(0.015625)"/>
       </defs>
       <use xlink:href="#DejaVuSans-37"/>
       <use xlink:href="#DejaVuSans-30" transform="translate(63.623047 0)"/>
       <use xlink:href="#DejaVuSans-30" transform="translate(127.246094 0)"/>
      </g>
     </g>
    </g>
    <g id="xtick_9">
     <g id="line2d_17">
      <path d="M 577.052498 576.718125 
L 577.052498 22.318125 
" clip-path="url(#p0f744489e2)" style="fill: none; stroke: #b0b0b0; stroke-width: 0.8; stroke-linecap: square"/>
     </g>
     <g id="line2d_18">
      <g>
       <use xlink:href="#mc97ff883d0" x="577.052498" y="576.718125" style="stroke: #000000; stroke-width: 0.8"/>
      </g>
     </g>
     <g id="text_9">
      <!-- 800 -->
      <g transform="translate(567.508748 591.316563) scale(0.1 -0.1)">
       <defs>
        <path id="DejaVuSans-38" d="M 2034 2216 
Q 1584 2216 1326 1975 
Q 1069 1734 1069 1313 
Q 1069 891 1326 650 
Q 1584 409 2034 409 
Q 2484 409 2743 651 
Q 3003 894 3003 1313 
Q 3003 1734 2745 1975 
Q 2488 2216 2034 2216 
z
M 1403 2484 
Q 997 2584 770 2862 
Q 544 3141 544 3541 
Q 544 4100 942 4425 
Q 1341 4750 2034 4750 
Q 2731 4750 3128 4425 
Q 3525 4100 3525 3541 
Q 3525 3141 3298 2862 
Q 3072 2584 2669 2484 
Q 3125 2378 3379 2068 
Q 3634 1759 3634 1313 
Q 3634 634 3220 271 
Q 2806 -91 2034 -91 
Q 1263 -91 848 271 
Q 434 634 434 1313 
Q 434 1759 690 2068 
Q 947 2378 1403 2484 
z
M 1172 3481 
Q 1172 3119 1398 2916 
Q 1625 2713 2034 2713 
Q 2441 2713 2670 2916 
Q 2900 3119 2900 3481 
Q 2900 3844 2670 4047 
Q 2441 4250 2034 4250 
Q 1625 4250 1398 4047 
Q 1172 3844 1172 3481 
z
" transform="scale(0.015625)"/>
       </defs>
       <use xlink:href="#DejaVuSans-38"/>
       <use xlink:href="#DejaVuSans-30" transform="translate(63.623047 0)"/>
       <use xlink:href="#DejaVuSans-30" transform="translate(127.246094 0)"/>
      </g>
     </g>
    </g>
    <g id="text_10">
     <!-- Epochs -->
     <g transform="translate(304.865625 604.994688) scale(0.1 -0.1)">
      <defs>
       <path id="DejaVuSans-45" d="M 628 4666 
L 3578 4666 
L 3578 4134 
L 1259 4134 
L 1259 2753 
L 3481 2753 
L 3481 2222 
L 1259 2222 
L 1259 531 
L 3634 531 
L 3634 0 
L 628 0 
L 628 4666 
z
" transform="scale(0.015625)"/>
       <path id="DejaVuSans-70" d="M 1159 525 
L 1159 -1331 
L 581 -1331 
L 581 3500 
L 1159 3500 
L 1159 2969 
Q 1341 3281 1617 3432 
Q 1894 3584 2278 3584 
Q 2916 3584 3314 3078 
Q 3713 2572 3713 1747 
Q 3713 922 3314 415 
Q 2916 -91 2278 -91 
Q 1894 -91 1617 61 
Q 1341 213 1159 525 
z
M 3116 1747 
Q 3116 2381 2855 2742 
Q 2594 3103 2138 3103 
Q 1681 3103 1420 2742 
Q 1159 2381 1159 1747 
Q 1159 1113 1420 752 
Q 1681 391 2138 391 
Q 2594 391 2855 752 
Q 3116 1113 3116 1747 
z
" transform="scale(0.015625)"/>
       <path id="DejaVuSans-6f" d="M 1959 3097 
Q 1497 3097 1228 2736 
Q 959 2375 959 1747 
Q 959 1119 1226 758 
Q 1494 397 1959 397 
Q 2419 397 2687 759 
Q 2956 1122 2956 1747 
Q 2956 2369 2687 2733 
Q 2419 3097 1959 3097 
z
M 1959 3584 
Q 2709 3584 3137 3096 
Q 3566 2609 3566 1747 
Q 3566 888 3137 398 
Q 2709 -91 1959 -91 
Q 1206 -91 779 398 
Q 353 888 353 1747 
Q 353 2609 779 3096 
Q 1206 3584 1959 3584 
z
" transform="scale(0.015625)"/>
       <path id="DejaVuSans-63" d="M 3122 3366 
L 3122 2828 
Q 2878 2963 2633 3030 
Q 2388 3097 2138 3097 
Q 1578 3097 1268 2742 
Q 959 2388 959 1747 
Q 959 1106 1268 751 
Q 1578 397 2138 397 
Q 2388 397 2633 464 
Q 2878 531 3122 666 
L 3122 134 
Q 2881 22 2623 -34 
Q 2366 -91 2075 -91 
Q 1284 -91 818 406 
Q 353 903 353 1747 
Q 353 2603 823 3093 
Q 1294 3584 2113 3584 
Q 2378 3584 2631 3529 
Q 2884 3475 3122 3366 
z
" transform="scale(0.015625)"/>
       <path id="DejaVuSans-68" d="M 3513 2113 
L 3513 0 
L 2938 0 
L 2938 2094 
Q 2938 2591 2744 2837 
Q 2550 3084 2163 3084 
Q 1697 3084 1428 2787 
Q 1159 2491 1159 1978 
L 1159 0 
L 581 0 
L 581 4863 
L 1159 4863 
L 1159 2956 
Q 1366 3272 1645 3428 
Q 1925 3584 2291 3584 
Q 2894 3584 3203 3211 
Q 3513 2838 3513 2113 
z
" transform="scale(0.015625)"/>
       <path id="DejaVuSans-73" d="M 2834 3397 
L 2834 2853 
Q 2591 2978 2328 3040 
Q 2066 3103 1784 3103 
Q 1356 3103 1142 2972 
Q 928 2841 928 2578 
Q 928 2378 1081 2264 
Q 1234 2150 1697 2047 
L 1894 2003 
Q 2506 1872 2764 1633 
Q 3022 1394 3022 966 
Q 3022 478 2636 193 
Q 2250 -91 1575 -91 
Q 1294 -91 989 -36 
Q 684 19 347 128 
L 347 722 
Q 666 556 975 473 
Q 1284 391 1588 391 
Q 1994 391 2212 530 
Q 2431 669 2431 922 
Q 2431 1156 2273 1281 
Q 2116 1406 1581 1522 
L 1381 1569 
Q 847 1681 609 1914 
Q 372 2147 372 2553 
Q 372 3047 722 3315 
Q 1072 3584 1716 3584 
Q 2034 3584 2315 3537 
Q 2597 3491 2834 3397 
z
" transform="scale(0.015625)"/>
      </defs>
      <use xlink:href="#DejaVuSans-45"/>
      <use xlink:href="#DejaVuSans-70" transform="translate(63.183594 0)"/>
      <use xlink:href="#DejaVuSans-6f" transform="translate(126.660156 0)"/>
      <use xlink:href="#DejaVuSans-63" transform="translate(187.841797 0)"/>
      <use xlink:href="#DejaVuSans-68" transform="translate(242.822266 0)"/>
      <use xlink:href="#DejaVuSans-73" transform="translate(306.201172 0)"/>
     </g>
    </g>
   </g>
   <g id="matplotlib.axis_2">
    <g id="ytick_1">
     <g id="line2d_19">
      <path d="M 43.78125 553.51688 
L 601.78125 553.51688 
" clip-path="url(#p0f744489e2)" style="fill: none; stroke: #b0b0b0; stroke-width: 0.8; stroke-linecap: square"/>
     </g>
     <g id="line2d_20">
      <defs>
       <path id="m1b86eeb4e2" d="M 0 0 
L -3.5 0 
" style="stroke: #000000; stroke-width: 0.8"/>
      </defs>
      <g>
       <use xlink:href="#m1b86eeb4e2" x="43.78125" y="553.51688" style="stroke: #000000; stroke-width: 0.8"/>
      </g>
     </g>
     <g id="text_11">
      <!-- 0.0 -->
      <g transform="translate(20.878125 557.316099) scale(0.1 -0.1)">
       <defs>
        <path id="DejaVuSans-2e" d="M 684 794 
L 1344 794 
L 1344 0 
L 684 0 
L 684 794 
z
" transform="scale(0.015625)"/>
       </defs>
       <use xlink:href="#DejaVuSans-30"/>
       <use xlink:href="#DejaVuSans-2e" transform="translate(63.623047 0)"/>
       <use xlink:href="#DejaVuSans-30" transform="translate(95.410156 0)"/>
      </g>
     </g>
    </g>
    <g id="ytick_2">
     <g id="line2d_21">
      <path d="M 43.78125 451.18063 
L 601.78125 451.18063 
" clip-path="url(#p0f744489e2)" style="fill: none; stroke: #b0b0b0; stroke-width: 0.8; stroke-linecap: square"/>
     </g>
     <g id="line2d_22">
      <g>
       <use xlink:href="#m1b86eeb4e2" x="43.78125" y="451.18063" style="stroke: #000000; stroke-width: 0.8"/>
      </g>
     </g>
     <g id="text_12">
      <!-- 0.2 -->
      <g transform="translate(20.878125 454.979849) scale(0.1 -0.1)">
       <use xlink:href="#DejaVuSans-30"/>
       <use xlink:href="#DejaVuSans-2e" transform="translate(63.623047 0)"/>
       <use xlink:href="#DejaVuSans-32" transform="translate(95.410156 0)"/>
      </g>
     </g>
    </g>
    <g id="ytick_3">
     <g id="line2d_23">
      <path d="M 43.78125 348.84438 
L 601.78125 348.84438 
" clip-path="url(#p0f744489e2)" style="fill: none; stroke: #b0b0b0; stroke-width: 0.8; stroke-linecap: square"/>
     </g>
     <g id="line2d_24">
      <g>
       <use xlink:href="#m1b86eeb4e2" x="43.78125" y="348.84438" style="stroke: #000000; stroke-width: 0.8"/>
      </g>
     </g>
     <g id="text_13">
      <!-- 0.4 -->
      <g transform="translate(20.878125 352.643599) scale(0.1 -0.1)">
       <use xlink:href="#DejaVuSans-30"/>
       <use xlink:href="#DejaVuSans-2e" transform="translate(63.623047 0)"/>
       <use xlink:href="#DejaVuSans-34" transform="translate(95.410156 0)"/>
      </g>
     </g>
    </g>
    <g id="ytick_4">
     <g id="line2d_25">
      <path d="M 43.78125 246.50813 
L 601.78125 246.50813 
" clip-path="url(#p0f744489e2)" style="fill: none; stroke: #b0b0b0; stroke-width: 0.8; stroke-linecap: square"/>
     </g>
     <g id="line2d_26">
      <g>
       <use xlink:href="#m1b86eeb4e2" x="43.78125" y="246.50813" style="stroke: #000000; stroke-width: 0.8"/>
      </g>
     </g>
     <g id="text_14">
      <!-- 0.6 -->
      <g transform="translate(20.878125 250.307349) scale(0.1 -0.1)">
       <use xlink:href="#DejaVuSans-30"/>
       <use xlink:href="#DejaVuSans-2e" transform="translate(63.623047 0)"/>
       <use xlink:href="#DejaVuSans-36" transform="translate(95.410156 0)"/>
      </g>
     </g>
    </g>
    <g id="ytick_5">
     <g id="line2d_27">
      <path d="M 43.78125 144.17188 
L 601.78125 144.17188 
" clip-path="url(#p0f744489e2)" style="fill: none; stroke: #b0b0b0; stroke-width: 0.8; stroke-linecap: square"/>
     </g>
     <g id="line2d_28">
      <g>
       <use xlink:href="#m1b86eeb4e2" x="43.78125" y="144.17188" style="stroke: #000000; stroke-width: 0.8"/>
      </g>
     </g>
     <g id="text_15">
      <!-- 0.8 -->
      <g transform="translate(20.878125 147.971099) scale(0.1 -0.1)">
       <use xlink:href="#DejaVuSans-30"/>
       <use xlink:href="#DejaVuSans-2e" transform="translate(63.623047 0)"/>
       <use xlink:href="#DejaVuSans-38" transform="translate(95.410156 0)"/>
      </g>
     </g>
    </g>
    <g id="ytick_6">
     <g id="line2d_29">
      <path d="M 43.78125 41.83563 
L 601.78125 41.83563 
" clip-path="url(#p0f744489e2)" style="fill: none; stroke: #b0b0b0; stroke-width: 0.8; stroke-linecap: square"/>
     </g>
     <g id="line2d_30">
      <g>
       <use xlink:href="#m1b86eeb4e2" x="43.78125" y="41.83563" style="stroke: #000000; stroke-width: 0.8"/>
      </g>
     </g>
     <g id="text_16">
      <!-- 1.0 -->
      <g transform="translate(20.878125 45.634848) scale(0.1 -0.1)">
       <use xlink:href="#DejaVuSans-31"/>
       <use xlink:href="#DejaVuSans-2e" transform="translate(63.623047 0)"/>
       <use xlink:href="#DejaVuSans-30" transform="translate(95.410156 0)"/>
      </g>
     </g>
    </g>
    <g id="text_17">
     <!-- Accuracy -->
     <g transform="translate(14.798438 322.34625) rotate(-90) scale(0.1 -0.1)">
      <defs>
       <path id="DejaVuSans-41" d="M 2188 4044 
L 1331 1722 
L 3047 1722 
L 2188 4044 
z
M 1831 4666 
L 2547 4666 
L 4325 0 
L 3669 0 
L 3244 1197 
L 1141 1197 
L 716 0 
L 50 0 
L 1831 4666 
z
" transform="scale(0.015625)"/>
       <path id="DejaVuSans-75" d="M 544 1381 
L 544 3500 
L 1119 3500 
L 1119 1403 
Q 1119 906 1312 657 
Q 1506 409 1894 409 
Q 2359 409 2629 706 
Q 2900 1003 2900 1516 
L 2900 3500 
L 3475 3500 
L 3475 0 
L 2900 0 
L 2900 538 
Q 2691 219 2414 64 
Q 2138 -91 1772 -91 
Q 1169 -91 856 284 
Q 544 659 544 1381 
z
M 1991 3584 
L 1991 3584 
z
" transform="scale(0.015625)"/>
       <path id="DejaVuSans-72" d="M 2631 2963 
Q 2534 3019 2420 3045 
Q 2306 3072 2169 3072 
Q 1681 3072 1420 2755 
Q 1159 2438 1159 1844 
L 1159 0 
L 581 0 
L 581 3500 
L 1159 3500 
L 1159 2956 
Q 1341 3275 1631 3429 
Q 1922 3584 2338 3584 
Q 2397 3584 2469 3576 
Q 2541 3569 2628 3553 
L 2631 2963 
z
" transform="scale(0.015625)"/>
       <path id="DejaVuSans-61" d="M 2194 1759 
Q 1497 1759 1228 1600 
Q 959 1441 959 1056 
Q 959 750 1161 570 
Q 1363 391 1709 391 
Q 2188 391 2477 730 
Q 2766 1069 2766 1631 
L 2766 1759 
L 2194 1759 
z
M 3341 1997 
L 3341 0 
L 2766 0 
L 2766 531 
Q 2569 213 2275 61 
Q 1981 -91 1556 -91 
Q 1019 -91 701 211 
Q 384 513 384 1019 
Q 384 1609 779 1909 
Q 1175 2209 1959 2209 
L 2766 2209 
L 2766 2266 
Q 2766 2663 2505 2880 
Q 2244 3097 1772 3097 
Q 1472 3097 1187 3025 
Q 903 2953 641 2809 
L 641 3341 
Q 956 3463 1253 3523 
Q 1550 3584 1831 3584 
Q 2591 3584 2966 3190 
Q 3341 2797 3341 1997 
z
" transform="scale(0.015625)"/>
       <path id="DejaVuSans-79" d="M 2059 -325 
Q 1816 -950 1584 -1140 
Q 1353 -1331 966 -1331 
L 506 -1331 
L 506 -850 
L 844 -850 
Q 1081 -850 1212 -737 
Q 1344 -625 1503 -206 
L 1606 56 
L 191 3500 
L 800 3500 
L 1894 763 
L 2988 3500 
L 3597 3500 
L 2059 -325 
z
" transform="scale(0.015625)"/>
      </defs>
      <use xlink:href="#DejaVuSans-41"/>
      <use xlink:href="#DejaVuSans-63" transform="translate(66.658203 0)"/>
      <use xlink:href="#DejaVuSans-63" transform="translate(121.638672 0)"/>
      <use xlink:href="#DejaVuSans-75" transform="translate(176.619141 0)"/>
      <use xlink:href="#DejaVuSans-72" transform="translate(239.998047 0)"/>
      <use xlink:href="#DejaVuSans-61" transform="translate(281.111328 0)"/>
      <use xlink:href="#DejaVuSans-63" transform="translate(342.390625 0)"/>
      <use xlink:href="#DejaVuSans-79" transform="translate(397.371094 0)"/>
     </g>
    </g>
   </g>
   <g id="line2d_31">
    <path d="M 69.144886 423.507201 
L 69.779771 415.559088 
L 70.414655 414.026886 
L 71.04954 413.14566 
L 71.684424 411.960256 
L 72.319309 411.101782 
L 72.954193 409.939115 
L 73.589078 408.51779 
L 74.223962 407.514326 
L 74.858847 405.643848 
L 75.493732 404.225344 
L 76.128616 402.232628 
L 76.763501 400.944901 
L 78.03327 397.624658 
L 78.668154 396.481907 
L 83.74723 382.510157 
L 84.382115 381.392994 
L 86.286768 376.023186 
L 86.921653 375.031082 
L 87.556537 372.540904 
L 88.826306 368.976199 
L 89.461191 366.719106 
L 91.365844 362.131037 
L 92.000729 359.771621 
L 95.810036 348.682353 
L 96.44492 347.357663 
L 97.079805 345.308097 
L 97.71469 343.744618 
L 98.349574 341.518816 
L 98.984459 340.074739 
L 99.619343 337.726684 
L 104.698419 323.828847 
L 105.968188 320.124841 
L 107.237957 316.733536 
L 108.507726 313.46447 
L 112.317033 303.611751 
L 112.951918 301.471224 
L 114.221687 298.224894 
L 115.491456 295.075214 
L 116.12634 293.679447 
L 118.030994 288.608112 
L 118.665879 287.277764 
L 119.300763 285.447087 
L 120.570532 282.521968 
L 122.475186 277.552957 
L 123.11007 276.48697 
L 124.379839 273.169579 
L 125.014724 271.753926 
L 125.649608 269.951674 
L 126.919377 267.077701 
L 127.554262 265.426112 
L 128.824031 262.822235 
L 129.458915 261.375321 
L 130.0938 259.524728 
L 130.728684 258.558228 
L 131.998453 255.408548 
L 132.633338 254.336859 
L 133.268222 252.437956 
L 133.903107 251.383315 
L 135.172876 247.906721 
L 135.80776 246.906094 
L 136.442645 245.510357 
L 137.077529 243.705268 
L 137.712414 242.903613 
L 141.521721 234.199349 
L 145.331028 226.598035 
L 145.965913 224.767358 
L 146.600797 223.77527 
L 147.235682 222.152105 
L 148.505451 220.039987 
L 149.140335 218.473671 
L 149.77522 217.217221 
L 150.410104 215.562795 
L 153.584527 209.613071 
L 154.219411 208.581183 
L 154.854296 207.282065 
L 155.48918 205.548038 
L 156.758949 202.80771 
L 157.393834 202.170961 
L 158.028718 200.556305 
L 158.663603 199.581265 
L 159.298487 198.188365 
L 159.933372 197.153639 
L 160.568256 195.442334 
L 161.203141 194.262618 
L 161.838026 193.515006 
L 163.107795 190.811612 
L 163.742679 190.299938 
L 165.012448 187.263957 
L 165.647333 186.450956 
L 168.186871 181.410913 
L 168.821755 180.441546 
L 169.45664 179.105495 
L 170.091524 178.232809 
L 171.361293 175.813692 
L 172.631062 173.303598 
L 173.265947 172.50481 
L 176.440369 166.546577 
L 177.075254 165.725037 
L 177.710138 164.630595 
L 178.979907 161.989754 
L 179.614792 161.378593 
L 180.249676 159.908927 
L 184.058984 153.734642 
L 185.963637 150.161398 
L 186.598522 149.530322 
L 187.233406 148.427371 
L 187.868291 146.971918 
L 188.503175 146.235652 
L 189.13806 145.019002 
L 189.772944 144.149152 
L 190.407829 142.955224 
L 191.042713 142.258759 
L 192.312482 140.268879 
L 192.947367 139.336507 
L 193.582251 138.148252 
L 194.217136 137.201637 
L 194.85202 135.930975 
L 195.486905 135.186199 
L 196.121789 134.137231 
L 196.756674 132.852357 
L 197.391558 132.437332 
L 198.661327 130.632212 
L 199.296212 129.6515 
L 199.931096 128.417772 
L 201.200865 126.720709 
L 201.83575 126.069747 
L 203.105519 124.045739 
L 203.740403 123.539768 
L 205.010173 121.214434 
L 205.645057 120.643074 
L 206.279942 119.861334 
L 206.914826 118.440009 
L 208.184595 117.194904 
L 208.81948 115.944127 
L 214.53344 108.951139 
L 215.803209 107.745865 
L 216.438094 106.503597 
L 217.707863 105.49446 
L 218.342747 104.613234 
L 218.977632 104.078807 
L 221.51717 101.014402 
L 222.152054 100.528315 
L 223.421823 98.996097 
L 224.056708 98.709014 
L 224.691592 97.640161 
L 225.326477 97.299034 
L 225.961362 96.423481 
L 226.596246 96.173332 
L 227.231131 95.076054 
L 227.866015 94.854329 
L 230.405553 92.503438 
L 231.040438 92.114001 
L 231.675322 91.252661 
L 233.579976 89.635199 
L 234.21486 89.177507 
L 234.849745 88.441271 
L 235.484629 88.06318 
L 236.754398 86.818106 
L 237.389283 86.505404 
L 238.659052 85.473515 
L 239.293936 84.995938 
L 239.928821 84.205689 
L 240.563705 83.875939 
L 241.19859 83.276123 
L 241.833474 83.008925 
L 242.468359 82.329508 
L 243.738128 81.624534 
L 244.373012 81.246443 
L 245.007897 80.589808 
L 246.277666 79.73414 
L 246.91255 79.560756 
L 247.547435 79.219629 
L 248.18232 78.400925 
L 248.817204 78.034241 
L 250.086973 76.965388 
L 250.721858 76.948339 
L 251.356742 76.374112 
L 251.991627 76.044361 
L 252.626511 75.524147 
L 253.261396 75.356435 
L 253.89628 74.580399 
L 255.166049 74.006171 
L 256.435818 73.39498 
L 257.070703 72.817916 
L 257.705587 72.965743 
L 258.340472 72.101566 
L 258.975356 72.223804 
L 260.245125 71.02704 
L 260.88001 70.899129 
L 261.514894 70.327738 
L 262.784663 69.926926 
L 263.419548 69.600011 
L 264.054432 69.136677 
L 265.324201 68.633511 
L 265.959086 68.36061 
L 266.59397 67.959798 
L 267.228855 67.820511 
L 267.863739 67.53907 
L 269.133509 66.808507 
L 271.038162 66.239983 
L 272.942816 65.199554 
L 273.5777 65.040382 
L 274.212585 64.531544 
L 274.847469 64.369505 
L 275.482354 64.073852 
L 276.117238 64.207466 
L 276.752123 63.690119 
L 277.387007 63.368877 
L 278.021892 63.22105 
L 278.656776 62.865742 
L 279.291661 62.823074 
L 280.56143 62.277302 
L 281.831199 61.754252 
L 282.466083 61.467138 
L 284.370737 61.180025 
L 285.005621 60.807637 
L 285.640506 60.674023 
L 286.27539 60.17656 
L 287.545159 60.028734 
L 288.814928 59.434621 
L 289.449813 59.428949 
L 290.084697 59.298171 
L 290.719582 59.048021 
L 291.354467 58.974123 
L 291.989351 58.644373 
L 292.624236 58.723943 
L 293.25912 58.490843 
L 293.894005 57.936531 
L 294.528889 58.05023 
L 295.798658 57.623829 
L 296.433543 57.649418 
L 297.068427 57.245769 
L 297.703312 57.42202 
L 298.338196 57.299782 
L 299.607965 56.725555 
L 300.24285 56.850629 
L 300.877734 56.304827 
L 302.147503 56.509503 
L 303.417272 55.921063 
L 304.052157 56.014877 
L 304.687041 55.784643 
L 305.95681 55.72209 
L 306.591695 55.389503 
L 307.226579 55.23884 
L 307.861464 55.272938 
L 308.496348 55.523118 
L 309.131233 54.980151 
L 309.766117 54.880665 
L 310.401002 55.022788 
L 311.035886 54.468477 
L 311.670771 54.576503 
L 312.94054 54.189903 
L 313.575425 54.431512 
L 314.210309 54.241049 
L 314.845194 53.931214 
L 315.480078 53.993736 
L 316.114963 53.717998 
L 316.749847 53.735047 
L 317.384732 53.919838 
L 318.654501 53.365526 
L 319.289385 53.479225 
L 320.559154 53.311513 
L 321.194039 53.106837 
L 322.463808 53.121049 
L 323.098692 52.788462 
L 323.733577 52.617884 
L 324.368461 52.924913 
L 325.63823 52.413208 
L 326.273115 52.811184 
L 326.907999 52.507022 
L 327.542884 52.589459 
L 330.082422 52.327934 
L 330.717306 51.981135 
L 331.987075 51.907237 
L 332.62196 52.143174 
L 333.256844 51.61442 
L 333.891729 52.077785 
L 334.526614 51.762246 
L 335.796383 51.75941 
L 336.431267 51.739494 
L 337.066152 51.435332 
L 337.701036 51.443872 
L 338.335921 51.335846 
L 338.970805 51.554734 
L 342.780112 51.088533 
L 343.414997 51.162431 
L 344.049881 50.770158 
L 344.684766 51.301718 
L 345.31965 50.738897 
L 346.589419 51.048732 
L 347.224304 50.815631 
L 347.859188 50.701933 
L 348.494073 50.869644 
L 350.398726 50.710442 
L 351.033611 50.363642 
L 351.668495 50.74457 
L 352.30338 50.312496 
L 352.938264 50.659296 
L 353.573149 50.221519 
L 354.208033 50.770158 
L 354.842918 50.318169 
L 355.477803 50.525681 
L 356.112687 50.375018 
L 356.747572 50.386394 
L 357.382456 50.517142 
L 358.017341 50.065183 
L 358.652225 50.102117 
L 359.28711 49.849131 
L 360.556879 50.232895 
L 361.191763 49.988418 
L 362.461532 49.87472 
L 363.731301 49.894605 
L 364.366186 49.789446 
L 365.00107 50.050971 
L 366.270839 49.684256 
L 366.905724 49.81787 
L 367.540608 49.695632 
L 368.810377 49.746778 
L 369.445262 49.539266 
L 370.080146 49.598982 
L 370.715031 49.235104 
L 371.349915 49.644455 
L 371.9848 49.658668 
L 372.619684 49.368718 
L 373.254569 49.39147 
L 373.889453 49.650128 
L 375.159222 49.343129 
L 376.428991 49.371554 
L 377.698761 49.456828 
L 378.333645 49.175418 
L 378.96853 49.229431 
L 379.603414 49.57623 
L 380.238299 49.164042 
L 380.873183 49.132781 
L 381.508068 49.357342 
L 382.142952 49.04464 
L 382.777837 49.090144 
L 383.412721 48.893977 
L 384.047606 48.973578 
L 385.952259 48.893977 
L 386.587144 49.107192 
L 387.222028 48.99633 
L 388.491797 49.033294 
L 389.126682 48.768902 
L 389.761566 49.007706 
L 390.396451 48.905353 
L 391.031335 48.953693 
L 391.66622 48.828618 
L 392.301104 49.115732 
L 392.935989 48.839964 
L 393.570873 49.047507 
L 396.745296 48.831455 
L 397.38018 48.680792 
L 398.015065 48.902517 
L 398.64995 48.632452 
L 399.284834 48.649531 
L 399.919719 48.922402 
L 401.824372 48.655204 
L 402.459257 48.879765 
L 403.094141 48.441988 
L 403.729026 48.712053 
L 404.36391 48.831455 
L 404.998795 48.510213 
L 407.538333 48.726265 
L 408.808102 48.316913 
L 409.442986 48.501704 
L 410.077871 48.436315 
L 410.712755 48.248688 
L 411.34764 48.692168 
L 411.982524 48.385139 
L 412.617409 48.595518 
L 413.887178 48.46474 
L 415.791831 48.712053 
L 416.426716 48.677955 
L 417.0616 48.254391 
L 417.696485 48.51308 
L 418.331369 48.569929 
L 419.601138 48.322617 
L 420.236023 48.200378 
L 420.870908 48.467576 
L 421.505792 48.061091 
L 422.140677 48.154905 
L 423.410446 48.703544 
L 424.04533 48.396515 
L 425.315099 48.459067 
L 425.949984 48.243015 
L 426.584868 48.365254 
L 427.219753 48.211754 
L 427.854637 48.308404 
L 428.489522 48.220263 
L 429.124406 48.424939 
L 429.759291 48.137826 
L 430.394175 48.132153 
L 431.02906 48.339665 
L 431.663944 48.231639 
L 432.298829 48.521589 
L 433.568598 48.07814 
L 434.838367 48.314077 
L 435.473251 48.203215 
L 436.108136 48.231639 
L 436.74302 48.058255 
L 438.012789 48.225967 
L 438.647674 48.007078 
L 439.282558 48.066764 
L 439.917443 48.396515 
L 440.552327 48.342502 
L 441.187212 48.018454 
L 443.091866 48.231639 
L 443.72675 47.944526 
L 444.361635 48.228803 
L 446.266288 48.390842 
L 446.901173 48.035503 
L 447.536057 47.970114 
L 448.170942 48.217427 
L 449.440711 48.066764 
L 450.075595 48.106565 
L 450.71048 47.859252 
L 451.345364 48.243015 
L 451.980249 47.663115 
L 452.615133 48.265767 
L 453.250018 47.950229 
L 453.884902 48.112268 
L 454.519787 48.103728 
L 455.154671 47.904725 
L 455.789556 47.882004 
L 456.42444 48.268604 
L 457.059325 47.799566 
L 457.694209 48.325453 
L 458.329094 47.845039 
L 458.963978 47.995702 
L 459.598863 47.941689 
L 460.868632 48.322617 
L 461.503516 48.061091 
L 462.773285 47.930313 
L 463.40817 47.73985 
L 464.043055 48.160578 
L 464.677939 48.061091 
L 465.312824 48.109401 
L 465.947708 47.705752 
L 466.582593 48.055388 
L 467.217477 47.913265 
L 467.852362 48.015587 
L 468.487246 47.839367 
L 469.757015 47.950229 
L 470.3919 48.049715 
L 471.026784 47.845039 
L 473.566322 47.950229 
L 474.836091 47.867791 
L 475.470976 47.970114 
L 476.10586 47.88484 
L 477.375629 48.001375 
L 478.010514 47.867791 
L 478.645398 47.924641 
L 479.280283 47.756929 
L 480.550052 47.896216 
L 481.184936 47.748389 
L 481.819821 47.964441 
L 483.08959 47.680164 
L 483.724474 47.725637 
L 484.359359 47.6432 
L 485.629128 48.149202 
L 486.264013 47.847876 
L 488.168666 47.907592 
L 488.803551 48.186166 
L 489.438435 47.728504 
L 490.07332 47.870628 
L 490.708204 47.896216 
L 491.977973 47.799566 
L 492.612858 47.904725 
L 493.247742 47.890513 
L 493.882627 48.234476 
L 494.517511 47.998539 
L 495.152396 47.927477 
L 496.422165 47.574974 
L 497.057049 47.882004 
L 497.691934 47.708589 
L 498.326818 47.998539 
L 498.961703 47.683 
L 499.596587 47.722801 
L 500.231472 47.984326 
L 500.866356 47.719965 
L 501.501241 47.680164 
L 502.136125 48.026963 
L 502.77101 47.890513 
L 503.405894 47.995702 
L 504.040779 47.808075 
L 504.675663 47.867791 
L 505.310548 47.731341 
L 505.945433 48.02983 
L 508.484971 47.583514 
L 509.119855 48.004242 
L 510.389624 47.927477 
L 511.024509 47.950229 
L 511.659393 47.745553 
L 512.294278 47.910428 
L 513.564047 47.73985 
L 514.198931 48.066764 
L 515.4687 47.668788 
L 516.103585 47.88484 
L 516.738469 47.822287 
L 517.373354 47.961605 
L 518.008238 47.657412 
L 518.643123 48.026963 
L 519.278007 47.754062 
L 519.912892 47.850712 
L 520.547776 47.640363 
L 521.817545 47.856415 
L 522.45243 47.725637 
L 523.722199 47.964441 
L 524.357083 47.680164 
L 526.896621 47.847876 
L 527.531506 47.873464 
L 528.166391 47.674491 
L 528.801275 47.955902 
L 529.43616 47.731341 
L 530.705929 48.009915 
L 531.340813 47.518125 
L 531.975698 47.873464 
L 532.610582 47.924641 
L 533.245467 47.59489 
L 533.880351 47.555089 
L 534.515236 47.708589 
L 535.15012 47.737013 
L 535.785005 47.592054 
L 536.419889 47.896216 
L 537.054774 47.748389 
L 537.689658 48.012751 
L 538.324543 47.850712 
L 538.959427 47.910428 
L 539.594312 47.609102 
L 540.229196 47.978654 
L 540.864081 47.810942 
L 541.498965 47.773978 
L 542.13385 47.882004 
L 543.403619 47.637527 
L 544.673388 47.702916 
L 545.308272 47.654576 
L 545.943157 47.8365 
L 546.578041 47.685867 
L 547.212926 47.856415 
L 547.84781 47.864955 
L 549.752464 47.60343 
L 550.387349 47.762602 
L 551.022233 47.580678 
L 551.657118 47.907592 
L 552.926887 47.674491 
L 553.561771 47.930313 
L 554.196656 47.583514 
L 554.83154 47.711425 
L 555.466425 47.620478 
L 556.101309 47.791026 
L 556.736194 47.73985 
L 557.371078 47.563629 
L 558.005963 47.773978 
L 558.640847 47.782517 
L 559.275732 47.640363 
L 559.910616 47.830827 
L 561.180385 47.555089 
L 562.450154 47.904725 
L 563.719923 47.529501 
L 564.989692 48.171954 
L 565.624577 47.827991 
L 566.259461 47.617642 
L 566.894346 47.660279 
L 567.52923 47.825154 
L 568.798999 47.640363 
L 569.433884 47.589187 
L 570.068768 47.950229 
L 570.703653 47.754062 
L 571.338538 47.853579 
L 571.973422 47.583514 
L 572.608307 47.896216 
L 573.243191 47.754062 
L 574.51296 47.953065 
L 575.147845 47.665952 
L 575.782729 47.970114 
L 576.417614 48.007078 
L 576.417614 48.007078 
" clip-path="url(#p0f744489e2)" style="fill: none; stroke: #1f77b4; stroke-width: 1.5; stroke-linecap: square"/>
   </g>
   <g id="line2d_32">
    <path d="M 69.144886 418.100444 
L 69.779771 419.430807 
L 70.414655 418.151605 
L 71.04954 419.200558 
L 71.684424 418.228355 
L 72.319309 418.612118 
L 72.954193 417.870179 
L 73.589078 419.686644 
L 74.223962 418.637707 
L 74.858847 418.074855 
L 75.493732 421.017023 
L 76.128616 419.533145 
L 76.763501 421.656624 
L 77.398385 421.451948 
L 78.03327 422.014799 
L 78.668154 422.142725 
L 79.303039 424.573203 
L 79.937923 421.19611 
L 80.572808 425.724486 
L 81.207692 425.26398 
L 81.842577 422.782326 
L 82.477461 424.061528 
L 83.112346 423.984778 
L 83.74723 426.364087 
L 84.382115 425.391891 
L 85.016999 422.782326 
L 85.651884 424.573203 
L 86.286768 425.877993 
L 86.921653 425.596567 
L 87.556537 426.594344 
L 88.191422 425.059304 
L 88.826306 424.726702 
L 89.461191 426.389675 
L 90.096075 426.978107 
L 90.73096 427.157195 
L 91.365844 426.747851 
L 92.000729 427.029276 
L 93.270498 426.645513 
L 93.905382 426.875769 
L 94.540267 427.771215 
L 95.175151 424.777879 
L 95.810036 428.768991 
L 96.44492 431.097139 
L 97.079805 431.199477 
L 98.349574 427.259533 
L 98.984459 429.58768 
L 99.619343 430.534295 
L 100.254228 430.099362 
L 100.889112 426.926938 
L 101.523997 430.3552 
L 102.158881 430.866882 
L 102.793766 427.847965 
L 103.42865 430.713383 
L 104.063535 431.864666 
L 104.698419 430.738963 
L 105.333304 429.229505 
L 105.968188 429.331843 
L 106.603073 432.683354 
L 107.237957 432.990361 
L 107.872842 432.504267 
L 108.507726 433.374124 
L 109.142611 430.687794 
L 109.777495 432.453098 
L 110.41238 431.404153 
L 111.047264 432.248422 
L 111.682149 432.478678 
L 112.317033 432.197253 
L 112.951918 434.167225 
L 113.586802 435.753441 
L 114.856571 433.399705 
L 115.491456 434.857995 
L 116.12634 435.651103 
L 116.761225 435.011502 
L 117.396109 432.453098 
L 118.030994 435.344096 
L 118.665879 436.393041 
L 119.300763 435.958109 
L 119.935648 433.988137 
L 120.570532 436.213954 
L 121.205417 435.13942 
L 121.840301 436.546548 
L 122.475186 436.597717 
L 123.11007 436.290704 
L 123.744955 437.109392 
L 124.379839 436.751217 
L 125.014724 437.083811 
L 125.649608 435.779021 
L 126.284493 436.648879 
L 126.919377 436.674467 
L 127.554262 435.779021 
L 128.189146 435.651103 
L 128.824031 436.393041 
L 129.458915 435.216178 
L 130.728684 439.104952 
L 131.363569 437.621074 
L 131.998453 437.007062 
L 132.633338 438.951445 
L 133.268222 438.849115 
L 133.903107 437.621074 
L 134.537991 437.083811 
L 135.172876 437.876919 
L 135.80776 436.495379 
L 136.442645 437.109392 
L 137.077529 439.463128 
L 137.712414 436.060447 
L 138.347298 437.82575 
L 138.982183 437.339649 
L 139.617067 439.335209 
L 140.886837 436.674467 
L 141.521721 439.181702 
L 142.156606 439.949229 
L 142.79149 438.925865 
L 143.426375 438.695608 
L 144.061259 438.823527 
L 144.696144 438.132757 
L 145.331028 439.386378 
L 145.965913 439.36079 
L 146.600797 439.565466 
L 147.235682 438.618858 
L 147.870566 439.463128 
L 148.505451 439.89806 
L 149.140335 438.797946 
L 149.77522 441.484268 
L 150.410104 439.488716 
L 151.044989 438.235095 
L 151.679873 440.435323 
L 152.314758 441.254012 
L 152.949642 437.595494 
L 153.584527 440.742329 
L 154.219411 438.823527 
L 154.854296 439.335209 
L 155.48918 438.772358 
L 156.758949 441.330769 
L 157.393834 439.181702 
L 158.028718 440.921417 
L 158.663603 440.409742 
L 159.298487 439.488716 
L 159.933372 440.179486 
L 161.203141 439.104952 
L 161.838026 440.256236 
L 162.47291 440.691161 
L 163.107795 440.66558 
L 163.742679 440.767918 
L 164.377564 438.465351 
L 165.012448 441.791282 
L 165.647333 439.718973 
L 166.917102 440.435323 
L 167.551986 439.309628 
L 168.186871 440.870256 
L 168.821755 441.612187 
L 169.45664 439.821303 
L 170.091524 441.228431 
L 170.726409 441.433099 
L 171.361293 441.049343 
L 171.996178 440.435323 
L 172.631062 442.814639 
L 173.265947 441.305181 
L 173.900831 440.716749 
L 174.535716 439.642215 
L 175.1706 440.972586 
L 175.805485 441.919201 
L 176.440369 441.944782 
L 177.075254 441.561026 
L 177.710138 440.153898 
L 178.345023 440.307405 
L 178.979907 441.842444 
L 179.614792 441.202843 
L 180.249676 442.098289 
L 180.884561 442.635552 
L 181.519445 442.123869 
L 182.15433 443.275153 
L 182.789215 442.76347 
L 183.424099 441.458688 
L 184.058984 440.58883 
L 184.693868 441.868032 
L 185.328753 442.712309 
L 185.963637 442.840228 
L 186.598522 442.609971 
L 187.233406 442.149458 
L 187.868291 442.73789 
L 188.503175 443.607747 
L 189.772944 442.993727 
L 190.407829 444.11943 
L 191.042713 441.663356 
L 191.677598 442.814639 
L 192.312482 442.482052 
L 192.947367 442.302957 
L 193.582251 443.812423 
L 194.217136 443.607747 
L 194.85202 443.633328 
L 195.486905 443.786835 
L 196.121789 442.789059 
L 196.756674 442.968146 
L 197.391558 443.991511 
L 198.026443 442.430883 
L 198.661327 444.221768 
L 199.296212 443.172815 
L 199.931096 443.940342 
L 200.565981 445.091625 
L 201.200865 443.914754 
L 201.83575 444.989287 
L 202.470634 444.656693 
L 203.105519 442.891397 
L 203.740403 444.298517 
L 204.375288 442.507633 
L 205.010173 443.556578 
L 205.645057 443.556578 
L 206.279942 444.477605 
L 206.914826 444.400855 
L 207.549711 443.991511 
L 208.184595 444.477605 
L 208.81948 443.019315 
L 209.454364 443.275153 
L 210.724133 445.321882 
L 211.359018 442.891397 
L 211.993902 443.940342 
L 212.628787 444.631112 
L 213.263671 444.631112 
L 213.898556 443.556578 
L 214.53344 445.245124 
L 215.168325 445.833564 
L 215.803209 445.782395 
L 216.438094 444.452024 
L 217.072978 444.83578 
L 217.707863 446.114982 
L 218.342747 444.477605 
L 218.977632 444.656693 
L 219.612516 443.684497 
L 220.247401 445.040456 
L 220.882285 445.296293 
L 221.51717 444.503193 
L 222.152054 444.272937 
L 222.786939 445.603307 
L 223.421823 444.938118 
L 224.056708 444.528774 
L 224.691592 445.833564 
L 225.326477 444.656693 
L 225.961362 446.370827 
L 226.596246 445.577719 
L 227.231131 445.066037 
L 227.866015 445.270713 
L 229.135784 446.319658 
L 229.770669 444.375267 
L 230.405553 444.631112 
L 231.040438 445.373051 
L 231.675322 446.575495 
L 232.310207 445.296293 
L 232.945091 444.83578 
L 233.579976 445.680057 
L 234.21486 445.807976 
L 234.849745 445.577719 
L 235.484629 446.191739 
L 236.119514 445.807976 
L 236.754398 445.628888 
L 237.389283 444.528774 
L 238.024167 445.833564 
L 238.659052 444.938118 
L 239.293936 445.193955 
L 240.563705 446.191739 
L 241.19859 444.682281 
L 241.833474 443.991511 
L 242.468359 445.398631 
L 243.103243 445.500969 
L 243.738128 446.959259 
L 244.373012 445.52655 
L 245.007897 446.575495 
L 245.642781 445.654469 
L 246.277666 446.114982 
L 246.91255 446.191739 
L 247.547435 445.859145 
L 248.18232 445.014868 
L 248.817204 445.807976 
L 249.452089 445.987063 
L 250.086973 444.656693 
L 250.721858 446.882509 
L 251.356742 445.705638 
L 251.991627 446.524334 
L 252.626511 446.652253 
L 253.261396 445.756807 
L 254.531165 445.296293 
L 255.166049 446.268489 
L 255.800934 446.984847 
L 256.435818 445.142794 
L 257.070703 445.859145 
L 257.705587 444.886949 
L 258.340472 446.882509 
L 258.975356 445.245124 
L 259.610241 445.987063 
L 260.245125 444.861368 
L 260.88001 446.063821 
L 261.514894 445.782395 
L 262.149779 448.136123 
L 262.784663 444.605524 
L 263.419548 446.549915 
L 264.054432 445.987063 
L 264.689317 445.833564 
L 265.324201 445.373051 
L 265.959086 446.114982 
L 266.59397 447.419772 
L 267.228855 445.654469 
L 267.863739 447.67561 
L 268.498624 446.882509 
L 269.768393 447.368603 
L 270.403278 446.089401 
L 271.038162 446.959259 
L 271.673047 445.782395 
L 272.307931 446.959259 
L 272.942816 445.731226 
L 273.5777 446.396408 
L 274.212585 445.373051 
L 274.847469 446.242908 
L 275.482354 445.117206 
L 276.117238 446.933678 
L 276.752123 446.447577 
L 277.387007 445.603307 
L 278.021892 446.447577 
L 278.656776 446.345239 
L 279.291661 446.780171 
L 279.926545 446.601084 
L 280.56143 446.268489 
L 282.466083 446.729002 
L 283.735852 446.012652 
L 284.370737 446.882509 
L 285.005621 448.008204 
L 285.640506 446.447577 
L 286.27539 447.215104 
L 286.910275 447.266265 
L 287.545159 446.83134 
L 288.180044 448.494306 
L 288.814928 446.805752 
L 289.449813 447.343023 
L 290.084697 445.782395 
L 290.719582 446.063821 
L 291.354467 447.957035 
L 291.989351 446.038232 
L 292.624236 448.698974 
L 293.25912 448.238461 
L 293.894005 446.524334 
L 294.528889 448.238461 
L 295.163774 446.933678 
L 295.798658 446.268489 
L 296.433543 446.83134 
L 297.068427 446.191739 
L 297.703312 446.626664 
L 298.973081 446.447577 
L 299.607965 446.754591 
L 300.24285 447.291854 
L 300.877734 447.624448 
L 301.512619 446.447577 
L 302.147503 446.166151 
L 302.782388 446.575495 
L 303.417272 446.242908 
L 304.052157 446.473165 
L 304.687041 447.112766 
L 305.321926 446.14057 
L 306.591695 447.59886 
L 307.226579 447.547691 
L 307.861464 446.754591 
L 308.496348 446.14057 
L 309.131233 446.83134 
L 309.766117 446.882509 
L 310.401002 447.803536 
L 311.035886 448.008204 
L 311.670771 446.90809 
L 312.305656 448.161711 
L 312.94054 447.624448 
L 313.575425 445.731226 
L 314.210309 447.343023 
L 314.845194 445.552138 
L 315.480078 448.826893 
L 316.114963 447.445353 
L 316.749847 448.494306 
L 317.384732 446.754591 
L 318.019616 446.83134 
L 318.654501 447.240685 
L 319.289385 446.626664 
L 319.92427 447.67561 
L 320.559154 447.573279 
L 321.194039 446.959259 
L 321.828923 448.110542 
L 322.463808 447.112766 
L 323.098692 446.473165 
L 323.733577 446.447577 
L 324.368461 447.087178 
L 325.003346 447.317434 
L 326.273115 448.110542 
L 326.907999 446.549915 
L 327.542884 447.880286 
L 328.812653 447.547691 
L 329.447537 448.008204 
L 330.082422 446.805752 
L 330.717306 447.061597 
L 331.352191 447.496522 
L 331.987075 448.698974 
L 332.62196 448.724562 
L 333.256844 446.90809 
L 333.891729 448.622225 
L 334.526614 449.952595 
L 335.161498 446.959259 
L 335.796383 447.573279 
L 336.431267 447.59886 
L 337.066152 446.729002 
L 337.701036 446.114982 
L 338.335921 447.701198 
L 338.970805 446.601084 
L 339.60569 447.52211 
L 340.240574 447.163935 
L 340.875459 448.315218 
L 341.510343 447.59886 
L 342.145228 448.110542 
L 342.780112 448.28963 
L 343.414997 447.291854 
L 344.684766 447.726779 
L 345.31965 446.677833 
L 345.954535 447.931455 
L 346.589419 447.650029 
L 347.224304 447.650029 
L 347.859188 446.089401 
L 348.494073 446.575495 
L 349.128957 447.931455 
L 349.763842 446.345239 
L 350.398726 447.343023 
L 351.033611 447.163935 
L 351.668495 447.59886 
L 352.938264 445.935894 
L 353.573149 447.368603 
L 354.208033 447.59886 
L 354.842918 446.729002 
L 355.477803 448.033793 
L 356.112687 446.90809 
L 356.747572 446.089401 
L 357.382456 447.163935 
L 358.017341 447.368603 
L 358.652225 447.726779 
L 359.28711 447.650029 
L 359.921994 447.803536 
L 360.556879 446.933678 
L 361.191763 447.394192 
L 361.826648 448.059373 
L 362.461532 448.059373 
L 363.096417 447.317434 
L 363.731301 446.933678 
L 364.366186 448.622225 
L 365.00107 446.882509 
L 365.635955 447.880286 
L 366.270839 448.443137 
L 366.905724 448.596636 
L 367.540608 449.261825 
L 368.175493 448.417549 
L 369.445262 447.291854 
L 370.080146 448.673394 
L 370.715031 446.984847 
L 371.349915 447.061597 
L 371.9848 447.67561 
L 372.619684 447.982624 
L 373.254569 447.67561 
L 373.889453 447.701198 
L 374.524338 447.291854 
L 375.159222 448.36638 
L 375.794107 448.187292 
L 376.428991 447.67561 
L 377.063876 448.750143 
L 377.698761 448.647805 
L 378.333645 450.38752 
L 378.96853 447.215104 
L 379.603414 447.266265 
L 380.238299 448.775731 
L 380.873183 447.803536 
L 381.508068 448.033793 
L 382.142952 447.036009 
L 382.777837 448.494306 
L 383.412721 447.445353 
L 384.047606 449.620001 
L 384.68249 448.340799 
L 385.317375 448.443137 
L 385.952259 448.059373 
L 387.222028 447.752367 
L 387.856913 448.084962 
L 389.126682 447.52211 
L 389.761566 447.394192 
L 390.396451 447.650029 
L 391.66622 449.620001 
L 392.935989 447.163935 
L 393.570873 447.957035 
L 394.205758 447.112766 
L 394.840642 447.547691 
L 395.475527 449.236245 
L 396.110411 447.470941 
L 396.745296 449.210656 
L 397.38018 447.061597 
L 398.015065 448.545475 
L 398.64995 447.52211 
L 399.284834 449.05715 
L 399.919719 449.364163 
L 400.554603 448.110542 
L 401.189488 448.90365 
L 401.824372 448.545475 
L 402.459257 448.417549 
L 403.094141 447.880286 
L 403.729026 448.21288 
L 404.36391 448.136123 
L 404.998795 448.545475 
L 405.633679 448.494306 
L 406.268564 447.291854 
L 406.903448 448.21288 
L 407.538333 447.931455 
L 408.173217 447.803536 
L 408.808102 448.059373 
L 409.442986 447.291854 
L 410.077871 448.647805 
L 411.34764 448.136123 
L 411.982524 447.624448 
L 412.617409 448.750143 
L 413.252293 448.059373 
L 413.887178 448.340799 
L 414.522062 449.236245 
L 415.156947 449.210656 
L 415.791831 446.856921 
L 416.426716 447.163935 
L 417.0616 448.136123 
L 417.696485 446.575495 
L 418.331369 448.775731 
L 418.966254 449.338575 
L 419.601138 448.545475 
L 420.236023 448.417549 
L 420.870908 448.417549 
L 421.505792 449.338575 
L 422.140677 447.905866 
L 422.775561 448.417549 
L 423.410446 447.547691 
L 424.680215 449.287406 
L 425.315099 449.210656 
L 425.949984 450.336359 
L 426.584868 448.954819 
L 427.219753 446.959259 
L 427.854637 448.775731 
L 428.489522 447.163935 
L 429.124406 448.315218 
L 429.759291 448.622225 
L 431.02906 448.90365 
L 431.663944 449.338575 
L 432.298829 447.701198 
L 432.933713 446.677833 
L 433.568598 448.750143 
L 434.203482 448.878062 
L 434.838367 450.208433 
L 435.473251 447.957035 
L 436.108136 448.238461 
L 436.74302 448.36638 
L 437.377905 447.087178 
L 438.012789 447.957035 
L 438.647674 447.880286 
L 439.282558 448.519887 
L 439.917443 448.622225 
L 440.552327 449.261825 
L 441.187212 448.340799 
L 441.822097 447.189516 
L 442.456981 448.596636 
L 443.091866 448.519887 
L 443.72675 449.031569 
L 444.996519 447.931455 
L 445.631404 448.238461 
L 446.266288 448.315218 
L 446.901173 447.112766 
L 447.536057 447.982624 
L 448.170942 449.722339 
L 448.805826 448.136123 
L 449.440711 448.187292 
L 450.075595 447.368603 
L 450.71048 446.90809 
L 451.345364 447.854705 
L 451.980249 447.138347 
L 452.615133 447.52211 
L 453.250018 449.05715 
L 453.884902 449.978176 
L 454.519787 447.163935 
L 455.154671 448.417549 
L 455.789556 447.317434 
L 456.42444 448.238461 
L 457.059325 448.571056 
L 457.694209 447.905866 
L 458.329094 448.852481 
L 458.963978 448.724562 
L 459.598863 448.468718 
L 460.233747 448.571056 
L 460.868632 449.69675 
L 461.503516 447.59886 
L 462.138401 448.622225 
L 462.773285 449.108318 
L 463.40817 447.829117 
L 464.043055 447.445353 
L 464.677939 447.982624 
L 465.312824 447.67561 
L 465.947708 448.28963 
L 467.217477 448.084962 
L 467.852362 448.21288 
L 468.487246 446.626664 
L 469.122131 447.803536 
L 469.757015 448.264049 
L 470.3919 448.110542 
L 471.026784 447.343023 
L 471.661669 447.573279 
L 472.296553 447.368603 
L 472.931438 447.445353 
L 473.566322 448.622225 
L 474.201207 447.59886 
L 474.836091 449.133907 
L 475.470976 448.545475 
L 476.10586 448.724562 
L 476.740745 449.159487 
L 477.375629 446.959259 
L 478.010514 448.468718 
L 478.645398 447.931455 
L 479.915167 449.031569 
L 480.550052 449.108318 
L 481.184936 448.596636 
L 481.819821 448.468718 
L 482.454705 448.084962 
L 483.08959 449.005988 
L 483.724474 448.9804 
L 484.359359 447.905866 
L 484.994244 448.954819 
L 486.264013 448.494306 
L 486.898897 447.215104 
L 487.533782 449.005988 
L 488.168666 448.28963 
L 488.803551 449.952595 
L 489.438435 448.954819 
L 490.07332 448.417549 
L 490.708204 447.726779 
L 491.343089 449.799088 
L 491.977973 448.698974 
L 492.612858 447.982624 
L 493.247742 448.954819 
L 493.882627 449.364163 
L 494.517511 447.777948 
L 495.152396 448.033793 
L 495.78728 447.215104 
L 496.422165 447.445353 
L 497.691934 447.343023 
L 498.326818 449.05715 
L 498.961703 448.90365 
L 499.596587 448.008204 
L 500.231472 447.726779 
L 500.866356 448.468718 
L 501.501241 447.726779 
L 502.136125 449.620001 
L 502.77101 449.261825 
L 503.405894 449.415332 
L 504.040779 448.9804 
L 504.675663 447.982624 
L 505.310548 448.443137 
L 505.945433 449.69675 
L 506.580317 447.931455 
L 507.215202 447.52211 
L 507.850086 448.878062 
L 508.484971 448.443137 
L 509.119855 446.933678 
L 509.75474 448.084962 
L 511.024509 449.440913 
L 511.659393 448.596636 
L 512.294278 447.163935 
L 512.929162 449.875846 
L 513.564047 448.9804 
L 514.198931 449.005988 
L 514.833816 448.008204 
L 515.4687 447.368603 
L 516.103585 449.159487 
L 516.738469 449.005988 
L 517.373354 449.568832 
L 518.008238 449.287406 
L 518.643123 447.061597 
L 519.278007 449.67117 
L 519.912892 448.826893 
L 520.547776 448.750143 
L 521.182661 447.752367 
L 521.817545 448.545475 
L 522.45243 448.9804 
L 523.087314 449.620001 
L 523.722199 449.901426 
L 524.357083 448.750143 
L 524.991968 446.447577 
L 526.261737 448.519887 
L 526.896621 448.187292 
L 527.531506 448.417549 
L 528.166391 450.720115 
L 528.801275 449.031569 
L 529.43616 447.803536 
L 530.071044 449.543251 
L 531.340813 448.878062 
L 531.975698 449.67117 
L 532.610582 448.264049 
L 533.245467 449.159487 
L 533.880351 447.215104 
L 534.515236 448.264049 
L 535.15012 449.875846 
L 535.785005 447.752367 
L 536.419889 448.775731 
L 537.054774 448.468718 
L 537.689658 447.368603 
L 538.324543 449.031569 
L 538.959427 449.338575 
L 539.594312 448.878062 
L 540.229196 447.189516 
L 540.864081 449.185076 
L 541.498965 447.982624 
L 542.768734 447.215104 
L 543.403619 449.185076 
L 544.038503 449.364163 
L 544.673388 447.67561 
L 545.308272 448.750143 
L 545.943157 447.880286 
L 546.578041 448.673394 
L 547.212926 448.28963 
L 547.84781 449.67117 
L 548.482695 451.513223 
L 549.11758 447.394192 
L 550.387349 448.622225 
L 551.022233 448.238461 
L 551.657118 448.008204 
L 552.292002 448.417549 
L 552.926887 447.573279 
L 553.561771 450.771284 
L 554.196656 450.438689 
L 555.466425 449.466501 
L 556.101309 448.545475 
L 556.736194 448.9804 
L 557.371078 449.69675 
L 558.005963 449.978176 
L 558.640847 448.391968 
L 559.275732 448.033793 
L 559.910616 448.596636 
L 560.545501 448.724562 
L 561.180385 447.829117 
L 561.81527 447.854705 
L 562.450154 448.238461 
L 563.085039 449.005988 
L 563.719923 448.698974 
L 564.354808 448.954819 
L 565.624577 449.59442 
L 566.259461 448.28963 
L 566.894346 447.905866 
L 567.52923 449.952595 
L 568.164115 448.878062 
L 568.798999 447.394192 
L 569.433884 448.750143 
L 570.068768 447.419772 
L 570.703653 446.90809 
L 571.338538 448.494306 
L 571.973422 447.343023 
L 572.608307 448.468718 
L 573.243191 448.315218 
L 573.878076 451.155048 
L 574.51296 449.645589 
L 575.147845 448.519887 
L 575.782729 448.264049 
L 576.417614 449.312994 
L 576.417614 449.312994 
" clip-path="url(#p0f744489e2)" style="fill: none; stroke: #ff7f0e; stroke-width: 1.5; stroke-linecap: square"/>
   </g>
   <g id="line2d_33">
    <path d="M 43.78125 551.518125 
L 601.78125 551.518125 
" clip-path="url(#p0f744489e2)" style="fill: none; stroke-dasharray: 11.1,4.8; stroke-dashoffset: 0; stroke: #ff0000; stroke-width: 3"/>
   </g>
   <g id="patch_3">
    <path d="M 43.78125 576.718125 
L 43.78125 22.318125 
" style="fill: none; stroke: #000000; stroke-width: 0.8; stroke-linejoin: miter; stroke-linecap: square"/>
   </g>
   <g id="patch_4">
    <path d="M 601.78125 576.718125 
L 601.78125 22.318125 
" style="fill: none; stroke: #000000; stroke-width: 0.8; stroke-linejoin: miter; stroke-linecap: square"/>
   </g>
   <g id="patch_5">
    <path d="M 43.78125 576.718125 
L 601.78125 576.718125 
" style="fill: none; stroke: #000000; stroke-width: 0.8; stroke-linejoin: miter; stroke-linecap: square"/>
   </g>
   <g id="patch_6">
    <path d="M 43.78125 22.318125 
L 601.78125 22.318125 
" style="fill: none; stroke: #000000; stroke-width: 0.8; stroke-linejoin: miter; stroke-linecap: square"/>
   </g>
   <g id="text_18">
    <!-- Train and Val Accuracy -->
    <g transform="translate(255.002813 16.318125) scale(0.12 -0.12)">
     <defs>
      <path id="DejaVuSans-54" d="M -19 4666 
L 3928 4666 
L 3928 4134 
L 2272 4134 
L 2272 0 
L 1638 0 
L 1638 4134 
L -19 4134 
L -19 4666 
z
" transform="scale(0.015625)"/>
      <path id="DejaVuSans-69" d="M 603 3500 
L 1178 3500 
L 1178 0 
L 603 0 
L 603 3500 
z
M 603 4863 
L 1178 4863 
L 1178 4134 
L 603 4134 
L 603 4863 
z
" transform="scale(0.015625)"/>
      <path id="DejaVuSans-6e" d="M 3513 2113 
L 3513 0 
L 2938 0 
L 2938 2094 
Q 2938 2591 2744 2837 
Q 2550 3084 2163 3084 
Q 1697 3084 1428 2787 
Q 1159 2491 1159 1978 
L 1159 0 
L 581 0 
L 581 3500 
L 1159 3500 
L 1159 2956 
Q 1366 3272 1645 3428 
Q 1925 3584 2291 3584 
Q 2894 3584 3203 3211 
Q 3513 2838 3513 2113 
z
" transform="scale(0.015625)"/>
      <path id="DejaVuSans-20" transform="scale(0.015625)"/>
      <path id="DejaVuSans-64" d="M 2906 2969 
L 2906 4863 
L 3481 4863 
L 3481 0 
L 2906 0 
L 2906 525 
Q 2725 213 2448 61 
Q 2172 -91 1784 -91 
Q 1150 -91 751 415 
Q 353 922 353 1747 
Q 353 2572 751 3078 
Q 1150 3584 1784 3584 
Q 2172 3584 2448 3432 
Q 2725 3281 2906 2969 
z
M 947 1747 
Q 947 1113 1208 752 
Q 1469 391 1925 391 
Q 2381 391 2643 752 
Q 2906 1113 2906 1747 
Q 2906 2381 2643 2742 
Q 2381 3103 1925 3103 
Q 1469 3103 1208 2742 
Q 947 2381 947 1747 
z
" transform="scale(0.015625)"/>
      <path id="DejaVuSans-56" d="M 1831 0 
L 50 4666 
L 709 4666 
L 2188 738 
L 3669 4666 
L 4325 4666 
L 2547 0 
L 1831 0 
z
" transform="scale(0.015625)"/>
      <path id="DejaVuSans-6c" d="M 603 4863 
L 1178 4863 
L 1178 0 
L 603 0 
L 603 4863 
z
" transform="scale(0.015625)"/>
     </defs>
     <use xlink:href="#DejaVuSans-54"/>
     <use xlink:href="#DejaVuSans-72" transform="translate(46.333984 0)"/>
     <use xlink:href="#DejaVuSans-61" transform="translate(87.447266 0)"/>
     <use xlink:href="#DejaVuSans-69" transform="translate(148.726562 0)"/>
     <use xlink:href="#DejaVuSans-6e" transform="translate(176.509766 0)"/>
     <use xlink:href="#DejaVuSans-20" transform="translate(239.888672 0)"/>
     <use xlink:href="#DejaVuSans-61" transform="translate(271.675781 0)"/>
     <use xlink:href="#DejaVuSans-6e" transform="translate(332.955078 0)"/>
     <use xlink:href="#DejaVuSans-64" transform="translate(396.333984 0)"/>
     <use xlink:href="#DejaVuSans-20" transform="translate(459.810547 0)"/>
     <use xlink:href="#DejaVuSans-56" transform="translate(491.597656 0)"/>
     <use xlink:href="#DejaVuSans-61" transform="translate(552.255859 0)"/>
     <use xlink:href="#DejaVuSans-6c" transform="translate(613.535156 0)"/>
     <use xlink:href="#DejaVuSans-20" transform="translate(641.318359 0)"/>
     <use xlink:href="#DejaVuSans-41" transform="translate(673.105469 0)"/>
     <use xlink:href="#DejaVuSans-63" transform="translate(739.763672 0)"/>
     <use xlink:href="#DejaVuSans-63" transform="translate(794.744141 0)"/>
     <use xlink:href="#DejaVuSans-75" transform="translate(849.724609 0)"/>
     <use xlink:href="#DejaVuSans-72" transform="translate(913.103516 0)"/>
     <use xlink:href="#DejaVuSans-61" transform="translate(954.216797 0)"/>
     <use xlink:href="#DejaVuSans-63" transform="translate(1015.496094 0)"/>
     <use xlink:href="#DejaVuSans-79" transform="translate(1070.476562 0)"/>
    </g>
   </g>
   <g id="legend_1">
    <g id="patch_7">
     <path d="M 50.78125 74.90875 
L 217.904687 74.90875 
Q 219.904687 74.90875 219.904687 72.90875 
L 219.904687 29.318125 
Q 219.904687 27.318125 217.904687 27.318125 
L 50.78125 27.318125 
Q 48.78125 27.318125 48.78125 29.318125 
L 48.78125 72.90875 
Q 48.78125 74.90875 50.78125 74.90875 
z
" style="fill: #ffffff; opacity: 0.8; stroke: #cccccc; stroke-linejoin: miter"/>
    </g>
    <g id="line2d_34">
     <path d="M 52.78125 35.416562 
L 62.78125 35.416562 
L 72.78125 35.416562 
" style="fill: none; stroke: #1f77b4; stroke-width: 1.5; stroke-linecap: square"/>
    </g>
    <g id="text_19">
     <!-- train_accuracy -->
     <g transform="translate(80.78125 38.916562) scale(0.1 -0.1)">
      <defs>
       <path id="DejaVuSans-74" d="M 1172 4494 
L 1172 3500 
L 2356 3500 
L 2356 3053 
L 1172 3053 
L 1172 1153 
Q 1172 725 1289 603 
Q 1406 481 1766 481 
L 2356 481 
L 2356 0 
L 1766 0 
Q 1100 0 847 248 
Q 594 497 594 1153 
L 594 3053 
L 172 3053 
L 172 3500 
L 594 3500 
L 594 4494 
L 1172 4494 
z
" transform="scale(0.015625)"/>
       <path id="DejaVuSans-5f" d="M 3263 -1063 
L 3263 -1509 
L -63 -1509 
L -63 -1063 
L 3263 -1063 
z
" transform="scale(0.015625)"/>
      </defs>
      <use xlink:href="#DejaVuSans-74"/>
      <use xlink:href="#DejaVuSans-72" transform="translate(39.208984 0)"/>
      <use xlink:href="#DejaVuSans-61" transform="translate(80.322266 0)"/>
      <use xlink:href="#DejaVuSans-69" transform="translate(141.601562 0)"/>
      <use xlink:href="#DejaVuSans-6e" transform="translate(169.384766 0)"/>
      <use xlink:href="#DejaVuSans-5f" transform="translate(232.763672 0)"/>
      <use xlink:href="#DejaVuSans-61" transform="translate(282.763672 0)"/>
      <use xlink:href="#DejaVuSans-63" transform="translate(344.042969 0)"/>
      <use xlink:href="#DejaVuSans-63" transform="translate(399.023438 0)"/>
      <use xlink:href="#DejaVuSans-75" transform="translate(454.003906 0)"/>
      <use xlink:href="#DejaVuSans-72" transform="translate(517.382812 0)"/>
      <use xlink:href="#DejaVuSans-61" transform="translate(558.496094 0)"/>
      <use xlink:href="#DejaVuSans-63" transform="translate(619.775391 0)"/>
      <use xlink:href="#DejaVuSans-79" transform="translate(674.755859 0)"/>
     </g>
    </g>
    <g id="line2d_35">
     <path d="M 52.78125 50.372812 
L 62.78125 50.372812 
L 72.78125 50.372812 
" style="fill: none; stroke: #ff7f0e; stroke-width: 1.5; stroke-linecap: square"/>
    </g>
    <g id="text_20">
     <!-- val_accuracy -->
     <g transform="translate(80.78125 53.872812) scale(0.1 -0.1)">
      <defs>
       <path id="DejaVuSans-76" d="M 191 3500 
L 800 3500 
L 1894 563 
L 2988 3500 
L 3597 3500 
L 2284 0 
L 1503 0 
L 191 3500 
z
" transform="scale(0.015625)"/>
      </defs>
      <use xlink:href="#DejaVuSans-76"/>
      <use xlink:href="#DejaVuSans-61" transform="translate(59.179688 0)"/>
      <use xlink:href="#DejaVuSans-6c" transform="translate(120.458984 0)"/>
      <use xlink:href="#DejaVuSans-5f" transform="translate(148.242188 0)"/>
      <use xlink:href="#DejaVuSans-61" transform="translate(198.242188 0)"/>
      <use xlink:href="#DejaVuSans-63" transform="translate(259.521484 0)"/>
      <use xlink:href="#DejaVuSans-63" transform="translate(314.501953 0)"/>
      <use xlink:href="#DejaVuSans-75" transform="translate(369.482422 0)"/>
      <use xlink:href="#DejaVuSans-72" transform="translate(432.861328 0)"/>
      <use xlink:href="#DejaVuSans-61" transform="translate(473.974609 0)"/>
      <use xlink:href="#DejaVuSans-63" transform="translate(535.253906 0)"/>
      <use xlink:href="#DejaVuSans-79" transform="translate(590.234375 0)"/>
     </g>
    </g>
    <g id="line2d_36">
     <path d="M 52.78125 65.329062 
L 62.78125 65.329062 
L 72.78125 65.329062 
" style="fill: none; stroke-dasharray: 11.1,4.8; stroke-dashoffset: 0; stroke: #ff0000; stroke-width: 3"/>
    </g>
    <g id="text_21">
     <!-- Random-Guesser Accuracy -->
     <g transform="translate(80.78125 68.829062) scale(0.1 -0.1)">
      <defs>
       <path id="DejaVuSans-52" d="M 2841 2188 
Q 3044 2119 3236 1894 
Q 3428 1669 3622 1275 
L 4263 0 
L 3584 0 
L 2988 1197 
Q 2756 1666 2539 1819 
Q 2322 1972 1947 1972 
L 1259 1972 
L 1259 0 
L 628 0 
L 628 4666 
L 2053 4666 
Q 2853 4666 3247 4331 
Q 3641 3997 3641 3322 
Q 3641 2881 3436 2590 
Q 3231 2300 2841 2188 
z
M 1259 4147 
L 1259 2491 
L 2053 2491 
Q 2509 2491 2742 2702 
Q 2975 2913 2975 3322 
Q 2975 3731 2742 3939 
Q 2509 4147 2053 4147 
L 1259 4147 
z
" transform="scale(0.015625)"/>
       <path id="DejaVuSans-6d" d="M 3328 2828 
Q 3544 3216 3844 3400 
Q 4144 3584 4550 3584 
Q 5097 3584 5394 3201 
Q 5691 2819 5691 2113 
L 5691 0 
L 5113 0 
L 5113 2094 
Q 5113 2597 4934 2840 
Q 4756 3084 4391 3084 
Q 3944 3084 3684 2787 
Q 3425 2491 3425 1978 
L 3425 0 
L 2847 0 
L 2847 2094 
Q 2847 2600 2669 2842 
Q 2491 3084 2119 3084 
Q 1678 3084 1418 2786 
Q 1159 2488 1159 1978 
L 1159 0 
L 581 0 
L 581 3500 
L 1159 3500 
L 1159 2956 
Q 1356 3278 1631 3431 
Q 1906 3584 2284 3584 
Q 2666 3584 2933 3390 
Q 3200 3197 3328 2828 
z
" transform="scale(0.015625)"/>
       <path id="DejaVuSans-2d" d="M 313 2009 
L 1997 2009 
L 1997 1497 
L 313 1497 
L 313 2009 
z
" transform="scale(0.015625)"/>
       <path id="DejaVuSans-47" d="M 3809 666 
L 3809 1919 
L 2778 1919 
L 2778 2438 
L 4434 2438 
L 4434 434 
Q 4069 175 3628 42 
Q 3188 -91 2688 -91 
Q 1594 -91 976 548 
Q 359 1188 359 2328 
Q 359 3472 976 4111 
Q 1594 4750 2688 4750 
Q 3144 4750 3555 4637 
Q 3966 4525 4313 4306 
L 4313 3634 
Q 3963 3931 3569 4081 
Q 3175 4231 2741 4231 
Q 1884 4231 1454 3753 
Q 1025 3275 1025 2328 
Q 1025 1384 1454 906 
Q 1884 428 2741 428 
Q 3075 428 3337 486 
Q 3600 544 3809 666 
z
" transform="scale(0.015625)"/>
       <path id="DejaVuSans-65" d="M 3597 1894 
L 3597 1613 
L 953 1613 
Q 991 1019 1311 708 
Q 1631 397 2203 397 
Q 2534 397 2845 478 
Q 3156 559 3463 722 
L 3463 178 
Q 3153 47 2828 -22 
Q 2503 -91 2169 -91 
Q 1331 -91 842 396 
Q 353 884 353 1716 
Q 353 2575 817 3079 
Q 1281 3584 2069 3584 
Q 2775 3584 3186 3129 
Q 3597 2675 3597 1894 
z
M 3022 2063 
Q 3016 2534 2758 2815 
Q 2500 3097 2075 3097 
Q 1594 3097 1305 2825 
Q 1016 2553 972 2059 
L 3022 2063 
z
" transform="scale(0.015625)"/>
      </defs>
      <use xlink:href="#DejaVuSans-52"/>
      <use xlink:href="#DejaVuSans-61" transform="translate(67.232422 0)"/>
      <use xlink:href="#DejaVuSans-6e" transform="translate(128.511719 0)"/>
      <use xlink:href="#DejaVuSans-64" transform="translate(191.890625 0)"/>
      <use xlink:href="#DejaVuSans-6f" transform="translate(255.367188 0)"/>
      <use xlink:href="#DejaVuSans-6d" transform="translate(316.548828 0)"/>
      <use xlink:href="#DejaVuSans-2d" transform="translate(413.960938 0)"/>
      <use xlink:href="#DejaVuSans-47" transform="translate(453.669922 0)"/>
      <use xlink:href="#DejaVuSans-75" transform="translate(531.160156 0)"/>
      <use xlink:href="#DejaVuSans-65" transform="translate(594.539062 0)"/>
      <use xlink:href="#DejaVuSans-73" transform="translate(656.0625 0)"/>
      <use xlink:href="#DejaVuSans-73" transform="translate(708.162109 0)"/>
      <use xlink:href="#DejaVuSans-65" transform="translate(760.261719 0)"/>
      <use xlink:href="#DejaVuSans-72" transform="translate(821.785156 0)"/>
      <use xlink:href="#DejaVuSans-20" transform="translate(862.898438 0)"/>
      <use xlink:href="#DejaVuSans-41" transform="translate(894.685547 0)"/>
      <use xlink:href="#DejaVuSans-63" transform="translate(961.34375 0)"/>
      <use xlink:href="#DejaVuSans-63" transform="translate(1016.324219 0)"/>
      <use xlink:href="#DejaVuSans-75" transform="translate(1071.304688 0)"/>
      <use xlink:href="#DejaVuSans-72" transform="translate(1134.683594 0)"/>
      <use xlink:href="#DejaVuSans-61" transform="translate(1175.796875 0)"/>
      <use xlink:href="#DejaVuSans-63" transform="translate(1237.076172 0)"/>
      <use xlink:href="#DejaVuSans-79" transform="translate(1292.056641 0)"/>
     </g>
    </g>
   </g>
  </g>
 </g>
 <defs>
  <clipPath id="p0f744489e2">
   <rect x="43.78125" y="22.318125" width="558" height="554.4"/>
  </clipPath>
 </defs>
</svg>
