<?xml version="1.0" encoding="utf-8" standalone="no"?>
<!DOCTYPE svg PUBLIC "-//W3C//DTD SVG 1.1//EN"
  "http://www.w3.org/Graphics/SVG/1.1/DTD/svg11.dtd">
<svg xmlns:xlink="http://www.w3.org/1999/xlink" width="605.803125pt" height="614.274375pt" viewBox="0 0 605.803125 614.274375" xmlns="http://www.w3.org/2000/svg" version="1.1">
 <metadata>
  <rdf:RDF xmlns:dc="http://purl.org/dc/elements/1.1/" xmlns:cc="http://creativecommons.org/ns#" xmlns:rdf="http://www.w3.org/1999/02/22-rdf-syntax-ns#">
   <cc:Work>
    <dc:type rdf:resource="http://purl.org/dc/dcmitype/StillImage"/>
    <dc:date>2026-05-24T07:23:57.207186</dc:date>
    <dc:format>image/svg+xml</dc:format>
    <dc:creator>
     <cc:Agent>
      <dc:title>Matplotlib v3.10.9, https://matplotlib.org/</dc:title>
     </cc:Agent>
    </dc:creator>
   </cc:Work>
  </rdf:RDF>
 </metadata>
 <defs>
  <style type="text/css">*{stroke-linejoin: round; stroke-linecap: butt}</style>
 </defs>
 <g id="figure_1">
  <g id="patch_1">
   <path d="M 0 614.274375 
L 605.803125 614.274375 
L 605.803125 0 
L 0 0 
z
" style="fill: #ffffff"/>
  </g>
  <g id="axes_1">
   <g id="patch_2">
    <path d="M 40.603125 576.718125 
L 598.603125 576.718125 
L 598.603125 22.318125 
L 40.603125 22.318125 
z
" style="fill: #ffffff"/>
   </g>
   <g id="matplotlib.axis_1">
    <g id="xtick_1">
     <g id="line2d_1">
      <path d="M 65.966761 576.718125 
L 65.966761 22.318125 
" clip-path="url(#p13a8c7f42f)" style="fill: none; stroke: #b0b0b0; stroke-width: 0.8; stroke-linecap: square"/>
     </g>
     <g id="line2d_2">
      <defs>
       <path id="m35bf25e5cf" d="M 0 0 
L 0 3.5 
" style="stroke: #000000; stroke-width: 0.8"/>
      </defs>
      <g>
       <use xlink:href="#m35bf25e5cf" x="65.966761" y="576.718125" style="stroke: #000000; stroke-width: 0.8"/>
      </g>
     </g>
     <g id="text_1">
      <!-- 0 -->
      <g transform="translate(62.785511 591.316563) scale(0.1 -0.1)">
       <defs>
        <path id="DejaVuSans-30" d="M 2034 4250 
Q 1547 4250 1301 3770 
Q 1056 3291 1056 2328 
Q 1056 1369 1301 889 
Q 1547 409 2034 409 
Q 2525 409 2770 889 
Q 3016 1369 3016 2328 
Q 3016 3291 2770 3770 
Q 2525 4250 2034 4250 
z
M 2034 4750 
Q 2819 4750 3233 4129 
Q 3647 3509 3647 2328 
Q 3647 1150 3233 529 
Q 2819 -91 2034 -91 
Q 1250 -91 836 529 
Q 422 1150 422 2328 
Q 422 3509 836 4129 
Q 1250 4750 2034 4750 
z
" transform="scale(0.015625)"/>
       </defs>
       <use xlink:href="#DejaVuSans-30"/>
      </g>
     </g>
    </g>
    <g id="xtick_2">
     <g id="line2d_3">
      <path d="M 129.455213 576.718125 
L 129.455213 22.318125 
" clip-path="url(#p13a8c7f42f)" style="fill: none; stroke: #b0b0b0; stroke-width: 0.8; stroke-linecap: square"/>
     </g>
     <g id="line2d_4">
      <g>
       <use xlink:href="#m35bf25e5cf" x="129.455213" y="576.718125" style="stroke: #000000; stroke-width: 0.8"/>
      </g>
     </g>
     <g id="text_2">
      <!-- 100 -->
      <g transform="translate(119.911463 591.316563) scale(0.1 -0.1)">
       <defs>
        <path id="DejaVuSans-31" d="M 794 531 
L 1825 531 
L 1825 4091 
L 703 3866 
L 703 4441 
L 1819 4666 
L 2450 4666 
L 2450 531 
L 3481 531 
L 3481 0 
L 794 0 
L 794 531 
z
" transform="scale(0.015625)"/>
       </defs>
       <use xlink:href="#DejaVuSans-31"/>
       <use xlink:href="#DejaVuSans-30" transform="translate(63.623047 0)"/>
       <use xlink:href="#DejaVuSans-30" transform="translate(127.246094 0)"/>
      </g>
     </g>
    </g>
    <g id="xtick_3">
     <g id="line2d_5">
      <path d="M 192.943664 576.718125 
L 192.943664 22.318125 
" clip-path="url(#p13a8c7f42f)" style="fill: none; stroke: #b0b0b0; stroke-width: 0.8; stroke-linecap: square"/>
     </g>
     <g id="line2d_6">
      <g>
       <use xlink:href="#m35bf25e5cf" x="192.943664" y="576.718125" style="stroke: #000000; stroke-width: 0.8"/>
      </g>
     </g>
     <g id="text_3">
      <!-- 200 -->
      <g transform="translate(183.399914 591.316563) scale(0.1 -0.1)">
       <defs>
        <path id="DejaVuSans-32" d="M 1228 531 
L 3431 531 
L 3431 0 
L 469 0 
L 469 531 
Q 828 903 1448 1529 
Q 2069 2156 2228 2338 
Q 2531 2678 2651 2914 
Q 2772 3150 2772 3378 
Q 2772 3750 2511 3984 
Q 2250 4219 1831 4219 
Q 1534 4219 1204 4116 
Q 875 4013 500 3803 
L 500 4441 
Q 881 4594 1212 4672 
Q 1544 4750 1819 4750 
Q 2544 4750 2975 4387 
Q 3406 4025 3406 3419 
Q 3406 3131 3298 2873 
Q 3191 2616 2906 2266 
Q 2828 2175 2409 1742 
Q 1991 1309 1228 531 
z
" transform="scale(0.015625)"/>
       </defs>
       <use xlink:href="#DejaVuSans-32"/>
       <use xlink:href="#DejaVuSans-30" transform="translate(63.623047 0)"/>
       <use xlink:href="#DejaVuSans-30" transform="translate(127.246094 0)"/>
      </g>
     </g>
    </g>
    <g id="xtick_4">
     <g id="line2d_7">
      <path d="M 256.432116 576.718125 
L 256.432116 22.318125 
" clip-path="url(#p13a8c7f42f)" style="fill: none; stroke: #b0b0b0; stroke-width: 0.8; stroke-linecap: square"/>
     </g>
     <g id="line2d_8">
      <g>
       <use xlink:href="#m35bf25e5cf" x="256.432116" y="576.718125" style="stroke: #000000; stroke-width: 0.8"/>
      </g>
     </g>
     <g id="text_4">
      <!-- 300 -->
      <g transform="translate(246.888366 591.316563) scale(0.1 -0.1)">
       <defs>
        <path id="DejaVuSans-33" d="M 2597 2516 
Q 3050 2419 3304 2112 
Q 3559 1806 3559 1356 
Q 3559 666 3084 287 
Q 2609 -91 1734 -91 
Q 1441 -91 1130 -33 
Q 819 25 488 141 
L 488 750 
Q 750 597 1062 519 
Q 1375 441 1716 441 
Q 2309 441 2620 675 
Q 2931 909 2931 1356 
Q 2931 1769 2642 2001 
Q 2353 2234 1838 2234 
L 1294 2234 
L 1294 2753 
L 1863 2753 
Q 2328 2753 2575 2939 
Q 2822 3125 2822 3475 
Q 2822 3834 2567 4026 
Q 2313 4219 1838 4219 
Q 1578 4219 1281 4162 
Q 984 4106 628 3988 
L 628 4550 
Q 988 4650 1302 4700 
Q 1616 4750 1894 4750 
Q 2613 4750 3031 4423 
Q 3450 4097 3450 3541 
Q 3450 3153 3228 2886 
Q 3006 2619 2597 2516 
z
" transform="scale(0.015625)"/>
       </defs>
       <use xlink:href="#DejaVuSans-33"/>
       <use xlink:href="#DejaVuSans-30" transform="translate(63.623047 0)"/>
       <use xlink:href="#DejaVuSans-30" transform="translate(127.246094 0)"/>
      </g>
     </g>
    </g>
    <g id="xtick_5">
     <g id="line2d_9">
      <path d="M 319.920567 576.718125 
L 319.920567 22.318125 
" clip-path="url(#p13a8c7f42f)" style="fill: none; stroke: #b0b0b0; stroke-width: 0.8; stroke-linecap: square"/>
     </g>
     <g id="line2d_10">
      <g>
       <use xlink:href="#m35bf25e5cf" x="319.920567" y="576.718125" style="stroke: #000000; stroke-width: 0.8"/>
      </g>
     </g>
     <g id="text_5">
      <!-- 400 -->
      <g transform="translate(310.376817 591.316563) scale(0.1 -0.1)">
       <defs>
        <path id="DejaVuSans-34" d="M 2419 4116 
L 825 1625 
L 2419 1625 
L 2419 4116 
z
M 2253 4666 
L 3047 4666 
L 3047 1625 
L 3713 1625 
L 3713 1100 
L 3047 1100 
L 3047 0 
L 2419 0 
L 2419 1100 
L 313 1100 
L 313 1709 
L 2253 4666 
z
" transform="scale(0.015625)"/>
       </defs>
       <use xlink:href="#DejaVuSans-34"/>
       <use xlink:href="#DejaVuSans-30" transform="translate(63.623047 0)"/>
       <use xlink:href="#DejaVuSans-30" transform="translate(127.246094 0)"/>
      </g>
     </g>
    </g>
    <g id="xtick_6">
     <g id="line2d_11">
      <path d="M 383.409019 576.718125 
L 383.409019 22.318125 
" clip-path="url(#p13a8c7f42f)" style="fill: none; stroke: #b0b0b0; stroke-width: 0.8; stroke-linecap: square"/>
     </g>
     <g id="line2d_12">
      <g>
       <use xlink:href="#m35bf25e5cf" x="383.409019" y="576.718125" style="stroke: #000000; stroke-width: 0.8"/>
      </g>
     </g>
     <g id="text_6">
      <!-- 500 -->
      <g transform="translate(373.865269 591.316563) scale(0.1 -0.1)">
       <defs>
        <path id="DejaVuSans-35" d="M 691 4666 
L 3169 4666 
L 3169 4134 
L 1269 4134 
L 1269 2991 
Q 1406 3038 1543 3061 
Q 1681 3084 1819 3084 
Q 2600 3084 3056 2656 
Q 3513 2228 3513 1497 
Q 3513 744 3044 326 
Q 2575 -91 1722 -91 
Q 1428 -91 1123 -41 
Q 819 9 494 109 
L 494 744 
Q 775 591 1075 516 
Q 1375 441 1709 441 
Q 2250 441 2565 725 
Q 2881 1009 2881 1497 
Q 2881 1984 2565 2268 
Q 2250 2553 1709 2553 
Q 1456 2553 1204 2497 
Q 953 2441 691 2322 
L 691 4666 
z
" transform="scale(0.015625)"/>
       </defs>
       <use xlink:href="#DejaVuSans-35"/>
       <use xlink:href="#DejaVuSans-30" transform="translate(63.623047 0)"/>
       <use xlink:href="#DejaVuSans-30" transform="translate(127.246094 0)"/>
      </g>
     </g>
    </g>
    <g id="xtick_7">
     <g id="line2d_13">
      <path d="M 446.89747 576.718125 
L 446.89747 22.318125 
" clip-path="url(#p13a8c7f42f)" style="fill: none; stroke: #b0b0b0; stroke-width: 0.8; stroke-linecap: square"/>
     </g>
     <g id="line2d_14">
      <g>
       <use xlink:href="#m35bf25e5cf" x="446.89747" y="576.718125" style="stroke: #000000; stroke-width: 0.8"/>
      </g>
     </g>
     <g id="text_7">
      <!-- 600 -->
      <g transform="translate(437.35372 591.316563) scale(0.1 -0.1)">
       <defs>
        <path id="DejaVuSans-36" d="M 2113 2584 
Q 1688 2584 1439 2293 
Q 1191 2003 1191 1497 
Q 1191 994 1439 701 
Q 1688 409 2113 409 
Q 2538 409 2786 701 
Q 3034 994 3034 1497 
Q 3034 2003 2786 2293 
Q 2538 2584 2113 2584 
z
M 3366 4563 
L 3366 3988 
Q 3128 4100 2886 4159 
Q 2644 4219 2406 4219 
Q 1781 4219 1451 3797 
Q 1122 3375 1075 2522 
Q 1259 2794 1537 2939 
Q 1816 3084 2150 3084 
Q 2853 3084 3261 2657 
Q 3669 2231 3669 1497 
Q 3669 778 3244 343 
Q 2819 -91 2113 -91 
Q 1303 -91 875 529 
Q 447 1150 447 2328 
Q 447 3434 972 4092 
Q 1497 4750 2381 4750 
Q 2619 4750 2861 4703 
Q 3103 4656 3366 4563 
z
" transform="scale(0.015625)"/>
       </defs>
       <use xlink:href="#DejaVuSans-36"/>
       <use xlink:href="#DejaVuSans-30" transform="translate(63.623047 0)"/>
       <use xlink:href="#DejaVuSans-30" transform="translate(127.246094 0)"/>
      </g>
     </g>
    </g>
    <g id="xtick_8">
     <g id="line2d_15">
      <path d="M 510.385922 576.718125 
L 510.385922 22.318125 
" clip-path="url(#p13a8c7f42f)" style="fill: none; stroke: #b0b0b0; stroke-width: 0.8; stroke-linecap: square"/>
     </g>
     <g id="line2d_16">
      <g>
       <use xlink:href="#m35bf25e5cf" x="510.385922" y="576.718125" style="stroke: #000000; stroke-width: 0.8"/>
      </g>
     </g>
     <g id="text_8">
      <!-- 700 -->
      <g transform="translate(500.842172 591.316563) scale(0.1 -0.1)">
       <defs>
        <path id="DejaVuSans-37" d="M 525 4666 
L 3525 4666 
L 3525 4397 
L 1831 0 
L 1172 0 
L 2766 4134 
L 525 4134 
L 525 4666 
z
" transform="scale(0.015625)"/>
       </defs>
       <use xlink:href="#DejaVuSans-37"/>
       <use xlink:href="#DejaVuSans-30" transform="translate(63.623047 0)"/>
       <use xlink:href="#DejaVuSans-30" transform="translate(127.246094 0)"/>
      </g>
     </g>
    </g>
    <g id="xtick_9">
     <g id="line2d_17">
      <path d="M 573.874373 576.718125 
L 573.874373 22.318125 
" clip-path="url(#p13a8c7f42f)" style="fill: none; stroke: #b0b0b0; stroke-width: 0.8; stroke-linecap: square"/>
     </g>
     <g id="line2d_18">
      <g>
       <use xlink:href="#m35bf25e5cf" x="573.874373" y="576.718125" style="stroke: #000000; stroke-width: 0.8"/>
      </g>
     </g>
     <g id="text_9">
      <!-- 800 -->
      <g transform="translate(564.330623 591.316563) scale(0.1 -0.1)">
       <defs>
        <path id="DejaVuSans-38" d="M 2034 2216 
Q 1584 2216 1326 1975 
Q 1069 1734 1069 1313 
Q 1069 891 1326 650 
Q 1584 409 2034 409 
Q 2484 409 2743 651 
Q 3003 894 3003 1313 
Q 3003 1734 2745 1975 
Q 2488 2216 2034 2216 
z
M 1403 2484 
Q 997 2584 770 2862 
Q 544 3141 544 3541 
Q 544 4100 942 4425 
Q 1341 4750 2034 4750 
Q 2731 4750 3128 4425 
Q 3525 4100 3525 3541 
Q 3525 3141 3298 2862 
Q 3072 2584 2669 2484 
Q 3125 2378 3379 2068 
Q 3634 1759 3634 1313 
Q 3634 634 3220 271 
Q 2806 -91 2034 -91 
Q 1263 -91 848 271 
Q 434 634 434 1313 
Q 434 1759 690 2068 
Q 947 2378 1403 2484 
z
M 1172 3481 
Q 1172 3119 1398 2916 
Q 1625 2713 2034 2713 
Q 2441 2713 2670 2916 
Q 2900 3119 2900 3481 
Q 2900 3844 2670 4047 
Q 2441 4250 2034 4250 
Q 1625 4250 1398 4047 
Q 1172 3844 1172 3481 
z
" transform="scale(0.015625)"/>
       </defs>
       <use xlink:href="#DejaVuSans-38"/>
       <use xlink:href="#DejaVuSans-30" transform="translate(63.623047 0)"/>
       <use xlink:href="#DejaVuSans-30" transform="translate(127.246094 0)"/>
      </g>
     </g>
    </g>
    <g id="text_10">
     <!-- Epochs -->
     <g transform="translate(301.6875 604.994688) scale(0.1 -0.1)">
      <defs>
       <path id="DejaVuSans-45" d="M 628 4666 
L 3578 4666 
L 3578 4134 
L 1259 4134 
L 1259 2753 
L 3481 2753 
L 3481 2222 
L 1259 2222 
L 1259 531 
L 3634 531 
L 3634 0 
L 628 0 
L 628 4666 
z
" transform="scale(0.015625)"/>
       <path id="DejaVuSans-70" d="M 1159 525 
L 1159 -1331 
L 581 -1331 
L 581 3500 
L 1159 3500 
L 1159 2969 
Q 1341 3281 1617 3432 
Q 1894 3584 2278 3584 
Q 2916 3584 3314 3078 
Q 3713 2572 3713 1747 
Q 3713 922 3314 415 
Q 2916 -91 2278 -91 
Q 1894 -91 1617 61 
Q 1341 213 1159 525 
z
M 3116 1747 
Q 3116 2381 2855 2742 
Q 2594 3103 2138 3103 
Q 1681 3103 1420 2742 
Q 1159 2381 1159 1747 
Q 1159 1113 1420 752 
Q 1681 391 2138 391 
Q 2594 391 2855 752 
Q 3116 1113 3116 1747 
z
" transform="scale(0.015625)"/>
       <path id="DejaVuSans-6f" d="M 1959 3097 
Q 1497 3097 1228 2736 
Q 959 2375 959 1747 
Q 959 1119 1226 758 
Q 1494 397 1959 397 
Q 2419 397 2687 759 
Q 2956 1122 2956 1747 
Q 2956 2369 2687 2733 
Q 2419 3097 1959 3097 
z
M 1959 3584 
Q 2709 3584 3137 3096 
Q 3566 2609 3566 1747 
Q 3566 888 3137 398 
Q 2709 -91 1959 -91 
Q 1206 -91 779 398 
Q 353 888 353 1747 
Q 353 2609 779 3096 
Q 1206 3584 1959 3584 
z
" transform="scale(0.015625)"/>
       <path id="DejaVuSans-63" d="M 3122 3366 
L 3122 2828 
Q 2878 2963 2633 3030 
Q 2388 3097 2138 3097 
Q 1578 3097 1268 2742 
Q 959 2388 959 1747 
Q 959 1106 1268 751 
Q 1578 397 2138 397 
Q 2388 397 2633 464 
Q 2878 531 3122 666 
L 3122 134 
Q 2881 22 2623 -34 
Q 2366 -91 2075 -91 
Q 1284 -91 818 406 
Q 353 903 353 1747 
Q 353 2603 823 3093 
Q 1294 3584 2113 3584 
Q 2378 3584 2631 3529 
Q 2884 3475 3122 3366 
z
" transform="scale(0.015625)"/>
       <path id="DejaVuSans-68" d="M 3513 2113 
L 3513 0 
L 2938 0 
L 2938 2094 
Q 2938 2591 2744 2837 
Q 2550 3084 2163 3084 
Q 1697 3084 1428 2787 
Q 1159 2491 1159 1978 
L 1159 0 
L 581 0 
L 581 4863 
L 1159 4863 
L 1159 2956 
Q 1366 3272 1645 3428 
Q 1925 3584 2291 3584 
Q 2894 3584 3203 3211 
Q 3513 2838 3513 2113 
z
" transform="scale(0.015625)"/>
       <path id="DejaVuSans-73" d="M 2834 3397 
L 2834 2853 
Q 2591 2978 2328 3040 
Q 2066 3103 1784 3103 
Q 1356 3103 1142 2972 
Q 928 2841 928 2578 
Q 928 2378 1081 2264 
Q 1234 2150 1697 2047 
L 1894 2003 
Q 2506 1872 2764 1633 
Q 3022 1394 3022 966 
Q 3022 478 2636 193 
Q 2250 -91 1575 -91 
Q 1294 -91 989 -36 
Q 684 19 347 128 
L 347 722 
Q 666 556 975 473 
Q 1284 391 1588 391 
Q 1994 391 2212 530 
Q 2431 669 2431 922 
Q 2431 1156 2273 1281 
Q 2116 1406 1581 1522 
L 1381 1569 
Q 847 1681 609 1914 
Q 372 2147 372 2553 
Q 372 3047 722 3315 
Q 1072 3584 1716 3584 
Q 2034 3584 2315 3537 
Q 2597 3491 2834 3397 
z
" transform="scale(0.015625)"/>
      </defs>
      <use xlink:href="#DejaVuSans-45"/>
      <use xlink:href="#DejaVuSans-70" transform="translate(63.183594 0)"/>
      <use xlink:href="#DejaVuSans-6f" transform="translate(126.660156 0)"/>
      <use xlink:href="#DejaVuSans-63" transform="translate(187.841797 0)"/>
      <use xlink:href="#DejaVuSans-68" transform="translate(242.822266 0)"/>
      <use xlink:href="#DejaVuSans-73" transform="translate(306.201172 0)"/>
     </g>
    </g>
   </g>
   <g id="matplotlib.axis_2">
    <g id="ytick_1">
     <g id="line2d_19">
      <path d="M 40.603125 551.933541 
L 598.603125 551.933541 
" clip-path="url(#p13a8c7f42f)" style="fill: none; stroke: #b0b0b0; stroke-width: 0.8; stroke-linecap: square"/>
     </g>
     <g id="line2d_20">
      <defs>
       <path id="m9ecbc2e7bd" d="M 0 0 
L -3.5 0 
" style="stroke: #000000; stroke-width: 0.8"/>
      </defs>
      <g>
       <use xlink:href="#m9ecbc2e7bd" x="40.603125" y="551.933541" style="stroke: #000000; stroke-width: 0.8"/>
      </g>
     </g>
     <g id="text_11">
      <!-- 0 -->
      <g transform="translate(27.240625 555.73276) scale(0.1 -0.1)">
       <use xlink:href="#DejaVuSans-30"/>
      </g>
     </g>
    </g>
    <g id="ytick_2">
     <g id="line2d_21">
      <path d="M 40.603125 440.589728 
L 598.603125 440.589728 
" clip-path="url(#p13a8c7f42f)" style="fill: none; stroke: #b0b0b0; stroke-width: 0.8; stroke-linecap: square"/>
     </g>
     <g id="line2d_22">
      <g>
       <use xlink:href="#m9ecbc2e7bd" x="40.603125" y="440.589728" style="stroke: #000000; stroke-width: 0.8"/>
      </g>
     </g>
     <g id="text_12">
      <!-- 10 -->
      <g transform="translate(20.878125 444.388946) scale(0.1 -0.1)">
       <use xlink:href="#DejaVuSans-31"/>
       <use xlink:href="#DejaVuSans-30" transform="translate(63.623047 0)"/>
      </g>
     </g>
    </g>
    <g id="ytick_3">
     <g id="line2d_23">
      <path d="M 40.603125 329.245914 
L 598.603125 329.245914 
" clip-path="url(#p13a8c7f42f)" style="fill: none; stroke: #b0b0b0; stroke-width: 0.8; stroke-linecap: square"/>
     </g>
     <g id="line2d_24">
      <g>
       <use xlink:href="#m9ecbc2e7bd" x="40.603125" y="329.245914" style="stroke: #000000; stroke-width: 0.8"/>
      </g>
     </g>
     <g id="text_13">
      <!-- 20 -->
      <g transform="translate(20.878125 333.045132) scale(0.1 -0.1)">
       <use xlink:href="#DejaVuSans-32"/>
       <use xlink:href="#DejaVuSans-30" transform="translate(63.623047 0)"/>
      </g>
     </g>
    </g>
    <g id="ytick_4">
     <g id="line2d_25">
      <path d="M 40.603125 217.9021 
L 598.603125 217.9021 
" clip-path="url(#p13a8c7f42f)" style="fill: none; stroke: #b0b0b0; stroke-width: 0.8; stroke-linecap: square"/>
     </g>
     <g id="line2d_26">
      <g>
       <use xlink:href="#m9ecbc2e7bd" x="40.603125" y="217.9021" style="stroke: #000000; stroke-width: 0.8"/>
      </g>
     </g>
     <g id="text_14">
      <!-- 30 -->
      <g transform="translate(20.878125 221.701319) scale(0.1 -0.1)">
       <use xlink:href="#DejaVuSans-33"/>
       <use xlink:href="#DejaVuSans-30" transform="translate(63.623047 0)"/>
      </g>
     </g>
    </g>
    <g id="ytick_5">
     <g id="line2d_27">
      <path d="M 40.603125 106.558286 
L 598.603125 106.558286 
" clip-path="url(#p13a8c7f42f)" style="fill: none; stroke: #b0b0b0; stroke-width: 0.8; stroke-linecap: square"/>
     </g>
     <g id="line2d_28">
      <g>
       <use xlink:href="#m9ecbc2e7bd" x="40.603125" y="106.558286" style="stroke: #000000; stroke-width: 0.8"/>
      </g>
     </g>
     <g id="text_15">
      <!-- 40 -->
      <g transform="translate(20.878125 110.357505) scale(0.1 -0.1)">
       <use xlink:href="#DejaVuSans-34"/>
       <use xlink:href="#DejaVuSans-30" transform="translate(63.623047 0)"/>
      </g>
     </g>
    </g>
    <g id="text_16">
     <!-- Loss -->
     <g transform="translate(14.798437 310.485313) rotate(-90) scale(0.1 -0.1)">
      <defs>
       <path id="DejaVuSans-4c" d="M 628 4666 
L 1259 4666 
L 1259 531 
L 3531 531 
L 3531 0 
L 628 0 
L 628 4666 
z
" transform="scale(0.015625)"/>
      </defs>
      <use xlink:href="#DejaVuSans-4c"/>
      <use xlink:href="#DejaVuSans-6f" transform="translate(53.962891 0)"/>
      <use xlink:href="#DejaVuSans-73" transform="translate(115.144531 0)"/>
      <use xlink:href="#DejaVuSans-73" transform="translate(167.244141 0)"/>
     </g>
    </g>
   </g>
   <g id="line2d_29">
    <path d="M 65.966761 531.768869 
L 66.601646 532.272688 
L 80.569105 533.248627 
L 90.092373 534.230611 
L 103.424948 535.805007 
L 156.120362 541.951736 
L 203.736701 546.61579 
L 221.513467 547.937813 
L 239.290234 548.95046 
L 261.511192 549.855137 
L 271.669344 550.166604 
L 317.381029 550.984393 
L 327.539181 551.080613 
L 339.601987 551.173048 
L 354.839216 551.257559 
L 388.488095 551.381625 
L 393.567171 551.377801 
L 398.011363 551.391419 
L 472.292851 551.474744 
L 480.546349 551.475994 
L 483.085888 551.48868 
L 498.323116 551.489763 
L 516.734767 551.478022 
L 521.178958 551.498457 
L 573.239489 551.490839 
L 573.239489 551.490839 
" clip-path="url(#p13a8c7f42f)" style="fill: none; stroke: #1f77b4; stroke-width: 1.5; stroke-linecap: square"/>
   </g>
   <g id="line2d_30">
    <path d="M 65.966761 532.194279 
L 69.776068 532.229679 
L 83.108643 531.957456 
L 91.997026 531.257846 
L 93.266795 531.111717 
L 102.155179 529.994232 
L 102.790063 529.832045 
L 104.059832 529.740144 
L 107.234255 529.143316 
L 107.869139 529.11475 
L 109.138908 528.839885 
L 111.043562 528.549743 
L 111.678446 528.357237 
L 112.948215 528.200602 
L 114.217984 527.8357 
L 119.931945 526.783957 
L 121.201714 526.335489 
L 123.741252 525.809111 
L 124.376137 525.537127 
L 125.011021 525.498326 
L 131.359866 523.718672 
L 131.994751 523.305403 
L 132.629635 523.306685 
L 133.26452 523.191367 
L 133.899404 522.840705 
L 135.804058 522.39508 
L 136.438942 522.166526 
L 137.073827 521.816925 
L 140.883134 520.486835 
L 142.152903 520.012737 
L 142.787788 519.944815 
L 143.422672 519.732096 
L 144.057557 519.180896 
L 144.692441 519.058581 
L 145.327326 518.59593 
L 145.96221 518.335268 
L 146.597095 518.219358 
L 147.231979 517.856155 
L 147.866864 517.677742 
L 149.136633 517.00098 
L 149.771517 516.846159 
L 150.406402 516.447309 
L 151.041286 516.302748 
L 151.676171 515.951443 
L 152.311055 515.415593 
L 152.94594 515.278414 
L 154.850593 514.151844 
L 155.485478 514.102524 
L 156.120362 513.709936 
L 156.755247 513.006995 
L 158.025016 512.662247 
L 159.294785 512.013988 
L 159.92967 511.294312 
L 161.834323 510.434045 
L 162.469208 509.849193 
L 163.104092 509.698598 
L 164.373861 508.750622 
L 165.008746 508.044519 
L 165.64363 507.987685 
L 166.278515 507.464901 
L 166.913399 506.526854 
L 167.548284 506.70687 
L 168.183168 506.171248 
L 168.818053 505.36618 
L 169.452937 505.022016 
L 170.087822 504.929146 
L 170.722706 504.070321 
L 171.357591 504.038449 
L 171.992475 503.631068 
L 172.62736 502.805214 
L 173.262244 502.915073 
L 173.897129 501.844318 
L 174.532013 501.53992 
L 175.166898 500.641201 
L 177.071551 499.085065 
L 177.706436 498.380327 
L 178.34132 498.524638 
L 178.976205 496.995203 
L 179.61109 497.098516 
L 180.880859 495.612585 
L 181.515743 495.172774 
L 182.785512 493.886419 
L 183.420397 492.833794 
L 184.055281 492.382723 
L 184.690166 492.164086 
L 185.32505 491.429254 
L 185.959935 491.266344 
L 186.594819 489.692916 
L 187.229704 489.729407 
L 187.864588 488.632306 
L 189.134357 487.77183 
L 189.769242 486.164199 
L 190.404126 486.268346 
L 191.039011 485.611184 
L 191.673895 484.587511 
L 192.30878 483.858849 
L 192.943664 482.606298 
L 193.578549 482.462023 
L 194.213433 481.377511 
L 194.848318 480.714843 
L 195.483202 479.639346 
L 196.118087 479.535921 
L 196.752971 478.328106 
L 197.387856 478.244049 
L 198.02274 476.236109 
L 198.657625 476.257346 
L 199.292509 475.165985 
L 199.927394 474.512263 
L 201.197163 472.351453 
L 201.832048 471.913081 
L 202.466932 470.882511 
L 203.101817 470.155648 
L 203.736701 469.150494 
L 204.371586 468.821717 
L 205.641355 466.541511 
L 206.276239 465.844115 
L 206.911124 464.79347 
L 207.546008 464.416113 
L 208.180893 461.698942 
L 208.815777 461.799935 
L 209.450662 460.772418 
L 210.085546 459.376076 
L 210.720431 459.323705 
L 211.355315 458.210135 
L 211.9902 456.851574 
L 212.625084 456.501809 
L 213.259969 454.453273 
L 213.894853 454.547981 
L 214.529738 452.611715 
L 215.164622 452.195404 
L 215.799507 451.409258 
L 216.434391 449.525501 
L 217.069276 449.02852 
L 217.70416 447.374285 
L 218.339045 446.927179 
L 218.973929 445.130346 
L 220.243698 444.410025 
L 220.878583 442.15893 
L 221.513467 442.220602 
L 222.148352 440.572207 
L 222.783237 439.951254 
L 223.418121 438.57153 
L 224.053006 436.900347 
L 224.68789 436.005413 
L 225.322775 435.434421 
L 225.957659 434.230232 
L 226.592544 432.751468 
L 227.227428 430.531061 
L 227.862313 430.014085 
L 228.497197 430.330688 
L 229.132082 427.406121 
L 229.766966 425.371082 
L 230.401851 426.382044 
L 231.67162 423.809164 
L 232.306504 423.78077 
L 232.941389 422.757713 
L 234.211158 418.370692 
L 234.846042 418.076366 
L 235.480927 416.290449 
L 237.38558 412.876907 
L 238.020465 411.746974 
L 238.655349 409.101133 
L 239.925118 409.407108 
L 241.194887 405.77563 
L 241.829772 405.11267 
L 242.464656 404.622124 
L 243.099541 402.301604 
L 243.734425 400.974803 
L 244.36931 401.466506 
L 246.273964 395.03868 
L 246.908848 393.242655 
L 247.543733 394.805539 
L 248.178617 391.883435 
L 248.813502 389.857921 
L 249.448386 388.91583 
L 250.083271 387.242014 
L 250.718155 387.588243 
L 251.987924 385.321252 
L 252.622809 385.237588 
L 253.257693 382.511546 
L 253.892578 380.282017 
L 254.527462 379.909432 
L 255.162347 378.387578 
L 255.797231 377.801911 
L 256.432116 376.784535 
L 257.067 374.853367 
L 257.701885 374.29071 
L 258.336769 373.172659 
L 258.971654 373.734466 
L 259.606538 370.118481 
L 260.241423 370.02971 
L 260.876307 366.598424 
L 261.511192 366.597128 
L 262.146076 365.794385 
L 262.780961 364.738793 
L 263.415845 361.706341 
L 264.05073 361.644498 
L 264.685614 361.168744 
L 265.320499 360.370227 
L 265.955384 357.182574 
L 266.590268 356.62941 
L 267.225153 355.747898 
L 267.860037 356.256868 
L 268.494922 354.431917 
L 269.129806 353.873401 
L 269.764691 351.968323 
L 270.399575 349.189719 
L 271.03446 349.012941 
L 271.669344 347.893615 
L 272.304229 346.293163 
L 272.939113 344.03593 
L 273.573998 343.86204 
L 274.208882 342.021162 
L 274.843767 341.729024 
L 275.478651 340.028141 
L 276.113536 339.328504 
L 277.383305 335.083836 
L 278.018189 334.464879 
L 278.653074 333.571751 
L 279.287958 331.096837 
L 279.922843 331.583062 
L 280.557727 329.773742 
L 281.192612 331.158446 
L 281.827496 330.190032 
L 282.462381 327.272855 
L 283.73215 324.651554 
L 284.367034 325.022652 
L 285.001919 323.019501 
L 285.636803 320.449126 
L 286.271688 319.947611 
L 286.906572 318.188241 
L 287.541457 318.135318 
L 288.176342 315.224193 
L 288.811226 315.279007 
L 289.446111 315.124697 
L 290.080995 315.612748 
L 290.71588 310.108016 
L 291.350764 314.034085 
L 291.985649 309.918921 
L 292.620533 308.942989 
L 293.255418 308.673362 
L 293.890302 307.805527 
L 294.525187 304.699382 
L 295.160071 305.67663 
L 295.794956 304.112175 
L 296.42984 301.56548 
L 297.064725 302.355332 
L 297.699609 299.600959 
L 298.334494 299.604845 
L 298.969378 296.917242 
L 299.604263 296.640989 
L 300.239147 295.496285 
L 300.874032 295.141668 
L 301.508916 294.083229 
L 302.143801 292.475577 
L 302.778685 292.349981 
L 303.41357 291.487498 
L 304.048454 291.64856 
L 304.683339 290.437406 
L 305.318223 288.863818 
L 305.953108 285.484924 
L 306.587992 286.869565 
L 307.222877 284.203178 
L 307.857761 283.585007 
L 308.492646 283.242112 
L 309.127531 280.964322 
L 309.762415 280.381765 
L 310.3973 277.208086 
L 311.032184 278.650407 
L 311.667069 273.222192 
L 312.301953 275.148784 
L 312.936838 273.716317 
L 313.571722 273.552961 
L 314.206607 272.20591 
L 314.841491 272.069716 
L 315.476376 270.870709 
L 316.11126 268.679715 
L 317.381029 270.622362 
L 318.650798 265.231057 
L 319.285683 265.29513 
L 319.920567 263.966385 
L 320.555452 262.993554 
L 321.190336 260.095129 
L 321.825221 263.73078 
L 322.460105 259.546191 
L 323.09499 259.983379 
L 323.729874 256.559272 
L 324.364759 255.941568 
L 324.999643 256.076042 
L 325.634528 254.850743 
L 326.269412 252.308635 
L 326.904297 254.159368 
L 327.539181 254.603139 
L 328.174066 254.76898 
L 328.80895 250.618286 
L 330.078719 246.97157 
L 330.713604 248.614943 
L 331.348489 248.996108 
L 332.618258 244.34033 
L 333.253142 243.701793 
L 333.888027 242.505887 
L 334.522911 240.231622 
L 335.157796 241.907488 
L 335.79268 241.810816 
L 336.427565 241.855775 
L 337.062449 238.058043 
L 337.697334 239.407876 
L 338.967103 238.832264 
L 339.601987 235.815867 
L 340.236872 236.133702 
L 340.871756 234.175 
L 341.506641 229.356483 
L 342.141525 233.13404 
L 342.77641 235.457363 
L 343.411294 230.440363 
L 344.046179 230.515372 
L 344.681063 227.925757 
L 345.315948 228.607363 
L 345.950832 225.152993 
L 346.585717 224.328439 
L 347.220601 222.820984 
L 347.855486 224.424835 
L 348.49037 222.170703 
L 349.125255 221.542041 
L 349.760139 225.182449 
L 350.395024 221.021433 
L 351.029908 219.194762 
L 351.664793 220.218924 
L 352.299678 219.493314 
L 352.934562 218.150468 
L 353.569447 217.335811 
L 354.839216 216.316216 
L 355.4741 217.209578 
L 356.108985 214.953619 
L 356.743869 214.126772 
L 357.378754 211.043245 
L 358.013638 213.523573 
L 358.648523 209.522537 
L 359.283407 210.757435 
L 359.918292 210.608287 
L 360.553176 210.178383 
L 361.188061 209.406009 
L 361.822945 205.435555 
L 362.45783 206.822277 
L 363.092714 206.674041 
L 363.727599 207.205586 
L 364.362483 203.924171 
L 364.997368 205.745681 
L 365.632252 201.314826 
L 366.267137 200.91646 
L 366.902021 203.894736 
L 368.17179 198.958628 
L 368.806675 198.694502 
L 369.441559 195.170792 
L 370.076444 197.330695 
L 370.711328 192.287764 
L 371.346213 196.693304 
L 371.981097 194.172986 
L 372.615982 198.116278 
L 373.250866 193.589262 
L 373.885751 191.094619 
L 374.520636 194.164406 
L 375.790405 190.529329 
L 376.425289 190.263737 
L 377.060174 192.646035 
L 378.329943 190.401269 
L 378.964827 184.735537 
L 379.599712 186.722145 
L 380.234596 186.89561 
L 380.869481 189.672495 
L 381.504365 185.035236 
L 382.13925 185.708369 
L 382.774134 182.788134 
L 383.409019 186.26457 
L 384.043903 182.097247 
L 384.678788 185.092746 
L 385.948557 179.662408 
L 386.583441 181.309773 
L 387.218326 177.912212 
L 388.488095 179.176757 
L 389.122979 180.556704 
L 389.757864 176.514298 
L 390.392748 176.669796 
L 391.027633 173.626386 
L 391.662517 176.455981 
L 392.297402 174.564558 
L 392.932286 171.56617 
L 393.567171 176.043386 
L 394.202055 174.284567 
L 394.83694 171.134164 
L 395.471825 169.965314 
L 396.106709 170.40556 
L 396.741594 170.014584 
L 397.376478 167.874305 
L 398.011363 169.908144 
L 398.646247 169.580412 
L 399.281132 170.003966 
L 399.916016 167.449647 
L 400.550901 166.053347 
L 401.82067 168.193159 
L 402.455554 167.726367 
L 403.090439 164.799845 
L 403.725323 162.423791 
L 404.360208 161.120594 
L 404.995092 162.96589 
L 405.629977 157.88588 
L 406.264861 158.885215 
L 406.899746 163.227192 
L 407.53463 156.648816 
L 408.169515 161.758771 
L 408.804399 162.362628 
L 409.439284 161.871158 
L 410.074168 160.211602 
L 410.709053 160.669475 
L 411.343937 154.998562 
L 411.978822 155.743221 
L 412.613706 154.726004 
L 413.883475 158.232427 
L 414.51836 150.444978 
L 415.153244 146.4343 
L 415.788129 152.153974 
L 416.423013 153.20483 
L 417.057898 144.646217 
L 417.692783 149.352794 
L 418.327667 153.015947 
L 418.962552 153.107479 
L 419.597436 154.169719 
L 420.232321 152.062017 
L 420.867205 146.807352 
L 421.50209 152.401429 
L 422.136974 149.804168 
L 422.771859 151.793409 
L 423.406743 147.397277 
L 424.041628 144.377015 
L 424.676512 145.420226 
L 425.311397 144.483541 
L 425.946281 147.613132 
L 426.581166 142.033666 
L 427.21605 149.812833 
L 427.850935 143.600882 
L 428.485819 148.710922 
L 429.120704 139.701318 
L 429.755588 137.611837 
L 430.390473 142.633998 
L 431.025357 143.030665 
L 431.660242 141.243644 
L 432.295126 142.445624 
L 432.930011 136.116572 
L 433.564895 138.307906 
L 434.19978 134.065446 
L 434.834664 140.080018 
L 435.469549 137.567664 
L 436.104433 137.325348 
L 436.739318 136.028056 
L 437.374202 126.707114 
L 438.009087 133.209292 
L 438.643972 129.147815 
L 439.278856 135.616395 
L 439.913741 133.704754 
L 440.548625 132.640518 
L 441.18351 131.984673 
L 441.818394 126.047743 
L 442.453279 131.152389 
L 443.088163 130.482994 
L 443.723048 130.288249 
L 444.357932 127.610458 
L 444.992817 136.296706 
L 445.627701 129.43698 
L 446.262586 128.089907 
L 446.89747 129.448745 
L 447.532355 125.486488 
L 448.167239 126.679548 
L 448.802124 125.416405 
L 449.437008 129.20439 
L 450.071893 130.715031 
L 450.706777 129.695648 
L 451.341662 113.929063 
L 451.976546 125.754118 
L 452.611431 124.412356 
L 453.246315 126.66103 
L 453.8812 123.255356 
L 454.516084 124.53294 
L 455.150969 121.465956 
L 455.785853 120.886182 
L 456.420738 116.032262 
L 457.055622 124.843512 
L 457.690507 121.486514 
L 458.325391 117.248216 
L 459.59516 120.126699 
L 460.230045 118.181164 
L 460.86493 114.545832 
L 461.499814 115.15126 
L 462.134699 117.815545 
L 462.769583 118.158823 
L 463.404468 117.022848 
L 464.039352 116.892876 
L 464.674237 116.64351 
L 465.309121 113.035318 
L 465.944006 117.381373 
L 466.57889 116.166651 
L 467.213775 115.655218 
L 467.848659 114.901384 
L 468.483544 108.126734 
L 469.118428 114.147083 
L 469.753313 112.204097 
L 470.388197 112.65615 
L 471.023082 111.483308 
L 471.657966 106.966379 
L 472.292851 116.115894 
L 472.927735 114.347222 
L 473.56262 109.576552 
L 474.197504 107.805289 
L 474.832389 110.831285 
L 475.467273 112.073106 
L 476.102158 105.813797 
L 476.737042 116.168605 
L 477.371927 119.18411 
L 478.006811 111.293405 
L 478.641696 108.1955 
L 479.27658 106.250517 
L 479.911465 106.74101 
L 480.546349 106.054583 
L 481.181234 100.865966 
L 481.816119 102.962455 
L 482.451003 106.505066 
L 483.085888 101.789697 
L 483.720772 101.853748 
L 484.355657 105.728466 
L 484.990541 105.747834 
L 485.625426 107.694941 
L 486.26031 102.357069 
L 486.895195 100.108607 
L 487.530079 93.799348 
L 488.164964 103.201203 
L 488.799848 98.968215 
L 489.434733 96.547222 
L 490.069617 102.373931 
L 490.704502 93.58876 
L 491.339386 99.849174 
L 491.974271 97.863288 
L 492.609155 95.250737 
L 493.24404 100.000425 
L 493.878924 97.795329 
L 494.513809 92.211701 
L 495.148693 92.414813 
L 495.783578 99.523948 
L 496.418462 96.302613 
L 497.053347 95.157166 
L 497.688231 87.278397 
L 498.958 99.088374 
L 499.592885 95.764761 
L 500.227769 94.109368 
L 500.862654 97.077259 
L 501.497538 90.587357 
L 502.132423 98.946638 
L 502.767308 100.195552 
L 503.402192 87.739795 
L 504.037077 85.404431 
L 504.671961 85.796299 
L 505.306846 88.863792 
L 505.94173 87.039054 
L 506.576615 90.152675 
L 507.211499 85.426602 
L 507.846384 88.206375 
L 508.481268 87.848657 
L 509.116153 84.770672 
L 509.751037 87.082378 
L 510.385922 93.563403 
L 511.020806 88.585671 
L 511.655691 85.510787 
L 512.290575 89.133164 
L 512.92546 83.668676 
L 513.560344 85.390075 
L 514.195229 85.493372 
L 514.830113 90.100049 
L 515.464998 83.298428 
L 516.099882 85.672529 
L 516.734767 75.536208 
L 517.369651 83.005908 
L 518.004536 83.227496 
L 518.63942 82.988238 
L 519.274305 85.013285 
L 519.909189 84.853964 
L 520.544074 79.978382 
L 521.178958 82.241455 
L 521.813843 77.512834 
L 522.448727 76.541405 
L 523.083612 75.140178 
L 523.718496 78.989878 
L 524.353381 76.305673 
L 524.988266 83.848937 
L 525.62315 77.07021 
L 526.258035 77.002421 
L 526.892919 77.791338 
L 527.527804 81.38288 
L 528.162688 77.508375 
L 528.797573 77.011723 
L 529.432457 74.952229 
L 530.067342 78.511533 
L 530.702226 66.328376 
L 531.337111 79.39967 
L 531.971995 81.067211 
L 532.60688 66.680063 
L 533.241764 71.799023 
L 533.876649 70.186316 
L 534.511533 75.423736 
L 535.146418 74.210713 
L 535.781302 76.809545 
L 536.416187 74.933158 
L 537.051071 71.153371 
L 537.685956 73.442395 
L 538.32084 76.803429 
L 539.590609 66.439319 
L 540.225494 73.702381 
L 540.860378 69.287687 
L 541.495263 66.873576 
L 542.130147 71.754594 
L 542.765032 69.208048 
L 543.399916 70.887269 
L 544.034801 70.039695 
L 544.669685 66.917749 
L 545.30457 67.873633 
L 545.939455 70.787667 
L 546.574339 70.288722 
L 547.209224 61.222031 
L 547.844108 62.829556 
L 548.478993 63.783783 
L 549.113877 66.735619 
L 549.748762 66.491095 
L 550.383646 70.096058 
L 551.018531 72.415155 
L 551.653415 64.992942 
L 552.2883 64.862291 
L 552.923184 62.926822 
L 553.558069 62.444696 
L 554.192953 57.938726 
L 554.827838 62.774127 
L 555.462722 57.925516 
L 556.732491 65.190744 
L 557.367376 47.518125 
L 558.00226 66.999512 
L 558.637145 58.611986 
L 559.272029 60.810116 
L 559.906914 61.125232 
L 560.541798 60.22911 
L 561.176683 57.11842 
L 561.811567 63.690297 
L 563.081336 57.522945 
L 563.716221 57.909334 
L 564.351105 67.462949 
L 564.98599 62.68302 
L 565.620874 55.228016 
L 566.255759 60.682948 
L 566.890643 59.602529 
L 567.525528 59.45149 
L 568.160413 51.517717 
L 568.795297 60.363881 
L 569.430182 52.107515 
L 570.065066 57.094932 
L 570.699951 63.653302 
L 571.334835 54.792697 
L 571.96972 58.126377 
L 572.604604 52.337173 
L 573.239489 59.982674 
L 573.239489 59.982674 
" clip-path="url(#p13a8c7f42f)" style="fill: none; stroke: #ff7f0e; stroke-width: 1.5; stroke-linecap: square"/>
   </g>
   <g id="patch_3">
    <path d="M 40.603125 576.718125 
L 40.603125 22.318125 
" style="fill: none; stroke: #000000; stroke-width: 0.8; stroke-linejoin: miter; stroke-linecap: square"/>
   </g>
   <g id="patch_4">
    <path d="M 598.603125 576.718125 
L 598.603125 22.318125 
" style="fill: none; stroke: #000000; stroke-width: 0.8; stroke-linejoin: miter; stroke-linecap: square"/>
   </g>
   <g id="patch_5">
    <path d="M 40.603125 576.718125 
L 598.603125 576.718125 
" style="fill: none; stroke: #000000; stroke-width: 0.8; stroke-linejoin: miter; stroke-linecap: square"/>
   </g>
   <g id="patch_6">
    <path d="M 40.603125 22.318125 
L 598.603125 22.318125 
" style="fill: none; stroke: #000000; stroke-width: 0.8; stroke-linejoin: miter; stroke-linecap: square"/>
   </g>
   <g id="text_17">
    <!-- Train and Val Loss -->
    <g transform="translate(266.057812 16.318125) scale(0.12 -0.12)">
     <defs>
      <path id="DejaVuSans-54" d="M -19 4666 
L 3928 4666 
L 3928 4134 
L 2272 4134 
L 2272 0 
L 1638 0 
L 1638 4134 
L -19 4134 
L -19 4666 
z
" transform="scale(0.015625)"/>
      <path id="DejaVuSans-72" d="M 2631 2963 
Q 2534 3019 2420 3045 
Q 2306 3072 2169 3072 
Q 1681 3072 1420 2755 
Q 1159 2438 1159 1844 
L 1159 0 
L 581 0 
L 581 3500 
L 1159 3500 
L 1159 2956 
Q 1341 3275 1631 3429 
Q 1922 3584 2338 3584 
Q 2397 3584 2469 3576 
Q 2541 3569 2628 3553 
L 2631 2963 
z
" transform="scale(0.015625)"/>
      <path id="DejaVuSans-61" d="M 2194 1759 
Q 1497 1759 1228 1600 
Q 959 1441 959 1056 
Q 959 750 1161 570 
Q 1363 391 1709 391 
Q 2188 391 2477 730 
Q 2766 1069 2766 1631 
L 2766 1759 
L 2194 1759 
z
M 3341 1997 
L 3341 0 
L 2766 0 
L 2766 531 
Q 2569 213 2275 61 
Q 1981 -91 1556 -91 
Q 1019 -91 701 211 
Q 384 513 384 1019 
Q 384 1609 779 1909 
Q 1175 2209 1959 2209 
L 2766 2209 
L 2766 2266 
Q 2766 2663 2505 2880 
Q 2244 3097 1772 3097 
Q 1472 3097 1187 3025 
Q 903 2953 641 2809 
L 641 3341 
Q 956 3463 1253 3523 
Q 1550 3584 1831 3584 
Q 2591 3584 2966 3190 
Q 3341 2797 3341 1997 
z
" transform="scale(0.015625)"/>
      <path id="DejaVuSans-69" d="M 603 3500 
L 1178 3500 
L 1178 0 
L 603 0 
L 603 3500 
z
M 603 4863 
L 1178 4863 
L 1178 4134 
L 603 4134 
L 603 4863 
z
" transform="scale(0.015625)"/>
      <path id="DejaVuSans-6e" d="M 3513 2113 
L 3513 0 
L 2938 0 
L 2938 2094 
Q 2938 2591 2744 2837 
Q 2550 3084 2163 3084 
Q 1697 3084 1428 2787 
Q 1159 2491 1159 1978 
L 1159 0 
L 581 0 
L 581 3500 
L 1159 3500 
L 1159 2956 
Q 1366 3272 1645 3428 
Q 1925 3584 2291 3584 
Q 2894 3584 3203 3211 
Q 3513 2838 3513 2113 
z
" transform="scale(0.015625)"/>
      <path id="DejaVuSans-20" transform="scale(0.015625)"/>
      <path id="DejaVuSans-64" d="M 2906 2969 
L 2906 4863 
L 3481 4863 
L 3481 0 
L 2906 0 
L 2906 525 
Q 2725 213 2448 61 
Q 2172 -91 1784 -91 
Q 1150 -91 751 415 
Q 353 922 353 1747 
Q 353 2572 751 3078 
Q 1150 3584 1784 3584 
Q 2172 3584 2448 3432 
Q 2725 3281 2906 2969 
z
M 947 1747 
Q 947 1113 1208 752 
Q 1469 391 1925 391 
Q 2381 391 2643 752 
Q 2906 1113 2906 1747 
Q 2906 2381 2643 2742 
Q 2381 3103 1925 3103 
Q 1469 3103 1208 2742 
Q 947 2381 947 1747 
z
" transform="scale(0.015625)"/>
      <path id="DejaVuSans-56" d="M 1831 0 
L 50 4666 
L 709 4666 
L 2188 738 
L 3669 4666 
L 4325 4666 
L 2547 0 
L 1831 0 
z
" transform="scale(0.015625)"/>
      <path id="DejaVuSans-6c" d="M 603 4863 
L 1178 4863 
L 1178 0 
L 603 0 
L 603 4863 
z
" transform="scale(0.015625)"/>
     </defs>
     <use xlink:href="#DejaVuSans-54"/>
     <use xlink:href="#DejaVuSans-72" transform="translate(46.333984 0)"/>
     <use xlink:href="#DejaVuSans-61" transform="translate(87.447266 0)"/>
     <use xlink:href="#DejaVuSans-69" transform="translate(148.726562 0)"/>
     <use xlink:href="#DejaVuSans-6e" transform="translate(176.509766 0)"/>
     <use xlink:href="#DejaVuSans-20" transform="translate(239.888672 0)"/>
     <use xlink:href="#DejaVuSans-61" transform="translate(271.675781 0)"/>
     <use xlink:href="#DejaVuSans-6e" transform="translate(332.955078 0)"/>
     <use xlink:href="#DejaVuSans-64" transform="translate(396.333984 0)"/>
     <use xlink:href="#DejaVuSans-20" transform="translate(459.810547 0)"/>
     <use xlink:href="#DejaVuSans-56" transform="translate(491.597656 0)"/>
     <use xlink:href="#DejaVuSans-61" transform="translate(552.255859 0)"/>
     <use xlink:href="#DejaVuSans-6c" transform="translate(613.535156 0)"/>
     <use xlink:href="#DejaVuSans-20" transform="translate(641.318359 0)"/>
     <use xlink:href="#DejaVuSans-4c" transform="translate(673.105469 0)"/>
     <use xlink:href="#DejaVuSans-6f" transform="translate(727.068359 0)"/>
     <use xlink:href="#DejaVuSans-73" transform="translate(788.25 0)"/>
     <use xlink:href="#DejaVuSans-73" transform="translate(840.349609 0)"/>
    </g>
   </g>
   <g id="legend_1">
    <g id="patch_7">
     <path d="M 47.603125 60.230625 
L 127.19375 60.230625 
Q 129.19375 60.230625 129.19375 58.230625 
L 129.19375 29.318125 
Q 129.19375 27.318125 127.19375 27.318125 
L 47.603125 27.318125 
Q 45.603125 27.318125 45.603125 29.318125 
L 45.603125 58.230625 
Q 45.603125 60.230625 47.603125 60.230625 
z
" style="fill: #ffffff; opacity: 0.8; stroke: #cccccc; stroke-linejoin: miter"/>
    </g>
    <g id="line2d_31">
     <path d="M 49.603125 35.416563 
L 59.603125 35.416563 
L 69.603125 35.416563 
" style="fill: none; stroke: #1f77b4; stroke-width: 1.5; stroke-linecap: square"/>
    </g>
    <g id="text_18">
     <!-- train_loss -->
     <g transform="translate(77.603125 38.916563) scale(0.1 -0.1)">
      <defs>
       <path id="DejaVuSans-74" d="M 1172 4494 
L 1172 3500 
L 2356 3500 
L 2356 3053 
L 1172 3053 
L 1172 1153 
Q 1172 725 1289 603 
Q 1406 481 1766 481 
L 2356 481 
L 2356 0 
L 1766 0 
Q 1100 0 847 248 
Q 594 497 594 1153 
L 594 3053 
L 172 3053 
L 172 3500 
L 594 3500 
L 594 4494 
L 1172 4494 
z
" transform="scale(0.015625)"/>
       <path id="DejaVuSans-5f" d="M 3263 -1063 
L 3263 -1509 
L -63 -1509 
L -63 -1063 
L 3263 -1063 
z
" transform="scale(0.015625)"/>
      </defs>
      <use xlink:href="#DejaVuSans-74"/>
      <use xlink:href="#DejaVuSans-72" transform="translate(39.208984 0)"/>
      <use xlink:href="#DejaVuSans-61" transform="translate(80.322266 0)"/>
      <use xlink:href="#DejaVuSans-69" transform="translate(141.601562 0)"/>
      <use xlink:href="#DejaVuSans-6e" transform="translate(169.384766 0)"/>
      <use xlink:href="#DejaVuSans-5f" transform="translate(232.763672 0)"/>
      <use xlink:href="#DejaVuSans-6c" transform="translate(282.763672 0)"/>
      <use xlink:href="#DejaVuSans-6f" transform="translate(310.546875 0)"/>
      <use xlink:href="#DejaVuSans-73" transform="translate(371.728516 0)"/>
      <use xlink:href="#DejaVuSans-73" transform="translate(423.828125 0)"/>
     </g>
    </g>
    <g id="line2d_32">
     <path d="M 49.603125 50.372813 
L 59.603125 50.372813 
L 69.603125 50.372813 
" style="fill: none; stroke: #ff7f0e; stroke-width: 1.5; stroke-linecap: square"/>
    </g>
    <g id="text_19">
     <!-- val_loss -->
     <g transform="translate(77.603125 53.872813) scale(0.1 -0.1)">
      <defs>
       <path id="DejaVuSans-76" d="M 191 3500 
L 800 3500 
L 1894 563 
L 2988 3500 
L 3597 3500 
L 2284 0 
L 1503 0 
L 191 3500 
z
" transform="scale(0.015625)"/>
      </defs>
      <use xlink:href="#DejaVuSans-76"/>
      <use xlink:href="#DejaVuSans-61" transform="translate(59.179688 0)"/>
      <use xlink:href="#DejaVuSans-6c" transform="translate(120.458984 0)"/>
      <use xlink:href="#DejaVuSans-5f" transform="translate(148.242188 0)"/>
      <use xlink:href="#DejaVuSans-6c" transform="translate(198.242188 0)"/>
      <use xlink:href="#DejaVuSans-6f" transform="translate(226.025391 0)"/>
      <use xlink:href="#DejaVuSans-73" transform="translate(287.207031 0)"/>
      <use xlink:href="#DejaVuSans-73" transform="translate(339.306641 0)"/>
     </g>
    </g>
   </g>
  </g>
 </g>
 <defs>
  <clipPath id="p13a8c7f42f">
   <rect x="40.603125" y="22.318125" width="558" height="554.4"/>
  </clipPath>
 </defs>
</svg>
