<?xml version="1.0" encoding="utf-8" standalone="no"?>
<!DOCTYPE svg PUBLIC "-//W3C//DTD SVG 1.1//EN"
  "http://www.w3.org/Graphics/SVG/1.1/DTD/svg11.dtd">
<svg xmlns:xlink="http://www.w3.org/1999/xlink" width="615.34375pt" height="614.274375pt" viewBox="0 0 615.34375 614.274375" xmlns="http://www.w3.org/2000/svg" version="1.1">
 <metadata>
  <rdf:RDF xmlns:dc="http://purl.org/dc/elements/1.1/" xmlns:cc="http://creativecommons.org/ns#" xmlns:rdf="http://www.w3.org/1999/02/22-rdf-syntax-ns#">
   <cc:Work>
    <dc:type rdf:resource="http://purl.org/dc/dcmitype/StillImage"/>
    <dc:date>2026-05-22T21:15:23.066161</dc:date>
    <dc:format>image/svg+xml</dc:format>
    <dc:creator>
     <cc:Agent>
      <dc:title>Matplotlib v3.10.9, https://matplotlib.org/</dc:title>
     </cc:Agent>
    </dc:creator>
   </cc:Work>
  </rdf:RDF>
 </metadata>
 <defs>
  <style type="text/css">*{stroke-linejoin: round; stroke-linecap: butt}</style>
 </defs>
 <g id="figure_1">
  <g id="patch_1">
   <path d="M 0 614.274375 
L 615.34375 614.274375 
L 615.34375 0 
L 0 0 
z
" style="fill: #ffffff"/>
  </g>
  <g id="axes_1">
   <g id="patch_2">
    <path d="M 50.14375 576.718125 
L 608.14375 576.718125 
L 608.14375 22.318125 
L 50.14375 22.318125 
z
" style="fill: #ffffff"/>
   </g>
   <g id="matplotlib.axis_1">
    <g id="xtick_1">
     <g id="line2d_1">
      <path d="M 75.507386 576.718125 
L 75.507386 22.318125 
" clip-path="url(#p557e40ed0e)" style="fill: none; stroke: #b0b0b0; stroke-width: 0.8; stroke-linecap: square"/>
     </g>
     <g id="line2d_2">
      <defs>
       <path id="mae22c300b4" d="M 0 0 
L 0 3.5 
" style="stroke: #000000; stroke-width: 0.8"/>
      </defs>
      <g>
       <use xlink:href="#mae22c300b4" x="75.507386" y="576.718125" style="stroke: #000000; stroke-width: 0.8"/>
      </g>
     </g>
     <g id="text_1">
      <!-- 0 -->
      <g transform="translate(72.326136 591.316563) scale(0.1 -0.1)">
       <defs>
        <path id="DejaVuSans-30" d="M 2034 4250 
Q 1547 4250 1301 3770 
Q 1056 3291 1056 2328 
Q 1056 1369 1301 889 
Q 1547 409 2034 409 
Q 2525 409 2770 889 
Q 3016 1369 3016 2328 
Q 3016 3291 2770 3770 
Q 2525 4250 2034 4250 
z
M 2034 4750 
Q 2819 4750 3233 4129 
Q 3647 3509 3647 2328 
Q 3647 1150 3233 529 
Q 2819 -91 2034 -91 
Q 1250 -91 836 529 
Q 422 1150 422 2328 
Q 422 3509 836 4129 
Q 1250 4750 2034 4750 
z
" transform="scale(0.015625)"/>
       </defs>
       <use xlink:href="#DejaVuSans-30"/>
      </g>
     </g>
    </g>
    <g id="xtick_2">
     <g id="line2d_3">
      <path d="M 138.995838 576.718125 
L 138.995838 22.318125 
" clip-path="url(#p557e40ed0e)" style="fill: none; stroke: #b0b0b0; stroke-width: 0.8; stroke-linecap: square"/>
     </g>
     <g id="line2d_4">
      <g>
       <use xlink:href="#mae22c300b4" x="138.995838" y="576.718125" style="stroke: #000000; stroke-width: 0.8"/>
      </g>
     </g>
     <g id="text_2">
      <!-- 100 -->
      <g transform="translate(129.452088 591.316563) scale(0.1 -0.1)">
       <defs>
        <path id="DejaVuSans-31" d="M 794 531 
L 1825 531 
L 1825 4091 
L 703 3866 
L 703 4441 
L 1819 4666 
L 2450 4666 
L 2450 531 
L 3481 531 
L 3481 0 
L 794 0 
L 794 531 
z
" transform="scale(0.015625)"/>
       </defs>
       <use xlink:href="#DejaVuSans-31"/>
       <use xlink:href="#DejaVuSans-30" transform="translate(63.623047 0)"/>
       <use xlink:href="#DejaVuSans-30" transform="translate(127.246094 0)"/>
      </g>
     </g>
    </g>
    <g id="xtick_3">
     <g id="line2d_5">
      <path d="M 202.484289 576.718125 
L 202.484289 22.318125 
" clip-path="url(#p557e40ed0e)" style="fill: none; stroke: #b0b0b0; stroke-width: 0.8; stroke-linecap: square"/>
     </g>
     <g id="line2d_6">
      <g>
       <use xlink:href="#mae22c300b4" x="202.484289" y="576.718125" style="stroke: #000000; stroke-width: 0.8"/>
      </g>
     </g>
     <g id="text_3">
      <!-- 200 -->
      <g transform="translate(192.940539 591.316563) scale(0.1 -0.1)">
       <defs>
        <path id="DejaVuSans-32" d="M 1228 531 
L 3431 531 
L 3431 0 
L 469 0 
L 469 531 
Q 828 903 1448 1529 
Q 2069 2156 2228 2338 
Q 2531 2678 2651 2914 
Q 2772 3150 2772 3378 
Q 2772 3750 2511 3984 
Q 2250 4219 1831 4219 
Q 1534 4219 1204 4116 
Q 875 4013 500 3803 
L 500 4441 
Q 881 4594 1212 4672 
Q 1544 4750 1819 4750 
Q 2544 4750 2975 4387 
Q 3406 4025 3406 3419 
Q 3406 3131 3298 2873 
Q 3191 2616 2906 2266 
Q 2828 2175 2409 1742 
Q 1991 1309 1228 531 
z
" transform="scale(0.015625)"/>
       </defs>
       <use xlink:href="#DejaVuSans-32"/>
       <use xlink:href="#DejaVuSans-30" transform="translate(63.623047 0)"/>
       <use xlink:href="#DejaVuSans-30" transform="translate(127.246094 0)"/>
      </g>
     </g>
    </g>
    <g id="xtick_4">
     <g id="line2d_7">
      <path d="M 265.972741 576.718125 
L 265.972741 22.318125 
" clip-path="url(#p557e40ed0e)" style="fill: none; stroke: #b0b0b0; stroke-width: 0.8; stroke-linecap: square"/>
     </g>
     <g id="line2d_8">
      <g>
       <use xlink:href="#mae22c300b4" x="265.972741" y="576.718125" style="stroke: #000000; stroke-width: 0.8"/>
      </g>
     </g>
     <g id="text_4">
      <!-- 300 -->
      <g transform="translate(256.428991 591.316563) scale(0.1 -0.1)">
       <defs>
        <path id="DejaVuSans-33" d="M 2597 2516 
Q 3050 2419 3304 2112 
Q 3559 1806 3559 1356 
Q 3559 666 3084 287 
Q 2609 -91 1734 -91 
Q 1441 -91 1130 -33 
Q 819 25 488 141 
L 488 750 
Q 750 597 1062 519 
Q 1375 441 1716 441 
Q 2309 441 2620 675 
Q 2931 909 2931 1356 
Q 2931 1769 2642 2001 
Q 2353 2234 1838 2234 
L 1294 2234 
L 1294 2753 
L 1863 2753 
Q 2328 2753 2575 2939 
Q 2822 3125 2822 3475 
Q 2822 3834 2567 4026 
Q 2313 4219 1838 4219 
Q 1578 4219 1281 4162 
Q 984 4106 628 3988 
L 628 4550 
Q 988 4650 1302 4700 
Q 1616 4750 1894 4750 
Q 2613 4750 3031 4423 
Q 3450 4097 3450 3541 
Q 3450 3153 3228 2886 
Q 3006 2619 2597 2516 
z
" transform="scale(0.015625)"/>
       </defs>
       <use xlink:href="#DejaVuSans-33"/>
       <use xlink:href="#DejaVuSans-30" transform="translate(63.623047 0)"/>
       <use xlink:href="#DejaVuSans-30" transform="translate(127.246094 0)"/>
      </g>
     </g>
    </g>
    <g id="xtick_5">
     <g id="line2d_9">
      <path d="M 329.461192 576.718125 
L 329.461192 22.318125 
" clip-path="url(#p557e40ed0e)" style="fill: none; stroke: #b0b0b0; stroke-width: 0.8; stroke-linecap: square"/>
     </g>
     <g id="line2d_10">
      <g>
       <use xlink:href="#mae22c300b4" x="329.461192" y="576.718125" style="stroke: #000000; stroke-width: 0.8"/>
      </g>
     </g>
     <g id="text_5">
      <!-- 400 -->
      <g transform="translate(319.917442 591.316563) scale(0.1 -0.1)">
       <defs>
        <path id="DejaVuSans-34" d="M 2419 4116 
L 825 1625 
L 2419 1625 
L 2419 4116 
z
M 2253 4666 
L 3047 4666 
L 3047 1625 
L 3713 1625 
L 3713 1100 
L 3047 1100 
L 3047 0 
L 2419 0 
L 2419 1100 
L 313 1100 
L 313 1709 
L 2253 4666 
z
" transform="scale(0.015625)"/>
       </defs>
       <use xlink:href="#DejaVuSans-34"/>
       <use xlink:href="#DejaVuSans-30" transform="translate(63.623047 0)"/>
       <use xlink:href="#DejaVuSans-30" transform="translate(127.246094 0)"/>
      </g>
     </g>
    </g>
    <g id="xtick_6">
     <g id="line2d_11">
      <path d="M 392.949644 576.718125 
L 392.949644 22.318125 
" clip-path="url(#p557e40ed0e)" style="fill: none; stroke: #b0b0b0; stroke-width: 0.8; stroke-linecap: square"/>
     </g>
     <g id="line2d_12">
      <g>
       <use xlink:href="#mae22c300b4" x="392.949644" y="576.718125" style="stroke: #000000; stroke-width: 0.8"/>
      </g>
     </g>
     <g id="text_6">
      <!-- 500 -->
      <g transform="translate(383.405894 591.316563) scale(0.1 -0.1)">
       <defs>
        <path id="DejaVuSans-35" d="M 691 4666 
L 3169 4666 
L 3169 4134 
L 1269 4134 
L 1269 2991 
Q 1406 3038 1543 3061 
Q 1681 3084 1819 3084 
Q 2600 3084 3056 2656 
Q 3513 2228 3513 1497 
Q 3513 744 3044 326 
Q 2575 -91 1722 -91 
Q 1428 -91 1123 -41 
Q 819 9 494 109 
L 494 744 
Q 775 591 1075 516 
Q 1375 441 1709 441 
Q 2250 441 2565 725 
Q 2881 1009 2881 1497 
Q 2881 1984 2565 2268 
Q 2250 2553 1709 2553 
Q 1456 2553 1204 2497 
Q 953 2441 691 2322 
L 691 4666 
z
" transform="scale(0.015625)"/>
       </defs>
       <use xlink:href="#DejaVuSans-35"/>
       <use xlink:href="#DejaVuSans-30" transform="translate(63.623047 0)"/>
       <use xlink:href="#DejaVuSans-30" transform="translate(127.246094 0)"/>
      </g>
     </g>
    </g>
    <g id="xtick_7">
     <g id="line2d_13">
      <path d="M 456.438095 576.718125 
L 456.438095 22.318125 
" clip-path="url(#p557e40ed0e)" style="fill: none; stroke: #b0b0b0; stroke-width: 0.8; stroke-linecap: square"/>
     </g>
     <g id="line2d_14">
      <g>
       <use xlink:href="#mae22c300b4" x="456.438095" y="576.718125" style="stroke: #000000; stroke-width: 0.8"/>
      </g>
     </g>
     <g id="text_7">
      <!-- 600 -->
      <g transform="translate(446.894345 591.316563) scale(0.1 -0.1)">
       <defs>
        <path id="DejaVuSans-36" d="M 2113 2584 
Q 1688 2584 1439 2293 
Q 1191 2003 1191 1497 
Q 1191 994 1439 701 
Q 1688 409 2113 409 
Q 2538 409 2786 701 
Q 3034 994 3034 1497 
Q 3034 2003 2786 2293 
Q 2538 2584 2113 2584 
z
M 3366 4563 
L 3366 3988 
Q 3128 4100 2886 4159 
Q 2644 4219 2406 4219 
Q 1781 4219 1451 3797 
Q 1122 3375 1075 2522 
Q 1259 2794 1537 2939 
Q 1816 3084 2150 3084 
Q 2853 3084 3261 2657 
Q 3669 2231 3669 1497 
Q 3669 778 3244 343 
Q 2819 -91 2113 -91 
Q 1303 -91 875 529 
Q 447 1150 447 2328 
Q 447 3434 972 4092 
Q 1497 4750 2381 4750 
Q 2619 4750 2861 4703 
Q 3103 4656 3366 4563 
z
" transform="scale(0.015625)"/>
       </defs>
       <use xlink:href="#DejaVuSans-36"/>
       <use xlink:href="#DejaVuSans-30" transform="translate(63.623047 0)"/>
       <use xlink:href="#DejaVuSans-30" transform="translate(127.246094 0)"/>
      </g>
     </g>
    </g>
    <g id="xtick_8">
     <g id="line2d_15">
      <path d="M 519.926547 576.718125 
L 519.926547 22.318125 
" clip-path="url(#p557e40ed0e)" style="fill: none; stroke: #b0b0b0; stroke-width: 0.8; stroke-linecap: square"/>
     </g>
     <g id="line2d_16">
      <g>
       <use xlink:href="#mae22c300b4" x="519.926547" y="576.718125" style="stroke: #000000; stroke-width: 0.8"/>
      </g>
     </g>
     <g id="text_8">
      <!-- 700 -->
      <g transform="translate(510.382797 591.316563) scale(0.1 -0.1)">
       <defs>
        <path id="DejaVuSans-37" d="M 525 4666 
L 3525 4666 
L 3525 4397 
L 1831 0 
L 1172 0 
L 2766 4134 
L 525 4134 
L 525 4666 
z
" transform="scale(0.015625)"/>
       </defs>
       <use xlink:href="#DejaVuSans-37"/>
       <use xlink:href="#DejaVuSans-30" transform="translate(63.623047 0)"/>
       <use xlink:href="#DejaVuSans-30" transform="translate(127.246094 0)"/>
      </g>
     </g>
    </g>
    <g id="xtick_9">
     <g id="line2d_17">
      <path d="M 583.414998 576.718125 
L 583.414998 22.318125 
" clip-path="url(#p557e40ed0e)" style="fill: none; stroke: #b0b0b0; stroke-width: 0.8; stroke-linecap: square"/>
     </g>
     <g id="line2d_18">
      <g>
       <use xlink:href="#mae22c300b4" x="583.414998" y="576.718125" style="stroke: #000000; stroke-width: 0.8"/>
      </g>
     </g>
     <g id="text_9">
      <!-- 800 -->
      <g transform="translate(573.871248 591.316563) scale(0.1 -0.1)">
       <defs>
        <path id="DejaVuSans-38" d="M 2034 2216 
Q 1584 2216 1326 1975 
Q 1069 1734 1069 1313 
Q 1069 891 1326 650 
Q 1584 409 2034 409 
Q 2484 409 2743 651 
Q 3003 894 3003 1313 
Q 3003 1734 2745 1975 
Q 2488 2216 2034 2216 
z
M 1403 2484 
Q 997 2584 770 2862 
Q 544 3141 544 3541 
Q 544 4100 942 4425 
Q 1341 4750 2034 4750 
Q 2731 4750 3128 4425 
Q 3525 4100 3525 3541 
Q 3525 3141 3298 2862 
Q 3072 2584 2669 2484 
Q 3125 2378 3379 2068 
Q 3634 1759 3634 1313 
Q 3634 634 3220 271 
Q 2806 -91 2034 -91 
Q 1263 -91 848 271 
Q 434 634 434 1313 
Q 434 1759 690 2068 
Q 947 2378 1403 2484 
z
M 1172 3481 
Q 1172 3119 1398 2916 
Q 1625 2713 2034 2713 
Q 2441 2713 2670 2916 
Q 2900 3119 2900 3481 
Q 2900 3844 2670 4047 
Q 2441 4250 2034 4250 
Q 1625 4250 1398 4047 
Q 1172 3844 1172 3481 
z
" transform="scale(0.015625)"/>
       </defs>
       <use xlink:href="#DejaVuSans-38"/>
       <use xlink:href="#DejaVuSans-30" transform="translate(63.623047 0)"/>
       <use xlink:href="#DejaVuSans-30" transform="translate(127.246094 0)"/>
      </g>
     </g>
    </g>
    <g id="text_10">
     <!-- Epochs -->
     <g transform="translate(311.228125 604.994688) scale(0.1 -0.1)">
      <defs>
       <path id="DejaVuSans-45" d="M 628 4666 
L 3578 4666 
L 3578 4134 
L 1259 4134 
L 1259 2753 
L 3481 2753 
L 3481 2222 
L 1259 2222 
L 1259 531 
L 3634 531 
L 3634 0 
L 628 0 
L 628 4666 
z
" transform="scale(0.015625)"/>
       <path id="DejaVuSans-70" d="M 1159 525 
L 1159 -1331 
L 581 -1331 
L 581 3500 
L 1159 3500 
L 1159 2969 
Q 1341 3281 1617 3432 
Q 1894 3584 2278 3584 
Q 2916 3584 3314 3078 
Q 3713 2572 3713 1747 
Q 3713 922 3314 415 
Q 2916 -91 2278 -91 
Q 1894 -91 1617 61 
Q 1341 213 1159 525 
z
M 3116 1747 
Q 3116 2381 2855 2742 
Q 2594 3103 2138 3103 
Q 1681 3103 1420 2742 
Q 1159 2381 1159 1747 
Q 1159 1113 1420 752 
Q 1681 391 2138 391 
Q 2594 391 2855 752 
Q 3116 1113 3116 1747 
z
" transform="scale(0.015625)"/>
       <path id="DejaVuSans-6f" d="M 1959 3097 
Q 1497 3097 1228 2736 
Q 959 2375 959 1747 
Q 959 1119 1226 758 
Q 1494 397 1959 397 
Q 2419 397 2687 759 
Q 2956 1122 2956 1747 
Q 2956 2369 2687 2733 
Q 2419 3097 1959 3097 
z
M 1959 3584 
Q 2709 3584 3137 3096 
Q 3566 2609 3566 1747 
Q 3566 888 3137 398 
Q 2709 -91 1959 -91 
Q 1206 -91 779 398 
Q 353 888 353 1747 
Q 353 2609 779 3096 
Q 1206 3584 1959 3584 
z
" transform="scale(0.015625)"/>
       <path id="DejaVuSans-63" d="M 3122 3366 
L 3122 2828 
Q 2878 2963 2633 3030 
Q 2388 3097 2138 3097 
Q 1578 3097 1268 2742 
Q 959 2388 959 1747 
Q 959 1106 1268 751 
Q 1578 397 2138 397 
Q 2388 397 2633 464 
Q 2878 531 3122 666 
L 3122 134 
Q 2881 22 2623 -34 
Q 2366 -91 2075 -91 
Q 1284 -91 818 406 
Q 353 903 353 1747 
Q 353 2603 823 3093 
Q 1294 3584 2113 3584 
Q 2378 3584 2631 3529 
Q 2884 3475 3122 3366 
z
" transform="scale(0.015625)"/>
       <path id="DejaVuSans-68" d="M 3513 2113 
L 3513 0 
L 2938 0 
L 2938 2094 
Q 2938 2591 2744 2837 
Q 2550 3084 2163 3084 
Q 1697 3084 1428 2787 
Q 1159 2491 1159 1978 
L 1159 0 
L 581 0 
L 581 4863 
L 1159 4863 
L 1159 2956 
Q 1366 3272 1645 3428 
Q 1925 3584 2291 3584 
Q 2894 3584 3203 3211 
Q 3513 2838 3513 2113 
z
" transform="scale(0.015625)"/>
       <path id="DejaVuSans-73" d="M 2834 3397 
L 2834 2853 
Q 2591 2978 2328 3040 
Q 2066 3103 1784 3103 
Q 1356 3103 1142 2972 
Q 928 2841 928 2578 
Q 928 2378 1081 2264 
Q 1234 2150 1697 2047 
L 1894 2003 
Q 2506 1872 2764 1633 
Q 3022 1394 3022 966 
Q 3022 478 2636 193 
Q 2250 -91 1575 -91 
Q 1294 -91 989 -36 
Q 684 19 347 128 
L 347 722 
Q 666 556 975 473 
Q 1284 391 1588 391 
Q 1994 391 2212 530 
Q 2431 669 2431 922 
Q 2431 1156 2273 1281 
Q 2116 1406 1581 1522 
L 1381 1569 
Q 847 1681 609 1914 
Q 372 2147 372 2553 
Q 372 3047 722 3315 
Q 1072 3584 1716 3584 
Q 2034 3584 2315 3537 
Q 2597 3491 2834 3397 
z
" transform="scale(0.015625)"/>
      </defs>
      <use xlink:href="#DejaVuSans-45"/>
      <use xlink:href="#DejaVuSans-70" transform="translate(63.183594 0)"/>
      <use xlink:href="#DejaVuSans-6f" transform="translate(126.660156 0)"/>
      <use xlink:href="#DejaVuSans-63" transform="translate(187.841797 0)"/>
      <use xlink:href="#DejaVuSans-68" transform="translate(242.822266 0)"/>
      <use xlink:href="#DejaVuSans-73" transform="translate(306.201172 0)"/>
     </g>
    </g>
   </g>
   <g id="matplotlib.axis_2">
    <g id="ytick_1">
     <g id="line2d_19">
      <path d="M 50.14375 575.645734 
L 608.14375 575.645734 
" clip-path="url(#p557e40ed0e)" style="fill: none; stroke: #b0b0b0; stroke-width: 0.8; stroke-linecap: square"/>
     </g>
     <g id="line2d_20">
      <defs>
       <path id="mc83572a9b2" d="M 0 0 
L -3.5 0 
" style="stroke: #000000; stroke-width: 0.8"/>
      </defs>
      <g>
       <use xlink:href="#mc83572a9b2" x="50.14375" y="575.645734" style="stroke: #000000; stroke-width: 0.8"/>
      </g>
     </g>
     <g id="text_11">
      <!-- 1.65 -->
      <g transform="translate(20.878125 579.444952) scale(0.1 -0.1)">
       <defs>
        <path id="DejaVuSans-2e" d="M 684 794 
L 1344 794 
L 1344 0 
L 684 0 
L 684 794 
z
" transform="scale(0.015625)"/>
       </defs>
       <use xlink:href="#DejaVuSans-31"/>
       <use xlink:href="#DejaVuSans-2e" transform="translate(63.623047 0)"/>
       <use xlink:href="#DejaVuSans-36" transform="translate(95.410156 0)"/>
       <use xlink:href="#DejaVuSans-35" transform="translate(159.033203 0)"/>
      </g>
     </g>
    </g>
    <g id="ytick_2">
     <g id="line2d_21">
      <path d="M 50.14375 485.531125 
L 608.14375 485.531125 
" clip-path="url(#p557e40ed0e)" style="fill: none; stroke: #b0b0b0; stroke-width: 0.8; stroke-linecap: square"/>
     </g>
     <g id="line2d_22">
      <g>
       <use xlink:href="#mc83572a9b2" x="50.14375" y="485.531125" style="stroke: #000000; stroke-width: 0.8"/>
      </g>
     </g>
     <g id="text_12">
      <!-- 1.70 -->
      <g transform="translate(20.878125 489.330344) scale(0.1 -0.1)">
       <use xlink:href="#DejaVuSans-31"/>
       <use xlink:href="#DejaVuSans-2e" transform="translate(63.623047 0)"/>
       <use xlink:href="#DejaVuSans-37" transform="translate(95.410156 0)"/>
       <use xlink:href="#DejaVuSans-30" transform="translate(159.033203 0)"/>
      </g>
     </g>
    </g>
    <g id="ytick_3">
     <g id="line2d_23">
      <path d="M 50.14375 395.416516 
L 608.14375 395.416516 
" clip-path="url(#p557e40ed0e)" style="fill: none; stroke: #b0b0b0; stroke-width: 0.8; stroke-linecap: square"/>
     </g>
     <g id="line2d_24">
      <g>
       <use xlink:href="#mc83572a9b2" x="50.14375" y="395.416516" style="stroke: #000000; stroke-width: 0.8"/>
      </g>
     </g>
     <g id="text_13">
      <!-- 1.75 -->
      <g transform="translate(20.878125 399.215735) scale(0.1 -0.1)">
       <use xlink:href="#DejaVuSans-31"/>
       <use xlink:href="#DejaVuSans-2e" transform="translate(63.623047 0)"/>
       <use xlink:href="#DejaVuSans-37" transform="translate(95.410156 0)"/>
       <use xlink:href="#DejaVuSans-35" transform="translate(159.033203 0)"/>
      </g>
     </g>
    </g>
    <g id="ytick_4">
     <g id="line2d_25">
      <path d="M 50.14375 305.301908 
L 608.14375 305.301908 
" clip-path="url(#p557e40ed0e)" style="fill: none; stroke: #b0b0b0; stroke-width: 0.8; stroke-linecap: square"/>
     </g>
     <g id="line2d_26">
      <g>
       <use xlink:href="#mc83572a9b2" x="50.14375" y="305.301908" style="stroke: #000000; stroke-width: 0.8"/>
      </g>
     </g>
     <g id="text_14">
      <!-- 1.80 -->
      <g transform="translate(20.878125 309.101126) scale(0.1 -0.1)">
       <use xlink:href="#DejaVuSans-31"/>
       <use xlink:href="#DejaVuSans-2e" transform="translate(63.623047 0)"/>
       <use xlink:href="#DejaVuSans-38" transform="translate(95.410156 0)"/>
       <use xlink:href="#DejaVuSans-30" transform="translate(159.033203 0)"/>
      </g>
     </g>
    </g>
    <g id="ytick_5">
     <g id="line2d_27">
      <path d="M 50.14375 215.187299 
L 608.14375 215.187299 
" clip-path="url(#p557e40ed0e)" style="fill: none; stroke: #b0b0b0; stroke-width: 0.8; stroke-linecap: square"/>
     </g>
     <g id="line2d_28">
      <g>
       <use xlink:href="#mc83572a9b2" x="50.14375" y="215.187299" style="stroke: #000000; stroke-width: 0.8"/>
      </g>
     </g>
     <g id="text_15">
      <!-- 1.85 -->
      <g transform="translate(20.878125 218.986518) scale(0.1 -0.1)">
       <use xlink:href="#DejaVuSans-31"/>
       <use xlink:href="#DejaVuSans-2e" transform="translate(63.623047 0)"/>
       <use xlink:href="#DejaVuSans-38" transform="translate(95.410156 0)"/>
       <use xlink:href="#DejaVuSans-35" transform="translate(159.033203 0)"/>
      </g>
     </g>
    </g>
    <g id="ytick_6">
     <g id="line2d_29">
      <path d="M 50.14375 125.07269 
L 608.14375 125.07269 
" clip-path="url(#p557e40ed0e)" style="fill: none; stroke: #b0b0b0; stroke-width: 0.8; stroke-linecap: square"/>
     </g>
     <g id="line2d_30">
      <g>
       <use xlink:href="#mc83572a9b2" x="50.14375" y="125.07269" style="stroke: #000000; stroke-width: 0.8"/>
      </g>
     </g>
     <g id="text_16">
      <!-- 1.90 -->
      <g transform="translate(20.878125 128.871909) scale(0.1 -0.1)">
       <defs>
        <path id="DejaVuSans-39" d="M 703 97 
L 703 672 
Q 941 559 1184 500 
Q 1428 441 1663 441 
Q 2288 441 2617 861 
Q 2947 1281 2994 2138 
Q 2813 1869 2534 1725 
Q 2256 1581 1919 1581 
Q 1219 1581 811 2004 
Q 403 2428 403 3163 
Q 403 3881 828 4315 
Q 1253 4750 1959 4750 
Q 2769 4750 3195 4129 
Q 3622 3509 3622 2328 
Q 3622 1225 3098 567 
Q 2575 -91 1691 -91 
Q 1453 -91 1209 -44 
Q 966 3 703 97 
z
M 1959 2075 
Q 2384 2075 2632 2365 
Q 2881 2656 2881 3163 
Q 2881 3666 2632 3958 
Q 2384 4250 1959 4250 
Q 1534 4250 1286 3958 
Q 1038 3666 1038 3163 
Q 1038 2656 1286 2365 
Q 1534 2075 1959 2075 
z
" transform="scale(0.015625)"/>
       </defs>
       <use xlink:href="#DejaVuSans-31"/>
       <use xlink:href="#DejaVuSans-2e" transform="translate(63.623047 0)"/>
       <use xlink:href="#DejaVuSans-39" transform="translate(95.410156 0)"/>
       <use xlink:href="#DejaVuSans-30" transform="translate(159.033203 0)"/>
      </g>
     </g>
    </g>
    <g id="ytick_7">
     <g id="line2d_31">
      <path d="M 50.14375 34.958082 
L 608.14375 34.958082 
" clip-path="url(#p557e40ed0e)" style="fill: none; stroke: #b0b0b0; stroke-width: 0.8; stroke-linecap: square"/>
     </g>
     <g id="line2d_32">
      <g>
       <use xlink:href="#mc83572a9b2" x="50.14375" y="34.958082" style="stroke: #000000; stroke-width: 0.8"/>
      </g>
     </g>
     <g id="text_17">
      <!-- 1.95 -->
      <g transform="translate(20.878125 38.7573) scale(0.1 -0.1)">
       <use xlink:href="#DejaVuSans-31"/>
       <use xlink:href="#DejaVuSans-2e" transform="translate(63.623047 0)"/>
       <use xlink:href="#DejaVuSans-39" transform="translate(95.410156 0)"/>
       <use xlink:href="#DejaVuSans-35" transform="translate(159.033203 0)"/>
      </g>
     </g>
    </g>
    <g id="text_18">
     <!-- Loss -->
     <g transform="translate(14.798437 310.485313) rotate(-90) scale(0.1 -0.1)">
      <defs>
       <path id="DejaVuSans-4c" d="M 628 4666 
L 1259 4666 
L 1259 531 
L 3531 531 
L 3531 0 
L 628 0 
L 628 4666 
z
" transform="scale(0.015625)"/>
      </defs>
      <use xlink:href="#DejaVuSans-4c"/>
      <use xlink:href="#DejaVuSans-6f" transform="translate(53.962891 0)"/>
      <use xlink:href="#DejaVuSans-73" transform="translate(115.144531 0)"/>
      <use xlink:href="#DejaVuSans-73" transform="translate(167.244141 0)"/>
     </g>
    </g>
   </g>
   <g id="line2d_33">
    <path d="M 75.507386 334.507195 
L 76.142271 373.150755 
L 76.777155 388.249551 
L 77.41204 396.857945 
L 78.046924 402.750205 
L 78.681809 407.538566 
L 79.316693 406.808291 
L 79.951578 413.955705 
L 80.586462 416.085298 
L 81.221347 417.445513 
L 82.491116 421.516276 
L 83.126001 422.531012 
L 84.39577 426.010078 
L 85.030654 427.054249 
L 85.665539 428.747051 
L 87.570192 432.298521 
L 88.205077 434.147305 
L 88.839961 434.942465 
L 89.474846 436.604115 
L 90.10973 437.379294 
L 90.744615 438.787635 
L 91.379499 440.5204 
L 92.014384 440.743844 
L 93.284153 443.830808 
L 93.919037 444.385336 
L 94.553922 445.412534 
L 95.188806 447.101684 
L 95.823691 447.640098 
L 96.458575 449.673009 
L 97.09346 450.621357 
L 97.728344 450.617919 
L 99.632998 454.656024 
L 100.267882 455.11301 
L 100.902767 456.395879 
L 101.537651 456.668739 
L 102.172536 457.752442 
L 102.80742 458.308044 
L 103.442305 459.44546 
L 104.07719 460.0754 
L 104.712074 461.730604 
L 105.346959 462.119697 
L 107.886497 464.382927 
L 108.521381 465.018453 
L 109.156266 465.924261 
L 109.79115 466.10366 
L 110.426035 467.185215 
L 111.060919 467.010757 
L 111.695804 467.998422 
L 113.600457 470.289582 
L 114.235342 470.52871 
L 114.870226 470.903838 
L 116.139995 472.142448 
L 116.77488 473.585596 
L 117.409764 473.815055 
L 118.044649 473.818063 
L 119.314418 475.361545 
L 119.949302 475.296446 
L 120.584187 475.804996 
L 121.219071 476.708655 
L 121.853956 476.595644 
L 122.48884 477.457837 
L 123.123725 477.409495 
L 123.758609 478.56281 
L 125.663263 479.868668 
L 126.298148 479.62954 
L 127.567917 480.845806 
L 128.202801 481.192788 
L 128.837686 480.701856 
L 129.47257 482.095588 
L 130.742339 482.370596 
L 132.012108 483.991424 
L 132.646993 483.120637 
L 133.281877 484.775412 
L 133.916762 484.454211 
L 134.551646 484.465383 
L 135.186531 486.055273 
L 135.821415 485.934098 
L 136.4563 486.474445 
L 137.091184 486.215336 
L 137.726069 486.230805 
L 138.360953 486.866546 
L 138.995838 486.948619 
L 139.630722 487.483381 
L 140.900491 487.973024 
L 141.535376 488.558705 
L 142.17026 489.475255 
L 142.805145 489.064891 
L 143.440029 489.425195 
L 144.074914 489.985523 
L 144.709798 489.693972 
L 145.344683 490.573998 
L 145.979567 491.261303 
L 147.249337 490.652847 
L 147.884221 491.858156 
L 148.519106 492.258206 
L 149.15399 492.28936 
L 149.788875 491.955913 
L 150.423759 492.982251 
L 151.058644 492.666851 
L 151.693528 493.030377 
L 152.328413 493.611976 
L 153.598182 494.045114 
L 154.233066 494.025777 
L 154.867951 495.2747 
L 155.502835 494.944046 
L 156.13772 494.890763 
L 156.772604 495.416286 
L 157.407489 495.723522 
L 158.042373 495.681626 
L 158.677258 495.506523 
L 159.312142 495.632425 
L 160.581911 496.94258 
L 161.216796 496.12701 
L 161.85168 498.043042 
L 162.486565 497.88126 
L 163.121449 497.948078 
L 163.756334 497.867724 
L 164.391218 498.280451 
L 165.026103 498.481121 
L 165.660987 498.316116 
L 166.295872 498.319554 
L 166.930756 499.853368 
L 167.565641 499.131472 
L 168.200526 499.959718 
L 168.83541 500.33721 
L 169.470295 499.467497 
L 170.105179 500.539169 
L 170.740064 500.366215 
L 171.374948 500.47321 
L 172.009833 500.903769 
L 172.644717 500.683118 
L 173.279602 502.521589 
L 173.914486 501.328742 
L 174.549371 502.170739 
L 175.184255 501.496755 
L 175.81914 501.388256 
L 176.454024 502.766089 
L 177.088909 501.787447 
L 177.723793 502.648566 
L 178.358678 502.32006 
L 178.993562 503.160983 
L 179.628447 502.452623 
L 180.263331 503.759555 
L 180.898216 504.019094 
L 181.5331 503.327921 
L 182.802869 504.641299 
L 183.437754 504.498424 
L 184.072638 503.843561 
L 184.707523 504.5979 
L 185.342407 504.127808 
L 185.977292 505.02717 
L 186.612176 504.623896 
L 187.247061 505.124067 
L 187.881945 505.920516 
L 188.51683 505.24954 
L 189.151715 506.664541 
L 189.786599 506.202399 
L 190.421484 506.63081 
L 191.691253 506.418968 
L 192.326137 506.48772 
L 192.961022 507.447455 
L 193.595906 507.327568 
L 194.230791 507.628573 
L 194.865675 507.191783 
L 195.50056 508.069445 
L 196.135444 507.503745 
L 196.770329 508.372599 
L 197.405213 508.299979 
L 198.040098 507.913679 
L 198.674982 508.912946 
L 199.944751 508.539107 
L 200.579636 509.555348 
L 201.21452 508.740637 
L 201.849405 509.81768 
L 202.484289 509.368858 
L 203.119174 510.294217 
L 203.754058 509.86774 
L 204.388943 510.56858 
L 205.023827 509.559215 
L 205.658712 510.888707 
L 206.293596 510.931462 
L 206.928481 511.232896 
L 207.563365 509.788245 
L 208.19825 511.140296 
L 208.833134 511.216997 
L 209.468019 510.514868 
L 210.102903 510.924587 
L 210.737788 512.248277 
L 211.372673 512.254723 
L 212.642442 511.707285 
L 213.277326 512.474514 
L 213.912211 512.693876 
L 214.547095 512.645965 
L 215.18198 513.150217 
L 215.816864 512.792063 
L 216.451749 512.741358 
L 217.086633 513.50386 
L 217.721518 513.625036 
L 218.356402 513.305769 
L 218.991287 513.339715 
L 219.626171 513.872543 
L 220.261056 513.742989 
L 220.89594 514.039481 
L 221.530825 513.948815 
L 222.165709 513.568101 
L 222.800594 515.259614 
L 223.435478 513.962995 
L 224.070363 513.623102 
L 224.705247 515.133498 
L 225.340132 514.857845 
L 226.609901 515.528392 
L 227.244785 514.940992 
L 227.87967 515.742597 
L 228.514554 514.925308 
L 229.149439 515.985378 
L 229.784323 515.799318 
L 230.419208 516.549359 
L 231.688977 516.331931 
L 232.323862 516.945972 
L 232.958746 515.705428 
L 233.593631 516.116006 
L 234.228515 516.158762 
L 234.8634 517.208948 
L 236.133169 517.267173 
L 236.768053 516.82716 
L 237.402938 516.922553 
L 238.037822 517.418212 
L 238.672707 517.606636 
L 239.307591 517.080683 
L 239.942476 518.445839 
L 241.212245 516.685789 
L 241.847129 517.265024 
L 242.482014 518.395135 
L 243.116898 518.075653 
L 243.751783 518.037839 
L 244.386667 517.856936 
L 245.021552 517.462041 
L 245.656436 518.947084 
L 246.291321 518.759735 
L 246.926205 519.510206 
L 247.56109 518.696999 
L 248.195974 518.683893 
L 249.465743 519.535988 
L 250.100628 518.77456 
L 250.735512 518.96771 
L 251.370397 519.306314 
L 252.005281 518.909915 
L 252.640166 520.253372 
L 253.27505 520.430838 
L 253.909935 519.600014 
L 254.54482 520.272494 
L 255.179704 519.650718 
L 255.814589 520.785341 
L 256.449473 520.013385 
L 257.084358 520.329859 
L 257.719242 521.012867 
L 258.354127 520.039597 
L 258.989011 520.351988 
L 259.623896 522.120204 
L 260.25878 520.976128 
L 260.893665 521.450516 
L 261.528549 522.166826 
L 262.163434 522.186163 
L 262.798318 521.220627 
L 263.433203 522.184014 
L 264.068087 520.537189 
L 264.702972 523.007534 
L 265.337856 521.329556 
L 265.972741 522.86337 
L 266.607625 521.769998 
L 267.24251 522.862295 
L 267.877394 522.883351 
L 268.512279 522.187667 
L 269.147163 523.156855 
L 269.782048 522.44742 
L 270.416932 522.66313 
L 271.686701 522.544103 
L 272.321586 523.680874 
L 272.95647 522.984115 
L 273.591355 522.514024 
L 274.226239 523.893575 
L 274.861124 524.072975 
L 275.496009 522.786024 
L 276.130893 523.516084 
L 276.765778 523.934612 
L 277.400662 524.566056 
L 278.670431 524.477538 
L 279.305316 524.58088 
L 279.9402 523.8867 
L 280.575085 523.425202 
L 281.209969 524.379996 
L 281.844854 524.441872 
L 282.479738 525.464988 
L 283.114623 525.300413 
L 283.749507 524.679926 
L 284.384392 525.801013 
L 285.019276 524.418454 
L 286.289045 525.779743 
L 286.92393 525.794568 
L 287.558814 524.542207 
L 288.193699 526.232002 
L 288.828583 525.923693 
L 289.463468 524.293196 
L 290.098352 525.595187 
L 291.368121 526.360912 
L 292.003006 525.097165 
L 292.63789 526.064634 
L 293.272775 525.797576 
L 293.907659 526.793835 
L 294.542544 526.301184 
L 295.177428 527.608761 
L 295.812313 527.146189 
L 296.447197 526.90878 
L 297.082082 526.983762 
L 297.716967 526.665999 
L 298.351851 526.907276 
L 298.986736 526.896963 
L 299.62162 527.485007 
L 300.256505 526.42902 
L 300.891389 524.426188 
L 301.526274 528.187352 
L 302.161158 526.194404 
L 302.796043 527.260059 
L 303.430927 527.83994 
L 304.065812 527.303029 
L 304.700696 528.948136 
L 305.335581 527.154353 
L 305.970465 528.041684 
L 306.60535 528.672913 
L 307.240234 527.510145 
L 307.875119 527.38059 
L 308.510003 528.606309 
L 309.144888 528.382436 
L 309.779772 528.411655 
L 310.414657 527.87582 
L 311.049541 527.7323 
L 311.684426 528.766373 
L 312.31931 529.420376 
L 312.954195 529.742436 
L 313.589079 529.272129 
L 314.223964 529.840622 
L 314.858848 528.205185 
L 315.493733 529.27922 
L 316.128617 529.735776 
L 316.763502 530.544901 
L 317.398386 529.346468 
L 318.033271 530.585937 
L 318.668156 528.855535 
L 319.30304 529.918613 
L 319.937925 529.760913 
L 320.572809 530.33843 
L 321.842578 529.321115 
L 322.477463 530.693577 
L 323.112347 529.691302 
L 323.747232 530.006487 
L 324.382116 529.909804 
L 325.017001 530.712699 
L 325.651885 530.65297 
L 326.28677 529.78734 
L 326.921654 530.250771 
L 327.556539 531.018645 
L 328.191423 531.532996 
L 328.826308 530.314367 
L 329.461192 530.950108 
L 330.096077 529.997463 
L 331.365846 531.249823 
L 332.00073 531.610342 
L 332.635615 531.326955 
L 333.270499 530.467125 
L 333.905384 530.762973 
L 334.540268 530.920458 
L 335.175153 531.883201 
L 335.810037 532.179909 
L 336.444922 531.29752 
L 337.079806 531.569305 
L 337.714691 531.986759 
L 338.349575 532.853249 
L 338.98446 532.300655 
L 339.619344 531.490885 
L 340.254229 532.362317 
L 340.889114 531.604756 
L 341.523998 531.233065 
L 342.158883 532.002443 
L 342.793767 532.045843 
L 343.428652 532.714671 
L 344.698421 530.694866 
L 345.333305 531.916718 
L 345.96819 532.799321 
L 346.603074 533.220427 
L 347.237959 533.134273 
L 347.872843 533.183688 
L 348.507728 533.922127 
L 349.142612 533.088509 
L 349.777497 532.450835 
L 350.412381 533.691378 
L 351.047266 532.668263 
L 351.68215 533.056927 
L 352.317035 532.939618 
L 352.951919 533.037805 
L 353.586804 533.935233 
L 354.221688 533.181969 
L 354.856573 534.675176 
L 355.491457 533.661944 
L 356.126342 534.017521 
L 356.761226 534.938583 
L 358.030995 534.812251 
L 358.66588 532.827467 
L 359.300764 534.917957 
L 359.935649 533.710285 
L 360.570533 534.271903 
L 361.205418 534.322608 
L 361.840303 535.110463 
L 362.475187 534.419505 
L 363.110072 535.275038 
L 363.744956 534.925477 
L 364.379841 534.92827 
L 365.64961 535.219391 
L 366.284494 533.548503 
L 366.919379 534.749729 
L 368.189148 535.916794 
L 368.824032 535.014639 
L 369.458917 534.912586 
L 370.093801 535.124428 
L 370.728686 535.819682 
L 371.36357 534.937938 
L 371.998455 535.808725 
L 372.633339 535.29373 
L 373.268224 536.043556 
L 373.903108 534.656485 
L 374.537993 535.998437 
L 375.172877 535.481508 
L 375.807762 536.467885 
L 376.442646 535.767474 
L 377.077531 536.061603 
L 377.712415 536.019493 
L 378.3473 536.348213 
L 378.982184 535.241951 
L 379.617069 536.866002 
L 380.251953 536.278172 
L 380.886838 536.205983 
L 381.521722 536.443607 
L 382.156607 536.251316 
L 382.791491 537.11888 
L 383.426376 536.6041 
L 384.061261 536.527828 
L 384.696145 535.895095 
L 385.33103 537.783411 
L 385.965914 537.547291 
L 386.600799 536.607322 
L 387.235683 538.086994 
L 387.870568 536.941844 
L 388.505452 536.780276 
L 389.140337 537.604871 
L 389.775221 537.074836 
L 390.410106 538.217193 
L 391.04499 537.292264 
L 391.679875 536.851392 
L 392.314759 538.296258 
L 392.949644 537.226305 
L 394.219413 536.927449 
L 394.854297 538.195278 
L 395.489182 537.438792 
L 396.124066 538.734337 
L 396.758951 538.503158 
L 397.393835 539.303475 
L 398.02872 538.884302 
L 398.663604 537.837338 
L 399.298489 537.614539 
L 400.568258 538.564176 
L 401.203142 538.645174 
L 401.838027 538.109338 
L 402.472911 539.283923 
L 403.74268 538.654413 
L 404.377565 538.886451 
L 405.647334 539.91902 
L 406.282219 539.059835 
L 407.551988 538.693086 
L 408.186872 538.055196 
L 408.821757 539.936637 
L 409.456641 538.394229 
L 410.091526 539.740909 
L 410.72641 539.331835 
L 411.361295 539.688486 
L 411.996179 540.230767 
L 412.631064 538.899557 
L 413.265948 540.01205 
L 413.900833 537.966463 
L 414.535717 538.946824 
L 415.170602 539.541958 
L 415.805486 539.881421 
L 416.440371 539.882066 
L 417.71014 539.419923 
L 418.345024 539.951247 
L 418.979909 539.685907 
L 419.614793 539.252985 
L 420.249678 540.527905 
L 420.884562 539.740909 
L 421.519447 539.71749 
L 422.154331 539.477288 
L 422.789216 539.765832 
L 423.4241 541.18556 
L 424.058985 540.105295 
L 424.693869 540.266647 
L 425.328754 540.900025 
L 425.963638 540.396846 
L 426.598523 541.496663 
L 427.233408 540.328309 
L 427.868292 540.857699 
L 428.503177 540.890571 
L 429.138061 540.616852 
L 429.772946 541.084581 
L 430.40783 539.934059 
L 431.042715 541.993181 
L 431.677599 542.064297 
L 432.312484 540.192524 
L 432.947368 542.49679 
L 433.582253 540.278464 
L 434.217137 540.99327 
L 434.852022 542.196 
L 435.486906 540.329813 
L 436.121791 541.236695 
L 436.756675 540.8143 
L 437.39156 542.6532 
L 438.026444 541.074268 
L 438.661329 541.911968 
L 439.296213 541.874369 
L 439.931098 543.324607 
L 440.565982 542.207602 
L 441.200867 542.922622 
L 441.835751 540.897232 
L 442.470636 542.116505 
L 443.10552 541.969118 
L 443.740405 541.697548 
L 444.375289 541.122824 
L 445.010174 540.725781 
L 445.645058 542.265826 
L 446.279943 540.953737 
L 446.914827 542.070742 
L 447.549712 542.447589 
L 448.184597 542.136916 
L 448.819481 541.621491 
L 449.454366 543.674382 
L 450.08925 541.878022 
L 450.724135 542.576069 
L 451.359019 543.863665 
L 451.993904 543.129738 
L 452.628788 543.125655 
L 453.263673 542.775235 
L 453.898557 541.846868 
L 454.533442 543.773643 
L 455.803211 541.849017 
L 456.438095 543.373378 
L 457.07298 543.114698 
L 457.707864 542.642458 
L 458.342749 543.090205 
L 458.977633 543.35533 
L 459.612518 543.876341 
L 460.247402 544.187229 
L 461.517171 542.872777 
L 462.152056 544.55892 
L 462.78694 543.197845 
L 463.421825 543.884935 
L 464.056709 543.031336 
L 464.691594 543.099014 
L 465.326478 542.99696 
L 465.961363 543.648385 
L 466.596247 541.983943 
L 467.231132 543.005554 
L 467.866016 542.793712 
L 468.500901 544.917289 
L 469.135785 543.728954 
L 469.77067 544.160373 
L 471.675324 543.920386 
L 472.310208 544.63068 
L 472.945093 544.918793 
L 473.579977 544.129005 
L 474.214862 544.977018 
L 474.849746 544.50134 
L 475.484631 544.689119 
L 476.119515 544.404443 
L 476.7544 545.605239 
L 477.389284 543.435039 
L 478.024169 545.837277 
L 478.659053 544.78795 
L 479.293938 544.953814 
L 479.928822 544.025232 
L 480.563707 544.611988 
L 481.198591 544.339343 
L 481.833476 544.648082 
L 482.46836 544.043709 
L 483.738129 545.49674 
L 484.373014 545.695046 
L 485.007898 544.517454 
L 485.642783 545.542503 
L 486.277667 545.909252 
L 486.912552 544.671286 
L 487.547436 544.533138 
L 488.182321 545.444746 
L 488.817205 544.270591 
L 489.45209 544.804063 
L 490.086974 545.597504 
L 490.721859 544.213871 
L 491.356744 544.523899 
L 491.991628 546.264614 
L 492.626513 545.705574 
L 493.896282 545.192727 
L 494.531166 546.885745 
L 495.166051 545.912689 
L 495.800935 545.620923 
L 496.43582 546.416298 
L 497.070704 545.644986 
L 497.705589 545.484923 
L 498.340473 546.106914 
L 498.975358 546.098535 
L 499.610242 546.864475 
L 500.245127 545.686023 
L 500.880011 545.353435 
L 501.514896 547.212102 
L 502.14978 546.340885 
L 502.784665 546.595912 
L 503.419549 547.006276 
L 504.054434 545.407577 
L 504.689318 546.636089 
L 505.324203 547.332203 
L 505.959087 546.500949 
L 506.593972 546.772519 
L 507.228856 547.537385 
L 507.863741 544.70824 
L 508.498625 546.114219 
L 509.13351 545.750907 
L 509.768394 547.103818 
L 510.403279 547.109833 
L 511.038163 545.991754 
L 511.673048 545.848449 
L 512.307933 546.646617 
L 512.942817 547.690143 
L 513.577702 545.684519 
L 514.212586 548.000601 
L 514.847471 546.288462 
L 515.482355 545.989606 
L 516.11724 548.580911 
L 516.752124 546.896058 
L 517.387009 548.287211 
L 518.021893 547.613871 
L 518.656778 547.255287 
L 519.291662 546.320904 
L 519.926547 547.65899 
L 520.561431 545.858547 
L 521.196316 546.483331 
L 521.8312 547.820557 
L 522.466085 547.568108 
L 523.100969 546.898851 
L 523.735854 547.029265 
L 524.370738 549.184639 
L 525.005623 548.03777 
L 525.640507 547.940228 
L 526.275392 547.461758 
L 526.910276 547.524709 
L 527.545161 547.925189 
L 528.81493 547.467344 
L 529.449814 548.143477 
L 530.084699 547.637935 
L 530.719583 549.014693 
L 531.354468 549.14833 
L 531.989352 547.033347 
L 532.624237 546.999615 
L 533.259121 547.52965 
L 533.894006 549.128349 
L 534.528891 548.022731 
L 535.163775 548.444266 
L 535.79866 547.989644 
L 536.433544 548.97645 
L 537.068429 548.656323 
L 537.703313 549.440741 
L 538.338198 547.416424 
L 538.973082 548.621947 
L 539.607967 548.028961 
L 540.242851 547.759325 
L 540.877736 548.558137 
L 541.51262 547.983628 
L 542.782389 548.555344 
L 543.417274 547.667584 
L 544.052158 547.930131 
L 544.687043 549.204191 
L 545.321927 549.174327 
L 545.956812 547.908216 
L 546.591696 547.932924 
L 547.226581 548.547609 
L 547.861465 548.477139 
L 548.49635 549.352652 
L 549.131234 549.494668 
L 549.766119 549.131142 
L 550.401003 548.396785 
L 551.035888 549.764734 
L 552.305657 547.99523 
L 552.940541 549.481777 
L 553.575426 549.331382 
L 554.21031 549.668696 
L 554.845195 549.764734 
L 555.48008 549.038112 
L 556.114964 548.607338 
L 556.749849 549.911477 
L 557.384733 549.541076 
L 558.019618 549.716608 
L 558.654502 549.47705 
L 559.289387 549.71403 
L 559.924271 548.073435 
L 560.559156 550.914826 
L 561.19404 548.606908 
L 561.828925 549.446112 
L 562.463809 548.808867 
L 563.098694 550.338599 
L 563.733578 549.948646 
L 564.368463 550.958011 
L 565.003347 548.407957 
L 565.638232 550.710934 
L 566.273116 548.736892 
L 566.908001 549.531837 
L 567.542885 549.074421 
L 568.17777 551.09573 
L 568.812654 550.539054 
L 569.447539 549.660747 
L 570.082423 549.79288 
L 570.717308 548.692418 
L 571.352192 550.434207 
L 571.987077 549.970346 
L 572.621961 551.172002 
L 573.256846 550.34354 
L 573.89173 551.063288 
L 574.526615 549.827685 
L 575.161499 549.044342 
L 575.796384 550.427976 
L 576.431268 550.032867 
L 577.066153 551.357632 
L 577.701038 551.094226 
L 578.335922 550.501025 
L 578.970807 551.518125 
L 579.605691 550.531319 
L 580.240576 550.248791 
L 580.87546 550.446453 
L 581.510345 550.332368 
L 582.145229 550.7741 
L 582.780114 550.971762 
L 582.780114 550.971762 
" clip-path="url(#p557e40ed0e)" style="fill: none; stroke: #1f77b4; stroke-width: 1.5; stroke-linecap: square"/>
   </g>
   <g id="line2d_34">
    <path d="M 75.507386 367.417698 
L 76.777155 394.699132 
L 77.41204 396.779095 
L 78.046924 401.033984 
L 78.681809 398.56106 
L 79.316693 405.549485 
L 79.951578 400.752745 
L 80.586462 402.232202 
L 81.221347 410.685689 
L 81.856232 406.970503 
L 82.491116 411.838789 
L 83.126001 410.101941 
L 83.760885 406.113037 
L 84.39577 410.231281 
L 85.030654 416.376205 
L 85.665539 414.584571 
L 86.300423 416.039105 
L 86.935308 413.107478 
L 87.570192 401.248619 
L 88.205077 400.283513 
L 88.839961 412.432634 
L 89.474846 412.9747 
L 90.10973 408.658794 
L 90.744615 416.378998 
L 91.379499 409.003843 
L 92.014384 407.977935 
L 92.649268 406.324664 
L 93.284153 413.910802 
L 93.919037 411.468172 
L 94.553922 405.869397 
L 95.188806 407.285903 
L 95.823691 406.485802 
L 96.458575 412.377847 
L 97.09346 409.499072 
L 97.728344 408.232102 
L 98.363229 411.66562 
L 98.998113 403.890414 
L 99.632998 407.9051 
L 100.267882 407.129277 
L 100.902767 407.284184 
L 101.537651 398.641629 
L 102.172536 392.791909 
L 102.80742 403.257251 
L 103.442305 395.374621 
L 104.07719 405.715564 
L 104.712074 396.954842 
L 105.346959 401.483665 
L 105.981843 394.990899 
L 106.616728 405.602339 
L 107.251612 402.92939 
L 107.886497 396.414924 
L 108.521381 400.954704 
L 109.156266 402.769757 
L 109.79115 393.741976 
L 110.426035 398.264997 
L 111.060919 398.105149 
L 111.695804 396.691436 
L 112.330688 400.338729 
L 112.965573 393.425931 
L 113.600457 398.36082 
L 114.235342 394.22947 
L 114.870226 392.732396 
L 115.505111 399.810628 
L 116.139995 395.723107 
L 116.77488 402.787589 
L 117.409764 396.553502 
L 118.044649 383.239679 
L 118.679533 373.941832 
L 119.314418 391.111353 
L 119.949302 397.091702 
L 120.584187 384.137108 
L 121.219071 389.717836 
L 121.853956 377.512639 
L 122.48884 398.428713 
L 123.123725 388.595245 
L 123.758609 391.965381 
L 124.393494 384.058902 
L 125.028379 379.924544 
L 125.663263 394.213786 
L 126.298148 369.344258 
L 126.933032 390.037103 
L 127.567917 380.027672 
L 128.202801 378.779824 
L 128.837686 386.08816 
L 129.47257 382.295629 
L 130.107455 375.751728 
L 130.742339 351.566712 
L 131.377224 378.101757 
L 132.012108 369.487133 
L 132.646993 381.01856 
L 133.281877 367.610848 
L 133.916762 371.551197 
L 134.551646 367.451 
L 135.186531 376.854338 
L 135.821415 362.828503 
L 136.4563 369.083645 
L 137.091184 382.05736 
L 137.726069 370.567399 
L 138.360953 381.934251 
L 138.995838 362.236806 
L 139.630722 371.982186 
L 140.265607 352.437928 
L 140.900491 370.312586 
L 142.17026 376.456436 
L 142.805145 370.800726 
L 143.440029 375.360701 
L 144.074914 363.750639 
L 144.709798 369.395177 
L 145.344683 357.905001 
L 145.979567 372.247955 
L 146.614452 373.025927 
L 147.249337 353.325259 
L 147.884221 341.463822 
L 148.519106 363.69929 
L 149.15399 344.360644 
L 149.788875 346.103077 
L 150.423759 349.596752 
L 151.058644 366.245047 
L 151.693528 363.222323 
L 152.328413 358.176571 
L 152.963297 351.237562 
L 153.598182 358.187314 
L 154.233066 356.999623 
L 154.867951 360.058442 
L 155.502835 354.531212 
L 156.13772 366.107758 
L 157.407489 334.48528 
L 158.042373 360.650568 
L 158.677258 356.823876 
L 159.312142 333.195106 
L 159.947027 343.964675 
L 160.581911 328.39235 
L 161.216796 341.393136 
L 161.85168 363.560282 
L 162.486565 345.953112 
L 163.121449 344.498148 
L 163.756334 357.317386 
L 164.391218 334.576376 
L 165.026103 344.959646 
L 165.660987 334.12691 
L 166.295872 337.312276 
L 166.930756 341.58822 
L 167.565641 344.657781 
L 168.200526 337.946298 
L 168.83541 344.754894 
L 169.470295 344.254723 
L 170.105179 354.076159 
L 170.740064 331.518631 
L 171.374948 322.652418 
L 172.009833 342.238786 
L 172.644717 334.531043 
L 173.279602 329.701216 
L 173.914486 334.431138 
L 174.549371 368.291063 
L 175.184255 343.125042 
L 175.81914 339.430696 
L 176.454024 342.187222 
L 177.088909 335.567694 
L 177.723793 348.545277 
L 178.358678 332.607706 
L 178.993562 328.743414 
L 179.628447 302.430309 
L 180.263331 335.646544 
L 180.898216 337.017931 
L 181.5331 317.248726 
L 182.167985 327.638011 
L 182.802869 324.606049 
L 183.437754 301.154959 
L 184.072638 313.566413 
L 184.707523 321.899583 
L 185.342407 315.734678 
L 185.977292 307.663839 
L 186.612176 326.863262 
L 187.247061 313.664169 
L 187.881945 339.633085 
L 188.51683 322.769081 
L 189.151715 338.347853 
L 189.786599 335.073969 
L 190.421484 334.914765 
L 191.056368 315.508441 
L 191.691253 340.817983 
L 192.326137 343.382002 
L 192.961022 315.807942 
L 193.595906 321.300152 
L 194.230791 311.319512 
L 194.865675 308.997628 
L 195.50056 325.092684 
L 196.135444 335.385716 
L 196.770329 350.809366 
L 197.405213 324.4679 
L 198.040098 319.720575 
L 198.674982 301.791345 
L 199.309867 325.59221 
L 199.944751 307.239296 
L 200.579636 297.541398 
L 201.21452 301.673392 
L 201.849405 325.052077 
L 202.484289 305.400825 
L 203.119174 292.142433 
L 203.754058 332.86746 
L 204.388943 321.148253 
L 205.023827 288.798293 
L 205.658712 324.409461 
L 206.293596 295.982876 
L 206.928481 288.13011 
L 207.563365 320.184221 
L 208.19825 284.649755 
L 208.833134 293.230433 
L 209.468019 307.391839 
L 210.102903 287.866919 
L 210.737788 296.265834 
L 211.372673 311.07802 
L 212.007557 305.838044 
L 212.642442 292.195071 
L 213.277326 330.044975 
L 213.912211 283.193502 
L 214.547095 312.256257 
L 215.18198 311.628681 
L 215.816864 306.401166 
L 217.086633 317.268492 
L 217.721518 305.239687 
L 218.356402 303.344066 
L 218.991287 295.086522 
L 219.626171 308.656231 
L 220.261056 330.712729 
L 220.89594 296.243919 
L 221.530825 312.783499 
L 222.165709 289.601188 
L 222.800594 283.652207 
L 223.435478 311.053098 
L 224.070363 301.176659 
L 224.705247 302.508299 
L 225.340132 300.770808 
L 225.975016 280.614658 
L 226.609901 311.938709 
L 227.244785 266.0908 
L 227.87967 297.596399 
L 228.514554 282.957382 
L 229.149439 326.224943 
L 229.784323 291.733359 
L 230.419208 299.822245 
L 231.054092 301.817986 
L 231.688977 286.996347 
L 232.323862 283.530387 
L 232.958746 299.763806 
L 233.593631 291.255317 
L 234.228515 307.29043 
L 234.8634 290.667488 
L 235.498284 262.235532 
L 236.133169 288.109699 
L 236.768053 290.280543 
L 237.402938 269.619711 
L 238.037822 289.154514 
L 238.672707 285.589294 
L 239.307591 280.165621 
L 239.942476 294.869094 
L 240.57736 270.536261 
L 241.212245 270.271351 
L 241.847129 279.434057 
L 242.482014 275.69932 
L 243.116898 286.135013 
L 243.751783 257.686514 
L 244.386667 280.013937 
L 245.021552 317.443165 
L 245.656436 280.03929 
L 246.291321 271.894327 
L 246.926205 296.374118 
L 247.56109 287.139866 
L 248.195974 281.208933 
L 248.830859 295.813574 
L 249.465743 284.967948 
L 250.100628 293.573549 
L 250.735512 284.980409 
L 251.370397 300.098112 
L 252.005281 273.526328 
L 252.640166 268.826699 
L 253.27505 252.718538 
L 253.909935 266.599779 
L 254.54482 296.793505 
L 255.179704 306.852136 
L 255.814589 274.491434 
L 256.449473 287.725762 
L 257.084358 295.002731 
L 257.719242 297.561164 
L 258.354127 256.471107 
L 258.989011 283.299853 
L 259.623896 252.484996 
L 260.25878 288.470217 
L 260.893665 275.798581 
L 261.528549 278.131207 
L 262.163434 254.814184 
L 262.798318 253.477818 
L 263.433203 279.893192 
L 264.068087 272.572609 
L 264.702972 277.09649 
L 265.337856 288.727822 
L 265.972741 254.01086 
L 266.607625 272.319301 
L 267.24251 258.812972 
L 267.877394 249.667668 
L 268.512279 278.894354 
L 269.147163 280.308067 
L 269.782048 265.275229 
L 270.416932 275.953058 
L 271.051817 268.901252 
L 271.686701 259.157162 
L 272.321586 245.495067 
L 272.95647 276.53079 
L 273.591355 288.171361 
L 274.226239 228.123588 
L 274.861124 257.534185 
L 275.496009 244.913253 
L 276.130893 235.848518 
L 276.765778 266.338522 
L 277.400662 239.787148 
L 278.670431 258.528511 
L 279.305316 261.552954 
L 279.9402 253.913318 
L 280.575085 267.325543 
L 281.209969 232.090577 
L 281.844854 245.128318 
L 282.479738 239.414383 
L 283.114623 258.073458 
L 283.749507 229.487455 
L 284.384392 211.549202 
L 285.019276 249.829021 
L 285.654161 228.929705 
L 286.289045 259.85392 
L 286.92393 249.571201 
L 287.558814 262.261959 
L 288.193699 272.164394 
L 288.828583 237.387489 
L 289.463468 264.982389 
L 290.098352 252.43558 
L 290.733237 206.336297 
L 291.368121 250.626329 
L 292.003006 259.752081 
L 292.63789 256.542867 
L 293.272775 245.13283 
L 293.907659 222.16988 
L 294.542544 254.363214 
L 295.177428 244.698403 
L 295.812313 241.570832 
L 296.447197 258.574703 
L 297.082082 255.825054 
L 298.351851 223.483902 
L 298.986736 266.321978 
L 299.62162 261.153118 
L 300.256505 274.41065 
L 300.891389 256.441888 
L 301.526274 248.037602 
L 302.161158 235.058945 
L 302.796043 260.643494 
L 303.430927 215.024615 
L 304.065812 240.955072 
L 304.700696 261.82259 
L 305.335581 216.67767 
L 305.970465 234.998357 
L 306.60535 232.767355 
L 307.240234 263.437618 
L 307.875119 248.369545 
L 308.510003 236.959078 
L 309.144888 239.906175 
L 309.779772 232.671961 
L 310.414657 245.765778 
L 311.049541 209.648424 
L 311.684426 255.183297 
L 312.31931 269.861202 
L 312.954195 278.845154 
L 313.589079 256.007891 
L 314.223964 202.699746 
L 314.858848 250.511169 
L 315.493733 248.646486 
L 316.128617 272.153007 
L 316.763502 211.828506 
L 317.398386 236.192708 
L 318.033271 252.474039 
L 318.668156 199.303613 
L 319.30304 201.921345 
L 320.572809 227.477749 
L 321.207694 225.780434 
L 321.842578 240.359508 
L 322.477463 228.71464 
L 323.112347 214.739509 
L 323.747232 213.015123 
L 324.382116 207.299469 
L 325.017001 216.036343 
L 325.651885 236.789131 
L 326.28677 222.907675 
L 326.921654 253.781615 
L 327.556539 238.224974 
L 328.191423 232.062647 
L 328.826308 242.041354 
L 329.461192 228.648896 
L 330.096077 260.646931 
L 330.730961 197.143941 
L 331.365846 242.731667 
L 332.00073 229.654179 
L 332.635615 204.009901 
L 333.270499 253.942968 
L 333.905384 220.631554 
L 334.540268 235.099551 
L 335.175153 221.05352 
L 335.810037 202.279714 
L 336.444922 243.362251 
L 337.079806 251.60583 
L 337.714691 187.180059 
L 338.349575 236.976695 
L 338.98446 213.689537 
L 339.619344 225.656036 
L 340.254229 253.770873 
L 340.889114 249.507175 
L 341.523998 221.07393 
L 342.158883 231.074552 
L 342.793767 203.468909 
L 343.428652 221.230556 
L 344.063536 202.153168 
L 344.698421 205.815286 
L 345.333305 223.640743 
L 345.96819 219.595118 
L 346.603074 217.948723 
L 347.237959 233.395361 
L 347.872843 217.354877 
L 348.507728 219.791491 
L 349.142612 192.628654 
L 349.777497 182.622876 
L 350.412381 223.660079 
L 351.047266 202.946179 
L 351.68215 188.651781 
L 352.317035 208.890863 
L 352.951919 217.831844 
L 353.586804 212.52548 
L 354.221688 237.165119 
L 354.856573 218.737222 
L 355.491457 206.285592 
L 356.126342 215.229796 
L 356.761226 181.824493 
L 357.396111 227.381711 
L 358.030995 187.673569 
L 358.66588 200.535133 
L 359.300764 231.419601 
L 359.935649 195.807789 
L 360.570533 207.195267 
L 361.205418 207.997946 
L 361.840303 200.804125 
L 362.475187 207.985915 
L 363.110072 185.869044 
L 363.744956 223.592617 
L 364.379841 207.451153 
L 365.014725 176.312732 
L 366.284494 238.212942 
L 367.554263 209.177043 
L 368.189148 203.884214 
L 368.824032 196.144244 
L 369.458917 186.969076 
L 370.728686 205.315115 
L 371.36357 183.053435 
L 371.998455 190.655257 
L 372.633339 221.023011 
L 373.268224 203.644871 
L 373.903108 197.688585 
L 374.537993 140.411947 
L 375.172877 193.183396 
L 375.807762 185.698453 
L 376.442646 220.220761 
L 377.077531 175.346337 
L 377.712415 218.165291 
L 378.3473 157.591136 
L 378.982184 196.931669 
L 379.617069 189.759547 
L 380.251953 244.265051 
L 380.886838 142.272333 
L 381.521722 190.317083 
L 382.156607 167.182898 
L 382.791491 172.202008 
L 383.426376 178.222319 
L 384.061261 165.992844 
L 384.696145 160.52792 
L 385.33103 175.235475 
L 385.965914 196.323429 
L 386.600799 182.819249 
L 387.235683 201.222653 
L 387.870568 180.613169 
L 388.505452 188.059654 
L 389.140337 152.666774 
L 389.775221 212.961625 
L 390.410106 157.845948 
L 391.04499 198.835669 
L 391.679875 161.333178 
L 392.314759 190.816609 
L 392.949644 163.94382 
L 393.584528 161.335756 
L 394.219413 199.061047 
L 394.854297 212.827774 
L 395.489182 190.194618 
L 396.124066 187.396842 
L 396.758951 186.275325 
L 397.393835 161.732369 
L 398.02872 164.062417 
L 398.663604 190.529355 
L 399.298489 199.496548 
L 399.933373 205.939254 
L 400.568258 239.874162 
L 401.203142 204.714394 
L 401.838027 181.109473 
L 402.472911 180.352986 
L 403.107796 163.458259 
L 403.74268 226.789584 
L 404.377565 155.532228 
L 405.01245 217.779851 
L 405.647334 171.44681 
L 406.282219 211.553069 
L 406.917103 162.663958 
L 407.551988 154.131407 
L 408.186872 190.565235 
L 408.821757 147.979822 
L 409.456641 195.158727 
L 410.091526 166.661027 
L 410.72641 254.256649 
L 411.361295 171.425755 
L 411.996179 157.729714 
L 412.631064 188.066959 
L 413.265948 228.827436 
L 413.900833 193.267188 
L 414.535717 138.401811 
L 415.170602 194.734398 
L 415.805486 163.455895 
L 416.440371 203.831361 
L 417.075255 175.04791 
L 417.71014 171.900573 
L 418.345024 193.966095 
L 418.979909 189.263459 
L 419.614793 182.392342 
L 420.249678 197.081634 
L 420.884562 143.012491 
L 421.519447 194.324679 
L 422.154331 179.970123 
L 422.789216 202.039297 
L 423.4241 149.998553 
L 424.058985 220.015365 
L 425.328754 140.129204 
L 425.963638 190.021449 
L 426.598523 154.0691 
L 427.233408 179.293776 
L 427.868292 155.232942 
L 428.503177 174.329882 
L 429.138061 183.659957 
L 429.772946 174.989471 
L 430.40783 177.050527 
L 431.042715 145.722608 
L 431.677599 181.245688 
L 432.312484 167.902215 
L 432.947368 158.192716 
L 433.582253 193.320471 
L 434.217137 212.258206 
L 434.852022 156.383249 
L 435.486906 180.988727 
L 436.121791 116.998886 
L 436.756675 146.734337 
L 437.39156 157.590706 
L 438.026444 235.607457 
L 438.661329 162.474461 
L 439.296213 175.598141 
L 439.931098 169.319366 
L 440.565982 145.470375 
L 441.200867 205.929801 
L 441.835751 146.791057 
L 442.470636 170.841793 
L 443.10552 134.846903 
L 443.740405 136.251807 
L 444.375289 170.627372 
L 445.010174 163.024262 
L 445.645058 215.004204 
L 446.279943 172.015088 
L 446.914827 163.743794 
L 447.549712 138.698304 
L 448.184597 152.271021 
L 448.819481 186.342144 
L 449.454366 180.264683 
L 450.08925 179.88848 
L 450.724135 174.891929 
L 451.359019 136.731352 
L 451.993904 158.534757 
L 452.628788 149.875658 
L 453.263673 127.277309 
L 453.898557 131.893575 
L 454.533442 186.233 
L 455.168326 199.304902 
L 455.803211 90.37253 
L 456.438095 114.854469 
L 457.07298 147.440764 
L 458.342749 182.270737 
L 458.977633 131.130858 
L 459.612518 133.929923 
L 460.247402 123.404423 
L 460.882287 146.334501 
L 461.517171 158.834687 
L 462.152056 174.980662 
L 462.78694 152.594155 
L 463.421825 197.506822 
L 464.056709 215.215831 
L 464.691594 177.075235 
L 465.326478 193.806461 
L 465.961363 128.671685 
L 466.596247 132.239913 
L 467.231132 187.345063 
L 467.866016 181.900765 
L 468.500901 194.038929 
L 469.135785 179.747324 
L 469.77067 143.30039 
L 470.405555 202.498432 
L 471.040439 126.373005 
L 471.675324 172.138842 
L 472.310208 153.884114 
L 472.945093 129.168633 
L 473.579977 181.837599 
L 474.214862 132.907667 
L 474.849746 216.890587 
L 475.484631 124.953062 
L 476.119515 183.652867 
L 476.7544 133.90629 
L 477.389284 196.24243 
L 478.024169 150.562534 
L 478.659053 206.242622 
L 479.293938 150.6966 
L 479.928822 125.195198 
L 481.198591 149.513851 
L 481.833476 183.443818 
L 482.46836 139.160231 
L 483.103245 143.293085 
L 483.738129 138.377533 
L 484.373014 171.22573 
L 485.007898 144.291708 
L 485.642783 178.983747 
L 486.277667 115.620839 
L 486.912552 163.626916 
L 487.547436 174.788157 
L 488.182321 156.150352 
L 488.817205 209.624575 
L 489.45209 177.12551 
L 490.086974 201.70671 
L 490.721859 167.254013 
L 491.356744 163.888603 
L 491.991628 156.689625 
L 492.626513 144.980302 
L 493.261397 156.010055 
L 493.896282 122.669851 
L 494.531166 110.966544 
L 495.166051 182.06491 
L 495.800935 166.854607 
L 496.43582 113.167252 
L 497.070704 165.536932 
L 497.705589 152.309049 
L 498.340473 153.174465 
L 498.975358 164.364496 
L 499.610242 167.164635 
L 500.245127 139.431157 
L 500.880011 163.719946 
L 501.514896 138.219833 
L 502.14978 106.34684 
L 502.784665 124.185188 
L 503.419549 131.327661 
L 504.054434 93.825169 
L 504.689318 127.911546 
L 505.324203 89.686084 
L 505.959087 145.382931 
L 506.593972 154.839982 
L 507.228856 128.177315 
L 507.863741 77.906505 
L 508.498625 132.666176 
L 509.13351 123.795665 
L 509.768394 47.740924 
L 511.038163 176.923336 
L 511.673048 151.643229 
L 512.307933 191.072066 
L 512.942817 154.374617 
L 513.577702 147.527348 
L 514.212586 157.008892 
L 514.847471 97.977144 
L 515.482355 127.477549 
L 516.11724 149.634597 
L 516.752124 103.840185 
L 517.387009 152.065194 
L 518.021893 58.499751 
L 518.656778 141.809761 
L 519.291662 105.753209 
L 519.926547 109.43982 
L 520.561431 125.78582 
L 521.196316 78.061412 
L 521.8312 181.446143 
L 522.466085 122.208354 
L 523.100969 169.215164 
L 523.735854 135.656887 
L 524.370738 131.813651 
L 525.005623 116.784896 
L 525.640507 113.932977 
L 526.275392 163.270265 
L 526.910276 137.134625 
L 527.545161 189.384634 
L 528.180045 92.904537 
L 528.81493 154.23389 
L 529.449814 98.315963 
L 530.084699 78.495838 
L 530.719583 149.980935 
L 531.354468 164.787106 
L 531.989352 78.816179 
L 532.624237 187.202833 
L 533.259121 166.160642 
L 533.894006 108.542606 
L 534.528891 134.32095 
L 535.163775 155.36529 
L 535.79866 116.614305 
L 536.433544 124.76915 
L 537.068429 88.083088 
L 537.703313 147.838881 
L 538.338198 165.408237 
L 538.973082 149.037099 
L 539.607967 103.61846 
L 540.242851 96.669353 
L 540.877736 92.02666 
L 541.51262 163.053481 
L 542.147505 82.012288 
L 542.782389 98.941821 
L 543.417274 106.557393 
L 544.052158 124.787842 
L 544.687043 127.399773 
L 545.321927 130.97767 
L 545.956812 92.224536 
L 546.591696 136.471384 
L 547.226581 121.507083 
L 547.861465 132.7244 
L 548.49635 169.28413 
L 549.131234 146.483607 
L 549.766119 117.890299 
L 550.401003 103.406833 
L 551.035888 101.758719 
L 551.670772 111.307725 
L 552.305657 100.479502 
L 552.940541 108.381684 
L 553.575426 145.024346 
L 554.21031 171.799594 
L 554.845195 176.095519 
L 555.48008 122.353377 
L 556.114964 149.821516 
L 556.749849 87.516314 
L 557.384733 87.06341 
L 558.019618 136.859832 
L 558.654502 106.387231 
L 559.289387 134.380893 
L 559.924271 96.867444 
L 560.559156 89.632586 
L 561.19404 47.518125 
L 561.828925 128.221789 
L 562.463809 100.099647 
L 563.098694 115.967177 
L 563.733578 143.044933 
L 564.368463 153.778408 
L 565.003347 87.238298 
L 565.638232 125.008708 
L 566.273116 84.227176 
L 566.908001 150.497004 
L 567.542885 153.836847 
L 568.17777 101.676001 
L 568.812654 120.619323 
L 569.447539 106.996546 
L 570.082423 128.184191 
L 570.717308 117.708965 
L 571.352192 149.806262 
L 571.987077 80.414663 
L 572.621961 48.851484 
L 573.256846 72.361657 
L 573.89173 147.701592 
L 574.526615 184.658794 
L 575.161499 110.963321 
L 575.796384 105.154208 
L 576.431268 152.955318 
L 577.066153 82.013147 
L 577.701038 90.276492 
L 578.335922 121.325105 
L 578.970807 128.207394 
L 579.605691 90.784182 
L 580.240576 115.484624 
L 580.87546 131.024077 
L 581.510345 69.888304 
L 582.145229 94.449308 
L 582.780114 109.007757 
L 582.780114 109.007757 
" clip-path="url(#p557e40ed0e)" style="fill: none; stroke: #ff7f0e; stroke-width: 1.5; stroke-linecap: square"/>
   </g>
   <g id="patch_3">
    <path d="M 50.14375 576.718125 
L 50.14375 22.318125 
" style="fill: none; stroke: #000000; stroke-width: 0.8; stroke-linejoin: miter; stroke-linecap: square"/>
   </g>
   <g id="patch_4">
    <path d="M 608.14375 576.718125 
L 608.14375 22.318125 
" style="fill: none; stroke: #000000; stroke-width: 0.8; stroke-linejoin: miter; stroke-linecap: square"/>
   </g>
   <g id="patch_5">
    <path d="M 50.14375 576.718125 
L 608.14375 576.718125 
" style="fill: none; stroke: #000000; stroke-width: 0.8; stroke-linejoin: miter; stroke-linecap: square"/>
   </g>
   <g id="patch_6">
    <path d="M 50.14375 22.318125 
L 608.14375 22.318125 
" style="fill: none; stroke: #000000; stroke-width: 0.8; stroke-linejoin: miter; stroke-linecap: square"/>
   </g>
   <g id="text_19">
    <!-- Train and Val Loss -->
    <g transform="translate(275.598437 16.318125) scale(0.12 -0.12)">
     <defs>
      <path id="DejaVuSans-54" d="M -19 4666 
L 3928 4666 
L 3928 4134 
L 2272 4134 
L 2272 0 
L 1638 0 
L 1638 4134 
L -19 4134 
L -19 4666 
z
" transform="scale(0.015625)"/>
      <path id="DejaVuSans-72" d="M 2631 2963 
Q 2534 3019 2420 3045 
Q 2306 3072 2169 3072 
Q 1681 3072 1420 2755 
Q 1159 2438 1159 1844 
L 1159 0 
L 581 0 
L 581 3500 
L 1159 3500 
L 1159 2956 
Q 1341 3275 1631 3429 
Q 1922 3584 2338 3584 
Q 2397 3584 2469 3576 
Q 2541 3569 2628 3553 
L 2631 2963 
z
" transform="scale(0.015625)"/>
      <path id="DejaVuSans-61" d="M 2194 1759 
Q 1497 1759 1228 1600 
Q 959 1441 959 1056 
Q 959 750 1161 570 
Q 1363 391 1709 391 
Q 2188 391 2477 730 
Q 2766 1069 2766 1631 
L 2766 1759 
L 2194 1759 
z
M 3341 1997 
L 3341 0 
L 2766 0 
L 2766 531 
Q 2569 213 2275 61 
Q 1981 -91 1556 -91 
Q 1019 -91 701 211 
Q 384 513 384 1019 
Q 384 1609 779 1909 
Q 1175 2209 1959 2209 
L 2766 2209 
L 2766 2266 
Q 2766 2663 2505 2880 
Q 2244 3097 1772 3097 
Q 1472 3097 1187 3025 
Q 903 2953 641 2809 
L 641 3341 
Q 956 3463 1253 3523 
Q 1550 3584 1831 3584 
Q 2591 3584 2966 3190 
Q 3341 2797 3341 1997 
z
" transform="scale(0.015625)"/>
      <path id="DejaVuSans-69" d="M 603 3500 
L 1178 3500 
L 1178 0 
L 603 0 
L 603 3500 
z
M 603 4863 
L 1178 4863 
L 1178 4134 
L 603 4134 
L 603 4863 
z
" transform="scale(0.015625)"/>
      <path id="DejaVuSans-6e" d="M 3513 2113 
L 3513 0 
L 2938 0 
L 2938 2094 
Q 2938 2591 2744 2837 
Q 2550 3084 2163 3084 
Q 1697 3084 1428 2787 
Q 1159 2491 1159 1978 
L 1159 0 
L 581 0 
L 581 3500 
L 1159 3500 
L 1159 2956 
Q 1366 3272 1645 3428 
Q 1925 3584 2291 3584 
Q 2894 3584 3203 3211 
Q 3513 2838 3513 2113 
z
" transform="scale(0.015625)"/>
      <path id="DejaVuSans-20" transform="scale(0.015625)"/>
      <path id="DejaVuSans-64" d="M 2906 2969 
L 2906 4863 
L 3481 4863 
L 3481 0 
L 2906 0 
L 2906 525 
Q 2725 213 2448 61 
Q 2172 -91 1784 -91 
Q 1150 -91 751 415 
Q 353 922 353 1747 
Q 353 2572 751 3078 
Q 1150 3584 1784 3584 
Q 2172 3584 2448 3432 
Q 2725 3281 2906 2969 
z
M 947 1747 
Q 947 1113 1208 752 
Q 1469 391 1925 391 
Q 2381 391 2643 752 
Q 2906 1113 2906 1747 
Q 2906 2381 2643 2742 
Q 2381 3103 1925 3103 
Q 1469 3103 1208 2742 
Q 947 2381 947 1747 
z
" transform="scale(0.015625)"/>
      <path id="DejaVuSans-56" d="M 1831 0 
L 50 4666 
L 709 4666 
L 2188 738 
L 3669 4666 
L 4325 4666 
L 2547 0 
L 1831 0 
z
" transform="scale(0.015625)"/>
      <path id="DejaVuSans-6c" d="M 603 4863 
L 1178 4863 
L 1178 0 
L 603 0 
L 603 4863 
z
" transform="scale(0.015625)"/>
     </defs>
     <use xlink:href="#DejaVuSans-54"/>
     <use xlink:href="#DejaVuSans-72" transform="translate(46.333984 0)"/>
     <use xlink:href="#DejaVuSans-61" transform="translate(87.447266 0)"/>
     <use xlink:href="#DejaVuSans-69" transform="translate(148.726562 0)"/>
     <use xlink:href="#DejaVuSans-6e" transform="translate(176.509766 0)"/>
     <use xlink:href="#DejaVuSans-20" transform="translate(239.888672 0)"/>
     <use xlink:href="#DejaVuSans-61" transform="translate(271.675781 0)"/>
     <use xlink:href="#DejaVuSans-6e" transform="translate(332.955078 0)"/>
     <use xlink:href="#DejaVuSans-64" transform="translate(396.333984 0)"/>
     <use xlink:href="#DejaVuSans-20" transform="translate(459.810547 0)"/>
     <use xlink:href="#DejaVuSans-56" transform="translate(491.597656 0)"/>
     <use xlink:href="#DejaVuSans-61" transform="translate(552.255859 0)"/>
     <use xlink:href="#DejaVuSans-6c" transform="translate(613.535156 0)"/>
     <use xlink:href="#DejaVuSans-20" transform="translate(641.318359 0)"/>
     <use xlink:href="#DejaVuSans-4c" transform="translate(673.105469 0)"/>
     <use xlink:href="#DejaVuSans-6f" transform="translate(727.068359 0)"/>
     <use xlink:href="#DejaVuSans-73" transform="translate(788.25 0)"/>
     <use xlink:href="#DejaVuSans-73" transform="translate(840.349609 0)"/>
    </g>
   </g>
   <g id="legend_1">
    <g id="patch_7">
     <path d="M 57.14375 60.230625 
L 136.734375 60.230625 
Q 138.734375 60.230625 138.734375 58.230625 
L 138.734375 29.318125 
Q 138.734375 27.318125 136.734375 27.318125 
L 57.14375 27.318125 
Q 55.14375 27.318125 55.14375 29.318125 
L 55.14375 58.230625 
Q 55.14375 60.230625 57.14375 60.230625 
z
" style="fill: #ffffff; opacity: 0.8; stroke: #cccccc; stroke-linejoin: miter"/>
    </g>
    <g id="line2d_35">
     <path d="M 59.14375 35.416563 
L 69.14375 35.416563 
L 79.14375 35.416563 
" style="fill: none; stroke: #1f77b4; stroke-width: 1.5; stroke-linecap: square"/>
    </g>
    <g id="text_20">
     <!-- train_loss -->
     <g transform="translate(87.14375 38.916563) scale(0.1 -0.1)">
      <defs>
       <path id="DejaVuSans-74" d="M 1172 4494 
L 1172 3500 
L 2356 3500 
L 2356 3053 
L 1172 3053 
L 1172 1153 
Q 1172 725 1289 603 
Q 1406 481 1766 481 
L 2356 481 
L 2356 0 
L 1766 0 
Q 1100 0 847 248 
Q 594 497 594 1153 
L 594 3053 
L 172 3053 
L 172 3500 
L 594 3500 
L 594 4494 
L 1172 4494 
z
" transform="scale(0.015625)"/>
       <path id="DejaVuSans-5f" d="M 3263 -1063 
L 3263 -1509 
L -63 -1509 
L -63 -1063 
L 3263 -1063 
z
" transform="scale(0.015625)"/>
      </defs>
      <use xlink:href="#DejaVuSans-74"/>
      <use xlink:href="#DejaVuSans-72" transform="translate(39.208984 0)"/>
      <use xlink:href="#DejaVuSans-61" transform="translate(80.322266 0)"/>
      <use xlink:href="#DejaVuSans-69" transform="translate(141.601562 0)"/>
      <use xlink:href="#DejaVuSans-6e" transform="translate(169.384766 0)"/>
      <use xlink:href="#DejaVuSans-5f" transform="translate(232.763672 0)"/>
      <use xlink:href="#DejaVuSans-6c" transform="translate(282.763672 0)"/>
      <use xlink:href="#DejaVuSans-6f" transform="translate(310.546875 0)"/>
      <use xlink:href="#DejaVuSans-73" transform="translate(371.728516 0)"/>
      <use xlink:href="#DejaVuSans-73" transform="translate(423.828125 0)"/>
     </g>
    </g>
    <g id="line2d_36">
     <path d="M 59.14375 50.372813 
L 69.14375 50.372813 
L 79.14375 50.372813 
" style="fill: none; stroke: #ff7f0e; stroke-width: 1.5; stroke-linecap: square"/>
    </g>
    <g id="text_21">
     <!-- val_loss -->
     <g transform="translate(87.14375 53.872813) scale(0.1 -0.1)">
      <defs>
       <path id="DejaVuSans-76" d="M 191 3500 
L 800 3500 
L 1894 563 
L 2988 3500 
L 3597 3500 
L 2284 0 
L 1503 0 
L 191 3500 
z
" transform="scale(0.015625)"/>
      </defs>
      <use xlink:href="#DejaVuSans-76"/>
      <use xlink:href="#DejaVuSans-61" transform="translate(59.179688 0)"/>
      <use xlink:href="#DejaVuSans-6c" transform="translate(120.458984 0)"/>
      <use xlink:href="#DejaVuSans-5f" transform="translate(148.242188 0)"/>
      <use xlink:href="#DejaVuSans-6c" transform="translate(198.242188 0)"/>
      <use xlink:href="#DejaVuSans-6f" transform="translate(226.025391 0)"/>
      <use xlink:href="#DejaVuSans-73" transform="translate(287.207031 0)"/>
      <use xlink:href="#DejaVuSans-73" transform="translate(339.306641 0)"/>
     </g>
    </g>
   </g>
  </g>
 </g>
 <defs>
  <clipPath id="p557e40ed0e">
   <rect x="50.14375" y="22.318125" width="558" height="554.4"/>
  </clipPath>
 </defs>
</svg>
