<?xml version="1.0" encoding="utf-8" standalone="no"?>
<!DOCTYPE svg PUBLIC "-//W3C//DTD SVG 1.1//EN"
  "http://www.w3.org/Graphics/SVG/1.1/DTD/svg11.dtd">
<svg xmlns:xlink="http://www.w3.org/1999/xlink" width="615.34375pt" height="614.274375pt" viewBox="0 0 615.34375 614.274375" xmlns="http://www.w3.org/2000/svg" version="1.1">
 <metadata>
  <rdf:RDF xmlns:dc="http://purl.org/dc/elements/1.1/" xmlns:cc="http://creativecommons.org/ns#" xmlns:rdf="http://www.w3.org/1999/02/22-rdf-syntax-ns#">
   <cc:Work>
    <dc:type rdf:resource="http://purl.org/dc/dcmitype/StillImage"/>
    <dc:date>2026-05-22T21:15:25.101288</dc:date>
    <dc:format>image/svg+xml</dc:format>
    <dc:creator>
     <cc:Agent>
      <dc:title>Matplotlib v3.10.9, https://matplotlib.org/</dc:title>
     </cc:Agent>
    </dc:creator>
   </cc:Work>
  </rdf:RDF>
 </metadata>
 <defs>
  <style type="text/css">*{stroke-linejoin: round; stroke-linecap: butt}</style>
 </defs>
 <g id="figure_1">
  <g id="patch_1">
   <path d="M 0 614.274375 
L 615.34375 614.274375 
L 615.34375 0 
L 0 0 
z
" style="fill: #ffffff"/>
  </g>
  <g id="axes_1">
   <g id="patch_2">
    <path d="M 50.14375 576.718125 
L 608.14375 576.718125 
L 608.14375 22.318125 
L 50.14375 22.318125 
z
" style="fill: #ffffff"/>
   </g>
   <g id="matplotlib.axis_1">
    <g id="xtick_1">
     <g id="line2d_1">
      <path d="M 75.507386 576.718125 
L 75.507386 22.318125 
" clip-path="url(#p38d137ba62)" style="fill: none; stroke: #b0b0b0; stroke-width: 0.8; stroke-linecap: square"/>
     </g>
     <g id="line2d_2">
      <defs>
       <path id="med81cecea9" d="M 0 0 
L 0 3.5 
" style="stroke: #000000; stroke-width: 0.8"/>
      </defs>
      <g>
       <use xlink:href="#med81cecea9" x="75.507386" y="576.718125" style="stroke: #000000; stroke-width: 0.8"/>
      </g>
     </g>
     <g id="text_1">
      <!-- 0 -->
      <g transform="translate(72.326136 591.316563) scale(0.1 -0.1)">
       <defs>
        <path id="DejaVuSans-30" d="M 2034 4250 
Q 1547 4250 1301 3770 
Q 1056 3291 1056 2328 
Q 1056 1369 1301 889 
Q 1547 409 2034 409 
Q 2525 409 2770 889 
Q 3016 1369 3016 2328 
Q 3016 3291 2770 3770 
Q 2525 4250 2034 4250 
z
M 2034 4750 
Q 2819 4750 3233 4129 
Q 3647 3509 3647 2328 
Q 3647 1150 3233 529 
Q 2819 -91 2034 -91 
Q 1250 -91 836 529 
Q 422 1150 422 2328 
Q 422 3509 836 4129 
Q 1250 4750 2034 4750 
z
" transform="scale(0.015625)"/>
       </defs>
       <use xlink:href="#DejaVuSans-30"/>
      </g>
     </g>
    </g>
    <g id="xtick_2">
     <g id="line2d_3">
      <path d="M 138.995838 576.718125 
L 138.995838 22.318125 
" clip-path="url(#p38d137ba62)" style="fill: none; stroke: #b0b0b0; stroke-width: 0.8; stroke-linecap: square"/>
     </g>
     <g id="line2d_4">
      <g>
       <use xlink:href="#med81cecea9" x="138.995838" y="576.718125" style="stroke: #000000; stroke-width: 0.8"/>
      </g>
     </g>
     <g id="text_2">
      <!-- 100 -->
      <g transform="translate(129.452088 591.316563) scale(0.1 -0.1)">
       <defs>
        <path id="DejaVuSans-31" d="M 794 531 
L 1825 531 
L 1825 4091 
L 703 3866 
L 703 4441 
L 1819 4666 
L 2450 4666 
L 2450 531 
L 3481 531 
L 3481 0 
L 794 0 
L 794 531 
z
" transform="scale(0.015625)"/>
       </defs>
       <use xlink:href="#DejaVuSans-31"/>
       <use xlink:href="#DejaVuSans-30" transform="translate(63.623047 0)"/>
       <use xlink:href="#DejaVuSans-30" transform="translate(127.246094 0)"/>
      </g>
     </g>
    </g>
    <g id="xtick_3">
     <g id="line2d_5">
      <path d="M 202.484289 576.718125 
L 202.484289 22.318125 
" clip-path="url(#p38d137ba62)" style="fill: none; stroke: #b0b0b0; stroke-width: 0.8; stroke-linecap: square"/>
     </g>
     <g id="line2d_6">
      <g>
       <use xlink:href="#med81cecea9" x="202.484289" y="576.718125" style="stroke: #000000; stroke-width: 0.8"/>
      </g>
     </g>
     <g id="text_3">
      <!-- 200 -->
      <g transform="translate(192.940539 591.316563) scale(0.1 -0.1)">
       <defs>
        <path id="DejaVuSans-32" d="M 1228 531 
L 3431 531 
L 3431 0 
L 469 0 
L 469 531 
Q 828 903 1448 1529 
Q 2069 2156 2228 2338 
Q 2531 2678 2651 2914 
Q 2772 3150 2772 3378 
Q 2772 3750 2511 3984 
Q 2250 4219 1831 4219 
Q 1534 4219 1204 4116 
Q 875 4013 500 3803 
L 500 4441 
Q 881 4594 1212 4672 
Q 1544 4750 1819 4750 
Q 2544 4750 2975 4387 
Q 3406 4025 3406 3419 
Q 3406 3131 3298 2873 
Q 3191 2616 2906 2266 
Q 2828 2175 2409 1742 
Q 1991 1309 1228 531 
z
" transform="scale(0.015625)"/>
       </defs>
       <use xlink:href="#DejaVuSans-32"/>
       <use xlink:href="#DejaVuSans-30" transform="translate(63.623047 0)"/>
       <use xlink:href="#DejaVuSans-30" transform="translate(127.246094 0)"/>
      </g>
     </g>
    </g>
    <g id="xtick_4">
     <g id="line2d_7">
      <path d="M 265.972741 576.718125 
L 265.972741 22.318125 
" clip-path="url(#p38d137ba62)" style="fill: none; stroke: #b0b0b0; stroke-width: 0.8; stroke-linecap: square"/>
     </g>
     <g id="line2d_8">
      <g>
       <use xlink:href="#med81cecea9" x="265.972741" y="576.718125" style="stroke: #000000; stroke-width: 0.8"/>
      </g>
     </g>
     <g id="text_4">
      <!-- 300 -->
      <g transform="translate(256.428991 591.316563) scale(0.1 -0.1)">
       <defs>
        <path id="DejaVuSans-33" d="M 2597 2516 
Q 3050 2419 3304 2112 
Q 3559 1806 3559 1356 
Q 3559 666 3084 287 
Q 2609 -91 1734 -91 
Q 1441 -91 1130 -33 
Q 819 25 488 141 
L 488 750 
Q 750 597 1062 519 
Q 1375 441 1716 441 
Q 2309 441 2620 675 
Q 2931 909 2931 1356 
Q 2931 1769 2642 2001 
Q 2353 2234 1838 2234 
L 1294 2234 
L 1294 2753 
L 1863 2753 
Q 2328 2753 2575 2939 
Q 2822 3125 2822 3475 
Q 2822 3834 2567 4026 
Q 2313 4219 1838 4219 
Q 1578 4219 1281 4162 
Q 984 4106 628 3988 
L 628 4550 
Q 988 4650 1302 4700 
Q 1616 4750 1894 4750 
Q 2613 4750 3031 4423 
Q 3450 4097 3450 3541 
Q 3450 3153 3228 2886 
Q 3006 2619 2597 2516 
z
" transform="scale(0.015625)"/>
       </defs>
       <use xlink:href="#DejaVuSans-33"/>
       <use xlink:href="#DejaVuSans-30" transform="translate(63.623047 0)"/>
       <use xlink:href="#DejaVuSans-30" transform="translate(127.246094 0)"/>
      </g>
     </g>
    </g>
    <g id="xtick_5">
     <g id="line2d_9">
      <path d="M 329.461192 576.718125 
L 329.461192 22.318125 
" clip-path="url(#p38d137ba62)" style="fill: none; stroke: #b0b0b0; stroke-width: 0.8; stroke-linecap: square"/>
     </g>
     <g id="line2d_10">
      <g>
       <use xlink:href="#med81cecea9" x="329.461192" y="576.718125" style="stroke: #000000; stroke-width: 0.8"/>
      </g>
     </g>
     <g id="text_5">
      <!-- 400 -->
      <g transform="translate(319.917442 591.316563) scale(0.1 -0.1)">
       <defs>
        <path id="DejaVuSans-34" d="M 2419 4116 
L 825 1625 
L 2419 1625 
L 2419 4116 
z
M 2253 4666 
L 3047 4666 
L 3047 1625 
L 3713 1625 
L 3713 1100 
L 3047 1100 
L 3047 0 
L 2419 0 
L 2419 1100 
L 313 1100 
L 313 1709 
L 2253 4666 
z
" transform="scale(0.015625)"/>
       </defs>
       <use xlink:href="#DejaVuSans-34"/>
       <use xlink:href="#DejaVuSans-30" transform="translate(63.623047 0)"/>
       <use xlink:href="#DejaVuSans-30" transform="translate(127.246094 0)"/>
      </g>
     </g>
    </g>
    <g id="xtick_6">
     <g id="line2d_11">
      <path d="M 392.949644 576.718125 
L 392.949644 22.318125 
" clip-path="url(#p38d137ba62)" style="fill: none; stroke: #b0b0b0; stroke-width: 0.8; stroke-linecap: square"/>
     </g>
     <g id="line2d_12">
      <g>
       <use xlink:href="#med81cecea9" x="392.949644" y="576.718125" style="stroke: #000000; stroke-width: 0.8"/>
      </g>
     </g>
     <g id="text_6">
      <!-- 500 -->
      <g transform="translate(383.405894 591.316563) scale(0.1 -0.1)">
       <defs>
        <path id="DejaVuSans-35" d="M 691 4666 
L 3169 4666 
L 3169 4134 
L 1269 4134 
L 1269 2991 
Q 1406 3038 1543 3061 
Q 1681 3084 1819 3084 
Q 2600 3084 3056 2656 
Q 3513 2228 3513 1497 
Q 3513 744 3044 326 
Q 2575 -91 1722 -91 
Q 1428 -91 1123 -41 
Q 819 9 494 109 
L 494 744 
Q 775 591 1075 516 
Q 1375 441 1709 441 
Q 2250 441 2565 725 
Q 2881 1009 2881 1497 
Q 2881 1984 2565 2268 
Q 2250 2553 1709 2553 
Q 1456 2553 1204 2497 
Q 953 2441 691 2322 
L 691 4666 
z
" transform="scale(0.015625)"/>
       </defs>
       <use xlink:href="#DejaVuSans-35"/>
       <use xlink:href="#DejaVuSans-30" transform="translate(63.623047 0)"/>
       <use xlink:href="#DejaVuSans-30" transform="translate(127.246094 0)"/>
      </g>
     </g>
    </g>
    <g id="xtick_7">
     <g id="line2d_13">
      <path d="M 456.438095 576.718125 
L 456.438095 22.318125 
" clip-path="url(#p38d137ba62)" style="fill: none; stroke: #b0b0b0; stroke-width: 0.8; stroke-linecap: square"/>
     </g>
     <g id="line2d_14">
      <g>
       <use xlink:href="#med81cecea9" x="456.438095" y="576.718125" style="stroke: #000000; stroke-width: 0.8"/>
      </g>
     </g>
     <g id="text_7">
      <!-- 600 -->
      <g transform="translate(446.894345 591.316563) scale(0.1 -0.1)">
       <defs>
        <path id="DejaVuSans-36" d="M 2113 2584 
Q 1688 2584 1439 2293 
Q 1191 2003 1191 1497 
Q 1191 994 1439 701 
Q 1688 409 2113 409 
Q 2538 409 2786 701 
Q 3034 994 3034 1497 
Q 3034 2003 2786 2293 
Q 2538 2584 2113 2584 
z
M 3366 4563 
L 3366 3988 
Q 3128 4100 2886 4159 
Q 2644 4219 2406 4219 
Q 1781 4219 1451 3797 
Q 1122 3375 1075 2522 
Q 1259 2794 1537 2939 
Q 1816 3084 2150 3084 
Q 2853 3084 3261 2657 
Q 3669 2231 3669 1497 
Q 3669 778 3244 343 
Q 2819 -91 2113 -91 
Q 1303 -91 875 529 
Q 447 1150 447 2328 
Q 447 3434 972 4092 
Q 1497 4750 2381 4750 
Q 2619 4750 2861 4703 
Q 3103 4656 3366 4563 
z
" transform="scale(0.015625)"/>
       </defs>
       <use xlink:href="#DejaVuSans-36"/>
       <use xlink:href="#DejaVuSans-30" transform="translate(63.623047 0)"/>
       <use xlink:href="#DejaVuSans-30" transform="translate(127.246094 0)"/>
      </g>
     </g>
    </g>
    <g id="xtick_8">
     <g id="line2d_15">
      <path d="M 519.926547 576.718125 
L 519.926547 22.318125 
" clip-path="url(#p38d137ba62)" style="fill: none; stroke: #b0b0b0; stroke-width: 0.8; stroke-linecap: square"/>
     </g>
     <g id="line2d_16">
      <g>
       <use xlink:href="#med81cecea9" x="519.926547" y="576.718125" style="stroke: #000000; stroke-width: 0.8"/>
      </g>
     </g>
     <g id="text_8">
      <!-- 700 -->
      <g transform="translate(510.382797 591.316563) scale(0.1 -0.1)">
       <defs>
        <path id="DejaVuSans-37" d="M 525 4666 
L 3525 4666 
L 3525 4397 
L 1831 0 
L 1172 0 
L 2766 4134 
L 525 4134 
L 525 4666 
z
" transform="scale(0.015625)"/>
       </defs>
       <use xlink:href="#DejaVuSans-37"/>
       <use xlink:href="#DejaVuSans-30" transform="translate(63.623047 0)"/>
       <use xlink:href="#DejaVuSans-30" transform="translate(127.246094 0)"/>
      </g>
     </g>
    </g>
    <g id="xtick_9">
     <g id="line2d_17">
      <path d="M 583.414998 576.718125 
L 583.414998 22.318125 
" clip-path="url(#p38d137ba62)" style="fill: none; stroke: #b0b0b0; stroke-width: 0.8; stroke-linecap: square"/>
     </g>
     <g id="line2d_18">
      <g>
       <use xlink:href="#med81cecea9" x="583.414998" y="576.718125" style="stroke: #000000; stroke-width: 0.8"/>
      </g>
     </g>
     <g id="text_9">
      <!-- 800 -->
      <g transform="translate(573.871248 591.316563) scale(0.1 -0.1)">
       <defs>
        <path id="DejaVuSans-38" d="M 2034 2216 
Q 1584 2216 1326 1975 
Q 1069 1734 1069 1313 
Q 1069 891 1326 650 
Q 1584 409 2034 409 
Q 2484 409 2743 651 
Q 3003 894 3003 1313 
Q 3003 1734 2745 1975 
Q 2488 2216 2034 2216 
z
M 1403 2484 
Q 997 2584 770 2862 
Q 544 3141 544 3541 
Q 544 4100 942 4425 
Q 1341 4750 2034 4750 
Q 2731 4750 3128 4425 
Q 3525 4100 3525 3541 
Q 3525 3141 3298 2862 
Q 3072 2584 2669 2484 
Q 3125 2378 3379 2068 
Q 3634 1759 3634 1313 
Q 3634 634 3220 271 
Q 2806 -91 2034 -91 
Q 1263 -91 848 271 
Q 434 634 434 1313 
Q 434 1759 690 2068 
Q 947 2378 1403 2484 
z
M 1172 3481 
Q 1172 3119 1398 2916 
Q 1625 2713 2034 2713 
Q 2441 2713 2670 2916 
Q 2900 3119 2900 3481 
Q 2900 3844 2670 4047 
Q 2441 4250 2034 4250 
Q 1625 4250 1398 4047 
Q 1172 3844 1172 3481 
z
" transform="scale(0.015625)"/>
       </defs>
       <use xlink:href="#DejaVuSans-38"/>
       <use xlink:href="#DejaVuSans-30" transform="translate(63.623047 0)"/>
       <use xlink:href="#DejaVuSans-30" transform="translate(127.246094 0)"/>
      </g>
     </g>
    </g>
    <g id="text_10">
     <!-- Epochs -->
     <g transform="translate(311.228125 604.994688) scale(0.1 -0.1)">
      <defs>
       <path id="DejaVuSans-45" d="M 628 4666 
L 3578 4666 
L 3578 4134 
L 1259 4134 
L 1259 2753 
L 3481 2753 
L 3481 2222 
L 1259 2222 
L 1259 531 
L 3634 531 
L 3634 0 
L 628 0 
L 628 4666 
z
" transform="scale(0.015625)"/>
       <path id="DejaVuSans-70" d="M 1159 525 
L 1159 -1331 
L 581 -1331 
L 581 3500 
L 1159 3500 
L 1159 2969 
Q 1341 3281 1617 3432 
Q 1894 3584 2278 3584 
Q 2916 3584 3314 3078 
Q 3713 2572 3713 1747 
Q 3713 922 3314 415 
Q 2916 -91 2278 -91 
Q 1894 -91 1617 61 
Q 1341 213 1159 525 
z
M 3116 1747 
Q 3116 2381 2855 2742 
Q 2594 3103 2138 3103 
Q 1681 3103 1420 2742 
Q 1159 2381 1159 1747 
Q 1159 1113 1420 752 
Q 1681 391 2138 391 
Q 2594 391 2855 752 
Q 3116 1113 3116 1747 
z
" transform="scale(0.015625)"/>
       <path id="DejaVuSans-6f" d="M 1959 3097 
Q 1497 3097 1228 2736 
Q 959 2375 959 1747 
Q 959 1119 1226 758 
Q 1494 397 1959 397 
Q 2419 397 2687 759 
Q 2956 1122 2956 1747 
Q 2956 2369 2687 2733 
Q 2419 3097 1959 3097 
z
M 1959 3584 
Q 2709 3584 3137 3096 
Q 3566 2609 3566 1747 
Q 3566 888 3137 398 
Q 2709 -91 1959 -91 
Q 1206 -91 779 398 
Q 353 888 353 1747 
Q 353 2609 779 3096 
Q 1206 3584 1959 3584 
z
" transform="scale(0.015625)"/>
       <path id="DejaVuSans-63" d="M 3122 3366 
L 3122 2828 
Q 2878 2963 2633 3030 
Q 2388 3097 2138 3097 
Q 1578 3097 1268 2742 
Q 959 2388 959 1747 
Q 959 1106 1268 751 
Q 1578 397 2138 397 
Q 2388 397 2633 464 
Q 2878 531 3122 666 
L 3122 134 
Q 2881 22 2623 -34 
Q 2366 -91 2075 -91 
Q 1284 -91 818 406 
Q 353 903 353 1747 
Q 353 2603 823 3093 
Q 1294 3584 2113 3584 
Q 2378 3584 2631 3529 
Q 2884 3475 3122 3366 
z
" transform="scale(0.015625)"/>
       <path id="DejaVuSans-68" d="M 3513 2113 
L 3513 0 
L 2938 0 
L 2938 2094 
Q 2938 2591 2744 2837 
Q 2550 3084 2163 3084 
Q 1697 3084 1428 2787 
Q 1159 2491 1159 1978 
L 1159 0 
L 581 0 
L 581 4863 
L 1159 4863 
L 1159 2956 
Q 1366 3272 1645 3428 
Q 1925 3584 2291 3584 
Q 2894 3584 3203 3211 
Q 3513 2838 3513 2113 
z
" transform="scale(0.015625)"/>
       <path id="DejaVuSans-73" d="M 2834 3397 
L 2834 2853 
Q 2591 2978 2328 3040 
Q 2066 3103 1784 3103 
Q 1356 3103 1142 2972 
Q 928 2841 928 2578 
Q 928 2378 1081 2264 
Q 1234 2150 1697 2047 
L 1894 2003 
Q 2506 1872 2764 1633 
Q 3022 1394 3022 966 
Q 3022 478 2636 193 
Q 2250 -91 1575 -91 
Q 1294 -91 989 -36 
Q 684 19 347 128 
L 347 722 
Q 666 556 975 473 
Q 1284 391 1588 391 
Q 1994 391 2212 530 
Q 2431 669 2431 922 
Q 2431 1156 2273 1281 
Q 2116 1406 1581 1522 
L 1381 1569 
Q 847 1681 609 1914 
Q 372 2147 372 2553 
Q 372 3047 722 3315 
Q 1072 3584 1716 3584 
Q 2034 3584 2315 3537 
Q 2597 3491 2834 3397 
z
" transform="scale(0.015625)"/>
      </defs>
      <use xlink:href="#DejaVuSans-45"/>
      <use xlink:href="#DejaVuSans-70" transform="translate(63.183594 0)"/>
      <use xlink:href="#DejaVuSans-6f" transform="translate(126.660156 0)"/>
      <use xlink:href="#DejaVuSans-63" transform="translate(187.841797 0)"/>
      <use xlink:href="#DejaVuSans-68" transform="translate(242.822266 0)"/>
      <use xlink:href="#DejaVuSans-73" transform="translate(306.201172 0)"/>
     </g>
    </g>
   </g>
   <g id="matplotlib.axis_2">
    <g id="ytick_1">
     <g id="line2d_19">
      <path d="M 50.14375 558.222044 
L 608.14375 558.222044 
" clip-path="url(#p38d137ba62)" style="fill: none; stroke: #b0b0b0; stroke-width: 0.8; stroke-linecap: square"/>
     </g>
     <g id="line2d_20">
      <defs>
       <path id="m174ff5524b" d="M 0 0 
L -3.5 0 
" style="stroke: #000000; stroke-width: 0.8"/>
      </defs>
      <g>
       <use xlink:href="#m174ff5524b" x="50.14375" y="558.222044" style="stroke: #000000; stroke-width: 0.8"/>
      </g>
     </g>
     <g id="text_11">
      <!-- 0.00 -->
      <g transform="translate(20.878125 562.021263) scale(0.1 -0.1)">
       <defs>
        <path id="DejaVuSans-2e" d="M 684 794 
L 1344 794 
L 1344 0 
L 684 0 
L 684 794 
z
" transform="scale(0.015625)"/>
       </defs>
       <use xlink:href="#DejaVuSans-30"/>
       <use xlink:href="#DejaVuSans-2e" transform="translate(63.623047 0)"/>
       <use xlink:href="#DejaVuSans-30" transform="translate(95.410156 0)"/>
       <use xlink:href="#DejaVuSans-30" transform="translate(159.033203 0)"/>
      </g>
     </g>
    </g>
    <g id="ytick_2">
     <g id="line2d_21">
      <path d="M 50.14375 472.411884 
L 608.14375 472.411884 
" clip-path="url(#p38d137ba62)" style="fill: none; stroke: #b0b0b0; stroke-width: 0.8; stroke-linecap: square"/>
     </g>
     <g id="line2d_22">
      <g>
       <use xlink:href="#m174ff5524b" x="50.14375" y="472.411884" style="stroke: #000000; stroke-width: 0.8"/>
      </g>
     </g>
     <g id="text_12">
      <!-- 0.05 -->
      <g transform="translate(20.878125 476.211102) scale(0.1 -0.1)">
       <use xlink:href="#DejaVuSans-30"/>
       <use xlink:href="#DejaVuSans-2e" transform="translate(63.623047 0)"/>
       <use xlink:href="#DejaVuSans-30" transform="translate(95.410156 0)"/>
       <use xlink:href="#DejaVuSans-35" transform="translate(159.033203 0)"/>
      </g>
     </g>
    </g>
    <g id="ytick_3">
     <g id="line2d_23">
      <path d="M 50.14375 386.601724 
L 608.14375 386.601724 
" clip-path="url(#p38d137ba62)" style="fill: none; stroke: #b0b0b0; stroke-width: 0.8; stroke-linecap: square"/>
     </g>
     <g id="line2d_24">
      <g>
       <use xlink:href="#m174ff5524b" x="50.14375" y="386.601724" style="stroke: #000000; stroke-width: 0.8"/>
      </g>
     </g>
     <g id="text_13">
      <!-- 0.10 -->
      <g transform="translate(20.878125 390.400942) scale(0.1 -0.1)">
       <use xlink:href="#DejaVuSans-30"/>
       <use xlink:href="#DejaVuSans-2e" transform="translate(63.623047 0)"/>
       <use xlink:href="#DejaVuSans-31" transform="translate(95.410156 0)"/>
       <use xlink:href="#DejaVuSans-30" transform="translate(159.033203 0)"/>
      </g>
     </g>
    </g>
    <g id="ytick_4">
     <g id="line2d_25">
      <path d="M 50.14375 300.791564 
L 608.14375 300.791564 
" clip-path="url(#p38d137ba62)" style="fill: none; stroke: #b0b0b0; stroke-width: 0.8; stroke-linecap: square"/>
     </g>
     <g id="line2d_26">
      <g>
       <use xlink:href="#m174ff5524b" x="50.14375" y="300.791564" style="stroke: #000000; stroke-width: 0.8"/>
      </g>
     </g>
     <g id="text_14">
      <!-- 0.15 -->
      <g transform="translate(20.878125 304.590782) scale(0.1 -0.1)">
       <use xlink:href="#DejaVuSans-30"/>
       <use xlink:href="#DejaVuSans-2e" transform="translate(63.623047 0)"/>
       <use xlink:href="#DejaVuSans-31" transform="translate(95.410156 0)"/>
       <use xlink:href="#DejaVuSans-35" transform="translate(159.033203 0)"/>
      </g>
     </g>
    </g>
    <g id="ytick_5">
     <g id="line2d_27">
      <path d="M 50.14375 214.981404 
L 608.14375 214.981404 
" clip-path="url(#p38d137ba62)" style="fill: none; stroke: #b0b0b0; stroke-width: 0.8; stroke-linecap: square"/>
     </g>
     <g id="line2d_28">
      <g>
       <use xlink:href="#m174ff5524b" x="50.14375" y="214.981404" style="stroke: #000000; stroke-width: 0.8"/>
      </g>
     </g>
     <g id="text_15">
      <!-- 0.20 -->
      <g transform="translate(20.878125 218.780622) scale(0.1 -0.1)">
       <use xlink:href="#DejaVuSans-30"/>
       <use xlink:href="#DejaVuSans-2e" transform="translate(63.623047 0)"/>
       <use xlink:href="#DejaVuSans-32" transform="translate(95.410156 0)"/>
       <use xlink:href="#DejaVuSans-30" transform="translate(159.033203 0)"/>
      </g>
     </g>
    </g>
    <g id="ytick_6">
     <g id="line2d_29">
      <path d="M 50.14375 129.171244 
L 608.14375 129.171244 
" clip-path="url(#p38d137ba62)" style="fill: none; stroke: #b0b0b0; stroke-width: 0.8; stroke-linecap: square"/>
     </g>
     <g id="line2d_30">
      <g>
       <use xlink:href="#m174ff5524b" x="50.14375" y="129.171244" style="stroke: #000000; stroke-width: 0.8"/>
      </g>
     </g>
     <g id="text_16">
      <!-- 0.25 -->
      <g transform="translate(20.878125 132.970462) scale(0.1 -0.1)">
       <use xlink:href="#DejaVuSans-30"/>
       <use xlink:href="#DejaVuSans-2e" transform="translate(63.623047 0)"/>
       <use xlink:href="#DejaVuSans-32" transform="translate(95.410156 0)"/>
       <use xlink:href="#DejaVuSans-35" transform="translate(159.033203 0)"/>
      </g>
     </g>
    </g>
    <g id="ytick_7">
     <g id="line2d_31">
      <path d="M 50.14375 43.361084 
L 608.14375 43.361084 
" clip-path="url(#p38d137ba62)" style="fill: none; stroke: #b0b0b0; stroke-width: 0.8; stroke-linecap: square"/>
     </g>
     <g id="line2d_32">
      <g>
       <use xlink:href="#m174ff5524b" x="50.14375" y="43.361084" style="stroke: #000000; stroke-width: 0.8"/>
      </g>
     </g>
     <g id="text_17">
      <!-- 0.30 -->
      <g transform="translate(20.878125 47.160302) scale(0.1 -0.1)">
       <use xlink:href="#DejaVuSans-30"/>
       <use xlink:href="#DejaVuSans-2e" transform="translate(63.623047 0)"/>
       <use xlink:href="#DejaVuSans-33" transform="translate(95.410156 0)"/>
       <use xlink:href="#DejaVuSans-30" transform="translate(159.033203 0)"/>
      </g>
     </g>
    </g>
    <g id="text_18">
     <!-- Accuracy -->
     <g transform="translate(14.798437 322.34625) rotate(-90) scale(0.1 -0.1)">
      <defs>
       <path id="DejaVuSans-41" d="M 2188 4044 
L 1331 1722 
L 3047 1722 
L 2188 4044 
z
M 1831 4666 
L 2547 4666 
L 4325 0 
L 3669 0 
L 3244 1197 
L 1141 1197 
L 716 0 
L 50 0 
L 1831 4666 
z
" transform="scale(0.015625)"/>
       <path id="DejaVuSans-75" d="M 544 1381 
L 544 3500 
L 1119 3500 
L 1119 1403 
Q 1119 906 1312 657 
Q 1506 409 1894 409 
Q 2359 409 2629 706 
Q 2900 1003 2900 1516 
L 2900 3500 
L 3475 3500 
L 3475 0 
L 2900 0 
L 2900 538 
Q 2691 219 2414 64 
Q 2138 -91 1772 -91 
Q 1169 -91 856 284 
Q 544 659 544 1381 
z
M 1991 3584 
L 1991 3584 
z
" transform="scale(0.015625)"/>
       <path id="DejaVuSans-72" d="M 2631 2963 
Q 2534 3019 2420 3045 
Q 2306 3072 2169 3072 
Q 1681 3072 1420 2755 
Q 1159 2438 1159 1844 
L 1159 0 
L 581 0 
L 581 3500 
L 1159 3500 
L 1159 2956 
Q 1341 3275 1631 3429 
Q 1922 3584 2338 3584 
Q 2397 3584 2469 3576 
Q 2541 3569 2628 3553 
L 2631 2963 
z
" transform="scale(0.015625)"/>
       <path id="DejaVuSans-61" d="M 2194 1759 
Q 1497 1759 1228 1600 
Q 959 1441 959 1056 
Q 959 750 1161 570 
Q 1363 391 1709 391 
Q 2188 391 2477 730 
Q 2766 1069 2766 1631 
L 2766 1759 
L 2194 1759 
z
M 3341 1997 
L 3341 0 
L 2766 0 
L 2766 531 
Q 2569 213 2275 61 
Q 1981 -91 1556 -91 
Q 1019 -91 701 211 
Q 384 513 384 1019 
Q 384 1609 779 1909 
Q 1175 2209 1959 2209 
L 2766 2209 
L 2766 2266 
Q 2766 2663 2505 2880 
Q 2244 3097 1772 3097 
Q 1472 3097 1187 3025 
Q 903 2953 641 2809 
L 641 3341 
Q 956 3463 1253 3523 
Q 1550 3584 1831 3584 
Q 2591 3584 2966 3190 
Q 3341 2797 3341 1997 
z
" transform="scale(0.015625)"/>
       <path id="DejaVuSans-79" d="M 2059 -325 
Q 1816 -950 1584 -1140 
Q 1353 -1331 966 -1331 
L 506 -1331 
L 506 -850 
L 844 -850 
Q 1081 -850 1212 -737 
Q 1344 -625 1503 -206 
L 1606 56 
L 191 3500 
L 800 3500 
L 1894 763 
L 2988 3500 
L 3597 3500 
L 2059 -325 
z
" transform="scale(0.015625)"/>
      </defs>
      <use xlink:href="#DejaVuSans-41"/>
      <use xlink:href="#DejaVuSans-63" transform="translate(66.658203 0)"/>
      <use xlink:href="#DejaVuSans-63" transform="translate(121.638672 0)"/>
      <use xlink:href="#DejaVuSans-75" transform="translate(176.619141 0)"/>
      <use xlink:href="#DejaVuSans-72" transform="translate(239.998047 0)"/>
      <use xlink:href="#DejaVuSans-61" transform="translate(281.111328 0)"/>
      <use xlink:href="#DejaVuSans-63" transform="translate(342.390625 0)"/>
      <use xlink:href="#DejaVuSans-79" transform="translate(397.371094 0)"/>
     </g>
    </g>
   </g>
   <g id="line2d_33">
    <path d="M 75.507386 106.050161 
L 76.142271 91.662657 
L 76.777155 89.90832 
L 77.41204 89.040716 
L 78.046924 89.469736 
L 78.681809 88.57349 
L 79.316693 88.316068 
L 79.951578 88.973969 
L 80.586462 86.914491 
L 81.221347 89.021638 
L 81.856232 88.945327 
L 82.491116 86.96216 
L 83.126001 87.181477 
L 83.760885 88.115828 
L 85.030654 85.598738 
L 85.665539 86.199407 
L 86.300423 85.207823 
L 86.935308 85.503401 
L 87.570192 85.236465 
L 88.205077 85.112485 
L 88.839961 83.463051 
L 89.474846 84.473661 
L 90.10973 83.472564 
L 90.744615 83.396304 
L 91.379499 82.271227 
L 92.014384 80.860137 
L 92.649268 82.261714 
L 93.284153 81.079403 
L 93.919037 80.984066 
L 94.553922 80.164131 
L 95.188806 80.774313 
L 95.823691 81.918467 
L 96.458575 78.381152 
L 97.09346 80.955475 
L 97.728344 79.201138 
L 98.363229 81.651481 
L 98.998113 78.133243 
L 100.267882 77.446801 
L 100.902767 77.151224 
L 101.537651 76.388471 
L 102.172536 76.979575 
L 102.80742 77.208406 
L 103.442305 75.835471 
L 104.07719 76.064302 
L 104.712074 74.729472 
L 105.346959 73.661628 
L 105.981843 73.194402 
L 106.616728 74.519719 
L 107.251612 74.138317 
L 107.886497 74.805732 
L 108.521381 74.462485 
L 109.156266 72.994213 
L 109.79115 74.004824 
L 110.426035 74.205063 
L 111.060919 73.041882 
L 111.695804 73.060909 
L 112.330688 73.480466 
L 112.965573 73.766479 
L 113.600457 71.945396 
L 114.235342 71.011045 
L 114.870226 71.411474 
L 115.505111 72.441213 
L 116.139995 70.715468 
L 116.77488 72.908389 
L 117.409764 72.441213 
L 118.044649 71.630741 
L 118.679533 71.468656 
L 119.314418 72.612811 
L 119.949302 70.62013 
L 120.584187 69.733397 
L 121.219071 70.944299 
L 121.853956 70.200573 
L 122.48884 72.18374 
L 123.123725 69.8383 
L 123.758609 69.332969 
L 124.393494 70.410377 
L 125.028379 71.268468 
L 125.663263 70.267319 
L 126.298148 70.906143 
L 126.933032 68.646476 
L 127.567917 68.703709 
L 128.202801 71.134974 
L 128.837686 69.390151 
L 129.47257 69.618982 
L 130.107455 67.82649 
L 130.742339 69.580878 
L 131.377224 66.863548 
L 132.012108 67.921879 
L 132.646993 67.521399 
L 133.281877 67.683483 
L 133.916762 68.036294 
L 134.551646 68.122067 
L 135.186531 66.577484 
L 135.821415 67.416548 
L 136.4563 66.567971 
L 137.091184 68.598807 
L 137.726069 69.552235 
L 138.360953 66.615639 
L 138.995838 66.99699 
L 139.630722 68.236483 
L 140.265607 66.177055 
L 140.900491 67.530963 
L 141.535376 67.330723 
L 142.17026 66.64423 
L 142.805145 65.423816 
L 143.440029 66.625153 
L 144.074914 64.851738 
L 144.709798 66.367731 
L 145.344683 66.224724 
L 145.979567 66.291471 
L 146.614452 65.728907 
L 147.249337 63.669479 
L 147.884221 65.70988 
L 148.519106 65.614542 
L 149.15399 66.224724 
L 149.788875 66.358217 
L 150.423759 65.376147 
L 151.058644 65.490562 
L 151.693528 65.347556 
L 152.328413 64.785043 
L 152.963297 64.975718 
L 153.598182 66.1389 
L 154.867951 65.261731 
L 155.502835 65.929146 
L 156.13772 66.272393 
L 156.772604 64.165297 
L 157.407489 65.357069 
L 158.042373 63.82205 
L 158.677258 65.385711 
L 159.312142 63.011628 
L 159.947027 64.708732 
L 161.216796 65.547796 
L 161.85168 64.336894 
L 162.486565 65.557309 
L 163.121449 63.907874 
L 163.756334 64.908972 
L 164.391218 65.5859 
L 165.026103 62.639791 
L 165.660987 65.318965 
L 166.295872 63.326233 
L 166.930756 64.088985 
L 167.565641 64.546647 
L 168.200526 64.575238 
L 168.83541 64.327381 
L 169.470295 65.633569 
L 170.105179 62.849544 
L 170.740064 65.538231 
L 171.374948 63.335797 
L 172.009833 64.479901 
L 172.644717 63.307155 
L 173.279602 62.811389 
L 173.914486 63.14507 
L 174.549371 62.429987 
L 175.184255 63.602732 
L 175.81914 62.325135 
L 176.454024 64.556212 
L 177.088909 61.123798 
L 177.723793 62.544402 
L 178.358678 62.68746 
L 178.993562 63.011628 
L 179.628447 62.096305 
L 180.263331 64.308303 
L 180.898216 62.048636 
L 181.5331 62.544402 
L 182.167985 62.468142 
L 182.802869 62.639791 
L 183.437754 62.630226 
L 184.072638 63.860154 
L 184.707523 62.429987 
L 185.342407 63.34531 
L 185.977292 62.172564 
L 186.612176 62.735129 
L 187.247061 64.041317 
L 187.881945 62.868571 
L 188.51683 62.267902 
L 189.151715 62.077227 
L 189.786599 62.28698 
L 190.421484 61.667234 
L 191.056368 62.725564 
L 191.691253 62.56348 
L 192.326137 62.782797 
L 192.961022 60.885403 
L 193.595906 61.610052 
L 194.865675 62.229798 
L 195.50056 60.637545 
L 196.135444 63.555064 
L 196.770329 61.381221 
L 197.405213 63.34531 
L 198.040098 61.610052 
L 198.674982 62.954395 
L 199.309867 61.362143 
L 199.944751 63.602732 
L 200.579636 61.781649 
L 201.849405 60.408714 
L 202.484289 61.276318 
L 203.119174 62.620713 
L 203.754058 59.712708 
L 204.388943 62.01048 
L 205.023827 61.514714 
L 205.658712 59.531546 
L 206.293596 61.419376 
L 206.928481 59.245482 
L 207.563365 61.981889 
L 208.19825 57.433963 
L 208.833134 61.686311 
L 209.468019 61.238214 
L 210.102903 60.627981 
L 210.737788 61.266805 
L 211.372673 60.198961 
L 212.007557 62.029558 
L 212.642442 59.655475 
L 213.277326 60.465897 
L 213.912211 60.361046 
L 214.547095 61.629129 
L 215.18198 61.65772 
L 215.816864 61.438403 
L 216.451749 60.179884 
L 217.086633 61.352629 
L 217.721518 60.361046 
L 218.356402 62.56348 
L 218.991287 61.896065 
L 219.626171 60.351481 
L 220.261056 59.855715 
L 220.89594 60.894968 
L 221.530825 60.313377 
L 222.165709 60.999819 
L 222.800594 59.426644 
L 223.435478 59.102475 
L 224.070363 60.055904 
L 224.705247 60.456383 
L 225.340132 60.04639 
L 225.975016 60.561234 
L 226.609901 59.645962 
L 227.244785 60.208475 
L 227.87967 60.551721 
L 228.514554 60.694728 
L 229.149439 59.979644 
L 229.784323 60.027313 
L 230.419208 60.32289 
L 231.054092 60.39915 
L 231.688977 59.207377 
L 232.958746 61.304961 
L 233.593631 58.110892 
L 234.228515 60.32289 
L 234.8634 58.339722 
L 235.498284 59.293151 
L 236.133169 57.538814 
L 236.768053 59.045293 
L 237.402938 59.302715 
L 238.037822 60.561234 
L 238.672707 57.567456 
L 239.307591 60.189397 
L 239.942476 60.055904 
L 240.57736 58.768793 
L 241.212245 58.71156 
L 241.847129 61.028461 
L 242.482014 60.618468 
L 243.751783 58.854567 
L 244.386667 59.836637 
L 245.021552 58.845053 
L 245.656436 59.884306 
L 246.291321 59.731735 
L 246.926205 59.84615 
L 247.56109 57.119308 
L 248.830859 59.674553 
L 249.465743 59.884306 
L 250.735512 57.77721 
L 251.370397 57.262314 
L 252.005281 58.396956 
L 252.640166 57.882061 
L 253.27505 57.548379 
L 253.909935 60.351481 
L 254.54482 57.147899 
L 255.179704 60.818708 
L 255.814589 57.729541 
L 256.449473 57.939294 
L 257.084358 58.330209 
L 257.719242 60.418228 
L 258.354127 59.083398 
L 258.989011 59.312229 
L 259.623896 57.186054 
L 260.25878 60.027313 
L 260.893665 57.95832 
L 261.528549 58.368314 
L 262.163434 58.9118 
L 262.798318 58.368314 
L 263.433203 56.299373 
L 264.068087 59.331306 
L 265.337856 58.740151 
L 265.972741 58.425547 
L 266.607625 55.917971 
L 267.24251 57.252801 
L 267.877394 59.760377 
L 268.512279 57.453041 
L 269.147163 58.692482 
L 269.782048 57.710463 
L 270.416932 58.740151 
L 271.051817 58.473216 
L 271.686701 59.054806 
L 272.321586 57.338625 
L 272.95647 58.28254 
L 273.591355 57.02397 
L 274.226239 57.014457 
L 274.861124 59.007138 
L 275.496009 58.702047 
L 276.130893 57.481632 
L 276.765778 55.469873 
L 277.400662 57.052561 
L 278.035547 58.23482 
L 278.670431 57.271879 
L 279.305316 58.43506 
L 280.575085 58.206229 
L 281.844854 56.27073 
L 283.114623 57.967885 
L 283.749507 58.3588 
L 284.384392 60.284735 
L 285.019276 57.596047 
L 285.654161 55.96564 
L 286.289045 57.319548 
L 286.92393 57.872547 
L 287.558814 57.22421 
L 288.193699 57.462554 
L 288.828583 57.319548 
L 289.463468 55.822633 
L 290.098352 56.070542 
L 290.733237 55.202887 
L 291.368121 56.785626 
L 292.003006 57.672307 
L 292.63789 54.954978 
L 293.272775 58.311131 
L 293.907659 57.414885 
L 294.542544 57.929729 
L 295.177428 55.231478 
L 295.812313 56.089568 
L 296.447197 57.271879 
L 297.082082 57.662794 
L 297.716967 56.928632 
L 298.351851 57.004892 
L 298.986736 56.308886 
L 299.62162 58.377878 
L 300.256505 57.65323 
L 300.891389 56.718879 
L 301.526274 56.423301 
L 302.161158 56.280295 
L 302.796043 55.403127 
L 303.430927 57.386294 
L 304.065812 56.985814 
L 304.700696 55.155218 
L 305.335581 57.548379 
L 305.970465 55.860789 
L 306.60535 56.623541 
L 307.240234 57.758132 
L 308.510003 55.393562 
L 309.144888 56.347042 
L 309.779772 56.594899 
L 310.414657 56.966737 
L 311.684426 54.716634 
L 312.31931 55.088471 
L 312.954195 56.67121 
L 313.589079 57.77721 
L 314.858848 56.251653 
L 315.493733 56.566308 
L 316.128617 56.347042 
L 316.763502 55.927484 
L 317.398386 57.10023 
L 318.033271 56.289808 
L 318.668156 55.221964 
L 319.30304 54.811971 
L 319.937925 57.10023 
L 320.572809 55.68914 
L 321.207694 55.307789 
L 321.842578 57.538814 
L 322.477463 55.774964 
L 323.112347 56.709315 
L 323.747232 55.269633 
L 324.382116 57.10023 
L 325.017001 56.537717 
L 325.651885 56.82373 
L 326.28677 57.367216 
L 326.921654 55.469873 
L 327.556539 54.115965 
L 328.191423 57.891625 
L 329.461192 57.252801 
L 330.096077 56.003795 
L 330.730961 57.395808 
L 331.365846 56.127724 
L 332.00073 56.585386 
L 332.635615 53.505732 
L 333.270499 55.813069 
L 333.905384 54.535472 
L 334.540268 58.091814 
L 335.175153 56.82373 
L 335.810037 55.937048 
L 336.444922 56.785626 
L 337.079806 56.127724 
L 337.714691 55.13614 
L 338.349575 55.507978 
L 338.98446 56.337477 
L 339.619344 57.424399 
L 340.254229 56.938146 
L 340.889114 54.487803 
L 341.523998 56.67121 
L 342.158883 55.288711 
L 342.793767 56.327964 
L 343.428652 55.4889 
L 344.063536 56.604464 
L 345.333305 56.127724 
L 345.96819 56.766548 
L 346.603074 56.795139 
L 347.237959 55.774964 
L 347.872843 55.107549 
L 348.507728 54.926387 
L 349.142612 55.507978 
L 349.777497 54.382901 
L 350.412381 55.574724 
L 351.047266 56.480484 
L 351.68215 55.479387 
L 352.317035 55.193373 
L 352.951919 56.261217 
L 353.586804 56.623541 
L 354.221688 54.15407 
L 354.856573 54.049219 
L 355.491457 54.287563 
L 356.126342 54.945465 
L 356.761226 52.275804 
L 357.396111 55.012211 
L 358.030995 54.630809 
L 358.66588 54.745225 
L 359.300764 53.229232 
L 360.570533 54.811971 
L 361.205418 55.031289 
L 361.840303 54.821485 
L 363.744956 56.032386 
L 364.379841 54.449647 
L 365.014725 54.297127 
L 365.64961 54.869205 
L 366.284494 56.776061 
L 366.919379 54.764303 
L 367.554263 53.286466 
L 368.824032 54.764303 
L 369.458917 54.85964 
L 370.093801 53.991985 
L 370.728686 52.571382 
L 371.36357 54.125479 
L 372.633339 54.831049 
L 373.268224 53.419959 
L 373.903108 52.914628 
L 374.537993 55.603315 
L 375.172877 54.85964 
L 375.807762 55.593802 
L 376.442646 54.792894 
L 377.077531 53.591557 
L 377.712415 54.335232 
L 378.3473 56.594899 
L 378.982184 56.051464 
L 379.617069 53.362726 
L 380.251953 55.117062 
L 380.886838 53.362726 
L 381.521722 55.33638 
L 382.156607 54.478289 
L 382.791491 53.029044 
L 383.426376 54.840563 
L 384.061261 55.917971 
L 384.696145 54.163634 
L 385.33103 54.878718 
L 385.965914 54.306641 
L 386.600799 54.421056 
L 387.235683 53.496219 
L 387.870568 54.07781 
L 388.505452 53.820388 
L 389.140337 56.089568 
L 389.775221 54.993134 
L 390.410106 52.619051 
L 391.04499 53.877621 
L 391.679875 54.754789 
L 392.314759 52.123233 
L 392.949644 55.040802 
L 393.584528 54.258972 
L 394.219413 54.20179 
L 394.854297 55.832146 
L 396.124066 53.715485 
L 396.758951 53.44855 
L 397.393835 52.723902 
L 398.02872 52.962297 
L 398.663604 51.703727 
L 399.298489 54.316205 
L 399.933373 53.343648 
L 400.568258 54.125479 
L 401.203142 55.174296 
L 401.838027 52.361629 
L 402.472911 53.24831 
L 403.107796 55.431718 
L 403.74268 54.773816 
L 404.377565 53.44855 
L 405.647334 53.486706 
L 406.282219 54.478289 
L 406.917103 53.80131 
L 407.551988 54.268485 
L 408.186872 53.553401 
L 408.821757 51.894402 
L 409.456641 54.516394 
L 410.091526 51.818142 
L 410.72641 53.515297 
L 411.361295 51.28422 
L 411.996179 54.401978 
L 412.631064 53.44855 
L 413.265948 54.220816 
L 413.900833 53.534374 
L 414.535717 53.315057 
L 415.170602 54.544985 
L 415.805486 52.085129 
L 417.075255 55.917971 
L 417.71014 53.753641 
L 418.345024 52.628564 
L 418.979909 54.726147 
L 419.614793 52.599973 
L 420.249678 53.553401 
L 420.884562 53.029044 
L 421.519447 53.782232 
L 422.154331 51.446305 
L 422.789216 53.80131 
L 424.058985 53.17205 
L 424.693869 53.953881 
L 425.963638 52.266291 
L 426.598523 53.496219 
L 427.233408 53.572479 
L 427.868292 53.124381 
L 428.503177 54.144556 
L 429.138061 52.81929 
L 429.772946 54.258972 
L 430.40783 53.152972 
L 431.042715 52.428375 
L 431.677599 53.353212 
L 432.312484 53.591557 
L 432.947368 51.770473 
L 433.582253 53.810874 
L 434.217137 52.781135 
L 434.852022 54.115965 
L 435.486906 54.07781 
L 436.121791 52.018382 
L 436.756675 52.561817 
L 437.39156 51.856298 
L 438.026444 53.696459 
L 438.661329 53.009966 
L 439.931098 52.228135 
L 440.565982 53.715485 
L 441.200867 50.950538 
L 441.835751 52.81929 
L 442.470636 53.877621 
L 443.10552 53.305544 
L 443.740405 53.543888 
L 444.375289 52.333037 
L 445.010174 56.385146 
L 445.645058 51.970713 
L 446.279943 51.83722 
L 446.914827 51.398636 
L 447.549712 53.963394 
L 448.184597 52.361629 
L 448.819481 53.076713 
L 449.454366 50.874227 
L 450.08925 52.161389 
L 450.724135 52.609537 
L 451.359019 52.561817 
L 451.993904 52.075564 
L 452.628788 52.552304 
L 453.263673 54.459212 
L 453.898557 52.476044 
L 454.533442 51.112623 
L 455.168326 51.122136 
L 455.803211 52.161389 
L 456.438095 51.808629 
L 457.07298 53.610634 
L 457.707864 54.544985 
L 458.342749 52.161389 
L 458.977633 52.523713 
L 459.612518 52.371142 
L 460.247402 51.474896 
L 460.882287 51.799064 
L 461.517171 52.762057 
L 462.152056 53.210206 
L 462.78694 49.196151 
L 463.421825 51.513051 
L 464.056709 54.335232 
L 464.691594 51.122136 
L 465.326478 53.64879 
L 465.961363 53.133895 
L 466.596247 52.409297 
L 467.231132 52.514148 
L 467.866016 52.828804 
L 468.500901 50.921896 
L 469.135785 52.123233 
L 469.77067 52.857395 
L 470.405555 50.893305 
L 471.040439 52.695311 
L 471.675324 51.017234 
L 472.310208 51.398636 
L 472.945093 51.227038 
L 473.579977 51.684649 
L 474.849746 50.836123 
L 475.484631 53.200641 
L 476.119515 52.342551 
L 476.7544 50.77889 
L 477.389284 50.664474 
L 478.659053 52.542791 
L 479.293938 50.330792 
L 479.928822 52.847882 
L 480.563707 51.465382 
L 481.198591 51.961149 
L 481.833476 50.50239 
L 482.46836 51.694213 
L 483.103245 51.91348 
L 483.738129 52.485557 
L 484.373014 51.255629 
L 485.007898 52.704875 
L 485.642783 52.361629 
L 486.277667 51.312811 
L 486.912552 52.962297 
L 487.547436 53.105304 
L 488.182321 53.086226 
L 488.817205 51.064954 
L 489.45209 53.181564 
L 490.721859 52.742979 
L 491.356744 52.59046 
L 491.991628 52.790648 
L 492.626513 50.683552 
L 493.261397 51.684649 
L 493.896282 52.075564 
L 494.531166 51.570233 
L 495.166051 52.361629 
L 495.800935 50.187734 
L 496.43582 51.818142 
L 497.070704 52.218622 
L 497.705589 50.14963 
L 498.975358 52.647642 
L 499.610242 51.408149 
L 500.245127 51.112623 
L 500.880011 52.256726 
L 501.514896 51.942122 
L 502.14978 49.625221 
L 502.784665 52.762057 
L 503.419549 50.473799 
L 504.054434 51.322376 
L 504.689318 51.017234 
L 505.324203 49.892208 
L 505.959087 53.048121 
L 506.593972 51.989791 
L 507.228856 53.963394 
L 507.863741 52.647642 
L 508.498625 50.445208 
L 509.13351 50.969565 
L 509.768394 50.368896 
L 510.403279 52.256726 
L 511.038163 52.704875 
L 511.673048 52.952733 
L 512.942817 52.304395 
L 513.577702 53.858543 
L 514.212586 51.656058 
L 514.847471 50.883792 
L 515.482355 51.532129 
L 516.11724 51.646545 
L 517.387009 49.339208 
L 518.021893 50.34987 
L 518.656778 49.444059 
L 519.291662 51.141214 
L 520.561431 51.36048 
L 521.196316 52.247213 
L 521.8312 51.36048 
L 522.466085 51.255629 
L 523.100969 52.18998 
L 523.735854 51.169805 
L 525.005623 51.713291 
L 525.640507 49.911235 
L 526.275392 51.522565 
L 526.910276 50.464234 
L 527.545161 50.788454 
L 528.81493 49.939877 
L 529.449814 50.921896 
L 530.084699 51.408149 
L 531.354468 51.684649 
L 531.989352 53.906212 
L 532.624237 51.56072 
L 533.259121 52.142311 
L 533.894006 49.930312 
L 534.528891 51.150727 
L 535.163775 51.150727 
L 535.79866 52.514148 
L 536.433544 48.786209 
L 537.068429 50.950538 
L 537.703313 49.625221 
L 538.338198 52.59046 
L 538.973082 50.30215 
L 539.607967 50.063806 
L 540.242851 51.141214 
L 540.877736 50.788454 
L 541.51262 49.758715 
L 542.147505 51.827707 
L 542.782389 49.482215 
L 543.417274 49.59663 
L 544.052158 51.08398 
L 544.687043 51.236551 
L 545.321927 51.741882 
L 545.956812 50.759812 
L 546.591696 50.006623 
L 547.226581 49.882643 
L 547.861465 51.417714 
L 548.49635 50.206812 
L 549.131234 51.293734 
L 549.766119 48.652715 
L 550.401003 52.380706 
L 551.035888 50.054292 
L 551.670772 50.14963 
L 552.305657 52.075564 
L 552.940541 50.626319 
L 553.575426 51.055389 
L 554.21031 50.70263 
L 554.845195 51.551207 
L 555.48008 50.22589 
L 556.114964 49.510806 
L 557.384733 52.857395 
L 558.019618 50.378461 
L 558.654502 49.94939 
L 559.289387 49.825461 
L 559.924271 51.856298 
L 560.559156 47.518125 
L 561.19404 49.072222 
L 561.828925 49.59663 
L 562.463809 52.476044 
L 563.098694 50.721707 
L 563.733578 51.656058 
L 564.368463 50.435643 
L 565.003347 50.836123 
L 565.638232 50.454721 
L 566.273116 53.629712 
L 566.908001 49.243871 
L 567.542885 52.628564 
L 568.17777 48.900624 
L 568.812654 50.244968 
L 569.447539 50.893305 
L 570.717308 51.064954 
L 571.352192 49.87313 
L 571.987077 49.653812 
L 572.621961 50.530981 
L 573.256846 49.491728 
L 573.89173 50.855149 
L 574.526615 50.616805 
L 575.161499 49.739637 
L 575.796384 51.255629 
L 576.431268 49.59663 
L 577.066153 50.292637 
L 577.701038 50.635883 
L 578.335922 49.177124 
L 578.970807 51.436791 
L 579.605691 50.550059 
L 580.240576 51.036312 
L 580.87546 49.310566 
L 581.510345 51.951635 
L 582.145229 50.864714 
L 582.780114 52.056538 
L 582.780114 52.056538 
" clip-path="url(#p38d137ba62)" style="fill: none; stroke: #1f77b4; stroke-width: 1.5; stroke-linecap: square"/>
   </g>
   <g id="line2d_34">
    <path d="M 75.507386 96.220147 
L 76.142271 94.16072 
L 76.777155 89.526969 
L 77.41204 94.932986 
L 78.046924 95.362057 
L 78.681809 90.38506 
L 79.316693 90.985728 
L 79.951578 90.642482 
L 80.586462 90.556657 
L 81.221347 91.24315 
L 81.856232 89.183723 
L 82.491116 88.068159 
L 83.126001 100.424827 
L 83.760885 98.708645 
L 84.39577 89.698567 
L 85.030654 94.074895 
L 85.665539 94.246493 
L 86.300423 96.048498 
L 86.935308 93.216805 
L 87.570192 102.226832 
L 88.205077 94.503915 
L 88.839961 93.731649 
L 89.474846 103.342396 
L 90.10973 93.216805 
L 90.744615 92.701909 
L 91.379499 102.055234 
L 92.014384 88.583054 
L 92.649268 90.299235 
L 93.284153 90.642482 
L 93.919037 92.873558 
L 94.553922 93.731649 
L 95.188806 87.982386 
L 95.823691 93.560051 
L 96.458575 93.216805 
L 97.09346 99.824158 
L 97.728344 90.38506 
L 98.363229 110.292996 
L 98.998113 93.302578 
L 100.267882 96.734991 
L 100.902767 91.929643 
L 101.537651 89.870216 
L 102.172536 107.890322 
L 102.80742 102.484305 
L 103.442305 89.441145 
L 104.07719 98.622821 
L 104.712074 93.045156 
L 105.346959 90.470884 
L 105.981843 94.761388 
L 106.616728 93.13098 
L 107.251612 87.982386 
L 107.886497 90.041813 
L 108.521381 96.305971 
L 109.156266 90.899904 
L 109.79115 95.705303 
L 110.426035 94.418142 
L 111.060919 86.6094 
L 111.695804 97.421484 
L 112.330688 88.754652 
L 112.965573 96.048498 
L 113.600457 91.757994 
L 114.235342 91.071553 
L 115.505111 95.619479 
L 116.77488 89.612742 
L 118.044649 93.989071 
L 118.679533 89.269496 
L 119.314418 97.164062 
L 119.949302 93.045156 
L 120.584187 93.045156 
L 121.219071 106.088316 
L 121.853956 94.503915 
L 122.48884 87.810737 
L 123.123725 95.276232 
L 123.758609 91.672221 
L 124.393494 93.388402 
L 125.028379 91.757994 
L 125.663263 91.843819 
L 126.933032 105.659245 
L 127.567917 91.071553 
L 128.202801 88.926301 
L 128.837686 98.022153 
L 129.47257 93.388402 
L 130.107455 94.847161 
L 130.742339 94.932986 
L 131.377224 97.33566 
L 132.012108 92.616136 
L 132.646993 86.952646 
L 133.281877 88.153983 
L 133.916762 112.095001 
L 134.551646 93.989071 
L 135.186531 95.791076 
L 135.821415 94.932986 
L 136.4563 90.814079 
L 137.091184 96.134323 
L 137.726069 92.959331 
L 138.360953 100.167405 
L 138.995838 113.467987 
L 139.630722 88.325632 
L 140.265607 88.49723 
L 140.900491 95.276232 
L 141.535376 99.137665 
L 142.17026 93.216805 
L 142.805145 90.642482 
L 143.440029 95.276232 
L 144.709798 89.097898 
L 145.344683 94.675564 
L 145.979567 87.553315 
L 146.614452 90.556657 
L 147.249337 100.682249 
L 147.884221 91.328975 
L 148.519106 90.38506 
L 149.15399 93.817473 
L 149.788875 95.276232 
L 150.423759 89.097898 
L 151.058644 88.325632 
L 151.693528 91.586397 
L 152.328413 108.920061 
L 152.963297 91.586397 
L 153.598182 88.926301 
L 154.233066 89.012074 
L 154.867951 97.764731 
L 155.502835 98.880243 
L 156.13772 89.870216 
L 156.772604 97.850555 
L 157.407489 96.649218 
L 158.042373 89.097898 
L 158.677258 93.989071 
L 159.312142 109.778152 
L 159.947027 95.104634 
L 160.581911 93.388402 
L 161.216796 90.728306 
L 161.85168 100.682249 
L 162.486565 88.754652 
L 163.121449 88.840476 
L 163.756334 97.764731 
L 164.391218 100.510651 
L 165.026103 94.761388 
L 165.660987 95.01881 
L 166.930756 85.837134 
L 167.565641 93.216805 
L 168.200526 98.193801 
L 168.83541 87.210068 
L 169.470295 84.206726 
L 170.105179 93.302578 
L 170.740064 100.682249 
L 171.374948 87.639139 
L 172.009833 101.282917 
L 172.644717 97.678906 
L 173.279602 102.655903 
L 173.914486 99.480912 
L 174.549371 92.959331 
L 175.184255 94.503915 
L 175.81914 95.01881 
L 176.454024 90.642482 
L 177.088909 94.847161 
L 177.723793 88.239808 
L 178.358678 94.675564 
L 178.993562 93.388402 
L 179.628447 96.820816 
L 180.263331 90.642482 
L 180.898216 97.593082 
L 181.5331 85.922907 
L 182.167985 90.899904 
L 182.802869 91.843819 
L 183.437754 100.08158 
L 184.072638 94.332317 
L 184.707523 92.701909 
L 185.342407 91.414748 
L 185.977292 91.071553 
L 186.612176 96.820816 
L 187.247061 95.104634 
L 188.51683 87.896561 
L 189.151715 86.094556 
L 189.786599 98.880243 
L 190.421484 92.959331 
L 191.056368 91.672221 
L 191.691253 86.437802 
L 192.326137 93.302578 
L 192.961022 90.985728 
L 193.595906 99.480912 
L 194.230791 96.305971 
L 194.865675 95.791076 
L 195.50056 98.193801 
L 196.135444 93.474227 
L 196.770329 89.698567 
L 197.405213 102.226832 
L 198.040098 91.24315 
L 198.674982 98.536997 
L 199.309867 93.817473 
L 199.944751 92.701909 
L 200.579636 100.253229 
L 201.21452 99.395138 
L 201.849405 88.411405 
L 202.484289 101.368742 
L 203.119174 99.909982 
L 203.754058 101.626164 
L 204.388943 87.124244 
L 205.023827 96.048498 
L 205.658712 95.791076 
L 206.928481 89.35532 
L 207.563365 92.787734 
L 208.19825 89.870216 
L 208.833134 96.134323 
L 209.468019 97.678906 
L 210.102903 92.616136 
L 210.737788 101.54039 
L 211.372673 94.418142 
L 212.007557 116.642978 
L 212.642442 99.309314 
L 213.277326 93.474227 
L 213.912211 97.249886 
L 214.547095 92.873558 
L 215.18198 87.553315 
L 215.816864 98.966068 
L 216.451749 108.233568 
L 217.086633 94.418142 
L 217.721518 97.33566 
L 218.356402 91.414748 
L 218.991287 113.210565 
L 219.626171 108.061919 
L 220.261056 96.134323 
L 220.89594 90.814079 
L 221.530825 90.127638 
L 222.165709 87.381717 
L 222.800594 107.976146 
L 223.435478 95.533654 
L 224.070363 104.457908 
L 224.705247 87.810737 
L 225.340132 95.533654 
L 225.975016 91.414748 
L 226.609901 96.649218 
L 227.244785 96.734991 
L 227.87967 91.672221 
L 228.514554 89.784391 
L 229.149439 97.764731 
L 229.784323 98.880243 
L 230.419208 107.976146 
L 231.054092 101.54039 
L 231.688977 93.645824 
L 232.323862 101.96941 
L 232.958746 94.932986 
L 233.593631 95.104634 
L 234.228515 93.560051 
L 234.8634 94.418142 
L 235.498284 92.616136 
L 236.133169 99.309314 
L 236.768053 98.708645 
L 237.402938 89.441145 
L 238.037822 94.589739 
L 238.672707 90.985728 
L 239.307591 100.853897 
L 239.942476 99.65256 
L 240.57736 93.302578 
L 241.212245 95.190408 
L 241.847129 88.840476 
L 242.482014 95.619479 
L 243.116898 95.190408 
L 243.751783 94.16072 
L 244.386667 93.989071 
L 245.656436 91.500572 
L 246.291321 93.13098 
L 246.926205 97.507308 
L 247.56109 92.187065 
L 248.195974 97.850555 
L 248.830859 115.613239 
L 249.465743 91.586397 
L 250.100628 94.074895 
L 250.735512 102.741727 
L 252.005281 94.761388 
L 252.640166 91.757994 
L 253.27505 111.837579 
L 253.909935 98.107977 
L 254.54482 93.731649 
L 255.179704 95.962725 
L 255.814589 97.164062 
L 256.449473 96.992413 
L 257.084358 94.332317 
L 257.719242 105.573472 
L 258.354127 95.705303 
L 258.989011 99.395138 
L 259.623896 95.44783 
L 260.25878 104.886979 
L 260.893665 93.474227 
L 261.528549 110.893664 
L 262.163434 105.230226 
L 262.798318 91.757994 
L 263.433203 104.886979 
L 264.068087 100.253229 
L 264.702972 91.757994 
L 265.972741 106.688985 
L 266.607625 109.434905 
L 267.24251 91.757994 
L 267.877394 93.13098 
L 268.512279 100.682249 
L 269.147163 89.698567 
L 269.782048 91.24315 
L 270.416932 98.365399 
L 271.051817 89.441145 
L 271.686701 100.853897 
L 272.321586 102.141059 
L 272.95647 99.566736 
L 273.591355 91.757994 
L 274.226239 96.649218 
L 274.861124 94.074895 
L 275.496009 98.451223 
L 276.130893 98.966068 
L 276.765778 92.101241 
L 277.400662 95.791076 
L 278.035547 92.27289 
L 279.305316 116.213908 
L 279.9402 100.167405 
L 280.575085 96.391745 
L 281.209969 94.332317 
L 281.844854 95.362057 
L 282.479738 94.932986 
L 283.114623 97.936328 
L 283.749507 103.943064 
L 284.384392 96.305971 
L 285.019276 106.860582 
L 285.654161 95.533654 
L 286.289045 101.96941 
L 286.92393 92.187065 
L 287.558814 89.526969 
L 288.193699 100.939722 
L 288.828583 92.530312 
L 289.463468 101.282917 
L 290.098352 95.190408 
L 290.733237 101.111319 
L 291.368121 93.645824 
L 292.003006 102.484305 
L 292.63789 99.309314 
L 293.272775 98.451223 
L 293.907659 94.332317 
L 294.542544 98.536997 
L 295.177428 96.220147 
L 295.812313 99.137665 
L 296.447197 96.477569 
L 297.082082 94.847161 
L 297.716967 94.761388 
L 298.351851 94.246493 
L 298.986736 94.246493 
L 299.62162 102.055234 
L 300.256505 92.873558 
L 301.526274 101.626164 
L 302.161158 91.24315 
L 302.796043 104.372084 
L 303.430927 101.883637 
L 304.065812 94.847161 
L 304.700696 92.701909 
L 305.970465 101.883637 
L 306.60535 88.325632 
L 307.240234 89.526969 
L 307.875119 106.60316 
L 308.510003 109.091659 
L 309.144888 95.362057 
L 309.779772 95.362057 
L 310.414657 92.530312 
L 311.049541 94.847161 
L 311.684426 89.784391 
L 312.31931 105.659245 
L 312.954195 91.843819 
L 313.589079 93.989071 
L 314.223964 94.503915 
L 314.858848 92.101241 
L 315.493733 96.477569 
L 316.128617 96.391745 
L 316.763502 103.599818 
L 317.398386 95.533654 
L 318.033271 101.111319 
L 318.668156 100.510651 
L 319.30304 104.200486 
L 319.937925 99.395138 
L 320.572809 101.025495 
L 321.207694 97.764731 
L 321.842578 106.174141 
L 322.477463 100.510651 
L 323.112347 97.593082 
L 323.747232 101.883637 
L 325.017001 93.474227 
L 325.651885 99.395138 
L 326.28677 93.045156 
L 326.921654 105.830894 
L 327.556539 94.418142 
L 328.191423 97.164062 
L 328.826308 92.959331 
L 329.461192 100.424827 
L 330.096077 99.909982 
L 330.730961 101.368742 
L 331.365846 93.216805 
L 332.00073 93.302578 
L 332.635615 91.157326 
L 333.905384 98.193801 
L 334.540268 98.365399 
L 335.175153 92.187065 
L 335.810037 97.593082 
L 336.444922 97.249886 
L 337.079806 102.913325 
L 337.714691 93.817473 
L 338.349575 91.328975 
L 338.98446 94.503915 
L 339.619344 107.032231 
L 340.254229 97.850555 
L 340.889114 100.939722 
L 341.523998 95.104634 
L 342.158883 91.586397 
L 342.793767 98.966068 
L 343.428652 92.101241 
L 344.063536 97.764731 
L 344.698421 101.96941 
L 345.333305 90.38506 
L 345.96819 98.622821 
L 346.603074 111.923404 
L 347.237959 93.216805 
L 347.872843 99.738334 
L 348.507728 94.761388 
L 349.142612 93.474227 
L 349.777497 97.164062 
L 350.412381 121.448326 
L 351.047266 101.282917 
L 351.68215 98.193801 
L 352.317035 96.134323 
L 352.951919 93.216805 
L 353.586804 95.533654 
L 354.221688 95.619479 
L 354.856573 96.048498 
L 355.491457 104.286311 
L 356.126342 93.474227 
L 356.761226 96.734991 
L 357.396111 94.332317 
L 358.030995 107.203829 
L 358.66588 105.058577 
L 359.300764 94.675564 
L 359.935649 102.055234 
L 360.570533 92.444487 
L 361.205418 109.778152 
L 361.840303 108.920061 
L 362.475187 92.101241 
L 363.110072 93.302578 
L 363.744956 96.048498 
L 364.379841 106.002492 
L 365.014725 95.876901 
L 365.64961 105.058577 
L 366.284494 93.13098 
L 366.919379 96.563394 
L 367.554263 92.959331 
L 368.189148 105.401823 
L 368.824032 96.048498 
L 369.458917 103.599818 
L 370.093801 93.474227 
L 370.728686 98.708645 
L 371.36357 106.946407 
L 371.998455 94.761388 
L 372.633339 101.883637 
L 373.268224 101.883637 
L 373.903108 100.339053 
L 374.537993 101.025495 
L 375.172877 103.943064 
L 375.807762 92.187065 
L 376.442646 100.339053 
L 377.077531 98.022153 
L 377.712415 90.985728 
L 378.3473 99.22349 
L 378.982184 94.589739 
L 379.617069 109.949749 
L 380.251953 99.480912 
L 380.886838 136.379291 
L 381.521722 103.42822 
L 382.156607 96.477569 
L 382.791491 106.002492 
L 384.061261 97.33566 
L 384.696145 95.962725 
L 385.965914 105.830894 
L 386.600799 99.22349 
L 387.235683 108.233568 
L 387.870568 111.923404 
L 388.505452 105.144401 
L 389.140337 101.197144 
L 389.775221 98.022153 
L 390.410106 96.477569 
L 391.04499 106.088316 
L 391.679875 103.170747 
L 392.949644 95.791076 
L 393.584528 93.560051 
L 394.219413 95.533654 
L 394.854297 93.731649 
L 395.489182 95.276232 
L 396.124066 93.989071 
L 396.758951 94.332317 
L 397.393835 105.659245 
L 398.02872 95.619479 
L 398.663604 102.999149 
L 399.298489 96.305971 
L 399.933373 94.332317 
L 401.203142 96.563394 
L 401.838027 95.44783 
L 402.472911 101.368742 
L 403.107796 97.33566 
L 403.74268 95.619479 
L 404.377565 99.309314 
L 405.01245 99.051892 
L 405.647334 106.002492 
L 406.282219 103.599818 
L 406.917103 98.022153 
L 407.551988 100.253229 
L 408.186872 101.797812 
L 408.821757 105.487648 
L 409.456641 98.193801 
L 410.091526 99.051892 
L 410.72641 96.305971 
L 411.361295 107.890322 
L 411.996179 101.797812 
L 412.631064 96.90664 
L 413.265948 97.33566 
L 413.900833 109.263308 
L 414.535717 95.362057 
L 415.170602 93.560051 
L 415.805486 94.503915 
L 416.440371 94.332317 
L 417.075255 100.768073 
L 417.71014 96.649218 
L 418.345024 98.451223 
L 418.979909 104.629557 
L 419.614793 95.705303 
L 420.249678 91.071553 
L 420.884562 98.107977 
L 421.519447 99.051892 
L 422.154331 97.421484 
L 422.789216 101.282917 
L 423.4241 98.536997 
L 424.058985 98.536997 
L 424.693869 99.137665 
L 425.328754 98.451223 
L 425.963638 97.164062 
L 426.598523 101.883637 
L 427.233408 96.734991 
L 427.868292 94.932986 
L 428.503177 94.847161 
L 429.138061 100.339053 
L 429.772946 97.33566 
L 430.40783 102.827501 
L 431.042715 100.424827 
L 431.677599 99.051892 
L 432.312484 106.60316 
L 432.947368 93.645824 
L 433.582253 100.939722 
L 434.217137 98.193801 
L 434.852022 105.573472 
L 435.486906 97.678906 
L 436.121791 99.051892 
L 436.756675 106.174141 
L 437.39156 111.065313 
L 438.026444 101.111319 
L 438.661329 103.685642 
L 439.296213 96.734991 
L 439.931098 109.778152 
L 440.565982 103.599818 
L 441.200867 105.659245 
L 441.835751 103.256571 
L 442.470636 96.734991 
L 443.10552 99.137665 
L 443.740405 99.137665 
L 444.375289 95.533654 
L 445.010174 96.305971 
L 445.645058 97.507308 
L 446.279943 100.424827 
L 446.914827 118.444984 
L 447.549712 94.847161 
L 448.184597 106.431563 
L 448.819481 105.144401 
L 449.454366 102.741727 
L 450.08925 98.966068 
L 450.724135 93.045156 
L 451.359019 99.995807 
L 451.993904 95.362057 
L 452.628788 99.22349 
L 453.263673 99.309314 
L 453.898557 96.134323 
L 454.533442 102.999149 
L 455.168326 97.249886 
L 455.803211 102.999149 
L 456.438095 105.487648 
L 457.07298 91.24315 
L 457.707864 101.711988 
L 458.342749 94.589739 
L 458.977633 98.279575 
L 459.612518 94.246493 
L 460.247402 98.966068 
L 460.882287 106.002492 
L 461.517171 90.814079 
L 462.152056 99.738334 
L 462.78694 98.451223 
L 463.421825 89.012074 
L 464.056709 97.764731 
L 464.691594 93.388402 
L 466.596247 99.566736 
L 467.231132 98.365399 
L 467.866016 90.899904 
L 468.500901 109.606503 
L 469.135785 104.801155 
L 469.77067 96.992413 
L 470.405555 94.074895 
L 471.040439 98.365399 
L 471.675324 109.52073 
L 472.310208 101.626164 
L 472.945093 109.52073 
L 473.579977 97.936328 
L 474.214862 101.54039 
L 474.849746 98.451223 
L 475.484631 98.536997 
L 476.119515 105.573472 
L 476.7544 99.051892 
L 477.389284 98.279575 
L 478.024169 96.134323 
L 478.659053 96.134323 
L 479.293938 100.167405 
L 479.928822 100.853897 
L 480.563707 100.339053 
L 481.198591 98.022153 
L 481.833476 101.197144 
L 482.46836 101.711988 
L 483.103245 98.79447 
L 483.738129 93.045156 
L 484.373014 112.352474 
L 485.007898 98.022153 
L 485.642783 102.999149 
L 486.277667 100.939722 
L 486.912552 116.128083 
L 487.547436 101.025495 
L 488.182321 95.705303 
L 488.817205 104.372084 
L 489.45209 100.510651 
L 490.086974 106.946407 
L 490.721859 103.85724 
L 491.356744 103.42822 
L 491.991628 103.943064 
L 492.626513 97.850555 
L 493.261397 95.962725 
L 493.896282 96.220147 
L 494.531166 98.365399 
L 495.166051 109.263308 
L 495.800935 97.421484 
L 496.43582 101.454566 
L 497.070704 95.705303 
L 497.705589 102.655903 
L 498.340473 102.226832 
L 498.975358 97.078238 
L 499.610242 107.032231 
L 500.245127 101.025495 
L 501.514896 93.731649 
L 502.14978 123.336156 
L 502.784665 94.589739 
L 503.419549 96.305971 
L 504.054434 105.830894 
L 504.689318 96.134323 
L 505.324203 108.662639 
L 505.959087 98.79447 
L 506.593972 97.421484 
L 507.228856 97.936328 
L 507.863741 99.824158 
L 508.498625 96.649218 
L 509.13351 96.649218 
L 509.768394 107.032231 
L 510.403279 105.487648 
L 511.038163 93.731649 
L 511.673048 106.60316 
L 512.307933 106.345738 
L 512.942817 90.814079 
L 513.577702 96.734991 
L 514.212586 93.903246 
L 514.847471 92.616136 
L 515.482355 107.890322 
L 516.11724 95.533654 
L 516.752124 108.662639 
L 517.387009 109.52073 
L 518.021893 99.995807 
L 518.656778 105.315999 
L 519.291662 101.111319 
L 519.926547 100.339053 
L 520.561431 101.711988 
L 521.196316 102.570079 
L 522.466085 96.391745 
L 523.100969 105.659245 
L 523.735854 94.503915 
L 524.370738 109.949749 
L 525.005623 102.141059 
L 525.640507 99.137665 
L 526.275392 104.114662 
L 526.910276 102.398481 
L 527.545161 103.256571 
L 528.81493 97.850555 
L 529.449814 101.54039 
L 530.719583 98.966068 
L 531.354468 93.989071 
L 531.989352 100.253229 
L 532.624237 104.886979 
L 533.259121 93.560051 
L 533.894006 99.566736 
L 534.528891 104.200486 
L 535.163775 107.804497 
L 535.79866 105.058577 
L 536.433544 96.734991 
L 537.068429 96.134323 
L 537.703313 103.084974 
L 538.338198 111.494333 
L 539.607967 102.398481 
L 540.242851 108.49099 
L 540.877736 109.177483 
L 541.51262 95.01881 
L 542.147505 103.685642 
L 542.782389 101.96941 
L 543.417274 101.025495 
L 544.052158 98.622821 
L 544.687043 97.936328 
L 545.321927 99.480912 
L 545.956812 97.678906 
L 546.591696 98.365399 
L 547.226581 108.920061 
L 547.861465 92.27289 
L 548.49635 102.999149 
L 549.131234 100.510651 
L 549.766119 101.368742 
L 550.401003 97.421484 
L 551.035888 101.711988 
L 551.670772 102.141059 
L 552.305657 100.424827 
L 552.940541 95.619479 
L 553.575426 95.533654 
L 554.21031 96.477569 
L 554.845195 95.44783 
L 555.48008 100.253229 
L 556.114964 101.282917 
L 556.749849 96.134323 
L 557.384733 103.084974 
L 558.019618 108.319393 
L 558.654502 98.451223 
L 559.289387 113.038916 
L 561.19404 98.708645 
L 561.828925 100.853897 
L 562.463809 107.6329 
L 563.098694 108.748412 
L 563.733578 95.619479 
L 564.368463 95.01881 
L 565.003347 102.312656 
L 565.638232 101.111319 
L 566.273116 109.005834 
L 566.908001 102.055234 
L 567.542885 101.368742 
L 568.17777 99.566736 
L 568.812654 100.167405 
L 569.447539 100.339053 
L 570.082423 106.688985 
L 570.717308 98.622821 
L 571.352192 112.180826 
L 571.987077 101.111319 
L 572.621961 100.424827 
L 573.256846 96.992413 
L 573.89173 91.757994 
L 574.526615 98.279575 
L 575.161499 98.79447 
L 575.796384 94.675564 
L 576.431268 116.642978 
L 577.066153 96.649218 
L 577.701038 104.114662 
L 578.335922 95.533654 
L 578.970807 99.309314 
L 579.605691 96.048498 
L 580.240576 97.078238 
L 580.87546 100.596475 
L 582.145229 102.741727 
L 582.780114 96.649218 
L 582.780114 96.649218 
" clip-path="url(#p38d137ba62)" style="fill: none; stroke: #ff7f0e; stroke-width: 1.5; stroke-linecap: square"/>
   </g>
   <g id="line2d_35">
    <path d="M 50.14375 551.518125 
L 608.14375 551.518125 
" clip-path="url(#p38d137ba62)" style="fill: none; stroke-dasharray: 11.1,4.8; stroke-dashoffset: 0; stroke: #ff0000; stroke-width: 3"/>
   </g>
   <g id="patch_3">
    <path d="M 50.14375 576.718125 
L 50.14375 22.318125 
" style="fill: none; stroke: #000000; stroke-width: 0.8; stroke-linejoin: miter; stroke-linecap: square"/>
   </g>
   <g id="patch_4">
    <path d="M 608.14375 576.718125 
L 608.14375 22.318125 
" style="fill: none; stroke: #000000; stroke-width: 0.8; stroke-linejoin: miter; stroke-linecap: square"/>
   </g>
   <g id="patch_5">
    <path d="M 50.14375 576.718125 
L 608.14375 576.718125 
" style="fill: none; stroke: #000000; stroke-width: 0.8; stroke-linejoin: miter; stroke-linecap: square"/>
   </g>
   <g id="patch_6">
    <path d="M 50.14375 22.318125 
L 608.14375 22.318125 
" style="fill: none; stroke: #000000; stroke-width: 0.8; stroke-linejoin: miter; stroke-linecap: square"/>
   </g>
   <g id="text_19">
    <!-- Train and Val Accuracy -->
    <g transform="translate(261.365313 16.318125) scale(0.12 -0.12)">
     <defs>
      <path id="DejaVuSans-54" d="M -19 4666 
L 3928 4666 
L 3928 4134 
L 2272 4134 
L 2272 0 
L 1638 0 
L 1638 4134 
L -19 4134 
L -19 4666 
z
" transform="scale(0.015625)"/>
      <path id="DejaVuSans-69" d="M 603 3500 
L 1178 3500 
L 1178 0 
L 603 0 
L 603 3500 
z
M 603 4863 
L 1178 4863 
L 1178 4134 
L 603 4134 
L 603 4863 
z
" transform="scale(0.015625)"/>
      <path id="DejaVuSans-6e" d="M 3513 2113 
L 3513 0 
L 2938 0 
L 2938 2094 
Q 2938 2591 2744 2837 
Q 2550 3084 2163 3084 
Q 1697 3084 1428 2787 
Q 1159 2491 1159 1978 
L 1159 0 
L 581 0 
L 581 3500 
L 1159 3500 
L 1159 2956 
Q 1366 3272 1645 3428 
Q 1925 3584 2291 3584 
Q 2894 3584 3203 3211 
Q 3513 2838 3513 2113 
z
" transform="scale(0.015625)"/>
      <path id="DejaVuSans-20" transform="scale(0.015625)"/>
      <path id="DejaVuSans-64" d="M 2906 2969 
L 2906 4863 
L 3481 4863 
L 3481 0 
L 2906 0 
L 2906 525 
Q 2725 213 2448 61 
Q 2172 -91 1784 -91 
Q 1150 -91 751 415 
Q 353 922 353 1747 
Q 353 2572 751 3078 
Q 1150 3584 1784 3584 
Q 2172 3584 2448 3432 
Q 2725 3281 2906 2969 
z
M 947 1747 
Q 947 1113 1208 752 
Q 1469 391 1925 391 
Q 2381 391 2643 752 
Q 2906 1113 2906 1747 
Q 2906 2381 2643 2742 
Q 2381 3103 1925 3103 
Q 1469 3103 1208 2742 
Q 947 2381 947 1747 
z
" transform="scale(0.015625)"/>
      <path id="DejaVuSans-56" d="M 1831 0 
L 50 4666 
L 709 4666 
L 2188 738 
L 3669 4666 
L 4325 4666 
L 2547 0 
L 1831 0 
z
" transform="scale(0.015625)"/>
      <path id="DejaVuSans-6c" d="M 603 4863 
L 1178 4863 
L 1178 0 
L 603 0 
L 603 4863 
z
" transform="scale(0.015625)"/>
     </defs>
     <use xlink:href="#DejaVuSans-54"/>
     <use xlink:href="#DejaVuSans-72" transform="translate(46.333984 0)"/>
     <use xlink:href="#DejaVuSans-61" transform="translate(87.447266 0)"/>
     <use xlink:href="#DejaVuSans-69" transform="translate(148.726562 0)"/>
     <use xlink:href="#DejaVuSans-6e" transform="translate(176.509766 0)"/>
     <use xlink:href="#DejaVuSans-20" transform="translate(239.888672 0)"/>
     <use xlink:href="#DejaVuSans-61" transform="translate(271.675781 0)"/>
     <use xlink:href="#DejaVuSans-6e" transform="translate(332.955078 0)"/>
     <use xlink:href="#DejaVuSans-64" transform="translate(396.333984 0)"/>
     <use xlink:href="#DejaVuSans-20" transform="translate(459.810547 0)"/>
     <use xlink:href="#DejaVuSans-56" transform="translate(491.597656 0)"/>
     <use xlink:href="#DejaVuSans-61" transform="translate(552.255859 0)"/>
     <use xlink:href="#DejaVuSans-6c" transform="translate(613.535156 0)"/>
     <use xlink:href="#DejaVuSans-20" transform="translate(641.318359 0)"/>
     <use xlink:href="#DejaVuSans-41" transform="translate(673.105469 0)"/>
     <use xlink:href="#DejaVuSans-63" transform="translate(739.763672 0)"/>
     <use xlink:href="#DejaVuSans-63" transform="translate(794.744141 0)"/>
     <use xlink:href="#DejaVuSans-75" transform="translate(849.724609 0)"/>
     <use xlink:href="#DejaVuSans-72" transform="translate(913.103516 0)"/>
     <use xlink:href="#DejaVuSans-61" transform="translate(954.216797 0)"/>
     <use xlink:href="#DejaVuSans-63" transform="translate(1015.496094 0)"/>
     <use xlink:href="#DejaVuSans-79" transform="translate(1070.476562 0)"/>
    </g>
   </g>
   <g id="legend_1">
    <g id="patch_7">
     <path d="M 434.020312 323.313438 
L 601.14375 323.313438 
Q 603.14375 323.313438 603.14375 321.313438 
L 603.14375 277.722813 
Q 603.14375 275.722813 601.14375 275.722813 
L 434.020312 275.722813 
Q 432.020312 275.722813 432.020312 277.722813 
L 432.020312 321.313438 
Q 432.020312 323.313438 434.020312 323.313438 
z
" style="fill: #ffffff; opacity: 0.8; stroke: #cccccc; stroke-linejoin: miter"/>
    </g>
    <g id="line2d_36">
     <path d="M 436.020312 283.82125 
L 446.020312 283.82125 
L 456.020312 283.82125 
" style="fill: none; stroke: #1f77b4; stroke-width: 1.5; stroke-linecap: square"/>
    </g>
    <g id="text_20">
     <!-- train_accuracy -->
     <g transform="translate(464.020312 287.32125) scale(0.1 -0.1)">
      <defs>
       <path id="DejaVuSans-74" d="M 1172 4494 
L 1172 3500 
L 2356 3500 
L 2356 3053 
L 1172 3053 
L 1172 1153 
Q 1172 725 1289 603 
Q 1406 481 1766 481 
L 2356 481 
L 2356 0 
L 1766 0 
Q 1100 0 847 248 
Q 594 497 594 1153 
L 594 3053 
L 172 3053 
L 172 3500 
L 594 3500 
L 594 4494 
L 1172 4494 
z
" transform="scale(0.015625)"/>
       <path id="DejaVuSans-5f" d="M 3263 -1063 
L 3263 -1509 
L -63 -1509 
L -63 -1063 
L 3263 -1063 
z
" transform="scale(0.015625)"/>
      </defs>
      <use xlink:href="#DejaVuSans-74"/>
      <use xlink:href="#DejaVuSans-72" transform="translate(39.208984 0)"/>
      <use xlink:href="#DejaVuSans-61" transform="translate(80.322266 0)"/>
      <use xlink:href="#DejaVuSans-69" transform="translate(141.601562 0)"/>
      <use xlink:href="#DejaVuSans-6e" transform="translate(169.384766 0)"/>
      <use xlink:href="#DejaVuSans-5f" transform="translate(232.763672 0)"/>
      <use xlink:href="#DejaVuSans-61" transform="translate(282.763672 0)"/>
      <use xlink:href="#DejaVuSans-63" transform="translate(344.042969 0)"/>
      <use xlink:href="#DejaVuSans-63" transform="translate(399.023438 0)"/>
      <use xlink:href="#DejaVuSans-75" transform="translate(454.003906 0)"/>
      <use xlink:href="#DejaVuSans-72" transform="translate(517.382812 0)"/>
      <use xlink:href="#DejaVuSans-61" transform="translate(558.496094 0)"/>
      <use xlink:href="#DejaVuSans-63" transform="translate(619.775391 0)"/>
      <use xlink:href="#DejaVuSans-79" transform="translate(674.755859 0)"/>
     </g>
    </g>
    <g id="line2d_37">
     <path d="M 436.020312 298.7775 
L 446.020312 298.7775 
L 456.020312 298.7775 
" style="fill: none; stroke: #ff7f0e; stroke-width: 1.5; stroke-linecap: square"/>
    </g>
    <g id="text_21">
     <!-- val_accuracy -->
     <g transform="translate(464.020312 302.2775) scale(0.1 -0.1)">
      <defs>
       <path id="DejaVuSans-76" d="M 191 3500 
L 800 3500 
L 1894 563 
L 2988 3500 
L 3597 3500 
L 2284 0 
L 1503 0 
L 191 3500 
z
" transform="scale(0.015625)"/>
      </defs>
      <use xlink:href="#DejaVuSans-76"/>
      <use xlink:href="#DejaVuSans-61" transform="translate(59.179688 0)"/>
      <use xlink:href="#DejaVuSans-6c" transform="translate(120.458984 0)"/>
      <use xlink:href="#DejaVuSans-5f" transform="translate(148.242188 0)"/>
      <use xlink:href="#DejaVuSans-61" transform="translate(198.242188 0)"/>
      <use xlink:href="#DejaVuSans-63" transform="translate(259.521484 0)"/>
      <use xlink:href="#DejaVuSans-63" transform="translate(314.501953 0)"/>
      <use xlink:href="#DejaVuSans-75" transform="translate(369.482422 0)"/>
      <use xlink:href="#DejaVuSans-72" transform="translate(432.861328 0)"/>
      <use xlink:href="#DejaVuSans-61" transform="translate(473.974609 0)"/>
      <use xlink:href="#DejaVuSans-63" transform="translate(535.253906 0)"/>
      <use xlink:href="#DejaVuSans-79" transform="translate(590.234375 0)"/>
     </g>
    </g>
    <g id="line2d_38">
     <path d="M 436.020312 313.73375 
L 446.020312 313.73375 
L 456.020312 313.73375 
" style="fill: none; stroke-dasharray: 11.1,4.8; stroke-dashoffset: 0; stroke: #ff0000; stroke-width: 3"/>
    </g>
    <g id="text_22">
     <!-- Random-Guesser Accuracy -->
     <g transform="translate(464.020312 317.23375) scale(0.1 -0.1)">
      <defs>
       <path id="DejaVuSans-52" d="M 2841 2188 
Q 3044 2119 3236 1894 
Q 3428 1669 3622 1275 
L 4263 0 
L 3584 0 
L 2988 1197 
Q 2756 1666 2539 1819 
Q 2322 1972 1947 1972 
L 1259 1972 
L 1259 0 
L 628 0 
L 628 4666 
L 2053 4666 
Q 2853 4666 3247 4331 
Q 3641 3997 3641 3322 
Q 3641 2881 3436 2590 
Q 3231 2300 2841 2188 
z
M 1259 4147 
L 1259 2491 
L 2053 2491 
Q 2509 2491 2742 2702 
Q 2975 2913 2975 3322 
Q 2975 3731 2742 3939 
Q 2509 4147 2053 4147 
L 1259 4147 
z
" transform="scale(0.015625)"/>
       <path id="DejaVuSans-6d" d="M 3328 2828 
Q 3544 3216 3844 3400 
Q 4144 3584 4550 3584 
Q 5097 3584 5394 3201 
Q 5691 2819 5691 2113 
L 5691 0 
L 5113 0 
L 5113 2094 
Q 5113 2597 4934 2840 
Q 4756 3084 4391 3084 
Q 3944 3084 3684 2787 
Q 3425 2491 3425 1978 
L 3425 0 
L 2847 0 
L 2847 2094 
Q 2847 2600 2669 2842 
Q 2491 3084 2119 3084 
Q 1678 3084 1418 2786 
Q 1159 2488 1159 1978 
L 1159 0 
L 581 0 
L 581 3500 
L 1159 3500 
L 1159 2956 
Q 1356 3278 1631 3431 
Q 1906 3584 2284 3584 
Q 2666 3584 2933 3390 
Q 3200 3197 3328 2828 
z
" transform="scale(0.015625)"/>
       <path id="DejaVuSans-2d" d="M 313 2009 
L 1997 2009 
L 1997 1497 
L 313 1497 
L 313 2009 
z
" transform="scale(0.015625)"/>
       <path id="DejaVuSans-47" d="M 3809 666 
L 3809 1919 
L 2778 1919 
L 2778 2438 
L 4434 2438 
L 4434 434 
Q 4069 175 3628 42 
Q 3188 -91 2688 -91 
Q 1594 -91 976 548 
Q 359 1188 359 2328 
Q 359 3472 976 4111 
Q 1594 4750 2688 4750 
Q 3144 4750 3555 4637 
Q 3966 4525 4313 4306 
L 4313 3634 
Q 3963 3931 3569 4081 
Q 3175 4231 2741 4231 
Q 1884 4231 1454 3753 
Q 1025 3275 1025 2328 
Q 1025 1384 1454 906 
Q 1884 428 2741 428 
Q 3075 428 3337 486 
Q 3600 544 3809 666 
z
" transform="scale(0.015625)"/>
       <path id="DejaVuSans-65" d="M 3597 1894 
L 3597 1613 
L 953 1613 
Q 991 1019 1311 708 
Q 1631 397 2203 397 
Q 2534 397 2845 478 
Q 3156 559 3463 722 
L 3463 178 
Q 3153 47 2828 -22 
Q 2503 -91 2169 -91 
Q 1331 -91 842 396 
Q 353 884 353 1716 
Q 353 2575 817 3079 
Q 1281 3584 2069 3584 
Q 2775 3584 3186 3129 
Q 3597 2675 3597 1894 
z
M 3022 2063 
Q 3016 2534 2758 2815 
Q 2500 3097 2075 3097 
Q 1594 3097 1305 2825 
Q 1016 2553 972 2059 
L 3022 2063 
z
" transform="scale(0.015625)"/>
      </defs>
      <use xlink:href="#DejaVuSans-52"/>
      <use xlink:href="#DejaVuSans-61" transform="translate(67.232422 0)"/>
      <use xlink:href="#DejaVuSans-6e" transform="translate(128.511719 0)"/>
      <use xlink:href="#DejaVuSans-64" transform="translate(191.890625 0)"/>
      <use xlink:href="#DejaVuSans-6f" transform="translate(255.367188 0)"/>
      <use xlink:href="#DejaVuSans-6d" transform="translate(316.548828 0)"/>
      <use xlink:href="#DejaVuSans-2d" transform="translate(413.960938 0)"/>
      <use xlink:href="#DejaVuSans-47" transform="translate(453.669922 0)"/>
      <use xlink:href="#DejaVuSans-75" transform="translate(531.160156 0)"/>
      <use xlink:href="#DejaVuSans-65" transform="translate(594.539062 0)"/>
      <use xlink:href="#DejaVuSans-73" transform="translate(656.0625 0)"/>
      <use xlink:href="#DejaVuSans-73" transform="translate(708.162109 0)"/>
      <use xlink:href="#DejaVuSans-65" transform="translate(760.261719 0)"/>
      <use xlink:href="#DejaVuSans-72" transform="translate(821.785156 0)"/>
      <use xlink:href="#DejaVuSans-20" transform="translate(862.898438 0)"/>
      <use xlink:href="#DejaVuSans-41" transform="translate(894.685547 0)"/>
      <use xlink:href="#DejaVuSans-63" transform="translate(961.34375 0)"/>
      <use xlink:href="#DejaVuSans-63" transform="translate(1016.324219 0)"/>
      <use xlink:href="#DejaVuSans-75" transform="translate(1071.304688 0)"/>
      <use xlink:href="#DejaVuSans-72" transform="translate(1134.683594 0)"/>
      <use xlink:href="#DejaVuSans-61" transform="translate(1175.796875 0)"/>
      <use xlink:href="#DejaVuSans-63" transform="translate(1237.076172 0)"/>
      <use xlink:href="#DejaVuSans-79" transform="translate(1292.056641 0)"/>
     </g>
    </g>
   </g>
  </g>
 </g>
 <defs>
  <clipPath id="p38d137ba62">
   <rect x="50.14375" y="22.318125" width="558" height="554.4"/>
  </clipPath>
 </defs>
</svg>
