<?xml version="1.0" encoding="utf-8" standalone="no"?>
<!DOCTYPE svg PUBLIC "-//W3C//DTD SVG 1.1//EN"
  "http://www.w3.org/Graphics/SVG/1.1/DTD/svg11.dtd">
<svg xmlns:xlink="http://www.w3.org/1999/xlink" width="615.34375pt" height="614.274375pt" viewBox="0 0 615.34375 614.274375" xmlns="http://www.w3.org/2000/svg" version="1.1">
 <metadata>
  <rdf:RDF xmlns:dc="http://purl.org/dc/elements/1.1/" xmlns:cc="http://creativecommons.org/ns#" xmlns:rdf="http://www.w3.org/1999/02/22-rdf-syntax-ns#">
   <cc:Work>
    <dc:type rdf:resource="http://purl.org/dc/dcmitype/StillImage"/>
    <dc:date>2026-06-03T07:06:26.830528</dc:date>
    <dc:format>image/svg+xml</dc:format>
    <dc:creator>
     <cc:Agent>
      <dc:title>Matplotlib v3.10.9, https://matplotlib.org/</dc:title>
     </cc:Agent>
    </dc:creator>
   </cc:Work>
  </rdf:RDF>
 </metadata>
 <defs>
  <style type="text/css">*{stroke-linejoin: round; stroke-linecap: butt}</style>
 </defs>
 <g id="figure_1">
  <g id="patch_1">
   <path d="M 0 614.274375 
L 615.34375 614.274375 
L 615.34375 0 
L 0 0 
z
" style="fill: #ffffff"/>
  </g>
  <g id="axes_1">
   <g id="patch_2">
    <path d="M 50.14375 576.718125 
L 608.14375 576.718125 
L 608.14375 22.318125 
L 50.14375 22.318125 
z
" style="fill: #ffffff"/>
   </g>
   <g id="matplotlib.axis_1">
    <g id="xtick_1">
     <g id="line2d_1">
      <path d="M 75.507386 576.718125 
L 75.507386 22.318125 
" clip-path="url(#p36a0f1a588)" style="fill: none; stroke: #b0b0b0; stroke-width: 0.8; stroke-linecap: square"/>
     </g>
     <g id="line2d_2">
      <defs>
       <path id="ma2e59fe032" d="M 0 0 
L 0 3.5 
" style="stroke: #000000; stroke-width: 0.8"/>
      </defs>
      <g>
       <use xlink:href="#ma2e59fe032" x="75.507386" y="576.718125" style="stroke: #000000; stroke-width: 0.8"/>
      </g>
     </g>
     <g id="text_1">
      <!-- 0 -->
      <g transform="translate(72.326136 591.316563) scale(0.1 -0.1)">
       <defs>
        <path id="DejaVuSans-30" d="M 2034 4250 
Q 1547 4250 1301 3770 
Q 1056 3291 1056 2328 
Q 1056 1369 1301 889 
Q 1547 409 2034 409 
Q 2525 409 2770 889 
Q 3016 1369 3016 2328 
Q 3016 3291 2770 3770 
Q 2525 4250 2034 4250 
z
M 2034 4750 
Q 2819 4750 3233 4129 
Q 3647 3509 3647 2328 
Q 3647 1150 3233 529 
Q 2819 -91 2034 -91 
Q 1250 -91 836 529 
Q 422 1150 422 2328 
Q 422 3509 836 4129 
Q 1250 4750 2034 4750 
z
" transform="scale(0.015625)"/>
       </defs>
       <use xlink:href="#DejaVuSans-30"/>
      </g>
     </g>
    </g>
    <g id="xtick_2">
     <g id="line2d_3">
      <path d="M 138.995838 576.718125 
L 138.995838 22.318125 
" clip-path="url(#p36a0f1a588)" style="fill: none; stroke: #b0b0b0; stroke-width: 0.8; stroke-linecap: square"/>
     </g>
     <g id="line2d_4">
      <g>
       <use xlink:href="#ma2e59fe032" x="138.995838" y="576.718125" style="stroke: #000000; stroke-width: 0.8"/>
      </g>
     </g>
     <g id="text_2">
      <!-- 100 -->
      <g transform="translate(129.452088 591.316563) scale(0.1 -0.1)">
       <defs>
        <path id="DejaVuSans-31" d="M 794 531 
L 1825 531 
L 1825 4091 
L 703 3866 
L 703 4441 
L 1819 4666 
L 2450 4666 
L 2450 531 
L 3481 531 
L 3481 0 
L 794 0 
L 794 531 
z
" transform="scale(0.015625)"/>
       </defs>
       <use xlink:href="#DejaVuSans-31"/>
       <use xlink:href="#DejaVuSans-30" transform="translate(63.623047 0)"/>
       <use xlink:href="#DejaVuSans-30" transform="translate(127.246094 0)"/>
      </g>
     </g>
    </g>
    <g id="xtick_3">
     <g id="line2d_5">
      <path d="M 202.484289 576.718125 
L 202.484289 22.318125 
" clip-path="url(#p36a0f1a588)" style="fill: none; stroke: #b0b0b0; stroke-width: 0.8; stroke-linecap: square"/>
     </g>
     <g id="line2d_6">
      <g>
       <use xlink:href="#ma2e59fe032" x="202.484289" y="576.718125" style="stroke: #000000; stroke-width: 0.8"/>
      </g>
     </g>
     <g id="text_3">
      <!-- 200 -->
      <g transform="translate(192.940539 591.316563) scale(0.1 -0.1)">
       <defs>
        <path id="DejaVuSans-32" d="M 1228 531 
L 3431 531 
L 3431 0 
L 469 0 
L 469 531 
Q 828 903 1448 1529 
Q 2069 2156 2228 2338 
Q 2531 2678 2651 2914 
Q 2772 3150 2772 3378 
Q 2772 3750 2511 3984 
Q 2250 4219 1831 4219 
Q 1534 4219 1204 4116 
Q 875 4013 500 3803 
L 500 4441 
Q 881 4594 1212 4672 
Q 1544 4750 1819 4750 
Q 2544 4750 2975 4387 
Q 3406 4025 3406 3419 
Q 3406 3131 3298 2873 
Q 3191 2616 2906 2266 
Q 2828 2175 2409 1742 
Q 1991 1309 1228 531 
z
" transform="scale(0.015625)"/>
       </defs>
       <use xlink:href="#DejaVuSans-32"/>
       <use xlink:href="#DejaVuSans-30" transform="translate(63.623047 0)"/>
       <use xlink:href="#DejaVuSans-30" transform="translate(127.246094 0)"/>
      </g>
     </g>
    </g>
    <g id="xtick_4">
     <g id="line2d_7">
      <path d="M 265.972741 576.718125 
L 265.972741 22.318125 
" clip-path="url(#p36a0f1a588)" style="fill: none; stroke: #b0b0b0; stroke-width: 0.8; stroke-linecap: square"/>
     </g>
     <g id="line2d_8">
      <g>
       <use xlink:href="#ma2e59fe032" x="265.972741" y="576.718125" style="stroke: #000000; stroke-width: 0.8"/>
      </g>
     </g>
     <g id="text_4">
      <!-- 300 -->
      <g transform="translate(256.428991 591.316563) scale(0.1 -0.1)">
       <defs>
        <path id="DejaVuSans-33" d="M 2597 2516 
Q 3050 2419 3304 2112 
Q 3559 1806 3559 1356 
Q 3559 666 3084 287 
Q 2609 -91 1734 -91 
Q 1441 -91 1130 -33 
Q 819 25 488 141 
L 488 750 
Q 750 597 1062 519 
Q 1375 441 1716 441 
Q 2309 441 2620 675 
Q 2931 909 2931 1356 
Q 2931 1769 2642 2001 
Q 2353 2234 1838 2234 
L 1294 2234 
L 1294 2753 
L 1863 2753 
Q 2328 2753 2575 2939 
Q 2822 3125 2822 3475 
Q 2822 3834 2567 4026 
Q 2313 4219 1838 4219 
Q 1578 4219 1281 4162 
Q 984 4106 628 3988 
L 628 4550 
Q 988 4650 1302 4700 
Q 1616 4750 1894 4750 
Q 2613 4750 3031 4423 
Q 3450 4097 3450 3541 
Q 3450 3153 3228 2886 
Q 3006 2619 2597 2516 
z
" transform="scale(0.015625)"/>
       </defs>
       <use xlink:href="#DejaVuSans-33"/>
       <use xlink:href="#DejaVuSans-30" transform="translate(63.623047 0)"/>
       <use xlink:href="#DejaVuSans-30" transform="translate(127.246094 0)"/>
      </g>
     </g>
    </g>
    <g id="xtick_5">
     <g id="line2d_9">
      <path d="M 329.461192 576.718125 
L 329.461192 22.318125 
" clip-path="url(#p36a0f1a588)" style="fill: none; stroke: #b0b0b0; stroke-width: 0.8; stroke-linecap: square"/>
     </g>
     <g id="line2d_10">
      <g>
       <use xlink:href="#ma2e59fe032" x="329.461192" y="576.718125" style="stroke: #000000; stroke-width: 0.8"/>
      </g>
     </g>
     <g id="text_5">
      <!-- 400 -->
      <g transform="translate(319.917442 591.316563) scale(0.1 -0.1)">
       <defs>
        <path id="DejaVuSans-34" d="M 2419 4116 
L 825 1625 
L 2419 1625 
L 2419 4116 
z
M 2253 4666 
L 3047 4666 
L 3047 1625 
L 3713 1625 
L 3713 1100 
L 3047 1100 
L 3047 0 
L 2419 0 
L 2419 1100 
L 313 1100 
L 313 1709 
L 2253 4666 
z
" transform="scale(0.015625)"/>
       </defs>
       <use xlink:href="#DejaVuSans-34"/>
       <use xlink:href="#DejaVuSans-30" transform="translate(63.623047 0)"/>
       <use xlink:href="#DejaVuSans-30" transform="translate(127.246094 0)"/>
      </g>
     </g>
    </g>
    <g id="xtick_6">
     <g id="line2d_11">
      <path d="M 392.949644 576.718125 
L 392.949644 22.318125 
" clip-path="url(#p36a0f1a588)" style="fill: none; stroke: #b0b0b0; stroke-width: 0.8; stroke-linecap: square"/>
     </g>
     <g id="line2d_12">
      <g>
       <use xlink:href="#ma2e59fe032" x="392.949644" y="576.718125" style="stroke: #000000; stroke-width: 0.8"/>
      </g>
     </g>
     <g id="text_6">
      <!-- 500 -->
      <g transform="translate(383.405894 591.316563) scale(0.1 -0.1)">
       <defs>
        <path id="DejaVuSans-35" d="M 691 4666 
L 3169 4666 
L 3169 4134 
L 1269 4134 
L 1269 2991 
Q 1406 3038 1543 3061 
Q 1681 3084 1819 3084 
Q 2600 3084 3056 2656 
Q 3513 2228 3513 1497 
Q 3513 744 3044 326 
Q 2575 -91 1722 -91 
Q 1428 -91 1123 -41 
Q 819 9 494 109 
L 494 744 
Q 775 591 1075 516 
Q 1375 441 1709 441 
Q 2250 441 2565 725 
Q 2881 1009 2881 1497 
Q 2881 1984 2565 2268 
Q 2250 2553 1709 2553 
Q 1456 2553 1204 2497 
Q 953 2441 691 2322 
L 691 4666 
z
" transform="scale(0.015625)"/>
       </defs>
       <use xlink:href="#DejaVuSans-35"/>
       <use xlink:href="#DejaVuSans-30" transform="translate(63.623047 0)"/>
       <use xlink:href="#DejaVuSans-30" transform="translate(127.246094 0)"/>
      </g>
     </g>
    </g>
    <g id="xtick_7">
     <g id="line2d_13">
      <path d="M 456.438095 576.718125 
L 456.438095 22.318125 
" clip-path="url(#p36a0f1a588)" style="fill: none; stroke: #b0b0b0; stroke-width: 0.8; stroke-linecap: square"/>
     </g>
     <g id="line2d_14">
      <g>
       <use xlink:href="#ma2e59fe032" x="456.438095" y="576.718125" style="stroke: #000000; stroke-width: 0.8"/>
      </g>
     </g>
     <g id="text_7">
      <!-- 600 -->
      <g transform="translate(446.894345 591.316563) scale(0.1 -0.1)">
       <defs>
        <path id="DejaVuSans-36" d="M 2113 2584 
Q 1688 2584 1439 2293 
Q 1191 2003 1191 1497 
Q 1191 994 1439 701 
Q 1688 409 2113 409 
Q 2538 409 2786 701 
Q 3034 994 3034 1497 
Q 3034 2003 2786 2293 
Q 2538 2584 2113 2584 
z
M 3366 4563 
L 3366 3988 
Q 3128 4100 2886 4159 
Q 2644 4219 2406 4219 
Q 1781 4219 1451 3797 
Q 1122 3375 1075 2522 
Q 1259 2794 1537 2939 
Q 1816 3084 2150 3084 
Q 2853 3084 3261 2657 
Q 3669 2231 3669 1497 
Q 3669 778 3244 343 
Q 2819 -91 2113 -91 
Q 1303 -91 875 529 
Q 447 1150 447 2328 
Q 447 3434 972 4092 
Q 1497 4750 2381 4750 
Q 2619 4750 2861 4703 
Q 3103 4656 3366 4563 
z
" transform="scale(0.015625)"/>
       </defs>
       <use xlink:href="#DejaVuSans-36"/>
       <use xlink:href="#DejaVuSans-30" transform="translate(63.623047 0)"/>
       <use xlink:href="#DejaVuSans-30" transform="translate(127.246094 0)"/>
      </g>
     </g>
    </g>
    <g id="xtick_8">
     <g id="line2d_15">
      <path d="M 519.926547 576.718125 
L 519.926547 22.318125 
" clip-path="url(#p36a0f1a588)" style="fill: none; stroke: #b0b0b0; stroke-width: 0.8; stroke-linecap: square"/>
     </g>
     <g id="line2d_16">
      <g>
       <use xlink:href="#ma2e59fe032" x="519.926547" y="576.718125" style="stroke: #000000; stroke-width: 0.8"/>
      </g>
     </g>
     <g id="text_8">
      <!-- 700 -->
      <g transform="translate(510.382797 591.316563) scale(0.1 -0.1)">
       <defs>
        <path id="DejaVuSans-37" d="M 525 4666 
L 3525 4666 
L 3525 4397 
L 1831 0 
L 1172 0 
L 2766 4134 
L 525 4134 
L 525 4666 
z
" transform="scale(0.015625)"/>
       </defs>
       <use xlink:href="#DejaVuSans-37"/>
       <use xlink:href="#DejaVuSans-30" transform="translate(63.623047 0)"/>
       <use xlink:href="#DejaVuSans-30" transform="translate(127.246094 0)"/>
      </g>
     </g>
    </g>
    <g id="xtick_9">
     <g id="line2d_17">
      <path d="M 583.414998 576.718125 
L 583.414998 22.318125 
" clip-path="url(#p36a0f1a588)" style="fill: none; stroke: #b0b0b0; stroke-width: 0.8; stroke-linecap: square"/>
     </g>
     <g id="line2d_18">
      <g>
       <use xlink:href="#ma2e59fe032" x="583.414998" y="576.718125" style="stroke: #000000; stroke-width: 0.8"/>
      </g>
     </g>
     <g id="text_9">
      <!-- 800 -->
      <g transform="translate(573.871248 591.316563) scale(0.1 -0.1)">
       <defs>
        <path id="DejaVuSans-38" d="M 2034 2216 
Q 1584 2216 1326 1975 
Q 1069 1734 1069 1313 
Q 1069 891 1326 650 
Q 1584 409 2034 409 
Q 2484 409 2743 651 
Q 3003 894 3003 1313 
Q 3003 1734 2745 1975 
Q 2488 2216 2034 2216 
z
M 1403 2484 
Q 997 2584 770 2862 
Q 544 3141 544 3541 
Q 544 4100 942 4425 
Q 1341 4750 2034 4750 
Q 2731 4750 3128 4425 
Q 3525 4100 3525 3541 
Q 3525 3141 3298 2862 
Q 3072 2584 2669 2484 
Q 3125 2378 3379 2068 
Q 3634 1759 3634 1313 
Q 3634 634 3220 271 
Q 2806 -91 2034 -91 
Q 1263 -91 848 271 
Q 434 634 434 1313 
Q 434 1759 690 2068 
Q 947 2378 1403 2484 
z
M 1172 3481 
Q 1172 3119 1398 2916 
Q 1625 2713 2034 2713 
Q 2441 2713 2670 2916 
Q 2900 3119 2900 3481 
Q 2900 3844 2670 4047 
Q 2441 4250 2034 4250 
Q 1625 4250 1398 4047 
Q 1172 3844 1172 3481 
z
" transform="scale(0.015625)"/>
       </defs>
       <use xlink:href="#DejaVuSans-38"/>
       <use xlink:href="#DejaVuSans-30" transform="translate(63.623047 0)"/>
       <use xlink:href="#DejaVuSans-30" transform="translate(127.246094 0)"/>
      </g>
     </g>
    </g>
    <g id="text_10">
     <!-- Epochs -->
     <g transform="translate(311.228125 604.994688) scale(0.1 -0.1)">
      <defs>
       <path id="DejaVuSans-45" d="M 628 4666 
L 3578 4666 
L 3578 4134 
L 1259 4134 
L 1259 2753 
L 3481 2753 
L 3481 2222 
L 1259 2222 
L 1259 531 
L 3634 531 
L 3634 0 
L 628 0 
L 628 4666 
z
" transform="scale(0.015625)"/>
       <path id="DejaVuSans-70" d="M 1159 525 
L 1159 -1331 
L 581 -1331 
L 581 3500 
L 1159 3500 
L 1159 2969 
Q 1341 3281 1617 3432 
Q 1894 3584 2278 3584 
Q 2916 3584 3314 3078 
Q 3713 2572 3713 1747 
Q 3713 922 3314 415 
Q 2916 -91 2278 -91 
Q 1894 -91 1617 61 
Q 1341 213 1159 525 
z
M 3116 1747 
Q 3116 2381 2855 2742 
Q 2594 3103 2138 3103 
Q 1681 3103 1420 2742 
Q 1159 2381 1159 1747 
Q 1159 1113 1420 752 
Q 1681 391 2138 391 
Q 2594 391 2855 752 
Q 3116 1113 3116 1747 
z
" transform="scale(0.015625)"/>
       <path id="DejaVuSans-6f" d="M 1959 3097 
Q 1497 3097 1228 2736 
Q 959 2375 959 1747 
Q 959 1119 1226 758 
Q 1494 397 1959 397 
Q 2419 397 2687 759 
Q 2956 1122 2956 1747 
Q 2956 2369 2687 2733 
Q 2419 3097 1959 3097 
z
M 1959 3584 
Q 2709 3584 3137 3096 
Q 3566 2609 3566 1747 
Q 3566 888 3137 398 
Q 2709 -91 1959 -91 
Q 1206 -91 779 398 
Q 353 888 353 1747 
Q 353 2609 779 3096 
Q 1206 3584 1959 3584 
z
" transform="scale(0.015625)"/>
       <path id="DejaVuSans-63" d="M 3122 3366 
L 3122 2828 
Q 2878 2963 2633 3030 
Q 2388 3097 2138 3097 
Q 1578 3097 1268 2742 
Q 959 2388 959 1747 
Q 959 1106 1268 751 
Q 1578 397 2138 397 
Q 2388 397 2633 464 
Q 2878 531 3122 666 
L 3122 134 
Q 2881 22 2623 -34 
Q 2366 -91 2075 -91 
Q 1284 -91 818 406 
Q 353 903 353 1747 
Q 353 2603 823 3093 
Q 1294 3584 2113 3584 
Q 2378 3584 2631 3529 
Q 2884 3475 3122 3366 
z
" transform="scale(0.015625)"/>
       <path id="DejaVuSans-68" d="M 3513 2113 
L 3513 0 
L 2938 0 
L 2938 2094 
Q 2938 2591 2744 2837 
Q 2550 3084 2163 3084 
Q 1697 3084 1428 2787 
Q 1159 2491 1159 1978 
L 1159 0 
L 581 0 
L 581 4863 
L 1159 4863 
L 1159 2956 
Q 1366 3272 1645 3428 
Q 1925 3584 2291 3584 
Q 2894 3584 3203 3211 
Q 3513 2838 3513 2113 
z
" transform="scale(0.015625)"/>
       <path id="DejaVuSans-73" d="M 2834 3397 
L 2834 2853 
Q 2591 2978 2328 3040 
Q 2066 3103 1784 3103 
Q 1356 3103 1142 2972 
Q 928 2841 928 2578 
Q 928 2378 1081 2264 
Q 1234 2150 1697 2047 
L 1894 2003 
Q 2506 1872 2764 1633 
Q 3022 1394 3022 966 
Q 3022 478 2636 193 
Q 2250 -91 1575 -91 
Q 1294 -91 989 -36 
Q 684 19 347 128 
L 347 722 
Q 666 556 975 473 
Q 1284 391 1588 391 
Q 1994 391 2212 530 
Q 2431 669 2431 922 
Q 2431 1156 2273 1281 
Q 2116 1406 1581 1522 
L 1381 1569 
Q 847 1681 609 1914 
Q 372 2147 372 2553 
Q 372 3047 722 3315 
Q 1072 3584 1716 3584 
Q 2034 3584 2315 3537 
Q 2597 3491 2834 3397 
z
" transform="scale(0.015625)"/>
      </defs>
      <use xlink:href="#DejaVuSans-45"/>
      <use xlink:href="#DejaVuSans-70" transform="translate(63.183594 0)"/>
      <use xlink:href="#DejaVuSans-6f" transform="translate(126.660156 0)"/>
      <use xlink:href="#DejaVuSans-63" transform="translate(187.841797 0)"/>
      <use xlink:href="#DejaVuSans-68" transform="translate(242.822266 0)"/>
      <use xlink:href="#DejaVuSans-73" transform="translate(306.201172 0)"/>
     </g>
    </g>
   </g>
   <g id="matplotlib.axis_2">
    <g id="ytick_1">
     <g id="line2d_19">
      <path d="M 50.14375 523.000434 
L 608.14375 523.000434 
" clip-path="url(#p36a0f1a588)" style="fill: none; stroke: #b0b0b0; stroke-width: 0.8; stroke-linecap: square"/>
     </g>
     <g id="line2d_20">
      <defs>
       <path id="m189479141e" d="M 0 0 
L -3.5 0 
" style="stroke: #000000; stroke-width: 0.8"/>
      </defs>
      <g>
       <use xlink:href="#m189479141e" x="50.14375" y="523.000434" style="stroke: #000000; stroke-width: 0.8"/>
      </g>
     </g>
     <g id="text_11">
      <!-- 1.00 -->
      <g transform="translate(20.878125 526.799653) scale(0.1 -0.1)">
       <defs>
        <path id="DejaVuSans-2e" d="M 684 794 
L 1344 794 
L 1344 0 
L 684 0 
L 684 794 
z
" transform="scale(0.015625)"/>
       </defs>
       <use xlink:href="#DejaVuSans-31"/>
       <use xlink:href="#DejaVuSans-2e" transform="translate(63.623047 0)"/>
       <use xlink:href="#DejaVuSans-30" transform="translate(95.410156 0)"/>
       <use xlink:href="#DejaVuSans-30" transform="translate(159.033203 0)"/>
      </g>
     </g>
    </g>
    <g id="ytick_2">
     <g id="line2d_21">
      <path d="M 50.14375 452.272311 
L 608.14375 452.272311 
" clip-path="url(#p36a0f1a588)" style="fill: none; stroke: #b0b0b0; stroke-width: 0.8; stroke-linecap: square"/>
     </g>
     <g id="line2d_22">
      <g>
       <use xlink:href="#m189479141e" x="50.14375" y="452.272311" style="stroke: #000000; stroke-width: 0.8"/>
      </g>
     </g>
     <g id="text_12">
      <!-- 1.05 -->
      <g transform="translate(20.878125 456.07153) scale(0.1 -0.1)">
       <use xlink:href="#DejaVuSans-31"/>
       <use xlink:href="#DejaVuSans-2e" transform="translate(63.623047 0)"/>
       <use xlink:href="#DejaVuSans-30" transform="translate(95.410156 0)"/>
       <use xlink:href="#DejaVuSans-35" transform="translate(159.033203 0)"/>
      </g>
     </g>
    </g>
    <g id="ytick_3">
     <g id="line2d_23">
      <path d="M 50.14375 381.544188 
L 608.14375 381.544188 
" clip-path="url(#p36a0f1a588)" style="fill: none; stroke: #b0b0b0; stroke-width: 0.8; stroke-linecap: square"/>
     </g>
     <g id="line2d_24">
      <g>
       <use xlink:href="#m189479141e" x="50.14375" y="381.544188" style="stroke: #000000; stroke-width: 0.8"/>
      </g>
     </g>
     <g id="text_13">
      <!-- 1.10 -->
      <g transform="translate(20.878125 385.343407) scale(0.1 -0.1)">
       <use xlink:href="#DejaVuSans-31"/>
       <use xlink:href="#DejaVuSans-2e" transform="translate(63.623047 0)"/>
       <use xlink:href="#DejaVuSans-31" transform="translate(95.410156 0)"/>
       <use xlink:href="#DejaVuSans-30" transform="translate(159.033203 0)"/>
      </g>
     </g>
    </g>
    <g id="ytick_4">
     <g id="line2d_25">
      <path d="M 50.14375 310.816065 
L 608.14375 310.816065 
" clip-path="url(#p36a0f1a588)" style="fill: none; stroke: #b0b0b0; stroke-width: 0.8; stroke-linecap: square"/>
     </g>
     <g id="line2d_26">
      <g>
       <use xlink:href="#m189479141e" x="50.14375" y="310.816065" style="stroke: #000000; stroke-width: 0.8"/>
      </g>
     </g>
     <g id="text_14">
      <!-- 1.15 -->
      <g transform="translate(20.878125 314.615283) scale(0.1 -0.1)">
       <use xlink:href="#DejaVuSans-31"/>
       <use xlink:href="#DejaVuSans-2e" transform="translate(63.623047 0)"/>
       <use xlink:href="#DejaVuSans-31" transform="translate(95.410156 0)"/>
       <use xlink:href="#DejaVuSans-35" transform="translate(159.033203 0)"/>
      </g>
     </g>
    </g>
    <g id="ytick_5">
     <g id="line2d_27">
      <path d="M 50.14375 240.087942 
L 608.14375 240.087942 
" clip-path="url(#p36a0f1a588)" style="fill: none; stroke: #b0b0b0; stroke-width: 0.8; stroke-linecap: square"/>
     </g>
     <g id="line2d_28">
      <g>
       <use xlink:href="#m189479141e" x="50.14375" y="240.087942" style="stroke: #000000; stroke-width: 0.8"/>
      </g>
     </g>
     <g id="text_15">
      <!-- 1.20 -->
      <g transform="translate(20.878125 243.88716) scale(0.1 -0.1)">
       <use xlink:href="#DejaVuSans-31"/>
       <use xlink:href="#DejaVuSans-2e" transform="translate(63.623047 0)"/>
       <use xlink:href="#DejaVuSans-32" transform="translate(95.410156 0)"/>
       <use xlink:href="#DejaVuSans-30" transform="translate(159.033203 0)"/>
      </g>
     </g>
    </g>
    <g id="ytick_6">
     <g id="line2d_29">
      <path d="M 50.14375 169.359819 
L 608.14375 169.359819 
" clip-path="url(#p36a0f1a588)" style="fill: none; stroke: #b0b0b0; stroke-width: 0.8; stroke-linecap: square"/>
     </g>
     <g id="line2d_30">
      <g>
       <use xlink:href="#m189479141e" x="50.14375" y="169.359819" style="stroke: #000000; stroke-width: 0.8"/>
      </g>
     </g>
     <g id="text_16">
      <!-- 1.25 -->
      <g transform="translate(20.878125 173.159037) scale(0.1 -0.1)">
       <use xlink:href="#DejaVuSans-31"/>
       <use xlink:href="#DejaVuSans-2e" transform="translate(63.623047 0)"/>
       <use xlink:href="#DejaVuSans-32" transform="translate(95.410156 0)"/>
       <use xlink:href="#DejaVuSans-35" transform="translate(159.033203 0)"/>
      </g>
     </g>
    </g>
    <g id="ytick_7">
     <g id="line2d_31">
      <path d="M 50.14375 98.631695 
L 608.14375 98.631695 
" clip-path="url(#p36a0f1a588)" style="fill: none; stroke: #b0b0b0; stroke-width: 0.8; stroke-linecap: square"/>
     </g>
     <g id="line2d_32">
      <g>
       <use xlink:href="#m189479141e" x="50.14375" y="98.631695" style="stroke: #000000; stroke-width: 0.8"/>
      </g>
     </g>
     <g id="text_17">
      <!-- 1.30 -->
      <g transform="translate(20.878125 102.430914) scale(0.1 -0.1)">
       <use xlink:href="#DejaVuSans-31"/>
       <use xlink:href="#DejaVuSans-2e" transform="translate(63.623047 0)"/>
       <use xlink:href="#DejaVuSans-33" transform="translate(95.410156 0)"/>
       <use xlink:href="#DejaVuSans-30" transform="translate(159.033203 0)"/>
      </g>
     </g>
    </g>
    <g id="ytick_8">
     <g id="line2d_33">
      <path d="M 50.14375 27.903572 
L 608.14375 27.903572 
" clip-path="url(#p36a0f1a588)" style="fill: none; stroke: #b0b0b0; stroke-width: 0.8; stroke-linecap: square"/>
     </g>
     <g id="line2d_34">
      <g>
       <use xlink:href="#m189479141e" x="50.14375" y="27.903572" style="stroke: #000000; stroke-width: 0.8"/>
      </g>
     </g>
     <g id="text_18">
      <!-- 1.35 -->
      <g transform="translate(20.878125 31.702791) scale(0.1 -0.1)">
       <use xlink:href="#DejaVuSans-31"/>
       <use xlink:href="#DejaVuSans-2e" transform="translate(63.623047 0)"/>
       <use xlink:href="#DejaVuSans-33" transform="translate(95.410156 0)"/>
       <use xlink:href="#DejaVuSans-35" transform="translate(159.033203 0)"/>
      </g>
     </g>
    </g>
    <g id="text_19">
     <!-- Loss -->
     <g transform="translate(14.798437 310.485313) rotate(-90) scale(0.1 -0.1)">
      <defs>
       <path id="DejaVuSans-4c" d="M 628 4666 
L 1259 4666 
L 1259 531 
L 3531 531 
L 3531 0 
L 628 0 
L 628 4666 
z
" transform="scale(0.015625)"/>
      </defs>
      <use xlink:href="#DejaVuSans-4c"/>
      <use xlink:href="#DejaVuSans-6f" transform="translate(53.962891 0)"/>
      <use xlink:href="#DejaVuSans-73" transform="translate(115.144531 0)"/>
      <use xlink:href="#DejaVuSans-73" transform="translate(167.244141 0)"/>
     </g>
    </g>
   </g>
   <g id="line2d_35">
    <path d="M 75.507386 47.518125 
L 76.142271 212.489548 
L 76.777155 245.685513 
L 77.41204 265.756916 
L 78.046924 280.860171 
L 79.316693 303.303846 
L 80.586462 319.886314 
L 81.856232 333.373935 
L 83.760885 353.392557 
L 84.39577 360.812063 
L 85.665539 370.237918 
L 86.300423 372.898883 
L 86.935308 376.494053 
L 87.570192 378.989931 
L 88.205077 380.943666 
L 89.474846 387.16439 
L 90.10973 388.940053 
L 90.744615 389.721142 
L 91.379499 392.703852 
L 92.649268 396.807607 
L 93.284153 398.172321 
L 93.919037 399.828595 
L 94.553922 402.33341 
L 95.188806 403.580253 
L 95.823691 406.011377 
L 96.458575 406.812365 
L 97.09346 407.802385 
L 97.728344 410.634172 
L 98.363229 411.356073 
L 98.998113 412.480322 
L 99.632998 414.229005 
L 100.267882 414.675703 
L 100.902767 416.47059 
L 104.07719 422.531115 
L 104.712074 424.201048 
L 105.346959 424.76545 
L 105.981843 426.450053 
L 107.251612 428.174116 
L 107.886497 429.019116 
L 108.521381 430.097161 
L 109.156266 431.611786 
L 109.79115 432.426433 
L 110.426035 434.095017 
L 111.060919 435.065139 
L 111.695804 435.685188 
L 112.330688 436.928658 
L 112.965573 437.568943 
L 114.235342 440.555699 
L 114.870226 442.095619 
L 115.505111 443.078389 
L 116.139995 443.827101 
L 116.77488 445.25286 
L 118.044649 447.500684 
L 118.679533 448.27604 
L 119.314418 449.684767 
L 119.949302 450.678666 
L 121.219071 453.256834 
L 122.48884 454.846163 
L 123.758609 457.180494 
L 124.393494 457.357385 
L 125.028379 457.911332 
L 125.663263 459.225963 
L 126.298148 460.177368 
L 126.933032 460.671114 
L 127.567917 460.637894 
L 128.202801 461.840556 
L 128.837686 462.59399 
L 129.47257 462.754862 
L 130.107455 464.472854 
L 130.742339 464.422265 
L 132.012108 465.193912 
L 132.646993 466.194893 
L 133.281877 466.431143 
L 133.916762 467.421838 
L 134.551646 467.561125 
L 135.186531 468.267006 
L 135.821415 468.594821 
L 136.4563 469.344546 
L 137.091184 469.803385 
L 137.726069 469.962234 
L 138.360953 471.347521 
L 139.630722 471.87398 
L 140.265607 471.948346 
L 140.900491 473.321829 
L 141.535376 473.518113 
L 142.17026 473.936313 
L 142.805145 473.752339 
L 143.440029 474.03378 
L 144.074914 475.007107 
L 145.344683 475.679937 
L 145.979567 476.076552 
L 146.614452 476.631173 
L 147.249337 476.244844 
L 147.884221 476.521395 
L 148.519106 477.59826 
L 149.15399 476.93403 
L 149.788875 477.974471 
L 150.423759 478.341576 
L 151.058644 478.239387 
L 151.693528 478.869722 
L 152.328413 478.841056 
L 152.963297 479.516415 
L 153.598182 480.500027 
L 154.233066 480.443874 
L 154.867951 480.668488 
L 155.502835 481.133398 
L 156.772604 481.653281 
L 157.407489 482.110772 
L 158.042373 481.827306 
L 158.677258 482.311609 
L 159.312142 482.983258 
L 159.947027 482.168611 
L 160.581911 482.904171 
L 161.216796 483.023392 
L 161.85168 483.456094 
L 162.486565 484.226054 
L 163.121449 484.128249 
L 165.026103 484.949641 
L 165.660987 485.70864 
L 166.295872 484.810353 
L 166.930756 486.017568 
L 167.565641 486.474215 
L 168.200526 486.723112 
L 168.83541 486.591244 
L 169.470295 486.82294 
L 170.105179 486.853462 
L 170.740064 487.000675 
L 171.374948 487.775356 
L 172.009833 487.554453 
L 172.644717 487.613135 
L 173.279602 488.001825 
L 173.914486 488.561168 
L 175.81914 488.650878 
L 176.454024 489.177338 
L 177.088909 489.193526 
L 177.723793 489.407854 
L 178.358678 489.818634 
L 178.993562 490.015424 
L 179.628447 489.862815 
L 180.263331 490.349647 
L 180.898216 491.034449 
L 181.5331 491.22736 
L 182.167985 490.501075 
L 183.437754 491.024331 
L 184.072638 491.970846 
L 184.707523 491.566979 
L 185.342407 492.347731 
L 185.977292 491.807444 
L 186.612176 492.152122 
L 187.247061 492.254311 
L 187.881945 492.768967 
L 188.51683 492.983294 
L 189.151715 492.333735 
L 189.786599 492.880768 
L 190.421484 493.810757 
L 191.056368 493.395929 
L 191.691253 493.349388 
L 192.326137 494.331483 
L 192.961022 494.391346 
L 193.595906 494.795044 
L 194.230791 494.199952 
L 195.50056 495.127412 
L 196.135444 494.965191 
L 196.770329 494.658792 
L 197.405213 495.160294 
L 198.040098 496.286399 
L 198.674982 495.542408 
L 199.309867 496.549291 
L 199.944751 496.809992 
L 200.579636 496.589762 
L 202.484289 497.858527 
L 203.119174 498.523262 
L 203.754058 498.347551 
L 204.388943 499.691524 
L 205.023827 499.565558 
L 205.658712 499.268602 
L 206.928481 500.211744 
L 207.563365 500.578006 
L 208.19825 501.133133 
L 208.833134 500.992328 
L 209.468019 501.516933 
L 210.102903 501.573761 
L 210.737788 502.218261 
L 212.007557 502.275426 
L 212.642442 502.032769 
L 214.547095 503.842158 
L 215.18198 503.489386 
L 215.816864 503.622603 
L 216.451749 504.520552 
L 217.086633 504.029504 
L 217.721518 504.545172 
L 218.356402 504.726111 
L 218.991287 504.251252 
L 219.626171 505.105526 
L 220.261056 504.839092 
L 220.89594 505.344979 
L 221.530825 505.47651 
L 222.165709 505.939228 
L 222.800594 505.633335 
L 223.435478 505.54413 
L 224.070363 506.310043 
L 224.705247 505.946647 
L 225.340132 506.75438 
L 225.975016 506.283062 
L 226.609901 506.648987 
L 227.244785 507.40259 
L 227.87967 507.187925 
L 228.514554 507.502587 
L 229.784323 507.565317 
L 230.419208 507.81219 
L 231.054092 508.213021 
L 231.688977 508.240339 
L 232.323862 508.97691 
L 232.958746 508.300034 
L 233.593631 509.401518 
L 234.228515 509.440303 
L 234.8634 510.356295 
L 235.498284 509.117041 
L 236.133169 509.720564 
L 236.768053 509.863056 
L 237.402938 509.267795 
L 238.037822 509.721913 
L 238.672707 510.335385 
L 239.307591 510.025783 
L 239.942476 510.383276 
L 240.57736 510.159674 
L 241.212245 511.041098 
L 241.847129 510.791021 
L 242.482014 511.322371 
L 243.116898 511.326755 
L 243.751783 512.068891 
L 244.386667 511.763504 
L 245.021552 511.89689 
L 245.656436 511.165377 
L 246.291321 512.197387 
L 247.56109 511.553393 
L 248.195974 513.08252 
L 248.830859 512.634642 
L 249.465743 512.803271 
L 250.100628 512.688266 
L 250.735512 512.815581 
L 251.370397 514.187715 
L 252.005281 513.182517 
L 252.640166 513.009672 
L 253.27505 513.685369 
L 253.909935 513.960403 
L 254.54482 514.529694 
L 255.179704 513.750965 
L 255.814589 514.78601 
L 256.449473 514.319077 
L 257.084358 514.249433 
L 257.719242 514.829011 
L 258.354127 514.384167 
L 258.989011 514.848572 
L 259.623896 514.847728 
L 260.25878 515.148057 
L 260.893665 515.036424 
L 261.528549 515.520558 
L 262.163434 515.760854 
L 262.798318 514.883478 
L 263.433203 514.924286 
L 264.068087 515.80571 
L 264.702972 515.426463 
L 265.337856 516.049041 
L 265.972741 516.442284 
L 266.607625 516.676678 
L 267.877394 516.543124 
L 268.512279 517.270421 
L 269.147163 517.313421 
L 269.782048 517.05525 
L 270.416932 517.143949 
L 271.051817 516.733 
L 271.686701 517.770237 
L 272.321586 517.550514 
L 272.95647 516.635364 
L 273.591355 517.405493 
L 274.861124 517.998224 
L 275.496009 517.505321 
L 276.130893 517.550514 
L 276.765778 517.451529 
L 277.400662 518.424181 
L 278.035547 518.063652 
L 278.670431 518.022338 
L 279.9402 518.729568 
L 280.575085 518.871216 
L 281.209969 518.455714 
L 281.844854 519.739149 
L 282.479738 518.804776 
L 283.114623 518.621982 
L 283.749507 519.193803 
L 284.384392 518.845247 
L 285.019276 518.983354 
L 285.654161 519.713181 
L 286.289045 518.846596 
L 286.92393 519.013539 
L 287.558814 519.476763 
L 288.193699 519.429715 
L 288.828583 519.738138 
L 289.463468 519.824307 
L 290.098352 520.495282 
L 290.733237 519.951959 
L 291.368121 520.873011 
L 292.003006 520.29748 
L 292.63789 520.277245 
L 293.272775 520.070168 
L 293.907659 520.152796 
L 294.542544 520.989533 
L 295.177428 521.066934 
L 295.812313 520.697299 
L 296.447197 520.939619 
L 297.082082 520.620405 
L 297.716967 520.671162 
L 298.351851 521.07486 
L 298.986736 521.15968 
L 300.256505 520.863399 
L 300.891389 521.45984 
L 301.526274 521.577711 
L 302.161158 521.435894 
L 302.796043 521.534205 
L 303.430927 521.887989 
L 304.065812 522.05881 
L 304.700696 522.081406 
L 305.335581 521.332019 
L 305.970465 522.327098 
L 306.60535 521.723744 
L 307.240234 522.562673 
L 307.875119 522.197929 
L 308.510003 522.093885 
L 309.144888 522.815279 
L 309.779772 522.642435 
L 310.414657 522.797573 
L 311.049541 523.227577 
L 311.684426 522.864688 
L 312.31931 522.171791 
L 312.954195 522.876998 
L 313.589079 522.571779 
L 314.223964 522.902629 
L 314.858848 523.477148 
L 315.493733 522.838213 
L 316.128617 523.85884 
L 316.763502 523.645946 
L 317.398386 523.181542 
L 318.033271 523.933374 
L 318.668156 523.473101 
L 319.30304 524.334036 
L 319.937925 523.695101 
L 320.572809 524.409245 
L 321.207694 524.146352 
L 321.842578 524.471891 
L 322.477463 524.473324 
L 323.112347 524.08396 
L 323.747232 524.555699 
L 324.382116 524.738324 
L 325.017001 524.71362 
L 325.651885 525.231901 
L 326.28677 524.559662 
L 326.921654 524.899618 
L 327.556539 525.090843 
L 328.191423 525.137638 
L 328.826308 525.314783 
L 329.461192 525.290753 
L 330.096077 525.666037 
L 330.730961 525.299606 
L 331.365846 525.717553 
L 332.00073 525.948069 
L 332.635615 525.568401 
L 333.270499 526.214165 
L 333.905384 525.434762 
L 334.540268 525.412334 
L 335.175153 526.135163 
L 335.810037 526.188028 
L 336.444922 525.533747 
L 337.079806 526.394261 
L 337.714691 526.506737 
L 338.349575 525.758192 
L 339.619344 526.504544 
L 340.254229 526.095029 
L 340.889114 526.856726 
L 341.523998 527.038677 
L 342.793767 527.136397 
L 344.063536 526.73329 
L 344.698421 526.72275 
L 345.333305 527.04989 
L 345.96819 526.405812 
L 346.603074 527.321383 
L 347.237959 527.23319 
L 347.872843 527.613954 
L 349.777497 527.711506 
L 350.412381 527.665302 
L 351.047266 528.268235 
L 351.68215 527.074763 
L 352.317035 527.625168 
L 352.951919 527.747846 
L 353.586804 528.546726 
L 354.221688 528.604903 
L 354.856573 527.923389 
L 355.491457 528.403391 
L 356.761226 528.514518 
L 357.396111 528.901099 
L 358.66588 528.180295 
L 359.300764 528.888199 
L 359.935649 528.415279 
L 360.570533 529.444085 
L 361.205418 529.149827 
L 361.840303 529.3408 
L 362.475187 528.941486 
L 363.110072 528.889801 
L 363.744956 529.353194 
L 364.379841 529.517523 
L 365.64961 529.466175 
L 366.284494 529.511958 
L 366.919379 529.970797 
L 367.554263 529.553694 
L 368.189148 529.672661 
L 368.824032 529.532615 
L 369.458917 529.589443 
L 370.093801 530.140523 
L 371.36357 530.345238 
L 371.998455 529.711615 
L 372.633339 530.037996 
L 373.268224 530.065989 
L 373.903108 529.793063 
L 374.537993 530.045837 
L 375.172877 530.018857 
L 375.807762 530.966805 
L 376.442646 530.622043 
L 377.077531 530.572128 
L 377.712415 530.16978 
L 378.3473 530.338577 
L 378.982184 531.101876 
L 379.617069 530.630137 
L 380.251953 530.760656 
L 380.886838 531.269156 
L 381.521722 531.321094 
L 382.156607 531.119667 
L 382.791491 531.397652 
L 383.426376 530.888814 
L 384.061261 530.57685 
L 384.696145 531.703292 
L 385.33103 531.343437 
L 386.600799 531.242429 
L 387.235683 531.720155 
L 389.140337 531.812226 
L 389.775221 532.029083 
L 390.410106 532.029673 
L 391.04499 531.902611 
L 391.679875 532.252095 
L 392.314759 531.787438 
L 392.949644 532.05834 
L 394.219413 532.353862 
L 394.854297 532.015087 
L 395.489182 532.505544 
L 396.124066 532.456473 
L 397.393835 531.970653 
L 398.02872 532.874336 
L 398.663604 532.708995 
L 399.298489 532.697275 
L 399.933373 533.726418 
L 401.203142 533.058647 
L 401.838027 533.156789 
L 403.107796 533.749183 
L 403.74268 533.584685 
L 404.377565 533.596742 
L 405.01245 534.051366 
L 406.282219 534.016375 
L 407.551988 534.332639 
L 408.186872 534.299756 
L 408.821757 534.947713 
L 409.456641 534.59764 
L 410.091526 534.516698 
L 411.361295 535.161282 
L 412.631064 535.661014 
L 413.265948 536.447162 
L 413.900833 535.632178 
L 414.535717 536.283171 
L 415.170602 535.90013 
L 415.805486 536.247674 
L 416.440371 536.346912 
L 417.075255 536.32693 
L 417.71014 536.701033 
L 418.345024 536.729026 
L 418.979909 536.206444 
L 419.614793 537.018393 
L 420.249678 536.675233 
L 420.884562 537.588359 
L 421.519447 536.919661 
L 422.154331 537.531531 
L 422.789216 536.797826 
L 423.4241 536.709549 
L 424.058985 537.475293 
L 424.693869 537.136518 
L 425.328754 537.342667 
L 425.963638 537.758759 
L 426.598523 537.918787 
L 427.233408 537.175302 
L 427.868292 538.197531 
L 428.503177 537.171339 
L 429.138061 538.825337 
L 429.772946 538.706622 
L 430.40783 538.323666 
L 431.042715 538.214816 
L 431.677599 538.843043 
L 432.312484 538.501063 
L 432.947368 538.904087 
L 433.582253 538.80215 
L 434.217137 538.388335 
L 434.852022 539.172207 
L 435.486906 538.726605 
L 436.121791 539.032245 
L 436.756675 539.016815 
L 437.39156 539.82244 
L 438.026444 538.548954 
L 438.661329 539.40424 
L 439.296213 539.601283 
L 439.931098 539.606679 
L 440.565982 539.334175 
L 441.200867 539.834919 
L 441.835751 539.824379 
L 442.470636 539.631468 
L 443.10552 539.559126 
L 445.010174 540.111639 
L 446.279943 539.822693 
L 446.914827 540.649903 
L 447.549712 540.64282 
L 448.184597 540.313488 
L 448.819481 541.189009 
L 450.08925 541.013298 
L 450.724135 540.608757 
L 451.359019 541.128977 
L 451.993904 540.870301 
L 452.628788 541.595405 
L 453.263673 541.025439 
L 453.898557 540.718282 
L 454.533442 541.668 
L 455.168326 540.87772 
L 455.803211 541.192888 
L 456.438095 542.112506 
L 457.07298 541.451649 
L 457.707864 541.935277 
L 458.342749 541.425764 
L 459.612518 541.845566 
L 460.247402 542.232317 
L 460.882287 541.457551 
L 461.517171 542.351453 
L 462.152056 542.316126 
L 462.78694 542.864929 
L 463.421825 542.529526 
L 464.056709 541.956777 
L 464.691594 542.562745 
L 465.326478 542.242941 
L 465.961363 542.08561 
L 466.596247 542.446897 
L 467.231132 542.144293 
L 467.866016 543.295101 
L 468.500901 542.866446 
L 469.135785 541.979542 
L 469.77067 543.366347 
L 470.405555 542.680196 
L 471.040439 543.245524 
L 472.310208 542.86965 
L 472.945093 543.395098 
L 474.214862 542.77252 
L 474.849746 543.164245 
L 475.484631 543.817008 
L 476.119515 543.026054 
L 476.7544 543.413141 
L 477.389284 544.017845 
L 478.024169 543.346533 
L 478.659053 543.649391 
L 479.293938 543.46061 
L 480.563707 543.802337 
L 481.198591 543.063911 
L 481.833476 544.082683 
L 482.46836 543.623 
L 483.103245 543.741715 
L 483.738129 543.604451 
L 484.373014 543.891879 
L 485.007898 543.523509 
L 486.277667 544.478118 
L 486.912552 543.978049 
L 487.547436 544.443465 
L 488.817205 544.26809 
L 490.086974 545.122281 
L 490.721859 544.877431 
L 491.356744 544.957614 
L 493.261397 544.639411 
L 493.896282 544.467916 
L 494.531166 545.302545 
L 495.166051 545.180373 
L 495.800935 545.26435 
L 496.43582 545.186107 
L 497.070704 544.987883 
L 497.705589 545.353134 
L 498.340473 544.82777 
L 498.975358 544.828866 
L 499.610242 544.581572 
L 500.245127 545.209883 
L 500.880011 545.140155 
L 501.514896 545.412322 
L 502.14978 545.381379 
L 502.784665 545.551863 
L 503.419549 545.094035 
L 504.054434 545.462742 
L 504.689318 545.694692 
L 505.324203 546.283038 
L 505.959087 545.40035 
L 506.593972 545.488458 
L 507.228856 546.600904 
L 507.863741 545.573363 
L 508.498625 546.430336 
L 509.13351 545.429691 
L 509.768394 545.640899 
L 510.403279 546.485224 
L 511.038163 546.622741 
L 511.673048 546.493824 
L 512.942817 546.459593 
L 513.577702 546.03372 
L 514.212586 547.150297 
L 514.847471 546.282532 
L 515.482355 546.507821 
L 516.11724 548.14369 
L 516.752124 546.674257 
L 517.387009 546.523334 
L 518.021893 546.507821 
L 518.656778 547.357289 
L 519.291662 546.889259 
L 519.926547 546.603012 
L 520.561431 546.898787 
L 521.196316 546.118119 
L 521.8312 547.00848 
L 522.466085 546.748033 
L 523.100969 547.752555 
L 524.370738 546.972984 
L 525.005623 547.312855 
L 525.640507 547.118848 
L 526.910276 547.994875 
L 527.545161 547.44017 
L 528.180045 547.177193 
L 529.449814 547.418586 
L 530.084699 547.849854 
L 530.719583 547.95061 
L 531.989352 547.438737 
L 532.624237 547.816213 
L 533.259121 548.039646 
L 533.894006 547.62035 
L 534.528891 547.525328 
L 535.163775 547.626674 
L 535.79866 548.140739 
L 536.433544 547.385703 
L 537.068429 548.744262 
L 537.703313 548.296215 
L 538.338198 548.457678 
L 539.607967 547.756603 
L 540.242851 549.046193 
L 540.877736 547.513524 
L 541.51262 547.897745 
L 542.147505 548.488874 
L 542.782389 549.389268 
L 543.417274 548.009293 
L 544.052158 548.851848 
L 545.321927 548.213924 
L 545.956812 549.203945 
L 548.49635 549.075197 
L 550.401003 548.840971 
L 551.035888 549.0397 
L 552.305657 548.917276 
L 552.940541 548.5742 
L 553.575426 549.116089 
L 554.21031 549.131688 
L 554.845195 549.955103 
L 555.48008 548.771496 
L 556.114964 549.103274 
L 556.749849 549.770623 
L 557.384733 549.718685 
L 558.019618 549.385053 
L 558.654502 550.093126 
L 559.289387 549.20521 
L 559.924271 549.299726 
L 560.559156 549.985288 
L 561.19404 549.961848 
L 561.828925 549.149815 
L 562.463809 549.850975 
L 563.098694 549.847771 
L 563.733578 550.039586 
L 564.368463 549.883773 
L 565.003347 550.348514 
L 565.638232 550.190003 
L 566.273116 549.913873 
L 566.908001 550.090934 
L 568.17777 550.691927 
L 568.812654 550.255684 
L 569.447539 549.992201 
L 570.082423 550.574562 
L 571.352192 550.595303 
L 571.987077 550.318667 
L 572.621961 549.746087 
L 573.256846 550.227692 
L 573.89173 550.125671 
L 574.526615 551.390641 
L 575.161499 551.28997 
L 576.431268 550.760475 
L 577.066153 550.998495 
L 577.701038 550.956928 
L 578.335922 550.771014 
L 579.605691 550.986775 
L 580.240576 551.002795 
L 580.87546 551.518125 
L 581.510345 551.318974 
L 582.145229 550.872107 
L 582.780114 550.87236 
L 582.780114 550.87236 
" clip-path="url(#p36a0f1a588)" style="fill: none; stroke: #1f77b4; stroke-width: 1.5; stroke-linecap: square"/>
   </g>
   <g id="line2d_36">
    <path d="M 75.507386 206.362751 
L 76.142271 225.451384 
L 78.046924 293.477497 
L 78.681809 281.646994 
L 79.316693 310.484574 
L 79.951578 293.517968 
L 80.586462 324.084164 
L 81.221347 324.054317 
L 81.856232 329.747232 
L 82.491116 342.194243 
L 83.126001 343.078027 
L 83.760885 362.264633 
L 84.39577 340.572707 
L 85.030654 357.100877 
L 85.665539 369.441483 
L 86.300423 344.599735 
L 86.935308 378.277811 
L 87.570192 362.846572 
L 88.205077 374.723955 
L 88.839961 375.336752 
L 89.474846 368.508459 
L 90.10973 373.29533 
L 90.744615 384.876094 
L 91.379499 379.213533 
L 92.014384 393.250884 
L 92.649268 356.929381 
L 93.919037 404.880888 
L 94.553922 396.423976 
L 95.188806 405.544275 
L 96.458575 394.395369 
L 97.09346 406.417941 
L 97.728344 406.725858 
L 98.363229 391.881617 
L 98.998113 404.857449 
L 99.632998 395.009853 
L 100.267882 405.25946 
L 100.902767 402.143702 
L 101.537651 410.41428 
L 102.172536 411.752013 
L 102.80742 408.030878 
L 103.442305 420.950387 
L 104.07719 408.940462 
L 104.712074 416.703466 
L 105.346959 414.133898 
L 105.981843 424.680123 
L 107.251612 412.537824 
L 107.886497 426.417339 
L 108.521381 431.3494 
L 109.156266 421.030823 
L 109.79115 424.115891 
L 110.426035 421.488314 
L 111.060919 424.930706 
L 111.695804 425.374369 
L 112.330688 432.309236 
L 112.965573 433.678672 
L 114.235342 425.999645 
L 114.870226 429.186733 
L 115.505111 435.099877 
L 116.139995 434.376121 
L 116.77488 439.072439 
L 117.409764 438.670596 
L 118.044649 434.801235 
L 118.679533 435.222976 
L 119.314418 430.058039 
L 119.949302 441.757012 
L 120.584187 442.714825 
L 121.219071 418.224163 
L 121.853956 435.688729 
L 122.48884 425.491397 
L 123.123725 442.368292 
L 123.758609 445.85672 
L 124.393494 442.604035 
L 125.028379 442.48043 
L 126.298148 443.239429 
L 126.933032 443.940589 
L 127.567917 447.567292 
L 128.202801 448.354284 
L 128.837686 448.675691 
L 129.47257 436.380445 
L 130.107455 431.709423 
L 130.742339 446.974393 
L 131.377224 443.828788 
L 132.012108 449.942094 
L 132.646993 457.334958 
L 133.281877 454.804005 
L 133.916762 453.06915 
L 134.551646 445.157753 
L 135.186531 445.22453 
L 135.821415 455.294547 
L 136.4563 440.349466 
L 137.091184 456.44544 
L 137.726069 446.987546 
L 138.360953 457.454347 
L 138.995838 449.745136 
L 139.630722 447.098167 
L 140.265607 449.997742 
L 140.900491 446.576934 
L 141.535376 458.265284 
L 142.17026 464.981102 
L 143.440029 457.304773 
L 144.074914 438.567732 
L 144.709798 460.680725 
L 145.344683 451.036834 
L 145.979567 432.096763 
L 146.614452 455.395556 
L 147.249337 453.305231 
L 147.884221 462.315584 
L 148.519106 459.179084 
L 149.15399 463.083014 
L 149.788875 460.128297 
L 150.423759 458.689386 
L 151.058644 441.136457 
L 151.693528 461.259629 
L 152.328413 460.563528 
L 152.963297 441.434425 
L 154.233066 464.638111 
L 154.867951 453.94619 
L 155.502835 452.872866 
L 156.13772 465.099142 
L 156.772604 464.722762 
L 157.407489 466.585607 
L 158.042373 465.608908 
L 158.677258 466.108218 
L 159.312142 458.546051 
L 159.947027 457.381499 
L 160.581911 470.362896 
L 161.216796 459.15379 
L 161.85168 457.598356 
L 162.486565 468.21119 
L 163.121449 472.221693 
L 163.756334 473.276974 
L 164.391218 461.884568 
L 165.026103 464.006426 
L 165.660987 469.274396 
L 166.295872 464.504388 
L 166.930756 473.776115 
L 167.565641 469.031907 
L 168.200526 460.198784 
L 168.83541 462.798368 
L 169.470295 468.698191 
L 170.105179 457.375429 
L 170.740064 467.218134 
L 171.374948 470.545521 
L 172.009833 463.51774 
L 172.644717 458.221272 
L 173.279602 459.557994 
L 173.914486 465.300822 
L 174.549371 461.382728 
L 175.184255 463.523304 
L 175.81914 471.688488 
L 176.454024 472.818809 
L 177.088909 463.85837 
L 177.723793 475.024644 
L 178.358678 478.633979 
L 179.628447 441.657521 
L 180.263331 472.653721 
L 180.898216 465.528134 
L 181.5331 477.189672 
L 182.167985 470.526803 
L 182.802869 479.089952 
L 183.437754 470.862375 
L 184.072638 457.823813 
L 184.707523 474.206119 
L 185.342407 467.687934 
L 185.977292 467.209534 
L 186.612176 475.765769 
L 187.881945 479.34239 
L 188.51683 470.200844 
L 189.786599 474.676931 
L 190.421484 475.662231 
L 191.056368 472.918468 
L 191.691253 461.202801 
L 192.326137 456.055401 
L 192.961022 473.513391 
L 193.595906 473.098564 
L 194.230791 462.457232 
L 194.865675 474.8776 
L 195.50056 477.020874 
L 196.135444 468.164817 
L 196.770329 464.394104 
L 197.405213 466.144473 
L 198.040098 472.774459 
L 198.674982 472.356428 
L 199.309867 470.739782 
L 199.944751 474.342034 
L 200.579636 484.88826 
L 201.21452 473.05354 
L 201.849405 473.987407 
L 202.484289 471.793207 
L 203.119174 468.288928 
L 203.754058 479.904261 
L 204.388943 470.600663 
L 205.023827 470.756813 
L 205.658712 481.847879 
L 206.293596 465.509585 
L 206.928481 475.785667 
L 207.563365 476.657142 
L 208.19825 471.201319 
L 208.833134 475.2958 
L 209.468019 480.885345 
L 210.102903 477.636707 
L 210.737788 471.81007 
L 211.372673 479.253353 
L 212.007557 482.933344 
L 212.642442 477.505514 
L 213.277326 477.967389 
L 213.912211 471.934181 
L 214.547095 485.12434 
L 215.18198 481.626638 
L 215.816864 484.627053 
L 216.451749 473.863128 
L 217.086633 480.081828 
L 217.721518 482.02359 
L 218.356402 478.605649 
L 218.991287 486.748575 
L 219.626171 474.191448 
L 220.261056 476.50234 
L 220.89594 490.224524 
L 221.530825 479.218279 
L 222.165709 472.938535 
L 222.800594 489.339896 
L 223.435478 485.825162 
L 224.070363 483.833148 
L 224.705247 469.392268 
L 225.340132 491.184529 
L 225.975016 483.241598 
L 226.609901 488.636039 
L 227.244785 484.351345 
L 227.87967 483.383583 
L 228.514554 482.908555 
L 229.149439 479.87981 
L 229.784323 488.967732 
L 230.419208 490.51895 
L 231.054092 487.638598 
L 231.688977 486.415026 
L 232.323862 481.079437 
L 232.958746 486.336783 
L 233.593631 485.814539 
L 234.228515 490.064664 
L 234.8634 492.014521 
L 235.498284 489.024729 
L 236.133169 492.22986 
L 236.768053 490.33076 
L 237.402938 491.240682 
L 238.037822 463.113536 
L 238.672707 492.668801 
L 239.307591 489.733139 
L 239.942476 473.837834 
L 240.57736 492.095462 
L 241.212245 485.364131 
L 241.847129 492.822591 
L 242.482014 492.008281 
L 243.116898 488.827264 
L 243.751783 493.369623 
L 244.386667 470.537764 
L 245.656436 486.350779 
L 246.291321 492.101027 
L 246.926205 483.510561 
L 247.56109 494.767557 
L 248.195974 488.120371 
L 248.830859 488.491692 
L 249.465743 490.054546 
L 250.100628 490.298552 
L 250.735512 485.370201 
L 251.370397 487.655461 
L 252.005281 494.480551 
L 252.640166 479.664808 
L 253.27505 494.345648 
L 253.909935 483.948659 
L 254.54482 481.3054 
L 255.179704 490.905279 
L 255.814589 495.900576 
L 256.449473 473.461116 
L 257.084358 486.15871 
L 257.719242 490.70225 
L 258.354127 497.97252 
L 258.989011 494.355091 
L 259.623896 497.072041 
L 260.25878 495.648475 
L 260.893665 489.765684 
L 261.528549 491.424488 
L 262.163434 491.641513 
L 262.798318 469.145563 
L 263.433203 496.610166 
L 264.068087 500.105845 
L 264.702972 486.639978 
L 265.337856 482.606035 
L 265.972741 497.445554 
L 266.607625 486.609624 
L 267.24251 497.264615 
L 267.877394 491.932567 
L 268.512279 493.074522 
L 269.147163 490.410859 
L 269.782048 497.963751 
L 270.416932 494.000295 
L 271.051817 488.339589 
L 271.686701 491.198862 
L 272.321586 487.531856 
L 272.95647 485.646921 
L 273.591355 492.145545 
L 274.226239 500.708019 
L 274.861124 494.574646 
L 275.496009 483.705833 
L 276.130893 492.598314 
L 276.765778 495.635491 
L 277.400662 495.878654 
L 278.035547 494.444296 
L 278.670431 494.332832 
L 279.305316 489.856238 
L 279.9402 493.643982 
L 280.575085 502.49751 
L 281.209969 500.637195 
L 281.844854 490.434804 
L 282.479738 496.022157 
L 283.114623 497.890229 
L 283.749507 494.788467 
L 284.384392 480.340673 
L 285.019276 492.422603 
L 285.654161 495.071595 
L 286.289045 496.054702 
L 286.92393 491.161932 
L 287.558814 498.017712 
L 288.193699 500.820663 
L 288.828583 492.508435 
L 289.463468 481.757662 
L 290.098352 481.608932 
L 290.733237 490.983523 
L 291.368121 497.171701 
L 292.003006 497.161583 
L 292.63789 495.343594 
L 293.272775 494.959457 
L 293.907659 489.111404 
L 294.542544 496.418435 
L 295.177428 489.464007 
L 295.812313 498.803018 
L 296.447197 486.216044 
L 297.082082 488.617658 
L 297.716967 498.42883 
L 298.351851 499.395243 
L 298.986736 494.979861 
L 299.62162 492.584318 
L 300.256505 501.508332 
L 300.891389 487.878726 
L 301.526274 493.068283 
L 302.796043 500.587281 
L 303.430927 488.020037 
L 304.065812 505.378705 
L 304.700696 490.857051 
L 305.335581 498.328327 
L 306.60535 487.032714 
L 307.240234 498.339794 
L 307.875119 477.029643 
L 308.510003 497.092108 
L 309.779772 490.851992 
L 310.414657 499.667578 
L 311.049541 491.752134 
L 311.684426 496.917408 
L 312.31931 489.661134 
L 312.954195 486.432732 
L 313.589079 502.683677 
L 314.223964 492.35903 
L 314.858848 487.639442 
L 315.493733 494.82506 
L 316.128617 493.125448 
L 316.763502 497.323636 
L 317.398386 469.985504 
L 318.033271 481.712301 
L 318.668156 484.161637 
L 319.30304 498.376386 
L 319.937925 499.443133 
L 320.572809 490.58286 
L 321.207694 494.894198 
L 321.842578 487.334729 
L 322.477463 502.83207 
L 323.112347 498.772159 
L 323.747232 498.369304 
L 324.382116 471.333019 
L 325.017001 490.135994 
L 325.651885 498.695601 
L 326.28677 500.884574 
L 326.921654 492.369485 
L 327.556539 496.980138 
L 328.191423 503.287537 
L 328.826308 500.997555 
L 329.461192 487.580759 
L 330.096077 497.846554 
L 330.730961 486.796802 
L 331.365846 506.454558 
L 332.00073 497.898492 
L 332.635615 507.794315 
L 333.270499 487.325454 
L 333.905384 502.45451 
L 334.540268 496.414219 
L 335.175153 498.408763 
L 335.810037 490.91995 
L 336.444922 499.596248 
L 337.079806 496.077805 
L 337.714691 493.929134 
L 338.349575 500.137885 
L 338.98446 500.772098 
L 339.619344 496.383866 
L 340.254229 502.616394 
L 340.889114 499.743799 
L 341.523998 498.733037 
L 342.793767 502.517408 
L 343.428652 488.519685 
L 344.063536 504.584631 
L 344.698421 497.115716 
L 345.333305 502.526008 
L 345.96819 496.676775 
L 346.603074 498.168298 
L 347.237959 488.813268 
L 347.872843 494.419844 
L 348.507728 507.790943 
L 349.142612 508.955663 
L 349.777497 497.070186 
L 350.412381 504.648204 
L 351.047266 499.182264 
L 351.68215 489.770743 
L 352.317035 485.292969 
L 352.951919 507.616917 
L 353.586804 508.754826 
L 354.221688 499.915632 
L 354.856573 501.720468 
L 355.491457 491.697161 
L 356.126342 501.328911 
L 356.761226 502.986703 
L 357.396111 508.007799 
L 358.030995 488.643627 
L 358.66588 508.228535 
L 359.300764 495.162655 
L 359.935649 491.785691 
L 360.570533 491.770177 
L 361.205418 504.042826 
L 361.840303 502.236978 
L 362.475187 504.535223 
L 363.110072 490.102436 
L 363.744956 502.616394 
L 364.379841 489.705484 
L 365.014725 502.492114 
L 365.64961 499.735199 
L 366.284494 494.655925 
L 366.919379 504.67822 
L 367.554263 506.810028 
L 368.189148 507.341884 
L 368.824032 505.72372 
L 369.458917 492.481454 
L 370.093801 505.999091 
L 370.728686 502.08184 
L 371.36357 499.208739 
L 371.998455 502.130742 
L 372.633339 498.68464 
L 373.268224 497.625819 
L 373.903108 498.030866 
L 374.537993 499.595237 
L 375.172877 498.356994 
L 375.807762 510.058497 
L 376.442646 502.366991 
L 377.077531 504.867928 
L 377.712415 497.565112 
L 378.3473 504.154627 
L 378.982184 506.027758 
L 380.251953 496.912855 
L 380.886838 505.034196 
L 381.521722 502.472384 
L 382.156607 487.618026 
L 382.791491 509.440303 
L 383.426376 497.526328 
L 384.061261 512.770557 
L 384.696145 496.86311 
L 385.33103 499.684947 
L 385.965914 484.024542 
L 386.600799 505.056118 
L 387.235683 505.43216 
L 387.870568 489.178687 
L 388.505452 509.469981 
L 389.140337 502.977765 
L 389.775221 504.8455 
L 390.410106 500.446138 
L 391.04499 510.372315 
L 391.679875 494.196917 
L 392.314759 508.395815 
L 392.949644 491.957693 
L 393.584528 492.627993 
L 394.219413 503.448746 
L 394.854297 507.421982 
L 395.489182 508.053498 
L 396.124066 509.982108 
L 396.758951 509.999139 
L 397.393835 498.300503 
L 398.02872 501.41879 
L 398.663604 505.466561 
L 399.298489 498.858159 
L 399.933373 498.968274 
L 400.568258 509.657328 
L 401.203142 498.901497 
L 401.838027 511.408372 
L 402.472911 512.41222 
L 403.107796 501.253871 
L 403.74268 507.935289 
L 404.377565 503.554645 
L 405.01245 502.737132 
L 405.647334 482.753585 
L 406.282219 504.898787 
L 406.917103 497.488386 
L 407.551988 510.836382 
L 408.186872 509.445362 
L 408.821757 483.606173 
L 409.456641 508.55382 
L 410.091526 507.469367 
L 410.72641 511.013274 
L 411.361295 511.798916 
L 412.631064 497.974881 
L 413.265948 509.13559 
L 413.900833 501.974929 
L 414.535717 507.820621 
L 415.170602 499.495408 
L 415.805486 512.212057 
L 416.440371 508.860388 
L 417.075255 501.682695 
L 417.71014 513.262953 
L 418.345024 511.390328 
L 418.979909 509.096805 
L 420.249678 512.754537 
L 420.884562 506.145798 
L 422.154331 518.624343 
L 422.789216 505.517824 
L 423.4241 516.641098 
L 424.058985 512.64965 
L 424.693869 514.353308 
L 425.328754 496.681496 
L 425.963638 500.525057 
L 426.598523 516.081587 
L 427.233408 512.884044 
L 427.868292 517.321684 
L 428.503177 509.479593 
L 429.138061 505.384101 
L 429.772946 505.808203 
L 430.40783 511.32743 
L 431.042715 502.901377 
L 431.677599 510.519191 
L 432.312484 507.33868 
L 432.947368 516.762005 
L 433.582253 514.568647 
L 434.217137 515.174363 
L 434.852022 508.296492 
L 435.486906 520.165781 
L 436.121791 515.149237 
L 436.756675 516.035045 
L 437.39156 498.779747 
L 438.026444 517.94578 
L 438.661329 515.796604 
L 439.296213 505.532326 
L 439.931098 511.214448 
L 440.565982 508.669668 
L 441.200867 513.75046 
L 441.835751 517.316625 
L 442.470636 501.677636 
L 443.10552 508.420266 
L 443.740405 511.998573 
L 444.375289 516.721028 
L 445.010174 522.922527 
L 445.645058 510.138089 
L 446.279943 515.235744 
L 446.914827 523.397049 
L 447.549712 512.916083 
L 448.184597 521.825259 
L 448.819481 510.861171 
L 449.454366 507.395002 
L 450.08925 518.381349 
L 450.724135 517.073631 
L 451.359019 503.791232 
L 451.993904 506.390816 
L 452.628788 516.445994 
L 453.263673 508.846729 
L 453.898557 508.616044 
L 454.533442 515.949719 
L 455.168326 503.895613 
L 455.803211 498.996941 
L 456.438095 506.100606 
L 457.07298 523.471752 
L 457.707864 515.002024 
L 458.342749 514.193448 
L 459.612518 521.164739 
L 460.247402 522.450535 
L 460.882287 500.055762 
L 461.517171 508.895125 
L 462.152056 514.253986 
L 462.78694 509.370828 
L 463.421825 502.460074 
L 464.056709 515.123437 
L 464.691594 522.626078 
L 465.326478 505.156958 
L 465.961363 516.577862 
L 466.596247 523.624108 
L 467.231132 512.227234 
L 467.866016 515.342823 
L 468.500901 501.596694 
L 469.77067 523.845687 
L 470.405555 510.624415 
L 471.040439 506.361137 
L 471.675324 505.945467 
L 472.310208 519.515379 
L 472.945093 516.642784 
L 473.579977 524.036912 
L 474.214862 508.916541 
L 474.849746 508.001392 
L 475.484631 524.709067 
L 476.119515 519.374574 
L 476.7544 515.287344 
L 477.389284 515.297968 
L 478.024169 501.967678 
L 478.659053 522.488982 
L 479.293938 494.190678 
L 479.928822 515.97299 
L 480.563707 520.075227 
L 481.198591 514.685001 
L 481.833476 500.662827 
L 482.46836 515.326466 
L 483.103245 520.965757 
L 483.738129 518.207324 
L 484.373014 517.399759 
L 485.007898 513.807793 
L 485.642783 508.418074 
L 486.912552 488.61378 
L 487.547436 519.848421 
L 488.182321 505.043302 
L 488.817205 510.200651 
L 489.45209 520.21502 
L 490.086974 521.917836 
L 490.721859 512.182716 
L 491.356744 525.386281 
L 492.626513 512.563817 
L 493.261397 512.799729 
L 493.896282 511.310061 
L 494.531166 514.482309 
L 495.166051 521.506213 
L 495.800935 511.817297 
L 496.43582 518.003957 
L 497.070704 516.58798 
L 497.705589 516.055955 
L 498.340473 522.219176 
L 498.975358 500.113939 
L 500.245127 525.889639 
L 500.880011 516.267584 
L 501.514896 515.810263 
L 502.14978 514.912819 
L 502.784665 511.484255 
L 503.419549 517.332645 
L 504.054434 506.465687 
L 504.689318 520.760367 
L 505.324203 520.253974 
L 505.959087 513.953658 
L 507.228856 527.015322 
L 507.863741 516.249878 
L 508.498625 519.030402 
L 509.13351 518.111374 
L 509.768394 528.413172 
L 510.403279 512.217959 
L 511.038163 515.528652 
L 511.673048 515.960511 
L 512.307933 524.4154 
L 512.942817 509.527821 
L 513.577702 507.721805 
L 514.212586 519.142371 
L 514.847471 512.882526 
L 515.482355 519.416056 
L 516.11724 522.880202 
L 516.752124 516.788142 
L 517.387009 518.204457 
L 518.021893 516.107556 
L 518.656778 517.190997 
L 519.291662 506.251529 
L 519.926547 525.79352 
L 520.561431 518.896848 
L 521.196316 515.711615 
L 521.8312 510.385637 
L 522.466085 507.004457 
L 523.100969 522.887621 
L 523.735854 516.256961 
L 524.370738 501.476293 
L 525.005623 524.936885 
L 525.640507 515.914475 
L 526.275392 516.030324 
L 526.910276 522.156277 
L 527.545161 503.200862 
L 528.180045 497.855997 
L 528.81493 501.045446 
L 529.449814 506.04226 
L 530.084699 514.218405 
L 530.719583 524.862267 
L 531.354468 515.23861 
L 531.989352 522.165552 
L 532.624237 518.933777 
L 533.259121 523.721239 
L 533.894006 516.416147 
L 534.528891 514.891066 
L 535.163775 521.406721 
L 535.79866 519.146587 
L 536.433544 498.017038 
L 537.068429 519.615713 
L 537.703313 524.009594 
L 538.338198 512.24005 
L 539.607967 529.89795 
L 540.242851 518.352513 
L 540.877736 525.590997 
L 541.51262 523.182469 
L 542.147505 506.809016 
L 542.782389 525.116896 
L 543.417274 524.310681 
L 544.052158 525.959283 
L 544.687043 523.61534 
L 545.321927 513.067344 
L 546.591696 518.962276 
L 547.226581 506.397899 
L 547.861465 515.107754 
L 548.49635 519.569509 
L 549.131234 511.588973 
L 549.766119 520.627656 
L 550.401003 515.61381 
L 551.035888 527.387233 
L 551.670772 517.095384 
L 552.305657 522.461664 
L 552.940541 524.494571 
L 553.575426 521.137758 
L 554.21031 513.490434 
L 554.845195 502.853823 
L 555.48008 521.595923 
L 556.114964 509.1737 
L 556.749849 522.304502 
L 557.384733 515.868946 
L 558.019618 515.793737 
L 558.654502 510.414304 
L 559.289387 515.192912 
L 559.924271 528.259888 
L 560.559156 515.87333 
L 561.19404 525.272119 
L 561.828925 509.95968 
L 562.463809 520.717872 
L 563.098694 518.717089 
L 563.733578 524.893126 
L 564.368463 517.854046 
L 565.003347 527.917655 
L 565.638232 512.77511 
L 566.273116 527.321467 
L 566.908001 527.667916 
L 567.542885 515.719034 
L 568.17777 519.317408 
L 569.447539 516.520865 
L 570.082423 510.83301 
L 570.717308 509.621579 
L 571.352192 516.988473 
L 571.987077 518.502256 
L 572.621961 526.211214 
L 573.256846 527.172315 
L 573.89173 505.995381 
L 574.526615 522.095908 
L 575.161499 525.80524 
L 575.796384 519.246753 
L 576.431268 518.428734 
L 577.066153 516.58427 
L 577.701038 524.928875 
L 578.335922 515.251089 
L 578.970807 512.436165 
L 579.605691 525.386703 
L 580.240576 521.188516 
L 580.87546 505.076859 
L 581.510345 515.882605 
L 582.145229 519.591936 
L 582.780114 522.452558 
L 582.780114 522.452558 
" clip-path="url(#p36a0f1a588)" style="fill: none; stroke: #ff7f0e; stroke-width: 1.5; stroke-linecap: square"/>
   </g>
   <g id="patch_3">
    <path d="M 50.14375 576.718125 
L 50.14375 22.318125 
" style="fill: none; stroke: #000000; stroke-width: 0.8; stroke-linejoin: miter; stroke-linecap: square"/>
   </g>
   <g id="patch_4">
    <path d="M 608.14375 576.718125 
L 608.14375 22.318125 
" style="fill: none; stroke: #000000; stroke-width: 0.8; stroke-linejoin: miter; stroke-linecap: square"/>
   </g>
   <g id="patch_5">
    <path d="M 50.14375 576.718125 
L 608.14375 576.718125 
" style="fill: none; stroke: #000000; stroke-width: 0.8; stroke-linejoin: miter; stroke-linecap: square"/>
   </g>
   <g id="patch_6">
    <path d="M 50.14375 22.318125 
L 608.14375 22.318125 
" style="fill: none; stroke: #000000; stroke-width: 0.8; stroke-linejoin: miter; stroke-linecap: square"/>
   </g>
   <g id="text_20">
    <!-- Train and Val Loss -->
    <g transform="translate(275.598437 16.318125) scale(0.12 -0.12)">
     <defs>
      <path id="DejaVuSans-54" d="M -19 4666 
L 3928 4666 
L 3928 4134 
L 2272 4134 
L 2272 0 
L 1638 0 
L 1638 4134 
L -19 4134 
L -19 4666 
z
" transform="scale(0.015625)"/>
      <path id="DejaVuSans-72" d="M 2631 2963 
Q 2534 3019 2420 3045 
Q 2306 3072 2169 3072 
Q 1681 3072 1420 2755 
Q 1159 2438 1159 1844 
L 1159 0 
L 581 0 
L 581 3500 
L 1159 3500 
L 1159 2956 
Q 1341 3275 1631 3429 
Q 1922 3584 2338 3584 
Q 2397 3584 2469 3576 
Q 2541 3569 2628 3553 
L 2631 2963 
z
" transform="scale(0.015625)"/>
      <path id="DejaVuSans-61" d="M 2194 1759 
Q 1497 1759 1228 1600 
Q 959 1441 959 1056 
Q 959 750 1161 570 
Q 1363 391 1709 391 
Q 2188 391 2477 730 
Q 2766 1069 2766 1631 
L 2766 1759 
L 2194 1759 
z
M 3341 1997 
L 3341 0 
L 2766 0 
L 2766 531 
Q 2569 213 2275 61 
Q 1981 -91 1556 -91 
Q 1019 -91 701 211 
Q 384 513 384 1019 
Q 384 1609 779 1909 
Q 1175 2209 1959 2209 
L 2766 2209 
L 2766 2266 
Q 2766 2663 2505 2880 
Q 2244 3097 1772 3097 
Q 1472 3097 1187 3025 
Q 903 2953 641 2809 
L 641 3341 
Q 956 3463 1253 3523 
Q 1550 3584 1831 3584 
Q 2591 3584 2966 3190 
Q 3341 2797 3341 1997 
z
" transform="scale(0.015625)"/>
      <path id="DejaVuSans-69" d="M 603 3500 
L 1178 3500 
L 1178 0 
L 603 0 
L 603 3500 
z
M 603 4863 
L 1178 4863 
L 1178 4134 
L 603 4134 
L 603 4863 
z
" transform="scale(0.015625)"/>
      <path id="DejaVuSans-6e" d="M 3513 2113 
L 3513 0 
L 2938 0 
L 2938 2094 
Q 2938 2591 2744 2837 
Q 2550 3084 2163 3084 
Q 1697 3084 1428 2787 
Q 1159 2491 1159 1978 
L 1159 0 
L 581 0 
L 581 3500 
L 1159 3500 
L 1159 2956 
Q 1366 3272 1645 3428 
Q 1925 3584 2291 3584 
Q 2894 3584 3203 3211 
Q 3513 2838 3513 2113 
z
" transform="scale(0.015625)"/>
      <path id="DejaVuSans-20" transform="scale(0.015625)"/>
      <path id="DejaVuSans-64" d="M 2906 2969 
L 2906 4863 
L 3481 4863 
L 3481 0 
L 2906 0 
L 2906 525 
Q 2725 213 2448 61 
Q 2172 -91 1784 -91 
Q 1150 -91 751 415 
Q 353 922 353 1747 
Q 353 2572 751 3078 
Q 1150 3584 1784 3584 
Q 2172 3584 2448 3432 
Q 2725 3281 2906 2969 
z
M 947 1747 
Q 947 1113 1208 752 
Q 1469 391 1925 391 
Q 2381 391 2643 752 
Q 2906 1113 2906 1747 
Q 2906 2381 2643 2742 
Q 2381 3103 1925 3103 
Q 1469 3103 1208 2742 
Q 947 2381 947 1747 
z
" transform="scale(0.015625)"/>
      <path id="DejaVuSans-56" d="M 1831 0 
L 50 4666 
L 709 4666 
L 2188 738 
L 3669 4666 
L 4325 4666 
L 2547 0 
L 1831 0 
z
" transform="scale(0.015625)"/>
      <path id="DejaVuSans-6c" d="M 603 4863 
L 1178 4863 
L 1178 0 
L 603 0 
L 603 4863 
z
" transform="scale(0.015625)"/>
     </defs>
     <use xlink:href="#DejaVuSans-54"/>
     <use xlink:href="#DejaVuSans-72" transform="translate(46.333984 0)"/>
     <use xlink:href="#DejaVuSans-61" transform="translate(87.447266 0)"/>
     <use xlink:href="#DejaVuSans-69" transform="translate(148.726562 0)"/>
     <use xlink:href="#DejaVuSans-6e" transform="translate(176.509766 0)"/>
     <use xlink:href="#DejaVuSans-20" transform="translate(239.888672 0)"/>
     <use xlink:href="#DejaVuSans-61" transform="translate(271.675781 0)"/>
     <use xlink:href="#DejaVuSans-6e" transform="translate(332.955078 0)"/>
     <use xlink:href="#DejaVuSans-64" transform="translate(396.333984 0)"/>
     <use xlink:href="#DejaVuSans-20" transform="translate(459.810547 0)"/>
     <use xlink:href="#DejaVuSans-56" transform="translate(491.597656 0)"/>
     <use xlink:href="#DejaVuSans-61" transform="translate(552.255859 0)"/>
     <use xlink:href="#DejaVuSans-6c" transform="translate(613.535156 0)"/>
     <use xlink:href="#DejaVuSans-20" transform="translate(641.318359 0)"/>
     <use xlink:href="#DejaVuSans-4c" transform="translate(673.105469 0)"/>
     <use xlink:href="#DejaVuSans-6f" transform="translate(727.068359 0)"/>
     <use xlink:href="#DejaVuSans-73" transform="translate(788.25 0)"/>
     <use xlink:href="#DejaVuSans-73" transform="translate(840.349609 0)"/>
    </g>
   </g>
   <g id="legend_1">
    <g id="patch_7">
     <path d="M 521.553125 60.230625 
L 601.14375 60.230625 
Q 603.14375 60.230625 603.14375 58.230625 
L 603.14375 29.318125 
Q 603.14375 27.318125 601.14375 27.318125 
L 521.553125 27.318125 
Q 519.553125 27.318125 519.553125 29.318125 
L 519.553125 58.230625 
Q 519.553125 60.230625 521.553125 60.230625 
z
" style="fill: #ffffff; opacity: 0.8; stroke: #cccccc; stroke-linejoin: miter"/>
    </g>
    <g id="line2d_37">
     <path d="M 523.553125 35.416563 
L 533.553125 35.416563 
L 543.553125 35.416563 
" style="fill: none; stroke: #1f77b4; stroke-width: 1.5; stroke-linecap: square"/>
    </g>
    <g id="text_21">
     <!-- train_loss -->
     <g transform="translate(551.553125 38.916563) scale(0.1 -0.1)">
      <defs>
       <path id="DejaVuSans-74" d="M 1172 4494 
L 1172 3500 
L 2356 3500 
L 2356 3053 
L 1172 3053 
L 1172 1153 
Q 1172 725 1289 603 
Q 1406 481 1766 481 
L 2356 481 
L 2356 0 
L 1766 0 
Q 1100 0 847 248 
Q 594 497 594 1153 
L 594 3053 
L 172 3053 
L 172 3500 
L 594 3500 
L 594 4494 
L 1172 4494 
z
" transform="scale(0.015625)"/>
       <path id="DejaVuSans-5f" d="M 3263 -1063 
L 3263 -1509 
L -63 -1509 
L -63 -1063 
L 3263 -1063 
z
" transform="scale(0.015625)"/>
      </defs>
      <use xlink:href="#DejaVuSans-74"/>
      <use xlink:href="#DejaVuSans-72" transform="translate(39.208984 0)"/>
      <use xlink:href="#DejaVuSans-61" transform="translate(80.322266 0)"/>
      <use xlink:href="#DejaVuSans-69" transform="translate(141.601562 0)"/>
      <use xlink:href="#DejaVuSans-6e" transform="translate(169.384766 0)"/>
      <use xlink:href="#DejaVuSans-5f" transform="translate(232.763672 0)"/>
      <use xlink:href="#DejaVuSans-6c" transform="translate(282.763672 0)"/>
      <use xlink:href="#DejaVuSans-6f" transform="translate(310.546875 0)"/>
      <use xlink:href="#DejaVuSans-73" transform="translate(371.728516 0)"/>
      <use xlink:href="#DejaVuSans-73" transform="translate(423.828125 0)"/>
     </g>
    </g>
    <g id="line2d_38">
     <path d="M 523.553125 50.372813 
L 533.553125 50.372813 
L 543.553125 50.372813 
" style="fill: none; stroke: #ff7f0e; stroke-width: 1.5; stroke-linecap: square"/>
    </g>
    <g id="text_22">
     <!-- val_loss -->
     <g transform="translate(551.553125 53.872813) scale(0.1 -0.1)">
      <defs>
       <path id="DejaVuSans-76" d="M 191 3500 
L 800 3500 
L 1894 563 
L 2988 3500 
L 3597 3500 
L 2284 0 
L 1503 0 
L 191 3500 
z
" transform="scale(0.015625)"/>
      </defs>
      <use xlink:href="#DejaVuSans-76"/>
      <use xlink:href="#DejaVuSans-61" transform="translate(59.179688 0)"/>
      <use xlink:href="#DejaVuSans-6c" transform="translate(120.458984 0)"/>
      <use xlink:href="#DejaVuSans-5f" transform="translate(148.242188 0)"/>
      <use xlink:href="#DejaVuSans-6c" transform="translate(198.242188 0)"/>
      <use xlink:href="#DejaVuSans-6f" transform="translate(226.025391 0)"/>
      <use xlink:href="#DejaVuSans-73" transform="translate(287.207031 0)"/>
      <use xlink:href="#DejaVuSans-73" transform="translate(339.306641 0)"/>
     </g>
    </g>
   </g>
  </g>
 </g>
 <defs>
  <clipPath id="p36a0f1a588">
   <rect x="50.14375" y="22.318125" width="558" height="554.4"/>
  </clipPath>
 </defs>
</svg>
