<?xml version="1.0" encoding="utf-8" standalone="no"?>
<!DOCTYPE svg PUBLIC "-//W3C//DTD SVG 1.1//EN"
  "http://www.w3.org/Graphics/SVG/1.1/DTD/svg11.dtd">
<svg xmlns:xlink="http://www.w3.org/1999/xlink" width="608.98125pt" height="614.274375pt" viewBox="0 0 608.98125 614.274375" xmlns="http://www.w3.org/2000/svg" version="1.1">
 <metadata>
  <rdf:RDF xmlns:dc="http://purl.org/dc/elements/1.1/" xmlns:cc="http://creativecommons.org/ns#" xmlns:rdf="http://www.w3.org/1999/02/22-rdf-syntax-ns#">
   <cc:Work>
    <dc:type rdf:resource="http://purl.org/dc/dcmitype/StillImage"/>
    <dc:date>2026-06-03T07:06:29.228350</dc:date>
    <dc:format>image/svg+xml</dc:format>
    <dc:creator>
     <cc:Agent>
      <dc:title>Matplotlib v3.10.9, https://matplotlib.org/</dc:title>
     </cc:Agent>
    </dc:creator>
   </cc:Work>
  </rdf:RDF>
 </metadata>
 <defs>
  <style type="text/css">*{stroke-linejoin: round; stroke-linecap: butt}</style>
 </defs>
 <g id="figure_1">
  <g id="patch_1">
   <path d="M 0 614.274375 
L 608.98125 614.274375 
L 608.98125 0 
L 0 0 
z
" style="fill: #ffffff"/>
  </g>
  <g id="axes_1">
   <g id="patch_2">
    <path d="M 43.78125 576.718125 
L 601.78125 576.718125 
L 601.78125 22.318125 
L 43.78125 22.318125 
z
" style="fill: #ffffff"/>
   </g>
   <g id="matplotlib.axis_1">
    <g id="xtick_1">
     <g id="line2d_1">
      <path d="M 69.144886 576.718125 
L 69.144886 22.318125 
" clip-path="url(#p1cd2abddf9)" style="fill: none; stroke: #b0b0b0; stroke-width: 0.8; stroke-linecap: square"/>
     </g>
     <g id="line2d_2">
      <defs>
       <path id="m72dfddb554" d="M 0 0 
L 0 3.5 
" style="stroke: #000000; stroke-width: 0.8"/>
      </defs>
      <g>
       <use xlink:href="#m72dfddb554" x="69.144886" y="576.718125" style="stroke: #000000; stroke-width: 0.8"/>
      </g>
     </g>
     <g id="text_1">
      <!-- 0 -->
      <g transform="translate(65.963636 591.316563) scale(0.1 -0.1)">
       <defs>
        <path id="DejaVuSans-30" d="M 2034 4250 
Q 1547 4250 1301 3770 
Q 1056 3291 1056 2328 
Q 1056 1369 1301 889 
Q 1547 409 2034 409 
Q 2525 409 2770 889 
Q 3016 1369 3016 2328 
Q 3016 3291 2770 3770 
Q 2525 4250 2034 4250 
z
M 2034 4750 
Q 2819 4750 3233 4129 
Q 3647 3509 3647 2328 
Q 3647 1150 3233 529 
Q 2819 -91 2034 -91 
Q 1250 -91 836 529 
Q 422 1150 422 2328 
Q 422 3509 836 4129 
Q 1250 4750 2034 4750 
z
" transform="scale(0.015625)"/>
       </defs>
       <use xlink:href="#DejaVuSans-30"/>
      </g>
     </g>
    </g>
    <g id="xtick_2">
     <g id="line2d_3">
      <path d="M 132.633338 576.718125 
L 132.633338 22.318125 
" clip-path="url(#p1cd2abddf9)" style="fill: none; stroke: #b0b0b0; stroke-width: 0.8; stroke-linecap: square"/>
     </g>
     <g id="line2d_4">
      <g>
       <use xlink:href="#m72dfddb554" x="132.633338" y="576.718125" style="stroke: #000000; stroke-width: 0.8"/>
      </g>
     </g>
     <g id="text_2">
      <!-- 100 -->
      <g transform="translate(123.089588 591.316563) scale(0.1 -0.1)">
       <defs>
        <path id="DejaVuSans-31" d="M 794 531 
L 1825 531 
L 1825 4091 
L 703 3866 
L 703 4441 
L 1819 4666 
L 2450 4666 
L 2450 531 
L 3481 531 
L 3481 0 
L 794 0 
L 794 531 
z
" transform="scale(0.015625)"/>
       </defs>
       <use xlink:href="#DejaVuSans-31"/>
       <use xlink:href="#DejaVuSans-30" transform="translate(63.623047 0)"/>
       <use xlink:href="#DejaVuSans-30" transform="translate(127.246094 0)"/>
      </g>
     </g>
    </g>
    <g id="xtick_3">
     <g id="line2d_5">
      <path d="M 196.121789 576.718125 
L 196.121789 22.318125 
" clip-path="url(#p1cd2abddf9)" style="fill: none; stroke: #b0b0b0; stroke-width: 0.8; stroke-linecap: square"/>
     </g>
     <g id="line2d_6">
      <g>
       <use xlink:href="#m72dfddb554" x="196.121789" y="576.718125" style="stroke: #000000; stroke-width: 0.8"/>
      </g>
     </g>
     <g id="text_3">
      <!-- 200 -->
      <g transform="translate(186.578039 591.316563) scale(0.1 -0.1)">
       <defs>
        <path id="DejaVuSans-32" d="M 1228 531 
L 3431 531 
L 3431 0 
L 469 0 
L 469 531 
Q 828 903 1448 1529 
Q 2069 2156 2228 2338 
Q 2531 2678 2651 2914 
Q 2772 3150 2772 3378 
Q 2772 3750 2511 3984 
Q 2250 4219 1831 4219 
Q 1534 4219 1204 4116 
Q 875 4013 500 3803 
L 500 4441 
Q 881 4594 1212 4672 
Q 1544 4750 1819 4750 
Q 2544 4750 2975 4387 
Q 3406 4025 3406 3419 
Q 3406 3131 3298 2873 
Q 3191 2616 2906 2266 
Q 2828 2175 2409 1742 
Q 1991 1309 1228 531 
z
" transform="scale(0.015625)"/>
       </defs>
       <use xlink:href="#DejaVuSans-32"/>
       <use xlink:href="#DejaVuSans-30" transform="translate(63.623047 0)"/>
       <use xlink:href="#DejaVuSans-30" transform="translate(127.246094 0)"/>
      </g>
     </g>
    </g>
    <g id="xtick_4">
     <g id="line2d_7">
      <path d="M 259.610241 576.718125 
L 259.610241 22.318125 
" clip-path="url(#p1cd2abddf9)" style="fill: none; stroke: #b0b0b0; stroke-width: 0.8; stroke-linecap: square"/>
     </g>
     <g id="line2d_8">
      <g>
       <use xlink:href="#m72dfddb554" x="259.610241" y="576.718125" style="stroke: #000000; stroke-width: 0.8"/>
      </g>
     </g>
     <g id="text_4">
      <!-- 300 -->
      <g transform="translate(250.066491 591.316563) scale(0.1 -0.1)">
       <defs>
        <path id="DejaVuSans-33" d="M 2597 2516 
Q 3050 2419 3304 2112 
Q 3559 1806 3559 1356 
Q 3559 666 3084 287 
Q 2609 -91 1734 -91 
Q 1441 -91 1130 -33 
Q 819 25 488 141 
L 488 750 
Q 750 597 1062 519 
Q 1375 441 1716 441 
Q 2309 441 2620 675 
Q 2931 909 2931 1356 
Q 2931 1769 2642 2001 
Q 2353 2234 1838 2234 
L 1294 2234 
L 1294 2753 
L 1863 2753 
Q 2328 2753 2575 2939 
Q 2822 3125 2822 3475 
Q 2822 3834 2567 4026 
Q 2313 4219 1838 4219 
Q 1578 4219 1281 4162 
Q 984 4106 628 3988 
L 628 4550 
Q 988 4650 1302 4700 
Q 1616 4750 1894 4750 
Q 2613 4750 3031 4423 
Q 3450 4097 3450 3541 
Q 3450 3153 3228 2886 
Q 3006 2619 2597 2516 
z
" transform="scale(0.015625)"/>
       </defs>
       <use xlink:href="#DejaVuSans-33"/>
       <use xlink:href="#DejaVuSans-30" transform="translate(63.623047 0)"/>
       <use xlink:href="#DejaVuSans-30" transform="translate(127.246094 0)"/>
      </g>
     </g>
    </g>
    <g id="xtick_5">
     <g id="line2d_9">
      <path d="M 323.098692 576.718125 
L 323.098692 22.318125 
" clip-path="url(#p1cd2abddf9)" style="fill: none; stroke: #b0b0b0; stroke-width: 0.8; stroke-linecap: square"/>
     </g>
     <g id="line2d_10">
      <g>
       <use xlink:href="#m72dfddb554" x="323.098692" y="576.718125" style="stroke: #000000; stroke-width: 0.8"/>
      </g>
     </g>
     <g id="text_5">
      <!-- 400 -->
      <g transform="translate(313.554942 591.316563) scale(0.1 -0.1)">
       <defs>
        <path id="DejaVuSans-34" d="M 2419 4116 
L 825 1625 
L 2419 1625 
L 2419 4116 
z
M 2253 4666 
L 3047 4666 
L 3047 1625 
L 3713 1625 
L 3713 1100 
L 3047 1100 
L 3047 0 
L 2419 0 
L 2419 1100 
L 313 1100 
L 313 1709 
L 2253 4666 
z
" transform="scale(0.015625)"/>
       </defs>
       <use xlink:href="#DejaVuSans-34"/>
       <use xlink:href="#DejaVuSans-30" transform="translate(63.623047 0)"/>
       <use xlink:href="#DejaVuSans-30" transform="translate(127.246094 0)"/>
      </g>
     </g>
    </g>
    <g id="xtick_6">
     <g id="line2d_11">
      <path d="M 386.587144 576.718125 
L 386.587144 22.318125 
" clip-path="url(#p1cd2abddf9)" style="fill: none; stroke: #b0b0b0; stroke-width: 0.8; stroke-linecap: square"/>
     </g>
     <g id="line2d_12">
      <g>
       <use xlink:href="#m72dfddb554" x="386.587144" y="576.718125" style="stroke: #000000; stroke-width: 0.8"/>
      </g>
     </g>
     <g id="text_6">
      <!-- 500 -->
      <g transform="translate(377.043394 591.316563) scale(0.1 -0.1)">
       <defs>
        <path id="DejaVuSans-35" d="M 691 4666 
L 3169 4666 
L 3169 4134 
L 1269 4134 
L 1269 2991 
Q 1406 3038 1543 3061 
Q 1681 3084 1819 3084 
Q 2600 3084 3056 2656 
Q 3513 2228 3513 1497 
Q 3513 744 3044 326 
Q 2575 -91 1722 -91 
Q 1428 -91 1123 -41 
Q 819 9 494 109 
L 494 744 
Q 775 591 1075 516 
Q 1375 441 1709 441 
Q 2250 441 2565 725 
Q 2881 1009 2881 1497 
Q 2881 1984 2565 2268 
Q 2250 2553 1709 2553 
Q 1456 2553 1204 2497 
Q 953 2441 691 2322 
L 691 4666 
z
" transform="scale(0.015625)"/>
       </defs>
       <use xlink:href="#DejaVuSans-35"/>
       <use xlink:href="#DejaVuSans-30" transform="translate(63.623047 0)"/>
       <use xlink:href="#DejaVuSans-30" transform="translate(127.246094 0)"/>
      </g>
     </g>
    </g>
    <g id="xtick_7">
     <g id="line2d_13">
      <path d="M 450.075595 576.718125 
L 450.075595 22.318125 
" clip-path="url(#p1cd2abddf9)" style="fill: none; stroke: #b0b0b0; stroke-width: 0.8; stroke-linecap: square"/>
     </g>
     <g id="line2d_14">
      <g>
       <use xlink:href="#m72dfddb554" x="450.075595" y="576.718125" style="stroke: #000000; stroke-width: 0.8"/>
      </g>
     </g>
     <g id="text_7">
      <!-- 600 -->
      <g transform="translate(440.531845 591.316563) scale(0.1 -0.1)">
       <defs>
        <path id="DejaVuSans-36" d="M 2113 2584 
Q 1688 2584 1439 2293 
Q 1191 2003 1191 1497 
Q 1191 994 1439 701 
Q 1688 409 2113 409 
Q 2538 409 2786 701 
Q 3034 994 3034 1497 
Q 3034 2003 2786 2293 
Q 2538 2584 2113 2584 
z
M 3366 4563 
L 3366 3988 
Q 3128 4100 2886 4159 
Q 2644 4219 2406 4219 
Q 1781 4219 1451 3797 
Q 1122 3375 1075 2522 
Q 1259 2794 1537 2939 
Q 1816 3084 2150 3084 
Q 2853 3084 3261 2657 
Q 3669 2231 3669 1497 
Q 3669 778 3244 343 
Q 2819 -91 2113 -91 
Q 1303 -91 875 529 
Q 447 1150 447 2328 
Q 447 3434 972 4092 
Q 1497 4750 2381 4750 
Q 2619 4750 2861 4703 
Q 3103 4656 3366 4563 
z
" transform="scale(0.015625)"/>
       </defs>
       <use xlink:href="#DejaVuSans-36"/>
       <use xlink:href="#DejaVuSans-30" transform="translate(63.623047 0)"/>
       <use xlink:href="#DejaVuSans-30" transform="translate(127.246094 0)"/>
      </g>
     </g>
    </g>
    <g id="xtick_8">
     <g id="line2d_15">
      <path d="M 513.564047 576.718125 
L 513.564047 22.318125 
" clip-path="url(#p1cd2abddf9)" style="fill: none; stroke: #b0b0b0; stroke-width: 0.8; stroke-linecap: square"/>
     </g>
     <g id="line2d_16">
      <g>
       <use xlink:href="#m72dfddb554" x="513.564047" y="576.718125" style="stroke: #000000; stroke-width: 0.8"/>
      </g>
     </g>
     <g id="text_8">
      <!-- 700 -->
      <g transform="translate(504.020297 591.316563) scale(0.1 -0.1)">
       <defs>
        <path id="DejaVuSans-37" d="M 525 4666 
L 3525 4666 
L 3525 4397 
L 1831 0 
L 1172 0 
L 2766 4134 
L 525 4134 
L 525 4666 
z
" transform="scale(0.015625)"/>
       </defs>
       <use xlink:href="#DejaVuSans-37"/>
       <use xlink:href="#DejaVuSans-30" transform="translate(63.623047 0)"/>
       <use xlink:href="#DejaVuSans-30" transform="translate(127.246094 0)"/>
      </g>
     </g>
    </g>
    <g id="xtick_9">
     <g id="line2d_17">
      <path d="M 577.052498 576.718125 
L 577.052498 22.318125 
" clip-path="url(#p1cd2abddf9)" style="fill: none; stroke: #b0b0b0; stroke-width: 0.8; stroke-linecap: square"/>
     </g>
     <g id="line2d_18">
      <g>
       <use xlink:href="#m72dfddb554" x="577.052498" y="576.718125" style="stroke: #000000; stroke-width: 0.8"/>
      </g>
     </g>
     <g id="text_9">
      <!-- 800 -->
      <g transform="translate(567.508748 591.316563) scale(0.1 -0.1)">
       <defs>
        <path id="DejaVuSans-38" d="M 2034 2216 
Q 1584 2216 1326 1975 
Q 1069 1734 1069 1313 
Q 1069 891 1326 650 
Q 1584 409 2034 409 
Q 2484 409 2743 651 
Q 3003 894 3003 1313 
Q 3003 1734 2745 1975 
Q 2488 2216 2034 2216 
z
M 1403 2484 
Q 997 2584 770 2862 
Q 544 3141 544 3541 
Q 544 4100 942 4425 
Q 1341 4750 2034 4750 
Q 2731 4750 3128 4425 
Q 3525 4100 3525 3541 
Q 3525 3141 3298 2862 
Q 3072 2584 2669 2484 
Q 3125 2378 3379 2068 
Q 3634 1759 3634 1313 
Q 3634 634 3220 271 
Q 2806 -91 2034 -91 
Q 1263 -91 848 271 
Q 434 634 434 1313 
Q 434 1759 690 2068 
Q 947 2378 1403 2484 
z
M 1172 3481 
Q 1172 3119 1398 2916 
Q 1625 2713 2034 2713 
Q 2441 2713 2670 2916 
Q 2900 3119 2900 3481 
Q 2900 3844 2670 4047 
Q 2441 4250 2034 4250 
Q 1625 4250 1398 4047 
Q 1172 3844 1172 3481 
z
" transform="scale(0.015625)"/>
       </defs>
       <use xlink:href="#DejaVuSans-38"/>
       <use xlink:href="#DejaVuSans-30" transform="translate(63.623047 0)"/>
       <use xlink:href="#DejaVuSans-30" transform="translate(127.246094 0)"/>
      </g>
     </g>
    </g>
    <g id="text_10">
     <!-- Epochs -->
     <g transform="translate(304.865625 604.994688) scale(0.1 -0.1)">
      <defs>
       <path id="DejaVuSans-45" d="M 628 4666 
L 3578 4666 
L 3578 4134 
L 1259 4134 
L 1259 2753 
L 3481 2753 
L 3481 2222 
L 1259 2222 
L 1259 531 
L 3634 531 
L 3634 0 
L 628 0 
L 628 4666 
z
" transform="scale(0.015625)"/>
       <path id="DejaVuSans-70" d="M 1159 525 
L 1159 -1331 
L 581 -1331 
L 581 3500 
L 1159 3500 
L 1159 2969 
Q 1341 3281 1617 3432 
Q 1894 3584 2278 3584 
Q 2916 3584 3314 3078 
Q 3713 2572 3713 1747 
Q 3713 922 3314 415 
Q 2916 -91 2278 -91 
Q 1894 -91 1617 61 
Q 1341 213 1159 525 
z
M 3116 1747 
Q 3116 2381 2855 2742 
Q 2594 3103 2138 3103 
Q 1681 3103 1420 2742 
Q 1159 2381 1159 1747 
Q 1159 1113 1420 752 
Q 1681 391 2138 391 
Q 2594 391 2855 752 
Q 3116 1113 3116 1747 
z
" transform="scale(0.015625)"/>
       <path id="DejaVuSans-6f" d="M 1959 3097 
Q 1497 3097 1228 2736 
Q 959 2375 959 1747 
Q 959 1119 1226 758 
Q 1494 397 1959 397 
Q 2419 397 2687 759 
Q 2956 1122 2956 1747 
Q 2956 2369 2687 2733 
Q 2419 3097 1959 3097 
z
M 1959 3584 
Q 2709 3584 3137 3096 
Q 3566 2609 3566 1747 
Q 3566 888 3137 398 
Q 2709 -91 1959 -91 
Q 1206 -91 779 398 
Q 353 888 353 1747 
Q 353 2609 779 3096 
Q 1206 3584 1959 3584 
z
" transform="scale(0.015625)"/>
       <path id="DejaVuSans-63" d="M 3122 3366 
L 3122 2828 
Q 2878 2963 2633 3030 
Q 2388 3097 2138 3097 
Q 1578 3097 1268 2742 
Q 959 2388 959 1747 
Q 959 1106 1268 751 
Q 1578 397 2138 397 
Q 2388 397 2633 464 
Q 2878 531 3122 666 
L 3122 134 
Q 2881 22 2623 -34 
Q 2366 -91 2075 -91 
Q 1284 -91 818 406 
Q 353 903 353 1747 
Q 353 2603 823 3093 
Q 1294 3584 2113 3584 
Q 2378 3584 2631 3529 
Q 2884 3475 3122 3366 
z
" transform="scale(0.015625)"/>
       <path id="DejaVuSans-68" d="M 3513 2113 
L 3513 0 
L 2938 0 
L 2938 2094 
Q 2938 2591 2744 2837 
Q 2550 3084 2163 3084 
Q 1697 3084 1428 2787 
Q 1159 2491 1159 1978 
L 1159 0 
L 581 0 
L 581 4863 
L 1159 4863 
L 1159 2956 
Q 1366 3272 1645 3428 
Q 1925 3584 2291 3584 
Q 2894 3584 3203 3211 
Q 3513 2838 3513 2113 
z
" transform="scale(0.015625)"/>
       <path id="DejaVuSans-73" d="M 2834 3397 
L 2834 2853 
Q 2591 2978 2328 3040 
Q 2066 3103 1784 3103 
Q 1356 3103 1142 2972 
Q 928 2841 928 2578 
Q 928 2378 1081 2264 
Q 1234 2150 1697 2047 
L 1894 2003 
Q 2506 1872 2764 1633 
Q 3022 1394 3022 966 
Q 3022 478 2636 193 
Q 2250 -91 1575 -91 
Q 1294 -91 989 -36 
Q 684 19 347 128 
L 347 722 
Q 666 556 975 473 
Q 1284 391 1588 391 
Q 1994 391 2212 530 
Q 2431 669 2431 922 
Q 2431 1156 2273 1281 
Q 2116 1406 1581 1522 
L 1381 1569 
Q 847 1681 609 1914 
Q 372 2147 372 2553 
Q 372 3047 722 3315 
Q 1072 3584 1716 3584 
Q 2034 3584 2315 3537 
Q 2597 3491 2834 3397 
z
" transform="scale(0.015625)"/>
      </defs>
      <use xlink:href="#DejaVuSans-45"/>
      <use xlink:href="#DejaVuSans-70" transform="translate(63.183594 0)"/>
      <use xlink:href="#DejaVuSans-6f" transform="translate(126.660156 0)"/>
      <use xlink:href="#DejaVuSans-63" transform="translate(187.841797 0)"/>
      <use xlink:href="#DejaVuSans-68" transform="translate(242.822266 0)"/>
      <use xlink:href="#DejaVuSans-73" transform="translate(306.201172 0)"/>
     </g>
    </g>
   </g>
   <g id="matplotlib.axis_2">
    <g id="ytick_1">
     <g id="line2d_19">
      <path d="M 43.78125 554.875829 
L 601.78125 554.875829 
" clip-path="url(#p1cd2abddf9)" style="fill: none; stroke: #b0b0b0; stroke-width: 0.8; stroke-linecap: square"/>
     </g>
     <g id="line2d_20">
      <defs>
       <path id="md620420b7b" d="M 0 0 
L -3.5 0 
" style="stroke: #000000; stroke-width: 0.8"/>
      </defs>
      <g>
       <use xlink:href="#md620420b7b" x="43.78125" y="554.875829" style="stroke: #000000; stroke-width: 0.8"/>
      </g>
     </g>
     <g id="text_11">
      <!-- 0.0 -->
      <g transform="translate(20.878125 558.675047) scale(0.1 -0.1)">
       <defs>
        <path id="DejaVuSans-2e" d="M 684 794 
L 1344 794 
L 1344 0 
L 684 0 
L 684 794 
z
" transform="scale(0.015625)"/>
       </defs>
       <use xlink:href="#DejaVuSans-30"/>
       <use xlink:href="#DejaVuSans-2e" transform="translate(63.623047 0)"/>
       <use xlink:href="#DejaVuSans-30" transform="translate(95.410156 0)"/>
      </g>
     </g>
    </g>
    <g id="ytick_2">
     <g id="line2d_21">
      <path d="M 43.78125 468.918615 
L 601.78125 468.918615 
" clip-path="url(#p1cd2abddf9)" style="fill: none; stroke: #b0b0b0; stroke-width: 0.8; stroke-linecap: square"/>
     </g>
     <g id="line2d_22">
      <g>
       <use xlink:href="#md620420b7b" x="43.78125" y="468.918615" style="stroke: #000000; stroke-width: 0.8"/>
      </g>
     </g>
     <g id="text_12">
      <!-- 0.1 -->
      <g transform="translate(20.878125 472.717833) scale(0.1 -0.1)">
       <use xlink:href="#DejaVuSans-30"/>
       <use xlink:href="#DejaVuSans-2e" transform="translate(63.623047 0)"/>
       <use xlink:href="#DejaVuSans-31" transform="translate(95.410156 0)"/>
      </g>
     </g>
    </g>
    <g id="ytick_3">
     <g id="line2d_23">
      <path d="M 43.78125 382.961401 
L 601.78125 382.961401 
" clip-path="url(#p1cd2abddf9)" style="fill: none; stroke: #b0b0b0; stroke-width: 0.8; stroke-linecap: square"/>
     </g>
     <g id="line2d_24">
      <g>
       <use xlink:href="#md620420b7b" x="43.78125" y="382.961401" style="stroke: #000000; stroke-width: 0.8"/>
      </g>
     </g>
     <g id="text_13">
      <!-- 0.2 -->
      <g transform="translate(20.878125 386.76062) scale(0.1 -0.1)">
       <use xlink:href="#DejaVuSans-30"/>
       <use xlink:href="#DejaVuSans-2e" transform="translate(63.623047 0)"/>
       <use xlink:href="#DejaVuSans-32" transform="translate(95.410156 0)"/>
      </g>
     </g>
    </g>
    <g id="ytick_4">
     <g id="line2d_25">
      <path d="M 43.78125 297.004187 
L 601.78125 297.004187 
" clip-path="url(#p1cd2abddf9)" style="fill: none; stroke: #b0b0b0; stroke-width: 0.8; stroke-linecap: square"/>
     </g>
     <g id="line2d_26">
      <g>
       <use xlink:href="#md620420b7b" x="43.78125" y="297.004187" style="stroke: #000000; stroke-width: 0.8"/>
      </g>
     </g>
     <g id="text_14">
      <!-- 0.3 -->
      <g transform="translate(20.878125 300.803406) scale(0.1 -0.1)">
       <use xlink:href="#DejaVuSans-30"/>
       <use xlink:href="#DejaVuSans-2e" transform="translate(63.623047 0)"/>
       <use xlink:href="#DejaVuSans-33" transform="translate(95.410156 0)"/>
      </g>
     </g>
    </g>
    <g id="ytick_5">
     <g id="line2d_27">
      <path d="M 43.78125 211.046973 
L 601.78125 211.046973 
" clip-path="url(#p1cd2abddf9)" style="fill: none; stroke: #b0b0b0; stroke-width: 0.8; stroke-linecap: square"/>
     </g>
     <g id="line2d_28">
      <g>
       <use xlink:href="#md620420b7b" x="43.78125" y="211.046973" style="stroke: #000000; stroke-width: 0.8"/>
      </g>
     </g>
     <g id="text_15">
      <!-- 0.4 -->
      <g transform="translate(20.878125 214.846192) scale(0.1 -0.1)">
       <use xlink:href="#DejaVuSans-30"/>
       <use xlink:href="#DejaVuSans-2e" transform="translate(63.623047 0)"/>
       <use xlink:href="#DejaVuSans-34" transform="translate(95.410156 0)"/>
      </g>
     </g>
    </g>
    <g id="ytick_6">
     <g id="line2d_29">
      <path d="M 43.78125 125.089759 
L 601.78125 125.089759 
" clip-path="url(#p1cd2abddf9)" style="fill: none; stroke: #b0b0b0; stroke-width: 0.8; stroke-linecap: square"/>
     </g>
     <g id="line2d_30">
      <g>
       <use xlink:href="#md620420b7b" x="43.78125" y="125.089759" style="stroke: #000000; stroke-width: 0.8"/>
      </g>
     </g>
     <g id="text_16">
      <!-- 0.5 -->
      <g transform="translate(20.878125 128.888978) scale(0.1 -0.1)">
       <use xlink:href="#DejaVuSans-30"/>
       <use xlink:href="#DejaVuSans-2e" transform="translate(63.623047 0)"/>
       <use xlink:href="#DejaVuSans-35" transform="translate(95.410156 0)"/>
      </g>
     </g>
    </g>
    <g id="ytick_7">
     <g id="line2d_31">
      <path d="M 43.78125 39.132545 
L 601.78125 39.132545 
" clip-path="url(#p1cd2abddf9)" style="fill: none; stroke: #b0b0b0; stroke-width: 0.8; stroke-linecap: square"/>
     </g>
     <g id="line2d_32">
      <g>
       <use xlink:href="#md620420b7b" x="43.78125" y="39.132545" style="stroke: #000000; stroke-width: 0.8"/>
      </g>
     </g>
     <g id="text_17">
      <!-- 0.6 -->
      <g transform="translate(20.878125 42.931764) scale(0.1 -0.1)">
       <use xlink:href="#DejaVuSans-30"/>
       <use xlink:href="#DejaVuSans-2e" transform="translate(63.623047 0)"/>
       <use xlink:href="#DejaVuSans-36" transform="translate(95.410156 0)"/>
      </g>
     </g>
    </g>
    <g id="text_18">
     <!-- Accuracy -->
     <g transform="translate(14.798438 322.34625) rotate(-90) scale(0.1 -0.1)">
      <defs>
       <path id="DejaVuSans-41" d="M 2188 4044 
L 1331 1722 
L 3047 1722 
L 2188 4044 
z
M 1831 4666 
L 2547 4666 
L 4325 0 
L 3669 0 
L 3244 1197 
L 1141 1197 
L 716 0 
L 50 0 
L 1831 4666 
z
" transform="scale(0.015625)"/>
       <path id="DejaVuSans-75" d="M 544 1381 
L 544 3500 
L 1119 3500 
L 1119 1403 
Q 1119 906 1312 657 
Q 1506 409 1894 409 
Q 2359 409 2629 706 
Q 2900 1003 2900 1516 
L 2900 3500 
L 3475 3500 
L 3475 0 
L 2900 0 
L 2900 538 
Q 2691 219 2414 64 
Q 2138 -91 1772 -91 
Q 1169 -91 856 284 
Q 544 659 544 1381 
z
M 1991 3584 
L 1991 3584 
z
" transform="scale(0.015625)"/>
       <path id="DejaVuSans-72" d="M 2631 2963 
Q 2534 3019 2420 3045 
Q 2306 3072 2169 3072 
Q 1681 3072 1420 2755 
Q 1159 2438 1159 1844 
L 1159 0 
L 581 0 
L 581 3500 
L 1159 3500 
L 1159 2956 
Q 1341 3275 1631 3429 
Q 1922 3584 2338 3584 
Q 2397 3584 2469 3576 
Q 2541 3569 2628 3553 
L 2631 2963 
z
" transform="scale(0.015625)"/>
       <path id="DejaVuSans-61" d="M 2194 1759 
Q 1497 1759 1228 1600 
Q 959 1441 959 1056 
Q 959 750 1161 570 
Q 1363 391 1709 391 
Q 2188 391 2477 730 
Q 2766 1069 2766 1631 
L 2766 1759 
L 2194 1759 
z
M 3341 1997 
L 3341 0 
L 2766 0 
L 2766 531 
Q 2569 213 2275 61 
Q 1981 -91 1556 -91 
Q 1019 -91 701 211 
Q 384 513 384 1019 
Q 384 1609 779 1909 
Q 1175 2209 1959 2209 
L 2766 2209 
L 2766 2266 
Q 2766 2663 2505 2880 
Q 2244 3097 1772 3097 
Q 1472 3097 1187 3025 
Q 903 2953 641 2809 
L 641 3341 
Q 956 3463 1253 3523 
Q 1550 3584 1831 3584 
Q 2591 3584 2966 3190 
Q 3341 2797 3341 1997 
z
" transform="scale(0.015625)"/>
       <path id="DejaVuSans-79" d="M 2059 -325 
Q 1816 -950 1584 -1140 
Q 1353 -1331 966 -1331 
L 506 -1331 
L 506 -850 
L 844 -850 
Q 1081 -850 1212 -737 
Q 1344 -625 1503 -206 
L 1606 56 
L 191 3500 
L 800 3500 
L 1894 763 
L 2988 3500 
L 3597 3500 
L 2059 -325 
z
" transform="scale(0.015625)"/>
      </defs>
      <use xlink:href="#DejaVuSans-41"/>
      <use xlink:href="#DejaVuSans-63" transform="translate(66.658203 0)"/>
      <use xlink:href="#DejaVuSans-63" transform="translate(121.638672 0)"/>
      <use xlink:href="#DejaVuSans-75" transform="translate(176.619141 0)"/>
      <use xlink:href="#DejaVuSans-72" transform="translate(239.998047 0)"/>
      <use xlink:href="#DejaVuSans-61" transform="translate(281.111328 0)"/>
      <use xlink:href="#DejaVuSans-63" transform="translate(342.390625 0)"/>
      <use xlink:href="#DejaVuSans-79" transform="translate(397.371094 0)"/>
     </g>
    </g>
   </g>
   <g id="line2d_33">
    <path d="M 69.144886 189.044315 
L 69.779771 148.434294 
L 70.414655 139.506684 
L 71.04954 133.680707 
L 71.684424 129.55236 
L 73.589078 120.880231 
L 74.223962 118.922304 
L 74.858847 116.467762 
L 75.493732 115.498355 
L 76.128616 112.972187 
L 76.763501 110.90923 
L 77.398385 109.667613 
L 78.668154 106.374977 
L 79.303039 105.589399 
L 79.937923 105.159644 
L 80.572808 103.984888 
L 81.842577 102.97726 
L 83.112346 101.324998 
L 83.74723 99.856567 
L 84.382115 100.279149 
L 85.016999 99.087691 
L 85.651884 98.290226 
L 86.286768 98.882343 
L 86.921653 97.664653 
L 87.556537 97.776856 
L 88.191422 96.279784 
L 88.826306 97.079657 
L 89.461191 94.672866 
L 90.096075 94.586894 
L 90.73096 95.102621 
L 91.365844 93.428841 
L 92.000729 93.634189 
L 93.905382 92.471371 
L 94.540267 92.999086 
L 95.810036 90.852515 
L 96.44492 90.780889 
L 97.079805 90.859687 
L 97.71469 90.668685 
L 98.349574 89.622835 
L 99.619343 89.152503 
L 100.254228 88.323939 
L 100.889112 89.045013 
L 102.158881 88.180687 
L 102.793766 86.93907 
L 103.42865 86.802992 
L 104.063535 85.77866 
L 104.698419 85.89568 
L 105.333304 84.730454 
L 105.968188 84.508404 
L 106.603073 84.976379 
L 107.237957 83.531823 
L 107.872842 82.987456 
L 108.507726 82.89672 
L 109.142611 82.650795 
L 110.41238 80.654648 
L 111.047264 80.828947 
L 111.682149 80.277408 
L 112.317033 79.50141 
L 112.951918 79.389156 
L 113.586802 78.20487 
L 114.221687 77.901613 
L 114.856571 77.765535 
L 115.491456 77.245043 
L 116.12634 76.223069 
L 116.761225 76.920268 
L 117.396109 76.008191 
L 118.030994 75.5354 
L 119.300763 75.943738 
L 119.935648 74.286661 
L 120.570532 74.520649 
L 121.205417 74.370225 
L 121.840301 73.766119 
L 123.11007 73.930889 
L 123.744955 73.782873 
L 124.379839 73.166829 
L 125.014724 73.477208 
L 125.649608 72.175954 
L 126.284493 73.27186 
L 126.919377 72.113858 
L 127.554262 72.326378 
L 128.189146 72.175954 
L 128.824031 71.626771 
L 129.458915 71.409486 
L 130.0938 70.898524 
L 130.728684 71.230421 
L 131.363569 71.373673 
L 131.998453 70.332639 
L 132.633338 70.41856 
L 133.268222 70.385155 
L 133.903107 70.499766 
L 134.537991 69.773927 
L 135.80776 69.831207 
L 136.442645 69.16024 
L 137.077529 70.303948 
L 137.712414 69.344121 
L 138.982183 69.255793 
L 139.617067 69.332183 
L 140.251952 68.818814 
L 140.886837 68.556186 
L 141.521721 69.079085 
L 142.156606 67.856579 
L 142.79149 68.954944 
L 143.426375 67.944907 
L 144.061259 68.190884 
L 144.696144 67.954488 
L 145.331028 67.892392 
L 145.965913 68.224289 
L 146.600797 68.057162 
L 147.235682 67.269227 
L 147.870566 66.868061 
L 148.505451 67.493634 
L 149.140335 67.448291 
L 149.77522 67.844641 
L 150.410104 67.448291 
L 151.044989 66.708106 
L 151.679873 66.237723 
L 152.314758 67.252473 
L 152.949642 66.185207 
L 153.584527 67.113986 
L 154.219411 66.347569 
L 154.854296 67.276348 
L 156.124065 65.798387 
L 156.758949 65.819854 
L 157.393834 66.440662 
L 158.028718 66.641245 
L 159.298487 65.795979 
L 159.933372 66.013264 
L 160.568256 65.23491 
L 161.203141 65.385334 
L 161.838026 65.726761 
L 162.47291 65.008044 
L 163.107795 65.683775 
L 163.742679 64.747772 
L 164.377564 65.141766 
L 165.012448 64.862384 
L 165.647333 65.4856 
L 166.282217 64.341893 
L 166.917102 65.791214 
L 167.551986 65.328003 
L 168.186871 64.688084 
L 168.821755 64.580645 
L 169.45664 65.313657 
L 170.091524 64.8672 
L 171.361293 64.862384 
L 171.996178 64.785993 
L 172.631062 64.329955 
L 173.265947 64.389643 
L 173.900831 64.654679 
L 174.535716 63.907322 
L 175.1706 63.787945 
L 175.805485 64.623631 
L 176.440369 64.172358 
L 177.075254 64.504255 
L 177.710138 63.847634 
L 178.345023 64.079213 
L 178.979907 63.706739 
L 179.614792 64.392051 
L 180.249676 63.733022 
L 180.884561 64.055338 
L 181.519445 63.835696 
L 182.15433 63.811821 
L 182.789215 63.940727 
L 183.424099 64.449331 
L 184.058984 63.39636 
L 184.693868 63.007183 
L 185.328753 63.257873 
L 185.963637 63.171902 
L 186.598522 63.840461 
L 188.503175 63.052525 
L 189.13806 63.243528 
L 189.772944 63.7736 
L 190.407829 63.76407 
L 191.042713 63.119386 
L 192.312482 62.820946 
L 192.947367 62.868696 
L 193.582251 62.161916 
L 194.217136 62.933149 
L 194.85202 62.030602 
L 195.486905 62.302811 
L 196.121789 62.83524 
L 196.756674 62.266998 
L 197.391558 62.770787 
L 198.026443 61.45278 
L 198.661327 61.980444 
L 199.296212 61.782269 
L 199.931096 61.894472 
L 201.200865 60.946583 
L 201.83575 61.55781 
L 202.470634 61.111302 
L 203.740403 61.042084 
L 204.375288 61.101772 
L 205.010173 60.521542 
L 205.645057 61.147166 
L 206.279942 60.559762 
L 206.914826 60.414103 
L 207.549711 60.913127 
L 208.184595 60.540652 
L 208.81948 60.734062 
L 209.454364 60.705422 
L 210.089249 60.242211 
L 211.359018 60.318602 
L 212.628787 60.683904 
L 213.263671 60.313837 
L 213.898556 60.414103 
L 214.53344 60.194461 
L 215.803209 60.087022 
L 216.438094 60.29237 
L 217.072978 60.755581 
L 217.707863 59.910314 
L 218.342747 60.380698 
L 218.977632 60.008223 
L 219.612516 59.960473 
L 220.247401 60.235038 
L 220.882285 59.55695 
L 221.51717 59.683499 
L 222.152054 60.177758 
L 222.786939 60.282789 
L 223.421823 59.447103 
L 224.056708 59.564123 
L 224.691592 58.835824 
L 225.326477 59.490089 
L 225.961362 59.365896 
L 226.596246 60.301899 
L 227.231131 59.21788 
L 227.866015 59.287149 
L 228.5009 58.979127 
L 229.135784 59.709731 
L 229.770669 59.244163 
L 230.405553 59.065047 
L 231.040438 59.406525 
L 231.675322 59.616638 
L 232.310207 58.831059 
L 232.945091 59.182067 
L 233.579976 58.788074 
L 234.21486 59.012532 
L 234.849745 59.361132 
L 236.754398 58.730794 
L 238.024167 58.506335 
L 238.659052 57.723165 
L 239.293936 58.726029 
L 239.928821 58.391724 
L 240.563705 58.723621 
L 241.19859 58.857343 
L 241.833474 58.874045 
L 242.468359 58.47293 
L 243.103243 58.470522 
L 243.738128 57.907045 
L 244.373012 57.608553 
L 245.007897 58.124331 
L 245.642781 58.20313 
L 246.277666 58.592307 
L 246.91255 57.70887 
L 247.547435 57.787669 
L 248.18232 57.376973 
L 248.817204 57.658712 
L 250.086973 57.451007 
L 250.721858 57.916575 
L 251.356742 57.923748 
L 251.991627 57.482004 
L 252.626511 58.014484 
L 253.261396 57.355455 
L 253.89628 57.357863 
L 254.531165 57.806728 
L 255.166049 57.384146 
L 255.800934 57.766151 
L 256.435818 57.434254 
L 257.070703 58.131452 
L 257.705587 58.062235 
L 258.340472 57.74704 
L 258.975356 56.894652 
L 259.610241 57.522633 
L 260.245125 57.052249 
L 260.88001 57.381738 
L 261.514894 57.283829 
L 262.149779 57.529755 
L 262.784663 57.57274 
L 263.419548 56.603333 
L 264.054432 57.720808 
L 264.689317 57.520225 
L 265.324201 56.811088 
L 265.959086 56.450551 
L 266.59397 57.219376 
L 267.228855 57.546508 
L 267.863739 56.887479 
L 268.498624 56.543644 
L 269.133509 56.987745 
L 269.768393 57.214611 
L 270.403278 57.152515 
L 271.038162 56.467254 
L 271.673047 57.004499 
L 272.307931 56.842137 
L 272.942816 57.749448 
L 273.5777 57.195501 
L 274.847469 56.791978 
L 275.482354 56.130592 
L 276.752123 56.827791 
L 277.387007 56.832556 
L 278.021892 56.300127 
L 278.656776 57.930921 
L 279.291661 56.285781 
L 279.926545 57.493942 
L 280.56143 56.827791 
L 281.196314 56.479191 
L 281.831199 55.977759 
L 282.466083 56.517412 
L 283.100968 55.753352 
L 283.735852 56.784805 
L 284.370737 56.553225 
L 285.005621 55.99687 
L 285.640506 56.684539 
L 286.27539 56.328767 
L 286.910275 56.548409 
L 287.545159 56.307248 
L 288.180044 55.87985 
L 288.814928 56.61527 
L 289.449813 55.989697 
L 290.084697 56.89706 
L 290.719582 56.331175 
L 291.354467 56.319237 
L 291.989351 56.14253 
L 292.624236 56.445735 
L 293.25912 56.417095 
L 293.894005 55.770055 
L 294.528889 55.779584 
L 295.163774 56.352642 
L 295.798658 55.894196 
L 296.433543 56.104309 
L 297.068427 56.469662 
L 297.703312 56.192688 
L 298.338196 55.784349 
L 298.973081 55.984932 
L 299.607965 55.617222 
L 300.24285 56.362172 
L 300.877734 55.655443 
L 302.147503 56.001635 
L 302.782388 55.679318 
L 303.417272 55.739007 
L 304.687041 55.653035 
L 305.95681 55.574237 
L 306.591695 55.278152 
L 307.226579 55.750944 
L 307.861464 55.337892 
L 308.496348 55.387999 
L 309.131233 55.681675 
L 309.766117 55.306844 
L 310.401002 55.746179 
L 311.035886 55.228045 
L 311.670771 55.103853 
L 312.305656 55.887023 
L 312.94054 55.313965 
L 314.210309 55.208935 
L 315.480078 55.569472 
L 316.114963 55.271031 
L 316.749847 55.500254 
L 317.384732 55.096731 
L 318.019616 55.25192 
L 318.654501 55.824978 
L 319.289385 55.798695 
L 319.92427 55.512192 
L 320.559154 54.52603 
L 321.194039 55.247156 
L 321.828923 55.440515 
L 323.733577 54.867508 
L 324.368461 55.633925 
L 325.003346 54.676455 
L 325.63823 55.08715 
L 326.273115 55.041808 
L 326.907999 55.132544 
L 327.542884 54.803004 
L 328.177768 55.096731 
L 328.812653 55.626803 
L 329.447537 55.130136 
L 330.717306 54.979711 
L 331.352191 54.616766 
L 331.987075 55.364124 
L 332.62196 54.592891 
L 333.256844 55.146838 
L 333.891729 54.979711 
L 334.526614 55.151603 
L 335.161498 54.29445 
L 336.431267 54.984476 
L 337.066152 55.189824 
L 337.701036 54.967774 
L 338.970805 55.056102 
L 339.60569 54.050881 
L 340.240574 54.702738 
L 340.875459 54.490217 
L 341.510343 54.612002 
L 342.780112 53.87899 
L 343.414997 54.943899 
L 344.049881 54.495033 
L 344.684766 54.740959 
L 345.31965 54.509328 
L 345.954535 54.628704 
L 346.589419 54.12015 
L 347.224304 54.155963 
L 347.859188 54.994057 
L 348.494073 54.401889 
L 349.128957 54.504563 
L 349.763842 54.420999 
L 350.398726 54.167901 
L 351.033611 54.712267 
L 351.668495 54.35173 
L 352.30338 54.416235 
L 353.573149 54.167901 
L 354.208033 53.816893 
L 354.842918 54.552313 
L 356.112687 54.318325 
L 356.747572 54.731378 
L 357.382456 53.857471 
L 358.017341 54.11057 
L 358.652225 53.895692 
L 359.28711 54.012712 
L 359.921994 53.67605 
L 360.556879 53.563795 
L 361.191763 54.048525 
L 361.826648 54.201306 
L 362.461532 53.747676 
L 363.096417 54.344609 
L 363.731301 54.29445 
L 364.366186 53.647359 
L 365.00107 53.504107 
L 365.635955 54.232354 
L 366.270839 53.893284 
L 366.905724 54.356546 
L 367.540608 54.098632 
L 368.175493 54.005539 
L 368.810377 53.449184 
L 369.445262 54.050881 
L 370.080146 53.255773 
L 370.715031 53.475467 
L 371.349915 54.055697 
L 371.9848 53.456356 
L 372.619684 53.430073 
L 373.889453 53.914803 
L 374.524338 53.465886 
L 375.159222 54.067635 
L 375.794107 54.44011 
L 377.063876 53.804956 
L 377.698761 53.687987 
L 378.333645 53.203258 
L 378.96853 53.709455 
L 379.603414 53.186555 
L 380.238299 53.590078 
L 380.873183 53.537563 
L 381.508068 53.754797 
L 382.142952 53.239071 
L 382.777837 53.824066 
L 383.412721 53.387139 
L 384.68249 53.093411 
L 385.317375 53.869409 
L 385.952259 53.628299 
L 386.587144 53.578141 
L 387.222028 53.203258 
L 387.856913 53.487404 
L 388.491797 53.532747 
L 389.126682 52.907174 
L 390.396451 53.783489 
L 391.031335 53.721392 
L 391.66622 53.231898 
L 392.301104 53.594843 
L 393.570873 52.439198 
L 394.205758 53.000318 
L 394.840642 52.914347 
L 395.475527 52.620671 
L 396.745296 53.031366 
L 397.38018 52.632608 
L 398.015065 52.938222 
L 398.64995 53.083882 
L 399.284834 52.735282 
L 400.554603 53.083882 
L 401.189488 52.897644 
L 401.824372 52.400977 
L 403.094141 53.048069 
L 403.729026 52.826018 
L 404.36391 53.131632 
L 404.998795 53.08629 
L 405.633679 52.42726 
L 406.268564 52.666013 
L 406.903448 52.252961 
L 407.538333 52.336524 
L 408.173217 52.209975 
L 409.442986 52.682767 
L 410.077871 52.472603 
L 410.712755 52.441606 
L 411.34764 51.937766 
L 411.982524 52.580093 
L 412.617409 52.522761 
L 413.252293 52.133584 
L 413.887178 52.128819 
L 414.522062 51.777812 
L 415.791831 51.804095 
L 416.426716 51.806452 
L 417.0616 52.343697 
L 417.696485 52.649311 
L 418.331369 52.245788 
L 419.601138 52.023737 
L 420.870908 52.386683 
L 421.505792 51.770639 
L 422.140677 52.159816 
L 422.775561 51.204754 
L 423.410446 51.448323 
L 424.04533 52.372337 
L 424.680215 51.835092 
L 425.315099 50.951656 
L 425.949984 51.632152 
L 426.584868 51.493665 
L 427.219753 51.725297 
L 427.854637 51.369524 
L 428.489522 51.63456 
L 429.124406 52.135941 
L 429.759291 51.231037 
L 430.394175 51.603512 
L 431.02906 51.111661 
L 431.663944 51.29549 
L 432.298829 51.849438 
L 432.933713 52.126411 
L 433.568598 50.954064 
L 434.203482 51.651263 
L 434.838367 51.901953 
L 435.473251 51.536651 
L 436.108136 51.775404 
L 437.377905 51.49843 
L 438.012789 51.035219 
L 438.647674 51.503246 
L 439.282558 51.348006 
L 439.917443 51.548589 
L 440.552327 51.128363 
L 441.187212 51.804095 
L 441.822097 50.999406 
L 442.456981 51.001814 
L 443.091866 50.70573 
L 444.361635 50.841809 
L 445.631404 51.338476 
L 446.266288 50.17325 
L 446.901173 50.488445 
L 447.536057 51.211927 
L 448.170942 50.445459 
L 448.805826 50.918251 
L 449.440711 50.743951 
L 450.075595 50.14461 
L 450.71048 51.207162 
L 451.345364 50.746308 
L 451.980249 50.617402 
L 452.615133 51.078205 
L 453.250018 51.068675 
L 453.884902 50.576773 
L 454.519787 50.529022 
L 455.154671 50.660388 
L 455.789556 50.643634 
L 456.42444 50.285505 
L 457.059325 50.741543 
L 457.694209 51.410102 
L 458.329094 50.263986 
L 458.963978 50.834687 
L 459.598863 50.108797 
L 460.233747 50.746308 
L 460.868632 50.951656 
L 461.503516 50.333255 
L 462.138401 50.746308 
L 462.773285 50.815577 
L 463.40817 49.967953 
L 464.043055 50.481272 
L 464.677939 50.471742 
L 465.312824 50.717668 
L 465.947708 50.593527 
L 466.582593 50.894376 
L 467.217477 50.096859 
L 467.852362 50.746308 
L 468.487246 50.010888 
L 469.122131 50.478915 
L 469.757015 50.543368 
L 470.3919 50.478915 
L 471.026784 49.788838 
L 471.661669 50.206706 
L 472.296553 50.33802 
L 472.931438 50.034763 
L 473.566322 50.514728 
L 474.201207 50.158956 
L 474.836091 50.158956 
L 475.470976 50.034763 
L 476.10586 50.209063 
L 476.740745 49.975075 
L 477.375629 50.383414 
L 478.010514 50.626932 
L 478.645398 50.072984 
L 479.280283 49.736322 
L 479.915167 49.69098 
L 480.550052 50.545776 
L 481.184936 49.870044 
L 481.819821 51.159412 
L 482.454705 50.381006 
L 483.08959 49.91303 
L 484.359359 50.025234 
L 484.994244 49.905857 
L 485.629128 50.170893 
L 486.264013 49.834231 
L 486.898897 50.228173 
L 488.168666 49.674226 
L 488.803551 49.91303 
L 490.07332 49.965545 
L 490.708204 49.32327 
L 491.343089 50.209063 
L 491.977973 50.70573 
L 492.612858 49.946435 
L 493.247742 50.025234 
L 493.882627 49.437881 
L 494.517511 49.824651 
L 495.78728 49.910622 
L 496.422165 50.190004 
L 497.057049 50.094503 
L 497.691934 49.664697 
L 498.326818 49.671869 
L 498.961703 50.414411 
L 499.596587 50.039579 
L 500.231472 50.357131 
L 500.866356 49.829467 
L 501.501241 50.204298 
L 502.136125 49.650351 
L 502.77101 49.846169 
L 503.405894 49.134624 
L 504.040779 49.538147 
L 505.310548 49.958373 
L 506.580317 49.671869 
L 507.215202 50.445459 
L 507.850086 48.210559 
L 508.484971 50.295034 
L 509.75474 48.945979 
L 510.389624 49.296987 
L 511.024509 49.137032 
L 511.659393 49.702917 
L 512.294278 49.447411 
L 512.929162 49.693337 
L 513.564047 50.17325 
L 514.198931 49.04148 
L 514.833816 49.246828 
L 515.4687 48.78126 
L 516.103585 48.786025 
L 516.738469 49.423536 
L 517.373354 49.127452 
L 518.008238 49.390131 
L 518.643123 49.098812 
L 519.278007 49.296987 
L 520.547776 49.051061 
L 521.182661 48.549629 
L 521.817545 49.829467 
L 523.087314 48.738274 
L 524.357083 49.084466 
L 524.991968 49.793602 
L 525.626852 48.731102 
L 526.261737 49.189548 
L 526.896621 49.108341 
L 528.166391 49.581133 
L 528.801275 49.258766 
L 529.43616 49.065355 
L 530.071044 49.815121 
L 530.705929 49.10122 
L 532.610582 49.10122 
L 533.245467 49.480816 
L 533.880351 49.051061 
L 534.515236 49.54532 
L 535.785005 48.953152 
L 537.054774 48.831367 
L 537.689658 49.285049 
L 538.324543 48.829011 
L 538.959427 49.000902 
L 539.594312 48.836184 
L 540.229196 48.444598 
L 541.498965 48.802727 
L 542.13385 49.144154 
L 542.768734 49.043888 
L 543.403619 49.254001 
L 544.038503 48.566331 
L 544.673388 48.060135 
L 545.308272 48.671413 
L 545.943157 48.58785 
L 546.578041 49.263582 
L 547.212926 49.35191 
L 547.84781 48.79079 
L 548.482695 48.552037 
L 549.11758 49.316097 
L 549.752464 48.566331 
L 550.387349 48.282236 
L 551.022233 49.468878 
L 551.657118 48.924512 
L 552.292002 49.289814 
L 552.926887 48.936449 
L 553.561771 48.210559 
L 554.83154 48.821838 
L 555.466425 48.642773 
L 556.101309 48.929277 
L 556.736194 48.623663 
L 557.371078 49.01284 
L 558.005963 48.265483 
L 558.640847 47.885835 
L 559.910616 48.907809 
L 560.545501 48.160452 
L 561.180385 48.110293 
L 561.81527 48.329987 
L 562.450154 48.697697 
L 563.085039 48.401613 
L 563.719923 48.327579 
L 564.354808 49.015248 
L 564.989692 48.241607 
L 565.624577 48.036259 
L 566.259461 48.49947 
L 566.894346 48.198622 
L 567.52923 48.786025 
L 568.164115 48.134169 
L 568.798999 48.353862 
L 569.433884 47.694833 
L 570.068768 48.203438 
L 570.703653 48.332344 
L 571.338538 48.251188 
L 571.973422 47.795099 
L 572.608307 48.688116 
L 573.243191 47.845257 
L 573.878076 48.891056 
L 574.51296 47.518125 
L 575.147845 47.85243 
L 575.782729 48.341924 
L 576.417614 48.227313 
L 576.417614 48.227313 
" clip-path="url(#p1cd2abddf9)" style="fill: none; stroke: #1f77b4; stroke-width: 1.5; stroke-linecap: square"/>
   </g>
   <g id="line2d_34">
    <path d="M 69.144886 149.909899 
L 69.779771 149.028845 
L 70.414655 139.530559 
L 71.04954 132.868897 
L 71.684424 129.215698 
L 72.319309 130.805914 
L 72.954193 119.631492 
L 73.589078 124.058255 
L 74.223962 117.289154 
L 74.858847 117.482564 
L 75.493732 116.665937 
L 76.128616 114.452556 
L 76.763501 114.882362 
L 77.398385 108.865332 
L 78.03327 114.495542 
L 78.668154 107.14621 
L 79.303039 107.683404 
L 79.937923 111.873822 
L 80.572808 106.501527 
L 81.207692 107.790894 
L 81.842577 107.296635 
L 82.477461 104.846857 
L 83.112346 107.812361 
L 83.74723 103.621943 
L 84.382115 104.073217 
L 85.016999 106.716404 
L 85.651884 98.528978 
L 86.286768 109.918304 
L 86.921653 104.073217 
L 87.556537 96.938762 
L 88.191422 98.89428 
L 88.826306 94.252589 
L 89.461191 95.713899 
L 90.096075 99.495978 
L 90.73096 96.251093 
L 91.365844 95.477503 
L 92.000729 99.882799 
L 92.635613 96.251093 
L 93.270498 97.841309 
L 93.905382 98.464525 
L 94.540267 94.403014 
L 95.175151 95.004711 
L 95.810036 91.802812 
L 96.44492 96.057734 
L 97.079805 90.148143 
L 97.71469 93.436014 
L 98.349574 91.716892 
L 98.984459 93.543453 
L 99.619343 89.524978 
L 100.254228 91.716892 
L 100.889112 90.792826 
L 101.523997 87.913243 
L 102.158881 86.774351 
L 102.793766 92.2111 
L 103.42865 91.265618 
L 104.063535 91.007704 
L 104.698419 91.265618 
L 105.333304 86.065164 
L 105.968188 85.570904 
L 106.603073 85.72138 
L 107.237957 86.065164 
L 107.872842 87.010696 
L 109.142611 85.42048 
L 109.777495 86.774351 
L 110.41238 82.820278 
L 111.047264 83.09966 
L 111.682149 84.926272 
L 112.317033 82.261566 
L 112.951918 85.678394 
L 114.221687 81.896264 
L 114.856571 84.689876 
L 115.491456 86.860272 
L 116.12634 86.129668 
L 116.761225 83.679891 
L 117.396109 79.811789 
L 118.030994 81.036703 
L 118.665879 80.220077 
L 119.300763 81.788825 
L 119.935648 77.834804 
L 120.570532 80.67135 
L 121.205417 81.509444 
L 121.840301 77.791818 
L 122.475186 78.414983 
L 123.11007 79.424968 
L 123.744955 84.002207 
L 124.379839 77.08263 
L 125.014724 81.230113 
L 125.649608 80.886279 
L 126.284493 75.578385 
L 126.919377 75.556918 
L 127.554262 75.879234 
L 128.189146 78.930761 
L 128.824031 80.499458 
L 129.458915 75.191616 
L 130.0938 76.717328 
L 130.728684 76.180083 
L 131.363569 78.801803 
L 131.998453 77.662861 
L 132.633338 78.371997 
L 133.268222 80.821774 
L 133.903107 78.049681 
L 134.537991 79.016681 
L 135.172876 74.912234 
L 135.80776 71.796306 
L 136.442645 74.5684 
L 137.077529 73.193112 
L 137.712414 78.500954 
L 138.347298 75.320522 
L 138.982183 73.429457 
L 139.617067 81.187128 
L 140.251952 74.160112 
L 140.886837 75.750328 
L 141.521721 72.978184 
L 142.156606 76.373493 
L 142.79149 74.332004 
L 143.426375 73.6014 
L 144.061259 76.11563 
L 144.696144 83.916235 
L 145.331028 73.236047 
L 145.965913 73.68732 
L 146.600797 77.877738 
L 147.235682 77.211587 
L 147.870566 69.776284 
L 148.505451 72.763306 
L 149.140335 77.426465 
L 149.77522 72.183076 
L 150.410104 71.3665 
L 151.044989 71.259061 
L 151.679873 73.98822 
L 152.314758 71.216076 
L 152.949642 75.019673 
L 153.584527 74.740343 
L 154.219411 69.81927 
L 154.854296 75.299055 
L 155.48918 76.502451 
L 156.124065 69.539888 
L 156.758949 70.184572 
L 157.393834 67.734794 
L 158.028718 75.105645 
L 158.663603 75.363508 
L 159.298487 70.3995 
L 159.933372 72.935198 
L 160.568256 68.787766 
L 161.203141 70.098651 
L 161.838026 74.460961 
L 162.47291 73.365004 
L 163.107795 70.635845 
L 163.742679 74.546933 
L 164.377564 72.870745 
L 165.012448 73.021169 
L 165.647333 71.3665 
L 166.282217 74.417975 
L 166.917102 71.796306 
L 167.551986 72.591414 
L 168.186871 74.138645 
L 168.821755 73.300551 
L 169.45664 71.151623 
L 170.091524 70.915227 
L 170.726409 72.312033 
L 171.361293 66.703342 
L 171.996178 69.883723 
L 172.631062 75.363508 
L 173.265947 76.846285 
L 173.900831 68.143082 
L 174.535716 70.528406 
L 175.1706 68.272039 
L 175.805485 71.968198 
L 176.440369 66.746276 
L 177.075254 69.410982 
L 177.710138 73.300551 
L 178.345023 69.475435 
L 178.979907 72.741839 
L 179.614792 72.763306 
L 180.249676 68.100148 
L 180.884561 69.346529 
L 181.519445 68.85227 
L 182.15433 70.055666 
L 182.789215 70.420968 
L 183.424099 69.539888 
L 184.058984 68.443931 
L 185.328753 75.965206 
L 185.963637 73.966702 
L 186.598522 70.3995 
L 187.233406 67.519917 
L 187.868291 75.234551 
L 188.503175 70.055666 
L 189.13806 69.883723 
L 189.772944 71.667349 
L 190.407829 73.085622 
L 191.042713 67.219068 
L 191.677598 69.260558 
L 192.947367 68.272039 
L 193.582251 68.422464 
L 194.217136 64.855262 
L 194.85202 69.926708 
L 195.486905 72.269047 
L 196.121789 70.807788 
L 196.756674 71.022666 
L 197.391558 67.756313 
L 198.026443 72.591414 
L 198.661327 67.58437 
L 199.296212 64.812277 
L 199.931096 70.850774 
L 200.565981 67.670341 
L 201.200865 67.047125 
L 201.83575 69.174586 
L 202.470634 70.506939 
L 203.105519 68.74478 
L 203.740403 68.078629 
L 204.375288 69.475435 
L 205.010173 65.478427 
L 205.645057 66.015672 
L 206.279942 67.885219 
L 206.914826 67.412478 
L 207.549711 69.453968 
L 208.184595 66.660356 
L 208.81948 67.648874 
L 209.454364 65.693305 
L 210.089249 69.346529 
L 210.724133 68.680327 
L 211.359018 66.746276 
L 211.993902 69.282025 
L 212.628787 66.359507 
L 213.263671 69.303543 
L 213.898556 69.174586 
L 214.53344 65.26355 
L 215.168325 67.58437 
L 215.803209 69.153119 
L 216.438094 66.080125 
L 217.072978 66.81078 
L 217.707863 67.004191 
L 218.342747 70.442435 
L 218.977632 65.564399 
L 219.612516 66.123111 
L 220.247401 64.318017 
L 220.882285 67.219068 
L 221.51717 67.433946 
L 222.152054 67.455464 
L 222.786939 65.843729 
L 223.421823 63.71632 
L 224.056708 64.167593 
L 224.691592 65.113125 
L 225.326477 65.499946 
L 225.961362 68.315025 
L 226.596246 66.187564 
L 227.231131 68.422464 
L 227.866015 65.392456 
L 228.5009 64.10314 
L 229.135784 64.855262 
L 229.770669 64.296499 
L 230.405553 65.435442 
L 231.040438 63.393952 
L 231.675322 73.064155 
L 232.310207 65.45696 
L 233.579976 69.303543 
L 234.21486 63.952715 
L 234.849745 67.090111 
L 235.484629 64.87673 
L 236.119514 64.812277 
L 236.754398 66.982672 
L 237.389283 63.845226 
L 238.024167 71.17309 
L 238.659052 70.936694 
L 239.928821 62.383967 
L 240.563705 69.410982 
L 241.19859 63.114622 
L 241.833474 66.574384 
L 242.468359 64.511428 
L 243.103243 65.199046 
L 243.738128 63.888211 
L 244.373012 66.595852 
L 245.007897 65.435442 
L 245.642781 63.372485 
L 246.277666 67.562903 
L 246.91255 63.200542 
L 247.547435 64.554413 
L 248.18232 67.412478 
L 249.452089 63.522909 
L 250.086973 71.624363 
L 250.721858 65.843729 
L 251.356742 66.896701 
L 251.991627 62.792254 
L 252.626511 62.985664 
L 253.261396 64.511428 
L 253.89628 64.124607 
L 254.531165 66.982672 
L 255.166049 65.328003 
L 255.800934 62.727801 
L 256.435818 68.400997 
L 257.070703 64.253564 
L 257.705587 61.846722 
L 258.340472 63.845226 
L 258.975356 68.615874 
L 259.610241 63.522909 
L 260.245125 65.607385 
L 260.88001 63.823758 
L 261.514894 64.790758 
L 262.784663 64.124607 
L 263.419548 63.587362 
L 264.054432 63.22206 
L 264.689317 65.521413 
L 265.324201 65.564399 
L 265.959086 65.908234 
L 266.59397 66.123111 
L 267.228855 64.511428 
L 267.863739 61.846722 
L 268.498624 67.262054 
L 269.133509 69.389464 
L 269.768393 64.726305 
L 270.403278 65.392456 
L 271.038162 65.027154 
L 271.673047 63.02865 
L 272.307931 64.554413 
L 272.942816 64.704838 
L 273.5777 64.253564 
L 274.212585 60.063147 
L 274.847469 59.504383 
L 275.482354 65.156111 
L 276.117238 64.017168 
L 276.752123 61.932693 
L 277.387007 61.48142 
L 278.021892 66.595852 
L 278.656776 63.501391 
L 279.291661 64.339485 
L 279.926545 63.544377 
L 280.56143 64.060154 
L 281.196314 61.116118 
L 281.831199 61.588858 
L 283.100968 67.025658 
L 283.735852 66.703342 
L 285.005621 62.770787 
L 285.640506 63.866744 
L 286.27539 62.792254 
L 286.910275 64.812277 
L 287.545159 65.607385 
L 288.180044 61.846722 
L 288.814928 67.176082 
L 289.449813 61.760801 
L 290.084697 66.23055 
L 290.719582 68.508435 
L 291.354467 61.932693 
L 291.989351 63.974183 
L 292.624236 65.413974 
L 293.25912 65.65037 
L 293.894005 62.233542 
L 294.528889 66.939686 
L 295.163774 64.10314 
L 295.798658 60.686312 
L 296.433543 59.676326 
L 297.068427 67.219068 
L 297.703312 60.449916 
L 298.338196 65.736291 
L 298.973081 62.534391 
L 299.607965 65.34947 
L 300.24285 65.628852 
L 300.877734 63.179075 
L 301.512619 71.280529 
L 302.147503 62.255061 
L 302.782388 63.90973 
L 303.417272 63.823758 
L 304.052157 62.212075 
L 304.687041 66.918219 
L 305.321926 63.974183 
L 305.95681 66.918219 
L 306.591695 66.832248 
L 307.226579 62.749268 
L 307.861464 63.501391 
L 308.496348 66.703342 
L 309.131233 63.436938 
L 309.766117 64.597348 
L 310.401002 63.415471 
L 311.035886 67.605888 
L 311.670771 65.671838 
L 312.305656 66.015672 
L 312.94054 62.942679 
L 313.575425 63.157607 
L 314.210309 65.908234 
L 314.845194 64.597348 
L 315.480078 64.683319 
L 316.114963 62.190556 
L 316.749847 62.233542 
L 317.384732 62.792254 
L 318.019616 73.579881 
L 318.654501 65.757809 
L 319.289385 62.212075 
L 319.92427 62.663348 
L 321.828923 61.438434 
L 322.463808 61.932693 
L 323.098692 67.97119 
L 323.733577 64.296499 
L 324.368461 67.863752 
L 325.003346 61.223557 
L 325.63823 61.395448 
L 326.273115 59.697793 
L 326.907999 62.620363 
L 327.542884 60.471434 
L 328.177768 61.459953 
L 328.812653 63.286513 
L 329.447537 65.779276 
L 330.082422 61.67483 
L 330.717306 62.727801 
L 331.352191 61.502887 
L 331.987075 62.383967 
L 332.62196 61.846722 
L 333.256844 63.286513 
L 333.891729 60.750765 
L 334.526614 62.469938 
L 335.161498 62.018665 
L 335.796383 60.40693 
L 336.431267 61.502887 
L 337.066152 65.306536 
L 337.701036 61.309528 
L 338.335921 63.99565 
L 338.970805 62.212075 
L 339.60569 63.845226 
L 340.875459 64.812277 
L 341.510343 63.759305 
L 342.145228 60.428448 
L 342.780112 58.623355 
L 343.414997 62.06165 
L 344.049881 60.020161 
L 344.684766 63.458456 
L 345.31965 65.843729 
L 345.954535 65.048621 
L 346.589419 60.084614 
L 347.224304 59.826751 
L 347.859188 63.007183 
L 348.494073 63.007183 
L 349.128957 68.078629 
L 350.398726 59.805232 
L 351.033611 61.438434 
L 351.668495 64.597348 
L 352.30338 58.322506 
L 352.938264 65.628852 
L 353.573149 64.747772 
L 354.208033 66.058658 
L 354.842918 59.289506 
L 355.477803 62.06165 
L 356.112687 60.106081 
L 356.747572 65.972687 
L 357.382456 60.535887 
L 358.017341 65.714823 
L 358.652225 62.663348 
L 359.28711 60.79375 
L 359.921994 64.10314 
L 360.556879 61.137585 
L 361.191763 60.492901 
L 361.826648 58.795247 
L 362.461532 60.149067 
L 363.096417 62.727801 
L 363.731301 61.330995 
L 364.366186 61.524405 
L 365.00107 63.007183 
L 365.635955 60.578873 
L 366.270839 63.479924 
L 366.905724 60.965693 
L 367.540608 61.030146 
L 368.810377 62.792254 
L 369.445262 60.063147 
L 370.080146 61.352463 
L 370.715031 61.030146 
L 371.349915 67.562903 
L 371.9848 61.782269 
L 372.619684 60.428448 
L 373.254569 62.297995 
L 373.889453 62.534391 
L 374.524338 59.182067 
L 375.159222 61.67483 
L 375.794107 64.661852 
L 376.428991 56.474427 
L 377.063876 60.772283 
L 377.698761 57.376973 
L 378.333645 62.64183 
L 378.96853 64.361003 
L 379.603414 66.61737 
L 380.238299 60.901189 
L 380.873183 61.524405 
L 381.508068 63.22206 
L 382.142952 60.235038 
L 382.777837 63.608881 
L 383.412721 63.157607 
L 384.047606 61.180571 
L 384.68249 61.245024 
L 385.317375 63.673334 
L 385.952259 59.590355 
L 386.587144 64.361003 
L 387.222028 61.502887 
L 387.856913 61.48142 
L 388.491797 58.924204 
L 389.126682 60.858255 
L 389.761566 57.484412 
L 390.396451 57.785261 
L 391.031335 61.567391 
L 391.66622 60.1276 
L 392.301104 59.783765 
L 392.935989 61.975679 
L 393.570873 62.598844 
L 394.205758 59.074628 
L 394.840642 61.137585 
L 396.110411 59.891204 
L 396.745296 63.329499 
L 397.38018 62.040132 
L 398.015065 60.256506 
L 398.64995 63.136089 
L 399.284834 63.90973 
L 399.919719 61.524405 
L 400.554603 62.921211 
L 401.189488 59.504383 
L 401.824372 59.05311 
L 402.459257 66.058658 
L 403.094141 60.922708 
L 403.729026 59.998642 
L 404.36391 58.451412 
L 404.998795 59.418463 
L 405.633679 59.912722 
L 406.268564 63.522909 
L 406.903448 60.51442 
L 407.538333 63.522909 
L 408.173217 60.922708 
L 408.808102 63.587362 
L 409.442986 58.322506 
L 410.077871 59.482916 
L 410.712755 61.696297 
L 411.34764 58.365492 
L 411.982524 60.428448 
L 412.617409 59.568887 
L 413.252293 58.408426 
L 414.522062 61.073132 
L 415.156947 60.60034 
L 415.791831 56.066139 
L 416.426716 60.235038 
L 417.0616 57.849714 
L 417.696485 59.977175 
L 418.331369 58.08611 
L 418.966254 62.55591 
L 419.601138 60.836736 
L 420.236023 58.494398 
L 420.870908 59.010175 
L 421.505792 56.9257 
L 422.140677 60.922708 
L 422.775561 60.106081 
L 423.410446 60.729297 
L 424.04533 57.333988 
L 424.680215 61.760801 
L 425.315099 58.064643 
L 425.949984 58.730794 
L 426.584868 57.20503 
L 427.219753 59.353959 
L 427.854637 58.580369 
L 428.489522 59.182067 
L 429.124406 56.388455 
L 429.759291 58.386959 
L 430.394175 55.313965 
L 431.02906 61.782269 
L 431.663944 59.311024 
L 432.933713 60.428448 
L 433.568598 59.396944 
L 434.203482 60.922708 
L 434.838367 60.192053 
L 435.473251 58.408426 
L 436.108136 60.278024 
L 436.74302 60.987161 
L 437.377905 55.700786 
L 438.012789 57.849714 
L 438.647674 55.700786 
L 439.282558 59.268038 
L 439.917443 56.087606 
L 440.552327 56.259498 
L 441.187212 56.968686 
L 441.822097 55.937182 
L 442.456981 60.944175 
L 443.091866 59.182067 
L 443.72675 56.324002 
L 444.361635 58.043124 
L 444.996519 62.83524 
L 445.631404 58.537383 
L 446.266288 57.677822 
L 446.901173 60.020161 
L 447.536057 60.385463 
L 448.170942 58.924204 
L 449.440711 63.308032 
L 450.075595 57.441426 
L 450.71048 55.399937 
L 451.345364 58.300987 
L 451.980249 59.740779 
L 452.615133 58.494398 
L 453.250018 54.755253 
L 453.884902 57.505879 
L 454.519787 64.296499 
L 455.154671 60.342477 
L 455.789556 58.408426 
L 456.42444 61.094599 
L 457.694209 57.097592 
L 458.329094 57.69929 
L 458.963978 62.405485 
L 459.598863 57.31252 
L 460.233747 57.484412 
L 460.868632 57.398441 
L 461.503516 56.839728 
L 462.138401 65.585866 
L 462.773285 60.020161 
L 463.40817 56.818261 
L 464.677939 61.159104 
L 465.312824 60.385463 
L 465.947708 56.581865 
L 466.582593 56.904181 
L 467.217477 56.195045 
L 467.852362 60.492901 
L 468.487246 61.137585 
L 469.122131 54.991649 
L 469.757015 57.140577 
L 470.3919 58.859751 
L 471.026784 57.333988 
L 471.661669 63.651815 
L 472.296553 56.517412 
L 472.931438 61.094599 
L 473.566322 60.041628 
L 474.201207 57.140577 
L 474.836091 57.634837 
L 475.470976 60.664844 
L 476.10586 58.709275 
L 476.740745 57.462945 
L 477.375629 57.398441 
L 478.010514 55.614865 
L 478.645398 60.578873 
L 479.280283 59.740779 
L 479.915167 62.44842 
L 480.550052 66.273535 
L 481.184936 58.795247 
L 481.819821 60.965693 
L 482.454705 57.656304 
L 483.08959 55.421455 
L 483.724474 57.333988 
L 484.359359 60.063147 
L 484.994244 55.013116 
L 485.629128 57.978671 
L 486.264013 58.666341 
L 487.533782 59.590355 
L 488.168666 58.580369 
L 488.803551 58.322506 
L 489.438435 57.785261 
L 490.07332 57.548865 
L 490.708204 56.603333 
L 491.343089 56.173578 
L 491.977973 56.560347 
L 492.612858 61.524405 
L 493.247742 57.20503 
L 493.882627 54.970182 
L 494.517511 57.419959 
L 495.152396 58.795247 
L 495.78728 55.056102 
L 496.422165 59.955657 
L 497.057049 55.786757 
L 497.691934 60.879722 
L 498.326818 56.861196 
L 499.596587 57.462945 
L 500.866356 56.345469 
L 501.501241 59.203534 
L 502.77101 54.561843 
L 503.405894 52.778268 
L 504.040779 57.785261 
L 504.675663 57.355455 
L 505.310548 57.398441 
L 505.945433 56.152059 
L 506.580317 61.28801 
L 507.215202 57.806728 
L 507.850086 56.73229 
L 508.484971 57.591851 
L 509.119855 56.990153 
L 509.75474 55.249512 
L 510.389624 57.31252 
L 511.024509 55.786757 
L 511.659393 58.08611 
L 512.294278 58.107577 
L 512.929162 62.190556 
L 513.564047 55.464441 
L 514.198931 57.333988 
L 514.833816 58.258002 
L 515.4687 57.634837 
L 516.103585 57.69929 
L 516.738469 56.452908 
L 517.373354 57.978671 
L 518.008238 61.545873 
L 518.643123 54.196541 
L 519.278007 54.454404 
L 519.912892 57.484412 
L 520.547776 53.938678 
L 521.182661 58.945671 
L 521.817545 58.258002 
L 522.45243 61.330995 
L 523.087314 62.276528 
L 523.722199 58.064643 
L 524.357083 55.077621 
L 524.991968 56.775275 
L 525.626852 54.432937 
L 526.261737 58.236534 
L 526.896621 54.755253 
L 527.531506 57.484412 
L 528.166391 58.47293 
L 529.43616 54.669333 
L 530.071044 60.385463 
L 530.705929 57.570384 
L 531.340813 56.409922 
L 532.610582 58.300987 
L 533.245467 52.799735 
L 533.880351 57.269535 
L 534.515236 54.862692 
L 535.15012 56.302484 
L 535.785005 59.805232 
L 536.419889 57.355455 
L 537.054774 54.389951 
L 537.689658 56.04462 
L 538.324543 55.421455 
L 538.959427 55.636333 
L 539.594312 56.753757 
L 540.229196 57.20503 
L 540.864081 60.621859 
L 541.498965 55.442923 
L 542.13385 56.409922 
L 542.768734 59.783765 
L 543.403619 54.604829 
L 544.038503 58.408426 
L 544.673388 53.831239 
L 545.308272 56.087606 
L 545.943157 57.31252 
L 546.578041 55.808224 
L 547.212926 57.376973 
L 547.84781 57.935686 
L 548.482695 61.803736 
L 549.11758 58.47293 
L 549.752464 61.739283 
L 550.387349 56.109073 
L 551.022233 54.432937 
L 551.657118 57.806728 
L 552.292002 57.548865 
L 552.926887 58.838232 
L 553.561771 55.6578 
L 554.196656 57.914218 
L 554.83154 56.775275 
L 555.466425 58.795247 
L 556.101309 55.958649 
L 556.736194 58.365492 
L 557.371078 56.968686 
L 558.005963 58.000138 
L 558.640847 54.626347 
L 559.275732 60.020161 
L 559.910616 56.560347 
L 560.545501 55.142074 
L 561.180385 57.720808 
L 562.450154 56.689304 
L 563.085039 58.236534 
L 564.354808 59.139081 
L 564.989692 58.258002 
L 565.624577 60.1276 
L 566.894346 52.756749 
L 567.52923 59.268038 
L 568.164115 56.474427 
L 568.798999 56.216563 
L 569.433884 56.689304 
L 570.068768 57.634837 
L 570.703653 54.841225 
L 571.338538 53.766786 
L 571.973422 56.882714 
L 572.608307 58.150563 
L 573.243191 57.419959 
L 573.878076 55.915714 
L 574.51296 59.203534 
L 575.147845 58.429945 
L 575.782729 54.927196 
L 576.417614 57.8927 
L 576.417614 57.8927 
" clip-path="url(#p1cd2abddf9)" style="fill: none; stroke: #ff7f0e; stroke-width: 1.5; stroke-linecap: square"/>
   </g>
   <g id="line2d_35">
    <path d="M 43.78125 551.518125 
L 601.78125 551.518125 
" clip-path="url(#p1cd2abddf9)" style="fill: none; stroke-dasharray: 11.1,4.8; stroke-dashoffset: 0; stroke: #ff0000; stroke-width: 3"/>
   </g>
   <g id="patch_3">
    <path d="M 43.78125 576.718125 
L 43.78125 22.318125 
" style="fill: none; stroke: #000000; stroke-width: 0.8; stroke-linejoin: miter; stroke-linecap: square"/>
   </g>
   <g id="patch_4">
    <path d="M 601.78125 576.718125 
L 601.78125 22.318125 
" style="fill: none; stroke: #000000; stroke-width: 0.8; stroke-linejoin: miter; stroke-linecap: square"/>
   </g>
   <g id="patch_5">
    <path d="M 43.78125 576.718125 
L 601.78125 576.718125 
" style="fill: none; stroke: #000000; stroke-width: 0.8; stroke-linejoin: miter; stroke-linecap: square"/>
   </g>
   <g id="patch_6">
    <path d="M 43.78125 22.318125 
L 601.78125 22.318125 
" style="fill: none; stroke: #000000; stroke-width: 0.8; stroke-linejoin: miter; stroke-linecap: square"/>
   </g>
   <g id="text_19">
    <!-- Train and Val Accuracy -->
    <g transform="translate(255.002813 16.318125) scale(0.12 -0.12)">
     <defs>
      <path id="DejaVuSans-54" d="M -19 4666 
L 3928 4666 
L 3928 4134 
L 2272 4134 
L 2272 0 
L 1638 0 
L 1638 4134 
L -19 4134 
L -19 4666 
z
" transform="scale(0.015625)"/>
      <path id="DejaVuSans-69" d="M 603 3500 
L 1178 3500 
L 1178 0 
L 603 0 
L 603 3500 
z
M 603 4863 
L 1178 4863 
L 1178 4134 
L 603 4134 
L 603 4863 
z
" transform="scale(0.015625)"/>
      <path id="DejaVuSans-6e" d="M 3513 2113 
L 3513 0 
L 2938 0 
L 2938 2094 
Q 2938 2591 2744 2837 
Q 2550 3084 2163 3084 
Q 1697 3084 1428 2787 
Q 1159 2491 1159 1978 
L 1159 0 
L 581 0 
L 581 3500 
L 1159 3500 
L 1159 2956 
Q 1366 3272 1645 3428 
Q 1925 3584 2291 3584 
Q 2894 3584 3203 3211 
Q 3513 2838 3513 2113 
z
" transform="scale(0.015625)"/>
      <path id="DejaVuSans-20" transform="scale(0.015625)"/>
      <path id="DejaVuSans-64" d="M 2906 2969 
L 2906 4863 
L 3481 4863 
L 3481 0 
L 2906 0 
L 2906 525 
Q 2725 213 2448 61 
Q 2172 -91 1784 -91 
Q 1150 -91 751 415 
Q 353 922 353 1747 
Q 353 2572 751 3078 
Q 1150 3584 1784 3584 
Q 2172 3584 2448 3432 
Q 2725 3281 2906 2969 
z
M 947 1747 
Q 947 1113 1208 752 
Q 1469 391 1925 391 
Q 2381 391 2643 752 
Q 2906 1113 2906 1747 
Q 2906 2381 2643 2742 
Q 2381 3103 1925 3103 
Q 1469 3103 1208 2742 
Q 947 2381 947 1747 
z
" transform="scale(0.015625)"/>
      <path id="DejaVuSans-56" d="M 1831 0 
L 50 4666 
L 709 4666 
L 2188 738 
L 3669 4666 
L 4325 4666 
L 2547 0 
L 1831 0 
z
" transform="scale(0.015625)"/>
      <path id="DejaVuSans-6c" d="M 603 4863 
L 1178 4863 
L 1178 0 
L 603 0 
L 603 4863 
z
" transform="scale(0.015625)"/>
     </defs>
     <use xlink:href="#DejaVuSans-54"/>
     <use xlink:href="#DejaVuSans-72" transform="translate(46.333984 0)"/>
     <use xlink:href="#DejaVuSans-61" transform="translate(87.447266 0)"/>
     <use xlink:href="#DejaVuSans-69" transform="translate(148.726562 0)"/>
     <use xlink:href="#DejaVuSans-6e" transform="translate(176.509766 0)"/>
     <use xlink:href="#DejaVuSans-20" transform="translate(239.888672 0)"/>
     <use xlink:href="#DejaVuSans-61" transform="translate(271.675781 0)"/>
     <use xlink:href="#DejaVuSans-6e" transform="translate(332.955078 0)"/>
     <use xlink:href="#DejaVuSans-64" transform="translate(396.333984 0)"/>
     <use xlink:href="#DejaVuSans-20" transform="translate(459.810547 0)"/>
     <use xlink:href="#DejaVuSans-56" transform="translate(491.597656 0)"/>
     <use xlink:href="#DejaVuSans-61" transform="translate(552.255859 0)"/>
     <use xlink:href="#DejaVuSans-6c" transform="translate(613.535156 0)"/>
     <use xlink:href="#DejaVuSans-20" transform="translate(641.318359 0)"/>
     <use xlink:href="#DejaVuSans-41" transform="translate(673.105469 0)"/>
     <use xlink:href="#DejaVuSans-63" transform="translate(739.763672 0)"/>
     <use xlink:href="#DejaVuSans-63" transform="translate(794.744141 0)"/>
     <use xlink:href="#DejaVuSans-75" transform="translate(849.724609 0)"/>
     <use xlink:href="#DejaVuSans-72" transform="translate(913.103516 0)"/>
     <use xlink:href="#DejaVuSans-61" transform="translate(954.216797 0)"/>
     <use xlink:href="#DejaVuSans-63" transform="translate(1015.496094 0)"/>
     <use xlink:href="#DejaVuSans-79" transform="translate(1070.476562 0)"/>
    </g>
   </g>
   <g id="legend_1">
    <g id="patch_7">
     <path d="M 427.657812 323.313438 
L 594.78125 323.313438 
Q 596.78125 323.313438 596.78125 321.313438 
L 596.78125 277.722813 
Q 596.78125 275.722813 594.78125 275.722813 
L 427.657812 275.722813 
Q 425.657812 275.722813 425.657812 277.722813 
L 425.657812 321.313438 
Q 425.657812 323.313438 427.657812 323.313438 
z
" style="fill: #ffffff; opacity: 0.8; stroke: #cccccc; stroke-linejoin: miter"/>
    </g>
    <g id="line2d_36">
     <path d="M 429.657812 283.82125 
L 439.657812 283.82125 
L 449.657812 283.82125 
" style="fill: none; stroke: #1f77b4; stroke-width: 1.5; stroke-linecap: square"/>
    </g>
    <g id="text_20">
     <!-- train_accuracy -->
     <g transform="translate(457.657812 287.32125) scale(0.1 -0.1)">
      <defs>
       <path id="DejaVuSans-74" d="M 1172 4494 
L 1172 3500 
L 2356 3500 
L 2356 3053 
L 1172 3053 
L 1172 1153 
Q 1172 725 1289 603 
Q 1406 481 1766 481 
L 2356 481 
L 2356 0 
L 1766 0 
Q 1100 0 847 248 
Q 594 497 594 1153 
L 594 3053 
L 172 3053 
L 172 3500 
L 594 3500 
L 594 4494 
L 1172 4494 
z
" transform="scale(0.015625)"/>
       <path id="DejaVuSans-5f" d="M 3263 -1063 
L 3263 -1509 
L -63 -1509 
L -63 -1063 
L 3263 -1063 
z
" transform="scale(0.015625)"/>
      </defs>
      <use xlink:href="#DejaVuSans-74"/>
      <use xlink:href="#DejaVuSans-72" transform="translate(39.208984 0)"/>
      <use xlink:href="#DejaVuSans-61" transform="translate(80.322266 0)"/>
      <use xlink:href="#DejaVuSans-69" transform="translate(141.601562 0)"/>
      <use xlink:href="#DejaVuSans-6e" transform="translate(169.384766 0)"/>
      <use xlink:href="#DejaVuSans-5f" transform="translate(232.763672 0)"/>
      <use xlink:href="#DejaVuSans-61" transform="translate(282.763672 0)"/>
      <use xlink:href="#DejaVuSans-63" transform="translate(344.042969 0)"/>
      <use xlink:href="#DejaVuSans-63" transform="translate(399.023438 0)"/>
      <use xlink:href="#DejaVuSans-75" transform="translate(454.003906 0)"/>
      <use xlink:href="#DejaVuSans-72" transform="translate(517.382812 0)"/>
      <use xlink:href="#DejaVuSans-61" transform="translate(558.496094 0)"/>
      <use xlink:href="#DejaVuSans-63" transform="translate(619.775391 0)"/>
      <use xlink:href="#DejaVuSans-79" transform="translate(674.755859 0)"/>
     </g>
    </g>
    <g id="line2d_37">
     <path d="M 429.657812 298.7775 
L 439.657812 298.7775 
L 449.657812 298.7775 
" style="fill: none; stroke: #ff7f0e; stroke-width: 1.5; stroke-linecap: square"/>
    </g>
    <g id="text_21">
     <!-- val_accuracy -->
     <g transform="translate(457.657812 302.2775) scale(0.1 -0.1)">
      <defs>
       <path id="DejaVuSans-76" d="M 191 3500 
L 800 3500 
L 1894 563 
L 2988 3500 
L 3597 3500 
L 2284 0 
L 1503 0 
L 191 3500 
z
" transform="scale(0.015625)"/>
      </defs>
      <use xlink:href="#DejaVuSans-76"/>
      <use xlink:href="#DejaVuSans-61" transform="translate(59.179688 0)"/>
      <use xlink:href="#DejaVuSans-6c" transform="translate(120.458984 0)"/>
      <use xlink:href="#DejaVuSans-5f" transform="translate(148.242188 0)"/>
      <use xlink:href="#DejaVuSans-61" transform="translate(198.242188 0)"/>
      <use xlink:href="#DejaVuSans-63" transform="translate(259.521484 0)"/>
      <use xlink:href="#DejaVuSans-63" transform="translate(314.501953 0)"/>
      <use xlink:href="#DejaVuSans-75" transform="translate(369.482422 0)"/>
      <use xlink:href="#DejaVuSans-72" transform="translate(432.861328 0)"/>
      <use xlink:href="#DejaVuSans-61" transform="translate(473.974609 0)"/>
      <use xlink:href="#DejaVuSans-63" transform="translate(535.253906 0)"/>
      <use xlink:href="#DejaVuSans-79" transform="translate(590.234375 0)"/>
     </g>
    </g>
    <g id="line2d_38">
     <path d="M 429.657812 313.73375 
L 439.657812 313.73375 
L 449.657812 313.73375 
" style="fill: none; stroke-dasharray: 11.1,4.8; stroke-dashoffset: 0; stroke: #ff0000; stroke-width: 3"/>
    </g>
    <g id="text_22">
     <!-- Random-Guesser Accuracy -->
     <g transform="translate(457.657812 317.23375) scale(0.1 -0.1)">
      <defs>
       <path id="DejaVuSans-52" d="M 2841 2188 
Q 3044 2119 3236 1894 
Q 3428 1669 3622 1275 
L 4263 0 
L 3584 0 
L 2988 1197 
Q 2756 1666 2539 1819 
Q 2322 1972 1947 1972 
L 1259 1972 
L 1259 0 
L 628 0 
L 628 4666 
L 2053 4666 
Q 2853 4666 3247 4331 
Q 3641 3997 3641 3322 
Q 3641 2881 3436 2590 
Q 3231 2300 2841 2188 
z
M 1259 4147 
L 1259 2491 
L 2053 2491 
Q 2509 2491 2742 2702 
Q 2975 2913 2975 3322 
Q 2975 3731 2742 3939 
Q 2509 4147 2053 4147 
L 1259 4147 
z
" transform="scale(0.015625)"/>
       <path id="DejaVuSans-6d" d="M 3328 2828 
Q 3544 3216 3844 3400 
Q 4144 3584 4550 3584 
Q 5097 3584 5394 3201 
Q 5691 2819 5691 2113 
L 5691 0 
L 5113 0 
L 5113 2094 
Q 5113 2597 4934 2840 
Q 4756 3084 4391 3084 
Q 3944 3084 3684 2787 
Q 3425 2491 3425 1978 
L 3425 0 
L 2847 0 
L 2847 2094 
Q 2847 2600 2669 2842 
Q 2491 3084 2119 3084 
Q 1678 3084 1418 2786 
Q 1159 2488 1159 1978 
L 1159 0 
L 581 0 
L 581 3500 
L 1159 3500 
L 1159 2956 
Q 1356 3278 1631 3431 
Q 1906 3584 2284 3584 
Q 2666 3584 2933 3390 
Q 3200 3197 3328 2828 
z
" transform="scale(0.015625)"/>
       <path id="DejaVuSans-2d" d="M 313 2009 
L 1997 2009 
L 1997 1497 
L 313 1497 
L 313 2009 
z
" transform="scale(0.015625)"/>
       <path id="DejaVuSans-47" d="M 3809 666 
L 3809 1919 
L 2778 1919 
L 2778 2438 
L 4434 2438 
L 4434 434 
Q 4069 175 3628 42 
Q 3188 -91 2688 -91 
Q 1594 -91 976 548 
Q 359 1188 359 2328 
Q 359 3472 976 4111 
Q 1594 4750 2688 4750 
Q 3144 4750 3555 4637 
Q 3966 4525 4313 4306 
L 4313 3634 
Q 3963 3931 3569 4081 
Q 3175 4231 2741 4231 
Q 1884 4231 1454 3753 
Q 1025 3275 1025 2328 
Q 1025 1384 1454 906 
Q 1884 428 2741 428 
Q 3075 428 3337 486 
Q 3600 544 3809 666 
z
" transform="scale(0.015625)"/>
       <path id="DejaVuSans-65" d="M 3597 1894 
L 3597 1613 
L 953 1613 
Q 991 1019 1311 708 
Q 1631 397 2203 397 
Q 2534 397 2845 478 
Q 3156 559 3463 722 
L 3463 178 
Q 3153 47 2828 -22 
Q 2503 -91 2169 -91 
Q 1331 -91 842 396 
Q 353 884 353 1716 
Q 353 2575 817 3079 
Q 1281 3584 2069 3584 
Q 2775 3584 3186 3129 
Q 3597 2675 3597 1894 
z
M 3022 2063 
Q 3016 2534 2758 2815 
Q 2500 3097 2075 3097 
Q 1594 3097 1305 2825 
Q 1016 2553 972 2059 
L 3022 2063 
z
" transform="scale(0.015625)"/>
      </defs>
      <use xlink:href="#DejaVuSans-52"/>
      <use xlink:href="#DejaVuSans-61" transform="translate(67.232422 0)"/>
      <use xlink:href="#DejaVuSans-6e" transform="translate(128.511719 0)"/>
      <use xlink:href="#DejaVuSans-64" transform="translate(191.890625 0)"/>
      <use xlink:href="#DejaVuSans-6f" transform="translate(255.367188 0)"/>
      <use xlink:href="#DejaVuSans-6d" transform="translate(316.548828 0)"/>
      <use xlink:href="#DejaVuSans-2d" transform="translate(413.960938 0)"/>
      <use xlink:href="#DejaVuSans-47" transform="translate(453.669922 0)"/>
      <use xlink:href="#DejaVuSans-75" transform="translate(531.160156 0)"/>
      <use xlink:href="#DejaVuSans-65" transform="translate(594.539062 0)"/>
      <use xlink:href="#DejaVuSans-73" transform="translate(656.0625 0)"/>
      <use xlink:href="#DejaVuSans-73" transform="translate(708.162109 0)"/>
      <use xlink:href="#DejaVuSans-65" transform="translate(760.261719 0)"/>
      <use xlink:href="#DejaVuSans-72" transform="translate(821.785156 0)"/>
      <use xlink:href="#DejaVuSans-20" transform="translate(862.898438 0)"/>
      <use xlink:href="#DejaVuSans-41" transform="translate(894.685547 0)"/>
      <use xlink:href="#DejaVuSans-63" transform="translate(961.34375 0)"/>
      <use xlink:href="#DejaVuSans-63" transform="translate(1016.324219 0)"/>
      <use xlink:href="#DejaVuSans-75" transform="translate(1071.304688 0)"/>
      <use xlink:href="#DejaVuSans-72" transform="translate(1134.683594 0)"/>
      <use xlink:href="#DejaVuSans-61" transform="translate(1175.796875 0)"/>
      <use xlink:href="#DejaVuSans-63" transform="translate(1237.076172 0)"/>
      <use xlink:href="#DejaVuSans-79" transform="translate(1292.056641 0)"/>
     </g>
    </g>
   </g>
  </g>
 </g>
 <defs>
  <clipPath id="p1cd2abddf9">
   <rect x="43.78125" y="22.318125" width="558" height="554.4"/>
  </clipPath>
 </defs>
</svg>
