<?xml version="1.0" encoding="utf-8" standalone="no"?>
<!DOCTYPE svg PUBLIC "-//W3C//DTD SVG 1.1//EN"
  "http://www.w3.org/Graphics/SVG/1.1/DTD/svg11.dtd">
<svg xmlns:xlink="http://www.w3.org/1999/xlink" width="621.70625pt" height="614.274375pt" viewBox="0 0 621.70625 614.274375" xmlns="http://www.w3.org/2000/svg" version="1.1">
 <metadata>
  <rdf:RDF xmlns:dc="http://purl.org/dc/elements/1.1/" xmlns:cc="http://creativecommons.org/ns#" xmlns:rdf="http://www.w3.org/1999/02/22-rdf-syntax-ns#">
   <cc:Work>
    <dc:type rdf:resource="http://purl.org/dc/dcmitype/StillImage"/>
    <dc:date>2026-05-30T23:14:18.979625</dc:date>
    <dc:format>image/svg+xml</dc:format>
    <dc:creator>
     <cc:Agent>
      <dc:title>Matplotlib v3.10.9, https://matplotlib.org/</dc:title>
     </cc:Agent>
    </dc:creator>
   </cc:Work>
  </rdf:RDF>
 </metadata>
 <defs>
  <style type="text/css">*{stroke-linejoin: round; stroke-linecap: butt}</style>
 </defs>
 <g id="figure_1">
  <g id="patch_1">
   <path d="M 0 614.274375 
L 621.70625 614.274375 
L 621.70625 0 
L 0 0 
z
" style="fill: #ffffff"/>
  </g>
  <g id="axes_1">
   <g id="patch_2">
    <path d="M 56.50625 576.718125 
L 614.50625 576.718125 
L 614.50625 22.318125 
L 56.50625 22.318125 
z
" style="fill: #ffffff"/>
   </g>
   <g id="matplotlib.axis_1">
    <g id="xtick_1">
     <g id="line2d_1">
      <path d="M 81.869886 576.718125 
L 81.869886 22.318125 
" clip-path="url(#p8b6e5d6e0b)" style="fill: none; stroke: #b0b0b0; stroke-width: 0.8; stroke-linecap: square"/>
     </g>
     <g id="line2d_2">
      <defs>
       <path id="madaccf4a0c" d="M 0 0 
L 0 3.5 
" style="stroke: #000000; stroke-width: 0.8"/>
      </defs>
      <g>
       <use xlink:href="#madaccf4a0c" x="81.869886" y="576.718125" style="stroke: #000000; stroke-width: 0.8"/>
      </g>
     </g>
     <g id="text_1">
      <!-- 0 -->
      <g transform="translate(78.688636 591.316563) scale(0.1 -0.1)">
       <defs>
        <path id="DejaVuSans-30" d="M 2034 4250 
Q 1547 4250 1301 3770 
Q 1056 3291 1056 2328 
Q 1056 1369 1301 889 
Q 1547 409 2034 409 
Q 2525 409 2770 889 
Q 3016 1369 3016 2328 
Q 3016 3291 2770 3770 
Q 2525 4250 2034 4250 
z
M 2034 4750 
Q 2819 4750 3233 4129 
Q 3647 3509 3647 2328 
Q 3647 1150 3233 529 
Q 2819 -91 2034 -91 
Q 1250 -91 836 529 
Q 422 1150 422 2328 
Q 422 3509 836 4129 
Q 1250 4750 2034 4750 
z
" transform="scale(0.015625)"/>
       </defs>
       <use xlink:href="#DejaVuSans-30"/>
      </g>
     </g>
    </g>
    <g id="xtick_2">
     <g id="line2d_3">
      <path d="M 145.358338 576.718125 
L 145.358338 22.318125 
" clip-path="url(#p8b6e5d6e0b)" style="fill: none; stroke: #b0b0b0; stroke-width: 0.8; stroke-linecap: square"/>
     </g>
     <g id="line2d_4">
      <g>
       <use xlink:href="#madaccf4a0c" x="145.358338" y="576.718125" style="stroke: #000000; stroke-width: 0.8"/>
      </g>
     </g>
     <g id="text_2">
      <!-- 100 -->
      <g transform="translate(135.814588 591.316563) scale(0.1 -0.1)">
       <defs>
        <path id="DejaVuSans-31" d="M 794 531 
L 1825 531 
L 1825 4091 
L 703 3866 
L 703 4441 
L 1819 4666 
L 2450 4666 
L 2450 531 
L 3481 531 
L 3481 0 
L 794 0 
L 794 531 
z
" transform="scale(0.015625)"/>
       </defs>
       <use xlink:href="#DejaVuSans-31"/>
       <use xlink:href="#DejaVuSans-30" transform="translate(63.623047 0)"/>
       <use xlink:href="#DejaVuSans-30" transform="translate(127.246094 0)"/>
      </g>
     </g>
    </g>
    <g id="xtick_3">
     <g id="line2d_5">
      <path d="M 208.846789 576.718125 
L 208.846789 22.318125 
" clip-path="url(#p8b6e5d6e0b)" style="fill: none; stroke: #b0b0b0; stroke-width: 0.8; stroke-linecap: square"/>
     </g>
     <g id="line2d_6">
      <g>
       <use xlink:href="#madaccf4a0c" x="208.846789" y="576.718125" style="stroke: #000000; stroke-width: 0.8"/>
      </g>
     </g>
     <g id="text_3">
      <!-- 200 -->
      <g transform="translate(199.303039 591.316563) scale(0.1 -0.1)">
       <defs>
        <path id="DejaVuSans-32" d="M 1228 531 
L 3431 531 
L 3431 0 
L 469 0 
L 469 531 
Q 828 903 1448 1529 
Q 2069 2156 2228 2338 
Q 2531 2678 2651 2914 
Q 2772 3150 2772 3378 
Q 2772 3750 2511 3984 
Q 2250 4219 1831 4219 
Q 1534 4219 1204 4116 
Q 875 4013 500 3803 
L 500 4441 
Q 881 4594 1212 4672 
Q 1544 4750 1819 4750 
Q 2544 4750 2975 4387 
Q 3406 4025 3406 3419 
Q 3406 3131 3298 2873 
Q 3191 2616 2906 2266 
Q 2828 2175 2409 1742 
Q 1991 1309 1228 531 
z
" transform="scale(0.015625)"/>
       </defs>
       <use xlink:href="#DejaVuSans-32"/>
       <use xlink:href="#DejaVuSans-30" transform="translate(63.623047 0)"/>
       <use xlink:href="#DejaVuSans-30" transform="translate(127.246094 0)"/>
      </g>
     </g>
    </g>
    <g id="xtick_4">
     <g id="line2d_7">
      <path d="M 272.335241 576.718125 
L 272.335241 22.318125 
" clip-path="url(#p8b6e5d6e0b)" style="fill: none; stroke: #b0b0b0; stroke-width: 0.8; stroke-linecap: square"/>
     </g>
     <g id="line2d_8">
      <g>
       <use xlink:href="#madaccf4a0c" x="272.335241" y="576.718125" style="stroke: #000000; stroke-width: 0.8"/>
      </g>
     </g>
     <g id="text_4">
      <!-- 300 -->
      <g transform="translate(262.791491 591.316563) scale(0.1 -0.1)">
       <defs>
        <path id="DejaVuSans-33" d="M 2597 2516 
Q 3050 2419 3304 2112 
Q 3559 1806 3559 1356 
Q 3559 666 3084 287 
Q 2609 -91 1734 -91 
Q 1441 -91 1130 -33 
Q 819 25 488 141 
L 488 750 
Q 750 597 1062 519 
Q 1375 441 1716 441 
Q 2309 441 2620 675 
Q 2931 909 2931 1356 
Q 2931 1769 2642 2001 
Q 2353 2234 1838 2234 
L 1294 2234 
L 1294 2753 
L 1863 2753 
Q 2328 2753 2575 2939 
Q 2822 3125 2822 3475 
Q 2822 3834 2567 4026 
Q 2313 4219 1838 4219 
Q 1578 4219 1281 4162 
Q 984 4106 628 3988 
L 628 4550 
Q 988 4650 1302 4700 
Q 1616 4750 1894 4750 
Q 2613 4750 3031 4423 
Q 3450 4097 3450 3541 
Q 3450 3153 3228 2886 
Q 3006 2619 2597 2516 
z
" transform="scale(0.015625)"/>
       </defs>
       <use xlink:href="#DejaVuSans-33"/>
       <use xlink:href="#DejaVuSans-30" transform="translate(63.623047 0)"/>
       <use xlink:href="#DejaVuSans-30" transform="translate(127.246094 0)"/>
      </g>
     </g>
    </g>
    <g id="xtick_5">
     <g id="line2d_9">
      <path d="M 335.823692 576.718125 
L 335.823692 22.318125 
" clip-path="url(#p8b6e5d6e0b)" style="fill: none; stroke: #b0b0b0; stroke-width: 0.8; stroke-linecap: square"/>
     </g>
     <g id="line2d_10">
      <g>
       <use xlink:href="#madaccf4a0c" x="335.823692" y="576.718125" style="stroke: #000000; stroke-width: 0.8"/>
      </g>
     </g>
     <g id="text_5">
      <!-- 400 -->
      <g transform="translate(326.279942 591.316563) scale(0.1 -0.1)">
       <defs>
        <path id="DejaVuSans-34" d="M 2419 4116 
L 825 1625 
L 2419 1625 
L 2419 4116 
z
M 2253 4666 
L 3047 4666 
L 3047 1625 
L 3713 1625 
L 3713 1100 
L 3047 1100 
L 3047 0 
L 2419 0 
L 2419 1100 
L 313 1100 
L 313 1709 
L 2253 4666 
z
" transform="scale(0.015625)"/>
       </defs>
       <use xlink:href="#DejaVuSans-34"/>
       <use xlink:href="#DejaVuSans-30" transform="translate(63.623047 0)"/>
       <use xlink:href="#DejaVuSans-30" transform="translate(127.246094 0)"/>
      </g>
     </g>
    </g>
    <g id="xtick_6">
     <g id="line2d_11">
      <path d="M 399.312144 576.718125 
L 399.312144 22.318125 
" clip-path="url(#p8b6e5d6e0b)" style="fill: none; stroke: #b0b0b0; stroke-width: 0.8; stroke-linecap: square"/>
     </g>
     <g id="line2d_12">
      <g>
       <use xlink:href="#madaccf4a0c" x="399.312144" y="576.718125" style="stroke: #000000; stroke-width: 0.8"/>
      </g>
     </g>
     <g id="text_6">
      <!-- 500 -->
      <g transform="translate(389.768394 591.316563) scale(0.1 -0.1)">
       <defs>
        <path id="DejaVuSans-35" d="M 691 4666 
L 3169 4666 
L 3169 4134 
L 1269 4134 
L 1269 2991 
Q 1406 3038 1543 3061 
Q 1681 3084 1819 3084 
Q 2600 3084 3056 2656 
Q 3513 2228 3513 1497 
Q 3513 744 3044 326 
Q 2575 -91 1722 -91 
Q 1428 -91 1123 -41 
Q 819 9 494 109 
L 494 744 
Q 775 591 1075 516 
Q 1375 441 1709 441 
Q 2250 441 2565 725 
Q 2881 1009 2881 1497 
Q 2881 1984 2565 2268 
Q 2250 2553 1709 2553 
Q 1456 2553 1204 2497 
Q 953 2441 691 2322 
L 691 4666 
z
" transform="scale(0.015625)"/>
       </defs>
       <use xlink:href="#DejaVuSans-35"/>
       <use xlink:href="#DejaVuSans-30" transform="translate(63.623047 0)"/>
       <use xlink:href="#DejaVuSans-30" transform="translate(127.246094 0)"/>
      </g>
     </g>
    </g>
    <g id="xtick_7">
     <g id="line2d_13">
      <path d="M 462.800595 576.718125 
L 462.800595 22.318125 
" clip-path="url(#p8b6e5d6e0b)" style="fill: none; stroke: #b0b0b0; stroke-width: 0.8; stroke-linecap: square"/>
     </g>
     <g id="line2d_14">
      <g>
       <use xlink:href="#madaccf4a0c" x="462.800595" y="576.718125" style="stroke: #000000; stroke-width: 0.8"/>
      </g>
     </g>
     <g id="text_7">
      <!-- 600 -->
      <g transform="translate(453.256845 591.316563) scale(0.1 -0.1)">
       <defs>
        <path id="DejaVuSans-36" d="M 2113 2584 
Q 1688 2584 1439 2293 
Q 1191 2003 1191 1497 
Q 1191 994 1439 701 
Q 1688 409 2113 409 
Q 2538 409 2786 701 
Q 3034 994 3034 1497 
Q 3034 2003 2786 2293 
Q 2538 2584 2113 2584 
z
M 3366 4563 
L 3366 3988 
Q 3128 4100 2886 4159 
Q 2644 4219 2406 4219 
Q 1781 4219 1451 3797 
Q 1122 3375 1075 2522 
Q 1259 2794 1537 2939 
Q 1816 3084 2150 3084 
Q 2853 3084 3261 2657 
Q 3669 2231 3669 1497 
Q 3669 778 3244 343 
Q 2819 -91 2113 -91 
Q 1303 -91 875 529 
Q 447 1150 447 2328 
Q 447 3434 972 4092 
Q 1497 4750 2381 4750 
Q 2619 4750 2861 4703 
Q 3103 4656 3366 4563 
z
" transform="scale(0.015625)"/>
       </defs>
       <use xlink:href="#DejaVuSans-36"/>
       <use xlink:href="#DejaVuSans-30" transform="translate(63.623047 0)"/>
       <use xlink:href="#DejaVuSans-30" transform="translate(127.246094 0)"/>
      </g>
     </g>
    </g>
    <g id="xtick_8">
     <g id="line2d_15">
      <path d="M 526.289047 576.718125 
L 526.289047 22.318125 
" clip-path="url(#p8b6e5d6e0b)" style="fill: none; stroke: #b0b0b0; stroke-width: 0.8; stroke-linecap: square"/>
     </g>
     <g id="line2d_16">
      <g>
       <use xlink:href="#madaccf4a0c" x="526.289047" y="576.718125" style="stroke: #000000; stroke-width: 0.8"/>
      </g>
     </g>
     <g id="text_8">
      <!-- 700 -->
      <g transform="translate(516.745297 591.316563) scale(0.1 -0.1)">
       <defs>
        <path id="DejaVuSans-37" d="M 525 4666 
L 3525 4666 
L 3525 4397 
L 1831 0 
L 1172 0 
L 2766 4134 
L 525 4134 
L 525 4666 
z
" transform="scale(0.015625)"/>
       </defs>
       <use xlink:href="#DejaVuSans-37"/>
       <use xlink:href="#DejaVuSans-30" transform="translate(63.623047 0)"/>
       <use xlink:href="#DejaVuSans-30" transform="translate(127.246094 0)"/>
      </g>
     </g>
    </g>
    <g id="xtick_9">
     <g id="line2d_17">
      <path d="M 589.777498 576.718125 
L 589.777498 22.318125 
" clip-path="url(#p8b6e5d6e0b)" style="fill: none; stroke: #b0b0b0; stroke-width: 0.8; stroke-linecap: square"/>
     </g>
     <g id="line2d_18">
      <g>
       <use xlink:href="#madaccf4a0c" x="589.777498" y="576.718125" style="stroke: #000000; stroke-width: 0.8"/>
      </g>
     </g>
     <g id="text_9">
      <!-- 800 -->
      <g transform="translate(580.233748 591.316563) scale(0.1 -0.1)">
       <defs>
        <path id="DejaVuSans-38" d="M 2034 2216 
Q 1584 2216 1326 1975 
Q 1069 1734 1069 1313 
Q 1069 891 1326 650 
Q 1584 409 2034 409 
Q 2484 409 2743 651 
Q 3003 894 3003 1313 
Q 3003 1734 2745 1975 
Q 2488 2216 2034 2216 
z
M 1403 2484 
Q 997 2584 770 2862 
Q 544 3141 544 3541 
Q 544 4100 942 4425 
Q 1341 4750 2034 4750 
Q 2731 4750 3128 4425 
Q 3525 4100 3525 3541 
Q 3525 3141 3298 2862 
Q 3072 2584 2669 2484 
Q 3125 2378 3379 2068 
Q 3634 1759 3634 1313 
Q 3634 634 3220 271 
Q 2806 -91 2034 -91 
Q 1263 -91 848 271 
Q 434 634 434 1313 
Q 434 1759 690 2068 
Q 947 2378 1403 2484 
z
M 1172 3481 
Q 1172 3119 1398 2916 
Q 1625 2713 2034 2713 
Q 2441 2713 2670 2916 
Q 2900 3119 2900 3481 
Q 2900 3844 2670 4047 
Q 2441 4250 2034 4250 
Q 1625 4250 1398 4047 
Q 1172 3844 1172 3481 
z
" transform="scale(0.015625)"/>
       </defs>
       <use xlink:href="#DejaVuSans-38"/>
       <use xlink:href="#DejaVuSans-30" transform="translate(63.623047 0)"/>
       <use xlink:href="#DejaVuSans-30" transform="translate(127.246094 0)"/>
      </g>
     </g>
    </g>
    <g id="text_10">
     <!-- Epochs -->
     <g transform="translate(317.590625 604.994688) scale(0.1 -0.1)">
      <defs>
       <path id="DejaVuSans-45" d="M 628 4666 
L 3578 4666 
L 3578 4134 
L 1259 4134 
L 1259 2753 
L 3481 2753 
L 3481 2222 
L 1259 2222 
L 1259 531 
L 3634 531 
L 3634 0 
L 628 0 
L 628 4666 
z
" transform="scale(0.015625)"/>
       <path id="DejaVuSans-70" d="M 1159 525 
L 1159 -1331 
L 581 -1331 
L 581 3500 
L 1159 3500 
L 1159 2969 
Q 1341 3281 1617 3432 
Q 1894 3584 2278 3584 
Q 2916 3584 3314 3078 
Q 3713 2572 3713 1747 
Q 3713 922 3314 415 
Q 2916 -91 2278 -91 
Q 1894 -91 1617 61 
Q 1341 213 1159 525 
z
M 3116 1747 
Q 3116 2381 2855 2742 
Q 2594 3103 2138 3103 
Q 1681 3103 1420 2742 
Q 1159 2381 1159 1747 
Q 1159 1113 1420 752 
Q 1681 391 2138 391 
Q 2594 391 2855 752 
Q 3116 1113 3116 1747 
z
" transform="scale(0.015625)"/>
       <path id="DejaVuSans-6f" d="M 1959 3097 
Q 1497 3097 1228 2736 
Q 959 2375 959 1747 
Q 959 1119 1226 758 
Q 1494 397 1959 397 
Q 2419 397 2687 759 
Q 2956 1122 2956 1747 
Q 2956 2369 2687 2733 
Q 2419 3097 1959 3097 
z
M 1959 3584 
Q 2709 3584 3137 3096 
Q 3566 2609 3566 1747 
Q 3566 888 3137 398 
Q 2709 -91 1959 -91 
Q 1206 -91 779 398 
Q 353 888 353 1747 
Q 353 2609 779 3096 
Q 1206 3584 1959 3584 
z
" transform="scale(0.015625)"/>
       <path id="DejaVuSans-63" d="M 3122 3366 
L 3122 2828 
Q 2878 2963 2633 3030 
Q 2388 3097 2138 3097 
Q 1578 3097 1268 2742 
Q 959 2388 959 1747 
Q 959 1106 1268 751 
Q 1578 397 2138 397 
Q 2388 397 2633 464 
Q 2878 531 3122 666 
L 3122 134 
Q 2881 22 2623 -34 
Q 2366 -91 2075 -91 
Q 1284 -91 818 406 
Q 353 903 353 1747 
Q 353 2603 823 3093 
Q 1294 3584 2113 3584 
Q 2378 3584 2631 3529 
Q 2884 3475 3122 3366 
z
" transform="scale(0.015625)"/>
       <path id="DejaVuSans-68" d="M 3513 2113 
L 3513 0 
L 2938 0 
L 2938 2094 
Q 2938 2591 2744 2837 
Q 2550 3084 2163 3084 
Q 1697 3084 1428 2787 
Q 1159 2491 1159 1978 
L 1159 0 
L 581 0 
L 581 4863 
L 1159 4863 
L 1159 2956 
Q 1366 3272 1645 3428 
Q 1925 3584 2291 3584 
Q 2894 3584 3203 3211 
Q 3513 2838 3513 2113 
z
" transform="scale(0.015625)"/>
       <path id="DejaVuSans-73" d="M 2834 3397 
L 2834 2853 
Q 2591 2978 2328 3040 
Q 2066 3103 1784 3103 
Q 1356 3103 1142 2972 
Q 928 2841 928 2578 
Q 928 2378 1081 2264 
Q 1234 2150 1697 2047 
L 1894 2003 
Q 2506 1872 2764 1633 
Q 3022 1394 3022 966 
Q 3022 478 2636 193 
Q 2250 -91 1575 -91 
Q 1294 -91 989 -36 
Q 684 19 347 128 
L 347 722 
Q 666 556 975 473 
Q 1284 391 1588 391 
Q 1994 391 2212 530 
Q 2431 669 2431 922 
Q 2431 1156 2273 1281 
Q 2116 1406 1581 1522 
L 1381 1569 
Q 847 1681 609 1914 
Q 372 2147 372 2553 
Q 372 3047 722 3315 
Q 1072 3584 1716 3584 
Q 2034 3584 2315 3537 
Q 2597 3491 2834 3397 
z
" transform="scale(0.015625)"/>
      </defs>
      <use xlink:href="#DejaVuSans-45"/>
      <use xlink:href="#DejaVuSans-70" transform="translate(63.183594 0)"/>
      <use xlink:href="#DejaVuSans-6f" transform="translate(126.660156 0)"/>
      <use xlink:href="#DejaVuSans-63" transform="translate(187.841797 0)"/>
      <use xlink:href="#DejaVuSans-68" transform="translate(242.822266 0)"/>
      <use xlink:href="#DejaVuSans-73" transform="translate(306.201172 0)"/>
     </g>
    </g>
   </g>
   <g id="matplotlib.axis_2">
    <g id="ytick_1">
     <g id="line2d_19">
      <path d="M 56.50625 567.256235 
L 614.50625 567.256235 
" clip-path="url(#p8b6e5d6e0b)" style="fill: none; stroke: #b0b0b0; stroke-width: 0.8; stroke-linecap: square"/>
     </g>
     <g id="line2d_20">
      <defs>
       <path id="m9dfde8b647" d="M 0 0 
L -3.5 0 
" style="stroke: #000000; stroke-width: 0.8"/>
      </defs>
      <g>
       <use xlink:href="#m9dfde8b647" x="56.50625" y="567.256235" style="stroke: #000000; stroke-width: 0.8"/>
      </g>
     </g>
     <g id="text_11">
      <!-- 0.000 -->
      <g transform="translate(20.878125 571.055454) scale(0.1 -0.1)">
       <defs>
        <path id="DejaVuSans-2e" d="M 684 794 
L 1344 794 
L 1344 0 
L 684 0 
L 684 794 
z
" transform="scale(0.015625)"/>
       </defs>
       <use xlink:href="#DejaVuSans-30"/>
       <use xlink:href="#DejaVuSans-2e" transform="translate(63.623047 0)"/>
       <use xlink:href="#DejaVuSans-30" transform="translate(95.410156 0)"/>
       <use xlink:href="#DejaVuSans-30" transform="translate(159.033203 0)"/>
       <use xlink:href="#DejaVuSans-30" transform="translate(222.65625 0)"/>
      </g>
     </g>
    </g>
    <g id="ytick_2">
     <g id="line2d_21">
      <path d="M 56.50625 494.394617 
L 614.50625 494.394617 
" clip-path="url(#p8b6e5d6e0b)" style="fill: none; stroke: #b0b0b0; stroke-width: 0.8; stroke-linecap: square"/>
     </g>
     <g id="line2d_22">
      <g>
       <use xlink:href="#m9dfde8b647" x="56.50625" y="494.394617" style="stroke: #000000; stroke-width: 0.8"/>
      </g>
     </g>
     <g id="text_12">
      <!-- 0.025 -->
      <g transform="translate(20.878125 498.193836) scale(0.1 -0.1)">
       <use xlink:href="#DejaVuSans-30"/>
       <use xlink:href="#DejaVuSans-2e" transform="translate(63.623047 0)"/>
       <use xlink:href="#DejaVuSans-30" transform="translate(95.410156 0)"/>
       <use xlink:href="#DejaVuSans-32" transform="translate(159.033203 0)"/>
       <use xlink:href="#DejaVuSans-35" transform="translate(222.65625 0)"/>
      </g>
     </g>
    </g>
    <g id="ytick_3">
     <g id="line2d_23">
      <path d="M 56.50625 421.533 
L 614.50625 421.533 
" clip-path="url(#p8b6e5d6e0b)" style="fill: none; stroke: #b0b0b0; stroke-width: 0.8; stroke-linecap: square"/>
     </g>
     <g id="line2d_24">
      <g>
       <use xlink:href="#m9dfde8b647" x="56.50625" y="421.533" style="stroke: #000000; stroke-width: 0.8"/>
      </g>
     </g>
     <g id="text_13">
      <!-- 0.050 -->
      <g transform="translate(20.878125 425.332218) scale(0.1 -0.1)">
       <use xlink:href="#DejaVuSans-30"/>
       <use xlink:href="#DejaVuSans-2e" transform="translate(63.623047 0)"/>
       <use xlink:href="#DejaVuSans-30" transform="translate(95.410156 0)"/>
       <use xlink:href="#DejaVuSans-35" transform="translate(159.033203 0)"/>
       <use xlink:href="#DejaVuSans-30" transform="translate(222.65625 0)"/>
      </g>
     </g>
    </g>
    <g id="ytick_4">
     <g id="line2d_25">
      <path d="M 56.50625 348.671382 
L 614.50625 348.671382 
" clip-path="url(#p8b6e5d6e0b)" style="fill: none; stroke: #b0b0b0; stroke-width: 0.8; stroke-linecap: square"/>
     </g>
     <g id="line2d_26">
      <g>
       <use xlink:href="#m9dfde8b647" x="56.50625" y="348.671382" style="stroke: #000000; stroke-width: 0.8"/>
      </g>
     </g>
     <g id="text_14">
      <!-- 0.075 -->
      <g transform="translate(20.878125 352.470601) scale(0.1 -0.1)">
       <use xlink:href="#DejaVuSans-30"/>
       <use xlink:href="#DejaVuSans-2e" transform="translate(63.623047 0)"/>
       <use xlink:href="#DejaVuSans-30" transform="translate(95.410156 0)"/>
       <use xlink:href="#DejaVuSans-37" transform="translate(159.033203 0)"/>
       <use xlink:href="#DejaVuSans-35" transform="translate(222.65625 0)"/>
      </g>
     </g>
    </g>
    <g id="ytick_5">
     <g id="line2d_27">
      <path d="M 56.50625 275.809764 
L 614.50625 275.809764 
" clip-path="url(#p8b6e5d6e0b)" style="fill: none; stroke: #b0b0b0; stroke-width: 0.8; stroke-linecap: square"/>
     </g>
     <g id="line2d_28">
      <g>
       <use xlink:href="#m9dfde8b647" x="56.50625" y="275.809764" style="stroke: #000000; stroke-width: 0.8"/>
      </g>
     </g>
     <g id="text_15">
      <!-- 0.100 -->
      <g transform="translate(20.878125 279.608983) scale(0.1 -0.1)">
       <use xlink:href="#DejaVuSans-30"/>
       <use xlink:href="#DejaVuSans-2e" transform="translate(63.623047 0)"/>
       <use xlink:href="#DejaVuSans-31" transform="translate(95.410156 0)"/>
       <use xlink:href="#DejaVuSans-30" transform="translate(159.033203 0)"/>
       <use xlink:href="#DejaVuSans-30" transform="translate(222.65625 0)"/>
      </g>
     </g>
    </g>
    <g id="ytick_6">
     <g id="line2d_29">
      <path d="M 56.50625 202.948147 
L 614.50625 202.948147 
" clip-path="url(#p8b6e5d6e0b)" style="fill: none; stroke: #b0b0b0; stroke-width: 0.8; stroke-linecap: square"/>
     </g>
     <g id="line2d_30">
      <g>
       <use xlink:href="#m9dfde8b647" x="56.50625" y="202.948147" style="stroke: #000000; stroke-width: 0.8"/>
      </g>
     </g>
     <g id="text_16">
      <!-- 0.125 -->
      <g transform="translate(20.878125 206.747366) scale(0.1 -0.1)">
       <use xlink:href="#DejaVuSans-30"/>
       <use xlink:href="#DejaVuSans-2e" transform="translate(63.623047 0)"/>
       <use xlink:href="#DejaVuSans-31" transform="translate(95.410156 0)"/>
       <use xlink:href="#DejaVuSans-32" transform="translate(159.033203 0)"/>
       <use xlink:href="#DejaVuSans-35" transform="translate(222.65625 0)"/>
      </g>
     </g>
    </g>
    <g id="ytick_7">
     <g id="line2d_31">
      <path d="M 56.50625 130.086529 
L 614.50625 130.086529 
" clip-path="url(#p8b6e5d6e0b)" style="fill: none; stroke: #b0b0b0; stroke-width: 0.8; stroke-linecap: square"/>
     </g>
     <g id="line2d_32">
      <g>
       <use xlink:href="#m9dfde8b647" x="56.50625" y="130.086529" style="stroke: #000000; stroke-width: 0.8"/>
      </g>
     </g>
     <g id="text_17">
      <!-- 0.150 -->
      <g transform="translate(20.878125 133.885748) scale(0.1 -0.1)">
       <use xlink:href="#DejaVuSans-30"/>
       <use xlink:href="#DejaVuSans-2e" transform="translate(63.623047 0)"/>
       <use xlink:href="#DejaVuSans-31" transform="translate(95.410156 0)"/>
       <use xlink:href="#DejaVuSans-35" transform="translate(159.033203 0)"/>
       <use xlink:href="#DejaVuSans-30" transform="translate(222.65625 0)"/>
      </g>
     </g>
    </g>
    <g id="ytick_8">
     <g id="line2d_33">
      <path d="M 56.50625 57.224912 
L 614.50625 57.224912 
" clip-path="url(#p8b6e5d6e0b)" style="fill: none; stroke: #b0b0b0; stroke-width: 0.8; stroke-linecap: square"/>
     </g>
     <g id="line2d_34">
      <g>
       <use xlink:href="#m9dfde8b647" x="56.50625" y="57.224912" style="stroke: #000000; stroke-width: 0.8"/>
      </g>
     </g>
     <g id="text_18">
      <!-- 0.175 -->
      <g transform="translate(20.878125 61.02413) scale(0.1 -0.1)">
       <use xlink:href="#DejaVuSans-30"/>
       <use xlink:href="#DejaVuSans-2e" transform="translate(63.623047 0)"/>
       <use xlink:href="#DejaVuSans-31" transform="translate(95.410156 0)"/>
       <use xlink:href="#DejaVuSans-37" transform="translate(159.033203 0)"/>
       <use xlink:href="#DejaVuSans-35" transform="translate(222.65625 0)"/>
      </g>
     </g>
    </g>
    <g id="text_19">
     <!-- Accuracy -->
     <g transform="translate(14.798437 322.34625) rotate(-90) scale(0.1 -0.1)">
      <defs>
       <path id="DejaVuSans-41" d="M 2188 4044 
L 1331 1722 
L 3047 1722 
L 2188 4044 
z
M 1831 4666 
L 2547 4666 
L 4325 0 
L 3669 0 
L 3244 1197 
L 1141 1197 
L 716 0 
L 50 0 
L 1831 4666 
z
" transform="scale(0.015625)"/>
       <path id="DejaVuSans-75" d="M 544 1381 
L 544 3500 
L 1119 3500 
L 1119 1403 
Q 1119 906 1312 657 
Q 1506 409 1894 409 
Q 2359 409 2629 706 
Q 2900 1003 2900 1516 
L 2900 3500 
L 3475 3500 
L 3475 0 
L 2900 0 
L 2900 538 
Q 2691 219 2414 64 
Q 2138 -91 1772 -91 
Q 1169 -91 856 284 
Q 544 659 544 1381 
z
M 1991 3584 
L 1991 3584 
z
" transform="scale(0.015625)"/>
       <path id="DejaVuSans-72" d="M 2631 2963 
Q 2534 3019 2420 3045 
Q 2306 3072 2169 3072 
Q 1681 3072 1420 2755 
Q 1159 2438 1159 1844 
L 1159 0 
L 581 0 
L 581 3500 
L 1159 3500 
L 1159 2956 
Q 1341 3275 1631 3429 
Q 1922 3584 2338 3584 
Q 2397 3584 2469 3576 
Q 2541 3569 2628 3553 
L 2631 2963 
z
" transform="scale(0.015625)"/>
       <path id="DejaVuSans-61" d="M 2194 1759 
Q 1497 1759 1228 1600 
Q 959 1441 959 1056 
Q 959 750 1161 570 
Q 1363 391 1709 391 
Q 2188 391 2477 730 
Q 2766 1069 2766 1631 
L 2766 1759 
L 2194 1759 
z
M 3341 1997 
L 3341 0 
L 2766 0 
L 2766 531 
Q 2569 213 2275 61 
Q 1981 -91 1556 -91 
Q 1019 -91 701 211 
Q 384 513 384 1019 
Q 384 1609 779 1909 
Q 1175 2209 1959 2209 
L 2766 2209 
L 2766 2266 
Q 2766 2663 2505 2880 
Q 2244 3097 1772 3097 
Q 1472 3097 1187 3025 
Q 903 2953 641 2809 
L 641 3341 
Q 956 3463 1253 3523 
Q 1550 3584 1831 3584 
Q 2591 3584 2966 3190 
Q 3341 2797 3341 1997 
z
" transform="scale(0.015625)"/>
       <path id="DejaVuSans-79" d="M 2059 -325 
Q 1816 -950 1584 -1140 
Q 1353 -1331 966 -1331 
L 506 -1331 
L 506 -850 
L 844 -850 
Q 1081 -850 1212 -737 
Q 1344 -625 1503 -206 
L 1606 56 
L 191 3500 
L 800 3500 
L 1894 763 
L 2988 3500 
L 3597 3500 
L 2059 -325 
z
" transform="scale(0.015625)"/>
      </defs>
      <use xlink:href="#DejaVuSans-41"/>
      <use xlink:href="#DejaVuSans-63" transform="translate(66.658203 0)"/>
      <use xlink:href="#DejaVuSans-63" transform="translate(121.638672 0)"/>
      <use xlink:href="#DejaVuSans-75" transform="translate(176.619141 0)"/>
      <use xlink:href="#DejaVuSans-72" transform="translate(239.998047 0)"/>
      <use xlink:href="#DejaVuSans-61" transform="translate(281.111328 0)"/>
      <use xlink:href="#DejaVuSans-63" transform="translate(342.390625 0)"/>
      <use xlink:href="#DejaVuSans-79" transform="translate(397.371094 0)"/>
     </g>
    </g>
   </g>
   <g id="line2d_35">
    <path d="M 81.869886 551.518125 
L 82.504771 536.095749 
L 83.77454 478.591743 
L 84.409424 459.761066 
L 85.679193 440.760376 
L 86.314078 434.405217 
L 86.948962 429.183467 
L 88.853616 419.282381 
L 89.488501 417.865632 
L 90.123385 414.16588 
L 91.393154 411.15427 
L 92.028039 409.850849 
L 92.662923 409.251769 
L 93.297808 405.649167 
L 93.932692 404.556246 
L 94.567577 404.119069 
L 95.202461 401.180322 
L 95.837346 399.569272 
L 96.47223 398.945894 
L 97.107115 397.205317 
L 98.376884 392.963149 
L 99.011768 391.878317 
L 99.646653 391.813553 
L 100.916422 389.069096 
L 101.551306 386.357026 
L 102.186191 387.514721 
L 102.821075 385.636508 
L 103.45596 385.976534 
L 104.090844 383.661154 
L 104.725729 382.843475 
L 105.360613 382.422497 
L 105.995498 380.88431 
L 106.630382 378.738944 
L 107.900151 378.042713 
L 109.16992 375.978298 
L 109.804805 374.569638 
L 110.43969 375.176818 
L 111.074574 372.999075 
L 111.709459 371.906143 
L 112.344343 372.04377 
L 112.979228 369.169775 
L 113.614112 368.886423 
L 114.248997 369.890304 
L 115.518766 366.862505 
L 116.15365 366.417229 
L 116.788535 365.113819 
L 117.423419 364.369013 
L 118.058304 363.340855 
L 118.693188 363.38943 
L 119.328073 361.600268 
L 119.962957 362.264122 
L 120.597842 359.746353 
L 121.232726 358.111016 
L 121.867611 357.900516 
L 122.502495 357.309535 
L 123.13738 357.236661 
L 123.772264 354.953669 
L 124.407149 355.050819 
L 125.042033 354.079336 
L 125.676918 353.366907 
L 126.311802 352.128271 
L 126.946687 351.958247 
L 127.581571 351.472516 
L 128.216456 350.363385 
L 128.85134 348.865674 
L 129.486225 348.396121 
L 130.121109 347.343686 
L 130.755994 347.230337 
L 131.390879 345.740725 
L 132.025763 344.631616 
L 132.660648 343.279631 
L 133.295532 343.263432 
L 133.930417 341.328544 
L 134.565301 341.911447 
L 135.200186 340.599937 
L 135.83507 338.673148 
L 136.469955 338.592197 
L 137.739724 336.592534 
L 138.374608 337.288787 
L 139.009493 334.33384 
L 139.644377 336.074428 
L 140.279262 332.61753 
L 140.914146 331.864646 
L 141.549031 331.589372 
L 142.183915 329.711181 
L 142.8188 330.731239 
L 144.723453 325.396149 
L 145.358338 326.68336 
L 145.993222 325.460902 
L 146.628107 324.740395 
L 147.262991 324.376091 
L 147.897876 323.16981 
L 148.53276 322.975509 
L 149.167645 322.546453 
L 149.802529 320.55489 
L 150.437414 320.943492 
L 151.072298 318.968128 
L 151.707183 316.272257 
L 152.342067 316.63656 
L 152.976952 316.490835 
L 153.611837 314.895973 
L 154.246721 314.232119 
L 154.881606 313.341587 
L 155.51649 313.139209 
L 156.151375 312.127228 
L 156.786259 310.686192 
L 157.421144 310.022337 
L 158.056028 310.386641 
L 158.690913 309.002279 
L 159.325797 309.471833 
L 159.960682 307.310267 
L 160.595566 305.626355 
L 161.230451 305.399678 
L 161.865335 304.922025 
L 162.50022 305.229675 
L 163.135104 302.800935 
L 163.769989 303.521464 
L 164.404873 301.983277 
L 165.039758 299.765037 
L 165.674642 299.951239 
L 166.309527 299.093105 
L 166.944411 298.809753 
L 167.579296 299.505984 
L 168.21418 298.550678 
L 168.849065 298.178275 
L 169.483949 296.470086 
L 170.118834 294.413771 
L 170.753718 295.636229 
L 171.388603 293.879443 
L 172.023487 292.648885 
L 173.293256 292.624608 
L 173.928141 291.159273 
L 174.563026 291.863603 
L 175.19791 290.430667 
L 175.832795 288.617227 
L 176.467679 287.864322 
L 177.102564 288.422926 
L 177.737448 286.747113 
L 179.007217 284.156471 
L 179.642102 284.035022 
L 180.276986 284.350771 
L 180.911871 283.85692 
L 181.546755 283.023063 
L 182.18164 283.322614 
L 182.816524 280.310993 
L 183.451409 281.816803 
L 184.086293 281.007223 
L 184.721178 279.760488 
L 185.356062 279.112833 
L 185.990947 278.74043 
L 186.625831 276.287413 
L 187.260716 276.384563 
L 187.8956 276.756966 
L 188.530485 274.967804 
L 189.165369 275.550707 
L 189.800254 275.720709 
L 190.435138 273.437717 
L 191.070023 274.975903 
L 191.704907 274.336347 
L 192.339792 271.567603 
L 192.974676 269.827015 
L 193.609561 268.912207 
L 194.244445 269.89179 
L 195.514215 269.932265 
L 196.149099 270.264192 
L 196.783984 266.726343 
L 197.418868 266.483467 
L 198.053753 264.192375 
L 198.688637 264.929103 
L 199.323522 265.277208 
L 199.958406 264.670028 
L 200.593291 263.471868 
L 201.228175 262.686586 
L 201.86306 262.297984 
L 202.497944 260.82455 
L 203.132829 260.9298 
L 203.767713 260.897424 
L 204.402598 260.614072 
L 205.037482 258.719659 
L 205.672367 258.509181 
L 206.307251 257.578174 
L 206.942136 255.99949 
L 207.57702 258.347257 
L 208.211905 255.01183 
L 208.846789 257.343397 
L 209.481674 254.0889 
L 210.116558 255.659485 
L 210.751443 254.323677 
L 211.386327 254.242725 
L 212.021212 254.704179 
L 212.656096 253.076941 
L 213.290981 252.28356 
L 213.925865 250.955852 
L 214.56075 252.372611 
L 215.195634 251.142053 
L 215.830519 250.947752 
L 216.465403 250.219146 
L 217.100288 248.859061 
L 217.735173 249.247663 
L 218.370057 249.020985 
L 219.004942 247.377549 
L 219.639826 247.223723 
L 220.274711 244.487355 
L 220.909595 244.034 
L 221.54448 244.64118 
L 222.179364 244.527852 
L 222.814249 244.131151 
L 223.449133 243.151568 
L 224.718902 241.92101 
L 225.353787 239.459916 
L 225.988671 242.23676 
L 226.623556 239.378964 
L 227.25844 239.718969 
L 227.893325 237.444076 
L 228.528209 239.897093 
L 229.163094 236.739746 
L 229.797978 237.541227 
L 230.432863 236.723547 
L 231.702632 236.245916 
L 232.337516 234.918207 
L 232.972401 234.667232 
L 233.607285 236.035416 
L 234.24217 234.667232 
L 234.877054 233.647174 
L 235.511939 231.98756 
L 236.146823 231.87421 
L 236.781708 234.027676 
L 237.416592 231.995637 
L 238.051477 231.048453 
L 238.686362 230.813676 
L 239.321246 230.06887 
L 239.956131 230.020295 
L 240.591015 227.996356 
L 241.2259 227.704905 
L 241.860784 227.963958 
L 242.495669 227.793956 
L 243.130553 226.55532 
L 243.765438 226.903424 
L 244.400322 226.271968 
L 245.035207 226.393395 
L 245.670091 224.822832 
L 246.304976 222.102662 
L 246.93986 223.422271 
L 247.574745 223.381774 
L 248.209629 223.511322 
L 248.844514 221.187832 
L 249.479398 221.325459 
L 250.114283 221.187832 
L 250.749167 219.220568 
L 251.384052 219.682022 
L 252.018936 219.625369 
L 252.653821 221.487383 
L 253.288705 218.856265 
L 253.92359 217.795731 
L 254.558474 216.387071 
L 255.193359 217.59333 
L 256.463128 214.929835 
L 257.098012 213.828826 
L 257.732897 214.144554 
L 258.367781 214.929835 
L 259.002666 213.57785 
L 259.63755 213.326874 
L 260.272435 211.910136 
L 260.90732 212.703517 
L 261.542204 212.225865 
L 262.177089 212.088238 
L 262.811973 210.614804 
L 263.446858 210.444802 
L 264.081742 208.566588 
L 264.716627 209.732372 
L 265.351511 211.197707 
L 265.986396 208.186086 
L 266.62128 210.218124 
L 267.256165 206.202622 
L 267.891049 209.279018 
L 268.525934 207.052678 
L 269.160818 205.894994 
L 269.795703 206.364547 
L 270.430587 206.372647 
L 271.065472 206.016421 
L 271.700356 206.979826 
L 272.335241 203.52295 
L 272.970125 204.445858 
L 274.874779 202.50287 
L 275.509663 202.648618 
L 276.144548 202.349045 
L 276.779432 198.17974 
L 277.414317 200.916108 
L 278.049201 199.329346 
L 278.684086 199.750346 
L 279.31897 198.244535 
L 279.953855 198.770764 
L 280.588739 199.717948 
L 281.223624 197.321628 
L 281.858509 200.074152 
L 282.493393 196.633453 
L 283.128278 198.025958 
L 283.763162 197.823536 
L 284.398047 195.427215 
L 285.032931 193.880929 
L 285.667816 196.066793 
L 286.3027 195.686269 
L 287.572469 192.9499 
L 288.207354 193.330424 
L 288.842238 192.642293 
L 290.112007 191.856968 
L 290.746892 192.55322 
L 291.381776 188.780595 
L 292.016661 189.152998 
L 292.651545 191.241711 
L 293.921314 189.387774 
L 294.556199 188.707764 
L 295.191083 187.493405 
L 295.825968 187.962959 
L 296.460852 187.493405 
L 297.095737 186.659527 
L 297.730621 187.104803 
L 298.365506 186.805231 
L 299.00039 185.283265 
L 299.635275 186.457148 
L 300.270159 184.73276 
L 300.905044 185.32374 
L 301.539928 184.360357 
L 302.174813 183.769333 
L 303.444582 184.336037 
L 304.079467 183.486003 
L 304.714351 183.542677 
L 305.349236 181.470163 
L 305.98412 179.97243 
L 306.619005 181.09776 
L 307.253889 179.000969 
L 307.888774 180.773911 
L 308.523658 179.260022 
L 309.158543 178.037586 
L 309.793427 179.057644 
L 310.428312 178.70144 
L 311.063196 179.438124 
L 311.698081 176.280799 
L 312.332965 175.511717 
L 312.96785 175.406445 
L 313.602734 176.013625 
L 314.237619 174.540212 
L 314.872503 175.058319 
L 315.507388 173.034402 
L 316.142272 175.811246 
L 316.777157 175.892197 
L 317.412041 175.406445 
L 318.046926 173.252979 
L 318.68181 173.690178 
L 319.316695 173.754931 
L 320.586464 172.241042 
L 321.221348 170.063256 
L 321.856233 171.965746 
L 322.491117 171.180465 
L 323.126002 169.002722 
L 323.760886 170.273756 
L 324.395771 170.119931 
L 325.030656 168.274116 
L 325.66554 170.44378 
L 326.300425 166.954528 
L 326.935309 166.841179 
L 327.570194 167.675014 
L 328.205078 166.549727 
L 328.839963 165.821121 
L 329.474847 166.703552 
L 330.109732 164.914368 
L 330.744616 165.432519 
L 331.379501 165.586344 
L 332.014385 163.562383 
L 332.64927 164.906291 
L 333.284154 164.566286 
L 333.919039 163.181902 
L 335.188808 162.218519 
L 335.823692 165.108669 
L 336.458577 161.99182 
L 337.093461 160.728907 
L 337.728346 162.97948 
L 338.36323 159.465951 
L 338.998115 160.226956 
L 339.632999 158.575441 
L 340.267884 158.38114 
L 340.902768 159.376879 
L 341.537653 158.834495 
L 342.172537 158.656393 
L 342.807422 160.291708 
L 343.442306 160.664111 
L 344.077191 157.450112 
L 344.712075 156.154801 
L 345.34696 156.316704 
L 345.981844 155.928102 
L 346.616729 155.758121 
L 347.251614 158.316345 
L 347.886498 153.855588 
L 348.521383 151.936899 
L 349.156267 154.106563 
L 349.791152 154.15516 
L 350.426036 154.325141 
L 351.060921 154.34134 
L 351.695805 152.365976 
L 352.33069 153.467029 
L 353.600459 151.354039 
L 354.235343 151.653568 
L 354.870228 149.742957 
L 355.505112 153.572257 
L 356.139997 150.593034 
L 356.774881 150.228709 
L 357.409766 150.131559 
L 358.04465 148.779573 
L 358.679535 149.62153 
L 359.314419 146.763734 
L 359.949304 149.670127 
L 360.584188 146.82853 
L 361.219073 148.666224 
L 361.853957 148.9172 
L 362.488842 146.310379 
L 363.123726 148.075243 
L 363.758611 146.375132 
L 364.393495 145.751797 
L 365.02838 144.197389 
L 365.663264 146.367054 
L 366.298149 144.205511 
L 366.933033 143.671161 
L 367.567918 144.132637 
L 368.202803 144.440287 
L 368.837687 144.08404 
L 369.472572 142.562074 
L 370.107456 142.594428 
L 370.742341 142.432525 
L 371.377225 144.577913 
L 372.01211 142.999229 
L 372.646994 142.0682 
L 373.281879 141.88202 
L 373.916763 139.493778 
L 374.551648 140.230506 
L 375.186532 137.923215 
L 375.821417 141.339593 
L 376.456301 140.457161 
L 377.091186 138.918996 
L 377.72607 137.874618 
L 378.360955 137.664118 
L 378.995839 139.194249 
L 379.630724 137.801744 
L 380.265608 136.886958 
L 380.900493 135.122094 
L 381.535377 136.822162 
L 382.170262 135.024943 
L 382.805146 134.765846 
L 383.440031 137.016463 
L 384.074915 133.82674 
L 384.7098 134.693016 
L 385.344684 133.235759 
L 385.979569 133.94821 
L 386.614453 135.219244 
L 387.249338 134.215342 
L 387.884222 133.705312 
L 389.153991 130.871837 
L 389.788876 133.729589 
L 390.423761 133.14673 
L 391.058645 129.706031 
L 391.69353 129.536007 
L 392.328414 130.968944 
L 392.963299 129.657434 
L 393.598183 131.090414 
L 394.867952 129.171725 
L 395.502837 129.714109 
L 396.137721 128.281172 
L 396.772606 128.159745 
L 397.40749 126.872512 
L 398.042375 127.30159 
L 398.677259 126.589182 
L 399.312144 126.945386 
L 399.947028 126.848235 
L 400.581913 126.629658 
L 401.216797 127.868293 
L 401.851682 123.407537 
L 402.486566 127.293512 
L 403.121451 125.3829 
L 403.756335 125.5934 
L 404.39122 124.289969 
L 405.026104 123.278032 
L 405.660989 125.520527 
L 406.295873 123.763741 
L 406.930758 122.411755 
L 407.565642 123.917566 
L 408.200527 122.517027 
L 408.835411 123.17276 
L 409.470296 122.695129 
L 410.10518 120.930265 
L 410.740065 120.824993 
L 411.37495 122.096027 
L 412.009834 119.999236 
L 412.644719 123.067532 
L 413.279603 123.512808 
L 413.914488 119.133003 
L 414.549372 121.448372 
L 415.184257 118.193896 
L 415.819141 119.222032 
L 416.454026 120.655012 
L 417.08891 119.359658 
L 417.723795 118.962979 
L 418.358679 118.938702 
L 418.993564 118.24245 
L 419.628448 118.728202 
L 420.263333 119.570158 
L 420.898217 115.684226 
L 421.533102 118.703925 
L 422.167986 117.764819 
L 423.437755 116.83379 
L 424.07264 117.627192 
L 424.707524 115.651828 
L 425.342409 114.486066 
L 425.977293 115.004173 
L 426.612178 114.753197 
L 427.247062 111.960198 
L 427.881947 116.509984 
L 428.516831 115.117523 
L 429.151716 116.477586 
L 429.7866 112.551178 
L 430.421485 113.198833 
L 431.056369 112.049227 
L 431.691254 114.817993 
L 432.326138 111.077722 
L 432.961023 113.870765 
L 433.595908 114.016513 
L 434.230792 113.020731 
L 434.865677 112.680683 
L 435.500561 110.875343 
L 436.135446 109.790533 
L 436.77033 110.972494 
L 437.405215 111.288222 
L 438.674984 109.320979 
L 439.309868 108.308999 
L 439.944753 110.187212 
L 440.579637 107.693742 
L 441.849406 110.454387 
L 442.484291 109.434329 
L 443.119175 106.317436 
L 443.75406 105.507878 
L 444.388944 106.374111 
L 445.023829 107.604669 
L 445.658713 108.381873 
L 446.293598 107.062242 
L 446.928482 108.624727 
L 447.563367 104.884499 
L 448.833136 104.908776 
L 449.46802 105.014048 
L 450.102905 106.414586 
L 450.737789 104.714475 
L 451.372674 105.613106 
L 452.007558 103.589189 
L 452.642443 102.253402 
L 453.277327 104.479698 
L 453.912212 101.411446 
L 454.547097 104.908776 
L 455.181981 103.103436 
L 455.816866 102.399106 
L 456.45175 102.909135 
L 457.086635 102.140053 
L 457.721519 100.618043 
L 458.991288 99.144631 
L 459.626173 101.176669 
L 460.261057 101.897198 
L 460.895942 97.14499 
L 461.530826 100.674718 
L 462.800595 100.933771 
L 463.43548 100.059461 
L 464.070364 100.269917 
L 464.705249 97.509272 
L 465.340133 100.804266 
L 465.975018 97.395966 
L 466.609902 96.958767 
L 467.244787 98.229801 
L 467.879671 95.469155 
L 468.514556 99.023203 
L 469.784325 96.173485 
L 470.419209 95.566306 
L 471.054094 95.768728 
L 471.688978 97.865519 
L 472.323863 96.408262 
L 472.958747 95.873956 
L 473.593632 95.930631 
L 474.228516 97.323092 
L 474.863401 94.351947 
L 475.498285 92.562806 
L 476.13317 93.22666 
L 476.768055 93.582864 
L 477.402939 93.323811 
L 478.037824 92.894733 
L 478.672708 95.517752 
L 479.307593 93.10519 
L 479.942477 95.331529 
L 481.212246 93.404762 
L 481.847131 92.287553 
L 482.482015 92.813782 
L 483.1169 91.275573 
L 483.751784 90.061214 
L 484.386669 93.048558 
L 485.021553 91.024597 
L 485.656438 94.845777 
L 486.291322 92.603282 
L 486.926207 91.534626 
L 487.561091 92.489932 
L 488.195976 88.595879 
L 488.83086 89.421636 
L 489.465745 89.105908 
L 490.100629 89.753564 
L 490.735514 89.057355 
L 491.370398 89.615937 
L 492.005283 88.725428 
L 492.640167 87.357243 
L 493.275052 88.142525 
L 493.909936 86.822937 
L 494.544821 90.287913 
L 495.179705 88.191078 
L 495.81459 84.807098 
L 496.449474 86.806738 
L 497.084359 82.953161 
L 497.719244 87.729646 
L 498.354128 87.818675 
L 498.989013 85.487108 
L 499.623897 84.653273 
L 500.258782 85.349481 
L 500.893666 85.851433 
L 501.528551 84.815175 
L 502.163435 84.467049 
L 502.79832 82.669787 
L 503.433204 83.568418 
L 504.068089 83.584617 
L 504.702973 81.949302 
L 505.337858 82.224554 
L 505.972742 83.67369 
L 506.607627 84.110845 
L 507.242511 80.208715 
L 507.877396 83.171739 
L 508.51228 84.9852 
L 509.147165 82.248831 
L 509.782049 80.492045 
L 510.416934 84.240394 
L 511.051818 82.564559 
L 511.686703 81.342122 
L 512.321587 77.593773 
L 512.956472 79.002433 
L 513.591356 81.220652 
L 514.226241 83.034113 
L 514.861125 81.196375 
L 515.49601 80.467768 
L 516.130894 77.261846 
L 516.765779 80.791617 
L 517.400663 81.625452 
L 518.035548 79.496263 
L 518.670433 77.836671 
L 519.305317 78.24955 
L 519.940202 77.869026 
L 520.575086 76.678943 
L 521.209971 76.719462 
L 521.844855 76.322739 
L 523.114624 78.411453 
L 523.749509 74.646948 
L 524.384393 76.411812 
L 525.019278 74.954555 
L 525.654162 76.395613 
L 526.289047 76.257987 
L 526.923931 75.43223 
L 528.1937 74.89788 
L 528.828585 72.096759 
L 529.463469 72.606788 
L 530.098354 74.047846 
L 530.733238 72.177754 
L 531.368123 71.101021 
L 532.003007 71.424827 
L 532.637892 72.412531 
L 533.272776 72.266783 
L 533.907661 71.319599 
L 534.542545 71.271002 
L 535.17743 70.097118 
L 535.812314 70.90672 
L 536.447199 69.643764 
L 537.082083 71.878181 
L 537.716968 69.89474 
L 538.351852 68.631784 
L 538.986737 69.983769 
L 539.621621 69.878541 
L 540.256506 69.627565 
L 540.891391 69.506138 
L 541.526275 70.760973 
L 542.796044 66.559313 
L 543.430929 67.247444 
L 544.065813 67.328395 
L 544.700698 66.170711 
L 545.335582 69.012308 
L 545.970467 65.604007 
L 546.605351 69.044706 
L 547.240236 66.745492 
L 547.87512 66.445963 
L 548.510005 67.093619 
L 549.144889 65.636362 
L 549.779774 65.450182 
L 550.414658 66.56739 
L 551.049543 63.264318 
L 551.684427 62.228061 
L 552.319312 62.098556 
L 552.954196 65.077779 
L 554.223965 60.301294 
L 555.493734 62.883837 
L 556.128619 61.410425 
L 556.763503 60.706095 
L 557.398388 60.997503 
L 558.033272 61.839502 
L 558.668157 61.216124 
L 559.303041 59.208362 
L 559.937926 62.090435 
L 560.57281 63.272439 
L 561.207695 60.252697 
L 561.84258 60.795124 
L 562.477464 62.03376 
L 563.112349 59.273114 
L 563.747233 58.13975 
L 564.382118 59.653639 
L 565.017002 58.949309 
L 566.286771 59.086935 
L 566.921656 57.4111 
L 567.55654 56.512469 
L 568.191425 57.216799 
L 568.826309 54.059474 
L 569.461194 55.670513 
L 570.096078 56.70677 
L 570.730963 56.156265 
L 571.365847 57.152047 
L 572.000732 55.872935 
L 572.635616 56.302013 
L 573.905385 54.124227 
L 574.54027 54.642377 
L 575.175154 55.961964 
L 575.810039 54.682853 
L 576.444923 54.278052 
L 577.079808 56.431518 
L 578.349577 52.893712 
L 578.984461 52.731765 
L 579.619346 52.926066 
L 580.25423 51.711707 
L 580.889115 52.173183 
L 581.523999 52.092231 
L 582.158884 51.744105 
L 582.793768 52.861314 
L 583.428653 51.857455 
L 584.063538 52.634615 
L 585.333307 49.47729 
L 585.968191 51.476931 
L 586.603076 51.752183 
L 587.23796 50.69977 
L 587.872845 51.816979 
L 588.507729 47.518125 
L 589.142614 50.286848 
L 589.142614 50.286848 
" clip-path="url(#p8b6e5d6e0b)" style="fill: none; stroke: #1f77b4; stroke-width: 1.5; stroke-linecap: square"/>
   </g>
   <g id="line2d_36">
    <path d="M 81.869886 547.729322 
L 83.139655 492.500215 
L 84.409424 457.526638 
L 85.044309 451.47913 
L 85.679193 442.444288 
L 86.314078 439.019789 
L 86.948962 436.323906 
L 87.583847 427.653379 
L 88.218732 431.442182 
L 88.853616 422.625918 
L 89.488501 422.115889 
L 90.123385 418.399949 
L 90.75827 419.128567 
L 91.393154 415.558352 
L 92.028039 415.995518 
L 92.662923 413.226774 
L 93.297808 411.332372 
L 93.932692 411.405235 
L 94.567577 405.139138 
L 95.202461 410.020862 
L 95.837346 405.284864 
L 96.47223 405.649167 
L 97.107115 402.80756 
L 97.741999 405.867756 
L 98.376884 397.415806 
L 99.011768 396.250022 
L 99.646653 400.257403 
L 100.281537 399.455934 
L 100.916422 396.614326 
L 101.551306 393.262689 
L 102.186191 400.403129 
L 102.821075 394.719924 
L 103.45596 386.778004 
L 104.090844 387.72521 
L 104.725729 390.129641 
L 105.360613 388.162376 
L 105.995498 393.189826 
L 106.630382 390.202504 
L 107.265267 389.473886 
L 107.900151 390.858258 
L 108.535036 387.506621 
L 109.16992 390.056778 
L 109.804805 381.750565 
L 110.43969 385.830808 
L 111.074574 382.479172 
L 111.709459 388.672405 
L 112.344343 384.956465 
L 112.979228 383.426378 
L 113.614112 388.089513 
L 114.248997 381.240536 
L 114.883881 379.273271 
L 115.518766 379.7833 
L 116.15365 376.504526 
L 116.788535 379.856152 
L 117.423419 377.743162 
L 118.058304 377.597437 
L 118.693188 375.411594 
L 119.328073 378.180339 
L 119.962957 370.01983 
L 121.232726 374.974417 
L 121.867611 373.590056 
L 122.502495 364.482362 
L 123.13738 366.158175 
L 123.772264 367.469685 
L 124.407149 375.921624 
L 125.042033 368.854046 
L 125.676918 364.773792 
L 126.311802 370.165556 
L 127.581571 363.753734 
L 128.216456 368.271165 
L 128.85134 366.01245 
L 129.486225 367.032508 
L 130.121109 365.065243 
L 130.755994 363.608008 
L 131.390879 364.190911 
L 132.025763 361.203588 
L 132.660648 359.309176 
L 133.295532 366.231027 
L 133.930417 364.70094 
L 134.565301 364.409489 
L 135.200186 358.507695 
L 135.83507 360.766411 
L 136.469955 350.128609 
L 137.739724 355.010344 
L 138.374608 356.030402 
L 139.009493 351.440118 
L 139.644377 355.228921 
L 140.279262 353.625982 
L 140.914146 353.043079 
L 141.549031 350.857237 
L 142.183915 355.010344 
L 142.8188 358.143392 
L 143.453684 348.379944 
L 144.088569 347.287012 
L 144.723453 345.10117 
L 145.358338 345.174022 
L 145.993222 353.480256 
L 146.628107 341.67667 
L 147.262991 348.889973 
L 147.897876 344.08109 
L 148.53276 343.279631 
L 149.167645 349.254276 
L 149.802529 341.239493 
L 150.437414 342.98818 
L 151.072298 343.935386 
L 151.707183 340.875189 
L 152.342067 337.013513 
L 152.976952 346.048354 
L 153.611837 341.312367 
L 154.246721 338.907925 
L 154.881606 336.066328 
L 155.51649 337.669267 
L 156.151375 331.476044 
L 156.786259 330.455986 
L 157.421144 334.463367 
L 158.056028 332.641828 
L 158.690913 330.091661 
L 159.325797 330.237387 
L 160.595566 335.04627 
L 161.230451 326.885761 
L 161.865335 332.131799 
L 162.50022 331.9132 
L 163.135104 338.033593 
L 163.769989 335.847729 
L 164.404873 326.740035 
L 165.039758 324.699919 
L 165.674642 328.561574 
L 166.309527 325.719977 
L 166.944411 331.9132 
L 167.579296 330.383113 
L 168.21418 323.679839 
L 168.849065 329.654506 
L 169.483949 322.222625 
L 170.118834 322.659781 
L 170.753718 323.606987 
L 171.388603 317.559468 
L 172.023487 321.05682 
L 172.658372 318.725252 
L 173.293256 318.360948 
L 173.928141 316.757987 
L 174.563026 319.089555 
L 175.19791 318.506674 
L 175.832795 321.56687 
L 176.467679 320.983968 
L 177.102564 317.559468 
L 177.737448 319.74531 
L 178.372333 315.446478 
L 179.007217 317.996645 
L 179.642102 329.800231 
L 180.276986 324.918496 
L 180.911871 312.823459 
L 181.546755 314.499293 
L 182.18164 312.386303 
L 182.816524 314.790723 
L 183.451409 328.925877 
L 184.086293 318.215223 
L 184.721178 310.856194 
L 185.356062 306.703088 
L 185.990947 310.856194 
L 186.625831 305.901607 
L 187.260716 317.049439 
L 187.8956 311.8034 
L 188.530485 309.544685 
L 189.165369 308.160323 
L 189.800254 304.152942 
L 190.435138 312.969184 
L 191.070023 306.775961 
L 191.704907 298.03255 
L 192.339792 302.112804 
L 192.974676 302.914285 
L 193.609561 299.562659 
L 194.244445 298.979756 
L 194.87933 301.602775 
L 195.514215 297.886824 
L 196.149099 302.039952 
L 196.783984 298.251149 
L 197.418868 300.94702 
L 198.053753 301.092746 
L 198.688637 294.826649 
L 199.323522 297.376795 
L 199.958406 304.735823 
L 200.593291 296.356737 
L 201.228175 298.688304 
L 201.86306 305.68303 
L 202.497944 296.356737 
L 203.132829 291.620727 
L 203.767713 301.238472 
L 204.402598 295.190953 
L 205.037482 287.831924 
L 205.672367 293.005111 
L 206.307251 296.939639 
L 206.942136 293.587992 
L 207.57702 295.336678 
L 208.211905 293.51514 
L 208.846789 290.673543 
L 209.481674 297.668246 
L 210.116558 294.243747 
L 210.751443 296.793914 
L 211.386327 289.872062 
L 212.021212 289.872062 
L 212.656096 290.527817 
L 213.925865 283.095937 
L 214.56075 291.110698 
L 215.195634 288.852004 
L 215.830519 282.294456 
L 216.465403 289.28916 
L 217.100288 288.997708 
L 217.735173 287.613347 
L 218.370057 288.77913 
L 219.004942 288.997708 
L 219.639826 286.811866 
L 220.274711 286.66614 
L 220.909595 284.55315 
L 221.54448 275.664034 
L 222.179364 286.447563 
L 222.814249 286.083259 
L 223.449133 278.942808 
L 224.084018 279.379985 
L 224.718902 281.857279 
L 225.353787 277.339869 
L 225.988671 280.982946 
L 226.623556 281.055798 
L 227.25844 275.00828 
L 227.893325 282.658759 
L 228.528209 278.432779 
L 229.163094 279.088534 
L 229.797978 282.658759 
L 230.432863 270.49087 
L 231.067747 275.736908 
L 231.702632 271.000899 
L 232.337516 275.518309 
L 232.972401 274.206799 
L 233.607285 271.29235 
L 234.877054 279.379985 
L 235.511939 280.691495 
L 236.146823 273.915369 
L 236.781708 270.199418 
L 237.416592 275.00828 
L 238.051477 271.948105 
L 238.686362 278.359927 
L 239.321246 270.49087 
L 239.956131 267.576399 
L 240.591015 270.782321 
L 241.2259 268.450732 
L 241.860784 281.055798 
L 242.495669 270.709447 
L 243.130553 268.596457 
L 243.765438 267.722125 
L 244.400322 268.815057 
L 245.035207 262.84039 
L 245.670091 267.284948 
L 246.304976 275.299731 
L 246.93986 271.000899 
L 247.574745 268.815057 
L 248.209629 270.782321 
L 248.844514 272.093831 
L 249.479398 266.483467 
L 250.114283 262.111783 
L 250.749167 260.7274 
L 251.384052 267.722125 
L 252.018936 266.046312 
L 252.653821 269.689389 
L 253.288705 268.086428 
L 253.92359 261.601754 
L 254.558474 267.940702 
L 255.193359 257.157196 
L 255.828243 260.508822 
L 256.463128 265.827712 
L 257.098012 254.534177 
L 257.732897 268.37788 
L 258.367781 259.12446 
L 259.002666 254.534177 
L 259.63755 265.900586 
L 260.272435 262.621812 
L 260.90732 262.84039 
L 261.542204 264.516224 
L 262.177089 260.654548 
L 262.811973 268.232154 
L 263.446858 252.566912 
L 264.081742 249.798167 
L 264.716627 254.097 
L 265.351511 264.661928 
L 265.986396 255.481383 
L 266.62128 251.765432 
L 267.256165 249.57959 
L 267.891049 257.594351 
L 268.525934 253.805548 
L 269.160818 252.056883 
L 269.795703 249.506716 
L 271.065472 255.117058 
L 271.700356 257.230048 
L 272.335241 252.056883 
L 272.970125 256.428567 
L 273.60501 253.514119 
L 274.239894 268.159302 
L 274.874779 254.024148 
L 275.509663 253.076941 
L 276.144548 266.483467 
L 277.414317 247.758051 
L 278.049201 250.235345 
L 278.684086 247.976629 
L 279.31897 250.526774 
L 279.953855 256.647167 
L 280.588739 249.142413 
L 281.223624 257.521499 
L 281.858509 250.526774 
L 282.493393 248.923835 
L 283.128278 248.486658 
L 283.763162 255.189932 
L 284.398047 246.883697 
L 285.032931 247.320874 
L 285.667816 251.838284 
L 286.3027 245.645061 
L 286.937585 253.076941 
L 287.572469 242.293413 
L 288.207354 252.639764 
L 288.842238 242.074836 
L 289.477123 243.167767 
L 290.112007 246.082216 
L 290.746892 246.810845 
L 291.381776 254.461303 
L 292.016661 243.677797 
L 292.651545 256.137138 
L 293.28643 242.949168 
L 293.921314 245.280736 
L 294.556199 251.255403 
L 295.191083 239.524668 
L 295.825968 238.650336 
L 296.460852 241.273355 
L 297.095737 238.796061 
L 297.730621 243.604923 
L 298.365506 251.401128 
L 299.00039 244.625003 
L 299.635275 239.597542 
L 300.270159 245.936491 
L 300.905044 258.177254 
L 301.539928 238.21318 
L 302.174813 235.29871 
L 302.809697 243.604923 
L 303.444582 249.871019 
L 304.079467 233.550023 
L 304.714351 245.35361 
L 305.349236 239.961845 
L 305.98412 248.778109 
L 306.619005 237.338826 
L 307.253889 235.08011 
L 307.888774 245.280736 
L 308.523658 238.140307 
L 309.158543 246.810845 
L 310.428312 233.477171 
L 311.063196 250.308197 
L 311.698081 240.326149 
L 312.332965 233.550023 
L 312.96785 239.670394 
L 313.602734 238.431758 
L 314.237619 242.147687 
L 314.872503 234.788681 
L 315.507388 231.947062 
L 316.142272 230.635552 
L 316.777157 242.512013 
L 317.412041 232.602817 
L 318.046926 236.610219 
L 318.68181 234.715807 
L 319.316695 237.120248 
L 319.951579 242.074836 
L 320.586464 226.118143 
L 321.221348 230.271249 
L 321.856233 236.464494 
L 323.126002 227.429652 
L 323.760886 234.132926 
L 324.395771 231.87421 
L 325.030656 234.861533 
L 325.66554 234.497229 
L 326.300425 228.44971 
L 326.935309 238.140307 
L 327.570194 233.9872 
L 328.205078 228.959739 
L 328.839963 234.788681 
L 329.474847 234.934406 
L 330.109732 226.773897 
L 330.744616 229.396917 
L 331.379501 234.642955 
L 332.014385 230.999878 
L 333.284154 236.318768 
L 333.919039 224.369456 
L 334.553923 232.529965 
L 335.188808 223.349398 
L 335.823692 233.841474 
L 336.458577 253.441245 
L 337.093461 224.733781 
L 337.728346 222.402191 
L 338.36323 223.13082 
L 338.998115 222.620791 
L 339.632999 224.150878 
L 340.267884 220.580653 
L 340.902768 225.24381 
L 341.537653 222.693643 
L 342.172537 230.125523 
L 342.807422 227.429652 
L 343.442306 227.211074 
L 344.077191 227.356778 
L 344.712075 227.138201 
L 345.34696 231.87421 
L 345.981844 228.668288 
L 346.616729 217.884782 
L 347.251614 222.037888 
L 347.886498 223.422271 
L 348.521383 226.482446 
L 349.156267 220.362075 
L 349.791152 224.733781 
L 350.426036 232.602817 
L 351.060921 214.824585 
L 351.695805 212.565891 
L 352.33069 220.070624 
L 352.965574 232.238513 
L 353.600459 220.799252 
L 354.235343 226.118143 
L 354.870228 214.38743 
L 356.139997 220.944956 
L 356.774881 218.759114 
L 357.409766 227.211074 
L 358.04465 227.211074 
L 358.679535 224.952359 
L 359.314419 225.24381 
L 359.949304 236.318768 
L 361.219073 222.110762 
L 361.853957 227.575378 
L 362.488842 206.372647 
L 363.123726 226.045269 
L 363.758611 219.852046 
L 364.393495 220.726378 
L 365.02838 218.249085 
L 365.663264 230.927004 
L 366.298149 217.229027 
L 366.933033 220.070624 
L 367.567918 209.068518 
L 368.202803 213.221624 
L 368.837687 228.158259 
L 369.472572 216.718998 
L 370.107456 214.897459 
L 370.742341 227.138201 
L 371.377225 206.445499 
L 372.01211 219.196291 
L 372.646994 221.382133 
L 373.281879 221.01783 
L 373.916763 215.553214 
L 374.551648 215.261762 
L 375.186532 212.201566 
L 375.821417 224.515182 
L 376.456301 217.957634 
L 377.091186 215.553214 
L 377.72607 216.063243 
L 378.360955 210.234302 
L 378.995839 214.16883 
L 379.630724 219.269143 
L 380.265608 211.764411 
L 380.900493 211.254382 
L 381.535377 205.061137 
L 382.170262 231.291307 
L 382.805146 209.869998 
L 383.440031 209.432821 
L 384.074915 216.281821 
L 384.7098 203.458176 
L 385.344684 213.950253 
L 385.979569 208.412763 
L 386.614453 216.573272 
L 387.249338 220.726378 
L 387.884222 203.020999 
L 388.519107 217.010449 
L 389.153991 220.143497 
L 389.788876 208.631362 
L 390.423761 211.472959 
L 391.058645 226.190995 
L 391.69353 205.935469 
L 392.328414 205.789744 
L 392.963299 220.580653 
L 393.598183 220.362075 
L 394.233068 204.915411 
L 394.867952 208.631362 
L 395.502837 203.603902 
L 396.137721 208.412763 
L 396.772606 207.611282 
L 398.042375 202.000962 
L 398.677259 214.16883 
L 399.312144 207.319853 
L 399.947028 211.910136 
L 401.216797 198.576463 
L 401.851682 199.596521 
L 402.486566 207.53843 
L 403.121451 199.232196 
L 403.756335 209.578547 
L 404.39122 200.398001 
L 405.026104 210.380027 
L 405.660989 218.030507 
L 406.295873 212.128714 
L 406.930758 203.31245 
L 407.565642 196.754924 
L 408.200527 203.166725 
L 408.835411 193.549002 
L 409.470296 204.041079 
L 410.10518 197.192079 
L 410.740065 196.827754 
L 411.37495 197.046375 
L 412.009834 197.410657 
L 413.279603 208.339911 
L 413.914488 208.194185 
L 414.549372 205.935469 
L 415.184257 209.214243 
L 415.819141 205.498314 
L 416.454026 204.186804 
L 417.08891 201.782341 
L 417.723795 200.835157 
L 418.358679 209.359969 
L 418.993564 211.108656 
L 419.628448 197.192079 
L 420.263333 199.377943 
L 420.898217 197.046375 
L 421.533102 199.960802 
L 422.167986 196.317725 
L 422.802871 201.928089 
L 423.437755 195.151963 
L 424.07264 205.498314 
L 424.707524 201.855215 
L 425.342409 208.339911 
L 425.977293 195.807696 
L 426.612178 199.013618 
L 427.247062 197.629235 
L 427.881947 204.551108 
L 428.516831 190.34308 
L 429.151716 201.490933 
L 429.7866 199.450773 
L 430.421485 199.887972 
L 431.056369 195.006215 
L 431.691254 205.571166 
L 432.326138 206.008343 
L 432.961023 216.281821 
L 433.595908 201.41806 
L 434.230792 192.601817 
L 434.865677 199.669395 
L 435.500561 199.013618 
L 436.135446 191.290308 
L 436.77033 204.186804 
L 437.405215 195.589118 
L 438.674984 186.189973 
L 439.309868 192.310366 
L 439.944753 192.237492 
L 440.579637 195.88057 
L 441.214522 209.797146 
L 442.484291 189.250148 
L 443.119175 200.10655 
L 443.75406 198.503589 
L 444.388944 193.184677 
L 445.023829 186.262847 
L 445.658713 194.56906 
L 446.293598 194.423356 
L 446.928482 195.224837 
L 447.563367 199.596521 
L 448.198251 198.576463 
L 448.833136 186.335677 
L 449.46802 188.157259 
L 450.102905 197.483531 
L 450.737789 194.933385 
L 451.372674 188.812993 
L 452.007558 190.488827 
L 452.642443 185.169915 
L 453.277327 191.436012 
L 453.912212 193.76758 
L 454.547097 189.905924 
L 455.181981 197.629235 
L 455.816866 189.104444 
L 456.45175 196.827754 
L 457.086635 201.41806 
L 457.721519 201.272312 
L 458.356404 185.097041 
L 458.991288 184.441308 
L 459.626173 191.217434 
L 460.261057 194.204735 
L 460.895942 192.966099 
L 461.530826 191.363138 
L 462.165711 193.76758 
L 462.800595 189.760177 
L 463.43548 186.991454 
L 464.705249 192.310366 
L 465.340133 188.448667 
L 465.975018 186.772876 
L 466.609902 187.938638 
L 467.244787 194.059031 
L 467.879671 186.700002 
L 468.514556 191.946041 
L 469.14944 188.958697 
L 469.784325 192.45607 
L 470.419209 192.310366 
L 471.054094 191.217434 
L 471.688978 199.742225 
L 472.323863 199.450773 
L 472.958747 192.383196 
L 473.593632 188.23009 
L 474.228516 191.946041 
L 474.863401 181.016809 
L 475.498285 191.581716 
L 476.13317 186.044269 
L 476.768055 187.282905 
L 477.402939 196.900628 
L 478.037824 191.654589 
L 478.672708 188.23009 
L 479.307593 192.310366 
L 480.577362 183.639828 
L 481.847131 190.707405 
L 482.482015 179.851003 
L 483.1169 183.42125 
L 484.386669 192.747521 
L 485.021553 178.903819 
L 485.656438 180.652484 
L 486.291322 189.978798 
L 486.926207 186.189973 
L 487.561091 196.754924 
L 488.195976 190.270206 
L 488.83086 191.946041 
L 489.465745 192.237492 
L 490.100629 182.401192 
L 490.735514 198.430715 
L 491.370398 183.275503 
L 492.005283 178.539493 
L 492.640167 190.853109 
L 493.275052 186.84575 
L 493.909936 186.991454 
L 494.544821 181.38109 
L 495.179705 178.685241 
L 495.81459 189.177318 
L 496.449474 184.368435 
L 497.084359 193.111847 
L 497.719244 182.109741 
L 498.354128 189.978798 
L 498.989013 185.679944 
L 499.623897 185.825648 
L 500.258782 181.235386 
L 500.893666 178.758071 
L 501.528551 194.131905 
L 502.163435 188.011512 
L 502.79832 189.104444 
L 503.433204 183.712658 
L 504.068089 176.207926 
L 504.702973 175.916474 
L 505.337858 180.871061 
L 505.972742 183.202629 
L 506.607627 192.893225 
L 507.242511 180.798231 
L 507.877396 200.980904 
L 508.51228 175.843644 
L 509.147165 183.785532 
L 509.782049 184.659886 
L 510.416934 192.164619 
L 511.051818 178.102338 
L 511.686703 181.963993 
L 512.321587 191.290308 
L 512.956472 182.6926 
L 513.591356 180.50678 
L 514.226241 182.911221 
L 514.861125 188.157259 
L 515.49601 176.717955 
L 516.130894 182.474022 
L 516.765779 191.290308 
L 517.400663 177.446562 
L 518.035548 180.215328 
L 518.670433 177.519435 
L 519.305317 195.006215 
L 519.940202 178.248042 
L 520.575086 180.798231 
L 521.209971 187.355779 
L 521.844855 184.441308 
L 522.47974 193.913327 
L 523.114624 184.587012 
L 523.749509 178.102338 
L 524.384393 180.069581 
L 525.019278 190.270206 
L 525.654162 186.772876 
L 526.289047 181.818289 
L 526.923931 189.833051 
L 527.558816 192.820395 
L 528.1937 178.102338 
L 528.828585 189.323022 
L 529.463469 183.49408 
L 530.098354 175.042163 
L 530.733238 187.720061 
L 531.368123 185.097041 
L 532.003007 175.843644 
L 532.637892 175.406445 
L 533.272776 177.155154 
L 533.907661 176.135052 
L 534.542545 183.056925 
L 535.17743 171.981945 
L 535.812314 188.958697 
L 536.447199 175.989348 
L 537.082083 177.519435 
L 537.716968 182.328318 
L 538.351852 175.114994 
L 538.986737 175.843644 
L 540.256506 187.282905 
L 540.891391 170.74331 
L 541.526275 173.876358 
L 542.16116 175.989348 
L 542.796044 179.486721 
L 543.430929 179.559552 
L 544.065813 181.016809 
L 545.335582 171.54479 
L 545.970467 173.584906 
L 546.605351 182.036867 
L 547.240236 188.958697 
L 547.87512 179.632425 
L 548.510005 176.207926 
L 549.144889 180.798231 
L 549.779774 176.572251 
L 550.414658 176.280799 
L 551.049543 177.810887 
L 551.684427 177.155154 
L 552.319312 183.348376 
L 552.954196 178.539493 
L 553.589081 178.393789 
L 554.223965 177.592309 
L 554.85885 175.77077 
L 555.493734 179.122396 
L 556.128619 180.57961 
L 556.763503 175.697897 
L 557.398388 179.851003 
L 558.033272 192.820395 
L 558.668157 183.49408 
L 559.303041 179.486721 
L 559.937926 167.755965 
L 560.57281 175.552193 
L 561.207695 176.426503 
L 561.84258 181.38109 
L 562.477464 179.049523 
L 563.112349 179.705299 
L 563.747233 177.446562 
L 564.382118 178.539493 
L 565.017002 175.989348 
L 565.651887 172.8563 
L 566.286771 182.328318 
L 566.921656 178.758071 
L 567.55654 166.735907 
L 568.191425 174.094936 
L 568.826309 186.189973 
L 569.461194 168.047417 
L 570.096078 175.260741 
L 570.730963 171.034761 
L 571.365847 174.823542 
L 572.000732 181.016809 
L 572.635616 175.916474 
L 573.270501 167.464557 
L 573.905385 188.302963 
L 575.175154 173.293455 
L 575.810039 175.042163 
L 576.444923 167.537388 
L 577.079808 175.479319 
L 577.714692 176.645124 
L 578.349577 168.484615 
L 578.984461 162.655674 
L 579.619346 172.419144 
L 580.25423 175.114994 
L 580.889115 159.376879 
L 581.523999 167.537388 
L 582.158884 168.411742 
L 582.793768 175.114994 
L 583.428653 172.710596 
L 584.063538 173.293455 
L 584.698422 166.444456 
L 585.333307 167.974586 
L 585.968191 168.776067 
L 586.603076 168.047417 
L 587.872845 173.366329 
L 588.507729 169.4318 
L 589.142614 186.554298 
L 589.142614 186.554298 
" clip-path="url(#p8b6e5d6e0b)" style="fill: none; stroke: #ff7f0e; stroke-width: 1.5; stroke-linecap: square"/>
   </g>
   <g id="line2d_37">
    <path d="M 56.50625 555.871607 
L 614.50625 555.871607 
" clip-path="url(#p8b6e5d6e0b)" style="fill: none; stroke-dasharray: 11.1,4.8; stroke-dashoffset: 0; stroke: #ff0000; stroke-width: 3"/>
   </g>
   <g id="patch_3">
    <path d="M 56.50625 576.718125 
L 56.50625 22.318125 
" style="fill: none; stroke: #000000; stroke-width: 0.8; stroke-linejoin: miter; stroke-linecap: square"/>
   </g>
   <g id="patch_4">
    <path d="M 614.50625 576.718125 
L 614.50625 22.318125 
" style="fill: none; stroke: #000000; stroke-width: 0.8; stroke-linejoin: miter; stroke-linecap: square"/>
   </g>
   <g id="patch_5">
    <path d="M 56.50625 576.718125 
L 614.50625 576.718125 
" style="fill: none; stroke: #000000; stroke-width: 0.8; stroke-linejoin: miter; stroke-linecap: square"/>
   </g>
   <g id="patch_6">
    <path d="M 56.50625 22.318125 
L 614.50625 22.318125 
" style="fill: none; stroke: #000000; stroke-width: 0.8; stroke-linejoin: miter; stroke-linecap: square"/>
   </g>
   <g id="text_20">
    <!-- Train and Val Accuracy -->
    <g transform="translate(267.727813 16.318125) scale(0.12 -0.12)">
     <defs>
      <path id="DejaVuSans-54" d="M -19 4666 
L 3928 4666 
L 3928 4134 
L 2272 4134 
L 2272 0 
L 1638 0 
L 1638 4134 
L -19 4134 
L -19 4666 
z
" transform="scale(0.015625)"/>
      <path id="DejaVuSans-69" d="M 603 3500 
L 1178 3500 
L 1178 0 
L 603 0 
L 603 3500 
z
M 603 4863 
L 1178 4863 
L 1178 4134 
L 603 4134 
L 603 4863 
z
" transform="scale(0.015625)"/>
      <path id="DejaVuSans-6e" d="M 3513 2113 
L 3513 0 
L 2938 0 
L 2938 2094 
Q 2938 2591 2744 2837 
Q 2550 3084 2163 3084 
Q 1697 3084 1428 2787 
Q 1159 2491 1159 1978 
L 1159 0 
L 581 0 
L 581 3500 
L 1159 3500 
L 1159 2956 
Q 1366 3272 1645 3428 
Q 1925 3584 2291 3584 
Q 2894 3584 3203 3211 
Q 3513 2838 3513 2113 
z
" transform="scale(0.015625)"/>
      <path id="DejaVuSans-20" transform="scale(0.015625)"/>
      <path id="DejaVuSans-64" d="M 2906 2969 
L 2906 4863 
L 3481 4863 
L 3481 0 
L 2906 0 
L 2906 525 
Q 2725 213 2448 61 
Q 2172 -91 1784 -91 
Q 1150 -91 751 415 
Q 353 922 353 1747 
Q 353 2572 751 3078 
Q 1150 3584 1784 3584 
Q 2172 3584 2448 3432 
Q 2725 3281 2906 2969 
z
M 947 1747 
Q 947 1113 1208 752 
Q 1469 391 1925 391 
Q 2381 391 2643 752 
Q 2906 1113 2906 1747 
Q 2906 2381 2643 2742 
Q 2381 3103 1925 3103 
Q 1469 3103 1208 2742 
Q 947 2381 947 1747 
z
" transform="scale(0.015625)"/>
      <path id="DejaVuSans-56" d="M 1831 0 
L 50 4666 
L 709 4666 
L 2188 738 
L 3669 4666 
L 4325 4666 
L 2547 0 
L 1831 0 
z
" transform="scale(0.015625)"/>
      <path id="DejaVuSans-6c" d="M 603 4863 
L 1178 4863 
L 1178 0 
L 603 0 
L 603 4863 
z
" transform="scale(0.015625)"/>
     </defs>
     <use xlink:href="#DejaVuSans-54"/>
     <use xlink:href="#DejaVuSans-72" transform="translate(46.333984 0)"/>
     <use xlink:href="#DejaVuSans-61" transform="translate(87.447266 0)"/>
     <use xlink:href="#DejaVuSans-69" transform="translate(148.726562 0)"/>
     <use xlink:href="#DejaVuSans-6e" transform="translate(176.509766 0)"/>
     <use xlink:href="#DejaVuSans-20" transform="translate(239.888672 0)"/>
     <use xlink:href="#DejaVuSans-61" transform="translate(271.675781 0)"/>
     <use xlink:href="#DejaVuSans-6e" transform="translate(332.955078 0)"/>
     <use xlink:href="#DejaVuSans-64" transform="translate(396.333984 0)"/>
     <use xlink:href="#DejaVuSans-20" transform="translate(459.810547 0)"/>
     <use xlink:href="#DejaVuSans-56" transform="translate(491.597656 0)"/>
     <use xlink:href="#DejaVuSans-61" transform="translate(552.255859 0)"/>
     <use xlink:href="#DejaVuSans-6c" transform="translate(613.535156 0)"/>
     <use xlink:href="#DejaVuSans-20" transform="translate(641.318359 0)"/>
     <use xlink:href="#DejaVuSans-41" transform="translate(673.105469 0)"/>
     <use xlink:href="#DejaVuSans-63" transform="translate(739.763672 0)"/>
     <use xlink:href="#DejaVuSans-63" transform="translate(794.744141 0)"/>
     <use xlink:href="#DejaVuSans-75" transform="translate(849.724609 0)"/>
     <use xlink:href="#DejaVuSans-72" transform="translate(913.103516 0)"/>
     <use xlink:href="#DejaVuSans-61" transform="translate(954.216797 0)"/>
     <use xlink:href="#DejaVuSans-63" transform="translate(1015.496094 0)"/>
     <use xlink:href="#DejaVuSans-79" transform="translate(1070.476562 0)"/>
    </g>
   </g>
   <g id="legend_1">
    <g id="patch_7">
     <path d="M 63.50625 74.90875 
L 230.629687 74.90875 
Q 232.629687 74.90875 232.629687 72.90875 
L 232.629687 29.318125 
Q 232.629687 27.318125 230.629687 27.318125 
L 63.50625 27.318125 
Q 61.50625 27.318125 61.50625 29.318125 
L 61.50625 72.90875 
Q 61.50625 74.90875 63.50625 74.90875 
z
" style="fill: #ffffff; opacity: 0.8; stroke: #cccccc; stroke-linejoin: miter"/>
    </g>
    <g id="line2d_38">
     <path d="M 65.50625 35.416562 
L 75.50625 35.416562 
L 85.50625 35.416562 
" style="fill: none; stroke: #1f77b4; stroke-width: 1.5; stroke-linecap: square"/>
    </g>
    <g id="text_21">
     <!-- train_accuracy -->
     <g transform="translate(93.50625 38.916562) scale(0.1 -0.1)">
      <defs>
       <path id="DejaVuSans-74" d="M 1172 4494 
L 1172 3500 
L 2356 3500 
L 2356 3053 
L 1172 3053 
L 1172 1153 
Q 1172 725 1289 603 
Q 1406 481 1766 481 
L 2356 481 
L 2356 0 
L 1766 0 
Q 1100 0 847 248 
Q 594 497 594 1153 
L 594 3053 
L 172 3053 
L 172 3500 
L 594 3500 
L 594 4494 
L 1172 4494 
z
" transform="scale(0.015625)"/>
       <path id="DejaVuSans-5f" d="M 3263 -1063 
L 3263 -1509 
L -63 -1509 
L -63 -1063 
L 3263 -1063 
z
" transform="scale(0.015625)"/>
      </defs>
      <use xlink:href="#DejaVuSans-74"/>
      <use xlink:href="#DejaVuSans-72" transform="translate(39.208984 0)"/>
      <use xlink:href="#DejaVuSans-61" transform="translate(80.322266 0)"/>
      <use xlink:href="#DejaVuSans-69" transform="translate(141.601562 0)"/>
      <use xlink:href="#DejaVuSans-6e" transform="translate(169.384766 0)"/>
      <use xlink:href="#DejaVuSans-5f" transform="translate(232.763672 0)"/>
      <use xlink:href="#DejaVuSans-61" transform="translate(282.763672 0)"/>
      <use xlink:href="#DejaVuSans-63" transform="translate(344.042969 0)"/>
      <use xlink:href="#DejaVuSans-63" transform="translate(399.023438 0)"/>
      <use xlink:href="#DejaVuSans-75" transform="translate(454.003906 0)"/>
      <use xlink:href="#DejaVuSans-72" transform="translate(517.382812 0)"/>
      <use xlink:href="#DejaVuSans-61" transform="translate(558.496094 0)"/>
      <use xlink:href="#DejaVuSans-63" transform="translate(619.775391 0)"/>
      <use xlink:href="#DejaVuSans-79" transform="translate(674.755859 0)"/>
     </g>
    </g>
    <g id="line2d_39">
     <path d="M 65.50625 50.372812 
L 75.50625 50.372812 
L 85.50625 50.372812 
" style="fill: none; stroke: #ff7f0e; stroke-width: 1.5; stroke-linecap: square"/>
    </g>
    <g id="text_22">
     <!-- val_accuracy -->
     <g transform="translate(93.50625 53.872812) scale(0.1 -0.1)">
      <defs>
       <path id="DejaVuSans-76" d="M 191 3500 
L 800 3500 
L 1894 563 
L 2988 3500 
L 3597 3500 
L 2284 0 
L 1503 0 
L 191 3500 
z
" transform="scale(0.015625)"/>
      </defs>
      <use xlink:href="#DejaVuSans-76"/>
      <use xlink:href="#DejaVuSans-61" transform="translate(59.179688 0)"/>
      <use xlink:href="#DejaVuSans-6c" transform="translate(120.458984 0)"/>
      <use xlink:href="#DejaVuSans-5f" transform="translate(148.242188 0)"/>
      <use xlink:href="#DejaVuSans-61" transform="translate(198.242188 0)"/>
      <use xlink:href="#DejaVuSans-63" transform="translate(259.521484 0)"/>
      <use xlink:href="#DejaVuSans-63" transform="translate(314.501953 0)"/>
      <use xlink:href="#DejaVuSans-75" transform="translate(369.482422 0)"/>
      <use xlink:href="#DejaVuSans-72" transform="translate(432.861328 0)"/>
      <use xlink:href="#DejaVuSans-61" transform="translate(473.974609 0)"/>
      <use xlink:href="#DejaVuSans-63" transform="translate(535.253906 0)"/>
      <use xlink:href="#DejaVuSans-79" transform="translate(590.234375 0)"/>
     </g>
    </g>
    <g id="line2d_40">
     <path d="M 65.50625 65.329062 
L 75.50625 65.329062 
L 85.50625 65.329062 
" style="fill: none; stroke-dasharray: 11.1,4.8; stroke-dashoffset: 0; stroke: #ff0000; stroke-width: 3"/>
    </g>
    <g id="text_23">
     <!-- Random-Guesser Accuracy -->
     <g transform="translate(93.50625 68.829062) scale(0.1 -0.1)">
      <defs>
       <path id="DejaVuSans-52" d="M 2841 2188 
Q 3044 2119 3236 1894 
Q 3428 1669 3622 1275 
L 4263 0 
L 3584 0 
L 2988 1197 
Q 2756 1666 2539 1819 
Q 2322 1972 1947 1972 
L 1259 1972 
L 1259 0 
L 628 0 
L 628 4666 
L 2053 4666 
Q 2853 4666 3247 4331 
Q 3641 3997 3641 3322 
Q 3641 2881 3436 2590 
Q 3231 2300 2841 2188 
z
M 1259 4147 
L 1259 2491 
L 2053 2491 
Q 2509 2491 2742 2702 
Q 2975 2913 2975 3322 
Q 2975 3731 2742 3939 
Q 2509 4147 2053 4147 
L 1259 4147 
z
" transform="scale(0.015625)"/>
       <path id="DejaVuSans-6d" d="M 3328 2828 
Q 3544 3216 3844 3400 
Q 4144 3584 4550 3584 
Q 5097 3584 5394 3201 
Q 5691 2819 5691 2113 
L 5691 0 
L 5113 0 
L 5113 2094 
Q 5113 2597 4934 2840 
Q 4756 3084 4391 3084 
Q 3944 3084 3684 2787 
Q 3425 2491 3425 1978 
L 3425 0 
L 2847 0 
L 2847 2094 
Q 2847 2600 2669 2842 
Q 2491 3084 2119 3084 
Q 1678 3084 1418 2786 
Q 1159 2488 1159 1978 
L 1159 0 
L 581 0 
L 581 3500 
L 1159 3500 
L 1159 2956 
Q 1356 3278 1631 3431 
Q 1906 3584 2284 3584 
Q 2666 3584 2933 3390 
Q 3200 3197 3328 2828 
z
" transform="scale(0.015625)"/>
       <path id="DejaVuSans-2d" d="M 313 2009 
L 1997 2009 
L 1997 1497 
L 313 1497 
L 313 2009 
z
" transform="scale(0.015625)"/>
       <path id="DejaVuSans-47" d="M 3809 666 
L 3809 1919 
L 2778 1919 
L 2778 2438 
L 4434 2438 
L 4434 434 
Q 4069 175 3628 42 
Q 3188 -91 2688 -91 
Q 1594 -91 976 548 
Q 359 1188 359 2328 
Q 359 3472 976 4111 
Q 1594 4750 2688 4750 
Q 3144 4750 3555 4637 
Q 3966 4525 4313 4306 
L 4313 3634 
Q 3963 3931 3569 4081 
Q 3175 4231 2741 4231 
Q 1884 4231 1454 3753 
Q 1025 3275 1025 2328 
Q 1025 1384 1454 906 
Q 1884 428 2741 428 
Q 3075 428 3337 486 
Q 3600 544 3809 666 
z
" transform="scale(0.015625)"/>
       <path id="DejaVuSans-65" d="M 3597 1894 
L 3597 1613 
L 953 1613 
Q 991 1019 1311 708 
Q 1631 397 2203 397 
Q 2534 397 2845 478 
Q 3156 559 3463 722 
L 3463 178 
Q 3153 47 2828 -22 
Q 2503 -91 2169 -91 
Q 1331 -91 842 396 
Q 353 884 353 1716 
Q 353 2575 817 3079 
Q 1281 3584 2069 3584 
Q 2775 3584 3186 3129 
Q 3597 2675 3597 1894 
z
M 3022 2063 
Q 3016 2534 2758 2815 
Q 2500 3097 2075 3097 
Q 1594 3097 1305 2825 
Q 1016 2553 972 2059 
L 3022 2063 
z
" transform="scale(0.015625)"/>
      </defs>
      <use xlink:href="#DejaVuSans-52"/>
      <use xlink:href="#DejaVuSans-61" transform="translate(67.232422 0)"/>
      <use xlink:href="#DejaVuSans-6e" transform="translate(128.511719 0)"/>
      <use xlink:href="#DejaVuSans-64" transform="translate(191.890625 0)"/>
      <use xlink:href="#DejaVuSans-6f" transform="translate(255.367188 0)"/>
      <use xlink:href="#DejaVuSans-6d" transform="translate(316.548828 0)"/>
      <use xlink:href="#DejaVuSans-2d" transform="translate(413.960938 0)"/>
      <use xlink:href="#DejaVuSans-47" transform="translate(453.669922 0)"/>
      <use xlink:href="#DejaVuSans-75" transform="translate(531.160156 0)"/>
      <use xlink:href="#DejaVuSans-65" transform="translate(594.539062 0)"/>
      <use xlink:href="#DejaVuSans-73" transform="translate(656.0625 0)"/>
      <use xlink:href="#DejaVuSans-73" transform="translate(708.162109 0)"/>
      <use xlink:href="#DejaVuSans-65" transform="translate(760.261719 0)"/>
      <use xlink:href="#DejaVuSans-72" transform="translate(821.785156 0)"/>
      <use xlink:href="#DejaVuSans-20" transform="translate(862.898438 0)"/>
      <use xlink:href="#DejaVuSans-41" transform="translate(894.685547 0)"/>
      <use xlink:href="#DejaVuSans-63" transform="translate(961.34375 0)"/>
      <use xlink:href="#DejaVuSans-63" transform="translate(1016.324219 0)"/>
      <use xlink:href="#DejaVuSans-75" transform="translate(1071.304688 0)"/>
      <use xlink:href="#DejaVuSans-72" transform="translate(1134.683594 0)"/>
      <use xlink:href="#DejaVuSans-61" transform="translate(1175.796875 0)"/>
      <use xlink:href="#DejaVuSans-63" transform="translate(1237.076172 0)"/>
      <use xlink:href="#DejaVuSans-79" transform="translate(1292.056641 0)"/>
     </g>
    </g>
   </g>
  </g>
 </g>
 <defs>
  <clipPath id="p8b6e5d6e0b">
   <rect x="56.50625" y="22.318125" width="558" height="554.4"/>
  </clipPath>
 </defs>
</svg>
