<?xml version="1.0" encoding="utf-8" standalone="no"?>
<!DOCTYPE svg PUBLIC "-//W3C//DTD SVG 1.1//EN"
  "http://www.w3.org/Graphics/SVG/1.1/DTD/svg11.dtd">
<svg xmlns:xlink="http://www.w3.org/1999/xlink" width="608.98125pt" height="614.274375pt" viewBox="0 0 608.98125 614.274375" xmlns="http://www.w3.org/2000/svg" version="1.1">
 <metadata>
  <rdf:RDF xmlns:dc="http://purl.org/dc/elements/1.1/" xmlns:cc="http://creativecommons.org/ns#" xmlns:rdf="http://www.w3.org/1999/02/22-rdf-syntax-ns#">
   <cc:Work>
    <dc:type rdf:resource="http://purl.org/dc/dcmitype/StillImage"/>
    <dc:date>2026-05-30T23:14:17.113423</dc:date>
    <dc:format>image/svg+xml</dc:format>
    <dc:creator>
     <cc:Agent>
      <dc:title>Matplotlib v3.10.9, https://matplotlib.org/</dc:title>
     </cc:Agent>
    </dc:creator>
   </cc:Work>
  </rdf:RDF>
 </metadata>
 <defs>
  <style type="text/css">*{stroke-linejoin: round; stroke-linecap: butt}</style>
 </defs>
 <g id="figure_1">
  <g id="patch_1">
   <path d="M 0 614.274375 
L 608.98125 614.274375 
L 608.98125 0 
L 0 0 
z
" style="fill: #ffffff"/>
  </g>
  <g id="axes_1">
   <g id="patch_2">
    <path d="M 43.78125 576.718125 
L 601.78125 576.718125 
L 601.78125 22.318125 
L 43.78125 22.318125 
z
" style="fill: #ffffff"/>
   </g>
   <g id="matplotlib.axis_1">
    <g id="xtick_1">
     <g id="line2d_1">
      <path d="M 69.144886 576.718125 
L 69.144886 22.318125 
" clip-path="url(#pd6fed3d4ec)" style="fill: none; stroke: #b0b0b0; stroke-width: 0.8; stroke-linecap: square"/>
     </g>
     <g id="line2d_2">
      <defs>
       <path id="m6dd0761ec4" d="M 0 0 
L 0 3.5 
" style="stroke: #000000; stroke-width: 0.8"/>
      </defs>
      <g>
       <use xlink:href="#m6dd0761ec4" x="69.144886" y="576.718125" style="stroke: #000000; stroke-width: 0.8"/>
      </g>
     </g>
     <g id="text_1">
      <!-- 0 -->
      <g transform="translate(65.963636 591.316563) scale(0.1 -0.1)">
       <defs>
        <path id="DejaVuSans-30" d="M 2034 4250 
Q 1547 4250 1301 3770 
Q 1056 3291 1056 2328 
Q 1056 1369 1301 889 
Q 1547 409 2034 409 
Q 2525 409 2770 889 
Q 3016 1369 3016 2328 
Q 3016 3291 2770 3770 
Q 2525 4250 2034 4250 
z
M 2034 4750 
Q 2819 4750 3233 4129 
Q 3647 3509 3647 2328 
Q 3647 1150 3233 529 
Q 2819 -91 2034 -91 
Q 1250 -91 836 529 
Q 422 1150 422 2328 
Q 422 3509 836 4129 
Q 1250 4750 2034 4750 
z
" transform="scale(0.015625)"/>
       </defs>
       <use xlink:href="#DejaVuSans-30"/>
      </g>
     </g>
    </g>
    <g id="xtick_2">
     <g id="line2d_3">
      <path d="M 132.633338 576.718125 
L 132.633338 22.318125 
" clip-path="url(#pd6fed3d4ec)" style="fill: none; stroke: #b0b0b0; stroke-width: 0.8; stroke-linecap: square"/>
     </g>
     <g id="line2d_4">
      <g>
       <use xlink:href="#m6dd0761ec4" x="132.633338" y="576.718125" style="stroke: #000000; stroke-width: 0.8"/>
      </g>
     </g>
     <g id="text_2">
      <!-- 100 -->
      <g transform="translate(123.089588 591.316563) scale(0.1 -0.1)">
       <defs>
        <path id="DejaVuSans-31" d="M 794 531 
L 1825 531 
L 1825 4091 
L 703 3866 
L 703 4441 
L 1819 4666 
L 2450 4666 
L 2450 531 
L 3481 531 
L 3481 0 
L 794 0 
L 794 531 
z
" transform="scale(0.015625)"/>
       </defs>
       <use xlink:href="#DejaVuSans-31"/>
       <use xlink:href="#DejaVuSans-30" transform="translate(63.623047 0)"/>
       <use xlink:href="#DejaVuSans-30" transform="translate(127.246094 0)"/>
      </g>
     </g>
    </g>
    <g id="xtick_3">
     <g id="line2d_5">
      <path d="M 196.121789 576.718125 
L 196.121789 22.318125 
" clip-path="url(#pd6fed3d4ec)" style="fill: none; stroke: #b0b0b0; stroke-width: 0.8; stroke-linecap: square"/>
     </g>
     <g id="line2d_6">
      <g>
       <use xlink:href="#m6dd0761ec4" x="196.121789" y="576.718125" style="stroke: #000000; stroke-width: 0.8"/>
      </g>
     </g>
     <g id="text_3">
      <!-- 200 -->
      <g transform="translate(186.578039 591.316563) scale(0.1 -0.1)">
       <defs>
        <path id="DejaVuSans-32" d="M 1228 531 
L 3431 531 
L 3431 0 
L 469 0 
L 469 531 
Q 828 903 1448 1529 
Q 2069 2156 2228 2338 
Q 2531 2678 2651 2914 
Q 2772 3150 2772 3378 
Q 2772 3750 2511 3984 
Q 2250 4219 1831 4219 
Q 1534 4219 1204 4116 
Q 875 4013 500 3803 
L 500 4441 
Q 881 4594 1212 4672 
Q 1544 4750 1819 4750 
Q 2544 4750 2975 4387 
Q 3406 4025 3406 3419 
Q 3406 3131 3298 2873 
Q 3191 2616 2906 2266 
Q 2828 2175 2409 1742 
Q 1991 1309 1228 531 
z
" transform="scale(0.015625)"/>
       </defs>
       <use xlink:href="#DejaVuSans-32"/>
       <use xlink:href="#DejaVuSans-30" transform="translate(63.623047 0)"/>
       <use xlink:href="#DejaVuSans-30" transform="translate(127.246094 0)"/>
      </g>
     </g>
    </g>
    <g id="xtick_4">
     <g id="line2d_7">
      <path d="M 259.610241 576.718125 
L 259.610241 22.318125 
" clip-path="url(#pd6fed3d4ec)" style="fill: none; stroke: #b0b0b0; stroke-width: 0.8; stroke-linecap: square"/>
     </g>
     <g id="line2d_8">
      <g>
       <use xlink:href="#m6dd0761ec4" x="259.610241" y="576.718125" style="stroke: #000000; stroke-width: 0.8"/>
      </g>
     </g>
     <g id="text_4">
      <!-- 300 -->
      <g transform="translate(250.066491 591.316563) scale(0.1 -0.1)">
       <defs>
        <path id="DejaVuSans-33" d="M 2597 2516 
Q 3050 2419 3304 2112 
Q 3559 1806 3559 1356 
Q 3559 666 3084 287 
Q 2609 -91 1734 -91 
Q 1441 -91 1130 -33 
Q 819 25 488 141 
L 488 750 
Q 750 597 1062 519 
Q 1375 441 1716 441 
Q 2309 441 2620 675 
Q 2931 909 2931 1356 
Q 2931 1769 2642 2001 
Q 2353 2234 1838 2234 
L 1294 2234 
L 1294 2753 
L 1863 2753 
Q 2328 2753 2575 2939 
Q 2822 3125 2822 3475 
Q 2822 3834 2567 4026 
Q 2313 4219 1838 4219 
Q 1578 4219 1281 4162 
Q 984 4106 628 3988 
L 628 4550 
Q 988 4650 1302 4700 
Q 1616 4750 1894 4750 
Q 2613 4750 3031 4423 
Q 3450 4097 3450 3541 
Q 3450 3153 3228 2886 
Q 3006 2619 2597 2516 
z
" transform="scale(0.015625)"/>
       </defs>
       <use xlink:href="#DejaVuSans-33"/>
       <use xlink:href="#DejaVuSans-30" transform="translate(63.623047 0)"/>
       <use xlink:href="#DejaVuSans-30" transform="translate(127.246094 0)"/>
      </g>
     </g>
    </g>
    <g id="xtick_5">
     <g id="line2d_9">
      <path d="M 323.098692 576.718125 
L 323.098692 22.318125 
" clip-path="url(#pd6fed3d4ec)" style="fill: none; stroke: #b0b0b0; stroke-width: 0.8; stroke-linecap: square"/>
     </g>
     <g id="line2d_10">
      <g>
       <use xlink:href="#m6dd0761ec4" x="323.098692" y="576.718125" style="stroke: #000000; stroke-width: 0.8"/>
      </g>
     </g>
     <g id="text_5">
      <!-- 400 -->
      <g transform="translate(313.554942 591.316563) scale(0.1 -0.1)">
       <defs>
        <path id="DejaVuSans-34" d="M 2419 4116 
L 825 1625 
L 2419 1625 
L 2419 4116 
z
M 2253 4666 
L 3047 4666 
L 3047 1625 
L 3713 1625 
L 3713 1100 
L 3047 1100 
L 3047 0 
L 2419 0 
L 2419 1100 
L 313 1100 
L 313 1709 
L 2253 4666 
z
" transform="scale(0.015625)"/>
       </defs>
       <use xlink:href="#DejaVuSans-34"/>
       <use xlink:href="#DejaVuSans-30" transform="translate(63.623047 0)"/>
       <use xlink:href="#DejaVuSans-30" transform="translate(127.246094 0)"/>
      </g>
     </g>
    </g>
    <g id="xtick_6">
     <g id="line2d_11">
      <path d="M 386.587144 576.718125 
L 386.587144 22.318125 
" clip-path="url(#pd6fed3d4ec)" style="fill: none; stroke: #b0b0b0; stroke-width: 0.8; stroke-linecap: square"/>
     </g>
     <g id="line2d_12">
      <g>
       <use xlink:href="#m6dd0761ec4" x="386.587144" y="576.718125" style="stroke: #000000; stroke-width: 0.8"/>
      </g>
     </g>
     <g id="text_6">
      <!-- 500 -->
      <g transform="translate(377.043394 591.316563) scale(0.1 -0.1)">
       <defs>
        <path id="DejaVuSans-35" d="M 691 4666 
L 3169 4666 
L 3169 4134 
L 1269 4134 
L 1269 2991 
Q 1406 3038 1543 3061 
Q 1681 3084 1819 3084 
Q 2600 3084 3056 2656 
Q 3513 2228 3513 1497 
Q 3513 744 3044 326 
Q 2575 -91 1722 -91 
Q 1428 -91 1123 -41 
Q 819 9 494 109 
L 494 744 
Q 775 591 1075 516 
Q 1375 441 1709 441 
Q 2250 441 2565 725 
Q 2881 1009 2881 1497 
Q 2881 1984 2565 2268 
Q 2250 2553 1709 2553 
Q 1456 2553 1204 2497 
Q 953 2441 691 2322 
L 691 4666 
z
" transform="scale(0.015625)"/>
       </defs>
       <use xlink:href="#DejaVuSans-35"/>
       <use xlink:href="#DejaVuSans-30" transform="translate(63.623047 0)"/>
       <use xlink:href="#DejaVuSans-30" transform="translate(127.246094 0)"/>
      </g>
     </g>
    </g>
    <g id="xtick_7">
     <g id="line2d_13">
      <path d="M 450.075595 576.718125 
L 450.075595 22.318125 
" clip-path="url(#pd6fed3d4ec)" style="fill: none; stroke: #b0b0b0; stroke-width: 0.8; stroke-linecap: square"/>
     </g>
     <g id="line2d_14">
      <g>
       <use xlink:href="#m6dd0761ec4" x="450.075595" y="576.718125" style="stroke: #000000; stroke-width: 0.8"/>
      </g>
     </g>
     <g id="text_7">
      <!-- 600 -->
      <g transform="translate(440.531845 591.316563) scale(0.1 -0.1)">
       <defs>
        <path id="DejaVuSans-36" d="M 2113 2584 
Q 1688 2584 1439 2293 
Q 1191 2003 1191 1497 
Q 1191 994 1439 701 
Q 1688 409 2113 409 
Q 2538 409 2786 701 
Q 3034 994 3034 1497 
Q 3034 2003 2786 2293 
Q 2538 2584 2113 2584 
z
M 3366 4563 
L 3366 3988 
Q 3128 4100 2886 4159 
Q 2644 4219 2406 4219 
Q 1781 4219 1451 3797 
Q 1122 3375 1075 2522 
Q 1259 2794 1537 2939 
Q 1816 3084 2150 3084 
Q 2853 3084 3261 2657 
Q 3669 2231 3669 1497 
Q 3669 778 3244 343 
Q 2819 -91 2113 -91 
Q 1303 -91 875 529 
Q 447 1150 447 2328 
Q 447 3434 972 4092 
Q 1497 4750 2381 4750 
Q 2619 4750 2861 4703 
Q 3103 4656 3366 4563 
z
" transform="scale(0.015625)"/>
       </defs>
       <use xlink:href="#DejaVuSans-36"/>
       <use xlink:href="#DejaVuSans-30" transform="translate(63.623047 0)"/>
       <use xlink:href="#DejaVuSans-30" transform="translate(127.246094 0)"/>
      </g>
     </g>
    </g>
    <g id="xtick_8">
     <g id="line2d_15">
      <path d="M 513.564047 576.718125 
L 513.564047 22.318125 
" clip-path="url(#pd6fed3d4ec)" style="fill: none; stroke: #b0b0b0; stroke-width: 0.8; stroke-linecap: square"/>
     </g>
     <g id="line2d_16">
      <g>
       <use xlink:href="#m6dd0761ec4" x="513.564047" y="576.718125" style="stroke: #000000; stroke-width: 0.8"/>
      </g>
     </g>
     <g id="text_8">
      <!-- 700 -->
      <g transform="translate(504.020297 591.316563) scale(0.1 -0.1)">
       <defs>
        <path id="DejaVuSans-37" d="M 525 4666 
L 3525 4666 
L 3525 4397 
L 1831 0 
L 1172 0 
L 2766 4134 
L 525 4134 
L 525 4666 
z
" transform="scale(0.015625)"/>
       </defs>
       <use xlink:href="#DejaVuSans-37"/>
       <use xlink:href="#DejaVuSans-30" transform="translate(63.623047 0)"/>
       <use xlink:href="#DejaVuSans-30" transform="translate(127.246094 0)"/>
      </g>
     </g>
    </g>
    <g id="xtick_9">
     <g id="line2d_17">
      <path d="M 577.052498 576.718125 
L 577.052498 22.318125 
" clip-path="url(#pd6fed3d4ec)" style="fill: none; stroke: #b0b0b0; stroke-width: 0.8; stroke-linecap: square"/>
     </g>
     <g id="line2d_18">
      <g>
       <use xlink:href="#m6dd0761ec4" x="577.052498" y="576.718125" style="stroke: #000000; stroke-width: 0.8"/>
      </g>
     </g>
     <g id="text_9">
      <!-- 800 -->
      <g transform="translate(567.508748 591.316563) scale(0.1 -0.1)">
       <defs>
        <path id="DejaVuSans-38" d="M 2034 2216 
Q 1584 2216 1326 1975 
Q 1069 1734 1069 1313 
Q 1069 891 1326 650 
Q 1584 409 2034 409 
Q 2484 409 2743 651 
Q 3003 894 3003 1313 
Q 3003 1734 2745 1975 
Q 2488 2216 2034 2216 
z
M 1403 2484 
Q 997 2584 770 2862 
Q 544 3141 544 3541 
Q 544 4100 942 4425 
Q 1341 4750 2034 4750 
Q 2731 4750 3128 4425 
Q 3525 4100 3525 3541 
Q 3525 3141 3298 2862 
Q 3072 2584 2669 2484 
Q 3125 2378 3379 2068 
Q 3634 1759 3634 1313 
Q 3634 634 3220 271 
Q 2806 -91 2034 -91 
Q 1263 -91 848 271 
Q 434 634 434 1313 
Q 434 1759 690 2068 
Q 947 2378 1403 2484 
z
M 1172 3481 
Q 1172 3119 1398 2916 
Q 1625 2713 2034 2713 
Q 2441 2713 2670 2916 
Q 2900 3119 2900 3481 
Q 2900 3844 2670 4047 
Q 2441 4250 2034 4250 
Q 1625 4250 1398 4047 
Q 1172 3844 1172 3481 
z
" transform="scale(0.015625)"/>
       </defs>
       <use xlink:href="#DejaVuSans-38"/>
       <use xlink:href="#DejaVuSans-30" transform="translate(63.623047 0)"/>
       <use xlink:href="#DejaVuSans-30" transform="translate(127.246094 0)"/>
      </g>
     </g>
    </g>
    <g id="text_10">
     <!-- Epochs -->
     <g transform="translate(304.865625 604.994688) scale(0.1 -0.1)">
      <defs>
       <path id="DejaVuSans-45" d="M 628 4666 
L 3578 4666 
L 3578 4134 
L 1259 4134 
L 1259 2753 
L 3481 2753 
L 3481 2222 
L 1259 2222 
L 1259 531 
L 3634 531 
L 3634 0 
L 628 0 
L 628 4666 
z
" transform="scale(0.015625)"/>
       <path id="DejaVuSans-70" d="M 1159 525 
L 1159 -1331 
L 581 -1331 
L 581 3500 
L 1159 3500 
L 1159 2969 
Q 1341 3281 1617 3432 
Q 1894 3584 2278 3584 
Q 2916 3584 3314 3078 
Q 3713 2572 3713 1747 
Q 3713 922 3314 415 
Q 2916 -91 2278 -91 
Q 1894 -91 1617 61 
Q 1341 213 1159 525 
z
M 3116 1747 
Q 3116 2381 2855 2742 
Q 2594 3103 2138 3103 
Q 1681 3103 1420 2742 
Q 1159 2381 1159 1747 
Q 1159 1113 1420 752 
Q 1681 391 2138 391 
Q 2594 391 2855 752 
Q 3116 1113 3116 1747 
z
" transform="scale(0.015625)"/>
       <path id="DejaVuSans-6f" d="M 1959 3097 
Q 1497 3097 1228 2736 
Q 959 2375 959 1747 
Q 959 1119 1226 758 
Q 1494 397 1959 397 
Q 2419 397 2687 759 
Q 2956 1122 2956 1747 
Q 2956 2369 2687 2733 
Q 2419 3097 1959 3097 
z
M 1959 3584 
Q 2709 3584 3137 3096 
Q 3566 2609 3566 1747 
Q 3566 888 3137 398 
Q 2709 -91 1959 -91 
Q 1206 -91 779 398 
Q 353 888 353 1747 
Q 353 2609 779 3096 
Q 1206 3584 1959 3584 
z
" transform="scale(0.015625)"/>
       <path id="DejaVuSans-63" d="M 3122 3366 
L 3122 2828 
Q 2878 2963 2633 3030 
Q 2388 3097 2138 3097 
Q 1578 3097 1268 2742 
Q 959 2388 959 1747 
Q 959 1106 1268 751 
Q 1578 397 2138 397 
Q 2388 397 2633 464 
Q 2878 531 3122 666 
L 3122 134 
Q 2881 22 2623 -34 
Q 2366 -91 2075 -91 
Q 1284 -91 818 406 
Q 353 903 353 1747 
Q 353 2603 823 3093 
Q 1294 3584 2113 3584 
Q 2378 3584 2631 3529 
Q 2884 3475 3122 3366 
z
" transform="scale(0.015625)"/>
       <path id="DejaVuSans-68" d="M 3513 2113 
L 3513 0 
L 2938 0 
L 2938 2094 
Q 2938 2591 2744 2837 
Q 2550 3084 2163 3084 
Q 1697 3084 1428 2787 
Q 1159 2491 1159 1978 
L 1159 0 
L 581 0 
L 581 4863 
L 1159 4863 
L 1159 2956 
Q 1366 3272 1645 3428 
Q 1925 3584 2291 3584 
Q 2894 3584 3203 3211 
Q 3513 2838 3513 2113 
z
" transform="scale(0.015625)"/>
       <path id="DejaVuSans-73" d="M 2834 3397 
L 2834 2853 
Q 2591 2978 2328 3040 
Q 2066 3103 1784 3103 
Q 1356 3103 1142 2972 
Q 928 2841 928 2578 
Q 928 2378 1081 2264 
Q 1234 2150 1697 2047 
L 1894 2003 
Q 2506 1872 2764 1633 
Q 3022 1394 3022 966 
Q 3022 478 2636 193 
Q 2250 -91 1575 -91 
Q 1294 -91 989 -36 
Q 684 19 347 128 
L 347 722 
Q 666 556 975 473 
Q 1284 391 1588 391 
Q 1994 391 2212 530 
Q 2431 669 2431 922 
Q 2431 1156 2273 1281 
Q 2116 1406 1581 1522 
L 1381 1569 
Q 847 1681 609 1914 
Q 372 2147 372 2553 
Q 372 3047 722 3315 
Q 1072 3584 1716 3584 
Q 2034 3584 2315 3537 
Q 2597 3491 2834 3397 
z
" transform="scale(0.015625)"/>
      </defs>
      <use xlink:href="#DejaVuSans-45"/>
      <use xlink:href="#DejaVuSans-70" transform="translate(63.183594 0)"/>
      <use xlink:href="#DejaVuSans-6f" transform="translate(126.660156 0)"/>
      <use xlink:href="#DejaVuSans-63" transform="translate(187.841797 0)"/>
      <use xlink:href="#DejaVuSans-68" transform="translate(242.822266 0)"/>
      <use xlink:href="#DejaVuSans-73" transform="translate(306.201172 0)"/>
     </g>
    </g>
   </g>
   <g id="matplotlib.axis_2">
    <g id="ytick_1">
     <g id="line2d_19">
      <path d="M 43.78125 566.167717 
L 601.78125 566.167717 
" clip-path="url(#pd6fed3d4ec)" style="fill: none; stroke: #b0b0b0; stroke-width: 0.8; stroke-linecap: square"/>
     </g>
     <g id="line2d_20">
      <defs>
       <path id="m96628562e5" d="M 0 0 
L -3.5 0 
" style="stroke: #000000; stroke-width: 0.8"/>
      </defs>
      <g>
       <use xlink:href="#m96628562e5" x="43.78125" y="566.167717" style="stroke: #000000; stroke-width: 0.8"/>
      </g>
     </g>
     <g id="text_11">
      <!-- 3.0 -->
      <g transform="translate(20.878125 569.966936) scale(0.1 -0.1)">
       <defs>
        <path id="DejaVuSans-2e" d="M 684 794 
L 1344 794 
L 1344 0 
L 684 0 
L 684 794 
z
" transform="scale(0.015625)"/>
       </defs>
       <use xlink:href="#DejaVuSans-33"/>
       <use xlink:href="#DejaVuSans-2e" transform="translate(63.623047 0)"/>
       <use xlink:href="#DejaVuSans-30" transform="translate(95.410156 0)"/>
      </g>
     </g>
    </g>
    <g id="ytick_2">
     <g id="line2d_21">
      <path d="M 43.78125 463.696795 
L 601.78125 463.696795 
" clip-path="url(#pd6fed3d4ec)" style="fill: none; stroke: #b0b0b0; stroke-width: 0.8; stroke-linecap: square"/>
     </g>
     <g id="line2d_22">
      <g>
       <use xlink:href="#m96628562e5" x="43.78125" y="463.696795" style="stroke: #000000; stroke-width: 0.8"/>
      </g>
     </g>
     <g id="text_12">
      <!-- 3.5 -->
      <g transform="translate(20.878125 467.496014) scale(0.1 -0.1)">
       <use xlink:href="#DejaVuSans-33"/>
       <use xlink:href="#DejaVuSans-2e" transform="translate(63.623047 0)"/>
       <use xlink:href="#DejaVuSans-35" transform="translate(95.410156 0)"/>
      </g>
     </g>
    </g>
    <g id="ytick_3">
     <g id="line2d_23">
      <path d="M 43.78125 361.225873 
L 601.78125 361.225873 
" clip-path="url(#pd6fed3d4ec)" style="fill: none; stroke: #b0b0b0; stroke-width: 0.8; stroke-linecap: square"/>
     </g>
     <g id="line2d_24">
      <g>
       <use xlink:href="#m96628562e5" x="43.78125" y="361.225873" style="stroke: #000000; stroke-width: 0.8"/>
      </g>
     </g>
     <g id="text_13">
      <!-- 4.0 -->
      <g transform="translate(20.878125 365.025092) scale(0.1 -0.1)">
       <use xlink:href="#DejaVuSans-34"/>
       <use xlink:href="#DejaVuSans-2e" transform="translate(63.623047 0)"/>
       <use xlink:href="#DejaVuSans-30" transform="translate(95.410156 0)"/>
      </g>
     </g>
    </g>
    <g id="ytick_4">
     <g id="line2d_25">
      <path d="M 43.78125 258.754951 
L 601.78125 258.754951 
" clip-path="url(#pd6fed3d4ec)" style="fill: none; stroke: #b0b0b0; stroke-width: 0.8; stroke-linecap: square"/>
     </g>
     <g id="line2d_26">
      <g>
       <use xlink:href="#m96628562e5" x="43.78125" y="258.754951" style="stroke: #000000; stroke-width: 0.8"/>
      </g>
     </g>
     <g id="text_14">
      <!-- 4.5 -->
      <g transform="translate(20.878125 262.55417) scale(0.1 -0.1)">
       <use xlink:href="#DejaVuSans-34"/>
       <use xlink:href="#DejaVuSans-2e" transform="translate(63.623047 0)"/>
       <use xlink:href="#DejaVuSans-35" transform="translate(95.410156 0)"/>
      </g>
     </g>
    </g>
    <g id="ytick_5">
     <g id="line2d_27">
      <path d="M 43.78125 156.284029 
L 601.78125 156.284029 
" clip-path="url(#pd6fed3d4ec)" style="fill: none; stroke: #b0b0b0; stroke-width: 0.8; stroke-linecap: square"/>
     </g>
     <g id="line2d_28">
      <g>
       <use xlink:href="#m96628562e5" x="43.78125" y="156.284029" style="stroke: #000000; stroke-width: 0.8"/>
      </g>
     </g>
     <g id="text_15">
      <!-- 5.0 -->
      <g transform="translate(20.878125 160.083248) scale(0.1 -0.1)">
       <use xlink:href="#DejaVuSans-35"/>
       <use xlink:href="#DejaVuSans-2e" transform="translate(63.623047 0)"/>
       <use xlink:href="#DejaVuSans-30" transform="translate(95.410156 0)"/>
      </g>
     </g>
    </g>
    <g id="ytick_6">
     <g id="line2d_29">
      <path d="M 43.78125 53.813107 
L 601.78125 53.813107 
" clip-path="url(#pd6fed3d4ec)" style="fill: none; stroke: #b0b0b0; stroke-width: 0.8; stroke-linecap: square"/>
     </g>
     <g id="line2d_30">
      <g>
       <use xlink:href="#m96628562e5" x="43.78125" y="53.813107" style="stroke: #000000; stroke-width: 0.8"/>
      </g>
     </g>
     <g id="text_16">
      <!-- 5.5 -->
      <g transform="translate(20.878125 57.612326) scale(0.1 -0.1)">
       <use xlink:href="#DejaVuSans-35"/>
       <use xlink:href="#DejaVuSans-2e" transform="translate(63.623047 0)"/>
       <use xlink:href="#DejaVuSans-35" transform="translate(95.410156 0)"/>
      </g>
     </g>
    </g>
    <g id="text_17">
     <!-- Loss -->
     <g transform="translate(14.798438 310.485313) rotate(-90) scale(0.1 -0.1)">
      <defs>
       <path id="DejaVuSans-4c" d="M 628 4666 
L 1259 4666 
L 1259 531 
L 3531 531 
L 3531 0 
L 628 0 
L 628 4666 
z
" transform="scale(0.015625)"/>
      </defs>
      <use xlink:href="#DejaVuSans-4c"/>
      <use xlink:href="#DejaVuSans-6f" transform="translate(53.962891 0)"/>
      <use xlink:href="#DejaVuSans-73" transform="translate(115.144531 0)"/>
      <use xlink:href="#DejaVuSans-73" transform="translate(167.244141 0)"/>
     </g>
    </g>
   </g>
   <g id="line2d_31">
    <path d="M 69.144886 47.518125 
L 69.779771 86.476534 
L 71.04954 187.104482 
L 71.684424 215.794162 
L 72.319309 232.084148 
L 72.954193 244.313413 
L 73.589078 253.528287 
L 74.223962 260.352346 
L 74.858847 265.628654 
L 75.493732 269.897722 
L 76.763501 276.469653 
L 78.03327 281.760913 
L 79.303039 286.263932 
L 81.207692 292.197042 
L 83.74723 299.043578 
L 85.651884 303.568585 
L 88.191422 308.943692 
L 92.000729 316.027501 
L 95.810036 322.221729 
L 98.984459 327.0016 
L 105.333304 335.667461 
L 106.603073 337.277853 
L 108.507726 339.668179 
L 111.047264 342.68902 
L 112.951918 344.964032 
L 120.570532 353.468942 
L 122.475186 355.479806 
L 124.379839 357.515884 
L 135.80776 369.30373 
L 136.442645 369.85201 
L 137.077529 370.575997 
L 137.712414 371.081571 
L 140.251952 373.625227 
L 142.79149 376.059089 
L 146.600797 379.422305 
L 147.870566 380.670386 
L 149.140335 381.803103 
L 152.314758 384.600205 
L 159.298487 390.500383 
L 159.933372 390.922208 
L 161.203141 392.049257 
L 161.838026 392.450707 
L 163.742679 394.133366 
L 164.377564 394.477745 
L 165.647333 395.652239 
L 168.186871 397.683088 
L 168.821755 398.277445 
L 169.45664 398.665897 
L 170.726409 399.826808 
L 171.996178 400.655898 
L 176.440369 404.042861 
L 177.710138 405.085428 
L 180.884561 407.370506 
L 182.789215 408.971077 
L 183.424099 409.319316 
L 189.13806 413.577292 
L 190.407829 414.261359 
L 191.042713 414.89891 
L 194.85202 417.275213 
L 195.486905 417.901525 
L 196.121789 418.286997 
L 197.391558 419.189819 
L 205.645057 424.9267 
L 207.549711 426.219929 
L 211.993902 429.042244 
L 212.628787 429.644516 
L 215.168325 431.169986 
L 215.803209 431.697353 
L 217.072978 432.401454 
L 218.342747 433.227562 
L 220.247401 434.474275 
L 220.882285 434.764613 
L 223.421823 436.53747 
L 224.691592 437.192905 
L 225.326477 437.782375 
L 225.961362 437.98266 
L 227.866015 439.114596 
L 234.849745 443.496926 
L 235.484629 443.725795 
L 236.754398 444.394178 
L 237.389283 445.033634 
L 238.024167 445.271738 
L 238.659052 445.77443 
L 244.373012 448.846331 
L 245.007897 449.37448 
L 250.721858 452.330139 
L 251.356742 452.821299 
L 255.166049 454.775044 
L 255.800934 455.20713 
L 256.435818 455.435413 
L 258.340472 456.584695 
L 258.975356 456.658526 
L 259.610241 457.215503 
L 260.88001 457.7652 
L 265.324201 459.865433 
L 265.959086 460.277974 
L 267.863739 461.062843 
L 268.498624 461.352546 
L 269.768393 462.215008 
L 270.403278 462.343319 
L 271.673047 463.036768 
L 272.307931 463.261484 
L 272.942816 463.659856 
L 273.5777 463.768818 
L 275.482354 464.823112 
L 276.117238 465.220262 
L 277.387007 465.641403 
L 278.021892 465.904134 
L 279.291661 466.655581 
L 280.56143 467.259173 
L 281.196314 467.439767 
L 282.466083 468.168152 
L 283.100968 468.372541 
L 283.735852 468.78391 
L 285.005621 469.194595 
L 285.640506 469.808105 
L 286.27539 469.942769 
L 286.910275 470.281822 
L 287.545159 470.377884 
L 291.354467 472.2191 
L 291.989351 472.405459 
L 292.624236 472.810574 
L 295.798658 474.243597 
L 297.068427 474.879584 
L 297.703312 475.045861 
L 300.877734 476.562292 
L 303.417272 477.601585 
L 304.052157 477.995119 
L 305.321926 478.324937 
L 305.95681 478.81986 
L 306.591695 479.071988 
L 307.226579 479.524693 
L 309.131233 480.002856 
L 311.035886 480.967196 
L 311.670771 481.091598 
L 312.305656 481.522951 
L 312.94054 481.692893 
L 313.575425 482.039569 
L 314.210309 482.168809 
L 316.749847 483.259554 
L 317.384732 483.494482 
L 318.654501 484.249497 
L 319.289385 484.403314 
L 319.92427 484.742269 
L 320.559154 484.777792 
L 321.194039 485.263871 
L 322.463808 485.591832 
L 323.098692 486.138206 
L 323.733577 486.181547 
L 325.003346 486.611874 
L 328.177768 487.65107 
L 328.812653 487.847837 
L 330.717306 488.732727 
L 334.526614 490.204595 
L 335.161498 490.305641 
L 336.431267 490.823676 
L 338.970805 491.875038 
L 341.510343 492.672514 
L 342.145228 492.874607 
L 342.780112 493.340701 
L 343.414997 493.230175 
L 344.049881 493.657962 
L 347.224304 494.694959 
L 347.859188 495.1955 
L 351.033611 496.089723 
L 351.668495 496.447637 
L 353.573149 497.071213 
L 354.208033 497.182862 
L 354.842918 497.496898 
L 356.747572 498.105522 
L 358.017341 498.890636 
L 358.652225 498.777276 
L 359.28711 499.231302 
L 359.921994 499.23995 
L 360.556879 499.575583 
L 361.826648 499.985046 
L 362.461532 500.273722 
L 364.366186 500.82982 
L 365.00107 501.072078 
L 365.635955 501.193548 
L 367.540608 501.97617 
L 368.175493 502.068324 
L 369.445262 502.580543 
L 370.080146 502.857542 
L 370.715031 502.87953 
L 371.349915 503.299693 
L 372.619684 503.566431 
L 373.889453 503.882177 
L 374.524338 504.274831 
L 375.794107 504.606946 
L 376.428991 504.93266 
L 377.063876 505.085158 
L 377.698761 505.040107 
L 378.333645 505.460662 
L 379.603414 505.88835 
L 380.238299 505.94977 
L 382.142952 506.527953 
L 382.777837 506.660809 
L 384.68249 507.397745 
L 385.952259 507.855923 
L 386.587144 507.774666 
L 387.222028 508.192533 
L 387.856913 508.101015 
L 389.126682 508.767003 
L 389.761566 508.721366 
L 390.396451 508.848847 
L 392.301104 509.670998 
L 392.935989 509.774341 
L 393.570873 510.024807 
L 394.205758 510.082024 
L 394.840642 510.436225 
L 396.745296 510.966621 
L 398.015065 511.489444 
L 398.64995 511.499705 
L 399.284834 511.78071 
L 399.919719 511.769227 
L 400.554603 512.261805 
L 401.824372 512.331921 
L 402.459257 512.71065 
L 403.729026 512.964244 
L 404.998795 513.462147 
L 406.903448 513.722337 
L 407.538333 514.037008 
L 408.173217 514.093785 
L 408.808102 514.440901 
L 409.442986 514.45297 
L 410.077871 514.913249 
L 411.34764 514.98063 
L 411.982524 515.356818 
L 412.617409 515.347827 
L 413.252293 515.639093 
L 413.887178 515.734814 
L 415.156947 516.130107 
L 416.426716 516.342168 
L 417.0616 516.754807 
L 417.696485 516.888298 
L 418.966254 516.981477 
L 419.601138 517.317257 
L 420.870908 517.432327 
L 421.505792 517.876286 
L 422.140677 517.773676 
L 424.04533 518.487012 
L 424.680215 518.847564 
L 425.315099 518.741094 
L 425.949984 519.109171 
L 426.584868 519.282093 
L 427.219753 519.286833 
L 427.854637 519.41104 
L 428.489522 519.739685 
L 429.124406 519.773351 
L 431.02906 520.409534 
L 431.663944 520.461425 
L 432.298829 520.75318 
L 432.933713 520.903772 
L 433.568598 521.186487 
L 439.917443 522.619266 
L 440.552327 522.895385 
L 441.822097 522.837044 
L 443.091866 523.410781 
L 444.996519 523.664912 
L 446.266288 524.025611 
L 446.901173 524.373166 
L 447.536057 524.186073 
L 448.170942 524.489213 
L 451.345364 525.254635 
L 451.980249 525.663219 
L 452.615133 525.399657 
L 453.250018 525.756887 
L 453.884902 525.78508 
L 455.154671 526.241988 
L 455.789556 526.287039 
L 456.42444 526.609674 
L 458.963978 527.002818 
L 459.598863 527.486991 
L 460.233747 527.387019 
L 460.868632 527.656297 
L 461.503516 527.446728 
L 462.138401 527.830344 
L 462.773285 528.003119 
L 463.40817 528.037567 
L 464.043055 528.285004 
L 465.312824 528.423918 
L 466.582593 528.690118 
L 467.217477 528.738785 
L 467.852362 528.663586 
L 468.487246 529.112237 
L 469.122131 529.355032 
L 470.3919 529.361384 
L 471.026784 529.840915 
L 471.661669 529.636134 
L 472.296553 530.27217 
L 472.931438 530.044132 
L 474.201207 530.420613 
L 474.836091 530.352841 
L 475.470976 530.719452 
L 476.10586 530.649287 
L 477.375629 531.022885 
L 478.010514 531.286984 
L 478.645398 531.387151 
L 479.280283 531.266902 
L 479.915167 531.43269 
L 480.550052 531.758404 
L 481.184936 531.891993 
L 481.819821 531.72894 
L 482.454705 531.953901 
L 483.08959 532.397909 
L 484.359359 532.761051 
L 484.994244 532.641388 
L 486.898897 533.248596 
L 487.533782 533.190206 
L 488.803551 533.483915 
L 489.438435 533.492563 
L 490.07332 533.960612 
L 491.343089 533.912141 
L 491.977973 534.097523 
L 492.612858 534.117459 
L 493.247742 534.403643 
L 495.78728 534.917524 
L 496.422165 535.220224 
L 497.057049 535.293663 
L 497.691934 535.113705 
L 498.326818 535.204295 
L 499.596587 535.631886 
L 500.866356 535.872335 
L 502.77101 536.219793 
L 503.405894 536.666928 
L 504.040779 536.738706 
L 504.675663 536.644354 
L 505.310548 536.831593 
L 505.945433 537.249265 
L 506.580317 537.331353 
L 507.215202 537.295586 
L 507.850086 537.590126 
L 508.484971 537.626577 
L 509.119855 538.08754 
L 510.389624 538.14378 
L 511.024509 538.645251 
L 511.659393 538.486889 
L 513.564047 538.909301 
L 514.198931 538.988017 
L 514.833816 538.899577 
L 515.4687 539.196071 
L 516.738469 539.573383 
L 517.373354 539.900514 
L 518.008238 539.839681 
L 518.643123 539.956217 
L 519.278007 540.230137 
L 519.912892 540.145703 
L 520.547776 540.468387 
L 522.45243 540.650398 
L 523.087314 540.92295 
L 523.722199 541.017498 
L 525.626852 541.660961 
L 529.43616 542.205478 
L 530.071044 542.51067 
L 530.705929 542.405617 
L 531.340813 542.924335 
L 531.975698 543.120223 
L 532.610582 543.003003 
L 533.245467 543.121493 
L 533.880351 543.35906 
L 534.515236 543.25044 
L 535.15012 543.666108 
L 535.785005 543.577082 
L 536.419889 543.71712 
L 537.689658 544.251132 
L 538.324543 544.205691 
L 539.594312 544.751137 
L 540.229196 544.768776 
L 540.864081 544.672958 
L 541.498965 545.100206 
L 542.768734 545.011082 
L 543.403619 545.424259 
L 544.038503 545.50708 
L 545.308272 545.922015 
L 545.943157 545.898953 
L 546.578041 546.054187 
L 547.212926 546.094645 
L 547.84781 546.350486 
L 548.482695 546.37736 
L 549.11758 546.196473 
L 549.752464 546.634569 
L 550.387349 546.685728 
L 551.657118 547.079457 
L 552.292002 547.143369 
L 552.926887 547.363443 
L 554.196656 547.579755 
L 554.83154 547.827631 
L 556.101309 548.05611 
L 556.736194 548.398632 
L 557.371078 548.130478 
L 558.005963 548.421744 
L 558.640847 548.376253 
L 559.910616 548.753858 
L 560.545501 548.681201 
L 562.450154 548.989226 
L 563.085039 549.268863 
L 563.719923 549.126284 
L 564.354808 549.467096 
L 564.989692 549.615441 
L 565.624577 550.009073 
L 566.259461 549.842796 
L 566.894346 550.02896 
L 567.52923 550.059352 
L 568.164115 549.961677 
L 568.798999 550.287879 
L 569.433884 550.474727 
L 570.068768 550.425132 
L 570.703653 550.693189 
L 571.973422 550.678823 
L 572.608307 551.072406 
L 574.51296 551.222559 
L 575.147845 551.518125 
L 575.782729 551.361718 
L 576.417614 551.507766 
L 576.417614 551.507766 
" clip-path="url(#pd6fed3d4ec)" style="fill: none; stroke: #1f77b4; stroke-width: 1.5; stroke-linecap: square"/>
   </g>
   <g id="line2d_32">
    <path d="M 69.144886 58.257882 
L 70.414655 164.602873 
L 71.04954 203.064453 
L 71.684424 223.395517 
L 72.319309 237.841062 
L 72.954193 248.42495 
L 74.223962 261.791037 
L 74.858847 266.067141 
L 76.128616 272.747546 
L 78.03327 280.017323 
L 78.668154 281.550123 
L 79.303039 282.701603 
L 79.937923 284.797487 
L 81.207692 288.322974 
L 81.842577 289.330801 
L 83.112346 293.391521 
L 83.74723 294.148979 
L 84.382115 294.607109 
L 85.016999 294.818681 
L 85.651884 298.341139 
L 86.286768 299.757939 
L 86.921653 300.467219 
L 87.556537 300.902579 
L 88.191422 303.474183 
L 88.826306 304.076847 
L 89.461191 304.398554 
L 90.096075 304.969847 
L 90.73096 306.855821 
L 91.365844 307.760353 
L 92.000729 309.372113 
L 92.635613 309.724115 
L 93.270498 311.356103 
L 93.905382 311.587123 
L 94.540267 312.807596 
L 95.175151 313.569647 
L 95.810036 313.606782 
L 96.44492 312.669122 
L 97.079805 315.582955 
L 97.71469 315.614031 
L 98.349574 318.04804 
L 99.619343 318.106088 
L 100.254228 320.312107 
L 100.889112 318.804423 
L 101.523997 321.012787 
L 102.793766 323.256332 
L 103.42865 323.379269 
L 104.063535 324.993472 
L 104.698419 324.981647 
L 105.968188 327.562535 
L 106.603073 327.396209 
L 107.237957 327.653027 
L 107.872842 327.685667 
L 108.507726 327.208091 
L 109.142611 329.299284 
L 110.41238 331.563546 
L 111.047264 330.346493 
L 111.682149 332.886337 
L 112.317033 332.98924 
L 112.951918 333.447663 
L 113.586802 329.99156 
L 114.221687 332.275367 
L 114.856571 336.350746 
L 115.491456 337.099702 
L 116.12634 336.505737 
L 116.761225 331.531884 
L 117.396109 336.444855 
L 118.030994 339.050467 
L 118.665879 338.822574 
L 119.300763 340.81321 
L 119.935648 339.257055 
L 120.570532 339.739225 
L 121.205417 341.507734 
L 121.840301 338.57504 
L 122.475186 342.650321 
L 123.11007 343.646226 
L 123.744955 345.297271 
L 124.379839 344.918591 
L 125.014724 346.199848 
L 125.649608 344.421665 
L 126.284493 346.841113 
L 126.919377 346.514812 
L 127.554262 346.498102 
L 128.189146 348.547958 
L 128.824031 344.051975 
L 129.458915 346.309495 
L 130.0938 342.661462 
L 130.728684 350.243467 
L 131.363569 350.699252 
L 131.998453 350.531557 
L 132.633338 351.670041 
L 133.268222 349.510636 
L 133.903107 351.696231 
L 134.537991 353.100816 
L 135.172876 355.433876 
L 135.80776 354.890531 
L 136.442645 355.102006 
L 137.077529 356.16104 
L 137.712414 355.500622 
L 138.347298 353.908602 
L 138.982183 356.368019 
L 139.617067 358.289954 
L 140.251952 357.153035 
L 140.886837 357.097918 
L 142.156606 360.513857 
L 142.79149 360.997199 
L 143.426375 361.174373 
L 144.061259 362.056135 
L 144.696144 362.254661 
L 145.331028 363.703125 
L 145.965913 362.626061 
L 146.600797 363.933167 
L 147.235682 360.881396 
L 147.870566 364.446266 
L 148.505451 365.835949 
L 149.140335 362.979333 
L 149.77522 365.462301 
L 150.410104 362.668375 
L 151.044989 365.560416 
L 151.679873 367.852286 
L 152.314758 367.727101 
L 152.949642 367.192796 
L 153.584527 368.133779 
L 154.219411 366.985475 
L 154.854296 369.039777 
L 155.48918 370.470113 
L 156.124065 369.379759 
L 156.758949 371.992114 
L 157.393834 369.479682 
L 158.028718 368.647074 
L 158.663603 372.6088 
L 159.298487 373.642328 
L 159.933372 371.935141 
L 160.568256 374.562545 
L 161.838026 374.572855 
L 162.47291 374.357618 
L 163.107795 373.93164 
L 163.742679 372.854478 
L 164.377564 377.012385 
L 165.012448 375.061621 
L 166.282217 376.00964 
L 166.917102 367.820428 
L 167.551986 373.814176 
L 168.186871 378.68234 
L 168.821755 378.43588 
L 169.45664 378.346463 
L 170.091524 379.346081 
L 170.726409 368.92417 
L 171.361293 379.745674 
L 173.265947 380.187092 
L 173.900831 380.936146 
L 175.1706 382.675436 
L 175.805485 381.126463 
L 177.075254 383.541416 
L 177.710138 381.736065 
L 178.345023 384.372948 
L 179.614792 386.038799 
L 180.249676 385.720659 
L 180.884561 386.909812 
L 181.519445 385.821998 
L 182.15433 386.468246 
L 182.789215 387.313753 
L 183.424099 387.681244 
L 184.058984 389.127167 
L 184.693868 383.873384 
L 185.328753 386.38567 
L 185.963637 387.887686 
L 186.598522 388.579766 
L 187.233406 388.143087 
L 187.868291 389.616812 
L 188.503175 389.844655 
L 189.13806 386.932386 
L 189.772944 390.356435 
L 190.407829 389.742094 
L 191.042713 389.829264 
L 191.677598 393.437767 
L 192.312482 391.459836 
L 192.947367 393.624957 
L 193.582251 390.857319 
L 194.217136 393.076726 
L 194.85202 391.173309 
L 195.486905 394.465823 
L 196.121789 395.742585 
L 196.756674 388.801746 
L 197.391558 391.966974 
L 198.026443 390.44595 
L 198.661327 397.389526 
L 199.296212 396.772546 
L 199.931096 394.672557 
L 200.565981 397.315793 
L 201.200865 397.60315 
L 201.83575 397.423094 
L 202.470634 399.0651 
L 203.105519 397.250172 
L 203.740403 394.847385 
L 205.010173 400.651061 
L 205.645057 397.845212 
L 206.279942 400.461672 
L 206.914826 398.328261 
L 207.549711 400.099409 
L 208.184595 398.230538 
L 208.81948 401.901535 
L 209.454364 397.89725 
L 210.089249 401.127562 
L 210.724133 402.212542 
L 211.359018 403.567239 
L 211.993902 401.496226 
L 212.628787 401.888098 
L 213.263671 404.663603 
L 213.898556 403.970888 
L 214.53344 405.209196 
L 215.168325 400.453267 
L 215.803209 400.622183 
L 216.438094 405.924095 
L 217.072978 401.879987 
L 217.707863 406.164105 
L 218.342747 406.470713 
L 218.977632 408.780369 
L 219.612516 406.564137 
L 220.247401 406.976435 
L 220.882285 408.18181 
L 221.51717 408.780613 
L 222.152054 407.732964 
L 222.786939 403.426517 
L 223.421823 407.74088 
L 224.056708 408.1715 
L 224.691592 407.029254 
L 225.326477 407.090234 
L 225.961362 408.469216 
L 226.596246 408.035175 
L 227.231131 410.51873 
L 227.866015 410.272075 
L 228.5009 411.569506 
L 229.135784 408.650396 
L 229.770669 408.855811 
L 230.405553 411.511947 
L 231.040438 411.51522 
L 231.675322 410.928193 
L 232.310207 413.574018 
L 232.945091 412.641146 
L 233.579976 410.507589 
L 234.21486 412.342355 
L 234.849745 412.54826 
L 235.484629 410.996795 
L 236.119514 410.537102 
L 236.754398 415.024534 
L 238.024167 415.013882 
L 238.659052 411.997976 
L 239.293936 416.715939 
L 240.563705 415.057369 
L 241.19859 417.180421 
L 241.833474 412.734619 
L 242.468359 417.433037 
L 243.103243 417.531494 
L 243.738128 412.670219 
L 244.373012 419.413167 
L 245.007897 413.135825 
L 245.642781 417.537162 
L 246.277666 419.938922 
L 246.91255 415.32523 
L 247.547435 415.611513 
L 248.18232 418.100833 
L 248.817204 414.818874 
L 249.452089 419.709368 
L 250.086973 419.354191 
L 250.721858 421.188322 
L 251.356742 422.120656 
L 251.991627 421.844538 
L 252.626511 418.628102 
L 253.261396 420.327179 
L 253.89628 422.420864 
L 254.531165 421.653634 
L 255.166049 422.906405 
L 255.800934 422.546635 
L 256.435818 424.978152 
L 257.070703 424.84901 
L 257.705587 420.473618 
L 258.340472 423.949705 
L 258.975356 422.040376 
L 259.610241 423.730413 
L 260.245125 424.279279 
L 260.88001 422.097349 
L 261.514894 414.810177 
L 262.149779 421.664823 
L 262.784663 426.201068 
L 263.419548 410.0005 
L 264.054432 423.529004 
L 264.689317 424.087203 
L 265.324201 426.719298 
L 265.959086 426.759854 
L 266.59397 427.341066 
L 267.228855 423.619692 
L 267.863739 426.880347 
L 268.498624 421.854017 
L 269.133509 426.248074 
L 269.768393 426.453245 
L 270.403278 427.765432 
L 271.038162 414.581454 
L 271.673047 428.535643 
L 272.307931 427.554007 
L 272.942816 424.569324 
L 273.5777 429.602886 
L 274.212585 422.149387 
L 274.847469 430.463931 
L 275.482354 428.978772 
L 276.117238 430.775524 
L 277.387007 423.091348 
L 278.021892 430.090235 
L 278.656776 424.799561 
L 279.926545 428.996802 
L 280.56143 429.439247 
L 281.196314 430.100496 
L 281.831199 429.094624 
L 282.466083 430.348372 
L 283.100968 430.515187 
L 283.735852 431.241227 
L 284.370737 431.55238 
L 285.005621 428.558462 
L 285.640506 427.421542 
L 286.27539 429.254305 
L 286.910275 430.584815 
L 287.545159 430.779628 
L 288.180044 430.191868 
L 288.814928 435.043223 
L 289.449813 434.586657 
L 290.084697 435.073371 
L 290.719582 416.359003 
L 291.354467 434.934799 
L 291.989351 435.942527 
L 292.624236 435.037213 
L 293.25912 430.995695 
L 293.894005 432.746956 
L 294.528889 437.77187 
L 295.798658 432.723014 
L 296.433543 428.4452 
L 297.068427 433.164237 
L 297.703312 435.980982 
L 298.338196 431.737566 
L 298.973081 432.579653 
L 299.607965 437.035618 
L 300.24285 436.156152 
L 300.877734 439.238266 
L 301.512619 430.183219 
L 302.147503 437.258673 
L 302.782388 434.712721 
L 303.417272 438.606529 
L 304.052157 428.358567 
L 304.687041 438.289855 
L 305.321926 434.310636 
L 305.95681 434.400054 
L 306.591695 440.399323 
L 307.226579 435.753383 
L 307.861464 438.657395 
L 308.496348 440.071557 
L 309.131233 435.577333 
L 309.766117 439.638396 
L 310.401002 439.098178 
L 311.035886 441.074253 
L 311.670771 439.382701 
L 312.305656 440.87045 
L 312.94054 440.123058 
L 314.210309 440.276435 
L 314.845194 433.602773 
L 315.480078 437.612824 
L 316.114963 442.909312 
L 316.749847 435.234762 
L 317.384732 437.644829 
L 318.019616 443.241818 
L 318.654501 438.813411 
L 319.289385 437.335288 
L 319.92427 438.803345 
L 320.559154 437.864219 
L 321.194039 442.378916 
L 321.828923 442.381017 
L 322.463808 443.680402 
L 323.098692 443.871795 
L 323.733577 424.851599 
L 324.368461 445.236362 
L 325.003346 445.432787 
L 325.63823 444.734452 
L 326.273115 446.007599 
L 327.542884 442.025253 
L 328.177768 442.331911 
L 328.812653 443.56846 
L 329.447537 441.531112 
L 330.082422 442.759746 
L 330.717306 441.982499 
L 331.352191 445.562418 
L 331.987075 445.62286 
L 332.62196 441.256801 
L 333.256844 442.675605 
L 333.891729 444.71696 
L 334.526614 443.709133 
L 335.161498 447.330976 
L 335.796383 444.433609 
L 336.431267 446.858334 
L 337.066152 444.750235 
L 337.701036 446.044734 
L 338.335921 445.321138 
L 338.970805 448.25818 
L 339.60569 446.706178 
L 340.240574 444.275688 
L 340.875459 446.663717 
L 341.510343 445.874695 
L 342.145228 449.03787 
L 342.780112 444.060646 
L 343.414997 449.964 
L 344.049881 446.978584 
L 344.684766 439.993769 
L 345.31965 448.02892 
L 345.954535 440.220293 
L 346.589419 448.874769 
L 347.224304 440.5141 
L 347.859188 445.691365 
L 348.494073 448.171548 
L 349.128957 449.673466 
L 349.763842 449.03919 
L 350.398726 445.267487 
L 351.033611 449.497905 
L 351.668495 450.393838 
L 352.30338 447.173299 
L 352.938264 439.76573 
L 353.573149 450.362518 
L 354.208033 451.00945 
L 354.842918 445.606101 
L 355.477803 451.809906 
L 356.112687 445.208071 
L 356.747572 450.794164 
L 357.382456 449.101098 
L 358.017341 448.639108 
L 358.652225 452.121645 
L 359.28711 450.150554 
L 359.921994 442.799031 
L 360.556879 448.580425 
L 361.191763 449.596949 
L 361.826648 448.625427 
L 362.461532 450.901758 
L 363.096417 452.32066 
L 363.731301 453.357462 
L 364.366186 448.780368 
L 365.00107 451.98879 
L 365.635955 451.993822 
L 366.270839 452.242237 
L 366.905724 453.375736 
L 367.540608 452.920636 
L 368.175493 454.565768 
L 368.810377 451.649981 
L 369.445262 446.831021 
L 370.080146 452.177446 
L 370.715031 454.96243 
L 371.349915 454.32014 
L 371.9848 456.636 
L 372.619684 451.907337 
L 373.254569 455.711679 
L 374.524338 447.289443 
L 375.159222 456.921207 
L 375.794107 450.071984 
L 376.428991 448.911269 
L 377.063876 450.776329 
L 377.698761 454.950898 
L 378.333645 442.04597 
L 378.96853 457.040675 
L 379.603414 452.361166 
L 380.238299 446.475257 
L 381.508068 456.069593 
L 382.142952 455.056733 
L 382.777837 456.555525 
L 383.412721 452.842505 
L 384.047606 450.622561 
L 384.68249 455.458281 
L 385.317375 454.094006 
L 385.952259 455.191397 
L 386.587144 455.657247 
L 387.222028 453.411503 
L 387.856913 459.621269 
L 388.491797 457.643729 
L 389.126682 457.261042 
L 389.761566 458.118032 
L 390.396451 459.401342 
L 391.031335 453.042693 
L 391.66622 455.975191 
L 392.301104 454.584727 
L 392.935989 448.853563 
L 393.570873 453.030917 
L 394.205758 453.382528 
L 394.840642 457.136249 
L 395.475527 451.207927 
L 396.110411 459.461442 
L 396.745296 457.728749 
L 397.38018 456.894333 
L 398.015065 459.333619 
L 398.64995 460.706884 
L 399.284834 453.792088 
L 399.919719 455.937274 
L 400.554603 455.10325 
L 401.189488 457.467582 
L 401.824372 454.609549 
L 402.459257 447.904127 
L 403.094141 458.203784 
L 403.729026 452.068093 
L 404.36391 457.611138 
L 404.998795 459.726371 
L 405.633679 455.333243 
L 406.268564 454.149562 
L 406.903448 459.845741 
L 407.538333 457.069552 
L 408.173217 459.304302 
L 408.808102 456.767537 
L 409.442986 462.368825 
L 410.077871 457.368196 
L 410.712755 460.427589 
L 411.34764 456.736363 
L 411.982524 459.836213 
L 412.617409 450.889591 
L 413.252293 459.019779 
L 413.887178 456.259421 
L 414.522062 460.75516 
L 415.156947 453.647457 
L 415.791831 460.816628 
L 416.426716 458.085148 
L 417.0616 460.51642 
L 417.696485 458.576308 
L 418.331369 459.921966 
L 418.966254 457.264267 
L 419.601138 461.555176 
L 420.236023 449.231022 
L 420.870908 462.326169 
L 421.505792 461.463804 
L 422.140677 459.545289 
L 422.775561 459.096883 
L 423.410446 462.93836 
L 424.04533 459.268389 
L 424.680215 463.829309 
L 425.315099 462.98991 
L 425.949984 464.218103 
L 426.584868 462.058405 
L 427.219753 463.216531 
L 427.854637 462.440652 
L 428.489522 459.596838 
L 429.124406 461.957848 
L 429.759291 460.126942 
L 431.02906 464.080166 
L 432.298829 461.374387 
L 432.933713 456.402 
L 433.568598 458.904758 
L 434.203482 457.337609 
L 434.838367 458.601814 
L 435.473251 460.681769 
L 436.108136 461.936446 
L 436.74302 463.721861 
L 437.377905 461.069782 
L 438.012789 463.958646 
L 438.647674 457.754988 
L 439.282558 458.618329 
L 439.917443 463.289384 
L 440.552327 460.920215 
L 441.187212 464.914435 
L 441.822097 464.687569 
L 442.456981 464.637534 
L 443.091866 458.856336 
L 443.72675 461.661891 
L 444.361635 462.696103 
L 444.996519 457.231139 
L 445.631404 464.814708 
L 446.266288 465.335625 
L 446.901173 465.278212 
L 447.536057 462.605219 
L 448.170942 457.184378 
L 448.805826 463.58798 
L 449.440711 461.26093 
L 450.075595 464.279914 
L 450.71048 462.881974 
L 451.345364 463.364485 
L 451.980249 462.174795 
L 452.615133 462.587727 
L 453.250018 462.429414 
L 453.884902 463.753329 
L 454.519787 456.782146 
L 455.154671 465.509476 
L 455.789556 466.850394 
L 456.42444 462.465963 
L 457.059325 466.808373 
L 457.694209 457.387546 
L 458.329094 464.824236 
L 458.963978 459.537276 
L 459.598863 457.352414 
L 460.233747 457.430935 
L 460.868632 465.447861 
L 461.503516 463.733686 
L 462.138401 467.472602 
L 462.773285 466.186018 
L 463.40817 463.800774 
L 464.043055 468.077171 
L 464.677939 465.957882 
L 465.312824 465.356342 
L 465.947708 462.668251 
L 466.582593 463.921609 
L 467.217477 468.13732 
L 467.852362 466.077496 
L 468.487246 465.956367 
L 469.122131 466.893246 
L 469.757015 463.730168 
L 470.3919 466.443716 
L 471.026784 466.87419 
L 471.661669 465.005123 
L 472.296553 464.864498 
L 472.931438 469.416526 
L 473.566322 463.79447 
L 474.201207 464.358435 
L 474.836091 453.147355 
L 475.470976 458.817881 
L 476.10586 456.915637 
L 476.740745 467.071836 
L 477.375629 468.091292 
L 478.010514 456.499578 
L 478.645398 463.947213 
L 479.280283 468.269296 
L 479.915167 466.92398 
L 480.550052 466.434872 
L 481.184936 463.850759 
L 481.819821 467.054735 
L 482.454705 468.996459 
L 483.08959 464.297699 
L 483.724474 465.302154 
L 484.359359 466.054726 
L 484.994244 467.866869 
L 485.629128 467.478123 
L 486.264013 467.700983 
L 486.898897 462.418616 
L 487.533782 466.347653 
L 488.168666 464.808453 
L 489.438435 462.64167 
L 490.07332 466.380977 
L 490.708204 466.839791 
L 491.343089 468.912173 
L 491.977973 469.604497 
L 493.247742 466.157287 
L 493.882627 465.811149 
L 494.517511 467.058399 
L 495.152396 460.758531 
L 495.78728 466.793177 
L 496.422165 466.556441 
L 497.057049 469.673344 
L 497.691934 453.229541 
L 498.326818 466.586002 
L 498.961703 469.154674 
L 499.596587 464.084564 
L 500.231472 469.623602 
L 500.866356 465.627477 
L 501.501241 467.340333 
L 502.136125 467.642788 
L 502.77101 458.212824 
L 503.405894 465.90946 
L 504.040779 464.177939 
L 504.675663 470.699542 
L 505.310548 467.733818 
L 505.945433 468.681056 
L 506.580317 457.15682 
L 507.215202 468.237047 
L 507.850086 467.460533 
L 508.484971 464.743223 
L 509.119855 467.053757 
L 509.75474 455.62402 
L 510.389624 467.131252 
L 511.024509 462.503147 
L 511.659393 463.37328 
L 512.294278 457.705832 
L 512.929162 465.375643 
L 513.564047 469.296374 
L 514.198931 466.320388 
L 514.833816 454.614679 
L 515.4687 463.976432 
L 516.103585 461.823331 
L 516.738469 470.038001 
L 517.373354 468.822902 
L 518.008238 468.327539 
L 518.643123 462.967971 
L 519.278007 470.194163 
L 519.912892 469.50218 
L 520.547776 468.241396 
L 521.182661 462.913636 
L 521.817545 469.992999 
L 522.45243 468.583625 
L 523.087314 464.846859 
L 523.722199 470.443799 
L 524.357083 471.292629 
L 524.991968 462.315761 
L 525.626852 465.996629 
L 526.261737 470.891912 
L 526.896621 470.371581 
L 527.531506 460.163002 
L 528.166391 467.011834 
L 528.801275 467.005628 
L 529.43616 471.175311 
L 530.071044 466.46888 
L 530.705929 466.352637 
L 531.340813 467.104769 
L 531.975698 469.958014 
L 532.610582 467.997037 
L 533.245467 469.870648 
L 533.880351 461.571887 
L 534.515236 458.899334 
L 535.15012 468.901814 
L 535.785005 467.784976 
L 536.419889 468.86463 
L 537.054774 466.562939 
L 537.689658 472.541002 
L 538.324543 463.165959 
L 538.959427 467.545455 
L 539.594312 469.194839 
L 540.229196 469.219758 
L 540.864081 469.727923 
L 541.498965 463.991726 
L 542.13385 470.894795 
L 542.768734 465.073969 
L 543.403619 464.233397 
L 544.038503 470.584521 
L 544.673388 467.529868 
L 545.308272 462.170202 
L 545.943157 466.951196 
L 546.578041 470.879745 
L 547.212926 469.413887 
L 547.84781 469.573079 
L 548.482695 467.600865 
L 549.11758 469.280836 
L 549.752464 465.438821 
L 550.387349 470.713468 
L 551.022233 467.894281 
L 551.657118 467.438203 
L 552.292002 468.661999 
L 552.926887 464.26633 
L 553.561771 458.151698 
L 554.196656 471.034344 
L 554.83154 471.977331 
L 555.466425 464.642665 
L 556.101309 459.312169 
L 556.736194 467.731766 
L 557.371078 467.771148 
L 558.005963 467.104916 
L 558.640847 468.069841 
L 559.275732 471.118729 
L 559.910616 469.014147 
L 560.545501 464.908571 
L 561.180385 459.177017 
L 561.81527 466.804952 
L 562.450154 472.536263 
L 563.085039 464.270777 
L 563.719923 471.56777 
L 564.354808 468.558314 
L 564.989692 467.668245 
L 565.624577 470.686936 
L 566.259461 469.571516 
L 566.894346 471.737663 
L 567.52923 469.771556 
L 568.164115 471.25437 
L 568.798999 467.622804 
L 569.433884 470.250061 
L 570.068768 469.315332 
L 570.703653 466.514419 
L 571.338538 470.182388 
L 571.973422 468.352361 
L 572.608307 470.166165 
L 573.243191 471.491888 
L 573.878076 472.214458 
L 574.51296 466.907416 
L 575.147845 469.82208 
L 575.782729 470.453132 
L 576.417614 462.811124 
L 576.417614 462.811124 
" clip-path="url(#pd6fed3d4ec)" style="fill: none; stroke: #ff7f0e; stroke-width: 1.5; stroke-linecap: square"/>
   </g>
   <g id="patch_3">
    <path d="M 43.78125 576.718125 
L 43.78125 22.318125 
" style="fill: none; stroke: #000000; stroke-width: 0.8; stroke-linejoin: miter; stroke-linecap: square"/>
   </g>
   <g id="patch_4">
    <path d="M 601.78125 576.718125 
L 601.78125 22.318125 
" style="fill: none; stroke: #000000; stroke-width: 0.8; stroke-linejoin: miter; stroke-linecap: square"/>
   </g>
   <g id="patch_5">
    <path d="M 43.78125 576.718125 
L 601.78125 576.718125 
" style="fill: none; stroke: #000000; stroke-width: 0.8; stroke-linejoin: miter; stroke-linecap: square"/>
   </g>
   <g id="patch_6">
    <path d="M 43.78125 22.318125 
L 601.78125 22.318125 
" style="fill: none; stroke: #000000; stroke-width: 0.8; stroke-linejoin: miter; stroke-linecap: square"/>
   </g>
   <g id="text_18">
    <!-- Train and Val Loss -->
    <g transform="translate(269.235937 16.318125) scale(0.12 -0.12)">
     <defs>
      <path id="DejaVuSans-54" d="M -19 4666 
L 3928 4666 
L 3928 4134 
L 2272 4134 
L 2272 0 
L 1638 0 
L 1638 4134 
L -19 4134 
L -19 4666 
z
" transform="scale(0.015625)"/>
      <path id="DejaVuSans-72" d="M 2631 2963 
Q 2534 3019 2420 3045 
Q 2306 3072 2169 3072 
Q 1681 3072 1420 2755 
Q 1159 2438 1159 1844 
L 1159 0 
L 581 0 
L 581 3500 
L 1159 3500 
L 1159 2956 
Q 1341 3275 1631 3429 
Q 1922 3584 2338 3584 
Q 2397 3584 2469 3576 
Q 2541 3569 2628 3553 
L 2631 2963 
z
" transform="scale(0.015625)"/>
      <path id="DejaVuSans-61" d="M 2194 1759 
Q 1497 1759 1228 1600 
Q 959 1441 959 1056 
Q 959 750 1161 570 
Q 1363 391 1709 391 
Q 2188 391 2477 730 
Q 2766 1069 2766 1631 
L 2766 1759 
L 2194 1759 
z
M 3341 1997 
L 3341 0 
L 2766 0 
L 2766 531 
Q 2569 213 2275 61 
Q 1981 -91 1556 -91 
Q 1019 -91 701 211 
Q 384 513 384 1019 
Q 384 1609 779 1909 
Q 1175 2209 1959 2209 
L 2766 2209 
L 2766 2266 
Q 2766 2663 2505 2880 
Q 2244 3097 1772 3097 
Q 1472 3097 1187 3025 
Q 903 2953 641 2809 
L 641 3341 
Q 956 3463 1253 3523 
Q 1550 3584 1831 3584 
Q 2591 3584 2966 3190 
Q 3341 2797 3341 1997 
z
" transform="scale(0.015625)"/>
      <path id="DejaVuSans-69" d="M 603 3500 
L 1178 3500 
L 1178 0 
L 603 0 
L 603 3500 
z
M 603 4863 
L 1178 4863 
L 1178 4134 
L 603 4134 
L 603 4863 
z
" transform="scale(0.015625)"/>
      <path id="DejaVuSans-6e" d="M 3513 2113 
L 3513 0 
L 2938 0 
L 2938 2094 
Q 2938 2591 2744 2837 
Q 2550 3084 2163 3084 
Q 1697 3084 1428 2787 
Q 1159 2491 1159 1978 
L 1159 0 
L 581 0 
L 581 3500 
L 1159 3500 
L 1159 2956 
Q 1366 3272 1645 3428 
Q 1925 3584 2291 3584 
Q 2894 3584 3203 3211 
Q 3513 2838 3513 2113 
z
" transform="scale(0.015625)"/>
      <path id="DejaVuSans-20" transform="scale(0.015625)"/>
      <path id="DejaVuSans-64" d="M 2906 2969 
L 2906 4863 
L 3481 4863 
L 3481 0 
L 2906 0 
L 2906 525 
Q 2725 213 2448 61 
Q 2172 -91 1784 -91 
Q 1150 -91 751 415 
Q 353 922 353 1747 
Q 353 2572 751 3078 
Q 1150 3584 1784 3584 
Q 2172 3584 2448 3432 
Q 2725 3281 2906 2969 
z
M 947 1747 
Q 947 1113 1208 752 
Q 1469 391 1925 391 
Q 2381 391 2643 752 
Q 2906 1113 2906 1747 
Q 2906 2381 2643 2742 
Q 2381 3103 1925 3103 
Q 1469 3103 1208 2742 
Q 947 2381 947 1747 
z
" transform="scale(0.015625)"/>
      <path id="DejaVuSans-56" d="M 1831 0 
L 50 4666 
L 709 4666 
L 2188 738 
L 3669 4666 
L 4325 4666 
L 2547 0 
L 1831 0 
z
" transform="scale(0.015625)"/>
      <path id="DejaVuSans-6c" d="M 603 4863 
L 1178 4863 
L 1178 0 
L 603 0 
L 603 4863 
z
" transform="scale(0.015625)"/>
     </defs>
     <use xlink:href="#DejaVuSans-54"/>
     <use xlink:href="#DejaVuSans-72" transform="translate(46.333984 0)"/>
     <use xlink:href="#DejaVuSans-61" transform="translate(87.447266 0)"/>
     <use xlink:href="#DejaVuSans-69" transform="translate(148.726562 0)"/>
     <use xlink:href="#DejaVuSans-6e" transform="translate(176.509766 0)"/>
     <use xlink:href="#DejaVuSans-20" transform="translate(239.888672 0)"/>
     <use xlink:href="#DejaVuSans-61" transform="translate(271.675781 0)"/>
     <use xlink:href="#DejaVuSans-6e" transform="translate(332.955078 0)"/>
     <use xlink:href="#DejaVuSans-64" transform="translate(396.333984 0)"/>
     <use xlink:href="#DejaVuSans-20" transform="translate(459.810547 0)"/>
     <use xlink:href="#DejaVuSans-56" transform="translate(491.597656 0)"/>
     <use xlink:href="#DejaVuSans-61" transform="translate(552.255859 0)"/>
     <use xlink:href="#DejaVuSans-6c" transform="translate(613.535156 0)"/>
     <use xlink:href="#DejaVuSans-20" transform="translate(641.318359 0)"/>
     <use xlink:href="#DejaVuSans-4c" transform="translate(673.105469 0)"/>
     <use xlink:href="#DejaVuSans-6f" transform="translate(727.068359 0)"/>
     <use xlink:href="#DejaVuSans-73" transform="translate(788.25 0)"/>
     <use xlink:href="#DejaVuSans-73" transform="translate(840.349609 0)"/>
    </g>
   </g>
   <g id="legend_1">
    <g id="patch_7">
     <path d="M 515.190625 60.230625 
L 594.78125 60.230625 
Q 596.78125 60.230625 596.78125 58.230625 
L 596.78125 29.318125 
Q 596.78125 27.318125 594.78125 27.318125 
L 515.190625 27.318125 
Q 513.190625 27.318125 513.190625 29.318125 
L 513.190625 58.230625 
Q 513.190625 60.230625 515.190625 60.230625 
z
" style="fill: #ffffff; opacity: 0.8; stroke: #cccccc; stroke-linejoin: miter"/>
    </g>
    <g id="line2d_33">
     <path d="M 517.190625 35.416563 
L 527.190625 35.416563 
L 537.190625 35.416563 
" style="fill: none; stroke: #1f77b4; stroke-width: 1.5; stroke-linecap: square"/>
    </g>
    <g id="text_19">
     <!-- train_loss -->
     <g transform="translate(545.190625 38.916563) scale(0.1 -0.1)">
      <defs>
       <path id="DejaVuSans-74" d="M 1172 4494 
L 1172 3500 
L 2356 3500 
L 2356 3053 
L 1172 3053 
L 1172 1153 
Q 1172 725 1289 603 
Q 1406 481 1766 481 
L 2356 481 
L 2356 0 
L 1766 0 
Q 1100 0 847 248 
Q 594 497 594 1153 
L 594 3053 
L 172 3053 
L 172 3500 
L 594 3500 
L 594 4494 
L 1172 4494 
z
" transform="scale(0.015625)"/>
       <path id="DejaVuSans-5f" d="M 3263 -1063 
L 3263 -1509 
L -63 -1509 
L -63 -1063 
L 3263 -1063 
z
" transform="scale(0.015625)"/>
      </defs>
      <use xlink:href="#DejaVuSans-74"/>
      <use xlink:href="#DejaVuSans-72" transform="translate(39.208984 0)"/>
      <use xlink:href="#DejaVuSans-61" transform="translate(80.322266 0)"/>
      <use xlink:href="#DejaVuSans-69" transform="translate(141.601562 0)"/>
      <use xlink:href="#DejaVuSans-6e" transform="translate(169.384766 0)"/>
      <use xlink:href="#DejaVuSans-5f" transform="translate(232.763672 0)"/>
      <use xlink:href="#DejaVuSans-6c" transform="translate(282.763672 0)"/>
      <use xlink:href="#DejaVuSans-6f" transform="translate(310.546875 0)"/>
      <use xlink:href="#DejaVuSans-73" transform="translate(371.728516 0)"/>
      <use xlink:href="#DejaVuSans-73" transform="translate(423.828125 0)"/>
     </g>
    </g>
    <g id="line2d_34">
     <path d="M 517.190625 50.372813 
L 527.190625 50.372813 
L 537.190625 50.372813 
" style="fill: none; stroke: #ff7f0e; stroke-width: 1.5; stroke-linecap: square"/>
    </g>
    <g id="text_20">
     <!-- val_loss -->
     <g transform="translate(545.190625 53.872813) scale(0.1 -0.1)">
      <defs>
       <path id="DejaVuSans-76" d="M 191 3500 
L 800 3500 
L 1894 563 
L 2988 3500 
L 3597 3500 
L 2284 0 
L 1503 0 
L 191 3500 
z
" transform="scale(0.015625)"/>
      </defs>
      <use xlink:href="#DejaVuSans-76"/>
      <use xlink:href="#DejaVuSans-61" transform="translate(59.179688 0)"/>
      <use xlink:href="#DejaVuSans-6c" transform="translate(120.458984 0)"/>
      <use xlink:href="#DejaVuSans-5f" transform="translate(148.242188 0)"/>
      <use xlink:href="#DejaVuSans-6c" transform="translate(198.242188 0)"/>
      <use xlink:href="#DejaVuSans-6f" transform="translate(226.025391 0)"/>
      <use xlink:href="#DejaVuSans-73" transform="translate(287.207031 0)"/>
      <use xlink:href="#DejaVuSans-73" transform="translate(339.306641 0)"/>
     </g>
    </g>
   </g>
  </g>
 </g>
 <defs>
  <clipPath id="pd6fed3d4ec">
   <rect x="43.78125" y="22.318125" width="558" height="554.4"/>
  </clipPath>
 </defs>
</svg>
