<?xml version="1.0" encoding="utf-8" standalone="no"?>
<!DOCTYPE svg PUBLIC "-//W3C//DTD SVG 1.1//EN"
  "http://www.w3.org/Graphics/SVG/1.1/DTD/svg11.dtd">
<svg xmlns:xlink="http://www.w3.org/1999/xlink" width="621.70625pt" height="614.274375pt" viewBox="0 0 621.70625 614.274375" xmlns="http://www.w3.org/2000/svg" version="1.1">
 <metadata>
  <rdf:RDF xmlns:dc="http://purl.org/dc/elements/1.1/" xmlns:cc="http://creativecommons.org/ns#" xmlns:rdf="http://www.w3.org/1999/02/22-rdf-syntax-ns#">
   <cc:Work>
    <dc:type rdf:resource="http://purl.org/dc/dcmitype/StillImage"/>
    <dc:date>2026-05-23T23:24:32.939176</dc:date>
    <dc:format>image/svg+xml</dc:format>
    <dc:creator>
     <cc:Agent>
      <dc:title>Matplotlib v3.10.9, https://matplotlib.org/</dc:title>
     </cc:Agent>
    </dc:creator>
   </cc:Work>
  </rdf:RDF>
 </metadata>
 <defs>
  <style type="text/css">*{stroke-linejoin: round; stroke-linecap: butt}</style>
 </defs>
 <g id="figure_1">
  <g id="patch_1">
   <path d="M 0 614.274375 
L 621.70625 614.274375 
L 621.70625 0 
L 0 0 
z
" style="fill: #ffffff"/>
  </g>
  <g id="axes_1">
   <g id="patch_2">
    <path d="M 56.50625 576.718125 
L 614.50625 576.718125 
L 614.50625 22.318125 
L 56.50625 22.318125 
z
" style="fill: #ffffff"/>
   </g>
   <g id="matplotlib.axis_1">
    <g id="xtick_1">
     <g id="line2d_1">
      <path d="M 81.869886 576.718125 
L 81.869886 22.318125 
" clip-path="url(#pa36a2bb070)" style="fill: none; stroke: #b0b0b0; stroke-width: 0.8; stroke-linecap: square"/>
     </g>
     <g id="line2d_2">
      <defs>
       <path id="mef4f4be7d5" d="M 0 0 
L 0 3.5 
" style="stroke: #000000; stroke-width: 0.8"/>
      </defs>
      <g>
       <use xlink:href="#mef4f4be7d5" x="81.869886" y="576.718125" style="stroke: #000000; stroke-width: 0.8"/>
      </g>
     </g>
     <g id="text_1">
      <!-- 0 -->
      <g transform="translate(78.688636 591.316563) scale(0.1 -0.1)">
       <defs>
        <path id="DejaVuSans-30" d="M 2034 4250 
Q 1547 4250 1301 3770 
Q 1056 3291 1056 2328 
Q 1056 1369 1301 889 
Q 1547 409 2034 409 
Q 2525 409 2770 889 
Q 3016 1369 3016 2328 
Q 3016 3291 2770 3770 
Q 2525 4250 2034 4250 
z
M 2034 4750 
Q 2819 4750 3233 4129 
Q 3647 3509 3647 2328 
Q 3647 1150 3233 529 
Q 2819 -91 2034 -91 
Q 1250 -91 836 529 
Q 422 1150 422 2328 
Q 422 3509 836 4129 
Q 1250 4750 2034 4750 
z
" transform="scale(0.015625)"/>
       </defs>
       <use xlink:href="#DejaVuSans-30"/>
      </g>
     </g>
    </g>
    <g id="xtick_2">
     <g id="line2d_3">
      <path d="M 145.358338 576.718125 
L 145.358338 22.318125 
" clip-path="url(#pa36a2bb070)" style="fill: none; stroke: #b0b0b0; stroke-width: 0.8; stroke-linecap: square"/>
     </g>
     <g id="line2d_4">
      <g>
       <use xlink:href="#mef4f4be7d5" x="145.358338" y="576.718125" style="stroke: #000000; stroke-width: 0.8"/>
      </g>
     </g>
     <g id="text_2">
      <!-- 100 -->
      <g transform="translate(135.814588 591.316563) scale(0.1 -0.1)">
       <defs>
        <path id="DejaVuSans-31" d="M 794 531 
L 1825 531 
L 1825 4091 
L 703 3866 
L 703 4441 
L 1819 4666 
L 2450 4666 
L 2450 531 
L 3481 531 
L 3481 0 
L 794 0 
L 794 531 
z
" transform="scale(0.015625)"/>
       </defs>
       <use xlink:href="#DejaVuSans-31"/>
       <use xlink:href="#DejaVuSans-30" transform="translate(63.623047 0)"/>
       <use xlink:href="#DejaVuSans-30" transform="translate(127.246094 0)"/>
      </g>
     </g>
    </g>
    <g id="xtick_3">
     <g id="line2d_5">
      <path d="M 208.846789 576.718125 
L 208.846789 22.318125 
" clip-path="url(#pa36a2bb070)" style="fill: none; stroke: #b0b0b0; stroke-width: 0.8; stroke-linecap: square"/>
     </g>
     <g id="line2d_6">
      <g>
       <use xlink:href="#mef4f4be7d5" x="208.846789" y="576.718125" style="stroke: #000000; stroke-width: 0.8"/>
      </g>
     </g>
     <g id="text_3">
      <!-- 200 -->
      <g transform="translate(199.303039 591.316563) scale(0.1 -0.1)">
       <defs>
        <path id="DejaVuSans-32" d="M 1228 531 
L 3431 531 
L 3431 0 
L 469 0 
L 469 531 
Q 828 903 1448 1529 
Q 2069 2156 2228 2338 
Q 2531 2678 2651 2914 
Q 2772 3150 2772 3378 
Q 2772 3750 2511 3984 
Q 2250 4219 1831 4219 
Q 1534 4219 1204 4116 
Q 875 4013 500 3803 
L 500 4441 
Q 881 4594 1212 4672 
Q 1544 4750 1819 4750 
Q 2544 4750 2975 4387 
Q 3406 4025 3406 3419 
Q 3406 3131 3298 2873 
Q 3191 2616 2906 2266 
Q 2828 2175 2409 1742 
Q 1991 1309 1228 531 
z
" transform="scale(0.015625)"/>
       </defs>
       <use xlink:href="#DejaVuSans-32"/>
       <use xlink:href="#DejaVuSans-30" transform="translate(63.623047 0)"/>
       <use xlink:href="#DejaVuSans-30" transform="translate(127.246094 0)"/>
      </g>
     </g>
    </g>
    <g id="xtick_4">
     <g id="line2d_7">
      <path d="M 272.335241 576.718125 
L 272.335241 22.318125 
" clip-path="url(#pa36a2bb070)" style="fill: none; stroke: #b0b0b0; stroke-width: 0.8; stroke-linecap: square"/>
     </g>
     <g id="line2d_8">
      <g>
       <use xlink:href="#mef4f4be7d5" x="272.335241" y="576.718125" style="stroke: #000000; stroke-width: 0.8"/>
      </g>
     </g>
     <g id="text_4">
      <!-- 300 -->
      <g transform="translate(262.791491 591.316563) scale(0.1 -0.1)">
       <defs>
        <path id="DejaVuSans-33" d="M 2597 2516 
Q 3050 2419 3304 2112 
Q 3559 1806 3559 1356 
Q 3559 666 3084 287 
Q 2609 -91 1734 -91 
Q 1441 -91 1130 -33 
Q 819 25 488 141 
L 488 750 
Q 750 597 1062 519 
Q 1375 441 1716 441 
Q 2309 441 2620 675 
Q 2931 909 2931 1356 
Q 2931 1769 2642 2001 
Q 2353 2234 1838 2234 
L 1294 2234 
L 1294 2753 
L 1863 2753 
Q 2328 2753 2575 2939 
Q 2822 3125 2822 3475 
Q 2822 3834 2567 4026 
Q 2313 4219 1838 4219 
Q 1578 4219 1281 4162 
Q 984 4106 628 3988 
L 628 4550 
Q 988 4650 1302 4700 
Q 1616 4750 1894 4750 
Q 2613 4750 3031 4423 
Q 3450 4097 3450 3541 
Q 3450 3153 3228 2886 
Q 3006 2619 2597 2516 
z
" transform="scale(0.015625)"/>
       </defs>
       <use xlink:href="#DejaVuSans-33"/>
       <use xlink:href="#DejaVuSans-30" transform="translate(63.623047 0)"/>
       <use xlink:href="#DejaVuSans-30" transform="translate(127.246094 0)"/>
      </g>
     </g>
    </g>
    <g id="xtick_5">
     <g id="line2d_9">
      <path d="M 335.823692 576.718125 
L 335.823692 22.318125 
" clip-path="url(#pa36a2bb070)" style="fill: none; stroke: #b0b0b0; stroke-width: 0.8; stroke-linecap: square"/>
     </g>
     <g id="line2d_10">
      <g>
       <use xlink:href="#mef4f4be7d5" x="335.823692" y="576.718125" style="stroke: #000000; stroke-width: 0.8"/>
      </g>
     </g>
     <g id="text_5">
      <!-- 400 -->
      <g transform="translate(326.279942 591.316563) scale(0.1 -0.1)">
       <defs>
        <path id="DejaVuSans-34" d="M 2419 4116 
L 825 1625 
L 2419 1625 
L 2419 4116 
z
M 2253 4666 
L 3047 4666 
L 3047 1625 
L 3713 1625 
L 3713 1100 
L 3047 1100 
L 3047 0 
L 2419 0 
L 2419 1100 
L 313 1100 
L 313 1709 
L 2253 4666 
z
" transform="scale(0.015625)"/>
       </defs>
       <use xlink:href="#DejaVuSans-34"/>
       <use xlink:href="#DejaVuSans-30" transform="translate(63.623047 0)"/>
       <use xlink:href="#DejaVuSans-30" transform="translate(127.246094 0)"/>
      </g>
     </g>
    </g>
    <g id="xtick_6">
     <g id="line2d_11">
      <path d="M 399.312144 576.718125 
L 399.312144 22.318125 
" clip-path="url(#pa36a2bb070)" style="fill: none; stroke: #b0b0b0; stroke-width: 0.8; stroke-linecap: square"/>
     </g>
     <g id="line2d_12">
      <g>
       <use xlink:href="#mef4f4be7d5" x="399.312144" y="576.718125" style="stroke: #000000; stroke-width: 0.8"/>
      </g>
     </g>
     <g id="text_6">
      <!-- 500 -->
      <g transform="translate(389.768394 591.316563) scale(0.1 -0.1)">
       <defs>
        <path id="DejaVuSans-35" d="M 691 4666 
L 3169 4666 
L 3169 4134 
L 1269 4134 
L 1269 2991 
Q 1406 3038 1543 3061 
Q 1681 3084 1819 3084 
Q 2600 3084 3056 2656 
Q 3513 2228 3513 1497 
Q 3513 744 3044 326 
Q 2575 -91 1722 -91 
Q 1428 -91 1123 -41 
Q 819 9 494 109 
L 494 744 
Q 775 591 1075 516 
Q 1375 441 1709 441 
Q 2250 441 2565 725 
Q 2881 1009 2881 1497 
Q 2881 1984 2565 2268 
Q 2250 2553 1709 2553 
Q 1456 2553 1204 2497 
Q 953 2441 691 2322 
L 691 4666 
z
" transform="scale(0.015625)"/>
       </defs>
       <use xlink:href="#DejaVuSans-35"/>
       <use xlink:href="#DejaVuSans-30" transform="translate(63.623047 0)"/>
       <use xlink:href="#DejaVuSans-30" transform="translate(127.246094 0)"/>
      </g>
     </g>
    </g>
    <g id="xtick_7">
     <g id="line2d_13">
      <path d="M 462.800595 576.718125 
L 462.800595 22.318125 
" clip-path="url(#pa36a2bb070)" style="fill: none; stroke: #b0b0b0; stroke-width: 0.8; stroke-linecap: square"/>
     </g>
     <g id="line2d_14">
      <g>
       <use xlink:href="#mef4f4be7d5" x="462.800595" y="576.718125" style="stroke: #000000; stroke-width: 0.8"/>
      </g>
     </g>
     <g id="text_7">
      <!-- 600 -->
      <g transform="translate(453.256845 591.316563) scale(0.1 -0.1)">
       <defs>
        <path id="DejaVuSans-36" d="M 2113 2584 
Q 1688 2584 1439 2293 
Q 1191 2003 1191 1497 
Q 1191 994 1439 701 
Q 1688 409 2113 409 
Q 2538 409 2786 701 
Q 3034 994 3034 1497 
Q 3034 2003 2786 2293 
Q 2538 2584 2113 2584 
z
M 3366 4563 
L 3366 3988 
Q 3128 4100 2886 4159 
Q 2644 4219 2406 4219 
Q 1781 4219 1451 3797 
Q 1122 3375 1075 2522 
Q 1259 2794 1537 2939 
Q 1816 3084 2150 3084 
Q 2853 3084 3261 2657 
Q 3669 2231 3669 1497 
Q 3669 778 3244 343 
Q 2819 -91 2113 -91 
Q 1303 -91 875 529 
Q 447 1150 447 2328 
Q 447 3434 972 4092 
Q 1497 4750 2381 4750 
Q 2619 4750 2861 4703 
Q 3103 4656 3366 4563 
z
" transform="scale(0.015625)"/>
       </defs>
       <use xlink:href="#DejaVuSans-36"/>
       <use xlink:href="#DejaVuSans-30" transform="translate(63.623047 0)"/>
       <use xlink:href="#DejaVuSans-30" transform="translate(127.246094 0)"/>
      </g>
     </g>
    </g>
    <g id="xtick_8">
     <g id="line2d_15">
      <path d="M 526.289047 576.718125 
L 526.289047 22.318125 
" clip-path="url(#pa36a2bb070)" style="fill: none; stroke: #b0b0b0; stroke-width: 0.8; stroke-linecap: square"/>
     </g>
     <g id="line2d_16">
      <g>
       <use xlink:href="#mef4f4be7d5" x="526.289047" y="576.718125" style="stroke: #000000; stroke-width: 0.8"/>
      </g>
     </g>
     <g id="text_8">
      <!-- 700 -->
      <g transform="translate(516.745297 591.316563) scale(0.1 -0.1)">
       <defs>
        <path id="DejaVuSans-37" d="M 525 4666 
L 3525 4666 
L 3525 4397 
L 1831 0 
L 1172 0 
L 2766 4134 
L 525 4134 
L 525 4666 
z
" transform="scale(0.015625)"/>
       </defs>
       <use xlink:href="#DejaVuSans-37"/>
       <use xlink:href="#DejaVuSans-30" transform="translate(63.623047 0)"/>
       <use xlink:href="#DejaVuSans-30" transform="translate(127.246094 0)"/>
      </g>
     </g>
    </g>
    <g id="xtick_9">
     <g id="line2d_17">
      <path d="M 589.777498 576.718125 
L 589.777498 22.318125 
" clip-path="url(#pa36a2bb070)" style="fill: none; stroke: #b0b0b0; stroke-width: 0.8; stroke-linecap: square"/>
     </g>
     <g id="line2d_18">
      <g>
       <use xlink:href="#mef4f4be7d5" x="589.777498" y="576.718125" style="stroke: #000000; stroke-width: 0.8"/>
      </g>
     </g>
     <g id="text_9">
      <!-- 800 -->
      <g transform="translate(580.233748 591.316563) scale(0.1 -0.1)">
       <defs>
        <path id="DejaVuSans-38" d="M 2034 2216 
Q 1584 2216 1326 1975 
Q 1069 1734 1069 1313 
Q 1069 891 1326 650 
Q 1584 409 2034 409 
Q 2484 409 2743 651 
Q 3003 894 3003 1313 
Q 3003 1734 2745 1975 
Q 2488 2216 2034 2216 
z
M 1403 2484 
Q 997 2584 770 2862 
Q 544 3141 544 3541 
Q 544 4100 942 4425 
Q 1341 4750 2034 4750 
Q 2731 4750 3128 4425 
Q 3525 4100 3525 3541 
Q 3525 3141 3298 2862 
Q 3072 2584 2669 2484 
Q 3125 2378 3379 2068 
Q 3634 1759 3634 1313 
Q 3634 634 3220 271 
Q 2806 -91 2034 -91 
Q 1263 -91 848 271 
Q 434 634 434 1313 
Q 434 1759 690 2068 
Q 947 2378 1403 2484 
z
M 1172 3481 
Q 1172 3119 1398 2916 
Q 1625 2713 2034 2713 
Q 2441 2713 2670 2916 
Q 2900 3119 2900 3481 
Q 2900 3844 2670 4047 
Q 2441 4250 2034 4250 
Q 1625 4250 1398 4047 
Q 1172 3844 1172 3481 
z
" transform="scale(0.015625)"/>
       </defs>
       <use xlink:href="#DejaVuSans-38"/>
       <use xlink:href="#DejaVuSans-30" transform="translate(63.623047 0)"/>
       <use xlink:href="#DejaVuSans-30" transform="translate(127.246094 0)"/>
      </g>
     </g>
    </g>
    <g id="text_10">
     <!-- Epochs -->
     <g transform="translate(317.590625 604.994688) scale(0.1 -0.1)">
      <defs>
       <path id="DejaVuSans-45" d="M 628 4666 
L 3578 4666 
L 3578 4134 
L 1259 4134 
L 1259 2753 
L 3481 2753 
L 3481 2222 
L 1259 2222 
L 1259 531 
L 3634 531 
L 3634 0 
L 628 0 
L 628 4666 
z
" transform="scale(0.015625)"/>
       <path id="DejaVuSans-70" d="M 1159 525 
L 1159 -1331 
L 581 -1331 
L 581 3500 
L 1159 3500 
L 1159 2969 
Q 1341 3281 1617 3432 
Q 1894 3584 2278 3584 
Q 2916 3584 3314 3078 
Q 3713 2572 3713 1747 
Q 3713 922 3314 415 
Q 2916 -91 2278 -91 
Q 1894 -91 1617 61 
Q 1341 213 1159 525 
z
M 3116 1747 
Q 3116 2381 2855 2742 
Q 2594 3103 2138 3103 
Q 1681 3103 1420 2742 
Q 1159 2381 1159 1747 
Q 1159 1113 1420 752 
Q 1681 391 2138 391 
Q 2594 391 2855 752 
Q 3116 1113 3116 1747 
z
" transform="scale(0.015625)"/>
       <path id="DejaVuSans-6f" d="M 1959 3097 
Q 1497 3097 1228 2736 
Q 959 2375 959 1747 
Q 959 1119 1226 758 
Q 1494 397 1959 397 
Q 2419 397 2687 759 
Q 2956 1122 2956 1747 
Q 2956 2369 2687 2733 
Q 2419 3097 1959 3097 
z
M 1959 3584 
Q 2709 3584 3137 3096 
Q 3566 2609 3566 1747 
Q 3566 888 3137 398 
Q 2709 -91 1959 -91 
Q 1206 -91 779 398 
Q 353 888 353 1747 
Q 353 2609 779 3096 
Q 1206 3584 1959 3584 
z
" transform="scale(0.015625)"/>
       <path id="DejaVuSans-63" d="M 3122 3366 
L 3122 2828 
Q 2878 2963 2633 3030 
Q 2388 3097 2138 3097 
Q 1578 3097 1268 2742 
Q 959 2388 959 1747 
Q 959 1106 1268 751 
Q 1578 397 2138 397 
Q 2388 397 2633 464 
Q 2878 531 3122 666 
L 3122 134 
Q 2881 22 2623 -34 
Q 2366 -91 2075 -91 
Q 1284 -91 818 406 
Q 353 903 353 1747 
Q 353 2603 823 3093 
Q 1294 3584 2113 3584 
Q 2378 3584 2631 3529 
Q 2884 3475 3122 3366 
z
" transform="scale(0.015625)"/>
       <path id="DejaVuSans-68" d="M 3513 2113 
L 3513 0 
L 2938 0 
L 2938 2094 
Q 2938 2591 2744 2837 
Q 2550 3084 2163 3084 
Q 1697 3084 1428 2787 
Q 1159 2491 1159 1978 
L 1159 0 
L 581 0 
L 581 4863 
L 1159 4863 
L 1159 2956 
Q 1366 3272 1645 3428 
Q 1925 3584 2291 3584 
Q 2894 3584 3203 3211 
Q 3513 2838 3513 2113 
z
" transform="scale(0.015625)"/>
       <path id="DejaVuSans-73" d="M 2834 3397 
L 2834 2853 
Q 2591 2978 2328 3040 
Q 2066 3103 1784 3103 
Q 1356 3103 1142 2972 
Q 928 2841 928 2578 
Q 928 2378 1081 2264 
Q 1234 2150 1697 2047 
L 1894 2003 
Q 2506 1872 2764 1633 
Q 3022 1394 3022 966 
Q 3022 478 2636 193 
Q 2250 -91 1575 -91 
Q 1294 -91 989 -36 
Q 684 19 347 128 
L 347 722 
Q 666 556 975 473 
Q 1284 391 1588 391 
Q 1994 391 2212 530 
Q 2431 669 2431 922 
Q 2431 1156 2273 1281 
Q 2116 1406 1581 1522 
L 1381 1569 
Q 847 1681 609 1914 
Q 372 2147 372 2553 
Q 372 3047 722 3315 
Q 1072 3584 1716 3584 
Q 2034 3584 2315 3537 
Q 2597 3491 2834 3397 
z
" transform="scale(0.015625)"/>
      </defs>
      <use xlink:href="#DejaVuSans-45"/>
      <use xlink:href="#DejaVuSans-70" transform="translate(63.183594 0)"/>
      <use xlink:href="#DejaVuSans-6f" transform="translate(126.660156 0)"/>
      <use xlink:href="#DejaVuSans-63" transform="translate(187.841797 0)"/>
      <use xlink:href="#DejaVuSans-68" transform="translate(242.822266 0)"/>
      <use xlink:href="#DejaVuSans-73" transform="translate(306.201172 0)"/>
     </g>
    </g>
   </g>
   <g id="matplotlib.axis_2">
    <g id="ytick_1">
     <g id="line2d_19">
      <path d="M 56.50625 561.635068 
L 614.50625 561.635068 
" clip-path="url(#pa36a2bb070)" style="fill: none; stroke: #b0b0b0; stroke-width: 0.8; stroke-linecap: square"/>
     </g>
     <g id="line2d_20">
      <defs>
       <path id="mff9263bfff" d="M 0 0 
L -3.5 0 
" style="stroke: #000000; stroke-width: 0.8"/>
      </defs>
      <g>
       <use xlink:href="#mff9263bfff" x="56.50625" y="561.635068" style="stroke: #000000; stroke-width: 0.8"/>
      </g>
     </g>
     <g id="text_11">
      <!-- 0.000 -->
      <g transform="translate(20.878125 565.434287) scale(0.1 -0.1)">
       <defs>
        <path id="DejaVuSans-2e" d="M 684 794 
L 1344 794 
L 1344 0 
L 684 0 
L 684 794 
z
" transform="scale(0.015625)"/>
       </defs>
       <use xlink:href="#DejaVuSans-30"/>
       <use xlink:href="#DejaVuSans-2e" transform="translate(63.623047 0)"/>
       <use xlink:href="#DejaVuSans-30" transform="translate(95.410156 0)"/>
       <use xlink:href="#DejaVuSans-30" transform="translate(159.033203 0)"/>
       <use xlink:href="#DejaVuSans-30" transform="translate(222.65625 0)"/>
      </g>
     </g>
    </g>
    <g id="ytick_2">
     <g id="line2d_21">
      <path d="M 56.50625 496.886634 
L 614.50625 496.886634 
" clip-path="url(#pa36a2bb070)" style="fill: none; stroke: #b0b0b0; stroke-width: 0.8; stroke-linecap: square"/>
     </g>
     <g id="line2d_22">
      <g>
       <use xlink:href="#mff9263bfff" x="56.50625" y="496.886634" style="stroke: #000000; stroke-width: 0.8"/>
      </g>
     </g>
     <g id="text_12">
      <!-- 0.025 -->
      <g transform="translate(20.878125 500.685852) scale(0.1 -0.1)">
       <use xlink:href="#DejaVuSans-30"/>
       <use xlink:href="#DejaVuSans-2e" transform="translate(63.623047 0)"/>
       <use xlink:href="#DejaVuSans-30" transform="translate(95.410156 0)"/>
       <use xlink:href="#DejaVuSans-32" transform="translate(159.033203 0)"/>
       <use xlink:href="#DejaVuSans-35" transform="translate(222.65625 0)"/>
      </g>
     </g>
    </g>
    <g id="ytick_3">
     <g id="line2d_23">
      <path d="M 56.50625 432.1382 
L 614.50625 432.1382 
" clip-path="url(#pa36a2bb070)" style="fill: none; stroke: #b0b0b0; stroke-width: 0.8; stroke-linecap: square"/>
     </g>
     <g id="line2d_24">
      <g>
       <use xlink:href="#mff9263bfff" x="56.50625" y="432.1382" style="stroke: #000000; stroke-width: 0.8"/>
      </g>
     </g>
     <g id="text_13">
      <!-- 0.050 -->
      <g transform="translate(20.878125 435.937418) scale(0.1 -0.1)">
       <use xlink:href="#DejaVuSans-30"/>
       <use xlink:href="#DejaVuSans-2e" transform="translate(63.623047 0)"/>
       <use xlink:href="#DejaVuSans-30" transform="translate(95.410156 0)"/>
       <use xlink:href="#DejaVuSans-35" transform="translate(159.033203 0)"/>
       <use xlink:href="#DejaVuSans-30" transform="translate(222.65625 0)"/>
      </g>
     </g>
    </g>
    <g id="ytick_4">
     <g id="line2d_25">
      <path d="M 56.50625 367.389765 
L 614.50625 367.389765 
" clip-path="url(#pa36a2bb070)" style="fill: none; stroke: #b0b0b0; stroke-width: 0.8; stroke-linecap: square"/>
     </g>
     <g id="line2d_26">
      <g>
       <use xlink:href="#mff9263bfff" x="56.50625" y="367.389765" style="stroke: #000000; stroke-width: 0.8"/>
      </g>
     </g>
     <g id="text_14">
      <!-- 0.075 -->
      <g transform="translate(20.878125 371.188984) scale(0.1 -0.1)">
       <use xlink:href="#DejaVuSans-30"/>
       <use xlink:href="#DejaVuSans-2e" transform="translate(63.623047 0)"/>
       <use xlink:href="#DejaVuSans-30" transform="translate(95.410156 0)"/>
       <use xlink:href="#DejaVuSans-37" transform="translate(159.033203 0)"/>
       <use xlink:href="#DejaVuSans-35" transform="translate(222.65625 0)"/>
      </g>
     </g>
    </g>
    <g id="ytick_5">
     <g id="line2d_27">
      <path d="M 56.50625 302.641331 
L 614.50625 302.641331 
" clip-path="url(#pa36a2bb070)" style="fill: none; stroke: #b0b0b0; stroke-width: 0.8; stroke-linecap: square"/>
     </g>
     <g id="line2d_28">
      <g>
       <use xlink:href="#mff9263bfff" x="56.50625" y="302.641331" style="stroke: #000000; stroke-width: 0.8"/>
      </g>
     </g>
     <g id="text_15">
      <!-- 0.100 -->
      <g transform="translate(20.878125 306.44055) scale(0.1 -0.1)">
       <use xlink:href="#DejaVuSans-30"/>
       <use xlink:href="#DejaVuSans-2e" transform="translate(63.623047 0)"/>
       <use xlink:href="#DejaVuSans-31" transform="translate(95.410156 0)"/>
       <use xlink:href="#DejaVuSans-30" transform="translate(159.033203 0)"/>
       <use xlink:href="#DejaVuSans-30" transform="translate(222.65625 0)"/>
      </g>
     </g>
    </g>
    <g id="ytick_6">
     <g id="line2d_29">
      <path d="M 56.50625 237.892897 
L 614.50625 237.892897 
" clip-path="url(#pa36a2bb070)" style="fill: none; stroke: #b0b0b0; stroke-width: 0.8; stroke-linecap: square"/>
     </g>
     <g id="line2d_30">
      <g>
       <use xlink:href="#mff9263bfff" x="56.50625" y="237.892897" style="stroke: #000000; stroke-width: 0.8"/>
      </g>
     </g>
     <g id="text_16">
      <!-- 0.125 -->
      <g transform="translate(20.878125 241.692116) scale(0.1 -0.1)">
       <use xlink:href="#DejaVuSans-30"/>
       <use xlink:href="#DejaVuSans-2e" transform="translate(63.623047 0)"/>
       <use xlink:href="#DejaVuSans-31" transform="translate(95.410156 0)"/>
       <use xlink:href="#DejaVuSans-32" transform="translate(159.033203 0)"/>
       <use xlink:href="#DejaVuSans-35" transform="translate(222.65625 0)"/>
      </g>
     </g>
    </g>
    <g id="ytick_7">
     <g id="line2d_31">
      <path d="M 56.50625 173.144463 
L 614.50625 173.144463 
" clip-path="url(#pa36a2bb070)" style="fill: none; stroke: #b0b0b0; stroke-width: 0.8; stroke-linecap: square"/>
     </g>
     <g id="line2d_32">
      <g>
       <use xlink:href="#mff9263bfff" x="56.50625" y="173.144463" style="stroke: #000000; stroke-width: 0.8"/>
      </g>
     </g>
     <g id="text_17">
      <!-- 0.150 -->
      <g transform="translate(20.878125 176.943682) scale(0.1 -0.1)">
       <use xlink:href="#DejaVuSans-30"/>
       <use xlink:href="#DejaVuSans-2e" transform="translate(63.623047 0)"/>
       <use xlink:href="#DejaVuSans-31" transform="translate(95.410156 0)"/>
       <use xlink:href="#DejaVuSans-35" transform="translate(159.033203 0)"/>
       <use xlink:href="#DejaVuSans-30" transform="translate(222.65625 0)"/>
      </g>
     </g>
    </g>
    <g id="ytick_8">
     <g id="line2d_33">
      <path d="M 56.50625 108.396029 
L 614.50625 108.396029 
" clip-path="url(#pa36a2bb070)" style="fill: none; stroke: #b0b0b0; stroke-width: 0.8; stroke-linecap: square"/>
     </g>
     <g id="line2d_34">
      <g>
       <use xlink:href="#mff9263bfff" x="56.50625" y="108.396029" style="stroke: #000000; stroke-width: 0.8"/>
      </g>
     </g>
     <g id="text_18">
      <!-- 0.175 -->
      <g transform="translate(20.878125 112.195248) scale(0.1 -0.1)">
       <use xlink:href="#DejaVuSans-30"/>
       <use xlink:href="#DejaVuSans-2e" transform="translate(63.623047 0)"/>
       <use xlink:href="#DejaVuSans-31" transform="translate(95.410156 0)"/>
       <use xlink:href="#DejaVuSans-37" transform="translate(159.033203 0)"/>
       <use xlink:href="#DejaVuSans-35" transform="translate(222.65625 0)"/>
      </g>
     </g>
    </g>
    <g id="ytick_9">
     <g id="line2d_35">
      <path d="M 56.50625 43.647595 
L 614.50625 43.647595 
" clip-path="url(#pa36a2bb070)" style="fill: none; stroke: #b0b0b0; stroke-width: 0.8; stroke-linecap: square"/>
     </g>
     <g id="line2d_36">
      <g>
       <use xlink:href="#mff9263bfff" x="56.50625" y="43.647595" style="stroke: #000000; stroke-width: 0.8"/>
      </g>
     </g>
     <g id="text_19">
      <!-- 0.200 -->
      <g transform="translate(20.878125 47.446813) scale(0.1 -0.1)">
       <use xlink:href="#DejaVuSans-30"/>
       <use xlink:href="#DejaVuSans-2e" transform="translate(63.623047 0)"/>
       <use xlink:href="#DejaVuSans-32" transform="translate(95.410156 0)"/>
       <use xlink:href="#DejaVuSans-30" transform="translate(159.033203 0)"/>
       <use xlink:href="#DejaVuSans-30" transform="translate(222.65625 0)"/>
      </g>
     </g>
    </g>
    <g id="text_20">
     <!-- Accuracy -->
     <g transform="translate(14.798437 322.34625) rotate(-90) scale(0.1 -0.1)">
      <defs>
       <path id="DejaVuSans-41" d="M 2188 4044 
L 1331 1722 
L 3047 1722 
L 2188 4044 
z
M 1831 4666 
L 2547 4666 
L 4325 0 
L 3669 0 
L 3244 1197 
L 1141 1197 
L 716 0 
L 50 0 
L 1831 4666 
z
" transform="scale(0.015625)"/>
       <path id="DejaVuSans-75" d="M 544 1381 
L 544 3500 
L 1119 3500 
L 1119 1403 
Q 1119 906 1312 657 
Q 1506 409 1894 409 
Q 2359 409 2629 706 
Q 2900 1003 2900 1516 
L 2900 3500 
L 3475 3500 
L 3475 0 
L 2900 0 
L 2900 538 
Q 2691 219 2414 64 
Q 2138 -91 1772 -91 
Q 1169 -91 856 284 
Q 544 659 544 1381 
z
M 1991 3584 
L 1991 3584 
z
" transform="scale(0.015625)"/>
       <path id="DejaVuSans-72" d="M 2631 2963 
Q 2534 3019 2420 3045 
Q 2306 3072 2169 3072 
Q 1681 3072 1420 2755 
Q 1159 2438 1159 1844 
L 1159 0 
L 581 0 
L 581 3500 
L 1159 3500 
L 1159 2956 
Q 1341 3275 1631 3429 
Q 1922 3584 2338 3584 
Q 2397 3584 2469 3576 
Q 2541 3569 2628 3553 
L 2631 2963 
z
" transform="scale(0.015625)"/>
       <path id="DejaVuSans-61" d="M 2194 1759 
Q 1497 1759 1228 1600 
Q 959 1441 959 1056 
Q 959 750 1161 570 
Q 1363 391 1709 391 
Q 2188 391 2477 730 
Q 2766 1069 2766 1631 
L 2766 1759 
L 2194 1759 
z
M 3341 1997 
L 3341 0 
L 2766 0 
L 2766 531 
Q 2569 213 2275 61 
Q 1981 -91 1556 -91 
Q 1019 -91 701 211 
Q 384 513 384 1019 
Q 384 1609 779 1909 
Q 1175 2209 1959 2209 
L 2766 2209 
L 2766 2266 
Q 2766 2663 2505 2880 
Q 2244 3097 1772 3097 
Q 1472 3097 1187 3025 
Q 903 2953 641 2809 
L 641 3341 
Q 956 3463 1253 3523 
Q 1550 3584 1831 3584 
Q 2591 3584 2966 3190 
Q 3341 2797 3341 1997 
z
" transform="scale(0.015625)"/>
       <path id="DejaVuSans-79" d="M 2059 -325 
Q 1816 -950 1584 -1140 
Q 1353 -1331 966 -1331 
L 506 -1331 
L 506 -850 
L 844 -850 
Q 1081 -850 1212 -737 
Q 1344 -625 1503 -206 
L 1606 56 
L 191 3500 
L 800 3500 
L 1894 763 
L 2988 3500 
L 3597 3500 
L 2059 -325 
z
" transform="scale(0.015625)"/>
      </defs>
      <use xlink:href="#DejaVuSans-41"/>
      <use xlink:href="#DejaVuSans-63" transform="translate(66.658203 0)"/>
      <use xlink:href="#DejaVuSans-63" transform="translate(121.638672 0)"/>
      <use xlink:href="#DejaVuSans-75" transform="translate(176.619141 0)"/>
      <use xlink:href="#DejaVuSans-72" transform="translate(239.998047 0)"/>
      <use xlink:href="#DejaVuSans-61" transform="translate(281.111328 0)"/>
      <use xlink:href="#DejaVuSans-63" transform="translate(342.390625 0)"/>
      <use xlink:href="#DejaVuSans-79" transform="translate(397.371094 0)"/>
     </g>
    </g>
   </g>
   <g id="line2d_37">
    <path d="M 81.869886 237.02957 
L 82.504771 226.756171 
L 83.139655 224.626644 
L 83.77454 224.482769 
L 84.409424 216.597856 
L 85.044309 215.605049 
L 85.679193 215.475531 
L 86.314078 225.087098 
L 86.948962 250.33899 
L 87.583847 248.943291 
L 88.218732 263.259893 
L 88.853616 268.482926 
L 89.488501 263.504496 
L 90.123385 263.576434 
L 91.393154 266.468541 
L 92.028039 259.317437 
L 92.662923 264.69874 
L 93.297808 261.259884 
L 93.932692 260.928949 
L 95.202461 256.209517 
L 95.837346 258.92894 
L 96.47223 255.461314 
L 97.107115 257.000888 
L 97.741999 255.159149 
L 98.376884 250.583593 
L 99.011768 252.52604 
L 99.646653 248.885748 
L 100.281537 248.137544 
L 100.916422 246.497242 
L 101.551306 249.490058 
L 102.186191 248.065588 
L 102.821075 243.979256 
L 103.45596 242.799389 
L 104.090844 242.784994 
L 104.725729 243.533198 
L 105.360613 240.281403 
L 105.995498 238.382103 
L 106.630382 238.583539 
L 107.265267 239.504409 
L 107.900151 234.957624 
L 109.16992 230.295735 
L 110.43969 228.108704 
L 111.074574 229.216595 
L 111.709459 227.504375 
L 112.344343 226.38205 
L 112.979228 224.310103 
L 113.614112 225.518761 
L 114.248997 223.446815 
L 114.883881 220.727354 
L 115.518766 220.094273 
L 116.15365 218.137411 
L 116.788535 216.943187 
L 117.423419 218.094264 
L 118.693188 213.015107 
L 119.328073 213.547498 
L 119.962957 210.957556 
L 120.597842 209.331629 
L 121.232726 209.864021 
L 121.867611 205.317255 
L 122.502495 206.8856 
L 123.13738 204.3532 
L 123.772264 203.504268 
L 125.042033 200.051037 
L 125.676918 200.770451 
L 126.311802 198.756047 
L 126.946687 197.360367 
L 127.581571 197.76324 
L 128.216456 193.86395 
L 128.85134 194.770424 
L 129.486225 192.540207 
L 130.121109 191.173318 
L 130.755994 192.482665 
L 131.390879 190.640926 
L 132.025763 189.80639 
L 132.660648 186.367515 
L 133.930417 185.921495 
L 134.565301 182.669681 
L 135.200186 183.489823 
L 135.83507 183.791968 
L 136.469955 179.691261 
L 137.104839 179.389077 
L 137.739724 179.748803 
L 138.374608 176.439447 
L 139.009493 176.856715 
L 139.644377 176.036574 
L 140.279262 176.957443 
L 140.914146 173.202028 
L 141.549031 172.684032 
L 142.183915 171.259562 
L 142.8188 172.525762 
L 143.453684 170.468211 
L 144.088569 166.453798 
L 144.723453 168.036538 
L 145.993222 166.899818 
L 146.628107 165.791927 
L 147.262991 166.151614 
L 147.897876 161.604848 
L 148.53276 163.734375 
L 149.167645 161.403431 
L 149.802529 161.619243 
L 150.437414 161.648034 
L 151.072298 159.95017 
L 151.707183 158.928573 
L 152.342067 158.23795 
L 152.976952 158.482553 
L 153.611837 157.41777 
L 154.246721 157.374623 
L 154.881606 155.489737 
L 155.51649 154.669596 
L 156.151375 152.324256 
L 156.786259 153.144397 
L 157.421144 152.91419 
L 158.056028 150.899786 
L 159.325797 149.734313 
L 159.960682 150.784662 
L 160.595566 148.338633 
L 161.865335 146.741498 
L 162.50022 146.770249 
L 163.135104 146.165959 
L 163.769989 146.209106 
L 164.404873 144.309825 
L 165.039758 144.770279 
L 166.309527 141.518465 
L 166.944411 141.532822 
L 168.21418 140.065204 
L 168.849065 138.727067 
L 169.483949 139.086793 
L 170.118834 139.029251 
L 170.753718 138.165924 
L 171.388603 137.518448 
L 172.023487 136.554393 
L 172.658372 137.360177 
L 173.293256 135.863769 
L 173.928141 135.043589 
L 174.563026 135.38892 
L 175.19791 134.324176 
L 175.832795 133.820575 
L 176.467679 134.640716 
L 177.102564 133.316974 
L 177.737448 130.85655 
L 178.372333 132.698288 
L 179.007217 130.338553 
L 179.642102 131.374546 
L 180.276986 129.791805 
L 180.911871 129.547202 
L 182.18164 130.22343 
L 182.816524 129.173081 
L 183.451409 126.986012 
L 184.086293 127.849339 
L 184.721178 124.784586 
L 185.356062 127.000407 
L 185.990947 126.727014 
L 186.625831 124.338527 
L 187.260716 124.381712 
L 187.8956 125.115521 
L 188.530485 122.496788 
L 189.165369 122.626306 
L 189.800254 120.626298 
L 190.435138 121.288169 
L 191.070023 119.906845 
L 191.704907 122.050768 
L 193.609561 117.374484 
L 194.244445 118.568746 
L 194.87933 117.345693 
L 195.514215 117.647877 
L 196.783984 115.978804 
L 197.418868 115.590287 
L 198.053753 114.827688 
L 198.688637 114.856479 
L 199.323522 113.403256 
L 199.958406 113.201801 
L 200.593291 114.468001 
L 201.228175 113.762944 
L 201.86306 111.878058 
L 202.497944 110.942794 
L 204.402598 111.417604 
L 205.037482 110.338465 
L 205.672367 111.216187 
L 206.307251 111.705393 
L 206.942136 108.568702 
L 207.57702 109.748569 
L 208.211905 109.561509 
L 208.846789 107.201774 
L 209.481674 108.683787 
L 210.116558 107.129836 
L 210.751443 108.396037 
L 211.386327 107.288107 
L 212.021212 105.072285 
L 212.656096 105.748552 
L 213.290981 105.820489 
L 213.925865 105.460763 
L 214.56075 105.575886 
L 215.195634 105.144223 
L 215.830519 103.201756 
L 216.465403 105.403221 
L 217.100288 104.482352 
L 218.370057 103.518297 
L 219.004942 102.755736 
L 219.639826 103.50394 
L 220.274711 101.676596 
L 220.909595 101.00033 
L 221.54448 102.583071 
L 222.179364 100.554271 
L 222.814249 100.439148 
L 223.449133 100.482334 
L 224.084018 99.86361 
L 224.718902 97.345643 
L 225.353787 101.086663 
L 225.988671 100.324064 
L 226.623556 100.280878 
L 227.25844 98.712533 
L 227.893325 98.669386 
L 228.528209 99.993128 
L 229.163094 99.878005 
L 229.797978 96.770105 
L 230.432863 97.849244 
L 231.067747 98.309659 
L 231.702632 98.165784 
L 232.337516 95.67657 
L 233.607285 96.669377 
L 234.24217 95.791654 
L 234.877054 95.547051 
L 235.511939 96.424774 
L 236.146823 94.870785 
L 236.781708 96.324046 
L 237.416592 93.791645 
L 238.051477 92.511089 
L 238.686362 94.611825 
L 239.321246 94.626182 
L 239.956131 93.61898 
L 240.591015 93.964311 
L 241.2259 95.417572 
L 241.860784 93.719708 
L 242.495669 92.467903 
L 243.130553 93.690956 
L 243.765438 91.849217 
L 244.400322 92.827629 
L 245.035207 94.367184 
L 245.670091 92.036239 
L 246.304976 91.532677 
L 246.93986 90.381561 
L 248.209629 90.683745 
L 248.844514 89.748481 
L 249.479398 91.863613 
L 250.114283 90.367205 
L 250.749167 90.280872 
L 251.384052 89.000277 
L 252.018936 88.640551 
L 252.653821 90.51108 
L 253.288705 89.000277 
L 253.92359 88.180135 
L 254.558474 89.417545 
L 255.193359 88.899549 
L 255.828243 88.784464 
L 256.463128 89.475087 
L 257.098012 88.640551 
L 257.732897 88.827611 
L 258.367781 88.00747 
L 259.63755 85.719672 
L 260.272435 87.820409 
L 260.90732 87.475078 
L 261.542204 86.957121 
L 262.177089 87.690929 
L 262.811973 86.942726 
L 263.446858 88.367196 
L 264.081742 87.417536 
L 265.351511 87.072205 
L 265.986396 85.676525 
L 266.62128 86.122584 
L 267.256165 87.719681 
L 267.891049 86.050608 
L 268.525934 88.252073 
L 269.160818 85.734068 
L 270.430587 85.748463 
L 271.065472 87.043415 
L 272.335241 87.575806 
L 272.970125 86.338397 
L 273.60501 86.482272 
L 274.239894 85.575797 
L 274.874779 86.669332 
L 275.509663 86.050608 
L 276.144548 86.237669 
L 276.779432 85.949919 
L 277.414317 85.331195 
L 278.049201 87.21608 
L 278.684086 86.784455 
L 279.31897 86.136941 
L 279.953855 84.827594 
L 281.223624 86.280854 
L 281.858509 85.489465 
L 282.493393 86.122584 
L 283.128278 84.208908 
L 283.763162 86.539852 
L 284.398047 85.34559 
L 285.032931 86.237669 
L 285.667816 85.115382 
L 286.3027 86.266459 
L 286.937585 83.604579 
L 287.572469 86.813207 
L 288.207354 86.280854 
L 289.477123 86.295211 
L 290.112007 85.158529 
L 290.746892 85.072196 
L 291.381776 87.403141 
L 292.016661 85.547007 
L 292.651545 85.964275 
L 293.921314 85.66213 
L 294.556199 85.244862 
L 295.191083 85.590193 
L 295.825968 83.748454 
L 296.460852 85.806005 
L 297.095737 84.683719 
L 297.730621 86.482272 
L 298.365506 85.806005 
L 299.00039 86.410334 
L 299.635275 85.518255 
L 300.270159 86.050608 
L 300.905044 85.63334 
L 301.539928 85.50386 
L 302.174813 84.957112 
L 302.809697 86.784455 
L 303.444582 85.949919 
L 304.079467 87.043415 
L 304.714351 84.870779 
L 305.349236 86.136941 
L 305.98412 85.057801 
L 306.619005 87.21608 
L 307.253889 85.158529 
L 307.888774 85.734068 
L 308.523658 85.575797 
L 309.158543 85.849191 
L 309.793427 85.000259 
L 310.428312 86.525457 
L 311.063196 86.122584 
L 311.698081 87.906742 
L 312.332965 84.899531 
L 312.96785 85.18732 
L 313.602734 85.000259 
L 314.237619 85.561402 
L 314.872503 87.734077 
L 315.507388 84.180118 
L 316.142272 87.000268 
L 317.412041 86.597395 
L 318.046926 85.029049 
L 318.68181 85.288047 
L 319.316695 85.978671 
L 319.951579 85.47507 
L 320.586464 85.37438 
L 321.221348 87.777262 
L 321.856233 85.50386 
L 322.491117 85.431922 
L 323.126002 87.172933 
L 323.760886 85.734068 
L 324.395771 87.388746 
L 325.030656 85.762858 
L 325.66554 86.640542 
L 326.300425 86.554209 
L 326.935309 87.777262 
L 327.570194 86.942726 
L 328.205078 85.806005 
L 329.474847 87.359994 
L 330.109732 87.388746 
L 330.744616 85.949919 
L 331.379501 86.208917 
L 332.64927 87.316808 
L 333.284154 86.784455 
L 333.919039 86.798812 
L 334.553923 88.870797 
L 335.188808 87.302413 
L 335.823692 87.446327 
L 336.458577 86.726874 
L 337.093461 87.590202 
L 337.728346 87.158538 
L 338.36323 86.280854 
L 338.998115 86.985873 
L 339.632999 88.079407 
L 340.902768 86.784455 
L 341.537653 86.856393 
L 342.172537 87.575806 
L 342.807422 86.784455 
L 343.442306 86.841998 
L 344.077191 87.144143 
L 344.712075 87.877952 
L 345.34696 86.798812 
L 345.981844 87.561411 
L 346.616729 88.065012 
L 347.251614 87.633349 
L 347.886498 89.662148 
L 348.521383 89.259275 
L 349.156267 88.079407 
L 349.791152 88.741279 
L 350.426036 88.885154 
L 351.060921 86.813207 
L 352.33069 88.913944 
L 352.965574 87.662139 
L 353.600459 87.877952 
L 354.235343 89.230484 
L 354.870228 88.453529 
L 355.505112 87.921137 
L 356.139997 89.489483 
L 356.774881 88.985881 
L 357.409766 88.928339 
L 358.04465 87.187328 
L 358.679535 89.029067 
L 359.314419 89.158547 
L 359.949304 87.834804 
L 360.584188 88.496676 
L 361.219073 89.791628 
L 361.853957 88.266468 
L 362.488842 90.252082 
L 363.123726 88.13695 
L 363.758611 90.065021 
L 364.393495 87.575806 
L 365.02838 88.712488 
L 366.298149 89.302422 
L 366.933033 89.705295 
L 367.567918 88.13695 
L 368.202803 88.770069 
L 368.837687 89.993084 
L 369.472572 89.072214 
L 370.107456 89.460692 
L 370.742341 89.518273 
L 371.377225 87.949928 
L 372.01211 87.604597 
L 372.646994 87.964284 
L 373.281879 91.101014 
L 373.916763 89.949936 
L 374.551648 89.316817 
L 375.186532 88.00747 
L 376.456301 88.712488 
L 377.091186 87.993075 
L 377.72607 89.259275 
L 378.360955 89.935541 
L 378.995839 89.849209 
L 379.630724 89.374359 
L 380.265608 88.367196 
L 380.900493 88.654946 
L 381.535377 90.252082 
L 382.170262 88.568613 
L 382.805146 89.475087 
L 383.440031 87.618992 
L 384.074915 89.27367 
L 384.7098 88.496676 
L 385.344684 88.252073 
L 385.979569 88.928339 
L 386.614453 89.043424 
L 387.249338 88.971486 
L 387.884222 87.834804 
L 388.519107 89.201733 
L 389.153991 90.252082 
L 389.788876 90.036269 
L 390.423761 88.29522 
L 391.058645 88.338405 
L 391.69353 89.503878 
L 392.328414 89.302422 
L 392.963299 88.093803 
L 393.598183 90.309624 
L 394.233068 88.741279 
L 394.867952 88.683736 
L 395.502837 88.352801 
L 396.772606 88.525466 
L 397.40749 89.216089 
L 398.042375 88.726883 
L 398.677259 87.906742 
L 399.312144 89.331212 
L 399.947028 89.518273 
L 400.581913 88.13695 
L 401.216797 88.266468 
L 401.851682 87.302413 
L 402.486566 86.885145 
L 403.121451 88.942734 
L 403.756335 89.345608 
L 404.39122 86.395939 
L 405.026104 87.748472 
L 405.660989 87.921137 
L 406.295873 86.582999 
L 406.930758 88.093803 
L 408.200527 89.086609 
L 408.835411 87.475078 
L 409.470296 87.129748 
L 410.10518 87.359994 
L 410.740065 88.870797 
L 411.37495 86.597395 
L 412.644719 88.496676 
L 413.279603 87.029058 
L 413.914488 88.237678 
L 414.549372 86.669332 
L 415.184257 87.921137 
L 415.819141 87.273661 
L 416.454026 88.16574 
L 417.08891 86.122584 
L 417.723795 86.726874 
L 418.358679 87.129748 
L 418.993564 86.496667 
L 419.628448 88.352801 
L 420.263333 87.417536 
L 420.898217 87.201724 
L 421.533102 87.647744 
L 422.167986 87.417536 
L 422.802871 86.784455 
L 423.437755 85.892338 
L 424.07264 88.079407 
L 424.707524 88.00747 
L 425.977293 86.669332 
L 426.612178 85.676525 
L 427.247062 87.100996 
L 427.881947 86.151336 
L 428.516831 85.892338 
L 429.151716 86.439125 
L 429.7866 85.547007 
L 430.421485 85.043445 
L 431.056369 85.547007 
L 431.691254 86.295211 
L 432.326138 85.34559 
L 432.961023 86.640542 
L 434.230792 84.856384 
L 434.865677 86.525457 
L 435.500561 87.029058 
L 436.135446 84.841989 
L 436.77033 85.431922 
L 437.405215 83.043436 
L 438.040099 84.064994 
L 438.674984 83.604579 
L 439.309868 84.683719 
L 439.944753 84.539844 
L 440.579637 84.669323 
L 441.214522 84.511053 
L 441.849406 83.187311 
L 442.484291 83.618974 
L 443.119175 81.906715 
L 443.75406 84.654928 
L 444.388944 83.31679 
L 445.023829 82.338379 
L 445.658713 82.856375 
L 446.293598 83.172915 
L 446.928482 83.964305 
L 447.563367 83.02904 
L 448.198251 83.892329 
L 448.833136 81.532633 
L 449.46802 83.575789 
L 450.102905 83.460704 
L 450.737789 81.331177 
L 451.372674 82.957103 
L 452.007558 82.223256 
L 452.642443 84.439116 
L 453.277327 80.064977 
L 453.912212 81.849173 
L 454.547097 81.935506 
L 455.181981 80.957094 
L 455.816866 80.554221 
L 456.45175 80.568578 
L 457.086635 82.295232 
L 457.721519 81.906715 
L 458.356404 80.151309 
L 459.626173 79.993039 
L 460.261057 80.726848 
L 460.895942 79.172898 
L 461.530826 80.05062 
L 462.165711 79.791622 
L 462.800595 80.65491 
L 463.43548 79.417501 
L 464.070364 79.949892 
L 464.705249 78.813172 
L 465.340133 79.676499 
L 466.609902 79.187293 
L 467.244787 80.252037 
L 467.879671 78.885148 
L 468.514556 78.252028 
L 469.14944 79.820374 
L 469.784325 77.172889 
L 470.419209 77.892341 
L 471.054094 78.021821 
L 471.688978 77.230431 
L 472.323863 76.726869 
L 472.958747 79.10096 
L 473.593632 78.309571 
L 474.228516 76.942681 
L 474.863401 78.78442 
L 475.498285 77.302407 
L 476.13317 76.59735 
L 476.768055 77.503824 
L 477.402939 76.453475 
L 478.037824 77.230431 
L 478.672708 76.252019 
L 479.307593 76.611746 
L 479.942477 76.525413 
L 480.577362 76.813163 
L 481.212246 75.719667 
L 481.847131 76.237624 
L 482.482015 76.525413 
L 483.1169 76.43908 
L 483.751784 75.993021 
L 484.386669 74.741216 
L 485.021553 76.295205 
L 485.656438 75.906689 
L 486.291322 74.467862 
L 486.926207 74.410281 
L 487.561091 76.381538 
L 488.195976 74.194468 
L 488.83086 74.367134 
L 489.465745 75.877937 
L 490.100629 74.453466 
L 490.735514 75.48942 
L 491.370398 74.208864 
L 492.005283 75.359941 
L 492.640167 74.539799 
L 493.909936 74.237615 
L 494.544821 74.108136 
L 495.179705 74.367134 
L 495.81459 74.050593 
L 496.449474 74.136926 
L 497.084359 73.64772 
L 497.719244 74.626132 
L 498.354128 72.050584 
L 498.989013 72.582937 
L 499.623897 73.561388 
L 500.258782 72.252002 
L 500.893666 72.755603 
L 501.528551 73.115329 
L 502.163435 73.345536 
L 502.79832 71.892314 
L 503.433204 72.98581 
L 504.068089 72.525395 
L 504.702973 69.964243 
L 505.337858 70.352721 
L 505.972742 72.467853 
L 506.607627 70.136908 
L 507.242511 72.151312 
L 507.877396 69.777182 
L 508.51228 71.086529 
L 509.147165 70.928259 
L 509.782049 70.223241 
L 510.416934 69.244791 
L 511.051818 68.942646 
L 511.686703 70.194451 
L 512.321587 69.647702 
L 512.956472 68.064962 
L 513.591356 69.546975 
L 514.226241 69.115311 
L 514.861125 69.805973 
L 515.49601 69.921057 
L 516.130894 66.885094 
L 516.765779 69.518184 
L 517.400663 66.870699 
L 518.035548 66.395889 
L 518.670433 67.762778 
L 519.305317 67.791569 
L 519.940202 67.028969 
L 520.575086 65.921039 
L 521.209971 65.446229 
L 521.844855 67.446238 
L 522.47974 66.827552 
L 523.114624 65.561352 
L 523.749509 65.302354 
L 524.384393 66.755576 
L 525.019278 66.769971 
L 525.654162 66.482221 
L 526.289047 64.87069 
L 526.923931 66.036163 
L 527.558816 65.676437 
L 528.1937 64.611692 
L 528.828585 65.561352 
L 529.463469 66.26637 
L 530.098354 64.769962 
L 530.733238 63.805946 
L 532.003007 64.698025 
L 532.637892 65.475019 
L 533.272776 65.172836 
L 533.907661 62.870681 
L 534.542545 64.295152 
L 535.17743 62.064935 
L 535.812314 62.928224 
L 536.447199 63.388678 
L 537.082083 62.626079 
L 537.716968 63.892279 
L 538.351852 63.734009 
L 539.621621 61.719604 
L 540.256506 63.345492 
L 540.891391 63.216012 
L 541.526275 60.957005 
L 542.16116 62.928224 
L 542.796044 60.309529 
L 543.430929 61.043338 
L 544.065813 62.136873 
L 544.700698 60.410257 
L 545.335582 61.187213 
L 545.970467 61.417459 
L 546.605351 62.496599 
L 547.240236 61.705209 
L 547.87512 59.187204 
L 548.510005 62.194415 
L 549.144889 61.057733 
L 549.779774 58.726789 
L 550.414658 60.352676 
L 551.049543 59.676448 
L 551.684427 59.331118 
L 552.319312 58.381458 
L 552.954196 59.331118 
L 553.589081 59.863471 
L 554.223965 58.15125 
L 554.85885 58.482186 
L 555.493734 56.712385 
L 556.128619 57.244776 
L 556.763503 56.539719 
L 557.398388 57.115258 
L 558.033272 57.906647 
L 558.668157 57.690796 
L 559.303041 58.079313 
L 559.937926 56.870655 
L 560.57281 57.316714 
L 561.207695 56.295116 
L 561.84258 56.467782 
L 562.477464 56.108056 
L 563.112349 56.309512 
L 563.747233 56.208784 
L 564.382118 55.964181 
L 565.017002 56.654842 
L 565.651887 56.079304 
L 566.286771 55.978576 
L 566.921656 54.640438 
L 567.55654 54.295107 
L 568.191425 53.777111 
L 568.826309 54.079295 
L 569.461194 53.244758 
L 570.096078 52.136828 
L 570.730963 54.021714 
L 571.365847 53.158426 
L 572.000732 56.021723 
L 572.635616 54.626043 
L 573.270501 52.251951 
L 573.905385 52.928218 
L 574.54027 51.144022 
L 575.175154 52.928218 
L 575.810039 52.496554 
L 576.444923 51.144022 
L 577.079808 51.244749 
L 577.714692 51.129626 
L 578.349577 51.331082 
L 578.984461 52.108038 
L 579.619346 51.849078 
L 580.25423 52.755553 
L 580.889115 50.309485 
L 581.523999 49.431801 
L 582.793768 49.028928 
L 583.428653 49.230345 
L 584.063538 50.036092 
L 584.698422 48.338266 
L 585.333307 48.280724 
L 585.968191 50.079277 
L 586.603076 48.165601 
L 587.23796 48.323871 
L 587.872845 47.518125 
L 588.507729 48.007331 
L 589.142614 48.813077 
L 589.142614 48.813077 
" clip-path="url(#pa36a2bb070)" style="fill: none; stroke: #1f77b4; stroke-width: 1.5; stroke-linecap: square"/>
   </g>
   <g id="line2d_38">
    <path d="M 81.869886 261.979317 
L 82.504771 232.84253 
L 83.139655 217.432393 
L 83.77454 181.173274 
L 84.409424 182.468226 
L 85.044309 266.900204 
L 85.679193 310.799633 
L 86.314078 328.411216 
L 86.948962 252.137562 
L 87.583847 310.540635 
L 88.218732 346.670275 
L 88.853616 292.670073 
L 89.488501 311.576608 
L 90.123385 362.339391 
L 90.75827 354.569582 
L 91.393154 293.576548 
L 92.028039 341.619889 
L 92.662923 310.929132 
L 93.297808 322.195357 
L 93.932692 303.288823 
L 94.567577 277.648433 
L 95.202461 323.490329 
L 95.837346 306.267243 
L 96.47223 333.461583 
L 97.107115 316.885992 
L 97.741999 270.008124 
L 98.376884 296.16649 
L 99.011768 306.526241 
L 99.646653 306.137744 
L 100.281537 304.324796 
L 100.916422 331.907633 
L 101.551306 309.634161 
L 102.186191 332.814107 
L 102.821075 317.27447 
L 103.45596 309.116184 
L 104.090844 315.979499 
L 104.725729 303.936299 
L 105.360613 312.094604 
L 105.995498 310.022658 
L 106.630382 308.598188 
L 107.265267 311.576608 
L 107.900151 324.526302 
L 108.535036 294.483022 
L 109.16992 282.698819 
L 109.804805 289.562154 
L 111.074574 317.27447 
L 111.709459 302.900326 
L 112.344343 296.16649 
L 112.979228 287.490188 
L 113.614112 303.8068 
L 114.248997 300.69888 
L 115.518766 288.65566 
L 116.15365 310.152157 
L 116.788535 294.483022 
L 117.423419 270.6556 
L 118.058304 273.504541 
L 118.693188 303.029825 
L 119.328073 288.008184 
L 119.962957 292.929072 
L 120.597842 309.634161 
L 121.232726 284.511768 
L 121.867611 298.497435 
L 122.502495 291.6341 
L 123.13738 303.677301 
L 123.772264 290.20963 
L 124.407149 285.418242 
L 125.042033 318.180964 
L 125.676918 264.439761 
L 126.311802 306.785239 
L 126.946687 299.921905 
L 127.581571 286.065737 
L 128.216456 311.835606 
L 128.85134 309.116184 
L 129.486225 292.152077 
L 130.121109 302.641327 
L 130.755994 284.123271 
L 131.390879 289.173657 
L 132.025763 303.418322 
L 132.660648 305.23127 
L 133.295532 290.857125 
L 133.930417 282.698819 
L 134.565301 293.058571 
L 135.200186 282.698819 
L 135.83507 293.058571 
L 136.469955 308.209691 
L 137.104839 283.475795 
L 137.739724 290.339129 
L 138.374608 285.288743 
L 139.644377 316.238497 
L 140.279262 295.648494 
L 140.914146 318.180964 
L 141.549031 308.598188 
L 142.183915 289.173657 
L 142.8188 311.18813 
L 143.453684 251.360568 
L 144.088569 297.849939 
L 144.723453 300.828379 
L 145.358338 302.25285 
L 145.993222 312.483102 
L 146.628107 315.591021 
L 147.262991 308.209691 
L 147.897876 311.317629 
L 148.53276 306.396742 
L 149.167645 303.418322 
L 149.802529 288.008184 
L 150.437414 299.144911 
L 151.072298 297.331962 
L 151.707183 315.591021 
L 152.342067 295.130517 
L 152.976952 284.25277 
L 153.611837 311.317629 
L 154.246721 311.317629 
L 154.881606 305.360769 
L 155.51649 284.900265 
L 156.151375 312.612581 
L 156.786259 283.216796 
L 157.421144 311.835606 
L 158.056028 295.518995 
L 158.690913 302.511828 
L 159.325797 297.202463 
L 159.960682 306.008245 
L 160.595566 297.590961 
L 161.230451 300.69888 
L 162.50022 290.339129 
L 163.769989 313.389576 
L 164.404873 298.108937 
L 165.039758 292.929072 
L 165.674642 308.33919 
L 166.309527 277.518934 
L 166.944411 303.418322 
L 167.579296 292.281576 
L 168.849065 320.641388 
L 169.483949 294.224043 
L 170.118834 284.900265 
L 170.753718 301.734853 
L 171.388603 285.029764 
L 172.023487 332.166611 
L 172.658372 299.27441 
L 173.293256 311.058631 
L 173.928141 318.957939 
L 174.563026 297.979438 
L 175.19791 297.072964 
L 175.832795 300.569381 
L 176.467679 284.123271 
L 177.102564 301.087377 
L 177.737448 298.108937 
L 178.372333 296.554987 
L 179.007217 321.288883 
L 179.642102 319.864413 
L 180.276986 288.526181 
L 180.911871 303.288823 
L 181.546755 283.605294 
L 182.18164 287.749186 
L 182.816524 308.33919 
L 183.451409 310.799633 
L 184.086293 315.979499 
L 184.721178 311.965105 
L 185.356062 288.914659 
L 185.990947 329.706168 
L 186.625831 310.670134 
L 187.260716 295.648494 
L 187.8956 321.80686 
L 188.530485 297.331962 
L 189.165369 303.029825 
L 189.800254 318.051465 
L 190.435138 275.18799 
L 191.070023 306.396742 
L 191.704907 296.684467 
L 192.339792 291.504601 
L 192.974676 300.569381 
L 193.609561 286.583714 
L 194.244445 286.583714 
L 194.87933 305.23127 
L 195.514215 301.993851 
L 196.149099 301.734853 
L 196.783984 321.029885 
L 197.418868 279.461401 
L 198.053753 304.065798 
L 198.688637 314.943526 
L 199.323522 302.382329 
L 199.958406 310.022658 
L 200.593291 305.360769 
L 201.228175 303.8068 
L 201.86306 316.885992 
L 202.497944 305.490268 
L 203.132829 289.303156 
L 203.767713 322.583855 
L 204.402598 306.65574 
L 205.037482 302.12335 
L 205.672367 296.425488 
L 206.307251 320.900386 
L 206.942136 297.72046 
L 207.57702 313.130578 
L 208.211905 300.180884 
L 208.846789 300.957878 
L 209.481674 311.18813 
L 210.116558 314.814046 
L 210.751443 313.260077 
L 211.386327 301.216857 
L 212.021212 315.591021 
L 212.656096 317.015492 
L 213.290981 313.519075 
L 213.925865 300.957878 
L 214.56075 304.842773 
L 215.195634 304.065798 
L 215.830519 310.799633 
L 216.465403 313.389576 
L 217.100288 309.116184 
L 217.735173 315.72052 
L 218.370057 315.332023 
L 219.004942 312.483102 
L 219.639826 313.778054 
L 220.274711 311.058631 
L 220.909595 294.224043 
L 221.54448 306.008245 
L 222.179364 310.929132 
L 222.814249 314.166551 
L 223.449133 297.849939 
L 224.084018 311.965105 
L 224.718902 316.108998 
L 225.353787 317.792467 
L 225.988671 317.921966 
L 226.623556 315.202524 
L 227.25844 311.706107 
L 227.893325 286.713213 
L 228.528209 328.540696 
L 229.163094 311.576608 
L 229.797978 314.166551 
L 230.432863 306.526241 
L 231.067747 301.346356 
L 231.702632 317.792467 
L 232.337516 323.101832 
L 232.972401 315.461522 
L 234.24217 305.878746 
L 234.877054 304.583775 
L 235.511939 307.432715 
L 236.146823 311.835606 
L 236.781708 281.403848 
L 237.416592 304.713274 
L 238.051477 319.734914 
L 238.686362 312.224104 
L 239.321246 323.878826 
L 239.956131 303.677301 
L 240.591015 316.626994 
L 241.2259 305.619767 
L 241.860784 303.418322 
L 242.495669 305.360769 
L 243.130553 315.591021 
L 243.765438 303.418322 
L 244.400322 316.108998 
L 245.035207 322.583855 
L 246.304976 312.094604 
L 246.93986 316.626994 
L 247.574745 308.209691 
L 248.209629 310.799633 
L 248.844514 302.511828 
L 249.479398 319.993912 
L 250.114283 320.123411 
L 250.749167 304.454295 
L 251.384052 302.900326 
L 252.018936 317.921966 
L 252.653821 315.850019 
L 253.288705 310.799633 
L 253.92359 314.555048 
L 254.558474 312.74208 
L 255.193359 319.087438 
L 255.828243 305.101771 
L 256.463128 302.900326 
L 257.098012 291.763599 
L 257.732897 310.799633 
L 258.367781 314.814046 
L 259.002666 316.885992 
L 259.63755 302.511828 
L 260.272435 293.447049 
L 260.90732 297.849939 
L 261.542204 305.23127 
L 262.177089 303.547802 
L 262.811973 312.87158 
L 263.446858 316.497495 
L 264.081742 295.777993 
L 264.716627 295.518995 
L 265.351511 297.72046 
L 265.986396 322.454356 
L 266.62128 308.33919 
L 267.256165 307.821213 
L 267.891049 340.972412 
L 268.525934 307.691714 
L 269.795703 299.015412 
L 270.430587 313.778054 
L 271.065472 314.684547 
L 271.700356 320.770887 
L 272.335241 323.490329 
L 272.970125 321.80686 
L 273.60501 317.533469 
L 274.239894 315.073025 
L 274.874779 321.677381 
L 275.509663 324.7853 
L 276.144548 310.411136 
L 276.779432 298.626934 
L 277.414317 307.173717 
L 278.049201 307.432715 
L 278.684086 309.504662 
L 279.31897 310.152157 
L 279.953855 308.209691 
L 280.588739 315.461522 
L 281.223624 315.073025 
L 281.858509 325.303277 
L 282.493393 327.116245 
L 283.128278 315.72052 
L 284.398047 314.29605 
L 285.032931 312.224104 
L 285.667816 320.25291 
L 286.3027 308.598188 
L 286.937585 303.288823 
L 287.572469 313.001079 
L 288.207354 320.25291 
L 288.842238 298.626934 
L 289.477123 317.144971 
L 290.112007 323.878826 
L 290.746892 302.25285 
L 291.381776 301.346356 
L 292.016661 298.108937 
L 292.651545 307.562215 
L 293.28643 326.857246 
L 294.556199 313.648574 
L 295.191083 309.504662 
L 295.825968 314.555048 
L 296.460852 313.778054 
L 297.095737 309.504662 
L 297.730621 315.202524 
L 298.365506 311.835606 
L 299.00039 322.195357 
L 299.635275 319.605415 
L 300.270159 324.008306 
L 300.905044 296.295989 
L 301.539928 308.598188 
L 302.174813 323.231331 
L 302.809697 321.418382 
L 303.444582 317.403969 
L 304.079467 316.108998 
L 304.714351 321.677381 
L 305.349236 319.734914 
L 305.98412 319.216937 
L 306.619005 304.583775 
L 307.253889 324.7853 
L 307.888774 319.993912 
L 308.523658 311.576608 
L 309.158543 321.159384 
L 309.793427 315.202524 
L 310.428312 322.195357 
L 311.063196 312.74208 
L 311.698081 329.31769 
L 312.332965 322.713354 
L 312.96785 319.475916 
L 313.602734 323.749327 
L 314.237619 316.497495 
L 314.872503 311.706107 
L 315.507388 315.332023 
L 316.142272 320.382409 
L 316.777157 310.540635 
L 317.412041 325.044298 
L 318.046926 329.058692 
L 318.68181 335.27455 
L 319.316695 314.555048 
L 319.951579 312.094604 
L 320.586464 328.670195 
L 321.221348 325.691774 
L 321.856233 311.058631 
L 322.491117 314.814046 
L 323.126002 313.260077 
L 323.760886 317.921966 
L 324.395771 318.051465 
L 325.030656 319.864413 
L 325.66554 323.36083 
L 326.300425 335.40403 
L 327.570194 318.051465 
L 328.205078 321.159384 
L 328.839963 313.778054 
L 329.474847 308.080191 
L 330.109732 328.799694 
L 330.744616 332.42561 
L 331.379501 323.231331 
L 332.014385 323.490329 
L 332.64927 333.85008 
L 333.284154 310.929132 
L 333.919039 323.490329 
L 334.553923 330.224164 
L 335.188808 335.27455 
L 335.823692 320.770887 
L 336.458577 318.569442 
L 337.093461 336.8285 
L 337.728346 324.526302 
L 338.36323 302.641327 
L 338.998115 335.145051 
L 339.632999 328.152218 
L 340.267884 325.173778 
L 340.902768 320.770887 
L 341.537653 318.698941 
L 342.172537 326.598248 
L 342.807422 331.130638 
L 343.442306 312.094604 
L 344.077191 321.80686 
L 344.712075 327.504722 
L 345.34696 326.20977 
L 345.981844 318.310444 
L 346.616729 327.116245 
L 347.251614 321.936359 
L 347.886498 329.965166 
L 348.521383 322.454356 
L 349.156267 329.706168 
L 349.791152 326.857246 
L 350.426036 324.914799 
L 351.060921 329.058692 
L 351.695805 334.368057 
L 352.33069 324.396803 
L 352.965574 325.821273 
L 353.600459 338.252971 
L 354.235343 322.842833 
L 354.870228 331.001139 
L 355.505112 334.756554 
L 356.139997 317.27447 
L 356.774881 334.497556 
L 357.409766 316.626994 
L 358.04465 331.001139 
L 358.679535 332.166611 
L 359.314419 329.31769 
L 359.949304 331.260137 
L 360.584188 330.87164 
L 361.219073 322.454356 
L 361.853957 312.483102 
L 362.488842 331.389636 
L 363.123726 324.7853 
L 363.758611 324.008306 
L 364.393495 327.89322 
L 365.02838 334.109078 
L 365.663264 335.145051 
L 366.298149 325.821273 
L 366.933033 320.25291 
L 367.567918 333.073105 
L 368.202803 325.432776 
L 368.837687 337.864474 
L 369.472572 328.540696 
L 370.107456 336.958 
L 370.742341 331.778134 
L 371.377225 336.181024 
L 372.01211 319.475916 
L 372.646994 334.627055 
L 373.281879 318.957939 
L 373.916763 334.497556 
L 374.551648 325.044298 
L 375.186532 318.439943 
L 375.821417 331.519135 
L 376.456301 333.720581 
L 377.091186 333.720581 
L 377.72607 330.224164 
L 378.360955 337.087499 
L 378.995839 330.094665 
L 379.630724 325.950772 
L 380.265608 323.36083 
L 380.900493 323.749327 
L 381.535377 334.109078 
L 382.170262 341.231391 
L 382.805146 332.814107 
L 383.440031 337.864474 
L 384.074915 332.037112 
L 384.7098 329.576688 
L 385.344684 333.073105 
L 385.979569 331.907633 
L 386.614453 342.91486 
L 387.249338 328.022719 
L 387.884222 335.663028 
L 388.519107 333.720581 
L 389.153991 331.260137 
L 389.788876 345.89328 
L 390.423761 338.38247 
L 391.058645 335.792527 
L 391.69353 334.756554 
L 392.328414 323.101832 
L 392.963299 325.432776 
L 393.598183 331.389636 
L 394.233068 330.87164 
L 394.867952 325.562275 
L 395.502837 336.181024 
L 396.137721 333.073105 
L 396.772606 335.40403 
L 397.40749 328.152218 
L 398.042375 326.986746 
L 398.677259 325.173778 
L 399.312144 332.037112 
L 399.947028 326.080271 
L 400.581913 338.38247 
L 401.216797 331.648635 
L 401.851682 328.929193 
L 403.121451 342.91486 
L 403.756335 338.770967 
L 404.39122 340.713414 
L 405.026104 328.540696 
L 405.660989 332.684608 
L 406.295873 328.152218 
L 406.930758 341.36089 
L 407.565642 340.713414 
L 408.200527 331.389636 
L 408.835411 337.087499 
L 409.470296 322.454356 
L 410.10518 339.159445 
L 410.740065 336.181024 
L 411.37495 336.310524 
L 412.009834 325.173778 
L 412.644719 339.418443 
L 413.279603 345.504802 
L 413.914488 335.015552 
L 414.549372 328.670195 
L 415.184257 345.504802 
L 415.819141 338.770967 
L 416.454026 327.116245 
L 417.08891 341.101892 
L 417.723795 332.42561 
L 418.358679 341.490389 
L 418.993564 336.569502 
L 419.628448 344.468829 
L 420.263333 344.468829 
L 420.898217 337.346497 
L 421.533102 343.044359 
L 422.167986 338.123472 
L 422.802871 326.857246 
L 423.437755 340.065919 
L 424.07264 333.073105 
L 424.707524 331.778134 
L 425.342409 333.979579 
L 425.977293 335.40403 
L 426.612178 327.89322 
L 427.247062 338.641468 
L 427.881947 337.346497 
L 428.516831 338.641468 
L 429.151716 338.123472 
L 429.7866 347.965227 
L 430.421485 345.245804 
L 431.056369 339.288944 
L 431.691254 340.713414 
L 432.326138 344.857307 
L 432.961023 336.051525 
L 433.595908 336.699001 
L 434.230792 334.238558 
L 434.865677 346.799754 
L 436.135446 331.001139 
L 436.77033 337.475996 
L 437.405215 335.792527 
L 438.040099 339.93642 
L 438.674984 353.663089 
L 439.309868 341.231391 
L 439.944753 343.562336 
L 440.579637 331.907633 
L 441.214522 330.87164 
L 441.849406 344.33933 
L 442.484291 326.986746 
L 443.119175 329.835667 
L 443.75406 338.900447 
L 444.388944 338.641468 
L 445.658713 326.20977 
L 446.293598 330.87164 
L 446.928482 345.634282 
L 447.563367 338.641468 
L 448.198251 345.763781 
L 448.833136 337.087499 
L 449.46802 332.814107 
L 450.102905 344.080332 
L 450.737789 340.583915 
L 451.372674 340.713414 
L 452.007558 340.713414 
L 452.642443 329.835667 
L 453.277327 332.296111 
L 453.912212 340.195418 
L 454.547097 336.569502 
L 455.181981 339.418443 
L 455.816866 338.900447 
L 456.45175 330.87164 
L 457.086635 343.173858 
L 457.721519 342.655862 
L 458.356404 335.792527 
L 458.991288 333.85008 
L 459.626173 343.691835 
L 460.261057 333.332084 
L 460.895942 339.93642 
L 462.165711 333.85008 
L 462.800595 331.519135 
L 463.43548 334.497556 
L 464.070364 335.145051 
L 464.705249 329.576688 
L 465.340133 337.864474 
L 465.975018 334.368057 
L 466.609902 344.080332 
L 467.244787 314.684547 
L 467.879671 343.303357 
L 468.514556 325.950772 
L 469.14944 321.936359 
L 469.784325 349.260198 
L 470.419209 344.209831 
L 471.054094 341.490389 
L 471.688978 326.598248 
L 472.323863 338.900447 
L 472.958747 340.324917 
L 473.593632 338.770967 
L 474.228516 334.497556 
L 474.863401 342.137885 
L 475.498285 325.303277 
L 476.13317 339.547942 
L 476.768055 318.310444 
L 478.037824 348.742221 
L 478.672708 328.281717 
L 479.307593 334.497556 
L 479.942477 329.058692 
L 480.577362 339.93642 
L 481.212246 334.627055 
L 481.847131 332.037112 
L 482.482015 333.202585 
L 483.1169 335.663028 
L 483.751784 329.188191 
L 484.386669 331.519135 
L 485.021553 329.447189 
L 485.656438 326.598248 
L 486.291322 336.051525 
L 486.926207 336.569502 
L 487.561091 327.763721 
L 488.195976 329.188191 
L 488.83086 335.792527 
L 489.465745 327.89322 
L 490.100629 334.368057 
L 490.735514 331.130638 
L 492.640167 340.065919 
L 493.275052 319.475916 
L 493.909936 326.080271 
L 494.544821 342.008386 
L 495.179705 329.835667 
L 495.81459 330.224164 
L 496.449474 330.094665 
L 497.084359 337.216998 
L 498.354128 327.245744 
L 498.989013 331.001139 
L 499.623897 329.965166 
L 500.258782 346.022779 
L 500.893666 324.267304 
L 502.163435 332.814107 
L 502.79832 339.547942 
L 503.433204 328.022719 
L 504.068089 334.886053 
L 504.702973 328.799694 
L 505.337858 328.929193 
L 505.972742 340.972412 
L 506.607627 329.188191 
L 507.242511 335.922026 
L 507.877396 338.123472 
L 508.51228 330.74216 
L 509.147165 330.87164 
L 509.782049 333.073105 
L 510.416934 332.037112 
L 511.686703 321.288883 
L 512.321587 325.691774 
L 512.956472 333.85008 
L 513.591356 327.116245 
L 514.226241 332.296111 
L 514.861125 312.094604 
L 515.49601 320.25291 
L 516.130894 324.396803 
L 516.765779 325.303277 
L 517.400663 331.130638 
L 518.035548 331.519135 
L 518.670433 317.403969 
L 519.305317 336.310524 
L 519.940202 321.547881 
L 520.575086 335.792527 
L 521.209971 335.533529 
L 521.844855 322.065858 
L 522.47974 318.698941 
L 523.114624 324.137805 
L 523.749509 334.886053 
L 524.384393 330.094665 
L 525.019278 336.051525 
L 525.654162 317.015492 
L 526.289047 337.216998 
L 526.923931 328.670195 
L 527.558816 329.965166 
L 528.1937 327.116245 
L 528.828585 332.943606 
L 529.463469 315.461522 
L 530.098354 314.943526 
L 530.733238 336.310524 
L 531.368123 326.20977 
L 532.003007 327.504722 
L 532.637892 329.706168 
L 533.272776 314.943526 
L 533.907661 329.965166 
L 534.542545 327.245744 
L 535.17743 330.612661 
L 535.812314 335.145051 
L 536.447199 320.123411 
L 537.082083 326.468749 
L 537.716968 326.986746 
L 538.351852 319.475916 
L 538.986737 315.332023 
L 539.621621 343.821334 
L 540.256506 330.094665 
L 540.891391 319.216937 
L 541.526275 337.087499 
L 542.16116 319.346436 
L 542.796044 325.303277 
L 543.430929 334.368057 
L 544.065813 328.022719 
L 545.335582 318.439943 
L 545.970467 318.957939 
L 546.605351 313.001079 
L 547.240236 325.950772 
L 547.87512 334.756554 
L 548.510005 326.857246 
L 549.144889 312.612581 
L 549.779774 329.447189 
L 550.414658 335.015552 
L 551.049543 324.008306 
L 551.684427 325.950772 
L 552.319312 315.72052 
L 552.954196 328.799694 
L 553.589081 319.864413 
L 554.223965 314.814046 
L 554.85885 327.245744 
L 555.493734 323.101832 
L 556.128619 317.533469 
L 556.763503 319.993912 
L 557.398388 335.145051 
L 558.033272 315.72052 
L 558.668157 310.540635 
L 559.303041 317.403969 
L 559.937926 325.562275 
L 560.57281 312.094604 
L 561.207695 318.698941 
L 561.84258 330.094665 
L 562.477464 319.216937 
L 563.112349 328.799694 
L 563.747233 326.080271 
L 564.382118 318.569442 
L 565.017002 335.015552 
L 565.651887 322.454356 
L 566.286771 318.957939 
L 566.921656 334.109078 
L 567.55654 326.986746 
L 568.191425 313.001079 
L 569.461194 327.763721 
L 570.096078 327.634222 
L 570.730963 327.375243 
L 571.365847 326.080271 
L 572.000732 324.008306 
L 573.270501 321.547881 
L 573.905385 317.792467 
L 574.54027 335.663028 
L 575.175154 321.029885 
L 575.810039 317.27447 
L 576.444923 327.245744 
L 577.079808 323.36083 
L 577.714692 326.727747 
L 578.349577 322.972333 
L 578.984461 326.33925 
L 579.619346 322.454356 
L 580.25423 323.490329 
L 580.889115 314.425549 
L 581.523999 330.483162 
L 582.158884 315.202524 
L 582.793768 313.907553 
L 583.428653 324.655801 
L 584.698422 320.511908 
L 585.333307 337.346497 
L 586.603076 318.180964 
L 587.23796 327.504722 
L 587.872845 325.950772 
L 588.507729 321.80686 
L 589.142614 315.72052 
L 589.142614 315.72052 
" clip-path="url(#pa36a2bb070)" style="fill: none; stroke: #ff7f0e; stroke-width: 1.5; stroke-linecap: square"/>
   </g>
   <g id="line2d_39">
    <path d="M 56.50625 551.518125 
L 614.50625 551.518125 
" clip-path="url(#pa36a2bb070)" style="fill: none; stroke-dasharray: 11.1,4.8; stroke-dashoffset: 0; stroke: #ff0000; stroke-width: 3"/>
   </g>
   <g id="patch_3">
    <path d="M 56.50625 576.718125 
L 56.50625 22.318125 
" style="fill: none; stroke: #000000; stroke-width: 0.8; stroke-linejoin: miter; stroke-linecap: square"/>
   </g>
   <g id="patch_4">
    <path d="M 614.50625 576.718125 
L 614.50625 22.318125 
" style="fill: none; stroke: #000000; stroke-width: 0.8; stroke-linejoin: miter; stroke-linecap: square"/>
   </g>
   <g id="patch_5">
    <path d="M 56.50625 576.718125 
L 614.50625 576.718125 
" style="fill: none; stroke: #000000; stroke-width: 0.8; stroke-linejoin: miter; stroke-linecap: square"/>
   </g>
   <g id="patch_6">
    <path d="M 56.50625 22.318125 
L 614.50625 22.318125 
" style="fill: none; stroke: #000000; stroke-width: 0.8; stroke-linejoin: miter; stroke-linecap: square"/>
   </g>
   <g id="text_21">
    <!-- Train and Val Accuracy -->
    <g transform="translate(267.727813 16.318125) scale(0.12 -0.12)">
     <defs>
      <path id="DejaVuSans-54" d="M -19 4666 
L 3928 4666 
L 3928 4134 
L 2272 4134 
L 2272 0 
L 1638 0 
L 1638 4134 
L -19 4134 
L -19 4666 
z
" transform="scale(0.015625)"/>
      <path id="DejaVuSans-69" d="M 603 3500 
L 1178 3500 
L 1178 0 
L 603 0 
L 603 3500 
z
M 603 4863 
L 1178 4863 
L 1178 4134 
L 603 4134 
L 603 4863 
z
" transform="scale(0.015625)"/>
      <path id="DejaVuSans-6e" d="M 3513 2113 
L 3513 0 
L 2938 0 
L 2938 2094 
Q 2938 2591 2744 2837 
Q 2550 3084 2163 3084 
Q 1697 3084 1428 2787 
Q 1159 2491 1159 1978 
L 1159 0 
L 581 0 
L 581 3500 
L 1159 3500 
L 1159 2956 
Q 1366 3272 1645 3428 
Q 1925 3584 2291 3584 
Q 2894 3584 3203 3211 
Q 3513 2838 3513 2113 
z
" transform="scale(0.015625)"/>
      <path id="DejaVuSans-20" transform="scale(0.015625)"/>
      <path id="DejaVuSans-64" d="M 2906 2969 
L 2906 4863 
L 3481 4863 
L 3481 0 
L 2906 0 
L 2906 525 
Q 2725 213 2448 61 
Q 2172 -91 1784 -91 
Q 1150 -91 751 415 
Q 353 922 353 1747 
Q 353 2572 751 3078 
Q 1150 3584 1784 3584 
Q 2172 3584 2448 3432 
Q 2725 3281 2906 2969 
z
M 947 1747 
Q 947 1113 1208 752 
Q 1469 391 1925 391 
Q 2381 391 2643 752 
Q 2906 1113 2906 1747 
Q 2906 2381 2643 2742 
Q 2381 3103 1925 3103 
Q 1469 3103 1208 2742 
Q 947 2381 947 1747 
z
" transform="scale(0.015625)"/>
      <path id="DejaVuSans-56" d="M 1831 0 
L 50 4666 
L 709 4666 
L 2188 738 
L 3669 4666 
L 4325 4666 
L 2547 0 
L 1831 0 
z
" transform="scale(0.015625)"/>
      <path id="DejaVuSans-6c" d="M 603 4863 
L 1178 4863 
L 1178 0 
L 603 0 
L 603 4863 
z
" transform="scale(0.015625)"/>
     </defs>
     <use xlink:href="#DejaVuSans-54"/>
     <use xlink:href="#DejaVuSans-72" transform="translate(46.333984 0)"/>
     <use xlink:href="#DejaVuSans-61" transform="translate(87.447266 0)"/>
     <use xlink:href="#DejaVuSans-69" transform="translate(148.726562 0)"/>
     <use xlink:href="#DejaVuSans-6e" transform="translate(176.509766 0)"/>
     <use xlink:href="#DejaVuSans-20" transform="translate(239.888672 0)"/>
     <use xlink:href="#DejaVuSans-61" transform="translate(271.675781 0)"/>
     <use xlink:href="#DejaVuSans-6e" transform="translate(332.955078 0)"/>
     <use xlink:href="#DejaVuSans-64" transform="translate(396.333984 0)"/>
     <use xlink:href="#DejaVuSans-20" transform="translate(459.810547 0)"/>
     <use xlink:href="#DejaVuSans-56" transform="translate(491.597656 0)"/>
     <use xlink:href="#DejaVuSans-61" transform="translate(552.255859 0)"/>
     <use xlink:href="#DejaVuSans-6c" transform="translate(613.535156 0)"/>
     <use xlink:href="#DejaVuSans-20" transform="translate(641.318359 0)"/>
     <use xlink:href="#DejaVuSans-41" transform="translate(673.105469 0)"/>
     <use xlink:href="#DejaVuSans-63" transform="translate(739.763672 0)"/>
     <use xlink:href="#DejaVuSans-63" transform="translate(794.744141 0)"/>
     <use xlink:href="#DejaVuSans-75" transform="translate(849.724609 0)"/>
     <use xlink:href="#DejaVuSans-72" transform="translate(913.103516 0)"/>
     <use xlink:href="#DejaVuSans-61" transform="translate(954.216797 0)"/>
     <use xlink:href="#DejaVuSans-63" transform="translate(1015.496094 0)"/>
     <use xlink:href="#DejaVuSans-79" transform="translate(1070.476562 0)"/>
    </g>
   </g>
   <g id="legend_1">
    <g id="patch_7">
     <path d="M 63.50625 74.90875 
L 230.629687 74.90875 
Q 232.629687 74.90875 232.629687 72.90875 
L 232.629687 29.318125 
Q 232.629687 27.318125 230.629687 27.318125 
L 63.50625 27.318125 
Q 61.50625 27.318125 61.50625 29.318125 
L 61.50625 72.90875 
Q 61.50625 74.90875 63.50625 74.90875 
z
" style="fill: #ffffff; opacity: 0.8; stroke: #cccccc; stroke-linejoin: miter"/>
    </g>
    <g id="line2d_40">
     <path d="M 65.50625 35.416562 
L 75.50625 35.416562 
L 85.50625 35.416562 
" style="fill: none; stroke: #1f77b4; stroke-width: 1.5; stroke-linecap: square"/>
    </g>
    <g id="text_22">
     <!-- train_accuracy -->
     <g transform="translate(93.50625 38.916562) scale(0.1 -0.1)">
      <defs>
       <path id="DejaVuSans-74" d="M 1172 4494 
L 1172 3500 
L 2356 3500 
L 2356 3053 
L 1172 3053 
L 1172 1153 
Q 1172 725 1289 603 
Q 1406 481 1766 481 
L 2356 481 
L 2356 0 
L 1766 0 
Q 1100 0 847 248 
Q 594 497 594 1153 
L 594 3053 
L 172 3053 
L 172 3500 
L 594 3500 
L 594 4494 
L 1172 4494 
z
" transform="scale(0.015625)"/>
       <path id="DejaVuSans-5f" d="M 3263 -1063 
L 3263 -1509 
L -63 -1509 
L -63 -1063 
L 3263 -1063 
z
" transform="scale(0.015625)"/>
      </defs>
      <use xlink:href="#DejaVuSans-74"/>
      <use xlink:href="#DejaVuSans-72" transform="translate(39.208984 0)"/>
      <use xlink:href="#DejaVuSans-61" transform="translate(80.322266 0)"/>
      <use xlink:href="#DejaVuSans-69" transform="translate(141.601562 0)"/>
      <use xlink:href="#DejaVuSans-6e" transform="translate(169.384766 0)"/>
      <use xlink:href="#DejaVuSans-5f" transform="translate(232.763672 0)"/>
      <use xlink:href="#DejaVuSans-61" transform="translate(282.763672 0)"/>
      <use xlink:href="#DejaVuSans-63" transform="translate(344.042969 0)"/>
      <use xlink:href="#DejaVuSans-63" transform="translate(399.023438 0)"/>
      <use xlink:href="#DejaVuSans-75" transform="translate(454.003906 0)"/>
      <use xlink:href="#DejaVuSans-72" transform="translate(517.382812 0)"/>
      <use xlink:href="#DejaVuSans-61" transform="translate(558.496094 0)"/>
      <use xlink:href="#DejaVuSans-63" transform="translate(619.775391 0)"/>
      <use xlink:href="#DejaVuSans-79" transform="translate(674.755859 0)"/>
     </g>
    </g>
    <g id="line2d_41">
     <path d="M 65.50625 50.372812 
L 75.50625 50.372812 
L 85.50625 50.372812 
" style="fill: none; stroke: #ff7f0e; stroke-width: 1.5; stroke-linecap: square"/>
    </g>
    <g id="text_23">
     <!-- val_accuracy -->
     <g transform="translate(93.50625 53.872812) scale(0.1 -0.1)">
      <defs>
       <path id="DejaVuSans-76" d="M 191 3500 
L 800 3500 
L 1894 563 
L 2988 3500 
L 3597 3500 
L 2284 0 
L 1503 0 
L 191 3500 
z
" transform="scale(0.015625)"/>
      </defs>
      <use xlink:href="#DejaVuSans-76"/>
      <use xlink:href="#DejaVuSans-61" transform="translate(59.179688 0)"/>
      <use xlink:href="#DejaVuSans-6c" transform="translate(120.458984 0)"/>
      <use xlink:href="#DejaVuSans-5f" transform="translate(148.242188 0)"/>
      <use xlink:href="#DejaVuSans-61" transform="translate(198.242188 0)"/>
      <use xlink:href="#DejaVuSans-63" transform="translate(259.521484 0)"/>
      <use xlink:href="#DejaVuSans-63" transform="translate(314.501953 0)"/>
      <use xlink:href="#DejaVuSans-75" transform="translate(369.482422 0)"/>
      <use xlink:href="#DejaVuSans-72" transform="translate(432.861328 0)"/>
      <use xlink:href="#DejaVuSans-61" transform="translate(473.974609 0)"/>
      <use xlink:href="#DejaVuSans-63" transform="translate(535.253906 0)"/>
      <use xlink:href="#DejaVuSans-79" transform="translate(590.234375 0)"/>
     </g>
    </g>
    <g id="line2d_42">
     <path d="M 65.50625 65.329062 
L 75.50625 65.329062 
L 85.50625 65.329062 
" style="fill: none; stroke-dasharray: 11.1,4.8; stroke-dashoffset: 0; stroke: #ff0000; stroke-width: 3"/>
    </g>
    <g id="text_24">
     <!-- Random-Guesser Accuracy -->
     <g transform="translate(93.50625 68.829062) scale(0.1 -0.1)">
      <defs>
       <path id="DejaVuSans-52" d="M 2841 2188 
Q 3044 2119 3236 1894 
Q 3428 1669 3622 1275 
L 4263 0 
L 3584 0 
L 2988 1197 
Q 2756 1666 2539 1819 
Q 2322 1972 1947 1972 
L 1259 1972 
L 1259 0 
L 628 0 
L 628 4666 
L 2053 4666 
Q 2853 4666 3247 4331 
Q 3641 3997 3641 3322 
Q 3641 2881 3436 2590 
Q 3231 2300 2841 2188 
z
M 1259 4147 
L 1259 2491 
L 2053 2491 
Q 2509 2491 2742 2702 
Q 2975 2913 2975 3322 
Q 2975 3731 2742 3939 
Q 2509 4147 2053 4147 
L 1259 4147 
z
" transform="scale(0.015625)"/>
       <path id="DejaVuSans-6d" d="M 3328 2828 
Q 3544 3216 3844 3400 
Q 4144 3584 4550 3584 
Q 5097 3584 5394 3201 
Q 5691 2819 5691 2113 
L 5691 0 
L 5113 0 
L 5113 2094 
Q 5113 2597 4934 2840 
Q 4756 3084 4391 3084 
Q 3944 3084 3684 2787 
Q 3425 2491 3425 1978 
L 3425 0 
L 2847 0 
L 2847 2094 
Q 2847 2600 2669 2842 
Q 2491 3084 2119 3084 
Q 1678 3084 1418 2786 
Q 1159 2488 1159 1978 
L 1159 0 
L 581 0 
L 581 3500 
L 1159 3500 
L 1159 2956 
Q 1356 3278 1631 3431 
Q 1906 3584 2284 3584 
Q 2666 3584 2933 3390 
Q 3200 3197 3328 2828 
z
" transform="scale(0.015625)"/>
       <path id="DejaVuSans-2d" d="M 313 2009 
L 1997 2009 
L 1997 1497 
L 313 1497 
L 313 2009 
z
" transform="scale(0.015625)"/>
       <path id="DejaVuSans-47" d="M 3809 666 
L 3809 1919 
L 2778 1919 
L 2778 2438 
L 4434 2438 
L 4434 434 
Q 4069 175 3628 42 
Q 3188 -91 2688 -91 
Q 1594 -91 976 548 
Q 359 1188 359 2328 
Q 359 3472 976 4111 
Q 1594 4750 2688 4750 
Q 3144 4750 3555 4637 
Q 3966 4525 4313 4306 
L 4313 3634 
Q 3963 3931 3569 4081 
Q 3175 4231 2741 4231 
Q 1884 4231 1454 3753 
Q 1025 3275 1025 2328 
Q 1025 1384 1454 906 
Q 1884 428 2741 428 
Q 3075 428 3337 486 
Q 3600 544 3809 666 
z
" transform="scale(0.015625)"/>
       <path id="DejaVuSans-65" d="M 3597 1894 
L 3597 1613 
L 953 1613 
Q 991 1019 1311 708 
Q 1631 397 2203 397 
Q 2534 397 2845 478 
Q 3156 559 3463 722 
L 3463 178 
Q 3153 47 2828 -22 
Q 2503 -91 2169 -91 
Q 1331 -91 842 396 
Q 353 884 353 1716 
Q 353 2575 817 3079 
Q 1281 3584 2069 3584 
Q 2775 3584 3186 3129 
Q 3597 2675 3597 1894 
z
M 3022 2063 
Q 3016 2534 2758 2815 
Q 2500 3097 2075 3097 
Q 1594 3097 1305 2825 
Q 1016 2553 972 2059 
L 3022 2063 
z
" transform="scale(0.015625)"/>
      </defs>
      <use xlink:href="#DejaVuSans-52"/>
      <use xlink:href="#DejaVuSans-61" transform="translate(67.232422 0)"/>
      <use xlink:href="#DejaVuSans-6e" transform="translate(128.511719 0)"/>
      <use xlink:href="#DejaVuSans-64" transform="translate(191.890625 0)"/>
      <use xlink:href="#DejaVuSans-6f" transform="translate(255.367188 0)"/>
      <use xlink:href="#DejaVuSans-6d" transform="translate(316.548828 0)"/>
      <use xlink:href="#DejaVuSans-2d" transform="translate(413.960938 0)"/>
      <use xlink:href="#DejaVuSans-47" transform="translate(453.669922 0)"/>
      <use xlink:href="#DejaVuSans-75" transform="translate(531.160156 0)"/>
      <use xlink:href="#DejaVuSans-65" transform="translate(594.539062 0)"/>
      <use xlink:href="#DejaVuSans-73" transform="translate(656.0625 0)"/>
      <use xlink:href="#DejaVuSans-73" transform="translate(708.162109 0)"/>
      <use xlink:href="#DejaVuSans-65" transform="translate(760.261719 0)"/>
      <use xlink:href="#DejaVuSans-72" transform="translate(821.785156 0)"/>
      <use xlink:href="#DejaVuSans-20" transform="translate(862.898438 0)"/>
      <use xlink:href="#DejaVuSans-41" transform="translate(894.685547 0)"/>
      <use xlink:href="#DejaVuSans-63" transform="translate(961.34375 0)"/>
      <use xlink:href="#DejaVuSans-63" transform="translate(1016.324219 0)"/>
      <use xlink:href="#DejaVuSans-75" transform="translate(1071.304688 0)"/>
      <use xlink:href="#DejaVuSans-72" transform="translate(1134.683594 0)"/>
      <use xlink:href="#DejaVuSans-61" transform="translate(1175.796875 0)"/>
      <use xlink:href="#DejaVuSans-63" transform="translate(1237.076172 0)"/>
      <use xlink:href="#DejaVuSans-79" transform="translate(1292.056641 0)"/>
     </g>
    </g>
   </g>
  </g>
 </g>
 <defs>
  <clipPath id="pa36a2bb070">
   <rect x="56.50625" y="22.318125" width="558" height="554.4"/>
  </clipPath>
 </defs>
</svg>
