<?xml version="1.0" encoding="utf-8" standalone="no"?>
<!DOCTYPE svg PUBLIC "-//W3C//DTD SVG 1.1//EN"
  "http://www.w3.org/Graphics/SVG/1.1/DTD/svg11.dtd">
<svg xmlns:xlink="http://www.w3.org/1999/xlink" width="615.34375pt" height="614.274375pt" viewBox="0 0 615.34375 614.274375" xmlns="http://www.w3.org/2000/svg" version="1.1">
 <metadata>
  <rdf:RDF xmlns:dc="http://purl.org/dc/elements/1.1/" xmlns:cc="http://creativecommons.org/ns#" xmlns:rdf="http://www.w3.org/1999/02/22-rdf-syntax-ns#">
   <cc:Work>
    <dc:type rdf:resource="http://purl.org/dc/dcmitype/StillImage"/>
    <dc:date>2026-05-23T23:24:30.908005</dc:date>
    <dc:format>image/svg+xml</dc:format>
    <dc:creator>
     <cc:Agent>
      <dc:title>Matplotlib v3.10.9, https://matplotlib.org/</dc:title>
     </cc:Agent>
    </dc:creator>
   </cc:Work>
  </rdf:RDF>
 </metadata>
 <defs>
  <style type="text/css">*{stroke-linejoin: round; stroke-linecap: butt}</style>
 </defs>
 <g id="figure_1">
  <g id="patch_1">
   <path d="M 0 614.274375 
L 615.34375 614.274375 
L 615.34375 0 
L 0 0 
z
" style="fill: #ffffff"/>
  </g>
  <g id="axes_1">
   <g id="patch_2">
    <path d="M 50.14375 576.718125 
L 608.14375 576.718125 
L 608.14375 22.318125 
L 50.14375 22.318125 
z
" style="fill: #ffffff"/>
   </g>
   <g id="matplotlib.axis_1">
    <g id="xtick_1">
     <g id="line2d_1">
      <path d="M 75.507386 576.718125 
L 75.507386 22.318125 
" clip-path="url(#pd6c124cab2)" style="fill: none; stroke: #b0b0b0; stroke-width: 0.8; stroke-linecap: square"/>
     </g>
     <g id="line2d_2">
      <defs>
       <path id="m706a9d1e64" d="M 0 0 
L 0 3.5 
" style="stroke: #000000; stroke-width: 0.8"/>
      </defs>
      <g>
       <use xlink:href="#m706a9d1e64" x="75.507386" y="576.718125" style="stroke: #000000; stroke-width: 0.8"/>
      </g>
     </g>
     <g id="text_1">
      <!-- 0 -->
      <g transform="translate(72.326136 591.316563) scale(0.1 -0.1)">
       <defs>
        <path id="DejaVuSans-30" d="M 2034 4250 
Q 1547 4250 1301 3770 
Q 1056 3291 1056 2328 
Q 1056 1369 1301 889 
Q 1547 409 2034 409 
Q 2525 409 2770 889 
Q 3016 1369 3016 2328 
Q 3016 3291 2770 3770 
Q 2525 4250 2034 4250 
z
M 2034 4750 
Q 2819 4750 3233 4129 
Q 3647 3509 3647 2328 
Q 3647 1150 3233 529 
Q 2819 -91 2034 -91 
Q 1250 -91 836 529 
Q 422 1150 422 2328 
Q 422 3509 836 4129 
Q 1250 4750 2034 4750 
z
" transform="scale(0.015625)"/>
       </defs>
       <use xlink:href="#DejaVuSans-30"/>
      </g>
     </g>
    </g>
    <g id="xtick_2">
     <g id="line2d_3">
      <path d="M 138.995838 576.718125 
L 138.995838 22.318125 
" clip-path="url(#pd6c124cab2)" style="fill: none; stroke: #b0b0b0; stroke-width: 0.8; stroke-linecap: square"/>
     </g>
     <g id="line2d_4">
      <g>
       <use xlink:href="#m706a9d1e64" x="138.995838" y="576.718125" style="stroke: #000000; stroke-width: 0.8"/>
      </g>
     </g>
     <g id="text_2">
      <!-- 100 -->
      <g transform="translate(129.452088 591.316563) scale(0.1 -0.1)">
       <defs>
        <path id="DejaVuSans-31" d="M 794 531 
L 1825 531 
L 1825 4091 
L 703 3866 
L 703 4441 
L 1819 4666 
L 2450 4666 
L 2450 531 
L 3481 531 
L 3481 0 
L 794 0 
L 794 531 
z
" transform="scale(0.015625)"/>
       </defs>
       <use xlink:href="#DejaVuSans-31"/>
       <use xlink:href="#DejaVuSans-30" transform="translate(63.623047 0)"/>
       <use xlink:href="#DejaVuSans-30" transform="translate(127.246094 0)"/>
      </g>
     </g>
    </g>
    <g id="xtick_3">
     <g id="line2d_5">
      <path d="M 202.484289 576.718125 
L 202.484289 22.318125 
" clip-path="url(#pd6c124cab2)" style="fill: none; stroke: #b0b0b0; stroke-width: 0.8; stroke-linecap: square"/>
     </g>
     <g id="line2d_6">
      <g>
       <use xlink:href="#m706a9d1e64" x="202.484289" y="576.718125" style="stroke: #000000; stroke-width: 0.8"/>
      </g>
     </g>
     <g id="text_3">
      <!-- 200 -->
      <g transform="translate(192.940539 591.316563) scale(0.1 -0.1)">
       <defs>
        <path id="DejaVuSans-32" d="M 1228 531 
L 3431 531 
L 3431 0 
L 469 0 
L 469 531 
Q 828 903 1448 1529 
Q 2069 2156 2228 2338 
Q 2531 2678 2651 2914 
Q 2772 3150 2772 3378 
Q 2772 3750 2511 3984 
Q 2250 4219 1831 4219 
Q 1534 4219 1204 4116 
Q 875 4013 500 3803 
L 500 4441 
Q 881 4594 1212 4672 
Q 1544 4750 1819 4750 
Q 2544 4750 2975 4387 
Q 3406 4025 3406 3419 
Q 3406 3131 3298 2873 
Q 3191 2616 2906 2266 
Q 2828 2175 2409 1742 
Q 1991 1309 1228 531 
z
" transform="scale(0.015625)"/>
       </defs>
       <use xlink:href="#DejaVuSans-32"/>
       <use xlink:href="#DejaVuSans-30" transform="translate(63.623047 0)"/>
       <use xlink:href="#DejaVuSans-30" transform="translate(127.246094 0)"/>
      </g>
     </g>
    </g>
    <g id="xtick_4">
     <g id="line2d_7">
      <path d="M 265.972741 576.718125 
L 265.972741 22.318125 
" clip-path="url(#pd6c124cab2)" style="fill: none; stroke: #b0b0b0; stroke-width: 0.8; stroke-linecap: square"/>
     </g>
     <g id="line2d_8">
      <g>
       <use xlink:href="#m706a9d1e64" x="265.972741" y="576.718125" style="stroke: #000000; stroke-width: 0.8"/>
      </g>
     </g>
     <g id="text_4">
      <!-- 300 -->
      <g transform="translate(256.428991 591.316563) scale(0.1 -0.1)">
       <defs>
        <path id="DejaVuSans-33" d="M 2597 2516 
Q 3050 2419 3304 2112 
Q 3559 1806 3559 1356 
Q 3559 666 3084 287 
Q 2609 -91 1734 -91 
Q 1441 -91 1130 -33 
Q 819 25 488 141 
L 488 750 
Q 750 597 1062 519 
Q 1375 441 1716 441 
Q 2309 441 2620 675 
Q 2931 909 2931 1356 
Q 2931 1769 2642 2001 
Q 2353 2234 1838 2234 
L 1294 2234 
L 1294 2753 
L 1863 2753 
Q 2328 2753 2575 2939 
Q 2822 3125 2822 3475 
Q 2822 3834 2567 4026 
Q 2313 4219 1838 4219 
Q 1578 4219 1281 4162 
Q 984 4106 628 3988 
L 628 4550 
Q 988 4650 1302 4700 
Q 1616 4750 1894 4750 
Q 2613 4750 3031 4423 
Q 3450 4097 3450 3541 
Q 3450 3153 3228 2886 
Q 3006 2619 2597 2516 
z
" transform="scale(0.015625)"/>
       </defs>
       <use xlink:href="#DejaVuSans-33"/>
       <use xlink:href="#DejaVuSans-30" transform="translate(63.623047 0)"/>
       <use xlink:href="#DejaVuSans-30" transform="translate(127.246094 0)"/>
      </g>
     </g>
    </g>
    <g id="xtick_5">
     <g id="line2d_9">
      <path d="M 329.461192 576.718125 
L 329.461192 22.318125 
" clip-path="url(#pd6c124cab2)" style="fill: none; stroke: #b0b0b0; stroke-width: 0.8; stroke-linecap: square"/>
     </g>
     <g id="line2d_10">
      <g>
       <use xlink:href="#m706a9d1e64" x="329.461192" y="576.718125" style="stroke: #000000; stroke-width: 0.8"/>
      </g>
     </g>
     <g id="text_5">
      <!-- 400 -->
      <g transform="translate(319.917442 591.316563) scale(0.1 -0.1)">
       <defs>
        <path id="DejaVuSans-34" d="M 2419 4116 
L 825 1625 
L 2419 1625 
L 2419 4116 
z
M 2253 4666 
L 3047 4666 
L 3047 1625 
L 3713 1625 
L 3713 1100 
L 3047 1100 
L 3047 0 
L 2419 0 
L 2419 1100 
L 313 1100 
L 313 1709 
L 2253 4666 
z
" transform="scale(0.015625)"/>
       </defs>
       <use xlink:href="#DejaVuSans-34"/>
       <use xlink:href="#DejaVuSans-30" transform="translate(63.623047 0)"/>
       <use xlink:href="#DejaVuSans-30" transform="translate(127.246094 0)"/>
      </g>
     </g>
    </g>
    <g id="xtick_6">
     <g id="line2d_11">
      <path d="M 392.949644 576.718125 
L 392.949644 22.318125 
" clip-path="url(#pd6c124cab2)" style="fill: none; stroke: #b0b0b0; stroke-width: 0.8; stroke-linecap: square"/>
     </g>
     <g id="line2d_12">
      <g>
       <use xlink:href="#m706a9d1e64" x="392.949644" y="576.718125" style="stroke: #000000; stroke-width: 0.8"/>
      </g>
     </g>
     <g id="text_6">
      <!-- 500 -->
      <g transform="translate(383.405894 591.316563) scale(0.1 -0.1)">
       <defs>
        <path id="DejaVuSans-35" d="M 691 4666 
L 3169 4666 
L 3169 4134 
L 1269 4134 
L 1269 2991 
Q 1406 3038 1543 3061 
Q 1681 3084 1819 3084 
Q 2600 3084 3056 2656 
Q 3513 2228 3513 1497 
Q 3513 744 3044 326 
Q 2575 -91 1722 -91 
Q 1428 -91 1123 -41 
Q 819 9 494 109 
L 494 744 
Q 775 591 1075 516 
Q 1375 441 1709 441 
Q 2250 441 2565 725 
Q 2881 1009 2881 1497 
Q 2881 1984 2565 2268 
Q 2250 2553 1709 2553 
Q 1456 2553 1204 2497 
Q 953 2441 691 2322 
L 691 4666 
z
" transform="scale(0.015625)"/>
       </defs>
       <use xlink:href="#DejaVuSans-35"/>
       <use xlink:href="#DejaVuSans-30" transform="translate(63.623047 0)"/>
       <use xlink:href="#DejaVuSans-30" transform="translate(127.246094 0)"/>
      </g>
     </g>
    </g>
    <g id="xtick_7">
     <g id="line2d_13">
      <path d="M 456.438095 576.718125 
L 456.438095 22.318125 
" clip-path="url(#pd6c124cab2)" style="fill: none; stroke: #b0b0b0; stroke-width: 0.8; stroke-linecap: square"/>
     </g>
     <g id="line2d_14">
      <g>
       <use xlink:href="#m706a9d1e64" x="456.438095" y="576.718125" style="stroke: #000000; stroke-width: 0.8"/>
      </g>
     </g>
     <g id="text_7">
      <!-- 600 -->
      <g transform="translate(446.894345 591.316563) scale(0.1 -0.1)">
       <defs>
        <path id="DejaVuSans-36" d="M 2113 2584 
Q 1688 2584 1439 2293 
Q 1191 2003 1191 1497 
Q 1191 994 1439 701 
Q 1688 409 2113 409 
Q 2538 409 2786 701 
Q 3034 994 3034 1497 
Q 3034 2003 2786 2293 
Q 2538 2584 2113 2584 
z
M 3366 4563 
L 3366 3988 
Q 3128 4100 2886 4159 
Q 2644 4219 2406 4219 
Q 1781 4219 1451 3797 
Q 1122 3375 1075 2522 
Q 1259 2794 1537 2939 
Q 1816 3084 2150 3084 
Q 2853 3084 3261 2657 
Q 3669 2231 3669 1497 
Q 3669 778 3244 343 
Q 2819 -91 2113 -91 
Q 1303 -91 875 529 
Q 447 1150 447 2328 
Q 447 3434 972 4092 
Q 1497 4750 2381 4750 
Q 2619 4750 2861 4703 
Q 3103 4656 3366 4563 
z
" transform="scale(0.015625)"/>
       </defs>
       <use xlink:href="#DejaVuSans-36"/>
       <use xlink:href="#DejaVuSans-30" transform="translate(63.623047 0)"/>
       <use xlink:href="#DejaVuSans-30" transform="translate(127.246094 0)"/>
      </g>
     </g>
    </g>
    <g id="xtick_8">
     <g id="line2d_15">
      <path d="M 519.926547 576.718125 
L 519.926547 22.318125 
" clip-path="url(#pd6c124cab2)" style="fill: none; stroke: #b0b0b0; stroke-width: 0.8; stroke-linecap: square"/>
     </g>
     <g id="line2d_16">
      <g>
       <use xlink:href="#m706a9d1e64" x="519.926547" y="576.718125" style="stroke: #000000; stroke-width: 0.8"/>
      </g>
     </g>
     <g id="text_8">
      <!-- 700 -->
      <g transform="translate(510.382797 591.316563) scale(0.1 -0.1)">
       <defs>
        <path id="DejaVuSans-37" d="M 525 4666 
L 3525 4666 
L 3525 4397 
L 1831 0 
L 1172 0 
L 2766 4134 
L 525 4134 
L 525 4666 
z
" transform="scale(0.015625)"/>
       </defs>
       <use xlink:href="#DejaVuSans-37"/>
       <use xlink:href="#DejaVuSans-30" transform="translate(63.623047 0)"/>
       <use xlink:href="#DejaVuSans-30" transform="translate(127.246094 0)"/>
      </g>
     </g>
    </g>
    <g id="xtick_9">
     <g id="line2d_17">
      <path d="M 583.414998 576.718125 
L 583.414998 22.318125 
" clip-path="url(#pd6c124cab2)" style="fill: none; stroke: #b0b0b0; stroke-width: 0.8; stroke-linecap: square"/>
     </g>
     <g id="line2d_18">
      <g>
       <use xlink:href="#m706a9d1e64" x="583.414998" y="576.718125" style="stroke: #000000; stroke-width: 0.8"/>
      </g>
     </g>
     <g id="text_9">
      <!-- 800 -->
      <g transform="translate(573.871248 591.316563) scale(0.1 -0.1)">
       <defs>
        <path id="DejaVuSans-38" d="M 2034 2216 
Q 1584 2216 1326 1975 
Q 1069 1734 1069 1313 
Q 1069 891 1326 650 
Q 1584 409 2034 409 
Q 2484 409 2743 651 
Q 3003 894 3003 1313 
Q 3003 1734 2745 1975 
Q 2488 2216 2034 2216 
z
M 1403 2484 
Q 997 2584 770 2862 
Q 544 3141 544 3541 
Q 544 4100 942 4425 
Q 1341 4750 2034 4750 
Q 2731 4750 3128 4425 
Q 3525 4100 3525 3541 
Q 3525 3141 3298 2862 
Q 3072 2584 2669 2484 
Q 3125 2378 3379 2068 
Q 3634 1759 3634 1313 
Q 3634 634 3220 271 
Q 2806 -91 2034 -91 
Q 1263 -91 848 271 
Q 434 634 434 1313 
Q 434 1759 690 2068 
Q 947 2378 1403 2484 
z
M 1172 3481 
Q 1172 3119 1398 2916 
Q 1625 2713 2034 2713 
Q 2441 2713 2670 2916 
Q 2900 3119 2900 3481 
Q 2900 3844 2670 4047 
Q 2441 4250 2034 4250 
Q 1625 4250 1398 4047 
Q 1172 3844 1172 3481 
z
" transform="scale(0.015625)"/>
       </defs>
       <use xlink:href="#DejaVuSans-38"/>
       <use xlink:href="#DejaVuSans-30" transform="translate(63.623047 0)"/>
       <use xlink:href="#DejaVuSans-30" transform="translate(127.246094 0)"/>
      </g>
     </g>
    </g>
    <g id="text_10">
     <!-- Epochs -->
     <g transform="translate(311.228125 604.994688) scale(0.1 -0.1)">
      <defs>
       <path id="DejaVuSans-45" d="M 628 4666 
L 3578 4666 
L 3578 4134 
L 1259 4134 
L 1259 2753 
L 3481 2753 
L 3481 2222 
L 1259 2222 
L 1259 531 
L 3634 531 
L 3634 0 
L 628 0 
L 628 4666 
z
" transform="scale(0.015625)"/>
       <path id="DejaVuSans-70" d="M 1159 525 
L 1159 -1331 
L 581 -1331 
L 581 3500 
L 1159 3500 
L 1159 2969 
Q 1341 3281 1617 3432 
Q 1894 3584 2278 3584 
Q 2916 3584 3314 3078 
Q 3713 2572 3713 1747 
Q 3713 922 3314 415 
Q 2916 -91 2278 -91 
Q 1894 -91 1617 61 
Q 1341 213 1159 525 
z
M 3116 1747 
Q 3116 2381 2855 2742 
Q 2594 3103 2138 3103 
Q 1681 3103 1420 2742 
Q 1159 2381 1159 1747 
Q 1159 1113 1420 752 
Q 1681 391 2138 391 
Q 2594 391 2855 752 
Q 3116 1113 3116 1747 
z
" transform="scale(0.015625)"/>
       <path id="DejaVuSans-6f" d="M 1959 3097 
Q 1497 3097 1228 2736 
Q 959 2375 959 1747 
Q 959 1119 1226 758 
Q 1494 397 1959 397 
Q 2419 397 2687 759 
Q 2956 1122 2956 1747 
Q 2956 2369 2687 2733 
Q 2419 3097 1959 3097 
z
M 1959 3584 
Q 2709 3584 3137 3096 
Q 3566 2609 3566 1747 
Q 3566 888 3137 398 
Q 2709 -91 1959 -91 
Q 1206 -91 779 398 
Q 353 888 353 1747 
Q 353 2609 779 3096 
Q 1206 3584 1959 3584 
z
" transform="scale(0.015625)"/>
       <path id="DejaVuSans-63" d="M 3122 3366 
L 3122 2828 
Q 2878 2963 2633 3030 
Q 2388 3097 2138 3097 
Q 1578 3097 1268 2742 
Q 959 2388 959 1747 
Q 959 1106 1268 751 
Q 1578 397 2138 397 
Q 2388 397 2633 464 
Q 2878 531 3122 666 
L 3122 134 
Q 2881 22 2623 -34 
Q 2366 -91 2075 -91 
Q 1284 -91 818 406 
Q 353 903 353 1747 
Q 353 2603 823 3093 
Q 1294 3584 2113 3584 
Q 2378 3584 2631 3529 
Q 2884 3475 3122 3366 
z
" transform="scale(0.015625)"/>
       <path id="DejaVuSans-68" d="M 3513 2113 
L 3513 0 
L 2938 0 
L 2938 2094 
Q 2938 2591 2744 2837 
Q 2550 3084 2163 3084 
Q 1697 3084 1428 2787 
Q 1159 2491 1159 1978 
L 1159 0 
L 581 0 
L 581 4863 
L 1159 4863 
L 1159 2956 
Q 1366 3272 1645 3428 
Q 1925 3584 2291 3584 
Q 2894 3584 3203 3211 
Q 3513 2838 3513 2113 
z
" transform="scale(0.015625)"/>
       <path id="DejaVuSans-73" d="M 2834 3397 
L 2834 2853 
Q 2591 2978 2328 3040 
Q 2066 3103 1784 3103 
Q 1356 3103 1142 2972 
Q 928 2841 928 2578 
Q 928 2378 1081 2264 
Q 1234 2150 1697 2047 
L 1894 2003 
Q 2506 1872 2764 1633 
Q 3022 1394 3022 966 
Q 3022 478 2636 193 
Q 2250 -91 1575 -91 
Q 1294 -91 989 -36 
Q 684 19 347 128 
L 347 722 
Q 666 556 975 473 
Q 1284 391 1588 391 
Q 1994 391 2212 530 
Q 2431 669 2431 922 
Q 2431 1156 2273 1281 
Q 2116 1406 1581 1522 
L 1381 1569 
Q 847 1681 609 1914 
Q 372 2147 372 2553 
Q 372 3047 722 3315 
Q 1072 3584 1716 3584 
Q 2034 3584 2315 3537 
Q 2597 3491 2834 3397 
z
" transform="scale(0.015625)"/>
      </defs>
      <use xlink:href="#DejaVuSans-45"/>
      <use xlink:href="#DejaVuSans-70" transform="translate(63.183594 0)"/>
      <use xlink:href="#DejaVuSans-6f" transform="translate(126.660156 0)"/>
      <use xlink:href="#DejaVuSans-63" transform="translate(187.841797 0)"/>
      <use xlink:href="#DejaVuSans-68" transform="translate(242.822266 0)"/>
      <use xlink:href="#DejaVuSans-73" transform="translate(306.201172 0)"/>
     </g>
    </g>
   </g>
   <g id="matplotlib.axis_2">
    <g id="ytick_1">
     <g id="line2d_19">
      <path d="M 50.14375 514.596083 
L 608.14375 514.596083 
" clip-path="url(#pd6c124cab2)" style="fill: none; stroke: #b0b0b0; stroke-width: 0.8; stroke-linecap: square"/>
     </g>
     <g id="line2d_20">
      <defs>
       <path id="m0090e4c9cc" d="M 0 0 
L -3.5 0 
" style="stroke: #000000; stroke-width: 0.8"/>
      </defs>
      <g>
       <use xlink:href="#m0090e4c9cc" x="50.14375" y="514.596083" style="stroke: #000000; stroke-width: 0.8"/>
      </g>
     </g>
     <g id="text_11">
      <!-- 0.50 -->
      <g transform="translate(20.878125 518.395302) scale(0.1 -0.1)">
       <defs>
        <path id="DejaVuSans-2e" d="M 684 794 
L 1344 794 
L 1344 0 
L 684 0 
L 684 794 
z
" transform="scale(0.015625)"/>
       </defs>
       <use xlink:href="#DejaVuSans-30"/>
       <use xlink:href="#DejaVuSans-2e" transform="translate(63.623047 0)"/>
       <use xlink:href="#DejaVuSans-35" transform="translate(95.410156 0)"/>
       <use xlink:href="#DejaVuSans-30" transform="translate(159.033203 0)"/>
      </g>
     </g>
    </g>
    <g id="ytick_2">
     <g id="line2d_21">
      <path d="M 50.14375 445.76385 
L 608.14375 445.76385 
" clip-path="url(#pd6c124cab2)" style="fill: none; stroke: #b0b0b0; stroke-width: 0.8; stroke-linecap: square"/>
     </g>
     <g id="line2d_22">
      <g>
       <use xlink:href="#m0090e4c9cc" x="50.14375" y="445.76385" style="stroke: #000000; stroke-width: 0.8"/>
      </g>
     </g>
     <g id="text_12">
      <!-- 0.75 -->
      <g transform="translate(20.878125 449.563069) scale(0.1 -0.1)">
       <use xlink:href="#DejaVuSans-30"/>
       <use xlink:href="#DejaVuSans-2e" transform="translate(63.623047 0)"/>
       <use xlink:href="#DejaVuSans-37" transform="translate(95.410156 0)"/>
       <use xlink:href="#DejaVuSans-35" transform="translate(159.033203 0)"/>
      </g>
     </g>
    </g>
    <g id="ytick_3">
     <g id="line2d_23">
      <path d="M 50.14375 376.931617 
L 608.14375 376.931617 
" clip-path="url(#pd6c124cab2)" style="fill: none; stroke: #b0b0b0; stroke-width: 0.8; stroke-linecap: square"/>
     </g>
     <g id="line2d_24">
      <g>
       <use xlink:href="#m0090e4c9cc" x="50.14375" y="376.931617" style="stroke: #000000; stroke-width: 0.8"/>
      </g>
     </g>
     <g id="text_13">
      <!-- 1.00 -->
      <g transform="translate(20.878125 380.730836) scale(0.1 -0.1)">
       <use xlink:href="#DejaVuSans-31"/>
       <use xlink:href="#DejaVuSans-2e" transform="translate(63.623047 0)"/>
       <use xlink:href="#DejaVuSans-30" transform="translate(95.410156 0)"/>
       <use xlink:href="#DejaVuSans-30" transform="translate(159.033203 0)"/>
      </g>
     </g>
    </g>
    <g id="ytick_4">
     <g id="line2d_25">
      <path d="M 50.14375 308.099384 
L 608.14375 308.099384 
" clip-path="url(#pd6c124cab2)" style="fill: none; stroke: #b0b0b0; stroke-width: 0.8; stroke-linecap: square"/>
     </g>
     <g id="line2d_26">
      <g>
       <use xlink:href="#m0090e4c9cc" x="50.14375" y="308.099384" style="stroke: #000000; stroke-width: 0.8"/>
      </g>
     </g>
     <g id="text_14">
      <!-- 1.25 -->
      <g transform="translate(20.878125 311.898603) scale(0.1 -0.1)">
       <use xlink:href="#DejaVuSans-31"/>
       <use xlink:href="#DejaVuSans-2e" transform="translate(63.623047 0)"/>
       <use xlink:href="#DejaVuSans-32" transform="translate(95.410156 0)"/>
       <use xlink:href="#DejaVuSans-35" transform="translate(159.033203 0)"/>
      </g>
     </g>
    </g>
    <g id="ytick_5">
     <g id="line2d_27">
      <path d="M 50.14375 239.267151 
L 608.14375 239.267151 
" clip-path="url(#pd6c124cab2)" style="fill: none; stroke: #b0b0b0; stroke-width: 0.8; stroke-linecap: square"/>
     </g>
     <g id="line2d_28">
      <g>
       <use xlink:href="#m0090e4c9cc" x="50.14375" y="239.267151" style="stroke: #000000; stroke-width: 0.8"/>
      </g>
     </g>
     <g id="text_15">
      <!-- 1.50 -->
      <g transform="translate(20.878125 243.06637) scale(0.1 -0.1)">
       <use xlink:href="#DejaVuSans-31"/>
       <use xlink:href="#DejaVuSans-2e" transform="translate(63.623047 0)"/>
       <use xlink:href="#DejaVuSans-35" transform="translate(95.410156 0)"/>
       <use xlink:href="#DejaVuSans-30" transform="translate(159.033203 0)"/>
      </g>
     </g>
    </g>
    <g id="ytick_6">
     <g id="line2d_29">
      <path d="M 50.14375 170.434918 
L 608.14375 170.434918 
" clip-path="url(#pd6c124cab2)" style="fill: none; stroke: #b0b0b0; stroke-width: 0.8; stroke-linecap: square"/>
     </g>
     <g id="line2d_30">
      <g>
       <use xlink:href="#m0090e4c9cc" x="50.14375" y="170.434918" style="stroke: #000000; stroke-width: 0.8"/>
      </g>
     </g>
     <g id="text_16">
      <!-- 1.75 -->
      <g transform="translate(20.878125 174.234137) scale(0.1 -0.1)">
       <use xlink:href="#DejaVuSans-31"/>
       <use xlink:href="#DejaVuSans-2e" transform="translate(63.623047 0)"/>
       <use xlink:href="#DejaVuSans-37" transform="translate(95.410156 0)"/>
       <use xlink:href="#DejaVuSans-35" transform="translate(159.033203 0)"/>
      </g>
     </g>
    </g>
    <g id="ytick_7">
     <g id="line2d_31">
      <path d="M 50.14375 101.602685 
L 608.14375 101.602685 
" clip-path="url(#pd6c124cab2)" style="fill: none; stroke: #b0b0b0; stroke-width: 0.8; stroke-linecap: square"/>
     </g>
     <g id="line2d_32">
      <g>
       <use xlink:href="#m0090e4c9cc" x="50.14375" y="101.602685" style="stroke: #000000; stroke-width: 0.8"/>
      </g>
     </g>
     <g id="text_17">
      <!-- 2.00 -->
      <g transform="translate(20.878125 105.401904) scale(0.1 -0.1)">
       <use xlink:href="#DejaVuSans-32"/>
       <use xlink:href="#DejaVuSans-2e" transform="translate(63.623047 0)"/>
       <use xlink:href="#DejaVuSans-30" transform="translate(95.410156 0)"/>
       <use xlink:href="#DejaVuSans-30" transform="translate(159.033203 0)"/>
      </g>
     </g>
    </g>
    <g id="ytick_8">
     <g id="line2d_33">
      <path d="M 50.14375 32.770452 
L 608.14375 32.770452 
" clip-path="url(#pd6c124cab2)" style="fill: none; stroke: #b0b0b0; stroke-width: 0.8; stroke-linecap: square"/>
     </g>
     <g id="line2d_34">
      <g>
       <use xlink:href="#m0090e4c9cc" x="50.14375" y="32.770452" style="stroke: #000000; stroke-width: 0.8"/>
      </g>
     </g>
     <g id="text_18">
      <!-- 2.25 -->
      <g transform="translate(20.878125 36.569671) scale(0.1 -0.1)">
       <use xlink:href="#DejaVuSans-32"/>
       <use xlink:href="#DejaVuSans-2e" transform="translate(63.623047 0)"/>
       <use xlink:href="#DejaVuSans-32" transform="translate(95.410156 0)"/>
       <use xlink:href="#DejaVuSans-35" transform="translate(159.033203 0)"/>
      </g>
     </g>
    </g>
    <g id="text_19">
     <!-- Loss -->
     <g transform="translate(14.798437 310.485313) rotate(-90) scale(0.1 -0.1)">
      <defs>
       <path id="DejaVuSans-4c" d="M 628 4666 
L 1259 4666 
L 1259 531 
L 3531 531 
L 3531 0 
L 628 0 
L 628 4666 
z
" transform="scale(0.015625)"/>
      </defs>
      <use xlink:href="#DejaVuSans-4c"/>
      <use xlink:href="#DejaVuSans-6f" transform="translate(53.962891 0)"/>
      <use xlink:href="#DejaVuSans-73" transform="translate(115.144531 0)"/>
      <use xlink:href="#DejaVuSans-73" transform="translate(167.244141 0)"/>
     </g>
    </g>
   </g>
   <g id="line2d_35">
    <path d="M 75.507386 461.032224 
L 76.142271 461.353451 
L 83.760885 463.230823 
L 90.744615 465.247622 
L 97.09346 467.400073 
L 106.616728 471.01265 
L 129.47257 479.86473 
L 142.805145 484.659826 
L 155.502835 488.910556 
L 166.930756 492.469864 
L 173.279602 494.334271 
L 178.358678 495.806771 
L 190.421484 499.0952 
L 194.230791 500.104978 
L 203.754058 502.515425 
L 224.705247 507.392985 
L 231.688977 508.899472 
L 238.037822 510.239732 
L 269.147163 516.319743 
L 286.289045 519.374071 
L 295.177428 520.907069 
L 308.510003 523.085966 
L 321.207694 525.089817 
L 335.810037 527.291296 
L 340.254229 527.939772 
L 359.935649 530.702142 
L 375.172877 532.700372 
L 378.3473 533.114001 
L 415.170602 537.442445 
L 422.154331 538.19312 
L 434.852022 539.51477 
L 474.849746 543.309171 
L 478.659053 543.626533 
L 485.007898 544.181385 
L 494.531166 544.989884 
L 499.610242 545.391401 
L 502.14978 545.604176 
L 510.403279 546.268973 
L 526.275392 547.498107 
L 545.956812 548.959119 
L 552.940541 549.461891 
L 566.273116 550.390722 
L 570.717308 550.708232 
L 582.780114 551.518125 
L 582.780114 551.518125 
" clip-path="url(#pd6c124cab2)" style="fill: none; stroke: #1f77b4; stroke-width: 1.5; stroke-linecap: square"/>
   </g>
   <g id="line2d_36">
    <path d="M 75.507386 461.213876 
L 78.046924 461.348265 
L 79.951578 461.473463 
L 81.221347 461.660154 
L 85.030654 461.836653 
L 92.014384 461.561885 
L 100.267882 460.463324 
L 102.80742 460.007266 
L 103.442305 459.802852 
L 104.712074 459.585309 
L 105.346959 459.342773 
L 107.251612 458.905127 
L 107.886497 458.684828 
L 108.521381 458.596915 
L 110.426035 458.015575 
L 111.695804 457.68547 
L 114.870226 456.595607 
L 115.505111 456.528323 
L 116.139995 456.291054 
L 116.77488 456.186172 
L 118.044649 455.679059 
L 119.314418 455.22072 
L 123.758609 453.729709 
L 126.298148 452.80023 
L 127.567917 452.295874 
L 128.202801 451.887949 
L 129.47257 451.691625 
L 132.646993 450.25523 
L 135.186531 449.378954 
L 136.4563 448.816619 
L 137.726069 448.312969 
L 138.360953 447.953636 
L 139.630722 447.577581 
L 140.900491 446.931616 
L 141.535376 446.794568 
L 142.17026 446.437221 
L 142.805145 446.258359 
L 143.440029 445.902358 
L 144.709798 445.574715 
L 145.344683 445.171466 
L 145.979567 444.994065 
L 146.614452 444.411839 
L 147.249337 444.219619 
L 147.884221 444.190079 
L 148.519106 443.714705 
L 149.788875 443.353797 
L 151.058644 442.509506 
L 151.693528 442.483593 
L 152.328413 442.210631 
L 153.598182 441.436136 
L 154.233066 441.344744 
L 154.867951 440.938837 
L 155.502835 440.751901 
L 156.13772 440.432217 
L 156.772604 440.324348 
L 157.407489 440.02841 
L 158.042373 439.549623 
L 158.677258 439.346932 
L 159.312142 438.928816 
L 159.947027 438.651455 
L 160.581911 438.663271 
L 161.216796 438.247222 
L 161.85168 438.027579 
L 163.121449 437.12974 
L 163.756334 436.965976 
L 164.391218 436.566551 
L 165.026103 436.478572 
L 165.660987 435.965125 
L 166.930756 435.29113 
L 167.565641 435.342414 
L 168.83541 434.622518 
L 169.470295 434.334868 
L 170.105179 433.88969 
L 170.740064 433.757845 
L 172.009833 433.130293 
L 172.644717 433.093532 
L 174.549371 431.986569 
L 175.184255 431.835146 
L 177.088909 430.75718 
L 177.723793 430.319962 
L 178.993562 429.922917 
L 179.628447 429.531813 
L 180.263331 429.351457 
L 181.5331 428.50971 
L 182.167985 428.527352 
L 182.802869 428.03962 
L 183.437754 427.839982 
L 184.072638 427.198776 
L 184.707523 427.022507 
L 185.342407 426.537713 
L 186.612176 426.245238 
L 189.151715 424.932499 
L 189.786599 424.549239 
L 191.691253 423.756035 
L 192.326137 423.206566 
L 192.961022 423.084617 
L 193.595906 422.832628 
L 194.230791 422.249664 
L 194.865675 422.251141 
L 197.405213 420.878879 
L 198.040098 420.799762 
L 198.674982 420.057646 
L 199.309867 419.901775 
L 199.944751 419.531972 
L 200.579636 419.394433 
L 201.21452 418.715843 
L 202.484289 418.184179 
L 203.119174 417.913629 
L 203.754058 417.450416 
L 204.388943 417.517979 
L 205.023827 417.2194 
L 206.928481 415.776473 
L 207.563365 415.86885 
L 208.833134 414.9952 
L 209.468019 414.365268 
L 210.102903 413.930446 
L 210.737788 414.016406 
L 213.277326 412.850774 
L 213.912211 412.192303 
L 214.547095 412.219233 
L 215.816864 411.279415 
L 216.451749 411.151541 
L 217.086633 410.806782 
L 218.356402 409.817944 
L 218.991287 409.859956 
L 220.261056 408.871282 
L 220.89594 408.744475 
L 221.530825 408.119614 
L 222.165709 408.007561 
L 222.800594 407.475471 
L 223.435478 407.2651 
L 224.705247 406.463904 
L 225.340132 406.386543 
L 225.975016 405.697581 
L 226.609901 405.660197 
L 227.244785 405.042114 
L 229.149439 404.317918 
L 230.419208 403.202996 
L 231.054092 403.103267 
L 231.688977 402.534433 
L 232.323862 402.548546 
L 232.958746 402.151107 
L 233.593631 401.943264 
L 234.228515 401.312692 
L 234.8634 401.035085 
L 235.498284 400.415131 
L 236.133169 400.435678 
L 238.037822 398.923891 
L 239.307591 398.48659 
L 239.942476 397.853688 
L 240.57736 397.599057 
L 241.847129 396.734334 
L 242.482014 396.68717 
L 243.116898 396.163777 
L 243.751783 395.828076 
L 244.386667 395.638169 
L 245.021552 395.185984 
L 245.656436 395.154114 
L 246.291321 394.454452 
L 246.926205 393.927794 
L 247.56109 393.981392 
L 248.195974 392.796888 
L 248.830859 393.05293 
L 249.465743 392.374915 
L 250.100628 392.049749 
L 250.735512 391.519366 
L 251.370397 391.203095 
L 252.005281 391.042515 
L 253.27505 390.024958 
L 253.909935 389.749091 
L 254.54482 389.23955 
L 255.179704 389.125839 
L 255.814589 388.406763 
L 257.084358 387.948949 
L 257.719242 387.224293 
L 258.354127 386.969613 
L 258.989011 386.521185 
L 259.623896 386.360506 
L 260.25878 385.909765 
L 260.893665 385.805408 
L 261.528549 384.940702 
L 262.798318 383.907933 
L 263.433203 383.733583 
L 264.068087 383.056766 
L 264.702972 383.244129 
L 265.337856 382.545911 
L 265.972741 382.291182 
L 266.607625 381.620732 
L 267.24251 381.61059 
L 267.877394 380.816418 
L 270.416932 379.300495 
L 271.051817 379.016702 
L 271.686701 378.270433 
L 272.321586 377.997438 
L 272.95647 377.86067 
L 274.226239 376.724512 
L 274.861124 376.786676 
L 275.496009 375.990847 
L 276.130893 375.777965 
L 276.765778 375.439441 
L 277.400662 374.266293 
L 278.035547 374.444876 
L 278.670431 373.689253 
L 279.305316 373.484183 
L 279.9402 372.944363 
L 281.209969 372.250905 
L 281.844854 370.860214 
L 282.479738 371.060131 
L 283.749507 370.527303 
L 284.384392 369.757895 
L 285.019276 369.21883 
L 285.654161 369.412347 
L 286.92393 368.063471 
L 287.558814 367.485447 
L 288.193699 367.266066 
L 291.368121 364.948554 
L 292.003006 364.90093 
L 292.63789 363.81361 
L 293.272775 363.631515 
L 293.907659 362.72872 
L 294.542544 362.957487 
L 295.177428 362.042581 
L 295.812313 361.779449 
L 297.082082 360.864115 
L 297.716967 359.987446 
L 298.986736 359.440668 
L 300.256505 358.048336 
L 300.891389 357.718214 
L 301.526274 357.594903 
L 302.161158 356.581564 
L 302.796043 356.462388 
L 303.430927 356.110965 
L 304.065812 355.293999 
L 304.700696 355.184407 
L 305.335581 353.842325 
L 305.970465 353.778684 
L 307.240234 352.687885 
L 307.875119 352.375816 
L 308.510003 351.638606 
L 309.144888 351.152745 
L 309.779772 350.973998 
L 310.414657 349.858944 
L 311.049541 350.027845 
L 311.684426 349.101549 
L 312.31931 348.961728 
L 312.954195 347.679349 
L 314.223964 347.283781 
L 314.858848 346.282881 
L 315.493733 346.415547 
L 316.128617 345.5396 
L 316.763502 345.391311 
L 317.398386 344.175888 
L 318.033271 343.522833 
L 318.668156 343.26213 
L 319.30304 342.483532 
L 320.572809 341.650483 
L 321.207694 341.558648 
L 322.477463 339.834651 
L 323.112347 339.542505 
L 323.747232 338.834933 
L 324.382116 338.52782 
L 325.017001 338.057812 
L 325.651885 337.076934 
L 326.28677 336.659277 
L 326.921654 335.90756 
L 328.191423 334.971647 
L 328.826308 334.344095 
L 329.461192 333.371159 
L 330.096077 333.432799 
L 330.730961 332.95347 
L 331.365846 332.232999 
L 332.00073 331.066645 
L 332.635615 330.52479 
L 333.270499 330.555577 
L 333.905384 329.767691 
L 334.540268 328.729276 
L 335.175153 328.183515 
L 335.810037 328.015172 
L 336.444922 327.22361 
L 337.714691 325.453171 
L 338.349575 324.859589 
L 338.98446 324.664365 
L 339.619344 324.337395 
L 340.254229 324.341235 
L 340.889114 322.989602 
L 341.523998 322.118184 
L 342.158883 322.118644 
L 342.793767 320.951075 
L 343.428652 320.088913 
L 344.698421 318.616036 
L 345.333305 318.429083 
L 345.96819 317.890478 
L 346.603074 317.987237 
L 347.237959 317.050274 
L 347.872843 316.602618 
L 348.507728 315.166206 
L 349.142612 314.909113 
L 349.777497 313.831213 
L 350.412381 314.19455 
L 351.047266 312.469799 
L 351.68215 312.224424 
L 352.317035 311.252899 
L 353.586804 310.035277 
L 354.221688 308.699071 
L 354.856573 309.492176 
L 355.491457 308.024715 
L 356.126342 307.153986 
L 356.761226 306.583183 
L 357.396111 305.542765 
L 358.030995 305.37649 
L 358.66588 304.969041 
L 359.300764 303.964399 
L 359.935649 304.082131 
L 360.570533 303.041254 
L 361.205418 301.644229 
L 361.840303 302.027915 
L 362.475187 300.691511 
L 363.110072 300.098586 
L 363.744956 299.251128 
L 364.379841 299.46378 
L 365.014725 298.568074 
L 365.64961 296.9197 
L 366.284494 297.358264 
L 366.919379 296.399639 
L 368.189148 294.976126 
L 368.824032 294.804862 
L 369.458917 292.786356 
L 370.093801 292.234031 
L 370.728686 292.400996 
L 371.36357 291.706389 
L 371.998455 290.27595 
L 372.633339 289.726514 
L 373.268224 289.544649 
L 373.903108 289.177472 
L 374.537993 287.742996 
L 375.172877 287.196776 
L 375.807762 286.802357 
L 376.442646 285.804838 
L 377.712415 283.128157 
L 378.3473 284.348897 
L 378.982184 282.736824 
L 380.251953 281.381777 
L 380.886838 280.529855 
L 381.521722 280.016884 
L 382.156607 278.370446 
L 382.791491 278.743498 
L 383.426376 277.102147 
L 384.061261 277.680204 
L 384.696145 276.315147 
L 385.33103 276.14339 
L 385.965914 273.71668 
L 386.600799 274.038333 
L 387.235683 273.746909 
L 387.870568 273.236366 
L 388.505452 271.637027 
L 389.140337 270.864042 
L 389.775221 270.412152 
L 390.410106 269.706156 
L 391.04499 268.316646 
L 391.679875 268.792824 
L 392.949644 266.255899 
L 393.584528 266.170661 
L 395.489182 263.128739 
L 396.124066 262.812764 
L 396.758951 262.729036 
L 397.393835 262.287386 
L 398.02872 260.602776 
L 398.663604 259.745111 
L 399.298489 260.011394 
L 399.933373 259.604075 
L 400.568258 258.719299 
L 401.203142 257.25384 
L 401.838027 256.626419 
L 402.472911 255.681087 
L 403.74268 254.748062 
L 404.377565 253.770532 
L 405.01245 253.135857 
L 405.647334 251.958409 
L 406.282219 252.360541 
L 406.917103 250.236973 
L 407.551988 250.701795 
L 408.186872 249.146897 
L 408.821757 248.495844 
L 409.456641 247.302543 
L 410.091526 246.775885 
L 411.361295 246.949775 
L 411.996179 244.734305 
L 412.631064 244.695313 
L 413.900833 242.20227 
L 414.535717 241.679978 
L 415.170602 241.668063 
L 415.805486 239.722061 
L 417.075255 238.023108 
L 418.345024 236.767642 
L 418.979909 236.617187 
L 419.614793 234.595202 
L 420.249678 235.1129 
L 420.884562 233.928592 
L 421.519447 232.393157 
L 422.154331 232.06087 
L 422.789216 231.406272 
L 423.4241 231.510711 
L 424.058985 229.733741 
L 424.693869 229.963099 
L 425.328754 228.019854 
L 425.963638 228.361988 
L 426.598523 226.771806 
L 427.233408 226.690441 
L 427.868292 224.996083 
L 429.138061 224.258873 
L 429.772946 222.463555 
L 430.40783 222.045866 
L 431.042715 222.232851 
L 431.677599 220.194882 
L 432.312484 219.524694 
L 432.947368 219.429807 
L 433.582253 218.03928 
L 434.217137 218.060154 
L 434.852022 217.615715 
L 435.486906 216.962102 
L 436.121791 216.082249 
L 436.756675 215.71563 
L 437.39156 214.297598 
L 438.661329 213.049977 
L 439.296213 212.024822 
L 439.931098 211.54871 
L 440.565982 209.924459 
L 441.200867 209.240322 
L 441.835751 209.356085 
L 442.470636 208.407831 
L 443.10552 208.10528 
L 443.740405 206.592262 
L 444.375289 207.446908 
L 445.010174 205.460371 
L 445.645058 204.148091 
L 446.279943 204.718993 
L 446.914827 201.639392 
L 447.549712 201.444627 
L 448.184597 202.067716 
L 449.454366 199.575789 
L 450.08925 199.179302 
L 450.724135 199.106274 
L 451.993904 196.654028 
L 452.628788 195.779492 
L 453.263673 195.535823 
L 453.898557 193.706076 
L 454.533442 193.693341 
L 455.168326 193.037168 
L 455.803211 192.930858 
L 456.438095 190.964014 
L 457.07298 191.234301 
L 457.707864 189.616746 
L 458.342749 188.962182 
L 458.977633 189.119857 
L 459.612518 187.402819 
L 460.247402 186.62839 
L 460.882287 184.674379 
L 461.517171 187.096789 
L 462.152056 185.429542 
L 462.78694 184.721839 
L 464.056709 182.511687 
L 464.691594 181.814881 
L 465.326478 180.514318 
L 465.961363 181.782453 
L 466.596247 180.017856 
L 468.500901 176.96425 
L 469.135785 176.887283 
L 469.77067 175.797437 
L 471.040439 174.588578 
L 471.675324 174.532059 
L 472.945093 171.21391 
L 474.214862 171.131462 
L 474.849746 169.899168 
L 476.119515 168.899581 
L 476.7544 167.554939 
L 477.389284 166.954203 
L 478.024169 167.583264 
L 479.928822 163.827338 
L 480.563707 163.50877 
L 481.833476 161.878054 
L 483.103245 159.383468 
L 483.738129 159.711784 
L 484.373014 157.928479 
L 485.007898 158.675142 
L 485.642783 157.213227 
L 486.277667 156.698418 
L 486.912552 155.039146 
L 487.547436 155.260004 
L 488.182321 153.519236 
L 488.817205 153.423035 
L 489.45209 152.926245 
L 490.086974 152.695246 
L 491.356744 150.273787 
L 491.991628 149.713126 
L 492.626513 149.772566 
L 493.896282 146.512905 
L 495.166051 146.505225 
L 495.800935 145.851743 
L 496.43582 144.601858 
L 497.070704 143.973222 
L 497.705589 143.575127 
L 498.975358 142.221459 
L 499.610242 142.104154 
L 500.245127 139.483927 
L 500.880011 138.862282 
L 502.14978 138.901537 
L 502.784665 138.089461 
L 504.054434 135.578662 
L 504.689318 135.98424 
L 505.324203 134.321161 
L 505.959087 134.297464 
L 506.593972 133.212114 
L 507.228856 131.645367 
L 507.863741 132.384513 
L 508.498625 130.263767 
L 509.13351 130.049211 
L 509.768394 128.191729 
L 511.038163 128.187955 
L 511.673048 127.137232 
L 512.307933 125.645614 
L 512.942817 125.164972 
L 513.577702 124.152814 
L 514.212586 124.64862 
L 514.847471 123.459881 
L 515.482355 123.898084 
L 516.11724 123.065659 
L 516.752124 121.195934 
L 517.387009 120.414907 
L 518.021893 119.935119 
L 518.656778 119.132167 
L 519.291662 118.644042 
L 519.926547 117.577991 
L 520.561431 118.488565 
L 521.196316 116.856502 
L 521.8312 116.124347 
L 522.466085 114.558322 
L 523.100969 113.374573 
L 525.005623 113.496965 
L 525.640507 111.000213 
L 526.275392 111.265873 
L 526.910276 109.770644 
L 527.545161 110.470765 
L 528.180045 108.3342 
L 528.81493 107.653345 
L 529.449814 106.413306 
L 530.084699 106.297248 
L 530.719583 105.876571 
L 531.354468 105.978975 
L 531.989352 104.729024 
L 532.624237 104.284716 
L 533.259121 102.581332 
L 533.894006 103.131687 
L 534.528891 101.459779 
L 535.163775 100.490224 
L 535.79866 100.121045 
L 536.433544 98.804892 
L 537.068429 97.77186 
L 537.703313 99.176566 
L 538.338198 97.380559 
L 538.973082 96.482621 
L 539.607967 96.504743 
L 540.242851 94.587032 
L 540.877736 93.611241 
L 541.51262 93.069551 
L 542.147505 92.364145 
L 542.782389 92.548538 
L 543.417274 91.214662 
L 544.052158 91.445202 
L 544.687043 90.346395 
L 545.321927 89.811269 
L 545.956812 88.035151 
L 546.591696 88.689552 
L 547.226581 87.029033 
L 547.861465 87.296465 
L 548.49635 85.662991 
L 549.131234 85.154713 
L 549.766119 84.332791 
L 550.401003 83.962298 
L 551.035888 84.634423 
L 551.670772 80.886243 
L 552.940541 80.653077 
L 553.575426 79.423705 
L 554.21031 78.940831 
L 554.845195 77.928542 
L 555.48008 80.345865 
L 556.114964 78.436295 
L 557.384733 76.467973 
L 558.019618 74.944781 
L 558.654502 73.981987 
L 559.289387 73.717641 
L 559.924271 73.302773 
L 560.559156 73.166169 
L 561.19404 72.654412 
L 561.828925 71.819952 
L 562.463809 70.22744 
L 563.098694 69.676165 
L 563.733578 69.415101 
L 564.368463 68.394278 
L 565.638232 65.499267 
L 566.273116 67.785697 
L 566.908001 65.174594 
L 567.542885 64.602117 
L 568.17777 63.777109 
L 568.812654 64.34591 
L 570.082423 61.111128 
L 570.717308 61.914933 
L 571.352192 59.99079 
L 571.987077 60.322224 
L 572.621961 61.016536 
L 573.256846 57.757991 
L 573.89173 57.878184 
L 574.526615 56.340091 
L 575.161499 55.631863 
L 576.431268 53.655467 
L 577.066153 53.465298 
L 577.701038 53.109707 
L 578.335922 53.696035 
L 578.970807 51.234665 
L 579.605691 50.323073 
L 580.240576 49.833832 
L 580.87546 49.947527 
L 581.510345 48.199111 
L 582.145229 48.671548 
L 582.780114 47.518125 
L 582.780114 47.518125 
" clip-path="url(#pd6c124cab2)" style="fill: none; stroke: #ff7f0e; stroke-width: 1.5; stroke-linecap: square"/>
   </g>
   <g id="patch_3">
    <path d="M 50.14375 576.718125 
L 50.14375 22.318125 
" style="fill: none; stroke: #000000; stroke-width: 0.8; stroke-linejoin: miter; stroke-linecap: square"/>
   </g>
   <g id="patch_4">
    <path d="M 608.14375 576.718125 
L 608.14375 22.318125 
" style="fill: none; stroke: #000000; stroke-width: 0.8; stroke-linejoin: miter; stroke-linecap: square"/>
   </g>
   <g id="patch_5">
    <path d="M 50.14375 576.718125 
L 608.14375 576.718125 
" style="fill: none; stroke: #000000; stroke-width: 0.8; stroke-linejoin: miter; stroke-linecap: square"/>
   </g>
   <g id="patch_6">
    <path d="M 50.14375 22.318125 
L 608.14375 22.318125 
" style="fill: none; stroke: #000000; stroke-width: 0.8; stroke-linejoin: miter; stroke-linecap: square"/>
   </g>
   <g id="text_20">
    <!-- Train and Val Loss -->
    <g transform="translate(275.598437 16.318125) scale(0.12 -0.12)">
     <defs>
      <path id="DejaVuSans-54" d="M -19 4666 
L 3928 4666 
L 3928 4134 
L 2272 4134 
L 2272 0 
L 1638 0 
L 1638 4134 
L -19 4134 
L -19 4666 
z
" transform="scale(0.015625)"/>
      <path id="DejaVuSans-72" d="M 2631 2963 
Q 2534 3019 2420 3045 
Q 2306 3072 2169 3072 
Q 1681 3072 1420 2755 
Q 1159 2438 1159 1844 
L 1159 0 
L 581 0 
L 581 3500 
L 1159 3500 
L 1159 2956 
Q 1341 3275 1631 3429 
Q 1922 3584 2338 3584 
Q 2397 3584 2469 3576 
Q 2541 3569 2628 3553 
L 2631 2963 
z
" transform="scale(0.015625)"/>
      <path id="DejaVuSans-61" d="M 2194 1759 
Q 1497 1759 1228 1600 
Q 959 1441 959 1056 
Q 959 750 1161 570 
Q 1363 391 1709 391 
Q 2188 391 2477 730 
Q 2766 1069 2766 1631 
L 2766 1759 
L 2194 1759 
z
M 3341 1997 
L 3341 0 
L 2766 0 
L 2766 531 
Q 2569 213 2275 61 
Q 1981 -91 1556 -91 
Q 1019 -91 701 211 
Q 384 513 384 1019 
Q 384 1609 779 1909 
Q 1175 2209 1959 2209 
L 2766 2209 
L 2766 2266 
Q 2766 2663 2505 2880 
Q 2244 3097 1772 3097 
Q 1472 3097 1187 3025 
Q 903 2953 641 2809 
L 641 3341 
Q 956 3463 1253 3523 
Q 1550 3584 1831 3584 
Q 2591 3584 2966 3190 
Q 3341 2797 3341 1997 
z
" transform="scale(0.015625)"/>
      <path id="DejaVuSans-69" d="M 603 3500 
L 1178 3500 
L 1178 0 
L 603 0 
L 603 3500 
z
M 603 4863 
L 1178 4863 
L 1178 4134 
L 603 4134 
L 603 4863 
z
" transform="scale(0.015625)"/>
      <path id="DejaVuSans-6e" d="M 3513 2113 
L 3513 0 
L 2938 0 
L 2938 2094 
Q 2938 2591 2744 2837 
Q 2550 3084 2163 3084 
Q 1697 3084 1428 2787 
Q 1159 2491 1159 1978 
L 1159 0 
L 581 0 
L 581 3500 
L 1159 3500 
L 1159 2956 
Q 1366 3272 1645 3428 
Q 1925 3584 2291 3584 
Q 2894 3584 3203 3211 
Q 3513 2838 3513 2113 
z
" transform="scale(0.015625)"/>
      <path id="DejaVuSans-20" transform="scale(0.015625)"/>
      <path id="DejaVuSans-64" d="M 2906 2969 
L 2906 4863 
L 3481 4863 
L 3481 0 
L 2906 0 
L 2906 525 
Q 2725 213 2448 61 
Q 2172 -91 1784 -91 
Q 1150 -91 751 415 
Q 353 922 353 1747 
Q 353 2572 751 3078 
Q 1150 3584 1784 3584 
Q 2172 3584 2448 3432 
Q 2725 3281 2906 2969 
z
M 947 1747 
Q 947 1113 1208 752 
Q 1469 391 1925 391 
Q 2381 391 2643 752 
Q 2906 1113 2906 1747 
Q 2906 2381 2643 2742 
Q 2381 3103 1925 3103 
Q 1469 3103 1208 2742 
Q 947 2381 947 1747 
z
" transform="scale(0.015625)"/>
      <path id="DejaVuSans-56" d="M 1831 0 
L 50 4666 
L 709 4666 
L 2188 738 
L 3669 4666 
L 4325 4666 
L 2547 0 
L 1831 0 
z
" transform="scale(0.015625)"/>
      <path id="DejaVuSans-6c" d="M 603 4863 
L 1178 4863 
L 1178 0 
L 603 0 
L 603 4863 
z
" transform="scale(0.015625)"/>
     </defs>
     <use xlink:href="#DejaVuSans-54"/>
     <use xlink:href="#DejaVuSans-72" transform="translate(46.333984 0)"/>
     <use xlink:href="#DejaVuSans-61" transform="translate(87.447266 0)"/>
     <use xlink:href="#DejaVuSans-69" transform="translate(148.726562 0)"/>
     <use xlink:href="#DejaVuSans-6e" transform="translate(176.509766 0)"/>
     <use xlink:href="#DejaVuSans-20" transform="translate(239.888672 0)"/>
     <use xlink:href="#DejaVuSans-61" transform="translate(271.675781 0)"/>
     <use xlink:href="#DejaVuSans-6e" transform="translate(332.955078 0)"/>
     <use xlink:href="#DejaVuSans-64" transform="translate(396.333984 0)"/>
     <use xlink:href="#DejaVuSans-20" transform="translate(459.810547 0)"/>
     <use xlink:href="#DejaVuSans-56" transform="translate(491.597656 0)"/>
     <use xlink:href="#DejaVuSans-61" transform="translate(552.255859 0)"/>
     <use xlink:href="#DejaVuSans-6c" transform="translate(613.535156 0)"/>
     <use xlink:href="#DejaVuSans-20" transform="translate(641.318359 0)"/>
     <use xlink:href="#DejaVuSans-4c" transform="translate(673.105469 0)"/>
     <use xlink:href="#DejaVuSans-6f" transform="translate(727.068359 0)"/>
     <use xlink:href="#DejaVuSans-73" transform="translate(788.25 0)"/>
     <use xlink:href="#DejaVuSans-73" transform="translate(840.349609 0)"/>
    </g>
   </g>
   <g id="legend_1">
    <g id="patch_7">
     <path d="M 57.14375 60.230625 
L 136.734375 60.230625 
Q 138.734375 60.230625 138.734375 58.230625 
L 138.734375 29.318125 
Q 138.734375 27.318125 136.734375 27.318125 
L 57.14375 27.318125 
Q 55.14375 27.318125 55.14375 29.318125 
L 55.14375 58.230625 
Q 55.14375 60.230625 57.14375 60.230625 
z
" style="fill: #ffffff; opacity: 0.8; stroke: #cccccc; stroke-linejoin: miter"/>
    </g>
    <g id="line2d_37">
     <path d="M 59.14375 35.416563 
L 69.14375 35.416563 
L 79.14375 35.416563 
" style="fill: none; stroke: #1f77b4; stroke-width: 1.5; stroke-linecap: square"/>
    </g>
    <g id="text_21">
     <!-- train_loss -->
     <g transform="translate(87.14375 38.916563) scale(0.1 -0.1)">
      <defs>
       <path id="DejaVuSans-74" d="M 1172 4494 
L 1172 3500 
L 2356 3500 
L 2356 3053 
L 1172 3053 
L 1172 1153 
Q 1172 725 1289 603 
Q 1406 481 1766 481 
L 2356 481 
L 2356 0 
L 1766 0 
Q 1100 0 847 248 
Q 594 497 594 1153 
L 594 3053 
L 172 3053 
L 172 3500 
L 594 3500 
L 594 4494 
L 1172 4494 
z
" transform="scale(0.015625)"/>
       <path id="DejaVuSans-5f" d="M 3263 -1063 
L 3263 -1509 
L -63 -1509 
L -63 -1063 
L 3263 -1063 
z
" transform="scale(0.015625)"/>
      </defs>
      <use xlink:href="#DejaVuSans-74"/>
      <use xlink:href="#DejaVuSans-72" transform="translate(39.208984 0)"/>
      <use xlink:href="#DejaVuSans-61" transform="translate(80.322266 0)"/>
      <use xlink:href="#DejaVuSans-69" transform="translate(141.601562 0)"/>
      <use xlink:href="#DejaVuSans-6e" transform="translate(169.384766 0)"/>
      <use xlink:href="#DejaVuSans-5f" transform="translate(232.763672 0)"/>
      <use xlink:href="#DejaVuSans-6c" transform="translate(282.763672 0)"/>
      <use xlink:href="#DejaVuSans-6f" transform="translate(310.546875 0)"/>
      <use xlink:href="#DejaVuSans-73" transform="translate(371.728516 0)"/>
      <use xlink:href="#DejaVuSans-73" transform="translate(423.828125 0)"/>
     </g>
    </g>
    <g id="line2d_38">
     <path d="M 59.14375 50.372813 
L 69.14375 50.372813 
L 79.14375 50.372813 
" style="fill: none; stroke: #ff7f0e; stroke-width: 1.5; stroke-linecap: square"/>
    </g>
    <g id="text_22">
     <!-- val_loss -->
     <g transform="translate(87.14375 53.872813) scale(0.1 -0.1)">
      <defs>
       <path id="DejaVuSans-76" d="M 191 3500 
L 800 3500 
L 1894 563 
L 2988 3500 
L 3597 3500 
L 2284 0 
L 1503 0 
L 191 3500 
z
" transform="scale(0.015625)"/>
      </defs>
      <use xlink:href="#DejaVuSans-76"/>
      <use xlink:href="#DejaVuSans-61" transform="translate(59.179688 0)"/>
      <use xlink:href="#DejaVuSans-6c" transform="translate(120.458984 0)"/>
      <use xlink:href="#DejaVuSans-5f" transform="translate(148.242188 0)"/>
      <use xlink:href="#DejaVuSans-6c" transform="translate(198.242188 0)"/>
      <use xlink:href="#DejaVuSans-6f" transform="translate(226.025391 0)"/>
      <use xlink:href="#DejaVuSans-73" transform="translate(287.207031 0)"/>
      <use xlink:href="#DejaVuSans-73" transform="translate(339.306641 0)"/>
     </g>
    </g>
   </g>
  </g>
 </g>
 <defs>
  <clipPath id="pd6c124cab2">
   <rect x="50.14375" y="22.318125" width="558" height="554.4"/>
  </clipPath>
 </defs>
</svg>
