<?xml version="1.0" encoding="utf-8" standalone="no"?>
<!DOCTYPE svg PUBLIC "-//W3C//DTD SVG 1.1//EN"
  "http://www.w3.org/Graphics/SVG/1.1/DTD/svg11.dtd">
<svg xmlns:xlink="http://www.w3.org/1999/xlink" width="608.98125pt" height="614.274375pt" viewBox="0 0 608.98125 614.274375" xmlns="http://www.w3.org/2000/svg" version="1.1">
 <metadata>
  <rdf:RDF xmlns:dc="http://purl.org/dc/elements/1.1/" xmlns:cc="http://creativecommons.org/ns#" xmlns:rdf="http://www.w3.org/1999/02/22-rdf-syntax-ns#">
   <cc:Work>
    <dc:type rdf:resource="http://purl.org/dc/dcmitype/StillImage"/>
    <dc:date>2026-05-31T10:54:20.291808</dc:date>
    <dc:format>image/svg+xml</dc:format>
    <dc:creator>
     <cc:Agent>
      <dc:title>Matplotlib v3.10.9, https://matplotlib.org/</dc:title>
     </cc:Agent>
    </dc:creator>
   </cc:Work>
  </rdf:RDF>
 </metadata>
 <defs>
  <style type="text/css">*{stroke-linejoin: round; stroke-linecap: butt}</style>
 </defs>
 <g id="figure_1">
  <g id="patch_1">
   <path d="M 0 614.274375 
L 608.98125 614.274375 
L 608.98125 0 
L 0 0 
z
" style="fill: #ffffff"/>
  </g>
  <g id="axes_1">
   <g id="patch_2">
    <path d="M 43.78125 576.718125 
L 601.78125 576.718125 
L 601.78125 22.318125 
L 43.78125 22.318125 
z
" style="fill: #ffffff"/>
   </g>
   <g id="matplotlib.axis_1">
    <g id="xtick_1">
     <g id="line2d_1">
      <path d="M 69.144886 576.718125 
L 69.144886 22.318125 
" clip-path="url(#p7544cc81c1)" style="fill: none; stroke: #b0b0b0; stroke-width: 0.8; stroke-linecap: square"/>
     </g>
     <g id="line2d_2">
      <defs>
       <path id="m4ff31c3d16" d="M 0 0 
L 0 3.5 
" style="stroke: #000000; stroke-width: 0.8"/>
      </defs>
      <g>
       <use xlink:href="#m4ff31c3d16" x="69.144886" y="576.718125" style="stroke: #000000; stroke-width: 0.8"/>
      </g>
     </g>
     <g id="text_1">
      <!-- 0 -->
      <g transform="translate(65.963636 591.316563) scale(0.1 -0.1)">
       <defs>
        <path id="DejaVuSans-30" d="M 2034 4250 
Q 1547 4250 1301 3770 
Q 1056 3291 1056 2328 
Q 1056 1369 1301 889 
Q 1547 409 2034 409 
Q 2525 409 2770 889 
Q 3016 1369 3016 2328 
Q 3016 3291 2770 3770 
Q 2525 4250 2034 4250 
z
M 2034 4750 
Q 2819 4750 3233 4129 
Q 3647 3509 3647 2328 
Q 3647 1150 3233 529 
Q 2819 -91 2034 -91 
Q 1250 -91 836 529 
Q 422 1150 422 2328 
Q 422 3509 836 4129 
Q 1250 4750 2034 4750 
z
" transform="scale(0.015625)"/>
       </defs>
       <use xlink:href="#DejaVuSans-30"/>
      </g>
     </g>
    </g>
    <g id="xtick_2">
     <g id="line2d_3">
      <path d="M 132.633338 576.718125 
L 132.633338 22.318125 
" clip-path="url(#p7544cc81c1)" style="fill: none; stroke: #b0b0b0; stroke-width: 0.8; stroke-linecap: square"/>
     </g>
     <g id="line2d_4">
      <g>
       <use xlink:href="#m4ff31c3d16" x="132.633338" y="576.718125" style="stroke: #000000; stroke-width: 0.8"/>
      </g>
     </g>
     <g id="text_2">
      <!-- 100 -->
      <g transform="translate(123.089588 591.316563) scale(0.1 -0.1)">
       <defs>
        <path id="DejaVuSans-31" d="M 794 531 
L 1825 531 
L 1825 4091 
L 703 3866 
L 703 4441 
L 1819 4666 
L 2450 4666 
L 2450 531 
L 3481 531 
L 3481 0 
L 794 0 
L 794 531 
z
" transform="scale(0.015625)"/>
       </defs>
       <use xlink:href="#DejaVuSans-31"/>
       <use xlink:href="#DejaVuSans-30" transform="translate(63.623047 0)"/>
       <use xlink:href="#DejaVuSans-30" transform="translate(127.246094 0)"/>
      </g>
     </g>
    </g>
    <g id="xtick_3">
     <g id="line2d_5">
      <path d="M 196.121789 576.718125 
L 196.121789 22.318125 
" clip-path="url(#p7544cc81c1)" style="fill: none; stroke: #b0b0b0; stroke-width: 0.8; stroke-linecap: square"/>
     </g>
     <g id="line2d_6">
      <g>
       <use xlink:href="#m4ff31c3d16" x="196.121789" y="576.718125" style="stroke: #000000; stroke-width: 0.8"/>
      </g>
     </g>
     <g id="text_3">
      <!-- 200 -->
      <g transform="translate(186.578039 591.316563) scale(0.1 -0.1)">
       <defs>
        <path id="DejaVuSans-32" d="M 1228 531 
L 3431 531 
L 3431 0 
L 469 0 
L 469 531 
Q 828 903 1448 1529 
Q 2069 2156 2228 2338 
Q 2531 2678 2651 2914 
Q 2772 3150 2772 3378 
Q 2772 3750 2511 3984 
Q 2250 4219 1831 4219 
Q 1534 4219 1204 4116 
Q 875 4013 500 3803 
L 500 4441 
Q 881 4594 1212 4672 
Q 1544 4750 1819 4750 
Q 2544 4750 2975 4387 
Q 3406 4025 3406 3419 
Q 3406 3131 3298 2873 
Q 3191 2616 2906 2266 
Q 2828 2175 2409 1742 
Q 1991 1309 1228 531 
z
" transform="scale(0.015625)"/>
       </defs>
       <use xlink:href="#DejaVuSans-32"/>
       <use xlink:href="#DejaVuSans-30" transform="translate(63.623047 0)"/>
       <use xlink:href="#DejaVuSans-30" transform="translate(127.246094 0)"/>
      </g>
     </g>
    </g>
    <g id="xtick_4">
     <g id="line2d_7">
      <path d="M 259.610241 576.718125 
L 259.610241 22.318125 
" clip-path="url(#p7544cc81c1)" style="fill: none; stroke: #b0b0b0; stroke-width: 0.8; stroke-linecap: square"/>
     </g>
     <g id="line2d_8">
      <g>
       <use xlink:href="#m4ff31c3d16" x="259.610241" y="576.718125" style="stroke: #000000; stroke-width: 0.8"/>
      </g>
     </g>
     <g id="text_4">
      <!-- 300 -->
      <g transform="translate(250.066491 591.316563) scale(0.1 -0.1)">
       <defs>
        <path id="DejaVuSans-33" d="M 2597 2516 
Q 3050 2419 3304 2112 
Q 3559 1806 3559 1356 
Q 3559 666 3084 287 
Q 2609 -91 1734 -91 
Q 1441 -91 1130 -33 
Q 819 25 488 141 
L 488 750 
Q 750 597 1062 519 
Q 1375 441 1716 441 
Q 2309 441 2620 675 
Q 2931 909 2931 1356 
Q 2931 1769 2642 2001 
Q 2353 2234 1838 2234 
L 1294 2234 
L 1294 2753 
L 1863 2753 
Q 2328 2753 2575 2939 
Q 2822 3125 2822 3475 
Q 2822 3834 2567 4026 
Q 2313 4219 1838 4219 
Q 1578 4219 1281 4162 
Q 984 4106 628 3988 
L 628 4550 
Q 988 4650 1302 4700 
Q 1616 4750 1894 4750 
Q 2613 4750 3031 4423 
Q 3450 4097 3450 3541 
Q 3450 3153 3228 2886 
Q 3006 2619 2597 2516 
z
" transform="scale(0.015625)"/>
       </defs>
       <use xlink:href="#DejaVuSans-33"/>
       <use xlink:href="#DejaVuSans-30" transform="translate(63.623047 0)"/>
       <use xlink:href="#DejaVuSans-30" transform="translate(127.246094 0)"/>
      </g>
     </g>
    </g>
    <g id="xtick_5">
     <g id="line2d_9">
      <path d="M 323.098692 576.718125 
L 323.098692 22.318125 
" clip-path="url(#p7544cc81c1)" style="fill: none; stroke: #b0b0b0; stroke-width: 0.8; stroke-linecap: square"/>
     </g>
     <g id="line2d_10">
      <g>
       <use xlink:href="#m4ff31c3d16" x="323.098692" y="576.718125" style="stroke: #000000; stroke-width: 0.8"/>
      </g>
     </g>
     <g id="text_5">
      <!-- 400 -->
      <g transform="translate(313.554942 591.316563) scale(0.1 -0.1)">
       <defs>
        <path id="DejaVuSans-34" d="M 2419 4116 
L 825 1625 
L 2419 1625 
L 2419 4116 
z
M 2253 4666 
L 3047 4666 
L 3047 1625 
L 3713 1625 
L 3713 1100 
L 3047 1100 
L 3047 0 
L 2419 0 
L 2419 1100 
L 313 1100 
L 313 1709 
L 2253 4666 
z
" transform="scale(0.015625)"/>
       </defs>
       <use xlink:href="#DejaVuSans-34"/>
       <use xlink:href="#DejaVuSans-30" transform="translate(63.623047 0)"/>
       <use xlink:href="#DejaVuSans-30" transform="translate(127.246094 0)"/>
      </g>
     </g>
    </g>
    <g id="xtick_6">
     <g id="line2d_11">
      <path d="M 386.587144 576.718125 
L 386.587144 22.318125 
" clip-path="url(#p7544cc81c1)" style="fill: none; stroke: #b0b0b0; stroke-width: 0.8; stroke-linecap: square"/>
     </g>
     <g id="line2d_12">
      <g>
       <use xlink:href="#m4ff31c3d16" x="386.587144" y="576.718125" style="stroke: #000000; stroke-width: 0.8"/>
      </g>
     </g>
     <g id="text_6">
      <!-- 500 -->
      <g transform="translate(377.043394 591.316563) scale(0.1 -0.1)">
       <defs>
        <path id="DejaVuSans-35" d="M 691 4666 
L 3169 4666 
L 3169 4134 
L 1269 4134 
L 1269 2991 
Q 1406 3038 1543 3061 
Q 1681 3084 1819 3084 
Q 2600 3084 3056 2656 
Q 3513 2228 3513 1497 
Q 3513 744 3044 326 
Q 2575 -91 1722 -91 
Q 1428 -91 1123 -41 
Q 819 9 494 109 
L 494 744 
Q 775 591 1075 516 
Q 1375 441 1709 441 
Q 2250 441 2565 725 
Q 2881 1009 2881 1497 
Q 2881 1984 2565 2268 
Q 2250 2553 1709 2553 
Q 1456 2553 1204 2497 
Q 953 2441 691 2322 
L 691 4666 
z
" transform="scale(0.015625)"/>
       </defs>
       <use xlink:href="#DejaVuSans-35"/>
       <use xlink:href="#DejaVuSans-30" transform="translate(63.623047 0)"/>
       <use xlink:href="#DejaVuSans-30" transform="translate(127.246094 0)"/>
      </g>
     </g>
    </g>
    <g id="xtick_7">
     <g id="line2d_13">
      <path d="M 450.075595 576.718125 
L 450.075595 22.318125 
" clip-path="url(#p7544cc81c1)" style="fill: none; stroke: #b0b0b0; stroke-width: 0.8; stroke-linecap: square"/>
     </g>
     <g id="line2d_14">
      <g>
       <use xlink:href="#m4ff31c3d16" x="450.075595" y="576.718125" style="stroke: #000000; stroke-width: 0.8"/>
      </g>
     </g>
     <g id="text_7">
      <!-- 600 -->
      <g transform="translate(440.531845 591.316563) scale(0.1 -0.1)">
       <defs>
        <path id="DejaVuSans-36" d="M 2113 2584 
Q 1688 2584 1439 2293 
Q 1191 2003 1191 1497 
Q 1191 994 1439 701 
Q 1688 409 2113 409 
Q 2538 409 2786 701 
Q 3034 994 3034 1497 
Q 3034 2003 2786 2293 
Q 2538 2584 2113 2584 
z
M 3366 4563 
L 3366 3988 
Q 3128 4100 2886 4159 
Q 2644 4219 2406 4219 
Q 1781 4219 1451 3797 
Q 1122 3375 1075 2522 
Q 1259 2794 1537 2939 
Q 1816 3084 2150 3084 
Q 2853 3084 3261 2657 
Q 3669 2231 3669 1497 
Q 3669 778 3244 343 
Q 2819 -91 2113 -91 
Q 1303 -91 875 529 
Q 447 1150 447 2328 
Q 447 3434 972 4092 
Q 1497 4750 2381 4750 
Q 2619 4750 2861 4703 
Q 3103 4656 3366 4563 
z
" transform="scale(0.015625)"/>
       </defs>
       <use xlink:href="#DejaVuSans-36"/>
       <use xlink:href="#DejaVuSans-30" transform="translate(63.623047 0)"/>
       <use xlink:href="#DejaVuSans-30" transform="translate(127.246094 0)"/>
      </g>
     </g>
    </g>
    <g id="xtick_8">
     <g id="line2d_15">
      <path d="M 513.564047 576.718125 
L 513.564047 22.318125 
" clip-path="url(#p7544cc81c1)" style="fill: none; stroke: #b0b0b0; stroke-width: 0.8; stroke-linecap: square"/>
     </g>
     <g id="line2d_16">
      <g>
       <use xlink:href="#m4ff31c3d16" x="513.564047" y="576.718125" style="stroke: #000000; stroke-width: 0.8"/>
      </g>
     </g>
     <g id="text_8">
      <!-- 700 -->
      <g transform="translate(504.020297 591.316563) scale(0.1 -0.1)">
       <defs>
        <path id="DejaVuSans-37" d="M 525 4666 
L 3525 4666 
L 3525 4397 
L 1831 0 
L 1172 0 
L 2766 4134 
L 525 4134 
L 525 4666 
z
" transform="scale(0.015625)"/>
       </defs>
       <use xlink:href="#DejaVuSans-37"/>
       <use xlink:href="#DejaVuSans-30" transform="translate(63.623047 0)"/>
       <use xlink:href="#DejaVuSans-30" transform="translate(127.246094 0)"/>
      </g>
     </g>
    </g>
    <g id="xtick_9">
     <g id="line2d_17">
      <path d="M 577.052498 576.718125 
L 577.052498 22.318125 
" clip-path="url(#p7544cc81c1)" style="fill: none; stroke: #b0b0b0; stroke-width: 0.8; stroke-linecap: square"/>
     </g>
     <g id="line2d_18">
      <g>
       <use xlink:href="#m4ff31c3d16" x="577.052498" y="576.718125" style="stroke: #000000; stroke-width: 0.8"/>
      </g>
     </g>
     <g id="text_9">
      <!-- 800 -->
      <g transform="translate(567.508748 591.316563) scale(0.1 -0.1)">
       <defs>
        <path id="DejaVuSans-38" d="M 2034 2216 
Q 1584 2216 1326 1975 
Q 1069 1734 1069 1313 
Q 1069 891 1326 650 
Q 1584 409 2034 409 
Q 2484 409 2743 651 
Q 3003 894 3003 1313 
Q 3003 1734 2745 1975 
Q 2488 2216 2034 2216 
z
M 1403 2484 
Q 997 2584 770 2862 
Q 544 3141 544 3541 
Q 544 4100 942 4425 
Q 1341 4750 2034 4750 
Q 2731 4750 3128 4425 
Q 3525 4100 3525 3541 
Q 3525 3141 3298 2862 
Q 3072 2584 2669 2484 
Q 3125 2378 3379 2068 
Q 3634 1759 3634 1313 
Q 3634 634 3220 271 
Q 2806 -91 2034 -91 
Q 1263 -91 848 271 
Q 434 634 434 1313 
Q 434 1759 690 2068 
Q 947 2378 1403 2484 
z
M 1172 3481 
Q 1172 3119 1398 2916 
Q 1625 2713 2034 2713 
Q 2441 2713 2670 2916 
Q 2900 3119 2900 3481 
Q 2900 3844 2670 4047 
Q 2441 4250 2034 4250 
Q 1625 4250 1398 4047 
Q 1172 3844 1172 3481 
z
" transform="scale(0.015625)"/>
       </defs>
       <use xlink:href="#DejaVuSans-38"/>
       <use xlink:href="#DejaVuSans-30" transform="translate(63.623047 0)"/>
       <use xlink:href="#DejaVuSans-30" transform="translate(127.246094 0)"/>
      </g>
     </g>
    </g>
    <g id="text_10">
     <!-- Epochs -->
     <g transform="translate(304.865625 604.994688) scale(0.1 -0.1)">
      <defs>
       <path id="DejaVuSans-45" d="M 628 4666 
L 3578 4666 
L 3578 4134 
L 1259 4134 
L 1259 2753 
L 3481 2753 
L 3481 2222 
L 1259 2222 
L 1259 531 
L 3634 531 
L 3634 0 
L 628 0 
L 628 4666 
z
" transform="scale(0.015625)"/>
       <path id="DejaVuSans-70" d="M 1159 525 
L 1159 -1331 
L 581 -1331 
L 581 3500 
L 1159 3500 
L 1159 2969 
Q 1341 3281 1617 3432 
Q 1894 3584 2278 3584 
Q 2916 3584 3314 3078 
Q 3713 2572 3713 1747 
Q 3713 922 3314 415 
Q 2916 -91 2278 -91 
Q 1894 -91 1617 61 
Q 1341 213 1159 525 
z
M 3116 1747 
Q 3116 2381 2855 2742 
Q 2594 3103 2138 3103 
Q 1681 3103 1420 2742 
Q 1159 2381 1159 1747 
Q 1159 1113 1420 752 
Q 1681 391 2138 391 
Q 2594 391 2855 752 
Q 3116 1113 3116 1747 
z
" transform="scale(0.015625)"/>
       <path id="DejaVuSans-6f" d="M 1959 3097 
Q 1497 3097 1228 2736 
Q 959 2375 959 1747 
Q 959 1119 1226 758 
Q 1494 397 1959 397 
Q 2419 397 2687 759 
Q 2956 1122 2956 1747 
Q 2956 2369 2687 2733 
Q 2419 3097 1959 3097 
z
M 1959 3584 
Q 2709 3584 3137 3096 
Q 3566 2609 3566 1747 
Q 3566 888 3137 398 
Q 2709 -91 1959 -91 
Q 1206 -91 779 398 
Q 353 888 353 1747 
Q 353 2609 779 3096 
Q 1206 3584 1959 3584 
z
" transform="scale(0.015625)"/>
       <path id="DejaVuSans-63" d="M 3122 3366 
L 3122 2828 
Q 2878 2963 2633 3030 
Q 2388 3097 2138 3097 
Q 1578 3097 1268 2742 
Q 959 2388 959 1747 
Q 959 1106 1268 751 
Q 1578 397 2138 397 
Q 2388 397 2633 464 
Q 2878 531 3122 666 
L 3122 134 
Q 2881 22 2623 -34 
Q 2366 -91 2075 -91 
Q 1284 -91 818 406 
Q 353 903 353 1747 
Q 353 2603 823 3093 
Q 1294 3584 2113 3584 
Q 2378 3584 2631 3529 
Q 2884 3475 3122 3366 
z
" transform="scale(0.015625)"/>
       <path id="DejaVuSans-68" d="M 3513 2113 
L 3513 0 
L 2938 0 
L 2938 2094 
Q 2938 2591 2744 2837 
Q 2550 3084 2163 3084 
Q 1697 3084 1428 2787 
Q 1159 2491 1159 1978 
L 1159 0 
L 581 0 
L 581 4863 
L 1159 4863 
L 1159 2956 
Q 1366 3272 1645 3428 
Q 1925 3584 2291 3584 
Q 2894 3584 3203 3211 
Q 3513 2838 3513 2113 
z
" transform="scale(0.015625)"/>
       <path id="DejaVuSans-73" d="M 2834 3397 
L 2834 2853 
Q 2591 2978 2328 3040 
Q 2066 3103 1784 3103 
Q 1356 3103 1142 2972 
Q 928 2841 928 2578 
Q 928 2378 1081 2264 
Q 1234 2150 1697 2047 
L 1894 2003 
Q 2506 1872 2764 1633 
Q 3022 1394 3022 966 
Q 3022 478 2636 193 
Q 2250 -91 1575 -91 
Q 1294 -91 989 -36 
Q 684 19 347 128 
L 347 722 
Q 666 556 975 473 
Q 1284 391 1588 391 
Q 1994 391 2212 530 
Q 2431 669 2431 922 
Q 2431 1156 2273 1281 
Q 2116 1406 1581 1522 
L 1381 1569 
Q 847 1681 609 1914 
Q 372 2147 372 2553 
Q 372 3047 722 3315 
Q 1072 3584 1716 3584 
Q 2034 3584 2315 3537 
Q 2597 3491 2834 3397 
z
" transform="scale(0.015625)"/>
      </defs>
      <use xlink:href="#DejaVuSans-45"/>
      <use xlink:href="#DejaVuSans-70" transform="translate(63.183594 0)"/>
      <use xlink:href="#DejaVuSans-6f" transform="translate(126.660156 0)"/>
      <use xlink:href="#DejaVuSans-63" transform="translate(187.841797 0)"/>
      <use xlink:href="#DejaVuSans-68" transform="translate(242.822266 0)"/>
      <use xlink:href="#DejaVuSans-73" transform="translate(306.201172 0)"/>
     </g>
    </g>
   </g>
   <g id="matplotlib.axis_2">
    <g id="ytick_1">
     <g id="line2d_19">
      <path d="M 43.78125 564.177457 
L 601.78125 564.177457 
" clip-path="url(#p7544cc81c1)" style="fill: none; stroke: #b0b0b0; stroke-width: 0.8; stroke-linecap: square"/>
     </g>
     <g id="line2d_20">
      <defs>
       <path id="m5145bb7c2c" d="M 0 0 
L -3.5 0 
" style="stroke: #000000; stroke-width: 0.8"/>
      </defs>
      <g>
       <use xlink:href="#m5145bb7c2c" x="43.78125" y="564.177457" style="stroke: #000000; stroke-width: 0.8"/>
      </g>
     </g>
     <g id="text_11">
      <!-- 0.5 -->
      <g transform="translate(20.878125 567.976676) scale(0.1 -0.1)">
       <defs>
        <path id="DejaVuSans-2e" d="M 684 794 
L 1344 794 
L 1344 0 
L 684 0 
L 684 794 
z
" transform="scale(0.015625)"/>
       </defs>
       <use xlink:href="#DejaVuSans-30"/>
       <use xlink:href="#DejaVuSans-2e" transform="translate(63.623047 0)"/>
       <use xlink:href="#DejaVuSans-35" transform="translate(95.410156 0)"/>
      </g>
     </g>
    </g>
    <g id="ytick_2">
     <g id="line2d_21">
      <path d="M 43.78125 482.839197 
L 601.78125 482.839197 
" clip-path="url(#p7544cc81c1)" style="fill: none; stroke: #b0b0b0; stroke-width: 0.8; stroke-linecap: square"/>
     </g>
     <g id="line2d_22">
      <g>
       <use xlink:href="#m5145bb7c2c" x="43.78125" y="482.839197" style="stroke: #000000; stroke-width: 0.8"/>
      </g>
     </g>
     <g id="text_12">
      <!-- 1.0 -->
      <g transform="translate(20.878125 486.638415) scale(0.1 -0.1)">
       <use xlink:href="#DejaVuSans-31"/>
       <use xlink:href="#DejaVuSans-2e" transform="translate(63.623047 0)"/>
       <use xlink:href="#DejaVuSans-30" transform="translate(95.410156 0)"/>
      </g>
     </g>
    </g>
    <g id="ytick_3">
     <g id="line2d_23">
      <path d="M 43.78125 401.500936 
L 601.78125 401.500936 
" clip-path="url(#p7544cc81c1)" style="fill: none; stroke: #b0b0b0; stroke-width: 0.8; stroke-linecap: square"/>
     </g>
     <g id="line2d_24">
      <g>
       <use xlink:href="#m5145bb7c2c" x="43.78125" y="401.500936" style="stroke: #000000; stroke-width: 0.8"/>
      </g>
     </g>
     <g id="text_13">
      <!-- 1.5 -->
      <g transform="translate(20.878125 405.300155) scale(0.1 -0.1)">
       <use xlink:href="#DejaVuSans-31"/>
       <use xlink:href="#DejaVuSans-2e" transform="translate(63.623047 0)"/>
       <use xlink:href="#DejaVuSans-35" transform="translate(95.410156 0)"/>
      </g>
     </g>
    </g>
    <g id="ytick_4">
     <g id="line2d_25">
      <path d="M 43.78125 320.162675 
L 601.78125 320.162675 
" clip-path="url(#p7544cc81c1)" style="fill: none; stroke: #b0b0b0; stroke-width: 0.8; stroke-linecap: square"/>
     </g>
     <g id="line2d_26">
      <g>
       <use xlink:href="#m5145bb7c2c" x="43.78125" y="320.162675" style="stroke: #000000; stroke-width: 0.8"/>
      </g>
     </g>
     <g id="text_14">
      <!-- 2.0 -->
      <g transform="translate(20.878125 323.961894) scale(0.1 -0.1)">
       <use xlink:href="#DejaVuSans-32"/>
       <use xlink:href="#DejaVuSans-2e" transform="translate(63.623047 0)"/>
       <use xlink:href="#DejaVuSans-30" transform="translate(95.410156 0)"/>
      </g>
     </g>
    </g>
    <g id="ytick_5">
     <g id="line2d_27">
      <path d="M 43.78125 238.824415 
L 601.78125 238.824415 
" clip-path="url(#p7544cc81c1)" style="fill: none; stroke: #b0b0b0; stroke-width: 0.8; stroke-linecap: square"/>
     </g>
     <g id="line2d_28">
      <g>
       <use xlink:href="#m5145bb7c2c" x="43.78125" y="238.824415" style="stroke: #000000; stroke-width: 0.8"/>
      </g>
     </g>
     <g id="text_15">
      <!-- 2.5 -->
      <g transform="translate(20.878125 242.623633) scale(0.1 -0.1)">
       <use xlink:href="#DejaVuSans-32"/>
       <use xlink:href="#DejaVuSans-2e" transform="translate(63.623047 0)"/>
       <use xlink:href="#DejaVuSans-35" transform="translate(95.410156 0)"/>
      </g>
     </g>
    </g>
    <g id="ytick_6">
     <g id="line2d_29">
      <path d="M 43.78125 157.486154 
L 601.78125 157.486154 
" clip-path="url(#p7544cc81c1)" style="fill: none; stroke: #b0b0b0; stroke-width: 0.8; stroke-linecap: square"/>
     </g>
     <g id="line2d_30">
      <g>
       <use xlink:href="#m5145bb7c2c" x="43.78125" y="157.486154" style="stroke: #000000; stroke-width: 0.8"/>
      </g>
     </g>
     <g id="text_16">
      <!-- 3.0 -->
      <g transform="translate(20.878125 161.285373) scale(0.1 -0.1)">
       <use xlink:href="#DejaVuSans-33"/>
       <use xlink:href="#DejaVuSans-2e" transform="translate(63.623047 0)"/>
       <use xlink:href="#DejaVuSans-30" transform="translate(95.410156 0)"/>
      </g>
     </g>
    </g>
    <g id="ytick_7">
     <g id="line2d_31">
      <path d="M 43.78125 76.147893 
L 601.78125 76.147893 
" clip-path="url(#p7544cc81c1)" style="fill: none; stroke: #b0b0b0; stroke-width: 0.8; stroke-linecap: square"/>
     </g>
     <g id="line2d_32">
      <g>
       <use xlink:href="#m5145bb7c2c" x="43.78125" y="76.147893" style="stroke: #000000; stroke-width: 0.8"/>
      </g>
     </g>
     <g id="text_17">
      <!-- 3.5 -->
      <g transform="translate(20.878125 79.947112) scale(0.1 -0.1)">
       <use xlink:href="#DejaVuSans-33"/>
       <use xlink:href="#DejaVuSans-2e" transform="translate(63.623047 0)"/>
       <use xlink:href="#DejaVuSans-35" transform="translate(95.410156 0)"/>
      </g>
     </g>
    </g>
    <g id="text_18">
     <!-- Loss -->
     <g transform="translate(14.798438 310.485313) rotate(-90) scale(0.1 -0.1)">
      <defs>
       <path id="DejaVuSans-4c" d="M 628 4666 
L 1259 4666 
L 1259 531 
L 3531 531 
L 3531 0 
L 628 0 
L 628 4666 
z
" transform="scale(0.015625)"/>
      </defs>
      <use xlink:href="#DejaVuSans-4c"/>
      <use xlink:href="#DejaVuSans-6f" transform="translate(53.962891 0)"/>
      <use xlink:href="#DejaVuSans-73" transform="translate(115.144531 0)"/>
      <use xlink:href="#DejaVuSans-73" transform="translate(167.244141 0)"/>
     </g>
    </g>
   </g>
   <g id="line2d_33">
    <path d="M 69.144886 47.518125 
L 69.779771 213.751512 
L 70.414655 253.222144 
L 71.04954 277.503248 
L 71.684424 294.93917 
L 72.319309 308.366612 
L 72.954193 319.257353 
L 74.223962 335.765186 
L 75.493732 348.846588 
L 76.763501 359.129043 
L 79.303039 374.926623 
L 80.572808 381.742523 
L 81.207692 384.029642 
L 81.842577 387.088275 
L 83.74723 394.084274 
L 84.382115 396.05159 
L 85.016999 398.668266 
L 85.651884 400.263439 
L 86.286768 402.425961 
L 87.556537 405.8732 
L 88.191422 407.127452 
L 88.826306 409.196133 
L 89.461191 410.019018 
L 90.096075 412.038655 
L 92.635613 417.072787 
L 93.905382 419.241999 
L 94.540267 420.351311 
L 95.175151 422.018664 
L 95.810036 422.699207 
L 96.44492 423.835746 
L 97.71469 425.537791 
L 98.349574 426.993552 
L 98.984459 427.637753 
L 99.619343 428.489416 
L 100.254228 429.889073 
L 101.523997 431.183022 
L 102.158881 432.375237 
L 102.793766 432.818221 
L 103.42865 433.862006 
L 104.063535 433.956758 
L 104.698419 435.174125 
L 105.333304 435.989524 
L 105.968188 435.99286 
L 106.603073 437.450695 
L 107.237957 438.015871 
L 107.872842 438.255757 
L 108.507726 439.542977 
L 109.142611 439.939903 
L 111.047264 442.253066 
L 111.682149 442.343494 
L 112.317033 443.490622 
L 112.951918 443.515095 
L 113.586802 444.558007 
L 114.221687 444.928017 
L 114.856571 445.461351 
L 115.491456 445.50192 
L 116.12634 446.962722 
L 116.761225 447.40398 
L 117.396109 446.882941 
L 118.030994 448.38662 
L 118.665879 449.075289 
L 119.300763 449.08035 
L 119.935648 450.341661 
L 120.570532 449.204055 
L 121.840301 451.117693 
L 122.475186 451.484775 
L 123.11007 452.167916 
L 124.379839 453.05722 
L 125.014724 453.184357 
L 125.649608 454.001366 
L 126.284493 454.188038 
L 126.919377 454.690713 
L 127.554262 454.99599 
L 128.189146 456.099 
L 128.824031 455.777277 
L 130.0938 457.114258 
L 130.728684 457.066572 
L 131.998453 458.247578 
L 132.633338 458.180771 
L 133.903107 458.863622 
L 134.537991 459.215267 
L 135.172876 459.813779 
L 135.80776 460.803478 
L 137.077529 460.637575 
L 137.712414 460.901895 
L 138.347298 460.947526 
L 139.617067 462.432103 
L 140.251952 462.601148 
L 140.886837 463.609445 
L 141.521721 463.481434 
L 142.156606 463.551189 
L 142.79149 464.742881 
L 143.426375 464.770147 
L 144.061259 465.150319 
L 145.965913 465.291322 
L 146.600797 466.314376 
L 147.235682 466.548657 
L 148.505451 466.632685 
L 149.140335 467.983415 
L 149.77522 467.49259 
L 150.410104 468.133494 
L 151.044989 467.452758 
L 151.679873 469.1281 
L 152.314758 468.626065 
L 152.949642 469.044421 
L 153.584527 469.65133 
L 154.219411 470.06156 
L 155.48918 470.479896 
L 156.124065 470.632554 
L 156.758949 470.356463 
L 157.393834 471.215514 
L 158.028718 471.186697 
L 158.663603 472.100086 
L 159.298487 472.180313 
L 160.568256 471.996743 
L 161.203141 472.754584 
L 161.838026 472.641933 
L 163.107795 473.904505 
L 163.742679 473.700495 
L 164.377564 474.235788 
L 165.012448 474.327456 
L 165.647333 473.91263 
L 166.282217 475.281143 
L 167.551986 475.725271 
L 168.186871 475.652297 
L 168.821755 476.083374 
L 169.45664 476.188501 
L 170.091524 476.787188 
L 170.726409 477.087715 
L 171.996178 477.334679 
L 172.631062 477.261278 
L 174.535716 478.182153 
L 175.1706 477.960205 
L 176.440369 479.024604 
L 177.075254 478.928223 
L 177.710138 479.371091 
L 178.345023 479.399443 
L 178.979907 479.889357 
L 179.614792 479.819582 
L 180.249676 479.949687 
L 180.884561 480.322606 
L 181.519445 480.555394 
L 182.15433 480.544689 
L 182.789215 481.052076 
L 183.424099 482.073579 
L 184.058984 481.306118 
L 184.693868 481.966842 
L 185.328753 482.374221 
L 185.963637 482.449484 
L 186.598522 482.266845 
L 187.233406 482.648258 
L 187.868291 483.303222 
L 188.503175 482.955785 
L 189.13806 483.207384 
L 189.772944 484.071933 
L 190.407829 483.941673 
L 191.042713 484.083675 
L 191.677598 484.503398 
L 192.312482 484.553149 
L 192.947367 485.017533 
L 193.582251 484.362802 
L 194.217136 485.156713 
L 194.85202 484.892567 
L 195.486905 485.623957 
L 196.121789 485.707316 
L 197.391558 486.192983 
L 198.026443 484.953625 
L 198.661327 486.102129 
L 199.931096 486.788858 
L 200.565981 485.947629 
L 201.200865 487.292357 
L 201.83575 486.665027 
L 202.470634 487.235236 
L 203.105519 487.518464 
L 203.740403 488.13221 
L 205.010173 487.730929 
L 206.914826 488.66245 
L 207.549711 488.599473 
L 208.184595 488.775897 
L 208.81948 489.522733 
L 209.454364 489.114782 
L 210.089249 489.458059 
L 210.724133 489.478896 
L 211.359018 489.622343 
L 211.993902 490.138418 
L 212.628787 490.234294 
L 213.263671 489.909993 
L 213.898556 491.176288 
L 214.53344 490.600591 
L 215.168325 490.611198 
L 215.803209 491.018587 
L 216.438094 490.625258 
L 217.072978 490.438178 
L 217.707863 491.256369 
L 218.342747 491.205318 
L 218.977632 491.961211 
L 219.612516 490.811785 
L 220.247401 491.959689 
L 220.882285 492.301948 
L 221.51717 492.143908 
L 222.152054 492.585826 
L 222.786939 492.442505 
L 223.421823 492.628111 
L 224.056708 492.550056 
L 224.691592 492.650732 
L 225.326477 493.349301 
L 225.961362 493.183756 
L 226.596246 493.867722 
L 227.231131 493.370875 
L 227.866015 493.569338 
L 228.5009 493.569804 
L 229.135784 494.038657 
L 229.770669 494.647564 
L 230.405553 494.039065 
L 231.040438 495.0158 
L 231.675322 494.673259 
L 232.310207 494.94587 
L 233.579976 494.95161 
L 234.21486 495.125339 
L 234.849745 495.088328 
L 235.484629 495.332868 
L 236.119514 495.870478 
L 236.754398 495.9036 
L 237.389283 495.421346 
L 238.024167 495.571076 
L 238.659052 495.551277 
L 239.293936 496.311125 
L 239.928821 496.466392 
L 240.563705 496.46295 
L 241.19859 497.188871 
L 241.833474 496.968882 
L 242.468359 496.456889 
L 243.103243 496.905914 
L 243.738128 497.060909 
L 244.373012 496.691084 
L 245.007897 498.084914 
L 245.642781 497.695598 
L 246.277666 497.952666 
L 246.91255 497.671978 
L 247.547435 498.259602 
L 248.817204 498.50356 
L 249.452089 498.537565 
L 250.086973 498.323258 
L 250.721858 498.666884 
L 251.356742 499.315982 
L 251.991627 498.709237 
L 252.626511 499.031726 
L 253.261396 499.169209 
L 253.89628 500.07713 
L 254.531165 499.248428 
L 255.166049 499.646916 
L 255.800934 499.299663 
L 256.435818 499.564459 
L 257.070703 499.418142 
L 257.705587 500.250994 
L 258.340472 500.603783 
L 258.975356 499.913534 
L 259.610241 500.288014 
L 260.245125 500.393859 
L 260.88001 500.863954 
L 261.514894 500.351893 
L 262.149779 501.058752 
L 262.784663 500.511484 
L 263.419548 501.423661 
L 264.054432 501.554542 
L 265.324201 500.716735 
L 265.959086 501.548385 
L 266.59397 501.532803 
L 267.863739 502.350819 
L 268.498624 501.745878 
L 269.133509 502.440937 
L 269.768393 502.67931 
L 270.403278 502.254623 
L 271.673047 502.308641 
L 272.307931 502.549419 
L 272.942816 503.10325 
L 273.5777 502.483232 
L 274.212585 503.089356 
L 274.847469 502.245857 
L 275.482354 503.533532 
L 276.117238 502.940508 
L 276.752123 503.324238 
L 277.387007 503.915575 
L 278.021892 503.3462 
L 279.291661 503.875472 
L 281.196314 504.227117 
L 281.831199 504.152804 
L 283.100968 504.598426 
L 285.005621 505.241842 
L 286.27539 504.718825 
L 286.910275 504.948859 
L 287.545159 504.649419 
L 288.814928 505.140041 
L 289.449813 506.080133 
L 290.084697 505.928881 
L 290.719582 505.349684 
L 291.989351 506.548076 
L 292.624236 505.873952 
L 293.25912 505.849915 
L 293.894005 506.377828 
L 294.528889 506.220448 
L 295.163774 507.193566 
L 295.798658 506.125919 
L 296.433543 506.894902 
L 297.703312 507.436865 
L 298.338196 507.09672 
L 298.973081 507.668985 
L 299.607965 506.924853 
L 300.24285 507.74446 
L 300.877734 507.498883 
L 301.512619 507.544649 
L 302.147503 508.066289 
L 302.782388 508.033797 
L 303.417272 508.20931 
L 304.052157 508.041603 
L 304.687041 508.465892 
L 305.321926 507.655274 
L 305.95681 508.757421 
L 306.591695 508.517729 
L 307.226579 508.419767 
L 307.861464 508.897968 
L 308.496348 508.190315 
L 309.131233 508.840246 
L 309.766117 508.914578 
L 311.035886 509.289067 
L 311.670771 508.808607 
L 312.305656 508.629197 
L 312.94054 509.332681 
L 313.575425 509.698464 
L 314.210309 509.471387 
L 314.845194 509.845139 
L 315.480078 509.871387 
L 316.114963 509.640664 
L 316.749847 510.134748 
L 317.384732 509.577473 
L 318.654501 510.2014 
L 319.289385 510.692119 
L 319.92427 510.413457 
L 320.559154 510.833287 
L 321.194039 510.252179 
L 321.828923 509.893911 
L 322.463808 511.075374 
L 323.098692 510.656019 
L 323.733577 510.408803 
L 324.368461 511.163542 
L 325.003346 511.251642 
L 325.63823 510.903507 
L 326.273115 511.556154 
L 326.907999 510.987758 
L 327.542884 511.067413 
L 328.177768 511.938963 
L 328.812653 511.842795 
L 329.447537 511.190284 
L 330.082422 512.071268 
L 330.717306 511.914024 
L 331.352191 511.873678 
L 331.987075 512.161444 
L 332.62196 512.306132 
L 333.256844 512.039261 
L 333.891729 513.012088 
L 334.526614 512.491098 
L 335.161498 512.822119 
L 335.796383 512.761653 
L 336.431267 513.141747 
L 337.066152 512.976969 
L 337.701036 512.51339 
L 338.335921 513.177759 
L 338.970805 513.658462 
L 339.60569 513.214799 
L 340.240574 513.136414 
L 340.875459 513.479333 
L 341.510343 513.51039 
L 342.145228 512.840135 
L 342.780112 513.732784 
L 343.414997 513.982666 
L 344.049881 514.035317 
L 344.684766 513.760573 
L 345.31965 514.225073 
L 345.954535 514.525396 
L 346.589419 514.545341 
L 347.224304 513.99244 
L 347.859188 514.419047 
L 348.494073 514.505237 
L 349.128957 514.149607 
L 349.763842 514.703235 
L 350.398726 514.939514 
L 351.033611 514.917116 
L 351.668495 514.722599 
L 352.30338 514.896298 
L 352.938264 515.682947 
L 353.573149 514.698077 
L 354.208033 515.326163 
L 354.842918 515.554927 
L 355.477803 515.530396 
L 356.112687 515.336877 
L 358.017341 516.328225 
L 358.652225 515.338884 
L 359.28711 515.937891 
L 359.921994 515.523046 
L 360.556879 516.56813 
L 361.191763 516.380895 
L 362.461532 516.614866 
L 363.096417 516.138653 
L 363.731301 516.441807 
L 364.366186 516.508827 
L 365.00107 516.37433 
L 365.635955 517.270935 
L 366.270839 516.891685 
L 367.540608 516.989026 
L 368.175493 517.593947 
L 368.810377 517.266543 
L 369.445262 517.781561 
L 370.080146 517.185143 
L 371.349915 517.221358 
L 371.9848 517.787505 
L 373.889453 517.842444 
L 374.524338 518.350461 
L 375.794107 518.901035 
L 376.428991 518.624865 
L 377.063876 518.646982 
L 377.698761 518.30196 
L 378.333645 518.936736 
L 378.96853 518.41881 
L 379.603414 519.29001 
L 380.238299 518.814796 
L 380.873183 519.209076 
L 381.508068 519.08987 
L 382.142952 519.402613 
L 382.777837 519.27214 
L 383.412721 519.962951 
L 384.047606 519.686491 
L 384.68249 519.730619 
L 385.317375 520.365027 
L 385.952259 520.318882 
L 387.222028 520.603293 
L 387.856913 520.417852 
L 388.491797 520.45497 
L 389.761566 521.290216 
L 390.396451 521.00598 
L 391.66622 520.81441 
L 392.301104 521.441614 
L 392.935989 521.855519 
L 393.570873 521.408753 
L 394.205758 521.669486 
L 394.840642 521.602117 
L 396.745296 522.268522 
L 397.38018 522.685705 
L 398.015065 522.499604 
L 398.64995 523.230849 
L 399.284834 522.700094 
L 401.189488 523.458827 
L 402.459257 523.725543 
L 403.094141 523.590629 
L 403.729026 524.112259 
L 404.36391 524.376318 
L 404.998795 524.103746 
L 405.633679 524.593505 
L 406.268564 524.597723 
L 406.903448 525.141093 
L 407.538333 525.103461 
L 408.173217 525.769954 
L 408.808102 525.744143 
L 409.442986 526.245372 
L 410.077871 525.994627 
L 410.712755 526.216788 
L 411.34764 525.82405 
L 411.982524 526.43539 
L 412.617409 526.540353 
L 413.252293 526.450807 
L 413.887178 527.246077 
L 414.522062 526.981892 
L 415.156947 527.070118 
L 415.791831 527.490539 
L 416.426716 527.529324 
L 417.0616 527.794159 
L 417.696485 527.425972 
L 418.331369 527.711343 
L 418.966254 528.176803 
L 419.601138 528.376381 
L 420.236023 528.420945 
L 420.870908 528.224538 
L 421.505792 528.93192 
L 422.140677 528.979713 
L 422.775561 528.73588 
L 423.410446 529.018905 
L 424.04533 528.998271 
L 424.680215 529.297925 
L 425.315099 529.214595 
L 425.949984 529.634027 
L 426.584868 529.811527 
L 427.219753 529.556311 
L 428.489522 530.335543 
L 429.124406 530.139523 
L 429.759291 530.537439 
L 430.394175 530.447428 
L 431.663944 530.907807 
L 432.933713 530.81387 
L 433.568598 530.955882 
L 434.203482 530.867025 
L 434.838367 531.198095 
L 436.108136 531.293603 
L 436.74302 531.801465 
L 437.377905 531.948043 
L 438.012789 531.715381 
L 438.647674 532.043377 
L 439.917443 532.296683 
L 441.187212 532.589074 
L 442.456981 532.3887 
L 443.091866 532.576643 
L 443.72675 533.023331 
L 444.996519 532.796981 
L 445.631404 532.873378 
L 446.901173 533.446302 
L 447.536057 533.731412 
L 448.805826 533.958343 
L 449.440711 533.915941 
L 450.075595 533.228912 
L 450.71048 534.218824 
L 451.345364 534.147537 
L 451.980249 534.365005 
L 452.615133 534.045038 
L 453.250018 533.983709 
L 453.884902 535.182062 
L 454.519787 534.199887 
L 455.154671 535.111812 
L 457.059325 534.992112 
L 458.329094 535.15851 
L 458.963978 535.270977 
L 459.598863 535.184816 
L 460.233747 535.446363 
L 460.868632 535.852394 
L 461.503516 535.549842 
L 462.138401 535.967615 
L 462.773285 535.987716 
L 464.043055 536.212524 
L 464.677939 535.404349 
L 465.312824 536.161056 
L 465.947708 536.453457 
L 466.582593 536.116114 
L 467.217477 536.661132 
L 467.852362 536.318417 
L 468.487246 536.783567 
L 469.122131 536.682609 
L 469.757015 537.132128 
L 470.3919 536.6117 
L 471.026784 537.050505 
L 472.296553 537.334819 
L 472.931438 537.155981 
L 474.836091 537.505454 
L 475.470976 537.266102 
L 476.10586 537.776727 
L 476.740745 537.568073 
L 477.375629 538.026998 
L 478.010514 538.129924 
L 478.645398 537.847849 
L 479.280283 538.244728 
L 479.915167 537.552171 
L 480.550052 538.377198 
L 481.184936 538.461313 
L 481.819821 538.248577 
L 483.08959 538.642323 
L 484.994244 538.741187 
L 485.629128 538.97444 
L 486.264013 538.608677 
L 486.898897 539.468912 
L 487.533782 539.059428 
L 488.168666 539.047793 
L 488.803551 539.285419 
L 489.438435 539.824726 
L 490.07332 539.39874 
L 490.708204 539.468213 
L 491.343089 539.822738 
L 491.977973 539.54304 
L 492.612858 539.789616 
L 493.247742 539.827625 
L 493.882627 539.738371 
L 495.152396 540.024149 
L 495.78728 539.930251 
L 496.422165 540.217144 
L 497.691934 540.366893 
L 498.326818 540.830133 
L 498.961703 540.393005 
L 499.596587 540.153827 
L 500.231472 540.859396 
L 500.866356 540.404699 
L 501.501241 540.592565 
L 502.136125 541.09009 
L 502.77101 540.549911 
L 503.405894 540.629992 
L 504.040779 541.320231 
L 504.675663 541.302167 
L 505.945433 540.964417 
L 506.580317 541.279972 
L 507.215202 541.36115 
L 507.850086 541.266727 
L 509.119855 541.595906 
L 509.75474 541.320813 
L 510.389624 541.668114 
L 511.024509 541.8448 
L 511.659393 541.237047 
L 512.294278 541.665884 
L 512.929162 541.56608 
L 514.198931 542.024569 
L 514.833816 541.700946 
L 515.4687 542.2678 
L 516.738469 542.07912 
L 518.008238 542.05104 
L 518.643123 542.127553 
L 519.278007 542.366741 
L 519.912892 542.060203 
L 521.182661 542.51233 
L 521.817545 542.297519 
L 522.45243 542.663078 
L 523.087314 542.701679 
L 523.722199 542.584054 
L 524.357083 542.72208 
L 524.991968 543.159712 
L 526.261737 542.814777 
L 527.531506 543.189392 
L 528.166391 543.164764 
L 528.801275 543.255647 
L 529.43616 543.677784 
L 530.071044 543.05058 
L 530.705929 543.523623 
L 531.340813 543.564735 
L 531.975698 543.365709 
L 532.610582 543.402381 
L 533.245467 543.071233 
L 533.880351 543.902359 
L 534.515236 543.531467 
L 535.15012 543.572027 
L 535.785005 543.931584 
L 537.054774 543.962418 
L 537.689658 543.707881 
L 538.324543 544.18775 
L 538.959427 544.3113 
L 539.594312 544.213455 
L 540.229196 543.883374 
L 540.864081 544.20212 
L 541.498965 544.141819 
L 542.768734 544.332981 
L 543.403619 544.946716 
L 544.038503 544.136457 
L 544.673388 544.408747 
L 545.308272 544.291325 
L 545.943157 544.693333 
L 546.578041 544.807022 
L 547.84781 544.711834 
L 548.482695 545.012903 
L 549.11758 544.99417 
L 549.752464 544.671953 
L 550.387349 544.860759 
L 551.022233 544.7129 
L 551.657118 545.38811 
L 552.292002 545.221867 
L 552.926887 544.900901 
L 553.561771 545.062218 
L 554.196656 545.465205 
L 554.83154 545.667159 
L 555.466425 545.362842 
L 556.101309 545.647243 
L 557.371078 545.512077 
L 558.005963 545.551822 
L 558.640847 545.894905 
L 559.275732 545.62945 
L 559.910616 545.931131 
L 560.545501 545.518796 
L 561.180385 545.982686 
L 561.81527 545.647796 
L 562.450154 546.080967 
L 563.085039 545.615216 
L 563.719923 546.115088 
L 564.354808 546.05694 
L 564.989692 546.155173 
L 565.624577 545.988659 
L 566.259461 546.167526 
L 567.52923 546.179656 
L 568.164115 546.37747 
L 568.798999 546.153563 
L 569.433884 546.205564 
L 570.068768 546.42025 
L 570.703653 546.068779 
L 571.338538 546.723472 
L 571.973422 546.647908 
L 572.608307 546.450773 
L 573.243191 546.850638 
L 573.878076 546.952439 
L 574.51296 546.57699 
L 575.147845 547.156284 
L 576.417614 546.964463 
L 576.417614 546.964463 
" clip-path="url(#p7544cc81c1)" style="fill: none; stroke: #1f77b4; stroke-width: 1.5; stroke-linecap: square"/>
   </g>
   <g id="line2d_34">
    <path d="M 69.144886 184.965944 
L 69.779771 242.657818 
L 71.04954 287.099963 
L 71.684424 295.375735 
L 72.319309 315.136746 
L 72.954193 329.268817 
L 73.589078 336.39046 
L 74.223962 338.972346 
L 74.858847 346.395 
L 75.493732 355.842587 
L 76.128616 358.21926 
L 76.763501 365.767346 
L 77.398385 367.832847 
L 78.03327 372.631262 
L 78.668154 376.314393 
L 79.303039 377.546538 
L 79.937923 380.752922 
L 80.572808 389.600076 
L 81.207692 367.572482 
L 81.842577 392.896848 
L 82.477461 384.542032 
L 83.112346 382.678835 
L 83.74723 396.007879 
L 84.382115 401.189472 
L 85.016999 389.620457 
L 85.651884 382.883193 
L 86.286768 407.03144 
L 86.921653 399.657053 
L 87.556537 396.024634 
L 88.191422 413.193501 
L 88.826306 405.208501 
L 89.461191 411.143863 
L 90.096075 415.966791 
L 90.73096 418.050851 
L 91.365844 416.519595 
L 92.000729 389.285722 
L 92.635613 412.668506 
L 93.270498 415.80114 
L 93.905382 421.14949 
L 94.540267 421.569707 
L 95.175151 425.380285 
L 95.810036 424.128341 
L 96.44492 413.821102 
L 97.079805 428.906549 
L 97.71469 427.520079 
L 98.349574 433.604104 
L 98.984459 436.947206 
L 99.619343 421.958741 
L 100.254228 428.887234 
L 100.889112 438.750325 
L 101.523997 431.19586 
L 102.158881 437.63634 
L 102.793766 432.430913 
L 103.42865 433.639787 
L 104.063535 438.896041 
L 104.698419 440.68863 
L 105.333304 439.933368 
L 105.968188 427.805052 
L 106.603073 440.847766 
L 107.237957 427.370465 
L 107.872842 434.77235 
L 108.507726 426.051267 
L 109.142611 443.331447 
L 109.777495 445.906391 
L 110.41238 447.522391 
L 111.047264 440.781753 
L 111.682149 450.362702 
L 112.317033 443.408669 
L 112.951918 449.043272 
L 113.586802 438.277341 
L 114.856571 443.404266 
L 115.491456 413.759104 
L 116.12634 455.344222 
L 116.761225 451.326822 
L 117.396109 449.185342 
L 118.030994 449.380489 
L 118.665879 449.385182 
L 119.300763 452.291001 
L 119.935648 456.733388 
L 120.570532 458.418136 
L 121.205417 455.990324 
L 121.840301 459.10215 
L 122.475186 451.373985 
L 123.11007 452.279462 
L 123.744955 460.177389 
L 124.379839 444.674149 
L 125.014724 458.517678 
L 125.649608 455.209425 
L 126.284493 450.582536 
L 126.919377 449.828515 
L 127.554262 455.350758 
L 128.189146 457.506841 
L 128.824031 462.726986 
L 129.458915 459.047637 
L 130.0938 451.813614 
L 130.728684 458.033834 
L 131.363569 460.450941 
L 131.998453 458.80907 
L 132.633338 460.976459 
L 133.268222 457.481262 
L 133.903107 464.292411 
L 134.537991 462.178701 
L 135.172876 459.495528 
L 135.80776 458.244262 
L 136.442645 459.125305 
L 137.077529 459.705491 
L 137.712414 462.797633 
L 138.347298 467.135437 
L 138.982183 462.966853 
L 139.617067 472.990844 
L 140.251952 461.678897 
L 140.886837 467.747466 
L 141.521721 465.43983 
L 142.156606 464.183348 
L 142.79149 464.038039 
L 143.426375 468.037249 
L 144.061259 460.307998 
L 144.696144 463.753822 
L 145.331028 450.273225 
L 145.965913 466.833922 
L 146.600797 466.797852 
L 147.235682 464.360441 
L 147.870566 454.710726 
L 148.505451 473.673927 
L 149.140335 465.978342 
L 149.77522 451.980817 
L 150.410104 475.575832 
L 151.044989 469.350493 
L 151.679873 470.579942 
L 152.314758 467.195903 
L 152.949642 467.797887 
L 153.584527 477.876953 
L 154.219411 469.578918 
L 154.854296 475.535244 
L 155.48918 471.049242 
L 156.124065 470.658133 
L 156.758949 473.249075 
L 157.393834 476.648997 
L 158.028718 477.86747 
L 158.663603 478.690761 
L 159.298487 460.956388 
L 159.933372 475.68924 
L 160.568256 460.895418 
L 161.203141 471.131234 
L 161.838026 467.155625 
L 162.47291 477.989139 
L 163.107795 484.945131 
L 163.742679 480.72599 
L 164.377564 440.352984 
L 165.012448 462.672939 
L 165.647333 471.555601 
L 166.282217 473.766178 
L 166.917102 454.59852 
L 167.551986 451.506688 
L 168.186871 477.02498 
L 168.821755 469.375025 
L 169.45664 474.329415 
L 170.091524 484.445734 
L 170.726409 473.838861 
L 171.361293 485.285635 
L 171.996178 472.419016 
L 172.631062 476.92889 
L 173.265947 479.357826 
L 173.900831 479.439973 
L 174.535716 478.258482 
L 175.1706 473.425489 
L 175.805485 477.816661 
L 176.440369 478.545375 
L 177.075254 473.230866 
L 177.710138 470.702949 
L 178.345023 475.810075 
L 178.979907 482.08983 
L 179.614792 480.693702 
L 180.249676 483.882244 
L 180.884561 479.896357 
L 181.519445 482.855002 
L 182.789215 466.436724 
L 183.424099 479.906015 
L 184.058984 478.688376 
L 184.693868 490.69287 
L 185.328753 488.065771 
L 185.963637 467.985839 
L 186.598522 487.72802 
L 187.233406 486.969258 
L 187.868291 482.892817 
L 188.503175 466.127393 
L 189.13806 467.036244 
L 189.772944 489.966241 
L 190.407829 486.805866 
L 191.042713 481.676885 
L 191.677598 486.864499 
L 192.312482 486.292273 
L 192.947367 472.648953 
L 193.582251 485.693771 
L 194.217136 486.916995 
L 194.85202 487.244312 
L 195.486905 484.587697 
L 196.121789 479.007383 
L 196.756674 483.406564 
L 197.391558 494.922027 
L 198.026443 477.141451 
L 198.661327 474.241198 
L 199.296212 488.622065 
L 199.931096 485.444421 
L 200.565981 482.979317 
L 201.200865 475.876533 
L 201.83575 489.041187 
L 202.470634 485.492408 
L 203.105519 483.02618 
L 203.740403 443.332592 
L 204.375288 480.988914 
L 205.010173 490.602152 
L 205.645057 489.270669 
L 206.279942 494.513474 
L 206.914826 494.594526 
L 208.184595 492.408073 
L 208.81948 490.181246 
L 209.454364 489.118146 
L 210.089249 487.508952 
L 210.724133 478.955256 
L 211.359018 482.950481 
L 211.993902 499.500638 
L 212.628787 482.796708 
L 213.898556 494.553889 
L 214.53344 467.25635 
L 215.168325 496.032881 
L 215.803209 479.52307 
L 216.438094 490.325129 
L 217.072978 407.151712 
L 217.707863 495.314028 
L 218.342747 493.324226 
L 218.977632 477.575728 
L 219.612516 498.1856 
L 220.247401 493.388367 
L 221.51717 479.785859 
L 222.152054 494.148788 
L 222.786939 495.253717 
L 223.421823 488.336626 
L 224.056708 498.100525 
L 224.691592 493.309721 
L 225.326477 493.97409 
L 225.961362 505.606557 
L 226.596246 489.951192 
L 227.231131 495.16968 
L 227.866015 496.750822 
L 228.5009 502.642028 
L 229.135784 502.095827 
L 229.770669 477.76116 
L 230.405553 501.237163 
L 231.040438 505.784358 
L 231.675322 500.786122 
L 232.310207 491.764716 
L 232.945091 499.994789 
L 233.579976 494.367449 
L 234.21486 491.511178 
L 234.849745 497.756074 
L 235.484629 500.750022 
L 236.119514 497.825577 
L 236.754398 501.938117 
L 237.389283 466.542781 
L 238.024167 476.247571 
L 238.659052 503.516942 
L 239.293936 501.718457 
L 239.928821 500.967112 
L 240.563705 495.262551 
L 241.19859 505.98735 
L 241.833474 500.681964 
L 242.468359 496.926121 
L 243.103243 502.655913 
L 243.738128 499.345284 
L 244.373012 497.444058 
L 245.007897 494.285825 
L 245.642781 497.946393 
L 246.277666 509.589002 
L 246.91255 492.547477 
L 247.547435 491.294766 
L 248.18232 503.340024 
L 248.817204 495.663346 
L 249.452089 434.664295 
L 250.086973 505.613432 
L 250.721858 485.067401 
L 251.356742 500.777017 
L 251.991627 508.069867 
L 252.626511 499.718096 
L 253.261396 497.738223 
L 253.89628 502.900084 
L 254.531165 492.961663 
L 255.166049 500.979126 
L 255.800934 502.040189 
L 256.435818 506.22263 
L 257.070703 501.629223 
L 257.705587 503.017283 
L 258.340472 494.651976 
L 258.975356 497.052503 
L 259.610241 506.265759 
L 260.245125 500.590005 
L 260.88001 497.523247 
L 261.514894 480.664477 
L 262.149779 500.109292 
L 262.784663 504.095664 
L 263.419548 503.195113 
L 264.054432 502.982803 
L 264.689317 489.932556 
L 265.324201 492.814347 
L 265.959086 499.922649 
L 266.59397 500.714902 
L 267.228855 481.343468 
L 267.863739 502.837049 
L 268.498624 504.744714 
L 269.133509 494.241756 
L 269.768393 504.664525 
L 270.403278 499.026829 
L 271.038162 509.524309 
L 271.673047 509.750154 
L 272.307931 499.521611 
L 272.942816 504.86167 
L 273.5777 507.560532 
L 274.212585 500.911378 
L 274.847469 499.178304 
L 275.482354 486.616071 
L 276.117238 503.895145 
L 276.752123 502.931238 
L 277.387007 497.539993 
L 278.021892 489.107975 
L 278.656776 502.766276 
L 279.291661 503.721747 
L 279.926545 513.731988 
L 280.56143 504.322043 
L 281.196314 499.360536 
L 281.831199 503.478196 
L 282.466083 510.716999 
L 283.100968 504.144689 
L 283.735852 507.141992 
L 284.370737 512.175717 
L 285.005621 504.258242 
L 285.640506 505.169915 
L 286.27539 506.501097 
L 286.910275 511.578009 
L 287.545159 503.487155 
L 288.180044 510.635628 
L 288.814928 508.835747 
L 289.449813 510.145326 
L 290.084697 503.634955 
L 290.719582 502.147013 
L 291.354467 502.83478 
L 291.989351 492.433778 
L 292.624236 499.285662 
L 293.25912 504.373569 
L 293.894005 512.236861 
L 294.528889 505.807406 
L 295.163774 509.133646 
L 295.798658 503.482511 
L 296.433543 512.04854 
L 297.068427 512.423466 
L 297.703312 510.139188 
L 298.338196 510.674879 
L 298.973081 487.079019 
L 299.607965 512.525229 
L 300.877734 498.390307 
L 301.512619 512.021604 
L 302.147503 509.247684 
L 302.782388 512.774568 
L 303.417272 501.905188 
L 304.052157 503.816509 
L 304.687041 510.815048 
L 305.321926 508.959801 
L 305.95681 515.353594 
L 306.591695 516.809887 
L 307.226579 493.552244 
L 307.861464 504.480257 
L 308.496348 504.702952 
L 309.131233 508.832121 
L 309.766117 507.555936 
L 310.401002 517.331799 
L 311.035886 516.75617 
L 311.670771 504.675172 
L 312.305656 501.021169 
L 312.94054 516.488465 
L 314.210309 499.076154 
L 314.845194 501.815313 
L 315.480078 519.47073 
L 316.114963 503.55373 
L 316.749847 514.084991 
L 317.384732 506.238638 
L 318.019616 507.144503 
L 318.654501 510.335354 
L 319.289385 510.734094 
L 320.559154 514.605293 
L 321.194039 512.23275 
L 321.828923 508.993719 
L 322.463808 511.686511 
L 323.098692 523.438824 
L 323.733577 511.987047 
L 324.368461 514.736814 
L 325.003346 503.993213 
L 325.63823 521.266315 
L 326.273115 515.757453 
L 326.907999 513.839229 
L 327.542884 516.744127 
L 328.177768 511.53233 
L 328.812653 514.803922 
L 329.447537 520.691064 
L 330.082422 513.933419 
L 330.717306 519.889531 
L 331.352191 514.243991 
L 331.987075 505.813253 
L 332.62196 515.476116 
L 333.256844 503.370722 
L 333.891729 516.581288 
L 334.526614 513.104349 
L 335.161498 515.809115 
L 335.796383 515.106213 
L 336.431267 474.014732 
L 337.066152 506.342825 
L 337.701036 519.546942 
L 338.335921 508.646253 
L 338.970805 501.375694 
L 339.60569 516.348374 
L 340.240574 497.306002 
L 340.875459 514.8474 
L 341.510343 512.537892 
L 342.145228 513.75334 
L 342.780112 523.541081 
L 344.049881 512.279457 
L 344.684766 512.565643 
L 345.31965 496.603284 
L 345.954535 509.903743 
L 346.589419 515.709476 
L 347.224304 520.476098 
L 347.859188 516.26419 
L 348.494073 487.273915 
L 349.128957 512.19923 
L 349.763842 519.558733 
L 350.398726 521.284176 
L 351.033611 505.934515 
L 351.668495 514.838877 
L 352.30338 505.984218 
L 352.938264 514.21337 
L 353.573149 515.425889 
L 354.208033 518.85745 
L 354.842918 527.491063 
L 355.477803 507.708778 
L 356.112687 520.466353 
L 356.747572 519.225559 
L 357.382456 519.455264 
L 358.017341 510.473235 
L 359.28711 524.05254 
L 359.921994 521.250161 
L 360.556879 509.756379 
L 361.191763 511.153283 
L 361.826648 516.383251 
L 362.461532 502.081001 
L 363.096417 511.536335 
L 363.731301 518.39167 
L 364.366186 495.385955 
L 365.00107 512.500503 
L 365.635955 519.025535 
L 366.905724 525.688748 
L 367.540608 517.562279 
L 368.175493 521.847297 
L 368.810377 518.978275 
L 369.445262 518.989998 
L 370.080146 517.094841 
L 370.715031 514.263073 
L 371.349915 524.249016 
L 371.9848 503.272334 
L 372.619684 517.650632 
L 373.254569 520.283607 
L 373.889453 520.647101 
L 374.524338 493.28517 
L 375.159222 511.609638 
L 375.794107 525.466761 
L 376.428991 513.896612 
L 377.063876 521.912485 
L 377.698761 519.984012 
L 378.333645 521.058398 
L 378.96853 520.457064 
L 379.603414 516.523876 
L 380.238299 516.521937 
L 380.873183 519.826961 
L 381.508068 507.963237 
L 382.142952 526.758829 
L 382.777837 501.209587 
L 383.412721 523.892833 
L 384.047606 519.260718 
L 384.68249 523.843353 
L 385.317375 513.340007 
L 385.952259 518.485006 
L 386.587144 513.742276 
L 387.222028 523.021554 
L 387.856913 526.169305 
L 388.491797 520.338333 
L 389.126682 511.980822 
L 389.761566 518.150659 
L 390.396451 519.180045 
L 391.031335 521.293523 
L 391.66622 525.967923 
L 392.301104 517.451441 
L 392.935989 517.292481 
L 393.570873 521.241657 
L 394.205758 507.00923 
L 394.840642 504.772329 
L 396.110411 529.380974 
L 396.745296 528.159262 
L 397.38018 528.151428 
L 398.015065 520.35919 
L 398.64995 525.041938 
L 399.284834 526.654856 
L 399.919719 525.144816 
L 400.554603 518.918585 
L 401.189488 524.614594 
L 401.824372 514.902329 
L 402.459257 525.850336 
L 403.094141 528.891515 
L 403.729026 521.330921 
L 404.36391 528.659871 
L 404.998795 524.83024 
L 405.633679 527.827717 
L 406.268564 528.170316 
L 406.903448 517.830992 
L 407.538333 533.655684 
L 408.173217 520.748311 
L 408.808102 512.712823 
L 409.442986 523.137629 
L 410.077871 526.216633 
L 410.712755 526.455849 
L 411.34764 528.663779 
L 411.982524 522.977388 
L 412.617409 520.285711 
L 413.252293 530.208541 
L 413.887178 529.748589 
L 415.156947 522.164733 
L 415.791831 529.740153 
L 416.426716 530.665905 
L 417.0616 518.189328 
L 417.696485 531.728675 
L 418.331369 507.362233 
L 418.966254 526.257386 
L 419.601138 528.614056 
L 420.236023 530.510396 
L 420.870908 520.875167 
L 421.505792 531.222073 
L 422.140677 520.845138 
L 422.775561 531.262439 
L 423.410446 518.499919 
L 424.04533 526.196348 
L 424.680215 518.266937 
L 425.315099 530.7647 
L 425.949984 527.388651 
L 426.584868 529.370269 
L 427.219753 526.505378 
L 427.854637 530.974043 
L 428.489522 525.997022 
L 429.124406 529.988271 
L 429.759291 537.121637 
L 430.394175 523.393465 
L 431.02906 530.178919 
L 431.663944 526.814903 
L 432.298829 532.879196 
L 432.933713 527.36857 
L 433.568598 527.296468 
L 434.203482 532.641366 
L 434.838367 530.971774 
L 436.108136 524.462993 
L 436.74302 529.006678 
L 437.377905 534.553249 
L 438.012789 533.134315 
L 438.647674 533.105905 
L 439.282558 516.062256 
L 439.917443 525.872492 
L 440.552327 529.661487 
L 441.187212 532.734082 
L 441.822097 528.764358 
L 442.456981 529.794151 
L 443.091866 524.972048 
L 443.72675 529.95126 
L 444.361635 531.886511 
L 444.996519 525.212069 
L 445.631404 535.004756 
L 446.266288 540.083568 
L 446.901173 534.065283 
L 447.536057 537.886644 
L 448.170942 531.378853 
L 448.805826 538.646338 
L 449.440711 527.804863 
L 450.075595 522.31777 
L 450.71048 534.016026 
L 451.345364 531.397896 
L 451.980249 533.008583 
L 452.615133 531.211281 
L 453.250018 536.549275 
L 453.884902 525.701576 
L 454.519787 536.000893 
L 455.154671 541.51117 
L 455.789556 533.114273 
L 456.42444 533.266795 
L 457.694209 537.828321 
L 458.329094 530.872726 
L 458.963978 538.55017 
L 459.598863 528.327376 
L 460.868632 540.024198 
L 461.503516 534.296229 
L 462.138401 539.167736 
L 462.773285 530.771604 
L 463.40817 536.702826 
L 464.043055 535.602075 
L 464.677939 534.150271 
L 465.312824 538.043578 
L 465.947708 539.472005 
L 466.582593 521.965019 
L 467.217477 532.53333 
L 467.852362 531.223043 
L 468.487246 532.390087 
L 469.122131 536.446107 
L 469.757015 530.153127 
L 470.3919 533.276084 
L 471.026784 529.66937 
L 471.661669 530.90517 
L 472.296553 536.562288 
L 472.931438 543.347151 
L 473.566322 537.209185 
L 474.201207 529.235791 
L 474.836091 531.106775 
L 475.470976 537.8641 
L 476.10586 542.280609 
L 476.740745 533.792498 
L 477.375629 532.26133 
L 478.010514 533.661172 
L 478.645398 532.508537 
L 479.280283 539.785514 
L 479.915167 544.859101 
L 480.550052 533.951876 
L 481.184936 538.463592 
L 481.819821 538.110066 
L 482.454705 536.593161 
L 483.08959 540.491849 
L 483.724474 539.068504 
L 484.359359 529.572252 
L 484.994244 542.814641 
L 485.629128 538.125056 
L 486.264013 536.462552 
L 486.898897 539.55421 
L 487.533782 541.852033 
L 488.168666 545.663164 
L 490.07332 529.275236 
L 490.708204 543.641054 
L 491.343089 530.421976 
L 491.977973 531.847638 
L 492.612858 535.255084 
L 493.247742 536.732778 
L 493.882627 532.323444 
L 494.517511 541.09105 
L 495.152396 532.511048 
L 495.78728 539.190502 
L 496.422165 528.42113 
L 497.057049 543.171609 
L 497.691934 538.397269 
L 498.326818 538.28136 
L 498.961703 535.40752 
L 499.596587 542.003082 
L 500.231472 541.839758 
L 500.866356 546.402224 
L 501.501241 534.886325 
L 502.136125 533.12967 
L 502.77101 533.359879 
L 503.405894 536.174136 
L 504.040779 535.258604 
L 504.675663 534.826538 
L 505.310548 536.482158 
L 505.945433 535.764895 
L 506.580317 532.305991 
L 507.215202 538.384257 
L 507.850086 533.504732 
L 508.484971 541.600938 
L 509.119855 545.196153 
L 509.75474 536.122581 
L 510.389624 536.599211 
L 511.024509 543.065328 
L 511.659393 548.301841 
L 512.294278 544.198105 
L 512.929162 534.924577 
L 513.564047 543.945062 
L 514.198931 531.161433 
L 514.833816 541.727087 
L 515.4687 542.06123 
L 516.103585 540.138042 
L 516.738469 542.118807 
L 517.373354 537.14037 
L 518.008238 540.76765 
L 518.643123 537.3795 
L 519.278007 540.664685 
L 519.912892 540.111707 
L 520.547776 551.518125 
L 521.182661 538.331878 
L 521.817545 539.268606 
L 522.45243 544.142982 
L 523.087314 543.16616 
L 523.722199 539.271621 
L 524.357083 542.521309 
L 524.991968 539.175531 
L 525.626852 542.94746 
L 526.261737 545.714438 
L 526.896621 538.109872 
L 527.531506 545.632485 
L 528.166391 538.057764 
L 528.801275 538.708597 
L 529.43616 539.763446 
L 530.071044 530.674117 
L 530.705929 544.275802 
L 531.340813 545.13909 
L 531.975698 529.979282 
L 532.610582 543.753415 
L 533.245467 543.551383 
L 533.880351 544.15039 
L 534.515236 545.779772 
L 535.15012 542.775623 
L 535.785005 542.256901 
L 536.419889 543.914489 
L 537.054774 547.087586 
L 537.689658 540.75903 
L 538.324543 540.82544 
L 538.959427 539.915163 
L 539.594312 544.782277 
L 540.229196 548.666528 
L 540.864081 542.131441 
L 541.498965 547.335365 
L 542.768734 540.369191 
L 544.038503 544.480829 
L 544.673388 538.409574 
L 545.308272 537.159414 
L 545.943157 545.327208 
L 546.578041 542.296782 
L 547.212926 548.11989 
L 548.482695 536.563965 
L 549.11758 534.319122 
L 549.752464 543.449718 
L 550.387349 545.593409 
L 551.022233 546.377964 
L 551.657118 547.57112 
L 552.292002 543.975421 
L 552.926887 547.216382 
L 553.561771 543.462313 
L 554.196656 544.558516 
L 554.83154 538.960924 
L 556.101309 550.826839 
L 557.371078 541.309672 
L 558.005963 548.354725 
L 558.640847 548.383144 
L 559.275732 545.361998 
L 559.910616 548.287161 
L 560.545501 544.532191 
L 561.180385 544.731856 
L 561.81527 536.870785 
L 562.450154 547.513388 
L 563.085039 540.75841 
L 563.719923 546.391384 
L 564.354808 547.122512 
L 565.624577 534.443894 
L 566.259461 539.433869 
L 566.894346 547.508947 
L 567.52923 545.000744 
L 568.164115 543.907149 
L 568.798999 545.185652 
L 569.433884 544.999406 
L 570.068768 549.411716 
L 570.703653 550.790604 
L 571.338538 548.021531 
L 571.973422 543.117465 
L 572.608307 542.439162 
L 573.243191 531.907474 
L 573.878076 545.183218 
L 574.51296 546.825127 
L 575.147845 542.996349 
L 575.782729 545.760583 
L 576.417614 539.120495 
L 576.417614 539.120495 
" clip-path="url(#p7544cc81c1)" style="fill: none; stroke: #ff7f0e; stroke-width: 1.5; stroke-linecap: square"/>
   </g>
   <g id="patch_3">
    <path d="M 43.78125 576.718125 
L 43.78125 22.318125 
" style="fill: none; stroke: #000000; stroke-width: 0.8; stroke-linejoin: miter; stroke-linecap: square"/>
   </g>
   <g id="patch_4">
    <path d="M 601.78125 576.718125 
L 601.78125 22.318125 
" style="fill: none; stroke: #000000; stroke-width: 0.8; stroke-linejoin: miter; stroke-linecap: square"/>
   </g>
   <g id="patch_5">
    <path d="M 43.78125 576.718125 
L 601.78125 576.718125 
" style="fill: none; stroke: #000000; stroke-width: 0.8; stroke-linejoin: miter; stroke-linecap: square"/>
   </g>
   <g id="patch_6">
    <path d="M 43.78125 22.318125 
L 601.78125 22.318125 
" style="fill: none; stroke: #000000; stroke-width: 0.8; stroke-linejoin: miter; stroke-linecap: square"/>
   </g>
   <g id="text_19">
    <!-- Train and Val Loss -->
    <g transform="translate(269.235937 16.318125) scale(0.12 -0.12)">
     <defs>
      <path id="DejaVuSans-54" d="M -19 4666 
L 3928 4666 
L 3928 4134 
L 2272 4134 
L 2272 0 
L 1638 0 
L 1638 4134 
L -19 4134 
L -19 4666 
z
" transform="scale(0.015625)"/>
      <path id="DejaVuSans-72" d="M 2631 2963 
Q 2534 3019 2420 3045 
Q 2306 3072 2169 3072 
Q 1681 3072 1420 2755 
Q 1159 2438 1159 1844 
L 1159 0 
L 581 0 
L 581 3500 
L 1159 3500 
L 1159 2956 
Q 1341 3275 1631 3429 
Q 1922 3584 2338 3584 
Q 2397 3584 2469 3576 
Q 2541 3569 2628 3553 
L 2631 2963 
z
" transform="scale(0.015625)"/>
      <path id="DejaVuSans-61" d="M 2194 1759 
Q 1497 1759 1228 1600 
Q 959 1441 959 1056 
Q 959 750 1161 570 
Q 1363 391 1709 391 
Q 2188 391 2477 730 
Q 2766 1069 2766 1631 
L 2766 1759 
L 2194 1759 
z
M 3341 1997 
L 3341 0 
L 2766 0 
L 2766 531 
Q 2569 213 2275 61 
Q 1981 -91 1556 -91 
Q 1019 -91 701 211 
Q 384 513 384 1019 
Q 384 1609 779 1909 
Q 1175 2209 1959 2209 
L 2766 2209 
L 2766 2266 
Q 2766 2663 2505 2880 
Q 2244 3097 1772 3097 
Q 1472 3097 1187 3025 
Q 903 2953 641 2809 
L 641 3341 
Q 956 3463 1253 3523 
Q 1550 3584 1831 3584 
Q 2591 3584 2966 3190 
Q 3341 2797 3341 1997 
z
" transform="scale(0.015625)"/>
      <path id="DejaVuSans-69" d="M 603 3500 
L 1178 3500 
L 1178 0 
L 603 0 
L 603 3500 
z
M 603 4863 
L 1178 4863 
L 1178 4134 
L 603 4134 
L 603 4863 
z
" transform="scale(0.015625)"/>
      <path id="DejaVuSans-6e" d="M 3513 2113 
L 3513 0 
L 2938 0 
L 2938 2094 
Q 2938 2591 2744 2837 
Q 2550 3084 2163 3084 
Q 1697 3084 1428 2787 
Q 1159 2491 1159 1978 
L 1159 0 
L 581 0 
L 581 3500 
L 1159 3500 
L 1159 2956 
Q 1366 3272 1645 3428 
Q 1925 3584 2291 3584 
Q 2894 3584 3203 3211 
Q 3513 2838 3513 2113 
z
" transform="scale(0.015625)"/>
      <path id="DejaVuSans-20" transform="scale(0.015625)"/>
      <path id="DejaVuSans-64" d="M 2906 2969 
L 2906 4863 
L 3481 4863 
L 3481 0 
L 2906 0 
L 2906 525 
Q 2725 213 2448 61 
Q 2172 -91 1784 -91 
Q 1150 -91 751 415 
Q 353 922 353 1747 
Q 353 2572 751 3078 
Q 1150 3584 1784 3584 
Q 2172 3584 2448 3432 
Q 2725 3281 2906 2969 
z
M 947 1747 
Q 947 1113 1208 752 
Q 1469 391 1925 391 
Q 2381 391 2643 752 
Q 2906 1113 2906 1747 
Q 2906 2381 2643 2742 
Q 2381 3103 1925 3103 
Q 1469 3103 1208 2742 
Q 947 2381 947 1747 
z
" transform="scale(0.015625)"/>
      <path id="DejaVuSans-56" d="M 1831 0 
L 50 4666 
L 709 4666 
L 2188 738 
L 3669 4666 
L 4325 4666 
L 2547 0 
L 1831 0 
z
" transform="scale(0.015625)"/>
      <path id="DejaVuSans-6c" d="M 603 4863 
L 1178 4863 
L 1178 0 
L 603 0 
L 603 4863 
z
" transform="scale(0.015625)"/>
     </defs>
     <use xlink:href="#DejaVuSans-54"/>
     <use xlink:href="#DejaVuSans-72" transform="translate(46.333984 0)"/>
     <use xlink:href="#DejaVuSans-61" transform="translate(87.447266 0)"/>
     <use xlink:href="#DejaVuSans-69" transform="translate(148.726562 0)"/>
     <use xlink:href="#DejaVuSans-6e" transform="translate(176.509766 0)"/>
     <use xlink:href="#DejaVuSans-20" transform="translate(239.888672 0)"/>
     <use xlink:href="#DejaVuSans-61" transform="translate(271.675781 0)"/>
     <use xlink:href="#DejaVuSans-6e" transform="translate(332.955078 0)"/>
     <use xlink:href="#DejaVuSans-64" transform="translate(396.333984 0)"/>
     <use xlink:href="#DejaVuSans-20" transform="translate(459.810547 0)"/>
     <use xlink:href="#DejaVuSans-56" transform="translate(491.597656 0)"/>
     <use xlink:href="#DejaVuSans-61" transform="translate(552.255859 0)"/>
     <use xlink:href="#DejaVuSans-6c" transform="translate(613.535156 0)"/>
     <use xlink:href="#DejaVuSans-20" transform="translate(641.318359 0)"/>
     <use xlink:href="#DejaVuSans-4c" transform="translate(673.105469 0)"/>
     <use xlink:href="#DejaVuSans-6f" transform="translate(727.068359 0)"/>
     <use xlink:href="#DejaVuSans-73" transform="translate(788.25 0)"/>
     <use xlink:href="#DejaVuSans-73" transform="translate(840.349609 0)"/>
    </g>
   </g>
   <g id="legend_1">
    <g id="patch_7">
     <path d="M 515.190625 60.230625 
L 594.78125 60.230625 
Q 596.78125 60.230625 596.78125 58.230625 
L 596.78125 29.318125 
Q 596.78125 27.318125 594.78125 27.318125 
L 515.190625 27.318125 
Q 513.190625 27.318125 513.190625 29.318125 
L 513.190625 58.230625 
Q 513.190625 60.230625 515.190625 60.230625 
z
" style="fill: #ffffff; opacity: 0.8; stroke: #cccccc; stroke-linejoin: miter"/>
    </g>
    <g id="line2d_35">
     <path d="M 517.190625 35.416563 
L 527.190625 35.416563 
L 537.190625 35.416563 
" style="fill: none; stroke: #1f77b4; stroke-width: 1.5; stroke-linecap: square"/>
    </g>
    <g id="text_20">
     <!-- train_loss -->
     <g transform="translate(545.190625 38.916563) scale(0.1 -0.1)">
      <defs>
       <path id="DejaVuSans-74" d="M 1172 4494 
L 1172 3500 
L 2356 3500 
L 2356 3053 
L 1172 3053 
L 1172 1153 
Q 1172 725 1289 603 
Q 1406 481 1766 481 
L 2356 481 
L 2356 0 
L 1766 0 
Q 1100 0 847 248 
Q 594 497 594 1153 
L 594 3053 
L 172 3053 
L 172 3500 
L 594 3500 
L 594 4494 
L 1172 4494 
z
" transform="scale(0.015625)"/>
       <path id="DejaVuSans-5f" d="M 3263 -1063 
L 3263 -1509 
L -63 -1509 
L -63 -1063 
L 3263 -1063 
z
" transform="scale(0.015625)"/>
      </defs>
      <use xlink:href="#DejaVuSans-74"/>
      <use xlink:href="#DejaVuSans-72" transform="translate(39.208984 0)"/>
      <use xlink:href="#DejaVuSans-61" transform="translate(80.322266 0)"/>
      <use xlink:href="#DejaVuSans-69" transform="translate(141.601562 0)"/>
      <use xlink:href="#DejaVuSans-6e" transform="translate(169.384766 0)"/>
      <use xlink:href="#DejaVuSans-5f" transform="translate(232.763672 0)"/>
      <use xlink:href="#DejaVuSans-6c" transform="translate(282.763672 0)"/>
      <use xlink:href="#DejaVuSans-6f" transform="translate(310.546875 0)"/>
      <use xlink:href="#DejaVuSans-73" transform="translate(371.728516 0)"/>
      <use xlink:href="#DejaVuSans-73" transform="translate(423.828125 0)"/>
     </g>
    </g>
    <g id="line2d_36">
     <path d="M 517.190625 50.372813 
L 527.190625 50.372813 
L 537.190625 50.372813 
" style="fill: none; stroke: #ff7f0e; stroke-width: 1.5; stroke-linecap: square"/>
    </g>
    <g id="text_21">
     <!-- val_loss -->
     <g transform="translate(545.190625 53.872813) scale(0.1 -0.1)">
      <defs>
       <path id="DejaVuSans-76" d="M 191 3500 
L 800 3500 
L 1894 563 
L 2988 3500 
L 3597 3500 
L 2284 0 
L 1503 0 
L 191 3500 
z
" transform="scale(0.015625)"/>
      </defs>
      <use xlink:href="#DejaVuSans-76"/>
      <use xlink:href="#DejaVuSans-61" transform="translate(59.179688 0)"/>
      <use xlink:href="#DejaVuSans-6c" transform="translate(120.458984 0)"/>
      <use xlink:href="#DejaVuSans-5f" transform="translate(148.242188 0)"/>
      <use xlink:href="#DejaVuSans-6c" transform="translate(198.242188 0)"/>
      <use xlink:href="#DejaVuSans-6f" transform="translate(226.025391 0)"/>
      <use xlink:href="#DejaVuSans-73" transform="translate(287.207031 0)"/>
      <use xlink:href="#DejaVuSans-73" transform="translate(339.306641 0)"/>
     </g>
    </g>
   </g>
  </g>
 </g>
 <defs>
  <clipPath id="p7544cc81c1">
   <rect x="43.78125" y="22.318125" width="558" height="554.4"/>
  </clipPath>
 </defs>
</svg>
