<?xml version="1.0" encoding="utf-8" standalone="no"?>
<!DOCTYPE svg PUBLIC "-//W3C//DTD SVG 1.1//EN"
  "http://www.w3.org/Graphics/SVG/1.1/DTD/svg11.dtd">
<svg xmlns:xlink="http://www.w3.org/1999/xlink" width="608.98125pt" height="614.274375pt" viewBox="0 0 608.98125 614.274375" xmlns="http://www.w3.org/2000/svg" version="1.1">
 <metadata>
  <rdf:RDF xmlns:dc="http://purl.org/dc/elements/1.1/" xmlns:cc="http://creativecommons.org/ns#" xmlns:rdf="http://www.w3.org/1999/02/22-rdf-syntax-ns#">
   <cc:Work>
    <dc:type rdf:resource="http://purl.org/dc/dcmitype/StillImage"/>
    <dc:date>2026-05-31T10:54:22.210081</dc:date>
    <dc:format>image/svg+xml</dc:format>
    <dc:creator>
     <cc:Agent>
      <dc:title>Matplotlib v3.10.9, https://matplotlib.org/</dc:title>
     </cc:Agent>
    </dc:creator>
   </cc:Work>
  </rdf:RDF>
 </metadata>
 <defs>
  <style type="text/css">*{stroke-linejoin: round; stroke-linecap: butt}</style>
 </defs>
 <g id="figure_1">
  <g id="patch_1">
   <path d="M 0 614.274375 
L 608.98125 614.274375 
L 608.98125 0 
L 0 0 
z
" style="fill: #ffffff"/>
  </g>
  <g id="axes_1">
   <g id="patch_2">
    <path d="M 43.78125 576.718125 
L 601.78125 576.718125 
L 601.78125 22.318125 
L 43.78125 22.318125 
z
" style="fill: #ffffff"/>
   </g>
   <g id="matplotlib.axis_1">
    <g id="xtick_1">
     <g id="line2d_1">
      <path d="M 69.144886 576.718125 
L 69.144886 22.318125 
" clip-path="url(#p7bdd234d4e)" style="fill: none; stroke: #b0b0b0; stroke-width: 0.8; stroke-linecap: square"/>
     </g>
     <g id="line2d_2">
      <defs>
       <path id="m92d9f63689" d="M 0 0 
L 0 3.5 
" style="stroke: #000000; stroke-width: 0.8"/>
      </defs>
      <g>
       <use xlink:href="#m92d9f63689" x="69.144886" y="576.718125" style="stroke: #000000; stroke-width: 0.8"/>
      </g>
     </g>
     <g id="text_1">
      <!-- 0 -->
      <g transform="translate(65.963636 591.316563) scale(0.1 -0.1)">
       <defs>
        <path id="DejaVuSans-30" d="M 2034 4250 
Q 1547 4250 1301 3770 
Q 1056 3291 1056 2328 
Q 1056 1369 1301 889 
Q 1547 409 2034 409 
Q 2525 409 2770 889 
Q 3016 1369 3016 2328 
Q 3016 3291 2770 3770 
Q 2525 4250 2034 4250 
z
M 2034 4750 
Q 2819 4750 3233 4129 
Q 3647 3509 3647 2328 
Q 3647 1150 3233 529 
Q 2819 -91 2034 -91 
Q 1250 -91 836 529 
Q 422 1150 422 2328 
Q 422 3509 836 4129 
Q 1250 4750 2034 4750 
z
" transform="scale(0.015625)"/>
       </defs>
       <use xlink:href="#DejaVuSans-30"/>
      </g>
     </g>
    </g>
    <g id="xtick_2">
     <g id="line2d_3">
      <path d="M 132.633338 576.718125 
L 132.633338 22.318125 
" clip-path="url(#p7bdd234d4e)" style="fill: none; stroke: #b0b0b0; stroke-width: 0.8; stroke-linecap: square"/>
     </g>
     <g id="line2d_4">
      <g>
       <use xlink:href="#m92d9f63689" x="132.633338" y="576.718125" style="stroke: #000000; stroke-width: 0.8"/>
      </g>
     </g>
     <g id="text_2">
      <!-- 100 -->
      <g transform="translate(123.089588 591.316563) scale(0.1 -0.1)">
       <defs>
        <path id="DejaVuSans-31" d="M 794 531 
L 1825 531 
L 1825 4091 
L 703 3866 
L 703 4441 
L 1819 4666 
L 2450 4666 
L 2450 531 
L 3481 531 
L 3481 0 
L 794 0 
L 794 531 
z
" transform="scale(0.015625)"/>
       </defs>
       <use xlink:href="#DejaVuSans-31"/>
       <use xlink:href="#DejaVuSans-30" transform="translate(63.623047 0)"/>
       <use xlink:href="#DejaVuSans-30" transform="translate(127.246094 0)"/>
      </g>
     </g>
    </g>
    <g id="xtick_3">
     <g id="line2d_5">
      <path d="M 196.121789 576.718125 
L 196.121789 22.318125 
" clip-path="url(#p7bdd234d4e)" style="fill: none; stroke: #b0b0b0; stroke-width: 0.8; stroke-linecap: square"/>
     </g>
     <g id="line2d_6">
      <g>
       <use xlink:href="#m92d9f63689" x="196.121789" y="576.718125" style="stroke: #000000; stroke-width: 0.8"/>
      </g>
     </g>
     <g id="text_3">
      <!-- 200 -->
      <g transform="translate(186.578039 591.316563) scale(0.1 -0.1)">
       <defs>
        <path id="DejaVuSans-32" d="M 1228 531 
L 3431 531 
L 3431 0 
L 469 0 
L 469 531 
Q 828 903 1448 1529 
Q 2069 2156 2228 2338 
Q 2531 2678 2651 2914 
Q 2772 3150 2772 3378 
Q 2772 3750 2511 3984 
Q 2250 4219 1831 4219 
Q 1534 4219 1204 4116 
Q 875 4013 500 3803 
L 500 4441 
Q 881 4594 1212 4672 
Q 1544 4750 1819 4750 
Q 2544 4750 2975 4387 
Q 3406 4025 3406 3419 
Q 3406 3131 3298 2873 
Q 3191 2616 2906 2266 
Q 2828 2175 2409 1742 
Q 1991 1309 1228 531 
z
" transform="scale(0.015625)"/>
       </defs>
       <use xlink:href="#DejaVuSans-32"/>
       <use xlink:href="#DejaVuSans-30" transform="translate(63.623047 0)"/>
       <use xlink:href="#DejaVuSans-30" transform="translate(127.246094 0)"/>
      </g>
     </g>
    </g>
    <g id="xtick_4">
     <g id="line2d_7">
      <path d="M 259.610241 576.718125 
L 259.610241 22.318125 
" clip-path="url(#p7bdd234d4e)" style="fill: none; stroke: #b0b0b0; stroke-width: 0.8; stroke-linecap: square"/>
     </g>
     <g id="line2d_8">
      <g>
       <use xlink:href="#m92d9f63689" x="259.610241" y="576.718125" style="stroke: #000000; stroke-width: 0.8"/>
      </g>
     </g>
     <g id="text_4">
      <!-- 300 -->
      <g transform="translate(250.066491 591.316563) scale(0.1 -0.1)">
       <defs>
        <path id="DejaVuSans-33" d="M 2597 2516 
Q 3050 2419 3304 2112 
Q 3559 1806 3559 1356 
Q 3559 666 3084 287 
Q 2609 -91 1734 -91 
Q 1441 -91 1130 -33 
Q 819 25 488 141 
L 488 750 
Q 750 597 1062 519 
Q 1375 441 1716 441 
Q 2309 441 2620 675 
Q 2931 909 2931 1356 
Q 2931 1769 2642 2001 
Q 2353 2234 1838 2234 
L 1294 2234 
L 1294 2753 
L 1863 2753 
Q 2328 2753 2575 2939 
Q 2822 3125 2822 3475 
Q 2822 3834 2567 4026 
Q 2313 4219 1838 4219 
Q 1578 4219 1281 4162 
Q 984 4106 628 3988 
L 628 4550 
Q 988 4650 1302 4700 
Q 1616 4750 1894 4750 
Q 2613 4750 3031 4423 
Q 3450 4097 3450 3541 
Q 3450 3153 3228 2886 
Q 3006 2619 2597 2516 
z
" transform="scale(0.015625)"/>
       </defs>
       <use xlink:href="#DejaVuSans-33"/>
       <use xlink:href="#DejaVuSans-30" transform="translate(63.623047 0)"/>
       <use xlink:href="#DejaVuSans-30" transform="translate(127.246094 0)"/>
      </g>
     </g>
    </g>
    <g id="xtick_5">
     <g id="line2d_9">
      <path d="M 323.098692 576.718125 
L 323.098692 22.318125 
" clip-path="url(#p7bdd234d4e)" style="fill: none; stroke: #b0b0b0; stroke-width: 0.8; stroke-linecap: square"/>
     </g>
     <g id="line2d_10">
      <g>
       <use xlink:href="#m92d9f63689" x="323.098692" y="576.718125" style="stroke: #000000; stroke-width: 0.8"/>
      </g>
     </g>
     <g id="text_5">
      <!-- 400 -->
      <g transform="translate(313.554942 591.316563) scale(0.1 -0.1)">
       <defs>
        <path id="DejaVuSans-34" d="M 2419 4116 
L 825 1625 
L 2419 1625 
L 2419 4116 
z
M 2253 4666 
L 3047 4666 
L 3047 1625 
L 3713 1625 
L 3713 1100 
L 3047 1100 
L 3047 0 
L 2419 0 
L 2419 1100 
L 313 1100 
L 313 1709 
L 2253 4666 
z
" transform="scale(0.015625)"/>
       </defs>
       <use xlink:href="#DejaVuSans-34"/>
       <use xlink:href="#DejaVuSans-30" transform="translate(63.623047 0)"/>
       <use xlink:href="#DejaVuSans-30" transform="translate(127.246094 0)"/>
      </g>
     </g>
    </g>
    <g id="xtick_6">
     <g id="line2d_11">
      <path d="M 386.587144 576.718125 
L 386.587144 22.318125 
" clip-path="url(#p7bdd234d4e)" style="fill: none; stroke: #b0b0b0; stroke-width: 0.8; stroke-linecap: square"/>
     </g>
     <g id="line2d_12">
      <g>
       <use xlink:href="#m92d9f63689" x="386.587144" y="576.718125" style="stroke: #000000; stroke-width: 0.8"/>
      </g>
     </g>
     <g id="text_6">
      <!-- 500 -->
      <g transform="translate(377.043394 591.316563) scale(0.1 -0.1)">
       <defs>
        <path id="DejaVuSans-35" d="M 691 4666 
L 3169 4666 
L 3169 4134 
L 1269 4134 
L 1269 2991 
Q 1406 3038 1543 3061 
Q 1681 3084 1819 3084 
Q 2600 3084 3056 2656 
Q 3513 2228 3513 1497 
Q 3513 744 3044 326 
Q 2575 -91 1722 -91 
Q 1428 -91 1123 -41 
Q 819 9 494 109 
L 494 744 
Q 775 591 1075 516 
Q 1375 441 1709 441 
Q 2250 441 2565 725 
Q 2881 1009 2881 1497 
Q 2881 1984 2565 2268 
Q 2250 2553 1709 2553 
Q 1456 2553 1204 2497 
Q 953 2441 691 2322 
L 691 4666 
z
" transform="scale(0.015625)"/>
       </defs>
       <use xlink:href="#DejaVuSans-35"/>
       <use xlink:href="#DejaVuSans-30" transform="translate(63.623047 0)"/>
       <use xlink:href="#DejaVuSans-30" transform="translate(127.246094 0)"/>
      </g>
     </g>
    </g>
    <g id="xtick_7">
     <g id="line2d_13">
      <path d="M 450.075595 576.718125 
L 450.075595 22.318125 
" clip-path="url(#p7bdd234d4e)" style="fill: none; stroke: #b0b0b0; stroke-width: 0.8; stroke-linecap: square"/>
     </g>
     <g id="line2d_14">
      <g>
       <use xlink:href="#m92d9f63689" x="450.075595" y="576.718125" style="stroke: #000000; stroke-width: 0.8"/>
      </g>
     </g>
     <g id="text_7">
      <!-- 600 -->
      <g transform="translate(440.531845 591.316563) scale(0.1 -0.1)">
       <defs>
        <path id="DejaVuSans-36" d="M 2113 2584 
Q 1688 2584 1439 2293 
Q 1191 2003 1191 1497 
Q 1191 994 1439 701 
Q 1688 409 2113 409 
Q 2538 409 2786 701 
Q 3034 994 3034 1497 
Q 3034 2003 2786 2293 
Q 2538 2584 2113 2584 
z
M 3366 4563 
L 3366 3988 
Q 3128 4100 2886 4159 
Q 2644 4219 2406 4219 
Q 1781 4219 1451 3797 
Q 1122 3375 1075 2522 
Q 1259 2794 1537 2939 
Q 1816 3084 2150 3084 
Q 2853 3084 3261 2657 
Q 3669 2231 3669 1497 
Q 3669 778 3244 343 
Q 2819 -91 2113 -91 
Q 1303 -91 875 529 
Q 447 1150 447 2328 
Q 447 3434 972 4092 
Q 1497 4750 2381 4750 
Q 2619 4750 2861 4703 
Q 3103 4656 3366 4563 
z
" transform="scale(0.015625)"/>
       </defs>
       <use xlink:href="#DejaVuSans-36"/>
       <use xlink:href="#DejaVuSans-30" transform="translate(63.623047 0)"/>
       <use xlink:href="#DejaVuSans-30" transform="translate(127.246094 0)"/>
      </g>
     </g>
    </g>
    <g id="xtick_8">
     <g id="line2d_15">
      <path d="M 513.564047 576.718125 
L 513.564047 22.318125 
" clip-path="url(#p7bdd234d4e)" style="fill: none; stroke: #b0b0b0; stroke-width: 0.8; stroke-linecap: square"/>
     </g>
     <g id="line2d_16">
      <g>
       <use xlink:href="#m92d9f63689" x="513.564047" y="576.718125" style="stroke: #000000; stroke-width: 0.8"/>
      </g>
     </g>
     <g id="text_8">
      <!-- 700 -->
      <g transform="translate(504.020297 591.316563) scale(0.1 -0.1)">
       <defs>
        <path id="DejaVuSans-37" d="M 525 4666 
L 3525 4666 
L 3525 4397 
L 1831 0 
L 1172 0 
L 2766 4134 
L 525 4134 
L 525 4666 
z
" transform="scale(0.015625)"/>
       </defs>
       <use xlink:href="#DejaVuSans-37"/>
       <use xlink:href="#DejaVuSans-30" transform="translate(63.623047 0)"/>
       <use xlink:href="#DejaVuSans-30" transform="translate(127.246094 0)"/>
      </g>
     </g>
    </g>
    <g id="xtick_9">
     <g id="line2d_17">
      <path d="M 577.052498 576.718125 
L 577.052498 22.318125 
" clip-path="url(#p7bdd234d4e)" style="fill: none; stroke: #b0b0b0; stroke-width: 0.8; stroke-linecap: square"/>
     </g>
     <g id="line2d_18">
      <g>
       <use xlink:href="#m92d9f63689" x="577.052498" y="576.718125" style="stroke: #000000; stroke-width: 0.8"/>
      </g>
     </g>
     <g id="text_9">
      <!-- 800 -->
      <g transform="translate(567.508748 591.316563) scale(0.1 -0.1)">
       <defs>
        <path id="DejaVuSans-38" d="M 2034 2216 
Q 1584 2216 1326 1975 
Q 1069 1734 1069 1313 
Q 1069 891 1326 650 
Q 1584 409 2034 409 
Q 2484 409 2743 651 
Q 3003 894 3003 1313 
Q 3003 1734 2745 1975 
Q 2488 2216 2034 2216 
z
M 1403 2484 
Q 997 2584 770 2862 
Q 544 3141 544 3541 
Q 544 4100 942 4425 
Q 1341 4750 2034 4750 
Q 2731 4750 3128 4425 
Q 3525 4100 3525 3541 
Q 3525 3141 3298 2862 
Q 3072 2584 2669 2484 
Q 3125 2378 3379 2068 
Q 3634 1759 3634 1313 
Q 3634 634 3220 271 
Q 2806 -91 2034 -91 
Q 1263 -91 848 271 
Q 434 634 434 1313 
Q 434 1759 690 2068 
Q 947 2378 1403 2484 
z
M 1172 3481 
Q 1172 3119 1398 2916 
Q 1625 2713 2034 2713 
Q 2441 2713 2670 2916 
Q 2900 3119 2900 3481 
Q 2900 3844 2670 4047 
Q 2441 4250 2034 4250 
Q 1625 4250 1398 4047 
Q 1172 3844 1172 3481 
z
" transform="scale(0.015625)"/>
       </defs>
       <use xlink:href="#DejaVuSans-38"/>
       <use xlink:href="#DejaVuSans-30" transform="translate(63.623047 0)"/>
       <use xlink:href="#DejaVuSans-30" transform="translate(127.246094 0)"/>
      </g>
     </g>
    </g>
    <g id="text_10">
     <!-- Epochs -->
     <g transform="translate(304.865625 604.994688) scale(0.1 -0.1)">
      <defs>
       <path id="DejaVuSans-45" d="M 628 4666 
L 3578 4666 
L 3578 4134 
L 1259 4134 
L 1259 2753 
L 3481 2753 
L 3481 2222 
L 1259 2222 
L 1259 531 
L 3634 531 
L 3634 0 
L 628 0 
L 628 4666 
z
" transform="scale(0.015625)"/>
       <path id="DejaVuSans-70" d="M 1159 525 
L 1159 -1331 
L 581 -1331 
L 581 3500 
L 1159 3500 
L 1159 2969 
Q 1341 3281 1617 3432 
Q 1894 3584 2278 3584 
Q 2916 3584 3314 3078 
Q 3713 2572 3713 1747 
Q 3713 922 3314 415 
Q 2916 -91 2278 -91 
Q 1894 -91 1617 61 
Q 1341 213 1159 525 
z
M 3116 1747 
Q 3116 2381 2855 2742 
Q 2594 3103 2138 3103 
Q 1681 3103 1420 2742 
Q 1159 2381 1159 1747 
Q 1159 1113 1420 752 
Q 1681 391 2138 391 
Q 2594 391 2855 752 
Q 3116 1113 3116 1747 
z
" transform="scale(0.015625)"/>
       <path id="DejaVuSans-6f" d="M 1959 3097 
Q 1497 3097 1228 2736 
Q 959 2375 959 1747 
Q 959 1119 1226 758 
Q 1494 397 1959 397 
Q 2419 397 2687 759 
Q 2956 1122 2956 1747 
Q 2956 2369 2687 2733 
Q 2419 3097 1959 3097 
z
M 1959 3584 
Q 2709 3584 3137 3096 
Q 3566 2609 3566 1747 
Q 3566 888 3137 398 
Q 2709 -91 1959 -91 
Q 1206 -91 779 398 
Q 353 888 353 1747 
Q 353 2609 779 3096 
Q 1206 3584 1959 3584 
z
" transform="scale(0.015625)"/>
       <path id="DejaVuSans-63" d="M 3122 3366 
L 3122 2828 
Q 2878 2963 2633 3030 
Q 2388 3097 2138 3097 
Q 1578 3097 1268 2742 
Q 959 2388 959 1747 
Q 959 1106 1268 751 
Q 1578 397 2138 397 
Q 2388 397 2633 464 
Q 2878 531 3122 666 
L 3122 134 
Q 2881 22 2623 -34 
Q 2366 -91 2075 -91 
Q 1284 -91 818 406 
Q 353 903 353 1747 
Q 353 2603 823 3093 
Q 1294 3584 2113 3584 
Q 2378 3584 2631 3529 
Q 2884 3475 3122 3366 
z
" transform="scale(0.015625)"/>
       <path id="DejaVuSans-68" d="M 3513 2113 
L 3513 0 
L 2938 0 
L 2938 2094 
Q 2938 2591 2744 2837 
Q 2550 3084 2163 3084 
Q 1697 3084 1428 2787 
Q 1159 2491 1159 1978 
L 1159 0 
L 581 0 
L 581 4863 
L 1159 4863 
L 1159 2956 
Q 1366 3272 1645 3428 
Q 1925 3584 2291 3584 
Q 2894 3584 3203 3211 
Q 3513 2838 3513 2113 
z
" transform="scale(0.015625)"/>
       <path id="DejaVuSans-73" d="M 2834 3397 
L 2834 2853 
Q 2591 2978 2328 3040 
Q 2066 3103 1784 3103 
Q 1356 3103 1142 2972 
Q 928 2841 928 2578 
Q 928 2378 1081 2264 
Q 1234 2150 1697 2047 
L 1894 2003 
Q 2506 1872 2764 1633 
Q 3022 1394 3022 966 
Q 3022 478 2636 193 
Q 2250 -91 1575 -91 
Q 1294 -91 989 -36 
Q 684 19 347 128 
L 347 722 
Q 666 556 975 473 
Q 1284 391 1588 391 
Q 1994 391 2212 530 
Q 2431 669 2431 922 
Q 2431 1156 2273 1281 
Q 2116 1406 1581 1522 
L 1381 1569 
Q 847 1681 609 1914 
Q 372 2147 372 2553 
Q 372 3047 722 3315 
Q 1072 3584 1716 3584 
Q 2034 3584 2315 3537 
Q 2597 3491 2834 3397 
z
" transform="scale(0.015625)"/>
      </defs>
      <use xlink:href="#DejaVuSans-45"/>
      <use xlink:href="#DejaVuSans-70" transform="translate(63.183594 0)"/>
      <use xlink:href="#DejaVuSans-6f" transform="translate(126.660156 0)"/>
      <use xlink:href="#DejaVuSans-63" transform="translate(187.841797 0)"/>
      <use xlink:href="#DejaVuSans-68" transform="translate(242.822266 0)"/>
      <use xlink:href="#DejaVuSans-73" transform="translate(306.201172 0)"/>
     </g>
    </g>
   </g>
   <g id="matplotlib.axis_2">
    <g id="ytick_1">
     <g id="line2d_19">
      <path d="M 43.78125 554.031069 
L 601.78125 554.031069 
" clip-path="url(#p7bdd234d4e)" style="fill: none; stroke: #b0b0b0; stroke-width: 0.8; stroke-linecap: square"/>
     </g>
     <g id="line2d_20">
      <defs>
       <path id="m2b9cb7c672" d="M 0 0 
L -3.5 0 
" style="stroke: #000000; stroke-width: 0.8"/>
      </defs>
      <g>
       <use xlink:href="#m2b9cb7c672" x="43.78125" y="554.031069" style="stroke: #000000; stroke-width: 0.8"/>
      </g>
     </g>
     <g id="text_11">
      <!-- 0.0 -->
      <g transform="translate(20.878125 557.830287) scale(0.1 -0.1)">
       <defs>
        <path id="DejaVuSans-2e" d="M 684 794 
L 1344 794 
L 1344 0 
L 684 0 
L 684 794 
z
" transform="scale(0.015625)"/>
       </defs>
       <use xlink:href="#DejaVuSans-30"/>
       <use xlink:href="#DejaVuSans-2e" transform="translate(63.623047 0)"/>
       <use xlink:href="#DejaVuSans-30" transform="translate(95.410156 0)"/>
      </g>
     </g>
    </g>
    <g id="ytick_2">
     <g id="line2d_21">
      <path d="M 43.78125 489.699711 
L 601.78125 489.699711 
" clip-path="url(#p7bdd234d4e)" style="fill: none; stroke: #b0b0b0; stroke-width: 0.8; stroke-linecap: square"/>
     </g>
     <g id="line2d_22">
      <g>
       <use xlink:href="#m2b9cb7c672" x="43.78125" y="489.699711" style="stroke: #000000; stroke-width: 0.8"/>
      </g>
     </g>
     <g id="text_12">
      <!-- 0.1 -->
      <g transform="translate(20.878125 493.49893) scale(0.1 -0.1)">
       <use xlink:href="#DejaVuSans-30"/>
       <use xlink:href="#DejaVuSans-2e" transform="translate(63.623047 0)"/>
       <use xlink:href="#DejaVuSans-31" transform="translate(95.410156 0)"/>
      </g>
     </g>
    </g>
    <g id="ytick_3">
     <g id="line2d_23">
      <path d="M 43.78125 425.368353 
L 601.78125 425.368353 
" clip-path="url(#p7bdd234d4e)" style="fill: none; stroke: #b0b0b0; stroke-width: 0.8; stroke-linecap: square"/>
     </g>
     <g id="line2d_24">
      <g>
       <use xlink:href="#m2b9cb7c672" x="43.78125" y="425.368353" style="stroke: #000000; stroke-width: 0.8"/>
      </g>
     </g>
     <g id="text_13">
      <!-- 0.2 -->
      <g transform="translate(20.878125 429.167572) scale(0.1 -0.1)">
       <use xlink:href="#DejaVuSans-30"/>
       <use xlink:href="#DejaVuSans-2e" transform="translate(63.623047 0)"/>
       <use xlink:href="#DejaVuSans-32" transform="translate(95.410156 0)"/>
      </g>
     </g>
    </g>
    <g id="ytick_4">
     <g id="line2d_25">
      <path d="M 43.78125 361.036996 
L 601.78125 361.036996 
" clip-path="url(#p7bdd234d4e)" style="fill: none; stroke: #b0b0b0; stroke-width: 0.8; stroke-linecap: square"/>
     </g>
     <g id="line2d_26">
      <g>
       <use xlink:href="#m2b9cb7c672" x="43.78125" y="361.036996" style="stroke: #000000; stroke-width: 0.8"/>
      </g>
     </g>
     <g id="text_14">
      <!-- 0.3 -->
      <g transform="translate(20.878125 364.836215) scale(0.1 -0.1)">
       <use xlink:href="#DejaVuSans-30"/>
       <use xlink:href="#DejaVuSans-2e" transform="translate(63.623047 0)"/>
       <use xlink:href="#DejaVuSans-33" transform="translate(95.410156 0)"/>
      </g>
     </g>
    </g>
    <g id="ytick_5">
     <g id="line2d_27">
      <path d="M 43.78125 296.705638 
L 601.78125 296.705638 
" clip-path="url(#p7bdd234d4e)" style="fill: none; stroke: #b0b0b0; stroke-width: 0.8; stroke-linecap: square"/>
     </g>
     <g id="line2d_28">
      <g>
       <use xlink:href="#m2b9cb7c672" x="43.78125" y="296.705638" style="stroke: #000000; stroke-width: 0.8"/>
      </g>
     </g>
     <g id="text_15">
      <!-- 0.4 -->
      <g transform="translate(20.878125 300.504857) scale(0.1 -0.1)">
       <use xlink:href="#DejaVuSans-30"/>
       <use xlink:href="#DejaVuSans-2e" transform="translate(63.623047 0)"/>
       <use xlink:href="#DejaVuSans-34" transform="translate(95.410156 0)"/>
      </g>
     </g>
    </g>
    <g id="ytick_6">
     <g id="line2d_29">
      <path d="M 43.78125 232.37428 
L 601.78125 232.37428 
" clip-path="url(#p7bdd234d4e)" style="fill: none; stroke: #b0b0b0; stroke-width: 0.8; stroke-linecap: square"/>
     </g>
     <g id="line2d_30">
      <g>
       <use xlink:href="#m2b9cb7c672" x="43.78125" y="232.37428" style="stroke: #000000; stroke-width: 0.8"/>
      </g>
     </g>
     <g id="text_16">
      <!-- 0.5 -->
      <g transform="translate(20.878125 236.173499) scale(0.1 -0.1)">
       <use xlink:href="#DejaVuSans-30"/>
       <use xlink:href="#DejaVuSans-2e" transform="translate(63.623047 0)"/>
       <use xlink:href="#DejaVuSans-35" transform="translate(95.410156 0)"/>
      </g>
     </g>
    </g>
    <g id="ytick_7">
     <g id="line2d_31">
      <path d="M 43.78125 168.042923 
L 601.78125 168.042923 
" clip-path="url(#p7bdd234d4e)" style="fill: none; stroke: #b0b0b0; stroke-width: 0.8; stroke-linecap: square"/>
     </g>
     <g id="line2d_32">
      <g>
       <use xlink:href="#m2b9cb7c672" x="43.78125" y="168.042923" style="stroke: #000000; stroke-width: 0.8"/>
      </g>
     </g>
     <g id="text_17">
      <!-- 0.6 -->
      <g transform="translate(20.878125 171.842142) scale(0.1 -0.1)">
       <use xlink:href="#DejaVuSans-30"/>
       <use xlink:href="#DejaVuSans-2e" transform="translate(63.623047 0)"/>
       <use xlink:href="#DejaVuSans-36" transform="translate(95.410156 0)"/>
      </g>
     </g>
    </g>
    <g id="ytick_8">
     <g id="line2d_33">
      <path d="M 43.78125 103.711565 
L 601.78125 103.711565 
" clip-path="url(#p7bdd234d4e)" style="fill: none; stroke: #b0b0b0; stroke-width: 0.8; stroke-linecap: square"/>
     </g>
     <g id="line2d_34">
      <g>
       <use xlink:href="#m2b9cb7c672" x="43.78125" y="103.711565" style="stroke: #000000; stroke-width: 0.8"/>
      </g>
     </g>
     <g id="text_18">
      <!-- 0.7 -->
      <g transform="translate(20.878125 107.510784) scale(0.1 -0.1)">
       <use xlink:href="#DejaVuSans-30"/>
       <use xlink:href="#DejaVuSans-2e" transform="translate(63.623047 0)"/>
       <use xlink:href="#DejaVuSans-37" transform="translate(95.410156 0)"/>
      </g>
     </g>
    </g>
    <g id="ytick_9">
     <g id="line2d_35">
      <path d="M 43.78125 39.380208 
L 601.78125 39.380208 
" clip-path="url(#p7bdd234d4e)" style="fill: none; stroke: #b0b0b0; stroke-width: 0.8; stroke-linecap: square"/>
     </g>
     <g id="line2d_36">
      <g>
       <use xlink:href="#m2b9cb7c672" x="43.78125" y="39.380208" style="stroke: #000000; stroke-width: 0.8"/>
      </g>
     </g>
     <g id="text_19">
      <!-- 0.8 -->
      <g transform="translate(20.878125 43.179426) scale(0.1 -0.1)">
       <use xlink:href="#DejaVuSans-30"/>
       <use xlink:href="#DejaVuSans-2e" transform="translate(63.623047 0)"/>
       <use xlink:href="#DejaVuSans-38" transform="translate(95.410156 0)"/>
      </g>
     </g>
    </g>
    <g id="text_20">
     <!-- Accuracy -->
     <g transform="translate(14.798438 322.34625) rotate(-90) scale(0.1 -0.1)">
      <defs>
       <path id="DejaVuSans-41" d="M 2188 4044 
L 1331 1722 
L 3047 1722 
L 2188 4044 
z
M 1831 4666 
L 2547 4666 
L 4325 0 
L 3669 0 
L 3244 1197 
L 1141 1197 
L 716 0 
L 50 0 
L 1831 4666 
z
" transform="scale(0.015625)"/>
       <path id="DejaVuSans-75" d="M 544 1381 
L 544 3500 
L 1119 3500 
L 1119 1403 
Q 1119 906 1312 657 
Q 1506 409 1894 409 
Q 2359 409 2629 706 
Q 2900 1003 2900 1516 
L 2900 3500 
L 3475 3500 
L 3475 0 
L 2900 0 
L 2900 538 
Q 2691 219 2414 64 
Q 2138 -91 1772 -91 
Q 1169 -91 856 284 
Q 544 659 544 1381 
z
M 1991 3584 
L 1991 3584 
z
" transform="scale(0.015625)"/>
       <path id="DejaVuSans-72" d="M 2631 2963 
Q 2534 3019 2420 3045 
Q 2306 3072 2169 3072 
Q 1681 3072 1420 2755 
Q 1159 2438 1159 1844 
L 1159 0 
L 581 0 
L 581 3500 
L 1159 3500 
L 1159 2956 
Q 1341 3275 1631 3429 
Q 1922 3584 2338 3584 
Q 2397 3584 2469 3576 
Q 2541 3569 2628 3553 
L 2631 2963 
z
" transform="scale(0.015625)"/>
       <path id="DejaVuSans-61" d="M 2194 1759 
Q 1497 1759 1228 1600 
Q 959 1441 959 1056 
Q 959 750 1161 570 
Q 1363 391 1709 391 
Q 2188 391 2477 730 
Q 2766 1069 2766 1631 
L 2766 1759 
L 2194 1759 
z
M 3341 1997 
L 3341 0 
L 2766 0 
L 2766 531 
Q 2569 213 2275 61 
Q 1981 -91 1556 -91 
Q 1019 -91 701 211 
Q 384 513 384 1019 
Q 384 1609 779 1909 
Q 1175 2209 1959 2209 
L 2766 2209 
L 2766 2266 
Q 2766 2663 2505 2880 
Q 2244 3097 1772 3097 
Q 1472 3097 1187 3025 
Q 903 2953 641 2809 
L 641 3341 
Q 956 3463 1253 3523 
Q 1550 3584 1831 3584 
Q 2591 3584 2966 3190 
Q 3341 2797 3341 1997 
z
" transform="scale(0.015625)"/>
       <path id="DejaVuSans-79" d="M 2059 -325 
Q 1816 -950 1584 -1140 
Q 1353 -1331 966 -1331 
L 506 -1331 
L 506 -850 
L 844 -850 
Q 1081 -850 1212 -737 
Q 1344 -625 1503 -206 
L 1606 56 
L 191 3500 
L 800 3500 
L 1894 763 
L 2988 3500 
L 3597 3500 
L 2059 -325 
z
" transform="scale(0.015625)"/>
      </defs>
      <use xlink:href="#DejaVuSans-41"/>
      <use xlink:href="#DejaVuSans-63" transform="translate(66.658203 0)"/>
      <use xlink:href="#DejaVuSans-63" transform="translate(121.638672 0)"/>
      <use xlink:href="#DejaVuSans-75" transform="translate(176.619141 0)"/>
      <use xlink:href="#DejaVuSans-72" transform="translate(239.998047 0)"/>
      <use xlink:href="#DejaVuSans-61" transform="translate(281.111328 0)"/>
      <use xlink:href="#DejaVuSans-63" transform="translate(342.390625 0)"/>
      <use xlink:href="#DejaVuSans-79" transform="translate(397.371094 0)"/>
     </g>
    </g>
   </g>
   <g id="line2d_37">
    <path d="M 69.144886 474.873118 
L 69.779771 405.800896 
L 70.414655 381.044043 
L 71.04954 363.079522 
L 71.684424 350.17394 
L 72.954193 330.409912 
L 74.858847 309.402143 
L 75.493732 303.969727 
L 76.128616 300.056232 
L 76.763501 294.897213 
L 77.398385 291.475141 
L 78.03327 286.539497 
L 80.572808 272.822623 
L 81.207692 270.479891 
L 82.477461 264.414868 
L 83.112346 262.014945 
L 84.382115 258.149706 
L 85.016999 255.433499 
L 86.286768 251.062535 
L 86.921653 248.628677 
L 87.556537 247.065066 
L 88.191422 245.848127 
L 88.826306 243.290953 
L 89.461191 242.390318 
L 90.73096 238.539363 
L 91.365844 237.611925 
L 92.000729 235.687339 
L 93.270498 233.996865 
L 93.905382 232.754907 
L 94.540267 230.951854 
L 95.175151 228.532279 
L 95.810036 228.135567 
L 96.44492 226.818549 
L 97.079805 226.16631 
L 97.71469 225.195964 
L 98.349574 222.997982 
L 98.984459 222.785324 
L 99.619343 221.493345 
L 100.254228 219.718878 
L 100.889112 219.161349 
L 101.523997 218.015884 
L 102.158881 217.238527 
L 102.793766 215.966219 
L 103.42865 215.335414 
L 104.063535 215.49623 
L 104.698419 213.287512 
L 105.333304 212.481588 
L 105.968188 212.286798 
L 106.603073 210.607041 
L 107.237957 209.600997 
L 107.872842 209.944065 
L 108.507726 208.514506 
L 109.142611 207.84436 
L 109.777495 206.679263 
L 111.047264 205.546299 
L 111.682149 205.45339 
L 112.317033 202.815827 
L 112.951918 203.398356 
L 113.586802 202.401246 
L 114.221687 202.050969 
L 114.856571 201.488073 
L 115.491456 201.139636 
L 116.12634 198.889812 
L 116.761225 198.232205 
L 117.396109 199.527749 
L 118.030994 196.863383 
L 118.665879 196.770436 
L 119.300763 196.556014 
L 119.935648 195.333707 
L 120.570532 196.228974 
L 121.205417 196.202171 
L 121.840301 193.502068 
L 122.475186 194.213282 
L 123.11007 193.066015 
L 123.744955 191.604285 
L 124.379839 191.434534 
L 125.014724 191.454166 
L 125.649608 190.180056 
L 126.284493 190.237228 
L 126.919377 189.776212 
L 128.189146 187.462046 
L 128.824031 188.487799 
L 129.458915 187.108242 
L 130.0938 186.107528 
L 130.728684 186.816939 
L 131.363569 185.062142 
L 131.998453 184.79768 
L 132.633338 185.06034 
L 133.268222 184.229415 
L 133.903107 184.18831 
L 135.80776 182.001026 
L 136.442645 182.083236 
L 137.077529 181.706195 
L 138.347298 181.329154 
L 138.982183 180.760889 
L 140.886837 177.656903 
L 141.521721 178.293038 
L 142.156606 177.910629 
L 142.79149 176.132595 
L 143.426375 176.053951 
L 144.061259 175.816292 
L 144.696144 176.093292 
L 145.331028 176.221938 
L 145.965913 175.75912 
L 146.600797 175.004999 
L 147.235682 173.893508 
L 147.870566 174.461773 
L 148.505451 174.186575 
L 149.140335 172.167278 
L 149.77522 172.969636 
L 150.410104 172.331699 
L 151.044989 173.003571 
L 151.679873 170.576864 
L 152.314758 171.768764 
L 152.949642 170.416047 
L 154.219411 169.343859 
L 154.854296 168.977516 
L 155.48918 168.825633 
L 156.124065 169.038253 
L 156.758949 168.847068 
L 157.393834 168.005407 
L 158.028718 168.085815 
L 158.663603 166.232703 
L 159.933372 166.704455 
L 160.568256 166.73306 
L 161.203141 165.348173 
L 161.838026 165.968241 
L 162.47291 165.178383 
L 163.107795 164.095497 
L 163.742679 164.28488 
L 164.377564 163.852431 
L 165.012448 163.813128 
L 165.647333 164.041853 
L 166.282217 163.112651 
L 166.917102 161.752764 
L 167.551986 162.406768 
L 168.186871 161.745594 
L 168.821755 161.641949 
L 170.726409 160.149812 
L 171.361293 159.858547 
L 171.996178 159.406428 
L 172.631062 159.159834 
L 173.265947 159.686994 
L 173.900831 158.966846 
L 174.535716 158.584437 
L 175.1706 158.705951 
L 175.805485 157.821382 
L 176.440369 157.787447 
L 177.710138 156.806365 
L 178.345023 156.997589 
L 178.979907 156.377521 
L 179.614792 157.015458 
L 180.249676 156.429324 
L 180.884561 156.368586 
L 181.519445 154.785305 
L 182.15433 156.331047 
L 182.789215 155.464347 
L 183.424099 153.841762 
L 184.058984 154.987227 
L 184.693868 153.16272 
L 185.328753 153.411115 
L 185.963637 152.807113 
L 186.598522 152.644494 
L 187.233406 152.91256 
L 187.868291 151.474029 
L 188.503175 152.299624 
L 189.13806 151.709924 
L 189.772944 150.90933 
L 190.407829 151.391818 
L 191.042713 151.31141 
L 191.677598 150.251722 
L 192.312482 149.919352 
L 192.947367 149.356455 
L 193.582251 151.038014 
L 194.217136 149.234941 
L 194.85202 149.629851 
L 195.486905 148.464754 
L 196.121789 148.44332 
L 196.756674 148.196688 
L 197.391558 148.318202 
L 198.026443 147.951897 
L 198.661327 148.382544 
L 199.296212 147.615923 
L 199.931096 147.147737 
L 200.565981 148.450452 
L 201.200865 146.702787 
L 201.83575 147.505145 
L 202.470634 146.465128 
L 203.105519 146.318576 
L 203.740403 145.28569 
L 204.375288 145.421507 
L 205.010173 146.12739 
L 205.645057 145.671704 
L 206.914826 144.336818 
L 207.549711 144.619148 
L 208.184595 143.598802 
L 208.81948 143.641671 
L 209.454364 143.831093 
L 210.089249 143.180655 
L 210.724133 143.836461 
L 211.993902 142.414034 
L 212.628787 142.244245 
L 213.263671 142.773207 
L 213.898556 140.62883 
L 214.53344 142.669562 
L 215.168325 141.191727 
L 215.803209 140.707475 
L 216.438094 142.474772 
L 217.072978 142.188875 
L 217.707863 140.954068 
L 218.342747 140.457277 
L 218.977632 140.269658 
L 219.612516 141.5384 
L 220.247401 140.035565 
L 220.882285 139.606682 
L 221.51717 139.917617 
L 222.152054 139.54234 
L 222.786939 139.308247 
L 223.421823 139.265377 
L 224.691592 138.802521 
L 225.326477 137.724965 
L 225.961362 138.123479 
L 226.596246 137.487306 
L 227.231131 137.996597 
L 227.866015 137.221042 
L 229.135784 137.474805 
L 229.770669 136.713552 
L 230.405553 136.813632 
L 231.040438 135.64493 
L 231.675322 135.836154 
L 232.310207 135.3501 
L 232.945091 135.746811 
L 234.21486 135.741443 
L 234.849745 135.732509 
L 236.119514 134.084885 
L 236.754398 134.892612 
L 237.389283 135.078467 
L 238.024167 134.235004 
L 238.659052 134.170662 
L 239.293936 134.401189 
L 239.928821 133.457685 
L 240.563705 133.604199 
L 241.833474 132.16747 
L 242.468359 133.702476 
L 243.738128 131.761823 
L 244.373012 132.960893 
L 245.007897 131.206058 
L 245.642781 131.347243 
L 246.277666 131.118518 
L 246.91255 131.8601 
L 247.547435 130.991636 
L 248.18232 130.498411 
L 248.817204 130.693201 
L 249.452089 130.355463 
L 250.086973 130.887991 
L 250.721858 130.778978 
L 251.356742 130.032027 
L 251.991627 130.099935 
L 252.626511 130.007027 
L 253.261396 129.688921 
L 253.89628 128.572061 
L 254.531165 129.454828 
L 255.166049 128.661404 
L 255.800934 129.912316 
L 256.435818 129.369051 
L 257.070703 129.651382 
L 257.705587 128.277192 
L 258.340472 127.851914 
L 258.975356 128.593496 
L 259.610241 127.784006 
L 260.245125 127.907321 
L 260.88001 127.208608 
L 261.514894 128.069902 
L 262.149779 127.591018 
L 262.784663 126.819028 
L 264.054432 126.250763 
L 265.324201 127.301517 
L 265.959086 126.164987 
L 266.59397 126.325842 
L 267.228855 125.534182 
L 267.863739 125.212548 
L 268.498624 125.841551 
L 269.133509 124.685388 
L 269.768393 123.979505 
L 270.403278 125.475208 
L 271.038162 125.462708 
L 271.673047 124.319045 
L 272.307931 124.713955 
L 272.942816 123.616766 
L 273.5777 124.833705 
L 274.212585 123.811556 
L 274.847469 125.317957 
L 275.482354 123.291528 
L 276.117238 124.424493 
L 276.752123 122.764368 
L 277.387007 122.889448 
L 278.021892 123.205752 
L 278.656776 124.379783 
L 279.291661 122.626788 
L 279.926545 122.803672 
L 280.56143 122.494538 
L 281.196314 122.530275 
L 281.831199 122.133563 
L 282.466083 121.350876 
L 283.100968 122.112129 
L 283.735852 121.81726 
L 284.370737 120.973796 
L 285.640506 120.95773 
L 286.27539 121.492022 
L 286.910275 121.193625 
L 287.545159 121.717181 
L 288.180044 121.025638 
L 288.814928 120.877322 
L 289.449813 119.319079 
L 290.084697 119.856937 
L 290.719582 120.748638 
L 291.354467 120.182175 
L 291.989351 118.788315 
L 292.624236 119.855173 
L 293.25912 120.427004 
L 293.894005 119.084986 
L 294.528889 119.113552 
L 295.163774 118.000259 
L 295.798658 119.310145 
L 296.433543 118.480984 
L 297.068427 117.301546 
L 298.973081 117.494572 
L 299.607965 118.271891 
L 300.24285 116.869097 
L 300.877734 117.578546 
L 301.512619 117.197901 
L 302.147503 116.5707 
L 302.782388 117.465967 
L 303.417272 116.123949 
L 304.052157 117.126427 
L 304.687041 116.075711 
L 305.321926 117.426664 
L 305.95681 115.448472 
L 306.591695 116.10608 
L 307.226579 116.170422 
L 307.861464 115.166104 
L 308.496348 116.851228 
L 309.131233 115.112498 
L 310.401002 115.007089 
L 311.035886 114.772996 
L 311.670771 115.22688 
L 312.305656 115.536013 
L 312.94054 114.479929 
L 313.575425 114.855168 
L 314.210309 115.05176 
L 315.480078 113.491715 
L 316.114963 114.05998 
L 316.749847 113.950967 
L 317.384732 114.286941 
L 318.019616 114.401285 
L 318.654501 113.123608 
L 319.289385 112.776936 
L 319.92427 113.622163 
L 320.559154 111.940604 
L 321.194039 112.912752 
L 321.828923 113.623965 
L 322.463808 112.049618 
L 323.098692 113.514952 
L 323.733577 113.320162 
L 324.368461 112.022815 
L 325.003346 112.049618 
L 325.63823 112.882345 
L 326.273115 111.079311 
L 326.907999 112.678659 
L 327.542884 111.928104 
L 328.177768 110.587888 
L 328.812653 110.600388 
L 329.447537 112.042486 
L 330.082422 110.691533 
L 330.717306 110.795178 
L 331.352191 111.150785 
L 331.987075 110.425269 
L 332.62196 110.05536 
L 333.256844 110.562849 
L 333.891729 109.322674 
L 334.526614 110.389532 
L 335.161498 109.646148 
L 336.431267 108.949198 
L 337.066152 109.210094 
L 337.701036 110.391296 
L 338.335921 108.332696 
L 338.970805 107.773365 
L 340.240574 109.276238 
L 340.875459 108.561421 
L 341.510343 108.575723 
L 342.145228 109.419187 
L 342.780112 108.128972 
L 343.414997 107.612548 
L 344.049881 108.116471 
L 344.684766 108.438143 
L 345.31965 107.480298 
L 345.954535 107.026415 
L 346.589419 106.869164 
L 347.224304 108.273722 
L 347.859188 107.215836 
L 348.494073 107.003178 
L 349.128957 107.453495 
L 350.398726 105.777305 
L 351.033611 106.418846 
L 351.668495 106.724413 
L 352.30338 105.843449 
L 352.938264 105.396698 
L 353.573149 106.425978 
L 354.842918 105.34129 
L 355.477803 105.187605 
L 356.112687 105.636159 
L 356.747572 105.902423 
L 357.382456 104.68905 
L 358.017341 103.933166 
L 358.652225 105.936358 
L 359.28711 104.637209 
L 359.921994 105.200105 
L 360.556879 104.186891 
L 361.191763 104.351312 
L 361.826648 104.646143 
L 362.461532 103.681204 
L 363.096417 104.82663 
L 364.366186 102.989623 
L 365.00107 104.367378 
L 365.635955 102.775201 
L 366.270839 103.736573 
L 366.905724 102.936017 
L 367.540608 102.957452 
L 368.175493 102.675122 
L 368.810377 103.42744 
L 369.445262 101.82629 
L 370.080146 102.737662 
L 370.715031 102.969952 
L 371.349915 102.639385 
L 371.9848 101.908501 
L 372.619684 101.606499 
L 373.254569 102.235502 
L 373.889453 102.14616 
L 375.159222 100.988195 
L 375.794107 100.280547 
L 377.063876 100.705864 
L 377.698761 101.09184 
L 378.333645 100.327021 
L 378.96853 100.593285 
L 379.603414 99.671215 
L 380.238299 100.468205 
L 380.873183 99.69265 
L 381.508068 100.230508 
L 382.777837 99.647979 
L 383.412721 98.800949 
L 384.047606 99.15299 
L 384.68249 98.992135 
L 385.317375 98.511448 
L 385.952259 98.527515 
L 386.587144 97.805603 
L 387.222028 97.694788 
L 387.856913 98.827752 
L 388.491797 97.206969 
L 389.126682 97.628682 
L 389.761566 96.890666 
L 390.396451 97.85384 
L 391.031335 96.678007 
L 391.66622 97.226602 
L 392.301104 96.601165 
L 392.935989 96.270559 
L 393.570873 96.931771 
L 394.205758 96.077571 
L 394.840642 95.752333 
L 395.475527 95.579016 
L 396.110411 95.151935 
L 396.745296 95.000014 
L 397.38018 95.175134 
L 398.015065 94.549697 
L 398.64995 93.570456 
L 399.284834 94.002905 
L 399.919719 93.917128 
L 400.554603 93.541851 
L 401.189488 93.570456 
L 401.824372 92.693019 
L 402.459257 92.741295 
L 403.094141 93.234481 
L 403.729026 92.187332 
L 404.36391 91.679804 
L 404.998795 91.47075 
L 405.633679 91.602962 
L 406.903448 90.153733 
L 407.538333 90.255576 
L 408.173217 89.310269 
L 408.808102 88.797412 
L 410.077871 88.62049 
L 410.712755 87.693053 
L 411.34764 88.409634 
L 411.982524 87.433959 
L 412.617409 87.939646 
L 413.252293 87.723421 
L 413.887178 86.73701 
L 414.522062 87.240933 
L 415.156947 87.080116 
L 415.791831 86.193783 
L 417.0616 85.820308 
L 417.696485 86.860325 
L 418.331369 85.505807 
L 418.966254 85.193069 
L 419.601138 84.331737 
L 420.236023 84.715949 
L 420.870908 84.967911 
L 421.505792 84.315671 
L 422.140677 83.872485 
L 422.775561 83.797445 
L 423.410446 83.297088 
L 424.04533 83.16664 
L 424.680215 83.568721 
L 425.315099 83.193443 
L 425.949984 82.305308 
L 426.584868 81.946136 
L 427.219753 82.553704 
L 427.854637 82.408953 
L 428.489522 81.334963 
L 429.124406 81.972938 
L 429.759291 81.383239 
L 430.394175 81.115172 
L 431.02906 81.159844 
L 431.663944 80.793501 
L 432.298829 80.559408 
L 432.933713 80.173432 
L 434.203482 80.982922 
L 434.838367 80.019747 
L 435.473251 79.941141 
L 436.108136 79.748154 
L 436.74302 79.363942 
L 437.377905 79.278165 
L 438.012789 78.943993 
L 439.282558 78.007621 
L 440.552327 78.114832 
L 441.187212 77.957581 
L 441.822097 77.475093 
L 443.091866 78.036188 
L 443.72675 77.067644 
L 444.361635 77.149855 
L 444.996519 77.607343 
L 445.631404 77.478659 
L 446.901173 75.993692 
L 448.805826 75.73456 
L 449.440711 75.984758 
L 450.075595 76.647734 
L 450.71048 75.219939 
L 451.345364 75.330716 
L 451.980249 74.623069 
L 452.615133 75.840008 
L 453.250018 75.754231 
L 453.884902 73.563381 
L 454.519787 75.412927 
L 455.154671 73.661658 
L 455.789556 74.101277 
L 456.42444 74.331804 
L 457.059325 73.633091 
L 457.694209 73.976198 
L 458.329094 74.167383 
L 458.963978 73.897553 
L 459.598863 73.440104 
L 460.233747 73.504407 
L 460.868632 73.279248 
L 461.503516 73.658092 
L 462.138401 72.403652 
L 462.773285 72.2571 
L 464.043055 72.391114 
L 464.677939 73.193472 
L 465.312824 72.005138 
L 465.947708 71.553018 
L 466.582593 71.931862 
L 467.217477 71.594124 
L 467.852362 71.851454 
L 468.487246 70.909713 
L 469.122131 71.251017 
L 469.757015 70.609514 
L 470.3919 71.726374 
L 471.026784 70.741726 
L 471.661669 70.39329 
L 474.836091 70.228869 
L 476.10586 69.717813 
L 476.740745 69.651669 
L 477.375629 69.049469 
L 478.010514 69.249627 
L 478.645398 68.958324 
L 479.280283 68.899351 
L 479.915167 70.089486 
L 480.550052 68.588415 
L 481.184936 68.391861 
L 481.819821 68.910087 
L 482.454705 68.645625 
L 483.08959 68.093426 
L 483.724474 68.143466 
L 484.359359 68.068426 
L 484.994244 68.1524 
L 485.629128 67.589503 
L 486.264013 67.634175 
L 486.898897 66.749644 
L 487.533782 67.79503 
L 489.438435 66.595959 
L 490.708204 66.847921 
L 491.343089 66.377933 
L 491.977973 66.170643 
L 492.612858 66.088432 
L 493.247742 66.89079 
L 493.882627 66.313591 
L 494.517511 66.233182 
L 495.152396 66.034826 
L 495.78728 66.370801 
L 496.422165 65.750694 
L 497.057049 65.636351 
L 497.691934 65.082388 
L 498.326818 65.091322 
L 498.961703 65.216402 
L 499.596587 65.539838 
L 500.231472 64.95727 
L 500.866356 65.244969 
L 501.501241 64.521255 
L 502.136125 64.710677 
L 502.77101 65.312877 
L 503.405894 65.048415 
L 504.040779 63.801107 
L 504.675663 64.185319 
L 505.310548 63.704594 
L 505.945433 64.396175 
L 507.215202 63.817174 
L 507.850086 64.174582 
L 509.119855 63.265013 
L 509.75474 63.974424 
L 510.389624 63.420462 
L 511.024509 63.209605 
L 511.659393 63.822542 
L 512.294278 63.522343 
L 512.929162 63.945858 
L 513.564047 63.245342 
L 514.198931 62.945143 
L 514.833816 62.875433 
L 515.4687 62.360812 
L 516.103585 62.300036 
L 516.738469 62.891538 
L 517.373354 62.568102 
L 518.643123 62.696748 
L 519.278007 62.29647 
L 519.912892 62.893302 
L 520.547776 62.457287 
L 521.182661 61.642428 
L 521.817545 62.285734 
L 522.45243 61.395835 
L 523.087314 61.394033 
L 523.722199 61.704968 
L 524.357083 61.704968 
L 524.991968 60.76503 
L 525.626852 60.941951 
L 526.261737 61.397599 
L 526.896621 61.174242 
L 527.531506 61.217111 
L 528.166391 60.693556 
L 528.801275 61.306492 
L 529.43616 60.203897 
L 530.071044 60.950886 
L 530.705929 60.330779 
L 531.975698 60.866873 
L 532.610582 60.253936 
L 533.245467 61.161742 
L 533.880351 59.735711 
L 534.515236 60.039514 
L 535.15012 59.969804 
L 535.785005 60.107422 
L 536.419889 59.767882 
L 537.054774 59.889395 
L 538.324543 59.615999 
L 538.959427 58.79397 
L 539.594312 58.954825 
L 540.229196 59.446248 
L 540.864081 58.933353 
L 541.498965 59.124576 
L 542.13385 59.192485 
L 542.768734 59.045932 
L 543.403619 58.1721 
L 544.038503 59.312196 
L 544.673388 59.129945 
L 545.308272 59.355103 
L 545.943157 58.692127 
L 546.578041 58.232876 
L 547.212926 58.663522 
L 547.84781 58.434798 
L 548.482695 57.525228 
L 549.752464 58.681391 
L 550.387349 57.798624 
L 551.022233 58.981628 
L 551.657118 57.516294 
L 552.292002 57.628873 
L 552.926887 58.466969 
L 553.561771 57.818295 
L 554.196656 57.523426 
L 554.83154 56.840818 
L 555.466425 57.350109 
L 556.101309 56.392264 
L 556.736194 57.809361 
L 558.640847 56.880121 
L 559.910616 56.858686 
L 560.545501 57.123148 
L 561.180385 56.740739 
L 561.81527 56.705002 
L 562.450154 56.336895 
L 563.085039 57.214293 
L 563.719923 56.036657 
L 564.354808 56.658528 
L 564.989692 56.224315 
L 565.624577 56.281487 
L 566.259461 55.968749 
L 566.894346 56.218947 
L 567.52923 56.651396 
L 568.164115 55.986618 
L 568.798999 56.156407 
L 569.433884 55.566707 
L 570.068768 55.534536 
L 570.703653 56.612093 
L 571.338538 55.529168 
L 571.973422 55.795432 
L 572.608307 55.720354 
L 573.243191 54.946601 
L 573.878076 55.048482 
L 574.51296 55.673919 
L 575.147845 54.083505 
L 575.782729 54.880495 
L 576.417614 54.31223 
L 576.417614 54.31223 
" clip-path="url(#p7bdd234d4e)" style="fill: none; stroke: #1f77b4; stroke-width: 1.5; stroke-linecap: square"/>
   </g>
   <g id="line2d_38">
    <path d="M 69.144886 419.78761 
L 69.779771 382.797076 
L 70.414655 373.726364 
L 71.04954 357.788271 
L 71.684424 353.365485 
L 72.954193 323.242332 
L 73.589078 315.16873 
L 74.223962 313.36746 
L 74.858847 306.741323 
L 75.493732 289.661351 
L 76.128616 294.164546 
L 76.763501 286.65386 
L 77.398385 288.181734 
L 78.03327 278.435526 
L 78.668154 274.350497 
L 79.303039 271.921988 
L 79.937923 272.822623 
L 80.572808 262.738678 
L 81.207692 290.40117 
L 81.842577 257.077518 
L 82.477461 270.072462 
L 83.112346 273.160361 
L 83.74723 258.766228 
L 84.382115 250.177986 
L 85.016999 263.912728 
L 85.651884 280.349395 
L 86.286768 241.943567 
L 86.921653 250.982127 
L 87.556537 261.854128 
L 88.191422 239.032569 
L 88.826306 248.843099 
L 89.461191 243.680514 
L 90.096075 235.83209 
L 90.73096 236.571908 
L 91.365844 238.131934 
L 92.000729 274.784729 
L 92.635613 237.456457 
L 93.270498 237.343878 
L 93.905382 230.701656 
L 94.540267 228.530477 
L 95.175151 228.739569 
L 95.810036 224.236355 
L 96.44492 249.245179 
L 97.079805 214.843991 
L 97.71469 224.027301 
L 98.349574 211.225346 
L 98.984459 205.483759 
L 99.619343 228.643056 
L 100.254228 219.749246 
L 100.889112 208.89335 
L 101.523997 223.158799 
L 102.158881 206.110998 
L 102.793766 213.41263 
L 103.42865 217.079512 
L 104.063535 205.805431 
L 104.698419 209.359734 
L 105.333304 211.000187 
L 105.968188 228.305318 
L 106.603073 201.768639 
L 107.237957 226.632694 
L 107.872842 213.718197 
L 108.507726 235.060119 
L 109.142611 201.350493 
L 109.777495 203.119592 
L 110.41238 195.978815 
L 111.047264 209.263259 
L 111.682149 190.349807 
L 112.317033 203.135696 
L 112.951918 197.297596 
L 113.586802 203.60208 
L 114.221687 207.301134 
L 114.856571 193.630714 
L 115.491456 250.901718 
L 116.12634 183.595044 
L 117.396109 199.147142 
L 118.030994 203.007012 
L 118.665879 199.19538 
L 119.300763 196.702528 
L 119.935648 187.390572 
L 121.205417 180.394546 
L 121.840301 179.574319 
L 122.475186 193.984557 
L 123.11007 193.228634 
L 123.744955 172.851688 
L 124.379839 196.36479 
L 125.014724 185.074642 
L 125.649608 182.662238 
L 126.284493 195.126417 
L 126.919377 200.803662 
L 127.554262 184.029257 
L 128.189146 191.893786 
L 128.824031 178.786263 
L 129.458915 181.439931 
L 130.0938 202.235023 
L 130.728684 176.454229 
L 131.363569 178.931014 
L 131.998453 177.660469 
L 132.633338 180.909205 
L 133.268222 187.068939 
L 133.903107 169.233043 
L 134.537991 175.537527 
L 135.172876 188.90238 
L 135.80776 182.131474 
L 136.442645 183.482465 
L 137.077529 173.607573 
L 137.712414 178.400288 
L 138.347298 176.132595 
L 138.982183 185.92704 
L 139.617067 161.384619 
L 140.251952 176.068253 
L 140.886837 168.348513 
L 141.521721 177.596127 
L 142.156606 175.907436 
L 142.79149 170.809155 
L 143.426375 171.355985 
L 144.061259 178.866672 
L 144.696144 178.062549 
L 145.331028 193.42166 
L 145.965913 171.983224 
L 146.600797 170.423179 
L 147.235682 177.242323 
L 147.870566 200.948412 
L 148.505451 162.108371 
L 149.140335 183.820203 
L 149.77522 195.785827 
L 150.410104 164.231275 
L 151.044989 167.367431 
L 151.679873 164.858514 
L 152.314758 174.283049 
L 152.949642 171.323814 
L 153.584527 154.308184 
L 154.219411 167.914262 
L 154.854296 162.027924 
L 155.48918 168.621909 
L 156.124065 165.421411 
L 156.758949 170.005033 
L 157.393834 153.793525 
L 158.028718 153.455786 
L 158.663603 158.409318 
L 159.298487 181.92242 
L 159.933372 166.579376 
L 160.568256 187.615731 
L 161.203141 172.3692 
L 161.838026 179.702965 
L 163.107795 145.092703 
L 163.742679 154.983661 
L 164.377564 213.267879 
L 165.012448 188.291207 
L 165.647333 169.05616 
L 166.282217 170.246258 
L 166.917102 190.832296 
L 167.551986 191.974194 
L 168.186871 159.824574 
L 168.821755 162.848151 
L 169.45664 159.905021 
L 170.091524 144.642385 
L 170.726409 170.037204 
L 171.361293 147.312158 
L 171.996178 171.259472 
L 172.631062 160.548326 
L 173.265947 158.135883 
L 174.535716 157.637328 
L 175.1706 153.166286 
L 175.805485 164.53688 
L 176.440369 164.166971 
L 177.075254 164.552947 
L 177.710138 170.825259 
L 178.979907 150.850356 
L 179.614792 150.914698 
L 180.249676 144.497635 
L 180.884561 159.197373 
L 181.519445 143.950842 
L 182.15433 167.254852 
L 182.789215 176.952822 
L 183.424099 155.787783 
L 184.058984 167.238785 
L 184.693868 135.61993 
L 185.328753 142.825049 
L 185.963637 183.160793 
L 186.598522 144.368989 
L 187.868291 150.850356 
L 188.503175 178.062549 
L 189.13806 177.596127 
L 189.772944 138.466585 
L 190.407829 153.857867 
L 191.042713 160.387509 
L 191.677598 145.140978 
L 192.312482 139.013416 
L 192.947367 165.662674 
L 193.582251 153.278865 
L 194.217136 143.564829 
L 194.85202 142.921523 
L 195.486905 148.679177 
L 196.121789 160.676972 
L 196.756674 150.866461 
L 197.391558 135.941563 
L 198.026443 161.625883 
L 198.661327 164.955027 
L 199.296212 144.626319 
L 199.931096 151.332844 
L 200.565981 152.169176 
L 201.200865 168.718384 
L 201.83575 142.857181 
L 202.470634 152.619493 
L 203.105519 155.482215 
L 203.740403 197.249359 
L 204.375288 160.355338 
L 205.010173 137.984097 
L 205.645057 142.841115 
L 206.279942 132.982328 
L 206.914826 134.429794 
L 207.549711 135.024862 
L 208.81948 140.87899 
L 209.454364 140.412606 
L 210.724133 152.539047 
L 211.359018 149.06519 
L 211.993902 123.316529 
L 212.628787 158.473621 
L 213.263671 138.370072 
L 213.898556 132.371194 
L 214.53344 166.884943 
L 215.168325 132.210339 
L 215.803209 155.546557 
L 216.438094 145.269624 
L 217.072978 245.626534 
L 217.707863 127.948388 
L 218.342747 136.198893 
L 218.977632 163.025073 
L 219.612516 126.967345 
L 220.247401 142.632022 
L 220.882285 148.212793 
L 221.51717 160.789551 
L 222.152054 138.08061 
L 222.786939 142.889352 
L 223.421823 145.864692 
L 224.056708 133.979476 
L 224.691592 135.748575 
L 225.326477 134.96052 
L 225.961362 119.37625 
L 226.596246 136.922645 
L 227.231131 130.344765 
L 227.866015 130.714636 
L 228.5009 120.14824 
L 229.135784 118.958104 
L 229.770669 160.644801 
L 230.405553 124.378019 
L 231.040438 114.294073 
L 231.675322 129.846172 
L 232.310207 140.573423 
L 232.945091 132.483773 
L 233.579976 132.226443 
L 234.21486 144.433331 
L 234.849745 130.473411 
L 235.484629 123.638201 
L 236.119514 129.492367 
L 236.754398 129.653184 
L 237.389283 174.090062 
L 238.024167 168.702317 
L 238.659052 119.826568 
L 239.293936 125.66463 
L 239.928821 123.573859 
L 240.563705 131.213229 
L 241.19859 113.988506 
L 241.833474 129.540604 
L 242.468359 138.386177 
L 243.103243 122.480236 
L 243.738128 129.637117 
L 244.373012 131.567033 
L 245.007897 138.402243 
L 245.642781 132.773274 
L 246.277666 108.890225 
L 246.91255 141.667084 
L 247.547435 140.959436 
L 248.18232 128.398706 
L 248.817204 133.416579 
L 249.452089 211.675663 
L 250.086973 122.20684 
L 250.721858 149.370758 
L 251.356742 126.484856 
L 251.991627 114.165428 
L 252.626511 131.518796 
L 253.261396 128.414811 
L 253.89628 124.587073 
L 254.531165 143.822158 
L 255.166049 131.936943 
L 256.435818 115.982764 
L 257.070703 125.873722 
L 257.705587 126.61354 
L 258.340472 140.927265 
L 258.975356 134.542373 
L 259.610241 115.017787 
L 260.245125 131.743955 
L 260.88001 130.344765 
L 261.514894 151.558003 
L 262.149779 124.136756 
L 262.784663 123.718609 
L 263.419548 119.006341 
L 264.054432 121.643943 
L 264.689317 145.832521 
L 265.324201 142.792878 
L 265.959086 130.393002 
L 266.59397 130.44124 
L 267.228855 154.259947 
L 267.863739 117.623218 
L 268.498624 121.933405 
L 269.133509 141.345412 
L 269.768393 122.60892 
L 270.403278 131.213229 
L 271.038162 112.25154 
L 271.673047 105.963161 
L 272.307931 126.114947 
L 272.942816 115.596789 
L 273.5777 116.079277 
L 274.212585 131.164953 
L 274.847469 128.12531 
L 275.482354 149.579812 
L 276.117238 123.670372 
L 276.752123 121.724351 
L 277.387007 129.411959 
L 278.021892 156.559772 
L 278.656776 128.656036 
L 279.291661 117.735797 
L 279.926545 104.515695 
L 280.56143 122.415894 
L 281.196314 132.033456 
L 282.466083 117.124663 
L 283.100968 116.047106 
L 283.735852 115.323393 
L 284.370737 105.384197 
L 285.005621 120.711137 
L 285.640506 119.263671 
L 286.27539 120.019556 
L 286.910275 106.5904 
L 287.545159 123.043133 
L 288.180044 112.299816 
L 288.814928 113.425609 
L 289.449813 108.27909 
L 290.084697 122.045985 
L 290.719582 124.55494 
L 291.354467 123.943768 
L 291.989351 143.146682 
L 292.624236 128.414811 
L 293.25912 131.615309 
L 293.894005 110.385928 
L 294.528889 115.854118 
L 295.163774 113.956335 
L 295.798658 122.255077 
L 296.433543 109.099317 
L 297.068427 107.137192 
L 297.703312 111.752985 
L 298.338196 109.034975 
L 298.973081 154.83891 
L 299.607965 112.299816 
L 300.24285 121.354442 
L 300.877734 135.716404 
L 301.512619 111.270496 
L 302.147503 112.13896 
L 302.782388 111.543892 
L 303.417272 123.927702 
L 304.052157 125.584221 
L 304.687041 105.528909 
L 305.321926 119.183263 
L 305.95681 100.671891 
L 306.591695 99.401347 
L 307.226579 137.742872 
L 307.861464 120.164306 
L 308.496348 118.282628 
L 309.131233 111.785156 
L 309.766117 122.239011 
L 310.401002 102.006777 
L 311.035886 107.137192 
L 311.670771 116.561766 
L 312.305656 131.341875 
L 312.94054 100.173336 
L 313.575425 115.210813 
L 314.210309 137.228212 
L 314.845194 120.791545 
L 315.480078 94.303104 
L 316.114963 122.962724 
L 316.749847 108.681171 
L 317.384732 123.86336 
L 318.019616 117.671455 
L 318.654501 117.124663 
L 319.289385 110.916692 
L 319.92427 105.866648 
L 320.559154 106.863796 
L 321.194039 114.583574 
L 321.828923 116.561766 
L 322.463808 107.587548 
L 323.098692 92.936046 
L 323.733577 111.656472 
L 324.368461 105.014288 
L 325.003346 122.287248 
L 325.63823 96.329532 
L 326.273115 101.749448 
L 326.907999 113.120042 
L 327.542884 104.16189 
L 328.177768 111.608235 
L 328.812653 107.410626 
L 329.447537 98.758042 
L 330.082422 106.349136 
L 330.717306 92.984322 
L 331.352191 99.144055 
L 331.987075 114.937379 
L 332.62196 101.910303 
L 333.256844 135.089204 
L 333.891729 100.318087 
L 334.526614 107.185467 
L 335.161498 109.613977 
L 335.796383 100.366324 
L 336.431267 174.701234 
L 337.066152 120.325123 
L 337.701036 97.310614 
L 338.335921 119.424488 
L 338.970805 130.795082 
L 339.60569 99.803427 
L 340.240574 134.220701 
L 340.875459 102.441029 
L 341.510343 105.303751 
L 342.145228 110.836245 
L 342.780112 89.68731 
L 343.414997 109.05108 
L 344.049881 118.781182 
L 344.684766 110.176874 
L 345.31965 142.648127 
L 345.954535 118.073535 
L 346.589419 100.076862 
L 347.224304 93.17731 
L 347.859188 104.853433 
L 348.494073 150.818185 
L 349.128957 112.026381 
L 349.763842 96.249124 
L 350.398726 99.256635 
L 351.033611 117.285479 
L 351.668495 104.354878 
L 352.30338 126.903003 
L 352.938264 104.483524 
L 353.573149 107.024612 
L 354.208033 98.758042 
L 354.842918 81.372502 
L 355.477803 114.181494 
L 356.112687 101.765552 
L 356.747572 96.731613 
L 357.382456 97.310614 
L 358.017341 113.264754 
L 358.652225 105.625422 
L 359.28711 91.327764 
L 359.921994 92.887809 
L 360.556879 112.766199 
L 361.191763 115.532447 
L 361.826648 110.385928 
L 362.461532 126.163223 
L 363.096417 114.374482 
L 363.731301 96.972838 
L 364.366186 139.817538 
L 365.00107 110.916692 
L 365.635955 94.705184 
L 366.270839 93.72414 
L 366.905724 91.086539 
L 367.540608 103.566822 
L 368.175493 90.813143 
L 368.810377 98.130803 
L 369.445262 97.648352 
L 370.080146 102.248041 
L 370.715031 108.79375 
L 371.349915 90.411062 
L 371.9848 126.838699 
L 372.619684 99.964282 
L 373.254569 95.364555 
L 373.889453 99.980349 
L 374.524338 146.105917 
L 375.794107 86.213454 
L 376.428991 110.144703 
L 377.063876 83.801011 
L 377.698761 102.055015 
L 378.333645 93.145139 
L 378.96853 98.774146 
L 379.603414 98.500712 
L 380.238299 100.334153 
L 380.873183 101.636868 
L 381.508068 121.901273 
L 382.142952 80.182366 
L 382.777837 121.081046 
L 383.412721 89.655178 
L 384.047606 104.853433 
L 384.68249 94.110116 
L 385.317375 106.928138 
L 385.952259 95.284147 
L 386.587144 107.169363 
L 387.222028 90.620117 
L 387.856913 88.030791 
L 388.491797 91.26346 
L 389.126682 112.331948 
L 389.761566 99.530031 
L 390.396451 93.370297 
L 391.031335 101.81379 
L 391.66622 87.757395 
L 392.301104 98.436408 
L 392.935989 99.09578 
L 393.570873 88.320291 
L 394.205758 122.978791 
L 394.840642 128.028835 
L 396.110411 85.795269 
L 396.745296 86.695904 
L 397.38018 90.137666 
L 398.015065 95.171568 
L 398.64995 82.659113 
L 399.284834 87.451827 
L 399.919719 90.813143 
L 400.554603 98.050394 
L 401.189488 93.643694 
L 401.824372 104.226232 
L 402.459257 85.843545 
L 403.094141 77.480461 
L 403.729026 94.174458 
L 404.36391 82.257071 
L 404.998795 91.536856 
L 405.633679 84.669475 
L 406.268564 87.693053 
L 406.903448 96.184782 
L 407.538333 68.490138 
L 408.173217 93.57939 
L 408.808102 110.257282 
L 409.442986 89.976811 
L 410.077871 87.500065 
L 410.712755 85.698795 
L 411.34764 82.884272 
L 411.982524 91.697673 
L 412.617409 96.329532 
L 413.252293 82.08015 
L 413.887178 78.429334 
L 414.522062 86.374271 
L 415.156947 99.49786 
L 415.791831 83.093364 
L 416.426716 82.948614 
L 417.0616 106.670808 
L 417.696485 83.029022 
L 418.331369 115.242946 
L 418.966254 85.923953 
L 419.601138 88.191607 
L 420.236023 82.659113 
L 420.870908 92.067582 
L 421.505792 76.193812 
L 422.140677 91.199118 
L 422.775561 73.33109 
L 423.410446 100.30202 
L 424.04533 92.968217 
L 424.680215 100.028586 
L 425.315099 84.894634 
L 425.949984 84.589067 
L 426.584868 78.751005 
L 427.219753 88.465042 
L 427.854637 78.734901 
L 428.489522 92.341017 
L 429.124406 75.679191 
L 429.759291 65.820404 
L 430.394175 93.257718 
L 431.02906 81.662003 
L 431.663944 89.606902 
L 432.298829 79.394311 
L 432.933713 81.066935 
L 433.568598 74.778556 
L 434.203482 73.861816 
L 434.838367 84.42825 
L 435.473251 86.277758 
L 436.108136 87.62871 
L 436.74302 78.670597 
L 437.377905 76.016929 
L 438.012789 75.277111 
L 438.647674 76.435076 
L 439.282558 104.966012 
L 439.917443 84.122683 
L 440.552327 79.120915 
L 441.187212 80.584447 
L 441.822097 84.042236 
L 442.456981 79.281731 
L 443.091866 98.307724 
L 443.72675 81.903228 
L 444.361635 75.679191 
L 444.996519 90.041153 
L 445.631404 76.322496 
L 446.266288 69.696379 
L 446.901173 72.736022 
L 447.536057 70.452264 
L 448.170942 78.799243 
L 448.805826 66.399367 
L 450.075595 100.237678 
L 450.71048 77.625212 
L 451.980249 78.220279 
L 452.615133 87.435723 
L 453.250018 67.509095 
L 453.884902 94.833829 
L 454.519787 70.162763 
L 455.154671 62.973748 
L 455.789556 74.489055 
L 456.42444 76.402905 
L 457.694209 72.285705 
L 458.329094 84.621238 
L 458.963978 70.001946 
L 459.598863 75.936482 
L 460.233747 74.038738 
L 460.868632 64.019134 
L 461.503516 73.861816 
L 462.138401 69.583761 
L 462.773285 86.647667 
L 463.40817 70.32358 
L 464.043055 71.915796 
L 464.677939 74.054804 
L 465.312824 69.117377 
L 465.947708 67.846833 
L 466.582593 83.527615 
L 467.217477 78.654492 
L 467.852362 87.596578 
L 468.487246 72.977247 
L 469.122131 75.148427 
L 469.757015 74.489055 
L 470.3919 79.346073 
L 471.026784 85.232372 
L 471.661669 80.053721 
L 472.931438 62.539497 
L 474.201207 78.139833 
L 474.836091 82.031912 
L 475.470976 68.00765 
L 476.10586 61.220716 
L 476.740745 74.98761 
L 477.375629 76.869289 
L 478.010514 74.553359 
L 478.645398 74.601634 
L 479.280283 69.117377 
L 479.915167 62.201759 
L 480.550052 74.312134 
L 481.184936 62.426918 
L 481.819821 76.177746 
L 482.454705 70.982989 
L 483.08959 69.06914 
L 483.724474 60.882977 
L 484.359359 72.108783 
L 484.994244 66.592355 
L 485.629128 72.060546 
L 486.264013 75.534441 
L 486.898897 70.661318 
L 487.533782 61.268953 
L 488.168666 54.642836 
L 488.803551 65.128823 
L 489.438435 73.652724 
L 490.07332 79.169152 
L 490.708204 63.584883 
L 491.343089 75.421861 
L 491.977973 83.270285 
L 492.612858 63.198907 
L 493.247742 71.899691 
L 493.882627 76.740643 
L 494.517511 68.474072 
L 495.152396 71.851454 
L 495.78728 67.493029 
L 496.422165 83.141601 
L 497.057049 59.419407 
L 497.691934 63.986963 
L 498.326818 70.693489 
L 498.961703 68.538414 
L 499.596587 69.262128 
L 500.231472 61.654929 
L 500.866356 51.490574 
L 501.501241 71.401136 
L 502.136125 78.348925 
L 502.77101 77.576936 
L 503.405894 71.256386 
L 504.040779 70.082354 
L 504.675663 70.661318 
L 505.310548 76.306392 
L 505.945433 73.73317 
L 506.580317 64.887598 
L 507.215202 70.146696 
L 507.850086 69.390773 
L 508.484971 70.403988 
L 509.119855 57.425149 
L 509.75474 74.263896 
L 510.389624 71.883625 
L 511.659393 48.241839 
L 512.294278 62.282167 
L 512.929162 70.307513 
L 513.564047 62.378681 
L 514.198931 81.147343 
L 514.833816 59.226419 
L 515.4687 58.567048 
L 516.103585 64.276425 
L 516.738469 64.421176 
L 517.373354 69.310365 
L 518.008238 66.20638 
L 518.643123 67.348278 
L 519.278007 67.830767 
L 519.912892 66.20638 
L 520.547776 49.013828 
L 521.182661 70.259276 
L 521.817545 76.209917 
L 522.45243 60.786464 
L 523.087314 53.565279 
L 523.722199 67.943346 
L 524.357083 61.059861 
L 524.991968 67.428687 
L 526.261737 53.59745 
L 526.896621 67.493029 
L 527.531506 53.999492 
L 528.166391 66.640631 
L 528.801275 60.545239 
L 529.43616 64.453347 
L 530.071044 82.208795 
L 530.705929 55.720354 
L 531.340813 60.625648 
L 531.975698 80.327117 
L 532.610582 56.862252 
L 533.880351 64.791085 
L 534.515236 58.341889 
L 535.15012 67.042673 
L 535.785005 63.086328 
L 536.419889 63.713528 
L 537.054774 54.353335 
L 537.689658 70.709593 
L 538.324543 60.255739 
L 538.959427 67.171357 
L 539.594312 58.631351 
L 540.229196 54.305097 
L 540.864081 60.110988 
L 541.498965 49.480212 
L 542.13385 64.003029 
L 542.768734 59.644604 
L 543.403619 57.762887 
L 544.038503 59.129945 
L 544.673388 64.244293 
L 545.308272 64.228188 
L 545.943157 57.023069 
L 546.578041 58.438364 
L 547.212926 56.074197 
L 548.482695 75.50227 
L 549.11758 75.920416 
L 549.752464 59.322932 
L 550.387349 55.012745 
L 551.022233 56.347593 
L 551.657118 54.916232 
L 552.292002 62.684248 
L 552.926887 53.870846 
L 553.561771 57.698545 
L 554.196656 54.514152 
L 554.83154 65.402258 
L 555.466425 57.988046 
L 556.101309 47.518125 
L 556.736194 59.483749 
L 557.371078 55.044877 
L 558.005963 51.844417 
L 558.640847 62.812893 
L 559.275732 54.240755 
L 559.910616 53.436595 
L 560.545501 60.979452 
L 561.180385 53.677859 
L 561.81527 69.535524 
L 562.450154 52.27863 
L 563.085039 58.100626 
L 563.719923 53.838675 
L 564.354808 55.865104 
L 564.989692 70.757831 
L 565.624577 66.20638 
L 566.259461 66.962264 
L 566.894346 56.733607 
L 567.52923 59.097774 
L 568.164115 58.132797 
L 568.798999 55.897275 
L 569.433884 58.357955 
L 570.068768 51.072428 
L 570.703653 48.660024 
L 571.338538 52.423381 
L 571.973422 61.847916 
L 572.608307 64.0352 
L 573.243191 82.401821 
L 573.878076 60.963386 
L 574.51296 55.897275 
L 575.147845 58.743931 
L 575.782729 55.591708 
L 576.417614 68.683126 
L 576.417614 68.683126 
" clip-path="url(#p7bdd234d4e)" style="fill: none; stroke: #ff7f0e; stroke-width: 1.5; stroke-linecap: square"/>
   </g>
   <g id="line2d_39">
    <path d="M 43.78125 551.518125 
L 601.78125 551.518125 
" clip-path="url(#p7bdd234d4e)" style="fill: none; stroke-dasharray: 11.1,4.8; stroke-dashoffset: 0; stroke: #ff0000; stroke-width: 3"/>
   </g>
   <g id="patch_3">
    <path d="M 43.78125 576.718125 
L 43.78125 22.318125 
" style="fill: none; stroke: #000000; stroke-width: 0.8; stroke-linejoin: miter; stroke-linecap: square"/>
   </g>
   <g id="patch_4">
    <path d="M 601.78125 576.718125 
L 601.78125 22.318125 
" style="fill: none; stroke: #000000; stroke-width: 0.8; stroke-linejoin: miter; stroke-linecap: square"/>
   </g>
   <g id="patch_5">
    <path d="M 43.78125 576.718125 
L 601.78125 576.718125 
" style="fill: none; stroke: #000000; stroke-width: 0.8; stroke-linejoin: miter; stroke-linecap: square"/>
   </g>
   <g id="patch_6">
    <path d="M 43.78125 22.318125 
L 601.78125 22.318125 
" style="fill: none; stroke: #000000; stroke-width: 0.8; stroke-linejoin: miter; stroke-linecap: square"/>
   </g>
   <g id="text_21">
    <!-- Train and Val Accuracy -->
    <g transform="translate(255.002813 16.318125) scale(0.12 -0.12)">
     <defs>
      <path id="DejaVuSans-54" d="M -19 4666 
L 3928 4666 
L 3928 4134 
L 2272 4134 
L 2272 0 
L 1638 0 
L 1638 4134 
L -19 4134 
L -19 4666 
z
" transform="scale(0.015625)"/>
      <path id="DejaVuSans-69" d="M 603 3500 
L 1178 3500 
L 1178 0 
L 603 0 
L 603 3500 
z
M 603 4863 
L 1178 4863 
L 1178 4134 
L 603 4134 
L 603 4863 
z
" transform="scale(0.015625)"/>
      <path id="DejaVuSans-6e" d="M 3513 2113 
L 3513 0 
L 2938 0 
L 2938 2094 
Q 2938 2591 2744 2837 
Q 2550 3084 2163 3084 
Q 1697 3084 1428 2787 
Q 1159 2491 1159 1978 
L 1159 0 
L 581 0 
L 581 3500 
L 1159 3500 
L 1159 2956 
Q 1366 3272 1645 3428 
Q 1925 3584 2291 3584 
Q 2894 3584 3203 3211 
Q 3513 2838 3513 2113 
z
" transform="scale(0.015625)"/>
      <path id="DejaVuSans-20" transform="scale(0.015625)"/>
      <path id="DejaVuSans-64" d="M 2906 2969 
L 2906 4863 
L 3481 4863 
L 3481 0 
L 2906 0 
L 2906 525 
Q 2725 213 2448 61 
Q 2172 -91 1784 -91 
Q 1150 -91 751 415 
Q 353 922 353 1747 
Q 353 2572 751 3078 
Q 1150 3584 1784 3584 
Q 2172 3584 2448 3432 
Q 2725 3281 2906 2969 
z
M 947 1747 
Q 947 1113 1208 752 
Q 1469 391 1925 391 
Q 2381 391 2643 752 
Q 2906 1113 2906 1747 
Q 2906 2381 2643 2742 
Q 2381 3103 1925 3103 
Q 1469 3103 1208 2742 
Q 947 2381 947 1747 
z
" transform="scale(0.015625)"/>
      <path id="DejaVuSans-56" d="M 1831 0 
L 50 4666 
L 709 4666 
L 2188 738 
L 3669 4666 
L 4325 4666 
L 2547 0 
L 1831 0 
z
" transform="scale(0.015625)"/>
      <path id="DejaVuSans-6c" d="M 603 4863 
L 1178 4863 
L 1178 0 
L 603 0 
L 603 4863 
z
" transform="scale(0.015625)"/>
     </defs>
     <use xlink:href="#DejaVuSans-54"/>
     <use xlink:href="#DejaVuSans-72" transform="translate(46.333984 0)"/>
     <use xlink:href="#DejaVuSans-61" transform="translate(87.447266 0)"/>
     <use xlink:href="#DejaVuSans-69" transform="translate(148.726562 0)"/>
     <use xlink:href="#DejaVuSans-6e" transform="translate(176.509766 0)"/>
     <use xlink:href="#DejaVuSans-20" transform="translate(239.888672 0)"/>
     <use xlink:href="#DejaVuSans-61" transform="translate(271.675781 0)"/>
     <use xlink:href="#DejaVuSans-6e" transform="translate(332.955078 0)"/>
     <use xlink:href="#DejaVuSans-64" transform="translate(396.333984 0)"/>
     <use xlink:href="#DejaVuSans-20" transform="translate(459.810547 0)"/>
     <use xlink:href="#DejaVuSans-56" transform="translate(491.597656 0)"/>
     <use xlink:href="#DejaVuSans-61" transform="translate(552.255859 0)"/>
     <use xlink:href="#DejaVuSans-6c" transform="translate(613.535156 0)"/>
     <use xlink:href="#DejaVuSans-20" transform="translate(641.318359 0)"/>
     <use xlink:href="#DejaVuSans-41" transform="translate(673.105469 0)"/>
     <use xlink:href="#DejaVuSans-63" transform="translate(739.763672 0)"/>
     <use xlink:href="#DejaVuSans-63" transform="translate(794.744141 0)"/>
     <use xlink:href="#DejaVuSans-75" transform="translate(849.724609 0)"/>
     <use xlink:href="#DejaVuSans-72" transform="translate(913.103516 0)"/>
     <use xlink:href="#DejaVuSans-61" transform="translate(954.216797 0)"/>
     <use xlink:href="#DejaVuSans-63" transform="translate(1015.496094 0)"/>
     <use xlink:href="#DejaVuSans-79" transform="translate(1070.476562 0)"/>
    </g>
   </g>
   <g id="legend_1">
    <g id="patch_7">
     <path d="M 50.78125 74.90875 
L 217.904687 74.90875 
Q 219.904687 74.90875 219.904687 72.90875 
L 219.904687 29.318125 
Q 219.904687 27.318125 217.904687 27.318125 
L 50.78125 27.318125 
Q 48.78125 27.318125 48.78125 29.318125 
L 48.78125 72.90875 
Q 48.78125 74.90875 50.78125 74.90875 
z
" style="fill: #ffffff; opacity: 0.8; stroke: #cccccc; stroke-linejoin: miter"/>
    </g>
    <g id="line2d_40">
     <path d="M 52.78125 35.416562 
L 62.78125 35.416562 
L 72.78125 35.416562 
" style="fill: none; stroke: #1f77b4; stroke-width: 1.5; stroke-linecap: square"/>
    </g>
    <g id="text_22">
     <!-- train_accuracy -->
     <g transform="translate(80.78125 38.916562) scale(0.1 -0.1)">
      <defs>
       <path id="DejaVuSans-74" d="M 1172 4494 
L 1172 3500 
L 2356 3500 
L 2356 3053 
L 1172 3053 
L 1172 1153 
Q 1172 725 1289 603 
Q 1406 481 1766 481 
L 2356 481 
L 2356 0 
L 1766 0 
Q 1100 0 847 248 
Q 594 497 594 1153 
L 594 3053 
L 172 3053 
L 172 3500 
L 594 3500 
L 594 4494 
L 1172 4494 
z
" transform="scale(0.015625)"/>
       <path id="DejaVuSans-5f" d="M 3263 -1063 
L 3263 -1509 
L -63 -1509 
L -63 -1063 
L 3263 -1063 
z
" transform="scale(0.015625)"/>
      </defs>
      <use xlink:href="#DejaVuSans-74"/>
      <use xlink:href="#DejaVuSans-72" transform="translate(39.208984 0)"/>
      <use xlink:href="#DejaVuSans-61" transform="translate(80.322266 0)"/>
      <use xlink:href="#DejaVuSans-69" transform="translate(141.601562 0)"/>
      <use xlink:href="#DejaVuSans-6e" transform="translate(169.384766 0)"/>
      <use xlink:href="#DejaVuSans-5f" transform="translate(232.763672 0)"/>
      <use xlink:href="#DejaVuSans-61" transform="translate(282.763672 0)"/>
      <use xlink:href="#DejaVuSans-63" transform="translate(344.042969 0)"/>
      <use xlink:href="#DejaVuSans-63" transform="translate(399.023438 0)"/>
      <use xlink:href="#DejaVuSans-75" transform="translate(454.003906 0)"/>
      <use xlink:href="#DejaVuSans-72" transform="translate(517.382812 0)"/>
      <use xlink:href="#DejaVuSans-61" transform="translate(558.496094 0)"/>
      <use xlink:href="#DejaVuSans-63" transform="translate(619.775391 0)"/>
      <use xlink:href="#DejaVuSans-79" transform="translate(674.755859 0)"/>
     </g>
    </g>
    <g id="line2d_41">
     <path d="M 52.78125 50.372812 
L 62.78125 50.372812 
L 72.78125 50.372812 
" style="fill: none; stroke: #ff7f0e; stroke-width: 1.5; stroke-linecap: square"/>
    </g>
    <g id="text_23">
     <!-- val_accuracy -->
     <g transform="translate(80.78125 53.872812) scale(0.1 -0.1)">
      <defs>
       <path id="DejaVuSans-76" d="M 191 3500 
L 800 3500 
L 1894 563 
L 2988 3500 
L 3597 3500 
L 2284 0 
L 1503 0 
L 191 3500 
z
" transform="scale(0.015625)"/>
      </defs>
      <use xlink:href="#DejaVuSans-76"/>
      <use xlink:href="#DejaVuSans-61" transform="translate(59.179688 0)"/>
      <use xlink:href="#DejaVuSans-6c" transform="translate(120.458984 0)"/>
      <use xlink:href="#DejaVuSans-5f" transform="translate(148.242188 0)"/>
      <use xlink:href="#DejaVuSans-61" transform="translate(198.242188 0)"/>
      <use xlink:href="#DejaVuSans-63" transform="translate(259.521484 0)"/>
      <use xlink:href="#DejaVuSans-63" transform="translate(314.501953 0)"/>
      <use xlink:href="#DejaVuSans-75" transform="translate(369.482422 0)"/>
      <use xlink:href="#DejaVuSans-72" transform="translate(432.861328 0)"/>
      <use xlink:href="#DejaVuSans-61" transform="translate(473.974609 0)"/>
      <use xlink:href="#DejaVuSans-63" transform="translate(535.253906 0)"/>
      <use xlink:href="#DejaVuSans-79" transform="translate(590.234375 0)"/>
     </g>
    </g>
    <g id="line2d_42">
     <path d="M 52.78125 65.329062 
L 62.78125 65.329062 
L 72.78125 65.329062 
" style="fill: none; stroke-dasharray: 11.1,4.8; stroke-dashoffset: 0; stroke: #ff0000; stroke-width: 3"/>
    </g>
    <g id="text_24">
     <!-- Random-Guesser Accuracy -->
     <g transform="translate(80.78125 68.829062) scale(0.1 -0.1)">
      <defs>
       <path id="DejaVuSans-52" d="M 2841 2188 
Q 3044 2119 3236 1894 
Q 3428 1669 3622 1275 
L 4263 0 
L 3584 0 
L 2988 1197 
Q 2756 1666 2539 1819 
Q 2322 1972 1947 1972 
L 1259 1972 
L 1259 0 
L 628 0 
L 628 4666 
L 2053 4666 
Q 2853 4666 3247 4331 
Q 3641 3997 3641 3322 
Q 3641 2881 3436 2590 
Q 3231 2300 2841 2188 
z
M 1259 4147 
L 1259 2491 
L 2053 2491 
Q 2509 2491 2742 2702 
Q 2975 2913 2975 3322 
Q 2975 3731 2742 3939 
Q 2509 4147 2053 4147 
L 1259 4147 
z
" transform="scale(0.015625)"/>
       <path id="DejaVuSans-6d" d="M 3328 2828 
Q 3544 3216 3844 3400 
Q 4144 3584 4550 3584 
Q 5097 3584 5394 3201 
Q 5691 2819 5691 2113 
L 5691 0 
L 5113 0 
L 5113 2094 
Q 5113 2597 4934 2840 
Q 4756 3084 4391 3084 
Q 3944 3084 3684 2787 
Q 3425 2491 3425 1978 
L 3425 0 
L 2847 0 
L 2847 2094 
Q 2847 2600 2669 2842 
Q 2491 3084 2119 3084 
Q 1678 3084 1418 2786 
Q 1159 2488 1159 1978 
L 1159 0 
L 581 0 
L 581 3500 
L 1159 3500 
L 1159 2956 
Q 1356 3278 1631 3431 
Q 1906 3584 2284 3584 
Q 2666 3584 2933 3390 
Q 3200 3197 3328 2828 
z
" transform="scale(0.015625)"/>
       <path id="DejaVuSans-2d" d="M 313 2009 
L 1997 2009 
L 1997 1497 
L 313 1497 
L 313 2009 
z
" transform="scale(0.015625)"/>
       <path id="DejaVuSans-47" d="M 3809 666 
L 3809 1919 
L 2778 1919 
L 2778 2438 
L 4434 2438 
L 4434 434 
Q 4069 175 3628 42 
Q 3188 -91 2688 -91 
Q 1594 -91 976 548 
Q 359 1188 359 2328 
Q 359 3472 976 4111 
Q 1594 4750 2688 4750 
Q 3144 4750 3555 4637 
Q 3966 4525 4313 4306 
L 4313 3634 
Q 3963 3931 3569 4081 
Q 3175 4231 2741 4231 
Q 1884 4231 1454 3753 
Q 1025 3275 1025 2328 
Q 1025 1384 1454 906 
Q 1884 428 2741 428 
Q 3075 428 3337 486 
Q 3600 544 3809 666 
z
" transform="scale(0.015625)"/>
       <path id="DejaVuSans-65" d="M 3597 1894 
L 3597 1613 
L 953 1613 
Q 991 1019 1311 708 
Q 1631 397 2203 397 
Q 2534 397 2845 478 
Q 3156 559 3463 722 
L 3463 178 
Q 3153 47 2828 -22 
Q 2503 -91 2169 -91 
Q 1331 -91 842 396 
Q 353 884 353 1716 
Q 353 2575 817 3079 
Q 1281 3584 2069 3584 
Q 2775 3584 3186 3129 
Q 3597 2675 3597 1894 
z
M 3022 2063 
Q 3016 2534 2758 2815 
Q 2500 3097 2075 3097 
Q 1594 3097 1305 2825 
Q 1016 2553 972 2059 
L 3022 2063 
z
" transform="scale(0.015625)"/>
      </defs>
      <use xlink:href="#DejaVuSans-52"/>
      <use xlink:href="#DejaVuSans-61" transform="translate(67.232422 0)"/>
      <use xlink:href="#DejaVuSans-6e" transform="translate(128.511719 0)"/>
      <use xlink:href="#DejaVuSans-64" transform="translate(191.890625 0)"/>
      <use xlink:href="#DejaVuSans-6f" transform="translate(255.367188 0)"/>
      <use xlink:href="#DejaVuSans-6d" transform="translate(316.548828 0)"/>
      <use xlink:href="#DejaVuSans-2d" transform="translate(413.960938 0)"/>
      <use xlink:href="#DejaVuSans-47" transform="translate(453.669922 0)"/>
      <use xlink:href="#DejaVuSans-75" transform="translate(531.160156 0)"/>
      <use xlink:href="#DejaVuSans-65" transform="translate(594.539062 0)"/>
      <use xlink:href="#DejaVuSans-73" transform="translate(656.0625 0)"/>
      <use xlink:href="#DejaVuSans-73" transform="translate(708.162109 0)"/>
      <use xlink:href="#DejaVuSans-65" transform="translate(760.261719 0)"/>
      <use xlink:href="#DejaVuSans-72" transform="translate(821.785156 0)"/>
      <use xlink:href="#DejaVuSans-20" transform="translate(862.898438 0)"/>
      <use xlink:href="#DejaVuSans-41" transform="translate(894.685547 0)"/>
      <use xlink:href="#DejaVuSans-63" transform="translate(961.34375 0)"/>
      <use xlink:href="#DejaVuSans-63" transform="translate(1016.324219 0)"/>
      <use xlink:href="#DejaVuSans-75" transform="translate(1071.304688 0)"/>
      <use xlink:href="#DejaVuSans-72" transform="translate(1134.683594 0)"/>
      <use xlink:href="#DejaVuSans-61" transform="translate(1175.796875 0)"/>
      <use xlink:href="#DejaVuSans-63" transform="translate(1237.076172 0)"/>
      <use xlink:href="#DejaVuSans-79" transform="translate(1292.056641 0)"/>
     </g>
    </g>
   </g>
  </g>
 </g>
 <defs>
  <clipPath id="p7bdd234d4e">
   <rect x="43.78125" y="22.318125" width="558" height="554.4"/>
  </clipPath>
 </defs>
</svg>
