<?xml version="1.0" encoding="utf-8" standalone="no"?>
<!DOCTYPE svg PUBLIC "-//W3C//DTD SVG 1.1//EN"
  "http://www.w3.org/Graphics/SVG/1.1/DTD/svg11.dtd">
<svg xmlns:xlink="http://www.w3.org/1999/xlink" width="608.98125pt" height="614.274375pt" viewBox="0 0 608.98125 614.274375" xmlns="http://www.w3.org/2000/svg" version="1.1">
 <metadata>
  <rdf:RDF xmlns:dc="http://purl.org/dc/elements/1.1/" xmlns:cc="http://creativecommons.org/ns#" xmlns:rdf="http://www.w3.org/1999/02/22-rdf-syntax-ns#">
   <cc:Work>
    <dc:type rdf:resource="http://purl.org/dc/dcmitype/StillImage"/>
    <dc:date>2026-05-24T16:32:47.298527</dc:date>
    <dc:format>image/svg+xml</dc:format>
    <dc:creator>
     <cc:Agent>
      <dc:title>Matplotlib v3.10.9, https://matplotlib.org/</dc:title>
     </cc:Agent>
    </dc:creator>
   </cc:Work>
  </rdf:RDF>
 </metadata>
 <defs>
  <style type="text/css">*{stroke-linejoin: round; stroke-linecap: butt}</style>
 </defs>
 <g id="figure_1">
  <g id="patch_1">
   <path d="M 0 614.274375 
L 608.98125 614.274375 
L 608.98125 0 
L 0 0 
z
" style="fill: #ffffff"/>
  </g>
  <g id="axes_1">
   <g id="patch_2">
    <path d="M 43.78125 576.718125 
L 601.78125 576.718125 
L 601.78125 22.318125 
L 43.78125 22.318125 
z
" style="fill: #ffffff"/>
   </g>
   <g id="matplotlib.axis_1">
    <g id="xtick_1">
     <g id="line2d_1">
      <path d="M 69.144886 576.718125 
L 69.144886 22.318125 
" clip-path="url(#p30ee7cfc98)" style="fill: none; stroke: #b0b0b0; stroke-width: 0.8; stroke-linecap: square"/>
     </g>
     <g id="line2d_2">
      <defs>
       <path id="m4e344b8dbf" d="M 0 0 
L 0 3.5 
" style="stroke: #000000; stroke-width: 0.8"/>
      </defs>
      <g>
       <use xlink:href="#m4e344b8dbf" x="69.144886" y="576.718125" style="stroke: #000000; stroke-width: 0.8"/>
      </g>
     </g>
     <g id="text_1">
      <!-- 0 -->
      <g transform="translate(65.963636 591.316563) scale(0.1 -0.1)">
       <defs>
        <path id="DejaVuSans-30" d="M 2034 4250 
Q 1547 4250 1301 3770 
Q 1056 3291 1056 2328 
Q 1056 1369 1301 889 
Q 1547 409 2034 409 
Q 2525 409 2770 889 
Q 3016 1369 3016 2328 
Q 3016 3291 2770 3770 
Q 2525 4250 2034 4250 
z
M 2034 4750 
Q 2819 4750 3233 4129 
Q 3647 3509 3647 2328 
Q 3647 1150 3233 529 
Q 2819 -91 2034 -91 
Q 1250 -91 836 529 
Q 422 1150 422 2328 
Q 422 3509 836 4129 
Q 1250 4750 2034 4750 
z
" transform="scale(0.015625)"/>
       </defs>
       <use xlink:href="#DejaVuSans-30"/>
      </g>
     </g>
    </g>
    <g id="xtick_2">
     <g id="line2d_3">
      <path d="M 132.633338 576.718125 
L 132.633338 22.318125 
" clip-path="url(#p30ee7cfc98)" style="fill: none; stroke: #b0b0b0; stroke-width: 0.8; stroke-linecap: square"/>
     </g>
     <g id="line2d_4">
      <g>
       <use xlink:href="#m4e344b8dbf" x="132.633338" y="576.718125" style="stroke: #000000; stroke-width: 0.8"/>
      </g>
     </g>
     <g id="text_2">
      <!-- 100 -->
      <g transform="translate(123.089588 591.316563) scale(0.1 -0.1)">
       <defs>
        <path id="DejaVuSans-31" d="M 794 531 
L 1825 531 
L 1825 4091 
L 703 3866 
L 703 4441 
L 1819 4666 
L 2450 4666 
L 2450 531 
L 3481 531 
L 3481 0 
L 794 0 
L 794 531 
z
" transform="scale(0.015625)"/>
       </defs>
       <use xlink:href="#DejaVuSans-31"/>
       <use xlink:href="#DejaVuSans-30" transform="translate(63.623047 0)"/>
       <use xlink:href="#DejaVuSans-30" transform="translate(127.246094 0)"/>
      </g>
     </g>
    </g>
    <g id="xtick_3">
     <g id="line2d_5">
      <path d="M 196.121789 576.718125 
L 196.121789 22.318125 
" clip-path="url(#p30ee7cfc98)" style="fill: none; stroke: #b0b0b0; stroke-width: 0.8; stroke-linecap: square"/>
     </g>
     <g id="line2d_6">
      <g>
       <use xlink:href="#m4e344b8dbf" x="196.121789" y="576.718125" style="stroke: #000000; stroke-width: 0.8"/>
      </g>
     </g>
     <g id="text_3">
      <!-- 200 -->
      <g transform="translate(186.578039 591.316563) scale(0.1 -0.1)">
       <defs>
        <path id="DejaVuSans-32" d="M 1228 531 
L 3431 531 
L 3431 0 
L 469 0 
L 469 531 
Q 828 903 1448 1529 
Q 2069 2156 2228 2338 
Q 2531 2678 2651 2914 
Q 2772 3150 2772 3378 
Q 2772 3750 2511 3984 
Q 2250 4219 1831 4219 
Q 1534 4219 1204 4116 
Q 875 4013 500 3803 
L 500 4441 
Q 881 4594 1212 4672 
Q 1544 4750 1819 4750 
Q 2544 4750 2975 4387 
Q 3406 4025 3406 3419 
Q 3406 3131 3298 2873 
Q 3191 2616 2906 2266 
Q 2828 2175 2409 1742 
Q 1991 1309 1228 531 
z
" transform="scale(0.015625)"/>
       </defs>
       <use xlink:href="#DejaVuSans-32"/>
       <use xlink:href="#DejaVuSans-30" transform="translate(63.623047 0)"/>
       <use xlink:href="#DejaVuSans-30" transform="translate(127.246094 0)"/>
      </g>
     </g>
    </g>
    <g id="xtick_4">
     <g id="line2d_7">
      <path d="M 259.610241 576.718125 
L 259.610241 22.318125 
" clip-path="url(#p30ee7cfc98)" style="fill: none; stroke: #b0b0b0; stroke-width: 0.8; stroke-linecap: square"/>
     </g>
     <g id="line2d_8">
      <g>
       <use xlink:href="#m4e344b8dbf" x="259.610241" y="576.718125" style="stroke: #000000; stroke-width: 0.8"/>
      </g>
     </g>
     <g id="text_4">
      <!-- 300 -->
      <g transform="translate(250.066491 591.316563) scale(0.1 -0.1)">
       <defs>
        <path id="DejaVuSans-33" d="M 2597 2516 
Q 3050 2419 3304 2112 
Q 3559 1806 3559 1356 
Q 3559 666 3084 287 
Q 2609 -91 1734 -91 
Q 1441 -91 1130 -33 
Q 819 25 488 141 
L 488 750 
Q 750 597 1062 519 
Q 1375 441 1716 441 
Q 2309 441 2620 675 
Q 2931 909 2931 1356 
Q 2931 1769 2642 2001 
Q 2353 2234 1838 2234 
L 1294 2234 
L 1294 2753 
L 1863 2753 
Q 2328 2753 2575 2939 
Q 2822 3125 2822 3475 
Q 2822 3834 2567 4026 
Q 2313 4219 1838 4219 
Q 1578 4219 1281 4162 
Q 984 4106 628 3988 
L 628 4550 
Q 988 4650 1302 4700 
Q 1616 4750 1894 4750 
Q 2613 4750 3031 4423 
Q 3450 4097 3450 3541 
Q 3450 3153 3228 2886 
Q 3006 2619 2597 2516 
z
" transform="scale(0.015625)"/>
       </defs>
       <use xlink:href="#DejaVuSans-33"/>
       <use xlink:href="#DejaVuSans-30" transform="translate(63.623047 0)"/>
       <use xlink:href="#DejaVuSans-30" transform="translate(127.246094 0)"/>
      </g>
     </g>
    </g>
    <g id="xtick_5">
     <g id="line2d_9">
      <path d="M 323.098692 576.718125 
L 323.098692 22.318125 
" clip-path="url(#p30ee7cfc98)" style="fill: none; stroke: #b0b0b0; stroke-width: 0.8; stroke-linecap: square"/>
     </g>
     <g id="line2d_10">
      <g>
       <use xlink:href="#m4e344b8dbf" x="323.098692" y="576.718125" style="stroke: #000000; stroke-width: 0.8"/>
      </g>
     </g>
     <g id="text_5">
      <!-- 400 -->
      <g transform="translate(313.554942 591.316563) scale(0.1 -0.1)">
       <defs>
        <path id="DejaVuSans-34" d="M 2419 4116 
L 825 1625 
L 2419 1625 
L 2419 4116 
z
M 2253 4666 
L 3047 4666 
L 3047 1625 
L 3713 1625 
L 3713 1100 
L 3047 1100 
L 3047 0 
L 2419 0 
L 2419 1100 
L 313 1100 
L 313 1709 
L 2253 4666 
z
" transform="scale(0.015625)"/>
       </defs>
       <use xlink:href="#DejaVuSans-34"/>
       <use xlink:href="#DejaVuSans-30" transform="translate(63.623047 0)"/>
       <use xlink:href="#DejaVuSans-30" transform="translate(127.246094 0)"/>
      </g>
     </g>
    </g>
    <g id="xtick_6">
     <g id="line2d_11">
      <path d="M 386.587144 576.718125 
L 386.587144 22.318125 
" clip-path="url(#p30ee7cfc98)" style="fill: none; stroke: #b0b0b0; stroke-width: 0.8; stroke-linecap: square"/>
     </g>
     <g id="line2d_12">
      <g>
       <use xlink:href="#m4e344b8dbf" x="386.587144" y="576.718125" style="stroke: #000000; stroke-width: 0.8"/>
      </g>
     </g>
     <g id="text_6">
      <!-- 500 -->
      <g transform="translate(377.043394 591.316563) scale(0.1 -0.1)">
       <defs>
        <path id="DejaVuSans-35" d="M 691 4666 
L 3169 4666 
L 3169 4134 
L 1269 4134 
L 1269 2991 
Q 1406 3038 1543 3061 
Q 1681 3084 1819 3084 
Q 2600 3084 3056 2656 
Q 3513 2228 3513 1497 
Q 3513 744 3044 326 
Q 2575 -91 1722 -91 
Q 1428 -91 1123 -41 
Q 819 9 494 109 
L 494 744 
Q 775 591 1075 516 
Q 1375 441 1709 441 
Q 2250 441 2565 725 
Q 2881 1009 2881 1497 
Q 2881 1984 2565 2268 
Q 2250 2553 1709 2553 
Q 1456 2553 1204 2497 
Q 953 2441 691 2322 
L 691 4666 
z
" transform="scale(0.015625)"/>
       </defs>
       <use xlink:href="#DejaVuSans-35"/>
       <use xlink:href="#DejaVuSans-30" transform="translate(63.623047 0)"/>
       <use xlink:href="#DejaVuSans-30" transform="translate(127.246094 0)"/>
      </g>
     </g>
    </g>
    <g id="xtick_7">
     <g id="line2d_13">
      <path d="M 450.075595 576.718125 
L 450.075595 22.318125 
" clip-path="url(#p30ee7cfc98)" style="fill: none; stroke: #b0b0b0; stroke-width: 0.8; stroke-linecap: square"/>
     </g>
     <g id="line2d_14">
      <g>
       <use xlink:href="#m4e344b8dbf" x="450.075595" y="576.718125" style="stroke: #000000; stroke-width: 0.8"/>
      </g>
     </g>
     <g id="text_7">
      <!-- 600 -->
      <g transform="translate(440.531845 591.316563) scale(0.1 -0.1)">
       <defs>
        <path id="DejaVuSans-36" d="M 2113 2584 
Q 1688 2584 1439 2293 
Q 1191 2003 1191 1497 
Q 1191 994 1439 701 
Q 1688 409 2113 409 
Q 2538 409 2786 701 
Q 3034 994 3034 1497 
Q 3034 2003 2786 2293 
Q 2538 2584 2113 2584 
z
M 3366 4563 
L 3366 3988 
Q 3128 4100 2886 4159 
Q 2644 4219 2406 4219 
Q 1781 4219 1451 3797 
Q 1122 3375 1075 2522 
Q 1259 2794 1537 2939 
Q 1816 3084 2150 3084 
Q 2853 3084 3261 2657 
Q 3669 2231 3669 1497 
Q 3669 778 3244 343 
Q 2819 -91 2113 -91 
Q 1303 -91 875 529 
Q 447 1150 447 2328 
Q 447 3434 972 4092 
Q 1497 4750 2381 4750 
Q 2619 4750 2861 4703 
Q 3103 4656 3366 4563 
z
" transform="scale(0.015625)"/>
       </defs>
       <use xlink:href="#DejaVuSans-36"/>
       <use xlink:href="#DejaVuSans-30" transform="translate(63.623047 0)"/>
       <use xlink:href="#DejaVuSans-30" transform="translate(127.246094 0)"/>
      </g>
     </g>
    </g>
    <g id="xtick_8">
     <g id="line2d_15">
      <path d="M 513.564047 576.718125 
L 513.564047 22.318125 
" clip-path="url(#p30ee7cfc98)" style="fill: none; stroke: #b0b0b0; stroke-width: 0.8; stroke-linecap: square"/>
     </g>
     <g id="line2d_16">
      <g>
       <use xlink:href="#m4e344b8dbf" x="513.564047" y="576.718125" style="stroke: #000000; stroke-width: 0.8"/>
      </g>
     </g>
     <g id="text_8">
      <!-- 700 -->
      <g transform="translate(504.020297 591.316563) scale(0.1 -0.1)">
       <defs>
        <path id="DejaVuSans-37" d="M 525 4666 
L 3525 4666 
L 3525 4397 
L 1831 0 
L 1172 0 
L 2766 4134 
L 525 4134 
L 525 4666 
z
" transform="scale(0.015625)"/>
       </defs>
       <use xlink:href="#DejaVuSans-37"/>
       <use xlink:href="#DejaVuSans-30" transform="translate(63.623047 0)"/>
       <use xlink:href="#DejaVuSans-30" transform="translate(127.246094 0)"/>
      </g>
     </g>
    </g>
    <g id="xtick_9">
     <g id="line2d_17">
      <path d="M 577.052498 576.718125 
L 577.052498 22.318125 
" clip-path="url(#p30ee7cfc98)" style="fill: none; stroke: #b0b0b0; stroke-width: 0.8; stroke-linecap: square"/>
     </g>
     <g id="line2d_18">
      <g>
       <use xlink:href="#m4e344b8dbf" x="577.052498" y="576.718125" style="stroke: #000000; stroke-width: 0.8"/>
      </g>
     </g>
     <g id="text_9">
      <!-- 800 -->
      <g transform="translate(567.508748 591.316563) scale(0.1 -0.1)">
       <defs>
        <path id="DejaVuSans-38" d="M 2034 2216 
Q 1584 2216 1326 1975 
Q 1069 1734 1069 1313 
Q 1069 891 1326 650 
Q 1584 409 2034 409 
Q 2484 409 2743 651 
Q 3003 894 3003 1313 
Q 3003 1734 2745 1975 
Q 2488 2216 2034 2216 
z
M 1403 2484 
Q 997 2584 770 2862 
Q 544 3141 544 3541 
Q 544 4100 942 4425 
Q 1341 4750 2034 4750 
Q 2731 4750 3128 4425 
Q 3525 4100 3525 3541 
Q 3525 3141 3298 2862 
Q 3072 2584 2669 2484 
Q 3125 2378 3379 2068 
Q 3634 1759 3634 1313 
Q 3634 634 3220 271 
Q 2806 -91 2034 -91 
Q 1263 -91 848 271 
Q 434 634 434 1313 
Q 434 1759 690 2068 
Q 947 2378 1403 2484 
z
M 1172 3481 
Q 1172 3119 1398 2916 
Q 1625 2713 2034 2713 
Q 2441 2713 2670 2916 
Q 2900 3119 2900 3481 
Q 2900 3844 2670 4047 
Q 2441 4250 2034 4250 
Q 1625 4250 1398 4047 
Q 1172 3844 1172 3481 
z
" transform="scale(0.015625)"/>
       </defs>
       <use xlink:href="#DejaVuSans-38"/>
       <use xlink:href="#DejaVuSans-30" transform="translate(63.623047 0)"/>
       <use xlink:href="#DejaVuSans-30" transform="translate(127.246094 0)"/>
      </g>
     </g>
    </g>
    <g id="text_10">
     <!-- Epochs -->
     <g transform="translate(304.865625 604.994688) scale(0.1 -0.1)">
      <defs>
       <path id="DejaVuSans-45" d="M 628 4666 
L 3578 4666 
L 3578 4134 
L 1259 4134 
L 1259 2753 
L 3481 2753 
L 3481 2222 
L 1259 2222 
L 1259 531 
L 3634 531 
L 3634 0 
L 628 0 
L 628 4666 
z
" transform="scale(0.015625)"/>
       <path id="DejaVuSans-70" d="M 1159 525 
L 1159 -1331 
L 581 -1331 
L 581 3500 
L 1159 3500 
L 1159 2969 
Q 1341 3281 1617 3432 
Q 1894 3584 2278 3584 
Q 2916 3584 3314 3078 
Q 3713 2572 3713 1747 
Q 3713 922 3314 415 
Q 2916 -91 2278 -91 
Q 1894 -91 1617 61 
Q 1341 213 1159 525 
z
M 3116 1747 
Q 3116 2381 2855 2742 
Q 2594 3103 2138 3103 
Q 1681 3103 1420 2742 
Q 1159 2381 1159 1747 
Q 1159 1113 1420 752 
Q 1681 391 2138 391 
Q 2594 391 2855 752 
Q 3116 1113 3116 1747 
z
" transform="scale(0.015625)"/>
       <path id="DejaVuSans-6f" d="M 1959 3097 
Q 1497 3097 1228 2736 
Q 959 2375 959 1747 
Q 959 1119 1226 758 
Q 1494 397 1959 397 
Q 2419 397 2687 759 
Q 2956 1122 2956 1747 
Q 2956 2369 2687 2733 
Q 2419 3097 1959 3097 
z
M 1959 3584 
Q 2709 3584 3137 3096 
Q 3566 2609 3566 1747 
Q 3566 888 3137 398 
Q 2709 -91 1959 -91 
Q 1206 -91 779 398 
Q 353 888 353 1747 
Q 353 2609 779 3096 
Q 1206 3584 1959 3584 
z
" transform="scale(0.015625)"/>
       <path id="DejaVuSans-63" d="M 3122 3366 
L 3122 2828 
Q 2878 2963 2633 3030 
Q 2388 3097 2138 3097 
Q 1578 3097 1268 2742 
Q 959 2388 959 1747 
Q 959 1106 1268 751 
Q 1578 397 2138 397 
Q 2388 397 2633 464 
Q 2878 531 3122 666 
L 3122 134 
Q 2881 22 2623 -34 
Q 2366 -91 2075 -91 
Q 1284 -91 818 406 
Q 353 903 353 1747 
Q 353 2603 823 3093 
Q 1294 3584 2113 3584 
Q 2378 3584 2631 3529 
Q 2884 3475 3122 3366 
z
" transform="scale(0.015625)"/>
       <path id="DejaVuSans-68" d="M 3513 2113 
L 3513 0 
L 2938 0 
L 2938 2094 
Q 2938 2591 2744 2837 
Q 2550 3084 2163 3084 
Q 1697 3084 1428 2787 
Q 1159 2491 1159 1978 
L 1159 0 
L 581 0 
L 581 4863 
L 1159 4863 
L 1159 2956 
Q 1366 3272 1645 3428 
Q 1925 3584 2291 3584 
Q 2894 3584 3203 3211 
Q 3513 2838 3513 2113 
z
" transform="scale(0.015625)"/>
       <path id="DejaVuSans-73" d="M 2834 3397 
L 2834 2853 
Q 2591 2978 2328 3040 
Q 2066 3103 1784 3103 
Q 1356 3103 1142 2972 
Q 928 2841 928 2578 
Q 928 2378 1081 2264 
Q 1234 2150 1697 2047 
L 1894 2003 
Q 2506 1872 2764 1633 
Q 3022 1394 3022 966 
Q 3022 478 2636 193 
Q 2250 -91 1575 -91 
Q 1294 -91 989 -36 
Q 684 19 347 128 
L 347 722 
Q 666 556 975 473 
Q 1284 391 1588 391 
Q 1994 391 2212 530 
Q 2431 669 2431 922 
Q 2431 1156 2273 1281 
Q 2116 1406 1581 1522 
L 1381 1569 
Q 847 1681 609 1914 
Q 372 2147 372 2553 
Q 372 3047 722 3315 
Q 1072 3584 1716 3584 
Q 2034 3584 2315 3537 
Q 2597 3491 2834 3397 
z
" transform="scale(0.015625)"/>
      </defs>
      <use xlink:href="#DejaVuSans-45"/>
      <use xlink:href="#DejaVuSans-70" transform="translate(63.183594 0)"/>
      <use xlink:href="#DejaVuSans-6f" transform="translate(126.660156 0)"/>
      <use xlink:href="#DejaVuSans-63" transform="translate(187.841797 0)"/>
      <use xlink:href="#DejaVuSans-68" transform="translate(242.822266 0)"/>
      <use xlink:href="#DejaVuSans-73" transform="translate(306.201172 0)"/>
     </g>
    </g>
   </g>
   <g id="matplotlib.axis_2">
    <g id="ytick_1">
     <g id="line2d_19">
      <path d="M 43.78125 540.316924 
L 601.78125 540.316924 
" clip-path="url(#p30ee7cfc98)" style="fill: none; stroke: #b0b0b0; stroke-width: 0.8; stroke-linecap: square"/>
     </g>
     <g id="line2d_20">
      <defs>
       <path id="mb558adb977" d="M 0 0 
L -3.5 0 
" style="stroke: #000000; stroke-width: 0.8"/>
      </defs>
      <g>
       <use xlink:href="#mb558adb977" x="43.78125" y="540.316924" style="stroke: #000000; stroke-width: 0.8"/>
      </g>
     </g>
     <g id="text_11">
      <!-- 4.0 -->
      <g transform="translate(20.878125 544.116143) scale(0.1 -0.1)">
       <defs>
        <path id="DejaVuSans-2e" d="M 684 794 
L 1344 794 
L 1344 0 
L 684 0 
L 684 794 
z
" transform="scale(0.015625)"/>
       </defs>
       <use xlink:href="#DejaVuSans-34"/>
       <use xlink:href="#DejaVuSans-2e" transform="translate(63.623047 0)"/>
       <use xlink:href="#DejaVuSans-30" transform="translate(95.410156 0)"/>
      </g>
     </g>
    </g>
    <g id="ytick_2">
     <g id="line2d_21">
      <path d="M 43.78125 466.627794 
L 601.78125 466.627794 
" clip-path="url(#p30ee7cfc98)" style="fill: none; stroke: #b0b0b0; stroke-width: 0.8; stroke-linecap: square"/>
     </g>
     <g id="line2d_22">
      <g>
       <use xlink:href="#mb558adb977" x="43.78125" y="466.627794" style="stroke: #000000; stroke-width: 0.8"/>
      </g>
     </g>
     <g id="text_12">
      <!-- 4.5 -->
      <g transform="translate(20.878125 470.427013) scale(0.1 -0.1)">
       <use xlink:href="#DejaVuSans-34"/>
       <use xlink:href="#DejaVuSans-2e" transform="translate(63.623047 0)"/>
       <use xlink:href="#DejaVuSans-35" transform="translate(95.410156 0)"/>
      </g>
     </g>
    </g>
    <g id="ytick_3">
     <g id="line2d_23">
      <path d="M 43.78125 392.938664 
L 601.78125 392.938664 
" clip-path="url(#p30ee7cfc98)" style="fill: none; stroke: #b0b0b0; stroke-width: 0.8; stroke-linecap: square"/>
     </g>
     <g id="line2d_24">
      <g>
       <use xlink:href="#mb558adb977" x="43.78125" y="392.938664" style="stroke: #000000; stroke-width: 0.8"/>
      </g>
     </g>
     <g id="text_13">
      <!-- 5.0 -->
      <g transform="translate(20.878125 396.737882) scale(0.1 -0.1)">
       <use xlink:href="#DejaVuSans-35"/>
       <use xlink:href="#DejaVuSans-2e" transform="translate(63.623047 0)"/>
       <use xlink:href="#DejaVuSans-30" transform="translate(95.410156 0)"/>
      </g>
     </g>
    </g>
    <g id="ytick_4">
     <g id="line2d_25">
      <path d="M 43.78125 319.249533 
L 601.78125 319.249533 
" clip-path="url(#p30ee7cfc98)" style="fill: none; stroke: #b0b0b0; stroke-width: 0.8; stroke-linecap: square"/>
     </g>
     <g id="line2d_26">
      <g>
       <use xlink:href="#mb558adb977" x="43.78125" y="319.249533" style="stroke: #000000; stroke-width: 0.8"/>
      </g>
     </g>
     <g id="text_14">
      <!-- 5.5 -->
      <g transform="translate(20.878125 323.048752) scale(0.1 -0.1)">
       <use xlink:href="#DejaVuSans-35"/>
       <use xlink:href="#DejaVuSans-2e" transform="translate(63.623047 0)"/>
       <use xlink:href="#DejaVuSans-35" transform="translate(95.410156 0)"/>
      </g>
     </g>
    </g>
    <g id="ytick_5">
     <g id="line2d_27">
      <path d="M 43.78125 245.560403 
L 601.78125 245.560403 
" clip-path="url(#p30ee7cfc98)" style="fill: none; stroke: #b0b0b0; stroke-width: 0.8; stroke-linecap: square"/>
     </g>
     <g id="line2d_28">
      <g>
       <use xlink:href="#mb558adb977" x="43.78125" y="245.560403" style="stroke: #000000; stroke-width: 0.8"/>
      </g>
     </g>
     <g id="text_15">
      <!-- 6.0 -->
      <g transform="translate(20.878125 249.359622) scale(0.1 -0.1)">
       <use xlink:href="#DejaVuSans-36"/>
       <use xlink:href="#DejaVuSans-2e" transform="translate(63.623047 0)"/>
       <use xlink:href="#DejaVuSans-30" transform="translate(95.410156 0)"/>
      </g>
     </g>
    </g>
    <g id="ytick_6">
     <g id="line2d_29">
      <path d="M 43.78125 171.871273 
L 601.78125 171.871273 
" clip-path="url(#p30ee7cfc98)" style="fill: none; stroke: #b0b0b0; stroke-width: 0.8; stroke-linecap: square"/>
     </g>
     <g id="line2d_30">
      <g>
       <use xlink:href="#mb558adb977" x="43.78125" y="171.871273" style="stroke: #000000; stroke-width: 0.8"/>
      </g>
     </g>
     <g id="text_16">
      <!-- 6.5 -->
      <g transform="translate(20.878125 175.670492) scale(0.1 -0.1)">
       <use xlink:href="#DejaVuSans-36"/>
       <use xlink:href="#DejaVuSans-2e" transform="translate(63.623047 0)"/>
       <use xlink:href="#DejaVuSans-35" transform="translate(95.410156 0)"/>
      </g>
     </g>
    </g>
    <g id="ytick_7">
     <g id="line2d_31">
      <path d="M 43.78125 98.182143 
L 601.78125 98.182143 
" clip-path="url(#p30ee7cfc98)" style="fill: none; stroke: #b0b0b0; stroke-width: 0.8; stroke-linecap: square"/>
     </g>
     <g id="line2d_32">
      <g>
       <use xlink:href="#mb558adb977" x="43.78125" y="98.182143" style="stroke: #000000; stroke-width: 0.8"/>
      </g>
     </g>
     <g id="text_17">
      <!-- 7.0 -->
      <g transform="translate(20.878125 101.981362) scale(0.1 -0.1)">
       <use xlink:href="#DejaVuSans-37"/>
       <use xlink:href="#DejaVuSans-2e" transform="translate(63.623047 0)"/>
       <use xlink:href="#DejaVuSans-30" transform="translate(95.410156 0)"/>
      </g>
     </g>
    </g>
    <g id="ytick_8">
     <g id="line2d_33">
      <path d="M 43.78125 24.493013 
L 601.78125 24.493013 
" clip-path="url(#p30ee7cfc98)" style="fill: none; stroke: #b0b0b0; stroke-width: 0.8; stroke-linecap: square"/>
     </g>
     <g id="line2d_34">
      <g>
       <use xlink:href="#mb558adb977" x="43.78125" y="24.493013" style="stroke: #000000; stroke-width: 0.8"/>
      </g>
     </g>
     <g id="text_18">
      <!-- 7.5 -->
      <g transform="translate(20.878125 28.292231) scale(0.1 -0.1)">
       <use xlink:href="#DejaVuSans-37"/>
       <use xlink:href="#DejaVuSans-2e" transform="translate(63.623047 0)"/>
       <use xlink:href="#DejaVuSans-35" transform="translate(95.410156 0)"/>
      </g>
     </g>
    </g>
    <g id="text_19">
     <!-- Loss -->
     <g transform="translate(14.798438 310.485313) rotate(-90) scale(0.1 -0.1)">
      <defs>
       <path id="DejaVuSans-4c" d="M 628 4666 
L 1259 4666 
L 1259 531 
L 3531 531 
L 3531 0 
L 628 0 
L 628 4666 
z
" transform="scale(0.015625)"/>
      </defs>
      <use xlink:href="#DejaVuSans-4c"/>
      <use xlink:href="#DejaVuSans-6f" transform="translate(53.962891 0)"/>
      <use xlink:href="#DejaVuSans-73" transform="translate(115.144531 0)"/>
      <use xlink:href="#DejaVuSans-73" transform="translate(167.244141 0)"/>
     </g>
    </g>
   </g>
   <g id="line2d_35">
    <path d="M 69.144886 311.011215 
L 69.779771 312.443147 
L 71.04954 313.130862 
L 76.763501 315.74799 
L 80.572808 317.899613 
L 83.74723 320.000216 
L 87.556537 322.827045 
L 92.635613 327.093818 
L 97.71469 331.686598 
L 108.507726 342.138944 
L 121.840301 355.728315 
L 133.268222 366.679898 
L 142.156606 374.698254 
L 152.314758 383.379518 
L 161.203141 390.616974 
L 168.821755 396.559043 
L 182.15433 406.454808 
L 188.503175 410.944424 
L 197.391558 416.98277 
L 202.470634 420.32535 
L 220.882285 431.799009 
L 245.007897 445.521411 
L 258.975356 452.878476 
L 260.88001 453.836822 
L 264.054432 455.449924 
L 277.387007 461.991724 
L 279.291661 462.842127 
L 283.100968 464.641951 
L 286.910275 466.392863 
L 301.512619 472.87542 
L 304.052157 473.960192 
L 309.766117 476.41414 
L 330.717306 484.850775 
L 348.494073 491.563766 
L 349.763842 492.020064 
L 352.30338 492.894782 
L 380.238299 502.478664 
L 382.777837 503.295476 
L 385.317375 504.134916 
L 386.587144 504.493883 
L 388.491797 505.097689 
L 394.205758 506.916488 
L 396.110411 507.503287 
L 401.189488 509.083079 
L 403.094141 509.608037 
L 404.36391 510.038474 
L 418.966254 514.321058 
L 420.870908 514.849811 
L 422.140677 515.233515 
L 425.949984 516.29896 
L 438.647674 519.846675 
L 467.217477 527.408733 
L 468.487246 527.701219 
L 489.438435 532.902796 
L 491.977973 533.451014 
L 495.152396 534.239435 
L 498.326818 534.986462 
L 507.215202 537.060501 
L 509.75474 537.615958 
L 510.389624 537.808372 
L 511.659393 538.051596 
L 530.071044 542.110142 
L 531.975698 542.498379 
L 533.245467 542.760682 
L 537.689658 543.742043 
L 540.864081 544.37526 
L 542.13385 544.674352 
L 547.212926 545.68681 
L 549.752464 546.228528 
L 562.450154 548.822957 
L 563.719923 549.082343 
L 566.259461 549.548059 
L 567.52923 549.810783 
L 570.068768 550.327729 
L 571.338538 550.570672 
L 573.243191 550.918676 
L 576.417614 551.518125 
L 576.417614 551.518125 
" clip-path="url(#p30ee7cfc98)" style="fill: none; stroke: #1f77b4; stroke-width: 1.5; stroke-linecap: square"/>
   </g>
   <g id="line2d_36">
    <path d="M 69.144886 311.991838 
L 69.779771 312.129648 
L 71.684424 312.111728 
L 78.03327 311.245724 
L 85.016999 309.730726 
L 86.921653 309.204644 
L 90.73096 308.079394 
L 91.365844 307.795552 
L 93.270498 307.210439 
L 93.905382 307.032782 
L 95.810036 306.13164 
L 96.44492 306.125948 
L 97.079805 305.801768 
L 97.71469 305.74885 
L 98.349574 305.275545 
L 99.619343 304.854455 
L 100.254228 304.591414 
L 101.523997 304.234204 
L 104.698419 302.825322 
L 105.333304 302.71773 
L 105.968188 302.343935 
L 107.237957 301.835703 
L 107.872842 301.439842 
L 109.142611 301.170476 
L 112.317033 299.902707 
L 112.951918 299.383583 
L 114.221687 298.951037 
L 115.491456 298.348426 
L 116.12634 298.246948 
L 117.396109 297.491065 
L 118.665879 297.096961 
L 119.935648 296.480997 
L 120.570532 295.957585 
L 121.205417 295.955336 
L 121.840301 295.225596 
L 122.475186 295.204303 
L 123.11007 294.93571 
L 123.744955 294.372453 
L 125.649608 293.595347 
L 126.284493 293.282551 
L 126.919377 293.242564 
L 127.554262 292.781347 
L 128.189146 292.007263 
L 128.824031 291.838531 
L 129.458915 291.383568 
L 130.0938 291.273728 
L 130.728684 290.617425 
L 131.363569 290.199497 
L 131.998453 290.256983 
L 133.268222 289.320984 
L 133.903107 288.895185 
L 134.537991 288.321176 
L 135.172876 288.257717 
L 138.347298 286.184522 
L 139.617067 285.666311 
L 140.251952 285.057514 
L 145.331028 281.634258 
L 145.965913 281.491247 
L 146.600797 280.9256 
L 147.235682 280.677598 
L 149.140335 278.85381 
L 149.77522 278.920712 
L 150.410104 278.255696 
L 151.679873 277.604102 
L 152.314758 276.914349 
L 152.949642 276.646178 
L 153.584527 275.935482 
L 154.854296 275.726764 
L 155.48918 274.931879 
L 156.758949 274.00607 
L 157.393834 273.632486 
L 158.028718 273.390669 
L 158.663603 272.766693 
L 159.298487 272.680184 
L 159.933372 272.340613 
L 160.568256 271.417545 
L 161.203141 271.127448 
L 161.838026 270.514365 
L 163.107795 269.62496 
L 164.377564 269.119539 
L 166.917102 266.935449 
L 167.551986 266.720827 
L 168.186871 266.038945 
L 169.45664 265.40499 
L 170.091524 265.011729 
L 170.726409 264.374752 
L 171.361293 263.96069 
L 171.996178 263.684156 
L 172.631062 263.240577 
L 173.265947 262.474856 
L 173.900831 262.112867 
L 174.535716 261.956013 
L 175.805485 260.657604 
L 176.440369 260.714175 
L 177.075254 260.084367 
L 177.710138 259.647605 
L 178.345023 258.842108 
L 178.979907 258.852228 
L 179.614792 258.608513 
L 180.249676 257.724518 
L 180.884561 257.175878 
L 181.519445 256.866033 
L 182.15433 256.724569 
L 183.424099 255.376265 
L 184.058984 255.24752 
L 184.693868 254.745191 
L 185.328753 254.601689 
L 185.963637 253.562667 
L 186.598522 253.622682 
L 187.233406 253.116628 
L 187.868291 252.266647 
L 188.503175 252.151887 
L 189.13806 252.213238 
L 189.772944 251.266065 
L 190.407829 250.890303 
L 191.677598 249.706583 
L 192.312482 249.500957 
L 192.947367 249.041707 
L 193.582251 248.361652 
L 194.217136 248.31773 
L 194.85202 247.592628 
L 195.486905 247.461143 
L 196.121789 246.744614 
L 198.026443 245.279793 
L 198.661327 244.387928 
L 199.296212 244.526933 
L 200.565981 243.340824 
L 201.200865 243.26844 
L 201.83575 242.489648 
L 202.470634 242.3193 
L 203.105519 242.528862 
L 203.740403 240.636485 
L 204.375288 241.026443 
L 205.010173 240.432756 
L 205.645057 240.072173 
L 206.279942 239.276655 
L 206.914826 239.05079 
L 208.184595 238.204041 
L 209.454364 236.895513 
L 210.089249 236.581733 
L 210.724133 236.498738 
L 211.359018 236.174417 
L 211.993902 235.344394 
L 213.263671 234.656397 
L 213.898556 234.11366 
L 214.53344 234.209726 
L 215.168325 233.166417 
L 216.438094 232.539771 
L 217.072978 231.625066 
L 217.707863 231.821205 
L 218.977632 230.70488 
L 219.612516 230.848874 
L 220.882285 228.583265 
L 221.51717 228.786431 
L 222.152054 228.133502 
L 222.786939 227.849308 
L 224.691592 226.43895 
L 225.961362 226.177315 
L 226.596246 225.348346 
L 227.231131 225.237943 
L 227.866015 223.863848 
L 228.5009 224.60701 
L 230.405553 222.280121 
L 231.040438 222.427348 
L 231.675322 222.339714 
L 232.310207 222.075408 
L 232.945091 221.673644 
L 233.579976 220.38156 
L 234.21486 220.569687 
L 234.849745 219.985698 
L 235.484629 220.16483 
L 236.119514 219.104304 
L 236.754398 219.135857 
L 237.389283 218.50626 
L 238.024167 218.435633 
L 238.659052 217.09548 
L 239.928821 216.292865 
L 240.563705 215.850832 
L 241.19859 215.781119 
L 241.833474 214.976747 
L 242.468359 214.510891 
L 243.103243 214.738232 
L 244.373012 213.227521 
L 245.007897 213.189572 
L 245.642781 212.120823 
L 246.91255 211.839019 
L 247.547435 211.256717 
L 248.18232 211.593125 
L 248.817204 210.020572 
L 249.452089 210.24201 
L 250.086973 209.556754 
L 250.721858 209.175931 
L 251.356742 208.398826 
L 251.991627 208.900944 
L 252.626511 207.717646 
L 253.261396 206.873427 
L 253.89628 207.628607 
L 254.531165 206.864432 
L 255.166049 206.865978 
L 256.435818 205.789639 
L 257.070703 205.098481 
L 257.705587 205.00136 
L 258.340472 204.430091 
L 258.975356 203.1924 
L 259.610241 204.053766 
L 261.514894 201.958855 
L 262.149779 202.13089 
L 262.784663 200.852509 
L 263.419548 201.293066 
L 264.054432 200.813225 
L 264.689317 200.544773 
L 265.324201 199.929512 
L 265.959086 198.560265 
L 266.59397 199.698235 
L 267.228855 199.190566 
L 267.863739 198.842843 
L 268.498624 197.660107 
L 269.133509 197.25757 
L 269.768393 197.945847 
L 270.403278 196.788762 
L 271.038162 197.023904 
L 271.673047 195.461611 
L 272.307931 195.65269 
L 272.942816 194.777901 
L 273.5777 194.947827 
L 274.212585 194.316894 
L 274.847469 194.05055 
L 275.482354 192.598098 
L 276.117238 193.786736 
L 276.752123 193.385815 
L 277.387007 193.139289 
L 278.021892 192.333159 
L 278.656776 191.90455 
L 279.291661 190.926456 
L 279.926545 191.129482 
L 280.56143 190.853159 
L 281.196314 190.970238 
L 281.831199 189.408647 
L 283.100968 189.897694 
L 283.735852 188.582981 
L 284.370737 188.026119 
L 285.005621 187.838413 
L 286.910275 185.993753 
L 287.545159 186.504375 
L 288.814928 185.645749 
L 289.449813 185.671119 
L 290.084697 184.582693 
L 290.719582 184.289363 
L 291.354467 184.807012 
L 291.989351 183.713526 
L 292.624236 181.943077 
L 293.25912 182.501345 
L 293.894005 182.848928 
L 294.528889 181.859239 
L 295.163774 181.834432 
L 295.798658 181.301674 
L 296.433543 180.55324 
L 297.068427 181.56359 
L 297.703312 179.817175 
L 298.338196 180.442486 
L 298.973081 178.785462 
L 299.607965 178.99671 
L 300.24285 178.76972 
L 300.877734 177.862816 
L 301.512619 178.108569 
L 302.147503 177.625987 
L 302.782388 177.443552 
L 303.417272 176.458502 
L 304.687041 176.140013 
L 305.321926 176.936445 
L 305.95681 175.013779 
L 307.226579 174.087901 
L 307.861464 174.04939 
L 308.496348 173.77651 
L 309.131233 173.020628 
L 309.766117 173.31452 
L 310.401002 172.928215 
L 311.035886 171.61779 
L 311.670771 172.017797 
L 312.305656 171.11279 
L 312.94054 170.879897 
L 313.575425 171.348494 
L 314.210309 169.6635 
L 314.845194 169.990843 
L 316.114963 169.574461 
L 316.749847 169.222241 
L 317.384732 169.323999 
L 318.019616 167.260221 
L 318.654501 167.425157 
L 319.289385 167.232954 
L 319.92427 167.249328 
L 320.559154 166.640462 
L 321.194039 167.33654 
L 321.828923 165.595677 
L 322.463808 165.327928 
L 323.098692 165.844663 
L 324.368461 164.226782 
L 325.003346 165.093067 
L 325.63823 163.275815 
L 326.273115 162.661959 
L 326.907999 163.45333 
L 327.542884 162.279239 
L 328.177768 161.868549 
L 328.812653 161.789208 
L 329.447537 161.972416 
L 330.717306 160.081234 
L 331.352191 161.2665 
L 331.987075 160.929107 
L 332.62196 159.602518 
L 333.256844 159.509825 
L 333.891729 158.02371 
L 334.526614 158.46251 
L 335.161498 159.081707 
L 335.796383 157.572472 
L 336.431267 156.651793 
L 337.066152 157.637055 
L 337.701036 157.088344 
L 338.335921 156.960302 
L 338.970805 155.883753 
L 339.60569 155.248533 
L 340.240574 155.368564 
L 340.875459 153.937264 
L 341.510343 155.68916 
L 342.145228 155.011565 
L 342.780112 153.751456 
L 343.414997 153.197615 
L 344.049881 152.995363 
L 344.684766 153.872681 
L 345.31965 152.174967 
L 345.954535 152.166112 
L 346.589419 152.884819 
L 347.224304 152.398935 
L 347.859188 150.742192 
L 348.494073 149.694877 
L 349.128957 151.102915 
L 349.763842 151.352534 
L 350.398726 148.941735 
L 351.033611 148.751078 
L 351.668495 147.837005 
L 352.30338 149.080178 
L 352.938264 148.067509 
L 353.573149 149.031196 
L 354.208033 146.993279 
L 354.842918 147.072338 
L 355.477803 147.643326 
L 356.112687 147.22828 
L 356.747572 146.423977 
L 357.382456 146.585681 
L 358.017341 146.070843 
L 358.652225 146.008017 
L 359.28711 145.052201 
L 359.921994 144.889865 
L 361.826648 143.928708 
L 362.461532 143.171419 
L 363.096417 144.034894 
L 363.731301 143.286812 
L 364.366186 143.732358 
L 365.00107 142.692563 
L 365.635955 141.216919 
L 366.270839 140.81663 
L 366.905724 141.611516 
L 368.175493 140.730824 
L 368.810377 140.838697 
L 369.445262 139.9975 
L 370.080146 139.806843 
L 370.715031 139.804172 
L 371.349915 139.006968 
L 371.9848 139.698127 
L 372.619684 138.828468 
L 373.254569 139.342392 
L 373.889453 136.801233 
L 374.524338 136.766446 
L 375.794107 136.142049 
L 376.428991 137.987271 
L 377.063876 137.49703 
L 377.698761 135.650332 
L 378.333645 134.607585 
L 378.96853 135.802268 
L 379.603414 135.533323 
L 380.238299 134.807027 
L 380.873183 135.013215 
L 381.508068 134.704284 
L 382.142952 132.65681 
L 382.777837 133.65704 
L 383.412721 132.46039 
L 384.047606 133.187811 
L 384.68249 131.469014 
L 385.317375 132.161157 
L 385.952259 132.31492 
L 386.587144 131.151229 
L 387.222028 132.680984 
L 387.856913 130.057673 
L 388.491797 129.802924 
L 389.126682 129.876292 
L 389.761566 130.552412 
L 390.396451 128.90108 
L 391.031335 128.790044 
L 391.66622 128.02868 
L 392.935989 128.243161 
L 393.570873 127.051219 
L 394.205758 127.387417 
L 395.475527 126.660769 
L 396.110411 127.590794 
L 398.015065 125.19644 
L 399.284834 124.452294 
L 399.919719 123.536042 
L 400.554603 125.337483 
L 401.189488 125.170087 
L 401.824372 124.569091 
L 402.459257 123.536815 
L 403.094141 122.96646 
L 403.729026 122.75458 
L 404.36391 122.0072 
L 405.633679 121.217937 
L 406.903448 121.688993 
L 407.538333 120.38447 
L 408.173217 120.059306 
L 408.808102 121.281607 
L 410.077871 119.685652 
L 410.712755 119.819597 
L 411.34764 119.324225 
L 411.982524 118.390124 
L 412.617409 118.947197 
L 413.252293 117.896861 
L 414.522062 116.996211 
L 415.156947 116.877516 
L 415.791831 117.928977 
L 416.426716 115.98059 
L 417.0616 116.124163 
L 417.696485 117.295233 
L 418.331369 116.282845 
L 418.966254 116.563806 
L 419.601138 114.713032 
L 420.236023 115.288869 
L 420.870908 113.360511 
L 422.140677 114.320895 
L 422.775561 114.540085 
L 423.410446 113.062403 
L 424.04533 112.620933 
L 424.680215 112.028651 
L 425.315099 112.865772 
L 425.949984 112.188247 
L 426.584868 112.450445 
L 427.219753 110.750763 
L 427.854637 110.348998 
L 428.489522 111.980864 
L 429.124406 110.414073 
L 429.759291 110.171693 
L 430.394175 109.548491 
L 431.02906 109.844702 
L 431.663944 107.772982 
L 432.298829 107.090819 
L 432.933713 108.026677 
L 433.568598 107.864059 
L 434.203482 108.37714 
L 434.838367 108.619871 
L 435.473251 108.441653 
L 436.108136 108.639057 
L 436.74302 107.210076 
L 437.377905 107.233478 
L 438.012789 107.489069 
L 438.647674 105.820379 
L 439.282558 105.711663 
L 439.917443 106.617162 
L 440.552327 106.021297 
L 441.187212 106.531215 
L 441.822097 105.885454 
L 442.456981 105.717988 
L 443.091866 104.421547 
L 443.72675 105.104202 
L 444.361635 104.762664 
L 444.996519 103.906498 
L 445.631404 104.433142 
L 446.266288 103.721955 
L 446.901173 102.117356 
L 447.536057 102.552361 
L 448.170942 100.785988 
L 448.805826 102.433877 
L 449.440711 101.656841 
L 450.075595 99.586808 
L 451.345364 101.476725 
L 451.980249 100.386683 
L 452.615133 99.979226 
L 453.250018 99.924552 
L 453.884902 99.680134 
L 454.519787 98.125641 
L 455.154671 100.031019 
L 455.789556 99.047444 
L 456.42444 99.387156 
L 457.059325 97.169052 
L 458.329094 98.901623 
L 458.963978 95.256085 
L 459.598863 96.947614 
L 460.233747 96.447605 
L 460.868632 97.971808 
L 461.503516 96.036423 
L 462.138401 94.946732 
L 462.773285 97.123865 
L 463.40817 96.247671 
L 464.043055 96.06383 
L 464.677939 95.630231 
L 465.312824 95.764598 
L 465.947708 94.964934 
L 466.582593 95.546603 
L 467.217477 93.620424 
L 467.852362 92.512883 
L 468.487246 93.726821 
L 469.122131 91.809637 
L 469.757015 93.82598 
L 470.3919 92.98928 
L 471.026784 90.931475 
L 471.661669 91.074697 
L 472.296553 92.17788 
L 472.931438 90.677921 
L 474.201207 90.469063 
L 474.836091 90.146428 
L 475.470976 90.13146 
L 476.10586 88.941416 
L 476.740745 89.432711 
L 477.375629 88.782312 
L 478.010514 89.201856 
L 478.645398 88.064378 
L 479.280283 87.346515 
L 479.915167 89.244935 
L 480.550052 86.646361 
L 481.184936 88.737406 
L 481.819821 88.393127 
L 482.454705 86.798999 
L 483.08959 86.450292 
L 483.724474 85.393139 
L 484.359359 87.261411 
L 484.994244 85.767145 
L 485.629128 86.068345 
L 486.264013 83.996555 
L 486.898897 85.381403 
L 487.533782 85.281963 
L 488.803551 82.352321 
L 489.438435 84.580403 
L 490.07332 83.567032 
L 490.708204 81.752239 
L 491.343089 84.322844 
L 491.977973 81.621878 
L 492.612858 82.241778 
L 493.247742 82.073117 
L 493.882627 81.656805 
L 494.517511 81.86735 
L 495.152396 81.096429 
L 495.78728 79.997953 
L 496.422165 80.048833 
L 497.057049 81.296151 
L 497.691934 80.536474 
L 498.326818 78.766095 
L 498.961703 79.777148 
L 500.231472 80.49213 
L 500.866356 79.234481 
L 501.501241 78.389841 
L 502.136125 75.517754 
L 502.77101 77.666636 
L 503.405894 75.959716 
L 504.040779 78.399047 
L 505.310548 75.667722 
L 505.945433 77.561856 
L 506.580317 75.716142 
L 507.215202 75.439959 
L 507.850086 75.841232 
L 508.484971 73.733461 
L 509.119855 75.824998 
L 509.75474 75.440521 
L 510.389624 74.178726 
L 511.024509 73.844918 
L 511.659393 74.953372 
L 512.294278 76.364503 
L 512.929162 73.876612 
L 513.564047 72.084588 
L 514.198931 74.218642 
L 514.833816 71.759073 
L 515.4687 73.988701 
L 516.103585 71.653941 
L 516.738469 73.045535 
L 517.373354 73.320241 
L 518.008238 70.93165 
L 518.643123 71.561599 
L 519.278007 69.613775 
L 519.912892 72.427814 
L 520.547776 68.975252 
L 521.182661 69.188327 
L 521.817545 70.813517 
L 522.45243 68.8139 
L 523.087314 68.460414 
L 523.722199 69.383271 
L 524.357083 67.929975 
L 524.991968 70.731997 
L 525.626852 67.516756 
L 526.261737 67.541774 
L 526.896621 67.930327 
L 527.531506 69.269636 
L 528.801275 67.390822 
L 529.43616 67.559132 
L 530.071044 66.083629 
L 530.705929 65.304837 
L 531.340813 65.768514 
L 531.975698 64.47636 
L 532.610582 65.979902 
L 533.245467 66.816039 
L 533.880351 65.472654 
L 534.515236 65.550871 
L 535.15012 63.865315 
L 536.419889 65.096962 
L 537.054774 63.751117 
L 538.324543 63.100507 
L 538.959427 61.749111 
L 539.594312 60.914449 
L 540.229196 63.806494 
L 540.864081 62.006178 
L 541.498965 61.464214 
L 542.13385 61.560351 
L 542.768734 62.782019 
L 543.403619 61.426687 
L 544.038503 60.478882 
L 544.673388 59.077309 
L 545.308272 59.965098 
L 545.943157 61.252685 
L 546.578041 60.175925 
L 547.212926 60.204035 
L 547.84781 59.804027 
L 548.482695 58.805694 
L 549.11758 58.816025 
L 549.752464 59.796086 
L 550.387349 57.999565 
L 551.022233 59.546468 
L 551.657118 57.683536 
L 552.292002 60.510857 
L 552.926887 56.99547 
L 553.561771 56.966797 
L 554.83154 54.500973 
L 555.466425 56.305787 
L 556.101309 55.57176 
L 556.736194 55.550115 
L 558.640847 54.846517 
L 559.275732 55.446107 
L 559.910616 54.468154 
L 560.545501 51.982161 
L 561.180385 55.055376 
L 561.81527 54.798097 
L 563.085039 50.196392 
L 563.719923 51.404778 
L 564.354808 54.634496 
L 564.989692 49.870946 
L 565.624577 51.027891 
L 566.259461 50.797739 
L 566.894346 51.74463 
L 567.52923 53.609107 
L 568.164115 51.054455 
L 568.798999 52.02524 
L 569.433884 49.766306 
L 570.068768 50.813832 
L 570.703653 49.08344 
L 571.338538 50.078329 
L 571.973422 48.517863 
L 572.608307 50.888886 
L 573.243191 47.518125 
L 573.878076 49.546414 
L 574.51296 48.159459 
L 575.147845 48.516739 
L 575.782729 49.61683 
L 576.417614 47.920171 
L 576.417614 47.920171 
" clip-path="url(#p30ee7cfc98)" style="fill: none; stroke: #ff7f0e; stroke-width: 1.5; stroke-linecap: square"/>
   </g>
   <g id="patch_3">
    <path d="M 43.78125 576.718125 
L 43.78125 22.318125 
" style="fill: none; stroke: #000000; stroke-width: 0.8; stroke-linejoin: miter; stroke-linecap: square"/>
   </g>
   <g id="patch_4">
    <path d="M 601.78125 576.718125 
L 601.78125 22.318125 
" style="fill: none; stroke: #000000; stroke-width: 0.8; stroke-linejoin: miter; stroke-linecap: square"/>
   </g>
   <g id="patch_5">
    <path d="M 43.78125 576.718125 
L 601.78125 576.718125 
" style="fill: none; stroke: #000000; stroke-width: 0.8; stroke-linejoin: miter; stroke-linecap: square"/>
   </g>
   <g id="patch_6">
    <path d="M 43.78125 22.318125 
L 601.78125 22.318125 
" style="fill: none; stroke: #000000; stroke-width: 0.8; stroke-linejoin: miter; stroke-linecap: square"/>
   </g>
   <g id="text_20">
    <!-- Train and Val Loss -->
    <g transform="translate(269.235937 16.318125) scale(0.12 -0.12)">
     <defs>
      <path id="DejaVuSans-54" d="M -19 4666 
L 3928 4666 
L 3928 4134 
L 2272 4134 
L 2272 0 
L 1638 0 
L 1638 4134 
L -19 4134 
L -19 4666 
z
" transform="scale(0.015625)"/>
      <path id="DejaVuSans-72" d="M 2631 2963 
Q 2534 3019 2420 3045 
Q 2306 3072 2169 3072 
Q 1681 3072 1420 2755 
Q 1159 2438 1159 1844 
L 1159 0 
L 581 0 
L 581 3500 
L 1159 3500 
L 1159 2956 
Q 1341 3275 1631 3429 
Q 1922 3584 2338 3584 
Q 2397 3584 2469 3576 
Q 2541 3569 2628 3553 
L 2631 2963 
z
" transform="scale(0.015625)"/>
      <path id="DejaVuSans-61" d="M 2194 1759 
Q 1497 1759 1228 1600 
Q 959 1441 959 1056 
Q 959 750 1161 570 
Q 1363 391 1709 391 
Q 2188 391 2477 730 
Q 2766 1069 2766 1631 
L 2766 1759 
L 2194 1759 
z
M 3341 1997 
L 3341 0 
L 2766 0 
L 2766 531 
Q 2569 213 2275 61 
Q 1981 -91 1556 -91 
Q 1019 -91 701 211 
Q 384 513 384 1019 
Q 384 1609 779 1909 
Q 1175 2209 1959 2209 
L 2766 2209 
L 2766 2266 
Q 2766 2663 2505 2880 
Q 2244 3097 1772 3097 
Q 1472 3097 1187 3025 
Q 903 2953 641 2809 
L 641 3341 
Q 956 3463 1253 3523 
Q 1550 3584 1831 3584 
Q 2591 3584 2966 3190 
Q 3341 2797 3341 1997 
z
" transform="scale(0.015625)"/>
      <path id="DejaVuSans-69" d="M 603 3500 
L 1178 3500 
L 1178 0 
L 603 0 
L 603 3500 
z
M 603 4863 
L 1178 4863 
L 1178 4134 
L 603 4134 
L 603 4863 
z
" transform="scale(0.015625)"/>
      <path id="DejaVuSans-6e" d="M 3513 2113 
L 3513 0 
L 2938 0 
L 2938 2094 
Q 2938 2591 2744 2837 
Q 2550 3084 2163 3084 
Q 1697 3084 1428 2787 
Q 1159 2491 1159 1978 
L 1159 0 
L 581 0 
L 581 3500 
L 1159 3500 
L 1159 2956 
Q 1366 3272 1645 3428 
Q 1925 3584 2291 3584 
Q 2894 3584 3203 3211 
Q 3513 2838 3513 2113 
z
" transform="scale(0.015625)"/>
      <path id="DejaVuSans-20" transform="scale(0.015625)"/>
      <path id="DejaVuSans-64" d="M 2906 2969 
L 2906 4863 
L 3481 4863 
L 3481 0 
L 2906 0 
L 2906 525 
Q 2725 213 2448 61 
Q 2172 -91 1784 -91 
Q 1150 -91 751 415 
Q 353 922 353 1747 
Q 353 2572 751 3078 
Q 1150 3584 1784 3584 
Q 2172 3584 2448 3432 
Q 2725 3281 2906 2969 
z
M 947 1747 
Q 947 1113 1208 752 
Q 1469 391 1925 391 
Q 2381 391 2643 752 
Q 2906 1113 2906 1747 
Q 2906 2381 2643 2742 
Q 2381 3103 1925 3103 
Q 1469 3103 1208 2742 
Q 947 2381 947 1747 
z
" transform="scale(0.015625)"/>
      <path id="DejaVuSans-56" d="M 1831 0 
L 50 4666 
L 709 4666 
L 2188 738 
L 3669 4666 
L 4325 4666 
L 2547 0 
L 1831 0 
z
" transform="scale(0.015625)"/>
      <path id="DejaVuSans-6c" d="M 603 4863 
L 1178 4863 
L 1178 0 
L 603 0 
L 603 4863 
z
" transform="scale(0.015625)"/>
     </defs>
     <use xlink:href="#DejaVuSans-54"/>
     <use xlink:href="#DejaVuSans-72" transform="translate(46.333984 0)"/>
     <use xlink:href="#DejaVuSans-61" transform="translate(87.447266 0)"/>
     <use xlink:href="#DejaVuSans-69" transform="translate(148.726562 0)"/>
     <use xlink:href="#DejaVuSans-6e" transform="translate(176.509766 0)"/>
     <use xlink:href="#DejaVuSans-20" transform="translate(239.888672 0)"/>
     <use xlink:href="#DejaVuSans-61" transform="translate(271.675781 0)"/>
     <use xlink:href="#DejaVuSans-6e" transform="translate(332.955078 0)"/>
     <use xlink:href="#DejaVuSans-64" transform="translate(396.333984 0)"/>
     <use xlink:href="#DejaVuSans-20" transform="translate(459.810547 0)"/>
     <use xlink:href="#DejaVuSans-56" transform="translate(491.597656 0)"/>
     <use xlink:href="#DejaVuSans-61" transform="translate(552.255859 0)"/>
     <use xlink:href="#DejaVuSans-6c" transform="translate(613.535156 0)"/>
     <use xlink:href="#DejaVuSans-20" transform="translate(641.318359 0)"/>
     <use xlink:href="#DejaVuSans-4c" transform="translate(673.105469 0)"/>
     <use xlink:href="#DejaVuSans-6f" transform="translate(727.068359 0)"/>
     <use xlink:href="#DejaVuSans-73" transform="translate(788.25 0)"/>
     <use xlink:href="#DejaVuSans-73" transform="translate(840.349609 0)"/>
    </g>
   </g>
   <g id="legend_1">
    <g id="patch_7">
     <path d="M 50.78125 60.230625 
L 130.371875 60.230625 
Q 132.371875 60.230625 132.371875 58.230625 
L 132.371875 29.318125 
Q 132.371875 27.318125 130.371875 27.318125 
L 50.78125 27.318125 
Q 48.78125 27.318125 48.78125 29.318125 
L 48.78125 58.230625 
Q 48.78125 60.230625 50.78125 60.230625 
z
" style="fill: #ffffff; opacity: 0.8; stroke: #cccccc; stroke-linejoin: miter"/>
    </g>
    <g id="line2d_37">
     <path d="M 52.78125 35.416563 
L 62.78125 35.416563 
L 72.78125 35.416563 
" style="fill: none; stroke: #1f77b4; stroke-width: 1.5; stroke-linecap: square"/>
    </g>
    <g id="text_21">
     <!-- train_loss -->
     <g transform="translate(80.78125 38.916563) scale(0.1 -0.1)">
      <defs>
       <path id="DejaVuSans-74" d="M 1172 4494 
L 1172 3500 
L 2356 3500 
L 2356 3053 
L 1172 3053 
L 1172 1153 
Q 1172 725 1289 603 
Q 1406 481 1766 481 
L 2356 481 
L 2356 0 
L 1766 0 
Q 1100 0 847 248 
Q 594 497 594 1153 
L 594 3053 
L 172 3053 
L 172 3500 
L 594 3500 
L 594 4494 
L 1172 4494 
z
" transform="scale(0.015625)"/>
       <path id="DejaVuSans-5f" d="M 3263 -1063 
L 3263 -1509 
L -63 -1509 
L -63 -1063 
L 3263 -1063 
z
" transform="scale(0.015625)"/>
      </defs>
      <use xlink:href="#DejaVuSans-74"/>
      <use xlink:href="#DejaVuSans-72" transform="translate(39.208984 0)"/>
      <use xlink:href="#DejaVuSans-61" transform="translate(80.322266 0)"/>
      <use xlink:href="#DejaVuSans-69" transform="translate(141.601562 0)"/>
      <use xlink:href="#DejaVuSans-6e" transform="translate(169.384766 0)"/>
      <use xlink:href="#DejaVuSans-5f" transform="translate(232.763672 0)"/>
      <use xlink:href="#DejaVuSans-6c" transform="translate(282.763672 0)"/>
      <use xlink:href="#DejaVuSans-6f" transform="translate(310.546875 0)"/>
      <use xlink:href="#DejaVuSans-73" transform="translate(371.728516 0)"/>
      <use xlink:href="#DejaVuSans-73" transform="translate(423.828125 0)"/>
     </g>
    </g>
    <g id="line2d_38">
     <path d="M 52.78125 50.372813 
L 62.78125 50.372813 
L 72.78125 50.372813 
" style="fill: none; stroke: #ff7f0e; stroke-width: 1.5; stroke-linecap: square"/>
    </g>
    <g id="text_22">
     <!-- val_loss -->
     <g transform="translate(80.78125 53.872813) scale(0.1 -0.1)">
      <defs>
       <path id="DejaVuSans-76" d="M 191 3500 
L 800 3500 
L 1894 563 
L 2988 3500 
L 3597 3500 
L 2284 0 
L 1503 0 
L 191 3500 
z
" transform="scale(0.015625)"/>
      </defs>
      <use xlink:href="#DejaVuSans-76"/>
      <use xlink:href="#DejaVuSans-61" transform="translate(59.179688 0)"/>
      <use xlink:href="#DejaVuSans-6c" transform="translate(120.458984 0)"/>
      <use xlink:href="#DejaVuSans-5f" transform="translate(148.242188 0)"/>
      <use xlink:href="#DejaVuSans-6c" transform="translate(198.242188 0)"/>
      <use xlink:href="#DejaVuSans-6f" transform="translate(226.025391 0)"/>
      <use xlink:href="#DejaVuSans-73" transform="translate(287.207031 0)"/>
      <use xlink:href="#DejaVuSans-73" transform="translate(339.306641 0)"/>
     </g>
    </g>
   </g>
  </g>
 </g>
 <defs>
  <clipPath id="p30ee7cfc98">
   <rect x="43.78125" y="22.318125" width="558" height="554.4"/>
  </clipPath>
 </defs>
</svg>
