<?xml version="1.0" encoding="utf-8" standalone="no"?>
<!DOCTYPE svg PUBLIC "-//W3C//DTD SVG 1.1//EN"
  "http://www.w3.org/Graphics/SVG/1.1/DTD/svg11.dtd">
<svg xmlns:xlink="http://www.w3.org/1999/xlink" width="621.70625pt" height="614.274375pt" viewBox="0 0 621.70625 614.274375" xmlns="http://www.w3.org/2000/svg" version="1.1">
 <metadata>
  <rdf:RDF xmlns:dc="http://purl.org/dc/elements/1.1/" xmlns:cc="http://creativecommons.org/ns#" xmlns:rdf="http://www.w3.org/1999/02/22-rdf-syntax-ns#">
   <cc:Work>
    <dc:type rdf:resource="http://purl.org/dc/dcmitype/StillImage"/>
    <dc:date>2026-05-24T16:32:49.327808</dc:date>
    <dc:format>image/svg+xml</dc:format>
    <dc:creator>
     <cc:Agent>
      <dc:title>Matplotlib v3.10.9, https://matplotlib.org/</dc:title>
     </cc:Agent>
    </dc:creator>
   </cc:Work>
  </rdf:RDF>
 </metadata>
 <defs>
  <style type="text/css">*{stroke-linejoin: round; stroke-linecap: butt}</style>
 </defs>
 <g id="figure_1">
  <g id="patch_1">
   <path d="M 0 614.274375 
L 621.70625 614.274375 
L 621.70625 0 
L 0 0 
z
" style="fill: #ffffff"/>
  </g>
  <g id="axes_1">
   <g id="patch_2">
    <path d="M 56.50625 576.718125 
L 614.50625 576.718125 
L 614.50625 22.318125 
L 56.50625 22.318125 
z
" style="fill: #ffffff"/>
   </g>
   <g id="matplotlib.axis_1">
    <g id="xtick_1">
     <g id="line2d_1">
      <path d="M 81.869886 576.718125 
L 81.869886 22.318125 
" clip-path="url(#p7d987b7a0a)" style="fill: none; stroke: #b0b0b0; stroke-width: 0.8; stroke-linecap: square"/>
     </g>
     <g id="line2d_2">
      <defs>
       <path id="m9f8497ebe5" d="M 0 0 
L 0 3.5 
" style="stroke: #000000; stroke-width: 0.8"/>
      </defs>
      <g>
       <use xlink:href="#m9f8497ebe5" x="81.869886" y="576.718125" style="stroke: #000000; stroke-width: 0.8"/>
      </g>
     </g>
     <g id="text_1">
      <!-- 0 -->
      <g transform="translate(78.688636 591.316563) scale(0.1 -0.1)">
       <defs>
        <path id="DejaVuSans-30" d="M 2034 4250 
Q 1547 4250 1301 3770 
Q 1056 3291 1056 2328 
Q 1056 1369 1301 889 
Q 1547 409 2034 409 
Q 2525 409 2770 889 
Q 3016 1369 3016 2328 
Q 3016 3291 2770 3770 
Q 2525 4250 2034 4250 
z
M 2034 4750 
Q 2819 4750 3233 4129 
Q 3647 3509 3647 2328 
Q 3647 1150 3233 529 
Q 2819 -91 2034 -91 
Q 1250 -91 836 529 
Q 422 1150 422 2328 
Q 422 3509 836 4129 
Q 1250 4750 2034 4750 
z
" transform="scale(0.015625)"/>
       </defs>
       <use xlink:href="#DejaVuSans-30"/>
      </g>
     </g>
    </g>
    <g id="xtick_2">
     <g id="line2d_3">
      <path d="M 145.358338 576.718125 
L 145.358338 22.318125 
" clip-path="url(#p7d987b7a0a)" style="fill: none; stroke: #b0b0b0; stroke-width: 0.8; stroke-linecap: square"/>
     </g>
     <g id="line2d_4">
      <g>
       <use xlink:href="#m9f8497ebe5" x="145.358338" y="576.718125" style="stroke: #000000; stroke-width: 0.8"/>
      </g>
     </g>
     <g id="text_2">
      <!-- 100 -->
      <g transform="translate(135.814588 591.316563) scale(0.1 -0.1)">
       <defs>
        <path id="DejaVuSans-31" d="M 794 531 
L 1825 531 
L 1825 4091 
L 703 3866 
L 703 4441 
L 1819 4666 
L 2450 4666 
L 2450 531 
L 3481 531 
L 3481 0 
L 794 0 
L 794 531 
z
" transform="scale(0.015625)"/>
       </defs>
       <use xlink:href="#DejaVuSans-31"/>
       <use xlink:href="#DejaVuSans-30" transform="translate(63.623047 0)"/>
       <use xlink:href="#DejaVuSans-30" transform="translate(127.246094 0)"/>
      </g>
     </g>
    </g>
    <g id="xtick_3">
     <g id="line2d_5">
      <path d="M 208.846789 576.718125 
L 208.846789 22.318125 
" clip-path="url(#p7d987b7a0a)" style="fill: none; stroke: #b0b0b0; stroke-width: 0.8; stroke-linecap: square"/>
     </g>
     <g id="line2d_6">
      <g>
       <use xlink:href="#m9f8497ebe5" x="208.846789" y="576.718125" style="stroke: #000000; stroke-width: 0.8"/>
      </g>
     </g>
     <g id="text_3">
      <!-- 200 -->
      <g transform="translate(199.303039 591.316563) scale(0.1 -0.1)">
       <defs>
        <path id="DejaVuSans-32" d="M 1228 531 
L 3431 531 
L 3431 0 
L 469 0 
L 469 531 
Q 828 903 1448 1529 
Q 2069 2156 2228 2338 
Q 2531 2678 2651 2914 
Q 2772 3150 2772 3378 
Q 2772 3750 2511 3984 
Q 2250 4219 1831 4219 
Q 1534 4219 1204 4116 
Q 875 4013 500 3803 
L 500 4441 
Q 881 4594 1212 4672 
Q 1544 4750 1819 4750 
Q 2544 4750 2975 4387 
Q 3406 4025 3406 3419 
Q 3406 3131 3298 2873 
Q 3191 2616 2906 2266 
Q 2828 2175 2409 1742 
Q 1991 1309 1228 531 
z
" transform="scale(0.015625)"/>
       </defs>
       <use xlink:href="#DejaVuSans-32"/>
       <use xlink:href="#DejaVuSans-30" transform="translate(63.623047 0)"/>
       <use xlink:href="#DejaVuSans-30" transform="translate(127.246094 0)"/>
      </g>
     </g>
    </g>
    <g id="xtick_4">
     <g id="line2d_7">
      <path d="M 272.335241 576.718125 
L 272.335241 22.318125 
" clip-path="url(#p7d987b7a0a)" style="fill: none; stroke: #b0b0b0; stroke-width: 0.8; stroke-linecap: square"/>
     </g>
     <g id="line2d_8">
      <g>
       <use xlink:href="#m9f8497ebe5" x="272.335241" y="576.718125" style="stroke: #000000; stroke-width: 0.8"/>
      </g>
     </g>
     <g id="text_4">
      <!-- 300 -->
      <g transform="translate(262.791491 591.316563) scale(0.1 -0.1)">
       <defs>
        <path id="DejaVuSans-33" d="M 2597 2516 
Q 3050 2419 3304 2112 
Q 3559 1806 3559 1356 
Q 3559 666 3084 287 
Q 2609 -91 1734 -91 
Q 1441 -91 1130 -33 
Q 819 25 488 141 
L 488 750 
Q 750 597 1062 519 
Q 1375 441 1716 441 
Q 2309 441 2620 675 
Q 2931 909 2931 1356 
Q 2931 1769 2642 2001 
Q 2353 2234 1838 2234 
L 1294 2234 
L 1294 2753 
L 1863 2753 
Q 2328 2753 2575 2939 
Q 2822 3125 2822 3475 
Q 2822 3834 2567 4026 
Q 2313 4219 1838 4219 
Q 1578 4219 1281 4162 
Q 984 4106 628 3988 
L 628 4550 
Q 988 4650 1302 4700 
Q 1616 4750 1894 4750 
Q 2613 4750 3031 4423 
Q 3450 4097 3450 3541 
Q 3450 3153 3228 2886 
Q 3006 2619 2597 2516 
z
" transform="scale(0.015625)"/>
       </defs>
       <use xlink:href="#DejaVuSans-33"/>
       <use xlink:href="#DejaVuSans-30" transform="translate(63.623047 0)"/>
       <use xlink:href="#DejaVuSans-30" transform="translate(127.246094 0)"/>
      </g>
     </g>
    </g>
    <g id="xtick_5">
     <g id="line2d_9">
      <path d="M 335.823692 576.718125 
L 335.823692 22.318125 
" clip-path="url(#p7d987b7a0a)" style="fill: none; stroke: #b0b0b0; stroke-width: 0.8; stroke-linecap: square"/>
     </g>
     <g id="line2d_10">
      <g>
       <use xlink:href="#m9f8497ebe5" x="335.823692" y="576.718125" style="stroke: #000000; stroke-width: 0.8"/>
      </g>
     </g>
     <g id="text_5">
      <!-- 400 -->
      <g transform="translate(326.279942 591.316563) scale(0.1 -0.1)">
       <defs>
        <path id="DejaVuSans-34" d="M 2419 4116 
L 825 1625 
L 2419 1625 
L 2419 4116 
z
M 2253 4666 
L 3047 4666 
L 3047 1625 
L 3713 1625 
L 3713 1100 
L 3047 1100 
L 3047 0 
L 2419 0 
L 2419 1100 
L 313 1100 
L 313 1709 
L 2253 4666 
z
" transform="scale(0.015625)"/>
       </defs>
       <use xlink:href="#DejaVuSans-34"/>
       <use xlink:href="#DejaVuSans-30" transform="translate(63.623047 0)"/>
       <use xlink:href="#DejaVuSans-30" transform="translate(127.246094 0)"/>
      </g>
     </g>
    </g>
    <g id="xtick_6">
     <g id="line2d_11">
      <path d="M 399.312144 576.718125 
L 399.312144 22.318125 
" clip-path="url(#p7d987b7a0a)" style="fill: none; stroke: #b0b0b0; stroke-width: 0.8; stroke-linecap: square"/>
     </g>
     <g id="line2d_12">
      <g>
       <use xlink:href="#m9f8497ebe5" x="399.312144" y="576.718125" style="stroke: #000000; stroke-width: 0.8"/>
      </g>
     </g>
     <g id="text_6">
      <!-- 500 -->
      <g transform="translate(389.768394 591.316563) scale(0.1 -0.1)">
       <defs>
        <path id="DejaVuSans-35" d="M 691 4666 
L 3169 4666 
L 3169 4134 
L 1269 4134 
L 1269 2991 
Q 1406 3038 1543 3061 
Q 1681 3084 1819 3084 
Q 2600 3084 3056 2656 
Q 3513 2228 3513 1497 
Q 3513 744 3044 326 
Q 2575 -91 1722 -91 
Q 1428 -91 1123 -41 
Q 819 9 494 109 
L 494 744 
Q 775 591 1075 516 
Q 1375 441 1709 441 
Q 2250 441 2565 725 
Q 2881 1009 2881 1497 
Q 2881 1984 2565 2268 
Q 2250 2553 1709 2553 
Q 1456 2553 1204 2497 
Q 953 2441 691 2322 
L 691 4666 
z
" transform="scale(0.015625)"/>
       </defs>
       <use xlink:href="#DejaVuSans-35"/>
       <use xlink:href="#DejaVuSans-30" transform="translate(63.623047 0)"/>
       <use xlink:href="#DejaVuSans-30" transform="translate(127.246094 0)"/>
      </g>
     </g>
    </g>
    <g id="xtick_7">
     <g id="line2d_13">
      <path d="M 462.800595 576.718125 
L 462.800595 22.318125 
" clip-path="url(#p7d987b7a0a)" style="fill: none; stroke: #b0b0b0; stroke-width: 0.8; stroke-linecap: square"/>
     </g>
     <g id="line2d_14">
      <g>
       <use xlink:href="#m9f8497ebe5" x="462.800595" y="576.718125" style="stroke: #000000; stroke-width: 0.8"/>
      </g>
     </g>
     <g id="text_7">
      <!-- 600 -->
      <g transform="translate(453.256845 591.316563) scale(0.1 -0.1)">
       <defs>
        <path id="DejaVuSans-36" d="M 2113 2584 
Q 1688 2584 1439 2293 
Q 1191 2003 1191 1497 
Q 1191 994 1439 701 
Q 1688 409 2113 409 
Q 2538 409 2786 701 
Q 3034 994 3034 1497 
Q 3034 2003 2786 2293 
Q 2538 2584 2113 2584 
z
M 3366 4563 
L 3366 3988 
Q 3128 4100 2886 4159 
Q 2644 4219 2406 4219 
Q 1781 4219 1451 3797 
Q 1122 3375 1075 2522 
Q 1259 2794 1537 2939 
Q 1816 3084 2150 3084 
Q 2853 3084 3261 2657 
Q 3669 2231 3669 1497 
Q 3669 778 3244 343 
Q 2819 -91 2113 -91 
Q 1303 -91 875 529 
Q 447 1150 447 2328 
Q 447 3434 972 4092 
Q 1497 4750 2381 4750 
Q 2619 4750 2861 4703 
Q 3103 4656 3366 4563 
z
" transform="scale(0.015625)"/>
       </defs>
       <use xlink:href="#DejaVuSans-36"/>
       <use xlink:href="#DejaVuSans-30" transform="translate(63.623047 0)"/>
       <use xlink:href="#DejaVuSans-30" transform="translate(127.246094 0)"/>
      </g>
     </g>
    </g>
    <g id="xtick_8">
     <g id="line2d_15">
      <path d="M 526.289047 576.718125 
L 526.289047 22.318125 
" clip-path="url(#p7d987b7a0a)" style="fill: none; stroke: #b0b0b0; stroke-width: 0.8; stroke-linecap: square"/>
     </g>
     <g id="line2d_16">
      <g>
       <use xlink:href="#m9f8497ebe5" x="526.289047" y="576.718125" style="stroke: #000000; stroke-width: 0.8"/>
      </g>
     </g>
     <g id="text_8">
      <!-- 700 -->
      <g transform="translate(516.745297 591.316563) scale(0.1 -0.1)">
       <defs>
        <path id="DejaVuSans-37" d="M 525 4666 
L 3525 4666 
L 3525 4397 
L 1831 0 
L 1172 0 
L 2766 4134 
L 525 4134 
L 525 4666 
z
" transform="scale(0.015625)"/>
       </defs>
       <use xlink:href="#DejaVuSans-37"/>
       <use xlink:href="#DejaVuSans-30" transform="translate(63.623047 0)"/>
       <use xlink:href="#DejaVuSans-30" transform="translate(127.246094 0)"/>
      </g>
     </g>
    </g>
    <g id="xtick_9">
     <g id="line2d_17">
      <path d="M 589.777498 576.718125 
L 589.777498 22.318125 
" clip-path="url(#p7d987b7a0a)" style="fill: none; stroke: #b0b0b0; stroke-width: 0.8; stroke-linecap: square"/>
     </g>
     <g id="line2d_18">
      <g>
       <use xlink:href="#m9f8497ebe5" x="589.777498" y="576.718125" style="stroke: #000000; stroke-width: 0.8"/>
      </g>
     </g>
     <g id="text_9">
      <!-- 800 -->
      <g transform="translate(580.233748 591.316563) scale(0.1 -0.1)">
       <defs>
        <path id="DejaVuSans-38" d="M 2034 2216 
Q 1584 2216 1326 1975 
Q 1069 1734 1069 1313 
Q 1069 891 1326 650 
Q 1584 409 2034 409 
Q 2484 409 2743 651 
Q 3003 894 3003 1313 
Q 3003 1734 2745 1975 
Q 2488 2216 2034 2216 
z
M 1403 2484 
Q 997 2584 770 2862 
Q 544 3141 544 3541 
Q 544 4100 942 4425 
Q 1341 4750 2034 4750 
Q 2731 4750 3128 4425 
Q 3525 4100 3525 3541 
Q 3525 3141 3298 2862 
Q 3072 2584 2669 2484 
Q 3125 2378 3379 2068 
Q 3634 1759 3634 1313 
Q 3634 634 3220 271 
Q 2806 -91 2034 -91 
Q 1263 -91 848 271 
Q 434 634 434 1313 
Q 434 1759 690 2068 
Q 947 2378 1403 2484 
z
M 1172 3481 
Q 1172 3119 1398 2916 
Q 1625 2713 2034 2713 
Q 2441 2713 2670 2916 
Q 2900 3119 2900 3481 
Q 2900 3844 2670 4047 
Q 2441 4250 2034 4250 
Q 1625 4250 1398 4047 
Q 1172 3844 1172 3481 
z
" transform="scale(0.015625)"/>
       </defs>
       <use xlink:href="#DejaVuSans-38"/>
       <use xlink:href="#DejaVuSans-30" transform="translate(63.623047 0)"/>
       <use xlink:href="#DejaVuSans-30" transform="translate(127.246094 0)"/>
      </g>
     </g>
    </g>
    <g id="text_10">
     <!-- Epochs -->
     <g transform="translate(317.590625 604.994688) scale(0.1 -0.1)">
      <defs>
       <path id="DejaVuSans-45" d="M 628 4666 
L 3578 4666 
L 3578 4134 
L 1259 4134 
L 1259 2753 
L 3481 2753 
L 3481 2222 
L 1259 2222 
L 1259 531 
L 3634 531 
L 3634 0 
L 628 0 
L 628 4666 
z
" transform="scale(0.015625)"/>
       <path id="DejaVuSans-70" d="M 1159 525 
L 1159 -1331 
L 581 -1331 
L 581 3500 
L 1159 3500 
L 1159 2969 
Q 1341 3281 1617 3432 
Q 1894 3584 2278 3584 
Q 2916 3584 3314 3078 
Q 3713 2572 3713 1747 
Q 3713 922 3314 415 
Q 2916 -91 2278 -91 
Q 1894 -91 1617 61 
Q 1341 213 1159 525 
z
M 3116 1747 
Q 3116 2381 2855 2742 
Q 2594 3103 2138 3103 
Q 1681 3103 1420 2742 
Q 1159 2381 1159 1747 
Q 1159 1113 1420 752 
Q 1681 391 2138 391 
Q 2594 391 2855 752 
Q 3116 1113 3116 1747 
z
" transform="scale(0.015625)"/>
       <path id="DejaVuSans-6f" d="M 1959 3097 
Q 1497 3097 1228 2736 
Q 959 2375 959 1747 
Q 959 1119 1226 758 
Q 1494 397 1959 397 
Q 2419 397 2687 759 
Q 2956 1122 2956 1747 
Q 2956 2369 2687 2733 
Q 2419 3097 1959 3097 
z
M 1959 3584 
Q 2709 3584 3137 3096 
Q 3566 2609 3566 1747 
Q 3566 888 3137 398 
Q 2709 -91 1959 -91 
Q 1206 -91 779 398 
Q 353 888 353 1747 
Q 353 2609 779 3096 
Q 1206 3584 1959 3584 
z
" transform="scale(0.015625)"/>
       <path id="DejaVuSans-63" d="M 3122 3366 
L 3122 2828 
Q 2878 2963 2633 3030 
Q 2388 3097 2138 3097 
Q 1578 3097 1268 2742 
Q 959 2388 959 1747 
Q 959 1106 1268 751 
Q 1578 397 2138 397 
Q 2388 397 2633 464 
Q 2878 531 3122 666 
L 3122 134 
Q 2881 22 2623 -34 
Q 2366 -91 2075 -91 
Q 1284 -91 818 406 
Q 353 903 353 1747 
Q 353 2603 823 3093 
Q 1294 3584 2113 3584 
Q 2378 3584 2631 3529 
Q 2884 3475 3122 3366 
z
" transform="scale(0.015625)"/>
       <path id="DejaVuSans-68" d="M 3513 2113 
L 3513 0 
L 2938 0 
L 2938 2094 
Q 2938 2591 2744 2837 
Q 2550 3084 2163 3084 
Q 1697 3084 1428 2787 
Q 1159 2491 1159 1978 
L 1159 0 
L 581 0 
L 581 4863 
L 1159 4863 
L 1159 2956 
Q 1366 3272 1645 3428 
Q 1925 3584 2291 3584 
Q 2894 3584 3203 3211 
Q 3513 2838 3513 2113 
z
" transform="scale(0.015625)"/>
       <path id="DejaVuSans-73" d="M 2834 3397 
L 2834 2853 
Q 2591 2978 2328 3040 
Q 2066 3103 1784 3103 
Q 1356 3103 1142 2972 
Q 928 2841 928 2578 
Q 928 2378 1081 2264 
Q 1234 2150 1697 2047 
L 1894 2003 
Q 2506 1872 2764 1633 
Q 3022 1394 3022 966 
Q 3022 478 2636 193 
Q 2250 -91 1575 -91 
Q 1294 -91 989 -36 
Q 684 19 347 128 
L 347 722 
Q 666 556 975 473 
Q 1284 391 1588 391 
Q 1994 391 2212 530 
Q 2431 669 2431 922 
Q 2431 1156 2273 1281 
Q 2116 1406 1581 1522 
L 1381 1569 
Q 847 1681 609 1914 
Q 372 2147 372 2553 
Q 372 3047 722 3315 
Q 1072 3584 1716 3584 
Q 2034 3584 2315 3537 
Q 2597 3491 2834 3397 
z
" transform="scale(0.015625)"/>
      </defs>
      <use xlink:href="#DejaVuSans-45"/>
      <use xlink:href="#DejaVuSans-70" transform="translate(63.183594 0)"/>
      <use xlink:href="#DejaVuSans-6f" transform="translate(126.660156 0)"/>
      <use xlink:href="#DejaVuSans-63" transform="translate(187.841797 0)"/>
      <use xlink:href="#DejaVuSans-68" transform="translate(242.822266 0)"/>
      <use xlink:href="#DejaVuSans-73" transform="translate(306.201172 0)"/>
     </g>
    </g>
   </g>
   <g id="matplotlib.axis_2">
    <g id="ytick_1">
     <g id="line2d_19">
      <path d="M 56.50625 561.751628 
L 614.50625 561.751628 
" clip-path="url(#p7d987b7a0a)" style="fill: none; stroke: #b0b0b0; stroke-width: 0.8; stroke-linecap: square"/>
     </g>
     <g id="line2d_20">
      <defs>
       <path id="m3b25213dcf" d="M 0 0 
L -3.5 0 
" style="stroke: #000000; stroke-width: 0.8"/>
      </defs>
      <g>
       <use xlink:href="#m3b25213dcf" x="56.50625" y="561.751628" style="stroke: #000000; stroke-width: 0.8"/>
      </g>
     </g>
     <g id="text_11">
      <!-- 0.000 -->
      <g transform="translate(20.878125 565.550847) scale(0.1 -0.1)">
       <defs>
        <path id="DejaVuSans-2e" d="M 684 794 
L 1344 794 
L 1344 0 
L 684 0 
L 684 794 
z
" transform="scale(0.015625)"/>
       </defs>
       <use xlink:href="#DejaVuSans-30"/>
       <use xlink:href="#DejaVuSans-2e" transform="translate(63.623047 0)"/>
       <use xlink:href="#DejaVuSans-30" transform="translate(95.410156 0)"/>
       <use xlink:href="#DejaVuSans-30" transform="translate(159.033203 0)"/>
       <use xlink:href="#DejaVuSans-30" transform="translate(222.65625 0)"/>
      </g>
     </g>
    </g>
    <g id="ytick_2">
     <g id="line2d_21">
      <path d="M 56.50625 486.505283 
L 614.50625 486.505283 
" clip-path="url(#p7d987b7a0a)" style="fill: none; stroke: #b0b0b0; stroke-width: 0.8; stroke-linecap: square"/>
     </g>
     <g id="line2d_22">
      <g>
       <use xlink:href="#m3b25213dcf" x="56.50625" y="486.505283" style="stroke: #000000; stroke-width: 0.8"/>
      </g>
     </g>
     <g id="text_12">
      <!-- 0.025 -->
      <g transform="translate(20.878125 490.304502) scale(0.1 -0.1)">
       <use xlink:href="#DejaVuSans-30"/>
       <use xlink:href="#DejaVuSans-2e" transform="translate(63.623047 0)"/>
       <use xlink:href="#DejaVuSans-30" transform="translate(95.410156 0)"/>
       <use xlink:href="#DejaVuSans-32" transform="translate(159.033203 0)"/>
       <use xlink:href="#DejaVuSans-35" transform="translate(222.65625 0)"/>
      </g>
     </g>
    </g>
    <g id="ytick_3">
     <g id="line2d_23">
      <path d="M 56.50625 411.258938 
L 614.50625 411.258938 
" clip-path="url(#p7d987b7a0a)" style="fill: none; stroke: #b0b0b0; stroke-width: 0.8; stroke-linecap: square"/>
     </g>
     <g id="line2d_24">
      <g>
       <use xlink:href="#m3b25213dcf" x="56.50625" y="411.258938" style="stroke: #000000; stroke-width: 0.8"/>
      </g>
     </g>
     <g id="text_13">
      <!-- 0.050 -->
      <g transform="translate(20.878125 415.058157) scale(0.1 -0.1)">
       <use xlink:href="#DejaVuSans-30"/>
       <use xlink:href="#DejaVuSans-2e" transform="translate(63.623047 0)"/>
       <use xlink:href="#DejaVuSans-30" transform="translate(95.410156 0)"/>
       <use xlink:href="#DejaVuSans-35" transform="translate(159.033203 0)"/>
       <use xlink:href="#DejaVuSans-30" transform="translate(222.65625 0)"/>
      </g>
     </g>
    </g>
    <g id="ytick_4">
     <g id="line2d_25">
      <path d="M 56.50625 336.012593 
L 614.50625 336.012593 
" clip-path="url(#p7d987b7a0a)" style="fill: none; stroke: #b0b0b0; stroke-width: 0.8; stroke-linecap: square"/>
     </g>
     <g id="line2d_26">
      <g>
       <use xlink:href="#m3b25213dcf" x="56.50625" y="336.012593" style="stroke: #000000; stroke-width: 0.8"/>
      </g>
     </g>
     <g id="text_14">
      <!-- 0.075 -->
      <g transform="translate(20.878125 339.811812) scale(0.1 -0.1)">
       <use xlink:href="#DejaVuSans-30"/>
       <use xlink:href="#DejaVuSans-2e" transform="translate(63.623047 0)"/>
       <use xlink:href="#DejaVuSans-30" transform="translate(95.410156 0)"/>
       <use xlink:href="#DejaVuSans-37" transform="translate(159.033203 0)"/>
       <use xlink:href="#DejaVuSans-35" transform="translate(222.65625 0)"/>
      </g>
     </g>
    </g>
    <g id="ytick_5">
     <g id="line2d_27">
      <path d="M 56.50625 260.766248 
L 614.50625 260.766248 
" clip-path="url(#p7d987b7a0a)" style="fill: none; stroke: #b0b0b0; stroke-width: 0.8; stroke-linecap: square"/>
     </g>
     <g id="line2d_28">
      <g>
       <use xlink:href="#m3b25213dcf" x="56.50625" y="260.766248" style="stroke: #000000; stroke-width: 0.8"/>
      </g>
     </g>
     <g id="text_15">
      <!-- 0.100 -->
      <g transform="translate(20.878125 264.565467) scale(0.1 -0.1)">
       <use xlink:href="#DejaVuSans-30"/>
       <use xlink:href="#DejaVuSans-2e" transform="translate(63.623047 0)"/>
       <use xlink:href="#DejaVuSans-31" transform="translate(95.410156 0)"/>
       <use xlink:href="#DejaVuSans-30" transform="translate(159.033203 0)"/>
       <use xlink:href="#DejaVuSans-30" transform="translate(222.65625 0)"/>
      </g>
     </g>
    </g>
    <g id="ytick_6">
     <g id="line2d_29">
      <path d="M 56.50625 185.519903 
L 614.50625 185.519903 
" clip-path="url(#p7d987b7a0a)" style="fill: none; stroke: #b0b0b0; stroke-width: 0.8; stroke-linecap: square"/>
     </g>
     <g id="line2d_30">
      <g>
       <use xlink:href="#m3b25213dcf" x="56.50625" y="185.519903" style="stroke: #000000; stroke-width: 0.8"/>
      </g>
     </g>
     <g id="text_16">
      <!-- 0.125 -->
      <g transform="translate(20.878125 189.319122) scale(0.1 -0.1)">
       <use xlink:href="#DejaVuSans-30"/>
       <use xlink:href="#DejaVuSans-2e" transform="translate(63.623047 0)"/>
       <use xlink:href="#DejaVuSans-31" transform="translate(95.410156 0)"/>
       <use xlink:href="#DejaVuSans-32" transform="translate(159.033203 0)"/>
       <use xlink:href="#DejaVuSans-35" transform="translate(222.65625 0)"/>
      </g>
     </g>
    </g>
    <g id="ytick_7">
     <g id="line2d_31">
      <path d="M 56.50625 110.273558 
L 614.50625 110.273558 
" clip-path="url(#p7d987b7a0a)" style="fill: none; stroke: #b0b0b0; stroke-width: 0.8; stroke-linecap: square"/>
     </g>
     <g id="line2d_32">
      <g>
       <use xlink:href="#m3b25213dcf" x="56.50625" y="110.273558" style="stroke: #000000; stroke-width: 0.8"/>
      </g>
     </g>
     <g id="text_17">
      <!-- 0.150 -->
      <g transform="translate(20.878125 114.072777) scale(0.1 -0.1)">
       <use xlink:href="#DejaVuSans-30"/>
       <use xlink:href="#DejaVuSans-2e" transform="translate(63.623047 0)"/>
       <use xlink:href="#DejaVuSans-31" transform="translate(95.410156 0)"/>
       <use xlink:href="#DejaVuSans-35" transform="translate(159.033203 0)"/>
       <use xlink:href="#DejaVuSans-30" transform="translate(222.65625 0)"/>
      </g>
     </g>
    </g>
    <g id="ytick_8">
     <g id="line2d_33">
      <path d="M 56.50625 35.027213 
L 614.50625 35.027213 
" clip-path="url(#p7d987b7a0a)" style="fill: none; stroke: #b0b0b0; stroke-width: 0.8; stroke-linecap: square"/>
     </g>
     <g id="line2d_34">
      <g>
       <use xlink:href="#m3b25213dcf" x="56.50625" y="35.027213" style="stroke: #000000; stroke-width: 0.8"/>
      </g>
     </g>
     <g id="text_18">
      <!-- 0.175 -->
      <g transform="translate(20.878125 38.826432) scale(0.1 -0.1)">
       <use xlink:href="#DejaVuSans-30"/>
       <use xlink:href="#DejaVuSans-2e" transform="translate(63.623047 0)"/>
       <use xlink:href="#DejaVuSans-31" transform="translate(95.410156 0)"/>
       <use xlink:href="#DejaVuSans-37" transform="translate(159.033203 0)"/>
       <use xlink:href="#DejaVuSans-35" transform="translate(222.65625 0)"/>
      </g>
     </g>
    </g>
    <g id="text_19">
     <!-- Accuracy -->
     <g transform="translate(14.798437 322.34625) rotate(-90) scale(0.1 -0.1)">
      <defs>
       <path id="DejaVuSans-41" d="M 2188 4044 
L 1331 1722 
L 3047 1722 
L 2188 4044 
z
M 1831 4666 
L 2547 4666 
L 4325 0 
L 3669 0 
L 3244 1197 
L 1141 1197 
L 716 0 
L 50 0 
L 1831 4666 
z
" transform="scale(0.015625)"/>
       <path id="DejaVuSans-75" d="M 544 1381 
L 544 3500 
L 1119 3500 
L 1119 1403 
Q 1119 906 1312 657 
Q 1506 409 1894 409 
Q 2359 409 2629 706 
Q 2900 1003 2900 1516 
L 2900 3500 
L 3475 3500 
L 3475 0 
L 2900 0 
L 2900 538 
Q 2691 219 2414 64 
Q 2138 -91 1772 -91 
Q 1169 -91 856 284 
Q 544 659 544 1381 
z
M 1991 3584 
L 1991 3584 
z
" transform="scale(0.015625)"/>
       <path id="DejaVuSans-72" d="M 2631 2963 
Q 2534 3019 2420 3045 
Q 2306 3072 2169 3072 
Q 1681 3072 1420 2755 
Q 1159 2438 1159 1844 
L 1159 0 
L 581 0 
L 581 3500 
L 1159 3500 
L 1159 2956 
Q 1341 3275 1631 3429 
Q 1922 3584 2338 3584 
Q 2397 3584 2469 3576 
Q 2541 3569 2628 3553 
L 2631 2963 
z
" transform="scale(0.015625)"/>
       <path id="DejaVuSans-61" d="M 2194 1759 
Q 1497 1759 1228 1600 
Q 959 1441 959 1056 
Q 959 750 1161 570 
Q 1363 391 1709 391 
Q 2188 391 2477 730 
Q 2766 1069 2766 1631 
L 2766 1759 
L 2194 1759 
z
M 3341 1997 
L 3341 0 
L 2766 0 
L 2766 531 
Q 2569 213 2275 61 
Q 1981 -91 1556 -91 
Q 1019 -91 701 211 
Q 384 513 384 1019 
Q 384 1609 779 1909 
Q 1175 2209 1959 2209 
L 2766 2209 
L 2766 2266 
Q 2766 2663 2505 2880 
Q 2244 3097 1772 3097 
Q 1472 3097 1187 3025 
Q 903 2953 641 2809 
L 641 3341 
Q 956 3463 1253 3523 
Q 1550 3584 1831 3584 
Q 2591 3584 2966 3190 
Q 3341 2797 3341 1997 
z
" transform="scale(0.015625)"/>
       <path id="DejaVuSans-79" d="M 2059 -325 
Q 1816 -950 1584 -1140 
Q 1353 -1331 966 -1331 
L 506 -1331 
L 506 -850 
L 844 -850 
Q 1081 -850 1212 -737 
Q 1344 -625 1503 -206 
L 1606 56 
L 191 3500 
L 800 3500 
L 1894 763 
L 2988 3500 
L 3597 3500 
L 2059 -325 
z
" transform="scale(0.015625)"/>
      </defs>
      <use xlink:href="#DejaVuSans-41"/>
      <use xlink:href="#DejaVuSans-63" transform="translate(66.658203 0)"/>
      <use xlink:href="#DejaVuSans-63" transform="translate(121.638672 0)"/>
      <use xlink:href="#DejaVuSans-75" transform="translate(176.619141 0)"/>
      <use xlink:href="#DejaVuSans-72" transform="translate(239.998047 0)"/>
      <use xlink:href="#DejaVuSans-61" transform="translate(281.111328 0)"/>
      <use xlink:href="#DejaVuSans-63" transform="translate(342.390625 0)"/>
      <use xlink:href="#DejaVuSans-79" transform="translate(397.371094 0)"/>
     </g>
    </g>
   </g>
   <g id="line2d_35">
    <path d="M 81.869886 549.812541 
L 82.504771 548.809256 
L 83.139655 547.237445 
L 83.77454 546.735802 
L 84.409424 545.665632 
L 85.044309 544.829562 
L 85.679193 543.39152 
L 86.314078 542.839713 
L 86.948962 541.485279 
L 87.583847 540.415109 
L 88.218732 540.197731 
L 89.488501 538.308211 
L 90.123385 537.756406 
L 90.75827 536.502299 
L 91.393154 536.435413 
L 93.932692 532.923916 
L 94.567577 532.321946 
L 95.202461 531.051118 
L 95.837346 530.499314 
L 96.47223 529.546191 
L 97.107115 529.429143 
L 97.741999 527.690117 
L 98.376884 527.890771 
L 99.646653 525.666826 
L 100.281537 524.864196 
L 100.916422 524.312392 
L 102.186191 522.539921 
L 102.821075 522.004837 
L 103.45596 522.289101 
L 104.090844 520.817616 
L 104.725729 520.081874 
L 105.360613 519.864496 
L 106.630382 518.409734 
L 107.265267 517.657269 
L 107.900151 516.185786 
L 108.535036 515.39988 
L 109.16992 515.75103 
L 109.804805 514.19594 
L 111.074574 512.373302 
L 111.709459 512.038876 
L 112.344343 511.453629 
L 113.614112 509.463778 
L 114.248997 509.330006 
L 114.883881 507.825082 
L 115.518766 507.106058 
L 116.15365 507.289995 
L 116.788535 505.534245 
L 118.058304 503.29358 
L 118.693188 503.260138 
L 119.328073 502.758493 
L 119.962957 500.200119 
L 120.597842 500.83553 
L 121.232726 498.678471 
L 121.867611 498.511258 
L 122.502495 497.441084 
L 123.13738 496.086649 
L 124.407149 496.003043 
L 125.042033 494.28074 
L 125.676918 494.364347 
L 126.311802 493.110242 
L 126.946687 491.254162 
L 127.581571 491.387934 
L 128.216456 489.899728 
L 128.85134 489.832845 
L 130.121109 488.277755 
L 131.390879 486.221021 
L 132.660648 484.632484 
L 133.295532 484.933469 
L 133.930417 483.244608 
L 134.565301 481.890173 
L 135.200186 481.321645 
L 135.83507 481.421975 
L 136.469955 479.515736 
L 137.104839 477.994088 
L 137.739724 478.696382 
L 139.009493 475.719975 
L 139.644377 474.883903 
L 140.279262 474.883903 
L 140.914146 473.228484 
L 141.549031 473.061271 
L 142.183915 471.456016 
L 142.8188 470.686828 
L 143.453684 470.436008 
L 144.088569 468.46288 
L 144.723453 468.529768 
L 145.358338 467.777303 
L 145.993222 466.640253 
L 146.628107 466.422874 
L 147.262991 464.650401 
L 150.437414 459.868079 
L 151.072298 457.828062 
L 151.707183 459.500206 
L 152.342067 456.958549 
L 152.976952 457.309705 
L 155.51649 453.129353 
L 156.151375 452.677867 
L 156.786259 451.273267 
L 158.056028 449.433922 
L 158.690913 448.196535 
L 159.325797 446.557839 
L 159.960682 447.293575 
L 160.595566 446.106354 
L 161.230451 444.484376 
L 161.865335 444.534541 
L 162.50022 443.74864 
L 163.135104 441.859118 
L 163.769989 441.691905 
L 164.404873 439.936161 
L 165.039758 440.03648 
L 165.674642 439.267297 
L 166.309527 437.812532 
L 166.944411 437.043349 
L 167.579296 436.658758 
L 168.21418 434.568587 
L 168.849065 434.618752 
L 170.118834 433.264318 
L 170.753718 432.361357 
L 171.388603 430.522001 
L 172.023487 430.254458 
L 172.658372 428.749528 
L 173.293256 428.749528 
L 173.928141 428.983635 
L 174.563026 426.542309 
L 175.19791 426.224601 
L 175.832795 424.786554 
L 177.102564 423.198023 
L 177.737448 422.094414 
L 178.372333 421.776705 
L 179.007217 421.208182 
L 179.642102 420.405552 
L 180.276986 419.101283 
L 180.911871 419.000953 
L 181.546755 417.144878 
L 182.18164 417.362257 
L 182.816524 415.723549 
L 183.451409 414.954366 
L 184.086293 414.001252 
L 184.721178 411.743857 
L 185.356062 412.41271 
L 185.990947 411.192053 
L 186.625831 410.840897 
L 187.260716 409.101871 
L 187.8956 408.232358 
L 188.530485 408.433018 
L 189.165369 406.660545 
L 189.800254 405.857926 
L 190.435138 405.673984 
L 191.070023 404.637258 
L 191.704907 402.61397 
L 192.339792 402.563805 
L 192.974676 401.393301 
L 193.609561 401.326418 
L 194.244445 400.038867 
L 195.514215 399.436897 
L 196.149099 396.728028 
L 196.783984 397.7146 
L 198.053753 394.888682 
L 198.688637 394.136217 
L 199.323522 394.888682 
L 200.593291 391.076192 
L 201.86306 390.474223 
L 202.497944 388.90241 
L 203.132829 388.735197 
L 203.767713 387.665023 
L 204.402598 387.581422 
L 205.672367 384.80567 
L 206.307251 384.354184 
L 206.942136 383.417788 
L 207.57702 383.20041 
L 208.846789 381.160404 
L 209.481674 379.220718 
L 210.116558 379.120387 
L 210.751443 378.668913 
L 211.386327 378.050214 
L 212.021212 375.859713 
L 213.290981 375.207579 
L 214.56075 372.532156 
L 215.195634 372.231166 
L 215.830519 371.294758 
L 216.465403 370.759694 
L 217.100288 371.579042 
L 217.735173 368.385251 
L 218.370057 367.799999 
L 219.004942 367.749834 
L 219.639826 367.248183 
L 220.274711 366.17801 
L 220.909595 364.505878 
L 221.54448 363.820296 
L 222.179364 363.719966 
L 222.814249 363.051113 
L 223.449133 361.278651 
L 224.084018 361.027826 
L 224.718902 359.673391 
L 225.353787 359.556332 
L 226.623556 356.312376 
L 227.25844 356.4796 
L 227.893325 355.29239 
L 228.528209 355.810747 
L 229.163094 354.389418 
L 229.797978 352.499897 
L 230.432863 353.252373 
L 231.702632 350.760871 
L 232.337516 350.359573 
L 234.24217 346.948392 
L 234.877054 347.951671 
L 235.511939 346.413305 
L 236.146823 344.540513 
L 236.781708 344.741173 
L 237.416592 343.97199 
L 238.051477 343.637564 
L 239.321246 341.731313 
L 239.956131 340.376879 
L 240.591015 340.477209 
L 241.2259 339.289999 
L 242.495669 337.417184 
L 243.765438 337.634573 
L 244.400322 335.878818 
L 245.670091 333.052912 
L 246.304976 332.785357 
L 246.93986 332.183399 
L 247.574745 332.333894 
L 248.209629 330.66174 
L 248.844514 330.043052 
L 249.479398 330.226983 
L 250.114283 328.354191 
L 250.749167 328.287296 
L 251.384052 327.718774 
L 252.653821 325.009904 
L 253.288705 324.775808 
L 253.92359 325.1604 
L 255.193359 321.782677 
L 255.828243 320.729233 
L 256.463128 321.933173 
L 257.732897 319.174138 
L 258.367781 317.886575 
L 259.63755 317.95347 
L 260.272435 316.74953 
L 260.90732 316.983626 
L 261.542204 316.766259 
L 262.177089 314.140991 
L 262.811973 314.659348 
L 263.446858 312.987216 
L 264.081742 312.886886 
L 264.716627 311.030801 
L 265.351511 310.679668 
L 265.986396 310.027522 
L 266.62128 308.622922 
L 267.256165 309.626201 
L 267.891049 307.770138 
L 268.525934 307.586207 
L 269.160818 306.449139 
L 269.795703 306.164878 
L 270.430587 305.144869 
L 271.065472 305.178305 
L 271.700356 304.308792 
L 272.335241 302.185175 
L 272.970125 302.63666 
L 273.60501 301.917643 
L 274.239894 300.078286 
L 274.874779 299.760567 
L 276.144548 298.656957 
L 278.049201 295.897923 
L 278.684086 294.677277 
L 279.31897 294.510052 
L 279.953855 294.225791 
L 280.588739 293.740869 
L 281.223624 292.302833 
L 281.858509 291.215931 
L 282.493393 289.694294 
L 283.128278 291.366426 
L 283.763162 290.145757 
L 285.032931 288.841488 
L 285.667816 286.467045 
L 286.3027 286.968696 
L 286.937585 285.73132 
L 287.572469 285.915251 
L 288.207354 284.778184 
L 288.842238 283.239818 
L 289.477123 283.540808 
L 290.746892 280.999163 
L 291.381776 281.1162 
L 292.016661 280.581114 
L 292.651545 278.708321 
L 293.28643 279.042748 
L 293.921314 278.741757 
L 294.556199 276.266984 
L 295.191083 277.203391 
L 295.825968 276.601433 
L 296.460852 275.581424 
L 297.095737 276.250277 
L 298.365506 273.240417 
L 299.00039 274.578123 
L 299.635275 272.019749 
L 300.270159 272.253867 
L 300.905044 270.799102 
L 301.539928 271.551556 
L 302.174813 270.314181 
L 302.809697 270.113521 
L 303.444582 269.394503 
L 304.079467 268.190563 
L 304.714351 268.173834 
L 305.349236 266.217418 
L 305.98412 266.518409 
L 307.253889 263.642337 
L 307.888774 262.655765 
L 308.523658 263.408241 
L 309.158543 260.833138 
L 309.793427 260.983633 
L 310.428312 260.799702 
L 311.063196 259.645905 
L 311.698081 259.311479 
L 312.332965 257.739677 
L 312.96785 258.659355 
L 314.237619 256.184582 
L 314.872503 255.532436 
L 315.507388 256.050816 
L 316.777157 253.576043 
L 317.412041 253.392112 
L 318.046926 252.221608 
L 318.68181 252.321938 
L 319.316695 251.686521 
L 319.951579 252.004218 
L 320.586464 250.750114 
L 321.221348 250.516018 
L 322.491117 247.20519 
L 323.126002 246.252053 
L 323.760886 247.30552 
L 325.030656 244.462884 
L 325.66554 245.716989 
L 326.300425 243.877633 
L 326.935309 244.111729 
L 327.570194 242.740565 
L 328.205078 241.820887 
L 328.839963 242.539905 
L 329.474847 242.656964 
L 330.109732 240.917938 
L 330.744616 238.526766 
L 331.379501 239.212348 
L 332.014385 238.844485 
L 332.64927 237.28939 
L 333.284154 236.88807 
L 333.919039 236.336276 
L 334.553923 235.450034 
L 335.188808 235.667401 
L 335.823692 233.928375 
L 336.458577 234.563792 
L 337.093461 234.062163 
L 337.728346 231.202799 
L 338.36323 231.68772 
L 338.998115 230.834914 
L 339.632999 229.564103 
L 340.267884 230.132625 
L 340.902768 230.216226 
L 341.537653 228.761461 
L 342.172537 228.126067 
L 342.807422 228.092609 
L 343.442306 226.671302 
L 344.077191 226.704738 
L 344.712075 225.56767 
L 345.34696 225.98572 
L 345.981844 225.818496 
L 346.616729 224.68145 
L 347.251614 223.19325 
L 347.886498 222.97586 
L 348.521383 223.159791 
L 349.156267 221.086339 
L 349.791152 221.119775 
L 350.426036 220.802077 
L 351.060921 219.263712 
L 351.695805 219.631574 
L 352.33069 218.143373 
L 352.965574 216.939434 
L 353.600459 217.909277 
L 354.235343 217.842383 
L 354.870228 217.17353 
L 355.505112 216.237123 
L 356.139997 215.016476 
L 356.774881 215.56827 
L 357.409766 212.591868 
L 358.04465 211.755791 
L 358.679535 212.642033 
L 359.314419 211.889557 
L 359.949304 211.3712 
L 361.853957 208.829555 
L 362.488842 209.749233 
L 363.123726 207.809546 
L 363.758611 207.05707 
L 364.393495 205.786259 
L 365.02838 207.040363 
L 365.663264 207.224294 
L 366.298149 205.468539 
L 366.933033 204.515425 
L 367.567918 204.431824 
L 368.202803 203.679348 
L 368.837687 204.080668 
L 369.472572 202.893458 
L 370.742341 201.856721 
L 371.377225 200.385227 
L 372.01211 200.953772 
L 372.646994 200.652781 
L 373.281879 198.462269 
L 373.916763 199.147851 
L 374.551648 197.960641 
L 375.186532 199.114415 
L 375.821417 198.178008 
L 376.456301 195.719964 
L 377.091186 196.472418 
L 377.72607 195.017653 
L 378.360955 195.536033 
L 378.995839 195.285207 
L 379.630724 192.827163 
L 380.265608 194.66652 
L 380.900493 192.358971 
L 381.535377 192.392407 
L 382.170262 192.175017 
L 382.805146 190.854041 
L 383.440031 190.435991 
L 384.074915 189.315653 
L 384.7098 189.198616 
L 385.344684 189.215345 
L 385.979569 189.566478 
L 386.614453 188.278938 
L 387.249338 187.275658 
L 387.884222 187.777287 
L 388.519107 186.205485 
L 389.153991 185.703834 
L 389.788876 185.46976 
L 390.423761 185.620233 
L 391.058645 184.533331 
L 391.69353 182.861221 
L 392.328414 182.510043 
L 394.233068 182.225782 
L 394.867952 180.704145 
L 395.502837 182.075309 
L 396.137721 179.633972 
L 396.772606 179.433311 
L 397.40749 178.32968 
L 398.677259 178.731 
L 399.312144 177.761157 
L 399.947028 176.373309 
L 400.581913 176.958561 
L 401.216797 176.858231 
L 401.851682 175.386737 
L 402.486566 174.266376 
L 403.121451 175.42015 
L 403.756335 173.079188 
L 404.39122 173.229661 
L 405.026104 172.778197 
L 405.660989 173.614252 
L 406.295873 170.938841 
L 406.930758 171.641152 
L 407.565642 170.504062 
L 408.200527 169.935539 
L 408.835411 171.072585 
L 410.10518 168.229972 
L 411.37495 166.658147 
L 412.009834 165.25357 
L 412.644719 166.825349 
L 413.279603 166.440758 
L 414.549372 164.250268 
L 415.184257 165.303713 
L 415.819141 162.711902 
L 416.454026 163.313883 
L 417.08891 162.661715 
L 417.723795 163.012893 
L 418.358679 162.979435 
L 418.993564 161.173537 
L 419.628448 161.324009 
L 420.263333 161.340739 
L 420.898217 161.675187 
L 421.533102 160.370895 
L 422.167986 158.447938 
L 422.802871 158.983047 
L 423.437755 159.768914 
L 424.07264 158.949589 
L 424.707524 156.976444 
L 425.342409 156.692183 
L 425.977293 155.321019 
L 426.612178 155.856128 
L 427.247062 154.819413 
L 427.881947 152.980057 
L 428.516831 154.702354 
L 429.7866 150.388202 
L 430.421485 152.244287 
L 431.056369 153.699052 
L 431.691254 151.090513 
L 432.326138 149.702665 
L 432.961023 150.555448 
L 433.595908 151.123971 
L 434.230792 150.689192 
L 434.865677 149.117413 
L 435.500561 148.782964 
L 436.135446 149.318028 
L 436.77033 146.910149 
L 437.405215 148.298042 
L 438.040099 146.525558 
L 438.674984 147.662648 
L 439.309868 146.559016 
L 439.944753 144.92032 
L 440.579637 145.33837 
L 441.214522 144.686201 
L 441.849406 144.970463 
L 442.484291 144.50227 
L 443.119175 142.729831 
L 443.75406 142.094391 
L 444.388944 142.144579 
L 445.023829 143.047505 
L 445.658713 141.843588 
L 446.293598 141.174736 
L 446.928482 140.087833 
L 448.198251 140.004232 
L 448.833136 137.512752 
L 449.46802 138.59961 
L 450.102905 137.780284 
L 450.737789 136.375662 
L 451.372674 137.412422 
L 452.007558 137.278633 
L 452.642443 136.0078 
L 453.277327 136.041258 
L 453.912212 135.238617 
L 454.547097 133.767123 
L 455.181981 134.653365 
L 455.816866 133.382531 
L 456.45175 133.215329 
L 457.086635 132.228757 
L 457.721519 132.696949 
L 458.356404 130.740579 
L 459.626173 130.539918 
L 460.261057 129.302543 
L 460.895942 128.784163 
L 461.530826 128.750705 
L 462.165711 128.11531 
L 462.800595 126.978265 
L 463.43548 126.844476 
L 464.070364 128.416301 
L 464.705249 126.844476 
L 465.340133 126.259225 
L 465.975018 127.563517 
L 466.609902 124.018548 
L 467.244787 124.453327 
L 467.879671 125.372982 
L 468.514556 123.667415 
L 469.14944 122.530369 
L 469.784325 122.162462 
L 470.419209 121.945117 
L 471.054094 123.115621 
L 471.688978 120.222776 
L 472.323863 121.710999 
L 472.958747 118.600809 
L 473.593632 120.256234 
L 474.228516 118.600809 
L 474.863401 118.316547 
L 475.498285 118.88507 
L 476.13317 118.400148 
L 476.768055 117.630966 
L 477.402939 117.313291 
L 478.037824 116.49392 
L 478.672708 115.239816 
L 479.307593 116.978842 
L 479.942477 115.440476 
L 480.577362 115.340146 
L 481.212246 113.818509 
L 481.847131 113.450647 
L 483.1169 113.199799 
L 483.751784 112.848666 
L 484.386669 111.243383 
L 485.021553 112.447345 
L 485.656438 110.624718 
L 486.291322 110.557801 
L 486.926207 111.995882 
L 487.561091 110.240127 
L 488.195976 109.169953 
L 488.83086 109.002751 
L 489.465745 108.066322 
L 490.100629 108.751904 
L 490.735514 108.785362 
L 491.370398 106.745345 
L 492.005283 106.745345 
L 492.640167 105.658443 
L 493.275052 104.939447 
L 494.544821 105.574842 
L 495.179705 103.936146 
L 495.81459 105.6083 
L 496.449474 103.317435 
L 497.084359 103.200421 
L 497.719244 101.260735 
L 498.354128 102.564982 
L 498.989013 101.77907 
L 499.623897 101.845986 
L 500.258782 100.825956 
L 500.893666 102.49811 
L 501.528551 101.060074 
L 502.163435 99.973172 
L 502.79832 99.571851 
L 503.433204 99.438062 
L 504.068089 97.464963 
L 504.702973 96.879711 
L 505.337858 99.036787 
L 505.972742 97.632164 
L 506.607627 96.929853 
L 507.242511 98.200687 
L 507.877396 95.876409 
L 508.51228 95.692478 
L 509.147165 96.194129 
L 509.782049 94.455103 
L 510.416934 93.635777 
L 511.051818 94.371502 
L 512.321587 94.020368 
L 512.956472 92.264613 
L 513.591356 92.398357 
L 514.226241 91.779692 
L 514.861125 91.779692 
L 515.49601 89.923606 
L 516.130894 91.913435 
L 516.765779 92.214426 
L 517.400663 89.622616 
L 518.035548 89.990478 
L 518.670433 89.371813 
L 519.305317 89.421955 
L 519.940202 88.80329 
L 520.575086 87.649471 
L 521.209971 85.99409 
L 521.844855 87.080948 
L 522.47974 87.398668 
L 523.114624 85.408839 
L 523.749509 86.178022 
L 524.384393 85.325193 
L 525.019278 85.141262 
L 525.654162 84.606197 
L 526.289047 84.589468 
L 526.923931 83.00096 
L 527.558816 82.900629 
L 528.1937 84.121276 
L 528.828585 83.519295 
L 529.463469 81.763539 
L 530.098354 82.649782 
L 530.733238 81.094687 
L 531.368123 80.693366 
L 532.003007 80.09143 
L 532.637892 80.659953 
L 533.272776 81.077957 
L 533.907661 80.509435 
L 534.542545 80.710095 
L 535.17743 79.071399 
L 535.812314 78.469418 
L 536.447199 78.201886 
L 537.082083 77.566492 
L 537.716968 75.760549 
L 538.351852 77.38256 
L 538.986737 76.094998 
L 540.256506 76.379259 
L 540.891391 75.626805 
L 541.526275 76.579919 
L 542.16116 73.937922 
L 542.796044 73.302527 
L 543.430929 74.991366 
L 544.065813 74.255641 
L 544.700698 71.747432 
L 545.335582 72.048423 
L 545.970467 74.038252 
L 546.605351 72.399556 
L 547.240236 72.399556 
L 547.87512 70.025135 
L 548.510005 71.964822 
L 549.144889 71.329382 
L 549.779774 68.988375 
L 550.414658 68.821173 
L 551.049543 69.690686 
L 551.684427 67.918247 
L 552.319312 68.319522 
L 552.954196 68.553641 
L 553.589081 67.316266 
L 554.223965 67.817917 
L 554.85885 67.015275 
L 555.493734 66.028703 
L 556.128619 65.945102 
L 556.763503 65.409993 
L 557.398388 66.563812 
L 558.033272 65.7779 
L 558.668157 66.346422 
L 559.303041 64.791327 
L 559.937926 64.791327 
L 560.57281 64.473608 
L 561.207695 63.420164 
L 561.84258 63.721154 
L 562.477464 63.620824 
L 563.112349 63.169361 
L 563.747233 60.794895 
L 564.382118 60.644422 
L 565.017002 60.661151 
L 565.651887 61.681137 
L 566.286771 60.610964 
L 567.55654 60.677836 
L 568.826309 59.825052 
L 570.096078 59.774909 
L 571.365847 58.905396 
L 572.000732 59.189657 
L 572.635616 57.818494 
L 573.270501 58.570947 
L 573.905385 57.567691 
L 574.54027 56.046009 
L 575.175154 55.410615 
L 575.810039 56.781778 
L 576.444923 55.226683 
L 577.079808 54.725033 
L 577.714692 54.825363 
L 578.349577 55.293555 
L 578.984461 54.47423 
L 579.619346 53.253539 
L 580.25423 53.153208 
L 580.889115 54.708304 
L 581.523999 51.614843 
L 582.158884 53.019465 
L 582.793768 51.313852 
L 583.428653 51.180109 
L 584.063538 52.083035 
L 584.698422 52.016163 
L 585.333307 50.310595 
L 586.603076 49.307294 
L 587.23796 49.775486 
L 587.872845 48.421052 
L 588.507729 49.491225 
L 589.142614 47.518125 
L 589.142614 47.518125 
" clip-path="url(#p7d987b7a0a)" style="fill: none; stroke: #1f77b4; stroke-width: 1.5; stroke-linecap: square"/>
   </g>
   <g id="line2d_36">
    <path d="M 81.869886 550.765661 
L 83.139655 549.260735 
L 83.77454 551.518125 
L 84.409424 549.862706 
L 85.044309 550.314183 
L 85.679193 549.110243 
L 86.314078 548.357779 
L 86.948962 550.163691 
L 87.583847 549.712212 
L 88.218732 549.712212 
L 88.853616 547.755808 
L 89.488501 548.056793 
L 90.123385 549.411227 
L 90.75827 549.411227 
L 91.393154 550.163691 
L 92.028039 550.013199 
L 92.662923 549.110243 
L 93.297808 550.163691 
L 93.932692 549.712212 
L 94.567577 550.163691 
L 95.202461 549.260735 
L 95.837346 549.56172 
L 96.47223 549.56172 
L 97.107115 549.411227 
L 97.741999 549.411227 
L 98.376884 548.357779 
L 99.011768 549.712212 
L 99.646653 550.163691 
L 100.281537 547.454823 
L 100.916422 546.852852 
L 101.551306 547.9063 
L 102.186191 547.605315 
L 102.821075 548.207287 
L 103.45596 547.755808 
L 104.725729 547.755808 
L 105.360613 548.959749 
L 105.995498 547.003344 
L 106.630382 547.454823 
L 107.265267 547.003344 
L 107.900151 548.658764 
L 108.535036 547.304329 
L 109.16992 548.357779 
L 109.804805 547.605315 
L 111.074574 549.110243 
L 111.709459 547.9063 
L 112.344343 547.454823 
L 112.979228 547.9063 
L 113.614112 547.9063 
L 114.248997 548.207287 
L 114.883881 547.304329 
L 115.518766 547.454823 
L 116.15365 547.454823 
L 116.788535 547.153837 
L 117.423419 548.207287 
L 118.058304 546.852852 
L 118.693188 548.056793 
L 119.328073 547.755808 
L 119.962957 546.100388 
L 120.597842 548.357779 
L 121.232726 547.9063 
L 121.867611 546.551867 
L 123.13738 547.605315 
L 123.772264 545.498417 
L 124.407149 546.401373 
L 125.676918 545.799403 
L 126.311802 547.454823 
L 126.946687 546.100388 
L 127.581571 547.153837 
L 128.216456 546.702359 
L 128.85134 546.551867 
L 129.486225 547.605315 
L 130.121109 546.702359 
L 130.755994 546.401373 
L 131.390879 546.250881 
L 132.025763 547.9063 
L 132.660648 547.755808 
L 133.295532 546.250881 
L 133.930417 545.949896 
L 134.565301 546.551867 
L 135.200186 547.9063 
L 136.469955 545.949896 
L 137.104839 546.401373 
L 138.374608 546.702359 
L 139.009493 546.551867 
L 139.644377 547.755808 
L 140.279262 545.799403 
L 140.914146 547.153837 
L 141.549031 547.454823 
L 142.183915 547.304329 
L 142.8188 547.454823 
L 143.453684 548.207287 
L 144.088569 546.551867 
L 144.723453 546.100388 
L 145.358338 547.605315 
L 145.993222 547.304329 
L 146.628107 546.100388 
L 147.262991 547.153837 
L 147.897876 547.605315 
L 148.53276 547.304329 
L 149.167645 546.551867 
L 149.802529 548.508271 
L 150.437414 547.153837 
L 151.072298 546.551867 
L 151.707183 547.605315 
L 152.342067 548.056793 
L 152.976952 547.304329 
L 153.611837 547.153837 
L 154.246721 547.454823 
L 154.881606 546.702359 
L 155.51649 548.357779 
L 156.151375 547.605315 
L 157.421144 547.304329 
L 158.056028 548.207287 
L 158.690913 547.755808 
L 159.325797 547.454823 
L 159.960682 547.304329 
L 160.595566 548.056793 
L 161.230451 547.605315 
L 161.865335 548.809256 
L 163.135104 546.401373 
L 164.404873 547.755808 
L 165.039758 547.9063 
L 165.674642 546.702359 
L 166.309527 548.056793 
L 166.944411 546.702359 
L 167.579296 547.304329 
L 168.849065 545.949896 
L 169.483949 547.755808 
L 170.118834 546.852852 
L 170.753718 546.852852 
L 171.388603 547.153837 
L 172.023487 546.551867 
L 172.658372 547.003344 
L 173.928141 547.003344 
L 174.563026 546.250881 
L 175.19791 545.949896 
L 175.832795 546.100388 
L 176.467679 545.949896 
L 177.737448 545.04694 
L 178.372333 546.852852 
L 179.007217 545.197432 
L 179.642102 546.250881 
L 180.276986 546.100388 
L 180.911871 545.64891 
L 181.546755 545.347925 
L 182.816524 547.304329 
L 183.451409 545.498417 
L 184.086293 545.197432 
L 184.721178 545.347925 
L 185.356062 546.401373 
L 185.990947 545.498417 
L 186.625831 546.702359 
L 187.260716 545.949896 
L 187.8956 546.401373 
L 188.530485 546.250881 
L 189.165369 546.702359 
L 189.800254 547.003344 
L 190.435138 545.949896 
L 191.070023 546.100388 
L 191.704907 546.100388 
L 192.339792 547.003344 
L 192.974676 546.401373 
L 193.609561 547.003344 
L 194.244445 545.197432 
L 194.87933 546.401373 
L 195.514215 545.949896 
L 196.149099 546.551867 
L 196.783984 547.454823 
L 197.418868 547.003344 
L 198.053753 546.250881 
L 198.688637 546.702359 
L 199.323522 546.401373 
L 200.593291 547.605315 
L 201.228175 546.702359 
L 201.86306 548.207287 
L 202.497944 547.755808 
L 203.132829 546.551867 
L 203.767713 546.702359 
L 204.402598 547.153837 
L 205.037482 547.755808 
L 205.672367 548.658764 
L 206.307251 548.207287 
L 206.942136 547.304329 
L 207.57702 548.658764 
L 208.211905 547.605315 
L 208.846789 548.056793 
L 209.481674 547.9063 
L 210.116558 548.658764 
L 210.751443 547.454823 
L 211.386327 547.454823 
L 212.021212 549.110243 
L 212.656096 549.411227 
L 213.290981 548.357779 
L 213.925865 548.809256 
L 214.56075 548.658764 
L 215.195634 548.658764 
L 216.465403 548.959749 
L 217.100288 548.207287 
L 217.735173 548.809256 
L 219.004942 548.809256 
L 219.639826 549.56172 
L 220.274711 549.110243 
L 220.909595 549.411227 
L 221.54448 548.508271 
L 222.179364 549.56172 
L 222.814249 548.508271 
L 223.449133 548.207287 
L 224.084018 549.260735 
L 224.718902 548.658764 
L 225.353787 549.110243 
L 225.988671 548.809256 
L 226.623556 549.110243 
L 227.25844 549.110243 
L 227.893325 549.260735 
L 228.528209 548.207287 
L 229.163094 548.809256 
L 229.797978 548.508271 
L 230.432863 549.862706 
L 231.067747 548.959749 
L 231.702632 548.809256 
L 232.337516 549.260735 
L 232.972401 548.809256 
L 233.607285 547.454823 
L 234.24217 548.959749 
L 234.877054 548.207287 
L 235.511939 548.056793 
L 236.146823 548.508271 
L 236.781708 549.56172 
L 237.416592 549.260735 
L 238.051477 547.755808 
L 238.686362 548.207287 
L 239.321246 547.9063 
L 239.956131 548.658764 
L 240.591015 548.056793 
L 241.2259 548.959749 
L 243.130553 548.959749 
L 243.765438 549.110243 
L 244.400322 548.658764 
L 245.035207 547.755808 
L 245.670091 547.755808 
L 246.304976 549.110243 
L 246.93986 548.508271 
L 247.574745 548.207287 
L 248.209629 548.357779 
L 248.844514 546.852852 
L 249.479398 548.207287 
L 250.114283 546.702359 
L 250.749167 548.056793 
L 251.384052 547.9063 
L 252.018936 548.056793 
L 252.653821 546.852852 
L 253.288705 547.304329 
L 253.92359 547.9063 
L 254.558474 548.056793 
L 255.193359 547.153837 
L 255.828243 547.9063 
L 256.463128 547.755808 
L 257.732897 548.809256 
L 258.367781 548.357779 
L 259.002666 548.658764 
L 259.63755 548.357779 
L 260.272435 547.153837 
L 260.90732 547.003344 
L 261.542204 548.658764 
L 262.177089 547.9063 
L 262.811973 549.260735 
L 263.446858 547.605315 
L 264.081742 547.304329 
L 264.716627 547.755808 
L 265.351511 548.658764 
L 265.986396 547.605315 
L 266.62128 547.605315 
L 267.256165 548.056793 
L 267.891049 548.207287 
L 268.525934 547.454823 
L 269.160818 547.9063 
L 269.795703 547.605315 
L 271.065472 547.304329 
L 271.700356 547.755808 
L 272.335241 548.056793 
L 272.970125 546.702359 
L 273.60501 547.9063 
L 274.239894 547.454823 
L 274.874779 547.304329 
L 275.509663 547.304329 
L 276.144548 546.702359 
L 276.779432 547.003344 
L 277.414317 549.110243 
L 278.049201 548.508271 
L 278.684086 548.207287 
L 279.31897 546.852852 
L 279.953855 547.605315 
L 280.588739 547.003344 
L 281.223624 547.003344 
L 281.858509 547.454823 
L 282.493393 547.003344 
L 283.128278 547.605315 
L 283.763162 546.702359 
L 284.398047 547.454823 
L 285.032931 547.153837 
L 285.667816 547.003344 
L 286.3027 547.003344 
L 286.937585 547.454823 
L 287.572469 547.304329 
L 288.207354 547.605315 
L 289.477123 547.003344 
L 290.112007 546.852852 
L 290.746892 546.250881 
L 291.381776 546.401373 
L 292.016661 546.702359 
L 292.651545 546.250881 
L 293.28643 546.702359 
L 293.921314 546.250881 
L 294.556199 547.304329 
L 295.191083 546.100388 
L 295.825968 546.100388 
L 296.460852 545.949896 
L 297.095737 545.64891 
L 297.730621 547.153837 
L 298.365506 546.401373 
L 299.00039 546.401373 
L 299.635275 545.949896 
L 300.270159 547.304329 
L 300.905044 546.702359 
L 301.539928 546.551867 
L 302.174813 546.551867 
L 302.809697 546.852852 
L 303.444582 545.64891 
L 304.079467 546.100388 
L 304.714351 546.702359 
L 305.349236 545.347925 
L 305.98412 546.551867 
L 306.619005 545.949896 
L 307.253889 546.702359 
L 308.523658 546.702359 
L 309.793427 545.64891 
L 310.428312 546.702359 
L 311.063196 546.551867 
L 311.698081 546.250881 
L 312.332965 546.852852 
L 312.96785 545.949896 
L 313.602734 545.949896 
L 314.237619 547.304329 
L 314.872503 546.250881 
L 315.507388 545.949896 
L 316.142272 546.100388 
L 316.777157 547.304329 
L 318.046926 546.401373 
L 318.68181 546.702359 
L 319.316695 546.401373 
L 319.951579 546.551867 
L 320.586464 546.852852 
L 321.221348 546.702359 
L 321.856233 545.197432 
L 322.491117 546.100388 
L 323.126002 546.551867 
L 323.760886 546.250881 
L 324.395771 545.197432 
L 325.66554 546.852852 
L 326.300425 545.64891 
L 326.935309 546.702359 
L 327.570194 545.949896 
L 328.205078 546.100388 
L 328.839963 545.799403 
L 329.474847 546.551867 
L 330.109732 547.003344 
L 330.744616 546.702359 
L 331.379501 546.702359 
L 332.014385 545.799403 
L 332.64927 546.401373 
L 333.284154 546.250881 
L 333.919039 545.949896 
L 334.553923 547.304329 
L 335.188808 545.949896 
L 335.823692 546.551867 
L 336.458577 545.949896 
L 337.093461 547.9063 
L 337.728346 545.949896 
L 338.36323 545.949896 
L 338.998115 546.551867 
L 339.632999 546.401373 
L 340.267884 547.605315 
L 340.902768 547.304329 
L 341.537653 546.250881 
L 342.172537 547.605315 
L 342.807422 548.357779 
L 343.442306 547.454823 
L 344.077191 545.799403 
L 344.712075 547.003344 
L 345.34696 546.250881 
L 345.981844 546.100388 
L 346.616729 547.153837 
L 347.251614 545.799403 
L 347.886498 546.551867 
L 348.521383 546.702359 
L 349.156267 547.304329 
L 349.791152 547.153837 
L 351.060921 546.551867 
L 351.695805 545.799403 
L 352.33069 547.003344 
L 352.965574 547.454823 
L 353.600459 546.551867 
L 354.235343 547.153837 
L 354.870228 547.153837 
L 355.505112 546.551867 
L 356.139997 546.852852 
L 356.774881 547.304329 
L 357.409766 545.498417 
L 358.04465 546.852852 
L 358.679535 546.250881 
L 359.314419 547.153837 
L 359.949304 546.250881 
L 360.584188 546.551867 
L 361.219073 547.153837 
L 361.853957 546.551867 
L 362.488842 546.702359 
L 363.123726 546.551867 
L 363.758611 548.056793 
L 364.393495 545.799403 
L 365.02838 547.304329 
L 366.298149 546.401373 
L 366.933033 547.605315 
L 367.567918 546.551867 
L 368.202803 546.852852 
L 369.472572 546.551867 
L 370.107456 546.702359 
L 370.742341 547.454823 
L 371.377225 546.852852 
L 372.01211 546.551867 
L 372.646994 547.153837 
L 373.281879 547.003344 
L 373.916763 548.207287 
L 374.551648 546.852852 
L 375.186532 547.153837 
L 375.821417 547.304329 
L 376.456301 546.250881 
L 377.091186 545.949896 
L 377.72607 546.852852 
L 378.360955 545.799403 
L 378.995839 547.304329 
L 379.630724 547.003344 
L 380.265608 547.755808 
L 380.900493 546.551867 
L 381.535377 546.702359 
L 382.170262 546.100388 
L 382.805146 546.100388 
L 383.440031 547.003344 
L 384.074915 547.304329 
L 384.7098 546.250881 
L 385.344684 547.755808 
L 385.979569 547.605315 
L 386.614453 548.056793 
L 387.884222 546.702359 
L 388.519107 547.304329 
L 389.153991 547.003344 
L 389.788876 547.003344 
L 390.423761 547.755808 
L 391.058645 546.551867 
L 391.69353 547.605315 
L 392.328414 547.454823 
L 392.963299 546.852852 
L 393.598183 547.9063 
L 394.233068 548.207287 
L 394.867952 547.454823 
L 395.502837 547.755808 
L 396.137721 547.605315 
L 396.772606 547.153837 
L 398.042375 548.508271 
L 398.677259 547.605315 
L 399.312144 547.304329 
L 399.947028 547.153837 
L 400.581913 547.454823 
L 401.216797 547.454823 
L 401.851682 547.605315 
L 402.486566 547.454823 
L 403.121451 547.153837 
L 403.756335 547.454823 
L 404.39122 547.304329 
L 405.026104 547.755808 
L 405.660989 547.304329 
L 406.295873 547.9063 
L 406.930758 547.003344 
L 407.565642 547.605315 
L 408.200527 547.003344 
L 408.835411 546.852852 
L 409.470296 547.755808 
L 410.10518 547.003344 
L 410.740065 546.852852 
L 411.37495 546.551867 
L 412.009834 547.605315 
L 412.644719 547.304329 
L 413.279603 547.755808 
L 413.914488 547.605315 
L 414.549372 547.304329 
L 415.184257 547.605315 
L 415.819141 548.508271 
L 416.454026 548.207287 
L 417.08891 548.056793 
L 417.723795 547.153837 
L 418.358679 547.755808 
L 418.993564 547.304329 
L 419.628448 547.304329 
L 420.263333 547.454823 
L 420.898217 547.003344 
L 421.533102 547.755808 
L 422.167986 546.702359 
L 422.802871 546.551867 
L 424.07264 547.153837 
L 424.707524 547.003344 
L 425.342409 547.304329 
L 425.977293 547.304329 
L 426.612178 546.702359 
L 427.247062 548.056793 
L 427.881947 546.852852 
L 428.516831 547.003344 
L 429.151716 547.605315 
L 429.7866 547.304329 
L 430.421485 547.605315 
L 431.056369 547.454823 
L 431.691254 546.551867 
L 432.326138 547.9063 
L 432.961023 547.153837 
L 433.595908 547.9063 
L 434.230792 546.702359 
L 435.500561 547.003344 
L 436.135446 546.551867 
L 436.77033 547.454823 
L 437.405215 547.755808 
L 438.674984 546.551867 
L 439.309868 548.357779 
L 439.944753 547.9063 
L 441.214522 546.852852 
L 441.849406 547.003344 
L 442.484291 546.100388 
L 443.119175 548.056793 
L 443.75406 546.852852 
L 444.388944 546.702359 
L 445.023829 547.454823 
L 445.658713 547.003344 
L 446.293598 546.852852 
L 446.928482 547.153837 
L 447.563367 547.153837 
L 448.198251 547.304329 
L 448.833136 547.153837 
L 449.46802 546.852852 
L 450.102905 547.153837 
L 450.737789 546.100388 
L 451.372674 546.401373 
L 452.007558 545.949896 
L 452.642443 546.702359 
L 453.277327 546.551867 
L 453.912212 547.454823 
L 454.547097 546.551867 
L 455.181981 547.153837 
L 455.816866 547.454823 
L 456.45175 546.551867 
L 457.086635 546.852852 
L 457.721519 546.401373 
L 458.356404 546.852852 
L 458.991288 548.056793 
L 459.626173 545.949896 
L 460.261057 547.153837 
L 460.895942 547.304329 
L 462.165711 547.9063 
L 462.800595 547.153837 
L 463.43548 547.605315 
L 464.070364 547.605315 
L 464.705249 546.551867 
L 465.340133 546.250881 
L 465.975018 547.454823 
L 466.609902 545.949896 
L 467.879671 547.304329 
L 468.514556 546.250881 
L 469.14944 546.551867 
L 469.784325 547.153837 
L 470.419209 547.003344 
L 471.054094 547.605315 
L 471.688978 547.605315 
L 472.323863 547.003344 
L 472.958747 547.755808 
L 473.593632 546.250881 
L 474.228516 548.357779 
L 475.498285 546.401373 
L 476.13317 547.454823 
L 476.768055 547.605315 
L 477.402939 548.207287 
L 478.037824 547.454823 
L 478.672708 547.304329 
L 479.307593 547.304329 
L 479.942477 547.9063 
L 480.577362 546.401373 
L 481.212246 546.852852 
L 481.847131 546.852852 
L 482.482015 547.153837 
L 483.1169 546.100388 
L 483.751784 546.551867 
L 484.386669 547.153837 
L 485.021553 548.207287 
L 485.656438 547.454823 
L 486.291322 547.454823 
L 486.926207 547.003344 
L 487.561091 547.304329 
L 488.195976 548.056793 
L 488.83086 547.605315 
L 489.465745 547.454823 
L 490.100629 547.003344 
L 490.735514 547.454823 
L 491.370398 547.605315 
L 492.005283 547.304329 
L 492.640167 547.755808 
L 493.275052 547.153837 
L 493.909936 547.9063 
L 494.544821 547.003344 
L 495.179705 546.852852 
L 495.81459 547.304329 
L 496.449474 547.304329 
L 497.084359 547.9063 
L 497.719244 547.755808 
L 498.354128 546.852852 
L 498.989013 547.454823 
L 499.623897 547.755808 
L 500.258782 547.304329 
L 500.893666 547.605315 
L 501.528551 547.454823 
L 502.163435 547.9063 
L 502.79832 547.304329 
L 503.433204 548.056793 
L 504.068089 547.9063 
L 504.702973 547.605315 
L 505.337858 547.454823 
L 505.972742 547.454823 
L 506.607627 548.658764 
L 507.242511 546.100388 
L 507.877396 546.852852 
L 508.51228 547.304329 
L 509.147165 547.003344 
L 509.782049 548.207287 
L 510.416934 547.153837 
L 511.051818 546.551867 
L 511.686703 547.304329 
L 512.321587 547.605315 
L 512.956472 547.003344 
L 513.591356 547.454823 
L 514.226241 546.852852 
L 514.861125 547.304329 
L 515.49601 548.207287 
L 516.130894 547.9063 
L 516.765779 547.9063 
L 517.400663 548.357779 
L 518.035548 547.304329 
L 518.670433 546.852852 
L 519.305317 547.605315 
L 519.940202 547.003344 
L 520.575086 546.100388 
L 521.209971 548.207287 
L 521.844855 547.003344 
L 522.47974 547.605315 
L 523.114624 546.702359 
L 523.749509 548.357779 
L 524.384393 547.454823 
L 525.019278 547.304329 
L 526.289047 547.605315 
L 526.923931 546.100388 
L 527.558816 548.056793 
L 528.1937 547.454823 
L 528.828585 547.454823 
L 529.463469 547.153837 
L 530.098354 547.454823 
L 530.733238 547.454823 
L 531.368123 547.605315 
L 532.003007 548.357779 
L 532.637892 548.357779 
L 533.272776 547.9063 
L 533.907661 545.949896 
L 534.542545 547.9063 
L 535.17743 547.605315 
L 536.447199 547.605315 
L 537.082083 547.003344 
L 537.716968 547.9063 
L 538.351852 548.207287 
L 538.986737 547.304329 
L 539.621621 547.153837 
L 540.256506 546.551867 
L 540.891391 547.003344 
L 541.526275 547.9063 
L 542.16116 547.605315 
L 542.796044 548.207287 
L 543.430929 547.454823 
L 544.065813 547.003344 
L 544.700698 547.755808 
L 545.335582 547.153837 
L 546.605351 547.454823 
L 547.240236 548.658764 
L 547.87512 547.304329 
L 548.510005 547.003344 
L 549.144889 547.304329 
L 549.779774 547.003344 
L 550.414658 548.508271 
L 551.049543 548.056793 
L 551.684427 547.003344 
L 552.319312 547.605315 
L 552.954196 547.755808 
L 553.589081 547.003344 
L 554.223965 546.852852 
L 554.85885 548.056793 
L 555.493734 547.755808 
L 556.128619 547.153837 
L 556.763503 548.056793 
L 557.398388 547.304329 
L 558.033272 546.852852 
L 558.668157 546.702359 
L 559.303041 547.304329 
L 559.937926 546.702359 
L 560.57281 547.755808 
L 561.207695 547.003344 
L 561.84258 548.056793 
L 562.477464 547.454823 
L 563.112349 547.605315 
L 563.747233 547.605315 
L 564.382118 547.454823 
L 565.017002 546.852852 
L 565.651887 547.605315 
L 566.286771 547.605315 
L 566.921656 547.755808 
L 567.55654 547.454823 
L 568.191425 547.605315 
L 568.826309 548.207287 
L 569.461194 546.852852 
L 570.096078 547.9063 
L 570.730963 547.304329 
L 571.365847 546.401373 
L 572.000732 547.304329 
L 572.635616 547.304329 
L 573.270501 546.852852 
L 573.905385 547.153837 
L 574.54027 547.153837 
L 575.175154 547.304329 
L 575.810039 547.755808 
L 576.444923 547.304329 
L 577.079808 547.304329 
L 577.714692 546.852852 
L 578.349577 547.454823 
L 578.984461 547.605315 
L 579.619346 547.153837 
L 580.25423 547.454823 
L 580.889115 547.153837 
L 581.523999 547.9063 
L 582.158884 546.250881 
L 582.793768 547.605315 
L 583.428653 547.304329 
L 584.063538 547.304329 
L 584.698422 548.658764 
L 585.968191 547.454823 
L 586.603076 548.056793 
L 587.23796 548.056793 
L 587.872845 547.755808 
L 588.507729 547.003344 
L 589.142614 547.9063 
L 589.142614 547.9063 
" clip-path="url(#p7d987b7a0a)" style="fill: none; stroke: #ff7f0e; stroke-width: 1.5; stroke-linecap: square"/>
   </g>
   <g id="line2d_37">
    <path d="M 56.50625 549.994387 
L 614.50625 549.994387 
" clip-path="url(#p7d987b7a0a)" style="fill: none; stroke-dasharray: 11.1,4.8; stroke-dashoffset: 0; stroke: #ff0000; stroke-width: 3"/>
   </g>
   <g id="patch_3">
    <path d="M 56.50625 576.718125 
L 56.50625 22.318125 
" style="fill: none; stroke: #000000; stroke-width: 0.8; stroke-linejoin: miter; stroke-linecap: square"/>
   </g>
   <g id="patch_4">
    <path d="M 614.50625 576.718125 
L 614.50625 22.318125 
" style="fill: none; stroke: #000000; stroke-width: 0.8; stroke-linejoin: miter; stroke-linecap: square"/>
   </g>
   <g id="patch_5">
    <path d="M 56.50625 576.718125 
L 614.50625 576.718125 
" style="fill: none; stroke: #000000; stroke-width: 0.8; stroke-linejoin: miter; stroke-linecap: square"/>
   </g>
   <g id="patch_6">
    <path d="M 56.50625 22.318125 
L 614.50625 22.318125 
" style="fill: none; stroke: #000000; stroke-width: 0.8; stroke-linejoin: miter; stroke-linecap: square"/>
   </g>
   <g id="text_20">
    <!-- Train and Val Accuracy -->
    <g transform="translate(267.727813 16.318125) scale(0.12 -0.12)">
     <defs>
      <path id="DejaVuSans-54" d="M -19 4666 
L 3928 4666 
L 3928 4134 
L 2272 4134 
L 2272 0 
L 1638 0 
L 1638 4134 
L -19 4134 
L -19 4666 
z
" transform="scale(0.015625)"/>
      <path id="DejaVuSans-69" d="M 603 3500 
L 1178 3500 
L 1178 0 
L 603 0 
L 603 3500 
z
M 603 4863 
L 1178 4863 
L 1178 4134 
L 603 4134 
L 603 4863 
z
" transform="scale(0.015625)"/>
      <path id="DejaVuSans-6e" d="M 3513 2113 
L 3513 0 
L 2938 0 
L 2938 2094 
Q 2938 2591 2744 2837 
Q 2550 3084 2163 3084 
Q 1697 3084 1428 2787 
Q 1159 2491 1159 1978 
L 1159 0 
L 581 0 
L 581 3500 
L 1159 3500 
L 1159 2956 
Q 1366 3272 1645 3428 
Q 1925 3584 2291 3584 
Q 2894 3584 3203 3211 
Q 3513 2838 3513 2113 
z
" transform="scale(0.015625)"/>
      <path id="DejaVuSans-20" transform="scale(0.015625)"/>
      <path id="DejaVuSans-64" d="M 2906 2969 
L 2906 4863 
L 3481 4863 
L 3481 0 
L 2906 0 
L 2906 525 
Q 2725 213 2448 61 
Q 2172 -91 1784 -91 
Q 1150 -91 751 415 
Q 353 922 353 1747 
Q 353 2572 751 3078 
Q 1150 3584 1784 3584 
Q 2172 3584 2448 3432 
Q 2725 3281 2906 2969 
z
M 947 1747 
Q 947 1113 1208 752 
Q 1469 391 1925 391 
Q 2381 391 2643 752 
Q 2906 1113 2906 1747 
Q 2906 2381 2643 2742 
Q 2381 3103 1925 3103 
Q 1469 3103 1208 2742 
Q 947 2381 947 1747 
z
" transform="scale(0.015625)"/>
      <path id="DejaVuSans-56" d="M 1831 0 
L 50 4666 
L 709 4666 
L 2188 738 
L 3669 4666 
L 4325 4666 
L 2547 0 
L 1831 0 
z
" transform="scale(0.015625)"/>
      <path id="DejaVuSans-6c" d="M 603 4863 
L 1178 4863 
L 1178 0 
L 603 0 
L 603 4863 
z
" transform="scale(0.015625)"/>
     </defs>
     <use xlink:href="#DejaVuSans-54"/>
     <use xlink:href="#DejaVuSans-72" transform="translate(46.333984 0)"/>
     <use xlink:href="#DejaVuSans-61" transform="translate(87.447266 0)"/>
     <use xlink:href="#DejaVuSans-69" transform="translate(148.726562 0)"/>
     <use xlink:href="#DejaVuSans-6e" transform="translate(176.509766 0)"/>
     <use xlink:href="#DejaVuSans-20" transform="translate(239.888672 0)"/>
     <use xlink:href="#DejaVuSans-61" transform="translate(271.675781 0)"/>
     <use xlink:href="#DejaVuSans-6e" transform="translate(332.955078 0)"/>
     <use xlink:href="#DejaVuSans-64" transform="translate(396.333984 0)"/>
     <use xlink:href="#DejaVuSans-20" transform="translate(459.810547 0)"/>
     <use xlink:href="#DejaVuSans-56" transform="translate(491.597656 0)"/>
     <use xlink:href="#DejaVuSans-61" transform="translate(552.255859 0)"/>
     <use xlink:href="#DejaVuSans-6c" transform="translate(613.535156 0)"/>
     <use xlink:href="#DejaVuSans-20" transform="translate(641.318359 0)"/>
     <use xlink:href="#DejaVuSans-41" transform="translate(673.105469 0)"/>
     <use xlink:href="#DejaVuSans-63" transform="translate(739.763672 0)"/>
     <use xlink:href="#DejaVuSans-63" transform="translate(794.744141 0)"/>
     <use xlink:href="#DejaVuSans-75" transform="translate(849.724609 0)"/>
     <use xlink:href="#DejaVuSans-72" transform="translate(913.103516 0)"/>
     <use xlink:href="#DejaVuSans-61" transform="translate(954.216797 0)"/>
     <use xlink:href="#DejaVuSans-63" transform="translate(1015.496094 0)"/>
     <use xlink:href="#DejaVuSans-79" transform="translate(1070.476562 0)"/>
    </g>
   </g>
   <g id="legend_1">
    <g id="patch_7">
     <path d="M 63.50625 74.90875 
L 230.629687 74.90875 
Q 232.629687 74.90875 232.629687 72.90875 
L 232.629687 29.318125 
Q 232.629687 27.318125 230.629687 27.318125 
L 63.50625 27.318125 
Q 61.50625 27.318125 61.50625 29.318125 
L 61.50625 72.90875 
Q 61.50625 74.90875 63.50625 74.90875 
z
" style="fill: #ffffff; opacity: 0.8; stroke: #cccccc; stroke-linejoin: miter"/>
    </g>
    <g id="line2d_38">
     <path d="M 65.50625 35.416562 
L 75.50625 35.416562 
L 85.50625 35.416562 
" style="fill: none; stroke: #1f77b4; stroke-width: 1.5; stroke-linecap: square"/>
    </g>
    <g id="text_21">
     <!-- train_accuracy -->
     <g transform="translate(93.50625 38.916562) scale(0.1 -0.1)">
      <defs>
       <path id="DejaVuSans-74" d="M 1172 4494 
L 1172 3500 
L 2356 3500 
L 2356 3053 
L 1172 3053 
L 1172 1153 
Q 1172 725 1289 603 
Q 1406 481 1766 481 
L 2356 481 
L 2356 0 
L 1766 0 
Q 1100 0 847 248 
Q 594 497 594 1153 
L 594 3053 
L 172 3053 
L 172 3500 
L 594 3500 
L 594 4494 
L 1172 4494 
z
" transform="scale(0.015625)"/>
       <path id="DejaVuSans-5f" d="M 3263 -1063 
L 3263 -1509 
L -63 -1509 
L -63 -1063 
L 3263 -1063 
z
" transform="scale(0.015625)"/>
      </defs>
      <use xlink:href="#DejaVuSans-74"/>
      <use xlink:href="#DejaVuSans-72" transform="translate(39.208984 0)"/>
      <use xlink:href="#DejaVuSans-61" transform="translate(80.322266 0)"/>
      <use xlink:href="#DejaVuSans-69" transform="translate(141.601562 0)"/>
      <use xlink:href="#DejaVuSans-6e" transform="translate(169.384766 0)"/>
      <use xlink:href="#DejaVuSans-5f" transform="translate(232.763672 0)"/>
      <use xlink:href="#DejaVuSans-61" transform="translate(282.763672 0)"/>
      <use xlink:href="#DejaVuSans-63" transform="translate(344.042969 0)"/>
      <use xlink:href="#DejaVuSans-63" transform="translate(399.023438 0)"/>
      <use xlink:href="#DejaVuSans-75" transform="translate(454.003906 0)"/>
      <use xlink:href="#DejaVuSans-72" transform="translate(517.382812 0)"/>
      <use xlink:href="#DejaVuSans-61" transform="translate(558.496094 0)"/>
      <use xlink:href="#DejaVuSans-63" transform="translate(619.775391 0)"/>
      <use xlink:href="#DejaVuSans-79" transform="translate(674.755859 0)"/>
     </g>
    </g>
    <g id="line2d_39">
     <path d="M 65.50625 50.372812 
L 75.50625 50.372812 
L 85.50625 50.372812 
" style="fill: none; stroke: #ff7f0e; stroke-width: 1.5; stroke-linecap: square"/>
    </g>
    <g id="text_22">
     <!-- val_accuracy -->
     <g transform="translate(93.50625 53.872812) scale(0.1 -0.1)">
      <defs>
       <path id="DejaVuSans-76" d="M 191 3500 
L 800 3500 
L 1894 563 
L 2988 3500 
L 3597 3500 
L 2284 0 
L 1503 0 
L 191 3500 
z
" transform="scale(0.015625)"/>
      </defs>
      <use xlink:href="#DejaVuSans-76"/>
      <use xlink:href="#DejaVuSans-61" transform="translate(59.179688 0)"/>
      <use xlink:href="#DejaVuSans-6c" transform="translate(120.458984 0)"/>
      <use xlink:href="#DejaVuSans-5f" transform="translate(148.242188 0)"/>
      <use xlink:href="#DejaVuSans-61" transform="translate(198.242188 0)"/>
      <use xlink:href="#DejaVuSans-63" transform="translate(259.521484 0)"/>
      <use xlink:href="#DejaVuSans-63" transform="translate(314.501953 0)"/>
      <use xlink:href="#DejaVuSans-75" transform="translate(369.482422 0)"/>
      <use xlink:href="#DejaVuSans-72" transform="translate(432.861328 0)"/>
      <use xlink:href="#DejaVuSans-61" transform="translate(473.974609 0)"/>
      <use xlink:href="#DejaVuSans-63" transform="translate(535.253906 0)"/>
      <use xlink:href="#DejaVuSans-79" transform="translate(590.234375 0)"/>
     </g>
    </g>
    <g id="line2d_40">
     <path d="M 65.50625 65.329062 
L 75.50625 65.329062 
L 85.50625 65.329062 
" style="fill: none; stroke-dasharray: 11.1,4.8; stroke-dashoffset: 0; stroke: #ff0000; stroke-width: 3"/>
    </g>
    <g id="text_23">
     <!-- Random-Guesser Accuracy -->
     <g transform="translate(93.50625 68.829062) scale(0.1 -0.1)">
      <defs>
       <path id="DejaVuSans-52" d="M 2841 2188 
Q 3044 2119 3236 1894 
Q 3428 1669 3622 1275 
L 4263 0 
L 3584 0 
L 2988 1197 
Q 2756 1666 2539 1819 
Q 2322 1972 1947 1972 
L 1259 1972 
L 1259 0 
L 628 0 
L 628 4666 
L 2053 4666 
Q 2853 4666 3247 4331 
Q 3641 3997 3641 3322 
Q 3641 2881 3436 2590 
Q 3231 2300 2841 2188 
z
M 1259 4147 
L 1259 2491 
L 2053 2491 
Q 2509 2491 2742 2702 
Q 2975 2913 2975 3322 
Q 2975 3731 2742 3939 
Q 2509 4147 2053 4147 
L 1259 4147 
z
" transform="scale(0.015625)"/>
       <path id="DejaVuSans-6d" d="M 3328 2828 
Q 3544 3216 3844 3400 
Q 4144 3584 4550 3584 
Q 5097 3584 5394 3201 
Q 5691 2819 5691 2113 
L 5691 0 
L 5113 0 
L 5113 2094 
Q 5113 2597 4934 2840 
Q 4756 3084 4391 3084 
Q 3944 3084 3684 2787 
Q 3425 2491 3425 1978 
L 3425 0 
L 2847 0 
L 2847 2094 
Q 2847 2600 2669 2842 
Q 2491 3084 2119 3084 
Q 1678 3084 1418 2786 
Q 1159 2488 1159 1978 
L 1159 0 
L 581 0 
L 581 3500 
L 1159 3500 
L 1159 2956 
Q 1356 3278 1631 3431 
Q 1906 3584 2284 3584 
Q 2666 3584 2933 3390 
Q 3200 3197 3328 2828 
z
" transform="scale(0.015625)"/>
       <path id="DejaVuSans-2d" d="M 313 2009 
L 1997 2009 
L 1997 1497 
L 313 1497 
L 313 2009 
z
" transform="scale(0.015625)"/>
       <path id="DejaVuSans-47" d="M 3809 666 
L 3809 1919 
L 2778 1919 
L 2778 2438 
L 4434 2438 
L 4434 434 
Q 4069 175 3628 42 
Q 3188 -91 2688 -91 
Q 1594 -91 976 548 
Q 359 1188 359 2328 
Q 359 3472 976 4111 
Q 1594 4750 2688 4750 
Q 3144 4750 3555 4637 
Q 3966 4525 4313 4306 
L 4313 3634 
Q 3963 3931 3569 4081 
Q 3175 4231 2741 4231 
Q 1884 4231 1454 3753 
Q 1025 3275 1025 2328 
Q 1025 1384 1454 906 
Q 1884 428 2741 428 
Q 3075 428 3337 486 
Q 3600 544 3809 666 
z
" transform="scale(0.015625)"/>
       <path id="DejaVuSans-65" d="M 3597 1894 
L 3597 1613 
L 953 1613 
Q 991 1019 1311 708 
Q 1631 397 2203 397 
Q 2534 397 2845 478 
Q 3156 559 3463 722 
L 3463 178 
Q 3153 47 2828 -22 
Q 2503 -91 2169 -91 
Q 1331 -91 842 396 
Q 353 884 353 1716 
Q 353 2575 817 3079 
Q 1281 3584 2069 3584 
Q 2775 3584 3186 3129 
Q 3597 2675 3597 1894 
z
M 3022 2063 
Q 3016 2534 2758 2815 
Q 2500 3097 2075 3097 
Q 1594 3097 1305 2825 
Q 1016 2553 972 2059 
L 3022 2063 
z
" transform="scale(0.015625)"/>
      </defs>
      <use xlink:href="#DejaVuSans-52"/>
      <use xlink:href="#DejaVuSans-61" transform="translate(67.232422 0)"/>
      <use xlink:href="#DejaVuSans-6e" transform="translate(128.511719 0)"/>
      <use xlink:href="#DejaVuSans-64" transform="translate(191.890625 0)"/>
      <use xlink:href="#DejaVuSans-6f" transform="translate(255.367188 0)"/>
      <use xlink:href="#DejaVuSans-6d" transform="translate(316.548828 0)"/>
      <use xlink:href="#DejaVuSans-2d" transform="translate(413.960938 0)"/>
      <use xlink:href="#DejaVuSans-47" transform="translate(453.669922 0)"/>
      <use xlink:href="#DejaVuSans-75" transform="translate(531.160156 0)"/>
      <use xlink:href="#DejaVuSans-65" transform="translate(594.539062 0)"/>
      <use xlink:href="#DejaVuSans-73" transform="translate(656.0625 0)"/>
      <use xlink:href="#DejaVuSans-73" transform="translate(708.162109 0)"/>
      <use xlink:href="#DejaVuSans-65" transform="translate(760.261719 0)"/>
      <use xlink:href="#DejaVuSans-72" transform="translate(821.785156 0)"/>
      <use xlink:href="#DejaVuSans-20" transform="translate(862.898438 0)"/>
      <use xlink:href="#DejaVuSans-41" transform="translate(894.685547 0)"/>
      <use xlink:href="#DejaVuSans-63" transform="translate(961.34375 0)"/>
      <use xlink:href="#DejaVuSans-63" transform="translate(1016.324219 0)"/>
      <use xlink:href="#DejaVuSans-75" transform="translate(1071.304688 0)"/>
      <use xlink:href="#DejaVuSans-72" transform="translate(1134.683594 0)"/>
      <use xlink:href="#DejaVuSans-61" transform="translate(1175.796875 0)"/>
      <use xlink:href="#DejaVuSans-63" transform="translate(1237.076172 0)"/>
      <use xlink:href="#DejaVuSans-79" transform="translate(1292.056641 0)"/>
     </g>
    </g>
   </g>
  </g>
 </g>
 <defs>
  <clipPath id="p7d987b7a0a">
   <rect x="56.50625" y="22.318125" width="558" height="554.4"/>
  </clipPath>
 </defs>
</svg>
