<?xml version="1.0" encoding="utf-8" standalone="no"?>
<!DOCTYPE svg PUBLIC "-//W3C//DTD SVG 1.1//EN"
  "http://www.w3.org/Graphics/SVG/1.1/DTD/svg11.dtd">
<svg xmlns:xlink="http://www.w3.org/1999/xlink" width="608.98125pt" height="614.274375pt" viewBox="0 0 608.98125 614.274375" xmlns="http://www.w3.org/2000/svg" version="1.1">
 <metadata>
  <rdf:RDF xmlns:dc="http://purl.org/dc/elements/1.1/" xmlns:cc="http://creativecommons.org/ns#" xmlns:rdf="http://www.w3.org/1999/02/22-rdf-syntax-ns#">
   <cc:Work>
    <dc:type rdf:resource="http://purl.org/dc/dcmitype/StillImage"/>
    <dc:date>2026-05-24T10:24:00.449324</dc:date>
    <dc:format>image/svg+xml</dc:format>
    <dc:creator>
     <cc:Agent>
      <dc:title>Matplotlib v3.10.9, https://matplotlib.org/</dc:title>
     </cc:Agent>
    </dc:creator>
   </cc:Work>
  </rdf:RDF>
 </metadata>
 <defs>
  <style type="text/css">*{stroke-linejoin: round; stroke-linecap: butt}</style>
 </defs>
 <g id="figure_1">
  <g id="patch_1">
   <path d="M 0 614.274375 
L 608.98125 614.274375 
L 608.98125 0 
L 0 0 
z
" style="fill: #ffffff"/>
  </g>
  <g id="axes_1">
   <g id="patch_2">
    <path d="M 43.78125 576.718125 
L 601.78125 576.718125 
L 601.78125 22.318125 
L 43.78125 22.318125 
z
" style="fill: #ffffff"/>
   </g>
   <g id="matplotlib.axis_1">
    <g id="xtick_1">
     <g id="line2d_1">
      <path d="M 69.144886 576.718125 
L 69.144886 22.318125 
" clip-path="url(#p6259f1c6ac)" style="fill: none; stroke: #b0b0b0; stroke-width: 0.8; stroke-linecap: square"/>
     </g>
     <g id="line2d_2">
      <defs>
       <path id="m0bf5996ad1" d="M 0 0 
L 0 3.5 
" style="stroke: #000000; stroke-width: 0.8"/>
      </defs>
      <g>
       <use xlink:href="#m0bf5996ad1" x="69.144886" y="576.718125" style="stroke: #000000; stroke-width: 0.8"/>
      </g>
     </g>
     <g id="text_1">
      <!-- 0 -->
      <g transform="translate(65.963636 591.316563) scale(0.1 -0.1)">
       <defs>
        <path id="DejaVuSans-30" d="M 2034 4250 
Q 1547 4250 1301 3770 
Q 1056 3291 1056 2328 
Q 1056 1369 1301 889 
Q 1547 409 2034 409 
Q 2525 409 2770 889 
Q 3016 1369 3016 2328 
Q 3016 3291 2770 3770 
Q 2525 4250 2034 4250 
z
M 2034 4750 
Q 2819 4750 3233 4129 
Q 3647 3509 3647 2328 
Q 3647 1150 3233 529 
Q 2819 -91 2034 -91 
Q 1250 -91 836 529 
Q 422 1150 422 2328 
Q 422 3509 836 4129 
Q 1250 4750 2034 4750 
z
" transform="scale(0.015625)"/>
       </defs>
       <use xlink:href="#DejaVuSans-30"/>
      </g>
     </g>
    </g>
    <g id="xtick_2">
     <g id="line2d_3">
      <path d="M 132.633338 576.718125 
L 132.633338 22.318125 
" clip-path="url(#p6259f1c6ac)" style="fill: none; stroke: #b0b0b0; stroke-width: 0.8; stroke-linecap: square"/>
     </g>
     <g id="line2d_4">
      <g>
       <use xlink:href="#m0bf5996ad1" x="132.633338" y="576.718125" style="stroke: #000000; stroke-width: 0.8"/>
      </g>
     </g>
     <g id="text_2">
      <!-- 100 -->
      <g transform="translate(123.089588 591.316563) scale(0.1 -0.1)">
       <defs>
        <path id="DejaVuSans-31" d="M 794 531 
L 1825 531 
L 1825 4091 
L 703 3866 
L 703 4441 
L 1819 4666 
L 2450 4666 
L 2450 531 
L 3481 531 
L 3481 0 
L 794 0 
L 794 531 
z
" transform="scale(0.015625)"/>
       </defs>
       <use xlink:href="#DejaVuSans-31"/>
       <use xlink:href="#DejaVuSans-30" transform="translate(63.623047 0)"/>
       <use xlink:href="#DejaVuSans-30" transform="translate(127.246094 0)"/>
      </g>
     </g>
    </g>
    <g id="xtick_3">
     <g id="line2d_5">
      <path d="M 196.121789 576.718125 
L 196.121789 22.318125 
" clip-path="url(#p6259f1c6ac)" style="fill: none; stroke: #b0b0b0; stroke-width: 0.8; stroke-linecap: square"/>
     </g>
     <g id="line2d_6">
      <g>
       <use xlink:href="#m0bf5996ad1" x="196.121789" y="576.718125" style="stroke: #000000; stroke-width: 0.8"/>
      </g>
     </g>
     <g id="text_3">
      <!-- 200 -->
      <g transform="translate(186.578039 591.316563) scale(0.1 -0.1)">
       <defs>
        <path id="DejaVuSans-32" d="M 1228 531 
L 3431 531 
L 3431 0 
L 469 0 
L 469 531 
Q 828 903 1448 1529 
Q 2069 2156 2228 2338 
Q 2531 2678 2651 2914 
Q 2772 3150 2772 3378 
Q 2772 3750 2511 3984 
Q 2250 4219 1831 4219 
Q 1534 4219 1204 4116 
Q 875 4013 500 3803 
L 500 4441 
Q 881 4594 1212 4672 
Q 1544 4750 1819 4750 
Q 2544 4750 2975 4387 
Q 3406 4025 3406 3419 
Q 3406 3131 3298 2873 
Q 3191 2616 2906 2266 
Q 2828 2175 2409 1742 
Q 1991 1309 1228 531 
z
" transform="scale(0.015625)"/>
       </defs>
       <use xlink:href="#DejaVuSans-32"/>
       <use xlink:href="#DejaVuSans-30" transform="translate(63.623047 0)"/>
       <use xlink:href="#DejaVuSans-30" transform="translate(127.246094 0)"/>
      </g>
     </g>
    </g>
    <g id="xtick_4">
     <g id="line2d_7">
      <path d="M 259.610241 576.718125 
L 259.610241 22.318125 
" clip-path="url(#p6259f1c6ac)" style="fill: none; stroke: #b0b0b0; stroke-width: 0.8; stroke-linecap: square"/>
     </g>
     <g id="line2d_8">
      <g>
       <use xlink:href="#m0bf5996ad1" x="259.610241" y="576.718125" style="stroke: #000000; stroke-width: 0.8"/>
      </g>
     </g>
     <g id="text_4">
      <!-- 300 -->
      <g transform="translate(250.066491 591.316563) scale(0.1 -0.1)">
       <defs>
        <path id="DejaVuSans-33" d="M 2597 2516 
Q 3050 2419 3304 2112 
Q 3559 1806 3559 1356 
Q 3559 666 3084 287 
Q 2609 -91 1734 -91 
Q 1441 -91 1130 -33 
Q 819 25 488 141 
L 488 750 
Q 750 597 1062 519 
Q 1375 441 1716 441 
Q 2309 441 2620 675 
Q 2931 909 2931 1356 
Q 2931 1769 2642 2001 
Q 2353 2234 1838 2234 
L 1294 2234 
L 1294 2753 
L 1863 2753 
Q 2328 2753 2575 2939 
Q 2822 3125 2822 3475 
Q 2822 3834 2567 4026 
Q 2313 4219 1838 4219 
Q 1578 4219 1281 4162 
Q 984 4106 628 3988 
L 628 4550 
Q 988 4650 1302 4700 
Q 1616 4750 1894 4750 
Q 2613 4750 3031 4423 
Q 3450 4097 3450 3541 
Q 3450 3153 3228 2886 
Q 3006 2619 2597 2516 
z
" transform="scale(0.015625)"/>
       </defs>
       <use xlink:href="#DejaVuSans-33"/>
       <use xlink:href="#DejaVuSans-30" transform="translate(63.623047 0)"/>
       <use xlink:href="#DejaVuSans-30" transform="translate(127.246094 0)"/>
      </g>
     </g>
    </g>
    <g id="xtick_5">
     <g id="line2d_9">
      <path d="M 323.098692 576.718125 
L 323.098692 22.318125 
" clip-path="url(#p6259f1c6ac)" style="fill: none; stroke: #b0b0b0; stroke-width: 0.8; stroke-linecap: square"/>
     </g>
     <g id="line2d_10">
      <g>
       <use xlink:href="#m0bf5996ad1" x="323.098692" y="576.718125" style="stroke: #000000; stroke-width: 0.8"/>
      </g>
     </g>
     <g id="text_5">
      <!-- 400 -->
      <g transform="translate(313.554942 591.316563) scale(0.1 -0.1)">
       <defs>
        <path id="DejaVuSans-34" d="M 2419 4116 
L 825 1625 
L 2419 1625 
L 2419 4116 
z
M 2253 4666 
L 3047 4666 
L 3047 1625 
L 3713 1625 
L 3713 1100 
L 3047 1100 
L 3047 0 
L 2419 0 
L 2419 1100 
L 313 1100 
L 313 1709 
L 2253 4666 
z
" transform="scale(0.015625)"/>
       </defs>
       <use xlink:href="#DejaVuSans-34"/>
       <use xlink:href="#DejaVuSans-30" transform="translate(63.623047 0)"/>
       <use xlink:href="#DejaVuSans-30" transform="translate(127.246094 0)"/>
      </g>
     </g>
    </g>
    <g id="xtick_6">
     <g id="line2d_11">
      <path d="M 386.587144 576.718125 
L 386.587144 22.318125 
" clip-path="url(#p6259f1c6ac)" style="fill: none; stroke: #b0b0b0; stroke-width: 0.8; stroke-linecap: square"/>
     </g>
     <g id="line2d_12">
      <g>
       <use xlink:href="#m0bf5996ad1" x="386.587144" y="576.718125" style="stroke: #000000; stroke-width: 0.8"/>
      </g>
     </g>
     <g id="text_6">
      <!-- 500 -->
      <g transform="translate(377.043394 591.316563) scale(0.1 -0.1)">
       <defs>
        <path id="DejaVuSans-35" d="M 691 4666 
L 3169 4666 
L 3169 4134 
L 1269 4134 
L 1269 2991 
Q 1406 3038 1543 3061 
Q 1681 3084 1819 3084 
Q 2600 3084 3056 2656 
Q 3513 2228 3513 1497 
Q 3513 744 3044 326 
Q 2575 -91 1722 -91 
Q 1428 -91 1123 -41 
Q 819 9 494 109 
L 494 744 
Q 775 591 1075 516 
Q 1375 441 1709 441 
Q 2250 441 2565 725 
Q 2881 1009 2881 1497 
Q 2881 1984 2565 2268 
Q 2250 2553 1709 2553 
Q 1456 2553 1204 2497 
Q 953 2441 691 2322 
L 691 4666 
z
" transform="scale(0.015625)"/>
       </defs>
       <use xlink:href="#DejaVuSans-35"/>
       <use xlink:href="#DejaVuSans-30" transform="translate(63.623047 0)"/>
       <use xlink:href="#DejaVuSans-30" transform="translate(127.246094 0)"/>
      </g>
     </g>
    </g>
    <g id="xtick_7">
     <g id="line2d_13">
      <path d="M 450.075595 576.718125 
L 450.075595 22.318125 
" clip-path="url(#p6259f1c6ac)" style="fill: none; stroke: #b0b0b0; stroke-width: 0.8; stroke-linecap: square"/>
     </g>
     <g id="line2d_14">
      <g>
       <use xlink:href="#m0bf5996ad1" x="450.075595" y="576.718125" style="stroke: #000000; stroke-width: 0.8"/>
      </g>
     </g>
     <g id="text_7">
      <!-- 600 -->
      <g transform="translate(440.531845 591.316563) scale(0.1 -0.1)">
       <defs>
        <path id="DejaVuSans-36" d="M 2113 2584 
Q 1688 2584 1439 2293 
Q 1191 2003 1191 1497 
Q 1191 994 1439 701 
Q 1688 409 2113 409 
Q 2538 409 2786 701 
Q 3034 994 3034 1497 
Q 3034 2003 2786 2293 
Q 2538 2584 2113 2584 
z
M 3366 4563 
L 3366 3988 
Q 3128 4100 2886 4159 
Q 2644 4219 2406 4219 
Q 1781 4219 1451 3797 
Q 1122 3375 1075 2522 
Q 1259 2794 1537 2939 
Q 1816 3084 2150 3084 
Q 2853 3084 3261 2657 
Q 3669 2231 3669 1497 
Q 3669 778 3244 343 
Q 2819 -91 2113 -91 
Q 1303 -91 875 529 
Q 447 1150 447 2328 
Q 447 3434 972 4092 
Q 1497 4750 2381 4750 
Q 2619 4750 2861 4703 
Q 3103 4656 3366 4563 
z
" transform="scale(0.015625)"/>
       </defs>
       <use xlink:href="#DejaVuSans-36"/>
       <use xlink:href="#DejaVuSans-30" transform="translate(63.623047 0)"/>
       <use xlink:href="#DejaVuSans-30" transform="translate(127.246094 0)"/>
      </g>
     </g>
    </g>
    <g id="xtick_8">
     <g id="line2d_15">
      <path d="M 513.564047 576.718125 
L 513.564047 22.318125 
" clip-path="url(#p6259f1c6ac)" style="fill: none; stroke: #b0b0b0; stroke-width: 0.8; stroke-linecap: square"/>
     </g>
     <g id="line2d_16">
      <g>
       <use xlink:href="#m0bf5996ad1" x="513.564047" y="576.718125" style="stroke: #000000; stroke-width: 0.8"/>
      </g>
     </g>
     <g id="text_8">
      <!-- 700 -->
      <g transform="translate(504.020297 591.316563) scale(0.1 -0.1)">
       <defs>
        <path id="DejaVuSans-37" d="M 525 4666 
L 3525 4666 
L 3525 4397 
L 1831 0 
L 1172 0 
L 2766 4134 
L 525 4134 
L 525 4666 
z
" transform="scale(0.015625)"/>
       </defs>
       <use xlink:href="#DejaVuSans-37"/>
       <use xlink:href="#DejaVuSans-30" transform="translate(63.623047 0)"/>
       <use xlink:href="#DejaVuSans-30" transform="translate(127.246094 0)"/>
      </g>
     </g>
    </g>
    <g id="xtick_9">
     <g id="line2d_17">
      <path d="M 577.052498 576.718125 
L 577.052498 22.318125 
" clip-path="url(#p6259f1c6ac)" style="fill: none; stroke: #b0b0b0; stroke-width: 0.8; stroke-linecap: square"/>
     </g>
     <g id="line2d_18">
      <g>
       <use xlink:href="#m0bf5996ad1" x="577.052498" y="576.718125" style="stroke: #000000; stroke-width: 0.8"/>
      </g>
     </g>
     <g id="text_9">
      <!-- 800 -->
      <g transform="translate(567.508748 591.316563) scale(0.1 -0.1)">
       <defs>
        <path id="DejaVuSans-38" d="M 2034 2216 
Q 1584 2216 1326 1975 
Q 1069 1734 1069 1313 
Q 1069 891 1326 650 
Q 1584 409 2034 409 
Q 2484 409 2743 651 
Q 3003 894 3003 1313 
Q 3003 1734 2745 1975 
Q 2488 2216 2034 2216 
z
M 1403 2484 
Q 997 2584 770 2862 
Q 544 3141 544 3541 
Q 544 4100 942 4425 
Q 1341 4750 2034 4750 
Q 2731 4750 3128 4425 
Q 3525 4100 3525 3541 
Q 3525 3141 3298 2862 
Q 3072 2584 2669 2484 
Q 3125 2378 3379 2068 
Q 3634 1759 3634 1313 
Q 3634 634 3220 271 
Q 2806 -91 2034 -91 
Q 1263 -91 848 271 
Q 434 634 434 1313 
Q 434 1759 690 2068 
Q 947 2378 1403 2484 
z
M 1172 3481 
Q 1172 3119 1398 2916 
Q 1625 2713 2034 2713 
Q 2441 2713 2670 2916 
Q 2900 3119 2900 3481 
Q 2900 3844 2670 4047 
Q 2441 4250 2034 4250 
Q 1625 4250 1398 4047 
Q 1172 3844 1172 3481 
z
" transform="scale(0.015625)"/>
       </defs>
       <use xlink:href="#DejaVuSans-38"/>
       <use xlink:href="#DejaVuSans-30" transform="translate(63.623047 0)"/>
       <use xlink:href="#DejaVuSans-30" transform="translate(127.246094 0)"/>
      </g>
     </g>
    </g>
    <g id="text_10">
     <!-- Epochs -->
     <g transform="translate(304.865625 604.994688) scale(0.1 -0.1)">
      <defs>
       <path id="DejaVuSans-45" d="M 628 4666 
L 3578 4666 
L 3578 4134 
L 1259 4134 
L 1259 2753 
L 3481 2753 
L 3481 2222 
L 1259 2222 
L 1259 531 
L 3634 531 
L 3634 0 
L 628 0 
L 628 4666 
z
" transform="scale(0.015625)"/>
       <path id="DejaVuSans-70" d="M 1159 525 
L 1159 -1331 
L 581 -1331 
L 581 3500 
L 1159 3500 
L 1159 2969 
Q 1341 3281 1617 3432 
Q 1894 3584 2278 3584 
Q 2916 3584 3314 3078 
Q 3713 2572 3713 1747 
Q 3713 922 3314 415 
Q 2916 -91 2278 -91 
Q 1894 -91 1617 61 
Q 1341 213 1159 525 
z
M 3116 1747 
Q 3116 2381 2855 2742 
Q 2594 3103 2138 3103 
Q 1681 3103 1420 2742 
Q 1159 2381 1159 1747 
Q 1159 1113 1420 752 
Q 1681 391 2138 391 
Q 2594 391 2855 752 
Q 3116 1113 3116 1747 
z
" transform="scale(0.015625)"/>
       <path id="DejaVuSans-6f" d="M 1959 3097 
Q 1497 3097 1228 2736 
Q 959 2375 959 1747 
Q 959 1119 1226 758 
Q 1494 397 1959 397 
Q 2419 397 2687 759 
Q 2956 1122 2956 1747 
Q 2956 2369 2687 2733 
Q 2419 3097 1959 3097 
z
M 1959 3584 
Q 2709 3584 3137 3096 
Q 3566 2609 3566 1747 
Q 3566 888 3137 398 
Q 2709 -91 1959 -91 
Q 1206 -91 779 398 
Q 353 888 353 1747 
Q 353 2609 779 3096 
Q 1206 3584 1959 3584 
z
" transform="scale(0.015625)"/>
       <path id="DejaVuSans-63" d="M 3122 3366 
L 3122 2828 
Q 2878 2963 2633 3030 
Q 2388 3097 2138 3097 
Q 1578 3097 1268 2742 
Q 959 2388 959 1747 
Q 959 1106 1268 751 
Q 1578 397 2138 397 
Q 2388 397 2633 464 
Q 2878 531 3122 666 
L 3122 134 
Q 2881 22 2623 -34 
Q 2366 -91 2075 -91 
Q 1284 -91 818 406 
Q 353 903 353 1747 
Q 353 2603 823 3093 
Q 1294 3584 2113 3584 
Q 2378 3584 2631 3529 
Q 2884 3475 3122 3366 
z
" transform="scale(0.015625)"/>
       <path id="DejaVuSans-68" d="M 3513 2113 
L 3513 0 
L 2938 0 
L 2938 2094 
Q 2938 2591 2744 2837 
Q 2550 3084 2163 3084 
Q 1697 3084 1428 2787 
Q 1159 2491 1159 1978 
L 1159 0 
L 581 0 
L 581 4863 
L 1159 4863 
L 1159 2956 
Q 1366 3272 1645 3428 
Q 1925 3584 2291 3584 
Q 2894 3584 3203 3211 
Q 3513 2838 3513 2113 
z
" transform="scale(0.015625)"/>
       <path id="DejaVuSans-73" d="M 2834 3397 
L 2834 2853 
Q 2591 2978 2328 3040 
Q 2066 3103 1784 3103 
Q 1356 3103 1142 2972 
Q 928 2841 928 2578 
Q 928 2378 1081 2264 
Q 1234 2150 1697 2047 
L 1894 2003 
Q 2506 1872 2764 1633 
Q 3022 1394 3022 966 
Q 3022 478 2636 193 
Q 2250 -91 1575 -91 
Q 1294 -91 989 -36 
Q 684 19 347 128 
L 347 722 
Q 666 556 975 473 
Q 1284 391 1588 391 
Q 1994 391 2212 530 
Q 2431 669 2431 922 
Q 2431 1156 2273 1281 
Q 2116 1406 1581 1522 
L 1381 1569 
Q 847 1681 609 1914 
Q 372 2147 372 2553 
Q 372 3047 722 3315 
Q 1072 3584 1716 3584 
Q 2034 3584 2315 3537 
Q 2597 3491 2834 3397 
z
" transform="scale(0.015625)"/>
      </defs>
      <use xlink:href="#DejaVuSans-45"/>
      <use xlink:href="#DejaVuSans-70" transform="translate(63.183594 0)"/>
      <use xlink:href="#DejaVuSans-6f" transform="translate(126.660156 0)"/>
      <use xlink:href="#DejaVuSans-63" transform="translate(187.841797 0)"/>
      <use xlink:href="#DejaVuSans-68" transform="translate(242.822266 0)"/>
      <use xlink:href="#DejaVuSans-73" transform="translate(306.201172 0)"/>
     </g>
    </g>
   </g>
   <g id="matplotlib.axis_2">
    <g id="ytick_1">
     <g id="line2d_19">
      <path d="M 43.78125 540.094626 
L 601.78125 540.094626 
" clip-path="url(#p6259f1c6ac)" style="fill: none; stroke: #b0b0b0; stroke-width: 0.8; stroke-linecap: square"/>
     </g>
     <g id="line2d_20">
      <defs>
       <path id="m804c82f1b0" d="M 0 0 
L -3.5 0 
" style="stroke: #000000; stroke-width: 0.8"/>
      </defs>
      <g>
       <use xlink:href="#m804c82f1b0" x="43.78125" y="540.094626" style="stroke: #000000; stroke-width: 0.8"/>
      </g>
     </g>
     <g id="text_11">
      <!-- 4.0 -->
      <g transform="translate(20.878125 543.893845) scale(0.1 -0.1)">
       <defs>
        <path id="DejaVuSans-2e" d="M 684 794 
L 1344 794 
L 1344 0 
L 684 0 
L 684 794 
z
" transform="scale(0.015625)"/>
       </defs>
       <use xlink:href="#DejaVuSans-34"/>
       <use xlink:href="#DejaVuSans-2e" transform="translate(63.623047 0)"/>
       <use xlink:href="#DejaVuSans-30" transform="translate(95.410156 0)"/>
      </g>
     </g>
    </g>
    <g id="ytick_2">
     <g id="line2d_21">
      <path d="M 43.78125 466.44277 
L 601.78125 466.44277 
" clip-path="url(#p6259f1c6ac)" style="fill: none; stroke: #b0b0b0; stroke-width: 0.8; stroke-linecap: square"/>
     </g>
     <g id="line2d_22">
      <g>
       <use xlink:href="#m804c82f1b0" x="43.78125" y="466.44277" style="stroke: #000000; stroke-width: 0.8"/>
      </g>
     </g>
     <g id="text_12">
      <!-- 4.5 -->
      <g transform="translate(20.878125 470.241989) scale(0.1 -0.1)">
       <use xlink:href="#DejaVuSans-34"/>
       <use xlink:href="#DejaVuSans-2e" transform="translate(63.623047 0)"/>
       <use xlink:href="#DejaVuSans-35" transform="translate(95.410156 0)"/>
      </g>
     </g>
    </g>
    <g id="ytick_3">
     <g id="line2d_23">
      <path d="M 43.78125 392.790914 
L 601.78125 392.790914 
" clip-path="url(#p6259f1c6ac)" style="fill: none; stroke: #b0b0b0; stroke-width: 0.8; stroke-linecap: square"/>
     </g>
     <g id="line2d_24">
      <g>
       <use xlink:href="#m804c82f1b0" x="43.78125" y="392.790914" style="stroke: #000000; stroke-width: 0.8"/>
      </g>
     </g>
     <g id="text_13">
      <!-- 5.0 -->
      <g transform="translate(20.878125 396.590132) scale(0.1 -0.1)">
       <use xlink:href="#DejaVuSans-35"/>
       <use xlink:href="#DejaVuSans-2e" transform="translate(63.623047 0)"/>
       <use xlink:href="#DejaVuSans-30" transform="translate(95.410156 0)"/>
      </g>
     </g>
    </g>
    <g id="ytick_4">
     <g id="line2d_25">
      <path d="M 43.78125 319.139057 
L 601.78125 319.139057 
" clip-path="url(#p6259f1c6ac)" style="fill: none; stroke: #b0b0b0; stroke-width: 0.8; stroke-linecap: square"/>
     </g>
     <g id="line2d_26">
      <g>
       <use xlink:href="#m804c82f1b0" x="43.78125" y="319.139057" style="stroke: #000000; stroke-width: 0.8"/>
      </g>
     </g>
     <g id="text_14">
      <!-- 5.5 -->
      <g transform="translate(20.878125 322.938276) scale(0.1 -0.1)">
       <use xlink:href="#DejaVuSans-35"/>
       <use xlink:href="#DejaVuSans-2e" transform="translate(63.623047 0)"/>
       <use xlink:href="#DejaVuSans-35" transform="translate(95.410156 0)"/>
      </g>
     </g>
    </g>
    <g id="ytick_5">
     <g id="line2d_27">
      <path d="M 43.78125 245.487201 
L 601.78125 245.487201 
" clip-path="url(#p6259f1c6ac)" style="fill: none; stroke: #b0b0b0; stroke-width: 0.8; stroke-linecap: square"/>
     </g>
     <g id="line2d_28">
      <g>
       <use xlink:href="#m804c82f1b0" x="43.78125" y="245.487201" style="stroke: #000000; stroke-width: 0.8"/>
      </g>
     </g>
     <g id="text_15">
      <!-- 6.0 -->
      <g transform="translate(20.878125 249.286419) scale(0.1 -0.1)">
       <use xlink:href="#DejaVuSans-36"/>
       <use xlink:href="#DejaVuSans-2e" transform="translate(63.623047 0)"/>
       <use xlink:href="#DejaVuSans-30" transform="translate(95.410156 0)"/>
      </g>
     </g>
    </g>
    <g id="ytick_6">
     <g id="line2d_29">
      <path d="M 43.78125 171.835344 
L 601.78125 171.835344 
" clip-path="url(#p6259f1c6ac)" style="fill: none; stroke: #b0b0b0; stroke-width: 0.8; stroke-linecap: square"/>
     </g>
     <g id="line2d_30">
      <g>
       <use xlink:href="#m804c82f1b0" x="43.78125" y="171.835344" style="stroke: #000000; stroke-width: 0.8"/>
      </g>
     </g>
     <g id="text_16">
      <!-- 6.5 -->
      <g transform="translate(20.878125 175.634563) scale(0.1 -0.1)">
       <use xlink:href="#DejaVuSans-36"/>
       <use xlink:href="#DejaVuSans-2e" transform="translate(63.623047 0)"/>
       <use xlink:href="#DejaVuSans-35" transform="translate(95.410156 0)"/>
      </g>
     </g>
    </g>
    <g id="ytick_7">
     <g id="line2d_31">
      <path d="M 43.78125 98.183488 
L 601.78125 98.183488 
" clip-path="url(#p6259f1c6ac)" style="fill: none; stroke: #b0b0b0; stroke-width: 0.8; stroke-linecap: square"/>
     </g>
     <g id="line2d_32">
      <g>
       <use xlink:href="#m804c82f1b0" x="43.78125" y="98.183488" style="stroke: #000000; stroke-width: 0.8"/>
      </g>
     </g>
     <g id="text_17">
      <!-- 7.0 -->
      <g transform="translate(20.878125 101.982707) scale(0.1 -0.1)">
       <use xlink:href="#DejaVuSans-37"/>
       <use xlink:href="#DejaVuSans-2e" transform="translate(63.623047 0)"/>
       <use xlink:href="#DejaVuSans-30" transform="translate(95.410156 0)"/>
      </g>
     </g>
    </g>
    <g id="ytick_8">
     <g id="line2d_33">
      <path d="M 43.78125 24.531631 
L 601.78125 24.531631 
" clip-path="url(#p6259f1c6ac)" style="fill: none; stroke: #b0b0b0; stroke-width: 0.8; stroke-linecap: square"/>
     </g>
     <g id="line2d_34">
      <g>
       <use xlink:href="#m804c82f1b0" x="43.78125" y="24.531631" style="stroke: #000000; stroke-width: 0.8"/>
      </g>
     </g>
     <g id="text_18">
      <!-- 7.5 -->
      <g transform="translate(20.878125 28.33085) scale(0.1 -0.1)">
       <use xlink:href="#DejaVuSans-37"/>
       <use xlink:href="#DejaVuSans-2e" transform="translate(63.623047 0)"/>
       <use xlink:href="#DejaVuSans-35" transform="translate(95.410156 0)"/>
      </g>
     </g>
    </g>
    <g id="text_19">
     <!-- Loss -->
     <g transform="translate(14.798438 310.485313) rotate(-90) scale(0.1 -0.1)">
      <defs>
       <path id="DejaVuSans-4c" d="M 628 4666 
L 1259 4666 
L 1259 531 
L 3531 531 
L 3531 0 
L 628 0 
L 628 4666 
z
" transform="scale(0.015625)"/>
      </defs>
      <use xlink:href="#DejaVuSans-4c"/>
      <use xlink:href="#DejaVuSans-6f" transform="translate(53.962891 0)"/>
      <use xlink:href="#DejaVuSans-73" transform="translate(115.144531 0)"/>
      <use xlink:href="#DejaVuSans-73" transform="translate(167.244141 0)"/>
     </g>
    </g>
   </g>
   <g id="line2d_35">
    <path d="M 69.144886 310.933423 
L 69.779771 312.285822 
L 71.04954 312.942775 
L 76.763501 315.334373 
L 79.937923 316.972367 
L 83.112346 318.870109 
L 86.921653 321.500381 
L 90.73096 324.533269 
L 94.540267 327.933793 
L 97.079805 330.375121 
L 100.254228 333.637833 
L 115.491456 349.97837 
L 118.665879 353.136074 
L 128.189146 362.163163 
L 133.268222 366.780944 
L 139.617067 372.389388 
L 154.854296 385.102315 
L 163.742679 392.123564 
L 170.091524 396.926849 
L 172.631062 398.84517 
L 185.328753 407.946573 
L 187.868291 409.724415 
L 203.740403 420.295869 
L 211.993902 425.558592 
L 223.421823 432.482278 
L 236.119514 439.813004 
L 238.659052 441.216467 
L 248.817204 446.753407 
L 257.705587 451.350256 
L 259.610241 452.348505 
L 262.149779 453.615914 
L 264.689317 454.89147 
L 270.403278 457.681117 
L 271.673047 458.328869 
L 294.528889 468.935021 
L 295.798658 469.448686 
L 309.131233 475.227672 
L 311.035886 476.022436 
L 327.542884 482.699018 
L 330.717306 483.901174 
L 341.510343 488.01695 
L 344.049881 488.950649 
L 349.128957 490.811233 
L 369.445262 497.950626 
L 373.254569 499.221757 
L 375.159222 499.865787 
L 379.603414 501.373977 
L 396.110411 506.688538 
L 417.696485 513.239601 
L 420.870908 514.202168 
L 422.140677 514.567275 
L 425.315099 515.505399 
L 427.219753 516.04435 
L 431.02906 517.106096 
L 431.663944 517.358889 
L 433.568598 517.825914 
L 438.012789 519.14242 
L 440.552327 519.832176 
L 443.091866 520.535909 
L 444.361635 520.860979 
L 446.901173 521.568646 
L 448.805826 522.086806 
L 451.980249 522.954901 
L 455.789556 523.928144 
L 457.059325 524.29859 
L 465.947708 526.584336 
L 467.852362 527.121882 
L 476.10586 529.203862 
L 478.645398 529.844169 
L 479.915167 530.134962 
L 481.819821 530.664079 
L 483.08959 530.946654 
L 487.533782 532.061361 
L 490.07332 532.650393 
L 498.326818 534.644011 
L 498.961703 534.723242 
L 500.231472 535.116866 
L 502.77101 535.667547 
L 513.564047 538.18958 
L 514.833816 538.467028 
L 518.643123 539.317633 
L 519.912892 539.667779 
L 521.182661 539.893178 
L 521.817545 540.085284 
L 523.087314 540.316865 
L 533.245467 542.553022 
L 534.515236 542.832542 
L 537.689658 543.515414 
L 544.673388 545.04573 
L 546.578041 545.426115 
L 576.417614 551.518125 
L 576.417614 551.518125 
" clip-path="url(#p6259f1c6ac)" style="fill: none; stroke: #1f77b4; stroke-width: 1.5; stroke-linecap: square"/>
   </g>
   <g id="line2d_36">
    <path d="M 69.144886 312.02755 
L 69.779771 312.194229 
L 72.319309 312.099054 
L 79.303039 311.251399 
L 86.921653 309.81401 
L 88.191422 309.441598 
L 89.461191 309.150454 
L 93.905382 308.084634 
L 94.540267 307.757105 
L 95.175151 307.726411 
L 99.619343 306.74249 
L 102.793766 306.144046 
L 103.42865 305.886477 
L 104.698419 305.716918 
L 105.968188 305.418047 
L 106.603073 305.493274 
L 107.237957 305.084548 
L 107.872842 305.03236 
L 109.777495 304.399498 
L 110.41238 304.277141 
L 112.317033 303.482306 
L 113.586802 303.308673 
L 114.856571 302.671035 
L 115.491456 302.604448 
L 116.12634 302.387547 
L 117.396109 301.53919 
L 118.030994 301.586812 
L 118.665879 301.383609 
L 119.300763 300.862007 
L 120.570532 300.477514 
L 122.475186 299.46627 
L 125.014724 298.569448 
L 125.649608 298.057399 
L 126.919377 297.420534 
L 127.554262 296.965379 
L 128.824031 296.680908 
L 130.0938 295.746717 
L 130.728684 295.613543 
L 132.633338 294.25995 
L 133.268222 294.294016 
L 133.903107 293.78576 
L 135.172876 293.188511 
L 135.80776 293.009258 
L 137.712414 291.401327 
L 138.347298 291.252067 
L 138.982183 290.939219 
L 140.251952 290.063117 
L 140.886837 289.81517 
L 141.521721 289.195654 
L 142.156606 289.158919 
L 142.79149 288.679672 
L 143.426375 288.430882 
L 144.061259 287.777722 
L 144.696144 287.296368 
L 145.331028 287.063522 
L 147.235682 285.87696 
L 147.870566 285.886583 
L 149.140335 284.667148 
L 149.77522 284.143861 
L 151.044989 283.288129 
L 151.679873 283.21817 
L 152.949642 281.985038 
L 153.584527 281.794899 
L 155.48918 280.530441 
L 156.758949 279.685174 
L 157.393834 278.803804 
L 158.028718 278.651383 
L 158.663603 278.324768 
L 159.298487 278.294143 
L 159.933372 277.288378 
L 160.568256 277.231133 
L 161.203141 276.888292 
L 161.838026 276.087908 
L 162.47291 275.878032 
L 163.107795 275.202605 
L 163.742679 275.189751 
L 164.377564 275.027497 
L 165.012448 274.062612 
L 165.647333 273.90408 
L 166.282217 272.948115 
L 166.917102 273.086558 
L 167.551986 272.37257 
L 168.186871 272.405302 
L 168.821755 271.693561 
L 169.45664 271.232928 
L 170.091524 270.566421 
L 173.265947 268.239234 
L 173.900831 268.058296 
L 175.1706 267.43295 
L 175.805485 266.264299 
L 176.440369 265.802682 
L 177.075254 265.636846 
L 177.710138 264.95573 
L 178.979907 264.560209 
L 179.614792 263.80211 
L 180.249676 263.600521 
L 180.884561 262.987116 
L 181.519445 263.101818 
L 182.15433 262.175073 
L 182.789215 262.061004 
L 183.424099 261.704536 
L 184.058984 260.983102 
L 184.693868 260.625019 
L 185.963637 259.256606 
L 186.598522 259.404672 
L 187.233406 258.512274 
L 188.503175 257.916148 
L 189.772944 256.630477 
L 191.042713 255.889657 
L 191.677598 255.270422 
L 192.312482 255.129521 
L 193.582251 254.288118 
L 194.217136 253.375982 
L 194.85202 253.31965 
L 195.486905 252.812659 
L 196.121789 252.544904 
L 196.756674 251.964372 
L 197.391558 251.776691 
L 198.026443 251.332634 
L 198.661327 250.490809 
L 199.296212 250.420429 
L 199.931096 249.553598 
L 200.565981 249.68003 
L 201.200865 248.315339 
L 201.83575 248.504706 
L 202.470634 247.64792 
L 203.105519 247.562227 
L 204.375288 247.148304 
L 205.010173 245.848655 
L 205.645057 245.99054 
L 206.279942 245.094349 
L 206.914826 244.858483 
L 207.549711 244.937714 
L 208.184595 244.032743 
L 209.454364 242.955896 
L 210.089249 242.364827 
L 210.724133 242.350147 
L 211.993902 241.617966 
L 212.628787 240.754297 
L 213.898556 239.846797 
L 214.53344 239.834997 
L 215.168325 239.611494 
L 215.803209 238.672808 
L 216.438094 237.309803 
L 217.072978 237.647446 
L 217.707863 236.844815 
L 218.342747 237.545036 
L 218.977632 236.368027 
L 220.247401 235.137635 
L 220.882285 235.583237 
L 221.51717 235.0747 
L 222.152054 235.028552 
L 223.421823 233.347852 
L 224.056708 232.933367 
L 224.691592 231.92718 
L 225.326477 232.125678 
L 225.961362 231.931605 
L 226.596246 231.049954 
L 227.231131 231.22155 
L 227.866015 230.496886 
L 228.5009 230.079942 
L 229.135784 229.348183 
L 230.405553 228.731406 
L 231.675322 227.32998 
L 232.310207 227.244498 
L 232.945091 226.736031 
L 234.21486 225.407585 
L 234.849745 226.306093 
L 235.484629 224.623427 
L 236.119514 223.880218 
L 236.754398 223.401744 
L 237.389283 223.419304 
L 238.024167 224.132379 
L 238.659052 222.881969 
L 239.293936 222.85303 
L 239.928821 222.506186 
L 240.563705 221.740501 
L 241.19859 221.491852 
L 241.833474 220.81797 
L 243.103243 220.228096 
L 243.738128 219.558499 
L 244.373012 219.297628 
L 245.007897 218.758958 
L 245.642781 217.866631 
L 246.277666 217.975854 
L 246.91255 216.591426 
L 247.547435 216.286093 
L 248.18232 216.884537 
L 249.452089 215.549136 
L 250.086973 215.731689 
L 250.721858 214.110904 
L 251.356742 214.316496 
L 251.991627 213.985315 
L 252.626511 213.493495 
L 253.261396 212.62512 
L 253.89628 212.256782 
L 254.531165 212.081393 
L 255.166049 211.177406 
L 255.800934 211.121003 
L 256.435818 211.279183 
L 257.070703 209.97806 
L 257.705587 209.432717 
L 259.610241 208.774499 
L 260.88001 207.647008 
L 261.514894 207.718091 
L 262.149779 206.955637 
L 262.784663 206.650024 
L 263.419548 206.17457 
L 264.054432 205.371026 
L 264.689317 205.245296 
L 265.324201 204.372074 
L 265.959086 204.381346 
L 266.59397 203.68 
L 267.228855 203.374597 
L 267.863739 202.757961 
L 268.498624 202.30653 
L 269.133509 202.204471 
L 269.768393 201.738921 
L 270.403278 201.759361 
L 271.038162 200.32443 
L 271.673047 200.534799 
L 272.942816 200.062927 
L 273.5777 199.481692 
L 274.212585 199.262684 
L 274.847469 198.314376 
L 275.482354 197.944633 
L 276.117238 197.335794 
L 276.752123 197.718531 
L 277.387007 196.040289 
L 278.021892 196.911123 
L 278.656776 196.281844 
L 279.291661 195.324615 
L 280.56143 195.128716 
L 281.196314 194.350107 
L 281.831199 195.125063 
L 282.466083 194.420417 
L 283.100968 193.457428 
L 283.735852 194.282606 
L 284.370737 192.444007 
L 285.005621 192.257309 
L 285.640506 191.546903 
L 286.27539 191.302398 
L 286.910275 190.146531 
L 287.545159 190.106775 
L 288.180044 189.613199 
L 288.814928 189.745882 
L 289.449813 188.565431 
L 290.084697 189.524416 
L 290.719582 187.593451 
L 291.989351 187.644165 
L 292.624236 186.495321 
L 293.25912 186.059272 
L 293.894005 186.232624 
L 294.528889 185.581922 
L 295.163774 185.905025 
L 295.798658 184.498542 
L 296.433543 184.23753 
L 297.068427 184.788984 
L 297.703312 183.341972 
L 298.338196 183.734121 
L 298.973081 183.228886 
L 299.607965 182.114319 
L 300.877734 181.348845 
L 301.512619 181.305156 
L 302.147503 181.546078 
L 302.782388 182.049207 
L 303.417272 180.095836 
L 304.052157 179.629232 
L 304.687041 179.680156 
L 305.321926 178.707404 
L 305.95681 179.039217 
L 307.226579 177.519226 
L 307.861464 177.972133 
L 308.496348 177.014763 
L 309.131233 177.328735 
L 309.766117 176.541697 
L 310.401002 176.693626 
L 311.035886 175.355697 
L 311.670771 174.813515 
L 312.305656 174.709139 
L 312.94054 174.921333 
L 313.575425 174.054503 
L 314.210309 174.528482 
L 314.845194 172.849538 
L 315.480078 172.92919 
L 317.384732 171.005039 
L 318.019616 171.53247 
L 318.654501 170.80914 
L 319.289385 171.095437 
L 319.92427 170.050268 
L 320.559154 170.49889 
L 321.194039 169.123312 
L 321.828923 169.21055 
L 322.463808 169.116358 
L 323.098692 168.233935 
L 323.733577 168.270389 
L 324.368461 168.574598 
L 325.003346 166.527035 
L 325.63823 167.570589 
L 326.907999 166.403273 
L 327.542884 167.043931 
L 328.177768 165.766056 
L 328.812653 165.72019 
L 329.447537 164.928727 
L 330.082422 164.633789 
L 330.717306 163.872178 
L 331.352191 163.804959 
L 331.987075 163.209465 
L 332.62196 163.197243 
L 333.256844 162.915792 
L 333.891729 161.04987 
L 334.526614 162.084854 
L 335.161498 161.75852 
L 335.796383 161.115544 
L 336.431267 161.419964 
L 337.066152 159.672887 
L 337.701036 160.430213 
L 338.335921 159.942187 
L 338.970805 158.992965 
L 339.60569 159.592813 
L 340.240574 159.42487 
L 340.875459 158.243435 
L 341.510343 158.167716 
L 342.145228 157.331089 
L 342.780112 157.544127 
L 343.414997 156.991479 
L 344.049881 157.200864 
L 345.954535 155.551 
L 346.589419 155.488908 
L 347.224304 154.456943 
L 347.859188 155.289075 
L 348.494073 154.551205 
L 349.128957 153.575082 
L 349.763842 153.424206 
L 350.398726 153.012811 
L 351.033611 153.830895 
L 351.668495 151.879631 
L 352.30338 151.147591 
L 352.938264 150.876325 
L 353.573149 151.802016 
L 354.208033 150.647413 
L 354.842918 150.59382 
L 355.477803 151.048834 
L 356.112687 149.260948 
L 356.747572 148.86922 
L 357.382456 148.818928 
L 358.017341 147.761748 
L 358.652225 149.062661 
L 359.28711 147.595841 
L 359.921994 147.70668 
L 360.556879 148.234181 
L 361.191763 147.529535 
L 361.826648 145.535846 
L 362.461532 146.312699 
L 363.096417 145.840125 
L 363.731301 143.114607 
L 364.366186 144.125429 
L 365.00107 144.333761 
L 365.635955 144.883739 
L 366.270839 144.894977 
L 366.905724 143.556978 
L 367.540608 143.570885 
L 368.175493 143.17993 
L 368.810377 143.169113 
L 369.445262 142.739175 
L 370.080146 143.349559 
L 370.715031 141.918773 
L 371.9848 141.509977 
L 372.619684 141.15667 
L 373.254569 140.506811 
L 374.524338 139.985842 
L 375.159222 138.530401 
L 375.794107 138.261804 
L 376.428991 138.987452 
L 377.063876 137.817958 
L 377.698761 138.159394 
L 378.333645 138.681065 
L 378.96853 137.656968 
L 380.238299 137.258427 
L 380.873183 135.581028 
L 381.508068 136.327327 
L 382.777837 136.62093 
L 383.412721 135.701279 
L 384.047606 133.959681 
L 384.68249 134.940581 
L 385.317375 132.092705 
L 385.952259 133.680829 
L 386.587144 133.302798 
L 387.222028 133.592045 
L 387.856913 132.523978 
L 388.491797 133.389544 
L 389.126682 130.839766 
L 389.761566 132.704003 
L 390.396451 131.465814 
L 391.031335 131.313674 
L 391.66622 130.55108 
L 392.301104 130.165744 
L 392.935989 130.201215 
L 393.570873 129.413685 
L 394.205758 129.71375 
L 394.840642 130.177614 
L 395.475527 128.604943 
L 396.110411 128.48982 
L 396.745296 128.554862 
L 397.38018 126.051021 
L 398.015065 126.906683 
L 398.64995 127.223817 
L 399.284834 126.323552 
L 399.919719 126.575362 
L 400.554603 126.011125 
L 401.189488 125.694413 
L 401.824372 124.254144 
L 402.459257 125.097866 
L 403.094141 125.10201 
L 403.729026 125.401864 
L 404.36391 124.51045 
L 404.998795 124.41092 
L 406.268564 123.397148 
L 406.903448 123.618263 
L 408.173217 120.187536 
L 408.808102 122.371083 
L 409.442986 121.555669 
L 410.077871 121.240924 
L 410.712755 120.451287 
L 411.34764 121.990524 
L 411.982524 120.35267 
L 412.617409 119.656031 
L 413.252293 121.571754 
L 413.887178 118.813363 
L 414.522062 117.931853 
L 415.156947 119.472073 
L 415.791831 117.798467 
L 416.426716 119.304972 
L 417.0616 120.032447 
L 417.696485 116.405751 
L 418.331369 115.715714 
L 418.966254 117.34542 
L 419.601138 117.041351 
L 420.236023 115.699067 
L 420.870908 115.744864 
L 421.505792 116.085948 
L 422.140677 115.552757 
L 422.775561 114.181464 
L 423.410446 114.990136 
L 424.04533 114.361138 
L 424.680215 114.377012 
L 425.315099 114.108766 
L 425.949984 114.123446 
L 426.584868 112.060782 
L 427.219753 111.172317 
L 427.854637 111.080725 
L 428.489522 112.457005 
L 429.124406 112.554568 
L 429.759291 110.52906 
L 430.394175 111.642784 
L 431.02906 110.12202 
L 431.663944 110.702202 
L 432.298829 109.723901 
L 432.933713 110.864596 
L 433.568598 109.295859 
L 434.203482 108.055914 
L 434.838367 108.740683 
L 435.473251 110.151662 
L 436.108136 108.354012 
L 436.74302 107.625414 
L 437.377905 107.877083 
L 438.012789 106.833459 
L 438.647674 107.269368 
L 439.282558 106.938608 
L 439.917443 107.93166 
L 440.552327 106.063981 
L 441.187212 107.118703 
L 441.822097 105.263036 
L 442.456981 105.542099 
L 443.091866 105.949631 
L 443.72675 106.067212 
L 444.361635 102.605159 
L 444.996519 104.084481 
L 445.631404 102.679121 
L 446.266288 104.136739 
L 446.901173 102.758633 
L 447.536057 103.750631 
L 448.170942 103.553608 
L 448.805826 101.197832 
L 449.440711 102.690079 
L 450.075595 101.397243 
L 450.71048 101.713955 
L 451.345364 99.866084 
L 451.980249 100.502738 
L 452.615133 99.091268 
L 453.250018 100.920596 
L 453.884902 99.571147 
L 454.519787 101.457299 
L 455.154671 98.403971 
L 455.789556 98.360352 
L 456.42444 99.263145 
L 457.059325 97.713021 
L 457.694209 97.506797 
L 458.329094 98.137902 
L 458.963978 96.778831 
L 459.598863 96.797233 
L 460.233747 97.975507 
L 460.868632 96.614329 
L 461.503516 96.553501 
L 462.138401 95.64839 
L 462.773285 95.638837 
L 463.40817 97.979652 
L 464.043055 96.009634 
L 464.677939 96.153204 
L 465.312824 95.845764 
L 465.947708 92.885715 
L 466.582593 93.45817 
L 467.217477 94.562341 
L 467.852362 94.359488 
L 468.487246 92.581225 
L 469.122131 92.720511 
L 469.757015 92.405625 
L 470.3919 93.883402 
L 471.661669 90.29309 
L 472.296553 91.526503 
L 472.931438 92.332646 
L 473.566322 90.15542 
L 474.201207 90.354761 
L 474.836091 90.829091 
L 475.470976 90.064881 
L 476.10586 88.850433 
L 476.740745 89.15675 
L 477.375629 89.734824 
L 478.010514 88.874455 
L 478.645398 88.909084 
L 479.280283 87.77197 
L 479.915167 87.57874 
L 480.550052 86.192837 
L 481.184936 87.208225 
L 481.819821 87.585343 
L 482.454705 85.504346 
L 483.08959 89.108776 
L 483.724474 84.269248 
L 484.359359 87.149996 
L 484.994244 84.838893 
L 485.629128 84.778417 
L 486.264013 85.23041 
L 486.898897 83.279568 
L 487.533782 83.204903 
L 488.168666 85.329027 
L 489.438435 82.181789 
L 490.07332 82.731065 
L 490.708204 82.657453 
L 491.343089 84.105167 
L 492.612858 82.405854 
L 493.247742 81.083237 
L 493.882627 83.162197 
L 494.517511 80.412235 
L 495.78728 81.791606 
L 496.422165 79.924138 
L 497.057049 80.88811 
L 497.691934 81.173144 
L 498.326818 79.695929 
L 498.961703 79.464769 
L 499.596587 80.12362 
L 500.231472 79.735685 
L 500.866356 81.275343 
L 501.501241 78.529174 
L 502.136125 78.488646 
L 502.77101 79.232065 
L 503.405894 78.932492 
L 504.040779 76.094238 
L 504.675663 76.22945 
L 505.310548 76.915694 
L 505.945433 76.882822 
L 506.580317 75.697032 
L 507.215202 76.82375 
L 507.850086 74.602554 
L 508.484971 73.320817 
L 509.119855 74.337398 
L 510.389624 75.660648 
L 511.024509 73.914976 
L 512.294278 74.470011 
L 512.929162 73.074907 
L 513.564047 74.108276 
L 514.198931 73.574453 
L 515.4687 71.266159 
L 516.103585 70.934697 
L 516.738469 73.492764 
L 517.373354 69.800604 
L 518.008238 72.322567 
L 518.643123 71.360632 
L 519.278007 71.965257 
L 519.912892 70.125464 
L 520.547776 69.00008 
L 521.182661 69.358444 
L 521.817545 68.7102 
L 522.45243 69.548092 
L 523.087314 69.48909 
L 523.722199 67.831991 
L 524.357083 68.362794 
L 524.991968 68.304635 
L 525.626852 69.05866 
L 526.261737 66.251242 
L 526.896621 67.278501 
L 527.531506 67.133947 
L 528.166391 66.795812 
L 528.801275 66.716792 
L 529.43616 66.787103 
L 530.071044 65.631235 
L 530.705929 65.007435 
L 531.340813 66.435411 
L 531.975698 64.464972 
L 532.610582 65.870683 
L 533.245467 63.808791 
L 533.880351 65.896672 
L 534.515236 65.610023 
L 535.15012 62.545316 
L 535.785005 64.217447 
L 536.419889 65.119537 
L 537.054774 59.833073 
L 537.689658 63.982775 
L 538.324543 61.271937 
L 538.959427 61.906274 
L 539.594312 60.934154 
L 540.229196 61.818263 
L 540.864081 63.444808 
L 541.498965 61.094581 
L 542.13385 61.470435 
L 542.768734 61.997726 
L 543.403619 61.143187 
L 544.038503 61.254588 
L 544.673388 60.569117 
L 545.308272 59.437693 
L 545.943157 59.840308 
L 546.578041 58.967788 
L 547.212926 60.07224 
L 547.84781 58.972283 
L 549.11758 58.120203 
L 549.752464 59.300023 
L 550.387349 57.441897 
L 551.022233 56.85729 
L 552.292002 58.087752 
L 552.926887 55.494988 
L 553.561771 55.185862 
L 554.196656 56.120544 
L 554.83154 56.797797 
L 555.466425 55.113023 
L 556.101309 54.203979 
L 556.736194 57.187628 
L 557.371078 54.632653 
L 558.005963 54.856156 
L 558.640847 54.367778 
L 559.275732 54.159236 
L 559.910616 53.783733 
L 561.180385 50.097895 
L 561.81527 52.114834 
L 562.450154 52.585652 
L 563.085039 52.400429 
L 563.719923 51.550246 
L 564.354808 49.814337 
L 564.989692 51.452331 
L 565.624577 50.758712 
L 566.259461 49.257335 
L 566.894346 50.998862 
L 567.52923 50.00251 
L 568.164115 51.430416 
L 568.798999 50.139337 
L 569.433884 48.53843 
L 570.068768 49.783431 
L 570.703653 49.542509 
L 571.338538 47.988381 
L 571.973422 48.338667 
L 572.608307 48.885415 
L 573.243191 47.855698 
L 573.878076 47.518125 
L 574.51296 47.938792 
L 575.147845 49.081173 
L 575.782729 47.679396 
L 576.417614 47.848323 
L 576.417614 47.848323 
" clip-path="url(#p6259f1c6ac)" style="fill: none; stroke: #ff7f0e; stroke-width: 1.5; stroke-linecap: square"/>
   </g>
   <g id="patch_3">
    <path d="M 43.78125 576.718125 
L 43.78125 22.318125 
" style="fill: none; stroke: #000000; stroke-width: 0.8; stroke-linejoin: miter; stroke-linecap: square"/>
   </g>
   <g id="patch_4">
    <path d="M 601.78125 576.718125 
L 601.78125 22.318125 
" style="fill: none; stroke: #000000; stroke-width: 0.8; stroke-linejoin: miter; stroke-linecap: square"/>
   </g>
   <g id="patch_5">
    <path d="M 43.78125 576.718125 
L 601.78125 576.718125 
" style="fill: none; stroke: #000000; stroke-width: 0.8; stroke-linejoin: miter; stroke-linecap: square"/>
   </g>
   <g id="patch_6">
    <path d="M 43.78125 22.318125 
L 601.78125 22.318125 
" style="fill: none; stroke: #000000; stroke-width: 0.8; stroke-linejoin: miter; stroke-linecap: square"/>
   </g>
   <g id="text_20">
    <!-- Train and Val Loss -->
    <g transform="translate(269.235937 16.318125) scale(0.12 -0.12)">
     <defs>
      <path id="DejaVuSans-54" d="M -19 4666 
L 3928 4666 
L 3928 4134 
L 2272 4134 
L 2272 0 
L 1638 0 
L 1638 4134 
L -19 4134 
L -19 4666 
z
" transform="scale(0.015625)"/>
      <path id="DejaVuSans-72" d="M 2631 2963 
Q 2534 3019 2420 3045 
Q 2306 3072 2169 3072 
Q 1681 3072 1420 2755 
Q 1159 2438 1159 1844 
L 1159 0 
L 581 0 
L 581 3500 
L 1159 3500 
L 1159 2956 
Q 1341 3275 1631 3429 
Q 1922 3584 2338 3584 
Q 2397 3584 2469 3576 
Q 2541 3569 2628 3553 
L 2631 2963 
z
" transform="scale(0.015625)"/>
      <path id="DejaVuSans-61" d="M 2194 1759 
Q 1497 1759 1228 1600 
Q 959 1441 959 1056 
Q 959 750 1161 570 
Q 1363 391 1709 391 
Q 2188 391 2477 730 
Q 2766 1069 2766 1631 
L 2766 1759 
L 2194 1759 
z
M 3341 1997 
L 3341 0 
L 2766 0 
L 2766 531 
Q 2569 213 2275 61 
Q 1981 -91 1556 -91 
Q 1019 -91 701 211 
Q 384 513 384 1019 
Q 384 1609 779 1909 
Q 1175 2209 1959 2209 
L 2766 2209 
L 2766 2266 
Q 2766 2663 2505 2880 
Q 2244 3097 1772 3097 
Q 1472 3097 1187 3025 
Q 903 2953 641 2809 
L 641 3341 
Q 956 3463 1253 3523 
Q 1550 3584 1831 3584 
Q 2591 3584 2966 3190 
Q 3341 2797 3341 1997 
z
" transform="scale(0.015625)"/>
      <path id="DejaVuSans-69" d="M 603 3500 
L 1178 3500 
L 1178 0 
L 603 0 
L 603 3500 
z
M 603 4863 
L 1178 4863 
L 1178 4134 
L 603 4134 
L 603 4863 
z
" transform="scale(0.015625)"/>
      <path id="DejaVuSans-6e" d="M 3513 2113 
L 3513 0 
L 2938 0 
L 2938 2094 
Q 2938 2591 2744 2837 
Q 2550 3084 2163 3084 
Q 1697 3084 1428 2787 
Q 1159 2491 1159 1978 
L 1159 0 
L 581 0 
L 581 3500 
L 1159 3500 
L 1159 2956 
Q 1366 3272 1645 3428 
Q 1925 3584 2291 3584 
Q 2894 3584 3203 3211 
Q 3513 2838 3513 2113 
z
" transform="scale(0.015625)"/>
      <path id="DejaVuSans-20" transform="scale(0.015625)"/>
      <path id="DejaVuSans-64" d="M 2906 2969 
L 2906 4863 
L 3481 4863 
L 3481 0 
L 2906 0 
L 2906 525 
Q 2725 213 2448 61 
Q 2172 -91 1784 -91 
Q 1150 -91 751 415 
Q 353 922 353 1747 
Q 353 2572 751 3078 
Q 1150 3584 1784 3584 
Q 2172 3584 2448 3432 
Q 2725 3281 2906 2969 
z
M 947 1747 
Q 947 1113 1208 752 
Q 1469 391 1925 391 
Q 2381 391 2643 752 
Q 2906 1113 2906 1747 
Q 2906 2381 2643 2742 
Q 2381 3103 1925 3103 
Q 1469 3103 1208 2742 
Q 947 2381 947 1747 
z
" transform="scale(0.015625)"/>
      <path id="DejaVuSans-56" d="M 1831 0 
L 50 4666 
L 709 4666 
L 2188 738 
L 3669 4666 
L 4325 4666 
L 2547 0 
L 1831 0 
z
" transform="scale(0.015625)"/>
      <path id="DejaVuSans-6c" d="M 603 4863 
L 1178 4863 
L 1178 0 
L 603 0 
L 603 4863 
z
" transform="scale(0.015625)"/>
     </defs>
     <use xlink:href="#DejaVuSans-54"/>
     <use xlink:href="#DejaVuSans-72" transform="translate(46.333984 0)"/>
     <use xlink:href="#DejaVuSans-61" transform="translate(87.447266 0)"/>
     <use xlink:href="#DejaVuSans-69" transform="translate(148.726562 0)"/>
     <use xlink:href="#DejaVuSans-6e" transform="translate(176.509766 0)"/>
     <use xlink:href="#DejaVuSans-20" transform="translate(239.888672 0)"/>
     <use xlink:href="#DejaVuSans-61" transform="translate(271.675781 0)"/>
     <use xlink:href="#DejaVuSans-6e" transform="translate(332.955078 0)"/>
     <use xlink:href="#DejaVuSans-64" transform="translate(396.333984 0)"/>
     <use xlink:href="#DejaVuSans-20" transform="translate(459.810547 0)"/>
     <use xlink:href="#DejaVuSans-56" transform="translate(491.597656 0)"/>
     <use xlink:href="#DejaVuSans-61" transform="translate(552.255859 0)"/>
     <use xlink:href="#DejaVuSans-6c" transform="translate(613.535156 0)"/>
     <use xlink:href="#DejaVuSans-20" transform="translate(641.318359 0)"/>
     <use xlink:href="#DejaVuSans-4c" transform="translate(673.105469 0)"/>
     <use xlink:href="#DejaVuSans-6f" transform="translate(727.068359 0)"/>
     <use xlink:href="#DejaVuSans-73" transform="translate(788.25 0)"/>
     <use xlink:href="#DejaVuSans-73" transform="translate(840.349609 0)"/>
    </g>
   </g>
   <g id="legend_1">
    <g id="patch_7">
     <path d="M 50.78125 60.230625 
L 130.371875 60.230625 
Q 132.371875 60.230625 132.371875 58.230625 
L 132.371875 29.318125 
Q 132.371875 27.318125 130.371875 27.318125 
L 50.78125 27.318125 
Q 48.78125 27.318125 48.78125 29.318125 
L 48.78125 58.230625 
Q 48.78125 60.230625 50.78125 60.230625 
z
" style="fill: #ffffff; opacity: 0.8; stroke: #cccccc; stroke-linejoin: miter"/>
    </g>
    <g id="line2d_37">
     <path d="M 52.78125 35.416563 
L 62.78125 35.416563 
L 72.78125 35.416563 
" style="fill: none; stroke: #1f77b4; stroke-width: 1.5; stroke-linecap: square"/>
    </g>
    <g id="text_21">
     <!-- train_loss -->
     <g transform="translate(80.78125 38.916563) scale(0.1 -0.1)">
      <defs>
       <path id="DejaVuSans-74" d="M 1172 4494 
L 1172 3500 
L 2356 3500 
L 2356 3053 
L 1172 3053 
L 1172 1153 
Q 1172 725 1289 603 
Q 1406 481 1766 481 
L 2356 481 
L 2356 0 
L 1766 0 
Q 1100 0 847 248 
Q 594 497 594 1153 
L 594 3053 
L 172 3053 
L 172 3500 
L 594 3500 
L 594 4494 
L 1172 4494 
z
" transform="scale(0.015625)"/>
       <path id="DejaVuSans-5f" d="M 3263 -1063 
L 3263 -1509 
L -63 -1509 
L -63 -1063 
L 3263 -1063 
z
" transform="scale(0.015625)"/>
      </defs>
      <use xlink:href="#DejaVuSans-74"/>
      <use xlink:href="#DejaVuSans-72" transform="translate(39.208984 0)"/>
      <use xlink:href="#DejaVuSans-61" transform="translate(80.322266 0)"/>
      <use xlink:href="#DejaVuSans-69" transform="translate(141.601562 0)"/>
      <use xlink:href="#DejaVuSans-6e" transform="translate(169.384766 0)"/>
      <use xlink:href="#DejaVuSans-5f" transform="translate(232.763672 0)"/>
      <use xlink:href="#DejaVuSans-6c" transform="translate(282.763672 0)"/>
      <use xlink:href="#DejaVuSans-6f" transform="translate(310.546875 0)"/>
      <use xlink:href="#DejaVuSans-73" transform="translate(371.728516 0)"/>
      <use xlink:href="#DejaVuSans-73" transform="translate(423.828125 0)"/>
     </g>
    </g>
    <g id="line2d_38">
     <path d="M 52.78125 50.372813 
L 62.78125 50.372813 
L 72.78125 50.372813 
" style="fill: none; stroke: #ff7f0e; stroke-width: 1.5; stroke-linecap: square"/>
    </g>
    <g id="text_22">
     <!-- val_loss -->
     <g transform="translate(80.78125 53.872813) scale(0.1 -0.1)">
      <defs>
       <path id="DejaVuSans-76" d="M 191 3500 
L 800 3500 
L 1894 563 
L 2988 3500 
L 3597 3500 
L 2284 0 
L 1503 0 
L 191 3500 
z
" transform="scale(0.015625)"/>
      </defs>
      <use xlink:href="#DejaVuSans-76"/>
      <use xlink:href="#DejaVuSans-61" transform="translate(59.179688 0)"/>
      <use xlink:href="#DejaVuSans-6c" transform="translate(120.458984 0)"/>
      <use xlink:href="#DejaVuSans-5f" transform="translate(148.242188 0)"/>
      <use xlink:href="#DejaVuSans-6c" transform="translate(198.242188 0)"/>
      <use xlink:href="#DejaVuSans-6f" transform="translate(226.025391 0)"/>
      <use xlink:href="#DejaVuSans-73" transform="translate(287.207031 0)"/>
      <use xlink:href="#DejaVuSans-73" transform="translate(339.306641 0)"/>
     </g>
    </g>
   </g>
  </g>
 </g>
 <defs>
  <clipPath id="p6259f1c6ac">
   <rect x="43.78125" y="22.318125" width="558" height="554.4"/>
  </clipPath>
 </defs>
</svg>
