<?xml version="1.0" encoding="utf-8" standalone="no"?>
<!DOCTYPE svg PUBLIC "-//W3C//DTD SVG 1.1//EN"
  "http://www.w3.org/Graphics/SVG/1.1/DTD/svg11.dtd">
<svg xmlns:xlink="http://www.w3.org/1999/xlink" width="621.70625pt" height="614.274375pt" viewBox="0 0 621.70625 614.274375" xmlns="http://www.w3.org/2000/svg" version="1.1">
 <metadata>
  <rdf:RDF xmlns:dc="http://purl.org/dc/elements/1.1/" xmlns:cc="http://creativecommons.org/ns#" xmlns:rdf="http://www.w3.org/1999/02/22-rdf-syntax-ns#">
   <cc:Work>
    <dc:type rdf:resource="http://purl.org/dc/dcmitype/StillImage"/>
    <dc:date>2026-05-24T10:24:02.215854</dc:date>
    <dc:format>image/svg+xml</dc:format>
    <dc:creator>
     <cc:Agent>
      <dc:title>Matplotlib v3.10.9, https://matplotlib.org/</dc:title>
     </cc:Agent>
    </dc:creator>
   </cc:Work>
  </rdf:RDF>
 </metadata>
 <defs>
  <style type="text/css">*{stroke-linejoin: round; stroke-linecap: butt}</style>
 </defs>
 <g id="figure_1">
  <g id="patch_1">
   <path d="M 0 614.274375 
L 621.70625 614.274375 
L 621.70625 0 
L 0 0 
z
" style="fill: #ffffff"/>
  </g>
  <g id="axes_1">
   <g id="patch_2">
    <path d="M 56.50625 576.718125 
L 614.50625 576.718125 
L 614.50625 22.318125 
L 56.50625 22.318125 
z
" style="fill: #ffffff"/>
   </g>
   <g id="matplotlib.axis_1">
    <g id="xtick_1">
     <g id="line2d_1">
      <path d="M 81.869886 576.718125 
L 81.869886 22.318125 
" clip-path="url(#p87a53ec60a)" style="fill: none; stroke: #b0b0b0; stroke-width: 0.8; stroke-linecap: square"/>
     </g>
     <g id="line2d_2">
      <defs>
       <path id="m03de8bd552" d="M 0 0 
L 0 3.5 
" style="stroke: #000000; stroke-width: 0.8"/>
      </defs>
      <g>
       <use xlink:href="#m03de8bd552" x="81.869886" y="576.718125" style="stroke: #000000; stroke-width: 0.8"/>
      </g>
     </g>
     <g id="text_1">
      <!-- 0 -->
      <g transform="translate(78.688636 591.316563) scale(0.1 -0.1)">
       <defs>
        <path id="DejaVuSans-30" d="M 2034 4250 
Q 1547 4250 1301 3770 
Q 1056 3291 1056 2328 
Q 1056 1369 1301 889 
Q 1547 409 2034 409 
Q 2525 409 2770 889 
Q 3016 1369 3016 2328 
Q 3016 3291 2770 3770 
Q 2525 4250 2034 4250 
z
M 2034 4750 
Q 2819 4750 3233 4129 
Q 3647 3509 3647 2328 
Q 3647 1150 3233 529 
Q 2819 -91 2034 -91 
Q 1250 -91 836 529 
Q 422 1150 422 2328 
Q 422 3509 836 4129 
Q 1250 4750 2034 4750 
z
" transform="scale(0.015625)"/>
       </defs>
       <use xlink:href="#DejaVuSans-30"/>
      </g>
     </g>
    </g>
    <g id="xtick_2">
     <g id="line2d_3">
      <path d="M 145.358338 576.718125 
L 145.358338 22.318125 
" clip-path="url(#p87a53ec60a)" style="fill: none; stroke: #b0b0b0; stroke-width: 0.8; stroke-linecap: square"/>
     </g>
     <g id="line2d_4">
      <g>
       <use xlink:href="#m03de8bd552" x="145.358338" y="576.718125" style="stroke: #000000; stroke-width: 0.8"/>
      </g>
     </g>
     <g id="text_2">
      <!-- 100 -->
      <g transform="translate(135.814588 591.316563) scale(0.1 -0.1)">
       <defs>
        <path id="DejaVuSans-31" d="M 794 531 
L 1825 531 
L 1825 4091 
L 703 3866 
L 703 4441 
L 1819 4666 
L 2450 4666 
L 2450 531 
L 3481 531 
L 3481 0 
L 794 0 
L 794 531 
z
" transform="scale(0.015625)"/>
       </defs>
       <use xlink:href="#DejaVuSans-31"/>
       <use xlink:href="#DejaVuSans-30" transform="translate(63.623047 0)"/>
       <use xlink:href="#DejaVuSans-30" transform="translate(127.246094 0)"/>
      </g>
     </g>
    </g>
    <g id="xtick_3">
     <g id="line2d_5">
      <path d="M 208.846789 576.718125 
L 208.846789 22.318125 
" clip-path="url(#p87a53ec60a)" style="fill: none; stroke: #b0b0b0; stroke-width: 0.8; stroke-linecap: square"/>
     </g>
     <g id="line2d_6">
      <g>
       <use xlink:href="#m03de8bd552" x="208.846789" y="576.718125" style="stroke: #000000; stroke-width: 0.8"/>
      </g>
     </g>
     <g id="text_3">
      <!-- 200 -->
      <g transform="translate(199.303039 591.316563) scale(0.1 -0.1)">
       <defs>
        <path id="DejaVuSans-32" d="M 1228 531 
L 3431 531 
L 3431 0 
L 469 0 
L 469 531 
Q 828 903 1448 1529 
Q 2069 2156 2228 2338 
Q 2531 2678 2651 2914 
Q 2772 3150 2772 3378 
Q 2772 3750 2511 3984 
Q 2250 4219 1831 4219 
Q 1534 4219 1204 4116 
Q 875 4013 500 3803 
L 500 4441 
Q 881 4594 1212 4672 
Q 1544 4750 1819 4750 
Q 2544 4750 2975 4387 
Q 3406 4025 3406 3419 
Q 3406 3131 3298 2873 
Q 3191 2616 2906 2266 
Q 2828 2175 2409 1742 
Q 1991 1309 1228 531 
z
" transform="scale(0.015625)"/>
       </defs>
       <use xlink:href="#DejaVuSans-32"/>
       <use xlink:href="#DejaVuSans-30" transform="translate(63.623047 0)"/>
       <use xlink:href="#DejaVuSans-30" transform="translate(127.246094 0)"/>
      </g>
     </g>
    </g>
    <g id="xtick_4">
     <g id="line2d_7">
      <path d="M 272.335241 576.718125 
L 272.335241 22.318125 
" clip-path="url(#p87a53ec60a)" style="fill: none; stroke: #b0b0b0; stroke-width: 0.8; stroke-linecap: square"/>
     </g>
     <g id="line2d_8">
      <g>
       <use xlink:href="#m03de8bd552" x="272.335241" y="576.718125" style="stroke: #000000; stroke-width: 0.8"/>
      </g>
     </g>
     <g id="text_4">
      <!-- 300 -->
      <g transform="translate(262.791491 591.316563) scale(0.1 -0.1)">
       <defs>
        <path id="DejaVuSans-33" d="M 2597 2516 
Q 3050 2419 3304 2112 
Q 3559 1806 3559 1356 
Q 3559 666 3084 287 
Q 2609 -91 1734 -91 
Q 1441 -91 1130 -33 
Q 819 25 488 141 
L 488 750 
Q 750 597 1062 519 
Q 1375 441 1716 441 
Q 2309 441 2620 675 
Q 2931 909 2931 1356 
Q 2931 1769 2642 2001 
Q 2353 2234 1838 2234 
L 1294 2234 
L 1294 2753 
L 1863 2753 
Q 2328 2753 2575 2939 
Q 2822 3125 2822 3475 
Q 2822 3834 2567 4026 
Q 2313 4219 1838 4219 
Q 1578 4219 1281 4162 
Q 984 4106 628 3988 
L 628 4550 
Q 988 4650 1302 4700 
Q 1616 4750 1894 4750 
Q 2613 4750 3031 4423 
Q 3450 4097 3450 3541 
Q 3450 3153 3228 2886 
Q 3006 2619 2597 2516 
z
" transform="scale(0.015625)"/>
       </defs>
       <use xlink:href="#DejaVuSans-33"/>
       <use xlink:href="#DejaVuSans-30" transform="translate(63.623047 0)"/>
       <use xlink:href="#DejaVuSans-30" transform="translate(127.246094 0)"/>
      </g>
     </g>
    </g>
    <g id="xtick_5">
     <g id="line2d_9">
      <path d="M 335.823692 576.718125 
L 335.823692 22.318125 
" clip-path="url(#p87a53ec60a)" style="fill: none; stroke: #b0b0b0; stroke-width: 0.8; stroke-linecap: square"/>
     </g>
     <g id="line2d_10">
      <g>
       <use xlink:href="#m03de8bd552" x="335.823692" y="576.718125" style="stroke: #000000; stroke-width: 0.8"/>
      </g>
     </g>
     <g id="text_5">
      <!-- 400 -->
      <g transform="translate(326.279942 591.316563) scale(0.1 -0.1)">
       <defs>
        <path id="DejaVuSans-34" d="M 2419 4116 
L 825 1625 
L 2419 1625 
L 2419 4116 
z
M 2253 4666 
L 3047 4666 
L 3047 1625 
L 3713 1625 
L 3713 1100 
L 3047 1100 
L 3047 0 
L 2419 0 
L 2419 1100 
L 313 1100 
L 313 1709 
L 2253 4666 
z
" transform="scale(0.015625)"/>
       </defs>
       <use xlink:href="#DejaVuSans-34"/>
       <use xlink:href="#DejaVuSans-30" transform="translate(63.623047 0)"/>
       <use xlink:href="#DejaVuSans-30" transform="translate(127.246094 0)"/>
      </g>
     </g>
    </g>
    <g id="xtick_6">
     <g id="line2d_11">
      <path d="M 399.312144 576.718125 
L 399.312144 22.318125 
" clip-path="url(#p87a53ec60a)" style="fill: none; stroke: #b0b0b0; stroke-width: 0.8; stroke-linecap: square"/>
     </g>
     <g id="line2d_12">
      <g>
       <use xlink:href="#m03de8bd552" x="399.312144" y="576.718125" style="stroke: #000000; stroke-width: 0.8"/>
      </g>
     </g>
     <g id="text_6">
      <!-- 500 -->
      <g transform="translate(389.768394 591.316563) scale(0.1 -0.1)">
       <defs>
        <path id="DejaVuSans-35" d="M 691 4666 
L 3169 4666 
L 3169 4134 
L 1269 4134 
L 1269 2991 
Q 1406 3038 1543 3061 
Q 1681 3084 1819 3084 
Q 2600 3084 3056 2656 
Q 3513 2228 3513 1497 
Q 3513 744 3044 326 
Q 2575 -91 1722 -91 
Q 1428 -91 1123 -41 
Q 819 9 494 109 
L 494 744 
Q 775 591 1075 516 
Q 1375 441 1709 441 
Q 2250 441 2565 725 
Q 2881 1009 2881 1497 
Q 2881 1984 2565 2268 
Q 2250 2553 1709 2553 
Q 1456 2553 1204 2497 
Q 953 2441 691 2322 
L 691 4666 
z
" transform="scale(0.015625)"/>
       </defs>
       <use xlink:href="#DejaVuSans-35"/>
       <use xlink:href="#DejaVuSans-30" transform="translate(63.623047 0)"/>
       <use xlink:href="#DejaVuSans-30" transform="translate(127.246094 0)"/>
      </g>
     </g>
    </g>
    <g id="xtick_7">
     <g id="line2d_13">
      <path d="M 462.800595 576.718125 
L 462.800595 22.318125 
" clip-path="url(#p87a53ec60a)" style="fill: none; stroke: #b0b0b0; stroke-width: 0.8; stroke-linecap: square"/>
     </g>
     <g id="line2d_14">
      <g>
       <use xlink:href="#m03de8bd552" x="462.800595" y="576.718125" style="stroke: #000000; stroke-width: 0.8"/>
      </g>
     </g>
     <g id="text_7">
      <!-- 600 -->
      <g transform="translate(453.256845 591.316563) scale(0.1 -0.1)">
       <defs>
        <path id="DejaVuSans-36" d="M 2113 2584 
Q 1688 2584 1439 2293 
Q 1191 2003 1191 1497 
Q 1191 994 1439 701 
Q 1688 409 2113 409 
Q 2538 409 2786 701 
Q 3034 994 3034 1497 
Q 3034 2003 2786 2293 
Q 2538 2584 2113 2584 
z
M 3366 4563 
L 3366 3988 
Q 3128 4100 2886 4159 
Q 2644 4219 2406 4219 
Q 1781 4219 1451 3797 
Q 1122 3375 1075 2522 
Q 1259 2794 1537 2939 
Q 1816 3084 2150 3084 
Q 2853 3084 3261 2657 
Q 3669 2231 3669 1497 
Q 3669 778 3244 343 
Q 2819 -91 2113 -91 
Q 1303 -91 875 529 
Q 447 1150 447 2328 
Q 447 3434 972 4092 
Q 1497 4750 2381 4750 
Q 2619 4750 2861 4703 
Q 3103 4656 3366 4563 
z
" transform="scale(0.015625)"/>
       </defs>
       <use xlink:href="#DejaVuSans-36"/>
       <use xlink:href="#DejaVuSans-30" transform="translate(63.623047 0)"/>
       <use xlink:href="#DejaVuSans-30" transform="translate(127.246094 0)"/>
      </g>
     </g>
    </g>
    <g id="xtick_8">
     <g id="line2d_15">
      <path d="M 526.289047 576.718125 
L 526.289047 22.318125 
" clip-path="url(#p87a53ec60a)" style="fill: none; stroke: #b0b0b0; stroke-width: 0.8; stroke-linecap: square"/>
     </g>
     <g id="line2d_16">
      <g>
       <use xlink:href="#m03de8bd552" x="526.289047" y="576.718125" style="stroke: #000000; stroke-width: 0.8"/>
      </g>
     </g>
     <g id="text_8">
      <!-- 700 -->
      <g transform="translate(516.745297 591.316563) scale(0.1 -0.1)">
       <defs>
        <path id="DejaVuSans-37" d="M 525 4666 
L 3525 4666 
L 3525 4397 
L 1831 0 
L 1172 0 
L 2766 4134 
L 525 4134 
L 525 4666 
z
" transform="scale(0.015625)"/>
       </defs>
       <use xlink:href="#DejaVuSans-37"/>
       <use xlink:href="#DejaVuSans-30" transform="translate(63.623047 0)"/>
       <use xlink:href="#DejaVuSans-30" transform="translate(127.246094 0)"/>
      </g>
     </g>
    </g>
    <g id="xtick_9">
     <g id="line2d_17">
      <path d="M 589.777498 576.718125 
L 589.777498 22.318125 
" clip-path="url(#p87a53ec60a)" style="fill: none; stroke: #b0b0b0; stroke-width: 0.8; stroke-linecap: square"/>
     </g>
     <g id="line2d_18">
      <g>
       <use xlink:href="#m03de8bd552" x="589.777498" y="576.718125" style="stroke: #000000; stroke-width: 0.8"/>
      </g>
     </g>
     <g id="text_9">
      <!-- 800 -->
      <g transform="translate(580.233748 591.316563) scale(0.1 -0.1)">
       <defs>
        <path id="DejaVuSans-38" d="M 2034 2216 
Q 1584 2216 1326 1975 
Q 1069 1734 1069 1313 
Q 1069 891 1326 650 
Q 1584 409 2034 409 
Q 2484 409 2743 651 
Q 3003 894 3003 1313 
Q 3003 1734 2745 1975 
Q 2488 2216 2034 2216 
z
M 1403 2484 
Q 997 2584 770 2862 
Q 544 3141 544 3541 
Q 544 4100 942 4425 
Q 1341 4750 2034 4750 
Q 2731 4750 3128 4425 
Q 3525 4100 3525 3541 
Q 3525 3141 3298 2862 
Q 3072 2584 2669 2484 
Q 3125 2378 3379 2068 
Q 3634 1759 3634 1313 
Q 3634 634 3220 271 
Q 2806 -91 2034 -91 
Q 1263 -91 848 271 
Q 434 634 434 1313 
Q 434 1759 690 2068 
Q 947 2378 1403 2484 
z
M 1172 3481 
Q 1172 3119 1398 2916 
Q 1625 2713 2034 2713 
Q 2441 2713 2670 2916 
Q 2900 3119 2900 3481 
Q 2900 3844 2670 4047 
Q 2441 4250 2034 4250 
Q 1625 4250 1398 4047 
Q 1172 3844 1172 3481 
z
" transform="scale(0.015625)"/>
       </defs>
       <use xlink:href="#DejaVuSans-38"/>
       <use xlink:href="#DejaVuSans-30" transform="translate(63.623047 0)"/>
       <use xlink:href="#DejaVuSans-30" transform="translate(127.246094 0)"/>
      </g>
     </g>
    </g>
    <g id="text_10">
     <!-- Epochs -->
     <g transform="translate(317.590625 604.994688) scale(0.1 -0.1)">
      <defs>
       <path id="DejaVuSans-45" d="M 628 4666 
L 3578 4666 
L 3578 4134 
L 1259 4134 
L 1259 2753 
L 3481 2753 
L 3481 2222 
L 1259 2222 
L 1259 531 
L 3634 531 
L 3634 0 
L 628 0 
L 628 4666 
z
" transform="scale(0.015625)"/>
       <path id="DejaVuSans-70" d="M 1159 525 
L 1159 -1331 
L 581 -1331 
L 581 3500 
L 1159 3500 
L 1159 2969 
Q 1341 3281 1617 3432 
Q 1894 3584 2278 3584 
Q 2916 3584 3314 3078 
Q 3713 2572 3713 1747 
Q 3713 922 3314 415 
Q 2916 -91 2278 -91 
Q 1894 -91 1617 61 
Q 1341 213 1159 525 
z
M 3116 1747 
Q 3116 2381 2855 2742 
Q 2594 3103 2138 3103 
Q 1681 3103 1420 2742 
Q 1159 2381 1159 1747 
Q 1159 1113 1420 752 
Q 1681 391 2138 391 
Q 2594 391 2855 752 
Q 3116 1113 3116 1747 
z
" transform="scale(0.015625)"/>
       <path id="DejaVuSans-6f" d="M 1959 3097 
Q 1497 3097 1228 2736 
Q 959 2375 959 1747 
Q 959 1119 1226 758 
Q 1494 397 1959 397 
Q 2419 397 2687 759 
Q 2956 1122 2956 1747 
Q 2956 2369 2687 2733 
Q 2419 3097 1959 3097 
z
M 1959 3584 
Q 2709 3584 3137 3096 
Q 3566 2609 3566 1747 
Q 3566 888 3137 398 
Q 2709 -91 1959 -91 
Q 1206 -91 779 398 
Q 353 888 353 1747 
Q 353 2609 779 3096 
Q 1206 3584 1959 3584 
z
" transform="scale(0.015625)"/>
       <path id="DejaVuSans-63" d="M 3122 3366 
L 3122 2828 
Q 2878 2963 2633 3030 
Q 2388 3097 2138 3097 
Q 1578 3097 1268 2742 
Q 959 2388 959 1747 
Q 959 1106 1268 751 
Q 1578 397 2138 397 
Q 2388 397 2633 464 
Q 2878 531 3122 666 
L 3122 134 
Q 2881 22 2623 -34 
Q 2366 -91 2075 -91 
Q 1284 -91 818 406 
Q 353 903 353 1747 
Q 353 2603 823 3093 
Q 1294 3584 2113 3584 
Q 2378 3584 2631 3529 
Q 2884 3475 3122 3366 
z
" transform="scale(0.015625)"/>
       <path id="DejaVuSans-68" d="M 3513 2113 
L 3513 0 
L 2938 0 
L 2938 2094 
Q 2938 2591 2744 2837 
Q 2550 3084 2163 3084 
Q 1697 3084 1428 2787 
Q 1159 2491 1159 1978 
L 1159 0 
L 581 0 
L 581 4863 
L 1159 4863 
L 1159 2956 
Q 1366 3272 1645 3428 
Q 1925 3584 2291 3584 
Q 2894 3584 3203 3211 
Q 3513 2838 3513 2113 
z
" transform="scale(0.015625)"/>
       <path id="DejaVuSans-73" d="M 2834 3397 
L 2834 2853 
Q 2591 2978 2328 3040 
Q 2066 3103 1784 3103 
Q 1356 3103 1142 2972 
Q 928 2841 928 2578 
Q 928 2378 1081 2264 
Q 1234 2150 1697 2047 
L 1894 2003 
Q 2506 1872 2764 1633 
Q 3022 1394 3022 966 
Q 3022 478 2636 193 
Q 2250 -91 1575 -91 
Q 1294 -91 989 -36 
Q 684 19 347 128 
L 347 722 
Q 666 556 975 473 
Q 1284 391 1588 391 
Q 1994 391 2212 530 
Q 2431 669 2431 922 
Q 2431 1156 2273 1281 
Q 2116 1406 1581 1522 
L 1381 1569 
Q 847 1681 609 1914 
Q 372 2147 372 2553 
Q 372 3047 722 3315 
Q 1072 3584 1716 3584 
Q 2034 3584 2315 3537 
Q 2597 3491 2834 3397 
z
" transform="scale(0.015625)"/>
      </defs>
      <use xlink:href="#DejaVuSans-45"/>
      <use xlink:href="#DejaVuSans-70" transform="translate(63.183594 0)"/>
      <use xlink:href="#DejaVuSans-6f" transform="translate(126.660156 0)"/>
      <use xlink:href="#DejaVuSans-63" transform="translate(187.841797 0)"/>
      <use xlink:href="#DejaVuSans-68" transform="translate(242.822266 0)"/>
      <use xlink:href="#DejaVuSans-73" transform="translate(306.201172 0)"/>
     </g>
    </g>
   </g>
   <g id="matplotlib.axis_2">
    <g id="ytick_1">
     <g id="line2d_19">
      <path d="M 56.50625 562.656431 
L 614.50625 562.656431 
" clip-path="url(#p87a53ec60a)" style="fill: none; stroke: #b0b0b0; stroke-width: 0.8; stroke-linecap: square"/>
     </g>
     <g id="line2d_20">
      <defs>
       <path id="m4e3500504d" d="M 0 0 
L -3.5 0 
" style="stroke: #000000; stroke-width: 0.8"/>
      </defs>
      <g>
       <use xlink:href="#m4e3500504d" x="56.50625" y="562.656431" style="stroke: #000000; stroke-width: 0.8"/>
      </g>
     </g>
     <g id="text_11">
      <!-- 0.000 -->
      <g transform="translate(20.878125 566.45565) scale(0.1 -0.1)">
       <defs>
        <path id="DejaVuSans-2e" d="M 684 794 
L 1344 794 
L 1344 0 
L 684 0 
L 684 794 
z
" transform="scale(0.015625)"/>
       </defs>
       <use xlink:href="#DejaVuSans-30"/>
       <use xlink:href="#DejaVuSans-2e" transform="translate(63.623047 0)"/>
       <use xlink:href="#DejaVuSans-30" transform="translate(95.410156 0)"/>
       <use xlink:href="#DejaVuSans-30" transform="translate(159.033203 0)"/>
       <use xlink:href="#DejaVuSans-30" transform="translate(222.65625 0)"/>
      </g>
     </g>
    </g>
    <g id="ytick_2">
     <g id="line2d_21">
      <path d="M 56.50625 487.397605 
L 614.50625 487.397605 
" clip-path="url(#p87a53ec60a)" style="fill: none; stroke: #b0b0b0; stroke-width: 0.8; stroke-linecap: square"/>
     </g>
     <g id="line2d_22">
      <g>
       <use xlink:href="#m4e3500504d" x="56.50625" y="487.397605" style="stroke: #000000; stroke-width: 0.8"/>
      </g>
     </g>
     <g id="text_12">
      <!-- 0.025 -->
      <g transform="translate(20.878125 491.196824) scale(0.1 -0.1)">
       <use xlink:href="#DejaVuSans-30"/>
       <use xlink:href="#DejaVuSans-2e" transform="translate(63.623047 0)"/>
       <use xlink:href="#DejaVuSans-30" transform="translate(95.410156 0)"/>
       <use xlink:href="#DejaVuSans-32" transform="translate(159.033203 0)"/>
       <use xlink:href="#DejaVuSans-35" transform="translate(222.65625 0)"/>
      </g>
     </g>
    </g>
    <g id="ytick_3">
     <g id="line2d_23">
      <path d="M 56.50625 412.138779 
L 614.50625 412.138779 
" clip-path="url(#p87a53ec60a)" style="fill: none; stroke: #b0b0b0; stroke-width: 0.8; stroke-linecap: square"/>
     </g>
     <g id="line2d_24">
      <g>
       <use xlink:href="#m4e3500504d" x="56.50625" y="412.138779" style="stroke: #000000; stroke-width: 0.8"/>
      </g>
     </g>
     <g id="text_13">
      <!-- 0.050 -->
      <g transform="translate(20.878125 415.937998) scale(0.1 -0.1)">
       <use xlink:href="#DejaVuSans-30"/>
       <use xlink:href="#DejaVuSans-2e" transform="translate(63.623047 0)"/>
       <use xlink:href="#DejaVuSans-30" transform="translate(95.410156 0)"/>
       <use xlink:href="#DejaVuSans-35" transform="translate(159.033203 0)"/>
       <use xlink:href="#DejaVuSans-30" transform="translate(222.65625 0)"/>
      </g>
     </g>
    </g>
    <g id="ytick_4">
     <g id="line2d_25">
      <path d="M 56.50625 336.879953 
L 614.50625 336.879953 
" clip-path="url(#p87a53ec60a)" style="fill: none; stroke: #b0b0b0; stroke-width: 0.8; stroke-linecap: square"/>
     </g>
     <g id="line2d_26">
      <g>
       <use xlink:href="#m4e3500504d" x="56.50625" y="336.879953" style="stroke: #000000; stroke-width: 0.8"/>
      </g>
     </g>
     <g id="text_14">
      <!-- 0.075 -->
      <g transform="translate(20.878125 340.679171) scale(0.1 -0.1)">
       <use xlink:href="#DejaVuSans-30"/>
       <use xlink:href="#DejaVuSans-2e" transform="translate(63.623047 0)"/>
       <use xlink:href="#DejaVuSans-30" transform="translate(95.410156 0)"/>
       <use xlink:href="#DejaVuSans-37" transform="translate(159.033203 0)"/>
       <use xlink:href="#DejaVuSans-35" transform="translate(222.65625 0)"/>
      </g>
     </g>
    </g>
    <g id="ytick_5">
     <g id="line2d_27">
      <path d="M 56.50625 261.621126 
L 614.50625 261.621126 
" clip-path="url(#p87a53ec60a)" style="fill: none; stroke: #b0b0b0; stroke-width: 0.8; stroke-linecap: square"/>
     </g>
     <g id="line2d_28">
      <g>
       <use xlink:href="#m4e3500504d" x="56.50625" y="261.621126" style="stroke: #000000; stroke-width: 0.8"/>
      </g>
     </g>
     <g id="text_15">
      <!-- 0.100 -->
      <g transform="translate(20.878125 265.420345) scale(0.1 -0.1)">
       <use xlink:href="#DejaVuSans-30"/>
       <use xlink:href="#DejaVuSans-2e" transform="translate(63.623047 0)"/>
       <use xlink:href="#DejaVuSans-31" transform="translate(95.410156 0)"/>
       <use xlink:href="#DejaVuSans-30" transform="translate(159.033203 0)"/>
       <use xlink:href="#DejaVuSans-30" transform="translate(222.65625 0)"/>
      </g>
     </g>
    </g>
    <g id="ytick_6">
     <g id="line2d_29">
      <path d="M 56.50625 186.3623 
L 614.50625 186.3623 
" clip-path="url(#p87a53ec60a)" style="fill: none; stroke: #b0b0b0; stroke-width: 0.8; stroke-linecap: square"/>
     </g>
     <g id="line2d_30">
      <g>
       <use xlink:href="#m4e3500504d" x="56.50625" y="186.3623" style="stroke: #000000; stroke-width: 0.8"/>
      </g>
     </g>
     <g id="text_16">
      <!-- 0.125 -->
      <g transform="translate(20.878125 190.161519) scale(0.1 -0.1)">
       <use xlink:href="#DejaVuSans-30"/>
       <use xlink:href="#DejaVuSans-2e" transform="translate(63.623047 0)"/>
       <use xlink:href="#DejaVuSans-31" transform="translate(95.410156 0)"/>
       <use xlink:href="#DejaVuSans-32" transform="translate(159.033203 0)"/>
       <use xlink:href="#DejaVuSans-35" transform="translate(222.65625 0)"/>
      </g>
     </g>
    </g>
    <g id="ytick_7">
     <g id="line2d_31">
      <path d="M 56.50625 111.103474 
L 614.50625 111.103474 
" clip-path="url(#p87a53ec60a)" style="fill: none; stroke: #b0b0b0; stroke-width: 0.8; stroke-linecap: square"/>
     </g>
     <g id="line2d_32">
      <g>
       <use xlink:href="#m4e3500504d" x="56.50625" y="111.103474" style="stroke: #000000; stroke-width: 0.8"/>
      </g>
     </g>
     <g id="text_17">
      <!-- 0.150 -->
      <g transform="translate(20.878125 114.902693) scale(0.1 -0.1)">
       <use xlink:href="#DejaVuSans-30"/>
       <use xlink:href="#DejaVuSans-2e" transform="translate(63.623047 0)"/>
       <use xlink:href="#DejaVuSans-31" transform="translate(95.410156 0)"/>
       <use xlink:href="#DejaVuSans-35" transform="translate(159.033203 0)"/>
       <use xlink:href="#DejaVuSans-30" transform="translate(222.65625 0)"/>
      </g>
     </g>
    </g>
    <g id="ytick_8">
     <g id="line2d_33">
      <path d="M 56.50625 35.844648 
L 614.50625 35.844648 
" clip-path="url(#p87a53ec60a)" style="fill: none; stroke: #b0b0b0; stroke-width: 0.8; stroke-linecap: square"/>
     </g>
     <g id="line2d_34">
      <g>
       <use xlink:href="#m4e3500504d" x="56.50625" y="35.844648" style="stroke: #000000; stroke-width: 0.8"/>
      </g>
     </g>
     <g id="text_18">
      <!-- 0.175 -->
      <g transform="translate(20.878125 39.643866) scale(0.1 -0.1)">
       <use xlink:href="#DejaVuSans-30"/>
       <use xlink:href="#DejaVuSans-2e" transform="translate(63.623047 0)"/>
       <use xlink:href="#DejaVuSans-31" transform="translate(95.410156 0)"/>
       <use xlink:href="#DejaVuSans-37" transform="translate(159.033203 0)"/>
       <use xlink:href="#DejaVuSans-35" transform="translate(222.65625 0)"/>
      </g>
     </g>
    </g>
    <g id="text_19">
     <!-- Accuracy -->
     <g transform="translate(14.798437 322.34625) rotate(-90) scale(0.1 -0.1)">
      <defs>
       <path id="DejaVuSans-41" d="M 2188 4044 
L 1331 1722 
L 3047 1722 
L 2188 4044 
z
M 1831 4666 
L 2547 4666 
L 4325 0 
L 3669 0 
L 3244 1197 
L 1141 1197 
L 716 0 
L 50 0 
L 1831 4666 
z
" transform="scale(0.015625)"/>
       <path id="DejaVuSans-75" d="M 544 1381 
L 544 3500 
L 1119 3500 
L 1119 1403 
Q 1119 906 1312 657 
Q 1506 409 1894 409 
Q 2359 409 2629 706 
Q 2900 1003 2900 1516 
L 2900 3500 
L 3475 3500 
L 3475 0 
L 2900 0 
L 2900 538 
Q 2691 219 2414 64 
Q 2138 -91 1772 -91 
Q 1169 -91 856 284 
Q 544 659 544 1381 
z
M 1991 3584 
L 1991 3584 
z
" transform="scale(0.015625)"/>
       <path id="DejaVuSans-72" d="M 2631 2963 
Q 2534 3019 2420 3045 
Q 2306 3072 2169 3072 
Q 1681 3072 1420 2755 
Q 1159 2438 1159 1844 
L 1159 0 
L 581 0 
L 581 3500 
L 1159 3500 
L 1159 2956 
Q 1341 3275 1631 3429 
Q 1922 3584 2338 3584 
Q 2397 3584 2469 3576 
Q 2541 3569 2628 3553 
L 2631 2963 
z
" transform="scale(0.015625)"/>
       <path id="DejaVuSans-61" d="M 2194 1759 
Q 1497 1759 1228 1600 
Q 959 1441 959 1056 
Q 959 750 1161 570 
Q 1363 391 1709 391 
Q 2188 391 2477 730 
Q 2766 1069 2766 1631 
L 2766 1759 
L 2194 1759 
z
M 3341 1997 
L 3341 0 
L 2766 0 
L 2766 531 
Q 2569 213 2275 61 
Q 1981 -91 1556 -91 
Q 1019 -91 701 211 
Q 384 513 384 1019 
Q 384 1609 779 1909 
Q 1175 2209 1959 2209 
L 2766 2209 
L 2766 2266 
Q 2766 2663 2505 2880 
Q 2244 3097 1772 3097 
Q 1472 3097 1187 3025 
Q 903 2953 641 2809 
L 641 3341 
Q 956 3463 1253 3523 
Q 1550 3584 1831 3584 
Q 2591 3584 2966 3190 
Q 3341 2797 3341 1997 
z
" transform="scale(0.015625)"/>
       <path id="DejaVuSans-79" d="M 2059 -325 
Q 1816 -950 1584 -1140 
Q 1353 -1331 966 -1331 
L 506 -1331 
L 506 -850 
L 844 -850 
Q 1081 -850 1212 -737 
Q 1344 -625 1503 -206 
L 1606 56 
L 191 3500 
L 800 3500 
L 1894 763 
L 2988 3500 
L 3597 3500 
L 2059 -325 
z
" transform="scale(0.015625)"/>
      </defs>
      <use xlink:href="#DejaVuSans-41"/>
      <use xlink:href="#DejaVuSans-63" transform="translate(66.658203 0)"/>
      <use xlink:href="#DejaVuSans-63" transform="translate(121.638672 0)"/>
      <use xlink:href="#DejaVuSans-75" transform="translate(176.619141 0)"/>
      <use xlink:href="#DejaVuSans-72" transform="translate(239.998047 0)"/>
      <use xlink:href="#DejaVuSans-61" transform="translate(281.111328 0)"/>
      <use xlink:href="#DejaVuSans-63" transform="translate(342.390625 0)"/>
      <use xlink:href="#DejaVuSans-79" transform="translate(397.371094 0)"/>
     </g>
    </g>
   </g>
   <g id="line2d_35">
    <path d="M 81.869886 550.932778 
L 82.504771 549.745361 
L 83.139655 548.290358 
L 83.77454 547.771907 
L 85.044309 546.283455 
L 86.948962 543.707931 
L 87.583847 543.590862 
L 88.218732 542.236204 
L 88.853616 542.135858 
L 89.488501 540.98189 
L 90.123385 540.797924 
L 91.393154 539.393092 
L 92.028039 538.958264 
L 93.297808 536.968085 
L 93.932692 536.533256 
L 95.202461 535.061529 
L 96.47223 533.907561 
L 97.107115 532.770316 
L 97.741999 532.619798 
L 98.376884 531.231689 
L 99.011768 531.482553 
L 99.646653 530.696516 
L 100.281537 530.211514 
L 101.551306 528.572544 
L 102.186191 528.087545 
L 103.45596 525.846504 
L 104.090844 525.127364 
L 104.725729 524.659086 
L 105.995498 521.882873 
L 106.630382 522.267528 
L 107.265267 521.063386 
L 107.900151 520.862695 
L 108.535036 520.411143 
L 109.16992 518.95614 
L 109.804805 518.404241 
L 110.43969 518.270447 
L 111.074574 517.885792 
L 111.709459 515.845442 
L 112.344343 514.658027 
L 112.979228 514.540954 
L 113.614112 514.072678 
L 114.883881 511.965429 
L 115.518766 511.112498 
L 116.15365 510.644222 
L 116.788535 508.72094 
L 117.423419 508.553699 
L 118.693188 506.563518 
L 119.328073 504.891103 
L 120.597842 503.870925 
L 121.232726 502.583166 
L 121.867611 500.944192 
L 122.502495 500.37557 
L 123.13738 499.154704 
L 123.772264 498.853669 
L 124.407149 497.214701 
L 125.042033 497.348495 
L 125.676918 495.843316 
L 126.946687 493.953486 
L 127.581571 492.649 
L 128.216456 492.230893 
L 128.85134 490.391231 
L 129.486225 491.026753 
L 130.121109 489.437953 
L 130.755994 488.317435 
L 131.390879 488.85261 
L 132.025763 486.962775 
L 132.660648 486.57812 
L 133.295532 484.955873 
L 133.930417 484.822079 
L 134.565301 482.86535 
L 136.469955 481.393623 
L 137.104839 480.373446 
L 137.739724 480.490519 
L 138.374608 478.416717 
L 139.009493 477.764474 
L 139.644377 476.94499 
L 140.279262 476.510161 
L 141.549031 474.118604 
L 142.183915 473.533255 
L 142.8188 472.579977 
L 143.453684 471.041356 
L 144.088569 470.606527 
L 144.723453 470.95773 
L 145.993222 467.830309 
L 146.628107 467.144624 
L 147.262991 467.060998 
L 147.897876 464.702893 
L 148.53276 464.903576 
L 149.167645 463.180982 
L 149.802529 462.177536 
L 150.437414 462.829779 
L 151.072298 462.09391 
L 151.707183 459.785979 
L 152.342067 459.936499 
L 152.976952 459.183909 
L 153.611837 457.795797 
L 154.881606 455.755453 
L 155.51649 455.972867 
L 156.151375 454.551314 
L 157.421144 453.497684 
L 158.056028 451.858716 
L 158.690913 451.055953 
L 159.325797 450.604403 
L 159.960682 448.798195 
L 160.595566 448.915262 
L 161.230451 447.510429 
L 161.865335 445.319554 
L 162.50022 445.620594 
L 163.135104 444.65059 
L 164.404873 443.362825 
L 165.039758 441.62351 
L 165.674642 440.653506 
L 166.309527 440.653506 
L 167.579296 438.479363 
L 168.21418 437.375571 
L 168.849065 437.659879 
L 170.118834 434.248144 
L 170.753718 435.552641 
L 171.388603 434.616079 
L 172.023487 432.575735 
L 172.658372 432.391762 
L 173.293256 430.200898 
L 173.928141 429.682443 
L 174.563026 428.913133 
L 175.19791 428.56193 
L 175.832795 426.28744 
L 176.467679 426.454681 
L 177.102564 426.15364 
L 177.737448 424.548125 
L 178.372333 424.397605 
L 179.007217 422.591396 
L 180.276986 421.571219 
L 180.911871 419.530864 
L 181.546755 419.982424 
L 182.816524 419.096035 
L 183.451409 416.955344 
L 184.086293 416.604131 
L 184.721178 414.864816 
L 185.356062 414.128958 
L 185.990947 412.857914 
L 186.625831 413.610503 
L 187.260716 412.372923 
L 187.8956 411.553428 
L 188.530485 409.964633 
L 189.165369 409.329111 
L 189.800254 408.225319 
L 190.435138 408.242039 
L 191.070023 406.603072 
L 191.704907 407.054632 
L 192.339792 405.432385 
L 192.974676 403.24151 
L 193.609561 404.244967 
L 194.244445 403.24151 
L 194.87933 401.284781 
L 195.514215 400.097362 
L 196.149099 401.000472 
L 196.783984 399.210984 
L 197.418868 399.662534 
L 198.053753 398.592194 
L 198.688637 397.889778 
L 199.323522 395.2139 
L 199.958406 395.916317 
L 200.593291 395.765808 
L 201.228175 393.558212 
L 201.86306 394.043214 
L 202.497944 391.752003 
L 203.132829 391.517857 
L 205.037482 388.69147 
L 205.672367 387.470611 
L 206.307251 388.373709 
L 207.57702 385.463708 
L 208.211905 384.961985 
L 208.846789 385.313188 
L 210.116558 382.603869 
L 210.751443 381.516798 
L 211.386327 381.232489 
L 212.656096 379.409548 
L 213.290981 379.643695 
L 213.925865 378.054889 
L 214.56075 376.967817 
L 215.195634 377.084885 
L 215.830519 375.930919 
L 216.465403 376.09816 
L 217.100288 374.325404 
L 217.735173 373.940749 
L 218.370057 372.351954 
L 219.004942 370.127638 
L 219.639826 371.064178 
L 220.274711 370.345041 
L 220.909595 368.873325 
L 221.54448 369.876771 
L 222.179364 367.067105 
L 222.814249 366.582103 
L 223.449133 364.976577 
L 224.084018 366.347968 
L 224.718902 363.906226 
L 225.988671 363.320877 
L 227.25844 360.578117 
L 227.893325 360.243635 
L 228.528209 360.695195 
L 229.163094 360.093115 
L 229.797978 358.97259 
L 230.432863 357.149661 
L 231.067747 356.547602 
L 231.702632 356.765006 
L 232.337516 355.343441 
L 232.972401 356.012427 
L 233.607285 353.102415 
L 234.24217 353.236203 
L 234.877054 351.864812 
L 235.511939 352.032064 
L 236.146823 349.222398 
L 237.416592 349.874652 
L 238.051477 348.202221 
L 238.686362 347.633604 
L 239.321246 346.028077 
L 239.956131 346.462906 
L 240.591015 345.45946 
L 241.2259 344.890844 
L 241.860784 342.666527 
L 242.495669 342.967545 
L 243.130553 341.780138 
L 243.765438 341.412214 
L 244.400322 339.907035 
L 245.670091 338.067373 
L 246.304976 339.472206 
L 246.93986 336.478579 
L 247.574745 336.729446 
L 248.209629 335.776151 
L 248.844514 334.187357 
L 249.479398 335.926671 
L 250.114283 332.147002 
L 250.749167 333.066832 
L 251.384052 331.377691 
L 252.018936 330.441151 
L 252.653821 329.972858 
L 253.288705 330.775633 
L 253.92359 328.568026 
L 254.558474 327.965967 
L 255.193359 327.631485 
L 255.828243 325.942344 
L 256.463128 326.326999 
L 257.098012 323.567507 
L 257.732897 324.386991 
L 258.367781 323.751469 
L 259.63755 321.276285 
L 260.272435 321.828193 
L 260.90732 319.771106 
L 261.542204 320.389918 
L 262.177089 319.95509 
L 262.811973 317.061787 
L 263.446858 317.312654 
L 264.081742 316.610249 
L 264.716627 315.623513 
L 265.351511 313.031273 
L 265.986396 314.001277 
L 266.62128 312.144883 
L 267.256165 312.412482 
L 267.891049 311.459188 
L 268.525934 310.020914 
L 269.160818 308.933831 
L 269.795703 309.82022 
L 270.430587 308.499002 
L 271.065472 307.980559 
L 271.700356 307.729692 
L 272.335241 304.836411 
L 272.970125 304.552103 
L 273.60501 303.29779 
L 274.239894 303.582099 
L 274.874779 302.428133 
L 275.509663 301.692264 
L 276.144548 302.076919 
L 276.779432 300.504857 
L 277.414317 300.588471 
L 278.049201 299.116756 
L 278.684086 298.347423 
L 279.31897 298.782251 
L 280.588739 295.721741 
L 281.223624 295.989318 
L 281.858509 294.684832 
L 282.493393 294.367082 
L 283.128278 294.250003 
L 283.763162 292.828461 
L 284.398047 292.560862 
L 285.667816 290.537239 
L 286.3027 290.503797 
L 286.937585 288.547057 
L 287.572469 289.48362 
L 288.207354 287.610517 
L 288.842238 287.761015 
L 289.477123 286.991704 
L 290.112007 285.720682 
L 290.746892 284.784119 
L 291.381776 284.46637 
L 292.651545 282.66015 
L 293.28643 283.57998 
L 293.921314 282.225321 
L 294.556199 281.807224 
L 295.191083 282.124974 
L 295.825968 280.385659 
L 296.460852 278.980827 
L 297.095737 278.111169 
L 297.730621 279.064442 
L 298.365506 276.957204 
L 299.00039 276.254776 
L 300.270159 275.284794 
L 300.905044 274.967022 
L 301.539928 274.01375 
L 302.174813 273.86323 
L 302.809697 272.97684 
L 303.444582 271.822875 
L 304.079467 272.391491 
L 304.714351 271.304431 
L 305.349236 269.581848 
L 305.98412 269.330981 
L 306.619005 267.65855 
L 307.253889 267.942858 
L 307.888774 267.290626 
L 308.523658 265.852352 
L 309.158543 266.170102 
L 309.793427 264.982695 
L 310.428312 265.333886 
L 311.063196 263.527689 
L 311.698081 264.012691 
L 312.332965 261.871989 
L 312.96785 261.320081 
L 314.237619 260.500598 
L 314.872503 259.212843 
L 315.507388 258.309745 
L 316.142272 258.293013 
L 316.777157 257.105606 
L 317.412041 258.209398 
L 318.046926 255.851293 
L 318.68181 256.921621 
L 319.316695 254.948172 
L 319.951579 253.643686 
L 320.586464 253.944726 
L 321.221348 253.827647 
L 321.856233 252.757319 
L 322.491117 251.352486 
L 323.760886 250.36575 
L 324.395771 250.332309 
L 325.030656 248.894012 
L 325.66554 249.211784 
L 326.935309 247.037641 
L 327.570194 247.054373 
L 328.205078 246.786774 
L 328.839963 245.716423 
L 329.474847 245.415383 
L 330.109732 242.706064 
L 330.744616 243.742973 
L 331.379501 243.174357 
L 332.014385 242.338141 
L 332.64927 240.749346 
L 333.284154 241.802965 
L 333.919039 240.297786 
L 334.553923 239.91313 
L 335.188808 239.260899 
L 335.823692 238.792606 
L 336.458577 236.217098 
L 337.093461 239.311072 
L 337.728346 236.919503 
L 338.36323 235.732096 
L 338.998115 236.066578 
L 340.267884 233.725182 
L 340.902768 234.160011 
L 341.537653 234.109838 
L 342.807422 232.403987 
L 343.442306 231.450692 
L 344.077191 230.129497 
L 344.712075 229.795015 
L 345.34696 228.674491 
L 345.981844 228.340009 
L 346.616729 229.611031 
L 347.251614 226.968617 
L 347.886498 227.537234 
L 349.156267 225.145688 
L 349.791152 225.045341 
L 351.060921 225.262744 
L 351.695805 223.389641 
L 352.33069 222.419637 
L 352.965574 222.754119 
L 353.600459 221.733942 
L 354.235343 221.282403 
L 354.870228 219.158434 
L 355.505112 219.42601 
L 356.139997 218.974449 
L 356.774881 218.924276 
L 357.409766 219.158434 
L 358.679535 216.114633 
L 359.314419 216.566171 
L 359.949304 216.014286 
L 360.584188 215.211512 
L 361.219073 214.860298 
L 363.123726 212.251326 
L 364.393495 212.619272 
L 365.02838 211.147534 
L 365.663264 210.177529 
L 366.298149 210.244435 
L 366.933033 209.776165 
L 367.567918 206.732364 
L 368.202803 207.484943 
L 368.837687 207.367864 
L 369.472572 206.514939 
L 370.107456 203.972872 
L 370.742341 206.096842 
L 371.377225 205.360973 
L 372.01211 203.889235 
L 372.646994 204.457874 
L 373.916763 202.568039 
L 374.551648 200.979245 
L 375.186532 202.266999 
L 375.821417 201.547862 
L 376.456301 201.230089 
L 377.091186 199.25664 
L 378.360955 198.102674 
L 378.995839 197.249748 
L 379.630724 196.028877 
L 380.265608 197.416978 
L 380.900493 196.329918 
L 382.170262 195.042141 
L 382.805146 193.50352 
L 383.440031 193.419905 
L 384.074915 193.001809 
L 384.7098 193.219212 
L 385.344684 191.747496 
L 385.979569 191.981631 
L 386.614453 190.008181 
L 387.249338 188.854193 
L 387.884222 190.543357 
L 388.519107 189.891103 
L 389.153991 187.800574 
L 389.788876 187.499534 
L 390.423761 187.432651 
L 391.058645 186.562994 
L 391.69353 184.723332 
L 392.328414 187.081437 
L 392.963299 183.251594 
L 393.598183 185.074524 
L 394.233068 183.151247 
L 394.867952 182.315054 
L 395.502837 181.830052 
L 396.137721 181.947131 
L 396.772606 180.692818 
L 397.40749 180.575739 
L 398.042375 180.659354 
L 398.677259 180.458661 
L 399.312144 179.154197 
L 399.947028 179.187616 
L 400.581913 178.75281 
L 401.216797 175.357795 
L 401.851682 179.204348 
L 402.486566 176.913148 
L 403.121451 175.474874 
L 403.756335 176.110374 
L 404.39122 174.555021 
L 405.026104 174.187098 
L 405.660989 173.534866 
L 406.295873 173.819174 
L 406.930758 172.196938 
L 407.565642 171.845702 
L 408.200527 172.012932 
L 408.835411 170.574658 
L 409.470296 170.12312 
L 410.10518 170.357277 
L 410.740065 171.109856 
L 411.37495 168.969154 
L 412.009834 167.764992 
L 412.644719 168.551035 
L 413.279603 167.029146 
L 413.914488 167.731573 
L 414.549372 166.828452 
L 415.184257 167.748305 
L 415.819141 165.507256 
L 416.454026 163.834825 
L 417.08891 163.082246 
L 417.723795 164.269676 
L 418.993564 161.342932 
L 419.628448 161.476697 
L 420.263333 162.580512 
L 420.898217 162.998631 
L 421.533102 159.938076 
L 422.167986 161.125506 
L 423.437755 158.600149 
L 424.07264 159.469806 
L 425.342409 157.496379 
L 425.977293 157.061528 
L 426.612178 155.7236 
L 427.247062 155.188403 
L 427.881947 153.900671 
L 428.516831 154.636518 
L 429.151716 153.716709 
L 429.7866 154.48602 
L 430.421485 154.101365 
L 431.056369 152.646358 
L 431.691254 152.311854 
L 432.326138 153.164779 
L 432.961023 152.127892 
L 433.595908 152.964086 
L 434.230792 151.977395 
L 434.865677 151.425465 
L 435.500561 150.422042 
L 436.135446 150.388578 
L 436.77033 147.796338 
L 437.405215 147.26114 
L 438.040099 148.431838 
L 438.674984 146.92668 
L 439.309868 147.311336 
L 439.944753 147.394951 
L 440.579637 146.441678 
L 441.214522 146.291136 
L 442.484291 143.665477 
L 443.119175 144.96994 
L 444.388944 143.682164 
L 445.023829 141.675273 
L 445.658713 142.277353 
L 446.293598 142.628545 
L 446.928482 142.193739 
L 447.563367 142.24389 
L 448.198251 141.658541 
L 448.833136 140.203535 
L 449.46802 140.604922 
L 450.102905 138.76526 
L 450.737789 138.397337 
L 451.372674 138.280258 
L 452.007558 137.243371 
L 452.642443 137.410601 
L 453.277327 136.808565 
L 453.912212 136.574408 
L 454.547097 136.724905 
L 455.181981 137.092873 
L 455.816866 134.784897 
L 456.45175 134.534052 
L 457.086635 133.614244 
L 457.721519 134.584248 
L 458.356404 133.329936 
L 458.991288 133.530584 
L 459.626173 131.891617 
L 460.261057 132.058891 
L 460.895942 132.660927 
L 461.530826 131.490274 
L 462.165711 130.085419 
L 462.800595 130.21923 
L 463.43548 129.533534 
L 464.070364 128.145411 
L 464.705249 128.195607 
L 465.340133 130.6875 
L 465.975018 127.108524 
L 466.609902 128.011645 
L 467.244787 126.790751 
L 467.879671 126.891098 
L 468.514556 128.697296 
L 469.14944 125.553171 
L 469.784325 125.41936 
L 470.419209 123.195043 
L 471.054094 123.429201 
L 471.688978 123.930935 
L 472.323863 123.245239 
L 472.958747 123.245239 
L 473.593632 122.509348 
L 474.228516 122.275235 
L 474.863401 122.475929 
L 475.498285 120.268344 
L 476.768055 119.415374 
L 477.402939 118.796606 
L 478.037824 121.087806 
L 478.672708 118.545716 
L 479.307593 118.529029 
L 479.942477 117.826602 
L 480.577362 117.625908 
L 481.212246 116.15417 
L 481.847131 115.970208 
L 482.482015 114.732628 
L 483.1169 115.38486 
L 483.751784 113.946585 
L 484.386669 113.86297 
L 485.021553 115.702632 
L 485.656438 111.989845 
L 486.291322 113.996736 
L 486.926207 112.240735 
L 487.561091 112.608658 
L 488.195976 111.404496 
L 488.83086 110.869343 
L 489.465745 110.651918 
L 490.100629 111.621922 
L 490.735514 110.033105 
L 491.370398 110.267262 
L 492.005283 109.999686 
L 492.640167 107.457597 
L 493.275052 108.996218 
L 493.909936 107.675022 
L 494.544821 106.855516 
L 495.179705 106.521057 
L 495.81459 105.985859 
L 496.449474 104.815161 
L 497.084359 105.735014 
L 500.258782 102.624308 
L 500.893666 103.075846 
L 501.528551 103.226389 
L 502.163435 102.17277 
L 502.79832 103.042427 
L 503.433204 101.604153 
L 504.068089 101.436879 
L 504.702973 100.901726 
L 505.337858 101.102419 
L 507.242511 98.376368 
L 507.877396 98.025177 
L 508.51228 98.744292 
L 509.147165 97.974981 
L 509.782049 96.871211 
L 510.416934 96.152052 
L 511.051818 94.931203 
L 511.686703 95.834279 
L 512.321587 97.205671 
L 512.956472 95.767397 
L 513.591356 95.232244 
L 514.226241 93.54308 
L 514.861125 95.516552 
L 515.49601 94.429469 
L 516.765779 92.890848 
L 517.400663 92.522925 
L 518.035548 91.619804 
L 518.670433 91.084606 
L 519.305317 92.255303 
L 519.940202 90.833761 
L 520.575086 91.168265 
L 521.209971 89.144642 
L 521.844855 87.840134 
L 522.47974 88.007364 
L 523.114624 88.024096 
L 523.749509 88.575981 
L 524.384393 88.057559 
L 525.019278 88.274985 
L 525.654162 87.371864 
L 526.289047 85.716164 
L 526.923931 86.23463 
L 527.558816 84.127347 
L 528.1937 85.247894 
L 528.828585 84.512002 
L 529.463469 84.813043 
L 530.098354 84.060464 
L 530.733238 85.063932 
L 531.368123 85.063932 
L 532.003007 82.78942 
L 532.637892 81.535107 
L 533.272776 82.053573 
L 533.907661 80.949758 
L 534.542545 81.066837 
L 535.17743 79.444601 
L 535.812314 81.836148 
L 537.082083 79.996486 
L 538.351852 77.270435 
L 538.986737 77.772169 
L 539.621621 78.959599 
L 540.256506 77.939399 
L 540.891391 77.13667 
L 541.526275 76.016123 
L 542.16116 77.086474 
L 543.430929 75.163197 
L 544.065813 74.862157 
L 544.700698 73.975768 
L 545.335582 73.557694 
L 545.970467 74.510966 
L 546.605351 71.182834 
L 547.240236 72.119419 
L 548.510005 72.63784 
L 549.144889 71.132683 
L 549.779774 71.584221 
L 550.414658 71.600953 
L 551.049543 71.266449 
L 551.684427 71.316645 
L 552.319312 68.323018 
L 552.954196 69.694409 
L 553.589081 69.543866 
L 554.223965 67.185784 
L 554.85885 68.323018 
L 555.493734 68.540443 
L 556.128619 67.035241 
L 556.763503 67.754401 
L 557.398388 66.500088 
L 558.033272 67.302818 
L 558.668157 66.483356 
L 559.303041 66.550239 
L 559.937926 64.325922 
L 560.57281 65.730778 
L 561.207695 65.32939 
L 561.84258 64.359386 
L 562.477464 64.593499 
L 563.112349 63.171957 
L 563.747233 62.954531 
L 564.382118 62.452842 
L 565.017002 61.583185 
L 565.651887 62.352495 
L 566.286771 61.6668 
L 566.921656 61.41591 
L 567.55654 58.9909 
L 568.191425 60.496102 
L 568.826309 59.057828 
L 569.461194 58.706591 
L 570.096078 59.275208 
L 570.730963 59.057828 
L 571.365847 57.652972 
L 572.000732 58.756787 
L 572.635616 57.017473 
L 573.270501 56.298313 
L 573.905385 55.813311 
L 574.54027 57.736587 
L 575.175154 56.783315 
L 575.810039 56.298313 
L 576.444923 55.361773 
L 577.079808 56.164547 
L 577.714692 54.558998 
L 578.349577 54.391769 
L 578.984461 54.057264 
L 579.619346 53.97365 
L 580.25423 55.044 
L 581.523999 52.401609 
L 582.158884 52.669186 
L 582.793768 51.180716 
L 583.428653 50.561948 
L 584.063538 49.759174 
L 584.698422 50.19398 
L 585.333307 50.344522 
L 585.968191 50.762642 
L 586.603076 49.692291 
L 587.872845 49.424669 
L 588.507729 47.651936 
L 589.142614 47.518125 
L 589.142614 47.518125 
" clip-path="url(#p87a53ec60a)" style="fill: none; stroke: #1f77b4; stroke-width: 1.5; stroke-linecap: square"/>
   </g>
   <g id="line2d_36">
    <path d="M 81.869886 551.21709 
L 83.139655 551.518125 
L 83.77454 551.21709 
L 85.044309 549.711913 
L 85.679193 549.260361 
L 86.948962 550.615019 
L 87.583847 550.163466 
L 88.218732 551.066572 
L 88.853616 550.615019 
L 89.488501 550.464501 
L 90.123385 549.410878 
L 90.75827 549.86243 
L 91.393154 550.012949 
L 92.028039 549.260361 
L 92.662923 548.959324 
L 93.297808 548.357255 
L 93.932692 550.163466 
L 94.567577 549.260361 
L 95.202461 549.260361 
L 95.837346 550.163466 
L 96.47223 548.808807 
L 97.107115 547.755184 
L 97.741999 549.260361 
L 98.376884 548.959324 
L 99.011768 549.711913 
L 99.646653 549.86243 
L 100.281537 550.163466 
L 100.916422 549.86243 
L 101.551306 549.86243 
L 102.186191 550.313984 
L 102.821075 550.012949 
L 103.45596 549.410878 
L 104.090844 548.056219 
L 104.725729 548.959324 
L 105.360613 550.765537 
L 105.995498 549.260361 
L 106.630382 550.313984 
L 107.265267 549.561395 
L 107.900151 549.561395 
L 108.535036 548.65829 
L 109.16992 549.109843 
L 109.804805 548.206736 
L 110.43969 548.959324 
L 111.074574 549.109843 
L 111.709459 549.109843 
L 112.344343 547.604666 
L 112.979228 548.056219 
L 114.248997 549.109843 
L 114.883881 548.507772 
L 115.518766 549.410878 
L 116.15365 549.260361 
L 116.788535 548.206736 
L 117.423419 548.056219 
L 118.058304 549.109843 
L 118.693188 549.109843 
L 119.328073 548.056219 
L 119.962957 548.056219 
L 121.232726 549.410878 
L 121.867611 548.959324 
L 122.502495 548.808807 
L 123.13738 547.454149 
L 123.772264 547.905701 
L 124.407149 547.905701 
L 125.042033 548.959324 
L 125.676918 548.507772 
L 126.311802 548.808807 
L 126.946687 547.905701 
L 127.581571 547.30363 
L 128.85134 548.357255 
L 129.486225 547.905701 
L 130.121109 548.959324 
L 130.755994 549.711913 
L 131.390879 546.852078 
L 132.025763 548.507772 
L 132.660648 547.905701 
L 133.295532 549.109843 
L 133.930417 548.357255 
L 134.565301 547.905701 
L 135.200186 547.905701 
L 135.83507 547.604666 
L 136.469955 547.905701 
L 137.104839 547.454149 
L 137.739724 547.454149 
L 138.374608 547.755184 
L 139.009493 547.153113 
L 139.644377 547.755184 
L 140.914146 548.357255 
L 141.549031 546.551042 
L 142.183915 547.002595 
L 142.8188 548.65829 
L 144.088569 546.250007 
L 144.723453 548.507772 
L 145.358338 548.65829 
L 145.993222 548.056219 
L 146.628107 546.852078 
L 147.262991 547.153113 
L 147.897876 547.30363 
L 148.53276 547.755184 
L 149.167645 547.002595 
L 149.802529 547.905701 
L 150.437414 548.056219 
L 151.072298 547.604666 
L 151.707183 547.905701 
L 152.342067 548.507772 
L 152.976952 547.30363 
L 153.611837 547.905701 
L 154.246721 547.905701 
L 154.881606 549.410878 
L 155.51649 547.30363 
L 156.151375 546.250007 
L 156.786259 547.454149 
L 158.056028 548.056219 
L 158.690913 547.905701 
L 159.325797 547.002595 
L 159.960682 547.002595 
L 160.595566 547.604666 
L 161.230451 546.250007 
L 161.865335 547.153113 
L 163.135104 546.551042 
L 163.769989 548.206736 
L 164.404873 545.346901 
L 165.039758 547.454149 
L 165.674642 546.09949 
L 166.309527 546.852078 
L 166.944411 546.400524 
L 167.579296 546.09949 
L 168.21418 547.002595 
L 168.849065 546.701561 
L 169.483949 546.250007 
L 170.118834 547.002595 
L 170.753718 546.09949 
L 171.388603 546.852078 
L 172.023487 546.551042 
L 172.658372 545.497419 
L 173.293256 545.346901 
L 173.928141 545.647936 
L 174.563026 547.30363 
L 175.19791 546.852078 
L 175.832795 547.30363 
L 176.467679 545.948972 
L 177.102564 545.798455 
L 177.737448 547.604666 
L 178.372333 546.400524 
L 179.007217 545.647936 
L 179.642102 546.400524 
L 180.911871 545.196384 
L 181.546755 547.002595 
L 182.18164 545.647936 
L 182.816524 546.09949 
L 183.451409 545.045866 
L 184.086293 546.09949 
L 184.721178 545.497419 
L 185.356062 546.09949 
L 185.990947 545.647936 
L 186.625831 546.250007 
L 187.260716 546.09949 
L 187.8956 545.497419 
L 188.530485 545.798455 
L 189.165369 545.045866 
L 189.800254 545.798455 
L 190.435138 543.992242 
L 191.070023 545.948972 
L 191.704907 546.551042 
L 192.339792 545.497419 
L 192.974676 545.497419 
L 193.609561 546.701561 
L 194.244445 544.594313 
L 194.87933 546.09949 
L 195.514215 545.647936 
L 196.149099 545.497419 
L 196.783984 545.948972 
L 197.418868 545.798455 
L 198.053753 546.250007 
L 198.688637 544.895348 
L 199.323522 546.250007 
L 199.958406 545.948972 
L 200.593291 545.497419 
L 201.228175 545.497419 
L 201.86306 544.594313 
L 202.497944 545.045866 
L 203.132829 546.09949 
L 203.767713 545.647936 
L 204.402598 546.701561 
L 205.037482 545.497419 
L 205.672367 545.798455 
L 206.307251 544.74483 
L 206.942136 545.196384 
L 207.57702 544.443795 
L 208.211905 545.045866 
L 208.846789 545.196384 
L 209.481674 544.594313 
L 210.116558 545.647936 
L 210.751443 543.54069 
L 211.386327 545.948972 
L 212.021212 544.594313 
L 212.656096 543.691207 
L 213.290981 545.798455 
L 213.925865 544.895348 
L 214.56075 544.443795 
L 215.195634 545.196384 
L 216.465403 544.293278 
L 217.100288 544.443795 
L 217.735173 544.443795 
L 218.370057 544.142761 
L 219.004942 544.142761 
L 219.639826 543.992242 
L 220.274711 544.443795 
L 220.909595 544.142761 
L 221.54448 544.594313 
L 222.179364 543.691207 
L 222.814249 544.594313 
L 223.449133 543.54069 
L 224.084018 544.142761 
L 224.718902 543.992242 
L 225.353787 543.239653 
L 225.988671 544.895348 
L 226.623556 543.841724 
L 227.25844 544.895348 
L 227.893325 545.497419 
L 228.528209 544.594313 
L 229.163094 544.74483 
L 229.797978 543.992242 
L 230.432863 543.691207 
L 231.067747 543.691207 
L 231.702632 544.293278 
L 232.337516 545.196384 
L 232.972401 543.390172 
L 233.607285 544.594313 
L 234.24217 544.443795 
L 234.877054 544.443795 
L 235.511939 543.841724 
L 236.146823 543.992242 
L 236.781708 544.594313 
L 237.416592 544.594313 
L 238.051477 543.390172 
L 238.686362 543.089136 
L 239.321246 544.293278 
L 239.956131 544.74483 
L 241.2259 543.841724 
L 241.860784 543.691207 
L 242.495669 544.895348 
L 243.130553 544.74483 
L 243.765438 544.443795 
L 244.400322 544.443795 
L 245.035207 544.74483 
L 245.670091 544.594313 
L 246.304976 544.895348 
L 246.93986 544.293278 
L 248.209629 544.594313 
L 248.844514 544.293278 
L 249.479398 543.691207 
L 250.114283 544.443795 
L 250.749167 544.142761 
L 251.384052 543.390172 
L 252.018936 544.594313 
L 252.653821 544.443795 
L 253.288705 543.691207 
L 253.92359 543.841724 
L 254.558474 544.443795 
L 255.193359 543.691207 
L 255.828243 543.841724 
L 256.463128 544.142761 
L 257.098012 542.788101 
L 257.732897 543.841724 
L 258.367781 543.992242 
L 259.002666 543.390172 
L 260.272435 544.74483 
L 260.90732 542.487066 
L 261.542204 544.74483 
L 262.177089 543.841724 
L 262.811973 543.54069 
L 263.446858 543.841724 
L 264.081742 543.841724 
L 264.716627 543.54069 
L 265.351511 544.293278 
L 265.986396 544.443795 
L 267.891049 545.346901 
L 268.525934 545.196384 
L 269.160818 544.74483 
L 269.795703 544.74483 
L 270.430587 546.551042 
L 271.065472 545.045866 
L 271.700356 544.74483 
L 272.335241 543.841724 
L 272.970125 543.992242 
L 273.60501 543.54069 
L 274.239894 543.992242 
L 274.874779 544.142761 
L 275.509663 543.239653 
L 276.144548 544.293278 
L 277.414317 543.992242 
L 278.049201 543.691207 
L 278.684086 544.443795 
L 279.31897 544.293278 
L 279.953855 544.594313 
L 280.588739 545.045866 
L 281.223624 545.948972 
L 281.858509 544.895348 
L 282.493393 542.788101 
L 283.128278 544.443795 
L 283.763162 545.045866 
L 284.398047 544.594313 
L 285.032931 543.992242 
L 285.667816 545.346901 
L 286.3027 543.089136 
L 286.937585 543.390172 
L 287.572469 544.594313 
L 288.207354 543.691207 
L 288.842238 543.841724 
L 289.477123 543.239653 
L 290.112007 544.443795 
L 290.746892 545.045866 
L 291.381776 544.74483 
L 292.016661 544.142761 
L 292.651545 545.196384 
L 293.28643 543.992242 
L 293.921314 544.142761 
L 294.556199 544.74483 
L 295.191083 543.841724 
L 295.825968 544.142761 
L 296.460852 543.691207 
L 297.095737 544.74483 
L 297.730621 545.196384 
L 298.365506 543.992242 
L 299.00039 543.691207 
L 299.635275 544.74483 
L 300.270159 544.293278 
L 300.905044 544.443795 
L 301.539928 543.239653 
L 302.174813 543.089136 
L 302.809697 543.691207 
L 303.444582 543.992242 
L 305.349236 545.647936 
L 305.98412 545.346901 
L 306.619005 543.691207 
L 307.253889 544.594313 
L 307.888774 543.992242 
L 309.158543 545.045866 
L 309.793427 544.594313 
L 310.428312 544.895348 
L 311.063196 544.142761 
L 311.698081 544.594313 
L 312.332965 545.346901 
L 312.96785 544.895348 
L 313.602734 545.346901 
L 314.237619 544.142761 
L 314.872503 543.992242 
L 315.507388 545.196384 
L 316.142272 544.895348 
L 316.777157 544.443795 
L 317.412041 545.497419 
L 318.046926 544.895348 
L 318.68181 542.788101 
L 319.316695 544.293278 
L 319.951579 544.443795 
L 320.586464 543.841724 
L 321.221348 543.992242 
L 321.856233 543.54069 
L 322.491117 544.142761 
L 323.126002 543.54069 
L 323.760886 544.293278 
L 324.395771 544.293278 
L 325.030656 543.992242 
L 325.66554 544.142761 
L 326.300425 545.798455 
L 326.935309 543.54069 
L 327.570194 544.293278 
L 328.205078 543.691207 
L 328.839963 544.74483 
L 329.474847 545.196384 
L 330.109732 545.045866 
L 330.744616 544.594313 
L 331.379501 544.443795 
L 332.014385 543.54069 
L 332.64927 543.841724 
L 333.284154 545.045866 
L 333.919039 544.142761 
L 334.553923 544.594313 
L 335.188808 545.798455 
L 336.458577 543.841724 
L 337.093461 544.895348 
L 337.728346 544.74483 
L 338.998115 544.74483 
L 339.632999 544.443795 
L 340.902768 544.443795 
L 341.537653 543.841724 
L 342.172537 544.443795 
L 342.807422 544.443795 
L 343.442306 546.09949 
L 344.077191 545.045866 
L 344.712075 545.346901 
L 345.34696 544.443795 
L 345.981844 544.74483 
L 346.616729 545.497419 
L 347.251614 543.841724 
L 347.886498 543.992242 
L 348.521383 545.647936 
L 349.156267 545.798455 
L 349.791152 545.497419 
L 350.426036 545.798455 
L 351.060921 545.497419 
L 351.695805 545.346901 
L 352.33069 544.594313 
L 352.965574 545.948972 
L 353.600459 545.196384 
L 354.235343 546.09949 
L 354.870228 546.701561 
L 355.505112 545.497419 
L 356.139997 545.196384 
L 356.774881 545.497419 
L 357.409766 544.142761 
L 358.04465 544.443795 
L 358.679535 545.497419 
L 359.314419 545.948972 
L 359.949304 545.196384 
L 361.219073 544.594313 
L 361.853957 546.250007 
L 362.488842 545.647936 
L 363.123726 545.497419 
L 363.758611 545.497419 
L 364.393495 546.400524 
L 365.02838 545.045866 
L 365.663264 545.798455 
L 366.298149 544.74483 
L 366.933033 545.346901 
L 367.567918 545.497419 
L 368.202803 544.895348 
L 368.837687 544.74483 
L 369.472572 545.196384 
L 370.107456 545.346901 
L 370.742341 545.045866 
L 371.377225 545.196384 
L 372.01211 545.196384 
L 372.646994 545.948972 
L 373.281879 544.443795 
L 373.916763 545.346901 
L 374.551648 545.948972 
L 375.186532 545.497419 
L 375.821417 545.798455 
L 376.456301 545.497419 
L 377.091186 544.142761 
L 377.72607 545.346901 
L 378.360955 546.09949 
L 378.995839 544.895348 
L 379.630724 544.895348 
L 380.265608 545.497419 
L 380.900493 545.647936 
L 381.535377 545.497419 
L 382.170262 544.895348 
L 382.805146 545.497419 
L 383.440031 544.293278 
L 384.074915 545.045866 
L 384.7098 545.346901 
L 385.344684 545.798455 
L 385.979569 545.647936 
L 386.614453 545.647936 
L 387.249338 546.09949 
L 387.884222 545.647936 
L 388.519107 545.045866 
L 389.153991 546.400524 
L 389.788876 546.400524 
L 390.423761 544.594313 
L 391.058645 545.196384 
L 391.69353 545.346901 
L 392.963299 546.852078 
L 393.598183 546.09949 
L 394.867952 546.400524 
L 395.502837 545.948972 
L 396.137721 545.647936 
L 396.772606 545.647936 
L 397.40749 547.905701 
L 398.042375 545.497419 
L 398.677259 546.701561 
L 399.312144 546.09949 
L 399.947028 544.443795 
L 400.581913 546.250007 
L 401.216797 545.346901 
L 401.851682 546.551042 
L 402.486566 544.142761 
L 403.121451 546.09949 
L 403.756335 543.992242 
L 404.39122 545.798455 
L 405.026104 544.142761 
L 405.660989 545.497419 
L 406.295873 545.346901 
L 406.930758 544.895348 
L 407.565642 545.948972 
L 408.200527 545.497419 
L 408.835411 545.196384 
L 409.470296 545.647936 
L 410.10518 545.497419 
L 410.740065 545.196384 
L 411.37495 545.647936 
L 412.009834 545.497419 
L 412.644719 546.701561 
L 413.279603 546.400524 
L 413.914488 545.497419 
L 414.549372 546.701561 
L 415.184257 545.045866 
L 415.819141 545.346901 
L 416.454026 544.594313 
L 417.08891 546.551042 
L 417.723795 547.002595 
L 418.993564 546.701561 
L 419.628448 545.497419 
L 420.263333 545.948972 
L 420.898217 546.09949 
L 421.533102 546.09949 
L 422.167986 547.153113 
L 423.437755 545.497419 
L 424.07264 546.400524 
L 424.707524 545.346901 
L 425.342409 546.701561 
L 425.977293 546.250007 
L 427.247062 546.250007 
L 428.516831 547.153113 
L 429.151716 546.09949 
L 429.7866 546.09949 
L 430.421485 545.948972 
L 431.056369 546.09949 
L 431.691254 547.002595 
L 432.326138 547.153113 
L 432.961023 546.701561 
L 433.595908 546.400524 
L 434.230792 545.948972 
L 434.865677 546.400524 
L 435.500561 546.551042 
L 436.135446 546.09949 
L 436.77033 547.604666 
L 437.405215 546.250007 
L 438.040099 546.701561 
L 438.674984 544.895348 
L 439.309868 546.400524 
L 439.944753 546.852078 
L 440.579637 545.948972 
L 441.214522 547.30363 
L 441.849406 547.30363 
L 442.484291 546.551042 
L 443.119175 546.400524 
L 443.75406 545.497419 
L 444.388944 545.497419 
L 445.023829 546.400524 
L 445.658713 546.250007 
L 446.293598 546.551042 
L 446.928482 546.551042 
L 447.563367 546.250007 
L 448.198251 545.798455 
L 448.833136 546.09949 
L 449.46802 545.798455 
L 450.102905 546.852078 
L 450.737789 546.250007 
L 451.372674 546.250007 
L 452.007558 546.701561 
L 452.642443 546.09949 
L 453.277327 547.755184 
L 453.912212 545.798455 
L 454.547097 546.250007 
L 455.181981 546.250007 
L 455.816866 545.798455 
L 456.45175 546.09949 
L 457.086635 547.604666 
L 457.721519 546.09949 
L 458.356404 545.948972 
L 458.991288 546.551042 
L 459.626173 546.09949 
L 460.895942 545.798455 
L 461.530826 546.09949 
L 462.165711 545.346901 
L 462.800595 544.895348 
L 463.43548 546.250007 
L 464.070364 546.250007 
L 464.705249 546.701561 
L 465.340133 546.551042 
L 465.975018 545.497419 
L 466.609902 545.497419 
L 467.244787 546.250007 
L 467.879671 546.09949 
L 468.514556 546.400524 
L 469.14944 546.400524 
L 469.784325 545.647936 
L 470.419209 545.948972 
L 471.054094 545.798455 
L 471.688978 544.443795 
L 472.323863 545.798455 
L 472.958747 546.09949 
L 473.593632 545.647936 
L 474.228516 546.09949 
L 474.863401 546.400524 
L 476.13317 545.798455 
L 476.768055 544.74483 
L 477.402939 545.798455 
L 478.037824 546.400524 
L 478.672708 545.948972 
L 479.307593 546.701561 
L 479.942477 545.497419 
L 480.577362 545.497419 
L 481.847131 545.798455 
L 482.482015 545.647936 
L 483.1169 546.250007 
L 483.751784 545.798455 
L 485.021553 545.497419 
L 485.656438 545.948972 
L 486.291322 546.09949 
L 486.926207 545.948972 
L 487.561091 546.400524 
L 488.195976 545.948972 
L 488.83086 546.400524 
L 489.465745 545.647936 
L 490.100629 544.443795 
L 490.735514 545.346901 
L 491.370398 545.045866 
L 492.005283 546.09949 
L 492.640167 546.551042 
L 493.275052 545.798455 
L 493.909936 545.647936 
L 494.544821 546.551042 
L 495.179705 545.798455 
L 495.81459 546.250007 
L 496.449474 545.346901 
L 497.084359 545.346901 
L 497.719244 546.400524 
L 498.354128 545.647936 
L 498.989013 545.196384 
L 499.623897 546.09949 
L 500.258782 546.400524 
L 500.893666 544.895348 
L 501.528551 545.948972 
L 502.79832 545.346901 
L 503.433204 545.647936 
L 504.068089 545.798455 
L 504.702973 545.647936 
L 505.337858 545.948972 
L 505.972742 545.647936 
L 506.607627 545.045866 
L 507.242511 546.09949 
L 507.877396 545.497419 
L 508.51228 546.852078 
L 509.147165 544.895348 
L 509.782049 546.701561 
L 510.416934 544.895348 
L 511.686703 546.400524 
L 512.321587 545.196384 
L 512.956472 546.551042 
L 513.591356 547.002595 
L 514.226241 545.948972 
L 514.861125 545.647936 
L 515.49601 545.045866 
L 516.130894 546.09949 
L 516.765779 545.346901 
L 518.035548 545.948972 
L 518.670433 546.551042 
L 519.305317 546.250007 
L 519.940202 545.647936 
L 520.575086 545.647936 
L 521.209971 545.196384 
L 521.844855 545.647936 
L 522.47974 545.497419 
L 523.749509 547.153113 
L 524.384393 545.045866 
L 525.019278 545.798455 
L 525.654162 545.798455 
L 526.289047 546.701561 
L 526.923931 545.196384 
L 527.558816 546.400524 
L 528.1937 545.798455 
L 528.828585 546.701561 
L 529.463469 545.647936 
L 530.098354 545.948972 
L 530.733238 546.09949 
L 531.368123 547.905701 
L 532.003007 546.400524 
L 532.637892 545.497419 
L 533.272776 545.948972 
L 533.907661 545.948972 
L 534.542545 547.002595 
L 535.17743 546.400524 
L 535.812314 546.701561 
L 536.447199 546.400524 
L 537.082083 545.798455 
L 537.716968 546.09949 
L 538.351852 546.250007 
L 538.986737 545.497419 
L 539.621621 547.002595 
L 540.256506 546.551042 
L 540.891391 545.948972 
L 541.526275 548.056219 
L 542.16116 547.002595 
L 542.796044 546.250007 
L 543.430929 546.852078 
L 544.065813 546.400524 
L 544.700698 546.250007 
L 545.335582 545.798455 
L 545.970467 545.798455 
L 546.605351 548.056219 
L 547.240236 546.852078 
L 547.87512 547.153113 
L 549.144889 545.647936 
L 549.779774 546.852078 
L 550.414658 546.09949 
L 551.049543 546.852078 
L 551.684427 545.647936 
L 552.319312 546.250007 
L 552.954196 547.755184 
L 553.589081 547.002595 
L 554.223965 546.551042 
L 554.85885 545.196384 
L 555.493734 547.153113 
L 556.128619 546.250007 
L 556.763503 546.250007 
L 557.398388 547.454149 
L 558.033272 547.30363 
L 558.668157 546.09949 
L 559.303041 546.701561 
L 559.937926 546.09949 
L 560.57281 547.153113 
L 561.84258 546.250007 
L 562.477464 547.454149 
L 563.112349 548.959324 
L 563.747233 546.09949 
L 564.382118 546.400524 
L 565.017002 547.002595 
L 565.651887 547.002595 
L 566.286771 548.056219 
L 566.921656 547.905701 
L 567.55654 547.905701 
L 568.191425 546.852078 
L 568.826309 547.454149 
L 569.461194 547.30363 
L 570.096078 546.852078 
L 570.730963 547.30363 
L 571.365847 547.153113 
L 572.000732 547.30363 
L 572.635616 547.755184 
L 573.270501 547.002595 
L 573.905385 547.454149 
L 574.54027 547.755184 
L 575.175154 547.454149 
L 575.810039 546.701561 
L 576.444923 547.153113 
L 577.079808 547.755184 
L 577.714692 546.551042 
L 578.349577 547.002595 
L 578.984461 547.30363 
L 579.619346 547.755184 
L 580.25423 547.002595 
L 580.889115 546.701561 
L 581.523999 547.30363 
L 582.793768 547.002595 
L 583.428653 547.153113 
L 584.063538 546.852078 
L 584.698422 546.400524 
L 585.333307 547.454149 
L 585.968191 547.604666 
L 586.603076 548.206736 
L 587.23796 547.30363 
L 587.872845 547.30363 
L 588.507729 547.454149 
L 589.142614 547.002595 
L 589.142614 547.002595 
" clip-path="url(#p87a53ec60a)" style="fill: none; stroke: #ff7f0e; stroke-width: 1.5; stroke-linecap: square"/>
   </g>
   <g id="line2d_37">
    <path d="M 56.50625 550.89724 
L 614.50625 550.89724 
" clip-path="url(#p87a53ec60a)" style="fill: none; stroke-dasharray: 11.1,4.8; stroke-dashoffset: 0; stroke: #ff0000; stroke-width: 3"/>
   </g>
   <g id="patch_3">
    <path d="M 56.50625 576.718125 
L 56.50625 22.318125 
" style="fill: none; stroke: #000000; stroke-width: 0.8; stroke-linejoin: miter; stroke-linecap: square"/>
   </g>
   <g id="patch_4">
    <path d="M 614.50625 576.718125 
L 614.50625 22.318125 
" style="fill: none; stroke: #000000; stroke-width: 0.8; stroke-linejoin: miter; stroke-linecap: square"/>
   </g>
   <g id="patch_5">
    <path d="M 56.50625 576.718125 
L 614.50625 576.718125 
" style="fill: none; stroke: #000000; stroke-width: 0.8; stroke-linejoin: miter; stroke-linecap: square"/>
   </g>
   <g id="patch_6">
    <path d="M 56.50625 22.318125 
L 614.50625 22.318125 
" style="fill: none; stroke: #000000; stroke-width: 0.8; stroke-linejoin: miter; stroke-linecap: square"/>
   </g>
   <g id="text_20">
    <!-- Train and Val Accuracy -->
    <g transform="translate(267.727813 16.318125) scale(0.12 -0.12)">
     <defs>
      <path id="DejaVuSans-54" d="M -19 4666 
L 3928 4666 
L 3928 4134 
L 2272 4134 
L 2272 0 
L 1638 0 
L 1638 4134 
L -19 4134 
L -19 4666 
z
" transform="scale(0.015625)"/>
      <path id="DejaVuSans-69" d="M 603 3500 
L 1178 3500 
L 1178 0 
L 603 0 
L 603 3500 
z
M 603 4863 
L 1178 4863 
L 1178 4134 
L 603 4134 
L 603 4863 
z
" transform="scale(0.015625)"/>
      <path id="DejaVuSans-6e" d="M 3513 2113 
L 3513 0 
L 2938 0 
L 2938 2094 
Q 2938 2591 2744 2837 
Q 2550 3084 2163 3084 
Q 1697 3084 1428 2787 
Q 1159 2491 1159 1978 
L 1159 0 
L 581 0 
L 581 3500 
L 1159 3500 
L 1159 2956 
Q 1366 3272 1645 3428 
Q 1925 3584 2291 3584 
Q 2894 3584 3203 3211 
Q 3513 2838 3513 2113 
z
" transform="scale(0.015625)"/>
      <path id="DejaVuSans-20" transform="scale(0.015625)"/>
      <path id="DejaVuSans-64" d="M 2906 2969 
L 2906 4863 
L 3481 4863 
L 3481 0 
L 2906 0 
L 2906 525 
Q 2725 213 2448 61 
Q 2172 -91 1784 -91 
Q 1150 -91 751 415 
Q 353 922 353 1747 
Q 353 2572 751 3078 
Q 1150 3584 1784 3584 
Q 2172 3584 2448 3432 
Q 2725 3281 2906 2969 
z
M 947 1747 
Q 947 1113 1208 752 
Q 1469 391 1925 391 
Q 2381 391 2643 752 
Q 2906 1113 2906 1747 
Q 2906 2381 2643 2742 
Q 2381 3103 1925 3103 
Q 1469 3103 1208 2742 
Q 947 2381 947 1747 
z
" transform="scale(0.015625)"/>
      <path id="DejaVuSans-56" d="M 1831 0 
L 50 4666 
L 709 4666 
L 2188 738 
L 3669 4666 
L 4325 4666 
L 2547 0 
L 1831 0 
z
" transform="scale(0.015625)"/>
      <path id="DejaVuSans-6c" d="M 603 4863 
L 1178 4863 
L 1178 0 
L 603 0 
L 603 4863 
z
" transform="scale(0.015625)"/>
     </defs>
     <use xlink:href="#DejaVuSans-54"/>
     <use xlink:href="#DejaVuSans-72" transform="translate(46.333984 0)"/>
     <use xlink:href="#DejaVuSans-61" transform="translate(87.447266 0)"/>
     <use xlink:href="#DejaVuSans-69" transform="translate(148.726562 0)"/>
     <use xlink:href="#DejaVuSans-6e" transform="translate(176.509766 0)"/>
     <use xlink:href="#DejaVuSans-20" transform="translate(239.888672 0)"/>
     <use xlink:href="#DejaVuSans-61" transform="translate(271.675781 0)"/>
     <use xlink:href="#DejaVuSans-6e" transform="translate(332.955078 0)"/>
     <use xlink:href="#DejaVuSans-64" transform="translate(396.333984 0)"/>
     <use xlink:href="#DejaVuSans-20" transform="translate(459.810547 0)"/>
     <use xlink:href="#DejaVuSans-56" transform="translate(491.597656 0)"/>
     <use xlink:href="#DejaVuSans-61" transform="translate(552.255859 0)"/>
     <use xlink:href="#DejaVuSans-6c" transform="translate(613.535156 0)"/>
     <use xlink:href="#DejaVuSans-20" transform="translate(641.318359 0)"/>
     <use xlink:href="#DejaVuSans-41" transform="translate(673.105469 0)"/>
     <use xlink:href="#DejaVuSans-63" transform="translate(739.763672 0)"/>
     <use xlink:href="#DejaVuSans-63" transform="translate(794.744141 0)"/>
     <use xlink:href="#DejaVuSans-75" transform="translate(849.724609 0)"/>
     <use xlink:href="#DejaVuSans-72" transform="translate(913.103516 0)"/>
     <use xlink:href="#DejaVuSans-61" transform="translate(954.216797 0)"/>
     <use xlink:href="#DejaVuSans-63" transform="translate(1015.496094 0)"/>
     <use xlink:href="#DejaVuSans-79" transform="translate(1070.476562 0)"/>
    </g>
   </g>
   <g id="legend_1">
    <g id="patch_7">
     <path d="M 63.50625 74.90875 
L 230.629687 74.90875 
Q 232.629687 74.90875 232.629687 72.90875 
L 232.629687 29.318125 
Q 232.629687 27.318125 230.629687 27.318125 
L 63.50625 27.318125 
Q 61.50625 27.318125 61.50625 29.318125 
L 61.50625 72.90875 
Q 61.50625 74.90875 63.50625 74.90875 
z
" style="fill: #ffffff; opacity: 0.8; stroke: #cccccc; stroke-linejoin: miter"/>
    </g>
    <g id="line2d_38">
     <path d="M 65.50625 35.416562 
L 75.50625 35.416562 
L 85.50625 35.416562 
" style="fill: none; stroke: #1f77b4; stroke-width: 1.5; stroke-linecap: square"/>
    </g>
    <g id="text_21">
     <!-- train_accuracy -->
     <g transform="translate(93.50625 38.916562) scale(0.1 -0.1)">
      <defs>
       <path id="DejaVuSans-74" d="M 1172 4494 
L 1172 3500 
L 2356 3500 
L 2356 3053 
L 1172 3053 
L 1172 1153 
Q 1172 725 1289 603 
Q 1406 481 1766 481 
L 2356 481 
L 2356 0 
L 1766 0 
Q 1100 0 847 248 
Q 594 497 594 1153 
L 594 3053 
L 172 3053 
L 172 3500 
L 594 3500 
L 594 4494 
L 1172 4494 
z
" transform="scale(0.015625)"/>
       <path id="DejaVuSans-5f" d="M 3263 -1063 
L 3263 -1509 
L -63 -1509 
L -63 -1063 
L 3263 -1063 
z
" transform="scale(0.015625)"/>
      </defs>
      <use xlink:href="#DejaVuSans-74"/>
      <use xlink:href="#DejaVuSans-72" transform="translate(39.208984 0)"/>
      <use xlink:href="#DejaVuSans-61" transform="translate(80.322266 0)"/>
      <use xlink:href="#DejaVuSans-69" transform="translate(141.601562 0)"/>
      <use xlink:href="#DejaVuSans-6e" transform="translate(169.384766 0)"/>
      <use xlink:href="#DejaVuSans-5f" transform="translate(232.763672 0)"/>
      <use xlink:href="#DejaVuSans-61" transform="translate(282.763672 0)"/>
      <use xlink:href="#DejaVuSans-63" transform="translate(344.042969 0)"/>
      <use xlink:href="#DejaVuSans-63" transform="translate(399.023438 0)"/>
      <use xlink:href="#DejaVuSans-75" transform="translate(454.003906 0)"/>
      <use xlink:href="#DejaVuSans-72" transform="translate(517.382812 0)"/>
      <use xlink:href="#DejaVuSans-61" transform="translate(558.496094 0)"/>
      <use xlink:href="#DejaVuSans-63" transform="translate(619.775391 0)"/>
      <use xlink:href="#DejaVuSans-79" transform="translate(674.755859 0)"/>
     </g>
    </g>
    <g id="line2d_39">
     <path d="M 65.50625 50.372812 
L 75.50625 50.372812 
L 85.50625 50.372812 
" style="fill: none; stroke: #ff7f0e; stroke-width: 1.5; stroke-linecap: square"/>
    </g>
    <g id="text_22">
     <!-- val_accuracy -->
     <g transform="translate(93.50625 53.872812) scale(0.1 -0.1)">
      <defs>
       <path id="DejaVuSans-76" d="M 191 3500 
L 800 3500 
L 1894 563 
L 2988 3500 
L 3597 3500 
L 2284 0 
L 1503 0 
L 191 3500 
z
" transform="scale(0.015625)"/>
      </defs>
      <use xlink:href="#DejaVuSans-76"/>
      <use xlink:href="#DejaVuSans-61" transform="translate(59.179688 0)"/>
      <use xlink:href="#DejaVuSans-6c" transform="translate(120.458984 0)"/>
      <use xlink:href="#DejaVuSans-5f" transform="translate(148.242188 0)"/>
      <use xlink:href="#DejaVuSans-61" transform="translate(198.242188 0)"/>
      <use xlink:href="#DejaVuSans-63" transform="translate(259.521484 0)"/>
      <use xlink:href="#DejaVuSans-63" transform="translate(314.501953 0)"/>
      <use xlink:href="#DejaVuSans-75" transform="translate(369.482422 0)"/>
      <use xlink:href="#DejaVuSans-72" transform="translate(432.861328 0)"/>
      <use xlink:href="#DejaVuSans-61" transform="translate(473.974609 0)"/>
      <use xlink:href="#DejaVuSans-63" transform="translate(535.253906 0)"/>
      <use xlink:href="#DejaVuSans-79" transform="translate(590.234375 0)"/>
     </g>
    </g>
    <g id="line2d_40">
     <path d="M 65.50625 65.329062 
L 75.50625 65.329062 
L 85.50625 65.329062 
" style="fill: none; stroke-dasharray: 11.1,4.8; stroke-dashoffset: 0; stroke: #ff0000; stroke-width: 3"/>
    </g>
    <g id="text_23">
     <!-- Random-Guesser Accuracy -->
     <g transform="translate(93.50625 68.829062) scale(0.1 -0.1)">
      <defs>
       <path id="DejaVuSans-52" d="M 2841 2188 
Q 3044 2119 3236 1894 
Q 3428 1669 3622 1275 
L 4263 0 
L 3584 0 
L 2988 1197 
Q 2756 1666 2539 1819 
Q 2322 1972 1947 1972 
L 1259 1972 
L 1259 0 
L 628 0 
L 628 4666 
L 2053 4666 
Q 2853 4666 3247 4331 
Q 3641 3997 3641 3322 
Q 3641 2881 3436 2590 
Q 3231 2300 2841 2188 
z
M 1259 4147 
L 1259 2491 
L 2053 2491 
Q 2509 2491 2742 2702 
Q 2975 2913 2975 3322 
Q 2975 3731 2742 3939 
Q 2509 4147 2053 4147 
L 1259 4147 
z
" transform="scale(0.015625)"/>
       <path id="DejaVuSans-6d" d="M 3328 2828 
Q 3544 3216 3844 3400 
Q 4144 3584 4550 3584 
Q 5097 3584 5394 3201 
Q 5691 2819 5691 2113 
L 5691 0 
L 5113 0 
L 5113 2094 
Q 5113 2597 4934 2840 
Q 4756 3084 4391 3084 
Q 3944 3084 3684 2787 
Q 3425 2491 3425 1978 
L 3425 0 
L 2847 0 
L 2847 2094 
Q 2847 2600 2669 2842 
Q 2491 3084 2119 3084 
Q 1678 3084 1418 2786 
Q 1159 2488 1159 1978 
L 1159 0 
L 581 0 
L 581 3500 
L 1159 3500 
L 1159 2956 
Q 1356 3278 1631 3431 
Q 1906 3584 2284 3584 
Q 2666 3584 2933 3390 
Q 3200 3197 3328 2828 
z
" transform="scale(0.015625)"/>
       <path id="DejaVuSans-2d" d="M 313 2009 
L 1997 2009 
L 1997 1497 
L 313 1497 
L 313 2009 
z
" transform="scale(0.015625)"/>
       <path id="DejaVuSans-47" d="M 3809 666 
L 3809 1919 
L 2778 1919 
L 2778 2438 
L 4434 2438 
L 4434 434 
Q 4069 175 3628 42 
Q 3188 -91 2688 -91 
Q 1594 -91 976 548 
Q 359 1188 359 2328 
Q 359 3472 976 4111 
Q 1594 4750 2688 4750 
Q 3144 4750 3555 4637 
Q 3966 4525 4313 4306 
L 4313 3634 
Q 3963 3931 3569 4081 
Q 3175 4231 2741 4231 
Q 1884 4231 1454 3753 
Q 1025 3275 1025 2328 
Q 1025 1384 1454 906 
Q 1884 428 2741 428 
Q 3075 428 3337 486 
Q 3600 544 3809 666 
z
" transform="scale(0.015625)"/>
       <path id="DejaVuSans-65" d="M 3597 1894 
L 3597 1613 
L 953 1613 
Q 991 1019 1311 708 
Q 1631 397 2203 397 
Q 2534 397 2845 478 
Q 3156 559 3463 722 
L 3463 178 
Q 3153 47 2828 -22 
Q 2503 -91 2169 -91 
Q 1331 -91 842 396 
Q 353 884 353 1716 
Q 353 2575 817 3079 
Q 1281 3584 2069 3584 
Q 2775 3584 3186 3129 
Q 3597 2675 3597 1894 
z
M 3022 2063 
Q 3016 2534 2758 2815 
Q 2500 3097 2075 3097 
Q 1594 3097 1305 2825 
Q 1016 2553 972 2059 
L 3022 2063 
z
" transform="scale(0.015625)"/>
      </defs>
      <use xlink:href="#DejaVuSans-52"/>
      <use xlink:href="#DejaVuSans-61" transform="translate(67.232422 0)"/>
      <use xlink:href="#DejaVuSans-6e" transform="translate(128.511719 0)"/>
      <use xlink:href="#DejaVuSans-64" transform="translate(191.890625 0)"/>
      <use xlink:href="#DejaVuSans-6f" transform="translate(255.367188 0)"/>
      <use xlink:href="#DejaVuSans-6d" transform="translate(316.548828 0)"/>
      <use xlink:href="#DejaVuSans-2d" transform="translate(413.960938 0)"/>
      <use xlink:href="#DejaVuSans-47" transform="translate(453.669922 0)"/>
      <use xlink:href="#DejaVuSans-75" transform="translate(531.160156 0)"/>
      <use xlink:href="#DejaVuSans-65" transform="translate(594.539062 0)"/>
      <use xlink:href="#DejaVuSans-73" transform="translate(656.0625 0)"/>
      <use xlink:href="#DejaVuSans-73" transform="translate(708.162109 0)"/>
      <use xlink:href="#DejaVuSans-65" transform="translate(760.261719 0)"/>
      <use xlink:href="#DejaVuSans-72" transform="translate(821.785156 0)"/>
      <use xlink:href="#DejaVuSans-20" transform="translate(862.898438 0)"/>
      <use xlink:href="#DejaVuSans-41" transform="translate(894.685547 0)"/>
      <use xlink:href="#DejaVuSans-63" transform="translate(961.34375 0)"/>
      <use xlink:href="#DejaVuSans-63" transform="translate(1016.324219 0)"/>
      <use xlink:href="#DejaVuSans-75" transform="translate(1071.304688 0)"/>
      <use xlink:href="#DejaVuSans-72" transform="translate(1134.683594 0)"/>
      <use xlink:href="#DejaVuSans-61" transform="translate(1175.796875 0)"/>
      <use xlink:href="#DejaVuSans-63" transform="translate(1237.076172 0)"/>
      <use xlink:href="#DejaVuSans-79" transform="translate(1292.056641 0)"/>
     </g>
    </g>
   </g>
  </g>
 </g>
 <defs>
  <clipPath id="p87a53ec60a">
   <rect x="56.50625" y="22.318125" width="558" height="554.4"/>
  </clipPath>
 </defs>
</svg>
