<?xml version="1.0" encoding="utf-8" standalone="no"?>
<!DOCTYPE svg PUBLIC "-//W3C//DTD SVG 1.1//EN"
  "http://www.w3.org/Graphics/SVG/1.1/DTD/svg11.dtd">
<svg xmlns:xlink="http://www.w3.org/1999/xlink" width="608.98125pt" height="614.274375pt" viewBox="0 0 608.98125 614.274375" xmlns="http://www.w3.org/2000/svg" version="1.1">
 <metadata>
  <rdf:RDF xmlns:dc="http://purl.org/dc/elements/1.1/" xmlns:cc="http://creativecommons.org/ns#" xmlns:rdf="http://www.w3.org/1999/02/22-rdf-syntax-ns#">
   <cc:Work>
    <dc:type rdf:resource="http://purl.org/dc/dcmitype/StillImage"/>
    <dc:date>2026-05-24T19:14:22.579374</dc:date>
    <dc:format>image/svg+xml</dc:format>
    <dc:creator>
     <cc:Agent>
      <dc:title>Matplotlib v3.10.9, https://matplotlib.org/</dc:title>
     </cc:Agent>
    </dc:creator>
   </cc:Work>
  </rdf:RDF>
 </metadata>
 <defs>
  <style type="text/css">*{stroke-linejoin: round; stroke-linecap: butt}</style>
 </defs>
 <g id="figure_1">
  <g id="patch_1">
   <path d="M 0 614.274375 
L 608.98125 614.274375 
L 608.98125 0 
L 0 0 
z
" style="fill: #ffffff"/>
  </g>
  <g id="axes_1">
   <g id="patch_2">
    <path d="M 43.78125 576.718125 
L 601.78125 576.718125 
L 601.78125 22.318125 
L 43.78125 22.318125 
z
" style="fill: #ffffff"/>
   </g>
   <g id="matplotlib.axis_1">
    <g id="xtick_1">
     <g id="line2d_1">
      <path d="M 69.144886 576.718125 
L 69.144886 22.318125 
" clip-path="url(#p04410f83f0)" style="fill: none; stroke: #b0b0b0; stroke-width: 0.8; stroke-linecap: square"/>
     </g>
     <g id="line2d_2">
      <defs>
       <path id="m26ddf699d8" d="M 0 0 
L 0 3.5 
" style="stroke: #000000; stroke-width: 0.8"/>
      </defs>
      <g>
       <use xlink:href="#m26ddf699d8" x="69.144886" y="576.718125" style="stroke: #000000; stroke-width: 0.8"/>
      </g>
     </g>
     <g id="text_1">
      <!-- 0 -->
      <g transform="translate(65.963636 591.316563) scale(0.1 -0.1)">
       <defs>
        <path id="DejaVuSans-30" d="M 2034 4250 
Q 1547 4250 1301 3770 
Q 1056 3291 1056 2328 
Q 1056 1369 1301 889 
Q 1547 409 2034 409 
Q 2525 409 2770 889 
Q 3016 1369 3016 2328 
Q 3016 3291 2770 3770 
Q 2525 4250 2034 4250 
z
M 2034 4750 
Q 2819 4750 3233 4129 
Q 3647 3509 3647 2328 
Q 3647 1150 3233 529 
Q 2819 -91 2034 -91 
Q 1250 -91 836 529 
Q 422 1150 422 2328 
Q 422 3509 836 4129 
Q 1250 4750 2034 4750 
z
" transform="scale(0.015625)"/>
       </defs>
       <use xlink:href="#DejaVuSans-30"/>
      </g>
     </g>
    </g>
    <g id="xtick_2">
     <g id="line2d_3">
      <path d="M 132.633338 576.718125 
L 132.633338 22.318125 
" clip-path="url(#p04410f83f0)" style="fill: none; stroke: #b0b0b0; stroke-width: 0.8; stroke-linecap: square"/>
     </g>
     <g id="line2d_4">
      <g>
       <use xlink:href="#m26ddf699d8" x="132.633338" y="576.718125" style="stroke: #000000; stroke-width: 0.8"/>
      </g>
     </g>
     <g id="text_2">
      <!-- 100 -->
      <g transform="translate(123.089588 591.316563) scale(0.1 -0.1)">
       <defs>
        <path id="DejaVuSans-31" d="M 794 531 
L 1825 531 
L 1825 4091 
L 703 3866 
L 703 4441 
L 1819 4666 
L 2450 4666 
L 2450 531 
L 3481 531 
L 3481 0 
L 794 0 
L 794 531 
z
" transform="scale(0.015625)"/>
       </defs>
       <use xlink:href="#DejaVuSans-31"/>
       <use xlink:href="#DejaVuSans-30" transform="translate(63.623047 0)"/>
       <use xlink:href="#DejaVuSans-30" transform="translate(127.246094 0)"/>
      </g>
     </g>
    </g>
    <g id="xtick_3">
     <g id="line2d_5">
      <path d="M 196.121789 576.718125 
L 196.121789 22.318125 
" clip-path="url(#p04410f83f0)" style="fill: none; stroke: #b0b0b0; stroke-width: 0.8; stroke-linecap: square"/>
     </g>
     <g id="line2d_6">
      <g>
       <use xlink:href="#m26ddf699d8" x="196.121789" y="576.718125" style="stroke: #000000; stroke-width: 0.8"/>
      </g>
     </g>
     <g id="text_3">
      <!-- 200 -->
      <g transform="translate(186.578039 591.316563) scale(0.1 -0.1)">
       <defs>
        <path id="DejaVuSans-32" d="M 1228 531 
L 3431 531 
L 3431 0 
L 469 0 
L 469 531 
Q 828 903 1448 1529 
Q 2069 2156 2228 2338 
Q 2531 2678 2651 2914 
Q 2772 3150 2772 3378 
Q 2772 3750 2511 3984 
Q 2250 4219 1831 4219 
Q 1534 4219 1204 4116 
Q 875 4013 500 3803 
L 500 4441 
Q 881 4594 1212 4672 
Q 1544 4750 1819 4750 
Q 2544 4750 2975 4387 
Q 3406 4025 3406 3419 
Q 3406 3131 3298 2873 
Q 3191 2616 2906 2266 
Q 2828 2175 2409 1742 
Q 1991 1309 1228 531 
z
" transform="scale(0.015625)"/>
       </defs>
       <use xlink:href="#DejaVuSans-32"/>
       <use xlink:href="#DejaVuSans-30" transform="translate(63.623047 0)"/>
       <use xlink:href="#DejaVuSans-30" transform="translate(127.246094 0)"/>
      </g>
     </g>
    </g>
    <g id="xtick_4">
     <g id="line2d_7">
      <path d="M 259.610241 576.718125 
L 259.610241 22.318125 
" clip-path="url(#p04410f83f0)" style="fill: none; stroke: #b0b0b0; stroke-width: 0.8; stroke-linecap: square"/>
     </g>
     <g id="line2d_8">
      <g>
       <use xlink:href="#m26ddf699d8" x="259.610241" y="576.718125" style="stroke: #000000; stroke-width: 0.8"/>
      </g>
     </g>
     <g id="text_4">
      <!-- 300 -->
      <g transform="translate(250.066491 591.316563) scale(0.1 -0.1)">
       <defs>
        <path id="DejaVuSans-33" d="M 2597 2516 
Q 3050 2419 3304 2112 
Q 3559 1806 3559 1356 
Q 3559 666 3084 287 
Q 2609 -91 1734 -91 
Q 1441 -91 1130 -33 
Q 819 25 488 141 
L 488 750 
Q 750 597 1062 519 
Q 1375 441 1716 441 
Q 2309 441 2620 675 
Q 2931 909 2931 1356 
Q 2931 1769 2642 2001 
Q 2353 2234 1838 2234 
L 1294 2234 
L 1294 2753 
L 1863 2753 
Q 2328 2753 2575 2939 
Q 2822 3125 2822 3475 
Q 2822 3834 2567 4026 
Q 2313 4219 1838 4219 
Q 1578 4219 1281 4162 
Q 984 4106 628 3988 
L 628 4550 
Q 988 4650 1302 4700 
Q 1616 4750 1894 4750 
Q 2613 4750 3031 4423 
Q 3450 4097 3450 3541 
Q 3450 3153 3228 2886 
Q 3006 2619 2597 2516 
z
" transform="scale(0.015625)"/>
       </defs>
       <use xlink:href="#DejaVuSans-33"/>
       <use xlink:href="#DejaVuSans-30" transform="translate(63.623047 0)"/>
       <use xlink:href="#DejaVuSans-30" transform="translate(127.246094 0)"/>
      </g>
     </g>
    </g>
    <g id="xtick_5">
     <g id="line2d_9">
      <path d="M 323.098692 576.718125 
L 323.098692 22.318125 
" clip-path="url(#p04410f83f0)" style="fill: none; stroke: #b0b0b0; stroke-width: 0.8; stroke-linecap: square"/>
     </g>
     <g id="line2d_10">
      <g>
       <use xlink:href="#m26ddf699d8" x="323.098692" y="576.718125" style="stroke: #000000; stroke-width: 0.8"/>
      </g>
     </g>
     <g id="text_5">
      <!-- 400 -->
      <g transform="translate(313.554942 591.316563) scale(0.1 -0.1)">
       <defs>
        <path id="DejaVuSans-34" d="M 2419 4116 
L 825 1625 
L 2419 1625 
L 2419 4116 
z
M 2253 4666 
L 3047 4666 
L 3047 1625 
L 3713 1625 
L 3713 1100 
L 3047 1100 
L 3047 0 
L 2419 0 
L 2419 1100 
L 313 1100 
L 313 1709 
L 2253 4666 
z
" transform="scale(0.015625)"/>
       </defs>
       <use xlink:href="#DejaVuSans-34"/>
       <use xlink:href="#DejaVuSans-30" transform="translate(63.623047 0)"/>
       <use xlink:href="#DejaVuSans-30" transform="translate(127.246094 0)"/>
      </g>
     </g>
    </g>
    <g id="xtick_6">
     <g id="line2d_11">
      <path d="M 386.587144 576.718125 
L 386.587144 22.318125 
" clip-path="url(#p04410f83f0)" style="fill: none; stroke: #b0b0b0; stroke-width: 0.8; stroke-linecap: square"/>
     </g>
     <g id="line2d_12">
      <g>
       <use xlink:href="#m26ddf699d8" x="386.587144" y="576.718125" style="stroke: #000000; stroke-width: 0.8"/>
      </g>
     </g>
     <g id="text_6">
      <!-- 500 -->
      <g transform="translate(377.043394 591.316563) scale(0.1 -0.1)">
       <defs>
        <path id="DejaVuSans-35" d="M 691 4666 
L 3169 4666 
L 3169 4134 
L 1269 4134 
L 1269 2991 
Q 1406 3038 1543 3061 
Q 1681 3084 1819 3084 
Q 2600 3084 3056 2656 
Q 3513 2228 3513 1497 
Q 3513 744 3044 326 
Q 2575 -91 1722 -91 
Q 1428 -91 1123 -41 
Q 819 9 494 109 
L 494 744 
Q 775 591 1075 516 
Q 1375 441 1709 441 
Q 2250 441 2565 725 
Q 2881 1009 2881 1497 
Q 2881 1984 2565 2268 
Q 2250 2553 1709 2553 
Q 1456 2553 1204 2497 
Q 953 2441 691 2322 
L 691 4666 
z
" transform="scale(0.015625)"/>
       </defs>
       <use xlink:href="#DejaVuSans-35"/>
       <use xlink:href="#DejaVuSans-30" transform="translate(63.623047 0)"/>
       <use xlink:href="#DejaVuSans-30" transform="translate(127.246094 0)"/>
      </g>
     </g>
    </g>
    <g id="xtick_7">
     <g id="line2d_13">
      <path d="M 450.075595 576.718125 
L 450.075595 22.318125 
" clip-path="url(#p04410f83f0)" style="fill: none; stroke: #b0b0b0; stroke-width: 0.8; stroke-linecap: square"/>
     </g>
     <g id="line2d_14">
      <g>
       <use xlink:href="#m26ddf699d8" x="450.075595" y="576.718125" style="stroke: #000000; stroke-width: 0.8"/>
      </g>
     </g>
     <g id="text_7">
      <!-- 600 -->
      <g transform="translate(440.531845 591.316563) scale(0.1 -0.1)">
       <defs>
        <path id="DejaVuSans-36" d="M 2113 2584 
Q 1688 2584 1439 2293 
Q 1191 2003 1191 1497 
Q 1191 994 1439 701 
Q 1688 409 2113 409 
Q 2538 409 2786 701 
Q 3034 994 3034 1497 
Q 3034 2003 2786 2293 
Q 2538 2584 2113 2584 
z
M 3366 4563 
L 3366 3988 
Q 3128 4100 2886 4159 
Q 2644 4219 2406 4219 
Q 1781 4219 1451 3797 
Q 1122 3375 1075 2522 
Q 1259 2794 1537 2939 
Q 1816 3084 2150 3084 
Q 2853 3084 3261 2657 
Q 3669 2231 3669 1497 
Q 3669 778 3244 343 
Q 2819 -91 2113 -91 
Q 1303 -91 875 529 
Q 447 1150 447 2328 
Q 447 3434 972 4092 
Q 1497 4750 2381 4750 
Q 2619 4750 2861 4703 
Q 3103 4656 3366 4563 
z
" transform="scale(0.015625)"/>
       </defs>
       <use xlink:href="#DejaVuSans-36"/>
       <use xlink:href="#DejaVuSans-30" transform="translate(63.623047 0)"/>
       <use xlink:href="#DejaVuSans-30" transform="translate(127.246094 0)"/>
      </g>
     </g>
    </g>
    <g id="xtick_8">
     <g id="line2d_15">
      <path d="M 513.564047 576.718125 
L 513.564047 22.318125 
" clip-path="url(#p04410f83f0)" style="fill: none; stroke: #b0b0b0; stroke-width: 0.8; stroke-linecap: square"/>
     </g>
     <g id="line2d_16">
      <g>
       <use xlink:href="#m26ddf699d8" x="513.564047" y="576.718125" style="stroke: #000000; stroke-width: 0.8"/>
      </g>
     </g>
     <g id="text_8">
      <!-- 700 -->
      <g transform="translate(504.020297 591.316563) scale(0.1 -0.1)">
       <defs>
        <path id="DejaVuSans-37" d="M 525 4666 
L 3525 4666 
L 3525 4397 
L 1831 0 
L 1172 0 
L 2766 4134 
L 525 4134 
L 525 4666 
z
" transform="scale(0.015625)"/>
       </defs>
       <use xlink:href="#DejaVuSans-37"/>
       <use xlink:href="#DejaVuSans-30" transform="translate(63.623047 0)"/>
       <use xlink:href="#DejaVuSans-30" transform="translate(127.246094 0)"/>
      </g>
     </g>
    </g>
    <g id="xtick_9">
     <g id="line2d_17">
      <path d="M 577.052498 576.718125 
L 577.052498 22.318125 
" clip-path="url(#p04410f83f0)" style="fill: none; stroke: #b0b0b0; stroke-width: 0.8; stroke-linecap: square"/>
     </g>
     <g id="line2d_18">
      <g>
       <use xlink:href="#m26ddf699d8" x="577.052498" y="576.718125" style="stroke: #000000; stroke-width: 0.8"/>
      </g>
     </g>
     <g id="text_9">
      <!-- 800 -->
      <g transform="translate(567.508748 591.316563) scale(0.1 -0.1)">
       <defs>
        <path id="DejaVuSans-38" d="M 2034 2216 
Q 1584 2216 1326 1975 
Q 1069 1734 1069 1313 
Q 1069 891 1326 650 
Q 1584 409 2034 409 
Q 2484 409 2743 651 
Q 3003 894 3003 1313 
Q 3003 1734 2745 1975 
Q 2488 2216 2034 2216 
z
M 1403 2484 
Q 997 2584 770 2862 
Q 544 3141 544 3541 
Q 544 4100 942 4425 
Q 1341 4750 2034 4750 
Q 2731 4750 3128 4425 
Q 3525 4100 3525 3541 
Q 3525 3141 3298 2862 
Q 3072 2584 2669 2484 
Q 3125 2378 3379 2068 
Q 3634 1759 3634 1313 
Q 3634 634 3220 271 
Q 2806 -91 2034 -91 
Q 1263 -91 848 271 
Q 434 634 434 1313 
Q 434 1759 690 2068 
Q 947 2378 1403 2484 
z
M 1172 3481 
Q 1172 3119 1398 2916 
Q 1625 2713 2034 2713 
Q 2441 2713 2670 2916 
Q 2900 3119 2900 3481 
Q 2900 3844 2670 4047 
Q 2441 4250 2034 4250 
Q 1625 4250 1398 4047 
Q 1172 3844 1172 3481 
z
" transform="scale(0.015625)"/>
       </defs>
       <use xlink:href="#DejaVuSans-38"/>
       <use xlink:href="#DejaVuSans-30" transform="translate(63.623047 0)"/>
       <use xlink:href="#DejaVuSans-30" transform="translate(127.246094 0)"/>
      </g>
     </g>
    </g>
    <g id="text_10">
     <!-- Epochs -->
     <g transform="translate(304.865625 604.994688) scale(0.1 -0.1)">
      <defs>
       <path id="DejaVuSans-45" d="M 628 4666 
L 3578 4666 
L 3578 4134 
L 1259 4134 
L 1259 2753 
L 3481 2753 
L 3481 2222 
L 1259 2222 
L 1259 531 
L 3634 531 
L 3634 0 
L 628 0 
L 628 4666 
z
" transform="scale(0.015625)"/>
       <path id="DejaVuSans-70" d="M 1159 525 
L 1159 -1331 
L 581 -1331 
L 581 3500 
L 1159 3500 
L 1159 2969 
Q 1341 3281 1617 3432 
Q 1894 3584 2278 3584 
Q 2916 3584 3314 3078 
Q 3713 2572 3713 1747 
Q 3713 922 3314 415 
Q 2916 -91 2278 -91 
Q 1894 -91 1617 61 
Q 1341 213 1159 525 
z
M 3116 1747 
Q 3116 2381 2855 2742 
Q 2594 3103 2138 3103 
Q 1681 3103 1420 2742 
Q 1159 2381 1159 1747 
Q 1159 1113 1420 752 
Q 1681 391 2138 391 
Q 2594 391 2855 752 
Q 3116 1113 3116 1747 
z
" transform="scale(0.015625)"/>
       <path id="DejaVuSans-6f" d="M 1959 3097 
Q 1497 3097 1228 2736 
Q 959 2375 959 1747 
Q 959 1119 1226 758 
Q 1494 397 1959 397 
Q 2419 397 2687 759 
Q 2956 1122 2956 1747 
Q 2956 2369 2687 2733 
Q 2419 3097 1959 3097 
z
M 1959 3584 
Q 2709 3584 3137 3096 
Q 3566 2609 3566 1747 
Q 3566 888 3137 398 
Q 2709 -91 1959 -91 
Q 1206 -91 779 398 
Q 353 888 353 1747 
Q 353 2609 779 3096 
Q 1206 3584 1959 3584 
z
" transform="scale(0.015625)"/>
       <path id="DejaVuSans-63" d="M 3122 3366 
L 3122 2828 
Q 2878 2963 2633 3030 
Q 2388 3097 2138 3097 
Q 1578 3097 1268 2742 
Q 959 2388 959 1747 
Q 959 1106 1268 751 
Q 1578 397 2138 397 
Q 2388 397 2633 464 
Q 2878 531 3122 666 
L 3122 134 
Q 2881 22 2623 -34 
Q 2366 -91 2075 -91 
Q 1284 -91 818 406 
Q 353 903 353 1747 
Q 353 2603 823 3093 
Q 1294 3584 2113 3584 
Q 2378 3584 2631 3529 
Q 2884 3475 3122 3366 
z
" transform="scale(0.015625)"/>
       <path id="DejaVuSans-68" d="M 3513 2113 
L 3513 0 
L 2938 0 
L 2938 2094 
Q 2938 2591 2744 2837 
Q 2550 3084 2163 3084 
Q 1697 3084 1428 2787 
Q 1159 2491 1159 1978 
L 1159 0 
L 581 0 
L 581 4863 
L 1159 4863 
L 1159 2956 
Q 1366 3272 1645 3428 
Q 1925 3584 2291 3584 
Q 2894 3584 3203 3211 
Q 3513 2838 3513 2113 
z
" transform="scale(0.015625)"/>
       <path id="DejaVuSans-73" d="M 2834 3397 
L 2834 2853 
Q 2591 2978 2328 3040 
Q 2066 3103 1784 3103 
Q 1356 3103 1142 2972 
Q 928 2841 928 2578 
Q 928 2378 1081 2264 
Q 1234 2150 1697 2047 
L 1894 2003 
Q 2506 1872 2764 1633 
Q 3022 1394 3022 966 
Q 3022 478 2636 193 
Q 2250 -91 1575 -91 
Q 1294 -91 989 -36 
Q 684 19 347 128 
L 347 722 
Q 666 556 975 473 
Q 1284 391 1588 391 
Q 1994 391 2212 530 
Q 2431 669 2431 922 
Q 2431 1156 2273 1281 
Q 2116 1406 1581 1522 
L 1381 1569 
Q 847 1681 609 1914 
Q 372 2147 372 2553 
Q 372 3047 722 3315 
Q 1072 3584 1716 3584 
Q 2034 3584 2315 3537 
Q 2597 3491 2834 3397 
z
" transform="scale(0.015625)"/>
      </defs>
      <use xlink:href="#DejaVuSans-45"/>
      <use xlink:href="#DejaVuSans-70" transform="translate(63.183594 0)"/>
      <use xlink:href="#DejaVuSans-6f" transform="translate(126.660156 0)"/>
      <use xlink:href="#DejaVuSans-63" transform="translate(187.841797 0)"/>
      <use xlink:href="#DejaVuSans-68" transform="translate(242.822266 0)"/>
      <use xlink:href="#DejaVuSans-73" transform="translate(306.201172 0)"/>
     </g>
    </g>
   </g>
   <g id="matplotlib.axis_2">
    <g id="ytick_1">
     <g id="line2d_19">
      <path d="M 43.78125 574.925149 
L 601.78125 574.925149 
" clip-path="url(#p04410f83f0)" style="fill: none; stroke: #b0b0b0; stroke-width: 0.8; stroke-linecap: square"/>
     </g>
     <g id="line2d_20">
      <defs>
       <path id="m0774c9dc6e" d="M 0 0 
L -3.5 0 
" style="stroke: #000000; stroke-width: 0.8"/>
      </defs>
      <g>
       <use xlink:href="#m0774c9dc6e" x="43.78125" y="574.925149" style="stroke: #000000; stroke-width: 0.8"/>
      </g>
     </g>
     <g id="text_11">
      <!-- 0.5 -->
      <g transform="translate(20.878125 578.724368) scale(0.1 -0.1)">
       <defs>
        <path id="DejaVuSans-2e" d="M 684 794 
L 1344 794 
L 1344 0 
L 684 0 
L 684 794 
z
" transform="scale(0.015625)"/>
       </defs>
       <use xlink:href="#DejaVuSans-30"/>
       <use xlink:href="#DejaVuSans-2e" transform="translate(63.623047 0)"/>
       <use xlink:href="#DejaVuSans-35" transform="translate(95.410156 0)"/>
      </g>
     </g>
    </g>
    <g id="ytick_2">
     <g id="line2d_21">
      <path d="M 43.78125 456.803551 
L 601.78125 456.803551 
" clip-path="url(#p04410f83f0)" style="fill: none; stroke: #b0b0b0; stroke-width: 0.8; stroke-linecap: square"/>
     </g>
     <g id="line2d_22">
      <g>
       <use xlink:href="#m0774c9dc6e" x="43.78125" y="456.803551" style="stroke: #000000; stroke-width: 0.8"/>
      </g>
     </g>
     <g id="text_12">
      <!-- 0.6 -->
      <g transform="translate(20.878125 460.60277) scale(0.1 -0.1)">
       <use xlink:href="#DejaVuSans-30"/>
       <use xlink:href="#DejaVuSans-2e" transform="translate(63.623047 0)"/>
       <use xlink:href="#DejaVuSans-36" transform="translate(95.410156 0)"/>
      </g>
     </g>
    </g>
    <g id="ytick_3">
     <g id="line2d_23">
      <path d="M 43.78125 338.681954 
L 601.78125 338.681954 
" clip-path="url(#p04410f83f0)" style="fill: none; stroke: #b0b0b0; stroke-width: 0.8; stroke-linecap: square"/>
     </g>
     <g id="line2d_24">
      <g>
       <use xlink:href="#m0774c9dc6e" x="43.78125" y="338.681954" style="stroke: #000000; stroke-width: 0.8"/>
      </g>
     </g>
     <g id="text_13">
      <!-- 0.7 -->
      <g transform="translate(20.878125 342.481172) scale(0.1 -0.1)">
       <use xlink:href="#DejaVuSans-30"/>
       <use xlink:href="#DejaVuSans-2e" transform="translate(63.623047 0)"/>
       <use xlink:href="#DejaVuSans-37" transform="translate(95.410156 0)"/>
      </g>
     </g>
    </g>
    <g id="ytick_4">
     <g id="line2d_25">
      <path d="M 43.78125 220.560356 
L 601.78125 220.560356 
" clip-path="url(#p04410f83f0)" style="fill: none; stroke: #b0b0b0; stroke-width: 0.8; stroke-linecap: square"/>
     </g>
     <g id="line2d_26">
      <g>
       <use xlink:href="#m0774c9dc6e" x="43.78125" y="220.560356" style="stroke: #000000; stroke-width: 0.8"/>
      </g>
     </g>
     <g id="text_14">
      <!-- 0.8 -->
      <g transform="translate(20.878125 224.359574) scale(0.1 -0.1)">
       <use xlink:href="#DejaVuSans-30"/>
       <use xlink:href="#DejaVuSans-2e" transform="translate(63.623047 0)"/>
       <use xlink:href="#DejaVuSans-38" transform="translate(95.410156 0)"/>
      </g>
     </g>
    </g>
    <g id="ytick_5">
     <g id="line2d_27">
      <path d="M 43.78125 102.438758 
L 601.78125 102.438758 
" clip-path="url(#p04410f83f0)" style="fill: none; stroke: #b0b0b0; stroke-width: 0.8; stroke-linecap: square"/>
     </g>
     <g id="line2d_28">
      <g>
       <use xlink:href="#m0774c9dc6e" x="43.78125" y="102.438758" style="stroke: #000000; stroke-width: 0.8"/>
      </g>
     </g>
     <g id="text_15">
      <!-- 0.9 -->
      <g transform="translate(20.878125 106.237977) scale(0.1 -0.1)">
       <defs>
        <path id="DejaVuSans-39" d="M 703 97 
L 703 672 
Q 941 559 1184 500 
Q 1428 441 1663 441 
Q 2288 441 2617 861 
Q 2947 1281 2994 2138 
Q 2813 1869 2534 1725 
Q 2256 1581 1919 1581 
Q 1219 1581 811 2004 
Q 403 2428 403 3163 
Q 403 3881 828 4315 
Q 1253 4750 1959 4750 
Q 2769 4750 3195 4129 
Q 3622 3509 3622 2328 
Q 3622 1225 3098 567 
Q 2575 -91 1691 -91 
Q 1453 -91 1209 -44 
Q 966 3 703 97 
z
M 1959 2075 
Q 2384 2075 2632 2365 
Q 2881 2656 2881 3163 
Q 2881 3666 2632 3958 
Q 2384 4250 1959 4250 
Q 1534 4250 1286 3958 
Q 1038 3666 1038 3163 
Q 1038 2656 1286 2365 
Q 1534 2075 1959 2075 
z
" transform="scale(0.015625)"/>
       </defs>
       <use xlink:href="#DejaVuSans-30"/>
       <use xlink:href="#DejaVuSans-2e" transform="translate(63.623047 0)"/>
       <use xlink:href="#DejaVuSans-39" transform="translate(95.410156 0)"/>
      </g>
     </g>
    </g>
    <g id="text_16">
     <!-- Loss -->
     <g transform="translate(14.798438 310.485313) rotate(-90) scale(0.1 -0.1)">
      <defs>
       <path id="DejaVuSans-4c" d="M 628 4666 
L 1259 4666 
L 1259 531 
L 3531 531 
L 3531 0 
L 628 0 
L 628 4666 
z
" transform="scale(0.015625)"/>
      </defs>
      <use xlink:href="#DejaVuSans-4c"/>
      <use xlink:href="#DejaVuSans-6f" transform="translate(53.962891 0)"/>
      <use xlink:href="#DejaVuSans-73" transform="translate(115.144531 0)"/>
      <use xlink:href="#DejaVuSans-73" transform="translate(167.244141 0)"/>
     </g>
    </g>
   </g>
   <g id="line2d_29">
    <path d="M 69.144886 343.689239 
L 69.779771 346.046783 
L 71.04954 347.339507 
L 72.954193 349.033122 
L 74.223962 350.162504 
L 76.763501 351.792261 
L 88.191422 358.697114 
L 97.079805 364.733088 
L 104.698419 370.314942 
L 110.41238 374.594005 
L 121.840301 383.24563 
L 126.284493 386.609205 
L 131.998453 390.870244 
L 144.061259 399.63656 
L 145.965913 400.998423 
L 162.47291 412.239227 
L 167.551986 415.551616 
L 175.805485 420.738704 
L 177.710138 421.923144 
L 180.884561 423.857548 
L 193.582251 431.313539 
L 203.105519 436.630315 
L 226.596246 448.89792 
L 235.484629 453.207961 
L 238.024167 454.443445 
L 243.738128 457.098665 
L 245.007897 457.672474 
L 248.18232 459.160574 
L 267.228855 467.51403 
L 272.307931 469.597976 
L 274.847469 470.650263 
L 296.433543 479.177622 
L 302.147503 481.323454 
L 307.861464 483.425002 
L 308.496348 483.597567 
L 309.766117 484.086114 
L 312.305656 485.042086 
L 314.845194 485.923217 
L 316.114963 486.395077 
L 317.384732 486.847717 
L 319.289385 487.515729 
L 328.812653 490.82495 
L 335.796383 493.212627 
L 337.701036 493.796504 
L 340.240574 494.674114 
L 341.510343 495.080004 
L 346.589419 496.730602 
L 348.494073 497.345527 
L 350.398726 497.934121 
L 371.9848 504.599453 
L 373.889453 505.163405 
L 376.428991 505.94477 
L 382.777837 507.749205 
L 397.38018 511.849225 
L 401.824372 513.066474 
L 417.696485 517.323007 
L 419.601138 517.75361 
L 425.315099 519.219743 
L 425.949984 519.433637 
L 426.584868 519.51228 
L 428.489522 520.029201 
L 443.091866 523.655248 
L 444.996519 524.114225 
L 446.266288 524.416266 
L 465.947708 529.08038 
L 467.217477 529.397136 
L 471.026784 530.269184 
L 481.184936 532.526258 
L 482.454705 532.843789 
L 484.994244 533.382395 
L 487.533782 533.978663 
L 490.07332 534.526773 
L 491.343089 534.832335 
L 493.247742 535.196897 
L 496.422165 535.887721 
L 508.484971 538.436205 
L 509.75474 538.704311 
L 538.959427 544.608836 
L 540.229196 544.813647 
L 550.387349 546.766568 
L 551.657118 546.990177 
L 557.371078 548.065206 
L 559.910616 548.510594 
L 563.085039 549.127843 
L 564.989692 549.442487 
L 576.417614 551.518125 
L 576.417614 551.518125 
" clip-path="url(#p04410f83f0)" style="fill: none; stroke: #1f77b4; stroke-width: 1.5; stroke-linecap: square"/>
   </g>
   <g id="line2d_30">
    <path d="M 69.144886 345.302874 
L 69.779771 345.769383 
L 72.319309 346.788017 
L 73.589078 347.481375 
L 74.223962 347.687453 
L 74.858847 347.695198 
L 75.493732 347.827631 
L 76.128616 347.816296 
L 77.398385 348.022726 
L 78.668154 347.928593 
L 79.937923 348.041947 
L 81.207692 347.928241 
L 81.842577 347.985552 
L 85.016999 347.506721 
L 85.651884 347.585998 
L 86.921653 347.403717 
L 88.191422 347.180248 
L 90.096075 346.807801 
L 91.365844 346.454011 
L 93.270498 346.063892 
L 93.905382 345.959691 
L 97.079805 344.848474 
L 97.71469 344.813904 
L 98.349574 344.494824 
L 98.984459 344.396538 
L 100.889112 343.439157 
L 102.158881 343.115924 
L 103.42865 342.456713 
L 104.698419 342.109259 
L 105.333304 341.716183 
L 105.968188 341.549814 
L 106.603073 341.062956 
L 107.237957 340.913837 
L 109.142611 339.989054 
L 109.777495 339.919634 
L 110.41238 339.328646 
L 111.047264 339.115598 
L 111.682149 338.685418 
L 112.317033 338.526863 
L 112.951918 337.973191 
L 113.586802 337.792318 
L 114.856571 337.064672 
L 115.491456 336.535431 
L 116.12634 336.498256 
L 116.761225 336.069062 
L 117.396109 335.46688 
L 118.665879 335.077464 
L 120.570532 333.88007 
L 121.205417 333.639282 
L 121.840301 332.904455 
L 123.744955 332.14921 
L 124.379839 331.563714 
L 126.284493 330.430108 
L 127.554262 329.417529 
L 128.189146 329.328114 
L 128.824031 328.928067 
L 129.458915 328.379252 
L 130.0938 327.58965 
L 130.728684 327.539943 
L 131.363569 326.894602 
L 131.998453 326.621497 
L 133.903107 325.450787 
L 134.537991 324.79918 
L 135.172876 324.751656 
L 136.442645 323.439218 
L 137.077529 323.321992 
L 138.347298 322.297515 
L 138.982183 322.040393 
L 139.617067 321.352949 
L 140.251952 321.123214 
L 140.886837 320.539479 
L 142.156606 319.782474 
L 142.79149 319.334269 
L 143.426375 319.063136 
L 144.061259 318.383014 
L 144.696144 317.966 
L 145.331028 317.347413 
L 147.235682 316.135163 
L 147.870566 315.925635 
L 149.140335 314.813855 
L 149.77522 314.279333 
L 150.410104 313.94596 
L 151.044989 313.210711 
L 151.679873 313.14805 
L 153.584527 311.748168 
L 154.219411 310.98715 
L 154.854296 310.908084 
L 155.48918 310.53972 
L 156.124065 309.686541 
L 156.758949 309.204401 
L 157.393834 309.132235 
L 158.028718 308.395296 
L 158.663603 307.996727 
L 159.298487 307.764177 
L 159.933372 306.49173 
L 160.568256 306.606351 
L 161.203141 306.032753 
L 163.107795 304.665892 
L 165.012448 303.257209 
L 165.647333 303.156107 
L 166.917102 301.699055 
L 167.551986 301.806776 
L 168.821755 300.638671 
L 169.45664 299.739657 
L 170.091524 299.589974 
L 170.726409 299.559841 
L 171.361293 298.729191 
L 171.996178 298.356744 
L 172.631062 297.589459 
L 173.265947 297.546019 
L 173.900831 296.798096 
L 174.535716 296.471694 
L 175.1706 295.866766 
L 175.805485 295.462425 
L 176.440369 294.842712 
L 177.075254 294.69669 
L 178.345023 293.152546 
L 178.979907 292.869233 
L 179.614792 291.905305 
L 180.249676 291.888407 
L 180.884561 291.359659 
L 181.519445 291.280241 
L 182.15433 290.762757 
L 182.789215 290.070244 
L 183.424099 289.855013 
L 184.058984 289.166724 
L 184.693868 288.813638 
L 185.328753 287.840065 
L 185.963637 287.512114 
L 186.598522 287.795075 
L 187.233406 286.97724 
L 187.868291 286.645487 
L 190.407829 284.8112 
L 191.042713 284.045606 
L 191.677598 283.548047 
L 192.947367 282.945794 
L 193.582251 282.111202 
L 194.217136 281.540632 
L 194.85202 281.587663 
L 195.486905 280.821999 
L 196.121789 280.582618 
L 196.756674 279.531457 
L 197.391558 279.38107 
L 198.026443 279.076353 
L 198.661327 278.966661 
L 199.296212 277.795176 
L 199.931096 277.775603 
L 200.565981 276.819138 
L 201.200865 276.854271 
L 201.83575 275.82916 
L 202.470634 275.994262 
L 203.105519 274.639722 
L 203.740403 275.182974 
L 204.375288 274.096962 
L 205.010173 274.007758 
L 208.184595 270.986005 
L 208.81948 270.874552 
L 209.454364 270.294125 
L 210.089249 270.181687 
L 210.724133 269.893515 
L 211.359018 268.461388 
L 211.993902 268.449348 
L 212.628787 267.956295 
L 213.263671 267.784857 
L 213.898556 267.752188 
L 215.168325 266.639422 
L 215.803209 265.262915 
L 216.438094 265.39725 
L 217.072978 264.789717 
L 217.707863 263.940692 
L 218.342747 264.333275 
L 219.612516 262.810887 
L 220.247401 262.321002 
L 220.882285 261.973479 
L 221.51717 261.419736 
L 222.152054 261.472963 
L 222.786939 261.016239 
L 224.056708 259.701126 
L 224.691592 258.870477 
L 225.326477 258.96299 
L 225.961362 258.865337 
L 226.596246 258.13917 
L 227.231131 256.764987 
L 227.866015 256.802513 
L 228.5009 257.114411 
L 229.770669 255.411432 
L 230.405553 255.623988 
L 231.040438 255.339477 
L 231.675322 254.479539 
L 232.310207 254.089208 
L 232.945091 254.094841 
L 233.579976 252.595968 
L 234.21486 252.621173 
L 235.484629 251.811012 
L 236.119514 251.843751 
L 236.754398 250.772383 
L 238.659052 249.377923 
L 239.293936 248.470249 
L 239.928821 247.855817 
L 241.833474 246.885834 
L 242.468359 246.554081 
L 243.103243 246.883933 
L 243.738128 245.462014 
L 244.373012 245.517916 
L 245.642781 244.481681 
L 246.277666 243.50853 
L 246.91255 244.090295 
L 247.547435 243.094332 
L 248.18232 242.657181 
L 249.452089 242.082669 
L 250.086973 241.386002 
L 250.721858 240.862815 
L 251.356742 240.593301 
L 251.991627 240.538384 
L 252.626511 239.878751 
L 253.89628 239.440896 
L 254.531165 238.779573 
L 255.166049 238.303206 
L 255.800934 237.292388 
L 256.435818 237.262536 
L 257.070703 236.945005 
L 257.705587 236.309873 
L 258.340472 236.24172 
L 258.975356 235.133249 
L 259.610241 234.650405 
L 260.245125 234.611329 
L 260.88001 234.454113 
L 261.514894 233.854536 
L 262.149779 233.410274 
L 262.784663 233.498281 
L 263.419548 232.044398 
L 264.689317 232.120507 
L 265.324201 230.849609 
L 265.959086 231.007319 
L 267.228855 229.727268 
L 267.863739 228.931469 
L 268.498624 228.797346 
L 269.133509 228.036821 
L 269.768393 228.365969 
L 270.403278 227.401548 
L 271.038162 227.743228 
L 271.673047 226.196198 
L 272.307931 226.581459 
L 272.942816 226.260408 
L 273.5777 225.169468 
L 274.212585 225.802488 
L 274.847469 224.90791 
L 275.482354 225.033091 
L 276.117238 222.640556 
L 276.752123 223.936941 
L 277.387007 223.063203 
L 278.021892 222.877683 
L 278.656776 222.123776 
L 279.926545 221.098666 
L 280.56143 221.102467 
L 281.196314 220.887377 
L 281.831199 219.93577 
L 282.466083 219.317395 
L 283.100968 219.671678 
L 283.735852 218.86567 
L 284.370737 219.0269 
L 285.005621 217.659194 
L 285.640506 217.092426 
L 286.27539 217.115308 
L 286.910275 217.823592 
L 287.545159 216.415684 
L 288.180044 216.318312 
L 288.814928 215.253 
L 289.449813 215.050794 
L 290.084697 215.098036 
L 290.719582 214.448048 
L 291.354467 213.215029 
L 292.624236 213.361755 
L 293.25912 212.515546 
L 293.894005 211.886327 
L 294.528889 212.116344 
L 295.163774 211.389684 
L 295.798658 211.419606 
L 296.433543 210.483911 
L 297.068427 210.101255 
L 297.703312 210.2722 
L 298.338196 209.942489 
L 298.973081 209.48478 
L 299.607965 209.250892 
L 300.24285 207.741599 
L 301.512619 207.85108 
L 302.147503 206.956713 
L 302.782388 207.023247 
L 303.417272 206.136977 
L 304.052157 206.240544 
L 304.687041 205.633856 
L 305.321926 205.28246 
L 305.95681 204.548337 
L 306.591695 204.881005 
L 307.226579 204.264038 
L 307.861464 203.263358 
L 308.496348 203.084386 
L 309.131233 202.753267 
L 309.766117 202.825503 
L 310.401002 201.687602 
L 311.670771 201.501026 
L 312.305656 200.019896 
L 312.94054 200.234071 
L 313.575425 200.204078 
L 314.845194 199.165238 
L 315.480078 199.051744 
L 316.749847 197.873077 
L 317.384732 197.851392 
L 318.019616 197.172609 
L 318.654501 196.081739 
L 319.92427 195.612483 
L 320.559154 196.140105 
L 321.194039 195.085072 
L 321.828923 194.247734 
L 322.463808 194.284063 
L 323.098692 193.986669 
L 323.733577 193.217835 
L 324.368461 192.771532 
L 325.003346 192.828772 
L 326.273115 191.515842 
L 326.907999 191.174514 
L 327.542884 191.305328 
L 328.177768 190.601057 
L 328.812653 190.320912 
L 329.447537 190.290778 
L 330.082422 189.119575 
L 330.717306 189.563344 
L 331.352191 188.291249 
L 331.987075 188.344898 
L 332.62196 187.729832 
L 333.256844 187.491015 
L 334.526614 186.185829 
L 335.796383 186.004463 
L 336.431267 184.919719 
L 337.701036 184.520376 
L 338.335921 184.572406 
L 338.970805 183.777734 
L 339.60569 183.686136 
L 340.240574 182.681373 
L 340.875459 182.24732 
L 341.510343 182.336031 
L 342.145228 181.252624 
L 342.780112 180.923054 
L 343.414997 181.118008 
L 344.049881 180.201323 
L 344.684766 180.609536 
L 345.31965 179.186421 
L 345.954535 179.560417 
L 346.589419 177.827234 
L 347.224304 178.539601 
L 347.859188 178.366121 
L 348.494073 177.326436 
L 349.128957 177.124019 
L 349.763842 177.310102 
L 350.398726 176.292525 
L 351.033611 174.980439 
L 351.668495 175.406677 
L 352.30338 176.15819 
L 352.938264 175.637327 
L 353.573149 174.157394 
L 354.208033 173.261196 
L 354.842918 173.858802 
L 355.477803 172.87509 
L 356.112687 172.577484 
L 356.747572 172.452302 
L 357.382456 172.204332 
L 358.652225 170.77312 
L 359.921994 170.92576 
L 360.556879 170.013299 
L 361.826648 169.747094 
L 362.461532 167.976947 
L 363.096417 168.059885 
L 363.731301 167.851273 
L 364.366186 166.789903 
L 365.00107 167.998984 
L 366.270839 166.694855 
L 367.540608 165.952776 
L 368.175493 165.017714 
L 368.810377 164.337945 
L 369.445262 164.180588 
L 370.080146 164.992087 
L 370.715031 163.594599 
L 371.349915 163.090422 
L 371.9848 163.843413 
L 372.619684 162.693684 
L 373.254569 163.204338 
L 373.889453 162.753529 
L 374.524338 161.005983 
L 375.159222 161.513187 
L 375.794107 160.957755 
L 376.428991 160.827715 
L 377.063876 160.866157 
L 377.698761 160.419853 
L 378.333645 159.72382 
L 378.96853 158.724478 
L 379.603414 158.052805 
L 380.238299 158.037034 
L 380.873183 157.528633 
L 381.508068 158.368998 
L 382.142952 156.927858 
L 382.777837 156.909764 
L 383.412721 155.679209 
L 384.047606 155.803616 
L 384.68249 155.350202 
L 385.317375 155.738561 
L 385.952259 154.371207 
L 386.587144 153.959402 
L 387.222028 154.797445 
L 388.491797 152.698573 
L 389.126682 152.050626 
L 389.761566 152.742154 
L 390.396451 151.877005 
L 391.66622 151.188506 
L 392.301104 151.476184 
L 392.935989 149.937603 
L 393.570873 149.358303 
L 394.205758 149.200241 
L 394.840642 148.846451 
L 395.475527 148.849127 
L 396.110411 147.717633 
L 396.745296 147.964617 
L 397.38018 147.411859 
L 398.015065 148.074098 
L 398.64995 147.350888 
L 399.284834 146.169687 
L 399.919719 144.523244 
L 400.554603 146.205665 
L 401.189488 145.419089 
L 401.824372 145.481187 
L 403.094141 143.705408 
L 403.729026 143.199682 
L 404.36391 143.918034 
L 404.998795 142.570816 
L 405.633679 142.251596 
L 406.268564 142.215055 
L 406.903448 141.446926 
L 407.538333 142.352417 
L 408.173217 141.500998 
L 408.808102 142.25406 
L 409.442986 140.673728 
L 410.077871 139.39248 
L 410.712755 139.826181 
L 411.34764 138.867533 
L 411.982524 139.399661 
L 413.252293 138.234091 
L 413.887178 138.145309 
L 414.522062 137.638316 
L 415.156947 137.351974 
L 415.791831 135.905836 
L 416.426716 135.780654 
L 417.0616 136.796894 
L 417.696485 136.11804 
L 418.331369 134.978238 
L 418.966254 134.238834 
L 419.601138 135.352445 
L 420.236023 133.857868 
L 420.870908 133.025317 
L 421.505792 133.597225 
L 422.775561 133.105017 
L 423.410446 131.894668 
L 424.04533 131.363877 
L 424.680215 131.368313 
L 425.315099 131.077677 
L 425.949984 131.325013 
L 426.584868 130.660029 
L 427.219753 129.814242 
L 427.854637 129.964981 
L 428.489522 128.629662 
L 429.124406 128.789695 
L 429.759291 128.387677 
L 430.394175 128.273126 
L 431.02906 127.572939 
L 431.663944 128.570591 
L 432.298829 127.772399 
L 433.568598 127.433324 
L 434.203482 126.170382 
L 434.838367 125.359516 
L 435.473251 125.905162 
L 436.108136 125.626777 
L 436.74302 124.246961 
L 437.377905 123.431308 
L 438.012789 124.377635 
L 438.647674 124.656231 
L 439.917443 122.369938 
L 440.552327 122.114999 
L 441.187212 122.290943 
L 441.822097 122.995707 
L 442.456981 122.057125 
L 443.091866 121.552173 
L 443.72675 121.63666 
L 444.361635 120.899299 
L 444.996519 119.417605 
L 445.631404 119.395428 
L 446.266288 118.740018 
L 446.901173 118.717981 
L 447.536057 118.84788 
L 448.170942 117.822136 
L 448.805826 118.140723 
L 450.71048 117.011411 
L 451.345364 115.866751 
L 451.980249 116.304113 
L 452.615133 116.274472 
L 453.250018 115.904489 
L 453.884902 116.226667 
L 454.519787 115.022021 
L 455.154671 115.497331 
L 455.789556 114.390831 
L 456.42444 114.101181 
L 457.059325 113.357413 
L 457.694209 114.718078 
L 458.329094 113.521318 
L 458.963978 111.826435 
L 459.598863 112.072011 
L 460.233747 111.088158 
L 460.868632 112.662013 
L 461.503516 111.751875 
L 462.138401 109.784803 
L 462.773285 110.508295 
L 463.40817 110.116697 
L 464.043055 108.468141 
L 464.677939 109.626953 
L 465.312824 108.353943 
L 465.947708 107.350587 
L 466.582593 108.367672 
L 467.217477 107.662063 
L 467.852362 107.242725 
L 468.487246 107.024185 
L 469.122131 106.309002 
L 469.757015 106.403768 
L 470.3919 105.858192 
L 471.026784 105.822426 
L 471.661669 105.153921 
L 472.296553 105.535522 
L 472.931438 104.291308 
L 473.566322 104.513509 
L 474.201207 103.94998 
L 474.836091 104.317147 
L 475.470976 102.588117 
L 476.10586 101.883072 
L 476.740745 103.384972 
L 477.375629 102.044513 
L 478.010514 101.369319 
L 478.645398 101.035736 
L 479.915167 101.062279 
L 481.184936 100.452493 
L 481.819821 98.991921 
L 482.454705 100.272747 
L 483.08959 99.190959 
L 483.724474 99.408654 
L 484.359359 97.784741 
L 484.994244 98.375799 
L 485.629128 96.449985 
L 486.264013 97.029637 
L 486.898897 96.954303 
L 487.533782 95.697063 
L 488.168666 96.572562 
L 488.803551 95.732478 
L 489.438435 95.591595 
L 490.07332 94.503612 
L 490.708204 94.058365 
L 491.343089 94.4425 
L 491.977973 93.328396 
L 492.612858 93.845528 
L 493.247742 93.64135 
L 493.882627 92.967706 
L 494.517511 92.019338 
L 495.152396 92.436141 
L 495.78728 92.615183 
L 496.422165 92.06137 
L 497.057049 92.135789 
L 498.326818 89.733327 
L 498.961703 89.989534 
L 499.596587 90.489557 
L 500.866356 89.306174 
L 501.501241 88.604438 
L 502.136125 89.204508 
L 502.77101 88.76447 
L 503.405894 87.880875 
L 504.675663 88.38287 
L 505.945433 86.366021 
L 506.580317 85.818192 
L 507.215202 85.844876 
L 507.850086 85.406036 
L 508.484971 85.924012 
L 509.119855 84.822159 
L 511.024509 83.524788 
L 511.659393 82.733425 
L 512.294278 83.225634 
L 512.929162 82.488413 
L 513.564047 82.360978 
L 514.198931 82.905216 
L 514.833816 80.810075 
L 515.4687 81.401133 
L 516.103585 80.607518 
L 516.738469 80.123336 
L 517.373354 80.15009 
L 518.643123 79.760323 
L 519.278007 78.41754 
L 519.912892 79.217704 
L 520.547776 78.728382 
L 521.182661 78.59968 
L 521.817545 77.851335 
L 522.45243 77.415663 
L 523.087314 76.723573 
L 524.357083 76.453848 
L 525.626852 76.774758 
L 526.261737 75.870393 
L 526.896621 74.386729 
L 527.531506 74.94885 
L 528.166391 73.947255 
L 528.801275 74.432633 
L 529.43616 72.559412 
L 530.071044 73.194897 
L 530.705929 71.970185 
L 531.340813 71.723482 
L 531.975698 71.943994 
L 532.610582 71.653569 
L 533.245467 71.198676 
L 533.880351 71.137212 
L 535.15012 70.18476 
L 535.785005 70.733927 
L 536.419889 70.4466 
L 537.054774 70.72759 
L 537.689658 69.467464 
L 538.324543 68.904569 
L 538.959427 69.51351 
L 540.229196 68.313722 
L 540.864081 68.53198 
L 541.498965 67.578684 
L 542.13385 68.112642 
L 542.768734 65.841135 
L 543.403619 65.758338 
L 544.038503 65.483543 
L 544.673388 65.367373 
L 545.308272 64.605581 
L 545.943157 64.867421 
L 546.578041 64.80828 
L 547.212926 64.596217 
L 547.84781 64.035504 
L 548.482695 63.981854 
L 549.11758 62.693355 
L 549.752464 63.587159 
L 550.387349 63.648623 
L 551.022233 62.477349 
L 551.657118 62.383428 
L 552.292002 61.923255 
L 552.926887 62.331891 
L 553.561771 61.031704 
L 554.196656 60.402134 
L 554.83154 60.581247 
L 555.466425 59.827551 
L 556.101309 60.076365 
L 556.736194 59.559375 
L 557.371078 58.824548 
L 558.005963 58.408096 
L 558.640847 58.651208 
L 559.275732 58.481952 
L 559.910616 58.753156 
L 560.545501 56.84783 
L 561.180385 56.14025 
L 561.81527 56.327178 
L 563.085039 55.737246 
L 563.719923 55.916993 
L 564.354808 55.128094 
L 564.989692 55.398664 
L 565.624577 54.854567 
L 566.259461 53.726663 
L 566.894346 53.547621 
L 567.52923 53.035206 
L 568.164115 52.876582 
L 568.798999 53.410681 
L 570.068768 52.116972 
L 570.703653 51.391086 
L 571.338538 51.518169 
L 571.973422 52.237507 
L 572.608307 50.202141 
L 573.243191 50.705966 
L 574.51296 49.767736 
L 575.147845 50.71012 
L 576.417614 47.518125 
L 576.417614 47.518125 
" clip-path="url(#p04410f83f0)" style="fill: none; stroke: #ff7f0e; stroke-width: 1.5; stroke-linecap: square"/>
   </g>
   <g id="patch_3">
    <path d="M 43.78125 576.718125 
L 43.78125 22.318125 
" style="fill: none; stroke: #000000; stroke-width: 0.8; stroke-linejoin: miter; stroke-linecap: square"/>
   </g>
   <g id="patch_4">
    <path d="M 601.78125 576.718125 
L 601.78125 22.318125 
" style="fill: none; stroke: #000000; stroke-width: 0.8; stroke-linejoin: miter; stroke-linecap: square"/>
   </g>
   <g id="patch_5">
    <path d="M 43.78125 576.718125 
L 601.78125 576.718125 
" style="fill: none; stroke: #000000; stroke-width: 0.8; stroke-linejoin: miter; stroke-linecap: square"/>
   </g>
   <g id="patch_6">
    <path d="M 43.78125 22.318125 
L 601.78125 22.318125 
" style="fill: none; stroke: #000000; stroke-width: 0.8; stroke-linejoin: miter; stroke-linecap: square"/>
   </g>
   <g id="text_17">
    <!-- Train and Val Loss -->
    <g transform="translate(269.235937 16.318125) scale(0.12 -0.12)">
     <defs>
      <path id="DejaVuSans-54" d="M -19 4666 
L 3928 4666 
L 3928 4134 
L 2272 4134 
L 2272 0 
L 1638 0 
L 1638 4134 
L -19 4134 
L -19 4666 
z
" transform="scale(0.015625)"/>
      <path id="DejaVuSans-72" d="M 2631 2963 
Q 2534 3019 2420 3045 
Q 2306 3072 2169 3072 
Q 1681 3072 1420 2755 
Q 1159 2438 1159 1844 
L 1159 0 
L 581 0 
L 581 3500 
L 1159 3500 
L 1159 2956 
Q 1341 3275 1631 3429 
Q 1922 3584 2338 3584 
Q 2397 3584 2469 3576 
Q 2541 3569 2628 3553 
L 2631 2963 
z
" transform="scale(0.015625)"/>
      <path id="DejaVuSans-61" d="M 2194 1759 
Q 1497 1759 1228 1600 
Q 959 1441 959 1056 
Q 959 750 1161 570 
Q 1363 391 1709 391 
Q 2188 391 2477 730 
Q 2766 1069 2766 1631 
L 2766 1759 
L 2194 1759 
z
M 3341 1997 
L 3341 0 
L 2766 0 
L 2766 531 
Q 2569 213 2275 61 
Q 1981 -91 1556 -91 
Q 1019 -91 701 211 
Q 384 513 384 1019 
Q 384 1609 779 1909 
Q 1175 2209 1959 2209 
L 2766 2209 
L 2766 2266 
Q 2766 2663 2505 2880 
Q 2244 3097 1772 3097 
Q 1472 3097 1187 3025 
Q 903 2953 641 2809 
L 641 3341 
Q 956 3463 1253 3523 
Q 1550 3584 1831 3584 
Q 2591 3584 2966 3190 
Q 3341 2797 3341 1997 
z
" transform="scale(0.015625)"/>
      <path id="DejaVuSans-69" d="M 603 3500 
L 1178 3500 
L 1178 0 
L 603 0 
L 603 3500 
z
M 603 4863 
L 1178 4863 
L 1178 4134 
L 603 4134 
L 603 4863 
z
" transform="scale(0.015625)"/>
      <path id="DejaVuSans-6e" d="M 3513 2113 
L 3513 0 
L 2938 0 
L 2938 2094 
Q 2938 2591 2744 2837 
Q 2550 3084 2163 3084 
Q 1697 3084 1428 2787 
Q 1159 2491 1159 1978 
L 1159 0 
L 581 0 
L 581 3500 
L 1159 3500 
L 1159 2956 
Q 1366 3272 1645 3428 
Q 1925 3584 2291 3584 
Q 2894 3584 3203 3211 
Q 3513 2838 3513 2113 
z
" transform="scale(0.015625)"/>
      <path id="DejaVuSans-20" transform="scale(0.015625)"/>
      <path id="DejaVuSans-64" d="M 2906 2969 
L 2906 4863 
L 3481 4863 
L 3481 0 
L 2906 0 
L 2906 525 
Q 2725 213 2448 61 
Q 2172 -91 1784 -91 
Q 1150 -91 751 415 
Q 353 922 353 1747 
Q 353 2572 751 3078 
Q 1150 3584 1784 3584 
Q 2172 3584 2448 3432 
Q 2725 3281 2906 2969 
z
M 947 1747 
Q 947 1113 1208 752 
Q 1469 391 1925 391 
Q 2381 391 2643 752 
Q 2906 1113 2906 1747 
Q 2906 2381 2643 2742 
Q 2381 3103 1925 3103 
Q 1469 3103 1208 2742 
Q 947 2381 947 1747 
z
" transform="scale(0.015625)"/>
      <path id="DejaVuSans-56" d="M 1831 0 
L 50 4666 
L 709 4666 
L 2188 738 
L 3669 4666 
L 4325 4666 
L 2547 0 
L 1831 0 
z
" transform="scale(0.015625)"/>
      <path id="DejaVuSans-6c" d="M 603 4863 
L 1178 4863 
L 1178 0 
L 603 0 
L 603 4863 
z
" transform="scale(0.015625)"/>
     </defs>
     <use xlink:href="#DejaVuSans-54"/>
     <use xlink:href="#DejaVuSans-72" transform="translate(46.333984 0)"/>
     <use xlink:href="#DejaVuSans-61" transform="translate(87.447266 0)"/>
     <use xlink:href="#DejaVuSans-69" transform="translate(148.726562 0)"/>
     <use xlink:href="#DejaVuSans-6e" transform="translate(176.509766 0)"/>
     <use xlink:href="#DejaVuSans-20" transform="translate(239.888672 0)"/>
     <use xlink:href="#DejaVuSans-61" transform="translate(271.675781 0)"/>
     <use xlink:href="#DejaVuSans-6e" transform="translate(332.955078 0)"/>
     <use xlink:href="#DejaVuSans-64" transform="translate(396.333984 0)"/>
     <use xlink:href="#DejaVuSans-20" transform="translate(459.810547 0)"/>
     <use xlink:href="#DejaVuSans-56" transform="translate(491.597656 0)"/>
     <use xlink:href="#DejaVuSans-61" transform="translate(552.255859 0)"/>
     <use xlink:href="#DejaVuSans-6c" transform="translate(613.535156 0)"/>
     <use xlink:href="#DejaVuSans-20" transform="translate(641.318359 0)"/>
     <use xlink:href="#DejaVuSans-4c" transform="translate(673.105469 0)"/>
     <use xlink:href="#DejaVuSans-6f" transform="translate(727.068359 0)"/>
     <use xlink:href="#DejaVuSans-73" transform="translate(788.25 0)"/>
     <use xlink:href="#DejaVuSans-73" transform="translate(840.349609 0)"/>
    </g>
   </g>
   <g id="legend_1">
    <g id="patch_7">
     <path d="M 50.78125 60.230625 
L 130.371875 60.230625 
Q 132.371875 60.230625 132.371875 58.230625 
L 132.371875 29.318125 
Q 132.371875 27.318125 130.371875 27.318125 
L 50.78125 27.318125 
Q 48.78125 27.318125 48.78125 29.318125 
L 48.78125 58.230625 
Q 48.78125 60.230625 50.78125 60.230625 
z
" style="fill: #ffffff; opacity: 0.8; stroke: #cccccc; stroke-linejoin: miter"/>
    </g>
    <g id="line2d_31">
     <path d="M 52.78125 35.416563 
L 62.78125 35.416563 
L 72.78125 35.416563 
" style="fill: none; stroke: #1f77b4; stroke-width: 1.5; stroke-linecap: square"/>
    </g>
    <g id="text_18">
     <!-- train_loss -->
     <g transform="translate(80.78125 38.916563) scale(0.1 -0.1)">
      <defs>
       <path id="DejaVuSans-74" d="M 1172 4494 
L 1172 3500 
L 2356 3500 
L 2356 3053 
L 1172 3053 
L 1172 1153 
Q 1172 725 1289 603 
Q 1406 481 1766 481 
L 2356 481 
L 2356 0 
L 1766 0 
Q 1100 0 847 248 
Q 594 497 594 1153 
L 594 3053 
L 172 3053 
L 172 3500 
L 594 3500 
L 594 4494 
L 1172 4494 
z
" transform="scale(0.015625)"/>
       <path id="DejaVuSans-5f" d="M 3263 -1063 
L 3263 -1509 
L -63 -1509 
L -63 -1063 
L 3263 -1063 
z
" transform="scale(0.015625)"/>
      </defs>
      <use xlink:href="#DejaVuSans-74"/>
      <use xlink:href="#DejaVuSans-72" transform="translate(39.208984 0)"/>
      <use xlink:href="#DejaVuSans-61" transform="translate(80.322266 0)"/>
      <use xlink:href="#DejaVuSans-69" transform="translate(141.601562 0)"/>
      <use xlink:href="#DejaVuSans-6e" transform="translate(169.384766 0)"/>
      <use xlink:href="#DejaVuSans-5f" transform="translate(232.763672 0)"/>
      <use xlink:href="#DejaVuSans-6c" transform="translate(282.763672 0)"/>
      <use xlink:href="#DejaVuSans-6f" transform="translate(310.546875 0)"/>
      <use xlink:href="#DejaVuSans-73" transform="translate(371.728516 0)"/>
      <use xlink:href="#DejaVuSans-73" transform="translate(423.828125 0)"/>
     </g>
    </g>
    <g id="line2d_32">
     <path d="M 52.78125 50.372813 
L 62.78125 50.372813 
L 72.78125 50.372813 
" style="fill: none; stroke: #ff7f0e; stroke-width: 1.5; stroke-linecap: square"/>
    </g>
    <g id="text_19">
     <!-- val_loss -->
     <g transform="translate(80.78125 53.872813) scale(0.1 -0.1)">
      <defs>
       <path id="DejaVuSans-76" d="M 191 3500 
L 800 3500 
L 1894 563 
L 2988 3500 
L 3597 3500 
L 2284 0 
L 1503 0 
L 191 3500 
z
" transform="scale(0.015625)"/>
      </defs>
      <use xlink:href="#DejaVuSans-76"/>
      <use xlink:href="#DejaVuSans-61" transform="translate(59.179688 0)"/>
      <use xlink:href="#DejaVuSans-6c" transform="translate(120.458984 0)"/>
      <use xlink:href="#DejaVuSans-5f" transform="translate(148.242188 0)"/>
      <use xlink:href="#DejaVuSans-6c" transform="translate(198.242188 0)"/>
      <use xlink:href="#DejaVuSans-6f" transform="translate(226.025391 0)"/>
      <use xlink:href="#DejaVuSans-73" transform="translate(287.207031 0)"/>
      <use xlink:href="#DejaVuSans-73" transform="translate(339.306641 0)"/>
     </g>
    </g>
   </g>
  </g>
 </g>
 <defs>
  <clipPath id="p04410f83f0">
   <rect x="43.78125" y="22.318125" width="558" height="554.4"/>
  </clipPath>
 </defs>
</svg>
