<?xml version="1.0" encoding="utf-8" standalone="no"?>
<!DOCTYPE svg PUBLIC "-//W3C//DTD SVG 1.1//EN"
  "http://www.w3.org/Graphics/SVG/1.1/DTD/svg11.dtd">
<svg xmlns:xlink="http://www.w3.org/1999/xlink" width="621.70625pt" height="614.274375pt" viewBox="0 0 621.70625 614.274375" xmlns="http://www.w3.org/2000/svg" version="1.1">
 <metadata>
  <rdf:RDF xmlns:dc="http://purl.org/dc/elements/1.1/" xmlns:cc="http://creativecommons.org/ns#" xmlns:rdf="http://www.w3.org/1999/02/22-rdf-syntax-ns#">
   <cc:Work>
    <dc:type rdf:resource="http://purl.org/dc/dcmitype/StillImage"/>
    <dc:date>2026-05-24T19:14:24.547623</dc:date>
    <dc:format>image/svg+xml</dc:format>
    <dc:creator>
     <cc:Agent>
      <dc:title>Matplotlib v3.10.9, https://matplotlib.org/</dc:title>
     </cc:Agent>
    </dc:creator>
   </cc:Work>
  </rdf:RDF>
 </metadata>
 <defs>
  <style type="text/css">*{stroke-linejoin: round; stroke-linecap: butt}</style>
 </defs>
 <g id="figure_1">
  <g id="patch_1">
   <path d="M 0 614.274375 
L 621.70625 614.274375 
L 621.70625 0 
L 0 0 
z
" style="fill: #ffffff"/>
  </g>
  <g id="axes_1">
   <g id="patch_2">
    <path d="M 56.50625 576.718125 
L 614.50625 576.718125 
L 614.50625 22.318125 
L 56.50625 22.318125 
z
" style="fill: #ffffff"/>
   </g>
   <g id="matplotlib.axis_1">
    <g id="xtick_1">
     <g id="line2d_1">
      <path d="M 81.869886 576.718125 
L 81.869886 22.318125 
" clip-path="url(#pa28e3f66bd)" style="fill: none; stroke: #b0b0b0; stroke-width: 0.8; stroke-linecap: square"/>
     </g>
     <g id="line2d_2">
      <defs>
       <path id="m374e3d4554" d="M 0 0 
L 0 3.5 
" style="stroke: #000000; stroke-width: 0.8"/>
      </defs>
      <g>
       <use xlink:href="#m374e3d4554" x="81.869886" y="576.718125" style="stroke: #000000; stroke-width: 0.8"/>
      </g>
     </g>
     <g id="text_1">
      <!-- 0 -->
      <g transform="translate(78.688636 591.316563) scale(0.1 -0.1)">
       <defs>
        <path id="DejaVuSans-30" d="M 2034 4250 
Q 1547 4250 1301 3770 
Q 1056 3291 1056 2328 
Q 1056 1369 1301 889 
Q 1547 409 2034 409 
Q 2525 409 2770 889 
Q 3016 1369 3016 2328 
Q 3016 3291 2770 3770 
Q 2525 4250 2034 4250 
z
M 2034 4750 
Q 2819 4750 3233 4129 
Q 3647 3509 3647 2328 
Q 3647 1150 3233 529 
Q 2819 -91 2034 -91 
Q 1250 -91 836 529 
Q 422 1150 422 2328 
Q 422 3509 836 4129 
Q 1250 4750 2034 4750 
z
" transform="scale(0.015625)"/>
       </defs>
       <use xlink:href="#DejaVuSans-30"/>
      </g>
     </g>
    </g>
    <g id="xtick_2">
     <g id="line2d_3">
      <path d="M 145.358338 576.718125 
L 145.358338 22.318125 
" clip-path="url(#pa28e3f66bd)" style="fill: none; stroke: #b0b0b0; stroke-width: 0.8; stroke-linecap: square"/>
     </g>
     <g id="line2d_4">
      <g>
       <use xlink:href="#m374e3d4554" x="145.358338" y="576.718125" style="stroke: #000000; stroke-width: 0.8"/>
      </g>
     </g>
     <g id="text_2">
      <!-- 100 -->
      <g transform="translate(135.814588 591.316563) scale(0.1 -0.1)">
       <defs>
        <path id="DejaVuSans-31" d="M 794 531 
L 1825 531 
L 1825 4091 
L 703 3866 
L 703 4441 
L 1819 4666 
L 2450 4666 
L 2450 531 
L 3481 531 
L 3481 0 
L 794 0 
L 794 531 
z
" transform="scale(0.015625)"/>
       </defs>
       <use xlink:href="#DejaVuSans-31"/>
       <use xlink:href="#DejaVuSans-30" transform="translate(63.623047 0)"/>
       <use xlink:href="#DejaVuSans-30" transform="translate(127.246094 0)"/>
      </g>
     </g>
    </g>
    <g id="xtick_3">
     <g id="line2d_5">
      <path d="M 208.846789 576.718125 
L 208.846789 22.318125 
" clip-path="url(#pa28e3f66bd)" style="fill: none; stroke: #b0b0b0; stroke-width: 0.8; stroke-linecap: square"/>
     </g>
     <g id="line2d_6">
      <g>
       <use xlink:href="#m374e3d4554" x="208.846789" y="576.718125" style="stroke: #000000; stroke-width: 0.8"/>
      </g>
     </g>
     <g id="text_3">
      <!-- 200 -->
      <g transform="translate(199.303039 591.316563) scale(0.1 -0.1)">
       <defs>
        <path id="DejaVuSans-32" d="M 1228 531 
L 3431 531 
L 3431 0 
L 469 0 
L 469 531 
Q 828 903 1448 1529 
Q 2069 2156 2228 2338 
Q 2531 2678 2651 2914 
Q 2772 3150 2772 3378 
Q 2772 3750 2511 3984 
Q 2250 4219 1831 4219 
Q 1534 4219 1204 4116 
Q 875 4013 500 3803 
L 500 4441 
Q 881 4594 1212 4672 
Q 1544 4750 1819 4750 
Q 2544 4750 2975 4387 
Q 3406 4025 3406 3419 
Q 3406 3131 3298 2873 
Q 3191 2616 2906 2266 
Q 2828 2175 2409 1742 
Q 1991 1309 1228 531 
z
" transform="scale(0.015625)"/>
       </defs>
       <use xlink:href="#DejaVuSans-32"/>
       <use xlink:href="#DejaVuSans-30" transform="translate(63.623047 0)"/>
       <use xlink:href="#DejaVuSans-30" transform="translate(127.246094 0)"/>
      </g>
     </g>
    </g>
    <g id="xtick_4">
     <g id="line2d_7">
      <path d="M 272.335241 576.718125 
L 272.335241 22.318125 
" clip-path="url(#pa28e3f66bd)" style="fill: none; stroke: #b0b0b0; stroke-width: 0.8; stroke-linecap: square"/>
     </g>
     <g id="line2d_8">
      <g>
       <use xlink:href="#m374e3d4554" x="272.335241" y="576.718125" style="stroke: #000000; stroke-width: 0.8"/>
      </g>
     </g>
     <g id="text_4">
      <!-- 300 -->
      <g transform="translate(262.791491 591.316563) scale(0.1 -0.1)">
       <defs>
        <path id="DejaVuSans-33" d="M 2597 2516 
Q 3050 2419 3304 2112 
Q 3559 1806 3559 1356 
Q 3559 666 3084 287 
Q 2609 -91 1734 -91 
Q 1441 -91 1130 -33 
Q 819 25 488 141 
L 488 750 
Q 750 597 1062 519 
Q 1375 441 1716 441 
Q 2309 441 2620 675 
Q 2931 909 2931 1356 
Q 2931 1769 2642 2001 
Q 2353 2234 1838 2234 
L 1294 2234 
L 1294 2753 
L 1863 2753 
Q 2328 2753 2575 2939 
Q 2822 3125 2822 3475 
Q 2822 3834 2567 4026 
Q 2313 4219 1838 4219 
Q 1578 4219 1281 4162 
Q 984 4106 628 3988 
L 628 4550 
Q 988 4650 1302 4700 
Q 1616 4750 1894 4750 
Q 2613 4750 3031 4423 
Q 3450 4097 3450 3541 
Q 3450 3153 3228 2886 
Q 3006 2619 2597 2516 
z
" transform="scale(0.015625)"/>
       </defs>
       <use xlink:href="#DejaVuSans-33"/>
       <use xlink:href="#DejaVuSans-30" transform="translate(63.623047 0)"/>
       <use xlink:href="#DejaVuSans-30" transform="translate(127.246094 0)"/>
      </g>
     </g>
    </g>
    <g id="xtick_5">
     <g id="line2d_9">
      <path d="M 335.823692 576.718125 
L 335.823692 22.318125 
" clip-path="url(#pa28e3f66bd)" style="fill: none; stroke: #b0b0b0; stroke-width: 0.8; stroke-linecap: square"/>
     </g>
     <g id="line2d_10">
      <g>
       <use xlink:href="#m374e3d4554" x="335.823692" y="576.718125" style="stroke: #000000; stroke-width: 0.8"/>
      </g>
     </g>
     <g id="text_5">
      <!-- 400 -->
      <g transform="translate(326.279942 591.316563) scale(0.1 -0.1)">
       <defs>
        <path id="DejaVuSans-34" d="M 2419 4116 
L 825 1625 
L 2419 1625 
L 2419 4116 
z
M 2253 4666 
L 3047 4666 
L 3047 1625 
L 3713 1625 
L 3713 1100 
L 3047 1100 
L 3047 0 
L 2419 0 
L 2419 1100 
L 313 1100 
L 313 1709 
L 2253 4666 
z
" transform="scale(0.015625)"/>
       </defs>
       <use xlink:href="#DejaVuSans-34"/>
       <use xlink:href="#DejaVuSans-30" transform="translate(63.623047 0)"/>
       <use xlink:href="#DejaVuSans-30" transform="translate(127.246094 0)"/>
      </g>
     </g>
    </g>
    <g id="xtick_6">
     <g id="line2d_11">
      <path d="M 399.312144 576.718125 
L 399.312144 22.318125 
" clip-path="url(#pa28e3f66bd)" style="fill: none; stroke: #b0b0b0; stroke-width: 0.8; stroke-linecap: square"/>
     </g>
     <g id="line2d_12">
      <g>
       <use xlink:href="#m374e3d4554" x="399.312144" y="576.718125" style="stroke: #000000; stroke-width: 0.8"/>
      </g>
     </g>
     <g id="text_6">
      <!-- 500 -->
      <g transform="translate(389.768394 591.316563) scale(0.1 -0.1)">
       <defs>
        <path id="DejaVuSans-35" d="M 691 4666 
L 3169 4666 
L 3169 4134 
L 1269 4134 
L 1269 2991 
Q 1406 3038 1543 3061 
Q 1681 3084 1819 3084 
Q 2600 3084 3056 2656 
Q 3513 2228 3513 1497 
Q 3513 744 3044 326 
Q 2575 -91 1722 -91 
Q 1428 -91 1123 -41 
Q 819 9 494 109 
L 494 744 
Q 775 591 1075 516 
Q 1375 441 1709 441 
Q 2250 441 2565 725 
Q 2881 1009 2881 1497 
Q 2881 1984 2565 2268 
Q 2250 2553 1709 2553 
Q 1456 2553 1204 2497 
Q 953 2441 691 2322 
L 691 4666 
z
" transform="scale(0.015625)"/>
       </defs>
       <use xlink:href="#DejaVuSans-35"/>
       <use xlink:href="#DejaVuSans-30" transform="translate(63.623047 0)"/>
       <use xlink:href="#DejaVuSans-30" transform="translate(127.246094 0)"/>
      </g>
     </g>
    </g>
    <g id="xtick_7">
     <g id="line2d_13">
      <path d="M 462.800595 576.718125 
L 462.800595 22.318125 
" clip-path="url(#pa28e3f66bd)" style="fill: none; stroke: #b0b0b0; stroke-width: 0.8; stroke-linecap: square"/>
     </g>
     <g id="line2d_14">
      <g>
       <use xlink:href="#m374e3d4554" x="462.800595" y="576.718125" style="stroke: #000000; stroke-width: 0.8"/>
      </g>
     </g>
     <g id="text_7">
      <!-- 600 -->
      <g transform="translate(453.256845 591.316563) scale(0.1 -0.1)">
       <defs>
        <path id="DejaVuSans-36" d="M 2113 2584 
Q 1688 2584 1439 2293 
Q 1191 2003 1191 1497 
Q 1191 994 1439 701 
Q 1688 409 2113 409 
Q 2538 409 2786 701 
Q 3034 994 3034 1497 
Q 3034 2003 2786 2293 
Q 2538 2584 2113 2584 
z
M 3366 4563 
L 3366 3988 
Q 3128 4100 2886 4159 
Q 2644 4219 2406 4219 
Q 1781 4219 1451 3797 
Q 1122 3375 1075 2522 
Q 1259 2794 1537 2939 
Q 1816 3084 2150 3084 
Q 2853 3084 3261 2657 
Q 3669 2231 3669 1497 
Q 3669 778 3244 343 
Q 2819 -91 2113 -91 
Q 1303 -91 875 529 
Q 447 1150 447 2328 
Q 447 3434 972 4092 
Q 1497 4750 2381 4750 
Q 2619 4750 2861 4703 
Q 3103 4656 3366 4563 
z
" transform="scale(0.015625)"/>
       </defs>
       <use xlink:href="#DejaVuSans-36"/>
       <use xlink:href="#DejaVuSans-30" transform="translate(63.623047 0)"/>
       <use xlink:href="#DejaVuSans-30" transform="translate(127.246094 0)"/>
      </g>
     </g>
    </g>
    <g id="xtick_8">
     <g id="line2d_15">
      <path d="M 526.289047 576.718125 
L 526.289047 22.318125 
" clip-path="url(#pa28e3f66bd)" style="fill: none; stroke: #b0b0b0; stroke-width: 0.8; stroke-linecap: square"/>
     </g>
     <g id="line2d_16">
      <g>
       <use xlink:href="#m374e3d4554" x="526.289047" y="576.718125" style="stroke: #000000; stroke-width: 0.8"/>
      </g>
     </g>
     <g id="text_8">
      <!-- 700 -->
      <g transform="translate(516.745297 591.316563) scale(0.1 -0.1)">
       <defs>
        <path id="DejaVuSans-37" d="M 525 4666 
L 3525 4666 
L 3525 4397 
L 1831 0 
L 1172 0 
L 2766 4134 
L 525 4134 
L 525 4666 
z
" transform="scale(0.015625)"/>
       </defs>
       <use xlink:href="#DejaVuSans-37"/>
       <use xlink:href="#DejaVuSans-30" transform="translate(63.623047 0)"/>
       <use xlink:href="#DejaVuSans-30" transform="translate(127.246094 0)"/>
      </g>
     </g>
    </g>
    <g id="xtick_9">
     <g id="line2d_17">
      <path d="M 589.777498 576.718125 
L 589.777498 22.318125 
" clip-path="url(#pa28e3f66bd)" style="fill: none; stroke: #b0b0b0; stroke-width: 0.8; stroke-linecap: square"/>
     </g>
     <g id="line2d_18">
      <g>
       <use xlink:href="#m374e3d4554" x="589.777498" y="576.718125" style="stroke: #000000; stroke-width: 0.8"/>
      </g>
     </g>
     <g id="text_9">
      <!-- 800 -->
      <g transform="translate(580.233748 591.316563) scale(0.1 -0.1)">
       <defs>
        <path id="DejaVuSans-38" d="M 2034 2216 
Q 1584 2216 1326 1975 
Q 1069 1734 1069 1313 
Q 1069 891 1326 650 
Q 1584 409 2034 409 
Q 2484 409 2743 651 
Q 3003 894 3003 1313 
Q 3003 1734 2745 1975 
Q 2488 2216 2034 2216 
z
M 1403 2484 
Q 997 2584 770 2862 
Q 544 3141 544 3541 
Q 544 4100 942 4425 
Q 1341 4750 2034 4750 
Q 2731 4750 3128 4425 
Q 3525 4100 3525 3541 
Q 3525 3141 3298 2862 
Q 3072 2584 2669 2484 
Q 3125 2378 3379 2068 
Q 3634 1759 3634 1313 
Q 3634 634 3220 271 
Q 2806 -91 2034 -91 
Q 1263 -91 848 271 
Q 434 634 434 1313 
Q 434 1759 690 2068 
Q 947 2378 1403 2484 
z
M 1172 3481 
Q 1172 3119 1398 2916 
Q 1625 2713 2034 2713 
Q 2441 2713 2670 2916 
Q 2900 3119 2900 3481 
Q 2900 3844 2670 4047 
Q 2441 4250 2034 4250 
Q 1625 4250 1398 4047 
Q 1172 3844 1172 3481 
z
" transform="scale(0.015625)"/>
       </defs>
       <use xlink:href="#DejaVuSans-38"/>
       <use xlink:href="#DejaVuSans-30" transform="translate(63.623047 0)"/>
       <use xlink:href="#DejaVuSans-30" transform="translate(127.246094 0)"/>
      </g>
     </g>
    </g>
    <g id="text_10">
     <!-- Epochs -->
     <g transform="translate(317.590625 604.994688) scale(0.1 -0.1)">
      <defs>
       <path id="DejaVuSans-45" d="M 628 4666 
L 3578 4666 
L 3578 4134 
L 1259 4134 
L 1259 2753 
L 3481 2753 
L 3481 2222 
L 1259 2222 
L 1259 531 
L 3634 531 
L 3634 0 
L 628 0 
L 628 4666 
z
" transform="scale(0.015625)"/>
       <path id="DejaVuSans-70" d="M 1159 525 
L 1159 -1331 
L 581 -1331 
L 581 3500 
L 1159 3500 
L 1159 2969 
Q 1341 3281 1617 3432 
Q 1894 3584 2278 3584 
Q 2916 3584 3314 3078 
Q 3713 2572 3713 1747 
Q 3713 922 3314 415 
Q 2916 -91 2278 -91 
Q 1894 -91 1617 61 
Q 1341 213 1159 525 
z
M 3116 1747 
Q 3116 2381 2855 2742 
Q 2594 3103 2138 3103 
Q 1681 3103 1420 2742 
Q 1159 2381 1159 1747 
Q 1159 1113 1420 752 
Q 1681 391 2138 391 
Q 2594 391 2855 752 
Q 3116 1113 3116 1747 
z
" transform="scale(0.015625)"/>
       <path id="DejaVuSans-6f" d="M 1959 3097 
Q 1497 3097 1228 2736 
Q 959 2375 959 1747 
Q 959 1119 1226 758 
Q 1494 397 1959 397 
Q 2419 397 2687 759 
Q 2956 1122 2956 1747 
Q 2956 2369 2687 2733 
Q 2419 3097 1959 3097 
z
M 1959 3584 
Q 2709 3584 3137 3096 
Q 3566 2609 3566 1747 
Q 3566 888 3137 398 
Q 2709 -91 1959 -91 
Q 1206 -91 779 398 
Q 353 888 353 1747 
Q 353 2609 779 3096 
Q 1206 3584 1959 3584 
z
" transform="scale(0.015625)"/>
       <path id="DejaVuSans-63" d="M 3122 3366 
L 3122 2828 
Q 2878 2963 2633 3030 
Q 2388 3097 2138 3097 
Q 1578 3097 1268 2742 
Q 959 2388 959 1747 
Q 959 1106 1268 751 
Q 1578 397 2138 397 
Q 2388 397 2633 464 
Q 2878 531 3122 666 
L 3122 134 
Q 2881 22 2623 -34 
Q 2366 -91 2075 -91 
Q 1284 -91 818 406 
Q 353 903 353 1747 
Q 353 2603 823 3093 
Q 1294 3584 2113 3584 
Q 2378 3584 2631 3529 
Q 2884 3475 3122 3366 
z
" transform="scale(0.015625)"/>
       <path id="DejaVuSans-68" d="M 3513 2113 
L 3513 0 
L 2938 0 
L 2938 2094 
Q 2938 2591 2744 2837 
Q 2550 3084 2163 3084 
Q 1697 3084 1428 2787 
Q 1159 2491 1159 1978 
L 1159 0 
L 581 0 
L 581 4863 
L 1159 4863 
L 1159 2956 
Q 1366 3272 1645 3428 
Q 1925 3584 2291 3584 
Q 2894 3584 3203 3211 
Q 3513 2838 3513 2113 
z
" transform="scale(0.015625)"/>
       <path id="DejaVuSans-73" d="M 2834 3397 
L 2834 2853 
Q 2591 2978 2328 3040 
Q 2066 3103 1784 3103 
Q 1356 3103 1142 2972 
Q 928 2841 928 2578 
Q 928 2378 1081 2264 
Q 1234 2150 1697 2047 
L 1894 2003 
Q 2506 1872 2764 1633 
Q 3022 1394 3022 966 
Q 3022 478 2636 193 
Q 2250 -91 1575 -91 
Q 1294 -91 989 -36 
Q 684 19 347 128 
L 347 722 
Q 666 556 975 473 
Q 1284 391 1588 391 
Q 1994 391 2212 530 
Q 2431 669 2431 922 
Q 2431 1156 2273 1281 
Q 2116 1406 1581 1522 
L 1381 1569 
Q 847 1681 609 1914 
Q 372 2147 372 2553 
Q 372 3047 722 3315 
Q 1072 3584 1716 3584 
Q 2034 3584 2315 3537 
Q 2597 3491 2834 3397 
z
" transform="scale(0.015625)"/>
      </defs>
      <use xlink:href="#DejaVuSans-45"/>
      <use xlink:href="#DejaVuSans-70" transform="translate(63.183594 0)"/>
      <use xlink:href="#DejaVuSans-6f" transform="translate(126.660156 0)"/>
      <use xlink:href="#DejaVuSans-63" transform="translate(187.841797 0)"/>
      <use xlink:href="#DejaVuSans-68" transform="translate(242.822266 0)"/>
      <use xlink:href="#DejaVuSans-73" transform="translate(306.201172 0)"/>
     </g>
    </g>
   </g>
   <g id="matplotlib.axis_2">
    <g id="ytick_1">
     <g id="line2d_19">
      <path d="M 56.50625 561.690244 
L 614.50625 561.690244 
" clip-path="url(#pa28e3f66bd)" style="fill: none; stroke: #b0b0b0; stroke-width: 0.8; stroke-linecap: square"/>
     </g>
     <g id="line2d_20">
      <defs>
       <path id="m371446551e" d="M 0 0 
L -3.5 0 
" style="stroke: #000000; stroke-width: 0.8"/>
      </defs>
      <g>
       <use xlink:href="#m371446551e" x="56.50625" y="561.690244" style="stroke: #000000; stroke-width: 0.8"/>
      </g>
     </g>
     <g id="text_11">
      <!-- 0.000 -->
      <g transform="translate(20.878125 565.489463) scale(0.1 -0.1)">
       <defs>
        <path id="DejaVuSans-2e" d="M 684 794 
L 1344 794 
L 1344 0 
L 684 0 
L 684 794 
z
" transform="scale(0.015625)"/>
       </defs>
       <use xlink:href="#DejaVuSans-30"/>
       <use xlink:href="#DejaVuSans-2e" transform="translate(63.623047 0)"/>
       <use xlink:href="#DejaVuSans-30" transform="translate(95.410156 0)"/>
       <use xlink:href="#DejaVuSans-30" transform="translate(159.033203 0)"/>
       <use xlink:href="#DejaVuSans-30" transform="translate(222.65625 0)"/>
      </g>
     </g>
    </g>
    <g id="ytick_2">
     <g id="line2d_21">
      <path d="M 56.50625 496.588683 
L 614.50625 496.588683 
" clip-path="url(#pa28e3f66bd)" style="fill: none; stroke: #b0b0b0; stroke-width: 0.8; stroke-linecap: square"/>
     </g>
     <g id="line2d_22">
      <g>
       <use xlink:href="#m371446551e" x="56.50625" y="496.588683" style="stroke: #000000; stroke-width: 0.8"/>
      </g>
     </g>
     <g id="text_12">
      <!-- 0.025 -->
      <g transform="translate(20.878125 500.387902) scale(0.1 -0.1)">
       <use xlink:href="#DejaVuSans-30"/>
       <use xlink:href="#DejaVuSans-2e" transform="translate(63.623047 0)"/>
       <use xlink:href="#DejaVuSans-30" transform="translate(95.410156 0)"/>
       <use xlink:href="#DejaVuSans-32" transform="translate(159.033203 0)"/>
       <use xlink:href="#DejaVuSans-35" transform="translate(222.65625 0)"/>
      </g>
     </g>
    </g>
    <g id="ytick_3">
     <g id="line2d_23">
      <path d="M 56.50625 431.487122 
L 614.50625 431.487122 
" clip-path="url(#pa28e3f66bd)" style="fill: none; stroke: #b0b0b0; stroke-width: 0.8; stroke-linecap: square"/>
     </g>
     <g id="line2d_24">
      <g>
       <use xlink:href="#m371446551e" x="56.50625" y="431.487122" style="stroke: #000000; stroke-width: 0.8"/>
      </g>
     </g>
     <g id="text_13">
      <!-- 0.050 -->
      <g transform="translate(20.878125 435.286341) scale(0.1 -0.1)">
       <use xlink:href="#DejaVuSans-30"/>
       <use xlink:href="#DejaVuSans-2e" transform="translate(63.623047 0)"/>
       <use xlink:href="#DejaVuSans-30" transform="translate(95.410156 0)"/>
       <use xlink:href="#DejaVuSans-35" transform="translate(159.033203 0)"/>
       <use xlink:href="#DejaVuSans-30" transform="translate(222.65625 0)"/>
      </g>
     </g>
    </g>
    <g id="ytick_4">
     <g id="line2d_25">
      <path d="M 56.50625 366.385562 
L 614.50625 366.385562 
" clip-path="url(#pa28e3f66bd)" style="fill: none; stroke: #b0b0b0; stroke-width: 0.8; stroke-linecap: square"/>
     </g>
     <g id="line2d_26">
      <g>
       <use xlink:href="#m371446551e" x="56.50625" y="366.385562" style="stroke: #000000; stroke-width: 0.8"/>
      </g>
     </g>
     <g id="text_14">
      <!-- 0.075 -->
      <g transform="translate(20.878125 370.18478) scale(0.1 -0.1)">
       <use xlink:href="#DejaVuSans-30"/>
       <use xlink:href="#DejaVuSans-2e" transform="translate(63.623047 0)"/>
       <use xlink:href="#DejaVuSans-30" transform="translate(95.410156 0)"/>
       <use xlink:href="#DejaVuSans-37" transform="translate(159.033203 0)"/>
       <use xlink:href="#DejaVuSans-35" transform="translate(222.65625 0)"/>
      </g>
     </g>
    </g>
    <g id="ytick_5">
     <g id="line2d_27">
      <path d="M 56.50625 301.284001 
L 614.50625 301.284001 
" clip-path="url(#pa28e3f66bd)" style="fill: none; stroke: #b0b0b0; stroke-width: 0.8; stroke-linecap: square"/>
     </g>
     <g id="line2d_28">
      <g>
       <use xlink:href="#m371446551e" x="56.50625" y="301.284001" style="stroke: #000000; stroke-width: 0.8"/>
      </g>
     </g>
     <g id="text_15">
      <!-- 0.100 -->
      <g transform="translate(20.878125 305.08322) scale(0.1 -0.1)">
       <use xlink:href="#DejaVuSans-30"/>
       <use xlink:href="#DejaVuSans-2e" transform="translate(63.623047 0)"/>
       <use xlink:href="#DejaVuSans-31" transform="translate(95.410156 0)"/>
       <use xlink:href="#DejaVuSans-30" transform="translate(159.033203 0)"/>
       <use xlink:href="#DejaVuSans-30" transform="translate(222.65625 0)"/>
      </g>
     </g>
    </g>
    <g id="ytick_6">
     <g id="line2d_29">
      <path d="M 56.50625 236.18244 
L 614.50625 236.18244 
" clip-path="url(#pa28e3f66bd)" style="fill: none; stroke: #b0b0b0; stroke-width: 0.8; stroke-linecap: square"/>
     </g>
     <g id="line2d_30">
      <g>
       <use xlink:href="#m371446551e" x="56.50625" y="236.18244" style="stroke: #000000; stroke-width: 0.8"/>
      </g>
     </g>
     <g id="text_16">
      <!-- 0.125 -->
      <g transform="translate(20.878125 239.981659) scale(0.1 -0.1)">
       <use xlink:href="#DejaVuSans-30"/>
       <use xlink:href="#DejaVuSans-2e" transform="translate(63.623047 0)"/>
       <use xlink:href="#DejaVuSans-31" transform="translate(95.410156 0)"/>
       <use xlink:href="#DejaVuSans-32" transform="translate(159.033203 0)"/>
       <use xlink:href="#DejaVuSans-35" transform="translate(222.65625 0)"/>
      </g>
     </g>
    </g>
    <g id="ytick_7">
     <g id="line2d_31">
      <path d="M 56.50625 171.08088 
L 614.50625 171.08088 
" clip-path="url(#pa28e3f66bd)" style="fill: none; stroke: #b0b0b0; stroke-width: 0.8; stroke-linecap: square"/>
     </g>
     <g id="line2d_32">
      <g>
       <use xlink:href="#m371446551e" x="56.50625" y="171.08088" style="stroke: #000000; stroke-width: 0.8"/>
      </g>
     </g>
     <g id="text_17">
      <!-- 0.150 -->
      <g transform="translate(20.878125 174.880098) scale(0.1 -0.1)">
       <use xlink:href="#DejaVuSans-30"/>
       <use xlink:href="#DejaVuSans-2e" transform="translate(63.623047 0)"/>
       <use xlink:href="#DejaVuSans-31" transform="translate(95.410156 0)"/>
       <use xlink:href="#DejaVuSans-35" transform="translate(159.033203 0)"/>
       <use xlink:href="#DejaVuSans-30" transform="translate(222.65625 0)"/>
      </g>
     </g>
    </g>
    <g id="ytick_8">
     <g id="line2d_33">
      <path d="M 56.50625 105.979319 
L 614.50625 105.979319 
" clip-path="url(#pa28e3f66bd)" style="fill: none; stroke: #b0b0b0; stroke-width: 0.8; stroke-linecap: square"/>
     </g>
     <g id="line2d_34">
      <g>
       <use xlink:href="#m371446551e" x="56.50625" y="105.979319" style="stroke: #000000; stroke-width: 0.8"/>
      </g>
     </g>
     <g id="text_18">
      <!-- 0.175 -->
      <g transform="translate(20.878125 109.778538) scale(0.1 -0.1)">
       <use xlink:href="#DejaVuSans-30"/>
       <use xlink:href="#DejaVuSans-2e" transform="translate(63.623047 0)"/>
       <use xlink:href="#DejaVuSans-31" transform="translate(95.410156 0)"/>
       <use xlink:href="#DejaVuSans-37" transform="translate(159.033203 0)"/>
       <use xlink:href="#DejaVuSans-35" transform="translate(222.65625 0)"/>
      </g>
     </g>
    </g>
    <g id="ytick_9">
     <g id="line2d_35">
      <path d="M 56.50625 40.877758 
L 614.50625 40.877758 
" clip-path="url(#pa28e3f66bd)" style="fill: none; stroke: #b0b0b0; stroke-width: 0.8; stroke-linecap: square"/>
     </g>
     <g id="line2d_36">
      <g>
       <use xlink:href="#m371446551e" x="56.50625" y="40.877758" style="stroke: #000000; stroke-width: 0.8"/>
      </g>
     </g>
     <g id="text_19">
      <!-- 0.200 -->
      <g transform="translate(20.878125 44.676977) scale(0.1 -0.1)">
       <use xlink:href="#DejaVuSans-30"/>
       <use xlink:href="#DejaVuSans-2e" transform="translate(63.623047 0)"/>
       <use xlink:href="#DejaVuSans-32" transform="translate(95.410156 0)"/>
       <use xlink:href="#DejaVuSans-30" transform="translate(159.033203 0)"/>
       <use xlink:href="#DejaVuSans-30" transform="translate(222.65625 0)"/>
      </g>
     </g>
    </g>
    <g id="text_20">
     <!-- Accuracy -->
     <g transform="translate(14.798437 322.34625) rotate(-90) scale(0.1 -0.1)">
      <defs>
       <path id="DejaVuSans-41" d="M 2188 4044 
L 1331 1722 
L 3047 1722 
L 2188 4044 
z
M 1831 4666 
L 2547 4666 
L 4325 0 
L 3669 0 
L 3244 1197 
L 1141 1197 
L 716 0 
L 50 0 
L 1831 4666 
z
" transform="scale(0.015625)"/>
       <path id="DejaVuSans-75" d="M 544 1381 
L 544 3500 
L 1119 3500 
L 1119 1403 
Q 1119 906 1312 657 
Q 1506 409 1894 409 
Q 2359 409 2629 706 
Q 2900 1003 2900 1516 
L 2900 3500 
L 3475 3500 
L 3475 0 
L 2900 0 
L 2900 538 
Q 2691 219 2414 64 
Q 2138 -91 1772 -91 
Q 1169 -91 856 284 
Q 544 659 544 1381 
z
M 1991 3584 
L 1991 3584 
z
" transform="scale(0.015625)"/>
       <path id="DejaVuSans-72" d="M 2631 2963 
Q 2534 3019 2420 3045 
Q 2306 3072 2169 3072 
Q 1681 3072 1420 2755 
Q 1159 2438 1159 1844 
L 1159 0 
L 581 0 
L 581 3500 
L 1159 3500 
L 1159 2956 
Q 1341 3275 1631 3429 
Q 1922 3584 2338 3584 
Q 2397 3584 2469 3576 
Q 2541 3569 2628 3553 
L 2631 2963 
z
" transform="scale(0.015625)"/>
       <path id="DejaVuSans-61" d="M 2194 1759 
Q 1497 1759 1228 1600 
Q 959 1441 959 1056 
Q 959 750 1161 570 
Q 1363 391 1709 391 
Q 2188 391 2477 730 
Q 2766 1069 2766 1631 
L 2766 1759 
L 2194 1759 
z
M 3341 1997 
L 3341 0 
L 2766 0 
L 2766 531 
Q 2569 213 2275 61 
Q 1981 -91 1556 -91 
Q 1019 -91 701 211 
Q 384 513 384 1019 
Q 384 1609 779 1909 
Q 1175 2209 1959 2209 
L 2766 2209 
L 2766 2266 
Q 2766 2663 2505 2880 
Q 2244 3097 1772 3097 
Q 1472 3097 1187 3025 
Q 903 2953 641 2809 
L 641 3341 
Q 956 3463 1253 3523 
Q 1550 3584 1831 3584 
Q 2591 3584 2966 3190 
Q 3341 2797 3341 1997 
z
" transform="scale(0.015625)"/>
       <path id="DejaVuSans-79" d="M 2059 -325 
Q 1816 -950 1584 -1140 
Q 1353 -1331 966 -1331 
L 506 -1331 
L 506 -850 
L 844 -850 
Q 1081 -850 1212 -737 
Q 1344 -625 1503 -206 
L 1606 56 
L 191 3500 
L 800 3500 
L 1894 763 
L 2988 3500 
L 3597 3500 
L 2059 -325 
z
" transform="scale(0.015625)"/>
      </defs>
      <use xlink:href="#DejaVuSans-41"/>
      <use xlink:href="#DejaVuSans-63" transform="translate(66.658203 0)"/>
      <use xlink:href="#DejaVuSans-63" transform="translate(121.638672 0)"/>
      <use xlink:href="#DejaVuSans-75" transform="translate(176.619141 0)"/>
      <use xlink:href="#DejaVuSans-72" transform="translate(239.998047 0)"/>
      <use xlink:href="#DejaVuSans-61" transform="translate(281.111328 0)"/>
      <use xlink:href="#DejaVuSans-63" transform="translate(342.390625 0)"/>
      <use xlink:href="#DejaVuSans-79" transform="translate(397.371094 0)"/>
     </g>
    </g>
   </g>
   <g id="line2d_37">
    <path d="M 81.869886 252.414433 
L 82.504771 211.689792 
L 83.139655 211.574041 
L 83.77454 213.613905 
L 84.409424 213.179888 
L 85.044309 225.69384 
L 85.679193 235.039559 
L 86.948962 261.586526 
L 87.583847 258.967984 
L 88.218732 269.702502 
L 88.853616 267.792863 
L 89.488501 274.114952 
L 90.123385 273.18906 
L 90.75827 271.134742 
L 91.393154 268.154532 
L 92.028039 270.06419 
L 92.662923 270.657341 
L 93.297808 267.344391 
L 94.567577 271.872572 
L 95.202461 265.637287 
L 95.837346 263.467237 
L 96.47223 265.232197 
L 97.107115 261.977122 
L 97.741999 260.617232 
L 98.376884 262.295408 
L 99.011768 257.058345 
L 99.646653 261.832463 
L 100.281537 256.407318 
L 100.916422 256.04565 
L 101.551306 253.32585 
L 102.186191 258.432709 
L 102.821075 250.374588 
L 103.45596 253.484984 
L 104.090844 252.573566 
L 104.725729 250.302239 
L 105.360613 248.681938 
L 105.995498 246.063416 
L 106.630382 248.233466 
L 107.265267 242.258592 
L 107.900151 242.808341 
L 108.535036 242.21519 
L 109.16992 243.271268 
L 109.804805 239.249454 
L 110.43969 240.840826 
L 111.074574 236.717716 
L 111.709459 237.484474 
L 112.344343 235.936503 
L 112.979228 231.10453 
L 113.614112 230.612656 
L 114.248997 230.786263 
L 114.883881 233.129881 
L 115.518766 226.692061 
L 116.15365 230.236494 
L 116.788535 226.315938 
L 117.423419 227.545623 
L 118.058304 224.116941 
L 118.693188 222.091551 
L 119.328073 221.455017 
L 119.962957 223.871004 
L 120.597842 218.040809 
L 121.232726 218.388023 
L 121.867611 215.639296 
L 123.13738 216.116696 
L 123.772264 211.197918 
L 124.407149 214.105779 
L 125.042033 210.272027 
L 125.676918 208.825314 
L 126.311802 208.507047 
L 126.946687 204.846902 
L 127.581571 208.058556 
L 128.216456 205.324302 
L 129.486225 203.168726 
L 130.121109 202.604483 
L 130.755994 200.463381 
L 131.390879 200.289774 
L 132.025763 199.537489 
L 132.660648 198.351187 
L 133.295532 195.414379 
L 133.930417 195.125059 
L 134.565301 193.996613 
L 135.200186 195.60246 
L 137.104839 189.482906 
L 137.739724 188.209839 
L 138.374608 189.410576 
L 139.009493 186.343582 
L 139.644377 188.499159 
L 140.279262 186.155502 
L 141.549031 185.518968 
L 142.183915 182.885953 
L 142.8188 181.598412 
L 143.453684 182.4375 
L 144.723453 180.296359 
L 145.358338 178.140783 
L 145.993222 177.750186 
L 146.628107 176.260052 
L 147.262991 177.301695 
L 147.897876 176.115392 
L 148.53276 173.699406 
L 149.167645 175.927312 
L 149.802529 173.178584 
L 150.437414 174.003199 
L 151.072298 171.992321 
L 151.707183 170.791545 
L 152.342067 171.572777 
L 152.976952 170.979626 
L 153.611837 169.272502 
L 154.246721 168.983144 
L 154.881606 170.863875 
L 155.51649 168.447888 
L 156.151375 167.247112 
L 157.421144 166.205508 
L 158.056028 165.29409 
L 159.325797 164.455002 
L 159.960682 163.080619 
L 160.595566 161.17098 
L 161.230451 161.850934 
L 161.865335 160.360839 
L 162.50022 160.505499 
L 163.135104 161.084176 
L 163.769989 158.740519 
L 164.404873 157.858049 
L 165.039758 156.628325 
L 165.674642 156.700655 
L 166.309527 157.178094 
L 167.579296 154.92124 
L 168.21418 154.414893 
L 168.849065 153.677043 
L 169.483949 152.41845 
L 170.118834 153.098366 
L 170.753718 151.564888 
L 171.388603 153.214117 
L 172.023487 152.432885 
L 172.658372 149.785435 
L 173.293256 148.975294 
L 173.928141 146.718441 
L 174.563026 149.10548 
L 175.19791 148.917399 
L 175.832795 148.034929 
L 176.467679 146.31337 
L 177.102564 146.920956 
L 177.737448 146.255476 
L 178.372333 145.835931 
L 179.007217 144.490496 
L 179.642102 144.461587 
L 180.911871 141.669439 
L 181.546755 143.506748 
L 182.18164 139.716378 
L 182.816524 142.508527 
L 183.451409 140.381859 
L 184.086293 139.991263 
L 184.721178 138.486694 
L 185.356062 137.343813 
L 185.990947 138.515641 
L 186.625831 135.130341 
L 187.260716 135.723493 
L 187.8956 135.926047 
L 188.530485 135.014629 
L 189.165369 133.350927 
L 189.800254 134.768692 
L 190.435138 133.206228 
L 191.070023 133.336453 
L 191.704907 134.088738 
L 192.339792 132.323758 
L 193.609561 129.806494 
L 194.244445 131.48467 
L 194.87933 129.763073 
L 195.514215 128.952932 
L 196.149099 128.663613 
L 196.783984 129.705216 
L 197.418868 129.213343 
L 198.688637 126.681605 
L 199.323522 126.363338 
L 199.958406 126.464615 
L 200.593291 127.187952 
L 201.228175 126.189731 
L 201.86306 124.656214 
L 202.497944 125.495303 
L 203.132829 123.484386 
L 203.767713 123.788218 
L 204.402598 124.366895 
L 205.037482 124.670688 
L 205.672367 121.704971 
L 206.307251 121.516891 
L 206.942136 120.084651 
L 207.57702 117.986931 
L 208.211905 121.748354 
L 208.846789 120.952687 
L 209.481674 118.420949 
L 210.116558 118.86944 
L 210.751443 117.379306 
L 211.386327 119.173233 
L 212.021212 116.265373 
L 212.656096 117.668664 
L 213.290981 117.986931 
L 213.925865 116.135148 
L 214.56075 115.715604 
L 215.195634 116.236425 
L 215.830519 114.485919 
L 216.465403 115.006741 
L 217.100288 114.558249 
L 217.735173 112.909021 
L 218.370057 113.545554 
L 219.004942 111.867378 
L 220.274711 114.326786 
L 220.909595 114.153179 
L 221.54448 112.822217 
L 222.179364 110.62322 
L 222.814249 111.520203 
L 223.449133 111.259792 
L 224.084018 110.087963 
L 224.718902 110.377283 
L 225.353787 110.536416 
L 225.988671 109.755223 
L 226.623556 109.292258 
L 227.25844 108.583394 
L 227.893325 109.581616 
L 228.528209 108.207233 
L 229.163094 108.626777 
L 229.797978 108.048099 
L 230.432863 108.250654 
L 231.067747 106.340976 
L 231.702632 105.516361 
L 232.337516 107.90344 
L 232.972401 106.109513 
L 233.607285 107.324762 
L 234.24217 105.979327 
L 235.511939 103.953936 
L 236.146823 104.315624 
L 236.781708 105.689969 
L 237.416592 106.21079 
L 238.051477 104.51814 
L 238.686362 104.243294 
L 239.321246 103.809277 
L 239.956131 101.205209 
L 240.591015 102.27576 
L 241.2259 102.839964 
L 241.860784 101.957493 
L 242.495669 102.868911 
L 243.765438 101.277539 
L 244.400322 101.79836 
L 245.035207 99.62831 
L 245.670091 101.002654 
L 246.304976 99.599363 
L 247.574745 100.452924 
L 248.209629 97.993516 
L 248.844514 100.221461 
L 249.479398 100.25037 
L 250.114283 98.789222 
L 250.749167 97.805474 
L 252.018936 98.658997 
L 252.653821 97.414839 
L 253.288705 97.588446 
L 253.92359 99.324478 
L 254.558474 97.950134 
L 255.193359 97.19785 
L 255.828243 97.284653 
L 256.463128 97.93566 
L 257.098012 95.114603 
L 257.732897 96.488947 
L 258.367781 98.615615 
L 259.002666 96.083877 
L 259.63755 94.651638 
L 260.272435 95.056708 
L 260.90732 95.230315 
L 261.542204 94.868666 
L 262.177089 94.940996 
L 262.811973 94.188712 
L 263.446858 94.752915 
L 264.081742 93.957248 
L 264.716627 94.232094 
L 265.351511 94.709533 
L 265.986396 94.912049 
L 266.62128 92.452679 
L 267.256165 92.163321 
L 267.891049 93.060265 
L 268.525934 90.933637 
L 269.160818 92.597339 
L 269.795703 92.85775 
L 270.430587 92.669669 
L 271.065472 89.284369 
L 271.700356 91.541223 
L 272.335241 90.456198 
L 272.970125 91.150626 
L 273.60501 92.119939 
L 274.239894 89.096327 
L 274.874779 90.224734 
L 275.509663 91.700395 
L 276.144548 88.488702 
L 276.779432 89.747334 
L 277.414317 89.40012 
L 278.049201 90.383868 
L 278.684086 88.633362 
L 279.31897 87.37473 
L 279.953855 88.879299 
L 280.588739 87.823221 
L 281.223624 88.778022 
L 281.858509 88.980576 
L 282.493393 88.561032 
L 283.128278 86.622445 
L 283.763162 87.808748 
L 285.032931 86.998607 
L 286.3027 86.723723 
L 286.937585 86.853909 
L 287.572469 86.376508 
L 288.207354 86.087189 
L 288.842238 84.351118 
L 289.477123 86.246323 
L 290.112007 84.539199 
L 290.746892 86.636919 
L 291.381776 84.061799 
L 292.016661 85.638698 
L 292.651545 83.873718 
L 293.28643 84.452395 
L 293.921314 85.53742 
L 294.556199 84.669424 
L 295.191083 84.65495 
L 295.825968 83.020156 
L 297.095737 84.003943 
L 297.730621 82.065356 
L 298.365506 82.745311 
L 299.00039 81.920658 
L 299.635275 82.427005 
L 300.270159 83.352897 
L 300.905044 81.790472 
L 301.539928 82.195542 
L 302.174813 83.135907 
L 302.809697 82.282345 
L 303.444582 81.761524 
L 304.079467 82.137686 
L 304.714351 82.832114 
L 305.349236 80.126769 
L 305.98412 80.358232 
L 306.619005 80.112295 
L 307.253889 81.472205 
L 307.888774 79.895306 
L 308.523658 79.880832 
L 309.158543 79.258734 
L 309.793427 81.34198 
L 310.428312 80.329285 
L 311.063196 81.298598 
L 311.698081 77.421424 
L 312.332965 78.69453 
L 313.602734 78.390737 
L 314.237619 80.416089 
L 314.872503 78.897085 
L 315.507388 78.274986 
L 316.142272 79.012797 
L 316.777157 76.92955 
L 317.412041 78.434119 
L 318.046926 77.320147 
L 318.68181 77.016354 
L 319.316695 78.868137 
L 319.951579 79.98211 
L 320.586464 76.828273 
L 321.221348 75.106715 
L 321.856233 77.103157 
L 322.491117 75.801143 
L 323.760886 76.59681 
L 324.395771 74.57142 
L 325.030656 74.788448 
L 325.66554 75.396034 
L 326.300425 75.106715 
L 326.935309 75.236901 
L 327.570194 75.526259 
L 328.205078 75.670918 
L 328.839963 75.338178 
L 329.474847 73.963834 
L 330.109732 75.338178 
L 330.744616 73.963834 
L 331.379501 73.254931 
L 332.014385 74.02169 
L 333.284154 72.560503 
L 333.919039 74.513564 
L 334.553923 73.240458 
L 335.188808 74.253153 
L 335.823692 72.893243 
L 336.458577 72.777531 
L 337.093461 73.052377 
L 337.728346 72.11205 
L 338.36323 72.748584 
L 338.998115 72.386896 
L 339.632999 71.446569 
L 340.267884 71.620176 
L 340.902768 69.652642 
L 341.537653 70.173464 
L 342.172537 71.475478 
L 342.807422 71.489952 
L 343.442306 70.08666 
L 344.077191 71.027025 
L 344.712075 72.719636 
L 345.34696 70.390453 
L 347.251614 70.23132 
L 347.886498 69.53693 
L 348.521383 69.348849 
L 349.156267 70.419401 
L 349.791152 69.059491 
L 350.426036 68.32168 
L 351.060921 69.75392 
L 351.695805 71.70698 
L 352.33069 69.811776 
L 352.965574 69.160768 
L 353.600459 70.144516 
L 354.235343 70.593008 
L 354.870228 68.104691 
L 355.505112 68.249351 
L 356.139997 68.553144 
L 356.774881 68.654421 
L 357.409766 68.885884 
L 358.04465 67.323459 
L 358.679535 67.786385 
L 359.314419 67.670673 
L 359.949304 69.059491 
L 360.584188 68.422958 
L 361.219073 66.846059 
L 361.853957 66.571174 
L 362.488842 69.305428 
L 363.123726 67.164326 
L 363.758611 66.469897 
L 364.393495 68.003414 
L 365.02838 66.961771 
L 365.663264 66.629031 
L 366.298149 67.945558 
L 366.933033 66.383094 
L 368.202803 65.645283 
L 368.837687 65.703139 
L 369.472572 66.093774 
L 370.107456 66.773729 
L 370.742341 64.661535 
L 371.377225 66.267381 
L 372.01211 64.328795 
L 372.646994 65.211265 
L 373.281879 64.892998 
L 373.916763 65.225739 
L 374.551648 64.155188 
L 375.186532 65.457202 
L 375.821417 63.24377 
L 376.456301 64.661535 
L 377.091186 65.515097 
L 377.72607 65.384872 
L 378.995839 62.751896 
L 379.630724 64.241991 
L 380.265608 63.200349 
L 380.900493 63.880303 
L 381.535377 63.894777 
L 382.170262 62.896556 
L 382.805146 63.258243 
L 383.440031 63.359482 
L 384.074915 63.070163 
L 384.7098 62.968885 
L 385.344684 63.533089 
L 385.979569 62.592762 
L 386.614453 62.216601 
L 387.249338 62.274457 
L 387.884222 63.373956 
L 388.519107 62.419155 
L 389.153991 62.925503 
L 389.788876 62.578289 
L 390.423761 60.697558 
L 391.058645 61.88386 
L 391.69353 61.102628 
L 392.328414 62.202127 
L 392.963299 62.02852 
L 393.598183 61.00139 
L 394.233068 62.491485 
L 394.867952 60.205684 
L 395.502837 61.768109 
L 396.137721 61.464316 
L 396.772606 61.710253 
L 397.40749 61.637923 
L 398.042375 60.147828 
L 398.677259 60.581846 
L 399.312144 61.55112 
L 399.947028 60.379291 
L 400.581913 60.697558 
L 401.216797 61.854913 
L 401.851682 60.769888 
L 402.486566 61.420934 
L 403.121451 61.030299 
L 403.756335 60.408239 
L 404.39122 61.62345 
L 405.026104 60.133354 
L 405.660989 61.536646 
L 406.295873 60.769888 
L 406.930758 59.511256 
L 407.565642 60.697558 
L 408.200527 59.988695 
L 408.835411 59.019382 
L 409.470296 59.612533 
L 410.10518 60.552898 
L 410.740065 60.379291 
L 411.37495 60.046551 
L 412.009834 58.686642 
L 412.644719 60.089933 
L 413.279603 60.133354 
L 413.914488 59.337649 
L 414.549372 59.033856 
L 415.184257 59.728284 
L 415.819141 59.511256 
L 416.454026 60.538425 
L 417.08891 59.178515 
L 417.723795 59.395544 
L 418.358679 57.992252 
L 418.993564 60.437147 
L 419.628448 60.596281 
L 420.263333 60.133354 
L 420.898217 59.916365 
L 421.533102 58.267097 
L 422.167986 58.209241 
L 422.802871 61.232853 
L 423.437755 59.438926 
L 424.07264 59.352122 
L 424.707524 58.599838 
L 425.342409 59.467873 
L 425.977293 58.281571 
L 426.612178 58.816866 
L 427.247062 58.730063 
L 427.881947 60.769888 
L 428.516831 60.118881 
L 429.151716 59.742758 
L 429.7866 58.715589 
L 430.421485 59.410017 
L 431.056369 58.802393 
L 431.691254 59.467873 
L 432.326138 57.775224 
L 432.961023 58.122438 
L 433.595908 58.686642 
L 434.230792 60.900113 
L 434.865677 58.513034 
L 435.500561 60.003169 
L 436.135446 59.699337 
L 436.77033 58.440705 
L 437.405215 59.641481 
L 438.040099 58.194768 
L 438.674984 60.798835 
L 439.309868 58.353901 
L 439.944753 58.90367 
L 440.579637 59.16408 
L 441.214522 57.934357 
L 441.849406 57.847553 
L 442.484291 58.209241 
L 443.119175 58.889196 
L 443.75406 59.033856 
L 444.388944 57.992252 
L 445.023829 57.948831 
L 445.658713 58.672168 
L 446.293598 58.426231 
L 446.928482 58.889196 
L 447.563367 58.513034 
L 448.198251 57.037413 
L 448.833136 58.122438 
L 449.46802 56.516592 
L 450.102905 57.572708 
L 450.737789 57.862027 
L 451.372674 57.312297 
L 452.007558 58.281571 
L 452.642443 58.570929 
L 453.277327 55.764307 
L 454.547097 58.556456 
L 455.181981 56.617869 
L 455.816866 57.051887 
L 456.45175 56.99403 
L 457.086635 58.382848 
L 457.721519 56.892753 
L 458.356404 56.299602 
L 458.991288 57.037413 
L 459.626173 56.965083 
L 460.261057 57.109743 
L 460.895942 57.731841 
L 461.530826 56.516592 
L 462.165711 58.238189 
L 462.800595 57.312297 
L 463.43548 57.124216 
L 464.070364 56.429788 
L 464.705249 56.675725 
L 465.975018 57.746315 
L 466.609902 57.268876 
L 467.244787 55.807728 
L 467.879671 56.690199 
L 468.514556 56.140469 
L 469.14944 56.80595 
L 469.784325 55.981335 
L 470.419209 57.558234 
L 471.054094 56.646816 
L 471.688978 56.328511 
L 472.323863 57.13869 
L 472.958747 56.646816 
L 473.593632 57.254402 
L 474.228516 56.169377 
L 475.498285 56.314076 
L 476.13317 57.847553 
L 476.768055 56.299602 
L 477.402939 56.574486 
L 478.037824 55.822202 
L 478.672708 55.952388 
L 479.307593 55.04097 
L 479.942477 55.51837 
L 480.577362 55.04097 
L 481.212246 55.460514 
L 481.847131 56.024718 
L 482.482015 56.314076 
L 483.1169 55.966862 
L 483.751784 54.751612 
L 484.386669 55.344763 
L 485.021553 56.675725 
L 485.656438 55.055444 
L 486.291322 56.545539 
L 487.561091 54.809507 
L 488.195976 54.925219 
L 488.83086 55.200103 
L 489.465745 54.476766 
L 490.100629 54.389963 
L 490.735514 55.315854 
L 491.370398 54.288686 
L 492.005283 53.811285 
L 492.640167 55.142247 
L 493.275052 54.317633 
L 493.909936 54.332068 
L 494.544821 55.966862 
L 495.179705 53.681061 
L 495.81459 56.328511 
L 496.449474 53.738917 
L 497.084359 55.822202 
L 497.719244 55.1133 
L 498.354128 54.838415 
L 498.989013 54.939693 
L 499.623897 54.910745 
L 500.258782 54.462293 
L 500.893666 55.1133 
L 501.528551 54.592479 
L 502.163435 53.102383 
L 502.79832 54.505675 
L 503.433204 54.332068 
L 504.068089 54.997549 
L 504.702973 53.319373 
L 505.337858 55.503896 
L 505.972742 54.086131 
L 506.607627 54.129552 
L 507.877396 56.256181 
L 508.51228 55.200103 
L 509.147165 54.476766 
L 509.782049 54.751612 
L 510.416934 53.044527 
L 511.051818 53.030053 
L 511.686703 53.623205 
L 512.321587 52.494758 
L 512.956472 54.737138 
L 513.591356 53.521927 
L 514.226241 54.317633 
L 515.49601 53.695534 
L 516.130894 52.480285 
L 516.765779 52.552653 
L 517.400663 53.362794 
L 518.035548 53.001106 
L 518.670433 53.304938 
L 519.305317 52.668366 
L 519.940202 54.230829 
L 520.575086 52.79859 
L 521.209971 53.970419 
L 521.844855 53.681061 
L 522.47974 52.306716 
L 523.114624 52.697313 
L 523.749509 53.926998 
L 524.384393 53.681061 
L 525.019278 51.641235 
L 525.654162 52.060741 
L 526.289047 50.860003 
L 526.923931 53.521927 
L 527.558816 54.071657 
L 528.1937 52.350099 
L 528.828585 51.843751 
L 529.463469 53.044527 
L 530.098354 54.983114 
L 530.733238 52.769643 
L 531.368123 52.379046 
L 532.003007 53.710008 
L 532.637892 52.610509 
L 533.907661 52.653892 
L 534.542545 52.292243 
L 535.17743 53.319373 
L 535.812314 52.72626 
L 536.447199 51.901607 
L 537.082083 52.263295 
L 537.716968 51.019137 
L 538.351852 52.39352 
L 538.986737 52.118636 
L 539.621621 52.263295 
L 540.256506 52.205439 
L 540.891391 51.641235 
L 541.526275 53.34832 
L 542.16116 51.814804 
L 542.796044 51.539958 
L 543.430929 52.769643 
L 544.065813 53.059001 
L 544.700698 52.277769 
L 545.335582 52.928776 
L 545.970467 51.337404 
L 546.605351 51.699092 
L 547.240236 51.482063 
L 547.87512 50.107719 
L 548.510005 50.614067 
L 549.144889 50.599593 
L 549.779774 51.207218 
L 550.414658 50.816582 
L 551.049543 51.424207 
L 551.684427 49.861782 
L 552.319312 49.268631 
L 553.589081 52.219913 
L 554.223965 52.248821 
L 554.85885 50.91786 
L 555.493734 50.946807 
L 556.128619 49.963059 
L 556.763503 50.671923 
L 557.398388 50.614067 
L 558.033272 50.382603 
L 558.668157 50.411512 
L 559.303041 49.717122 
L 559.937926 50.107719 
L 560.57281 50.84553 
L 561.207695 49.00822 
L 561.84258 49.977494 
L 562.477464 50.353656 
L 563.112349 50.107719 
L 563.747233 50.151101 
L 564.382118 49.210775 
L 565.017002 50.585119 
L 565.651887 49.471147 
L 566.286771 50.642975 
L 566.921656 51.438681 
L 567.55654 49.456712 
L 568.191425 50.107719 
L 568.826309 49.543515 
L 569.461194 49.254157 
L 570.096078 49.847308 
L 570.730963 50.729779 
L 571.365847 49.818361 
L 572.000732 49.688175 
L 572.635616 49.398817 
L 573.270501 49.529042 
L 573.905385 50.353656 
L 574.54027 49.644754 
L 575.175154 49.644754 
L 575.810039 50.194523 
L 576.444923 49.022694 
L 577.079808 49.948586 
L 577.714692 48.820139 
L 578.349577 50.281326 
L 578.984461 48.371687 
L 579.619346 49.254157 
L 580.25423 48.689954 
L 580.889115 49.15288 
L 581.523999 48.906943 
L 582.158884 48.212553 
L 582.793768 47.821918 
L 583.428653 48.574203 
L 584.063538 48.082329 
L 584.698422 48.386122 
L 585.333307 49.413291 
L 585.968191 49.022694 
L 586.603076 49.963059 
L 587.23796 49.427764 
L 587.872845 49.48562 
L 588.507729 47.518125 
L 589.142614 49.427764 
L 589.142614 49.427764 
" clip-path="url(#pa28e3f66bd)" style="fill: none; stroke: #1f77b4; stroke-width: 1.5; stroke-linecap: square"/>
   </g>
   <g id="line2d_38">
    <path d="M 81.869886 114.572723 
L 82.504771 194.90807 
L 83.139655 231.625312 
L 83.77454 231.495126 
L 84.409424 266.259366 
L 85.044309 273.941344 
L 85.679193 269.25403 
L 86.314078 305.450509 
L 86.948962 245.296658 
L 87.583847 343.60001 
L 88.218732 313.65329 
L 88.853616 346.594694 
L 89.488501 296.206086 
L 90.123385 260.270018 
L 90.75827 310.52842 
L 91.393154 323.80915 
L 92.028039 305.710901 
L 92.662923 301.935024 
L 93.297808 326.413198 
L 93.932692 327.324616 
L 94.567577 293.081197 
L 95.202461 315.866741 
L 95.837346 315.60635 
L 96.47223 264.566716 
L 97.107115 293.211403 
L 97.741999 329.538087 
L 98.376884 290.346944 
L 99.011768 351.412194 
L 99.646653 283.836775 
L 100.281537 297.768512 
L 100.916422 303.888065 
L 101.551306 315.476145 
L 102.186191 284.748212 
L 102.821075 333.70458 
L 103.45596 320.814466 
L 104.090844 330.709916 
L 104.725729 286.440842 
L 105.360613 307.40355 
L 105.995498 313.002282 
L 106.630382 301.023586 
L 107.265267 322.246705 
L 107.900151 296.466478 
L 108.535036 298.419538 
L 109.16992 280.5817 
L 109.804805 325.24137 
L 110.43969 297.377915 
L 111.074574 319.252041 
L 111.709459 313.523104 
L 112.344343 265.608339 
L 112.979228 303.497449 
L 113.614112 332.662957 
L 114.248997 275.243378 
L 114.883881 317.429186 
L 115.518766 319.121836 
L 116.15365 298.159128 
L 116.788535 313.9137 
L 117.423419 324.590362 
L 118.058304 319.121836 
L 118.693188 294.383231 
L 119.328073 331.360923 
L 119.962957 295.81547 
L 120.597842 322.767507 
L 121.232726 318.080212 
L 121.867611 322.507116 
L 122.502495 302.32562 
L 123.13738 292.039574 
L 123.772264 309.356592 
L 124.407149 297.898717 
L 125.042033 273.029927 
L 125.676918 302.586031 
L 126.311802 287.612671 
L 126.946687 310.398215 
L 127.581571 298.419538 
L 128.216456 299.851758 
L 128.85134 271.597687 
L 129.486225 312.090865 
L 130.755994 287.742876 
L 131.390879 292.950992 
L 132.025763 284.487801 
L 132.660648 291.779164 
L 133.295532 286.180432 
L 133.930417 297.638306 
L 134.565301 318.861425 
L 135.200186 288.003287 
L 135.83507 284.097185 
L 136.469955 288.263697 
L 137.104839 299.851758 
L 137.739724 305.580695 
L 138.374608 279.14948 
L 139.009493 295.55506 
L 139.644377 267.040579 
L 140.279262 315.345939 
L 140.914146 284.357596 
L 141.549031 267.170784 
L 142.183915 304.278681 
L 142.8188 300.763195 
L 143.453684 300.372579 
L 144.088569 287.873081 
L 144.723453 297.768512 
L 145.358338 281.362932 
L 145.993222 270.556064 
L 146.628107 301.023586 
L 147.262991 288.654294 
L 147.897876 263.915709 
L 148.53276 292.43019 
L 149.167645 268.342612 
L 149.802529 282.53476 
L 150.437414 280.711905 
L 151.072298 303.497449 
L 151.707183 274.07155 
L 152.342067 301.804818 
L 152.976952 266.649963 
L 153.611837 307.663961 
L 154.246721 291.388567 
L 154.881606 296.857094 
L 155.51649 285.789835 
L 156.151375 305.320304 
L 156.786259 300.242374 
L 157.421144 282.925357 
L 158.056028 301.804818 
L 158.690913 279.930692 
L 159.325797 279.409871 
L 159.960682 300.763195 
L 160.595566 269.25403 
L 161.865335 298.549744 
L 162.50022 299.461161 
L 163.135104 288.393883 
L 163.769989 279.409871 
L 164.404873 280.84211 
L 165.039758 294.904053 
L 165.674642 267.431195 
L 166.309527 298.159128 
L 166.944411 266.389571 
L 167.579296 291.779164 
L 168.21418 268.603023 
L 168.849065 268.99362 
L 169.483949 285.65963 
L 170.118834 280.060898 
L 170.753718 299.200751 
L 171.388603 273.941344 
L 172.023487 283.446178 
L 172.658372 303.237038 
L 173.293256 293.732224 
L 173.928141 290.086533 
L 174.563026 292.43019 
L 175.19791 266.129161 
L 176.467679 304.148475 
L 177.102564 272.248714 
L 177.737448 292.560396 
L 178.372333 299.070545 
L 179.007217 288.133492 
L 179.642102 250.504793 
L 180.276986 275.113173 
L 180.911871 275.894386 
L 181.546755 251.416211 
L 182.18164 297.638306 
L 182.816524 302.976647 
L 183.451409 257.66595 
L 184.086293 254.801491 
L 184.721178 261.832463 
L 185.356062 280.711905 
L 185.990947 279.279666 
L 186.625831 267.431195 
L 187.260716 287.742876 
L 187.8956 282.144144 
L 188.530485 282.144144 
L 189.165369 279.409871 
L 189.800254 261.181436 
L 191.070023 287.222055 
L 191.704907 282.53476 
L 192.339792 275.633994 
L 192.974676 281.753528 
L 193.609561 297.768512 
L 194.244445 277.45683 
L 194.87933 282.53476 
L 195.514215 274.07155 
L 196.149099 267.691605 
L 196.783984 270.425859 
L 197.418868 299.981963 
L 198.053753 296.466478 
L 198.688637 273.160132 
L 199.323522 272.639311 
L 199.958406 274.462166 
L 200.593291 268.342612 
L 201.228175 269.905057 
L 201.86306 271.988303 
L 202.497944 280.972316 
L 203.132829 264.17612 
L 203.767713 281.753528 
L 204.402598 268.863414 
L 205.037482 275.113173 
L 205.672367 268.342612 
L 206.307251 266.780168 
L 206.942136 274.982968 
L 207.57702 273.160132 
L 208.211905 265.347948 
L 208.846789 269.774852 
L 209.481674 289.435526 
L 210.116558 268.342612 
L 210.751443 277.587035 
L 211.386327 254.28067 
L 212.021212 270.94668 
L 212.656096 280.060898 
L 213.290981 267.821791 
L 213.925865 272.899721 
L 214.56075 253.499458 
L 215.195634 258.967984 
L 215.830519 292.43019 
L 216.465403 283.185767 
L 217.100288 257.535745 
L 217.735173 268.99362 
L 218.370057 254.410875 
L 219.004942 263.655298 
L 219.639826 270.94668 
L 220.909595 291.258362 
L 221.54448 280.321289 
L 222.179364 302.586031 
L 222.814249 280.84211 
L 223.449133 287.873081 
L 224.084018 289.826123 
L 224.718902 282.795151 
L 225.353787 288.654294 
L 225.988671 268.99362 
L 226.623556 277.326625 
L 227.25844 275.633994 
L 227.893325 263.655298 
L 228.528209 269.384236 
L 229.163094 289.04491 
L 229.797978 273.811139 
L 230.432863 270.686269 
L 231.067747 293.471813 
L 231.702632 288.654294 
L 232.337516 268.342612 
L 232.972401 294.643642 
L 233.607285 287.742876 
L 234.24217 258.707574 
L 234.877054 260.139813 
L 235.511939 270.295654 
L 236.146823 285.65963 
L 236.781708 273.160132 
L 237.416592 289.305321 
L 238.051477 255.061902 
L 238.686362 268.99362 
L 239.321246 260.139813 
L 239.956131 286.961664 
L 240.591015 277.977651 
L 241.2259 255.452499 
L 241.860784 279.14948 
L 242.495669 277.066214 
L 243.130553 277.587035 
L 243.765438 282.664946 
L 244.400322 258.316977 
L 245.670091 272.118509 
L 246.304976 267.821791 
L 246.93986 287.222055 
L 247.574745 274.592352 
L 248.209629 296.075881 
L 249.479398 275.633994 
L 250.114283 296.336292 
L 250.749167 292.690601 
L 251.384052 287.742876 
L 252.018936 274.592352 
L 252.653821 289.175115 
L 253.288705 293.211403 
L 253.92359 276.024591 
L 254.558474 277.717241 
L 255.193359 286.961664 
L 255.828243 287.873081 
L 256.463128 268.472818 
L 257.098012 281.753528 
L 257.732897 283.185767 
L 258.367781 277.847446 
L 259.002666 260.660634 
L 259.63755 279.800487 
L 260.272435 285.399219 
L 260.90732 282.404555 
L 261.542204 289.04491 
L 262.177089 294.383231 
L 262.811973 283.706589 
L 263.446858 283.055562 
L 264.081742 276.285001 
L 264.716627 267.691605 
L 265.351511 286.050226 
L 265.986396 280.711905 
L 266.62128 286.180432 
L 267.256165 286.310637 
L 268.525934 282.925357 
L 269.160818 285.138808 
L 269.795703 275.503789 
L 270.430587 276.024591 
L 271.065472 274.201755 
L 271.700356 261.702257 
L 272.335241 268.99362 
L 272.970125 288.654294 
L 273.60501 286.050226 
L 274.239894 270.425859 
L 274.874779 277.196419 
L 275.509663 288.003287 
L 276.144548 277.326625 
L 276.779432 278.628659 
L 277.414317 283.706589 
L 278.049201 286.701253 
L 278.684086 271.467482 
L 279.31897 265.738545 
L 279.953855 282.795151 
L 280.588739 274.852762 
L 281.223624 279.019275 
L 281.858509 287.35226 
L 282.493393 267.951996 
L 283.128278 278.368248 
L 283.763162 274.982968 
L 284.398047 284.227391 
L 285.032931 273.029927 
L 285.667816 266.129161 
L 286.3027 287.35226 
L 286.937585 286.571048 
L 288.207354 268.863414 
L 288.842238 308.575379 
L 289.477123 283.185767 
L 290.112007 283.446178 
L 290.746892 282.53476 
L 291.381776 253.239047 
L 292.651545 274.982968 
L 293.28643 284.878417 
L 293.921314 270.816475 
L 294.556199 280.191103 
L 295.191083 264.827127 
L 295.825968 288.393883 
L 296.460852 276.805823 
L 297.095737 275.373584 
L 297.730621 287.35226 
L 298.365506 269.384236 
L 299.00039 291.258362 
L 299.635275 269.514441 
L 300.270159 273.160132 
L 300.905044 275.373584 
L 301.539928 299.461161 
L 302.174813 277.45683 
L 302.809697 283.185767 
L 303.444582 283.446178 
L 304.079467 299.461161 
L 304.714351 274.07155 
L 305.349236 274.33196 
L 305.98412 286.310637 
L 306.619005 275.503789 
L 307.253889 270.035243 
L 307.888774 269.25403 
L 308.523658 269.514441 
L 309.158543 298.159128 
L 309.793427 271.076885 
L 310.428312 271.988303 
L 311.063196 271.337277 
L 311.698081 282.664946 
L 312.332965 273.420543 
L 312.96785 280.321289 
L 313.602734 277.45683 
L 314.237619 299.981963 
L 314.872503 268.212407 
L 315.507388 273.029927 
L 316.142272 286.961664 
L 316.777157 276.545412 
L 317.412041 269.384236 
L 318.046926 285.529424 
L 318.68181 289.826123 
L 319.316695 285.269014 
L 319.951579 276.545412 
L 320.586464 276.154796 
L 321.221348 282.664946 
L 321.856233 269.384236 
L 322.491117 279.670282 
L 323.126002 282.013939 
L 323.760886 273.680934 
L 324.395771 268.99362 
L 325.030656 288.393883 
L 325.66554 276.805823 
L 326.300425 268.603023 
L 326.935309 281.232726 
L 327.570194 284.097185 
L 328.205078 275.503789 
L 328.839963 292.820806 
L 329.474847 267.951996 
L 330.744616 273.550728 
L 331.379501 266.910373 
L 332.014385 295.945676 
L 332.64927 282.404555 
L 333.284154 264.827127 
L 333.919039 281.232726 
L 334.553923 289.175115 
L 335.188808 283.96698 
L 335.823692 272.3789 
L 336.458577 277.45683 
L 337.093461 279.800487 
L 337.728346 279.409871 
L 338.36323 303.497449 
L 338.998115 281.102521 
L 339.632999 289.305321 
L 340.267884 278.107837 
L 340.902768 283.055562 
L 341.537653 284.357596 
L 342.172537 281.493117 
L 342.807422 275.373584 
L 343.442306 253.759868 
L 344.077191 274.201755 
L 344.712075 279.670282 
L 345.34696 284.097185 
L 345.981844 276.936009 
L 346.616729 285.789835 
L 347.251614 272.118509 
L 347.886498 279.14948 
L 348.521383 274.982968 
L 349.156267 271.858098 
L 349.791152 278.628659 
L 350.426036 274.982968 
L 351.060921 263.004291 
L 351.695805 284.357596 
L 352.33069 281.883733 
L 352.965574 285.789835 
L 353.600459 287.873081 
L 354.235343 267.951996 
L 354.870228 277.977651 
L 355.505112 266.129161 
L 356.139997 275.633994 
L 356.774881 263.785504 
L 357.409766 263.785504 
L 358.04465 276.545412 
L 358.679535 284.748212 
L 359.314419 278.238043 
L 359.949304 277.717241 
L 360.584188 254.020259 
L 361.219073 287.222055 
L 361.853957 265.478134 
L 362.488842 276.545412 
L 363.123726 295.164463 
L 363.758611 306.361927 
L 364.393495 273.550728 
L 365.02838 282.144144 
L 365.663264 268.603023 
L 366.298149 280.191103 
L 366.933033 281.753528 
L 367.567918 284.618007 
L 368.202803 290.997951 
L 368.837687 270.425859 
L 369.472572 284.487801 
L 370.107456 276.936009 
L 370.742341 273.160132 
L 371.377225 274.07155 
L 372.01211 283.055562 
L 372.646994 277.587035 
L 373.281879 281.883733 
L 373.916763 277.587035 
L 374.551648 270.686269 
L 375.186532 266.519777 
L 375.821417 283.96698 
L 376.456301 283.315973 
L 377.091186 277.066214 
L 377.72607 276.545412 
L 378.360955 282.664946 
L 378.995839 273.941344 
L 379.630724 286.180432 
L 380.265608 279.14948 
L 380.900493 302.716236 
L 381.535377 278.368248 
L 382.170262 271.597687 
L 382.805146 280.84211 
L 383.440031 278.107837 
L 384.074915 285.529424 
L 384.7098 283.446178 
L 385.344684 283.315973 
L 385.979569 266.649963 
L 386.614453 274.852762 
L 387.249338 280.451494 
L 387.884222 269.514441 
L 389.788876 280.972316 
L 390.423761 281.623323 
L 391.058645 270.94668 
L 391.69353 281.362932 
L 392.328414 283.055562 
L 392.963299 273.029927 
L 393.598183 267.951996 
L 394.233068 271.597687 
L 394.867952 289.175115 
L 395.502837 285.529424 
L 396.137721 266.780168 
L 396.772606 285.789835 
L 397.40749 288.133492 
L 398.042375 276.024591 
L 398.677259 271.467482 
L 399.312144 275.76418 
L 399.947028 270.816475 
L 400.581913 291.128156 
L 401.216797 283.836775 
L 401.851682 280.5817 
L 402.486566 278.368248 
L 403.121451 273.290337 
L 403.756335 278.107837 
L 404.39122 268.863414 
L 405.026104 278.758864 
L 405.660989 265.347948 
L 406.295873 295.034258 
L 406.930758 288.784499 
L 407.565642 279.279666 
L 408.200527 263.004291 
L 408.835411 294.904053 
L 409.470296 272.639311 
L 410.10518 275.894386 
L 410.740065 280.84211 
L 411.37495 278.368248 
L 412.009834 290.346944 
L 412.644719 281.493117 
L 413.279603 284.487801 
L 413.914488 275.894386 
L 414.549372 276.936009 
L 415.184257 269.25403 
L 415.819141 288.393883 
L 416.454026 282.274349 
L 417.08891 267.691605 
L 417.723795 278.889069 
L 418.358679 284.618007 
L 418.993564 280.191103 
L 419.628448 282.795151 
L 420.263333 279.670282 
L 420.898217 271.597687 
L 421.533102 275.894386 
L 422.167986 285.529424 
L 422.802871 284.618007 
L 423.437755 283.315973 
L 424.07264 264.957332 
L 424.707524 264.566716 
L 425.342409 285.399219 
L 425.977293 268.733228 
L 426.612178 280.711905 
L 427.881947 296.596683 
L 428.516831 271.597687 
L 429.151716 278.628659 
L 429.7866 279.14948 
L 430.421485 280.060898 
L 431.056369 279.14948 
L 431.691254 272.509105 
L 432.326138 280.972316 
L 432.961023 278.238043 
L 433.595908 289.695917 
L 434.230792 271.337277 
L 434.865677 276.415207 
L 435.500561 287.35226 
L 436.135446 280.84211 
L 436.77033 265.608339 
L 437.405215 281.102521 
L 438.040099 282.404555 
L 438.674984 280.451494 
L 439.309868 288.784499 
L 439.944753 275.894386 
L 440.579637 277.066214 
L 441.214522 264.957332 
L 441.849406 286.831458 
L 442.484291 277.326625 
L 443.119175 289.695917 
L 443.75406 288.654294 
L 444.388944 278.889069 
L 445.023829 280.321289 
L 445.658713 283.96698 
L 446.293598 271.988303 
L 447.563367 284.487801 
L 448.198251 277.847446 
L 448.833136 287.091869 
L 449.46802 291.909369 
L 450.102905 264.957332 
L 450.737789 261.702257 
L 451.372674 273.680934 
L 452.007558 273.160132 
L 452.642443 283.055562 
L 453.277327 296.726888 
L 453.912212 288.263697 
L 454.547097 286.831458 
L 455.181981 265.217743 
L 456.45175 264.436511 
L 457.086635 282.664946 
L 457.721519 275.894386 
L 458.356404 283.315973 
L 458.991288 280.84211 
L 459.626173 293.602019 
L 460.261057 281.493117 
L 460.895942 276.805823 
L 461.530826 281.623323 
L 462.165711 280.972316 
L 462.800595 288.393883 
L 463.43548 280.321289 
L 464.070364 286.440842 
L 464.705249 276.154796 
L 465.340133 273.290337 
L 465.975018 277.847446 
L 466.609902 276.545412 
L 467.244787 277.977651 
L 467.879671 277.847446 
L 468.514556 280.060898 
L 469.14944 271.076885 
L 469.784325 280.711905 
L 470.419209 275.503789 
L 471.054094 283.185767 
L 471.688978 293.081197 
L 472.323863 288.914705 
L 472.958747 279.670282 
L 473.593632 277.977651 
L 474.228516 289.695917 
L 474.863401 279.279666 
L 475.498285 285.92004 
L 476.13317 284.097185 
L 476.768055 283.96698 
L 477.402939 280.451494 
L 478.037824 277.977651 
L 478.672708 289.695917 
L 479.307593 279.800487 
L 479.942477 286.180432 
L 480.577362 287.612671 
L 481.212246 281.493117 
L 481.847131 283.446178 
L 482.482015 283.055562 
L 483.1169 281.623323 
L 483.751784 289.175115 
L 484.386669 277.45683 
L 485.656438 296.987299 
L 486.291322 275.373584 
L 486.926207 283.446178 
L 487.561091 275.373584 
L 488.195976 281.362932 
L 488.83086 266.129161 
L 489.465745 274.852762 
L 490.100629 289.565712 
L 490.735514 280.972316 
L 491.370398 290.477149 
L 492.005283 268.212407 
L 492.640167 272.248714 
L 493.275052 275.373584 
L 493.909936 292.43019 
L 494.544821 278.628659 
L 495.179705 288.524089 
L 495.81459 270.295654 
L 496.449474 267.431195 
L 497.084359 270.816475 
L 497.719244 268.342612 
L 498.354128 292.16978 
L 498.989013 292.299985 
L 499.623897 289.175115 
L 500.258782 294.773847 
L 500.893666 271.597687 
L 502.163435 285.138808 
L 502.79832 281.883733 
L 503.433204 292.43019 
L 504.068089 266.129161 
L 504.702973 277.45683 
L 505.337858 276.675617 
L 505.972742 272.3789 
L 506.607627 265.738545 
L 507.877396 292.299985 
L 508.51228 281.883733 
L 509.147165 294.253026 
L 509.782049 271.858098 
L 510.416934 293.081197 
L 511.051818 271.988303 
L 511.686703 289.695917 
L 512.321587 288.784499 
L 512.956472 278.238043 
L 513.591356 283.836775 
L 514.226241 278.368248 
L 514.861125 277.587035 
L 515.49601 285.008603 
L 516.130894 270.556064 
L 516.765779 280.451494 
L 517.400663 281.753528 
L 518.035548 287.742876 
L 518.670433 284.097185 
L 519.305317 278.758864 
L 519.940202 301.023586 
L 520.575086 284.097185 
L 521.844855 270.165448 
L 522.47974 301.804818 
L 523.114624 284.357596 
L 523.749509 285.138808 
L 524.384393 285.529424 
L 525.019278 273.290337 
L 525.654162 291.909369 
L 526.289047 291.648978 
L 526.923931 275.243378 
L 527.558816 274.462166 
L 528.1937 288.524089 
L 528.828585 283.185767 
L 529.463469 297.898717 
L 530.098354 281.362932 
L 530.733238 286.571048 
L 531.368123 282.925357 
L 532.003007 275.243378 
L 532.637892 286.180432 
L 533.272776 284.748212 
L 533.907661 287.612671 
L 534.542545 278.628659 
L 535.17743 285.399219 
L 535.812314 283.185767 
L 536.447199 296.596683 
L 537.082083 290.73754 
L 537.716968 282.664946 
L 538.351852 283.446178 
L 538.986737 284.618007 
L 539.621621 274.982968 
L 540.256506 280.711905 
L 540.891391 297.898717 
L 541.526275 277.066214 
L 542.16116 283.706589 
L 542.796044 285.65963 
L 543.430929 281.753528 
L 544.065813 282.144144 
L 544.700698 285.008603 
L 545.335582 298.549744 
L 545.970467 293.862429 
L 546.605351 271.207071 
L 547.240236 256.624327 
L 547.87512 284.097185 
L 548.510005 265.217743 
L 549.144889 291.518772 
L 549.779774 275.503789 
L 550.414658 288.524089 
L 551.049543 270.425859 
L 551.684427 286.310637 
L 552.319312 294.253026 
L 552.954196 284.748212 
L 553.589081 286.050226 
L 554.223965 291.518772 
L 554.85885 286.050226 
L 555.493734 290.607354 
L 556.128619 283.446178 
L 556.763503 296.466478 
L 557.398388 276.936009 
L 558.033272 281.232726 
L 558.668157 287.091869 
L 559.303041 288.784499 
L 559.937926 297.117504 
L 560.57281 284.748212 
L 561.207695 282.53476 
L 561.84258 285.269014 
L 562.477464 292.16978 
L 563.112349 277.717241 
L 563.747233 274.982968 
L 564.382118 295.685265 
L 565.017002 274.852762 
L 565.651887 285.399219 
L 566.286771 288.654294 
L 566.921656 273.290337 
L 567.55654 285.529424 
L 568.191425 289.565712 
L 568.826309 281.362932 
L 569.461194 280.191103 
L 570.096078 291.128156 
L 570.730963 277.45683 
L 571.365847 287.482465 
L 572.000732 286.571048 
L 572.635616 291.518772 
L 573.270501 297.638306 
L 573.905385 275.373584 
L 574.54027 302.455826 
L 575.175154 300.372579 
L 575.810039 286.701253 
L 576.444923 284.357596 
L 577.079808 278.628659 
L 577.714692 288.784499 
L 578.349577 279.930692 
L 578.984461 287.742876 
L 580.25423 279.930692 
L 580.889115 290.73754 
L 581.523999 281.362932 
L 582.158884 279.930692 
L 583.428653 296.857094 
L 584.063538 287.35226 
L 584.698422 279.670282 
L 585.333307 276.285001 
L 585.968191 278.107837 
L 586.603076 283.706589 
L 587.23796 277.977651 
L 587.872845 285.529424 
L 588.507729 267.691605 
L 589.142614 295.424854 
L 589.142614 295.424854 
" clip-path="url(#pa28e3f66bd)" style="fill: none; stroke: #ff7f0e; stroke-width: 1.5; stroke-linecap: square"/>
   </g>
   <g id="line2d_39">
    <path d="M 56.50625 551.518125 
L 614.50625 551.518125 
" clip-path="url(#pa28e3f66bd)" style="fill: none; stroke-dasharray: 11.1,4.8; stroke-dashoffset: 0; stroke: #ff0000; stroke-width: 3"/>
   </g>
   <g id="patch_3">
    <path d="M 56.50625 576.718125 
L 56.50625 22.318125 
" style="fill: none; stroke: #000000; stroke-width: 0.8; stroke-linejoin: miter; stroke-linecap: square"/>
   </g>
   <g id="patch_4">
    <path d="M 614.50625 576.718125 
L 614.50625 22.318125 
" style="fill: none; stroke: #000000; stroke-width: 0.8; stroke-linejoin: miter; stroke-linecap: square"/>
   </g>
   <g id="patch_5">
    <path d="M 56.50625 576.718125 
L 614.50625 576.718125 
" style="fill: none; stroke: #000000; stroke-width: 0.8; stroke-linejoin: miter; stroke-linecap: square"/>
   </g>
   <g id="patch_6">
    <path d="M 56.50625 22.318125 
L 614.50625 22.318125 
" style="fill: none; stroke: #000000; stroke-width: 0.8; stroke-linejoin: miter; stroke-linecap: square"/>
   </g>
   <g id="text_21">
    <!-- Train and Val Accuracy -->
    <g transform="translate(267.727813 16.318125) scale(0.12 -0.12)">
     <defs>
      <path id="DejaVuSans-54" d="M -19 4666 
L 3928 4666 
L 3928 4134 
L 2272 4134 
L 2272 0 
L 1638 0 
L 1638 4134 
L -19 4134 
L -19 4666 
z
" transform="scale(0.015625)"/>
      <path id="DejaVuSans-69" d="M 603 3500 
L 1178 3500 
L 1178 0 
L 603 0 
L 603 3500 
z
M 603 4863 
L 1178 4863 
L 1178 4134 
L 603 4134 
L 603 4863 
z
" transform="scale(0.015625)"/>
      <path id="DejaVuSans-6e" d="M 3513 2113 
L 3513 0 
L 2938 0 
L 2938 2094 
Q 2938 2591 2744 2837 
Q 2550 3084 2163 3084 
Q 1697 3084 1428 2787 
Q 1159 2491 1159 1978 
L 1159 0 
L 581 0 
L 581 3500 
L 1159 3500 
L 1159 2956 
Q 1366 3272 1645 3428 
Q 1925 3584 2291 3584 
Q 2894 3584 3203 3211 
Q 3513 2838 3513 2113 
z
" transform="scale(0.015625)"/>
      <path id="DejaVuSans-20" transform="scale(0.015625)"/>
      <path id="DejaVuSans-64" d="M 2906 2969 
L 2906 4863 
L 3481 4863 
L 3481 0 
L 2906 0 
L 2906 525 
Q 2725 213 2448 61 
Q 2172 -91 1784 -91 
Q 1150 -91 751 415 
Q 353 922 353 1747 
Q 353 2572 751 3078 
Q 1150 3584 1784 3584 
Q 2172 3584 2448 3432 
Q 2725 3281 2906 2969 
z
M 947 1747 
Q 947 1113 1208 752 
Q 1469 391 1925 391 
Q 2381 391 2643 752 
Q 2906 1113 2906 1747 
Q 2906 2381 2643 2742 
Q 2381 3103 1925 3103 
Q 1469 3103 1208 2742 
Q 947 2381 947 1747 
z
" transform="scale(0.015625)"/>
      <path id="DejaVuSans-56" d="M 1831 0 
L 50 4666 
L 709 4666 
L 2188 738 
L 3669 4666 
L 4325 4666 
L 2547 0 
L 1831 0 
z
" transform="scale(0.015625)"/>
      <path id="DejaVuSans-6c" d="M 603 4863 
L 1178 4863 
L 1178 0 
L 603 0 
L 603 4863 
z
" transform="scale(0.015625)"/>
     </defs>
     <use xlink:href="#DejaVuSans-54"/>
     <use xlink:href="#DejaVuSans-72" transform="translate(46.333984 0)"/>
     <use xlink:href="#DejaVuSans-61" transform="translate(87.447266 0)"/>
     <use xlink:href="#DejaVuSans-69" transform="translate(148.726562 0)"/>
     <use xlink:href="#DejaVuSans-6e" transform="translate(176.509766 0)"/>
     <use xlink:href="#DejaVuSans-20" transform="translate(239.888672 0)"/>
     <use xlink:href="#DejaVuSans-61" transform="translate(271.675781 0)"/>
     <use xlink:href="#DejaVuSans-6e" transform="translate(332.955078 0)"/>
     <use xlink:href="#DejaVuSans-64" transform="translate(396.333984 0)"/>
     <use xlink:href="#DejaVuSans-20" transform="translate(459.810547 0)"/>
     <use xlink:href="#DejaVuSans-56" transform="translate(491.597656 0)"/>
     <use xlink:href="#DejaVuSans-61" transform="translate(552.255859 0)"/>
     <use xlink:href="#DejaVuSans-6c" transform="translate(613.535156 0)"/>
     <use xlink:href="#DejaVuSans-20" transform="translate(641.318359 0)"/>
     <use xlink:href="#DejaVuSans-41" transform="translate(673.105469 0)"/>
     <use xlink:href="#DejaVuSans-63" transform="translate(739.763672 0)"/>
     <use xlink:href="#DejaVuSans-63" transform="translate(794.744141 0)"/>
     <use xlink:href="#DejaVuSans-75" transform="translate(849.724609 0)"/>
     <use xlink:href="#DejaVuSans-72" transform="translate(913.103516 0)"/>
     <use xlink:href="#DejaVuSans-61" transform="translate(954.216797 0)"/>
     <use xlink:href="#DejaVuSans-63" transform="translate(1015.496094 0)"/>
     <use xlink:href="#DejaVuSans-79" transform="translate(1070.476562 0)"/>
    </g>
   </g>
   <g id="legend_1">
    <g id="patch_7">
     <path d="M 63.50625 74.90875 
L 230.629687 74.90875 
Q 232.629687 74.90875 232.629687 72.90875 
L 232.629687 29.318125 
Q 232.629687 27.318125 230.629687 27.318125 
L 63.50625 27.318125 
Q 61.50625 27.318125 61.50625 29.318125 
L 61.50625 72.90875 
Q 61.50625 74.90875 63.50625 74.90875 
z
" style="fill: #ffffff; opacity: 0.8; stroke: #cccccc; stroke-linejoin: miter"/>
    </g>
    <g id="line2d_40">
     <path d="M 65.50625 35.416562 
L 75.50625 35.416562 
L 85.50625 35.416562 
" style="fill: none; stroke: #1f77b4; stroke-width: 1.5; stroke-linecap: square"/>
    </g>
    <g id="text_22">
     <!-- train_accuracy -->
     <g transform="translate(93.50625 38.916562) scale(0.1 -0.1)">
      <defs>
       <path id="DejaVuSans-74" d="M 1172 4494 
L 1172 3500 
L 2356 3500 
L 2356 3053 
L 1172 3053 
L 1172 1153 
Q 1172 725 1289 603 
Q 1406 481 1766 481 
L 2356 481 
L 2356 0 
L 1766 0 
Q 1100 0 847 248 
Q 594 497 594 1153 
L 594 3053 
L 172 3053 
L 172 3500 
L 594 3500 
L 594 4494 
L 1172 4494 
z
" transform="scale(0.015625)"/>
       <path id="DejaVuSans-5f" d="M 3263 -1063 
L 3263 -1509 
L -63 -1509 
L -63 -1063 
L 3263 -1063 
z
" transform="scale(0.015625)"/>
      </defs>
      <use xlink:href="#DejaVuSans-74"/>
      <use xlink:href="#DejaVuSans-72" transform="translate(39.208984 0)"/>
      <use xlink:href="#DejaVuSans-61" transform="translate(80.322266 0)"/>
      <use xlink:href="#DejaVuSans-69" transform="translate(141.601562 0)"/>
      <use xlink:href="#DejaVuSans-6e" transform="translate(169.384766 0)"/>
      <use xlink:href="#DejaVuSans-5f" transform="translate(232.763672 0)"/>
      <use xlink:href="#DejaVuSans-61" transform="translate(282.763672 0)"/>
      <use xlink:href="#DejaVuSans-63" transform="translate(344.042969 0)"/>
      <use xlink:href="#DejaVuSans-63" transform="translate(399.023438 0)"/>
      <use xlink:href="#DejaVuSans-75" transform="translate(454.003906 0)"/>
      <use xlink:href="#DejaVuSans-72" transform="translate(517.382812 0)"/>
      <use xlink:href="#DejaVuSans-61" transform="translate(558.496094 0)"/>
      <use xlink:href="#DejaVuSans-63" transform="translate(619.775391 0)"/>
      <use xlink:href="#DejaVuSans-79" transform="translate(674.755859 0)"/>
     </g>
    </g>
    <g id="line2d_41">
     <path d="M 65.50625 50.372812 
L 75.50625 50.372812 
L 85.50625 50.372812 
" style="fill: none; stroke: #ff7f0e; stroke-width: 1.5; stroke-linecap: square"/>
    </g>
    <g id="text_23">
     <!-- val_accuracy -->
     <g transform="translate(93.50625 53.872812) scale(0.1 -0.1)">
      <defs>
       <path id="DejaVuSans-76" d="M 191 3500 
L 800 3500 
L 1894 563 
L 2988 3500 
L 3597 3500 
L 2284 0 
L 1503 0 
L 191 3500 
z
" transform="scale(0.015625)"/>
      </defs>
      <use xlink:href="#DejaVuSans-76"/>
      <use xlink:href="#DejaVuSans-61" transform="translate(59.179688 0)"/>
      <use xlink:href="#DejaVuSans-6c" transform="translate(120.458984 0)"/>
      <use xlink:href="#DejaVuSans-5f" transform="translate(148.242188 0)"/>
      <use xlink:href="#DejaVuSans-61" transform="translate(198.242188 0)"/>
      <use xlink:href="#DejaVuSans-63" transform="translate(259.521484 0)"/>
      <use xlink:href="#DejaVuSans-63" transform="translate(314.501953 0)"/>
      <use xlink:href="#DejaVuSans-75" transform="translate(369.482422 0)"/>
      <use xlink:href="#DejaVuSans-72" transform="translate(432.861328 0)"/>
      <use xlink:href="#DejaVuSans-61" transform="translate(473.974609 0)"/>
      <use xlink:href="#DejaVuSans-63" transform="translate(535.253906 0)"/>
      <use xlink:href="#DejaVuSans-79" transform="translate(590.234375 0)"/>
     </g>
    </g>
    <g id="line2d_42">
     <path d="M 65.50625 65.329062 
L 75.50625 65.329062 
L 85.50625 65.329062 
" style="fill: none; stroke-dasharray: 11.1,4.8; stroke-dashoffset: 0; stroke: #ff0000; stroke-width: 3"/>
    </g>
    <g id="text_24">
     <!-- Random-Guesser Accuracy -->
     <g transform="translate(93.50625 68.829062) scale(0.1 -0.1)">
      <defs>
       <path id="DejaVuSans-52" d="M 2841 2188 
Q 3044 2119 3236 1894 
Q 3428 1669 3622 1275 
L 4263 0 
L 3584 0 
L 2988 1197 
Q 2756 1666 2539 1819 
Q 2322 1972 1947 1972 
L 1259 1972 
L 1259 0 
L 628 0 
L 628 4666 
L 2053 4666 
Q 2853 4666 3247 4331 
Q 3641 3997 3641 3322 
Q 3641 2881 3436 2590 
Q 3231 2300 2841 2188 
z
M 1259 4147 
L 1259 2491 
L 2053 2491 
Q 2509 2491 2742 2702 
Q 2975 2913 2975 3322 
Q 2975 3731 2742 3939 
Q 2509 4147 2053 4147 
L 1259 4147 
z
" transform="scale(0.015625)"/>
       <path id="DejaVuSans-6d" d="M 3328 2828 
Q 3544 3216 3844 3400 
Q 4144 3584 4550 3584 
Q 5097 3584 5394 3201 
Q 5691 2819 5691 2113 
L 5691 0 
L 5113 0 
L 5113 2094 
Q 5113 2597 4934 2840 
Q 4756 3084 4391 3084 
Q 3944 3084 3684 2787 
Q 3425 2491 3425 1978 
L 3425 0 
L 2847 0 
L 2847 2094 
Q 2847 2600 2669 2842 
Q 2491 3084 2119 3084 
Q 1678 3084 1418 2786 
Q 1159 2488 1159 1978 
L 1159 0 
L 581 0 
L 581 3500 
L 1159 3500 
L 1159 2956 
Q 1356 3278 1631 3431 
Q 1906 3584 2284 3584 
Q 2666 3584 2933 3390 
Q 3200 3197 3328 2828 
z
" transform="scale(0.015625)"/>
       <path id="DejaVuSans-2d" d="M 313 2009 
L 1997 2009 
L 1997 1497 
L 313 1497 
L 313 2009 
z
" transform="scale(0.015625)"/>
       <path id="DejaVuSans-47" d="M 3809 666 
L 3809 1919 
L 2778 1919 
L 2778 2438 
L 4434 2438 
L 4434 434 
Q 4069 175 3628 42 
Q 3188 -91 2688 -91 
Q 1594 -91 976 548 
Q 359 1188 359 2328 
Q 359 3472 976 4111 
Q 1594 4750 2688 4750 
Q 3144 4750 3555 4637 
Q 3966 4525 4313 4306 
L 4313 3634 
Q 3963 3931 3569 4081 
Q 3175 4231 2741 4231 
Q 1884 4231 1454 3753 
Q 1025 3275 1025 2328 
Q 1025 1384 1454 906 
Q 1884 428 2741 428 
Q 3075 428 3337 486 
Q 3600 544 3809 666 
z
" transform="scale(0.015625)"/>
       <path id="DejaVuSans-65" d="M 3597 1894 
L 3597 1613 
L 953 1613 
Q 991 1019 1311 708 
Q 1631 397 2203 397 
Q 2534 397 2845 478 
Q 3156 559 3463 722 
L 3463 178 
Q 3153 47 2828 -22 
Q 2503 -91 2169 -91 
Q 1331 -91 842 396 
Q 353 884 353 1716 
Q 353 2575 817 3079 
Q 1281 3584 2069 3584 
Q 2775 3584 3186 3129 
Q 3597 2675 3597 1894 
z
M 3022 2063 
Q 3016 2534 2758 2815 
Q 2500 3097 2075 3097 
Q 1594 3097 1305 2825 
Q 1016 2553 972 2059 
L 3022 2063 
z
" transform="scale(0.015625)"/>
      </defs>
      <use xlink:href="#DejaVuSans-52"/>
      <use xlink:href="#DejaVuSans-61" transform="translate(67.232422 0)"/>
      <use xlink:href="#DejaVuSans-6e" transform="translate(128.511719 0)"/>
      <use xlink:href="#DejaVuSans-64" transform="translate(191.890625 0)"/>
      <use xlink:href="#DejaVuSans-6f" transform="translate(255.367188 0)"/>
      <use xlink:href="#DejaVuSans-6d" transform="translate(316.548828 0)"/>
      <use xlink:href="#DejaVuSans-2d" transform="translate(413.960938 0)"/>
      <use xlink:href="#DejaVuSans-47" transform="translate(453.669922 0)"/>
      <use xlink:href="#DejaVuSans-75" transform="translate(531.160156 0)"/>
      <use xlink:href="#DejaVuSans-65" transform="translate(594.539062 0)"/>
      <use xlink:href="#DejaVuSans-73" transform="translate(656.0625 0)"/>
      <use xlink:href="#DejaVuSans-73" transform="translate(708.162109 0)"/>
      <use xlink:href="#DejaVuSans-65" transform="translate(760.261719 0)"/>
      <use xlink:href="#DejaVuSans-72" transform="translate(821.785156 0)"/>
      <use xlink:href="#DejaVuSans-20" transform="translate(862.898438 0)"/>
      <use xlink:href="#DejaVuSans-41" transform="translate(894.685547 0)"/>
      <use xlink:href="#DejaVuSans-63" transform="translate(961.34375 0)"/>
      <use xlink:href="#DejaVuSans-63" transform="translate(1016.324219 0)"/>
      <use xlink:href="#DejaVuSans-75" transform="translate(1071.304688 0)"/>
      <use xlink:href="#DejaVuSans-72" transform="translate(1134.683594 0)"/>
      <use xlink:href="#DejaVuSans-61" transform="translate(1175.796875 0)"/>
      <use xlink:href="#DejaVuSans-63" transform="translate(1237.076172 0)"/>
      <use xlink:href="#DejaVuSans-79" transform="translate(1292.056641 0)"/>
     </g>
    </g>
   </g>
  </g>
 </g>
 <defs>
  <clipPath id="pa28e3f66bd">
   <rect x="56.50625" y="22.318125" width="558" height="554.4"/>
  </clipPath>
 </defs>
</svg>
