<?xml version="1.0" encoding="utf-8" standalone="no"?>
<!DOCTYPE svg PUBLIC "-//W3C//DTD SVG 1.1//EN"
  "http://www.w3.org/Graphics/SVG/1.1/DTD/svg11.dtd">
<svg xmlns:xlink="http://www.w3.org/1999/xlink" width="605.803125pt" height="614.274375pt" viewBox="0 0 605.803125 614.274375" xmlns="http://www.w3.org/2000/svg" version="1.1">
 <metadata>
  <rdf:RDF xmlns:dc="http://purl.org/dc/elements/1.1/" xmlns:cc="http://creativecommons.org/ns#" xmlns:rdf="http://www.w3.org/1999/02/22-rdf-syntax-ns#">
   <cc:Work>
    <dc:type rdf:resource="http://purl.org/dc/dcmitype/StillImage"/>
    <dc:date>2026-05-24T04:38:57.809864</dc:date>
    <dc:format>image/svg+xml</dc:format>
    <dc:creator>
     <cc:Agent>
      <dc:title>Matplotlib v3.10.9, https://matplotlib.org/</dc:title>
     </cc:Agent>
    </dc:creator>
   </cc:Work>
  </rdf:RDF>
 </metadata>
 <defs>
  <style type="text/css">*{stroke-linejoin: round; stroke-linecap: butt}</style>
 </defs>
 <g id="figure_1">
  <g id="patch_1">
   <path d="M 0 614.274375 
L 605.803125 614.274375 
L 605.803125 0 
L 0 0 
z
" style="fill: #ffffff"/>
  </g>
  <g id="axes_1">
   <g id="patch_2">
    <path d="M 40.603125 576.718125 
L 598.603125 576.718125 
L 598.603125 22.318125 
L 40.603125 22.318125 
z
" style="fill: #ffffff"/>
   </g>
   <g id="matplotlib.axis_1">
    <g id="xtick_1">
     <g id="line2d_1">
      <path d="M 65.966761 576.718125 
L 65.966761 22.318125 
" clip-path="url(#p8735fa0b6e)" style="fill: none; stroke: #b0b0b0; stroke-width: 0.8; stroke-linecap: square"/>
     </g>
     <g id="line2d_2">
      <defs>
       <path id="m17bb4f0e3d" d="M 0 0 
L 0 3.5 
" style="stroke: #000000; stroke-width: 0.8"/>
      </defs>
      <g>
       <use xlink:href="#m17bb4f0e3d" x="65.966761" y="576.718125" style="stroke: #000000; stroke-width: 0.8"/>
      </g>
     </g>
     <g id="text_1">
      <!-- 0 -->
      <g transform="translate(62.785511 591.316563) scale(0.1 -0.1)">
       <defs>
        <path id="DejaVuSans-30" d="M 2034 4250 
Q 1547 4250 1301 3770 
Q 1056 3291 1056 2328 
Q 1056 1369 1301 889 
Q 1547 409 2034 409 
Q 2525 409 2770 889 
Q 3016 1369 3016 2328 
Q 3016 3291 2770 3770 
Q 2525 4250 2034 4250 
z
M 2034 4750 
Q 2819 4750 3233 4129 
Q 3647 3509 3647 2328 
Q 3647 1150 3233 529 
Q 2819 -91 2034 -91 
Q 1250 -91 836 529 
Q 422 1150 422 2328 
Q 422 3509 836 4129 
Q 1250 4750 2034 4750 
z
" transform="scale(0.015625)"/>
       </defs>
       <use xlink:href="#DejaVuSans-30"/>
      </g>
     </g>
    </g>
    <g id="xtick_2">
     <g id="line2d_3">
      <path d="M 129.455213 576.718125 
L 129.455213 22.318125 
" clip-path="url(#p8735fa0b6e)" style="fill: none; stroke: #b0b0b0; stroke-width: 0.8; stroke-linecap: square"/>
     </g>
     <g id="line2d_4">
      <g>
       <use xlink:href="#m17bb4f0e3d" x="129.455213" y="576.718125" style="stroke: #000000; stroke-width: 0.8"/>
      </g>
     </g>
     <g id="text_2">
      <!-- 100 -->
      <g transform="translate(119.911463 591.316563) scale(0.1 -0.1)">
       <defs>
        <path id="DejaVuSans-31" d="M 794 531 
L 1825 531 
L 1825 4091 
L 703 3866 
L 703 4441 
L 1819 4666 
L 2450 4666 
L 2450 531 
L 3481 531 
L 3481 0 
L 794 0 
L 794 531 
z
" transform="scale(0.015625)"/>
       </defs>
       <use xlink:href="#DejaVuSans-31"/>
       <use xlink:href="#DejaVuSans-30" transform="translate(63.623047 0)"/>
       <use xlink:href="#DejaVuSans-30" transform="translate(127.246094 0)"/>
      </g>
     </g>
    </g>
    <g id="xtick_3">
     <g id="line2d_5">
      <path d="M 192.943664 576.718125 
L 192.943664 22.318125 
" clip-path="url(#p8735fa0b6e)" style="fill: none; stroke: #b0b0b0; stroke-width: 0.8; stroke-linecap: square"/>
     </g>
     <g id="line2d_6">
      <g>
       <use xlink:href="#m17bb4f0e3d" x="192.943664" y="576.718125" style="stroke: #000000; stroke-width: 0.8"/>
      </g>
     </g>
     <g id="text_3">
      <!-- 200 -->
      <g transform="translate(183.399914 591.316563) scale(0.1 -0.1)">
       <defs>
        <path id="DejaVuSans-32" d="M 1228 531 
L 3431 531 
L 3431 0 
L 469 0 
L 469 531 
Q 828 903 1448 1529 
Q 2069 2156 2228 2338 
Q 2531 2678 2651 2914 
Q 2772 3150 2772 3378 
Q 2772 3750 2511 3984 
Q 2250 4219 1831 4219 
Q 1534 4219 1204 4116 
Q 875 4013 500 3803 
L 500 4441 
Q 881 4594 1212 4672 
Q 1544 4750 1819 4750 
Q 2544 4750 2975 4387 
Q 3406 4025 3406 3419 
Q 3406 3131 3298 2873 
Q 3191 2616 2906 2266 
Q 2828 2175 2409 1742 
Q 1991 1309 1228 531 
z
" transform="scale(0.015625)"/>
       </defs>
       <use xlink:href="#DejaVuSans-32"/>
       <use xlink:href="#DejaVuSans-30" transform="translate(63.623047 0)"/>
       <use xlink:href="#DejaVuSans-30" transform="translate(127.246094 0)"/>
      </g>
     </g>
    </g>
    <g id="xtick_4">
     <g id="line2d_7">
      <path d="M 256.432116 576.718125 
L 256.432116 22.318125 
" clip-path="url(#p8735fa0b6e)" style="fill: none; stroke: #b0b0b0; stroke-width: 0.8; stroke-linecap: square"/>
     </g>
     <g id="line2d_8">
      <g>
       <use xlink:href="#m17bb4f0e3d" x="256.432116" y="576.718125" style="stroke: #000000; stroke-width: 0.8"/>
      </g>
     </g>
     <g id="text_4">
      <!-- 300 -->
      <g transform="translate(246.888366 591.316563) scale(0.1 -0.1)">
       <defs>
        <path id="DejaVuSans-33" d="M 2597 2516 
Q 3050 2419 3304 2112 
Q 3559 1806 3559 1356 
Q 3559 666 3084 287 
Q 2609 -91 1734 -91 
Q 1441 -91 1130 -33 
Q 819 25 488 141 
L 488 750 
Q 750 597 1062 519 
Q 1375 441 1716 441 
Q 2309 441 2620 675 
Q 2931 909 2931 1356 
Q 2931 1769 2642 2001 
Q 2353 2234 1838 2234 
L 1294 2234 
L 1294 2753 
L 1863 2753 
Q 2328 2753 2575 2939 
Q 2822 3125 2822 3475 
Q 2822 3834 2567 4026 
Q 2313 4219 1838 4219 
Q 1578 4219 1281 4162 
Q 984 4106 628 3988 
L 628 4550 
Q 988 4650 1302 4700 
Q 1616 4750 1894 4750 
Q 2613 4750 3031 4423 
Q 3450 4097 3450 3541 
Q 3450 3153 3228 2886 
Q 3006 2619 2597 2516 
z
" transform="scale(0.015625)"/>
       </defs>
       <use xlink:href="#DejaVuSans-33"/>
       <use xlink:href="#DejaVuSans-30" transform="translate(63.623047 0)"/>
       <use xlink:href="#DejaVuSans-30" transform="translate(127.246094 0)"/>
      </g>
     </g>
    </g>
    <g id="xtick_5">
     <g id="line2d_9">
      <path d="M 319.920567 576.718125 
L 319.920567 22.318125 
" clip-path="url(#p8735fa0b6e)" style="fill: none; stroke: #b0b0b0; stroke-width: 0.8; stroke-linecap: square"/>
     </g>
     <g id="line2d_10">
      <g>
       <use xlink:href="#m17bb4f0e3d" x="319.920567" y="576.718125" style="stroke: #000000; stroke-width: 0.8"/>
      </g>
     </g>
     <g id="text_5">
      <!-- 400 -->
      <g transform="translate(310.376817 591.316563) scale(0.1 -0.1)">
       <defs>
        <path id="DejaVuSans-34" d="M 2419 4116 
L 825 1625 
L 2419 1625 
L 2419 4116 
z
M 2253 4666 
L 3047 4666 
L 3047 1625 
L 3713 1625 
L 3713 1100 
L 3047 1100 
L 3047 0 
L 2419 0 
L 2419 1100 
L 313 1100 
L 313 1709 
L 2253 4666 
z
" transform="scale(0.015625)"/>
       </defs>
       <use xlink:href="#DejaVuSans-34"/>
       <use xlink:href="#DejaVuSans-30" transform="translate(63.623047 0)"/>
       <use xlink:href="#DejaVuSans-30" transform="translate(127.246094 0)"/>
      </g>
     </g>
    </g>
    <g id="xtick_6">
     <g id="line2d_11">
      <path d="M 383.409019 576.718125 
L 383.409019 22.318125 
" clip-path="url(#p8735fa0b6e)" style="fill: none; stroke: #b0b0b0; stroke-width: 0.8; stroke-linecap: square"/>
     </g>
     <g id="line2d_12">
      <g>
       <use xlink:href="#m17bb4f0e3d" x="383.409019" y="576.718125" style="stroke: #000000; stroke-width: 0.8"/>
      </g>
     </g>
     <g id="text_6">
      <!-- 500 -->
      <g transform="translate(373.865269 591.316563) scale(0.1 -0.1)">
       <defs>
        <path id="DejaVuSans-35" d="M 691 4666 
L 3169 4666 
L 3169 4134 
L 1269 4134 
L 1269 2991 
Q 1406 3038 1543 3061 
Q 1681 3084 1819 3084 
Q 2600 3084 3056 2656 
Q 3513 2228 3513 1497 
Q 3513 744 3044 326 
Q 2575 -91 1722 -91 
Q 1428 -91 1123 -41 
Q 819 9 494 109 
L 494 744 
Q 775 591 1075 516 
Q 1375 441 1709 441 
Q 2250 441 2565 725 
Q 2881 1009 2881 1497 
Q 2881 1984 2565 2268 
Q 2250 2553 1709 2553 
Q 1456 2553 1204 2497 
Q 953 2441 691 2322 
L 691 4666 
z
" transform="scale(0.015625)"/>
       </defs>
       <use xlink:href="#DejaVuSans-35"/>
       <use xlink:href="#DejaVuSans-30" transform="translate(63.623047 0)"/>
       <use xlink:href="#DejaVuSans-30" transform="translate(127.246094 0)"/>
      </g>
     </g>
    </g>
    <g id="xtick_7">
     <g id="line2d_13">
      <path d="M 446.89747 576.718125 
L 446.89747 22.318125 
" clip-path="url(#p8735fa0b6e)" style="fill: none; stroke: #b0b0b0; stroke-width: 0.8; stroke-linecap: square"/>
     </g>
     <g id="line2d_14">
      <g>
       <use xlink:href="#m17bb4f0e3d" x="446.89747" y="576.718125" style="stroke: #000000; stroke-width: 0.8"/>
      </g>
     </g>
     <g id="text_7">
      <!-- 600 -->
      <g transform="translate(437.35372 591.316563) scale(0.1 -0.1)">
       <defs>
        <path id="DejaVuSans-36" d="M 2113 2584 
Q 1688 2584 1439 2293 
Q 1191 2003 1191 1497 
Q 1191 994 1439 701 
Q 1688 409 2113 409 
Q 2538 409 2786 701 
Q 3034 994 3034 1497 
Q 3034 2003 2786 2293 
Q 2538 2584 2113 2584 
z
M 3366 4563 
L 3366 3988 
Q 3128 4100 2886 4159 
Q 2644 4219 2406 4219 
Q 1781 4219 1451 3797 
Q 1122 3375 1075 2522 
Q 1259 2794 1537 2939 
Q 1816 3084 2150 3084 
Q 2853 3084 3261 2657 
Q 3669 2231 3669 1497 
Q 3669 778 3244 343 
Q 2819 -91 2113 -91 
Q 1303 -91 875 529 
Q 447 1150 447 2328 
Q 447 3434 972 4092 
Q 1497 4750 2381 4750 
Q 2619 4750 2861 4703 
Q 3103 4656 3366 4563 
z
" transform="scale(0.015625)"/>
       </defs>
       <use xlink:href="#DejaVuSans-36"/>
       <use xlink:href="#DejaVuSans-30" transform="translate(63.623047 0)"/>
       <use xlink:href="#DejaVuSans-30" transform="translate(127.246094 0)"/>
      </g>
     </g>
    </g>
    <g id="xtick_8">
     <g id="line2d_15">
      <path d="M 510.385922 576.718125 
L 510.385922 22.318125 
" clip-path="url(#p8735fa0b6e)" style="fill: none; stroke: #b0b0b0; stroke-width: 0.8; stroke-linecap: square"/>
     </g>
     <g id="line2d_16">
      <g>
       <use xlink:href="#m17bb4f0e3d" x="510.385922" y="576.718125" style="stroke: #000000; stroke-width: 0.8"/>
      </g>
     </g>
     <g id="text_8">
      <!-- 700 -->
      <g transform="translate(500.842172 591.316563) scale(0.1 -0.1)">
       <defs>
        <path id="DejaVuSans-37" d="M 525 4666 
L 3525 4666 
L 3525 4397 
L 1831 0 
L 1172 0 
L 2766 4134 
L 525 4134 
L 525 4666 
z
" transform="scale(0.015625)"/>
       </defs>
       <use xlink:href="#DejaVuSans-37"/>
       <use xlink:href="#DejaVuSans-30" transform="translate(63.623047 0)"/>
       <use xlink:href="#DejaVuSans-30" transform="translate(127.246094 0)"/>
      </g>
     </g>
    </g>
    <g id="xtick_9">
     <g id="line2d_17">
      <path d="M 573.874373 576.718125 
L 573.874373 22.318125 
" clip-path="url(#p8735fa0b6e)" style="fill: none; stroke: #b0b0b0; stroke-width: 0.8; stroke-linecap: square"/>
     </g>
     <g id="line2d_18">
      <g>
       <use xlink:href="#m17bb4f0e3d" x="573.874373" y="576.718125" style="stroke: #000000; stroke-width: 0.8"/>
      </g>
     </g>
     <g id="text_9">
      <!-- 800 -->
      <g transform="translate(564.330623 591.316563) scale(0.1 -0.1)">
       <defs>
        <path id="DejaVuSans-38" d="M 2034 2216 
Q 1584 2216 1326 1975 
Q 1069 1734 1069 1313 
Q 1069 891 1326 650 
Q 1584 409 2034 409 
Q 2484 409 2743 651 
Q 3003 894 3003 1313 
Q 3003 1734 2745 1975 
Q 2488 2216 2034 2216 
z
M 1403 2484 
Q 997 2584 770 2862 
Q 544 3141 544 3541 
Q 544 4100 942 4425 
Q 1341 4750 2034 4750 
Q 2731 4750 3128 4425 
Q 3525 4100 3525 3541 
Q 3525 3141 3298 2862 
Q 3072 2584 2669 2484 
Q 3125 2378 3379 2068 
Q 3634 1759 3634 1313 
Q 3634 634 3220 271 
Q 2806 -91 2034 -91 
Q 1263 -91 848 271 
Q 434 634 434 1313 
Q 434 1759 690 2068 
Q 947 2378 1403 2484 
z
M 1172 3481 
Q 1172 3119 1398 2916 
Q 1625 2713 2034 2713 
Q 2441 2713 2670 2916 
Q 2900 3119 2900 3481 
Q 2900 3844 2670 4047 
Q 2441 4250 2034 4250 
Q 1625 4250 1398 4047 
Q 1172 3844 1172 3481 
z
" transform="scale(0.015625)"/>
       </defs>
       <use xlink:href="#DejaVuSans-38"/>
       <use xlink:href="#DejaVuSans-30" transform="translate(63.623047 0)"/>
       <use xlink:href="#DejaVuSans-30" transform="translate(127.246094 0)"/>
      </g>
     </g>
    </g>
    <g id="text_10">
     <!-- Epochs -->
     <g transform="translate(301.6875 604.994688) scale(0.1 -0.1)">
      <defs>
       <path id="DejaVuSans-45" d="M 628 4666 
L 3578 4666 
L 3578 4134 
L 1259 4134 
L 1259 2753 
L 3481 2753 
L 3481 2222 
L 1259 2222 
L 1259 531 
L 3634 531 
L 3634 0 
L 628 0 
L 628 4666 
z
" transform="scale(0.015625)"/>
       <path id="DejaVuSans-70" d="M 1159 525 
L 1159 -1331 
L 581 -1331 
L 581 3500 
L 1159 3500 
L 1159 2969 
Q 1341 3281 1617 3432 
Q 1894 3584 2278 3584 
Q 2916 3584 3314 3078 
Q 3713 2572 3713 1747 
Q 3713 922 3314 415 
Q 2916 -91 2278 -91 
Q 1894 -91 1617 61 
Q 1341 213 1159 525 
z
M 3116 1747 
Q 3116 2381 2855 2742 
Q 2594 3103 2138 3103 
Q 1681 3103 1420 2742 
Q 1159 2381 1159 1747 
Q 1159 1113 1420 752 
Q 1681 391 2138 391 
Q 2594 391 2855 752 
Q 3116 1113 3116 1747 
z
" transform="scale(0.015625)"/>
       <path id="DejaVuSans-6f" d="M 1959 3097 
Q 1497 3097 1228 2736 
Q 959 2375 959 1747 
Q 959 1119 1226 758 
Q 1494 397 1959 397 
Q 2419 397 2687 759 
Q 2956 1122 2956 1747 
Q 2956 2369 2687 2733 
Q 2419 3097 1959 3097 
z
M 1959 3584 
Q 2709 3584 3137 3096 
Q 3566 2609 3566 1747 
Q 3566 888 3137 398 
Q 2709 -91 1959 -91 
Q 1206 -91 779 398 
Q 353 888 353 1747 
Q 353 2609 779 3096 
Q 1206 3584 1959 3584 
z
" transform="scale(0.015625)"/>
       <path id="DejaVuSans-63" d="M 3122 3366 
L 3122 2828 
Q 2878 2963 2633 3030 
Q 2388 3097 2138 3097 
Q 1578 3097 1268 2742 
Q 959 2388 959 1747 
Q 959 1106 1268 751 
Q 1578 397 2138 397 
Q 2388 397 2633 464 
Q 2878 531 3122 666 
L 3122 134 
Q 2881 22 2623 -34 
Q 2366 -91 2075 -91 
Q 1284 -91 818 406 
Q 353 903 353 1747 
Q 353 2603 823 3093 
Q 1294 3584 2113 3584 
Q 2378 3584 2631 3529 
Q 2884 3475 3122 3366 
z
" transform="scale(0.015625)"/>
       <path id="DejaVuSans-68" d="M 3513 2113 
L 3513 0 
L 2938 0 
L 2938 2094 
Q 2938 2591 2744 2837 
Q 2550 3084 2163 3084 
Q 1697 3084 1428 2787 
Q 1159 2491 1159 1978 
L 1159 0 
L 581 0 
L 581 4863 
L 1159 4863 
L 1159 2956 
Q 1366 3272 1645 3428 
Q 1925 3584 2291 3584 
Q 2894 3584 3203 3211 
Q 3513 2838 3513 2113 
z
" transform="scale(0.015625)"/>
       <path id="DejaVuSans-73" d="M 2834 3397 
L 2834 2853 
Q 2591 2978 2328 3040 
Q 2066 3103 1784 3103 
Q 1356 3103 1142 2972 
Q 928 2841 928 2578 
Q 928 2378 1081 2264 
Q 1234 2150 1697 2047 
L 1894 2003 
Q 2506 1872 2764 1633 
Q 3022 1394 3022 966 
Q 3022 478 2636 193 
Q 2250 -91 1575 -91 
Q 1294 -91 989 -36 
Q 684 19 347 128 
L 347 722 
Q 666 556 975 473 
Q 1284 391 1588 391 
Q 1994 391 2212 530 
Q 2431 669 2431 922 
Q 2431 1156 2273 1281 
Q 2116 1406 1581 1522 
L 1381 1569 
Q 847 1681 609 1914 
Q 372 2147 372 2553 
Q 372 3047 722 3315 
Q 1072 3584 1716 3584 
Q 2034 3584 2315 3537 
Q 2597 3491 2834 3397 
z
" transform="scale(0.015625)"/>
      </defs>
      <use xlink:href="#DejaVuSans-45"/>
      <use xlink:href="#DejaVuSans-70" transform="translate(63.183594 0)"/>
      <use xlink:href="#DejaVuSans-6f" transform="translate(126.660156 0)"/>
      <use xlink:href="#DejaVuSans-63" transform="translate(187.841797 0)"/>
      <use xlink:href="#DejaVuSans-68" transform="translate(242.822266 0)"/>
      <use xlink:href="#DejaVuSans-73" transform="translate(306.201172 0)"/>
     </g>
    </g>
   </g>
   <g id="matplotlib.axis_2">
    <g id="ytick_1">
     <g id="line2d_19">
      <path d="M 40.603125 551.705023 
L 598.603125 551.705023 
" clip-path="url(#p8735fa0b6e)" style="fill: none; stroke: #b0b0b0; stroke-width: 0.8; stroke-linecap: square"/>
     </g>
     <g id="line2d_20">
      <defs>
       <path id="mb498354315" d="M 0 0 
L -3.5 0 
" style="stroke: #000000; stroke-width: 0.8"/>
      </defs>
      <g>
       <use xlink:href="#mb498354315" x="40.603125" y="551.705023" style="stroke: #000000; stroke-width: 0.8"/>
      </g>
     </g>
     <g id="text_11">
      <!-- 0 -->
      <g transform="translate(27.240625 555.504242) scale(0.1 -0.1)">
       <use xlink:href="#DejaVuSans-30"/>
      </g>
     </g>
    </g>
    <g id="ytick_2">
     <g id="line2d_21">
      <path d="M 40.603125 429.72926 
L 598.603125 429.72926 
" clip-path="url(#p8735fa0b6e)" style="fill: none; stroke: #b0b0b0; stroke-width: 0.8; stroke-linecap: square"/>
     </g>
     <g id="line2d_22">
      <g>
       <use xlink:href="#mb498354315" x="40.603125" y="429.72926" style="stroke: #000000; stroke-width: 0.8"/>
      </g>
     </g>
     <g id="text_12">
      <!-- 10 -->
      <g transform="translate(20.878125 433.528479) scale(0.1 -0.1)">
       <use xlink:href="#DejaVuSans-31"/>
       <use xlink:href="#DejaVuSans-30" transform="translate(63.623047 0)"/>
      </g>
     </g>
    </g>
    <g id="ytick_3">
     <g id="line2d_23">
      <path d="M 40.603125 307.753497 
L 598.603125 307.753497 
" clip-path="url(#p8735fa0b6e)" style="fill: none; stroke: #b0b0b0; stroke-width: 0.8; stroke-linecap: square"/>
     </g>
     <g id="line2d_24">
      <g>
       <use xlink:href="#mb498354315" x="40.603125" y="307.753497" style="stroke: #000000; stroke-width: 0.8"/>
      </g>
     </g>
     <g id="text_13">
      <!-- 20 -->
      <g transform="translate(20.878125 311.552716) scale(0.1 -0.1)">
       <use xlink:href="#DejaVuSans-32"/>
       <use xlink:href="#DejaVuSans-30" transform="translate(63.623047 0)"/>
      </g>
     </g>
    </g>
    <g id="ytick_4">
     <g id="line2d_25">
      <path d="M 40.603125 185.777734 
L 598.603125 185.777734 
" clip-path="url(#p8735fa0b6e)" style="fill: none; stroke: #b0b0b0; stroke-width: 0.8; stroke-linecap: square"/>
     </g>
     <g id="line2d_26">
      <g>
       <use xlink:href="#mb498354315" x="40.603125" y="185.777734" style="stroke: #000000; stroke-width: 0.8"/>
      </g>
     </g>
     <g id="text_14">
      <!-- 30 -->
      <g transform="translate(20.878125 189.576953) scale(0.1 -0.1)">
       <use xlink:href="#DejaVuSans-33"/>
       <use xlink:href="#DejaVuSans-30" transform="translate(63.623047 0)"/>
      </g>
     </g>
    </g>
    <g id="ytick_5">
     <g id="line2d_27">
      <path d="M 40.603125 63.801971 
L 598.603125 63.801971 
" clip-path="url(#p8735fa0b6e)" style="fill: none; stroke: #b0b0b0; stroke-width: 0.8; stroke-linecap: square"/>
     </g>
     <g id="line2d_28">
      <g>
       <use xlink:href="#mb498354315" x="40.603125" y="63.801971" style="stroke: #000000; stroke-width: 0.8"/>
      </g>
     </g>
     <g id="text_15">
      <!-- 40 -->
      <g transform="translate(20.878125 67.60119) scale(0.1 -0.1)">
       <use xlink:href="#DejaVuSans-34"/>
       <use xlink:href="#DejaVuSans-30" transform="translate(63.623047 0)"/>
      </g>
     </g>
    </g>
    <g id="text_16">
     <!-- Loss -->
     <g transform="translate(14.798437 310.485313) rotate(-90) scale(0.1 -0.1)">
      <defs>
       <path id="DejaVuSans-4c" d="M 628 4666 
L 1259 4666 
L 1259 531 
L 3531 531 
L 3531 0 
L 628 0 
L 628 4666 
z
" transform="scale(0.015625)"/>
      </defs>
      <use xlink:href="#DejaVuSans-4c"/>
      <use xlink:href="#DejaVuSans-6f" transform="translate(53.962891 0)"/>
      <use xlink:href="#DejaVuSans-73" transform="translate(115.144531 0)"/>
      <use xlink:href="#DejaVuSans-73" transform="translate(167.244141 0)"/>
     </g>
    </g>
   </g>
   <g id="line2d_29">
    <path d="M 65.966761 529.820505 
L 66.601646 530.16864 
L 78.029567 531.062654 
L 86.91795 531.998644 
L 98.980756 533.529682 
L 124.376137 536.896443 
L 152.94594 540.439316 
L 185.32505 543.951505 
L 208.180893 546.075113 
L 229.766966 547.781079 
L 246.273964 548.855568 
L 267.860037 549.905581 
L 279.922843 550.33606 
L 316.746145 551.08653 
L 338.332218 551.281659 
L 380.869481 551.439697 
L 403.090439 551.46198 
L 407.53463 551.473407 
L 417.692783 551.476355 
L 430.390473 551.49289 
L 451.341662 551.495291 
L 462.134699 551.485026 
L 484.990541 551.509816 
L 487.530079 551.503854 
L 500.227769 551.507609 
L 507.846384 551.505303 
L 518.004536 551.498491 
L 528.797573 551.508657 
L 544.034801 551.507109 
L 573.239489 551.514921 
L 573.239489 551.514921 
" clip-path="url(#p8735fa0b6e)" style="fill: none; stroke: #1f77b4; stroke-width: 1.5; stroke-linecap: square"/>
   </g>
   <g id="line2d_30">
    <path d="M 65.966761 530.100446 
L 71.680722 530.23438 
L 78.029567 530.180578 
L 83.108643 529.96785 
L 93.266795 529.07507 
L 105.329601 527.426013 
L 109.773793 526.641429 
L 115.487754 525.477066 
L 116.757523 525.209507 
L 121.201714 524.241539 
L 123.741252 523.582531 
L 124.376137 523.478053 
L 125.011021 523.169786 
L 126.28079 522.918003 
L 128.820328 522.223382 
L 130.090097 521.972117 
L 132.629635 521.105198 
L 133.26452 520.934345 
L 133.899404 520.639368 
L 134.534289 520.50888 
L 135.169173 520.261372 
L 135.804058 520.144096 
L 137.073827 519.638422 
L 137.708712 519.533235 
L 140.24825 518.448735 
L 140.883134 518.389168 
L 141.518019 518.048626 
L 142.152903 518.043935 
L 144.692441 516.807216 
L 146.597095 516.153021 
L 148.501748 515.244841 
L 149.136633 514.8346 
L 149.771517 514.728724 
L 150.406402 514.503757 
L 151.041286 514.132078 
L 152.311055 513.696199 
L 154.215709 512.550745 
L 154.850593 512.50486 
L 155.485478 511.973344 
L 156.755247 511.286238 
L 157.390131 510.86941 
L 158.659901 510.505827 
L 159.294785 509.845281 
L 159.92967 509.565603 
L 160.564554 509.472787 
L 161.199439 508.853318 
L 161.834323 508.731171 
L 162.469208 508.345937 
L 163.104092 508.124352 
L 163.738977 507.597672 
L 164.373861 507.238946 
L 165.008746 506.547113 
L 165.64363 506.498705 
L 166.278515 506.137815 
L 166.913399 505.556869 
L 167.548284 505.321686 
L 168.183168 504.736379 
L 168.818053 504.723414 
L 169.452937 504.248738 
L 170.087822 503.92946 
L 170.722706 503.073438 
L 171.357591 503.053622 
L 171.992475 502.274022 
L 172.62736 502.069418 
L 173.262244 501.6688 
L 173.897129 501.041569 
L 174.532013 500.709222 
L 175.166898 500.118407 
L 175.801782 499.303974 
L 176.436667 499.312669 
L 177.706436 498.212477 
L 178.34132 497.705579 
L 178.976205 497.495182 
L 180.245974 495.955223 
L 180.880859 495.759203 
L 182.785512 494.58575 
L 184.690166 492.913547 
L 185.959935 491.924847 
L 186.594819 490.840412 
L 187.229704 490.662015 
L 187.864588 489.962424 
L 188.499473 489.711877 
L 189.134357 489.209376 
L 189.769242 488.349099 
L 190.404126 488.030409 
L 191.039011 487.514053 
L 192.943664 485.25054 
L 193.578549 484.811401 
L 194.213433 484.523892 
L 194.848318 483.844378 
L 195.483202 482.935815 
L 196.118087 482.833903 
L 196.752971 482.191491 
L 197.387856 481.719723 
L 198.02274 480.636962 
L 199.292509 478.897797 
L 199.927394 478.538579 
L 200.562278 477.989105 
L 201.197163 476.997311 
L 201.832048 476.737697 
L 202.466932 475.875105 
L 203.101817 475.495513 
L 203.736701 474.050417 
L 204.371586 474.321362 
L 205.00647 473.026442 
L 205.641355 472.744027 
L 206.276239 471.444658 
L 206.911124 471.550089 
L 207.546008 470.257106 
L 208.180893 469.709564 
L 209.450662 468.001957 
L 210.085546 467.933261 
L 210.720431 466.550801 
L 211.9902 464.983657 
L 212.625084 464.71316 
L 213.259969 463.14715 
L 214.529738 462.271472 
L 215.164622 461.068292 
L 215.799507 460.681935 
L 216.434391 459.646211 
L 217.069276 459.260785 
L 218.973929 455.948409 
L 219.608814 455.756775 
L 220.243698 454.37539 
L 220.878583 454.092749 
L 221.513467 452.881083 
L 222.148352 452.710992 
L 222.783237 451.720589 
L 223.418121 450.023335 
L 224.053006 449.350708 
L 224.68789 448.489413 
L 225.322775 447.870831 
L 225.957659 446.691026 
L 226.592544 446.177404 
L 227.862313 443.826263 
L 228.497197 443.458792 
L 229.132082 442.068532 
L 229.766966 441.24231 
L 230.401851 441.10037 
L 231.036735 439.287524 
L 231.67162 438.918005 
L 232.306504 437.574845 
L 233.576273 435.604018 
L 234.211158 434.186061 
L 234.846042 433.480165 
L 235.480927 432.991785 
L 236.115811 431.802849 
L 236.750696 430.248675 
L 237.38558 429.819633 
L 238.020465 428.804115 
L 238.655349 427.469865 
L 240.560003 424.46642 
L 241.194887 423.187448 
L 241.829772 422.922436 
L 242.464656 420.999918 
L 243.099541 420.619977 
L 243.734425 419.815123 
L 245.004195 417.284458 
L 245.639079 417.024343 
L 246.273964 415.005718 
L 246.908848 414.332358 
L 247.543733 412.1303 
L 248.178617 411.775159 
L 248.813502 411.104254 
L 249.448386 409.020766 
L 250.083271 408.32328 
L 250.718155 408.173325 
L 251.35304 406.00941 
L 251.987924 405.014097 
L 252.622809 404.838923 
L 253.257693 402.788297 
L 253.892578 401.697644 
L 254.527462 401.992005 
L 255.162347 398.685602 
L 256.432116 397.688346 
L 257.067 395.689787 
L 258.971654 392.477573 
L 259.606538 390.790579 
L 260.241423 390.580717 
L 260.876307 389.048458 
L 261.511192 386.942147 
L 262.146076 387.440891 
L 262.780961 385.781199 
L 263.415845 384.610596 
L 264.05073 382.884493 
L 265.320499 381.004388 
L 265.955384 379.916399 
L 266.590268 377.951365 
L 267.225153 376.791021 
L 267.860037 376.746597 
L 269.764691 372.073664 
L 270.399575 371.627615 
L 271.03446 370.361788 
L 272.939113 365.936698 
L 273.573998 365.14927 
L 274.208882 364.582487 
L 275.478651 361.023787 
L 276.74842 359.16697 
L 277.383305 357.17183 
L 278.018189 356.509696 
L 278.653074 355.580421 
L 279.287958 353.801879 
L 279.922843 353.71424 
L 280.557727 350.838682 
L 281.192612 349.340437 
L 281.827496 350.391179 
L 282.462381 348.371798 
L 283.097265 345.504755 
L 283.73215 346.228786 
L 284.367034 343.965378 
L 285.001919 342.663885 
L 285.636803 342.577549 
L 286.271688 340.311721 
L 286.906572 340.226594 
L 287.541457 337.507796 
L 288.811226 335.707664 
L 289.446111 334.020391 
L 290.080995 332.895969 
L 290.71588 331.465635 
L 291.350764 331.278724 
L 292.620533 328.051213 
L 293.255418 328.607456 
L 293.890302 325.472447 
L 295.160071 323.044857 
L 296.42984 320.536166 
L 297.064725 320.1636 
L 298.969378 315.069279 
L 299.604263 314.468692 
L 302.143801 310.232363 
L 302.778685 309.963582 
L 303.41357 308.992825 
L 304.048454 306.315346 
L 305.318223 304.672998 
L 305.953108 302.016271 
L 306.587992 302.477198 
L 307.222877 299.871072 
L 307.857761 299.092275 
L 308.492646 298.709705 
L 309.127531 295.97625 
L 309.762415 295.755256 
L 310.3973 294.813231 
L 311.032184 294.225138 
L 311.667069 293.268294 
L 312.301953 289.485749 
L 312.936838 290.428145 
L 313.571722 288.632387 
L 314.206607 287.888442 
L 314.841491 285.437191 
L 315.476376 285.867269 
L 316.746145 282.03731 
L 317.381029 282.731678 
L 318.650798 280.088584 
L 319.920567 277.751309 
L 320.555452 275.851976 
L 321.190336 274.752982 
L 321.825221 276.176732 
L 322.460105 273.03479 
L 323.09499 272.48292 
L 323.729874 271.337327 
L 324.364759 270.749722 
L 324.999643 267.492082 
L 325.634528 267.13636 
L 326.269412 267.963921 
L 326.904297 265.378012 
L 327.539181 264.614547 
L 328.174066 264.350605 
L 329.443835 262.311774 
L 330.078719 259.244164 
L 330.713604 258.534883 
L 331.348489 258.113763 
L 331.983373 254.882064 
L 332.618258 255.066183 
L 333.253142 253.907817 
L 333.888027 253.11113 
L 335.157796 251.856121 
L 335.79268 250.472666 
L 336.427565 250.106265 
L 337.062449 247.084161 
L 337.697334 249.144744 
L 338.332218 246.451747 
L 338.967103 246.664459 
L 339.601987 243.444765 
L 340.236872 243.164445 
L 340.871756 243.071245 
L 341.506641 242.739346 
L 342.77641 239.80751 
L 343.411294 240.455558 
L 344.046179 239.464235 
L 344.681063 237.941306 
L 345.315948 238.201176 
L 345.950832 234.730964 
L 346.585717 234.553871 
L 347.220601 232.347951 
L 347.855486 233.673173 
L 349.125255 228.552587 
L 349.760139 228.625429 
L 350.395024 229.621615 
L 351.029908 227.748757 
L 351.664793 227.549282 
L 352.299678 226.870804 
L 353.569447 220.895623 
L 354.204331 222.710365 
L 354.839216 221.150143 
L 355.4741 222.290222 
L 356.108985 218.614836 
L 356.743869 222.019394 
L 357.378754 218.434951 
L 358.013638 217.712897 
L 358.648523 216.791416 
L 359.283407 214.17389 
L 359.918292 217.845624 
L 360.553176 214.016642 
L 361.188061 214.686256 
L 361.822945 214.592172 
L 362.45783 213.453349 
L 363.092714 210.885076 
L 363.727599 210.961036 
L 364.362483 209.102323 
L 364.997368 209.691533 
L 366.267137 207.474702 
L 366.902021 207.006516 
L 367.536906 203.034571 
L 368.17179 204.670893 
L 368.806675 203.653281 
L 369.441559 202.144148 
L 370.076444 202.277201 
L 371.346213 199.455478 
L 371.981097 197.419835 
L 372.615982 198.738729 
L 373.250866 197.170689 
L 373.885751 196.591949 
L 374.520636 195.428069 
L 375.15552 197.83465 
L 375.790405 194.661812 
L 376.425289 194.846932 
L 377.060174 193.403848 
L 377.695058 191.387468 
L 378.329943 192.145094 
L 378.964827 191.417317 
L 379.599712 189.409033 
L 380.234596 188.644475 
L 380.869481 189.510073 
L 381.504365 189.442302 
L 382.13925 187.075783 
L 382.774134 188.312762 
L 383.409019 185.202344 
L 384.043903 183.915392 
L 384.678788 184.350774 
L 385.313672 182.201317 
L 385.948557 183.341048 
L 386.583441 180.465909 
L 387.218326 180.733666 
L 387.85321 182.752164 
L 388.488095 180.8063 
L 389.122979 180.727059 
L 390.392748 178.52072 
L 391.027633 180.346885 
L 391.662517 176.693019 
L 392.297402 175.0362 
L 392.932286 178.40835 
L 393.567171 175.35414 
L 394.202055 173.43303 
L 394.83694 176.485309 
L 395.471825 173.696809 
L 396.106709 175.062047 
L 397.376478 168.926942 
L 398.011363 170.154661 
L 398.646247 168.269077 
L 399.281132 170.99981 
L 399.916016 166.553816 
L 400.550901 168.339361 
L 401.185785 166.060923 
L 401.82067 166.178249 
L 402.455554 165.527689 
L 403.090439 165.843814 
L 403.725323 165.353573 
L 404.360208 162.772039 
L 404.995092 160.958646 
L 406.264861 161.804888 
L 406.899746 163.19744 
L 407.53463 158.028788 
L 408.169515 161.459659 
L 408.804399 159.716899 
L 409.439284 159.506443 
L 410.074168 158.436252 
L 410.709053 155.555436 
L 411.343937 156.264647 
L 411.978822 154.435597 
L 412.613706 154.873398 
L 413.248591 154.436109 
L 413.883475 152.766564 
L 414.51836 154.362917 
L 415.153244 152.473936 
L 415.788129 151.149365 
L 416.423013 152.10486 
L 417.057898 152.49413 
L 417.692783 150.64912 
L 418.327667 152.715753 
L 418.962552 150.245146 
L 419.597436 148.818767 
L 420.232321 148.585605 
L 420.867205 150.672758 
L 421.50209 146.268408 
L 422.136974 148.87572 
L 422.771859 145.12563 
L 423.406743 145.642439 
L 424.041628 145.434589 
L 425.311397 142.540001 
L 425.946281 144.894841 
L 426.581166 144.251609 
L 427.21605 144.473604 
L 427.850935 141.919569 
L 429.120704 142.317168 
L 429.755588 143.068861 
L 430.390473 140.137421 
L 431.025357 140.695642 
L 431.660242 140.0425 
L 432.295126 138.189998 
L 432.930011 139.632105 
L 433.564895 135.162008 
L 434.19978 135.261536 
L 434.834664 136.0934 
L 435.469549 135.871638 
L 436.104433 135.077184 
L 436.739318 135.694824 
L 437.374202 130.630259 
L 438.009087 135.065644 
L 439.278856 129.657316 
L 439.913741 131.976653 
L 440.548625 132.5513 
L 441.818394 127.885265 
L 442.453279 129.221283 
L 443.088163 128.303245 
L 444.357932 129.67081 
L 444.992817 128.63077 
L 445.627701 127.989027 
L 446.262586 128.766777 
L 446.89747 129.136551 
L 447.532355 124.310221 
L 448.167239 126.587728 
L 448.802124 124.40691 
L 450.071893 122.805206 
L 450.706777 120.627925 
L 451.341662 123.383249 
L 451.976546 123.702352 
L 452.611431 122.542358 
L 453.246315 118.409651 
L 453.8812 119.849524 
L 454.516084 120.90906 
L 455.150969 117.770049 
L 455.785853 118.21911 
L 456.420738 115.71435 
L 457.055622 117.348626 
L 457.690507 116.392061 
L 458.325391 116.722099 
L 458.960276 115.350067 
L 459.59516 114.294113 
L 460.230045 118.001954 
L 460.86493 115.566245 
L 461.499814 113.80592 
L 462.134699 116.676778 
L 462.769583 112.903051 
L 463.404468 115.022169 
L 464.039352 115.214106 
L 464.674237 111.42493 
L 465.309121 112.213522 
L 465.944006 111.972356 
L 466.57889 109.779767 
L 467.213775 110.49391 
L 467.848659 113.530136 
L 468.483544 107.090236 
L 469.118428 108.274706 
L 469.753313 111.508591 
L 470.388197 108.475343 
L 471.023082 107.140442 
L 471.657966 102.622746 
L 472.292851 107.780091 
L 472.927735 108.943017 
L 473.56262 103.136717 
L 474.197504 105.660228 
L 474.832389 107.338055 
L 475.467273 106.038192 
L 476.102158 104.160378 
L 476.737042 103.32307 
L 477.371927 104.377208 
L 478.006811 108.451241 
L 478.641696 101.084648 
L 479.27658 102.280238 
L 479.911465 105.438 
L 481.181234 100.883219 
L 481.816119 102.92091 
L 482.451003 100.515957 
L 483.085888 104.466313 
L 483.720772 101.948153 
L 484.355657 99.974859 
L 484.990541 100.480548 
L 485.625426 98.546898 
L 486.26031 97.112842 
L 486.895195 100.65806 
L 487.530079 98.992191 
L 488.164964 96.459746 
L 488.799848 99.589311 
L 489.434733 96.169259 
L 490.069617 97.120519 
L 490.704502 95.866162 
L 491.339386 96.083876 
L 491.974271 94.192801 
L 492.609155 94.252918 
L 493.24404 92.030689 
L 493.878924 92.643536 
L 494.513809 90.867763 
L 495.148693 90.542983 
L 495.783578 94.299541 
L 496.418462 90.434661 
L 497.053347 87.522298 
L 497.688231 88.860131 
L 498.323116 88.518135 
L 498.958 90.8143 
L 499.592885 91.13908 
L 500.227769 88.750878 
L 500.862654 89.251728 
L 501.497538 85.831954 
L 502.132423 87.278155 
L 502.767308 85.861082 
L 503.402192 90.417166 
L 504.037077 89.408953 
L 504.671961 87.731684 
L 505.306846 85.310352 
L 505.94173 86.745758 
L 506.576615 83.4981 
L 507.211499 86.223133 
L 508.481268 82.938343 
L 509.116153 83.244604 
L 509.751037 83.687989 
L 511.020806 79.244089 
L 511.655691 82.515803 
L 512.290575 83.279269 
L 512.92546 80.28599 
L 513.560344 79.882667 
L 514.195229 77.640616 
L 514.830113 78.638919 
L 515.464998 76.735141 
L 516.099882 81.366883 
L 516.734767 77.459428 
L 517.369651 75.497674 
L 518.004536 77.419087 
L 518.63942 78.736585 
L 519.274305 73.689563 
L 519.909189 77.557607 
L 520.544074 76.339729 
L 521.178958 75.632705 
L 521.813843 74.20372 
L 522.448727 76.080836 
L 523.083612 73.356268 
L 523.718496 74.976491 
L 524.353381 70.778037 
L 524.988266 74.466847 
L 525.62315 76.031467 
L 526.892919 73.791789 
L 528.162688 74.804981 
L 528.797573 74.670277 
L 529.432457 72.840901 
L 530.067342 75.928636 
L 530.702226 69.295171 
L 531.337111 69.754841 
L 531.971995 71.133108 
L 532.60688 72.094745 
L 533.241764 70.601223 
L 533.876649 72.940382 
L 534.511533 70.809398 
L 535.146418 64.44176 
L 535.781302 70.067942 
L 536.416187 65.837382 
L 537.051071 65.154367 
L 537.685956 68.839548 
L 538.32084 65.845711 
L 538.955725 69.874191 
L 539.590609 67.415589 
L 540.225494 67.014639 
L 540.860378 69.37269 
L 541.495263 65.127194 
L 542.130147 66.949776 
L 542.765032 65.036833 
L 543.399916 69.606364 
L 544.034801 61.671872 
L 544.669685 64.359076 
L 545.30457 66.370756 
L 545.939455 63.927742 
L 546.574339 64.349723 
L 547.209224 58.622478 
L 548.478993 63.100251 
L 549.113877 60.541703 
L 549.748762 61.36361 
L 550.383646 59.270362 
L 551.018531 62.130844 
L 551.653415 58.170205 
L 552.2883 57.489191 
L 552.923184 60.832888 
L 553.558069 56.510804 
L 554.192953 63.245844 
L 554.827838 62.770493 
L 555.462722 55.453036 
L 556.097607 61.144035 
L 556.732491 59.883023 
L 557.367376 58.138007 
L 558.00226 55.696853 
L 558.637145 59.564804 
L 559.272029 53.812851 
L 559.906914 57.938811 
L 561.176683 54.747966 
L 561.811567 56.795847 
L 562.446452 55.129373 
L 563.081336 58.257356 
L 564.351105 52.045128 
L 564.98599 51.108803 
L 565.620874 54.699854 
L 566.255759 52.140561 
L 566.890643 51.721232 
L 567.525528 48.382142 
L 568.160413 52.679519 
L 569.430182 50.112688 
L 570.065066 51.333683 
L 570.699951 54.843864 
L 571.334835 50.199559 
L 571.96972 49.152819 
L 572.604604 54.552865 
L 573.239489 47.518125 
L 573.239489 47.518125 
" clip-path="url(#p8735fa0b6e)" style="fill: none; stroke: #ff7f0e; stroke-width: 1.5; stroke-linecap: square"/>
   </g>
   <g id="patch_3">
    <path d="M 40.603125 576.718125 
L 40.603125 22.318125 
" style="fill: none; stroke: #000000; stroke-width: 0.8; stroke-linejoin: miter; stroke-linecap: square"/>
   </g>
   <g id="patch_4">
    <path d="M 598.603125 576.718125 
L 598.603125 22.318125 
" style="fill: none; stroke: #000000; stroke-width: 0.8; stroke-linejoin: miter; stroke-linecap: square"/>
   </g>
   <g id="patch_5">
    <path d="M 40.603125 576.718125 
L 598.603125 576.718125 
" style="fill: none; stroke: #000000; stroke-width: 0.8; stroke-linejoin: miter; stroke-linecap: square"/>
   </g>
   <g id="patch_6">
    <path d="M 40.603125 22.318125 
L 598.603125 22.318125 
" style="fill: none; stroke: #000000; stroke-width: 0.8; stroke-linejoin: miter; stroke-linecap: square"/>
   </g>
   <g id="text_17">
    <!-- Train and Val Loss -->
    <g transform="translate(266.057812 16.318125) scale(0.12 -0.12)">
     <defs>
      <path id="DejaVuSans-54" d="M -19 4666 
L 3928 4666 
L 3928 4134 
L 2272 4134 
L 2272 0 
L 1638 0 
L 1638 4134 
L -19 4134 
L -19 4666 
z
" transform="scale(0.015625)"/>
      <path id="DejaVuSans-72" d="M 2631 2963 
Q 2534 3019 2420 3045 
Q 2306 3072 2169 3072 
Q 1681 3072 1420 2755 
Q 1159 2438 1159 1844 
L 1159 0 
L 581 0 
L 581 3500 
L 1159 3500 
L 1159 2956 
Q 1341 3275 1631 3429 
Q 1922 3584 2338 3584 
Q 2397 3584 2469 3576 
Q 2541 3569 2628 3553 
L 2631 2963 
z
" transform="scale(0.015625)"/>
      <path id="DejaVuSans-61" d="M 2194 1759 
Q 1497 1759 1228 1600 
Q 959 1441 959 1056 
Q 959 750 1161 570 
Q 1363 391 1709 391 
Q 2188 391 2477 730 
Q 2766 1069 2766 1631 
L 2766 1759 
L 2194 1759 
z
M 3341 1997 
L 3341 0 
L 2766 0 
L 2766 531 
Q 2569 213 2275 61 
Q 1981 -91 1556 -91 
Q 1019 -91 701 211 
Q 384 513 384 1019 
Q 384 1609 779 1909 
Q 1175 2209 1959 2209 
L 2766 2209 
L 2766 2266 
Q 2766 2663 2505 2880 
Q 2244 3097 1772 3097 
Q 1472 3097 1187 3025 
Q 903 2953 641 2809 
L 641 3341 
Q 956 3463 1253 3523 
Q 1550 3584 1831 3584 
Q 2591 3584 2966 3190 
Q 3341 2797 3341 1997 
z
" transform="scale(0.015625)"/>
      <path id="DejaVuSans-69" d="M 603 3500 
L 1178 3500 
L 1178 0 
L 603 0 
L 603 3500 
z
M 603 4863 
L 1178 4863 
L 1178 4134 
L 603 4134 
L 603 4863 
z
" transform="scale(0.015625)"/>
      <path id="DejaVuSans-6e" d="M 3513 2113 
L 3513 0 
L 2938 0 
L 2938 2094 
Q 2938 2591 2744 2837 
Q 2550 3084 2163 3084 
Q 1697 3084 1428 2787 
Q 1159 2491 1159 1978 
L 1159 0 
L 581 0 
L 581 3500 
L 1159 3500 
L 1159 2956 
Q 1366 3272 1645 3428 
Q 1925 3584 2291 3584 
Q 2894 3584 3203 3211 
Q 3513 2838 3513 2113 
z
" transform="scale(0.015625)"/>
      <path id="DejaVuSans-20" transform="scale(0.015625)"/>
      <path id="DejaVuSans-64" d="M 2906 2969 
L 2906 4863 
L 3481 4863 
L 3481 0 
L 2906 0 
L 2906 525 
Q 2725 213 2448 61 
Q 2172 -91 1784 -91 
Q 1150 -91 751 415 
Q 353 922 353 1747 
Q 353 2572 751 3078 
Q 1150 3584 1784 3584 
Q 2172 3584 2448 3432 
Q 2725 3281 2906 2969 
z
M 947 1747 
Q 947 1113 1208 752 
Q 1469 391 1925 391 
Q 2381 391 2643 752 
Q 2906 1113 2906 1747 
Q 2906 2381 2643 2742 
Q 2381 3103 1925 3103 
Q 1469 3103 1208 2742 
Q 947 2381 947 1747 
z
" transform="scale(0.015625)"/>
      <path id="DejaVuSans-56" d="M 1831 0 
L 50 4666 
L 709 4666 
L 2188 738 
L 3669 4666 
L 4325 4666 
L 2547 0 
L 1831 0 
z
" transform="scale(0.015625)"/>
      <path id="DejaVuSans-6c" d="M 603 4863 
L 1178 4863 
L 1178 0 
L 603 0 
L 603 4863 
z
" transform="scale(0.015625)"/>
     </defs>
     <use xlink:href="#DejaVuSans-54"/>
     <use xlink:href="#DejaVuSans-72" transform="translate(46.333984 0)"/>
     <use xlink:href="#DejaVuSans-61" transform="translate(87.447266 0)"/>
     <use xlink:href="#DejaVuSans-69" transform="translate(148.726562 0)"/>
     <use xlink:href="#DejaVuSans-6e" transform="translate(176.509766 0)"/>
     <use xlink:href="#DejaVuSans-20" transform="translate(239.888672 0)"/>
     <use xlink:href="#DejaVuSans-61" transform="translate(271.675781 0)"/>
     <use xlink:href="#DejaVuSans-6e" transform="translate(332.955078 0)"/>
     <use xlink:href="#DejaVuSans-64" transform="translate(396.333984 0)"/>
     <use xlink:href="#DejaVuSans-20" transform="translate(459.810547 0)"/>
     <use xlink:href="#DejaVuSans-56" transform="translate(491.597656 0)"/>
     <use xlink:href="#DejaVuSans-61" transform="translate(552.255859 0)"/>
     <use xlink:href="#DejaVuSans-6c" transform="translate(613.535156 0)"/>
     <use xlink:href="#DejaVuSans-20" transform="translate(641.318359 0)"/>
     <use xlink:href="#DejaVuSans-4c" transform="translate(673.105469 0)"/>
     <use xlink:href="#DejaVuSans-6f" transform="translate(727.068359 0)"/>
     <use xlink:href="#DejaVuSans-73" transform="translate(788.25 0)"/>
     <use xlink:href="#DejaVuSans-73" transform="translate(840.349609 0)"/>
    </g>
   </g>
   <g id="legend_1">
    <g id="patch_7">
     <path d="M 47.603125 60.230625 
L 127.19375 60.230625 
Q 129.19375 60.230625 129.19375 58.230625 
L 129.19375 29.318125 
Q 129.19375 27.318125 127.19375 27.318125 
L 47.603125 27.318125 
Q 45.603125 27.318125 45.603125 29.318125 
L 45.603125 58.230625 
Q 45.603125 60.230625 47.603125 60.230625 
z
" style="fill: #ffffff; opacity: 0.8; stroke: #cccccc; stroke-linejoin: miter"/>
    </g>
    <g id="line2d_31">
     <path d="M 49.603125 35.416563 
L 59.603125 35.416563 
L 69.603125 35.416563 
" style="fill: none; stroke: #1f77b4; stroke-width: 1.5; stroke-linecap: square"/>
    </g>
    <g id="text_18">
     <!-- train_loss -->
     <g transform="translate(77.603125 38.916563) scale(0.1 -0.1)">
      <defs>
       <path id="DejaVuSans-74" d="M 1172 4494 
L 1172 3500 
L 2356 3500 
L 2356 3053 
L 1172 3053 
L 1172 1153 
Q 1172 725 1289 603 
Q 1406 481 1766 481 
L 2356 481 
L 2356 0 
L 1766 0 
Q 1100 0 847 248 
Q 594 497 594 1153 
L 594 3053 
L 172 3053 
L 172 3500 
L 594 3500 
L 594 4494 
L 1172 4494 
z
" transform="scale(0.015625)"/>
       <path id="DejaVuSans-5f" d="M 3263 -1063 
L 3263 -1509 
L -63 -1509 
L -63 -1063 
L 3263 -1063 
z
" transform="scale(0.015625)"/>
      </defs>
      <use xlink:href="#DejaVuSans-74"/>
      <use xlink:href="#DejaVuSans-72" transform="translate(39.208984 0)"/>
      <use xlink:href="#DejaVuSans-61" transform="translate(80.322266 0)"/>
      <use xlink:href="#DejaVuSans-69" transform="translate(141.601562 0)"/>
      <use xlink:href="#DejaVuSans-6e" transform="translate(169.384766 0)"/>
      <use xlink:href="#DejaVuSans-5f" transform="translate(232.763672 0)"/>
      <use xlink:href="#DejaVuSans-6c" transform="translate(282.763672 0)"/>
      <use xlink:href="#DejaVuSans-6f" transform="translate(310.546875 0)"/>
      <use xlink:href="#DejaVuSans-73" transform="translate(371.728516 0)"/>
      <use xlink:href="#DejaVuSans-73" transform="translate(423.828125 0)"/>
     </g>
    </g>
    <g id="line2d_32">
     <path d="M 49.603125 50.372813 
L 59.603125 50.372813 
L 69.603125 50.372813 
" style="fill: none; stroke: #ff7f0e; stroke-width: 1.5; stroke-linecap: square"/>
    </g>
    <g id="text_19">
     <!-- val_loss -->
     <g transform="translate(77.603125 53.872813) scale(0.1 -0.1)">
      <defs>
       <path id="DejaVuSans-76" d="M 191 3500 
L 800 3500 
L 1894 563 
L 2988 3500 
L 3597 3500 
L 2284 0 
L 1503 0 
L 191 3500 
z
" transform="scale(0.015625)"/>
      </defs>
      <use xlink:href="#DejaVuSans-76"/>
      <use xlink:href="#DejaVuSans-61" transform="translate(59.179688 0)"/>
      <use xlink:href="#DejaVuSans-6c" transform="translate(120.458984 0)"/>
      <use xlink:href="#DejaVuSans-5f" transform="translate(148.242188 0)"/>
      <use xlink:href="#DejaVuSans-6c" transform="translate(198.242188 0)"/>
      <use xlink:href="#DejaVuSans-6f" transform="translate(226.025391 0)"/>
      <use xlink:href="#DejaVuSans-73" transform="translate(287.207031 0)"/>
      <use xlink:href="#DejaVuSans-73" transform="translate(339.306641 0)"/>
     </g>
    </g>
   </g>
  </g>
 </g>
 <defs>
  <clipPath id="p8735fa0b6e">
   <rect x="40.603125" y="22.318125" width="558" height="554.4"/>
  </clipPath>
 </defs>
</svg>
