<?xml version="1.0" encoding="utf-8" standalone="no"?>
<!DOCTYPE svg PUBLIC "-//W3C//DTD SVG 1.1//EN"
  "http://www.w3.org/Graphics/SVG/1.1/DTD/svg11.dtd">
<svg xmlns:xlink="http://www.w3.org/1999/xlink" width="608.98125pt" height="614.274375pt" viewBox="0 0 608.98125 614.274375" xmlns="http://www.w3.org/2000/svg" version="1.1">
 <metadata>
  <rdf:RDF xmlns:dc="http://purl.org/dc/elements/1.1/" xmlns:cc="http://creativecommons.org/ns#" xmlns:rdf="http://www.w3.org/1999/02/22-rdf-syntax-ns#">
   <cc:Work>
    <dc:type rdf:resource="http://purl.org/dc/dcmitype/StillImage"/>
    <dc:date>2026-05-24T04:38:59.784311</dc:date>
    <dc:format>image/svg+xml</dc:format>
    <dc:creator>
     <cc:Agent>
      <dc:title>Matplotlib v3.10.9, https://matplotlib.org/</dc:title>
     </cc:Agent>
    </dc:creator>
   </cc:Work>
  </rdf:RDF>
 </metadata>
 <defs>
  <style type="text/css">*{stroke-linejoin: round; stroke-linecap: butt}</style>
 </defs>
 <g id="figure_1">
  <g id="patch_1">
   <path d="M 0 614.274375 
L 608.98125 614.274375 
L 608.98125 0 
L 0 0 
z
" style="fill: #ffffff"/>
  </g>
  <g id="axes_1">
   <g id="patch_2">
    <path d="M 43.78125 576.718125 
L 601.78125 576.718125 
L 601.78125 22.318125 
L 43.78125 22.318125 
z
" style="fill: #ffffff"/>
   </g>
   <g id="matplotlib.axis_1">
    <g id="xtick_1">
     <g id="line2d_1">
      <path d="M 69.144886 576.718125 
L 69.144886 22.318125 
" clip-path="url(#p07aead9f52)" style="fill: none; stroke: #b0b0b0; stroke-width: 0.8; stroke-linecap: square"/>
     </g>
     <g id="line2d_2">
      <defs>
       <path id="m927360fc9b" d="M 0 0 
L 0 3.5 
" style="stroke: #000000; stroke-width: 0.8"/>
      </defs>
      <g>
       <use xlink:href="#m927360fc9b" x="69.144886" y="576.718125" style="stroke: #000000; stroke-width: 0.8"/>
      </g>
     </g>
     <g id="text_1">
      <!-- 0 -->
      <g transform="translate(65.963636 591.316563) scale(0.1 -0.1)">
       <defs>
        <path id="DejaVuSans-30" d="M 2034 4250 
Q 1547 4250 1301 3770 
Q 1056 3291 1056 2328 
Q 1056 1369 1301 889 
Q 1547 409 2034 409 
Q 2525 409 2770 889 
Q 3016 1369 3016 2328 
Q 3016 3291 2770 3770 
Q 2525 4250 2034 4250 
z
M 2034 4750 
Q 2819 4750 3233 4129 
Q 3647 3509 3647 2328 
Q 3647 1150 3233 529 
Q 2819 -91 2034 -91 
Q 1250 -91 836 529 
Q 422 1150 422 2328 
Q 422 3509 836 4129 
Q 1250 4750 2034 4750 
z
" transform="scale(0.015625)"/>
       </defs>
       <use xlink:href="#DejaVuSans-30"/>
      </g>
     </g>
    </g>
    <g id="xtick_2">
     <g id="line2d_3">
      <path d="M 132.633338 576.718125 
L 132.633338 22.318125 
" clip-path="url(#p07aead9f52)" style="fill: none; stroke: #b0b0b0; stroke-width: 0.8; stroke-linecap: square"/>
     </g>
     <g id="line2d_4">
      <g>
       <use xlink:href="#m927360fc9b" x="132.633338" y="576.718125" style="stroke: #000000; stroke-width: 0.8"/>
      </g>
     </g>
     <g id="text_2">
      <!-- 100 -->
      <g transform="translate(123.089588 591.316563) scale(0.1 -0.1)">
       <defs>
        <path id="DejaVuSans-31" d="M 794 531 
L 1825 531 
L 1825 4091 
L 703 3866 
L 703 4441 
L 1819 4666 
L 2450 4666 
L 2450 531 
L 3481 531 
L 3481 0 
L 794 0 
L 794 531 
z
" transform="scale(0.015625)"/>
       </defs>
       <use xlink:href="#DejaVuSans-31"/>
       <use xlink:href="#DejaVuSans-30" transform="translate(63.623047 0)"/>
       <use xlink:href="#DejaVuSans-30" transform="translate(127.246094 0)"/>
      </g>
     </g>
    </g>
    <g id="xtick_3">
     <g id="line2d_5">
      <path d="M 196.121789 576.718125 
L 196.121789 22.318125 
" clip-path="url(#p07aead9f52)" style="fill: none; stroke: #b0b0b0; stroke-width: 0.8; stroke-linecap: square"/>
     </g>
     <g id="line2d_6">
      <g>
       <use xlink:href="#m927360fc9b" x="196.121789" y="576.718125" style="stroke: #000000; stroke-width: 0.8"/>
      </g>
     </g>
     <g id="text_3">
      <!-- 200 -->
      <g transform="translate(186.578039 591.316563) scale(0.1 -0.1)">
       <defs>
        <path id="DejaVuSans-32" d="M 1228 531 
L 3431 531 
L 3431 0 
L 469 0 
L 469 531 
Q 828 903 1448 1529 
Q 2069 2156 2228 2338 
Q 2531 2678 2651 2914 
Q 2772 3150 2772 3378 
Q 2772 3750 2511 3984 
Q 2250 4219 1831 4219 
Q 1534 4219 1204 4116 
Q 875 4013 500 3803 
L 500 4441 
Q 881 4594 1212 4672 
Q 1544 4750 1819 4750 
Q 2544 4750 2975 4387 
Q 3406 4025 3406 3419 
Q 3406 3131 3298 2873 
Q 3191 2616 2906 2266 
Q 2828 2175 2409 1742 
Q 1991 1309 1228 531 
z
" transform="scale(0.015625)"/>
       </defs>
       <use xlink:href="#DejaVuSans-32"/>
       <use xlink:href="#DejaVuSans-30" transform="translate(63.623047 0)"/>
       <use xlink:href="#DejaVuSans-30" transform="translate(127.246094 0)"/>
      </g>
     </g>
    </g>
    <g id="xtick_4">
     <g id="line2d_7">
      <path d="M 259.610241 576.718125 
L 259.610241 22.318125 
" clip-path="url(#p07aead9f52)" style="fill: none; stroke: #b0b0b0; stroke-width: 0.8; stroke-linecap: square"/>
     </g>
     <g id="line2d_8">
      <g>
       <use xlink:href="#m927360fc9b" x="259.610241" y="576.718125" style="stroke: #000000; stroke-width: 0.8"/>
      </g>
     </g>
     <g id="text_4">
      <!-- 300 -->
      <g transform="translate(250.066491 591.316563) scale(0.1 -0.1)">
       <defs>
        <path id="DejaVuSans-33" d="M 2597 2516 
Q 3050 2419 3304 2112 
Q 3559 1806 3559 1356 
Q 3559 666 3084 287 
Q 2609 -91 1734 -91 
Q 1441 -91 1130 -33 
Q 819 25 488 141 
L 488 750 
Q 750 597 1062 519 
Q 1375 441 1716 441 
Q 2309 441 2620 675 
Q 2931 909 2931 1356 
Q 2931 1769 2642 2001 
Q 2353 2234 1838 2234 
L 1294 2234 
L 1294 2753 
L 1863 2753 
Q 2328 2753 2575 2939 
Q 2822 3125 2822 3475 
Q 2822 3834 2567 4026 
Q 2313 4219 1838 4219 
Q 1578 4219 1281 4162 
Q 984 4106 628 3988 
L 628 4550 
Q 988 4650 1302 4700 
Q 1616 4750 1894 4750 
Q 2613 4750 3031 4423 
Q 3450 4097 3450 3541 
Q 3450 3153 3228 2886 
Q 3006 2619 2597 2516 
z
" transform="scale(0.015625)"/>
       </defs>
       <use xlink:href="#DejaVuSans-33"/>
       <use xlink:href="#DejaVuSans-30" transform="translate(63.623047 0)"/>
       <use xlink:href="#DejaVuSans-30" transform="translate(127.246094 0)"/>
      </g>
     </g>
    </g>
    <g id="xtick_5">
     <g id="line2d_9">
      <path d="M 323.098692 576.718125 
L 323.098692 22.318125 
" clip-path="url(#p07aead9f52)" style="fill: none; stroke: #b0b0b0; stroke-width: 0.8; stroke-linecap: square"/>
     </g>
     <g id="line2d_10">
      <g>
       <use xlink:href="#m927360fc9b" x="323.098692" y="576.718125" style="stroke: #000000; stroke-width: 0.8"/>
      </g>
     </g>
     <g id="text_5">
      <!-- 400 -->
      <g transform="translate(313.554942 591.316563) scale(0.1 -0.1)">
       <defs>
        <path id="DejaVuSans-34" d="M 2419 4116 
L 825 1625 
L 2419 1625 
L 2419 4116 
z
M 2253 4666 
L 3047 4666 
L 3047 1625 
L 3713 1625 
L 3713 1100 
L 3047 1100 
L 3047 0 
L 2419 0 
L 2419 1100 
L 313 1100 
L 313 1709 
L 2253 4666 
z
" transform="scale(0.015625)"/>
       </defs>
       <use xlink:href="#DejaVuSans-34"/>
       <use xlink:href="#DejaVuSans-30" transform="translate(63.623047 0)"/>
       <use xlink:href="#DejaVuSans-30" transform="translate(127.246094 0)"/>
      </g>
     </g>
    </g>
    <g id="xtick_6">
     <g id="line2d_11">
      <path d="M 386.587144 576.718125 
L 386.587144 22.318125 
" clip-path="url(#p07aead9f52)" style="fill: none; stroke: #b0b0b0; stroke-width: 0.8; stroke-linecap: square"/>
     </g>
     <g id="line2d_12">
      <g>
       <use xlink:href="#m927360fc9b" x="386.587144" y="576.718125" style="stroke: #000000; stroke-width: 0.8"/>
      </g>
     </g>
     <g id="text_6">
      <!-- 500 -->
      <g transform="translate(377.043394 591.316563) scale(0.1 -0.1)">
       <defs>
        <path id="DejaVuSans-35" d="M 691 4666 
L 3169 4666 
L 3169 4134 
L 1269 4134 
L 1269 2991 
Q 1406 3038 1543 3061 
Q 1681 3084 1819 3084 
Q 2600 3084 3056 2656 
Q 3513 2228 3513 1497 
Q 3513 744 3044 326 
Q 2575 -91 1722 -91 
Q 1428 -91 1123 -41 
Q 819 9 494 109 
L 494 744 
Q 775 591 1075 516 
Q 1375 441 1709 441 
Q 2250 441 2565 725 
Q 2881 1009 2881 1497 
Q 2881 1984 2565 2268 
Q 2250 2553 1709 2553 
Q 1456 2553 1204 2497 
Q 953 2441 691 2322 
L 691 4666 
z
" transform="scale(0.015625)"/>
       </defs>
       <use xlink:href="#DejaVuSans-35"/>
       <use xlink:href="#DejaVuSans-30" transform="translate(63.623047 0)"/>
       <use xlink:href="#DejaVuSans-30" transform="translate(127.246094 0)"/>
      </g>
     </g>
    </g>
    <g id="xtick_7">
     <g id="line2d_13">
      <path d="M 450.075595 576.718125 
L 450.075595 22.318125 
" clip-path="url(#p07aead9f52)" style="fill: none; stroke: #b0b0b0; stroke-width: 0.8; stroke-linecap: square"/>
     </g>
     <g id="line2d_14">
      <g>
       <use xlink:href="#m927360fc9b" x="450.075595" y="576.718125" style="stroke: #000000; stroke-width: 0.8"/>
      </g>
     </g>
     <g id="text_7">
      <!-- 600 -->
      <g transform="translate(440.531845 591.316563) scale(0.1 -0.1)">
       <defs>
        <path id="DejaVuSans-36" d="M 2113 2584 
Q 1688 2584 1439 2293 
Q 1191 2003 1191 1497 
Q 1191 994 1439 701 
Q 1688 409 2113 409 
Q 2538 409 2786 701 
Q 3034 994 3034 1497 
Q 3034 2003 2786 2293 
Q 2538 2584 2113 2584 
z
M 3366 4563 
L 3366 3988 
Q 3128 4100 2886 4159 
Q 2644 4219 2406 4219 
Q 1781 4219 1451 3797 
Q 1122 3375 1075 2522 
Q 1259 2794 1537 2939 
Q 1816 3084 2150 3084 
Q 2853 3084 3261 2657 
Q 3669 2231 3669 1497 
Q 3669 778 3244 343 
Q 2819 -91 2113 -91 
Q 1303 -91 875 529 
Q 447 1150 447 2328 
Q 447 3434 972 4092 
Q 1497 4750 2381 4750 
Q 2619 4750 2861 4703 
Q 3103 4656 3366 4563 
z
" transform="scale(0.015625)"/>
       </defs>
       <use xlink:href="#DejaVuSans-36"/>
       <use xlink:href="#DejaVuSans-30" transform="translate(63.623047 0)"/>
       <use xlink:href="#DejaVuSans-30" transform="translate(127.246094 0)"/>
      </g>
     </g>
    </g>
    <g id="xtick_8">
     <g id="line2d_15">
      <path d="M 513.564047 576.718125 
L 513.564047 22.318125 
" clip-path="url(#p07aead9f52)" style="fill: none; stroke: #b0b0b0; stroke-width: 0.8; stroke-linecap: square"/>
     </g>
     <g id="line2d_16">
      <g>
       <use xlink:href="#m927360fc9b" x="513.564047" y="576.718125" style="stroke: #000000; stroke-width: 0.8"/>
      </g>
     </g>
     <g id="text_8">
      <!-- 700 -->
      <g transform="translate(504.020297 591.316563) scale(0.1 -0.1)">
       <defs>
        <path id="DejaVuSans-37" d="M 525 4666 
L 3525 4666 
L 3525 4397 
L 1831 0 
L 1172 0 
L 2766 4134 
L 525 4134 
L 525 4666 
z
" transform="scale(0.015625)"/>
       </defs>
       <use xlink:href="#DejaVuSans-37"/>
       <use xlink:href="#DejaVuSans-30" transform="translate(63.623047 0)"/>
       <use xlink:href="#DejaVuSans-30" transform="translate(127.246094 0)"/>
      </g>
     </g>
    </g>
    <g id="xtick_9">
     <g id="line2d_17">
      <path d="M 577.052498 576.718125 
L 577.052498 22.318125 
" clip-path="url(#p07aead9f52)" style="fill: none; stroke: #b0b0b0; stroke-width: 0.8; stroke-linecap: square"/>
     </g>
     <g id="line2d_18">
      <g>
       <use xlink:href="#m927360fc9b" x="577.052498" y="576.718125" style="stroke: #000000; stroke-width: 0.8"/>
      </g>
     </g>
     <g id="text_9">
      <!-- 800 -->
      <g transform="translate(567.508748 591.316563) scale(0.1 -0.1)">
       <defs>
        <path id="DejaVuSans-38" d="M 2034 2216 
Q 1584 2216 1326 1975 
Q 1069 1734 1069 1313 
Q 1069 891 1326 650 
Q 1584 409 2034 409 
Q 2484 409 2743 651 
Q 3003 894 3003 1313 
Q 3003 1734 2745 1975 
Q 2488 2216 2034 2216 
z
M 1403 2484 
Q 997 2584 770 2862 
Q 544 3141 544 3541 
Q 544 4100 942 4425 
Q 1341 4750 2034 4750 
Q 2731 4750 3128 4425 
Q 3525 4100 3525 3541 
Q 3525 3141 3298 2862 
Q 3072 2584 2669 2484 
Q 3125 2378 3379 2068 
Q 3634 1759 3634 1313 
Q 3634 634 3220 271 
Q 2806 -91 2034 -91 
Q 1263 -91 848 271 
Q 434 634 434 1313 
Q 434 1759 690 2068 
Q 947 2378 1403 2484 
z
M 1172 3481 
Q 1172 3119 1398 2916 
Q 1625 2713 2034 2713 
Q 2441 2713 2670 2916 
Q 2900 3119 2900 3481 
Q 2900 3844 2670 4047 
Q 2441 4250 2034 4250 
Q 1625 4250 1398 4047 
Q 1172 3844 1172 3481 
z
" transform="scale(0.015625)"/>
       </defs>
       <use xlink:href="#DejaVuSans-38"/>
       <use xlink:href="#DejaVuSans-30" transform="translate(63.623047 0)"/>
       <use xlink:href="#DejaVuSans-30" transform="translate(127.246094 0)"/>
      </g>
     </g>
    </g>
    <g id="text_10">
     <!-- Epochs -->
     <g transform="translate(304.865625 604.994688) scale(0.1 -0.1)">
      <defs>
       <path id="DejaVuSans-45" d="M 628 4666 
L 3578 4666 
L 3578 4134 
L 1259 4134 
L 1259 2753 
L 3481 2753 
L 3481 2222 
L 1259 2222 
L 1259 531 
L 3634 531 
L 3634 0 
L 628 0 
L 628 4666 
z
" transform="scale(0.015625)"/>
       <path id="DejaVuSans-70" d="M 1159 525 
L 1159 -1331 
L 581 -1331 
L 581 3500 
L 1159 3500 
L 1159 2969 
Q 1341 3281 1617 3432 
Q 1894 3584 2278 3584 
Q 2916 3584 3314 3078 
Q 3713 2572 3713 1747 
Q 3713 922 3314 415 
Q 2916 -91 2278 -91 
Q 1894 -91 1617 61 
Q 1341 213 1159 525 
z
M 3116 1747 
Q 3116 2381 2855 2742 
Q 2594 3103 2138 3103 
Q 1681 3103 1420 2742 
Q 1159 2381 1159 1747 
Q 1159 1113 1420 752 
Q 1681 391 2138 391 
Q 2594 391 2855 752 
Q 3116 1113 3116 1747 
z
" transform="scale(0.015625)"/>
       <path id="DejaVuSans-6f" d="M 1959 3097 
Q 1497 3097 1228 2736 
Q 959 2375 959 1747 
Q 959 1119 1226 758 
Q 1494 397 1959 397 
Q 2419 397 2687 759 
Q 2956 1122 2956 1747 
Q 2956 2369 2687 2733 
Q 2419 3097 1959 3097 
z
M 1959 3584 
Q 2709 3584 3137 3096 
Q 3566 2609 3566 1747 
Q 3566 888 3137 398 
Q 2709 -91 1959 -91 
Q 1206 -91 779 398 
Q 353 888 353 1747 
Q 353 2609 779 3096 
Q 1206 3584 1959 3584 
z
" transform="scale(0.015625)"/>
       <path id="DejaVuSans-63" d="M 3122 3366 
L 3122 2828 
Q 2878 2963 2633 3030 
Q 2388 3097 2138 3097 
Q 1578 3097 1268 2742 
Q 959 2388 959 1747 
Q 959 1106 1268 751 
Q 1578 397 2138 397 
Q 2388 397 2633 464 
Q 2878 531 3122 666 
L 3122 134 
Q 2881 22 2623 -34 
Q 2366 -91 2075 -91 
Q 1284 -91 818 406 
Q 353 903 353 1747 
Q 353 2603 823 3093 
Q 1294 3584 2113 3584 
Q 2378 3584 2631 3529 
Q 2884 3475 3122 3366 
z
" transform="scale(0.015625)"/>
       <path id="DejaVuSans-68" d="M 3513 2113 
L 3513 0 
L 2938 0 
L 2938 2094 
Q 2938 2591 2744 2837 
Q 2550 3084 2163 3084 
Q 1697 3084 1428 2787 
Q 1159 2491 1159 1978 
L 1159 0 
L 581 0 
L 581 4863 
L 1159 4863 
L 1159 2956 
Q 1366 3272 1645 3428 
Q 1925 3584 2291 3584 
Q 2894 3584 3203 3211 
Q 3513 2838 3513 2113 
z
" transform="scale(0.015625)"/>
       <path id="DejaVuSans-73" d="M 2834 3397 
L 2834 2853 
Q 2591 2978 2328 3040 
Q 2066 3103 1784 3103 
Q 1356 3103 1142 2972 
Q 928 2841 928 2578 
Q 928 2378 1081 2264 
Q 1234 2150 1697 2047 
L 1894 2003 
Q 2506 1872 2764 1633 
Q 3022 1394 3022 966 
Q 3022 478 2636 193 
Q 2250 -91 1575 -91 
Q 1294 -91 989 -36 
Q 684 19 347 128 
L 347 722 
Q 666 556 975 473 
Q 1284 391 1588 391 
Q 1994 391 2212 530 
Q 2431 669 2431 922 
Q 2431 1156 2273 1281 
Q 2116 1406 1581 1522 
L 1381 1569 
Q 847 1681 609 1914 
Q 372 2147 372 2553 
Q 372 3047 722 3315 
Q 1072 3584 1716 3584 
Q 2034 3584 2315 3537 
Q 2597 3491 2834 3397 
z
" transform="scale(0.015625)"/>
      </defs>
      <use xlink:href="#DejaVuSans-45"/>
      <use xlink:href="#DejaVuSans-70" transform="translate(63.183594 0)"/>
      <use xlink:href="#DejaVuSans-6f" transform="translate(126.660156 0)"/>
      <use xlink:href="#DejaVuSans-63" transform="translate(187.841797 0)"/>
      <use xlink:href="#DejaVuSans-68" transform="translate(242.822266 0)"/>
      <use xlink:href="#DejaVuSans-73" transform="translate(306.201172 0)"/>
     </g>
    </g>
   </g>
   <g id="matplotlib.axis_2">
    <g id="ytick_1">
     <g id="line2d_19">
      <path d="M 43.78125 553.502753 
L 601.78125 553.502753 
" clip-path="url(#p07aead9f52)" style="fill: none; stroke: #b0b0b0; stroke-width: 0.8; stroke-linecap: square"/>
     </g>
     <g id="line2d_20">
      <defs>
       <path id="m62f4e0a8dd" d="M 0 0 
L -3.5 0 
" style="stroke: #000000; stroke-width: 0.8"/>
      </defs>
      <g>
       <use xlink:href="#m62f4e0a8dd" x="43.78125" y="553.502753" style="stroke: #000000; stroke-width: 0.8"/>
      </g>
     </g>
     <g id="text_11">
      <!-- 0.0 -->
      <g transform="translate(20.878125 557.301972) scale(0.1 -0.1)">
       <defs>
        <path id="DejaVuSans-2e" d="M 684 794 
L 1344 794 
L 1344 0 
L 684 0 
L 684 794 
z
" transform="scale(0.015625)"/>
       </defs>
       <use xlink:href="#DejaVuSans-30"/>
       <use xlink:href="#DejaVuSans-2e" transform="translate(63.623047 0)"/>
       <use xlink:href="#DejaVuSans-30" transform="translate(95.410156 0)"/>
      </g>
     </g>
    </g>
    <g id="ytick_2">
     <g id="line2d_21">
      <path d="M 43.78125 451.889781 
L 601.78125 451.889781 
" clip-path="url(#p07aead9f52)" style="fill: none; stroke: #b0b0b0; stroke-width: 0.8; stroke-linecap: square"/>
     </g>
     <g id="line2d_22">
      <g>
       <use xlink:href="#m62f4e0a8dd" x="43.78125" y="451.889781" style="stroke: #000000; stroke-width: 0.8"/>
      </g>
     </g>
     <g id="text_12">
      <!-- 0.2 -->
      <g transform="translate(20.878125 455.689) scale(0.1 -0.1)">
       <use xlink:href="#DejaVuSans-30"/>
       <use xlink:href="#DejaVuSans-2e" transform="translate(63.623047 0)"/>
       <use xlink:href="#DejaVuSans-32" transform="translate(95.410156 0)"/>
      </g>
     </g>
    </g>
    <g id="ytick_3">
     <g id="line2d_23">
      <path d="M 43.78125 350.276809 
L 601.78125 350.276809 
" clip-path="url(#p07aead9f52)" style="fill: none; stroke: #b0b0b0; stroke-width: 0.8; stroke-linecap: square"/>
     </g>
     <g id="line2d_24">
      <g>
       <use xlink:href="#m62f4e0a8dd" x="43.78125" y="350.276809" style="stroke: #000000; stroke-width: 0.8"/>
      </g>
     </g>
     <g id="text_13">
      <!-- 0.4 -->
      <g transform="translate(20.878125 354.076028) scale(0.1 -0.1)">
       <use xlink:href="#DejaVuSans-30"/>
       <use xlink:href="#DejaVuSans-2e" transform="translate(63.623047 0)"/>
       <use xlink:href="#DejaVuSans-34" transform="translate(95.410156 0)"/>
      </g>
     </g>
    </g>
    <g id="ytick_4">
     <g id="line2d_25">
      <path d="M 43.78125 248.663837 
L 601.78125 248.663837 
" clip-path="url(#p07aead9f52)" style="fill: none; stroke: #b0b0b0; stroke-width: 0.8; stroke-linecap: square"/>
     </g>
     <g id="line2d_26">
      <g>
       <use xlink:href="#m62f4e0a8dd" x="43.78125" y="248.663837" style="stroke: #000000; stroke-width: 0.8"/>
      </g>
     </g>
     <g id="text_14">
      <!-- 0.6 -->
      <g transform="translate(20.878125 252.463056) scale(0.1 -0.1)">
       <use xlink:href="#DejaVuSans-30"/>
       <use xlink:href="#DejaVuSans-2e" transform="translate(63.623047 0)"/>
       <use xlink:href="#DejaVuSans-36" transform="translate(95.410156 0)"/>
      </g>
     </g>
    </g>
    <g id="ytick_5">
     <g id="line2d_27">
      <path d="M 43.78125 147.050865 
L 601.78125 147.050865 
" clip-path="url(#p07aead9f52)" style="fill: none; stroke: #b0b0b0; stroke-width: 0.8; stroke-linecap: square"/>
     </g>
     <g id="line2d_28">
      <g>
       <use xlink:href="#m62f4e0a8dd" x="43.78125" y="147.050865" style="stroke: #000000; stroke-width: 0.8"/>
      </g>
     </g>
     <g id="text_15">
      <!-- 0.8 -->
      <g transform="translate(20.878125 150.850084) scale(0.1 -0.1)">
       <use xlink:href="#DejaVuSans-30"/>
       <use xlink:href="#DejaVuSans-2e" transform="translate(63.623047 0)"/>
       <use xlink:href="#DejaVuSans-38" transform="translate(95.410156 0)"/>
      </g>
     </g>
    </g>
    <g id="ytick_6">
     <g id="line2d_29">
      <path d="M 43.78125 45.437893 
L 601.78125 45.437893 
" clip-path="url(#p07aead9f52)" style="fill: none; stroke: #b0b0b0; stroke-width: 0.8; stroke-linecap: square"/>
     </g>
     <g id="line2d_30">
      <g>
       <use xlink:href="#m62f4e0a8dd" x="43.78125" y="45.437893" style="stroke: #000000; stroke-width: 0.8"/>
      </g>
     </g>
     <g id="text_16">
      <!-- 1.0 -->
      <g transform="translate(20.878125 49.237112) scale(0.1 -0.1)">
       <use xlink:href="#DejaVuSans-31"/>
       <use xlink:href="#DejaVuSans-2e" transform="translate(63.623047 0)"/>
       <use xlink:href="#DejaVuSans-30" transform="translate(95.410156 0)"/>
      </g>
     </g>
    </g>
    <g id="text_17">
     <!-- Accuracy -->
     <g transform="translate(14.798438 322.34625) rotate(-90) scale(0.1 -0.1)">
      <defs>
       <path id="DejaVuSans-41" d="M 2188 4044 
L 1331 1722 
L 3047 1722 
L 2188 4044 
z
M 1831 4666 
L 2547 4666 
L 4325 0 
L 3669 0 
L 3244 1197 
L 1141 1197 
L 716 0 
L 50 0 
L 1831 4666 
z
" transform="scale(0.015625)"/>
       <path id="DejaVuSans-75" d="M 544 1381 
L 544 3500 
L 1119 3500 
L 1119 1403 
Q 1119 906 1312 657 
Q 1506 409 1894 409 
Q 2359 409 2629 706 
Q 2900 1003 2900 1516 
L 2900 3500 
L 3475 3500 
L 3475 0 
L 2900 0 
L 2900 538 
Q 2691 219 2414 64 
Q 2138 -91 1772 -91 
Q 1169 -91 856 284 
Q 544 659 544 1381 
z
M 1991 3584 
L 1991 3584 
z
" transform="scale(0.015625)"/>
       <path id="DejaVuSans-72" d="M 2631 2963 
Q 2534 3019 2420 3045 
Q 2306 3072 2169 3072 
Q 1681 3072 1420 2755 
Q 1159 2438 1159 1844 
L 1159 0 
L 581 0 
L 581 3500 
L 1159 3500 
L 1159 2956 
Q 1341 3275 1631 3429 
Q 1922 3584 2338 3584 
Q 2397 3584 2469 3576 
Q 2541 3569 2628 3553 
L 2631 2963 
z
" transform="scale(0.015625)"/>
       <path id="DejaVuSans-61" d="M 2194 1759 
Q 1497 1759 1228 1600 
Q 959 1441 959 1056 
Q 959 750 1161 570 
Q 1363 391 1709 391 
Q 2188 391 2477 730 
Q 2766 1069 2766 1631 
L 2766 1759 
L 2194 1759 
z
M 3341 1997 
L 3341 0 
L 2766 0 
L 2766 531 
Q 2569 213 2275 61 
Q 1981 -91 1556 -91 
Q 1019 -91 701 211 
Q 384 513 384 1019 
Q 384 1609 779 1909 
Q 1175 2209 1959 2209 
L 2766 2209 
L 2766 2266 
Q 2766 2663 2505 2880 
Q 2244 3097 1772 3097 
Q 1472 3097 1187 3025 
Q 903 2953 641 2809 
L 641 3341 
Q 956 3463 1253 3523 
Q 1550 3584 1831 3584 
Q 2591 3584 2966 3190 
Q 3341 2797 3341 1997 
z
" transform="scale(0.015625)"/>
       <path id="DejaVuSans-79" d="M 2059 -325 
Q 1816 -950 1584 -1140 
Q 1353 -1331 966 -1331 
L 506 -1331 
L 506 -850 
L 844 -850 
Q 1081 -850 1212 -737 
Q 1344 -625 1503 -206 
L 1606 56 
L 191 3500 
L 800 3500 
L 1894 763 
L 2988 3500 
L 3597 3500 
L 2059 -325 
z
" transform="scale(0.015625)"/>
      </defs>
      <use xlink:href="#DejaVuSans-41"/>
      <use xlink:href="#DejaVuSans-63" transform="translate(66.658203 0)"/>
      <use xlink:href="#DejaVuSans-63" transform="translate(121.638672 0)"/>
      <use xlink:href="#DejaVuSans-75" transform="translate(176.619141 0)"/>
      <use xlink:href="#DejaVuSans-72" transform="translate(239.998047 0)"/>
      <use xlink:href="#DejaVuSans-61" transform="translate(281.111328 0)"/>
      <use xlink:href="#DejaVuSans-63" transform="translate(342.390625 0)"/>
      <use xlink:href="#DejaVuSans-79" transform="translate(397.371094 0)"/>
     </g>
    </g>
   </g>
   <g id="line2d_31">
    <path d="M 69.144886 420.782095 
L 69.779771 416.082502 
L 71.04954 413.962736 
L 71.684424 413.666371 
L 72.319309 412.797006 
L 72.954193 411.349023 
L 74.223962 408.952651 
L 75.493732 406.090557 
L 78.03327 400.603455 
L 79.303039 397.365957 
L 81.207692 393.013529 
L 81.842577 391.771592 
L 85.651884 381.821998 
L 86.921653 378.381271 
L 87.556537 377.571185 
L 88.826306 373.001416 
L 90.096075 370.21836 
L 90.73096 367.898196 
L 91.365844 366.769154 
L 92.000729 364.54214 
L 93.270498 361.180452 
L 93.905382 358.942143 
L 94.540267 357.64939 
L 95.810036 353.895355 
L 96.44492 352.427613 
L 97.71469 348.563499 
L 98.984459 345.176403 
L 99.619343 343.098987 
L 100.889112 339.886882 
L 101.523997 338.111479 
L 102.158881 335.912689 
L 102.793766 334.794943 
L 104.063535 330.967516 
L 104.698419 329.062275 
L 105.333304 327.698979 
L 105.968188 325.929208 
L 106.603073 324.540504 
L 107.237957 322.796142 
L 107.872842 321.40179 
L 108.507726 319.160664 
L 109.777495 316.730421 
L 110.41238 314.407426 
L 115.491456 302.182819 
L 116.12634 300.257818 
L 117.396109 296.938481 
L 118.030994 295.944925 
L 119.300763 292.436455 
L 119.935648 290.929178 
L 120.570532 289.077583 
L 121.205417 287.911837 
L 121.840301 286.35096 
L 122.475186 285.422331 
L 123.11007 283.878381 
L 123.744955 281.510218 
L 124.379839 280.505397 
L 126.284493 276.198121 
L 127.554262 272.895696 
L 128.824031 270.239663 
L 130.0938 266.736826 
L 130.728684 265.884419 
L 133.903107 258.531579 
L 135.172876 255.909402 
L 135.80776 254.213038 
L 136.442645 253.086812 
L 138.347298 248.438035 
L 138.982183 247.591261 
L 139.617067 246.329549 
L 140.251952 244.619073 
L 140.886837 243.777962 
L 141.521721 241.996896 
L 142.79149 239.329567 
L 143.426375 237.751731 
L 144.061259 237.057371 
L 146.600797 230.915428 
L 149.140335 226.156572 
L 149.77522 224.612622 
L 151.679873 221.225526 
L 152.314758 219.797288 
L 152.949642 217.97107 
L 153.584527 217.146887 
L 155.48918 213.079544 
L 156.124065 212.579935 
L 156.758949 211.267438 
L 157.393834 209.472291 
L 158.663603 207.363805 
L 159.298487 205.670257 
L 159.933372 204.984376 
L 161.203141 202.060187 
L 162.47291 200.047668 
L 163.742679 197.131958 
L 164.377564 196.671868 
L 168.186871 189.431953 
L 171.361293 183.970258 
L 172.631062 181.497649 
L 173.265947 180.845656 
L 173.900831 179.200076 
L 174.535716 177.992026 
L 175.1706 177.179108 
L 175.805485 176.013393 
L 176.440369 175.121437 
L 177.075254 174.006537 
L 177.710138 172.456925 
L 178.345023 171.632742 
L 179.614792 169.713373 
L 180.249676 168.660554 
L 180.884561 167.223866 
L 181.519445 166.535139 
L 182.15433 165.4428 
L 182.789215 163.949666 
L 183.424099 163.393609 
L 184.058984 162.024664 
L 185.328753 159.983952 
L 185.963637 158.414595 
L 186.598522 157.991208 
L 187.233406 156.749271 
L 188.503175 155.253289 
L 189.13806 153.706523 
L 189.772944 153.156099 
L 190.407829 152.275468 
L 191.042713 150.872638 
L 191.677598 149.99764 
L 192.312482 149.356912 
L 193.582251 147.076267 
L 194.85202 145.447645 
L 195.486905 144.084334 
L 196.121789 143.260151 
L 196.756674 142.023847 
L 197.391558 141.213776 
L 198.026443 140.657719 
L 198.661327 139.714978 
L 199.296212 138.362962 
L 199.931096 137.471006 
L 200.565981 136.799237 
L 201.83575 134.693598 
L 203.105519 132.782709 
L 203.740403 131.653667 
L 204.375288 131.19076 
L 205.645057 129.364573 
L 208.184595 125.545611 
L 208.81948 124.96133 
L 209.454364 123.826655 
L 210.089249 123.078665 
L 210.724133 122.80206 
L 211.993902 120.453671 
L 212.628787 120.044396 
L 213.263671 119.093176 
L 213.898556 117.865351 
L 214.53344 117.145614 
L 215.168325 115.923422 
L 215.803209 115.813343 
L 216.438094 114.591181 
L 217.072978 114.03794 
L 218.342747 112.239946 
L 218.977632 111.791151 
L 219.612516 111.040344 
L 220.247401 109.705287 
L 220.882285 109.617769 
L 222.152054 107.387939 
L 222.786939 106.524237 
L 223.421823 106.035923 
L 225.326477 103.557681 
L 225.961362 103.077847 
L 230.405553 97.853238 
L 231.040438 97.379066 
L 231.675322 96.662115 
L 232.310207 95.744782 
L 232.945091 95.363731 
L 234.849745 93.068974 
L 235.484629 92.865744 
L 236.119514 91.821404 
L 236.754398 91.683071 
L 238.024167 90.029043 
L 239.293936 89.024221 
L 239.928821 88.041961 
L 240.563705 87.782284 
L 241.19859 86.808473 
L 245.007897 83.483488 
L 245.642781 83.096804 
L 246.277666 82.235888 
L 246.91255 81.569782 
L 247.547435 81.250811 
L 248.18232 80.54234 
L 248.817204 80.302438 
L 250.086973 78.93631 
L 250.721858 78.586299 
L 251.991627 77.070573 
L 252.626511 77.107276 
L 253.261396 76.359285 
L 253.89628 75.927419 
L 254.531165 75.320577 
L 257.070703 73.759699 
L 257.705587 73.000413 
L 258.340472 72.763327 
L 259.610241 71.925002 
L 260.245125 71.6851 
L 260.88001 70.860887 
L 263.419548 69.596389 
L 264.054432 68.907662 
L 264.689317 68.450418 
L 265.324201 68.190742 
L 268.498624 66.169774 
L 269.133509 65.68146 
L 269.768393 65.376631 
L 270.403278 65.198779 
L 271.038162 64.829023 
L 271.673047 64.30122 
L 272.307931 63.928618 
L 272.942816 63.821385 
L 274.212585 63.005652 
L 274.847469 62.878645 
L 276.117238 62.077023 
L 276.752123 61.986688 
L 277.387007 61.506854 
L 278.021892 61.317736 
L 278.656776 60.645968 
L 279.291661 60.583857 
L 279.926545 60.366547 
L 280.56143 60.437106 
L 281.196314 59.816122 
L 283.100968 58.989123 
L 283.735852 59.031459 
L 284.370737 58.393547 
L 285.005621 58.198797 
L 285.640506 58.159277 
L 286.27539 57.851602 
L 286.910275 57.402807 
L 288.180044 57.11209 
L 288.814928 57.114907 
L 289.449813 56.561696 
L 290.084697 56.516544 
L 290.719582 56.132646 
L 291.354467 55.943559 
L 291.989351 55.952008 
L 292.624236 55.692331 
L 293.25912 55.568141 
L 293.894005 55.573773 
L 295.798658 54.783477 
L 298.338196 54.283868 
L 298.973081 53.993151 
L 299.607965 54.029823 
L 300.24285 53.643139 
L 300.877734 53.479429 
L 301.512619 53.437094 
L 302.147503 53.21412 
L 302.782388 53.242344 
L 303.417272 52.895149 
L 304.687041 52.748367 
L 305.95681 52.392723 
L 306.591695 52.274195 
L 307.226579 52.32498 
L 307.861464 52.245972 
L 308.496348 51.859257 
L 309.766117 51.616539 
L 310.401002 51.799993 
L 311.035886 51.447166 
L 311.670771 51.588315 
L 313.575425 51.071777 
L 314.845194 51.116929 
L 316.114963 50.922179 
L 317.384732 50.558056 
L 319.289385 50.510088 
L 319.92427 50.408458 
L 321.194039 50.456457 
L 321.828923 50.15726 
L 323.098692 50.078222 
L 323.733577 50.25886 
L 324.368461 49.945552 
L 325.003346 49.793137 
L 330.082422 49.448789 
L 331.987075 49.2766 
L 333.256844 49.23708 
L 333.891729 48.912507 
L 334.526614 49.290712 
L 335.161498 49.039514 
L 336.431267 49.166521 
L 337.701036 48.898365 
L 338.335921 49.076217 
L 339.60569 48.881437 
L 340.240574 48.844764 
L 340.875459 48.692319 
L 341.510343 48.819356 
L 342.780112 48.616127 
L 343.414997 48.779837 
L 347.224304 48.427009 
L 347.859188 48.237892 
L 348.494073 48.506048 
L 349.128957 48.395969 
L 350.398726 48.421377 
L 351.668495 48.370562 
L 352.938264 48.204036 
L 353.573149 48.401602 
L 354.208033 48.147558 
L 355.477803 48.367746 
L 358.017341 48.175812 
L 359.28711 48.305635 
L 360.556879 48.093957 
L 361.191763 48.271779 
L 361.826648 48.031846 
L 362.461532 48.031846 
L 363.096417 48.147558 
L 365.635955 47.876615 
L 366.270839 48.116518 
L 369.445262 47.86532 
L 371.349915 48.034663 
L 373.254569 47.966919 
L 373.889453 48.065703 
L 377.063876 47.947175 
L 377.698761 48.108069 
L 380.238299 47.70161 
L 380.873183 47.918951 
L 381.508068 47.859657 
L 382.777837 48.014918 
L 384.047606 47.831433 
L 384.68249 47.966919 
L 385.952259 47.811689 
L 389.126682 47.777802 
L 389.761566 47.978215 
L 390.396451 47.941512 
L 391.031335 47.766537 
L 391.66622 47.783465 
L 392.301104 47.933063 
L 395.475527 47.766537 
L 396.110411 47.972582 
L 396.745296 47.901993 
L 397.38018 47.673386 
L 398.015065 47.659274 
L 399.284834 47.811689 
L 399.919719 47.904839 
L 400.554603 47.743946 
L 401.189488 47.811689 
L 402.459257 47.715722 
L 403.094141 47.808872 
L 404.36391 47.695947 
L 404.998795 47.921767 
L 405.633679 47.811689 
L 406.268564 47.820168 
L 406.903448 47.704426 
L 407.538333 47.921767 
L 408.173217 47.918951 
L 408.808102 47.738313 
L 410.077871 47.899176 
L 410.712755 47.718538 
L 411.34764 47.859657 
L 413.252293 47.633867 
L 414.522062 47.882248 
L 415.156947 47.780649 
L 415.791831 47.862504 
L 416.426716 47.710059 
L 417.696485 47.806026 
L 418.331369 47.825801 
L 418.966254 47.63105 
L 419.601138 47.828617 
L 421.505792 47.729834 
L 422.140677 47.842729 
L 422.775561 47.721354 
L 423.410446 47.924584 
L 424.04533 47.70161 
L 425.315099 47.828617 
L 426.584868 47.879432 
L 427.854637 47.571756 
L 428.489522 47.571756 
L 429.124406 47.947175 
L 429.759291 47.79476 
L 430.394175 47.777802 
L 431.02906 47.518125 
L 431.663944 47.710059 
L 434.203482 47.786281 
L 434.838367 47.907656 
L 435.473251 47.619755 
L 436.108136 47.890727 
L 436.74302 47.605643 
L 437.377905 47.803209 
L 438.012789 47.67057 
L 438.647674 47.851208 
L 439.282558 47.656458 
L 440.552327 47.769353 
L 441.187212 47.633867 
L 442.456981 47.698794 
L 444.361635 47.741129 
L 444.996519 47.625387 
L 445.631404 47.981031 
L 446.266288 47.70161 
L 448.170942 47.986694 
L 448.805826 47.577419 
L 449.440711 47.557644 
L 450.075595 47.712905 
L 451.345364 47.772169 
L 451.980249 47.566124 
L 452.615133 47.811689 
L 455.154671 47.602827 
L 455.789556 47.969736 
L 457.059325 47.791914 
L 457.694209 47.774986 
L 458.329094 47.941512 
L 459.598863 47.70161 
L 461.503516 47.789098 
L 463.40817 47.583052 
L 464.043055 47.653611 
L 464.677939 47.602827 
L 465.312824 47.899176 
L 465.947708 47.822984 
L 466.582593 47.893544 
L 467.217477 47.837096 
L 467.852362 47.664907 
L 468.487246 48.012102 
L 469.122131 47.667723 
L 469.757015 47.777802 
L 471.026784 47.715722 
L 471.661669 47.597164 
L 472.931438 47.743946 
L 473.566322 47.741129 
L 474.201207 47.882248 
L 476.740745 47.707242 
L 478.010514 47.868136 
L 478.645398 47.695947 
L 481.184936 47.859657 
L 481.819821 47.687498 
L 483.08959 47.964103 
L 483.724474 47.791914 
L 484.994244 47.803209 
L 485.629128 47.597164 
L 486.264013 47.752425 
L 487.533782 47.800393 
L 488.168666 47.690314 
L 488.803551 47.933063 
L 489.438435 47.667723 
L 490.07332 47.817321 
L 491.343089 47.735466 
L 492.612858 47.645162 
L 493.247742 48.02903 
L 493.882627 47.729834 
L 494.517511 47.636683 
L 495.152396 47.972582 
L 496.422165 47.679019 
L 497.057049 47.955624 
L 497.691934 47.760874 
L 498.326818 47.690314 
L 498.961703 47.842729 
L 499.596587 47.735466 
L 500.231472 47.86532 
L 501.501241 47.848392 
L 502.77101 47.885064 
L 504.040779 47.605643 
L 504.675663 47.777802 
L 505.310548 47.83428 
L 505.945433 47.724171 
L 507.215202 47.86532 
L 507.850086 47.676202 
L 508.484971 47.918951 
L 509.75474 47.879432 
L 510.389624 47.859657 
L 511.024509 47.642316 
L 512.294278 47.890727 
L 512.929162 47.786281 
L 513.564047 47.839912 
L 514.198931 47.746762 
L 514.833816 47.938696 
L 515.4687 47.687498 
L 517.373354 47.862504 
L 518.008238 47.851208 
L 518.643123 47.695947 
L 519.278007 47.916135 
L 519.912892 47.735466 
L 521.182661 47.901993 
L 521.817545 47.752425 
L 522.45243 48.02903 
L 523.087314 48.009255 
L 523.722199 47.690314 
L 524.357083 47.825801 
L 526.896621 47.766537 
L 527.531506 47.904839 
L 528.166391 47.817321 
L 528.801275 47.885064 
L 529.43616 47.769353 
L 530.705929 47.887881 
L 531.975698 47.749578 
L 532.610582 47.890727 
L 533.880351 47.800393 
L 534.515236 47.645162 
L 535.15012 47.851208 
L 535.785005 47.86532 
L 537.054774 47.727017 
L 537.689658 47.837096 
L 538.324543 47.746762 
L 538.959427 47.868136 
L 540.229196 47.772169 
L 541.498965 47.859657 
L 543.403619 47.741129 
L 544.038503 47.9274 
L 544.673388 47.715722 
L 545.308272 47.933063 
L 545.943157 47.608459 
L 546.578041 47.913288 
L 547.84781 47.735466 
L 548.482695 47.986694 
L 549.11758 47.806026 
L 549.752464 47.961287 
L 551.022233 47.715722 
L 551.657118 47.882248 
L 552.926887 47.789098 
L 553.561771 47.662091 
L 554.196656 47.873769 
L 554.83154 47.904839 
L 555.466425 47.667723 
L 556.736194 47.935879 
L 557.371078 47.851208 
L 558.005963 47.935879 
L 558.640847 47.710059 
L 559.275732 48.023367 
L 559.910616 47.837096 
L 560.545501 47.899176 
L 561.180385 47.580235 
L 561.81527 47.825801 
L 562.450154 47.695947 
L 563.085039 47.964103 
L 564.354808 47.797577 
L 565.624577 47.820168 
L 566.259461 47.707242 
L 568.164115 47.83428 
L 570.703653 47.924584 
L 571.338538 47.693131 
L 571.973422 47.904839 
L 573.243191 47.916135 
L 573.878076 47.690314 
L 575.147845 48.02903 
L 575.782729 47.95847 
L 576.417614 47.718538 
L 576.417614 47.718538 
" clip-path="url(#p07aead9f52)" style="fill: none; stroke: #1f77b4; stroke-width: 1.5; stroke-linecap: square"/>
   </g>
   <g id="line2d_32">
    <path d="M 69.144886 419.805482 
L 69.779771 417.544597 
L 71.04954 417.366775 
L 71.684424 418.408314 
L 72.319309 418.713143 
L 72.954193 417.392182 
L 73.589078 417.824033 
L 74.223962 419.068787 
L 74.858847 419.399038 
L 75.493732 420.440563 
L 76.128616 419.907097 
L 76.763501 418.509914 
L 77.398385 420.008711 
L 78.03327 419.322831 
L 78.668154 421.532902 
L 79.303039 420.364355 
L 79.937923 421.456694 
L 80.572808 421.050251 
L 81.207692 423.870009 
L 81.842577 420.41517 
L 82.477461 421.93936 
L 83.112346 423.158706 
L 83.74723 423.234929 
L 84.382115 423.66678 
L 85.016999 422.82847 
L 85.651884 423.895402 
L 86.286768 422.853877 
L 86.921653 426.232509 
L 87.556537 424.530482 
L 88.826306 427.578877 
L 89.461191 425.546614 
L 90.096075 427.451863 
L 90.73096 426.537346 
L 91.365844 427.045412 
L 92.000729 426.791375 
L 92.635613 427.223233 
L 93.270498 425.800658 
L 93.905382 426.765975 
L 95.175151 430.576458 
L 95.810036 429.89057 
L 96.44492 428.239365 
L 97.079805 428.061536 
L 97.71469 428.36638 
L 98.349574 432.176863 
L 98.984459 429.153882 
L 99.619343 429.00146 
L 100.254228 429.280897 
L 100.889112 428.798231 
L 101.523997 429.763555 
L 102.158881 430.093799 
L 102.793766 431.770411 
L 103.42865 431.770411 
L 104.063535 433.040572 
L 104.698419 430.347828 
L 105.333304 431.465575 
L 105.968188 430.70348 
L 106.603073 431.186138 
L 107.237957 431.490975 
L 107.872842 432.608721 
L 108.507726 432.430899 
L 109.142611 432.405492 
L 109.777495 431.59259 
L 110.41238 434.285333 
L 111.047264 432.430899 
L 111.682149 434.005897 
L 112.317033 433.167595 
L 112.951918 433.70106 
L 113.586802 433.70106 
L 114.221687 432.989765 
L 114.856571 434.310741 
L 115.491456 433.650253 
L 116.12634 435.047428 
L 116.761225 434.640977 
L 117.396109 432.989765 
L 118.030994 434.437755 
L 118.665879 435.098236 
L 119.300763 434.209126 
L 119.935648 433.802675 
L 120.570532 436.26679 
L 121.840301 434.59017 
L 122.475186 435.123643 
L 123.11007 436.622433 
L 123.744955 437.587758 
L 124.379839 435.45388 
L 125.014724 436.215982 
L 125.649608 437.460736 
L 126.284493 436.088968 
L 126.919377 436.92727 
L 127.554262 438.197431 
L 128.189146 437.460736 
L 128.824031 437.206707 
L 129.458915 437.435336 
L 130.0938 437.333721 
L 130.728684 436.851063 
L 131.363569 438.222838 
L 131.998453 438.62929 
L 132.633338 437.308321 
L 133.268222 437.206707 
L 133.903107 437.282914 
L 134.537991 438.832511 
L 135.172876 436.825655 
L 135.80776 437.994209 
L 136.442645 438.603882 
L 137.077529 439.416792 
L 137.712414 437.028885 
L 138.347298 439.492999 
L 138.982183 438.375253 
L 139.617067 437.76558 
L 140.251952 439.950258 
L 140.886837 438.476868 
L 141.521721 439.238963 
L 142.156606 439.213563 
L 142.79149 438.756304 
L 143.426375 438.883319 
L 144.061259 437.409936 
L 144.696144 438.527675 
L 145.331028 440.178887 
L 145.965913 439.340577 
L 147.235682 438.299046 
L 147.870566 440.661546 
L 149.140335 438.883319 
L 149.77522 439.061141 
L 150.410104 439.594614 
L 151.044989 439.518399 
L 151.679873 437.943402 
L 152.949642 441.474448 
L 153.584527 438.62929 
L 154.219411 439.162755 
L 154.854296 440.890175 
L 155.48918 440.432916 
L 156.124065 440.178887 
L 156.758949 438.959534 
L 157.393834 440.509131 
L 158.028718 440.864775 
L 158.663603 440.051873 
L 159.298487 441.093404 
L 159.933372 440.178887 
L 160.568256 441.830099 
L 161.203141 441.118804 
L 161.838026 442.211143 
L 162.47291 441.779292 
L 163.107795 441.067997 
L 163.742679 439.543807 
L 164.377564 441.576063 
L 165.012448 441.550663 
L 165.647333 441.753885 
L 166.282217 441.347433 
L 166.917102 439.416792 
L 167.551986 439.569207 
L 168.821755 441.677677 
L 169.45664 441.60147 
L 170.091524 440.686953 
L 170.726409 440.636146 
L 171.361293 441.195019 
L 171.996178 443.938563 
L 172.631062 441.804692 
L 173.265947 442.211143 
L 174.535716 440.864775 
L 175.1706 441.423648 
L 176.440369 443.024053 
L 177.075254 441.144212 
L 177.710138 441.017197 
L 178.345023 442.287358 
L 178.979907 441.703077 
L 179.614792 442.744616 
L 180.249676 441.652277 
L 180.884561 441.753885 
L 181.519445 442.439772 
L 182.15433 443.913163 
L 182.789215 441.449048 
L 183.424099 441.423648 
L 184.058984 441.880907 
L 184.693868 442.566795 
L 185.328753 442.617594 
L 185.963637 444.040177 
L 186.598522 443.10026 
L 187.233406 444.548243 
L 187.868291 443.10026 
L 188.503175 444.497436 
L 189.13806 442.770016 
L 189.772944 442.846224 
L 190.407829 443.12566 
L 191.042713 443.227275 
L 191.677598 442.820824 
L 192.312482 444.421229 
L 192.947367 443.024053 
L 193.582251 444.141792 
L 194.217136 444.700665 
L 194.85202 443.532111 
L 195.486905 443.278082 
L 196.121789 443.913163 
L 196.756674 443.862355 
L 197.391558 444.014777 
L 198.661327 445.132516 
L 199.296212 445.945419 
L 199.931096 444.116392 
L 201.200865 445.030909 
L 201.83575 444.878487 
L 202.470634 444.167192 
L 203.105519 445.132516 
L 203.740403 445.335746 
L 204.375288 443.608326 
L 205.010173 445.030909 
L 205.645057 445.66599 
L 206.914826 445.157924 
L 207.549711 444.446629 
L 208.184595 444.85308 
L 209.454364 445.056309 
L 210.089249 445.996226 
L 210.724133 443.836956 
L 211.359018 445.640582 
L 211.993902 445.716797 
L 212.628787 445.46276 
L 213.263671 445.69139 
L 213.898556 444.62445 
L 214.53344 445.030909 
L 215.168325 445.081709 
L 215.803209 446.656714 
L 216.438094 444.319614 
L 217.072978 444.446629 
L 217.707863 446.097841 
L 218.342747 445.488168 
L 218.977632 445.386553 
L 219.612516 446.224855 
L 220.247401 446.859936 
L 220.882285 445.411953 
L 221.51717 445.386553 
L 222.152054 444.700665 
L 222.786939 444.929295 
L 223.421823 445.894619 
L 224.056708 445.894619 
L 224.691592 445.513568 
L 225.326477 445.920019 
L 225.961362 445.157924 
L 226.596246 445.183324 
L 227.231131 445.488168 
L 227.866015 446.529699 
L 228.5009 445.132516 
L 229.135784 445.030909 
L 229.770669 446.758329 
L 230.405553 445.335746 
L 231.040438 444.878487 
L 231.675322 445.183324 
L 232.310207 444.878487 
L 232.945091 445.818404 
L 233.579976 444.649858 
L 234.21486 446.097841 
L 234.849745 445.488168 
L 235.484629 446.910743 
L 236.119514 445.615182 
L 237.389283 445.411953 
L 238.024167 445.970826 
L 238.659052 446.885343 
L 239.293936 445.361146 
L 239.928821 446.199455 
L 240.563705 446.224855 
L 241.19859 445.996226 
L 241.833474 446.123248 
L 242.468359 446.605907 
L 243.103243 446.453485 
L 243.738128 446.783729 
L 244.373012 446.377277 
L 245.007897 446.478892 
L 245.642781 445.996226 
L 246.277666 446.783729 
L 247.547435 446.478892 
L 248.18232 446.631307 
L 248.817204 447.19018 
L 249.452089 446.148648 
L 250.086973 446.30107 
L 250.721858 446.097841 
L 251.356742 446.174048 
L 251.991627 446.885343 
L 252.626511 444.954694 
L 253.89628 447.469616 
L 254.531165 447.368002 
L 255.166049 446.377277 
L 255.800934 447.215587 
L 256.435818 445.66599 
L 257.070703 447.037765 
L 257.705587 447.952282 
L 258.340472 446.047033 
L 258.975356 448.155504 
L 259.610241 447.393409 
L 260.245125 446.809136 
L 260.88001 447.571231 
L 261.514894 447.723653 
L 262.149779 446.986958 
L 262.784663 447.444217 
L 263.419548 446.580507 
L 264.689317 448.231711 
L 265.324201 447.393409 
L 265.959086 446.834536 
L 266.59397 447.19018 
L 267.228855 447.926875 
L 267.863739 447.088565 
L 268.498624 448.104697 
L 269.133509 447.495024 
L 269.768393 447.113973 
L 270.403278 447.012358 
L 271.038162 448.434941 
L 271.673047 448.612763 
L 272.307931 447.545824 
L 272.942816 447.723653 
L 273.5777 447.672846 
L 274.212585 448.587363 
L 274.847469 448.993814 
L 275.482354 447.926875 
L 276.117238 448.815992 
L 276.752123 448.358734 
L 277.387007 448.866792 
L 278.021892 448.02849 
L 278.656776 449.603487 
L 279.291661 447.291794 
L 279.926545 448.409533 
L 280.56143 448.815992 
L 281.196314 447.19018 
L 281.831199 448.892199 
L 282.466083 447.139372 
L 283.100968 448.358734 
L 283.735852 448.765185 
L 284.370737 448.434941 
L 285.005621 449.222443 
L 285.640506 449.755909 
L 286.27539 448.460341 
L 286.910275 449.603487 
L 287.545159 448.333326 
L 288.180044 449.52728 
L 288.814928 447.926875 
L 289.449813 448.993814 
L 290.084697 449.32405 
L 290.719582 448.561955 
L 291.354467 448.130104 
L 291.989351 448.485748 
L 292.624236 449.197036 
L 293.894005 448.485748 
L 294.528889 450.035346 
L 295.163774 448.917599 
L 295.798658 448.612763 
L 296.433543 449.882924 
L 297.068427 448.917599 
L 297.703312 449.120829 
L 298.338196 449.197036 
L 298.973081 448.815992 
L 299.607965 449.374858 
L 300.877734 448.434941 
L 301.512619 448.68897 
L 302.147503 448.333326 
L 302.782388 448.790585 
L 303.417272 448.993814 
L 304.052157 449.908331 
L 304.687041 449.197036 
L 305.321926 450.492604 
L 305.95681 450.086153 
L 307.226579 448.561955 
L 307.861464 449.55268 
L 308.496348 449.197036 
L 309.131233 448.993814 
L 309.766117 449.095421 
L 310.401002 448.180904 
L 311.035886 448.892199 
L 311.670771 449.857524 
L 312.305656 449.222443 
L 312.94054 448.943007 
L 313.575425 449.55268 
L 314.210309 449.247843 
L 314.845194 449.197036 
L 315.480078 448.993814 
L 316.114963 449.55268 
L 316.749847 448.917599 
L 317.384732 449.019214 
L 318.019616 448.612763 
L 318.654501 449.984538 
L 319.289385 448.815992 
L 319.92427 448.66357 
L 320.559154 448.866792 
L 321.828923 449.52728 
L 322.463808 449.705102 
L 323.098692 448.765185 
L 323.733577 449.730509 
L 324.368461 448.917599 
L 325.003346 449.374858 
L 325.63823 449.197036 
L 326.273115 449.400265 
L 326.907999 449.095421 
L 327.542884 449.50188 
L 328.177768 448.765185 
L 328.812653 448.638163 
L 329.447537 449.933731 
L 330.082422 447.82526 
L 330.717306 448.917599 
L 331.352191 448.841392 
L 331.987075 449.044621 
L 332.62196 448.638163 
L 333.256844 448.561955 
L 334.526614 448.892199 
L 335.161498 449.095421 
L 335.796383 449.425665 
L 336.431267 448.892199 
L 337.701036 448.257119 
L 338.335921 449.197036 
L 338.970805 449.171636 
L 339.60569 448.561955 
L 340.240574 447.393409 
L 340.875459 448.917599 
L 341.510343 449.32405 
L 342.145228 448.434941 
L 342.780112 448.003082 
L 343.414997 449.32405 
L 344.049881 447.774453 
L 344.684766 449.044621 
L 345.31965 447.672846 
L 345.954535 448.968407 
L 346.589419 449.933731 
L 347.224304 449.247843 
L 347.859188 448.765185 
L 348.494073 449.273251 
L 349.128957 449.298651 
L 350.398726 448.815992 
L 351.033611 449.374858 
L 351.668495 448.917599 
L 352.938264 449.832116 
L 353.573149 449.247843 
L 354.208033 449.425665 
L 354.842918 448.68897 
L 355.477803 448.612763 
L 356.112687 449.171636 
L 356.747572 449.070021 
L 357.382456 449.425665 
L 358.652225 448.714377 
L 359.28711 449.197036 
L 359.921994 448.638163 
L 360.556879 449.095421 
L 361.826648 448.66357 
L 362.461532 448.68897 
L 363.096417 450.035346 
L 363.731301 448.485748 
L 364.366186 449.171636 
L 365.00107 448.485748 
L 365.635955 449.171636 
L 366.270839 450.111553 
L 366.905724 448.993814 
L 367.540608 449.247843 
L 368.175493 449.197036 
L 368.810377 448.892199 
L 369.445262 449.959139 
L 370.080146 449.705102 
L 370.715031 448.66357 
L 371.349915 448.434941 
L 371.9848 448.739777 
L 372.619684 448.206312 
L 373.254569 448.307926 
L 373.889453 448.714377 
L 374.524338 449.55268 
L 375.159222 448.612763 
L 375.794107 448.943007 
L 377.063876 448.714377 
L 377.698761 449.400265 
L 378.333645 449.857524 
L 378.96853 448.434941 
L 379.603414 449.349458 
L 380.238299 449.50188 
L 380.873183 447.571231 
L 381.508068 448.434941 
L 382.142952 449.578087 
L 382.777837 449.55268 
L 383.412721 448.866792 
L 384.047606 449.882924 
L 384.68249 449.628895 
L 385.317375 447.850668 
L 385.952259 450.518004 
L 386.587144 448.384133 
L 387.222028 448.05389 
L 387.856913 448.866792 
L 388.491797 448.485748 
L 389.126682 449.247843 
L 389.761566 448.511148 
L 390.396451 448.765185 
L 391.031335 449.298651 
L 391.66622 448.409533 
L 392.301104 449.476473 
L 392.935989 449.019214 
L 393.570873 448.714377 
L 394.205758 448.790585 
L 394.840642 449.247843 
L 395.475527 447.774453 
L 396.110411 450.594219 
L 396.745296 448.587363 
L 397.38018 448.765185 
L 398.015065 450.263975 
L 398.64995 447.774453 
L 399.284834 449.400265 
L 399.919719 449.273251 
L 400.554603 448.180904 
L 401.824372 449.019214 
L 402.459257 450.568812 
L 403.094141 448.892199 
L 404.36391 448.917599 
L 404.998795 448.460341 
L 406.268564 449.146229 
L 407.538333 449.120829 
L 408.173217 448.307926 
L 408.808102 449.374858 
L 410.077871 449.222443 
L 410.712755 448.130104 
L 411.34764 449.832116 
L 411.982524 448.02849 
L 412.617409 448.612763 
L 413.252293 448.943007 
L 413.887178 448.536556 
L 414.522062 449.095421 
L 415.156947 448.815992 
L 415.791831 449.55268 
L 416.426716 448.130104 
L 417.0616 447.774453 
L 417.696485 449.120829 
L 418.331369 449.400265 
L 418.966254 448.943007 
L 419.601138 450.873648 
L 420.236023 449.578087 
L 420.870908 447.723653 
L 421.505792 449.146229 
L 422.140677 447.596631 
L 422.775561 448.739777 
L 423.410446 448.282519 
L 424.04533 449.476473 
L 424.680215 447.876068 
L 425.315099 448.917599 
L 425.949984 447.723653 
L 426.584868 448.866792 
L 427.219753 448.434941 
L 427.854637 448.866792 
L 428.489522 448.079297 
L 429.124406 449.52728 
L 430.394175 449.959139 
L 431.02906 447.596631 
L 431.663944 449.32405 
L 432.298829 449.197036 
L 432.933713 449.908331 
L 433.568598 449.095421 
L 434.203482 449.120829 
L 434.838367 448.968407 
L 435.473251 449.476473 
L 436.108136 449.425665 
L 436.74302 447.749053 
L 437.377905 447.926875 
L 438.012789 449.781309 
L 438.647674 449.247843 
L 439.282558 449.349458 
L 439.917443 448.485748 
L 440.552327 448.587363 
L 441.187212 449.273251 
L 441.822097 448.68897 
L 442.456981 447.79986 
L 443.091866 448.790585 
L 443.72675 448.561955 
L 444.361635 448.612763 
L 444.996519 447.82526 
L 445.631404 448.866792 
L 446.266288 447.79986 
L 446.901173 448.790585 
L 447.536057 447.82526 
L 448.170942 448.815992 
L 448.805826 448.434941 
L 449.440711 449.32405 
L 450.075595 449.603487 
L 450.71048 447.495024 
L 451.345364 448.765185 
L 451.980249 449.273251 
L 452.615133 448.968407 
L 453.250018 447.901475 
L 453.884902 448.841392 
L 454.519787 449.425665 
L 455.154671 448.917599 
L 455.789556 450.416389 
L 456.42444 449.120829 
L 457.059325 449.374858 
L 457.694209 448.841392 
L 458.329094 449.781309 
L 459.598863 447.393409 
L 460.233747 448.409533 
L 460.868632 448.739777 
L 461.503516 448.358734 
L 462.773285 447.952282 
L 463.40817 449.832116 
L 464.043055 448.815992 
L 464.677939 448.968407 
L 465.312824 448.434941 
L 465.947708 448.130104 
L 466.582593 450.009938 
L 467.217477 449.451073 
L 467.852362 449.070021 
L 469.122131 447.876068 
L 469.757015 449.349458 
L 470.3919 449.298651 
L 471.026784 448.638163 
L 471.661669 448.257119 
L 472.296553 448.561955 
L 472.931438 449.908331 
L 473.566322 448.892199 
L 474.201207 448.231711 
L 474.836091 448.993814 
L 475.470976 448.714377 
L 476.10586 449.146229 
L 476.740745 447.698246 
L 477.375629 448.231711 
L 478.010514 449.095421 
L 478.645398 448.841392 
L 479.280283 447.952282 
L 479.915167 448.68897 
L 480.550052 448.790585 
L 481.184936 449.146229 
L 481.819821 448.358734 
L 482.454705 448.155504 
L 483.08959 448.333326 
L 483.724474 448.739777 
L 484.359359 447.952282 
L 484.994244 449.959139 
L 485.629128 448.561955 
L 486.264013 448.358734 
L 486.898897 449.019214 
L 488.168666 449.146229 
L 488.803551 449.070021 
L 489.438435 448.003082 
L 490.07332 448.612763 
L 490.708204 448.206312 
L 491.343089 447.647438 
L 491.977973 450.086153 
L 492.612858 448.384133 
L 493.882627 449.070021 
L 494.517511 449.959139 
L 495.152396 448.104697 
L 495.78728 448.104697 
L 496.422165 448.358734 
L 497.057049 448.485748 
L 497.691934 449.019214 
L 498.326818 448.739777 
L 498.961703 448.206312 
L 499.596587 448.384133 
L 500.231472 447.368002 
L 500.866356 448.561955 
L 501.501241 448.180904 
L 502.136125 447.520424 
L 502.77101 449.247843 
L 503.405894 446.656714 
L 504.040779 450.086153 
L 504.675663 448.790585 
L 505.310548 449.832116 
L 505.945433 448.384133 
L 506.580317 449.32405 
L 507.215202 448.765185 
L 508.484971 448.409533 
L 509.119855 447.495024 
L 509.75474 448.231711 
L 510.389624 449.146229 
L 511.024509 448.866792 
L 511.659393 448.765185 
L 512.294278 448.307926 
L 512.929162 448.765185 
L 514.198931 448.968407 
L 514.833816 447.596631 
L 515.4687 448.485748 
L 516.103585 447.79986 
L 516.738469 448.714377 
L 517.373354 448.612763 
L 518.008238 447.698246 
L 518.643123 448.790585 
L 519.912892 447.850668 
L 520.547776 447.926875 
L 521.182661 448.866792 
L 521.817545 448.257119 
L 522.45243 446.910743 
L 523.087314 448.05389 
L 523.722199 448.130104 
L 524.357083 448.333326 
L 524.991968 449.247843 
L 525.626852 447.698246 
L 526.261737 448.358734 
L 527.531506 447.876068 
L 528.166391 447.698246 
L 528.801275 448.257119 
L 529.43616 449.400265 
L 530.071044 449.628895 
L 530.705929 448.434941 
L 531.340813 447.850668 
L 531.975698 448.943007 
L 532.610582 448.180904 
L 533.245467 449.857524 
L 533.880351 448.155504 
L 534.515236 448.384133 
L 535.15012 447.952282 
L 535.785005 448.130104 
L 536.419889 448.714377 
L 537.054774 449.755909 
L 537.689658 447.774453 
L 538.324543 447.571231 
L 538.959427 448.561955 
L 539.594312 447.139372 
L 540.229196 446.986958 
L 540.864081 448.104697 
L 541.498965 447.977682 
L 542.13385 446.682114 
L 542.768734 448.130104 
L 543.403619 448.460341 
L 544.038503 448.536556 
L 544.673388 448.892199 
L 545.308272 448.333326 
L 545.943157 448.257119 
L 546.578041 449.070021 
L 547.212926 448.511148 
L 547.84781 446.859936 
L 548.482695 448.409533 
L 549.11758 448.231711 
L 549.752464 448.765185 
L 550.387349 447.368002 
L 551.022233 446.910743 
L 551.657118 448.968407 
L 552.292002 449.50188 
L 552.926887 448.511148 
L 553.561771 448.180904 
L 554.196656 448.180904 
L 554.83154 448.358734 
L 555.466425 447.876068 
L 556.101309 449.755909 
L 556.736194 448.282519 
L 557.371078 448.765185 
L 558.005963 448.485748 
L 558.640847 448.434941 
L 559.275732 447.901475 
L 559.910616 448.765185 
L 560.545501 448.841392 
L 561.180385 448.257119 
L 561.81527 448.05389 
L 562.450154 448.104697 
L 563.085039 447.596631 
L 563.719923 449.654294 
L 564.354808 447.850668 
L 564.989692 447.876068 
L 565.624577 449.146229 
L 566.259461 449.095421 
L 566.894346 447.901475 
L 567.52923 447.418809 
L 568.164115 447.495024 
L 568.798999 448.993814 
L 569.433884 449.247843 
L 570.068768 448.130104 
L 570.703653 447.926875 
L 571.338538 447.977682 
L 571.973422 448.993814 
L 572.608307 447.901475 
L 573.243191 448.003082 
L 573.878076 449.705102 
L 574.51296 447.977682 
L 575.147845 447.79986 
L 575.782729 449.197036 
L 576.417614 448.206312 
L 576.417614 448.206312 
" clip-path="url(#p07aead9f52)" style="fill: none; stroke: #ff7f0e; stroke-width: 1.5; stroke-linecap: square"/>
   </g>
   <g id="line2d_33">
    <path d="M 43.78125 551.518125 
L 601.78125 551.518125 
" clip-path="url(#p07aead9f52)" style="fill: none; stroke-dasharray: 11.1,4.8; stroke-dashoffset: 0; stroke: #ff0000; stroke-width: 3"/>
   </g>
   <g id="patch_3">
    <path d="M 43.78125 576.718125 
L 43.78125 22.318125 
" style="fill: none; stroke: #000000; stroke-width: 0.8; stroke-linejoin: miter; stroke-linecap: square"/>
   </g>
   <g id="patch_4">
    <path d="M 601.78125 576.718125 
L 601.78125 22.318125 
" style="fill: none; stroke: #000000; stroke-width: 0.8; stroke-linejoin: miter; stroke-linecap: square"/>
   </g>
   <g id="patch_5">
    <path d="M 43.78125 576.718125 
L 601.78125 576.718125 
" style="fill: none; stroke: #000000; stroke-width: 0.8; stroke-linejoin: miter; stroke-linecap: square"/>
   </g>
   <g id="patch_6">
    <path d="M 43.78125 22.318125 
L 601.78125 22.318125 
" style="fill: none; stroke: #000000; stroke-width: 0.8; stroke-linejoin: miter; stroke-linecap: square"/>
   </g>
   <g id="text_18">
    <!-- Train and Val Accuracy -->
    <g transform="translate(255.002813 16.318125) scale(0.12 -0.12)">
     <defs>
      <path id="DejaVuSans-54" d="M -19 4666 
L 3928 4666 
L 3928 4134 
L 2272 4134 
L 2272 0 
L 1638 0 
L 1638 4134 
L -19 4134 
L -19 4666 
z
" transform="scale(0.015625)"/>
      <path id="DejaVuSans-69" d="M 603 3500 
L 1178 3500 
L 1178 0 
L 603 0 
L 603 3500 
z
M 603 4863 
L 1178 4863 
L 1178 4134 
L 603 4134 
L 603 4863 
z
" transform="scale(0.015625)"/>
      <path id="DejaVuSans-6e" d="M 3513 2113 
L 3513 0 
L 2938 0 
L 2938 2094 
Q 2938 2591 2744 2837 
Q 2550 3084 2163 3084 
Q 1697 3084 1428 2787 
Q 1159 2491 1159 1978 
L 1159 0 
L 581 0 
L 581 3500 
L 1159 3500 
L 1159 2956 
Q 1366 3272 1645 3428 
Q 1925 3584 2291 3584 
Q 2894 3584 3203 3211 
Q 3513 2838 3513 2113 
z
" transform="scale(0.015625)"/>
      <path id="DejaVuSans-20" transform="scale(0.015625)"/>
      <path id="DejaVuSans-64" d="M 2906 2969 
L 2906 4863 
L 3481 4863 
L 3481 0 
L 2906 0 
L 2906 525 
Q 2725 213 2448 61 
Q 2172 -91 1784 -91 
Q 1150 -91 751 415 
Q 353 922 353 1747 
Q 353 2572 751 3078 
Q 1150 3584 1784 3584 
Q 2172 3584 2448 3432 
Q 2725 3281 2906 2969 
z
M 947 1747 
Q 947 1113 1208 752 
Q 1469 391 1925 391 
Q 2381 391 2643 752 
Q 2906 1113 2906 1747 
Q 2906 2381 2643 2742 
Q 2381 3103 1925 3103 
Q 1469 3103 1208 2742 
Q 947 2381 947 1747 
z
" transform="scale(0.015625)"/>
      <path id="DejaVuSans-56" d="M 1831 0 
L 50 4666 
L 709 4666 
L 2188 738 
L 3669 4666 
L 4325 4666 
L 2547 0 
L 1831 0 
z
" transform="scale(0.015625)"/>
      <path id="DejaVuSans-6c" d="M 603 4863 
L 1178 4863 
L 1178 0 
L 603 0 
L 603 4863 
z
" transform="scale(0.015625)"/>
     </defs>
     <use xlink:href="#DejaVuSans-54"/>
     <use xlink:href="#DejaVuSans-72" transform="translate(46.333984 0)"/>
     <use xlink:href="#DejaVuSans-61" transform="translate(87.447266 0)"/>
     <use xlink:href="#DejaVuSans-69" transform="translate(148.726562 0)"/>
     <use xlink:href="#DejaVuSans-6e" transform="translate(176.509766 0)"/>
     <use xlink:href="#DejaVuSans-20" transform="translate(239.888672 0)"/>
     <use xlink:href="#DejaVuSans-61" transform="translate(271.675781 0)"/>
     <use xlink:href="#DejaVuSans-6e" transform="translate(332.955078 0)"/>
     <use xlink:href="#DejaVuSans-64" transform="translate(396.333984 0)"/>
     <use xlink:href="#DejaVuSans-20" transform="translate(459.810547 0)"/>
     <use xlink:href="#DejaVuSans-56" transform="translate(491.597656 0)"/>
     <use xlink:href="#DejaVuSans-61" transform="translate(552.255859 0)"/>
     <use xlink:href="#DejaVuSans-6c" transform="translate(613.535156 0)"/>
     <use xlink:href="#DejaVuSans-20" transform="translate(641.318359 0)"/>
     <use xlink:href="#DejaVuSans-41" transform="translate(673.105469 0)"/>
     <use xlink:href="#DejaVuSans-63" transform="translate(739.763672 0)"/>
     <use xlink:href="#DejaVuSans-63" transform="translate(794.744141 0)"/>
     <use xlink:href="#DejaVuSans-75" transform="translate(849.724609 0)"/>
     <use xlink:href="#DejaVuSans-72" transform="translate(913.103516 0)"/>
     <use xlink:href="#DejaVuSans-61" transform="translate(954.216797 0)"/>
     <use xlink:href="#DejaVuSans-63" transform="translate(1015.496094 0)"/>
     <use xlink:href="#DejaVuSans-79" transform="translate(1070.476562 0)"/>
    </g>
   </g>
   <g id="legend_1">
    <g id="patch_7">
     <path d="M 50.78125 74.90875 
L 217.904687 74.90875 
Q 219.904687 74.90875 219.904687 72.90875 
L 219.904687 29.318125 
Q 219.904687 27.318125 217.904687 27.318125 
L 50.78125 27.318125 
Q 48.78125 27.318125 48.78125 29.318125 
L 48.78125 72.90875 
Q 48.78125 74.90875 50.78125 74.90875 
z
" style="fill: #ffffff; opacity: 0.8; stroke: #cccccc; stroke-linejoin: miter"/>
    </g>
    <g id="line2d_34">
     <path d="M 52.78125 35.416562 
L 62.78125 35.416562 
L 72.78125 35.416562 
" style="fill: none; stroke: #1f77b4; stroke-width: 1.5; stroke-linecap: square"/>
    </g>
    <g id="text_19">
     <!-- train_accuracy -->
     <g transform="translate(80.78125 38.916562) scale(0.1 -0.1)">
      <defs>
       <path id="DejaVuSans-74" d="M 1172 4494 
L 1172 3500 
L 2356 3500 
L 2356 3053 
L 1172 3053 
L 1172 1153 
Q 1172 725 1289 603 
Q 1406 481 1766 481 
L 2356 481 
L 2356 0 
L 1766 0 
Q 1100 0 847 248 
Q 594 497 594 1153 
L 594 3053 
L 172 3053 
L 172 3500 
L 594 3500 
L 594 4494 
L 1172 4494 
z
" transform="scale(0.015625)"/>
       <path id="DejaVuSans-5f" d="M 3263 -1063 
L 3263 -1509 
L -63 -1509 
L -63 -1063 
L 3263 -1063 
z
" transform="scale(0.015625)"/>
      </defs>
      <use xlink:href="#DejaVuSans-74"/>
      <use xlink:href="#DejaVuSans-72" transform="translate(39.208984 0)"/>
      <use xlink:href="#DejaVuSans-61" transform="translate(80.322266 0)"/>
      <use xlink:href="#DejaVuSans-69" transform="translate(141.601562 0)"/>
      <use xlink:href="#DejaVuSans-6e" transform="translate(169.384766 0)"/>
      <use xlink:href="#DejaVuSans-5f" transform="translate(232.763672 0)"/>
      <use xlink:href="#DejaVuSans-61" transform="translate(282.763672 0)"/>
      <use xlink:href="#DejaVuSans-63" transform="translate(344.042969 0)"/>
      <use xlink:href="#DejaVuSans-63" transform="translate(399.023438 0)"/>
      <use xlink:href="#DejaVuSans-75" transform="translate(454.003906 0)"/>
      <use xlink:href="#DejaVuSans-72" transform="translate(517.382812 0)"/>
      <use xlink:href="#DejaVuSans-61" transform="translate(558.496094 0)"/>
      <use xlink:href="#DejaVuSans-63" transform="translate(619.775391 0)"/>
      <use xlink:href="#DejaVuSans-79" transform="translate(674.755859 0)"/>
     </g>
    </g>
    <g id="line2d_35">
     <path d="M 52.78125 50.372812 
L 62.78125 50.372812 
L 72.78125 50.372812 
" style="fill: none; stroke: #ff7f0e; stroke-width: 1.5; stroke-linecap: square"/>
    </g>
    <g id="text_20">
     <!-- val_accuracy -->
     <g transform="translate(80.78125 53.872812) scale(0.1 -0.1)">
      <defs>
       <path id="DejaVuSans-76" d="M 191 3500 
L 800 3500 
L 1894 563 
L 2988 3500 
L 3597 3500 
L 2284 0 
L 1503 0 
L 191 3500 
z
" transform="scale(0.015625)"/>
      </defs>
      <use xlink:href="#DejaVuSans-76"/>
      <use xlink:href="#DejaVuSans-61" transform="translate(59.179688 0)"/>
      <use xlink:href="#DejaVuSans-6c" transform="translate(120.458984 0)"/>
      <use xlink:href="#DejaVuSans-5f" transform="translate(148.242188 0)"/>
      <use xlink:href="#DejaVuSans-61" transform="translate(198.242188 0)"/>
      <use xlink:href="#DejaVuSans-63" transform="translate(259.521484 0)"/>
      <use xlink:href="#DejaVuSans-63" transform="translate(314.501953 0)"/>
      <use xlink:href="#DejaVuSans-75" transform="translate(369.482422 0)"/>
      <use xlink:href="#DejaVuSans-72" transform="translate(432.861328 0)"/>
      <use xlink:href="#DejaVuSans-61" transform="translate(473.974609 0)"/>
      <use xlink:href="#DejaVuSans-63" transform="translate(535.253906 0)"/>
      <use xlink:href="#DejaVuSans-79" transform="translate(590.234375 0)"/>
     </g>
    </g>
    <g id="line2d_36">
     <path d="M 52.78125 65.329062 
L 62.78125 65.329062 
L 72.78125 65.329062 
" style="fill: none; stroke-dasharray: 11.1,4.8; stroke-dashoffset: 0; stroke: #ff0000; stroke-width: 3"/>
    </g>
    <g id="text_21">
     <!-- Random-Guesser Accuracy -->
     <g transform="translate(80.78125 68.829062) scale(0.1 -0.1)">
      <defs>
       <path id="DejaVuSans-52" d="M 2841 2188 
Q 3044 2119 3236 1894 
Q 3428 1669 3622 1275 
L 4263 0 
L 3584 0 
L 2988 1197 
Q 2756 1666 2539 1819 
Q 2322 1972 1947 1972 
L 1259 1972 
L 1259 0 
L 628 0 
L 628 4666 
L 2053 4666 
Q 2853 4666 3247 4331 
Q 3641 3997 3641 3322 
Q 3641 2881 3436 2590 
Q 3231 2300 2841 2188 
z
M 1259 4147 
L 1259 2491 
L 2053 2491 
Q 2509 2491 2742 2702 
Q 2975 2913 2975 3322 
Q 2975 3731 2742 3939 
Q 2509 4147 2053 4147 
L 1259 4147 
z
" transform="scale(0.015625)"/>
       <path id="DejaVuSans-6d" d="M 3328 2828 
Q 3544 3216 3844 3400 
Q 4144 3584 4550 3584 
Q 5097 3584 5394 3201 
Q 5691 2819 5691 2113 
L 5691 0 
L 5113 0 
L 5113 2094 
Q 5113 2597 4934 2840 
Q 4756 3084 4391 3084 
Q 3944 3084 3684 2787 
Q 3425 2491 3425 1978 
L 3425 0 
L 2847 0 
L 2847 2094 
Q 2847 2600 2669 2842 
Q 2491 3084 2119 3084 
Q 1678 3084 1418 2786 
Q 1159 2488 1159 1978 
L 1159 0 
L 581 0 
L 581 3500 
L 1159 3500 
L 1159 2956 
Q 1356 3278 1631 3431 
Q 1906 3584 2284 3584 
Q 2666 3584 2933 3390 
Q 3200 3197 3328 2828 
z
" transform="scale(0.015625)"/>
       <path id="DejaVuSans-2d" d="M 313 2009 
L 1997 2009 
L 1997 1497 
L 313 1497 
L 313 2009 
z
" transform="scale(0.015625)"/>
       <path id="DejaVuSans-47" d="M 3809 666 
L 3809 1919 
L 2778 1919 
L 2778 2438 
L 4434 2438 
L 4434 434 
Q 4069 175 3628 42 
Q 3188 -91 2688 -91 
Q 1594 -91 976 548 
Q 359 1188 359 2328 
Q 359 3472 976 4111 
Q 1594 4750 2688 4750 
Q 3144 4750 3555 4637 
Q 3966 4525 4313 4306 
L 4313 3634 
Q 3963 3931 3569 4081 
Q 3175 4231 2741 4231 
Q 1884 4231 1454 3753 
Q 1025 3275 1025 2328 
Q 1025 1384 1454 906 
Q 1884 428 2741 428 
Q 3075 428 3337 486 
Q 3600 544 3809 666 
z
" transform="scale(0.015625)"/>
       <path id="DejaVuSans-65" d="M 3597 1894 
L 3597 1613 
L 953 1613 
Q 991 1019 1311 708 
Q 1631 397 2203 397 
Q 2534 397 2845 478 
Q 3156 559 3463 722 
L 3463 178 
Q 3153 47 2828 -22 
Q 2503 -91 2169 -91 
Q 1331 -91 842 396 
Q 353 884 353 1716 
Q 353 2575 817 3079 
Q 1281 3584 2069 3584 
Q 2775 3584 3186 3129 
Q 3597 2675 3597 1894 
z
M 3022 2063 
Q 3016 2534 2758 2815 
Q 2500 3097 2075 3097 
Q 1594 3097 1305 2825 
Q 1016 2553 972 2059 
L 3022 2063 
z
" transform="scale(0.015625)"/>
      </defs>
      <use xlink:href="#DejaVuSans-52"/>
      <use xlink:href="#DejaVuSans-61" transform="translate(67.232422 0)"/>
      <use xlink:href="#DejaVuSans-6e" transform="translate(128.511719 0)"/>
      <use xlink:href="#DejaVuSans-64" transform="translate(191.890625 0)"/>
      <use xlink:href="#DejaVuSans-6f" transform="translate(255.367188 0)"/>
      <use xlink:href="#DejaVuSans-6d" transform="translate(316.548828 0)"/>
      <use xlink:href="#DejaVuSans-2d" transform="translate(413.960938 0)"/>
      <use xlink:href="#DejaVuSans-47" transform="translate(453.669922 0)"/>
      <use xlink:href="#DejaVuSans-75" transform="translate(531.160156 0)"/>
      <use xlink:href="#DejaVuSans-65" transform="translate(594.539062 0)"/>
      <use xlink:href="#DejaVuSans-73" transform="translate(656.0625 0)"/>
      <use xlink:href="#DejaVuSans-73" transform="translate(708.162109 0)"/>
      <use xlink:href="#DejaVuSans-65" transform="translate(760.261719 0)"/>
      <use xlink:href="#DejaVuSans-72" transform="translate(821.785156 0)"/>
      <use xlink:href="#DejaVuSans-20" transform="translate(862.898438 0)"/>
      <use xlink:href="#DejaVuSans-41" transform="translate(894.685547 0)"/>
      <use xlink:href="#DejaVuSans-63" transform="translate(961.34375 0)"/>
      <use xlink:href="#DejaVuSans-63" transform="translate(1016.324219 0)"/>
      <use xlink:href="#DejaVuSans-75" transform="translate(1071.304688 0)"/>
      <use xlink:href="#DejaVuSans-72" transform="translate(1134.683594 0)"/>
      <use xlink:href="#DejaVuSans-61" transform="translate(1175.796875 0)"/>
      <use xlink:href="#DejaVuSans-63" transform="translate(1237.076172 0)"/>
      <use xlink:href="#DejaVuSans-79" transform="translate(1292.056641 0)"/>
     </g>
    </g>
   </g>
  </g>
 </g>
 <defs>
  <clipPath id="p07aead9f52">
   <rect x="43.78125" y="22.318125" width="558" height="554.4"/>
  </clipPath>
 </defs>
</svg>
