<?xml version="1.0" encoding="utf-8" standalone="no"?>
<!DOCTYPE svg PUBLIC "-//W3C//DTD SVG 1.1//EN"
  "http://www.w3.org/Graphics/SVG/1.1/DTD/svg11.dtd">
<svg xmlns:xlink="http://www.w3.org/1999/xlink" width="608.98125pt" height="614.274375pt" viewBox="0 0 608.98125 614.274375" xmlns="http://www.w3.org/2000/svg" version="1.1">
 <metadata>
  <rdf:RDF xmlns:dc="http://purl.org/dc/elements/1.1/" xmlns:cc="http://creativecommons.org/ns#" xmlns:rdf="http://www.w3.org/1999/02/22-rdf-syntax-ns#">
   <cc:Work>
    <dc:type rdf:resource="http://purl.org/dc/dcmitype/StillImage"/>
    <dc:date>2026-05-22T00:23:37.967555</dc:date>
    <dc:format>image/svg+xml</dc:format>
    <dc:creator>
     <cc:Agent>
      <dc:title>Matplotlib v3.10.9, https://matplotlib.org/</dc:title>
     </cc:Agent>
    </dc:creator>
   </cc:Work>
  </rdf:RDF>
 </metadata>
 <defs>
  <style type="text/css">*{stroke-linejoin: round; stroke-linecap: butt}</style>
 </defs>
 <g id="figure_1">
  <g id="patch_1">
   <path d="M 0 614.274375 
L 608.98125 614.274375 
L 608.98125 0 
L 0 0 
z
" style="fill: #ffffff"/>
  </g>
  <g id="axes_1">
   <g id="patch_2">
    <path d="M 43.78125 576.718125 
L 601.78125 576.718125 
L 601.78125 22.318125 
L 43.78125 22.318125 
z
" style="fill: #ffffff"/>
   </g>
   <g id="matplotlib.axis_1">
    <g id="xtick_1">
     <g id="line2d_1">
      <path d="M 69.144886 576.718125 
L 69.144886 22.318125 
" clip-path="url(#p41f0db97df)" style="fill: none; stroke: #b0b0b0; stroke-width: 0.8; stroke-linecap: square"/>
     </g>
     <g id="line2d_2">
      <defs>
       <path id="m2963645391" d="M 0 0 
L 0 3.5 
" style="stroke: #000000; stroke-width: 0.8"/>
      </defs>
      <g>
       <use xlink:href="#m2963645391" x="69.144886" y="576.718125" style="stroke: #000000; stroke-width: 0.8"/>
      </g>
     </g>
     <g id="text_1">
      <!-- 0 -->
      <g transform="translate(65.963636 591.316563) scale(0.1 -0.1)">
       <defs>
        <path id="DejaVuSans-30" d="M 2034 4250 
Q 1547 4250 1301 3770 
Q 1056 3291 1056 2328 
Q 1056 1369 1301 889 
Q 1547 409 2034 409 
Q 2525 409 2770 889 
Q 3016 1369 3016 2328 
Q 3016 3291 2770 3770 
Q 2525 4250 2034 4250 
z
M 2034 4750 
Q 2819 4750 3233 4129 
Q 3647 3509 3647 2328 
Q 3647 1150 3233 529 
Q 2819 -91 2034 -91 
Q 1250 -91 836 529 
Q 422 1150 422 2328 
Q 422 3509 836 4129 
Q 1250 4750 2034 4750 
z
" transform="scale(0.015625)"/>
       </defs>
       <use xlink:href="#DejaVuSans-30"/>
      </g>
     </g>
    </g>
    <g id="xtick_2">
     <g id="line2d_3">
      <path d="M 132.633338 576.718125 
L 132.633338 22.318125 
" clip-path="url(#p41f0db97df)" style="fill: none; stroke: #b0b0b0; stroke-width: 0.8; stroke-linecap: square"/>
     </g>
     <g id="line2d_4">
      <g>
       <use xlink:href="#m2963645391" x="132.633338" y="576.718125" style="stroke: #000000; stroke-width: 0.8"/>
      </g>
     </g>
     <g id="text_2">
      <!-- 100 -->
      <g transform="translate(123.089588 591.316563) scale(0.1 -0.1)">
       <defs>
        <path id="DejaVuSans-31" d="M 794 531 
L 1825 531 
L 1825 4091 
L 703 3866 
L 703 4441 
L 1819 4666 
L 2450 4666 
L 2450 531 
L 3481 531 
L 3481 0 
L 794 0 
L 794 531 
z
" transform="scale(0.015625)"/>
       </defs>
       <use xlink:href="#DejaVuSans-31"/>
       <use xlink:href="#DejaVuSans-30" transform="translate(63.623047 0)"/>
       <use xlink:href="#DejaVuSans-30" transform="translate(127.246094 0)"/>
      </g>
     </g>
    </g>
    <g id="xtick_3">
     <g id="line2d_5">
      <path d="M 196.121789 576.718125 
L 196.121789 22.318125 
" clip-path="url(#p41f0db97df)" style="fill: none; stroke: #b0b0b0; stroke-width: 0.8; stroke-linecap: square"/>
     </g>
     <g id="line2d_6">
      <g>
       <use xlink:href="#m2963645391" x="196.121789" y="576.718125" style="stroke: #000000; stroke-width: 0.8"/>
      </g>
     </g>
     <g id="text_3">
      <!-- 200 -->
      <g transform="translate(186.578039 591.316563) scale(0.1 -0.1)">
       <defs>
        <path id="DejaVuSans-32" d="M 1228 531 
L 3431 531 
L 3431 0 
L 469 0 
L 469 531 
Q 828 903 1448 1529 
Q 2069 2156 2228 2338 
Q 2531 2678 2651 2914 
Q 2772 3150 2772 3378 
Q 2772 3750 2511 3984 
Q 2250 4219 1831 4219 
Q 1534 4219 1204 4116 
Q 875 4013 500 3803 
L 500 4441 
Q 881 4594 1212 4672 
Q 1544 4750 1819 4750 
Q 2544 4750 2975 4387 
Q 3406 4025 3406 3419 
Q 3406 3131 3298 2873 
Q 3191 2616 2906 2266 
Q 2828 2175 2409 1742 
Q 1991 1309 1228 531 
z
" transform="scale(0.015625)"/>
       </defs>
       <use xlink:href="#DejaVuSans-32"/>
       <use xlink:href="#DejaVuSans-30" transform="translate(63.623047 0)"/>
       <use xlink:href="#DejaVuSans-30" transform="translate(127.246094 0)"/>
      </g>
     </g>
    </g>
    <g id="xtick_4">
     <g id="line2d_7">
      <path d="M 259.610241 576.718125 
L 259.610241 22.318125 
" clip-path="url(#p41f0db97df)" style="fill: none; stroke: #b0b0b0; stroke-width: 0.8; stroke-linecap: square"/>
     </g>
     <g id="line2d_8">
      <g>
       <use xlink:href="#m2963645391" x="259.610241" y="576.718125" style="stroke: #000000; stroke-width: 0.8"/>
      </g>
     </g>
     <g id="text_4">
      <!-- 300 -->
      <g transform="translate(250.066491 591.316563) scale(0.1 -0.1)">
       <defs>
        <path id="DejaVuSans-33" d="M 2597 2516 
Q 3050 2419 3304 2112 
Q 3559 1806 3559 1356 
Q 3559 666 3084 287 
Q 2609 -91 1734 -91 
Q 1441 -91 1130 -33 
Q 819 25 488 141 
L 488 750 
Q 750 597 1062 519 
Q 1375 441 1716 441 
Q 2309 441 2620 675 
Q 2931 909 2931 1356 
Q 2931 1769 2642 2001 
Q 2353 2234 1838 2234 
L 1294 2234 
L 1294 2753 
L 1863 2753 
Q 2328 2753 2575 2939 
Q 2822 3125 2822 3475 
Q 2822 3834 2567 4026 
Q 2313 4219 1838 4219 
Q 1578 4219 1281 4162 
Q 984 4106 628 3988 
L 628 4550 
Q 988 4650 1302 4700 
Q 1616 4750 1894 4750 
Q 2613 4750 3031 4423 
Q 3450 4097 3450 3541 
Q 3450 3153 3228 2886 
Q 3006 2619 2597 2516 
z
" transform="scale(0.015625)"/>
       </defs>
       <use xlink:href="#DejaVuSans-33"/>
       <use xlink:href="#DejaVuSans-30" transform="translate(63.623047 0)"/>
       <use xlink:href="#DejaVuSans-30" transform="translate(127.246094 0)"/>
      </g>
     </g>
    </g>
    <g id="xtick_5">
     <g id="line2d_9">
      <path d="M 323.098692 576.718125 
L 323.098692 22.318125 
" clip-path="url(#p41f0db97df)" style="fill: none; stroke: #b0b0b0; stroke-width: 0.8; stroke-linecap: square"/>
     </g>
     <g id="line2d_10">
      <g>
       <use xlink:href="#m2963645391" x="323.098692" y="576.718125" style="stroke: #000000; stroke-width: 0.8"/>
      </g>
     </g>
     <g id="text_5">
      <!-- 400 -->
      <g transform="translate(313.554942 591.316563) scale(0.1 -0.1)">
       <defs>
        <path id="DejaVuSans-34" d="M 2419 4116 
L 825 1625 
L 2419 1625 
L 2419 4116 
z
M 2253 4666 
L 3047 4666 
L 3047 1625 
L 3713 1625 
L 3713 1100 
L 3047 1100 
L 3047 0 
L 2419 0 
L 2419 1100 
L 313 1100 
L 313 1709 
L 2253 4666 
z
" transform="scale(0.015625)"/>
       </defs>
       <use xlink:href="#DejaVuSans-34"/>
       <use xlink:href="#DejaVuSans-30" transform="translate(63.623047 0)"/>
       <use xlink:href="#DejaVuSans-30" transform="translate(127.246094 0)"/>
      </g>
     </g>
    </g>
    <g id="xtick_6">
     <g id="line2d_11">
      <path d="M 386.587144 576.718125 
L 386.587144 22.318125 
" clip-path="url(#p41f0db97df)" style="fill: none; stroke: #b0b0b0; stroke-width: 0.8; stroke-linecap: square"/>
     </g>
     <g id="line2d_12">
      <g>
       <use xlink:href="#m2963645391" x="386.587144" y="576.718125" style="stroke: #000000; stroke-width: 0.8"/>
      </g>
     </g>
     <g id="text_6">
      <!-- 500 -->
      <g transform="translate(377.043394 591.316563) scale(0.1 -0.1)">
       <defs>
        <path id="DejaVuSans-35" d="M 691 4666 
L 3169 4666 
L 3169 4134 
L 1269 4134 
L 1269 2991 
Q 1406 3038 1543 3061 
Q 1681 3084 1819 3084 
Q 2600 3084 3056 2656 
Q 3513 2228 3513 1497 
Q 3513 744 3044 326 
Q 2575 -91 1722 -91 
Q 1428 -91 1123 -41 
Q 819 9 494 109 
L 494 744 
Q 775 591 1075 516 
Q 1375 441 1709 441 
Q 2250 441 2565 725 
Q 2881 1009 2881 1497 
Q 2881 1984 2565 2268 
Q 2250 2553 1709 2553 
Q 1456 2553 1204 2497 
Q 953 2441 691 2322 
L 691 4666 
z
" transform="scale(0.015625)"/>
       </defs>
       <use xlink:href="#DejaVuSans-35"/>
       <use xlink:href="#DejaVuSans-30" transform="translate(63.623047 0)"/>
       <use xlink:href="#DejaVuSans-30" transform="translate(127.246094 0)"/>
      </g>
     </g>
    </g>
    <g id="xtick_7">
     <g id="line2d_13">
      <path d="M 450.075595 576.718125 
L 450.075595 22.318125 
" clip-path="url(#p41f0db97df)" style="fill: none; stroke: #b0b0b0; stroke-width: 0.8; stroke-linecap: square"/>
     </g>
     <g id="line2d_14">
      <g>
       <use xlink:href="#m2963645391" x="450.075595" y="576.718125" style="stroke: #000000; stroke-width: 0.8"/>
      </g>
     </g>
     <g id="text_7">
      <!-- 600 -->
      <g transform="translate(440.531845 591.316563) scale(0.1 -0.1)">
       <defs>
        <path id="DejaVuSans-36" d="M 2113 2584 
Q 1688 2584 1439 2293 
Q 1191 2003 1191 1497 
Q 1191 994 1439 701 
Q 1688 409 2113 409 
Q 2538 409 2786 701 
Q 3034 994 3034 1497 
Q 3034 2003 2786 2293 
Q 2538 2584 2113 2584 
z
M 3366 4563 
L 3366 3988 
Q 3128 4100 2886 4159 
Q 2644 4219 2406 4219 
Q 1781 4219 1451 3797 
Q 1122 3375 1075 2522 
Q 1259 2794 1537 2939 
Q 1816 3084 2150 3084 
Q 2853 3084 3261 2657 
Q 3669 2231 3669 1497 
Q 3669 778 3244 343 
Q 2819 -91 2113 -91 
Q 1303 -91 875 529 
Q 447 1150 447 2328 
Q 447 3434 972 4092 
Q 1497 4750 2381 4750 
Q 2619 4750 2861 4703 
Q 3103 4656 3366 4563 
z
" transform="scale(0.015625)"/>
       </defs>
       <use xlink:href="#DejaVuSans-36"/>
       <use xlink:href="#DejaVuSans-30" transform="translate(63.623047 0)"/>
       <use xlink:href="#DejaVuSans-30" transform="translate(127.246094 0)"/>
      </g>
     </g>
    </g>
    <g id="xtick_8">
     <g id="line2d_15">
      <path d="M 513.564047 576.718125 
L 513.564047 22.318125 
" clip-path="url(#p41f0db97df)" style="fill: none; stroke: #b0b0b0; stroke-width: 0.8; stroke-linecap: square"/>
     </g>
     <g id="line2d_16">
      <g>
       <use xlink:href="#m2963645391" x="513.564047" y="576.718125" style="stroke: #000000; stroke-width: 0.8"/>
      </g>
     </g>
     <g id="text_8">
      <!-- 700 -->
      <g transform="translate(504.020297 591.316563) scale(0.1 -0.1)">
       <defs>
        <path id="DejaVuSans-37" d="M 525 4666 
L 3525 4666 
L 3525 4397 
L 1831 0 
L 1172 0 
L 2766 4134 
L 525 4134 
L 525 4666 
z
" transform="scale(0.015625)"/>
       </defs>
       <use xlink:href="#DejaVuSans-37"/>
       <use xlink:href="#DejaVuSans-30" transform="translate(63.623047 0)"/>
       <use xlink:href="#DejaVuSans-30" transform="translate(127.246094 0)"/>
      </g>
     </g>
    </g>
    <g id="xtick_9">
     <g id="line2d_17">
      <path d="M 577.052498 576.718125 
L 577.052498 22.318125 
" clip-path="url(#p41f0db97df)" style="fill: none; stroke: #b0b0b0; stroke-width: 0.8; stroke-linecap: square"/>
     </g>
     <g id="line2d_18">
      <g>
       <use xlink:href="#m2963645391" x="577.052498" y="576.718125" style="stroke: #000000; stroke-width: 0.8"/>
      </g>
     </g>
     <g id="text_9">
      <!-- 800 -->
      <g transform="translate(567.508748 591.316563) scale(0.1 -0.1)">
       <defs>
        <path id="DejaVuSans-38" d="M 2034 2216 
Q 1584 2216 1326 1975 
Q 1069 1734 1069 1313 
Q 1069 891 1326 650 
Q 1584 409 2034 409 
Q 2484 409 2743 651 
Q 3003 894 3003 1313 
Q 3003 1734 2745 1975 
Q 2488 2216 2034 2216 
z
M 1403 2484 
Q 997 2584 770 2862 
Q 544 3141 544 3541 
Q 544 4100 942 4425 
Q 1341 4750 2034 4750 
Q 2731 4750 3128 4425 
Q 3525 4100 3525 3541 
Q 3525 3141 3298 2862 
Q 3072 2584 2669 2484 
Q 3125 2378 3379 2068 
Q 3634 1759 3634 1313 
Q 3634 634 3220 271 
Q 2806 -91 2034 -91 
Q 1263 -91 848 271 
Q 434 634 434 1313 
Q 434 1759 690 2068 
Q 947 2378 1403 2484 
z
M 1172 3481 
Q 1172 3119 1398 2916 
Q 1625 2713 2034 2713 
Q 2441 2713 2670 2916 
Q 2900 3119 2900 3481 
Q 2900 3844 2670 4047 
Q 2441 4250 2034 4250 
Q 1625 4250 1398 4047 
Q 1172 3844 1172 3481 
z
" transform="scale(0.015625)"/>
       </defs>
       <use xlink:href="#DejaVuSans-38"/>
       <use xlink:href="#DejaVuSans-30" transform="translate(63.623047 0)"/>
       <use xlink:href="#DejaVuSans-30" transform="translate(127.246094 0)"/>
      </g>
     </g>
    </g>
    <g id="text_10">
     <!-- Epochs -->
     <g transform="translate(304.865625 604.994688) scale(0.1 -0.1)">
      <defs>
       <path id="DejaVuSans-45" d="M 628 4666 
L 3578 4666 
L 3578 4134 
L 1259 4134 
L 1259 2753 
L 3481 2753 
L 3481 2222 
L 1259 2222 
L 1259 531 
L 3634 531 
L 3634 0 
L 628 0 
L 628 4666 
z
" transform="scale(0.015625)"/>
       <path id="DejaVuSans-70" d="M 1159 525 
L 1159 -1331 
L 581 -1331 
L 581 3500 
L 1159 3500 
L 1159 2969 
Q 1341 3281 1617 3432 
Q 1894 3584 2278 3584 
Q 2916 3584 3314 3078 
Q 3713 2572 3713 1747 
Q 3713 922 3314 415 
Q 2916 -91 2278 -91 
Q 1894 -91 1617 61 
Q 1341 213 1159 525 
z
M 3116 1747 
Q 3116 2381 2855 2742 
Q 2594 3103 2138 3103 
Q 1681 3103 1420 2742 
Q 1159 2381 1159 1747 
Q 1159 1113 1420 752 
Q 1681 391 2138 391 
Q 2594 391 2855 752 
Q 3116 1113 3116 1747 
z
" transform="scale(0.015625)"/>
       <path id="DejaVuSans-6f" d="M 1959 3097 
Q 1497 3097 1228 2736 
Q 959 2375 959 1747 
Q 959 1119 1226 758 
Q 1494 397 1959 397 
Q 2419 397 2687 759 
Q 2956 1122 2956 1747 
Q 2956 2369 2687 2733 
Q 2419 3097 1959 3097 
z
M 1959 3584 
Q 2709 3584 3137 3096 
Q 3566 2609 3566 1747 
Q 3566 888 3137 398 
Q 2709 -91 1959 -91 
Q 1206 -91 779 398 
Q 353 888 353 1747 
Q 353 2609 779 3096 
Q 1206 3584 1959 3584 
z
" transform="scale(0.015625)"/>
       <path id="DejaVuSans-63" d="M 3122 3366 
L 3122 2828 
Q 2878 2963 2633 3030 
Q 2388 3097 2138 3097 
Q 1578 3097 1268 2742 
Q 959 2388 959 1747 
Q 959 1106 1268 751 
Q 1578 397 2138 397 
Q 2388 397 2633 464 
Q 2878 531 3122 666 
L 3122 134 
Q 2881 22 2623 -34 
Q 2366 -91 2075 -91 
Q 1284 -91 818 406 
Q 353 903 353 1747 
Q 353 2603 823 3093 
Q 1294 3584 2113 3584 
Q 2378 3584 2631 3529 
Q 2884 3475 3122 3366 
z
" transform="scale(0.015625)"/>
       <path id="DejaVuSans-68" d="M 3513 2113 
L 3513 0 
L 2938 0 
L 2938 2094 
Q 2938 2591 2744 2837 
Q 2550 3084 2163 3084 
Q 1697 3084 1428 2787 
Q 1159 2491 1159 1978 
L 1159 0 
L 581 0 
L 581 4863 
L 1159 4863 
L 1159 2956 
Q 1366 3272 1645 3428 
Q 1925 3584 2291 3584 
Q 2894 3584 3203 3211 
Q 3513 2838 3513 2113 
z
" transform="scale(0.015625)"/>
       <path id="DejaVuSans-73" d="M 2834 3397 
L 2834 2853 
Q 2591 2978 2328 3040 
Q 2066 3103 1784 3103 
Q 1356 3103 1142 2972 
Q 928 2841 928 2578 
Q 928 2378 1081 2264 
Q 1234 2150 1697 2047 
L 1894 2003 
Q 2506 1872 2764 1633 
Q 3022 1394 3022 966 
Q 3022 478 2636 193 
Q 2250 -91 1575 -91 
Q 1294 -91 989 -36 
Q 684 19 347 128 
L 347 722 
Q 666 556 975 473 
Q 1284 391 1588 391 
Q 1994 391 2212 530 
Q 2431 669 2431 922 
Q 2431 1156 2273 1281 
Q 2116 1406 1581 1522 
L 1381 1569 
Q 847 1681 609 1914 
Q 372 2147 372 2553 
Q 372 3047 722 3315 
Q 1072 3584 1716 3584 
Q 2034 3584 2315 3537 
Q 2597 3491 2834 3397 
z
" transform="scale(0.015625)"/>
      </defs>
      <use xlink:href="#DejaVuSans-45"/>
      <use xlink:href="#DejaVuSans-70" transform="translate(63.183594 0)"/>
      <use xlink:href="#DejaVuSans-6f" transform="translate(126.660156 0)"/>
      <use xlink:href="#DejaVuSans-63" transform="translate(187.841797 0)"/>
      <use xlink:href="#DejaVuSans-68" transform="translate(242.822266 0)"/>
      <use xlink:href="#DejaVuSans-73" transform="translate(306.201172 0)"/>
     </g>
    </g>
   </g>
   <g id="matplotlib.axis_2">
    <g id="ytick_1">
     <g id="line2d_19">
      <path d="M 43.78125 567.413515 
L 601.78125 567.413515 
" clip-path="url(#p41f0db97df)" style="fill: none; stroke: #b0b0b0; stroke-width: 0.8; stroke-linecap: square"/>
     </g>
     <g id="line2d_20">
      <defs>
       <path id="mb9594475ff" d="M 0 0 
L -3.5 0 
" style="stroke: #000000; stroke-width: 0.8"/>
      </defs>
      <g>
       <use xlink:href="#mb9594475ff" x="43.78125" y="567.413515" style="stroke: #000000; stroke-width: 0.8"/>
      </g>
     </g>
     <g id="text_11">
      <!-- 5.1 -->
      <g transform="translate(20.878125 571.212734) scale(0.1 -0.1)">
       <defs>
        <path id="DejaVuSans-2e" d="M 684 794 
L 1344 794 
L 1344 0 
L 684 0 
L 684 794 
z
" transform="scale(0.015625)"/>
       </defs>
       <use xlink:href="#DejaVuSans-35"/>
       <use xlink:href="#DejaVuSans-2e" transform="translate(63.623047 0)"/>
       <use xlink:href="#DejaVuSans-31" transform="translate(95.410156 0)"/>
      </g>
     </g>
    </g>
    <g id="ytick_2">
     <g id="line2d_21">
      <path d="M 43.78125 453.571302 
L 601.78125 453.571302 
" clip-path="url(#p41f0db97df)" style="fill: none; stroke: #b0b0b0; stroke-width: 0.8; stroke-linecap: square"/>
     </g>
     <g id="line2d_22">
      <g>
       <use xlink:href="#mb9594475ff" x="43.78125" y="453.571302" style="stroke: #000000; stroke-width: 0.8"/>
      </g>
     </g>
     <g id="text_12">
      <!-- 5.2 -->
      <g transform="translate(20.878125 457.370521) scale(0.1 -0.1)">
       <use xlink:href="#DejaVuSans-35"/>
       <use xlink:href="#DejaVuSans-2e" transform="translate(63.623047 0)"/>
       <use xlink:href="#DejaVuSans-32" transform="translate(95.410156 0)"/>
      </g>
     </g>
    </g>
    <g id="ytick_3">
     <g id="line2d_23">
      <path d="M 43.78125 339.72909 
L 601.78125 339.72909 
" clip-path="url(#p41f0db97df)" style="fill: none; stroke: #b0b0b0; stroke-width: 0.8; stroke-linecap: square"/>
     </g>
     <g id="line2d_24">
      <g>
       <use xlink:href="#mb9594475ff" x="43.78125" y="339.72909" style="stroke: #000000; stroke-width: 0.8"/>
      </g>
     </g>
     <g id="text_13">
      <!-- 5.3 -->
      <g transform="translate(20.878125 343.528309) scale(0.1 -0.1)">
       <use xlink:href="#DejaVuSans-35"/>
       <use xlink:href="#DejaVuSans-2e" transform="translate(63.623047 0)"/>
       <use xlink:href="#DejaVuSans-33" transform="translate(95.410156 0)"/>
      </g>
     </g>
    </g>
    <g id="ytick_4">
     <g id="line2d_25">
      <path d="M 43.78125 225.886877 
L 601.78125 225.886877 
" clip-path="url(#p41f0db97df)" style="fill: none; stroke: #b0b0b0; stroke-width: 0.8; stroke-linecap: square"/>
     </g>
     <g id="line2d_26">
      <g>
       <use xlink:href="#mb9594475ff" x="43.78125" y="225.886877" style="stroke: #000000; stroke-width: 0.8"/>
      </g>
     </g>
     <g id="text_14">
      <!-- 5.4 -->
      <g transform="translate(20.878125 229.686096) scale(0.1 -0.1)">
       <use xlink:href="#DejaVuSans-35"/>
       <use xlink:href="#DejaVuSans-2e" transform="translate(63.623047 0)"/>
       <use xlink:href="#DejaVuSans-34" transform="translate(95.410156 0)"/>
      </g>
     </g>
    </g>
    <g id="ytick_5">
     <g id="line2d_27">
      <path d="M 43.78125 112.044664 
L 601.78125 112.044664 
" clip-path="url(#p41f0db97df)" style="fill: none; stroke: #b0b0b0; stroke-width: 0.8; stroke-linecap: square"/>
     </g>
     <g id="line2d_28">
      <g>
       <use xlink:href="#mb9594475ff" x="43.78125" y="112.044664" style="stroke: #000000; stroke-width: 0.8"/>
      </g>
     </g>
     <g id="text_15">
      <!-- 5.5 -->
      <g transform="translate(20.878125 115.843883) scale(0.1 -0.1)">
       <use xlink:href="#DejaVuSans-35"/>
       <use xlink:href="#DejaVuSans-2e" transform="translate(63.623047 0)"/>
       <use xlink:href="#DejaVuSans-35" transform="translate(95.410156 0)"/>
      </g>
     </g>
    </g>
    <g id="text_16">
     <!-- Loss -->
     <g transform="translate(14.798438 310.485313) rotate(-90) scale(0.1 -0.1)">
      <defs>
       <path id="DejaVuSans-4c" d="M 628 4666 
L 1259 4666 
L 1259 531 
L 3531 531 
L 3531 0 
L 628 0 
L 628 4666 
z
" transform="scale(0.015625)"/>
      </defs>
      <use xlink:href="#DejaVuSans-4c"/>
      <use xlink:href="#DejaVuSans-6f" transform="translate(53.962891 0)"/>
      <use xlink:href="#DejaVuSans-73" transform="translate(115.144531 0)"/>
      <use xlink:href="#DejaVuSans-73" transform="translate(167.244141 0)"/>
     </g>
    </g>
   </g>
   <g id="line2d_29">
    <path d="M 69.144886 47.518125 
L 69.779771 58.201798 
L 70.414655 59.327652 
L 71.04954 59.449792 
L 72.954193 60.31291 
L 73.589078 60.82101 
L 74.223962 62.600989 
L 74.858847 133.882111 
L 75.493732 219.483405 
L 76.128616 267.830539 
L 76.763501 298.982069 
L 77.398385 317.673203 
L 78.03327 332.738697 
L 79.937923 364.084021 
L 80.572808 371.321733 
L 81.207692 380.744383 
L 83.74723 403.067674 
L 86.286768 419.025599 
L 87.556537 425.392593 
L 88.191422 427.55419 
L 88.826306 430.655989 
L 89.461191 432.901183 
L 90.096075 435.939469 
L 90.73096 437.957213 
L 91.365844 440.403259 
L 92.000729 441.323376 
L 93.270498 445.170497 
L 93.905382 447.580716 
L 94.540267 447.864622 
L 95.175151 449.643515 
L 95.810036 452.293127 
L 96.44492 452.732829 
L 97.079805 453.597576 
L 97.71469 454.246272 
L 98.984459 457.3231 
L 99.619343 457.802973 
L 100.254228 458.448412 
L 100.889112 460.062824 
L 101.523997 460.981855 
L 102.158881 462.248848 
L 103.42865 463.976714 
L 104.063535 465.376704 
L 104.698419 465.665496 
L 105.968188 466.768551 
L 106.603073 467.840121 
L 107.237957 467.821121 
L 107.872842 469.970233 
L 108.507726 470.560302 
L 109.142611 470.826837 
L 109.777495 471.723069 
L 110.41238 472.188828 
L 111.047264 473.827668 
L 111.682149 474.393309 
L 112.317033 474.698386 
L 112.951918 475.731957 
L 113.586802 476.28457 
L 114.856571 479.023208 
L 115.491456 478.735502 
L 116.761225 481.196747 
L 117.396109 480.89547 
L 118.030994 482.422485 
L 118.665879 481.830787 
L 119.935648 484.30886 
L 120.570532 484.4386 
L 121.205417 486.247892 
L 122.475186 486.951415 
L 123.11007 488.166838 
L 123.744955 487.986615 
L 124.379839 488.993587 
L 125.014724 489.506572 
L 125.649608 489.601027 
L 127.554262 491.481431 
L 128.189146 492.97479 
L 128.824031 493.084444 
L 129.458915 494.721112 
L 130.0938 494.053417 
L 131.363569 494.564231 
L 131.998453 495.954992 
L 132.633338 495.755226 
L 133.268222 495.826339 
L 133.903107 496.929393 
L 134.537991 497.231756 
L 135.172876 498.062305 
L 135.80776 497.549862 
L 136.442645 498.826083 
L 137.077529 499.392268 
L 137.712414 499.286413 
L 138.347298 499.90091 
L 140.251952 500.702145 
L 140.886837 502.160762 
L 141.521721 502.414269 
L 142.156606 502.839857 
L 142.79149 503.603093 
L 143.426375 502.592864 
L 144.696144 504.509639 
L 145.331028 503.645434 
L 145.965913 505.219133 
L 146.600797 504.636664 
L 147.235682 505.086137 
L 147.870566 505.681635 
L 148.505451 506.533354 
L 150.410104 507.049596 
L 151.044989 506.757547 
L 151.679873 507.260762 
L 152.314758 508.098367 
L 152.949642 507.487127 
L 154.219411 508.461528 
L 154.854296 508.282933 
L 155.48918 508.781805 
L 156.124065 508.769863 
L 156.758949 509.554269 
L 157.393834 508.816004 
L 158.028718 509.391959 
L 158.663603 510.425531 
L 159.298487 510.133482 
L 160.568256 510.546042 
L 161.203141 511.249565 
L 161.838026 511.142082 
L 162.47291 511.542157 
L 163.107795 511.585041 
L 163.742679 511.959602 
L 164.377564 512.523072 
L 165.012448 512.043743 
L 165.647333 512.751608 
L 166.282217 512.852577 
L 166.917102 512.800464 
L 168.186871 513.173397 
L 168.821755 513.223881 
L 169.45664 513.918176 
L 170.091524 514.44039 
L 170.726409 514.715068 
L 171.361293 514.706382 
L 171.996178 514.894206 
L 172.631062 514.42139 
L 173.265947 515.116771 
L 174.535716 515.409906 
L 175.805485 515.492418 
L 176.440369 516.167713 
L 177.075254 515.44139 
L 177.710138 515.795323 
L 178.345023 516.365307 
L 178.979907 515.50436 
L 179.614792 516.102029 
L 180.249676 516.313195 
L 180.884561 517.268596 
L 182.789215 517.943892 
L 183.424099 517.981348 
L 184.693868 518.359166 
L 185.328753 518.360795 
L 185.963637 519.111002 
L 186.598522 518.714185 
L 187.233406 519.204371 
L 187.868291 519.219028 
L 188.503175 517.619272 
L 189.13806 519.440507 
L 189.772944 518.950321 
L 190.407829 519.895409 
L 191.042713 519.546904 
L 191.677598 519.572418 
L 192.312482 520.057176 
L 192.947367 520.29494 
L 193.582251 519.823754 
L 194.217136 520.000177 
L 194.85202 520.52782 
L 195.486905 520.517506 
L 196.756674 521.435451 
L 197.391558 521.158602 
L 198.026443 521.025606 
L 198.661327 521.118432 
L 199.296212 521.430023 
L 199.931096 521.417538 
L 200.565981 521.944637 
L 201.200865 521.696016 
L 201.83575 521.228629 
L 202.470634 522.310513 
L 203.740403 522.097176 
L 204.375288 522.992865 
L 205.010173 521.689502 
L 205.645057 523.060177 
L 206.279942 522.589533 
L 206.914826 522.455452 
L 207.549711 522.986351 
L 208.184595 523.351684 
L 208.81948 523.078091 
L 209.454364 523.984095 
L 210.089249 523.577506 
L 210.724133 524.233802 
L 211.359018 523.695303 
L 213.898556 524.475367 
L 214.53344 525.022008 
L 215.803209 524.486223 
L 216.438094 524.586106 
L 217.072978 524.446053 
L 217.707863 524.761444 
L 218.342747 525.467682 
L 218.977632 524.817357 
L 219.612516 524.783158 
L 220.247401 525.472024 
L 220.882285 525.252173 
L 221.51717 525.637048 
L 222.786939 525.392227 
L 224.056708 525.311886 
L 224.691592 526.329172 
L 226.596246 525.772759 
L 227.231131 526.075665 
L 227.866015 526.673876 
L 228.5009 525.960582 
L 229.135784 526.366085 
L 229.770669 526.978411 
L 230.405553 526.406798 
L 231.040438 526.657591 
L 231.675322 527.20369 
L 232.310207 526.993068 
L 232.945091 527.795388 
L 233.579976 527.346458 
L 234.21486 527.567394 
L 234.849745 526.881785 
L 235.484629 528.085808 
L 236.119514 527.544052 
L 236.754398 527.433312 
L 237.389283 528.282317 
L 238.659052 528.066266 
L 239.293936 528.467426 
L 239.928821 528.194377 
L 241.19859 528.706277 
L 241.833474 529.390801 
L 242.468359 528.071695 
L 243.103243 529.426085 
L 244.373012 528.391971 
L 245.007897 528.953813 
L 245.642781 528.939156 
L 246.277666 528.59608 
L 246.91255 529.420114 
L 247.547435 529.336516 
L 248.18232 529.498283 
L 248.817204 529.193206 
L 250.086973 529.902158 
L 250.721858 529.873387 
L 251.356742 530.074781 
L 251.991627 528.922328 
L 252.626511 529.955899 
L 254.531165 529.773504 
L 255.166049 530.095409 
L 255.800934 529.692078 
L 256.435818 530.067182 
L 257.070703 530.802733 
L 257.705587 530.542711 
L 258.975356 530.550854 
L 259.610241 530.734877 
L 260.245125 531.087725 
L 260.88001 530.670279 
L 261.514894 530.917815 
L 262.149779 531.91773 
L 262.784663 531.165351 
L 263.419548 530.602424 
L 264.054432 531.379231 
L 265.324201 531.209321 
L 265.959086 531.092067 
L 266.59397 531.362403 
L 267.228855 531.764648 
L 267.863739 531.608853 
L 269.133509 531.874845 
L 269.768393 531.564883 
L 270.403278 531.923158 
L 271.038162 531.947586 
L 272.307931 532.710822 
L 272.942816 532.667938 
L 274.212585 532.391088 
L 274.847469 531.900359 
L 275.482354 532.506171 
L 276.117238 531.893302 
L 276.752123 532.970301 
L 278.021892 532.253206 
L 279.291661 532.717879 
L 279.926545 533.297091 
L 280.56143 533.46103 
L 281.196314 533.177123 
L 281.831199 533.531056 
L 282.466083 533.60054 
L 283.100968 534.240551 
L 283.735852 533.263978 
L 284.370737 533.920274 
L 285.005621 533.859476 
L 285.640506 533.538113 
L 286.910275 533.889332 
L 287.545159 533.743307 
L 288.180044 533.278092 
L 288.814928 534.212323 
L 289.449813 534.056527 
L 290.719582 534.386032 
L 291.989351 534.58797 
L 292.624236 534.085298 
L 293.25912 533.881189 
L 293.894005 534.145011 
L 294.528889 535.003787 
L 295.163774 535.12484 
L 295.798658 534.481573 
L 296.433543 535.332749 
L 297.068427 534.545628 
L 297.703312 535.293664 
L 298.338196 534.740508 
L 298.973081 534.903904 
L 299.607965 534.236208 
L 300.24285 535.214952 
L 300.877734 534.942988 
L 301.512619 534.887618 
L 302.147503 535.534686 
L 302.782388 535.065671 
L 303.417272 535.504287 
L 304.052157 535.104212 
L 304.687041 535.598741 
L 305.321926 535.502115 
L 305.95681 535.876134 
L 306.591695 535.589513 
L 307.861464 536.078071 
L 308.496348 535.638912 
L 309.131233 536.134526 
L 309.766117 536.465117 
L 311.035886 535.498316 
L 311.670771 535.992302 
L 312.305656 536.158411 
L 312.94054 536.686597 
L 313.575425 536.35492 
L 314.210309 536.161668 
L 314.845194 536.725681 
L 315.480078 536.845649 
L 316.114963 536.640998 
L 316.749847 536.599742 
L 317.384732 536.182296 
L 318.019616 536.309321 
L 318.654501 536.949875 
L 319.289385 537.118699 
L 320.559154 536.823936 
L 321.194039 536.755538 
L 321.828923 537.221839 
L 322.463808 537.035101 
L 323.098692 537.38632 
L 323.733577 536.764766 
L 324.368461 537.250609 
L 325.63823 537.211525 
L 326.273115 536.765309 
L 326.907999 537.486203 
L 327.542884 537.78748 
L 328.177768 537.780423 
L 328.812653 536.791365 
L 329.447537 538.097986 
L 330.082422 537.392291 
L 330.717306 538.325437 
L 331.352191 537.350492 
L 331.987075 538.336836 
L 332.62196 538.229896 
L 333.256844 537.54483 
L 333.891729 538.667427 
L 334.526614 538.246724 
L 335.161498 538.071929 
L 336.431267 538.76351 
L 337.701036 537.774452 
L 338.335921 538.560487 
L 338.970805 538.613686 
L 339.60569 538.49806 
L 340.240574 538.072472 
L 340.875459 538.479604 
L 341.510343 538.52466 
L 342.780112 539.154356 
L 343.414997 538.217954 
L 344.049881 538.277124 
L 344.684766 538.840594 
L 345.31965 538.558316 
L 346.589419 539.659199 
L 347.224304 539.17227 
L 347.859188 538.92582 
L 348.494073 539.273239 
L 349.128957 539.855165 
L 349.763842 539.167927 
L 351.033611 539.412206 
L 351.668495 539.250439 
L 352.30338 539.440977 
L 352.938264 539.238497 
L 353.573149 539.681999 
L 354.208033 539.823138 
L 354.842918 539.84648 
L 355.477803 539.095729 
L 356.747572 540.128758 
L 357.382456 539.511546 
L 358.017341 539.940391 
L 358.652225 539.806309 
L 359.28711 540.035389 
L 359.921994 539.494175 
L 360.556879 540.317667 
L 361.191763 539.988704 
L 361.826648 539.933877 
L 362.461532 540.013132 
L 363.096417 539.849737 
L 363.731301 540.602659 
L 364.366186 539.722712 
L 365.00107 541.6954 
L 365.635955 540.832281 
L 366.270839 541.049418 
L 366.905724 540.085873 
L 367.540608 541.110216 
L 368.175493 540.525032 
L 369.445262 540.658029 
L 370.080146 540.142329 
L 370.715031 540.681371 
L 371.349915 540.151014 
L 371.9848 541.090674 
L 372.619684 540.433835 
L 373.254569 541.130844 
L 373.889453 541.332781 
L 374.524338 540.732398 
L 375.159222 540.796453 
L 375.794107 541.027161 
L 376.428991 541.483691 
L 377.063876 541.105873 
L 377.698761 541.428864 
L 378.333645 541.341467 
L 378.96853 540.686799 
L 379.603414 541.197613 
L 380.238299 540.804053 
L 380.873183 541.241584 
L 381.508068 541.535804 
L 382.142952 541.427236 
L 382.777837 541.464149 
L 383.412721 541.879423 
L 384.047606 541.872366 
L 384.68249 541.544489 
L 385.317375 541.476634 
L 385.952259 541.556432 
L 386.587144 541.956507 
L 387.222028 542.080274 
L 387.856913 542.04119 
L 388.491797 541.587917 
L 389.126682 541.641115 
L 389.761566 541.89408 
L 390.396451 542.008619 
L 391.66622 541.526033 
L 392.301104 542.721371 
L 392.935989 541.441892 
L 393.570873 541.923936 
L 394.205758 541.315953 
L 394.840642 542.225213 
L 395.475527 542.263755 
L 396.110411 542.091674 
L 397.38018 542.766427 
L 398.015065 542.590546 
L 398.64995 542.14433 
L 399.284834 542.95805 
L 399.919719 541.905479 
L 400.554603 542.867938 
L 401.189488 542.618231 
L 401.824372 543.129045 
L 402.459257 542.49772 
L 403.094141 542.712685 
L 403.729026 542.450493 
L 404.36391 543.172473 
L 404.998795 542.61226 
L 405.633679 543.415123 
L 406.268564 543.176815 
L 406.903448 542.618231 
L 407.538333 543.131759 
L 408.173217 543.150216 
L 408.808102 542.644287 
L 409.442986 542.770769 
L 410.077871 543.230557 
L 410.712755 542.99822 
L 411.34764 543.114388 
L 411.982524 542.592717 
L 412.617409 543.291898 
L 413.252293 542.966735 
L 413.887178 543.567661 
L 414.522062 542.857624 
L 415.791831 543.908566 
L 416.426716 544.079019 
L 417.696485 543.352696 
L 418.331369 543.883596 
L 418.966254 543.916166 
L 419.601138 543.778827 
L 420.236023 544.155559 
L 420.870908 543.463979 
L 421.505792 544.059476 
L 422.140677 543.384724 
L 422.775561 543.284298 
L 423.410446 544.587119 
L 424.04533 544.374867 
L 424.680215 544.346097 
L 425.315099 544.078476 
L 425.949984 544.000307 
L 426.584868 543.556262 
L 427.219753 544.14416 
L 427.854637 543.614889 
L 428.489522 544.549663 
L 429.124406 545.067534 
L 429.759291 543.76797 
L 430.394175 544.147417 
L 431.02906 545.003478 
L 431.663944 544.54532 
L 432.298829 544.301584 
L 433.568598 544.643031 
L 434.203482 543.912909 
L 434.838367 544.668002 
L 435.473251 544.842797 
L 436.108136 544.380839 
L 436.74302 544.7516 
L 437.377905 544.800998 
L 438.647674 544.312441 
L 439.282558 545.099019 
L 439.917443 545.359583 
L 440.552327 544.678859 
L 441.187212 545.069162 
L 441.822097 545.14136 
L 442.456981 545.697773 
L 443.72675 544.807513 
L 444.361635 545.308556 
L 445.631404 545.199444 
L 446.266288 545.092505 
L 446.901173 545.401382 
L 447.536057 544.690259 
L 448.170942 545.113133 
L 448.805826 545.080562 
L 449.440711 545.414953 
L 450.075595 545.048534 
L 450.71048 545.518636 
L 451.345364 545.245586 
L 452.615133 546.233558 
L 453.250018 545.584862 
L 453.884902 545.353612 
L 455.154671 546.439838 
L 455.789556 545.493122 
L 456.42444 545.733601 
L 457.059325 545.822084 
L 457.694209 546.335613 
L 458.329094 546.328013 
L 458.963978 545.401925 
L 459.598863 546.224873 
L 460.233747 545.685831 
L 460.868632 546.224873 
L 461.503516 546.366012 
L 462.138401 546.626033 
L 463.40817 545.965937 
L 464.043055 546.289471 
L 464.677939 546.060935 
L 465.312824 545.615261 
L 465.947708 546.579892 
L 466.582593 546.211302 
L 467.217477 546.009365 
L 467.852362 545.934452 
L 468.487246 546.284586 
L 469.757015 546.246587 
L 470.3919 546.709631 
L 471.026784 546.195017 
L 471.661669 546.003936 
L 472.296553 546.675432 
L 472.931438 547.013079 
L 473.566322 546.451781 
L 474.201207 546.153761 
L 475.470976 547.226416 
L 476.10586 546.817114 
L 476.740745 547.226416 
L 477.375629 547.193303 
L 478.010514 547.445182 
L 478.645398 546.786172 
L 479.280283 546.662404 
L 479.915167 547.102106 
L 481.184936 547.058135 
L 481.819821 547.302414 
L 482.454705 547.082563 
L 483.08959 546.173846 
L 483.724474 547.585235 
L 484.359359 547.247044 
L 484.994244 547.165618 
L 485.629128 547.390897 
L 486.264013 547.288843 
L 486.898897 546.610291 
L 487.533782 547.574921 
L 488.168666 546.952824 
L 488.803551 546.781829 
L 489.438435 547.485352 
L 490.07332 547.790972 
L 491.343089 547.487523 
L 491.977973 546.876283 
L 492.612858 547.64169 
L 493.247742 548.210589 
L 493.882627 548.141105 
L 494.517511 547.619434 
L 495.78728 547.560807 
L 496.422165 548.11722 
L 497.057049 547.62432 
L 497.691934 547.762744 
L 498.326818 548.110163 
L 498.961703 547.539093 
L 499.596587 548.104735 
L 500.231472 548.051536 
L 500.866356 548.124277 
L 501.501241 547.901169 
L 502.136125 548.068907 
L 503.405894 547.883255 
L 504.675663 549.198561 
L 505.310548 547.373527 
L 505.945433 547.801286 
L 506.580317 548.548779 
L 507.215202 548.48201 
L 507.850086 548.225788 
L 508.484971 547.508694 
L 509.119855 548.712175 
L 509.75474 548.706746 
L 510.389624 547.340956 
L 511.024509 548.960254 
L 511.659393 548.423383 
L 512.294278 548.105278 
L 512.929162 549.087821 
L 513.564047 548.819658 
L 514.198931 548.951025 
L 514.833816 548.454868 
L 515.4687 548.746374 
L 516.103585 548.363127 
L 516.738469 548.809344 
L 517.373354 548.240445 
L 518.008238 548.768088 
L 518.643123 549.133963 
L 519.278007 548.94234 
L 520.547776 549.003681 
L 521.182661 547.819743 
L 521.817545 548.511323 
L 522.45243 548.622606 
L 523.087314 549.087279 
L 523.722199 548.756688 
L 524.357083 549.097593 
L 524.991968 548.877742 
L 525.626852 549.710461 
L 526.261737 549.737603 
L 526.896621 548.891313 
L 527.531506 549.31093 
L 528.166391 549.002052 
L 528.801275 548.389727 
L 529.43616 549.364128 
L 530.071044 549.446097 
L 530.705929 549.350014 
L 531.340813 548.866885 
L 531.975698 549.077507 
L 532.610582 549.642606 
L 533.880351 549.445554 
L 534.515236 549.114421 
L 535.15012 549.651291 
L 536.419889 549.199647 
L 537.054774 549.535123 
L 537.689658 549.594836 
L 538.324543 549.472154 
L 539.594312 550.093708 
L 540.229196 550.697891 
L 540.864081 549.828258 
L 541.498965 550.230504 
L 542.13385 549.227875 
L 542.768734 549.992196 
L 543.403619 549.514495 
L 544.038503 550.412356 
L 544.673388 550.055709 
L 545.308272 549.842915 
L 545.943157 550.348843 
L 546.578041 550.100222 
L 547.212926 550.208247 
L 547.84781 549.669748 
L 548.482695 550.076337 
L 549.11758 549.972111 
L 549.752464 550.667492 
L 550.387349 549.471068 
L 551.022233 550.438955 
L 551.657118 550.336358 
L 552.292002 550.537752 
L 552.926887 550.056794 
L 553.561771 550.807002 
L 554.196656 550.152877 
L 554.83154 550.137135 
L 555.466425 550.003053 
L 556.101309 550.436241 
L 556.736194 549.695262 
L 557.371078 550.334187 
L 558.005963 549.956369 
L 558.640847 550.336901 
L 559.275732 550.465012 
L 560.545501 550.20119 
L 561.180385 550.588237 
L 561.81527 550.615922 
L 562.450154 550.353186 
L 563.085039 550.406385 
L 563.719923 551.071909 
L 564.989692 550.335815 
L 565.624577 551.273846 
L 566.259461 550.082308 
L 566.894346 551.351473 
L 567.52923 550.988854 
L 568.164115 550.891685 
L 568.798999 551.518125 
L 569.433884 550.419956 
L 570.703653 551.002425 
L 571.338538 550.634378 
L 572.608307 550.747289 
L 573.243191 551.230962 
L 573.878076 550.140935 
L 575.147845 551.152792 
L 576.417614 550.933484 
L 576.417614 550.933484 
" clip-path="url(#p41f0db97df)" style="fill: none; stroke: #1f77b4; stroke-width: 1.5; stroke-linecap: square"/>
   </g>
   <g id="line2d_30">
    <path d="M 69.144886 54.711867 
L 69.779771 58.712069 
L 70.414655 57.774581 
L 71.04954 56.464704 
L 71.684424 57.926577 
L 72.319309 56.946204 
L 72.954193 53.869919 
L 73.589078 57.815837 
L 74.223962 58.554102 
L 74.858847 179.002593 
L 75.493732 243.105716 
L 76.763501 289.853095 
L 77.398385 311.827338 
L 78.03327 320.514438 
L 78.668154 338.149202 
L 79.303039 333.263082 
L 79.937923 351.491715 
L 80.572808 363.510237 
L 81.207692 362.806713 
L 81.842577 368.715005 
L 82.477461 367.467555 
L 83.112346 378.028002 
L 83.74723 374.370333 
L 84.382115 383.531877 
L 85.016999 385.614762 
L 85.651884 384.35754 
L 86.286768 397.786907 
L 86.921653 391.910643 
L 87.556537 389.638849 
L 88.191422 387.878956 
L 88.826306 378.519817 
L 89.461191 390.807588 
L 90.096075 388.876699 
L 90.73096 397.383576 
L 91.365844 398.063214 
L 92.000729 391.84333 
L 92.635613 400.603714 
L 93.270498 400.830079 
L 93.905382 399.795422 
L 94.540267 413.00711 
L 95.175151 401.012474 
L 95.810036 406.740543 
L 96.44492 407.04182 
L 97.079805 401.78711 
L 97.71469 417.720064 
L 98.349574 410.190846 
L 98.984459 372.943201 
L 99.619343 423.19354 
L 100.254228 406.840426 
L 100.889112 402.657285 
L 101.523997 422.715839 
L 102.158881 418.862747 
L 102.793766 413.954912 
L 103.42865 417.926887 
L 104.063535 411.433411 
L 104.698419 416.149623 
L 105.333304 426.002747 
L 105.968188 413.369186 
L 106.603073 403.946535 
L 107.237957 423.513817 
L 107.872842 422.924833 
L 108.507726 425.973977 
L 109.142611 410.082278 
L 109.777495 413.437041 
L 110.41238 425.947377 
L 111.047264 401.781138 
L 111.682149 410.16859 
L 112.317033 421.82775 
L 112.951918 418.369303 
L 113.586802 413.82843 
L 114.221687 435.65882 
L 114.856571 423.422619 
L 115.491456 434.47271 
L 116.12634 418.96263 
L 116.761225 425.512018 
L 117.396109 436.005696 
L 118.030994 436.80476 
L 118.665879 432.74213 
L 119.300763 435.390113 
L 119.935648 421.628527 
L 120.570532 439.527655 
L 121.205417 432.927782 
L 121.840301 434.29683 
L 122.475186 438.878416 
L 123.11007 434.508538 
L 123.744955 445.5798 
L 124.379839 438.830103 
L 125.014724 435.082322 
L 125.649608 427.752327 
L 126.284493 440.427687 
L 126.919377 434.814158 
L 127.554262 441.533999 
L 128.189146 420.73718 
L 128.824031 429.387367 
L 129.458915 436.363429 
L 130.0938 447.256096 
L 130.728684 436.895414 
L 131.363569 442.064355 
L 131.998453 445.472317 
L 133.268222 429.529049 
L 133.903107 428.803812 
L 134.537991 442.540971 
L 135.172876 444.979417 
L 135.80776 441.60294 
L 136.442645 449.220641 
L 137.077529 442.165867 
L 137.712414 451.399609 
L 138.347298 450.75037 
L 138.982183 444.124441 
L 139.617067 447.594829 
L 140.251952 445.94839 
L 140.886837 439.378373 
L 141.521721 450.027304 
L 142.156606 441.525856 
L 142.79149 443.248837 
L 143.426375 447.068273 
L 144.061259 448.863994 
L 144.696144 455.558864 
L 145.331028 443.164696 
L 145.965913 454.214244 
L 146.600797 437.453999 
L 147.235682 445.783366 
L 147.870566 447.519374 
L 148.505451 446.621514 
L 149.140335 432.293743 
L 149.77522 447.28541 
L 150.410104 440.008613 
L 151.044989 447.889593 
L 151.679873 443.483344 
L 152.314758 443.106069 
L 152.949642 442.130582 
L 153.584527 443.500715 
L 154.219411 452.382153 
L 154.854296 444.808964 
L 155.48918 441.202322 
L 156.124065 448.614287 
L 156.758949 439.229635 
L 157.393834 451.558662 
L 158.028718 447.011274 
L 158.663603 450.319896 
L 159.298487 442.302663 
L 159.933372 449.473605 
L 160.568256 444.254723 
L 161.203141 450.401865 
L 161.838026 445.247581 
L 162.47291 444.481631 
L 163.107795 451.852882 
L 163.742679 446.792509 
L 164.377564 440.333775 
L 165.012448 448.848252 
L 165.647333 446.696969 
L 166.282217 445.5684 
L 166.917102 453.173074 
L 167.551986 448.573574 
L 168.186871 455.019279 
L 168.821755 453.069391 
L 169.45664 451.57549 
L 170.091524 446.563973 
L 170.726409 447.445005 
L 171.361293 448.650114 
L 171.996178 457.875714 
L 172.631062 453.388039 
L 173.265947 458.279045 
L 173.900831 452.858225 
L 174.535716 443.466516 
L 175.1706 452.096075 
L 175.805485 441.961215 
L 176.440369 446.908677 
L 177.075254 453.597576 
L 177.710138 441.993786 
L 178.345023 444.188496 
L 178.979907 442.890018 
L 179.614792 450.719428 
L 180.249676 448.443291 
L 180.884561 457.232446 
L 181.519445 454.668603 
L 182.15433 454.685974 
L 182.789215 450.630945 
L 183.424099 428.722928 
L 184.058984 451.335553 
L 184.693868 454.931882 
L 185.328753 447.555202 
L 185.963637 454.487837 
L 186.598522 435.428655 
L 187.233406 454.043792 
L 187.868291 449.695628 
L 188.503175 453.829912 
L 189.13806 452.897853 
L 189.772944 455.755916 
L 190.407829 447.921077 
L 191.677598 444.759023 
L 192.312482 454.039992 
L 192.947367 452.283898 
L 193.582251 444.31335 
L 194.217136 448.69137 
L 194.85202 443.578342 
L 195.486905 442.340119 
L 196.121789 454.537778 
L 196.756674 454.142589 
L 197.391558 448.829795 
L 198.026443 448.881365 
L 198.661327 448.801024 
L 199.296212 432.278543 
L 199.931096 445.035872 
L 200.565981 453.594319 
L 201.200865 449.087645 
L 201.83575 449.259183 
L 202.470634 451.387666 
L 203.105519 449.108816 
L 203.740403 452.846283 
L 204.375288 449.245069 
L 205.010173 459.383729 
L 205.645057 454.200673 
L 206.279942 447.085644 
L 206.914826 454.752201 
L 207.549711 454.823856 
L 208.184595 429.653359 
L 208.81948 454.391211 
L 209.454364 456.144048 
L 210.089249 447.951477 
L 210.724133 452.275213 
L 211.359018 442.201152 
L 211.993902 454.331498 
L 212.628787 451.7112 
L 213.263671 455.632148 
L 213.898556 453.132903 
L 214.53344 457.887656 
L 215.168325 447.274553 
L 215.803209 445.561886 
L 216.438094 461.209849 
L 217.072978 445.300779 
L 217.707863 446.182897 
L 218.342747 453.266442 
L 218.977632 452.552605 
L 219.612516 459.12805 
L 220.247401 459.727347 
L 220.882285 453.542749 
L 221.51717 456.418183 
L 222.152054 457.589093 
L 223.421823 452.004335 
L 224.056708 444.828507 
L 224.691592 450.101131 
L 225.326477 457.471296 
L 225.961362 459.718119 
L 226.596246 447.716426 
L 227.231131 454.909082 
L 227.866015 452.924995 
L 228.5009 448.254925 
L 229.135784 451.224814 
L 229.770669 457.330157 
L 230.405553 451.820854 
L 231.040438 452.137874 
L 231.675322 455.034479 
L 232.310207 454.575777 
L 232.945091 461.184335 
L 233.579976 454.511179 
L 234.21486 458.334415 
L 234.849745 452.207358 
L 235.484629 447.428177 
L 236.119514 456.290072 
L 236.754398 461.378673 
L 237.389283 455.019279 
L 238.024167 463.53267 
L 238.659052 463.355703 
L 239.293936 460.792946 
L 239.928821 449.412264 
L 240.563705 457.741632 
L 241.19859 453.320727 
L 241.833474 451.011477 
L 242.468359 463.475128 
L 243.103243 455.477438 
L 243.738128 451.377352 
L 244.373012 455.918225 
L 245.007897 450.970764 
L 245.642781 453.065048 
L 246.277666 458.889199 
L 246.91255 458.080908 
L 247.547435 442.32112 
L 248.18232 455.160418 
L 248.817204 454.06822 
L 249.452089 451.966879 
L 250.086973 458.517896 
L 250.721858 462.043654 
L 251.356742 442.67071 
L 251.991627 458.798545 
L 252.626511 447.462376 
L 253.261396 447.671913 
L 253.89628 459.06128 
L 254.531165 459.918428 
L 255.166049 454.103505 
L 255.800934 454.678917 
L 256.435818 449.057789 
L 257.070703 452.250785 
L 257.705587 449.062674 
L 258.340472 452.2345 
L 258.975356 458.752403 
L 259.610241 452.187273 
L 260.245125 452.089018 
L 260.88001 452.744228 
L 261.514894 454.239758 
L 262.149779 449.26244 
L 262.784663 460.864059 
L 263.419548 455.724431 
L 264.054432 453.858683 
L 264.689317 457.014223 
L 265.324201 446.057501 
L 265.959086 452.712201 
L 266.59397 450.056618 
L 267.228855 456.67549 
L 267.863739 446.544973 
L 268.498624 461.634894 
L 269.133509 452.101503 
L 269.768393 459.123164 
L 270.403278 452.568348 
L 271.038162 453.463494 
L 271.673047 453.458066 
L 272.307931 448.918278 
L 272.942816 452.963537 
L 273.5777 461.008455 
L 274.212585 453.172531 
L 274.847469 450.231413 
L 275.482354 448.379236 
L 276.117238 462.996885 
L 276.752123 449.50889 
L 277.387007 450.033276 
L 278.021892 451.471807 
L 279.291661 458.991797 
L 279.926545 460.82226 
L 280.56143 447.029188 
L 281.196314 450.887709 
L 281.831199 457.39747 
L 282.466083 452.217672 
L 283.100968 462.062654 
L 283.735852 456.192361 
L 284.370737 461.752148 
L 285.005621 458.466326 
L 285.640506 457.300301 
L 286.27539 454.753829 
L 286.910275 457.380642 
L 287.545159 455.462238 
L 288.180044 447.416234 
L 288.814928 443.927389 
L 289.449813 460.889572 
L 290.084697 458.363186 
L 290.719582 450.846453 
L 291.354467 447.26261 
L 291.989351 456.063164 
L 292.624236 455.354755 
L 293.25912 456.717832 
L 294.528889 458.655235 
L 295.163774 453.426581 
L 295.798658 444.509316 
L 296.433543 457.89797 
L 297.068427 462.610381 
L 297.703312 452.2383 
L 298.338196 458.77086 
L 298.973081 447.709912 
L 299.607965 453.421695 
L 300.24285 452.220929 
L 300.877734 453.016192 
L 301.512619 461.239162 
L 302.147503 458.499982 
L 302.782388 458.662292 
L 303.417272 449.932307 
L 304.052157 443.081098 
L 304.687041 458.223675 
L 305.321926 448.084473 
L 305.95681 457.122249 
L 306.591695 443.559885 
L 307.226579 454.685974 
L 307.861464 454.665346 
L 308.496348 450.721056 
L 309.131233 455.927997 
L 309.766117 454.657203 
L 310.401002 450.482206 
L 311.035886 450.955021 
L 311.670771 450.794883 
L 312.305656 453.067219 
L 312.94054 452.612861 
L 313.575425 462.80309 
L 314.210309 459.747975 
L 314.845194 448.229412 
L 315.480078 459.911914 
L 316.114963 455.3097 
L 316.749847 448.413978 
L 317.384732 462.221164 
L 318.019616 453.192616 
L 318.654501 453.840226 
L 319.289385 458.388156 
L 319.92427 452.624803 
L 320.559154 456.360099 
L 321.194039 457.928912 
L 321.828923 448.227783 
L 322.463808 455.309157 
L 323.098692 442.400375 
L 324.368461 463.108167 
L 325.003346 454.747858 
L 325.63823 464.706294 
L 326.273115 452.933137 
L 326.907999 459.548752 
L 327.542884 454.850998 
L 328.177768 458.099907 
L 328.812653 451.276927 
L 329.447537 461.386273 
L 330.082422 450.962621 
L 330.717306 447.029188 
L 331.352191 449.868794 
L 331.987075 456.055022 
L 332.62196 457.856171 
L 333.256844 454.07202 
L 333.891729 447.348379 
L 334.526614 442.493743 
L 335.161498 459.265389 
L 335.796383 463.680866 
L 336.431267 453.025421 
L 337.066152 461.103995 
L 337.701036 456.171733 
L 338.335921 444.050614 
L 338.970805 444.33832 
L 339.60569 454.850455 
L 340.240574 450.773169 
L 340.875459 457.254159 
L 341.510343 430.365568 
L 342.145228 455.893255 
L 342.780112 446.872307 
L 343.414997 458.010881 
L 344.049881 449.06756 
L 345.31965 454.753829 
L 345.954535 441.230007 
L 346.589419 456.824771 
L 347.224304 459.48904 
L 347.859188 452.11616 
L 348.494073 457.034851 
L 349.128957 459.781632 
L 349.763842 451.618917 
L 350.398726 461.538268 
L 351.033611 457.332329 
L 351.668495 459.948827 
L 352.30338 452.903824 
L 352.938264 453.462408 
L 353.573149 458.790402 
L 354.208033 452.043419 
L 354.842918 460.728891 
L 355.477803 448.168613 
L 356.112687 448.994819 
L 356.747572 458.399556 
L 357.382456 456.190189 
L 358.017341 448.376522 
L 358.652225 447.518289 
L 359.28711 453.474894 
L 359.921994 439.027697 
L 360.556879 453.81037 
L 361.191763 456.214617 
L 361.826648 461.803718 
L 362.461532 454.494351 
L 363.096417 457.906113 
L 363.731301 449.464377 
L 364.366186 460.866773 
L 365.00107 437.331859 
L 365.635955 451.017991 
L 366.270839 456.515894 
L 366.905724 455.139247 
L 367.540608 457.707433 
L 368.175493 451.798055 
L 368.810377 457.037023 
L 369.445262 458.651435 
L 370.080146 456.057736 
L 370.715031 460.019396 
L 371.349915 455.809657 
L 371.9848 456.135362 
L 372.619684 450.1755 
L 373.254569 451.500577 
L 373.889453 429.538277 
L 374.524338 458.918513 
L 375.159222 456.398641 
L 375.794107 443.220609 
L 377.063876 460.50524 
L 377.698761 443.561514 
L 378.333645 453.305527 
L 378.96853 453.475979 
L 379.603414 452.910338 
L 380.238299 463.043026 
L 380.873183 446.900535 
L 381.508068 436.872072 
L 382.142952 449.704856 
L 382.777837 453.82177 
L 383.412721 461.476384 
L 384.047606 444.65154 
L 384.68249 438.035925 
L 385.317375 443.297692 
L 385.952259 452.415809 
L 386.587144 449.591945 
L 387.222028 452.991221 
L 387.856913 451.904995 
L 388.491797 451.804026 
L 389.126682 456.930083 
L 389.761566 460.330445 
L 390.396451 461.390072 
L 391.031335 450.201557 
L 391.66622 461.327646 
L 392.301104 458.54938 
L 392.935989 446.807709 
L 393.570873 449.239641 
L 394.205758 447.597001 
L 394.840642 454.058992 
L 395.475527 453.009678 
L 396.110411 451.338811 
L 396.745296 450.966964 
L 397.38018 446.354436 
L 398.015065 453.684431 
L 398.64995 456.361727 
L 399.284834 461.550211 
L 399.919719 454.862398 
L 400.554603 453.810913 
L 401.189488 434.273487 
L 401.824372 455.333042 
L 402.459257 445.931562 
L 403.094141 447.795138 
L 403.729026 447.382578 
L 404.36391 453.834255 
L 404.998795 458.824058 
L 406.268564 450.546804 
L 406.903448 452.294755 
L 407.538333 430.099576 
L 408.173217 437.954499 
L 408.808102 443.544143 
L 409.442986 450.14293 
L 410.077871 446.947219 
L 410.712755 450.136958 
L 411.34764 451.117874 
L 411.982524 453.575319 
L 412.617409 451.895224 
L 413.252293 451.996735 
L 413.887178 437.542482 
L 414.522062 445.602599 
L 415.156947 455.306442 
L 415.791831 449.940992 
L 416.426716 449.786282 
L 417.0616 448.634915 
L 417.696485 450.417065 
L 418.331369 437.877415 
L 418.966254 458.517896 
L 419.601138 448.005761 
L 420.236023 463.463186 
L 420.870908 458.935884 
L 421.505792 449.219555 
L 422.140677 457.738375 
L 422.775561 447.113871 
L 423.410446 453.574234 
L 424.04533 457.069593 
L 424.680215 455.428582 
L 425.315099 458.082536 
L 425.949984 453.466751 
L 426.584868 446.675255 
L 427.219753 461.520355 
L 427.854637 456.294415 
L 428.489522 441.898246 
L 429.759291 456.391041 
L 430.394175 459.566666 
L 431.02906 457.761174 
L 431.663944 453.820141 
L 432.298829 454.294585 
L 432.933713 451.536405 
L 433.568598 448.09533 
L 434.203482 456.047422 
L 434.838367 449.867166 
L 435.473251 453.981908 
L 436.108136 451.061961 
L 436.74302 454.278843 
L 437.377905 447.028102 
L 438.012789 452.697544 
L 438.647674 465.54987 
L 439.282558 447.757139 
L 439.917443 450.902908 
L 440.552327 456.095735 
L 441.187212 448.234297 
L 441.822097 451.88111 
L 442.456981 458.683462 
L 443.091866 455.568092 
L 443.72675 449.821567 
L 444.361635 463.157023 
L 444.996519 451.621631 
L 445.631404 454.171903 
L 446.266288 456.215703 
L 446.901173 456.066421 
L 447.536057 456.330785 
L 448.170942 459.677406 
L 448.805826 449.217927 
L 449.440711 456.043622 
L 450.075595 457.236246 
L 451.345364 450.734627 
L 451.980249 465.900546 
L 452.615133 456.161419 
L 453.250018 453.240386 
L 453.884902 453.086219 
L 454.519787 451.474521 
L 455.154671 443.784079 
L 455.789556 454.68326 
L 456.42444 451.658002 
L 457.059325 453.586176 
L 457.694209 449.366123 
L 458.329094 448.025846 
L 459.598863 456.562579 
L 460.233747 452.82674 
L 460.868632 454.668603 
L 461.503516 441.340204 
L 462.138401 455.141961 
L 462.773285 442.280949 
L 463.40817 456.063164 
L 464.043055 452.049933 
L 464.677939 444.583142 
L 465.312824 446.363121 
L 465.947708 450.50012 
L 466.582593 456.095192 
L 467.217477 455.424782 
L 467.852362 451.700886 
L 468.487246 447.16327 
L 469.122131 439.79419 
L 469.757015 450.008848 
L 470.3919 456.101706 
L 471.026784 455.490466 
L 471.661669 453.651317 
L 472.296553 448.153957 
L 472.931438 445.620513 
L 473.566322 449.37318 
L 474.201207 453.829369 
L 474.836091 450.49252 
L 476.10586 455.669061 
L 476.740745 453.375011 
L 477.375629 454.926453 
L 478.010514 452.7426 
L 478.645398 456.48061 
L 479.280283 445.185154 
L 479.915167 455.624548 
L 480.550052 456.033308 
L 481.184936 447.595372 
L 481.819821 454.013936 
L 482.454705 441.972615 
L 483.08959 455.539322 
L 483.724474 451.333382 
L 484.359359 449.132158 
L 484.994244 450.634744 
L 485.629128 452.493435 
L 486.264013 446.771338 
L 486.898897 452.877767 
L 487.533782 450.971306 
L 488.168666 458.65632 
L 488.803551 458.447326 
L 489.438435 452.270327 
L 490.07332 440.918416 
L 490.708204 450.241184 
L 491.343089 449.300982 
L 491.977973 454.676203 
L 492.612858 452.276841 
L 493.247742 459.318045 
L 493.882627 452.94128 
L 494.517511 455.020365 
L 495.152396 436.473626 
L 495.78728 450.681429 
L 496.422165 462.28359 
L 497.057049 445.115127 
L 497.691934 457.974511 
L 498.326818 451.018534 
L 498.961703 450.339438 
L 499.596587 457.941397 
L 500.231472 458.134106 
L 500.866356 446.259981 
L 501.501241 454.359726 
L 502.136125 452.255671 
L 502.77101 463.807891 
L 503.405894 452.029848 
L 504.040779 449.334095 
L 504.675663 444.934904 
L 505.310548 447.919992 
L 505.945433 453.522664 
L 506.580317 448.45632 
L 507.215202 444.46426 
L 507.850086 441.708794 
L 508.484971 448.436234 
L 509.119855 446.715968 
L 509.75474 449.393808 
L 510.389624 455.780344 
L 511.024509 449.489891 
L 511.659393 452.397895 
L 512.929162 453.565005 
L 513.564047 455.461152 
L 514.198931 437.517511 
L 514.833816 453.198587 
L 515.4687 455.312957 
L 516.103585 454.651775 
L 516.738469 440.727336 
L 517.373354 452.564005 
L 518.008238 443.366633 
L 518.643123 454.291328 
L 519.278007 448.649571 
L 519.912892 444.191753 
L 520.547776 450.725942 
L 521.182661 455.152275 
L 521.817545 443.32212 
L 522.45243 458.435384 
L 523.087314 463.647752 
L 523.722199 458.047794 
L 524.357083 444.352977 
L 524.991968 451.30624 
L 525.626852 455.634319 
L 526.261737 443.458916 
L 526.896621 452.678544 
L 527.531506 445.578172 
L 528.166391 433.531965 
L 528.801275 447.664856 
L 529.43616 450.214585 
L 530.071044 459.450498 
L 530.705929 439.596053 
L 531.340813 452.808827 
L 531.975698 452.88971 
L 532.610582 449.338438 
L 533.245467 456.408412 
L 533.880351 457.501153 
L 534.515236 442.938874 
L 535.15012 439.789305 
L 535.785005 457.400184 
L 536.419889 451.394723 
L 537.054774 450.605974 
L 537.689658 445.872935 
L 538.324543 454.594234 
L 538.959427 458.533095 
L 539.594312 451.565176 
L 540.229196 442.774936 
L 540.864081 458.347986 
L 541.498965 453.167102 
L 542.13385 451.704686 
L 542.768734 451.169987 
L 543.403619 451.230242 
L 544.038503 448.002504 
L 544.673388 455.266815 
L 545.308272 446.223611 
L 545.943157 444.654797 
L 546.578041 456.813372 
L 547.212926 452.867996 
L 547.84781 453.872797 
L 548.482695 447.533488 
L 549.11758 457.785059 
L 549.752464 452.867996 
L 550.387349 449.96542 
L 551.022233 454.722887 
L 551.657118 440.591625 
L 552.292002 453.870083 
L 553.561771 460.001483 
L 554.83154 457.395298 
L 555.466425 445.44029 
L 556.101309 442.341205 
L 556.736194 452.993936 
L 557.371078 453.274585 
L 558.005963 435.891157 
L 558.640847 452.659002 
L 559.275732 454.779343 
L 559.910616 459.96077 
L 561.180385 445.001673 
L 561.81527 455.405783 
L 562.450154 443.713509 
L 563.085039 460.817374 
L 563.719923 442.956245 
L 564.354808 456.217874 
L 564.989692 448.012818 
L 565.624577 455.667975 
L 566.259461 452.77137 
L 566.894346 457.236789 
L 568.164115 445.616713 
L 568.798999 445.405548 
L 569.433884 460.82226 
L 570.703653 452.098246 
L 571.338538 452.350668 
L 571.973422 449.280354 
L 572.608307 449.794425 
L 573.243191 454.879769 
L 573.878076 448.300524 
L 574.51296 458.45764 
L 575.147845 456.284644 
L 575.782729 448.954649 
L 576.417614 461.070881 
L 576.417614 461.070881 
" clip-path="url(#p41f0db97df)" style="fill: none; stroke: #ff7f0e; stroke-width: 1.5; stroke-linecap: square"/>
   </g>
   <g id="patch_3">
    <path d="M 43.78125 576.718125 
L 43.78125 22.318125 
" style="fill: none; stroke: #000000; stroke-width: 0.8; stroke-linejoin: miter; stroke-linecap: square"/>
   </g>
   <g id="patch_4">
    <path d="M 601.78125 576.718125 
L 601.78125 22.318125 
" style="fill: none; stroke: #000000; stroke-width: 0.8; stroke-linejoin: miter; stroke-linecap: square"/>
   </g>
   <g id="patch_5">
    <path d="M 43.78125 576.718125 
L 601.78125 576.718125 
" style="fill: none; stroke: #000000; stroke-width: 0.8; stroke-linejoin: miter; stroke-linecap: square"/>
   </g>
   <g id="patch_6">
    <path d="M 43.78125 22.318125 
L 601.78125 22.318125 
" style="fill: none; stroke: #000000; stroke-width: 0.8; stroke-linejoin: miter; stroke-linecap: square"/>
   </g>
   <g id="text_17">
    <!-- Train and Val Loss -->
    <g transform="translate(269.235937 16.318125) scale(0.12 -0.12)">
     <defs>
      <path id="DejaVuSans-54" d="M -19 4666 
L 3928 4666 
L 3928 4134 
L 2272 4134 
L 2272 0 
L 1638 0 
L 1638 4134 
L -19 4134 
L -19 4666 
z
" transform="scale(0.015625)"/>
      <path id="DejaVuSans-72" d="M 2631 2963 
Q 2534 3019 2420 3045 
Q 2306 3072 2169 3072 
Q 1681 3072 1420 2755 
Q 1159 2438 1159 1844 
L 1159 0 
L 581 0 
L 581 3500 
L 1159 3500 
L 1159 2956 
Q 1341 3275 1631 3429 
Q 1922 3584 2338 3584 
Q 2397 3584 2469 3576 
Q 2541 3569 2628 3553 
L 2631 2963 
z
" transform="scale(0.015625)"/>
      <path id="DejaVuSans-61" d="M 2194 1759 
Q 1497 1759 1228 1600 
Q 959 1441 959 1056 
Q 959 750 1161 570 
Q 1363 391 1709 391 
Q 2188 391 2477 730 
Q 2766 1069 2766 1631 
L 2766 1759 
L 2194 1759 
z
M 3341 1997 
L 3341 0 
L 2766 0 
L 2766 531 
Q 2569 213 2275 61 
Q 1981 -91 1556 -91 
Q 1019 -91 701 211 
Q 384 513 384 1019 
Q 384 1609 779 1909 
Q 1175 2209 1959 2209 
L 2766 2209 
L 2766 2266 
Q 2766 2663 2505 2880 
Q 2244 3097 1772 3097 
Q 1472 3097 1187 3025 
Q 903 2953 641 2809 
L 641 3341 
Q 956 3463 1253 3523 
Q 1550 3584 1831 3584 
Q 2591 3584 2966 3190 
Q 3341 2797 3341 1997 
z
" transform="scale(0.015625)"/>
      <path id="DejaVuSans-69" d="M 603 3500 
L 1178 3500 
L 1178 0 
L 603 0 
L 603 3500 
z
M 603 4863 
L 1178 4863 
L 1178 4134 
L 603 4134 
L 603 4863 
z
" transform="scale(0.015625)"/>
      <path id="DejaVuSans-6e" d="M 3513 2113 
L 3513 0 
L 2938 0 
L 2938 2094 
Q 2938 2591 2744 2837 
Q 2550 3084 2163 3084 
Q 1697 3084 1428 2787 
Q 1159 2491 1159 1978 
L 1159 0 
L 581 0 
L 581 3500 
L 1159 3500 
L 1159 2956 
Q 1366 3272 1645 3428 
Q 1925 3584 2291 3584 
Q 2894 3584 3203 3211 
Q 3513 2838 3513 2113 
z
" transform="scale(0.015625)"/>
      <path id="DejaVuSans-20" transform="scale(0.015625)"/>
      <path id="DejaVuSans-64" d="M 2906 2969 
L 2906 4863 
L 3481 4863 
L 3481 0 
L 2906 0 
L 2906 525 
Q 2725 213 2448 61 
Q 2172 -91 1784 -91 
Q 1150 -91 751 415 
Q 353 922 353 1747 
Q 353 2572 751 3078 
Q 1150 3584 1784 3584 
Q 2172 3584 2448 3432 
Q 2725 3281 2906 2969 
z
M 947 1747 
Q 947 1113 1208 752 
Q 1469 391 1925 391 
Q 2381 391 2643 752 
Q 2906 1113 2906 1747 
Q 2906 2381 2643 2742 
Q 2381 3103 1925 3103 
Q 1469 3103 1208 2742 
Q 947 2381 947 1747 
z
" transform="scale(0.015625)"/>
      <path id="DejaVuSans-56" d="M 1831 0 
L 50 4666 
L 709 4666 
L 2188 738 
L 3669 4666 
L 4325 4666 
L 2547 0 
L 1831 0 
z
" transform="scale(0.015625)"/>
      <path id="DejaVuSans-6c" d="M 603 4863 
L 1178 4863 
L 1178 0 
L 603 0 
L 603 4863 
z
" transform="scale(0.015625)"/>
     </defs>
     <use xlink:href="#DejaVuSans-54"/>
     <use xlink:href="#DejaVuSans-72" transform="translate(46.333984 0)"/>
     <use xlink:href="#DejaVuSans-61" transform="translate(87.447266 0)"/>
     <use xlink:href="#DejaVuSans-69" transform="translate(148.726562 0)"/>
     <use xlink:href="#DejaVuSans-6e" transform="translate(176.509766 0)"/>
     <use xlink:href="#DejaVuSans-20" transform="translate(239.888672 0)"/>
     <use xlink:href="#DejaVuSans-61" transform="translate(271.675781 0)"/>
     <use xlink:href="#DejaVuSans-6e" transform="translate(332.955078 0)"/>
     <use xlink:href="#DejaVuSans-64" transform="translate(396.333984 0)"/>
     <use xlink:href="#DejaVuSans-20" transform="translate(459.810547 0)"/>
     <use xlink:href="#DejaVuSans-56" transform="translate(491.597656 0)"/>
     <use xlink:href="#DejaVuSans-61" transform="translate(552.255859 0)"/>
     <use xlink:href="#DejaVuSans-6c" transform="translate(613.535156 0)"/>
     <use xlink:href="#DejaVuSans-20" transform="translate(641.318359 0)"/>
     <use xlink:href="#DejaVuSans-4c" transform="translate(673.105469 0)"/>
     <use xlink:href="#DejaVuSans-6f" transform="translate(727.068359 0)"/>
     <use xlink:href="#DejaVuSans-73" transform="translate(788.25 0)"/>
     <use xlink:href="#DejaVuSans-73" transform="translate(840.349609 0)"/>
    </g>
   </g>
   <g id="legend_1">
    <g id="patch_7">
     <path d="M 515.190625 60.230625 
L 594.78125 60.230625 
Q 596.78125 60.230625 596.78125 58.230625 
L 596.78125 29.318125 
Q 596.78125 27.318125 594.78125 27.318125 
L 515.190625 27.318125 
Q 513.190625 27.318125 513.190625 29.318125 
L 513.190625 58.230625 
Q 513.190625 60.230625 515.190625 60.230625 
z
" style="fill: #ffffff; opacity: 0.8; stroke: #cccccc; stroke-linejoin: miter"/>
    </g>
    <g id="line2d_31">
     <path d="M 517.190625 35.416563 
L 527.190625 35.416563 
L 537.190625 35.416563 
" style="fill: none; stroke: #1f77b4; stroke-width: 1.5; stroke-linecap: square"/>
    </g>
    <g id="text_18">
     <!-- train_loss -->
     <g transform="translate(545.190625 38.916563) scale(0.1 -0.1)">
      <defs>
       <path id="DejaVuSans-74" d="M 1172 4494 
L 1172 3500 
L 2356 3500 
L 2356 3053 
L 1172 3053 
L 1172 1153 
Q 1172 725 1289 603 
Q 1406 481 1766 481 
L 2356 481 
L 2356 0 
L 1766 0 
Q 1100 0 847 248 
Q 594 497 594 1153 
L 594 3053 
L 172 3053 
L 172 3500 
L 594 3500 
L 594 4494 
L 1172 4494 
z
" transform="scale(0.015625)"/>
       <path id="DejaVuSans-5f" d="M 3263 -1063 
L 3263 -1509 
L -63 -1509 
L -63 -1063 
L 3263 -1063 
z
" transform="scale(0.015625)"/>
      </defs>
      <use xlink:href="#DejaVuSans-74"/>
      <use xlink:href="#DejaVuSans-72" transform="translate(39.208984 0)"/>
      <use xlink:href="#DejaVuSans-61" transform="translate(80.322266 0)"/>
      <use xlink:href="#DejaVuSans-69" transform="translate(141.601562 0)"/>
      <use xlink:href="#DejaVuSans-6e" transform="translate(169.384766 0)"/>
      <use xlink:href="#DejaVuSans-5f" transform="translate(232.763672 0)"/>
      <use xlink:href="#DejaVuSans-6c" transform="translate(282.763672 0)"/>
      <use xlink:href="#DejaVuSans-6f" transform="translate(310.546875 0)"/>
      <use xlink:href="#DejaVuSans-73" transform="translate(371.728516 0)"/>
      <use xlink:href="#DejaVuSans-73" transform="translate(423.828125 0)"/>
     </g>
    </g>
    <g id="line2d_32">
     <path d="M 517.190625 50.372813 
L 527.190625 50.372813 
L 537.190625 50.372813 
" style="fill: none; stroke: #ff7f0e; stroke-width: 1.5; stroke-linecap: square"/>
    </g>
    <g id="text_19">
     <!-- val_loss -->
     <g transform="translate(545.190625 53.872813) scale(0.1 -0.1)">
      <defs>
       <path id="DejaVuSans-76" d="M 191 3500 
L 800 3500 
L 1894 563 
L 2988 3500 
L 3597 3500 
L 2284 0 
L 1503 0 
L 191 3500 
z
" transform="scale(0.015625)"/>
      </defs>
      <use xlink:href="#DejaVuSans-76"/>
      <use xlink:href="#DejaVuSans-61" transform="translate(59.179688 0)"/>
      <use xlink:href="#DejaVuSans-6c" transform="translate(120.458984 0)"/>
      <use xlink:href="#DejaVuSans-5f" transform="translate(148.242188 0)"/>
      <use xlink:href="#DejaVuSans-6c" transform="translate(198.242188 0)"/>
      <use xlink:href="#DejaVuSans-6f" transform="translate(226.025391 0)"/>
      <use xlink:href="#DejaVuSans-73" transform="translate(287.207031 0)"/>
      <use xlink:href="#DejaVuSans-73" transform="translate(339.306641 0)"/>
     </g>
    </g>
   </g>
  </g>
 </g>
 <defs>
  <clipPath id="p41f0db97df">
   <rect x="43.78125" y="22.318125" width="558" height="554.4"/>
  </clipPath>
 </defs>
</svg>
