<?xml version="1.0" encoding="utf-8" standalone="no"?>
<!DOCTYPE svg PUBLIC "-//W3C//DTD SVG 1.1//EN"
  "http://www.w3.org/Graphics/SVG/1.1/DTD/svg11.dtd">
<svg xmlns:xlink="http://www.w3.org/1999/xlink" width="608.98125pt" height="614.274375pt" viewBox="0 0 608.98125 614.274375" xmlns="http://www.w3.org/2000/svg" version="1.1">
 <metadata>
  <rdf:RDF xmlns:dc="http://purl.org/dc/elements/1.1/" xmlns:cc="http://creativecommons.org/ns#" xmlns:rdf="http://www.w3.org/1999/02/22-rdf-syntax-ns#">
   <cc:Work>
    <dc:type rdf:resource="http://purl.org/dc/dcmitype/StillImage"/>
    <dc:date>2026-05-25T03:26:27.957886</dc:date>
    <dc:format>image/svg+xml</dc:format>
    <dc:creator>
     <cc:Agent>
      <dc:title>Matplotlib v3.10.9, https://matplotlib.org/</dc:title>
     </cc:Agent>
    </dc:creator>
   </cc:Work>
  </rdf:RDF>
 </metadata>
 <defs>
  <style type="text/css">*{stroke-linejoin: round; stroke-linecap: butt}</style>
 </defs>
 <g id="figure_1">
  <g id="patch_1">
   <path d="M 0 614.274375 
L 608.98125 614.274375 
L 608.98125 0 
L 0 0 
z
" style="fill: #ffffff"/>
  </g>
  <g id="axes_1">
   <g id="patch_2">
    <path d="M 43.78125 576.718125 
L 601.78125 576.718125 
L 601.78125 22.318125 
L 43.78125 22.318125 
z
" style="fill: #ffffff"/>
   </g>
   <g id="matplotlib.axis_1">
    <g id="xtick_1">
     <g id="line2d_1">
      <path d="M 69.144886 576.718125 
L 69.144886 22.318125 
" clip-path="url(#p5164409c22)" style="fill: none; stroke: #b0b0b0; stroke-width: 0.8; stroke-linecap: square"/>
     </g>
     <g id="line2d_2">
      <defs>
       <path id="m59490b06e0" d="M 0 0 
L 0 3.5 
" style="stroke: #000000; stroke-width: 0.8"/>
      </defs>
      <g>
       <use xlink:href="#m59490b06e0" x="69.144886" y="576.718125" style="stroke: #000000; stroke-width: 0.8"/>
      </g>
     </g>
     <g id="text_1">
      <!-- 0 -->
      <g transform="translate(65.963636 591.316563) scale(0.1 -0.1)">
       <defs>
        <path id="DejaVuSans-30" d="M 2034 4250 
Q 1547 4250 1301 3770 
Q 1056 3291 1056 2328 
Q 1056 1369 1301 889 
Q 1547 409 2034 409 
Q 2525 409 2770 889 
Q 3016 1369 3016 2328 
Q 3016 3291 2770 3770 
Q 2525 4250 2034 4250 
z
M 2034 4750 
Q 2819 4750 3233 4129 
Q 3647 3509 3647 2328 
Q 3647 1150 3233 529 
Q 2819 -91 2034 -91 
Q 1250 -91 836 529 
Q 422 1150 422 2328 
Q 422 3509 836 4129 
Q 1250 4750 2034 4750 
z
" transform="scale(0.015625)"/>
       </defs>
       <use xlink:href="#DejaVuSans-30"/>
      </g>
     </g>
    </g>
    <g id="xtick_2">
     <g id="line2d_3">
      <path d="M 132.633338 576.718125 
L 132.633338 22.318125 
" clip-path="url(#p5164409c22)" style="fill: none; stroke: #b0b0b0; stroke-width: 0.8; stroke-linecap: square"/>
     </g>
     <g id="line2d_4">
      <g>
       <use xlink:href="#m59490b06e0" x="132.633338" y="576.718125" style="stroke: #000000; stroke-width: 0.8"/>
      </g>
     </g>
     <g id="text_2">
      <!-- 100 -->
      <g transform="translate(123.089588 591.316563) scale(0.1 -0.1)">
       <defs>
        <path id="DejaVuSans-31" d="M 794 531 
L 1825 531 
L 1825 4091 
L 703 3866 
L 703 4441 
L 1819 4666 
L 2450 4666 
L 2450 531 
L 3481 531 
L 3481 0 
L 794 0 
L 794 531 
z
" transform="scale(0.015625)"/>
       </defs>
       <use xlink:href="#DejaVuSans-31"/>
       <use xlink:href="#DejaVuSans-30" transform="translate(63.623047 0)"/>
       <use xlink:href="#DejaVuSans-30" transform="translate(127.246094 0)"/>
      </g>
     </g>
    </g>
    <g id="xtick_3">
     <g id="line2d_5">
      <path d="M 196.121789 576.718125 
L 196.121789 22.318125 
" clip-path="url(#p5164409c22)" style="fill: none; stroke: #b0b0b0; stroke-width: 0.8; stroke-linecap: square"/>
     </g>
     <g id="line2d_6">
      <g>
       <use xlink:href="#m59490b06e0" x="196.121789" y="576.718125" style="stroke: #000000; stroke-width: 0.8"/>
      </g>
     </g>
     <g id="text_3">
      <!-- 200 -->
      <g transform="translate(186.578039 591.316563) scale(0.1 -0.1)">
       <defs>
        <path id="DejaVuSans-32" d="M 1228 531 
L 3431 531 
L 3431 0 
L 469 0 
L 469 531 
Q 828 903 1448 1529 
Q 2069 2156 2228 2338 
Q 2531 2678 2651 2914 
Q 2772 3150 2772 3378 
Q 2772 3750 2511 3984 
Q 2250 4219 1831 4219 
Q 1534 4219 1204 4116 
Q 875 4013 500 3803 
L 500 4441 
Q 881 4594 1212 4672 
Q 1544 4750 1819 4750 
Q 2544 4750 2975 4387 
Q 3406 4025 3406 3419 
Q 3406 3131 3298 2873 
Q 3191 2616 2906 2266 
Q 2828 2175 2409 1742 
Q 1991 1309 1228 531 
z
" transform="scale(0.015625)"/>
       </defs>
       <use xlink:href="#DejaVuSans-32"/>
       <use xlink:href="#DejaVuSans-30" transform="translate(63.623047 0)"/>
       <use xlink:href="#DejaVuSans-30" transform="translate(127.246094 0)"/>
      </g>
     </g>
    </g>
    <g id="xtick_4">
     <g id="line2d_7">
      <path d="M 259.610241 576.718125 
L 259.610241 22.318125 
" clip-path="url(#p5164409c22)" style="fill: none; stroke: #b0b0b0; stroke-width: 0.8; stroke-linecap: square"/>
     </g>
     <g id="line2d_8">
      <g>
       <use xlink:href="#m59490b06e0" x="259.610241" y="576.718125" style="stroke: #000000; stroke-width: 0.8"/>
      </g>
     </g>
     <g id="text_4">
      <!-- 300 -->
      <g transform="translate(250.066491 591.316563) scale(0.1 -0.1)">
       <defs>
        <path id="DejaVuSans-33" d="M 2597 2516 
Q 3050 2419 3304 2112 
Q 3559 1806 3559 1356 
Q 3559 666 3084 287 
Q 2609 -91 1734 -91 
Q 1441 -91 1130 -33 
Q 819 25 488 141 
L 488 750 
Q 750 597 1062 519 
Q 1375 441 1716 441 
Q 2309 441 2620 675 
Q 2931 909 2931 1356 
Q 2931 1769 2642 2001 
Q 2353 2234 1838 2234 
L 1294 2234 
L 1294 2753 
L 1863 2753 
Q 2328 2753 2575 2939 
Q 2822 3125 2822 3475 
Q 2822 3834 2567 4026 
Q 2313 4219 1838 4219 
Q 1578 4219 1281 4162 
Q 984 4106 628 3988 
L 628 4550 
Q 988 4650 1302 4700 
Q 1616 4750 1894 4750 
Q 2613 4750 3031 4423 
Q 3450 4097 3450 3541 
Q 3450 3153 3228 2886 
Q 3006 2619 2597 2516 
z
" transform="scale(0.015625)"/>
       </defs>
       <use xlink:href="#DejaVuSans-33"/>
       <use xlink:href="#DejaVuSans-30" transform="translate(63.623047 0)"/>
       <use xlink:href="#DejaVuSans-30" transform="translate(127.246094 0)"/>
      </g>
     </g>
    </g>
    <g id="xtick_5">
     <g id="line2d_9">
      <path d="M 323.098692 576.718125 
L 323.098692 22.318125 
" clip-path="url(#p5164409c22)" style="fill: none; stroke: #b0b0b0; stroke-width: 0.8; stroke-linecap: square"/>
     </g>
     <g id="line2d_10">
      <g>
       <use xlink:href="#m59490b06e0" x="323.098692" y="576.718125" style="stroke: #000000; stroke-width: 0.8"/>
      </g>
     </g>
     <g id="text_5">
      <!-- 400 -->
      <g transform="translate(313.554942 591.316563) scale(0.1 -0.1)">
       <defs>
        <path id="DejaVuSans-34" d="M 2419 4116 
L 825 1625 
L 2419 1625 
L 2419 4116 
z
M 2253 4666 
L 3047 4666 
L 3047 1625 
L 3713 1625 
L 3713 1100 
L 3047 1100 
L 3047 0 
L 2419 0 
L 2419 1100 
L 313 1100 
L 313 1709 
L 2253 4666 
z
" transform="scale(0.015625)"/>
       </defs>
       <use xlink:href="#DejaVuSans-34"/>
       <use xlink:href="#DejaVuSans-30" transform="translate(63.623047 0)"/>
       <use xlink:href="#DejaVuSans-30" transform="translate(127.246094 0)"/>
      </g>
     </g>
    </g>
    <g id="xtick_6">
     <g id="line2d_11">
      <path d="M 386.587144 576.718125 
L 386.587144 22.318125 
" clip-path="url(#p5164409c22)" style="fill: none; stroke: #b0b0b0; stroke-width: 0.8; stroke-linecap: square"/>
     </g>
     <g id="line2d_12">
      <g>
       <use xlink:href="#m59490b06e0" x="386.587144" y="576.718125" style="stroke: #000000; stroke-width: 0.8"/>
      </g>
     </g>
     <g id="text_6">
      <!-- 500 -->
      <g transform="translate(377.043394 591.316563) scale(0.1 -0.1)">
       <defs>
        <path id="DejaVuSans-35" d="M 691 4666 
L 3169 4666 
L 3169 4134 
L 1269 4134 
L 1269 2991 
Q 1406 3038 1543 3061 
Q 1681 3084 1819 3084 
Q 2600 3084 3056 2656 
Q 3513 2228 3513 1497 
Q 3513 744 3044 326 
Q 2575 -91 1722 -91 
Q 1428 -91 1123 -41 
Q 819 9 494 109 
L 494 744 
Q 775 591 1075 516 
Q 1375 441 1709 441 
Q 2250 441 2565 725 
Q 2881 1009 2881 1497 
Q 2881 1984 2565 2268 
Q 2250 2553 1709 2553 
Q 1456 2553 1204 2497 
Q 953 2441 691 2322 
L 691 4666 
z
" transform="scale(0.015625)"/>
       </defs>
       <use xlink:href="#DejaVuSans-35"/>
       <use xlink:href="#DejaVuSans-30" transform="translate(63.623047 0)"/>
       <use xlink:href="#DejaVuSans-30" transform="translate(127.246094 0)"/>
      </g>
     </g>
    </g>
    <g id="xtick_7">
     <g id="line2d_13">
      <path d="M 450.075595 576.718125 
L 450.075595 22.318125 
" clip-path="url(#p5164409c22)" style="fill: none; stroke: #b0b0b0; stroke-width: 0.8; stroke-linecap: square"/>
     </g>
     <g id="line2d_14">
      <g>
       <use xlink:href="#m59490b06e0" x="450.075595" y="576.718125" style="stroke: #000000; stroke-width: 0.8"/>
      </g>
     </g>
     <g id="text_7">
      <!-- 600 -->
      <g transform="translate(440.531845 591.316563) scale(0.1 -0.1)">
       <defs>
        <path id="DejaVuSans-36" d="M 2113 2584 
Q 1688 2584 1439 2293 
Q 1191 2003 1191 1497 
Q 1191 994 1439 701 
Q 1688 409 2113 409 
Q 2538 409 2786 701 
Q 3034 994 3034 1497 
Q 3034 2003 2786 2293 
Q 2538 2584 2113 2584 
z
M 3366 4563 
L 3366 3988 
Q 3128 4100 2886 4159 
Q 2644 4219 2406 4219 
Q 1781 4219 1451 3797 
Q 1122 3375 1075 2522 
Q 1259 2794 1537 2939 
Q 1816 3084 2150 3084 
Q 2853 3084 3261 2657 
Q 3669 2231 3669 1497 
Q 3669 778 3244 343 
Q 2819 -91 2113 -91 
Q 1303 -91 875 529 
Q 447 1150 447 2328 
Q 447 3434 972 4092 
Q 1497 4750 2381 4750 
Q 2619 4750 2861 4703 
Q 3103 4656 3366 4563 
z
" transform="scale(0.015625)"/>
       </defs>
       <use xlink:href="#DejaVuSans-36"/>
       <use xlink:href="#DejaVuSans-30" transform="translate(63.623047 0)"/>
       <use xlink:href="#DejaVuSans-30" transform="translate(127.246094 0)"/>
      </g>
     </g>
    </g>
    <g id="xtick_8">
     <g id="line2d_15">
      <path d="M 513.564047 576.718125 
L 513.564047 22.318125 
" clip-path="url(#p5164409c22)" style="fill: none; stroke: #b0b0b0; stroke-width: 0.8; stroke-linecap: square"/>
     </g>
     <g id="line2d_16">
      <g>
       <use xlink:href="#m59490b06e0" x="513.564047" y="576.718125" style="stroke: #000000; stroke-width: 0.8"/>
      </g>
     </g>
     <g id="text_8">
      <!-- 700 -->
      <g transform="translate(504.020297 591.316563) scale(0.1 -0.1)">
       <defs>
        <path id="DejaVuSans-37" d="M 525 4666 
L 3525 4666 
L 3525 4397 
L 1831 0 
L 1172 0 
L 2766 4134 
L 525 4134 
L 525 4666 
z
" transform="scale(0.015625)"/>
       </defs>
       <use xlink:href="#DejaVuSans-37"/>
       <use xlink:href="#DejaVuSans-30" transform="translate(63.623047 0)"/>
       <use xlink:href="#DejaVuSans-30" transform="translate(127.246094 0)"/>
      </g>
     </g>
    </g>
    <g id="xtick_9">
     <g id="line2d_17">
      <path d="M 577.052498 576.718125 
L 577.052498 22.318125 
" clip-path="url(#p5164409c22)" style="fill: none; stroke: #b0b0b0; stroke-width: 0.8; stroke-linecap: square"/>
     </g>
     <g id="line2d_18">
      <g>
       <use xlink:href="#m59490b06e0" x="577.052498" y="576.718125" style="stroke: #000000; stroke-width: 0.8"/>
      </g>
     </g>
     <g id="text_9">
      <!-- 800 -->
      <g transform="translate(567.508748 591.316563) scale(0.1 -0.1)">
       <defs>
        <path id="DejaVuSans-38" d="M 2034 2216 
Q 1584 2216 1326 1975 
Q 1069 1734 1069 1313 
Q 1069 891 1326 650 
Q 1584 409 2034 409 
Q 2484 409 2743 651 
Q 3003 894 3003 1313 
Q 3003 1734 2745 1975 
Q 2488 2216 2034 2216 
z
M 1403 2484 
Q 997 2584 770 2862 
Q 544 3141 544 3541 
Q 544 4100 942 4425 
Q 1341 4750 2034 4750 
Q 2731 4750 3128 4425 
Q 3525 4100 3525 3541 
Q 3525 3141 3298 2862 
Q 3072 2584 2669 2484 
Q 3125 2378 3379 2068 
Q 3634 1759 3634 1313 
Q 3634 634 3220 271 
Q 2806 -91 2034 -91 
Q 1263 -91 848 271 
Q 434 634 434 1313 
Q 434 1759 690 2068 
Q 947 2378 1403 2484 
z
M 1172 3481 
Q 1172 3119 1398 2916 
Q 1625 2713 2034 2713 
Q 2441 2713 2670 2916 
Q 2900 3119 2900 3481 
Q 2900 3844 2670 4047 
Q 2441 4250 2034 4250 
Q 1625 4250 1398 4047 
Q 1172 3844 1172 3481 
z
" transform="scale(0.015625)"/>
       </defs>
       <use xlink:href="#DejaVuSans-38"/>
       <use xlink:href="#DejaVuSans-30" transform="translate(63.623047 0)"/>
       <use xlink:href="#DejaVuSans-30" transform="translate(127.246094 0)"/>
      </g>
     </g>
    </g>
    <g id="text_10">
     <!-- Epochs -->
     <g transform="translate(304.865625 604.994688) scale(0.1 -0.1)">
      <defs>
       <path id="DejaVuSans-45" d="M 628 4666 
L 3578 4666 
L 3578 4134 
L 1259 4134 
L 1259 2753 
L 3481 2753 
L 3481 2222 
L 1259 2222 
L 1259 531 
L 3634 531 
L 3634 0 
L 628 0 
L 628 4666 
z
" transform="scale(0.015625)"/>
       <path id="DejaVuSans-70" d="M 1159 525 
L 1159 -1331 
L 581 -1331 
L 581 3500 
L 1159 3500 
L 1159 2969 
Q 1341 3281 1617 3432 
Q 1894 3584 2278 3584 
Q 2916 3584 3314 3078 
Q 3713 2572 3713 1747 
Q 3713 922 3314 415 
Q 2916 -91 2278 -91 
Q 1894 -91 1617 61 
Q 1341 213 1159 525 
z
M 3116 1747 
Q 3116 2381 2855 2742 
Q 2594 3103 2138 3103 
Q 1681 3103 1420 2742 
Q 1159 2381 1159 1747 
Q 1159 1113 1420 752 
Q 1681 391 2138 391 
Q 2594 391 2855 752 
Q 3116 1113 3116 1747 
z
" transform="scale(0.015625)"/>
       <path id="DejaVuSans-6f" d="M 1959 3097 
Q 1497 3097 1228 2736 
Q 959 2375 959 1747 
Q 959 1119 1226 758 
Q 1494 397 1959 397 
Q 2419 397 2687 759 
Q 2956 1122 2956 1747 
Q 2956 2369 2687 2733 
Q 2419 3097 1959 3097 
z
M 1959 3584 
Q 2709 3584 3137 3096 
Q 3566 2609 3566 1747 
Q 3566 888 3137 398 
Q 2709 -91 1959 -91 
Q 1206 -91 779 398 
Q 353 888 353 1747 
Q 353 2609 779 3096 
Q 1206 3584 1959 3584 
z
" transform="scale(0.015625)"/>
       <path id="DejaVuSans-63" d="M 3122 3366 
L 3122 2828 
Q 2878 2963 2633 3030 
Q 2388 3097 2138 3097 
Q 1578 3097 1268 2742 
Q 959 2388 959 1747 
Q 959 1106 1268 751 
Q 1578 397 2138 397 
Q 2388 397 2633 464 
Q 2878 531 3122 666 
L 3122 134 
Q 2881 22 2623 -34 
Q 2366 -91 2075 -91 
Q 1284 -91 818 406 
Q 353 903 353 1747 
Q 353 2603 823 3093 
Q 1294 3584 2113 3584 
Q 2378 3584 2631 3529 
Q 2884 3475 3122 3366 
z
" transform="scale(0.015625)"/>
       <path id="DejaVuSans-68" d="M 3513 2113 
L 3513 0 
L 2938 0 
L 2938 2094 
Q 2938 2591 2744 2837 
Q 2550 3084 2163 3084 
Q 1697 3084 1428 2787 
Q 1159 2491 1159 1978 
L 1159 0 
L 581 0 
L 581 4863 
L 1159 4863 
L 1159 2956 
Q 1366 3272 1645 3428 
Q 1925 3584 2291 3584 
Q 2894 3584 3203 3211 
Q 3513 2838 3513 2113 
z
" transform="scale(0.015625)"/>
       <path id="DejaVuSans-73" d="M 2834 3397 
L 2834 2853 
Q 2591 2978 2328 3040 
Q 2066 3103 1784 3103 
Q 1356 3103 1142 2972 
Q 928 2841 928 2578 
Q 928 2378 1081 2264 
Q 1234 2150 1697 2047 
L 1894 2003 
Q 2506 1872 2764 1633 
Q 3022 1394 3022 966 
Q 3022 478 2636 193 
Q 2250 -91 1575 -91 
Q 1294 -91 989 -36 
Q 684 19 347 128 
L 347 722 
Q 666 556 975 473 
Q 1284 391 1588 391 
Q 1994 391 2212 530 
Q 2431 669 2431 922 
Q 2431 1156 2273 1281 
Q 2116 1406 1581 1522 
L 1381 1569 
Q 847 1681 609 1914 
Q 372 2147 372 2553 
Q 372 3047 722 3315 
Q 1072 3584 1716 3584 
Q 2034 3584 2315 3537 
Q 2597 3491 2834 3397 
z
" transform="scale(0.015625)"/>
      </defs>
      <use xlink:href="#DejaVuSans-45"/>
      <use xlink:href="#DejaVuSans-70" transform="translate(63.183594 0)"/>
      <use xlink:href="#DejaVuSans-6f" transform="translate(126.660156 0)"/>
      <use xlink:href="#DejaVuSans-63" transform="translate(187.841797 0)"/>
      <use xlink:href="#DejaVuSans-68" transform="translate(242.822266 0)"/>
      <use xlink:href="#DejaVuSans-73" transform="translate(306.201172 0)"/>
     </g>
    </g>
   </g>
   <g id="matplotlib.axis_2">
    <g id="ytick_1">
     <g id="line2d_19">
      <path d="M 43.78125 553.927334 
L 601.78125 553.927334 
" clip-path="url(#p5164409c22)" style="fill: none; stroke: #b0b0b0; stroke-width: 0.8; stroke-linecap: square"/>
     </g>
     <g id="line2d_20">
      <defs>
       <path id="m16e1af4872" d="M 0 0 
L -3.5 0 
" style="stroke: #000000; stroke-width: 0.8"/>
      </defs>
      <g>
       <use xlink:href="#m16e1af4872" x="43.78125" y="553.927334" style="stroke: #000000; stroke-width: 0.8"/>
      </g>
     </g>
     <g id="text_11">
      <!-- 0.0 -->
      <g transform="translate(20.878125 557.726552) scale(0.1 -0.1)">
       <defs>
        <path id="DejaVuSans-2e" d="M 684 794 
L 1344 794 
L 1344 0 
L 684 0 
L 684 794 
z
" transform="scale(0.015625)"/>
       </defs>
       <use xlink:href="#DejaVuSans-30"/>
       <use xlink:href="#DejaVuSans-2e" transform="translate(63.623047 0)"/>
       <use xlink:href="#DejaVuSans-30" transform="translate(95.410156 0)"/>
      </g>
     </g>
    </g>
    <g id="ytick_2">
     <g id="line2d_21">
      <path d="M 43.78125 492.251593 
L 601.78125 492.251593 
" clip-path="url(#p5164409c22)" style="fill: none; stroke: #b0b0b0; stroke-width: 0.8; stroke-linecap: square"/>
     </g>
     <g id="line2d_22">
      <g>
       <use xlink:href="#m16e1af4872" x="43.78125" y="492.251593" style="stroke: #000000; stroke-width: 0.8"/>
      </g>
     </g>
     <g id="text_12">
      <!-- 0.1 -->
      <g transform="translate(20.878125 496.050812) scale(0.1 -0.1)">
       <use xlink:href="#DejaVuSans-30"/>
       <use xlink:href="#DejaVuSans-2e" transform="translate(63.623047 0)"/>
       <use xlink:href="#DejaVuSans-31" transform="translate(95.410156 0)"/>
      </g>
     </g>
    </g>
    <g id="ytick_3">
     <g id="line2d_23">
      <path d="M 43.78125 430.575853 
L 601.78125 430.575853 
" clip-path="url(#p5164409c22)" style="fill: none; stroke: #b0b0b0; stroke-width: 0.8; stroke-linecap: square"/>
     </g>
     <g id="line2d_24">
      <g>
       <use xlink:href="#m16e1af4872" x="43.78125" y="430.575853" style="stroke: #000000; stroke-width: 0.8"/>
      </g>
     </g>
     <g id="text_13">
      <!-- 0.2 -->
      <g transform="translate(20.878125 434.375072) scale(0.1 -0.1)">
       <use xlink:href="#DejaVuSans-30"/>
       <use xlink:href="#DejaVuSans-2e" transform="translate(63.623047 0)"/>
       <use xlink:href="#DejaVuSans-32" transform="translate(95.410156 0)"/>
      </g>
     </g>
    </g>
    <g id="ytick_4">
     <g id="line2d_25">
      <path d="M 43.78125 368.900113 
L 601.78125 368.900113 
" clip-path="url(#p5164409c22)" style="fill: none; stroke: #b0b0b0; stroke-width: 0.8; stroke-linecap: square"/>
     </g>
     <g id="line2d_26">
      <g>
       <use xlink:href="#m16e1af4872" x="43.78125" y="368.900113" style="stroke: #000000; stroke-width: 0.8"/>
      </g>
     </g>
     <g id="text_14">
      <!-- 0.3 -->
      <g transform="translate(20.878125 372.699331) scale(0.1 -0.1)">
       <use xlink:href="#DejaVuSans-30"/>
       <use xlink:href="#DejaVuSans-2e" transform="translate(63.623047 0)"/>
       <use xlink:href="#DejaVuSans-33" transform="translate(95.410156 0)"/>
      </g>
     </g>
    </g>
    <g id="ytick_5">
     <g id="line2d_27">
      <path d="M 43.78125 307.224372 
L 601.78125 307.224372 
" clip-path="url(#p5164409c22)" style="fill: none; stroke: #b0b0b0; stroke-width: 0.8; stroke-linecap: square"/>
     </g>
     <g id="line2d_28">
      <g>
       <use xlink:href="#m16e1af4872" x="43.78125" y="307.224372" style="stroke: #000000; stroke-width: 0.8"/>
      </g>
     </g>
     <g id="text_15">
      <!-- 0.4 -->
      <g transform="translate(20.878125 311.023591) scale(0.1 -0.1)">
       <use xlink:href="#DejaVuSans-30"/>
       <use xlink:href="#DejaVuSans-2e" transform="translate(63.623047 0)"/>
       <use xlink:href="#DejaVuSans-34" transform="translate(95.410156 0)"/>
      </g>
     </g>
    </g>
    <g id="ytick_6">
     <g id="line2d_29">
      <path d="M 43.78125 245.548632 
L 601.78125 245.548632 
" clip-path="url(#p5164409c22)" style="fill: none; stroke: #b0b0b0; stroke-width: 0.8; stroke-linecap: square"/>
     </g>
     <g id="line2d_30">
      <g>
       <use xlink:href="#m16e1af4872" x="43.78125" y="245.548632" style="stroke: #000000; stroke-width: 0.8"/>
      </g>
     </g>
     <g id="text_16">
      <!-- 0.5 -->
      <g transform="translate(20.878125 249.347851) scale(0.1 -0.1)">
       <use xlink:href="#DejaVuSans-30"/>
       <use xlink:href="#DejaVuSans-2e" transform="translate(63.623047 0)"/>
       <use xlink:href="#DejaVuSans-35" transform="translate(95.410156 0)"/>
      </g>
     </g>
    </g>
    <g id="ytick_7">
     <g id="line2d_31">
      <path d="M 43.78125 183.872892 
L 601.78125 183.872892 
" clip-path="url(#p5164409c22)" style="fill: none; stroke: #b0b0b0; stroke-width: 0.8; stroke-linecap: square"/>
     </g>
     <g id="line2d_32">
      <g>
       <use xlink:href="#m16e1af4872" x="43.78125" y="183.872892" style="stroke: #000000; stroke-width: 0.8"/>
      </g>
     </g>
     <g id="text_17">
      <!-- 0.6 -->
      <g transform="translate(20.878125 187.67211) scale(0.1 -0.1)">
       <use xlink:href="#DejaVuSans-30"/>
       <use xlink:href="#DejaVuSans-2e" transform="translate(63.623047 0)"/>
       <use xlink:href="#DejaVuSans-36" transform="translate(95.410156 0)"/>
      </g>
     </g>
    </g>
    <g id="ytick_8">
     <g id="line2d_33">
      <path d="M 43.78125 122.197151 
L 601.78125 122.197151 
" clip-path="url(#p5164409c22)" style="fill: none; stroke: #b0b0b0; stroke-width: 0.8; stroke-linecap: square"/>
     </g>
     <g id="line2d_34">
      <g>
       <use xlink:href="#m16e1af4872" x="43.78125" y="122.197151" style="stroke: #000000; stroke-width: 0.8"/>
      </g>
     </g>
     <g id="text_18">
      <!-- 0.7 -->
      <g transform="translate(20.878125 125.99637) scale(0.1 -0.1)">
       <use xlink:href="#DejaVuSans-30"/>
       <use xlink:href="#DejaVuSans-2e" transform="translate(63.623047 0)"/>
       <use xlink:href="#DejaVuSans-37" transform="translate(95.410156 0)"/>
      </g>
     </g>
    </g>
    <g id="ytick_9">
     <g id="line2d_35">
      <path d="M 43.78125 60.521411 
L 601.78125 60.521411 
" clip-path="url(#p5164409c22)" style="fill: none; stroke: #b0b0b0; stroke-width: 0.8; stroke-linecap: square"/>
     </g>
     <g id="line2d_36">
      <g>
       <use xlink:href="#m16e1af4872" x="43.78125" y="60.521411" style="stroke: #000000; stroke-width: 0.8"/>
      </g>
     </g>
     <g id="text_19">
      <!-- 0.8 -->
      <g transform="translate(20.878125 64.32063) scale(0.1 -0.1)">
       <use xlink:href="#DejaVuSans-30"/>
       <use xlink:href="#DejaVuSans-2e" transform="translate(63.623047 0)"/>
       <use xlink:href="#DejaVuSans-38" transform="translate(95.410156 0)"/>
      </g>
     </g>
    </g>
    <g id="text_20">
     <!-- Accuracy -->
     <g transform="translate(14.798438 322.34625) rotate(-90) scale(0.1 -0.1)">
      <defs>
       <path id="DejaVuSans-41" d="M 2188 4044 
L 1331 1722 
L 3047 1722 
L 2188 4044 
z
M 1831 4666 
L 2547 4666 
L 4325 0 
L 3669 0 
L 3244 1197 
L 1141 1197 
L 716 0 
L 50 0 
L 1831 4666 
z
" transform="scale(0.015625)"/>
       <path id="DejaVuSans-75" d="M 544 1381 
L 544 3500 
L 1119 3500 
L 1119 1403 
Q 1119 906 1312 657 
Q 1506 409 1894 409 
Q 2359 409 2629 706 
Q 2900 1003 2900 1516 
L 2900 3500 
L 3475 3500 
L 3475 0 
L 2900 0 
L 2900 538 
Q 2691 219 2414 64 
Q 2138 -91 1772 -91 
Q 1169 -91 856 284 
Q 544 659 544 1381 
z
M 1991 3584 
L 1991 3584 
z
" transform="scale(0.015625)"/>
       <path id="DejaVuSans-72" d="M 2631 2963 
Q 2534 3019 2420 3045 
Q 2306 3072 2169 3072 
Q 1681 3072 1420 2755 
Q 1159 2438 1159 1844 
L 1159 0 
L 581 0 
L 581 3500 
L 1159 3500 
L 1159 2956 
Q 1341 3275 1631 3429 
Q 1922 3584 2338 3584 
Q 2397 3584 2469 3576 
Q 2541 3569 2628 3553 
L 2631 2963 
z
" transform="scale(0.015625)"/>
       <path id="DejaVuSans-61" d="M 2194 1759 
Q 1497 1759 1228 1600 
Q 959 1441 959 1056 
Q 959 750 1161 570 
Q 1363 391 1709 391 
Q 2188 391 2477 730 
Q 2766 1069 2766 1631 
L 2766 1759 
L 2194 1759 
z
M 3341 1997 
L 3341 0 
L 2766 0 
L 2766 531 
Q 2569 213 2275 61 
Q 1981 -91 1556 -91 
Q 1019 -91 701 211 
Q 384 513 384 1019 
Q 384 1609 779 1909 
Q 1175 2209 1959 2209 
L 2766 2209 
L 2766 2266 
Q 2766 2663 2505 2880 
Q 2244 3097 1772 3097 
Q 1472 3097 1187 3025 
Q 903 2953 641 2809 
L 641 3341 
Q 956 3463 1253 3523 
Q 1550 3584 1831 3584 
Q 2591 3584 2966 3190 
Q 3341 2797 3341 1997 
z
" transform="scale(0.015625)"/>
       <path id="DejaVuSans-79" d="M 2059 -325 
Q 1816 -950 1584 -1140 
Q 1353 -1331 966 -1331 
L 506 -1331 
L 506 -850 
L 844 -850 
Q 1081 -850 1212 -737 
Q 1344 -625 1503 -206 
L 1606 56 
L 191 3500 
L 800 3500 
L 1894 763 
L 2988 3500 
L 3597 3500 
L 2059 -325 
z
" transform="scale(0.015625)"/>
      </defs>
      <use xlink:href="#DejaVuSans-41"/>
      <use xlink:href="#DejaVuSans-63" transform="translate(66.658203 0)"/>
      <use xlink:href="#DejaVuSans-63" transform="translate(121.638672 0)"/>
      <use xlink:href="#DejaVuSans-75" transform="translate(176.619141 0)"/>
      <use xlink:href="#DejaVuSans-72" transform="translate(239.998047 0)"/>
      <use xlink:href="#DejaVuSans-61" transform="translate(281.111328 0)"/>
      <use xlink:href="#DejaVuSans-63" transform="translate(342.390625 0)"/>
      <use xlink:href="#DejaVuSans-79" transform="translate(397.371094 0)"/>
     </g>
    </g>
   </g>
   <g id="line2d_37">
    <path d="M 69.144886 394.999228 
L 69.779771 388.927589 
L 70.414655 386.916288 
L 71.04954 385.501169 
L 71.684424 384.891257 
L 74.223962 381.341483 
L 74.858847 380.09769 
L 75.493732 379.861258 
L 76.128616 378.826474 
L 76.763501 378.161751 
L 77.398385 376.897409 
L 78.03327 376.075052 
L 78.668154 374.796998 
L 79.303039 373.930104 
L 80.572808 371.723488 
L 81.207692 371.511043 
L 81.842577 369.660776 
L 82.477461 369.085145 
L 83.112346 367.988675 
L 83.74723 366.511887 
L 84.382115 365.696405 
L 85.016999 364.623922 
L 85.651884 363.794727 
L 86.286768 362.341927 
L 86.921653 361.790264 
L 87.556537 360.231241 
L 88.191422 359.035422 
L 88.826306 358.494053 
L 92.635613 352.096908 
L 93.270498 350.647527 
L 93.905382 350.130126 
L 95.810036 346.395312 
L 96.44492 345.52158 
L 97.079805 344.298338 
L 97.71469 343.86661 
L 98.984459 341.194004 
L 99.619343 340.38194 
L 100.254228 339.326588 
L 100.889112 338.038259 
L 101.523997 337.287863 
L 102.158881 336.009809 
L 102.793766 335.533544 
L 103.42865 334.094437 
L 105.968188 330.5892 
L 106.603073 328.886255 
L 107.237957 328.098178 
L 108.507726 326.059453 
L 109.142611 325.144604 
L 109.777495 323.64383 
L 110.41238 323.006512 
L 111.047264 321.769576 
L 112.317033 319.82678 
L 113.586802 317.534492 
L 114.221687 316.821795 
L 114.856571 315.649963 
L 115.491456 314.988659 
L 116.12634 314.121783 
L 116.761225 312.730651 
L 117.396109 310.863234 
L 118.030994 311.051693 
L 118.665879 309.533788 
L 119.300763 308.694318 
L 120.570532 306.384899 
L 121.840301 305.089714 
L 122.475186 303.530673 
L 123.11007 302.704915 
L 123.744955 301.615301 
L 125.014724 300.046003 
L 125.649608 298.558923 
L 126.284493 297.921624 
L 126.919377 296.7018 
L 127.554262 296.222098 
L 128.189146 295.279843 
L 129.458915 293.059515 
L 130.0938 292.120661 
L 130.728684 291.569016 
L 131.363569 290.462271 
L 131.998453 289.855796 
L 132.633338 288.077472 
L 133.268222 288.135739 
L 133.903107 286.902222 
L 134.537991 285.987354 
L 135.172876 284.757274 
L 135.80776 284.346096 
L 136.442645 283.338736 
L 137.077529 282.588339 
L 137.712414 281.001911 
L 138.347298 281.145814 
L 138.982183 279.860904 
L 139.617067 279.388058 
L 140.886837 277.695406 
L 141.521721 277.119756 
L 142.156606 275.886239 
L 142.79149 274.978246 
L 144.061259 273.881776 
L 144.696144 272.49408 
L 145.331028 271.449021 
L 145.965913 271.044699 
L 146.600797 269.62616 
L 147.235682 269.211563 
L 148.505451 267.234505 
L 149.140335 267.272204 
L 149.77522 266.843895 
L 150.410104 265.113545 
L 151.044989 264.524201 
L 152.314758 262.75617 
L 152.949642 262.218219 
L 153.584527 261.964656 
L 154.854296 259.531901 
L 155.48918 259.435953 
L 156.124065 258.27096 
L 156.758949 257.70904 
L 158.028718 255.910148 
L 159.298487 254.635531 
L 160.568256 253.148451 
L 161.203141 252.771552 
L 162.47291 250.93156 
L 163.107795 250.962385 
L 163.742679 249.735724 
L 164.377564 249.112118 
L 165.012448 248.82773 
L 165.647333 248.276067 
L 166.282217 246.953477 
L 166.917102 246.590272 
L 168.186871 244.681756 
L 168.821755 244.698887 
L 169.45664 243.307755 
L 170.091524 242.862314 
L 171.361293 241.282742 
L 171.996178 240.905825 
L 172.631062 239.922452 
L 173.265947 239.401613 
L 173.900831 238.685497 
L 174.535716 238.839676 
L 175.1706 237.311496 
L 176.440369 235.975174 
L 177.075254 235.433823 
L 177.710138 234.597754 
L 178.345023 234.094083 
L 179.614792 232.569322 
L 180.249676 231.651017 
L 181.519445 230.969163 
L 182.15433 230.335282 
L 182.789215 229.27993 
L 183.424099 229.125752 
L 184.058984 228.063562 
L 184.693868 227.58386 
L 185.328753 227.522174 
L 185.963637 226.158465 
L 186.598522 226.100198 
L 187.233406 224.959228 
L 189.13806 223.108943 
L 189.772944 222.430508 
L 190.407829 222.416796 
L 191.042713 221.419711 
L 191.677598 220.145076 
L 192.312482 220.539123 
L 192.947367 219.908662 
L 193.582251 218.479848 
L 194.217136 218.445586 
L 194.85202 217.914492 
L 195.486905 216.951632 
L 196.121789 216.54049 
L 196.756674 215.587923 
L 197.391558 215.567373 
L 199.296212 213.408732 
L 199.931096 213.302491 
L 205.010173 208.286223 
L 205.645057 208.33416 
L 206.279942 207.066399 
L 206.914826 207.162347 
L 207.549711 206.134419 
L 208.184595 205.545057 
L 208.81948 205.29835 
L 209.454364 204.887171 
L 210.089249 204.003165 
L 211.359018 202.903294 
L 211.993902 202.461273 
L 212.628787 201.823973 
L 213.263671 201.573811 
L 213.898556 200.443097 
L 214.53344 199.939426 
L 215.168325 199.589934 
L 216.438094 198.452346 
L 217.072978 198.116565 
L 217.707863 197.993193 
L 218.342747 196.766532 
L 218.977632 196.465014 
L 220.247401 195.18696 
L 220.882285 195.0362 
L 221.51717 193.93633 
L 222.152054 194.01511 
L 222.786939 193.621099 
L 223.421823 192.528066 
L 224.691592 191.829044 
L 225.326477 191.633767 
L 225.961362 190.574995 
L 226.596246 190.667488 
L 228.5009 188.998842 
L 229.135784 188.042856 
L 230.405553 187.508342 
L 231.040438 186.226833 
L 231.675322 186.45299 
L 232.310207 185.514135 
L 232.945091 185.192067 
L 234.21486 183.879751 
L 234.849745 183.588489 
L 235.484629 183.523384 
L 236.119514 182.283011 
L 236.754398 182.444063 
L 237.389283 181.690267 
L 238.024167 181.5909 
L 239.293936 180.192893 
L 239.928821 180.055846 
L 240.563705 180.096982 
L 241.19859 179.034755 
L 241.833474 178.85319 
L 242.468359 178.219273 
L 243.103243 177.225606 
L 243.738128 177.417502 
L 244.373012 177.139952 
L 245.007897 176.016076 
L 245.642781 175.522699 
L 246.277666 174.830551 
L 246.91255 174.8922 
L 247.547435 174.261739 
L 249.452089 173.141319 
L 250.086973 171.948919 
L 250.721858 172.13394 
L 251.356742 171.356138 
L 251.991627 171.359557 
L 252.626511 170.485844 
L 253.261396 170.585211 
L 253.89628 169.632644 
L 254.531165 169.423654 
L 255.166049 169.070706 
L 255.800934 168.484799 
L 256.435818 168.114757 
L 257.070703 167.504845 
L 257.705587 166.562572 
L 258.340472 166.939489 
L 258.975356 166.08287 
L 259.610241 165.705953 
L 260.245125 165.106334 
L 260.88001 164.93157 
L 261.514894 163.927647 
L 262.149779 163.903642 
L 262.784663 163.478788 
L 263.419548 163.506175 
L 264.054432 163.043641 
L 264.689317 162.190441 
L 265.324201 162.084236 
L 265.959086 161.025465 
L 266.59397 161.426351 
L 267.863739 159.77138 
L 268.498624 159.702856 
L 269.133509 159.312227 
L 269.768393 158.441933 
L 270.403278 158.589274 
L 271.673047 157.674424 
L 272.307931 157.002826 
L 273.5777 156.413464 
L 274.212585 155.570594 
L 274.847469 155.306756 
L 275.482354 155.323887 
L 276.117238 154.642033 
L 276.752123 154.573473 
L 277.387007 153.901911 
L 278.021892 153.035036 
L 278.656776 153.302293 
L 280.56143 152.202386 
L 281.196314 151.338929 
L 281.831199 151.63361 
L 282.466083 150.99973 
L 283.100968 149.964927 
L 283.735852 150.057456 
L 285.005621 149.056952 
L 285.640506 148.878769 
L 286.27539 148.8959 
L 286.910275 148.104386 
L 287.545159 147.658945 
L 288.180044 147.532191 
L 288.814928 146.713253 
L 289.449813 146.250682 
L 290.084697 146.024561 
L 290.719582 145.520854 
L 291.354467 145.260434 
L 291.989351 144.756764 
L 292.624236 144.472376 
L 293.25912 144.057778 
L 293.894005 143.232002 
L 294.528889 143.389636 
L 295.163774 142.60496 
L 295.798658 142.755719 
L 296.433543 141.498215 
L 297.068427 141.738084 
L 297.703312 141.470827 
L 298.973081 140.463449 
L 299.607965 139.795307 
L 300.877734 139.312186 
L 301.512619 138.650881 
L 302.147503 138.534384 
L 302.782388 138.092362 
L 303.417272 138.085525 
L 304.687041 137.043885 
L 305.321926 137.160382 
L 305.95681 136.187266 
L 306.591695 136.300344 
L 307.226579 135.23128 
L 307.861464 135.392333 
L 308.496348 135.162756 
L 309.131233 134.032043 
L 309.766117 134.405504 
L 311.670771 133.165167 
L 312.305656 132.212601 
L 312.94054 132.658041 
L 313.575425 132.325679 
L 314.210309 131.695218 
L 314.845194 131.414249 
L 315.480078 130.752944 
L 316.114963 130.859149 
L 317.384732 129.6051 
L 318.019616 129.601681 
L 318.654501 129.358393 
L 319.289385 128.947214 
L 319.92427 128.299622 
L 321.194039 127.675998 
L 321.828923 127.837051 
L 323.098692 126.565834 
L 323.733577 126.428787 
L 324.368461 126.771442 
L 325.003346 125.544781 
L 325.63823 125.047948 
L 326.273115 125.531069 
L 326.907999 124.742973 
L 327.542884 124.314701 
L 328.177768 123.608841 
L 328.812653 123.756181 
L 330.082422 122.426735 
L 330.717306 122.351337 
L 331.987075 121.669482 
L 332.62196 121.977876 
L 333.891729 121.04244 
L 334.526614 120.38801 
L 335.161498 120.295481 
L 335.796383 119.781517 
L 336.431267 119.997381 
L 337.066152 119.370338 
L 337.701036 119.061982 
L 338.335921 119.226453 
L 338.970805 118.414389 
L 340.240574 118.085446 
L 341.510343 116.766256 
L 342.145228 116.889628 
L 343.414997 116.276298 
L 344.049881 115.481365 
L 344.684766 115.258626 
L 345.31965 115.241495 
L 347.224304 114.323227 
L 347.859188 113.535132 
L 348.494073 114.001122 
L 349.128957 113.655048 
L 349.763842 112.702518 
L 350.398726 112.932094 
L 351.033611 112.274209 
L 351.668495 111.801381 
L 352.30338 111.708852 
L 352.938264 111.904166 
L 353.573149 111.520412 
L 354.208033 110.694636 
L 354.842918 110.619238 
L 355.477803 110.163541 
L 356.112687 110.067593 
L 356.747572 109.279498 
L 357.382456 109.073927 
L 358.017341 109.070508 
L 358.652225 109.193843 
L 359.28711 108.556544 
L 359.921994 108.577094 
L 361.191763 107.809585 
L 361.826648 106.935835 
L 362.461532 106.959804 
L 363.096417 106.675416 
L 363.731301 105.883902 
L 365.00107 105.541284 
L 365.635955 105.55154 
L 366.270839 105.411074 
L 367.540608 104.400277 
L 368.810377 104.307748 
L 370.715031 103.320956 
L 371.349915 103.142773 
L 371.9848 102.313578 
L 372.619684 102.097714 
L 373.254569 102.114845 
L 373.889453 102.018897 
L 375.159222 101.169152 
L 375.794107 101.086917 
L 376.428991 100.71 
L 377.063876 100.884765 
L 377.698761 100.699743 
L 378.333645 99.918486 
L 378.96853 99.555318 
L 379.603414 99.610129 
L 380.238299 99.085872 
L 380.873183 99.079034 
L 381.508068 98.654144 
L 382.142952 98.575327 
L 382.777837 98.236128 
L 383.412721 97.639928 
L 384.047606 97.869504 
L 384.68249 97.410352 
L 385.317375 96.718204 
L 385.952259 96.516052 
L 386.587144 96.14601 
L 387.856913 96.20424 
L 388.491797 95.916433 
L 389.126682 95.817067 
L 389.761566 94.799432 
L 391.031335 94.895343 
L 391.66622 94.494458 
L 392.301104 94.569856 
L 392.935989 94.336861 
L 393.570873 93.750918 
L 394.205758 93.398006 
L 394.840642 93.377456 
L 395.475527 93.607033 
L 396.110411 92.178183 
L 396.745296 92.726408 
L 397.38018 92.020586 
L 398.015065 92.243287 
L 398.64995 91.516915 
L 399.284834 92.150795 
L 399.919719 90.961815 
L 400.554603 90.920715 
L 401.189488 90.413589 
L 401.824372 91.215359 
L 402.459257 90.036672 
L 403.094141 90.060677 
L 403.729026 89.437053 
L 404.36391 89.820808 
L 404.998795 89.262289 
L 405.633679 88.933383 
L 406.268564 88.953932 
L 406.903448 88.679801 
L 407.538333 87.830057 
L 408.173217 87.593643 
L 408.808102 87.908873 
L 409.442986 87.994528 
L 410.712755 86.77816 
L 411.34764 87.669004 
L 411.982524 86.599976 
L 412.617409 86.476605 
L 413.252293 85.849599 
L 413.887178 85.688546 
L 414.522062 85.918122 
L 415.156947 85.613148 
L 415.791831 85.592598 
L 416.426716 84.763403 
L 417.0616 84.962137 
L 417.696485 84.492728 
L 418.331369 84.403618 
L 419.601138 84.557832 
L 420.236023 84.198047 
L 420.870908 83.451088 
L 421.505792 83.248936 
L 422.140677 83.680664 
L 423.410446 82.443709 
L 424.04533 83.146113 
L 424.680215 82.12506 
L 425.315099 82.121641 
L 425.949984 81.768693 
L 426.584868 81.868059 
L 427.219753 81.148524 
L 427.854637 81.614515 
L 428.489522 80.960048 
L 429.759291 80.315911 
L 430.394175 80.480382 
L 431.02906 79.531234 
L 431.663944 79.695706 
L 432.298829 79.729968 
L 433.568598 79.202291 
L 434.203482 79.44558 
L 434.838367 78.554699 
L 435.473251 78.832249 
L 436.74302 78.116133 
L 437.377905 78.373097 
L 438.012789 77.475378 
L 439.282558 78.06474 
L 439.917443 76.800362 
L 440.552327 76.677026 
L 441.187212 77.324619 
L 442.456981 76.046565 
L 443.091866 76.755843 
L 443.72675 75.618255 
L 444.361635 75.847832 
L 444.996519 75.566863 
L 446.266288 75.621674 
L 446.901173 75.104291 
L 447.536057 75.083742 
L 448.805826 74.782223 
L 449.440711 74.789061 
L 450.075595 73.908473 
L 450.71048 74.216866 
L 451.345364 74.388175 
L 451.980249 74.281971 
L 452.615133 73.528138 
L 453.250018 72.990205 
L 453.884902 73.377378 
L 454.519787 72.627 
L 455.789556 72.866833 
L 456.42444 72.263796 
L 457.059325 72.291183 
L 457.694209 71.972533 
L 458.329094 71.410596 
L 458.963978 71.571648 
L 459.598863 71.297517 
L 460.233747 71.400339 
L 460.868632 71.057684 
L 461.503516 71.026841 
L 462.138401 70.084568 
L 462.773285 70.663636 
L 463.40817 69.776211 
L 464.043055 70.341568 
L 464.677939 69.913259 
L 465.312824 69.659714 
L 465.947708 69.882416 
L 466.582593 69.389001 
L 467.852362 69.173137 
L 468.487246 68.744828 
L 469.757015 68.772252 
L 470.3919 68.463859 
L 471.026784 67.956769 
L 472.296553 67.967026 
L 472.931438 67.343439 
L 473.566322 67.881371 
L 474.201207 67.316014 
L 474.836091 67.80601 
L 475.470976 67.281753 
L 476.10586 67.10015 
L 476.740745 66.565636 
L 477.375629 66.294961 
L 478.010514 66.380615 
L 478.645398 66.089353 
L 479.280283 66.171589 
L 479.915167 65.9283 
L 480.550052 65.942013 
L 481.184936 65.380075 
L 481.819821 65.57197 
L 482.454705 65.133368 
L 483.08959 65.188216 
L 483.724474 65.489735 
L 484.994244 64.156869 
L 485.629128 64.592016 
L 486.264013 64.540623 
L 486.898897 64.036916 
L 487.533782 63.834764 
L 488.168666 63.752528 
L 488.803551 63.310507 
L 490.07332 63.80734 
L 490.708204 63.646324 
L 491.343089 62.957595 
L 492.612858 62.649239 
L 493.247742 62.913077 
L 493.882627 62.611521 
L 494.517511 62.464181 
L 495.152396 62.717762 
L 495.78728 62.549872 
L 496.422165 62.042746 
L 497.057049 61.302624 
L 497.691934 61.748065 
L 498.326818 61.258106 
L 498.961703 62.272322 
L 499.596587 60.47343 
L 500.231472 61.213551 
L 500.866356 60.822922 
L 501.501241 60.792116 
L 502.136125 60.894901 
L 502.77101 60.470011 
L 504.040779 60.356932 
L 505.310548 59.712758 
L 505.945433 60.26444 
L 506.580317 59.589423 
L 507.215202 59.233056 
L 507.850086 60.055413 
L 508.484971 59.349554 
L 509.119855 59.253643 
L 509.75474 59.373559 
L 510.389624 58.934956 
L 511.659393 58.253102 
L 512.294278 58.763647 
L 512.929162 58.119474 
L 513.564047 58.092086 
L 514.198931 57.680908 
L 514.833816 57.790531 
L 515.4687 57.430782 
L 516.103585 57.444494 
L 516.738469 57.132682 
L 517.373354 57.201206 
L 518.008238 57.047027 
L 518.643123 57.674033 
L 519.278007 57.064158 
L 519.912892 57.081289 
L 520.547776 56.091042 
L 521.182661 56.903106 
L 521.817545 56.759184 
L 522.45243 57.115551 
L 523.087314 55.984801 
L 523.722199 56.306906 
L 524.357083 55.909439 
L 524.991968 55.786068 
L 525.626852 56.190408 
L 526.261737 55.381763 
L 526.896621 55.878596 
L 528.166391 55.028852 
L 528.801275 55.265266 
L 530.071044 55.169318 
L 530.705929 54.723878 
L 531.340813 55.114506 
L 531.975698 53.819322 
L 532.610582 54.559406 
L 533.245467 53.65485 
L 533.880351 54.436071 
L 534.515236 53.757636 
L 535.785005 53.298483 
L 536.419889 53.80561 
L 537.054774 53.325907 
L 537.689658 53.480085 
L 538.324543 53.791897 
L 538.959427 52.853043 
L 539.594312 52.846205 
L 540.864081 53.22996 
L 541.498965 52.647472 
L 542.13385 52.596079 
L 542.768734 53.730211 
L 543.403619 52.681734 
L 544.038503 52.366503 
L 544.673388 52.524137 
L 545.308272 52.243168 
L 545.943157 52.133508 
L 546.578041 52.59266 
L 547.212926 51.917644 
L 547.84781 52.054691 
L 548.482695 51.588701 
L 549.11758 51.314606 
L 549.752464 52.496713 
L 550.387349 51.509884 
L 551.022233 51.934775 
L 551.657118 51.136423 
L 552.292002 51.688067 
L 554.196656 50.684145 
L 554.83154 51.177522 
L 555.466425 51.06448 
L 556.101309 50.314066 
L 556.736194 50.817773 
L 557.371078 50.855454 
L 558.640847 50.365458 
L 559.275732 49.728159 
L 559.910616 50.293516 
L 560.545501 49.837819 
L 561.180385 50.077652 
L 561.81527 50.187312 
L 562.450154 49.628793 
L 563.085039 49.861788 
L 563.719923 49.070274 
L 564.354808 49.502002 
L 564.989692 49.46774 
L 565.624577 49.231326 
L 566.259461 49.392379 
L 566.894346 49.039431 
L 567.52923 49.289557 
L 568.164115 48.741331 
L 568.798999 48.580315 
L 569.433884 48.89209 
L 570.068768 49.334112 
L 570.703653 48.542597 
L 571.338538 48.665969 
L 571.973422 48.189686 
L 572.608307 48.546053 
L 573.878076 48.518629 
L 574.51296 48.04922 
L 575.147845 47.905298 
L 575.782729 47.518125 
L 576.417614 47.987534 
L 576.417614 47.987534 
" clip-path="url(#p5164409c22)" style="fill: none; stroke: #1f77b4; stroke-width: 1.5; stroke-linecap: square"/>
   </g>
   <g id="line2d_38">
    <path d="M 69.144886 391.288401 
L 69.779771 391.535108 
L 70.414655 392.521918 
L 71.04954 389.407291 
L 71.684424 389.592331 
L 72.319309 392.059347 
L 72.954193 390.640809 
L 74.223962 390.147413 
L 74.858847 391.627619 
L 75.493732 388.883053 
L 76.128616 390.640809 
L 76.763501 389.83902 
L 77.398385 389.715666 
L 78.03327 391.504265 
L 78.668154 390.702495 
L 79.303039 392.491075 
L 79.937923 391.750972 
L 81.207692 394.588049 
L 81.842577 395.266485 
L 82.477461 393.292864 
L 83.112346 394.95811 
L 83.74723 393.601239 
L 84.382115 398.072737 
L 85.016999 396.83922 
L 85.651884 400.169711 
L 86.286768 395.297328 
L 86.921653 398.381112 
L 87.556537 396.314981 
L 88.191422 397.579323 
L 88.826306 396.83922 
L 89.461191 397.332634 
L 90.096075 399.614629 
L 90.73096 396.654199 
L 91.365844 396.654199 
L 92.000729 397.455988 
L 93.270498 397.610166 
L 93.905382 397.887716 
L 94.540267 399.861336 
L 95.175151 398.81284 
L 95.810036 399.152058 
L 97.079805 399.491276 
L 97.71469 401.927467 
L 98.349574 401.218198 
L 98.984459 400.693959 
L 99.619343 401.341552 
L 100.254228 399.213744 
L 100.889112 401.310718 
L 101.523997 401.649926 
L 102.158881 402.605903 
L 102.793766 401.8658 
L 103.42865 402.112498 
L 104.063535 402.482549 
L 104.698419 402.513392 
L 105.333304 400.755636 
L 105.968188 401.279875 
L 106.603073 404.517855 
L 107.237957 403.746909 
L 107.872842 403.500202 
L 108.507726 402.76009 
L 109.142611 405.103771 
L 109.777495 403.561879 
L 110.41238 402.821767 
L 111.047264 401.372385 
L 111.682149 403.222661 
L 112.317033 404.6412 
L 112.951918 404.672043 
L 113.586802 404.02445 
L 114.221687 405.998071 
L 114.856571 403.407692 
L 115.491456 405.01126 
L 116.12634 405.566342 
L 116.761225 401.989144 
L 117.396109 405.01126 
L 118.030994 406.583986 
L 118.665879 405.134614 
L 119.300763 408.835157 
L 119.935648 407.200745 
L 120.570532 406.368122 
L 121.205417 405.257958 
L 121.840301 404.394502 
L 122.475186 405.134614 
L 123.11007 408.804314 
L 123.744955 408.156721 
L 124.379839 406.090581 
L 125.014724 406.306445 
L 125.649608 405.597176 
L 126.284493 407.910014 
L 126.919377 407.324099 
L 127.554262 407.262422 
L 128.189146 408.58845 
L 128.824031 408.650126 
L 129.458915 409.821967 
L 130.0938 407.354932 
L 130.728684 408.650126 
L 131.363569 408.557616 
L 131.998453 408.804314 
L 132.633338 406.213935 
L 133.268222 408.557616 
L 133.903107 412.165648 
L 134.537991 409.112698 
L 135.172876 411.394702 
L 135.80776 410.531236 
L 137.077529 411.271348 
L 137.712414 409.698613 
L 138.347298 407.817504 
L 138.982183 410.068665 
L 139.617067 412.905751 
L 140.251952 409.852801 
L 140.886837 411.703077 
L 141.521721 410.592913 
L 142.156606 412.751564 
L 142.79149 411.117161 
L 143.426375 410.716267 
L 144.061259 413.090781 
L 144.696144 412.5357 
L 145.331028 409.76029 
L 145.965913 412.62821 
L 146.600797 410.870454 
L 147.235682 412.689887 
L 147.870566 413.52251 
L 148.505451 412.967428 
L 149.140335 411.363859 
L 149.77522 411.888107 
L 151.044989 411.610566 
L 151.679873 414.632673 
L 152.314758 414.632673 
L 152.949642 412.905751 
L 153.584527 413.892561 
L 154.219411 413.584186 
L 154.854296 413.800051 
L 155.48918 412.689887 
L 156.758949 417.315572 
L 157.393834 413.954238 
L 158.028718 413.244969 
L 158.663603 414.046758 
L 159.298487 414.077592 
L 159.933372 415.372786 
L 160.568256 414.941048 
L 161.203141 414.879381 
L 161.838026 414.262622 
L 162.47291 414.385975 
L 163.107795 414.015915 
L 163.742679 415.712003 
L 164.377564 414.971891 
L 165.012448 414.879381 
L 166.282217 414.046758 
L 166.917102 415.650327 
L 167.551986 416.637137 
L 168.186871 417.099708 
L 168.821755 415.68116 
L 169.45664 416.76049 
L 170.091524 417.377249 
L 170.726409 415.218589 
L 171.361293 415.095245 
L 171.996178 416.452106 
L 172.631062 416.945511 
L 173.265947 417.593113 
L 173.900831 414.971891 
L 175.1706 418.487404 
L 175.805485 416.297919 
L 176.440369 416.57546 
L 177.075254 416.667971 
L 177.710138 418.518247 
L 178.345023 416.020378 
L 178.979907 417.778134 
L 179.614792 414.941048 
L 180.249676 414.971891 
L 180.884561 418.086518 
L 181.519445 416.020378 
L 182.15433 416.082055 
L 182.789215 415.49613 
L 183.424099 418.117352 
L 184.058984 419.412546 
L 184.693868 417.623947 
L 185.328753 418.54908 
L 185.963637 417.377249 
L 186.598522 418.209863 
L 187.233406 418.734111 
L 187.868291 415.249432 
L 188.503175 419.135005 
L 189.13806 420.183492 
L 189.772944 417.038031 
L 190.407829 419.289193 
L 191.042713 418.240706 
L 191.677598 418.54908 
L 192.312482 415.989544 
L 192.947367 419.042485 
L 193.582251 417.531436 
L 194.217136 419.289193 
L 194.85202 419.5359 
L 195.486905 420.368522 
L 196.121789 419.62841 
L 196.756674 420.245169 
L 197.391558 419.44338 
L 198.026443 418.148195 
L 198.661327 419.011652 
L 199.931096 418.024841 
L 200.565981 418.518247 
L 201.200865 418.209863 
L 202.470634 420.090982 
L 203.105519 420.676897 
L 203.740403 419.227516 
L 204.375288 420.183492 
L 205.010173 417.438917 
L 205.645057 419.566733 
L 206.279942 419.073328 
L 206.914826 419.381703 
L 207.549711 421.478677 
L 208.184595 420.368522 
L 208.81948 419.566733 
L 209.454364 423.328953 
L 210.089249 420.769408 
L 210.724133 420.800251 
L 211.359018 418.795787 
L 211.993902 419.62841 
L 212.628787 421.910415 
L 213.263671 421.725384 
L 213.898556 419.011652 
L 214.53344 418.209863 
L 215.168325 418.919141 
L 215.803209 421.355333 
L 216.438094 417.716458 
L 217.072978 420.985272 
L 217.707863 422.619684 
L 218.342747 421.016115 
L 218.977632 420.337679 
L 219.612516 422.187955 
L 220.247401 420.676897 
L 220.882285 418.857464 
L 221.51717 420.337679 
L 222.152054 420.861928 
L 222.786939 420.43019 
L 223.421823 418.425736 
L 224.056708 419.875108 
L 224.691592 418.54908 
L 225.326477 420.676897 
L 225.961362 420.214326 
L 226.596246 421.50952 
L 227.231131 420.337679 
L 227.866015 418.086518 
L 229.135784 423.267276 
L 229.770669 423.729847 
L 230.405553 420.800251 
L 231.040438 422.218789 
L 231.675322 421.50952 
L 232.310207 423.174766 
L 232.945091 422.033759 
L 233.579976 423.452307 
L 234.21486 422.3113 
L 234.849745 421.417009 
L 235.484629 424.56247 
L 236.119514 422.033759 
L 236.754398 421.293656 
L 237.389283 423.544817 
L 238.024167 421.262813 
L 238.659052 421.756218 
L 239.293936 422.527173 
L 239.928821 419.936785 
L 240.563705 422.897225 
L 241.19859 422.372977 
L 241.833474 423.328953 
L 242.468359 421.602031 
L 243.103243 423.760681 
L 243.738128 424.994199 
L 244.373012 421.32449 
L 245.007897 421.941248 
L 245.642781 423.699005 
L 246.277666 423.113089 
L 246.91255 423.606494 
L 247.547435 421.201136 
L 248.18232 424.56247 
L 248.817204 423.143923 
L 249.452089 421.201136 
L 250.086973 423.020578 
L 250.721858 422.40382 
L 251.356742 425.950175 
L 252.626511 421.355333 
L 253.261396 421.201136 
L 253.89628 422.40382 
L 254.531165 424.593304 
L 255.166049 423.668171 
L 255.800934 421.725384 
L 257.070703 423.976545 
L 257.705587 423.791524 
L 258.340472 424.685824 
L 258.975356 422.989735 
L 259.610241 424.56247 
L 260.245125 422.897225 
L 260.88001 423.298119 
L 261.514894 424.161576 
L 262.149779 423.57566 
L 262.784663 423.48314 
L 263.419548 423.976545 
L 264.054432 423.699005 
L 264.689317 426.289393 
L 265.324201 421.663707 
L 265.959086 421.571197 
L 267.228855 425.54928 
L 267.863739 421.817895 
L 268.498624 421.262813 
L 269.133509 420.461033 
L 269.768393 427.553744 
L 270.403278 423.113089 
L 271.038162 423.020578 
L 271.673047 420.923595 
L 272.307931 424.038222 
L 272.942816 424.809168 
L 273.5777 424.901688 
L 274.212585 424.531627 
L 274.847469 419.135005 
L 275.482354 423.791524 
L 276.117238 421.972091 
L 276.752123 422.095436 
L 277.387007 424.408283 
L 278.021892 427.152849 
L 278.656776 423.976545 
L 279.926545 423.760681 
L 280.56143 424.747491 
L 281.196314 420.399356 
L 281.831199 422.835548 
L 282.466083 424.809168 
L 283.100968 422.743037 
L 283.735852 422.835548 
L 284.370737 424.007388 
L 285.005621 423.729847 
L 285.640506 427.862119 
L 286.27539 425.703468 
L 286.910275 422.342143 
L 287.545159 425.333416 
L 288.180044 422.033759 
L 288.814928 422.527173 
L 289.449813 423.328953 
L 290.084697 424.747491 
L 290.719582 421.540354 
L 291.354467 428.232179 
L 292.624236 426.135196 
L 293.25912 427.461224 
L 293.894005 423.976545 
L 294.528889 424.809168 
L 295.163774 425.240906 
L 295.798658 423.267276 
L 296.433543 426.751955 
L 297.068427 426.25855 
L 297.703312 426.751955 
L 298.338196 422.743037 
L 298.973081 423.143923 
L 300.24285 423.205599 
L 300.877734 426.073519 
L 301.512619 423.914869 
L 302.147503 423.853201 
L 302.782388 424.408283 
L 303.417272 424.161576 
L 304.052157 427.862119 
L 304.687041 424.840011 
L 305.321926 426.166039 
L 305.95681 424.840011 
L 306.591695 422.804714 
L 307.226579 424.624147 
L 307.861464 424.254086 
L 308.496348 427.892962 
L 309.131233 424.439117 
L 309.766117 423.513983 
L 310.401002 426.505257 
L 311.035886 424.994199 
L 311.670771 427.738765 
L 312.305656 424.254086 
L 312.94054 424.56247 
L 313.575425 424.130742 
L 314.210309 425.395093 
L 314.845194 426.227716 
L 315.480078 426.721121 
L 316.114963 424.593304 
L 317.384732 423.760681 
L 318.019616 424.223253 
L 318.654501 426.073519 
L 319.289385 425.302573 
L 319.92427 425.487604 
L 320.559154 427.584578 
L 321.194039 426.011852 
L 321.828923 427.399556 
L 322.463808 422.342143 
L 323.098692 426.35106 
L 323.733577 426.690278 
L 324.368461 423.606494 
L 325.003346 428.910605 
L 325.63823 424.901688 
L 326.273115 427.307037 
L 326.907999 421.262813 
L 327.542884 426.042686 
L 328.177768 425.45677 
L 328.812653 425.148386 
L 329.447537 424.254086 
L 330.082422 424.624147 
L 330.717306 426.782798 
L 331.352191 423.57566 
L 331.987075 424.408283 
L 332.62196 423.976545 
L 333.256844 423.143923 
L 333.891729 425.302573 
L 334.526614 424.716658 
L 335.161498 426.690278 
L 335.796383 426.875308 
L 336.431267 426.566934 
L 337.066152 425.086709 
L 337.701036 426.659444 
L 338.335921 425.025032 
L 338.970805 424.469951 
L 339.60569 427.892962 
L 340.240574 425.703468 
L 340.875459 426.35106 
L 341.510343 425.086709 
L 342.145228 427.43039 
L 342.780112 425.36425 
L 343.414997 420.152649 
L 344.049881 422.989735 
L 344.684766 427.060339 
L 345.31965 427.24536 
L 345.954535 425.45677 
L 346.589419 428.293847 
L 347.859188 425.148386 
L 348.494073 425.425927 
L 349.763842 422.928058 
L 350.398726 427.399556 
L 351.033611 423.791524 
L 351.668495 424.223253 
L 352.30338 422.033759 
L 352.938264 426.289393 
L 353.573149 424.654981 
L 354.208033 428.232179 
L 354.842918 426.906142 
L 355.477803 427.985472 
L 356.112687 424.37744 
L 356.747572 426.042686 
L 357.382456 425.240906 
L 358.017341 424.901688 
L 358.652225 426.875308 
L 359.28711 426.628601 
L 359.921994 424.963365 
L 360.556879 426.073519 
L 361.191763 425.919332 
L 361.826648 426.536091 
L 362.461532 426.227716 
L 363.096417 423.267276 
L 363.731301 426.135196 
L 364.366186 426.751955 
L 365.00107 426.25855 
L 365.635955 424.56247 
L 366.270839 429.959092 
L 366.905724 429.342334 
L 367.540608 425.672634 
L 368.175493 426.25855 
L 368.810377 429.003125 
L 369.445262 427.183683 
L 370.080146 426.906142 
L 370.715031 424.469951 
L 371.349915 425.086709 
L 371.9848 427.183683 
L 372.619684 427.183683 
L 373.254569 428.910605 
L 373.889453 428.232179 
L 374.524338 424.624147 
L 375.159222 426.474414 
L 375.794107 429.218989 
L 376.428991 427.214526 
L 377.063876 424.624147 
L 377.698761 428.540554 
L 378.333645 427.800442 
L 378.96853 427.892962 
L 379.603414 423.637328 
L 380.238299 424.439117 
L 380.873183 423.822358 
L 381.508068 424.099899 
L 382.142952 428.694741 
L 382.777837 426.227716 
L 383.412721 426.505257 
L 384.047606 425.148386 
L 384.68249 424.56247 
L 385.317375 428.170502 
L 385.952259 427.33788 
L 386.587144 424.099899 
L 387.222028 424.685824 
L 387.856913 424.130742 
L 388.491797 427.029496 
L 389.126682 424.038222 
L 389.761566 423.853201 
L 390.396451 429.342334 
L 391.031335 427.892962 
L 391.66622 424.994199 
L 392.301104 423.729847 
L 392.935989 426.381903 
L 393.570873 428.32469 
L 394.205758 429.527364 
L 394.840642 429.774071 
L 395.475527 423.205599 
L 396.110411 423.637328 
L 396.745296 426.690278 
L 398.015065 423.452307 
L 398.64995 426.751955 
L 399.284834 426.936985 
L 399.919719 424.654981 
L 400.554603 424.56247 
L 401.189488 426.967819 
L 401.824372 424.007388 
L 402.459257 430.48334 
L 403.094141 427.522901 
L 403.729026 426.196873 
L 404.998795 424.254086 
L 405.633679 427.738765 
L 406.268564 425.641791 
L 406.903448 430.2058 
L 407.538333 425.888498 
L 408.173217 427.800442 
L 408.808102 427.492067 
L 409.442986 427.584578 
L 410.077871 425.919332 
L 410.712755 429.743228 
L 411.982524 423.267276 
L 412.617409 425.36425 
L 413.252293 422.866382 
L 413.887178 425.302573 
L 414.522062 429.774071 
L 415.156947 424.685824 
L 415.791831 425.27174 
L 416.426716 424.254086 
L 417.0616 425.425927 
L 417.696485 426.227716 
L 418.331369 428.448043 
L 418.966254 426.782798 
L 419.601138 423.236442 
L 420.236023 428.879772 
L 420.870908 426.196873 
L 421.505792 424.37744 
L 422.140677 428.386367 
L 422.775561 425.055875 
L 423.410446 430.144123 
L 424.04533 428.694741 
L 424.680215 424.716658 
L 425.315099 424.994199 
L 425.949984 426.844475 
L 426.584868 422.187955 
L 427.219753 425.641791 
L 427.854637 425.888498 
L 428.489522 427.060339 
L 429.124406 431.038422 
L 429.759291 422.619684 
L 430.394175 426.104362 
L 431.02906 426.073519 
L 431.663944 428.50972 
L 432.298829 427.615421 
L 432.933713 423.914869 
L 433.568598 426.505257 
L 434.203482 423.143923 
L 434.838367 426.25855 
L 435.473251 426.628601 
L 436.108136 426.042686 
L 436.74302 427.892962 
L 437.377905 424.038222 
L 438.012789 427.492067 
L 438.647674 426.721121 
L 439.282558 429.589041 
L 440.552327 423.082255 
L 441.187212 429.404011 
L 441.822097 425.919332 
L 442.456981 427.985472 
L 443.091866 426.320226 
L 443.72675 422.40382 
L 444.361635 427.492067 
L 444.996519 430.051612 
L 445.631404 427.276203 
L 446.266288 426.566934 
L 446.901173 423.914869 
L 447.536057 427.646254 
L 448.805826 422.49633 
L 449.440711 426.289393 
L 450.075595 428.263013 
L 450.71048 424.593304 
L 451.345364 424.809168 
L 452.615133 426.721121 
L 453.250018 428.386367 
L 453.884902 426.566934 
L 454.519787 427.615421 
L 455.154671 428.448043 
L 455.789556 429.064793 
L 456.42444 430.514174 
L 457.059325 427.831285 
L 457.694209 424.038222 
L 458.329094 427.122015 
L 459.598863 426.25855 
L 460.233747 428.232179 
L 460.868632 423.57566 
L 461.503516 427.831285 
L 462.138401 425.703468 
L 462.773285 429.157313 
L 463.40817 426.44358 
L 464.043055 429.003125 
L 464.677939 427.707931 
L 465.312824 429.619875 
L 465.947708 425.425927 
L 466.582593 428.787252 
L 467.217477 426.104362 
L 467.852362 426.320226 
L 468.487246 427.862119 
L 469.122131 427.029496 
L 469.757015 426.659444 
L 470.3919 426.135196 
L 471.026784 429.249823 
L 471.661669 426.412737 
L 472.296553 427.091172 
L 472.931438 426.782798 
L 473.566322 427.769608 
L 474.201207 425.610957 
L 475.470976 430.606694 
L 476.10586 426.721121 
L 476.740745 427.43039 
L 477.375629 427.954638 
L 478.010514 428.848929 
L 478.645398 426.875308 
L 479.280283 429.218989 
L 479.915167 426.782798 
L 480.550052 426.44358 
L 481.184936 427.677097 
L 481.819821 424.963365 
L 482.454705 425.981009 
L 483.724474 427.214526 
L 484.359359 425.54928 
L 484.994244 428.879772 
L 485.629128 430.421664 
L 486.264013 429.373177 
L 486.898897 425.795988 
L 488.168666 428.602231 
L 488.803551 428.725584 
L 489.438435 427.954638 
L 490.07332 425.45677 
L 490.708204 429.003125 
L 491.343089 424.408283 
L 491.977973 427.553744 
L 492.612858 432.857855 
L 493.247742 425.795988 
L 493.882627 427.522901 
L 494.517511 422.064602 
L 495.152396 426.381903 
L 495.78728 426.196873 
L 496.422165 423.976545 
L 497.057049 426.998662 
L 497.691934 429.3115 
L 498.326818 428.016306 
L 498.961703 425.734311 
L 499.596587 428.139659 
L 500.231472 429.188146 
L 500.866356 427.122015 
L 501.501241 428.787252 
L 502.136125 427.368713 
L 502.77101 428.910605 
L 503.405894 427.985472 
L 504.040779 424.840011 
L 504.675663 428.694741 
L 505.310548 428.571388 
L 505.945433 427.276203 
L 506.580317 427.214526 
L 507.215202 427.738765 
L 507.850086 425.210063 
L 508.484971 426.381903 
L 509.119855 425.302573 
L 509.75474 429.342334 
L 510.389624 428.571388 
L 511.024509 429.619875 
L 511.659393 427.862119 
L 512.294278 429.064793 
L 512.929162 432.919532 
L 513.564047 427.152849 
L 514.198931 431.223453 
L 514.833816 432.241097 
L 515.4687 430.2058 
L 516.103585 429.095636 
L 516.738469 428.972282 
L 517.373354 430.884235 
L 518.008238 429.527364 
L 518.643123 424.469951 
L 519.278007 426.011852 
L 519.912892 430.48334 
L 520.547776 430.39083 
L 521.817545 429.249823 
L 522.45243 429.681551 
L 523.087314 428.232179 
L 524.357083 431.007579 
L 524.991968 426.289393 
L 525.626852 426.875308 
L 526.261737 427.646254 
L 526.896621 426.751955 
L 527.531506 426.566934 
L 528.166391 430.082446 
L 528.801275 432.210263 
L 529.43616 427.307037 
L 530.071044 425.672634 
L 530.705929 428.540554 
L 531.340813 430.051612 
L 531.975698 432.241097 
L 533.245467 430.020769 
L 533.880351 426.597767 
L 534.515236 429.558207 
L 535.785005 431.069256 
L 536.419889 427.399556 
L 537.054774 426.320226 
L 537.689658 430.082446 
L 538.324543 426.227716 
L 538.959427 431.408474 
L 539.594312 428.4172 
L 540.229196 429.342334 
L 540.864081 428.787252 
L 541.498965 425.240906 
L 542.13385 431.531827 
L 542.768734 429.959092 
L 543.403619 429.897416 
L 544.038503 431.840202 
L 544.673388 425.703468 
L 545.308272 425.36425 
L 545.943157 426.751955 
L 546.578041 430.2058 
L 547.212926 432.333607 
L 547.84781 427.615421 
L 548.482695 428.047149 
L 549.11758 429.49653 
L 549.752464 431.655181 
L 550.387349 430.267476 
L 551.022233 430.48334 
L 551.657118 430.575851 
L 552.292002 429.712394 
L 552.926887 423.421464 
L 554.83154 431.223453 
L 555.466425 428.448043 
L 556.101309 426.474414 
L 556.736194 428.047149 
L 557.371078 428.848929 
L 558.005963 429.465687 
L 559.275732 427.492067 
L 559.910616 429.342334 
L 560.545501 429.003125 
L 561.180385 427.029496 
L 561.81527 427.522901 
L 562.450154 430.267476 
L 563.085039 430.514174 
L 563.719923 429.866582 
L 564.354808 428.263013 
L 564.989692 430.359987 
L 565.624577 428.571388 
L 566.259461 429.465687 
L 566.894346 428.263013 
L 567.52923 428.663908 
L 568.164115 425.795988 
L 568.798999 428.232179 
L 569.433884 431.28512 
L 570.068768 428.32469 
L 570.703653 426.381903 
L 571.338538 425.086709 
L 571.973422 430.976746 
L 572.608307 430.791715 
L 573.243191 431.624338 
L 573.878076 428.818095 
L 574.51296 430.915069 
L 575.147845 431.19261 
L 575.782729 427.152849 
L 576.417614 427.461224 
L 576.417614 427.461224 
" clip-path="url(#p5164409c22)" style="fill: none; stroke: #ff7f0e; stroke-width: 1.5; stroke-linecap: square"/>
   </g>
   <g id="line2d_39">
    <path d="M 43.78125 551.518125 
L 601.78125 551.518125 
" clip-path="url(#p5164409c22)" style="fill: none; stroke-dasharray: 11.1,4.8; stroke-dashoffset: 0; stroke: #ff0000; stroke-width: 3"/>
   </g>
   <g id="patch_3">
    <path d="M 43.78125 576.718125 
L 43.78125 22.318125 
" style="fill: none; stroke: #000000; stroke-width: 0.8; stroke-linejoin: miter; stroke-linecap: square"/>
   </g>
   <g id="patch_4">
    <path d="M 601.78125 576.718125 
L 601.78125 22.318125 
" style="fill: none; stroke: #000000; stroke-width: 0.8; stroke-linejoin: miter; stroke-linecap: square"/>
   </g>
   <g id="patch_5">
    <path d="M 43.78125 576.718125 
L 601.78125 576.718125 
" style="fill: none; stroke: #000000; stroke-width: 0.8; stroke-linejoin: miter; stroke-linecap: square"/>
   </g>
   <g id="patch_6">
    <path d="M 43.78125 22.318125 
L 601.78125 22.318125 
" style="fill: none; stroke: #000000; stroke-width: 0.8; stroke-linejoin: miter; stroke-linecap: square"/>
   </g>
   <g id="text_21">
    <!-- Train and Val Accuracy -->
    <g transform="translate(255.002813 16.318125) scale(0.12 -0.12)">
     <defs>
      <path id="DejaVuSans-54" d="M -19 4666 
L 3928 4666 
L 3928 4134 
L 2272 4134 
L 2272 0 
L 1638 0 
L 1638 4134 
L -19 4134 
L -19 4666 
z
" transform="scale(0.015625)"/>
      <path id="DejaVuSans-69" d="M 603 3500 
L 1178 3500 
L 1178 0 
L 603 0 
L 603 3500 
z
M 603 4863 
L 1178 4863 
L 1178 4134 
L 603 4134 
L 603 4863 
z
" transform="scale(0.015625)"/>
      <path id="DejaVuSans-6e" d="M 3513 2113 
L 3513 0 
L 2938 0 
L 2938 2094 
Q 2938 2591 2744 2837 
Q 2550 3084 2163 3084 
Q 1697 3084 1428 2787 
Q 1159 2491 1159 1978 
L 1159 0 
L 581 0 
L 581 3500 
L 1159 3500 
L 1159 2956 
Q 1366 3272 1645 3428 
Q 1925 3584 2291 3584 
Q 2894 3584 3203 3211 
Q 3513 2838 3513 2113 
z
" transform="scale(0.015625)"/>
      <path id="DejaVuSans-20" transform="scale(0.015625)"/>
      <path id="DejaVuSans-64" d="M 2906 2969 
L 2906 4863 
L 3481 4863 
L 3481 0 
L 2906 0 
L 2906 525 
Q 2725 213 2448 61 
Q 2172 -91 1784 -91 
Q 1150 -91 751 415 
Q 353 922 353 1747 
Q 353 2572 751 3078 
Q 1150 3584 1784 3584 
Q 2172 3584 2448 3432 
Q 2725 3281 2906 2969 
z
M 947 1747 
Q 947 1113 1208 752 
Q 1469 391 1925 391 
Q 2381 391 2643 752 
Q 2906 1113 2906 1747 
Q 2906 2381 2643 2742 
Q 2381 3103 1925 3103 
Q 1469 3103 1208 2742 
Q 947 2381 947 1747 
z
" transform="scale(0.015625)"/>
      <path id="DejaVuSans-56" d="M 1831 0 
L 50 4666 
L 709 4666 
L 2188 738 
L 3669 4666 
L 4325 4666 
L 2547 0 
L 1831 0 
z
" transform="scale(0.015625)"/>
      <path id="DejaVuSans-6c" d="M 603 4863 
L 1178 4863 
L 1178 0 
L 603 0 
L 603 4863 
z
" transform="scale(0.015625)"/>
     </defs>
     <use xlink:href="#DejaVuSans-54"/>
     <use xlink:href="#DejaVuSans-72" transform="translate(46.333984 0)"/>
     <use xlink:href="#DejaVuSans-61" transform="translate(87.447266 0)"/>
     <use xlink:href="#DejaVuSans-69" transform="translate(148.726562 0)"/>
     <use xlink:href="#DejaVuSans-6e" transform="translate(176.509766 0)"/>
     <use xlink:href="#DejaVuSans-20" transform="translate(239.888672 0)"/>
     <use xlink:href="#DejaVuSans-61" transform="translate(271.675781 0)"/>
     <use xlink:href="#DejaVuSans-6e" transform="translate(332.955078 0)"/>
     <use xlink:href="#DejaVuSans-64" transform="translate(396.333984 0)"/>
     <use xlink:href="#DejaVuSans-20" transform="translate(459.810547 0)"/>
     <use xlink:href="#DejaVuSans-56" transform="translate(491.597656 0)"/>
     <use xlink:href="#DejaVuSans-61" transform="translate(552.255859 0)"/>
     <use xlink:href="#DejaVuSans-6c" transform="translate(613.535156 0)"/>
     <use xlink:href="#DejaVuSans-20" transform="translate(641.318359 0)"/>
     <use xlink:href="#DejaVuSans-41" transform="translate(673.105469 0)"/>
     <use xlink:href="#DejaVuSans-63" transform="translate(739.763672 0)"/>
     <use xlink:href="#DejaVuSans-63" transform="translate(794.744141 0)"/>
     <use xlink:href="#DejaVuSans-75" transform="translate(849.724609 0)"/>
     <use xlink:href="#DejaVuSans-72" transform="translate(913.103516 0)"/>
     <use xlink:href="#DejaVuSans-61" transform="translate(954.216797 0)"/>
     <use xlink:href="#DejaVuSans-63" transform="translate(1015.496094 0)"/>
     <use xlink:href="#DejaVuSans-79" transform="translate(1070.476562 0)"/>
    </g>
   </g>
   <g id="legend_1">
    <g id="patch_7">
     <path d="M 50.78125 74.90875 
L 217.904687 74.90875 
Q 219.904687 74.90875 219.904687 72.90875 
L 219.904687 29.318125 
Q 219.904687 27.318125 217.904687 27.318125 
L 50.78125 27.318125 
Q 48.78125 27.318125 48.78125 29.318125 
L 48.78125 72.90875 
Q 48.78125 74.90875 50.78125 74.90875 
z
" style="fill: #ffffff; opacity: 0.8; stroke: #cccccc; stroke-linejoin: miter"/>
    </g>
    <g id="line2d_40">
     <path d="M 52.78125 35.416562 
L 62.78125 35.416562 
L 72.78125 35.416562 
" style="fill: none; stroke: #1f77b4; stroke-width: 1.5; stroke-linecap: square"/>
    </g>
    <g id="text_22">
     <!-- train_accuracy -->
     <g transform="translate(80.78125 38.916562) scale(0.1 -0.1)">
      <defs>
       <path id="DejaVuSans-74" d="M 1172 4494 
L 1172 3500 
L 2356 3500 
L 2356 3053 
L 1172 3053 
L 1172 1153 
Q 1172 725 1289 603 
Q 1406 481 1766 481 
L 2356 481 
L 2356 0 
L 1766 0 
Q 1100 0 847 248 
Q 594 497 594 1153 
L 594 3053 
L 172 3053 
L 172 3500 
L 594 3500 
L 594 4494 
L 1172 4494 
z
" transform="scale(0.015625)"/>
       <path id="DejaVuSans-5f" d="M 3263 -1063 
L 3263 -1509 
L -63 -1509 
L -63 -1063 
L 3263 -1063 
z
" transform="scale(0.015625)"/>
      </defs>
      <use xlink:href="#DejaVuSans-74"/>
      <use xlink:href="#DejaVuSans-72" transform="translate(39.208984 0)"/>
      <use xlink:href="#DejaVuSans-61" transform="translate(80.322266 0)"/>
      <use xlink:href="#DejaVuSans-69" transform="translate(141.601562 0)"/>
      <use xlink:href="#DejaVuSans-6e" transform="translate(169.384766 0)"/>
      <use xlink:href="#DejaVuSans-5f" transform="translate(232.763672 0)"/>
      <use xlink:href="#DejaVuSans-61" transform="translate(282.763672 0)"/>
      <use xlink:href="#DejaVuSans-63" transform="translate(344.042969 0)"/>
      <use xlink:href="#DejaVuSans-63" transform="translate(399.023438 0)"/>
      <use xlink:href="#DejaVuSans-75" transform="translate(454.003906 0)"/>
      <use xlink:href="#DejaVuSans-72" transform="translate(517.382812 0)"/>
      <use xlink:href="#DejaVuSans-61" transform="translate(558.496094 0)"/>
      <use xlink:href="#DejaVuSans-63" transform="translate(619.775391 0)"/>
      <use xlink:href="#DejaVuSans-79" transform="translate(674.755859 0)"/>
     </g>
    </g>
    <g id="line2d_41">
     <path d="M 52.78125 50.372812 
L 62.78125 50.372812 
L 72.78125 50.372812 
" style="fill: none; stroke: #ff7f0e; stroke-width: 1.5; stroke-linecap: square"/>
    </g>
    <g id="text_23">
     <!-- val_accuracy -->
     <g transform="translate(80.78125 53.872812) scale(0.1 -0.1)">
      <defs>
       <path id="DejaVuSans-76" d="M 191 3500 
L 800 3500 
L 1894 563 
L 2988 3500 
L 3597 3500 
L 2284 0 
L 1503 0 
L 191 3500 
z
" transform="scale(0.015625)"/>
      </defs>
      <use xlink:href="#DejaVuSans-76"/>
      <use xlink:href="#DejaVuSans-61" transform="translate(59.179688 0)"/>
      <use xlink:href="#DejaVuSans-6c" transform="translate(120.458984 0)"/>
      <use xlink:href="#DejaVuSans-5f" transform="translate(148.242188 0)"/>
      <use xlink:href="#DejaVuSans-61" transform="translate(198.242188 0)"/>
      <use xlink:href="#DejaVuSans-63" transform="translate(259.521484 0)"/>
      <use xlink:href="#DejaVuSans-63" transform="translate(314.501953 0)"/>
      <use xlink:href="#DejaVuSans-75" transform="translate(369.482422 0)"/>
      <use xlink:href="#DejaVuSans-72" transform="translate(432.861328 0)"/>
      <use xlink:href="#DejaVuSans-61" transform="translate(473.974609 0)"/>
      <use xlink:href="#DejaVuSans-63" transform="translate(535.253906 0)"/>
      <use xlink:href="#DejaVuSans-79" transform="translate(590.234375 0)"/>
     </g>
    </g>
    <g id="line2d_42">
     <path d="M 52.78125 65.329062 
L 62.78125 65.329062 
L 72.78125 65.329062 
" style="fill: none; stroke-dasharray: 11.1,4.8; stroke-dashoffset: 0; stroke: #ff0000; stroke-width: 3"/>
    </g>
    <g id="text_24">
     <!-- Random-Guesser Accuracy -->
     <g transform="translate(80.78125 68.829062) scale(0.1 -0.1)">
      <defs>
       <path id="DejaVuSans-52" d="M 2841 2188 
Q 3044 2119 3236 1894 
Q 3428 1669 3622 1275 
L 4263 0 
L 3584 0 
L 2988 1197 
Q 2756 1666 2539 1819 
Q 2322 1972 1947 1972 
L 1259 1972 
L 1259 0 
L 628 0 
L 628 4666 
L 2053 4666 
Q 2853 4666 3247 4331 
Q 3641 3997 3641 3322 
Q 3641 2881 3436 2590 
Q 3231 2300 2841 2188 
z
M 1259 4147 
L 1259 2491 
L 2053 2491 
Q 2509 2491 2742 2702 
Q 2975 2913 2975 3322 
Q 2975 3731 2742 3939 
Q 2509 4147 2053 4147 
L 1259 4147 
z
" transform="scale(0.015625)"/>
       <path id="DejaVuSans-6d" d="M 3328 2828 
Q 3544 3216 3844 3400 
Q 4144 3584 4550 3584 
Q 5097 3584 5394 3201 
Q 5691 2819 5691 2113 
L 5691 0 
L 5113 0 
L 5113 2094 
Q 5113 2597 4934 2840 
Q 4756 3084 4391 3084 
Q 3944 3084 3684 2787 
Q 3425 2491 3425 1978 
L 3425 0 
L 2847 0 
L 2847 2094 
Q 2847 2600 2669 2842 
Q 2491 3084 2119 3084 
Q 1678 3084 1418 2786 
Q 1159 2488 1159 1978 
L 1159 0 
L 581 0 
L 581 3500 
L 1159 3500 
L 1159 2956 
Q 1356 3278 1631 3431 
Q 1906 3584 2284 3584 
Q 2666 3584 2933 3390 
Q 3200 3197 3328 2828 
z
" transform="scale(0.015625)"/>
       <path id="DejaVuSans-2d" d="M 313 2009 
L 1997 2009 
L 1997 1497 
L 313 1497 
L 313 2009 
z
" transform="scale(0.015625)"/>
       <path id="DejaVuSans-47" d="M 3809 666 
L 3809 1919 
L 2778 1919 
L 2778 2438 
L 4434 2438 
L 4434 434 
Q 4069 175 3628 42 
Q 3188 -91 2688 -91 
Q 1594 -91 976 548 
Q 359 1188 359 2328 
Q 359 3472 976 4111 
Q 1594 4750 2688 4750 
Q 3144 4750 3555 4637 
Q 3966 4525 4313 4306 
L 4313 3634 
Q 3963 3931 3569 4081 
Q 3175 4231 2741 4231 
Q 1884 4231 1454 3753 
Q 1025 3275 1025 2328 
Q 1025 1384 1454 906 
Q 1884 428 2741 428 
Q 3075 428 3337 486 
Q 3600 544 3809 666 
z
" transform="scale(0.015625)"/>
       <path id="DejaVuSans-65" d="M 3597 1894 
L 3597 1613 
L 953 1613 
Q 991 1019 1311 708 
Q 1631 397 2203 397 
Q 2534 397 2845 478 
Q 3156 559 3463 722 
L 3463 178 
Q 3153 47 2828 -22 
Q 2503 -91 2169 -91 
Q 1331 -91 842 396 
Q 353 884 353 1716 
Q 353 2575 817 3079 
Q 1281 3584 2069 3584 
Q 2775 3584 3186 3129 
Q 3597 2675 3597 1894 
z
M 3022 2063 
Q 3016 2534 2758 2815 
Q 2500 3097 2075 3097 
Q 1594 3097 1305 2825 
Q 1016 2553 972 2059 
L 3022 2063 
z
" transform="scale(0.015625)"/>
      </defs>
      <use xlink:href="#DejaVuSans-52"/>
      <use xlink:href="#DejaVuSans-61" transform="translate(67.232422 0)"/>
      <use xlink:href="#DejaVuSans-6e" transform="translate(128.511719 0)"/>
      <use xlink:href="#DejaVuSans-64" transform="translate(191.890625 0)"/>
      <use xlink:href="#DejaVuSans-6f" transform="translate(255.367188 0)"/>
      <use xlink:href="#DejaVuSans-6d" transform="translate(316.548828 0)"/>
      <use xlink:href="#DejaVuSans-2d" transform="translate(413.960938 0)"/>
      <use xlink:href="#DejaVuSans-47" transform="translate(453.669922 0)"/>
      <use xlink:href="#DejaVuSans-75" transform="translate(531.160156 0)"/>
      <use xlink:href="#DejaVuSans-65" transform="translate(594.539062 0)"/>
      <use xlink:href="#DejaVuSans-73" transform="translate(656.0625 0)"/>
      <use xlink:href="#DejaVuSans-73" transform="translate(708.162109 0)"/>
      <use xlink:href="#DejaVuSans-65" transform="translate(760.261719 0)"/>
      <use xlink:href="#DejaVuSans-72" transform="translate(821.785156 0)"/>
      <use xlink:href="#DejaVuSans-20" transform="translate(862.898438 0)"/>
      <use xlink:href="#DejaVuSans-41" transform="translate(894.685547 0)"/>
      <use xlink:href="#DejaVuSans-63" transform="translate(961.34375 0)"/>
      <use xlink:href="#DejaVuSans-63" transform="translate(1016.324219 0)"/>
      <use xlink:href="#DejaVuSans-75" transform="translate(1071.304688 0)"/>
      <use xlink:href="#DejaVuSans-72" transform="translate(1134.683594 0)"/>
      <use xlink:href="#DejaVuSans-61" transform="translate(1175.796875 0)"/>
      <use xlink:href="#DejaVuSans-63" transform="translate(1237.076172 0)"/>
      <use xlink:href="#DejaVuSans-79" transform="translate(1292.056641 0)"/>
     </g>
    </g>
   </g>
  </g>
 </g>
 <defs>
  <clipPath id="p5164409c22">
   <rect x="43.78125" y="22.318125" width="558" height="554.4"/>
  </clipPath>
 </defs>
</svg>
