<?xml version="1.0" encoding="utf-8" standalone="no"?>
<!DOCTYPE svg PUBLIC "-//W3C//DTD SVG 1.1//EN"
  "http://www.w3.org/Graphics/SVG/1.1/DTD/svg11.dtd">
<svg xmlns:xlink="http://www.w3.org/1999/xlink" width="605.803125pt" height="614.274375pt" viewBox="0 0 605.803125 614.274375" xmlns="http://www.w3.org/2000/svg" version="1.1">
 <metadata>
  <rdf:RDF xmlns:dc="http://purl.org/dc/elements/1.1/" xmlns:cc="http://creativecommons.org/ns#" xmlns:rdf="http://www.w3.org/1999/02/22-rdf-syntax-ns#">
   <cc:Work>
    <dc:type rdf:resource="http://purl.org/dc/dcmitype/StillImage"/>
    <dc:date>2026-05-25T03:26:26.026814</dc:date>
    <dc:format>image/svg+xml</dc:format>
    <dc:creator>
     <cc:Agent>
      <dc:title>Matplotlib v3.10.9, https://matplotlib.org/</dc:title>
     </cc:Agent>
    </dc:creator>
   </cc:Work>
  </rdf:RDF>
 </metadata>
 <defs>
  <style type="text/css">*{stroke-linejoin: round; stroke-linecap: butt}</style>
 </defs>
 <g id="figure_1">
  <g id="patch_1">
   <path d="M 0 614.274375 
L 605.803125 614.274375 
L 605.803125 0 
L 0 0 
z
" style="fill: #ffffff"/>
  </g>
  <g id="axes_1">
   <g id="patch_2">
    <path d="M 40.603125 576.718125 
L 598.603125 576.718125 
L 598.603125 22.318125 
L 40.603125 22.318125 
z
" style="fill: #ffffff"/>
   </g>
   <g id="matplotlib.axis_1">
    <g id="xtick_1">
     <g id="line2d_1">
      <path d="M 65.966761 576.718125 
L 65.966761 22.318125 
" clip-path="url(#p4183a98c2a)" style="fill: none; stroke: #b0b0b0; stroke-width: 0.8; stroke-linecap: square"/>
     </g>
     <g id="line2d_2">
      <defs>
       <path id="mc017d2492b" d="M 0 0 
L 0 3.5 
" style="stroke: #000000; stroke-width: 0.8"/>
      </defs>
      <g>
       <use xlink:href="#mc017d2492b" x="65.966761" y="576.718125" style="stroke: #000000; stroke-width: 0.8"/>
      </g>
     </g>
     <g id="text_1">
      <!-- 0 -->
      <g transform="translate(62.785511 591.316563) scale(0.1 -0.1)">
       <defs>
        <path id="DejaVuSans-30" d="M 2034 4250 
Q 1547 4250 1301 3770 
Q 1056 3291 1056 2328 
Q 1056 1369 1301 889 
Q 1547 409 2034 409 
Q 2525 409 2770 889 
Q 3016 1369 3016 2328 
Q 3016 3291 2770 3770 
Q 2525 4250 2034 4250 
z
M 2034 4750 
Q 2819 4750 3233 4129 
Q 3647 3509 3647 2328 
Q 3647 1150 3233 529 
Q 2819 -91 2034 -91 
Q 1250 -91 836 529 
Q 422 1150 422 2328 
Q 422 3509 836 4129 
Q 1250 4750 2034 4750 
z
" transform="scale(0.015625)"/>
       </defs>
       <use xlink:href="#DejaVuSans-30"/>
      </g>
     </g>
    </g>
    <g id="xtick_2">
     <g id="line2d_3">
      <path d="M 129.455213 576.718125 
L 129.455213 22.318125 
" clip-path="url(#p4183a98c2a)" style="fill: none; stroke: #b0b0b0; stroke-width: 0.8; stroke-linecap: square"/>
     </g>
     <g id="line2d_4">
      <g>
       <use xlink:href="#mc017d2492b" x="129.455213" y="576.718125" style="stroke: #000000; stroke-width: 0.8"/>
      </g>
     </g>
     <g id="text_2">
      <!-- 100 -->
      <g transform="translate(119.911463 591.316563) scale(0.1 -0.1)">
       <defs>
        <path id="DejaVuSans-31" d="M 794 531 
L 1825 531 
L 1825 4091 
L 703 3866 
L 703 4441 
L 1819 4666 
L 2450 4666 
L 2450 531 
L 3481 531 
L 3481 0 
L 794 0 
L 794 531 
z
" transform="scale(0.015625)"/>
       </defs>
       <use xlink:href="#DejaVuSans-31"/>
       <use xlink:href="#DejaVuSans-30" transform="translate(63.623047 0)"/>
       <use xlink:href="#DejaVuSans-30" transform="translate(127.246094 0)"/>
      </g>
     </g>
    </g>
    <g id="xtick_3">
     <g id="line2d_5">
      <path d="M 192.943664 576.718125 
L 192.943664 22.318125 
" clip-path="url(#p4183a98c2a)" style="fill: none; stroke: #b0b0b0; stroke-width: 0.8; stroke-linecap: square"/>
     </g>
     <g id="line2d_6">
      <g>
       <use xlink:href="#mc017d2492b" x="192.943664" y="576.718125" style="stroke: #000000; stroke-width: 0.8"/>
      </g>
     </g>
     <g id="text_3">
      <!-- 200 -->
      <g transform="translate(183.399914 591.316563) scale(0.1 -0.1)">
       <defs>
        <path id="DejaVuSans-32" d="M 1228 531 
L 3431 531 
L 3431 0 
L 469 0 
L 469 531 
Q 828 903 1448 1529 
Q 2069 2156 2228 2338 
Q 2531 2678 2651 2914 
Q 2772 3150 2772 3378 
Q 2772 3750 2511 3984 
Q 2250 4219 1831 4219 
Q 1534 4219 1204 4116 
Q 875 4013 500 3803 
L 500 4441 
Q 881 4594 1212 4672 
Q 1544 4750 1819 4750 
Q 2544 4750 2975 4387 
Q 3406 4025 3406 3419 
Q 3406 3131 3298 2873 
Q 3191 2616 2906 2266 
Q 2828 2175 2409 1742 
Q 1991 1309 1228 531 
z
" transform="scale(0.015625)"/>
       </defs>
       <use xlink:href="#DejaVuSans-32"/>
       <use xlink:href="#DejaVuSans-30" transform="translate(63.623047 0)"/>
       <use xlink:href="#DejaVuSans-30" transform="translate(127.246094 0)"/>
      </g>
     </g>
    </g>
    <g id="xtick_4">
     <g id="line2d_7">
      <path d="M 256.432116 576.718125 
L 256.432116 22.318125 
" clip-path="url(#p4183a98c2a)" style="fill: none; stroke: #b0b0b0; stroke-width: 0.8; stroke-linecap: square"/>
     </g>
     <g id="line2d_8">
      <g>
       <use xlink:href="#mc017d2492b" x="256.432116" y="576.718125" style="stroke: #000000; stroke-width: 0.8"/>
      </g>
     </g>
     <g id="text_4">
      <!-- 300 -->
      <g transform="translate(246.888366 591.316563) scale(0.1 -0.1)">
       <defs>
        <path id="DejaVuSans-33" d="M 2597 2516 
Q 3050 2419 3304 2112 
Q 3559 1806 3559 1356 
Q 3559 666 3084 287 
Q 2609 -91 1734 -91 
Q 1441 -91 1130 -33 
Q 819 25 488 141 
L 488 750 
Q 750 597 1062 519 
Q 1375 441 1716 441 
Q 2309 441 2620 675 
Q 2931 909 2931 1356 
Q 2931 1769 2642 2001 
Q 2353 2234 1838 2234 
L 1294 2234 
L 1294 2753 
L 1863 2753 
Q 2328 2753 2575 2939 
Q 2822 3125 2822 3475 
Q 2822 3834 2567 4026 
Q 2313 4219 1838 4219 
Q 1578 4219 1281 4162 
Q 984 4106 628 3988 
L 628 4550 
Q 988 4650 1302 4700 
Q 1616 4750 1894 4750 
Q 2613 4750 3031 4423 
Q 3450 4097 3450 3541 
Q 3450 3153 3228 2886 
Q 3006 2619 2597 2516 
z
" transform="scale(0.015625)"/>
       </defs>
       <use xlink:href="#DejaVuSans-33"/>
       <use xlink:href="#DejaVuSans-30" transform="translate(63.623047 0)"/>
       <use xlink:href="#DejaVuSans-30" transform="translate(127.246094 0)"/>
      </g>
     </g>
    </g>
    <g id="xtick_5">
     <g id="line2d_9">
      <path d="M 319.920567 576.718125 
L 319.920567 22.318125 
" clip-path="url(#p4183a98c2a)" style="fill: none; stroke: #b0b0b0; stroke-width: 0.8; stroke-linecap: square"/>
     </g>
     <g id="line2d_10">
      <g>
       <use xlink:href="#mc017d2492b" x="319.920567" y="576.718125" style="stroke: #000000; stroke-width: 0.8"/>
      </g>
     </g>
     <g id="text_5">
      <!-- 400 -->
      <g transform="translate(310.376817 591.316563) scale(0.1 -0.1)">
       <defs>
        <path id="DejaVuSans-34" d="M 2419 4116 
L 825 1625 
L 2419 1625 
L 2419 4116 
z
M 2253 4666 
L 3047 4666 
L 3047 1625 
L 3713 1625 
L 3713 1100 
L 3047 1100 
L 3047 0 
L 2419 0 
L 2419 1100 
L 313 1100 
L 313 1709 
L 2253 4666 
z
" transform="scale(0.015625)"/>
       </defs>
       <use xlink:href="#DejaVuSans-34"/>
       <use xlink:href="#DejaVuSans-30" transform="translate(63.623047 0)"/>
       <use xlink:href="#DejaVuSans-30" transform="translate(127.246094 0)"/>
      </g>
     </g>
    </g>
    <g id="xtick_6">
     <g id="line2d_11">
      <path d="M 383.409019 576.718125 
L 383.409019 22.318125 
" clip-path="url(#p4183a98c2a)" style="fill: none; stroke: #b0b0b0; stroke-width: 0.8; stroke-linecap: square"/>
     </g>
     <g id="line2d_12">
      <g>
       <use xlink:href="#mc017d2492b" x="383.409019" y="576.718125" style="stroke: #000000; stroke-width: 0.8"/>
      </g>
     </g>
     <g id="text_6">
      <!-- 500 -->
      <g transform="translate(373.865269 591.316563) scale(0.1 -0.1)">
       <defs>
        <path id="DejaVuSans-35" d="M 691 4666 
L 3169 4666 
L 3169 4134 
L 1269 4134 
L 1269 2991 
Q 1406 3038 1543 3061 
Q 1681 3084 1819 3084 
Q 2600 3084 3056 2656 
Q 3513 2228 3513 1497 
Q 3513 744 3044 326 
Q 2575 -91 1722 -91 
Q 1428 -91 1123 -41 
Q 819 9 494 109 
L 494 744 
Q 775 591 1075 516 
Q 1375 441 1709 441 
Q 2250 441 2565 725 
Q 2881 1009 2881 1497 
Q 2881 1984 2565 2268 
Q 2250 2553 1709 2553 
Q 1456 2553 1204 2497 
Q 953 2441 691 2322 
L 691 4666 
z
" transform="scale(0.015625)"/>
       </defs>
       <use xlink:href="#DejaVuSans-35"/>
       <use xlink:href="#DejaVuSans-30" transform="translate(63.623047 0)"/>
       <use xlink:href="#DejaVuSans-30" transform="translate(127.246094 0)"/>
      </g>
     </g>
    </g>
    <g id="xtick_7">
     <g id="line2d_13">
      <path d="M 446.89747 576.718125 
L 446.89747 22.318125 
" clip-path="url(#p4183a98c2a)" style="fill: none; stroke: #b0b0b0; stroke-width: 0.8; stroke-linecap: square"/>
     </g>
     <g id="line2d_14">
      <g>
       <use xlink:href="#mc017d2492b" x="446.89747" y="576.718125" style="stroke: #000000; stroke-width: 0.8"/>
      </g>
     </g>
     <g id="text_7">
      <!-- 600 -->
      <g transform="translate(437.35372 591.316563) scale(0.1 -0.1)">
       <defs>
        <path id="DejaVuSans-36" d="M 2113 2584 
Q 1688 2584 1439 2293 
Q 1191 2003 1191 1497 
Q 1191 994 1439 701 
Q 1688 409 2113 409 
Q 2538 409 2786 701 
Q 3034 994 3034 1497 
Q 3034 2003 2786 2293 
Q 2538 2584 2113 2584 
z
M 3366 4563 
L 3366 3988 
Q 3128 4100 2886 4159 
Q 2644 4219 2406 4219 
Q 1781 4219 1451 3797 
Q 1122 3375 1075 2522 
Q 1259 2794 1537 2939 
Q 1816 3084 2150 3084 
Q 2853 3084 3261 2657 
Q 3669 2231 3669 1497 
Q 3669 778 3244 343 
Q 2819 -91 2113 -91 
Q 1303 -91 875 529 
Q 447 1150 447 2328 
Q 447 3434 972 4092 
Q 1497 4750 2381 4750 
Q 2619 4750 2861 4703 
Q 3103 4656 3366 4563 
z
" transform="scale(0.015625)"/>
       </defs>
       <use xlink:href="#DejaVuSans-36"/>
       <use xlink:href="#DejaVuSans-30" transform="translate(63.623047 0)"/>
       <use xlink:href="#DejaVuSans-30" transform="translate(127.246094 0)"/>
      </g>
     </g>
    </g>
    <g id="xtick_8">
     <g id="line2d_15">
      <path d="M 510.385922 576.718125 
L 510.385922 22.318125 
" clip-path="url(#p4183a98c2a)" style="fill: none; stroke: #b0b0b0; stroke-width: 0.8; stroke-linecap: square"/>
     </g>
     <g id="line2d_16">
      <g>
       <use xlink:href="#mc017d2492b" x="510.385922" y="576.718125" style="stroke: #000000; stroke-width: 0.8"/>
      </g>
     </g>
     <g id="text_8">
      <!-- 700 -->
      <g transform="translate(500.842172 591.316563) scale(0.1 -0.1)">
       <defs>
        <path id="DejaVuSans-37" d="M 525 4666 
L 3525 4666 
L 3525 4397 
L 1831 0 
L 1172 0 
L 2766 4134 
L 525 4134 
L 525 4666 
z
" transform="scale(0.015625)"/>
       </defs>
       <use xlink:href="#DejaVuSans-37"/>
       <use xlink:href="#DejaVuSans-30" transform="translate(63.623047 0)"/>
       <use xlink:href="#DejaVuSans-30" transform="translate(127.246094 0)"/>
      </g>
     </g>
    </g>
    <g id="xtick_9">
     <g id="line2d_17">
      <path d="M 573.874373 576.718125 
L 573.874373 22.318125 
" clip-path="url(#p4183a98c2a)" style="fill: none; stroke: #b0b0b0; stroke-width: 0.8; stroke-linecap: square"/>
     </g>
     <g id="line2d_18">
      <g>
       <use xlink:href="#mc017d2492b" x="573.874373" y="576.718125" style="stroke: #000000; stroke-width: 0.8"/>
      </g>
     </g>
     <g id="text_9">
      <!-- 800 -->
      <g transform="translate(564.330623 591.316563) scale(0.1 -0.1)">
       <defs>
        <path id="DejaVuSans-38" d="M 2034 2216 
Q 1584 2216 1326 1975 
Q 1069 1734 1069 1313 
Q 1069 891 1326 650 
Q 1584 409 2034 409 
Q 2484 409 2743 651 
Q 3003 894 3003 1313 
Q 3003 1734 2745 1975 
Q 2488 2216 2034 2216 
z
M 1403 2484 
Q 997 2584 770 2862 
Q 544 3141 544 3541 
Q 544 4100 942 4425 
Q 1341 4750 2034 4750 
Q 2731 4750 3128 4425 
Q 3525 4100 3525 3541 
Q 3525 3141 3298 2862 
Q 3072 2584 2669 2484 
Q 3125 2378 3379 2068 
Q 3634 1759 3634 1313 
Q 3634 634 3220 271 
Q 2806 -91 2034 -91 
Q 1263 -91 848 271 
Q 434 634 434 1313 
Q 434 1759 690 2068 
Q 947 2378 1403 2484 
z
M 1172 3481 
Q 1172 3119 1398 2916 
Q 1625 2713 2034 2713 
Q 2441 2713 2670 2916 
Q 2900 3119 2900 3481 
Q 2900 3844 2670 4047 
Q 2441 4250 2034 4250 
Q 1625 4250 1398 4047 
Q 1172 3844 1172 3481 
z
" transform="scale(0.015625)"/>
       </defs>
       <use xlink:href="#DejaVuSans-38"/>
       <use xlink:href="#DejaVuSans-30" transform="translate(63.623047 0)"/>
       <use xlink:href="#DejaVuSans-30" transform="translate(127.246094 0)"/>
      </g>
     </g>
    </g>
    <g id="text_10">
     <!-- Epochs -->
     <g transform="translate(301.6875 604.994688) scale(0.1 -0.1)">
      <defs>
       <path id="DejaVuSans-45" d="M 628 4666 
L 3578 4666 
L 3578 4134 
L 1259 4134 
L 1259 2753 
L 3481 2753 
L 3481 2222 
L 1259 2222 
L 1259 531 
L 3634 531 
L 3634 0 
L 628 0 
L 628 4666 
z
" transform="scale(0.015625)"/>
       <path id="DejaVuSans-70" d="M 1159 525 
L 1159 -1331 
L 581 -1331 
L 581 3500 
L 1159 3500 
L 1159 2969 
Q 1341 3281 1617 3432 
Q 1894 3584 2278 3584 
Q 2916 3584 3314 3078 
Q 3713 2572 3713 1747 
Q 3713 922 3314 415 
Q 2916 -91 2278 -91 
Q 1894 -91 1617 61 
Q 1341 213 1159 525 
z
M 3116 1747 
Q 3116 2381 2855 2742 
Q 2594 3103 2138 3103 
Q 1681 3103 1420 2742 
Q 1159 2381 1159 1747 
Q 1159 1113 1420 752 
Q 1681 391 2138 391 
Q 2594 391 2855 752 
Q 3116 1113 3116 1747 
z
" transform="scale(0.015625)"/>
       <path id="DejaVuSans-6f" d="M 1959 3097 
Q 1497 3097 1228 2736 
Q 959 2375 959 1747 
Q 959 1119 1226 758 
Q 1494 397 1959 397 
Q 2419 397 2687 759 
Q 2956 1122 2956 1747 
Q 2956 2369 2687 2733 
Q 2419 3097 1959 3097 
z
M 1959 3584 
Q 2709 3584 3137 3096 
Q 3566 2609 3566 1747 
Q 3566 888 3137 398 
Q 2709 -91 1959 -91 
Q 1206 -91 779 398 
Q 353 888 353 1747 
Q 353 2609 779 3096 
Q 1206 3584 1959 3584 
z
" transform="scale(0.015625)"/>
       <path id="DejaVuSans-63" d="M 3122 3366 
L 3122 2828 
Q 2878 2963 2633 3030 
Q 2388 3097 2138 3097 
Q 1578 3097 1268 2742 
Q 959 2388 959 1747 
Q 959 1106 1268 751 
Q 1578 397 2138 397 
Q 2388 397 2633 464 
Q 2878 531 3122 666 
L 3122 134 
Q 2881 22 2623 -34 
Q 2366 -91 2075 -91 
Q 1284 -91 818 406 
Q 353 903 353 1747 
Q 353 2603 823 3093 
Q 1294 3584 2113 3584 
Q 2378 3584 2631 3529 
Q 2884 3475 3122 3366 
z
" transform="scale(0.015625)"/>
       <path id="DejaVuSans-68" d="M 3513 2113 
L 3513 0 
L 2938 0 
L 2938 2094 
Q 2938 2591 2744 2837 
Q 2550 3084 2163 3084 
Q 1697 3084 1428 2787 
Q 1159 2491 1159 1978 
L 1159 0 
L 581 0 
L 581 4863 
L 1159 4863 
L 1159 2956 
Q 1366 3272 1645 3428 
Q 1925 3584 2291 3584 
Q 2894 3584 3203 3211 
Q 3513 2838 3513 2113 
z
" transform="scale(0.015625)"/>
       <path id="DejaVuSans-73" d="M 2834 3397 
L 2834 2853 
Q 2591 2978 2328 3040 
Q 2066 3103 1784 3103 
Q 1356 3103 1142 2972 
Q 928 2841 928 2578 
Q 928 2378 1081 2264 
Q 1234 2150 1697 2047 
L 1894 2003 
Q 2506 1872 2764 1633 
Q 3022 1394 3022 966 
Q 3022 478 2636 193 
Q 2250 -91 1575 -91 
Q 1294 -91 989 -36 
Q 684 19 347 128 
L 347 722 
Q 666 556 975 473 
Q 1284 391 1588 391 
Q 1994 391 2212 530 
Q 2431 669 2431 922 
Q 2431 1156 2273 1281 
Q 2116 1406 1581 1522 
L 1381 1569 
Q 847 1681 609 1914 
Q 372 2147 372 2553 
Q 372 3047 722 3315 
Q 1072 3584 1716 3584 
Q 2034 3584 2315 3537 
Q 2597 3491 2834 3397 
z
" transform="scale(0.015625)"/>
      </defs>
      <use xlink:href="#DejaVuSans-45"/>
      <use xlink:href="#DejaVuSans-70" transform="translate(63.183594 0)"/>
      <use xlink:href="#DejaVuSans-6f" transform="translate(126.660156 0)"/>
      <use xlink:href="#DejaVuSans-63" transform="translate(187.841797 0)"/>
      <use xlink:href="#DejaVuSans-68" transform="translate(242.822266 0)"/>
      <use xlink:href="#DejaVuSans-73" transform="translate(306.201172 0)"/>
     </g>
    </g>
   </g>
   <g id="matplotlib.axis_2">
    <g id="ytick_1">
     <g id="line2d_19">
      <path d="M 40.603125 574.758917 
L 598.603125 574.758917 
" clip-path="url(#p4183a98c2a)" style="fill: none; stroke: #b0b0b0; stroke-width: 0.8; stroke-linecap: square"/>
     </g>
     <g id="line2d_20">
      <defs>
       <path id="md996d8a721" d="M 0 0 
L -3.5 0 
" style="stroke: #000000; stroke-width: 0.8"/>
      </defs>
      <g>
       <use xlink:href="#md996d8a721" x="40.603125" y="574.758917" style="stroke: #000000; stroke-width: 0.8"/>
      </g>
     </g>
     <g id="text_11">
      <!-- 0 -->
      <g transform="translate(27.240625 578.558136) scale(0.1 -0.1)">
       <use xlink:href="#DejaVuSans-30"/>
      </g>
     </g>
    </g>
    <g id="ytick_2">
     <g id="line2d_21">
      <path d="M 40.603125 484.077917 
L 598.603125 484.077917 
" clip-path="url(#p4183a98c2a)" style="fill: none; stroke: #b0b0b0; stroke-width: 0.8; stroke-linecap: square"/>
     </g>
     <g id="line2d_22">
      <g>
       <use xlink:href="#md996d8a721" x="40.603125" y="484.077917" style="stroke: #000000; stroke-width: 0.8"/>
      </g>
     </g>
     <g id="text_12">
      <!-- 2 -->
      <g transform="translate(27.240625 487.877136) scale(0.1 -0.1)">
       <use xlink:href="#DejaVuSans-32"/>
      </g>
     </g>
    </g>
    <g id="ytick_3">
     <g id="line2d_23">
      <path d="M 40.603125 393.396917 
L 598.603125 393.396917 
" clip-path="url(#p4183a98c2a)" style="fill: none; stroke: #b0b0b0; stroke-width: 0.8; stroke-linecap: square"/>
     </g>
     <g id="line2d_24">
      <g>
       <use xlink:href="#md996d8a721" x="40.603125" y="393.396917" style="stroke: #000000; stroke-width: 0.8"/>
      </g>
     </g>
     <g id="text_13">
      <!-- 4 -->
      <g transform="translate(27.240625 397.196136) scale(0.1 -0.1)">
       <use xlink:href="#DejaVuSans-34"/>
      </g>
     </g>
    </g>
    <g id="ytick_4">
     <g id="line2d_25">
      <path d="M 40.603125 302.715917 
L 598.603125 302.715917 
" clip-path="url(#p4183a98c2a)" style="fill: none; stroke: #b0b0b0; stroke-width: 0.8; stroke-linecap: square"/>
     </g>
     <g id="line2d_26">
      <g>
       <use xlink:href="#md996d8a721" x="40.603125" y="302.715917" style="stroke: #000000; stroke-width: 0.8"/>
      </g>
     </g>
     <g id="text_14">
      <!-- 6 -->
      <g transform="translate(27.240625 306.515136) scale(0.1 -0.1)">
       <use xlink:href="#DejaVuSans-36"/>
      </g>
     </g>
    </g>
    <g id="ytick_5">
     <g id="line2d_27">
      <path d="M 40.603125 212.034918 
L 598.603125 212.034918 
" clip-path="url(#p4183a98c2a)" style="fill: none; stroke: #b0b0b0; stroke-width: 0.8; stroke-linecap: square"/>
     </g>
     <g id="line2d_28">
      <g>
       <use xlink:href="#md996d8a721" x="40.603125" y="212.034918" style="stroke: #000000; stroke-width: 0.8"/>
      </g>
     </g>
     <g id="text_15">
      <!-- 8 -->
      <g transform="translate(27.240625 215.834136) scale(0.1 -0.1)">
       <use xlink:href="#DejaVuSans-38"/>
      </g>
     </g>
    </g>
    <g id="ytick_6">
     <g id="line2d_29">
      <path d="M 40.603125 121.353918 
L 598.603125 121.353918 
" clip-path="url(#p4183a98c2a)" style="fill: none; stroke: #b0b0b0; stroke-width: 0.8; stroke-linecap: square"/>
     </g>
     <g id="line2d_30">
      <g>
       <use xlink:href="#md996d8a721" x="40.603125" y="121.353918" style="stroke: #000000; stroke-width: 0.8"/>
      </g>
     </g>
     <g id="text_16">
      <!-- 10 -->
      <g transform="translate(20.878125 125.153136) scale(0.1 -0.1)">
       <use xlink:href="#DejaVuSans-31"/>
       <use xlink:href="#DejaVuSans-30" transform="translate(63.623047 0)"/>
      </g>
     </g>
    </g>
    <g id="ytick_7">
     <g id="line2d_31">
      <path d="M 40.603125 30.672918 
L 598.603125 30.672918 
" clip-path="url(#p4183a98c2a)" style="fill: none; stroke: #b0b0b0; stroke-width: 0.8; stroke-linecap: square"/>
     </g>
     <g id="line2d_32">
      <g>
       <use xlink:href="#md996d8a721" x="40.603125" y="30.672918" style="stroke: #000000; stroke-width: 0.8"/>
      </g>
     </g>
     <g id="text_17">
      <!-- 12 -->
      <g transform="translate(20.878125 34.472137) scale(0.1 -0.1)">
       <use xlink:href="#DejaVuSans-31"/>
       <use xlink:href="#DejaVuSans-32" transform="translate(63.623047 0)"/>
      </g>
     </g>
    </g>
    <g id="text_18">
     <!-- Loss -->
     <g transform="translate(14.798437 310.485313) rotate(-90) scale(0.1 -0.1)">
      <defs>
       <path id="DejaVuSans-4c" d="M 628 4666 
L 1259 4666 
L 1259 531 
L 3531 531 
L 3531 0 
L 628 0 
L 628 4666 
z
" transform="scale(0.015625)"/>
      </defs>
      <use xlink:href="#DejaVuSans-4c"/>
      <use xlink:href="#DejaVuSans-6f" transform="translate(53.962891 0)"/>
      <use xlink:href="#DejaVuSans-73" transform="translate(115.144531 0)"/>
      <use xlink:href="#DejaVuSans-73" transform="translate(167.244141 0)"/>
     </g>
    </g>
   </g>
   <g id="line2d_33">
    <path d="M 65.966761 493.488583 
L 66.601646 494.57853 
L 68.506299 495.024379 
L 72.950491 495.804262 
L 91.362142 498.809998 
L 99.615641 500.440089 
L 131.994751 507.350528 
L 140.883134 509.144953 
L 153.580824 511.637992 
L 161.199439 513.06059 
L 169.452937 514.558259 
L 196.118087 519.052215 
L 209.450662 521.14103 
L 214.529738 521.895201 
L 223.418121 523.204781 
L 248.178617 526.673932 
L 251.35304 527.076708 
L 255.797231 527.651801 
L 271.669344 529.66074 
L 279.922843 530.686608 
L 291.985649 532.109125 
L 295.160071 532.470466 
L 301.508916 533.178973 
L 308.492646 533.952106 
L 324.364759 535.669956 
L 328.174066 536.019754 
L 333.253142 536.527771 
L 341.506641 537.361861 
L 352.299678 538.372998 
L 354.839216 538.599778 
L 380.869481 540.90816 
L 383.409019 541.116061 
L 391.662517 541.776824 
L 393.567171 541.940012 
L 401.82067 542.564417 
L 406.264861 542.91587 
L 460.230045 546.534031 
L 465.309121 546.814051 
L 467.213775 546.941158 
L 469.118428 547.011756 
L 470.388197 547.127974 
L 472.927735 547.275353 
L 474.832389 547.361289 
L 477.371927 547.515124 
L 485.625426 547.966161 
L 486.895195 547.985609 
L 490.069617 548.171857 
L 495.148693 548.455861 
L 496.418462 548.523258 
L 498.323116 548.600769 
L 501.497538 548.735913 
L 505.94173 548.979087 
L 507.846384 549.032805 
L 511.020806 549.239862 
L 537.685956 550.304938 
L 539.590609 550.344133 
L 542.130147 550.482452 
L 542.765032 550.427189 
L 544.034801 550.495905 
L 545.939455 550.606224 
L 547.844108 550.622764 
L 549.113877 550.710687 
L 556.097607 550.936254 
L 556.732491 550.87685 
L 558.00226 550.968573 
L 560.541798 551.06164 
L 568.795297 551.319134 
L 570.065066 551.395783 
L 571.334835 551.436601 
L 573.239489 551.504364 
L 573.239489 551.504364 
" clip-path="url(#p4183a98c2a)" style="fill: none; stroke: #1f77b4; stroke-width: 1.5; stroke-linecap: square"/>
   </g>
   <g id="line2d_34">
    <path d="M 65.966761 494.298464 
L 67.23653 494.490239 
L 71.045837 494.724433 
L 73.585376 494.811016 
L 75.490029 494.761598 
L 77.394683 494.751555 
L 86.283066 494.229107 
L 90.092373 493.829304 
L 92.631911 493.563567 
L 94.536565 493.317017 
L 95.171449 493.246823 
L 95.806334 493.034606 
L 96.441218 493.082618 
L 97.076103 492.887487 
L 97.710987 492.884238 
L 98.980756 492.688442 
L 107.234255 491.172705 
L 108.504024 490.89372 
L 109.138908 490.828022 
L 109.773793 490.639209 
L 110.408677 490.644241 
L 111.678446 490.242276 
L 112.313331 490.10388 
L 112.948215 490.091935 
L 113.5831 489.781423 
L 114.217984 489.778537 
L 114.852869 489.647681 
L 115.487754 489.37815 
L 122.471483 487.692025 
L 123.106368 487.461815 
L 123.741252 487.479803 
L 125.011021 487.219524 
L 127.550559 486.355869 
L 128.185444 486.43609 
L 130.090097 485.804407 
L 130.724982 485.852749 
L 131.359866 485.621733 
L 131.994751 485.591282 
L 132.629635 485.287855 
L 133.899404 484.901797 
L 134.534289 484.515636 
L 135.169173 484.292009 
L 135.804058 484.494449 
L 137.073827 483.919539 
L 137.708712 483.966131 
L 138.343596 483.606903 
L 139.613365 483.382228 
L 140.883134 482.94106 
L 141.518019 482.616478 
L 142.152903 482.459203 
L 142.787788 482.542192 
L 144.057557 482.018241 
L 144.692441 482.085339 
L 145.96221 481.261843 
L 147.231979 481.122491 
L 148.501748 480.570823 
L 149.136633 480.670264 
L 149.771517 480.303189 
L 152.94594 479.192027 
L 153.580824 479.393212 
L 154.215709 479.105525 
L 154.850593 478.439315 
L 155.485478 478.348954 
L 156.120362 478.430915 
L 156.755247 478.252085 
L 157.390131 478.234108 
L 159.294785 477.06468 
L 161.199439 476.572295 
L 162.469208 476.180572 
L 163.104092 476.097422 
L 163.738977 475.856023 
L 164.373861 475.877438 
L 165.008746 475.356017 
L 165.64363 475.345801 
L 166.278515 474.795204 
L 166.913399 474.853643 
L 167.548284 474.323206 
L 168.183168 474.197766 
L 168.818053 473.851467 
L 170.087822 473.95706 
L 171.357591 472.793264 
L 171.992475 473.150708 
L 172.62736 472.631611 
L 173.262244 473.002503 
L 173.897129 472.672905 
L 174.532013 472.007787 
L 175.166898 471.812331 
L 175.801782 471.429742 
L 176.436667 471.212104 
L 177.071551 470.874724 
L 177.706436 471.191036 
L 178.34132 470.086209 
L 178.976205 470.275427 
L 179.61109 470.007922 
L 180.880859 470.206621 
L 181.515743 469.507202 
L 182.150628 469.904179 
L 182.785512 468.738762 
L 183.420397 468.677285 
L 184.055281 469.099903 
L 185.32505 468.012155 
L 185.959935 468.439735 
L 188.499473 466.727385 
L 189.134357 466.231475 
L 189.769242 466.198786 
L 190.404126 465.737479 
L 191.039011 466.085356 
L 191.673895 465.809993 
L 192.30878 465.748862 
L 192.943664 465.410725 
L 193.578549 465.212988 
L 194.213433 465.272746 
L 194.848318 463.672582 
L 195.483202 464.324048 
L 196.118087 463.234506 
L 196.752971 464.132246 
L 197.387856 463.533998 
L 198.02274 462.630107 
L 198.657625 462.671434 
L 200.562278 461.868185 
L 201.197163 462.26715 
L 201.832048 461.628473 
L 202.466932 461.778278 
L 203.101817 460.645745 
L 203.736701 460.502469 
L 204.371586 460.125707 
L 205.00647 460.187443 
L 205.641355 460.422561 
L 206.276239 460.372197 
L 206.911124 459.346553 
L 207.546008 459.615907 
L 208.180893 458.522052 
L 208.815777 458.559314 
L 209.450662 459.048954 
L 210.085546 458.191168 
L 211.355315 457.407744 
L 211.9902 457.566641 
L 212.625084 456.882291 
L 213.259969 455.804727 
L 213.894853 456.284054 
L 214.529738 455.447575 
L 215.164622 456.730702 
L 215.799507 454.959102 
L 216.434391 456.046547 
L 217.069276 454.943125 
L 217.70416 454.321333 
L 218.339045 453.260254 
L 218.973929 453.754921 
L 219.608814 453.560513 
L 220.878583 452.463459 
L 221.513467 450.879034 
L 222.148352 452.719407 
L 222.783237 451.255504 
L 223.418121 450.649473 
L 224.053006 450.984173 
L 224.68789 451.639822 
L 225.322775 451.115633 
L 225.957659 451.399742 
L 226.592544 449.751106 
L 227.227428 450.310417 
L 227.862313 450.082855 
L 228.497197 448.774291 
L 229.132082 448.94669 
L 229.766966 447.874422 
L 230.401851 448.14957 
L 231.036735 447.999624 
L 231.67162 447.225151 
L 232.306504 447.168442 
L 232.941389 446.006451 
L 234.211158 446.66716 
L 234.846042 445.589628 
L 235.480927 446.040373 
L 236.115811 444.38443 
L 236.750696 443.686751 
L 237.38558 445.918209 
L 238.655349 445.412841 
L 239.290234 443.318562 
L 239.925118 443.700653 
L 241.194887 442.273687 
L 242.464656 441.279847 
L 243.099541 442.275114 
L 243.734425 440.575131 
L 244.36931 440.75808 
L 245.004195 440.181571 
L 245.639079 440.878871 
L 246.908848 438.894076 
L 247.543733 438.970351 
L 248.813502 439.923687 
L 249.448386 436.570128 
L 250.083271 437.944546 
L 250.718155 436.784414 
L 251.35304 438.298066 
L 251.987924 437.720281 
L 252.622809 435.269077 
L 253.257693 436.327756 
L 253.892578 436.556507 
L 254.527462 435.292254 
L 255.797231 434.367554 
L 256.432116 434.131377 
L 257.067 433.154086 
L 257.701885 432.556303 
L 258.336769 433.2274 
L 258.971654 432.514544 
L 259.606538 433.241453 
L 260.241423 431.553371 
L 260.876307 431.882634 
L 261.511192 430.715422 
L 262.146076 430.178499 
L 262.780961 429.032583 
L 263.415845 430.052076 
L 264.05073 432.107687 
L 264.685614 428.761511 
L 265.320499 427.931983 
L 265.955384 427.328568 
L 266.590268 428.186732 
L 267.225153 426.455897 
L 267.860037 426.670065 
L 268.494922 425.414254 
L 269.764691 426.717845 
L 270.399575 425.210594 
L 271.03446 425.600003 
L 271.669344 421.920532 
L 272.304229 425.043914 
L 272.939113 424.472907 
L 273.573998 422.030351 
L 274.208882 423.018063 
L 275.478651 421.539814 
L 276.113536 420.081521 
L 276.74842 420.55327 
L 277.383305 422.927204 
L 278.018189 417.236487 
L 278.653074 419.194073 
L 279.287958 417.733056 
L 279.922843 418.076014 
L 281.192612 418.459943 
L 281.827496 416.596642 
L 282.462381 418.699233 
L 283.097265 418.190698 
L 283.73215 414.174765 
L 284.367034 415.534979 
L 285.001919 414.922516 
L 285.636803 414.694338 
L 286.271688 413.479638 
L 286.906572 414.732919 
L 287.541457 412.337819 
L 288.176342 415.398416 
L 289.446111 412.000103 
L 290.080995 411.547477 
L 290.71588 409.173176 
L 291.350764 412.184479 
L 291.985649 411.857714 
L 292.620533 408.075689 
L 293.255418 409.218924 
L 293.890302 409.084274 
L 294.525187 411.558374 
L 295.160071 407.109641 
L 295.794956 407.350142 
L 296.42984 404.531235 
L 297.064725 406.441711 
L 297.699609 404.341011 
L 298.334494 403.077753 
L 298.969378 405.749286 
L 299.604263 404.688121 
L 300.239147 404.35981 
L 300.874032 404.626396 
L 301.508916 400.98796 
L 302.143801 400.510028 
L 302.778685 400.326679 
L 303.41357 400.890302 
L 304.048454 401.64669 
L 304.683339 399.737501 
L 305.318223 399.69052 
L 305.953108 397.101521 
L 306.587992 399.518522 
L 307.857761 395.984176 
L 308.492646 397.299885 
L 309.127531 395.561677 
L 309.762415 396.34375 
L 310.3973 394.462936 
L 311.032184 395.745361 
L 311.667069 397.290307 
L 312.301953 395.116629 
L 312.936838 391.964698 
L 313.571722 393.855197 
L 314.206607 388.483332 
L 314.841491 393.985036 
L 315.476376 393.446719 
L 316.11126 392.603678 
L 316.746145 392.21949 
L 317.381029 392.920498 
L 318.015914 392.229846 
L 318.650798 387.678158 
L 319.285683 386.527281 
L 319.920567 390.404596 
L 320.555452 386.846911 
L 321.190336 387.967629 
L 321.825221 388.763225 
L 322.460105 385.885101 
L 323.09499 389.476232 
L 323.729874 383.520107 
L 324.364759 383.112223 
L 324.999643 383.864579 
L 325.634528 378.445128 
L 326.904297 382.838903 
L 327.539181 381.084307 
L 328.174066 381.705753 
L 328.80895 380.852259 
L 329.443835 375.631172 
L 330.078719 377.783814 
L 330.713604 378.97644 
L 331.348489 375.665483 
L 331.983373 380.182946 
L 332.618258 375.366175 
L 333.253142 375.13203 
L 333.888027 374.647655 
L 334.522911 373.314607 
L 335.157796 373.628076 
L 335.79268 370.970455 
L 336.427565 374.035462 
L 337.062449 372.623285 
L 337.697334 370.722927 
L 338.332218 370.376466 
L 338.967103 372.930073 
L 339.601987 368.447397 
L 340.236872 364.848958 
L 340.871756 367.25717 
L 341.506641 371.181747 
L 342.141525 366.924568 
L 342.77641 369.115131 
L 343.411294 366.64381 
L 344.046179 367.791747 
L 344.681063 366.867923 
L 345.950832 364.014317 
L 346.585717 361.163347 
L 347.220601 363.268728 
L 348.49037 360.98228 
L 349.125255 359.092797 
L 349.760139 363.806051 
L 350.395024 357.845883 
L 351.029908 359.704276 
L 351.664793 359.602489 
L 352.299678 361.316785 
L 352.934562 358.465275 
L 353.569447 358.695485 
L 354.204331 355.051817 
L 354.839216 358.171956 
L 355.4741 351.927614 
L 356.108985 355.157366 
L 356.743869 352.080554 
L 357.378754 353.932375 
L 358.013638 350.455268 
L 358.648523 353.644353 
L 359.283407 349.487404 
L 359.918292 348.310193 
L 360.553176 348.843214 
L 361.188061 350.73741 
L 361.822945 348.568791 
L 362.45783 342.63448 
L 363.092714 350.413455 
L 363.727599 349.453763 
L 364.362483 347.494664 
L 364.997368 345.168586 
L 365.632252 348.459761 
L 366.902021 340.863886 
L 367.536906 341.73807 
L 368.17179 340.326844 
L 368.806675 343.203217 
L 369.441559 340.806225 
L 370.076444 337.645246 
L 370.711328 338.732734 
L 371.346213 335.582068 
L 371.981097 334.372103 
L 372.615982 342.953224 
L 373.250866 336.091933 
L 373.885751 335.998189 
L 374.520636 337.024557 
L 375.15552 331.864157 
L 375.790405 334.583655 
L 376.425289 335.883775 
L 377.060174 327.18143 
L 377.695058 326.855249 
L 378.329943 328.455283 
L 378.964827 333.186741 
L 379.599712 329.683668 
L 380.234596 329.708596 
L 380.869481 329.537106 
L 381.504365 323.709793 
L 382.13925 322.915278 
L 382.774134 325.389151 
L 383.409019 326.105552 
L 384.043903 320.97488 
L 384.678788 321.877128 
L 385.313672 324.493022 
L 386.583441 316.838751 
L 387.218326 328.862907 
L 387.85321 318.571446 
L 388.488095 319.846704 
L 389.122979 313.939072 
L 389.757864 318.843145 
L 390.392748 316.283938 
L 391.027633 319.256606 
L 391.662517 313.473225 
L 392.297402 314.546963 
L 392.932286 312.874977 
L 393.567171 311.858555 
L 394.202055 313.376865 
L 394.83694 298.327958 
L 395.471825 309.09279 
L 396.106709 307.526159 
L 396.741594 305.336828 
L 397.376478 312.636206 
L 398.011363 307.679077 
L 398.646247 307.654409 
L 399.281132 313.142417 
L 399.916016 303.003485 
L 400.550901 304.367212 
L 401.185785 301.338851 
L 401.82067 303.622445 
L 402.455554 302.732435 
L 403.090439 303.849369 
L 403.725323 305.397364 
L 404.360208 295.285155 
L 404.995092 302.337372 
L 405.629977 302.875625 
L 406.264861 302.272599 
L 406.899746 294.623819 
L 407.53463 302.181838 
L 408.169515 303.014879 
L 408.804399 289.040315 
L 409.439284 286.59857 
L 410.074168 295.815343 
L 410.709053 289.219502 
L 411.343937 302.272382 
L 411.978822 288.298489 
L 412.613706 290.207668 
L 413.248591 286.615888 
L 413.883475 290.477075 
L 414.51836 290.299942 
L 415.153244 286.526532 
L 415.788129 291.182515 
L 417.057898 288.366722 
L 417.692783 283.858274 
L 418.327667 285.463864 
L 418.962552 281.248866 
L 419.597436 285.015443 
L 420.232321 290.019487 
L 420.867205 286.189087 
L 421.50209 277.004918 
L 422.136974 278.585753 
L 422.771859 277.470008 
L 423.406743 268.931434 
L 424.041628 269.569074 
L 424.676512 277.556337 
L 425.311397 271.617075 
L 425.946281 273.943758 
L 426.581166 270.437335 
L 427.21605 274.465817 
L 427.850935 274.94989 
L 428.485819 277.686986 
L 429.120704 281.915282 
L 429.755588 268.979215 
L 431.025357 254.615101 
L 431.660242 268.174668 
L 432.295126 266.874526 
L 432.930011 270.676928 
L 433.564895 269.83846 
L 434.19978 263.917337 
L 434.834664 264.377433 
L 435.469549 264.291256 
L 436.104433 265.164316 
L 436.739318 254.364633 
L 437.374202 258.664036 
L 438.009087 252.23346 
L 438.643972 257.37719 
L 439.278856 258.484309 
L 439.913741 254.940915 
L 440.548625 254.654623 
L 441.18351 250.822471 
L 441.818394 253.142236 
L 442.453279 257.652846 
L 443.088163 253.924017 
L 443.723048 251.724178 
L 444.357932 241.093391 
L 444.992817 247.875812 
L 445.627701 234.559557 
L 446.262586 249.916311 
L 446.89747 249.946514 
L 447.532355 237.056173 
L 448.802124 246.87115 
L 449.437008 243.849102 
L 450.071893 245.872175 
L 450.706777 235.538858 
L 451.341662 242.276828 
L 451.976546 234.823732 
L 452.611431 245.219553 
L 453.246315 235.801844 
L 453.8812 239.07008 
L 454.516084 235.374783 
L 455.150969 239.707849 
L 455.785853 236.144435 
L 456.420738 234.433858 
L 457.055622 231.600444 
L 457.690507 223.402516 
L 458.325391 236.660613 
L 458.960276 228.002892 
L 459.59516 241.013807 
L 460.230045 228.526529 
L 460.86493 228.598805 
L 461.499814 229.536141 
L 462.134699 231.928809 
L 462.769583 231.560015 
L 463.404468 226.474701 
L 464.039352 218.149972 
L 464.674237 214.730547 
L 465.309121 225.709936 
L 465.944006 229.459455 
L 466.57889 215.51743 
L 467.213775 207.171318 
L 467.848659 218.980592 
L 468.483544 222.219165 
L 469.118428 220.710151 
L 469.753313 216.888486 
L 470.388197 220.815203 
L 471.023082 213.155333 
L 471.657966 216.961951 
L 472.292851 218.130903 
L 473.56262 212.247032 
L 474.197504 206.206026 
L 474.832389 220.357701 
L 475.467273 197.145113 
L 476.102158 211.229096 
L 476.737042 198.315146 
L 477.371927 204.364172 
L 478.006811 205.52906 
L 478.641696 196.848659 
L 479.27658 189.8474 
L 479.911465 205.380141 
L 480.546349 192.712054 
L 481.181234 198.841291 
L 481.816119 194.94895 
L 482.451003 196.248962 
L 483.085888 210.221905 
L 483.720772 199.16036 
L 484.355657 194.436036 
L 484.990541 200.427467 
L 485.625426 200.424656 
L 486.26031 201.614234 
L 486.895195 199.889171 
L 487.530079 186.399177 
L 488.164964 188.904853 
L 488.799848 195.097566 
L 489.434733 194.771233 
L 490.069617 176.566385 
L 490.704502 184.187491 
L 491.339386 172.130689 
L 491.974271 188.705992 
L 492.609155 186.276635 
L 493.24404 176.133552 
L 493.878924 176.428579 
L 495.148693 187.262335 
L 495.783578 180.827997 
L 496.418462 178.838391 
L 497.053347 190.681414 
L 497.688231 167.535653 
L 498.958 169.420185 
L 499.592885 166.211945 
L 500.227769 185.01009 
L 500.862654 174.472658 
L 501.497538 168.386056 
L 502.132423 174.261906 
L 502.767308 164.210405 
L 503.402192 162.657179 
L 504.037077 163.64262 
L 504.671961 162.224086 
L 505.306846 162.618609 
L 505.94173 158.823038 
L 506.576615 172.557858 
L 507.211499 164.531895 
L 507.846384 177.177367 
L 508.481268 156.831833 
L 509.116153 157.468846 
L 509.751037 170.356073 
L 510.385922 148.771192 
L 511.020806 171.974203 
L 512.290575 150.752106 
L 512.92546 161.801717 
L 513.560344 149.948576 
L 514.195229 162.202682 
L 514.830113 146.615329 
L 515.464998 134.584471 
L 516.099882 138.863076 
L 516.734767 151.889926 
L 517.369651 159.185606 
L 518.004536 159.358956 
L 518.63942 157.734253 
L 519.274305 153.894406 
L 519.909189 152.211848 
L 520.544074 139.715943 
L 521.178958 159.506275 
L 521.813843 133.040844 
L 522.448727 140.890344 
L 523.083612 128.138674 
L 523.718496 145.564422 
L 524.353381 131.816674 
L 524.988266 132.736045 
L 525.62315 151.419041 
L 526.258035 128.897105 
L 526.892919 135.556032 
L 527.527804 130.099352 
L 528.162688 144.362954 
L 528.797573 145.715373 
L 529.432457 135.365733 
L 530.067342 136.887091 
L 530.702226 121.918244 
L 531.337111 129.873206 
L 531.971995 122.471414 
L 532.60688 131.193628 
L 533.241764 121.137674 
L 534.511533 125.391416 
L 535.146418 120.264917 
L 535.781302 127.533918 
L 536.416187 119.068766 
L 537.051071 118.653792 
L 537.685956 124.923515 
L 538.32084 121.06222 
L 538.955725 118.254037 
L 539.590609 114.892597 
L 540.225494 130.60085 
L 540.860378 136.80874 
L 541.495263 119.962668 
L 542.130147 107.57828 
L 542.765032 108.652061 
L 543.399916 118.111993 
L 544.034801 135.641042 
L 544.669685 104.36684 
L 545.30457 106.568538 
L 545.939455 107.714313 
L 546.574339 109.28289 
L 547.209224 105.097251 
L 547.844108 116.060425 
L 548.478993 115.698289 
L 549.113877 92.425013 
L 549.748762 88.963819 
L 550.383646 88.135512 
L 551.018531 96.930456 
L 551.653415 119.304814 
L 552.2883 101.117435 
L 552.923184 94.549052 
L 553.558069 94.813379 
L 554.192953 89.939834 
L 554.827838 102.769854 
L 555.462722 96.232734 
L 556.097607 83.015196 
L 556.732491 101.518789 
L 557.367376 107.248358 
L 558.00226 82.535923 
L 558.637145 86.075512 
L 559.272029 85.113939 
L 559.906914 85.127517 
L 560.541798 78.239546 
L 561.176683 85.972903 
L 561.811567 84.01015 
L 562.446452 93.832391 
L 563.081336 99.457103 
L 564.351105 83.1076 
L 564.98599 77.659654 
L 565.620874 83.399557 
L 566.255759 87.833826 
L 566.890643 69.707805 
L 567.525528 60.379365 
L 568.795297 80.870013 
L 569.430182 65.077615 
L 570.065066 75.73106 
L 570.699951 68.33943 
L 571.334835 75.163145 
L 571.96972 79.900657 
L 572.604604 47.518125 
L 573.239489 70.74068 
L 573.239489 70.74068 
" clip-path="url(#p4183a98c2a)" style="fill: none; stroke: #ff7f0e; stroke-width: 1.5; stroke-linecap: square"/>
   </g>
   <g id="patch_3">
    <path d="M 40.603125 576.718125 
L 40.603125 22.318125 
" style="fill: none; stroke: #000000; stroke-width: 0.8; stroke-linejoin: miter; stroke-linecap: square"/>
   </g>
   <g id="patch_4">
    <path d="M 598.603125 576.718125 
L 598.603125 22.318125 
" style="fill: none; stroke: #000000; stroke-width: 0.8; stroke-linejoin: miter; stroke-linecap: square"/>
   </g>
   <g id="patch_5">
    <path d="M 40.603125 576.718125 
L 598.603125 576.718125 
" style="fill: none; stroke: #000000; stroke-width: 0.8; stroke-linejoin: miter; stroke-linecap: square"/>
   </g>
   <g id="patch_6">
    <path d="M 40.603125 22.318125 
L 598.603125 22.318125 
" style="fill: none; stroke: #000000; stroke-width: 0.8; stroke-linejoin: miter; stroke-linecap: square"/>
   </g>
   <g id="text_19">
    <!-- Train and Val Loss -->
    <g transform="translate(266.057812 16.318125) scale(0.12 -0.12)">
     <defs>
      <path id="DejaVuSans-54" d="M -19 4666 
L 3928 4666 
L 3928 4134 
L 2272 4134 
L 2272 0 
L 1638 0 
L 1638 4134 
L -19 4134 
L -19 4666 
z
" transform="scale(0.015625)"/>
      <path id="DejaVuSans-72" d="M 2631 2963 
Q 2534 3019 2420 3045 
Q 2306 3072 2169 3072 
Q 1681 3072 1420 2755 
Q 1159 2438 1159 1844 
L 1159 0 
L 581 0 
L 581 3500 
L 1159 3500 
L 1159 2956 
Q 1341 3275 1631 3429 
Q 1922 3584 2338 3584 
Q 2397 3584 2469 3576 
Q 2541 3569 2628 3553 
L 2631 2963 
z
" transform="scale(0.015625)"/>
      <path id="DejaVuSans-61" d="M 2194 1759 
Q 1497 1759 1228 1600 
Q 959 1441 959 1056 
Q 959 750 1161 570 
Q 1363 391 1709 391 
Q 2188 391 2477 730 
Q 2766 1069 2766 1631 
L 2766 1759 
L 2194 1759 
z
M 3341 1997 
L 3341 0 
L 2766 0 
L 2766 531 
Q 2569 213 2275 61 
Q 1981 -91 1556 -91 
Q 1019 -91 701 211 
Q 384 513 384 1019 
Q 384 1609 779 1909 
Q 1175 2209 1959 2209 
L 2766 2209 
L 2766 2266 
Q 2766 2663 2505 2880 
Q 2244 3097 1772 3097 
Q 1472 3097 1187 3025 
Q 903 2953 641 2809 
L 641 3341 
Q 956 3463 1253 3523 
Q 1550 3584 1831 3584 
Q 2591 3584 2966 3190 
Q 3341 2797 3341 1997 
z
" transform="scale(0.015625)"/>
      <path id="DejaVuSans-69" d="M 603 3500 
L 1178 3500 
L 1178 0 
L 603 0 
L 603 3500 
z
M 603 4863 
L 1178 4863 
L 1178 4134 
L 603 4134 
L 603 4863 
z
" transform="scale(0.015625)"/>
      <path id="DejaVuSans-6e" d="M 3513 2113 
L 3513 0 
L 2938 0 
L 2938 2094 
Q 2938 2591 2744 2837 
Q 2550 3084 2163 3084 
Q 1697 3084 1428 2787 
Q 1159 2491 1159 1978 
L 1159 0 
L 581 0 
L 581 3500 
L 1159 3500 
L 1159 2956 
Q 1366 3272 1645 3428 
Q 1925 3584 2291 3584 
Q 2894 3584 3203 3211 
Q 3513 2838 3513 2113 
z
" transform="scale(0.015625)"/>
      <path id="DejaVuSans-20" transform="scale(0.015625)"/>
      <path id="DejaVuSans-64" d="M 2906 2969 
L 2906 4863 
L 3481 4863 
L 3481 0 
L 2906 0 
L 2906 525 
Q 2725 213 2448 61 
Q 2172 -91 1784 -91 
Q 1150 -91 751 415 
Q 353 922 353 1747 
Q 353 2572 751 3078 
Q 1150 3584 1784 3584 
Q 2172 3584 2448 3432 
Q 2725 3281 2906 2969 
z
M 947 1747 
Q 947 1113 1208 752 
Q 1469 391 1925 391 
Q 2381 391 2643 752 
Q 2906 1113 2906 1747 
Q 2906 2381 2643 2742 
Q 2381 3103 1925 3103 
Q 1469 3103 1208 2742 
Q 947 2381 947 1747 
z
" transform="scale(0.015625)"/>
      <path id="DejaVuSans-56" d="M 1831 0 
L 50 4666 
L 709 4666 
L 2188 738 
L 3669 4666 
L 4325 4666 
L 2547 0 
L 1831 0 
z
" transform="scale(0.015625)"/>
      <path id="DejaVuSans-6c" d="M 603 4863 
L 1178 4863 
L 1178 0 
L 603 0 
L 603 4863 
z
" transform="scale(0.015625)"/>
     </defs>
     <use xlink:href="#DejaVuSans-54"/>
     <use xlink:href="#DejaVuSans-72" transform="translate(46.333984 0)"/>
     <use xlink:href="#DejaVuSans-61" transform="translate(87.447266 0)"/>
     <use xlink:href="#DejaVuSans-69" transform="translate(148.726562 0)"/>
     <use xlink:href="#DejaVuSans-6e" transform="translate(176.509766 0)"/>
     <use xlink:href="#DejaVuSans-20" transform="translate(239.888672 0)"/>
     <use xlink:href="#DejaVuSans-61" transform="translate(271.675781 0)"/>
     <use xlink:href="#DejaVuSans-6e" transform="translate(332.955078 0)"/>
     <use xlink:href="#DejaVuSans-64" transform="translate(396.333984 0)"/>
     <use xlink:href="#DejaVuSans-20" transform="translate(459.810547 0)"/>
     <use xlink:href="#DejaVuSans-56" transform="translate(491.597656 0)"/>
     <use xlink:href="#DejaVuSans-61" transform="translate(552.255859 0)"/>
     <use xlink:href="#DejaVuSans-6c" transform="translate(613.535156 0)"/>
     <use xlink:href="#DejaVuSans-20" transform="translate(641.318359 0)"/>
     <use xlink:href="#DejaVuSans-4c" transform="translate(673.105469 0)"/>
     <use xlink:href="#DejaVuSans-6f" transform="translate(727.068359 0)"/>
     <use xlink:href="#DejaVuSans-73" transform="translate(788.25 0)"/>
     <use xlink:href="#DejaVuSans-73" transform="translate(840.349609 0)"/>
    </g>
   </g>
   <g id="legend_1">
    <g id="patch_7">
     <path d="M 47.603125 60.230625 
L 127.19375 60.230625 
Q 129.19375 60.230625 129.19375 58.230625 
L 129.19375 29.318125 
Q 129.19375 27.318125 127.19375 27.318125 
L 47.603125 27.318125 
Q 45.603125 27.318125 45.603125 29.318125 
L 45.603125 58.230625 
Q 45.603125 60.230625 47.603125 60.230625 
z
" style="fill: #ffffff; opacity: 0.8; stroke: #cccccc; stroke-linejoin: miter"/>
    </g>
    <g id="line2d_35">
     <path d="M 49.603125 35.416563 
L 59.603125 35.416563 
L 69.603125 35.416563 
" style="fill: none; stroke: #1f77b4; stroke-width: 1.5; stroke-linecap: square"/>
    </g>
    <g id="text_20">
     <!-- train_loss -->
     <g transform="translate(77.603125 38.916563) scale(0.1 -0.1)">
      <defs>
       <path id="DejaVuSans-74" d="M 1172 4494 
L 1172 3500 
L 2356 3500 
L 2356 3053 
L 1172 3053 
L 1172 1153 
Q 1172 725 1289 603 
Q 1406 481 1766 481 
L 2356 481 
L 2356 0 
L 1766 0 
Q 1100 0 847 248 
Q 594 497 594 1153 
L 594 3053 
L 172 3053 
L 172 3500 
L 594 3500 
L 594 4494 
L 1172 4494 
z
" transform="scale(0.015625)"/>
       <path id="DejaVuSans-5f" d="M 3263 -1063 
L 3263 -1509 
L -63 -1509 
L -63 -1063 
L 3263 -1063 
z
" transform="scale(0.015625)"/>
      </defs>
      <use xlink:href="#DejaVuSans-74"/>
      <use xlink:href="#DejaVuSans-72" transform="translate(39.208984 0)"/>
      <use xlink:href="#DejaVuSans-61" transform="translate(80.322266 0)"/>
      <use xlink:href="#DejaVuSans-69" transform="translate(141.601562 0)"/>
      <use xlink:href="#DejaVuSans-6e" transform="translate(169.384766 0)"/>
      <use xlink:href="#DejaVuSans-5f" transform="translate(232.763672 0)"/>
      <use xlink:href="#DejaVuSans-6c" transform="translate(282.763672 0)"/>
      <use xlink:href="#DejaVuSans-6f" transform="translate(310.546875 0)"/>
      <use xlink:href="#DejaVuSans-73" transform="translate(371.728516 0)"/>
      <use xlink:href="#DejaVuSans-73" transform="translate(423.828125 0)"/>
     </g>
    </g>
    <g id="line2d_36">
     <path d="M 49.603125 50.372813 
L 59.603125 50.372813 
L 69.603125 50.372813 
" style="fill: none; stroke: #ff7f0e; stroke-width: 1.5; stroke-linecap: square"/>
    </g>
    <g id="text_21">
     <!-- val_loss -->
     <g transform="translate(77.603125 53.872813) scale(0.1 -0.1)">
      <defs>
       <path id="DejaVuSans-76" d="M 191 3500 
L 800 3500 
L 1894 563 
L 2988 3500 
L 3597 3500 
L 2284 0 
L 1503 0 
L 191 3500 
z
" transform="scale(0.015625)"/>
      </defs>
      <use xlink:href="#DejaVuSans-76"/>
      <use xlink:href="#DejaVuSans-61" transform="translate(59.179688 0)"/>
      <use xlink:href="#DejaVuSans-6c" transform="translate(120.458984 0)"/>
      <use xlink:href="#DejaVuSans-5f" transform="translate(148.242188 0)"/>
      <use xlink:href="#DejaVuSans-6c" transform="translate(198.242188 0)"/>
      <use xlink:href="#DejaVuSans-6f" transform="translate(226.025391 0)"/>
      <use xlink:href="#DejaVuSans-73" transform="translate(287.207031 0)"/>
      <use xlink:href="#DejaVuSans-73" transform="translate(339.306641 0)"/>
     </g>
    </g>
   </g>
  </g>
 </g>
 <defs>
  <clipPath id="p4183a98c2a">
   <rect x="40.603125" y="22.318125" width="558" height="554.4"/>
  </clipPath>
 </defs>
</svg>
