<?xml version="1.0" encoding="utf-8" standalone="no"?>
<!DOCTYPE svg PUBLIC "-//W3C//DTD SVG 1.1//EN"
  "http://www.w3.org/Graphics/SVG/1.1/DTD/svg11.dtd">
<svg xmlns:xlink="http://www.w3.org/1999/xlink" width="608.98125pt" height="614.274375pt" viewBox="0 0 608.98125 614.274375" xmlns="http://www.w3.org/2000/svg" version="1.1">
 <metadata>
  <rdf:RDF xmlns:dc="http://purl.org/dc/elements/1.1/" xmlns:cc="http://creativecommons.org/ns#" xmlns:rdf="http://www.w3.org/1999/02/22-rdf-syntax-ns#">
   <cc:Work>
    <dc:type rdf:resource="http://purl.org/dc/dcmitype/StillImage"/>
    <dc:date>2026-05-30T17:47:27.758004</dc:date>
    <dc:format>image/svg+xml</dc:format>
    <dc:creator>
     <cc:Agent>
      <dc:title>Matplotlib v3.10.9, https://matplotlib.org/</dc:title>
     </cc:Agent>
    </dc:creator>
   </cc:Work>
  </rdf:RDF>
 </metadata>
 <defs>
  <style type="text/css">*{stroke-linejoin: round; stroke-linecap: butt}</style>
 </defs>
 <g id="figure_1">
  <g id="patch_1">
   <path d="M 0 614.274375 
L 608.98125 614.274375 
L 608.98125 0 
L 0 0 
z
" style="fill: #ffffff"/>
  </g>
  <g id="axes_1">
   <g id="patch_2">
    <path d="M 43.78125 576.718125 
L 601.78125 576.718125 
L 601.78125 22.318125 
L 43.78125 22.318125 
z
" style="fill: #ffffff"/>
   </g>
   <g id="matplotlib.axis_1">
    <g id="xtick_1">
     <g id="line2d_1">
      <path d="M 69.144886 576.718125 
L 69.144886 22.318125 
" clip-path="url(#p7043891e3d)" style="fill: none; stroke: #b0b0b0; stroke-width: 0.8; stroke-linecap: square"/>
     </g>
     <g id="line2d_2">
      <defs>
       <path id="m96ed18bada" d="M 0 0 
L 0 3.5 
" style="stroke: #000000; stroke-width: 0.8"/>
      </defs>
      <g>
       <use xlink:href="#m96ed18bada" x="69.144886" y="576.718125" style="stroke: #000000; stroke-width: 0.8"/>
      </g>
     </g>
     <g id="text_1">
      <!-- 0 -->
      <g transform="translate(65.963636 591.316563) scale(0.1 -0.1)">
       <defs>
        <path id="DejaVuSans-30" d="M 2034 4250 
Q 1547 4250 1301 3770 
Q 1056 3291 1056 2328 
Q 1056 1369 1301 889 
Q 1547 409 2034 409 
Q 2525 409 2770 889 
Q 3016 1369 3016 2328 
Q 3016 3291 2770 3770 
Q 2525 4250 2034 4250 
z
M 2034 4750 
Q 2819 4750 3233 4129 
Q 3647 3509 3647 2328 
Q 3647 1150 3233 529 
Q 2819 -91 2034 -91 
Q 1250 -91 836 529 
Q 422 1150 422 2328 
Q 422 3509 836 4129 
Q 1250 4750 2034 4750 
z
" transform="scale(0.015625)"/>
       </defs>
       <use xlink:href="#DejaVuSans-30"/>
      </g>
     </g>
    </g>
    <g id="xtick_2">
     <g id="line2d_3">
      <path d="M 132.633338 576.718125 
L 132.633338 22.318125 
" clip-path="url(#p7043891e3d)" style="fill: none; stroke: #b0b0b0; stroke-width: 0.8; stroke-linecap: square"/>
     </g>
     <g id="line2d_4">
      <g>
       <use xlink:href="#m96ed18bada" x="132.633338" y="576.718125" style="stroke: #000000; stroke-width: 0.8"/>
      </g>
     </g>
     <g id="text_2">
      <!-- 100 -->
      <g transform="translate(123.089588 591.316563) scale(0.1 -0.1)">
       <defs>
        <path id="DejaVuSans-31" d="M 794 531 
L 1825 531 
L 1825 4091 
L 703 3866 
L 703 4441 
L 1819 4666 
L 2450 4666 
L 2450 531 
L 3481 531 
L 3481 0 
L 794 0 
L 794 531 
z
" transform="scale(0.015625)"/>
       </defs>
       <use xlink:href="#DejaVuSans-31"/>
       <use xlink:href="#DejaVuSans-30" transform="translate(63.623047 0)"/>
       <use xlink:href="#DejaVuSans-30" transform="translate(127.246094 0)"/>
      </g>
     </g>
    </g>
    <g id="xtick_3">
     <g id="line2d_5">
      <path d="M 196.121789 576.718125 
L 196.121789 22.318125 
" clip-path="url(#p7043891e3d)" style="fill: none; stroke: #b0b0b0; stroke-width: 0.8; stroke-linecap: square"/>
     </g>
     <g id="line2d_6">
      <g>
       <use xlink:href="#m96ed18bada" x="196.121789" y="576.718125" style="stroke: #000000; stroke-width: 0.8"/>
      </g>
     </g>
     <g id="text_3">
      <!-- 200 -->
      <g transform="translate(186.578039 591.316563) scale(0.1 -0.1)">
       <defs>
        <path id="DejaVuSans-32" d="M 1228 531 
L 3431 531 
L 3431 0 
L 469 0 
L 469 531 
Q 828 903 1448 1529 
Q 2069 2156 2228 2338 
Q 2531 2678 2651 2914 
Q 2772 3150 2772 3378 
Q 2772 3750 2511 3984 
Q 2250 4219 1831 4219 
Q 1534 4219 1204 4116 
Q 875 4013 500 3803 
L 500 4441 
Q 881 4594 1212 4672 
Q 1544 4750 1819 4750 
Q 2544 4750 2975 4387 
Q 3406 4025 3406 3419 
Q 3406 3131 3298 2873 
Q 3191 2616 2906 2266 
Q 2828 2175 2409 1742 
Q 1991 1309 1228 531 
z
" transform="scale(0.015625)"/>
       </defs>
       <use xlink:href="#DejaVuSans-32"/>
       <use xlink:href="#DejaVuSans-30" transform="translate(63.623047 0)"/>
       <use xlink:href="#DejaVuSans-30" transform="translate(127.246094 0)"/>
      </g>
     </g>
    </g>
    <g id="xtick_4">
     <g id="line2d_7">
      <path d="M 259.610241 576.718125 
L 259.610241 22.318125 
" clip-path="url(#p7043891e3d)" style="fill: none; stroke: #b0b0b0; stroke-width: 0.8; stroke-linecap: square"/>
     </g>
     <g id="line2d_8">
      <g>
       <use xlink:href="#m96ed18bada" x="259.610241" y="576.718125" style="stroke: #000000; stroke-width: 0.8"/>
      </g>
     </g>
     <g id="text_4">
      <!-- 300 -->
      <g transform="translate(250.066491 591.316563) scale(0.1 -0.1)">
       <defs>
        <path id="DejaVuSans-33" d="M 2597 2516 
Q 3050 2419 3304 2112 
Q 3559 1806 3559 1356 
Q 3559 666 3084 287 
Q 2609 -91 1734 -91 
Q 1441 -91 1130 -33 
Q 819 25 488 141 
L 488 750 
Q 750 597 1062 519 
Q 1375 441 1716 441 
Q 2309 441 2620 675 
Q 2931 909 2931 1356 
Q 2931 1769 2642 2001 
Q 2353 2234 1838 2234 
L 1294 2234 
L 1294 2753 
L 1863 2753 
Q 2328 2753 2575 2939 
Q 2822 3125 2822 3475 
Q 2822 3834 2567 4026 
Q 2313 4219 1838 4219 
Q 1578 4219 1281 4162 
Q 984 4106 628 3988 
L 628 4550 
Q 988 4650 1302 4700 
Q 1616 4750 1894 4750 
Q 2613 4750 3031 4423 
Q 3450 4097 3450 3541 
Q 3450 3153 3228 2886 
Q 3006 2619 2597 2516 
z
" transform="scale(0.015625)"/>
       </defs>
       <use xlink:href="#DejaVuSans-33"/>
       <use xlink:href="#DejaVuSans-30" transform="translate(63.623047 0)"/>
       <use xlink:href="#DejaVuSans-30" transform="translate(127.246094 0)"/>
      </g>
     </g>
    </g>
    <g id="xtick_5">
     <g id="line2d_9">
      <path d="M 323.098692 576.718125 
L 323.098692 22.318125 
" clip-path="url(#p7043891e3d)" style="fill: none; stroke: #b0b0b0; stroke-width: 0.8; stroke-linecap: square"/>
     </g>
     <g id="line2d_10">
      <g>
       <use xlink:href="#m96ed18bada" x="323.098692" y="576.718125" style="stroke: #000000; stroke-width: 0.8"/>
      </g>
     </g>
     <g id="text_5">
      <!-- 400 -->
      <g transform="translate(313.554942 591.316563) scale(0.1 -0.1)">
       <defs>
        <path id="DejaVuSans-34" d="M 2419 4116 
L 825 1625 
L 2419 1625 
L 2419 4116 
z
M 2253 4666 
L 3047 4666 
L 3047 1625 
L 3713 1625 
L 3713 1100 
L 3047 1100 
L 3047 0 
L 2419 0 
L 2419 1100 
L 313 1100 
L 313 1709 
L 2253 4666 
z
" transform="scale(0.015625)"/>
       </defs>
       <use xlink:href="#DejaVuSans-34"/>
       <use xlink:href="#DejaVuSans-30" transform="translate(63.623047 0)"/>
       <use xlink:href="#DejaVuSans-30" transform="translate(127.246094 0)"/>
      </g>
     </g>
    </g>
    <g id="xtick_6">
     <g id="line2d_11">
      <path d="M 386.587144 576.718125 
L 386.587144 22.318125 
" clip-path="url(#p7043891e3d)" style="fill: none; stroke: #b0b0b0; stroke-width: 0.8; stroke-linecap: square"/>
     </g>
     <g id="line2d_12">
      <g>
       <use xlink:href="#m96ed18bada" x="386.587144" y="576.718125" style="stroke: #000000; stroke-width: 0.8"/>
      </g>
     </g>
     <g id="text_6">
      <!-- 500 -->
      <g transform="translate(377.043394 591.316563) scale(0.1 -0.1)">
       <defs>
        <path id="DejaVuSans-35" d="M 691 4666 
L 3169 4666 
L 3169 4134 
L 1269 4134 
L 1269 2991 
Q 1406 3038 1543 3061 
Q 1681 3084 1819 3084 
Q 2600 3084 3056 2656 
Q 3513 2228 3513 1497 
Q 3513 744 3044 326 
Q 2575 -91 1722 -91 
Q 1428 -91 1123 -41 
Q 819 9 494 109 
L 494 744 
Q 775 591 1075 516 
Q 1375 441 1709 441 
Q 2250 441 2565 725 
Q 2881 1009 2881 1497 
Q 2881 1984 2565 2268 
Q 2250 2553 1709 2553 
Q 1456 2553 1204 2497 
Q 953 2441 691 2322 
L 691 4666 
z
" transform="scale(0.015625)"/>
       </defs>
       <use xlink:href="#DejaVuSans-35"/>
       <use xlink:href="#DejaVuSans-30" transform="translate(63.623047 0)"/>
       <use xlink:href="#DejaVuSans-30" transform="translate(127.246094 0)"/>
      </g>
     </g>
    </g>
    <g id="xtick_7">
     <g id="line2d_13">
      <path d="M 450.075595 576.718125 
L 450.075595 22.318125 
" clip-path="url(#p7043891e3d)" style="fill: none; stroke: #b0b0b0; stroke-width: 0.8; stroke-linecap: square"/>
     </g>
     <g id="line2d_14">
      <g>
       <use xlink:href="#m96ed18bada" x="450.075595" y="576.718125" style="stroke: #000000; stroke-width: 0.8"/>
      </g>
     </g>
     <g id="text_7">
      <!-- 600 -->
      <g transform="translate(440.531845 591.316563) scale(0.1 -0.1)">
       <defs>
        <path id="DejaVuSans-36" d="M 2113 2584 
Q 1688 2584 1439 2293 
Q 1191 2003 1191 1497 
Q 1191 994 1439 701 
Q 1688 409 2113 409 
Q 2538 409 2786 701 
Q 3034 994 3034 1497 
Q 3034 2003 2786 2293 
Q 2538 2584 2113 2584 
z
M 3366 4563 
L 3366 3988 
Q 3128 4100 2886 4159 
Q 2644 4219 2406 4219 
Q 1781 4219 1451 3797 
Q 1122 3375 1075 2522 
Q 1259 2794 1537 2939 
Q 1816 3084 2150 3084 
Q 2853 3084 3261 2657 
Q 3669 2231 3669 1497 
Q 3669 778 3244 343 
Q 2819 -91 2113 -91 
Q 1303 -91 875 529 
Q 447 1150 447 2328 
Q 447 3434 972 4092 
Q 1497 4750 2381 4750 
Q 2619 4750 2861 4703 
Q 3103 4656 3366 4563 
z
" transform="scale(0.015625)"/>
       </defs>
       <use xlink:href="#DejaVuSans-36"/>
       <use xlink:href="#DejaVuSans-30" transform="translate(63.623047 0)"/>
       <use xlink:href="#DejaVuSans-30" transform="translate(127.246094 0)"/>
      </g>
     </g>
    </g>
    <g id="xtick_8">
     <g id="line2d_15">
      <path d="M 513.564047 576.718125 
L 513.564047 22.318125 
" clip-path="url(#p7043891e3d)" style="fill: none; stroke: #b0b0b0; stroke-width: 0.8; stroke-linecap: square"/>
     </g>
     <g id="line2d_16">
      <g>
       <use xlink:href="#m96ed18bada" x="513.564047" y="576.718125" style="stroke: #000000; stroke-width: 0.8"/>
      </g>
     </g>
     <g id="text_8">
      <!-- 700 -->
      <g transform="translate(504.020297 591.316563) scale(0.1 -0.1)">
       <defs>
        <path id="DejaVuSans-37" d="M 525 4666 
L 3525 4666 
L 3525 4397 
L 1831 0 
L 1172 0 
L 2766 4134 
L 525 4134 
L 525 4666 
z
" transform="scale(0.015625)"/>
       </defs>
       <use xlink:href="#DejaVuSans-37"/>
       <use xlink:href="#DejaVuSans-30" transform="translate(63.623047 0)"/>
       <use xlink:href="#DejaVuSans-30" transform="translate(127.246094 0)"/>
      </g>
     </g>
    </g>
    <g id="xtick_9">
     <g id="line2d_17">
      <path d="M 577.052498 576.718125 
L 577.052498 22.318125 
" clip-path="url(#p7043891e3d)" style="fill: none; stroke: #b0b0b0; stroke-width: 0.8; stroke-linecap: square"/>
     </g>
     <g id="line2d_18">
      <g>
       <use xlink:href="#m96ed18bada" x="577.052498" y="576.718125" style="stroke: #000000; stroke-width: 0.8"/>
      </g>
     </g>
     <g id="text_9">
      <!-- 800 -->
      <g transform="translate(567.508748 591.316563) scale(0.1 -0.1)">
       <defs>
        <path id="DejaVuSans-38" d="M 2034 2216 
Q 1584 2216 1326 1975 
Q 1069 1734 1069 1313 
Q 1069 891 1326 650 
Q 1584 409 2034 409 
Q 2484 409 2743 651 
Q 3003 894 3003 1313 
Q 3003 1734 2745 1975 
Q 2488 2216 2034 2216 
z
M 1403 2484 
Q 997 2584 770 2862 
Q 544 3141 544 3541 
Q 544 4100 942 4425 
Q 1341 4750 2034 4750 
Q 2731 4750 3128 4425 
Q 3525 4100 3525 3541 
Q 3525 3141 3298 2862 
Q 3072 2584 2669 2484 
Q 3125 2378 3379 2068 
Q 3634 1759 3634 1313 
Q 3634 634 3220 271 
Q 2806 -91 2034 -91 
Q 1263 -91 848 271 
Q 434 634 434 1313 
Q 434 1759 690 2068 
Q 947 2378 1403 2484 
z
M 1172 3481 
Q 1172 3119 1398 2916 
Q 1625 2713 2034 2713 
Q 2441 2713 2670 2916 
Q 2900 3119 2900 3481 
Q 2900 3844 2670 4047 
Q 2441 4250 2034 4250 
Q 1625 4250 1398 4047 
Q 1172 3844 1172 3481 
z
" transform="scale(0.015625)"/>
       </defs>
       <use xlink:href="#DejaVuSans-38"/>
       <use xlink:href="#DejaVuSans-30" transform="translate(63.623047 0)"/>
       <use xlink:href="#DejaVuSans-30" transform="translate(127.246094 0)"/>
      </g>
     </g>
    </g>
    <g id="text_10">
     <!-- Epochs -->
     <g transform="translate(304.865625 604.994688) scale(0.1 -0.1)">
      <defs>
       <path id="DejaVuSans-45" d="M 628 4666 
L 3578 4666 
L 3578 4134 
L 1259 4134 
L 1259 2753 
L 3481 2753 
L 3481 2222 
L 1259 2222 
L 1259 531 
L 3634 531 
L 3634 0 
L 628 0 
L 628 4666 
z
" transform="scale(0.015625)"/>
       <path id="DejaVuSans-70" d="M 1159 525 
L 1159 -1331 
L 581 -1331 
L 581 3500 
L 1159 3500 
L 1159 2969 
Q 1341 3281 1617 3432 
Q 1894 3584 2278 3584 
Q 2916 3584 3314 3078 
Q 3713 2572 3713 1747 
Q 3713 922 3314 415 
Q 2916 -91 2278 -91 
Q 1894 -91 1617 61 
Q 1341 213 1159 525 
z
M 3116 1747 
Q 3116 2381 2855 2742 
Q 2594 3103 2138 3103 
Q 1681 3103 1420 2742 
Q 1159 2381 1159 1747 
Q 1159 1113 1420 752 
Q 1681 391 2138 391 
Q 2594 391 2855 752 
Q 3116 1113 3116 1747 
z
" transform="scale(0.015625)"/>
       <path id="DejaVuSans-6f" d="M 1959 3097 
Q 1497 3097 1228 2736 
Q 959 2375 959 1747 
Q 959 1119 1226 758 
Q 1494 397 1959 397 
Q 2419 397 2687 759 
Q 2956 1122 2956 1747 
Q 2956 2369 2687 2733 
Q 2419 3097 1959 3097 
z
M 1959 3584 
Q 2709 3584 3137 3096 
Q 3566 2609 3566 1747 
Q 3566 888 3137 398 
Q 2709 -91 1959 -91 
Q 1206 -91 779 398 
Q 353 888 353 1747 
Q 353 2609 779 3096 
Q 1206 3584 1959 3584 
z
" transform="scale(0.015625)"/>
       <path id="DejaVuSans-63" d="M 3122 3366 
L 3122 2828 
Q 2878 2963 2633 3030 
Q 2388 3097 2138 3097 
Q 1578 3097 1268 2742 
Q 959 2388 959 1747 
Q 959 1106 1268 751 
Q 1578 397 2138 397 
Q 2388 397 2633 464 
Q 2878 531 3122 666 
L 3122 134 
Q 2881 22 2623 -34 
Q 2366 -91 2075 -91 
Q 1284 -91 818 406 
Q 353 903 353 1747 
Q 353 2603 823 3093 
Q 1294 3584 2113 3584 
Q 2378 3584 2631 3529 
Q 2884 3475 3122 3366 
z
" transform="scale(0.015625)"/>
       <path id="DejaVuSans-68" d="M 3513 2113 
L 3513 0 
L 2938 0 
L 2938 2094 
Q 2938 2591 2744 2837 
Q 2550 3084 2163 3084 
Q 1697 3084 1428 2787 
Q 1159 2491 1159 1978 
L 1159 0 
L 581 0 
L 581 4863 
L 1159 4863 
L 1159 2956 
Q 1366 3272 1645 3428 
Q 1925 3584 2291 3584 
Q 2894 3584 3203 3211 
Q 3513 2838 3513 2113 
z
" transform="scale(0.015625)"/>
       <path id="DejaVuSans-73" d="M 2834 3397 
L 2834 2853 
Q 2591 2978 2328 3040 
Q 2066 3103 1784 3103 
Q 1356 3103 1142 2972 
Q 928 2841 928 2578 
Q 928 2378 1081 2264 
Q 1234 2150 1697 2047 
L 1894 2003 
Q 2506 1872 2764 1633 
Q 3022 1394 3022 966 
Q 3022 478 2636 193 
Q 2250 -91 1575 -91 
Q 1294 -91 989 -36 
Q 684 19 347 128 
L 347 722 
Q 666 556 975 473 
Q 1284 391 1588 391 
Q 1994 391 2212 530 
Q 2431 669 2431 922 
Q 2431 1156 2273 1281 
Q 2116 1406 1581 1522 
L 1381 1569 
Q 847 1681 609 1914 
Q 372 2147 372 2553 
Q 372 3047 722 3315 
Q 1072 3584 1716 3584 
Q 2034 3584 2315 3537 
Q 2597 3491 2834 3397 
z
" transform="scale(0.015625)"/>
      </defs>
      <use xlink:href="#DejaVuSans-45"/>
      <use xlink:href="#DejaVuSans-70" transform="translate(63.183594 0)"/>
      <use xlink:href="#DejaVuSans-6f" transform="translate(126.660156 0)"/>
      <use xlink:href="#DejaVuSans-63" transform="translate(187.841797 0)"/>
      <use xlink:href="#DejaVuSans-68" transform="translate(242.822266 0)"/>
      <use xlink:href="#DejaVuSans-73" transform="translate(306.201172 0)"/>
     </g>
    </g>
   </g>
   <g id="matplotlib.axis_2">
    <g id="ytick_1">
     <g id="line2d_19">
      <path d="M 43.78125 568.279584 
L 601.78125 568.279584 
" clip-path="url(#p7043891e3d)" style="fill: none; stroke: #b0b0b0; stroke-width: 0.8; stroke-linecap: square"/>
     </g>
     <g id="line2d_20">
      <defs>
       <path id="mdcc636e0f2" d="M 0 0 
L -3.5 0 
" style="stroke: #000000; stroke-width: 0.8"/>
      </defs>
      <g>
       <use xlink:href="#mdcc636e0f2" x="43.78125" y="568.279584" style="stroke: #000000; stroke-width: 0.8"/>
      </g>
     </g>
     <g id="text_11">
      <!-- 4.2 -->
      <g transform="translate(20.878125 572.078803) scale(0.1 -0.1)">
       <defs>
        <path id="DejaVuSans-2e" d="M 684 794 
L 1344 794 
L 1344 0 
L 684 0 
L 684 794 
z
" transform="scale(0.015625)"/>
       </defs>
       <use xlink:href="#DejaVuSans-34"/>
       <use xlink:href="#DejaVuSans-2e" transform="translate(63.623047 0)"/>
       <use xlink:href="#DejaVuSans-32" transform="translate(95.410156 0)"/>
      </g>
     </g>
    </g>
    <g id="ytick_2">
     <g id="line2d_21">
      <path d="M 43.78125 480.009788 
L 601.78125 480.009788 
" clip-path="url(#p7043891e3d)" style="fill: none; stroke: #b0b0b0; stroke-width: 0.8; stroke-linecap: square"/>
     </g>
     <g id="line2d_22">
      <g>
       <use xlink:href="#mdcc636e0f2" x="43.78125" y="480.009788" style="stroke: #000000; stroke-width: 0.8"/>
      </g>
     </g>
     <g id="text_12">
      <!-- 4.3 -->
      <g transform="translate(20.878125 483.809007) scale(0.1 -0.1)">
       <use xlink:href="#DejaVuSans-34"/>
       <use xlink:href="#DejaVuSans-2e" transform="translate(63.623047 0)"/>
       <use xlink:href="#DejaVuSans-33" transform="translate(95.410156 0)"/>
      </g>
     </g>
    </g>
    <g id="ytick_3">
     <g id="line2d_23">
      <path d="M 43.78125 391.739992 
L 601.78125 391.739992 
" clip-path="url(#p7043891e3d)" style="fill: none; stroke: #b0b0b0; stroke-width: 0.8; stroke-linecap: square"/>
     </g>
     <g id="line2d_24">
      <g>
       <use xlink:href="#mdcc636e0f2" x="43.78125" y="391.739992" style="stroke: #000000; stroke-width: 0.8"/>
      </g>
     </g>
     <g id="text_13">
      <!-- 4.4 -->
      <g transform="translate(20.878125 395.539211) scale(0.1 -0.1)">
       <use xlink:href="#DejaVuSans-34"/>
       <use xlink:href="#DejaVuSans-2e" transform="translate(63.623047 0)"/>
       <use xlink:href="#DejaVuSans-34" transform="translate(95.410156 0)"/>
      </g>
     </g>
    </g>
    <g id="ytick_4">
     <g id="line2d_25">
      <path d="M 43.78125 303.470195 
L 601.78125 303.470195 
" clip-path="url(#p7043891e3d)" style="fill: none; stroke: #b0b0b0; stroke-width: 0.8; stroke-linecap: square"/>
     </g>
     <g id="line2d_26">
      <g>
       <use xlink:href="#mdcc636e0f2" x="43.78125" y="303.470195" style="stroke: #000000; stroke-width: 0.8"/>
      </g>
     </g>
     <g id="text_14">
      <!-- 4.5 -->
      <g transform="translate(20.878125 307.269414) scale(0.1 -0.1)">
       <use xlink:href="#DejaVuSans-34"/>
       <use xlink:href="#DejaVuSans-2e" transform="translate(63.623047 0)"/>
       <use xlink:href="#DejaVuSans-35" transform="translate(95.410156 0)"/>
      </g>
     </g>
    </g>
    <g id="ytick_5">
     <g id="line2d_27">
      <path d="M 43.78125 215.200399 
L 601.78125 215.200399 
" clip-path="url(#p7043891e3d)" style="fill: none; stroke: #b0b0b0; stroke-width: 0.8; stroke-linecap: square"/>
     </g>
     <g id="line2d_28">
      <g>
       <use xlink:href="#mdcc636e0f2" x="43.78125" y="215.200399" style="stroke: #000000; stroke-width: 0.8"/>
      </g>
     </g>
     <g id="text_15">
      <!-- 4.6 -->
      <g transform="translate(20.878125 218.999618) scale(0.1 -0.1)">
       <use xlink:href="#DejaVuSans-34"/>
       <use xlink:href="#DejaVuSans-2e" transform="translate(63.623047 0)"/>
       <use xlink:href="#DejaVuSans-36" transform="translate(95.410156 0)"/>
      </g>
     </g>
    </g>
    <g id="ytick_6">
     <g id="line2d_29">
      <path d="M 43.78125 126.930603 
L 601.78125 126.930603 
" clip-path="url(#p7043891e3d)" style="fill: none; stroke: #b0b0b0; stroke-width: 0.8; stroke-linecap: square"/>
     </g>
     <g id="line2d_30">
      <g>
       <use xlink:href="#mdcc636e0f2" x="43.78125" y="126.930603" style="stroke: #000000; stroke-width: 0.8"/>
      </g>
     </g>
     <g id="text_16">
      <!-- 4.7 -->
      <g transform="translate(20.878125 130.729822) scale(0.1 -0.1)">
       <use xlink:href="#DejaVuSans-34"/>
       <use xlink:href="#DejaVuSans-2e" transform="translate(63.623047 0)"/>
       <use xlink:href="#DejaVuSans-37" transform="translate(95.410156 0)"/>
      </g>
     </g>
    </g>
    <g id="ytick_7">
     <g id="line2d_31">
      <path d="M 43.78125 38.660807 
L 601.78125 38.660807 
" clip-path="url(#p7043891e3d)" style="fill: none; stroke: #b0b0b0; stroke-width: 0.8; stroke-linecap: square"/>
     </g>
     <g id="line2d_32">
      <g>
       <use xlink:href="#mdcc636e0f2" x="43.78125" y="38.660807" style="stroke: #000000; stroke-width: 0.8"/>
      </g>
     </g>
     <g id="text_17">
      <!-- 4.8 -->
      <g transform="translate(20.878125 42.460025) scale(0.1 -0.1)">
       <use xlink:href="#DejaVuSans-34"/>
       <use xlink:href="#DejaVuSans-2e" transform="translate(63.623047 0)"/>
       <use xlink:href="#DejaVuSans-38" transform="translate(95.410156 0)"/>
      </g>
     </g>
    </g>
    <g id="text_18">
     <!-- Loss -->
     <g transform="translate(14.798438 310.485313) rotate(-90) scale(0.1 -0.1)">
      <defs>
       <path id="DejaVuSans-4c" d="M 628 4666 
L 1259 4666 
L 1259 531 
L 3531 531 
L 3531 0 
L 628 0 
L 628 4666 
z
" transform="scale(0.015625)"/>
      </defs>
      <use xlink:href="#DejaVuSans-4c"/>
      <use xlink:href="#DejaVuSans-6f" transform="translate(53.962891 0)"/>
      <use xlink:href="#DejaVuSans-73" transform="translate(115.144531 0)"/>
      <use xlink:href="#DejaVuSans-73" transform="translate(167.244141 0)"/>
     </g>
    </g>
   </g>
   <g id="line2d_33">
    <path d="M 69.144886 47.518125 
L 69.779771 238.754226 
L 70.414655 277.416288 
L 71.04954 300.47589 
L 71.684424 317.477433 
L 72.954193 341.622544 
L 74.223962 359.745794 
L 75.493732 375.788098 
L 76.763501 387.314952 
L 78.668154 399.823353 
L 79.303039 402.496089 
L 79.937923 405.983692 
L 80.572808 408.758286 
L 82.477461 415.788632 
L 83.112346 418.390235 
L 83.74723 420.353327 
L 84.382115 423.014277 
L 86.286768 428.344174 
L 87.556537 432.102419 
L 88.191422 433.625247 
L 88.826306 435.836251 
L 89.461191 437.635191 
L 90.096075 438.342309 
L 93.905382 446.993974 
L 94.540267 448.191443 
L 95.175151 449.038721 
L 96.44492 451.959369 
L 97.079805 452.615557 
L 97.71469 453.960342 
L 98.984459 455.801794 
L 99.619343 457.37513 
L 100.254228 457.753943 
L 100.889112 458.896274 
L 101.523997 459.731767 
L 102.158881 461.198193 
L 102.793766 461.447789 
L 103.42865 462.053469 
L 104.063535 463.782118 
L 104.698419 463.772016 
L 105.333304 464.894565 
L 106.603073 466.206521 
L 107.237957 467.4364 
L 107.872842 467.438504 
L 108.507726 469.048038 
L 109.142611 469.079606 
L 109.777495 469.339724 
L 110.41238 470.86171 
L 111.047264 471.035964 
L 111.682149 471.351641 
L 112.951918 473.060929 
L 115.491456 475.648221 
L 116.12634 476.11837 
L 117.396109 476.573787 
L 118.030994 477.538076 
L 118.665879 477.116752 
L 119.300763 478.256137 
L 119.935648 478.97504 
L 120.570532 479.466234 
L 121.205417 480.134628 
L 121.840301 480.505865 
L 122.475186 480.711265 
L 123.11007 481.06314 
L 123.744955 481.657035 
L 124.379839 481.345987 
L 125.014724 482.716448 
L 126.284493 483.438718 
L 126.919377 483.358746 
L 127.554262 484.400903 
L 128.189146 484.409321 
L 129.458915 485.182941 
L 130.0938 485.880798 
L 130.728684 485.748214 
L 131.363569 486.622009 
L 132.633338 486.977672 
L 133.268222 487.410781 
L 133.903107 487.221375 
L 135.172876 488.843115 
L 135.80776 488.531647 
L 136.442645 488.835118 
L 137.712414 489.821294 
L 138.347298 489.77289 
L 140.251952 490.570081 
L 140.886837 490.71445 
L 141.521721 491.379898 
L 142.156606 491.505328 
L 142.79149 492.017146 
L 143.426375 491.622339 
L 144.061259 492.16362 
L 144.696144 492.162778 
L 145.331028 493.13759 
L 145.965913 492.685119 
L 146.600797 493.422962 
L 147.235682 493.4499 
L 147.870566 494.19532 
L 149.140335 494.389356 
L 149.77522 494.781638 
L 150.410104 494.497949 
L 151.044989 494.988722 
L 151.679873 495.130146 
L 152.314758 495.864201 
L 152.949642 495.868831 
L 153.584527 495.604083 
L 156.124065 497.098289 
L 156.758949 496.435367 
L 157.393834 497.726698 
L 158.028718 497.589062 
L 158.663603 497.962403 
L 160.568256 498.560086 
L 161.203141 499.010031 
L 162.47291 499.14472 
L 163.742679 499.450717 
L 165.012448 499.878355 
L 165.647333 499.99747 
L 167.551986 501.033734 
L 168.186871 500.622511 
L 168.821755 501.149061 
L 169.45664 501.038364 
L 170.091524 501.538397 
L 170.726409 501.473578 
L 171.361293 502.456387 
L 171.996178 501.757687 
L 172.631062 502.897072 
L 173.265947 502.458491 
L 173.900831 502.365051 
L 174.535716 503.293984 
L 175.1706 502.95642 
L 175.805485 503.541475 
L 177.075254 503.526743 
L 177.710138 504.589103 
L 178.345023 504.129898 
L 178.979907 504.006573 
L 179.614792 504.971704 
L 180.249676 504.872792 
L 180.884561 505.537398 
L 181.519445 505.326946 
L 182.15433 505.499938 
L 182.789215 505.09082 
L 183.424099 506.026908 
L 184.058984 505.918736 
L 184.693868 506.303442 
L 185.963637 506.241569 
L 186.598522 506.808105 
L 187.233406 506.611543 
L 187.868291 507.028237 
L 188.503175 506.592181 
L 189.772944 507.502595 
L 190.407829 507.512697 
L 191.042713 508.23665 
L 191.677598 507.832162 
L 192.312482 508.070814 
L 192.947367 508.443314 
L 195.486905 509.269967 
L 196.121789 509.740958 
L 196.756674 509.369722 
L 197.391558 509.952672 
L 198.026443 509.679927 
L 198.661327 510.217841 
L 199.296212 510.416087 
L 199.931096 511.1493 
L 200.565981 510.699355 
L 201.200865 510.695987 
L 201.83575 511.131201 
L 202.470634 510.844145 
L 203.105519 511.414048 
L 203.740403 511.207385 
L 204.375288 511.871149 
L 205.010173 511.67585 
L 205.645057 512.324883 
L 206.914826 512.220499 
L 207.549711 512.415798 
L 208.184595 512.756309 
L 209.454364 512.716323 
L 210.089249 513.141435 
L 210.724133 513.237401 
L 211.359018 513.832558 
L 212.628787 513.365356 
L 213.263671 513.989976 
L 213.898556 514.266509 
L 214.53344 514.04301 
L 215.168325 514.197902 
L 215.803209 514.55567 
L 217.707863 514.635641 
L 218.342747 514.948372 
L 218.977632 515.447984 
L 219.612516 515.426098 
L 220.247401 515.567521 
L 220.882285 515.38527 
L 222.152054 515.563312 
L 222.786939 516.085653 
L 223.421823 515.610874 
L 224.056708 516.174042 
L 225.326477 516.75068 
L 225.961362 516.3222 
L 226.596246 516.759519 
L 227.231131 516.822233 
L 227.866015 517.110552 
L 228.5009 517.723808 
L 229.135784 517.685085 
L 229.770669 517.05373 
L 230.405553 517.965406 
L 231.040438 517.431701 
L 231.675322 517.704026 
L 232.310207 517.369828 
L 232.945091 518.145553 
L 233.579976 518.6519 
L 234.21486 518.527733 
L 235.484629 518.705775 
L 236.119514 518.619911 
L 236.754398 518.900653 
L 237.389283 518.859405 
L 238.024167 519.405737 
L 238.659052 519.626711 
L 239.293936 519.087113 
L 239.928821 519.757191 
L 240.563705 519.710471 
L 241.19859 519.421311 
L 241.833474 519.956279 
L 242.468359 519.84979 
L 243.103243 519.552211 
L 243.738128 520.019414 
L 244.373012 519.818643 
L 245.007897 520.601523 
L 245.642781 520.796401 
L 246.277666 520.44158 
L 246.91255 520.523235 
L 248.817204 521.511095 
L 249.452089 521.481211 
L 250.086973 520.94961 
L 250.721858 521.018217 
L 251.356742 521.556552 
L 251.991627 521.857498 
L 252.626511 521.687453 
L 253.261396 521.696713 
L 253.89628 522.251885 
L 255.166049 521.822563 
L 257.070703 522.364266 
L 257.705587 522.378997 
L 258.340472 522.159707 
L 258.975356 522.671525 
L 259.610241 522.898392 
L 260.88001 522.951005 
L 261.514894 522.509898 
L 262.149779 522.572192 
L 262.784663 523.792811 
L 263.419548 523.400108 
L 264.054432 523.258685 
L 264.689317 523.327292 
L 265.324201 523.551634 
L 265.959086 523.327292 
L 266.59397 524.06724 
L 267.228855 523.745249 
L 267.863739 524.136268 
L 268.498624 523.895091 
L 269.133509 524.163627 
L 269.768393 524.720903 
L 270.403278 524.844648 
L 271.038162 524.563485 
L 271.673047 525.17169 
L 272.307931 524.502875 
L 272.942816 524.541598 
L 273.5777 524.766781 
L 274.212585 525.138859 
L 274.847469 525.047103 
L 275.482354 525.428441 
L 277.387007 525.313534 
L 278.656776 525.92216 
L 279.291661 525.336684 
L 279.926545 525.815251 
L 280.56143 526.022756 
L 281.196314 526.73745 
L 281.831199 526.240363 
L 282.466083 526.236575 
L 283.100968 526.73745 
L 283.735852 526.791746 
L 285.005621 526.529945 
L 285.640506 526.396097 
L 286.27539 526.859512 
L 286.910275 526.663371 
L 287.545159 527.05439 
L 288.180044 527.081328 
L 288.814928 526.753444 
L 289.449813 527.04976 
L 290.084697 527.766979 
L 290.719582 527.394901 
L 291.354467 527.547268 
L 291.989351 527.879781 
L 292.624236 527.340183 
L 293.25912 528.157577 
L 293.894005 527.623872 
L 294.528889 528.031727 
L 295.798658 527.867154 
L 296.433543 528.540599 
L 297.068427 528.532181 
L 297.703312 528.166837 
L 298.338196 528.123484 
L 298.973081 528.906785 
L 299.607965 528.72748 
L 300.24285 529.315061 
L 300.877734 528.809977 
L 301.512619 528.901313 
L 302.147503 528.708539 
L 302.782388 529.283914 
L 303.417272 529.101663 
L 304.052157 529.268341 
L 304.687041 529.268341 
L 305.321926 529.607168 
L 305.95681 529.34705 
L 306.591695 529.321795 
L 307.226579 529.548241 
L 308.496348 530.424983 
L 309.131233 530.063006 
L 311.035886 530.095836 
L 311.670771 529.773845 
L 312.305656 530.056271 
L 312.94054 530.548307 
L 313.575425 530.579033 
L 314.210309 530.928804 
L 314.845194 530.681313 
L 315.480078 530.870298 
L 316.114963 530.5824 
L 316.749847 530.875349 
L 317.384732 530.748236 
L 319.92427 531.297094 
L 320.559154 531.999581 
L 321.194039 531.103899 
L 321.828923 531.521856 
L 322.463808 531.529012 
L 323.098692 531.785763 
L 323.733577 531.627924 
L 324.368461 532.163313 
L 325.003346 531.706633 
L 325.63823 531.760508 
L 326.273115 532.458366 
L 326.907999 532.223081 
L 328.177768 532.369555 
L 328.812653 532.338409 
L 329.447537 532.783724 
L 330.082422 532.521922 
L 330.717306 532.887266 
L 331.352191 532.822447 
L 332.62196 533.163379 
L 333.891729 533.169271 
L 335.161498 533.635211 
L 335.796383 533.454223 
L 336.431267 533.721075 
L 337.066152 533.161274 
L 337.701036 533.745488 
L 338.335921 533.476952 
L 339.60569 533.504731 
L 340.240574 533.658361 
L 340.875459 534.084736 
L 341.510343 533.618375 
L 342.145228 534.232052 
L 342.780112 533.968567 
L 343.414997 534.425667 
L 344.049881 533.992137 
L 344.684766 533.8444 
L 345.31965 533.9934 
L 345.954535 534.895395 
L 347.224304 534.527947 
L 349.128957 535.297779 
L 349.763842 535.078067 
L 350.398726 534.583927 
L 351.033611 535.001042 
L 351.668495 535.058285 
L 352.938264 535.541903 
L 353.573149 534.642433 
L 354.208033 535.127734 
L 354.842918 535.224542 
L 355.477803 535.451829 
L 356.747572 535.118474 
L 357.382456 535.001042 
L 358.017341 535.681222 
L 358.652225 535.339027 
L 359.28711 535.695111 
L 359.921994 535.408897 
L 360.556879 536.375712 
L 361.191763 535.841586 
L 362.461532 535.945128 
L 363.096417 536.25828 
L 363.731301 536.269644 
L 364.366186 536.153475 
L 365.00107 536.44474 
L 365.635955 536.125275 
L 366.270839 536.263752 
L 368.175493 536.132009 
L 369.445262 536.975078 
L 370.080146 536.593319 
L 370.715031 536.364768 
L 371.349915 536.96203 
L 371.9848 537.38125 
L 372.619684 536.876166 
L 373.254569 536.866064 
L 373.889453 537.340422 
L 374.524338 536.576483 
L 375.159222 537.362309 
L 375.794107 537.408187 
L 376.428991 537.596331 
L 377.698761 537.575286 
L 378.333645 537.123236 
L 378.96853 537.249928 
L 379.603414 537.860237 
L 380.238299 537.703241 
L 380.873183 537.407767 
L 381.508068 537.325269 
L 382.142952 537.481845 
L 382.777837 538.002503 
L 383.412721 538.184333 
L 384.047606 537.780687 
L 384.68249 538.119935 
L 385.317375 538.152344 
L 385.952259 537.83835 
L 386.587144 538.293768 
L 387.222028 537.954941 
L 387.856913 538.384262 
L 388.491797 538.417934 
L 389.126682 538.671318 
L 389.761566 538.181807 
L 390.396451 538.250836 
L 391.031335 538.659112 
L 391.66622 538.260937 
L 392.301104 538.818213 
L 392.935989 538.372056 
L 393.570873 538.515584 
L 394.205758 538.876719 
L 394.840642 538.794643 
L 395.475527 538.512637 
L 396.110411 539.146097 
L 397.38018 538.879665 
L 398.015065 538.915863 
L 398.64995 539.219334 
L 399.284834 538.96132 
L 399.919719 539.806073 
L 400.554603 539.244588 
L 401.189488 539.210074 
L 402.459257 539.758511 
L 403.094141 539.564054 
L 403.729026 539.554373 
L 404.36391 539.801022 
L 404.998795 539.479873 
L 405.633679 539.955494 
L 406.903448 539.504285 
L 407.538333 539.888991 
L 408.173217 539.26395 
L 408.808102 539.961807 
L 410.077871 539.824172 
L 410.712755 540.219821 
L 412.617409 539.961386 
L 413.252293 540.000109 
L 413.887178 539.743779 
L 414.522062 540.336832 
L 415.791831 540.800246 
L 416.426716 539.849005 
L 417.696485 540.294321 
L 418.966254 540.803613 
L 419.601138 540.918099 
L 420.870908 540.756893 
L 422.140677 540.897475 
L 422.775561 541.21694 
L 424.04533 540.730376 
L 424.680215 541.273762 
L 425.315099 540.701334 
L 425.949984 541.190423 
L 426.584868 541.423183 
L 427.219753 540.809927 
L 427.854637 540.968607 
L 428.489522 541.368045 
L 429.124406 541.502313 
L 429.759291 541.323429 
L 430.394175 541.741807 
L 431.02906 541.176955 
L 431.663944 542.031388 
L 432.298829 541.721182 
L 432.933713 542.119778 
L 433.568598 541.730021 
L 434.203482 542.052012 
L 434.838367 542.191752 
L 435.473251 541.252296 
L 436.108136 541.946366 
L 436.74302 541.644578 
L 438.012789 542.205642 
L 439.282558 541.911431 
L 440.552327 542.26541 
L 442.456981 542.849203 
L 443.091866 542.022549 
L 443.72675 542.185018 
L 444.361635 542.213218 
L 444.996519 542.64296 
L 445.631404 542.198908 
L 446.266288 542.611393 
L 446.901173 542.634963 
L 447.536057 543.173719 
L 448.170942 542.594136 
L 448.805826 543.050395 
L 449.440711 543.070177 
L 450.075595 542.919915 
L 450.71048 543.205287 
L 451.345364 543.061338 
L 451.980249 543.4351 
L 452.615133 543.067652 
L 453.884902 543.174561 
L 454.519787 543.198132 
L 455.154671 543.870735 
L 455.789556 543.484346 
L 456.42444 543.345869 
L 457.059325 543.322298 
L 457.694209 543.510863 
L 458.329094 543.253691 
L 458.963978 543.557583 
L 459.598863 543.713738 
L 460.233747 542.95022 
L 461.503516 543.787396 
L 462.773285 543.907774 
L 464.043055 543.672069 
L 465.312824 544.408228 
L 466.582593 543.67754 
L 467.217477 544.266384 
L 467.852362 543.888834 
L 469.122131 544.122014 
L 469.757015 544.782832 
L 470.3919 544.867855 
L 471.026784 544.25965 
L 471.661669 544.323627 
L 472.296553 544.616575 
L 472.931438 543.930503 
L 473.566322 544.498723 
L 474.201207 544.548389 
L 474.836091 544.855648 
L 475.470976 544.601423 
L 476.740745 544.717592 
L 477.375629 545.050948 
L 478.010514 544.580799 
L 478.645398 545.27571 
L 479.280283 544.540392 
L 479.915167 544.878377 
L 480.550052 544.645618 
L 481.184936 544.760103 
L 481.819821 545.797209 
L 482.454705 545.12208 
L 483.08959 545.376727 
L 484.359359 545.197843 
L 484.994244 545.569079 
L 485.629128 545.759328 
L 486.264013 545.398193 
L 486.898897 545.366625 
L 487.533782 545.689879 
L 488.168666 545.367888 
L 488.803551 545.278235 
L 489.438435 545.715133 
L 490.07332 545.809836 
L 490.708204 545.27571 
L 491.343089 545.568658 
L 491.977973 545.651155 
L 492.612858 545.533723 
L 493.247742 546.064903 
L 494.517511 545.731127 
L 495.152396 546.152451 
L 495.78728 545.822463 
L 496.422165 546.173496 
L 497.691934 546.153714 
L 498.326818 546.244629 
L 498.961703 545.948734 
L 499.596587 546.410044 
L 500.866356 546.786752 
L 501.501241 546.10068 
L 502.136125 546.347329 
L 502.77101 546.833893 
L 503.405894 546.569145 
L 504.040779 547.00941 
L 504.675663 546.371321 
L 505.310548 546.342699 
L 505.945433 546.756447 
L 506.580317 546.662586 
L 507.215202 546.965215 
L 507.850086 546.765707 
L 509.119855 547.052763 
L 510.389624 546.838102 
L 511.659393 547.234172 
L 512.294278 547.101588 
L 512.929162 547.544799 
L 513.564047 547.357918 
L 514.198931 547.490923 
L 515.4687 546.919337 
L 516.103585 547.416003 
L 516.738469 546.942907 
L 517.373354 547.620141 
L 518.008238 547.104113 
L 518.643123 547.988852 
L 519.278007 547.469036 
L 519.912892 547.264477 
L 520.547776 547.971595 
L 521.817545 547.738835 
L 522.45243 548.399232 
L 523.087314 547.404217 
L 523.722199 548.202671 
L 524.357083 547.862581 
L 525.626852 548.066298 
L 526.261737 548.059984 
L 526.896621 547.912247 
L 527.531506 548.518769 
L 528.166391 548.269594 
L 528.801275 548.370611 
L 529.43616 548.065456 
L 530.071044 548.079767 
L 530.705929 548.340306 
L 531.340813 548.023787 
L 531.975698 548.047357 
L 533.245467 548.787726 
L 533.880351 547.913089 
L 534.515236 548.899686 
L 535.15012 548.30958 
L 535.785005 548.743952 
L 536.419889 548.916943 
L 537.054774 549.230516 
L 537.689658 549.267977 
L 538.324543 548.877799 
L 538.959427 548.645882 
L 539.594312 549.132025 
L 540.229196 548.390393 
L 540.864081 548.666085 
L 541.498965 549.418239 
L 542.13385 549.394248 
L 542.768734 548.952299 
L 543.403619 548.711122 
L 544.038503 549.841247 
L 544.673388 549.207366 
L 545.943157 549.46538 
L 546.578041 548.998599 
L 547.212926 549.503261 
L 547.84781 549.70782 
L 549.752464 548.852124 
L 550.387349 549.85682 
L 551.022233 549.298702 
L 551.657118 549.168643 
L 552.926887 549.896385 
L 553.561771 549.767589 
L 554.196656 550.045806 
L 554.83154 549.658154 
L 555.466425 549.872394 
L 556.101309 550.368217 
L 556.736194 550.10852 
L 557.371078 550.202382 
L 558.005963 550.016763 
L 558.640847 550.485649 
L 559.275732 549.835354 
L 559.910616 550.594663 
L 560.545501 550.1363 
L 561.180385 550.149769 
L 561.81527 550.567726 
L 562.450154 550.292034 
L 563.719923 550.833316 
L 564.989692 549.999085 
L 565.624577 550.613183 
L 566.894346 550.728511 
L 568.164115 550.661587 
L 569.433884 551.164145 
L 570.068768 551.216758 
L 571.338538 550.887191 
L 571.973422 551.002519 
L 572.608307 550.665375 
L 573.243191 551.079123 
L 573.878076 551.209603 
L 574.51296 551.100589 
L 575.147845 550.746189 
L 575.782729 551.377543 
L 576.417614 551.518125 
L 576.417614 551.518125 
" clip-path="url(#p7043891e3d)" style="fill: none; stroke: #1f77b4; stroke-width: 1.5; stroke-linecap: square"/>
   </g>
   <g id="line2d_34">
    <path d="M 69.144886 223.649273 
L 69.779771 260.205978 
L 70.414655 269.132492 
L 71.04954 314.670429 
L 71.684424 326.892195 
L 72.319309 331.387441 
L 72.954193 343.291846 
L 73.589078 359.301741 
L 74.223962 366.742467 
L 74.858847 364.94016 
L 75.493732 377.277253 
L 76.128616 378.595101 
L 76.763501 384.836253 
L 77.398385 386.285423 
L 78.03327 396.89976 
L 78.668154 392.19785 
L 79.303039 391.086245 
L 79.937923 402.383286 
L 80.572808 406.012314 
L 81.207692 413.576786 
L 81.842577 405.867102 
L 82.477461 404.518528 
L 83.112346 407.141176 
L 83.74723 401.879465 
L 84.382115 389.286884 
L 85.016999 414.284745 
L 85.651884 422.374083 
L 86.286768 423.337531 
L 86.921653 430.651986 
L 87.556537 413.172719 
L 88.191422 413.33182 
L 89.461191 437.62046 
L 90.096075 427.528043 
L 90.73096 427.911486 
L 91.365844 434.10676 
L 92.000729 438.234136 
L 92.635613 437.286262 
L 93.270498 440.12778 
L 93.905382 433.685857 
L 94.540267 430.770681 
L 95.175151 444.716046 
L 95.810036 439.365524 
L 96.44492 440.846262 
L 97.079805 442.030683 
L 97.71469 442.479787 
L 98.349574 448.4322 
L 98.984459 444.195388 
L 99.619343 449.206662 
L 100.254228 449.558958 
L 100.889112 455.897339 
L 101.523997 455.831678 
L 102.158881 446.366407 
L 102.793766 452.471608 
L 103.42865 454.119865 
L 104.698419 447.46286 
L 105.333304 453.19051 
L 105.968188 457.799821 
L 106.603073 454.567285 
L 107.237957 436.93102 
L 107.872842 452.206018 
L 108.507726 455.227682 
L 109.142611 455.558933 
L 109.777495 460.50707 
L 110.41238 453.847961 
L 111.047264 457.412169 
L 111.682149 463.088049 
L 112.317033 459.06211 
L 112.951918 461.133795 
L 113.586802 469.66887 
L 114.221687 454.946098 
L 114.856571 465.165627 
L 115.491456 456.788812 
L 116.12634 461.825339 
L 116.761225 470.465219 
L 117.396109 459.558776 
L 118.030994 460.145094 
L 118.665879 467.547518 
L 119.300763 459.248991 
L 119.935648 470.333897 
L 120.570532 461.936037 
L 121.205417 461.724322 
L 121.840301 474.645209 
L 122.475186 471.915651 
L 123.11007 465.786459 
L 123.744955 462.818671 
L 124.379839 463.883556 
L 125.014724 467.628331 
L 125.649608 473.048723 
L 126.284493 465.680392 
L 126.919377 476.628504 
L 127.554262 467.05464 
L 128.189146 467.169547 
L 128.824031 469.789248 
L 129.458915 465.994385 
L 130.728684 473.591688 
L 131.363569 471.857988 
L 131.998453 466.354678 
L 132.633338 469.749263 
L 133.268222 474.319009 
L 133.903107 467.503744 
L 134.537991 472.291518 
L 135.172876 475.203326 
L 135.80776 464.548162 
L 136.442645 476.245062 
L 137.077529 466.429178 
L 137.712414 475.527001 
L 138.347298 470.556134 
L 138.982183 477.90805 
L 139.617067 479.29198 
L 140.251952 473.635883 
L 140.886837 474.591754 
L 141.521721 474.859869 
L 142.156606 482.357418 
L 142.79149 481.206668 
L 143.426375 470.986297 
L 144.061259 478.825198 
L 144.696144 479.933015 
L 145.331028 476.104059 
L 145.965913 482.58218 
L 146.600797 471.299449 
L 147.235682 480.209549 
L 147.870566 480.842587 
L 148.505451 476.726154 
L 149.140335 470.282126 
L 149.77522 482.650787 
L 150.410104 478.903486 
L 151.044989 477.927412 
L 151.679873 484.667755 
L 152.314758 482.197895 
L 152.949642 483.955166 
L 153.584527 478.892122 
L 154.219411 479.95406 
L 154.854296 479.494434 
L 155.48918 476.20255 
L 156.124065 482.063206 
L 156.758949 484.318406 
L 157.393834 472.799127 
L 158.028718 485.713279 
L 158.663603 485.171997 
L 159.298487 486.499526 
L 159.933372 481.548442 
L 160.568256 490.267451 
L 161.203141 482.015223 
L 161.838026 484.218652 
L 162.47291 477.731692 
L 163.107795 484.813388 
L 163.742679 486.209524 
L 164.377564 485.33615 
L 165.012448 479.4132 
L 165.647333 485.320155 
L 166.282217 483.721144 
L 166.917102 477.705175 
L 167.551986 486.63169 
L 168.186871 486.148914 
L 168.821755 485.494409 
L 169.45664 487.730247 
L 170.091524 486.349684 
L 170.726409 483.329704 
L 171.361293 484.337346 
L 171.996178 490.794422 
L 172.631062 478.264976 
L 173.265947 484.426578 
L 173.900831 485.594163 
L 174.535716 473.462471 
L 175.1706 488.231122 
L 175.805485 488.508918 
L 176.440369 487.90871 
L 177.075254 490.583129 
L 177.710138 491.504486 
L 178.345023 488.975699 
L 178.979907 489.026629 
L 179.614792 478.926636 
L 180.249676 485.339517 
L 180.884561 481.513086 
L 181.519445 484.920297 
L 182.15433 484.645026 
L 182.789215 465.977128 
L 183.424099 490.820518 
L 184.058984 482.537143 
L 184.693868 488.91088 
L 185.328753 488.952129 
L 185.963637 486.3661 
L 186.598522 491.10126 
L 187.233406 485.738954 
L 187.868291 491.010345 
L 188.503175 489.21351 
L 189.13806 490.096144 
L 189.772944 494.590548 
L 190.407829 491.339071 
L 191.042713 491.158082 
L 191.677598 492.069338 
L 192.312482 481.261386 
L 192.947367 488.734522 
L 193.582251 494.390198 
L 194.85202 485.027627 
L 195.486905 495.294298 
L 196.121789 490.780532 
L 196.756674 490.996456 
L 197.391558 493.708756 
L 198.026443 489.245498 
L 198.661327 486.552139 
L 199.296212 495.490439 
L 199.931096 484.065864 
L 200.565981 491.681265 
L 201.200865 496.368443 
L 201.83575 487.70373 
L 202.470634 498.277239 
L 203.105519 493.511773 
L 203.740403 494.092619 
L 204.375288 492.838749 
L 205.010173 492.99322 
L 205.645057 493.973925 
L 206.279942 490.06668 
L 206.914826 497.337362 
L 207.549711 495.903345 
L 208.184595 489.327574 
L 208.81948 500.671336 
L 209.454364 500.126688 
L 210.089249 496.671072 
L 210.724133 490.904699 
L 211.359018 494.732813 
L 211.993902 487.963848 
L 212.628787 496.783454 
L 213.263671 483.946748 
L 213.898556 488.03456 
L 214.53344 494.149862 
L 215.168325 499.040757 
L 215.803209 498.907331 
L 216.438094 492.087437 
L 217.072978 498.014174 
L 217.707863 482.275342 
L 218.342747 491.029707 
L 218.977632 503.073431 
L 220.247401 490.203053 
L 220.882285 497.259495 
L 221.51717 486.759644 
L 222.152054 493.997495 
L 222.786939 496.691276 
L 223.421823 501.706758 
L 224.691592 495.267781 
L 225.326477 490.632374 
L 225.961362 494.013069 
L 226.596246 505.899375 
L 227.231131 497.095343 
L 227.866015 492.789082 
L 228.5009 495.825057 
L 229.135784 498.197267 
L 229.770669 496.586892 
L 230.405553 493.416649 
L 231.040438 496.079282 
L 231.675322 495.184442 
L 232.310207 497.911053 
L 232.945091 499.509223 
L 233.579976 497.390396 
L 234.21486 501.109496 
L 234.849745 494.645686 
L 235.484629 494.732392 
L 236.119514 502.787637 
L 236.754398 498.368575 
L 237.389283 487.515165 
L 238.024167 504.924142 
L 238.659052 504.708219 
L 239.293936 504.099593 
L 239.928821 497.124385 
L 240.563705 506.225996 
L 241.19859 499.631705 
L 242.468359 503.739721 
L 243.103243 500.983226 
L 243.738128 505.553392 
L 244.373012 500.84096 
L 245.007897 498.474643 
L 245.642781 497.312108 
L 246.277666 494.984934 
L 246.91255 507.172186 
L 247.547435 502.577607 
L 248.18232 500.965548 
L 248.817204 505.310952 
L 249.452089 493.523558 
L 250.086973 504.006573 
L 250.721858 496.072548 
L 251.356742 501.855758 
L 251.991627 502.248461 
L 252.626511 502.820047 
L 253.261396 492.816441 
L 253.89628 494.724395 
L 254.531165 498.701088 
L 255.166049 508.792663 
L 255.800934 505.210356 
L 256.435818 504.785665 
L 257.070703 498.677097 
L 257.705587 493.750846 
L 258.340472 500.400275 
L 258.975356 498.559665 
L 259.610241 506.983621 
L 260.245125 494.942423 
L 260.88001 500.861585 
L 261.514894 505.678821 
L 262.149779 502.309071 
L 262.784663 497.277173 
L 263.419548 500.382176 
L 264.054432 508.274952 
L 264.689317 500.878421 
L 265.324201 507.452928 
L 265.959086 507.731145 
L 267.228855 494.650316 
L 267.863739 498.414032 
L 268.498624 508.70259 
L 269.133509 504.146313 
L 269.768393 504.720004 
L 270.403278 501.01311 
L 271.038162 502.255616 
L 271.673047 500.277792 
L 272.307931 502.165122 
L 272.942816 507.242056 
L 273.5777 506.12077 
L 274.212585 504.467041 
L 274.847469 506.587131 
L 275.482354 492.650184 
L 276.117238 506.525679 
L 276.752123 505.924629 
L 277.387007 510.191325 
L 278.021892 495.96606 
L 278.656776 501.738747 
L 279.291661 503.176973 
L 279.926545 509.539346 
L 280.56143 508.12932 
L 281.196314 494.747124 
L 281.831199 497.156795 
L 282.466083 502.843197 
L 283.100968 503.190863 
L 283.735852 506.965943 
L 284.370737 500.319461 
L 285.005621 507.673061 
L 285.640506 508.41385 
L 286.27539 512.352242 
L 286.910275 498.115612 
L 287.545159 494.547195 
L 288.180044 506.255038 
L 288.814928 510.032223 
L 289.449813 504.946871 
L 290.084697 506.640585 
L 290.719582 505.652725 
L 291.354467 511.354701 
L 291.989351 512.999591 
L 292.624236 510.70651 
L 293.25912 503.224956 
L 293.894005 506.152338 
L 294.528889 500.51939 
L 295.163774 506.892285 
L 295.798658 509.616371 
L 296.433543 498.664891 
L 297.068427 506.803054 
L 297.703312 504.533965 
L 298.338196 513.928524 
L 298.973081 505.375771 
L 300.24285 511.102159 
L 300.877734 511.768449 
L 301.512619 504.338245 
L 302.147503 511.085323 
L 302.782388 513.872965 
L 303.417272 507.851524 
L 304.052157 506.79211 
L 304.687041 502.345268 
L 305.321926 505.564757 
L 305.95681 497.118492 
L 306.591695 504.940136 
L 307.226579 508.676915 
L 307.861464 507.969798 
L 308.496348 514.649531 
L 309.131233 505.436381 
L 309.766117 510.211949 
L 310.401002 509.611741 
L 311.035886 503.224114 
L 311.670771 511.502017 
L 312.305656 503.312504 
L 312.94054 508.774564 
L 313.575425 516.472042 
L 314.210309 515.352439 
L 314.845194 510.01665 
L 315.480078 512.90152 
L 316.114963 513.345152 
L 316.749847 511.230535 
L 317.384732 513.043365 
L 318.019616 500.872107 
L 318.654501 513.823719 
L 319.289385 509.054465 
L 319.92427 515.822588 
L 320.559154 512.430109 
L 321.194039 513.894852 
L 321.828923 500.488664 
L 322.463808 511.839581 
L 323.098692 513.074511 
L 323.733577 512.592156 
L 324.368461 507.65875 
L 325.003346 509.158428 
L 325.63823 508.714375 
L 326.273115 502.69083 
L 326.907999 513.772369 
L 328.177768 510.160599 
L 328.812653 509.030474 
L 329.447537 511.836214 
L 330.082422 513.836346 
L 330.717306 510.649267 
L 331.352191 511.744036 
L 331.987075 510.609281 
L 332.62196 509.035524 
L 333.256844 503.591563 
L 334.526614 514.650373 
L 335.161498 515.243426 
L 335.796383 496.290576 
L 336.431267 510.775117 
L 337.066152 508.722793 
L 337.701036 505.528559 
L 338.335921 511.907768 
L 338.970805 515.589408 
L 339.60569 511.511277 
L 340.240574 505.606847 
L 340.875459 509.462741 
L 341.510343 506.768119 
L 342.145228 513.031579 
L 342.780112 505.709968 
L 343.414997 508.754361 
L 344.049881 509.094872 
L 344.684766 511.242741 
L 345.31965 512.301312 
L 345.954535 505.574438 
L 346.589419 514.430661 
L 347.224304 515.397476 
L 347.859188 514.982045 
L 348.494073 513.729858 
L 349.128957 506.815681 
L 349.763842 514.812421 
L 350.398726 497.84918 
L 351.033611 503.961116 
L 351.668495 508.921039 
L 352.30338 511.27052 
L 352.938264 511.31219 
L 353.573149 512.020149 
L 354.208033 510.753651 
L 354.842918 509.771263 
L 355.477803 514.573769 
L 356.112687 514.297235 
L 356.747572 497.509091 
L 357.382456 518.878766 
L 358.017341 510.980097 
L 358.652225 510.246884 
L 359.28711 510.02591 
L 359.921994 515.489654 
L 360.556879 518.62875 
L 361.826648 506.651529 
L 362.461532 507.465556 
L 363.096417 512.102225 
L 363.731301 509.220722 
L 364.366186 503.434566 
L 365.00107 507.676428 
L 365.635955 513.168373 
L 366.270839 513.460901 
L 366.905724 505.658197 
L 367.540608 508.312413 
L 368.175493 517.531876 
L 368.810377 507.085059 
L 369.445262 511.846737 
L 370.080146 501.499253 
L 370.715031 511.825692 
L 371.349915 509.134858 
L 371.9848 501.556496 
L 372.619684 511.01419 
L 373.254569 509.861336 
L 373.889453 510.587815 
L 374.524338 517.1236 
L 375.159222 517.194312 
L 375.794107 510.619383 
L 376.428991 515.110841 
L 377.698761 520.951294 
L 378.333645 513.385559 
L 378.96853 510.968733 
L 379.603414 507.25805 
L 380.238299 516.667762 
L 380.873183 511.539477 
L 381.508068 513.520248 
L 382.142952 512.870794 
L 382.777837 517.309218 
L 383.412721 502.750598 
L 384.047606 520.024465 
L 384.68249 505.936414 
L 385.317375 518.235626 
L 385.952259 518.627066 
L 386.587144 496.082229 
L 387.222028 513.220565 
L 387.856913 516.694279 
L 388.491797 513.147749 
L 389.126682 511.339128 
L 389.761566 508.4088 
L 391.031335 515.972851 
L 391.66622 512.7521 
L 392.301104 517.65941 
L 392.935989 516.272955 
L 393.570873 516.863482 
L 394.205758 519.583779 
L 394.840642 517.350467 
L 395.475527 516.217816 
L 396.110411 517.165269 
L 396.745296 510.202268 
L 397.38018 510.933798 
L 398.015065 500.594732 
L 398.64995 511.758347 
L 399.284834 493.57112 
L 399.919719 514.184854 
L 400.554603 513.823298 
L 401.189488 511.907768 
L 401.824372 520.478198 
L 402.459257 514.447919 
L 403.094141 516.286424 
L 403.729026 509.53219 
L 404.36391 514.149919 
L 404.998795 507.119994 
L 405.633679 512.364448 
L 406.268564 520.01731 
L 406.903448 519.858208 
L 407.538333 510.170279 
L 408.173217 514.665525 
L 408.808102 514.6348 
L 409.442986 513.759321 
L 410.712755 515.815433 
L 411.982524 515.134833 
L 412.617409 517.611006 
L 413.252293 512.380863 
L 413.887178 514.390676 
L 414.522062 514.346902 
L 415.156947 518.81984 
L 415.791831 518.010864 
L 417.0616 506.885972 
L 417.696485 518.775645 
L 418.331369 502.256037 
L 418.966254 513.494573 
L 419.601138 510.996512 
L 420.236023 517.550817 
L 420.870908 502.875606 
L 422.140677 515.359595 
L 422.775561 513.397344 
L 423.410446 512.090019 
L 424.04533 515.166821 
L 424.680215 519.032396 
L 425.315099 514.18275 
L 425.949984 518.920015 
L 426.584868 513.575386 
L 427.219753 513.871281 
L 427.854637 514.546831 
L 429.124406 519.889355 
L 429.759291 515.532165 
L 430.394175 503.381953 
L 431.02906 514.909649 
L 431.663944 521.350731 
L 432.298829 519.641022 
L 432.933713 510.800371 
L 433.568598 521.241296 
L 434.203482 506.782009 
L 434.838367 518.790377 
L 435.473251 520.392755 
L 436.108136 507.487863 
L 436.74302 515.514908 
L 437.377905 516.728793 
L 438.012789 518.220474 
L 438.647674 517.819774 
L 439.282558 516.445525 
L 439.917443 510.713665 
L 440.552327 514.120456 
L 441.187212 512.727687 
L 441.822097 519.47224 
L 442.456981 518.454496 
L 443.091866 514.809053 
L 443.72675 512.646453 
L 444.361635 519.593039 
L 444.996519 515.043076 
L 445.631404 518.977258 
L 446.266288 516.833598 
L 446.901173 521.163008 
L 447.536057 518.033172 
L 448.170942 516.453101 
L 448.805826 513.997973 
L 449.440711 515.823009 
L 450.075595 514.462229 
L 450.71048 515.698001 
L 451.345364 522.834415 
L 451.980249 522.810844 
L 452.615133 516.585686 
L 453.250018 514.144447 
L 453.884902 515.918554 
L 454.519787 518.559722 
L 455.154671 521.722388 
L 455.789556 515.800701 
L 456.42444 515.62771 
L 457.059325 516.874004 
L 457.694209 511.050809 
L 458.329094 507.596036 
L 458.963978 516.440895 
L 459.598863 513.668406 
L 460.233747 520.81913 
L 460.868632 518.482696 
L 461.503516 522.376472 
L 462.138401 516.772988 
L 462.773285 504.38707 
L 463.40817 521.798151 
L 464.043055 505.550446 
L 464.677939 515.786812 
L 465.312824 522.885765 
L 465.947708 505.220879 
L 466.582593 520.233654 
L 467.217477 509.049414 
L 467.852362 520.3393 
L 468.487246 515.276677 
L 469.122131 514.114563 
L 469.757015 511.892194 
L 470.3919 517.424967 
L 471.026784 513.141435 
L 472.296553 523.036448 
L 472.931438 514.197902 
L 473.566322 519.463401 
L 474.201207 520.972339 
L 474.836091 519.885988 
L 475.470976 508.003049 
L 476.10586 519.579991 
L 476.740745 520.413379 
L 477.375629 523.181239 
L 478.645398 515.037604 
L 479.280283 513.145644 
L 479.915167 520.227761 
L 480.550052 513.122915 
L 481.184936 512.751679 
L 481.819821 512.776933 
L 482.454705 505.852234 
L 483.08959 514.339325 
L 483.724474 511.043654 
L 484.359359 520.077078 
L 484.994244 513.039156 
L 485.629128 518.783642 
L 486.264013 511.16782 
L 486.898897 520.191143 
L 487.533782 503.85589 
L 488.168666 525.22767 
L 488.803551 502.953473 
L 489.438435 516.258644 
L 490.07332 523.233431 
L 491.343089 514.649531 
L 491.977973 514.110354 
L 492.612858 520.662975 
L 493.247742 519.489918 
L 493.882627 516.725005 
L 494.517511 516.610098 
L 495.152396 522.203902 
L 495.78728 509.66267 
L 496.422165 514.495901 
L 497.057049 517.413181 
L 498.326818 520.207137 
L 498.961703 523.010773 
L 499.596587 519.117418 
L 500.231472 520.279111 
L 500.866356 511.152667 
L 501.501241 504.574372 
L 502.136125 508.490876 
L 502.77101 521.253502 
L 503.405894 518.771857 
L 504.040779 518.097991 
L 504.675663 517.81346 
L 505.310548 519.723098 
L 505.945433 523.695582 
L 506.580317 515.377694 
L 507.215202 519.859471 
L 507.850086 517.17958 
L 508.484971 512.188089 
L 509.119855 515.093163 
L 509.75474 517.16569 
L 510.389624 517.843765 
L 511.024509 514.526207 
L 511.659393 525.352257 
L 512.294278 522.389941 
L 512.929162 521.892433 
L 513.564047 519.633446 
L 514.198931 523.129047 
L 514.833816 521.101556 
L 515.4687 526.489117 
L 516.103585 522.135715 
L 516.738469 521.768267 
L 517.373354 511.669116 
L 518.008238 527.552318 
L 518.643123 520.902469 
L 519.278007 520.705065 
L 519.912892 521.893275 
L 520.547776 515.559524 
L 521.182661 517.630788 
L 521.817545 527.521172 
L 522.45243 515.078852 
L 523.087314 521.264867 
L 523.722199 519.833375 
L 524.357083 517.991502 
L 526.261737 526.107358 
L 526.896621 524.499087 
L 527.531506 524.032726 
L 528.166391 518.667894 
L 528.801275 520.367501 
L 529.43616 519.09932 
L 530.071044 523.739777 
L 530.705929 515.16177 
L 531.340813 518.753337 
L 531.975698 513.877174 
L 532.610582 524.037777 
L 533.245467 516.922408 
L 533.880351 527.084274 
L 534.515236 516.58779 
L 535.15012 522.016179 
L 535.785005 515.214804 
L 537.054774 523.390428 
L 537.689658 518.636747 
L 538.324543 519.30935 
L 538.959427 523.681272 
L 539.594312 518.267194 
L 540.229196 523.837848 
L 540.864081 525.787471 
L 541.498965 516.383231 
L 542.13385 520.159996 
L 542.768734 521.852026 
L 543.403619 522.483802 
L 544.038503 513.510988 
L 544.673388 517.228826 
L 545.308272 516.166045 
L 545.943157 518.818156 
L 546.578041 520.450419 
L 547.212926 524.002842 
L 547.84781 525.263026 
L 548.482695 524.721744 
L 549.11758 517.555447 
L 549.752464 506.310176 
L 550.387349 523.190499 
L 551.022233 523.053705 
L 551.657118 517.50578 
L 552.292002 519.745827 
L 552.926887 517.076459 
L 553.561771 526.422193 
L 554.196656 522.377314 
L 554.83154 525.162009 
L 555.466425 516.792349 
L 556.101309 523.670749 
L 556.736194 518.488589 
L 557.371078 524.696911 
L 558.005963 517.581964 
L 558.640847 516.630302 
L 559.275732 522.86977 
L 559.910616 513.399028 
L 560.545501 519.92892 
L 561.180385 515.269522 
L 561.81527 524.483092 
L 562.450154 525.649415 
L 563.085039 519.23443 
L 563.719923 523.364753 
L 564.354808 510.998617 
L 564.989692 519.013876 
L 565.624577 524.693123 
L 566.259461 513.367039 
L 566.894346 524.397228 
L 567.52923 507.347703 
L 568.164115 529.036002 
L 569.433884 517.522195 
L 570.068768 526.217634 
L 570.703653 523.893828 
L 571.338538 526.773647 
L 571.973422 530.261672 
L 572.608307 518.588343 
L 573.243191 512.509238 
L 573.878076 525.047524 
L 574.51296 519.747931 
L 575.147845 512.839227 
L 575.782729 515.563733 
L 576.417614 519.930183 
L 576.417614 519.930183 
" clip-path="url(#p7043891e3d)" style="fill: none; stroke: #ff7f0e; stroke-width: 1.5; stroke-linecap: square"/>
   </g>
   <g id="patch_3">
    <path d="M 43.78125 576.718125 
L 43.78125 22.318125 
" style="fill: none; stroke: #000000; stroke-width: 0.8; stroke-linejoin: miter; stroke-linecap: square"/>
   </g>
   <g id="patch_4">
    <path d="M 601.78125 576.718125 
L 601.78125 22.318125 
" style="fill: none; stroke: #000000; stroke-width: 0.8; stroke-linejoin: miter; stroke-linecap: square"/>
   </g>
   <g id="patch_5">
    <path d="M 43.78125 576.718125 
L 601.78125 576.718125 
" style="fill: none; stroke: #000000; stroke-width: 0.8; stroke-linejoin: miter; stroke-linecap: square"/>
   </g>
   <g id="patch_6">
    <path d="M 43.78125 22.318125 
L 601.78125 22.318125 
" style="fill: none; stroke: #000000; stroke-width: 0.8; stroke-linejoin: miter; stroke-linecap: square"/>
   </g>
   <g id="text_19">
    <!-- Train and Val Loss -->
    <g transform="translate(269.235937 16.318125) scale(0.12 -0.12)">
     <defs>
      <path id="DejaVuSans-54" d="M -19 4666 
L 3928 4666 
L 3928 4134 
L 2272 4134 
L 2272 0 
L 1638 0 
L 1638 4134 
L -19 4134 
L -19 4666 
z
" transform="scale(0.015625)"/>
      <path id="DejaVuSans-72" d="M 2631 2963 
Q 2534 3019 2420 3045 
Q 2306 3072 2169 3072 
Q 1681 3072 1420 2755 
Q 1159 2438 1159 1844 
L 1159 0 
L 581 0 
L 581 3500 
L 1159 3500 
L 1159 2956 
Q 1341 3275 1631 3429 
Q 1922 3584 2338 3584 
Q 2397 3584 2469 3576 
Q 2541 3569 2628 3553 
L 2631 2963 
z
" transform="scale(0.015625)"/>
      <path id="DejaVuSans-61" d="M 2194 1759 
Q 1497 1759 1228 1600 
Q 959 1441 959 1056 
Q 959 750 1161 570 
Q 1363 391 1709 391 
Q 2188 391 2477 730 
Q 2766 1069 2766 1631 
L 2766 1759 
L 2194 1759 
z
M 3341 1997 
L 3341 0 
L 2766 0 
L 2766 531 
Q 2569 213 2275 61 
Q 1981 -91 1556 -91 
Q 1019 -91 701 211 
Q 384 513 384 1019 
Q 384 1609 779 1909 
Q 1175 2209 1959 2209 
L 2766 2209 
L 2766 2266 
Q 2766 2663 2505 2880 
Q 2244 3097 1772 3097 
Q 1472 3097 1187 3025 
Q 903 2953 641 2809 
L 641 3341 
Q 956 3463 1253 3523 
Q 1550 3584 1831 3584 
Q 2591 3584 2966 3190 
Q 3341 2797 3341 1997 
z
" transform="scale(0.015625)"/>
      <path id="DejaVuSans-69" d="M 603 3500 
L 1178 3500 
L 1178 0 
L 603 0 
L 603 3500 
z
M 603 4863 
L 1178 4863 
L 1178 4134 
L 603 4134 
L 603 4863 
z
" transform="scale(0.015625)"/>
      <path id="DejaVuSans-6e" d="M 3513 2113 
L 3513 0 
L 2938 0 
L 2938 2094 
Q 2938 2591 2744 2837 
Q 2550 3084 2163 3084 
Q 1697 3084 1428 2787 
Q 1159 2491 1159 1978 
L 1159 0 
L 581 0 
L 581 3500 
L 1159 3500 
L 1159 2956 
Q 1366 3272 1645 3428 
Q 1925 3584 2291 3584 
Q 2894 3584 3203 3211 
Q 3513 2838 3513 2113 
z
" transform="scale(0.015625)"/>
      <path id="DejaVuSans-20" transform="scale(0.015625)"/>
      <path id="DejaVuSans-64" d="M 2906 2969 
L 2906 4863 
L 3481 4863 
L 3481 0 
L 2906 0 
L 2906 525 
Q 2725 213 2448 61 
Q 2172 -91 1784 -91 
Q 1150 -91 751 415 
Q 353 922 353 1747 
Q 353 2572 751 3078 
Q 1150 3584 1784 3584 
Q 2172 3584 2448 3432 
Q 2725 3281 2906 2969 
z
M 947 1747 
Q 947 1113 1208 752 
Q 1469 391 1925 391 
Q 2381 391 2643 752 
Q 2906 1113 2906 1747 
Q 2906 2381 2643 2742 
Q 2381 3103 1925 3103 
Q 1469 3103 1208 2742 
Q 947 2381 947 1747 
z
" transform="scale(0.015625)"/>
      <path id="DejaVuSans-56" d="M 1831 0 
L 50 4666 
L 709 4666 
L 2188 738 
L 3669 4666 
L 4325 4666 
L 2547 0 
L 1831 0 
z
" transform="scale(0.015625)"/>
      <path id="DejaVuSans-6c" d="M 603 4863 
L 1178 4863 
L 1178 0 
L 603 0 
L 603 4863 
z
" transform="scale(0.015625)"/>
     </defs>
     <use xlink:href="#DejaVuSans-54"/>
     <use xlink:href="#DejaVuSans-72" transform="translate(46.333984 0)"/>
     <use xlink:href="#DejaVuSans-61" transform="translate(87.447266 0)"/>
     <use xlink:href="#DejaVuSans-69" transform="translate(148.726562 0)"/>
     <use xlink:href="#DejaVuSans-6e" transform="translate(176.509766 0)"/>
     <use xlink:href="#DejaVuSans-20" transform="translate(239.888672 0)"/>
     <use xlink:href="#DejaVuSans-61" transform="translate(271.675781 0)"/>
     <use xlink:href="#DejaVuSans-6e" transform="translate(332.955078 0)"/>
     <use xlink:href="#DejaVuSans-64" transform="translate(396.333984 0)"/>
     <use xlink:href="#DejaVuSans-20" transform="translate(459.810547 0)"/>
     <use xlink:href="#DejaVuSans-56" transform="translate(491.597656 0)"/>
     <use xlink:href="#DejaVuSans-61" transform="translate(552.255859 0)"/>
     <use xlink:href="#DejaVuSans-6c" transform="translate(613.535156 0)"/>
     <use xlink:href="#DejaVuSans-20" transform="translate(641.318359 0)"/>
     <use xlink:href="#DejaVuSans-4c" transform="translate(673.105469 0)"/>
     <use xlink:href="#DejaVuSans-6f" transform="translate(727.068359 0)"/>
     <use xlink:href="#DejaVuSans-73" transform="translate(788.25 0)"/>
     <use xlink:href="#DejaVuSans-73" transform="translate(840.349609 0)"/>
    </g>
   </g>
   <g id="legend_1">
    <g id="patch_7">
     <path d="M 515.190625 60.230625 
L 594.78125 60.230625 
Q 596.78125 60.230625 596.78125 58.230625 
L 596.78125 29.318125 
Q 596.78125 27.318125 594.78125 27.318125 
L 515.190625 27.318125 
Q 513.190625 27.318125 513.190625 29.318125 
L 513.190625 58.230625 
Q 513.190625 60.230625 515.190625 60.230625 
z
" style="fill: #ffffff; opacity: 0.8; stroke: #cccccc; stroke-linejoin: miter"/>
    </g>
    <g id="line2d_35">
     <path d="M 517.190625 35.416563 
L 527.190625 35.416563 
L 537.190625 35.416563 
" style="fill: none; stroke: #1f77b4; stroke-width: 1.5; stroke-linecap: square"/>
    </g>
    <g id="text_20">
     <!-- train_loss -->
     <g transform="translate(545.190625 38.916563) scale(0.1 -0.1)">
      <defs>
       <path id="DejaVuSans-74" d="M 1172 4494 
L 1172 3500 
L 2356 3500 
L 2356 3053 
L 1172 3053 
L 1172 1153 
Q 1172 725 1289 603 
Q 1406 481 1766 481 
L 2356 481 
L 2356 0 
L 1766 0 
Q 1100 0 847 248 
Q 594 497 594 1153 
L 594 3053 
L 172 3053 
L 172 3500 
L 594 3500 
L 594 4494 
L 1172 4494 
z
" transform="scale(0.015625)"/>
       <path id="DejaVuSans-5f" d="M 3263 -1063 
L 3263 -1509 
L -63 -1509 
L -63 -1063 
L 3263 -1063 
z
" transform="scale(0.015625)"/>
      </defs>
      <use xlink:href="#DejaVuSans-74"/>
      <use xlink:href="#DejaVuSans-72" transform="translate(39.208984 0)"/>
      <use xlink:href="#DejaVuSans-61" transform="translate(80.322266 0)"/>
      <use xlink:href="#DejaVuSans-69" transform="translate(141.601562 0)"/>
      <use xlink:href="#DejaVuSans-6e" transform="translate(169.384766 0)"/>
      <use xlink:href="#DejaVuSans-5f" transform="translate(232.763672 0)"/>
      <use xlink:href="#DejaVuSans-6c" transform="translate(282.763672 0)"/>
      <use xlink:href="#DejaVuSans-6f" transform="translate(310.546875 0)"/>
      <use xlink:href="#DejaVuSans-73" transform="translate(371.728516 0)"/>
      <use xlink:href="#DejaVuSans-73" transform="translate(423.828125 0)"/>
     </g>
    </g>
    <g id="line2d_36">
     <path d="M 517.190625 50.372813 
L 527.190625 50.372813 
L 537.190625 50.372813 
" style="fill: none; stroke: #ff7f0e; stroke-width: 1.5; stroke-linecap: square"/>
    </g>
    <g id="text_21">
     <!-- val_loss -->
     <g transform="translate(545.190625 53.872813) scale(0.1 -0.1)">
      <defs>
       <path id="DejaVuSans-76" d="M 191 3500 
L 800 3500 
L 1894 563 
L 2988 3500 
L 3597 3500 
L 2284 0 
L 1503 0 
L 191 3500 
z
" transform="scale(0.015625)"/>
      </defs>
      <use xlink:href="#DejaVuSans-76"/>
      <use xlink:href="#DejaVuSans-61" transform="translate(59.179688 0)"/>
      <use xlink:href="#DejaVuSans-6c" transform="translate(120.458984 0)"/>
      <use xlink:href="#DejaVuSans-5f" transform="translate(148.242188 0)"/>
      <use xlink:href="#DejaVuSans-6c" transform="translate(198.242188 0)"/>
      <use xlink:href="#DejaVuSans-6f" transform="translate(226.025391 0)"/>
      <use xlink:href="#DejaVuSans-73" transform="translate(287.207031 0)"/>
      <use xlink:href="#DejaVuSans-73" transform="translate(339.306641 0)"/>
     </g>
    </g>
   </g>
  </g>
 </g>
 <defs>
  <clipPath id="p7043891e3d">
   <rect x="43.78125" y="22.318125" width="558" height="554.4"/>
  </clipPath>
 </defs>
</svg>
