<?xml version="1.0" encoding="utf-8" standalone="no"?>
<!DOCTYPE svg PUBLIC "-//W3C//DTD SVG 1.1//EN"
  "http://www.w3.org/Graphics/SVG/1.1/DTD/svg11.dtd">
<svg xmlns:xlink="http://www.w3.org/1999/xlink" width="621.70625pt" height="614.274375pt" viewBox="0 0 621.70625 614.274375" xmlns="http://www.w3.org/2000/svg" version="1.1">
 <metadata>
  <rdf:RDF xmlns:dc="http://purl.org/dc/elements/1.1/" xmlns:cc="http://creativecommons.org/ns#" xmlns:rdf="http://www.w3.org/1999/02/22-rdf-syntax-ns#">
   <cc:Work>
    <dc:type rdf:resource="http://purl.org/dc/dcmitype/StillImage"/>
    <dc:date>2026-05-22T09:38:35.586445</dc:date>
    <dc:format>image/svg+xml</dc:format>
    <dc:creator>
     <cc:Agent>
      <dc:title>Matplotlib v3.10.9, https://matplotlib.org/</dc:title>
     </cc:Agent>
    </dc:creator>
   </cc:Work>
  </rdf:RDF>
 </metadata>
 <defs>
  <style type="text/css">*{stroke-linejoin: round; stroke-linecap: butt}</style>
 </defs>
 <g id="figure_1">
  <g id="patch_1">
   <path d="M 0 614.274375 
L 621.70625 614.274375 
L 621.70625 0 
L 0 0 
z
" style="fill: #ffffff"/>
  </g>
  <g id="axes_1">
   <g id="patch_2">
    <path d="M 56.50625 576.718125 
L 614.50625 576.718125 
L 614.50625 22.318125 
L 56.50625 22.318125 
z
" style="fill: #ffffff"/>
   </g>
   <g id="matplotlib.axis_1">
    <g id="xtick_1">
     <g id="line2d_1">
      <path d="M 81.869886 576.718125 
L 81.869886 22.318125 
" clip-path="url(#paecf6e554e)" style="fill: none; stroke: #b0b0b0; stroke-width: 0.8; stroke-linecap: square"/>
     </g>
     <g id="line2d_2">
      <defs>
       <path id="mf4683ea215" d="M 0 0 
L 0 3.5 
" style="stroke: #000000; stroke-width: 0.8"/>
      </defs>
      <g>
       <use xlink:href="#mf4683ea215" x="81.869886" y="576.718125" style="stroke: #000000; stroke-width: 0.8"/>
      </g>
     </g>
     <g id="text_1">
      <!-- 0 -->
      <g transform="translate(78.688636 591.316563) scale(0.1 -0.1)">
       <defs>
        <path id="DejaVuSans-30" d="M 2034 4250 
Q 1547 4250 1301 3770 
Q 1056 3291 1056 2328 
Q 1056 1369 1301 889 
Q 1547 409 2034 409 
Q 2525 409 2770 889 
Q 3016 1369 3016 2328 
Q 3016 3291 2770 3770 
Q 2525 4250 2034 4250 
z
M 2034 4750 
Q 2819 4750 3233 4129 
Q 3647 3509 3647 2328 
Q 3647 1150 3233 529 
Q 2819 -91 2034 -91 
Q 1250 -91 836 529 
Q 422 1150 422 2328 
Q 422 3509 836 4129 
Q 1250 4750 2034 4750 
z
" transform="scale(0.015625)"/>
       </defs>
       <use xlink:href="#DejaVuSans-30"/>
      </g>
     </g>
    </g>
    <g id="xtick_2">
     <g id="line2d_3">
      <path d="M 145.358338 576.718125 
L 145.358338 22.318125 
" clip-path="url(#paecf6e554e)" style="fill: none; stroke: #b0b0b0; stroke-width: 0.8; stroke-linecap: square"/>
     </g>
     <g id="line2d_4">
      <g>
       <use xlink:href="#mf4683ea215" x="145.358338" y="576.718125" style="stroke: #000000; stroke-width: 0.8"/>
      </g>
     </g>
     <g id="text_2">
      <!-- 100 -->
      <g transform="translate(135.814588 591.316563) scale(0.1 -0.1)">
       <defs>
        <path id="DejaVuSans-31" d="M 794 531 
L 1825 531 
L 1825 4091 
L 703 3866 
L 703 4441 
L 1819 4666 
L 2450 4666 
L 2450 531 
L 3481 531 
L 3481 0 
L 794 0 
L 794 531 
z
" transform="scale(0.015625)"/>
       </defs>
       <use xlink:href="#DejaVuSans-31"/>
       <use xlink:href="#DejaVuSans-30" transform="translate(63.623047 0)"/>
       <use xlink:href="#DejaVuSans-30" transform="translate(127.246094 0)"/>
      </g>
     </g>
    </g>
    <g id="xtick_3">
     <g id="line2d_5">
      <path d="M 208.846789 576.718125 
L 208.846789 22.318125 
" clip-path="url(#paecf6e554e)" style="fill: none; stroke: #b0b0b0; stroke-width: 0.8; stroke-linecap: square"/>
     </g>
     <g id="line2d_6">
      <g>
       <use xlink:href="#mf4683ea215" x="208.846789" y="576.718125" style="stroke: #000000; stroke-width: 0.8"/>
      </g>
     </g>
     <g id="text_3">
      <!-- 200 -->
      <g transform="translate(199.303039 591.316563) scale(0.1 -0.1)">
       <defs>
        <path id="DejaVuSans-32" d="M 1228 531 
L 3431 531 
L 3431 0 
L 469 0 
L 469 531 
Q 828 903 1448 1529 
Q 2069 2156 2228 2338 
Q 2531 2678 2651 2914 
Q 2772 3150 2772 3378 
Q 2772 3750 2511 3984 
Q 2250 4219 1831 4219 
Q 1534 4219 1204 4116 
Q 875 4013 500 3803 
L 500 4441 
Q 881 4594 1212 4672 
Q 1544 4750 1819 4750 
Q 2544 4750 2975 4387 
Q 3406 4025 3406 3419 
Q 3406 3131 3298 2873 
Q 3191 2616 2906 2266 
Q 2828 2175 2409 1742 
Q 1991 1309 1228 531 
z
" transform="scale(0.015625)"/>
       </defs>
       <use xlink:href="#DejaVuSans-32"/>
       <use xlink:href="#DejaVuSans-30" transform="translate(63.623047 0)"/>
       <use xlink:href="#DejaVuSans-30" transform="translate(127.246094 0)"/>
      </g>
     </g>
    </g>
    <g id="xtick_4">
     <g id="line2d_7">
      <path d="M 272.335241 576.718125 
L 272.335241 22.318125 
" clip-path="url(#paecf6e554e)" style="fill: none; stroke: #b0b0b0; stroke-width: 0.8; stroke-linecap: square"/>
     </g>
     <g id="line2d_8">
      <g>
       <use xlink:href="#mf4683ea215" x="272.335241" y="576.718125" style="stroke: #000000; stroke-width: 0.8"/>
      </g>
     </g>
     <g id="text_4">
      <!-- 300 -->
      <g transform="translate(262.791491 591.316563) scale(0.1 -0.1)">
       <defs>
        <path id="DejaVuSans-33" d="M 2597 2516 
Q 3050 2419 3304 2112 
Q 3559 1806 3559 1356 
Q 3559 666 3084 287 
Q 2609 -91 1734 -91 
Q 1441 -91 1130 -33 
Q 819 25 488 141 
L 488 750 
Q 750 597 1062 519 
Q 1375 441 1716 441 
Q 2309 441 2620 675 
Q 2931 909 2931 1356 
Q 2931 1769 2642 2001 
Q 2353 2234 1838 2234 
L 1294 2234 
L 1294 2753 
L 1863 2753 
Q 2328 2753 2575 2939 
Q 2822 3125 2822 3475 
Q 2822 3834 2567 4026 
Q 2313 4219 1838 4219 
Q 1578 4219 1281 4162 
Q 984 4106 628 3988 
L 628 4550 
Q 988 4650 1302 4700 
Q 1616 4750 1894 4750 
Q 2613 4750 3031 4423 
Q 3450 4097 3450 3541 
Q 3450 3153 3228 2886 
Q 3006 2619 2597 2516 
z
" transform="scale(0.015625)"/>
       </defs>
       <use xlink:href="#DejaVuSans-33"/>
       <use xlink:href="#DejaVuSans-30" transform="translate(63.623047 0)"/>
       <use xlink:href="#DejaVuSans-30" transform="translate(127.246094 0)"/>
      </g>
     </g>
    </g>
    <g id="xtick_5">
     <g id="line2d_9">
      <path d="M 335.823692 576.718125 
L 335.823692 22.318125 
" clip-path="url(#paecf6e554e)" style="fill: none; stroke: #b0b0b0; stroke-width: 0.8; stroke-linecap: square"/>
     </g>
     <g id="line2d_10">
      <g>
       <use xlink:href="#mf4683ea215" x="335.823692" y="576.718125" style="stroke: #000000; stroke-width: 0.8"/>
      </g>
     </g>
     <g id="text_5">
      <!-- 400 -->
      <g transform="translate(326.279942 591.316563) scale(0.1 -0.1)">
       <defs>
        <path id="DejaVuSans-34" d="M 2419 4116 
L 825 1625 
L 2419 1625 
L 2419 4116 
z
M 2253 4666 
L 3047 4666 
L 3047 1625 
L 3713 1625 
L 3713 1100 
L 3047 1100 
L 3047 0 
L 2419 0 
L 2419 1100 
L 313 1100 
L 313 1709 
L 2253 4666 
z
" transform="scale(0.015625)"/>
       </defs>
       <use xlink:href="#DejaVuSans-34"/>
       <use xlink:href="#DejaVuSans-30" transform="translate(63.623047 0)"/>
       <use xlink:href="#DejaVuSans-30" transform="translate(127.246094 0)"/>
      </g>
     </g>
    </g>
    <g id="xtick_6">
     <g id="line2d_11">
      <path d="M 399.312144 576.718125 
L 399.312144 22.318125 
" clip-path="url(#paecf6e554e)" style="fill: none; stroke: #b0b0b0; stroke-width: 0.8; stroke-linecap: square"/>
     </g>
     <g id="line2d_12">
      <g>
       <use xlink:href="#mf4683ea215" x="399.312144" y="576.718125" style="stroke: #000000; stroke-width: 0.8"/>
      </g>
     </g>
     <g id="text_6">
      <!-- 500 -->
      <g transform="translate(389.768394 591.316563) scale(0.1 -0.1)">
       <defs>
        <path id="DejaVuSans-35" d="M 691 4666 
L 3169 4666 
L 3169 4134 
L 1269 4134 
L 1269 2991 
Q 1406 3038 1543 3061 
Q 1681 3084 1819 3084 
Q 2600 3084 3056 2656 
Q 3513 2228 3513 1497 
Q 3513 744 3044 326 
Q 2575 -91 1722 -91 
Q 1428 -91 1123 -41 
Q 819 9 494 109 
L 494 744 
Q 775 591 1075 516 
Q 1375 441 1709 441 
Q 2250 441 2565 725 
Q 2881 1009 2881 1497 
Q 2881 1984 2565 2268 
Q 2250 2553 1709 2553 
Q 1456 2553 1204 2497 
Q 953 2441 691 2322 
L 691 4666 
z
" transform="scale(0.015625)"/>
       </defs>
       <use xlink:href="#DejaVuSans-35"/>
       <use xlink:href="#DejaVuSans-30" transform="translate(63.623047 0)"/>
       <use xlink:href="#DejaVuSans-30" transform="translate(127.246094 0)"/>
      </g>
     </g>
    </g>
    <g id="xtick_7">
     <g id="line2d_13">
      <path d="M 462.800595 576.718125 
L 462.800595 22.318125 
" clip-path="url(#paecf6e554e)" style="fill: none; stroke: #b0b0b0; stroke-width: 0.8; stroke-linecap: square"/>
     </g>
     <g id="line2d_14">
      <g>
       <use xlink:href="#mf4683ea215" x="462.800595" y="576.718125" style="stroke: #000000; stroke-width: 0.8"/>
      </g>
     </g>
     <g id="text_7">
      <!-- 600 -->
      <g transform="translate(453.256845 591.316563) scale(0.1 -0.1)">
       <defs>
        <path id="DejaVuSans-36" d="M 2113 2584 
Q 1688 2584 1439 2293 
Q 1191 2003 1191 1497 
Q 1191 994 1439 701 
Q 1688 409 2113 409 
Q 2538 409 2786 701 
Q 3034 994 3034 1497 
Q 3034 2003 2786 2293 
Q 2538 2584 2113 2584 
z
M 3366 4563 
L 3366 3988 
Q 3128 4100 2886 4159 
Q 2644 4219 2406 4219 
Q 1781 4219 1451 3797 
Q 1122 3375 1075 2522 
Q 1259 2794 1537 2939 
Q 1816 3084 2150 3084 
Q 2853 3084 3261 2657 
Q 3669 2231 3669 1497 
Q 3669 778 3244 343 
Q 2819 -91 2113 -91 
Q 1303 -91 875 529 
Q 447 1150 447 2328 
Q 447 3434 972 4092 
Q 1497 4750 2381 4750 
Q 2619 4750 2861 4703 
Q 3103 4656 3366 4563 
z
" transform="scale(0.015625)"/>
       </defs>
       <use xlink:href="#DejaVuSans-36"/>
       <use xlink:href="#DejaVuSans-30" transform="translate(63.623047 0)"/>
       <use xlink:href="#DejaVuSans-30" transform="translate(127.246094 0)"/>
      </g>
     </g>
    </g>
    <g id="xtick_8">
     <g id="line2d_15">
      <path d="M 526.289047 576.718125 
L 526.289047 22.318125 
" clip-path="url(#paecf6e554e)" style="fill: none; stroke: #b0b0b0; stroke-width: 0.8; stroke-linecap: square"/>
     </g>
     <g id="line2d_16">
      <g>
       <use xlink:href="#mf4683ea215" x="526.289047" y="576.718125" style="stroke: #000000; stroke-width: 0.8"/>
      </g>
     </g>
     <g id="text_8">
      <!-- 700 -->
      <g transform="translate(516.745297 591.316563) scale(0.1 -0.1)">
       <defs>
        <path id="DejaVuSans-37" d="M 525 4666 
L 3525 4666 
L 3525 4397 
L 1831 0 
L 1172 0 
L 2766 4134 
L 525 4134 
L 525 4666 
z
" transform="scale(0.015625)"/>
       </defs>
       <use xlink:href="#DejaVuSans-37"/>
       <use xlink:href="#DejaVuSans-30" transform="translate(63.623047 0)"/>
       <use xlink:href="#DejaVuSans-30" transform="translate(127.246094 0)"/>
      </g>
     </g>
    </g>
    <g id="xtick_9">
     <g id="line2d_17">
      <path d="M 589.777498 576.718125 
L 589.777498 22.318125 
" clip-path="url(#paecf6e554e)" style="fill: none; stroke: #b0b0b0; stroke-width: 0.8; stroke-linecap: square"/>
     </g>
     <g id="line2d_18">
      <g>
       <use xlink:href="#mf4683ea215" x="589.777498" y="576.718125" style="stroke: #000000; stroke-width: 0.8"/>
      </g>
     </g>
     <g id="text_9">
      <!-- 800 -->
      <g transform="translate(580.233748 591.316563) scale(0.1 -0.1)">
       <defs>
        <path id="DejaVuSans-38" d="M 2034 2216 
Q 1584 2216 1326 1975 
Q 1069 1734 1069 1313 
Q 1069 891 1326 650 
Q 1584 409 2034 409 
Q 2484 409 2743 651 
Q 3003 894 3003 1313 
Q 3003 1734 2745 1975 
Q 2488 2216 2034 2216 
z
M 1403 2484 
Q 997 2584 770 2862 
Q 544 3141 544 3541 
Q 544 4100 942 4425 
Q 1341 4750 2034 4750 
Q 2731 4750 3128 4425 
Q 3525 4100 3525 3541 
Q 3525 3141 3298 2862 
Q 3072 2584 2669 2484 
Q 3125 2378 3379 2068 
Q 3634 1759 3634 1313 
Q 3634 634 3220 271 
Q 2806 -91 2034 -91 
Q 1263 -91 848 271 
Q 434 634 434 1313 
Q 434 1759 690 2068 
Q 947 2378 1403 2484 
z
M 1172 3481 
Q 1172 3119 1398 2916 
Q 1625 2713 2034 2713 
Q 2441 2713 2670 2916 
Q 2900 3119 2900 3481 
Q 2900 3844 2670 4047 
Q 2441 4250 2034 4250 
Q 1625 4250 1398 4047 
Q 1172 3844 1172 3481 
z
" transform="scale(0.015625)"/>
       </defs>
       <use xlink:href="#DejaVuSans-38"/>
       <use xlink:href="#DejaVuSans-30" transform="translate(63.623047 0)"/>
       <use xlink:href="#DejaVuSans-30" transform="translate(127.246094 0)"/>
      </g>
     </g>
    </g>
    <g id="text_10">
     <!-- Epochs -->
     <g transform="translate(317.590625 604.994688) scale(0.1 -0.1)">
      <defs>
       <path id="DejaVuSans-45" d="M 628 4666 
L 3578 4666 
L 3578 4134 
L 1259 4134 
L 1259 2753 
L 3481 2753 
L 3481 2222 
L 1259 2222 
L 1259 531 
L 3634 531 
L 3634 0 
L 628 0 
L 628 4666 
z
" transform="scale(0.015625)"/>
       <path id="DejaVuSans-70" d="M 1159 525 
L 1159 -1331 
L 581 -1331 
L 581 3500 
L 1159 3500 
L 1159 2969 
Q 1341 3281 1617 3432 
Q 1894 3584 2278 3584 
Q 2916 3584 3314 3078 
Q 3713 2572 3713 1747 
Q 3713 922 3314 415 
Q 2916 -91 2278 -91 
Q 1894 -91 1617 61 
Q 1341 213 1159 525 
z
M 3116 1747 
Q 3116 2381 2855 2742 
Q 2594 3103 2138 3103 
Q 1681 3103 1420 2742 
Q 1159 2381 1159 1747 
Q 1159 1113 1420 752 
Q 1681 391 2138 391 
Q 2594 391 2855 752 
Q 3116 1113 3116 1747 
z
" transform="scale(0.015625)"/>
       <path id="DejaVuSans-6f" d="M 1959 3097 
Q 1497 3097 1228 2736 
Q 959 2375 959 1747 
Q 959 1119 1226 758 
Q 1494 397 1959 397 
Q 2419 397 2687 759 
Q 2956 1122 2956 1747 
Q 2956 2369 2687 2733 
Q 2419 3097 1959 3097 
z
M 1959 3584 
Q 2709 3584 3137 3096 
Q 3566 2609 3566 1747 
Q 3566 888 3137 398 
Q 2709 -91 1959 -91 
Q 1206 -91 779 398 
Q 353 888 353 1747 
Q 353 2609 779 3096 
Q 1206 3584 1959 3584 
z
" transform="scale(0.015625)"/>
       <path id="DejaVuSans-63" d="M 3122 3366 
L 3122 2828 
Q 2878 2963 2633 3030 
Q 2388 3097 2138 3097 
Q 1578 3097 1268 2742 
Q 959 2388 959 1747 
Q 959 1106 1268 751 
Q 1578 397 2138 397 
Q 2388 397 2633 464 
Q 2878 531 3122 666 
L 3122 134 
Q 2881 22 2623 -34 
Q 2366 -91 2075 -91 
Q 1284 -91 818 406 
Q 353 903 353 1747 
Q 353 2603 823 3093 
Q 1294 3584 2113 3584 
Q 2378 3584 2631 3529 
Q 2884 3475 3122 3366 
z
" transform="scale(0.015625)"/>
       <path id="DejaVuSans-68" d="M 3513 2113 
L 3513 0 
L 2938 0 
L 2938 2094 
Q 2938 2591 2744 2837 
Q 2550 3084 2163 3084 
Q 1697 3084 1428 2787 
Q 1159 2491 1159 1978 
L 1159 0 
L 581 0 
L 581 4863 
L 1159 4863 
L 1159 2956 
Q 1366 3272 1645 3428 
Q 1925 3584 2291 3584 
Q 2894 3584 3203 3211 
Q 3513 2838 3513 2113 
z
" transform="scale(0.015625)"/>
       <path id="DejaVuSans-73" d="M 2834 3397 
L 2834 2853 
Q 2591 2978 2328 3040 
Q 2066 3103 1784 3103 
Q 1356 3103 1142 2972 
Q 928 2841 928 2578 
Q 928 2378 1081 2264 
Q 1234 2150 1697 2047 
L 1894 2003 
Q 2506 1872 2764 1633 
Q 3022 1394 3022 966 
Q 3022 478 2636 193 
Q 2250 -91 1575 -91 
Q 1294 -91 989 -36 
Q 684 19 347 128 
L 347 722 
Q 666 556 975 473 
Q 1284 391 1588 391 
Q 1994 391 2212 530 
Q 2431 669 2431 922 
Q 2431 1156 2273 1281 
Q 2116 1406 1581 1522 
L 1381 1569 
Q 847 1681 609 1914 
Q 372 2147 372 2553 
Q 372 3047 722 3315 
Q 1072 3584 1716 3584 
Q 2034 3584 2315 3537 
Q 2597 3491 2834 3397 
z
" transform="scale(0.015625)"/>
      </defs>
      <use xlink:href="#DejaVuSans-45"/>
      <use xlink:href="#DejaVuSans-70" transform="translate(63.183594 0)"/>
      <use xlink:href="#DejaVuSans-6f" transform="translate(126.660156 0)"/>
      <use xlink:href="#DejaVuSans-63" transform="translate(187.841797 0)"/>
      <use xlink:href="#DejaVuSans-68" transform="translate(242.822266 0)"/>
      <use xlink:href="#DejaVuSans-73" transform="translate(306.201172 0)"/>
     </g>
    </g>
   </g>
   <g id="matplotlib.axis_2">
    <g id="ytick_1">
     <g id="line2d_19">
      <path d="M 56.50625 462.741682 
L 614.50625 462.741682 
" clip-path="url(#paecf6e554e)" style="fill: none; stroke: #b0b0b0; stroke-width: 0.8; stroke-linecap: square"/>
     </g>
     <g id="line2d_20">
      <defs>
       <path id="me55dfc985d" d="M 0 0 
L -3.5 0 
" style="stroke: #000000; stroke-width: 0.8"/>
      </defs>
      <g>
       <use xlink:href="#me55dfc985d" x="56.50625" y="462.741682" style="stroke: #000000; stroke-width: 0.8"/>
      </g>
     </g>
     <g id="text_11">
      <!-- 0.680 -->
      <g transform="translate(20.878125 466.540901) scale(0.1 -0.1)">
       <defs>
        <path id="DejaVuSans-2e" d="M 684 794 
L 1344 794 
L 1344 0 
L 684 0 
L 684 794 
z
" transform="scale(0.015625)"/>
       </defs>
       <use xlink:href="#DejaVuSans-30"/>
       <use xlink:href="#DejaVuSans-2e" transform="translate(63.623047 0)"/>
       <use xlink:href="#DejaVuSans-36" transform="translate(95.410156 0)"/>
       <use xlink:href="#DejaVuSans-38" transform="translate(159.033203 0)"/>
       <use xlink:href="#DejaVuSans-30" transform="translate(222.65625 0)"/>
      </g>
     </g>
    </g>
    <g id="ytick_2">
     <g id="line2d_21">
      <path d="M 56.50625 345.984523 
L 614.50625 345.984523 
" clip-path="url(#paecf6e554e)" style="fill: none; stroke: #b0b0b0; stroke-width: 0.8; stroke-linecap: square"/>
     </g>
     <g id="line2d_22">
      <g>
       <use xlink:href="#me55dfc985d" x="56.50625" y="345.984523" style="stroke: #000000; stroke-width: 0.8"/>
      </g>
     </g>
     <g id="text_12">
      <!-- 0.685 -->
      <g transform="translate(20.878125 349.783742) scale(0.1 -0.1)">
       <use xlink:href="#DejaVuSans-30"/>
       <use xlink:href="#DejaVuSans-2e" transform="translate(63.623047 0)"/>
       <use xlink:href="#DejaVuSans-36" transform="translate(95.410156 0)"/>
       <use xlink:href="#DejaVuSans-38" transform="translate(159.033203 0)"/>
       <use xlink:href="#DejaVuSans-35" transform="translate(222.65625 0)"/>
      </g>
     </g>
    </g>
    <g id="ytick_3">
     <g id="line2d_23">
      <path d="M 56.50625 229.227365 
L 614.50625 229.227365 
" clip-path="url(#paecf6e554e)" style="fill: none; stroke: #b0b0b0; stroke-width: 0.8; stroke-linecap: square"/>
     </g>
     <g id="line2d_24">
      <g>
       <use xlink:href="#me55dfc985d" x="56.50625" y="229.227365" style="stroke: #000000; stroke-width: 0.8"/>
      </g>
     </g>
     <g id="text_13">
      <!-- 0.690 -->
      <g transform="translate(20.878125 233.026584) scale(0.1 -0.1)">
       <defs>
        <path id="DejaVuSans-39" d="M 703 97 
L 703 672 
Q 941 559 1184 500 
Q 1428 441 1663 441 
Q 2288 441 2617 861 
Q 2947 1281 2994 2138 
Q 2813 1869 2534 1725 
Q 2256 1581 1919 1581 
Q 1219 1581 811 2004 
Q 403 2428 403 3163 
Q 403 3881 828 4315 
Q 1253 4750 1959 4750 
Q 2769 4750 3195 4129 
Q 3622 3509 3622 2328 
Q 3622 1225 3098 567 
Q 2575 -91 1691 -91 
Q 1453 -91 1209 -44 
Q 966 3 703 97 
z
M 1959 2075 
Q 2384 2075 2632 2365 
Q 2881 2656 2881 3163 
Q 2881 3666 2632 3958 
Q 2384 4250 1959 4250 
Q 1534 4250 1286 3958 
Q 1038 3666 1038 3163 
Q 1038 2656 1286 2365 
Q 1534 2075 1959 2075 
z
" transform="scale(0.015625)"/>
       </defs>
       <use xlink:href="#DejaVuSans-30"/>
       <use xlink:href="#DejaVuSans-2e" transform="translate(63.623047 0)"/>
       <use xlink:href="#DejaVuSans-36" transform="translate(95.410156 0)"/>
       <use xlink:href="#DejaVuSans-39" transform="translate(159.033203 0)"/>
       <use xlink:href="#DejaVuSans-30" transform="translate(222.65625 0)"/>
      </g>
     </g>
    </g>
    <g id="ytick_4">
     <g id="line2d_25">
      <path d="M 56.50625 112.470207 
L 614.50625 112.470207 
" clip-path="url(#paecf6e554e)" style="fill: none; stroke: #b0b0b0; stroke-width: 0.8; stroke-linecap: square"/>
     </g>
     <g id="line2d_26">
      <g>
       <use xlink:href="#me55dfc985d" x="56.50625" y="112.470207" style="stroke: #000000; stroke-width: 0.8"/>
      </g>
     </g>
     <g id="text_14">
      <!-- 0.695 -->
      <g transform="translate(20.878125 116.269426) scale(0.1 -0.1)">
       <use xlink:href="#DejaVuSans-30"/>
       <use xlink:href="#DejaVuSans-2e" transform="translate(63.623047 0)"/>
       <use xlink:href="#DejaVuSans-36" transform="translate(95.410156 0)"/>
       <use xlink:href="#DejaVuSans-39" transform="translate(159.033203 0)"/>
       <use xlink:href="#DejaVuSans-35" transform="translate(222.65625 0)"/>
      </g>
     </g>
    </g>
    <g id="text_15">
     <!-- Loss -->
     <g transform="translate(14.798437 310.485313) rotate(-90) scale(0.1 -0.1)">
      <defs>
       <path id="DejaVuSans-4c" d="M 628 4666 
L 1259 4666 
L 1259 531 
L 3531 531 
L 3531 0 
L 628 0 
L 628 4666 
z
" transform="scale(0.015625)"/>
      </defs>
      <use xlink:href="#DejaVuSans-4c"/>
      <use xlink:href="#DejaVuSans-6f" transform="translate(53.962891 0)"/>
      <use xlink:href="#DejaVuSans-73" transform="translate(115.144531 0)"/>
      <use xlink:href="#DejaVuSans-73" transform="translate(167.244141 0)"/>
     </g>
    </g>
   </g>
   <g id="line2d_27">
    <path d="M 81.869886 47.518125 
L 82.504771 149.502036 
L 83.139655 152.061655 
L 83.77454 152.360904 
L 84.409424 152.319148 
L 85.044309 152.852228 
L 85.679193 152.921821 
L 86.314078 153.140342 
L 86.948962 154.046438 
L 87.583847 158.152407 
L 89.488501 192.72188 
L 90.75827 207.636985 
L 93.297808 230.949144 
L 95.837346 247.755779 
L 96.47223 251.369031 
L 97.107115 256.574564 
L 98.376884 262.837906 
L 99.011768 267.098371 
L 99.646653 268.938401 
L 100.916422 276.810726 
L 101.551306 280.247213 
L 102.186191 282.831886 
L 102.821075 287.536352 
L 103.45596 291.205278 
L 105.995498 311.011358 
L 106.630382 316.072138 
L 107.265267 319.352737 
L 107.900151 323.947247 
L 108.535036 327.309966 
L 109.16992 331.543985 
L 109.804805 338.287516 
L 110.43969 340.726044 
L 111.074574 344.236299 
L 111.709459 349.643651 
L 112.979228 357.532679 
L 113.614112 359.315643 
L 114.883881 365.698685 
L 115.518766 370.552079 
L 116.15365 370.721885 
L 116.788535 376.673452 
L 117.423419 378.201707 
L 118.058304 382.19772 
L 118.693188 385.025967 
L 119.328073 386.467927 
L 119.962957 390.159123 
L 121.232726 396.061975 
L 121.867611 397.94237 
L 122.502495 399.200606 
L 123.13738 402.283562 
L 123.772264 403.913423 
L 125.042033 408.008256 
L 125.676918 409.28737 
L 126.311802 410.925582 
L 127.581571 415.482511 
L 128.216456 415.599427 
L 128.85134 419.692869 
L 129.486225 420.7298 
L 130.121109 421.072196 
L 130.755994 424.231704 
L 131.390879 423.556655 
L 132.025763 426.532438 
L 132.660648 427.247851 
L 133.930417 431.662812 
L 135.200186 434.663648 
L 135.83507 435.149405 
L 136.469955 436.413208 
L 137.104839 438.883749 
L 137.739724 438.899059 
L 138.374608 440.709861 
L 139.009493 441.155254 
L 139.644377 443.121944 
L 140.279262 444.451164 
L 140.914146 444.483177 
L 142.183915 447.76656 
L 142.8188 448.60028 
L 143.453684 449.738817 
L 144.088569 450.149414 
L 145.358338 452.532267 
L 145.993222 453.043078 
L 146.628107 456.119074 
L 147.262991 456.162222 
L 147.897876 455.466295 
L 148.53276 457.689086 
L 149.167645 458.888863 
L 149.802529 459.448389 
L 150.437414 459.328689 
L 151.072298 461.408119 
L 151.707183 459.426119 
L 152.342067 463.314959 
L 152.976952 462.15972 
L 153.611837 464.283689 
L 154.246721 464.372767 
L 154.881606 463.81881 
L 155.51649 465.555843 
L 156.151375 466.407658 
L 156.786259 468.224027 
L 157.421144 468.882374 
L 158.056028 469.774552 
L 158.690913 469.709135 
L 159.325797 469.372306 
L 159.960682 471.004951 
L 160.595566 471.134393 
L 161.230451 471.819185 
L 161.865335 473.127528 
L 162.50022 472.773997 
L 163.135104 474.182553 
L 163.769989 474.601501 
L 164.404873 474.409425 
L 165.039758 475.414344 
L 165.674642 476.896668 
L 166.309527 476.498598 
L 167.579296 478.454152 
L 168.21418 478.024069 
L 168.849065 478.465287 
L 170.118834 480.597607 
L 170.753718 481.986677 
L 171.388603 479.582946 
L 172.023487 482.76194 
L 172.658372 480.470948 
L 173.293256 482.152308 
L 173.928141 482.561513 
L 174.563026 484.331951 
L 175.19791 483.779385 
L 175.832795 486.212345 
L 176.467679 484.813532 
L 177.102564 484.901219 
L 177.737448 485.541472 
L 178.372333 487.374543 
L 179.007217 486.286113 
L 179.642102 486.078727 
L 180.276986 486.813626 
L 180.911871 489.235452 
L 181.546755 488.478283 
L 182.18164 488.236101 
L 182.816524 488.141455 
L 183.451409 489.394123 
L 184.086293 490.245937 
L 184.721178 492.144426 
L 185.356062 490.433838 
L 185.990947 491.316273 
L 186.625831 491.030943 
L 187.260716 491.815949 
L 187.8956 491.128373 
L 188.530485 492.076225 
L 189.165369 490.905676 
L 189.800254 493.55855 
L 190.435138 494.00951 
L 191.070023 495.132736 
L 191.704907 494.127818 
L 192.339792 494.570427 
L 192.974676 496.143222 
L 193.609561 495.224599 
L 194.244445 495.234341 
L 194.87933 495.885729 
L 195.514215 497.216341 
L 196.149099 495.277489 
L 196.783984 497.677045 
L 197.418868 496.171059 
L 198.053753 497.291501 
L 198.688637 497.956807 
L 199.323522 497.97351 
L 199.958406 497.757772 
L 200.593291 498.377147 
L 201.228175 500.509467 
L 201.86306 499.368147 
L 202.497944 501.524129 
L 203.767713 499.333351 
L 204.402598 501.042547 
L 205.037482 502.032155 
L 205.672367 501.073168 
L 206.307251 501.368241 
L 206.942136 501.812242 
L 207.57702 503.13172 
L 208.211905 503.102491 
L 208.846789 501.577019 
L 209.481674 504.04756 
L 210.116558 503.30431 
L 210.751443 505.002371 
L 211.386327 503.099707 
L 212.021212 503.329363 
L 212.656096 505.400442 
L 213.925865 505.122071 
L 214.56075 505.45194 
L 215.195634 504.863186 
L 215.830519 505.346159 
L 216.465403 505.68438 
L 217.100288 507.516059 
L 217.735173 508.285754 
L 218.370057 506.772809 
L 219.639826 508.390143 
L 220.274711 507.936399 
L 220.909595 506.474953 
L 222.179364 507.808349 
L 222.814249 509.251701 
L 223.449133 509.05545 
L 224.084018 507.912738 
L 224.718902 509.253093 
L 225.353787 508.661555 
L 225.988671 507.710919 
L 226.623556 510.004694 
L 227.25844 508.971938 
L 227.893325 510.033923 
L 228.528209 510.246876 
L 229.163094 511.122352 
L 229.797978 510.145271 
L 230.432863 510.839806 
L 231.067747 509.43125 
L 231.702632 509.038747 
L 232.337516 510.855117 
L 232.972401 509.769471 
L 233.607285 512.301253 
L 234.24217 510.522463 
L 234.877054 512.052111 
L 235.511939 512.234444 
L 236.146823 511.459181 
L 236.781708 513.263024 
L 237.416592 514.283252 
L 238.051477 512.782834 
L 238.686362 512.761956 
L 239.956131 513.784969 
L 240.591015 514.106487 
L 241.2259 514.695241 
L 241.860784 512.162067 
L 242.495669 515.100271 
L 243.130553 513.033368 
L 243.765438 513.640216 
L 244.400322 515.027894 
L 245.035207 514.691066 
L 245.670091 514.610338 
L 246.304976 515.517827 
L 246.93986 514.526827 
L 247.574745 514.497598 
L 248.209629 514.816332 
L 248.844514 514.7022 
L 249.479398 514.021584 
L 250.749167 516.627134 
L 251.384052 515.711294 
L 252.018936 515.701551 
L 252.653821 515.451018 
L 253.288705 516.055082 
L 254.558474 514.429397 
L 255.193359 516.661931 
L 255.828243 516.955612 
L 256.463128 517.6752 
L 257.098012 517.767062 
L 257.732897 516.245766 
L 258.367781 517.774022 
L 259.002666 517.235374 
L 259.63755 519.023906 
L 260.272435 518.858276 
L 260.90732 518.888897 
L 261.542204 519.680861 
L 262.177089 520.053878 
L 263.446858 518.222199 
L 264.081742 517.927126 
L 264.716627 521.30933 
L 265.351511 518.751103 
L 265.986396 519.501312 
L 266.62128 520.012123 
L 267.256165 518.668984 
L 267.891049 520.119295 
L 268.525934 520.855586 
L 269.160818 519.550027 
L 269.795703 521.348302 
L 270.430587 521.300979 
L 271.065472 518.184619 
L 271.700356 521.860504 
L 272.335241 521.25644 
L 272.970125 522.230738 
L 273.60501 519.853451 
L 274.239894 521.319073 
L 274.874779 521.171537 
L 275.509663 519.925828 
L 276.144548 521.875815 
L 276.779432 520.994771 
L 277.414317 521.498622 
L 278.049201 522.464569 
L 278.684086 521.868856 
L 279.31897 524.079119 
L 279.953855 522.347653 
L 280.588739 522.581485 
L 281.223624 522.138875 
L 281.858509 520.503447 
L 282.493393 524.727723 
L 283.128278 524.898921 
L 283.763162 523.874517 
L 284.398047 523.907921 
L 285.032931 524.247534 
L 285.667816 522.431165 
L 286.3027 522.460393 
L 286.937585 524.31991 
L 287.572469 523.59893 
L 288.207354 524.095822 
L 288.842238 522.137483 
L 289.477123 524.656739 
L 290.112007 524.230831 
L 290.746892 525.064552 
L 291.381776 522.578701 
L 292.016661 524.402029 
L 292.651545 522.531378 
L 293.28643 524.201603 
L 295.191083 525.032539 
L 295.825968 525.835639 
L 296.460852 523.51681 
L 297.095737 525.763262 
L 297.730621 526.063903 
L 298.365506 525.148063 
L 299.00039 525.813369 
L 299.635275 523.600322 
L 300.270159 525.75352 
L 300.905044 525.109091 
L 301.539928 528.41196 
L 302.174813 525.342923 
L 302.809697 525.475149 
L 303.444582 526.285208 
L 304.079467 525.69367 
L 304.714351 526.22675 
L 305.349236 524.944852 
L 306.619005 529.109279 
L 307.253889 526.79741 
L 307.888774 526.340882 
L 308.523658 526.271289 
L 309.158543 526.375678 
L 309.793427 528.296436 
L 310.428312 528.736262 
L 311.063196 526.386813 
L 311.698081 527.446014 
L 312.332965 526.055552 
L 312.96785 527.379205 
L 313.602734 528.260248 
L 314.237619 525.413907 
L 314.872503 527.677061 
L 316.142272 528.364637 
L 316.777157 527.99858 
L 317.412041 529.5157 
L 318.046926 527.409826 
L 318.68181 527.192696 
L 319.316695 528.953391 
L 319.951579 528.629089 
L 320.586464 528.466243 
L 321.221348 528.478769 
L 321.856233 529.075875 
L 322.491117 525.707588 
L 323.126002 529.396001 
L 323.760886 529.615914 
L 324.395771 527.230276 
L 325.66554 529.306922 
L 326.300425 529.878974 
L 326.935309 528.097401 
L 328.205078 531.241599 
L 328.839963 528.988188 
L 329.474847 530.981322 
L 330.109732 530.67929 
L 330.744616 529.828867 
L 331.379501 529.563023 
L 332.014385 528.534443 
L 332.64927 529.517092 
L 333.284154 529.281869 
L 333.919039 530.18379 
L 334.553923 530.339678 
L 335.188808 530.16152 
L 335.823692 530.899203 
L 336.458577 530.187966 
L 337.093461 529.26795 
L 338.36323 531.027254 
L 338.998115 531.345988 
L 339.632999 529.157994 
L 340.267884 532.220072 
L 340.902768 531.710654 
L 341.537653 532.062793 
L 342.172537 530.627791 
L 342.807422 532.484524 
L 343.442306 531.607657 
L 344.077191 532.666857 
L 344.712075 532.058617 
L 346.616729 531.44481 
L 347.251614 533.60775 
L 347.886498 532.772638 
L 349.156267 531.603481 
L 349.791152 534.270273 
L 350.426036 533.270922 
L 351.060921 530.194925 
L 351.695805 531.220721 
L 352.33069 532.512362 
L 352.965574 533.070495 
L 353.600459 533.234734 
L 354.235343 532.542982 
L 354.870228 531.308408 
L 355.505112 532.508186 
L 356.139997 534.316204 
L 356.774881 533.237517 
L 357.409766 533.396189 
L 358.04465 533.049617 
L 358.679535 533.241693 
L 359.314419 532.920175 
L 359.949304 534.055927 
L 360.584188 533.945971 
L 361.219073 532.985592 
L 361.853957 533.475524 
L 362.488842 534.188153 
L 363.123726 531.69256 
L 363.758611 533.513104 
L 364.393495 534.421985 
L 365.02838 533.799826 
L 365.663264 534.689221 
L 366.298149 532.682168 
L 367.567918 534.927228 
L 368.837687 534.117169 
L 369.472572 534.231301 
L 370.107456 534.698964 
L 370.742341 536.327433 
L 371.377225 535.216733 
L 372.01211 534.697572 
L 372.646994 534.989861 
L 373.281879 532.889554 
L 373.916763 536.029576 
L 374.551648 536.506982 
L 375.186532 535.007955 
L 375.821417 534.75603 
L 376.456301 536.660086 
L 377.091186 534.59875 
L 377.72607 533.737193 
L 378.995839 536.793704 
L 379.630724 537.18899 
L 380.265608 535.314163 
L 380.900493 534.385797 
L 381.535377 534.707315 
L 382.170262 535.478402 
L 382.805146 534.54586 
L 383.440031 535.347568 
L 384.074915 534.945322 
L 384.7098 535.362878 
L 385.344684 536.877215 
L 385.979569 537.589844 
L 386.614453 536.946808 
L 387.249338 536.820149 
L 387.884222 538.402687 
L 388.519107 536.987171 
L 389.153991 534.54586 
L 389.788876 538.106222 
L 390.423761 536.6406 
L 391.058645 536.302379 
L 391.69353 538.288555 
L 392.328414 534.856243 
L 392.963299 535.990604 
L 393.598183 535.460308 
L 394.233068 537.397768 
L 394.867952 538.647653 
L 395.502837 537.620465 
L 396.137721 537.864039 
L 396.772606 537.200125 
L 397.40749 537.923889 
L 398.042375 534.156141 
L 398.677259 536.820149 
L 399.312144 537.401944 
L 399.947028 538.422173 
L 400.581913 536.065764 
L 401.216797 536.779785 
L 401.851682 538.969171 
L 403.121451 539.012319 
L 403.756335 537.837594 
L 404.39122 538.128492 
L 405.026104 536.849378 
L 405.660989 536.398417 
L 406.295873 539.601073 
L 406.930758 536.6406 
L 407.565642 536.608587 
L 408.200527 539.35889 
L 409.470296 537.755475 
L 410.10518 540.060385 
L 410.740065 537.112438 
L 411.37495 536.857729 
L 412.009834 538.244015 
L 412.644719 539.197435 
L 413.279603 538.759001 
L 413.914488 539.603857 
L 414.549372 538.834161 
L 415.184257 539.773663 
L 415.819141 539.97409 
L 416.454026 540.617126 
L 417.08891 538.569709 
L 417.723795 537.79723 
L 418.358679 537.529994 
L 418.993564 540.742393 
L 419.628448 538.57806 
L 420.263333 538.095087 
L 420.898217 539.820986 
L 421.533102 540.614342 
L 422.167986 540.028372 
L 422.802871 539.748609 
L 423.437755 540.640788 
L 424.07264 539.180733 
L 424.707524 540.434793 
L 425.342409 540.61991 
L 425.977293 540.301175 
L 426.612178 540.731258 
L 427.247062 538.688017 
L 427.881947 538.568317 
L 429.151716 539.894754 
L 429.7866 541.88928 
L 430.421485 539.616383 
L 431.056369 540.61991 
L 431.691254 540.839823 
L 432.961023 539.815418 
L 433.595908 540.285865 
L 434.230792 538.84808 
L 434.865677 542.000629 
L 435.500561 541.49121 
L 436.135446 542.039601 
L 436.77033 540.042291 
L 437.405215 542.085532 
L 438.040099 540.363809 
L 438.674984 540.73265 
L 439.309868 542.738311 
L 439.944753 540.585113 
L 440.579637 539.75696 
L 441.849406 542.42236 
L 442.484291 541.957481 
L 443.119175 540.977616 
L 443.75406 541.805769 
L 444.388944 541.347849 
L 445.023829 541.306094 
L 445.658713 542.12172 
L 446.293598 544.318065 
L 446.928482 541.389605 
L 447.563367 540.90524 
L 448.198251 541.157165 
L 448.833136 540.813378 
L 449.46802 542.182962 
L 450.102905 543.03756 
L 450.737789 542.123112 
L 451.372674 541.695813 
L 452.007558 542.280391 
L 452.642443 541.428577 
L 453.277327 542.405658 
L 453.912212 542.543452 
L 454.547097 543.025033 
L 455.181981 540.735434 
L 455.816866 543.283918 
L 456.45175 540.365201 
L 457.721519 544.144084 
L 458.356404 542.525358 
L 458.991288 542.663151 
L 459.626173 542.006196 
L 460.261057 544.703609 
L 460.895942 542.585207 
L 461.530826 541.846133 
L 462.165711 544.075883 
L 462.800595 545.167096 
L 463.43548 544.217852 
L 464.070364 542.774499 
L 464.705249 542.777283 
L 465.340133 544.113463 
L 465.975018 542.72996 
L 466.609902 542.517007 
L 467.244787 540.561452 
L 467.879671 544.230379 
L 468.514556 543.676421 
L 469.14944 542.778675 
L 469.784325 543.530276 
L 471.054094 543.299228 
L 471.688978 542.356943 
L 472.323863 542.343025 
L 472.958747 544.631232 
L 473.593632 541.294959 
L 474.228516 543.810039 
L 474.863401 543.702866 
L 475.498285 544.755107 
L 476.13317 543.896334 
L 476.768055 543.361862 
L 477.402939 544.348686 
L 478.037824 543.862929 
L 478.672708 544.092585 
L 479.307593 542.640882 
L 479.942477 543.411969 
L 480.577362 543.874064 
L 481.212246 544.650718 
L 481.847131 544.428022 
L 482.482015 542.6548 
L 483.1169 542.967967 
L 483.751784 544.910995 
L 484.386669 543.87128 
L 485.021553 544.93744 
L 485.656438 544.877591 
L 486.291322 545.977155 
L 487.561091 543.572032 
L 488.195976 544.557464 
L 488.83086 546.48379 
L 489.465745 544.718919 
L 490.100629 543.512182 
L 490.735514 543.662502 
L 491.370398 546.08572 
L 492.005283 543.640233 
L 492.640167 546.269444 
L 493.275052 543.971494 
L 493.909936 544.396009 
L 494.544821 546.06345 
L 495.179705 546.860982 
L 495.81459 545.947926 
L 496.449474 545.914522 
L 497.084359 542.967967 
L 497.719244 543.791945 
L 498.354128 544.348686 
L 498.989013 544.721703 
L 499.623897 547.370401 
L 500.258782 542.12172 
L 500.893666 545.854672 
L 501.528551 544.212284 
L 502.163435 544.919346 
L 502.79832 542.663151 
L 503.433204 543.587342 
L 504.068089 545.328551 
L 504.702973 546.52137 
L 505.337858 546.759377 
L 505.972742 545.399536 
L 506.607627 545.985506 
L 507.242511 545.14761 
L 507.877396 545.114206 
L 508.51228 546.254134 
L 509.147165 545.956277 
L 509.782049 545.53037 
L 510.416934 545.290971 
L 511.051818 543.945049 
L 511.686703 547.718364 
L 512.321587 546.215162 
L 512.956472 545.701568 
L 513.591356 543.974277 
L 514.226241 545.457994 
L 514.861125 545.668164 
L 515.49601 546.002208 
L 516.130894 547.698878 
L 517.400663 544.774593 
L 518.035548 544.443332 
L 518.670433 547.335604 
L 519.940202 545.772553 
L 520.575086 546.571477 
L 521.209971 547.036356 
L 521.844855 546.728756 
L 522.47974 545.277053 
L 523.749509 545.851888 
L 524.384393 547.472006 
L 525.019278 546.245783 
L 525.654162 549.999613 
L 526.289047 547.199203 
L 526.923931 548.446304 
L 527.558816 546.880468 
L 528.1937 548.442128 
L 528.828585 544.835835 
L 529.463469 547.542991 
L 530.098354 548.00787 
L 530.733238 545.750283 
L 531.368123 548.247269 
L 532.003007 546.126083 
L 532.637892 548.094165 
L 533.272776 545.048789 
L 533.907661 547.310551 
L 534.542545 546.300065 
L 535.17743 546.674474 
L 535.812314 546.369658 
L 536.447199 546.869333 
L 537.082083 547.712797 
L 537.716968 547.439993 
L 538.351852 546.585395 
L 538.986737 547.576395 
L 539.621621 545.018168 
L 540.256506 545.829619 
L 540.891391 549.019747 
L 541.526275 547.971682 
L 542.16116 547.335604 
L 542.796044 547.664082 
L 543.430929 546.809484 
L 544.065813 546.899954 
L 544.700698 546.451777 
L 545.335582 548.229174 
L 545.970467 547.971682 
L 546.605351 546.706486 
L 547.240236 549.131096 
L 547.87512 548.874995 
L 548.510005 549.161717 
L 549.144889 548.92371 
L 549.779774 548.035707 
L 550.414658 547.966114 
L 551.049543 549.527774 
L 551.684427 547.128218 
L 552.319312 547.988384 
L 552.954196 546.8067 
L 553.589081 546.439251 
L 554.223965 548.707972 
L 554.85885 548.635596 
L 555.493734 548.265363 
L 556.128619 547.356482 
L 556.763503 548.680135 
L 557.398388 548.585489 
L 558.033272 550.301645 
L 558.668157 548.039882 
L 559.303041 548.763646 
L 559.937926 549.248011 
L 560.57281 546.771904 
L 561.207695 547.6098 
L 561.84258 547.506802 
L 562.477464 548.689878 
L 563.112349 548.831847 
L 563.747233 548.40594 
L 564.382118 548.297375 
L 565.017002 547.316118 
L 565.651887 547.605624 
L 566.286771 548.27093 
L 566.921656 548.112259 
L 567.55654 549.001653 
L 568.191425 550.607853 
L 568.826309 547.613975 
L 569.461194 547.772646 
L 570.096078 547.401021 
L 570.730963 547.225648 
L 571.365847 548.397589 
L 572.000732 548.680135 
L 572.635616 549.744903 
L 573.270501 549.83259 
L 573.905385 548.215256 
L 574.54027 548.784524 
L 575.175154 547.421899 
L 575.810039 550.19308 
L 576.444923 550.824982 
L 577.079808 548.469965 
L 577.714692 550.557746 
L 578.349577 548.92371 
L 578.984461 546.969547 
L 579.619346 551.518125 
L 580.25423 551.209133 
L 580.889115 548.2932 
L 582.158884 549.49437 
L 582.793768 549.781091 
L 583.428653 551.118663 
L 584.063538 550.181945 
L 584.698422 550.136014 
L 585.333307 547.359266 
L 585.968191 547.201986 
L 586.603076 549.572313 
L 587.23796 547.06976 
L 587.872845 550.456141 
L 588.507729 546.965371 
L 589.142614 549.959249 
L 589.142614 549.959249 
" clip-path="url(#paecf6e554e)" style="fill: none; stroke: #1f77b4; stroke-width: 1.5; stroke-linecap: square"/>
   </g>
   <g id="line2d_28">
    <path d="M 81.869886 149.21949 
L 82.504771 154.891294 
L 83.139655 152.033818 
L 83.77454 152.537669 
L 84.409424 154.852322 
L 85.044309 151.678895 
L 85.679193 155.644287 
L 86.948962 155.936576 
L 87.583847 157.336781 
L 88.218732 178.107415 
L 89.488501 188.137113 
L 90.123385 201.689594 
L 90.75827 200.114015 
L 91.393154 195.693488 
L 92.028039 212.909327 
L 92.662923 206.762901 
L 93.297808 213.311573 
L 93.932692 211.880747 
L 94.567577 223.857649 
L 95.202461 221.369014 
L 95.837346 212.789628 
L 96.47223 222.245882 
L 97.107115 220.07459 
L 97.741999 228.111154 
L 98.376884 228.338026 
L 99.011768 231.487791 
L 99.646653 237.852739 
L 100.281537 227.28996 
L 100.916422 252.659279 
L 101.551306 235.820632 
L 102.186191 209.605066 
L 102.821075 252.205535 
L 103.45596 242.566948 
L 104.090844 255.366435 
L 104.725729 253.995459 
L 105.360613 255.995553 
L 105.995498 264.460808 
L 106.630382 262.239409 
L 107.265267 257.667169 
L 107.900151 251.800506 
L 109.16992 278.206756 
L 109.804805 279.537368 
L 110.43969 292.609659 
L 111.074574 257.444473 
L 111.709459 284.152755 
L 112.344343 288.145984 
L 112.979228 271.123612 
L 113.614112 297.046889 
L 114.248997 303.097277 
L 114.883881 312.284904 
L 115.518766 304.760542 
L 116.15365 317.735403 
L 116.788535 285.406815 
L 117.423419 309.194988 
L 118.058304 321.748118 
L 118.693188 305.797473 
L 119.328073 316.943439 
L 119.962957 317.78551 
L 120.597842 327.266818 
L 121.232726 320.822535 
L 121.867611 307.047358 
L 122.502495 315.161866 
L 123.13738 332.967851 
L 123.772264 313.59603 
L 124.407149 298.900838 
L 125.042033 320.122433 
L 125.676918 322.673701 
L 126.311802 330.591957 
L 126.946687 303.873931 
L 127.581571 319.57265 
L 128.216456 327.421314 
L 128.85134 332.056187 
L 129.486225 317.344292 
L 130.121109 331.240561 
L 130.755994 351.295782 
L 132.025763 328.675374 
L 132.660648 334.748032 
L 133.295532 318.834968 
L 133.930417 314.28639 
L 134.565301 345.214773 
L 135.200186 320.462045 
L 135.83507 324.015448 
L 136.469955 343.408146 
L 137.104839 302.738179 
L 138.374608 345.314986 
L 139.009493 335.165588 
L 139.644377 316.165392 
L 140.279262 320.890736 
L 140.914146 343.168748 
L 141.549031 328.771412 
L 142.183915 330.907908 
L 142.8188 333.578875 
L 143.453684 329.731791 
L 144.088569 337.338272 
L 144.723453 351.210879 
L 145.358338 343.142302 
L 145.993222 352.086355 
L 146.628107 356.504099 
L 147.262991 329.940569 
L 147.897876 346.013697 
L 148.53276 347.771608 
L 149.167645 340.425404 
L 149.802529 314.319794 
L 151.072298 343.390052 
L 151.707183 336.112049 
L 152.342067 347.155017 
L 152.976952 346.177935 
L 153.611837 352.87136 
L 154.246721 328.449894 
L 154.881606 350.718163 
L 155.51649 358.455478 
L 156.151375 324.620904 
L 156.786259 308.688354 
L 157.421144 365.588728 
L 158.056028 337.615251 
L 158.690913 332.856503 
L 159.325797 357.116514 
L 159.960682 348.264324 
L 160.595566 348.243447 
L 161.230451 370.330774 
L 161.865335 350.043113 
L 162.50022 364.923422 
L 163.135104 259.16898 
L 163.769989 324.427436 
L 164.404873 334.586577 
L 165.039758 359.588447 
L 165.674642 322.792008 
L 166.309527 329.485433 
L 166.944411 346.587141 
L 167.579296 344.49936 
L 168.21418 352.972966 
L 168.849065 347.678354 
L 169.483949 331.996337 
L 170.118834 365.336803 
L 170.753718 319.863548 
L 171.388603 364.106404 
L 172.023487 321.706362 
L 172.658372 368.865152 
L 173.293256 355.012031 
L 173.928141 352.26312 
L 174.563026 367.897814 
L 175.19791 355.830442 
L 175.832795 348.098694 
L 176.467679 360.909316 
L 177.102564 352.659799 
L 177.737448 362.562838 
L 178.372333 357.475613 
L 179.007217 332.470959 
L 179.642102 352.431535 
L 180.276986 351.174691 
L 180.911871 345.555777 
L 181.546755 353.046734 
L 182.18164 362.643566 
L 182.816524 349.444616 
L 183.451409 349.725771 
L 184.086293 350.900495 
L 184.721178 348.489805 
L 185.356062 344.264137 
L 185.990947 331.773641 
L 186.625831 368.053702 
L 187.260716 371.203467 
L 187.8956 342.368432 
L 189.165369 364.888626 
L 189.800254 337.428743 
L 190.435138 336.288814 
L 191.070023 366.425233 
L 191.704907 339.797678 
L 192.339792 369.868679 
L 192.974676 367.064093 
L 193.609561 372.570267 
L 194.87933 332.491837 
L 195.514215 354.751755 
L 196.149099 329.301708 
L 196.783984 324.348101 
L 197.418868 373.81876 
L 198.053753 336.485066 
L 198.688637 327.529878 
L 199.323522 383.18872 
L 199.958406 375.115968 
L 200.593291 353.895765 
L 201.228175 359.716497 
L 201.86306 372.141576 
L 202.497944 347.065938 
L 203.132829 348.279635 
L 203.767713 352.51087 
L 204.402598 337.556793 
L 205.037482 367.903381 
L 205.672367 374.868218 
L 206.307251 333.720844 
L 206.942136 326.955043 
L 207.57702 348.626206 
L 208.846789 360.450004 
L 209.481674 334.1384 
L 210.116558 319.539246 
L 210.751443 356.778294 
L 211.386327 359.257186 
L 212.021212 351.912373 
L 212.656096 334.632508 
L 213.290981 353.077355 
L 213.925865 357.837495 
L 214.56075 345.237042 
L 215.195634 352.672325 
L 215.830519 307.570695 
L 216.465403 364.361113 
L 217.100288 349.993007 
L 217.735173 344.035873 
L 218.370057 366.511528 
L 219.004942 350.439792 
L 219.639826 331.236385 
L 220.274711 356.238255 
L 220.909595 353.187311 
L 221.54448 343.661464 
L 222.179364 366.497609 
L 222.814249 369.093416 
L 223.449133 368.858193 
L 224.084018 344.708138 
L 224.718902 371.454 
L 225.353787 347.753514 
L 225.988671 366.110674 
L 226.623556 369.61397 
L 227.25844 344.695611 
L 227.893325 371.538903 
L 228.528209 360.575271 
L 229.163094 381.029954 
L 229.797978 368.545026 
L 230.432863 342.738665 
L 231.067747 356.292537 
L 231.702632 381.046657 
L 232.337516 357.073367 
L 232.972401 352.979925 
L 234.24217 370.133131 
L 234.877054 360.745077 
L 235.511939 362.007489 
L 236.146823 362.487678 
L 236.781708 334.732722 
L 237.416592 342.524319 
L 238.051477 387.770702 
L 238.686362 338.016105 
L 239.321246 339.119845 
L 239.956131 365.297831 
L 240.591015 325.048203 
L 241.2259 347.793878 
L 241.860784 383.227692 
L 242.495669 341.779678 
L 243.130553 341.245206 
L 243.765438 372.638468 
L 244.400322 376.389514 
L 245.035207 315.056085 
L 245.670091 376.080522 
L 246.304976 368.256912 
L 246.93986 372.879259 
L 247.574745 351.642353 
L 248.209629 344.532764 
L 248.844514 350.409171 
L 249.479398 351.366766 
L 250.114283 383.396106 
L 250.749167 313.422048 
L 251.384052 339.072522 
L 252.018936 292.975716 
L 252.653821 361.609418 
L 253.288705 346.101384 
L 253.92359 351.194177 
L 254.558474 340.192964 
L 255.193359 376.954606 
L 255.828243 334.542038 
L 256.463128 305.766853 
L 257.098012 363.929639 
L 257.732897 375.164683 
L 258.367781 368.414192 
L 259.002666 349.088302 
L 259.63755 360.213389 
L 260.272435 354.864495 
L 260.90732 368.474041 
L 261.542204 363.434139 
L 262.177089 372.204209 
L 262.811973 332.78691 
L 263.446858 379.146776 
L 264.081742 338.308394 
L 264.716627 352.265904 
L 265.351511 342.15687 
L 265.986396 356.029477 
L 266.62128 380.453727 
L 267.256165 365.488515 
L 267.891049 360.484801 
L 268.525934 354.522099 
L 269.160818 371.135266 
L 269.795703 346.769473 
L 270.430587 365.179523 
L 271.065472 377.413918 
L 271.700356 336.155196 
L 272.335241 356.671121 
L 272.970125 373.054632 
L 273.60501 345.429118 
L 274.874779 376.228059 
L 275.509663 380.182315 
L 276.144548 358.125608 
L 276.779432 369.740628 
L 277.414317 313.593246 
L 278.049201 362.626864 
L 278.684086 391.459115 
L 279.31897 368.668901 
L 279.953855 367.878328 
L 280.588739 373.182683 
L 281.223624 370.045444 
L 281.858509 320.649945 
L 282.493393 367.393963 
L 283.128278 368.944488 
L 283.763162 373.907839 
L 284.398047 339.126804 
L 285.032931 361.979652 
L 285.667816 329.364342 
L 286.3027 349.422347 
L 286.937585 353.372428 
L 287.572469 362.448706 
L 288.207354 368.08293 
L 288.842238 354.247904 
L 289.477123 352.66119 
L 290.112007 386.291162 
L 290.746892 347.476535 
L 291.381776 354.338374 
L 292.016661 358.707403 
L 292.651545 337.044591 
L 293.28643 358.422073 
L 293.921314 291.940177 
L 294.556199 359.850115 
L 295.191083 372.923798 
L 295.825968 356.254957 
L 296.460852 325.810939 
L 297.095737 364.851046 
L 297.730621 361.574622 
L 298.365506 382.38562 
L 299.00039 338.721775 
L 300.905044 372.657954 
L 301.539928 364.812074 
L 302.174813 367.839356 
L 302.809697 349.473845 
L 303.444582 340.589643 
L 304.079467 371.037836 
L 304.714351 365.849005 
L 305.349236 356.402493 
L 305.98412 356.313415 
L 306.619005 349.99579 
L 307.253889 368.582606 
L 307.888774 326.303655 
L 308.523658 313.541748 
L 309.158543 357.662121 
L 309.793427 362.472368 
L 310.428312 331.729101 
L 311.063196 368.823397 
L 311.698081 327.194442 
L 312.332965 359.486841 
L 312.96785 358.685134 
L 313.602734 380.263043 
L 314.237619 350.643002 
L 314.872503 343.753326 
L 315.507388 362.976219 
L 316.142272 361.267022 
L 316.777157 357.059448 
L 317.412041 344.902997 
L 318.046926 364.661754 
L 318.68181 364.482205 
L 319.316695 336.043848 
L 319.951579 364.814858 
L 320.586464 339.412134 
L 321.221348 353.89994 
L 321.856233 357.539638 
L 322.491117 369.439988 
L 323.126002 368.723183 
L 323.760886 352.85605 
L 324.395771 342.195842 
L 325.030656 369.92992 
L 325.66554 374.669183 
L 326.300425 373.63086 
L 326.935309 366.675766 
L 327.570194 363.211442 
L 328.205078 353.245769 
L 328.839963 368.152523 
L 329.474847 342.248732 
L 330.109732 344.58983 
L 330.744616 352.506695 
L 331.379501 353.240202 
L 332.014385 373.956553 
L 332.64927 366.398787 
L 333.284154 377.675587 
L 333.919039 359.621851 
L 334.553923 351.145462 
L 335.188808 385.9599 
L 335.823692 357.96137 
L 336.458577 364.742481 
L 337.093461 348.992264 
L 337.728346 377.28726 
L 338.36323 388.468021 
L 338.998115 345.852242 
L 339.632999 358.662864 
L 340.267884 339.523483 
L 340.902768 379.628358 
L 341.537653 271.072113 
L 342.172537 369.190846 
L 342.807422 361.596892 
L 343.442306 377.053428 
L 344.077191 343.909214 
L 344.712075 381.920741 
L 345.34696 362.372154 
L 345.981844 379.993023 
L 346.616729 361.812629 
L 347.251614 377.880189 
L 347.886498 366.934651 
L 348.521383 380.565075 
L 349.156267 322.666741 
L 349.791152 343.79369 
L 350.426036 381.586696 
L 351.060921 333.03466 
L 351.695805 320.769645 
L 352.33069 346.385322 
L 352.965574 380.645803 
L 353.600459 372.103996 
L 354.235343 351.650705 
L 354.870228 369.094808 
L 355.505112 377.622696 
L 356.139997 370.183238 
L 356.774881 351.941602 
L 357.409766 344.617667 
L 358.04465 375.953864 
L 358.679535 351.748134 
L 359.314419 372.287721 
L 359.949304 340.790069 
L 360.584188 376.756963 
L 361.219073 323.789967 
L 361.853957 345.239826 
L 362.488842 357.699701 
L 363.123726 333.255965 
L 363.758611 357.355913 
L 365.02838 368.461515 
L 365.663264 277.952046 
L 366.298149 340.897242 
L 366.933033 329.969798 
L 367.567918 397.310468 
L 368.202803 334.056281 
L 368.837687 331.493878 
L 369.472572 314.965614 
L 370.107456 360.580839 
L 370.742341 379.826001 
L 371.377225 359.836197 
L 372.01211 366.249859 
L 373.281879 343.628059 
L 373.916763 358.988558 
L 374.551648 322.026489 
L 375.186532 356.691999 
L 375.821417 347.909402 
L 376.456301 357.034395 
L 377.72607 380.743232 
L 378.360955 341.708693 
L 378.995839 353.833131 
L 379.630724 355.275092 
L 380.265608 350.569234 
L 380.900493 358.690701 
L 381.535377 352.522005 
L 382.170262 338.705073 
L 382.805146 375.629562 
L 383.440031 374.218222 
L 384.074915 358.452694 
L 384.7098 379.210801 
L 385.344684 373.575185 
L 385.979569 384.961941 
L 386.614453 375.186952 
L 387.249338 342.673248 
L 387.884222 360.451396 
L 388.519107 368.693954 
L 389.153991 359.833413 
L 389.788876 346.833499 
L 391.058645 386.504115 
L 391.69353 344.198719 
L 392.328414 350.058424 
L 392.963299 371.920271 
L 393.598183 337.350799 
L 394.233068 348.83916 
L 394.867952 346.002562 
L 395.502837 346.328256 
L 396.772606 337.215789 
L 397.40749 349.212177 
L 398.042375 340.04682 
L 398.677259 378.509307 
L 399.312144 384.181111 
L 399.947028 363.166903 
L 400.581913 365.432841 
L 401.216797 335.829503 
L 401.851682 370.874989 
L 403.121451 323.58954 
L 403.756335 294.054403 
L 404.39122 367.208846 
L 405.026104 362.941423 
L 405.660989 373.568226 
L 406.295873 348.53852 
L 406.930758 355.794253 
L 407.565642 397.613892 
L 408.200527 345.512629 
L 408.835411 354.70304 
L 409.470296 330.122902 
L 410.10518 354.068355 
L 410.740065 361.022056 
L 411.37495 314.623218 
L 412.009834 341.246598 
L 412.644719 354.346725 
L 413.279603 293.197021 
L 413.914488 346.743028 
L 414.549372 356.973153 
L 415.184257 359.660823 
L 415.819141 350.098788 
L 416.454026 343.927308 
L 417.08891 343.765853 
L 417.723795 354.490086 
L 418.358679 351.052207 
L 418.993564 334.377799 
L 419.628448 362.399991 
L 420.263333 357.815225 
L 420.898217 368.464298 
L 421.533102 360.129878 
L 422.167986 374.47989 
L 422.802871 368.195671 
L 423.437755 335.49685 
L 424.07264 391.150123 
L 424.707524 372.822193 
L 425.342409 365.851789 
L 425.977293 379.675681 
L 426.612178 374.46458 
L 427.247062 372.314166 
L 427.881947 358.270361 
L 428.516831 351.670191 
L 429.151716 368.764939 
L 429.7866 298.142278 
L 430.421485 361.95599 
L 432.326138 372.014917 
L 432.961023 333.887867 
L 433.595908 376.713816 
L 434.230792 360.823021 
L 434.865677 341.307839 
L 435.500561 375.296909 
L 436.135446 317.693648 
L 436.77033 358.273145 
L 437.405215 337.44962 
L 438.040099 345.494535 
L 438.674984 367.503919 
L 439.309868 375.111792 
L 439.944753 353.670284 
L 440.579637 349.902536 
L 441.214522 318.351995 
L 441.849406 373.114482 
L 442.484291 380.025036 
L 443.119175 343.014252 
L 443.75406 356.891034 
L 444.388944 313.163164 
L 445.023829 346.336607 
L 445.658713 369.909043 
L 446.293598 346.186287 
L 446.928482 353.08849 
L 447.563367 357.517368 
L 448.198251 366.053608 
L 448.833136 338.852609 
L 449.46802 334.320733 
L 450.102905 365.096012 
L 450.737789 380.435633 
L 451.372674 370.83045 
L 452.007558 375.6059 
L 452.642443 371.509674 
L 453.277327 352.352199 
L 453.912212 327.886193 
L 454.547097 354.078098 
L 455.181981 373.295423 
L 455.816866 362.121621 
L 456.45175 360.092298 
L 457.086635 355.983545 
L 457.721519 363.599769 
L 458.991288 302.61152 
L 459.626173 371.811707 
L 460.261057 334.636684 
L 460.895942 362.633823 
L 461.530826 314.375468 
L 462.165711 328.834045 
L 462.800595 370.355828 
L 463.43548 350.470413 
L 464.070364 363.098702 
L 464.705249 366.546324 
L 465.340133 366.671591 
L 465.975018 365.219887 
L 466.609902 376.122278 
L 467.244787 355.19854 
L 467.879671 358.320468 
L 468.514556 384.838066 
L 469.784325 358.70462 
L 470.419209 385.790094 
L 471.054094 382.274272 
L 471.688978 376.035983 
L 472.323863 361.134796 
L 472.958747 314.680284 
L 473.593632 369.342558 
L 474.228516 394.32355 
L 475.498285 337.030672 
L 476.13317 317.669986 
L 476.768055 355.659244 
L 477.402939 348.068073 
L 478.037824 346.5941 
L 478.672708 300.930161 
L 479.307593 358.98299 
L 479.942477 332.14109 
L 480.577362 358.008693 
L 481.212246 345.476441 
L 481.847131 350.409171 
L 482.482015 387.642652 
L 483.1169 366.906814 
L 483.751784 385.22361 
L 484.386669 317.415277 
L 485.021553 344.738759 
L 485.656438 363.551054 
L 486.291322 304.69095 
L 486.926207 368.048134 
L 487.561091 329.477082 
L 488.195976 368.380787 
L 488.83086 381.299974 
L 489.465745 346.978251 
L 490.100629 358.867466 
L 490.735514 351.139894 
L 492.005283 376.342191 
L 493.275052 355.474127 
L 493.909936 362.94699 
L 494.544821 339.107318 
L 495.179705 307.542858 
L 495.81459 364.266467 
L 496.449474 340.755273 
L 497.084359 341.495739 
L 497.719244 361.589933 
L 498.354128 363.865613 
L 498.989013 325.38364 
L 499.623897 380.267218 
L 500.258782 367.783682 
L 500.893666 346.365836 
L 501.528551 384.36762 
L 502.163435 376.869703 
L 502.79832 372.646819 
L 504.068089 340.012023 
L 504.702973 298.888311 
L 505.337858 354.149082 
L 505.972742 295.706533 
L 506.607627 363.759833 
L 507.242511 344.329554 
L 508.51228 364.020109 
L 509.147165 382.690436 
L 509.782049 369.151874 
L 510.416934 334.315166 
L 511.051818 361.255888 
L 511.686703 361.209956 
L 512.321587 369.89234 
L 512.956472 373.867475 
L 513.591356 382.897822 
L 514.226241 334.312382 
L 514.861125 345.383187 
L 515.49601 378.693032 
L 516.130894 362.72151 
L 516.765779 332.397191 
L 517.400663 321.060542 
L 518.035548 356.106029 
L 518.670433 381.984766 
L 519.305317 350.578977 
L 519.940202 386.583451 
L 520.575086 379.333285 
L 521.209971 366.557459 
L 521.844855 343.772812 
L 522.47974 370.720493 
L 523.114624 356.261916 
L 523.749509 351.405738 
L 524.384393 336.773179 
L 525.654162 372.140184 
L 526.289047 373.772829 
L 526.923931 373.601631 
L 527.558816 361.626121 
L 528.1937 342.927957 
L 528.828585 380.171181 
L 529.463469 347.749338 
L 530.098354 382.950713 
L 530.733238 345.327513 
L 531.368123 372.907096 
L 532.003007 336.944377 
L 532.637892 378.782111 
L 533.272776 363.221185 
L 533.907661 361.109743 
L 534.542545 368.362693 
L 535.17743 355.290402 
L 535.812314 384.098992 
L 536.447199 325.277859 
L 537.082083 379.852446 
L 537.716968 357.206985 
L 538.351852 339.471984 
L 538.986737 331.950406 
L 539.621621 376.431269 
L 540.256506 373.989958 
L 540.891391 329.70117 
L 541.526275 325.845735 
L 542.16116 376.354717 
L 542.796044 331.072146 
L 543.430929 337.939553 
L 544.065813 376.353326 
L 544.700698 385.572965 
L 545.335582 380.666681 
L 545.970467 388.604423 
L 546.605351 375.555793 
L 547.240236 353.783025 
L 547.87512 377.160601 
L 548.510005 386.026709 
L 549.144889 343.998292 
L 549.779774 333.080591 
L 550.414658 387.872308 
L 551.049543 303.979712 
L 551.684427 369.458082 
L 552.319312 343.381701 
L 552.954196 341.971753 
L 553.589081 347.205124 
L 554.223965 364.812074 
L 554.85885 356.804739 
L 555.493734 363.439706 
L 556.128619 371.895218 
L 556.763503 319.718795 
L 557.398388 332.873205 
L 558.033272 312.141543 
L 558.668157 358.856332 
L 559.303041 379.853838 
L 559.937926 352.666758 
L 560.57281 366.344505 
L 561.207695 349.824592 
L 561.84258 344.726232 
L 562.477464 364.710469 
L 563.112349 379.550414 
L 563.747233 380.151695 
L 564.382118 321.235916 
L 565.017002 360.802143 
L 565.651887 377.530834 
L 566.286771 375.264896 
L 566.921656 345.49036 
L 567.55654 383.209597 
L 568.191425 355.49918 
L 568.826309 346.331039 
L 569.461194 322.956247 
L 570.096078 292.123902 
L 570.730963 336.074469 
L 571.365847 360.83694 
L 572.000732 349.493331 
L 572.635616 387.932157 
L 573.270501 359.671958 
L 573.905385 358.60719 
L 574.54027 334.018701 
L 575.175154 369.417718 
L 575.810039 369.643199 
L 576.444923 266.381566 
L 577.079808 358.877209 
L 577.714692 357.38375 
L 578.349577 348.239271 
L 578.984461 375.585022 
L 579.619346 338.135804 
L 580.25423 339.751747 
L 580.889115 310.119179 
L 581.523999 350.407779 
L 582.158884 334.928973 
L 582.793768 369.886773 
L 583.428653 358.335778 
L 584.063538 360.578055 
L 584.698422 339.133763 
L 585.333307 362.522475 
L 585.968191 362.198173 
L 586.603076 328.763061 
L 587.23796 352.30766 
L 587.872845 338.705073 
L 588.507729 361.467449 
L 589.142614 372.355922 
L 589.142614 372.355922 
" clip-path="url(#paecf6e554e)" style="fill: none; stroke: #ff7f0e; stroke-width: 1.5; stroke-linecap: square"/>
   </g>
   <g id="patch_3">
    <path d="M 56.50625 576.718125 
L 56.50625 22.318125 
" style="fill: none; stroke: #000000; stroke-width: 0.8; stroke-linejoin: miter; stroke-linecap: square"/>
   </g>
   <g id="patch_4">
    <path d="M 614.50625 576.718125 
L 614.50625 22.318125 
" style="fill: none; stroke: #000000; stroke-width: 0.8; stroke-linejoin: miter; stroke-linecap: square"/>
   </g>
   <g id="patch_5">
    <path d="M 56.50625 576.718125 
L 614.50625 576.718125 
" style="fill: none; stroke: #000000; stroke-width: 0.8; stroke-linejoin: miter; stroke-linecap: square"/>
   </g>
   <g id="patch_6">
    <path d="M 56.50625 22.318125 
L 614.50625 22.318125 
" style="fill: none; stroke: #000000; stroke-width: 0.8; stroke-linejoin: miter; stroke-linecap: square"/>
   </g>
   <g id="text_16">
    <!-- Train and Val Loss -->
    <g transform="translate(281.960938 16.318125) scale(0.12 -0.12)">
     <defs>
      <path id="DejaVuSans-54" d="M -19 4666 
L 3928 4666 
L 3928 4134 
L 2272 4134 
L 2272 0 
L 1638 0 
L 1638 4134 
L -19 4134 
L -19 4666 
z
" transform="scale(0.015625)"/>
      <path id="DejaVuSans-72" d="M 2631 2963 
Q 2534 3019 2420 3045 
Q 2306 3072 2169 3072 
Q 1681 3072 1420 2755 
Q 1159 2438 1159 1844 
L 1159 0 
L 581 0 
L 581 3500 
L 1159 3500 
L 1159 2956 
Q 1341 3275 1631 3429 
Q 1922 3584 2338 3584 
Q 2397 3584 2469 3576 
Q 2541 3569 2628 3553 
L 2631 2963 
z
" transform="scale(0.015625)"/>
      <path id="DejaVuSans-61" d="M 2194 1759 
Q 1497 1759 1228 1600 
Q 959 1441 959 1056 
Q 959 750 1161 570 
Q 1363 391 1709 391 
Q 2188 391 2477 730 
Q 2766 1069 2766 1631 
L 2766 1759 
L 2194 1759 
z
M 3341 1997 
L 3341 0 
L 2766 0 
L 2766 531 
Q 2569 213 2275 61 
Q 1981 -91 1556 -91 
Q 1019 -91 701 211 
Q 384 513 384 1019 
Q 384 1609 779 1909 
Q 1175 2209 1959 2209 
L 2766 2209 
L 2766 2266 
Q 2766 2663 2505 2880 
Q 2244 3097 1772 3097 
Q 1472 3097 1187 3025 
Q 903 2953 641 2809 
L 641 3341 
Q 956 3463 1253 3523 
Q 1550 3584 1831 3584 
Q 2591 3584 2966 3190 
Q 3341 2797 3341 1997 
z
" transform="scale(0.015625)"/>
      <path id="DejaVuSans-69" d="M 603 3500 
L 1178 3500 
L 1178 0 
L 603 0 
L 603 3500 
z
M 603 4863 
L 1178 4863 
L 1178 4134 
L 603 4134 
L 603 4863 
z
" transform="scale(0.015625)"/>
      <path id="DejaVuSans-6e" d="M 3513 2113 
L 3513 0 
L 2938 0 
L 2938 2094 
Q 2938 2591 2744 2837 
Q 2550 3084 2163 3084 
Q 1697 3084 1428 2787 
Q 1159 2491 1159 1978 
L 1159 0 
L 581 0 
L 581 3500 
L 1159 3500 
L 1159 2956 
Q 1366 3272 1645 3428 
Q 1925 3584 2291 3584 
Q 2894 3584 3203 3211 
Q 3513 2838 3513 2113 
z
" transform="scale(0.015625)"/>
      <path id="DejaVuSans-20" transform="scale(0.015625)"/>
      <path id="DejaVuSans-64" d="M 2906 2969 
L 2906 4863 
L 3481 4863 
L 3481 0 
L 2906 0 
L 2906 525 
Q 2725 213 2448 61 
Q 2172 -91 1784 -91 
Q 1150 -91 751 415 
Q 353 922 353 1747 
Q 353 2572 751 3078 
Q 1150 3584 1784 3584 
Q 2172 3584 2448 3432 
Q 2725 3281 2906 2969 
z
M 947 1747 
Q 947 1113 1208 752 
Q 1469 391 1925 391 
Q 2381 391 2643 752 
Q 2906 1113 2906 1747 
Q 2906 2381 2643 2742 
Q 2381 3103 1925 3103 
Q 1469 3103 1208 2742 
Q 947 2381 947 1747 
z
" transform="scale(0.015625)"/>
      <path id="DejaVuSans-56" d="M 1831 0 
L 50 4666 
L 709 4666 
L 2188 738 
L 3669 4666 
L 4325 4666 
L 2547 0 
L 1831 0 
z
" transform="scale(0.015625)"/>
      <path id="DejaVuSans-6c" d="M 603 4863 
L 1178 4863 
L 1178 0 
L 603 0 
L 603 4863 
z
" transform="scale(0.015625)"/>
     </defs>
     <use xlink:href="#DejaVuSans-54"/>
     <use xlink:href="#DejaVuSans-72" transform="translate(46.333984 0)"/>
     <use xlink:href="#DejaVuSans-61" transform="translate(87.447266 0)"/>
     <use xlink:href="#DejaVuSans-69" transform="translate(148.726562 0)"/>
     <use xlink:href="#DejaVuSans-6e" transform="translate(176.509766 0)"/>
     <use xlink:href="#DejaVuSans-20" transform="translate(239.888672 0)"/>
     <use xlink:href="#DejaVuSans-61" transform="translate(271.675781 0)"/>
     <use xlink:href="#DejaVuSans-6e" transform="translate(332.955078 0)"/>
     <use xlink:href="#DejaVuSans-64" transform="translate(396.333984 0)"/>
     <use xlink:href="#DejaVuSans-20" transform="translate(459.810547 0)"/>
     <use xlink:href="#DejaVuSans-56" transform="translate(491.597656 0)"/>
     <use xlink:href="#DejaVuSans-61" transform="translate(552.255859 0)"/>
     <use xlink:href="#DejaVuSans-6c" transform="translate(613.535156 0)"/>
     <use xlink:href="#DejaVuSans-20" transform="translate(641.318359 0)"/>
     <use xlink:href="#DejaVuSans-4c" transform="translate(673.105469 0)"/>
     <use xlink:href="#DejaVuSans-6f" transform="translate(727.068359 0)"/>
     <use xlink:href="#DejaVuSans-73" transform="translate(788.25 0)"/>
     <use xlink:href="#DejaVuSans-73" transform="translate(840.349609 0)"/>
    </g>
   </g>
   <g id="legend_1">
    <g id="patch_7">
     <path d="M 527.915625 60.230625 
L 607.50625 60.230625 
Q 609.50625 60.230625 609.50625 58.230625 
L 609.50625 29.318125 
Q 609.50625 27.318125 607.50625 27.318125 
L 527.915625 27.318125 
Q 525.915625 27.318125 525.915625 29.318125 
L 525.915625 58.230625 
Q 525.915625 60.230625 527.915625 60.230625 
z
" style="fill: #ffffff; opacity: 0.8; stroke: #cccccc; stroke-linejoin: miter"/>
    </g>
    <g id="line2d_29">
     <path d="M 529.915625 35.416563 
L 539.915625 35.416563 
L 549.915625 35.416563 
" style="fill: none; stroke: #1f77b4; stroke-width: 1.5; stroke-linecap: square"/>
    </g>
    <g id="text_17">
     <!-- train_loss -->
     <g transform="translate(557.915625 38.916563) scale(0.1 -0.1)">
      <defs>
       <path id="DejaVuSans-74" d="M 1172 4494 
L 1172 3500 
L 2356 3500 
L 2356 3053 
L 1172 3053 
L 1172 1153 
Q 1172 725 1289 603 
Q 1406 481 1766 481 
L 2356 481 
L 2356 0 
L 1766 0 
Q 1100 0 847 248 
Q 594 497 594 1153 
L 594 3053 
L 172 3053 
L 172 3500 
L 594 3500 
L 594 4494 
L 1172 4494 
z
" transform="scale(0.015625)"/>
       <path id="DejaVuSans-5f" d="M 3263 -1063 
L 3263 -1509 
L -63 -1509 
L -63 -1063 
L 3263 -1063 
z
" transform="scale(0.015625)"/>
      </defs>
      <use xlink:href="#DejaVuSans-74"/>
      <use xlink:href="#DejaVuSans-72" transform="translate(39.208984 0)"/>
      <use xlink:href="#DejaVuSans-61" transform="translate(80.322266 0)"/>
      <use xlink:href="#DejaVuSans-69" transform="translate(141.601562 0)"/>
      <use xlink:href="#DejaVuSans-6e" transform="translate(169.384766 0)"/>
      <use xlink:href="#DejaVuSans-5f" transform="translate(232.763672 0)"/>
      <use xlink:href="#DejaVuSans-6c" transform="translate(282.763672 0)"/>
      <use xlink:href="#DejaVuSans-6f" transform="translate(310.546875 0)"/>
      <use xlink:href="#DejaVuSans-73" transform="translate(371.728516 0)"/>
      <use xlink:href="#DejaVuSans-73" transform="translate(423.828125 0)"/>
     </g>
    </g>
    <g id="line2d_30">
     <path d="M 529.915625 50.372813 
L 539.915625 50.372813 
L 549.915625 50.372813 
" style="fill: none; stroke: #ff7f0e; stroke-width: 1.5; stroke-linecap: square"/>
    </g>
    <g id="text_18">
     <!-- val_loss -->
     <g transform="translate(557.915625 53.872813) scale(0.1 -0.1)">
      <defs>
       <path id="DejaVuSans-76" d="M 191 3500 
L 800 3500 
L 1894 563 
L 2988 3500 
L 3597 3500 
L 2284 0 
L 1503 0 
L 191 3500 
z
" transform="scale(0.015625)"/>
      </defs>
      <use xlink:href="#DejaVuSans-76"/>
      <use xlink:href="#DejaVuSans-61" transform="translate(59.179688 0)"/>
      <use xlink:href="#DejaVuSans-6c" transform="translate(120.458984 0)"/>
      <use xlink:href="#DejaVuSans-5f" transform="translate(148.242188 0)"/>
      <use xlink:href="#DejaVuSans-6c" transform="translate(198.242188 0)"/>
      <use xlink:href="#DejaVuSans-6f" transform="translate(226.025391 0)"/>
      <use xlink:href="#DejaVuSans-73" transform="translate(287.207031 0)"/>
      <use xlink:href="#DejaVuSans-73" transform="translate(339.306641 0)"/>
     </g>
    </g>
   </g>
  </g>
 </g>
 <defs>
  <clipPath id="paecf6e554e">
   <rect x="56.50625" y="22.318125" width="558" height="554.4"/>
  </clipPath>
 </defs>
</svg>
