<?xml version="1.0" encoding="utf-8" standalone="no"?>
<!DOCTYPE svg PUBLIC "-//W3C//DTD SVG 1.1//EN"
  "http://www.w3.org/Graphics/SVG/1.1/DTD/svg11.dtd">
<svg xmlns:xlink="http://www.w3.org/1999/xlink" width="615.34375pt" height="614.274375pt" viewBox="0 0 615.34375 614.274375" xmlns="http://www.w3.org/2000/svg" version="1.1">
 <metadata>
  <rdf:RDF xmlns:dc="http://purl.org/dc/elements/1.1/" xmlns:cc="http://creativecommons.org/ns#" xmlns:rdf="http://www.w3.org/1999/02/22-rdf-syntax-ns#">
   <cc:Work>
    <dc:type rdf:resource="http://purl.org/dc/dcmitype/StillImage"/>
    <dc:date>2026-05-22T09:38:37.843914</dc:date>
    <dc:format>image/svg+xml</dc:format>
    <dc:creator>
     <cc:Agent>
      <dc:title>Matplotlib v3.10.9, https://matplotlib.org/</dc:title>
     </cc:Agent>
    </dc:creator>
   </cc:Work>
  </rdf:RDF>
 </metadata>
 <defs>
  <style type="text/css">*{stroke-linejoin: round; stroke-linecap: butt}</style>
 </defs>
 <g id="figure_1">
  <g id="patch_1">
   <path d="M 0 614.274375 
L 615.34375 614.274375 
L 615.34375 0 
L 0 0 
z
" style="fill: #ffffff"/>
  </g>
  <g id="axes_1">
   <g id="patch_2">
    <path d="M 50.14375 576.718125 
L 608.14375 576.718125 
L 608.14375 22.318125 
L 50.14375 22.318125 
z
" style="fill: #ffffff"/>
   </g>
   <g id="matplotlib.axis_1">
    <g id="xtick_1">
     <g id="line2d_1">
      <path d="M 75.507386 576.718125 
L 75.507386 22.318125 
" clip-path="url(#p2e7c003a14)" style="fill: none; stroke: #b0b0b0; stroke-width: 0.8; stroke-linecap: square"/>
     </g>
     <g id="line2d_2">
      <defs>
       <path id="m76788acfbe" d="M 0 0 
L 0 3.5 
" style="stroke: #000000; stroke-width: 0.8"/>
      </defs>
      <g>
       <use xlink:href="#m76788acfbe" x="75.507386" y="576.718125" style="stroke: #000000; stroke-width: 0.8"/>
      </g>
     </g>
     <g id="text_1">
      <!-- 0 -->
      <g transform="translate(72.326136 591.316563) scale(0.1 -0.1)">
       <defs>
        <path id="DejaVuSans-30" d="M 2034 4250 
Q 1547 4250 1301 3770 
Q 1056 3291 1056 2328 
Q 1056 1369 1301 889 
Q 1547 409 2034 409 
Q 2525 409 2770 889 
Q 3016 1369 3016 2328 
Q 3016 3291 2770 3770 
Q 2525 4250 2034 4250 
z
M 2034 4750 
Q 2819 4750 3233 4129 
Q 3647 3509 3647 2328 
Q 3647 1150 3233 529 
Q 2819 -91 2034 -91 
Q 1250 -91 836 529 
Q 422 1150 422 2328 
Q 422 3509 836 4129 
Q 1250 4750 2034 4750 
z
" transform="scale(0.015625)"/>
       </defs>
       <use xlink:href="#DejaVuSans-30"/>
      </g>
     </g>
    </g>
    <g id="xtick_2">
     <g id="line2d_3">
      <path d="M 138.995838 576.718125 
L 138.995838 22.318125 
" clip-path="url(#p2e7c003a14)" style="fill: none; stroke: #b0b0b0; stroke-width: 0.8; stroke-linecap: square"/>
     </g>
     <g id="line2d_4">
      <g>
       <use xlink:href="#m76788acfbe" x="138.995838" y="576.718125" style="stroke: #000000; stroke-width: 0.8"/>
      </g>
     </g>
     <g id="text_2">
      <!-- 100 -->
      <g transform="translate(129.452088 591.316563) scale(0.1 -0.1)">
       <defs>
        <path id="DejaVuSans-31" d="M 794 531 
L 1825 531 
L 1825 4091 
L 703 3866 
L 703 4441 
L 1819 4666 
L 2450 4666 
L 2450 531 
L 3481 531 
L 3481 0 
L 794 0 
L 794 531 
z
" transform="scale(0.015625)"/>
       </defs>
       <use xlink:href="#DejaVuSans-31"/>
       <use xlink:href="#DejaVuSans-30" transform="translate(63.623047 0)"/>
       <use xlink:href="#DejaVuSans-30" transform="translate(127.246094 0)"/>
      </g>
     </g>
    </g>
    <g id="xtick_3">
     <g id="line2d_5">
      <path d="M 202.484289 576.718125 
L 202.484289 22.318125 
" clip-path="url(#p2e7c003a14)" style="fill: none; stroke: #b0b0b0; stroke-width: 0.8; stroke-linecap: square"/>
     </g>
     <g id="line2d_6">
      <g>
       <use xlink:href="#m76788acfbe" x="202.484289" y="576.718125" style="stroke: #000000; stroke-width: 0.8"/>
      </g>
     </g>
     <g id="text_3">
      <!-- 200 -->
      <g transform="translate(192.940539 591.316563) scale(0.1 -0.1)">
       <defs>
        <path id="DejaVuSans-32" d="M 1228 531 
L 3431 531 
L 3431 0 
L 469 0 
L 469 531 
Q 828 903 1448 1529 
Q 2069 2156 2228 2338 
Q 2531 2678 2651 2914 
Q 2772 3150 2772 3378 
Q 2772 3750 2511 3984 
Q 2250 4219 1831 4219 
Q 1534 4219 1204 4116 
Q 875 4013 500 3803 
L 500 4441 
Q 881 4594 1212 4672 
Q 1544 4750 1819 4750 
Q 2544 4750 2975 4387 
Q 3406 4025 3406 3419 
Q 3406 3131 3298 2873 
Q 3191 2616 2906 2266 
Q 2828 2175 2409 1742 
Q 1991 1309 1228 531 
z
" transform="scale(0.015625)"/>
       </defs>
       <use xlink:href="#DejaVuSans-32"/>
       <use xlink:href="#DejaVuSans-30" transform="translate(63.623047 0)"/>
       <use xlink:href="#DejaVuSans-30" transform="translate(127.246094 0)"/>
      </g>
     </g>
    </g>
    <g id="xtick_4">
     <g id="line2d_7">
      <path d="M 265.972741 576.718125 
L 265.972741 22.318125 
" clip-path="url(#p2e7c003a14)" style="fill: none; stroke: #b0b0b0; stroke-width: 0.8; stroke-linecap: square"/>
     </g>
     <g id="line2d_8">
      <g>
       <use xlink:href="#m76788acfbe" x="265.972741" y="576.718125" style="stroke: #000000; stroke-width: 0.8"/>
      </g>
     </g>
     <g id="text_4">
      <!-- 300 -->
      <g transform="translate(256.428991 591.316563) scale(0.1 -0.1)">
       <defs>
        <path id="DejaVuSans-33" d="M 2597 2516 
Q 3050 2419 3304 2112 
Q 3559 1806 3559 1356 
Q 3559 666 3084 287 
Q 2609 -91 1734 -91 
Q 1441 -91 1130 -33 
Q 819 25 488 141 
L 488 750 
Q 750 597 1062 519 
Q 1375 441 1716 441 
Q 2309 441 2620 675 
Q 2931 909 2931 1356 
Q 2931 1769 2642 2001 
Q 2353 2234 1838 2234 
L 1294 2234 
L 1294 2753 
L 1863 2753 
Q 2328 2753 2575 2939 
Q 2822 3125 2822 3475 
Q 2822 3834 2567 4026 
Q 2313 4219 1838 4219 
Q 1578 4219 1281 4162 
Q 984 4106 628 3988 
L 628 4550 
Q 988 4650 1302 4700 
Q 1616 4750 1894 4750 
Q 2613 4750 3031 4423 
Q 3450 4097 3450 3541 
Q 3450 3153 3228 2886 
Q 3006 2619 2597 2516 
z
" transform="scale(0.015625)"/>
       </defs>
       <use xlink:href="#DejaVuSans-33"/>
       <use xlink:href="#DejaVuSans-30" transform="translate(63.623047 0)"/>
       <use xlink:href="#DejaVuSans-30" transform="translate(127.246094 0)"/>
      </g>
     </g>
    </g>
    <g id="xtick_5">
     <g id="line2d_9">
      <path d="M 329.461192 576.718125 
L 329.461192 22.318125 
" clip-path="url(#p2e7c003a14)" style="fill: none; stroke: #b0b0b0; stroke-width: 0.8; stroke-linecap: square"/>
     </g>
     <g id="line2d_10">
      <g>
       <use xlink:href="#m76788acfbe" x="329.461192" y="576.718125" style="stroke: #000000; stroke-width: 0.8"/>
      </g>
     </g>
     <g id="text_5">
      <!-- 400 -->
      <g transform="translate(319.917442 591.316563) scale(0.1 -0.1)">
       <defs>
        <path id="DejaVuSans-34" d="M 2419 4116 
L 825 1625 
L 2419 1625 
L 2419 4116 
z
M 2253 4666 
L 3047 4666 
L 3047 1625 
L 3713 1625 
L 3713 1100 
L 3047 1100 
L 3047 0 
L 2419 0 
L 2419 1100 
L 313 1100 
L 313 1709 
L 2253 4666 
z
" transform="scale(0.015625)"/>
       </defs>
       <use xlink:href="#DejaVuSans-34"/>
       <use xlink:href="#DejaVuSans-30" transform="translate(63.623047 0)"/>
       <use xlink:href="#DejaVuSans-30" transform="translate(127.246094 0)"/>
      </g>
     </g>
    </g>
    <g id="xtick_6">
     <g id="line2d_11">
      <path d="M 392.949644 576.718125 
L 392.949644 22.318125 
" clip-path="url(#p2e7c003a14)" style="fill: none; stroke: #b0b0b0; stroke-width: 0.8; stroke-linecap: square"/>
     </g>
     <g id="line2d_12">
      <g>
       <use xlink:href="#m76788acfbe" x="392.949644" y="576.718125" style="stroke: #000000; stroke-width: 0.8"/>
      </g>
     </g>
     <g id="text_6">
      <!-- 500 -->
      <g transform="translate(383.405894 591.316563) scale(0.1 -0.1)">
       <defs>
        <path id="DejaVuSans-35" d="M 691 4666 
L 3169 4666 
L 3169 4134 
L 1269 4134 
L 1269 2991 
Q 1406 3038 1543 3061 
Q 1681 3084 1819 3084 
Q 2600 3084 3056 2656 
Q 3513 2228 3513 1497 
Q 3513 744 3044 326 
Q 2575 -91 1722 -91 
Q 1428 -91 1123 -41 
Q 819 9 494 109 
L 494 744 
Q 775 591 1075 516 
Q 1375 441 1709 441 
Q 2250 441 2565 725 
Q 2881 1009 2881 1497 
Q 2881 1984 2565 2268 
Q 2250 2553 1709 2553 
Q 1456 2553 1204 2497 
Q 953 2441 691 2322 
L 691 4666 
z
" transform="scale(0.015625)"/>
       </defs>
       <use xlink:href="#DejaVuSans-35"/>
       <use xlink:href="#DejaVuSans-30" transform="translate(63.623047 0)"/>
       <use xlink:href="#DejaVuSans-30" transform="translate(127.246094 0)"/>
      </g>
     </g>
    </g>
    <g id="xtick_7">
     <g id="line2d_13">
      <path d="M 456.438095 576.718125 
L 456.438095 22.318125 
" clip-path="url(#p2e7c003a14)" style="fill: none; stroke: #b0b0b0; stroke-width: 0.8; stroke-linecap: square"/>
     </g>
     <g id="line2d_14">
      <g>
       <use xlink:href="#m76788acfbe" x="456.438095" y="576.718125" style="stroke: #000000; stroke-width: 0.8"/>
      </g>
     </g>
     <g id="text_7">
      <!-- 600 -->
      <g transform="translate(446.894345 591.316563) scale(0.1 -0.1)">
       <defs>
        <path id="DejaVuSans-36" d="M 2113 2584 
Q 1688 2584 1439 2293 
Q 1191 2003 1191 1497 
Q 1191 994 1439 701 
Q 1688 409 2113 409 
Q 2538 409 2786 701 
Q 3034 994 3034 1497 
Q 3034 2003 2786 2293 
Q 2538 2584 2113 2584 
z
M 3366 4563 
L 3366 3988 
Q 3128 4100 2886 4159 
Q 2644 4219 2406 4219 
Q 1781 4219 1451 3797 
Q 1122 3375 1075 2522 
Q 1259 2794 1537 2939 
Q 1816 3084 2150 3084 
Q 2853 3084 3261 2657 
Q 3669 2231 3669 1497 
Q 3669 778 3244 343 
Q 2819 -91 2113 -91 
Q 1303 -91 875 529 
Q 447 1150 447 2328 
Q 447 3434 972 4092 
Q 1497 4750 2381 4750 
Q 2619 4750 2861 4703 
Q 3103 4656 3366 4563 
z
" transform="scale(0.015625)"/>
       </defs>
       <use xlink:href="#DejaVuSans-36"/>
       <use xlink:href="#DejaVuSans-30" transform="translate(63.623047 0)"/>
       <use xlink:href="#DejaVuSans-30" transform="translate(127.246094 0)"/>
      </g>
     </g>
    </g>
    <g id="xtick_8">
     <g id="line2d_15">
      <path d="M 519.926547 576.718125 
L 519.926547 22.318125 
" clip-path="url(#p2e7c003a14)" style="fill: none; stroke: #b0b0b0; stroke-width: 0.8; stroke-linecap: square"/>
     </g>
     <g id="line2d_16">
      <g>
       <use xlink:href="#m76788acfbe" x="519.926547" y="576.718125" style="stroke: #000000; stroke-width: 0.8"/>
      </g>
     </g>
     <g id="text_8">
      <!-- 700 -->
      <g transform="translate(510.382797 591.316563) scale(0.1 -0.1)">
       <defs>
        <path id="DejaVuSans-37" d="M 525 4666 
L 3525 4666 
L 3525 4397 
L 1831 0 
L 1172 0 
L 2766 4134 
L 525 4134 
L 525 4666 
z
" transform="scale(0.015625)"/>
       </defs>
       <use xlink:href="#DejaVuSans-37"/>
       <use xlink:href="#DejaVuSans-30" transform="translate(63.623047 0)"/>
       <use xlink:href="#DejaVuSans-30" transform="translate(127.246094 0)"/>
      </g>
     </g>
    </g>
    <g id="xtick_9">
     <g id="line2d_17">
      <path d="M 583.414998 576.718125 
L 583.414998 22.318125 
" clip-path="url(#p2e7c003a14)" style="fill: none; stroke: #b0b0b0; stroke-width: 0.8; stroke-linecap: square"/>
     </g>
     <g id="line2d_18">
      <g>
       <use xlink:href="#m76788acfbe" x="583.414998" y="576.718125" style="stroke: #000000; stroke-width: 0.8"/>
      </g>
     </g>
     <g id="text_9">
      <!-- 800 -->
      <g transform="translate(573.871248 591.316563) scale(0.1 -0.1)">
       <defs>
        <path id="DejaVuSans-38" d="M 2034 2216 
Q 1584 2216 1326 1975 
Q 1069 1734 1069 1313 
Q 1069 891 1326 650 
Q 1584 409 2034 409 
Q 2484 409 2743 651 
Q 3003 894 3003 1313 
Q 3003 1734 2745 1975 
Q 2488 2216 2034 2216 
z
M 1403 2484 
Q 997 2584 770 2862 
Q 544 3141 544 3541 
Q 544 4100 942 4425 
Q 1341 4750 2034 4750 
Q 2731 4750 3128 4425 
Q 3525 4100 3525 3541 
Q 3525 3141 3298 2862 
Q 3072 2584 2669 2484 
Q 3125 2378 3379 2068 
Q 3634 1759 3634 1313 
Q 3634 634 3220 271 
Q 2806 -91 2034 -91 
Q 1263 -91 848 271 
Q 434 634 434 1313 
Q 434 1759 690 2068 
Q 947 2378 1403 2484 
z
M 1172 3481 
Q 1172 3119 1398 2916 
Q 1625 2713 2034 2713 
Q 2441 2713 2670 2916 
Q 2900 3119 2900 3481 
Q 2900 3844 2670 4047 
Q 2441 4250 2034 4250 
Q 1625 4250 1398 4047 
Q 1172 3844 1172 3481 
z
" transform="scale(0.015625)"/>
       </defs>
       <use xlink:href="#DejaVuSans-38"/>
       <use xlink:href="#DejaVuSans-30" transform="translate(63.623047 0)"/>
       <use xlink:href="#DejaVuSans-30" transform="translate(127.246094 0)"/>
      </g>
     </g>
    </g>
    <g id="text_10">
     <!-- Epochs -->
     <g transform="translate(311.228125 604.994688) scale(0.1 -0.1)">
      <defs>
       <path id="DejaVuSans-45" d="M 628 4666 
L 3578 4666 
L 3578 4134 
L 1259 4134 
L 1259 2753 
L 3481 2753 
L 3481 2222 
L 1259 2222 
L 1259 531 
L 3634 531 
L 3634 0 
L 628 0 
L 628 4666 
z
" transform="scale(0.015625)"/>
       <path id="DejaVuSans-70" d="M 1159 525 
L 1159 -1331 
L 581 -1331 
L 581 3500 
L 1159 3500 
L 1159 2969 
Q 1341 3281 1617 3432 
Q 1894 3584 2278 3584 
Q 2916 3584 3314 3078 
Q 3713 2572 3713 1747 
Q 3713 922 3314 415 
Q 2916 -91 2278 -91 
Q 1894 -91 1617 61 
Q 1341 213 1159 525 
z
M 3116 1747 
Q 3116 2381 2855 2742 
Q 2594 3103 2138 3103 
Q 1681 3103 1420 2742 
Q 1159 2381 1159 1747 
Q 1159 1113 1420 752 
Q 1681 391 2138 391 
Q 2594 391 2855 752 
Q 3116 1113 3116 1747 
z
" transform="scale(0.015625)"/>
       <path id="DejaVuSans-6f" d="M 1959 3097 
Q 1497 3097 1228 2736 
Q 959 2375 959 1747 
Q 959 1119 1226 758 
Q 1494 397 1959 397 
Q 2419 397 2687 759 
Q 2956 1122 2956 1747 
Q 2956 2369 2687 2733 
Q 2419 3097 1959 3097 
z
M 1959 3584 
Q 2709 3584 3137 3096 
Q 3566 2609 3566 1747 
Q 3566 888 3137 398 
Q 2709 -91 1959 -91 
Q 1206 -91 779 398 
Q 353 888 353 1747 
Q 353 2609 779 3096 
Q 1206 3584 1959 3584 
z
" transform="scale(0.015625)"/>
       <path id="DejaVuSans-63" d="M 3122 3366 
L 3122 2828 
Q 2878 2963 2633 3030 
Q 2388 3097 2138 3097 
Q 1578 3097 1268 2742 
Q 959 2388 959 1747 
Q 959 1106 1268 751 
Q 1578 397 2138 397 
Q 2388 397 2633 464 
Q 2878 531 3122 666 
L 3122 134 
Q 2881 22 2623 -34 
Q 2366 -91 2075 -91 
Q 1284 -91 818 406 
Q 353 903 353 1747 
Q 353 2603 823 3093 
Q 1294 3584 2113 3584 
Q 2378 3584 2631 3529 
Q 2884 3475 3122 3366 
z
" transform="scale(0.015625)"/>
       <path id="DejaVuSans-68" d="M 3513 2113 
L 3513 0 
L 2938 0 
L 2938 2094 
Q 2938 2591 2744 2837 
Q 2550 3084 2163 3084 
Q 1697 3084 1428 2787 
Q 1159 2491 1159 1978 
L 1159 0 
L 581 0 
L 581 4863 
L 1159 4863 
L 1159 2956 
Q 1366 3272 1645 3428 
Q 1925 3584 2291 3584 
Q 2894 3584 3203 3211 
Q 3513 2838 3513 2113 
z
" transform="scale(0.015625)"/>
       <path id="DejaVuSans-73" d="M 2834 3397 
L 2834 2853 
Q 2591 2978 2328 3040 
Q 2066 3103 1784 3103 
Q 1356 3103 1142 2972 
Q 928 2841 928 2578 
Q 928 2378 1081 2264 
Q 1234 2150 1697 2047 
L 1894 2003 
Q 2506 1872 2764 1633 
Q 3022 1394 3022 966 
Q 3022 478 2636 193 
Q 2250 -91 1575 -91 
Q 1294 -91 989 -36 
Q 684 19 347 128 
L 347 722 
Q 666 556 975 473 
Q 1284 391 1588 391 
Q 1994 391 2212 530 
Q 2431 669 2431 922 
Q 2431 1156 2273 1281 
Q 2116 1406 1581 1522 
L 1381 1569 
Q 847 1681 609 1914 
Q 372 2147 372 2553 
Q 372 3047 722 3315 
Q 1072 3584 1716 3584 
Q 2034 3584 2315 3537 
Q 2597 3491 2834 3397 
z
" transform="scale(0.015625)"/>
      </defs>
      <use xlink:href="#DejaVuSans-45"/>
      <use xlink:href="#DejaVuSans-70" transform="translate(63.183594 0)"/>
      <use xlink:href="#DejaVuSans-6f" transform="translate(126.660156 0)"/>
      <use xlink:href="#DejaVuSans-63" transform="translate(187.841797 0)"/>
      <use xlink:href="#DejaVuSans-68" transform="translate(242.822266 0)"/>
      <use xlink:href="#DejaVuSans-73" transform="translate(306.201172 0)"/>
     </g>
    </g>
   </g>
   <g id="matplotlib.axis_2">
    <g id="ytick_1">
     <g id="line2d_19">
      <path d="M 50.14375 566.951011 
L 608.14375 566.951011 
" clip-path="url(#p2e7c003a14)" style="fill: none; stroke: #b0b0b0; stroke-width: 0.8; stroke-linecap: square"/>
     </g>
     <g id="line2d_20">
      <defs>
       <path id="m782c601690" d="M 0 0 
L -3.5 0 
" style="stroke: #000000; stroke-width: 0.8"/>
      </defs>
      <g>
       <use xlink:href="#m782c601690" x="50.14375" y="566.951011" style="stroke: #000000; stroke-width: 0.8"/>
      </g>
     </g>
     <g id="text_11">
      <!-- 0.00 -->
      <g transform="translate(20.878125 570.75023) scale(0.1 -0.1)">
       <defs>
        <path id="DejaVuSans-2e" d="M 684 794 
L 1344 794 
L 1344 0 
L 684 0 
L 684 794 
z
" transform="scale(0.015625)"/>
       </defs>
       <use xlink:href="#DejaVuSans-30"/>
       <use xlink:href="#DejaVuSans-2e" transform="translate(63.623047 0)"/>
       <use xlink:href="#DejaVuSans-30" transform="translate(95.410156 0)"/>
       <use xlink:href="#DejaVuSans-30" transform="translate(159.033203 0)"/>
      </g>
     </g>
    </g>
    <g id="ytick_2">
     <g id="line2d_21">
      <path d="M 50.14375 496.481213 
L 608.14375 496.481213 
" clip-path="url(#p2e7c003a14)" style="fill: none; stroke: #b0b0b0; stroke-width: 0.8; stroke-linecap: square"/>
     </g>
     <g id="line2d_22">
      <g>
       <use xlink:href="#m782c601690" x="50.14375" y="496.481213" style="stroke: #000000; stroke-width: 0.8"/>
      </g>
     </g>
     <g id="text_12">
      <!-- 0.05 -->
      <g transform="translate(20.878125 500.280431) scale(0.1 -0.1)">
       <use xlink:href="#DejaVuSans-30"/>
       <use xlink:href="#DejaVuSans-2e" transform="translate(63.623047 0)"/>
       <use xlink:href="#DejaVuSans-30" transform="translate(95.410156 0)"/>
       <use xlink:href="#DejaVuSans-35" transform="translate(159.033203 0)"/>
      </g>
     </g>
    </g>
    <g id="ytick_3">
     <g id="line2d_23">
      <path d="M 50.14375 426.011415 
L 608.14375 426.011415 
" clip-path="url(#p2e7c003a14)" style="fill: none; stroke: #b0b0b0; stroke-width: 0.8; stroke-linecap: square"/>
     </g>
     <g id="line2d_24">
      <g>
       <use xlink:href="#m782c601690" x="50.14375" y="426.011415" style="stroke: #000000; stroke-width: 0.8"/>
      </g>
     </g>
     <g id="text_13">
      <!-- 0.10 -->
      <g transform="translate(20.878125 429.810633) scale(0.1 -0.1)">
       <use xlink:href="#DejaVuSans-30"/>
       <use xlink:href="#DejaVuSans-2e" transform="translate(63.623047 0)"/>
       <use xlink:href="#DejaVuSans-31" transform="translate(95.410156 0)"/>
       <use xlink:href="#DejaVuSans-30" transform="translate(159.033203 0)"/>
      </g>
     </g>
    </g>
    <g id="ytick_4">
     <g id="line2d_25">
      <path d="M 50.14375 355.541616 
L 608.14375 355.541616 
" clip-path="url(#p2e7c003a14)" style="fill: none; stroke: #b0b0b0; stroke-width: 0.8; stroke-linecap: square"/>
     </g>
     <g id="line2d_26">
      <g>
       <use xlink:href="#m782c601690" x="50.14375" y="355.541616" style="stroke: #000000; stroke-width: 0.8"/>
      </g>
     </g>
     <g id="text_14">
      <!-- 0.15 -->
      <g transform="translate(20.878125 359.340835) scale(0.1 -0.1)">
       <use xlink:href="#DejaVuSans-30"/>
       <use xlink:href="#DejaVuSans-2e" transform="translate(63.623047 0)"/>
       <use xlink:href="#DejaVuSans-31" transform="translate(95.410156 0)"/>
       <use xlink:href="#DejaVuSans-35" transform="translate(159.033203 0)"/>
      </g>
     </g>
    </g>
    <g id="ytick_5">
     <g id="line2d_27">
      <path d="M 50.14375 285.071818 
L 608.14375 285.071818 
" clip-path="url(#p2e7c003a14)" style="fill: none; stroke: #b0b0b0; stroke-width: 0.8; stroke-linecap: square"/>
     </g>
     <g id="line2d_28">
      <g>
       <use xlink:href="#m782c601690" x="50.14375" y="285.071818" style="stroke: #000000; stroke-width: 0.8"/>
      </g>
     </g>
     <g id="text_15">
      <!-- 0.20 -->
      <g transform="translate(20.878125 288.871037) scale(0.1 -0.1)">
       <use xlink:href="#DejaVuSans-30"/>
       <use xlink:href="#DejaVuSans-2e" transform="translate(63.623047 0)"/>
       <use xlink:href="#DejaVuSans-32" transform="translate(95.410156 0)"/>
       <use xlink:href="#DejaVuSans-30" transform="translate(159.033203 0)"/>
      </g>
     </g>
    </g>
    <g id="ytick_6">
     <g id="line2d_29">
      <path d="M 50.14375 214.60202 
L 608.14375 214.60202 
" clip-path="url(#p2e7c003a14)" style="fill: none; stroke: #b0b0b0; stroke-width: 0.8; stroke-linecap: square"/>
     </g>
     <g id="line2d_30">
      <g>
       <use xlink:href="#m782c601690" x="50.14375" y="214.60202" style="stroke: #000000; stroke-width: 0.8"/>
      </g>
     </g>
     <g id="text_16">
      <!-- 0.25 -->
      <g transform="translate(20.878125 218.401239) scale(0.1 -0.1)">
       <use xlink:href="#DejaVuSans-30"/>
       <use xlink:href="#DejaVuSans-2e" transform="translate(63.623047 0)"/>
       <use xlink:href="#DejaVuSans-32" transform="translate(95.410156 0)"/>
       <use xlink:href="#DejaVuSans-35" transform="translate(159.033203 0)"/>
      </g>
     </g>
    </g>
    <g id="ytick_7">
     <g id="line2d_31">
      <path d="M 50.14375 144.132222 
L 608.14375 144.132222 
" clip-path="url(#p2e7c003a14)" style="fill: none; stroke: #b0b0b0; stroke-width: 0.8; stroke-linecap: square"/>
     </g>
     <g id="line2d_32">
      <g>
       <use xlink:href="#m782c601690" x="50.14375" y="144.132222" style="stroke: #000000; stroke-width: 0.8"/>
      </g>
     </g>
     <g id="text_17">
      <!-- 0.30 -->
      <g transform="translate(20.878125 147.931441) scale(0.1 -0.1)">
       <use xlink:href="#DejaVuSans-30"/>
       <use xlink:href="#DejaVuSans-2e" transform="translate(63.623047 0)"/>
       <use xlink:href="#DejaVuSans-33" transform="translate(95.410156 0)"/>
       <use xlink:href="#DejaVuSans-30" transform="translate(159.033203 0)"/>
      </g>
     </g>
    </g>
    <g id="ytick_8">
     <g id="line2d_33">
      <path d="M 50.14375 73.662424 
L 608.14375 73.662424 
" clip-path="url(#p2e7c003a14)" style="fill: none; stroke: #b0b0b0; stroke-width: 0.8; stroke-linecap: square"/>
     </g>
     <g id="line2d_34">
      <g>
       <use xlink:href="#m782c601690" x="50.14375" y="73.662424" style="stroke: #000000; stroke-width: 0.8"/>
      </g>
     </g>
     <g id="text_18">
      <!-- 0.35 -->
      <g transform="translate(20.878125 77.461642) scale(0.1 -0.1)">
       <use xlink:href="#DejaVuSans-30"/>
       <use xlink:href="#DejaVuSans-2e" transform="translate(63.623047 0)"/>
       <use xlink:href="#DejaVuSans-33" transform="translate(95.410156 0)"/>
       <use xlink:href="#DejaVuSans-35" transform="translate(159.033203 0)"/>
      </g>
     </g>
    </g>
    <g id="text_19">
     <!-- Accuracy -->
     <g transform="translate(14.798437 322.34625) rotate(-90) scale(0.1 -0.1)">
      <defs>
       <path id="DejaVuSans-41" d="M 2188 4044 
L 1331 1722 
L 3047 1722 
L 2188 4044 
z
M 1831 4666 
L 2547 4666 
L 4325 0 
L 3669 0 
L 3244 1197 
L 1141 1197 
L 716 0 
L 50 0 
L 1831 4666 
z
" transform="scale(0.015625)"/>
       <path id="DejaVuSans-75" d="M 544 1381 
L 544 3500 
L 1119 3500 
L 1119 1403 
Q 1119 906 1312 657 
Q 1506 409 1894 409 
Q 2359 409 2629 706 
Q 2900 1003 2900 1516 
L 2900 3500 
L 3475 3500 
L 3475 0 
L 2900 0 
L 2900 538 
Q 2691 219 2414 64 
Q 2138 -91 1772 -91 
Q 1169 -91 856 284 
Q 544 659 544 1381 
z
M 1991 3584 
L 1991 3584 
z
" transform="scale(0.015625)"/>
       <path id="DejaVuSans-72" d="M 2631 2963 
Q 2534 3019 2420 3045 
Q 2306 3072 2169 3072 
Q 1681 3072 1420 2755 
Q 1159 2438 1159 1844 
L 1159 0 
L 581 0 
L 581 3500 
L 1159 3500 
L 1159 2956 
Q 1341 3275 1631 3429 
Q 1922 3584 2338 3584 
Q 2397 3584 2469 3576 
Q 2541 3569 2628 3553 
L 2631 2963 
z
" transform="scale(0.015625)"/>
       <path id="DejaVuSans-61" d="M 2194 1759 
Q 1497 1759 1228 1600 
Q 959 1441 959 1056 
Q 959 750 1161 570 
Q 1363 391 1709 391 
Q 2188 391 2477 730 
Q 2766 1069 2766 1631 
L 2766 1759 
L 2194 1759 
z
M 3341 1997 
L 3341 0 
L 2766 0 
L 2766 531 
Q 2569 213 2275 61 
Q 1981 -91 1556 -91 
Q 1019 -91 701 211 
Q 384 513 384 1019 
Q 384 1609 779 1909 
Q 1175 2209 1959 2209 
L 2766 2209 
L 2766 2266 
Q 2766 2663 2505 2880 
Q 2244 3097 1772 3097 
Q 1472 3097 1187 3025 
Q 903 2953 641 2809 
L 641 3341 
Q 956 3463 1253 3523 
Q 1550 3584 1831 3584 
Q 2591 3584 2966 3190 
Q 3341 2797 3341 1997 
z
" transform="scale(0.015625)"/>
       <path id="DejaVuSans-79" d="M 2059 -325 
Q 1816 -950 1584 -1140 
Q 1353 -1331 966 -1331 
L 506 -1331 
L 506 -850 
L 844 -850 
Q 1081 -850 1212 -737 
Q 1344 -625 1503 -206 
L 1606 56 
L 191 3500 
L 800 3500 
L 1894 763 
L 2988 3500 
L 3597 3500 
L 2059 -325 
z
" transform="scale(0.015625)"/>
      </defs>
      <use xlink:href="#DejaVuSans-41"/>
      <use xlink:href="#DejaVuSans-63" transform="translate(66.658203 0)"/>
      <use xlink:href="#DejaVuSans-63" transform="translate(121.638672 0)"/>
      <use xlink:href="#DejaVuSans-75" transform="translate(176.619141 0)"/>
      <use xlink:href="#DejaVuSans-72" transform="translate(239.998047 0)"/>
      <use xlink:href="#DejaVuSans-61" transform="translate(281.111328 0)"/>
      <use xlink:href="#DejaVuSans-63" transform="translate(342.390625 0)"/>
      <use xlink:href="#DejaVuSans-79" transform="translate(397.371094 0)"/>
     </g>
    </g>
   </g>
   <g id="line2d_35">
    <path d="M 75.507386 367.497987 
L 76.142271 349.465562 
L 76.777155 370.880552 
L 77.41204 377.160188 
L 78.046924 330.047217 
L 79.316693 365.77539 
L 79.951578 360.497994 
L 81.221347 380.777636 
L 81.856232 449.102019 
L 82.491116 453.815668 
L 83.126001 472.028193 
L 84.39577 496.254142 
L 85.030654 501.445421 
L 85.665539 500.670251 
L 86.300423 500.411862 
L 86.935308 491.704925 
L 87.570192 494.719468 
L 88.205077 496.144524 
L 88.839961 494.977857 
L 89.474846 494.954366 
L 90.10973 490.272041 
L 90.744615 490.796651 
L 91.379499 490.123271 
L 92.014384 488.447655 
L 92.649268 486.020365 
L 93.284153 487.946535 
L 93.919037 489.074055 
L 94.553922 491.133339 
L 95.188806 485.213876 
L 95.823691 488.753024 
L 96.458575 489.755264 
L 97.09346 486.106492 
L 97.728344 491.15683 
L 98.363229 486.834682 
L 99.632998 488.032668 
L 100.267882 491.133339 
L 100.902767 488.048325 
L 101.537651 489.833564 
L 102.172536 487.727299 
L 102.80742 488.056158 
L 103.442305 491.109849 
L 104.07719 486.27092 
L 104.712074 485.973384 
L 105.346959 487.461077 
L 106.616728 481.784345 
L 107.251612 485.534901 
L 107.886497 483.56175 
L 108.521381 484.610966 
L 109.156266 484.477858 
L 109.79115 482.904032 
L 110.426035 483.420808 
L 111.060919 482.442064 
L 111.695804 482.974503 
L 112.330688 484.454367 
L 112.965573 482.183676 
L 113.600457 482.841394 
L 114.235342 477.751905 
L 114.870226 482.308956 
L 115.505111 480.046092 
L 116.77488 480.970028 
L 117.409764 482.692624 
L 118.044649 481.839154 
L 118.679533 481.580766 
L 119.314418 479.200451 
L 119.949302 482.872713 
L 120.584187 480.124392 
L 121.853956 481.940944 
L 122.48884 480.093068 
L 123.123725 480.053921 
L 123.758609 481.729536 
L 124.393494 482.716114 
L 125.028379 482.332441 
L 125.663263 481.283225 
L 126.298148 481.651237 
L 126.933032 483.26421 
L 127.567917 482.410745 
L 128.202801 482.864879 
L 128.837686 482.387255 
L 129.47257 482.144523 
L 130.107455 482.770923 
L 130.742339 480.547207 
L 131.377224 483.867119 
L 132.012108 483.81231 
L 132.646993 481.455486 
L 133.916762 483.107611 
L 134.551646 481.377186 
L 135.186531 486.004703 
L 136.4563 482.88837 
L 137.091184 484.360406 
L 137.726069 481.157945 
L 138.360953 485.198214 
L 138.995838 484.49352 
L 139.630722 484.626628 
L 140.265607 483.976738 
L 140.900491 486.41969 
L 141.535376 484.610966 
L 142.17026 484.838036 
L 142.805145 487.030428 
L 143.440029 485.002468 
L 144.074914 486.748549 
L 144.709798 483.749668 
L 145.344683 485.714996 
L 145.979567 483.248553 
L 146.614452 485.871594 
L 147.249337 485.840276 
L 147.884221 483.632221 
L 148.519106 484.430877 
L 149.15399 485.010296 
L 149.788875 484.313425 
L 150.423759 485.527073 
L 151.058644 484.01589 
L 151.693528 483.569579 
L 152.328413 488.087477 
L 152.963297 485.401793 
L 153.598182 486.27092 
L 154.233066 484.736246 
L 154.867951 484.830207 
L 155.502835 486.482333 
L 156.772604 485.801123 
L 157.407489 485.268685 
L 158.042373 485.487926 
L 158.677258 486.137811 
L 159.312142 485.440945 
L 159.947027 484.924163 
L 160.581911 487.108727 
L 161.216796 486.529313 
L 161.85168 488.103139 
L 162.486565 488.361527 
L 163.121449 487.492401 
L 163.756334 488.494636 
L 164.391218 486.114321 
L 165.026103 487.280988 
L 165.660987 487.187027 
L 166.295872 488.063987 
L 166.930756 486.513651 
L 167.565641 487.758618 
L 168.200526 486.043855 
L 168.83541 487.155708 
L 169.470295 485.245194 
L 170.105179 486.278753 
L 170.740064 485.049443 
L 171.374948 486.889491 
L 172.009833 487.829089 
L 172.644717 485.065105 
L 173.279602 486.709402 
L 173.914486 488.682553 
L 174.549371 485.769805 
L 175.184255 487.954369 
L 175.81914 486.834682 
L 176.454024 487.89956 
L 177.088909 487.335797 
L 177.723793 487.680318 
L 178.358678 487.508058 
L 178.993562 486.435352 
L 179.628447 490.569582 
L 180.263331 488.118796 
L 180.898216 486.3962 
L 181.5331 487.210517 
L 182.167985 488.643406 
L 182.802869 486.52148 
L 183.437754 487.664656 
L 184.072638 487.844745 
L 184.707523 489.074055 
L 185.342407 487.077409 
L 185.977292 488.322375 
L 186.612176 487.0226 
L 187.247061 487.280988 
L 187.881945 488.212757 
L 188.51683 485.816785 
L 189.786599 486.52148 
L 190.421484 488.189267 
L 191.056368 487.609847 
L 191.691253 486.200454 
L 192.326137 487.367121 
L 192.961022 488.048325 
L 193.595906 489.387253 
L 194.230791 488.189267 
L 194.865675 488.009178 
L 195.50056 487.100899 
L 196.135444 487.923045 
L 196.770329 486.654593 
L 198.040098 490.30336 
L 198.674982 488.244076 
L 199.309867 489.222826 
L 199.944751 486.560632 
L 200.579636 487.641166 
L 201.21452 486.748549 
L 201.849405 488.549445 
L 202.484289 489.387253 
L 203.119174 485.495754 
L 203.754058 488.878304 
L 204.388943 487.67249 
L 205.023827 488.251904 
L 205.658712 487.304478 
L 206.293596 487.562867 
L 206.928481 487.539376 
L 207.563365 487.234007 
L 208.19825 490.773161 
L 208.833134 487.703809 
L 209.468019 487.288822 
L 210.102903 485.832442 
L 210.737788 485.174723 
L 211.372673 488.306718 
L 212.007557 487.27316 
L 212.642442 487.907388 
L 213.277326 486.474499 
L 213.912211 485.597544 
L 214.547095 488.197095 
L 215.18198 489.230654 
L 216.451749 486.959962 
L 217.086633 488.048325 
L 217.721518 487.727299 
L 218.356402 488.314547 
L 218.991287 485.902913 
L 219.626171 487.014771 
L 220.261056 485.198214 
L 220.89594 485.801123 
L 221.530825 486.732893 
L 222.165709 487.202689 
L 222.800594 486.404033 
L 223.435478 485.863761 
L 224.070363 487.218351 
L 224.705247 485.542735 
L 225.340132 486.3962 
L 225.975016 489.285463 
L 226.609901 486.325734 
L 227.244785 485.292175 
L 227.87967 487.288822 
L 228.514554 487.288822 
L 229.149439 486.905148 
L 229.784323 489.614322 
L 230.419208 485.182557 
L 231.054092 488.134458 
L 232.323862 485.135576 
L 232.958746 486.482333 
L 234.228515 486.81902 
L 234.8634 486.936472 
L 235.498284 486.584122 
L 236.133169 488.619916 
L 236.768053 485.276513 
L 237.402938 488.784343 
L 238.037822 486.06734 
L 238.672707 487.27316 
L 239.307591 486.41969 
L 239.942476 486.529313 
L 240.57736 485.754143 
L 241.212245 485.722824 
L 241.847129 487.609847 
L 242.482014 486.44318 
L 243.116898 487.89956 
L 243.751783 485.926403 
L 244.386667 485.057277 
L 245.021552 488.463317 
L 245.656436 487.163542 
L 246.291321 486.599779 
L 246.926205 485.503583 
L 247.56109 487.852579 
L 248.195974 487.241841 
L 248.830859 487.053918 
L 249.465743 486.3179 
L 250.100628 484.822374 
L 250.735512 485.378303 
L 251.370397 487.42193 
L 252.005281 487.32014 
L 252.640166 484.509176 
L 253.27505 487.29665 
L 253.909935 486.631103 
L 254.54482 485.691505 
L 255.179704 485.863761 
L 255.814589 487.468911 
L 256.449473 483.9141 
L 257.084358 486.16913 
L 257.719242 486.075174 
L 258.354127 487.500229 
L 258.989011 486.811192 
L 259.623896 484.485686 
L 260.893665 485.785461 
L 261.528549 482.575172 
L 262.163434 484.532667 
L 262.798318 483.655712 
L 263.433203 487.187027 
L 264.068087 485.253023 
L 264.702972 484.689265 
L 265.337856 487.805598 
L 265.972741 486.020365 
L 266.607625 484.798889 
L 267.24251 484.838036 
L 267.877394 485.362646 
L 268.512279 484.697099 
L 269.147163 486.834682 
L 269.782048 485.065105 
L 270.416932 485.409627 
L 271.051817 484.650118 
L 271.686701 485.683672 
L 272.321586 484.407387 
L 272.95647 484.203807 
L 273.591355 483.272038 
L 274.861124 485.902913 
L 275.496009 485.409627 
L 278.035547 484.376068 
L 278.670431 487.711637 
L 279.305316 487.187027 
L 279.9402 485.628863 
L 280.575085 484.587476 
L 281.209969 486.216111 
L 281.844854 485.425283 
L 282.479738 485.112086 
L 283.114623 485.409627 
L 283.749507 485.425283 
L 284.384392 485.237366 
L 285.019276 486.216111 
L 285.654161 484.01589 
L 286.289045 487.500229 
L 286.92393 485.660181 
L 287.558814 486.474499 
L 288.193699 484.01589 
L 288.828583 485.808952 
L 289.463468 484.188151 
L 290.098352 483.929757 
L 290.733237 485.315665 
L 291.368121 483.326852 
L 292.003006 485.550563 
L 292.63789 483.624388 
L 293.272775 484.14117 
L 293.907659 483.921929 
L 294.542544 484.540495 
L 295.177428 483.51477 
L 295.812313 484.000228 
L 296.447197 485.119914 
L 297.082082 483.358171 
L 297.716967 484.744074 
L 298.351851 483.428642 
L 298.986736 485.597544 
L 299.62162 483.279872 
L 300.256505 481.721703 
L 300.891389 483.647878 
L 302.161158 482.896203 
L 302.796043 482.700452 
L 303.430927 483.452132 
L 304.065812 482.269803 
L 304.700696 482.716114 
L 305.335581 482.285465 
L 305.970465 482.76309 
L 306.60535 479.122152 
L 307.240234 484.086356 
L 307.875119 481.768683 
L 308.510003 483.178082 
L 309.144888 482.293294 
L 309.779772 482.6613 
L 310.414657 481.933116 
L 311.049541 481.557276 
L 311.684426 481.925282 
L 312.31931 484.470029 
L 312.954195 482.872713 
L 313.589079 483.757501 
L 314.223964 481.807836 
L 314.858848 482.927522 
L 315.493733 482.113205 
L 316.128617 482.238485 
L 316.763502 483.64005 
L 317.398386 480.304481 
L 318.033271 481.721703 
L 318.668156 481.753027 
L 319.30304 482.802242 
L 319.937925 482.144523 
L 320.572809 482.645643 
L 321.207694 481.486805 
L 321.842578 482.794414 
L 322.477463 481.228416 
L 323.112347 483.804477 
L 323.747232 479.670252 
L 324.382116 482.653472 
L 325.017001 483.193739 
L 325.651885 480.876066 
L 326.28677 481.596428 
L 326.921654 480.022602 
L 327.556539 480.241838 
L 328.191423 481.619913 
L 328.826308 481.204926 
L 329.461192 482.152352 
L 330.096077 482.238485 
L 330.730961 480.555041 
L 332.00073 479.75638 
L 332.635615 480.993518 
L 333.270499 481.846983 
L 333.905384 481.032665 
L 334.540268 480.562869 
L 335.175153 480.570697 
L 335.810037 480.789939 
L 336.444922 482.324612 
L 337.079806 480.116558 
L 337.714691 480.367118 
L 338.349575 481.886135 
L 338.98446 478.918572 
L 339.619344 481.753027 
L 340.254229 481.651237 
L 340.889114 480.414099 
L 341.523998 481.024837 
L 342.158883 477.845866 
L 342.793767 479.40403 
L 343.428652 482.011415 
L 344.063536 479.85817 
L 344.698421 478.550566 
L 345.333305 481.839154 
L 345.96819 479.325731 
L 346.603074 479.043852 
L 347.237959 479.60761 
L 347.872843 480.562869 
L 348.507728 480.688149 
L 349.142612 481.369358 
L 349.777497 479.725061 
L 350.412381 480.10873 
L 351.047266 480.046092 
L 351.68215 479.15347 
L 352.317035 480.179201 
L 352.951919 479.803361 
L 353.586804 478.253025 
L 354.221688 480.539379 
L 354.856573 480.891728 
L 355.491457 478.879425 
L 356.761226 479.443183 
L 357.396111 479.427521 
L 358.030995 478.268682 
L 358.66588 479.419692 
L 359.300764 481.557276 
L 359.935649 480.977856 
L 360.570533 477.751905 
L 361.205418 476.35034 
L 361.840303 479.388374 
L 362.475187 479.999112 
L 363.110072 479.020362 
L 364.379841 478.832439 
L 365.014725 478.268682 
L 365.64961 478.62886 
L 366.284494 479.73289 
L 366.919379 478.558389 
L 367.554263 478.613203 
L 368.189148 477.164657 
L 368.824032 480.492398 
L 369.458917 479.599781 
L 370.093801 478.989043 
L 370.728686 477.8537 
L 371.36357 478.253025 
L 371.998455 479.85817 
L 372.633339 478.237368 
L 373.268224 477.227295 
L 373.903108 479.247432 
L 374.537993 478.033789 
L 375.172877 478.589713 
L 375.807762 478.480095 
L 377.077531 476.491282 
L 377.712415 477.062873 
L 378.3473 478.072936 
L 378.982184 476.780989 
L 379.617069 476.953244 
L 380.251953 477.423051 
L 380.886838 479.701571 
L 381.521722 476.491282 
L 382.156607 479.787699 
L 382.791491 476.992402 
L 383.426376 477.845866 
L 384.061261 475.966671 
L 384.696145 477.861523 
L 385.33103 477.509179 
L 385.965914 478.300006 
L 386.600799 477.642287 
L 387.235683 475.261972 
L 388.505452 478.707164 
L 389.140337 475.770926 
L 389.775221 475.199335 
L 390.410106 477.540492 
L 391.679875 477.673611 
L 392.314759 477.227295 
L 392.949644 477.454364 
L 393.584528 477.086363 
L 394.219413 475.825729 
L 394.854297 478.503585 
L 395.489182 476.240722 
L 396.124066 477.305599 
L 396.758951 474.89396 
L 397.393835 479.184794 
L 398.02872 476.405154 
L 398.663604 476.702684 
L 399.298489 475.113207 
L 399.933373 476.436468 
L 400.568258 477.015892 
L 401.203142 477.297766 
L 401.838027 476.39732 
L 402.472911 476.193741 
L 403.107796 478.237368 
L 403.74268 476.193741 
L 404.377565 476.428644 
L 405.01245 476.538262 
L 405.647334 476.773155 
L 406.282219 474.776519 
L 406.917103 477.470032 
L 407.551988 474.933118 
L 408.186872 474.048329 
L 409.456641 477.10202 
L 410.091526 476.890607 
L 410.72641 473.36712 
L 411.361295 473.797769 
L 411.996179 475.990162 
L 412.631064 475.426404 
L 413.265948 473.414101 
L 413.900833 475.536022 
L 414.535717 475.496875 
L 415.170602 475.888367 
L 415.805486 477.242962 
L 416.440371 474.32238 
L 417.075255 476.921931 
L 417.71014 474.298889 
L 418.345024 474.800009 
L 418.979909 475.449895 
L 419.614793 474.275399 
L 420.249678 473.829083 
L 421.519447 477.689268 
L 422.154331 476.804479 
L 422.789216 472.779873 
L 423.4241 473.899554 
L 424.058985 475.254138 
L 424.693869 475.614327 
L 425.328754 474.134457 
L 425.963638 475.723945 
L 426.598523 473.805593 
L 427.233408 474.251909 
L 427.868292 475.583003 
L 429.138061 474.612087 
L 430.40783 474.181438 
L 431.042715 473.382777 
L 431.677599 475.473385 
L 432.312484 473.774279 
L 432.947368 473.664661 
L 433.582253 474.494635 
L 434.217137 472.36488 
L 434.852022 473.265325 
L 435.486906 475.528189 
L 436.121791 473.414101 
L 436.756675 475.050559 
L 437.39156 473.970025 
L 438.026444 474.353693 
L 438.661329 474.385017 
L 439.931098 474.032662 
L 440.565982 473.147884 
L 441.200867 473.531553 
L 441.835751 476.765332 
L 442.470636 475.473385 
L 443.10552 472.709402 
L 443.740405 475.442061 
L 444.375289 471.370474 
L 445.010174 473.891731 
L 445.645058 474.283222 
L 446.279943 472.388371 
L 446.914827 475.363767 
L 447.549712 472.270919 
L 448.184597 475.935347 
L 448.819481 474.627744 
L 449.454366 474.361527 
L 450.724135 472.028193 
L 451.359019 472.451008 
L 451.993904 473.82126 
L 452.628788 474.244075 
L 453.263673 474.017005 
L 453.898557 472.357047 
L 454.533442 473.500229 
L 455.168326 473.382777 
L 455.803211 472.482332 
L 456.438095 474.212751 
L 457.07298 472.920815 
L 457.707864 473.836916 
L 458.342749 475.387257 
L 458.977633 472.451008 
L 460.882287 475.128864 
L 461.517171 471.738485 
L 462.152056 471.926408 
L 462.78694 473.030433 
L 463.421825 471.621034 
L 464.691594 473.061746 
L 465.326478 474.416341 
L 465.961363 470.767569 
L 466.596247 475.316786 
L 467.231132 473.664661 
L 467.866016 471.401798 
L 468.500901 473.492395 
L 469.135785 474.126624 
L 469.77067 471.832447 
L 470.405555 472.873834 
L 471.040439 473.194854 
L 471.675324 471.926408 
L 472.310208 474.251909 
L 472.945093 472.239605 
L 473.579977 471.550563 
L 474.214862 473.938711 
L 474.849746 474.306713 
L 475.484631 470.775392 
L 476.119515 473.429758 
L 476.7544 474.361527 
L 477.389284 471.409621 
L 478.024169 472.490166 
L 478.659053 475.191501 
L 479.293938 473.656827 
L 479.928822 473.664661 
L 480.563707 472.631097 
L 481.198591 472.803363 
L 481.833476 473.82126 
L 482.46836 472.396204 
L 483.103245 471.628867 
L 483.738129 473.061746 
L 484.373014 472.881657 
L 485.007898 471.965555 
L 485.642783 473.390611 
L 486.277667 473.085236 
L 486.912552 471.151238 
L 487.547436 472.999109 
L 488.182321 472.419695 
L 488.817205 472.983452 
L 489.45209 472.740726 
L 490.086974 471.260856 
L 490.721859 471.597543 
L 491.356744 472.678078 
L 491.991628 470.963315 
L 492.626513 471.166894 
L 493.261397 471.511416 
L 493.896282 471.691505 
L 494.531166 474.040496 
L 495.166051 469.381661 
L 495.800935 471.260856 
L 496.43582 472.787696 
L 497.070704 472.920815 
L 497.705589 470.744079 
L 498.340473 472.654587 
L 498.975358 471.534906 
L 499.610242 473.288816 
L 500.245127 471.018129 
L 500.880011 471.487925 
L 501.514896 472.153467 
L 502.14978 471.354817 
L 502.784665 471.895084 
L 503.419549 470.579647 
L 504.054434 472.889491 
L 504.689318 471.33915 
L 505.324203 471.057276 
L 505.959087 471.746309 
L 506.593972 473.34363 
L 507.228856 469.710515 
L 507.863741 472.764205 
L 508.498625 471.11208 
L 509.13351 471.29218 
L 509.768394 470.665774 
L 510.403279 470.430882 
L 511.038163 471.221709 
L 512.307933 471.707162 
L 513.577702 472.631097 
L 514.212586 470.070703 
L 514.847471 470.571813 
L 515.482355 472.372714 
L 516.752124 469.937585 
L 517.387009 472.223938 
L 518.021893 471.049443 
L 518.656778 470.869354 
L 519.926547 470.885021 
L 521.196316 471.503582 
L 521.8312 470.963315 
L 522.466085 471.801123 
L 523.100969 471.683671 
L 523.735854 470.704921 
L 524.370738 471.58971 
L 525.005623 472.811186 
L 525.640507 472.404027 
L 526.275392 472.717235 
L 526.910276 471.942065 
L 527.545161 472.638931 
L 528.180045 471.143404 
L 528.81493 470.532666 
L 529.449814 472.380537 
L 530.084699 471.480092 
L 530.719583 472.670255 
L 531.354468 470.853697 
L 531.989352 472.098664 
L 532.624237 473.836916 
L 533.259121 471.683671 
L 533.894006 469.013649 
L 534.528891 471.707162 
L 535.163775 469.773163 
L 535.79866 473.461082 
L 536.433544 472.051683 
L 537.068429 469.718349 
L 537.703313 472.795529 
L 538.338198 470.579647 
L 538.973082 471.738485 
L 539.607967 471.370474 
L 540.242851 470.203812 
L 540.877736 470.579647 
L 541.51262 470.610971 
L 542.147505 470.297763 
L 542.782389 469.60873 
L 543.417274 469.710515 
L 544.052158 471.06511 
L 544.687043 470.407391 
L 545.956812 471.777632 
L 546.591696 468.747432 
L 547.226581 471.206041 
L 547.861465 469.326847 
L 548.49635 470.673608 
L 549.131234 471.652358 
L 550.401003 469.53826 
L 551.035888 469.882781 
L 551.670772 470.736245 
L 552.305657 469.170248 
L 552.940541 468.113204 
L 553.575426 469.217228 
L 554.21031 469.475622 
L 554.845195 471.104257 
L 555.48008 471.746309 
L 556.114964 470.258616 
L 556.749849 469.217228 
L 557.384733 470.141164 
L 558.019618 469.953252 
L 558.654502 470.650118 
L 559.289387 471.127747 
L 559.924271 469.874947 
L 560.559156 470.618794 
L 561.19404 470.994639 
L 561.828925 468.755266 
L 562.463809 469.428641 
L 563.098694 469.60873 
L 563.733578 469.115444 
L 564.368463 468.269803 
L 565.003347 468.935355 
L 565.638232 471.910741 
L 566.273116 469.514769 
L 566.908001 469.726182 
L 567.542885 468.457725 
L 568.17777 469.248552 
L 568.812654 468.449892 
L 569.447539 471.096423 
L 570.082423 470.798883 
L 570.717308 469.851457 
L 571.352192 470.783226 
L 571.987077 469.553916 
L 572.621961 467.494632 
L 573.256846 470.282106 
L 573.89173 471.440945 
L 574.526615 471.245199 
L 575.161499 470.015889 
L 575.796384 472.380537 
L 576.431268 469.914094 
L 577.066153 471.198218 
L 577.701038 471.542729 
L 578.970807 469.60873 
L 579.605691 470.180322 
L 580.240576 471.260856 
L 580.87546 468.864884 
L 581.510345 470.070703 
L 582.145229 469.436475 
L 582.780114 469.929762 
L 582.780114 469.929762 
" clip-path="url(#p2e7c003a14)" style="fill: none; stroke: #1f77b4; stroke-width: 1.5; stroke-linecap: square"/>
   </g>
   <g id="line2d_36">
    <path d="M 75.507386 440.17584 
L 76.142271 491.618797 
L 76.777155 529.602018 
L 77.41204 523.471144 
L 78.046924 343.843633 
L 78.681809 479.991278 
L 79.316693 321.857062 
L 79.951578 47.518125 
L 81.221347 551.518125 
L 81.856232 330.877181 
L 82.491116 507.122153 
L 83.126001 486.615441 
L 83.760885 376.682548 
L 84.39577 532.702689 
L 85.030654 472.59195 
L 85.665539 534.041615 
L 86.300423 533.266447 
L 86.935308 510.011416 
L 87.570192 518.60873 
L 88.205077 465.333564 
L 88.839961 510.293295 
L 89.474846 522.977858 
L 90.10973 470.477862 
L 90.744615 433.763095 
L 91.379499 473.014765 
L 92.014384 522.273159 
L 92.649268 523.400676 
L 93.284153 500.286582 
L 93.919037 524.880541 
L 94.553922 480.48457 
L 95.188806 505.430875 
L 95.823691 479.497992 
L 96.458575 502.682554 
L 97.09346 505.289938 
L 97.728344 510.081882 
L 98.363229 502.753025 
L 98.998113 515.085238 
L 99.632998 500.075174 
L 100.267882 488.236247 
L 100.902767 460.682552 
L 101.537651 488.306718 
L 102.172536 498.454368 
L 102.80742 448.491281 
L 103.442305 450.675839 
L 104.07719 514.732889 
L 104.712074 471.675848 
L 105.346959 495.917454 
L 105.981843 494.014769 
L 106.616728 524.246312 
L 107.251612 507.122153 
L 108.521381 496.410741 
L 109.156266 500.14564 
L 109.79115 479.35705 
L 110.426035 466.461079 
L 111.060919 481.823492 
L 111.695804 493.028191 
L 112.330688 483.51477 
L 112.965573 450.605379 
L 113.600457 485.417455 
L 114.235342 494.860405 
L 114.870226 461.246309 
L 115.505111 512.830203 
L 116.139995 476.890607 
L 116.77488 503.457724 
L 117.409764 498.313426 
L 118.044649 525.867119 
L 118.679533 371.115434 
L 119.314418 488.588597 
L 119.949302 462.937592 
L 120.584187 476.749665 
L 121.219071 474.84698 
L 121.853956 510.786581 
L 122.48884 481.682556 
L 123.123725 501.695976 
L 123.758609 464.628864 
L 124.393494 515.22618 
L 125.028379 475.833563 
L 125.663263 476.749665 
L 126.298148 500.709403 
L 126.933032 459.343624 
L 127.567917 502.259738 
L 128.837686 448.068465 
L 129.47257 460.612081 
L 130.107455 508.249668 
L 130.742339 499.722825 
L 131.377224 482.81007 
L 132.012108 486.826849 
L 132.646993 488.588597 
L 133.281877 471.957722 
L 133.916762 483.585241 
L 134.551646 524.105373 
L 135.186531 491.830205 
L 135.821415 490.420811 
L 136.4563 479.920812 
L 137.091184 492.112084 
L 137.726069 497.538261 
L 138.360953 490.843627 
L 138.995838 511.773159 
L 139.630722 494.155711 
L 140.265607 500.075174 
L 140.900491 488.940947 
L 141.535376 498.877183 
L 142.17026 495.917454 
L 142.805145 516.142287 
L 143.440029 511.42081 
L 144.074914 482.387255 
L 144.709798 474.706048 
L 145.344683 504.937589 
L 145.979567 513.957723 
L 146.614452 510.434232 
L 147.249337 455.96108 
L 147.884221 490.773161 
L 148.519106 478.793292 
L 149.15399 505.783225 
L 149.788875 488.024834 
L 150.423759 478.088593 
L 151.058644 496.76309 
L 151.693528 524.951012 
L 152.328413 493.591953 
L 152.963297 506.699332 
L 153.598182 477.031549 
L 154.233066 517.058394 
L 154.867951 471.323493 
L 155.502835 479.004705 
L 156.13772 492.605375 
L 156.772604 500.638932 
L 157.407489 501.202689 
L 158.042373 481.330206 
L 158.677258 505.148997 
L 159.312142 492.182555 
L 159.947027 500.14564 
L 160.581911 498.665776 
L 161.216796 520.793294 
L 161.85168 492.112084 
L 162.486565 485.910741 
L 163.121449 518.115438 
L 163.756334 508.602017 
L 164.391218 450.887252 
L 165.026103 476.820136 
L 165.660987 510.081882 
L 166.295872 495.283226 
L 166.930756 473.578533 
L 167.565641 497.326848 
L 168.200526 512.477859 
L 168.83541 514.028194 
L 169.470295 470.266449 
L 170.105179 514.239602 
L 170.740064 471.81678 
L 171.374948 506.135575 
L 172.009833 482.880541 
L 172.644717 494.578526 
L 173.279602 479.427521 
L 173.914486 460.964436 
L 174.549371 454.48121 
L 175.184255 530.306715 
L 175.81914 506.628861 
L 176.454024 514.380539 
L 177.088909 515.367117 
L 177.723793 504.514768 
L 178.358678 469.209405 
L 178.993562 498.383897 
L 179.628447 472.098664 
L 180.263331 506.558395 
L 180.898216 505.430875 
L 181.5331 474.494635 
L 182.167985 496.410741 
L 182.802869 494.226177 
L 183.437754 498.877183 
L 184.072638 520.229537 
L 184.707523 505.571817 
L 185.342407 481.330206 
L 185.977292 470.477862 
L 186.612176 491.195977 
L 187.247061 504.091953 
L 187.881945 458.28658 
L 189.151715 515.367117 
L 189.786599 496.692625 
L 190.421484 482.951012 
L 191.056368 500.216111 
L 191.691253 508.602017 
L 192.326137 518.467788 
L 192.961022 511.279868 
L 194.230791 467.800007 
L 194.865675 510.363761 
L 195.50056 503.739603 
L 196.135444 503.951011 
L 196.770329 501.484568 
L 197.405213 509.306717 
L 198.040098 453.424166 
L 198.674982 510.011416 
L 199.309867 489.152355 
L 199.944751 479.35705 
L 200.579636 483.16242 
L 201.21452 457.863765 
L 201.849405 507.474502 
L 202.484289 477.10202 
L 203.119174 515.789938 
L 203.754058 492.323497 
L 204.388943 494.014769 
L 205.023827 473.930878 
L 205.658712 497.608732 
L 206.293596 488.729534 
L 206.928481 476.39732 
L 207.563365 502.753025 
L 208.19825 475.340277 
L 208.833134 503.598661 
L 209.468019 487.179198 
L 210.102903 506.206046 
L 210.737788 504.867118 
L 212.007557 486.404033 
L 212.642442 487.249669 
L 213.277326 499.863761 
L 213.912211 499.018125 
L 214.547095 511.84363 
L 215.18198 491.477855 
L 215.816864 504.585239 
L 216.451749 504.373831 
L 217.086633 500.638932 
L 217.721518 483.16242 
L 218.356402 497.326848 
L 218.991287 473.36712 
L 219.626171 479.850341 
L 220.261056 509.940945 
L 220.89594 486.685912 
L 221.530825 503.316782 
L 222.165709 487.602019 
L 222.800594 450.74631 
L 224.070363 488.024834 
L 224.705247 497.46779 
L 225.340132 497.11544 
L 225.975016 490.138933 
L 226.609901 453.70605 
L 227.244785 466.108734 
L 227.87967 467.518123 
L 228.514554 500.709403 
L 229.149439 493.169133 
L 229.784323 472.098664 
L 230.419208 493.944298 
L 231.054092 510.011416 
L 231.688977 474.84698 
L 232.323862 532.138929 
L 232.958746 498.24296 
L 233.593631 497.89061 
L 234.228515 498.454368 
L 234.8634 490.843627 
L 235.498284 506.417453 
L 236.133169 483.867119 
L 236.768053 505.430875 
L 237.402938 497.820139 
L 238.037822 471.11208 
L 238.672707 450.605379 
L 239.307591 501.766447 
L 239.942476 487.67249 
L 240.57736 499.722825 
L 241.212245 499.793296 
L 241.847129 510.997989 
L 242.482014 513.253024 
L 243.116898 495.283226 
L 243.751783 444.544968 
L 244.386667 522.907387 
L 245.021552 497.397319 
L 245.656436 496.410741 
L 246.291321 472.944305 
L 246.926205 491.40739 
L 247.56109 502.682554 
L 248.195974 518.96108 
L 248.830859 503.457724 
L 249.465743 513.393966 
L 250.100628 490.420811 
L 250.735512 506.699332 
L 251.370397 503.316782 
L 252.005281 501.555039 
L 252.640166 519.242958 
L 253.909935 466.883894 
L 254.54482 505.994638 
L 255.179704 506.558395 
L 255.814589 453.353695 
L 256.449473 499.511412 
L 257.084358 493.098662 
L 257.719242 502.682554 
L 258.354127 465.897321 
L 258.989011 494.43759 
L 259.623896 509.447653 
L 260.25878 478.511419 
L 261.528549 508.249668 
L 262.163434 487.390611 
L 262.798318 507.122153 
L 263.433203 480.555041 
L 264.702972 529.672487 
L 265.337856 474.001349 
L 265.972741 454.692623 
L 266.607625 502.823496 
L 267.24251 508.672488 
L 267.877394 487.602019 
L 268.512279 484.642285 
L 269.147163 488.518126 
L 269.782048 516.494637 
L 270.416932 457.934236 
L 271.051817 520.722823 
L 271.686701 471.746309 
L 272.321586 484.219469 
L 272.95647 412.551684 
L 274.226239 494.789939 
L 274.861124 484.008056 
L 275.496009 484.360406 
L 276.130893 487.813427 
L 276.765778 470.055036 
L 277.400662 498.313426 
L 278.035547 518.044973 
L 278.670431 507.474502 
L 279.305316 490.209398 
L 279.9402 519.172487 
L 280.575085 504.796647 
L 281.209969 494.08524 
L 281.844854 506.558395 
L 282.479738 508.461081 
L 283.114623 491.195977 
L 283.749507 516.565103 
L 284.384392 493.944298 
L 285.019276 500.49799 
L 285.654161 516.846987 
L 286.92393 481.048327 
L 287.558814 490.279869 
L 288.193699 512.759738 
L 288.828583 490.843627 
L 289.463468 478.088593 
L 290.098352 499.229533 
L 290.733237 491.477855 
L 291.368121 515.085238 
L 292.003006 484.853698 
L 293.272775 500.568461 
L 293.907659 504.091953 
L 294.542544 475.269806 
L 295.177428 488.518126 
L 295.812313 492.675841 
L 296.447197 509.024838 
L 297.082082 517.763094 
L 297.716967 463.430879 
L 298.351851 471.605377 
L 298.986736 506.981211 
L 299.62162 502.612083 
L 300.256505 508.672488 
L 300.891389 500.85034 
L 301.526274 485.558392 
L 302.161158 479.427521 
L 302.796043 501.836918 
L 303.430927 503.52819 
L 304.065812 484.28994 
L 304.700696 497.256382 
L 305.335581 480.766448 
L 305.970465 518.820138 
L 306.60535 497.044969 
L 307.240234 511.138931 
L 307.875119 501.836918 
L 308.510003 494.296648 
L 309.144888 512.336917 
L 309.779772 472.873834 
L 310.414657 474.142291 
L 311.049541 464.065107 
L 311.684426 498.806718 
L 312.31931 485.487926 
L 312.954195 498.947654 
L 313.589079 479.991278 
L 314.223964 500.14564 
L 314.858848 516.142287 
L 315.493733 497.820139 
L 316.128617 513.816781 
L 316.763502 464.699335 
L 318.033271 485.417455 
L 318.668156 516.424166 
L 319.30304 484.28994 
L 319.937925 481.753027 
L 321.207694 499.088596 
L 321.842578 512.689267 
L 322.477463 505.148997 
L 323.112347 450.112082 
L 323.747232 516.353695 
L 324.382116 485.910741 
L 325.017001 488.236247 
L 325.651885 458.709396 
L 326.28677 454.340278 
L 327.556539 508.813425 
L 328.826308 484.008056 
L 329.461192 485.206047 
L 330.096077 461.034907 
L 330.730961 509.800003 
L 331.365846 466.742963 
L 332.00073 473.36712 
L 332.635615 506.840274 
L 333.270499 452.578525 
L 333.905384 498.524839 
L 334.540268 502.682554 
L 335.175153 498.313426 
L 335.810037 442.219467 
L 336.444922 433.199338 
L 337.079806 499.018125 
L 337.714691 515.789938 
L 338.349575 459.836921 
L 338.98446 494.43759 
L 340.254229 460.330208 
L 340.889114 497.749668 
L 341.523998 477.806719 
L 342.158883 503.52819 
L 342.793767 492.464433 
L 343.428652 498.383897 
L 344.063536 485.769805 
L 344.698421 487.602019 
L 345.333305 489.786583 
L 345.96819 527.276515 
L 346.603074 504.021482 
L 347.237959 490.138933 
L 347.872843 489.011413 
L 348.507728 495.846983 
L 349.142612 499.229533 
L 349.777497 509.024838 
L 350.412381 497.185911 
L 351.047266 491.900676 
L 351.68215 495.283226 
L 352.317035 477.524835 
L 352.951919 436.159067 
L 353.586804 477.736248 
L 354.221688 451.310068 
L 354.856573 484.571819 
L 355.491457 476.39732 
L 356.126342 494.930876 
L 356.761226 477.595306 
L 357.396111 511.42081 
L 358.030995 490.35034 
L 358.66588 452.296651 
L 359.300764 507.192624 
L 359.935649 501.695976 
L 360.570533 495.071818 
L 361.205418 474.776519 
L 361.840303 504.514768 
L 362.475187 448.561752 
L 363.110072 480.202691 
L 363.744956 480.202691 
L 364.379841 504.373831 
L 365.014725 471.675848 
L 365.64961 510.575174 
L 366.284494 498.383897 
L 366.919379 458.638935 
L 367.554263 464.346981 
L 368.189148 511.138931 
L 368.824032 458.99128 
L 369.458917 481.612085 
L 370.093801 440.598666 
L 370.728686 480.48457 
L 371.36357 471.04162 
L 371.998455 501.061747 
L 372.633339 498.736247 
L 373.268224 503.88054 
L 373.903108 511.491281 
L 374.537993 497.749668 
L 375.172877 487.461077 
L 375.807762 489.434233 
L 376.442646 474.917451 
L 377.077531 464.487922 
L 377.712415 495.353697 
L 378.3473 473.789936 
L 378.982184 500.709403 
L 379.617069 488.095305 
L 380.251953 496.481212 
L 380.886838 498.877183 
L 381.521722 507.544973 
L 382.156607 460.259737 
L 382.791491 489.081884 
L 383.426376 489.293291 
L 384.061261 463.50135 
L 384.696145 502.118796 
L 385.33103 504.444302 
L 385.965914 470.971149 
L 386.600799 458.004707 
L 387.235683 484.008056 
L 387.870568 490.35034 
L 388.505452 508.813425 
L 389.140337 475.058393 
L 389.775221 490.773161 
L 390.410106 486.122154 
L 391.04499 484.078527 
L 391.679875 490.35034 
L 392.314759 469.702692 
L 392.949644 476.961078 
L 393.584528 485.699334 
L 394.219413 498.172489 
L 394.854297 482.528192 
L 395.489182 488.024834 
L 396.124066 470.125507 
L 396.758951 480.836919 
L 397.393835 469.773163 
L 398.02872 512.407388 
L 398.663604 461.246309 
L 399.298489 482.246313 
L 399.933373 487.461077 
L 400.568258 502.893967 
L 401.203142 468.504706 
L 401.838027 475.128864 
L 402.472911 504.021482 
L 403.107796 504.021482 
L 403.74268 472.310076 
L 404.377565 504.373831 
L 405.01245 489.222826 
L 405.647334 445.108725 
L 406.282219 512.618796 
L 406.917103 463.430879 
L 407.551988 474.565106 
L 408.186872 511.491281 
L 408.821757 450.957723 
L 409.456641 468.716108 
L 410.091526 494.719468 
L 410.72641 510.152353 
L 411.361295 479.075171 
L 411.996179 439.753025 
L 412.631064 446.024838 
L 413.265948 448.350339 
L 413.900833 457.088594 
L 414.535717 479.145642 
L 415.170602 494.578526 
L 415.805486 468.786579 
L 416.440371 497.11544 
L 417.075255 507.474502 
L 417.71014 485.981212 
L 418.345024 470.125507 
L 418.979909 461.880538 
L 419.614793 475.058393 
L 420.249678 499.793296 
L 420.884562 491.336919 
L 421.519447 458.638935 
L 422.154331 472.873834 
L 422.789216 482.246313 
L 423.4241 519.877187 
L 424.058985 500.427519 
L 424.693869 496.904032 
L 425.328754 501.484568 
L 425.963638 469.491279 
L 426.598523 484.712756 
L 427.233408 483.091949 
L 427.868292 474.776519 
L 428.503177 454.904036 
L 429.138061 470.759736 
L 429.772946 470.830207 
L 430.40783 454.128865 
L 431.042715 489.857054 
L 431.677599 462.937592 
L 432.312484 486.122154 
L 432.947368 491.759734 
L 434.217137 452.155709 
L 434.852022 469.632221 
L 435.486906 471.393964 
L 436.121791 462.02148 
L 436.756675 487.813427 
L 437.39156 471.675848 
L 438.026444 492.253026 
L 438.661329 497.326848 
L 439.296213 448.138936 
L 439.931098 480.414099 
L 440.565982 477.454364 
L 441.200867 504.796647 
L 441.835751 502.964433 
L 443.10552 476.044976 
L 443.740405 451.310068 
L 444.375289 491.759734 
L 445.010174 456.806721 
L 445.645058 459.907392 
L 446.279943 483.726178 
L 446.914827 481.541614 
L 447.549712 491.618797 
L 448.184597 492.112084 
L 448.819481 489.786583 
L 449.454366 453.353695 
L 450.08925 457.229536 
L 450.724135 489.997991 
L 451.359019 499.300004 
L 451.993904 496.551683 
L 452.628788 458.357051 
L 453.263673 450.323495 
L 453.898557 479.004705 
L 454.533442 476.326849 
L 455.168326 451.310068 
L 455.803211 459.202693 
L 456.438095 452.648996 
L 457.07298 461.739606 
L 457.707864 500.568461 
L 458.342749 465.404035 
L 458.977633 495.776512 
L 459.612518 492.112084 
L 460.247402 469.068463 
L 460.882287 487.32014 
L 461.517171 483.796649 
L 462.152056 471.464435 
L 462.78694 486.826849 
L 463.421825 473.789936 
L 464.056709 491.689268 
L 464.691594 455.044967 
L 465.326478 430.38054 
L 465.961363 516.846987 
L 466.596247 468.011409 
L 467.231132 471.675848 
L 467.866016 467.30672 
L 468.500901 487.108727 
L 469.135785 493.944298 
L 469.77067 503.457724 
L 471.040439 464.346981 
L 471.675324 493.028191 
L 472.310208 469.279866 
L 472.945093 525.091951 
L 473.579977 500.004703 
L 474.214862 488.870476 
L 474.849746 481.964434 
L 475.484631 494.508061 
L 476.119515 478.934234 
L 476.7544 475.833563 
L 477.389284 488.236247 
L 478.024169 521.568459 
L 478.659053 450.887252 
L 479.293938 481.893963 
L 479.928822 484.078527 
L 480.563707 474.494635 
L 481.198591 484.712756 
L 481.833476 485.981212 
L 482.46836 471.887251 
L 483.103245 500.427519 
L 483.738129 464.628864 
L 484.373014 504.091953 
L 485.007898 486.967791 
L 485.642783 440.105369 
L 486.277667 485.346984 
L 486.912552 499.370475 
L 487.547436 483.585241 
L 488.182321 485.628863 
L 488.817205 483.021483 
L 489.45209 439.753025 
L 490.086974 520.793294 
L 490.721859 455.115438 
L 491.356744 484.853698 
L 491.991628 493.028191 
L 492.626513 496.76309 
L 493.261397 469.843634 
L 493.896282 487.531548 
L 494.531166 474.706048 
L 495.166051 472.380537 
L 495.800935 478.722821 
L 496.43582 495.142289 
L 497.070704 457.018123 
L 497.705589 457.229536 
L 498.340473 450.675839 
L 498.975358 483.373828 
L 499.610242 439.682554 
L 500.245127 460.753023 
L 500.880011 473.719465 
L 501.514896 484.148998 
L 502.14978 412.481213 
L 502.784665 482.951012 
L 503.419549 493.098662 
L 504.054434 470.33692 
L 504.689318 482.175842 
L 505.324203 490.70269 
L 505.959087 488.377184 
L 506.593972 415.581884 
L 507.228856 502.964433 
L 507.863741 487.32014 
L 508.498625 495.635575 
L 509.13351 492.393962 
L 509.768394 447.857052 
L 510.403279 510.927523 
L 511.038163 478.018122 
L 511.673048 500.779869 
L 512.307933 499.511412 
L 512.942817 502.893967 
L 513.577702 482.246313 
L 514.212586 454.340278 
L 514.847471 501.27316 
L 515.482355 436.863767 
L 516.11724 478.722821 
L 516.752124 475.481208 
L 517.387009 449.477853 
L 518.021893 460.189266 
L 518.656778 495.987925 
L 519.291662 496.76309 
L 519.926547 473.296649 
L 520.561431 477.031549 
L 521.196316 467.659065 
L 521.8312 504.444302 
L 522.466085 447.786581 
L 523.735854 475.199335 
L 524.370738 439.753025 
L 525.005623 455.326851 
L 525.640507 476.608733 
L 526.275392 459.977853 
L 526.910276 462.79665 
L 527.545161 484.571819 
L 528.180045 457.863765 
L 528.81493 461.810067 
L 529.449814 419.105371 
L 530.084699 475.481208 
L 530.719583 456.102022 
L 531.354468 480.625506 
L 531.989352 498.383897 
L 532.624237 431.789939 
L 533.259121 439.330209 
L 533.894006 489.293291 
L 534.528891 477.87719 
L 535.163775 470.618794 
L 535.79866 487.813427 
L 536.433544 463.50135 
L 537.068429 486.54497 
L 537.703313 423.826854 
L 538.338198 426.927525 
L 538.973082 460.400679 
L 539.607967 463.148995 
L 540.242851 470.759736 
L 540.877736 488.870476 
L 541.51262 501.977854 
L 542.147505 460.753023 
L 542.782389 470.33692 
L 543.417274 499.018125 
L 544.052158 451.310068 
L 544.687043 450.323495 
L 545.321927 470.900678 
L 545.956812 465.615437 
L 546.591696 478.722821 
L 547.226581 444.826852 
L 548.49635 498.595305 
L 549.131234 486.685912 
L 549.766119 491.336919 
L 550.401003 492.041618 
L 551.035888 486.826849 
L 551.670772 452.860408 
L 552.305657 478.863763 
L 552.940541 484.28994 
L 553.575426 468.363764 
L 554.21031 486.967791 
L 554.845195 494.578526 
L 555.48008 465.82685 
L 556.114964 400.289942 
L 556.749849 458.709396 
L 557.384733 460.189266 
L 558.019618 475.763092 
L 558.654502 447.081882 
L 559.289387 432.353697 
L 559.924271 481.118798 
L 560.559156 492.323497 
L 561.19404 457.863765 
L 561.828925 493.873832 
L 562.463809 473.36712 
L 563.098694 513.041616 
L 563.733578 496.76309 
L 565.003347 487.742956 
L 565.638232 487.531548 
L 566.273116 497.820139 
L 566.908001 490.773161 
L 567.542885 472.169134 
L 568.17777 466.179195 
L 568.812654 407.68927 
L 569.447539 456.665779 
L 570.082423 422.84027 
L 570.717308 485.699334 
L 571.352192 473.719465 
L 571.987077 479.35705 
L 572.621961 454.833565 
L 573.256846 509.236246 
L 573.89173 473.930878 
L 574.526615 493.451012 
L 575.161499 502.612083 
L 575.796384 449.055038 
L 576.431268 502.612083 
L 577.066153 451.310068 
L 577.701038 507.474502 
L 578.335922 452.367122 
L 578.970807 505.360409 
L 579.605691 452.719466 
L 580.240576 503.88054 
L 580.87546 481.471148 
L 581.510345 454.199336 
L 582.145229 443.276511 
L 582.780114 470.548323 
L 582.780114 470.548323 
" clip-path="url(#p2e7c003a14)" style="fill: none; stroke: #ff7f0e; stroke-width: 1.5; stroke-linecap: square"/>
   </g>
   <g id="line2d_37">
    <path d="M 50.14375 561.445558 
L 608.14375 561.445558 
" clip-path="url(#p2e7c003a14)" style="fill: none; stroke-dasharray: 11.1,4.8; stroke-dashoffset: 0; stroke: #ff0000; stroke-width: 3"/>
   </g>
   <g id="patch_3">
    <path d="M 50.14375 576.718125 
L 50.14375 22.318125 
" style="fill: none; stroke: #000000; stroke-width: 0.8; stroke-linejoin: miter; stroke-linecap: square"/>
   </g>
   <g id="patch_4">
    <path d="M 608.14375 576.718125 
L 608.14375 22.318125 
" style="fill: none; stroke: #000000; stroke-width: 0.8; stroke-linejoin: miter; stroke-linecap: square"/>
   </g>
   <g id="patch_5">
    <path d="M 50.14375 576.718125 
L 608.14375 576.718125 
" style="fill: none; stroke: #000000; stroke-width: 0.8; stroke-linejoin: miter; stroke-linecap: square"/>
   </g>
   <g id="patch_6">
    <path d="M 50.14375 22.318125 
L 608.14375 22.318125 
" style="fill: none; stroke: #000000; stroke-width: 0.8; stroke-linejoin: miter; stroke-linecap: square"/>
   </g>
   <g id="text_20">
    <!-- Train and Val Accuracy -->
    <g transform="translate(261.365313 16.318125) scale(0.12 -0.12)">
     <defs>
      <path id="DejaVuSans-54" d="M -19 4666 
L 3928 4666 
L 3928 4134 
L 2272 4134 
L 2272 0 
L 1638 0 
L 1638 4134 
L -19 4134 
L -19 4666 
z
" transform="scale(0.015625)"/>
      <path id="DejaVuSans-69" d="M 603 3500 
L 1178 3500 
L 1178 0 
L 603 0 
L 603 3500 
z
M 603 4863 
L 1178 4863 
L 1178 4134 
L 603 4134 
L 603 4863 
z
" transform="scale(0.015625)"/>
      <path id="DejaVuSans-6e" d="M 3513 2113 
L 3513 0 
L 2938 0 
L 2938 2094 
Q 2938 2591 2744 2837 
Q 2550 3084 2163 3084 
Q 1697 3084 1428 2787 
Q 1159 2491 1159 1978 
L 1159 0 
L 581 0 
L 581 3500 
L 1159 3500 
L 1159 2956 
Q 1366 3272 1645 3428 
Q 1925 3584 2291 3584 
Q 2894 3584 3203 3211 
Q 3513 2838 3513 2113 
z
" transform="scale(0.015625)"/>
      <path id="DejaVuSans-20" transform="scale(0.015625)"/>
      <path id="DejaVuSans-64" d="M 2906 2969 
L 2906 4863 
L 3481 4863 
L 3481 0 
L 2906 0 
L 2906 525 
Q 2725 213 2448 61 
Q 2172 -91 1784 -91 
Q 1150 -91 751 415 
Q 353 922 353 1747 
Q 353 2572 751 3078 
Q 1150 3584 1784 3584 
Q 2172 3584 2448 3432 
Q 2725 3281 2906 2969 
z
M 947 1747 
Q 947 1113 1208 752 
Q 1469 391 1925 391 
Q 2381 391 2643 752 
Q 2906 1113 2906 1747 
Q 2906 2381 2643 2742 
Q 2381 3103 1925 3103 
Q 1469 3103 1208 2742 
Q 947 2381 947 1747 
z
" transform="scale(0.015625)"/>
      <path id="DejaVuSans-56" d="M 1831 0 
L 50 4666 
L 709 4666 
L 2188 738 
L 3669 4666 
L 4325 4666 
L 2547 0 
L 1831 0 
z
" transform="scale(0.015625)"/>
      <path id="DejaVuSans-6c" d="M 603 4863 
L 1178 4863 
L 1178 0 
L 603 0 
L 603 4863 
z
" transform="scale(0.015625)"/>
     </defs>
     <use xlink:href="#DejaVuSans-54"/>
     <use xlink:href="#DejaVuSans-72" transform="translate(46.333984 0)"/>
     <use xlink:href="#DejaVuSans-61" transform="translate(87.447266 0)"/>
     <use xlink:href="#DejaVuSans-69" transform="translate(148.726562 0)"/>
     <use xlink:href="#DejaVuSans-6e" transform="translate(176.509766 0)"/>
     <use xlink:href="#DejaVuSans-20" transform="translate(239.888672 0)"/>
     <use xlink:href="#DejaVuSans-61" transform="translate(271.675781 0)"/>
     <use xlink:href="#DejaVuSans-6e" transform="translate(332.955078 0)"/>
     <use xlink:href="#DejaVuSans-64" transform="translate(396.333984 0)"/>
     <use xlink:href="#DejaVuSans-20" transform="translate(459.810547 0)"/>
     <use xlink:href="#DejaVuSans-56" transform="translate(491.597656 0)"/>
     <use xlink:href="#DejaVuSans-61" transform="translate(552.255859 0)"/>
     <use xlink:href="#DejaVuSans-6c" transform="translate(613.535156 0)"/>
     <use xlink:href="#DejaVuSans-20" transform="translate(641.318359 0)"/>
     <use xlink:href="#DejaVuSans-41" transform="translate(673.105469 0)"/>
     <use xlink:href="#DejaVuSans-63" transform="translate(739.763672 0)"/>
     <use xlink:href="#DejaVuSans-63" transform="translate(794.744141 0)"/>
     <use xlink:href="#DejaVuSans-75" transform="translate(849.724609 0)"/>
     <use xlink:href="#DejaVuSans-72" transform="translate(913.103516 0)"/>
     <use xlink:href="#DejaVuSans-61" transform="translate(954.216797 0)"/>
     <use xlink:href="#DejaVuSans-63" transform="translate(1015.496094 0)"/>
     <use xlink:href="#DejaVuSans-79" transform="translate(1070.476562 0)"/>
    </g>
   </g>
   <g id="legend_1">
    <g id="patch_7">
     <path d="M 434.020312 74.90875 
L 601.14375 74.90875 
Q 603.14375 74.90875 603.14375 72.90875 
L 603.14375 29.318125 
Q 603.14375 27.318125 601.14375 27.318125 
L 434.020312 27.318125 
Q 432.020312 27.318125 432.020312 29.318125 
L 432.020312 72.90875 
Q 432.020312 74.90875 434.020312 74.90875 
z
" style="fill: #ffffff; opacity: 0.8; stroke: #cccccc; stroke-linejoin: miter"/>
    </g>
    <g id="line2d_38">
     <path d="M 436.020312 35.416562 
L 446.020312 35.416562 
L 456.020312 35.416562 
" style="fill: none; stroke: #1f77b4; stroke-width: 1.5; stroke-linecap: square"/>
    </g>
    <g id="text_21">
     <!-- train_accuracy -->
     <g transform="translate(464.020312 38.916562) scale(0.1 -0.1)">
      <defs>
       <path id="DejaVuSans-74" d="M 1172 4494 
L 1172 3500 
L 2356 3500 
L 2356 3053 
L 1172 3053 
L 1172 1153 
Q 1172 725 1289 603 
Q 1406 481 1766 481 
L 2356 481 
L 2356 0 
L 1766 0 
Q 1100 0 847 248 
Q 594 497 594 1153 
L 594 3053 
L 172 3053 
L 172 3500 
L 594 3500 
L 594 4494 
L 1172 4494 
z
" transform="scale(0.015625)"/>
       <path id="DejaVuSans-5f" d="M 3263 -1063 
L 3263 -1509 
L -63 -1509 
L -63 -1063 
L 3263 -1063 
z
" transform="scale(0.015625)"/>
      </defs>
      <use xlink:href="#DejaVuSans-74"/>
      <use xlink:href="#DejaVuSans-72" transform="translate(39.208984 0)"/>
      <use xlink:href="#DejaVuSans-61" transform="translate(80.322266 0)"/>
      <use xlink:href="#DejaVuSans-69" transform="translate(141.601562 0)"/>
      <use xlink:href="#DejaVuSans-6e" transform="translate(169.384766 0)"/>
      <use xlink:href="#DejaVuSans-5f" transform="translate(232.763672 0)"/>
      <use xlink:href="#DejaVuSans-61" transform="translate(282.763672 0)"/>
      <use xlink:href="#DejaVuSans-63" transform="translate(344.042969 0)"/>
      <use xlink:href="#DejaVuSans-63" transform="translate(399.023438 0)"/>
      <use xlink:href="#DejaVuSans-75" transform="translate(454.003906 0)"/>
      <use xlink:href="#DejaVuSans-72" transform="translate(517.382812 0)"/>
      <use xlink:href="#DejaVuSans-61" transform="translate(558.496094 0)"/>
      <use xlink:href="#DejaVuSans-63" transform="translate(619.775391 0)"/>
      <use xlink:href="#DejaVuSans-79" transform="translate(674.755859 0)"/>
     </g>
    </g>
    <g id="line2d_39">
     <path d="M 436.020312 50.372812 
L 446.020312 50.372812 
L 456.020312 50.372812 
" style="fill: none; stroke: #ff7f0e; stroke-width: 1.5; stroke-linecap: square"/>
    </g>
    <g id="text_22">
     <!-- val_accuracy -->
     <g transform="translate(464.020312 53.872812) scale(0.1 -0.1)">
      <defs>
       <path id="DejaVuSans-76" d="M 191 3500 
L 800 3500 
L 1894 563 
L 2988 3500 
L 3597 3500 
L 2284 0 
L 1503 0 
L 191 3500 
z
" transform="scale(0.015625)"/>
      </defs>
      <use xlink:href="#DejaVuSans-76"/>
      <use xlink:href="#DejaVuSans-61" transform="translate(59.179688 0)"/>
      <use xlink:href="#DejaVuSans-6c" transform="translate(120.458984 0)"/>
      <use xlink:href="#DejaVuSans-5f" transform="translate(148.242188 0)"/>
      <use xlink:href="#DejaVuSans-61" transform="translate(198.242188 0)"/>
      <use xlink:href="#DejaVuSans-63" transform="translate(259.521484 0)"/>
      <use xlink:href="#DejaVuSans-63" transform="translate(314.501953 0)"/>
      <use xlink:href="#DejaVuSans-75" transform="translate(369.482422 0)"/>
      <use xlink:href="#DejaVuSans-72" transform="translate(432.861328 0)"/>
      <use xlink:href="#DejaVuSans-61" transform="translate(473.974609 0)"/>
      <use xlink:href="#DejaVuSans-63" transform="translate(535.253906 0)"/>
      <use xlink:href="#DejaVuSans-79" transform="translate(590.234375 0)"/>
     </g>
    </g>
    <g id="line2d_40">
     <path d="M 436.020312 65.329062 
L 446.020312 65.329062 
L 456.020312 65.329062 
" style="fill: none; stroke-dasharray: 11.1,4.8; stroke-dashoffset: 0; stroke: #ff0000; stroke-width: 3"/>
    </g>
    <g id="text_23">
     <!-- Random-Guesser Accuracy -->
     <g transform="translate(464.020312 68.829062) scale(0.1 -0.1)">
      <defs>
       <path id="DejaVuSans-52" d="M 2841 2188 
Q 3044 2119 3236 1894 
Q 3428 1669 3622 1275 
L 4263 0 
L 3584 0 
L 2988 1197 
Q 2756 1666 2539 1819 
Q 2322 1972 1947 1972 
L 1259 1972 
L 1259 0 
L 628 0 
L 628 4666 
L 2053 4666 
Q 2853 4666 3247 4331 
Q 3641 3997 3641 3322 
Q 3641 2881 3436 2590 
Q 3231 2300 2841 2188 
z
M 1259 4147 
L 1259 2491 
L 2053 2491 
Q 2509 2491 2742 2702 
Q 2975 2913 2975 3322 
Q 2975 3731 2742 3939 
Q 2509 4147 2053 4147 
L 1259 4147 
z
" transform="scale(0.015625)"/>
       <path id="DejaVuSans-6d" d="M 3328 2828 
Q 3544 3216 3844 3400 
Q 4144 3584 4550 3584 
Q 5097 3584 5394 3201 
Q 5691 2819 5691 2113 
L 5691 0 
L 5113 0 
L 5113 2094 
Q 5113 2597 4934 2840 
Q 4756 3084 4391 3084 
Q 3944 3084 3684 2787 
Q 3425 2491 3425 1978 
L 3425 0 
L 2847 0 
L 2847 2094 
Q 2847 2600 2669 2842 
Q 2491 3084 2119 3084 
Q 1678 3084 1418 2786 
Q 1159 2488 1159 1978 
L 1159 0 
L 581 0 
L 581 3500 
L 1159 3500 
L 1159 2956 
Q 1356 3278 1631 3431 
Q 1906 3584 2284 3584 
Q 2666 3584 2933 3390 
Q 3200 3197 3328 2828 
z
" transform="scale(0.015625)"/>
       <path id="DejaVuSans-2d" d="M 313 2009 
L 1997 2009 
L 1997 1497 
L 313 1497 
L 313 2009 
z
" transform="scale(0.015625)"/>
       <path id="DejaVuSans-47" d="M 3809 666 
L 3809 1919 
L 2778 1919 
L 2778 2438 
L 4434 2438 
L 4434 434 
Q 4069 175 3628 42 
Q 3188 -91 2688 -91 
Q 1594 -91 976 548 
Q 359 1188 359 2328 
Q 359 3472 976 4111 
Q 1594 4750 2688 4750 
Q 3144 4750 3555 4637 
Q 3966 4525 4313 4306 
L 4313 3634 
Q 3963 3931 3569 4081 
Q 3175 4231 2741 4231 
Q 1884 4231 1454 3753 
Q 1025 3275 1025 2328 
Q 1025 1384 1454 906 
Q 1884 428 2741 428 
Q 3075 428 3337 486 
Q 3600 544 3809 666 
z
" transform="scale(0.015625)"/>
       <path id="DejaVuSans-65" d="M 3597 1894 
L 3597 1613 
L 953 1613 
Q 991 1019 1311 708 
Q 1631 397 2203 397 
Q 2534 397 2845 478 
Q 3156 559 3463 722 
L 3463 178 
Q 3153 47 2828 -22 
Q 2503 -91 2169 -91 
Q 1331 -91 842 396 
Q 353 884 353 1716 
Q 353 2575 817 3079 
Q 1281 3584 2069 3584 
Q 2775 3584 3186 3129 
Q 3597 2675 3597 1894 
z
M 3022 2063 
Q 3016 2534 2758 2815 
Q 2500 3097 2075 3097 
Q 1594 3097 1305 2825 
Q 1016 2553 972 2059 
L 3022 2063 
z
" transform="scale(0.015625)"/>
      </defs>
      <use xlink:href="#DejaVuSans-52"/>
      <use xlink:href="#DejaVuSans-61" transform="translate(67.232422 0)"/>
      <use xlink:href="#DejaVuSans-6e" transform="translate(128.511719 0)"/>
      <use xlink:href="#DejaVuSans-64" transform="translate(191.890625 0)"/>
      <use xlink:href="#DejaVuSans-6f" transform="translate(255.367188 0)"/>
      <use xlink:href="#DejaVuSans-6d" transform="translate(316.548828 0)"/>
      <use xlink:href="#DejaVuSans-2d" transform="translate(413.960938 0)"/>
      <use xlink:href="#DejaVuSans-47" transform="translate(453.669922 0)"/>
      <use xlink:href="#DejaVuSans-75" transform="translate(531.160156 0)"/>
      <use xlink:href="#DejaVuSans-65" transform="translate(594.539062 0)"/>
      <use xlink:href="#DejaVuSans-73" transform="translate(656.0625 0)"/>
      <use xlink:href="#DejaVuSans-73" transform="translate(708.162109 0)"/>
      <use xlink:href="#DejaVuSans-65" transform="translate(760.261719 0)"/>
      <use xlink:href="#DejaVuSans-72" transform="translate(821.785156 0)"/>
      <use xlink:href="#DejaVuSans-20" transform="translate(862.898438 0)"/>
      <use xlink:href="#DejaVuSans-41" transform="translate(894.685547 0)"/>
      <use xlink:href="#DejaVuSans-63" transform="translate(961.34375 0)"/>
      <use xlink:href="#DejaVuSans-63" transform="translate(1016.324219 0)"/>
      <use xlink:href="#DejaVuSans-75" transform="translate(1071.304688 0)"/>
      <use xlink:href="#DejaVuSans-72" transform="translate(1134.683594 0)"/>
      <use xlink:href="#DejaVuSans-61" transform="translate(1175.796875 0)"/>
      <use xlink:href="#DejaVuSans-63" transform="translate(1237.076172 0)"/>
      <use xlink:href="#DejaVuSans-79" transform="translate(1292.056641 0)"/>
     </g>
    </g>
   </g>
  </g>
 </g>
 <defs>
  <clipPath id="p2e7c003a14">
   <rect x="50.14375" y="22.318125" width="558" height="554.4"/>
  </clipPath>
 </defs>
</svg>
