<?xml version="1.0" encoding="utf-8" standalone="no"?>
<!DOCTYPE svg PUBLIC "-//W3C//DTD SVG 1.1//EN"
  "http://www.w3.org/Graphics/SVG/1.1/DTD/svg11.dtd">
<svg xmlns:xlink="http://www.w3.org/1999/xlink" width="628.06875pt" height="614.274375pt" viewBox="0 0 628.06875 614.274375" xmlns="http://www.w3.org/2000/svg" version="1.1">
 <metadata>
  <rdf:RDF xmlns:dc="http://purl.org/dc/elements/1.1/" xmlns:cc="http://creativecommons.org/ns#" xmlns:rdf="http://www.w3.org/1999/02/22-rdf-syntax-ns#">
   <cc:Work>
    <dc:type rdf:resource="http://purl.org/dc/dcmitype/StillImage"/>
    <dc:date>2026-05-22T13:10:09.522908</dc:date>
    <dc:format>image/svg+xml</dc:format>
    <dc:creator>
     <cc:Agent>
      <dc:title>Matplotlib v3.10.9, https://matplotlib.org/</dc:title>
     </cc:Agent>
    </dc:creator>
   </cc:Work>
  </rdf:RDF>
 </metadata>
 <defs>
  <style type="text/css">*{stroke-linejoin: round; stroke-linecap: butt}</style>
 </defs>
 <g id="figure_1">
  <g id="patch_1">
   <path d="M 0 614.274375 
L 628.06875 614.274375 
L 628.06875 0 
L 0 0 
z
" style="fill: #ffffff"/>
  </g>
  <g id="axes_1">
   <g id="patch_2">
    <path d="M 62.86875 576.718125 
L 620.86875 576.718125 
L 620.86875 22.318125 
L 62.86875 22.318125 
z
" style="fill: #ffffff"/>
   </g>
   <g id="matplotlib.axis_1">
    <g id="xtick_1">
     <g id="line2d_1">
      <path d="M 88.232386 576.718125 
L 88.232386 22.318125 
" clip-path="url(#p6ed1220d64)" style="fill: none; stroke: #b0b0b0; stroke-width: 0.8; stroke-linecap: square"/>
     </g>
     <g id="line2d_2">
      <defs>
       <path id="m0c002c04b2" d="M 0 0 
L 0 3.5 
" style="stroke: #000000; stroke-width: 0.8"/>
      </defs>
      <g>
       <use xlink:href="#m0c002c04b2" x="88.232386" y="576.718125" style="stroke: #000000; stroke-width: 0.8"/>
      </g>
     </g>
     <g id="text_1">
      <!-- 0 -->
      <g transform="translate(85.051136 591.316563) scale(0.1 -0.1)">
       <defs>
        <path id="DejaVuSans-30" d="M 2034 4250 
Q 1547 4250 1301 3770 
Q 1056 3291 1056 2328 
Q 1056 1369 1301 889 
Q 1547 409 2034 409 
Q 2525 409 2770 889 
Q 3016 1369 3016 2328 
Q 3016 3291 2770 3770 
Q 2525 4250 2034 4250 
z
M 2034 4750 
Q 2819 4750 3233 4129 
Q 3647 3509 3647 2328 
Q 3647 1150 3233 529 
Q 2819 -91 2034 -91 
Q 1250 -91 836 529 
Q 422 1150 422 2328 
Q 422 3509 836 4129 
Q 1250 4750 2034 4750 
z
" transform="scale(0.015625)"/>
       </defs>
       <use xlink:href="#DejaVuSans-30"/>
      </g>
     </g>
    </g>
    <g id="xtick_2">
     <g id="line2d_3">
      <path d="M 151.720838 576.718125 
L 151.720838 22.318125 
" clip-path="url(#p6ed1220d64)" style="fill: none; stroke: #b0b0b0; stroke-width: 0.8; stroke-linecap: square"/>
     </g>
     <g id="line2d_4">
      <g>
       <use xlink:href="#m0c002c04b2" x="151.720838" y="576.718125" style="stroke: #000000; stroke-width: 0.8"/>
      </g>
     </g>
     <g id="text_2">
      <!-- 100 -->
      <g transform="translate(142.177088 591.316563) scale(0.1 -0.1)">
       <defs>
        <path id="DejaVuSans-31" d="M 794 531 
L 1825 531 
L 1825 4091 
L 703 3866 
L 703 4441 
L 1819 4666 
L 2450 4666 
L 2450 531 
L 3481 531 
L 3481 0 
L 794 0 
L 794 531 
z
" transform="scale(0.015625)"/>
       </defs>
       <use xlink:href="#DejaVuSans-31"/>
       <use xlink:href="#DejaVuSans-30" transform="translate(63.623047 0)"/>
       <use xlink:href="#DejaVuSans-30" transform="translate(127.246094 0)"/>
      </g>
     </g>
    </g>
    <g id="xtick_3">
     <g id="line2d_5">
      <path d="M 215.209289 576.718125 
L 215.209289 22.318125 
" clip-path="url(#p6ed1220d64)" style="fill: none; stroke: #b0b0b0; stroke-width: 0.8; stroke-linecap: square"/>
     </g>
     <g id="line2d_6">
      <g>
       <use xlink:href="#m0c002c04b2" x="215.209289" y="576.718125" style="stroke: #000000; stroke-width: 0.8"/>
      </g>
     </g>
     <g id="text_3">
      <!-- 200 -->
      <g transform="translate(205.665539 591.316563) scale(0.1 -0.1)">
       <defs>
        <path id="DejaVuSans-32" d="M 1228 531 
L 3431 531 
L 3431 0 
L 469 0 
L 469 531 
Q 828 903 1448 1529 
Q 2069 2156 2228 2338 
Q 2531 2678 2651 2914 
Q 2772 3150 2772 3378 
Q 2772 3750 2511 3984 
Q 2250 4219 1831 4219 
Q 1534 4219 1204 4116 
Q 875 4013 500 3803 
L 500 4441 
Q 881 4594 1212 4672 
Q 1544 4750 1819 4750 
Q 2544 4750 2975 4387 
Q 3406 4025 3406 3419 
Q 3406 3131 3298 2873 
Q 3191 2616 2906 2266 
Q 2828 2175 2409 1742 
Q 1991 1309 1228 531 
z
" transform="scale(0.015625)"/>
       </defs>
       <use xlink:href="#DejaVuSans-32"/>
       <use xlink:href="#DejaVuSans-30" transform="translate(63.623047 0)"/>
       <use xlink:href="#DejaVuSans-30" transform="translate(127.246094 0)"/>
      </g>
     </g>
    </g>
    <g id="xtick_4">
     <g id="line2d_7">
      <path d="M 278.697741 576.718125 
L 278.697741 22.318125 
" clip-path="url(#p6ed1220d64)" style="fill: none; stroke: #b0b0b0; stroke-width: 0.8; stroke-linecap: square"/>
     </g>
     <g id="line2d_8">
      <g>
       <use xlink:href="#m0c002c04b2" x="278.697741" y="576.718125" style="stroke: #000000; stroke-width: 0.8"/>
      </g>
     </g>
     <g id="text_4">
      <!-- 300 -->
      <g transform="translate(269.153991 591.316563) scale(0.1 -0.1)">
       <defs>
        <path id="DejaVuSans-33" d="M 2597 2516 
Q 3050 2419 3304 2112 
Q 3559 1806 3559 1356 
Q 3559 666 3084 287 
Q 2609 -91 1734 -91 
Q 1441 -91 1130 -33 
Q 819 25 488 141 
L 488 750 
Q 750 597 1062 519 
Q 1375 441 1716 441 
Q 2309 441 2620 675 
Q 2931 909 2931 1356 
Q 2931 1769 2642 2001 
Q 2353 2234 1838 2234 
L 1294 2234 
L 1294 2753 
L 1863 2753 
Q 2328 2753 2575 2939 
Q 2822 3125 2822 3475 
Q 2822 3834 2567 4026 
Q 2313 4219 1838 4219 
Q 1578 4219 1281 4162 
Q 984 4106 628 3988 
L 628 4550 
Q 988 4650 1302 4700 
Q 1616 4750 1894 4750 
Q 2613 4750 3031 4423 
Q 3450 4097 3450 3541 
Q 3450 3153 3228 2886 
Q 3006 2619 2597 2516 
z
" transform="scale(0.015625)"/>
       </defs>
       <use xlink:href="#DejaVuSans-33"/>
       <use xlink:href="#DejaVuSans-30" transform="translate(63.623047 0)"/>
       <use xlink:href="#DejaVuSans-30" transform="translate(127.246094 0)"/>
      </g>
     </g>
    </g>
    <g id="xtick_5">
     <g id="line2d_9">
      <path d="M 342.186192 576.718125 
L 342.186192 22.318125 
" clip-path="url(#p6ed1220d64)" style="fill: none; stroke: #b0b0b0; stroke-width: 0.8; stroke-linecap: square"/>
     </g>
     <g id="line2d_10">
      <g>
       <use xlink:href="#m0c002c04b2" x="342.186192" y="576.718125" style="stroke: #000000; stroke-width: 0.8"/>
      </g>
     </g>
     <g id="text_5">
      <!-- 400 -->
      <g transform="translate(332.642442 591.316563) scale(0.1 -0.1)">
       <defs>
        <path id="DejaVuSans-34" d="M 2419 4116 
L 825 1625 
L 2419 1625 
L 2419 4116 
z
M 2253 4666 
L 3047 4666 
L 3047 1625 
L 3713 1625 
L 3713 1100 
L 3047 1100 
L 3047 0 
L 2419 0 
L 2419 1100 
L 313 1100 
L 313 1709 
L 2253 4666 
z
" transform="scale(0.015625)"/>
       </defs>
       <use xlink:href="#DejaVuSans-34"/>
       <use xlink:href="#DejaVuSans-30" transform="translate(63.623047 0)"/>
       <use xlink:href="#DejaVuSans-30" transform="translate(127.246094 0)"/>
      </g>
     </g>
    </g>
    <g id="xtick_6">
     <g id="line2d_11">
      <path d="M 405.674644 576.718125 
L 405.674644 22.318125 
" clip-path="url(#p6ed1220d64)" style="fill: none; stroke: #b0b0b0; stroke-width: 0.8; stroke-linecap: square"/>
     </g>
     <g id="line2d_12">
      <g>
       <use xlink:href="#m0c002c04b2" x="405.674644" y="576.718125" style="stroke: #000000; stroke-width: 0.8"/>
      </g>
     </g>
     <g id="text_6">
      <!-- 500 -->
      <g transform="translate(396.130894 591.316563) scale(0.1 -0.1)">
       <defs>
        <path id="DejaVuSans-35" d="M 691 4666 
L 3169 4666 
L 3169 4134 
L 1269 4134 
L 1269 2991 
Q 1406 3038 1543 3061 
Q 1681 3084 1819 3084 
Q 2600 3084 3056 2656 
Q 3513 2228 3513 1497 
Q 3513 744 3044 326 
Q 2575 -91 1722 -91 
Q 1428 -91 1123 -41 
Q 819 9 494 109 
L 494 744 
Q 775 591 1075 516 
Q 1375 441 1709 441 
Q 2250 441 2565 725 
Q 2881 1009 2881 1497 
Q 2881 1984 2565 2268 
Q 2250 2553 1709 2553 
Q 1456 2553 1204 2497 
Q 953 2441 691 2322 
L 691 4666 
z
" transform="scale(0.015625)"/>
       </defs>
       <use xlink:href="#DejaVuSans-35"/>
       <use xlink:href="#DejaVuSans-30" transform="translate(63.623047 0)"/>
       <use xlink:href="#DejaVuSans-30" transform="translate(127.246094 0)"/>
      </g>
     </g>
    </g>
    <g id="xtick_7">
     <g id="line2d_13">
      <path d="M 469.163095 576.718125 
L 469.163095 22.318125 
" clip-path="url(#p6ed1220d64)" style="fill: none; stroke: #b0b0b0; stroke-width: 0.8; stroke-linecap: square"/>
     </g>
     <g id="line2d_14">
      <g>
       <use xlink:href="#m0c002c04b2" x="469.163095" y="576.718125" style="stroke: #000000; stroke-width: 0.8"/>
      </g>
     </g>
     <g id="text_7">
      <!-- 600 -->
      <g transform="translate(459.619345 591.316563) scale(0.1 -0.1)">
       <defs>
        <path id="DejaVuSans-36" d="M 2113 2584 
Q 1688 2584 1439 2293 
Q 1191 2003 1191 1497 
Q 1191 994 1439 701 
Q 1688 409 2113 409 
Q 2538 409 2786 701 
Q 3034 994 3034 1497 
Q 3034 2003 2786 2293 
Q 2538 2584 2113 2584 
z
M 3366 4563 
L 3366 3988 
Q 3128 4100 2886 4159 
Q 2644 4219 2406 4219 
Q 1781 4219 1451 3797 
Q 1122 3375 1075 2522 
Q 1259 2794 1537 2939 
Q 1816 3084 2150 3084 
Q 2853 3084 3261 2657 
Q 3669 2231 3669 1497 
Q 3669 778 3244 343 
Q 2819 -91 2113 -91 
Q 1303 -91 875 529 
Q 447 1150 447 2328 
Q 447 3434 972 4092 
Q 1497 4750 2381 4750 
Q 2619 4750 2861 4703 
Q 3103 4656 3366 4563 
z
" transform="scale(0.015625)"/>
       </defs>
       <use xlink:href="#DejaVuSans-36"/>
       <use xlink:href="#DejaVuSans-30" transform="translate(63.623047 0)"/>
       <use xlink:href="#DejaVuSans-30" transform="translate(127.246094 0)"/>
      </g>
     </g>
    </g>
    <g id="xtick_8">
     <g id="line2d_15">
      <path d="M 532.651547 576.718125 
L 532.651547 22.318125 
" clip-path="url(#p6ed1220d64)" style="fill: none; stroke: #b0b0b0; stroke-width: 0.8; stroke-linecap: square"/>
     </g>
     <g id="line2d_16">
      <g>
       <use xlink:href="#m0c002c04b2" x="532.651547" y="576.718125" style="stroke: #000000; stroke-width: 0.8"/>
      </g>
     </g>
     <g id="text_8">
      <!-- 700 -->
      <g transform="translate(523.107797 591.316563) scale(0.1 -0.1)">
       <defs>
        <path id="DejaVuSans-37" d="M 525 4666 
L 3525 4666 
L 3525 4397 
L 1831 0 
L 1172 0 
L 2766 4134 
L 525 4134 
L 525 4666 
z
" transform="scale(0.015625)"/>
       </defs>
       <use xlink:href="#DejaVuSans-37"/>
       <use xlink:href="#DejaVuSans-30" transform="translate(63.623047 0)"/>
       <use xlink:href="#DejaVuSans-30" transform="translate(127.246094 0)"/>
      </g>
     </g>
    </g>
    <g id="xtick_9">
     <g id="line2d_17">
      <path d="M 596.139998 576.718125 
L 596.139998 22.318125 
" clip-path="url(#p6ed1220d64)" style="fill: none; stroke: #b0b0b0; stroke-width: 0.8; stroke-linecap: square"/>
     </g>
     <g id="line2d_18">
      <g>
       <use xlink:href="#m0c002c04b2" x="596.139998" y="576.718125" style="stroke: #000000; stroke-width: 0.8"/>
      </g>
     </g>
     <g id="text_9">
      <!-- 800 -->
      <g transform="translate(586.596248 591.316563) scale(0.1 -0.1)">
       <defs>
        <path id="DejaVuSans-38" d="M 2034 2216 
Q 1584 2216 1326 1975 
Q 1069 1734 1069 1313 
Q 1069 891 1326 650 
Q 1584 409 2034 409 
Q 2484 409 2743 651 
Q 3003 894 3003 1313 
Q 3003 1734 2745 1975 
Q 2488 2216 2034 2216 
z
M 1403 2484 
Q 997 2584 770 2862 
Q 544 3141 544 3541 
Q 544 4100 942 4425 
Q 1341 4750 2034 4750 
Q 2731 4750 3128 4425 
Q 3525 4100 3525 3541 
Q 3525 3141 3298 2862 
Q 3072 2584 2669 2484 
Q 3125 2378 3379 2068 
Q 3634 1759 3634 1313 
Q 3634 634 3220 271 
Q 2806 -91 2034 -91 
Q 1263 -91 848 271 
Q 434 634 434 1313 
Q 434 1759 690 2068 
Q 947 2378 1403 2484 
z
M 1172 3481 
Q 1172 3119 1398 2916 
Q 1625 2713 2034 2713 
Q 2441 2713 2670 2916 
Q 2900 3119 2900 3481 
Q 2900 3844 2670 4047 
Q 2441 4250 2034 4250 
Q 1625 4250 1398 4047 
Q 1172 3844 1172 3481 
z
" transform="scale(0.015625)"/>
       </defs>
       <use xlink:href="#DejaVuSans-38"/>
       <use xlink:href="#DejaVuSans-30" transform="translate(63.623047 0)"/>
       <use xlink:href="#DejaVuSans-30" transform="translate(127.246094 0)"/>
      </g>
     </g>
    </g>
    <g id="text_10">
     <!-- Epochs -->
     <g transform="translate(323.953125 604.994688) scale(0.1 -0.1)">
      <defs>
       <path id="DejaVuSans-45" d="M 628 4666 
L 3578 4666 
L 3578 4134 
L 1259 4134 
L 1259 2753 
L 3481 2753 
L 3481 2222 
L 1259 2222 
L 1259 531 
L 3634 531 
L 3634 0 
L 628 0 
L 628 4666 
z
" transform="scale(0.015625)"/>
       <path id="DejaVuSans-70" d="M 1159 525 
L 1159 -1331 
L 581 -1331 
L 581 3500 
L 1159 3500 
L 1159 2969 
Q 1341 3281 1617 3432 
Q 1894 3584 2278 3584 
Q 2916 3584 3314 3078 
Q 3713 2572 3713 1747 
Q 3713 922 3314 415 
Q 2916 -91 2278 -91 
Q 1894 -91 1617 61 
Q 1341 213 1159 525 
z
M 3116 1747 
Q 3116 2381 2855 2742 
Q 2594 3103 2138 3103 
Q 1681 3103 1420 2742 
Q 1159 2381 1159 1747 
Q 1159 1113 1420 752 
Q 1681 391 2138 391 
Q 2594 391 2855 752 
Q 3116 1113 3116 1747 
z
" transform="scale(0.015625)"/>
       <path id="DejaVuSans-6f" d="M 1959 3097 
Q 1497 3097 1228 2736 
Q 959 2375 959 1747 
Q 959 1119 1226 758 
Q 1494 397 1959 397 
Q 2419 397 2687 759 
Q 2956 1122 2956 1747 
Q 2956 2369 2687 2733 
Q 2419 3097 1959 3097 
z
M 1959 3584 
Q 2709 3584 3137 3096 
Q 3566 2609 3566 1747 
Q 3566 888 3137 398 
Q 2709 -91 1959 -91 
Q 1206 -91 779 398 
Q 353 888 353 1747 
Q 353 2609 779 3096 
Q 1206 3584 1959 3584 
z
" transform="scale(0.015625)"/>
       <path id="DejaVuSans-63" d="M 3122 3366 
L 3122 2828 
Q 2878 2963 2633 3030 
Q 2388 3097 2138 3097 
Q 1578 3097 1268 2742 
Q 959 2388 959 1747 
Q 959 1106 1268 751 
Q 1578 397 2138 397 
Q 2388 397 2633 464 
Q 2878 531 3122 666 
L 3122 134 
Q 2881 22 2623 -34 
Q 2366 -91 2075 -91 
Q 1284 -91 818 406 
Q 353 903 353 1747 
Q 353 2603 823 3093 
Q 1294 3584 2113 3584 
Q 2378 3584 2631 3529 
Q 2884 3475 3122 3366 
z
" transform="scale(0.015625)"/>
       <path id="DejaVuSans-68" d="M 3513 2113 
L 3513 0 
L 2938 0 
L 2938 2094 
Q 2938 2591 2744 2837 
Q 2550 3084 2163 3084 
Q 1697 3084 1428 2787 
Q 1159 2491 1159 1978 
L 1159 0 
L 581 0 
L 581 4863 
L 1159 4863 
L 1159 2956 
Q 1366 3272 1645 3428 
Q 1925 3584 2291 3584 
Q 2894 3584 3203 3211 
Q 3513 2838 3513 2113 
z
" transform="scale(0.015625)"/>
       <path id="DejaVuSans-73" d="M 2834 3397 
L 2834 2853 
Q 2591 2978 2328 3040 
Q 2066 3103 1784 3103 
Q 1356 3103 1142 2972 
Q 928 2841 928 2578 
Q 928 2378 1081 2264 
Q 1234 2150 1697 2047 
L 1894 2003 
Q 2506 1872 2764 1633 
Q 3022 1394 3022 966 
Q 3022 478 2636 193 
Q 2250 -91 1575 -91 
Q 1294 -91 989 -36 
Q 684 19 347 128 
L 347 722 
Q 666 556 975 473 
Q 1284 391 1588 391 
Q 1994 391 2212 530 
Q 2431 669 2431 922 
Q 2431 1156 2273 1281 
Q 2116 1406 1581 1522 
L 1381 1569 
Q 847 1681 609 1914 
Q 372 2147 372 2553 
Q 372 3047 722 3315 
Q 1072 3584 1716 3584 
Q 2034 3584 2315 3537 
Q 2597 3491 2834 3397 
z
" transform="scale(0.015625)"/>
      </defs>
      <use xlink:href="#DejaVuSans-45"/>
      <use xlink:href="#DejaVuSans-70" transform="translate(63.183594 0)"/>
      <use xlink:href="#DejaVuSans-6f" transform="translate(126.660156 0)"/>
      <use xlink:href="#DejaVuSans-63" transform="translate(187.841797 0)"/>
      <use xlink:href="#DejaVuSans-68" transform="translate(242.822266 0)"/>
      <use xlink:href="#DejaVuSans-73" transform="translate(306.201172 0)"/>
     </g>
    </g>
   </g>
   <g id="matplotlib.axis_2">
    <g id="ytick_1">
     <g id="line2d_19">
      <path d="M 62.86875 542.944337 
L 620.86875 542.944337 
" clip-path="url(#p6ed1220d64)" style="fill: none; stroke: #b0b0b0; stroke-width: 0.8; stroke-linecap: square"/>
     </g>
     <g id="line2d_20">
      <defs>
       <path id="ma85c9a9981" d="M 0 0 
L -3.5 0 
" style="stroke: #000000; stroke-width: 0.8"/>
      </defs>
      <g>
       <use xlink:href="#ma85c9a9981" x="62.86875" y="542.944337" style="stroke: #000000; stroke-width: 0.8"/>
      </g>
     </g>
     <g id="text_11">
      <!-- 0.6775 -->
      <g transform="translate(20.878125 546.743556) scale(0.1 -0.1)">
       <defs>
        <path id="DejaVuSans-2e" d="M 684 794 
L 1344 794 
L 1344 0 
L 684 0 
L 684 794 
z
" transform="scale(0.015625)"/>
       </defs>
       <use xlink:href="#DejaVuSans-30"/>
       <use xlink:href="#DejaVuSans-2e" transform="translate(63.623047 0)"/>
       <use xlink:href="#DejaVuSans-36" transform="translate(95.410156 0)"/>
       <use xlink:href="#DejaVuSans-37" transform="translate(159.033203 0)"/>
       <use xlink:href="#DejaVuSans-37" transform="translate(222.65625 0)"/>
       <use xlink:href="#DejaVuSans-35" transform="translate(286.279297 0)"/>
      </g>
     </g>
    </g>
    <g id="ytick_2">
     <g id="line2d_21">
      <path d="M 62.86875 477.701018 
L 620.86875 477.701018 
" clip-path="url(#p6ed1220d64)" style="fill: none; stroke: #b0b0b0; stroke-width: 0.8; stroke-linecap: square"/>
     </g>
     <g id="line2d_22">
      <g>
       <use xlink:href="#ma85c9a9981" x="62.86875" y="477.701018" style="stroke: #000000; stroke-width: 0.8"/>
      </g>
     </g>
     <g id="text_12">
      <!-- 0.6800 -->
      <g transform="translate(20.878125 481.500236) scale(0.1 -0.1)">
       <use xlink:href="#DejaVuSans-30"/>
       <use xlink:href="#DejaVuSans-2e" transform="translate(63.623047 0)"/>
       <use xlink:href="#DejaVuSans-36" transform="translate(95.410156 0)"/>
       <use xlink:href="#DejaVuSans-38" transform="translate(159.033203 0)"/>
       <use xlink:href="#DejaVuSans-30" transform="translate(222.65625 0)"/>
       <use xlink:href="#DejaVuSans-30" transform="translate(286.279297 0)"/>
      </g>
     </g>
    </g>
    <g id="ytick_3">
     <g id="line2d_23">
      <path d="M 62.86875 412.457698 
L 620.86875 412.457698 
" clip-path="url(#p6ed1220d64)" style="fill: none; stroke: #b0b0b0; stroke-width: 0.8; stroke-linecap: square"/>
     </g>
     <g id="line2d_24">
      <g>
       <use xlink:href="#ma85c9a9981" x="62.86875" y="412.457698" style="stroke: #000000; stroke-width: 0.8"/>
      </g>
     </g>
     <g id="text_13">
      <!-- 0.6825 -->
      <g transform="translate(20.878125 416.256917) scale(0.1 -0.1)">
       <use xlink:href="#DejaVuSans-30"/>
       <use xlink:href="#DejaVuSans-2e" transform="translate(63.623047 0)"/>
       <use xlink:href="#DejaVuSans-36" transform="translate(95.410156 0)"/>
       <use xlink:href="#DejaVuSans-38" transform="translate(159.033203 0)"/>
       <use xlink:href="#DejaVuSans-32" transform="translate(222.65625 0)"/>
       <use xlink:href="#DejaVuSans-35" transform="translate(286.279297 0)"/>
      </g>
     </g>
    </g>
    <g id="ytick_4">
     <g id="line2d_25">
      <path d="M 62.86875 347.214379 
L 620.86875 347.214379 
" clip-path="url(#p6ed1220d64)" style="fill: none; stroke: #b0b0b0; stroke-width: 0.8; stroke-linecap: square"/>
     </g>
     <g id="line2d_26">
      <g>
       <use xlink:href="#ma85c9a9981" x="62.86875" y="347.214379" style="stroke: #000000; stroke-width: 0.8"/>
      </g>
     </g>
     <g id="text_14">
      <!-- 0.6850 -->
      <g transform="translate(20.878125 351.013598) scale(0.1 -0.1)">
       <use xlink:href="#DejaVuSans-30"/>
       <use xlink:href="#DejaVuSans-2e" transform="translate(63.623047 0)"/>
       <use xlink:href="#DejaVuSans-36" transform="translate(95.410156 0)"/>
       <use xlink:href="#DejaVuSans-38" transform="translate(159.033203 0)"/>
       <use xlink:href="#DejaVuSans-35" transform="translate(222.65625 0)"/>
       <use xlink:href="#DejaVuSans-30" transform="translate(286.279297 0)"/>
      </g>
     </g>
    </g>
    <g id="ytick_5">
     <g id="line2d_27">
      <path d="M 62.86875 281.97106 
L 620.86875 281.97106 
" clip-path="url(#p6ed1220d64)" style="fill: none; stroke: #b0b0b0; stroke-width: 0.8; stroke-linecap: square"/>
     </g>
     <g id="line2d_28">
      <g>
       <use xlink:href="#ma85c9a9981" x="62.86875" y="281.97106" style="stroke: #000000; stroke-width: 0.8"/>
      </g>
     </g>
     <g id="text_15">
      <!-- 0.6875 -->
      <g transform="translate(20.878125 285.770278) scale(0.1 -0.1)">
       <use xlink:href="#DejaVuSans-30"/>
       <use xlink:href="#DejaVuSans-2e" transform="translate(63.623047 0)"/>
       <use xlink:href="#DejaVuSans-36" transform="translate(95.410156 0)"/>
       <use xlink:href="#DejaVuSans-38" transform="translate(159.033203 0)"/>
       <use xlink:href="#DejaVuSans-37" transform="translate(222.65625 0)"/>
       <use xlink:href="#DejaVuSans-35" transform="translate(286.279297 0)"/>
      </g>
     </g>
    </g>
    <g id="ytick_6">
     <g id="line2d_29">
      <path d="M 62.86875 216.72774 
L 620.86875 216.72774 
" clip-path="url(#p6ed1220d64)" style="fill: none; stroke: #b0b0b0; stroke-width: 0.8; stroke-linecap: square"/>
     </g>
     <g id="line2d_30">
      <g>
       <use xlink:href="#ma85c9a9981" x="62.86875" y="216.72774" style="stroke: #000000; stroke-width: 0.8"/>
      </g>
     </g>
     <g id="text_16">
      <!-- 0.6900 -->
      <g transform="translate(20.878125 220.526959) scale(0.1 -0.1)">
       <defs>
        <path id="DejaVuSans-39" d="M 703 97 
L 703 672 
Q 941 559 1184 500 
Q 1428 441 1663 441 
Q 2288 441 2617 861 
Q 2947 1281 2994 2138 
Q 2813 1869 2534 1725 
Q 2256 1581 1919 1581 
Q 1219 1581 811 2004 
Q 403 2428 403 3163 
Q 403 3881 828 4315 
Q 1253 4750 1959 4750 
Q 2769 4750 3195 4129 
Q 3622 3509 3622 2328 
Q 3622 1225 3098 567 
Q 2575 -91 1691 -91 
Q 1453 -91 1209 -44 
Q 966 3 703 97 
z
M 1959 2075 
Q 2384 2075 2632 2365 
Q 2881 2656 2881 3163 
Q 2881 3666 2632 3958 
Q 2384 4250 1959 4250 
Q 1534 4250 1286 3958 
Q 1038 3666 1038 3163 
Q 1038 2656 1286 2365 
Q 1534 2075 1959 2075 
z
" transform="scale(0.015625)"/>
       </defs>
       <use xlink:href="#DejaVuSans-30"/>
       <use xlink:href="#DejaVuSans-2e" transform="translate(63.623047 0)"/>
       <use xlink:href="#DejaVuSans-36" transform="translate(95.410156 0)"/>
       <use xlink:href="#DejaVuSans-39" transform="translate(159.033203 0)"/>
       <use xlink:href="#DejaVuSans-30" transform="translate(222.65625 0)"/>
       <use xlink:href="#DejaVuSans-30" transform="translate(286.279297 0)"/>
      </g>
     </g>
    </g>
    <g id="ytick_7">
     <g id="line2d_31">
      <path d="M 62.86875 151.484421 
L 620.86875 151.484421 
" clip-path="url(#p6ed1220d64)" style="fill: none; stroke: #b0b0b0; stroke-width: 0.8; stroke-linecap: square"/>
     </g>
     <g id="line2d_32">
      <g>
       <use xlink:href="#ma85c9a9981" x="62.86875" y="151.484421" style="stroke: #000000; stroke-width: 0.8"/>
      </g>
     </g>
     <g id="text_17">
      <!-- 0.6925 -->
      <g transform="translate(20.878125 155.28364) scale(0.1 -0.1)">
       <use xlink:href="#DejaVuSans-30"/>
       <use xlink:href="#DejaVuSans-2e" transform="translate(63.623047 0)"/>
       <use xlink:href="#DejaVuSans-36" transform="translate(95.410156 0)"/>
       <use xlink:href="#DejaVuSans-39" transform="translate(159.033203 0)"/>
       <use xlink:href="#DejaVuSans-32" transform="translate(222.65625 0)"/>
       <use xlink:href="#DejaVuSans-35" transform="translate(286.279297 0)"/>
      </g>
     </g>
    </g>
    <g id="ytick_8">
     <g id="line2d_33">
      <path d="M 62.86875 86.241102 
L 620.86875 86.241102 
" clip-path="url(#p6ed1220d64)" style="fill: none; stroke: #b0b0b0; stroke-width: 0.8; stroke-linecap: square"/>
     </g>
     <g id="line2d_34">
      <g>
       <use xlink:href="#ma85c9a9981" x="62.86875" y="86.241102" style="stroke: #000000; stroke-width: 0.8"/>
      </g>
     </g>
     <g id="text_18">
      <!-- 0.6950 -->
      <g transform="translate(20.878125 90.04032) scale(0.1 -0.1)">
       <use xlink:href="#DejaVuSans-30"/>
       <use xlink:href="#DejaVuSans-2e" transform="translate(63.623047 0)"/>
       <use xlink:href="#DejaVuSans-36" transform="translate(95.410156 0)"/>
       <use xlink:href="#DejaVuSans-39" transform="translate(159.033203 0)"/>
       <use xlink:href="#DejaVuSans-35" transform="translate(222.65625 0)"/>
       <use xlink:href="#DejaVuSans-30" transform="translate(286.279297 0)"/>
      </g>
     </g>
    </g>
    <g id="text_19">
     <!-- Loss -->
     <g transform="translate(14.798438 310.485313) rotate(-90) scale(0.1 -0.1)">
      <defs>
       <path id="DejaVuSans-4c" d="M 628 4666 
L 1259 4666 
L 1259 531 
L 3531 531 
L 3531 0 
L 628 0 
L 628 4666 
z
" transform="scale(0.015625)"/>
      </defs>
      <use xlink:href="#DejaVuSans-4c"/>
      <use xlink:href="#DejaVuSans-6f" transform="translate(53.962891 0)"/>
      <use xlink:href="#DejaVuSans-73" transform="translate(115.144531 0)"/>
      <use xlink:href="#DejaVuSans-73" transform="translate(167.244141 0)"/>
     </g>
    </g>
   </g>
   <g id="line2d_35">
    <path d="M 88.232386 47.518125 
L 88.867271 128.066163 
L 89.502155 129.438133 
L 90.13704 130.327891 
L 90.771924 130.065008 
L 91.406809 130.458555 
L 92.041693 130.617219 
L 92.676578 130.617219 
L 93.311462 131.007655 
L 93.946347 131.855414 
L 94.581232 135.114232 
L 95.216116 146.027774 
L 97.755654 207.626444 
L 99.025423 230.884608 
L 100.295192 250.031527 
L 100.930077 257.544698 
L 101.564961 266.963384 
L 104.104499 294.283016 
L 105.374268 306.297867 
L 106.009153 311.283315 
L 106.644037 317.471182 
L 107.278922 322.055305 
L 107.913806 327.844957 
L 111.723113 353.028858 
L 112.357998 355.421251 
L 112.992882 360.650915 
L 113.627767 364.197505 
L 114.262651 366.957001 
L 114.897536 368.75674 
L 116.167305 375.294599 
L 116.80219 377.484774 
L 117.437074 381.569575 
L 119.341728 390.415828 
L 120.611497 394.761956 
L 121.246381 396.488586 
L 121.881266 400.007176 
L 122.51615 400.990266 
L 123.151035 403.902203 
L 123.785919 405.645943 
L 124.420804 406.871695 
L 125.690573 412.004917 
L 126.325457 413.501329 
L 126.960342 414.185759 
L 127.595226 417.555019 
L 128.864995 421.011389 
L 129.49988 420.193184 
L 130.134764 422.836016 
L 130.769649 422.920014 
L 131.404533 426.023281 
L 132.039418 428.204123 
L 132.674302 426.407495 
L 133.944071 432.470919 
L 134.578956 433.388677 
L 135.21384 434.556874 
L 135.848725 436.015954 
L 136.483609 438.837671 
L 137.118494 438.20924 
L 137.753379 440.103865 
L 138.388263 441.004513 
L 139.023148 442.900694 
L 139.658032 443.258464 
L 140.292917 444.199555 
L 140.927801 447.822365 
L 141.562686 448.301466 
L 142.19757 446.946606 
L 142.832455 449.034117 
L 143.467339 451.594506 
L 144.102224 452.754925 
L 144.737108 450.420087 
L 145.371993 452.384711 
L 146.006877 451.995831 
L 146.641762 456.564399 
L 147.276646 455.105319 
L 147.911531 457.570821 
L 148.546415 458.160364 
L 149.1813 459.154343 
L 149.816184 458.580355 
L 150.451069 460.026991 
L 151.085953 461.817396 
L 151.720838 461.394294 
L 152.355722 462.82693 
L 152.990607 461.686732 
L 153.625491 464.324898 
L 154.260376 464.881775 
L 154.89526 466.194635 
L 156.165029 467.067283 
L 156.799914 466.420186 
L 157.434798 467.113949 
L 158.069683 470.265436 
L 159.339452 470.952977 
L 159.974337 472.186506 
L 160.609221 473.080931 
L 161.244106 472.75116 
L 161.87899 474.316015 
L 162.513875 472.090063 
L 163.148759 473.782471 
L 163.783644 476.249529 
L 164.418528 475.08911 
L 165.053413 476.661742 
L 165.688297 475.692652 
L 166.323182 476.165531 
L 166.958066 476.873293 
L 167.592951 476.772184 
L 168.227835 479.667011 
L 168.86272 479.662344 
L 169.497604 480.27522 
L 170.132489 480.716988 
L 170.767373 482.558726 
L 171.402258 481.603635 
L 172.037142 481.942739 
L 172.672027 482.809165 
L 173.306911 481.640968 
L 173.941796 484.616682 
L 174.57668 483.132714 
L 175.211565 483.415819 
L 175.846449 485.741324 
L 176.481334 485.004006 
L 177.116218 485.26689 
L 177.751103 486.192425 
L 178.385987 486.687081 
L 179.020872 487.015296 
L 179.655756 486.780413 
L 180.290641 488.412155 
L 180.925526 486.543973 
L 181.56041 488.50082 
L 182.195295 488.692149 
L 182.830179 489.096585 
L 183.465064 489.992565 
L 184.099948 491.112541 
L 184.734833 489.104362 
L 186.639486 492.772283 
L 187.274371 491.394091 
L 187.909255 491.963412 
L 188.54414 491.820304 
L 189.179024 491.918302 
L 189.813909 493.727374 
L 190.448793 493.042944 
L 191.083678 493.742929 
L 191.718562 495.786885 
L 192.353447 495.830439 
L 192.988331 494.548689 
L 193.623216 493.914036 
L 194.2581 493.901592 
L 194.892985 494.156698 
L 195.527869 496.838417 
L 196.797638 495.789996 
L 198.067407 496.858639 
L 198.702292 496.905305 
L 199.337176 495.863105 
L 199.972061 498.468604 
L 200.606945 498.697266 
L 201.24183 495.912882 
L 201.876715 500.293232 
L 202.511599 497.471515 
L 203.146484 500.546782 
L 203.781368 501.050771 
L 204.416253 499.39414 
L 205.051137 498.818597 
L 205.686022 499.92924 
L 206.320906 498.473271 
L 206.955791 500.588781 
L 207.590675 501.685424 
L 208.22556 499.06748 
L 208.860444 501.378986 
L 209.495329 502.696513 
L 210.130213 500.843886 
L 210.765098 501.467651 
L 211.399982 502.677847 
L 212.034867 505.126238 
L 212.669751 503.055839 
L 213.304636 503.412053 
L 213.93952 504.418476 
L 214.574405 503.401165 
L 215.209289 503.931598 
L 215.844174 503.914487 
L 216.479058 504.656471 
L 217.113943 502.928286 
L 217.748827 505.826223 
L 218.383712 504.334478 
L 219.018596 505.711115 
L 219.653481 504.497808 
L 220.288365 507.168639 
L 220.92325 506.885534 
L 221.558134 505.899333 
L 222.193019 507.140639 
L 222.827903 507.899734 
L 223.462788 506.031552 
L 224.097673 507.24797 
L 224.732557 505.695559 
L 225.367442 506.163772 
L 226.002326 508.133062 
L 226.637211 507.322635 
L 227.90698 508.769271 
L 228.541864 509.407035 
L 229.176749 507.667961 
L 229.811633 507.697516 
L 230.446518 507.980621 
L 231.081402 509.452145 
L 231.716287 508.627718 
L 232.351171 509.173707 
L 232.986056 510.813227 
L 233.62094 508.493943 
L 234.255825 509.904802 
L 234.890709 509.823915 
L 235.525594 511.242551 
L 236.160478 511.617431 
L 237.430247 508.744382 
L 238.065132 509.494144 
L 238.700016 510.886336 
L 239.334901 509.511255 
L 239.969785 508.535943 
L 240.60467 511.058999 
L 241.239554 510.530122 
L 241.874439 512.264529 
L 242.509323 512.956736 
L 243.144208 512.885182 
L 243.779092 510.539455 
L 244.413977 513.844939 
L 245.048862 510.905002 
L 245.683746 513.264729 
L 246.318631 513.844939 
L 246.953515 509.774138 
L 247.5884 513.681609 
L 248.223284 513.658276 
L 248.858169 512.770073 
L 249.493053 513.550945 
L 250.127938 515.185799 
L 250.762822 514.468703 
L 251.397707 514.319373 
L 252.032591 512.315861 
L 252.667476 514.090711 
L 253.30236 514.997581 
L 253.937245 515.562235 
L 254.572129 514.093822 
L 255.207014 516.938872 
L 255.841898 515.271353 
L 256.476783 515.924672 
L 257.111667 514.588478 
L 257.746552 514.969581 
L 258.381436 515.53268 
L 259.016321 514.98047 
L 259.651205 516.497104 
L 260.28609 517.442861 
L 260.920974 515.948005 
L 261.555859 515.582457 
L 262.190743 516.649545 
L 262.825628 519.096381 
L 263.460512 515.820452 
L 264.095397 517.781965 
L 264.730281 517.170645 
L 265.365166 518.191067 
L 266.00005 516.551547 
L 266.634935 517.125535 
L 267.904704 517.747743 
L 268.539589 517.620191 
L 269.174473 518.922163 
L 269.809358 516.377329 
L 270.444242 519.909919 
L 271.079127 520.678347 
L 271.714011 519.21149 
L 272.348896 518.262621 
L 272.98378 520.295688 
L 273.618665 519.205268 
L 274.253549 520.577238 
L 274.888434 520.22569 
L 275.523318 520.902342 
L 276.158203 518.85372 
L 276.793087 519.21149 
L 277.427972 520.09036 
L 278.062856 519.765255 
L 278.697741 519.216156 
L 279.332625 519.706146 
L 279.96751 521.19478 
L 280.602394 518.928385 
L 281.237279 519.102603 
L 281.872163 518.279732 
L 282.507048 521.512107 
L 283.141932 518.533282 
L 283.776817 521.527662 
L 284.411701 521.16367 
L 285.046586 520.34391 
L 285.68147 522.842078 
L 286.316355 522.96652 
L 286.951239 520.886787 
L 287.586124 521.837211 
L 288.221009 522.572973 
L 288.855893 522.218314 
L 289.490778 522.870077 
L 290.125662 522.527862 
L 290.760547 522.731636 
L 291.395431 523.635394 
L 292.030316 524.282491 
L 292.6652 520.084137 
L 293.300085 520.7919 
L 293.934969 522.082983 
L 294.569854 522.306978 
L 295.839623 522.16387 
L 296.474507 522.840522 
L 297.109392 522.944742 
L 297.744276 524.808258 
L 298.379161 523.073851 
L 299.014045 524.123828 
L 299.64893 521.683214 
L 300.283814 522.655415 
L 300.918699 524.420933 
L 301.553583 523.304068 
L 302.188468 525.862902 
L 302.823352 523.218514 
L 303.458237 522.770524 
L 304.093121 525.299803 
L 304.728006 525.99201 
L 305.36289 523.431621 
L 305.997775 524.707149 
L 306.632659 524.660483 
L 307.267544 527.583309 
L 307.902428 525.996676 
L 308.537313 526.345113 
L 309.172197 525.413356 
L 309.807082 526.737105 
L 310.441967 526.110229 
L 311.076851 524.117606 
L 311.711736 524.893811 
L 312.34662 527.549087 
L 312.981505 526.384001 
L 313.616389 526.632885 
L 314.251274 526.044898 
L 314.886158 527.986189 
L 315.521043 528.662841 
L 316.155927 526.121118 
L 316.790812 526.328003 
L 317.425696 525.394689 
L 318.060581 525.631129 
L 318.695465 527.687529 
L 319.33035 523.837612 
L 319.965234 527.104208 
L 320.600119 526.883324 
L 321.235003 529.015944 
L 321.869888 528.109075 
L 322.504772 527.555309 
L 323.139657 528.446623 
L 323.774541 526.73866 
L 324.409426 527.85397 
L 325.04431 526.769771 
L 325.679195 526.635996 
L 326.314079 527.052876 
L 326.948964 529.457713 
L 327.583848 528.558621 
L 328.218733 525.528464 
L 328.853617 528.701729 
L 329.488502 528.015744 
L 330.123386 528.356403 
L 330.758271 530.017701 
L 331.393156 529.219718 
L 332.02804 527.816637 
L 332.662925 529.504378 
L 333.297809 528.424846 
L 333.932694 528.286405 
L 334.567578 529.38927 
L 335.202463 527.720195 
L 335.837347 529.621043 
L 336.472232 530.471913 
L 337.107116 528.149519 
L 337.742001 530.378582 
L 338.376885 528.049965 
L 339.01177 527.74975 
L 339.646654 531.87966 
L 340.281539 530.087699 
L 340.916423 531.29634 
L 341.551308 527.970634 
L 342.186192 529.824816 
L 342.821077 530.524801 
L 343.455961 530.028589 
L 344.72573 531.520335 
L 345.360615 531.283895 
L 345.995499 531.175009 
L 346.630384 529.924369 
L 347.265268 531.010124 
L 347.900153 530.787684 
L 348.535037 534.180277 
L 349.804806 530.442358 
L 350.439691 531.405226 
L 351.074575 530.979013 
L 351.70946 531.958992 
L 352.344344 528.658174 
L 352.979229 530.807906 
L 353.614114 529.544822 
L 354.248998 531.108122 
L 354.883883 532.130099 
L 355.518767 532.746086 
L 356.788536 531.335228 
L 357.423421 533.004303 
L 358.058305 531.408337 
L 358.69319 532.260763 
L 359.328074 532.585867 
L 359.962959 529.859037 
L 360.597843 531.385004 
L 361.232728 532.462981 
L 361.867612 531.23723 
L 362.502497 533.587623 
L 363.137381 531.798773 
L 363.772266 533.469404 
L 364.40715 532.858084 
L 366.311804 533.450738 
L 366.946688 532.018102 
L 367.581573 532.528313 
L 368.216457 533.530069 
L 368.851342 533.76962 
L 369.486226 532.517424 
L 370.121111 534.612712 
L 370.755995 535.150923 
L 371.39088 536.326898 
L 372.025764 534.628268 
L 372.660649 533.996726 
L 373.295533 535.446472 
L 373.930418 533.430516 
L 374.565303 534.387162 
L 375.200187 534.6796 
L 375.835072 534.664045 
L 376.469956 536.638002 
L 377.104841 533.472515 
L 377.739725 534.970483 
L 378.37461 532.358761 
L 379.009494 531.198342 
L 379.644379 532.294985 
L 380.279263 536.126235 
L 381.549032 532.629422 
L 382.183917 535.353141 
L 382.818801 533.236076 
L 383.453686 535.183589 
L 384.08857 534.754265 
L 384.723455 533.556513 
L 385.358339 535.444917 
L 385.993224 532.501869 
L 386.628108 534.35294 
L 387.262993 537.306876 
L 387.897877 533.923616 
L 388.532762 535.759132 
L 389.167646 533.229853 
L 389.802531 535.129146 
L 390.437415 536.395341 
L 391.0723 534.581602 
L 391.707184 535.034259 
L 392.342069 536.025126 
L 392.976953 536.031348 
L 393.611838 536.312898 
L 394.246722 535.704689 
L 394.881607 534.236276 
L 395.516491 535.854019 
L 396.151376 534.525603 
L 396.786261 536.563337 
L 397.421145 534.673378 
L 398.05603 534.751154 
L 398.690914 535.217811 
L 399.325799 534.805597 
L 399.960683 535.556914 
L 400.595568 534.965816 
L 401.230452 534.656267 
L 401.865337 535.084036 
L 402.500221 534.790042 
L 403.135106 536.687779 
L 403.76999 535.819797 
L 404.404875 537.03466 
L 405.039759 536.107569 
L 405.674644 537.04866 
L 406.309528 535.29092 
L 406.944413 537.140436 
L 407.579297 535.96135 
L 408.214182 537.798421 
L 409.483951 537.154435 
L 410.118835 539.217057 
L 410.75372 533.895617 
L 411.388604 536.471561 
L 412.023489 533.810063 
L 412.658373 537.417319 
L 413.293258 536.37823 
L 413.928142 538.386409 
L 414.563027 538.111081 
L 415.197911 537.48265 
L 415.832796 536.571115 
L 416.46768 537.978862 
L 417.102565 536.074903 
L 417.73745 537.697312 
L 418.372334 538.184191 
L 419.007219 539.50794 
L 419.642103 537.054882 
L 420.276988 537.121769 
L 420.911872 535.950461 
L 421.546757 540.358811 
L 422.181641 536.403118 
L 422.816526 539.73038 
L 423.45141 537.109325 
L 424.086295 538.835955 
L 424.721179 537.412652 
L 425.356064 538.695958 
L 425.990948 538.487518 
L 426.625833 537.829532 
L 427.895602 539.949708 
L 428.530486 538.95573 
L 429.165371 537.471762 
L 429.800255 540.025929 
L 430.43514 538.299299 
L 431.070024 537.342653 
L 431.704909 541.667004 
L 432.339793 537.820199 
L 432.974678 537.796866 
L 433.609562 538.187302 
L 434.244447 537.291321 
L 434.879331 537.723756 
L 435.514216 537.54176 
L 436.1491 539.559272 
L 436.783985 538.725512 
L 437.418869 539.49394 
L 438.053754 535.7078 
L 438.688638 538.440852 
L 439.323523 539.134615 
L 439.958408 538.422186 
L 440.593292 540.220369 
L 441.228177 540.473919 
L 441.863061 539.658826 
L 442.497946 539.862599 
L 443.13283 537.635092 
L 443.767715 538.940175 
L 444.402599 538.442408 
L 445.672368 539.976152 
L 446.307253 540.979464 
L 446.942137 538.958841 
L 447.577022 540.750802 
L 448.846791 538.7924 
L 449.481675 538.691291 
L 450.11656 540.385254 
L 450.751444 540.576584 
L 451.386329 541.018352 
L 452.021213 540.788135 
L 452.656098 540.063261 
L 453.290982 538.890398 
L 453.925867 542.149216 
L 454.560751 539.369499 
L 455.195636 541.250125 
L 455.83052 538.445519 
L 456.465405 541.149016 
L 457.100289 539.927931 
L 457.735174 538.349076 
L 458.370058 539.907709 
L 459.004943 542.679649 
L 459.639827 541.267235 
L 460.274712 540.921909 
L 460.909597 539.008617 
L 461.544481 539.49394 
L 462.179366 541.281235 
L 462.81425 541.304568 
L 463.449135 540.985686 
L 464.084019 539.305722 
L 464.718904 539.770823 
L 465.353788 540.774135 
L 465.988673 542.931644 
L 466.623557 540.301256 
L 467.258442 540.615472 
L 467.893326 541.155238 
L 468.528211 540.93902 
L 469.163095 540.221925 
L 469.79798 541.455454 
L 470.432864 540.749247 
L 471.067749 542.805647 
L 471.702633 541.430565 
L 472.337518 539.563939 
L 472.972402 540.207925 
L 473.607287 541.20657 
L 474.242171 542.667205 
L 474.877056 541.537896 
L 475.51194 541.348123 
L 476.146825 544.690939 
L 476.781709 543.692294 
L 477.416594 541.556562 
L 478.051478 541.343456 
L 478.686363 543.612962 
L 479.321247 543.175861 
L 479.956132 542.063663 
L 480.591016 543.126084 
L 481.225901 543.505631 
L 481.860785 543.636295 
L 482.49567 540.62636 
L 483.130555 543.121418 
L 483.765439 543.238082 
L 484.400324 542.500764 
L 485.670093 543.182083 
L 486.304977 541.433676 
L 486.939862 540.755469 
L 487.574746 540.816134 
L 488.209631 541.211237 
L 488.844515 543.122973 
L 489.4794 541.041685 
L 490.114284 542.959643 
L 490.749169 542.762092 
L 491.384053 543.454299 
L 492.018938 543.304969 
L 492.653822 542.615873 
L 493.288707 545.891802 
L 493.923591 543.588074 
L 494.558476 540.760135 
L 495.19336 541.593895 
L 495.828245 540.823912 
L 496.463129 541.872333 
L 497.098014 541.780558 
L 497.732898 543.11364 
L 498.367783 542.659428 
L 499.637552 541.242347 
L 500.272436 542.342101 
L 500.907321 544.939823 
L 501.542205 543.087196 
L 502.17709 543.115195 
L 502.811974 541.75878 
L 503.446859 544.284948 
L 504.081744 543.326746 
L 504.716628 545.546476 
L 505.351513 544.964711 
L 505.986397 544.578942 
L 507.256166 543.122973 
L 507.891051 543.205416 
L 508.525935 542.780758 
L 509.16082 544.501165 
L 509.795704 544.900935 
L 510.430589 544.384501 
L 511.065473 544.054731 
L 512.335242 544.740716 
L 512.970127 543.871179 
L 513.605011 544.638051 
L 514.239896 545.633585 
L 514.87478 544.308281 
L 515.509665 543.371857 
L 516.144549 544.347169 
L 516.779434 543.980066 
L 517.414318 544.112285 
L 518.049203 544.02362 
L 518.684087 544.664495 
L 519.318972 544.809159 
L 519.953856 545.138929 
L 520.588741 546.512455 
L 521.223625 542.852312 
L 521.85851 545.118708 
L 522.493394 544.213394 
L 523.128279 544.012732 
L 523.763163 544.474722 
L 524.398048 544.689384 
L 525.032933 544.689384 
L 525.667817 543.533631 
L 526.302702 544.742271 
L 526.937586 546.938668 
L 527.572471 545.188706 
L 528.207355 546.360014 
L 528.84224 545.57292 
L 529.477124 545.913579 
L 530.112009 546.689785 
L 530.746893 544.61783 
L 531.381778 546.209129 
L 532.016662 543.539853 
L 532.651547 545.717584 
L 533.286431 546.201351 
L 533.921316 544.54472 
L 534.5562 544.88849 
L 535.191085 545.922913 
L 535.825969 543.345413 
L 536.460854 544.675384 
L 537.095738 544.715828 
L 537.730623 546.201351 
L 538.365507 544.194728 
L 539.000392 546.126686 
L 539.635276 546.86867 
L 540.270161 545.949356 
L 540.905045 547.332215 
L 541.53993 545.955579 
L 542.174814 545.829581 
L 542.809699 546.501567 
L 543.444583 546.014688 
L 544.079468 547.105109 
L 544.714352 545.106264 
L 545.349237 546.067576 
L 545.984121 545.862247 
L 546.619006 544.678495 
L 547.253891 547.5391 
L 547.888775 546.188907 
L 548.52366 546.608898 
L 549.158544 546.355348 
L 549.793429 545.478033 
L 550.428313 544.885379 
L 551.063198 547.660431 
L 551.698082 546.702229 
L 552.332967 546.209129 
L 552.967851 547.131553 
L 553.602736 543.50252 
L 554.23762 547.437991 
L 554.872505 545.957134 
L 555.507389 546.241795 
L 556.142274 546.391125 
L 556.777158 546.666452 
L 557.412043 547.526656 
L 558.046927 545.846692 
L 559.316696 548.07731 
L 559.951581 547.542211 
L 560.586465 546.506233 
L 561.22135 548.666853 
L 561.856234 548.064866 
L 563.126003 545.210483 
L 563.760888 546.943335 
L 564.395772 546.766005 
L 565.030657 548.327749 
L 565.665541 548.456858 
L 566.300426 547.25755 
L 566.93531 547.403769 
L 567.570195 548.680853 
L 568.20508 547.755317 
L 568.839964 548.543967 
L 569.474849 547.378881 
L 570.109733 548.298195 
L 570.744618 548.41797 
L 571.379502 545.613364 
L 572.014387 547.38977 
L 572.649271 547.028889 
L 573.284156 547.759984 
L 573.91904 547.42088 
L 574.553925 546.605787 
L 575.188809 550.56459 
L 575.823694 548.741518 
L 576.458578 550.082378 
L 577.093463 548.688631 
L 577.728347 546.848448 
L 578.363232 548.792851 
L 579.633001 549.441503 
L 580.267885 551.518125 
L 580.90277 549.113288 
L 581.537654 548.46308 
L 582.172539 549.004402 
L 582.807423 547.861093 
L 583.442308 547.37577 
L 584.077192 550.214598 
L 584.712077 547.759984 
L 585.346961 546.364681 
L 585.981846 550.009269 
L 586.61673 547.945091 
L 587.251615 550.090156 
L 587.886499 547.865759 
L 588.521384 549.621944 
L 589.156268 548.5533 
L 589.791153 547.901536 
L 590.426038 549.606389 
L 591.060922 549.492835 
L 591.695807 548.764851 
L 592.330691 549.681054 
L 592.965576 548.618632 
L 593.60046 546.313349 
L 594.235345 548.64352 
L 594.870229 548.576633 
L 595.505114 548.141087 
L 595.505114 548.141087 
" clip-path="url(#p6ed1220d64)" style="fill: none; stroke: #1f77b4; stroke-width: 1.5; stroke-linecap: square"/>
   </g>
   <g id="line2d_36">
    <path d="M 88.232386 130.068119 
L 88.867271 126.387754 
L 89.502155 132.594287 
L 90.13704 133.726707 
L 90.771924 129.904789 
L 91.406809 127.072184 
L 92.041693 132.399847 
L 92.676578 132.311182 
L 93.311462 132.966057 
L 93.946347 133.014278 
L 95.216116 149.848136 
L 95.851001 171.617666 
L 96.485885 185.645363 
L 97.12077 196.106248 
L 97.755654 198.430198 
L 99.025423 216.860022 
L 99.660308 231.863031 
L 100.295192 234.816967 
L 100.930077 225.33295 
L 101.564961 242.420359 
L 102.199846 246.108501 
L 102.83473 233.472996 
L 103.469615 251.299278 
L 104.104499 257.137152 
L 104.739384 269.414886 
L 105.374268 254.237659 
L 106.009153 259.044222 
L 106.644037 272.879034 
L 107.278922 271.517952 
L 107.913806 278.765129 
L 108.548691 282.666378 
L 109.183575 266.093847 
L 109.81846 275.251205 
L 110.453344 279.0949 
L 111.088229 288.546251 
L 111.723113 281.546402 
L 112.357998 301.271976 
L 112.992882 280.547757 
L 113.627767 296.418748 
L 114.262651 284.151901 
L 115.53242 304.44213 
L 116.167305 305.706769 
L 116.80219 304.218135 
L 117.437074 299.25602 
L 118.071959 310.378001 
L 118.706843 298.657144 
L 119.341728 325.517897 
L 119.976612 322.537517 
L 120.611497 304.747012 
L 121.246381 310.032676 
L 121.881266 309.674906 
L 122.51615 323.973263 
L 123.151035 320.745555 
L 123.785919 296.465413 
L 124.420804 320.571337 
L 125.055688 336.317885 
L 125.690573 310.448 
L 126.325457 342.382866 
L 126.960342 301.345086 
L 127.595226 337.190533 
L 128.230111 331.613987 
L 128.864995 307.610728 
L 129.49988 337.388085 
L 130.134764 328.773604 
L 130.769649 324.313923 
L 131.404533 341.779323 
L 132.039418 340.799344 
L 132.674302 339.2516 
L 133.309187 338.203178 
L 133.944071 341.507107 
L 134.578956 343.165293 
L 135.21384 313.162386 
L 135.848725 345.089474 
L 136.483609 339.218934 
L 137.118494 324.099261 
L 137.753379 342.882188 
L 138.388263 340.430686 
L 139.023148 347.553421 
L 139.658032 335.891672 
L 140.292917 333.455725 
L 140.927801 324.242369 
L 141.562686 338.52206 
L 142.19757 358.389186 
L 142.832455 339.435151 
L 143.467339 295.26455 
L 144.102224 337.920073 
L 144.737108 365.52281 
L 145.371993 362.371323 
L 146.006877 336.142112 
L 146.641762 325.08235 
L 147.276646 327.362746 
L 148.546415 365.466811 
L 149.1813 325.703004 
L 149.816184 351.849772 
L 150.451069 348.569176 
L 151.085953 312.154408 
L 151.720838 340.99534 
L 152.355722 352.943304 
L 152.990607 346.354113 
L 153.625491 368.171864 
L 154.260376 367.027 
L 154.89526 357.367209 
L 155.530145 364.054397 
L 156.165029 354.920372 
L 156.799914 349.538267 
L 157.434798 369.581167 
L 158.069683 343.701948 
L 158.704567 368.405192 
L 159.339452 342.301978 
L 159.974337 356.967439 
L 160.609221 352.839084 
L 161.244106 367.535655 
L 161.87899 354.610824 
L 162.513875 352.302429 
L 163.148759 364.519498 
L 163.783644 355.530137 
L 164.418528 367.890314 
L 165.053413 361.959109 
L 165.688297 351.863772 
L 166.323182 357.648758 
L 166.958066 342.155759 
L 167.592951 374.232177 
L 168.227835 361.658894 
L 168.86272 357.05766 
L 169.497604 354.203277 
L 170.767373 369.475391 
L 171.402258 322.371076 
L 172.037142 355.495916 
L 173.306911 369.672943 
L 173.941796 360.249591 
L 174.57668 340.093137 
L 175.211565 355.976572 
L 175.846449 355.293698 
L 176.481334 370.822473 
L 177.116218 376.066138 
L 177.751103 371.590901 
L 178.385987 348.793172 
L 179.020872 333.671943 
L 179.655756 349.133831 
L 180.290641 361.389788 
L 180.925526 334.799696 
L 181.56041 364.370168 
L 182.195295 357.444985 
L 182.830179 331.332438 
L 183.465064 320.305343 
L 184.099948 354.844152 
L 184.734833 351.369116 
L 185.369717 377.825433 
L 186.639486 342.354866 
L 187.274371 338.620058 
L 187.909255 381.508909 
L 188.54414 336.496771 
L 189.179024 327.779626 
L 189.813909 349.882037 
L 190.448793 339.873809 
L 191.083678 350.515134 
L 191.718562 353.941949 
L 192.353447 331.506656 
L 192.988331 348.169407 
L 193.623216 347.520755 
L 194.2581 354.722821 
L 194.892985 368.221641 
L 195.527869 292.249949 
L 196.162754 367.171663 
L 196.797638 351.714442 
L 197.432523 355.351252 
L 198.067407 335.509014 
L 198.702292 342.403087 
L 199.337176 357.468317 
L 199.972061 340.788456 
L 200.606945 345.512576 
L 201.24183 338.914052 
L 201.876715 372.385773 
L 202.511599 334.93036 
L 203.146484 337.731855 
L 203.781368 362.9002 
L 204.416253 361.254458 
L 205.051137 352.576201 
L 205.686022 351.988214 
L 206.320906 284.335453 
L 206.955791 296.826294 
L 207.590675 350.194697 
L 208.22556 357.056104 
L 208.860444 355.556581 
L 209.495329 345.251248 
L 210.130213 352.386427 
L 210.765098 318.476049 
L 211.399982 355.794576 
L 212.034867 329.346036 
L 212.669751 344.181049 
L 213.304636 303.723479 
L 213.93952 314.982346 
L 214.574405 345.349246 
L 215.209289 348.886503 
L 215.844174 351.098455 
L 216.479058 359.646048 
L 217.113943 343.831057 
L 217.748827 341.177336 
L 218.383712 347.4632 
L 219.018596 341.006229 
L 220.288365 361.21557 
L 220.92325 357.869642 
L 221.558134 339.455373 
L 222.193019 367.331882 
L 222.827903 362.503542 
L 223.462788 328.221394 
L 224.097673 331.424213 
L 224.732557 368.241862 
L 225.367442 328.73316 
L 226.002326 308.962477 
L 226.637211 360.646249 
L 227.272095 343.933721 
L 227.90698 346.795881 
L 228.541864 335.838785 
L 229.176749 362.984198 
L 230.446518 316.906527 
L 231.081402 379.646949 
L 231.716287 347.086764 
L 232.351171 326.462098 
L 232.986056 338.168957 
L 233.62094 357.824532 
L 234.255825 367.879426 
L 234.890709 347.752527 
L 235.525594 369.806718 
L 236.160478 366.098353 
L 236.795363 321.697535 
L 237.430247 364.675051 
L 238.065132 332.671742 
L 238.700016 342.809079 
L 239.334901 324.192592 
L 239.969785 317.28763 
L 240.60467 315.106788 
L 241.239554 314.979235 
L 241.874439 354.030614 
L 242.509323 316.567423 
L 243.144208 357.626981 
L 243.779092 361.878222 
L 244.413977 364.522609 
L 245.048862 346.37589 
L 245.683746 358.530739 
L 246.318631 350.648909 
L 246.953515 360.098705 
L 247.5884 335.415683 
L 248.223284 347.478755 
L 248.858169 363.695072 
L 249.493053 325.815001 
L 250.127938 371.188021 
L 250.762822 318.25672 
L 251.397707 290.895089 
L 252.032591 352.863972 
L 252.667476 332.128865 
L 253.30236 347.774305 
L 253.937245 353.567068 
L 254.572129 339.754033 
L 255.207014 348.996945 
L 255.841898 293.155262 
L 256.476783 354.341718 
L 257.111667 339.864476 
L 257.746552 353.291741 
L 258.381436 315.162787 
L 259.016321 349.759151 
L 259.651205 357.001661 
L 260.28609 334.119933 
L 260.920974 360.789357 
L 261.555859 317.440071 
L 262.190743 333.928604 
L 262.825628 375.932363 
L 263.460512 359.436053 
L 264.095397 347.763416 
L 264.730281 288.670693 
L 265.365166 332.771295 
L 266.00005 344.929255 
L 266.634935 362.864423 
L 267.26982 360.946465 
L 267.904704 328.13584 
L 268.539589 352.615089 
L 269.174473 339.923585 
L 269.809358 342.692414 
L 270.444242 336.278997 
L 271.079127 331.5471 
L 271.714011 363.315524 
L 272.348896 328.610274 
L 272.98378 335.330129 
L 273.618665 347.316981 
L 274.253549 345.918567 
L 274.888434 356.395007 
L 275.523318 358.11697 
L 276.158203 342.062428 
L 276.793087 311.435756 
L 277.427972 318.077835 
L 278.062856 357.679868 
L 278.697741 336.871651 
L 279.332625 366.071909 
L 279.96751 333.587944 
L 280.602394 353.490848 
L 281.237279 349.530489 
L 281.872163 349.362493 
L 282.507048 333.346839 
L 283.141932 362.606206 
L 283.776817 347.450756 
L 284.411701 369.461392 
L 285.046586 306.677415 
L 285.68147 320.691112 
L 286.316355 358.163636 
L 286.951239 352.520202 
L 287.586124 328.401834 
L 288.221009 336.103223 
L 288.855893 348.169407 
L 289.490778 348.645397 
L 290.125662 315.45367 
L 290.760547 345.246581 
L 291.395431 337.893629 
L 292.030316 341.276889 
L 292.6652 349.13072 
L 293.300085 336.308552 
L 293.934969 334.462148 
L 294.569854 294.703007 
L 295.204738 354.333941 
L 295.839623 351.131121 
L 296.474507 323.44283 
L 297.109392 344.391044 
L 297.744276 355.124146 
L 298.379161 337.398973 
L 299.014045 353.033524 
L 299.64893 339.89403 
L 300.283814 362.458432 
L 300.918699 359.174725 
L 301.553583 352.849973 
L 302.188468 354.137945 
L 302.823352 337.311864 
L 303.458237 358.2943 
L 304.093121 309.824236 
L 304.728006 364.965933 
L 305.36289 367.128109 
L 305.997775 363.464855 
L 306.632659 336.793875 
L 307.267544 329.174929 
L 307.902428 346.234338 
L 308.537313 328.754938 
L 309.172197 364.676606 
L 309.807082 363.9144 
L 310.441967 304.246134 
L 311.076851 319.365807 
L 311.711736 353.962171 
L 312.34662 347.472533 
L 312.981505 321.481317 
L 313.616389 339.556482 
L 314.251274 353.213965 
L 314.886158 322.053749 
L 315.521043 343.302179 
L 316.155927 327.790514 
L 316.790812 294.387236 
L 317.425696 298.042712 
L 318.060581 341.323555 
L 318.695465 356.65789 
L 319.33035 333.080844 
L 319.965234 353.721065 
L 320.600119 284.755444 
L 321.235003 356.035682 
L 321.869888 320.672446 
L 322.504772 341.883543 
L 323.139657 321.946418 
L 323.774541 310.517998 
L 324.409426 341.24889 
L 325.04431 306.736525 
L 325.679195 342.135538 
L 326.314079 354.977927 
L 326.948964 303.053049 
L 327.583848 341.701547 
L 328.218733 305.134337 
L 328.853617 352.540424 
L 329.488502 343.221292 
L 330.123386 364.135285 
L 331.393156 300.040003 
L 332.02804 351.386227 
L 332.662925 349.959813 
L 333.297809 333.606611 
L 333.932694 332.037089 
L 334.567578 338.392952 
L 335.202463 327.526075 
L 335.837347 347.629641 
L 336.472232 344.888811 
L 337.107116 344.426821 
L 337.742001 318.756043 
L 338.376885 306.843856 
L 339.01177 350.672242 
L 339.646654 341.953542 
L 340.281539 338.931162 
L 340.916423 333.950381 
L 341.551308 356.371674 
L 342.186192 354.990371 
L 342.821077 323.774157 
L 343.455961 323.939042 
L 344.090846 333.115066 
L 344.72573 311.102875 
L 345.360615 340.678014 
L 345.995499 342.630194 
L 346.630384 354.231276 
L 347.265268 316.623422 
L 347.900153 344.991476 
L 348.535037 350.762462 
L 349.169922 306.045873 
L 350.439691 348.23785 
L 351.074575 305.310111 
L 352.344344 360.566917 
L 352.979229 348.177185 
L 353.614114 341.727991 
L 354.248998 321.619759 
L 354.883883 336.317885 
L 355.518767 313.739484 
L 356.788536 347.797637 
L 357.423421 314.218585 
L 358.058305 365.445034 
L 358.69319 326.992531 
L 359.328074 341.869543 
L 359.962959 331.347993 
L 360.597843 329.048931 
L 361.232728 335.983448 
L 361.867612 305.173225 
L 362.502497 346.878324 
L 363.137381 351.076678 
L 363.772266 356.052792 
L 364.40715 338.763166 
L 365.042035 357.774755 
L 365.676919 348.931613 
L 366.311804 313.742595 
L 366.946688 351.734664 
L 367.581573 337.988516 
L 368.216457 335.941449 
L 368.851342 292.750827 
L 369.486226 293.264149 
L 370.755995 345.087918 
L 371.39088 353.187521 
L 372.025764 314.063033 
L 372.660649 361.399121 
L 373.295533 336.019225 
L 373.930418 346.047675 
L 374.565303 335.521458 
L 375.200187 348.755839 
L 375.835072 294.900558 
L 376.469956 301.765076 
L 377.104841 336.877873 
L 377.739725 343.011296 
L 378.37461 347.201873 
L 379.009494 308.825591 
L 379.644379 355.849019 
L 380.279263 359.456274 
L 380.914148 332.883293 
L 381.549032 322.719513 
L 382.183917 308.876923 
L 382.818801 332.276639 
L 383.453686 338.86583 
L 384.08857 316.458537 
L 384.723455 362.113106 
L 385.358339 294.289238 
L 385.993224 351.450003 
L 386.628108 338.050737 
L 387.262993 260.588855 
L 387.897877 349.653375 
L 388.532762 307.651172 
L 389.167646 346.795881 
L 389.802531 321.574648 
L 390.437415 329.414479 
L 391.0723 333.329728 
L 391.707184 343.757947 
L 392.342069 350.078033 
L 392.976953 320.835776 
L 393.611838 320.526227 
L 394.246722 342.317534 
L 394.881607 346.700995 
L 395.516491 325.390344 
L 396.151376 333.762163 
L 396.786261 332.253307 
L 397.421145 316.593867 
L 398.05603 328.604052 
L 398.690914 327.466966 
L 399.325799 367.431436 
L 399.960683 350.995791 
L 400.595568 330.193796 
L 401.230452 327.438966 
L 401.865337 336.675656 
L 402.500221 339.279599 
L 403.135106 331.508212 
L 403.76999 282.051947 
L 404.404875 348.620509 
L 405.039759 335.129467 
L 405.674644 329.232483 
L 406.309528 338.854942 
L 406.944413 248.077792 
L 407.579297 342.566417 
L 408.214182 342.774857 
L 408.849066 297.980492 
L 409.483951 315.091233 
L 410.118835 327.449855 
L 410.75372 300.786653 
L 411.388604 342.356422 
L 412.023489 358.96473 
L 412.658373 341.410664 
L 413.293258 361.039796 
L 413.928142 331.996646 
L 414.563027 312.272627 
L 415.197911 330.630897 
L 415.832796 330.07402 
L 416.46768 318.1665 
L 417.102565 288.726691 
L 417.73745 337.596525 
L 418.372334 330.643341 
L 419.007219 282.62749 
L 419.642103 343.337956 
L 420.276988 344.921477 
L 421.546757 317.629845 
L 422.181641 354.1535 
L 422.816526 340.365354 
L 423.45141 337.710078 
L 424.086295 312.260183 
L 424.721179 351.191786 
L 425.356064 314.142365 
L 425.990948 285.427429 
L 426.625833 303.284821 
L 427.260717 309.821125 
L 427.895602 350.476246 
L 428.530486 290.834424 
L 429.165371 338.013404 
L 429.800255 341.303333 
L 430.43514 290.086218 
L 431.070024 327.065641 
L 431.704909 319.465361 
L 432.339793 348.236295 
L 432.974678 316.016769 
L 433.609562 325.115016 
L 434.244447 336.969649 
L 434.879331 305.652326 
L 435.514216 338.187623 
L 436.1491 337.856297 
L 436.783985 310.378001 
L 437.418869 315.837884 
L 438.053754 332.368415 
L 438.688638 334.756141 
L 439.323523 330.752228 
L 439.958408 359.044061 
L 440.593292 315.910993 
L 441.228177 337.528082 
L 441.863061 342.630194 
L 442.497946 327.597629 
L 443.13283 351.896438 
L 443.767715 332.654631 
L 444.402599 318.869596 
L 445.037484 358.572738 
L 445.672368 311.322203 
L 446.307253 325.609672 
L 446.942137 314.388137 
L 447.577022 331.699541 
L 448.211906 297.898049 
L 448.846791 334.151043 
L 449.481675 330.383569 
L 450.11656 360.36781 
L 450.751444 343.462398 
L 451.386329 349.420047 
L 452.021213 336.991427 
L 452.656098 337.243421 
L 453.290982 325.874111 
L 453.925867 334.777919 
L 454.560751 354.725932 
L 455.195636 251.737935 
L 455.83052 343.043962 
L 457.100289 299.204687 
L 457.735174 327.457632 
L 458.370058 347.239205 
L 459.004943 331.767984 
L 459.639827 311.309759 
L 460.274712 318.672045 
L 460.909597 310.267559 
L 461.544481 327.21186 
L 462.81425 316.335651 
L 463.449135 336.208999 
L 464.084019 328.280504 
L 464.718904 309.80868 
L 465.353788 352.403538 
L 465.988673 357.734312 
L 466.623557 351.624221 
L 467.258442 348.606509 
L 467.893326 282.1795 
L 468.528211 324.135038 
L 469.163095 331.010445 
L 469.79798 344.134383 
L 470.432864 342.020429 
L 471.067749 296.070311 
L 471.702633 340.878676 
L 472.337518 308.559596 
L 472.972402 312.423513 
L 473.607287 350.546245 
L 474.877056 335.409461 
L 475.51194 338.396063 
L 476.146825 340.020028 
L 476.781709 340.824233 
L 477.416594 328.31317 
L 478.051478 328.464055 
L 478.686363 345.786348 
L 479.321247 309.352913 
L 479.956132 352.664866 
L 480.591016 291.934178 
L 481.225901 294.13213 
L 481.860785 320.929107 
L 482.49567 355.489694 
L 483.130555 322.10197 
L 483.765439 327.194749 
L 484.400324 324.995241 
L 485.035208 301.489749 
L 485.670093 329.972911 
L 486.304977 340.060471 
L 486.939862 332.657742 
L 487.574746 308.635817 
L 488.844515 322.171969 
L 489.4794 325.962776 
L 490.114284 334.476148 
L 490.749169 332.478857 
L 491.384053 328.395612 
L 492.018938 347.903413 
L 492.653822 328.647607 
L 493.288707 346.534554 
L 493.923591 292.89549 
L 494.558476 319.185367 
L 495.828245 339.29671 
L 496.463129 327.932067 
L 497.098014 357.374986 
L 497.732898 311.107541 
L 498.367783 360.249591 
L 499.002667 268.078693 
L 499.637552 353.277741 
L 500.272436 318.135389 
L 500.907321 336.431439 
L 501.542205 310.233338 
L 502.17709 341.578661 
L 502.811974 346.490999 
L 503.446859 357.430985 
L 504.081744 324.8568 
L 504.716628 320.504449 
L 505.351513 330.732006 
L 505.986397 336.801653 
L 506.621282 331.632653 
L 507.256166 280.202431 
L 507.891051 312.625731 
L 508.525935 327.300525 
L 509.16082 351.271118 
L 509.795704 314.101921 
L 510.430589 315.360338 
L 511.065473 345.899901 
L 511.700358 341.903765 
L 512.335242 339.690257 
L 512.970127 322.59196 
L 513.605011 325.3499 
L 514.239896 344.145272 
L 514.87478 314.027256 
L 515.509665 337.109646 
L 516.144549 350.662909 
L 516.779434 343.813946 
L 517.414318 310.634663 
L 518.049203 326.653428 
L 518.684087 314.260584 
L 519.318972 354.141056 
L 519.953856 339.771144 
L 520.588741 294.219239 
L 521.223625 319.096702 
L 521.85851 315.52989 
L 522.493394 336.432994 
L 523.128279 337.075425 
L 523.763163 322.178191 
L 524.398048 320.723778 
L 525.032933 342.827745 
L 525.667817 321.818865 
L 526.302702 321.54976 
L 526.937586 344.689705 
L 527.572471 337.212311 
L 528.207355 355.323253 
L 528.84224 337.503193 
L 529.477124 329.739583 
L 530.112009 331.828649 
L 530.746893 287.205391 
L 531.381778 338.89383 
L 532.016662 325.166349 
L 532.651547 332.296861 
L 533.286431 336.64299 
L 533.921316 348.958057 
L 534.5562 311.821526 
L 535.191085 335.244575 
L 535.825969 340.013806 
L 536.460854 321.061326 
L 537.095738 339.649814 
L 537.730623 315.658998 
L 538.365507 351.317784 
L 539.000392 330.714895 
L 539.635276 299.45046 
L 540.270161 324.709025 
L 540.905045 297.936937 
L 541.53993 299.532902 
L 542.174814 346.324558 
L 542.809699 317.080746 
L 543.444583 325.197459 
L 544.079468 316.881639 
L 544.714352 335.859007 
L 545.349237 317.545847 
L 545.984121 313.033277 
L 546.619006 329.140707 
L 547.253891 301.505304 
L 547.888775 305.495218 
L 549.158544 331.212662 
L 549.793429 334.035935 
L 550.428313 320.93844 
L 551.063198 328.061175 
L 551.698082 344.395711 
L 552.332967 283.548359 
L 552.967851 310.435556 
L 553.602736 305.243224 
L 554.23762 329.562254 
L 554.872505 336.142112 
L 555.507389 322.395964 
L 556.142274 306.059873 
L 556.777158 326.849423 
L 557.412043 317.891172 
L 558.046927 329.725583 
L 558.681812 322.173524 
L 559.316696 335.765675 
L 560.586465 332.103977 
L 561.22135 349.430936 
L 561.856234 302.415285 
L 562.491119 330.610675 
L 563.126003 314.035034 
L 564.395772 345.924789 
L 565.030657 343.358178 
L 565.665541 300.414883 
L 566.300426 322.854843 
L 566.93531 332.688853 
L 567.570195 315.677665 
L 568.20508 303.773255 
L 568.839964 309.326469 
L 569.474849 278.922237 
L 570.109733 318.141612 
L 570.744618 343.635061 
L 571.379502 299.546902 
L 572.014387 316.072767 
L 572.649271 350.538467 
L 573.284156 342.844856 
L 573.91904 283.579469 
L 574.553925 337.118979 
L 575.188809 330.895336 
L 575.823694 340.642237 
L 576.458578 318.135389 
L 577.093463 324.253257 
L 577.728347 343.087517 
L 578.363232 328.949378 
L 578.998116 317.678066 
L 579.633001 322.53285 
L 580.267885 319.606913 
L 580.90277 309.670239 
L 581.537654 344.730148 
L 582.172539 332.245529 
L 582.807423 324.14126 
L 583.442308 343.073517 
L 584.077192 297.387838 
L 584.712077 309.948677 
L 585.346961 307.854945 
L 585.981846 315.452114 
L 586.61673 339.698035 
L 587.251615 341.129115 
L 587.886499 316.968748 
L 589.156268 336.084557 
L 589.791153 312.750172 
L 590.426038 331.268661 
L 591.060922 335.028358 
L 591.695807 332.597077 
L 592.330691 323.833266 
L 592.965576 295.004778 
L 593.60046 324.443031 
L 594.235345 320.857553 
L 594.870229 311.146429 
L 595.505114 344.15305 
L 595.505114 344.15305 
" clip-path="url(#p6ed1220d64)" style="fill: none; stroke: #ff7f0e; stroke-width: 1.5; stroke-linecap: square"/>
   </g>
   <g id="patch_3">
    <path d="M 62.86875 576.718125 
L 62.86875 22.318125 
" style="fill: none; stroke: #000000; stroke-width: 0.8; stroke-linejoin: miter; stroke-linecap: square"/>
   </g>
   <g id="patch_4">
    <path d="M 620.86875 576.718125 
L 620.86875 22.318125 
" style="fill: none; stroke: #000000; stroke-width: 0.8; stroke-linejoin: miter; stroke-linecap: square"/>
   </g>
   <g id="patch_5">
    <path d="M 62.86875 576.718125 
L 620.86875 576.718125 
" style="fill: none; stroke: #000000; stroke-width: 0.8; stroke-linejoin: miter; stroke-linecap: square"/>
   </g>
   <g id="patch_6">
    <path d="M 62.86875 22.318125 
L 620.86875 22.318125 
" style="fill: none; stroke: #000000; stroke-width: 0.8; stroke-linejoin: miter; stroke-linecap: square"/>
   </g>
   <g id="text_20">
    <!-- Train and Val Loss -->
    <g transform="translate(288.323437 16.318125) scale(0.12 -0.12)">
     <defs>
      <path id="DejaVuSans-54" d="M -19 4666 
L 3928 4666 
L 3928 4134 
L 2272 4134 
L 2272 0 
L 1638 0 
L 1638 4134 
L -19 4134 
L -19 4666 
z
" transform="scale(0.015625)"/>
      <path id="DejaVuSans-72" d="M 2631 2963 
Q 2534 3019 2420 3045 
Q 2306 3072 2169 3072 
Q 1681 3072 1420 2755 
Q 1159 2438 1159 1844 
L 1159 0 
L 581 0 
L 581 3500 
L 1159 3500 
L 1159 2956 
Q 1341 3275 1631 3429 
Q 1922 3584 2338 3584 
Q 2397 3584 2469 3576 
Q 2541 3569 2628 3553 
L 2631 2963 
z
" transform="scale(0.015625)"/>
      <path id="DejaVuSans-61" d="M 2194 1759 
Q 1497 1759 1228 1600 
Q 959 1441 959 1056 
Q 959 750 1161 570 
Q 1363 391 1709 391 
Q 2188 391 2477 730 
Q 2766 1069 2766 1631 
L 2766 1759 
L 2194 1759 
z
M 3341 1997 
L 3341 0 
L 2766 0 
L 2766 531 
Q 2569 213 2275 61 
Q 1981 -91 1556 -91 
Q 1019 -91 701 211 
Q 384 513 384 1019 
Q 384 1609 779 1909 
Q 1175 2209 1959 2209 
L 2766 2209 
L 2766 2266 
Q 2766 2663 2505 2880 
Q 2244 3097 1772 3097 
Q 1472 3097 1187 3025 
Q 903 2953 641 2809 
L 641 3341 
Q 956 3463 1253 3523 
Q 1550 3584 1831 3584 
Q 2591 3584 2966 3190 
Q 3341 2797 3341 1997 
z
" transform="scale(0.015625)"/>
      <path id="DejaVuSans-69" d="M 603 3500 
L 1178 3500 
L 1178 0 
L 603 0 
L 603 3500 
z
M 603 4863 
L 1178 4863 
L 1178 4134 
L 603 4134 
L 603 4863 
z
" transform="scale(0.015625)"/>
      <path id="DejaVuSans-6e" d="M 3513 2113 
L 3513 0 
L 2938 0 
L 2938 2094 
Q 2938 2591 2744 2837 
Q 2550 3084 2163 3084 
Q 1697 3084 1428 2787 
Q 1159 2491 1159 1978 
L 1159 0 
L 581 0 
L 581 3500 
L 1159 3500 
L 1159 2956 
Q 1366 3272 1645 3428 
Q 1925 3584 2291 3584 
Q 2894 3584 3203 3211 
Q 3513 2838 3513 2113 
z
" transform="scale(0.015625)"/>
      <path id="DejaVuSans-20" transform="scale(0.015625)"/>
      <path id="DejaVuSans-64" d="M 2906 2969 
L 2906 4863 
L 3481 4863 
L 3481 0 
L 2906 0 
L 2906 525 
Q 2725 213 2448 61 
Q 2172 -91 1784 -91 
Q 1150 -91 751 415 
Q 353 922 353 1747 
Q 353 2572 751 3078 
Q 1150 3584 1784 3584 
Q 2172 3584 2448 3432 
Q 2725 3281 2906 2969 
z
M 947 1747 
Q 947 1113 1208 752 
Q 1469 391 1925 391 
Q 2381 391 2643 752 
Q 2906 1113 2906 1747 
Q 2906 2381 2643 2742 
Q 2381 3103 1925 3103 
Q 1469 3103 1208 2742 
Q 947 2381 947 1747 
z
" transform="scale(0.015625)"/>
      <path id="DejaVuSans-56" d="M 1831 0 
L 50 4666 
L 709 4666 
L 2188 738 
L 3669 4666 
L 4325 4666 
L 2547 0 
L 1831 0 
z
" transform="scale(0.015625)"/>
      <path id="DejaVuSans-6c" d="M 603 4863 
L 1178 4863 
L 1178 0 
L 603 0 
L 603 4863 
z
" transform="scale(0.015625)"/>
     </defs>
     <use xlink:href="#DejaVuSans-54"/>
     <use xlink:href="#DejaVuSans-72" transform="translate(46.333984 0)"/>
     <use xlink:href="#DejaVuSans-61" transform="translate(87.447266 0)"/>
     <use xlink:href="#DejaVuSans-69" transform="translate(148.726562 0)"/>
     <use xlink:href="#DejaVuSans-6e" transform="translate(176.509766 0)"/>
     <use xlink:href="#DejaVuSans-20" transform="translate(239.888672 0)"/>
     <use xlink:href="#DejaVuSans-61" transform="translate(271.675781 0)"/>
     <use xlink:href="#DejaVuSans-6e" transform="translate(332.955078 0)"/>
     <use xlink:href="#DejaVuSans-64" transform="translate(396.333984 0)"/>
     <use xlink:href="#DejaVuSans-20" transform="translate(459.810547 0)"/>
     <use xlink:href="#DejaVuSans-56" transform="translate(491.597656 0)"/>
     <use xlink:href="#DejaVuSans-61" transform="translate(552.255859 0)"/>
     <use xlink:href="#DejaVuSans-6c" transform="translate(613.535156 0)"/>
     <use xlink:href="#DejaVuSans-20" transform="translate(641.318359 0)"/>
     <use xlink:href="#DejaVuSans-4c" transform="translate(673.105469 0)"/>
     <use xlink:href="#DejaVuSans-6f" transform="translate(727.068359 0)"/>
     <use xlink:href="#DejaVuSans-73" transform="translate(788.25 0)"/>
     <use xlink:href="#DejaVuSans-73" transform="translate(840.349609 0)"/>
    </g>
   </g>
   <g id="legend_1">
    <g id="patch_7">
     <path d="M 534.278125 60.230625 
L 613.86875 60.230625 
Q 615.86875 60.230625 615.86875 58.230625 
L 615.86875 29.318125 
Q 615.86875 27.318125 613.86875 27.318125 
L 534.278125 27.318125 
Q 532.278125 27.318125 532.278125 29.318125 
L 532.278125 58.230625 
Q 532.278125 60.230625 534.278125 60.230625 
z
" style="fill: #ffffff; opacity: 0.8; stroke: #cccccc; stroke-linejoin: miter"/>
    </g>
    <g id="line2d_37">
     <path d="M 536.278125 35.416563 
L 546.278125 35.416563 
L 556.278125 35.416563 
" style="fill: none; stroke: #1f77b4; stroke-width: 1.5; stroke-linecap: square"/>
    </g>
    <g id="text_21">
     <!-- train_loss -->
     <g transform="translate(564.278125 38.916563) scale(0.1 -0.1)">
      <defs>
       <path id="DejaVuSans-74" d="M 1172 4494 
L 1172 3500 
L 2356 3500 
L 2356 3053 
L 1172 3053 
L 1172 1153 
Q 1172 725 1289 603 
Q 1406 481 1766 481 
L 2356 481 
L 2356 0 
L 1766 0 
Q 1100 0 847 248 
Q 594 497 594 1153 
L 594 3053 
L 172 3053 
L 172 3500 
L 594 3500 
L 594 4494 
L 1172 4494 
z
" transform="scale(0.015625)"/>
       <path id="DejaVuSans-5f" d="M 3263 -1063 
L 3263 -1509 
L -63 -1509 
L -63 -1063 
L 3263 -1063 
z
" transform="scale(0.015625)"/>
      </defs>
      <use xlink:href="#DejaVuSans-74"/>
      <use xlink:href="#DejaVuSans-72" transform="translate(39.208984 0)"/>
      <use xlink:href="#DejaVuSans-61" transform="translate(80.322266 0)"/>
      <use xlink:href="#DejaVuSans-69" transform="translate(141.601562 0)"/>
      <use xlink:href="#DejaVuSans-6e" transform="translate(169.384766 0)"/>
      <use xlink:href="#DejaVuSans-5f" transform="translate(232.763672 0)"/>
      <use xlink:href="#DejaVuSans-6c" transform="translate(282.763672 0)"/>
      <use xlink:href="#DejaVuSans-6f" transform="translate(310.546875 0)"/>
      <use xlink:href="#DejaVuSans-73" transform="translate(371.728516 0)"/>
      <use xlink:href="#DejaVuSans-73" transform="translate(423.828125 0)"/>
     </g>
    </g>
    <g id="line2d_38">
     <path d="M 536.278125 50.372813 
L 546.278125 50.372813 
L 556.278125 50.372813 
" style="fill: none; stroke: #ff7f0e; stroke-width: 1.5; stroke-linecap: square"/>
    </g>
    <g id="text_22">
     <!-- val_loss -->
     <g transform="translate(564.278125 53.872813) scale(0.1 -0.1)">
      <defs>
       <path id="DejaVuSans-76" d="M 191 3500 
L 800 3500 
L 1894 563 
L 2988 3500 
L 3597 3500 
L 2284 0 
L 1503 0 
L 191 3500 
z
" transform="scale(0.015625)"/>
      </defs>
      <use xlink:href="#DejaVuSans-76"/>
      <use xlink:href="#DejaVuSans-61" transform="translate(59.179688 0)"/>
      <use xlink:href="#DejaVuSans-6c" transform="translate(120.458984 0)"/>
      <use xlink:href="#DejaVuSans-5f" transform="translate(148.242188 0)"/>
      <use xlink:href="#DejaVuSans-6c" transform="translate(198.242188 0)"/>
      <use xlink:href="#DejaVuSans-6f" transform="translate(226.025391 0)"/>
      <use xlink:href="#DejaVuSans-73" transform="translate(287.207031 0)"/>
      <use xlink:href="#DejaVuSans-73" transform="translate(339.306641 0)"/>
     </g>
    </g>
   </g>
  </g>
 </g>
 <defs>
  <clipPath id="p6ed1220d64">
   <rect x="62.86875" y="22.318125" width="558" height="554.4"/>
  </clipPath>
 </defs>
</svg>
