<?xml version="1.0" encoding="utf-8" standalone="no"?>
<!DOCTYPE svg PUBLIC "-//W3C//DTD SVG 1.1//EN"
  "http://www.w3.org/Graphics/SVG/1.1/DTD/svg11.dtd">
<svg xmlns:xlink="http://www.w3.org/1999/xlink" width="621.70625pt" height="614.274375pt" viewBox="0 0 621.70625 614.274375" xmlns="http://www.w3.org/2000/svg" version="1.1">
 <metadata>
  <rdf:RDF xmlns:dc="http://purl.org/dc/elements/1.1/" xmlns:cc="http://creativecommons.org/ns#" xmlns:rdf="http://www.w3.org/1999/02/22-rdf-syntax-ns#">
   <cc:Work>
    <dc:type rdf:resource="http://purl.org/dc/dcmitype/StillImage"/>
    <dc:date>2026-05-22T13:10:11.569040</dc:date>
    <dc:format>image/svg+xml</dc:format>
    <dc:creator>
     <cc:Agent>
      <dc:title>Matplotlib v3.10.9, https://matplotlib.org/</dc:title>
     </cc:Agent>
    </dc:creator>
   </cc:Work>
  </rdf:RDF>
 </metadata>
 <defs>
  <style type="text/css">*{stroke-linejoin: round; stroke-linecap: butt}</style>
 </defs>
 <g id="figure_1">
  <g id="patch_1">
   <path d="M 0 614.274375 
L 621.70625 614.274375 
L 621.70625 0 
L 0 0 
z
" style="fill: #ffffff"/>
  </g>
  <g id="axes_1">
   <g id="patch_2">
    <path d="M 56.50625 576.718125 
L 614.50625 576.718125 
L 614.50625 22.318125 
L 56.50625 22.318125 
z
" style="fill: #ffffff"/>
   </g>
   <g id="matplotlib.axis_1">
    <g id="xtick_1">
     <g id="line2d_1">
      <path d="M 81.869886 576.718125 
L 81.869886 22.318125 
" clip-path="url(#p0b0e2d3772)" style="fill: none; stroke: #b0b0b0; stroke-width: 0.8; stroke-linecap: square"/>
     </g>
     <g id="line2d_2">
      <defs>
       <path id="mc94b4a9f76" d="M 0 0 
L 0 3.5 
" style="stroke: #000000; stroke-width: 0.8"/>
      </defs>
      <g>
       <use xlink:href="#mc94b4a9f76" x="81.869886" y="576.718125" style="stroke: #000000; stroke-width: 0.8"/>
      </g>
     </g>
     <g id="text_1">
      <!-- 0 -->
      <g transform="translate(78.688636 591.316563) scale(0.1 -0.1)">
       <defs>
        <path id="DejaVuSans-30" d="M 2034 4250 
Q 1547 4250 1301 3770 
Q 1056 3291 1056 2328 
Q 1056 1369 1301 889 
Q 1547 409 2034 409 
Q 2525 409 2770 889 
Q 3016 1369 3016 2328 
Q 3016 3291 2770 3770 
Q 2525 4250 2034 4250 
z
M 2034 4750 
Q 2819 4750 3233 4129 
Q 3647 3509 3647 2328 
Q 3647 1150 3233 529 
Q 2819 -91 2034 -91 
Q 1250 -91 836 529 
Q 422 1150 422 2328 
Q 422 3509 836 4129 
Q 1250 4750 2034 4750 
z
" transform="scale(0.015625)"/>
       </defs>
       <use xlink:href="#DejaVuSans-30"/>
      </g>
     </g>
    </g>
    <g id="xtick_2">
     <g id="line2d_3">
      <path d="M 145.358338 576.718125 
L 145.358338 22.318125 
" clip-path="url(#p0b0e2d3772)" style="fill: none; stroke: #b0b0b0; stroke-width: 0.8; stroke-linecap: square"/>
     </g>
     <g id="line2d_4">
      <g>
       <use xlink:href="#mc94b4a9f76" x="145.358338" y="576.718125" style="stroke: #000000; stroke-width: 0.8"/>
      </g>
     </g>
     <g id="text_2">
      <!-- 100 -->
      <g transform="translate(135.814588 591.316563) scale(0.1 -0.1)">
       <defs>
        <path id="DejaVuSans-31" d="M 794 531 
L 1825 531 
L 1825 4091 
L 703 3866 
L 703 4441 
L 1819 4666 
L 2450 4666 
L 2450 531 
L 3481 531 
L 3481 0 
L 794 0 
L 794 531 
z
" transform="scale(0.015625)"/>
       </defs>
       <use xlink:href="#DejaVuSans-31"/>
       <use xlink:href="#DejaVuSans-30" transform="translate(63.623047 0)"/>
       <use xlink:href="#DejaVuSans-30" transform="translate(127.246094 0)"/>
      </g>
     </g>
    </g>
    <g id="xtick_3">
     <g id="line2d_5">
      <path d="M 208.846789 576.718125 
L 208.846789 22.318125 
" clip-path="url(#p0b0e2d3772)" style="fill: none; stroke: #b0b0b0; stroke-width: 0.8; stroke-linecap: square"/>
     </g>
     <g id="line2d_6">
      <g>
       <use xlink:href="#mc94b4a9f76" x="208.846789" y="576.718125" style="stroke: #000000; stroke-width: 0.8"/>
      </g>
     </g>
     <g id="text_3">
      <!-- 200 -->
      <g transform="translate(199.303039 591.316563) scale(0.1 -0.1)">
       <defs>
        <path id="DejaVuSans-32" d="M 1228 531 
L 3431 531 
L 3431 0 
L 469 0 
L 469 531 
Q 828 903 1448 1529 
Q 2069 2156 2228 2338 
Q 2531 2678 2651 2914 
Q 2772 3150 2772 3378 
Q 2772 3750 2511 3984 
Q 2250 4219 1831 4219 
Q 1534 4219 1204 4116 
Q 875 4013 500 3803 
L 500 4441 
Q 881 4594 1212 4672 
Q 1544 4750 1819 4750 
Q 2544 4750 2975 4387 
Q 3406 4025 3406 3419 
Q 3406 3131 3298 2873 
Q 3191 2616 2906 2266 
Q 2828 2175 2409 1742 
Q 1991 1309 1228 531 
z
" transform="scale(0.015625)"/>
       </defs>
       <use xlink:href="#DejaVuSans-32"/>
       <use xlink:href="#DejaVuSans-30" transform="translate(63.623047 0)"/>
       <use xlink:href="#DejaVuSans-30" transform="translate(127.246094 0)"/>
      </g>
     </g>
    </g>
    <g id="xtick_4">
     <g id="line2d_7">
      <path d="M 272.335241 576.718125 
L 272.335241 22.318125 
" clip-path="url(#p0b0e2d3772)" style="fill: none; stroke: #b0b0b0; stroke-width: 0.8; stroke-linecap: square"/>
     </g>
     <g id="line2d_8">
      <g>
       <use xlink:href="#mc94b4a9f76" x="272.335241" y="576.718125" style="stroke: #000000; stroke-width: 0.8"/>
      </g>
     </g>
     <g id="text_4">
      <!-- 300 -->
      <g transform="translate(262.791491 591.316563) scale(0.1 -0.1)">
       <defs>
        <path id="DejaVuSans-33" d="M 2597 2516 
Q 3050 2419 3304 2112 
Q 3559 1806 3559 1356 
Q 3559 666 3084 287 
Q 2609 -91 1734 -91 
Q 1441 -91 1130 -33 
Q 819 25 488 141 
L 488 750 
Q 750 597 1062 519 
Q 1375 441 1716 441 
Q 2309 441 2620 675 
Q 2931 909 2931 1356 
Q 2931 1769 2642 2001 
Q 2353 2234 1838 2234 
L 1294 2234 
L 1294 2753 
L 1863 2753 
Q 2328 2753 2575 2939 
Q 2822 3125 2822 3475 
Q 2822 3834 2567 4026 
Q 2313 4219 1838 4219 
Q 1578 4219 1281 4162 
Q 984 4106 628 3988 
L 628 4550 
Q 988 4650 1302 4700 
Q 1616 4750 1894 4750 
Q 2613 4750 3031 4423 
Q 3450 4097 3450 3541 
Q 3450 3153 3228 2886 
Q 3006 2619 2597 2516 
z
" transform="scale(0.015625)"/>
       </defs>
       <use xlink:href="#DejaVuSans-33"/>
       <use xlink:href="#DejaVuSans-30" transform="translate(63.623047 0)"/>
       <use xlink:href="#DejaVuSans-30" transform="translate(127.246094 0)"/>
      </g>
     </g>
    </g>
    <g id="xtick_5">
     <g id="line2d_9">
      <path d="M 335.823692 576.718125 
L 335.823692 22.318125 
" clip-path="url(#p0b0e2d3772)" style="fill: none; stroke: #b0b0b0; stroke-width: 0.8; stroke-linecap: square"/>
     </g>
     <g id="line2d_10">
      <g>
       <use xlink:href="#mc94b4a9f76" x="335.823692" y="576.718125" style="stroke: #000000; stroke-width: 0.8"/>
      </g>
     </g>
     <g id="text_5">
      <!-- 400 -->
      <g transform="translate(326.279942 591.316563) scale(0.1 -0.1)">
       <defs>
        <path id="DejaVuSans-34" d="M 2419 4116 
L 825 1625 
L 2419 1625 
L 2419 4116 
z
M 2253 4666 
L 3047 4666 
L 3047 1625 
L 3713 1625 
L 3713 1100 
L 3047 1100 
L 3047 0 
L 2419 0 
L 2419 1100 
L 313 1100 
L 313 1709 
L 2253 4666 
z
" transform="scale(0.015625)"/>
       </defs>
       <use xlink:href="#DejaVuSans-34"/>
       <use xlink:href="#DejaVuSans-30" transform="translate(63.623047 0)"/>
       <use xlink:href="#DejaVuSans-30" transform="translate(127.246094 0)"/>
      </g>
     </g>
    </g>
    <g id="xtick_6">
     <g id="line2d_11">
      <path d="M 399.312144 576.718125 
L 399.312144 22.318125 
" clip-path="url(#p0b0e2d3772)" style="fill: none; stroke: #b0b0b0; stroke-width: 0.8; stroke-linecap: square"/>
     </g>
     <g id="line2d_12">
      <g>
       <use xlink:href="#mc94b4a9f76" x="399.312144" y="576.718125" style="stroke: #000000; stroke-width: 0.8"/>
      </g>
     </g>
     <g id="text_6">
      <!-- 500 -->
      <g transform="translate(389.768394 591.316563) scale(0.1 -0.1)">
       <defs>
        <path id="DejaVuSans-35" d="M 691 4666 
L 3169 4666 
L 3169 4134 
L 1269 4134 
L 1269 2991 
Q 1406 3038 1543 3061 
Q 1681 3084 1819 3084 
Q 2600 3084 3056 2656 
Q 3513 2228 3513 1497 
Q 3513 744 3044 326 
Q 2575 -91 1722 -91 
Q 1428 -91 1123 -41 
Q 819 9 494 109 
L 494 744 
Q 775 591 1075 516 
Q 1375 441 1709 441 
Q 2250 441 2565 725 
Q 2881 1009 2881 1497 
Q 2881 1984 2565 2268 
Q 2250 2553 1709 2553 
Q 1456 2553 1204 2497 
Q 953 2441 691 2322 
L 691 4666 
z
" transform="scale(0.015625)"/>
       </defs>
       <use xlink:href="#DejaVuSans-35"/>
       <use xlink:href="#DejaVuSans-30" transform="translate(63.623047 0)"/>
       <use xlink:href="#DejaVuSans-30" transform="translate(127.246094 0)"/>
      </g>
     </g>
    </g>
    <g id="xtick_7">
     <g id="line2d_13">
      <path d="M 462.800595 576.718125 
L 462.800595 22.318125 
" clip-path="url(#p0b0e2d3772)" style="fill: none; stroke: #b0b0b0; stroke-width: 0.8; stroke-linecap: square"/>
     </g>
     <g id="line2d_14">
      <g>
       <use xlink:href="#mc94b4a9f76" x="462.800595" y="576.718125" style="stroke: #000000; stroke-width: 0.8"/>
      </g>
     </g>
     <g id="text_7">
      <!-- 600 -->
      <g transform="translate(453.256845 591.316563) scale(0.1 -0.1)">
       <defs>
        <path id="DejaVuSans-36" d="M 2113 2584 
Q 1688 2584 1439 2293 
Q 1191 2003 1191 1497 
Q 1191 994 1439 701 
Q 1688 409 2113 409 
Q 2538 409 2786 701 
Q 3034 994 3034 1497 
Q 3034 2003 2786 2293 
Q 2538 2584 2113 2584 
z
M 3366 4563 
L 3366 3988 
Q 3128 4100 2886 4159 
Q 2644 4219 2406 4219 
Q 1781 4219 1451 3797 
Q 1122 3375 1075 2522 
Q 1259 2794 1537 2939 
Q 1816 3084 2150 3084 
Q 2853 3084 3261 2657 
Q 3669 2231 3669 1497 
Q 3669 778 3244 343 
Q 2819 -91 2113 -91 
Q 1303 -91 875 529 
Q 447 1150 447 2328 
Q 447 3434 972 4092 
Q 1497 4750 2381 4750 
Q 2619 4750 2861 4703 
Q 3103 4656 3366 4563 
z
" transform="scale(0.015625)"/>
       </defs>
       <use xlink:href="#DejaVuSans-36"/>
       <use xlink:href="#DejaVuSans-30" transform="translate(63.623047 0)"/>
       <use xlink:href="#DejaVuSans-30" transform="translate(127.246094 0)"/>
      </g>
     </g>
    </g>
    <g id="xtick_8">
     <g id="line2d_15">
      <path d="M 526.289047 576.718125 
L 526.289047 22.318125 
" clip-path="url(#p0b0e2d3772)" style="fill: none; stroke: #b0b0b0; stroke-width: 0.8; stroke-linecap: square"/>
     </g>
     <g id="line2d_16">
      <g>
       <use xlink:href="#mc94b4a9f76" x="526.289047" y="576.718125" style="stroke: #000000; stroke-width: 0.8"/>
      </g>
     </g>
     <g id="text_8">
      <!-- 700 -->
      <g transform="translate(516.745297 591.316563) scale(0.1 -0.1)">
       <defs>
        <path id="DejaVuSans-37" d="M 525 4666 
L 3525 4666 
L 3525 4397 
L 1831 0 
L 1172 0 
L 2766 4134 
L 525 4134 
L 525 4666 
z
" transform="scale(0.015625)"/>
       </defs>
       <use xlink:href="#DejaVuSans-37"/>
       <use xlink:href="#DejaVuSans-30" transform="translate(63.623047 0)"/>
       <use xlink:href="#DejaVuSans-30" transform="translate(127.246094 0)"/>
      </g>
     </g>
    </g>
    <g id="xtick_9">
     <g id="line2d_17">
      <path d="M 589.777498 576.718125 
L 589.777498 22.318125 
" clip-path="url(#p0b0e2d3772)" style="fill: none; stroke: #b0b0b0; stroke-width: 0.8; stroke-linecap: square"/>
     </g>
     <g id="line2d_18">
      <g>
       <use xlink:href="#mc94b4a9f76" x="589.777498" y="576.718125" style="stroke: #000000; stroke-width: 0.8"/>
      </g>
     </g>
     <g id="text_9">
      <!-- 800 -->
      <g transform="translate(580.233748 591.316563) scale(0.1 -0.1)">
       <defs>
        <path id="DejaVuSans-38" d="M 2034 2216 
Q 1584 2216 1326 1975 
Q 1069 1734 1069 1313 
Q 1069 891 1326 650 
Q 1584 409 2034 409 
Q 2484 409 2743 651 
Q 3003 894 3003 1313 
Q 3003 1734 2745 1975 
Q 2488 2216 2034 2216 
z
M 1403 2484 
Q 997 2584 770 2862 
Q 544 3141 544 3541 
Q 544 4100 942 4425 
Q 1341 4750 2034 4750 
Q 2731 4750 3128 4425 
Q 3525 4100 3525 3541 
Q 3525 3141 3298 2862 
Q 3072 2584 2669 2484 
Q 3125 2378 3379 2068 
Q 3634 1759 3634 1313 
Q 3634 634 3220 271 
Q 2806 -91 2034 -91 
Q 1263 -91 848 271 
Q 434 634 434 1313 
Q 434 1759 690 2068 
Q 947 2378 1403 2484 
z
M 1172 3481 
Q 1172 3119 1398 2916 
Q 1625 2713 2034 2713 
Q 2441 2713 2670 2916 
Q 2900 3119 2900 3481 
Q 2900 3844 2670 4047 
Q 2441 4250 2034 4250 
Q 1625 4250 1398 4047 
Q 1172 3844 1172 3481 
z
" transform="scale(0.015625)"/>
       </defs>
       <use xlink:href="#DejaVuSans-38"/>
       <use xlink:href="#DejaVuSans-30" transform="translate(63.623047 0)"/>
       <use xlink:href="#DejaVuSans-30" transform="translate(127.246094 0)"/>
      </g>
     </g>
    </g>
    <g id="text_10">
     <!-- Epochs -->
     <g transform="translate(317.590625 604.994688) scale(0.1 -0.1)">
      <defs>
       <path id="DejaVuSans-45" d="M 628 4666 
L 3578 4666 
L 3578 4134 
L 1259 4134 
L 1259 2753 
L 3481 2753 
L 3481 2222 
L 1259 2222 
L 1259 531 
L 3634 531 
L 3634 0 
L 628 0 
L 628 4666 
z
" transform="scale(0.015625)"/>
       <path id="DejaVuSans-70" d="M 1159 525 
L 1159 -1331 
L 581 -1331 
L 581 3500 
L 1159 3500 
L 1159 2969 
Q 1341 3281 1617 3432 
Q 1894 3584 2278 3584 
Q 2916 3584 3314 3078 
Q 3713 2572 3713 1747 
Q 3713 922 3314 415 
Q 2916 -91 2278 -91 
Q 1894 -91 1617 61 
Q 1341 213 1159 525 
z
M 3116 1747 
Q 3116 2381 2855 2742 
Q 2594 3103 2138 3103 
Q 1681 3103 1420 2742 
Q 1159 2381 1159 1747 
Q 1159 1113 1420 752 
Q 1681 391 2138 391 
Q 2594 391 2855 752 
Q 3116 1113 3116 1747 
z
" transform="scale(0.015625)"/>
       <path id="DejaVuSans-6f" d="M 1959 3097 
Q 1497 3097 1228 2736 
Q 959 2375 959 1747 
Q 959 1119 1226 758 
Q 1494 397 1959 397 
Q 2419 397 2687 759 
Q 2956 1122 2956 1747 
Q 2956 2369 2687 2733 
Q 2419 3097 1959 3097 
z
M 1959 3584 
Q 2709 3584 3137 3096 
Q 3566 2609 3566 1747 
Q 3566 888 3137 398 
Q 2709 -91 1959 -91 
Q 1206 -91 779 398 
Q 353 888 353 1747 
Q 353 2609 779 3096 
Q 1206 3584 1959 3584 
z
" transform="scale(0.015625)"/>
       <path id="DejaVuSans-63" d="M 3122 3366 
L 3122 2828 
Q 2878 2963 2633 3030 
Q 2388 3097 2138 3097 
Q 1578 3097 1268 2742 
Q 959 2388 959 1747 
Q 959 1106 1268 751 
Q 1578 397 2138 397 
Q 2388 397 2633 464 
Q 2878 531 3122 666 
L 3122 134 
Q 2881 22 2623 -34 
Q 2366 -91 2075 -91 
Q 1284 -91 818 406 
Q 353 903 353 1747 
Q 353 2603 823 3093 
Q 1294 3584 2113 3584 
Q 2378 3584 2631 3529 
Q 2884 3475 3122 3366 
z
" transform="scale(0.015625)"/>
       <path id="DejaVuSans-68" d="M 3513 2113 
L 3513 0 
L 2938 0 
L 2938 2094 
Q 2938 2591 2744 2837 
Q 2550 3084 2163 3084 
Q 1697 3084 1428 2787 
Q 1159 2491 1159 1978 
L 1159 0 
L 581 0 
L 581 4863 
L 1159 4863 
L 1159 2956 
Q 1366 3272 1645 3428 
Q 1925 3584 2291 3584 
Q 2894 3584 3203 3211 
Q 3513 2838 3513 2113 
z
" transform="scale(0.015625)"/>
       <path id="DejaVuSans-73" d="M 2834 3397 
L 2834 2853 
Q 2591 2978 2328 3040 
Q 2066 3103 1784 3103 
Q 1356 3103 1142 2972 
Q 928 2841 928 2578 
Q 928 2378 1081 2264 
Q 1234 2150 1697 2047 
L 1894 2003 
Q 2506 1872 2764 1633 
Q 3022 1394 3022 966 
Q 3022 478 2636 193 
Q 2250 -91 1575 -91 
Q 1294 -91 989 -36 
Q 684 19 347 128 
L 347 722 
Q 666 556 975 473 
Q 1284 391 1588 391 
Q 1994 391 2212 530 
Q 2431 669 2431 922 
Q 2431 1156 2273 1281 
Q 2116 1406 1581 1522 
L 1381 1569 
Q 847 1681 609 1914 
Q 372 2147 372 2553 
Q 372 3047 722 3315 
Q 1072 3584 1716 3584 
Q 2034 3584 2315 3537 
Q 2597 3491 2834 3397 
z
" transform="scale(0.015625)"/>
      </defs>
      <use xlink:href="#DejaVuSans-45"/>
      <use xlink:href="#DejaVuSans-70" transform="translate(63.183594 0)"/>
      <use xlink:href="#DejaVuSans-6f" transform="translate(126.660156 0)"/>
      <use xlink:href="#DejaVuSans-63" transform="translate(187.841797 0)"/>
      <use xlink:href="#DejaVuSans-68" transform="translate(242.822266 0)"/>
      <use xlink:href="#DejaVuSans-73" transform="translate(306.201172 0)"/>
     </g>
    </g>
   </g>
   <g id="matplotlib.axis_2">
    <g id="ytick_1">
     <g id="line2d_19">
      <path d="M 56.50625 562.663439 
L 614.50625 562.663439 
" clip-path="url(#p0b0e2d3772)" style="fill: none; stroke: #b0b0b0; stroke-width: 0.8; stroke-linecap: square"/>
     </g>
     <g id="line2d_20">
      <defs>
       <path id="m23ba15b949" d="M 0 0 
L -3.5 0 
" style="stroke: #000000; stroke-width: 0.8"/>
      </defs>
      <g>
       <use xlink:href="#m23ba15b949" x="56.50625" y="562.663439" style="stroke: #000000; stroke-width: 0.8"/>
      </g>
     </g>
     <g id="text_11">
      <!-- 0.000 -->
      <g transform="translate(20.878125 566.462658) scale(0.1 -0.1)">
       <defs>
        <path id="DejaVuSans-2e" d="M 684 794 
L 1344 794 
L 1344 0 
L 684 0 
L 684 794 
z
" transform="scale(0.015625)"/>
       </defs>
       <use xlink:href="#DejaVuSans-30"/>
       <use xlink:href="#DejaVuSans-2e" transform="translate(63.623047 0)"/>
       <use xlink:href="#DejaVuSans-30" transform="translate(95.410156 0)"/>
       <use xlink:href="#DejaVuSans-30" transform="translate(159.033203 0)"/>
       <use xlink:href="#DejaVuSans-30" transform="translate(222.65625 0)"/>
      </g>
     </g>
    </g>
    <g id="ytick_2">
     <g id="line2d_21">
      <path d="M 56.50625 491.333429 
L 614.50625 491.333429 
" clip-path="url(#p0b0e2d3772)" style="fill: none; stroke: #b0b0b0; stroke-width: 0.8; stroke-linecap: square"/>
     </g>
     <g id="line2d_22">
      <g>
       <use xlink:href="#m23ba15b949" x="56.50625" y="491.333429" style="stroke: #000000; stroke-width: 0.8"/>
      </g>
     </g>
     <g id="text_12">
      <!-- 0.025 -->
      <g transform="translate(20.878125 495.132648) scale(0.1 -0.1)">
       <use xlink:href="#DejaVuSans-30"/>
       <use xlink:href="#DejaVuSans-2e" transform="translate(63.623047 0)"/>
       <use xlink:href="#DejaVuSans-30" transform="translate(95.410156 0)"/>
       <use xlink:href="#DejaVuSans-32" transform="translate(159.033203 0)"/>
       <use xlink:href="#DejaVuSans-35" transform="translate(222.65625 0)"/>
      </g>
     </g>
    </g>
    <g id="ytick_3">
     <g id="line2d_23">
      <path d="M 56.50625 420.003419 
L 614.50625 420.003419 
" clip-path="url(#p0b0e2d3772)" style="fill: none; stroke: #b0b0b0; stroke-width: 0.8; stroke-linecap: square"/>
     </g>
     <g id="line2d_24">
      <g>
       <use xlink:href="#m23ba15b949" x="56.50625" y="420.003419" style="stroke: #000000; stroke-width: 0.8"/>
      </g>
     </g>
     <g id="text_13">
      <!-- 0.050 -->
      <g transform="translate(20.878125 423.802638) scale(0.1 -0.1)">
       <use xlink:href="#DejaVuSans-30"/>
       <use xlink:href="#DejaVuSans-2e" transform="translate(63.623047 0)"/>
       <use xlink:href="#DejaVuSans-30" transform="translate(95.410156 0)"/>
       <use xlink:href="#DejaVuSans-35" transform="translate(159.033203 0)"/>
       <use xlink:href="#DejaVuSans-30" transform="translate(222.65625 0)"/>
      </g>
     </g>
    </g>
    <g id="ytick_4">
     <g id="line2d_25">
      <path d="M 56.50625 348.67341 
L 614.50625 348.67341 
" clip-path="url(#p0b0e2d3772)" style="fill: none; stroke: #b0b0b0; stroke-width: 0.8; stroke-linecap: square"/>
     </g>
     <g id="line2d_26">
      <g>
       <use xlink:href="#m23ba15b949" x="56.50625" y="348.67341" style="stroke: #000000; stroke-width: 0.8"/>
      </g>
     </g>
     <g id="text_14">
      <!-- 0.075 -->
      <g transform="translate(20.878125 352.472628) scale(0.1 -0.1)">
       <use xlink:href="#DejaVuSans-30"/>
       <use xlink:href="#DejaVuSans-2e" transform="translate(63.623047 0)"/>
       <use xlink:href="#DejaVuSans-30" transform="translate(95.410156 0)"/>
       <use xlink:href="#DejaVuSans-37" transform="translate(159.033203 0)"/>
       <use xlink:href="#DejaVuSans-35" transform="translate(222.65625 0)"/>
      </g>
     </g>
    </g>
    <g id="ytick_5">
     <g id="line2d_27">
      <path d="M 56.50625 277.3434 
L 614.50625 277.3434 
" clip-path="url(#p0b0e2d3772)" style="fill: none; stroke: #b0b0b0; stroke-width: 0.8; stroke-linecap: square"/>
     </g>
     <g id="line2d_28">
      <g>
       <use xlink:href="#m23ba15b949" x="56.50625" y="277.3434" style="stroke: #000000; stroke-width: 0.8"/>
      </g>
     </g>
     <g id="text_15">
      <!-- 0.100 -->
      <g transform="translate(20.878125 281.142619) scale(0.1 -0.1)">
       <use xlink:href="#DejaVuSans-30"/>
       <use xlink:href="#DejaVuSans-2e" transform="translate(63.623047 0)"/>
       <use xlink:href="#DejaVuSans-31" transform="translate(95.410156 0)"/>
       <use xlink:href="#DejaVuSans-30" transform="translate(159.033203 0)"/>
       <use xlink:href="#DejaVuSans-30" transform="translate(222.65625 0)"/>
      </g>
     </g>
    </g>
    <g id="ytick_6">
     <g id="line2d_29">
      <path d="M 56.50625 206.01339 
L 614.50625 206.01339 
" clip-path="url(#p0b0e2d3772)" style="fill: none; stroke: #b0b0b0; stroke-width: 0.8; stroke-linecap: square"/>
     </g>
     <g id="line2d_30">
      <g>
       <use xlink:href="#m23ba15b949" x="56.50625" y="206.01339" style="stroke: #000000; stroke-width: 0.8"/>
      </g>
     </g>
     <g id="text_16">
      <!-- 0.125 -->
      <g transform="translate(20.878125 209.812609) scale(0.1 -0.1)">
       <use xlink:href="#DejaVuSans-30"/>
       <use xlink:href="#DejaVuSans-2e" transform="translate(63.623047 0)"/>
       <use xlink:href="#DejaVuSans-31" transform="translate(95.410156 0)"/>
       <use xlink:href="#DejaVuSans-32" transform="translate(159.033203 0)"/>
       <use xlink:href="#DejaVuSans-35" transform="translate(222.65625 0)"/>
      </g>
     </g>
    </g>
    <g id="ytick_7">
     <g id="line2d_31">
      <path d="M 56.50625 134.68338 
L 614.50625 134.68338 
" clip-path="url(#p0b0e2d3772)" style="fill: none; stroke: #b0b0b0; stroke-width: 0.8; stroke-linecap: square"/>
     </g>
     <g id="line2d_32">
      <g>
       <use xlink:href="#m23ba15b949" x="56.50625" y="134.68338" style="stroke: #000000; stroke-width: 0.8"/>
      </g>
     </g>
     <g id="text_17">
      <!-- 0.150 -->
      <g transform="translate(20.878125 138.482599) scale(0.1 -0.1)">
       <use xlink:href="#DejaVuSans-30"/>
       <use xlink:href="#DejaVuSans-2e" transform="translate(63.623047 0)"/>
       <use xlink:href="#DejaVuSans-31" transform="translate(95.410156 0)"/>
       <use xlink:href="#DejaVuSans-35" transform="translate(159.033203 0)"/>
       <use xlink:href="#DejaVuSans-30" transform="translate(222.65625 0)"/>
      </g>
     </g>
    </g>
    <g id="ytick_8">
     <g id="line2d_33">
      <path d="M 56.50625 63.35337 
L 614.50625 63.35337 
" clip-path="url(#p0b0e2d3772)" style="fill: none; stroke: #b0b0b0; stroke-width: 0.8; stroke-linecap: square"/>
     </g>
     <g id="line2d_34">
      <g>
       <use xlink:href="#m23ba15b949" x="56.50625" y="63.35337" style="stroke: #000000; stroke-width: 0.8"/>
      </g>
     </g>
     <g id="text_18">
      <!-- 0.175 -->
      <g transform="translate(20.878125 67.152589) scale(0.1 -0.1)">
       <use xlink:href="#DejaVuSans-30"/>
       <use xlink:href="#DejaVuSans-2e" transform="translate(63.623047 0)"/>
       <use xlink:href="#DejaVuSans-31" transform="translate(95.410156 0)"/>
       <use xlink:href="#DejaVuSans-37" transform="translate(159.033203 0)"/>
       <use xlink:href="#DejaVuSans-35" transform="translate(222.65625 0)"/>
      </g>
     </g>
    </g>
    <g id="text_19">
     <!-- Accuracy -->
     <g transform="translate(14.798437 322.34625) rotate(-90) scale(0.1 -0.1)">
      <defs>
       <path id="DejaVuSans-41" d="M 2188 4044 
L 1331 1722 
L 3047 1722 
L 2188 4044 
z
M 1831 4666 
L 2547 4666 
L 4325 0 
L 3669 0 
L 3244 1197 
L 1141 1197 
L 716 0 
L 50 0 
L 1831 4666 
z
" transform="scale(0.015625)"/>
       <path id="DejaVuSans-75" d="M 544 1381 
L 544 3500 
L 1119 3500 
L 1119 1403 
Q 1119 906 1312 657 
Q 1506 409 1894 409 
Q 2359 409 2629 706 
Q 2900 1003 2900 1516 
L 2900 3500 
L 3475 3500 
L 3475 0 
L 2900 0 
L 2900 538 
Q 2691 219 2414 64 
Q 2138 -91 1772 -91 
Q 1169 -91 856 284 
Q 544 659 544 1381 
z
M 1991 3584 
L 1991 3584 
z
" transform="scale(0.015625)"/>
       <path id="DejaVuSans-72" d="M 2631 2963 
Q 2534 3019 2420 3045 
Q 2306 3072 2169 3072 
Q 1681 3072 1420 2755 
Q 1159 2438 1159 1844 
L 1159 0 
L 581 0 
L 581 3500 
L 1159 3500 
L 1159 2956 
Q 1341 3275 1631 3429 
Q 1922 3584 2338 3584 
Q 2397 3584 2469 3576 
Q 2541 3569 2628 3553 
L 2631 2963 
z
" transform="scale(0.015625)"/>
       <path id="DejaVuSans-61" d="M 2194 1759 
Q 1497 1759 1228 1600 
Q 959 1441 959 1056 
Q 959 750 1161 570 
Q 1363 391 1709 391 
Q 2188 391 2477 730 
Q 2766 1069 2766 1631 
L 2766 1759 
L 2194 1759 
z
M 3341 1997 
L 3341 0 
L 2766 0 
L 2766 531 
Q 2569 213 2275 61 
Q 1981 -91 1556 -91 
Q 1019 -91 701 211 
Q 384 513 384 1019 
Q 384 1609 779 1909 
Q 1175 2209 1959 2209 
L 2766 2209 
L 2766 2266 
Q 2766 2663 2505 2880 
Q 2244 3097 1772 3097 
Q 1472 3097 1187 3025 
Q 903 2953 641 2809 
L 641 3341 
Q 956 3463 1253 3523 
Q 1550 3584 1831 3584 
Q 2591 3584 2966 3190 
Q 3341 2797 3341 1997 
z
" transform="scale(0.015625)"/>
       <path id="DejaVuSans-79" d="M 2059 -325 
Q 1816 -950 1584 -1140 
Q 1353 -1331 966 -1331 
L 506 -1331 
L 506 -850 
L 844 -850 
Q 1081 -850 1212 -737 
Q 1344 -625 1503 -206 
L 1606 56 
L 191 3500 
L 800 3500 
L 1894 763 
L 2988 3500 
L 3597 3500 
L 2059 -325 
z
" transform="scale(0.015625)"/>
      </defs>
      <use xlink:href="#DejaVuSans-41"/>
      <use xlink:href="#DejaVuSans-63" transform="translate(66.658203 0)"/>
      <use xlink:href="#DejaVuSans-63" transform="translate(121.638672 0)"/>
      <use xlink:href="#DejaVuSans-75" transform="translate(176.619141 0)"/>
      <use xlink:href="#DejaVuSans-72" transform="translate(239.998047 0)"/>
      <use xlink:href="#DejaVuSans-61" transform="translate(281.111328 0)"/>
      <use xlink:href="#DejaVuSans-63" transform="translate(342.390625 0)"/>
      <use xlink:href="#DejaVuSans-79" transform="translate(397.371094 0)"/>
     </g>
    </g>
   </g>
   <g id="line2d_35">
    <path d="M 81.869886 131.861874 
L 82.504771 131.418049 
L 83.77454 285.506722 
L 84.409424 262.792082 
L 85.044309 308.062863 
L 86.314078 226.223561 
L 86.948962 240.584658 
L 87.583847 297.965696 
L 88.218732 333.202722 
L 88.853616 340.95392 
L 89.488501 385.400443 
L 90.123385 398.778782 
L 90.75827 367.472828 
L 91.393154 384.005535 
L 92.028039 410.286683 
L 92.662923 395.941435 
L 93.297808 405.594756 
L 93.932692 406.831142 
L 94.567577 398.334947 
L 95.202461 405.436246 
L 95.837346 404.342522 
L 96.47223 394.831852 
L 97.107115 403.819437 
L 97.741999 397.542396 
L 98.376884 393.421107 
L 99.011768 390.995878 
L 99.646653 391.265355 
L 100.281537 394.134398 
L 100.916422 388.665767 
L 101.551306 395.751218 
L 102.186191 389.204711 
L 102.821075 390.076523 
L 103.45596 386.969698 
L 104.090844 386.605123 
L 104.725729 384.877347 
L 105.360613 383.545853 
L 105.995498 391.043432 
L 106.630382 392.232264 
L 107.265267 383.910427 
L 107.900151 391.78844 
L 108.535036 390.028968 
L 109.16992 385.701605 
L 109.804805 391.471419 
L 110.43969 391.62993 
L 111.074574 394.245365 
L 111.709459 386.811188 
L 112.344343 389.442471 
L 112.979228 391.011736 
L 113.614112 389.711937 
L 114.248997 389.680242 
L 114.883881 391.94695 
L 115.518766 399.079955 
L 116.15365 386.684384 
L 116.788535 394.514831 
L 117.423419 390.060664 
L 118.058304 391.186094 
L 119.328073 392.802914 
L 119.962957 392.121308 
L 120.597842 393.864932 
L 121.232726 385.289476 
L 121.867611 389.268113 
L 123.772264 391.614071 
L 124.407149 391.328757 
L 125.042033 384.94076 
L 125.676918 387.524489 
L 126.311802 389.331515 
L 126.946687 388.459703 
L 127.581571 389.727796 
L 128.216456 385.527247 
L 128.85134 387.793955 
L 129.486225 385.289476 
L 130.121109 382.198521 
L 130.755994 384.734696 
L 131.390879 384.164056 
L 132.025763 381.929054 
L 132.660648 385.33703 
L 133.295532 381.152351 
L 133.930417 382.087554 
L 134.565301 379.836693 
L 135.200186 382.547237 
L 135.83507 384.655435 
L 136.469955 379.202652 
L 137.104839 372.767111 
L 137.739724 377.316366 
L 138.374608 376.381163 
L 139.009493 378.093069 
L 139.644377 374.843593 
L 140.279262 375.097222 
L 140.914146 380.407343 
L 141.549031 372.735394 
L 142.183915 374.336356 
L 142.8188 374.669235 
L 143.453684 373.496261 
L 144.088569 367.884957 
L 144.723453 373.670619 
L 145.358338 367.774011 
L 145.993222 368.614106 
L 146.628107 366.521766 
L 147.262991 366.743679 
L 147.897876 368.26539 
L 148.53276 367.837403 
L 149.167645 368.58241 
L 149.802529 362.986965 
L 150.437414 359.880151 
L 151.072298 366.014529 
L 152.342067 362.70164 
L 152.976952 362.368761 
L 153.611837 365.871867 
L 154.246721 359.975259 
L 154.881606 362.131012 
L 155.51649 365.015913 
L 156.151375 360.466638 
L 156.786259 359.864292 
L 157.421144 357.835344 
L 158.056028 358.310885 
L 158.690913 359.151001 
L 159.325797 351.146174 
L 159.960682 356.789174 
L 160.595566 354.459063 
L 161.230451 356.472153 
L 161.865335 351.272999 
L 162.50022 354.902888 
L 163.135104 354.157901 
L 163.769989 353.935989 
L 164.404873 349.814679 
L 165.039758 353.397035 
L 165.674642 352.049703 
L 166.309527 352.303311 
L 166.944411 351.685128 
L 167.579296 351.558303 
L 168.21418 350.036613 
L 168.849065 351.336391 
L 169.483949 345.328816 
L 170.118834 345.804358 
L 170.753718 345.249566 
L 171.388603 347.262656 
L 172.023487 347.104157 
L 172.658372 346.121378 
L 173.293256 347.07244 
L 173.928141 347.722339 
L 174.563026 342.903597 
L 175.19791 345.408087 
L 175.832795 345.455641 
L 176.467679 340.795399 
L 177.102564 341.159974 
L 177.737448 341.128278 
L 178.372333 344.377755 
L 179.007217 343.077977 
L 179.642102 337.862943 
L 180.276986 343.93393 
L 180.911871 341.445299 
L 181.546755 339.780925 
L 182.18164 338.528701 
L 182.816524 340.906366 
L 183.451409 342.792652 
L 184.086293 339.400513 
L 184.721178 339.923587 
L 185.356062 338.306789 
L 185.990947 334.962204 
L 186.625831 327.718243 
L 187.260716 331.887086 
L 187.8956 339.083492 
L 188.530485 337.672727 
L 189.165369 335.089008 
L 189.800254 336.230286 
L 190.435138 337.767835 
L 191.070023 334.962204 
L 191.704907 332.758897 
L 192.339792 329.683779 
L 192.974676 335.199953 
L 193.609561 334.296446 
L 194.244445 335.944961 
L 194.87933 331.855369 
L 195.514215 331.538348 
L 196.149099 331.728565 
L 196.783984 330.476341 
L 197.418868 330.777503 
L 198.053753 331.887086 
L 198.688637 331.744423 
L 199.323522 330.840916 
L 199.958406 329.303346 
L 200.593291 331.078665 
L 201.228175 330.682395 
L 201.86306 326.576965 
L 202.497944 332.061444 
L 203.132829 327.496331 
L 203.767713 332.743039 
L 204.402598 329.937387 
L 205.037482 326.339194 
L 205.672367 330.191016 
L 206.307251 326.101423 
L 206.942136 324.75407 
L 207.57702 326.180673 
L 208.211905 331.570065 
L 208.846789 327.860906 
L 209.481674 326.355053 
L 210.116558 329.335041 
L 210.751443 325.435687 
L 211.386327 327.052485 
L 212.021212 327.73408 
L 212.656096 331.221328 
L 213.290981 328.051101 
L 213.925865 323.882258 
L 214.56075 321.710669 
L 215.195634 324.849178 
L 215.830519 326.719627 
L 216.465403 324.738233 
L 217.100288 327.924297 
L 217.735173 329.319204 
L 218.370057 327.353668 
L 219.004942 320.458424 
L 219.639826 328.241317 
L 220.909595 319.982903 
L 221.54448 322.392264 
L 222.179364 319.982903 
L 223.449133 322.328851 
L 224.084018 321.472898 
L 224.718902 320.315761 
L 225.353787 325.039395 
L 225.988671 324.421212 
L 226.623556 320.696194 
L 227.25844 320.616945 
L 227.893325 322.66173 
L 228.528209 321.155877 
L 229.163094 325.673436 
L 229.797978 324.056638 
L 230.432863 319.60247 
L 231.067747 323.470129 
L 231.702632 320.997356 
L 232.337516 323.042163 
L 232.972401 316.955339 
L 233.607285 318.017346 
L 234.24217 321.552148 
L 234.877054 318.017346 
L 235.511939 319.142787 
L 236.146823 318.5563 
L 236.781708 319.269591 
L 237.416592 313.705863 
L 238.051477 317.161393 
L 238.686362 315.639682 
L 239.321246 316.606602 
L 239.956131 315.465324 
L 240.591015 315.465324 
L 241.2259 318.207563 
L 241.860784 320.299924 
L 242.495669 323.945671 
L 243.130553 314.244795 
L 243.765438 314.752033 
L 244.400322 317.525968 
L 245.035207 314.878837 
L 245.670091 313.864362 
L 246.304976 318.270976 
L 246.93986 316.257885 
L 247.574745 314.942249 
L 248.209629 319.317145 
L 248.844514 311.882968 
L 249.479398 320.949802 
L 250.114283 314.419154 
L 250.749167 312.818192 
L 251.384052 317.573522 
L 252.018936 317.763738 
L 252.653821 320.014599 
L 253.288705 315.671399 
L 253.92359 314.577674 
L 254.558474 317.795434 
L 255.193359 318.477029 
L 255.828243 314.815424 
L 256.463128 312.59628 
L 257.098012 320.616945 
L 257.732897 320.062153 
L 258.367781 318.63555 
L 259.002666 318.128313 
L 259.63755 310.820961 
L 260.272435 316.400548 
L 260.90732 315.909148 
L 261.542204 316.733427 
L 262.177089 313.468092 
L 262.811973 317.256501 
L 263.446858 315.829898 
L 264.081742 317.779597 
L 264.716627 311.312339 
L 265.351511 317.969813 
L 265.986396 315.877452 
L 266.62128 314.466708 
L 267.891049 310.488082 
L 268.525934 310.947765 
L 269.160818 311.565947 
L 269.795703 314.831282 
L 270.430587 315.877452 
L 271.065472 314.086275 
L 271.700356 318.809908 
L 272.335241 309.711378 
L 272.970125 314.847141 
L 273.60501 308.427438 
L 274.239894 314.561816 
L 274.874779 309.093174 
L 275.509663 314.53012 
L 276.144548 310.028399 
L 276.779432 315.639682 
L 277.414317 310.709994 
L 278.049201 315.08489 
L 278.684086 310.345419 
L 279.31897 312.310955 
L 279.953855 307.888505 
L 280.588739 310.155203 
L 281.223624 310.773407 
L 281.858509 314.197241 
L 282.493393 308.538383 
L 283.128278 310.773407 
L 283.763162 305.59009 
L 284.398047 309.964986 
L 285.032931 313.119354 
L 285.667816 313.579037 
L 286.3027 307.460518 
L 286.937585 309.156587 
L 287.572469 314.76787 
L 288.207354 308.189667 
L 288.842238 313.959471 
L 289.477123 310.186898 
L 290.746892 314.070437 
L 291.381776 309.679661 
L 292.016661 310.773407 
L 292.651545 305.082853 
L 293.28643 308.744458 
L 293.921314 314.03872 
L 294.556199 309.267532 
L 295.191083 316.463939 
L 295.825968 312.75478 
L 296.460852 315.512878 
L 297.095737 310.916048 
L 297.730621 309.315087 
L 298.365506 309.822324 
L 299.00039 311.074569 
L 299.635275 310.234453 
L 300.270159 311.264785 
L 300.905044 308.792012 
L 301.539928 313.64245 
L 302.174813 311.359894 
L 302.809697 308.64935 
L 303.444582 307.99945 
L 304.079467 309.885736 
L 304.714351 311.407448 
L 305.349236 310.123507 
L 305.98412 305.209657 
L 306.619005 304.813386 
L 307.253889 313.119354 
L 307.888774 308.982229 
L 308.523658 306.731368 
L 309.158543 309.61627 
L 309.793427 308.681046 
L 310.428312 309.996703 
L 311.063196 308.696904 
L 311.698081 307.777538 
L 312.332965 304.559757 
L 312.96785 308.474992 
L 313.602734 305.621786 
L 314.237619 302.197951 
L 314.872503 311.835414 
L 315.507388 309.346804 
L 316.142272 308.744458 
L 316.777157 303.497729 
L 317.412041 312.786497 
L 318.046926 306.763064 
L 318.68181 308.950512 
L 319.316695 310.123507 
L 319.951579 315.275107 
L 320.586464 304.956049 
L 321.221348 308.094559 
L 321.856233 304.908495 
L 322.491117 305.193798 
L 323.126002 306.113164 
L 323.760886 311.248927 
L 324.395771 305.241352 
L 325.030656 309.378499 
L 325.66554 307.983592 
L 326.300425 308.712762 
L 326.935309 310.345419 
L 327.570194 304.242737 
L 328.205078 307.492213 
L 328.839963 307.365409 
L 329.474847 315.465324 
L 330.109732 307.492213 
L 330.744616 305.637644 
L 331.379501 308.681046 
L 332.014385 310.519777 
L 332.64927 308.776154 
L 333.284154 309.204141 
L 333.919039 306.271685 
L 334.553923 305.574231 
L 335.188808 306.287522 
L 335.823692 305.09869 
L 336.458577 301.120064 
L 337.093461 306.018056 
L 337.728346 313.309571 
L 338.36323 304.528062 
L 338.998115 306.430185 
L 339.632999 306.002219 
L 340.267884 308.474992 
L 340.902768 309.172445 
L 341.537653 308.522546 
L 342.172537 309.854041 
L 342.807422 307.412963 
L 343.442306 303.133154 
L 344.077191 309.806487 
L 344.712075 305.082853 
L 345.34696 307.460518 
L 345.981844 305.431569 
L 346.616729 307.238605 
L 347.251614 306.06561 
L 347.886498 305.352319 
L 348.521383 306.667956 
L 349.156267 299.503266 
L 349.791152 305.526677 
L 350.426036 309.679661 
L 351.060921 304.70242 
L 351.695805 305.875394 
L 352.33069 305.114548 
L 352.965574 303.814749 
L 353.600459 309.806487 
L 354.235343 304.211041 
L 354.870228 307.317855 
L 355.505112 309.04562 
L 356.139997 302.150397 
L 356.774881 306.129023 
L 357.409766 306.097327 
L 358.04465 308.332329 
L 359.314419 306.160718 
L 359.949304 306.208273 
L 360.584188 304.670724 
L 361.219073 308.094559 
L 361.853957 303.386783 
L 362.488842 305.288907 
L 363.123726 312.073185 
L 363.758611 307.333714 
L 365.02838 308.0787 
L 365.663264 304.385399 
L 366.298149 312.437759 
L 366.933033 308.0787 
L 367.567918 308.982229 
L 368.202803 305.352319 
L 368.837687 305.66934 
L 369.472572 303.65625 
L 370.107456 308.411579 
L 370.742341 302.68933 
L 371.377225 303.196567 
L 372.01211 312.168293 
L 372.646994 300.898152 
L 373.281879 300.91401 
L 373.916763 311.153819 
L 374.551648 302.958796 
L 375.186532 306.081469 
L 375.821417 303.418479 
L 376.456301 310.58319 
L 377.091186 303.339229 
L 377.72607 309.568716 
L 378.360955 305.130407 
L 378.995839 304.528062 
L 379.630724 303.561141 
L 380.265608 304.639007 
L 380.900493 302.863688 
L 381.535377 308.205525 
L 382.170262 309.283391 
L 382.805146 303.212425 
L 384.074915 306.398489 
L 384.7098 308.015309 
L 385.344684 302.388168 
L 385.979569 301.024956 
L 386.614453 313.277875 
L 387.249338 300.359219 
L 387.884222 304.480507 
L 389.153991 309.885736 
L 389.788876 306.921585 
L 390.423761 310.297865 
L 391.058645 303.989129 
L 391.69353 303.259979 
L 392.963299 307.52393 
L 393.598183 302.071147 
L 394.233068 301.706551 
L 394.867952 307.52393 
L 395.502837 302.625917 
L 396.137721 303.830608 
L 396.772606 305.970502 
L 397.40749 310.329561 
L 398.042375 303.97327 
L 398.677259 309.346804 
L 399.312144 304.020824 
L 399.947028 313.24618 
L 400.581913 304.464649 
L 401.216797 302.958796 
L 401.851682 312.247543 
L 402.486566 306.208273 
L 403.121451 306.984976 
L 403.756335 309.172445 
L 404.39122 300.042198 
L 405.026104 310.58319 
L 405.660989 299.788569 
L 406.295873 303.244121 
L 406.930758 305.827861 
L 407.565642 308.887121 
L 408.200527 302.68933 
L 408.835411 311.106264 
L 409.470296 307.428822 
L 410.10518 306.002219 
L 410.740065 303.846466 
L 411.37495 310.66244 
L 412.009834 302.166234 
L 412.644719 306.477739 
L 413.279603 305.415732 
L 413.914488 307.825092 
L 414.549372 307.777538 
L 415.184257 307.270301 
L 415.819141 302.419863 
L 416.454026 305.605927 
L 417.08891 304.797528 
L 417.723795 304.797528 
L 418.358679 306.350935 
L 418.993564 305.114548 
L 419.628448 308.871262 
L 420.263333 304.401258 
L 420.898217 309.600412 
L 421.533102 295.952606 
L 422.167986 305.827861 
L 422.802871 307.9202 
L 423.437755 302.705188 
L 424.07264 308.031146 
L 424.707524 303.65625 
L 425.342409 302.451559 
L 426.612178 305.796144 
L 427.247062 302.245505 
L 427.881947 307.254442 
L 428.516831 306.842314 
L 429.151716 311.645218 
L 429.7866 304.353703 
L 430.421485 304.734115 
L 431.691254 308.379883 
L 432.326138 303.545283 
L 432.961023 302.499113 
L 433.595908 310.599027 
L 434.230792 307.286159 
L 434.865677 307.444659 
L 435.500561 305.954665 
L 436.135446 298.932616 
L 436.77033 308.157971 
L 437.405215 308.015309 
L 438.040099 304.353703 
L 438.674984 306.588706 
L 439.309868 304.670724 
L 439.944753 303.957412 
L 440.579637 299.138691 
L 441.214522 308.284775 
L 441.849406 303.275817 
L 442.484291 309.901595 
L 443.119175 308.0787 
L 443.75406 308.601796 
L 444.388944 303.513587 
L 445.023829 304.829224 
L 445.658713 302.277201 
L 446.293598 314.435012 
L 446.928482 302.166234 
L 447.563367 304.956049 
L 448.198251 305.09869 
L 448.833136 304.195182 
L 449.46802 306.620401 
L 450.102905 303.862303 
L 450.737789 308.443275 
L 451.372674 307.444659 
L 452.007558 303.878162 
L 452.642443 306.335076 
L 453.912212 301.548051 
L 454.547097 303.291675 
L 455.181981 308.776154 
L 455.816866 306.55701 
L 456.45175 306.018056 
L 457.086635 307.476376 
L 457.721519 301.215172 
L 458.356404 304.401258 
L 458.991288 306.71551 
L 459.626173 300.961564 
L 460.261057 307.76168 
L 460.895942 305.90711 
L 461.530826 298.853366 
L 462.165711 305.384015 
L 462.800595 306.335076 
L 463.43548 303.307533 
L 464.070364 303.941575 
L 464.705249 298.90092 
L 465.340133 308.617654 
L 465.975018 300.343361 
L 466.609902 309.140729 
L 467.244787 306.984976 
L 467.879671 301.579747 
L 468.514556 303.212425 
L 469.14944 304.353703 
L 469.784325 303.97327 
L 470.419209 304.670724 
L 471.054094 301.991876 
L 471.688978 303.97327 
L 472.323863 301.722409 
L 472.958747 306.794759 
L 473.593632 301.262727 
L 474.228516 307.555626 
L 474.863401 303.640391 
L 476.13317 307.809234 
L 476.768055 297.949837 
L 477.402939 304.559757 
L 478.037824 305.558373 
L 478.672708 306.335076 
L 479.307593 305.225515 
L 479.942477 306.493597 
L 480.577362 305.320624 
L 481.212246 305.384015 
L 481.847131 305.98636 
L 482.482015 301.262727 
L 483.1169 309.013925 
L 484.386669 303.925716 
L 485.021553 303.0856 
L 485.656438 301.07251 
L 486.291322 301.183477 
L 486.926207 307.698288 
L 487.561091 305.542536 
L 488.195976 304.591474 
L 488.83086 304.575616 
L 489.465745 305.716894 
L 490.100629 302.9271 
L 490.735514 306.398489 
L 491.370398 300.486023 
L 492.005283 304.575616 
L 492.640167 306.747205 
L 493.275052 301.38953 
L 493.909936 304.860941 
L 494.544821 304.115933 
L 495.179705 301.405389 
L 495.81459 304.448812 
L 496.449474 308.284775 
L 497.084359 305.209657 
L 497.719244 304.004966 
L 498.354128 303.751358 
L 498.989013 308.792012 
L 499.623897 304.385399 
L 500.258782 306.287522 
L 500.893666 307.412963 
L 501.528551 308.142113 
L 502.163435 304.084237 
L 502.79832 304.654865 
L 503.433204 301.310281 
L 504.068089 298.932616 
L 504.702973 306.414348 
L 505.337858 307.460518 
L 506.607627 305.257211 
L 507.242511 303.386783 
L 507.877396 303.196567 
L 508.51228 306.604564 
L 509.147165 300.91401 
L 509.782049 307.492213 
L 510.416934 303.909858 
L 511.051818 303.466033 
L 511.686703 300.834739 
L 512.321587 306.667956 
L 512.956472 305.273069 
L 513.591356 304.480507 
L 514.226241 302.831992 
L 514.861125 302.419863 
L 515.49601 306.683814 
L 516.130894 304.131791 
L 516.765779 306.366793 
L 517.400663 306.224131 
L 518.035548 303.244121 
L 518.670433 304.956049 
L 519.305317 302.514971 
L 519.940202 301.135923 
L 520.575086 302.768579 
L 521.209971 302.483276 
L 521.844855 303.355066 
L 522.47974 301.991876 
L 523.114624 309.251695 
L 523.749509 304.908495 
L 524.384393 306.113164 
L 525.019278 303.307533 
L 525.654162 301.595606 
L 526.289047 304.274432 
L 526.923931 302.68933 
L 527.558816 302.499113 
L 528.1937 304.528062 
L 528.828585 309.822324 
L 530.098354 301.754105 
L 530.733238 305.146244 
L 531.368123 309.251695 
L 532.637892 300.644544 
L 533.272776 302.784438 
L 533.907661 298.631454 
L 534.542545 303.117317 
L 535.17743 303.164871 
L 535.812314 304.70242 
L 536.447199 306.747205 
L 537.082083 305.98636 
L 537.716968 306.921585 
L 538.351852 298.060804 
L 538.986737 303.0856 
L 539.621621 307.127638 
L 540.256506 302.499113 
L 540.891391 304.464649 
L 541.526275 300.882293 
L 542.16116 304.480507 
L 542.796044 303.053904 
L 544.065813 304.020824 
L 544.700698 299.566657 
L 545.335582 300.660381 
L 545.970467 302.657634 
L 546.605351 299.37644 
L 547.240236 304.211041 
L 547.87512 301.215172 
L 548.510005 303.862303 
L 549.144889 300.359219 
L 549.779774 302.071147 
L 550.414658 306.794759 
L 551.049543 300.549436 
L 551.684427 303.97327 
L 552.954196 300.692098 
L 553.589081 300.99326 
L 554.223965 302.134538 
L 554.85885 302.308896 
L 555.493734 305.431569 
L 556.128619 299.439853 
L 556.763503 302.68933 
L 557.398388 304.797528 
L 558.033272 305.447427 
L 558.668157 297.12558 
L 559.303041 309.790628 
L 559.937926 306.319239 
L 560.57281 304.496366 
L 561.207695 304.464649 
L 561.84258 306.382631 
L 562.477464 303.830608 
L 563.112349 302.800296 
L 563.747233 307.555626 
L 564.382118 296.063573 
L 565.017002 305.558373 
L 565.651887 305.352319 
L 566.286771 302.863688 
L 566.921656 299.439853 
L 567.55654 299.883678 
L 568.191425 303.814749 
L 568.826309 303.434337 
L 569.461194 305.732752 
L 570.096078 305.415732 
L 570.730963 304.496366 
L 571.365847 306.414348 
L 572.000732 304.54392 
L 572.635616 298.219325 
L 573.270501 308.490829 
L 573.905385 299.344745 
L 574.54027 300.089753 
L 575.175154 301.246868 
L 575.810039 305.780306 
L 577.079808 298.187608 
L 577.714692 307.888505 
L 578.349577 302.102843 
L 578.984461 305.859556 
L 579.619346 301.484639 
L 580.25423 300.375077 
L 580.889115 303.846466 
L 581.523999 300.961564 
L 582.158884 302.356451 
L 582.793768 307.127638 
L 583.428653 300.739652 
L 584.063538 303.149013 
L 584.698422 299.408157 
L 585.333307 307.619017 
L 585.968191 301.627301 
L 586.603076 308.474992 
L 587.23796 299.725178 
L 587.872845 298.631454 
L 588.507729 304.432953 
L 589.142614 304.70242 
L 589.142614 304.70242 
" clip-path="url(#p0b0e2d3772)" style="fill: none; stroke: #1f77b4; stroke-width: 1.5; stroke-linecap: square"/>
   </g>
   <g id="line2d_36">
    <path d="M 81.869886 360.656854 
L 82.504771 329.556975 
L 83.139655 339.25785 
L 83.77454 47.518125 
L 84.409424 508.737953 
L 85.044309 351.241282 
L 85.679193 436.124007 
L 86.314078 188.608871 
L 86.948962 150.661301 
L 87.583847 245.2449 
L 88.218732 266.215917 
L 88.853616 449.106065 
L 90.123385 399.888354 
L 90.75827 487.338949 
L 91.393154 340.684454 
L 92.028039 337.97391 
L 92.662923 441.830398 
L 93.297808 441.259759 
L 93.932692 447.536799 
L 94.567577 381.199883 
L 95.202461 502.746232 
L 95.837346 335.834016 
L 96.47223 470.933045 
L 97.107115 384.481077 
L 97.741999 463.942703 
L 98.376884 425.709819 
L 99.011768 395.465893 
L 99.646653 434.840066 
L 100.281537 275.488826 
L 100.916422 407.164021 
L 101.551306 358.088973 
L 102.186191 466.510584 
L 102.821075 404.310815 
L 103.45596 469.791767 
L 104.090844 353.809164 
L 104.725729 388.190236 
L 105.360613 459.234928 
L 105.995498 405.594756 
L 106.630382 446.96616 
L 107.265267 474.071566 
L 107.900151 395.180579 
L 108.535036 369.644439 
L 109.16992 400.316341 
L 109.804805 374.922843 
L 110.43969 424.283216 
L 111.074574 365.649954 
L 111.709459 383.625124 
L 112.344343 359.943542 
L 112.979228 421.715335 
L 113.614112 464.228028 
L 114.248997 400.316341 
L 114.883881 399.460377 
L 115.518766 391.328757 
L 116.15365 354.237151 
L 116.788535 448.392763 
L 117.423419 429.704303 
L 118.058304 465.65462 
L 118.693188 377.20542 
L 119.328073 423.141938 
L 119.962957 399.175053 
L 120.597842 467.937187 
L 121.232726 343.965626 
L 121.867611 373.496261 
L 122.502495 450.817982 
L 123.13738 415.295642 
L 123.772264 422.571299 
L 124.407149 411.586482 
L 125.042033 374.209552 
L 125.676918 408.3053 
L 126.311802 407.734661 
L 126.946687 402.884212 
L 127.581571 411.015843 
L 128.216456 375.208168 
L 128.85134 373.068274 
L 129.486225 395.323241 
L 130.121109 394.60994 
L 130.755994 380.771917 
L 131.390879 410.017217 
L 132.025763 397.891112 
L 132.660648 410.587856 
L 133.295532 343.109672 
L 133.930417 400.744318 
L 134.565301 445.539568 
L 135.200186 392.470035 
L 135.83507 365.221967 
L 136.469955 353.666501 
L 137.104839 408.3053 
L 138.374608 373.068274 
L 139.009493 422.285984 
L 139.644377 405.166779 
L 140.279262 426.137796 
L 140.914146 353.238535 
L 141.549031 390.758118 
L 142.183915 412.727761 
L 142.8188 385.622355 
L 143.453684 383.482461 
L 144.088569 388.190236 
L 144.723453 381.199883 
L 145.358338 422.000659 
L 145.993222 433.413463 
L 146.628107 256.515041 
L 147.262991 342.539023 
L 147.897876 398.604413 
L 148.53276 390.187479 
L 149.167645 391.328757 
L 149.802529 442.829024 
L 150.437414 363.652702 
L 151.072298 365.36463 
L 151.707183 377.490724 
L 152.342067 400.601656 
L 152.976952 352.239919 
L 153.611837 285.332364 
L 154.881606 404.59614 
L 155.51649 400.458993 
L 156.151375 406.165395 
L 156.786259 353.52386 
L 157.421144 423.427263 
L 158.056028 328.273034 
L 158.690913 339.25785 
L 159.325797 420.574056 
L 159.960682 407.021359 
L 160.595566 449.676704 
L 161.230451 377.918711 
L 161.865335 339.400513 
L 162.50022 414.725003 
L 163.135104 378.061374 
L 163.769989 394.181952 
L 164.404873 344.821579 
L 165.039758 387.334272 
L 165.674642 342.253719 
L 166.309527 333.123472 
L 166.944411 332.838147 
L 167.579296 396.321857 
L 168.21418 404.310815 
L 168.849065 365.221967 
L 169.483949 391.614071 
L 170.118834 370.500392 
L 170.753718 334.835379 
L 171.388603 358.088973 
L 172.023487 338.401897 
L 172.658372 330.983557 
L 173.293256 378.917327 
L 173.928141 332.552822 
L 174.563026 386.192994 
L 175.19791 392.327373 
L 175.832795 325.847815 
L 176.467679 379.487977 
L 177.102564 364.794001 
L 177.737448 392.470035 
L 178.372333 378.204036 
L 179.007217 293.178671 
L 179.642102 385.765018 
L 180.276986 356.66237 
L 180.911871 309.441912 
L 181.546755 391.899396 
L 182.18164 337.688585 
L 182.816524 354.950442 
L 183.451409 377.20542 
L 184.086293 413.869039 
L 184.721178 304.734115 
L 185.356062 297.886446 
L 185.990947 282.051171 
L 186.625831 376.492108 
L 187.260716 408.590614 
L 187.8956 320.712053 
L 188.530485 301.167618 
L 189.165369 367.932511 
L 190.435138 330.983557 
L 191.070023 296.602505 
L 191.704907 361.084842 
L 192.339792 372.925611 
L 192.974676 339.828479 
L 193.609561 323.993225 
L 194.244445 317.145556 
L 194.87933 277.914045 
L 195.514215 229.552288 
L 196.149099 328.558338 
L 196.783984 363.082073 
L 197.418868 301.738268 
L 198.053753 322.566622 
L 198.688637 355.093104 
L 199.323522 354.665138 
L 199.958406 372.21232 
L 200.593291 296.031856 
L 201.228175 291.038755 
L 201.86306 319.713416 
L 202.497944 365.792617 
L 203.132829 312.580422 
L 203.767713 324.135888 
L 204.402598 348.958726 
L 205.037482 284.048424 
L 205.672367 400.173679 
L 206.307251 339.400513 
L 206.942136 385.479693 
L 207.57702 387.904912 
L 208.211905 298.457074 
L 208.846789 380.629255 
L 209.481674 379.059989 
L 210.116558 321.282681 
L 210.751443 243.104985 
L 211.386327 332.98081 
L 212.021212 351.811932 
L 212.656096 358.51696 
L 213.290981 276.630105 
L 213.925865 356.947695 
L 214.56075 337.97391 
L 215.195634 394.039301 
L 215.830519 300.454327 
L 216.465403 344.108288 
L 217.100288 290.325465 
L 217.735173 301.024956 
L 218.370057 259.653551 
L 219.004942 316.432244 
L 219.639826 385.194378 
L 220.274711 300.59699 
L 220.909595 257.513657 
L 221.54448 362.083457 
L 222.814249 294.747915 
L 223.449133 284.048424 
L 224.084018 367.076558 
L 224.718902 356.234383 
L 225.353787 296.88783 
L 225.988671 374.066889 
L 226.623556 351.09862 
L 227.25844 347.532123 
L 227.893325 361.370145 
L 228.528209 305.59009 
L 229.163094 344.250951 
L 229.797978 400.886981 
L 230.432863 293.463974 
L 231.067747 356.09172 
L 231.702632 322.851947 
L 232.337516 354.237151 
L 232.972401 364.794001 
L 233.607285 428.705677 
L 234.24217 360.799517 
L 234.877054 422.856623 
L 235.511939 309.584574 
L 236.146823 361.940795 
L 236.781708 258.084307 
L 237.416592 373.924227 
L 238.051477 323.7079 
L 238.686362 388.475551 
L 239.321246 379.059989 
L 239.956131 348.816064 
L 240.591015 366.363245 
L 241.2259 300.882293 
L 241.860784 275.631489 
L 242.495669 306.446043 
L 243.130553 396.607171 
L 243.765438 325.847815 
L 244.400322 297.601121 
L 245.035207 354.522476 
L 245.670091 321.282681 
L 246.93986 392.75536 
L 247.574745 376.206783 
L 248.209629 377.918711 
L 248.844514 376.492108 
L 249.479398 246.814166 
L 250.114283 326.418444 
L 250.749167 305.447427 
L 251.384052 359.230251 
L 252.018936 382.341183 
L 252.653821 257.08567 
L 253.288705 320.854715 
L 253.92359 338.972526 
L 254.558474 346.533507 
L 255.193359 233.546772 
L 255.828243 287.329596 
L 256.463128 324.563875 
L 257.098012 304.020824 
L 257.732897 319.142787 
L 258.367781 386.335657 
L 259.002666 284.476411 
L 259.63755 376.492108 
L 260.272435 368.788464 
L 260.90732 374.352214 
L 261.542204 350.955979 
L 262.177089 344.964242 
L 262.811973 220.422062 
L 263.446858 319.570775 
L 264.081742 354.379813 
L 264.716627 336.832632 
L 265.351511 266.643904 
L 265.986396 299.883678 
L 266.62128 317.858847 
L 267.891049 417.435536 
L 268.525934 352.097257 
L 269.160818 361.512808 
L 269.795703 387.476935 
L 270.430587 247.242132 
L 271.065472 253.804498 
L 271.700356 277.343396 
L 272.335241 275.77413 
L 272.970125 333.694101 
L 273.60501 363.938027 
L 274.239894 284.761715 
L 274.874779 373.638923 
L 276.144548 331.982194 
L 276.779432 373.210936 
L 277.414317 338.401897 
L 278.049201 343.680301 
L 278.684086 375.778817 
L 279.953855 272.920945 
L 280.588739 268.783798 
L 281.223624 377.776049 
L 281.858509 266.786567 
L 282.493393 319.570775 
L 283.128278 317.858847 
L 283.763162 378.774665 
L 284.398047 286.473643 
L 285.032931 390.615455 
L 285.667816 349.244051 
L 286.3027 338.259235 
L 286.937585 392.327373 
L 287.572469 305.732752 
L 288.207354 342.111057 
L 288.842238 245.387563 
L 289.477123 297.601121 
L 290.112007 383.054474 
L 290.746892 282.907145 
L 291.381776 346.961494 
L 292.016661 353.951826 
L 292.651545 295.461227 
L 293.28643 391.899396 
L 293.921314 274.490189 
L 294.556199 342.539023 
L 295.191083 340.113804 
L 295.825968 395.608556 
L 296.460852 244.816913 
L 297.095737 334.407413 
L 297.730621 353.095873 
L 298.365506 286.045655 
L 299.00039 234.830713 
L 299.635275 316.289581 
L 300.905044 375.35083 
L 301.539928 364.651339 
L 302.174813 312.580422 
L 302.809697 284.476411 
L 303.444582 416.579583 
L 304.079467 304.448812 
L 304.714351 330.698253 
L 305.349236 312.437759 
L 305.98412 221.848644 
L 306.619005 411.586482 
L 307.253889 339.543175 
L 307.888774 313.7217 
L 308.523658 339.115188 
L 309.158543 339.543175 
L 309.793427 347.104157 
L 310.428312 308.443275 
L 311.063196 342.253719 
L 311.698081 265.074639 
L 312.96785 364.508676 
L 313.602734 212.861081 
L 314.237619 415.723619 
L 314.872503 221.706003 
L 315.507388 337.97391 
L 316.142272 245.815529 
L 316.777157 333.266135 
L 317.412041 335.263366 
L 318.046926 408.733276 
L 318.68181 333.551438 
L 319.316695 395.465893 
L 319.951579 361.084842 
L 320.586464 276.059455 
L 321.221348 290.325465 
L 321.856233 339.828479 
L 322.491117 298.457074 
L 323.126002 346.10552 
L 323.760886 243.247648 
L 324.395771 298.885062 
L 325.030656 278.627336 
L 325.66554 289.612152 
L 326.300425 267.64252 
L 326.935309 283.620436 
L 327.570194 367.504524 
L 328.205078 365.649954 
L 328.839963 398.604413 
L 329.474847 48.088732 
L 330.109732 339.115188 
L 330.744616 296.88783 
L 331.379501 232.690819 
L 332.014385 348.388097 
L 332.64927 323.993225 
L 333.284154 274.204886 
L 333.919039 285.475027 
L 334.553923 372.640286 
L 335.188808 194.172599 
L 335.823692 260.509526 
L 336.458577 414.011701 
L 337.093461 363.938027 
L 337.728346 251.236616 
L 338.36323 359.230251 
L 338.998115 299.741015 
L 339.632999 380.201268 
L 340.267884 353.809164 
L 340.902768 336.547307 
L 341.537653 296.459843 
L 342.172537 351.09862 
L 342.807422 299.170387 
L 343.442306 365.792617 
L 344.077191 279.911277 
L 345.34696 370.072405 
L 345.981844 272.778283 
L 346.616729 349.814679 
L 347.251614 340.684454 
L 347.886498 275.346164 
L 348.521383 315.861615 
L 349.156267 391.899396 
L 349.791152 271.066355 
L 350.426036 259.938876 
L 351.060921 382.198521 
L 351.695805 294.462611 
L 352.33069 365.36463 
L 352.965574 347.96011 
L 353.600459 307.729984 
L 354.235343 365.649954 
L 354.870228 345.392229 
L 356.139997 364.080689 
L 356.774881 331.411544 
L 357.409766 319.428112 
L 358.04465 268.926461 
L 358.679535 243.675635 
L 359.314419 275.77413 
L 359.949304 354.094489 
L 360.584188 354.665138 
L 361.219073 274.204886 
L 361.853957 372.925611 
L 362.488842 363.795364 
L 363.123726 327.702385 
L 363.758611 327.702385 
L 364.393495 444.112965 
L 365.02838 277.058071 
L 365.663264 389.0462 
L 366.298149 275.916792 
L 366.933033 303.307533 
L 367.567918 317.145556 
L 368.202803 339.828479 
L 368.837687 288.613537 
L 369.472572 256.229717 
L 370.107456 330.983557 
L 370.742341 331.982194 
L 371.377225 374.209552 
L 372.01211 340.684454 
L 372.646994 365.507292 
L 373.281879 306.018056 
L 373.916763 165.640623 
L 374.551648 370.785717 
L 375.186532 278.769999 
L 375.821417 371.784333 
L 376.456301 329.556975 
L 377.091186 319.998741 
L 377.72607 342.111057 
L 378.360955 302.308896 
L 378.995839 286.758967 
L 379.630724 179.621286 
L 380.265608 278.484674 
L 380.900493 427.564399 
L 381.535377 297.173134 
L 382.170262 353.095873 
L 382.805146 268.213149 
L 383.440031 363.938027 
L 384.074915 292.465359 
L 384.7098 331.411544 
L 385.344684 331.839531 
L 385.979569 315.290965 
L 386.614453 280.053939 
L 387.249338 283.19247 
L 388.519107 311.867131 
L 389.153991 347.38946 
L 389.788876 354.665138 
L 390.423761 175.769464 
L 391.058645 255.373763 
L 391.69353 320.56939 
L 392.328414 254.660451 
L 392.963299 334.692738 
L 393.598183 356.947695 
L 394.233068 296.602505 
L 394.867952 326.561106 
L 395.502837 346.10552 
L 396.137721 315.148303 
L 396.772606 349.814679 
L 397.40749 304.734115 
L 398.677259 257.65632 
L 399.312144 312.580422 
L 399.947028 260.366863 
L 401.216797 399.175053 
L 401.851682 293.321312 
L 402.486566 368.360498 
L 403.121451 350.100004 
L 403.756335 323.993225 
L 404.39122 307.872646 
L 405.026104 241.107754 
L 405.660989 353.095873 
L 406.295873 205.157415 
L 406.930758 300.59699 
L 407.565642 235.544004 
L 408.200527 323.565238 
L 408.835411 302.879546 
L 409.470296 288.756199 
L 410.10518 361.940795 
L 410.740065 380.771917 
L 411.37495 258.084307 
L 412.009834 439.262527 
L 412.644719 320.56939 
L 413.279603 276.202117 
L 413.914488 368.645802 
L 414.549372 203.017543 
L 415.184257 304.448812 
L 415.819141 342.824348 
L 416.454026 323.422597 
L 417.08891 331.839531 
L 417.723795 350.670654 
L 418.358679 299.741015 
L 418.993564 351.526607 
L 419.628448 329.128988 
L 420.263333 404.59614 
L 420.898217 334.835379 
L 421.533102 306.874031 
L 422.167986 357.23302 
L 422.802871 113.284381 
L 423.437755 265.502626 
L 424.07264 309.727215 
L 424.707524 204.016158 
L 425.342409 289.469511 
L 425.977293 293.749299 
L 426.612178 295.03324 
L 427.247062 211.862444 
L 427.881947 251.664604 
L 428.516831 308.7286 
L 429.151716 212.861081 
L 430.421485 369.929742 
L 431.056369 326.989094 
L 431.691254 252.805882 
L 432.326138 362.654086 
L 432.961023 330.270266 
L 433.595908 275.77413 
L 434.230792 369.501776 
L 434.865677 335.406029 
L 435.500561 313.864362 
L 436.135446 398.176437 
L 436.77033 297.458459 
L 437.405215 338.972526 
L 438.040099 319.142787 
L 438.674984 285.617689 
L 439.309868 340.256466 
L 440.579637 251.236616 
L 441.214522 351.383945 
L 441.849406 331.268882 
L 442.484291 213.717034 
L 443.119175 276.91543 
L 443.75406 216.142253 
L 444.388944 272.207633 
L 445.023829 379.202652 
L 445.658713 343.965626 
L 446.293598 233.546772 
L 446.928482 377.633386 
L 447.563367 260.224201 
L 448.198251 296.031856 
L 448.833136 389.0462 
L 449.46802 382.626487 
L 450.102905 404.881454 
L 450.737789 379.630639 
L 451.372674 332.98081 
L 452.007558 247.812782 
L 452.642443 272.350295 
L 453.277327 380.058605 
L 453.912212 304.448812 
L 454.547097 308.157971 
L 455.181981 349.101388 
L 455.816866 324.27855 
L 456.45175 292.465359 
L 457.086635 320.56939 
L 457.721519 293.321312 
L 458.356404 298.029108 
L 458.991288 239.823813 
L 459.626173 273.491574 
L 460.261057 153.229182 
L 460.895942 258.084307 
L 461.530826 316.860231 
L 462.165711 340.684454 
L 462.800595 329.984941 
L 463.43548 395.180579 
L 464.070364 260.081539 
L 464.705249 335.976678 
L 465.340133 337.688585 
L 465.975018 383.197136 
L 466.609902 286.33098 
L 467.879671 429.276316 
L 468.514556 321.425344 
L 469.14944 358.088973 
L 469.784325 341.968394 
L 470.419209 274.347548 
L 471.054094 358.374298 
L 471.688978 346.533507 
L 472.323863 293.749299 
L 472.958747 210.150537 
L 473.593632 263.505373 
L 474.228516 374.922843 
L 474.863401 335.548691 
L 475.498285 228.838997 
L 476.13317 205.585424 
L 476.768055 224.70185 
L 477.402939 331.268882 
L 478.037824 342.253719 
L 478.672708 402.456235 
L 479.307593 366.363245 
L 479.942477 297.743784 
L 480.577362 307.872646 
L 481.212246 315.57629 
L 481.847131 230.836228 
L 482.482015 398.889738 
L 483.1169 340.256466 
L 483.751784 259.938876 
L 484.386669 235.544004 
L 485.021553 384.623739 
L 485.656438 271.066355 
L 486.291322 354.379813 
L 486.926207 329.556975 
L 487.561091 365.792617 
L 488.195976 308.300634 
L 488.83086 319.142787 
L 489.465745 286.473643 
L 490.100629 280.76723 
L 490.735514 252.66322 
L 491.370398 301.738268 
L 492.005283 267.357195 
L 492.640167 297.315796 
L 493.909936 337.688585 
L 494.544821 233.546772 
L 495.179705 329.414313 
L 495.81459 366.077942 
L 496.449474 298.457074 
L 497.084359 346.533507 
L 497.719244 339.685838 
L 498.354128 381.342546 
L 498.989013 348.816064 
L 499.623897 299.170387 
L 500.258782 265.645288 
L 500.893666 299.313049 
L 501.528551 351.09862 
L 502.163435 298.599737 
L 502.79832 295.318565 
L 503.433204 208.295946 
L 504.068089 389.902154 
L 504.702973 341.825732 
L 505.337858 323.993225 
L 505.972742 339.828479 
L 506.607627 313.293734 
L 507.242511 371.356346 
L 507.877396 375.92148 
L 508.51228 274.490189 
L 509.147165 316.146919 
L 509.782049 238.111885 
L 510.416934 340.541791 
L 511.051818 275.488826 
L 511.686703 358.374298 
L 512.321587 322.566622 
L 512.956472 233.689435 
L 513.591356 348.53076 
L 514.226241 377.776049 
L 514.861125 412.727761 
L 515.49601 292.465359 
L 516.130894 320.426728 
L 516.765779 272.778283 
L 517.400663 300.882293 
L 518.035548 340.684454 
L 518.670433 348.245435 
L 519.305317 350.813316 
L 519.940202 323.137272 
L 520.575086 342.39636 
L 521.209971 322.851947 
L 521.844855 335.834016 
L 522.47974 400.458993 
L 523.114624 200.877627 
L 523.749509 258.797598 
L 524.384393 272.492958 
L 525.019278 257.08567 
L 525.654162 324.991841 
L 526.289047 340.256466 
L 526.923931 290.04014 
L 527.558816 296.459843 
L 528.1937 402.456235 
L 528.828585 267.785182 
L 529.463469 331.554207 
L 530.098354 345.962879 
L 530.733238 365.507292 
L 531.368123 346.67617 
L 532.003007 222.989922 
L 532.637892 356.377045 
L 533.272776 313.008409 
L 533.907661 315.148303 
L 534.542545 352.667885 
L 535.17743 362.654086 
L 535.812314 342.539023 
L 536.447199 288.042908 
L 537.082083 335.976678 
L 537.716968 270.067739 
L 538.351852 271.209017 
L 538.986737 391.186094 
L 539.621621 287.472258 
L 540.256506 314.149687 
L 540.891391 266.073255 
L 541.526275 364.080689 
L 542.796044 255.088438 
L 543.430929 331.839531 
L 544.065813 279.055324 
L 544.700698 318.572138 
L 545.335582 288.042908 
L 545.970467 356.66237 
L 546.605351 321.853331 
L 547.240236 334.835379 
L 547.87512 309.584574 
L 548.510005 311.724468 
L 549.144889 354.807801 
L 549.779774 273.634236 
L 550.414658 270.495726 
L 551.049543 339.971141 
L 551.684427 318.857462 
L 552.319312 365.507292 
L 552.954196 202.874859 
L 553.589081 316.432244 
L 554.223965 330.698253 
L 554.85885 240.537125 
L 555.493734 223.988559 
L 556.128619 394.60994 
L 556.763503 342.681685 
L 557.398388 341.255082 
L 558.033272 261.650804 
L 558.668157 292.608021 
L 559.303041 355.521092 
L 559.937926 275.631489 
L 560.57281 239.395826 
L 561.207695 339.25785 
L 561.84258 360.942179 
L 562.477464 394.181952 
L 563.112349 349.529376 
L 563.747233 318.857462 
L 564.382118 299.598353 
L 565.017002 367.21922 
L 565.651887 391.756734 
L 566.286771 315.148303 
L 566.921656 332.695485 
L 567.55654 364.794001 
L 568.191425 357.518323 
L 568.826309 371.356346 
L 569.461194 350.242667 
L 570.096078 390.90078 
L 570.730963 301.738268 
L 571.365847 327.274397 
L 572.000732 328.415697 
L 572.635616 350.242667 
L 573.270501 291.89473 
L 573.905385 343.680301 
L 574.54027 404.59614 
L 575.175154 341.683069 
L 575.810039 233.546772 
L 576.444923 323.137272 
L 577.079808 306.588706 
L 577.714692 344.108288 
L 578.349577 305.304765 
L 578.984461 294.034624 
L 579.619346 327.559722 
L 580.25423 279.625952 
L 580.889115 257.513657 
L 581.523999 323.279934 
L 582.793768 196.455156 
L 583.428653 321.140019 
L 584.063538 285.047039 
L 584.698422 345.392229 
L 585.333307 231.406878 
L 585.968191 353.52386 
L 586.603076 237.255932 
L 587.23796 260.794829 
L 587.872845 267.927845 
L 588.507729 295.889193 
L 589.142614 395.180579 
L 589.142614 395.180579 
" clip-path="url(#p0b0e2d3772)" style="fill: none; stroke: #ff7f0e; stroke-width: 1.5; stroke-linecap: square"/>
   </g>
   <g id="line2d_37">
    <path d="M 56.50625 551.518125 
L 614.50625 551.518125 
" clip-path="url(#p0b0e2d3772)" style="fill: none; stroke-dasharray: 11.1,4.8; stroke-dashoffset: 0; stroke: #ff0000; stroke-width: 3"/>
   </g>
   <g id="patch_3">
    <path d="M 56.50625 576.718125 
L 56.50625 22.318125 
" style="fill: none; stroke: #000000; stroke-width: 0.8; stroke-linejoin: miter; stroke-linecap: square"/>
   </g>
   <g id="patch_4">
    <path d="M 614.50625 576.718125 
L 614.50625 22.318125 
" style="fill: none; stroke: #000000; stroke-width: 0.8; stroke-linejoin: miter; stroke-linecap: square"/>
   </g>
   <g id="patch_5">
    <path d="M 56.50625 576.718125 
L 614.50625 576.718125 
" style="fill: none; stroke: #000000; stroke-width: 0.8; stroke-linejoin: miter; stroke-linecap: square"/>
   </g>
   <g id="patch_6">
    <path d="M 56.50625 22.318125 
L 614.50625 22.318125 
" style="fill: none; stroke: #000000; stroke-width: 0.8; stroke-linejoin: miter; stroke-linecap: square"/>
   </g>
   <g id="text_20">
    <!-- Train and Val Accuracy -->
    <g transform="translate(267.727813 16.318125) scale(0.12 -0.12)">
     <defs>
      <path id="DejaVuSans-54" d="M -19 4666 
L 3928 4666 
L 3928 4134 
L 2272 4134 
L 2272 0 
L 1638 0 
L 1638 4134 
L -19 4134 
L -19 4666 
z
" transform="scale(0.015625)"/>
      <path id="DejaVuSans-69" d="M 603 3500 
L 1178 3500 
L 1178 0 
L 603 0 
L 603 3500 
z
M 603 4863 
L 1178 4863 
L 1178 4134 
L 603 4134 
L 603 4863 
z
" transform="scale(0.015625)"/>
      <path id="DejaVuSans-6e" d="M 3513 2113 
L 3513 0 
L 2938 0 
L 2938 2094 
Q 2938 2591 2744 2837 
Q 2550 3084 2163 3084 
Q 1697 3084 1428 2787 
Q 1159 2491 1159 1978 
L 1159 0 
L 581 0 
L 581 3500 
L 1159 3500 
L 1159 2956 
Q 1366 3272 1645 3428 
Q 1925 3584 2291 3584 
Q 2894 3584 3203 3211 
Q 3513 2838 3513 2113 
z
" transform="scale(0.015625)"/>
      <path id="DejaVuSans-20" transform="scale(0.015625)"/>
      <path id="DejaVuSans-64" d="M 2906 2969 
L 2906 4863 
L 3481 4863 
L 3481 0 
L 2906 0 
L 2906 525 
Q 2725 213 2448 61 
Q 2172 -91 1784 -91 
Q 1150 -91 751 415 
Q 353 922 353 1747 
Q 353 2572 751 3078 
Q 1150 3584 1784 3584 
Q 2172 3584 2448 3432 
Q 2725 3281 2906 2969 
z
M 947 1747 
Q 947 1113 1208 752 
Q 1469 391 1925 391 
Q 2381 391 2643 752 
Q 2906 1113 2906 1747 
Q 2906 2381 2643 2742 
Q 2381 3103 1925 3103 
Q 1469 3103 1208 2742 
Q 947 2381 947 1747 
z
" transform="scale(0.015625)"/>
      <path id="DejaVuSans-56" d="M 1831 0 
L 50 4666 
L 709 4666 
L 2188 738 
L 3669 4666 
L 4325 4666 
L 2547 0 
L 1831 0 
z
" transform="scale(0.015625)"/>
      <path id="DejaVuSans-6c" d="M 603 4863 
L 1178 4863 
L 1178 0 
L 603 0 
L 603 4863 
z
" transform="scale(0.015625)"/>
     </defs>
     <use xlink:href="#DejaVuSans-54"/>
     <use xlink:href="#DejaVuSans-72" transform="translate(46.333984 0)"/>
     <use xlink:href="#DejaVuSans-61" transform="translate(87.447266 0)"/>
     <use xlink:href="#DejaVuSans-69" transform="translate(148.726562 0)"/>
     <use xlink:href="#DejaVuSans-6e" transform="translate(176.509766 0)"/>
     <use xlink:href="#DejaVuSans-20" transform="translate(239.888672 0)"/>
     <use xlink:href="#DejaVuSans-61" transform="translate(271.675781 0)"/>
     <use xlink:href="#DejaVuSans-6e" transform="translate(332.955078 0)"/>
     <use xlink:href="#DejaVuSans-64" transform="translate(396.333984 0)"/>
     <use xlink:href="#DejaVuSans-20" transform="translate(459.810547 0)"/>
     <use xlink:href="#DejaVuSans-56" transform="translate(491.597656 0)"/>
     <use xlink:href="#DejaVuSans-61" transform="translate(552.255859 0)"/>
     <use xlink:href="#DejaVuSans-6c" transform="translate(613.535156 0)"/>
     <use xlink:href="#DejaVuSans-20" transform="translate(641.318359 0)"/>
     <use xlink:href="#DejaVuSans-41" transform="translate(673.105469 0)"/>
     <use xlink:href="#DejaVuSans-63" transform="translate(739.763672 0)"/>
     <use xlink:href="#DejaVuSans-63" transform="translate(794.744141 0)"/>
     <use xlink:href="#DejaVuSans-75" transform="translate(849.724609 0)"/>
     <use xlink:href="#DejaVuSans-72" transform="translate(913.103516 0)"/>
     <use xlink:href="#DejaVuSans-61" transform="translate(954.216797 0)"/>
     <use xlink:href="#DejaVuSans-63" transform="translate(1015.496094 0)"/>
     <use xlink:href="#DejaVuSans-79" transform="translate(1070.476562 0)"/>
    </g>
   </g>
   <g id="legend_1">
    <g id="patch_7">
     <path d="M 440.382812 74.90875 
L 607.50625 74.90875 
Q 609.50625 74.90875 609.50625 72.90875 
L 609.50625 29.318125 
Q 609.50625 27.318125 607.50625 27.318125 
L 440.382812 27.318125 
Q 438.382812 27.318125 438.382812 29.318125 
L 438.382812 72.90875 
Q 438.382812 74.90875 440.382812 74.90875 
z
" style="fill: #ffffff; opacity: 0.8; stroke: #cccccc; stroke-linejoin: miter"/>
    </g>
    <g id="line2d_38">
     <path d="M 442.382812 35.416562 
L 452.382812 35.416562 
L 462.382812 35.416562 
" style="fill: none; stroke: #1f77b4; stroke-width: 1.5; stroke-linecap: square"/>
    </g>
    <g id="text_21">
     <!-- train_accuracy -->
     <g transform="translate(470.382812 38.916562) scale(0.1 -0.1)">
      <defs>
       <path id="DejaVuSans-74" d="M 1172 4494 
L 1172 3500 
L 2356 3500 
L 2356 3053 
L 1172 3053 
L 1172 1153 
Q 1172 725 1289 603 
Q 1406 481 1766 481 
L 2356 481 
L 2356 0 
L 1766 0 
Q 1100 0 847 248 
Q 594 497 594 1153 
L 594 3053 
L 172 3053 
L 172 3500 
L 594 3500 
L 594 4494 
L 1172 4494 
z
" transform="scale(0.015625)"/>
       <path id="DejaVuSans-5f" d="M 3263 -1063 
L 3263 -1509 
L -63 -1509 
L -63 -1063 
L 3263 -1063 
z
" transform="scale(0.015625)"/>
      </defs>
      <use xlink:href="#DejaVuSans-74"/>
      <use xlink:href="#DejaVuSans-72" transform="translate(39.208984 0)"/>
      <use xlink:href="#DejaVuSans-61" transform="translate(80.322266 0)"/>
      <use xlink:href="#DejaVuSans-69" transform="translate(141.601562 0)"/>
      <use xlink:href="#DejaVuSans-6e" transform="translate(169.384766 0)"/>
      <use xlink:href="#DejaVuSans-5f" transform="translate(232.763672 0)"/>
      <use xlink:href="#DejaVuSans-61" transform="translate(282.763672 0)"/>
      <use xlink:href="#DejaVuSans-63" transform="translate(344.042969 0)"/>
      <use xlink:href="#DejaVuSans-63" transform="translate(399.023438 0)"/>
      <use xlink:href="#DejaVuSans-75" transform="translate(454.003906 0)"/>
      <use xlink:href="#DejaVuSans-72" transform="translate(517.382812 0)"/>
      <use xlink:href="#DejaVuSans-61" transform="translate(558.496094 0)"/>
      <use xlink:href="#DejaVuSans-63" transform="translate(619.775391 0)"/>
      <use xlink:href="#DejaVuSans-79" transform="translate(674.755859 0)"/>
     </g>
    </g>
    <g id="line2d_39">
     <path d="M 442.382812 50.372812 
L 452.382812 50.372812 
L 462.382812 50.372812 
" style="fill: none; stroke: #ff7f0e; stroke-width: 1.5; stroke-linecap: square"/>
    </g>
    <g id="text_22">
     <!-- val_accuracy -->
     <g transform="translate(470.382812 53.872812) scale(0.1 -0.1)">
      <defs>
       <path id="DejaVuSans-76" d="M 191 3500 
L 800 3500 
L 1894 563 
L 2988 3500 
L 3597 3500 
L 2284 0 
L 1503 0 
L 191 3500 
z
" transform="scale(0.015625)"/>
      </defs>
      <use xlink:href="#DejaVuSans-76"/>
      <use xlink:href="#DejaVuSans-61" transform="translate(59.179688 0)"/>
      <use xlink:href="#DejaVuSans-6c" transform="translate(120.458984 0)"/>
      <use xlink:href="#DejaVuSans-5f" transform="translate(148.242188 0)"/>
      <use xlink:href="#DejaVuSans-61" transform="translate(198.242188 0)"/>
      <use xlink:href="#DejaVuSans-63" transform="translate(259.521484 0)"/>
      <use xlink:href="#DejaVuSans-63" transform="translate(314.501953 0)"/>
      <use xlink:href="#DejaVuSans-75" transform="translate(369.482422 0)"/>
      <use xlink:href="#DejaVuSans-72" transform="translate(432.861328 0)"/>
      <use xlink:href="#DejaVuSans-61" transform="translate(473.974609 0)"/>
      <use xlink:href="#DejaVuSans-63" transform="translate(535.253906 0)"/>
      <use xlink:href="#DejaVuSans-79" transform="translate(590.234375 0)"/>
     </g>
    </g>
    <g id="line2d_40">
     <path d="M 442.382812 65.329062 
L 452.382812 65.329062 
L 462.382812 65.329062 
" style="fill: none; stroke-dasharray: 11.1,4.8; stroke-dashoffset: 0; stroke: #ff0000; stroke-width: 3"/>
    </g>
    <g id="text_23">
     <!-- Random-Guesser Accuracy -->
     <g transform="translate(470.382812 68.829062) scale(0.1 -0.1)">
      <defs>
       <path id="DejaVuSans-52" d="M 2841 2188 
Q 3044 2119 3236 1894 
Q 3428 1669 3622 1275 
L 4263 0 
L 3584 0 
L 2988 1197 
Q 2756 1666 2539 1819 
Q 2322 1972 1947 1972 
L 1259 1972 
L 1259 0 
L 628 0 
L 628 4666 
L 2053 4666 
Q 2853 4666 3247 4331 
Q 3641 3997 3641 3322 
Q 3641 2881 3436 2590 
Q 3231 2300 2841 2188 
z
M 1259 4147 
L 1259 2491 
L 2053 2491 
Q 2509 2491 2742 2702 
Q 2975 2913 2975 3322 
Q 2975 3731 2742 3939 
Q 2509 4147 2053 4147 
L 1259 4147 
z
" transform="scale(0.015625)"/>
       <path id="DejaVuSans-6d" d="M 3328 2828 
Q 3544 3216 3844 3400 
Q 4144 3584 4550 3584 
Q 5097 3584 5394 3201 
Q 5691 2819 5691 2113 
L 5691 0 
L 5113 0 
L 5113 2094 
Q 5113 2597 4934 2840 
Q 4756 3084 4391 3084 
Q 3944 3084 3684 2787 
Q 3425 2491 3425 1978 
L 3425 0 
L 2847 0 
L 2847 2094 
Q 2847 2600 2669 2842 
Q 2491 3084 2119 3084 
Q 1678 3084 1418 2786 
Q 1159 2488 1159 1978 
L 1159 0 
L 581 0 
L 581 3500 
L 1159 3500 
L 1159 2956 
Q 1356 3278 1631 3431 
Q 1906 3584 2284 3584 
Q 2666 3584 2933 3390 
Q 3200 3197 3328 2828 
z
" transform="scale(0.015625)"/>
       <path id="DejaVuSans-2d" d="M 313 2009 
L 1997 2009 
L 1997 1497 
L 313 1497 
L 313 2009 
z
" transform="scale(0.015625)"/>
       <path id="DejaVuSans-47" d="M 3809 666 
L 3809 1919 
L 2778 1919 
L 2778 2438 
L 4434 2438 
L 4434 434 
Q 4069 175 3628 42 
Q 3188 -91 2688 -91 
Q 1594 -91 976 548 
Q 359 1188 359 2328 
Q 359 3472 976 4111 
Q 1594 4750 2688 4750 
Q 3144 4750 3555 4637 
Q 3966 4525 4313 4306 
L 4313 3634 
Q 3963 3931 3569 4081 
Q 3175 4231 2741 4231 
Q 1884 4231 1454 3753 
Q 1025 3275 1025 2328 
Q 1025 1384 1454 906 
Q 1884 428 2741 428 
Q 3075 428 3337 486 
Q 3600 544 3809 666 
z
" transform="scale(0.015625)"/>
       <path id="DejaVuSans-65" d="M 3597 1894 
L 3597 1613 
L 953 1613 
Q 991 1019 1311 708 
Q 1631 397 2203 397 
Q 2534 397 2845 478 
Q 3156 559 3463 722 
L 3463 178 
Q 3153 47 2828 -22 
Q 2503 -91 2169 -91 
Q 1331 -91 842 396 
Q 353 884 353 1716 
Q 353 2575 817 3079 
Q 1281 3584 2069 3584 
Q 2775 3584 3186 3129 
Q 3597 2675 3597 1894 
z
M 3022 2063 
Q 3016 2534 2758 2815 
Q 2500 3097 2075 3097 
Q 1594 3097 1305 2825 
Q 1016 2553 972 2059 
L 3022 2063 
z
" transform="scale(0.015625)"/>
      </defs>
      <use xlink:href="#DejaVuSans-52"/>
      <use xlink:href="#DejaVuSans-61" transform="translate(67.232422 0)"/>
      <use xlink:href="#DejaVuSans-6e" transform="translate(128.511719 0)"/>
      <use xlink:href="#DejaVuSans-64" transform="translate(191.890625 0)"/>
      <use xlink:href="#DejaVuSans-6f" transform="translate(255.367188 0)"/>
      <use xlink:href="#DejaVuSans-6d" transform="translate(316.548828 0)"/>
      <use xlink:href="#DejaVuSans-2d" transform="translate(413.960938 0)"/>
      <use xlink:href="#DejaVuSans-47" transform="translate(453.669922 0)"/>
      <use xlink:href="#DejaVuSans-75" transform="translate(531.160156 0)"/>
      <use xlink:href="#DejaVuSans-65" transform="translate(594.539062 0)"/>
      <use xlink:href="#DejaVuSans-73" transform="translate(656.0625 0)"/>
      <use xlink:href="#DejaVuSans-73" transform="translate(708.162109 0)"/>
      <use xlink:href="#DejaVuSans-65" transform="translate(760.261719 0)"/>
      <use xlink:href="#DejaVuSans-72" transform="translate(821.785156 0)"/>
      <use xlink:href="#DejaVuSans-20" transform="translate(862.898438 0)"/>
      <use xlink:href="#DejaVuSans-41" transform="translate(894.685547 0)"/>
      <use xlink:href="#DejaVuSans-63" transform="translate(961.34375 0)"/>
      <use xlink:href="#DejaVuSans-63" transform="translate(1016.324219 0)"/>
      <use xlink:href="#DejaVuSans-75" transform="translate(1071.304688 0)"/>
      <use xlink:href="#DejaVuSans-72" transform="translate(1134.683594 0)"/>
      <use xlink:href="#DejaVuSans-61" transform="translate(1175.796875 0)"/>
      <use xlink:href="#DejaVuSans-63" transform="translate(1237.076172 0)"/>
      <use xlink:href="#DejaVuSans-79" transform="translate(1292.056641 0)"/>
     </g>
    </g>
   </g>
  </g>
 </g>
 <defs>
  <clipPath id="p0b0e2d3772">
   <rect x="56.50625" y="22.318125" width="558" height="554.4"/>
  </clipPath>
 </defs>
</svg>
