<?xml version="1.0" encoding="utf-8" standalone="no"?>
<!DOCTYPE svg PUBLIC "-//W3C//DTD SVG 1.1//EN"
  "http://www.w3.org/Graphics/SVG/1.1/DTD/svg11.dtd">
<svg xmlns:xlink="http://www.w3.org/1999/xlink" width="605.803125pt" height="614.274375pt" viewBox="0 0 605.803125 614.274375" xmlns="http://www.w3.org/2000/svg" version="1.1">
 <metadata>
  <rdf:RDF xmlns:dc="http://purl.org/dc/elements/1.1/" xmlns:cc="http://creativecommons.org/ns#" xmlns:rdf="http://www.w3.org/1999/02/22-rdf-syntax-ns#">
   <cc:Work>
    <dc:type rdf:resource="http://purl.org/dc/dcmitype/StillImage"/>
    <dc:date>2026-05-25T06:08:36.529194</dc:date>
    <dc:format>image/svg+xml</dc:format>
    <dc:creator>
     <cc:Agent>
      <dc:title>Matplotlib v3.10.9, https://matplotlib.org/</dc:title>
     </cc:Agent>
    </dc:creator>
   </cc:Work>
  </rdf:RDF>
 </metadata>
 <defs>
  <style type="text/css">*{stroke-linejoin: round; stroke-linecap: butt}</style>
 </defs>
 <g id="figure_1">
  <g id="patch_1">
   <path d="M 0 614.274375 
L 605.803125 614.274375 
L 605.803125 0 
L 0 0 
z
" style="fill: #ffffff"/>
  </g>
  <g id="axes_1">
   <g id="patch_2">
    <path d="M 40.603125 576.718125 
L 598.603125 576.718125 
L 598.603125 22.318125 
L 40.603125 22.318125 
z
" style="fill: #ffffff"/>
   </g>
   <g id="matplotlib.axis_1">
    <g id="xtick_1">
     <g id="line2d_1">
      <path d="M 65.966761 576.718125 
L 65.966761 22.318125 
" clip-path="url(#pfc23a8dfd4)" style="fill: none; stroke: #b0b0b0; stroke-width: 0.8; stroke-linecap: square"/>
     </g>
     <g id="line2d_2">
      <defs>
       <path id="m010a7e8756" d="M 0 0 
L 0 3.5 
" style="stroke: #000000; stroke-width: 0.8"/>
      </defs>
      <g>
       <use xlink:href="#m010a7e8756" x="65.966761" y="576.718125" style="stroke: #000000; stroke-width: 0.8"/>
      </g>
     </g>
     <g id="text_1">
      <!-- 0 -->
      <g transform="translate(62.785511 591.316563) scale(0.1 -0.1)">
       <defs>
        <path id="DejaVuSans-30" d="M 2034 4250 
Q 1547 4250 1301 3770 
Q 1056 3291 1056 2328 
Q 1056 1369 1301 889 
Q 1547 409 2034 409 
Q 2525 409 2770 889 
Q 3016 1369 3016 2328 
Q 3016 3291 2770 3770 
Q 2525 4250 2034 4250 
z
M 2034 4750 
Q 2819 4750 3233 4129 
Q 3647 3509 3647 2328 
Q 3647 1150 3233 529 
Q 2819 -91 2034 -91 
Q 1250 -91 836 529 
Q 422 1150 422 2328 
Q 422 3509 836 4129 
Q 1250 4750 2034 4750 
z
" transform="scale(0.015625)"/>
       </defs>
       <use xlink:href="#DejaVuSans-30"/>
      </g>
     </g>
    </g>
    <g id="xtick_2">
     <g id="line2d_3">
      <path d="M 129.455213 576.718125 
L 129.455213 22.318125 
" clip-path="url(#pfc23a8dfd4)" style="fill: none; stroke: #b0b0b0; stroke-width: 0.8; stroke-linecap: square"/>
     </g>
     <g id="line2d_4">
      <g>
       <use xlink:href="#m010a7e8756" x="129.455213" y="576.718125" style="stroke: #000000; stroke-width: 0.8"/>
      </g>
     </g>
     <g id="text_2">
      <!-- 100 -->
      <g transform="translate(119.911463 591.316563) scale(0.1 -0.1)">
       <defs>
        <path id="DejaVuSans-31" d="M 794 531 
L 1825 531 
L 1825 4091 
L 703 3866 
L 703 4441 
L 1819 4666 
L 2450 4666 
L 2450 531 
L 3481 531 
L 3481 0 
L 794 0 
L 794 531 
z
" transform="scale(0.015625)"/>
       </defs>
       <use xlink:href="#DejaVuSans-31"/>
       <use xlink:href="#DejaVuSans-30" transform="translate(63.623047 0)"/>
       <use xlink:href="#DejaVuSans-30" transform="translate(127.246094 0)"/>
      </g>
     </g>
    </g>
    <g id="xtick_3">
     <g id="line2d_5">
      <path d="M 192.943664 576.718125 
L 192.943664 22.318125 
" clip-path="url(#pfc23a8dfd4)" style="fill: none; stroke: #b0b0b0; stroke-width: 0.8; stroke-linecap: square"/>
     </g>
     <g id="line2d_6">
      <g>
       <use xlink:href="#m010a7e8756" x="192.943664" y="576.718125" style="stroke: #000000; stroke-width: 0.8"/>
      </g>
     </g>
     <g id="text_3">
      <!-- 200 -->
      <g transform="translate(183.399914 591.316563) scale(0.1 -0.1)">
       <defs>
        <path id="DejaVuSans-32" d="M 1228 531 
L 3431 531 
L 3431 0 
L 469 0 
L 469 531 
Q 828 903 1448 1529 
Q 2069 2156 2228 2338 
Q 2531 2678 2651 2914 
Q 2772 3150 2772 3378 
Q 2772 3750 2511 3984 
Q 2250 4219 1831 4219 
Q 1534 4219 1204 4116 
Q 875 4013 500 3803 
L 500 4441 
Q 881 4594 1212 4672 
Q 1544 4750 1819 4750 
Q 2544 4750 2975 4387 
Q 3406 4025 3406 3419 
Q 3406 3131 3298 2873 
Q 3191 2616 2906 2266 
Q 2828 2175 2409 1742 
Q 1991 1309 1228 531 
z
" transform="scale(0.015625)"/>
       </defs>
       <use xlink:href="#DejaVuSans-32"/>
       <use xlink:href="#DejaVuSans-30" transform="translate(63.623047 0)"/>
       <use xlink:href="#DejaVuSans-30" transform="translate(127.246094 0)"/>
      </g>
     </g>
    </g>
    <g id="xtick_4">
     <g id="line2d_7">
      <path d="M 256.432116 576.718125 
L 256.432116 22.318125 
" clip-path="url(#pfc23a8dfd4)" style="fill: none; stroke: #b0b0b0; stroke-width: 0.8; stroke-linecap: square"/>
     </g>
     <g id="line2d_8">
      <g>
       <use xlink:href="#m010a7e8756" x="256.432116" y="576.718125" style="stroke: #000000; stroke-width: 0.8"/>
      </g>
     </g>
     <g id="text_4">
      <!-- 300 -->
      <g transform="translate(246.888366 591.316563) scale(0.1 -0.1)">
       <defs>
        <path id="DejaVuSans-33" d="M 2597 2516 
Q 3050 2419 3304 2112 
Q 3559 1806 3559 1356 
Q 3559 666 3084 287 
Q 2609 -91 1734 -91 
Q 1441 -91 1130 -33 
Q 819 25 488 141 
L 488 750 
Q 750 597 1062 519 
Q 1375 441 1716 441 
Q 2309 441 2620 675 
Q 2931 909 2931 1356 
Q 2931 1769 2642 2001 
Q 2353 2234 1838 2234 
L 1294 2234 
L 1294 2753 
L 1863 2753 
Q 2328 2753 2575 2939 
Q 2822 3125 2822 3475 
Q 2822 3834 2567 4026 
Q 2313 4219 1838 4219 
Q 1578 4219 1281 4162 
Q 984 4106 628 3988 
L 628 4550 
Q 988 4650 1302 4700 
Q 1616 4750 1894 4750 
Q 2613 4750 3031 4423 
Q 3450 4097 3450 3541 
Q 3450 3153 3228 2886 
Q 3006 2619 2597 2516 
z
" transform="scale(0.015625)"/>
       </defs>
       <use xlink:href="#DejaVuSans-33"/>
       <use xlink:href="#DejaVuSans-30" transform="translate(63.623047 0)"/>
       <use xlink:href="#DejaVuSans-30" transform="translate(127.246094 0)"/>
      </g>
     </g>
    </g>
    <g id="xtick_5">
     <g id="line2d_9">
      <path d="M 319.920567 576.718125 
L 319.920567 22.318125 
" clip-path="url(#pfc23a8dfd4)" style="fill: none; stroke: #b0b0b0; stroke-width: 0.8; stroke-linecap: square"/>
     </g>
     <g id="line2d_10">
      <g>
       <use xlink:href="#m010a7e8756" x="319.920567" y="576.718125" style="stroke: #000000; stroke-width: 0.8"/>
      </g>
     </g>
     <g id="text_5">
      <!-- 400 -->
      <g transform="translate(310.376817 591.316563) scale(0.1 -0.1)">
       <defs>
        <path id="DejaVuSans-34" d="M 2419 4116 
L 825 1625 
L 2419 1625 
L 2419 4116 
z
M 2253 4666 
L 3047 4666 
L 3047 1625 
L 3713 1625 
L 3713 1100 
L 3047 1100 
L 3047 0 
L 2419 0 
L 2419 1100 
L 313 1100 
L 313 1709 
L 2253 4666 
z
" transform="scale(0.015625)"/>
       </defs>
       <use xlink:href="#DejaVuSans-34"/>
       <use xlink:href="#DejaVuSans-30" transform="translate(63.623047 0)"/>
       <use xlink:href="#DejaVuSans-30" transform="translate(127.246094 0)"/>
      </g>
     </g>
    </g>
    <g id="xtick_6">
     <g id="line2d_11">
      <path d="M 383.409019 576.718125 
L 383.409019 22.318125 
" clip-path="url(#pfc23a8dfd4)" style="fill: none; stroke: #b0b0b0; stroke-width: 0.8; stroke-linecap: square"/>
     </g>
     <g id="line2d_12">
      <g>
       <use xlink:href="#m010a7e8756" x="383.409019" y="576.718125" style="stroke: #000000; stroke-width: 0.8"/>
      </g>
     </g>
     <g id="text_6">
      <!-- 500 -->
      <g transform="translate(373.865269 591.316563) scale(0.1 -0.1)">
       <defs>
        <path id="DejaVuSans-35" d="M 691 4666 
L 3169 4666 
L 3169 4134 
L 1269 4134 
L 1269 2991 
Q 1406 3038 1543 3061 
Q 1681 3084 1819 3084 
Q 2600 3084 3056 2656 
Q 3513 2228 3513 1497 
Q 3513 744 3044 326 
Q 2575 -91 1722 -91 
Q 1428 -91 1123 -41 
Q 819 9 494 109 
L 494 744 
Q 775 591 1075 516 
Q 1375 441 1709 441 
Q 2250 441 2565 725 
Q 2881 1009 2881 1497 
Q 2881 1984 2565 2268 
Q 2250 2553 1709 2553 
Q 1456 2553 1204 2497 
Q 953 2441 691 2322 
L 691 4666 
z
" transform="scale(0.015625)"/>
       </defs>
       <use xlink:href="#DejaVuSans-35"/>
       <use xlink:href="#DejaVuSans-30" transform="translate(63.623047 0)"/>
       <use xlink:href="#DejaVuSans-30" transform="translate(127.246094 0)"/>
      </g>
     </g>
    </g>
    <g id="xtick_7">
     <g id="line2d_13">
      <path d="M 446.89747 576.718125 
L 446.89747 22.318125 
" clip-path="url(#pfc23a8dfd4)" style="fill: none; stroke: #b0b0b0; stroke-width: 0.8; stroke-linecap: square"/>
     </g>
     <g id="line2d_14">
      <g>
       <use xlink:href="#m010a7e8756" x="446.89747" y="576.718125" style="stroke: #000000; stroke-width: 0.8"/>
      </g>
     </g>
     <g id="text_7">
      <!-- 600 -->
      <g transform="translate(437.35372 591.316563) scale(0.1 -0.1)">
       <defs>
        <path id="DejaVuSans-36" d="M 2113 2584 
Q 1688 2584 1439 2293 
Q 1191 2003 1191 1497 
Q 1191 994 1439 701 
Q 1688 409 2113 409 
Q 2538 409 2786 701 
Q 3034 994 3034 1497 
Q 3034 2003 2786 2293 
Q 2538 2584 2113 2584 
z
M 3366 4563 
L 3366 3988 
Q 3128 4100 2886 4159 
Q 2644 4219 2406 4219 
Q 1781 4219 1451 3797 
Q 1122 3375 1075 2522 
Q 1259 2794 1537 2939 
Q 1816 3084 2150 3084 
Q 2853 3084 3261 2657 
Q 3669 2231 3669 1497 
Q 3669 778 3244 343 
Q 2819 -91 2113 -91 
Q 1303 -91 875 529 
Q 447 1150 447 2328 
Q 447 3434 972 4092 
Q 1497 4750 2381 4750 
Q 2619 4750 2861 4703 
Q 3103 4656 3366 4563 
z
" transform="scale(0.015625)"/>
       </defs>
       <use xlink:href="#DejaVuSans-36"/>
       <use xlink:href="#DejaVuSans-30" transform="translate(63.623047 0)"/>
       <use xlink:href="#DejaVuSans-30" transform="translate(127.246094 0)"/>
      </g>
     </g>
    </g>
    <g id="xtick_8">
     <g id="line2d_15">
      <path d="M 510.385922 576.718125 
L 510.385922 22.318125 
" clip-path="url(#pfc23a8dfd4)" style="fill: none; stroke: #b0b0b0; stroke-width: 0.8; stroke-linecap: square"/>
     </g>
     <g id="line2d_16">
      <g>
       <use xlink:href="#m010a7e8756" x="510.385922" y="576.718125" style="stroke: #000000; stroke-width: 0.8"/>
      </g>
     </g>
     <g id="text_8">
      <!-- 700 -->
      <g transform="translate(500.842172 591.316563) scale(0.1 -0.1)">
       <defs>
        <path id="DejaVuSans-37" d="M 525 4666 
L 3525 4666 
L 3525 4397 
L 1831 0 
L 1172 0 
L 2766 4134 
L 525 4134 
L 525 4666 
z
" transform="scale(0.015625)"/>
       </defs>
       <use xlink:href="#DejaVuSans-37"/>
       <use xlink:href="#DejaVuSans-30" transform="translate(63.623047 0)"/>
       <use xlink:href="#DejaVuSans-30" transform="translate(127.246094 0)"/>
      </g>
     </g>
    </g>
    <g id="xtick_9">
     <g id="line2d_17">
      <path d="M 573.874373 576.718125 
L 573.874373 22.318125 
" clip-path="url(#pfc23a8dfd4)" style="fill: none; stroke: #b0b0b0; stroke-width: 0.8; stroke-linecap: square"/>
     </g>
     <g id="line2d_18">
      <g>
       <use xlink:href="#m010a7e8756" x="573.874373" y="576.718125" style="stroke: #000000; stroke-width: 0.8"/>
      </g>
     </g>
     <g id="text_9">
      <!-- 800 -->
      <g transform="translate(564.330623 591.316563) scale(0.1 -0.1)">
       <defs>
        <path id="DejaVuSans-38" d="M 2034 2216 
Q 1584 2216 1326 1975 
Q 1069 1734 1069 1313 
Q 1069 891 1326 650 
Q 1584 409 2034 409 
Q 2484 409 2743 651 
Q 3003 894 3003 1313 
Q 3003 1734 2745 1975 
Q 2488 2216 2034 2216 
z
M 1403 2484 
Q 997 2584 770 2862 
Q 544 3141 544 3541 
Q 544 4100 942 4425 
Q 1341 4750 2034 4750 
Q 2731 4750 3128 4425 
Q 3525 4100 3525 3541 
Q 3525 3141 3298 2862 
Q 3072 2584 2669 2484 
Q 3125 2378 3379 2068 
Q 3634 1759 3634 1313 
Q 3634 634 3220 271 
Q 2806 -91 2034 -91 
Q 1263 -91 848 271 
Q 434 634 434 1313 
Q 434 1759 690 2068 
Q 947 2378 1403 2484 
z
M 1172 3481 
Q 1172 3119 1398 2916 
Q 1625 2713 2034 2713 
Q 2441 2713 2670 2916 
Q 2900 3119 2900 3481 
Q 2900 3844 2670 4047 
Q 2441 4250 2034 4250 
Q 1625 4250 1398 4047 
Q 1172 3844 1172 3481 
z
" transform="scale(0.015625)"/>
       </defs>
       <use xlink:href="#DejaVuSans-38"/>
       <use xlink:href="#DejaVuSans-30" transform="translate(63.623047 0)"/>
       <use xlink:href="#DejaVuSans-30" transform="translate(127.246094 0)"/>
      </g>
     </g>
    </g>
    <g id="text_10">
     <!-- Epochs -->
     <g transform="translate(301.6875 604.994688) scale(0.1 -0.1)">
      <defs>
       <path id="DejaVuSans-45" d="M 628 4666 
L 3578 4666 
L 3578 4134 
L 1259 4134 
L 1259 2753 
L 3481 2753 
L 3481 2222 
L 1259 2222 
L 1259 531 
L 3634 531 
L 3634 0 
L 628 0 
L 628 4666 
z
" transform="scale(0.015625)"/>
       <path id="DejaVuSans-70" d="M 1159 525 
L 1159 -1331 
L 581 -1331 
L 581 3500 
L 1159 3500 
L 1159 2969 
Q 1341 3281 1617 3432 
Q 1894 3584 2278 3584 
Q 2916 3584 3314 3078 
Q 3713 2572 3713 1747 
Q 3713 922 3314 415 
Q 2916 -91 2278 -91 
Q 1894 -91 1617 61 
Q 1341 213 1159 525 
z
M 3116 1747 
Q 3116 2381 2855 2742 
Q 2594 3103 2138 3103 
Q 1681 3103 1420 2742 
Q 1159 2381 1159 1747 
Q 1159 1113 1420 752 
Q 1681 391 2138 391 
Q 2594 391 2855 752 
Q 3116 1113 3116 1747 
z
" transform="scale(0.015625)"/>
       <path id="DejaVuSans-6f" d="M 1959 3097 
Q 1497 3097 1228 2736 
Q 959 2375 959 1747 
Q 959 1119 1226 758 
Q 1494 397 1959 397 
Q 2419 397 2687 759 
Q 2956 1122 2956 1747 
Q 2956 2369 2687 2733 
Q 2419 3097 1959 3097 
z
M 1959 3584 
Q 2709 3584 3137 3096 
Q 3566 2609 3566 1747 
Q 3566 888 3137 398 
Q 2709 -91 1959 -91 
Q 1206 -91 779 398 
Q 353 888 353 1747 
Q 353 2609 779 3096 
Q 1206 3584 1959 3584 
z
" transform="scale(0.015625)"/>
       <path id="DejaVuSans-63" d="M 3122 3366 
L 3122 2828 
Q 2878 2963 2633 3030 
Q 2388 3097 2138 3097 
Q 1578 3097 1268 2742 
Q 959 2388 959 1747 
Q 959 1106 1268 751 
Q 1578 397 2138 397 
Q 2388 397 2633 464 
Q 2878 531 3122 666 
L 3122 134 
Q 2881 22 2623 -34 
Q 2366 -91 2075 -91 
Q 1284 -91 818 406 
Q 353 903 353 1747 
Q 353 2603 823 3093 
Q 1294 3584 2113 3584 
Q 2378 3584 2631 3529 
Q 2884 3475 3122 3366 
z
" transform="scale(0.015625)"/>
       <path id="DejaVuSans-68" d="M 3513 2113 
L 3513 0 
L 2938 0 
L 2938 2094 
Q 2938 2591 2744 2837 
Q 2550 3084 2163 3084 
Q 1697 3084 1428 2787 
Q 1159 2491 1159 1978 
L 1159 0 
L 581 0 
L 581 4863 
L 1159 4863 
L 1159 2956 
Q 1366 3272 1645 3428 
Q 1925 3584 2291 3584 
Q 2894 3584 3203 3211 
Q 3513 2838 3513 2113 
z
" transform="scale(0.015625)"/>
       <path id="DejaVuSans-73" d="M 2834 3397 
L 2834 2853 
Q 2591 2978 2328 3040 
Q 2066 3103 1784 3103 
Q 1356 3103 1142 2972 
Q 928 2841 928 2578 
Q 928 2378 1081 2264 
Q 1234 2150 1697 2047 
L 1894 2003 
Q 2506 1872 2764 1633 
Q 3022 1394 3022 966 
Q 3022 478 2636 193 
Q 2250 -91 1575 -91 
Q 1294 -91 989 -36 
Q 684 19 347 128 
L 347 722 
Q 666 556 975 473 
Q 1284 391 1588 391 
Q 1994 391 2212 530 
Q 2431 669 2431 922 
Q 2431 1156 2273 1281 
Q 2116 1406 1581 1522 
L 1381 1569 
Q 847 1681 609 1914 
Q 372 2147 372 2553 
Q 372 3047 722 3315 
Q 1072 3584 1716 3584 
Q 2034 3584 2315 3537 
Q 2597 3491 2834 3397 
z
" transform="scale(0.015625)"/>
      </defs>
      <use xlink:href="#DejaVuSans-45"/>
      <use xlink:href="#DejaVuSans-70" transform="translate(63.183594 0)"/>
      <use xlink:href="#DejaVuSans-6f" transform="translate(126.660156 0)"/>
      <use xlink:href="#DejaVuSans-63" transform="translate(187.841797 0)"/>
      <use xlink:href="#DejaVuSans-68" transform="translate(242.822266 0)"/>
      <use xlink:href="#DejaVuSans-73" transform="translate(306.201172 0)"/>
     </g>
    </g>
   </g>
   <g id="matplotlib.axis_2">
    <g id="ytick_1">
     <g id="line2d_19">
      <path d="M 40.603125 568.851758 
L 598.603125 568.851758 
" clip-path="url(#pfc23a8dfd4)" style="fill: none; stroke: #b0b0b0; stroke-width: 0.8; stroke-linecap: square"/>
     </g>
     <g id="line2d_20">
      <defs>
       <path id="mb4a3a7cc9f" d="M 0 0 
L -3.5 0 
" style="stroke: #000000; stroke-width: 0.8"/>
      </defs>
      <g>
       <use xlink:href="#mb4a3a7cc9f" x="40.603125" y="568.851758" style="stroke: #000000; stroke-width: 0.8"/>
      </g>
     </g>
     <g id="text_11">
      <!-- 0 -->
      <g transform="translate(27.240625 572.650976) scale(0.1 -0.1)">
       <use xlink:href="#DejaVuSans-30"/>
      </g>
     </g>
    </g>
    <g id="ytick_2">
     <g id="line2d_21">
      <path d="M 40.603125 481.629712 
L 598.603125 481.629712 
" clip-path="url(#pfc23a8dfd4)" style="fill: none; stroke: #b0b0b0; stroke-width: 0.8; stroke-linecap: square"/>
     </g>
     <g id="line2d_22">
      <g>
       <use xlink:href="#mb4a3a7cc9f" x="40.603125" y="481.629712" style="stroke: #000000; stroke-width: 0.8"/>
      </g>
     </g>
     <g id="text_12">
      <!-- 2 -->
      <g transform="translate(27.240625 485.428931) scale(0.1 -0.1)">
       <use xlink:href="#DejaVuSans-32"/>
      </g>
     </g>
    </g>
    <g id="ytick_3">
     <g id="line2d_23">
      <path d="M 40.603125 394.407666 
L 598.603125 394.407666 
" clip-path="url(#pfc23a8dfd4)" style="fill: none; stroke: #b0b0b0; stroke-width: 0.8; stroke-linecap: square"/>
     </g>
     <g id="line2d_24">
      <g>
       <use xlink:href="#mb4a3a7cc9f" x="40.603125" y="394.407666" style="stroke: #000000; stroke-width: 0.8"/>
      </g>
     </g>
     <g id="text_13">
      <!-- 4 -->
      <g transform="translate(27.240625 398.206885) scale(0.1 -0.1)">
       <use xlink:href="#DejaVuSans-34"/>
      </g>
     </g>
    </g>
    <g id="ytick_4">
     <g id="line2d_25">
      <path d="M 40.603125 307.18562 
L 598.603125 307.18562 
" clip-path="url(#pfc23a8dfd4)" style="fill: none; stroke: #b0b0b0; stroke-width: 0.8; stroke-linecap: square"/>
     </g>
     <g id="line2d_26">
      <g>
       <use xlink:href="#mb4a3a7cc9f" x="40.603125" y="307.18562" style="stroke: #000000; stroke-width: 0.8"/>
      </g>
     </g>
     <g id="text_14">
      <!-- 6 -->
      <g transform="translate(27.240625 310.984839) scale(0.1 -0.1)">
       <use xlink:href="#DejaVuSans-36"/>
      </g>
     </g>
    </g>
    <g id="ytick_5">
     <g id="line2d_27">
      <path d="M 40.603125 219.963575 
L 598.603125 219.963575 
" clip-path="url(#pfc23a8dfd4)" style="fill: none; stroke: #b0b0b0; stroke-width: 0.8; stroke-linecap: square"/>
     </g>
     <g id="line2d_28">
      <g>
       <use xlink:href="#mb4a3a7cc9f" x="40.603125" y="219.963575" style="stroke: #000000; stroke-width: 0.8"/>
      </g>
     </g>
     <g id="text_15">
      <!-- 8 -->
      <g transform="translate(27.240625 223.762793) scale(0.1 -0.1)">
       <use xlink:href="#DejaVuSans-38"/>
      </g>
     </g>
    </g>
    <g id="ytick_6">
     <g id="line2d_29">
      <path d="M 40.603125 132.741529 
L 598.603125 132.741529 
" clip-path="url(#pfc23a8dfd4)" style="fill: none; stroke: #b0b0b0; stroke-width: 0.8; stroke-linecap: square"/>
     </g>
     <g id="line2d_30">
      <g>
       <use xlink:href="#mb4a3a7cc9f" x="40.603125" y="132.741529" style="stroke: #000000; stroke-width: 0.8"/>
      </g>
     </g>
     <g id="text_16">
      <!-- 10 -->
      <g transform="translate(20.878125 136.540748) scale(0.1 -0.1)">
       <use xlink:href="#DejaVuSans-31"/>
       <use xlink:href="#DejaVuSans-30" transform="translate(63.623047 0)"/>
      </g>
     </g>
    </g>
    <g id="ytick_7">
     <g id="line2d_31">
      <path d="M 40.603125 45.519483 
L 598.603125 45.519483 
" clip-path="url(#pfc23a8dfd4)" style="fill: none; stroke: #b0b0b0; stroke-width: 0.8; stroke-linecap: square"/>
     </g>
     <g id="line2d_32">
      <g>
       <use xlink:href="#mb4a3a7cc9f" x="40.603125" y="45.519483" style="stroke: #000000; stroke-width: 0.8"/>
      </g>
     </g>
     <g id="text_17">
      <!-- 12 -->
      <g transform="translate(20.878125 49.318702) scale(0.1 -0.1)">
       <use xlink:href="#DejaVuSans-31"/>
       <use xlink:href="#DejaVuSans-32" transform="translate(63.623047 0)"/>
      </g>
     </g>
    </g>
    <g id="text_18">
     <!-- Loss -->
     <g transform="translate(14.798437 310.485313) rotate(-90) scale(0.1 -0.1)">
      <defs>
       <path id="DejaVuSans-4c" d="M 628 4666 
L 1259 4666 
L 1259 531 
L 3531 531 
L 3531 0 
L 628 0 
L 628 4666 
z
" transform="scale(0.015625)"/>
      </defs>
      <use xlink:href="#DejaVuSans-4c"/>
      <use xlink:href="#DejaVuSans-6f" transform="translate(53.962891 0)"/>
      <use xlink:href="#DejaVuSans-73" transform="translate(115.144531 0)"/>
      <use xlink:href="#DejaVuSans-73" transform="translate(167.244141 0)"/>
     </g>
    </g>
   </g>
   <g id="line2d_33">
    <path d="M 65.966761 490.148238 
L 66.601646 491.754186 
L 68.506299 492.114959 
L 83.743528 494.4391 
L 91.997026 495.911063 
L 104.059832 498.336436 
L 123.741252 502.459131 
L 130.090097 503.764871 
L 135.169173 504.811528 
L 155.485478 508.824485 
L 175.166898 512.468196 
L 187.864588 514.669015 
L 222.783237 520.261157 
L 234.846042 522.044187 
L 257.701885 525.284036 
L 264.685614 526.203414 
L 267.225153 526.550743 
L 272.304229 527.210941 
L 289.446111 529.367719 
L 307.222877 531.477353 
L 328.80895 533.87094 
L 333.253142 534.344552 
L 338.332218 534.876648 
L 349.125255 535.967504 
L 360.553176 537.108418 
L 395.471825 540.289593 
L 415.788129 541.986723 
L 430.390473 543.108271 
L 432.930011 543.308874 
L 437.374202 543.615379 
L 441.18351 543.91623 
L 448.167239 544.402626 
L 451.341662 544.639644 
L 497.688231 547.651917 
L 502.132423 547.926 
L 506.576615 548.175174 
L 511.020806 548.433364 
L 514.195229 548.6334 
L 529.432457 549.443319 
L 531.337111 549.53678 
L 533.876649 549.680899 
L 536.416187 549.816676 
L 540.225494 550.001706 
L 543.399916 550.137196 
L 545.939455 550.275262 
L 563.716221 551.082314 
L 564.98599 551.149197 
L 573.239489 551.518125 
L 573.239489 551.518125 
" clip-path="url(#pfc23a8dfd4)" style="fill: none; stroke: #1f77b4; stroke-width: 1.5; stroke-linecap: square"/>
   </g>
   <g id="line2d_34">
    <path d="M 65.966761 491.495621 
L 68.506299 491.704116 
L 71.680722 491.796983 
L 75.490029 491.867323 
L 79.934221 491.756005 
L 84.378412 491.559858 
L 93.90168 490.646495 
L 95.806334 490.325981 
L 96.441218 490.277471 
L 97.076103 490.097279 
L 97.710987 490.125301 
L 99.615641 489.664138 
L 100.250525 489.718024 
L 100.88541 489.513834 
L 101.520294 489.493153 
L 102.155179 489.311272 
L 102.790063 489.295369 
L 103.424948 489.098967 
L 105.329601 488.805316 
L 105.964486 488.563908 
L 107.234255 488.443451 
L 108.504024 488.167668 
L 110.408677 487.868558 
L 111.678446 487.578068 
L 113.5831 487.229802 
L 114.217984 487.000331 
L 116.122638 486.618455 
L 116.757523 486.409088 
L 117.392407 486.403499 
L 118.027292 486.080947 
L 118.662176 486.090659 
L 121.201714 485.470687 
L 121.836599 485.456853 
L 123.741252 484.834677 
L 124.376137 484.548902 
L 125.011021 484.683474 
L 125.645906 484.273399 
L 126.28079 484.290197 
L 126.915675 484.118344 
L 127.550559 483.74683 
L 128.185444 483.753235 
L 128.820328 483.489441 
L 129.455213 483.534873 
L 130.090097 483.122647 
L 131.359866 482.957823 
L 133.26452 482.323159 
L 134.534289 482.00513 
L 135.169173 481.87412 
L 135.804058 481.870928 
L 136.438942 481.372484 
L 137.073827 481.474152 
L 138.978481 480.548842 
L 139.613365 480.709476 
L 140.24825 480.257166 
L 140.883134 480.343852 
L 141.518019 480.047133 
L 142.152903 479.940619 
L 142.787788 479.639284 
L 144.692441 479.314055 
L 145.327326 478.926804 
L 145.96221 478.850111 
L 147.866864 478.113519 
L 148.501748 477.636088 
L 149.136633 477.705295 
L 149.771517 477.593084 
L 150.406402 477.350215 
L 151.041286 476.908833 
L 151.676171 477.154011 
L 152.311055 476.918617 
L 152.94594 476.324213 
L 153.580824 476.401728 
L 154.850593 475.72957 
L 155.485478 475.839817 
L 156.120362 475.319964 
L 156.755247 475.245818 
L 157.390131 475.380239 
L 158.025016 474.876212 
L 158.659901 474.618058 
L 160.564554 474.22407 
L 161.834323 473.55736 
L 162.469208 473.699236 
L 163.104092 473.107671 
L 164.373861 472.529934 
L 165.008746 472.495736 
L 166.278515 471.803864 
L 166.913399 471.849448 
L 167.548284 471.333078 
L 168.818053 471.195527 
L 169.452937 470.804856 
L 171.357591 470.365512 
L 171.992475 470.150041 
L 172.62736 469.618189 
L 173.262244 469.853728 
L 173.897129 469.124393 
L 174.532013 469.468785 
L 175.166898 469.569331 
L 175.801782 468.739461 
L 176.436667 468.58909 
L 177.071551 468.129959 
L 177.706436 468.143133 
L 178.34132 467.610387 
L 178.976205 467.607112 
L 179.61109 467.140464 
L 180.880859 466.83993 
L 181.515743 466.388619 
L 182.150628 466.155107 
L 182.785512 466.228411 
L 183.420397 465.62127 
L 184.055281 465.44347 
L 184.690166 465.526713 
L 185.32505 464.512711 
L 185.959935 464.831275 
L 186.594819 464.415628 
L 187.229704 464.330003 
L 188.499473 463.551768 
L 189.134357 463.524786 
L 189.769242 463.373791 
L 190.404126 463.108161 
L 191.673895 462.068976 
L 192.30878 462.341146 
L 192.943664 461.761839 
L 193.578549 461.798761 
L 194.213433 461.472721 
L 194.848318 460.982647 
L 196.118087 460.599815 
L 196.752971 460.876269 
L 197.387856 460.204891 
L 198.02274 460.603683 
L 198.657625 459.487347 
L 199.292509 459.013629 
L 199.927394 458.936395 
L 200.562278 458.743102 
L 201.197163 458.213673 
L 201.832048 458.083681 
L 202.466932 457.692354 
L 203.101817 457.06292 
L 203.736701 457.581473 
L 204.371586 457.338635 
L 205.00647 456.893615 
L 205.641355 456.255748 
L 206.276239 456.191928 
L 206.911124 456.640847 
L 207.546008 455.294421 
L 208.815777 454.869 
L 209.450662 455.144299 
L 210.085546 454.313722 
L 210.720431 453.812596 
L 211.355315 453.735913 
L 211.9902 453.011891 
L 212.625084 453.650215 
L 213.259969 453.029266 
L 213.894853 453.518009 
L 214.529738 452.474061 
L 215.164622 452.035549 
L 215.799507 451.900182 
L 216.434391 451.051575 
L 217.70416 450.237988 
L 218.339045 450.407585 
L 218.973929 449.055294 
L 219.608814 449.703402 
L 221.513467 448.564409 
L 222.148352 448.718097 
L 222.783237 447.937315 
L 223.418121 447.589055 
L 224.053006 447.733156 
L 224.68789 446.783443 
L 225.322775 446.920827 
L 225.957659 446.174888 
L 226.592544 446.944576 
L 227.227428 445.555467 
L 227.862313 445.342772 
L 228.497197 446.221095 
L 229.132082 444.963527 
L 229.766966 444.169914 
L 230.401851 444.558371 
L 232.306504 442.946201 
L 232.941389 443.693513 
L 233.576273 442.506826 
L 234.846042 441.386622 
L 235.480927 440.36532 
L 236.115811 441.443684 
L 236.750696 441.372491 
L 237.38558 440.717656 
L 238.020465 441.24146 
L 239.290234 440.009834 
L 239.925118 438.539342 
L 241.194887 438.568435 
L 241.829772 437.565236 
L 242.464656 436.267003 
L 243.099541 437.759173 
L 243.734425 437.064057 
L 244.36931 436.802545 
L 245.004195 435.737532 
L 245.639079 436.81809 
L 246.273964 436.57728 
L 246.908848 436.548114 
L 247.543733 435.488154 
L 248.178617 434.694926 
L 248.813502 432.907222 
L 249.448386 433.032202 
L 250.083271 433.552481 
L 250.718155 433.162453 
L 251.35304 432.004194 
L 251.987924 431.921761 
L 252.622809 430.69367 
L 253.257693 431.882749 
L 253.892578 430.812183 
L 255.162347 430.917491 
L 255.797231 429.317465 
L 256.432116 428.769403 
L 257.067 429.567747 
L 257.701885 428.617233 
L 258.336769 428.662245 
L 258.971654 427.81814 
L 259.606538 427.550764 
L 261.511192 425.904022 
L 262.146076 425.752288 
L 262.780961 426.128039 
L 263.415845 424.574075 
L 264.05073 425.117967 
L 264.685614 423.083246 
L 265.320499 422.80934 
L 265.955384 422.395242 
L 266.590268 422.571732 
L 267.225153 422.160629 
L 267.860037 423.877576 
L 268.494922 420.558544 
L 269.129806 422.291837 
L 269.764691 421.085602 
L 270.399575 421.271336 
L 271.03446 419.839773 
L 272.304229 419.052326 
L 272.939113 418.409198 
L 273.573998 418.842158 
L 274.208882 418.129251 
L 274.843767 417.066109 
L 276.113536 416.003789 
L 276.74842 416.675677 
L 277.383305 414.685873 
L 278.018189 415.6592 
L 278.653074 415.360859 
L 279.287958 414.130169 
L 279.922843 413.905351 
L 280.557727 412.339304 
L 281.192612 412.782391 
L 281.827496 412.049667 
L 282.462381 413.398952 
L 283.097265 410.290307 
L 283.73215 409.998402 
L 284.367034 411.114686 
L 285.001919 410.370889 
L 285.636803 409.348786 
L 286.271688 409.589056 
L 286.906572 408.414399 
L 287.541457 408.469372 
L 288.811226 407.128986 
L 289.446111 407.508439 
L 290.080995 405.967139 
L 290.71588 406.657971 
L 291.350764 404.773371 
L 291.985649 405.88871 
L 292.620533 403.646221 
L 293.255418 403.139116 
L 293.890302 404.032464 
L 294.525187 403.649809 
L 295.160071 403.048272 
L 295.794956 401.395758 
L 296.42984 402.252745 
L 297.064725 401.094974 
L 297.699609 398.561019 
L 298.334494 399.643989 
L 298.969378 399.20398 
L 300.239147 399.210946 
L 301.508916 397.74112 
L 302.143801 399.219202 
L 302.778685 395.329919 
L 303.41357 394.703366 
L 304.048454 394.77851 
L 304.683339 394.650577 
L 305.318223 394.22371 
L 305.953108 394.122312 
L 306.587992 394.230115 
L 307.222877 392.871368 
L 307.857761 392.052925 
L 309.127531 391.599108 
L 309.762415 389.385234 
L 310.3973 389.376458 
L 311.032184 388.633336 
L 311.667069 388.810762 
L 312.936838 386.882887 
L 313.571722 389.119969 
L 314.206607 386.248317 
L 315.476376 387.946923 
L 316.11126 384.886117 
L 316.746145 383.017051 
L 317.381029 384.715429 
L 318.015914 382.745714 
L 318.650798 383.46594 
L 319.285683 383.6108 
L 319.920567 381.491525 
L 320.555452 382.312359 
L 321.190336 380.891059 
L 321.825221 380.268841 
L 322.460105 381.501902 
L 323.09499 379.425881 
L 323.729874 378.899342 
L 324.364759 380.477107 
L 324.999643 379.334693 
L 325.634528 376.002965 
L 326.269412 376.246 
L 326.904297 376.107191 
L 327.539181 373.688255 
L 328.174066 376.2554 
L 328.80895 373.134433 
L 330.713604 372.635843 
L 331.348489 372.923589 
L 331.983373 371.528407 
L 332.618258 371.317314 
L 333.253142 368.957269 
L 334.522911 371.204665 
L 335.157796 368.041546 
L 335.79268 367.611581 
L 336.427565 366.205753 
L 337.062449 362.249873 
L 337.697334 365.646358 
L 338.332218 367.923553 
L 339.601987 362.998027 
L 340.236872 363.953574 
L 340.871756 361.556223 
L 341.506641 361.996523 
L 342.141525 363.049288 
L 342.77641 362.392072 
L 343.411294 360.96628 
L 344.046179 358.125842 
L 344.681063 357.679698 
L 345.315948 357.875653 
L 345.950832 359.094074 
L 346.585717 356.812449 
L 347.220601 355.324312 
L 347.855486 355.93765 
L 348.49037 357.486239 
L 349.125255 354.702822 
L 349.760139 354.794384 
L 350.395024 355.437252 
L 351.029908 351.748343 
L 351.664793 353.557144 
L 352.299678 350.172471 
L 352.934562 350.228909 
L 353.569447 349.621622 
L 354.204331 348.285708 
L 354.839216 349.614843 
L 355.4741 345.490396 
L 356.108985 347.416129 
L 356.743869 345.845373 
L 357.378754 345.349279 
L 358.013638 347.118174 
L 358.648523 346.846877 
L 359.283407 341.655337 
L 359.918292 345.427823 
L 360.553176 342.501396 
L 361.822945 341.24465 
L 362.45783 341.56912 
L 363.092714 342.871221 
L 363.727599 341.279711 
L 364.362483 336.656799 
L 364.997368 338.663198 
L 366.267137 336.3253 
L 366.902021 337.078238 
L 367.536906 332.275384 
L 368.17179 335.510642 
L 368.806675 336.229455 
L 369.441559 333.928241 
L 370.076444 335.024052 
L 370.711328 327.722844 
L 371.346213 330.049948 
L 371.981097 331.149773 
L 372.615982 329.950879 
L 373.250866 330.120049 
L 373.885751 326.783143 
L 374.520636 327.624461 
L 375.15552 326.072857 
L 375.790405 327.826633 
L 376.425289 327.137163 
L 377.060174 322.650149 
L 377.695058 327.644861 
L 378.329943 320.317659 
L 378.964827 320.688087 
L 379.599712 322.335599 
L 380.234596 325.143326 
L 380.869481 322.169548 
L 381.504365 320.183363 
L 382.13925 320.226929 
L 382.774134 319.108347 
L 383.409019 317.299879 
L 384.043903 312.261684 
L 384.678788 314.420762 
L 385.313672 312.289466 
L 385.948557 315.445266 
L 386.583441 316.194959 
L 387.218326 312.436614 
L 387.85321 316.094289 
L 388.488095 312.338959 
L 389.122979 313.310601 
L 389.757864 312.327875 
L 390.392748 312.968601 
L 391.027633 311.541374 
L 391.662517 306.2292 
L 392.297402 306.519296 
L 392.932286 308.931599 
L 393.567171 308.179909 
L 394.202055 304.48185 
L 394.83694 303.531835 
L 395.471825 305.203594 
L 396.106709 303.778967 
L 396.741594 308.177559 
L 397.376478 304.583872 
L 398.646247 299.495934 
L 399.281132 298.25048 
L 400.550901 300.076832 
L 401.185785 292.104766 
L 401.82067 294.700047 
L 402.455554 292.741291 
L 403.090439 296.116439 
L 403.725323 295.673186 
L 404.360208 291.541627 
L 404.995092 295.99356 
L 406.264861 289.884113 
L 406.899746 289.679653 
L 407.53463 283.606244 
L 408.169515 291.480531 
L 408.804399 284.759201 
L 409.439284 287.512652 
L 410.074168 284.845772 
L 410.709053 288.223416 
L 411.343937 288.5519 
L 411.978822 282.785805 
L 412.613706 284.652376 
L 413.883475 281.522654 
L 414.51836 276.520975 
L 415.153244 277.19749 
L 415.788129 282.157224 
L 416.423013 281.309938 
L 417.057898 276.825295 
L 417.692783 276.403232 
L 418.327667 278.447831 
L 418.962552 269.647881 
L 419.597436 276.469257 
L 420.232321 274.831207 
L 420.867205 274.157666 
L 421.50209 268.38473 
L 422.136974 272.965385 
L 422.771859 269.174184 
L 423.406743 272.105227 
L 424.041628 267.761368 
L 424.676512 268.583929 
L 425.311397 263.040781 
L 425.946281 259.490556 
L 426.581166 261.317906 
L 427.21605 262.361189 
L 427.850935 264.759143 
L 428.485819 259.157518 
L 429.120704 264.220148 
L 429.755588 261.041349 
L 430.390473 254.170979 
L 431.025357 261.541436 
L 431.660242 260.743892 
L 432.295126 261.038042 
L 432.930011 255.032967 
L 433.564895 260.710911 
L 434.19978 256.633503 
L 434.834664 255.380021 
L 435.469549 252.313143 
L 436.104433 257.548686 
L 436.739318 255.078218 
L 438.009087 244.714603 
L 438.643972 250.342159 
L 439.913741 247.262637 
L 440.548625 243.503128 
L 441.18351 245.963385 
L 441.818394 237.444921 
L 442.453279 242.770944 
L 443.088163 236.238457 
L 443.723048 236.799786 
L 444.357932 239.469057 
L 444.992817 238.243005 
L 445.627701 241.713646 
L 446.262586 249.979737 
L 446.89747 236.676283 
L 447.532355 239.98106 
L 448.802124 228.531345 
L 449.437008 233.489457 
L 450.071893 227.198404 
L 450.706777 226.583589 
L 451.341662 232.935988 
L 451.976546 234.445814 
L 452.611431 233.608448 
L 453.246315 229.445488 
L 453.8812 233.473319 
L 454.516084 226.019786 
L 455.150969 222.527018 
L 455.785853 228.05407 
L 456.420738 228.492083 
L 457.055622 221.712277 
L 457.690507 223.4406 
L 458.325391 223.438458 
L 458.960276 227.213023 
L 459.59516 217.94289 
L 460.230045 215.220819 
L 460.86493 217.637656 
L 461.499814 216.636401 
L 462.134699 216.753853 
L 462.769583 218.885876 
L 463.404468 219.868124 
L 464.039352 213.187824 
L 464.674237 215.114264 
L 465.309121 221.372107 
L 465.944006 212.409038 
L 466.57889 206.005191 
L 467.213775 207.690863 
L 467.848659 204.90678 
L 468.483544 209.289568 
L 469.118428 200.804189 
L 469.753313 209.406271 
L 470.388197 211.895392 
L 471.023082 203.703103 
L 471.657966 207.286226 
L 472.292851 200.104342 
L 472.927735 199.552184 
L 473.56262 204.430858 
L 474.197504 206.51501 
L 475.467273 196.530868 
L 476.102158 192.896214 
L 476.737042 192.988712 
L 477.371927 193.319192 
L 478.006811 200.481196 
L 478.641696 197.202101 
L 479.911465 186.634067 
L 480.546349 195.948016 
L 481.181234 189.388162 
L 481.816119 187.864362 
L 482.451003 188.16681 
L 483.085888 183.936993 
L 483.720772 183.404548 
L 484.355657 181.749737 
L 484.990541 183.089707 
L 485.625426 178.885801 
L 486.26031 183.050487 
L 486.895195 180.356656 
L 488.164964 176.622143 
L 488.799848 181.593522 
L 489.434733 180.221985 
L 490.069617 174.933102 
L 490.704502 168.278048 
L 491.339386 176.928542 
L 491.974271 169.922669 
L 492.609155 169.294566 
L 493.24404 171.125514 
L 493.878924 165.634085 
L 494.513809 170.873225 
L 495.148693 171.17064 
L 495.783578 169.997075 
L 496.418462 164.445713 
L 497.053347 172.548249 
L 497.688231 165.010182 
L 498.323116 161.13085 
L 498.958 160.490104 
L 499.592885 163.858743 
L 500.227769 164.471749 
L 500.862654 155.675729 
L 501.497538 163.620761 
L 502.132423 158.311957 
L 502.767308 158.513713 
L 503.402192 160.325571 
L 504.037077 152.734642 
L 504.671961 156.210211 
L 505.306846 153.142314 
L 505.94173 152.362364 
L 506.576615 150.419287 
L 507.211499 142.486358 
L 507.846384 151.30022 
L 508.481268 148.125143 
L 509.116153 146.612198 
L 509.751037 154.432208 
L 510.385922 143.301161 
L 511.020806 147.983111 
L 511.655691 146.32543 
L 512.290575 134.5919 
L 512.92546 145.493241 
L 513.560344 140.627336 
L 514.195229 133.903407 
L 514.830113 137.306526 
L 515.464998 137.57229 
L 516.099882 140.893392 
L 516.734767 132.687253 
L 517.369651 132.222768 
L 518.63942 134.768161 
L 519.274305 121.21903 
L 519.909189 127.297887 
L 520.544074 128.034708 
L 521.178958 130.72413 
L 521.813843 123.662526 
L 522.448727 127.165046 
L 523.083612 133.145167 
L 523.718496 117.760929 
L 524.353381 122.972869 
L 524.988266 123.211849 
L 525.62315 125.090668 
L 526.258035 117.189098 
L 526.892919 113.780614 
L 527.527804 117.799442 
L 528.162688 113.931298 
L 528.797573 121.417751 
L 529.432457 104.000392 
L 530.067342 115.808411 
L 530.702226 110.491579 
L 531.971995 115.725105 
L 532.60688 113.319165 
L 533.241764 116.172829 
L 533.876649 110.360277 
L 534.511533 101.322366 
L 535.146418 104.334074 
L 535.781302 103.077744 
L 536.416187 103.488119 
L 537.051071 99.749821 
L 537.685956 100.698297 
L 538.32084 92.704105 
L 538.955725 97.461625 
L 539.590609 104.607159 
L 540.225494 93.289744 
L 540.860378 103.481922 
L 541.495263 99.590487 
L 542.130147 100.723959 
L 542.765032 100.946053 
L 543.399916 91.472978 
L 544.034801 97.625201 
L 544.669685 108.369455 
L 545.30457 93.468709 
L 545.939455 101.086838 
L 546.574339 95.433329 
L 547.209224 85.22493 
L 547.844108 89.161699 
L 548.478993 88.279269 
L 549.113877 78.732371 
L 549.748762 77.778779 
L 550.383646 83.025697 
L 551.018531 83.160201 
L 551.653415 83.907836 
L 552.2883 80.217284 
L 552.923184 82.780894 
L 553.558069 85.840847 
L 554.827838 68.32521 
L 556.097607 71.823446 
L 556.732491 64.253437 
L 557.367376 69.030879 
L 558.00226 70.020281 
L 558.637145 61.149606 
L 559.272029 66.937286 
L 559.906914 68.574837 
L 560.541798 62.647662 
L 561.176683 69.375625 
L 561.811567 63.111814 
L 562.446452 65.986398 
L 563.081336 55.19968 
L 563.716221 56.3433 
L 564.351105 66.74834 
L 564.98599 62.994195 
L 565.620874 60.932669 
L 566.255759 47.518125 
L 566.890643 61.112756 
L 567.525528 60.68903 
L 568.160413 57.338566 
L 568.795297 47.738181 
L 569.430182 58.6154 
L 570.065066 49.292343 
L 570.699951 51.461132 
L 571.334835 52.754313 
L 571.96972 52.821232 
L 572.604604 50.211955 
L 573.239489 49.534983 
L 573.239489 49.534983 
" clip-path="url(#pfc23a8dfd4)" style="fill: none; stroke: #ff7f0e; stroke-width: 1.5; stroke-linecap: square"/>
   </g>
   <g id="patch_3">
    <path d="M 40.603125 576.718125 
L 40.603125 22.318125 
" style="fill: none; stroke: #000000; stroke-width: 0.8; stroke-linejoin: miter; stroke-linecap: square"/>
   </g>
   <g id="patch_4">
    <path d="M 598.603125 576.718125 
L 598.603125 22.318125 
" style="fill: none; stroke: #000000; stroke-width: 0.8; stroke-linejoin: miter; stroke-linecap: square"/>
   </g>
   <g id="patch_5">
    <path d="M 40.603125 576.718125 
L 598.603125 576.718125 
" style="fill: none; stroke: #000000; stroke-width: 0.8; stroke-linejoin: miter; stroke-linecap: square"/>
   </g>
   <g id="patch_6">
    <path d="M 40.603125 22.318125 
L 598.603125 22.318125 
" style="fill: none; stroke: #000000; stroke-width: 0.8; stroke-linejoin: miter; stroke-linecap: square"/>
   </g>
   <g id="text_19">
    <!-- Train and Val Loss -->
    <g transform="translate(266.057812 16.318125) scale(0.12 -0.12)">
     <defs>
      <path id="DejaVuSans-54" d="M -19 4666 
L 3928 4666 
L 3928 4134 
L 2272 4134 
L 2272 0 
L 1638 0 
L 1638 4134 
L -19 4134 
L -19 4666 
z
" transform="scale(0.015625)"/>
      <path id="DejaVuSans-72" d="M 2631 2963 
Q 2534 3019 2420 3045 
Q 2306 3072 2169 3072 
Q 1681 3072 1420 2755 
Q 1159 2438 1159 1844 
L 1159 0 
L 581 0 
L 581 3500 
L 1159 3500 
L 1159 2956 
Q 1341 3275 1631 3429 
Q 1922 3584 2338 3584 
Q 2397 3584 2469 3576 
Q 2541 3569 2628 3553 
L 2631 2963 
z
" transform="scale(0.015625)"/>
      <path id="DejaVuSans-61" d="M 2194 1759 
Q 1497 1759 1228 1600 
Q 959 1441 959 1056 
Q 959 750 1161 570 
Q 1363 391 1709 391 
Q 2188 391 2477 730 
Q 2766 1069 2766 1631 
L 2766 1759 
L 2194 1759 
z
M 3341 1997 
L 3341 0 
L 2766 0 
L 2766 531 
Q 2569 213 2275 61 
Q 1981 -91 1556 -91 
Q 1019 -91 701 211 
Q 384 513 384 1019 
Q 384 1609 779 1909 
Q 1175 2209 1959 2209 
L 2766 2209 
L 2766 2266 
Q 2766 2663 2505 2880 
Q 2244 3097 1772 3097 
Q 1472 3097 1187 3025 
Q 903 2953 641 2809 
L 641 3341 
Q 956 3463 1253 3523 
Q 1550 3584 1831 3584 
Q 2591 3584 2966 3190 
Q 3341 2797 3341 1997 
z
" transform="scale(0.015625)"/>
      <path id="DejaVuSans-69" d="M 603 3500 
L 1178 3500 
L 1178 0 
L 603 0 
L 603 3500 
z
M 603 4863 
L 1178 4863 
L 1178 4134 
L 603 4134 
L 603 4863 
z
" transform="scale(0.015625)"/>
      <path id="DejaVuSans-6e" d="M 3513 2113 
L 3513 0 
L 2938 0 
L 2938 2094 
Q 2938 2591 2744 2837 
Q 2550 3084 2163 3084 
Q 1697 3084 1428 2787 
Q 1159 2491 1159 1978 
L 1159 0 
L 581 0 
L 581 3500 
L 1159 3500 
L 1159 2956 
Q 1366 3272 1645 3428 
Q 1925 3584 2291 3584 
Q 2894 3584 3203 3211 
Q 3513 2838 3513 2113 
z
" transform="scale(0.015625)"/>
      <path id="DejaVuSans-20" transform="scale(0.015625)"/>
      <path id="DejaVuSans-64" d="M 2906 2969 
L 2906 4863 
L 3481 4863 
L 3481 0 
L 2906 0 
L 2906 525 
Q 2725 213 2448 61 
Q 2172 -91 1784 -91 
Q 1150 -91 751 415 
Q 353 922 353 1747 
Q 353 2572 751 3078 
Q 1150 3584 1784 3584 
Q 2172 3584 2448 3432 
Q 2725 3281 2906 2969 
z
M 947 1747 
Q 947 1113 1208 752 
Q 1469 391 1925 391 
Q 2381 391 2643 752 
Q 2906 1113 2906 1747 
Q 2906 2381 2643 2742 
Q 2381 3103 1925 3103 
Q 1469 3103 1208 2742 
Q 947 2381 947 1747 
z
" transform="scale(0.015625)"/>
      <path id="DejaVuSans-56" d="M 1831 0 
L 50 4666 
L 709 4666 
L 2188 738 
L 3669 4666 
L 4325 4666 
L 2547 0 
L 1831 0 
z
" transform="scale(0.015625)"/>
      <path id="DejaVuSans-6c" d="M 603 4863 
L 1178 4863 
L 1178 0 
L 603 0 
L 603 4863 
z
" transform="scale(0.015625)"/>
     </defs>
     <use xlink:href="#DejaVuSans-54"/>
     <use xlink:href="#DejaVuSans-72" transform="translate(46.333984 0)"/>
     <use xlink:href="#DejaVuSans-61" transform="translate(87.447266 0)"/>
     <use xlink:href="#DejaVuSans-69" transform="translate(148.726562 0)"/>
     <use xlink:href="#DejaVuSans-6e" transform="translate(176.509766 0)"/>
     <use xlink:href="#DejaVuSans-20" transform="translate(239.888672 0)"/>
     <use xlink:href="#DejaVuSans-61" transform="translate(271.675781 0)"/>
     <use xlink:href="#DejaVuSans-6e" transform="translate(332.955078 0)"/>
     <use xlink:href="#DejaVuSans-64" transform="translate(396.333984 0)"/>
     <use xlink:href="#DejaVuSans-20" transform="translate(459.810547 0)"/>
     <use xlink:href="#DejaVuSans-56" transform="translate(491.597656 0)"/>
     <use xlink:href="#DejaVuSans-61" transform="translate(552.255859 0)"/>
     <use xlink:href="#DejaVuSans-6c" transform="translate(613.535156 0)"/>
     <use xlink:href="#DejaVuSans-20" transform="translate(641.318359 0)"/>
     <use xlink:href="#DejaVuSans-4c" transform="translate(673.105469 0)"/>
     <use xlink:href="#DejaVuSans-6f" transform="translate(727.068359 0)"/>
     <use xlink:href="#DejaVuSans-73" transform="translate(788.25 0)"/>
     <use xlink:href="#DejaVuSans-73" transform="translate(840.349609 0)"/>
    </g>
   </g>
   <g id="legend_1">
    <g id="patch_7">
     <path d="M 47.603125 60.230625 
L 127.19375 60.230625 
Q 129.19375 60.230625 129.19375 58.230625 
L 129.19375 29.318125 
Q 129.19375 27.318125 127.19375 27.318125 
L 47.603125 27.318125 
Q 45.603125 27.318125 45.603125 29.318125 
L 45.603125 58.230625 
Q 45.603125 60.230625 47.603125 60.230625 
z
" style="fill: #ffffff; opacity: 0.8; stroke: #cccccc; stroke-linejoin: miter"/>
    </g>
    <g id="line2d_35">
     <path d="M 49.603125 35.416563 
L 59.603125 35.416563 
L 69.603125 35.416563 
" style="fill: none; stroke: #1f77b4; stroke-width: 1.5; stroke-linecap: square"/>
    </g>
    <g id="text_20">
     <!-- train_loss -->
     <g transform="translate(77.603125 38.916563) scale(0.1 -0.1)">
      <defs>
       <path id="DejaVuSans-74" d="M 1172 4494 
L 1172 3500 
L 2356 3500 
L 2356 3053 
L 1172 3053 
L 1172 1153 
Q 1172 725 1289 603 
Q 1406 481 1766 481 
L 2356 481 
L 2356 0 
L 1766 0 
Q 1100 0 847 248 
Q 594 497 594 1153 
L 594 3053 
L 172 3053 
L 172 3500 
L 594 3500 
L 594 4494 
L 1172 4494 
z
" transform="scale(0.015625)"/>
       <path id="DejaVuSans-5f" d="M 3263 -1063 
L 3263 -1509 
L -63 -1509 
L -63 -1063 
L 3263 -1063 
z
" transform="scale(0.015625)"/>
      </defs>
      <use xlink:href="#DejaVuSans-74"/>
      <use xlink:href="#DejaVuSans-72" transform="translate(39.208984 0)"/>
      <use xlink:href="#DejaVuSans-61" transform="translate(80.322266 0)"/>
      <use xlink:href="#DejaVuSans-69" transform="translate(141.601562 0)"/>
      <use xlink:href="#DejaVuSans-6e" transform="translate(169.384766 0)"/>
      <use xlink:href="#DejaVuSans-5f" transform="translate(232.763672 0)"/>
      <use xlink:href="#DejaVuSans-6c" transform="translate(282.763672 0)"/>
      <use xlink:href="#DejaVuSans-6f" transform="translate(310.546875 0)"/>
      <use xlink:href="#DejaVuSans-73" transform="translate(371.728516 0)"/>
      <use xlink:href="#DejaVuSans-73" transform="translate(423.828125 0)"/>
     </g>
    </g>
    <g id="line2d_36">
     <path d="M 49.603125 50.372813 
L 59.603125 50.372813 
L 69.603125 50.372813 
" style="fill: none; stroke: #ff7f0e; stroke-width: 1.5; stroke-linecap: square"/>
    </g>
    <g id="text_21">
     <!-- val_loss -->
     <g transform="translate(77.603125 53.872813) scale(0.1 -0.1)">
      <defs>
       <path id="DejaVuSans-76" d="M 191 3500 
L 800 3500 
L 1894 563 
L 2988 3500 
L 3597 3500 
L 2284 0 
L 1503 0 
L 191 3500 
z
" transform="scale(0.015625)"/>
      </defs>
      <use xlink:href="#DejaVuSans-76"/>
      <use xlink:href="#DejaVuSans-61" transform="translate(59.179688 0)"/>
      <use xlink:href="#DejaVuSans-6c" transform="translate(120.458984 0)"/>
      <use xlink:href="#DejaVuSans-5f" transform="translate(148.242188 0)"/>
      <use xlink:href="#DejaVuSans-6c" transform="translate(198.242188 0)"/>
      <use xlink:href="#DejaVuSans-6f" transform="translate(226.025391 0)"/>
      <use xlink:href="#DejaVuSans-73" transform="translate(287.207031 0)"/>
      <use xlink:href="#DejaVuSans-73" transform="translate(339.306641 0)"/>
     </g>
    </g>
   </g>
  </g>
 </g>
 <defs>
  <clipPath id="pfc23a8dfd4">
   <rect x="40.603125" y="22.318125" width="558" height="554.4"/>
  </clipPath>
 </defs>
</svg>
