<?xml version="1.0" encoding="utf-8" standalone="no"?>
<!DOCTYPE svg PUBLIC "-//W3C//DTD SVG 1.1//EN"
  "http://www.w3.org/Graphics/SVG/1.1/DTD/svg11.dtd">
<svg xmlns:xlink="http://www.w3.org/1999/xlink" width="608.98125pt" height="614.274375pt" viewBox="0 0 608.98125 614.274375" xmlns="http://www.w3.org/2000/svg" version="1.1">
 <metadata>
  <rdf:RDF xmlns:dc="http://purl.org/dc/elements/1.1/" xmlns:cc="http://creativecommons.org/ns#" xmlns:rdf="http://www.w3.org/1999/02/22-rdf-syntax-ns#">
   <cc:Work>
    <dc:type rdf:resource="http://purl.org/dc/dcmitype/StillImage"/>
    <dc:date>2026-05-25T06:08:38.509380</dc:date>
    <dc:format>image/svg+xml</dc:format>
    <dc:creator>
     <cc:Agent>
      <dc:title>Matplotlib v3.10.9, https://matplotlib.org/</dc:title>
     </cc:Agent>
    </dc:creator>
   </cc:Work>
  </rdf:RDF>
 </metadata>
 <defs>
  <style type="text/css">*{stroke-linejoin: round; stroke-linecap: butt}</style>
 </defs>
 <g id="figure_1">
  <g id="patch_1">
   <path d="M 0 614.274375 
L 608.98125 614.274375 
L 608.98125 0 
L 0 0 
z
" style="fill: #ffffff"/>
  </g>
  <g id="axes_1">
   <g id="patch_2">
    <path d="M 43.78125 576.718125 
L 601.78125 576.718125 
L 601.78125 22.318125 
L 43.78125 22.318125 
z
" style="fill: #ffffff"/>
   </g>
   <g id="matplotlib.axis_1">
    <g id="xtick_1">
     <g id="line2d_1">
      <path d="M 69.144886 576.718125 
L 69.144886 22.318125 
" clip-path="url(#p7203e0d043)" style="fill: none; stroke: #b0b0b0; stroke-width: 0.8; stroke-linecap: square"/>
     </g>
     <g id="line2d_2">
      <defs>
       <path id="m5fe8f57618" d="M 0 0 
L 0 3.5 
" style="stroke: #000000; stroke-width: 0.8"/>
      </defs>
      <g>
       <use xlink:href="#m5fe8f57618" x="69.144886" y="576.718125" style="stroke: #000000; stroke-width: 0.8"/>
      </g>
     </g>
     <g id="text_1">
      <!-- 0 -->
      <g transform="translate(65.963636 591.316563) scale(0.1 -0.1)">
       <defs>
        <path id="DejaVuSans-30" d="M 2034 4250 
Q 1547 4250 1301 3770 
Q 1056 3291 1056 2328 
Q 1056 1369 1301 889 
Q 1547 409 2034 409 
Q 2525 409 2770 889 
Q 3016 1369 3016 2328 
Q 3016 3291 2770 3770 
Q 2525 4250 2034 4250 
z
M 2034 4750 
Q 2819 4750 3233 4129 
Q 3647 3509 3647 2328 
Q 3647 1150 3233 529 
Q 2819 -91 2034 -91 
Q 1250 -91 836 529 
Q 422 1150 422 2328 
Q 422 3509 836 4129 
Q 1250 4750 2034 4750 
z
" transform="scale(0.015625)"/>
       </defs>
       <use xlink:href="#DejaVuSans-30"/>
      </g>
     </g>
    </g>
    <g id="xtick_2">
     <g id="line2d_3">
      <path d="M 132.633338 576.718125 
L 132.633338 22.318125 
" clip-path="url(#p7203e0d043)" style="fill: none; stroke: #b0b0b0; stroke-width: 0.8; stroke-linecap: square"/>
     </g>
     <g id="line2d_4">
      <g>
       <use xlink:href="#m5fe8f57618" x="132.633338" y="576.718125" style="stroke: #000000; stroke-width: 0.8"/>
      </g>
     </g>
     <g id="text_2">
      <!-- 100 -->
      <g transform="translate(123.089588 591.316563) scale(0.1 -0.1)">
       <defs>
        <path id="DejaVuSans-31" d="M 794 531 
L 1825 531 
L 1825 4091 
L 703 3866 
L 703 4441 
L 1819 4666 
L 2450 4666 
L 2450 531 
L 3481 531 
L 3481 0 
L 794 0 
L 794 531 
z
" transform="scale(0.015625)"/>
       </defs>
       <use xlink:href="#DejaVuSans-31"/>
       <use xlink:href="#DejaVuSans-30" transform="translate(63.623047 0)"/>
       <use xlink:href="#DejaVuSans-30" transform="translate(127.246094 0)"/>
      </g>
     </g>
    </g>
    <g id="xtick_3">
     <g id="line2d_5">
      <path d="M 196.121789 576.718125 
L 196.121789 22.318125 
" clip-path="url(#p7203e0d043)" style="fill: none; stroke: #b0b0b0; stroke-width: 0.8; stroke-linecap: square"/>
     </g>
     <g id="line2d_6">
      <g>
       <use xlink:href="#m5fe8f57618" x="196.121789" y="576.718125" style="stroke: #000000; stroke-width: 0.8"/>
      </g>
     </g>
     <g id="text_3">
      <!-- 200 -->
      <g transform="translate(186.578039 591.316563) scale(0.1 -0.1)">
       <defs>
        <path id="DejaVuSans-32" d="M 1228 531 
L 3431 531 
L 3431 0 
L 469 0 
L 469 531 
Q 828 903 1448 1529 
Q 2069 2156 2228 2338 
Q 2531 2678 2651 2914 
Q 2772 3150 2772 3378 
Q 2772 3750 2511 3984 
Q 2250 4219 1831 4219 
Q 1534 4219 1204 4116 
Q 875 4013 500 3803 
L 500 4441 
Q 881 4594 1212 4672 
Q 1544 4750 1819 4750 
Q 2544 4750 2975 4387 
Q 3406 4025 3406 3419 
Q 3406 3131 3298 2873 
Q 3191 2616 2906 2266 
Q 2828 2175 2409 1742 
Q 1991 1309 1228 531 
z
" transform="scale(0.015625)"/>
       </defs>
       <use xlink:href="#DejaVuSans-32"/>
       <use xlink:href="#DejaVuSans-30" transform="translate(63.623047 0)"/>
       <use xlink:href="#DejaVuSans-30" transform="translate(127.246094 0)"/>
      </g>
     </g>
    </g>
    <g id="xtick_4">
     <g id="line2d_7">
      <path d="M 259.610241 576.718125 
L 259.610241 22.318125 
" clip-path="url(#p7203e0d043)" style="fill: none; stroke: #b0b0b0; stroke-width: 0.8; stroke-linecap: square"/>
     </g>
     <g id="line2d_8">
      <g>
       <use xlink:href="#m5fe8f57618" x="259.610241" y="576.718125" style="stroke: #000000; stroke-width: 0.8"/>
      </g>
     </g>
     <g id="text_4">
      <!-- 300 -->
      <g transform="translate(250.066491 591.316563) scale(0.1 -0.1)">
       <defs>
        <path id="DejaVuSans-33" d="M 2597 2516 
Q 3050 2419 3304 2112 
Q 3559 1806 3559 1356 
Q 3559 666 3084 287 
Q 2609 -91 1734 -91 
Q 1441 -91 1130 -33 
Q 819 25 488 141 
L 488 750 
Q 750 597 1062 519 
Q 1375 441 1716 441 
Q 2309 441 2620 675 
Q 2931 909 2931 1356 
Q 2931 1769 2642 2001 
Q 2353 2234 1838 2234 
L 1294 2234 
L 1294 2753 
L 1863 2753 
Q 2328 2753 2575 2939 
Q 2822 3125 2822 3475 
Q 2822 3834 2567 4026 
Q 2313 4219 1838 4219 
Q 1578 4219 1281 4162 
Q 984 4106 628 3988 
L 628 4550 
Q 988 4650 1302 4700 
Q 1616 4750 1894 4750 
Q 2613 4750 3031 4423 
Q 3450 4097 3450 3541 
Q 3450 3153 3228 2886 
Q 3006 2619 2597 2516 
z
" transform="scale(0.015625)"/>
       </defs>
       <use xlink:href="#DejaVuSans-33"/>
       <use xlink:href="#DejaVuSans-30" transform="translate(63.623047 0)"/>
       <use xlink:href="#DejaVuSans-30" transform="translate(127.246094 0)"/>
      </g>
     </g>
    </g>
    <g id="xtick_5">
     <g id="line2d_9">
      <path d="M 323.098692 576.718125 
L 323.098692 22.318125 
" clip-path="url(#p7203e0d043)" style="fill: none; stroke: #b0b0b0; stroke-width: 0.8; stroke-linecap: square"/>
     </g>
     <g id="line2d_10">
      <g>
       <use xlink:href="#m5fe8f57618" x="323.098692" y="576.718125" style="stroke: #000000; stroke-width: 0.8"/>
      </g>
     </g>
     <g id="text_5">
      <!-- 400 -->
      <g transform="translate(313.554942 591.316563) scale(0.1 -0.1)">
       <defs>
        <path id="DejaVuSans-34" d="M 2419 4116 
L 825 1625 
L 2419 1625 
L 2419 4116 
z
M 2253 4666 
L 3047 4666 
L 3047 1625 
L 3713 1625 
L 3713 1100 
L 3047 1100 
L 3047 0 
L 2419 0 
L 2419 1100 
L 313 1100 
L 313 1709 
L 2253 4666 
z
" transform="scale(0.015625)"/>
       </defs>
       <use xlink:href="#DejaVuSans-34"/>
       <use xlink:href="#DejaVuSans-30" transform="translate(63.623047 0)"/>
       <use xlink:href="#DejaVuSans-30" transform="translate(127.246094 0)"/>
      </g>
     </g>
    </g>
    <g id="xtick_6">
     <g id="line2d_11">
      <path d="M 386.587144 576.718125 
L 386.587144 22.318125 
" clip-path="url(#p7203e0d043)" style="fill: none; stroke: #b0b0b0; stroke-width: 0.8; stroke-linecap: square"/>
     </g>
     <g id="line2d_12">
      <g>
       <use xlink:href="#m5fe8f57618" x="386.587144" y="576.718125" style="stroke: #000000; stroke-width: 0.8"/>
      </g>
     </g>
     <g id="text_6">
      <!-- 500 -->
      <g transform="translate(377.043394 591.316563) scale(0.1 -0.1)">
       <defs>
        <path id="DejaVuSans-35" d="M 691 4666 
L 3169 4666 
L 3169 4134 
L 1269 4134 
L 1269 2991 
Q 1406 3038 1543 3061 
Q 1681 3084 1819 3084 
Q 2600 3084 3056 2656 
Q 3513 2228 3513 1497 
Q 3513 744 3044 326 
Q 2575 -91 1722 -91 
Q 1428 -91 1123 -41 
Q 819 9 494 109 
L 494 744 
Q 775 591 1075 516 
Q 1375 441 1709 441 
Q 2250 441 2565 725 
Q 2881 1009 2881 1497 
Q 2881 1984 2565 2268 
Q 2250 2553 1709 2553 
Q 1456 2553 1204 2497 
Q 953 2441 691 2322 
L 691 4666 
z
" transform="scale(0.015625)"/>
       </defs>
       <use xlink:href="#DejaVuSans-35"/>
       <use xlink:href="#DejaVuSans-30" transform="translate(63.623047 0)"/>
       <use xlink:href="#DejaVuSans-30" transform="translate(127.246094 0)"/>
      </g>
     </g>
    </g>
    <g id="xtick_7">
     <g id="line2d_13">
      <path d="M 450.075595 576.718125 
L 450.075595 22.318125 
" clip-path="url(#p7203e0d043)" style="fill: none; stroke: #b0b0b0; stroke-width: 0.8; stroke-linecap: square"/>
     </g>
     <g id="line2d_14">
      <g>
       <use xlink:href="#m5fe8f57618" x="450.075595" y="576.718125" style="stroke: #000000; stroke-width: 0.8"/>
      </g>
     </g>
     <g id="text_7">
      <!-- 600 -->
      <g transform="translate(440.531845 591.316563) scale(0.1 -0.1)">
       <defs>
        <path id="DejaVuSans-36" d="M 2113 2584 
Q 1688 2584 1439 2293 
Q 1191 2003 1191 1497 
Q 1191 994 1439 701 
Q 1688 409 2113 409 
Q 2538 409 2786 701 
Q 3034 994 3034 1497 
Q 3034 2003 2786 2293 
Q 2538 2584 2113 2584 
z
M 3366 4563 
L 3366 3988 
Q 3128 4100 2886 4159 
Q 2644 4219 2406 4219 
Q 1781 4219 1451 3797 
Q 1122 3375 1075 2522 
Q 1259 2794 1537 2939 
Q 1816 3084 2150 3084 
Q 2853 3084 3261 2657 
Q 3669 2231 3669 1497 
Q 3669 778 3244 343 
Q 2819 -91 2113 -91 
Q 1303 -91 875 529 
Q 447 1150 447 2328 
Q 447 3434 972 4092 
Q 1497 4750 2381 4750 
Q 2619 4750 2861 4703 
Q 3103 4656 3366 4563 
z
" transform="scale(0.015625)"/>
       </defs>
       <use xlink:href="#DejaVuSans-36"/>
       <use xlink:href="#DejaVuSans-30" transform="translate(63.623047 0)"/>
       <use xlink:href="#DejaVuSans-30" transform="translate(127.246094 0)"/>
      </g>
     </g>
    </g>
    <g id="xtick_8">
     <g id="line2d_15">
      <path d="M 513.564047 576.718125 
L 513.564047 22.318125 
" clip-path="url(#p7203e0d043)" style="fill: none; stroke: #b0b0b0; stroke-width: 0.8; stroke-linecap: square"/>
     </g>
     <g id="line2d_16">
      <g>
       <use xlink:href="#m5fe8f57618" x="513.564047" y="576.718125" style="stroke: #000000; stroke-width: 0.8"/>
      </g>
     </g>
     <g id="text_8">
      <!-- 700 -->
      <g transform="translate(504.020297 591.316563) scale(0.1 -0.1)">
       <defs>
        <path id="DejaVuSans-37" d="M 525 4666 
L 3525 4666 
L 3525 4397 
L 1831 0 
L 1172 0 
L 2766 4134 
L 525 4134 
L 525 4666 
z
" transform="scale(0.015625)"/>
       </defs>
       <use xlink:href="#DejaVuSans-37"/>
       <use xlink:href="#DejaVuSans-30" transform="translate(63.623047 0)"/>
       <use xlink:href="#DejaVuSans-30" transform="translate(127.246094 0)"/>
      </g>
     </g>
    </g>
    <g id="xtick_9">
     <g id="line2d_17">
      <path d="M 577.052498 576.718125 
L 577.052498 22.318125 
" clip-path="url(#p7203e0d043)" style="fill: none; stroke: #b0b0b0; stroke-width: 0.8; stroke-linecap: square"/>
     </g>
     <g id="line2d_18">
      <g>
       <use xlink:href="#m5fe8f57618" x="577.052498" y="576.718125" style="stroke: #000000; stroke-width: 0.8"/>
      </g>
     </g>
     <g id="text_9">
      <!-- 800 -->
      <g transform="translate(567.508748 591.316563) scale(0.1 -0.1)">
       <defs>
        <path id="DejaVuSans-38" d="M 2034 2216 
Q 1584 2216 1326 1975 
Q 1069 1734 1069 1313 
Q 1069 891 1326 650 
Q 1584 409 2034 409 
Q 2484 409 2743 651 
Q 3003 894 3003 1313 
Q 3003 1734 2745 1975 
Q 2488 2216 2034 2216 
z
M 1403 2484 
Q 997 2584 770 2862 
Q 544 3141 544 3541 
Q 544 4100 942 4425 
Q 1341 4750 2034 4750 
Q 2731 4750 3128 4425 
Q 3525 4100 3525 3541 
Q 3525 3141 3298 2862 
Q 3072 2584 2669 2484 
Q 3125 2378 3379 2068 
Q 3634 1759 3634 1313 
Q 3634 634 3220 271 
Q 2806 -91 2034 -91 
Q 1263 -91 848 271 
Q 434 634 434 1313 
Q 434 1759 690 2068 
Q 947 2378 1403 2484 
z
M 1172 3481 
Q 1172 3119 1398 2916 
Q 1625 2713 2034 2713 
Q 2441 2713 2670 2916 
Q 2900 3119 2900 3481 
Q 2900 3844 2670 4047 
Q 2441 4250 2034 4250 
Q 1625 4250 1398 4047 
Q 1172 3844 1172 3481 
z
" transform="scale(0.015625)"/>
       </defs>
       <use xlink:href="#DejaVuSans-38"/>
       <use xlink:href="#DejaVuSans-30" transform="translate(63.623047 0)"/>
       <use xlink:href="#DejaVuSans-30" transform="translate(127.246094 0)"/>
      </g>
     </g>
    </g>
    <g id="text_10">
     <!-- Epochs -->
     <g transform="translate(304.865625 604.994688) scale(0.1 -0.1)">
      <defs>
       <path id="DejaVuSans-45" d="M 628 4666 
L 3578 4666 
L 3578 4134 
L 1259 4134 
L 1259 2753 
L 3481 2753 
L 3481 2222 
L 1259 2222 
L 1259 531 
L 3634 531 
L 3634 0 
L 628 0 
L 628 4666 
z
" transform="scale(0.015625)"/>
       <path id="DejaVuSans-70" d="M 1159 525 
L 1159 -1331 
L 581 -1331 
L 581 3500 
L 1159 3500 
L 1159 2969 
Q 1341 3281 1617 3432 
Q 1894 3584 2278 3584 
Q 2916 3584 3314 3078 
Q 3713 2572 3713 1747 
Q 3713 922 3314 415 
Q 2916 -91 2278 -91 
Q 1894 -91 1617 61 
Q 1341 213 1159 525 
z
M 3116 1747 
Q 3116 2381 2855 2742 
Q 2594 3103 2138 3103 
Q 1681 3103 1420 2742 
Q 1159 2381 1159 1747 
Q 1159 1113 1420 752 
Q 1681 391 2138 391 
Q 2594 391 2855 752 
Q 3116 1113 3116 1747 
z
" transform="scale(0.015625)"/>
       <path id="DejaVuSans-6f" d="M 1959 3097 
Q 1497 3097 1228 2736 
Q 959 2375 959 1747 
Q 959 1119 1226 758 
Q 1494 397 1959 397 
Q 2419 397 2687 759 
Q 2956 1122 2956 1747 
Q 2956 2369 2687 2733 
Q 2419 3097 1959 3097 
z
M 1959 3584 
Q 2709 3584 3137 3096 
Q 3566 2609 3566 1747 
Q 3566 888 3137 398 
Q 2709 -91 1959 -91 
Q 1206 -91 779 398 
Q 353 888 353 1747 
Q 353 2609 779 3096 
Q 1206 3584 1959 3584 
z
" transform="scale(0.015625)"/>
       <path id="DejaVuSans-63" d="M 3122 3366 
L 3122 2828 
Q 2878 2963 2633 3030 
Q 2388 3097 2138 3097 
Q 1578 3097 1268 2742 
Q 959 2388 959 1747 
Q 959 1106 1268 751 
Q 1578 397 2138 397 
Q 2388 397 2633 464 
Q 2878 531 3122 666 
L 3122 134 
Q 2881 22 2623 -34 
Q 2366 -91 2075 -91 
Q 1284 -91 818 406 
Q 353 903 353 1747 
Q 353 2603 823 3093 
Q 1294 3584 2113 3584 
Q 2378 3584 2631 3529 
Q 2884 3475 3122 3366 
z
" transform="scale(0.015625)"/>
       <path id="DejaVuSans-68" d="M 3513 2113 
L 3513 0 
L 2938 0 
L 2938 2094 
Q 2938 2591 2744 2837 
Q 2550 3084 2163 3084 
Q 1697 3084 1428 2787 
Q 1159 2491 1159 1978 
L 1159 0 
L 581 0 
L 581 4863 
L 1159 4863 
L 1159 2956 
Q 1366 3272 1645 3428 
Q 1925 3584 2291 3584 
Q 2894 3584 3203 3211 
Q 3513 2838 3513 2113 
z
" transform="scale(0.015625)"/>
       <path id="DejaVuSans-73" d="M 2834 3397 
L 2834 2853 
Q 2591 2978 2328 3040 
Q 2066 3103 1784 3103 
Q 1356 3103 1142 2972 
Q 928 2841 928 2578 
Q 928 2378 1081 2264 
Q 1234 2150 1697 2047 
L 1894 2003 
Q 2506 1872 2764 1633 
Q 3022 1394 3022 966 
Q 3022 478 2636 193 
Q 2250 -91 1575 -91 
Q 1294 -91 989 -36 
Q 684 19 347 128 
L 347 722 
Q 666 556 975 473 
Q 1284 391 1588 391 
Q 1994 391 2212 530 
Q 2431 669 2431 922 
Q 2431 1156 2273 1281 
Q 2116 1406 1581 1522 
L 1381 1569 
Q 847 1681 609 1914 
Q 372 2147 372 2553 
Q 372 3047 722 3315 
Q 1072 3584 1716 3584 
Q 2034 3584 2315 3537 
Q 2597 3491 2834 3397 
z
" transform="scale(0.015625)"/>
      </defs>
      <use xlink:href="#DejaVuSans-45"/>
      <use xlink:href="#DejaVuSans-70" transform="translate(63.183594 0)"/>
      <use xlink:href="#DejaVuSans-6f" transform="translate(126.660156 0)"/>
      <use xlink:href="#DejaVuSans-63" transform="translate(187.841797 0)"/>
      <use xlink:href="#DejaVuSans-68" transform="translate(242.822266 0)"/>
      <use xlink:href="#DejaVuSans-73" transform="translate(306.201172 0)"/>
     </g>
    </g>
   </g>
   <g id="matplotlib.axis_2">
    <g id="ytick_1">
     <g id="line2d_19">
      <path d="M 43.78125 553.797462 
L 601.78125 553.797462 
" clip-path="url(#p7203e0d043)" style="fill: none; stroke: #b0b0b0; stroke-width: 0.8; stroke-linecap: square"/>
     </g>
     <g id="line2d_20">
      <defs>
       <path id="mfb5f083f38" d="M 0 0 
L -3.5 0 
" style="stroke: #000000; stroke-width: 0.8"/>
      </defs>
      <g>
       <use xlink:href="#mfb5f083f38" x="43.78125" y="553.797462" style="stroke: #000000; stroke-width: 0.8"/>
      </g>
     </g>
     <g id="text_11">
      <!-- 0.0 -->
      <g transform="translate(20.878125 557.59668) scale(0.1 -0.1)">
       <defs>
        <path id="DejaVuSans-2e" d="M 684 794 
L 1344 794 
L 1344 0 
L 684 0 
L 684 794 
z
" transform="scale(0.015625)"/>
       </defs>
       <use xlink:href="#DejaVuSans-30"/>
       <use xlink:href="#DejaVuSans-2e" transform="translate(63.623047 0)"/>
       <use xlink:href="#DejaVuSans-30" transform="translate(95.410156 0)"/>
      </g>
     </g>
    </g>
    <g id="ytick_2">
     <g id="line2d_21">
      <path d="M 43.78125 437.09543 
L 601.78125 437.09543 
" clip-path="url(#p7203e0d043)" style="fill: none; stroke: #b0b0b0; stroke-width: 0.8; stroke-linecap: square"/>
     </g>
     <g id="line2d_22">
      <g>
       <use xlink:href="#mfb5f083f38" x="43.78125" y="437.09543" style="stroke: #000000; stroke-width: 0.8"/>
      </g>
     </g>
     <g id="text_12">
      <!-- 0.2 -->
      <g transform="translate(20.878125 440.894649) scale(0.1 -0.1)">
       <use xlink:href="#DejaVuSans-30"/>
       <use xlink:href="#DejaVuSans-2e" transform="translate(63.623047 0)"/>
       <use xlink:href="#DejaVuSans-32" transform="translate(95.410156 0)"/>
      </g>
     </g>
    </g>
    <g id="ytick_3">
     <g id="line2d_23">
      <path d="M 43.78125 320.393399 
L 601.78125 320.393399 
" clip-path="url(#p7203e0d043)" style="fill: none; stroke: #b0b0b0; stroke-width: 0.8; stroke-linecap: square"/>
     </g>
     <g id="line2d_24">
      <g>
       <use xlink:href="#mfb5f083f38" x="43.78125" y="320.393399" style="stroke: #000000; stroke-width: 0.8"/>
      </g>
     </g>
     <g id="text_13">
      <!-- 0.4 -->
      <g transform="translate(20.878125 324.192618) scale(0.1 -0.1)">
       <use xlink:href="#DejaVuSans-30"/>
       <use xlink:href="#DejaVuSans-2e" transform="translate(63.623047 0)"/>
       <use xlink:href="#DejaVuSans-34" transform="translate(95.410156 0)"/>
      </g>
     </g>
    </g>
    <g id="ytick_4">
     <g id="line2d_25">
      <path d="M 43.78125 203.691368 
L 601.78125 203.691368 
" clip-path="url(#p7203e0d043)" style="fill: none; stroke: #b0b0b0; stroke-width: 0.8; stroke-linecap: square"/>
     </g>
     <g id="line2d_26">
      <g>
       <use xlink:href="#mfb5f083f38" x="43.78125" y="203.691368" style="stroke: #000000; stroke-width: 0.8"/>
      </g>
     </g>
     <g id="text_14">
      <!-- 0.6 -->
      <g transform="translate(20.878125 207.490586) scale(0.1 -0.1)">
       <use xlink:href="#DejaVuSans-30"/>
       <use xlink:href="#DejaVuSans-2e" transform="translate(63.623047 0)"/>
       <use xlink:href="#DejaVuSans-36" transform="translate(95.410156 0)"/>
      </g>
     </g>
    </g>
    <g id="ytick_5">
     <g id="line2d_27">
      <path d="M 43.78125 86.989336 
L 601.78125 86.989336 
" clip-path="url(#p7203e0d043)" style="fill: none; stroke: #b0b0b0; stroke-width: 0.8; stroke-linecap: square"/>
     </g>
     <g id="line2d_28">
      <g>
       <use xlink:href="#mfb5f083f38" x="43.78125" y="86.989336" style="stroke: #000000; stroke-width: 0.8"/>
      </g>
     </g>
     <g id="text_15">
      <!-- 0.8 -->
      <g transform="translate(20.878125 90.788555) scale(0.1 -0.1)">
       <use xlink:href="#DejaVuSans-30"/>
       <use xlink:href="#DejaVuSans-2e" transform="translate(63.623047 0)"/>
       <use xlink:href="#DejaVuSans-38" transform="translate(95.410156 0)"/>
      </g>
     </g>
    </g>
    <g id="text_16">
     <!-- Accuracy -->
     <g transform="translate(14.798438 322.34625) rotate(-90) scale(0.1 -0.1)">
      <defs>
       <path id="DejaVuSans-41" d="M 2188 4044 
L 1331 1722 
L 3047 1722 
L 2188 4044 
z
M 1831 4666 
L 2547 4666 
L 4325 0 
L 3669 0 
L 3244 1197 
L 1141 1197 
L 716 0 
L 50 0 
L 1831 4666 
z
" transform="scale(0.015625)"/>
       <path id="DejaVuSans-75" d="M 544 1381 
L 544 3500 
L 1119 3500 
L 1119 1403 
Q 1119 906 1312 657 
Q 1506 409 1894 409 
Q 2359 409 2629 706 
Q 2900 1003 2900 1516 
L 2900 3500 
L 3475 3500 
L 3475 0 
L 2900 0 
L 2900 538 
Q 2691 219 2414 64 
Q 2138 -91 1772 -91 
Q 1169 -91 856 284 
Q 544 659 544 1381 
z
M 1991 3584 
L 1991 3584 
z
" transform="scale(0.015625)"/>
       <path id="DejaVuSans-72" d="M 2631 2963 
Q 2534 3019 2420 3045 
Q 2306 3072 2169 3072 
Q 1681 3072 1420 2755 
Q 1159 2438 1159 1844 
L 1159 0 
L 581 0 
L 581 3500 
L 1159 3500 
L 1159 2956 
Q 1341 3275 1631 3429 
Q 1922 3584 2338 3584 
Q 2397 3584 2469 3576 
Q 2541 3569 2628 3553 
L 2631 2963 
z
" transform="scale(0.015625)"/>
       <path id="DejaVuSans-61" d="M 2194 1759 
Q 1497 1759 1228 1600 
Q 959 1441 959 1056 
Q 959 750 1161 570 
Q 1363 391 1709 391 
Q 2188 391 2477 730 
Q 2766 1069 2766 1631 
L 2766 1759 
L 2194 1759 
z
M 3341 1997 
L 3341 0 
L 2766 0 
L 2766 531 
Q 2569 213 2275 61 
Q 1981 -91 1556 -91 
Q 1019 -91 701 211 
Q 384 513 384 1019 
Q 384 1609 779 1909 
Q 1175 2209 1959 2209 
L 2766 2209 
L 2766 2266 
Q 2766 2663 2505 2880 
Q 2244 3097 1772 3097 
Q 1472 3097 1187 3025 
Q 903 2953 641 2809 
L 641 3341 
Q 956 3463 1253 3523 
Q 1550 3584 1831 3584 
Q 2591 3584 2966 3190 
Q 3341 2797 3341 1997 
z
" transform="scale(0.015625)"/>
       <path id="DejaVuSans-79" d="M 2059 -325 
Q 1816 -950 1584 -1140 
Q 1353 -1331 966 -1331 
L 506 -1331 
L 506 -850 
L 844 -850 
Q 1081 -850 1212 -737 
Q 1344 -625 1503 -206 
L 1606 56 
L 191 3500 
L 800 3500 
L 1894 763 
L 2988 3500 
L 3597 3500 
L 2059 -325 
z
" transform="scale(0.015625)"/>
      </defs>
      <use xlink:href="#DejaVuSans-41"/>
      <use xlink:href="#DejaVuSans-63" transform="translate(66.658203 0)"/>
      <use xlink:href="#DejaVuSans-63" transform="translate(121.638672 0)"/>
      <use xlink:href="#DejaVuSans-75" transform="translate(176.619141 0)"/>
      <use xlink:href="#DejaVuSans-72" transform="translate(239.998047 0)"/>
      <use xlink:href="#DejaVuSans-61" transform="translate(281.111328 0)"/>
      <use xlink:href="#DejaVuSans-63" transform="translate(342.390625 0)"/>
      <use xlink:href="#DejaVuSans-79" transform="translate(397.371094 0)"/>
     </g>
    </g>
   </g>
   <g id="line2d_29">
    <path d="M 69.144886 404.749524 
L 69.779771 397.128219 
L 70.414655 395.445775 
L 71.04954 394.463538 
L 72.319309 393.069594 
L 72.954193 392.132728 
L 73.589078 391.652956 
L 74.223962 390.479447 
L 74.858847 389.756546 
L 75.493732 388.852112 
L 76.128616 388.216735 
L 76.763501 386.71906 
L 77.398385 385.727084 
L 78.03327 384.968517 
L 78.668154 383.558365 
L 79.303039 382.670138 
L 80.572808 380.524113 
L 81.207692 379.866043 
L 81.842577 378.284096 
L 83.112346 376.144557 
L 83.74723 375.042364 
L 84.382115 374.698738 
L 85.016999 373.116791 
L 86.286768 370.996695 
L 86.921653 370.299722 
L 87.556537 368.464908 
L 88.191422 367.829531 
L 90.73096 363.466182 
L 91.365844 362.094932 
L 92.000729 361.53734 
L 93.270498 358.710568 
L 94.540267 357.190198 
L 95.810036 354.476878 
L 96.44492 353.779906 
L 97.079805 352.888427 
L 97.71469 351.442626 
L 98.349574 350.625715 
L 98.984459 349.546216 
L 99.619343 348.123092 
L 100.254228 347.160314 
L 100.889112 345.785812 
L 101.523997 344.745214 
L 102.158881 344.148739 
L 102.793766 343.001175 
L 103.42865 341.445157 
L 104.063535 340.910259 
L 104.698419 340.125763 
L 105.333304 338.566493 
L 105.968188 337.405956 
L 106.603073 336.491801 
L 107.237957 334.825548 
L 107.872842 334.4333 
L 108.507726 333.768742 
L 111.047264 328.870513 
L 111.682149 328.6987 
L 112.951918 326.484593 
L 114.856571 323.41144 
L 115.491456 322.588043 
L 116.12634 321.100089 
L 118.030994 318.082044 
L 118.665879 317.774085 
L 119.300763 316.269924 
L 121.205417 313.482052 
L 121.840301 312.869352 
L 122.475186 311.329541 
L 123.11007 310.778453 
L 123.744955 309.572529 
L 124.379839 308.791268 
L 125.014724 308.437921 
L 125.649608 306.697117 
L 126.284493 306.590134 
L 127.554262 304.055113 
L 128.189146 303.763361 
L 130.0938 300.696695 
L 130.728684 300.122913 
L 131.363569 299.069342 
L 131.998453 298.492326 
L 134.537991 295.062574 
L 135.172876 294.488793 
L 135.80776 293.247202 
L 136.442645 292.375182 
L 137.077529 291.253548 
L 137.712414 290.533882 
L 138.347298 289.389553 
L 138.982183 288.981097 
L 139.617067 287.966446 
L 140.251952 287.668208 
L 141.521721 285.535156 
L 142.79149 283.988841 
L 143.426375 283.184903 
L 144.061259 281.917384 
L 144.696144 281.722877 
L 145.331028 280.662837 
L 146.600797 279.087359 
L 147.235682 278.108357 
L 147.870566 277.528089 
L 149.140335 275.797023 
L 151.679873 272.568264 
L 152.949642 271.145139 
L 154.219411 269.388128 
L 154.854296 269.063961 
L 155.48918 268.039571 
L 156.124065 267.349086 
L 157.393834 265.319764 
L 158.028718 264.885381 
L 158.663603 264.03929 
L 159.298487 263.763746 
L 160.568256 261.928931 
L 161.203141 261.394051 
L 161.838026 260.26266 
L 162.47291 260.038991 
L 163.107795 259.141043 
L 164.377564 258.136112 
L 165.012448 256.904242 
L 165.647333 256.148927 
L 166.282217 255.672407 
L 167.551986 253.870007 
L 168.186871 253.41293 
L 168.821755 252.291278 
L 169.45664 251.89903 
L 170.091524 251.192337 
L 170.726409 251.056173 
L 171.361293 249.707617 
L 171.996178 249.094934 
L 172.631062 248.783723 
L 173.265947 247.91819 
L 173.900831 247.493527 
L 175.805485 245.448016 
L 176.440369 244.452789 
L 177.075254 244.09619 
L 177.710138 242.77358 
L 178.979907 242.287322 
L 179.614792 241.113813 
L 180.249676 240.711861 
L 181.519445 239.515641 
L 182.789215 238.238418 
L 184.693868 236.260971 
L 185.963637 235.16203 
L 186.598522 234.662799 
L 187.233406 233.946368 
L 187.868291 233.492524 
L 189.13806 231.968921 
L 189.772944 231.171452 
L 190.407829 230.918602 
L 191.677598 229.323665 
L 192.312482 228.954128 
L 192.947367 228.714216 
L 195.486905 225.757784 
L 196.121789 225.673478 
L 196.756674 224.678285 
L 197.391558 224.344398 
L 198.026443 223.504776 
L 198.661327 223.268134 
L 199.296212 222.752695 
L 199.931096 221.812594 
L 200.565981 221.433319 
L 201.200865 220.70068 
L 202.470634 219.864328 
L 203.105519 219.53044 
L 203.740403 218.901515 
L 204.375288 217.867439 
L 205.010173 217.306613 
L 205.645057 217.413596 
L 206.279942 216.353539 
L 207.549711 215.131407 
L 208.184595 214.560877 
L 208.81948 214.547904 
L 209.454364 213.944925 
L 210.724133 212.275454 
L 211.993902 211.390445 
L 216.438094 207.954224 
L 217.707863 207.114637 
L 218.342747 206.297726 
L 220.247401 204.919989 
L 220.882285 204.845421 
L 221.51717 203.487126 
L 222.152054 203.607082 
L 223.421823 202.553529 
L 224.056708 201.636104 
L 225.326477 201.198469 
L 225.961362 200.170861 
L 226.596246 199.798055 
L 227.231131 199.723487 
L 228.5009 198.436526 
L 229.135784 198.076693 
L 230.405553 197.133357 
L 231.040438 196.692487 
L 231.675322 196.099246 
L 232.310207 195.22074 
L 232.945091 195.048927 
L 234.21486 194.008347 
L 234.849745 193.654983 
L 235.484629 193.525324 
L 236.119514 193.272474 
L 236.754398 192.617637 
L 237.389283 192.137883 
L 238.024167 190.935194 
L 238.659052 190.954636 
L 239.293936 190.059922 
L 240.563705 189.356464 
L 241.19859 189.304607 
L 242.468359 187.956051 
L 243.103243 188.092179 
L 243.738128 187.281772 
L 244.373012 186.895993 
L 245.007897 185.822998 
L 245.642781 185.93645 
L 248.18232 184.007626 
L 249.452089 183.38197 
L 250.086973 182.516437 
L 250.721858 182.532644 
L 251.356742 181.793536 
L 252.626511 180.590847 
L 253.261396 180.866408 
L 253.89628 179.851739 
L 254.531165 179.702603 
L 255.166049 178.957026 
L 256.435818 178.298955 
L 257.070703 178.123907 
L 257.705587 177.089796 
L 258.340472 176.937425 
L 258.975356 176.639188 
L 259.610241 175.718529 
L 260.245125 175.430029 
L 260.88001 174.814112 
L 261.514894 174.645533 
L 262.149779 174.327854 
L 262.784663 173.883714 
L 263.419548 173.585476 
L 264.054432 172.632402 
L 265.324201 172.100791 
L 265.959086 171.640444 
L 267.228855 171.261169 
L 268.498624 169.883433 
L 269.133509 168.978981 
L 271.038162 168.06806 
L 271.673047 167.400286 
L 272.942816 167.18632 
L 273.5777 166.405058 
L 274.212585 166.230011 
L 275.482354 165.124601 
L 276.117238 165.111628 
L 277.387007 164.116401 
L 278.021892 163.879758 
L 278.656776 163.390266 
L 279.291661 162.573355 
L 280.56143 162.3821 
L 281.831199 160.949237 
L 282.466083 160.920057 
L 283.100968 160.689918 
L 283.735852 160.180949 
L 284.370737 159.843827 
L 285.005621 159.1339 
L 285.640506 158.968556 
L 286.27539 158.206737 
L 286.910275 157.940914 
L 287.545159 157.869615 
L 290.084697 155.931052 
L 291.989351 155.243801 
L 292.624236 154.281023 
L 293.25912 154.148129 
L 293.894005 153.661871 
L 294.528889 153.431698 
L 295.163774 153.376572 
L 295.798658 152.731474 
L 297.068427 151.888617 
L 297.703312 151.152779 
L 298.973081 150.598421 
L 300.24285 150.245092 
L 300.877734 149.418443 
L 301.512619 149.392497 
L 302.147503 148.945158 
L 302.782388 148.653389 
L 303.417272 147.949931 
L 304.052157 147.564187 
L 304.687041 147.817037 
L 305.321926 146.795899 
L 305.95681 146.669474 
L 306.591695 145.949808 
L 307.226579 145.427865 
L 311.035886 143.891289 
L 311.670771 143.268902 
L 312.305656 143.006314 
L 312.94054 142.597858 
L 313.575425 142.050005 
L 314.210309 142.066213 
L 315.480078 141.495683 
L 316.114963 140.626881 
L 316.749847 140.12765 
L 317.384732 140.218425 
L 318.019616 139.748375 
L 318.654501 139.518201 
L 319.289385 139.122719 
L 319.92427 139.044916 
L 320.559154 138.185852 
L 321.194039 137.971921 
L 321.828923 136.944279 
L 322.463808 137.505105 
L 323.098692 136.889187 
L 323.733577 136.853538 
L 325.003346 135.495243 
L 325.63823 135.560073 
L 326.273115 135.151618 
L 326.907999 135.239159 
L 327.542884 134.344411 
L 328.177768 134.422213 
L 328.812653 134.072119 
L 329.447537 133.031538 
L 330.082422 133.248739 
L 330.717306 133.0218 
L 331.352191 132.337818 
L 331.987075 132.363729 
L 332.62196 131.673243 
L 333.256844 131.462547 
L 333.891729 130.885513 
L 334.526614 131.044353 
L 335.161498 130.314949 
L 337.701036 129.277603 
L 338.335921 128.681127 
L 338.970805 129.053933 
L 339.60569 127.838306 
L 340.875459 127.65352 
L 342.145228 126.86252 
L 342.780112 126.920881 
L 343.414997 126.175269 
L 344.684766 125.896508 
L 345.31965 125.170338 
L 345.954535 125.108743 
L 346.589419 124.761883 
L 347.224304 124.103812 
L 347.859188 124.139496 
L 348.494073 123.283667 
L 349.128957 123.377677 
L 349.763842 122.910861 
L 351.033611 122.745552 
L 351.668495 121.786009 
L 352.30338 122.262529 
L 352.938264 121.043632 
L 353.573149 121.380788 
L 354.842918 120.207279 
L 355.477803 120.13918 
L 356.112687 119.691841 
L 356.747572 119.575154 
L 358.017341 118.842515 
L 358.652225 119.111573 
L 359.28711 118.323842 
L 359.921994 118.382168 
L 360.556879 117.51987 
L 361.191763 116.923394 
L 362.461532 117.049819 
L 363.096417 116.719167 
L 364.366186 115.850399 
L 365.00107 115.607253 
L 365.635955 114.783873 
L 366.270839 114.657448 
L 366.905724 114.855172 
L 367.540608 114.809819 
L 368.175493 114.501843 
L 368.810377 113.915105 
L 369.445262 113.675194 
L 370.715031 112.987942 
L 371.9848 112.391467 
L 372.619684 112.161328 
L 373.254569 112.11594 
L 373.889453 111.778784 
L 374.524338 111.004027 
L 376.428991 110.718762 
L 377.063876 109.68465 
L 377.698761 110.080133 
L 378.333645 109.824048 
L 378.96853 109.2146 
L 379.603414 109.56146 
L 380.238299 108.436573 
L 380.873183 108.342563 
L 381.508068 108.060533 
L 382.142952 107.54186 
L 382.777837 107.22418 
L 383.412721 107.146377 
L 384.047606 107.217676 
L 384.68249 106.381324 
L 385.317375 106.183565 
L 385.952259 106.423477 
L 386.587144 105.778379 
L 387.222028 105.353681 
L 387.856913 105.194842 
L 388.491797 104.747502 
L 389.126682 104.689142 
L 389.761566 104.261244 
L 390.396451 104.170469 
L 391.66622 103.557786 
L 392.301104 103.528605 
L 392.935989 102.919157 
L 393.570873 103.077997 
L 394.205758 102.663072 
L 394.840642 102.61445 
L 395.475527 102.26759 
L 396.110411 101.628961 
L 396.745296 101.645169 
L 397.38018 100.679122 
L 398.015065 100.860673 
L 398.64995 100.416568 
L 399.284834 100.669418 
L 399.919719 100.095619 
L 400.554603 100.069673 
L 401.824372 99.340304 
L 402.459257 99.288447 
L 403.094141 98.785981 
L 404.36391 98.354815 
L 404.998795 97.803727 
L 405.633679 98.037135 
L 406.268564 97.544373 
L 406.903448 97.758339 
L 408.173217 96.58483 
L 409.442986 95.959174 
L 410.077871 96.565388 
L 410.712755 95.398383 
L 411.34764 95.424294 
L 412.617409 95.327049 
L 413.252293 94.675447 
L 413.887178 94.442074 
L 414.522062 94.040088 
L 415.156947 93.96552 
L 415.791831 94.12436 
L 416.426716 93.664047 
L 417.696485 93.116194 
L 418.331369 92.947616 
L 420.236023 92.026957 
L 420.870908 91.85191 
L 421.505792 91.855179 
L 422.140677 91.586087 
L 422.775561 90.821068 
L 423.410446 90.911808 
L 424.04533 90.308864 
L 424.680215 89.910112 
L 425.315099 90.548741 
L 425.949984 89.70265 
L 426.584868 89.51463 
L 427.219753 89.761011 
L 427.854637 89.06729 
L 428.489522 89.26178 
L 429.124406 88.778756 
L 429.759291 89.336348 
L 430.394175 88.431896 
L 431.02906 87.955376 
L 431.663944 87.673346 
L 432.933713 87.420496 
L 433.568598 86.908292 
L 434.203482 86.684623 
L 434.838367 87.008771 
L 435.473251 86.328024 
L 436.108136 86.276167 
L 436.74302 85.887154 
L 437.377905 85.97793 
L 438.012789 85.316624 
L 438.647674 85.352274 
L 439.282558 85.105893 
L 439.917443 85.209641 
L 440.552327 84.765502 
L 441.187212 83.737894 
L 441.822097 84.360316 
L 443.091866 84.17553 
L 443.72675 83.906473 
L 444.361635 83.358619 
L 444.996519 83.536901 
L 445.631404 82.953399 
L 446.266288 82.911245 
L 446.901173 82.389338 
L 447.536057 82.032739 
L 448.170942 82.042478 
L 448.805826 81.449237 
L 449.440711 81.747475 
L 450.075595 81.27092 
L 451.980249 80.70039 
L 452.615133 80.723102 
L 453.250018 80.191456 
L 455.154671 80.120122 
L 456.42444 79.475024 
L 457.059325 78.836396 
L 457.694209 79.325888 
L 458.329094 78.771566 
L 458.963978 78.42794 
L 459.598863 78.320957 
L 460.233747 78.554365 
L 460.868632 77.776373 
L 461.503516 77.961124 
L 462.773285 77.241458 
L 463.40817 77.238224 
L 464.677939 76.865453 
L 465.312824 76.207382 
L 465.947708 76.340276 
L 466.582593 76.31433 
L 467.217477 75.510392 
L 468.487246 75.419617 
L 469.122131 74.839349 
L 469.757015 74.917151 
L 470.3919 74.764815 
L 471.026784 74.800465 
L 471.661669 74.210458 
L 472.296553 74.567057 
L 473.566322 73.776057 
L 474.201207 73.338456 
L 475.470976 73.481089 
L 476.10586 73.691785 
L 477.375629 72.281634 
L 478.010514 72.615521 
L 478.645398 72.24275 
L 479.280283 72.067702 
L 479.915167 71.484165 
L 480.550052 71.866709 
L 481.184936 71.617094 
L 481.819821 71.792141 
L 482.454705 70.680227 
L 483.08959 70.971996 
L 483.724474 71.007645 
L 484.359359 70.310656 
L 484.994244 70.50518 
L 485.629128 69.827667 
L 486.264013 70.25233 
L 486.898897 69.668827 
L 487.533782 69.266841 
L 488.168666 69.412708 
L 488.803551 69.393266 
L 489.438435 69.156623 
L 490.07332 69.14365 
L 490.708204 68.99128 
L 491.343089 68.430488 
L 491.977973 68.23273 
L 492.612858 68.281352 
L 493.247742 68.034971 
L 493.882627 67.623281 
L 494.517511 66.780425 
L 495.152396 66.910119 
L 495.78728 66.806371 
L 496.422165 67.153231 
L 497.057049 67.052752 
L 497.691934 66.24231 
L 498.326818 66.446538 
L 498.961703 66.514602 
L 499.596587 66.021875 
L 500.231472 66.028344 
L 500.866356 66.21313 
L 501.501241 65.623123 
L 502.136125 64.835393 
L 502.77101 65.415661 
L 503.405894 64.741383 
L 504.040779 64.848366 
L 504.675663 64.601985 
L 505.310548 64.537155 
L 505.945433 64.242152 
L 506.580317 64.206502 
L 507.215202 63.590585 
L 507.850086 63.366915 
L 508.484971 64.03469 
L 509.119855 63.204806 
L 510.389624 63.208041 
L 511.024509 62.410607 
L 511.659393 62.212848 
L 512.294278 62.543501 
L 512.929162 62.339273 
L 513.564047 62.543501 
L 514.198931 62.520824 
L 514.833816 61.535335 
L 515.4687 61.619607 
L 516.103585 61.402406 
L 516.738469 61.036104 
L 518.008238 60.660064 
L 518.643123 61.211152 
L 519.278007 60.663298 
L 521.182661 59.898245 
L 521.817545 60.348853 
L 522.45243 59.820442 
L 523.087314 59.661602 
L 523.722199 59.629187 
L 524.357083 59.476816 
L 524.991968 59.593538 
L 525.626852 59.253147 
L 526.261737 59.068361 
L 526.896621 58.659906 
L 527.531506 58.501066 
L 528.166391 58.458947 
L 528.801275 58.232008 
L 529.43616 58.403821 
L 530.071044 58.115322 
L 530.705929 57.703597 
L 531.975698 57.531784 
L 532.610582 57.139537 
L 533.245467 57.013112 
L 534.515236 56.251327 
L 535.15012 56.48797 
L 535.785005 56.578745 
L 536.419889 55.98227 
L 537.054774 56.594953 
L 537.689658 55.849341 
L 538.959427 56.030892 
L 539.594312 55.288515 
L 540.229196 55.654851 
L 541.498965 55.437651 
L 542.13385 55.012988 
L 542.768734 55.03243 
L 543.403619 54.478108 
L 544.038503 54.675832 
L 544.673388 54.724454 
L 545.308272 54.095564 
L 545.943157 54.662859 
L 546.578041 54.303026 
L 547.212926 53.771415 
L 547.84781 53.998319 
L 548.482695 53.301364 
L 549.11758 53.654693 
L 549.752464 53.2365 
L 550.387349 53.155462 
L 551.022233 52.510365 
L 552.292002 52.951235 
L 552.926887 52.610878 
L 553.561771 52.766449 
L 554.196656 52.306137 
L 554.83154 52.549283 
L 555.466425 52.163504 
L 556.101309 51.917124 
L 556.736194 51.865267 
L 557.371078 52.037079 
L 558.005963 51.382243 
L 558.640847 51.641597 
L 559.275732 50.623693 
L 559.910616 50.727407 
L 560.545501 51.18125 
L 561.81527 50.64637 
L 562.450154 50.400024 
L 563.085039 50.947842 
L 563.719923 50.114724 
L 564.354808 50.39352 
L 565.624577 49.518248 
L 566.259461 49.631735 
L 566.894346 50.19903 
L 567.52923 49.362643 
L 568.164115 49.47613 
L 569.433884 49.440446 
L 570.068768 48.785644 
L 570.703653 48.756464 
L 571.338538 48.860178 
L 571.973422 48.805086 
L 572.608307 48.351243 
L 573.243191 48.438749 
L 574.51296 48.302621 
L 575.147845 47.628343 
L 575.782729 47.518125 
L 576.417614 47.871454 
L 576.417614 47.871454 
" clip-path="url(#p7203e0d043)" style="fill: none; stroke: #1f77b4; stroke-width: 1.5; stroke-linecap: square"/>
   </g>
   <g id="line2d_30">
    <path d="M 69.144886 399.371506 
L 69.779771 397.445916 
L 70.414655 397.737667 
L 71.04954 396.716529 
L 71.684424 398.058599 
L 72.319309 397.825191 
L 72.954193 398.11696 
L 73.589078 397.124984 
L 74.223962 398.992214 
L 74.858847 398.671282 
L 76.128616 398.729643 
L 77.398385 397.620963 
L 78.03327 398.087779 
L 78.668154 401.384602 
L 79.303039 399.429849 
L 79.937923 402.493282 
L 80.572808 403.456077 
L 81.207692 399.050574 
L 81.842577 400.684396 
L 82.477461 402.930917 
L 83.112346 403.456077 
L 83.74723 405.148241 
L 84.382115 404.652262 
L 85.016999 403.631124 
L 85.651884 403.893695 
L 86.286768 404.739786 
L 86.921653 404.973194 
L 87.556537 405.819285 
L 88.191422 404.739786 
L 88.826306 403.922875 
L 90.096075 407.044651 
L 90.73096 407.365583 
L 91.365844 405.323306 
L 92.000729 407.56981 
L 92.635613 406.140217 
L 93.270498 408.38673 
L 93.905382 407.015488 
L 94.540267 406.519492 
L 95.175151 408.299206 
L 95.810036 407.56981 
L 97.079805 407.365583 
L 97.71469 407.919922 
L 98.349574 407.365583 
L 98.984459 408.299206 
L 99.619343 406.869604 
L 100.254228 409.699628 
L 100.889112 408.999413 
L 101.523997 409.232821 
L 102.158881 411.216754 
L 102.793766 408.707661 
L 103.42865 408.065798 
L 104.063535 408.707661 
L 104.698419 407.686514 
L 105.333304 407.686514 
L 106.603073 410.049731 
L 107.237957 409.086945 
L 107.872842 409.203649 
L 108.507726 409.991379 
L 109.142611 408.15333 
L 109.777495 410.691595 
L 110.41238 410.224787 
L 111.047264 410.720775 
L 111.682149 409.641276 
L 112.317033 411.596038 
L 112.951918 411.537686 
L 113.586802 411.858617 
L 114.221687 410.545719 
L 114.856571 410.574891 
L 115.491456 412.062845 
L 116.12634 413.259039 
L 116.761225 411.683561 
L 117.396109 409.7288 
L 118.030994 412.004493 
L 118.665879 412.4713 
L 119.300763 412.558824 
L 119.935648 412.325425 
L 120.570532 413.28822 
L 121.205417 412.033665 
L 121.840301 413.755027 
L 122.475186 413.550799 
L 123.11007 414.426062 
L 123.744955 413.02564 
L 124.379839 413.930074 
L 125.014724 416.760099 
L 125.649608 413.200687 
L 126.284493 415.70978 
L 126.919377 415.914008 
L 127.554262 415.914008 
L 128.189146 414.251006 
L 128.824031 414.951221 
L 130.0938 414.192654 
L 130.728684 414.980393 
L 131.363569 414.776165 
L 131.998453 417.63537 
L 132.633338 414.834517 
L 133.268222 416.322472 
L 133.903107 417.431134 
L 134.537991 415.330505 
L 135.172876 417.460314 
L 135.80776 418.248053 
L 136.442645 415.563904 
L 137.077529 418.014645 
L 137.712414 418.831564 
L 138.347298 416.409995 
L 138.982183 418.306405 
L 139.617067 417.89795 
L 140.251952 416.643403 
L 140.886837 417.868769 
L 141.521721 416.760099 
L 142.156606 416.847631 
L 142.79149 418.627337 
L 143.426375 417.577018 
L 144.061259 418.306405 
L 144.696144 418.71486 
L 145.331028 420.698794 
L 145.965913 418.773212 
L 146.600797 417.781246 
L 147.870566 419.415076 
L 148.505451 419.415076 
L 149.140335 418.831564 
L 149.77522 418.71486 
L 150.410104 419.298372 
L 151.679873 418.71486 
L 152.949642 420.436214 
L 153.584527 418.306405 
L 154.219411 417.285258 
L 154.854296 419.765179 
L 155.48918 419.502599 
L 156.124065 418.539804 
L 156.758949 420.932202 
L 157.393834 422.157568 
L 158.028718 421.457361 
L 158.663603 421.048897 
L 159.298487 420.115282 
L 159.933372 419.473428 
L 160.568256 421.165601 
L 161.203141 419.619304 
L 161.838026 420.932202 
L 162.47291 420.231986 
L 163.107795 418.072997 
L 163.742679 422.303443 
L 164.377564 421.13643 
L 165.012448 421.194782 
L 165.647333 420.494566 
L 166.282217 421.340657 
L 166.917102 420.640442 
L 167.551986 419.006612 
L 168.186871 421.574056 
L 168.821755 421.428181 
L 169.45664 420.727974 
L 170.091524 421.807465 
L 170.726409 419.123316 
L 171.361293 418.860736 
L 171.996178 420.202815 
L 172.631062 422.157568 
L 173.265947 420.757146 
L 173.900831 423.878921 
L 174.535716 421.574056 
L 175.1706 421.223953 
L 175.805485 420.377862 
L 176.440369 421.894988 
L 177.075254 421.223953 
L 177.710138 423.557999 
L 178.345023 421.486533 
L 178.979907 421.95334 
L 179.614792 421.865817 
L 180.249676 422.186748 
L 180.884561 421.340657 
L 181.519445 421.165601 
L 182.15433 421.719941 
L 182.789215 422.886955 
L 183.424099 421.223953 
L 184.058984 419.969407 
L 184.693868 422.186748 
L 185.328753 423.703874 
L 185.963637 421.486533 
L 186.598522 421.603237 
L 187.233406 421.311477 
L 187.868291 421.340657 
L 188.503175 422.390976 
L 189.772944 421.457361 
L 190.407829 421.399009 
L 191.042713 419.852703 
L 191.677598 423.995625 
L 192.947367 422.070044 
L 193.582251 421.399009 
L 194.85202 424.287386 
L 195.486905 423.878921 
L 196.121789 422.478499 
L 196.756674 422.653556 
L 197.391558 423.791398 
L 198.026443 422.711908 
L 198.661327 422.420147 
L 199.296212 422.974487 
L 199.931096 424.170682 
L 200.565981 422.157568 
L 201.200865 422.186748 
L 201.83575 423.499647 
L 202.470634 422.420147 
L 203.105519 421.894988 
L 204.375288 422.886955 
L 205.010173 423.645522 
L 205.645057 422.449328 
L 206.279942 422.157568 
L 206.914826 422.624375 
L 208.184595 424.024806 
L 209.454364 424.199853 
L 210.089249 423.84975 
L 210.724133 425.19182 
L 211.359018 423.412114 
L 211.993902 423.557999 
L 212.628787 424.170682 
L 213.263671 423.995625 
L 213.898556 423.674694 
L 214.53344 422.50768 
L 215.168325 424.754193 
L 215.803209 426.154615 
L 216.438094 423.528818 
L 217.072978 423.032839 
L 217.707863 424.374909 
L 218.342747 422.478499 
L 218.977632 424.900069 
L 219.612516 424.024806 
L 220.882285 421.194782 
L 221.51717 424.141501 
L 222.152054 424.229034 
L 222.786939 424.491613 
L 223.421823 424.141501 
L 224.056708 424.812545 
L 224.691592 422.886955 
L 225.326477 425.454399 
L 225.961362 423.237067 
L 226.596246 425.571104 
L 227.231131 422.50768 
L 227.866015 424.491613 
L 228.5009 424.083158 
L 229.770669 426.183786 
L 230.405553 422.449328 
L 231.040438 425.279352 
L 231.675322 423.733046 
L 232.310207 424.258205 
L 232.945091 423.762226 
L 233.579976 425.016773 
L 234.21486 423.995625 
L 234.849745 426.82565 
L 235.484629 424.608317 
L 236.119514 425.600284 
L 236.754398 424.287386 
L 237.389283 424.695841 
L 238.024167 424.66666 
L 238.659052 423.616342 
L 239.293936 423.937273 
L 239.928821 424.870888 
L 240.563705 426.008739 
L 241.19859 424.024806 
L 241.833474 425.454399 
L 242.468359 426.358843 
L 243.103243 424.053978 
L 243.738128 425.133468 
L 244.373012 424.900069 
L 245.007897 426.125443 
L 245.642781 423.84975 
L 246.277666 424.404081 
L 246.91255 425.658627 
L 247.547435 425.74616 
L 248.18232 425.308524 
L 249.452089 425.892035 
L 250.086973 427.467513 
L 250.721858 425.687808 
L 251.356742 427.525865 
L 251.991627 425.337704 
L 252.626511 425.74616 
L 253.261396 425.833683 
L 253.89628 429.247219 
L 254.531165 426.738126 
L 255.166049 424.987592 
L 255.800934 427.934321 
L 256.435818 427.000706 
L 257.070703 428.780412 
L 258.340472 427.292457 
L 259.610241 426.388023 
L 260.245125 428.45948 
L 260.88001 427.263286 
L 261.514894 426.504718 
L 262.149779 426.942354 
L 262.784663 425.716979 
L 263.419548 425.600284 
L 264.054432 427.700913 
L 264.689317 426.621422 
L 265.959086 426.971526 
L 267.228855 428.080196 
L 267.863739 429.976606 
L 268.498624 427.613389 
L 269.133509 427.759265 
L 269.768393 427.642569 
L 270.403278 426.533899 
L 271.038162 428.430308 
L 271.673047 426.679774 
L 272.307931 428.634536 
L 272.942816 427.292457 
L 273.5777 428.72206 
L 274.212585 427.029878 
L 274.847469 427.934321 
L 275.482354 430.09331 
L 276.117238 428.284424 
L 276.752123 427.029878 
L 277.387007 428.547004 
L 278.021892 428.838764 
L 278.656776 426.913182 
L 279.291661 428.167729 
L 279.926545 427.555037 
L 280.56143 426.417195 
L 281.196314 428.226072 
L 281.831199 427.875969 
L 282.466083 427.788445 
L 283.735852 428.138548 
L 284.370737 428.663708 
L 285.005621 428.226072 
L 285.640506 429.772378 
L 286.27539 426.56307 
L 286.910275 427.788445 
L 287.545159 430.385061 
L 288.180044 430.09331 
L 289.449813 427.934321 
L 290.084697 428.897116 
L 290.719582 428.080196 
L 291.354467 430.326709 
L 291.989351 427.350809 
L 292.624236 430.910221 
L 293.25912 430.297538 
L 293.894005 427.234105 
L 294.528889 429.130515 
L 295.163774 429.218047 
L 295.798658 427.321638 
L 296.433543 427.438342 
L 297.068427 428.080196 
L 297.703312 429.247219 
L 298.338196 428.955468 
L 298.973081 428.284424 
L 299.607965 428.517832 
L 300.24285 430.560117 
L 300.877734 427.525865 
L 301.512619 429.859902 
L 302.147503 427.730093 
L 302.782388 428.692888 
L 303.417272 428.401128 
L 304.052157 428.72206 
L 304.687041 430.005786 
L 305.321926 431.668788 
L 305.95681 428.692888 
L 306.591695 427.934321 
L 307.226579 426.85483 
L 307.861464 427.875969 
L 308.496348 429.393095 
L 309.131233 429.918254 
L 309.766117 427.759265 
L 310.401002 429.013811 
L 311.035886 427.963492 
L 312.305656 428.897116 
L 312.94054 428.021844 
L 313.575425 427.613389 
L 314.210309 429.072163 
L 314.845194 430.09331 
L 315.480078 427.759265 
L 316.114963 428.255252 
L 316.749847 431.785492 
L 317.384732 429.393095 
L 318.019616 430.151662 
L 318.654501 429.597322 
L 319.92427 428.080196 
L 320.559154 430.939401 
L 321.194039 429.568151 
L 321.828923 428.576184 
L 322.463808 431.347856 
L 323.098692 428.576184 
L 323.733577 430.326709 
L 324.368461 428.371956 
L 325.003346 427.992673 
L 325.63823 430.297538 
L 326.273115 429.363923 
L 327.542884 428.926287 
L 328.177768 429.451447 
L 328.812653 429.83073 
L 329.447537 428.926287 
L 330.082422 430.06413 
L 330.717306 429.363923 
L 331.352191 431.085277 
L 331.987075 427.613389 
L 332.62196 428.371956 
L 333.256844 429.976606 
L 333.891729 428.838764 
L 334.526614 429.889082 
L 335.161498 429.130515 
L 335.796383 428.780412 
L 336.431267 430.122482 
L 337.066152 429.422275 
L 337.701036 430.793517 
L 340.240574 426.446366 
L 340.875459 429.247219 
L 341.510343 430.705993 
L 342.145228 429.743207 
L 342.780112 428.576184 
L 343.414997 429.334743 
L 344.049881 428.430308 
L 344.684766 429.83073 
L 345.31965 430.180834 
L 345.954535 430.968573 
L 346.589419 429.714026 
L 347.224304 428.897116 
L 347.859188 429.451447 
L 348.494073 427.905149 
L 349.128957 429.655674 
L 349.763842 427.875969 
L 350.398726 429.188867 
L 351.033611 427.525865 
L 351.668495 431.43538 
L 352.30338 430.647641 
L 352.938264 431.377028 
L 353.573149 428.72206 
L 354.208033 428.663708 
L 354.842918 430.881049 
L 355.477803 427.321638 
L 356.112687 429.130515 
L 356.747572 429.159695 
L 357.382456 429.684855 
L 358.017341 430.034958 
L 358.652225 426.942354 
L 359.28711 426.125443 
L 359.921994 429.393095 
L 360.556879 428.663708 
L 361.191763 429.976606 
L 361.826648 431.814664 
L 362.461532 429.072163 
L 363.096417 430.034958 
L 363.731301 430.560117 
L 364.366186 429.714026 
L 365.00107 431.347856 
L 365.635955 428.663708 
L 366.270839 428.867935 
L 366.905724 431.026925 
L 367.540608 428.751231 
L 368.175493 429.947434 
L 368.810377 428.488652 
L 369.445262 428.430308 
L 370.080146 430.501765 
L 370.715031 428.313604 
L 371.349915 433.010858 
L 371.9848 431.231152 
L 372.619684 428.401128 
L 373.254569 430.705993 
L 374.524338 428.167729 
L 375.159222 429.305571 
L 377.063876 430.06413 
L 377.698761 431.026925 
L 378.333645 429.655674 
L 378.96853 428.692888 
L 379.603414 430.122482 
L 380.238299 430.705993 
L 380.873183 430.210014 
L 381.508068 428.663708 
L 382.142952 429.188867 
L 382.777837 431.581256 
L 383.412721 430.180834 
L 384.047606 430.297538 
L 384.68249 430.589289 
L 385.317375 431.085277 
L 385.952259 428.576184 
L 386.587144 429.772378 
L 387.222028 427.555037 
L 387.856913 432.281471 
L 388.491797 429.80155 
L 389.126682 432.660755 
L 389.761566 431.552084 
L 390.396451 430.997753 
L 391.031335 430.851869 
L 391.66622 429.947434 
L 392.301104 431.289504 
L 392.935989 431.056096 
L 393.570873 429.976606 
L 394.205758 432.223119 
L 394.840642 431.552084 
L 395.475527 429.334743 
L 396.110411 432.631574 
L 396.745296 431.260333 
L 397.38018 430.997753 
L 398.015065 429.509799 
L 398.64995 431.46456 
L 399.284834 430.822697 
L 399.919719 431.639608 
L 400.554603 430.910221 
L 401.189488 431.114448 
L 401.824372 430.793517 
L 402.459257 431.260333 
L 403.094141 431.377028 
L 403.729026 429.83073 
L 404.36391 429.480627 
L 404.998795 431.114448 
L 405.633679 431.873016 
L 406.268564 431.814664 
L 406.903448 432.252299 
L 407.538333 431.406208 
L 408.173217 432.048072 
L 408.808102 431.581256 
L 409.442986 431.552084 
L 410.077871 432.310651 
L 410.712755 429.247219 
L 411.34764 430.764345 
L 411.982524 431.260333 
L 412.617409 432.339823 
L 413.887178 432.281471 
L 414.522062 431.843835 
L 415.156947 433.973653 
L 415.791831 433.185914 
L 416.426716 430.180834 
L 417.0616 432.689926 
L 417.696485 428.371956 
L 418.331369 432.106415 
L 418.966254 432.252299 
L 419.601138 431.843835 
L 420.236023 431.668788 
L 420.870908 433.010858 
L 421.505792 431.69796 
L 422.775561 430.764345 
L 423.410446 432.864982 
L 424.04533 432.923334 
L 424.680215 429.743207 
L 425.949984 432.894154 
L 426.584868 431.668788 
L 427.219753 432.80663 
L 427.854637 431.873016 
L 428.489522 432.193947 
L 429.124406 430.034958 
L 429.759291 431.318676 
L 430.394175 429.568151 
L 431.02906 431.522912 
L 431.663944 430.589289 
L 432.298829 430.735173 
L 432.933713 431.522912 
L 433.568598 429.684855 
L 434.838367 432.368995 
L 435.473251 430.589289 
L 436.108136 431.377028 
L 436.74302 432.427347 
L 437.377905 430.735173 
L 438.012789 434.002825 
L 438.647674 431.72714 
L 439.282558 431.056096 
L 439.917443 434.294585 
L 440.552327 431.610436 
L 441.187212 431.72714 
L 441.822097 430.06413 
L 442.456981 432.077243 
L 443.091866 430.122482 
L 443.72675 431.201981 
L 444.361635 433.711073 
L 444.996519 430.151662 
L 445.631404 432.689926 
L 446.266288 430.326709 
L 446.901173 429.451447 
L 447.536057 430.764345 
L 448.170942 430.676821 
L 449.440711 433.010858 
L 450.075595 430.09331 
L 450.71048 430.997753 
L 451.345364 432.573231 
L 451.980249 430.705993 
L 452.615133 432.398175 
L 453.250018 429.597322 
L 453.884902 430.414242 
L 454.519787 432.456527 
L 455.154671 431.318676 
L 455.789556 433.156734 
L 456.42444 431.318676 
L 457.059325 434.644688 
L 457.694209 431.493732 
L 458.329094 431.72714 
L 458.963978 431.756312 
L 459.598863 433.740245 
L 460.233747 432.018891 
L 461.503516 431.69796 
L 462.138401 433.448494 
L 462.773285 431.873016 
L 463.40817 430.939401 
L 464.043055 432.456527 
L 464.677939 431.639608 
L 465.312824 431.201981 
L 465.947708 432.981686 
L 466.582593 434.032005 
L 467.217477 430.034958 
L 467.852362 433.740245 
L 468.487246 434.265404 
L 469.757015 430.443413 
L 470.3919 432.339823 
L 471.026784 433.302618 
L 471.661669 432.048072 
L 472.296553 433.536017 
L 472.931438 432.193947 
L 473.566322 433.06921 
L 474.201207 430.472594 
L 474.836091 432.719107 
L 475.470976 430.501765 
L 476.10586 431.72714 
L 476.740745 432.398175 
L 477.375629 433.477665 
L 478.010514 431.873016 
L 478.645398 432.864982 
L 479.280283 430.647641 
L 479.915167 432.281471 
L 480.550052 431.522912 
L 481.184936 432.048072 
L 481.819821 433.594369 
L 483.08959 431.43538 
L 483.724474 434.294585 
L 484.359359 432.398175 
L 484.994244 432.485699 
L 485.629128 432.398175 
L 486.264013 430.851869 
L 486.898897 432.544051 
L 487.533782 432.894154 
L 488.168666 433.711073 
L 488.803551 432.427347 
L 489.438435 432.544051 
L 490.07332 433.711073 
L 490.708204 432.80663 
L 491.343089 430.443413 
L 491.977973 433.652721 
L 492.612858 434.207052 
L 493.247742 431.347856 
L 494.517511 432.952506 
L 495.152396 432.602403 
L 495.78728 432.894154 
L 496.422165 432.864982 
L 497.057049 431.902187 
L 497.691934 432.164767 
L 498.326818 433.390142 
L 498.961703 433.565198 
L 499.596587 431.1728 
L 500.231472 432.835802 
L 500.866356 432.835802 
L 501.501241 433.040038 
L 502.136125 430.881049 
L 502.77101 434.061177 
L 503.405894 431.98972 
L 504.040779 430.443413 
L 504.675663 434.119529 
L 505.310548 432.777459 
L 505.945433 433.040038 
L 506.580317 434.498812 
L 507.215202 432.339823 
L 507.850086 433.536017 
L 508.484971 433.448494 
L 509.119855 432.80663 
L 509.75474 431.318676 
L 510.389624 432.719107 
L 511.024509 432.514879 
L 511.659393 431.668788 
L 512.294278 432.602403 
L 513.564047 432.631574 
L 514.198931 430.968573 
L 514.833816 433.06921 
L 515.4687 433.448494 
L 516.103585 433.390142 
L 516.738469 431.98972 
L 517.373354 429.714026 
L 518.008238 431.843835 
L 518.643123 433.477665 
L 519.278007 433.06921 
L 519.912892 431.668788 
L 520.547776 434.644688 
L 521.182661 432.602403 
L 521.817545 432.048072 
L 522.45243 431.843835 
L 523.087314 431.347856 
L 523.722199 431.143629 
L 524.357083 433.448494 
L 524.991968 433.215086 
L 525.626852 432.777459 
L 526.261737 433.536017 
L 526.896621 433.740245 
L 527.531506 432.952506 
L 528.166391 433.973653 
L 528.801275 432.223119 
L 529.43616 433.798597 
L 530.071044 432.80663 
L 530.705929 432.777459 
L 531.340813 433.827777 
L 531.975698 433.477665 
L 532.610582 432.339823 
L 533.245467 433.419313 
L 533.880351 432.193947 
L 534.515236 432.981686 
L 535.15012 434.790564 
L 535.785005 433.244266 
L 536.419889 433.565198 
L 537.054774 433.506846 
L 537.689658 430.822697 
L 538.324543 432.573231 
L 538.959427 433.098382 
L 539.594312 434.732212 
L 540.229196 431.69796 
L 540.864081 433.448494 
L 541.498965 434.177881 
L 542.13385 432.252299 
L 542.768734 433.098382 
L 543.403619 433.185914 
L 544.038503 432.106415 
L 544.673388 433.623541 
L 545.943157 432.660755 
L 546.578041 434.790564 
L 547.212926 431.814664 
L 547.84781 433.506846 
L 548.482695 432.573231 
L 549.11758 434.70304 
L 549.752464 434.586336 
L 550.387349 432.864982 
L 551.022233 434.848916 
L 551.657118 433.973653 
L 552.292002 432.514879 
L 552.926887 433.156734 
L 553.561771 432.952506 
L 554.196656 434.177881 
L 554.83154 434.67386 
L 555.466425 433.448494 
L 556.101309 434.265404 
L 556.736194 433.594369 
L 557.371078 433.711073 
L 558.005963 432.427347 
L 558.640847 433.448494 
L 559.275732 430.881049 
L 559.910616 431.69796 
L 560.545501 432.252299 
L 561.180385 432.514879 
L 561.81527 433.156734 
L 562.450154 432.339823 
L 563.085039 432.602403 
L 563.719923 431.72714 
L 564.354808 433.419313 
L 564.989692 434.061177 
L 565.624577 432.981686 
L 566.259461 432.223119 
L 566.894346 430.939401 
L 567.52923 435.053143 
L 568.164115 431.814664 
L 568.798999 432.719107 
L 569.433884 432.135595 
L 570.068768 433.565198 
L 570.703653 431.843835 
L 571.338538 431.552084 
L 571.973422 432.456527 
L 572.608307 433.594369 
L 573.243191 432.398175 
L 573.878076 433.681893 
L 574.51296 433.098382 
L 575.147845 434.294585 
L 575.782729 431.318676 
L 576.417614 434.119529 
L 576.417614 434.119529 
" clip-path="url(#p7203e0d043)" style="fill: none; stroke: #ff7f0e; stroke-width: 1.5; stroke-linecap: square"/>
   </g>
   <g id="line2d_31">
    <path d="M 43.78125 551.518125 
L 601.78125 551.518125 
" clip-path="url(#p7203e0d043)" style="fill: none; stroke-dasharray: 11.1,4.8; stroke-dashoffset: 0; stroke: #ff0000; stroke-width: 3"/>
   </g>
   <g id="patch_3">
    <path d="M 43.78125 576.718125 
L 43.78125 22.318125 
" style="fill: none; stroke: #000000; stroke-width: 0.8; stroke-linejoin: miter; stroke-linecap: square"/>
   </g>
   <g id="patch_4">
    <path d="M 601.78125 576.718125 
L 601.78125 22.318125 
" style="fill: none; stroke: #000000; stroke-width: 0.8; stroke-linejoin: miter; stroke-linecap: square"/>
   </g>
   <g id="patch_5">
    <path d="M 43.78125 576.718125 
L 601.78125 576.718125 
" style="fill: none; stroke: #000000; stroke-width: 0.8; stroke-linejoin: miter; stroke-linecap: square"/>
   </g>
   <g id="patch_6">
    <path d="M 43.78125 22.318125 
L 601.78125 22.318125 
" style="fill: none; stroke: #000000; stroke-width: 0.8; stroke-linejoin: miter; stroke-linecap: square"/>
   </g>
   <g id="text_17">
    <!-- Train and Val Accuracy -->
    <g transform="translate(255.002813 16.318125) scale(0.12 -0.12)">
     <defs>
      <path id="DejaVuSans-54" d="M -19 4666 
L 3928 4666 
L 3928 4134 
L 2272 4134 
L 2272 0 
L 1638 0 
L 1638 4134 
L -19 4134 
L -19 4666 
z
" transform="scale(0.015625)"/>
      <path id="DejaVuSans-69" d="M 603 3500 
L 1178 3500 
L 1178 0 
L 603 0 
L 603 3500 
z
M 603 4863 
L 1178 4863 
L 1178 4134 
L 603 4134 
L 603 4863 
z
" transform="scale(0.015625)"/>
      <path id="DejaVuSans-6e" d="M 3513 2113 
L 3513 0 
L 2938 0 
L 2938 2094 
Q 2938 2591 2744 2837 
Q 2550 3084 2163 3084 
Q 1697 3084 1428 2787 
Q 1159 2491 1159 1978 
L 1159 0 
L 581 0 
L 581 3500 
L 1159 3500 
L 1159 2956 
Q 1366 3272 1645 3428 
Q 1925 3584 2291 3584 
Q 2894 3584 3203 3211 
Q 3513 2838 3513 2113 
z
" transform="scale(0.015625)"/>
      <path id="DejaVuSans-20" transform="scale(0.015625)"/>
      <path id="DejaVuSans-64" d="M 2906 2969 
L 2906 4863 
L 3481 4863 
L 3481 0 
L 2906 0 
L 2906 525 
Q 2725 213 2448 61 
Q 2172 -91 1784 -91 
Q 1150 -91 751 415 
Q 353 922 353 1747 
Q 353 2572 751 3078 
Q 1150 3584 1784 3584 
Q 2172 3584 2448 3432 
Q 2725 3281 2906 2969 
z
M 947 1747 
Q 947 1113 1208 752 
Q 1469 391 1925 391 
Q 2381 391 2643 752 
Q 2906 1113 2906 1747 
Q 2906 2381 2643 2742 
Q 2381 3103 1925 3103 
Q 1469 3103 1208 2742 
Q 947 2381 947 1747 
z
" transform="scale(0.015625)"/>
      <path id="DejaVuSans-56" d="M 1831 0 
L 50 4666 
L 709 4666 
L 2188 738 
L 3669 4666 
L 4325 4666 
L 2547 0 
L 1831 0 
z
" transform="scale(0.015625)"/>
      <path id="DejaVuSans-6c" d="M 603 4863 
L 1178 4863 
L 1178 0 
L 603 0 
L 603 4863 
z
" transform="scale(0.015625)"/>
     </defs>
     <use xlink:href="#DejaVuSans-54"/>
     <use xlink:href="#DejaVuSans-72" transform="translate(46.333984 0)"/>
     <use xlink:href="#DejaVuSans-61" transform="translate(87.447266 0)"/>
     <use xlink:href="#DejaVuSans-69" transform="translate(148.726562 0)"/>
     <use xlink:href="#DejaVuSans-6e" transform="translate(176.509766 0)"/>
     <use xlink:href="#DejaVuSans-20" transform="translate(239.888672 0)"/>
     <use xlink:href="#DejaVuSans-61" transform="translate(271.675781 0)"/>
     <use xlink:href="#DejaVuSans-6e" transform="translate(332.955078 0)"/>
     <use xlink:href="#DejaVuSans-64" transform="translate(396.333984 0)"/>
     <use xlink:href="#DejaVuSans-20" transform="translate(459.810547 0)"/>
     <use xlink:href="#DejaVuSans-56" transform="translate(491.597656 0)"/>
     <use xlink:href="#DejaVuSans-61" transform="translate(552.255859 0)"/>
     <use xlink:href="#DejaVuSans-6c" transform="translate(613.535156 0)"/>
     <use xlink:href="#DejaVuSans-20" transform="translate(641.318359 0)"/>
     <use xlink:href="#DejaVuSans-41" transform="translate(673.105469 0)"/>
     <use xlink:href="#DejaVuSans-63" transform="translate(739.763672 0)"/>
     <use xlink:href="#DejaVuSans-63" transform="translate(794.744141 0)"/>
     <use xlink:href="#DejaVuSans-75" transform="translate(849.724609 0)"/>
     <use xlink:href="#DejaVuSans-72" transform="translate(913.103516 0)"/>
     <use xlink:href="#DejaVuSans-61" transform="translate(954.216797 0)"/>
     <use xlink:href="#DejaVuSans-63" transform="translate(1015.496094 0)"/>
     <use xlink:href="#DejaVuSans-79" transform="translate(1070.476562 0)"/>
    </g>
   </g>
   <g id="legend_1">
    <g id="patch_7">
     <path d="M 50.78125 74.90875 
L 217.904687 74.90875 
Q 219.904687 74.90875 219.904687 72.90875 
L 219.904687 29.318125 
Q 219.904687 27.318125 217.904687 27.318125 
L 50.78125 27.318125 
Q 48.78125 27.318125 48.78125 29.318125 
L 48.78125 72.90875 
Q 48.78125 74.90875 50.78125 74.90875 
z
" style="fill: #ffffff; opacity: 0.8; stroke: #cccccc; stroke-linejoin: miter"/>
    </g>
    <g id="line2d_32">
     <path d="M 52.78125 35.416562 
L 62.78125 35.416562 
L 72.78125 35.416562 
" style="fill: none; stroke: #1f77b4; stroke-width: 1.5; stroke-linecap: square"/>
    </g>
    <g id="text_18">
     <!-- train_accuracy -->
     <g transform="translate(80.78125 38.916562) scale(0.1 -0.1)">
      <defs>
       <path id="DejaVuSans-74" d="M 1172 4494 
L 1172 3500 
L 2356 3500 
L 2356 3053 
L 1172 3053 
L 1172 1153 
Q 1172 725 1289 603 
Q 1406 481 1766 481 
L 2356 481 
L 2356 0 
L 1766 0 
Q 1100 0 847 248 
Q 594 497 594 1153 
L 594 3053 
L 172 3053 
L 172 3500 
L 594 3500 
L 594 4494 
L 1172 4494 
z
" transform="scale(0.015625)"/>
       <path id="DejaVuSans-5f" d="M 3263 -1063 
L 3263 -1509 
L -63 -1509 
L -63 -1063 
L 3263 -1063 
z
" transform="scale(0.015625)"/>
      </defs>
      <use xlink:href="#DejaVuSans-74"/>
      <use xlink:href="#DejaVuSans-72" transform="translate(39.208984 0)"/>
      <use xlink:href="#DejaVuSans-61" transform="translate(80.322266 0)"/>
      <use xlink:href="#DejaVuSans-69" transform="translate(141.601562 0)"/>
      <use xlink:href="#DejaVuSans-6e" transform="translate(169.384766 0)"/>
      <use xlink:href="#DejaVuSans-5f" transform="translate(232.763672 0)"/>
      <use xlink:href="#DejaVuSans-61" transform="translate(282.763672 0)"/>
      <use xlink:href="#DejaVuSans-63" transform="translate(344.042969 0)"/>
      <use xlink:href="#DejaVuSans-63" transform="translate(399.023438 0)"/>
      <use xlink:href="#DejaVuSans-75" transform="translate(454.003906 0)"/>
      <use xlink:href="#DejaVuSans-72" transform="translate(517.382812 0)"/>
      <use xlink:href="#DejaVuSans-61" transform="translate(558.496094 0)"/>
      <use xlink:href="#DejaVuSans-63" transform="translate(619.775391 0)"/>
      <use xlink:href="#DejaVuSans-79" transform="translate(674.755859 0)"/>
     </g>
    </g>
    <g id="line2d_33">
     <path d="M 52.78125 50.372812 
L 62.78125 50.372812 
L 72.78125 50.372812 
" style="fill: none; stroke: #ff7f0e; stroke-width: 1.5; stroke-linecap: square"/>
    </g>
    <g id="text_19">
     <!-- val_accuracy -->
     <g transform="translate(80.78125 53.872812) scale(0.1 -0.1)">
      <defs>
       <path id="DejaVuSans-76" d="M 191 3500 
L 800 3500 
L 1894 563 
L 2988 3500 
L 3597 3500 
L 2284 0 
L 1503 0 
L 191 3500 
z
" transform="scale(0.015625)"/>
      </defs>
      <use xlink:href="#DejaVuSans-76"/>
      <use xlink:href="#DejaVuSans-61" transform="translate(59.179688 0)"/>
      <use xlink:href="#DejaVuSans-6c" transform="translate(120.458984 0)"/>
      <use xlink:href="#DejaVuSans-5f" transform="translate(148.242188 0)"/>
      <use xlink:href="#DejaVuSans-61" transform="translate(198.242188 0)"/>
      <use xlink:href="#DejaVuSans-63" transform="translate(259.521484 0)"/>
      <use xlink:href="#DejaVuSans-63" transform="translate(314.501953 0)"/>
      <use xlink:href="#DejaVuSans-75" transform="translate(369.482422 0)"/>
      <use xlink:href="#DejaVuSans-72" transform="translate(432.861328 0)"/>
      <use xlink:href="#DejaVuSans-61" transform="translate(473.974609 0)"/>
      <use xlink:href="#DejaVuSans-63" transform="translate(535.253906 0)"/>
      <use xlink:href="#DejaVuSans-79" transform="translate(590.234375 0)"/>
     </g>
    </g>
    <g id="line2d_34">
     <path d="M 52.78125 65.329062 
L 62.78125 65.329062 
L 72.78125 65.329062 
" style="fill: none; stroke-dasharray: 11.1,4.8; stroke-dashoffset: 0; stroke: #ff0000; stroke-width: 3"/>
    </g>
    <g id="text_20">
     <!-- Random-Guesser Accuracy -->
     <g transform="translate(80.78125 68.829062) scale(0.1 -0.1)">
      <defs>
       <path id="DejaVuSans-52" d="M 2841 2188 
Q 3044 2119 3236 1894 
Q 3428 1669 3622 1275 
L 4263 0 
L 3584 0 
L 2988 1197 
Q 2756 1666 2539 1819 
Q 2322 1972 1947 1972 
L 1259 1972 
L 1259 0 
L 628 0 
L 628 4666 
L 2053 4666 
Q 2853 4666 3247 4331 
Q 3641 3997 3641 3322 
Q 3641 2881 3436 2590 
Q 3231 2300 2841 2188 
z
M 1259 4147 
L 1259 2491 
L 2053 2491 
Q 2509 2491 2742 2702 
Q 2975 2913 2975 3322 
Q 2975 3731 2742 3939 
Q 2509 4147 2053 4147 
L 1259 4147 
z
" transform="scale(0.015625)"/>
       <path id="DejaVuSans-6d" d="M 3328 2828 
Q 3544 3216 3844 3400 
Q 4144 3584 4550 3584 
Q 5097 3584 5394 3201 
Q 5691 2819 5691 2113 
L 5691 0 
L 5113 0 
L 5113 2094 
Q 5113 2597 4934 2840 
Q 4756 3084 4391 3084 
Q 3944 3084 3684 2787 
Q 3425 2491 3425 1978 
L 3425 0 
L 2847 0 
L 2847 2094 
Q 2847 2600 2669 2842 
Q 2491 3084 2119 3084 
Q 1678 3084 1418 2786 
Q 1159 2488 1159 1978 
L 1159 0 
L 581 0 
L 581 3500 
L 1159 3500 
L 1159 2956 
Q 1356 3278 1631 3431 
Q 1906 3584 2284 3584 
Q 2666 3584 2933 3390 
Q 3200 3197 3328 2828 
z
" transform="scale(0.015625)"/>
       <path id="DejaVuSans-2d" d="M 313 2009 
L 1997 2009 
L 1997 1497 
L 313 1497 
L 313 2009 
z
" transform="scale(0.015625)"/>
       <path id="DejaVuSans-47" d="M 3809 666 
L 3809 1919 
L 2778 1919 
L 2778 2438 
L 4434 2438 
L 4434 434 
Q 4069 175 3628 42 
Q 3188 -91 2688 -91 
Q 1594 -91 976 548 
Q 359 1188 359 2328 
Q 359 3472 976 4111 
Q 1594 4750 2688 4750 
Q 3144 4750 3555 4637 
Q 3966 4525 4313 4306 
L 4313 3634 
Q 3963 3931 3569 4081 
Q 3175 4231 2741 4231 
Q 1884 4231 1454 3753 
Q 1025 3275 1025 2328 
Q 1025 1384 1454 906 
Q 1884 428 2741 428 
Q 3075 428 3337 486 
Q 3600 544 3809 666 
z
" transform="scale(0.015625)"/>
       <path id="DejaVuSans-65" d="M 3597 1894 
L 3597 1613 
L 953 1613 
Q 991 1019 1311 708 
Q 1631 397 2203 397 
Q 2534 397 2845 478 
Q 3156 559 3463 722 
L 3463 178 
Q 3153 47 2828 -22 
Q 2503 -91 2169 -91 
Q 1331 -91 842 396 
Q 353 884 353 1716 
Q 353 2575 817 3079 
Q 1281 3584 2069 3584 
Q 2775 3584 3186 3129 
Q 3597 2675 3597 1894 
z
M 3022 2063 
Q 3016 2534 2758 2815 
Q 2500 3097 2075 3097 
Q 1594 3097 1305 2825 
Q 1016 2553 972 2059 
L 3022 2063 
z
" transform="scale(0.015625)"/>
      </defs>
      <use xlink:href="#DejaVuSans-52"/>
      <use xlink:href="#DejaVuSans-61" transform="translate(67.232422 0)"/>
      <use xlink:href="#DejaVuSans-6e" transform="translate(128.511719 0)"/>
      <use xlink:href="#DejaVuSans-64" transform="translate(191.890625 0)"/>
      <use xlink:href="#DejaVuSans-6f" transform="translate(255.367188 0)"/>
      <use xlink:href="#DejaVuSans-6d" transform="translate(316.548828 0)"/>
      <use xlink:href="#DejaVuSans-2d" transform="translate(413.960938 0)"/>
      <use xlink:href="#DejaVuSans-47" transform="translate(453.669922 0)"/>
      <use xlink:href="#DejaVuSans-75" transform="translate(531.160156 0)"/>
      <use xlink:href="#DejaVuSans-65" transform="translate(594.539062 0)"/>
      <use xlink:href="#DejaVuSans-73" transform="translate(656.0625 0)"/>
      <use xlink:href="#DejaVuSans-73" transform="translate(708.162109 0)"/>
      <use xlink:href="#DejaVuSans-65" transform="translate(760.261719 0)"/>
      <use xlink:href="#DejaVuSans-72" transform="translate(821.785156 0)"/>
      <use xlink:href="#DejaVuSans-20" transform="translate(862.898438 0)"/>
      <use xlink:href="#DejaVuSans-41" transform="translate(894.685547 0)"/>
      <use xlink:href="#DejaVuSans-63" transform="translate(961.34375 0)"/>
      <use xlink:href="#DejaVuSans-63" transform="translate(1016.324219 0)"/>
      <use xlink:href="#DejaVuSans-75" transform="translate(1071.304688 0)"/>
      <use xlink:href="#DejaVuSans-72" transform="translate(1134.683594 0)"/>
      <use xlink:href="#DejaVuSans-61" transform="translate(1175.796875 0)"/>
      <use xlink:href="#DejaVuSans-63" transform="translate(1237.076172 0)"/>
      <use xlink:href="#DejaVuSans-79" transform="translate(1292.056641 0)"/>
     </g>
    </g>
   </g>
  </g>
 </g>
 <defs>
  <clipPath id="p7203e0d043">
   <rect x="43.78125" y="22.318125" width="558" height="554.4"/>
  </clipPath>
 </defs>
</svg>
