<?xml version="1.0" encoding="utf-8" standalone="no"?>
<!DOCTYPE svg PUBLIC "-//W3C//DTD SVG 1.1//EN"
  "http://www.w3.org/Graphics/SVG/1.1/DTD/svg11.dtd">
<svg xmlns:xlink="http://www.w3.org/1999/xlink" width="615.34375pt" height="614.274375pt" viewBox="0 0 615.34375 614.274375" xmlns="http://www.w3.org/2000/svg" version="1.1">
 <metadata>
  <rdf:RDF xmlns:dc="http://purl.org/dc/elements/1.1/" xmlns:cc="http://creativecommons.org/ns#" xmlns:rdf="http://www.w3.org/1999/02/22-rdf-syntax-ns#">
   <cc:Work>
    <dc:type rdf:resource="http://purl.org/dc/dcmitype/StillImage"/>
    <dc:date>2026-06-02T19:43:24.758552</dc:date>
    <dc:format>image/svg+xml</dc:format>
    <dc:creator>
     <cc:Agent>
      <dc:title>Matplotlib v3.10.9, https://matplotlib.org/</dc:title>
     </cc:Agent>
    </dc:creator>
   </cc:Work>
  </rdf:RDF>
 </metadata>
 <defs>
  <style type="text/css">*{stroke-linejoin: round; stroke-linecap: butt}</style>
 </defs>
 <g id="figure_1">
  <g id="patch_1">
   <path d="M 0 614.274375 
L 615.34375 614.274375 
L 615.34375 0 
L 0 0 
z
" style="fill: #ffffff"/>
  </g>
  <g id="axes_1">
   <g id="patch_2">
    <path d="M 50.14375 576.718125 
L 608.14375 576.718125 
L 608.14375 22.318125 
L 50.14375 22.318125 
z
" style="fill: #ffffff"/>
   </g>
   <g id="matplotlib.axis_1">
    <g id="xtick_1">
     <g id="line2d_1">
      <path d="M 75.507386 576.718125 
L 75.507386 22.318125 
" clip-path="url(#p1a16e170b7)" style="fill: none; stroke: #b0b0b0; stroke-width: 0.8; stroke-linecap: square"/>
     </g>
     <g id="line2d_2">
      <defs>
       <path id="m6d1acf34de" d="M 0 0 
L 0 3.5 
" style="stroke: #000000; stroke-width: 0.8"/>
      </defs>
      <g>
       <use xlink:href="#m6d1acf34de" x="75.507386" y="576.718125" style="stroke: #000000; stroke-width: 0.8"/>
      </g>
     </g>
     <g id="text_1">
      <!-- 0 -->
      <g transform="translate(72.326136 591.316563) scale(0.1 -0.1)">
       <defs>
        <path id="DejaVuSans-30" d="M 2034 4250 
Q 1547 4250 1301 3770 
Q 1056 3291 1056 2328 
Q 1056 1369 1301 889 
Q 1547 409 2034 409 
Q 2525 409 2770 889 
Q 3016 1369 3016 2328 
Q 3016 3291 2770 3770 
Q 2525 4250 2034 4250 
z
M 2034 4750 
Q 2819 4750 3233 4129 
Q 3647 3509 3647 2328 
Q 3647 1150 3233 529 
Q 2819 -91 2034 -91 
Q 1250 -91 836 529 
Q 422 1150 422 2328 
Q 422 3509 836 4129 
Q 1250 4750 2034 4750 
z
" transform="scale(0.015625)"/>
       </defs>
       <use xlink:href="#DejaVuSans-30"/>
      </g>
     </g>
    </g>
    <g id="xtick_2">
     <g id="line2d_3">
      <path d="M 138.995838 576.718125 
L 138.995838 22.318125 
" clip-path="url(#p1a16e170b7)" style="fill: none; stroke: #b0b0b0; stroke-width: 0.8; stroke-linecap: square"/>
     </g>
     <g id="line2d_4">
      <g>
       <use xlink:href="#m6d1acf34de" x="138.995838" y="576.718125" style="stroke: #000000; stroke-width: 0.8"/>
      </g>
     </g>
     <g id="text_2">
      <!-- 100 -->
      <g transform="translate(129.452088 591.316563) scale(0.1 -0.1)">
       <defs>
        <path id="DejaVuSans-31" d="M 794 531 
L 1825 531 
L 1825 4091 
L 703 3866 
L 703 4441 
L 1819 4666 
L 2450 4666 
L 2450 531 
L 3481 531 
L 3481 0 
L 794 0 
L 794 531 
z
" transform="scale(0.015625)"/>
       </defs>
       <use xlink:href="#DejaVuSans-31"/>
       <use xlink:href="#DejaVuSans-30" transform="translate(63.623047 0)"/>
       <use xlink:href="#DejaVuSans-30" transform="translate(127.246094 0)"/>
      </g>
     </g>
    </g>
    <g id="xtick_3">
     <g id="line2d_5">
      <path d="M 202.484289 576.718125 
L 202.484289 22.318125 
" clip-path="url(#p1a16e170b7)" style="fill: none; stroke: #b0b0b0; stroke-width: 0.8; stroke-linecap: square"/>
     </g>
     <g id="line2d_6">
      <g>
       <use xlink:href="#m6d1acf34de" x="202.484289" y="576.718125" style="stroke: #000000; stroke-width: 0.8"/>
      </g>
     </g>
     <g id="text_3">
      <!-- 200 -->
      <g transform="translate(192.940539 591.316563) scale(0.1 -0.1)">
       <defs>
        <path id="DejaVuSans-32" d="M 1228 531 
L 3431 531 
L 3431 0 
L 469 0 
L 469 531 
Q 828 903 1448 1529 
Q 2069 2156 2228 2338 
Q 2531 2678 2651 2914 
Q 2772 3150 2772 3378 
Q 2772 3750 2511 3984 
Q 2250 4219 1831 4219 
Q 1534 4219 1204 4116 
Q 875 4013 500 3803 
L 500 4441 
Q 881 4594 1212 4672 
Q 1544 4750 1819 4750 
Q 2544 4750 2975 4387 
Q 3406 4025 3406 3419 
Q 3406 3131 3298 2873 
Q 3191 2616 2906 2266 
Q 2828 2175 2409 1742 
Q 1991 1309 1228 531 
z
" transform="scale(0.015625)"/>
       </defs>
       <use xlink:href="#DejaVuSans-32"/>
       <use xlink:href="#DejaVuSans-30" transform="translate(63.623047 0)"/>
       <use xlink:href="#DejaVuSans-30" transform="translate(127.246094 0)"/>
      </g>
     </g>
    </g>
    <g id="xtick_4">
     <g id="line2d_7">
      <path d="M 265.972741 576.718125 
L 265.972741 22.318125 
" clip-path="url(#p1a16e170b7)" style="fill: none; stroke: #b0b0b0; stroke-width: 0.8; stroke-linecap: square"/>
     </g>
     <g id="line2d_8">
      <g>
       <use xlink:href="#m6d1acf34de" x="265.972741" y="576.718125" style="stroke: #000000; stroke-width: 0.8"/>
      </g>
     </g>
     <g id="text_4">
      <!-- 300 -->
      <g transform="translate(256.428991 591.316563) scale(0.1 -0.1)">
       <defs>
        <path id="DejaVuSans-33" d="M 2597 2516 
Q 3050 2419 3304 2112 
Q 3559 1806 3559 1356 
Q 3559 666 3084 287 
Q 2609 -91 1734 -91 
Q 1441 -91 1130 -33 
Q 819 25 488 141 
L 488 750 
Q 750 597 1062 519 
Q 1375 441 1716 441 
Q 2309 441 2620 675 
Q 2931 909 2931 1356 
Q 2931 1769 2642 2001 
Q 2353 2234 1838 2234 
L 1294 2234 
L 1294 2753 
L 1863 2753 
Q 2328 2753 2575 2939 
Q 2822 3125 2822 3475 
Q 2822 3834 2567 4026 
Q 2313 4219 1838 4219 
Q 1578 4219 1281 4162 
Q 984 4106 628 3988 
L 628 4550 
Q 988 4650 1302 4700 
Q 1616 4750 1894 4750 
Q 2613 4750 3031 4423 
Q 3450 4097 3450 3541 
Q 3450 3153 3228 2886 
Q 3006 2619 2597 2516 
z
" transform="scale(0.015625)"/>
       </defs>
       <use xlink:href="#DejaVuSans-33"/>
       <use xlink:href="#DejaVuSans-30" transform="translate(63.623047 0)"/>
       <use xlink:href="#DejaVuSans-30" transform="translate(127.246094 0)"/>
      </g>
     </g>
    </g>
    <g id="xtick_5">
     <g id="line2d_9">
      <path d="M 329.461192 576.718125 
L 329.461192 22.318125 
" clip-path="url(#p1a16e170b7)" style="fill: none; stroke: #b0b0b0; stroke-width: 0.8; stroke-linecap: square"/>
     </g>
     <g id="line2d_10">
      <g>
       <use xlink:href="#m6d1acf34de" x="329.461192" y="576.718125" style="stroke: #000000; stroke-width: 0.8"/>
      </g>
     </g>
     <g id="text_5">
      <!-- 400 -->
      <g transform="translate(319.917442 591.316563) scale(0.1 -0.1)">
       <defs>
        <path id="DejaVuSans-34" d="M 2419 4116 
L 825 1625 
L 2419 1625 
L 2419 4116 
z
M 2253 4666 
L 3047 4666 
L 3047 1625 
L 3713 1625 
L 3713 1100 
L 3047 1100 
L 3047 0 
L 2419 0 
L 2419 1100 
L 313 1100 
L 313 1709 
L 2253 4666 
z
" transform="scale(0.015625)"/>
       </defs>
       <use xlink:href="#DejaVuSans-34"/>
       <use xlink:href="#DejaVuSans-30" transform="translate(63.623047 0)"/>
       <use xlink:href="#DejaVuSans-30" transform="translate(127.246094 0)"/>
      </g>
     </g>
    </g>
    <g id="xtick_6">
     <g id="line2d_11">
      <path d="M 392.949644 576.718125 
L 392.949644 22.318125 
" clip-path="url(#p1a16e170b7)" style="fill: none; stroke: #b0b0b0; stroke-width: 0.8; stroke-linecap: square"/>
     </g>
     <g id="line2d_12">
      <g>
       <use xlink:href="#m6d1acf34de" x="392.949644" y="576.718125" style="stroke: #000000; stroke-width: 0.8"/>
      </g>
     </g>
     <g id="text_6">
      <!-- 500 -->
      <g transform="translate(383.405894 591.316563) scale(0.1 -0.1)">
       <defs>
        <path id="DejaVuSans-35" d="M 691 4666 
L 3169 4666 
L 3169 4134 
L 1269 4134 
L 1269 2991 
Q 1406 3038 1543 3061 
Q 1681 3084 1819 3084 
Q 2600 3084 3056 2656 
Q 3513 2228 3513 1497 
Q 3513 744 3044 326 
Q 2575 -91 1722 -91 
Q 1428 -91 1123 -41 
Q 819 9 494 109 
L 494 744 
Q 775 591 1075 516 
Q 1375 441 1709 441 
Q 2250 441 2565 725 
Q 2881 1009 2881 1497 
Q 2881 1984 2565 2268 
Q 2250 2553 1709 2553 
Q 1456 2553 1204 2497 
Q 953 2441 691 2322 
L 691 4666 
z
" transform="scale(0.015625)"/>
       </defs>
       <use xlink:href="#DejaVuSans-35"/>
       <use xlink:href="#DejaVuSans-30" transform="translate(63.623047 0)"/>
       <use xlink:href="#DejaVuSans-30" transform="translate(127.246094 0)"/>
      </g>
     </g>
    </g>
    <g id="xtick_7">
     <g id="line2d_13">
      <path d="M 456.438095 576.718125 
L 456.438095 22.318125 
" clip-path="url(#p1a16e170b7)" style="fill: none; stroke: #b0b0b0; stroke-width: 0.8; stroke-linecap: square"/>
     </g>
     <g id="line2d_14">
      <g>
       <use xlink:href="#m6d1acf34de" x="456.438095" y="576.718125" style="stroke: #000000; stroke-width: 0.8"/>
      </g>
     </g>
     <g id="text_7">
      <!-- 600 -->
      <g transform="translate(446.894345 591.316563) scale(0.1 -0.1)">
       <defs>
        <path id="DejaVuSans-36" d="M 2113 2584 
Q 1688 2584 1439 2293 
Q 1191 2003 1191 1497 
Q 1191 994 1439 701 
Q 1688 409 2113 409 
Q 2538 409 2786 701 
Q 3034 994 3034 1497 
Q 3034 2003 2786 2293 
Q 2538 2584 2113 2584 
z
M 3366 4563 
L 3366 3988 
Q 3128 4100 2886 4159 
Q 2644 4219 2406 4219 
Q 1781 4219 1451 3797 
Q 1122 3375 1075 2522 
Q 1259 2794 1537 2939 
Q 1816 3084 2150 3084 
Q 2853 3084 3261 2657 
Q 3669 2231 3669 1497 
Q 3669 778 3244 343 
Q 2819 -91 2113 -91 
Q 1303 -91 875 529 
Q 447 1150 447 2328 
Q 447 3434 972 4092 
Q 1497 4750 2381 4750 
Q 2619 4750 2861 4703 
Q 3103 4656 3366 4563 
z
" transform="scale(0.015625)"/>
       </defs>
       <use xlink:href="#DejaVuSans-36"/>
       <use xlink:href="#DejaVuSans-30" transform="translate(63.623047 0)"/>
       <use xlink:href="#DejaVuSans-30" transform="translate(127.246094 0)"/>
      </g>
     </g>
    </g>
    <g id="xtick_8">
     <g id="line2d_15">
      <path d="M 519.926547 576.718125 
L 519.926547 22.318125 
" clip-path="url(#p1a16e170b7)" style="fill: none; stroke: #b0b0b0; stroke-width: 0.8; stroke-linecap: square"/>
     </g>
     <g id="line2d_16">
      <g>
       <use xlink:href="#m6d1acf34de" x="519.926547" y="576.718125" style="stroke: #000000; stroke-width: 0.8"/>
      </g>
     </g>
     <g id="text_8">
      <!-- 700 -->
      <g transform="translate(510.382797 591.316563) scale(0.1 -0.1)">
       <defs>
        <path id="DejaVuSans-37" d="M 525 4666 
L 3525 4666 
L 3525 4397 
L 1831 0 
L 1172 0 
L 2766 4134 
L 525 4134 
L 525 4666 
z
" transform="scale(0.015625)"/>
       </defs>
       <use xlink:href="#DejaVuSans-37"/>
       <use xlink:href="#DejaVuSans-30" transform="translate(63.623047 0)"/>
       <use xlink:href="#DejaVuSans-30" transform="translate(127.246094 0)"/>
      </g>
     </g>
    </g>
    <g id="xtick_9">
     <g id="line2d_17">
      <path d="M 583.414998 576.718125 
L 583.414998 22.318125 
" clip-path="url(#p1a16e170b7)" style="fill: none; stroke: #b0b0b0; stroke-width: 0.8; stroke-linecap: square"/>
     </g>
     <g id="line2d_18">
      <g>
       <use xlink:href="#m6d1acf34de" x="583.414998" y="576.718125" style="stroke: #000000; stroke-width: 0.8"/>
      </g>
     </g>
     <g id="text_9">
      <!-- 800 -->
      <g transform="translate(573.871248 591.316563) scale(0.1 -0.1)">
       <defs>
        <path id="DejaVuSans-38" d="M 2034 2216 
Q 1584 2216 1326 1975 
Q 1069 1734 1069 1313 
Q 1069 891 1326 650 
Q 1584 409 2034 409 
Q 2484 409 2743 651 
Q 3003 894 3003 1313 
Q 3003 1734 2745 1975 
Q 2488 2216 2034 2216 
z
M 1403 2484 
Q 997 2584 770 2862 
Q 544 3141 544 3541 
Q 544 4100 942 4425 
Q 1341 4750 2034 4750 
Q 2731 4750 3128 4425 
Q 3525 4100 3525 3541 
Q 3525 3141 3298 2862 
Q 3072 2584 2669 2484 
Q 3125 2378 3379 2068 
Q 3634 1759 3634 1313 
Q 3634 634 3220 271 
Q 2806 -91 2034 -91 
Q 1263 -91 848 271 
Q 434 634 434 1313 
Q 434 1759 690 2068 
Q 947 2378 1403 2484 
z
M 1172 3481 
Q 1172 3119 1398 2916 
Q 1625 2713 2034 2713 
Q 2441 2713 2670 2916 
Q 2900 3119 2900 3481 
Q 2900 3844 2670 4047 
Q 2441 4250 2034 4250 
Q 1625 4250 1398 4047 
Q 1172 3844 1172 3481 
z
" transform="scale(0.015625)"/>
       </defs>
       <use xlink:href="#DejaVuSans-38"/>
       <use xlink:href="#DejaVuSans-30" transform="translate(63.623047 0)"/>
       <use xlink:href="#DejaVuSans-30" transform="translate(127.246094 0)"/>
      </g>
     </g>
    </g>
    <g id="text_10">
     <!-- Epochs -->
     <g transform="translate(311.228125 604.994688) scale(0.1 -0.1)">
      <defs>
       <path id="DejaVuSans-45" d="M 628 4666 
L 3578 4666 
L 3578 4134 
L 1259 4134 
L 1259 2753 
L 3481 2753 
L 3481 2222 
L 1259 2222 
L 1259 531 
L 3634 531 
L 3634 0 
L 628 0 
L 628 4666 
z
" transform="scale(0.015625)"/>
       <path id="DejaVuSans-70" d="M 1159 525 
L 1159 -1331 
L 581 -1331 
L 581 3500 
L 1159 3500 
L 1159 2969 
Q 1341 3281 1617 3432 
Q 1894 3584 2278 3584 
Q 2916 3584 3314 3078 
Q 3713 2572 3713 1747 
Q 3713 922 3314 415 
Q 2916 -91 2278 -91 
Q 1894 -91 1617 61 
Q 1341 213 1159 525 
z
M 3116 1747 
Q 3116 2381 2855 2742 
Q 2594 3103 2138 3103 
Q 1681 3103 1420 2742 
Q 1159 2381 1159 1747 
Q 1159 1113 1420 752 
Q 1681 391 2138 391 
Q 2594 391 2855 752 
Q 3116 1113 3116 1747 
z
" transform="scale(0.015625)"/>
       <path id="DejaVuSans-6f" d="M 1959 3097 
Q 1497 3097 1228 2736 
Q 959 2375 959 1747 
Q 959 1119 1226 758 
Q 1494 397 1959 397 
Q 2419 397 2687 759 
Q 2956 1122 2956 1747 
Q 2956 2369 2687 2733 
Q 2419 3097 1959 3097 
z
M 1959 3584 
Q 2709 3584 3137 3096 
Q 3566 2609 3566 1747 
Q 3566 888 3137 398 
Q 2709 -91 1959 -91 
Q 1206 -91 779 398 
Q 353 888 353 1747 
Q 353 2609 779 3096 
Q 1206 3584 1959 3584 
z
" transform="scale(0.015625)"/>
       <path id="DejaVuSans-63" d="M 3122 3366 
L 3122 2828 
Q 2878 2963 2633 3030 
Q 2388 3097 2138 3097 
Q 1578 3097 1268 2742 
Q 959 2388 959 1747 
Q 959 1106 1268 751 
Q 1578 397 2138 397 
Q 2388 397 2633 464 
Q 2878 531 3122 666 
L 3122 134 
Q 2881 22 2623 -34 
Q 2366 -91 2075 -91 
Q 1284 -91 818 406 
Q 353 903 353 1747 
Q 353 2603 823 3093 
Q 1294 3584 2113 3584 
Q 2378 3584 2631 3529 
Q 2884 3475 3122 3366 
z
" transform="scale(0.015625)"/>
       <path id="DejaVuSans-68" d="M 3513 2113 
L 3513 0 
L 2938 0 
L 2938 2094 
Q 2938 2591 2744 2837 
Q 2550 3084 2163 3084 
Q 1697 3084 1428 2787 
Q 1159 2491 1159 1978 
L 1159 0 
L 581 0 
L 581 4863 
L 1159 4863 
L 1159 2956 
Q 1366 3272 1645 3428 
Q 1925 3584 2291 3584 
Q 2894 3584 3203 3211 
Q 3513 2838 3513 2113 
z
" transform="scale(0.015625)"/>
       <path id="DejaVuSans-73" d="M 2834 3397 
L 2834 2853 
Q 2591 2978 2328 3040 
Q 2066 3103 1784 3103 
Q 1356 3103 1142 2972 
Q 928 2841 928 2578 
Q 928 2378 1081 2264 
Q 1234 2150 1697 2047 
L 1894 2003 
Q 2506 1872 2764 1633 
Q 3022 1394 3022 966 
Q 3022 478 2636 193 
Q 2250 -91 1575 -91 
Q 1294 -91 989 -36 
Q 684 19 347 128 
L 347 722 
Q 666 556 975 473 
Q 1284 391 1588 391 
Q 1994 391 2212 530 
Q 2431 669 2431 922 
Q 2431 1156 2273 1281 
Q 2116 1406 1581 1522 
L 1381 1569 
Q 847 1681 609 1914 
Q 372 2147 372 2553 
Q 372 3047 722 3315 
Q 1072 3584 1716 3584 
Q 2034 3584 2315 3537 
Q 2597 3491 2834 3397 
z
" transform="scale(0.015625)"/>
      </defs>
      <use xlink:href="#DejaVuSans-45"/>
      <use xlink:href="#DejaVuSans-70" transform="translate(63.183594 0)"/>
      <use xlink:href="#DejaVuSans-6f" transform="translate(126.660156 0)"/>
      <use xlink:href="#DejaVuSans-63" transform="translate(187.841797 0)"/>
      <use xlink:href="#DejaVuSans-68" transform="translate(242.822266 0)"/>
      <use xlink:href="#DejaVuSans-73" transform="translate(306.201172 0)"/>
     </g>
    </g>
   </g>
   <g id="matplotlib.axis_2">
    <g id="ytick_1">
     <g id="line2d_19">
      <path d="M 50.14375 571.199854 
L 608.14375 571.199854 
" clip-path="url(#p1a16e170b7)" style="fill: none; stroke: #b0b0b0; stroke-width: 0.8; stroke-linecap: square"/>
     </g>
     <g id="line2d_20">
      <defs>
       <path id="mb546a7853a" d="M 0 0 
L -3.5 0 
" style="stroke: #000000; stroke-width: 0.8"/>
      </defs>
      <g>
       <use xlink:href="#mb546a7853a" x="50.14375" y="571.199854" style="stroke: #000000; stroke-width: 0.8"/>
      </g>
     </g>
     <g id="text_11">
      <!-- 0.50 -->
      <g transform="translate(20.878125 574.999073) scale(0.1 -0.1)">
       <defs>
        <path id="DejaVuSans-2e" d="M 684 794 
L 1344 794 
L 1344 0 
L 684 0 
L 684 794 
z
" transform="scale(0.015625)"/>
       </defs>
       <use xlink:href="#DejaVuSans-30"/>
       <use xlink:href="#DejaVuSans-2e" transform="translate(63.623047 0)"/>
       <use xlink:href="#DejaVuSans-35" transform="translate(95.410156 0)"/>
       <use xlink:href="#DejaVuSans-30" transform="translate(159.033203 0)"/>
      </g>
     </g>
    </g>
    <g id="ytick_2">
     <g id="line2d_21">
      <path d="M 50.14375 495.355258 
L 608.14375 495.355258 
" clip-path="url(#p1a16e170b7)" style="fill: none; stroke: #b0b0b0; stroke-width: 0.8; stroke-linecap: square"/>
     </g>
     <g id="line2d_22">
      <g>
       <use xlink:href="#mb546a7853a" x="50.14375" y="495.355258" style="stroke: #000000; stroke-width: 0.8"/>
      </g>
     </g>
     <g id="text_12">
      <!-- 0.52 -->
      <g transform="translate(20.878125 499.154476) scale(0.1 -0.1)">
       <use xlink:href="#DejaVuSans-30"/>
       <use xlink:href="#DejaVuSans-2e" transform="translate(63.623047 0)"/>
       <use xlink:href="#DejaVuSans-35" transform="translate(95.410156 0)"/>
       <use xlink:href="#DejaVuSans-32" transform="translate(159.033203 0)"/>
      </g>
     </g>
    </g>
    <g id="ytick_3">
     <g id="line2d_23">
      <path d="M 50.14375 419.510661 
L 608.14375 419.510661 
" clip-path="url(#p1a16e170b7)" style="fill: none; stroke: #b0b0b0; stroke-width: 0.8; stroke-linecap: square"/>
     </g>
     <g id="line2d_24">
      <g>
       <use xlink:href="#mb546a7853a" x="50.14375" y="419.510661" style="stroke: #000000; stroke-width: 0.8"/>
      </g>
     </g>
     <g id="text_13">
      <!-- 0.54 -->
      <g transform="translate(20.878125 423.30988) scale(0.1 -0.1)">
       <use xlink:href="#DejaVuSans-30"/>
       <use xlink:href="#DejaVuSans-2e" transform="translate(63.623047 0)"/>
       <use xlink:href="#DejaVuSans-35" transform="translate(95.410156 0)"/>
       <use xlink:href="#DejaVuSans-34" transform="translate(159.033203 0)"/>
      </g>
     </g>
    </g>
    <g id="ytick_4">
     <g id="line2d_25">
      <path d="M 50.14375 343.666065 
L 608.14375 343.666065 
" clip-path="url(#p1a16e170b7)" style="fill: none; stroke: #b0b0b0; stroke-width: 0.8; stroke-linecap: square"/>
     </g>
     <g id="line2d_26">
      <g>
       <use xlink:href="#mb546a7853a" x="50.14375" y="343.666065" style="stroke: #000000; stroke-width: 0.8"/>
      </g>
     </g>
     <g id="text_14">
      <!-- 0.56 -->
      <g transform="translate(20.878125 347.465283) scale(0.1 -0.1)">
       <use xlink:href="#DejaVuSans-30"/>
       <use xlink:href="#DejaVuSans-2e" transform="translate(63.623047 0)"/>
       <use xlink:href="#DejaVuSans-35" transform="translate(95.410156 0)"/>
       <use xlink:href="#DejaVuSans-36" transform="translate(159.033203 0)"/>
      </g>
     </g>
    </g>
    <g id="ytick_5">
     <g id="line2d_27">
      <path d="M 50.14375 267.821468 
L 608.14375 267.821468 
" clip-path="url(#p1a16e170b7)" style="fill: none; stroke: #b0b0b0; stroke-width: 0.8; stroke-linecap: square"/>
     </g>
     <g id="line2d_28">
      <g>
       <use xlink:href="#mb546a7853a" x="50.14375" y="267.821468" style="stroke: #000000; stroke-width: 0.8"/>
      </g>
     </g>
     <g id="text_15">
      <!-- 0.58 -->
      <g transform="translate(20.878125 271.620687) scale(0.1 -0.1)">
       <use xlink:href="#DejaVuSans-30"/>
       <use xlink:href="#DejaVuSans-2e" transform="translate(63.623047 0)"/>
       <use xlink:href="#DejaVuSans-35" transform="translate(95.410156 0)"/>
       <use xlink:href="#DejaVuSans-38" transform="translate(159.033203 0)"/>
      </g>
     </g>
    </g>
    <g id="ytick_6">
     <g id="line2d_29">
      <path d="M 50.14375 191.976872 
L 608.14375 191.976872 
" clip-path="url(#p1a16e170b7)" style="fill: none; stroke: #b0b0b0; stroke-width: 0.8; stroke-linecap: square"/>
     </g>
     <g id="line2d_30">
      <g>
       <use xlink:href="#mb546a7853a" x="50.14375" y="191.976872" style="stroke: #000000; stroke-width: 0.8"/>
      </g>
     </g>
     <g id="text_16">
      <!-- 0.60 -->
      <g transform="translate(20.878125 195.77609) scale(0.1 -0.1)">
       <use xlink:href="#DejaVuSans-30"/>
       <use xlink:href="#DejaVuSans-2e" transform="translate(63.623047 0)"/>
       <use xlink:href="#DejaVuSans-36" transform="translate(95.410156 0)"/>
       <use xlink:href="#DejaVuSans-30" transform="translate(159.033203 0)"/>
      </g>
     </g>
    </g>
    <g id="ytick_7">
     <g id="line2d_31">
      <path d="M 50.14375 116.132275 
L 608.14375 116.132275 
" clip-path="url(#p1a16e170b7)" style="fill: none; stroke: #b0b0b0; stroke-width: 0.8; stroke-linecap: square"/>
     </g>
     <g id="line2d_32">
      <g>
       <use xlink:href="#mb546a7853a" x="50.14375" y="116.132275" style="stroke: #000000; stroke-width: 0.8"/>
      </g>
     </g>
     <g id="text_17">
      <!-- 0.62 -->
      <g transform="translate(20.878125 119.931494) scale(0.1 -0.1)">
       <use xlink:href="#DejaVuSans-30"/>
       <use xlink:href="#DejaVuSans-2e" transform="translate(63.623047 0)"/>
       <use xlink:href="#DejaVuSans-36" transform="translate(95.410156 0)"/>
       <use xlink:href="#DejaVuSans-32" transform="translate(159.033203 0)"/>
      </g>
     </g>
    </g>
    <g id="ytick_8">
     <g id="line2d_33">
      <path d="M 50.14375 40.287679 
L 608.14375 40.287679 
" clip-path="url(#p1a16e170b7)" style="fill: none; stroke: #b0b0b0; stroke-width: 0.8; stroke-linecap: square"/>
     </g>
     <g id="line2d_34">
      <g>
       <use xlink:href="#mb546a7853a" x="50.14375" y="40.287679" style="stroke: #000000; stroke-width: 0.8"/>
      </g>
     </g>
     <g id="text_18">
      <!-- 0.64 -->
      <g transform="translate(20.878125 44.086898) scale(0.1 -0.1)">
       <use xlink:href="#DejaVuSans-30"/>
       <use xlink:href="#DejaVuSans-2e" transform="translate(63.623047 0)"/>
       <use xlink:href="#DejaVuSans-36" transform="translate(95.410156 0)"/>
       <use xlink:href="#DejaVuSans-34" transform="translate(159.033203 0)"/>
      </g>
     </g>
    </g>
    <g id="text_19">
     <!-- Loss -->
     <g transform="translate(14.798437 310.485313) rotate(-90) scale(0.1 -0.1)">
      <defs>
       <path id="DejaVuSans-4c" d="M 628 4666 
L 1259 4666 
L 1259 531 
L 3531 531 
L 3531 0 
L 628 0 
L 628 4666 
z
" transform="scale(0.015625)"/>
      </defs>
      <use xlink:href="#DejaVuSans-4c"/>
      <use xlink:href="#DejaVuSans-6f" transform="translate(53.962891 0)"/>
      <use xlink:href="#DejaVuSans-73" transform="translate(115.144531 0)"/>
      <use xlink:href="#DejaVuSans-73" transform="translate(167.244141 0)"/>
     </g>
    </g>
   </g>
   <g id="line2d_35">
    <path d="M 75.507386 47.518125 
L 76.142271 150.433898 
L 77.41204 231.413249 
L 78.046924 267.721624 
L 78.681809 290.718828 
L 79.951578 315.989712 
L 80.586462 326.928652 
L 81.856232 343.66696 
L 83.126001 355.906503 
L 84.39577 364.673025 
L 85.665539 372.13465 
L 86.935308 377.976286 
L 88.205077 382.573602 
L 90.10973 388.071666 
L 91.379499 391.079055 
L 93.284153 395.606978 
L 94.553922 400.326127 
L 97.728344 412.650432 
L 99.632998 417.942804 
L 100.267882 419.282285 
L 101.537651 422.380992 
L 102.80742 425.199868 
L 104.07719 427.809211 
L 104.712074 428.631976 
L 105.346959 430.066844 
L 106.616728 431.453565 
L 107.251612 432.433199 
L 107.886497 433.666443 
L 109.156266 435.04774 
L 110.426035 436.898059 
L 111.060919 437.834293 
L 112.965573 440.090118 
L 113.600457 441.289005 
L 114.235342 443.175489 
L 115.505111 445.27648 
L 116.139995 445.947124 
L 117.409764 447.986181 
L 118.044649 448.588337 
L 119.314418 450.613607 
L 119.949302 451.112917 
L 121.219071 453.416887 
L 121.853956 454.094312 
L 122.48884 455.158483 
L 123.123725 455.71498 
L 124.393494 457.139901 
L 125.028379 457.641246 
L 125.663263 458.538151 
L 126.298148 459.157711 
L 126.933032 459.505804 
L 127.567917 460.360667 
L 128.202801 460.774988 
L 129.47257 462.081468 
L 133.916762 465.477862 
L 134.551646 466.288422 
L 135.821415 466.78728 
L 136.4563 467.418142 
L 137.091184 467.75855 
L 138.360953 469.54038 
L 138.995838 470.484301 
L 139.630722 471.005762 
L 140.265607 471.743765 
L 140.900491 472.007999 
L 141.535376 473.112856 
L 142.17026 473.677264 
L 142.805145 473.983089 
L 143.440029 474.647404 
L 144.074914 474.927235 
L 144.709798 475.844935 
L 145.344683 477.7382 
L 145.979567 478.231633 
L 146.614452 479.118141 
L 147.249337 479.295578 
L 147.884221 479.885076 
L 148.519106 480.704677 
L 150.423759 482.425252 
L 151.058644 482.747803 
L 152.328413 484.432438 
L 152.963297 484.689665 
L 153.598182 485.414332 
L 154.233066 485.83114 
L 154.867951 486.824561 
L 155.502835 488.229592 
L 156.13772 488.991554 
L 156.772604 490.039224 
L 157.407489 490.384605 
L 158.042373 491.219124 
L 159.312142 494.181081 
L 159.947027 495.226942 
L 160.581911 495.794967 
L 161.216796 496.830883 
L 162.486565 498.565246 
L 163.756334 505.302657 
L 164.391218 506.660446 
L 165.026103 507.313912 
L 165.660987 508.284504 
L 166.930756 509.792832 
L 167.565641 510.248744 
L 168.200526 511.149717 
L 168.83541 511.429322 
L 170.105179 512.39675 
L 170.740064 512.479026 
L 171.374948 513.518559 
L 172.009833 513.924291 
L 173.279602 514.255884 
L 173.914486 514.893075 
L 174.549371 515.275073 
L 175.184255 515.167255 
L 175.81914 515.757431 
L 176.454024 515.905032 
L 177.088909 516.81482 
L 177.723793 516.104846 
L 178.358678 517.252197 
L 179.628447 517.685731 
L 180.263331 517.805078 
L 180.898216 517.776597 
L 181.5331 518.566136 
L 182.167985 518.442043 
L 183.437754 518.875577 
L 184.707523 519.604538 
L 186.612176 520.129164 
L 187.247061 520.533314 
L 187.881945 520.352261 
L 189.151715 520.8362 
L 189.786599 521.443103 
L 190.421484 521.214582 
L 191.056368 521.571491 
L 191.691253 521.735592 
L 192.326137 521.689707 
L 192.961022 521.425246 
L 193.595906 522.068315 
L 196.135444 522.712965 
L 196.770329 522.453477 
L 197.405213 522.864182 
L 199.309867 523.620267 
L 199.944751 523.465434 
L 200.579636 523.495722 
L 201.21452 523.650556 
L 201.849405 523.946887 
L 202.484289 523.54658 
L 203.119174 524.25 
L 203.754058 523.909366 
L 204.388943 524.231013 
L 205.023827 524.87928 
L 206.293596 524.394662 
L 207.563365 525.048127 
L 208.19825 524.959748 
L 208.833134 525.530259 
L 209.468019 525.426509 
L 210.102903 526.422643 
L 210.737788 526.623814 
L 211.372673 526.963318 
L 212.007557 527.081308 
L 212.642442 527.556206 
L 213.277326 527.855702 
L 213.912211 527.909272 
L 214.547095 528.454242 
L 215.18198 528.339642 
L 215.816864 528.753511 
L 216.451749 528.763909 
L 217.721518 529.189532 
L 218.356402 529.480212 
L 218.991287 529.459417 
L 219.626171 529.738344 
L 220.89594 529.440656 
L 221.530825 529.80864 
L 222.165709 530.512964 
L 223.435478 530.737416 
L 224.070363 530.446284 
L 225.340132 531.087544 
L 225.975016 530.951697 
L 226.609901 531.209828 
L 229.149439 531.607423 
L 230.419208 532.421147 
L 231.688977 532.125946 
L 232.323862 531.948057 
L 232.958746 532.45234 
L 233.593631 532.285527 
L 234.228515 532.992789 
L 234.8634 532.283944 
L 235.498284 532.90893 
L 236.133169 532.856038 
L 236.768053 533.100833 
L 237.402938 532.909608 
L 238.037822 533.231481 
L 238.672707 533.218371 
L 239.307591 533.505435 
L 239.942476 533.221535 
L 240.57736 533.27601 
L 241.212245 533.790238 
L 241.847129 533.964511 
L 242.482014 533.664789 
L 243.116898 533.86709 
L 243.751783 534.31509 
L 244.386667 534.042493 
L 245.021552 533.622747 
L 245.656436 534.499987 
L 246.291321 534.253157 
L 246.926205 534.429238 
L 247.56109 534.211567 
L 248.195974 534.669739 
L 248.830859 534.737775 
L 249.465743 535.642817 
L 250.735512 535.776177 
L 251.370397 536.325441 
L 252.005281 536.127435 
L 253.909935 536.238644 
L 254.54482 536.575209 
L 255.179704 536.766887 
L 255.814589 536.820005 
L 256.449473 537.030217 
L 257.084358 536.7861 
L 257.719242 536.777058 
L 258.354127 537.52365 
L 258.989011 536.993825 
L 260.25878 537.671477 
L 260.893665 537.36181 
L 261.528549 537.831735 
L 262.163434 537.572926 
L 262.798318 538.092805 
L 263.433203 537.962835 
L 264.068087 538.29375 
L 264.702972 538.244248 
L 265.972741 538.49379 
L 266.607625 539.024519 
L 267.24251 538.604095 
L 267.877394 539.116289 
L 268.512279 539.208512 
L 269.147163 538.929585 
L 270.416932 539.161496 
L 271.051817 539.309323 
L 271.686701 539.646566 
L 272.321586 539.466869 
L 272.95647 539.635717 
L 273.591355 539.232471 
L 274.226239 539.52496 
L 274.861124 540.05162 
L 275.496009 539.615826 
L 278.035547 540.32806 
L 278.670431 539.795975 
L 279.305316 540.549574 
L 280.575085 540.172097 
L 281.209969 540.762273 
L 281.844854 540.48199 
L 282.479738 540.416214 
L 283.114623 540.834378 
L 284.384392 541.010007 
L 285.019276 540.682709 
L 285.654161 540.81946 
L 286.289045 540.662592 
L 286.92393 541.050241 
L 287.558814 540.831439 
L 288.193699 541.373696 
L 290.733237 541.359004 
L 291.368121 541.912562 
L 292.003006 541.845882 
L 292.63789 541.554072 
L 293.272775 541.51994 
L 294.542544 541.769709 
L 295.177428 541.508187 
L 295.812313 541.928385 
L 296.447197 542.193523 
L 297.082082 541.767674 
L 297.716967 542.295691 
L 298.351851 541.951214 
L 298.986736 542.082088 
L 299.62162 541.97427 
L 300.256505 542.406222 
L 300.891389 542.562864 
L 301.526274 542.072369 
L 302.161158 542.421366 
L 302.796043 542.184256 
L 303.430927 542.608071 
L 304.065812 542.156002 
L 305.335581 543.040475 
L 306.60535 542.782343 
L 307.240234 543.089524 
L 307.875119 542.98261 
L 308.510003 543.122299 
L 309.144888 543.517633 
L 309.779772 543.219268 
L 310.414657 543.685577 
L 311.049541 543.561484 
L 311.684426 543.288887 
L 312.31931 543.657097 
L 312.954195 543.370033 
L 313.589079 543.577759 
L 314.223964 543.587252 
L 314.858848 543.963374 
L 315.493733 544.125666 
L 316.128617 544.164996 
L 316.763502 543.769888 
L 317.398386 543.866857 
L 318.033271 544.368427 
L 318.668156 544.075487 
L 319.30304 544.243882 
L 319.937925 544.16138 
L 320.572809 544.327967 
L 322.477463 544.281178 
L 323.112347 544.535693 
L 323.747232 544.954987 
L 324.382116 544.269198 
L 325.651885 544.201388 
L 328.191423 544.780714 
L 329.461192 544.424032 
L 330.730961 545.086539 
L 331.365846 544.505404 
L 332.00073 545.149829 
L 333.270499 544.680807 
L 333.905384 545.572061 
L 334.540268 544.900287 
L 335.175153 545.116602 
L 335.810037 544.780488 
L 336.444922 545.048339 
L 337.079806 545.008331 
L 337.714691 545.084957 
L 338.349575 545.456784 
L 339.619344 545.037942 
L 340.254229 545.321163 
L 340.889114 545.418132 
L 341.523998 544.919952 
L 342.158883 545.349417 
L 342.793767 545.242051 
L 344.063536 545.277312 
L 344.698421 545.66903 
L 345.333305 545.783855 
L 345.96819 545.638289 
L 346.603074 545.807137 
L 347.237959 545.835617 
L 347.872843 545.437571 
L 349.142612 545.841042 
L 349.777497 546.075892 
L 350.412381 546.10166 
L 351.047266 545.460174 
L 351.68215 545.614556 
L 352.317035 545.567314 
L 352.951919 545.865228 
L 353.586804 545.42107 
L 354.221688 546.16834 
L 354.856573 546.185971 
L 355.491457 545.794479 
L 356.126342 546.131497 
L 356.761226 546.129688 
L 357.396111 546.300344 
L 358.030995 546.092845 
L 358.66588 546.3399 
L 359.935649 546.01215 
L 360.570533 546.594189 
L 361.205418 546.095331 
L 361.840303 546.155908 
L 362.475187 546.498803 
L 363.110072 546.525249 
L 363.744956 545.951799 
L 364.379841 546.679856 
L 365.014725 546.074084 
L 365.64961 546.754674 
L 366.919379 546.253555 
L 367.554263 546.467158 
L 368.189148 546.37358 
L 369.458917 546.618149 
L 370.093801 546.28633 
L 370.728686 546.680986 
L 371.36357 546.32679 
L 371.998455 546.922617 
L 372.633339 546.491343 
L 373.903108 546.471452 
L 374.537993 546.897754 
L 375.172877 546.907247 
L 375.807762 546.728228 
L 376.442646 546.768236 
L 377.077531 546.655897 
L 377.712415 547.148652 
L 378.3473 546.746536 
L 378.982184 546.795586 
L 380.251953 547.252402 
L 381.521722 546.734105 
L 382.156607 547.109548 
L 383.426376 546.629451 
L 384.061261 547.054395 
L 384.696145 546.761003 
L 385.33103 547.0171 
L 385.965914 547.064793 
L 387.235683 547.358412 
L 387.870568 547.159954 
L 388.505452 547.204708 
L 389.140337 546.715796 
L 389.775221 547.565007 
L 390.410106 547.39955 
L 391.04499 546.941152 
L 391.679875 546.970311 
L 392.314759 547.456285 
L 393.584528 547.006024 
L 394.219413 546.90024 
L 394.854297 547.35796 
L 395.489182 547.089657 
L 396.124066 547.486799 
L 396.758951 547.613605 
L 397.393835 547.329027 
L 398.02872 547.379207 
L 398.663604 547.107062 
L 399.298489 547.658134 
L 399.933373 547.735211 
L 400.568258 547.014839 
L 401.203142 547.426222 
L 401.838027 547.204256 
L 402.472911 547.77748 
L 403.107796 547.636208 
L 403.74268 547.145261 
L 404.377565 547.76663 
L 405.01245 547.857496 
L 405.647334 547.468717 
L 406.282219 547.218497 
L 406.917103 547.210359 
L 407.551988 547.460806 
L 408.186872 547.131925 
L 408.821757 547.630331 
L 409.456641 547.654065 
L 410.091526 547.529972 
L 410.72641 548.020467 
L 411.361295 547.336261 
L 411.996179 547.161084 
L 412.631064 548.01572 
L 413.265948 547.913101 
L 413.900833 547.475724 
L 414.535717 547.800987 
L 415.170602 547.730917 
L 415.805486 548.158348 
L 416.440371 548.141621 
L 417.075255 547.840091 
L 417.71014 547.750808 
L 418.345024 547.813871 
L 418.979909 547.742671 
L 420.249678 548.183438 
L 420.884562 547.73702 
L 421.519447 548.542833 
L 422.154331 547.996733 
L 422.789216 547.978425 
L 423.4241 547.807316 
L 424.058985 547.961698 
L 424.693869 547.471881 
L 425.963638 548.321545 
L 427.233408 548.070647 
L 427.868292 548.346409 
L 428.503177 548.066126 
L 429.138061 548.059119 
L 429.772946 548.178917 
L 430.40783 547.914683 
L 431.042715 548.157896 
L 431.677599 547.783357 
L 432.312484 548.522942 
L 432.947368 548.093024 
L 433.582253 548.146368 
L 434.217137 548.087825 
L 436.121791 548.455583 
L 436.756675 547.972322 
L 437.39156 548.097771 
L 438.026444 548.51164 
L 438.661329 548.657658 
L 439.296213 548.225254 
L 439.931098 548.586683 
L 440.565982 547.973678 
L 441.200867 548.47118 
L 441.835751 548.295099 
L 442.470636 547.879195 
L 443.10552 548.055728 
L 443.740405 548.045331 
L 444.375289 548.442021 
L 445.645058 548.269105 
L 446.279943 548.559107 
L 446.914827 548.67122 
L 447.549712 548.413993 
L 448.184597 548.811136 
L 448.819481 548.591882 
L 449.454366 548.549614 
L 450.08925 548.679132 
L 450.724135 548.564758 
L 451.359019 548.203103 
L 451.993904 548.307757 
L 452.628788 548.782203 
L 453.263673 548.636637 
L 453.898557 548.324257 
L 454.533442 548.776552 
L 455.168326 548.5139 
L 456.438095 548.783786 
L 457.07298 548.464399 
L 457.707864 548.756435 
L 458.342749 548.558655 
L 459.612518 548.994902 
L 460.247402 548.570635 
L 460.882287 548.406986 
L 461.517171 548.832835 
L 462.152056 548.272269 
L 462.78694 548.828314 
L 463.421825 548.912851 
L 464.056709 548.657884 
L 464.691594 548.090312 
L 465.961363 549.328755 
L 466.596247 548.989929 
L 467.231132 549.234498 
L 468.500901 548.973881 
L 469.135785 549.195168 
L 469.77067 548.877138 
L 471.040439 548.744003 
L 471.675324 549.250999 
L 472.310208 548.988799 
L 472.945093 549.177312 
L 474.214862 549.178216 
L 474.849746 548.488132 
L 475.484631 549.426628 
L 476.119515 548.824924 
L 477.389284 549.106563 
L 478.024169 549.00982 
L 478.659053 549.052993 
L 479.928822 549.380969 
L 480.563707 549.04576 
L 481.198591 549.369441 
L 481.833476 549.40425 
L 482.46836 549.059548 
L 483.103245 549.364016 
L 484.373014 549.435443 
L 485.642783 548.814978 
L 486.277667 549.205566 
L 486.912552 549.726801 
L 487.547436 549.165558 
L 488.182321 549.40425 
L 490.086974 549.639552 
L 490.721859 549.181154 
L 491.356744 549.490821 
L 491.991628 549.414874 
L 492.626513 549.859258 
L 493.261397 549.440868 
L 493.896282 549.748953 
L 494.531166 549.073336 
L 495.166051 549.163297 
L 495.800935 549.486979 
L 498.340473 549.455334 
L 498.975358 549.140242 
L 499.610242 549.643621 
L 500.245127 549.253937 
L 501.514896 549.479746 
L 502.14978 549.220484 
L 502.784665 549.613558 
L 504.054434 549.445615 
L 504.689318 549.366276 
L 505.324203 549.736973 
L 505.959087 549.62486 
L 506.593972 549.250547 
L 507.228856 549.984707 
L 508.498625 549.467314 
L 509.768394 549.473643 
L 510.403279 549.892259 
L 511.038163 549.634579 
L 511.673048 549.248286 
L 512.307933 549.775173 
L 514.212586 550.025619 
L 514.847471 549.460985 
L 515.482355 549.916897 
L 516.11724 549.536028 
L 516.752124 550.189042 
L 517.387009 550.086874 
L 518.021893 549.564961 
L 518.656778 549.910794 
L 519.291662 550.022229 
L 519.926547 549.498733 
L 520.561431 549.983125 
L 521.196316 549.823544 
L 521.8312 549.910794 
L 522.466085 549.866265 
L 523.735854 549.55705 
L 524.370738 550.286237 
L 525.640507 549.23043 
L 526.275392 550.100211 
L 528.180045 550.066305 
L 528.81493 549.839141 
L 529.449814 550.006858 
L 530.084699 549.838463 
L 530.719583 550.352239 
L 531.354468 549.722281 
L 531.989352 550.140445 
L 532.624237 550.377555 
L 533.894006 549.940404 
L 534.528891 550.248941 
L 535.163775 550.099984 
L 536.433544 550.360828 
L 537.068429 550.710052 
L 537.703313 550.528546 
L 538.338198 550.501648 
L 538.973082 549.999851 
L 539.607967 550.119649 
L 540.242851 550.819678 
L 540.877736 550.653995 
L 542.147505 550.836857 
L 542.782389 550.222495 
L 543.417274 550.836857 
L 544.052158 550.483339 
L 544.687043 551.12166 
L 545.321927 550.619186 
L 546.591696 550.768821 
L 547.226581 550.692647 
L 547.861465 550.871666 
L 548.49635 550.564711 
L 549.131234 550.560643 
L 549.766119 551.210266 
L 550.401003 550.783061 
L 551.035888 550.577369 
L 551.670772 551.034185 
L 552.305657 550.59161 
L 552.940541 550.750512 
L 554.21031 550.642467 
L 554.845195 550.341841 
L 555.48008 550.988526 
L 556.114964 550.550697 
L 556.749849 550.43429 
L 557.384733 550.760231 
L 558.654502 550.813801 
L 559.289387 551.317406 
L 560.559156 551.042096 
L 561.19404 551.13251 
L 561.828925 550.779218 
L 562.463809 551.036898 
L 563.098694 550.815158 
L 563.733578 551.107194 
L 565.003347 551.153305 
L 565.638232 550.679085 
L 566.273116 550.849967 
L 566.908001 550.88568 
L 567.542885 551.421156 
L 568.17777 551.145394 
L 568.812654 551.335489 
L 570.717308 550.785547 
L 571.352192 551.096571 
L 571.987077 550.986266 
L 573.256846 551.005027 
L 573.89173 550.545498 
L 574.526615 550.988526 
L 575.161499 551.195574 
L 575.796384 550.908736 
L 576.431268 551.180203 
L 577.066153 551.07668 
L 577.701038 550.860139 
L 579.605691 551.204163 
L 580.240576 551.107872 
L 580.87546 551.207102 
L 581.510345 550.637042 
L 582.145229 551.518125 
L 582.780114 551.14336 
L 582.780114 551.14336 
" clip-path="url(#p1a16e170b7)" style="fill: none; stroke: #1f77b4; stroke-width: 1.5; stroke-linecap: square"/>
   </g>
   <g id="line2d_36">
    <path d="M 75.507386 117.036395 
L 76.142271 170.130546 
L 76.777155 210.630731 
L 78.046924 276.207412 
L 79.316693 303.685297 
L 79.951578 308.601548 
L 80.586462 318.199877 
L 81.221347 336.416677 
L 81.856232 339.375242 
L 83.760885 357.879332 
L 84.39577 359.016285 
L 85.030654 362.844632 
L 85.665539 368.048624 
L 86.300423 364.177331 
L 88.205077 375.921632 
L 88.839961 375.411473 
L 89.474846 377.967019 
L 90.10973 379.527787 
L 91.379499 385.629589 
L 92.014384 377.434708 
L 92.649268 383.429595 
L 93.284153 383.302563 
L 93.919037 390.254707 
L 94.553922 386.729473 
L 95.188806 394.384357 
L 95.823691 398.768523 
L 96.458575 399.196858 
L 97.09346 398.32866 
L 97.728344 405.846115 
L 98.363229 405.885671 
L 99.632998 410.627876 
L 100.267882 414.806123 
L 100.902767 413.687253 
L 101.537651 414.954854 
L 102.172536 415.822375 
L 102.80742 409.226914 
L 103.442305 420.13014 
L 104.07719 414.974519 
L 104.712074 414.859468 
L 105.346959 423.870559 
L 105.981843 421.015518 
L 106.616728 423.411709 
L 107.251612 418.998612 
L 107.886497 423.716404 
L 108.521381 421.305972 
L 109.156266 428.733466 
L 109.79115 426.497307 
L 110.426035 427.283229 
L 111.060919 426.227647 
L 111.695804 427.827746 
L 112.965573 437.505865 
L 113.600457 429.812555 
L 114.870226 438.137858 
L 115.505111 435.011801 
L 116.139995 438.978932 
L 116.77488 432.132121 
L 117.409764 436.379987 
L 118.044649 439.067764 
L 119.314418 445.919774 
L 119.949302 435.204608 
L 120.584187 444.778752 
L 121.853956 445.137242 
L 122.48884 445.533707 
L 123.123725 448.147344 
L 123.758609 446.145808 
L 124.393494 448.448196 
L 125.028379 443.633887 
L 125.663263 453.822619 
L 126.298148 455.082083 
L 126.933032 448.556919 
L 127.567917 444.720887 
L 128.202801 453.002791 
L 128.837686 455.491883 
L 129.47257 452.703522 
L 130.107455 458.955184 
L 130.742339 456.390597 
L 131.377224 457.59197 
L 132.012108 451.811364 
L 132.646993 457.679898 
L 133.281877 448.671292 
L 133.916762 459.36182 
L 134.551646 454.241913 
L 135.186531 460.855456 
L 135.821415 459.408609 
L 136.4563 453.349754 
L 137.091184 459.819088 
L 137.726069 458.870873 
L 138.360953 458.337884 
L 138.995838 458.112076 
L 139.630722 448.063937 
L 140.265607 459.615431 
L 140.900491 460.369256 
L 141.535376 461.74671 
L 142.17026 460.067048 
L 142.805145 466.361657 
L 143.440029 471.303902 
L 144.074914 470.948349 
L 144.709798 472.58823 
L 145.344683 469.477091 
L 145.979567 476.374082 
L 146.614452 476.220378 
L 147.249337 463.343192 
L 147.884221 470.88393 
L 148.519106 470.760289 
L 149.15399 465.656655 
L 149.788875 472.396779 
L 150.423759 472.397909 
L 151.058644 470.737685 
L 151.693528 469.66583 
L 152.328413 479.435945 
L 152.963297 475.476499 
L 154.233066 475.978747 
L 154.867951 482.902863 
L 155.502835 474.081188 
L 156.13772 479.707639 
L 156.772604 481.007111 
L 157.407489 482.820134 
L 158.042373 484.023994 
L 158.677258 483.933128 
L 159.312142 479.874452 
L 159.947027 487.602572 
L 160.581911 492.94874 
L 161.216796 491.614233 
L 161.85168 484.306311 
L 162.486565 487.326584 
L 163.121449 502.630025 
L 163.756334 502.002101 
L 165.026103 490.259156 
L 166.295872 504.831149 
L 166.930756 500.489704 
L 167.565641 499.291495 
L 168.200526 496.652542 
L 168.83541 507.127885 
L 169.470295 508.255572 
L 170.105179 510.918484 
L 170.740064 503.103793 
L 171.374948 508.614288 
L 172.009833 503.495059 
L 172.644717 507.365674 
L 173.279602 500.129857 
L 174.549371 495.088383 
L 175.81914 505.833612 
L 176.454024 510.246258 
L 177.088909 510.027908 
L 177.723793 511.993504 
L 178.358678 510.099335 
L 178.993562 515.107356 
L 179.628447 511.022686 
L 180.263331 498.998328 
L 180.898216 505.224223 
L 181.5331 514.875218 
L 182.167985 505.087698 
L 182.802869 513.206179 
L 183.437754 516.679426 
L 184.072638 510.924813 
L 184.707523 514.059686 
L 185.342407 508.356383 
L 185.977292 512.889053 
L 186.612176 510.329664 
L 187.247061 501.442891 
L 187.881945 497.903643 
L 188.51683 520.219352 
L 189.151715 510.652668 
L 189.786599 518.854556 
L 190.421484 515.82931 
L 191.056368 517.27254 
L 191.691253 505.67584 
L 192.326137 512.152633 
L 192.961022 506.974408 
L 193.595906 517.217162 
L 194.230791 504.511536 
L 194.865675 507.472136 
L 195.50056 515.350117 
L 196.135444 517.188455 
L 196.770329 511.983785 
L 197.405213 510.585761 
L 198.040098 520.70171 
L 198.674982 506.520757 
L 199.309867 506.101689 
L 199.944751 509.395238 
L 200.579636 517.482752 
L 201.21452 511.641343 
L 201.849405 513.295011 
L 202.484289 521.390211 
L 203.119174 507.039958 
L 203.754058 509.448808 
L 204.388943 514.814415 
L 205.023827 505.669737 
L 205.658712 515.43488 
L 206.293596 513.546135 
L 206.928481 517.339899 
L 207.563365 509.415807 
L 208.19825 516.277988 
L 208.833134 519.734508 
L 209.468019 523.921571 
L 210.102903 515.233709 
L 210.737788 525.262634 
L 211.372673 518.256469 
L 212.642442 526.994285 
L 213.277326 509.45152 
L 213.912211 528.708982 
L 214.547095 518.411302 
L 215.18198 513.314676 
L 215.816864 520.505512 
L 216.451749 512.730603 
L 217.086633 522.597461 
L 217.721518 516.303756 
L 218.356402 525.239805 
L 218.991287 523.021276 
L 219.626171 514.200505 
L 220.261056 527.167879 
L 220.89594 527.108432 
L 222.165709 514.25498 
L 222.800594 526.465816 
L 223.435478 526.195931 
L 224.070363 522.738959 
L 224.705247 523.25477 
L 225.340132 520.578295 
L 226.609901 531.969304 
L 227.87967 515.114363 
L 228.514554 525.826816 
L 229.149439 523.938298 
L 229.784323 519.514351 
L 230.419208 526.101448 
L 231.054092 516.70994 
L 232.323862 531.677042 
L 232.958746 520.279025 
L 233.593631 520.915312 
L 234.228515 526.391677 
L 234.8634 524.419073 
L 235.498284 519.808874 
L 236.133169 531.368731 
L 236.768053 523.44283 
L 237.402938 520.774945 
L 238.037822 516.119312 
L 238.672707 529.784455 
L 239.307591 526.133545 
L 239.942476 529.012095 
L 240.57736 521.154231 
L 241.212245 528.605233 
L 241.847129 524.685794 
L 242.482014 527.214216 
L 243.116898 512.144721 
L 243.751783 526.3641 
L 244.386667 521.245097 
L 245.656436 532.104925 
L 246.291321 530.73606 
L 246.926205 516.391684 
L 248.830859 525.716512 
L 249.465743 532.399222 
L 250.100628 519.339626 
L 250.735512 523.471537 
L 251.370397 530.648359 
L 252.005281 523.475153 
L 252.640166 521.553634 
L 253.27505 534.558077 
L 253.909935 534.15438 
L 254.54482 510.430476 
L 255.179704 530.365589 
L 255.814589 531.895843 
L 256.449473 534.93985 
L 257.084358 533.030536 
L 257.719242 532.238285 
L 258.354127 525.310328 
L 258.989011 529.695171 
L 260.25878 529.417149 
L 260.893665 534.400079 
L 261.528549 524.278706 
L 262.163434 527.145502 
L 262.798318 524.072789 
L 263.433203 528.801657 
L 264.068087 535.170631 
L 265.337856 520.603385 
L 265.972741 533.627041 
L 266.607625 533.025564 
L 267.24251 530.163288 
L 267.877394 536.413821 
L 268.512279 533.904612 
L 269.147163 524.406868 
L 269.782048 533.153047 
L 270.416932 522.265191 
L 271.051817 531.221356 
L 271.686701 531.038042 
L 272.321586 523.522621 
L 272.95647 523.820308 
L 273.591355 535.266696 
L 274.226239 528.333991 
L 274.861124 537.028409 
L 275.496009 530.906264 
L 276.130893 529.953076 
L 276.765778 537.700183 
L 277.400662 523.495949 
L 278.035547 527.756473 
L 278.670431 535.566191 
L 279.305316 528.814315 
L 279.9402 533.125245 
L 280.575085 529.001019 
L 281.209969 539.073569 
L 281.844854 514.712925 
L 282.479738 536.82656 
L 283.114623 533.644672 
L 283.749507 528.493798 
L 284.384392 525.646893 
L 285.019276 535.155939 
L 285.654161 526.763277 
L 286.289045 516.165875 
L 286.92393 532.379783 
L 287.558814 538.890933 
L 288.193699 523.031448 
L 288.828583 530.672996 
L 289.463468 529.201738 
L 290.098352 531.822382 
L 290.733237 538.317483 
L 291.368121 532.798399 
L 292.003006 528.723449 
L 292.63789 525.992048 
L 293.272775 533.39287 
L 293.907659 531.813792 
L 294.542544 536.195245 
L 295.177428 518.30258 
L 295.812313 521.723386 
L 296.447197 531.048666 
L 297.082082 529.007122 
L 297.716967 532.126172 
L 298.351851 529.14862 
L 298.986736 537.442052 
L 299.62162 534.029157 
L 300.256505 529.573338 
L 300.891389 532.712054 
L 301.526274 534.431272 
L 302.161158 519.195868 
L 302.796043 534.226485 
L 303.430927 538.292394 
L 304.065812 532.994823 
L 304.700696 537.790371 
L 305.335581 528.702653 
L 305.970465 537.021176 
L 306.60535 541.315831 
L 307.240234 530.690175 
L 307.875119 536.075899 
L 308.510003 534.088378 
L 309.144888 525.343329 
L 309.779772 528.402932 
L 310.414657 536.162018 
L 311.049541 538.15293 
L 311.684426 528.643658 
L 312.31931 538.169205 
L 312.954195 534.523268 
L 313.589079 543.616185 
L 314.223964 532.94939 
L 314.858848 537.932321 
L 315.493733 536.571141 
L 316.128617 539.908314 
L 316.763502 536.813224 
L 317.398386 538.846856 
L 318.033271 540.490127 
L 318.668156 521.585505 
L 319.30304 538.659474 
L 319.937925 540.893373 
L 320.572809 526.790628 
L 321.207694 537.553939 
L 321.842578 538.38326 
L 322.477463 529.549831 
L 323.112347 522.555645 
L 323.747232 537.79783 
L 325.017001 533.826178 
L 325.651885 536.535427 
L 326.28677 540.974971 
L 326.921654 533.599917 
L 327.556539 529.989694 
L 328.191423 540.059758 
L 328.826308 540.569465 
L 329.461192 530.55478 
L 330.096077 538.946085 
L 330.730961 531.763839 
L 331.365846 540.59772 
L 332.00073 536.03996 
L 332.635615 537.315925 
L 333.270499 529.083296 
L 333.905384 539.090522 
L 334.540268 536.176937 
L 335.175153 531.820121 
L 335.810037 539.679341 
L 336.444922 541.16597 
L 337.079806 545.258777 
L 337.714691 533.730339 
L 338.349575 537.779295 
L 338.98446 539.380298 
L 339.619344 536.220109 
L 340.254229 526.103935 
L 340.889114 532.997761 
L 341.523998 534.643066 
L 342.158883 538.46192 
L 342.793767 539.0912 
L 343.428652 529.955337 
L 344.063536 528.367444 
L 344.698421 529.700144 
L 345.333305 532.780768 
L 345.96819 523.224933 
L 346.603074 542.210702 
L 347.237959 535.688476 
L 347.872843 532.967473 
L 348.507728 539.761166 
L 349.142612 535.830652 
L 349.777497 536.138511 
L 350.412381 534.098323 
L 351.047266 536.621999 
L 351.68215 535.568226 
L 352.317035 536.587641 
L 353.586804 540.756396 
L 354.221688 518.798951 
L 354.856573 537.186181 
L 355.491457 535.980513 
L 356.126342 524.769427 
L 356.761226 539.982454 
L 357.396111 539.753481 
L 358.030995 528.450173 
L 358.66588 537.472566 
L 359.300764 541.359456 
L 359.935649 537.762569 
L 361.205418 526.932803 
L 361.840303 525.481436 
L 362.475187 541.54277 
L 363.110072 537.94091 
L 363.744956 521.916419 
L 364.379841 542.728321 
L 365.014725 539.828072 
L 365.64961 535.239119 
L 366.284494 536.22463 
L 366.919379 535.641687 
L 367.554263 543.534586 
L 368.189148 530.274724 
L 368.824032 531.041207 
L 369.458917 503.366671 
L 370.093801 527.190031 
L 370.728686 537.231162 
L 371.36357 544.835415 
L 371.998455 538.358396 
L 372.633339 535.347616 
L 373.268224 522.391092 
L 373.903108 535.371124 
L 374.537993 531.722022 
L 375.172877 536.453151 
L 375.807762 530.017044 
L 376.442646 541.288481 
L 377.077531 528.994916 
L 377.712415 541.978338 
L 378.3473 543.677214 
L 378.982184 541.841362 
L 379.617069 531.682919 
L 380.251953 538.35817 
L 380.886838 529.98766 
L 381.521722 540.158083 
L 382.156607 530.701929 
L 382.791491 539.508911 
L 383.426376 533.513798 
L 384.061261 541.08618 
L 384.696145 530.967293 
L 385.33103 538.417165 
L 385.965914 534.039328 
L 386.600799 541.880465 
L 387.235683 538.375348 
L 387.870568 529.299385 
L 388.505452 538.851603 
L 389.140337 531.201917 
L 390.410106 540.138418 
L 391.04499 511.562456 
L 391.679875 536.989983 
L 392.314759 540.205324 
L 392.949644 538.963942 
L 393.584528 539.557961 
L 394.219413 541.328715 
L 394.854297 543.983265 
L 395.489182 527.037457 
L 396.124066 544.73822 
L 396.758951 535.942991 
L 397.393835 541.887925 
L 398.02872 539.030622 
L 398.663604 535.103273 
L 399.298489 535.568452 
L 399.933373 543.462029 
L 400.568258 537.279985 
L 401.203142 533.761758 
L 401.838027 529.33216 
L 402.472911 543.473331 
L 403.107796 539.720254 
L 403.74268 511.845452 
L 404.377565 533.860083 
L 405.01245 543.723777 
L 405.647334 536.692747 
L 406.282219 541.131161 
L 406.917103 522.687423 
L 407.551988 538.261879 
L 408.186872 545.331108 
L 408.821757 544.968323 
L 409.456641 538.046694 
L 410.091526 537.230031 
L 410.72641 538.18887 
L 411.361295 536.963989 
L 411.996179 545.059641 
L 412.631064 538.615397 
L 413.265948 539.009149 
L 413.900833 541.193095 
L 414.535717 528.286524 
L 415.170602 537.55846 
L 415.805486 537.059149 
L 416.440371 535.320266 
L 417.075255 541.308372 
L 417.71014 529.964152 
L 418.345024 537.287218 
L 418.979909 537.80981 
L 419.614793 524.775756 
L 420.249678 537.41877 
L 420.884562 528.326984 
L 421.519447 544.865929 
L 422.154331 542.129782 
L 422.789216 541.818984 
L 423.4241 539.395894 
L 424.058985 534.134263 
L 424.693869 537.335364 
L 425.328754 543.058557 
L 425.963638 537.608865 
L 426.598523 537.596659 
L 427.233408 543.055393 
L 427.868292 549.511617 
L 428.503177 538.09823 
L 429.138061 534.381092 
L 429.772946 542.565124 
L 430.40783 532.764946 
L 431.042715 539.888197 
L 431.677599 535.589247 
L 432.312484 541.572606 
L 432.947368 542.695998 
L 433.582253 537.682779 
L 434.217137 547.260539 
L 434.852022 527.571351 
L 435.486906 536.375169 
L 436.121791 540.474531 
L 436.756675 534.333173 
L 437.39156 545.31506 
L 438.026444 537.785172 
L 438.661329 536.919912 
L 439.296213 546.134435 
L 439.931098 532.081191 
L 440.565982 528.802335 
L 441.200867 544.04791 
L 441.835751 513.398083 
L 442.470636 535.719443 
L 443.10552 536.573175 
L 443.740405 535.453852 
L 444.375289 530.768157 
L 445.010174 543.363478 
L 445.645058 541.298201 
L 446.279943 542.712499 
L 446.914827 526.165416 
L 447.549712 541.407601 
L 448.184597 545.758088 
L 448.819481 538.652241 
L 449.454366 539.066336 
L 450.08925 542.297047 
L 450.724135 535.497025 
L 451.359019 544.369558 
L 451.993904 543.181294 
L 452.628788 533.173616 
L 453.263673 535.538389 
L 453.898557 526.510797 
L 454.533442 537.24608 
L 455.168326 533.772834 
L 455.803211 541.697604 
L 456.438095 533.924503 
L 457.707864 543.635171 
L 458.977633 543.44033 
L 459.612518 536.737276 
L 460.247402 524.561927 
L 460.882287 539.388435 
L 461.517171 535.029585 
L 462.152056 537.599824 
L 462.78694 546.198629 
L 463.421825 538.424398 
L 464.056709 543.509044 
L 464.691594 537.435949 
L 465.326478 535.562801 
L 465.961363 543.344265 
L 466.596247 548.575382 
L 467.231132 545.491819 
L 467.866016 545.680558 
L 468.500901 540.954176 
L 469.135785 541.003678 
L 469.77067 547.401811 
L 470.405555 542.206181 
L 471.040439 546.161559 
L 471.675324 548.436597 
L 472.310208 535.453852 
L 472.945093 543.391506 
L 473.579977 536.818875 
L 474.214862 539.093008 
L 475.484631 537.668538 
L 476.119515 544.220827 
L 476.7544 526.177396 
L 477.389284 546.654992 
L 478.024169 542.253422 
L 478.659053 546.37584 
L 479.293938 529.862663 
L 479.928822 547.066601 
L 480.563707 540.074902 
L 481.198591 538.722537 
L 481.833476 544.683293 
L 482.46836 545.685078 
L 483.103245 529.643183 
L 483.738129 541.875267 
L 484.373014 527.132166 
L 485.642783 535.554438 
L 486.277667 544.924698 
L 486.912552 522.723589 
L 487.547436 547.261443 
L 488.182321 542.252066 
L 488.817205 540.554547 
L 489.45209 548.913529 
L 490.086974 534.73122 
L 490.721859 529.242876 
L 491.356744 547.072252 
L 491.991628 546.185293 
L 492.626513 536.449308 
L 493.261397 537.74539 
L 493.896282 544.344016 
L 494.531166 537.584002 
L 495.166051 535.454304 
L 495.800935 539.03989 
L 496.43582 536.323407 
L 497.070704 539.425505 
L 497.705589 540.741252 
L 498.340473 540.381405 
L 498.975358 531.446712 
L 499.610242 538.552333 
L 500.245127 531.22 
L 500.880011 531.922289 
L 501.514896 543.871377 
L 502.14978 544.122728 
L 502.784665 546.477781 
L 503.419549 546.264857 
L 504.054434 536.909288 
L 505.324203 547.266416 
L 505.959087 545.411125 
L 506.593972 542.65825 
L 507.228856 534.538865 
L 507.863741 517.763261 
L 508.498625 539.954199 
L 509.13351 537.393906 
L 509.768394 527.607064 
L 510.403279 541.037583 
L 511.038163 529.331934 
L 511.673048 544.360742 
L 512.307933 535.184419 
L 512.942817 538.076757 
L 513.577702 546.895267 
L 514.212586 539.491055 
L 514.847471 537.011004 
L 515.482355 544.47715 
L 516.11724 548.148176 
L 516.752124 531.086413 
L 517.387009 540.992376 
L 518.021893 541.512933 
L 518.656778 543.360766 
L 519.291662 544.834511 
L 519.926547 539.868306 
L 520.561431 538.274763 
L 521.196316 535.531608 
L 521.8312 540.058853 
L 522.466085 543.714736 
L 523.100969 523.459331 
L 523.735854 544.158215 
L 524.370738 545.129486 
L 525.005623 532.544562 
L 525.640507 526.335394 
L 526.275392 538.45107 
L 526.910276 532.673854 
L 527.545161 543.172253 
L 528.180045 538.154965 
L 528.81493 542.042984 
L 529.449814 543.45457 
L 530.084699 546.986359 
L 530.719583 532.201442 
L 531.354468 539.626675 
L 531.989352 527.022539 
L 532.624237 543.190788 
L 533.259121 540.199221 
L 533.894006 533.188986 
L 534.528891 536.38534 
L 535.163775 545.825446 
L 536.433544 537.236586 
L 537.068429 550.115581 
L 537.703313 534.983474 
L 538.338198 539.946288 
L 538.973082 536.020521 
L 539.607967 534.423135 
L 540.242851 536.596683 
L 540.877736 542.731259 
L 541.51262 540.441756 
L 542.147505 550.946936 
L 542.782389 533.865734 
L 543.417274 548.326744 
L 544.052158 538.198137 
L 544.687043 551.138161 
L 545.321927 548.616972 
L 545.956812 545.106882 
L 546.591696 543.818033 
L 547.226581 540.888174 
L 547.861465 536.145518 
L 548.49635 533.460002 
L 549.131234 531.368731 
L 549.766119 547.139158 
L 550.401003 535.759451 
L 551.035888 542.606036 
L 551.670772 534.6286 
L 552.305657 534.538639 
L 552.940541 534.666348 
L 553.575426 547.444757 
L 554.21031 537.416736 
L 554.845195 535.42379 
L 555.48008 541.66076 
L 556.114964 549.060226 
L 556.749849 547.738376 
L 557.384733 543.311038 
L 558.019618 531.365792 
L 558.654502 547.3175 
L 559.289387 540.30184 
L 559.924271 542.711142 
L 560.559156 542.347679 
L 561.19404 527.60729 
L 561.828925 548.668734 
L 562.463809 546.87402 
L 563.098694 544.389223 
L 563.733578 516.91857 
L 564.368463 538.829 
L 565.003347 538.413096 
L 565.638232 535.49273 
L 566.273116 535.916093 
L 566.908001 528.427569 
L 567.542885 547.719615 
L 568.17777 550.531936 
L 568.812654 540.078744 
L 569.447539 540.718196 
L 570.082423 531.945119 
L 570.717308 526.346244 
L 571.352192 548.431624 
L 571.987077 546.172861 
L 572.621961 545.462208 
L 573.256846 528.676207 
L 573.89173 549.592763 
L 574.526615 546.362278 
L 575.796384 536.478467 
L 576.431268 532.777152 
L 577.066153 538.290359 
L 578.335922 545.73345 
L 578.970807 541.69037 
L 579.605691 532.581406 
L 580.240576 543.290469 
L 580.87546 547.701532 
L 581.510345 546.089228 
L 582.145229 547.947006 
L 582.780114 541.961386 
L 582.780114 541.961386 
" clip-path="url(#p1a16e170b7)" style="fill: none; stroke: #ff7f0e; stroke-width: 1.5; stroke-linecap: square"/>
   </g>
   <g id="patch_3">
    <path d="M 50.14375 576.718125 
L 50.14375 22.318125 
" style="fill: none; stroke: #000000; stroke-width: 0.8; stroke-linejoin: miter; stroke-linecap: square"/>
   </g>
   <g id="patch_4">
    <path d="M 608.14375 576.718125 
L 608.14375 22.318125 
" style="fill: none; stroke: #000000; stroke-width: 0.8; stroke-linejoin: miter; stroke-linecap: square"/>
   </g>
   <g id="patch_5">
    <path d="M 50.14375 576.718125 
L 608.14375 576.718125 
" style="fill: none; stroke: #000000; stroke-width: 0.8; stroke-linejoin: miter; stroke-linecap: square"/>
   </g>
   <g id="patch_6">
    <path d="M 50.14375 22.318125 
L 608.14375 22.318125 
" style="fill: none; stroke: #000000; stroke-width: 0.8; stroke-linejoin: miter; stroke-linecap: square"/>
   </g>
   <g id="text_20">
    <!-- Train and Val Loss -->
    <g transform="translate(275.598437 16.318125) scale(0.12 -0.12)">
     <defs>
      <path id="DejaVuSans-54" d="M -19 4666 
L 3928 4666 
L 3928 4134 
L 2272 4134 
L 2272 0 
L 1638 0 
L 1638 4134 
L -19 4134 
L -19 4666 
z
" transform="scale(0.015625)"/>
      <path id="DejaVuSans-72" d="M 2631 2963 
Q 2534 3019 2420 3045 
Q 2306 3072 2169 3072 
Q 1681 3072 1420 2755 
Q 1159 2438 1159 1844 
L 1159 0 
L 581 0 
L 581 3500 
L 1159 3500 
L 1159 2956 
Q 1341 3275 1631 3429 
Q 1922 3584 2338 3584 
Q 2397 3584 2469 3576 
Q 2541 3569 2628 3553 
L 2631 2963 
z
" transform="scale(0.015625)"/>
      <path id="DejaVuSans-61" d="M 2194 1759 
Q 1497 1759 1228 1600 
Q 959 1441 959 1056 
Q 959 750 1161 570 
Q 1363 391 1709 391 
Q 2188 391 2477 730 
Q 2766 1069 2766 1631 
L 2766 1759 
L 2194 1759 
z
M 3341 1997 
L 3341 0 
L 2766 0 
L 2766 531 
Q 2569 213 2275 61 
Q 1981 -91 1556 -91 
Q 1019 -91 701 211 
Q 384 513 384 1019 
Q 384 1609 779 1909 
Q 1175 2209 1959 2209 
L 2766 2209 
L 2766 2266 
Q 2766 2663 2505 2880 
Q 2244 3097 1772 3097 
Q 1472 3097 1187 3025 
Q 903 2953 641 2809 
L 641 3341 
Q 956 3463 1253 3523 
Q 1550 3584 1831 3584 
Q 2591 3584 2966 3190 
Q 3341 2797 3341 1997 
z
" transform="scale(0.015625)"/>
      <path id="DejaVuSans-69" d="M 603 3500 
L 1178 3500 
L 1178 0 
L 603 0 
L 603 3500 
z
M 603 4863 
L 1178 4863 
L 1178 4134 
L 603 4134 
L 603 4863 
z
" transform="scale(0.015625)"/>
      <path id="DejaVuSans-6e" d="M 3513 2113 
L 3513 0 
L 2938 0 
L 2938 2094 
Q 2938 2591 2744 2837 
Q 2550 3084 2163 3084 
Q 1697 3084 1428 2787 
Q 1159 2491 1159 1978 
L 1159 0 
L 581 0 
L 581 3500 
L 1159 3500 
L 1159 2956 
Q 1366 3272 1645 3428 
Q 1925 3584 2291 3584 
Q 2894 3584 3203 3211 
Q 3513 2838 3513 2113 
z
" transform="scale(0.015625)"/>
      <path id="DejaVuSans-20" transform="scale(0.015625)"/>
      <path id="DejaVuSans-64" d="M 2906 2969 
L 2906 4863 
L 3481 4863 
L 3481 0 
L 2906 0 
L 2906 525 
Q 2725 213 2448 61 
Q 2172 -91 1784 -91 
Q 1150 -91 751 415 
Q 353 922 353 1747 
Q 353 2572 751 3078 
Q 1150 3584 1784 3584 
Q 2172 3584 2448 3432 
Q 2725 3281 2906 2969 
z
M 947 1747 
Q 947 1113 1208 752 
Q 1469 391 1925 391 
Q 2381 391 2643 752 
Q 2906 1113 2906 1747 
Q 2906 2381 2643 2742 
Q 2381 3103 1925 3103 
Q 1469 3103 1208 2742 
Q 947 2381 947 1747 
z
" transform="scale(0.015625)"/>
      <path id="DejaVuSans-56" d="M 1831 0 
L 50 4666 
L 709 4666 
L 2188 738 
L 3669 4666 
L 4325 4666 
L 2547 0 
L 1831 0 
z
" transform="scale(0.015625)"/>
      <path id="DejaVuSans-6c" d="M 603 4863 
L 1178 4863 
L 1178 0 
L 603 0 
L 603 4863 
z
" transform="scale(0.015625)"/>
     </defs>
     <use xlink:href="#DejaVuSans-54"/>
     <use xlink:href="#DejaVuSans-72" transform="translate(46.333984 0)"/>
     <use xlink:href="#DejaVuSans-61" transform="translate(87.447266 0)"/>
     <use xlink:href="#DejaVuSans-69" transform="translate(148.726562 0)"/>
     <use xlink:href="#DejaVuSans-6e" transform="translate(176.509766 0)"/>
     <use xlink:href="#DejaVuSans-20" transform="translate(239.888672 0)"/>
     <use xlink:href="#DejaVuSans-61" transform="translate(271.675781 0)"/>
     <use xlink:href="#DejaVuSans-6e" transform="translate(332.955078 0)"/>
     <use xlink:href="#DejaVuSans-64" transform="translate(396.333984 0)"/>
     <use xlink:href="#DejaVuSans-20" transform="translate(459.810547 0)"/>
     <use xlink:href="#DejaVuSans-56" transform="translate(491.597656 0)"/>
     <use xlink:href="#DejaVuSans-61" transform="translate(552.255859 0)"/>
     <use xlink:href="#DejaVuSans-6c" transform="translate(613.535156 0)"/>
     <use xlink:href="#DejaVuSans-20" transform="translate(641.318359 0)"/>
     <use xlink:href="#DejaVuSans-4c" transform="translate(673.105469 0)"/>
     <use xlink:href="#DejaVuSans-6f" transform="translate(727.068359 0)"/>
     <use xlink:href="#DejaVuSans-73" transform="translate(788.25 0)"/>
     <use xlink:href="#DejaVuSans-73" transform="translate(840.349609 0)"/>
    </g>
   </g>
   <g id="legend_1">
    <g id="patch_7">
     <path d="M 521.553125 60.230625 
L 601.14375 60.230625 
Q 603.14375 60.230625 603.14375 58.230625 
L 603.14375 29.318125 
Q 603.14375 27.318125 601.14375 27.318125 
L 521.553125 27.318125 
Q 519.553125 27.318125 519.553125 29.318125 
L 519.553125 58.230625 
Q 519.553125 60.230625 521.553125 60.230625 
z
" style="fill: #ffffff; opacity: 0.8; stroke: #cccccc; stroke-linejoin: miter"/>
    </g>
    <g id="line2d_37">
     <path d="M 523.553125 35.416563 
L 533.553125 35.416563 
L 543.553125 35.416563 
" style="fill: none; stroke: #1f77b4; stroke-width: 1.5; stroke-linecap: square"/>
    </g>
    <g id="text_21">
     <!-- train_loss -->
     <g transform="translate(551.553125 38.916563) scale(0.1 -0.1)">
      <defs>
       <path id="DejaVuSans-74" d="M 1172 4494 
L 1172 3500 
L 2356 3500 
L 2356 3053 
L 1172 3053 
L 1172 1153 
Q 1172 725 1289 603 
Q 1406 481 1766 481 
L 2356 481 
L 2356 0 
L 1766 0 
Q 1100 0 847 248 
Q 594 497 594 1153 
L 594 3053 
L 172 3053 
L 172 3500 
L 594 3500 
L 594 4494 
L 1172 4494 
z
" transform="scale(0.015625)"/>
       <path id="DejaVuSans-5f" d="M 3263 -1063 
L 3263 -1509 
L -63 -1509 
L -63 -1063 
L 3263 -1063 
z
" transform="scale(0.015625)"/>
      </defs>
      <use xlink:href="#DejaVuSans-74"/>
      <use xlink:href="#DejaVuSans-72" transform="translate(39.208984 0)"/>
      <use xlink:href="#DejaVuSans-61" transform="translate(80.322266 0)"/>
      <use xlink:href="#DejaVuSans-69" transform="translate(141.601562 0)"/>
      <use xlink:href="#DejaVuSans-6e" transform="translate(169.384766 0)"/>
      <use xlink:href="#DejaVuSans-5f" transform="translate(232.763672 0)"/>
      <use xlink:href="#DejaVuSans-6c" transform="translate(282.763672 0)"/>
      <use xlink:href="#DejaVuSans-6f" transform="translate(310.546875 0)"/>
      <use xlink:href="#DejaVuSans-73" transform="translate(371.728516 0)"/>
      <use xlink:href="#DejaVuSans-73" transform="translate(423.828125 0)"/>
     </g>
    </g>
    <g id="line2d_38">
     <path d="M 523.553125 50.372813 
L 533.553125 50.372813 
L 543.553125 50.372813 
" style="fill: none; stroke: #ff7f0e; stroke-width: 1.5; stroke-linecap: square"/>
    </g>
    <g id="text_22">
     <!-- val_loss -->
     <g transform="translate(551.553125 53.872813) scale(0.1 -0.1)">
      <defs>
       <path id="DejaVuSans-76" d="M 191 3500 
L 800 3500 
L 1894 563 
L 2988 3500 
L 3597 3500 
L 2284 0 
L 1503 0 
L 191 3500 
z
" transform="scale(0.015625)"/>
      </defs>
      <use xlink:href="#DejaVuSans-76"/>
      <use xlink:href="#DejaVuSans-61" transform="translate(59.179688 0)"/>
      <use xlink:href="#DejaVuSans-6c" transform="translate(120.458984 0)"/>
      <use xlink:href="#DejaVuSans-5f" transform="translate(148.242188 0)"/>
      <use xlink:href="#DejaVuSans-6c" transform="translate(198.242188 0)"/>
      <use xlink:href="#DejaVuSans-6f" transform="translate(226.025391 0)"/>
      <use xlink:href="#DejaVuSans-73" transform="translate(287.207031 0)"/>
      <use xlink:href="#DejaVuSans-73" transform="translate(339.306641 0)"/>
     </g>
    </g>
   </g>
  </g>
 </g>
 <defs>
  <clipPath id="p1a16e170b7">
   <rect x="50.14375" y="22.318125" width="558" height="554.4"/>
  </clipPath>
 </defs>
</svg>
