<?xml version="1.0" encoding="utf-8" standalone="no"?>
<!DOCTYPE svg PUBLIC "-//W3C//DTD SVG 1.1//EN"
  "http://www.w3.org/Graphics/SVG/1.1/DTD/svg11.dtd">
<svg xmlns:xlink="http://www.w3.org/1999/xlink" width="615.34375pt" height="614.274375pt" viewBox="0 0 615.34375 614.274375" xmlns="http://www.w3.org/2000/svg" version="1.1">
 <metadata>
  <rdf:RDF xmlns:dc="http://purl.org/dc/elements/1.1/" xmlns:cc="http://creativecommons.org/ns#" xmlns:rdf="http://www.w3.org/1999/02/22-rdf-syntax-ns#">
   <cc:Work>
    <dc:type rdf:resource="http://purl.org/dc/dcmitype/StillImage"/>
    <dc:date>2026-06-02T19:43:26.764950</dc:date>
    <dc:format>image/svg+xml</dc:format>
    <dc:creator>
     <cc:Agent>
      <dc:title>Matplotlib v3.10.9, https://matplotlib.org/</dc:title>
     </cc:Agent>
    </dc:creator>
   </cc:Work>
  </rdf:RDF>
 </metadata>
 <defs>
  <style type="text/css">*{stroke-linejoin: round; stroke-linecap: butt}</style>
 </defs>
 <g id="figure_1">
  <g id="patch_1">
   <path d="M 0 614.274375 
L 615.34375 614.274375 
L 615.34375 0 
L 0 0 
z
" style="fill: #ffffff"/>
  </g>
  <g id="axes_1">
   <g id="patch_2">
    <path d="M 50.14375 576.718125 
L 608.14375 576.718125 
L 608.14375 22.318125 
L 50.14375 22.318125 
z
" style="fill: #ffffff"/>
   </g>
   <g id="matplotlib.axis_1">
    <g id="xtick_1">
     <g id="line2d_1">
      <path d="M 75.507386 576.718125 
L 75.507386 22.318125 
" clip-path="url(#p5b62d39600)" style="fill: none; stroke: #b0b0b0; stroke-width: 0.8; stroke-linecap: square"/>
     </g>
     <g id="line2d_2">
      <defs>
       <path id="mff5592d469" d="M 0 0 
L 0 3.5 
" style="stroke: #000000; stroke-width: 0.8"/>
      </defs>
      <g>
       <use xlink:href="#mff5592d469" x="75.507386" y="576.718125" style="stroke: #000000; stroke-width: 0.8"/>
      </g>
     </g>
     <g id="text_1">
      <!-- 0 -->
      <g transform="translate(72.326136 591.316563) scale(0.1 -0.1)">
       <defs>
        <path id="DejaVuSans-30" d="M 2034 4250 
Q 1547 4250 1301 3770 
Q 1056 3291 1056 2328 
Q 1056 1369 1301 889 
Q 1547 409 2034 409 
Q 2525 409 2770 889 
Q 3016 1369 3016 2328 
Q 3016 3291 2770 3770 
Q 2525 4250 2034 4250 
z
M 2034 4750 
Q 2819 4750 3233 4129 
Q 3647 3509 3647 2328 
Q 3647 1150 3233 529 
Q 2819 -91 2034 -91 
Q 1250 -91 836 529 
Q 422 1150 422 2328 
Q 422 3509 836 4129 
Q 1250 4750 2034 4750 
z
" transform="scale(0.015625)"/>
       </defs>
       <use xlink:href="#DejaVuSans-30"/>
      </g>
     </g>
    </g>
    <g id="xtick_2">
     <g id="line2d_3">
      <path d="M 138.995838 576.718125 
L 138.995838 22.318125 
" clip-path="url(#p5b62d39600)" style="fill: none; stroke: #b0b0b0; stroke-width: 0.8; stroke-linecap: square"/>
     </g>
     <g id="line2d_4">
      <g>
       <use xlink:href="#mff5592d469" x="138.995838" y="576.718125" style="stroke: #000000; stroke-width: 0.8"/>
      </g>
     </g>
     <g id="text_2">
      <!-- 100 -->
      <g transform="translate(129.452088 591.316563) scale(0.1 -0.1)">
       <defs>
        <path id="DejaVuSans-31" d="M 794 531 
L 1825 531 
L 1825 4091 
L 703 3866 
L 703 4441 
L 1819 4666 
L 2450 4666 
L 2450 531 
L 3481 531 
L 3481 0 
L 794 0 
L 794 531 
z
" transform="scale(0.015625)"/>
       </defs>
       <use xlink:href="#DejaVuSans-31"/>
       <use xlink:href="#DejaVuSans-30" transform="translate(63.623047 0)"/>
       <use xlink:href="#DejaVuSans-30" transform="translate(127.246094 0)"/>
      </g>
     </g>
    </g>
    <g id="xtick_3">
     <g id="line2d_5">
      <path d="M 202.484289 576.718125 
L 202.484289 22.318125 
" clip-path="url(#p5b62d39600)" style="fill: none; stroke: #b0b0b0; stroke-width: 0.8; stroke-linecap: square"/>
     </g>
     <g id="line2d_6">
      <g>
       <use xlink:href="#mff5592d469" x="202.484289" y="576.718125" style="stroke: #000000; stroke-width: 0.8"/>
      </g>
     </g>
     <g id="text_3">
      <!-- 200 -->
      <g transform="translate(192.940539 591.316563) scale(0.1 -0.1)">
       <defs>
        <path id="DejaVuSans-32" d="M 1228 531 
L 3431 531 
L 3431 0 
L 469 0 
L 469 531 
Q 828 903 1448 1529 
Q 2069 2156 2228 2338 
Q 2531 2678 2651 2914 
Q 2772 3150 2772 3378 
Q 2772 3750 2511 3984 
Q 2250 4219 1831 4219 
Q 1534 4219 1204 4116 
Q 875 4013 500 3803 
L 500 4441 
Q 881 4594 1212 4672 
Q 1544 4750 1819 4750 
Q 2544 4750 2975 4387 
Q 3406 4025 3406 3419 
Q 3406 3131 3298 2873 
Q 3191 2616 2906 2266 
Q 2828 2175 2409 1742 
Q 1991 1309 1228 531 
z
" transform="scale(0.015625)"/>
       </defs>
       <use xlink:href="#DejaVuSans-32"/>
       <use xlink:href="#DejaVuSans-30" transform="translate(63.623047 0)"/>
       <use xlink:href="#DejaVuSans-30" transform="translate(127.246094 0)"/>
      </g>
     </g>
    </g>
    <g id="xtick_4">
     <g id="line2d_7">
      <path d="M 265.972741 576.718125 
L 265.972741 22.318125 
" clip-path="url(#p5b62d39600)" style="fill: none; stroke: #b0b0b0; stroke-width: 0.8; stroke-linecap: square"/>
     </g>
     <g id="line2d_8">
      <g>
       <use xlink:href="#mff5592d469" x="265.972741" y="576.718125" style="stroke: #000000; stroke-width: 0.8"/>
      </g>
     </g>
     <g id="text_4">
      <!-- 300 -->
      <g transform="translate(256.428991 591.316563) scale(0.1 -0.1)">
       <defs>
        <path id="DejaVuSans-33" d="M 2597 2516 
Q 3050 2419 3304 2112 
Q 3559 1806 3559 1356 
Q 3559 666 3084 287 
Q 2609 -91 1734 -91 
Q 1441 -91 1130 -33 
Q 819 25 488 141 
L 488 750 
Q 750 597 1062 519 
Q 1375 441 1716 441 
Q 2309 441 2620 675 
Q 2931 909 2931 1356 
Q 2931 1769 2642 2001 
Q 2353 2234 1838 2234 
L 1294 2234 
L 1294 2753 
L 1863 2753 
Q 2328 2753 2575 2939 
Q 2822 3125 2822 3475 
Q 2822 3834 2567 4026 
Q 2313 4219 1838 4219 
Q 1578 4219 1281 4162 
Q 984 4106 628 3988 
L 628 4550 
Q 988 4650 1302 4700 
Q 1616 4750 1894 4750 
Q 2613 4750 3031 4423 
Q 3450 4097 3450 3541 
Q 3450 3153 3228 2886 
Q 3006 2619 2597 2516 
z
" transform="scale(0.015625)"/>
       </defs>
       <use xlink:href="#DejaVuSans-33"/>
       <use xlink:href="#DejaVuSans-30" transform="translate(63.623047 0)"/>
       <use xlink:href="#DejaVuSans-30" transform="translate(127.246094 0)"/>
      </g>
     </g>
    </g>
    <g id="xtick_5">
     <g id="line2d_9">
      <path d="M 329.461192 576.718125 
L 329.461192 22.318125 
" clip-path="url(#p5b62d39600)" style="fill: none; stroke: #b0b0b0; stroke-width: 0.8; stroke-linecap: square"/>
     </g>
     <g id="line2d_10">
      <g>
       <use xlink:href="#mff5592d469" x="329.461192" y="576.718125" style="stroke: #000000; stroke-width: 0.8"/>
      </g>
     </g>
     <g id="text_5">
      <!-- 400 -->
      <g transform="translate(319.917442 591.316563) scale(0.1 -0.1)">
       <defs>
        <path id="DejaVuSans-34" d="M 2419 4116 
L 825 1625 
L 2419 1625 
L 2419 4116 
z
M 2253 4666 
L 3047 4666 
L 3047 1625 
L 3713 1625 
L 3713 1100 
L 3047 1100 
L 3047 0 
L 2419 0 
L 2419 1100 
L 313 1100 
L 313 1709 
L 2253 4666 
z
" transform="scale(0.015625)"/>
       </defs>
       <use xlink:href="#DejaVuSans-34"/>
       <use xlink:href="#DejaVuSans-30" transform="translate(63.623047 0)"/>
       <use xlink:href="#DejaVuSans-30" transform="translate(127.246094 0)"/>
      </g>
     </g>
    </g>
    <g id="xtick_6">
     <g id="line2d_11">
      <path d="M 392.949644 576.718125 
L 392.949644 22.318125 
" clip-path="url(#p5b62d39600)" style="fill: none; stroke: #b0b0b0; stroke-width: 0.8; stroke-linecap: square"/>
     </g>
     <g id="line2d_12">
      <g>
       <use xlink:href="#mff5592d469" x="392.949644" y="576.718125" style="stroke: #000000; stroke-width: 0.8"/>
      </g>
     </g>
     <g id="text_6">
      <!-- 500 -->
      <g transform="translate(383.405894 591.316563) scale(0.1 -0.1)">
       <defs>
        <path id="DejaVuSans-35" d="M 691 4666 
L 3169 4666 
L 3169 4134 
L 1269 4134 
L 1269 2991 
Q 1406 3038 1543 3061 
Q 1681 3084 1819 3084 
Q 2600 3084 3056 2656 
Q 3513 2228 3513 1497 
Q 3513 744 3044 326 
Q 2575 -91 1722 -91 
Q 1428 -91 1123 -41 
Q 819 9 494 109 
L 494 744 
Q 775 591 1075 516 
Q 1375 441 1709 441 
Q 2250 441 2565 725 
Q 2881 1009 2881 1497 
Q 2881 1984 2565 2268 
Q 2250 2553 1709 2553 
Q 1456 2553 1204 2497 
Q 953 2441 691 2322 
L 691 4666 
z
" transform="scale(0.015625)"/>
       </defs>
       <use xlink:href="#DejaVuSans-35"/>
       <use xlink:href="#DejaVuSans-30" transform="translate(63.623047 0)"/>
       <use xlink:href="#DejaVuSans-30" transform="translate(127.246094 0)"/>
      </g>
     </g>
    </g>
    <g id="xtick_7">
     <g id="line2d_13">
      <path d="M 456.438095 576.718125 
L 456.438095 22.318125 
" clip-path="url(#p5b62d39600)" style="fill: none; stroke: #b0b0b0; stroke-width: 0.8; stroke-linecap: square"/>
     </g>
     <g id="line2d_14">
      <g>
       <use xlink:href="#mff5592d469" x="456.438095" y="576.718125" style="stroke: #000000; stroke-width: 0.8"/>
      </g>
     </g>
     <g id="text_7">
      <!-- 600 -->
      <g transform="translate(446.894345 591.316563) scale(0.1 -0.1)">
       <defs>
        <path id="DejaVuSans-36" d="M 2113 2584 
Q 1688 2584 1439 2293 
Q 1191 2003 1191 1497 
Q 1191 994 1439 701 
Q 1688 409 2113 409 
Q 2538 409 2786 701 
Q 3034 994 3034 1497 
Q 3034 2003 2786 2293 
Q 2538 2584 2113 2584 
z
M 3366 4563 
L 3366 3988 
Q 3128 4100 2886 4159 
Q 2644 4219 2406 4219 
Q 1781 4219 1451 3797 
Q 1122 3375 1075 2522 
Q 1259 2794 1537 2939 
Q 1816 3084 2150 3084 
Q 2853 3084 3261 2657 
Q 3669 2231 3669 1497 
Q 3669 778 3244 343 
Q 2819 -91 2113 -91 
Q 1303 -91 875 529 
Q 447 1150 447 2328 
Q 447 3434 972 4092 
Q 1497 4750 2381 4750 
Q 2619 4750 2861 4703 
Q 3103 4656 3366 4563 
z
" transform="scale(0.015625)"/>
       </defs>
       <use xlink:href="#DejaVuSans-36"/>
       <use xlink:href="#DejaVuSans-30" transform="translate(63.623047 0)"/>
       <use xlink:href="#DejaVuSans-30" transform="translate(127.246094 0)"/>
      </g>
     </g>
    </g>
    <g id="xtick_8">
     <g id="line2d_15">
      <path d="M 519.926547 576.718125 
L 519.926547 22.318125 
" clip-path="url(#p5b62d39600)" style="fill: none; stroke: #b0b0b0; stroke-width: 0.8; stroke-linecap: square"/>
     </g>
     <g id="line2d_16">
      <g>
       <use xlink:href="#mff5592d469" x="519.926547" y="576.718125" style="stroke: #000000; stroke-width: 0.8"/>
      </g>
     </g>
     <g id="text_8">
      <!-- 700 -->
      <g transform="translate(510.382797 591.316563) scale(0.1 -0.1)">
       <defs>
        <path id="DejaVuSans-37" d="M 525 4666 
L 3525 4666 
L 3525 4397 
L 1831 0 
L 1172 0 
L 2766 4134 
L 525 4134 
L 525 4666 
z
" transform="scale(0.015625)"/>
       </defs>
       <use xlink:href="#DejaVuSans-37"/>
       <use xlink:href="#DejaVuSans-30" transform="translate(63.623047 0)"/>
       <use xlink:href="#DejaVuSans-30" transform="translate(127.246094 0)"/>
      </g>
     </g>
    </g>
    <g id="xtick_9">
     <g id="line2d_17">
      <path d="M 583.414998 576.718125 
L 583.414998 22.318125 
" clip-path="url(#p5b62d39600)" style="fill: none; stroke: #b0b0b0; stroke-width: 0.8; stroke-linecap: square"/>
     </g>
     <g id="line2d_18">
      <g>
       <use xlink:href="#mff5592d469" x="583.414998" y="576.718125" style="stroke: #000000; stroke-width: 0.8"/>
      </g>
     </g>
     <g id="text_9">
      <!-- 800 -->
      <g transform="translate(573.871248 591.316563) scale(0.1 -0.1)">
       <defs>
        <path id="DejaVuSans-38" d="M 2034 2216 
Q 1584 2216 1326 1975 
Q 1069 1734 1069 1313 
Q 1069 891 1326 650 
Q 1584 409 2034 409 
Q 2484 409 2743 651 
Q 3003 894 3003 1313 
Q 3003 1734 2745 1975 
Q 2488 2216 2034 2216 
z
M 1403 2484 
Q 997 2584 770 2862 
Q 544 3141 544 3541 
Q 544 4100 942 4425 
Q 1341 4750 2034 4750 
Q 2731 4750 3128 4425 
Q 3525 4100 3525 3541 
Q 3525 3141 3298 2862 
Q 3072 2584 2669 2484 
Q 3125 2378 3379 2068 
Q 3634 1759 3634 1313 
Q 3634 634 3220 271 
Q 2806 -91 2034 -91 
Q 1263 -91 848 271 
Q 434 634 434 1313 
Q 434 1759 690 2068 
Q 947 2378 1403 2484 
z
M 1172 3481 
Q 1172 3119 1398 2916 
Q 1625 2713 2034 2713 
Q 2441 2713 2670 2916 
Q 2900 3119 2900 3481 
Q 2900 3844 2670 4047 
Q 2441 4250 2034 4250 
Q 1625 4250 1398 4047 
Q 1172 3844 1172 3481 
z
" transform="scale(0.015625)"/>
       </defs>
       <use xlink:href="#DejaVuSans-38"/>
       <use xlink:href="#DejaVuSans-30" transform="translate(63.623047 0)"/>
       <use xlink:href="#DejaVuSans-30" transform="translate(127.246094 0)"/>
      </g>
     </g>
    </g>
    <g id="text_10">
     <!-- Epochs -->
     <g transform="translate(311.228125 604.994688) scale(0.1 -0.1)">
      <defs>
       <path id="DejaVuSans-45" d="M 628 4666 
L 3578 4666 
L 3578 4134 
L 1259 4134 
L 1259 2753 
L 3481 2753 
L 3481 2222 
L 1259 2222 
L 1259 531 
L 3634 531 
L 3634 0 
L 628 0 
L 628 4666 
z
" transform="scale(0.015625)"/>
       <path id="DejaVuSans-70" d="M 1159 525 
L 1159 -1331 
L 581 -1331 
L 581 3500 
L 1159 3500 
L 1159 2969 
Q 1341 3281 1617 3432 
Q 1894 3584 2278 3584 
Q 2916 3584 3314 3078 
Q 3713 2572 3713 1747 
Q 3713 922 3314 415 
Q 2916 -91 2278 -91 
Q 1894 -91 1617 61 
Q 1341 213 1159 525 
z
M 3116 1747 
Q 3116 2381 2855 2742 
Q 2594 3103 2138 3103 
Q 1681 3103 1420 2742 
Q 1159 2381 1159 1747 
Q 1159 1113 1420 752 
Q 1681 391 2138 391 
Q 2594 391 2855 752 
Q 3116 1113 3116 1747 
z
" transform="scale(0.015625)"/>
       <path id="DejaVuSans-6f" d="M 1959 3097 
Q 1497 3097 1228 2736 
Q 959 2375 959 1747 
Q 959 1119 1226 758 
Q 1494 397 1959 397 
Q 2419 397 2687 759 
Q 2956 1122 2956 1747 
Q 2956 2369 2687 2733 
Q 2419 3097 1959 3097 
z
M 1959 3584 
Q 2709 3584 3137 3096 
Q 3566 2609 3566 1747 
Q 3566 888 3137 398 
Q 2709 -91 1959 -91 
Q 1206 -91 779 398 
Q 353 888 353 1747 
Q 353 2609 779 3096 
Q 1206 3584 1959 3584 
z
" transform="scale(0.015625)"/>
       <path id="DejaVuSans-63" d="M 3122 3366 
L 3122 2828 
Q 2878 2963 2633 3030 
Q 2388 3097 2138 3097 
Q 1578 3097 1268 2742 
Q 959 2388 959 1747 
Q 959 1106 1268 751 
Q 1578 397 2138 397 
Q 2388 397 2633 464 
Q 2878 531 3122 666 
L 3122 134 
Q 2881 22 2623 -34 
Q 2366 -91 2075 -91 
Q 1284 -91 818 406 
Q 353 903 353 1747 
Q 353 2603 823 3093 
Q 1294 3584 2113 3584 
Q 2378 3584 2631 3529 
Q 2884 3475 3122 3366 
z
" transform="scale(0.015625)"/>
       <path id="DejaVuSans-68" d="M 3513 2113 
L 3513 0 
L 2938 0 
L 2938 2094 
Q 2938 2591 2744 2837 
Q 2550 3084 2163 3084 
Q 1697 3084 1428 2787 
Q 1159 2491 1159 1978 
L 1159 0 
L 581 0 
L 581 4863 
L 1159 4863 
L 1159 2956 
Q 1366 3272 1645 3428 
Q 1925 3584 2291 3584 
Q 2894 3584 3203 3211 
Q 3513 2838 3513 2113 
z
" transform="scale(0.015625)"/>
       <path id="DejaVuSans-73" d="M 2834 3397 
L 2834 2853 
Q 2591 2978 2328 3040 
Q 2066 3103 1784 3103 
Q 1356 3103 1142 2972 
Q 928 2841 928 2578 
Q 928 2378 1081 2264 
Q 1234 2150 1697 2047 
L 1894 2003 
Q 2506 1872 2764 1633 
Q 3022 1394 3022 966 
Q 3022 478 2636 193 
Q 2250 -91 1575 -91 
Q 1294 -91 989 -36 
Q 684 19 347 128 
L 347 722 
Q 666 556 975 473 
Q 1284 391 1588 391 
Q 1994 391 2212 530 
Q 2431 669 2431 922 
Q 2431 1156 2273 1281 
Q 2116 1406 1581 1522 
L 1381 1569 
Q 847 1681 609 1914 
Q 372 2147 372 2553 
Q 372 3047 722 3315 
Q 1072 3584 1716 3584 
Q 2034 3584 2315 3537 
Q 2597 3491 2834 3397 
z
" transform="scale(0.015625)"/>
      </defs>
      <use xlink:href="#DejaVuSans-45"/>
      <use xlink:href="#DejaVuSans-70" transform="translate(63.183594 0)"/>
      <use xlink:href="#DejaVuSans-6f" transform="translate(126.660156 0)"/>
      <use xlink:href="#DejaVuSans-63" transform="translate(187.841797 0)"/>
      <use xlink:href="#DejaVuSans-68" transform="translate(242.822266 0)"/>
      <use xlink:href="#DejaVuSans-73" transform="translate(306.201172 0)"/>
     </g>
    </g>
   </g>
   <g id="matplotlib.axis_2">
    <g id="ytick_1">
     <g id="line2d_19">
      <path d="M 50.14375 556.937294 
L 608.14375 556.937294 
" clip-path="url(#p5b62d39600)" style="fill: none; stroke: #b0b0b0; stroke-width: 0.8; stroke-linecap: square"/>
     </g>
     <g id="line2d_20">
      <defs>
       <path id="m43f61972b7" d="M 0 0 
L -3.5 0 
" style="stroke: #000000; stroke-width: 0.8"/>
      </defs>
      <g>
       <use xlink:href="#m43f61972b7" x="50.14375" y="556.937294" style="stroke: #000000; stroke-width: 0.8"/>
      </g>
     </g>
     <g id="text_11">
      <!-- 0.00 -->
      <g transform="translate(20.878125 560.736512) scale(0.1 -0.1)">
       <defs>
        <path id="DejaVuSans-2e" d="M 684 794 
L 1344 794 
L 1344 0 
L 684 0 
L 684 794 
z
" transform="scale(0.015625)"/>
       </defs>
       <use xlink:href="#DejaVuSans-30"/>
       <use xlink:href="#DejaVuSans-2e" transform="translate(63.623047 0)"/>
       <use xlink:href="#DejaVuSans-30" transform="translate(95.410156 0)"/>
       <use xlink:href="#DejaVuSans-30" transform="translate(159.033203 0)"/>
      </g>
     </g>
    </g>
    <g id="ytick_2">
     <g id="line2d_21">
      <path d="M 50.14375 487.571936 
L 608.14375 487.571936 
" clip-path="url(#p5b62d39600)" style="fill: none; stroke: #b0b0b0; stroke-width: 0.8; stroke-linecap: square"/>
     </g>
     <g id="line2d_22">
      <g>
       <use xlink:href="#m43f61972b7" x="50.14375" y="487.571936" style="stroke: #000000; stroke-width: 0.8"/>
      </g>
     </g>
     <g id="text_12">
      <!-- 0.05 -->
      <g transform="translate(20.878125 491.371155) scale(0.1 -0.1)">
       <use xlink:href="#DejaVuSans-30"/>
       <use xlink:href="#DejaVuSans-2e" transform="translate(63.623047 0)"/>
       <use xlink:href="#DejaVuSans-30" transform="translate(95.410156 0)"/>
       <use xlink:href="#DejaVuSans-35" transform="translate(159.033203 0)"/>
      </g>
     </g>
    </g>
    <g id="ytick_3">
     <g id="line2d_23">
      <path d="M 50.14375 418.206578 
L 608.14375 418.206578 
" clip-path="url(#p5b62d39600)" style="fill: none; stroke: #b0b0b0; stroke-width: 0.8; stroke-linecap: square"/>
     </g>
     <g id="line2d_24">
      <g>
       <use xlink:href="#m43f61972b7" x="50.14375" y="418.206578" style="stroke: #000000; stroke-width: 0.8"/>
      </g>
     </g>
     <g id="text_13">
      <!-- 0.10 -->
      <g transform="translate(20.878125 422.005797) scale(0.1 -0.1)">
       <use xlink:href="#DejaVuSans-30"/>
       <use xlink:href="#DejaVuSans-2e" transform="translate(63.623047 0)"/>
       <use xlink:href="#DejaVuSans-31" transform="translate(95.410156 0)"/>
       <use xlink:href="#DejaVuSans-30" transform="translate(159.033203 0)"/>
      </g>
     </g>
    </g>
    <g id="ytick_4">
     <g id="line2d_25">
      <path d="M 50.14375 348.841221 
L 608.14375 348.841221 
" clip-path="url(#p5b62d39600)" style="fill: none; stroke: #b0b0b0; stroke-width: 0.8; stroke-linecap: square"/>
     </g>
     <g id="line2d_26">
      <g>
       <use xlink:href="#m43f61972b7" x="50.14375" y="348.841221" style="stroke: #000000; stroke-width: 0.8"/>
      </g>
     </g>
     <g id="text_14">
      <!-- 0.15 -->
      <g transform="translate(20.878125 352.640439) scale(0.1 -0.1)">
       <use xlink:href="#DejaVuSans-30"/>
       <use xlink:href="#DejaVuSans-2e" transform="translate(63.623047 0)"/>
       <use xlink:href="#DejaVuSans-31" transform="translate(95.410156 0)"/>
       <use xlink:href="#DejaVuSans-35" transform="translate(159.033203 0)"/>
      </g>
     </g>
    </g>
    <g id="ytick_5">
     <g id="line2d_27">
      <path d="M 50.14375 279.475863 
L 608.14375 279.475863 
" clip-path="url(#p5b62d39600)" style="fill: none; stroke: #b0b0b0; stroke-width: 0.8; stroke-linecap: square"/>
     </g>
     <g id="line2d_28">
      <g>
       <use xlink:href="#m43f61972b7" x="50.14375" y="279.475863" style="stroke: #000000; stroke-width: 0.8"/>
      </g>
     </g>
     <g id="text_15">
      <!-- 0.20 -->
      <g transform="translate(20.878125 283.275082) scale(0.1 -0.1)">
       <use xlink:href="#DejaVuSans-30"/>
       <use xlink:href="#DejaVuSans-2e" transform="translate(63.623047 0)"/>
       <use xlink:href="#DejaVuSans-32" transform="translate(95.410156 0)"/>
       <use xlink:href="#DejaVuSans-30" transform="translate(159.033203 0)"/>
      </g>
     </g>
    </g>
    <g id="ytick_6">
     <g id="line2d_29">
      <path d="M 50.14375 210.110505 
L 608.14375 210.110505 
" clip-path="url(#p5b62d39600)" style="fill: none; stroke: #b0b0b0; stroke-width: 0.8; stroke-linecap: square"/>
     </g>
     <g id="line2d_30">
      <g>
       <use xlink:href="#m43f61972b7" x="50.14375" y="210.110505" style="stroke: #000000; stroke-width: 0.8"/>
      </g>
     </g>
     <g id="text_16">
      <!-- 0.25 -->
      <g transform="translate(20.878125 213.909724) scale(0.1 -0.1)">
       <use xlink:href="#DejaVuSans-30"/>
       <use xlink:href="#DejaVuSans-2e" transform="translate(63.623047 0)"/>
       <use xlink:href="#DejaVuSans-32" transform="translate(95.410156 0)"/>
       <use xlink:href="#DejaVuSans-35" transform="translate(159.033203 0)"/>
      </g>
     </g>
    </g>
    <g id="ytick_7">
     <g id="line2d_31">
      <path d="M 50.14375 140.745148 
L 608.14375 140.745148 
" clip-path="url(#p5b62d39600)" style="fill: none; stroke: #b0b0b0; stroke-width: 0.8; stroke-linecap: square"/>
     </g>
     <g id="line2d_32">
      <g>
       <use xlink:href="#m43f61972b7" x="50.14375" y="140.745148" style="stroke: #000000; stroke-width: 0.8"/>
      </g>
     </g>
     <g id="text_17">
      <!-- 0.30 -->
      <g transform="translate(20.878125 144.544367) scale(0.1 -0.1)">
       <use xlink:href="#DejaVuSans-30"/>
       <use xlink:href="#DejaVuSans-2e" transform="translate(63.623047 0)"/>
       <use xlink:href="#DejaVuSans-33" transform="translate(95.410156 0)"/>
       <use xlink:href="#DejaVuSans-30" transform="translate(159.033203 0)"/>
      </g>
     </g>
    </g>
    <g id="ytick_8">
     <g id="line2d_33">
      <path d="M 50.14375 71.37979 
L 608.14375 71.37979 
" clip-path="url(#p5b62d39600)" style="fill: none; stroke: #b0b0b0; stroke-width: 0.8; stroke-linecap: square"/>
     </g>
     <g id="line2d_34">
      <g>
       <use xlink:href="#m43f61972b7" x="50.14375" y="71.37979" style="stroke: #000000; stroke-width: 0.8"/>
      </g>
     </g>
     <g id="text_18">
      <!-- 0.35 -->
      <g transform="translate(20.878125 75.179009) scale(0.1 -0.1)">
       <use xlink:href="#DejaVuSans-30"/>
       <use xlink:href="#DejaVuSans-2e" transform="translate(63.623047 0)"/>
       <use xlink:href="#DejaVuSans-33" transform="translate(95.410156 0)"/>
       <use xlink:href="#DejaVuSans-35" transform="translate(159.033203 0)"/>
      </g>
     </g>
    </g>
    <g id="text_19">
     <!-- Accuracy -->
     <g transform="translate(14.798437 322.34625) rotate(-90) scale(0.1 -0.1)">
      <defs>
       <path id="DejaVuSans-41" d="M 2188 4044 
L 1331 1722 
L 3047 1722 
L 2188 4044 
z
M 1831 4666 
L 2547 4666 
L 4325 0 
L 3669 0 
L 3244 1197 
L 1141 1197 
L 716 0 
L 50 0 
L 1831 4666 
z
" transform="scale(0.015625)"/>
       <path id="DejaVuSans-75" d="M 544 1381 
L 544 3500 
L 1119 3500 
L 1119 1403 
Q 1119 906 1312 657 
Q 1506 409 1894 409 
Q 2359 409 2629 706 
Q 2900 1003 2900 1516 
L 2900 3500 
L 3475 3500 
L 3475 0 
L 2900 0 
L 2900 538 
Q 2691 219 2414 64 
Q 2138 -91 1772 -91 
Q 1169 -91 856 284 
Q 544 659 544 1381 
z
M 1991 3584 
L 1991 3584 
z
" transform="scale(0.015625)"/>
       <path id="DejaVuSans-72" d="M 2631 2963 
Q 2534 3019 2420 3045 
Q 2306 3072 2169 3072 
Q 1681 3072 1420 2755 
Q 1159 2438 1159 1844 
L 1159 0 
L 581 0 
L 581 3500 
L 1159 3500 
L 1159 2956 
Q 1341 3275 1631 3429 
Q 1922 3584 2338 3584 
Q 2397 3584 2469 3576 
Q 2541 3569 2628 3553 
L 2631 2963 
z
" transform="scale(0.015625)"/>
       <path id="DejaVuSans-61" d="M 2194 1759 
Q 1497 1759 1228 1600 
Q 959 1441 959 1056 
Q 959 750 1161 570 
Q 1363 391 1709 391 
Q 2188 391 2477 730 
Q 2766 1069 2766 1631 
L 2766 1759 
L 2194 1759 
z
M 3341 1997 
L 3341 0 
L 2766 0 
L 2766 531 
Q 2569 213 2275 61 
Q 1981 -91 1556 -91 
Q 1019 -91 701 211 
Q 384 513 384 1019 
Q 384 1609 779 1909 
Q 1175 2209 1959 2209 
L 2766 2209 
L 2766 2266 
Q 2766 2663 2505 2880 
Q 2244 3097 1772 3097 
Q 1472 3097 1187 3025 
Q 903 2953 641 2809 
L 641 3341 
Q 956 3463 1253 3523 
Q 1550 3584 1831 3584 
Q 2591 3584 2966 3190 
Q 3341 2797 3341 1997 
z
" transform="scale(0.015625)"/>
       <path id="DejaVuSans-79" d="M 2059 -325 
Q 1816 -950 1584 -1140 
Q 1353 -1331 966 -1331 
L 506 -1331 
L 506 -850 
L 844 -850 
Q 1081 -850 1212 -737 
Q 1344 -625 1503 -206 
L 1606 56 
L 191 3500 
L 800 3500 
L 1894 763 
L 2988 3500 
L 3597 3500 
L 2059 -325 
z
" transform="scale(0.015625)"/>
      </defs>
      <use xlink:href="#DejaVuSans-41"/>
      <use xlink:href="#DejaVuSans-63" transform="translate(66.658203 0)"/>
      <use xlink:href="#DejaVuSans-63" transform="translate(121.638672 0)"/>
      <use xlink:href="#DejaVuSans-75" transform="translate(176.619141 0)"/>
      <use xlink:href="#DejaVuSans-72" transform="translate(239.998047 0)"/>
      <use xlink:href="#DejaVuSans-61" transform="translate(281.111328 0)"/>
      <use xlink:href="#DejaVuSans-63" transform="translate(342.390625 0)"/>
      <use xlink:href="#DejaVuSans-79" transform="translate(397.371094 0)"/>
     </g>
    </g>
   </g>
   <g id="line2d_35">
    <path d="M 75.507386 336.814042 
L 76.142271 315.707701 
L 76.777155 327.557626 
L 77.41204 305.345286 
L 78.046924 299.09469 
L 78.681809 290.200518 
L 79.316693 291.298806 
L 79.951578 294.97516 
L 80.586462 293.360494 
L 81.221347 283.884412 
L 81.856232 271.903485 
L 82.491116 263.159581 
L 83.126001 262.057448 
L 83.760885 263.772314 
L 84.39577 266.8822 
L 85.030654 272.246442 
L 85.665539 274.828394 
L 86.300423 279.317859 
L 86.935308 281.429657 
L 88.205077 281.310191 
L 88.839961 280.177214 
L 89.474846 280.250436 
L 90.10973 279.105925 
L 90.744615 279.263904 
L 91.379499 277.753283 
L 92.649268 270.739686 
L 93.284153 268.48531 
L 93.919037 269.163554 
L 94.553922 270.708843 
L 95.188806 268.855265 
L 95.823691 267.718444 
L 96.458575 262.66247 
L 97.09346 254.808765 
L 97.728344 249.779789 
L 98.998113 236.469333 
L 99.632998 233.162934 
L 100.267882 230.696603 
L 101.537651 222.322653 
L 102.172536 220.183899 
L 102.80742 216.457435 
L 103.442305 215.682857 
L 104.712074 210.21455 
L 105.346959 208.522817 
L 105.981843 207.709685 
L 106.616728 205.967863 
L 107.251612 203.066066 
L 107.886497 203.906154 
L 108.521381 202.607467 
L 109.156266 199.913801 
L 109.79115 198.287579 
L 110.426035 199.146934 
L 111.060919 195.590026 
L 111.695804 196.630514 
L 112.330688 194.927184 
L 112.965573 195.536071 
L 113.600457 191.123653 
L 114.235342 189.986831 
L 114.870226 190.225764 
L 116.139995 190.183385 
L 116.77488 188.638075 
L 117.409764 188.63423 
L 118.044649 186.314322 
L 119.314418 184.738211 
L 119.949302 183.7671 
L 120.584187 182.460723 
L 121.219071 182.91159 
L 121.853956 184.086945 
L 122.48884 183.119679 
L 123.758609 179.986681 
L 124.393494 179.82097 
L 125.028379 179.227504 
L 125.663263 178.152328 
L 126.298148 178.071416 
L 126.933032 176.553105 
L 127.567917 176.668705 
L 128.202801 175.516462 
L 128.837686 175.581952 
L 129.47257 175.057864 
L 130.107455 174.125286 
L 130.742339 174.857506 
L 131.377224 174.10602 
L 132.012108 174.225507 
L 132.646993 174.614728 
L 133.281877 174.610842 
L 133.916762 173.89024 
L 134.551646 174.541506 
L 135.186531 173.520285 
L 135.821415 174.129173 
L 136.4563 173.319886 
L 137.726069 173.161907 
L 138.360953 172.314087 
L 138.995838 171.809265 
L 139.630722 170.815042 
L 140.900491 167.107845 
L 142.17026 164.718602 
L 142.805145 163.728183 
L 143.440029 162.048006 
L 144.074914 161.44685 
L 144.709798 158.768564 
L 145.979567 154.965033 
L 146.614452 154.105677 
L 147.249337 151.909101 
L 148.519106 150.375368 
L 149.15399 150.167279 
L 149.788875 150.375368 
L 150.423759 149.596925 
L 151.058644 149.631614 
L 151.693528 150.155702 
L 152.328413 150.911034 
L 152.963297 150.194236 
L 153.598182 149.273235 
L 154.867951 149.573813 
L 155.502835 151.492923 
L 156.772604 149.230857 
L 157.407489 149.720257 
L 159.312142 154.232854 
L 159.947027 155.558498 
L 160.581911 155.708787 
L 161.216796 155.246344 
L 161.85168 155.943875 
L 162.486565 153.943853 
L 163.121449 146.602681 
L 163.756334 141.438817 
L 164.391218 139.747064 
L 165.026103 137.654553 
L 165.660987 134.852935 
L 166.295872 133.712268 
L 167.565641 132.313402 
L 168.200526 130.89527 
L 168.83541 130.517625 
L 169.470295 131.492581 
L 170.105179 129.816249 
L 170.740064 129.874049 
L 171.374948 129.812404 
L 172.009833 129.504094 
L 172.644717 130.035915 
L 173.279602 128.92605 
L 173.914486 129.477137 
L 174.549371 128.667851 
L 175.184255 129.515671 
L 175.81914 128.949203 
L 176.454024 128.024316 
L 177.088909 128.401961 
L 177.723793 128.467493 
L 178.358678 128.182295 
L 178.993562 128.143762 
L 179.628447 127.465539 
L 180.263331 128.417383 
L 180.898216 127.496382 
L 182.167985 128.17845 
L 182.802869 127.635095 
L 184.072638 128.421228 
L 184.707523 128.290206 
L 185.342407 126.976138 
L 185.977292 127.947249 
L 186.612176 128.116805 
L 187.247061 127.388472 
L 187.881945 127.785384 
L 188.51683 127.114851 
L 189.151715 127.658206 
L 189.786599 126.490583 
L 190.421484 127.496382 
L 191.056368 127.662051 
L 191.691253 127.700626 
L 192.326137 127.242028 
L 193.595906 127.935672 
L 194.230791 127.122582 
L 194.865675 126.760318 
L 195.50056 127.388472 
L 196.135444 127.396162 
L 196.770329 127.839339 
L 197.405213 127.858605 
L 198.040098 127.226606 
L 198.674982 127.785384 
L 199.309867 127.176496 
L 199.944751 127.981938 
L 200.579636 128.093693 
L 201.21452 127.762272 
L 201.849405 127.153384 
L 202.484289 127.438541 
L 203.119174 127.392317 
L 203.754058 126.690941 
L 204.388943 127.477115 
L 205.023827 126.548383 
L 205.658712 127.157229 
L 206.293596 126.351829 
L 206.928481 124.617697 
L 207.563365 125.211163 
L 208.19825 125.095562 
L 208.833134 121.885497 
L 209.468019 121.446165 
L 210.737788 118.355546 
L 211.372673 118.594478 
L 212.007557 118.602168 
L 212.642442 119.403723 
L 213.912211 118.748612 
L 214.547095 119.638811 
L 215.18198 120.1051 
L 215.816864 118.787146 
L 216.451749 118.729346 
L 217.086633 119.542477 
L 217.721518 119.997189 
L 218.356402 119.492367 
L 218.991287 119.735145 
L 219.626171 120.475054 
L 220.261056 119.426877 
L 220.89594 119.392188 
L 221.530825 120.444211 
L 222.165709 119.037655 
L 222.800594 119.792945 
L 223.435478 119.958656 
L 224.070363 119.214901 
L 224.705247 119.823788 
L 225.340132 121.006834 
L 226.609901 119.696611 
L 227.244785 120.656187 
L 227.87967 119.870012 
L 228.514554 120.328611 
L 229.149439 119.735145 
L 229.784323 120.567543 
L 230.419208 120.5945 
L 231.054092 120.101255 
L 231.688977 120.555967 
L 232.323862 120.324765 
L 232.958746 120.301654 
L 234.228515 120.686989 
L 234.8634 120.563698 
L 235.498284 121.50012 
L 236.133169 120.806476 
L 236.768053 121.12632 
L 238.037822 121.295876 
L 238.672707 121.920144 
L 239.307591 120.713987 
L 239.942476 121.577187 
L 240.57736 121.091632 
L 241.212245 120.767942 
L 241.847129 122.332519 
L 242.482014 121.430744 
L 243.116898 121.746743 
L 243.751783 121.523232 
L 244.386667 122.459655 
L 245.021552 121.511656 
L 245.656436 122.324787 
L 246.291321 120.725522 
L 246.926205 121.731322 
L 247.56109 121.981831 
L 248.195974 121.550231 
L 248.830859 123.030009 
L 249.465743 120.883543 
L 250.100628 120.421099 
L 251.370397 121.650409 
L 252.005281 122.001097 
L 252.640166 120.856545 
L 253.27505 121.727476 
L 253.909935 120.933612 
L 254.54482 121.307453 
L 255.179704 121.207233 
L 255.814589 121.361367 
L 256.449473 122.359476 
L 257.084358 122.047321 
L 257.719242 123.080119 
L 258.354127 123.758342 
L 258.989011 123.762187 
L 259.623896 123.222676 
L 260.25878 124.008809 
L 260.893665 123.36143 
L 261.528549 123.230408 
L 262.163434 123.434652 
L 262.798318 124.698609 
L 263.433203 123.766032 
L 264.068087 123.958741 
L 265.337856 123.500142 
L 265.972741 123.654276 
L 266.607625 124.305542 
L 267.24251 123.823873 
L 267.877394 123.511719 
L 268.512279 124.151408 
L 269.147163 123.396118 
L 269.782048 124.170675 
L 270.416932 123.295898 
L 271.051817 124.814251 
L 271.686701 123.777608 
L 273.591355 123.627319 
L 274.226239 123.866252 
L 274.861124 123.542521 
L 275.496009 124.320964 
L 276.130893 124.016541 
L 276.765778 124.155253 
L 277.400662 123.993429 
L 278.035547 124.687074 
L 278.670431 124.15914 
L 279.305316 124.610007 
L 279.9402 124.085918 
L 280.575085 124.428874 
L 281.209969 124.213054 
L 281.844854 123.873942 
L 282.479738 123.719808 
L 283.114623 122.818074 
L 283.749507 123.750651 
L 284.384392 124.23232 
L 285.019276 123.981853 
L 285.654161 122.941365 
L 286.289045 123.384542 
L 286.92393 124.012696 
L 287.558814 123.176452 
L 288.193699 123.457764 
L 288.828583 124.089763 
L 289.463468 123.73523 
L 290.098352 123.604208 
L 290.733237 124.475098 
L 291.368121 123.307475 
L 292.63789 124.417298 
L 293.272775 124.043498 
L 294.542544 123.931742 
L 295.177428 124.833518 
L 295.812313 124.147563 
L 296.447197 123.638896 
L 297.716967 123.839254 
L 298.986736 124.829631 
L 299.62162 124.675497 
L 300.256505 123.515564 
L 300.891389 124.062765 
L 301.526274 123.534831 
L 302.161158 124.687074 
L 302.796043 125.203473 
L 303.430927 124.606162 
L 304.065812 125.014609 
L 304.700696 123.627319 
L 305.335581 125.272808 
L 305.970465 125.184206 
L 306.60535 125.326763 
L 307.240234 125.107097 
L 308.510003 124.945273 
L 309.144888 125.488629 
L 309.779772 125.172629 
L 310.414657 125.843162 
L 311.049541 125.881695 
L 311.684426 125.380718 
L 312.31931 126.644717 
L 312.954195 125.962608 
L 313.589079 126.471316 
L 314.223964 126.039675 
L 315.493733 127.411584 
L 316.128617 126.563805 
L 317.398386 127.415429 
L 318.033271 126.155317 
L 318.668156 127.284406 
L 319.30304 126.88365 
L 319.937925 127.766117 
L 320.572809 127.36536 
L 321.207694 127.37305 
L 321.842578 127.041629 
L 322.477463 128.822026 
L 323.112347 127.665938 
L 323.747232 127.469384 
L 324.382116 127.80465 
L 325.017001 127.820072 
L 325.651885 128.213139 
L 326.28677 127.766117 
L 326.921654 128.259404 
L 327.556539 128.60236 
L 328.191423 128.421228 
L 328.826308 128.841293 
L 330.096077 129.23436 
L 330.730961 128.725692 
L 331.365846 129.45787 
L 332.00073 128.960738 
L 332.635615 128.760339 
L 333.270499 129.939581 
L 333.905384 127.627404 
L 334.540268 129.376917 
L 335.175153 129.98965 
L 335.810037 129.107182 
L 336.444922 129.276738 
L 337.079806 127.900984 
L 337.714691 129.477137 
L 338.349575 128.987737 
L 338.98446 129.064804 
L 339.619344 129.877894 
L 340.254229 129.010849 
L 340.889114 129.789292 
L 342.158883 128.883671 
L 342.793767 129.689072 
L 343.428652 129.954961 
L 344.063536 128.964584 
L 344.698421 129.931849 
L 345.333305 129.739182 
L 345.96819 130.209315 
L 347.237959 129.958848 
L 347.872843 130.324916 
L 348.507728 129.361537 
L 349.142612 129.789292 
L 349.777497 129.766139 
L 350.412381 130.043605 
L 351.047266 129.835515 
L 351.68215 130.401983 
L 352.317035 130.078293 
L 352.951919 131.01087 
L 353.586804 130.706447 
L 354.221688 130.598537 
L 354.856573 131.145738 
L 356.761226 130.829738 
L 357.396111 130.132248 
L 358.030995 130.613959 
L 358.66588 130.864426 
L 359.300764 130.236314 
L 359.935649 130.220892 
L 360.570533 130.96076 
L 361.205418 130.991604 
L 361.840303 131.63518 
L 362.475187 130.829738 
L 363.110072 131.400092 
L 364.379841 130.991604 
L 365.014725 131.033982 
L 365.64961 131.511847 
L 366.284494 130.883693 
L 366.919379 130.679449 
L 367.554263 131.596646 
L 368.824032 131.889492 
L 369.458917 130.810471 
L 370.093801 131.130357 
L 370.728686 131.581224 
L 371.36357 131.303758 
L 371.998455 131.349982 
L 373.268224 132.140002 
L 373.903108 131.939603 
L 374.537993 131.511847 
L 375.172877 131.920336 
L 375.807762 132.136157 
L 376.442646 132.186225 
L 377.077531 131.985826 
L 377.712415 132.644824 
L 378.3473 132.371203 
L 378.982184 131.157314 
L 379.617069 132.590869 
L 380.251953 132.413581 
L 380.886838 132.005093 
L 381.521722 132.082201 
L 382.156607 132.991625 
L 382.791491 132.482958 
L 383.426376 132.937712 
L 384.061261 132.517647 
L 384.696145 132.590869 
L 385.33103 132.806648 
L 385.965914 132.355781 
L 387.235683 132.748848 
L 387.870568 133.477181 
L 388.505452 132.07447 
L 389.775221 133.161223 
L 390.410106 132.224759 
L 391.04499 133.604358 
L 391.679875 132.92229 
L 392.314759 131.958869 
L 392.949644 133.30378 
L 393.584528 133.388579 
L 394.219413 134.190134 
L 394.854297 133.392424 
L 395.489182 133.804757 
L 396.124066 133.561979 
L 397.393835 133.488757 
L 398.02872 132.525337 
L 398.663604 133.681425 
L 399.298489 133.25367 
L 399.933373 133.78549 
L 401.203142 133.269092 
L 401.838027 134.178557 
L 402.472911 133.461801 
L 403.107796 133.662158 
L 403.74268 135.207468 
L 404.377565 133.565824 
L 405.01245 134.328846 
L 405.647334 133.461801 
L 406.282219 134.910735 
L 406.917103 133.481067 
L 407.551988 134.42518 
L 408.186872 133.912667 
L 409.456641 133.99358 
L 410.091526 134.829823 
L 410.72641 133.935779 
L 411.361295 135.319224 
L 411.996179 134.980112 
L 412.631064 134.8992 
L 413.265948 134.960845 
L 414.535717 134.459868 
L 415.170602 135.269155 
L 415.805486 134.764333 
L 416.440371 134.745025 
L 417.075255 134.059111 
L 417.71014 134.814401 
L 418.345024 134.633269 
L 418.979909 136.059133 
L 419.614793 134.972422 
L 420.249678 135.342377 
L 420.884562 135.384755 
L 421.519447 135.716177 
L 422.154331 134.8992 
L 422.789216 136.51 
L 423.4241 135.750824 
L 424.058985 135.257578 
L 424.693869 136.321178 
L 425.328754 135.924266 
L 425.963638 136.61022 
L 426.598523 135.600535 
L 427.233408 135.931956 
L 427.868292 136.07071 
L 428.503177 136.598644 
L 429.138061 135.415557 
L 429.772946 135.442556 
L 430.40783 136.517732 
L 431.042715 136.151622 
L 431.677599 136.344289 
L 432.312484 137.188264 
L 432.947368 135.735443 
L 433.582253 136.737356 
L 434.217137 135.947378 
L 434.852022 136.552379 
L 435.486906 136.8838 
L 436.121791 136.182465 
L 436.756675 137.157421 
L 437.39156 136.745088 
L 438.026444 136.483043 
L 438.661329 137.708467 
L 439.296213 137.2576 
L 439.931098 136.18631 
L 440.565982 137.211376 
L 442.470636 137.589021 
L 443.10552 137.993665 
L 444.375289 137.1998 
L 445.010174 137.743155 
L 445.645058 137.704622 
L 446.279943 138.652621 
L 446.914827 139.296197 
L 447.549712 139.157443 
L 448.184597 138.436841 
L 448.819481 138.606397 
L 449.454366 139.454176 
L 450.08925 139.496554 
L 450.724135 138.494642 
L 451.359019 139.492709 
L 451.993904 139.377109 
L 452.628788 140.718174 
L 453.263673 139.377109 
L 453.898557 140.259576 
L 454.533442 139.754754 
L 455.803211 140.255731 
L 456.438095 139.280775 
L 457.07298 140.02453 
L 457.707864 140.03222 
L 458.342749 140.814508 
L 458.977633 139.939731 
L 459.612518 140.733596 
L 460.247402 139.935886 
L 460.882287 140.575576 
L 462.152056 140.637262 
L 462.78694 140.336643 
L 463.421825 141.473464 
L 464.056709 140.648798 
L 465.961363 140.968642 
L 466.596247 141.419551 
L 467.231132 141.508153 
L 467.866016 140.656529 
L 468.500901 141.099664 
L 469.135785 141.303909 
L 469.77067 140.552464 
L 470.405555 141.63533 
L 471.040439 140.953262 
L 471.675324 141.25384 
L 472.310208 141.966751 
L 472.945093 141.581375 
L 473.579977 142.294328 
L 474.214862 141.222997 
L 474.849746 142.074662 
L 475.484631 141.592951 
L 476.119515 141.292373 
L 476.7544 141.858841 
L 477.389284 141.658442 
L 478.024169 142.06693 
L 478.659053 142.267329 
L 479.293938 142.702775 
L 479.928822 141.361709 
L 481.198591 142.629594 
L 481.833476 142.155574 
L 483.103245 142.286596 
L 483.738129 142.860795 
L 484.373014 140.197931 
L 485.007898 142.48315 
L 485.642783 143.273128 
L 486.912552 142.575639 
L 487.547436 141.962906 
L 488.182321 142.641129 
L 488.817205 141.596796 
L 489.45209 143.115149 
L 490.086974 143.057308 
L 490.721859 142.340551 
L 491.356744 142.999507 
L 491.991628 142.918595 
L 492.626513 142.036128 
L 493.261397 142.583329 
L 493.896282 142.355973 
L 494.531166 143.882016 
L 495.166051 143.269283 
L 495.800935 143.011084 
L 496.43582 143.754839 
L 497.070704 142.525529 
L 497.705589 143.369462 
L 498.340473 143.685462 
L 498.975358 143.169063 
L 499.610242 143.635352 
L 500.245127 142.675818 
L 500.880011 143.404151 
L 501.514896 143.650773 
L 502.14978 143.072729 
L 502.784665 142.833797 
L 503.419549 144.298194 
L 504.054434 143.458106 
L 504.689318 144.436907 
L 505.324203 143.716305 
L 505.959087 143.947506 
L 506.593972 142.964819 
L 507.863741 144.221127 
L 508.498625 144.332883 
L 509.13351 143.677772 
L 509.768394 143.292395 
L 511.038163 144.263506 
L 511.673048 143.111263 
L 512.307933 144.429217 
L 512.942817 143.415727 
L 513.577702 143.423417 
L 514.847471 144.163327 
L 515.482355 142.302018 
L 516.11724 143.955238 
L 516.752124 144.055417 
L 518.021893 143.55444 
L 519.291662 144.078529 
L 519.926547 143.550595 
L 520.561431 144.390683 
L 521.196316 143.67004 
L 521.8312 143.223018 
L 522.466085 143.808794 
L 523.100969 143.67004 
L 523.735854 144.930194 
L 524.370738 143.67004 
L 525.005623 143.327084 
L 525.640507 144.436907 
L 526.275392 144.930194 
L 526.910276 144.698993 
L 527.545161 144.77606 
L 528.81493 143.284705 
L 529.449814 144.729795 
L 530.084699 144.718259 
L 530.719583 144.537127 
L 531.354468 144.864662 
L 531.989352 145.658527 
L 532.624237 144.961037 
L 533.259121 143.23075 
L 533.894006 143.153683 
L 534.528891 143.192216 
L 535.163775 142.880062 
L 535.79866 143.196061 
L 536.433544 142.48315 
L 537.068429 143.13053 
L 537.703313 142.907019 
L 538.338198 143.434994 
L 538.973082 142.741308 
L 539.607967 144.024573 
L 540.242851 143.057308 
L 540.877736 143.134416 
L 541.51262 142.340551 
L 542.147505 143.816484 
L 542.782389 144.005307 
L 543.417274 142.74904 
L 544.052158 143.219173 
L 544.687043 143.862749 
L 545.956812 143.450416 
L 546.591696 144.10164 
L 547.226581 144.105527 
L 547.861465 144.278928 
L 548.49635 143.993771 
L 549.131234 143.369462 
L 549.766119 144.097795 
L 550.401003 144.259661 
L 551.035888 144.957151 
L 551.670772 143.804949 
L 552.305657 144.629616 
L 552.940541 144.78375 
L 554.21031 144.633461 
L 554.845195 145.203815 
L 555.48008 144.618039 
L 556.114964 144.186439 
L 556.749849 144.683571 
L 557.384733 144.332883 
L 558.019618 143.381039 
L 558.654502 144.248084 
L 559.924271 144.413795 
L 560.559156 144.671994 
L 561.19404 144.321306 
L 561.828925 144.876239 
L 563.098694 145.64695 
L 564.368463 144.718259 
L 565.003347 144.691261 
L 565.638232 145.654682 
L 566.273116 144.664304 
L 566.908001 145.63926 
L 567.542885 144.498594 
L 568.17777 145.303994 
L 569.447539 144.837705 
L 570.082423 144.348305 
L 570.717308 145.804971 
L 571.352192 145.562193 
L 571.987077 145.739439 
L 572.621961 145.138283 
L 573.256846 145.573728 
L 573.89173 145.126706 
L 574.526615 145.997638 
L 575.161499 146.198037 
L 576.431268 145.350217 
L 577.066153 145.716327 
L 577.701038 145.365639 
L 578.335922 145.851194 
L 578.970807 145.558348 
L 579.605691 144.737526 
L 580.240576 146.587259 
L 580.87546 145.280882 
L 581.510345 144.760638 
L 582.145229 145.492816 
L 582.780114 145.700905 
L 582.780114 145.700905 
" clip-path="url(#p5b62d39600)" style="fill: none; stroke: #1f77b4; stroke-width: 1.5; stroke-linecap: square"/>
   </g>
   <g id="line2d_36">
    <path d="M 75.507386 328.413115 
L 76.142271 304.273975 
L 76.777155 328.551848 
L 77.41204 317.592122 
L 78.046924 285.510654 
L 78.681809 311.938858 
L 79.316693 269.660665 
L 79.951578 346.794946 
L 80.586462 256.828074 
L 81.221347 244.203572 
L 81.856232 293.938538 
L 82.491116 248.816369 
L 83.126001 269.972799 
L 83.760885 273.787907 
L 84.39577 271.74162 
L 85.030654 258.839672 
L 85.665539 257.313629 
L 86.300423 329.731069 
L 86.935308 259.325228 
L 87.570192 272.123131 
L 88.205077 294.840293 
L 88.839961 246.145814 
L 89.474846 326.74836 
L 90.10973 261.406182 
L 90.744615 235.1514 
L 91.379499 263.244359 
L 92.014384 251.903143 
L 92.649268 231.960601 
L 93.284153 296.678469 
L 93.919037 266.539223 
L 95.188806 261.926426 
L 95.823691 285.961521 
L 96.458575 267.440978 
L 97.09346 268.308044 
L 97.728344 249.336613 
L 98.363229 235.914421 
L 98.998113 243.093728 
L 99.632998 213.57877 
L 100.267882 258.388785 
L 100.902767 254.573698 
L 101.537651 243.64866 
L 102.172536 246.839459 
L 102.80742 256.51594 
L 103.442305 183.474212 
L 104.07719 145.461973 
L 104.712074 248.157412 
L 105.346959 221.208965 
L 105.981843 231.162891 
L 106.616728 226.307317 
L 107.251612 160.861115 
L 107.886497 186.769076 
L 108.521381 230.365181 
L 109.156266 207.682729 
L 109.79115 166.445002 
L 110.426035 194.225849 
L 111.060919 125.172629 
L 111.695804 185.347057 
L 112.330688 218.434345 
L 112.965573 184.653412 
L 113.600457 160.895804 
L 114.235342 158.710763 
L 114.870226 202.584356 
L 115.505111 210.179862 
L 116.139995 186.179455 
L 116.77488 237.613865 
L 118.044649 223.602074 
L 118.679533 183.127369 
L 119.314418 204.700019 
L 119.949302 116.016412 
L 120.584187 141.36944 
L 121.219071 137.62371 
L 121.853956 210.838839 
L 122.48884 218.850544 
L 123.758609 152.017012 
L 124.393494 152.086389 
L 125.028379 158.710763 
L 125.663263 154.999721 
L 126.298148 158.606739 
L 126.933032 172.722575 
L 127.567917 171.43931 
L 128.202801 166.375667 
L 128.837686 194.57265 
L 129.47257 181.74008 
L 130.107455 194.329873 
L 130.742339 177.543482 
L 131.377224 168.560666 
L 132.012108 178.16775 
L 132.646993 192.352963 
L 133.281877 184.861501 
L 133.916762 202.827133 
L 134.551646 193.670917 
L 135.186531 191.728695 
L 135.821415 184.930878 
L 136.4563 241.047462 
L 137.091184 203.278 
L 137.726069 172.479798 
L 138.360953 171.369933 
L 138.995838 198.873313 
L 139.630722 201.613245 
L 140.265607 165.092402 
L 140.900491 157.288786 
L 141.535376 173.624309 
L 142.17026 210.179862 
L 142.805145 158.745452 
L 143.440029 164.814935 
L 144.074914 151.08059 
L 144.709798 175.289106 
L 145.344683 183.266123 
L 145.979567 157.98243 
L 146.614452 158.363962 
L 147.249337 167.312089 
L 147.884221 100.61727 
L 148.519106 124.721762 
L 149.15399 163.670382 
L 149.788875 192.59574 
L 150.423759 168.352577 
L 151.058644 128.779606 
L 151.693528 118.062658 
L 152.328413 136.340444 
L 152.963297 149.658612 
L 153.598182 154.756943 
L 154.233066 143.935971 
L 154.867951 144.73364 
L 155.502835 175.601261 
L 156.13772 110.189706 
L 157.407489 187.219943 
L 158.042373 172.063619 
L 158.677258 129.542628 
L 159.312142 167.381425 
L 159.947027 196.37616 
L 160.581911 172.271708 
L 161.216796 197.416647 
L 161.85168 131.901069 
L 162.486565 116.675369 
L 163.121449 170.052021 
L 163.756334 109.461373 
L 164.391218 112.235993 
L 165.026103 159.231007 
L 165.660987 184.341258 
L 166.295872 128.779606 
L 166.930756 114.594393 
L 167.565641 132.109158 
L 168.200526 189.404942 
L 168.83541 150.837812 
L 170.105179 100.929424 
L 170.740064 89.93501 
L 171.374948 145.843504 
L 172.009833 173.520285 
L 172.644717 97.599913 
L 173.914486 130.791205 
L 174.549371 175.80935 
L 175.184255 127.427005 
L 175.81914 112.409394 
L 176.454024 80.778793 
L 177.088909 121.39221 
L 177.723793 120.733254 
L 178.358678 150.837812 
L 178.993562 108.386197 
L 179.628447 82.235459 
L 180.263331 103.39189 
L 180.898216 109.808216 
L 181.5331 121.218809 
L 182.167985 128.883671 
L 182.802869 121.739053 
L 183.437754 150.837812 
L 184.072638 128.467493 
L 184.707523 132.941557 
L 185.342407 178.202438 
L 185.977292 90.663343 
L 187.247061 136.617911 
L 187.881945 91.91192 
L 188.51683 112.825573 
L 189.151715 123.265096 
L 189.786599 119.900855 
L 190.421484 123.854675 
L 191.056368 123.265096 
L 191.691253 184.861501 
L 192.326137 83.830879 
L 192.961022 192.457028 
L 193.595906 172.375732 
L 194.230791 156.040209 
L 194.865675 148.583436 
L 195.50056 84.00428 
L 196.770329 141.993708 
L 197.405213 124.96454 
L 198.040098 153.889898 
L 198.674982 94.651851 
L 199.309867 137.901176 
L 199.944751 106.617376 
L 201.849405 198.803936 
L 203.119174 79.426192 
L 203.754058 198.457135 
L 204.388943 173.277508 
L 205.023827 196.272136 
L 205.658712 113.657971 
L 206.293596 136.44451 
L 206.928481 82.582302 
L 207.563365 47.518125 
L 208.19825 91.010186 
L 208.833134 163.011426 
L 209.468019 115.600192 
L 210.102903 138.941663 
L 210.737788 123.715963 
L 211.372673 101.900535 
L 212.007557 141.785619 
L 212.642442 109.426685 
L 213.277326 126.906761 
L 213.912211 105.993109 
L 214.547095 171.231221 
L 215.18198 161.589449 
L 215.816864 149.762636 
L 216.451749 101.761823 
L 217.086633 130.583115 
L 217.721518 91.981297 
L 218.356402 122.744852 
L 218.991287 130.305649 
L 219.626171 109.461373 
L 220.261056 150.109479 
L 220.89594 92.397475 
L 221.530825 94.443762 
L 222.165709 146.433125 
L 222.800594 166.271602 
L 223.435478 154.2367 
L 224.070363 130.721869 
L 224.705247 154.861009 
L 225.340132 99.819601 
L 225.975016 124.374919 
L 226.609901 116.571303 
L 227.244785 111.923839 
L 227.87967 189.26623 
L 228.514554 89.622897 
L 229.149439 118.340124 
L 229.784323 153.508366 
L 230.419208 129.958848 
L 231.054092 142.16715 
L 231.688977 93.958207 
L 232.323862 118.374812 
L 232.958746 106.097133 
L 233.593631 175.774661 
L 234.228515 99.715536 
L 234.8634 142.826107 
L 235.498284 165.577957 
L 236.133169 147.751037 
L 236.768053 156.109586 
L 237.402938 133.288358 
L 238.037822 101.41498 
L 238.672707 124.791098 
L 239.307591 134.363534 
L 239.942476 158.225208 
L 240.57736 141.646907 
L 241.847129 94.166296 
L 242.482014 107.831306 
L 243.116898 81.819281 
L 243.751783 150.907189 
L 244.386667 130.791205 
L 245.021552 106.617376 
L 245.656436 130.201625 
L 246.291321 104.258976 
L 246.926205 151.982323 
L 247.56109 181.254524 
L 248.195974 79.911748 
L 248.830859 192.179562 
L 249.465743 103.530643 
L 250.100628 181.74008 
L 250.735512 88.998587 
L 251.370397 97.703937 
L 252.005281 53.448855 
L 252.640166 109.496062 
L 253.27505 144.664304 
L 253.909935 152.710656 
L 254.54482 142.791418 
L 255.179704 104.987309 
L 255.814589 109.010506 
L 256.449473 109.253284 
L 257.084358 121.669676 
L 257.719242 100.478557 
L 258.989011 105.021998 
L 259.623896 165.612645 
L 260.25878 91.010186 
L 260.893665 99.334046 
L 261.528549 166.098201 
L 262.163434 77.449241 
L 262.798318 107.93533 
L 263.433203 172.271708 
L 264.068087 103.1838 
L 264.702972 160.202118 
L 265.337856 59.102119 
L 265.972741 141.473464 
L 266.607625 104.536443 
L 267.24251 137.693087 
L 267.877394 157.288786 
L 268.512279 104.883244 
L 269.147163 120.559812 
L 269.782048 107.900642 
L 270.416932 197.381959 
L 271.686701 106.513353 
L 272.321586 203.590155 
L 272.95647 56.29281 
L 273.591355 79.391504 
L 274.226239 129.993536 
L 274.861124 140.987909 
L 275.496009 109.183907 
L 276.130893 114.66377 
L 276.765778 124.96454 
L 277.400662 145.045794 
L 278.035547 126.455894 
L 278.670431 90.004387 
L 279.305316 147.716349 
L 279.9402 182.295012 
L 280.575085 191.24314 
L 281.209969 82.062058 
L 281.844854 131.935757 
L 282.479738 140.39833 
L 283.114623 78.316328 
L 283.749507 62.917226 
L 284.384392 126.94145 
L 285.019276 153.959233 
L 285.654161 144.94177 
L 286.289045 98.25887 
L 286.92393 149.311769 
L 287.558814 145.843504 
L 288.193699 105.403488 
L 288.828583 175.774661 
L 289.463468 154.82632 
L 290.098352 65.345003 
L 290.733237 160.999828 
L 291.368121 112.444082 
L 292.003006 183.162057 
L 292.63789 118.548213 
L 293.907659 131.588914 
L 294.542544 101.519045 
L 295.177428 98.64036 
L 295.812313 96.802203 
L 296.447197 145.843504 
L 297.082082 155.693366 
L 297.716967 112.270682 
L 298.351851 124.374919 
L 298.986736 80.293238 
L 299.62162 147.092081 
L 300.256505 118.374812 
L 300.891389 163.53167 
L 301.526274 81.507126 
L 302.161158 93.403274 
L 302.796043 121.461587 
L 304.065812 142.687394 
L 304.700696 94.062272 
L 305.335581 171.924865 
L 305.970465 121.565611 
L 306.60535 146.294371 
L 307.240234 103.149112 
L 307.875119 131.311448 
L 308.510003 148.271281 
L 309.144888 176.364241 
L 309.779772 142.54864 
L 310.414657 97.808003 
L 311.049541 95.518938 
L 311.684426 153.716456 
L 312.31931 115.322726 
L 312.954195 120.941343 
L 313.589079 124.444296 
L 314.223964 122.432698 
L 314.858848 111.368906 
L 315.493733 86.744211 
L 316.128617 115.669569 
L 316.763502 154.861009 
L 317.398386 171.994242 
L 318.033271 138.039888 
L 318.668156 118.582902 
L 319.30304 115.253391 
L 319.937925 105.16071 
L 320.572809 123.403808 
L 321.207694 159.092295 
L 321.842578 128.12065 
L 322.477463 148.964926 
L 323.112347 92.570917 
L 323.747232 106.582729 
L 324.382116 86.432057 
L 325.017001 136.409821 
L 325.651885 123.681275 
L 326.28677 130.409714 
L 326.921654 134.398223 
L 327.556539 175.115664 
L 328.191423 169.635801 
L 328.826308 126.976138 
L 329.461192 104.085576 
L 330.096077 126.629295 
L 330.730961 144.248084 
L 331.365846 85.807789 
L 332.00073 163.843825 
L 332.635615 132.733467 
L 333.270499 88.963899 
L 333.905384 103.773421 
L 334.540268 127.427005 
L 335.175153 144.490862 
L 335.810037 105.95842 
L 336.444922 126.94145 
L 337.079806 133.947356 
L 337.714691 155.173122 
L 338.349575 109.738839 
L 338.98446 146.675903 
L 339.619344 136.895377 
L 340.254229 153.43899 
L 340.889114 120.733254 
L 341.523998 135.542734 
L 342.158883 164.780247 
L 342.793767 152.571944 
L 343.428652 107.692553 
L 344.063536 116.848769 
L 344.698421 215.902523 
L 345.333305 137.693087 
L 345.96819 124.409608 
L 346.603074 119.79679 
L 347.237959 83.934903 
L 347.872843 149.415834 
L 348.507728 151.739546 
L 349.142612 149.519858 
L 349.777497 150.040102 
L 350.412381 141.542841 
L 351.047266 143.485063 
L 351.68215 131.797004 
L 352.317035 141.057286 
L 352.951919 106.860154 
L 354.221688 203.590155 
L 354.856573 134.883778 
L 355.491457 125.76225 
L 356.126342 168.317888 
L 356.761226 134.953155 
L 357.396111 128.398116 
L 358.030995 169.635801 
L 359.300764 98.605713 
L 359.935649 149.034303 
L 360.570533 150.907189 
L 361.205418 111.923839 
L 361.840303 100.305156 
L 362.475187 119.276588 
L 363.110072 115.877659 
L 363.744956 179.242926 
L 364.379841 128.536828 
L 365.64961 166.445002 
L 366.284494 99.091268 
L 366.919379 162.491182 
L 367.554263 116.016412 
L 368.189148 88.75581 
L 368.824032 109.91224 
L 369.458917 170.606953 
L 370.093801 138.80291 
L 370.728686 120.21301 
L 371.36357 124.409608 
L 371.998455 137.831799 
L 372.633339 137.41562 
L 373.268224 85.495634 
L 373.903108 124.617697 
L 374.537993 177.057927 
L 375.172877 181.393237 
L 375.807762 132.802803 
L 376.442646 123.36912 
L 377.077531 191.000362 
L 377.712415 126.976138 
L 378.3473 123.091654 
L 378.982184 120.629189 
L 379.617069 107.276374 
L 380.251953 171.508687 
L 380.886838 152.884099 
L 381.521722 183.266123 
L 382.156607 113.623282 
L 382.791491 111.056793 
L 383.426376 148.722148 
L 384.061261 148.444682 
L 384.696145 132.629402 
L 385.33103 90.143099 
L 385.965914 98.917826 
L 386.600799 153.265589 
L 387.235683 150.490969 
L 387.870568 121.218809 
L 388.505452 128.016585 
L 389.140337 163.878513 
L 389.775221 173.104107 
L 390.410106 124.062765 
L 391.04499 61.287118 
L 391.679875 132.213224 
L 392.314759 171.994242 
L 392.949644 143.519751 
L 393.584528 126.594607 
L 394.219413 162.838025 
L 394.854297 117.715856 
L 395.489182 133.843291 
L 396.124066 137.797111 
L 396.758951 130.305649 
L 398.02872 149.693259 
L 398.663604 154.548854 
L 399.298489 150.941836 
L 399.933373 133.288358 
L 400.568258 147.647013 
L 401.203142 157.635629 
L 401.838027 101.102866 
L 402.472911 169.670489 
L 403.107796 188.572544 
L 403.74268 212.815749 
L 404.377565 163.011426 
L 405.01245 125.172629 
L 405.647334 159.335072 
L 406.282219 135.958954 
L 406.917103 210.075817 
L 407.551988 181.74008 
L 408.186872 129.889471 
L 408.821757 136.132355 
L 409.456641 119.484677 
L 410.091526 117.923945 
L 410.72641 120.698565 
L 411.361295 116.883458 
L 411.996179 167.104 
L 412.631064 138.560132 
L 413.265948 135.369334 
L 413.900833 143.34635 
L 414.535717 146.016905 
L 415.170602 99.195292 
L 415.805486 157.913053 
L 417.075255 124.652385 
L 417.71014 140.155552 
L 418.345024 158.433297 
L 418.979909 131.311448 
L 419.614793 193.670917 
L 420.249678 147.369547 
L 420.884562 123.611898 
L 421.519447 108.698352 
L 422.154331 135.299957 
L 422.789216 130.687181 
L 423.4241 109.91224 
L 424.058985 163.878513 
L 425.328754 105.507553 
L 425.963638 163.046115 
L 426.598523 175.80935 
L 427.233408 151.358056 
L 427.868292 133.149646 
L 428.503177 131.138048 
L 429.138061 122.18992 
L 429.772946 148.028503 
L 430.40783 184.757477 
L 431.042715 164.676182 
L 431.677599 138.594821 
L 432.312484 123.819987 
L 432.947368 146.537149 
L 433.582253 108.247485 
L 434.217137 125.415407 
L 434.852022 180.491503 
L 435.486906 147.785726 
L 436.121791 164.849624 
L 436.756675 109.669463 
L 438.661329 180.977058 
L 439.296213 132.976245 
L 439.931098 161.311982 
L 440.565982 158.884205 
L 441.200867 151.600833 
L 441.835751 201.197066 
L 442.470636 178.930771 
L 443.10552 176.502994 
L 443.740405 94.547827 
L 445.010174 121.912454 
L 445.645058 116.224502 
L 446.279943 146.294371 
L 446.914827 170.884378 
L 447.549712 110.605885 
L 448.184597 175.670596 
L 448.819481 164.988336 
L 449.454366 120.074256 
L 450.08925 161.485383 
L 450.724135 96.490049 
L 451.359019 144.248084 
L 451.993904 162.317782 
L 452.628788 121.426898 
L 453.263673 168.005734 
L 453.898557 185.728588 
L 454.533442 102.594221 
L 455.168326 77.241152 
L 455.803211 168.248512 
L 456.438095 184.826813 
L 457.07298 147.230794 
L 457.707864 127.045474 
L 458.342749 163.427605 
L 458.977633 162.144381 
L 459.612518 100.721335 
L 460.247402 104.293665 
L 460.882287 127.600406 
L 461.517171 117.681168 
L 462.152056 125.34603 
L 462.78694 182.156258 
L 463.421825 126.629295 
L 464.056709 147.993815 
L 464.691594 156.178921 
L 465.326478 68.431778 
L 465.961363 155.242499 
L 466.596247 173.658998 
L 467.231132 123.091654 
L 467.866016 120.906655 
L 468.500901 180.109971 
L 469.135785 128.987737 
L 469.77067 115.600192 
L 470.405555 127.357628 
L 471.040439 161.138582 
L 471.675324 153.924586 
L 472.310208 168.976845 
L 472.945093 171.85553 
L 473.579977 154.514166 
L 474.214862 71.553199 
L 474.849746 130.479091 
L 475.484631 208.341685 
L 476.119515 165.473892 
L 476.7544 69.194799 
L 477.389284 135.854889 
L 478.024169 144.178749 
L 478.659053 118.201412 
L 479.293938 163.670382 
L 479.928822 122.293944 
L 480.563707 121.704365 
L 481.198591 111.264882 
L 481.833476 171.092508 
L 482.46836 113.033703 
L 483.103245 186.8731 
L 483.738129 106.964219 
L 484.373014 204.249152 
L 485.007898 148.583436 
L 485.642783 118.340124 
L 486.277667 131.415514 
L 486.912552 127.947249 
L 488.182321 166.826534 
L 488.817205 152.814722 
L 489.45209 153.404342 
L 490.086974 177.959661 
L 490.721859 157.18472 
L 491.356744 151.25399 
L 491.991628 138.282666 
L 492.626513 121.218809 
L 493.261397 87.056366 
L 493.896282 134.086068 
L 494.531166 137.450309 
L 495.166051 102.282066 
L 495.800935 149.311769 
L 496.43582 144.213396 
L 497.070704 147.959127 
L 497.705589 133.739267 
L 498.340473 179.451015 
L 498.975358 158.190519 
L 499.610242 130.999335 
L 500.245127 160.479584 
L 500.880011 139.669997 
L 501.514896 136.340444 
L 502.14978 120.108945 
L 502.784665 156.00552 
L 503.419549 150.040102 
L 504.054434 168.213823 
L 504.689318 155.797431 
L 505.324203 136.895377 
L 505.959087 174.144553 
L 506.593972 158.537362 
L 507.863741 109.53075 
L 508.498625 137.103466 
L 509.13351 148.167257 
L 509.768394 154.930344 
L 510.403279 163.288892 
L 511.038163 152.780033 
L 511.673048 110.050994 
L 512.307933 106.374599 
L 512.942817 109.287972 
L 513.577702 179.34695 
L 514.212586 144.837705 
L 514.847471 134.641001 
L 515.482355 115.912347 
L 516.11724 180.491503 
L 516.752124 143.068884 
L 517.387009 97.703937 
L 518.021893 146.641214 
L 518.656778 136.236379 
L 519.291662 107.657864 
L 519.926547 186.040743 
L 520.561431 190.82692 
L 521.196316 119.970232 
L 521.8312 171.265909 
L 522.466085 119.970232 
L 523.100969 164.606846 
L 523.735854 122.051166 
L 524.370738 146.398436 
L 525.005623 142.16715 
L 525.640507 157.843718 
L 526.275392 97.842691 
L 526.910276 206.572864 
L 527.545161 182.260324 
L 528.180045 209.347484 
L 528.81493 194.017759 
L 529.449814 120.039609 
L 530.084699 137.866487 
L 530.719583 189.543696 
L 531.354468 141.091974 
L 531.989352 152.710656 
L 532.624237 181.185148 
L 533.259121 140.502354 
L 533.894006 120.733254 
L 534.528891 122.536722 
L 535.163775 107.311062 
L 535.79866 127.531029 
L 536.433544 142.618017 
L 537.068429 142.895483 
L 537.703313 152.953434 
L 538.338198 150.733747 
L 538.973082 90.975497 
L 539.607967 97.07967 
L 540.242851 168.387224 
L 540.877736 159.335072 
L 541.51262 114.316927 
L 542.147505 138.074577 
L 542.782389 177.924972 
L 543.417274 163.358269 
L 544.052158 200.850223 
L 544.687043 107.415086 
L 545.321927 161.138582 
L 545.956812 127.669783 
L 546.591696 85.669035 
L 547.226581 122.120543 
L 547.861465 138.109265 
L 548.49635 124.929851 
L 549.131234 58.235073 
L 549.766119 135.195933 
L 550.401003 136.201732 
L 551.035888 171.023131 
L 551.670772 92.779007 
L 552.305657 163.323581 
L 552.940541 215.590368 
L 553.575426 156.040209 
L 554.21031 172.895976 
L 554.845195 110.259083 
L 555.48008 135.334645 
L 556.114964 138.872287 
L 556.749849 109.461373 
L 557.384733 132.282559 
L 558.019618 194.746093 
L 558.654502 149.901389 
L 559.289387 177.716883 
L 559.924271 132.698779 
L 560.559156 115.84297 
L 561.19404 151.704857 
L 561.828925 153.820521 
L 562.463809 174.907575 
L 563.098694 150.768435 
L 563.733578 195.925293 
L 565.003347 127.045474 
L 565.638232 154.375453 
L 566.273116 116.051101 
L 566.908001 98.675048 
L 567.542885 180.838305 
L 568.17777 151.184655 
L 568.812654 104.258976 
L 569.447539 134.4676 
L 570.082423 84.697925 
L 570.717308 98.05078 
L 571.352192 179.381638 
L 571.987077 142.583329 
L 572.621961 136.548534 
L 573.256846 134.953155 
L 573.89173 155.450588 
L 574.526615 130.340338 
L 575.161499 124.062765 
L 575.796384 194.260537 
L 577.066153 100.374492 
L 577.701038 138.352043 
L 578.335922 109.253284 
L 578.970807 196.584249 
L 579.605691 115.530857 
L 580.240576 166.271602 
L 580.87546 138.664197 
L 581.510345 173.520285 
L 582.145229 111.576996 
L 582.780114 197.971579 
L 582.780114 197.971579 
" clip-path="url(#p5b62d39600)" style="fill: none; stroke: #ff7f0e; stroke-width: 1.5; stroke-linecap: square"/>
   </g>
   <g id="line2d_37">
    <path d="M 50.14375 551.518125 
L 608.14375 551.518125 
" clip-path="url(#p5b62d39600)" style="fill: none; stroke-dasharray: 11.1,4.8; stroke-dashoffset: 0; stroke: #ff0000; stroke-width: 3"/>
   </g>
   <g id="patch_3">
    <path d="M 50.14375 576.718125 
L 50.14375 22.318125 
" style="fill: none; stroke: #000000; stroke-width: 0.8; stroke-linejoin: miter; stroke-linecap: square"/>
   </g>
   <g id="patch_4">
    <path d="M 608.14375 576.718125 
L 608.14375 22.318125 
" style="fill: none; stroke: #000000; stroke-width: 0.8; stroke-linejoin: miter; stroke-linecap: square"/>
   </g>
   <g id="patch_5">
    <path d="M 50.14375 576.718125 
L 608.14375 576.718125 
" style="fill: none; stroke: #000000; stroke-width: 0.8; stroke-linejoin: miter; stroke-linecap: square"/>
   </g>
   <g id="patch_6">
    <path d="M 50.14375 22.318125 
L 608.14375 22.318125 
" style="fill: none; stroke: #000000; stroke-width: 0.8; stroke-linejoin: miter; stroke-linecap: square"/>
   </g>
   <g id="text_20">
    <!-- Train and Val Accuracy -->
    <g transform="translate(261.365313 16.318125) scale(0.12 -0.12)">
     <defs>
      <path id="DejaVuSans-54" d="M -19 4666 
L 3928 4666 
L 3928 4134 
L 2272 4134 
L 2272 0 
L 1638 0 
L 1638 4134 
L -19 4134 
L -19 4666 
z
" transform="scale(0.015625)"/>
      <path id="DejaVuSans-69" d="M 603 3500 
L 1178 3500 
L 1178 0 
L 603 0 
L 603 3500 
z
M 603 4863 
L 1178 4863 
L 1178 4134 
L 603 4134 
L 603 4863 
z
" transform="scale(0.015625)"/>
      <path id="DejaVuSans-6e" d="M 3513 2113 
L 3513 0 
L 2938 0 
L 2938 2094 
Q 2938 2591 2744 2837 
Q 2550 3084 2163 3084 
Q 1697 3084 1428 2787 
Q 1159 2491 1159 1978 
L 1159 0 
L 581 0 
L 581 3500 
L 1159 3500 
L 1159 2956 
Q 1366 3272 1645 3428 
Q 1925 3584 2291 3584 
Q 2894 3584 3203 3211 
Q 3513 2838 3513 2113 
z
" transform="scale(0.015625)"/>
      <path id="DejaVuSans-20" transform="scale(0.015625)"/>
      <path id="DejaVuSans-64" d="M 2906 2969 
L 2906 4863 
L 3481 4863 
L 3481 0 
L 2906 0 
L 2906 525 
Q 2725 213 2448 61 
Q 2172 -91 1784 -91 
Q 1150 -91 751 415 
Q 353 922 353 1747 
Q 353 2572 751 3078 
Q 1150 3584 1784 3584 
Q 2172 3584 2448 3432 
Q 2725 3281 2906 2969 
z
M 947 1747 
Q 947 1113 1208 752 
Q 1469 391 1925 391 
Q 2381 391 2643 752 
Q 2906 1113 2906 1747 
Q 2906 2381 2643 2742 
Q 2381 3103 1925 3103 
Q 1469 3103 1208 2742 
Q 947 2381 947 1747 
z
" transform="scale(0.015625)"/>
      <path id="DejaVuSans-56" d="M 1831 0 
L 50 4666 
L 709 4666 
L 2188 738 
L 3669 4666 
L 4325 4666 
L 2547 0 
L 1831 0 
z
" transform="scale(0.015625)"/>
      <path id="DejaVuSans-6c" d="M 603 4863 
L 1178 4863 
L 1178 0 
L 603 0 
L 603 4863 
z
" transform="scale(0.015625)"/>
     </defs>
     <use xlink:href="#DejaVuSans-54"/>
     <use xlink:href="#DejaVuSans-72" transform="translate(46.333984 0)"/>
     <use xlink:href="#DejaVuSans-61" transform="translate(87.447266 0)"/>
     <use xlink:href="#DejaVuSans-69" transform="translate(148.726562 0)"/>
     <use xlink:href="#DejaVuSans-6e" transform="translate(176.509766 0)"/>
     <use xlink:href="#DejaVuSans-20" transform="translate(239.888672 0)"/>
     <use xlink:href="#DejaVuSans-61" transform="translate(271.675781 0)"/>
     <use xlink:href="#DejaVuSans-6e" transform="translate(332.955078 0)"/>
     <use xlink:href="#DejaVuSans-64" transform="translate(396.333984 0)"/>
     <use xlink:href="#DejaVuSans-20" transform="translate(459.810547 0)"/>
     <use xlink:href="#DejaVuSans-56" transform="translate(491.597656 0)"/>
     <use xlink:href="#DejaVuSans-61" transform="translate(552.255859 0)"/>
     <use xlink:href="#DejaVuSans-6c" transform="translate(613.535156 0)"/>
     <use xlink:href="#DejaVuSans-20" transform="translate(641.318359 0)"/>
     <use xlink:href="#DejaVuSans-41" transform="translate(673.105469 0)"/>
     <use xlink:href="#DejaVuSans-63" transform="translate(739.763672 0)"/>
     <use xlink:href="#DejaVuSans-63" transform="translate(794.744141 0)"/>
     <use xlink:href="#DejaVuSans-75" transform="translate(849.724609 0)"/>
     <use xlink:href="#DejaVuSans-72" transform="translate(913.103516 0)"/>
     <use xlink:href="#DejaVuSans-61" transform="translate(954.216797 0)"/>
     <use xlink:href="#DejaVuSans-63" transform="translate(1015.496094 0)"/>
     <use xlink:href="#DejaVuSans-79" transform="translate(1070.476562 0)"/>
    </g>
   </g>
   <g id="legend_1">
    <g id="patch_7">
     <path d="M 434.020312 323.313438 
L 601.14375 323.313438 
Q 603.14375 323.313438 603.14375 321.313438 
L 603.14375 277.722813 
Q 603.14375 275.722813 601.14375 275.722813 
L 434.020312 275.722813 
Q 432.020312 275.722813 432.020312 277.722813 
L 432.020312 321.313438 
Q 432.020312 323.313438 434.020312 323.313438 
z
" style="fill: #ffffff; opacity: 0.8; stroke: #cccccc; stroke-linejoin: miter"/>
    </g>
    <g id="line2d_38">
     <path d="M 436.020312 283.82125 
L 446.020312 283.82125 
L 456.020312 283.82125 
" style="fill: none; stroke: #1f77b4; stroke-width: 1.5; stroke-linecap: square"/>
    </g>
    <g id="text_21">
     <!-- train_accuracy -->
     <g transform="translate(464.020312 287.32125) scale(0.1 -0.1)">
      <defs>
       <path id="DejaVuSans-74" d="M 1172 4494 
L 1172 3500 
L 2356 3500 
L 2356 3053 
L 1172 3053 
L 1172 1153 
Q 1172 725 1289 603 
Q 1406 481 1766 481 
L 2356 481 
L 2356 0 
L 1766 0 
Q 1100 0 847 248 
Q 594 497 594 1153 
L 594 3053 
L 172 3053 
L 172 3500 
L 594 3500 
L 594 4494 
L 1172 4494 
z
" transform="scale(0.015625)"/>
       <path id="DejaVuSans-5f" d="M 3263 -1063 
L 3263 -1509 
L -63 -1509 
L -63 -1063 
L 3263 -1063 
z
" transform="scale(0.015625)"/>
      </defs>
      <use xlink:href="#DejaVuSans-74"/>
      <use xlink:href="#DejaVuSans-72" transform="translate(39.208984 0)"/>
      <use xlink:href="#DejaVuSans-61" transform="translate(80.322266 0)"/>
      <use xlink:href="#DejaVuSans-69" transform="translate(141.601562 0)"/>
      <use xlink:href="#DejaVuSans-6e" transform="translate(169.384766 0)"/>
      <use xlink:href="#DejaVuSans-5f" transform="translate(232.763672 0)"/>
      <use xlink:href="#DejaVuSans-61" transform="translate(282.763672 0)"/>
      <use xlink:href="#DejaVuSans-63" transform="translate(344.042969 0)"/>
      <use xlink:href="#DejaVuSans-63" transform="translate(399.023438 0)"/>
      <use xlink:href="#DejaVuSans-75" transform="translate(454.003906 0)"/>
      <use xlink:href="#DejaVuSans-72" transform="translate(517.382812 0)"/>
      <use xlink:href="#DejaVuSans-61" transform="translate(558.496094 0)"/>
      <use xlink:href="#DejaVuSans-63" transform="translate(619.775391 0)"/>
      <use xlink:href="#DejaVuSans-79" transform="translate(674.755859 0)"/>
     </g>
    </g>
    <g id="line2d_39">
     <path d="M 436.020312 298.7775 
L 446.020312 298.7775 
L 456.020312 298.7775 
" style="fill: none; stroke: #ff7f0e; stroke-width: 1.5; stroke-linecap: square"/>
    </g>
    <g id="text_22">
     <!-- val_accuracy -->
     <g transform="translate(464.020312 302.2775) scale(0.1 -0.1)">
      <defs>
       <path id="DejaVuSans-76" d="M 191 3500 
L 800 3500 
L 1894 563 
L 2988 3500 
L 3597 3500 
L 2284 0 
L 1503 0 
L 191 3500 
z
" transform="scale(0.015625)"/>
      </defs>
      <use xlink:href="#DejaVuSans-76"/>
      <use xlink:href="#DejaVuSans-61" transform="translate(59.179688 0)"/>
      <use xlink:href="#DejaVuSans-6c" transform="translate(120.458984 0)"/>
      <use xlink:href="#DejaVuSans-5f" transform="translate(148.242188 0)"/>
      <use xlink:href="#DejaVuSans-61" transform="translate(198.242188 0)"/>
      <use xlink:href="#DejaVuSans-63" transform="translate(259.521484 0)"/>
      <use xlink:href="#DejaVuSans-63" transform="translate(314.501953 0)"/>
      <use xlink:href="#DejaVuSans-75" transform="translate(369.482422 0)"/>
      <use xlink:href="#DejaVuSans-72" transform="translate(432.861328 0)"/>
      <use xlink:href="#DejaVuSans-61" transform="translate(473.974609 0)"/>
      <use xlink:href="#DejaVuSans-63" transform="translate(535.253906 0)"/>
      <use xlink:href="#DejaVuSans-79" transform="translate(590.234375 0)"/>
     </g>
    </g>
    <g id="line2d_40">
     <path d="M 436.020312 313.73375 
L 446.020312 313.73375 
L 456.020312 313.73375 
" style="fill: none; stroke-dasharray: 11.1,4.8; stroke-dashoffset: 0; stroke: #ff0000; stroke-width: 3"/>
    </g>
    <g id="text_23">
     <!-- Random-Guesser Accuracy -->
     <g transform="translate(464.020312 317.23375) scale(0.1 -0.1)">
      <defs>
       <path id="DejaVuSans-52" d="M 2841 2188 
Q 3044 2119 3236 1894 
Q 3428 1669 3622 1275 
L 4263 0 
L 3584 0 
L 2988 1197 
Q 2756 1666 2539 1819 
Q 2322 1972 1947 1972 
L 1259 1972 
L 1259 0 
L 628 0 
L 628 4666 
L 2053 4666 
Q 2853 4666 3247 4331 
Q 3641 3997 3641 3322 
Q 3641 2881 3436 2590 
Q 3231 2300 2841 2188 
z
M 1259 4147 
L 1259 2491 
L 2053 2491 
Q 2509 2491 2742 2702 
Q 2975 2913 2975 3322 
Q 2975 3731 2742 3939 
Q 2509 4147 2053 4147 
L 1259 4147 
z
" transform="scale(0.015625)"/>
       <path id="DejaVuSans-6d" d="M 3328 2828 
Q 3544 3216 3844 3400 
Q 4144 3584 4550 3584 
Q 5097 3584 5394 3201 
Q 5691 2819 5691 2113 
L 5691 0 
L 5113 0 
L 5113 2094 
Q 5113 2597 4934 2840 
Q 4756 3084 4391 3084 
Q 3944 3084 3684 2787 
Q 3425 2491 3425 1978 
L 3425 0 
L 2847 0 
L 2847 2094 
Q 2847 2600 2669 2842 
Q 2491 3084 2119 3084 
Q 1678 3084 1418 2786 
Q 1159 2488 1159 1978 
L 1159 0 
L 581 0 
L 581 3500 
L 1159 3500 
L 1159 2956 
Q 1356 3278 1631 3431 
Q 1906 3584 2284 3584 
Q 2666 3584 2933 3390 
Q 3200 3197 3328 2828 
z
" transform="scale(0.015625)"/>
       <path id="DejaVuSans-2d" d="M 313 2009 
L 1997 2009 
L 1997 1497 
L 313 1497 
L 313 2009 
z
" transform="scale(0.015625)"/>
       <path id="DejaVuSans-47" d="M 3809 666 
L 3809 1919 
L 2778 1919 
L 2778 2438 
L 4434 2438 
L 4434 434 
Q 4069 175 3628 42 
Q 3188 -91 2688 -91 
Q 1594 -91 976 548 
Q 359 1188 359 2328 
Q 359 3472 976 4111 
Q 1594 4750 2688 4750 
Q 3144 4750 3555 4637 
Q 3966 4525 4313 4306 
L 4313 3634 
Q 3963 3931 3569 4081 
Q 3175 4231 2741 4231 
Q 1884 4231 1454 3753 
Q 1025 3275 1025 2328 
Q 1025 1384 1454 906 
Q 1884 428 2741 428 
Q 3075 428 3337 486 
Q 3600 544 3809 666 
z
" transform="scale(0.015625)"/>
       <path id="DejaVuSans-65" d="M 3597 1894 
L 3597 1613 
L 953 1613 
Q 991 1019 1311 708 
Q 1631 397 2203 397 
Q 2534 397 2845 478 
Q 3156 559 3463 722 
L 3463 178 
Q 3153 47 2828 -22 
Q 2503 -91 2169 -91 
Q 1331 -91 842 396 
Q 353 884 353 1716 
Q 353 2575 817 3079 
Q 1281 3584 2069 3584 
Q 2775 3584 3186 3129 
Q 3597 2675 3597 1894 
z
M 3022 2063 
Q 3016 2534 2758 2815 
Q 2500 3097 2075 3097 
Q 1594 3097 1305 2825 
Q 1016 2553 972 2059 
L 3022 2063 
z
" transform="scale(0.015625)"/>
      </defs>
      <use xlink:href="#DejaVuSans-52"/>
      <use xlink:href="#DejaVuSans-61" transform="translate(67.232422 0)"/>
      <use xlink:href="#DejaVuSans-6e" transform="translate(128.511719 0)"/>
      <use xlink:href="#DejaVuSans-64" transform="translate(191.890625 0)"/>
      <use xlink:href="#DejaVuSans-6f" transform="translate(255.367188 0)"/>
      <use xlink:href="#DejaVuSans-6d" transform="translate(316.548828 0)"/>
      <use xlink:href="#DejaVuSans-2d" transform="translate(413.960938 0)"/>
      <use xlink:href="#DejaVuSans-47" transform="translate(453.669922 0)"/>
      <use xlink:href="#DejaVuSans-75" transform="translate(531.160156 0)"/>
      <use xlink:href="#DejaVuSans-65" transform="translate(594.539062 0)"/>
      <use xlink:href="#DejaVuSans-73" transform="translate(656.0625 0)"/>
      <use xlink:href="#DejaVuSans-73" transform="translate(708.162109 0)"/>
      <use xlink:href="#DejaVuSans-65" transform="translate(760.261719 0)"/>
      <use xlink:href="#DejaVuSans-72" transform="translate(821.785156 0)"/>
      <use xlink:href="#DejaVuSans-20" transform="translate(862.898438 0)"/>
      <use xlink:href="#DejaVuSans-41" transform="translate(894.685547 0)"/>
      <use xlink:href="#DejaVuSans-63" transform="translate(961.34375 0)"/>
      <use xlink:href="#DejaVuSans-63" transform="translate(1016.324219 0)"/>
      <use xlink:href="#DejaVuSans-75" transform="translate(1071.304688 0)"/>
      <use xlink:href="#DejaVuSans-72" transform="translate(1134.683594 0)"/>
      <use xlink:href="#DejaVuSans-61" transform="translate(1175.796875 0)"/>
      <use xlink:href="#DejaVuSans-63" transform="translate(1237.076172 0)"/>
      <use xlink:href="#DejaVuSans-79" transform="translate(1292.056641 0)"/>
     </g>
    </g>
   </g>
  </g>
 </g>
 <defs>
  <clipPath id="p5b62d39600">
   <rect x="50.14375" y="22.318125" width="558" height="554.4"/>
  </clipPath>
 </defs>
</svg>
