<?xml version="1.0" encoding="utf-8" standalone="no"?>
<!DOCTYPE svg PUBLIC "-//W3C//DTD SVG 1.1//EN"
  "http://www.w3.org/Graphics/SVG/1.1/DTD/svg11.dtd">
<svg xmlns:xlink="http://www.w3.org/1999/xlink" width="608.98125pt" height="614.274375pt" viewBox="0 0 608.98125 614.274375" xmlns="http://www.w3.org/2000/svg" version="1.1">
 <metadata>
  <rdf:RDF xmlns:dc="http://purl.org/dc/elements/1.1/" xmlns:cc="http://creativecommons.org/ns#" xmlns:rdf="http://www.w3.org/1999/02/22-rdf-syntax-ns#">
   <cc:Work>
    <dc:type rdf:resource="http://purl.org/dc/dcmitype/StillImage"/>
    <dc:date>2026-05-23T20:45:17.201914</dc:date>
    <dc:format>image/svg+xml</dc:format>
    <dc:creator>
     <cc:Agent>
      <dc:title>Matplotlib v3.10.9, https://matplotlib.org/</dc:title>
     </cc:Agent>
    </dc:creator>
   </cc:Work>
  </rdf:RDF>
 </metadata>
 <defs>
  <style type="text/css">*{stroke-linejoin: round; stroke-linecap: butt}</style>
 </defs>
 <g id="figure_1">
  <g id="patch_1">
   <path d="M 0 614.274375 
L 608.98125 614.274375 
L 608.98125 0 
L 0 0 
z
" style="fill: #ffffff"/>
  </g>
  <g id="axes_1">
   <g id="patch_2">
    <path d="M 43.78125 576.718125 
L 601.78125 576.718125 
L 601.78125 22.318125 
L 43.78125 22.318125 
z
" style="fill: #ffffff"/>
   </g>
   <g id="matplotlib.axis_1">
    <g id="xtick_1">
     <g id="line2d_1">
      <path d="M 69.144886 576.718125 
L 69.144886 22.318125 
" clip-path="url(#p45eed15ab6)" style="fill: none; stroke: #b0b0b0; stroke-width: 0.8; stroke-linecap: square"/>
     </g>
     <g id="line2d_2">
      <defs>
       <path id="m0a251ee632" d="M 0 0 
L 0 3.5 
" style="stroke: #000000; stroke-width: 0.8"/>
      </defs>
      <g>
       <use xlink:href="#m0a251ee632" x="69.144886" y="576.718125" style="stroke: #000000; stroke-width: 0.8"/>
      </g>
     </g>
     <g id="text_1">
      <!-- 0 -->
      <g transform="translate(65.963636 591.316563) scale(0.1 -0.1)">
       <defs>
        <path id="DejaVuSans-30" d="M 2034 4250 
Q 1547 4250 1301 3770 
Q 1056 3291 1056 2328 
Q 1056 1369 1301 889 
Q 1547 409 2034 409 
Q 2525 409 2770 889 
Q 3016 1369 3016 2328 
Q 3016 3291 2770 3770 
Q 2525 4250 2034 4250 
z
M 2034 4750 
Q 2819 4750 3233 4129 
Q 3647 3509 3647 2328 
Q 3647 1150 3233 529 
Q 2819 -91 2034 -91 
Q 1250 -91 836 529 
Q 422 1150 422 2328 
Q 422 3509 836 4129 
Q 1250 4750 2034 4750 
z
" transform="scale(0.015625)"/>
       </defs>
       <use xlink:href="#DejaVuSans-30"/>
      </g>
     </g>
    </g>
    <g id="xtick_2">
     <g id="line2d_3">
      <path d="M 132.633338 576.718125 
L 132.633338 22.318125 
" clip-path="url(#p45eed15ab6)" style="fill: none; stroke: #b0b0b0; stroke-width: 0.8; stroke-linecap: square"/>
     </g>
     <g id="line2d_4">
      <g>
       <use xlink:href="#m0a251ee632" x="132.633338" y="576.718125" style="stroke: #000000; stroke-width: 0.8"/>
      </g>
     </g>
     <g id="text_2">
      <!-- 100 -->
      <g transform="translate(123.089588 591.316563) scale(0.1 -0.1)">
       <defs>
        <path id="DejaVuSans-31" d="M 794 531 
L 1825 531 
L 1825 4091 
L 703 3866 
L 703 4441 
L 1819 4666 
L 2450 4666 
L 2450 531 
L 3481 531 
L 3481 0 
L 794 0 
L 794 531 
z
" transform="scale(0.015625)"/>
       </defs>
       <use xlink:href="#DejaVuSans-31"/>
       <use xlink:href="#DejaVuSans-30" transform="translate(63.623047 0)"/>
       <use xlink:href="#DejaVuSans-30" transform="translate(127.246094 0)"/>
      </g>
     </g>
    </g>
    <g id="xtick_3">
     <g id="line2d_5">
      <path d="M 196.121789 576.718125 
L 196.121789 22.318125 
" clip-path="url(#p45eed15ab6)" style="fill: none; stroke: #b0b0b0; stroke-width: 0.8; stroke-linecap: square"/>
     </g>
     <g id="line2d_6">
      <g>
       <use xlink:href="#m0a251ee632" x="196.121789" y="576.718125" style="stroke: #000000; stroke-width: 0.8"/>
      </g>
     </g>
     <g id="text_3">
      <!-- 200 -->
      <g transform="translate(186.578039 591.316563) scale(0.1 -0.1)">
       <defs>
        <path id="DejaVuSans-32" d="M 1228 531 
L 3431 531 
L 3431 0 
L 469 0 
L 469 531 
Q 828 903 1448 1529 
Q 2069 2156 2228 2338 
Q 2531 2678 2651 2914 
Q 2772 3150 2772 3378 
Q 2772 3750 2511 3984 
Q 2250 4219 1831 4219 
Q 1534 4219 1204 4116 
Q 875 4013 500 3803 
L 500 4441 
Q 881 4594 1212 4672 
Q 1544 4750 1819 4750 
Q 2544 4750 2975 4387 
Q 3406 4025 3406 3419 
Q 3406 3131 3298 2873 
Q 3191 2616 2906 2266 
Q 2828 2175 2409 1742 
Q 1991 1309 1228 531 
z
" transform="scale(0.015625)"/>
       </defs>
       <use xlink:href="#DejaVuSans-32"/>
       <use xlink:href="#DejaVuSans-30" transform="translate(63.623047 0)"/>
       <use xlink:href="#DejaVuSans-30" transform="translate(127.246094 0)"/>
      </g>
     </g>
    </g>
    <g id="xtick_4">
     <g id="line2d_7">
      <path d="M 259.610241 576.718125 
L 259.610241 22.318125 
" clip-path="url(#p45eed15ab6)" style="fill: none; stroke: #b0b0b0; stroke-width: 0.8; stroke-linecap: square"/>
     </g>
     <g id="line2d_8">
      <g>
       <use xlink:href="#m0a251ee632" x="259.610241" y="576.718125" style="stroke: #000000; stroke-width: 0.8"/>
      </g>
     </g>
     <g id="text_4">
      <!-- 300 -->
      <g transform="translate(250.066491 591.316563) scale(0.1 -0.1)">
       <defs>
        <path id="DejaVuSans-33" d="M 2597 2516 
Q 3050 2419 3304 2112 
Q 3559 1806 3559 1356 
Q 3559 666 3084 287 
Q 2609 -91 1734 -91 
Q 1441 -91 1130 -33 
Q 819 25 488 141 
L 488 750 
Q 750 597 1062 519 
Q 1375 441 1716 441 
Q 2309 441 2620 675 
Q 2931 909 2931 1356 
Q 2931 1769 2642 2001 
Q 2353 2234 1838 2234 
L 1294 2234 
L 1294 2753 
L 1863 2753 
Q 2328 2753 2575 2939 
Q 2822 3125 2822 3475 
Q 2822 3834 2567 4026 
Q 2313 4219 1838 4219 
Q 1578 4219 1281 4162 
Q 984 4106 628 3988 
L 628 4550 
Q 988 4650 1302 4700 
Q 1616 4750 1894 4750 
Q 2613 4750 3031 4423 
Q 3450 4097 3450 3541 
Q 3450 3153 3228 2886 
Q 3006 2619 2597 2516 
z
" transform="scale(0.015625)"/>
       </defs>
       <use xlink:href="#DejaVuSans-33"/>
       <use xlink:href="#DejaVuSans-30" transform="translate(63.623047 0)"/>
       <use xlink:href="#DejaVuSans-30" transform="translate(127.246094 0)"/>
      </g>
     </g>
    </g>
    <g id="xtick_5">
     <g id="line2d_9">
      <path d="M 323.098692 576.718125 
L 323.098692 22.318125 
" clip-path="url(#p45eed15ab6)" style="fill: none; stroke: #b0b0b0; stroke-width: 0.8; stroke-linecap: square"/>
     </g>
     <g id="line2d_10">
      <g>
       <use xlink:href="#m0a251ee632" x="323.098692" y="576.718125" style="stroke: #000000; stroke-width: 0.8"/>
      </g>
     </g>
     <g id="text_5">
      <!-- 400 -->
      <g transform="translate(313.554942 591.316563) scale(0.1 -0.1)">
       <defs>
        <path id="DejaVuSans-34" d="M 2419 4116 
L 825 1625 
L 2419 1625 
L 2419 4116 
z
M 2253 4666 
L 3047 4666 
L 3047 1625 
L 3713 1625 
L 3713 1100 
L 3047 1100 
L 3047 0 
L 2419 0 
L 2419 1100 
L 313 1100 
L 313 1709 
L 2253 4666 
z
" transform="scale(0.015625)"/>
       </defs>
       <use xlink:href="#DejaVuSans-34"/>
       <use xlink:href="#DejaVuSans-30" transform="translate(63.623047 0)"/>
       <use xlink:href="#DejaVuSans-30" transform="translate(127.246094 0)"/>
      </g>
     </g>
    </g>
    <g id="xtick_6">
     <g id="line2d_11">
      <path d="M 386.587144 576.718125 
L 386.587144 22.318125 
" clip-path="url(#p45eed15ab6)" style="fill: none; stroke: #b0b0b0; stroke-width: 0.8; stroke-linecap: square"/>
     </g>
     <g id="line2d_12">
      <g>
       <use xlink:href="#m0a251ee632" x="386.587144" y="576.718125" style="stroke: #000000; stroke-width: 0.8"/>
      </g>
     </g>
     <g id="text_6">
      <!-- 500 -->
      <g transform="translate(377.043394 591.316563) scale(0.1 -0.1)">
       <defs>
        <path id="DejaVuSans-35" d="M 691 4666 
L 3169 4666 
L 3169 4134 
L 1269 4134 
L 1269 2991 
Q 1406 3038 1543 3061 
Q 1681 3084 1819 3084 
Q 2600 3084 3056 2656 
Q 3513 2228 3513 1497 
Q 3513 744 3044 326 
Q 2575 -91 1722 -91 
Q 1428 -91 1123 -41 
Q 819 9 494 109 
L 494 744 
Q 775 591 1075 516 
Q 1375 441 1709 441 
Q 2250 441 2565 725 
Q 2881 1009 2881 1497 
Q 2881 1984 2565 2268 
Q 2250 2553 1709 2553 
Q 1456 2553 1204 2497 
Q 953 2441 691 2322 
L 691 4666 
z
" transform="scale(0.015625)"/>
       </defs>
       <use xlink:href="#DejaVuSans-35"/>
       <use xlink:href="#DejaVuSans-30" transform="translate(63.623047 0)"/>
       <use xlink:href="#DejaVuSans-30" transform="translate(127.246094 0)"/>
      </g>
     </g>
    </g>
    <g id="xtick_7">
     <g id="line2d_13">
      <path d="M 450.075595 576.718125 
L 450.075595 22.318125 
" clip-path="url(#p45eed15ab6)" style="fill: none; stroke: #b0b0b0; stroke-width: 0.8; stroke-linecap: square"/>
     </g>
     <g id="line2d_14">
      <g>
       <use xlink:href="#m0a251ee632" x="450.075595" y="576.718125" style="stroke: #000000; stroke-width: 0.8"/>
      </g>
     </g>
     <g id="text_7">
      <!-- 600 -->
      <g transform="translate(440.531845 591.316563) scale(0.1 -0.1)">
       <defs>
        <path id="DejaVuSans-36" d="M 2113 2584 
Q 1688 2584 1439 2293 
Q 1191 2003 1191 1497 
Q 1191 994 1439 701 
Q 1688 409 2113 409 
Q 2538 409 2786 701 
Q 3034 994 3034 1497 
Q 3034 2003 2786 2293 
Q 2538 2584 2113 2584 
z
M 3366 4563 
L 3366 3988 
Q 3128 4100 2886 4159 
Q 2644 4219 2406 4219 
Q 1781 4219 1451 3797 
Q 1122 3375 1075 2522 
Q 1259 2794 1537 2939 
Q 1816 3084 2150 3084 
Q 2853 3084 3261 2657 
Q 3669 2231 3669 1497 
Q 3669 778 3244 343 
Q 2819 -91 2113 -91 
Q 1303 -91 875 529 
Q 447 1150 447 2328 
Q 447 3434 972 4092 
Q 1497 4750 2381 4750 
Q 2619 4750 2861 4703 
Q 3103 4656 3366 4563 
z
" transform="scale(0.015625)"/>
       </defs>
       <use xlink:href="#DejaVuSans-36"/>
       <use xlink:href="#DejaVuSans-30" transform="translate(63.623047 0)"/>
       <use xlink:href="#DejaVuSans-30" transform="translate(127.246094 0)"/>
      </g>
     </g>
    </g>
    <g id="xtick_8">
     <g id="line2d_15">
      <path d="M 513.564047 576.718125 
L 513.564047 22.318125 
" clip-path="url(#p45eed15ab6)" style="fill: none; stroke: #b0b0b0; stroke-width: 0.8; stroke-linecap: square"/>
     </g>
     <g id="line2d_16">
      <g>
       <use xlink:href="#m0a251ee632" x="513.564047" y="576.718125" style="stroke: #000000; stroke-width: 0.8"/>
      </g>
     </g>
     <g id="text_8">
      <!-- 700 -->
      <g transform="translate(504.020297 591.316563) scale(0.1 -0.1)">
       <defs>
        <path id="DejaVuSans-37" d="M 525 4666 
L 3525 4666 
L 3525 4397 
L 1831 0 
L 1172 0 
L 2766 4134 
L 525 4134 
L 525 4666 
z
" transform="scale(0.015625)"/>
       </defs>
       <use xlink:href="#DejaVuSans-37"/>
       <use xlink:href="#DejaVuSans-30" transform="translate(63.623047 0)"/>
       <use xlink:href="#DejaVuSans-30" transform="translate(127.246094 0)"/>
      </g>
     </g>
    </g>
    <g id="xtick_9">
     <g id="line2d_17">
      <path d="M 577.052498 576.718125 
L 577.052498 22.318125 
" clip-path="url(#p45eed15ab6)" style="fill: none; stroke: #b0b0b0; stroke-width: 0.8; stroke-linecap: square"/>
     </g>
     <g id="line2d_18">
      <g>
       <use xlink:href="#m0a251ee632" x="577.052498" y="576.718125" style="stroke: #000000; stroke-width: 0.8"/>
      </g>
     </g>
     <g id="text_9">
      <!-- 800 -->
      <g transform="translate(567.508748 591.316563) scale(0.1 -0.1)">
       <defs>
        <path id="DejaVuSans-38" d="M 2034 2216 
Q 1584 2216 1326 1975 
Q 1069 1734 1069 1313 
Q 1069 891 1326 650 
Q 1584 409 2034 409 
Q 2484 409 2743 651 
Q 3003 894 3003 1313 
Q 3003 1734 2745 1975 
Q 2488 2216 2034 2216 
z
M 1403 2484 
Q 997 2584 770 2862 
Q 544 3141 544 3541 
Q 544 4100 942 4425 
Q 1341 4750 2034 4750 
Q 2731 4750 3128 4425 
Q 3525 4100 3525 3541 
Q 3525 3141 3298 2862 
Q 3072 2584 2669 2484 
Q 3125 2378 3379 2068 
Q 3634 1759 3634 1313 
Q 3634 634 3220 271 
Q 2806 -91 2034 -91 
Q 1263 -91 848 271 
Q 434 634 434 1313 
Q 434 1759 690 2068 
Q 947 2378 1403 2484 
z
M 1172 3481 
Q 1172 3119 1398 2916 
Q 1625 2713 2034 2713 
Q 2441 2713 2670 2916 
Q 2900 3119 2900 3481 
Q 2900 3844 2670 4047 
Q 2441 4250 2034 4250 
Q 1625 4250 1398 4047 
Q 1172 3844 1172 3481 
z
" transform="scale(0.015625)"/>
       </defs>
       <use xlink:href="#DejaVuSans-38"/>
       <use xlink:href="#DejaVuSans-30" transform="translate(63.623047 0)"/>
       <use xlink:href="#DejaVuSans-30" transform="translate(127.246094 0)"/>
      </g>
     </g>
    </g>
    <g id="text_10">
     <!-- Epochs -->
     <g transform="translate(304.865625 604.994688) scale(0.1 -0.1)">
      <defs>
       <path id="DejaVuSans-45" d="M 628 4666 
L 3578 4666 
L 3578 4134 
L 1259 4134 
L 1259 2753 
L 3481 2753 
L 3481 2222 
L 1259 2222 
L 1259 531 
L 3634 531 
L 3634 0 
L 628 0 
L 628 4666 
z
" transform="scale(0.015625)"/>
       <path id="DejaVuSans-70" d="M 1159 525 
L 1159 -1331 
L 581 -1331 
L 581 3500 
L 1159 3500 
L 1159 2969 
Q 1341 3281 1617 3432 
Q 1894 3584 2278 3584 
Q 2916 3584 3314 3078 
Q 3713 2572 3713 1747 
Q 3713 922 3314 415 
Q 2916 -91 2278 -91 
Q 1894 -91 1617 61 
Q 1341 213 1159 525 
z
M 3116 1747 
Q 3116 2381 2855 2742 
Q 2594 3103 2138 3103 
Q 1681 3103 1420 2742 
Q 1159 2381 1159 1747 
Q 1159 1113 1420 752 
Q 1681 391 2138 391 
Q 2594 391 2855 752 
Q 3116 1113 3116 1747 
z
" transform="scale(0.015625)"/>
       <path id="DejaVuSans-6f" d="M 1959 3097 
Q 1497 3097 1228 2736 
Q 959 2375 959 1747 
Q 959 1119 1226 758 
Q 1494 397 1959 397 
Q 2419 397 2687 759 
Q 2956 1122 2956 1747 
Q 2956 2369 2687 2733 
Q 2419 3097 1959 3097 
z
M 1959 3584 
Q 2709 3584 3137 3096 
Q 3566 2609 3566 1747 
Q 3566 888 3137 398 
Q 2709 -91 1959 -91 
Q 1206 -91 779 398 
Q 353 888 353 1747 
Q 353 2609 779 3096 
Q 1206 3584 1959 3584 
z
" transform="scale(0.015625)"/>
       <path id="DejaVuSans-63" d="M 3122 3366 
L 3122 2828 
Q 2878 2963 2633 3030 
Q 2388 3097 2138 3097 
Q 1578 3097 1268 2742 
Q 959 2388 959 1747 
Q 959 1106 1268 751 
Q 1578 397 2138 397 
Q 2388 397 2633 464 
Q 2878 531 3122 666 
L 3122 134 
Q 2881 22 2623 -34 
Q 2366 -91 2075 -91 
Q 1284 -91 818 406 
Q 353 903 353 1747 
Q 353 2603 823 3093 
Q 1294 3584 2113 3584 
Q 2378 3584 2631 3529 
Q 2884 3475 3122 3366 
z
" transform="scale(0.015625)"/>
       <path id="DejaVuSans-68" d="M 3513 2113 
L 3513 0 
L 2938 0 
L 2938 2094 
Q 2938 2591 2744 2837 
Q 2550 3084 2163 3084 
Q 1697 3084 1428 2787 
Q 1159 2491 1159 1978 
L 1159 0 
L 581 0 
L 581 4863 
L 1159 4863 
L 1159 2956 
Q 1366 3272 1645 3428 
Q 1925 3584 2291 3584 
Q 2894 3584 3203 3211 
Q 3513 2838 3513 2113 
z
" transform="scale(0.015625)"/>
       <path id="DejaVuSans-73" d="M 2834 3397 
L 2834 2853 
Q 2591 2978 2328 3040 
Q 2066 3103 1784 3103 
Q 1356 3103 1142 2972 
Q 928 2841 928 2578 
Q 928 2378 1081 2264 
Q 1234 2150 1697 2047 
L 1894 2003 
Q 2506 1872 2764 1633 
Q 3022 1394 3022 966 
Q 3022 478 2636 193 
Q 2250 -91 1575 -91 
Q 1294 -91 989 -36 
Q 684 19 347 128 
L 347 722 
Q 666 556 975 473 
Q 1284 391 1588 391 
Q 1994 391 2212 530 
Q 2431 669 2431 922 
Q 2431 1156 2273 1281 
Q 2116 1406 1581 1522 
L 1381 1569 
Q 847 1681 609 1914 
Q 372 2147 372 2553 
Q 372 3047 722 3315 
Q 1072 3584 1716 3584 
Q 2034 3584 2315 3537 
Q 2597 3491 2834 3397 
z
" transform="scale(0.015625)"/>
      </defs>
      <use xlink:href="#DejaVuSans-45"/>
      <use xlink:href="#DejaVuSans-70" transform="translate(63.183594 0)"/>
      <use xlink:href="#DejaVuSans-6f" transform="translate(126.660156 0)"/>
      <use xlink:href="#DejaVuSans-63" transform="translate(187.841797 0)"/>
      <use xlink:href="#DejaVuSans-68" transform="translate(242.822266 0)"/>
      <use xlink:href="#DejaVuSans-73" transform="translate(306.201172 0)"/>
     </g>
    </g>
   </g>
   <g id="matplotlib.axis_2">
    <g id="ytick_1">
     <g id="line2d_19">
      <path d="M 43.78125 522.373457 
L 601.78125 522.373457 
" clip-path="url(#p45eed15ab6)" style="fill: none; stroke: #b0b0b0; stroke-width: 0.8; stroke-linecap: square"/>
     </g>
     <g id="line2d_20">
      <defs>
       <path id="m07082e07d1" d="M 0 0 
L -3.5 0 
" style="stroke: #000000; stroke-width: 0.8"/>
      </defs>
      <g>
       <use xlink:href="#m07082e07d1" x="43.78125" y="522.373457" style="stroke: #000000; stroke-width: 0.8"/>
      </g>
     </g>
     <g id="text_11">
      <!-- 0.5 -->
      <g transform="translate(20.878125 526.172675) scale(0.1 -0.1)">
       <defs>
        <path id="DejaVuSans-2e" d="M 684 794 
L 1344 794 
L 1344 0 
L 684 0 
L 684 794 
z
" transform="scale(0.015625)"/>
       </defs>
       <use xlink:href="#DejaVuSans-30"/>
       <use xlink:href="#DejaVuSans-2e" transform="translate(63.623047 0)"/>
       <use xlink:href="#DejaVuSans-35" transform="translate(95.410156 0)"/>
      </g>
     </g>
    </g>
    <g id="ytick_2">
     <g id="line2d_21">
      <path d="M 43.78125 412.828624 
L 601.78125 412.828624 
" clip-path="url(#p45eed15ab6)" style="fill: none; stroke: #b0b0b0; stroke-width: 0.8; stroke-linecap: square"/>
     </g>
     <g id="line2d_22">
      <g>
       <use xlink:href="#m07082e07d1" x="43.78125" y="412.828624" style="stroke: #000000; stroke-width: 0.8"/>
      </g>
     </g>
     <g id="text_12">
      <!-- 1.0 -->
      <g transform="translate(20.878125 416.627843) scale(0.1 -0.1)">
       <use xlink:href="#DejaVuSans-31"/>
       <use xlink:href="#DejaVuSans-2e" transform="translate(63.623047 0)"/>
       <use xlink:href="#DejaVuSans-30" transform="translate(95.410156 0)"/>
      </g>
     </g>
    </g>
    <g id="ytick_3">
     <g id="line2d_23">
      <path d="M 43.78125 303.283792 
L 601.78125 303.283792 
" clip-path="url(#p45eed15ab6)" style="fill: none; stroke: #b0b0b0; stroke-width: 0.8; stroke-linecap: square"/>
     </g>
     <g id="line2d_24">
      <g>
       <use xlink:href="#m07082e07d1" x="43.78125" y="303.283792" style="stroke: #000000; stroke-width: 0.8"/>
      </g>
     </g>
     <g id="text_13">
      <!-- 1.5 -->
      <g transform="translate(20.878125 307.083011) scale(0.1 -0.1)">
       <use xlink:href="#DejaVuSans-31"/>
       <use xlink:href="#DejaVuSans-2e" transform="translate(63.623047 0)"/>
       <use xlink:href="#DejaVuSans-35" transform="translate(95.410156 0)"/>
      </g>
     </g>
    </g>
    <g id="ytick_4">
     <g id="line2d_25">
      <path d="M 43.78125 193.73896 
L 601.78125 193.73896 
" clip-path="url(#p45eed15ab6)" style="fill: none; stroke: #b0b0b0; stroke-width: 0.8; stroke-linecap: square"/>
     </g>
     <g id="line2d_26">
      <g>
       <use xlink:href="#m07082e07d1" x="43.78125" y="193.73896" style="stroke: #000000; stroke-width: 0.8"/>
      </g>
     </g>
     <g id="text_14">
      <!-- 2.0 -->
      <g transform="translate(20.878125 197.538178) scale(0.1 -0.1)">
       <use xlink:href="#DejaVuSans-32"/>
       <use xlink:href="#DejaVuSans-2e" transform="translate(63.623047 0)"/>
       <use xlink:href="#DejaVuSans-30" transform="translate(95.410156 0)"/>
      </g>
     </g>
    </g>
    <g id="ytick_5">
     <g id="line2d_27">
      <path d="M 43.78125 84.194127 
L 601.78125 84.194127 
" clip-path="url(#p45eed15ab6)" style="fill: none; stroke: #b0b0b0; stroke-width: 0.8; stroke-linecap: square"/>
     </g>
     <g id="line2d_28">
      <g>
       <use xlink:href="#m07082e07d1" x="43.78125" y="84.194127" style="stroke: #000000; stroke-width: 0.8"/>
      </g>
     </g>
     <g id="text_15">
      <!-- 2.5 -->
      <g transform="translate(20.878125 87.993346) scale(0.1 -0.1)">
       <use xlink:href="#DejaVuSans-32"/>
       <use xlink:href="#DejaVuSans-2e" transform="translate(63.623047 0)"/>
       <use xlink:href="#DejaVuSans-35" transform="translate(95.410156 0)"/>
      </g>
     </g>
    </g>
    <g id="text_16">
     <!-- Loss -->
     <g transform="translate(14.798438 310.485313) rotate(-90) scale(0.1 -0.1)">
      <defs>
       <path id="DejaVuSans-4c" d="M 628 4666 
L 1259 4666 
L 1259 531 
L 3531 531 
L 3531 0 
L 628 0 
L 628 4666 
z
" transform="scale(0.015625)"/>
      </defs>
      <use xlink:href="#DejaVuSans-4c"/>
      <use xlink:href="#DejaVuSans-6f" transform="translate(53.962891 0)"/>
      <use xlink:href="#DejaVuSans-73" transform="translate(115.144531 0)"/>
      <use xlink:href="#DejaVuSans-73" transform="translate(167.244141 0)"/>
     </g>
    </g>
   </g>
   <g id="line2d_29">
    <path d="M 69.144886 479.744709 
L 69.779771 480.008784 
L 76.763501 481.231227 
L 87.556537 483.714338 
L 95.175151 485.842733 
L 105.968188 489.107894 
L 121.840301 493.904521 
L 133.903107 497.34476 
L 147.235682 500.903064 
L 160.568256 504.205402 
L 178.345023 508.263295 
L 187.868291 510.269369 
L 193.582251 511.439003 
L 227.231131 517.705171 
L 248.18232 521.229966 
L 258.975356 522.931438 
L 265.324201 523.933293 
L 269.133509 524.500063 
L 318.654501 531.38585 
L 345.954535 534.599533 
L 363.731301 536.476906 
L 384.68249 538.50962 
L 390.396451 539.029594 
L 424.04533 541.854596 
L 427.854637 542.148712 
L 434.838367 542.684715 
L 451.345364 543.894701 
L 512.929162 547.944836 
L 576.417614 551.518125 
L 576.417614 551.518125 
" clip-path="url(#p45eed15ab6)" style="fill: none; stroke: #1f77b4; stroke-width: 1.5; stroke-linecap: square"/>
   </g>
   <g id="line2d_30">
    <path d="M 69.144886 479.895852 
L 72.954193 480.003717 
L 80.572808 480.296233 
L 85.651884 480.111974 
L 92.000729 479.525544 
L 98.349574 478.53539 
L 102.793766 477.617189 
L 105.333304 476.959067 
L 105.968188 476.899401 
L 108.507726 476.240378 
L 117.396109 473.777299 
L 119.300763 473.165105 
L 121.840301 472.420141 
L 122.475186 472.27878 
L 123.744955 471.770364 
L 124.379839 471.552543 
L 125.014724 471.491794 
L 140.251952 466.385505 
L 140.886837 466.030124 
L 144.061259 465.044853 
L 144.696144 464.665405 
L 145.331028 464.515046 
L 147.235682 463.82348 
L 148.505451 463.483822 
L 149.140335 463.142257 
L 150.410104 462.753667 
L 152.314758 461.887597 
L 152.949642 461.818895 
L 154.219411 461.127251 
L 154.854296 461.054801 
L 156.758949 460.226915 
L 157.393834 460.105403 
L 159.298487 459.229499 
L 160.568256 458.926392 
L 161.203141 458.505391 
L 161.838026 458.362006 
L 163.107795 457.856828 
L 164.377564 457.408324 
L 166.917102 456.27976 
L 167.551986 456.203967 
L 168.821755 455.639633 
L 169.45664 455.524232 
L 170.091524 454.993955 
L 170.726409 454.90449 
L 171.361293 454.623909 
L 171.996178 454.186323 
L 172.631062 454.110256 
L 173.900831 453.507685 
L 174.535716 453.335009 
L 175.1706 452.970774 
L 177.075254 452.344999 
L 177.710138 451.837992 
L 178.979907 451.559135 
L 180.249676 450.971883 
L 180.884561 450.920209 
L 181.519445 450.332944 
L 182.789215 449.703786 
L 185.328753 448.867163 
L 185.963637 448.43608 
L 187.233406 448.116402 
L 187.868291 447.487479 
L 188.503175 447.386404 
L 189.772944 446.825883 
L 190.407829 446.713917 
L 191.677598 445.89747 
L 192.312482 445.788926 
L 193.582251 445.025732 
L 194.85202 444.64883 
L 196.121789 444.104019 
L 197.391558 443.432825 
L 198.026443 443.279436 
L 198.661327 442.810614 
L 199.296212 442.780422 
L 200.565981 441.966078 
L 201.200865 441.882031 
L 201.83575 441.574276 
L 202.470634 440.980089 
L 204.375288 440.279787 
L 205.010173 439.797448 
L 205.645057 439.644347 
L 206.914826 438.823852 
L 207.549711 438.783775 
L 208.184595 438.356962 
L 208.81948 438.300431 
L 209.454364 437.726734 
L 210.089249 437.546993 
L 211.359018 436.759393 
L 213.263671 436.135079 
L 213.898556 435.59288 
L 215.803209 434.522649 
L 216.438094 434.36294 
L 218.977632 432.701147 
L 219.612516 432.823534 
L 220.882285 431.843513 
L 221.51717 431.654566 
L 225.961362 429.263063 
L 226.596246 429.242312 
L 228.5009 427.647028 
L 229.135784 427.60605 
L 229.770669 427.155078 
L 230.405553 426.850404 
L 231.040438 426.367361 
L 231.675322 426.340825 
L 232.310207 425.442095 
L 232.945091 424.962617 
L 233.579976 424.903434 
L 234.21486 424.418249 
L 234.849745 424.559062 
L 235.484629 423.954533 
L 236.119514 423.628573 
L 236.754398 422.891393 
L 238.024167 422.440735 
L 238.659052 422.133305 
L 239.293936 421.370399 
L 239.928821 421.213956 
L 240.563705 420.731382 
L 241.19859 420.79221 
L 242.468359 419.769382 
L 244.373012 418.87265 
L 245.642781 417.561433 
L 246.277666 417.130076 
L 247.547435 416.702767 
L 248.18232 416.098303 
L 248.817204 415.760878 
L 249.452089 415.015327 
L 250.086973 414.948975 
L 250.721858 414.50802 
L 251.356742 413.901349 
L 251.991627 413.708367 
L 252.626511 413.034639 
L 253.261396 412.597876 
L 253.89628 412.527907 
L 255.166049 411.634192 
L 255.800934 410.971146 
L 256.435818 410.870489 
L 257.070703 410.215044 
L 257.705587 409.81098 
L 258.340472 409.013716 
L 258.975356 408.901724 
L 260.88001 407.519611 
L 261.514894 406.870146 
L 262.784663 406.097094 
L 263.419548 405.659077 
L 264.054432 405.081566 
L 265.324201 404.350929 
L 265.959086 403.411638 
L 266.59397 403.495867 
L 267.228855 402.727124 
L 267.863739 402.544876 
L 269.133509 401.54925 
L 270.403278 399.761479 
L 271.038162 399.837664 
L 271.673047 399.272846 
L 272.307931 398.500107 
L 272.942816 398.415095 
L 273.5777 397.549325 
L 274.212585 397.460029 
L 275.482354 396.066163 
L 277.387007 394.488064 
L 278.021892 394.446955 
L 278.656776 393.319879 
L 279.291661 392.938354 
L 279.926545 392.088673 
L 280.56143 391.714461 
L 281.196314 391.678158 
L 281.831199 390.573491 
L 282.466083 390.406391 
L 283.735852 388.889929 
L 284.370737 388.528228 
L 285.005621 387.902008 
L 285.640506 387.513745 
L 286.27539 386.499915 
L 286.910275 386.323491 
L 287.545159 386.027997 
L 288.814928 384.396723 
L 290.084697 383.461141 
L 291.354467 382.151739 
L 291.989351 381.698313 
L 293.894005 379.859665 
L 294.528889 378.928366 
L 295.163774 378.612971 
L 295.798658 377.897194 
L 296.433543 377.510655 
L 297.703312 376.338083 
L 298.338196 375.03218 
L 298.973081 374.541432 
L 299.607965 374.487395 
L 300.24285 373.422218 
L 301.512619 372.506851 
L 302.147503 371.533634 
L 302.782388 371.034606 
L 303.417272 370.095289 
L 304.052157 369.760593 
L 304.687041 369.053723 
L 305.321926 367.924819 
L 305.95681 367.85007 
L 306.591695 366.937524 
L 307.226579 366.567413 
L 307.861464 365.652986 
L 309.131233 364.449099 
L 309.766117 363.534202 
L 310.401002 362.904404 
L 311.035886 362.555709 
L 311.670771 361.600382 
L 312.305656 360.92783 
L 312.94054 360.613558 
L 313.575425 359.27702 
L 314.210309 358.924485 
L 315.480078 357.605289 
L 316.114963 357.289946 
L 316.749847 356.01246 
L 317.384732 355.778264 
L 319.289385 353.112109 
L 319.92427 352.54575 
L 320.559154 351.432883 
L 321.194039 351.093459 
L 321.828923 350.566382 
L 324.368461 347.471246 
L 325.003346 346.54235 
L 325.63823 346.104568 
L 326.273115 345.199335 
L 326.907999 344.936984 
L 327.542884 344.236591 
L 328.177768 342.881457 
L 328.812653 342.417714 
L 329.447537 341.006611 
L 330.082422 341.011573 
L 330.717306 339.7642 
L 331.352191 339.082611 
L 332.62196 338.271296 
L 333.256844 337.442065 
L 333.891729 336.021298 
L 334.526614 335.729252 
L 335.161498 334.626674 
L 335.796383 334.60181 
L 336.431267 333.093262 
L 337.701036 331.625954 
L 338.970805 330.430711 
L 339.60569 330.292079 
L 340.240574 328.119572 
L 340.875459 328.275128 
L 341.510343 327.118383 
L 342.145228 326.224092 
L 342.780112 325.976054 
L 343.414997 325.086779 
L 344.049881 324.710608 
L 344.684766 323.264481 
L 345.31965 323.032218 
L 345.954535 321.821383 
L 346.589419 321.159983 
L 347.224304 319.828773 
L 347.859188 319.531346 
L 349.128957 317.682226 
L 349.763842 317.638348 
L 350.398726 316.638935 
L 351.033611 315.397282 
L 351.668495 314.824002 
L 352.938264 313.028031 
L 353.573149 312.840324 
L 354.208033 311.461946 
L 354.842918 310.537621 
L 355.477803 310.149749 
L 356.112687 309.495453 
L 357.382456 306.982373 
L 358.652225 306.260772 
L 359.28711 304.819737 
L 359.921994 304.739008 
L 360.556879 302.975031 
L 361.191763 302.570131 
L 363.096417 300.373334 
L 363.731301 299.937223 
L 365.00107 298.491697 
L 365.635955 296.857027 
L 366.270839 296.070315 
L 366.905724 296.136209 
L 367.540608 294.384429 
L 368.175493 293.657578 
L 368.810377 293.322281 
L 369.445262 292.548184 
L 370.080146 291.110388 
L 370.715031 290.66229 
L 371.349915 289.922955 
L 371.9848 289.748856 
L 373.254569 287.369889 
L 373.889453 287.095785 
L 374.524338 286.042518 
L 375.159222 285.517582 
L 376.428991 282.812041 
L 377.063876 282.551859 
L 377.698761 282.144451 
L 378.333645 280.934923 
L 378.96853 280.237167 
L 379.603414 279.751486 
L 380.238299 278.737812 
L 380.873183 278.25375 
L 381.508068 277.107086 
L 382.142952 276.967984 
L 382.777837 275.615567 
L 383.412721 274.923635 
L 384.047606 274.581652 
L 384.68249 273.620162 
L 385.317375 272.162621 
L 385.952259 271.643405 
L 386.587144 271.581689 
L 387.222028 271.034605 
L 387.856913 269.610104 
L 388.491797 268.989499 
L 389.761566 266.463647 
L 390.396451 266.866327 
L 391.66622 264.250056 
L 392.301104 264.052582 
L 392.935989 263.421243 
L 393.570873 262.367949 
L 394.205758 261.678577 
L 394.840642 260.620739 
L 395.475527 260.258176 
L 396.745296 258.043671 
L 397.38018 258.840804 
L 398.015065 256.816748 
L 401.189488 252.86266 
L 401.824372 252.507801 
L 402.459257 251.33152 
L 403.094141 250.94182 
L 403.729026 249.051564 
L 404.36391 248.548776 
L 404.998795 248.760459 
L 406.903448 245.66279 
L 407.538333 245.814167 
L 408.173217 244.065573 
L 408.808102 243.5281 
L 409.442986 242.357487 
L 410.077871 242.018481 
L 410.712755 241.021889 
L 411.34764 241.07765 
L 412.617409 239.000366 
L 413.252293 238.270773 
L 413.887178 237.027527 
L 414.522062 237.114054 
L 415.156947 235.5592 
L 415.791831 234.713044 
L 416.426716 234.116807 
L 417.0616 233.3197 
L 418.331369 231.470397 
L 419.601138 229.82199 
L 420.236023 229.866468 
L 421.505792 227.361144 
L 422.140677 227.653608 
L 422.775561 226.203093 
L 423.410446 226.304246 
L 424.680215 224.069814 
L 425.949984 222.226779 
L 426.584868 221.992713 
L 427.219753 220.318528 
L 427.854637 221.262259 
L 428.489522 219.358892 
L 429.759291 218.63541 
L 430.394175 216.602213 
L 431.02906 216.210372 
L 431.663944 216.744946 
L 432.933713 213.983148 
L 433.568598 212.950853 
L 434.203482 211.30571 
L 434.838367 212.419936 
L 435.473251 211.65955 
L 436.108136 210.11052 
L 436.74302 210.066538 
L 437.377905 208.365034 
L 438.012789 207.974707 
L 438.647674 207.006975 
L 439.282558 206.424606 
L 439.917443 206.488046 
L 440.552327 204.588571 
L 441.187212 203.359271 
L 441.822097 204.002337 
L 443.091866 201.426235 
L 443.72675 201.503647 
L 444.361635 201.263287 
L 444.996519 199.685528 
L 445.631404 198.84739 
L 446.266288 197.318209 
L 446.901173 196.748351 
L 447.536057 197.008743 
L 448.170942 196.181679 
L 448.805826 196.202443 
L 450.075595 193.688135 
L 450.71048 192.960396 
L 451.980249 192.387273 
L 452.615133 190.519766 
L 453.250018 190.051688 
L 453.884902 189.745799 
L 454.519787 188.30641 
L 455.154671 187.412878 
L 455.789556 187.48329 
L 456.42444 185.740102 
L 457.059325 185.546572 
L 457.694209 184.874045 
L 458.329094 184.94895 
L 458.963978 182.83996 
L 459.598863 181.669216 
L 460.233747 181.517682 
L 460.868632 182.053823 
L 461.503516 180.161817 
L 462.138401 180.147557 
L 462.773285 178.574238 
L 463.40817 178.51563 
L 464.043055 178.176833 
L 464.677939 176.48541 
L 465.312824 175.241015 
L 465.947708 175.690236 
L 466.582593 174.628507 
L 467.852362 173.200609 
L 468.487246 172.790982 
L 469.757015 170.343196 
L 470.3919 170.413504 
L 471.026784 168.766846 
L 471.661669 168.714559 
L 472.296553 167.846308 
L 472.931438 167.473298 
L 473.566322 166.635918 
L 474.201207 166.526172 
L 474.836091 165.840326 
L 475.470976 164.153917 
L 476.10586 163.177383 
L 476.740745 162.766972 
L 477.375629 162.155509 
L 478.010514 161.313114 
L 478.645398 160.163212 
L 479.280283 159.243666 
L 479.915167 159.108064 
L 480.550052 158.326158 
L 481.184936 158.02006 
L 481.819821 156.921975 
L 482.454705 156.594618 
L 483.08959 156.532302 
L 483.724474 154.371912 
L 485.629128 152.613158 
L 486.264013 150.991678 
L 486.898897 151.920313 
L 487.533782 149.491278 
L 488.168666 149.994093 
L 488.803551 148.962137 
L 489.438435 147.51951 
L 490.07332 147.237859 
L 490.708204 145.935952 
L 491.343089 146.067376 
L 491.977973 145.651637 
L 492.612858 144.26417 
L 493.247742 142.600118 
L 493.882627 143.114006 
L 494.517511 141.874939 
L 495.152396 141.38022 
L 495.78728 141.377922 
L 496.422165 139.086266 
L 497.057049 139.870523 
L 497.691934 139.173342 
L 498.326818 136.495512 
L 498.961703 136.598206 
L 500.231472 136.462134 
L 500.866356 134.991352 
L 501.501241 134.711842 
L 502.136125 132.749528 
L 502.77101 133.469014 
L 503.405894 132.126364 
L 504.040779 131.728908 
L 504.675663 130.274266 
L 505.310548 129.505575 
L 505.945433 129.493822 
L 506.580317 127.933405 
L 507.215202 128.130226 
L 508.484971 125.972867 
L 509.119855 125.730548 
L 509.75474 124.064094 
L 510.389624 124.442119 
L 511.024509 123.189522 
L 511.659393 121.671467 
L 512.294278 121.707823 
L 513.564047 120.367106 
L 514.198931 119.348627 
L 514.833816 118.947618 
L 515.4687 119.001734 
L 516.103585 117.388872 
L 516.738469 117.442622 
L 517.373354 114.753092 
L 518.008238 116.54559 
L 518.643123 113.760887 
L 519.278007 115.068122 
L 521.182661 111.244359 
L 521.817545 110.92536 
L 522.45243 109.773421 
L 523.087314 109.092171 
L 523.722199 109.093947 
L 524.357083 108.573268 
L 524.991968 106.659324 
L 525.626852 107.273033 
L 526.261737 105.658396 
L 526.896621 105.731473 
L 527.531506 106.094976 
L 528.166391 103.332004 
L 528.801275 103.072709 
L 529.43616 101.013394 
L 530.071044 101.57257 
L 530.705929 99.837374 
L 531.340813 101.410276 
L 531.975698 99.449947 
L 532.610582 98.54205 
L 533.245467 98.653937 
L 533.880351 97.309303 
L 534.515236 96.982468 
L 535.15012 95.21849 
L 535.785005 95.366577 
L 536.419889 93.843455 
L 537.054774 93.415023 
L 537.689658 93.712867 
L 538.324543 93.000538 
L 538.959427 91.742353 
L 539.594312 92.230541 
L 540.229196 89.653055 
L 540.864081 89.371717 
L 541.498965 89.591052 
L 542.768734 86.74607 
L 543.403619 85.074131 
L 544.038503 84.316148 
L 544.673388 84.433782 
L 545.308272 83.612594 
L 546.578041 82.754164 
L 547.212926 81.710194 
L 547.84781 81.067651 
L 548.482695 81.952042 
L 549.11758 81.114662 
L 550.387349 77.197347 
L 551.022233 76.632112 
L 551.657118 76.716941 
L 552.292002 77.669761 
L 552.926887 75.420572 
L 553.561771 75.283246 
L 554.196656 73.480719 
L 554.83154 72.706857 
L 555.466425 71.380661 
L 556.101309 72.401909 
L 556.736194 70.093799 
L 557.371078 70.823418 
L 558.005963 70.247735 
L 558.640847 68.571304 
L 559.910616 67.772421 
L 560.545501 66.348546 
L 561.180385 66.331622 
L 561.81527 64.378397 
L 562.450154 66.250501 
L 563.085039 61.956675 
L 563.719923 63.60584 
L 564.354808 62.20756 
L 564.989692 62.049549 
L 565.624577 59.687219 
L 566.259461 61.123526 
L 566.894346 58.916648 
L 567.52923 58.763808 
L 568.798999 57.026471 
L 569.433884 56.856445 
L 570.068768 55.637697 
L 570.703653 56.440707 
L 571.338538 53.62435 
L 571.973422 52.318578 
L 572.608307 52.794074 
L 573.243191 52.102429 
L 574.51296 49.684469 
L 575.147845 50.386822 
L 575.782729 47.518125 
L 576.417614 48.17169 
L 576.417614 48.17169 
" clip-path="url(#p45eed15ab6)" style="fill: none; stroke: #ff7f0e; stroke-width: 1.5; stroke-linecap: square"/>
   </g>
   <g id="patch_3">
    <path d="M 43.78125 576.718125 
L 43.78125 22.318125 
" style="fill: none; stroke: #000000; stroke-width: 0.8; stroke-linejoin: miter; stroke-linecap: square"/>
   </g>
   <g id="patch_4">
    <path d="M 601.78125 576.718125 
L 601.78125 22.318125 
" style="fill: none; stroke: #000000; stroke-width: 0.8; stroke-linejoin: miter; stroke-linecap: square"/>
   </g>
   <g id="patch_5">
    <path d="M 43.78125 576.718125 
L 601.78125 576.718125 
" style="fill: none; stroke: #000000; stroke-width: 0.8; stroke-linejoin: miter; stroke-linecap: square"/>
   </g>
   <g id="patch_6">
    <path d="M 43.78125 22.318125 
L 601.78125 22.318125 
" style="fill: none; stroke: #000000; stroke-width: 0.8; stroke-linejoin: miter; stroke-linecap: square"/>
   </g>
   <g id="text_17">
    <!-- Train and Val Loss -->
    <g transform="translate(269.235937 16.318125) scale(0.12 -0.12)">
     <defs>
      <path id="DejaVuSans-54" d="M -19 4666 
L 3928 4666 
L 3928 4134 
L 2272 4134 
L 2272 0 
L 1638 0 
L 1638 4134 
L -19 4134 
L -19 4666 
z
" transform="scale(0.015625)"/>
      <path id="DejaVuSans-72" d="M 2631 2963 
Q 2534 3019 2420 3045 
Q 2306 3072 2169 3072 
Q 1681 3072 1420 2755 
Q 1159 2438 1159 1844 
L 1159 0 
L 581 0 
L 581 3500 
L 1159 3500 
L 1159 2956 
Q 1341 3275 1631 3429 
Q 1922 3584 2338 3584 
Q 2397 3584 2469 3576 
Q 2541 3569 2628 3553 
L 2631 2963 
z
" transform="scale(0.015625)"/>
      <path id="DejaVuSans-61" d="M 2194 1759 
Q 1497 1759 1228 1600 
Q 959 1441 959 1056 
Q 959 750 1161 570 
Q 1363 391 1709 391 
Q 2188 391 2477 730 
Q 2766 1069 2766 1631 
L 2766 1759 
L 2194 1759 
z
M 3341 1997 
L 3341 0 
L 2766 0 
L 2766 531 
Q 2569 213 2275 61 
Q 1981 -91 1556 -91 
Q 1019 -91 701 211 
Q 384 513 384 1019 
Q 384 1609 779 1909 
Q 1175 2209 1959 2209 
L 2766 2209 
L 2766 2266 
Q 2766 2663 2505 2880 
Q 2244 3097 1772 3097 
Q 1472 3097 1187 3025 
Q 903 2953 641 2809 
L 641 3341 
Q 956 3463 1253 3523 
Q 1550 3584 1831 3584 
Q 2591 3584 2966 3190 
Q 3341 2797 3341 1997 
z
" transform="scale(0.015625)"/>
      <path id="DejaVuSans-69" d="M 603 3500 
L 1178 3500 
L 1178 0 
L 603 0 
L 603 3500 
z
M 603 4863 
L 1178 4863 
L 1178 4134 
L 603 4134 
L 603 4863 
z
" transform="scale(0.015625)"/>
      <path id="DejaVuSans-6e" d="M 3513 2113 
L 3513 0 
L 2938 0 
L 2938 2094 
Q 2938 2591 2744 2837 
Q 2550 3084 2163 3084 
Q 1697 3084 1428 2787 
Q 1159 2491 1159 1978 
L 1159 0 
L 581 0 
L 581 3500 
L 1159 3500 
L 1159 2956 
Q 1366 3272 1645 3428 
Q 1925 3584 2291 3584 
Q 2894 3584 3203 3211 
Q 3513 2838 3513 2113 
z
" transform="scale(0.015625)"/>
      <path id="DejaVuSans-20" transform="scale(0.015625)"/>
      <path id="DejaVuSans-64" d="M 2906 2969 
L 2906 4863 
L 3481 4863 
L 3481 0 
L 2906 0 
L 2906 525 
Q 2725 213 2448 61 
Q 2172 -91 1784 -91 
Q 1150 -91 751 415 
Q 353 922 353 1747 
Q 353 2572 751 3078 
Q 1150 3584 1784 3584 
Q 2172 3584 2448 3432 
Q 2725 3281 2906 2969 
z
M 947 1747 
Q 947 1113 1208 752 
Q 1469 391 1925 391 
Q 2381 391 2643 752 
Q 2906 1113 2906 1747 
Q 2906 2381 2643 2742 
Q 2381 3103 1925 3103 
Q 1469 3103 1208 2742 
Q 947 2381 947 1747 
z
" transform="scale(0.015625)"/>
      <path id="DejaVuSans-56" d="M 1831 0 
L 50 4666 
L 709 4666 
L 2188 738 
L 3669 4666 
L 4325 4666 
L 2547 0 
L 1831 0 
z
" transform="scale(0.015625)"/>
      <path id="DejaVuSans-6c" d="M 603 4863 
L 1178 4863 
L 1178 0 
L 603 0 
L 603 4863 
z
" transform="scale(0.015625)"/>
     </defs>
     <use xlink:href="#DejaVuSans-54"/>
     <use xlink:href="#DejaVuSans-72" transform="translate(46.333984 0)"/>
     <use xlink:href="#DejaVuSans-61" transform="translate(87.447266 0)"/>
     <use xlink:href="#DejaVuSans-69" transform="translate(148.726562 0)"/>
     <use xlink:href="#DejaVuSans-6e" transform="translate(176.509766 0)"/>
     <use xlink:href="#DejaVuSans-20" transform="translate(239.888672 0)"/>
     <use xlink:href="#DejaVuSans-61" transform="translate(271.675781 0)"/>
     <use xlink:href="#DejaVuSans-6e" transform="translate(332.955078 0)"/>
     <use xlink:href="#DejaVuSans-64" transform="translate(396.333984 0)"/>
     <use xlink:href="#DejaVuSans-20" transform="translate(459.810547 0)"/>
     <use xlink:href="#DejaVuSans-56" transform="translate(491.597656 0)"/>
     <use xlink:href="#DejaVuSans-61" transform="translate(552.255859 0)"/>
     <use xlink:href="#DejaVuSans-6c" transform="translate(613.535156 0)"/>
     <use xlink:href="#DejaVuSans-20" transform="translate(641.318359 0)"/>
     <use xlink:href="#DejaVuSans-4c" transform="translate(673.105469 0)"/>
     <use xlink:href="#DejaVuSans-6f" transform="translate(727.068359 0)"/>
     <use xlink:href="#DejaVuSans-73" transform="translate(788.25 0)"/>
     <use xlink:href="#DejaVuSans-73" transform="translate(840.349609 0)"/>
    </g>
   </g>
   <g id="legend_1">
    <g id="patch_7">
     <path d="M 50.78125 60.230625 
L 130.371875 60.230625 
Q 132.371875 60.230625 132.371875 58.230625 
L 132.371875 29.318125 
Q 132.371875 27.318125 130.371875 27.318125 
L 50.78125 27.318125 
Q 48.78125 27.318125 48.78125 29.318125 
L 48.78125 58.230625 
Q 48.78125 60.230625 50.78125 60.230625 
z
" style="fill: #ffffff; opacity: 0.8; stroke: #cccccc; stroke-linejoin: miter"/>
    </g>
    <g id="line2d_31">
     <path d="M 52.78125 35.416563 
L 62.78125 35.416563 
L 72.78125 35.416563 
" style="fill: none; stroke: #1f77b4; stroke-width: 1.5; stroke-linecap: square"/>
    </g>
    <g id="text_18">
     <!-- train_loss -->
     <g transform="translate(80.78125 38.916563) scale(0.1 -0.1)">
      <defs>
       <path id="DejaVuSans-74" d="M 1172 4494 
L 1172 3500 
L 2356 3500 
L 2356 3053 
L 1172 3053 
L 1172 1153 
Q 1172 725 1289 603 
Q 1406 481 1766 481 
L 2356 481 
L 2356 0 
L 1766 0 
Q 1100 0 847 248 
Q 594 497 594 1153 
L 594 3053 
L 172 3053 
L 172 3500 
L 594 3500 
L 594 4494 
L 1172 4494 
z
" transform="scale(0.015625)"/>
       <path id="DejaVuSans-5f" d="M 3263 -1063 
L 3263 -1509 
L -63 -1509 
L -63 -1063 
L 3263 -1063 
z
" transform="scale(0.015625)"/>
      </defs>
      <use xlink:href="#DejaVuSans-74"/>
      <use xlink:href="#DejaVuSans-72" transform="translate(39.208984 0)"/>
      <use xlink:href="#DejaVuSans-61" transform="translate(80.322266 0)"/>
      <use xlink:href="#DejaVuSans-69" transform="translate(141.601562 0)"/>
      <use xlink:href="#DejaVuSans-6e" transform="translate(169.384766 0)"/>
      <use xlink:href="#DejaVuSans-5f" transform="translate(232.763672 0)"/>
      <use xlink:href="#DejaVuSans-6c" transform="translate(282.763672 0)"/>
      <use xlink:href="#DejaVuSans-6f" transform="translate(310.546875 0)"/>
      <use xlink:href="#DejaVuSans-73" transform="translate(371.728516 0)"/>
      <use xlink:href="#DejaVuSans-73" transform="translate(423.828125 0)"/>
     </g>
    </g>
    <g id="line2d_32">
     <path d="M 52.78125 50.372813 
L 62.78125 50.372813 
L 72.78125 50.372813 
" style="fill: none; stroke: #ff7f0e; stroke-width: 1.5; stroke-linecap: square"/>
    </g>
    <g id="text_19">
     <!-- val_loss -->
     <g transform="translate(80.78125 53.872813) scale(0.1 -0.1)">
      <defs>
       <path id="DejaVuSans-76" d="M 191 3500 
L 800 3500 
L 1894 563 
L 2988 3500 
L 3597 3500 
L 2284 0 
L 1503 0 
L 191 3500 
z
" transform="scale(0.015625)"/>
      </defs>
      <use xlink:href="#DejaVuSans-76"/>
      <use xlink:href="#DejaVuSans-61" transform="translate(59.179688 0)"/>
      <use xlink:href="#DejaVuSans-6c" transform="translate(120.458984 0)"/>
      <use xlink:href="#DejaVuSans-5f" transform="translate(148.242188 0)"/>
      <use xlink:href="#DejaVuSans-6c" transform="translate(198.242188 0)"/>
      <use xlink:href="#DejaVuSans-6f" transform="translate(226.025391 0)"/>
      <use xlink:href="#DejaVuSans-73" transform="translate(287.207031 0)"/>
      <use xlink:href="#DejaVuSans-73" transform="translate(339.306641 0)"/>
     </g>
    </g>
   </g>
  </g>
 </g>
 <defs>
  <clipPath id="p45eed15ab6">
   <rect x="43.78125" y="22.318125" width="558" height="554.4"/>
  </clipPath>
 </defs>
</svg>
