<?xml version="1.0" encoding="utf-8" standalone="no"?>
<!DOCTYPE svg PUBLIC "-//W3C//DTD SVG 1.1//EN"
  "http://www.w3.org/Graphics/SVG/1.1/DTD/svg11.dtd">
<svg xmlns:xlink="http://www.w3.org/1999/xlink" width="615.34375pt" height="614.274375pt" viewBox="0 0 615.34375 614.274375" xmlns="http://www.w3.org/2000/svg" version="1.1">
 <metadata>
  <rdf:RDF xmlns:dc="http://purl.org/dc/elements/1.1/" xmlns:cc="http://creativecommons.org/ns#" xmlns:rdf="http://www.w3.org/1999/02/22-rdf-syntax-ns#">
   <cc:Work>
    <dc:type rdf:resource="http://purl.org/dc/dcmitype/StillImage"/>
    <dc:date>2026-05-23T20:45:19.231604</dc:date>
    <dc:format>image/svg+xml</dc:format>
    <dc:creator>
     <cc:Agent>
      <dc:title>Matplotlib v3.10.9, https://matplotlib.org/</dc:title>
     </cc:Agent>
    </dc:creator>
   </cc:Work>
  </rdf:RDF>
 </metadata>
 <defs>
  <style type="text/css">*{stroke-linejoin: round; stroke-linecap: butt}</style>
 </defs>
 <g id="figure_1">
  <g id="patch_1">
   <path d="M 0 614.274375 
L 615.34375 614.274375 
L 615.34375 0 
L 0 0 
z
" style="fill: #ffffff"/>
  </g>
  <g id="axes_1">
   <g id="patch_2">
    <path d="M 50.14375 576.718125 
L 608.14375 576.718125 
L 608.14375 22.318125 
L 50.14375 22.318125 
z
" style="fill: #ffffff"/>
   </g>
   <g id="matplotlib.axis_1">
    <g id="xtick_1">
     <g id="line2d_1">
      <path d="M 75.507386 576.718125 
L 75.507386 22.318125 
" clip-path="url(#p2631cf7c35)" style="fill: none; stroke: #b0b0b0; stroke-width: 0.8; stroke-linecap: square"/>
     </g>
     <g id="line2d_2">
      <defs>
       <path id="me6b7860899" d="M 0 0 
L 0 3.5 
" style="stroke: #000000; stroke-width: 0.8"/>
      </defs>
      <g>
       <use xlink:href="#me6b7860899" x="75.507386" y="576.718125" style="stroke: #000000; stroke-width: 0.8"/>
      </g>
     </g>
     <g id="text_1">
      <!-- 0 -->
      <g transform="translate(72.326136 591.316563) scale(0.1 -0.1)">
       <defs>
        <path id="DejaVuSans-30" d="M 2034 4250 
Q 1547 4250 1301 3770 
Q 1056 3291 1056 2328 
Q 1056 1369 1301 889 
Q 1547 409 2034 409 
Q 2525 409 2770 889 
Q 3016 1369 3016 2328 
Q 3016 3291 2770 3770 
Q 2525 4250 2034 4250 
z
M 2034 4750 
Q 2819 4750 3233 4129 
Q 3647 3509 3647 2328 
Q 3647 1150 3233 529 
Q 2819 -91 2034 -91 
Q 1250 -91 836 529 
Q 422 1150 422 2328 
Q 422 3509 836 4129 
Q 1250 4750 2034 4750 
z
" transform="scale(0.015625)"/>
       </defs>
       <use xlink:href="#DejaVuSans-30"/>
      </g>
     </g>
    </g>
    <g id="xtick_2">
     <g id="line2d_3">
      <path d="M 138.995838 576.718125 
L 138.995838 22.318125 
" clip-path="url(#p2631cf7c35)" style="fill: none; stroke: #b0b0b0; stroke-width: 0.8; stroke-linecap: square"/>
     </g>
     <g id="line2d_4">
      <g>
       <use xlink:href="#me6b7860899" x="138.995838" y="576.718125" style="stroke: #000000; stroke-width: 0.8"/>
      </g>
     </g>
     <g id="text_2">
      <!-- 100 -->
      <g transform="translate(129.452088 591.316563) scale(0.1 -0.1)">
       <defs>
        <path id="DejaVuSans-31" d="M 794 531 
L 1825 531 
L 1825 4091 
L 703 3866 
L 703 4441 
L 1819 4666 
L 2450 4666 
L 2450 531 
L 3481 531 
L 3481 0 
L 794 0 
L 794 531 
z
" transform="scale(0.015625)"/>
       </defs>
       <use xlink:href="#DejaVuSans-31"/>
       <use xlink:href="#DejaVuSans-30" transform="translate(63.623047 0)"/>
       <use xlink:href="#DejaVuSans-30" transform="translate(127.246094 0)"/>
      </g>
     </g>
    </g>
    <g id="xtick_3">
     <g id="line2d_5">
      <path d="M 202.484289 576.718125 
L 202.484289 22.318125 
" clip-path="url(#p2631cf7c35)" style="fill: none; stroke: #b0b0b0; stroke-width: 0.8; stroke-linecap: square"/>
     </g>
     <g id="line2d_6">
      <g>
       <use xlink:href="#me6b7860899" x="202.484289" y="576.718125" style="stroke: #000000; stroke-width: 0.8"/>
      </g>
     </g>
     <g id="text_3">
      <!-- 200 -->
      <g transform="translate(192.940539 591.316563) scale(0.1 -0.1)">
       <defs>
        <path id="DejaVuSans-32" d="M 1228 531 
L 3431 531 
L 3431 0 
L 469 0 
L 469 531 
Q 828 903 1448 1529 
Q 2069 2156 2228 2338 
Q 2531 2678 2651 2914 
Q 2772 3150 2772 3378 
Q 2772 3750 2511 3984 
Q 2250 4219 1831 4219 
Q 1534 4219 1204 4116 
Q 875 4013 500 3803 
L 500 4441 
Q 881 4594 1212 4672 
Q 1544 4750 1819 4750 
Q 2544 4750 2975 4387 
Q 3406 4025 3406 3419 
Q 3406 3131 3298 2873 
Q 3191 2616 2906 2266 
Q 2828 2175 2409 1742 
Q 1991 1309 1228 531 
z
" transform="scale(0.015625)"/>
       </defs>
       <use xlink:href="#DejaVuSans-32"/>
       <use xlink:href="#DejaVuSans-30" transform="translate(63.623047 0)"/>
       <use xlink:href="#DejaVuSans-30" transform="translate(127.246094 0)"/>
      </g>
     </g>
    </g>
    <g id="xtick_4">
     <g id="line2d_7">
      <path d="M 265.972741 576.718125 
L 265.972741 22.318125 
" clip-path="url(#p2631cf7c35)" style="fill: none; stroke: #b0b0b0; stroke-width: 0.8; stroke-linecap: square"/>
     </g>
     <g id="line2d_8">
      <g>
       <use xlink:href="#me6b7860899" x="265.972741" y="576.718125" style="stroke: #000000; stroke-width: 0.8"/>
      </g>
     </g>
     <g id="text_4">
      <!-- 300 -->
      <g transform="translate(256.428991 591.316563) scale(0.1 -0.1)">
       <defs>
        <path id="DejaVuSans-33" d="M 2597 2516 
Q 3050 2419 3304 2112 
Q 3559 1806 3559 1356 
Q 3559 666 3084 287 
Q 2609 -91 1734 -91 
Q 1441 -91 1130 -33 
Q 819 25 488 141 
L 488 750 
Q 750 597 1062 519 
Q 1375 441 1716 441 
Q 2309 441 2620 675 
Q 2931 909 2931 1356 
Q 2931 1769 2642 2001 
Q 2353 2234 1838 2234 
L 1294 2234 
L 1294 2753 
L 1863 2753 
Q 2328 2753 2575 2939 
Q 2822 3125 2822 3475 
Q 2822 3834 2567 4026 
Q 2313 4219 1838 4219 
Q 1578 4219 1281 4162 
Q 984 4106 628 3988 
L 628 4550 
Q 988 4650 1302 4700 
Q 1616 4750 1894 4750 
Q 2613 4750 3031 4423 
Q 3450 4097 3450 3541 
Q 3450 3153 3228 2886 
Q 3006 2619 2597 2516 
z
" transform="scale(0.015625)"/>
       </defs>
       <use xlink:href="#DejaVuSans-33"/>
       <use xlink:href="#DejaVuSans-30" transform="translate(63.623047 0)"/>
       <use xlink:href="#DejaVuSans-30" transform="translate(127.246094 0)"/>
      </g>
     </g>
    </g>
    <g id="xtick_5">
     <g id="line2d_9">
      <path d="M 329.461192 576.718125 
L 329.461192 22.318125 
" clip-path="url(#p2631cf7c35)" style="fill: none; stroke: #b0b0b0; stroke-width: 0.8; stroke-linecap: square"/>
     </g>
     <g id="line2d_10">
      <g>
       <use xlink:href="#me6b7860899" x="329.461192" y="576.718125" style="stroke: #000000; stroke-width: 0.8"/>
      </g>
     </g>
     <g id="text_5">
      <!-- 400 -->
      <g transform="translate(319.917442 591.316563) scale(0.1 -0.1)">
       <defs>
        <path id="DejaVuSans-34" d="M 2419 4116 
L 825 1625 
L 2419 1625 
L 2419 4116 
z
M 2253 4666 
L 3047 4666 
L 3047 1625 
L 3713 1625 
L 3713 1100 
L 3047 1100 
L 3047 0 
L 2419 0 
L 2419 1100 
L 313 1100 
L 313 1709 
L 2253 4666 
z
" transform="scale(0.015625)"/>
       </defs>
       <use xlink:href="#DejaVuSans-34"/>
       <use xlink:href="#DejaVuSans-30" transform="translate(63.623047 0)"/>
       <use xlink:href="#DejaVuSans-30" transform="translate(127.246094 0)"/>
      </g>
     </g>
    </g>
    <g id="xtick_6">
     <g id="line2d_11">
      <path d="M 392.949644 576.718125 
L 392.949644 22.318125 
" clip-path="url(#p2631cf7c35)" style="fill: none; stroke: #b0b0b0; stroke-width: 0.8; stroke-linecap: square"/>
     </g>
     <g id="line2d_12">
      <g>
       <use xlink:href="#me6b7860899" x="392.949644" y="576.718125" style="stroke: #000000; stroke-width: 0.8"/>
      </g>
     </g>
     <g id="text_6">
      <!-- 500 -->
      <g transform="translate(383.405894 591.316563) scale(0.1 -0.1)">
       <defs>
        <path id="DejaVuSans-35" d="M 691 4666 
L 3169 4666 
L 3169 4134 
L 1269 4134 
L 1269 2991 
Q 1406 3038 1543 3061 
Q 1681 3084 1819 3084 
Q 2600 3084 3056 2656 
Q 3513 2228 3513 1497 
Q 3513 744 3044 326 
Q 2575 -91 1722 -91 
Q 1428 -91 1123 -41 
Q 819 9 494 109 
L 494 744 
Q 775 591 1075 516 
Q 1375 441 1709 441 
Q 2250 441 2565 725 
Q 2881 1009 2881 1497 
Q 2881 1984 2565 2268 
Q 2250 2553 1709 2553 
Q 1456 2553 1204 2497 
Q 953 2441 691 2322 
L 691 4666 
z
" transform="scale(0.015625)"/>
       </defs>
       <use xlink:href="#DejaVuSans-35"/>
       <use xlink:href="#DejaVuSans-30" transform="translate(63.623047 0)"/>
       <use xlink:href="#DejaVuSans-30" transform="translate(127.246094 0)"/>
      </g>
     </g>
    </g>
    <g id="xtick_7">
     <g id="line2d_13">
      <path d="M 456.438095 576.718125 
L 456.438095 22.318125 
" clip-path="url(#p2631cf7c35)" style="fill: none; stroke: #b0b0b0; stroke-width: 0.8; stroke-linecap: square"/>
     </g>
     <g id="line2d_14">
      <g>
       <use xlink:href="#me6b7860899" x="456.438095" y="576.718125" style="stroke: #000000; stroke-width: 0.8"/>
      </g>
     </g>
     <g id="text_7">
      <!-- 600 -->
      <g transform="translate(446.894345 591.316563) scale(0.1 -0.1)">
       <defs>
        <path id="DejaVuSans-36" d="M 2113 2584 
Q 1688 2584 1439 2293 
Q 1191 2003 1191 1497 
Q 1191 994 1439 701 
Q 1688 409 2113 409 
Q 2538 409 2786 701 
Q 3034 994 3034 1497 
Q 3034 2003 2786 2293 
Q 2538 2584 2113 2584 
z
M 3366 4563 
L 3366 3988 
Q 3128 4100 2886 4159 
Q 2644 4219 2406 4219 
Q 1781 4219 1451 3797 
Q 1122 3375 1075 2522 
Q 1259 2794 1537 2939 
Q 1816 3084 2150 3084 
Q 2853 3084 3261 2657 
Q 3669 2231 3669 1497 
Q 3669 778 3244 343 
Q 2819 -91 2113 -91 
Q 1303 -91 875 529 
Q 447 1150 447 2328 
Q 447 3434 972 4092 
Q 1497 4750 2381 4750 
Q 2619 4750 2861 4703 
Q 3103 4656 3366 4563 
z
" transform="scale(0.015625)"/>
       </defs>
       <use xlink:href="#DejaVuSans-36"/>
       <use xlink:href="#DejaVuSans-30" transform="translate(63.623047 0)"/>
       <use xlink:href="#DejaVuSans-30" transform="translate(127.246094 0)"/>
      </g>
     </g>
    </g>
    <g id="xtick_8">
     <g id="line2d_15">
      <path d="M 519.926547 576.718125 
L 519.926547 22.318125 
" clip-path="url(#p2631cf7c35)" style="fill: none; stroke: #b0b0b0; stroke-width: 0.8; stroke-linecap: square"/>
     </g>
     <g id="line2d_16">
      <g>
       <use xlink:href="#me6b7860899" x="519.926547" y="576.718125" style="stroke: #000000; stroke-width: 0.8"/>
      </g>
     </g>
     <g id="text_8">
      <!-- 700 -->
      <g transform="translate(510.382797 591.316563) scale(0.1 -0.1)">
       <defs>
        <path id="DejaVuSans-37" d="M 525 4666 
L 3525 4666 
L 3525 4397 
L 1831 0 
L 1172 0 
L 2766 4134 
L 525 4134 
L 525 4666 
z
" transform="scale(0.015625)"/>
       </defs>
       <use xlink:href="#DejaVuSans-37"/>
       <use xlink:href="#DejaVuSans-30" transform="translate(63.623047 0)"/>
       <use xlink:href="#DejaVuSans-30" transform="translate(127.246094 0)"/>
      </g>
     </g>
    </g>
    <g id="xtick_9">
     <g id="line2d_17">
      <path d="M 583.414998 576.718125 
L 583.414998 22.318125 
" clip-path="url(#p2631cf7c35)" style="fill: none; stroke: #b0b0b0; stroke-width: 0.8; stroke-linecap: square"/>
     </g>
     <g id="line2d_18">
      <g>
       <use xlink:href="#me6b7860899" x="583.414998" y="576.718125" style="stroke: #000000; stroke-width: 0.8"/>
      </g>
     </g>
     <g id="text_9">
      <!-- 800 -->
      <g transform="translate(573.871248 591.316563) scale(0.1 -0.1)">
       <defs>
        <path id="DejaVuSans-38" d="M 2034 2216 
Q 1584 2216 1326 1975 
Q 1069 1734 1069 1313 
Q 1069 891 1326 650 
Q 1584 409 2034 409 
Q 2484 409 2743 651 
Q 3003 894 3003 1313 
Q 3003 1734 2745 1975 
Q 2488 2216 2034 2216 
z
M 1403 2484 
Q 997 2584 770 2862 
Q 544 3141 544 3541 
Q 544 4100 942 4425 
Q 1341 4750 2034 4750 
Q 2731 4750 3128 4425 
Q 3525 4100 3525 3541 
Q 3525 3141 3298 2862 
Q 3072 2584 2669 2484 
Q 3125 2378 3379 2068 
Q 3634 1759 3634 1313 
Q 3634 634 3220 271 
Q 2806 -91 2034 -91 
Q 1263 -91 848 271 
Q 434 634 434 1313 
Q 434 1759 690 2068 
Q 947 2378 1403 2484 
z
M 1172 3481 
Q 1172 3119 1398 2916 
Q 1625 2713 2034 2713 
Q 2441 2713 2670 2916 
Q 2900 3119 2900 3481 
Q 2900 3844 2670 4047 
Q 2441 4250 2034 4250 
Q 1625 4250 1398 4047 
Q 1172 3844 1172 3481 
z
" transform="scale(0.015625)"/>
       </defs>
       <use xlink:href="#DejaVuSans-38"/>
       <use xlink:href="#DejaVuSans-30" transform="translate(63.623047 0)"/>
       <use xlink:href="#DejaVuSans-30" transform="translate(127.246094 0)"/>
      </g>
     </g>
    </g>
    <g id="text_10">
     <!-- Epochs -->
     <g transform="translate(311.228125 604.994688) scale(0.1 -0.1)">
      <defs>
       <path id="DejaVuSans-45" d="M 628 4666 
L 3578 4666 
L 3578 4134 
L 1259 4134 
L 1259 2753 
L 3481 2753 
L 3481 2222 
L 1259 2222 
L 1259 531 
L 3634 531 
L 3634 0 
L 628 0 
L 628 4666 
z
" transform="scale(0.015625)"/>
       <path id="DejaVuSans-70" d="M 1159 525 
L 1159 -1331 
L 581 -1331 
L 581 3500 
L 1159 3500 
L 1159 2969 
Q 1341 3281 1617 3432 
Q 1894 3584 2278 3584 
Q 2916 3584 3314 3078 
Q 3713 2572 3713 1747 
Q 3713 922 3314 415 
Q 2916 -91 2278 -91 
Q 1894 -91 1617 61 
Q 1341 213 1159 525 
z
M 3116 1747 
Q 3116 2381 2855 2742 
Q 2594 3103 2138 3103 
Q 1681 3103 1420 2742 
Q 1159 2381 1159 1747 
Q 1159 1113 1420 752 
Q 1681 391 2138 391 
Q 2594 391 2855 752 
Q 3116 1113 3116 1747 
z
" transform="scale(0.015625)"/>
       <path id="DejaVuSans-6f" d="M 1959 3097 
Q 1497 3097 1228 2736 
Q 959 2375 959 1747 
Q 959 1119 1226 758 
Q 1494 397 1959 397 
Q 2419 397 2687 759 
Q 2956 1122 2956 1747 
Q 2956 2369 2687 2733 
Q 2419 3097 1959 3097 
z
M 1959 3584 
Q 2709 3584 3137 3096 
Q 3566 2609 3566 1747 
Q 3566 888 3137 398 
Q 2709 -91 1959 -91 
Q 1206 -91 779 398 
Q 353 888 353 1747 
Q 353 2609 779 3096 
Q 1206 3584 1959 3584 
z
" transform="scale(0.015625)"/>
       <path id="DejaVuSans-63" d="M 3122 3366 
L 3122 2828 
Q 2878 2963 2633 3030 
Q 2388 3097 2138 3097 
Q 1578 3097 1268 2742 
Q 959 2388 959 1747 
Q 959 1106 1268 751 
Q 1578 397 2138 397 
Q 2388 397 2633 464 
Q 2878 531 3122 666 
L 3122 134 
Q 2881 22 2623 -34 
Q 2366 -91 2075 -91 
Q 1284 -91 818 406 
Q 353 903 353 1747 
Q 353 2603 823 3093 
Q 1294 3584 2113 3584 
Q 2378 3584 2631 3529 
Q 2884 3475 3122 3366 
z
" transform="scale(0.015625)"/>
       <path id="DejaVuSans-68" d="M 3513 2113 
L 3513 0 
L 2938 0 
L 2938 2094 
Q 2938 2591 2744 2837 
Q 2550 3084 2163 3084 
Q 1697 3084 1428 2787 
Q 1159 2491 1159 1978 
L 1159 0 
L 581 0 
L 581 4863 
L 1159 4863 
L 1159 2956 
Q 1366 3272 1645 3428 
Q 1925 3584 2291 3584 
Q 2894 3584 3203 3211 
Q 3513 2838 3513 2113 
z
" transform="scale(0.015625)"/>
       <path id="DejaVuSans-73" d="M 2834 3397 
L 2834 2853 
Q 2591 2978 2328 3040 
Q 2066 3103 1784 3103 
Q 1356 3103 1142 2972 
Q 928 2841 928 2578 
Q 928 2378 1081 2264 
Q 1234 2150 1697 2047 
L 1894 2003 
Q 2506 1872 2764 1633 
Q 3022 1394 3022 966 
Q 3022 478 2636 193 
Q 2250 -91 1575 -91 
Q 1294 -91 989 -36 
Q 684 19 347 128 
L 347 722 
Q 666 556 975 473 
Q 1284 391 1588 391 
Q 1994 391 2212 530 
Q 2431 669 2431 922 
Q 2431 1156 2273 1281 
Q 2116 1406 1581 1522 
L 1381 1569 
Q 847 1681 609 1914 
Q 372 2147 372 2553 
Q 372 3047 722 3315 
Q 1072 3584 1716 3584 
Q 2034 3584 2315 3537 
Q 2597 3491 2834 3397 
z
" transform="scale(0.015625)"/>
      </defs>
      <use xlink:href="#DejaVuSans-45"/>
      <use xlink:href="#DejaVuSans-70" transform="translate(63.183594 0)"/>
      <use xlink:href="#DejaVuSans-6f" transform="translate(126.660156 0)"/>
      <use xlink:href="#DejaVuSans-63" transform="translate(187.841797 0)"/>
      <use xlink:href="#DejaVuSans-68" transform="translate(242.822266 0)"/>
      <use xlink:href="#DejaVuSans-73" transform="translate(306.201172 0)"/>
     </g>
    </g>
   </g>
   <g id="matplotlib.axis_2">
    <g id="ytick_1">
     <g id="line2d_19">
      <path d="M 50.14375 565.834065 
L 608.14375 565.834065 
" clip-path="url(#p2631cf7c35)" style="fill: none; stroke: #b0b0b0; stroke-width: 0.8; stroke-linecap: square"/>
     </g>
     <g id="line2d_20">
      <defs>
       <path id="m4b5c663dd0" d="M 0 0 
L -3.5 0 
" style="stroke: #000000; stroke-width: 0.8"/>
      </defs>
      <g>
       <use xlink:href="#m4b5c663dd0" x="50.14375" y="565.834065" style="stroke: #000000; stroke-width: 0.8"/>
      </g>
     </g>
     <g id="text_11">
      <!-- 0.00 -->
      <g transform="translate(20.878125 569.633283) scale(0.1 -0.1)">
       <defs>
        <path id="DejaVuSans-2e" d="M 684 794 
L 1344 794 
L 1344 0 
L 684 0 
L 684 794 
z
" transform="scale(0.015625)"/>
       </defs>
       <use xlink:href="#DejaVuSans-30"/>
       <use xlink:href="#DejaVuSans-2e" transform="translate(63.623047 0)"/>
       <use xlink:href="#DejaVuSans-30" transform="translate(95.410156 0)"/>
       <use xlink:href="#DejaVuSans-30" transform="translate(159.033203 0)"/>
      </g>
     </g>
    </g>
    <g id="ytick_2">
     <g id="line2d_21">
      <path d="M 50.14375 492.536454 
L 608.14375 492.536454 
" clip-path="url(#p2631cf7c35)" style="fill: none; stroke: #b0b0b0; stroke-width: 0.8; stroke-linecap: square"/>
     </g>
     <g id="line2d_22">
      <g>
       <use xlink:href="#m4b5c663dd0" x="50.14375" y="492.536454" style="stroke: #000000; stroke-width: 0.8"/>
      </g>
     </g>
     <g id="text_12">
      <!-- 0.02 -->
      <g transform="translate(20.878125 496.335672) scale(0.1 -0.1)">
       <use xlink:href="#DejaVuSans-30"/>
       <use xlink:href="#DejaVuSans-2e" transform="translate(63.623047 0)"/>
       <use xlink:href="#DejaVuSans-30" transform="translate(95.410156 0)"/>
       <use xlink:href="#DejaVuSans-32" transform="translate(159.033203 0)"/>
      </g>
     </g>
    </g>
    <g id="ytick_3">
     <g id="line2d_23">
      <path d="M 50.14375 419.238842 
L 608.14375 419.238842 
" clip-path="url(#p2631cf7c35)" style="fill: none; stroke: #b0b0b0; stroke-width: 0.8; stroke-linecap: square"/>
     </g>
     <g id="line2d_24">
      <g>
       <use xlink:href="#m4b5c663dd0" x="50.14375" y="419.238842" style="stroke: #000000; stroke-width: 0.8"/>
      </g>
     </g>
     <g id="text_13">
      <!-- 0.04 -->
      <g transform="translate(20.878125 423.038061) scale(0.1 -0.1)">
       <use xlink:href="#DejaVuSans-30"/>
       <use xlink:href="#DejaVuSans-2e" transform="translate(63.623047 0)"/>
       <use xlink:href="#DejaVuSans-30" transform="translate(95.410156 0)"/>
       <use xlink:href="#DejaVuSans-34" transform="translate(159.033203 0)"/>
      </g>
     </g>
    </g>
    <g id="ytick_4">
     <g id="line2d_25">
      <path d="M 50.14375 345.941231 
L 608.14375 345.941231 
" clip-path="url(#p2631cf7c35)" style="fill: none; stroke: #b0b0b0; stroke-width: 0.8; stroke-linecap: square"/>
     </g>
     <g id="line2d_26">
      <g>
       <use xlink:href="#m4b5c663dd0" x="50.14375" y="345.941231" style="stroke: #000000; stroke-width: 0.8"/>
      </g>
     </g>
     <g id="text_14">
      <!-- 0.06 -->
      <g transform="translate(20.878125 349.74045) scale(0.1 -0.1)">
       <use xlink:href="#DejaVuSans-30"/>
       <use xlink:href="#DejaVuSans-2e" transform="translate(63.623047 0)"/>
       <use xlink:href="#DejaVuSans-30" transform="translate(95.410156 0)"/>
       <use xlink:href="#DejaVuSans-36" transform="translate(159.033203 0)"/>
      </g>
     </g>
    </g>
    <g id="ytick_5">
     <g id="line2d_27">
      <path d="M 50.14375 272.64362 
L 608.14375 272.64362 
" clip-path="url(#p2631cf7c35)" style="fill: none; stroke: #b0b0b0; stroke-width: 0.8; stroke-linecap: square"/>
     </g>
     <g id="line2d_28">
      <g>
       <use xlink:href="#m4b5c663dd0" x="50.14375" y="272.64362" style="stroke: #000000; stroke-width: 0.8"/>
      </g>
     </g>
     <g id="text_15">
      <!-- 0.08 -->
      <g transform="translate(20.878125 276.442839) scale(0.1 -0.1)">
       <use xlink:href="#DejaVuSans-30"/>
       <use xlink:href="#DejaVuSans-2e" transform="translate(63.623047 0)"/>
       <use xlink:href="#DejaVuSans-30" transform="translate(95.410156 0)"/>
       <use xlink:href="#DejaVuSans-38" transform="translate(159.033203 0)"/>
      </g>
     </g>
    </g>
    <g id="ytick_6">
     <g id="line2d_29">
      <path d="M 50.14375 199.346009 
L 608.14375 199.346009 
" clip-path="url(#p2631cf7c35)" style="fill: none; stroke: #b0b0b0; stroke-width: 0.8; stroke-linecap: square"/>
     </g>
     <g id="line2d_30">
      <g>
       <use xlink:href="#m4b5c663dd0" x="50.14375" y="199.346009" style="stroke: #000000; stroke-width: 0.8"/>
      </g>
     </g>
     <g id="text_16">
      <!-- 0.10 -->
      <g transform="translate(20.878125 203.145228) scale(0.1 -0.1)">
       <use xlink:href="#DejaVuSans-30"/>
       <use xlink:href="#DejaVuSans-2e" transform="translate(63.623047 0)"/>
       <use xlink:href="#DejaVuSans-31" transform="translate(95.410156 0)"/>
       <use xlink:href="#DejaVuSans-30" transform="translate(159.033203 0)"/>
      </g>
     </g>
    </g>
    <g id="ytick_7">
     <g id="line2d_31">
      <path d="M 50.14375 126.048398 
L 608.14375 126.048398 
" clip-path="url(#p2631cf7c35)" style="fill: none; stroke: #b0b0b0; stroke-width: 0.8; stroke-linecap: square"/>
     </g>
     <g id="line2d_32">
      <g>
       <use xlink:href="#m4b5c663dd0" x="50.14375" y="126.048398" style="stroke: #000000; stroke-width: 0.8"/>
      </g>
     </g>
     <g id="text_17">
      <!-- 0.12 -->
      <g transform="translate(20.878125 129.847617) scale(0.1 -0.1)">
       <use xlink:href="#DejaVuSans-30"/>
       <use xlink:href="#DejaVuSans-2e" transform="translate(63.623047 0)"/>
       <use xlink:href="#DejaVuSans-31" transform="translate(95.410156 0)"/>
       <use xlink:href="#DejaVuSans-32" transform="translate(159.033203 0)"/>
      </g>
     </g>
    </g>
    <g id="ytick_8">
     <g id="line2d_33">
      <path d="M 50.14375 52.750787 
L 608.14375 52.750787 
" clip-path="url(#p2631cf7c35)" style="fill: none; stroke: #b0b0b0; stroke-width: 0.8; stroke-linecap: square"/>
     </g>
     <g id="line2d_34">
      <g>
       <use xlink:href="#m4b5c663dd0" x="50.14375" y="52.750787" style="stroke: #000000; stroke-width: 0.8"/>
      </g>
     </g>
     <g id="text_18">
      <!-- 0.14 -->
      <g transform="translate(20.878125 56.550006) scale(0.1 -0.1)">
       <use xlink:href="#DejaVuSans-30"/>
       <use xlink:href="#DejaVuSans-2e" transform="translate(63.623047 0)"/>
       <use xlink:href="#DejaVuSans-31" transform="translate(95.410156 0)"/>
       <use xlink:href="#DejaVuSans-34" transform="translate(159.033203 0)"/>
      </g>
     </g>
    </g>
    <g id="text_19">
     <!-- Accuracy -->
     <g transform="translate(14.798437 322.34625) rotate(-90) scale(0.1 -0.1)">
      <defs>
       <path id="DejaVuSans-41" d="M 2188 4044 
L 1331 1722 
L 3047 1722 
L 2188 4044 
z
M 1831 4666 
L 2547 4666 
L 4325 0 
L 3669 0 
L 3244 1197 
L 1141 1197 
L 716 0 
L 50 0 
L 1831 4666 
z
" transform="scale(0.015625)"/>
       <path id="DejaVuSans-75" d="M 544 1381 
L 544 3500 
L 1119 3500 
L 1119 1403 
Q 1119 906 1312 657 
Q 1506 409 1894 409 
Q 2359 409 2629 706 
Q 2900 1003 2900 1516 
L 2900 3500 
L 3475 3500 
L 3475 0 
L 2900 0 
L 2900 538 
Q 2691 219 2414 64 
Q 2138 -91 1772 -91 
Q 1169 -91 856 284 
Q 544 659 544 1381 
z
M 1991 3584 
L 1991 3584 
z
" transform="scale(0.015625)"/>
       <path id="DejaVuSans-72" d="M 2631 2963 
Q 2534 3019 2420 3045 
Q 2306 3072 2169 3072 
Q 1681 3072 1420 2755 
Q 1159 2438 1159 1844 
L 1159 0 
L 581 0 
L 581 3500 
L 1159 3500 
L 1159 2956 
Q 1341 3275 1631 3429 
Q 1922 3584 2338 3584 
Q 2397 3584 2469 3576 
Q 2541 3569 2628 3553 
L 2631 2963 
z
" transform="scale(0.015625)"/>
       <path id="DejaVuSans-61" d="M 2194 1759 
Q 1497 1759 1228 1600 
Q 959 1441 959 1056 
Q 959 750 1161 570 
Q 1363 391 1709 391 
Q 2188 391 2477 730 
Q 2766 1069 2766 1631 
L 2766 1759 
L 2194 1759 
z
M 3341 1997 
L 3341 0 
L 2766 0 
L 2766 531 
Q 2569 213 2275 61 
Q 1981 -91 1556 -91 
Q 1019 -91 701 211 
Q 384 513 384 1019 
Q 384 1609 779 1909 
Q 1175 2209 1959 2209 
L 2766 2209 
L 2766 2266 
Q 2766 2663 2505 2880 
Q 2244 3097 1772 3097 
Q 1472 3097 1187 3025 
Q 903 2953 641 2809 
L 641 3341 
Q 956 3463 1253 3523 
Q 1550 3584 1831 3584 
Q 2591 3584 2966 3190 
Q 3341 2797 3341 1997 
z
" transform="scale(0.015625)"/>
       <path id="DejaVuSans-79" d="M 2059 -325 
Q 1816 -950 1584 -1140 
Q 1353 -1331 966 -1331 
L 506 -1331 
L 506 -850 
L 844 -850 
Q 1081 -850 1212 -737 
Q 1344 -625 1503 -206 
L 1606 56 
L 191 3500 
L 800 3500 
L 1894 763 
L 2988 3500 
L 3597 3500 
L 2059 -325 
z
" transform="scale(0.015625)"/>
      </defs>
      <use xlink:href="#DejaVuSans-41"/>
      <use xlink:href="#DejaVuSans-63" transform="translate(66.658203 0)"/>
      <use xlink:href="#DejaVuSans-63" transform="translate(121.638672 0)"/>
      <use xlink:href="#DejaVuSans-75" transform="translate(176.619141 0)"/>
      <use xlink:href="#DejaVuSans-72" transform="translate(239.998047 0)"/>
      <use xlink:href="#DejaVuSans-61" transform="translate(281.111328 0)"/>
      <use xlink:href="#DejaVuSans-63" transform="translate(342.390625 0)"/>
      <use xlink:href="#DejaVuSans-79" transform="translate(397.371094 0)"/>
     </g>
    </g>
   </g>
   <g id="line2d_35">
    <path d="M 75.507386 47.518125 
L 76.142271 125.905873 
L 76.777155 139.017996 
L 77.41204 122.078108 
L 78.046924 124.378841 
L 78.681809 127.57544 
L 79.316693 126.455615 
L 79.951578 131.647535 
L 82.491116 203.010892 
L 83.126001 206.777575 
L 83.760885 214.636695 
L 84.39577 209.444802 
L 85.030654 207.123699 
L 86.300423 214.107323 
L 86.935308 210.951464 
L 87.570192 211.338301 
L 88.205077 205.800284 
L 88.839961 214.494187 
L 89.474846 204.619376 
L 90.10973 207.87703 
L 90.744615 209.566967 
L 91.379499 206.227833 
L 92.014384 208.386059 
L 92.649268 207.082986 
L 93.284153 208.324977 
L 93.919037 204.415759 
L 94.553922 205.922421 
L 95.188806 205.270912 
L 95.823691 198.124384 
L 96.458575 202.440808 
L 97.09346 203.601346 
L 97.728344 202.664767 
L 98.363229 197.757889 
L 98.998113 197.432135 
L 99.632998 196.251227 
L 100.267882 198.205836 
L 100.902767 198.063301 
L 101.537651 195.721856 
L 102.172536 196.739859 
L 102.80742 191.486884 
L 103.442305 193.298958 
L 104.07719 189.67481 
L 104.712074 190.122729 
L 105.346959 188.941821 
L 105.981843 188.310655 
L 106.616728 185.70451 
L 107.251612 182.548651 
L 107.886497 183.566654 
L 108.521381 183.098365 
L 109.156266 175.809328 
L 109.79115 181.204838 
L 110.426035 176.705194 
L 111.060919 174.424831 
L 111.695804 175.463204 
L 112.330688 172.877429 
L 112.965573 171.716891 
L 113.600457 172.877429 
L 114.235342 170.637778 
L 114.870226 171.696521 
L 115.505111 167.23759 
L 116.139995 170.821025 
L 116.77488 165.425516 
L 117.409764 164.448198 
L 118.044649 163.104413 
L 119.314418 162.534329 
L 119.949302 160.966557 
L 120.584187 161.109091 
L 121.219071 160.539007 
L 121.853956 157.790328 
L 122.48884 154.064385 
L 123.123725 152.67986 
L 123.758609 153.066724 
L 124.393494 154.125467 
L 125.028379 149.809043 
L 125.663263 148.587423 
L 126.298148 148.037681 
L 126.933032 148.159846 
L 127.567917 148.017311 
L 128.202801 146.02199 
L 128.837686 145.675866 
L 129.47257 144.657835 
L 130.107455 142.581089 
L 130.742339 142.560719 
L 131.377224 141.400181 
L 132.012108 142.1128 
L 132.646993 137.572416 
L 133.916762 138.285035 
L 134.551646 136.187891 
L 135.186531 136.67655 
L 135.821415 135.984302 
L 136.4563 136.310056 
L 137.091184 133.133827 
L 137.726069 134.090775 
L 138.995838 132.075084 
L 139.630722 130.873834 
L 140.265607 132.054742 
L 140.900491 131.158876 
L 141.535376 131.790042 
L 142.17026 129.998338 
L 142.805145 127.514358 
L 143.440029 126.353793 
L 144.074914 126.781369 
L 144.709798 125.905873 
L 145.344683 125.641201 
L 145.979567 124.84713 
L 146.614452 125.376502 
L 147.249337 123.136851 
L 147.884221 122.546397 
L 148.519106 123.442263 
L 149.15399 121.446942 
L 149.788875 121.874518 
L 150.423759 121.019365 
L 151.058644 119.89954 
L 151.693528 121.060078 
L 152.328413 120.551076 
L 152.963297 118.800084 
L 153.598182 116.580803 
L 154.233066 118.168918 
L 154.867951 117.150887 
L 156.13772 118.311425 
L 156.772604 114.137536 
L 157.407489 116.662228 
L 158.677258 113.648877 
L 159.312142 115.684938 
L 159.947027 112.915915 
L 160.581911 114.829784 
L 161.216796 114.46329 
L 161.85168 111.816433 
L 162.486565 113.099163 
L 163.121449 113.730329 
L 163.756334 112.508709 
L 164.391218 113.26204 
L 165.026103 114.198618 
L 166.295872 112.182927 
L 166.930756 112.630873 
L 167.565641 112.691956 
L 168.200526 112.04042 
L 168.83541 111.022389 
L 169.470295 109.617522 
L 170.105179 113.180588 
L 170.740064 109.882194 
L 171.374948 110.370853 
L 172.009833 110.146893 
L 172.644717 109.31211 
L 173.279602 112.773381 
L 173.914486 111.918255 
L 174.549371 112.366174 
L 175.184255 108.395902 
L 175.81914 109.719317 
L 176.454024 111.327801 
L 177.723793 109.861851 
L 178.358678 108.884533 
L 178.993562 111.042759 
L 179.628447 109.658234 
L 180.263331 109.33248 
L 180.898216 109.678604 
L 181.5331 107.276076 
L 182.802869 112.162584 
L 183.437754 108.334819 
L 184.072638 107.459296 
L 184.707523 109.882194 
L 185.342407 106.970637 
L 185.977292 107.479666 
L 186.612176 109.108493 
L 187.247061 109.780399 
L 187.881945 108.640204 
L 188.51683 108.721656 
L 189.151715 105.789729 
L 189.786599 107.174281 
L 190.421484 108.864191 
L 191.056368 106.034059 
L 191.691253 107.194597 
L 192.326137 107.764708 
L 192.961022 106.054429 
L 193.595906 106.787417 
L 194.230791 107.194597 
L 194.865675 106.217333 
L 195.50056 106.726307 
L 196.135444 105.687934 
L 196.770329 107.316761 
L 197.405213 106.991007 
L 198.040098 106.054429 
L 198.674982 107.64257 
L 199.309867 108.436614 
L 199.944751 106.929952 
L 200.579636 107.153911 
L 201.21452 109.760029 
L 202.484289 108.721656 
L 203.119174 110.045098 
L 203.754058 107.133542 
L 204.388943 107.723995 
L 205.023827 110.024728 
L 205.658712 107.601831 
L 206.293596 107.744365 
L 206.928481 108.436614 
L 207.563365 108.314449 
L 208.19825 109.413905 
L 209.468019 108.029407 
L 210.102903 109.006698 
L 210.737788 107.86653 
L 211.372673 108.558779 
L 212.007557 111.246349 
L 212.642442 107.66294 
L 213.277326 110.228318 
L 213.912211 108.558779 
L 214.547095 109.861851 
L 215.18198 109.047438 
L 215.816864 110.33014 
L 216.451749 107.947955 
L 217.086633 111.205636 
L 218.356402 108.660574 
L 218.991287 109.169575 
L 219.626171 111.124184 
L 220.261056 110.961307 
L 220.89594 111.002019 
L 221.530825 109.536069 
L 222.165709 110.472648 
L 222.800594 109.739686 
L 223.435478 112.590134 
L 224.070363 110.004359 
L 224.705247 111.673925 
L 225.340132 110.75769 
L 225.975016 109.556439 
L 226.609901 112.264379 
L 227.244785 111.042759 
L 227.87967 112.325462 
L 228.514554 111.124184 
L 229.149439 114.768702 
L 229.784323 112.773381 
L 230.419208 112.875176 
L 231.054092 115.013032 
L 231.688977 111.918255 
L 232.323862 112.875176 
L 232.958746 112.915915 
L 233.593631 113.791411 
L 234.228515 113.648877 
L 234.8634 112.936258 
L 235.498284 115.338813 
L 236.133169 115.420238 
L 236.768053 113.771041 
L 238.672707 116.153227 
L 239.307591 115.420238 
L 239.942476 115.908897 
L 240.57736 116.153227 
L 241.212245 117.008353 
L 241.847129 117.619177 
L 242.482014 116.865845 
L 243.116898 117.924588 
L 243.751783 118.087466 
L 244.386667 118.372508 
L 245.021552 117.822766 
L 245.656436 118.45396 
L 246.291321 120.042074 
L 246.926205 119.431251 
L 247.56109 120.978653 
L 248.195974 119.329456 
L 248.830859 119.757032 
L 249.465743 121.854149 
L 250.100628 122.302068 
L 250.735512 121.12116 
L 251.370397 122.709274 
L 252.005281 122.118821 
L 252.640166 124.114169 
L 253.27505 124.704596 
L 253.909935 122.322438 
L 254.54482 123.727305 
L 255.179704 126.048408 
L 255.814589 126.374162 
L 256.449473 124.765678 
L 257.084358 125.987326 
L 257.719242 124.419554 
L 258.354127 127.860482 
L 259.623896 127.046069 
L 260.25878 127.331111 
L 260.893665 126.129833 
L 261.528549 127.81977 
L 262.163434 128.593443 
L 262.798318 130.670217 
L 263.433203 129.24498 
L 264.068087 129.346802 
L 264.702972 131.667877 
L 265.337856 131.74933 
L 265.972741 130.751669 
L 266.607625 131.790042 
L 267.24251 131.179218 
L 267.877394 132.502661 
L 268.512279 133.133827 
L 269.147163 132.930237 
L 269.782048 131.342123 
L 270.416932 132.115824 
L 271.051817 133.724281 
L 271.686701 134.966271 
L 272.321586 134.844106 
L 272.95647 134.864476 
L 273.591355 138.36646 
L 274.226239 136.717263 
L 274.861124 137.205922 
L 275.496009 137.104127 
L 276.130893 137.714923 
L 276.765778 137.91854 
L 277.400662 138.855119 
L 278.035547 138.081418 
L 278.670431 142.133143 
L 279.305316 140.097109 
L 279.9402 137.389169 
L 280.575085 140.891152 
L 281.209969 139.954574 
L 282.479738 142.296047 
L 283.114623 142.234965 
L 283.749507 142.642171 
L 284.384392 141.86847 
L 285.019276 143.599092 
L 285.654161 143.945244 
L 286.289045 142.906844 
L 286.92393 144.454246 
L 287.558814 144.169204 
L 288.193699 144.535698 
L 288.828583 146.144155 
L 289.463468 146.856774 
L 290.098352 145.879483 
L 290.733237 146.714239 
L 291.368121 146.490279 
L 292.003006 147.26398 
L 292.63789 148.933547 
L 293.272775 149.137137 
L 293.907659 150.094085 
L 294.542544 148.872465 
L 295.177428 148.343093 
L 295.812313 151.295362 
L 296.447197 149.788673 
L 297.082082 151.152828 
L 297.716967 151.498952 
L 298.351851 151.45824 
L 298.986736 151.051033 
L 300.256505 153.820055 
L 300.891389 153.412848 
L 301.526274 152.537353 
L 302.161158 154.756633 
L 302.796043 153.860768 
L 303.430927 153.494273 
L 304.065812 156.996284 
L 304.700696 155.937541 
L 305.335581 156.996284 
L 305.970465 155.754294 
L 306.60535 155.978254 
L 307.240234 157.383121 
L 307.875119 157.403491 
L 308.510003 158.055027 
L 309.144888 155.937541 
L 309.779772 158.156822 
L 310.414657 159.582059 
L 311.049541 157.85141 
L 311.684426 159.378442 
L 313.589079 160.070718 
L 314.223964 163.409825 
L 314.858848 162.04567 
L 316.128617 161.80134 
L 316.763502 163.26729 
L 317.398386 163.002618 
L 318.668156 165.7309 
L 319.30304 164.52965 
L 319.937925 165.914147 
L 320.572809 165.344063 
L 321.207694 163.0637 
L 321.842578 165.588393 
L 322.477463 166.117764 
L 323.112347 166.810013 
L 323.747232 167.115425 
L 324.382116 166.911808 
L 325.017001 166.443519 
L 325.651885 167.441179 
L 326.28677 167.563344 
L 327.556539 168.072373 
L 328.826308 169.90479 
L 329.461192 169.579035 
L 330.096077 171.676151 
L 330.730961 168.398128 
L 331.365846 170.983903 
L 332.00073 170.454531 
L 332.635615 171.676151 
L 333.270499 170.92282 
L 333.905384 173.61039 
L 334.540268 172.266605 
L 335.175153 173.528965 
L 335.810037 172.999594 
L 336.444922 173.528965 
L 337.079806 172.795977 
L 337.714691 174.85238 
L 338.349575 171.228232 
L 338.98446 175.748246 
L 339.619344 175.463204 
L 340.254229 174.526626 
L 340.889114 174.709873 
L 341.523998 175.768616 
L 342.158883 175.035627 
L 342.793767 176.012946 
L 343.428652 174.404461 
L 344.063536 174.770955 
L 344.698421 177.56032 
L 345.333305 176.806989 
L 345.96819 174.832038 
L 346.603074 177.478895 
L 347.237959 175.503917 
L 347.872843 178.293309 
L 348.507728 174.954203 
L 349.142612 178.334021 
L 349.777497 178.84305 
L 350.412381 177.947184 
L 351.047266 179.840711 
L 351.68215 178.395104 
L 352.317035 178.171144 
L 352.951919 179.005927 
L 353.586804 178.619063 
L 354.221688 180.247917 
L 354.856573 180.451507 
L 355.491457 182.263581 
L 356.126342 181.327003 
L 356.761226 182.548651 
L 357.396111 181.265921 
L 358.030995 183.709188 
L 358.66588 181.978539 
L 359.935649 180.797632 
L 360.570533 181.998909 
L 361.205418 183.709188 
L 361.840303 181.815662 
L 362.475187 184.096025 
L 363.110072 183.322324 
L 363.744956 183.159447 
L 364.379841 185.541632 
L 365.014725 186.132086 
L 366.284494 185.012261 
L 366.919379 184.157108 
L 367.554263 185.806305 
L 368.189148 184.666137 
L 368.824032 189.491562 
L 369.458917 188.107038 
L 370.093801 187.170459 
L 370.728686 187.089007 
L 371.36357 184.890096 
L 372.633339 188.045955 
L 373.268224 188.534614 
L 373.903108 186.539293 
L 374.537993 189.328658 
L 375.172877 189.572987 
L 375.807762 188.656779 
L 376.442646 187.190829 
L 377.077531 187.883078 
L 377.712415 186.233881 
L 378.3473 189.328658 
L 378.982184 189.919112 
L 379.617069 191.120389 
L 380.251953 190.87606 
L 380.886838 191.792296 
L 381.521722 189.695152 
L 382.156607 191.853378 
L 382.791491 190.285606 
L 383.426376 190.082016 
L 384.061261 191.222184 
L 384.696145 193.991206 
L 385.33103 192.545627 
L 385.965914 193.013916 
L 386.600799 191.955173 
L 387.235683 192.688134 
L 387.870568 191.731213 
L 388.505452 192.158762 
L 389.140337 193.258245 
L 389.775221 192.749216 
L 390.410106 192.688134 
L 391.04499 193.869042 
L 391.679875 193.441492 
L 392.949644 195.497896 
L 393.584528 194.011576 
L 394.219413 194.887072 
L 394.854297 194.703825 
L 395.489182 194.988867 
L 396.124066 196.08835 
L 396.758951 196.169775 
L 397.393835 195.986528 
L 398.02872 195.314649 
L 398.663604 196.719516 
L 399.298489 195.864363 
L 399.933373 195.721856 
L 401.203142 197.778259 
L 401.838027 198.389056 
L 402.472911 197.53393 
L 403.107796 199.732868 
L 403.74268 199.081332 
L 404.377565 197.818972 
L 405.01245 195.620061 
L 405.647334 197.065641 
L 406.282219 198.002219 
L 406.917103 200.384404 
L 407.551988 198.572303 
L 408.186872 199.223839 
L 408.821757 199.508881 
L 409.456641 198.97951 
L 410.091526 200.669446 
L 410.72641 201.198818 
L 411.361295 200.282582 
L 411.996179 200.160417 
L 412.631064 199.692128 
L 413.265948 201.585655 
L 413.900833 201.626367 
L 414.535717 198.857372 
L 415.170602 202.338986 
L 415.805486 200.465829 
L 416.440371 201.667107 
L 417.075255 200.771241 
L 417.71014 201.137735 
L 418.345024 202.257561 
L 418.979909 201.48386 
L 419.614793 203.173769 
L 420.249678 203.092344 
L 420.884562 203.173769 
L 421.519447 203.010892 
L 422.154331 203.866018 
L 422.789216 202.786932 
L 423.4241 204.476841 
L 424.058985 203.866018 
L 424.693869 202.868357 
L 425.328754 204.884048 
L 425.963638 204.354677 
L 426.598523 203.133057 
L 427.233408 203.662428 
L 427.868292 201.646737 
L 428.503177 204.578636 
L 429.138061 204.273224 
L 429.772946 204.273224 
L 430.40783 205.026583 
L 431.042715 206.43145 
L 431.677599 204.578636 
L 432.312484 205.41342 
L 432.947368 205.698462 
L 433.582253 205.840996 
L 434.217137 204.537924 
L 434.852022 205.515215 
L 435.486906 206.940452 
L 436.121791 207.123699 
L 436.756675 206.064956 
L 437.39156 205.942791 
L 438.026444 207.958482 
L 438.661329 207.429111 
L 439.931098 205.596667 
L 440.565982 207.91777 
L 441.200867 206.777575 
L 441.835751 206.003874 
L 442.470636 210.055598 
L 443.10552 208.813608 
L 443.740405 206.166751 
L 444.375289 208.793266 
L 445.010174 207.836318 
L 445.645058 208.304607 
L 446.279943 207.815948 
L 446.914827 207.958482 
L 447.549712 209.34298 
L 448.184597 209.09865 
L 448.819481 209.790926 
L 449.454366 208.996855 
L 450.08925 209.607679 
L 450.724135 208.365689 
L 452.628788 211.379041 
L 453.263673 207.999195 
L 453.898557 210.870012 
L 455.168326 210.890382 
L 455.803211 212.600661 
L 456.438095 211.908412 
L 457.07298 209.811269 
L 457.707864 210.768217 
L 458.342749 211.073629 
L 458.977633 210.279558 
L 459.612518 213.29291 
L 460.247402 210.218476 
L 460.882287 212.722826 
L 461.517171 212.458126 
L 462.152056 211.440123 
L 462.78694 210.910752 
L 463.421825 212.926416 
L 464.056709 212.274907 
L 464.691594 212.07129 
L 465.326478 214.392393 
L 465.961363 214.677435 
L 466.596247 212.559949 
L 467.231132 212.926416 
L 467.866016 214.5349 
L 468.500901 214.5349 
L 469.135785 212.743196 
L 469.77067 215.837972 
L 470.405555 214.148063 
L 471.040439 214.188776 
L 471.675324 215.308601 
L 472.310208 212.783908 
L 472.945093 213.028238 
L 474.214862 215.288231 
L 474.849746 214.51453 
L 475.484631 216.041589 
L 476.119515 214.677435 
L 476.7544 215.227149 
L 477.389284 216.367344 
L 478.024169 214.473818 
L 478.659053 216.448796 
L 479.293938 215.939767 
L 479.928822 214.249858 
L 480.563707 215.593643 
L 481.198591 216.672756 
L 481.833476 216.957798 
L 482.46836 214.412735 
L 483.103245 215.695438 
L 483.738129 216.530221 
L 484.373014 216.285892 
L 485.007898 218.179418 
L 485.642783 216.285892 
L 486.277667 215.736178 
L 486.912552 216.570961 
L 487.547436 217.935088 
L 488.182321 216.509879 
L 488.817205 217.507539 
L 489.45209 216.733838 
L 490.086974 218.281213 
L 490.721859 216.306262 
L 491.356744 218.22013 
L 491.991628 219.197448 
L 492.626513 217.955458 
L 493.261397 217.405717 
L 493.896282 217.894376 
L 494.531166 216.123014 
L 495.166051 219.014201 
L 495.800935 217.446457 
L 496.43582 219.115996 
L 497.070704 219.645368 
L 497.705589 219.278901 
L 498.975358 219.686107 
L 499.610242 220.907728 
L 500.245127 218.199788 
L 500.880011 218.444117 
L 501.514896 218.830954 
L 502.14978 221.274222 
L 502.784665 220.154397 
L 503.419549 221.253852 
L 504.054434 218.769872 
L 504.689318 220.541233 
L 505.324203 218.036911 
L 505.959087 220.581946 
L 506.593972 220.011862 
L 507.228856 219.828615 
L 507.863741 221.661059 
L 508.498625 220.989153 
L 509.13351 220.500521 
L 509.768394 221.864676 
L 510.403279 220.419069 
L 511.038163 221.925758 
L 511.673048 222.658719 
L 512.307933 220.235822 
L 512.942817 223.45279 
L 513.577702 221.559264 
L 514.212586 221.274222 
L 514.847471 222.618007 
L 515.482355 221.029892 
L 516.11724 220.74485 
L 516.752124 222.699432 
L 517.387009 221.518524 
L 518.021893 221.579607 
L 518.656778 224.206121 
L 519.291662 221.090975 
L 519.926547 222.007183 
L 520.561431 219.848985 
L 521.196316 221.518524 
L 521.8312 222.780884 
L 522.466085 222.699432 
L 523.100969 223.086296 
L 523.735854 222.251513 
L 524.370738 223.697093 
L 525.005623 223.67675 
L 525.640507 223.412051 
L 526.275392 222.516212 
L 526.910276 224.979822 
L 527.545161 221.274222 
L 528.81493 224.409711 
L 529.449814 224.430081 
L 530.084699 225.203782 
L 530.719583 225.12233 
L 531.354468 226.38469 
L 531.989352 225.916401 
L 532.624237 224.979822 
L 533.894006 226.16073 
L 534.528891 225.183412 
L 535.163775 224.776205 
L 535.79866 226.954774 
L 536.433544 226.34395 
L 537.068429 226.36432 
L 537.703313 226.954774 
L 538.338198 224.979822 
L 538.973082 225.264864 
L 539.607967 227.708105 
L 540.242851 225.529537 
L 540.877736 226.506855 
L 541.51262 226.567937 
L 542.147505 226.221813 
L 542.782389 227.545228 
L 543.417274 225.896031 
L 544.052158 227.871009 
L 544.687043 226.934404 
L 545.321927 228.196764 
L 545.956812 228.909383 
L 546.591696 228.400381 
L 547.226581 228.054229 
L 547.861465 228.033887 
L 548.49635 228.624341 
L 549.131234 228.359641 
L 549.766119 227.871009 
L 550.401003 229.194425 
L 551.035888 226.221813 
L 551.670772 227.708105 
L 552.305657 228.359641 
L 552.940541 229.601631 
L 553.575426 230.171715 
L 554.21031 231.210116 
L 554.845195 229.235137 
L 555.48008 230.619662 
L 556.114964 230.680744 
L 556.749849 230.375332 
L 557.384733 231.026868 
L 558.019618 229.907043 
L 558.654502 229.112972 
L 559.289387 230.741827 
L 559.924271 228.542888 
L 560.559156 230.945416 
L 561.19404 230.31425 
L 561.828925 229.866331 
L 562.463809 231.250828 
L 563.098694 231.474788 
L 563.733578 232.411366 
L 564.368463 229.622001 
L 565.003347 233.062902 
L 565.638232 231.861652 
L 566.273116 231.047238 
L 566.908001 231.637692 
L 567.542885 230.802909 
L 568.17777 233.694096 
L 568.812654 232.065242 
L 569.447539 234.142015 
L 570.082423 233.571931 
L 571.352192 231.963447 
L 571.987077 232.900025 
L 572.621961 230.945416 
L 573.256846 234.24381 
L 573.89173 233.775521 
L 574.526615 233.531191 
L 575.161499 233.856973 
L 575.796384 232.228119 
L 576.431268 232.75749 
L 577.066153 234.875004 
L 577.701038 233.307232 
L 578.335922 233.979138 
L 578.970807 236.178049 
L 580.240576 235.098963 
L 580.87546 233.775521 
L 582.145229 234.04022 
L 582.780114 234.773181 
L 582.780114 234.773181 
" clip-path="url(#p2631cf7c35)" style="fill: none; stroke: #1f77b4; stroke-width: 1.5; stroke-linecap: square"/>
   </g>
   <g id="line2d_36">
    <path d="M 75.507386 64.478383 
L 76.142271 149.137137 
L 76.777155 109.739686 
L 77.41204 175.524287 
L 78.046924 132.461948 
L 78.681809 63.378955 
L 79.316693 94.347201 
L 79.951578 186.70217 
L 80.586462 197.696807 
L 81.856232 278.690673 
L 82.491116 222.618007 
L 83.126001 295.182642 
L 83.760885 238.19374 
L 84.39577 252.670017 
L 85.030654 297.381552 
L 85.665539 237.277532 
L 86.300423 274.659318 
L 86.935308 264.397643 
L 87.570192 272.643627 
L 88.205077 328.716293 
L 88.839961 196.597351 
L 89.474846 273.193341 
L 90.10973 282.538808 
L 90.744615 304.528081 
L 91.379499 271.177677 
L 92.014384 268.24575 
L 92.649268 277.041476 
L 93.284153 240.026184 
L 93.919037 338.611474 
L 94.553922 303.062132 
L 95.188806 246.439724 
L 95.823691 351.621802 
L 96.458575 277.041476 
L 97.09346 266.596581 
L 98.363229 278.507426 
L 98.998113 274.659318 
L 99.632998 291.151259 
L 100.267882 279.240414 
L 100.902767 271.544144 
L 101.537651 302.329143 
L 102.172536 268.24575 
L 102.80742 291.517754 
L 103.442305 306.910267 
L 104.07719 257.984102 
L 104.712074 288.769101 
L 105.981843 271.360924 
L 106.616728 237.094284 
L 107.251612 308.009722 
L 107.886497 279.057167 
L 108.521381 261.465743 
L 109.156266 300.130232 
L 109.79115 250.654326 
L 110.426035 287.669618 
L 111.060919 291.334506 
L 111.695804 288.585854 
L 112.330688 308.192969 
L 112.965573 285.104213 
L 113.600457 292.800456 
L 114.235342 310.941622 
L 114.870226 280.706364 
L 115.505111 303.245379 
L 116.139995 247.905674 
L 116.77488 284.554472 
L 117.409764 288.036113 
L 118.044649 288.769101 
L 118.679533 278.324179 
L 119.314418 279.423661 
L 119.949302 285.470708 
L 120.584187 277.774465 
L 121.219071 286.020422 
L 121.853956 271.727391 
L 122.48884 269.161986 
L 123.123725 289.318815 
L 123.758609 297.5648 
L 124.393494 292.433962 
L 125.028379 268.428998 
L 125.663263 305.26107 
L 126.298148 276.858229 
L 126.933032 267.512789 
L 127.567917 296.282097 
L 128.202801 284.371225 
L 128.837686 260.916002 
L 129.47257 258.350597 
L 130.742339 299.763738 
L 131.377224 291.151259 
L 132.012108 255.601917 
L 132.646993 239.842937 
L 133.281877 301.04644 
L 133.916762 277.591217 
L 134.551646 262.748446 
L 135.186531 261.83221 
L 135.821415 242.774836 
L 136.4563 255.968411 
L 137.091184 292.800456 
L 137.726069 283.638264 
L 138.360953 270.811183 
L 138.995838 272.093885 
L 139.630722 286.020422 
L 140.265607 274.842538 
L 140.900491 293.716692 
L 141.535376 271.727391 
L 142.17026 256.151658 
L 142.805145 258.350597 
L 144.074914 297.198333 
L 144.709798 269.711727 
L 145.344683 280.523117 
L 145.979567 284.188005 
L 146.614452 273.193341 
L 147.249337 281.072858 
L 147.884221 279.240414 
L 148.519106 280.706364 
L 149.15399 283.271769 
L 149.788875 274.842538 
L 150.423759 274.842538 
L 151.058644 288.402607 
L 151.693528 271.177677 
L 152.328413 280.706364 
L 152.963297 272.277133 
L 154.233066 280.33987 
L 154.867951 276.308488 
L 155.502835 262.015457 
L 156.13772 280.889611 
L 156.772604 284.737719 
L 157.407489 291.151259 
L 158.042373 295.549136 
L 159.312142 282.722055 
L 159.947027 275.942021 
L 160.581911 286.203669 
L 161.216796 278.690673 
L 161.85168 293.533445 
L 162.486565 282.722055 
L 163.121449 286.75341 
L 163.756334 286.570163 
L 164.391218 290.784792 
L 165.026103 287.119904 
L 165.660987 287.119904 
L 166.295872 277.224723 
L 166.930756 284.004758 
L 167.565641 278.507426 
L 168.200526 297.381552 
L 169.470295 302.878884 
L 170.105179 273.010121 
L 170.740064 293.899939 
L 171.374948 271.910638 
L 172.009833 271.177677 
L 172.644717 282.538808 
L 173.279602 297.748047 
L 173.914486 285.653955 
L 174.549371 284.371225 
L 175.184255 289.68531 
L 175.81914 268.978739 
L 176.454024 306.360525 
L 177.088909 284.554472 
L 177.723793 295.732356 
L 178.358678 296.465344 
L 178.993562 306.910267 
L 179.628447 299.397244 
L 180.898216 269.52848 
L 182.167985 317.355162 
L 182.802869 285.104213 
L 183.437754 303.062132 
L 184.072638 307.276734 
L 184.707523 309.292425 
L 185.342407 328.716293 
L 185.977292 294.816147 
L 186.612176 304.528081 
L 187.247061 295.365889 
L 187.881945 314.240015 
L 188.51683 311.85783 
L 189.151715 289.502062 
L 189.786599 309.109178 
L 190.421484 310.39188 
L 191.056368 303.062132 
L 191.691253 321.386544 
L 192.326137 287.486399 
L 192.961022 317.171915 
L 193.595906 307.826475 
L 194.230791 295.365889 
L 194.865675 306.910267 
L 195.50056 296.831838 
L 196.135444 299.397244 
L 196.770329 302.695637 
L 197.405213 304.894576 
L 198.040098 325.234652 
L 198.674982 310.575127 
L 199.309867 299.580491 
L 199.944751 298.114541 
L 200.579636 295.732356 
L 201.21452 296.09885 
L 201.849405 313.690274 
L 202.484289 308.009722 
L 203.119174 315.522718 
L 203.754058 316.255706 
L 204.388943 299.030749 
L 205.658712 316.622173 
L 206.293596 299.397244 
L 206.928481 314.60651 
L 207.563365 311.67461 
L 208.19825 318.821112 
L 208.833134 320.653556 
L 209.468019 303.428626 
L 210.102903 306.910267 
L 210.737788 320.287061 
L 211.372673 327.43359 
L 212.007557 323.768702 
L 212.642442 307.643228 
L 213.277326 297.931294 
L 213.912211 316.805421 
L 214.547095 339.161202 
L 215.18198 312.774066 
L 215.816864 313.507027 
L 216.451749 308.376216 
L 217.086633 321.569764 
L 217.721518 319.187606 
L 218.356402 313.323807 
L 218.991287 304.711328 
L 219.626171 310.025413 
L 220.261056 341.543373 
L 220.89594 303.428626 
L 221.530825 317.538409 
L 222.165709 321.753011 
L 222.800594 321.203297 
L 223.435478 309.109178 
L 224.070363 329.815748 
L 224.705247 309.475672 
L 225.340132 326.883849 
L 225.975016 321.02005 
L 226.609901 318.637865 
L 227.244785 319.004359 
L 227.87967 334.763339 
L 228.514554 319.004359 
L 229.149439 330.731984 
L 229.784323 326.150888 
L 230.419208 338.611474 
L 231.054092 317.171915 
L 231.688977 314.056768 
L 232.323862 316.988668 
L 232.958746 312.774066 
L 233.593631 323.035741 
L 234.228515 327.800085 
L 234.8634 328.716293 
L 235.498284 329.082787 
L 236.133169 327.43359 
L 236.768053 333.297389 
L 237.402938 331.281698 
L 238.037822 326.334107 
L 238.672707 328.533046 
L 239.307591 327.616837 
L 239.942476 332.747648 
L 240.57736 334.213625 
L 241.212245 311.67461 
L 241.847129 328.89954 
L 242.482014 312.957313 
L 243.116898 325.417899 
L 243.751783 342.459595 
L 244.386667 321.753011 
L 245.021552 328.533046 
L 245.656436 332.014687 
L 246.291321 325.601146 
L 246.926205 325.234652 
L 247.56109 323.218961 
L 248.195974 343.559065 
L 248.830859 340.077424 
L 249.465743 331.098478 
L 250.100628 352.354777 
L 250.735512 325.784393 
L 251.370397 333.480636 
L 252.005281 331.648192 
L 252.640166 343.742298 
L 253.27505 340.260671 
L 253.909935 349.972605 
L 254.54482 329.266034 
L 255.179704 340.993646 
L 255.814589 345.391495 
L 257.084358 321.203297 
L 257.719242 327.983304 
L 258.354127 332.564428 
L 258.989011 329.998995 
L 259.623896 335.496327 
L 260.25878 330.731984 
L 260.893665 338.611474 
L 261.528549 327.067096 
L 262.163434 345.391495 
L 262.798318 343.19257 
L 263.433203 336.77903 
L 264.068087 336.962277 
L 264.702972 346.12447 
L 265.337856 344.841767 
L 265.972741 330.915231 
L 266.607625 339.527696 
L 267.24251 339.161202 
L 267.877394 351.621802 
L 268.512279 330.915231 
L 269.147163 343.742298 
L 269.782048 329.998995 
L 270.416932 337.145524 
L 271.051817 328.166551 
L 271.686701 349.972605 
L 272.321586 350.522333 
L 272.95647 352.904504 
L 273.591355 352.721257 
L 274.226239 333.663883 
L 274.861124 347.590433 
L 275.496009 347.223939 
L 276.130893 351.07206 
L 277.400662 353.454232 
L 278.035547 358.035342 
L 278.670431 349.972605 
L 279.305316 351.621802 
L 279.9402 347.956914 
L 280.575085 366.098079 
L 281.209969 341.360126 
L 281.844854 350.522333 
L 282.479738 347.956914 
L 283.114623 359.134798 
L 283.749507 350.522333 
L 284.384392 349.606111 
L 285.019276 351.988282 
L 285.654161 361.700216 
L 286.289045 363.53266 
L 286.92393 355.103429 
L 287.558814 356.935873 
L 288.193699 355.836404 
L 288.828583 355.286676 
L 289.463468 353.820726 
L 290.098352 347.773667 
L 290.733237 355.836404 
L 291.368121 357.302367 
L 292.003006 347.956914 
L 292.63789 349.606111 
L 293.272775 358.58507 
L 293.907659 336.595783 
L 294.542544 362.982933 
L 295.177428 350.888827 
L 295.812313 358.401823 
L 296.447197 360.05102 
L 297.082082 350.70558 
L 297.716967 356.019651 
L 298.351851 359.867772 
L 298.986736 351.07206 
L 299.62162 356.569379 
L 300.256505 356.019651 
L 300.891389 355.836404 
L 301.526274 360.417514 
L 302.161158 354.736948 
L 302.796043 360.05102 
L 303.430927 357.485601 
L 304.065812 357.11912 
L 304.700696 356.019651 
L 305.970465 364.082388 
L 307.240234 355.286676 
L 307.875119 364.265635 
L 308.510003 355.286676 
L 309.144888 357.668848 
L 309.779772 356.569379 
L 310.414657 360.234267 
L 311.049541 358.401823 
L 311.684426 360.783994 
L 312.31931 367.564029 
L 312.954195 356.752626 
L 313.589079 358.218576 
L 314.223964 368.663484 
L 314.858848 359.134798 
L 315.493733 362.982933 
L 316.128617 363.715908 
L 316.763502 360.417514 
L 317.398386 369.579706 
L 318.033271 369.396473 
L 318.668156 354.736948 
L 319.30304 370.312681 
L 319.937925 364.265635 
L 320.572809 364.815363 
L 321.207694 367.93051 
L 321.842578 365.914832 
L 323.112347 353.270999 
L 323.747232 370.679176 
L 324.382116 368.113757 
L 325.017001 373.061347 
L 325.651885 360.417514 
L 326.28677 369.579706 
L 326.921654 365.548338 
L 327.556539 364.815363 
L 328.191423 363.166166 
L 328.826308 366.647807 
L 329.461192 363.53266 
L 330.096077 361.150489 
L 330.730961 373.611075 
L 332.635615 366.831054 
L 333.270499 375.993247 
L 333.905384 367.564029 
L 335.175153 375.443519 
L 335.810037 358.951564 
L 336.444922 364.082388 
L 337.079806 366.647807 
L 337.714691 368.663484 
L 338.349575 365.181857 
L 338.98446 374.34405 
L 339.619344 379.29164 
L 340.889114 375.810013 
L 341.523998 366.831054 
L 342.158883 366.647807 
L 342.793767 367.747276 
L 343.428652 365.731585 
L 344.063536 368.297004 
L 344.698421 375.993247 
L 345.333305 378.008938 
L 345.96819 384.605725 
L 346.603074 378.008938 
L 347.237959 380.024615 
L 347.872843 383.689503 
L 348.507728 381.307332 
L 349.142612 371.778645 
L 349.777497 368.480251 
L 350.412381 373.794322 
L 351.047266 376.176494 
L 351.68215 376.909469 
L 352.317035 369.396473 
L 352.951919 373.977569 
L 353.586804 364.632116 
L 354.221688 390.652771 
L 354.856573 373.244594 
L 355.491457 374.34405 
L 356.126342 369.762954 
L 357.396111 380.39111 
L 358.030995 368.846732 
L 358.66588 374.893791 
L 359.300764 373.427842 
L 359.935649 369.396473 
L 360.570533 380.940837 
L 361.205418 373.427842 
L 361.840303 371.41215 
L 362.475187 378.008938 
L 363.110072 388.637094 
L 363.744956 380.207862 
L 364.379841 377.092716 
L 365.014725 380.75759 
L 365.64961 382.956528 
L 366.284494 379.841382 
L 366.919379 371.595398 
L 367.554263 383.689503 
L 368.189148 378.558666 
L 368.824032 369.213226 
L 369.458917 377.825691 
L 370.093801 373.794322 
L 371.36357 382.590034 
L 371.998455 374.160816 
L 372.633339 375.626766 
L 373.268224 375.810013 
L 373.903108 384.239231 
L 374.537993 374.893791 
L 375.172877 374.710544 
L 375.807762 381.124084 
L 376.442646 371.228903 
L 377.077531 379.474888 
L 377.712415 380.574357 
L 378.3473 383.323009 
L 378.982184 374.34405 
L 379.617069 382.406787 
L 380.251953 378.558666 
L 380.886838 379.841382 
L 381.521722 384.788959 
L 382.156607 377.092716 
L 383.426376 384.422478 
L 384.061261 383.689503 
L 384.696145 384.422478 
L 385.33103 391.385746 
L 386.600799 378.192185 
L 387.235683 388.087353 
L 387.870568 382.040306 
L 388.505452 378.008938 
L 390.410106 390.103044 
L 391.04499 385.3387 
L 391.679875 379.29164 
L 392.314759 380.75759 
L 392.949644 390.103044 
L 393.584528 381.490579 
L 394.219413 380.75759 
L 395.489182 388.453847 
L 396.124066 374.893791 
L 396.758951 383.87275 
L 397.393835 378.192185 
L 398.02872 386.438156 
L 398.663604 388.637094 
L 399.298489 379.108407 
L 399.933373 379.29164 
L 400.568258 392.668463 
L 401.203142 384.055984 
L 401.838027 380.207862 
L 402.472911 380.75759 
L 403.107796 385.155453 
L 403.74268 381.490579 
L 404.377565 387.171144 
L 405.647334 379.29164 
L 406.282219 386.987897 
L 406.917103 391.202513 
L 407.551988 394.500893 
L 408.186872 385.888428 
L 408.821757 393.401437 
L 409.456641 378.375419 
L 410.091526 389.186822 
L 410.72641 395.050634 
L 411.996179 388.2706 
L 412.631064 389.186822 
L 413.265948 383.323009 
L 413.900833 383.139776 
L 414.535717 389.919797 
L 415.170602 387.904119 
L 415.805486 384.972206 
L 416.440371 378.192185 
L 417.075255 391.568993 
L 417.71014 391.202513 
L 418.345024 392.118721 
L 419.614793 385.888428 
L 420.249678 393.584685 
L 420.884562 391.935488 
L 421.519447 397.616053 
L 422.154331 387.171144 
L 422.789216 402.746877 
L 423.4241 384.788959 
L 424.058985 388.820327 
L 424.693869 388.820327 
L 425.328754 386.621403 
L 425.963638 376.726222 
L 426.598523 395.233881 
L 427.233408 395.417115 
L 427.868292 396.15009 
L 428.503177 381.673812 
L 429.138061 386.621403 
L 429.772946 395.050634 
L 430.40783 381.857059 
L 431.042715 392.118721 
L 431.677599 396.699831 
L 432.312484 397.066312 
L 432.947368 394.500893 
L 433.582253 397.066312 
L 434.217137 395.417115 
L 434.852022 389.736549 
L 435.486906 387.720872 
L 436.121791 391.752241 
L 436.756675 390.469524 
L 437.39156 388.453847 
L 438.026444 395.966856 
L 439.296213 394.500893 
L 439.931098 384.788959 
L 440.565982 390.836019 
L 441.200867 397.982534 
L 441.835751 393.034943 
L 442.470636 393.21819 
L 443.10552 393.034943 
L 443.740405 390.286291 
L 444.375289 399.998225 
L 445.010174 385.155453 
L 445.645058 393.034943 
L 446.279943 404.396074 
L 446.914827 397.799287 
L 447.549712 399.082003 
L 448.184597 395.233881 
L 448.819481 394.134412 
L 449.454366 393.951165 
L 450.08925 394.500893 
L 450.724135 387.904119 
L 451.359019 399.448483 
L 451.993904 393.951165 
L 452.628788 386.80465 
L 453.263673 402.013902 
L 453.898557 397.066312 
L 454.533442 393.951165 
L 455.168326 402.930124 
L 455.803211 391.019266 
L 456.438095 398.349028 
L 457.707864 401.647422 
L 458.342749 390.469524 
L 458.977633 398.715509 
L 459.612518 398.165781 
L 460.247402 393.767918 
L 460.882287 391.385746 
L 461.517171 391.019266 
L 462.152056 396.883065 
L 462.78694 396.883065 
L 463.421825 401.464175 
L 464.056709 387.171144 
L 464.691594 404.579321 
L 465.326478 395.050634 
L 465.961363 398.349028 
L 466.596247 399.082003 
L 467.231132 393.951165 
L 467.866016 404.762568 
L 468.500901 393.034943 
L 469.135785 393.401437 
L 469.77067 402.013902 
L 470.405555 396.699831 
L 471.040439 388.2706 
L 472.310208 404.212827 
L 472.945093 398.532261 
L 473.579977 383.87275 
L 474.214862 391.752241 
L 474.849746 397.616053 
L 475.484631 384.972206 
L 476.119515 393.034943 
L 476.7544 404.029593 
L 477.389284 392.118721 
L 478.024169 399.814978 
L 478.659053 399.814978 
L 479.293938 389.553316 
L 479.928822 399.448483 
L 480.563707 402.930124 
L 481.198591 407.511221 
L 481.833476 403.113371 
L 482.46836 408.793937 
L 483.103245 407.694468 
L 483.738129 393.21819 
L 484.373014 399.998225 
L 485.007898 403.296619 
L 485.642783 399.631731 
L 486.277667 403.296619 
L 486.912552 399.26525 
L 487.547436 404.212827 
L 488.182321 405.495543 
L 488.817205 396.333337 
L 489.45209 402.013902 
L 490.086974 406.045271 
L 490.721859 396.15009 
L 491.356744 410.626367 
L 491.991628 390.836019 
L 492.626513 403.479852 
L 493.261397 401.280927 
L 493.896282 404.762568 
L 494.531166 394.68414 
L 495.166051 399.631731 
L 495.800935 402.380397 
L 496.43582 402.56363 
L 497.070704 396.699831 
L 497.705589 404.396074 
L 498.340473 408.244195 
L 498.975358 401.09768 
L 499.610242 398.898756 
L 500.245127 398.715509 
L 500.880011 396.883065 
L 501.514896 405.67879 
L 502.14978 401.647422 
L 502.784665 399.631731 
L 503.419549 407.14474 
L 504.054434 401.280927 
L 504.689318 404.945802 
L 505.324203 397.066312 
L 505.959087 405.495543 
L 506.593972 397.616053 
L 507.228856 408.97717 
L 507.863741 404.029593 
L 508.498625 403.663099 
L 509.13351 409.893392 
L 509.768394 400.7312 
L 510.403279 395.050634 
L 511.673048 406.961493 
L 512.307933 409.343665 
L 512.942817 393.584685 
L 513.577702 393.767918 
L 514.212586 393.034943 
L 514.847471 402.746877 
L 515.482355 403.663099 
L 516.11724 402.56363 
L 516.752124 408.793937 
L 517.387009 401.647422 
L 518.021893 400.914433 
L 518.656778 398.165781 
L 519.291662 402.56363 
L 519.926547 405.67879 
L 520.561431 409.526912 
L 521.196316 404.579321 
L 521.8312 398.165781 
L 522.466085 397.799287 
L 523.100969 402.197149 
L 523.735854 405.67879 
L 524.370738 401.280927 
L 525.005623 403.296619 
L 525.640507 406.961493 
L 526.275392 404.762568 
L 526.910276 401.464175 
L 527.545161 404.579321 
L 528.180045 400.7312 
L 528.81493 402.013902 
L 529.449814 406.228518 
L 530.084699 402.930124 
L 530.719583 409.343665 
L 531.354468 402.380397 
L 531.989352 406.961493 
L 532.624237 397.982534 
L 533.259121 403.296619 
L 533.894006 398.898756 
L 534.528891 403.296619 
L 535.163775 398.715509 
L 535.79866 410.076639 
L 536.433544 408.244195 
L 537.068429 405.312296 
L 537.703313 407.14474 
L 538.338198 406.594999 
L 538.973082 405.67879 
L 539.607967 405.312296 
L 540.242851 406.778246 
L 540.877736 406.411765 
L 541.51262 413.008539 
L 542.147505 403.846346 
L 542.782389 415.573958 
L 543.417274 403.846346 
L 544.052158 402.56363 
L 544.687043 407.511221 
L 545.321927 408.97717 
L 546.591696 402.197149 
L 547.226581 413.55828 
L 547.861465 407.327987 
L 548.49635 405.862024 
L 549.131234 404.029593 
L 549.766119 410.259887 
L 550.401003 405.312296 
L 551.035888 409.343665 
L 551.670772 403.113371 
L 552.305657 405.312296 
L 552.940541 406.594999 
L 554.21031 395.600362 
L 554.845195 407.327987 
L 555.48008 404.396074 
L 556.114964 402.746877 
L 556.749849 405.862024 
L 557.384733 404.396074 
L 558.019618 405.495543 
L 559.289387 398.715509 
L 559.924271 401.830655 
L 560.559156 402.197149 
L 561.19404 410.626367 
L 561.828925 407.877715 
L 562.463809 410.626367 
L 563.098694 401.464175 
L 563.733578 407.511221 
L 564.368463 401.647422 
L 565.003347 412.275564 
L 565.638232 405.312296 
L 566.273116 410.076639 
L 566.908001 411.909083 
L 567.542885 401.647422 
L 568.17777 406.594999 
L 568.812654 410.443134 
L 569.447539 411.725836 
L 570.082423 406.411765 
L 570.717308 413.008539 
L 571.352192 409.710159 
L 571.987077 412.642058 
L 572.621961 405.312296 
L 573.256846 411.909083 
L 573.89173 410.259887 
L 574.526615 406.228518 
L 575.161499 401.280927 
L 575.796384 410.626367 
L 576.431268 405.129049 
L 577.066153 408.793937 
L 577.701038 413.375033 
L 578.335922 411.176109 
L 578.970807 415.02423 
L 579.605691 406.045271 
L 580.240576 419.055599 
L 580.87546 410.626367 
L 581.510345 406.961493 
L 582.145229 407.511221 
L 582.780114 411.542589 
L 582.780114 411.542589 
" clip-path="url(#p2631cf7c35)" style="fill: none; stroke: #ff7f0e; stroke-width: 1.5; stroke-linecap: square"/>
   </g>
   <g id="line2d_37">
    <path d="M 50.14375 551.518125 
L 608.14375 551.518125 
" clip-path="url(#p2631cf7c35)" style="fill: none; stroke-dasharray: 11.1,4.8; stroke-dashoffset: 0; stroke: #ff0000; stroke-width: 3"/>
   </g>
   <g id="patch_3">
    <path d="M 50.14375 576.718125 
L 50.14375 22.318125 
" style="fill: none; stroke: #000000; stroke-width: 0.8; stroke-linejoin: miter; stroke-linecap: square"/>
   </g>
   <g id="patch_4">
    <path d="M 608.14375 576.718125 
L 608.14375 22.318125 
" style="fill: none; stroke: #000000; stroke-width: 0.8; stroke-linejoin: miter; stroke-linecap: square"/>
   </g>
   <g id="patch_5">
    <path d="M 50.14375 576.718125 
L 608.14375 576.718125 
" style="fill: none; stroke: #000000; stroke-width: 0.8; stroke-linejoin: miter; stroke-linecap: square"/>
   </g>
   <g id="patch_6">
    <path d="M 50.14375 22.318125 
L 608.14375 22.318125 
" style="fill: none; stroke: #000000; stroke-width: 0.8; stroke-linejoin: miter; stroke-linecap: square"/>
   </g>
   <g id="text_20">
    <!-- Train and Val Accuracy -->
    <g transform="translate(261.365313 16.318125) scale(0.12 -0.12)">
     <defs>
      <path id="DejaVuSans-54" d="M -19 4666 
L 3928 4666 
L 3928 4134 
L 2272 4134 
L 2272 0 
L 1638 0 
L 1638 4134 
L -19 4134 
L -19 4666 
z
" transform="scale(0.015625)"/>
      <path id="DejaVuSans-69" d="M 603 3500 
L 1178 3500 
L 1178 0 
L 603 0 
L 603 3500 
z
M 603 4863 
L 1178 4863 
L 1178 4134 
L 603 4134 
L 603 4863 
z
" transform="scale(0.015625)"/>
      <path id="DejaVuSans-6e" d="M 3513 2113 
L 3513 0 
L 2938 0 
L 2938 2094 
Q 2938 2591 2744 2837 
Q 2550 3084 2163 3084 
Q 1697 3084 1428 2787 
Q 1159 2491 1159 1978 
L 1159 0 
L 581 0 
L 581 3500 
L 1159 3500 
L 1159 2956 
Q 1366 3272 1645 3428 
Q 1925 3584 2291 3584 
Q 2894 3584 3203 3211 
Q 3513 2838 3513 2113 
z
" transform="scale(0.015625)"/>
      <path id="DejaVuSans-20" transform="scale(0.015625)"/>
      <path id="DejaVuSans-64" d="M 2906 2969 
L 2906 4863 
L 3481 4863 
L 3481 0 
L 2906 0 
L 2906 525 
Q 2725 213 2448 61 
Q 2172 -91 1784 -91 
Q 1150 -91 751 415 
Q 353 922 353 1747 
Q 353 2572 751 3078 
Q 1150 3584 1784 3584 
Q 2172 3584 2448 3432 
Q 2725 3281 2906 2969 
z
M 947 1747 
Q 947 1113 1208 752 
Q 1469 391 1925 391 
Q 2381 391 2643 752 
Q 2906 1113 2906 1747 
Q 2906 2381 2643 2742 
Q 2381 3103 1925 3103 
Q 1469 3103 1208 2742 
Q 947 2381 947 1747 
z
" transform="scale(0.015625)"/>
      <path id="DejaVuSans-56" d="M 1831 0 
L 50 4666 
L 709 4666 
L 2188 738 
L 3669 4666 
L 4325 4666 
L 2547 0 
L 1831 0 
z
" transform="scale(0.015625)"/>
      <path id="DejaVuSans-6c" d="M 603 4863 
L 1178 4863 
L 1178 0 
L 603 0 
L 603 4863 
z
" transform="scale(0.015625)"/>
     </defs>
     <use xlink:href="#DejaVuSans-54"/>
     <use xlink:href="#DejaVuSans-72" transform="translate(46.333984 0)"/>
     <use xlink:href="#DejaVuSans-61" transform="translate(87.447266 0)"/>
     <use xlink:href="#DejaVuSans-69" transform="translate(148.726562 0)"/>
     <use xlink:href="#DejaVuSans-6e" transform="translate(176.509766 0)"/>
     <use xlink:href="#DejaVuSans-20" transform="translate(239.888672 0)"/>
     <use xlink:href="#DejaVuSans-61" transform="translate(271.675781 0)"/>
     <use xlink:href="#DejaVuSans-6e" transform="translate(332.955078 0)"/>
     <use xlink:href="#DejaVuSans-64" transform="translate(396.333984 0)"/>
     <use xlink:href="#DejaVuSans-20" transform="translate(459.810547 0)"/>
     <use xlink:href="#DejaVuSans-56" transform="translate(491.597656 0)"/>
     <use xlink:href="#DejaVuSans-61" transform="translate(552.255859 0)"/>
     <use xlink:href="#DejaVuSans-6c" transform="translate(613.535156 0)"/>
     <use xlink:href="#DejaVuSans-20" transform="translate(641.318359 0)"/>
     <use xlink:href="#DejaVuSans-41" transform="translate(673.105469 0)"/>
     <use xlink:href="#DejaVuSans-63" transform="translate(739.763672 0)"/>
     <use xlink:href="#DejaVuSans-63" transform="translate(794.744141 0)"/>
     <use xlink:href="#DejaVuSans-75" transform="translate(849.724609 0)"/>
     <use xlink:href="#DejaVuSans-72" transform="translate(913.103516 0)"/>
     <use xlink:href="#DejaVuSans-61" transform="translate(954.216797 0)"/>
     <use xlink:href="#DejaVuSans-63" transform="translate(1015.496094 0)"/>
     <use xlink:href="#DejaVuSans-79" transform="translate(1070.476562 0)"/>
    </g>
   </g>
   <g id="legend_1">
    <g id="patch_7">
     <path d="M 434.020312 74.90875 
L 601.14375 74.90875 
Q 603.14375 74.90875 603.14375 72.90875 
L 603.14375 29.318125 
Q 603.14375 27.318125 601.14375 27.318125 
L 434.020312 27.318125 
Q 432.020312 27.318125 432.020312 29.318125 
L 432.020312 72.90875 
Q 432.020312 74.90875 434.020312 74.90875 
z
" style="fill: #ffffff; opacity: 0.8; stroke: #cccccc; stroke-linejoin: miter"/>
    </g>
    <g id="line2d_38">
     <path d="M 436.020312 35.416562 
L 446.020312 35.416562 
L 456.020312 35.416562 
" style="fill: none; stroke: #1f77b4; stroke-width: 1.5; stroke-linecap: square"/>
    </g>
    <g id="text_21">
     <!-- train_accuracy -->
     <g transform="translate(464.020312 38.916562) scale(0.1 -0.1)">
      <defs>
       <path id="DejaVuSans-74" d="M 1172 4494 
L 1172 3500 
L 2356 3500 
L 2356 3053 
L 1172 3053 
L 1172 1153 
Q 1172 725 1289 603 
Q 1406 481 1766 481 
L 2356 481 
L 2356 0 
L 1766 0 
Q 1100 0 847 248 
Q 594 497 594 1153 
L 594 3053 
L 172 3053 
L 172 3500 
L 594 3500 
L 594 4494 
L 1172 4494 
z
" transform="scale(0.015625)"/>
       <path id="DejaVuSans-5f" d="M 3263 -1063 
L 3263 -1509 
L -63 -1509 
L -63 -1063 
L 3263 -1063 
z
" transform="scale(0.015625)"/>
      </defs>
      <use xlink:href="#DejaVuSans-74"/>
      <use xlink:href="#DejaVuSans-72" transform="translate(39.208984 0)"/>
      <use xlink:href="#DejaVuSans-61" transform="translate(80.322266 0)"/>
      <use xlink:href="#DejaVuSans-69" transform="translate(141.601562 0)"/>
      <use xlink:href="#DejaVuSans-6e" transform="translate(169.384766 0)"/>
      <use xlink:href="#DejaVuSans-5f" transform="translate(232.763672 0)"/>
      <use xlink:href="#DejaVuSans-61" transform="translate(282.763672 0)"/>
      <use xlink:href="#DejaVuSans-63" transform="translate(344.042969 0)"/>
      <use xlink:href="#DejaVuSans-63" transform="translate(399.023438 0)"/>
      <use xlink:href="#DejaVuSans-75" transform="translate(454.003906 0)"/>
      <use xlink:href="#DejaVuSans-72" transform="translate(517.382812 0)"/>
      <use xlink:href="#DejaVuSans-61" transform="translate(558.496094 0)"/>
      <use xlink:href="#DejaVuSans-63" transform="translate(619.775391 0)"/>
      <use xlink:href="#DejaVuSans-79" transform="translate(674.755859 0)"/>
     </g>
    </g>
    <g id="line2d_39">
     <path d="M 436.020312 50.372812 
L 446.020312 50.372812 
L 456.020312 50.372812 
" style="fill: none; stroke: #ff7f0e; stroke-width: 1.5; stroke-linecap: square"/>
    </g>
    <g id="text_22">
     <!-- val_accuracy -->
     <g transform="translate(464.020312 53.872812) scale(0.1 -0.1)">
      <defs>
       <path id="DejaVuSans-76" d="M 191 3500 
L 800 3500 
L 1894 563 
L 2988 3500 
L 3597 3500 
L 2284 0 
L 1503 0 
L 191 3500 
z
" transform="scale(0.015625)"/>
      </defs>
      <use xlink:href="#DejaVuSans-76"/>
      <use xlink:href="#DejaVuSans-61" transform="translate(59.179688 0)"/>
      <use xlink:href="#DejaVuSans-6c" transform="translate(120.458984 0)"/>
      <use xlink:href="#DejaVuSans-5f" transform="translate(148.242188 0)"/>
      <use xlink:href="#DejaVuSans-61" transform="translate(198.242188 0)"/>
      <use xlink:href="#DejaVuSans-63" transform="translate(259.521484 0)"/>
      <use xlink:href="#DejaVuSans-63" transform="translate(314.501953 0)"/>
      <use xlink:href="#DejaVuSans-75" transform="translate(369.482422 0)"/>
      <use xlink:href="#DejaVuSans-72" transform="translate(432.861328 0)"/>
      <use xlink:href="#DejaVuSans-61" transform="translate(473.974609 0)"/>
      <use xlink:href="#DejaVuSans-63" transform="translate(535.253906 0)"/>
      <use xlink:href="#DejaVuSans-79" transform="translate(590.234375 0)"/>
     </g>
    </g>
    <g id="line2d_40">
     <path d="M 436.020312 65.329062 
L 446.020312 65.329062 
L 456.020312 65.329062 
" style="fill: none; stroke-dasharray: 11.1,4.8; stroke-dashoffset: 0; stroke: #ff0000; stroke-width: 3"/>
    </g>
    <g id="text_23">
     <!-- Random-Guesser Accuracy -->
     <g transform="translate(464.020312 68.829062) scale(0.1 -0.1)">
      <defs>
       <path id="DejaVuSans-52" d="M 2841 2188 
Q 3044 2119 3236 1894 
Q 3428 1669 3622 1275 
L 4263 0 
L 3584 0 
L 2988 1197 
Q 2756 1666 2539 1819 
Q 2322 1972 1947 1972 
L 1259 1972 
L 1259 0 
L 628 0 
L 628 4666 
L 2053 4666 
Q 2853 4666 3247 4331 
Q 3641 3997 3641 3322 
Q 3641 2881 3436 2590 
Q 3231 2300 2841 2188 
z
M 1259 4147 
L 1259 2491 
L 2053 2491 
Q 2509 2491 2742 2702 
Q 2975 2913 2975 3322 
Q 2975 3731 2742 3939 
Q 2509 4147 2053 4147 
L 1259 4147 
z
" transform="scale(0.015625)"/>
       <path id="DejaVuSans-6d" d="M 3328 2828 
Q 3544 3216 3844 3400 
Q 4144 3584 4550 3584 
Q 5097 3584 5394 3201 
Q 5691 2819 5691 2113 
L 5691 0 
L 5113 0 
L 5113 2094 
Q 5113 2597 4934 2840 
Q 4756 3084 4391 3084 
Q 3944 3084 3684 2787 
Q 3425 2491 3425 1978 
L 3425 0 
L 2847 0 
L 2847 2094 
Q 2847 2600 2669 2842 
Q 2491 3084 2119 3084 
Q 1678 3084 1418 2786 
Q 1159 2488 1159 1978 
L 1159 0 
L 581 0 
L 581 3500 
L 1159 3500 
L 1159 2956 
Q 1356 3278 1631 3431 
Q 1906 3584 2284 3584 
Q 2666 3584 2933 3390 
Q 3200 3197 3328 2828 
z
" transform="scale(0.015625)"/>
       <path id="DejaVuSans-2d" d="M 313 2009 
L 1997 2009 
L 1997 1497 
L 313 1497 
L 313 2009 
z
" transform="scale(0.015625)"/>
       <path id="DejaVuSans-47" d="M 3809 666 
L 3809 1919 
L 2778 1919 
L 2778 2438 
L 4434 2438 
L 4434 434 
Q 4069 175 3628 42 
Q 3188 -91 2688 -91 
Q 1594 -91 976 548 
Q 359 1188 359 2328 
Q 359 3472 976 4111 
Q 1594 4750 2688 4750 
Q 3144 4750 3555 4637 
Q 3966 4525 4313 4306 
L 4313 3634 
Q 3963 3931 3569 4081 
Q 3175 4231 2741 4231 
Q 1884 4231 1454 3753 
Q 1025 3275 1025 2328 
Q 1025 1384 1454 906 
Q 1884 428 2741 428 
Q 3075 428 3337 486 
Q 3600 544 3809 666 
z
" transform="scale(0.015625)"/>
       <path id="DejaVuSans-65" d="M 3597 1894 
L 3597 1613 
L 953 1613 
Q 991 1019 1311 708 
Q 1631 397 2203 397 
Q 2534 397 2845 478 
Q 3156 559 3463 722 
L 3463 178 
Q 3153 47 2828 -22 
Q 2503 -91 2169 -91 
Q 1331 -91 842 396 
Q 353 884 353 1716 
Q 353 2575 817 3079 
Q 1281 3584 2069 3584 
Q 2775 3584 3186 3129 
Q 3597 2675 3597 1894 
z
M 3022 2063 
Q 3016 2534 2758 2815 
Q 2500 3097 2075 3097 
Q 1594 3097 1305 2825 
Q 1016 2553 972 2059 
L 3022 2063 
z
" transform="scale(0.015625)"/>
      </defs>
      <use xlink:href="#DejaVuSans-52"/>
      <use xlink:href="#DejaVuSans-61" transform="translate(67.232422 0)"/>
      <use xlink:href="#DejaVuSans-6e" transform="translate(128.511719 0)"/>
      <use xlink:href="#DejaVuSans-64" transform="translate(191.890625 0)"/>
      <use xlink:href="#DejaVuSans-6f" transform="translate(255.367188 0)"/>
      <use xlink:href="#DejaVuSans-6d" transform="translate(316.548828 0)"/>
      <use xlink:href="#DejaVuSans-2d" transform="translate(413.960938 0)"/>
      <use xlink:href="#DejaVuSans-47" transform="translate(453.669922 0)"/>
      <use xlink:href="#DejaVuSans-75" transform="translate(531.160156 0)"/>
      <use xlink:href="#DejaVuSans-65" transform="translate(594.539062 0)"/>
      <use xlink:href="#DejaVuSans-73" transform="translate(656.0625 0)"/>
      <use xlink:href="#DejaVuSans-73" transform="translate(708.162109 0)"/>
      <use xlink:href="#DejaVuSans-65" transform="translate(760.261719 0)"/>
      <use xlink:href="#DejaVuSans-72" transform="translate(821.785156 0)"/>
      <use xlink:href="#DejaVuSans-20" transform="translate(862.898438 0)"/>
      <use xlink:href="#DejaVuSans-41" transform="translate(894.685547 0)"/>
      <use xlink:href="#DejaVuSans-63" transform="translate(961.34375 0)"/>
      <use xlink:href="#DejaVuSans-63" transform="translate(1016.324219 0)"/>
      <use xlink:href="#DejaVuSans-75" transform="translate(1071.304688 0)"/>
      <use xlink:href="#DejaVuSans-72" transform="translate(1134.683594 0)"/>
      <use xlink:href="#DejaVuSans-61" transform="translate(1175.796875 0)"/>
      <use xlink:href="#DejaVuSans-63" transform="translate(1237.076172 0)"/>
      <use xlink:href="#DejaVuSans-79" transform="translate(1292.056641 0)"/>
     </g>
    </g>
   </g>
  </g>
 </g>
 <defs>
  <clipPath id="p2631cf7c35">
   <rect x="50.14375" y="22.318125" width="558" height="554.4"/>
  </clipPath>
 </defs>
</svg>
