<?xml version="1.0" encoding="utf-8" standalone="no"?>
<!DOCTYPE svg PUBLIC "-//W3C//DTD SVG 1.1//EN"
  "http://www.w3.org/Graphics/SVG/1.1/DTD/svg11.dtd">
<svg xmlns:xlink="http://www.w3.org/1999/xlink" width="615.34375pt" height="614.274375pt" viewBox="0 0 615.34375 614.274375" xmlns="http://www.w3.org/2000/svg" version="1.1">
 <metadata>
  <rdf:RDF xmlns:dc="http://purl.org/dc/elements/1.1/" xmlns:cc="http://creativecommons.org/ns#" xmlns:rdf="http://www.w3.org/1999/02/22-rdf-syntax-ns#">
   <cc:Work>
    <dc:type rdf:resource="http://purl.org/dc/dcmitype/StillImage"/>
    <dc:date>2026-06-02T13:35:19.661657</dc:date>
    <dc:format>image/svg+xml</dc:format>
    <dc:creator>
     <cc:Agent>
      <dc:title>Matplotlib v3.10.9, https://matplotlib.org/</dc:title>
     </cc:Agent>
    </dc:creator>
   </cc:Work>
  </rdf:RDF>
 </metadata>
 <defs>
  <style type="text/css">*{stroke-linejoin: round; stroke-linecap: butt}</style>
 </defs>
 <g id="figure_1">
  <g id="patch_1">
   <path d="M 0 614.274375 
L 615.34375 614.274375 
L 615.34375 0 
L 0 0 
z
" style="fill: #ffffff"/>
  </g>
  <g id="axes_1">
   <g id="patch_2">
    <path d="M 50.14375 576.718125 
L 608.14375 576.718125 
L 608.14375 22.318125 
L 50.14375 22.318125 
z
" style="fill: #ffffff"/>
   </g>
   <g id="matplotlib.axis_1">
    <g id="xtick_1">
     <g id="line2d_1">
      <path d="M 75.507386 576.718125 
L 75.507386 22.318125 
" clip-path="url(#p0d37585a0b)" style="fill: none; stroke: #b0b0b0; stroke-width: 0.8; stroke-linecap: square"/>
     </g>
     <g id="line2d_2">
      <defs>
       <path id="ma3780e83f9" d="M 0 0 
L 0 3.5 
" style="stroke: #000000; stroke-width: 0.8"/>
      </defs>
      <g>
       <use xlink:href="#ma3780e83f9" x="75.507386" y="576.718125" style="stroke: #000000; stroke-width: 0.8"/>
      </g>
     </g>
     <g id="text_1">
      <!-- 0 -->
      <g transform="translate(72.326136 591.316563) scale(0.1 -0.1)">
       <defs>
        <path id="DejaVuSans-30" d="M 2034 4250 
Q 1547 4250 1301 3770 
Q 1056 3291 1056 2328 
Q 1056 1369 1301 889 
Q 1547 409 2034 409 
Q 2525 409 2770 889 
Q 3016 1369 3016 2328 
Q 3016 3291 2770 3770 
Q 2525 4250 2034 4250 
z
M 2034 4750 
Q 2819 4750 3233 4129 
Q 3647 3509 3647 2328 
Q 3647 1150 3233 529 
Q 2819 -91 2034 -91 
Q 1250 -91 836 529 
Q 422 1150 422 2328 
Q 422 3509 836 4129 
Q 1250 4750 2034 4750 
z
" transform="scale(0.015625)"/>
       </defs>
       <use xlink:href="#DejaVuSans-30"/>
      </g>
     </g>
    </g>
    <g id="xtick_2">
     <g id="line2d_3">
      <path d="M 138.995838 576.718125 
L 138.995838 22.318125 
" clip-path="url(#p0d37585a0b)" style="fill: none; stroke: #b0b0b0; stroke-width: 0.8; stroke-linecap: square"/>
     </g>
     <g id="line2d_4">
      <g>
       <use xlink:href="#ma3780e83f9" x="138.995838" y="576.718125" style="stroke: #000000; stroke-width: 0.8"/>
      </g>
     </g>
     <g id="text_2">
      <!-- 100 -->
      <g transform="translate(129.452088 591.316563) scale(0.1 -0.1)">
       <defs>
        <path id="DejaVuSans-31" d="M 794 531 
L 1825 531 
L 1825 4091 
L 703 3866 
L 703 4441 
L 1819 4666 
L 2450 4666 
L 2450 531 
L 3481 531 
L 3481 0 
L 794 0 
L 794 531 
z
" transform="scale(0.015625)"/>
       </defs>
       <use xlink:href="#DejaVuSans-31"/>
       <use xlink:href="#DejaVuSans-30" transform="translate(63.623047 0)"/>
       <use xlink:href="#DejaVuSans-30" transform="translate(127.246094 0)"/>
      </g>
     </g>
    </g>
    <g id="xtick_3">
     <g id="line2d_5">
      <path d="M 202.484289 576.718125 
L 202.484289 22.318125 
" clip-path="url(#p0d37585a0b)" style="fill: none; stroke: #b0b0b0; stroke-width: 0.8; stroke-linecap: square"/>
     </g>
     <g id="line2d_6">
      <g>
       <use xlink:href="#ma3780e83f9" x="202.484289" y="576.718125" style="stroke: #000000; stroke-width: 0.8"/>
      </g>
     </g>
     <g id="text_3">
      <!-- 200 -->
      <g transform="translate(192.940539 591.316563) scale(0.1 -0.1)">
       <defs>
        <path id="DejaVuSans-32" d="M 1228 531 
L 3431 531 
L 3431 0 
L 469 0 
L 469 531 
Q 828 903 1448 1529 
Q 2069 2156 2228 2338 
Q 2531 2678 2651 2914 
Q 2772 3150 2772 3378 
Q 2772 3750 2511 3984 
Q 2250 4219 1831 4219 
Q 1534 4219 1204 4116 
Q 875 4013 500 3803 
L 500 4441 
Q 881 4594 1212 4672 
Q 1544 4750 1819 4750 
Q 2544 4750 2975 4387 
Q 3406 4025 3406 3419 
Q 3406 3131 3298 2873 
Q 3191 2616 2906 2266 
Q 2828 2175 2409 1742 
Q 1991 1309 1228 531 
z
" transform="scale(0.015625)"/>
       </defs>
       <use xlink:href="#DejaVuSans-32"/>
       <use xlink:href="#DejaVuSans-30" transform="translate(63.623047 0)"/>
       <use xlink:href="#DejaVuSans-30" transform="translate(127.246094 0)"/>
      </g>
     </g>
    </g>
    <g id="xtick_4">
     <g id="line2d_7">
      <path d="M 265.972741 576.718125 
L 265.972741 22.318125 
" clip-path="url(#p0d37585a0b)" style="fill: none; stroke: #b0b0b0; stroke-width: 0.8; stroke-linecap: square"/>
     </g>
     <g id="line2d_8">
      <g>
       <use xlink:href="#ma3780e83f9" x="265.972741" y="576.718125" style="stroke: #000000; stroke-width: 0.8"/>
      </g>
     </g>
     <g id="text_4">
      <!-- 300 -->
      <g transform="translate(256.428991 591.316563) scale(0.1 -0.1)">
       <defs>
        <path id="DejaVuSans-33" d="M 2597 2516 
Q 3050 2419 3304 2112 
Q 3559 1806 3559 1356 
Q 3559 666 3084 287 
Q 2609 -91 1734 -91 
Q 1441 -91 1130 -33 
Q 819 25 488 141 
L 488 750 
Q 750 597 1062 519 
Q 1375 441 1716 441 
Q 2309 441 2620 675 
Q 2931 909 2931 1356 
Q 2931 1769 2642 2001 
Q 2353 2234 1838 2234 
L 1294 2234 
L 1294 2753 
L 1863 2753 
Q 2328 2753 2575 2939 
Q 2822 3125 2822 3475 
Q 2822 3834 2567 4026 
Q 2313 4219 1838 4219 
Q 1578 4219 1281 4162 
Q 984 4106 628 3988 
L 628 4550 
Q 988 4650 1302 4700 
Q 1616 4750 1894 4750 
Q 2613 4750 3031 4423 
Q 3450 4097 3450 3541 
Q 3450 3153 3228 2886 
Q 3006 2619 2597 2516 
z
" transform="scale(0.015625)"/>
       </defs>
       <use xlink:href="#DejaVuSans-33"/>
       <use xlink:href="#DejaVuSans-30" transform="translate(63.623047 0)"/>
       <use xlink:href="#DejaVuSans-30" transform="translate(127.246094 0)"/>
      </g>
     </g>
    </g>
    <g id="xtick_5">
     <g id="line2d_9">
      <path d="M 329.461192 576.718125 
L 329.461192 22.318125 
" clip-path="url(#p0d37585a0b)" style="fill: none; stroke: #b0b0b0; stroke-width: 0.8; stroke-linecap: square"/>
     </g>
     <g id="line2d_10">
      <g>
       <use xlink:href="#ma3780e83f9" x="329.461192" y="576.718125" style="stroke: #000000; stroke-width: 0.8"/>
      </g>
     </g>
     <g id="text_5">
      <!-- 400 -->
      <g transform="translate(319.917442 591.316563) scale(0.1 -0.1)">
       <defs>
        <path id="DejaVuSans-34" d="M 2419 4116 
L 825 1625 
L 2419 1625 
L 2419 4116 
z
M 2253 4666 
L 3047 4666 
L 3047 1625 
L 3713 1625 
L 3713 1100 
L 3047 1100 
L 3047 0 
L 2419 0 
L 2419 1100 
L 313 1100 
L 313 1709 
L 2253 4666 
z
" transform="scale(0.015625)"/>
       </defs>
       <use xlink:href="#DejaVuSans-34"/>
       <use xlink:href="#DejaVuSans-30" transform="translate(63.623047 0)"/>
       <use xlink:href="#DejaVuSans-30" transform="translate(127.246094 0)"/>
      </g>
     </g>
    </g>
    <g id="xtick_6">
     <g id="line2d_11">
      <path d="M 392.949644 576.718125 
L 392.949644 22.318125 
" clip-path="url(#p0d37585a0b)" style="fill: none; stroke: #b0b0b0; stroke-width: 0.8; stroke-linecap: square"/>
     </g>
     <g id="line2d_12">
      <g>
       <use xlink:href="#ma3780e83f9" x="392.949644" y="576.718125" style="stroke: #000000; stroke-width: 0.8"/>
      </g>
     </g>
     <g id="text_6">
      <!-- 500 -->
      <g transform="translate(383.405894 591.316563) scale(0.1 -0.1)">
       <defs>
        <path id="DejaVuSans-35" d="M 691 4666 
L 3169 4666 
L 3169 4134 
L 1269 4134 
L 1269 2991 
Q 1406 3038 1543 3061 
Q 1681 3084 1819 3084 
Q 2600 3084 3056 2656 
Q 3513 2228 3513 1497 
Q 3513 744 3044 326 
Q 2575 -91 1722 -91 
Q 1428 -91 1123 -41 
Q 819 9 494 109 
L 494 744 
Q 775 591 1075 516 
Q 1375 441 1709 441 
Q 2250 441 2565 725 
Q 2881 1009 2881 1497 
Q 2881 1984 2565 2268 
Q 2250 2553 1709 2553 
Q 1456 2553 1204 2497 
Q 953 2441 691 2322 
L 691 4666 
z
" transform="scale(0.015625)"/>
       </defs>
       <use xlink:href="#DejaVuSans-35"/>
       <use xlink:href="#DejaVuSans-30" transform="translate(63.623047 0)"/>
       <use xlink:href="#DejaVuSans-30" transform="translate(127.246094 0)"/>
      </g>
     </g>
    </g>
    <g id="xtick_7">
     <g id="line2d_13">
      <path d="M 456.438095 576.718125 
L 456.438095 22.318125 
" clip-path="url(#p0d37585a0b)" style="fill: none; stroke: #b0b0b0; stroke-width: 0.8; stroke-linecap: square"/>
     </g>
     <g id="line2d_14">
      <g>
       <use xlink:href="#ma3780e83f9" x="456.438095" y="576.718125" style="stroke: #000000; stroke-width: 0.8"/>
      </g>
     </g>
     <g id="text_7">
      <!-- 600 -->
      <g transform="translate(446.894345 591.316563) scale(0.1 -0.1)">
       <defs>
        <path id="DejaVuSans-36" d="M 2113 2584 
Q 1688 2584 1439 2293 
Q 1191 2003 1191 1497 
Q 1191 994 1439 701 
Q 1688 409 2113 409 
Q 2538 409 2786 701 
Q 3034 994 3034 1497 
Q 3034 2003 2786 2293 
Q 2538 2584 2113 2584 
z
M 3366 4563 
L 3366 3988 
Q 3128 4100 2886 4159 
Q 2644 4219 2406 4219 
Q 1781 4219 1451 3797 
Q 1122 3375 1075 2522 
Q 1259 2794 1537 2939 
Q 1816 3084 2150 3084 
Q 2853 3084 3261 2657 
Q 3669 2231 3669 1497 
Q 3669 778 3244 343 
Q 2819 -91 2113 -91 
Q 1303 -91 875 529 
Q 447 1150 447 2328 
Q 447 3434 972 4092 
Q 1497 4750 2381 4750 
Q 2619 4750 2861 4703 
Q 3103 4656 3366 4563 
z
" transform="scale(0.015625)"/>
       </defs>
       <use xlink:href="#DejaVuSans-36"/>
       <use xlink:href="#DejaVuSans-30" transform="translate(63.623047 0)"/>
       <use xlink:href="#DejaVuSans-30" transform="translate(127.246094 0)"/>
      </g>
     </g>
    </g>
    <g id="xtick_8">
     <g id="line2d_15">
      <path d="M 519.926547 576.718125 
L 519.926547 22.318125 
" clip-path="url(#p0d37585a0b)" style="fill: none; stroke: #b0b0b0; stroke-width: 0.8; stroke-linecap: square"/>
     </g>
     <g id="line2d_16">
      <g>
       <use xlink:href="#ma3780e83f9" x="519.926547" y="576.718125" style="stroke: #000000; stroke-width: 0.8"/>
      </g>
     </g>
     <g id="text_8">
      <!-- 700 -->
      <g transform="translate(510.382797 591.316563) scale(0.1 -0.1)">
       <defs>
        <path id="DejaVuSans-37" d="M 525 4666 
L 3525 4666 
L 3525 4397 
L 1831 0 
L 1172 0 
L 2766 4134 
L 525 4134 
L 525 4666 
z
" transform="scale(0.015625)"/>
       </defs>
       <use xlink:href="#DejaVuSans-37"/>
       <use xlink:href="#DejaVuSans-30" transform="translate(63.623047 0)"/>
       <use xlink:href="#DejaVuSans-30" transform="translate(127.246094 0)"/>
      </g>
     </g>
    </g>
    <g id="xtick_9">
     <g id="line2d_17">
      <path d="M 583.414998 576.718125 
L 583.414998 22.318125 
" clip-path="url(#p0d37585a0b)" style="fill: none; stroke: #b0b0b0; stroke-width: 0.8; stroke-linecap: square"/>
     </g>
     <g id="line2d_18">
      <g>
       <use xlink:href="#ma3780e83f9" x="583.414998" y="576.718125" style="stroke: #000000; stroke-width: 0.8"/>
      </g>
     </g>
     <g id="text_9">
      <!-- 800 -->
      <g transform="translate(573.871248 591.316563) scale(0.1 -0.1)">
       <defs>
        <path id="DejaVuSans-38" d="M 2034 2216 
Q 1584 2216 1326 1975 
Q 1069 1734 1069 1313 
Q 1069 891 1326 650 
Q 1584 409 2034 409 
Q 2484 409 2743 651 
Q 3003 894 3003 1313 
Q 3003 1734 2745 1975 
Q 2488 2216 2034 2216 
z
M 1403 2484 
Q 997 2584 770 2862 
Q 544 3141 544 3541 
Q 544 4100 942 4425 
Q 1341 4750 2034 4750 
Q 2731 4750 3128 4425 
Q 3525 4100 3525 3541 
Q 3525 3141 3298 2862 
Q 3072 2584 2669 2484 
Q 3125 2378 3379 2068 
Q 3634 1759 3634 1313 
Q 3634 634 3220 271 
Q 2806 -91 2034 -91 
Q 1263 -91 848 271 
Q 434 634 434 1313 
Q 434 1759 690 2068 
Q 947 2378 1403 2484 
z
M 1172 3481 
Q 1172 3119 1398 2916 
Q 1625 2713 2034 2713 
Q 2441 2713 2670 2916 
Q 2900 3119 2900 3481 
Q 2900 3844 2670 4047 
Q 2441 4250 2034 4250 
Q 1625 4250 1398 4047 
Q 1172 3844 1172 3481 
z
" transform="scale(0.015625)"/>
       </defs>
       <use xlink:href="#DejaVuSans-38"/>
       <use xlink:href="#DejaVuSans-30" transform="translate(63.623047 0)"/>
       <use xlink:href="#DejaVuSans-30" transform="translate(127.246094 0)"/>
      </g>
     </g>
    </g>
    <g id="text_10">
     <!-- Epochs -->
     <g transform="translate(311.228125 604.994688) scale(0.1 -0.1)">
      <defs>
       <path id="DejaVuSans-45" d="M 628 4666 
L 3578 4666 
L 3578 4134 
L 1259 4134 
L 1259 2753 
L 3481 2753 
L 3481 2222 
L 1259 2222 
L 1259 531 
L 3634 531 
L 3634 0 
L 628 0 
L 628 4666 
z
" transform="scale(0.015625)"/>
       <path id="DejaVuSans-70" d="M 1159 525 
L 1159 -1331 
L 581 -1331 
L 581 3500 
L 1159 3500 
L 1159 2969 
Q 1341 3281 1617 3432 
Q 1894 3584 2278 3584 
Q 2916 3584 3314 3078 
Q 3713 2572 3713 1747 
Q 3713 922 3314 415 
Q 2916 -91 2278 -91 
Q 1894 -91 1617 61 
Q 1341 213 1159 525 
z
M 3116 1747 
Q 3116 2381 2855 2742 
Q 2594 3103 2138 3103 
Q 1681 3103 1420 2742 
Q 1159 2381 1159 1747 
Q 1159 1113 1420 752 
Q 1681 391 2138 391 
Q 2594 391 2855 752 
Q 3116 1113 3116 1747 
z
" transform="scale(0.015625)"/>
       <path id="DejaVuSans-6f" d="M 1959 3097 
Q 1497 3097 1228 2736 
Q 959 2375 959 1747 
Q 959 1119 1226 758 
Q 1494 397 1959 397 
Q 2419 397 2687 759 
Q 2956 1122 2956 1747 
Q 2956 2369 2687 2733 
Q 2419 3097 1959 3097 
z
M 1959 3584 
Q 2709 3584 3137 3096 
Q 3566 2609 3566 1747 
Q 3566 888 3137 398 
Q 2709 -91 1959 -91 
Q 1206 -91 779 398 
Q 353 888 353 1747 
Q 353 2609 779 3096 
Q 1206 3584 1959 3584 
z
" transform="scale(0.015625)"/>
       <path id="DejaVuSans-63" d="M 3122 3366 
L 3122 2828 
Q 2878 2963 2633 3030 
Q 2388 3097 2138 3097 
Q 1578 3097 1268 2742 
Q 959 2388 959 1747 
Q 959 1106 1268 751 
Q 1578 397 2138 397 
Q 2388 397 2633 464 
Q 2878 531 3122 666 
L 3122 134 
Q 2881 22 2623 -34 
Q 2366 -91 2075 -91 
Q 1284 -91 818 406 
Q 353 903 353 1747 
Q 353 2603 823 3093 
Q 1294 3584 2113 3584 
Q 2378 3584 2631 3529 
Q 2884 3475 3122 3366 
z
" transform="scale(0.015625)"/>
       <path id="DejaVuSans-68" d="M 3513 2113 
L 3513 0 
L 2938 0 
L 2938 2094 
Q 2938 2591 2744 2837 
Q 2550 3084 2163 3084 
Q 1697 3084 1428 2787 
Q 1159 2491 1159 1978 
L 1159 0 
L 581 0 
L 581 4863 
L 1159 4863 
L 1159 2956 
Q 1366 3272 1645 3428 
Q 1925 3584 2291 3584 
Q 2894 3584 3203 3211 
Q 3513 2838 3513 2113 
z
" transform="scale(0.015625)"/>
       <path id="DejaVuSans-73" d="M 2834 3397 
L 2834 2853 
Q 2591 2978 2328 3040 
Q 2066 3103 1784 3103 
Q 1356 3103 1142 2972 
Q 928 2841 928 2578 
Q 928 2378 1081 2264 
Q 1234 2150 1697 2047 
L 1894 2003 
Q 2506 1872 2764 1633 
Q 3022 1394 3022 966 
Q 3022 478 2636 193 
Q 2250 -91 1575 -91 
Q 1294 -91 989 -36 
Q 684 19 347 128 
L 347 722 
Q 666 556 975 473 
Q 1284 391 1588 391 
Q 1994 391 2212 530 
Q 2431 669 2431 922 
Q 2431 1156 2273 1281 
Q 2116 1406 1581 1522 
L 1381 1569 
Q 847 1681 609 1914 
Q 372 2147 372 2553 
Q 372 3047 722 3315 
Q 1072 3584 1716 3584 
Q 2034 3584 2315 3537 
Q 2597 3491 2834 3397 
z
" transform="scale(0.015625)"/>
      </defs>
      <use xlink:href="#DejaVuSans-45"/>
      <use xlink:href="#DejaVuSans-70" transform="translate(63.183594 0)"/>
      <use xlink:href="#DejaVuSans-6f" transform="translate(126.660156 0)"/>
      <use xlink:href="#DejaVuSans-63" transform="translate(187.841797 0)"/>
      <use xlink:href="#DejaVuSans-68" transform="translate(242.822266 0)"/>
      <use xlink:href="#DejaVuSans-73" transform="translate(306.201172 0)"/>
     </g>
    </g>
   </g>
   <g id="matplotlib.axis_2">
    <g id="ytick_1">
     <g id="line2d_19">
      <path d="M 50.14375 556.866263 
L 608.14375 556.866263 
" clip-path="url(#p0d37585a0b)" style="fill: none; stroke: #b0b0b0; stroke-width: 0.8; stroke-linecap: square"/>
     </g>
     <g id="line2d_20">
      <defs>
       <path id="m49c7a4a500" d="M 0 0 
L -3.5 0 
" style="stroke: #000000; stroke-width: 0.8"/>
      </defs>
      <g>
       <use xlink:href="#m49c7a4a500" x="50.14375" y="556.866263" style="stroke: #000000; stroke-width: 0.8"/>
      </g>
     </g>
     <g id="text_11">
      <!-- 0.00 -->
      <g transform="translate(20.878125 560.665482) scale(0.1 -0.1)">
       <defs>
        <path id="DejaVuSans-2e" d="M 684 794 
L 1344 794 
L 1344 0 
L 684 0 
L 684 794 
z
" transform="scale(0.015625)"/>
       </defs>
       <use xlink:href="#DejaVuSans-30"/>
       <use xlink:href="#DejaVuSans-2e" transform="translate(63.623047 0)"/>
       <use xlink:href="#DejaVuSans-30" transform="translate(95.410156 0)"/>
       <use xlink:href="#DejaVuSans-30" transform="translate(159.033203 0)"/>
      </g>
     </g>
    </g>
    <g id="ytick_2">
     <g id="line2d_21">
      <path d="M 50.14375 488.410095 
L 608.14375 488.410095 
" clip-path="url(#p0d37585a0b)" style="fill: none; stroke: #b0b0b0; stroke-width: 0.8; stroke-linecap: square"/>
     </g>
     <g id="line2d_22">
      <g>
       <use xlink:href="#m49c7a4a500" x="50.14375" y="488.410095" style="stroke: #000000; stroke-width: 0.8"/>
      </g>
     </g>
     <g id="text_12">
      <!-- 0.05 -->
      <g transform="translate(20.878125 492.209314) scale(0.1 -0.1)">
       <use xlink:href="#DejaVuSans-30"/>
       <use xlink:href="#DejaVuSans-2e" transform="translate(63.623047 0)"/>
       <use xlink:href="#DejaVuSans-30" transform="translate(95.410156 0)"/>
       <use xlink:href="#DejaVuSans-35" transform="translate(159.033203 0)"/>
      </g>
     </g>
    </g>
    <g id="ytick_3">
     <g id="line2d_23">
      <path d="M 50.14375 419.953927 
L 608.14375 419.953927 
" clip-path="url(#p0d37585a0b)" style="fill: none; stroke: #b0b0b0; stroke-width: 0.8; stroke-linecap: square"/>
     </g>
     <g id="line2d_24">
      <g>
       <use xlink:href="#m49c7a4a500" x="50.14375" y="419.953927" style="stroke: #000000; stroke-width: 0.8"/>
      </g>
     </g>
     <g id="text_13">
      <!-- 0.10 -->
      <g transform="translate(20.878125 423.753145) scale(0.1 -0.1)">
       <use xlink:href="#DejaVuSans-30"/>
       <use xlink:href="#DejaVuSans-2e" transform="translate(63.623047 0)"/>
       <use xlink:href="#DejaVuSans-31" transform="translate(95.410156 0)"/>
       <use xlink:href="#DejaVuSans-30" transform="translate(159.033203 0)"/>
      </g>
     </g>
    </g>
    <g id="ytick_4">
     <g id="line2d_25">
      <path d="M 50.14375 351.497758 
L 608.14375 351.497758 
" clip-path="url(#p0d37585a0b)" style="fill: none; stroke: #b0b0b0; stroke-width: 0.8; stroke-linecap: square"/>
     </g>
     <g id="line2d_26">
      <g>
       <use xlink:href="#m49c7a4a500" x="50.14375" y="351.497758" style="stroke: #000000; stroke-width: 0.8"/>
      </g>
     </g>
     <g id="text_14">
      <!-- 0.15 -->
      <g transform="translate(20.878125 355.296977) scale(0.1 -0.1)">
       <use xlink:href="#DejaVuSans-30"/>
       <use xlink:href="#DejaVuSans-2e" transform="translate(63.623047 0)"/>
       <use xlink:href="#DejaVuSans-31" transform="translate(95.410156 0)"/>
       <use xlink:href="#DejaVuSans-35" transform="translate(159.033203 0)"/>
      </g>
     </g>
    </g>
    <g id="ytick_5">
     <g id="line2d_27">
      <path d="M 50.14375 283.04159 
L 608.14375 283.04159 
" clip-path="url(#p0d37585a0b)" style="fill: none; stroke: #b0b0b0; stroke-width: 0.8; stroke-linecap: square"/>
     </g>
     <g id="line2d_28">
      <g>
       <use xlink:href="#m49c7a4a500" x="50.14375" y="283.04159" style="stroke: #000000; stroke-width: 0.8"/>
      </g>
     </g>
     <g id="text_15">
      <!-- 0.20 -->
      <g transform="translate(20.878125 286.840809) scale(0.1 -0.1)">
       <use xlink:href="#DejaVuSans-30"/>
       <use xlink:href="#DejaVuSans-2e" transform="translate(63.623047 0)"/>
       <use xlink:href="#DejaVuSans-32" transform="translate(95.410156 0)"/>
       <use xlink:href="#DejaVuSans-30" transform="translate(159.033203 0)"/>
      </g>
     </g>
    </g>
    <g id="ytick_6">
     <g id="line2d_29">
      <path d="M 50.14375 214.585422 
L 608.14375 214.585422 
" clip-path="url(#p0d37585a0b)" style="fill: none; stroke: #b0b0b0; stroke-width: 0.8; stroke-linecap: square"/>
     </g>
     <g id="line2d_30">
      <g>
       <use xlink:href="#m49c7a4a500" x="50.14375" y="214.585422" style="stroke: #000000; stroke-width: 0.8"/>
      </g>
     </g>
     <g id="text_16">
      <!-- 0.25 -->
      <g transform="translate(20.878125 218.38464) scale(0.1 -0.1)">
       <use xlink:href="#DejaVuSans-30"/>
       <use xlink:href="#DejaVuSans-2e" transform="translate(63.623047 0)"/>
       <use xlink:href="#DejaVuSans-32" transform="translate(95.410156 0)"/>
       <use xlink:href="#DejaVuSans-35" transform="translate(159.033203 0)"/>
      </g>
     </g>
    </g>
    <g id="ytick_7">
     <g id="line2d_31">
      <path d="M 50.14375 146.129253 
L 608.14375 146.129253 
" clip-path="url(#p0d37585a0b)" style="fill: none; stroke: #b0b0b0; stroke-width: 0.8; stroke-linecap: square"/>
     </g>
     <g id="line2d_32">
      <g>
       <use xlink:href="#m49c7a4a500" x="50.14375" y="146.129253" style="stroke: #000000; stroke-width: 0.8"/>
      </g>
     </g>
     <g id="text_17">
      <!-- 0.30 -->
      <g transform="translate(20.878125 149.928472) scale(0.1 -0.1)">
       <use xlink:href="#DejaVuSans-30"/>
       <use xlink:href="#DejaVuSans-2e" transform="translate(63.623047 0)"/>
       <use xlink:href="#DejaVuSans-33" transform="translate(95.410156 0)"/>
       <use xlink:href="#DejaVuSans-30" transform="translate(159.033203 0)"/>
      </g>
     </g>
    </g>
    <g id="ytick_8">
     <g id="line2d_33">
      <path d="M 50.14375 77.673085 
L 608.14375 77.673085 
" clip-path="url(#p0d37585a0b)" style="fill: none; stroke: #b0b0b0; stroke-width: 0.8; stroke-linecap: square"/>
     </g>
     <g id="line2d_34">
      <g>
       <use xlink:href="#m49c7a4a500" x="50.14375" y="77.673085" style="stroke: #000000; stroke-width: 0.8"/>
      </g>
     </g>
     <g id="text_18">
      <!-- 0.35 -->
      <g transform="translate(20.878125 81.472304) scale(0.1 -0.1)">
       <use xlink:href="#DejaVuSans-30"/>
       <use xlink:href="#DejaVuSans-2e" transform="translate(63.623047 0)"/>
       <use xlink:href="#DejaVuSans-33" transform="translate(95.410156 0)"/>
       <use xlink:href="#DejaVuSans-35" transform="translate(159.033203 0)"/>
      </g>
     </g>
    </g>
    <g id="text_19">
     <!-- Accuracy -->
     <g transform="translate(14.798437 322.34625) rotate(-90) scale(0.1 -0.1)">
      <defs>
       <path id="DejaVuSans-41" d="M 2188 4044 
L 1331 1722 
L 3047 1722 
L 2188 4044 
z
M 1831 4666 
L 2547 4666 
L 4325 0 
L 3669 0 
L 3244 1197 
L 1141 1197 
L 716 0 
L 50 0 
L 1831 4666 
z
" transform="scale(0.015625)"/>
       <path id="DejaVuSans-75" d="M 544 1381 
L 544 3500 
L 1119 3500 
L 1119 1403 
Q 1119 906 1312 657 
Q 1506 409 1894 409 
Q 2359 409 2629 706 
Q 2900 1003 2900 1516 
L 2900 3500 
L 3475 3500 
L 3475 0 
L 2900 0 
L 2900 538 
Q 2691 219 2414 64 
Q 2138 -91 1772 -91 
Q 1169 -91 856 284 
Q 544 659 544 1381 
z
M 1991 3584 
L 1991 3584 
z
" transform="scale(0.015625)"/>
       <path id="DejaVuSans-72" d="M 2631 2963 
Q 2534 3019 2420 3045 
Q 2306 3072 2169 3072 
Q 1681 3072 1420 2755 
Q 1159 2438 1159 1844 
L 1159 0 
L 581 0 
L 581 3500 
L 1159 3500 
L 1159 2956 
Q 1341 3275 1631 3429 
Q 1922 3584 2338 3584 
Q 2397 3584 2469 3576 
Q 2541 3569 2628 3553 
L 2631 2963 
z
" transform="scale(0.015625)"/>
       <path id="DejaVuSans-61" d="M 2194 1759 
Q 1497 1759 1228 1600 
Q 959 1441 959 1056 
Q 959 750 1161 570 
Q 1363 391 1709 391 
Q 2188 391 2477 730 
Q 2766 1069 2766 1631 
L 2766 1759 
L 2194 1759 
z
M 3341 1997 
L 3341 0 
L 2766 0 
L 2766 531 
Q 2569 213 2275 61 
Q 1981 -91 1556 -91 
Q 1019 -91 701 211 
Q 384 513 384 1019 
Q 384 1609 779 1909 
Q 1175 2209 1959 2209 
L 2766 2209 
L 2766 2266 
Q 2766 2663 2505 2880 
Q 2244 3097 1772 3097 
Q 1472 3097 1187 3025 
Q 903 2953 641 2809 
L 641 3341 
Q 956 3463 1253 3523 
Q 1550 3584 1831 3584 
Q 2591 3584 2966 3190 
Q 3341 2797 3341 1997 
z
" transform="scale(0.015625)"/>
       <path id="DejaVuSans-79" d="M 2059 -325 
Q 1816 -950 1584 -1140 
Q 1353 -1331 966 -1331 
L 506 -1331 
L 506 -850 
L 844 -850 
Q 1081 -850 1212 -737 
Q 1344 -625 1503 -206 
L 1606 56 
L 191 3500 
L 800 3500 
L 1894 763 
L 2988 3500 
L 3597 3500 
L 2059 -325 
z
" transform="scale(0.015625)"/>
      </defs>
      <use xlink:href="#DejaVuSans-41"/>
      <use xlink:href="#DejaVuSans-63" transform="translate(66.658203 0)"/>
      <use xlink:href="#DejaVuSans-63" transform="translate(121.638672 0)"/>
      <use xlink:href="#DejaVuSans-75" transform="translate(176.619141 0)"/>
      <use xlink:href="#DejaVuSans-72" transform="translate(239.998047 0)"/>
      <use xlink:href="#DejaVuSans-61" transform="translate(281.111328 0)"/>
      <use xlink:href="#DejaVuSans-63" transform="translate(342.390625 0)"/>
      <use xlink:href="#DejaVuSans-79" transform="translate(397.371094 0)"/>
     </g>
    </g>
   </g>
   <g id="line2d_35">
    <path d="M 75.507386 400.694923 
L 76.142271 377.001476 
L 76.777155 366.61516 
L 77.41204 366.611365 
L 78.046924 375.548683 
L 78.681809 373.784053 
L 79.316693 370.68451 
L 79.951578 366.082721 
L 81.221347 351.132665 
L 81.856232 346.222833 
L 82.491116 345.891961 
L 83.126001 344.218587 
L 85.030654 357.46485 
L 85.665539 360.76596 
L 86.300423 366.432607 
L 86.935308 371.080034 
L 87.570192 377.959878 
L 88.205077 381.747769 
L 89.474846 393.735217 
L 90.10973 399.466516 
L 91.379499 407.529129 
L 92.014384 408.64345 
L 92.649268 409.415485 
L 93.284153 407.559558 
L 95.823691 397.028717 
L 96.458575 393.069668 
L 97.09346 390.434107 
L 97.728344 386.92383 
L 98.363229 385.4178 
L 98.998113 381.660307 
L 99.632998 380.344429 
L 100.267882 377.054724 
L 100.902767 375.385165 
L 101.537651 373.164132 
L 102.172536 371.878672 
L 102.80742 370.311794 
L 103.442305 369.543575 
L 104.07719 365.702416 
L 104.712074 365.500849 
L 105.346959 364.557666 
L 107.251612 358.179842 
L 107.886497 358.221665 
L 108.521381 357.331751 
L 109.156266 354.300655 
L 110.426035 350.976736 
L 111.060919 349.702681 
L 111.695804 346.093528 
L 112.330688 345.987032 
L 112.965573 344.066453 
L 113.600457 341.742759 
L 114.235342 338.266706 
L 114.870226 337.068729 
L 116.77488 330.424665 
L 117.409764 328.914829 
L 118.679533 323.586664 
L 119.314418 322.251752 
L 119.949302 319.635215 
L 120.584187 317.573926 
L 121.219071 316.299871 
L 121.853956 313.052009 
L 123.758609 305.635931 
L 124.393494 301.984935 
L 125.028379 301.266148 
L 125.663263 299.444455 
L 126.298148 296.546479 
L 126.933032 294.701957 
L 127.567917 291.982719 
L 128.202801 289.917635 
L 128.837686 288.521885 
L 129.47257 285.878724 
L 130.742339 282.235338 
L 131.377224 280.482092 
L 132.012108 278.025278 
L 132.646993 277.21901 
L 133.281877 275.484799 
L 133.916762 273.419695 
L 134.551646 272.940504 
L 137.091184 264.702938 
L 137.726069 264.261775 
L 138.360953 262.036948 
L 138.995838 261.363799 
L 139.630722 260.028907 
L 140.265607 258.328909 
L 140.900491 256.104081 
L 141.535376 256.488201 
L 142.17026 254.259579 
L 143.440029 251.380618 
L 144.074914 251.342589 
L 144.709798 250.144591 
L 145.344683 248.26965 
L 145.979567 247.592707 
L 146.614452 246.516424 
L 147.249337 245.801432 
L 147.884221 244.782192 
L 148.519106 242.964314 
L 149.15399 242.652456 
L 149.788875 240.971473 
L 150.423759 241.211068 
L 151.058644 239.324722 
L 151.693528 238.910184 
L 152.328413 237.773043 
L 152.963297 236.088265 
L 153.598182 235.814435 
L 154.233066 236.312641 
L 155.502835 234.308395 
L 156.772604 232.828998 
L 157.407489 232.905055 
L 158.042373 231.980886 
L 159.947027 228.835705 
L 160.581911 227.778437 
L 161.216796 228.231024 
L 161.85168 226.648927 
L 162.486565 226.576664 
L 163.756334 225.047815 
L 164.391218 224.492546 
L 165.026103 223.454292 
L 165.660987 223.13864 
L 166.295872 221.385394 
L 166.930756 222.454087 
L 167.565641 220.362359 
L 168.200526 220.103749 
L 168.83541 218.791666 
L 169.470295 219.095914 
L 170.105179 218.711814 
L 170.740064 218.034851 
L 171.374948 217.179149 
L 172.009833 216.878696 
L 172.644717 216.232172 
L 173.279602 215.068428 
L 173.914486 214.250755 
L 174.549371 213.72211 
L 175.184255 213.809592 
L 175.81914 213.436897 
L 176.454024 212.505119 
L 177.723793 210.223248 
L 178.358678 210.348759 
L 178.993562 210.698645 
L 179.628447 208.987242 
L 180.263331 210.54649 
L 180.898216 209.420775 
L 181.5331 210.090149 
L 182.167985 208.591697 
L 182.802869 209.010051 
L 183.437754 207.694153 
L 184.072638 208.355897 
L 184.707523 207.38613 
L 185.342407 207.488791 
L 185.977292 206.644494 
L 186.612176 205.60626 
L 187.247061 206.191947 
L 187.881945 205.366665 
L 188.51683 205.758374 
L 189.151715 205.370459 
L 190.421484 203.925256 
L 191.056368 204.202921 
L 191.691253 202.894612 
L 192.326137 203.016327 
L 192.961022 202.289951 
L 193.595906 203.172276 
L 194.230791 201.799335 
L 194.865675 202.004697 
L 195.50056 202.715894 
L 196.135444 201.563534 
L 197.405213 201.061534 
L 198.040098 200.384571 
L 198.674982 199.878735 
L 199.309867 200.03089 
L 199.944751 198.969806 
L 200.579636 198.464012 
L 201.21452 198.768239 
L 201.849405 198.695977 
L 202.484289 199.186593 
L 203.119174 198.593317 
L 203.754058 198.425942 
L 204.388943 198.448792 
L 205.023827 197.908723 
L 206.293596 197.764239 
L 206.928481 198.346091 
L 207.563365 196.950341 
L 208.19825 197.292638 
L 208.833134 197.889709 
L 209.468019 198.030438 
L 210.102903 196.680347 
L 210.737788 196.916107 
L 211.372673 196.064221 
L 212.007557 196.851475 
L 212.642442 195.155292 
L 213.277326 196.277213 
L 213.912211 196.878079 
L 214.547095 196.144072 
L 215.18198 195.634483 
L 215.816864 194.900477 
L 216.451749 195.413902 
L 217.086633 196.242979 
L 217.721518 195.098249 
L 218.356402 195.041166 
L 218.991287 194.660881 
L 219.626171 194.94993 
L 220.261056 195.090619 
L 221.530825 194.45552 
L 222.165709 194.862448 
L 222.800594 193.79757 
L 223.435478 193.980123 
L 224.070363 195.06781 
L 224.705247 194.4403 
L 225.340132 193.135826 
L 225.975016 193.729103 
L 226.609901 193.942095 
L 227.244785 192.531125 
L 227.87967 193.151046 
L 228.514554 193.329763 
L 229.149439 192.65284 
L 229.784323 192.789735 
L 230.419208 193.147251 
L 231.054092 191.287489 
L 232.323862 191.565153 
L 232.958746 191.37497 
L 233.593631 192.569153 
L 234.8634 190.386149 
L 235.498284 190.625745 
L 236.133169 191.028879 
L 236.768053 191.572743 
L 237.402938 191.930218 
L 238.037822 190.081922 
L 239.307591 191.336942 
L 239.942476 189.511454 
L 240.57736 189.948822 
L 241.212245 190.036263 
L 241.847129 191.017495 
L 242.482014 189.636964 
L 243.116898 190.017249 
L 243.751783 190.983261 
L 244.386667 188.644348 
L 245.021552 189.952617 
L 245.656436 188.758434 
L 246.291321 189.412547 
L 246.926205 188.161322 
L 247.56109 190.62958 
L 248.195974 187.807641 
L 248.830859 189.199596 
L 249.465743 189.306092 
L 250.100628 188.678582 
L 250.735512 188.84971 
L 251.370397 189.865135 
L 252.005281 189.024633 
L 252.640166 188.872519 
L 253.27505 189.397369 
L 253.909935 189.153938 
L 254.54482 188.351505 
L 255.179704 188.568291 
L 255.814589 187.925562 
L 256.449473 189.199596 
L 257.084358 187.750598 
L 257.719242 188.172747 
L 258.354127 187.442535 
L 258.989011 189.317476 
L 259.623896 187.693555 
L 260.25878 186.955755 
L 260.893665 187.826655 
L 261.528549 186.731379 
L 262.163434 187.575675 
L 262.798318 186.404301 
L 263.433203 186.864478 
L 264.068087 187.518633 
L 264.702972 187.632718 
L 265.337856 185.887082 
L 265.972741 187.389287 
L 266.607625 186.529812 
L 267.24251 186.830244 
L 267.877394 186.70094 
L 268.512279 186.716159 
L 269.147163 186.172295 
L 269.782048 185.149281 
L 270.416932 186.130472 
L 271.051817 186.468933 
L 271.686701 187.655527 
L 272.321586 185.400261 
L 272.95647 186.56021 
L 273.591355 185.617047 
L 274.226239 186.590649 
L 274.861124 185.906096 
L 275.496009 185.81482 
L 276.130893 186.974769 
L 277.400662 185.510551 
L 278.035547 186.423316 
L 278.670431 186.522181 
L 279.305316 185.909891 
L 280.575085 184.335382 
L 281.209969 185.966933 
L 281.844854 185.871862 
L 282.479738 184.175679 
L 283.114623 185.4307 
L 283.749507 185.708324 
L 284.384392 185.468728 
L 285.019276 185.092238 
L 285.654161 184.354437 
L 286.289045 184.460893 
L 286.92393 184.069183 
L 289.463468 183.905645 
L 290.098352 184.67009 
L 290.733237 184.77275 
L 291.368121 184.335382 
L 292.003006 183.285724 
L 292.63789 184.034949 
L 293.272775 182.951057 
L 293.907659 184.369616 
L 294.542544 184.04258 
L 295.177428 183.357986 
L 295.812313 183.213462 
L 296.447197 184.951509 
L 297.082082 183.821998 
L 297.716967 183.183063 
L 298.351851 183.407439 
L 298.986736 181.947057 
L 299.62162 181.654214 
L 300.256505 183.456893 
L 300.891389 183.26671 
L 301.526274 181.638994 
L 302.161158 180.85174 
L 302.796043 182.49851 
L 303.430927 182.007894 
L 304.065812 181.022868 
L 304.700696 181.711256 
L 305.335581 181.368959 
L 305.970465 181.201626 
L 306.60535 179.980839 
L 307.240234 180.638748 
L 309.144888 180.798492 
L 309.779772 181.330931 
L 310.414657 180.509443 
L 311.684426 179.417961 
L 312.31931 179.178366 
L 312.954195 179.779272 
L 313.589079 178.961579 
L 314.223964 179.737408 
L 314.858848 177.554445 
L 315.493733 178.31126 
L 316.128617 179.402742 
L 316.763502 178.086884 
L 317.398386 177.79404 
L 318.033271 177.717984 
L 318.668156 177.466963 
L 319.30304 177.535431 
L 319.937925 177.782616 
L 320.572809 176.356467 
L 321.207694 177.075254 
L 321.842578 176.504786 
L 322.477463 177.162736 
L 323.747232 175.702313 
L 325.017001 176.767191 
L 325.651885 175.740341 
L 326.28677 175.922894 
L 326.921654 174.348426 
L 327.556539 174.386455 
L 328.191423 175.044363 
L 328.826308 175.455128 
L 330.730961 173.914853 
L 331.365846 174.496745 
L 332.00073 173.466101 
L 332.635615 173.561172 
L 333.270499 173.530733 
L 333.905384 172.412607 
L 334.540268 172.8614 
L 335.175153 173.48128 
L 335.810037 173.078146 
L 336.444922 173.428032 
L 337.079806 172.207245 
L 337.714691 173.945292 
L 338.349575 172.732095 
L 338.98446 172.405018 
L 339.619344 172.241479 
L 340.254229 171.157587 
L 340.889114 171.355359 
L 341.523998 172.055131 
L 342.158883 171.663422 
L 342.793767 169.761836 
L 343.428652 170.666971 
L 344.063536 170.282891 
L 344.698421 170.606133 
L 345.333305 170.081324 
L 345.96819 170.45402 
L 346.603074 171.153792 
L 347.872843 169.191369 
L 348.507728 169.29407 
L 349.777497 168.704588 
L 350.412381 168.944184 
L 351.047266 170.092708 
L 351.68215 168.548639 
L 352.317035 168.008611 
L 352.951919 168.818674 
L 353.586804 168.328058 
L 354.221688 168.335688 
L 354.856573 168.887141 
L 356.126342 167.080627 
L 356.761226 168.53342 
L 358.030995 167.392485 
L 358.66588 167.13771 
L 359.300764 167.415334 
L 359.935649 166.814428 
L 361.205418 167.202342 
L 361.840303 166.783989 
L 362.475187 166.10323 
L 363.110072 165.74955 
L 363.744956 167.259385 
L 364.379841 167.692958 
L 365.014725 166.88669 
L 365.64961 165.277948 
L 366.284494 166.749755 
L 366.919379 165.897869 
L 367.554263 167.213767 
L 368.824032 165.98535 
L 369.458917 165.871265 
L 370.093801 165.141054 
L 370.728686 165.951117 
L 371.36357 165.289373 
L 371.998455 165.011749 
L 372.633339 165.198096 
L 373.268224 164.064751 
L 373.903108 164.680877 
L 374.537993 164.642848 
L 375.172877 164.429856 
L 375.807762 164.787373 
L 376.442646 164.285332 
L 377.077531 164.920472 
L 377.712415 164.376608 
L 378.982184 164.779743 
L 379.617069 165.030763 
L 380.251953 164.380444 
L 380.886838 164.163657 
L 381.521722 165.004159 
L 382.156607 165.026968 
L 384.061261 163.676836 
L 384.696145 163.555161 
L 385.33103 163.893623 
L 385.965914 163.353594 
L 386.600799 164.000119 
L 387.235683 163.889828 
L 387.870568 164.540147 
L 388.505452 164.254934 
L 389.140337 164.494529 
L 389.775221 163.783332 
L 390.410106 164.916678 
L 391.04499 163.08356 
L 391.679875 163.498119 
L 392.314759 164.486899 
L 392.949644 164.232125 
L 393.584528 162.501667 
L 394.219413 163.117793 
L 394.854297 163.463885 
L 395.489182 164.490734 
L 396.124066 163.300346 
L 396.758951 162.862978 
L 397.393835 163.045531 
L 398.02872 163.353594 
L 398.663604 162.56634 
L 399.298489 163.992529 
L 399.933373 163.737714 
L 400.568258 164.46409 
L 401.203142 163.288921 
L 401.838027 164.007708 
L 402.472911 162.562545 
L 403.107796 165.11445 
L 403.74268 163.562751 
L 404.377565 163.943076 
L 405.01245 163.851799 
L 405.647334 164.890033 
L 406.282219 163.96209 
L 407.551988 165.000324 
L 408.186872 164.330991 
L 408.821757 164.372814 
L 409.456641 164.718905 
L 410.091526 163.121588 
L 410.72641 164.677082 
L 411.361295 164.441281 
L 411.996179 166.038598 
L 412.631064 164.494529 
L 413.900833 164.852005 
L 414.535717 165.23233 
L 415.170602 164.121834 
L 415.805486 165.376854 
L 416.440371 165.064997 
L 417.075255 163.714864 
L 417.71014 164.46409 
L 418.345024 164.916678 
L 418.979909 165.129629 
L 419.614793 164.559161 
L 420.249678 165.536558 
L 420.884562 166.183123 
L 421.519447 164.852005 
L 422.154331 165.281783 
L 422.789216 164.969926 
L 423.4241 163.859389 
L 424.058985 163.304141 
L 424.693869 165.414883 
L 425.328754 165.220905 
L 425.963638 164.582011 
L 426.598523 165.544188 
L 427.233408 165.646848 
L 427.868292 165.627834 
L 428.503177 166.365676 
L 429.138061 165.502365 
L 429.772946 164.110409 
L 430.40783 165.684918 
L 431.042715 164.171247 
L 431.677599 164.308182 
L 432.312484 164.71511 
L 432.947368 164.775948 
L 433.582253 164.692302 
L 434.217137 165.47572 
L 434.852022 166.567243 
L 435.486906 166.51779 
L 436.121791 164.867224 
L 436.756675 165.844621 
L 437.39156 164.71511 
L 438.026444 165.943527 
L 438.661329 165.74196 
L 439.296213 165.354046 
L 439.931098 165.148643 
L 440.565982 165.384444 
L 441.200867 166.091846 
L 441.835751 166.426513 
L 443.10552 165.63167 
L 443.740405 167.107271 
L 444.375289 167.156725 
L 445.010174 167.856497 
L 445.645058 167.468582 
L 446.279943 167.483761 
L 446.914827 167.118655 
L 447.549712 167.308838 
L 448.184597 167.947773 
L 448.819481 167.746206 
L 449.454366 167.947773 
L 450.08925 167.073037 
L 450.724135 167.26318 
L 451.359019 168.464993 
L 451.993904 168.153135 
L 452.628788 168.096093 
L 453.263673 169.058269 
L 453.898557 168.579078 
L 454.533442 167.312633 
L 455.168326 167.297413 
L 455.803211 168.267221 
L 456.438095 167.829853 
L 457.07298 168.012405 
L 457.707864 167.286029 
L 458.342749 169.149546 
L 459.612518 169.04305 
L 460.247402 168.213973 
L 461.517171 168.560064 
L 462.152056 167.848867 
L 462.78694 167.784235 
L 463.421825 169.54505 
L 464.056709 168.590462 
L 464.691594 168.343277 
L 465.326478 168.989802 
L 466.596247 168.715973 
L 467.231132 170.0699 
L 467.866016 169.533666 
L 468.500901 170.4388 
L 469.135785 169.221808 
L 469.77067 171.19182 
L 470.405555 170.248658 
L 471.675324 169.491802 
L 472.310208 171.347729 
L 472.945093 169.449979 
L 473.579977 169.290276 
L 474.214862 169.788481 
L 474.849746 168.78444 
L 475.484631 169.731438 
L 476.119515 168.761631 
L 477.389284 171.19182 
L 478.024169 168.997432 
L 478.659053 170.838139 
L 479.293938 170.898977 
L 479.928822 171.336345 
L 480.563707 170.0699 
L 482.46836 170.994048 
L 483.103245 170.549091 
L 484.373014 170.56431 
L 485.007898 170.876168 
L 485.642783 170.826715 
L 486.277667 171.161381 
L 486.912552 170.609928 
L 487.547436 171.256452 
L 488.182321 169.967198 
L 488.817205 171.115763 
L 489.45209 170.803906 
L 490.086974 171.97528 
L 491.356744 171.667217 
L 491.991628 171.686231 
L 492.626513 170.480623 
L 493.261397 172.036117 
L 493.896282 172.279507 
L 494.531166 171.823125 
L 495.166051 172.169217 
L 495.800935 172.017103 
L 496.43582 173.85018 
L 497.070704 171.621558 
L 497.705589 172.340345 
L 498.340473 173.291138 
L 498.975358 173.275918 
L 499.610242 173.070556 
L 500.245127 173.017308 
L 500.880011 172.446841 
L 501.514896 171.663422 
L 502.14978 172.115969 
L 503.419549 173.679052 
L 504.054434 173.553542 
L 505.324203 173.713286 
L 505.959087 174.629845 
L 506.593972 173.184642 
L 507.228856 172.933662 
L 507.863741 173.667668 
L 508.498625 173.564967 
L 509.768394 174.922689 
L 510.403279 174.181052 
L 511.038163 173.226506 
L 511.673048 174.139229 
L 512.307933 173.108585 
L 512.942817 171.667217 
L 513.577702 173.880619 
L 514.212586 173.420442 
L 514.847471 174.264739 
L 515.482355 174.903674 
L 516.752124 172.804357 
L 517.387009 173.8654 
L 518.021893 173.192272 
L 518.656778 173.306357 
L 519.291662 172.724465 
L 519.926547 174.432073 
L 520.561431 175.200313 
L 521.196316 173.914853 
L 521.8312 175.040569 
L 522.466085 173.507924 
L 523.100969 174.823782 
L 524.370738 174.530938 
L 525.005623 175.162284 
L 525.640507 174.527144 
L 526.275392 174.800973 
L 526.910276 175.968553 
L 527.545161 173.420442 
L 528.180045 174.713491 
L 529.449814 174.705902 
L 530.084699 174.382619 
L 530.719583 174.603201 
L 531.354468 174.108831 
L 531.989352 174.62605 
L 532.624237 173.709491 
L 533.259121 174.527144 
L 533.894006 174.120215 
L 534.528891 174.295178 
L 535.79866 176.618872 
L 536.433544 174.641229 
L 537.068429 174.949292 
L 537.703313 175.595817 
L 538.338198 175.637681 
L 538.973082 175.546404 
L 539.607967 175.869646 
L 540.242851 176.341248 
L 540.877736 175.249766 
L 541.51262 176.835658 
L 542.147505 176.721573 
L 542.782389 175.071008 
L 543.417274 176.322233 
L 544.052158 176.580843 
L 544.687043 176.443908 
L 545.321927 175.542569 
L 545.956812 176.694929 
L 546.591696 176.569418 
L 547.226581 175.960922 
L 547.861465 177.459374 
L 548.49635 176.751971 
L 549.131234 176.755766 
L 549.766119 176.265191 
L 550.401003 176.816644 
L 551.035888 176.888906 
L 551.670772 175.550199 
L 552.305657 177.242587 
L 553.575426 176.90792 
L 554.21031 177.527801 
L 554.845195 177.66853 
L 555.48008 178.520416 
L 556.114964 177.919551 
L 556.749849 177.695134 
L 557.384733 176.885071 
L 558.019618 176.67212 
L 558.654502 177.835864 
L 559.289387 176.143475 
L 559.924271 177.052445 
L 560.559156 176.611282 
L 561.19404 177.581048 
L 561.828925 177.082843 
L 562.463809 175.709943 
L 563.098694 177.672325 
L 563.733578 176.360262 
L 564.368463 176.702559 
L 565.003347 177.581048 
L 565.638232 178.661146 
L 566.273116 176.558034 
L 566.908001 177.147516 
L 567.542885 177.413715 
L 568.17777 176.759601 
L 568.812654 177.371892 
L 569.447539 177.326233 
L 570.082423 177.463168 
L 571.352192 178.566075 
L 571.987077 178.018416 
L 572.621961 177.915715 
L 573.256846 178.223778 
L 573.89173 176.691134 
L 574.526615 176.485772 
L 575.796384 177.965168 
L 576.431268 177.006786 
L 577.066153 178.459579 
L 577.701038 178.851288 
L 578.335922 178.071664 
L 578.970807 176.892701 
L 579.605691 178.756217 
L 580.240576 178.463374 
L 580.87546 176.39829 
L 581.510345 178.471004 
L 582.145229 179.201175 
L 582.780114 179.243039 
L 582.780114 179.243039 
" clip-path="url(#p0d37585a0b)" style="fill: none; stroke: #1f77b4; stroke-width: 1.5; stroke-linecap: square"/>
   </g>
   <g id="line2d_36">
    <path d="M 75.507386 435.425025 
L 76.142271 394.214408 
L 76.777155 383.124505 
L 77.41204 380.146657 
L 78.046924 392.160719 
L 78.681809 353.448769 
L 79.316693 348.58837 
L 79.951578 373.746004 
L 80.586462 370.494347 
L 81.221347 350.299772 
L 81.856232 369.501731 
L 82.491116 332.946131 
L 83.126001 360.465507 
L 83.760885 381.550017 
L 84.39577 341.742759 
L 85.030654 333.801832 
L 85.665539 340.305166 
L 86.300423 330.105197 
L 86.935308 380.591635 
L 87.570192 344.37831 
L 88.205077 394.248632 
L 88.839961 390.723146 
L 89.474846 421.459965 
L 90.10973 394.385546 
L 90.744615 467.394046 
L 91.379499 411.533816 
L 92.014384 434.706229 
L 92.649268 411.602273 
L 93.284153 416.154609 
L 93.919037 425.670014 
L 94.553922 412.766028 
L 95.188806 389.182881 
L 95.823691 379.872848 
L 96.458575 433.302879 
L 97.09346 404.174781 
L 97.728344 402.702974 
L 98.363229 398.698287 
L 98.998113 385.520481 
L 99.632998 382.131889 
L 100.267882 387.745298 
L 100.902767 364.05946 
L 101.537651 388.019127 
L 102.172536 390.175497 
L 102.80742 387.813755 
L 103.442305 366.729266 
L 104.07719 364.264843 
L 104.712074 377.27151 
L 105.346959 360.705123 
L 105.981843 374.875535 
L 106.616728 391.749985 
L 107.251612 375.217811 
L 107.886497 363.95678 
L 108.521381 376.689618 
L 109.156266 369.159455 
L 109.79115 376.929234 
L 110.426035 347.287711 
L 111.060919 379.290956 
L 111.695804 313.264981 
L 112.330688 341.537377 
L 112.965573 350.676283 
L 113.600457 311.177068 
L 114.235342 369.604412 
L 114.870226 318.809932 
L 115.505111 328.63339 
L 116.139995 351.87426 
L 116.77488 313.778405 
L 117.409764 391.031198 
L 118.044649 328.085752 
L 118.679533 337.327338 
L 119.314418 305.803265 
L 119.949302 299.299931 
L 120.584187 335.444787 
L 121.219071 307.685816 
L 121.853956 308.849559 
L 122.48884 319.049528 
L 123.123725 313.059619 
L 123.758609 328.564943 
L 124.393494 326.066287 
L 125.028379 303.818033 
L 125.663263 295.63753 
L 126.298148 295.432148 
L 126.933032 279.653014 
L 127.567917 276.914762 
L 128.202801 278.48925 
L 128.837686 324.115288 
L 129.47257 280.200653 
L 130.107455 306.04286 
L 130.742339 307.001242 
L 131.377224 305.632116 
L 132.012108 300.737504 
L 132.646993 238.339716 
L 133.281877 242.002117 
L 133.916762 269.966471 
L 134.551646 288.689218 
L 135.186531 303.030799 
L 135.821415 293.036192 
L 136.4563 279.618781 
L 137.091184 299.744888 
L 137.726069 291.290556 
L 138.360953 271.472491 
L 138.995838 280.816758 
L 139.630722 247.581302 
L 140.265607 283.657692 
L 140.900491 276.777847 
L 141.535376 229.47464 
L 142.17026 236.902123 
L 142.805145 237.757844 
L 143.440029 239.058503 
L 144.074914 196.718375 
L 144.709798 259.45844 
L 145.344683 274.963764 
L 145.979567 264.010775 
L 146.614452 231.767915 
L 147.249337 250.627597 
L 147.884221 201.989477 
L 148.519106 236.525633 
L 149.15399 260.793332 
L 149.788875 245.732985 
L 150.423759 292.009343 
L 151.058644 204.693496 
L 151.693528 295.089871 
L 152.328413 243.337009 
L 152.963297 239.400779 
L 153.598182 284.376478 
L 154.233066 242.720904 
L 154.867951 228.173961 
L 155.502835 227.934366 
L 156.13772 260.108779 
L 156.772604 237.449781 
L 157.407489 275.271807 
L 158.042373 241.694074 
L 158.677258 242.960499 
L 159.312142 242.618223 
L 159.947027 229.029683 
L 160.581911 221.87601 
L 161.216796 238.955822 
L 161.85168 252.612829 
L 162.486565 201.749882 
L 163.121449 198.703607 
L 163.756334 233.41087 
L 164.391218 243.234328 
L 165.026103 222.731711 
L 165.660987 222.012924 
L 166.295872 236.730995 
L 166.930756 231.870596 
L 167.565641 271.438278 
L 168.200526 230.672618 
L 168.83541 296.493231 
L 169.470295 237.141739 
L 170.105179 198.019014 
L 170.740064 206.576067 
L 171.374948 231.699468 
L 172.009833 205.48075 
L 172.644717 250.422236 
L 173.279602 189.941192 
L 173.914486 173.066762 
L 174.549371 222.526329 
L 175.184255 200.620372 
L 175.81914 235.56723 
L 176.454024 238.237035 
L 177.088909 184.738517 
L 177.723793 207.021025 
L 178.358678 218.04246 
L 178.993562 241.522926 
L 179.628447 223.484731 
L 180.263331 180.596925 
L 180.898216 252.202085 
L 181.5331 193.158635 
L 182.167985 257.404761 
L 182.802869 223.38203 
L 183.437754 174.333207 
L 184.072638 203.290156 
L 184.707523 211.915637 
L 185.342407 193.740528 
L 185.977292 185.868068 
L 186.612176 161.258072 
L 187.881945 244.09003 
L 188.51683 196.444546 
L 189.151715 239.87997 
L 189.786599 172.005678 
L 190.421484 213.627039 
L 191.056368 206.473366 
L 191.691253 192.850572 
L 192.326137 212.839785 
L 192.961022 195.383463 
L 193.595906 169.712383 
L 194.230791 246.520219 
L 194.865675 223.279349 
L 195.50056 226.633707 
L 196.135444 246.965197 
L 196.770329 179.090884 
L 197.405213 192.679444 
L 198.040098 225.846453 
L 198.674982 178.098268 
L 199.309867 195.520398 
L 199.944751 224.511561 
L 200.579636 225.469943 
L 201.21452 199.490821 
L 201.849405 192.439849 
L 202.484289 166.974172 
L 203.119174 214.790783 
L 203.754058 195.246568 
L 204.388943 241.454458 
L 205.023827 236.251803 
L 205.658712 217.015611 
L 206.293596 240.804139 
L 206.928481 237.039037 
L 207.563365 174.74393 
L 208.19825 218.487418 
L 208.833134 195.554591 
L 209.468019 207.910939 
L 210.102903 236.149123 
L 210.737788 195.486164 
L 211.372673 195.759993 
L 212.007557 179.946606 
L 212.642442 182.479496 
L 213.277326 240.359161 
L 213.912211 175.633845 
L 214.547095 254.084636 
L 215.18198 166.323812 
L 215.816864 183.917069 
L 216.451749 223.073987 
L 217.086633 166.152684 
L 217.721518 163.893623 
L 218.356402 204.967325 
L 218.991287 171.594955 
L 219.626171 225.743772 
L 220.261056 196.204951 
L 220.89594 148.867489 
L 221.530825 143.493686 
L 222.165709 225.675325 
L 222.800594 188.298257 
L 223.435478 213.969336 
L 224.070363 228.550471 
L 224.705247 203.32439 
L 225.340132 247.683983 
L 225.975016 187.511003 
L 226.609901 169.780851 
L 227.244785 194.870038 
L 227.87967 171.766083 
L 228.514554 120.081668 
L 229.149439 244.945731 
L 229.784323 145.170855 
L 230.419208 155.986929 
L 231.054092 236.799442 
L 231.688977 178.372097 
L 232.323862 218.966609 
L 232.958746 186.176131 
L 233.593631 212.565956 
L 234.228515 181.555307 
L 234.8634 205.10426 
L 235.498284 178.885522 
L 236.133169 223.142434 
L 236.768053 218.932396 
L 237.402938 176.729162 
L 238.037822 270.445662 
L 238.672707 219.925011 
L 239.307591 124.291727 
L 239.942476 166.289578 
L 240.57736 130.623912 
L 241.212245 165.570791 
L 241.847129 188.161322 
L 243.116898 184.77275 
L 243.751783 205.925707 
L 244.386667 244.603455 
L 245.021552 137.024565 
L 245.656436 166.905704 
L 246.291321 184.601622 
L 246.926205 178.132502 
L 247.56109 191.276105 
L 248.195974 160.607752 
L 248.830859 177.82448 
L 249.465743 219.651182 
L 250.100628 188.811682 
L 250.735512 191.584168 
L 251.370397 205.651878 
L 252.005281 255.864486 
L 252.640166 216.53642 
L 253.27505 231.562553 
L 253.909935 274.518807 
L 254.54482 149.312447 
L 255.179704 177.653311 
L 255.814589 166.837237 
L 256.449473 187.819066 
L 257.084358 190.283489 
L 257.719242 213.045147 
L 258.354127 215.783399 
L 259.623896 139.933987 
L 260.25878 221.465266 
L 260.893665 196.512973 
L 261.528549 199.627756 
L 262.163434 163.243303 
L 262.798318 142.295708 
L 263.433203 226.873303 
L 264.068087 160.299689 
L 264.702972 249.15579 
L 265.972741 183.814368 
L 266.607625 174.504335 
L 267.24251 157.253374 
L 267.877394 170.123148 
L 268.512279 169.096298 
L 269.147163 192.097552 
L 269.782048 182.924453 
L 270.416932 207.055258 
L 271.051817 182.445262 
L 271.686701 185.388876 
L 272.321586 243.781987 
L 272.95647 202.708264 
L 273.591355 175.839248 
L 274.226239 216.707568 
L 274.861124 242.241712 
L 275.496009 179.193585 
L 276.130893 189.701596 
L 276.765778 169.849318 
L 277.400662 213.798167 
L 278.035547 229.816917 
L 278.670431 185.868068 
L 279.305316 194.870038 
L 279.9402 188.435151 
L 280.575085 148.97019 
L 281.209969 203.221689 
L 281.844854 233.78738 
L 283.114623 158.040628 
L 283.749507 161.908391 
L 284.384392 221.396818 
L 285.019276 168.514405 
L 285.654161 193.466698 
L 286.289045 166.974172 
L 286.92393 172.108379 
L 287.558814 161.600328 
L 288.193699 168.377511 
L 288.828583 164.509749 
L 289.463468 198.532438 
L 290.098352 209.964639 
L 291.368121 177.92714 
L 292.003006 191.89219 
L 292.63789 220.301522 
L 293.272775 176.010376 
L 293.907659 210.580724 
L 294.542544 266.954389 
L 295.177428 179.980839 
L 295.812313 242.378627 
L 296.447197 219.274672 
L 297.082082 188.98281 
L 297.716967 185.320409 
L 298.351851 184.704324 
L 298.986736 238.442397 
L 299.62162 180.460031 
L 300.256505 181.041882 
L 300.891389 219.171991 
L 301.526274 220.883394 
L 302.796043 168.27481 
L 303.430927 183.232517 
L 304.065812 174.196272 
L 304.700696 138.56484 
L 305.335581 212.32636 
L 305.970465 224.237731 
L 306.60535 174.333207 
L 307.240234 175.188888 
L 307.875119 231.494086 
L 308.510003 192.029125 
L 309.144888 194.630442 
L 309.779772 161.634561 
L 311.049541 188.503619 
L 311.684426 201.270691 
L 312.31931 150.270869 
L 312.954195 188.537852 
L 313.589079 183.609006 
L 314.223964 179.843904 
L 314.858848 196.718375 
L 315.493733 170.533871 
L 316.128617 206.61026 
L 316.763502 221.670627 
L 317.398386 209.656576 
L 318.033271 160.40235 
L 318.668156 179.433181 
L 319.30304 221.157223 
L 319.937925 176.660695 
L 320.572809 224.819624 
L 321.207694 175.599652 
L 321.842578 227.660557 
L 322.477463 174.572802 
L 323.112347 229.166577 
L 323.747232 192.64521 
L 324.382116 225.504177 
L 325.017001 207.226386 
L 325.651885 194.082784 
L 326.28677 108.649508 
L 326.921654 216.26259 
L 327.556539 165.673493 
L 328.191423 177.516416 
L 328.826308 153.043315 
L 329.461192 171.115763 
L 330.096077 199.593522 
L 330.730961 222.902839 
L 331.365846 206.644494 
L 332.00073 182.342561 
L 332.635615 124.086365 
L 333.270499 180.357329 
L 333.905384 136.716543 
L 334.540268 180.015073 
L 335.175153 160.299689 
L 335.810037 135.313163 
L 336.444922 230.12498 
L 337.079806 198.772034 
L 337.714691 205.959941 
L 338.349575 206.678728 
L 338.98446 107.383063 
L 339.619344 173.169422 
L 340.254229 158.99901 
L 340.889114 212.257893 
L 341.523998 123.607174 
L 342.158883 202.810965 
L 342.793767 181.178817 
L 343.428652 155.302376 
L 344.063536 201.065329 
L 344.698421 152.803719 
L 345.333305 138.907137 
L 345.96819 238.681993 
L 346.603074 150.37353 
L 347.237959 182.924453 
L 347.872843 164.133218 
L 348.507728 163.380198 
L 349.142612 266.954389 
L 349.777497 253.126254 
L 350.412381 244.774583 
L 351.047266 167.1453 
L 351.68215 108.615274 
L 352.317035 217.255206 
L 352.951919 200.894201 
L 353.586804 168.035214 
L 354.221688 156.979545 
L 354.856573 152.221868 
L 355.491457 244.774583 
L 356.126342 238.065887 
L 356.761226 157.698331 
L 357.396111 162.147986 
L 358.030995 121.79307 
L 358.66588 108.889104 
L 359.300764 214.688102 
L 359.935649 192.474082 
L 360.570533 152.872187 
L 361.205418 176.592268 
L 361.840303 223.861241 
L 363.110072 189.462001 
L 363.744956 204.659262 
L 364.379841 190.180787 
L 365.014725 171.218424 
L 365.64961 94.205267 
L 366.284494 145.136621 
L 366.919379 172.108379 
L 367.554263 204.522368 
L 368.189148 162.901007 
L 368.824032 203.974709 
L 369.458917 203.803581 
L 370.093801 181.829136 
L 370.728686 208.150535 
L 371.36357 175.907674 
L 371.998455 279.24227 
L 372.633339 119.465582 
L 373.268224 205.070026 
L 373.903108 198.327077 
L 374.537993 210.238468 
L 375.172877 210.17 
L 375.807762 219.206204 
L 376.442646 186.039196 
L 377.077531 194.69891 
L 377.712415 145.03396 
L 378.3473 200.859967 
L 378.982184 187.921726 
L 379.617069 127.577638 
L 380.251953 144.144005 
L 380.886838 244.055796 
L 381.521722 172.758699 
L 382.156607 136.40848 
L 382.791491 182.205667 
L 383.426376 114.605204 
L 384.061261 107.622659 
L 384.696145 118.370265 
L 385.33103 131.856124 
L 385.965914 232.623616 
L 386.600799 172.484869 
L 387.235683 134.799738 
L 387.870568 210.580724 
L 388.505452 137.572224 
L 389.140337 126.721916 
L 389.775221 221.87601 
L 390.410106 142.12458 
L 391.04499 149.483615 
L 391.679875 162.387582 
L 392.314759 146.403066 
L 392.949644 230.50149 
L 393.584528 178.509032 
L 394.219413 193.637826 
L 394.854297 142.603771 
L 395.489182 106.664276 
L 396.124066 84.21064 
L 396.758951 184.430494 
L 397.393835 76.61201 
L 398.02872 181.589541 
L 398.663604 193.774761 
L 399.298489 135.689693 
L 399.933373 193.843188 
L 400.568258 160.881541 
L 401.203142 184.362027 
L 401.838027 203.255923 
L 402.472911 214.071997 
L 403.107796 162.729879 
L 403.74268 173.443251 
L 404.377565 192.713678 
L 405.01245 141.268858 
L 406.282219 194.972739 
L 406.917103 123.84677 
L 407.551988 166.221151 
L 408.186872 165.36543 
L 408.821757 237.175952 
L 409.456641 192.131785 
L 410.091526 225.641091 
L 410.72641 211.333744 
L 411.361295 178.68016 
L 411.996179 181.760669 
L 412.631064 147.772213 
L 413.265948 241.351777 
L 413.900833 250.319534 
L 414.535717 169.02783 
L 415.170602 163.551367 
L 415.805486 219.411587 
L 416.440371 151.366146 
L 417.075255 171.08153 
L 417.71014 132.84874 
L 418.345024 191.89219 
L 418.979909 126.174298 
L 420.249678 195.588824 
L 420.884562 171.492253 
L 421.519447 258.534291 
L 422.154331 156.637289 
L 422.789216 205.138453 
L 423.4241 177.995608 
L 424.058985 167.076832 
L 425.328754 228.584705 
L 425.963638 84.48447 
L 426.598523 196.170717 
L 427.233408 177.858672 
L 427.868292 147.395682 
L 428.503177 203.837815 
L 429.138061 97.764967 
L 429.772946 152.632591 
L 430.40783 139.523222 
L 431.042715 218.453204 
L 431.677599 159.478201 
L 432.312484 159.923159 
L 432.947368 162.284921 
L 433.582253 197.265993 
L 434.217137 216.53642 
L 434.852022 288.757686 
L 435.486906 214.961932 
L 436.121791 165.331196 
L 436.756675 218.247822 
L 437.39156 155.473504 
L 438.026444 78.289178 
L 438.661329 216.433739 
L 439.296213 149.34668 
L 439.931098 122.203835 
L 440.565982 166.358046 
L 441.200867 133.704462 
L 441.835751 151.468847 
L 442.470636 226.496792 
L 443.10552 193.261336 
L 443.740405 168.993597 
L 444.375289 139.180966 
L 445.010174 128.980977 
L 445.645058 166.563407 
L 446.279943 137.093033 
L 446.914827 161.874157 
L 447.549712 135.039374 
L 448.184597 153.488272 
L 448.819481 262.983926 
L 449.454366 141.063497 
L 450.08925 191.310338 
L 450.724135 205.412283 
L 451.359019 181.692242 
L 451.993904 197.916353 
L 452.628788 242.652456 
L 453.263673 217.220993 
L 453.898557 201.955244 
L 454.533442 143.596387 
L 455.168326 154.343994 
L 455.803211 209.211618 
L 456.438095 177.756012 
L 457.07298 106.69851 
L 457.707864 171.08153 
L 458.342749 146.197704 
L 458.977633 203.906242 
L 459.612518 134.217886 
L 460.247402 171.184231 
L 460.882287 133.293738 
L 461.517171 185.560004 
L 462.152056 209.211618 
L 462.78694 200.243841 
L 463.421825 177.208353 
L 464.056709 196.58144 
L 464.691594 138.633307 
L 465.326478 189.838531 
L 465.961363 186.689515 
L 466.596247 174.778164 
L 467.231132 246.383304 
L 467.866016 262.196692 
L 468.500901 209.177385 
L 469.135785 136.78497 
L 470.405555 257.678569 
L 471.675324 160.40235 
L 472.310208 261.649033 
L 472.945093 127.783 
L 474.214862 226.667941 
L 474.849746 251.346384 
L 475.484631 89.276421 
L 476.119515 216.844483 
L 476.7544 201.441819 
L 477.389284 242.720904 
L 478.024169 123.538707 
L 478.659053 179.501648 
L 479.293938 142.466836 
L 479.928822 209.964639 
L 480.563707 199.593522 
L 481.198591 149.688977 
L 481.833476 163.551367 
L 482.46836 215.441123 
L 483.103245 213.627039 
L 483.738129 225.949154 
L 484.373014 141.37156 
L 485.007898 131.582335 
L 485.642783 147.601044 
L 486.277667 138.872903 
L 486.912552 154.035931 
L 487.547436 207.021025 
L 488.182321 197.847886 
L 488.817205 47.518125 
L 490.086974 228.790067 
L 490.721859 236.388718 
L 491.356744 209.588108 
L 491.991628 159.546669 
L 492.626513 249.600748 
L 493.261397 183.129815 
L 493.896282 241.65984 
L 494.531166 267.296666 
L 495.166051 128.467553 
L 495.800935 236.662527 
L 496.43582 177.242587 
L 497.070704 222.081371 
L 497.705589 156.055396 
L 498.340473 203.016327 
L 498.975358 158.862116 
L 499.610242 193.29557 
L 500.245127 193.021741 
L 500.880011 158.451352 
L 501.514896 138.975564 
L 502.14978 229.132364 
L 502.784665 179.364713 
L 503.419549 189.804298 
L 504.054434 173.032528 
L 504.689318 210.54649 
L 505.324203 233.6847 
L 505.959087 185.628472 
L 506.593972 296.219402 
L 507.228856 225.949154 
L 507.863741 109.025998 
L 508.498625 228.208195 
L 509.13351 245.527603 
L 509.768394 135.450098 
L 510.403279 145.68428 
L 511.038163 173.032528 
L 511.673048 175.188888 
L 512.307933 227.044451 
L 512.942817 234.129657 
L 513.577702 114.365608 
L 514.212586 181.11035 
L 514.847471 221.773329 
L 515.482355 205.85724 
L 516.11724 256.994017 
L 516.752124 113.81795 
L 517.387009 144.349408 
L 518.021893 213.969336 
L 518.656778 161.189604 
L 519.291662 169.575489 
L 519.926547 228.790067 
L 520.561431 72.230822 
L 521.196316 107.930722 
L 521.8312 284.547627 
L 522.466085 257.644356 
L 523.100969 106.253553 
L 523.735854 80.582473 
L 524.370738 173.682847 
L 525.005623 177.584843 
L 525.640507 217.186759 
L 526.275392 217.015611 
L 526.910276 194.733144 
L 527.545161 190.454617 
L 528.180045 111.490421 
L 528.81493 231.220277 
L 529.449814 244.261178 
L 530.084699 206.781429 
L 530.719583 266.543645 
L 531.989352 175.702313 
L 532.624237 286.498625 
L 533.259121 260.861799 
L 535.163775 139.249393 
L 535.79866 197.676758 
L 536.433544 270.61679 
L 537.703313 161.531901 
L 538.338198 250.627597 
L 538.973082 168.719808 
L 540.242851 206.88409 
L 540.877736 230.912214 
L 542.147505 196.684142 
L 542.782389 202.400242 
L 543.417274 203.735114 
L 544.052158 208.013641 
L 544.687043 191.994891 
L 545.321927 258.465824 
L 545.956812 266.577879 
L 546.591696 125.7293 
L 547.226581 233.753147 
L 547.861465 74.934841 
L 548.49635 198.772034 
L 549.131234 215.406889 
L 549.766119 246.041028 
L 550.401003 101.769664 
L 551.035888 265.516816 
L 551.670772 201.886817 
L 552.305657 266.749028 
L 552.940541 113.16759 
L 553.575426 189.598936 
L 554.21031 162.284921 
L 554.845195 149.99704 
L 555.48008 159.580903 
L 556.114964 189.73583 
L 556.749849 134.833972 
L 557.384733 168.719808 
L 558.019618 234.369252 
L 558.654502 186.073429 
L 559.289387 148.867489 
L 559.924271 73.018076 
L 560.559156 205.720346 
L 561.828925 251.004108 
L 562.463809 224.13505 
L 563.098694 158.554053 
L 563.733578 223.553178 
L 564.368463 205.241155 
L 565.003347 166.734576 
L 565.638232 257.404761 
L 566.273116 145.958109 
L 566.908001 190.043893 
L 567.542885 174.435867 
L 568.17777 180.494264 
L 568.812654 137.264161 
L 569.447539 239.229651 
L 570.717308 201.681414 
L 571.352192 121.450814 
L 571.987077 147.258788 
L 572.621961 198.327077 
L 573.256846 218.795481 
L 573.89173 131.479634 
L 574.526615 157.903734 
L 575.161499 254.153083 
L 575.796384 183.506305 
L 576.431268 270.377194 
L 577.066153 202.605604 
L 577.701038 200.996861 
L 578.335922 167.556023 
L 578.970807 209.861937 
L 579.605691 260.861799 
L 580.240576 153.55674 
L 580.87546 177.687544 
L 581.510345 178.440565 
L 582.145229 237.757844 
L 582.780114 232.897445 
L 582.780114 232.897445 
" clip-path="url(#p0d37585a0b)" style="fill: none; stroke: #ff7f0e; stroke-width: 1.5; stroke-linecap: square"/>
   </g>
   <g id="line2d_37">
    <path d="M 50.14375 551.518125 
L 608.14375 551.518125 
" clip-path="url(#p0d37585a0b)" style="fill: none; stroke-dasharray: 11.1,4.8; stroke-dashoffset: 0; stroke: #ff0000; stroke-width: 3"/>
   </g>
   <g id="patch_3">
    <path d="M 50.14375 576.718125 
L 50.14375 22.318125 
" style="fill: none; stroke: #000000; stroke-width: 0.8; stroke-linejoin: miter; stroke-linecap: square"/>
   </g>
   <g id="patch_4">
    <path d="M 608.14375 576.718125 
L 608.14375 22.318125 
" style="fill: none; stroke: #000000; stroke-width: 0.8; stroke-linejoin: miter; stroke-linecap: square"/>
   </g>
   <g id="patch_5">
    <path d="M 50.14375 576.718125 
L 608.14375 576.718125 
" style="fill: none; stroke: #000000; stroke-width: 0.8; stroke-linejoin: miter; stroke-linecap: square"/>
   </g>
   <g id="patch_6">
    <path d="M 50.14375 22.318125 
L 608.14375 22.318125 
" style="fill: none; stroke: #000000; stroke-width: 0.8; stroke-linejoin: miter; stroke-linecap: square"/>
   </g>
   <g id="text_20">
    <!-- Train and Val Accuracy -->
    <g transform="translate(261.365313 16.318125) scale(0.12 -0.12)">
     <defs>
      <path id="DejaVuSans-54" d="M -19 4666 
L 3928 4666 
L 3928 4134 
L 2272 4134 
L 2272 0 
L 1638 0 
L 1638 4134 
L -19 4134 
L -19 4666 
z
" transform="scale(0.015625)"/>
      <path id="DejaVuSans-69" d="M 603 3500 
L 1178 3500 
L 1178 0 
L 603 0 
L 603 3500 
z
M 603 4863 
L 1178 4863 
L 1178 4134 
L 603 4134 
L 603 4863 
z
" transform="scale(0.015625)"/>
      <path id="DejaVuSans-6e" d="M 3513 2113 
L 3513 0 
L 2938 0 
L 2938 2094 
Q 2938 2591 2744 2837 
Q 2550 3084 2163 3084 
Q 1697 3084 1428 2787 
Q 1159 2491 1159 1978 
L 1159 0 
L 581 0 
L 581 3500 
L 1159 3500 
L 1159 2956 
Q 1366 3272 1645 3428 
Q 1925 3584 2291 3584 
Q 2894 3584 3203 3211 
Q 3513 2838 3513 2113 
z
" transform="scale(0.015625)"/>
      <path id="DejaVuSans-20" transform="scale(0.015625)"/>
      <path id="DejaVuSans-64" d="M 2906 2969 
L 2906 4863 
L 3481 4863 
L 3481 0 
L 2906 0 
L 2906 525 
Q 2725 213 2448 61 
Q 2172 -91 1784 -91 
Q 1150 -91 751 415 
Q 353 922 353 1747 
Q 353 2572 751 3078 
Q 1150 3584 1784 3584 
Q 2172 3584 2448 3432 
Q 2725 3281 2906 2969 
z
M 947 1747 
Q 947 1113 1208 752 
Q 1469 391 1925 391 
Q 2381 391 2643 752 
Q 2906 1113 2906 1747 
Q 2906 2381 2643 2742 
Q 2381 3103 1925 3103 
Q 1469 3103 1208 2742 
Q 947 2381 947 1747 
z
" transform="scale(0.015625)"/>
      <path id="DejaVuSans-56" d="M 1831 0 
L 50 4666 
L 709 4666 
L 2188 738 
L 3669 4666 
L 4325 4666 
L 2547 0 
L 1831 0 
z
" transform="scale(0.015625)"/>
      <path id="DejaVuSans-6c" d="M 603 4863 
L 1178 4863 
L 1178 0 
L 603 0 
L 603 4863 
z
" transform="scale(0.015625)"/>
     </defs>
     <use xlink:href="#DejaVuSans-54"/>
     <use xlink:href="#DejaVuSans-72" transform="translate(46.333984 0)"/>
     <use xlink:href="#DejaVuSans-61" transform="translate(87.447266 0)"/>
     <use xlink:href="#DejaVuSans-69" transform="translate(148.726562 0)"/>
     <use xlink:href="#DejaVuSans-6e" transform="translate(176.509766 0)"/>
     <use xlink:href="#DejaVuSans-20" transform="translate(239.888672 0)"/>
     <use xlink:href="#DejaVuSans-61" transform="translate(271.675781 0)"/>
     <use xlink:href="#DejaVuSans-6e" transform="translate(332.955078 0)"/>
     <use xlink:href="#DejaVuSans-64" transform="translate(396.333984 0)"/>
     <use xlink:href="#DejaVuSans-20" transform="translate(459.810547 0)"/>
     <use xlink:href="#DejaVuSans-56" transform="translate(491.597656 0)"/>
     <use xlink:href="#DejaVuSans-61" transform="translate(552.255859 0)"/>
     <use xlink:href="#DejaVuSans-6c" transform="translate(613.535156 0)"/>
     <use xlink:href="#DejaVuSans-20" transform="translate(641.318359 0)"/>
     <use xlink:href="#DejaVuSans-41" transform="translate(673.105469 0)"/>
     <use xlink:href="#DejaVuSans-63" transform="translate(739.763672 0)"/>
     <use xlink:href="#DejaVuSans-63" transform="translate(794.744141 0)"/>
     <use xlink:href="#DejaVuSans-75" transform="translate(849.724609 0)"/>
     <use xlink:href="#DejaVuSans-72" transform="translate(913.103516 0)"/>
     <use xlink:href="#DejaVuSans-61" transform="translate(954.216797 0)"/>
     <use xlink:href="#DejaVuSans-63" transform="translate(1015.496094 0)"/>
     <use xlink:href="#DejaVuSans-79" transform="translate(1070.476562 0)"/>
    </g>
   </g>
   <g id="legend_1">
    <g id="patch_7">
     <path d="M 57.14375 74.90875 
L 224.267187 74.90875 
Q 226.267187 74.90875 226.267187 72.90875 
L 226.267187 29.318125 
Q 226.267187 27.318125 224.267187 27.318125 
L 57.14375 27.318125 
Q 55.14375 27.318125 55.14375 29.318125 
L 55.14375 72.90875 
Q 55.14375 74.90875 57.14375 74.90875 
z
" style="fill: #ffffff; opacity: 0.8; stroke: #cccccc; stroke-linejoin: miter"/>
    </g>
    <g id="line2d_38">
     <path d="M 59.14375 35.416562 
L 69.14375 35.416562 
L 79.14375 35.416562 
" style="fill: none; stroke: #1f77b4; stroke-width: 1.5; stroke-linecap: square"/>
    </g>
    <g id="text_21">
     <!-- train_accuracy -->
     <g transform="translate(87.14375 38.916562) scale(0.1 -0.1)">
      <defs>
       <path id="DejaVuSans-74" d="M 1172 4494 
L 1172 3500 
L 2356 3500 
L 2356 3053 
L 1172 3053 
L 1172 1153 
Q 1172 725 1289 603 
Q 1406 481 1766 481 
L 2356 481 
L 2356 0 
L 1766 0 
Q 1100 0 847 248 
Q 594 497 594 1153 
L 594 3053 
L 172 3053 
L 172 3500 
L 594 3500 
L 594 4494 
L 1172 4494 
z
" transform="scale(0.015625)"/>
       <path id="DejaVuSans-5f" d="M 3263 -1063 
L 3263 -1509 
L -63 -1509 
L -63 -1063 
L 3263 -1063 
z
" transform="scale(0.015625)"/>
      </defs>
      <use xlink:href="#DejaVuSans-74"/>
      <use xlink:href="#DejaVuSans-72" transform="translate(39.208984 0)"/>
      <use xlink:href="#DejaVuSans-61" transform="translate(80.322266 0)"/>
      <use xlink:href="#DejaVuSans-69" transform="translate(141.601562 0)"/>
      <use xlink:href="#DejaVuSans-6e" transform="translate(169.384766 0)"/>
      <use xlink:href="#DejaVuSans-5f" transform="translate(232.763672 0)"/>
      <use xlink:href="#DejaVuSans-61" transform="translate(282.763672 0)"/>
      <use xlink:href="#DejaVuSans-63" transform="translate(344.042969 0)"/>
      <use xlink:href="#DejaVuSans-63" transform="translate(399.023438 0)"/>
      <use xlink:href="#DejaVuSans-75" transform="translate(454.003906 0)"/>
      <use xlink:href="#DejaVuSans-72" transform="translate(517.382812 0)"/>
      <use xlink:href="#DejaVuSans-61" transform="translate(558.496094 0)"/>
      <use xlink:href="#DejaVuSans-63" transform="translate(619.775391 0)"/>
      <use xlink:href="#DejaVuSans-79" transform="translate(674.755859 0)"/>
     </g>
    </g>
    <g id="line2d_39">
     <path d="M 59.14375 50.372812 
L 69.14375 50.372812 
L 79.14375 50.372812 
" style="fill: none; stroke: #ff7f0e; stroke-width: 1.5; stroke-linecap: square"/>
    </g>
    <g id="text_22">
     <!-- val_accuracy -->
     <g transform="translate(87.14375 53.872812) scale(0.1 -0.1)">
      <defs>
       <path id="DejaVuSans-76" d="M 191 3500 
L 800 3500 
L 1894 563 
L 2988 3500 
L 3597 3500 
L 2284 0 
L 1503 0 
L 191 3500 
z
" transform="scale(0.015625)"/>
      </defs>
      <use xlink:href="#DejaVuSans-76"/>
      <use xlink:href="#DejaVuSans-61" transform="translate(59.179688 0)"/>
      <use xlink:href="#DejaVuSans-6c" transform="translate(120.458984 0)"/>
      <use xlink:href="#DejaVuSans-5f" transform="translate(148.242188 0)"/>
      <use xlink:href="#DejaVuSans-61" transform="translate(198.242188 0)"/>
      <use xlink:href="#DejaVuSans-63" transform="translate(259.521484 0)"/>
      <use xlink:href="#DejaVuSans-63" transform="translate(314.501953 0)"/>
      <use xlink:href="#DejaVuSans-75" transform="translate(369.482422 0)"/>
      <use xlink:href="#DejaVuSans-72" transform="translate(432.861328 0)"/>
      <use xlink:href="#DejaVuSans-61" transform="translate(473.974609 0)"/>
      <use xlink:href="#DejaVuSans-63" transform="translate(535.253906 0)"/>
      <use xlink:href="#DejaVuSans-79" transform="translate(590.234375 0)"/>
     </g>
    </g>
    <g id="line2d_40">
     <path d="M 59.14375 65.329062 
L 69.14375 65.329062 
L 79.14375 65.329062 
" style="fill: none; stroke-dasharray: 11.1,4.8; stroke-dashoffset: 0; stroke: #ff0000; stroke-width: 3"/>
    </g>
    <g id="text_23">
     <!-- Random-Guesser Accuracy -->
     <g transform="translate(87.14375 68.829062) scale(0.1 -0.1)">
      <defs>
       <path id="DejaVuSans-52" d="M 2841 2188 
Q 3044 2119 3236 1894 
Q 3428 1669 3622 1275 
L 4263 0 
L 3584 0 
L 2988 1197 
Q 2756 1666 2539 1819 
Q 2322 1972 1947 1972 
L 1259 1972 
L 1259 0 
L 628 0 
L 628 4666 
L 2053 4666 
Q 2853 4666 3247 4331 
Q 3641 3997 3641 3322 
Q 3641 2881 3436 2590 
Q 3231 2300 2841 2188 
z
M 1259 4147 
L 1259 2491 
L 2053 2491 
Q 2509 2491 2742 2702 
Q 2975 2913 2975 3322 
Q 2975 3731 2742 3939 
Q 2509 4147 2053 4147 
L 1259 4147 
z
" transform="scale(0.015625)"/>
       <path id="DejaVuSans-6d" d="M 3328 2828 
Q 3544 3216 3844 3400 
Q 4144 3584 4550 3584 
Q 5097 3584 5394 3201 
Q 5691 2819 5691 2113 
L 5691 0 
L 5113 0 
L 5113 2094 
Q 5113 2597 4934 2840 
Q 4756 3084 4391 3084 
Q 3944 3084 3684 2787 
Q 3425 2491 3425 1978 
L 3425 0 
L 2847 0 
L 2847 2094 
Q 2847 2600 2669 2842 
Q 2491 3084 2119 3084 
Q 1678 3084 1418 2786 
Q 1159 2488 1159 1978 
L 1159 0 
L 581 0 
L 581 3500 
L 1159 3500 
L 1159 2956 
Q 1356 3278 1631 3431 
Q 1906 3584 2284 3584 
Q 2666 3584 2933 3390 
Q 3200 3197 3328 2828 
z
" transform="scale(0.015625)"/>
       <path id="DejaVuSans-2d" d="M 313 2009 
L 1997 2009 
L 1997 1497 
L 313 1497 
L 313 2009 
z
" transform="scale(0.015625)"/>
       <path id="DejaVuSans-47" d="M 3809 666 
L 3809 1919 
L 2778 1919 
L 2778 2438 
L 4434 2438 
L 4434 434 
Q 4069 175 3628 42 
Q 3188 -91 2688 -91 
Q 1594 -91 976 548 
Q 359 1188 359 2328 
Q 359 3472 976 4111 
Q 1594 4750 2688 4750 
Q 3144 4750 3555 4637 
Q 3966 4525 4313 4306 
L 4313 3634 
Q 3963 3931 3569 4081 
Q 3175 4231 2741 4231 
Q 1884 4231 1454 3753 
Q 1025 3275 1025 2328 
Q 1025 1384 1454 906 
Q 1884 428 2741 428 
Q 3075 428 3337 486 
Q 3600 544 3809 666 
z
" transform="scale(0.015625)"/>
       <path id="DejaVuSans-65" d="M 3597 1894 
L 3597 1613 
L 953 1613 
Q 991 1019 1311 708 
Q 1631 397 2203 397 
Q 2534 397 2845 478 
Q 3156 559 3463 722 
L 3463 178 
Q 3153 47 2828 -22 
Q 2503 -91 2169 -91 
Q 1331 -91 842 396 
Q 353 884 353 1716 
Q 353 2575 817 3079 
Q 1281 3584 2069 3584 
Q 2775 3584 3186 3129 
Q 3597 2675 3597 1894 
z
M 3022 2063 
Q 3016 2534 2758 2815 
Q 2500 3097 2075 3097 
Q 1594 3097 1305 2825 
Q 1016 2553 972 2059 
L 3022 2063 
z
" transform="scale(0.015625)"/>
      </defs>
      <use xlink:href="#DejaVuSans-52"/>
      <use xlink:href="#DejaVuSans-61" transform="translate(67.232422 0)"/>
      <use xlink:href="#DejaVuSans-6e" transform="translate(128.511719 0)"/>
      <use xlink:href="#DejaVuSans-64" transform="translate(191.890625 0)"/>
      <use xlink:href="#DejaVuSans-6f" transform="translate(255.367188 0)"/>
      <use xlink:href="#DejaVuSans-6d" transform="translate(316.548828 0)"/>
      <use xlink:href="#DejaVuSans-2d" transform="translate(413.960938 0)"/>
      <use xlink:href="#DejaVuSans-47" transform="translate(453.669922 0)"/>
      <use xlink:href="#DejaVuSans-75" transform="translate(531.160156 0)"/>
      <use xlink:href="#DejaVuSans-65" transform="translate(594.539062 0)"/>
      <use xlink:href="#DejaVuSans-73" transform="translate(656.0625 0)"/>
      <use xlink:href="#DejaVuSans-73" transform="translate(708.162109 0)"/>
      <use xlink:href="#DejaVuSans-65" transform="translate(760.261719 0)"/>
      <use xlink:href="#DejaVuSans-72" transform="translate(821.785156 0)"/>
      <use xlink:href="#DejaVuSans-20" transform="translate(862.898438 0)"/>
      <use xlink:href="#DejaVuSans-41" transform="translate(894.685547 0)"/>
      <use xlink:href="#DejaVuSans-63" transform="translate(961.34375 0)"/>
      <use xlink:href="#DejaVuSans-63" transform="translate(1016.324219 0)"/>
      <use xlink:href="#DejaVuSans-75" transform="translate(1071.304688 0)"/>
      <use xlink:href="#DejaVuSans-72" transform="translate(1134.683594 0)"/>
      <use xlink:href="#DejaVuSans-61" transform="translate(1175.796875 0)"/>
      <use xlink:href="#DejaVuSans-63" transform="translate(1237.076172 0)"/>
      <use xlink:href="#DejaVuSans-79" transform="translate(1292.056641 0)"/>
     </g>
    </g>
   </g>
  </g>
 </g>
 <defs>
  <clipPath id="p0d37585a0b">
   <rect x="50.14375" y="22.318125" width="558" height="554.4"/>
  </clipPath>
 </defs>
</svg>
