<?xml version="1.0" encoding="utf-8" standalone="no"?>
<!DOCTYPE svg PUBLIC "-//W3C//DTD SVG 1.1//EN"
  "http://www.w3.org/Graphics/SVG/1.1/DTD/svg11.dtd">
<svg xmlns:xlink="http://www.w3.org/1999/xlink" width="615.34375pt" height="614.274375pt" viewBox="0 0 615.34375 614.274375" xmlns="http://www.w3.org/2000/svg" version="1.1">
 <metadata>
  <rdf:RDF xmlns:dc="http://purl.org/dc/elements/1.1/" xmlns:cc="http://creativecommons.org/ns#" xmlns:rdf="http://www.w3.org/1999/02/22-rdf-syntax-ns#">
   <cc:Work>
    <dc:type rdf:resource="http://purl.org/dc/dcmitype/StillImage"/>
    <dc:date>2026-06-02T13:35:17.551533</dc:date>
    <dc:format>image/svg+xml</dc:format>
    <dc:creator>
     <cc:Agent>
      <dc:title>Matplotlib v3.10.9, https://matplotlib.org/</dc:title>
     </cc:Agent>
    </dc:creator>
   </cc:Work>
  </rdf:RDF>
 </metadata>
 <defs>
  <style type="text/css">*{stroke-linejoin: round; stroke-linecap: butt}</style>
 </defs>
 <g id="figure_1">
  <g id="patch_1">
   <path d="M 0 614.274375 
L 615.34375 614.274375 
L 615.34375 0 
L 0 0 
z
" style="fill: #ffffff"/>
  </g>
  <g id="axes_1">
   <g id="patch_2">
    <path d="M 50.14375 576.718125 
L 608.14375 576.718125 
L 608.14375 22.318125 
L 50.14375 22.318125 
z
" style="fill: #ffffff"/>
   </g>
   <g id="matplotlib.axis_1">
    <g id="xtick_1">
     <g id="line2d_1">
      <path d="M 75.507386 576.718125 
L 75.507386 22.318125 
" clip-path="url(#p9dcf9e1a38)" style="fill: none; stroke: #b0b0b0; stroke-width: 0.8; stroke-linecap: square"/>
     </g>
     <g id="line2d_2">
      <defs>
       <path id="m7b10db761f" d="M 0 0 
L 0 3.5 
" style="stroke: #000000; stroke-width: 0.8"/>
      </defs>
      <g>
       <use xlink:href="#m7b10db761f" x="75.507386" y="576.718125" style="stroke: #000000; stroke-width: 0.8"/>
      </g>
     </g>
     <g id="text_1">
      <!-- 0 -->
      <g transform="translate(72.326136 591.316563) scale(0.1 -0.1)">
       <defs>
        <path id="DejaVuSans-30" d="M 2034 4250 
Q 1547 4250 1301 3770 
Q 1056 3291 1056 2328 
Q 1056 1369 1301 889 
Q 1547 409 2034 409 
Q 2525 409 2770 889 
Q 3016 1369 3016 2328 
Q 3016 3291 2770 3770 
Q 2525 4250 2034 4250 
z
M 2034 4750 
Q 2819 4750 3233 4129 
Q 3647 3509 3647 2328 
Q 3647 1150 3233 529 
Q 2819 -91 2034 -91 
Q 1250 -91 836 529 
Q 422 1150 422 2328 
Q 422 3509 836 4129 
Q 1250 4750 2034 4750 
z
" transform="scale(0.015625)"/>
       </defs>
       <use xlink:href="#DejaVuSans-30"/>
      </g>
     </g>
    </g>
    <g id="xtick_2">
     <g id="line2d_3">
      <path d="M 138.995838 576.718125 
L 138.995838 22.318125 
" clip-path="url(#p9dcf9e1a38)" style="fill: none; stroke: #b0b0b0; stroke-width: 0.8; stroke-linecap: square"/>
     </g>
     <g id="line2d_4">
      <g>
       <use xlink:href="#m7b10db761f" x="138.995838" y="576.718125" style="stroke: #000000; stroke-width: 0.8"/>
      </g>
     </g>
     <g id="text_2">
      <!-- 100 -->
      <g transform="translate(129.452088 591.316563) scale(0.1 -0.1)">
       <defs>
        <path id="DejaVuSans-31" d="M 794 531 
L 1825 531 
L 1825 4091 
L 703 3866 
L 703 4441 
L 1819 4666 
L 2450 4666 
L 2450 531 
L 3481 531 
L 3481 0 
L 794 0 
L 794 531 
z
" transform="scale(0.015625)"/>
       </defs>
       <use xlink:href="#DejaVuSans-31"/>
       <use xlink:href="#DejaVuSans-30" transform="translate(63.623047 0)"/>
       <use xlink:href="#DejaVuSans-30" transform="translate(127.246094 0)"/>
      </g>
     </g>
    </g>
    <g id="xtick_3">
     <g id="line2d_5">
      <path d="M 202.484289 576.718125 
L 202.484289 22.318125 
" clip-path="url(#p9dcf9e1a38)" style="fill: none; stroke: #b0b0b0; stroke-width: 0.8; stroke-linecap: square"/>
     </g>
     <g id="line2d_6">
      <g>
       <use xlink:href="#m7b10db761f" x="202.484289" y="576.718125" style="stroke: #000000; stroke-width: 0.8"/>
      </g>
     </g>
     <g id="text_3">
      <!-- 200 -->
      <g transform="translate(192.940539 591.316563) scale(0.1 -0.1)">
       <defs>
        <path id="DejaVuSans-32" d="M 1228 531 
L 3431 531 
L 3431 0 
L 469 0 
L 469 531 
Q 828 903 1448 1529 
Q 2069 2156 2228 2338 
Q 2531 2678 2651 2914 
Q 2772 3150 2772 3378 
Q 2772 3750 2511 3984 
Q 2250 4219 1831 4219 
Q 1534 4219 1204 4116 
Q 875 4013 500 3803 
L 500 4441 
Q 881 4594 1212 4672 
Q 1544 4750 1819 4750 
Q 2544 4750 2975 4387 
Q 3406 4025 3406 3419 
Q 3406 3131 3298 2873 
Q 3191 2616 2906 2266 
Q 2828 2175 2409 1742 
Q 1991 1309 1228 531 
z
" transform="scale(0.015625)"/>
       </defs>
       <use xlink:href="#DejaVuSans-32"/>
       <use xlink:href="#DejaVuSans-30" transform="translate(63.623047 0)"/>
       <use xlink:href="#DejaVuSans-30" transform="translate(127.246094 0)"/>
      </g>
     </g>
    </g>
    <g id="xtick_4">
     <g id="line2d_7">
      <path d="M 265.972741 576.718125 
L 265.972741 22.318125 
" clip-path="url(#p9dcf9e1a38)" style="fill: none; stroke: #b0b0b0; stroke-width: 0.8; stroke-linecap: square"/>
     </g>
     <g id="line2d_8">
      <g>
       <use xlink:href="#m7b10db761f" x="265.972741" y="576.718125" style="stroke: #000000; stroke-width: 0.8"/>
      </g>
     </g>
     <g id="text_4">
      <!-- 300 -->
      <g transform="translate(256.428991 591.316563) scale(0.1 -0.1)">
       <defs>
        <path id="DejaVuSans-33" d="M 2597 2516 
Q 3050 2419 3304 2112 
Q 3559 1806 3559 1356 
Q 3559 666 3084 287 
Q 2609 -91 1734 -91 
Q 1441 -91 1130 -33 
Q 819 25 488 141 
L 488 750 
Q 750 597 1062 519 
Q 1375 441 1716 441 
Q 2309 441 2620 675 
Q 2931 909 2931 1356 
Q 2931 1769 2642 2001 
Q 2353 2234 1838 2234 
L 1294 2234 
L 1294 2753 
L 1863 2753 
Q 2328 2753 2575 2939 
Q 2822 3125 2822 3475 
Q 2822 3834 2567 4026 
Q 2313 4219 1838 4219 
Q 1578 4219 1281 4162 
Q 984 4106 628 3988 
L 628 4550 
Q 988 4650 1302 4700 
Q 1616 4750 1894 4750 
Q 2613 4750 3031 4423 
Q 3450 4097 3450 3541 
Q 3450 3153 3228 2886 
Q 3006 2619 2597 2516 
z
" transform="scale(0.015625)"/>
       </defs>
       <use xlink:href="#DejaVuSans-33"/>
       <use xlink:href="#DejaVuSans-30" transform="translate(63.623047 0)"/>
       <use xlink:href="#DejaVuSans-30" transform="translate(127.246094 0)"/>
      </g>
     </g>
    </g>
    <g id="xtick_5">
     <g id="line2d_9">
      <path d="M 329.461192 576.718125 
L 329.461192 22.318125 
" clip-path="url(#p9dcf9e1a38)" style="fill: none; stroke: #b0b0b0; stroke-width: 0.8; stroke-linecap: square"/>
     </g>
     <g id="line2d_10">
      <g>
       <use xlink:href="#m7b10db761f" x="329.461192" y="576.718125" style="stroke: #000000; stroke-width: 0.8"/>
      </g>
     </g>
     <g id="text_5">
      <!-- 400 -->
      <g transform="translate(319.917442 591.316563) scale(0.1 -0.1)">
       <defs>
        <path id="DejaVuSans-34" d="M 2419 4116 
L 825 1625 
L 2419 1625 
L 2419 4116 
z
M 2253 4666 
L 3047 4666 
L 3047 1625 
L 3713 1625 
L 3713 1100 
L 3047 1100 
L 3047 0 
L 2419 0 
L 2419 1100 
L 313 1100 
L 313 1709 
L 2253 4666 
z
" transform="scale(0.015625)"/>
       </defs>
       <use xlink:href="#DejaVuSans-34"/>
       <use xlink:href="#DejaVuSans-30" transform="translate(63.623047 0)"/>
       <use xlink:href="#DejaVuSans-30" transform="translate(127.246094 0)"/>
      </g>
     </g>
    </g>
    <g id="xtick_6">
     <g id="line2d_11">
      <path d="M 392.949644 576.718125 
L 392.949644 22.318125 
" clip-path="url(#p9dcf9e1a38)" style="fill: none; stroke: #b0b0b0; stroke-width: 0.8; stroke-linecap: square"/>
     </g>
     <g id="line2d_12">
      <g>
       <use xlink:href="#m7b10db761f" x="392.949644" y="576.718125" style="stroke: #000000; stroke-width: 0.8"/>
      </g>
     </g>
     <g id="text_6">
      <!-- 500 -->
      <g transform="translate(383.405894 591.316563) scale(0.1 -0.1)">
       <defs>
        <path id="DejaVuSans-35" d="M 691 4666 
L 3169 4666 
L 3169 4134 
L 1269 4134 
L 1269 2991 
Q 1406 3038 1543 3061 
Q 1681 3084 1819 3084 
Q 2600 3084 3056 2656 
Q 3513 2228 3513 1497 
Q 3513 744 3044 326 
Q 2575 -91 1722 -91 
Q 1428 -91 1123 -41 
Q 819 9 494 109 
L 494 744 
Q 775 591 1075 516 
Q 1375 441 1709 441 
Q 2250 441 2565 725 
Q 2881 1009 2881 1497 
Q 2881 1984 2565 2268 
Q 2250 2553 1709 2553 
Q 1456 2553 1204 2497 
Q 953 2441 691 2322 
L 691 4666 
z
" transform="scale(0.015625)"/>
       </defs>
       <use xlink:href="#DejaVuSans-35"/>
       <use xlink:href="#DejaVuSans-30" transform="translate(63.623047 0)"/>
       <use xlink:href="#DejaVuSans-30" transform="translate(127.246094 0)"/>
      </g>
     </g>
    </g>
    <g id="xtick_7">
     <g id="line2d_13">
      <path d="M 456.438095 576.718125 
L 456.438095 22.318125 
" clip-path="url(#p9dcf9e1a38)" style="fill: none; stroke: #b0b0b0; stroke-width: 0.8; stroke-linecap: square"/>
     </g>
     <g id="line2d_14">
      <g>
       <use xlink:href="#m7b10db761f" x="456.438095" y="576.718125" style="stroke: #000000; stroke-width: 0.8"/>
      </g>
     </g>
     <g id="text_7">
      <!-- 600 -->
      <g transform="translate(446.894345 591.316563) scale(0.1 -0.1)">
       <defs>
        <path id="DejaVuSans-36" d="M 2113 2584 
Q 1688 2584 1439 2293 
Q 1191 2003 1191 1497 
Q 1191 994 1439 701 
Q 1688 409 2113 409 
Q 2538 409 2786 701 
Q 3034 994 3034 1497 
Q 3034 2003 2786 2293 
Q 2538 2584 2113 2584 
z
M 3366 4563 
L 3366 3988 
Q 3128 4100 2886 4159 
Q 2644 4219 2406 4219 
Q 1781 4219 1451 3797 
Q 1122 3375 1075 2522 
Q 1259 2794 1537 2939 
Q 1816 3084 2150 3084 
Q 2853 3084 3261 2657 
Q 3669 2231 3669 1497 
Q 3669 778 3244 343 
Q 2819 -91 2113 -91 
Q 1303 -91 875 529 
Q 447 1150 447 2328 
Q 447 3434 972 4092 
Q 1497 4750 2381 4750 
Q 2619 4750 2861 4703 
Q 3103 4656 3366 4563 
z
" transform="scale(0.015625)"/>
       </defs>
       <use xlink:href="#DejaVuSans-36"/>
       <use xlink:href="#DejaVuSans-30" transform="translate(63.623047 0)"/>
       <use xlink:href="#DejaVuSans-30" transform="translate(127.246094 0)"/>
      </g>
     </g>
    </g>
    <g id="xtick_8">
     <g id="line2d_15">
      <path d="M 519.926547 576.718125 
L 519.926547 22.318125 
" clip-path="url(#p9dcf9e1a38)" style="fill: none; stroke: #b0b0b0; stroke-width: 0.8; stroke-linecap: square"/>
     </g>
     <g id="line2d_16">
      <g>
       <use xlink:href="#m7b10db761f" x="519.926547" y="576.718125" style="stroke: #000000; stroke-width: 0.8"/>
      </g>
     </g>
     <g id="text_8">
      <!-- 700 -->
      <g transform="translate(510.382797 591.316563) scale(0.1 -0.1)">
       <defs>
        <path id="DejaVuSans-37" d="M 525 4666 
L 3525 4666 
L 3525 4397 
L 1831 0 
L 1172 0 
L 2766 4134 
L 525 4134 
L 525 4666 
z
" transform="scale(0.015625)"/>
       </defs>
       <use xlink:href="#DejaVuSans-37"/>
       <use xlink:href="#DejaVuSans-30" transform="translate(63.623047 0)"/>
       <use xlink:href="#DejaVuSans-30" transform="translate(127.246094 0)"/>
      </g>
     </g>
    </g>
    <g id="xtick_9">
     <g id="line2d_17">
      <path d="M 583.414998 576.718125 
L 583.414998 22.318125 
" clip-path="url(#p9dcf9e1a38)" style="fill: none; stroke: #b0b0b0; stroke-width: 0.8; stroke-linecap: square"/>
     </g>
     <g id="line2d_18">
      <g>
       <use xlink:href="#m7b10db761f" x="583.414998" y="576.718125" style="stroke: #000000; stroke-width: 0.8"/>
      </g>
     </g>
     <g id="text_9">
      <!-- 800 -->
      <g transform="translate(573.871248 591.316563) scale(0.1 -0.1)">
       <defs>
        <path id="DejaVuSans-38" d="M 2034 2216 
Q 1584 2216 1326 1975 
Q 1069 1734 1069 1313 
Q 1069 891 1326 650 
Q 1584 409 2034 409 
Q 2484 409 2743 651 
Q 3003 894 3003 1313 
Q 3003 1734 2745 1975 
Q 2488 2216 2034 2216 
z
M 1403 2484 
Q 997 2584 770 2862 
Q 544 3141 544 3541 
Q 544 4100 942 4425 
Q 1341 4750 2034 4750 
Q 2731 4750 3128 4425 
Q 3525 4100 3525 3541 
Q 3525 3141 3298 2862 
Q 3072 2584 2669 2484 
Q 3125 2378 3379 2068 
Q 3634 1759 3634 1313 
Q 3634 634 3220 271 
Q 2806 -91 2034 -91 
Q 1263 -91 848 271 
Q 434 634 434 1313 
Q 434 1759 690 2068 
Q 947 2378 1403 2484 
z
M 1172 3481 
Q 1172 3119 1398 2916 
Q 1625 2713 2034 2713 
Q 2441 2713 2670 2916 
Q 2900 3119 2900 3481 
Q 2900 3844 2670 4047 
Q 2441 4250 2034 4250 
Q 1625 4250 1398 4047 
Q 1172 3844 1172 3481 
z
" transform="scale(0.015625)"/>
       </defs>
       <use xlink:href="#DejaVuSans-38"/>
       <use xlink:href="#DejaVuSans-30" transform="translate(63.623047 0)"/>
       <use xlink:href="#DejaVuSans-30" transform="translate(127.246094 0)"/>
      </g>
     </g>
    </g>
    <g id="text_10">
     <!-- Epochs -->
     <g transform="translate(311.228125 604.994688) scale(0.1 -0.1)">
      <defs>
       <path id="DejaVuSans-45" d="M 628 4666 
L 3578 4666 
L 3578 4134 
L 1259 4134 
L 1259 2753 
L 3481 2753 
L 3481 2222 
L 1259 2222 
L 1259 531 
L 3634 531 
L 3634 0 
L 628 0 
L 628 4666 
z
" transform="scale(0.015625)"/>
       <path id="DejaVuSans-70" d="M 1159 525 
L 1159 -1331 
L 581 -1331 
L 581 3500 
L 1159 3500 
L 1159 2969 
Q 1341 3281 1617 3432 
Q 1894 3584 2278 3584 
Q 2916 3584 3314 3078 
Q 3713 2572 3713 1747 
Q 3713 922 3314 415 
Q 2916 -91 2278 -91 
Q 1894 -91 1617 61 
Q 1341 213 1159 525 
z
M 3116 1747 
Q 3116 2381 2855 2742 
Q 2594 3103 2138 3103 
Q 1681 3103 1420 2742 
Q 1159 2381 1159 1747 
Q 1159 1113 1420 752 
Q 1681 391 2138 391 
Q 2594 391 2855 752 
Q 3116 1113 3116 1747 
z
" transform="scale(0.015625)"/>
       <path id="DejaVuSans-6f" d="M 1959 3097 
Q 1497 3097 1228 2736 
Q 959 2375 959 1747 
Q 959 1119 1226 758 
Q 1494 397 1959 397 
Q 2419 397 2687 759 
Q 2956 1122 2956 1747 
Q 2956 2369 2687 2733 
Q 2419 3097 1959 3097 
z
M 1959 3584 
Q 2709 3584 3137 3096 
Q 3566 2609 3566 1747 
Q 3566 888 3137 398 
Q 2709 -91 1959 -91 
Q 1206 -91 779 398 
Q 353 888 353 1747 
Q 353 2609 779 3096 
Q 1206 3584 1959 3584 
z
" transform="scale(0.015625)"/>
       <path id="DejaVuSans-63" d="M 3122 3366 
L 3122 2828 
Q 2878 2963 2633 3030 
Q 2388 3097 2138 3097 
Q 1578 3097 1268 2742 
Q 959 2388 959 1747 
Q 959 1106 1268 751 
Q 1578 397 2138 397 
Q 2388 397 2633 464 
Q 2878 531 3122 666 
L 3122 134 
Q 2881 22 2623 -34 
Q 2366 -91 2075 -91 
Q 1284 -91 818 406 
Q 353 903 353 1747 
Q 353 2603 823 3093 
Q 1294 3584 2113 3584 
Q 2378 3584 2631 3529 
Q 2884 3475 3122 3366 
z
" transform="scale(0.015625)"/>
       <path id="DejaVuSans-68" d="M 3513 2113 
L 3513 0 
L 2938 0 
L 2938 2094 
Q 2938 2591 2744 2837 
Q 2550 3084 2163 3084 
Q 1697 3084 1428 2787 
Q 1159 2491 1159 1978 
L 1159 0 
L 581 0 
L 581 4863 
L 1159 4863 
L 1159 2956 
Q 1366 3272 1645 3428 
Q 1925 3584 2291 3584 
Q 2894 3584 3203 3211 
Q 3513 2838 3513 2113 
z
" transform="scale(0.015625)"/>
       <path id="DejaVuSans-73" d="M 2834 3397 
L 2834 2853 
Q 2591 2978 2328 3040 
Q 2066 3103 1784 3103 
Q 1356 3103 1142 2972 
Q 928 2841 928 2578 
Q 928 2378 1081 2264 
Q 1234 2150 1697 2047 
L 1894 2003 
Q 2506 1872 2764 1633 
Q 3022 1394 3022 966 
Q 3022 478 2636 193 
Q 2250 -91 1575 -91 
Q 1294 -91 989 -36 
Q 684 19 347 128 
L 347 722 
Q 666 556 975 473 
Q 1284 391 1588 391 
Q 1994 391 2212 530 
Q 2431 669 2431 922 
Q 2431 1156 2273 1281 
Q 2116 1406 1581 1522 
L 1381 1569 
Q 847 1681 609 1914 
Q 372 2147 372 2553 
Q 372 3047 722 3315 
Q 1072 3584 1716 3584 
Q 2034 3584 2315 3537 
Q 2597 3491 2834 3397 
z
" transform="scale(0.015625)"/>
      </defs>
      <use xlink:href="#DejaVuSans-45"/>
      <use xlink:href="#DejaVuSans-70" transform="translate(63.183594 0)"/>
      <use xlink:href="#DejaVuSans-6f" transform="translate(126.660156 0)"/>
      <use xlink:href="#DejaVuSans-63" transform="translate(187.841797 0)"/>
      <use xlink:href="#DejaVuSans-68" transform="translate(242.822266 0)"/>
      <use xlink:href="#DejaVuSans-73" transform="translate(306.201172 0)"/>
     </g>
    </g>
   </g>
   <g id="matplotlib.axis_2">
    <g id="ytick_1">
     <g id="line2d_19">
      <path d="M 50.14375 513.738924 
L 608.14375 513.738924 
" clip-path="url(#p9dcf9e1a38)" style="fill: none; stroke: #b0b0b0; stroke-width: 0.8; stroke-linecap: square"/>
     </g>
     <g id="line2d_20">
      <defs>
       <path id="mbb9c43435d" d="M 0 0 
L -3.5 0 
" style="stroke: #000000; stroke-width: 0.8"/>
      </defs>
      <g>
       <use xlink:href="#mbb9c43435d" x="50.14375" y="513.738924" style="stroke: #000000; stroke-width: 0.8"/>
      </g>
     </g>
     <g id="text_11">
      <!-- 0.35 -->
      <g transform="translate(20.878125 517.538142) scale(0.1 -0.1)">
       <defs>
        <path id="DejaVuSans-2e" d="M 684 794 
L 1344 794 
L 1344 0 
L 684 0 
L 684 794 
z
" transform="scale(0.015625)"/>
       </defs>
       <use xlink:href="#DejaVuSans-30"/>
       <use xlink:href="#DejaVuSans-2e" transform="translate(63.623047 0)"/>
       <use xlink:href="#DejaVuSans-33" transform="translate(95.410156 0)"/>
       <use xlink:href="#DejaVuSans-35" transform="translate(159.033203 0)"/>
      </g>
     </g>
    </g>
    <g id="ytick_2">
     <g id="line2d_21">
      <path d="M 50.14375 443.095429 
L 608.14375 443.095429 
" clip-path="url(#p9dcf9e1a38)" style="fill: none; stroke: #b0b0b0; stroke-width: 0.8; stroke-linecap: square"/>
     </g>
     <g id="line2d_22">
      <g>
       <use xlink:href="#mbb9c43435d" x="50.14375" y="443.095429" style="stroke: #000000; stroke-width: 0.8"/>
      </g>
     </g>
     <g id="text_12">
      <!-- 0.40 -->
      <g transform="translate(20.878125 446.894648) scale(0.1 -0.1)">
       <use xlink:href="#DejaVuSans-30"/>
       <use xlink:href="#DejaVuSans-2e" transform="translate(63.623047 0)"/>
       <use xlink:href="#DejaVuSans-34" transform="translate(95.410156 0)"/>
       <use xlink:href="#DejaVuSans-30" transform="translate(159.033203 0)"/>
      </g>
     </g>
    </g>
    <g id="ytick_3">
     <g id="line2d_23">
      <path d="M 50.14375 372.451935 
L 608.14375 372.451935 
" clip-path="url(#p9dcf9e1a38)" style="fill: none; stroke: #b0b0b0; stroke-width: 0.8; stroke-linecap: square"/>
     </g>
     <g id="line2d_24">
      <g>
       <use xlink:href="#mbb9c43435d" x="50.14375" y="372.451935" style="stroke: #000000; stroke-width: 0.8"/>
      </g>
     </g>
     <g id="text_13">
      <!-- 0.45 -->
      <g transform="translate(20.878125 376.251154) scale(0.1 -0.1)">
       <use xlink:href="#DejaVuSans-30"/>
       <use xlink:href="#DejaVuSans-2e" transform="translate(63.623047 0)"/>
       <use xlink:href="#DejaVuSans-34" transform="translate(95.410156 0)"/>
       <use xlink:href="#DejaVuSans-35" transform="translate(159.033203 0)"/>
      </g>
     </g>
    </g>
    <g id="ytick_4">
     <g id="line2d_25">
      <path d="M 50.14375 301.80844 
L 608.14375 301.80844 
" clip-path="url(#p9dcf9e1a38)" style="fill: none; stroke: #b0b0b0; stroke-width: 0.8; stroke-linecap: square"/>
     </g>
     <g id="line2d_26">
      <g>
       <use xlink:href="#mbb9c43435d" x="50.14375" y="301.80844" style="stroke: #000000; stroke-width: 0.8"/>
      </g>
     </g>
     <g id="text_14">
      <!-- 0.50 -->
      <g transform="translate(20.878125 305.607659) scale(0.1 -0.1)">
       <use xlink:href="#DejaVuSans-30"/>
       <use xlink:href="#DejaVuSans-2e" transform="translate(63.623047 0)"/>
       <use xlink:href="#DejaVuSans-35" transform="translate(95.410156 0)"/>
       <use xlink:href="#DejaVuSans-30" transform="translate(159.033203 0)"/>
      </g>
     </g>
    </g>
    <g id="ytick_5">
     <g id="line2d_27">
      <path d="M 50.14375 231.164946 
L 608.14375 231.164946 
" clip-path="url(#p9dcf9e1a38)" style="fill: none; stroke: #b0b0b0; stroke-width: 0.8; stroke-linecap: square"/>
     </g>
     <g id="line2d_28">
      <g>
       <use xlink:href="#mbb9c43435d" x="50.14375" y="231.164946" style="stroke: #000000; stroke-width: 0.8"/>
      </g>
     </g>
     <g id="text_15">
      <!-- 0.55 -->
      <g transform="translate(20.878125 234.964165) scale(0.1 -0.1)">
       <use xlink:href="#DejaVuSans-30"/>
       <use xlink:href="#DejaVuSans-2e" transform="translate(63.623047 0)"/>
       <use xlink:href="#DejaVuSans-35" transform="translate(95.410156 0)"/>
       <use xlink:href="#DejaVuSans-35" transform="translate(159.033203 0)"/>
      </g>
     </g>
    </g>
    <g id="ytick_6">
     <g id="line2d_29">
      <path d="M 50.14375 160.521452 
L 608.14375 160.521452 
" clip-path="url(#p9dcf9e1a38)" style="fill: none; stroke: #b0b0b0; stroke-width: 0.8; stroke-linecap: square"/>
     </g>
     <g id="line2d_30">
      <g>
       <use xlink:href="#mbb9c43435d" x="50.14375" y="160.521452" style="stroke: #000000; stroke-width: 0.8"/>
      </g>
     </g>
     <g id="text_16">
      <!-- 0.60 -->
      <g transform="translate(20.878125 164.32067) scale(0.1 -0.1)">
       <use xlink:href="#DejaVuSans-30"/>
       <use xlink:href="#DejaVuSans-2e" transform="translate(63.623047 0)"/>
       <use xlink:href="#DejaVuSans-36" transform="translate(95.410156 0)"/>
       <use xlink:href="#DejaVuSans-30" transform="translate(159.033203 0)"/>
      </g>
     </g>
    </g>
    <g id="ytick_7">
     <g id="line2d_31">
      <path d="M 50.14375 89.877957 
L 608.14375 89.877957 
" clip-path="url(#p9dcf9e1a38)" style="fill: none; stroke: #b0b0b0; stroke-width: 0.8; stroke-linecap: square"/>
     </g>
     <g id="line2d_32">
      <g>
       <use xlink:href="#mbb9c43435d" x="50.14375" y="89.877957" style="stroke: #000000; stroke-width: 0.8"/>
      </g>
     </g>
     <g id="text_17">
      <!-- 0.65 -->
      <g transform="translate(20.878125 93.677176) scale(0.1 -0.1)">
       <use xlink:href="#DejaVuSans-30"/>
       <use xlink:href="#DejaVuSans-2e" transform="translate(63.623047 0)"/>
       <use xlink:href="#DejaVuSans-36" transform="translate(95.410156 0)"/>
       <use xlink:href="#DejaVuSans-35" transform="translate(159.033203 0)"/>
      </g>
     </g>
    </g>
    <g id="text_18">
     <!-- Loss -->
     <g transform="translate(14.798437 310.485313) rotate(-90) scale(0.1 -0.1)">
      <defs>
       <path id="DejaVuSans-4c" d="M 628 4666 
L 1259 4666 
L 1259 531 
L 3531 531 
L 3531 0 
L 628 0 
L 628 4666 
z
" transform="scale(0.015625)"/>
      </defs>
      <use xlink:href="#DejaVuSans-4c"/>
      <use xlink:href="#DejaVuSans-6f" transform="translate(53.962891 0)"/>
      <use xlink:href="#DejaVuSans-73" transform="translate(115.144531 0)"/>
      <use xlink:href="#DejaVuSans-73" transform="translate(167.244141 0)"/>
     </g>
    </g>
   </g>
   <g id="line2d_33">
    <path d="M 75.507386 47.518125 
L 76.142271 78.539386 
L 76.777155 87.086899 
L 77.41204 92.129778 
L 78.046924 95.537987 
L 78.681809 97.693098 
L 82.491116 107.567733 
L 83.760885 110.581317 
L 87.570192 118.550029 
L 89.474846 123.243338 
L 98.998113 147.370284 
L 102.80742 157.923849 
L 113.600457 188.525727 
L 119.949302 204.994624 
L 125.663263 218.569689 
L 132.012108 232.034098 
L 136.4563 240.857494 
L 147.884221 261.65834 
L 151.058644 266.886489 
L 151.693528 268.146914 
L 152.963297 270.192884 
L 156.772604 276.395468 
L 159.312142 280.414647 
L 159.947027 281.260152 
L 161.216796 283.325575 
L 162.486565 285.328848 
L 163.756334 287.266687 
L 165.026103 289.068269 
L 167.565641 292.745372 
L 168.83541 294.478909 
L 171.374948 298.130579 
L 172.644717 299.805925 
L 174.549371 302.323238 
L 175.184255 303.283231 
L 177.088909 305.602221 
L 178.993562 308.080459 
L 183.437754 313.862776 
L 184.072638 314.44444 
L 185.342407 316.235705 
L 185.977292 316.850717 
L 187.247061 318.544211 
L 187.881945 319.16596 
L 189.151715 320.898065 
L 190.421484 322.345276 
L 198.674982 331.766126 
L 199.309867 332.670875 
L 199.944751 333.222643 
L 201.21452 334.645895 
L 205.658712 339.397479 
L 206.293596 340.184034 
L 208.19825 342.039976 
L 212.642442 346.853247 
L 213.277326 347.194059 
L 213.912211 348.107903 
L 214.547095 348.585352 
L 217.086633 351.36798 
L 217.721518 351.828081 
L 218.991287 353.188931 
L 224.070363 358.18924 
L 224.705247 358.686101 
L 225.340132 359.449834 
L 225.975016 359.804373 
L 226.609901 360.656699 
L 227.87967 361.799309 
L 230.419208 364.135732 
L 231.688977 365.421505 
L 237.402938 370.441899 
L 238.037822 371.228665 
L 239.307591 372.175984 
L 240.57736 373.448662 
L 241.847129 374.375264 
L 242.482014 375.047583 
L 243.751783 376.02463 
L 245.021552 377.265433 
L 245.656436 377.593782 
L 255.179704 385.557484 
L 256.449473 386.394778 
L 257.719242 387.599327 
L 258.354127 387.946287 
L 260.893665 389.985688 
L 261.528549 390.623017 
L 262.163434 391.014231 
L 263.433203 391.992961 
L 264.068087 392.280804 
L 264.702972 392.79198 
L 265.337856 393.486532 
L 266.607625 394.170894 
L 267.877394 395.308283 
L 270.416932 397.020345 
L 271.686701 398.280602 
L 273.591355 399.437992 
L 275.496009 400.969206 
L 276.765778 401.850164 
L 277.400662 402.307402 
L 278.670431 403.416411 
L 281.209969 405.024091 
L 282.479738 406.363214 
L 283.114623 406.546504 
L 283.749507 406.960667 
L 285.019276 408.054644 
L 286.289045 408.881958 
L 286.92393 409.22075 
L 287.558814 409.90928 
L 288.193699 410.429931 
L 288.828583 410.675413 
L 290.733237 412.054159 
L 292.003006 413.130282 
L 292.63789 413.400061 
L 293.272775 413.884878 
L 293.907659 414.552566 
L 294.542544 414.791733 
L 295.177428 415.398028 
L 295.812313 415.623131 
L 296.447197 416.194984 
L 297.082082 416.55845 
L 297.716967 417.103059 
L 298.351851 417.383364 
L 299.62162 418.439445 
L 300.891389 419.321498 
L 301.526274 419.562812 
L 302.161158 420.19273 
L 304.700696 421.836159 
L 305.335581 422.608187 
L 305.970465 422.895692 
L 308.510003 424.601691 
L 317.398386 430.76697 
L 318.033271 431.207996 
L 318.668156 431.456974 
L 319.30304 432.079902 
L 320.572809 432.900732 
L 323.112347 434.753473 
L 323.747232 434.988598 
L 324.382116 435.49948 
L 325.017001 435.860546 
L 326.28677 436.831823 
L 326.921654 437.060337 
L 331.365846 440.223316 
L 332.00073 440.470356 
L 333.270499 441.380116 
L 333.905384 441.631704 
L 335.810037 443.257448 
L 336.444922 443.455434 
L 337.079806 443.839869 
L 337.714691 444.46705 
L 338.349575 444.894266 
L 338.98446 445.136169 
L 339.619344 445.51332 
L 340.254229 446.054855 
L 340.889114 446.380973 
L 341.523998 446.91994 
L 342.158883 447.226477 
L 343.428652 448.40332 
L 344.063536 448.540294 
L 345.333305 449.40601 
L 347.237959 450.599906 
L 347.872843 450.785555 
L 348.507728 451.431052 
L 349.142612 451.79355 
L 349.777497 452.405488 
L 350.412381 452.646044 
L 351.047266 453.23095 
L 352.317035 453.903564 
L 352.951919 454.001209 
L 353.586804 454.557103 
L 354.221688 454.767974 
L 354.856573 455.223907 
L 355.491457 455.831761 
L 358.030995 457.103681 
L 358.66588 457.65368 
L 359.300764 457.88493 
L 359.935649 458.479689 
L 361.840303 459.380101 
L 362.475187 459.976628 
L 363.110072 460.193604 
L 363.744956 460.889419 
L 366.284494 462.121885 
L 366.919379 462.72936 
L 367.554263 463.019729 
L 368.189148 463.130849 
L 368.824032 463.456629 
L 370.093801 464.525173 
L 370.728686 464.60724 
L 371.36357 465.08511 
L 371.998455 465.378257 
L 372.633339 465.798609 
L 373.903108 466.861764 
L 374.537993 466.999664 
L 375.807762 467.816241 
L 377.077531 468.21074 
L 378.3473 469.284969 
L 378.982184 469.438574 
L 379.617069 469.795471 
L 380.251953 470.34206 
L 380.886838 470.405936 
L 382.156607 471.203734 
L 382.791491 471.558062 
L 383.426376 472.19497 
L 384.061261 472.503655 
L 385.33103 472.924049 
L 385.965914 473.238882 
L 387.870568 474.48857 
L 388.505452 474.680913 
L 389.775221 475.513618 
L 391.04499 476.18539 
L 391.679875 476.324342 
L 392.314759 476.95207 
L 394.219413 477.782837 
L 394.854297 478.093965 
L 395.489182 478.229212 
L 396.124066 478.980355 
L 396.758951 479.105286 
L 397.393835 479.571998 
L 398.02872 479.70156 
L 401.203142 481.543943 
L 403.74268 482.706765 
L 404.377565 483.162782 
L 405.01245 483.365526 
L 407.551988 484.878423 
L 408.186872 485.299112 
L 408.821757 485.513226 
L 410.091526 486.311571 
L 410.72641 486.73967 
L 411.996179 487.262511 
L 412.631064 487.705432 
L 413.265948 487.833353 
L 413.900833 488.478724 
L 414.535717 488.515525 
L 415.170602 488.978742 
L 415.805486 489.263173 
L 416.440371 489.316691 
L 417.075255 489.887238 
L 418.345024 490.596569 
L 418.979909 491.210992 
L 419.614793 491.233098 
L 420.249678 491.484855 
L 420.884562 492.133847 
L 421.519447 492.04997 
L 422.154331 492.327707 
L 422.789216 492.872484 
L 423.4241 493.034259 
L 424.693869 493.916354 
L 429.138061 495.807329 
L 429.772946 496.531566 
L 430.40783 496.450552 
L 431.042715 497.006446 
L 432.312484 497.448104 
L 432.947368 497.436988 
L 433.582253 498.149604 
L 434.217137 498.291462 
L 434.852022 498.721498 
L 435.486906 498.759984 
L 438.026444 500.208205 
L 438.661329 500.281303 
L 439.296213 500.767215 
L 440.565982 501.205084 
L 441.200867 501.793863 
L 441.835751 502.014545 
L 442.470636 501.96267 
L 443.10552 502.583955 
L 445.010174 503.122459 
L 445.645058 503.686438 
L 446.914827 504.488657 
L 447.549712 504.616661 
L 448.184597 504.938231 
L 448.819481 505.014529 
L 449.454366 505.332435 
L 450.08925 505.450924 
L 450.724135 505.908793 
L 454.533442 507.674879 
L 455.168326 507.721112 
L 455.803211 508.147191 
L 457.707864 508.822331 
L 458.342749 509.4221 
L 458.977633 509.483282 
L 459.612518 509.86098 
L 460.247402 510.001743 
L 460.882287 509.914961 
L 462.152056 510.68021 
L 462.78694 511.457164 
L 463.421825 511.378509 
L 464.056709 511.766691 
L 465.961363 512.356608 
L 466.596247 513.027243 
L 467.231132 512.649755 
L 467.866016 513.229103 
L 469.135785 513.780449 
L 469.77067 513.770428 
L 470.405555 514.34746 
L 471.040439 514.701409 
L 471.675324 514.831477 
L 473.579977 515.612053 
L 474.214862 515.957919 
L 475.484631 516.273846 
L 476.119515 516.812645 
L 476.7544 516.800897 
L 478.659053 517.614484 
L 479.293938 517.978835 
L 479.928822 517.616379 
L 480.563707 518.301541 
L 481.198591 518.489506 
L 481.833476 518.838824 
L 482.46836 519.029105 
L 483.103245 519.102749 
L 483.738129 519.798059 
L 484.373014 519.812965 
L 485.642783 520.629374 
L 486.277667 520.474294 
L 486.912552 521.072253 
L 487.547436 520.849382 
L 488.182321 521.239291 
L 488.817205 521.761247 
L 489.45209 521.895146 
L 490.086974 521.616652 
L 490.721859 521.966096 
L 491.356744 522.702165 
L 491.991628 522.350152 
L 492.626513 522.929289 
L 493.261397 523.32943 
L 493.896282 523.17612 
L 494.531166 523.739551 
L 495.166051 524.096616 
L 495.800935 523.934968 
L 497.705589 524.832475 
L 498.340473 524.930542 
L 498.975358 524.82978 
L 500.245127 525.613135 
L 500.880011 525.568586 
L 501.514896 526.268064 
L 502.14978 526.238632 
L 502.784665 525.921609 
L 503.419549 526.823032 
L 504.054434 526.894445 
L 504.689318 527.268606 
L 505.324203 527.092473 
L 505.959087 527.654725 
L 506.593972 527.663905 
L 507.863741 528.160091 
L 508.498625 528.676742 
L 509.768394 528.83119 
L 510.403279 529.010859 
L 511.038163 529.34085 
L 512.307933 529.602376 
L 512.942817 529.941378 
L 513.577702 529.967105 
L 514.212586 530.293011 
L 514.847471 530.413816 
L 515.482355 530.845116 
L 516.11724 530.522704 
L 516.752124 531.069587 
L 517.387009 531.785571 
L 518.021893 531.486403 
L 518.656778 531.40021 
L 519.291662 532.233504 
L 519.926547 531.956104 
L 521.196316 532.829862 
L 521.8312 533.061786 
L 522.466085 532.887591 
L 523.100969 532.883591 
L 523.735854 533.454643 
L 524.370738 533.604838 
L 525.005623 534.002242 
L 525.640507 534.081824 
L 526.275392 534.420405 
L 526.910276 534.436868 
L 527.545161 535.00131 
L 528.180045 534.835662 
L 530.084699 535.593584 
L 530.719583 536.123204 
L 531.354468 535.987409 
L 531.989352 536.386877 
L 532.624237 536.422709 
L 533.894006 536.962098 
L 535.163775 537.003362 
L 535.79866 537.772864 
L 536.433544 537.669155 
L 537.068429 537.911943 
L 537.703313 538.359791 
L 538.973082 538.48249 
L 539.607967 538.609905 
L 540.877736 539.362901 
L 541.51262 539.226223 
L 542.147505 539.278309 
L 543.417274 540.21329 
L 544.687043 540.395023 
L 545.321927 540.785311 
L 545.956812 540.550903 
L 546.591696 541.143303 
L 547.226581 541.056774 
L 547.861465 541.345458 
L 549.766119 541.821223 
L 550.401003 542.214753 
L 551.035888 541.960807 
L 551.670772 542.690855 
L 552.305657 542.53047 
L 552.940541 542.917726 
L 553.575426 542.879451 
L 554.21031 543.314035 
L 554.845195 543.279466 
L 555.48008 543.962059 
L 556.114964 543.520822 
L 556.749849 543.792284 
L 557.384733 543.69586 
L 558.654502 544.795311 
L 559.289387 544.474625 
L 559.924271 544.830975 
L 560.559156 545.015361 
L 561.19404 544.99755 
L 561.828925 545.140797 
L 562.463809 545.606961 
L 563.098694 545.769536 
L 563.733578 546.110938 
L 564.368463 545.862423 
L 565.638232 546.595334 
L 566.273116 546.86966 
L 566.908001 546.283112 
L 567.542885 546.923136 
L 568.17777 546.873576 
L 568.812654 547.563328 
L 570.082423 547.780009 
L 570.717308 547.715081 
L 571.352192 548.171181 
L 571.987077 548.371147 
L 572.621961 548.358515 
L 573.256846 548.59246 
L 573.89173 548.695495 
L 574.526615 548.91504 
L 575.161499 549.307939 
L 575.796384 549.070625 
L 576.431268 549.807494 
L 577.066153 549.68909 
L 578.335922 549.9707 
L 578.970807 550.451265 
L 579.605691 550.423095 
L 580.240576 550.225446 
L 580.87546 550.886102 
L 581.510345 550.798688 
L 582.780114 551.518125 
L 582.780114 551.518125 
" clip-path="url(#p9dcf9e1a38)" style="fill: none; stroke: #1f77b4; stroke-width: 1.5; stroke-linecap: square"/>
   </g>
   <g id="line2d_34">
    <path d="M 75.507386 71.095746 
L 76.142271 83.988933 
L 76.777155 90.256615 
L 77.41204 94.439758 
L 78.046924 96.857278 
L 79.316693 100.343468 
L 79.951578 101.468225 
L 82.491116 108.015918 
L 83.760885 109.993758 
L 84.39577 111.561226 
L 85.665539 113.577469 
L 86.935308 116.333696 
L 87.570192 117.623259 
L 89.474846 122.070327 
L 90.10973 123.355089 
L 90.744615 124.31024 
L 91.379499 126.874629 
L 92.014384 128.076862 
L 93.284153 131.179292 
L 93.919037 132.184718 
L 95.823691 136.81335 
L 96.458575 138.136262 
L 97.09346 139.853293 
L 98.998113 144.251686 
L 99.632998 146.289655 
L 100.267882 147.639262 
L 100.902767 148.596181 
L 101.537651 151.596881 
L 102.172536 152.783535 
L 102.80742 154.73628 
L 103.442305 155.604185 
L 104.07719 158.251103 
L 104.712074 160.294294 
L 105.346959 161.423514 
L 105.981843 163.735851 
L 106.616728 165.112154 
L 107.251612 167.32234 
L 107.886497 167.357036 
L 108.521381 169.551643 
L 109.156266 171.277517 
L 110.426035 175.989521 
L 111.060919 176.655482 
L 111.695804 179.517481 
L 112.330688 180.019563 
L 112.965573 181.70013 
L 113.600457 184.239675 
L 114.235342 185.382454 
L 114.870226 187.323072 
L 115.505111 188.086553 
L 116.139995 188.600677 
L 116.77488 188.666448 
L 117.409764 191.249363 
L 118.044649 194.986679 
L 118.679533 197.148442 
L 119.949302 200.124888 
L 120.584187 200.081013 
L 121.219071 202.603126 
L 121.853956 204.451783 
L 122.48884 203.287025 
L 123.758609 207.723903 
L 124.393494 208.287966 
L 125.028379 211.255569 
L 125.663263 213.046792 
L 126.298148 212.406011 
L 126.933032 215.012254 
L 127.567917 215.484776 
L 128.202801 218.276289 
L 128.837686 217.902044 
L 129.47257 218.378019 
L 130.107455 218.263657 
L 130.742339 220.220697 
L 131.377224 222.710051 
L 132.012108 222.592489 
L 133.281877 226.505811 
L 133.916762 229.486805 
L 134.551646 229.494805 
L 135.821415 230.487767 
L 136.4563 232.950594 
L 137.091184 232.752187 
L 137.726069 235.950873 
L 138.360953 234.193756 
L 138.995838 237.494929 
L 139.630722 238.569579 
L 140.265607 238.613202 
L 140.900491 239.002184 
L 141.535376 241.17338 
L 142.17026 242.945234 
L 142.805145 245.143799 
L 143.440029 244.977561 
L 144.074914 240.76048 
L 144.709798 245.311552 
L 145.344683 245.69464 
L 145.979567 249.653269 
L 146.614452 247.532349 
L 147.249337 248.031315 
L 147.884221 249.859087 
L 148.519106 250.212026 
L 149.15399 251.586308 
L 150.423759 256.85589 
L 151.058644 254.188003 
L 151.693528 253.047498 
L 152.328413 259.617507 
L 152.963297 256.522825 
L 153.598182 259.309117 
L 154.233066 263.046601 
L 154.867951 262.998852 
L 156.13772 261.557368 
L 157.407489 266.53136 
L 158.042373 267.325073 
L 158.677258 266.19299 
L 159.312142 269.671517 
L 159.947027 270.263286 
L 161.216796 272.677353 
L 161.85168 269.640526 
L 162.486565 273.324451 
L 163.121449 274.132059 
L 163.756334 274.672963 
L 164.391218 277.244931 
L 165.026103 274.123975 
L 165.660987 277.38742 
L 166.295872 278.680015 
L 166.930756 275.515268 
L 167.565641 278.616013 
L 168.200526 279.752139 
L 168.83541 274.689974 
L 169.470295 281.845268 
L 170.105179 284.859104 
L 170.740064 281.933439 
L 171.374948 282.842694 
L 172.009833 286.086012 
L 172.644717 281.685178 
L 173.279602 284.328896 
L 173.914486 285.169516 
L 174.549371 282.081571 
L 175.184255 285.532308 
L 175.81914 285.704946 
L 176.454024 290.153193 
L 177.088909 291.502884 
L 177.723793 291.428187 
L 178.358678 294.376674 
L 178.993562 295.243063 
L 179.628447 295.526021 
L 180.263331 291.499853 
L 180.898216 295.472124 
L 181.5331 295.547243 
L 182.167985 294.983096 
L 182.802869 292.638505 
L 184.072638 299.704532 
L 184.707523 294.90343 
L 185.342407 303.703457 
L 185.977292 302.449601 
L 186.612176 296.74375 
L 187.247061 305.272315 
L 187.881945 301.087488 
L 188.51683 304.104482 
L 189.151715 303.27262 
L 189.786599 304.62067 
L 190.421484 306.791654 
L 191.056368 310.168662 
L 191.691253 309.055821 
L 192.326137 305.598474 
L 192.961022 311.410729 
L 193.595906 306.947071 
L 194.230791 306.761127 
L 194.865675 309.911684 
L 195.50056 312.258844 
L 196.135444 312.693597 
L 196.770329 307.341695 
L 197.405213 311.906747 
L 198.040098 310.16243 
L 198.674982 312.003508 
L 199.309867 309.104118 
L 199.944751 315.724318 
L 201.21452 315.15735 
L 201.849405 313.264228 
L 202.484289 314.594719 
L 203.119174 319.385631 
L 203.754058 316.809073 
L 204.388943 320.52222 
L 205.023827 319.562101 
L 205.658712 319.417085 
L 206.293596 315.345441 
L 206.928481 321.055755 
L 207.563365 318.754534 
L 208.19825 322.445574 
L 208.833134 324.763849 
L 209.468019 324.144542 
L 210.737788 325.290773 
L 211.372673 322.393278 
L 212.007557 325.69883 
L 212.642442 325.925112 
L 213.277326 325.161758 
L 213.912211 326.224113 
L 214.547095 326.867968 
L 215.18198 328.298378 
L 215.816864 328.42512 
L 216.451749 331.235875 
L 217.086633 330.974813 
L 217.721518 325.586532 
L 218.356402 333.518695 
L 218.991287 332.20589 
L 219.626171 334.394685 
L 220.261056 334.93681 
L 220.89594 330.519638 
L 221.530825 331.162483 
L 222.165709 337.69548 
L 222.800594 335.745177 
L 223.435478 336.014871 
L 224.070363 336.132138 
L 224.705247 339.477903 
L 225.340132 335.335688 
L 225.975016 337.864412 
L 226.609901 338.316218 
L 227.244785 344.090661 
L 227.87967 341.098089 
L 228.514554 333.38168 
L 229.149439 342.882196 
L 229.784323 337.569791 
L 230.419208 338.929672 
L 231.054092 343.252231 
L 231.688977 341.901192 
L 232.958746 342.359945 
L 233.593631 346.317859 
L 234.228515 343.448448 
L 234.8634 345.82963 
L 235.498284 346.175916 
L 236.133169 338.498541 
L 236.768053 349.135562 
L 237.402938 350.067133 
L 238.037822 342.341545 
L 238.672707 346.988746 
L 239.307591 349.479153 
L 239.942476 344.869048 
L 240.57736 348.952776 
L 241.212245 348.789823 
L 241.847129 349.773522 
L 242.482014 347.560262 
L 243.116898 352.305362 
L 243.751783 352.972839 
L 244.386667 350.392534 
L 245.021552 349.299778 
L 245.656436 352.939827 
L 246.291321 348.498149 
L 246.926205 353.129897 
L 247.56109 351.915158 
L 248.195974 346.646165 
L 248.830859 355.427539 
L 249.465743 354.811811 
L 250.100628 355.842418 
L 250.735512 353.604483 
L 251.370397 357.832385 
L 252.005281 356.829906 
L 252.640166 358.712375 
L 253.27505 359.240647 
L 253.909935 343.89617 
L 254.54482 356.924647 
L 255.179704 361.910471 
L 255.814589 353.298577 
L 256.449473 362.394363 
L 257.719242 356.46223 
L 258.354127 359.512447 
L 258.989011 359.397327 
L 259.623896 360.619224 
L 260.25878 364.819546 
L 260.893665 361.947778 
L 261.528549 364.921234 
L 262.163434 363.250689 
L 262.798318 362.126732 
L 263.433203 361.301775 
L 264.068087 363.114936 
L 264.702972 362.354487 
L 265.337856 366.73069 
L 265.972741 367.577584 
L 266.607625 357.946916 
L 267.24251 366.80825 
L 267.877394 363.675167 
L 268.512279 369.973293 
L 269.147163 368.487428 
L 269.782048 364.369466 
L 270.416932 368.18228 
L 271.051817 364.996353 
L 271.686701 371.09127 
L 272.321586 366.538009 
L 272.95647 371.56573 
L 273.591355 366.306506 
L 274.226239 375.911531 
L 274.861124 363.051439 
L 275.496009 375.552991 
L 276.130893 368.729289 
L 276.765778 372.60261 
L 277.400662 371.856519 
L 278.035547 372.367822 
L 278.670431 373.484116 
L 279.305316 374.942401 
L 280.575085 371.244665 
L 281.209969 374.883704 
L 281.844854 372.950496 
L 282.479738 376.477531 
L 283.114623 374.41775 
L 283.749507 373.332068 
L 284.384392 373.273371 
L 285.019276 375.403512 
L 285.654161 382.638935 
L 286.289045 377.705197 
L 286.92393 378.499415 
L 287.558814 382.851364 
L 288.828583 378.667548 
L 289.463468 379.186514 
L 290.098352 386.014722 
L 290.733237 385.264294 
L 291.368121 381.93832 
L 292.003006 381.464618 
L 292.63789 381.261074 
L 293.907659 385.651214 
L 294.542544 368.1771 
L 295.177428 384.451254 
L 295.812313 373.084059 
L 296.447197 385.97312 
L 297.082082 385.084835 
L 297.716967 387.256367 
L 298.351851 385.719258 
L 298.986736 381.708164 
L 299.62162 384.852153 
L 300.256505 384.830636 
L 300.891389 382.689379 
L 301.526274 387.349213 
L 302.161158 384.105641 
L 302.796043 386.307153 
L 303.430927 384.833457 
L 304.065812 382.023418 
L 304.700696 382.557542 
L 305.335581 390.905006 
L 305.970465 387.996352 
L 306.60535 386.569437 
L 307.240234 376.554418 
L 307.875119 391.231039 
L 308.510003 389.822777 
L 309.144888 385.979605 
L 309.779772 384.610544 
L 310.414657 389.783238 
L 311.049541 389.970277 
L 311.684426 394.395576 
L 312.31931 392.432641 
L 312.954195 397.354716 
L 313.589079 384.718085 
L 314.223964 393.018431 
L 314.858848 393.744689 
L 315.493733 391.711477 
L 316.128617 394.0487 
L 316.763502 399.495762 
L 317.398386 390.909764 
L 318.668156 393.067148 
L 319.30304 399.333525 
L 320.572809 388.343607 
L 321.207694 394.725061 
L 322.477463 397.935621 
L 323.112347 399.142065 
L 323.747232 394.593351 
L 324.382116 396.665048 
L 325.017001 395.883504 
L 325.651885 398.314203 
L 326.28677 397.006324 
L 326.921654 397.469035 
L 327.556539 403.577301 
L 328.191423 406.250999 
L 328.826308 405.324397 
L 329.461192 402.781104 
L 330.096077 405.921976 
L 330.730961 396.670775 
L 331.365846 410.511786 
L 332.00073 401.034261 
L 332.635615 399.20552 
L 333.270499 402.18525 
L 333.905384 396.438092 
L 334.540268 405.154369 
L 335.175153 403.321334 
L 335.810037 398.981343 
L 336.444922 406.514714 
L 337.079806 399.272723 
L 337.714691 397.757467 
L 338.349575 408.70452 
L 338.98446 398.736829 
L 339.619344 407.666882 
L 340.254229 377.841412 
L 340.889114 409.958924 
L 341.523998 403.101157 
L 342.158883 410.288073 
L 343.428652 402.990332 
L 344.063536 409.366692 
L 344.698421 408.060413 
L 345.333305 402.896055 
L 345.96819 400.842001 
L 346.603074 409.941281 
L 347.237959 410.699878 
L 347.872843 408.845325 
L 348.507728 417.170009 
L 349.142612 407.615765 
L 349.777497 413.576783 
L 350.412381 403.16697 
L 351.047266 414.832576 
L 351.68215 405.934103 
L 352.317035 413.032131 
L 352.951919 413.022405 
L 353.586804 404.317539 
L 354.221688 418.193204 
L 354.856573 413.191 
L 355.491457 413.671186 
L 356.126342 411.032605 
L 356.761226 417.755673 
L 357.396111 417.689439 
L 358.030995 414.096254 
L 358.66588 412.873725 
L 359.300764 412.414088 
L 359.935649 424.156623 
L 360.570533 408.602917 
L 361.205418 419.939542 
L 361.840303 414.975781 
L 362.475187 418.172151 
L 363.110072 416.089591 
L 363.744956 412.853935 
L 364.379841 416.860819 
L 365.014725 424.722117 
L 365.64961 416.641021 
L 366.284494 412.264861 
L 366.919379 419.077321 
L 367.554263 419.234127 
L 368.189148 407.643429 
L 368.824032 421.422375 
L 369.458917 420.464951 
L 370.093801 414.529239 
L 370.728686 406.797714 
L 371.36357 416.43394 
L 371.998455 411.768548 
L 372.633339 417.233969 
L 373.268224 427.619739 
L 373.903108 421.746387 
L 374.537993 424.266437 
L 375.172877 423.055151 
L 375.807762 420.298966 
L 376.442646 421.766388 
L 377.077531 421.726807 
L 377.712415 426.178297 
L 378.3473 413.243171 
L 378.982184 434.257666 
L 379.617069 425.218135 
L 380.251953 424.596091 
L 380.886838 416.51588 
L 381.521722 422.794804 
L 382.156607 423.703806 
L 382.791491 427.060855 
L 383.426376 427.748543 
L 384.061261 421.795736 
L 384.696145 420.183467 
L 385.33103 408.853494 
L 385.965914 428.205865 
L 386.600799 421.039077 
L 387.235683 431.176669 
L 387.870568 435.046747 
L 388.505452 413.854688 
L 389.140337 430.255161 
L 389.775221 429.758301 
L 390.410106 431.051275 
L 391.04499 431.825872 
L 391.679875 428.155295 
L 392.314759 431.786544 
L 392.949644 424.796056 
L 393.584528 431.111235 
L 394.219413 434.37207 
L 394.854297 436.508359 
L 395.489182 427.724037 
L 396.124066 415.766673 
L 396.758951 427.076814 
L 397.393835 420.010197 
L 398.02872 440.416839 
L 398.663604 442.035087 
L 399.298489 428.839362 
L 399.933373 439.74734 
L 401.203142 413.279509 
L 401.838027 437.710297 
L 402.472911 438.213895 
L 403.107796 442.674984 
L 403.74268 439.927179 
L 404.377565 429.657834 
L 405.01245 442.365457 
L 405.647334 424.66342 
L 406.282219 437.38258 
L 406.917103 432.682156 
L 407.551988 426.484876 
L 408.186872 446.338403 
L 408.821757 425.532504 
L 409.456641 443.739318 
L 410.091526 430.974135 
L 410.72641 430.612396 
L 411.361295 437.142445 
L 411.996179 426.784929 
L 412.631064 448.953025 
L 413.265948 443.88025 
L 413.900833 417.493726 
L 414.535717 444.615182 
L 415.170602 432.828603 
L 415.805486 434.148272 
L 416.440371 423.128627 
L 417.075255 436.74542 
L 417.71014 438.679175 
L 418.345024 435.601715 
L 418.979909 434.574562 
L 419.614793 445.090778 
L 420.249678 446.66793 
L 420.884562 429.894096 
L 421.519447 430.688483 
L 422.154331 437.900241 
L 422.789216 433.527365 
L 423.4241 439.366274 
L 424.058985 443.883281 
L 424.693869 434.972345 
L 425.328754 443.873597 
L 425.963638 440.175482 
L 426.598523 440.377385 
L 427.233408 445.136927 
L 427.868292 444.61135 
L 428.503177 444.410922 
L 429.138061 441.127475 
L 429.772946 449.340155 
L 430.40783 443.016092 
L 431.042715 447.743717 
L 431.677599 447.076914 
L 432.312484 434.055301 
L 432.947368 450.830483 
L 433.582253 444.785251 
L 434.217137 453.900364 
L 434.852022 433.310726 
L 435.486906 447.408673 
L 436.121791 451.273994 
L 436.756675 441.630946 
L 437.39156 446.377688 
L 438.026444 441.511994 
L 438.661329 427.483228 
L 439.296213 443.199635 
L 439.931098 450.663866 
L 440.565982 452.151457 
L 441.200867 451.588321 
L 441.835751 454.044495 
L 442.470636 449.052734 
L 443.10552 448.545894 
L 443.740405 446.482787 
L 444.375289 446.615044 
L 445.010174 455.641522 
L 445.645058 448.932224 
L 446.279943 439.789321 
L 446.914827 452.823482 
L 447.549712 445.579133 
L 448.184597 458.695107 
L 449.454366 428.680241 
L 450.08925 457.978155 
L 450.724135 451.61009 
L 451.359019 451.086829 
L 451.993904 446.399373 
L 452.628788 446.721027 
L 453.263673 439.118433 
L 453.898557 448.867337 
L 454.533442 447.73239 
L 455.168326 451.110998 
L 455.803211 453.210317 
L 456.438095 457.044521 
L 457.07298 438.256254 
L 457.707864 432.048322 
L 458.342749 446.4059 
L 458.977633 449.853268 
L 459.612518 457.67027 
L 460.247402 450.440826 
L 461.517171 457.792422 
L 462.152056 453.744905 
L 462.78694 447.142558 
L 463.421825 450.580874 
L 464.056709 460.385148 
L 464.691594 460.806132 
L 465.326478 453.806044 
L 465.961363 451.250119 
L 466.596247 456.363654 
L 467.231132 457.091133 
L 467.866016 441.205962 
L 468.500901 455.293046 
L 469.135785 443.593039 
L 469.77067 452.324811 
L 470.405555 436.336184 
L 471.040439 461.351584 
L 471.675324 448.411952 
L 472.310208 443.045566 
L 472.945093 451.320606 
L 473.579977 457.499232 
L 474.214862 456.812723 
L 474.849746 454.045548 
L 475.484631 457.189284 
L 476.119515 454.633485 
L 476.7544 447.847005 
L 477.389284 457.495737 
L 478.024169 442.238463 
L 478.659053 466.086367 
L 479.293938 454.490785 
L 479.928822 461.248927 
L 480.563707 462.216584 
L 481.198591 464.130801 
L 481.833476 471.026085 
L 482.46836 448.111983 
L 483.103245 448.609812 
L 483.738129 459.757462 
L 484.373014 468.165391 
L 485.007898 471.785186 
L 485.642783 461.834254 
L 486.277667 446.267537 
L 486.912552 455.717146 
L 487.547436 454.604431 
L 488.182321 469.691678 
L 488.817205 449.118294 
L 489.45209 464.046798 
L 490.086974 460.652358 
L 490.721859 463.503789 
L 491.356744 461.690754 
L 491.991628 471.939171 
L 492.626513 429.568105 
L 493.261397 470.201128 
L 494.531166 456.223985 
L 495.166051 452.44431 
L 495.800935 469.521188 
L 496.43582 463.945447 
L 497.070704 454.088413 
L 497.705589 466.169907 
L 498.340473 457.299098 
L 498.975358 435.116939 
L 499.610242 462.050514 
L 500.245127 468.303964 
L 500.880011 465.822231 
L 501.514896 445.435338 
L 502.14978 462.12357 
L 502.784665 452.987151 
L 503.419549 466.504277 
L 504.054434 448.566863 
L 504.689318 446.211451 
L 505.324203 463.801021 
L 505.959087 460.943358 
L 506.593972 448.041918 
L 507.228856 457.945817 
L 507.863741 463.629562 
L 508.498625 463.866286 
L 509.13351 470.273089 
L 509.768394 463.19923 
L 510.403279 474.346291 
L 511.038163 458.826902 
L 511.673048 473.457837 
L 512.307933 461.662921 
L 512.942817 463.419449 
L 513.577702 447.569185 
L 514.212586 466.813973 
L 514.847471 461.234821 
L 515.482355 473.618853 
L 516.11724 465.620624 
L 516.752124 460.248259 
L 517.387009 451.03988 
L 518.021893 455.649985 
L 518.656778 466.906861 
L 519.291662 467.44848 
L 519.926547 467.814431 
L 520.561431 445.229015 
L 521.196316 455.58093 
L 521.8312 452.258872 
L 522.466085 467.013096 
L 523.100969 458.323515 
L 523.735854 454.580515 
L 524.370738 463.464208 
L 525.005623 462.777236 
L 525.640507 469.425184 
L 526.275392 465.322255 
L 526.910276 469.945624 
L 527.545161 466.902902 
L 528.180045 460.453488 
L 528.81493 470.131779 
L 529.449814 448.752638 
L 530.084699 453.621238 
L 530.719583 460.034567 
L 531.354468 467.873422 
L 531.989352 469.978468 
L 532.624237 462.346146 
L 533.259121 471.795292 
L 533.894006 471.656887 
L 534.528891 471.168869 
L 535.163775 467.758302 
L 535.79866 472.838488 
L 536.433544 463.753061 
L 537.068429 469.490239 
L 537.703313 460.110528 
L 538.338198 463.513726 
L 538.973082 477.913032 
L 539.607967 474.912585 
L 540.242851 461.459545 
L 540.877736 468.697452 
L 541.51262 466.788204 
L 542.147505 459.537454 
L 542.782389 473.030832 
L 543.417274 468.587343 
L 544.052158 468.954051 
L 544.687043 452.576357 
L 545.321927 459.758809 
L 545.956812 472.467275 
L 546.591696 457.559108 
L 547.226581 469.914171 
L 547.861465 469.067655 
L 548.49635 471.664635 
L 549.131234 469.911181 
L 549.766119 481.169446 
L 550.401003 476.795307 
L 551.035888 469.80924 
L 551.670772 481.191973 
L 552.305657 476.319415 
L 552.940541 474.430883 
L 553.575426 457.521338 
L 554.21031 452.049012 
L 554.845195 476.882636 
L 555.48008 468.967231 
L 556.749849 479.824217 
L 558.019618 466.654599 
L 558.654502 481.772962 
L 559.289387 473.776796 
L 559.924271 450.04557 
L 560.559156 470.24273 
L 561.19404 474.283341 
L 561.828925 471.188617 
L 562.463809 484.008792 
L 563.098694 469.146648 
L 563.733578 476.207664 
L 564.368463 472.715705 
L 565.003347 486.297212 
L 565.638232 465.6853 
L 566.273116 487.967968 
L 567.542885 481.229237 
L 568.17777 457.945691 
L 568.812654 476.504475 
L 569.447539 475.589199 
L 570.082423 481.318125 
L 570.717308 477.427835 
L 571.352192 471.088066 
L 571.987077 466.869638 
L 572.621961 469.360424 
L 573.256846 471.278557 
L 573.89173 481.760204 
L 574.526615 466.964252 
L 575.161499 482.150745 
L 576.431268 465.849053 
L 577.066153 476.454073 
L 577.701038 475.851272 
L 578.335922 463.739966 
L 578.970807 477.962255 
L 579.605691 469.179702 
L 580.240576 492.843557 
L 580.87546 468.820278 
L 581.510345 487.231731 
L 582.145229 479.563955 
L 582.780114 464.589555 
L 582.780114 464.589555 
" clip-path="url(#p9dcf9e1a38)" style="fill: none; stroke: #ff7f0e; stroke-width: 1.5; stroke-linecap: square"/>
   </g>
   <g id="patch_3">
    <path d="M 50.14375 576.718125 
L 50.14375 22.318125 
" style="fill: none; stroke: #000000; stroke-width: 0.8; stroke-linejoin: miter; stroke-linecap: square"/>
   </g>
   <g id="patch_4">
    <path d="M 608.14375 576.718125 
L 608.14375 22.318125 
" style="fill: none; stroke: #000000; stroke-width: 0.8; stroke-linejoin: miter; stroke-linecap: square"/>
   </g>
   <g id="patch_5">
    <path d="M 50.14375 576.718125 
L 608.14375 576.718125 
" style="fill: none; stroke: #000000; stroke-width: 0.8; stroke-linejoin: miter; stroke-linecap: square"/>
   </g>
   <g id="patch_6">
    <path d="M 50.14375 22.318125 
L 608.14375 22.318125 
" style="fill: none; stroke: #000000; stroke-width: 0.8; stroke-linejoin: miter; stroke-linecap: square"/>
   </g>
   <g id="text_19">
    <!-- Train and Val Loss -->
    <g transform="translate(275.598437 16.318125) scale(0.12 -0.12)">
     <defs>
      <path id="DejaVuSans-54" d="M -19 4666 
L 3928 4666 
L 3928 4134 
L 2272 4134 
L 2272 0 
L 1638 0 
L 1638 4134 
L -19 4134 
L -19 4666 
z
" transform="scale(0.015625)"/>
      <path id="DejaVuSans-72" d="M 2631 2963 
Q 2534 3019 2420 3045 
Q 2306 3072 2169 3072 
Q 1681 3072 1420 2755 
Q 1159 2438 1159 1844 
L 1159 0 
L 581 0 
L 581 3500 
L 1159 3500 
L 1159 2956 
Q 1341 3275 1631 3429 
Q 1922 3584 2338 3584 
Q 2397 3584 2469 3576 
Q 2541 3569 2628 3553 
L 2631 2963 
z
" transform="scale(0.015625)"/>
      <path id="DejaVuSans-61" d="M 2194 1759 
Q 1497 1759 1228 1600 
Q 959 1441 959 1056 
Q 959 750 1161 570 
Q 1363 391 1709 391 
Q 2188 391 2477 730 
Q 2766 1069 2766 1631 
L 2766 1759 
L 2194 1759 
z
M 3341 1997 
L 3341 0 
L 2766 0 
L 2766 531 
Q 2569 213 2275 61 
Q 1981 -91 1556 -91 
Q 1019 -91 701 211 
Q 384 513 384 1019 
Q 384 1609 779 1909 
Q 1175 2209 1959 2209 
L 2766 2209 
L 2766 2266 
Q 2766 2663 2505 2880 
Q 2244 3097 1772 3097 
Q 1472 3097 1187 3025 
Q 903 2953 641 2809 
L 641 3341 
Q 956 3463 1253 3523 
Q 1550 3584 1831 3584 
Q 2591 3584 2966 3190 
Q 3341 2797 3341 1997 
z
" transform="scale(0.015625)"/>
      <path id="DejaVuSans-69" d="M 603 3500 
L 1178 3500 
L 1178 0 
L 603 0 
L 603 3500 
z
M 603 4863 
L 1178 4863 
L 1178 4134 
L 603 4134 
L 603 4863 
z
" transform="scale(0.015625)"/>
      <path id="DejaVuSans-6e" d="M 3513 2113 
L 3513 0 
L 2938 0 
L 2938 2094 
Q 2938 2591 2744 2837 
Q 2550 3084 2163 3084 
Q 1697 3084 1428 2787 
Q 1159 2491 1159 1978 
L 1159 0 
L 581 0 
L 581 3500 
L 1159 3500 
L 1159 2956 
Q 1366 3272 1645 3428 
Q 1925 3584 2291 3584 
Q 2894 3584 3203 3211 
Q 3513 2838 3513 2113 
z
" transform="scale(0.015625)"/>
      <path id="DejaVuSans-20" transform="scale(0.015625)"/>
      <path id="DejaVuSans-64" d="M 2906 2969 
L 2906 4863 
L 3481 4863 
L 3481 0 
L 2906 0 
L 2906 525 
Q 2725 213 2448 61 
Q 2172 -91 1784 -91 
Q 1150 -91 751 415 
Q 353 922 353 1747 
Q 353 2572 751 3078 
Q 1150 3584 1784 3584 
Q 2172 3584 2448 3432 
Q 2725 3281 2906 2969 
z
M 947 1747 
Q 947 1113 1208 752 
Q 1469 391 1925 391 
Q 2381 391 2643 752 
Q 2906 1113 2906 1747 
Q 2906 2381 2643 2742 
Q 2381 3103 1925 3103 
Q 1469 3103 1208 2742 
Q 947 2381 947 1747 
z
" transform="scale(0.015625)"/>
      <path id="DejaVuSans-56" d="M 1831 0 
L 50 4666 
L 709 4666 
L 2188 738 
L 3669 4666 
L 4325 4666 
L 2547 0 
L 1831 0 
z
" transform="scale(0.015625)"/>
      <path id="DejaVuSans-6c" d="M 603 4863 
L 1178 4863 
L 1178 0 
L 603 0 
L 603 4863 
z
" transform="scale(0.015625)"/>
     </defs>
     <use xlink:href="#DejaVuSans-54"/>
     <use xlink:href="#DejaVuSans-72" transform="translate(46.333984 0)"/>
     <use xlink:href="#DejaVuSans-61" transform="translate(87.447266 0)"/>
     <use xlink:href="#DejaVuSans-69" transform="translate(148.726562 0)"/>
     <use xlink:href="#DejaVuSans-6e" transform="translate(176.509766 0)"/>
     <use xlink:href="#DejaVuSans-20" transform="translate(239.888672 0)"/>
     <use xlink:href="#DejaVuSans-61" transform="translate(271.675781 0)"/>
     <use xlink:href="#DejaVuSans-6e" transform="translate(332.955078 0)"/>
     <use xlink:href="#DejaVuSans-64" transform="translate(396.333984 0)"/>
     <use xlink:href="#DejaVuSans-20" transform="translate(459.810547 0)"/>
     <use xlink:href="#DejaVuSans-56" transform="translate(491.597656 0)"/>
     <use xlink:href="#DejaVuSans-61" transform="translate(552.255859 0)"/>
     <use xlink:href="#DejaVuSans-6c" transform="translate(613.535156 0)"/>
     <use xlink:href="#DejaVuSans-20" transform="translate(641.318359 0)"/>
     <use xlink:href="#DejaVuSans-4c" transform="translate(673.105469 0)"/>
     <use xlink:href="#DejaVuSans-6f" transform="translate(727.068359 0)"/>
     <use xlink:href="#DejaVuSans-73" transform="translate(788.25 0)"/>
     <use xlink:href="#DejaVuSans-73" transform="translate(840.349609 0)"/>
    </g>
   </g>
   <g id="legend_1">
    <g id="patch_7">
     <path d="M 521.553125 60.230625 
L 601.14375 60.230625 
Q 603.14375 60.230625 603.14375 58.230625 
L 603.14375 29.318125 
Q 603.14375 27.318125 601.14375 27.318125 
L 521.553125 27.318125 
Q 519.553125 27.318125 519.553125 29.318125 
L 519.553125 58.230625 
Q 519.553125 60.230625 521.553125 60.230625 
z
" style="fill: #ffffff; opacity: 0.8; stroke: #cccccc; stroke-linejoin: miter"/>
    </g>
    <g id="line2d_35">
     <path d="M 523.553125 35.416563 
L 533.553125 35.416563 
L 543.553125 35.416563 
" style="fill: none; stroke: #1f77b4; stroke-width: 1.5; stroke-linecap: square"/>
    </g>
    <g id="text_20">
     <!-- train_loss -->
     <g transform="translate(551.553125 38.916563) scale(0.1 -0.1)">
      <defs>
       <path id="DejaVuSans-74" d="M 1172 4494 
L 1172 3500 
L 2356 3500 
L 2356 3053 
L 1172 3053 
L 1172 1153 
Q 1172 725 1289 603 
Q 1406 481 1766 481 
L 2356 481 
L 2356 0 
L 1766 0 
Q 1100 0 847 248 
Q 594 497 594 1153 
L 594 3053 
L 172 3053 
L 172 3500 
L 594 3500 
L 594 4494 
L 1172 4494 
z
" transform="scale(0.015625)"/>
       <path id="DejaVuSans-5f" d="M 3263 -1063 
L 3263 -1509 
L -63 -1509 
L -63 -1063 
L 3263 -1063 
z
" transform="scale(0.015625)"/>
      </defs>
      <use xlink:href="#DejaVuSans-74"/>
      <use xlink:href="#DejaVuSans-72" transform="translate(39.208984 0)"/>
      <use xlink:href="#DejaVuSans-61" transform="translate(80.322266 0)"/>
      <use xlink:href="#DejaVuSans-69" transform="translate(141.601562 0)"/>
      <use xlink:href="#DejaVuSans-6e" transform="translate(169.384766 0)"/>
      <use xlink:href="#DejaVuSans-5f" transform="translate(232.763672 0)"/>
      <use xlink:href="#DejaVuSans-6c" transform="translate(282.763672 0)"/>
      <use xlink:href="#DejaVuSans-6f" transform="translate(310.546875 0)"/>
      <use xlink:href="#DejaVuSans-73" transform="translate(371.728516 0)"/>
      <use xlink:href="#DejaVuSans-73" transform="translate(423.828125 0)"/>
     </g>
    </g>
    <g id="line2d_36">
     <path d="M 523.553125 50.372813 
L 533.553125 50.372813 
L 543.553125 50.372813 
" style="fill: none; stroke: #ff7f0e; stroke-width: 1.5; stroke-linecap: square"/>
    </g>
    <g id="text_21">
     <!-- val_loss -->
     <g transform="translate(551.553125 53.872813) scale(0.1 -0.1)">
      <defs>
       <path id="DejaVuSans-76" d="M 191 3500 
L 800 3500 
L 1894 563 
L 2988 3500 
L 3597 3500 
L 2284 0 
L 1503 0 
L 191 3500 
z
" transform="scale(0.015625)"/>
      </defs>
      <use xlink:href="#DejaVuSans-76"/>
      <use xlink:href="#DejaVuSans-61" transform="translate(59.179688 0)"/>
      <use xlink:href="#DejaVuSans-6c" transform="translate(120.458984 0)"/>
      <use xlink:href="#DejaVuSans-5f" transform="translate(148.242188 0)"/>
      <use xlink:href="#DejaVuSans-6c" transform="translate(198.242188 0)"/>
      <use xlink:href="#DejaVuSans-6f" transform="translate(226.025391 0)"/>
      <use xlink:href="#DejaVuSans-73" transform="translate(287.207031 0)"/>
      <use xlink:href="#DejaVuSans-73" transform="translate(339.306641 0)"/>
     </g>
    </g>
   </g>
  </g>
 </g>
 <defs>
  <clipPath id="p9dcf9e1a38">
   <rect x="50.14375" y="22.318125" width="558" height="554.4"/>
  </clipPath>
 </defs>
</svg>
