<?xml version="1.0" encoding="utf-8" standalone="no"?>
<!DOCTYPE svg PUBLIC "-//W3C//DTD SVG 1.1//EN"
  "http://www.w3.org/Graphics/SVG/1.1/DTD/svg11.dtd">
<svg xmlns:xlink="http://www.w3.org/1999/xlink" width="615.34375pt" height="614.274375pt" viewBox="0 0 615.34375 614.274375" xmlns="http://www.w3.org/2000/svg" version="1.1">
 <metadata>
  <rdf:RDF xmlns:dc="http://purl.org/dc/elements/1.1/" xmlns:cc="http://creativecommons.org/ns#" xmlns:rdf="http://www.w3.org/1999/02/22-rdf-syntax-ns#">
   <cc:Work>
    <dc:type rdf:resource="http://purl.org/dc/dcmitype/StillImage"/>
    <dc:date>2026-05-22T16:19:46.108529</dc:date>
    <dc:format>image/svg+xml</dc:format>
    <dc:creator>
     <cc:Agent>
      <dc:title>Matplotlib v3.10.9, https://matplotlib.org/</dc:title>
     </cc:Agent>
    </dc:creator>
   </cc:Work>
  </rdf:RDF>
 </metadata>
 <defs>
  <style type="text/css">*{stroke-linejoin: round; stroke-linecap: butt}</style>
 </defs>
 <g id="figure_1">
  <g id="patch_1">
   <path d="M 0 614.274375 
L 615.34375 614.274375 
L 615.34375 0 
L 0 0 
z
" style="fill: #ffffff"/>
  </g>
  <g id="axes_1">
   <g id="patch_2">
    <path d="M 50.14375 576.718125 
L 608.14375 576.718125 
L 608.14375 22.318125 
L 50.14375 22.318125 
z
" style="fill: #ffffff"/>
   </g>
   <g id="matplotlib.axis_1">
    <g id="xtick_1">
     <g id="line2d_1">
      <path d="M 75.507386 576.718125 
L 75.507386 22.318125 
" clip-path="url(#p5a9144413a)" style="fill: none; stroke: #b0b0b0; stroke-width: 0.8; stroke-linecap: square"/>
     </g>
     <g id="line2d_2">
      <defs>
       <path id="mfc1a8a20bb" d="M 0 0 
L 0 3.5 
" style="stroke: #000000; stroke-width: 0.8"/>
      </defs>
      <g>
       <use xlink:href="#mfc1a8a20bb" x="75.507386" y="576.718125" style="stroke: #000000; stroke-width: 0.8"/>
      </g>
     </g>
     <g id="text_1">
      <!-- 0 -->
      <g transform="translate(72.326136 591.316563) scale(0.1 -0.1)">
       <defs>
        <path id="DejaVuSans-30" d="M 2034 4250 
Q 1547 4250 1301 3770 
Q 1056 3291 1056 2328 
Q 1056 1369 1301 889 
Q 1547 409 2034 409 
Q 2525 409 2770 889 
Q 3016 1369 3016 2328 
Q 3016 3291 2770 3770 
Q 2525 4250 2034 4250 
z
M 2034 4750 
Q 2819 4750 3233 4129 
Q 3647 3509 3647 2328 
Q 3647 1150 3233 529 
Q 2819 -91 2034 -91 
Q 1250 -91 836 529 
Q 422 1150 422 2328 
Q 422 3509 836 4129 
Q 1250 4750 2034 4750 
z
" transform="scale(0.015625)"/>
       </defs>
       <use xlink:href="#DejaVuSans-30"/>
      </g>
     </g>
    </g>
    <g id="xtick_2">
     <g id="line2d_3">
      <path d="M 138.995838 576.718125 
L 138.995838 22.318125 
" clip-path="url(#p5a9144413a)" style="fill: none; stroke: #b0b0b0; stroke-width: 0.8; stroke-linecap: square"/>
     </g>
     <g id="line2d_4">
      <g>
       <use xlink:href="#mfc1a8a20bb" x="138.995838" y="576.718125" style="stroke: #000000; stroke-width: 0.8"/>
      </g>
     </g>
     <g id="text_2">
      <!-- 100 -->
      <g transform="translate(129.452088 591.316563) scale(0.1 -0.1)">
       <defs>
        <path id="DejaVuSans-31" d="M 794 531 
L 1825 531 
L 1825 4091 
L 703 3866 
L 703 4441 
L 1819 4666 
L 2450 4666 
L 2450 531 
L 3481 531 
L 3481 0 
L 794 0 
L 794 531 
z
" transform="scale(0.015625)"/>
       </defs>
       <use xlink:href="#DejaVuSans-31"/>
       <use xlink:href="#DejaVuSans-30" transform="translate(63.623047 0)"/>
       <use xlink:href="#DejaVuSans-30" transform="translate(127.246094 0)"/>
      </g>
     </g>
    </g>
    <g id="xtick_3">
     <g id="line2d_5">
      <path d="M 202.484289 576.718125 
L 202.484289 22.318125 
" clip-path="url(#p5a9144413a)" style="fill: none; stroke: #b0b0b0; stroke-width: 0.8; stroke-linecap: square"/>
     </g>
     <g id="line2d_6">
      <g>
       <use xlink:href="#mfc1a8a20bb" x="202.484289" y="576.718125" style="stroke: #000000; stroke-width: 0.8"/>
      </g>
     </g>
     <g id="text_3">
      <!-- 200 -->
      <g transform="translate(192.940539 591.316563) scale(0.1 -0.1)">
       <defs>
        <path id="DejaVuSans-32" d="M 1228 531 
L 3431 531 
L 3431 0 
L 469 0 
L 469 531 
Q 828 903 1448 1529 
Q 2069 2156 2228 2338 
Q 2531 2678 2651 2914 
Q 2772 3150 2772 3378 
Q 2772 3750 2511 3984 
Q 2250 4219 1831 4219 
Q 1534 4219 1204 4116 
Q 875 4013 500 3803 
L 500 4441 
Q 881 4594 1212 4672 
Q 1544 4750 1819 4750 
Q 2544 4750 2975 4387 
Q 3406 4025 3406 3419 
Q 3406 3131 3298 2873 
Q 3191 2616 2906 2266 
Q 2828 2175 2409 1742 
Q 1991 1309 1228 531 
z
" transform="scale(0.015625)"/>
       </defs>
       <use xlink:href="#DejaVuSans-32"/>
       <use xlink:href="#DejaVuSans-30" transform="translate(63.623047 0)"/>
       <use xlink:href="#DejaVuSans-30" transform="translate(127.246094 0)"/>
      </g>
     </g>
    </g>
    <g id="xtick_4">
     <g id="line2d_7">
      <path d="M 265.972741 576.718125 
L 265.972741 22.318125 
" clip-path="url(#p5a9144413a)" style="fill: none; stroke: #b0b0b0; stroke-width: 0.8; stroke-linecap: square"/>
     </g>
     <g id="line2d_8">
      <g>
       <use xlink:href="#mfc1a8a20bb" x="265.972741" y="576.718125" style="stroke: #000000; stroke-width: 0.8"/>
      </g>
     </g>
     <g id="text_4">
      <!-- 300 -->
      <g transform="translate(256.428991 591.316563) scale(0.1 -0.1)">
       <defs>
        <path id="DejaVuSans-33" d="M 2597 2516 
Q 3050 2419 3304 2112 
Q 3559 1806 3559 1356 
Q 3559 666 3084 287 
Q 2609 -91 1734 -91 
Q 1441 -91 1130 -33 
Q 819 25 488 141 
L 488 750 
Q 750 597 1062 519 
Q 1375 441 1716 441 
Q 2309 441 2620 675 
Q 2931 909 2931 1356 
Q 2931 1769 2642 2001 
Q 2353 2234 1838 2234 
L 1294 2234 
L 1294 2753 
L 1863 2753 
Q 2328 2753 2575 2939 
Q 2822 3125 2822 3475 
Q 2822 3834 2567 4026 
Q 2313 4219 1838 4219 
Q 1578 4219 1281 4162 
Q 984 4106 628 3988 
L 628 4550 
Q 988 4650 1302 4700 
Q 1616 4750 1894 4750 
Q 2613 4750 3031 4423 
Q 3450 4097 3450 3541 
Q 3450 3153 3228 2886 
Q 3006 2619 2597 2516 
z
" transform="scale(0.015625)"/>
       </defs>
       <use xlink:href="#DejaVuSans-33"/>
       <use xlink:href="#DejaVuSans-30" transform="translate(63.623047 0)"/>
       <use xlink:href="#DejaVuSans-30" transform="translate(127.246094 0)"/>
      </g>
     </g>
    </g>
    <g id="xtick_5">
     <g id="line2d_9">
      <path d="M 329.461192 576.718125 
L 329.461192 22.318125 
" clip-path="url(#p5a9144413a)" style="fill: none; stroke: #b0b0b0; stroke-width: 0.8; stroke-linecap: square"/>
     </g>
     <g id="line2d_10">
      <g>
       <use xlink:href="#mfc1a8a20bb" x="329.461192" y="576.718125" style="stroke: #000000; stroke-width: 0.8"/>
      </g>
     </g>
     <g id="text_5">
      <!-- 400 -->
      <g transform="translate(319.917442 591.316563) scale(0.1 -0.1)">
       <defs>
        <path id="DejaVuSans-34" d="M 2419 4116 
L 825 1625 
L 2419 1625 
L 2419 4116 
z
M 2253 4666 
L 3047 4666 
L 3047 1625 
L 3713 1625 
L 3713 1100 
L 3047 1100 
L 3047 0 
L 2419 0 
L 2419 1100 
L 313 1100 
L 313 1709 
L 2253 4666 
z
" transform="scale(0.015625)"/>
       </defs>
       <use xlink:href="#DejaVuSans-34"/>
       <use xlink:href="#DejaVuSans-30" transform="translate(63.623047 0)"/>
       <use xlink:href="#DejaVuSans-30" transform="translate(127.246094 0)"/>
      </g>
     </g>
    </g>
    <g id="xtick_6">
     <g id="line2d_11">
      <path d="M 392.949644 576.718125 
L 392.949644 22.318125 
" clip-path="url(#p5a9144413a)" style="fill: none; stroke: #b0b0b0; stroke-width: 0.8; stroke-linecap: square"/>
     </g>
     <g id="line2d_12">
      <g>
       <use xlink:href="#mfc1a8a20bb" x="392.949644" y="576.718125" style="stroke: #000000; stroke-width: 0.8"/>
      </g>
     </g>
     <g id="text_6">
      <!-- 500 -->
      <g transform="translate(383.405894 591.316563) scale(0.1 -0.1)">
       <defs>
        <path id="DejaVuSans-35" d="M 691 4666 
L 3169 4666 
L 3169 4134 
L 1269 4134 
L 1269 2991 
Q 1406 3038 1543 3061 
Q 1681 3084 1819 3084 
Q 2600 3084 3056 2656 
Q 3513 2228 3513 1497 
Q 3513 744 3044 326 
Q 2575 -91 1722 -91 
Q 1428 -91 1123 -41 
Q 819 9 494 109 
L 494 744 
Q 775 591 1075 516 
Q 1375 441 1709 441 
Q 2250 441 2565 725 
Q 2881 1009 2881 1497 
Q 2881 1984 2565 2268 
Q 2250 2553 1709 2553 
Q 1456 2553 1204 2497 
Q 953 2441 691 2322 
L 691 4666 
z
" transform="scale(0.015625)"/>
       </defs>
       <use xlink:href="#DejaVuSans-35"/>
       <use xlink:href="#DejaVuSans-30" transform="translate(63.623047 0)"/>
       <use xlink:href="#DejaVuSans-30" transform="translate(127.246094 0)"/>
      </g>
     </g>
    </g>
    <g id="xtick_7">
     <g id="line2d_13">
      <path d="M 456.438095 576.718125 
L 456.438095 22.318125 
" clip-path="url(#p5a9144413a)" style="fill: none; stroke: #b0b0b0; stroke-width: 0.8; stroke-linecap: square"/>
     </g>
     <g id="line2d_14">
      <g>
       <use xlink:href="#mfc1a8a20bb" x="456.438095" y="576.718125" style="stroke: #000000; stroke-width: 0.8"/>
      </g>
     </g>
     <g id="text_7">
      <!-- 600 -->
      <g transform="translate(446.894345 591.316563) scale(0.1 -0.1)">
       <defs>
        <path id="DejaVuSans-36" d="M 2113 2584 
Q 1688 2584 1439 2293 
Q 1191 2003 1191 1497 
Q 1191 994 1439 701 
Q 1688 409 2113 409 
Q 2538 409 2786 701 
Q 3034 994 3034 1497 
Q 3034 2003 2786 2293 
Q 2538 2584 2113 2584 
z
M 3366 4563 
L 3366 3988 
Q 3128 4100 2886 4159 
Q 2644 4219 2406 4219 
Q 1781 4219 1451 3797 
Q 1122 3375 1075 2522 
Q 1259 2794 1537 2939 
Q 1816 3084 2150 3084 
Q 2853 3084 3261 2657 
Q 3669 2231 3669 1497 
Q 3669 778 3244 343 
Q 2819 -91 2113 -91 
Q 1303 -91 875 529 
Q 447 1150 447 2328 
Q 447 3434 972 4092 
Q 1497 4750 2381 4750 
Q 2619 4750 2861 4703 
Q 3103 4656 3366 4563 
z
" transform="scale(0.015625)"/>
       </defs>
       <use xlink:href="#DejaVuSans-36"/>
       <use xlink:href="#DejaVuSans-30" transform="translate(63.623047 0)"/>
       <use xlink:href="#DejaVuSans-30" transform="translate(127.246094 0)"/>
      </g>
     </g>
    </g>
    <g id="xtick_8">
     <g id="line2d_15">
      <path d="M 519.926547 576.718125 
L 519.926547 22.318125 
" clip-path="url(#p5a9144413a)" style="fill: none; stroke: #b0b0b0; stroke-width: 0.8; stroke-linecap: square"/>
     </g>
     <g id="line2d_16">
      <g>
       <use xlink:href="#mfc1a8a20bb" x="519.926547" y="576.718125" style="stroke: #000000; stroke-width: 0.8"/>
      </g>
     </g>
     <g id="text_8">
      <!-- 700 -->
      <g transform="translate(510.382797 591.316563) scale(0.1 -0.1)">
       <defs>
        <path id="DejaVuSans-37" d="M 525 4666 
L 3525 4666 
L 3525 4397 
L 1831 0 
L 1172 0 
L 2766 4134 
L 525 4134 
L 525 4666 
z
" transform="scale(0.015625)"/>
       </defs>
       <use xlink:href="#DejaVuSans-37"/>
       <use xlink:href="#DejaVuSans-30" transform="translate(63.623047 0)"/>
       <use xlink:href="#DejaVuSans-30" transform="translate(127.246094 0)"/>
      </g>
     </g>
    </g>
    <g id="xtick_9">
     <g id="line2d_17">
      <path d="M 583.414998 576.718125 
L 583.414998 22.318125 
" clip-path="url(#p5a9144413a)" style="fill: none; stroke: #b0b0b0; stroke-width: 0.8; stroke-linecap: square"/>
     </g>
     <g id="line2d_18">
      <g>
       <use xlink:href="#mfc1a8a20bb" x="583.414998" y="576.718125" style="stroke: #000000; stroke-width: 0.8"/>
      </g>
     </g>
     <g id="text_9">
      <!-- 800 -->
      <g transform="translate(573.871248 591.316563) scale(0.1 -0.1)">
       <defs>
        <path id="DejaVuSans-38" d="M 2034 2216 
Q 1584 2216 1326 1975 
Q 1069 1734 1069 1313 
Q 1069 891 1326 650 
Q 1584 409 2034 409 
Q 2484 409 2743 651 
Q 3003 894 3003 1313 
Q 3003 1734 2745 1975 
Q 2488 2216 2034 2216 
z
M 1403 2484 
Q 997 2584 770 2862 
Q 544 3141 544 3541 
Q 544 4100 942 4425 
Q 1341 4750 2034 4750 
Q 2731 4750 3128 4425 
Q 3525 4100 3525 3541 
Q 3525 3141 3298 2862 
Q 3072 2584 2669 2484 
Q 3125 2378 3379 2068 
Q 3634 1759 3634 1313 
Q 3634 634 3220 271 
Q 2806 -91 2034 -91 
Q 1263 -91 848 271 
Q 434 634 434 1313 
Q 434 1759 690 2068 
Q 947 2378 1403 2484 
z
M 1172 3481 
Q 1172 3119 1398 2916 
Q 1625 2713 2034 2713 
Q 2441 2713 2670 2916 
Q 2900 3119 2900 3481 
Q 2900 3844 2670 4047 
Q 2441 4250 2034 4250 
Q 1625 4250 1398 4047 
Q 1172 3844 1172 3481 
z
" transform="scale(0.015625)"/>
       </defs>
       <use xlink:href="#DejaVuSans-38"/>
       <use xlink:href="#DejaVuSans-30" transform="translate(63.623047 0)"/>
       <use xlink:href="#DejaVuSans-30" transform="translate(127.246094 0)"/>
      </g>
     </g>
    </g>
    <g id="text_10">
     <!-- Epochs -->
     <g transform="translate(311.228125 604.994688) scale(0.1 -0.1)">
      <defs>
       <path id="DejaVuSans-45" d="M 628 4666 
L 3578 4666 
L 3578 4134 
L 1259 4134 
L 1259 2753 
L 3481 2753 
L 3481 2222 
L 1259 2222 
L 1259 531 
L 3634 531 
L 3634 0 
L 628 0 
L 628 4666 
z
" transform="scale(0.015625)"/>
       <path id="DejaVuSans-70" d="M 1159 525 
L 1159 -1331 
L 581 -1331 
L 581 3500 
L 1159 3500 
L 1159 2969 
Q 1341 3281 1617 3432 
Q 1894 3584 2278 3584 
Q 2916 3584 3314 3078 
Q 3713 2572 3713 1747 
Q 3713 922 3314 415 
Q 2916 -91 2278 -91 
Q 1894 -91 1617 61 
Q 1341 213 1159 525 
z
M 3116 1747 
Q 3116 2381 2855 2742 
Q 2594 3103 2138 3103 
Q 1681 3103 1420 2742 
Q 1159 2381 1159 1747 
Q 1159 1113 1420 752 
Q 1681 391 2138 391 
Q 2594 391 2855 752 
Q 3116 1113 3116 1747 
z
" transform="scale(0.015625)"/>
       <path id="DejaVuSans-6f" d="M 1959 3097 
Q 1497 3097 1228 2736 
Q 959 2375 959 1747 
Q 959 1119 1226 758 
Q 1494 397 1959 397 
Q 2419 397 2687 759 
Q 2956 1122 2956 1747 
Q 2956 2369 2687 2733 
Q 2419 3097 1959 3097 
z
M 1959 3584 
Q 2709 3584 3137 3096 
Q 3566 2609 3566 1747 
Q 3566 888 3137 398 
Q 2709 -91 1959 -91 
Q 1206 -91 779 398 
Q 353 888 353 1747 
Q 353 2609 779 3096 
Q 1206 3584 1959 3584 
z
" transform="scale(0.015625)"/>
       <path id="DejaVuSans-63" d="M 3122 3366 
L 3122 2828 
Q 2878 2963 2633 3030 
Q 2388 3097 2138 3097 
Q 1578 3097 1268 2742 
Q 959 2388 959 1747 
Q 959 1106 1268 751 
Q 1578 397 2138 397 
Q 2388 397 2633 464 
Q 2878 531 3122 666 
L 3122 134 
Q 2881 22 2623 -34 
Q 2366 -91 2075 -91 
Q 1284 -91 818 406 
Q 353 903 353 1747 
Q 353 2603 823 3093 
Q 1294 3584 2113 3584 
Q 2378 3584 2631 3529 
Q 2884 3475 3122 3366 
z
" transform="scale(0.015625)"/>
       <path id="DejaVuSans-68" d="M 3513 2113 
L 3513 0 
L 2938 0 
L 2938 2094 
Q 2938 2591 2744 2837 
Q 2550 3084 2163 3084 
Q 1697 3084 1428 2787 
Q 1159 2491 1159 1978 
L 1159 0 
L 581 0 
L 581 4863 
L 1159 4863 
L 1159 2956 
Q 1366 3272 1645 3428 
Q 1925 3584 2291 3584 
Q 2894 3584 3203 3211 
Q 3513 2838 3513 2113 
z
" transform="scale(0.015625)"/>
       <path id="DejaVuSans-73" d="M 2834 3397 
L 2834 2853 
Q 2591 2978 2328 3040 
Q 2066 3103 1784 3103 
Q 1356 3103 1142 2972 
Q 928 2841 928 2578 
Q 928 2378 1081 2264 
Q 1234 2150 1697 2047 
L 1894 2003 
Q 2506 1872 2764 1633 
Q 3022 1394 3022 966 
Q 3022 478 2636 193 
Q 2250 -91 1575 -91 
Q 1294 -91 989 -36 
Q 684 19 347 128 
L 347 722 
Q 666 556 975 473 
Q 1284 391 1588 391 
Q 1994 391 2212 530 
Q 2431 669 2431 922 
Q 2431 1156 2273 1281 
Q 2116 1406 1581 1522 
L 1381 1569 
Q 847 1681 609 1914 
Q 372 2147 372 2553 
Q 372 3047 722 3315 
Q 1072 3584 1716 3584 
Q 2034 3584 2315 3537 
Q 2597 3491 2834 3397 
z
" transform="scale(0.015625)"/>
      </defs>
      <use xlink:href="#DejaVuSans-45"/>
      <use xlink:href="#DejaVuSans-70" transform="translate(63.183594 0)"/>
      <use xlink:href="#DejaVuSans-6f" transform="translate(126.660156 0)"/>
      <use xlink:href="#DejaVuSans-63" transform="translate(187.841797 0)"/>
      <use xlink:href="#DejaVuSans-68" transform="translate(242.822266 0)"/>
      <use xlink:href="#DejaVuSans-73" transform="translate(306.201172 0)"/>
     </g>
    </g>
   </g>
   <g id="matplotlib.axis_2">
    <g id="ytick_1">
     <g id="line2d_19">
      <path d="M 50.14375 521.500372 
L 608.14375 521.500372 
" clip-path="url(#p5a9144413a)" style="fill: none; stroke: #b0b0b0; stroke-width: 0.8; stroke-linecap: square"/>
     </g>
     <g id="line2d_20">
      <defs>
       <path id="m07f3980b7d" d="M 0 0 
L -3.5 0 
" style="stroke: #000000; stroke-width: 0.8"/>
      </defs>
      <g>
       <use xlink:href="#m07f3980b7d" x="50.14375" y="521.500372" style="stroke: #000000; stroke-width: 0.8"/>
      </g>
     </g>
     <g id="text_11">
      <!-- 1.65 -->
      <g transform="translate(20.878125 525.299591) scale(0.1 -0.1)">
       <defs>
        <path id="DejaVuSans-2e" d="M 684 794 
L 1344 794 
L 1344 0 
L 684 0 
L 684 794 
z
" transform="scale(0.015625)"/>
       </defs>
       <use xlink:href="#DejaVuSans-31"/>
       <use xlink:href="#DejaVuSans-2e" transform="translate(63.623047 0)"/>
       <use xlink:href="#DejaVuSans-36" transform="translate(95.410156 0)"/>
       <use xlink:href="#DejaVuSans-35" transform="translate(159.033203 0)"/>
      </g>
     </g>
    </g>
    <g id="ytick_2">
     <g id="line2d_21">
      <path d="M 50.14375 400.887129 
L 608.14375 400.887129 
" clip-path="url(#p5a9144413a)" style="fill: none; stroke: #b0b0b0; stroke-width: 0.8; stroke-linecap: square"/>
     </g>
     <g id="line2d_22">
      <g>
       <use xlink:href="#m07f3980b7d" x="50.14375" y="400.887129" style="stroke: #000000; stroke-width: 0.8"/>
      </g>
     </g>
     <g id="text_12">
      <!-- 1.70 -->
      <g transform="translate(20.878125 404.686347) scale(0.1 -0.1)">
       <use xlink:href="#DejaVuSans-31"/>
       <use xlink:href="#DejaVuSans-2e" transform="translate(63.623047 0)"/>
       <use xlink:href="#DejaVuSans-37" transform="translate(95.410156 0)"/>
       <use xlink:href="#DejaVuSans-30" transform="translate(159.033203 0)"/>
      </g>
     </g>
    </g>
    <g id="ytick_3">
     <g id="line2d_23">
      <path d="M 50.14375 280.273885 
L 608.14375 280.273885 
" clip-path="url(#p5a9144413a)" style="fill: none; stroke: #b0b0b0; stroke-width: 0.8; stroke-linecap: square"/>
     </g>
     <g id="line2d_24">
      <g>
       <use xlink:href="#m07f3980b7d" x="50.14375" y="280.273885" style="stroke: #000000; stroke-width: 0.8"/>
      </g>
     </g>
     <g id="text_13">
      <!-- 1.75 -->
      <g transform="translate(20.878125 284.073104) scale(0.1 -0.1)">
       <use xlink:href="#DejaVuSans-31"/>
       <use xlink:href="#DejaVuSans-2e" transform="translate(63.623047 0)"/>
       <use xlink:href="#DejaVuSans-37" transform="translate(95.410156 0)"/>
       <use xlink:href="#DejaVuSans-35" transform="translate(159.033203 0)"/>
      </g>
     </g>
    </g>
    <g id="ytick_4">
     <g id="line2d_25">
      <path d="M 50.14375 159.660642 
L 608.14375 159.660642 
" clip-path="url(#p5a9144413a)" style="fill: none; stroke: #b0b0b0; stroke-width: 0.8; stroke-linecap: square"/>
     </g>
     <g id="line2d_26">
      <g>
       <use xlink:href="#m07f3980b7d" x="50.14375" y="159.660642" style="stroke: #000000; stroke-width: 0.8"/>
      </g>
     </g>
     <g id="text_14">
      <!-- 1.80 -->
      <g transform="translate(20.878125 163.459861) scale(0.1 -0.1)">
       <use xlink:href="#DejaVuSans-31"/>
       <use xlink:href="#DejaVuSans-2e" transform="translate(63.623047 0)"/>
       <use xlink:href="#DejaVuSans-38" transform="translate(95.410156 0)"/>
       <use xlink:href="#DejaVuSans-30" transform="translate(159.033203 0)"/>
      </g>
     </g>
    </g>
    <g id="ytick_5">
     <g id="line2d_27">
      <path d="M 50.14375 39.047399 
L 608.14375 39.047399 
" clip-path="url(#p5a9144413a)" style="fill: none; stroke: #b0b0b0; stroke-width: 0.8; stroke-linecap: square"/>
     </g>
     <g id="line2d_28">
      <g>
       <use xlink:href="#m07f3980b7d" x="50.14375" y="39.047399" style="stroke: #000000; stroke-width: 0.8"/>
      </g>
     </g>
     <g id="text_15">
      <!-- 1.85 -->
      <g transform="translate(20.878125 42.846617) scale(0.1 -0.1)">
       <use xlink:href="#DejaVuSans-31"/>
       <use xlink:href="#DejaVuSans-2e" transform="translate(63.623047 0)"/>
       <use xlink:href="#DejaVuSans-38" transform="translate(95.410156 0)"/>
       <use xlink:href="#DejaVuSans-35" transform="translate(159.033203 0)"/>
      </g>
     </g>
    </g>
    <g id="text_16">
     <!-- Loss -->
     <g transform="translate(14.798437 310.485313) rotate(-90) scale(0.1 -0.1)">
      <defs>
       <path id="DejaVuSans-4c" d="M 628 4666 
L 1259 4666 
L 1259 531 
L 3531 531 
L 3531 0 
L 628 0 
L 628 4666 
z
" transform="scale(0.015625)"/>
      </defs>
      <use xlink:href="#DejaVuSans-4c"/>
      <use xlink:href="#DejaVuSans-6f" transform="translate(53.962891 0)"/>
      <use xlink:href="#DejaVuSans-73" transform="translate(115.144531 0)"/>
      <use xlink:href="#DejaVuSans-73" transform="translate(167.244141 0)"/>
     </g>
    </g>
   </g>
   <g id="line2d_29">
    <path d="M 75.507386 211.206097 
L 76.142271 263.138787 
L 77.41204 308.663679 
L 78.046924 326.973766 
L 78.681809 336.796965 
L 79.316693 348.399037 
L 81.221347 365.16174 
L 81.856232 372.301676 
L 82.491116 380.885473 
L 83.760885 391.041672 
L 84.39577 396.844146 
L 85.665539 404.199755 
L 86.300423 406.790998 
L 86.935308 410.482174 
L 87.570192 411.774201 
L 88.839961 416.870992 
L 89.474846 418.380705 
L 90.744615 422.859233 
L 91.379499 423.70726 
L 92.014384 425.719348 
L 92.649268 427.020002 
L 93.284153 429.189675 
L 93.919037 429.141652 
L 95.188806 431.411973 
L 95.823691 433.598325 
L 96.458575 433.391278 
L 97.09346 435.696107 
L 97.728344 434.691932 
L 98.363229 436.920268 
L 98.998113 438.528616 
L 99.632998 438.834584 
L 100.267882 440.709217 
L 100.902767 440.72302 
L 101.537651 441.307926 
L 102.172536 443.645249 
L 102.80742 442.883203 
L 103.442305 444.214626 
L 104.07719 446.333688 
L 104.712074 445.010317 
L 105.346959 446.673589 
L 105.981843 446.897027 
L 106.616728 448.932983 
L 107.251612 448.893587 
L 107.886497 450.341473 
L 108.521381 450.304665 
L 109.156266 451.322355 
L 109.79115 451.578288 
L 110.426035 452.05852 
L 111.060919 453.741634 
L 111.695804 453.851484 
L 112.330688 454.144225 
L 112.965573 455.865872 
L 113.600457 455.538049 
L 114.235342 455.480824 
L 114.870226 457.046899 
L 115.505111 456.856244 
L 116.139995 457.804344 
L 116.77488 458.433535 
L 117.409764 457.557039 
L 118.044649 459.251368 
L 118.679533 459.104423 
L 119.314418 460.087318 
L 119.949302 459.783362 
L 120.584187 460.326859 
L 121.219071 461.410401 
L 123.123725 463.592152 
L 123.758609 463.168858 
L 124.393494 463.675546 
L 125.028379 464.4189 
L 125.663263 465.513082 
L 126.298148 465.281593 
L 126.933032 465.241909 
L 127.567917 464.639462 
L 128.202801 465.986126 
L 128.837686 466.173618 
L 129.47257 466.931637 
L 130.107455 467.392891 
L 130.742339 467.62438 
L 131.377224 468.357669 
L 132.012108 468.53826 
L 132.646993 469.051274 
L 133.281877 469.974356 
L 133.916762 468.834163 
L 134.551646 469.704621 
L 135.186531 471.224686 
L 135.821415 470.969616 
L 136.4563 471.04007 
L 137.091184 471.437484 
L 137.726069 472.159845 
L 138.360953 472.165309 
L 138.995838 472.876168 
L 140.265607 473.56661 
L 140.900491 474.340734 
L 141.535376 474.334407 
L 142.17026 474.598679 
L 142.805145 474.577112 
L 143.440029 474.880492 
L 144.074914 476.202138 
L 144.709798 475.952532 
L 145.344683 476.45807 
L 145.979567 475.74146 
L 147.249337 477.405882 
L 147.884221 477.9327 
L 148.519106 476.517596 
L 149.15399 477.549952 
L 149.788875 478.214513 
L 151.058644 478.884251 
L 151.693528 479.05794 
L 152.328413 478.740181 
L 152.963297 480.404891 
L 153.598182 480.492599 
L 154.233066 479.934436 
L 155.502835 481.268447 
L 156.13772 481.109712 
L 156.772604 481.181315 
L 157.407489 481.952275 
L 158.042373 481.652058 
L 158.677258 482.213096 
L 159.312142 482.135741 
L 159.947027 483.484706 
L 160.581911 483.252066 
L 161.216796 484.333596 
L 161.85168 483.262706 
L 162.486565 482.846313 
L 163.121449 484.761492 
L 163.756334 484.703979 
L 164.391218 485.5799 
L 165.026103 484.039993 
L 165.660987 484.655093 
L 166.295872 485.602905 
L 166.930756 485.687737 
L 167.565641 485.943669 
L 168.200526 487.22103 
L 168.83541 486.204777 
L 169.470295 486.876815 
L 170.105179 487.822615 
L 170.740064 487.820889 
L 171.374948 486.930877 
L 172.009833 487.621895 
L 172.644717 488.044902 
L 173.914486 488.204788 
L 174.549371 487.95777 
L 175.184255 489.830102 
L 175.81914 489.918671 
L 176.454024 489.266763 
L 177.088909 490.12543 
L 177.723793 489.842754 
L 178.993562 491.067204 
L 180.263331 491.695819 
L 180.898216 490.872235 
L 181.5331 490.476834 
L 182.167985 491.746718 
L 182.802869 491.607537 
L 183.437754 492.561963 
L 184.072638 491.931334 
L 184.707523 492.709484 
L 185.342407 493.851114 
L 185.977292 493.133641 
L 186.612176 492.972318 
L 187.247061 493.940259 
L 187.881945 494.670673 
L 188.51683 493.714521 
L 189.151715 493.171887 
L 189.786599 494.320132 
L 191.691253 494.681888 
L 192.326137 494.480018 
L 192.961022 496.096992 
L 193.595906 496.32273 
L 194.230791 495.966438 
L 194.865675 495.793324 
L 195.50056 497.286934 
L 196.135444 496.576649 
L 196.770329 496.985854 
L 198.040098 497.399371 
L 198.674982 497.824966 
L 199.309867 497.297286 
L 199.944751 497.956959 
L 200.579636 497.301599 
L 201.21452 496.930354 
L 201.849405 498.389455 
L 202.484289 497.843083 
L 203.119174 499.208151 
L 203.754058 498.57896 
L 204.388943 498.788595 
L 205.023827 499.49169 
L 205.658712 499.715127 
L 206.293596 499.062931 
L 206.928481 499.225405 
L 207.563365 500.002404 
L 208.19825 499.674005 
L 208.833134 500.446116 
L 209.468019 499.826702 
L 210.102903 500.878325 
L 210.737788 501.466394 
L 211.372673 500.919447 
L 212.007557 501.684656 
L 212.642442 501.482785 
L 213.277326 500.816499 
L 213.912211 502.6086 
L 214.547095 503.151234 
L 215.18198 502.437499 
L 215.816864 501.505791 
L 216.451749 502.639082 
L 217.086633 501.734404 
L 217.721518 502.580419 
L 218.356402 503.102636 
L 218.991287 502.514279 
L 219.626171 504.789488 
L 220.261056 502.556263 
L 220.89594 503.674601 
L 221.530825 504.026867 
L 222.165709 502.37366 
L 222.800594 504.347214 
L 223.435478 504.044409 
L 224.070363 504.88726 
L 224.705247 503.75857 
L 225.340132 504.135279 
L 225.975016 505.028167 
L 226.609901 505.723497 
L 227.244785 504.972092 
L 227.87967 506.193665 
L 228.514554 505.104946 
L 229.149439 506.013362 
L 229.784323 505.846575 
L 230.419208 505.936583 
L 231.054092 506.252903 
L 231.688977 506.389784 
L 232.323862 506.296038 
L 232.958746 506.859377 
L 233.593631 506.436657 
L 234.228515 506.821993 
L 234.8634 507.53314 
L 235.498284 506.518325 
L 236.133169 507.569948 
L 236.768053 506.782597 
L 237.402938 507.239824 
L 238.672707 506.799851 
L 239.307591 508.534152 
L 239.942476 508.472038 
L 240.57736 508.893319 
L 241.847129 508.220419 
L 242.482014 508.887856 
L 243.751783 508.520924 
L 244.386667 509.64185 
L 245.021552 508.71733 
L 245.656436 508.971249 
L 246.291321 508.623297 
L 246.926205 510.095626 
L 247.56109 509.990665 
L 248.195974 508.329981 
L 248.830859 509.930852 
L 249.465743 510.845307 
L 250.735512 509.943792 
L 251.370397 510.801022 
L 252.005281 510.455944 
L 252.640166 511.161915 
L 253.27505 510.292033 
L 253.909935 511.567668 
L 254.54482 510.589374 
L 255.179704 510.77169 
L 255.814589 511.713463 
L 256.449473 511.229493 
L 257.084358 512.270476 
L 257.719242 511.716914 
L 258.989011 511.470759 
L 259.623896 511.922523 
L 260.25878 512.908869 
L 260.893665 512.699809 
L 261.528549 512.870622 
L 262.798318 512.996863 
L 263.433203 512.820299 
L 264.702972 513.208511 
L 265.337856 513.750857 
L 265.972741 513.304845 
L 267.24251 514.077243 
L 267.877394 513.731303 
L 268.512279 514.210672 
L 269.147163 514.097372 
L 269.782048 512.305271 
L 270.416932 515.133467 
L 271.051817 514.327711 
L 271.686701 514.964666 
L 272.321586 514.861718 
L 272.95647 515.114487 
L 273.591355 514.840726 
L 274.226239 514.411105 
L 274.861124 515.310031 
L 275.496009 515.05985 
L 276.130893 514.317646 
L 276.765778 516.191991 
L 277.400662 515.559637 
L 278.035547 516.063162 
L 278.670431 516.178763 
L 279.305316 516.518664 
L 279.9402 516.44476 
L 280.575085 515.029943 
L 281.209969 517.025928 
L 281.844854 515.689904 
L 282.479738 517.016726 
L 283.114623 517.412989 
L 283.749507 516.425781 
L 284.384392 517.067912 
L 285.019276 516.820032 
L 285.654161 516.742964 
L 286.289045 517.853538 
L 286.92393 517.016726 
L 287.558814 516.578765 
L 288.193699 517.643328 
L 288.828583 515.792564 
L 290.098352 517.887471 
L 290.733237 518.028952 
L 291.368121 517.008674 
L 292.003006 518.277408 
L 292.63789 518.788697 
L 293.272775 518.808252 
L 293.907659 519.24765 
L 294.542544 517.746564 
L 295.177428 520.236009 
L 295.812313 518.853112 
L 296.447197 517.771007 
L 297.082082 518.467488 
L 297.716967 519.798048 
L 298.351851 519.046643 
L 298.986736 519.50272 
L 299.62162 519.419039 
L 300.256505 517.998758 
L 300.891389 518.325144 
L 301.526274 520.626809 
L 302.161158 519.080288 
L 303.430927 519.839458 
L 304.065812 520.287483 
L 304.700696 519.651678 
L 305.335581 519.478852 
L 305.970465 520.88648 
L 306.60535 521.174044 
L 307.240234 520.550029 
L 307.875119 521.016171 
L 308.510003 520.591726 
L 309.144888 520.565558 
L 309.779772 520.277418 
L 310.414657 518.709617 
L 311.049541 521.965134 
L 311.684426 521.653126 
L 312.31931 520.871239 
L 312.954195 522.222504 
L 313.589079 521.661178 
L 314.223964 522.068657 
L 314.858848 521.554779 
L 315.493733 522.695547 
L 316.128617 522.523871 
L 316.763502 521.051829 
L 317.398386 522.553778 
L 318.033271 522.885627 
L 318.668156 521.099565 
L 319.30304 522.568444 
L 320.572809 522.156939 
L 321.207694 523.316974 
L 321.842578 523.33394 
L 323.112347 522.578796 
L 323.747232 521.432564 
L 324.382116 523.167728 
L 326.28677 523.044075 
L 326.921654 523.363559 
L 327.556539 523.861046 
L 328.191423 523.44724 
L 328.826308 523.3233 
L 329.461192 524.405692 
L 330.096077 523.61144 
L 330.730961 524.865508 
L 331.365846 524.501451 
L 332.00073 523.08721 
L 332.635615 524.241493 
L 333.905384 525.017342 
L 334.540268 524.18053 
L 335.175153 524.020644 
L 335.810037 525.770473 
L 337.079806 524.108926 
L 337.714691 525.470256 
L 338.349575 524.52647 
L 339.619344 525.982408 
L 340.254229 525.279025 
L 340.889114 524.400229 
L 341.523998 525.345453 
L 342.158883 525.425396 
L 343.428652 526.561563 
L 344.063536 525.846678 
L 345.333305 525.717274 
L 345.96819 525.04351 
L 346.603074 526.655309 
L 347.237959 526.2277 
L 347.872843 527.147331 
L 348.507728 527.059912 
L 349.142612 527.603408 
L 349.777497 525.573491 
L 350.412381 526.814907 
L 351.047266 527.575802 
L 351.68215 526.708796 
L 352.317035 526.532231 
L 352.951919 527.65402 
L 353.586804 525.922882 
L 354.221688 527.03173 
L 355.491457 526.711384 
L 356.126342 527.044383 
L 356.761226 528.049421 
L 357.396111 527.740864 
L 358.030995 528.254742 
L 358.66588 528.594068 
L 359.300764 525.7814 
L 359.935649 529.279621 
L 360.570533 528.915852 
L 361.205418 528.323757 
L 361.840303 528.273146 
L 363.110072 528.570487 
L 364.379841 529.067111 
L 365.64961 528.541156 
L 366.284494 528.477029 
L 366.919379 529.455035 
L 367.554263 529.511398 
L 368.189148 527.365305 
L 368.824032 531.12636 
L 369.458917 528.169623 
L 370.093801 529.846698 
L 370.728686 529.393784 
L 371.36357 529.974664 
L 371.998455 529.464237 
L 372.633339 529.124912 
L 373.268224 529.591629 
L 373.903108 530.247275 
L 374.537993 530.042242 
L 375.172877 529.208305 
L 376.442646 530.813202 
L 377.077531 529.386308 
L 377.712415 531.796097 
L 378.3473 529.629587 
L 378.982184 530.636062 
L 379.617069 529.323043 
L 380.251953 531.025137 
L 380.886838 530.548355 
L 381.521722 532.60099 
L 382.156607 530.911549 
L 382.791491 530.137713 
L 383.426376 531.542753 
L 384.061261 530.314278 
L 384.696145 532.099765 
L 385.33103 530.68121 
L 385.965914 531.145626 
L 386.600799 530.743611 
L 387.235683 530.971362 
L 387.870568 531.974962 
L 388.505452 531.996242 
L 389.140337 531.700626 
L 389.775221 532.020972 
L 390.410106 530.985741 
L 391.04499 532.344195 
L 391.679875 532.48884 
L 392.314759 531.242536 
L 392.949644 532.732982 
L 393.584528 531.342896 
L 394.219413 531.727369 
L 394.854297 532.449443 
L 395.489182 531.504507 
L 396.124066 532.257063 
L 396.758951 532.411772 
L 397.393835 532.44398 
L 398.02872 533.720478 
L 398.663604 532.143187 
L 399.298489 532.873313 
L 399.933373 532.370651 
L 401.203142 533.099051 
L 401.838027 532.250161 
L 402.472911 532.703938 
L 403.107796 532.379565 
L 403.74268 534.088848 
L 404.377565 533.528672 
L 405.01245 534.493163 
L 405.647334 532.843982 
L 406.282219 534.650461 
L 407.551988 533.193948 
L 408.186872 533.834353 
L 408.821757 533.096751 
L 409.456641 535.496188 
L 410.091526 533.671304 
L 410.72641 533.759012 
L 411.361295 534.307972 
L 411.996179 535.112002 
L 412.631064 534.735868 
L 413.265948 534.622855 
L 413.900833 533.760162 
L 414.535717 535.795542 
L 415.170602 533.840967 
L 415.805486 534.817536 
L 416.440371 534.894028 
L 417.075255 534.461244 
L 417.71014 534.9363 
L 418.345024 534.952979 
L 419.614793 535.795255 
L 420.249678 535.446152 
L 420.884562 533.769364 
L 421.519447 537.807055 
L 422.154331 536.131418 
L 422.789216 535.436087 
L 423.4241 535.47002 
L 424.693869 535.219839 
L 425.328754 535.265849 
L 425.963638 536.171677 
L 426.598523 535.886413 
L 427.233408 536.133431 
L 427.868292 536.133431 
L 428.503177 535.788353 
L 429.138061 536.245868 
L 429.772946 535.834076 
L 430.40783 536.229765 
L 431.042715 536.435948 
L 431.677599 536.123941 
L 432.312484 535.940475 
L 432.947368 537.139043 
L 433.582253 536.228039 
L 434.217137 536.715173 
L 434.852022 535.826887 
L 435.486906 537.58333 
L 436.121791 537.256657 
L 436.756675 537.603172 
L 437.39156 536.083394 
L 438.026444 537.133292 
L 438.661329 535.961755 
L 439.296213 535.758734 
L 440.565982 537.0591 
L 441.835751 537.324522 
L 442.470636 536.927108 
L 443.10552 537.660973 
L 443.740405 536.517617 
L 444.375289 539.032367 
L 445.010174 537.226175 
L 445.645058 538.08513 
L 446.279943 537.387499 
L 446.914827 538.529129 
L 447.549712 537.910578 
L 448.184597 537.85134 
L 448.819481 538.824746 
L 449.454366 537.642568 
L 450.08925 537.613237 
L 450.724135 538.633803 
L 451.359019 537.582468 
L 451.993904 539.212095 
L 452.628788 538.194117 
L 453.263673 538.47363 
L 453.898557 538.205332 
L 454.533442 538.187791 
L 455.168326 537.315033 
L 455.803211 539.397286 
L 456.438095 539.873493 
L 457.07298 539.468027 
L 457.707864 538.308855 
L 458.977633 540.125974 
L 459.612518 538.996422 
L 460.882287 538.965077 
L 461.517171 539.309579 
L 462.78694 539.605483 
L 463.421825 540.099231 
L 464.056709 539.937332 
L 464.691594 539.008212 
L 465.326478 540.164796 
L 465.961363 538.522803 
L 466.596247 538.180889 
L 467.231132 539.931581 
L 467.866016 539.408214 
L 468.500901 539.826045 
L 469.135785 539.784636 
L 469.77067 540.069324 
L 470.405555 540.19384 
L 471.040439 540.94352 
L 471.675324 540.612246 
L 472.310208 539.542506 
L 472.945093 539.975866 
L 473.579977 541.04273 
L 474.214862 541.713617 
L 474.849746 541.404773 
L 475.484631 539.834097 
L 476.119515 539.86199 
L 476.7544 541.552294 
L 477.389284 540.09578 
L 478.024169 539.998583 
L 478.659053 539.300952 
L 479.293938 542.237847 
L 479.928822 541.105131 
L 480.563707 541.311027 
L 481.198591 540.087441 
L 481.833476 542.178034 
L 482.46836 540.765805 
L 483.103245 541.008222 
L 483.738129 542.934041 
L 484.373014 541.740073 
L 485.007898 541.342947 
L 485.642783 540.573137 
L 486.277667 541.727708 
L 486.912552 541.379468 
L 487.547436 540.745388 
L 488.817205 542.376166 
L 489.45209 541.927278 
L 490.086974 543.130447 
L 490.721859 541.679972 
L 491.991628 541.678247 
L 493.261397 542.892919 
L 493.896282 542.747124 
L 494.531166 541.810814 
L 495.166051 542.18091 
L 495.800935 543.421462 
L 496.43582 541.811964 
L 497.070704 542.433391 
L 497.705589 543.816288 
L 498.340473 542.688461 
L 498.975358 542.260852 
L 499.610242 542.703702 
L 500.245127 543.924412 
L 500.880011 543.939078 
L 501.514896 542.234109 
L 502.784665 544.218878 
L 503.419549 543.287745 
L 504.054434 543.13361 
L 504.689318 543.762226 
L 505.959087 542.879116 
L 506.593972 544.02621 
L 507.228856 543.372289 
L 507.863741 544.235845 
L 508.498625 541.08759 
L 509.13351 544.177469 
L 509.768394 543.707014 
L 510.403279 544.491489 
L 511.038163 543.652089 
L 511.673048 543.538213 
L 512.307933 545.049364 
L 512.942817 544.335342 
L 513.577702 544.364673 
L 514.212586 544.250223 
L 514.847471 545.145123 
L 515.482355 543.016572 
L 516.11724 544.936064 
L 516.752124 544.474811 
L 518.021893 543.988539 
L 518.656778 545.490776 
L 519.291662 545.271939 
L 519.926547 545.997464 
L 520.561431 545.357633 
L 521.196316 545.290631 
L 521.8312 544.321539 
L 522.466085 545.129307 
L 523.100969 545.367123 
L 523.735854 545.878125 
L 524.370738 543.990552 
L 525.005623 545.871223 
L 525.640507 544.923986 
L 526.275392 545.695521 
L 526.910276 545.695521 
L 527.545161 545.870936 
L 528.180045 544.625494 
L 528.81493 547.000776 
L 529.449814 544.50443 
L 530.084699 546.724427 
L 530.719583 545.790418 
L 531.354468 545.805659 
L 531.989352 546.703147 
L 533.259121 545.636283 
L 533.894006 546.802357 
L 534.528891 546.999051 
L 535.163775 546.592435 
L 535.79866 545.743545 
L 536.433544 546.079132 
L 537.068429 545.727441 
L 537.703313 546.384526 
L 538.338198 546.130894 
L 538.973082 546.662025 
L 539.607967 545.459719 
L 540.242851 547.301568 
L 540.877736 547.517242 
L 541.51262 545.814861 
L 542.147505 546.713499 
L 542.782389 546.389702 
L 543.417274 547.619902 
L 544.052158 546.974033 
L 544.687043 547.396177 
L 545.321927 547.117815 
L 545.956812 548.119402 
L 546.591696 546.63902 
L 547.226581 548.688491 
L 548.49635 547.646933 
L 549.131234 548.365269 
L 549.766119 548.445212 
L 550.401003 546.953903 
L 551.035888 548.722424 
L 551.670772 548.449813 
L 552.305657 548.778212 
L 553.575426 547.161812 
L 554.21031 548.861893 
L 554.845195 548.17979 
L 555.48008 547.699845 
L 556.114964 547.925871 
L 556.749849 548.730188 
L 557.384733 547.794166 
L 558.019618 549.982244 
L 558.654502 546.633556 
L 559.289387 550.207982 
L 559.924271 550.087492 
L 560.559156 548.822209 
L 561.19404 549.153771 
L 561.828925 548.727025 
L 562.463809 549.522716 
L 563.098694 548.81387 
L 563.733578 550.248241 
L 564.368463 548.85873 
L 565.003347 550.119124 
L 565.638232 550.074839 
L 566.273116 548.398914 
L 566.908001 549.622213 
L 567.542885 550.11251 
L 568.17777 550.203381 
L 568.812654 549.791301 
L 569.447539 550.461038 
L 570.082423 549.672824 
L 570.717308 548.630691 
L 571.352192 550.699717 
L 571.987077 549.698705 
L 572.621961 550.394036 
L 573.256846 550.308054 
L 573.89173 551.191739 
L 574.526615 549.451687 
L 575.161499 550.939545 
L 575.796384 549.146006 
L 576.431268 549.904314 
L 577.066153 549.522141 
L 577.701038 550.605396 
L 578.335922 550.635877 
L 578.970807 551.148892 
L 579.605691 551.152918 
L 580.240576 550.182101 
L 580.87546 550.743139 
L 581.510345 550.55766 
L 582.145229 550.690802 
L 582.780114 551.518125 
L 582.780114 551.518125 
" clip-path="url(#p5a9144413a)" style="fill: none; stroke: #1f77b4; stroke-width: 1.5; stroke-linecap: square"/>
   </g>
   <g id="line2d_30">
    <path d="M 75.507386 250.098892 
L 76.142271 280.293727 
L 76.777155 298.118981 
L 77.41204 309.485825 
L 78.046924 314.877082 
L 78.681809 323.867495 
L 79.316693 329.765728 
L 79.951578 318.2482 
L 80.586462 336.645418 
L 81.221347 344.854806 
L 81.856232 348.670211 
L 82.491116 348.071789 
L 83.126001 354.049102 
L 83.760885 358.460052 
L 84.39577 358.975943 
L 85.030654 348.696091 
L 85.665539 362.31169 
L 86.300423 359.268108 
L 86.935308 343.992113 
L 87.570192 346.125841 
L 88.205077 365.742908 
L 88.839961 366.380438 
L 89.474846 363.769354 
L 90.10973 356.515254 
L 90.744615 345.634969 
L 91.379499 365.611491 
L 92.014384 363.479489 
L 92.649268 352.784107 
L 93.284153 359.781123 
L 93.919037 370.366368 
L 94.553922 361.688825 
L 95.188806 355.27614 
L 95.823691 369.764783 
L 96.458575 350.920402 
L 97.09346 350.271944 
L 97.728344 369.180453 
L 98.363229 367.487273 
L 98.998113 359.944172 
L 99.632998 344.233667 
L 100.267882 351.387119 
L 100.902767 368.325236 
L 101.537651 363.501344 
L 102.172536 364.53485 
L 102.80742 353.494103 
L 103.442305 353.411572 
L 104.07719 373.832669 
L 104.712074 374.674945 
L 105.346959 364.406884 
L 105.981843 343.34193 
L 106.616728 351.868214 
L 107.251612 371.92583 
L 107.886497 350.34211 
L 108.521381 351.42594 
L 109.156266 368.974556 
L 109.79115 357.380536 
L 110.426035 341.69016 
L 111.060919 357.138982 
L 111.695804 350.89941 
L 112.330688 346.699819 
L 112.965573 359.640217 
L 113.600457 354.909783 
L 114.235342 359.413616 
L 114.870226 357.528919 
L 115.505111 340.04673 
L 116.139995 361.327932 
L 116.77488 361.133826 
L 117.409764 358.9515 
L 118.044649 328.453572 
L 118.679533 346.543672 
L 119.314418 369.993685 
L 119.949302 355.164852 
L 120.584187 355.271826 
L 121.219071 356.843365 
L 121.853956 360.509524 
L 122.48884 363.493867 
L 123.123725 338.325082 
L 124.393494 353.491227 
L 125.028379 333.06668 
L 125.663263 348.986819 
L 126.298148 335.101198 
L 126.933032 355.433725 
L 127.567917 362.922764 
L 128.202801 336.875758 
L 128.837686 356.483047 
L 129.47257 338.449885 
L 130.107455 338.564911 
L 130.742339 345.862144 
L 131.377224 364.463822 
L 132.012108 344.278527 
L 132.646993 345.967105 
L 133.281877 353.648813 
L 133.916762 352.649814 
L 134.551646 336.474605 
L 135.186531 357.600522 
L 135.821415 351.498406 
L 136.4563 339.12221 
L 137.091184 355.42481 
L 137.726069 355.943577 
L 138.360953 348.13304 
L 138.995838 360.172211 
L 139.630722 337.266558 
L 140.265607 329.925614 
L 140.900491 339.675484 
L 141.535376 317.657255 
L 142.17026 346.919231 
L 142.805145 324.527743 
L 143.440029 349.73765 
L 144.074914 315.575001 
L 144.709798 362.346485 
L 145.344683 332.679906 
L 145.979567 343.264575 
L 146.614452 339.468726 
L 147.249337 345.634106 
L 147.884221 336.960589 
L 148.519106 336.800128 
L 149.15399 331.400819 
L 150.423759 346.665887 
L 151.058644 332.924048 
L 151.693528 347.19213 
L 152.328413 336.221836 
L 152.963297 346.56639 
L 153.598182 339.908124 
L 154.233066 340.024012 
L 154.867951 350.82378 
L 155.502835 315.050196 
L 156.13772 334.254896 
L 156.772604 347.714922 
L 157.407489 319.343245 
L 158.042373 335.885673 
L 158.677258 360.261643 
L 159.312142 307.616369 
L 159.947027 345.546399 
L 160.581911 340.676496 
L 161.216796 349.203355 
L 161.85168 320.685883 
L 162.486565 326.869667 
L 163.121449 336.324784 
L 163.756334 304.984868 
L 164.391218 339.601868 
L 165.026103 326.149894 
L 165.660987 347.505 
L 166.295872 331.868974 
L 166.930756 347.714634 
L 167.565641 358.079317 
L 168.200526 330.458471 
L 168.83541 315.146243 
L 169.470295 333.357982 
L 170.105179 329.966448 
L 170.740064 342.880102 
L 171.374948 338.488994 
L 172.009833 326.034293 
L 172.644717 327.318843 
L 173.279602 334.784014 
L 173.914486 332.216352 
L 174.549371 336.47403 
L 175.184255 310.533135 
L 175.81914 325.799353 
L 176.454024 336.292577 
L 177.088909 300.344154 
L 177.723793 321.994876 
L 178.358678 316.939494 
L 178.993562 321.710762 
L 179.628447 306.618521 
L 180.263331 336.74204 
L 180.898216 309.70955 
L 181.5331 327.934518 
L 182.167985 319.413698 
L 182.802869 327.866078 
L 183.437754 296.639174 
L 184.072638 301.98931 
L 184.707523 308.766339 
L 185.342407 312.824448 
L 185.977292 324.898413 
L 186.612176 300.479309 
L 187.247061 321.030673 
L 187.881945 279.584018 
L 188.51683 307.556556 
L 189.151715 326.702017 
L 189.786599 316.149267 
L 190.421484 289.988385 
L 191.056368 311.246007 
L 191.691253 320.587823 
L 192.326137 290.696656 
L 192.961022 316.519938 
L 193.595906 323.187693 
L 194.230791 294.792723 
L 194.865675 324.574328 
L 195.50056 298.847381 
L 196.135444 343.529997 
L 196.770329 307.842395 
L 197.405213 291.028793 
L 198.040098 335.712272 
L 198.674982 331.995215 
L 199.309867 294.241462 
L 199.944751 301.690243 
L 200.579636 326.230412 
L 201.21452 325.678576 
L 201.849405 314.825896 
L 202.484289 313.634804 
L 203.119174 317.222457 
L 203.754058 336.864543 
L 204.388943 312.874772 
L 205.023827 271.2967 
L 205.658712 285.745373 
L 206.293596 329.913249 
L 206.928481 319.369988 
L 207.563365 315.627625 
L 208.19825 321.344118 
L 208.833134 297.94903 
L 209.468019 320.186959 
L 210.102903 306.552956 
L 210.737788 319.465747 
L 211.372673 270.698279 
L 212.007557 313.621576 
L 212.642442 271.357952 
L 213.277326 305.178111 
L 213.912211 308.254762 
L 214.547095 278.148497 
L 215.18198 300.974495 
L 215.816864 267.323999 
L 216.451749 293.724134 
L 217.086633 291.259132 
L 217.721518 316.392259 
L 218.356402 298.492239 
L 218.991287 300.104037 
L 219.626171 298.691809 
L 220.261056 309.183308 
L 220.89594 301.759546 
L 221.530825 274.459909 
L 222.165709 302.900313 
L 222.800594 259.153432 
L 223.435478 288.810234 
L 224.070363 279.253894 
L 224.705247 284.721068 
L 225.340132 301.483771 
L 225.975016 310.682956 
L 226.609901 308.268278 
L 227.244785 303.683639 
L 227.87967 296.114657 
L 228.514554 320.286456 
L 229.149439 256.501225 
L 229.784323 307.488116 
L 230.419208 269.834723 
L 231.054092 313.010502 
L 231.688977 275.714264 
L 232.323862 261.915775 
L 233.593631 290.349278 
L 234.228515 293.005223 
L 234.8634 303.773071 
L 235.498284 291.020166 
L 236.133169 304.879044 
L 236.768053 278.232753 
L 237.402938 283.406612 
L 238.037822 267.234566 
L 238.672707 321.147136 
L 239.307591 289.870771 
L 239.942476 306.411187 
L 241.212245 267.180216 
L 241.847129 315.173561 
L 242.482014 316.14064 
L 243.116898 312.16535 
L 244.386667 269.855428 
L 245.021552 298.437889 
L 245.656436 299.510792 
L 246.291321 261.495931 
L 246.926205 307.457634 
L 247.56109 277.470995 
L 248.195974 262.998455 
L 248.830859 244.985135 
L 249.465743 302.614187 
L 250.100628 286.47176 
L 250.735512 264.240733 
L 251.370397 279.401415 
L 252.005281 215.343573 
L 252.640166 273.235459 
L 253.27505 271.820068 
L 253.909935 320.246197 
L 254.54482 295.664331 
L 255.179704 257.097634 
L 255.814589 287.161052 
L 256.449473 265.867197 
L 257.084358 319.040727 
L 257.719242 288.989962 
L 258.354127 253.177844 
L 258.989011 267.021481 
L 259.623896 252.069571 
L 260.25878 245.182116 
L 260.893665 300.854005 
L 261.528549 310.026734 
L 262.163434 253.927524 
L 262.798318 230.602315 
L 263.433203 279.375822 
L 264.068087 284.705828 
L 264.702972 318.725556 
L 265.337856 303.004412 
L 265.972741 256.968805 
L 266.607625 294.093654 
L 267.24251 260.423604 
L 267.877394 303.992195 
L 268.512279 279.547785 
L 269.147163 299.138684 
L 269.782048 255.441551 
L 270.416932 276.400968 
L 271.051817 248.409451 
L 271.686701 278.874022 
L 272.321586 283.537453 
L 272.95647 277.933686 
L 273.591355 283.022426 
L 274.226239 282.793237 
L 274.861124 290.31247 
L 275.496009 258.20907 
L 276.130893 311.721063 
L 276.765778 234.887887 
L 277.400662 278.956553 
L 278.035547 275.058905 
L 278.670431 267.038447 
L 279.305316 264.24821 
L 279.9402 265.801633 
L 280.575085 297.957369 
L 281.209969 224.455914 
L 281.844854 288.760198 
L 282.479738 240.68576 
L 283.114623 219.534824 
L 283.749507 266.296819 
L 284.384392 290.820597 
L 285.019276 239.183523 
L 285.654161 262.459847 
L 286.289045 299.258311 
L 287.558814 230.993977 
L 288.193699 228.509709 
L 288.828583 247.328209 
L 289.463468 272.286497 
L 290.098352 267.386688 
L 290.733237 265.201486 
L 291.368121 207.24346 
L 292.003006 223.085382 
L 292.63789 258.5668 
L 293.272775 256.96823 
L 293.907659 274.059044 
L 294.542544 226.235937 
L 295.177428 278.520893 
L 295.812313 254.926235 
L 296.447197 242.33868 
L 297.082082 264.965395 
L 297.716967 249.926066 
L 298.351851 221.311109 
L 298.986736 289.354306 
L 299.62162 267.516092 
L 300.256505 288.988524 
L 300.891389 244.559252 
L 301.526274 230.051629 
L 302.161158 236.597744 
L 302.796043 235.398601 
L 303.430927 281.034205 
L 304.700696 221.36891 
L 305.335581 257.857379 
L 305.970465 236.920104 
L 306.60535 264.222329 
L 307.240234 230.217841 
L 307.875119 306.303638 
L 308.510003 258.759469 
L 309.144888 242.042776 
L 309.779772 221.121605 
L 310.414657 225.821269 
L 311.049541 267.488485 
L 311.684426 265.85742 
L 312.31931 239.320979 
L 312.954195 259.512887 
L 313.589079 236.841887 
L 314.223964 269.867218 
L 314.858848 210.688194 
L 315.493733 236.782936 
L 316.128617 270.251116 
L 316.763502 230.912884 
L 317.398386 290.509452 
L 318.033271 241.89353 
L 318.668156 250.57136 
L 319.30304 283.83537 
L 319.937925 248.572788 
L 320.572809 206.145827 
L 321.207694 140.240959 
L 321.842578 208.636134 
L 322.477463 211.190856 
L 323.112347 260.477666 
L 323.747232 239.985828 
L 324.382116 233.402329 
L 325.017001 253.726229 
L 325.651885 248.922466 
L 326.28677 282.356714 
L 326.921654 268.428821 
L 327.556539 274.314976 
L 328.191423 209.361372 
L 328.826308 270.834584 
L 330.096077 220.062505 
L 330.730961 218.23072 
L 332.00073 272.064785 
L 332.635615 266.000052 
L 333.270499 176.151136 
L 333.905384 236.851664 
L 334.540268 244.168164 
L 335.175153 228.39382 
L 335.810037 281.148369 
L 336.444922 259.99542 
L 337.079806 246.167599 
L 337.714691 276.874587 
L 338.349575 226.798988 
L 338.98446 277.336415 
L 339.619344 253.613216 
L 340.254229 250.140301 
L 340.889114 201.322222 
L 341.523998 190.601247 
L 342.158883 234.715923 
L 342.793767 249.607445 
L 343.428652 242.050253 
L 344.063536 190.190317 
L 344.698421 267.038447 
L 345.333305 202.031356 
L 345.96819 249.136702 
L 346.603074 226.736587 
L 347.237959 244.399366 
L 347.872843 221.745907 
L 348.507728 233.963655 
L 349.142612 187.94674 
L 349.777497 209.53506 
L 350.412381 214.054422 
L 351.047266 272.471688 
L 352.317035 189.511953 
L 352.951919 206.234397 
L 353.586804 205.672208 
L 354.221688 262.9211 
L 354.856573 252.623707 
L 355.491457 200.573404 
L 356.126342 241.915097 
L 356.761226 251.176971 
L 357.396111 254.038237 
L 358.030995 200.547523 
L 358.66588 180.864029 
L 359.300764 251.534413 
L 359.935649 241.160816 
L 360.570533 238.792436 
L 361.205418 259.610947 
L 361.840303 250.807163 
L 362.475187 217.232871 
L 363.110072 270.774771 
L 363.744956 241.073109 
L 364.379841 251.137862 
L 365.014725 211.349017 
L 365.64961 154.227516 
L 366.284494 225.146068 
L 366.919379 203.292038 
L 367.554263 257.400727 
L 368.189148 250.841383 
L 368.824032 206.893782 
L 369.458917 230.335742 
L 370.093801 198.211638 
L 370.728686 309.00588 
L 371.36357 238.569573 
L 371.998455 249.268694 
L 372.633339 184.674832 
L 373.268224 180.342962 
L 373.903108 215.278296 
L 374.537993 197.396105 
L 375.172877 198.536873 
L 375.807762 228.519486 
L 376.442646 229.290158 
L 377.077531 215.878156 
L 377.712415 196.337868 
L 378.3473 213.080442 
L 378.982184 225.572526 
L 379.617069 247.50046 
L 380.251953 211.390426 
L 380.886838 243.897279 
L 381.521722 194.117871 
L 382.156607 281.509837 
L 382.791491 179.609386 
L 383.426376 205.690612 
L 384.061261 190.93137 
L 384.696145 186.463195 
L 385.33103 163.579109 
L 385.965914 218.96976 
L 387.235683 246.215335 
L 387.870568 239.639025 
L 388.505452 252.921049 
L 389.140337 223.261084 
L 389.775221 200.012366 
L 390.410106 195.960584 
L 391.04499 170.09503 
L 391.679875 246.341863 
L 392.314759 205.574724 
L 392.949644 209.82435 
L 393.584528 207.45597 
L 394.219413 234.227926 
L 394.854297 222.819672 
L 395.489182 224.947649 
L 396.124066 242.239182 
L 396.758951 192.970202 
L 397.393835 184.95492 
L 398.02872 240.392444 
L 398.663604 170.172385 
L 399.298489 173.875927 
L 399.933373 211.073817 
L 401.203142 181.748289 
L 401.838027 201.695193 
L 402.472911 255.469157 
L 403.107796 228.818265 
L 403.74268 194.854324 
L 405.01245 213.42063 
L 405.647334 192.249278 
L 406.282219 214.611722 
L 406.917103 182.147429 
L 407.551988 214.666359 
L 408.186872 176.566667 
L 408.821757 199.028608 
L 409.456641 197.982737 
L 410.091526 158.389147 
L 410.72641 187.577795 
L 411.361295 225.269146 
L 411.996179 203.383771 
L 412.631064 201.322509 
L 413.265948 203.136465 
L 413.900833 191.581553 
L 414.535717 252.198687 
L 415.170602 194.217369 
L 415.805486 171.900935 
L 416.440371 228.449895 
L 417.075255 164.755248 
L 417.71014 223.806593 
L 418.345024 239.723282 
L 418.979909 237.65972 
L 419.614793 177.230078 
L 420.249678 146.305117 
L 420.884562 201.512877 
L 421.519447 173.900082 
L 422.154331 232.229354 
L 422.789216 132.483622 
L 423.4241 167.559863 
L 424.058985 194.600692 
L 424.693869 204.672347 
L 425.328754 164.212326 
L 425.963638 254.190933 
L 426.598523 216.963711 
L 427.233408 156.151034 
L 427.868292 138.304213 
L 428.503177 198.751109 
L 429.138061 137.325919 
L 429.772946 191.78745 
L 430.40783 136.98573 
L 431.042715 166.71845 
L 431.677599 119.338192 
L 432.312484 206.300824 
L 432.947368 170.640253 
L 433.582253 105.893119 
L 434.217137 166.95454 
L 434.852022 138.528801 
L 435.486906 201.690592 
L 436.121791 160.864501 
L 436.756675 183.356062 
L 437.39156 213.248379 
L 438.026444 213.298703 
L 438.661329 202.611085 
L 439.296213 145.582755 
L 439.931098 205.777169 
L 440.565982 223.183441 
L 441.200867 187.248533 
L 441.835751 242.827252 
L 442.470636 200.596122 
L 443.10552 209.158351 
L 443.740405 156.472818 
L 444.375289 133.707496 
L 445.010174 103.93308 
L 446.279943 259.968389 
L 446.914827 255.607188 
L 447.549712 144.961041 
L 448.184597 189.795204 
L 448.819481 216.768742 
L 449.454366 178.441874 
L 450.724135 159.899148 
L 451.359019 244.098286 
L 451.993904 241.997053 
L 452.628788 166.578981 
L 453.263673 203.367955 
L 453.898557 143.631343 
L 454.533442 203.351851 
L 455.168326 234.436986 
L 455.803211 172.506833 
L 456.438095 187.647673 
L 457.07298 190.357679 
L 457.707864 181.576326 
L 458.342749 219.556392 
L 458.977633 229.338469 
L 459.612518 183.846934 
L 460.247402 201.240553 
L 460.882287 224.167486 
L 461.517171 219.805997 
L 462.152056 161.681472 
L 462.78694 147.723097 
L 463.421825 151.629084 
L 464.056709 169.85894 
L 464.691594 148.816417 
L 465.326478 181.484018 
L 465.961363 163.012032 
L 466.596247 204.417565 
L 467.231132 136.065812 
L 467.866016 144.1642 
L 468.500901 150.214555 
L 469.135785 220.835478 
L 469.77067 147.108284 
L 470.405555 143.939325 
L 471.040439 204.626337 
L 471.675324 194.832469 
L 472.310208 191.588167 
L 472.945093 179.658847 
L 473.579977 136.214483 
L 474.214862 214.932931 
L 474.849746 212.641331 
L 475.484631 153.854257 
L 476.119515 188.821798 
L 476.7544 212.436873 
L 477.389284 205.794135 
L 478.024169 195.500768 
L 478.659053 204.689026 
L 479.293938 155.979933 
L 479.928822 187.656012 
L 480.563707 155.161812 
L 481.198591 132.870397 
L 481.833476 103.035592 
L 482.46836 178.357618 
L 483.103245 192.367179 
L 483.738129 178.477245 
L 484.373014 135.813043 
L 485.007898 173.835956 
L 485.642783 188.019493 
L 486.277667 189.435173 
L 486.912552 183.96196 
L 487.547436 109.664239 
L 488.182321 190.574791 
L 488.817205 181.275821 
L 489.45209 139.253463 
L 490.086974 173.856373 
L 490.721859 130.989438 
L 491.356744 122.134755 
L 491.991628 156.004951 
L 492.626513 128.037877 
L 493.261397 142.073607 
L 493.896282 233.205923 
L 494.531166 205.746112 
L 495.166051 168.334561 
L 495.800935 210.01098 
L 496.43582 174.801884 
L 497.070704 170.728822 
L 497.705589 214.057586 
L 498.340473 134.793052 
L 498.975358 143.281665 
L 499.610242 163.810886 
L 500.245127 205.908299 
L 500.880011 155.010553 
L 501.514896 168.827734 
L 502.14978 211.527307 
L 502.784665 163.77149 
L 503.419549 146.712596 
L 504.054434 180.300115 
L 504.689318 171.307689 
L 505.324203 166.660074 
L 505.959087 173.823303 
L 506.593972 191.452725 
L 507.228856 86.44514 
L 507.863741 195.940167 
L 508.498625 189.102461 
L 509.13351 179.501549 
L 509.768394 124.327146 
L 510.403279 201.265284 
L 511.038163 163.105778 
L 511.673048 199.636807 
L 512.307933 180.045621 
L 512.942817 198.110703 
L 513.577702 88.984909 
L 514.212586 185.582098 
L 514.847471 144.782751 
L 515.482355 165.544324 
L 516.11724 161.767741 
L 516.752124 205.288597 
L 518.021893 119.45408 
L 518.656778 171.592378 
L 519.291662 116.237098 
L 519.926547 135.643092 
L 520.561431 129.136661 
L 521.196316 156.578067 
L 521.8312 176.767099 
L 522.466085 160.806989 
L 523.100969 138.637213 
L 523.735854 84.93514 
L 524.370738 127.933204 
L 525.005623 103.973627 
L 525.640507 131.804683 
L 526.275392 228.70554 
L 526.910276 64.563216 
L 527.545161 174.797571 
L 528.180045 210.392577 
L 528.81493 195.173808 
L 529.449814 104.837183 
L 530.084699 112.298328 
L 530.719583 136.830446 
L 531.354468 240.959521 
L 531.989352 123.54037 
L 532.624237 143.96348 
L 533.259121 196.52536 
L 533.894006 154.990136 
L 534.528891 156.352329 
L 535.163775 146.454363 
L 535.79866 160.29915 
L 536.433544 124.171574 
L 537.068429 47.518125 
L 537.703313 120.047613 
L 538.338198 150.895795 
L 538.973082 159.47499 
L 539.607967 147.794413 
L 540.242851 122.059414 
L 540.877736 185.734794 
L 541.51262 104.010435 
L 542.147505 121.282415 
L 542.782389 145.103673 
L 543.417274 93.671633 
L 544.052158 135.56775 
L 544.687043 192.631739 
L 545.321927 161.556094 
L 545.956812 185.258588 
L 546.591696 168.223274 
L 547.226581 138.525638 
L 547.861465 148.185788 
L 548.49635 183.122847 
L 549.131234 204.071337 
L 549.766119 101.680876 
L 550.401003 123.683577 
L 551.035888 99.361957 
L 551.670772 109.167902 
L 552.305657 164.805571 
L 552.940541 122.099385 
L 553.575426 123.009814 
L 554.21031 184.185685 
L 554.845195 169.684389 
L 555.48008 138.406874 
L 556.114964 148.09463 
L 556.749849 112.772809 
L 557.384733 189.75552 
L 558.019618 177.79658 
L 558.654502 153.436426 
L 559.289387 142.171666 
L 559.924271 155.06404 
L 560.559156 153.54225 
L 561.19404 145.371395 
L 561.828925 193.068261 
L 562.463809 215.870679 
L 563.098694 123.435122 
L 563.733578 137.962874 
L 564.368463 126.739811 
L 565.003347 127.370153 
L 565.638232 176.256672 
L 566.273116 168.946786 
L 566.908001 163.657327 
L 567.542885 165.798819 
L 568.17777 150.00492 
L 568.812654 166.413919 
L 569.447539 115.539754 
L 570.082423 94.188961 
L 570.717308 149.576162 
L 571.352192 215.234011 
L 571.987077 140.174532 
L 572.621961 150.128285 
L 573.256846 136.542019 
L 573.89173 166.001264 
L 574.526615 54.334264 
L 575.161499 150.452083 
L 575.796384 121.832813 
L 576.431268 173.831642 
L 577.066153 178.713335 
L 577.701038 133.837763 
L 578.335922 119.198148 
L 578.970807 115.068148 
L 579.605691 147.289162 
L 580.240576 103.259317 
L 580.87546 199.244857 
L 581.510345 159.54947 
L 582.145229 133.14502 
L 582.780114 134.695568 
L 582.780114 134.695568 
" clip-path="url(#p5a9144413a)" style="fill: none; stroke: #ff7f0e; stroke-width: 1.5; stroke-linecap: square"/>
   </g>
   <g id="patch_3">
    <path d="M 50.14375 576.718125 
L 50.14375 22.318125 
" style="fill: none; stroke: #000000; stroke-width: 0.8; stroke-linejoin: miter; stroke-linecap: square"/>
   </g>
   <g id="patch_4">
    <path d="M 608.14375 576.718125 
L 608.14375 22.318125 
" style="fill: none; stroke: #000000; stroke-width: 0.8; stroke-linejoin: miter; stroke-linecap: square"/>
   </g>
   <g id="patch_5">
    <path d="M 50.14375 576.718125 
L 608.14375 576.718125 
" style="fill: none; stroke: #000000; stroke-width: 0.8; stroke-linejoin: miter; stroke-linecap: square"/>
   </g>
   <g id="patch_6">
    <path d="M 50.14375 22.318125 
L 608.14375 22.318125 
" style="fill: none; stroke: #000000; stroke-width: 0.8; stroke-linejoin: miter; stroke-linecap: square"/>
   </g>
   <g id="text_17">
    <!-- Train and Val Loss -->
    <g transform="translate(275.598437 16.318125) scale(0.12 -0.12)">
     <defs>
      <path id="DejaVuSans-54" d="M -19 4666 
L 3928 4666 
L 3928 4134 
L 2272 4134 
L 2272 0 
L 1638 0 
L 1638 4134 
L -19 4134 
L -19 4666 
z
" transform="scale(0.015625)"/>
      <path id="DejaVuSans-72" d="M 2631 2963 
Q 2534 3019 2420 3045 
Q 2306 3072 2169 3072 
Q 1681 3072 1420 2755 
Q 1159 2438 1159 1844 
L 1159 0 
L 581 0 
L 581 3500 
L 1159 3500 
L 1159 2956 
Q 1341 3275 1631 3429 
Q 1922 3584 2338 3584 
Q 2397 3584 2469 3576 
Q 2541 3569 2628 3553 
L 2631 2963 
z
" transform="scale(0.015625)"/>
      <path id="DejaVuSans-61" d="M 2194 1759 
Q 1497 1759 1228 1600 
Q 959 1441 959 1056 
Q 959 750 1161 570 
Q 1363 391 1709 391 
Q 2188 391 2477 730 
Q 2766 1069 2766 1631 
L 2766 1759 
L 2194 1759 
z
M 3341 1997 
L 3341 0 
L 2766 0 
L 2766 531 
Q 2569 213 2275 61 
Q 1981 -91 1556 -91 
Q 1019 -91 701 211 
Q 384 513 384 1019 
Q 384 1609 779 1909 
Q 1175 2209 1959 2209 
L 2766 2209 
L 2766 2266 
Q 2766 2663 2505 2880 
Q 2244 3097 1772 3097 
Q 1472 3097 1187 3025 
Q 903 2953 641 2809 
L 641 3341 
Q 956 3463 1253 3523 
Q 1550 3584 1831 3584 
Q 2591 3584 2966 3190 
Q 3341 2797 3341 1997 
z
" transform="scale(0.015625)"/>
      <path id="DejaVuSans-69" d="M 603 3500 
L 1178 3500 
L 1178 0 
L 603 0 
L 603 3500 
z
M 603 4863 
L 1178 4863 
L 1178 4134 
L 603 4134 
L 603 4863 
z
" transform="scale(0.015625)"/>
      <path id="DejaVuSans-6e" d="M 3513 2113 
L 3513 0 
L 2938 0 
L 2938 2094 
Q 2938 2591 2744 2837 
Q 2550 3084 2163 3084 
Q 1697 3084 1428 2787 
Q 1159 2491 1159 1978 
L 1159 0 
L 581 0 
L 581 3500 
L 1159 3500 
L 1159 2956 
Q 1366 3272 1645 3428 
Q 1925 3584 2291 3584 
Q 2894 3584 3203 3211 
Q 3513 2838 3513 2113 
z
" transform="scale(0.015625)"/>
      <path id="DejaVuSans-20" transform="scale(0.015625)"/>
      <path id="DejaVuSans-64" d="M 2906 2969 
L 2906 4863 
L 3481 4863 
L 3481 0 
L 2906 0 
L 2906 525 
Q 2725 213 2448 61 
Q 2172 -91 1784 -91 
Q 1150 -91 751 415 
Q 353 922 353 1747 
Q 353 2572 751 3078 
Q 1150 3584 1784 3584 
Q 2172 3584 2448 3432 
Q 2725 3281 2906 2969 
z
M 947 1747 
Q 947 1113 1208 752 
Q 1469 391 1925 391 
Q 2381 391 2643 752 
Q 2906 1113 2906 1747 
Q 2906 2381 2643 2742 
Q 2381 3103 1925 3103 
Q 1469 3103 1208 2742 
Q 947 2381 947 1747 
z
" transform="scale(0.015625)"/>
      <path id="DejaVuSans-56" d="M 1831 0 
L 50 4666 
L 709 4666 
L 2188 738 
L 3669 4666 
L 4325 4666 
L 2547 0 
L 1831 0 
z
" transform="scale(0.015625)"/>
      <path id="DejaVuSans-6c" d="M 603 4863 
L 1178 4863 
L 1178 0 
L 603 0 
L 603 4863 
z
" transform="scale(0.015625)"/>
     </defs>
     <use xlink:href="#DejaVuSans-54"/>
     <use xlink:href="#DejaVuSans-72" transform="translate(46.333984 0)"/>
     <use xlink:href="#DejaVuSans-61" transform="translate(87.447266 0)"/>
     <use xlink:href="#DejaVuSans-69" transform="translate(148.726562 0)"/>
     <use xlink:href="#DejaVuSans-6e" transform="translate(176.509766 0)"/>
     <use xlink:href="#DejaVuSans-20" transform="translate(239.888672 0)"/>
     <use xlink:href="#DejaVuSans-61" transform="translate(271.675781 0)"/>
     <use xlink:href="#DejaVuSans-6e" transform="translate(332.955078 0)"/>
     <use xlink:href="#DejaVuSans-64" transform="translate(396.333984 0)"/>
     <use xlink:href="#DejaVuSans-20" transform="translate(459.810547 0)"/>
     <use xlink:href="#DejaVuSans-56" transform="translate(491.597656 0)"/>
     <use xlink:href="#DejaVuSans-61" transform="translate(552.255859 0)"/>
     <use xlink:href="#DejaVuSans-6c" transform="translate(613.535156 0)"/>
     <use xlink:href="#DejaVuSans-20" transform="translate(641.318359 0)"/>
     <use xlink:href="#DejaVuSans-4c" transform="translate(673.105469 0)"/>
     <use xlink:href="#DejaVuSans-6f" transform="translate(727.068359 0)"/>
     <use xlink:href="#DejaVuSans-73" transform="translate(788.25 0)"/>
     <use xlink:href="#DejaVuSans-73" transform="translate(840.349609 0)"/>
    </g>
   </g>
   <g id="legend_1">
    <g id="patch_7">
     <path d="M 57.14375 60.230625 
L 136.734375 60.230625 
Q 138.734375 60.230625 138.734375 58.230625 
L 138.734375 29.318125 
Q 138.734375 27.318125 136.734375 27.318125 
L 57.14375 27.318125 
Q 55.14375 27.318125 55.14375 29.318125 
L 55.14375 58.230625 
Q 55.14375 60.230625 57.14375 60.230625 
z
" style="fill: #ffffff; opacity: 0.8; stroke: #cccccc; stroke-linejoin: miter"/>
    </g>
    <g id="line2d_31">
     <path d="M 59.14375 35.416563 
L 69.14375 35.416563 
L 79.14375 35.416563 
" style="fill: none; stroke: #1f77b4; stroke-width: 1.5; stroke-linecap: square"/>
    </g>
    <g id="text_18">
     <!-- train_loss -->
     <g transform="translate(87.14375 38.916563) scale(0.1 -0.1)">
      <defs>
       <path id="DejaVuSans-74" d="M 1172 4494 
L 1172 3500 
L 2356 3500 
L 2356 3053 
L 1172 3053 
L 1172 1153 
Q 1172 725 1289 603 
Q 1406 481 1766 481 
L 2356 481 
L 2356 0 
L 1766 0 
Q 1100 0 847 248 
Q 594 497 594 1153 
L 594 3053 
L 172 3053 
L 172 3500 
L 594 3500 
L 594 4494 
L 1172 4494 
z
" transform="scale(0.015625)"/>
       <path id="DejaVuSans-5f" d="M 3263 -1063 
L 3263 -1509 
L -63 -1509 
L -63 -1063 
L 3263 -1063 
z
" transform="scale(0.015625)"/>
      </defs>
      <use xlink:href="#DejaVuSans-74"/>
      <use xlink:href="#DejaVuSans-72" transform="translate(39.208984 0)"/>
      <use xlink:href="#DejaVuSans-61" transform="translate(80.322266 0)"/>
      <use xlink:href="#DejaVuSans-69" transform="translate(141.601562 0)"/>
      <use xlink:href="#DejaVuSans-6e" transform="translate(169.384766 0)"/>
      <use xlink:href="#DejaVuSans-5f" transform="translate(232.763672 0)"/>
      <use xlink:href="#DejaVuSans-6c" transform="translate(282.763672 0)"/>
      <use xlink:href="#DejaVuSans-6f" transform="translate(310.546875 0)"/>
      <use xlink:href="#DejaVuSans-73" transform="translate(371.728516 0)"/>
      <use xlink:href="#DejaVuSans-73" transform="translate(423.828125 0)"/>
     </g>
    </g>
    <g id="line2d_32">
     <path d="M 59.14375 50.372813 
L 69.14375 50.372813 
L 79.14375 50.372813 
" style="fill: none; stroke: #ff7f0e; stroke-width: 1.5; stroke-linecap: square"/>
    </g>
    <g id="text_19">
     <!-- val_loss -->
     <g transform="translate(87.14375 53.872813) scale(0.1 -0.1)">
      <defs>
       <path id="DejaVuSans-76" d="M 191 3500 
L 800 3500 
L 1894 563 
L 2988 3500 
L 3597 3500 
L 2284 0 
L 1503 0 
L 191 3500 
z
" transform="scale(0.015625)"/>
      </defs>
      <use xlink:href="#DejaVuSans-76"/>
      <use xlink:href="#DejaVuSans-61" transform="translate(59.179688 0)"/>
      <use xlink:href="#DejaVuSans-6c" transform="translate(120.458984 0)"/>
      <use xlink:href="#DejaVuSans-5f" transform="translate(148.242188 0)"/>
      <use xlink:href="#DejaVuSans-6c" transform="translate(198.242188 0)"/>
      <use xlink:href="#DejaVuSans-6f" transform="translate(226.025391 0)"/>
      <use xlink:href="#DejaVuSans-73" transform="translate(287.207031 0)"/>
      <use xlink:href="#DejaVuSans-73" transform="translate(339.306641 0)"/>
     </g>
    </g>
   </g>
  </g>
 </g>
 <defs>
  <clipPath id="p5a9144413a">
   <rect x="50.14375" y="22.318125" width="558" height="554.4"/>
  </clipPath>
 </defs>
</svg>
