<?xml version="1.0" encoding="utf-8" standalone="no"?>
<!DOCTYPE svg PUBLIC "-//W3C//DTD SVG 1.1//EN"
  "http://www.w3.org/Graphics/SVG/1.1/DTD/svg11.dtd">
<svg xmlns:xlink="http://www.w3.org/1999/xlink" width="615.34375pt" height="614.274375pt" viewBox="0 0 615.34375 614.274375" xmlns="http://www.w3.org/2000/svg" version="1.1">
 <metadata>
  <rdf:RDF xmlns:dc="http://purl.org/dc/elements/1.1/" xmlns:cc="http://creativecommons.org/ns#" xmlns:rdf="http://www.w3.org/1999/02/22-rdf-syntax-ns#">
   <cc:Work>
    <dc:type rdf:resource="http://purl.org/dc/dcmitype/StillImage"/>
    <dc:date>2026-05-22T16:19:48.598073</dc:date>
    <dc:format>image/svg+xml</dc:format>
    <dc:creator>
     <cc:Agent>
      <dc:title>Matplotlib v3.10.9, https://matplotlib.org/</dc:title>
     </cc:Agent>
    </dc:creator>
   </cc:Work>
  </rdf:RDF>
 </metadata>
 <defs>
  <style type="text/css">*{stroke-linejoin: round; stroke-linecap: butt}</style>
 </defs>
 <g id="figure_1">
  <g id="patch_1">
   <path d="M 0 614.274375 
L 615.34375 614.274375 
L 615.34375 0 
L 0 0 
z
" style="fill: #ffffff"/>
  </g>
  <g id="axes_1">
   <g id="patch_2">
    <path d="M 50.14375 576.718125 
L 608.14375 576.718125 
L 608.14375 22.318125 
L 50.14375 22.318125 
z
" style="fill: #ffffff"/>
   </g>
   <g id="matplotlib.axis_1">
    <g id="xtick_1">
     <g id="line2d_1">
      <path d="M 75.507386 576.718125 
L 75.507386 22.318125 
" clip-path="url(#p10136e800b)" style="fill: none; stroke: #b0b0b0; stroke-width: 0.8; stroke-linecap: square"/>
     </g>
     <g id="line2d_2">
      <defs>
       <path id="m55faaba695" d="M 0 0 
L 0 3.5 
" style="stroke: #000000; stroke-width: 0.8"/>
      </defs>
      <g>
       <use xlink:href="#m55faaba695" x="75.507386" y="576.718125" style="stroke: #000000; stroke-width: 0.8"/>
      </g>
     </g>
     <g id="text_1">
      <!-- 0 -->
      <g transform="translate(72.326136 591.316563) scale(0.1 -0.1)">
       <defs>
        <path id="DejaVuSans-30" d="M 2034 4250 
Q 1547 4250 1301 3770 
Q 1056 3291 1056 2328 
Q 1056 1369 1301 889 
Q 1547 409 2034 409 
Q 2525 409 2770 889 
Q 3016 1369 3016 2328 
Q 3016 3291 2770 3770 
Q 2525 4250 2034 4250 
z
M 2034 4750 
Q 2819 4750 3233 4129 
Q 3647 3509 3647 2328 
Q 3647 1150 3233 529 
Q 2819 -91 2034 -91 
Q 1250 -91 836 529 
Q 422 1150 422 2328 
Q 422 3509 836 4129 
Q 1250 4750 2034 4750 
z
" transform="scale(0.015625)"/>
       </defs>
       <use xlink:href="#DejaVuSans-30"/>
      </g>
     </g>
    </g>
    <g id="xtick_2">
     <g id="line2d_3">
      <path d="M 138.995838 576.718125 
L 138.995838 22.318125 
" clip-path="url(#p10136e800b)" style="fill: none; stroke: #b0b0b0; stroke-width: 0.8; stroke-linecap: square"/>
     </g>
     <g id="line2d_4">
      <g>
       <use xlink:href="#m55faaba695" x="138.995838" y="576.718125" style="stroke: #000000; stroke-width: 0.8"/>
      </g>
     </g>
     <g id="text_2">
      <!-- 100 -->
      <g transform="translate(129.452088 591.316563) scale(0.1 -0.1)">
       <defs>
        <path id="DejaVuSans-31" d="M 794 531 
L 1825 531 
L 1825 4091 
L 703 3866 
L 703 4441 
L 1819 4666 
L 2450 4666 
L 2450 531 
L 3481 531 
L 3481 0 
L 794 0 
L 794 531 
z
" transform="scale(0.015625)"/>
       </defs>
       <use xlink:href="#DejaVuSans-31"/>
       <use xlink:href="#DejaVuSans-30" transform="translate(63.623047 0)"/>
       <use xlink:href="#DejaVuSans-30" transform="translate(127.246094 0)"/>
      </g>
     </g>
    </g>
    <g id="xtick_3">
     <g id="line2d_5">
      <path d="M 202.484289 576.718125 
L 202.484289 22.318125 
" clip-path="url(#p10136e800b)" style="fill: none; stroke: #b0b0b0; stroke-width: 0.8; stroke-linecap: square"/>
     </g>
     <g id="line2d_6">
      <g>
       <use xlink:href="#m55faaba695" x="202.484289" y="576.718125" style="stroke: #000000; stroke-width: 0.8"/>
      </g>
     </g>
     <g id="text_3">
      <!-- 200 -->
      <g transform="translate(192.940539 591.316563) scale(0.1 -0.1)">
       <defs>
        <path id="DejaVuSans-32" d="M 1228 531 
L 3431 531 
L 3431 0 
L 469 0 
L 469 531 
Q 828 903 1448 1529 
Q 2069 2156 2228 2338 
Q 2531 2678 2651 2914 
Q 2772 3150 2772 3378 
Q 2772 3750 2511 3984 
Q 2250 4219 1831 4219 
Q 1534 4219 1204 4116 
Q 875 4013 500 3803 
L 500 4441 
Q 881 4594 1212 4672 
Q 1544 4750 1819 4750 
Q 2544 4750 2975 4387 
Q 3406 4025 3406 3419 
Q 3406 3131 3298 2873 
Q 3191 2616 2906 2266 
Q 2828 2175 2409 1742 
Q 1991 1309 1228 531 
z
" transform="scale(0.015625)"/>
       </defs>
       <use xlink:href="#DejaVuSans-32"/>
       <use xlink:href="#DejaVuSans-30" transform="translate(63.623047 0)"/>
       <use xlink:href="#DejaVuSans-30" transform="translate(127.246094 0)"/>
      </g>
     </g>
    </g>
    <g id="xtick_4">
     <g id="line2d_7">
      <path d="M 265.972741 576.718125 
L 265.972741 22.318125 
" clip-path="url(#p10136e800b)" style="fill: none; stroke: #b0b0b0; stroke-width: 0.8; stroke-linecap: square"/>
     </g>
     <g id="line2d_8">
      <g>
       <use xlink:href="#m55faaba695" x="265.972741" y="576.718125" style="stroke: #000000; stroke-width: 0.8"/>
      </g>
     </g>
     <g id="text_4">
      <!-- 300 -->
      <g transform="translate(256.428991 591.316563) scale(0.1 -0.1)">
       <defs>
        <path id="DejaVuSans-33" d="M 2597 2516 
Q 3050 2419 3304 2112 
Q 3559 1806 3559 1356 
Q 3559 666 3084 287 
Q 2609 -91 1734 -91 
Q 1441 -91 1130 -33 
Q 819 25 488 141 
L 488 750 
Q 750 597 1062 519 
Q 1375 441 1716 441 
Q 2309 441 2620 675 
Q 2931 909 2931 1356 
Q 2931 1769 2642 2001 
Q 2353 2234 1838 2234 
L 1294 2234 
L 1294 2753 
L 1863 2753 
Q 2328 2753 2575 2939 
Q 2822 3125 2822 3475 
Q 2822 3834 2567 4026 
Q 2313 4219 1838 4219 
Q 1578 4219 1281 4162 
Q 984 4106 628 3988 
L 628 4550 
Q 988 4650 1302 4700 
Q 1616 4750 1894 4750 
Q 2613 4750 3031 4423 
Q 3450 4097 3450 3541 
Q 3450 3153 3228 2886 
Q 3006 2619 2597 2516 
z
" transform="scale(0.015625)"/>
       </defs>
       <use xlink:href="#DejaVuSans-33"/>
       <use xlink:href="#DejaVuSans-30" transform="translate(63.623047 0)"/>
       <use xlink:href="#DejaVuSans-30" transform="translate(127.246094 0)"/>
      </g>
     </g>
    </g>
    <g id="xtick_5">
     <g id="line2d_9">
      <path d="M 329.461192 576.718125 
L 329.461192 22.318125 
" clip-path="url(#p10136e800b)" style="fill: none; stroke: #b0b0b0; stroke-width: 0.8; stroke-linecap: square"/>
     </g>
     <g id="line2d_10">
      <g>
       <use xlink:href="#m55faaba695" x="329.461192" y="576.718125" style="stroke: #000000; stroke-width: 0.8"/>
      </g>
     </g>
     <g id="text_5">
      <!-- 400 -->
      <g transform="translate(319.917442 591.316563) scale(0.1 -0.1)">
       <defs>
        <path id="DejaVuSans-34" d="M 2419 4116 
L 825 1625 
L 2419 1625 
L 2419 4116 
z
M 2253 4666 
L 3047 4666 
L 3047 1625 
L 3713 1625 
L 3713 1100 
L 3047 1100 
L 3047 0 
L 2419 0 
L 2419 1100 
L 313 1100 
L 313 1709 
L 2253 4666 
z
" transform="scale(0.015625)"/>
       </defs>
       <use xlink:href="#DejaVuSans-34"/>
       <use xlink:href="#DejaVuSans-30" transform="translate(63.623047 0)"/>
       <use xlink:href="#DejaVuSans-30" transform="translate(127.246094 0)"/>
      </g>
     </g>
    </g>
    <g id="xtick_6">
     <g id="line2d_11">
      <path d="M 392.949644 576.718125 
L 392.949644 22.318125 
" clip-path="url(#p10136e800b)" style="fill: none; stroke: #b0b0b0; stroke-width: 0.8; stroke-linecap: square"/>
     </g>
     <g id="line2d_12">
      <g>
       <use xlink:href="#m55faaba695" x="392.949644" y="576.718125" style="stroke: #000000; stroke-width: 0.8"/>
      </g>
     </g>
     <g id="text_6">
      <!-- 500 -->
      <g transform="translate(383.405894 591.316563) scale(0.1 -0.1)">
       <defs>
        <path id="DejaVuSans-35" d="M 691 4666 
L 3169 4666 
L 3169 4134 
L 1269 4134 
L 1269 2991 
Q 1406 3038 1543 3061 
Q 1681 3084 1819 3084 
Q 2600 3084 3056 2656 
Q 3513 2228 3513 1497 
Q 3513 744 3044 326 
Q 2575 -91 1722 -91 
Q 1428 -91 1123 -41 
Q 819 9 494 109 
L 494 744 
Q 775 591 1075 516 
Q 1375 441 1709 441 
Q 2250 441 2565 725 
Q 2881 1009 2881 1497 
Q 2881 1984 2565 2268 
Q 2250 2553 1709 2553 
Q 1456 2553 1204 2497 
Q 953 2441 691 2322 
L 691 4666 
z
" transform="scale(0.015625)"/>
       </defs>
       <use xlink:href="#DejaVuSans-35"/>
       <use xlink:href="#DejaVuSans-30" transform="translate(63.623047 0)"/>
       <use xlink:href="#DejaVuSans-30" transform="translate(127.246094 0)"/>
      </g>
     </g>
    </g>
    <g id="xtick_7">
     <g id="line2d_13">
      <path d="M 456.438095 576.718125 
L 456.438095 22.318125 
" clip-path="url(#p10136e800b)" style="fill: none; stroke: #b0b0b0; stroke-width: 0.8; stroke-linecap: square"/>
     </g>
     <g id="line2d_14">
      <g>
       <use xlink:href="#m55faaba695" x="456.438095" y="576.718125" style="stroke: #000000; stroke-width: 0.8"/>
      </g>
     </g>
     <g id="text_7">
      <!-- 600 -->
      <g transform="translate(446.894345 591.316563) scale(0.1 -0.1)">
       <defs>
        <path id="DejaVuSans-36" d="M 2113 2584 
Q 1688 2584 1439 2293 
Q 1191 2003 1191 1497 
Q 1191 994 1439 701 
Q 1688 409 2113 409 
Q 2538 409 2786 701 
Q 3034 994 3034 1497 
Q 3034 2003 2786 2293 
Q 2538 2584 2113 2584 
z
M 3366 4563 
L 3366 3988 
Q 3128 4100 2886 4159 
Q 2644 4219 2406 4219 
Q 1781 4219 1451 3797 
Q 1122 3375 1075 2522 
Q 1259 2794 1537 2939 
Q 1816 3084 2150 3084 
Q 2853 3084 3261 2657 
Q 3669 2231 3669 1497 
Q 3669 778 3244 343 
Q 2819 -91 2113 -91 
Q 1303 -91 875 529 
Q 447 1150 447 2328 
Q 447 3434 972 4092 
Q 1497 4750 2381 4750 
Q 2619 4750 2861 4703 
Q 3103 4656 3366 4563 
z
" transform="scale(0.015625)"/>
       </defs>
       <use xlink:href="#DejaVuSans-36"/>
       <use xlink:href="#DejaVuSans-30" transform="translate(63.623047 0)"/>
       <use xlink:href="#DejaVuSans-30" transform="translate(127.246094 0)"/>
      </g>
     </g>
    </g>
    <g id="xtick_8">
     <g id="line2d_15">
      <path d="M 519.926547 576.718125 
L 519.926547 22.318125 
" clip-path="url(#p10136e800b)" style="fill: none; stroke: #b0b0b0; stroke-width: 0.8; stroke-linecap: square"/>
     </g>
     <g id="line2d_16">
      <g>
       <use xlink:href="#m55faaba695" x="519.926547" y="576.718125" style="stroke: #000000; stroke-width: 0.8"/>
      </g>
     </g>
     <g id="text_8">
      <!-- 700 -->
      <g transform="translate(510.382797 591.316563) scale(0.1 -0.1)">
       <defs>
        <path id="DejaVuSans-37" d="M 525 4666 
L 3525 4666 
L 3525 4397 
L 1831 0 
L 1172 0 
L 2766 4134 
L 525 4134 
L 525 4666 
z
" transform="scale(0.015625)"/>
       </defs>
       <use xlink:href="#DejaVuSans-37"/>
       <use xlink:href="#DejaVuSans-30" transform="translate(63.623047 0)"/>
       <use xlink:href="#DejaVuSans-30" transform="translate(127.246094 0)"/>
      </g>
     </g>
    </g>
    <g id="xtick_9">
     <g id="line2d_17">
      <path d="M 583.414998 576.718125 
L 583.414998 22.318125 
" clip-path="url(#p10136e800b)" style="fill: none; stroke: #b0b0b0; stroke-width: 0.8; stroke-linecap: square"/>
     </g>
     <g id="line2d_18">
      <g>
       <use xlink:href="#m55faaba695" x="583.414998" y="576.718125" style="stroke: #000000; stroke-width: 0.8"/>
      </g>
     </g>
     <g id="text_9">
      <!-- 800 -->
      <g transform="translate(573.871248 591.316563) scale(0.1 -0.1)">
       <defs>
        <path id="DejaVuSans-38" d="M 2034 2216 
Q 1584 2216 1326 1975 
Q 1069 1734 1069 1313 
Q 1069 891 1326 650 
Q 1584 409 2034 409 
Q 2484 409 2743 651 
Q 3003 894 3003 1313 
Q 3003 1734 2745 1975 
Q 2488 2216 2034 2216 
z
M 1403 2484 
Q 997 2584 770 2862 
Q 544 3141 544 3541 
Q 544 4100 942 4425 
Q 1341 4750 2034 4750 
Q 2731 4750 3128 4425 
Q 3525 4100 3525 3541 
Q 3525 3141 3298 2862 
Q 3072 2584 2669 2484 
Q 3125 2378 3379 2068 
Q 3634 1759 3634 1313 
Q 3634 634 3220 271 
Q 2806 -91 2034 -91 
Q 1263 -91 848 271 
Q 434 634 434 1313 
Q 434 1759 690 2068 
Q 947 2378 1403 2484 
z
M 1172 3481 
Q 1172 3119 1398 2916 
Q 1625 2713 2034 2713 
Q 2441 2713 2670 2916 
Q 2900 3119 2900 3481 
Q 2900 3844 2670 4047 
Q 2441 4250 2034 4250 
Q 1625 4250 1398 4047 
Q 1172 3844 1172 3481 
z
" transform="scale(0.015625)"/>
       </defs>
       <use xlink:href="#DejaVuSans-38"/>
       <use xlink:href="#DejaVuSans-30" transform="translate(63.623047 0)"/>
       <use xlink:href="#DejaVuSans-30" transform="translate(127.246094 0)"/>
      </g>
     </g>
    </g>
    <g id="text_10">
     <!-- Epochs -->
     <g transform="translate(311.228125 604.994688) scale(0.1 -0.1)">
      <defs>
       <path id="DejaVuSans-45" d="M 628 4666 
L 3578 4666 
L 3578 4134 
L 1259 4134 
L 1259 2753 
L 3481 2753 
L 3481 2222 
L 1259 2222 
L 1259 531 
L 3634 531 
L 3634 0 
L 628 0 
L 628 4666 
z
" transform="scale(0.015625)"/>
       <path id="DejaVuSans-70" d="M 1159 525 
L 1159 -1331 
L 581 -1331 
L 581 3500 
L 1159 3500 
L 1159 2969 
Q 1341 3281 1617 3432 
Q 1894 3584 2278 3584 
Q 2916 3584 3314 3078 
Q 3713 2572 3713 1747 
Q 3713 922 3314 415 
Q 2916 -91 2278 -91 
Q 1894 -91 1617 61 
Q 1341 213 1159 525 
z
M 3116 1747 
Q 3116 2381 2855 2742 
Q 2594 3103 2138 3103 
Q 1681 3103 1420 2742 
Q 1159 2381 1159 1747 
Q 1159 1113 1420 752 
Q 1681 391 2138 391 
Q 2594 391 2855 752 
Q 3116 1113 3116 1747 
z
" transform="scale(0.015625)"/>
       <path id="DejaVuSans-6f" d="M 1959 3097 
Q 1497 3097 1228 2736 
Q 959 2375 959 1747 
Q 959 1119 1226 758 
Q 1494 397 1959 397 
Q 2419 397 2687 759 
Q 2956 1122 2956 1747 
Q 2956 2369 2687 2733 
Q 2419 3097 1959 3097 
z
M 1959 3584 
Q 2709 3584 3137 3096 
Q 3566 2609 3566 1747 
Q 3566 888 3137 398 
Q 2709 -91 1959 -91 
Q 1206 -91 779 398 
Q 353 888 353 1747 
Q 353 2609 779 3096 
Q 1206 3584 1959 3584 
z
" transform="scale(0.015625)"/>
       <path id="DejaVuSans-63" d="M 3122 3366 
L 3122 2828 
Q 2878 2963 2633 3030 
Q 2388 3097 2138 3097 
Q 1578 3097 1268 2742 
Q 959 2388 959 1747 
Q 959 1106 1268 751 
Q 1578 397 2138 397 
Q 2388 397 2633 464 
Q 2878 531 3122 666 
L 3122 134 
Q 2881 22 2623 -34 
Q 2366 -91 2075 -91 
Q 1284 -91 818 406 
Q 353 903 353 1747 
Q 353 2603 823 3093 
Q 1294 3584 2113 3584 
Q 2378 3584 2631 3529 
Q 2884 3475 3122 3366 
z
" transform="scale(0.015625)"/>
       <path id="DejaVuSans-68" d="M 3513 2113 
L 3513 0 
L 2938 0 
L 2938 2094 
Q 2938 2591 2744 2837 
Q 2550 3084 2163 3084 
Q 1697 3084 1428 2787 
Q 1159 2491 1159 1978 
L 1159 0 
L 581 0 
L 581 4863 
L 1159 4863 
L 1159 2956 
Q 1366 3272 1645 3428 
Q 1925 3584 2291 3584 
Q 2894 3584 3203 3211 
Q 3513 2838 3513 2113 
z
" transform="scale(0.015625)"/>
       <path id="DejaVuSans-73" d="M 2834 3397 
L 2834 2853 
Q 2591 2978 2328 3040 
Q 2066 3103 1784 3103 
Q 1356 3103 1142 2972 
Q 928 2841 928 2578 
Q 928 2378 1081 2264 
Q 1234 2150 1697 2047 
L 1894 2003 
Q 2506 1872 2764 1633 
Q 3022 1394 3022 966 
Q 3022 478 2636 193 
Q 2250 -91 1575 -91 
Q 1294 -91 989 -36 
Q 684 19 347 128 
L 347 722 
Q 666 556 975 473 
Q 1284 391 1588 391 
Q 1994 391 2212 530 
Q 2431 669 2431 922 
Q 2431 1156 2273 1281 
Q 2116 1406 1581 1522 
L 1381 1569 
Q 847 1681 609 1914 
Q 372 2147 372 2553 
Q 372 3047 722 3315 
Q 1072 3584 1716 3584 
Q 2034 3584 2315 3537 
Q 2597 3491 2834 3397 
z
" transform="scale(0.015625)"/>
      </defs>
      <use xlink:href="#DejaVuSans-45"/>
      <use xlink:href="#DejaVuSans-70" transform="translate(63.183594 0)"/>
      <use xlink:href="#DejaVuSans-6f" transform="translate(126.660156 0)"/>
      <use xlink:href="#DejaVuSans-63" transform="translate(187.841797 0)"/>
      <use xlink:href="#DejaVuSans-68" transform="translate(242.822266 0)"/>
      <use xlink:href="#DejaVuSans-73" transform="translate(306.201172 0)"/>
     </g>
    </g>
   </g>
   <g id="matplotlib.axis_2">
    <g id="ytick_1">
     <g id="line2d_19">
      <path d="M 50.14375 558.238444 
L 608.14375 558.238444 
" clip-path="url(#p10136e800b)" style="fill: none; stroke: #b0b0b0; stroke-width: 0.8; stroke-linecap: square"/>
     </g>
     <g id="line2d_20">
      <defs>
       <path id="m9c44a6b206" d="M 0 0 
L -3.5 0 
" style="stroke: #000000; stroke-width: 0.8"/>
      </defs>
      <g>
       <use xlink:href="#m9c44a6b206" x="50.14375" y="558.238444" style="stroke: #000000; stroke-width: 0.8"/>
      </g>
     </g>
     <g id="text_11">
      <!-- 0.00 -->
      <g transform="translate(20.878125 562.037662) scale(0.1 -0.1)">
       <defs>
        <path id="DejaVuSans-2e" d="M 684 794 
L 1344 794 
L 1344 0 
L 684 0 
L 684 794 
z
" transform="scale(0.015625)"/>
       </defs>
       <use xlink:href="#DejaVuSans-30"/>
       <use xlink:href="#DejaVuSans-2e" transform="translate(63.623047 0)"/>
       <use xlink:href="#DejaVuSans-30" transform="translate(95.410156 0)"/>
       <use xlink:href="#DejaVuSans-30" transform="translate(159.033203 0)"/>
      </g>
     </g>
    </g>
    <g id="ytick_2">
     <g id="line2d_21">
      <path d="M 50.14375 472.218366 
L 608.14375 472.218366 
" clip-path="url(#p10136e800b)" style="fill: none; stroke: #b0b0b0; stroke-width: 0.8; stroke-linecap: square"/>
     </g>
     <g id="line2d_22">
      <g>
       <use xlink:href="#m9c44a6b206" x="50.14375" y="472.218366" style="stroke: #000000; stroke-width: 0.8"/>
      </g>
     </g>
     <g id="text_12">
      <!-- 0.05 -->
      <g transform="translate(20.878125 476.017585) scale(0.1 -0.1)">
       <use xlink:href="#DejaVuSans-30"/>
       <use xlink:href="#DejaVuSans-2e" transform="translate(63.623047 0)"/>
       <use xlink:href="#DejaVuSans-30" transform="translate(95.410156 0)"/>
       <use xlink:href="#DejaVuSans-35" transform="translate(159.033203 0)"/>
      </g>
     </g>
    </g>
    <g id="ytick_3">
     <g id="line2d_23">
      <path d="M 50.14375 386.198288 
L 608.14375 386.198288 
" clip-path="url(#p10136e800b)" style="fill: none; stroke: #b0b0b0; stroke-width: 0.8; stroke-linecap: square"/>
     </g>
     <g id="line2d_24">
      <g>
       <use xlink:href="#m9c44a6b206" x="50.14375" y="386.198288" style="stroke: #000000; stroke-width: 0.8"/>
      </g>
     </g>
     <g id="text_13">
      <!-- 0.10 -->
      <g transform="translate(20.878125 389.997507) scale(0.1 -0.1)">
       <use xlink:href="#DejaVuSans-30"/>
       <use xlink:href="#DejaVuSans-2e" transform="translate(63.623047 0)"/>
       <use xlink:href="#DejaVuSans-31" transform="translate(95.410156 0)"/>
       <use xlink:href="#DejaVuSans-30" transform="translate(159.033203 0)"/>
      </g>
     </g>
    </g>
    <g id="ytick_4">
     <g id="line2d_25">
      <path d="M 50.14375 300.17821 
L 608.14375 300.17821 
" clip-path="url(#p10136e800b)" style="fill: none; stroke: #b0b0b0; stroke-width: 0.8; stroke-linecap: square"/>
     </g>
     <g id="line2d_26">
      <g>
       <use xlink:href="#m9c44a6b206" x="50.14375" y="300.17821" style="stroke: #000000; stroke-width: 0.8"/>
      </g>
     </g>
     <g id="text_14">
      <!-- 0.15 -->
      <g transform="translate(20.878125 303.977429) scale(0.1 -0.1)">
       <use xlink:href="#DejaVuSans-30"/>
       <use xlink:href="#DejaVuSans-2e" transform="translate(63.623047 0)"/>
       <use xlink:href="#DejaVuSans-31" transform="translate(95.410156 0)"/>
       <use xlink:href="#DejaVuSans-35" transform="translate(159.033203 0)"/>
      </g>
     </g>
    </g>
    <g id="ytick_5">
     <g id="line2d_27">
      <path d="M 50.14375 214.158133 
L 608.14375 214.158133 
" clip-path="url(#p10136e800b)" style="fill: none; stroke: #b0b0b0; stroke-width: 0.8; stroke-linecap: square"/>
     </g>
     <g id="line2d_28">
      <g>
       <use xlink:href="#m9c44a6b206" x="50.14375" y="214.158133" style="stroke: #000000; stroke-width: 0.8"/>
      </g>
     </g>
     <g id="text_15">
      <!-- 0.20 -->
      <g transform="translate(20.878125 217.957352) scale(0.1 -0.1)">
       <use xlink:href="#DejaVuSans-30"/>
       <use xlink:href="#DejaVuSans-2e" transform="translate(63.623047 0)"/>
       <use xlink:href="#DejaVuSans-32" transform="translate(95.410156 0)"/>
       <use xlink:href="#DejaVuSans-30" transform="translate(159.033203 0)"/>
      </g>
     </g>
    </g>
    <g id="ytick_6">
     <g id="line2d_29">
      <path d="M 50.14375 128.138055 
L 608.14375 128.138055 
" clip-path="url(#p10136e800b)" style="fill: none; stroke: #b0b0b0; stroke-width: 0.8; stroke-linecap: square"/>
     </g>
     <g id="line2d_30">
      <g>
       <use xlink:href="#m9c44a6b206" x="50.14375" y="128.138055" style="stroke: #000000; stroke-width: 0.8"/>
      </g>
     </g>
     <g id="text_16">
      <!-- 0.25 -->
      <g transform="translate(20.878125 131.937274) scale(0.1 -0.1)">
       <use xlink:href="#DejaVuSans-30"/>
       <use xlink:href="#DejaVuSans-2e" transform="translate(63.623047 0)"/>
       <use xlink:href="#DejaVuSans-32" transform="translate(95.410156 0)"/>
       <use xlink:href="#DejaVuSans-35" transform="translate(159.033203 0)"/>
      </g>
     </g>
    </g>
    <g id="ytick_7">
     <g id="line2d_31">
      <path d="M 50.14375 42.117977 
L 608.14375 42.117977 
" clip-path="url(#p10136e800b)" style="fill: none; stroke: #b0b0b0; stroke-width: 0.8; stroke-linecap: square"/>
     </g>
     <g id="line2d_32">
      <g>
       <use xlink:href="#m9c44a6b206" x="50.14375" y="42.117977" style="stroke: #000000; stroke-width: 0.8"/>
      </g>
     </g>
     <g id="text_17">
      <!-- 0.30 -->
      <g transform="translate(20.878125 45.917196) scale(0.1 -0.1)">
       <use xlink:href="#DejaVuSans-30"/>
       <use xlink:href="#DejaVuSans-2e" transform="translate(63.623047 0)"/>
       <use xlink:href="#DejaVuSans-33" transform="translate(95.410156 0)"/>
       <use xlink:href="#DejaVuSans-30" transform="translate(159.033203 0)"/>
      </g>
     </g>
    </g>
    <g id="text_18">
     <!-- Accuracy -->
     <g transform="translate(14.798437 322.34625) rotate(-90) scale(0.1 -0.1)">
      <defs>
       <path id="DejaVuSans-41" d="M 2188 4044 
L 1331 1722 
L 3047 1722 
L 2188 4044 
z
M 1831 4666 
L 2547 4666 
L 4325 0 
L 3669 0 
L 3244 1197 
L 1141 1197 
L 716 0 
L 50 0 
L 1831 4666 
z
" transform="scale(0.015625)"/>
       <path id="DejaVuSans-75" d="M 544 1381 
L 544 3500 
L 1119 3500 
L 1119 1403 
Q 1119 906 1312 657 
Q 1506 409 1894 409 
Q 2359 409 2629 706 
Q 2900 1003 2900 1516 
L 2900 3500 
L 3475 3500 
L 3475 0 
L 2900 0 
L 2900 538 
Q 2691 219 2414 64 
Q 2138 -91 1772 -91 
Q 1169 -91 856 284 
Q 544 659 544 1381 
z
M 1991 3584 
L 1991 3584 
z
" transform="scale(0.015625)"/>
       <path id="DejaVuSans-72" d="M 2631 2963 
Q 2534 3019 2420 3045 
Q 2306 3072 2169 3072 
Q 1681 3072 1420 2755 
Q 1159 2438 1159 1844 
L 1159 0 
L 581 0 
L 581 3500 
L 1159 3500 
L 1159 2956 
Q 1341 3275 1631 3429 
Q 1922 3584 2338 3584 
Q 2397 3584 2469 3576 
Q 2541 3569 2628 3553 
L 2631 2963 
z
" transform="scale(0.015625)"/>
       <path id="DejaVuSans-61" d="M 2194 1759 
Q 1497 1759 1228 1600 
Q 959 1441 959 1056 
Q 959 750 1161 570 
Q 1363 391 1709 391 
Q 2188 391 2477 730 
Q 2766 1069 2766 1631 
L 2766 1759 
L 2194 1759 
z
M 3341 1997 
L 3341 0 
L 2766 0 
L 2766 531 
Q 2569 213 2275 61 
Q 1981 -91 1556 -91 
Q 1019 -91 701 211 
Q 384 513 384 1019 
Q 384 1609 779 1909 
Q 1175 2209 1959 2209 
L 2766 2209 
L 2766 2266 
Q 2766 2663 2505 2880 
Q 2244 3097 1772 3097 
Q 1472 3097 1187 3025 
Q 903 2953 641 2809 
L 641 3341 
Q 956 3463 1253 3523 
Q 1550 3584 1831 3584 
Q 2591 3584 2966 3190 
Q 3341 2797 3341 1997 
z
" transform="scale(0.015625)"/>
       <path id="DejaVuSans-79" d="M 2059 -325 
Q 1816 -950 1584 -1140 
Q 1353 -1331 966 -1331 
L 506 -1331 
L 506 -850 
L 844 -850 
Q 1081 -850 1212 -737 
Q 1344 -625 1503 -206 
L 1606 56 
L 191 3500 
L 800 3500 
L 1894 763 
L 2988 3500 
L 3597 3500 
L 2059 -325 
z
" transform="scale(0.015625)"/>
      </defs>
      <use xlink:href="#DejaVuSans-41"/>
      <use xlink:href="#DejaVuSans-63" transform="translate(66.658203 0)"/>
      <use xlink:href="#DejaVuSans-63" transform="translate(121.638672 0)"/>
      <use xlink:href="#DejaVuSans-75" transform="translate(176.619141 0)"/>
      <use xlink:href="#DejaVuSans-72" transform="translate(239.998047 0)"/>
      <use xlink:href="#DejaVuSans-61" transform="translate(281.111328 0)"/>
      <use xlink:href="#DejaVuSans-63" transform="translate(342.390625 0)"/>
      <use xlink:href="#DejaVuSans-79" transform="translate(397.371094 0)"/>
     </g>
    </g>
   </g>
   <g id="line2d_33">
    <path d="M 75.507386 99.455135 
L 76.142271 92.965387 
L 76.777155 88.234318 
L 77.41204 84.363387 
L 78.046924 83.56052 
L 78.681809 81.438732 
L 79.316693 80.081512 
L 79.951578 79.976353 
L 80.586462 77.60605 
L 81.221347 76.44956 
L 81.856232 76.726736 
L 83.126001 72.87493 
L 83.760885 73.266802 
L 85.030654 72.138972 
L 85.665539 72.760235 
L 86.300423 72.559505 
L 87.570192 68.84157 
L 88.205077 69.873777 
L 88.839961 67.962256 
L 89.474846 69.50103 
L 90.10973 69.233442 
L 90.744615 68.335003 
L 91.379499 67.990917 
L 92.014384 69.797331 
L 92.649268 69.118746 
L 93.284153 67.895346 
L 93.919037 69.883365 
L 94.553922 67.063817 
L 95.188806 68.229844 
L 95.823691 67.513011 
L 96.458575 67.68508 
L 97.09346 67.274083 
L 97.728344 67.78065 
L 98.363229 66.031559 
L 98.998113 65.677936 
L 99.632998 67.790187 
L 100.267882 66.165379 
L 100.902767 68.057827 
L 101.537651 67.274083 
L 102.172536 68.392325 
L 102.80742 68.019578 
L 103.442305 65.878615 
L 104.07719 67.41744 
L 104.712074 66.471216 
L 105.346959 67.168925 
L 105.981843 64.186896 
L 106.616728 65.305189 
L 107.251612 66.031559 
L 107.886497 68.354076 
L 108.521381 66.318272 
L 109.156266 65.410296 
L 109.79115 64.225145 
L 110.426035 65.849953 
L 111.060919 65.419884 
L 111.695804 63.995754 
L 112.965573 63.84281 
L 113.600457 65.419884 
L 114.235342 65.075798 
L 114.870226 63.938381 
L 115.505111 66.327859 
L 116.139995 64.292055 
L 116.77488 65.142708 
L 117.409764 65.544116 
L 118.044649 65.611026 
L 118.679533 64.683927 
L 119.314418 66.863087 
L 120.584187 65.209567 
L 121.219071 65.247816 
L 121.853956 63.556097 
L 123.123725 65.591902 
L 123.758609 62.75323 
L 124.393494 63.125977 
L 125.028379 64.349377 
L 125.663263 63.498724 
L 126.298148 64.349377 
L 126.933032 63.364955 
L 127.567917 65.104459 
L 128.202801 64.655214 
L 128.837686 63.756827 
L 129.47257 63.718578 
L 130.107455 62.8488 
L 130.742339 64.865532 
L 131.377224 64.034003 
L 132.012108 63.527436 
L 132.646993 62.32316 
L 133.281877 62.399607 
L 133.916762 63.689917 
L 134.551646 62.151092 
L 135.186531 62.122431 
L 135.821415 61.979074 
L 136.4563 65.028013 
L 137.091184 63.441402 
L 137.726069 60.363802 
L 138.360953 62.877513 
L 138.995838 62.973084 
L 139.630722 61.55849 
L 140.265607 62.160679 
L 140.900491 62.992208 
L 141.535376 62.820139 
L 142.17026 64.196484 
L 142.805145 62.562088 
L 143.440029 62.313572 
L 144.074914 62.581212 
L 144.709798 63.651668 
L 145.344683 62.91571 
L 145.979567 64.04354 
L 146.614452 62.361358 
L 147.249337 63.288458 
L 147.884221 62.600337 
L 148.519106 62.198877 
L 149.15399 62.715032 
L 149.788875 60.746086 
L 150.423759 62.332697 
L 151.058644 60.459373 
L 151.693528 61.740096 
L 152.328413 62.284911 
L 152.963297 61.443846 
L 153.598182 60.249107 
L 154.233066 60.459373 
L 154.867951 62.141555 
L 155.502835 62.141555 
L 156.13772 61.271777 
L 156.772604 64.215557 
L 157.407489 60.812996 
L 158.042373 61.03285 
L 158.677258 60.478498 
L 159.312142 61.223992 
L 159.947027 61.396009 
L 160.581911 62.007735 
L 161.85168 61.950362 
L 162.486565 62.18934 
L 163.121449 60.96594 
L 163.756334 61.415134 
L 164.391218 62.25625 
L 165.026103 60.258644 
L 165.660987 59.780789 
L 166.295872 60.889494 
L 166.930756 61.548954 
L 167.565641 59.685167 
L 168.200526 60.516695 
L 168.83541 60.057965 
L 169.470295 60.660103 
L 170.105179 59.666093 
L 170.740064 59.94327 
L 171.374948 61.204868 
L 172.009833 60.545408 
L 172.644717 60.803459 
L 173.279602 60.497622 
L 173.914486 60.755674 
L 174.549371 61.682774 
L 175.184255 59.761664 
L 175.81914 60.115287 
L 176.454024 59.159526 
L 177.088909 58.758067 
L 177.723793 61.16667 
L 178.993562 59.226436 
L 179.628447 59.083029 
L 180.263331 59.790325 
L 180.898216 60.019716 
L 181.5331 60.918155 
L 182.167985 58.241963 
L 182.802869 61.367348 
L 183.437754 58.366195 
L 184.072638 60.650515 
L 184.707523 60.507159 
L 185.342407 58.94926 
L 185.977292 59.656506 
L 186.612176 59.924145 
L 187.247061 60.975477 
L 187.881945 60.038841 
L 188.51683 61.682774 
L 189.151715 59.197724 
L 189.786599 61.701898 
L 190.421484 59.484488 
L 191.056368 60.727013 
L 191.691253 60.66964 
L 192.326137 59.4749 
L 192.961022 60.086626 
L 193.595906 58.51914 
L 194.230791 59.054368 
L 194.865675 59.436703 
L 195.50056 57.811843 
L 196.135444 60.201321 
L 196.770329 58.605174 
L 197.405213 59.905021 
L 198.040098 60.46891 
L 198.674982 57.601577 
L 199.309867 58.786779 
L 199.944751 58.194178 
L 200.579636 57.773645 
L 201.21452 59.828574 
L 201.849405 57.477345 
L 202.484289 60.287305 
L 203.119174 58.471354 
L 203.754058 58.853638 
L 204.388943 59.723415 
L 205.023827 59.618308 
L 205.658712 60.067502 
L 206.293596 59.455827 
L 206.928481 57.65895 
L 207.563365 59.637381 
L 208.833134 58.022109 
L 209.468019 58.901475 
L 210.102903 57.209705 
L 210.737788 56.110588 
L 211.372673 58.280212 
L 212.007557 59.207312 
L 212.642442 59.312419 
L 213.277326 60.430712 
L 213.912211 57.286203 
L 214.547095 58.098607 
L 215.18198 59.130814 
L 215.816864 59.455827 
L 216.451749 58.404444 
L 217.086633 58.729406 
L 217.721518 58.261088 
L 218.356402 58.270624 
L 218.991287 57.219293 
L 219.626171 60.124824 
L 220.261056 59.694754 
L 220.89594 60.344678 
L 221.530825 58.165517 
L 222.165709 57.869216 
L 222.800594 58.184641 
L 223.435478 59.60872 
L 224.070363 59.083029 
L 224.705247 59.111741 
L 225.340132 60.621854 
L 225.975016 57.16192 
L 226.609901 59.388917 
L 227.244785 56.770048 
L 227.87967 57.907465 
L 228.514554 56.03409 
L 229.149439 58.997046 
L 229.784323 58.74853 
L 230.419208 57.668487 
L 231.054092 57.706735 
L 231.688977 58.041234 
L 232.323862 57.343525 
L 232.958746 58.51914 
L 233.593631 58.337534 
L 234.228515 58.404444 
L 234.8634 56.225283 
L 235.498284 57.496469 
L 236.133169 57.075936 
L 236.768053 56.827421 
L 237.402938 58.022109 
L 238.037822 57.496469 
L 238.672707 57.706735 
L 239.307591 56.865619 
L 239.942476 57.515594 
L 240.57736 57.687611 
L 241.212245 59.331544 
L 241.847129 57.45822 
L 242.482014 58.356659 
L 243.116898 57.936126 
L 243.751783 57.773645 
L 244.386667 56.273069 
L 245.021552 57.0281 
L 245.656436 58.88235 
L 246.291321 56.110588 
L 246.926205 57.123722 
L 247.56109 56.980314 
L 248.195974 58.127268 
L 248.830859 57.267078 
L 249.465743 57.783182 
L 250.100628 58.576462 
L 250.735512 57.611164 
L 251.370397 57.037688 
L 252.005281 58.213302 
L 252.640166 57.486881 
L 253.27505 58.146392 
L 253.909935 56.349515 
L 254.54482 58.45223 
L 255.179704 57.09501 
L 255.814589 57.668487 
L 256.449473 57.840555 
L 257.084358 57.534667 
L 258.354127 55.995893 
L 258.989011 57.066349 
L 259.623896 56.884743 
L 260.25878 56.416425 
L 260.893665 57.276615 
L 262.163434 55.785626 
L 262.798318 56.66494 
L 263.433203 57.983912 
L 264.068087 57.477345 
L 264.702972 57.381774 
L 265.337856 55.202562 
L 265.972741 56.36864 
L 266.607625 56.741387 
L 267.24251 56.674477 
L 267.877394 55.604021 
L 268.512279 57.267078 
L 269.147163 55.623145 
L 269.782048 57.09501 
L 270.416932 55.040081 
L 271.051817 56.120125 
L 271.686701 55.470201 
L 272.321586 56.645816 
L 272.95647 56.072339 
L 273.591355 57.362649 
L 274.226239 56.244408 
L 274.861124 56.015017 
L 275.496009 57.075936 
L 276.130893 56.101 
L 276.765778 57.400898 
L 277.400662 56.339979 
L 278.035547 56.158373 
L 278.670431 55.842948 
L 279.305316 56.913456 
L 279.9402 56.406889 
L 280.575085 56.225283 
L 281.209969 55.365094 
L 281.844854 58.232427 
L 282.479738 56.23482 
L 283.114623 55.938519 
L 283.749507 56.091464 
L 284.384392 55.403291 
L 285.019276 56.492872 
L 285.654161 57.3244 
L 286.289045 54.782029 
L 286.92393 56.703138 
L 287.558814 54.361496 
L 288.193699 53.138096 
L 288.828583 55.345969 
L 289.463468 56.655353 
L 290.098352 55.279059 
L 291.368121 55.183488 
L 292.003006 56.980314 
L 292.63789 55.890734 
L 293.272775 56.741387 
L 293.907659 57.372186 
L 295.177428 56.569369 
L 295.812313 55.57536 
L 296.447197 57.582452 
L 297.082082 54.409282 
L 298.351851 56.397301 
L 298.986736 56.253944 
L 299.62162 55.709129 
L 300.256505 56.846546 
L 300.891389 57.09501 
L 301.526274 54.619548 
L 302.796043 55.183488 
L 303.430927 55.995893 
L 304.065812 55.326845 
L 304.700696 56.081927 
L 305.335581 54.8776 
L 305.970465 54.160767 
L 306.60535 58.117731 
L 307.240234 54.399745 
L 308.510003 57.009027 
L 309.144888 54.437943 
L 309.779772 55.087917 
L 310.414657 55.355506 
L 311.049541 55.766502 
L 311.684426 54.64826 
L 312.31931 55.823824 
L 312.954195 55.680467 
L 313.589079 54.696046 
L 314.223964 54.437943 
L 314.858848 54.868063 
L 315.493733 55.57536 
L 316.763502 55.24081 
L 317.398386 53.702036 
L 318.033271 54.657797 
L 318.668156 56.397301 
L 319.30304 54.361496 
L 319.937925 55.871609 
L 321.207694 55.021008 
L 321.842578 55.001883 
L 322.477463 56.359103 
L 323.112347 54.676921 
L 323.747232 55.948107 
L 324.382116 55.365094 
L 325.651885 56.636279 
L 326.28677 53.682912 
L 326.921654 55.059205 
L 327.556539 54.237264 
L 328.191423 54.132106 
L 328.826308 56.349515 
L 329.461192 54.533565 
L 330.096077 55.804751 
L 330.730961 55.823824 
L 331.365846 53.835805 
L 332.00073 55.50845 
L 332.635615 53.080774 
L 333.270499 56.158373 
L 333.905384 54.265925 
L 334.540268 55.699592 
L 335.810037 53.176345 
L 336.444922 54.896724 
L 337.079806 53.377075 
L 337.714691 54.829814 
L 338.349575 55.24081 
L 338.98446 54.371084 
L 339.619344 55.040081 
L 340.254229 55.317257 
L 340.889114 54.973222 
L 341.523998 54.179891 
L 342.158883 56.101 
L 342.793767 56.253944 
L 343.428652 54.619548 
L 344.063536 53.759358 
L 344.698421 55.231274 
L 345.333305 55.07833 
L 345.96819 53.205006 
L 346.603074 53.768895 
L 347.237959 55.431952 
L 347.872843 53.338826 
L 348.507728 55.135703 
L 349.142612 55.049669 
L 349.777497 55.881197 
L 350.412381 55.059205 
L 351.047266 53.902715 
L 351.68215 54.523977 
L 352.317035 54.724707 
L 352.951919 55.498862 
L 353.586804 54.208552 
L 354.221688 53.88359 
L 354.856573 52.124962 
L 355.491457 54.208552 
L 356.126342 52.985203 
L 356.761226 52.975615 
L 357.396111 54.762904 
L 358.030995 54.055659 
L 358.66588 53.816732 
L 359.300764 55.116578 
L 359.935649 55.747377 
L 360.570533 55.221686 
L 361.205418 52.13455 
L 361.840303 55.842948 
L 362.475187 56.120125 
L 363.110072 53.88359 
L 363.744956 52.717563 
L 364.379841 53.271916 
L 365.014725 54.715119 
L 365.64961 54.696046 
L 366.284494 53.185881 
L 366.919379 53.835805 
L 367.554263 53.893178 
L 368.189148 55.881197 
L 368.824032 53.482182 
L 369.458917 54.15123 
L 370.093801 53.22413 
L 370.728686 55.489326 
L 371.36357 53.520431 
L 371.998455 53.386611 
L 372.633339 53.854929 
L 373.268224 53.749822 
L 373.903108 52.516834 
L 374.537993 54.160767 
L 375.172877 55.07833 
L 375.807762 55.193025 
L 376.442646 52.26837 
L 377.077531 52.555083 
L 377.712415 53.663787 
L 378.3473 53.807144 
L 378.982184 53.472646 
L 379.617069 54.323247 
L 380.251953 54.208552 
L 380.886838 53.912303 
L 381.521722 52.870508 
L 382.156607 52.335228 
L 383.426376 53.443933 
L 384.061261 53.549092 
L 384.696145 52.975615 
L 385.33103 52.650653 
L 385.965914 54.724707 
L 387.235683 54.428406 
L 387.870568 51.618395 
L 388.505452 54.686458 
L 389.140337 53.090311 
L 389.775221 54.074783 
L 390.410106 53.749822 
L 391.04499 54.954098 
L 391.679875 53.702036 
L 392.314759 53.979213 
L 392.949644 52.191872 
L 393.584528 53.233667 
L 394.219413 54.055659 
L 394.854297 52.669778 
L 395.489182 53.845393 
L 396.124066 52.105889 
L 396.758951 53.644663 
L 397.393835 53.510843 
L 398.02872 54.01741 
L 398.663604 52.899169 
L 399.298489 53.329238 
L 399.933373 54.132106 
L 400.568258 51.637519 
L 401.203142 53.147684 
L 401.838027 52.13455 
L 402.472911 52.870508 
L 403.107796 54.476192 
L 403.74268 52.526421 
L 404.377565 51.283897 
L 405.01245 50.97806 
L 405.647334 53.854929 
L 406.282219 51.905159 
L 406.917103 50.681759 
L 407.551988 53.969625 
L 408.186872 53.310165 
L 408.821757 52.163211 
L 409.456641 51.331682 
L 410.091526 52.717563 
L 410.72641 51.427253 
L 411.361295 52.92783 
L 411.996179 52.258782 
L 412.631064 53.099898 
L 413.265948 54.514441 
L 413.900833 55.326845 
L 414.535717 51.86691 
L 415.170602 51.522824 
L 415.805486 53.692448 
L 416.440371 52.79401 
L 417.075255 52.79401 
L 417.71014 53.730697 
L 419.614793 51.551536 
L 420.249678 51.924284 
L 420.884562 52.717563 
L 421.519447 52.755812 
L 422.154331 53.491719 
L 422.789216 51.752215 
L 423.4241 50.815579 
L 424.058985 52.975615 
L 424.693869 52.918293 
L 425.328754 52.26837 
L 425.963638 50.901562 
L 426.598523 52.497709 
L 427.233408 52.545546 
L 427.868292 53.147684 
L 429.138061 52.889581 
L 429.772946 52.029391 
L 430.40783 51.389056 
L 431.677599 53.243255 
L 432.312484 52.803598 
L 432.947368 50.968472 
L 433.582253 51.57061 
L 434.217137 51.991193 
L 434.852022 52.583744 
L 435.486906 52.507297 
L 436.121791 52.220533 
L 436.756675 51.312558 
L 437.39156 53.032988 
L 438.026444 53.616002 
L 438.661329 53.788019 
L 439.296213 52.249245 
L 439.931098 53.300577 
L 440.565982 52.956491 
L 441.200867 53.472646 
L 441.835751 51.838249 
L 443.10552 53.281452 
L 443.740405 52.172748 
L 444.375289 52.411726 
L 445.010174 53.166757 
L 445.645058 53.013864 
L 446.279943 53.348362 
L 446.914827 51.962481 
L 447.549712 51.752215 
L 448.184597 52.564619 
L 448.819481 52.230121 
L 449.454366 52.383065 
L 450.08925 52.325692 
L 450.724135 52.679314 
L 451.359019 52.765349 
L 451.993904 52.411726 
L 452.628788 51.083167 
L 453.263673 51.847786 
L 453.898557 53.281452 
L 454.533442 53.06165 
L 455.168326 52.650653 
L 455.803211 52.99474 
L 456.438095 51.532412 
L 457.07298 50.930274 
L 457.707864 51.322146 
L 458.342749 52.105889 
L 458.977633 52.402138 
L 460.247402 51.5037 
L 460.882287 52.20146 
L 461.517171 53.29104 
L 462.152056 52.306567 
L 463.421825 49.821569 
L 464.056709 51.895571 
L 464.691594 52.249245 
L 465.326478 53.262379 
L 465.961363 51.714017 
L 466.596247 51.341219 
L 467.231132 49.085611 
L 467.866016 51.27436 
L 469.135785 52.182335 
L 469.77067 53.539555 
L 470.405555 51.57061 
L 471.040439 52.966079 
L 471.675324 52.717563 
L 472.310208 52.182335 
L 472.945093 52.335228 
L 473.579977 53.032988 
L 474.214862 51.446378 
L 474.849746 51.188326 
L 475.484631 52.411726 
L 476.119515 52.526421 
L 476.7544 51.532412 
L 477.389284 52.440387 
L 478.659053 53.032988 
L 479.293938 51.197862 
L 480.563707 49.362788 
L 481.198591 51.541949 
L 481.833476 52.918293 
L 482.46836 51.293433 
L 483.103245 52.574207 
L 483.738129 52.182335 
L 485.007898 52.421263 
L 485.642783 52.774885 
L 486.277667 51.627983 
L 486.912552 53.243255 
L 487.547436 53.663787 
L 488.182321 51.752215 
L 488.817205 52.555083 
L 489.45209 50.098745 
L 490.086974 52.593331 
L 490.721859 50.423707 
L 491.356744 51.264772 
L 491.991628 51.5037 
L 492.626513 52.172748 
L 493.261397 49.611303 
L 493.896282 52.612405 
L 494.531166 52.459512 
L 495.166051 50.280351 
L 495.800935 50.739081 
L 496.43582 50.681759 
L 497.070704 52.306567 
L 497.705589 50.920686 
L 498.340473 51.303021 
L 498.975358 49.573054 
L 499.610242 51.771339 
L 500.245127 51.159665 
L 500.880011 51.905159 
L 501.514896 52.392602 
L 502.14978 50.194316 
L 502.784665 50.414119 
L 503.419549 50.872901 
L 504.054434 53.319701 
L 504.689318 50.77733 
L 505.324203 51.647107 
L 505.959087 51.580197 
L 506.593972 52.058052 
L 507.228856 51.819125 
L 507.863741 49.802445 
L 508.498625 51.86691 
L 509.13351 51.178738 
L 509.768394 51.656644 
L 510.403279 51.178738 
L 511.038163 52.86092 
L 511.673048 52.488173 
L 512.307933 52.813134 
L 512.942817 49.276753 
L 513.577702 50.356797 
L 514.212586 50.97806 
L 514.847471 50.758205 
L 515.482355 53.205006 
L 516.11724 50.060496 
L 516.752124 50.739081 
L 517.387009 50.901562 
L 518.021893 50.796454 
L 518.656778 51.293433 
L 519.291662 51.647107 
L 519.926547 51.704429 
L 520.561431 49.993587 
L 521.196316 52.249245 
L 521.8312 50.853776 
L 522.466085 51.5037 
L 523.100969 50.796454 
L 523.735854 48.951792 
L 524.370738 51.111879 
L 525.005623 51.408129 
L 525.640507 50.366334 
L 526.275392 48.703276 
L 526.910276 50.270763 
L 527.545161 51.245648 
L 528.180045 51.637519 
L 528.81493 50.309012 
L 529.449814 51.255236 
L 530.084699 49.200307 
L 530.719583 50.64351 
L 531.989352 51.522824 
L 532.624237 52.430851 
L 533.259121 50.299424 
L 534.528891 49.936265 
L 535.163775 50.939811 
L 535.79866 50.767793 
L 537.703313 51.264772 
L 538.338198 51.255236 
L 538.973082 49.496607 
L 539.607967 51.188326 
L 540.242851 51.083167 
L 540.877736 49.78332 
L 541.51262 49.467895 
L 542.147505 50.586188 
L 542.782389 49.142933 
L 543.417274 50.882489 
L 544.052158 49.639964 
L 544.687043 50.165655 
L 545.321927 50.108282 
L 545.956812 51.417717 
L 546.591696 50.786866 
L 547.226581 49.964926 
L 549.131234 51.322146 
L 549.766119 50.452368 
L 550.401003 50.041372 
L 551.035888 51.513288 
L 551.670772 50.280351 
L 552.305657 51.102291 
L 552.940541 50.767793 
L 553.575426 51.331682 
L 554.21031 50.71042 
L 554.845195 50.71042 
L 555.48008 51.226523 
L 556.749849 49.955338 
L 557.384733 50.213441 
L 558.019618 50.930274 
L 558.654502 50.452368 
L 559.289387 47.709267 
L 559.924271 51.522824 
L 560.559156 49.611303 
L 561.19404 52.144086 
L 561.828925 52.92783 
L 562.463809 50.949347 
L 563.098694 51.742678 
L 563.733578 49.515681 
L 564.368463 51.494163 
L 565.003347 49.831106 
L 565.638232 47.518125 
L 566.273116 50.853776 
L 566.908001 47.718855 
L 568.17777 51.111879 
L 568.812654 50.519278 
L 569.447539 50.720008 
L 570.082423 50.538402 
L 570.717308 49.898016 
L 571.352192 50.815579 
L 572.621961 50.614849 
L 573.256846 49.98405 
L 573.89173 50.165655 
L 574.526615 51.828713 
L 575.161499 50.825115 
L 575.796384 50.232514 
L 577.066153 48.215834 
L 577.701038 50.968472 
L 578.335922 48.951792 
L 578.970807 51.197862 
L 579.605691 50.261226 
L 580.240576 49.047363 
L 580.87546 50.949347 
L 581.510345 49.066487 
L 582.145229 48.521671 
L 582.780114 50.328136 
L 582.780114 50.328136 
" clip-path="url(#p10136e800b)" style="fill: none; stroke: #1f77b4; stroke-width: 1.5; stroke-linecap: square"/>
   </g>
   <g id="line2d_34">
    <path d="M 75.507386 95.278368 
L 76.777155 85.128006 
L 77.41204 88.65485 
L 78.046924 87.278506 
L 78.681809 86.762402 
L 79.316693 86.07423 
L 79.951578 88.65485 
L 80.586462 86.504351 
L 81.221347 94.332143 
L 81.856232 82.977506 
L 82.491116 81.429144 
L 83.126001 76.439972 
L 83.760885 80.654989 
L 84.39577 80.48292 
L 85.030654 73.171231 
L 85.665539 79.966817 
L 86.300423 81.687196 
L 86.935308 80.310903 
L 87.570192 76.353989 
L 88.205077 80.654989 
L 88.839961 82.461403 
L 89.474846 79.020592 
L 90.10973 81.171092 
L 90.744615 82.719454 
L 91.379499 76.18192 
L 92.014384 81.085058 
L 92.649268 75.063679 
L 93.284153 87.708626 
L 93.919037 78.418455 
L 94.553922 86.160264 
L 95.188806 79.278644 
L 95.823691 77.730282 
L 96.458575 77.902351 
L 97.09346 82.805489 
L 97.728344 84.095799 
L 98.363229 79.020592 
L 98.998113 76.18192 
L 99.632998 83.665678 
L 100.267882 80.052851 
L 100.902767 77.386196 
L 101.537651 82.289334 
L 102.172536 79.880782 
L 102.80742 81.429144 
L 103.442305 84.697937 
L 104.07719 82.977506 
L 104.712074 77.558265 
L 105.346959 80.310903 
L 105.981843 79.794748 
L 106.616728 81.945299 
L 107.251612 79.536696 
L 107.886497 82.031282 
L 108.521381 78.246386 
L 109.156266 79.708765 
L 109.79115 78.160403 
L 110.426035 84.439834 
L 111.060919 87.536558 
L 111.695804 78.848575 
L 112.330688 79.536696 
L 112.965573 94.24616 
L 113.600457 77.902351 
L 114.235342 81.34311 
L 114.870226 78.848575 
L 115.505111 78.074368 
L 116.139995 76.353989 
L 116.77488 81.687196 
L 117.409764 80.827006 
L 118.044649 79.536696 
L 118.679533 79.794748 
L 119.314418 73.171231 
L 119.949302 73.773369 
L 120.584187 78.33242 
L 121.219071 80.052851 
L 121.853956 77.730282 
L 122.48884 74.547524 
L 123.123725 78.246386 
L 123.758609 78.074368 
L 124.393494 78.590472 
L 125.028379 80.568954 
L 125.663263 80.827006 
L 126.298148 82.031282 
L 126.933032 76.18192 
L 127.567917 79.450713 
L 128.202801 79.19261 
L 128.837686 80.48292 
L 129.47257 83.751713 
L 130.107455 81.77323 
L 130.742339 79.19261 
L 131.377224 82.63342 
L 132.012108 81.515178 
L 132.646993 84.439834 
L 133.281877 78.676506 
L 133.916762 83.235558 
L 134.551646 83.235558 
L 135.186531 77.988334 
L 135.821415 84.009765 
L 136.4563 87.020454 
L 137.091184 83.407627 
L 137.726069 77.644248 
L 138.360953 80.654989 
L 138.995838 77.300213 
L 139.630722 81.257127 
L 140.265607 89.170954 
L 140.900491 84.353851 
L 141.535376 83.92373 
L 142.17026 79.364679 
L 142.805145 82.891472 
L 143.440029 77.128144 
L 144.074914 92.009626 
L 144.709798 84.181782 
L 145.344683 78.418455 
L 145.979567 84.009765 
L 146.614452 81.859265 
L 147.249337 77.988334 
L 147.884221 91.751574 
L 148.519106 78.246386 
L 149.15399 85.128006 
L 149.788875 89.08492 
L 150.423759 85.386058 
L 151.693528 76.526006 
L 152.328413 84.869954 
L 152.963297 87.450575 
L 153.598182 83.321592 
L 154.233066 83.837696 
L 154.867951 79.708765 
L 155.502835 83.149575 
L 156.13772 94.332143 
L 156.772604 74.289472 
L 157.407489 84.353851 
L 158.042373 86.246299 
L 158.677258 79.19261 
L 159.312142 84.869954 
L 159.947027 79.62273 
L 160.581911 78.934558 
L 161.216796 91.579506 
L 161.85168 80.740972 
L 162.486565 80.999075 
L 163.121449 73.515317 
L 163.756334 82.805489 
L 164.391218 79.794748 
L 165.026103 79.450713 
L 165.660987 75.149662 
L 166.295872 80.568954 
L 166.930756 80.654989 
L 168.200526 81.77323 
L 168.83541 76.009903 
L 169.470295 83.407627 
L 170.740064 81.515178 
L 171.374948 82.289334 
L 172.009833 88.052713 
L 172.644717 77.816317 
L 173.279602 82.117316 
L 173.914486 85.21404 
L 174.549371 87.536558 
L 175.184255 83.579644 
L 175.81914 81.687196 
L 176.454024 81.945299 
L 177.088909 82.547437 
L 177.723793 79.536696 
L 178.358678 82.375368 
L 178.993562 80.396937 
L 179.628447 89.773092 
L 180.263331 79.708765 
L 180.898216 81.687196 
L 181.5331 80.052851 
L 182.167985 83.49361 
L 182.802869 79.966817 
L 183.437754 87.192523 
L 184.707523 78.246386 
L 185.342407 89.51504 
L 185.977292 83.407627 
L 186.612176 84.78392 
L 187.247061 83.49361 
L 187.881945 87.278506 
L 188.51683 83.321592 
L 189.151715 80.999075 
L 189.786599 80.654989 
L 190.421484 86.332282 
L 191.056368 83.579644 
L 191.691253 80.138834 
L 192.326137 88.568816 
L 192.961022 81.945299 
L 193.595906 79.708765 
L 194.230791 86.160264 
L 194.865675 81.945299 
L 195.50056 82.719454 
L 196.135444 77.902351 
L 196.770329 85.472092 
L 198.040098 80.913041 
L 198.674982 82.375368 
L 199.309867 92.869816 
L 199.944751 81.601213 
L 200.579636 81.859265 
L 201.21452 86.504351 
L 201.849405 87.450575 
L 202.484289 82.891472 
L 203.119174 81.34311 
L 203.754058 81.687196 
L 204.388943 79.19261 
L 205.023827 78.074368 
L 205.658712 78.504489 
L 206.293596 85.644161 
L 206.928481 87.36454 
L 208.19825 80.999075 
L 208.833134 86.07423 
L 209.468019 82.547437 
L 210.102903 80.224868 
L 210.737788 97.342884 
L 211.372673 83.407627 
L 212.007557 84.009765 
L 212.642442 81.34311 
L 213.277326 81.945299 
L 213.912211 87.622592 
L 214.547095 92.009626 
L 215.18198 79.364679 
L 215.816864 84.009765 
L 216.451749 82.805489 
L 217.086633 83.579644 
L 217.721518 78.504489 
L 218.356402 84.181782 
L 218.991287 84.095799 
L 219.626171 84.267816 
L 220.261056 79.966817 
L 220.89594 78.590472 
L 221.530825 80.654989 
L 222.165709 84.439834 
L 222.800594 84.869954 
L 223.435478 78.848575 
L 224.070363 87.278506 
L 224.705247 80.740972 
L 225.340132 83.407627 
L 225.975016 85.300075 
L 226.609901 83.92373 
L 227.244785 80.913041 
L 227.87967 83.149575 
L 228.514554 77.47223 
L 229.149439 89.687058 
L 229.784323 85.644161 
L 230.419208 86.160264 
L 231.054092 78.246386 
L 231.688977 85.730144 
L 232.323862 89.51504 
L 232.958746 84.525868 
L 233.593631 89.945161 
L 234.228515 87.622592 
L 234.8634 88.65485 
L 235.498284 83.321592 
L 236.133169 89.945161 
L 236.768053 81.601213 
L 237.402938 89.859126 
L 238.037822 89.859126 
L 238.672707 83.579644 
L 239.307591 79.19261 
L 239.942476 92.267678 
L 240.57736 86.160264 
L 241.212245 83.665678 
L 241.847129 85.128006 
L 242.482014 81.515178 
L 243.116898 84.181782 
L 243.751783 94.332143 
L 244.386667 85.472092 
L 245.021552 78.504489 
L 245.656436 77.902351 
L 246.291321 89.170954 
L 246.926205 81.257127 
L 247.56109 84.353851 
L 248.195974 83.751713 
L 248.830859 90.547299 
L 249.465743 80.568954 
L 250.100628 91.923592 
L 250.735512 85.21404 
L 251.370397 79.794748 
L 252.005281 82.805489 
L 252.640166 84.439834 
L 253.909935 80.310903 
L 255.179704 84.095799 
L 255.814589 87.36454 
L 256.449473 80.999075 
L 257.084358 75.923869 
L 257.719242 80.138834 
L 258.354127 79.450713 
L 258.989011 84.267816 
L 259.623896 83.579644 
L 260.25878 87.536558 
L 260.893665 103.364264 
L 261.528549 87.450575 
L 262.163434 93.471954 
L 262.798318 87.450575 
L 263.433203 85.128006 
L 264.068087 86.07423 
L 264.702972 90.031144 
L 265.337856 98.977229 
L 265.972741 82.63342 
L 266.607625 78.074368 
L 267.877394 86.160264 
L 268.512279 78.934558 
L 269.147163 80.138834 
L 269.782048 87.966678 
L 270.416932 79.450713 
L 271.051817 93.471954 
L 271.686701 85.730144 
L 272.321586 75.321731 
L 272.95647 75.235696 
L 273.591355 80.827006 
L 274.226239 87.450575 
L 274.861124 81.085058 
L 275.496009 84.095799 
L 276.130893 79.450713 
L 276.765778 85.902213 
L 277.400662 80.913041 
L 278.035547 86.762402 
L 279.305316 84.525868 
L 279.9402 88.740885 
L 280.575085 98.461126 
L 281.209969 94.074092 
L 282.479738 80.138834 
L 283.114623 86.504351 
L 283.749507 87.36454 
L 284.384392 80.568954 
L 285.019276 79.708765 
L 285.654161 80.396937 
L 286.289045 83.92373 
L 286.92393 92.095661 
L 287.558814 84.955989 
L 288.193699 85.472092 
L 288.828583 82.289334 
L 289.463468 83.407627 
L 290.098352 84.009765 
L 290.733237 82.977506 
L 291.368121 85.730144 
L 292.003006 80.224868 
L 292.63789 85.041972 
L 293.272775 85.386058 
L 293.907659 81.171092 
L 294.542544 94.504212 
L 295.177428 82.117316 
L 295.812313 82.63342 
L 296.447197 85.21404 
L 297.082082 84.78392 
L 297.716967 86.418316 
L 298.351851 85.902213 
L 298.986736 81.77323 
L 299.62162 76.612041 
L 300.256505 77.988334 
L 300.891389 82.977506 
L 301.526274 89.773092 
L 302.161158 92.783782 
L 302.796043 84.267816 
L 303.430927 87.536558 
L 304.700696 83.751713 
L 305.335581 89.601074 
L 305.970465 85.128006 
L 306.60535 84.697937 
L 307.240234 84.095799 
L 307.875119 78.160403 
L 308.510003 80.138834 
L 309.144888 86.332282 
L 309.779772 83.149575 
L 310.414657 83.321592 
L 311.049541 88.138696 
L 311.684426 79.794748 
L 312.31931 90.203212 
L 312.954195 81.171092 
L 313.589079 90.37523 
L 314.223964 84.525868 
L 314.858848 88.568816 
L 315.493733 88.138696 
L 316.128617 85.386058 
L 316.763502 79.966817 
L 317.398386 80.913041 
L 318.033271 82.203351 
L 318.668156 95.536471 
L 319.30304 83.665678 
L 319.937925 80.052851 
L 320.572809 87.708626 
L 321.207694 85.902213 
L 321.842578 86.418316 
L 322.477463 89.256988 
L 323.112347 79.708765 
L 323.747232 80.827006 
L 324.382116 88.22473 
L 325.017001 79.020592 
L 325.651885 89.170954 
L 326.28677 77.300213 
L 326.921654 91.407488 
L 327.556539 87.192523 
L 328.191423 88.052713 
L 328.826308 80.224868 
L 329.461192 88.22473 
L 330.096077 87.192523 
L 330.730961 80.913041 
L 331.365846 81.085058 
L 332.00073 86.762402 
L 332.635615 81.34311 
L 333.270499 85.988196 
L 333.905384 88.826868 
L 334.540268 80.396937 
L 335.175153 82.289334 
L 335.810037 83.149575 
L 336.444922 89.687058 
L 337.079806 91.493523 
L 337.714691 86.676368 
L 338.349575 86.160264 
L 338.98446 85.128006 
L 339.619344 85.128006 
L 340.254229 80.654989 
L 340.889114 86.590334 
L 341.523998 84.181782 
L 342.158883 90.289195 
L 342.793767 81.687196 
L 343.428652 88.310764 
L 344.063536 101.901936 
L 344.698421 81.601213 
L 345.333305 85.816178 
L 345.96819 80.999075 
L 346.603074 85.300075 
L 347.237959 80.396937 
L 347.872843 94.934281 
L 348.507728 83.149575 
L 349.142612 84.525868 
L 349.777497 84.353851 
L 351.047266 76.439972 
L 351.68215 83.751713 
L 352.317035 79.020592 
L 352.951919 79.536696 
L 353.586804 90.80535 
L 354.221688 78.590472 
L 354.856573 96.39666 
L 356.126342 87.020454 
L 356.761226 92.697798 
L 357.396111 83.837696 
L 358.030995 91.579506 
L 358.66588 87.966678 
L 359.300764 87.536558 
L 359.935649 81.515178 
L 360.570533 92.697798 
L 361.205418 81.257127 
L 361.840303 82.719454 
L 362.475187 83.665678 
L 363.110072 82.289334 
L 363.744956 88.396799 
L 364.379841 87.536558 
L 365.014725 84.869954 
L 365.64961 91.837557 
L 366.284494 85.041972 
L 366.919379 82.63342 
L 367.554263 81.257127 
L 368.189148 82.719454 
L 368.824032 90.289195 
L 369.458917 85.902213 
L 370.093801 84.267816 
L 370.728686 85.386058 
L 371.36357 84.095799 
L 371.998455 84.267816 
L 372.633339 88.310764 
L 373.268224 86.676368 
L 373.903108 81.429144 
L 374.537993 82.547437 
L 375.172877 96.82673 
L 375.807762 80.224868 
L 376.442646 91.751574 
L 377.077531 88.396799 
L 377.712415 87.106488 
L 378.3473 86.590334 
L 378.982184 93.471954 
L 379.617069 88.310764 
L 380.251953 84.955989 
L 380.886838 89.773092 
L 381.521722 83.751713 
L 382.156607 84.095799 
L 382.791491 88.22473 
L 383.426376 89.859126 
L 384.061261 83.92373 
L 384.696145 91.837557 
L 385.33103 80.568954 
L 385.965914 89.256988 
L 386.600799 80.654989 
L 387.235683 81.687196 
L 387.870568 82.031282 
L 388.505452 83.49361 
L 389.140337 89.773092 
L 389.775221 87.536558 
L 390.410106 81.085058 
L 391.04499 86.160264 
L 391.679875 92.611764 
L 392.949644 82.891472 
L 393.584528 90.461264 
L 394.219413 86.418316 
L 394.854297 86.160264 
L 395.489182 83.837696 
L 396.124066 85.300075 
L 396.758951 96.568678 
L 398.02872 83.579644 
L 398.663604 87.622592 
L 399.298489 83.407627 
L 399.933373 86.590334 
L 400.568258 84.955989 
L 401.203142 80.827006 
L 401.838027 90.117178 
L 402.472911 82.031282 
L 403.107796 85.128006 
L 403.74268 81.515178 
L 404.377565 82.289334 
L 405.01245 84.439834 
L 405.647334 84.611902 
L 406.282219 82.891472 
L 406.917103 80.052851 
L 407.551988 89.429006 
L 408.186872 86.762402 
L 408.821757 81.601213 
L 409.456641 82.719454 
L 410.091526 86.418316 
L 410.72641 88.826868 
L 411.361295 83.321592 
L 411.996179 87.880644 
L 412.631064 83.92373 
L 413.265948 83.235558 
L 413.900833 88.052713 
L 415.170602 83.407627 
L 415.805486 80.396937 
L 416.440371 80.740972 
L 417.075255 82.547437 
L 417.71014 86.332282 
L 418.345024 100.783694 
L 418.979909 82.719454 
L 419.614793 82.461403 
L 420.249678 86.590334 
L 420.884562 83.665678 
L 421.519447 86.160264 
L 422.154331 86.590334 
L 422.789216 83.235558 
L 423.4241 91.579506 
L 424.058985 82.891472 
L 424.693869 91.923592 
L 425.328754 83.321592 
L 425.963638 81.601213 
L 426.598523 83.92373 
L 427.233408 80.827006 
L 428.503177 88.22473 
L 429.138061 85.300075 
L 429.772946 83.06354 
L 430.40783 93.041885 
L 431.042715 83.751713 
L 432.312484 82.461403 
L 432.947368 82.805489 
L 433.582253 83.321592 
L 434.217137 85.300075 
L 434.852022 92.52573 
L 435.486906 81.601213 
L 436.121791 83.751713 
L 436.756675 87.880644 
L 437.39156 94.160126 
L 438.661329 86.848437 
L 439.296213 93.213902 
L 439.931098 84.869954 
L 440.565982 94.934281 
L 441.200867 93.644022 
L 441.835751 79.19261 
L 442.470636 86.676368 
L 443.10552 79.450713 
L 443.740405 85.472092 
L 444.375289 86.93442 
L 445.010174 87.020454 
L 445.645058 81.429144 
L 446.279943 79.880782 
L 446.914827 84.009765 
L 447.549712 91.407488 
L 448.184597 83.149575 
L 448.819481 83.751713 
L 449.454366 92.95585 
L 450.08925 85.386058 
L 450.724135 85.558126 
L 451.359019 86.676368 
L 451.993904 91.751574 
L 452.628788 95.192384 
L 453.263673 86.160264 
L 453.898557 86.246299 
L 455.168326 98.375091 
L 455.803211 84.181782 
L 456.438095 85.644161 
L 457.07298 88.826868 
L 457.707864 84.267816 
L 458.342749 84.611902 
L 458.977633 99.063264 
L 459.612518 87.36454 
L 460.247402 84.869954 
L 460.882287 97.858988 
L 461.517171 85.300075 
L 462.152056 80.999075 
L 462.78694 83.149575 
L 463.421825 85.902213 
L 464.056709 84.181782 
L 464.691594 86.332282 
L 465.326478 87.708626 
L 465.961363 83.92373 
L 466.596247 83.06354 
L 467.231132 93.644022 
L 467.866016 89.08492 
L 468.500901 89.343023 
L 469.135785 99.579367 
L 469.77067 89.256988 
L 470.405555 87.106488 
L 471.040439 90.633282 
L 471.675324 79.278644 
L 472.310208 86.160264 
L 472.945093 83.49361 
L 473.579977 89.343023 
L 474.214862 99.321316 
L 474.849746 85.300075 
L 475.484631 92.009626 
L 476.119515 92.52573 
L 476.7544 82.203351 
L 477.389284 81.257127 
L 478.024169 88.396799 
L 478.659053 82.289334 
L 479.293938 92.009626 
L 479.928822 82.461403 
L 480.563707 83.49361 
L 481.198591 91.23542 
L 482.46836 85.816178 
L 483.103245 86.246299 
L 483.738129 100.439608 
L 484.373014 88.482782 
L 485.007898 92.869816 
L 485.642783 84.697937 
L 486.277667 89.687058 
L 486.912552 85.644161 
L 487.547436 84.611902 
L 488.182321 82.461403 
L 488.817205 84.955989 
L 489.45209 86.848437 
L 490.086974 83.92373 
L 490.721859 91.321454 
L 491.356744 84.095799 
L 491.991628 81.257127 
L 492.626513 84.869954 
L 493.261397 89.256988 
L 493.896282 82.031282 
L 494.531166 87.192523 
L 495.166051 80.913041 
L 495.800935 85.128006 
L 496.43582 87.450575 
L 497.070704 91.493523 
L 497.705589 88.22473 
L 498.340473 83.751713 
L 498.975358 85.988196 
L 499.610242 86.160264 
L 500.245127 85.988196 
L 500.880011 85.128006 
L 501.514896 96.052574 
L 502.14978 88.482782 
L 502.784665 95.794522 
L 503.419549 86.93442 
L 504.054434 85.730144 
L 504.689318 88.138696 
L 505.324203 86.590334 
L 505.959087 96.138609 
L 506.593972 89.08492 
L 507.228856 87.966678 
L 508.498625 84.611902 
L 509.13351 80.568954 
L 509.768394 83.321592 
L 510.403279 84.955989 
L 511.038163 93.902074 
L 511.673048 82.203351 
L 512.307933 81.687196 
L 512.942817 81.34311 
L 513.577702 83.321592 
L 514.212586 91.23542 
L 514.847471 88.998937 
L 515.482355 89.256988 
L 516.11724 82.375368 
L 516.752124 92.353712 
L 517.387009 87.536558 
L 518.021893 80.396937 
L 519.291662 91.149436 
L 519.926547 90.977368 
L 520.561431 87.450575 
L 521.196316 88.568816 
L 521.8312 82.891472 
L 522.466085 84.78392 
L 523.100969 85.21404 
L 524.370738 82.63342 
L 525.005623 97.428867 
L 525.640507 96.998798 
L 526.275392 92.095661 
L 526.910276 88.998937 
L 527.545161 81.945299 
L 528.180045 85.300075 
L 528.81493 89.429006 
L 529.449814 86.93442 
L 530.084699 85.730144 
L 530.719583 88.22473 
L 531.354468 84.095799 
L 531.989352 87.880644 
L 532.624237 83.665678 
L 533.259121 87.794661 
L 533.894006 82.805489 
L 534.528891 86.418316 
L 535.163775 86.676368 
L 535.79866 81.515178 
L 536.433544 85.558126 
L 537.068429 86.418316 
L 537.703313 82.63342 
L 538.338198 90.031144 
L 538.973082 105.686832 
L 539.607967 90.633282 
L 540.242851 81.171092 
L 540.877736 105.428729 
L 541.51262 86.848437 
L 542.147505 78.33242 
L 542.782389 96.82673 
L 543.417274 86.93442 
L 544.052158 88.568816 
L 544.687043 84.869954 
L 545.321927 88.22473 
L 545.956812 81.945299 
L 546.591696 83.06354 
L 547.226581 90.80535 
L 547.861465 85.558126 
L 548.49635 88.740885 
L 549.131234 84.353851 
L 549.766119 91.063402 
L 550.401003 88.912902 
L 551.035888 84.869954 
L 551.670772 91.23542 
L 552.305657 85.902213 
L 552.940541 91.321454 
L 553.575426 83.837696 
L 554.21031 84.611902 
L 554.845195 82.977506 
L 555.48008 89.859126 
L 556.114964 91.063402 
L 556.749849 101.901936 
L 557.384733 78.848575 
L 558.019618 81.171092 
L 558.654502 94.418178 
L 559.289387 86.246299 
L 559.924271 83.06354 
L 560.559156 86.590334 
L 561.19404 95.192384 
L 561.828925 84.181782 
L 562.463809 84.009765 
L 563.098694 82.63342 
L 563.733578 78.934558 
L 564.368463 88.396799 
L 565.003347 93.988109 
L 565.638232 81.429144 
L 566.273116 85.128006 
L 566.908001 83.665678 
L 567.542885 85.041972 
L 568.17777 89.256988 
L 568.812654 80.740972 
L 569.447539 83.751713 
L 570.082423 84.267816 
L 570.717308 84.095799 
L 571.352192 85.472092 
L 571.987077 88.568816 
L 572.621961 90.977368 
L 573.256846 84.611902 
L 573.89173 83.751713 
L 574.526615 89.256988 
L 575.161499 90.203212 
L 575.796384 86.504351 
L 576.431268 81.687196 
L 577.066153 85.300075 
L 577.701038 92.267678 
L 578.335922 81.171092 
L 578.970807 81.429144 
L 579.605691 84.267816 
L 580.240576 89.51504 
L 580.87546 82.805489 
L 581.510345 83.92373 
L 582.145229 86.93442 
L 582.780114 82.117316 
L 582.780114 82.117316 
" clip-path="url(#p10136e800b)" style="fill: none; stroke: #ff7f0e; stroke-width: 1.5; stroke-linecap: square"/>
   </g>
   <g id="line2d_35">
    <path d="M 50.14375 551.518125 
L 608.14375 551.518125 
" clip-path="url(#p10136e800b)" style="fill: none; stroke-dasharray: 11.1,4.8; stroke-dashoffset: 0; stroke: #ff0000; stroke-width: 3"/>
   </g>
   <g id="patch_3">
    <path d="M 50.14375 576.718125 
L 50.14375 22.318125 
" style="fill: none; stroke: #000000; stroke-width: 0.8; stroke-linejoin: miter; stroke-linecap: square"/>
   </g>
   <g id="patch_4">
    <path d="M 608.14375 576.718125 
L 608.14375 22.318125 
" style="fill: none; stroke: #000000; stroke-width: 0.8; stroke-linejoin: miter; stroke-linecap: square"/>
   </g>
   <g id="patch_5">
    <path d="M 50.14375 576.718125 
L 608.14375 576.718125 
" style="fill: none; stroke: #000000; stroke-width: 0.8; stroke-linejoin: miter; stroke-linecap: square"/>
   </g>
   <g id="patch_6">
    <path d="M 50.14375 22.318125 
L 608.14375 22.318125 
" style="fill: none; stroke: #000000; stroke-width: 0.8; stroke-linejoin: miter; stroke-linecap: square"/>
   </g>
   <g id="text_19">
    <!-- Train and Val Accuracy -->
    <g transform="translate(261.365313 16.318125) scale(0.12 -0.12)">
     <defs>
      <path id="DejaVuSans-54" d="M -19 4666 
L 3928 4666 
L 3928 4134 
L 2272 4134 
L 2272 0 
L 1638 0 
L 1638 4134 
L -19 4134 
L -19 4666 
z
" transform="scale(0.015625)"/>
      <path id="DejaVuSans-69" d="M 603 3500 
L 1178 3500 
L 1178 0 
L 603 0 
L 603 3500 
z
M 603 4863 
L 1178 4863 
L 1178 4134 
L 603 4134 
L 603 4863 
z
" transform="scale(0.015625)"/>
      <path id="DejaVuSans-6e" d="M 3513 2113 
L 3513 0 
L 2938 0 
L 2938 2094 
Q 2938 2591 2744 2837 
Q 2550 3084 2163 3084 
Q 1697 3084 1428 2787 
Q 1159 2491 1159 1978 
L 1159 0 
L 581 0 
L 581 3500 
L 1159 3500 
L 1159 2956 
Q 1366 3272 1645 3428 
Q 1925 3584 2291 3584 
Q 2894 3584 3203 3211 
Q 3513 2838 3513 2113 
z
" transform="scale(0.015625)"/>
      <path id="DejaVuSans-20" transform="scale(0.015625)"/>
      <path id="DejaVuSans-64" d="M 2906 2969 
L 2906 4863 
L 3481 4863 
L 3481 0 
L 2906 0 
L 2906 525 
Q 2725 213 2448 61 
Q 2172 -91 1784 -91 
Q 1150 -91 751 415 
Q 353 922 353 1747 
Q 353 2572 751 3078 
Q 1150 3584 1784 3584 
Q 2172 3584 2448 3432 
Q 2725 3281 2906 2969 
z
M 947 1747 
Q 947 1113 1208 752 
Q 1469 391 1925 391 
Q 2381 391 2643 752 
Q 2906 1113 2906 1747 
Q 2906 2381 2643 2742 
Q 2381 3103 1925 3103 
Q 1469 3103 1208 2742 
Q 947 2381 947 1747 
z
" transform="scale(0.015625)"/>
      <path id="DejaVuSans-56" d="M 1831 0 
L 50 4666 
L 709 4666 
L 2188 738 
L 3669 4666 
L 4325 4666 
L 2547 0 
L 1831 0 
z
" transform="scale(0.015625)"/>
      <path id="DejaVuSans-6c" d="M 603 4863 
L 1178 4863 
L 1178 0 
L 603 0 
L 603 4863 
z
" transform="scale(0.015625)"/>
     </defs>
     <use xlink:href="#DejaVuSans-54"/>
     <use xlink:href="#DejaVuSans-72" transform="translate(46.333984 0)"/>
     <use xlink:href="#DejaVuSans-61" transform="translate(87.447266 0)"/>
     <use xlink:href="#DejaVuSans-69" transform="translate(148.726562 0)"/>
     <use xlink:href="#DejaVuSans-6e" transform="translate(176.509766 0)"/>
     <use xlink:href="#DejaVuSans-20" transform="translate(239.888672 0)"/>
     <use xlink:href="#DejaVuSans-61" transform="translate(271.675781 0)"/>
     <use xlink:href="#DejaVuSans-6e" transform="translate(332.955078 0)"/>
     <use xlink:href="#DejaVuSans-64" transform="translate(396.333984 0)"/>
     <use xlink:href="#DejaVuSans-20" transform="translate(459.810547 0)"/>
     <use xlink:href="#DejaVuSans-56" transform="translate(491.597656 0)"/>
     <use xlink:href="#DejaVuSans-61" transform="translate(552.255859 0)"/>
     <use xlink:href="#DejaVuSans-6c" transform="translate(613.535156 0)"/>
     <use xlink:href="#DejaVuSans-20" transform="translate(641.318359 0)"/>
     <use xlink:href="#DejaVuSans-41" transform="translate(673.105469 0)"/>
     <use xlink:href="#DejaVuSans-63" transform="translate(739.763672 0)"/>
     <use xlink:href="#DejaVuSans-63" transform="translate(794.744141 0)"/>
     <use xlink:href="#DejaVuSans-75" transform="translate(849.724609 0)"/>
     <use xlink:href="#DejaVuSans-72" transform="translate(913.103516 0)"/>
     <use xlink:href="#DejaVuSans-61" transform="translate(954.216797 0)"/>
     <use xlink:href="#DejaVuSans-63" transform="translate(1015.496094 0)"/>
     <use xlink:href="#DejaVuSans-79" transform="translate(1070.476562 0)"/>
    </g>
   </g>
   <g id="legend_1">
    <g id="patch_7">
     <path d="M 434.020312 323.313438 
L 601.14375 323.313438 
Q 603.14375 323.313438 603.14375 321.313438 
L 603.14375 277.722813 
Q 603.14375 275.722813 601.14375 275.722813 
L 434.020312 275.722813 
Q 432.020312 275.722813 432.020312 277.722813 
L 432.020312 321.313438 
Q 432.020312 323.313438 434.020312 323.313438 
z
" style="fill: #ffffff; opacity: 0.8; stroke: #cccccc; stroke-linejoin: miter"/>
    </g>
    <g id="line2d_36">
     <path d="M 436.020312 283.82125 
L 446.020312 283.82125 
L 456.020312 283.82125 
" style="fill: none; stroke: #1f77b4; stroke-width: 1.5; stroke-linecap: square"/>
    </g>
    <g id="text_20">
     <!-- train_accuracy -->
     <g transform="translate(464.020312 287.32125) scale(0.1 -0.1)">
      <defs>
       <path id="DejaVuSans-74" d="M 1172 4494 
L 1172 3500 
L 2356 3500 
L 2356 3053 
L 1172 3053 
L 1172 1153 
Q 1172 725 1289 603 
Q 1406 481 1766 481 
L 2356 481 
L 2356 0 
L 1766 0 
Q 1100 0 847 248 
Q 594 497 594 1153 
L 594 3053 
L 172 3053 
L 172 3500 
L 594 3500 
L 594 4494 
L 1172 4494 
z
" transform="scale(0.015625)"/>
       <path id="DejaVuSans-5f" d="M 3263 -1063 
L 3263 -1509 
L -63 -1509 
L -63 -1063 
L 3263 -1063 
z
" transform="scale(0.015625)"/>
      </defs>
      <use xlink:href="#DejaVuSans-74"/>
      <use xlink:href="#DejaVuSans-72" transform="translate(39.208984 0)"/>
      <use xlink:href="#DejaVuSans-61" transform="translate(80.322266 0)"/>
      <use xlink:href="#DejaVuSans-69" transform="translate(141.601562 0)"/>
      <use xlink:href="#DejaVuSans-6e" transform="translate(169.384766 0)"/>
      <use xlink:href="#DejaVuSans-5f" transform="translate(232.763672 0)"/>
      <use xlink:href="#DejaVuSans-61" transform="translate(282.763672 0)"/>
      <use xlink:href="#DejaVuSans-63" transform="translate(344.042969 0)"/>
      <use xlink:href="#DejaVuSans-63" transform="translate(399.023438 0)"/>
      <use xlink:href="#DejaVuSans-75" transform="translate(454.003906 0)"/>
      <use xlink:href="#DejaVuSans-72" transform="translate(517.382812 0)"/>
      <use xlink:href="#DejaVuSans-61" transform="translate(558.496094 0)"/>
      <use xlink:href="#DejaVuSans-63" transform="translate(619.775391 0)"/>
      <use xlink:href="#DejaVuSans-79" transform="translate(674.755859 0)"/>
     </g>
    </g>
    <g id="line2d_37">
     <path d="M 436.020312 298.7775 
L 446.020312 298.7775 
L 456.020312 298.7775 
" style="fill: none; stroke: #ff7f0e; stroke-width: 1.5; stroke-linecap: square"/>
    </g>
    <g id="text_21">
     <!-- val_accuracy -->
     <g transform="translate(464.020312 302.2775) scale(0.1 -0.1)">
      <defs>
       <path id="DejaVuSans-76" d="M 191 3500 
L 800 3500 
L 1894 563 
L 2988 3500 
L 3597 3500 
L 2284 0 
L 1503 0 
L 191 3500 
z
" transform="scale(0.015625)"/>
      </defs>
      <use xlink:href="#DejaVuSans-76"/>
      <use xlink:href="#DejaVuSans-61" transform="translate(59.179688 0)"/>
      <use xlink:href="#DejaVuSans-6c" transform="translate(120.458984 0)"/>
      <use xlink:href="#DejaVuSans-5f" transform="translate(148.242188 0)"/>
      <use xlink:href="#DejaVuSans-61" transform="translate(198.242188 0)"/>
      <use xlink:href="#DejaVuSans-63" transform="translate(259.521484 0)"/>
      <use xlink:href="#DejaVuSans-63" transform="translate(314.501953 0)"/>
      <use xlink:href="#DejaVuSans-75" transform="translate(369.482422 0)"/>
      <use xlink:href="#DejaVuSans-72" transform="translate(432.861328 0)"/>
      <use xlink:href="#DejaVuSans-61" transform="translate(473.974609 0)"/>
      <use xlink:href="#DejaVuSans-63" transform="translate(535.253906 0)"/>
      <use xlink:href="#DejaVuSans-79" transform="translate(590.234375 0)"/>
     </g>
    </g>
    <g id="line2d_38">
     <path d="M 436.020312 313.73375 
L 446.020312 313.73375 
L 456.020312 313.73375 
" style="fill: none; stroke-dasharray: 11.1,4.8; stroke-dashoffset: 0; stroke: #ff0000; stroke-width: 3"/>
    </g>
    <g id="text_22">
     <!-- Random-Guesser Accuracy -->
     <g transform="translate(464.020312 317.23375) scale(0.1 -0.1)">
      <defs>
       <path id="DejaVuSans-52" d="M 2841 2188 
Q 3044 2119 3236 1894 
Q 3428 1669 3622 1275 
L 4263 0 
L 3584 0 
L 2988 1197 
Q 2756 1666 2539 1819 
Q 2322 1972 1947 1972 
L 1259 1972 
L 1259 0 
L 628 0 
L 628 4666 
L 2053 4666 
Q 2853 4666 3247 4331 
Q 3641 3997 3641 3322 
Q 3641 2881 3436 2590 
Q 3231 2300 2841 2188 
z
M 1259 4147 
L 1259 2491 
L 2053 2491 
Q 2509 2491 2742 2702 
Q 2975 2913 2975 3322 
Q 2975 3731 2742 3939 
Q 2509 4147 2053 4147 
L 1259 4147 
z
" transform="scale(0.015625)"/>
       <path id="DejaVuSans-6d" d="M 3328 2828 
Q 3544 3216 3844 3400 
Q 4144 3584 4550 3584 
Q 5097 3584 5394 3201 
Q 5691 2819 5691 2113 
L 5691 0 
L 5113 0 
L 5113 2094 
Q 5113 2597 4934 2840 
Q 4756 3084 4391 3084 
Q 3944 3084 3684 2787 
Q 3425 2491 3425 1978 
L 3425 0 
L 2847 0 
L 2847 2094 
Q 2847 2600 2669 2842 
Q 2491 3084 2119 3084 
Q 1678 3084 1418 2786 
Q 1159 2488 1159 1978 
L 1159 0 
L 581 0 
L 581 3500 
L 1159 3500 
L 1159 2956 
Q 1356 3278 1631 3431 
Q 1906 3584 2284 3584 
Q 2666 3584 2933 3390 
Q 3200 3197 3328 2828 
z
" transform="scale(0.015625)"/>
       <path id="DejaVuSans-2d" d="M 313 2009 
L 1997 2009 
L 1997 1497 
L 313 1497 
L 313 2009 
z
" transform="scale(0.015625)"/>
       <path id="DejaVuSans-47" d="M 3809 666 
L 3809 1919 
L 2778 1919 
L 2778 2438 
L 4434 2438 
L 4434 434 
Q 4069 175 3628 42 
Q 3188 -91 2688 -91 
Q 1594 -91 976 548 
Q 359 1188 359 2328 
Q 359 3472 976 4111 
Q 1594 4750 2688 4750 
Q 3144 4750 3555 4637 
Q 3966 4525 4313 4306 
L 4313 3634 
Q 3963 3931 3569 4081 
Q 3175 4231 2741 4231 
Q 1884 4231 1454 3753 
Q 1025 3275 1025 2328 
Q 1025 1384 1454 906 
Q 1884 428 2741 428 
Q 3075 428 3337 486 
Q 3600 544 3809 666 
z
" transform="scale(0.015625)"/>
       <path id="DejaVuSans-65" d="M 3597 1894 
L 3597 1613 
L 953 1613 
Q 991 1019 1311 708 
Q 1631 397 2203 397 
Q 2534 397 2845 478 
Q 3156 559 3463 722 
L 3463 178 
Q 3153 47 2828 -22 
Q 2503 -91 2169 -91 
Q 1331 -91 842 396 
Q 353 884 353 1716 
Q 353 2575 817 3079 
Q 1281 3584 2069 3584 
Q 2775 3584 3186 3129 
Q 3597 2675 3597 1894 
z
M 3022 2063 
Q 3016 2534 2758 2815 
Q 2500 3097 2075 3097 
Q 1594 3097 1305 2825 
Q 1016 2553 972 2059 
L 3022 2063 
z
" transform="scale(0.015625)"/>
      </defs>
      <use xlink:href="#DejaVuSans-52"/>
      <use xlink:href="#DejaVuSans-61" transform="translate(67.232422 0)"/>
      <use xlink:href="#DejaVuSans-6e" transform="translate(128.511719 0)"/>
      <use xlink:href="#DejaVuSans-64" transform="translate(191.890625 0)"/>
      <use xlink:href="#DejaVuSans-6f" transform="translate(255.367188 0)"/>
      <use xlink:href="#DejaVuSans-6d" transform="translate(316.548828 0)"/>
      <use xlink:href="#DejaVuSans-2d" transform="translate(413.960938 0)"/>
      <use xlink:href="#DejaVuSans-47" transform="translate(453.669922 0)"/>
      <use xlink:href="#DejaVuSans-75" transform="translate(531.160156 0)"/>
      <use xlink:href="#DejaVuSans-65" transform="translate(594.539062 0)"/>
      <use xlink:href="#DejaVuSans-73" transform="translate(656.0625 0)"/>
      <use xlink:href="#DejaVuSans-73" transform="translate(708.162109 0)"/>
      <use xlink:href="#DejaVuSans-65" transform="translate(760.261719 0)"/>
      <use xlink:href="#DejaVuSans-72" transform="translate(821.785156 0)"/>
      <use xlink:href="#DejaVuSans-20" transform="translate(862.898438 0)"/>
      <use xlink:href="#DejaVuSans-41" transform="translate(894.685547 0)"/>
      <use xlink:href="#DejaVuSans-63" transform="translate(961.34375 0)"/>
      <use xlink:href="#DejaVuSans-63" transform="translate(1016.324219 0)"/>
      <use xlink:href="#DejaVuSans-75" transform="translate(1071.304688 0)"/>
      <use xlink:href="#DejaVuSans-72" transform="translate(1134.683594 0)"/>
      <use xlink:href="#DejaVuSans-61" transform="translate(1175.796875 0)"/>
      <use xlink:href="#DejaVuSans-63" transform="translate(1237.076172 0)"/>
      <use xlink:href="#DejaVuSans-79" transform="translate(1292.056641 0)"/>
     </g>
    </g>
   </g>
  </g>
 </g>
 <defs>
  <clipPath id="p10136e800b">
   <rect x="50.14375" y="22.318125" width="558" height="554.4"/>
  </clipPath>
 </defs>
</svg>
