<?xml version="1.0" encoding="utf-8" standalone="no"?>
<!DOCTYPE svg PUBLIC "-//W3C//DTD SVG 1.1//EN"
  "http://www.w3.org/Graphics/SVG/1.1/DTD/svg11.dtd">
<svg xmlns:xlink="http://www.w3.org/1999/xlink" width="605.803125pt" height="614.274375pt" viewBox="0 0 605.803125 614.274375" xmlns="http://www.w3.org/2000/svg" version="1.1">
 <metadata>
  <rdf:RDF xmlns:dc="http://purl.org/dc/elements/1.1/" xmlns:cc="http://creativecommons.org/ns#" xmlns:rdf="http://www.w3.org/1999/02/22-rdf-syntax-ns#">
   <cc:Work>
    <dc:type rdf:resource="http://purl.org/dc/dcmitype/StillImage"/>
    <dc:date>2026-05-23T15:20:25.991477</dc:date>
    <dc:format>image/svg+xml</dc:format>
    <dc:creator>
     <cc:Agent>
      <dc:title>Matplotlib v3.10.9, https://matplotlib.org/</dc:title>
     </cc:Agent>
    </dc:creator>
   </cc:Work>
  </rdf:RDF>
 </metadata>
 <defs>
  <style type="text/css">*{stroke-linejoin: round; stroke-linecap: butt}</style>
 </defs>
 <g id="figure_1">
  <g id="patch_1">
   <path d="M 0 614.274375 
L 605.803125 614.274375 
L 605.803125 0 
L 0 0 
z
" style="fill: #ffffff"/>
  </g>
  <g id="axes_1">
   <g id="patch_2">
    <path d="M 40.603125 576.718125 
L 598.603125 576.718125 
L 598.603125 22.318125 
L 40.603125 22.318125 
z
" style="fill: #ffffff"/>
   </g>
   <g id="matplotlib.axis_1">
    <g id="xtick_1">
     <g id="line2d_1">
      <path d="M 65.966761 576.718125 
L 65.966761 22.318125 
" clip-path="url(#p80d118345d)" style="fill: none; stroke: #b0b0b0; stroke-width: 0.8; stroke-linecap: square"/>
     </g>
     <g id="line2d_2">
      <defs>
       <path id="m5d5f7cd7d6" d="M 0 0 
L 0 3.5 
" style="stroke: #000000; stroke-width: 0.8"/>
      </defs>
      <g>
       <use xlink:href="#m5d5f7cd7d6" x="65.966761" y="576.718125" style="stroke: #000000; stroke-width: 0.8"/>
      </g>
     </g>
     <g id="text_1">
      <!-- 0 -->
      <g transform="translate(62.785511 591.316563) scale(0.1 -0.1)">
       <defs>
        <path id="DejaVuSans-30" d="M 2034 4250 
Q 1547 4250 1301 3770 
Q 1056 3291 1056 2328 
Q 1056 1369 1301 889 
Q 1547 409 2034 409 
Q 2525 409 2770 889 
Q 3016 1369 3016 2328 
Q 3016 3291 2770 3770 
Q 2525 4250 2034 4250 
z
M 2034 4750 
Q 2819 4750 3233 4129 
Q 3647 3509 3647 2328 
Q 3647 1150 3233 529 
Q 2819 -91 2034 -91 
Q 1250 -91 836 529 
Q 422 1150 422 2328 
Q 422 3509 836 4129 
Q 1250 4750 2034 4750 
z
" transform="scale(0.015625)"/>
       </defs>
       <use xlink:href="#DejaVuSans-30"/>
      </g>
     </g>
    </g>
    <g id="xtick_2">
     <g id="line2d_3">
      <path d="M 129.455213 576.718125 
L 129.455213 22.318125 
" clip-path="url(#p80d118345d)" style="fill: none; stroke: #b0b0b0; stroke-width: 0.8; stroke-linecap: square"/>
     </g>
     <g id="line2d_4">
      <g>
       <use xlink:href="#m5d5f7cd7d6" x="129.455213" y="576.718125" style="stroke: #000000; stroke-width: 0.8"/>
      </g>
     </g>
     <g id="text_2">
      <!-- 100 -->
      <g transform="translate(119.911463 591.316563) scale(0.1 -0.1)">
       <defs>
        <path id="DejaVuSans-31" d="M 794 531 
L 1825 531 
L 1825 4091 
L 703 3866 
L 703 4441 
L 1819 4666 
L 2450 4666 
L 2450 531 
L 3481 531 
L 3481 0 
L 794 0 
L 794 531 
z
" transform="scale(0.015625)"/>
       </defs>
       <use xlink:href="#DejaVuSans-31"/>
       <use xlink:href="#DejaVuSans-30" transform="translate(63.623047 0)"/>
       <use xlink:href="#DejaVuSans-30" transform="translate(127.246094 0)"/>
      </g>
     </g>
    </g>
    <g id="xtick_3">
     <g id="line2d_5">
      <path d="M 192.943664 576.718125 
L 192.943664 22.318125 
" clip-path="url(#p80d118345d)" style="fill: none; stroke: #b0b0b0; stroke-width: 0.8; stroke-linecap: square"/>
     </g>
     <g id="line2d_6">
      <g>
       <use xlink:href="#m5d5f7cd7d6" x="192.943664" y="576.718125" style="stroke: #000000; stroke-width: 0.8"/>
      </g>
     </g>
     <g id="text_3">
      <!-- 200 -->
      <g transform="translate(183.399914 591.316563) scale(0.1 -0.1)">
       <defs>
        <path id="DejaVuSans-32" d="M 1228 531 
L 3431 531 
L 3431 0 
L 469 0 
L 469 531 
Q 828 903 1448 1529 
Q 2069 2156 2228 2338 
Q 2531 2678 2651 2914 
Q 2772 3150 2772 3378 
Q 2772 3750 2511 3984 
Q 2250 4219 1831 4219 
Q 1534 4219 1204 4116 
Q 875 4013 500 3803 
L 500 4441 
Q 881 4594 1212 4672 
Q 1544 4750 1819 4750 
Q 2544 4750 2975 4387 
Q 3406 4025 3406 3419 
Q 3406 3131 3298 2873 
Q 3191 2616 2906 2266 
Q 2828 2175 2409 1742 
Q 1991 1309 1228 531 
z
" transform="scale(0.015625)"/>
       </defs>
       <use xlink:href="#DejaVuSans-32"/>
       <use xlink:href="#DejaVuSans-30" transform="translate(63.623047 0)"/>
       <use xlink:href="#DejaVuSans-30" transform="translate(127.246094 0)"/>
      </g>
     </g>
    </g>
    <g id="xtick_4">
     <g id="line2d_7">
      <path d="M 256.432116 576.718125 
L 256.432116 22.318125 
" clip-path="url(#p80d118345d)" style="fill: none; stroke: #b0b0b0; stroke-width: 0.8; stroke-linecap: square"/>
     </g>
     <g id="line2d_8">
      <g>
       <use xlink:href="#m5d5f7cd7d6" x="256.432116" y="576.718125" style="stroke: #000000; stroke-width: 0.8"/>
      </g>
     </g>
     <g id="text_4">
      <!-- 300 -->
      <g transform="translate(246.888366 591.316563) scale(0.1 -0.1)">
       <defs>
        <path id="DejaVuSans-33" d="M 2597 2516 
Q 3050 2419 3304 2112 
Q 3559 1806 3559 1356 
Q 3559 666 3084 287 
Q 2609 -91 1734 -91 
Q 1441 -91 1130 -33 
Q 819 25 488 141 
L 488 750 
Q 750 597 1062 519 
Q 1375 441 1716 441 
Q 2309 441 2620 675 
Q 2931 909 2931 1356 
Q 2931 1769 2642 2001 
Q 2353 2234 1838 2234 
L 1294 2234 
L 1294 2753 
L 1863 2753 
Q 2328 2753 2575 2939 
Q 2822 3125 2822 3475 
Q 2822 3834 2567 4026 
Q 2313 4219 1838 4219 
Q 1578 4219 1281 4162 
Q 984 4106 628 3988 
L 628 4550 
Q 988 4650 1302 4700 
Q 1616 4750 1894 4750 
Q 2613 4750 3031 4423 
Q 3450 4097 3450 3541 
Q 3450 3153 3228 2886 
Q 3006 2619 2597 2516 
z
" transform="scale(0.015625)"/>
       </defs>
       <use xlink:href="#DejaVuSans-33"/>
       <use xlink:href="#DejaVuSans-30" transform="translate(63.623047 0)"/>
       <use xlink:href="#DejaVuSans-30" transform="translate(127.246094 0)"/>
      </g>
     </g>
    </g>
    <g id="xtick_5">
     <g id="line2d_9">
      <path d="M 319.920567 576.718125 
L 319.920567 22.318125 
" clip-path="url(#p80d118345d)" style="fill: none; stroke: #b0b0b0; stroke-width: 0.8; stroke-linecap: square"/>
     </g>
     <g id="line2d_10">
      <g>
       <use xlink:href="#m5d5f7cd7d6" x="319.920567" y="576.718125" style="stroke: #000000; stroke-width: 0.8"/>
      </g>
     </g>
     <g id="text_5">
      <!-- 400 -->
      <g transform="translate(310.376817 591.316563) scale(0.1 -0.1)">
       <defs>
        <path id="DejaVuSans-34" d="M 2419 4116 
L 825 1625 
L 2419 1625 
L 2419 4116 
z
M 2253 4666 
L 3047 4666 
L 3047 1625 
L 3713 1625 
L 3713 1100 
L 3047 1100 
L 3047 0 
L 2419 0 
L 2419 1100 
L 313 1100 
L 313 1709 
L 2253 4666 
z
" transform="scale(0.015625)"/>
       </defs>
       <use xlink:href="#DejaVuSans-34"/>
       <use xlink:href="#DejaVuSans-30" transform="translate(63.623047 0)"/>
       <use xlink:href="#DejaVuSans-30" transform="translate(127.246094 0)"/>
      </g>
     </g>
    </g>
    <g id="xtick_6">
     <g id="line2d_11">
      <path d="M 383.409019 576.718125 
L 383.409019 22.318125 
" clip-path="url(#p80d118345d)" style="fill: none; stroke: #b0b0b0; stroke-width: 0.8; stroke-linecap: square"/>
     </g>
     <g id="line2d_12">
      <g>
       <use xlink:href="#m5d5f7cd7d6" x="383.409019" y="576.718125" style="stroke: #000000; stroke-width: 0.8"/>
      </g>
     </g>
     <g id="text_6">
      <!-- 500 -->
      <g transform="translate(373.865269 591.316563) scale(0.1 -0.1)">
       <defs>
        <path id="DejaVuSans-35" d="M 691 4666 
L 3169 4666 
L 3169 4134 
L 1269 4134 
L 1269 2991 
Q 1406 3038 1543 3061 
Q 1681 3084 1819 3084 
Q 2600 3084 3056 2656 
Q 3513 2228 3513 1497 
Q 3513 744 3044 326 
Q 2575 -91 1722 -91 
Q 1428 -91 1123 -41 
Q 819 9 494 109 
L 494 744 
Q 775 591 1075 516 
Q 1375 441 1709 441 
Q 2250 441 2565 725 
Q 2881 1009 2881 1497 
Q 2881 1984 2565 2268 
Q 2250 2553 1709 2553 
Q 1456 2553 1204 2497 
Q 953 2441 691 2322 
L 691 4666 
z
" transform="scale(0.015625)"/>
       </defs>
       <use xlink:href="#DejaVuSans-35"/>
       <use xlink:href="#DejaVuSans-30" transform="translate(63.623047 0)"/>
       <use xlink:href="#DejaVuSans-30" transform="translate(127.246094 0)"/>
      </g>
     </g>
    </g>
    <g id="xtick_7">
     <g id="line2d_13">
      <path d="M 446.89747 576.718125 
L 446.89747 22.318125 
" clip-path="url(#p80d118345d)" style="fill: none; stroke: #b0b0b0; stroke-width: 0.8; stroke-linecap: square"/>
     </g>
     <g id="line2d_14">
      <g>
       <use xlink:href="#m5d5f7cd7d6" x="446.89747" y="576.718125" style="stroke: #000000; stroke-width: 0.8"/>
      </g>
     </g>
     <g id="text_7">
      <!-- 600 -->
      <g transform="translate(437.35372 591.316563) scale(0.1 -0.1)">
       <defs>
        <path id="DejaVuSans-36" d="M 2113 2584 
Q 1688 2584 1439 2293 
Q 1191 2003 1191 1497 
Q 1191 994 1439 701 
Q 1688 409 2113 409 
Q 2538 409 2786 701 
Q 3034 994 3034 1497 
Q 3034 2003 2786 2293 
Q 2538 2584 2113 2584 
z
M 3366 4563 
L 3366 3988 
Q 3128 4100 2886 4159 
Q 2644 4219 2406 4219 
Q 1781 4219 1451 3797 
Q 1122 3375 1075 2522 
Q 1259 2794 1537 2939 
Q 1816 3084 2150 3084 
Q 2853 3084 3261 2657 
Q 3669 2231 3669 1497 
Q 3669 778 3244 343 
Q 2819 -91 2113 -91 
Q 1303 -91 875 529 
Q 447 1150 447 2328 
Q 447 3434 972 4092 
Q 1497 4750 2381 4750 
Q 2619 4750 2861 4703 
Q 3103 4656 3366 4563 
z
" transform="scale(0.015625)"/>
       </defs>
       <use xlink:href="#DejaVuSans-36"/>
       <use xlink:href="#DejaVuSans-30" transform="translate(63.623047 0)"/>
       <use xlink:href="#DejaVuSans-30" transform="translate(127.246094 0)"/>
      </g>
     </g>
    </g>
    <g id="xtick_8">
     <g id="line2d_15">
      <path d="M 510.385922 576.718125 
L 510.385922 22.318125 
" clip-path="url(#p80d118345d)" style="fill: none; stroke: #b0b0b0; stroke-width: 0.8; stroke-linecap: square"/>
     </g>
     <g id="line2d_16">
      <g>
       <use xlink:href="#m5d5f7cd7d6" x="510.385922" y="576.718125" style="stroke: #000000; stroke-width: 0.8"/>
      </g>
     </g>
     <g id="text_8">
      <!-- 700 -->
      <g transform="translate(500.842172 591.316563) scale(0.1 -0.1)">
       <defs>
        <path id="DejaVuSans-37" d="M 525 4666 
L 3525 4666 
L 3525 4397 
L 1831 0 
L 1172 0 
L 2766 4134 
L 525 4134 
L 525 4666 
z
" transform="scale(0.015625)"/>
       </defs>
       <use xlink:href="#DejaVuSans-37"/>
       <use xlink:href="#DejaVuSans-30" transform="translate(63.623047 0)"/>
       <use xlink:href="#DejaVuSans-30" transform="translate(127.246094 0)"/>
      </g>
     </g>
    </g>
    <g id="xtick_9">
     <g id="line2d_17">
      <path d="M 573.874373 576.718125 
L 573.874373 22.318125 
" clip-path="url(#p80d118345d)" style="fill: none; stroke: #b0b0b0; stroke-width: 0.8; stroke-linecap: square"/>
     </g>
     <g id="line2d_18">
      <g>
       <use xlink:href="#m5d5f7cd7d6" x="573.874373" y="576.718125" style="stroke: #000000; stroke-width: 0.8"/>
      </g>
     </g>
     <g id="text_9">
      <!-- 800 -->
      <g transform="translate(564.330623 591.316563) scale(0.1 -0.1)">
       <defs>
        <path id="DejaVuSans-38" d="M 2034 2216 
Q 1584 2216 1326 1975 
Q 1069 1734 1069 1313 
Q 1069 891 1326 650 
Q 1584 409 2034 409 
Q 2484 409 2743 651 
Q 3003 894 3003 1313 
Q 3003 1734 2745 1975 
Q 2488 2216 2034 2216 
z
M 1403 2484 
Q 997 2584 770 2862 
Q 544 3141 544 3541 
Q 544 4100 942 4425 
Q 1341 4750 2034 4750 
Q 2731 4750 3128 4425 
Q 3525 4100 3525 3541 
Q 3525 3141 3298 2862 
Q 3072 2584 2669 2484 
Q 3125 2378 3379 2068 
Q 3634 1759 3634 1313 
Q 3634 634 3220 271 
Q 2806 -91 2034 -91 
Q 1263 -91 848 271 
Q 434 634 434 1313 
Q 434 1759 690 2068 
Q 947 2378 1403 2484 
z
M 1172 3481 
Q 1172 3119 1398 2916 
Q 1625 2713 2034 2713 
Q 2441 2713 2670 2916 
Q 2900 3119 2900 3481 
Q 2900 3844 2670 4047 
Q 2441 4250 2034 4250 
Q 1625 4250 1398 4047 
Q 1172 3844 1172 3481 
z
" transform="scale(0.015625)"/>
       </defs>
       <use xlink:href="#DejaVuSans-38"/>
       <use xlink:href="#DejaVuSans-30" transform="translate(63.623047 0)"/>
       <use xlink:href="#DejaVuSans-30" transform="translate(127.246094 0)"/>
      </g>
     </g>
    </g>
    <g id="text_10">
     <!-- Epochs -->
     <g transform="translate(301.6875 604.994688) scale(0.1 -0.1)">
      <defs>
       <path id="DejaVuSans-45" d="M 628 4666 
L 3578 4666 
L 3578 4134 
L 1259 4134 
L 1259 2753 
L 3481 2753 
L 3481 2222 
L 1259 2222 
L 1259 531 
L 3634 531 
L 3634 0 
L 628 0 
L 628 4666 
z
" transform="scale(0.015625)"/>
       <path id="DejaVuSans-70" d="M 1159 525 
L 1159 -1331 
L 581 -1331 
L 581 3500 
L 1159 3500 
L 1159 2969 
Q 1341 3281 1617 3432 
Q 1894 3584 2278 3584 
Q 2916 3584 3314 3078 
Q 3713 2572 3713 1747 
Q 3713 922 3314 415 
Q 2916 -91 2278 -91 
Q 1894 -91 1617 61 
Q 1341 213 1159 525 
z
M 3116 1747 
Q 3116 2381 2855 2742 
Q 2594 3103 2138 3103 
Q 1681 3103 1420 2742 
Q 1159 2381 1159 1747 
Q 1159 1113 1420 752 
Q 1681 391 2138 391 
Q 2594 391 2855 752 
Q 3116 1113 3116 1747 
z
" transform="scale(0.015625)"/>
       <path id="DejaVuSans-6f" d="M 1959 3097 
Q 1497 3097 1228 2736 
Q 959 2375 959 1747 
Q 959 1119 1226 758 
Q 1494 397 1959 397 
Q 2419 397 2687 759 
Q 2956 1122 2956 1747 
Q 2956 2369 2687 2733 
Q 2419 3097 1959 3097 
z
M 1959 3584 
Q 2709 3584 3137 3096 
Q 3566 2609 3566 1747 
Q 3566 888 3137 398 
Q 2709 -91 1959 -91 
Q 1206 -91 779 398 
Q 353 888 353 1747 
Q 353 2609 779 3096 
Q 1206 3584 1959 3584 
z
" transform="scale(0.015625)"/>
       <path id="DejaVuSans-63" d="M 3122 3366 
L 3122 2828 
Q 2878 2963 2633 3030 
Q 2388 3097 2138 3097 
Q 1578 3097 1268 2742 
Q 959 2388 959 1747 
Q 959 1106 1268 751 
Q 1578 397 2138 397 
Q 2388 397 2633 464 
Q 2878 531 3122 666 
L 3122 134 
Q 2881 22 2623 -34 
Q 2366 -91 2075 -91 
Q 1284 -91 818 406 
Q 353 903 353 1747 
Q 353 2603 823 3093 
Q 1294 3584 2113 3584 
Q 2378 3584 2631 3529 
Q 2884 3475 3122 3366 
z
" transform="scale(0.015625)"/>
       <path id="DejaVuSans-68" d="M 3513 2113 
L 3513 0 
L 2938 0 
L 2938 2094 
Q 2938 2591 2744 2837 
Q 2550 3084 2163 3084 
Q 1697 3084 1428 2787 
Q 1159 2491 1159 1978 
L 1159 0 
L 581 0 
L 581 4863 
L 1159 4863 
L 1159 2956 
Q 1366 3272 1645 3428 
Q 1925 3584 2291 3584 
Q 2894 3584 3203 3211 
Q 3513 2838 3513 2113 
z
" transform="scale(0.015625)"/>
       <path id="DejaVuSans-73" d="M 2834 3397 
L 2834 2853 
Q 2591 2978 2328 3040 
Q 2066 3103 1784 3103 
Q 1356 3103 1142 2972 
Q 928 2841 928 2578 
Q 928 2378 1081 2264 
Q 1234 2150 1697 2047 
L 1894 2003 
Q 2506 1872 2764 1633 
Q 3022 1394 3022 966 
Q 3022 478 2636 193 
Q 2250 -91 1575 -91 
Q 1294 -91 989 -36 
Q 684 19 347 128 
L 347 722 
Q 666 556 975 473 
Q 1284 391 1588 391 
Q 1994 391 2212 530 
Q 2431 669 2431 922 
Q 2431 1156 2273 1281 
Q 2116 1406 1581 1522 
L 1381 1569 
Q 847 1681 609 1914 
Q 372 2147 372 2553 
Q 372 3047 722 3315 
Q 1072 3584 1716 3584 
Q 2034 3584 2315 3537 
Q 2597 3491 2834 3397 
z
" transform="scale(0.015625)"/>
      </defs>
      <use xlink:href="#DejaVuSans-45"/>
      <use xlink:href="#DejaVuSans-70" transform="translate(63.183594 0)"/>
      <use xlink:href="#DejaVuSans-6f" transform="translate(126.660156 0)"/>
      <use xlink:href="#DejaVuSans-63" transform="translate(187.841797 0)"/>
      <use xlink:href="#DejaVuSans-68" transform="translate(242.822266 0)"/>
      <use xlink:href="#DejaVuSans-73" transform="translate(306.201172 0)"/>
     </g>
    </g>
   </g>
   <g id="matplotlib.axis_2">
    <g id="ytick_1">
     <g id="line2d_19">
      <path d="M 40.603125 492.205336 
L 598.603125 492.205336 
" clip-path="url(#p80d118345d)" style="fill: none; stroke: #b0b0b0; stroke-width: 0.8; stroke-linecap: square"/>
     </g>
     <g id="line2d_20">
      <defs>
       <path id="m0c93c99730" d="M 0 0 
L -3.5 0 
" style="stroke: #000000; stroke-width: 0.8"/>
      </defs>
      <g>
       <use xlink:href="#m0c93c99730" x="40.603125" y="492.205336" style="stroke: #000000; stroke-width: 0.8"/>
      </g>
     </g>
     <g id="text_11">
      <!-- 4 -->
      <g transform="translate(27.240625 496.004555) scale(0.1 -0.1)">
       <use xlink:href="#DejaVuSans-34"/>
      </g>
     </g>
    </g>
    <g id="ytick_2">
     <g id="line2d_21">
      <path d="M 40.603125 401.682297 
L 598.603125 401.682297 
" clip-path="url(#p80d118345d)" style="fill: none; stroke: #b0b0b0; stroke-width: 0.8; stroke-linecap: square"/>
     </g>
     <g id="line2d_22">
      <g>
       <use xlink:href="#m0c93c99730" x="40.603125" y="401.682297" style="stroke: #000000; stroke-width: 0.8"/>
      </g>
     </g>
     <g id="text_12">
      <!-- 6 -->
      <g transform="translate(27.240625 405.481516) scale(0.1 -0.1)">
       <use xlink:href="#DejaVuSans-36"/>
      </g>
     </g>
    </g>
    <g id="ytick_3">
     <g id="line2d_23">
      <path d="M 40.603125 311.159258 
L 598.603125 311.159258 
" clip-path="url(#p80d118345d)" style="fill: none; stroke: #b0b0b0; stroke-width: 0.8; stroke-linecap: square"/>
     </g>
     <g id="line2d_24">
      <g>
       <use xlink:href="#m0c93c99730" x="40.603125" y="311.159258" style="stroke: #000000; stroke-width: 0.8"/>
      </g>
     </g>
     <g id="text_13">
      <!-- 8 -->
      <g transform="translate(27.240625 314.958477) scale(0.1 -0.1)">
       <use xlink:href="#DejaVuSans-38"/>
      </g>
     </g>
    </g>
    <g id="ytick_4">
     <g id="line2d_25">
      <path d="M 40.603125 220.63622 
L 598.603125 220.63622 
" clip-path="url(#p80d118345d)" style="fill: none; stroke: #b0b0b0; stroke-width: 0.8; stroke-linecap: square"/>
     </g>
     <g id="line2d_26">
      <g>
       <use xlink:href="#m0c93c99730" x="40.603125" y="220.63622" style="stroke: #000000; stroke-width: 0.8"/>
      </g>
     </g>
     <g id="text_14">
      <!-- 10 -->
      <g transform="translate(20.878125 224.435438) scale(0.1 -0.1)">
       <use xlink:href="#DejaVuSans-31"/>
       <use xlink:href="#DejaVuSans-30" transform="translate(63.623047 0)"/>
      </g>
     </g>
    </g>
    <g id="ytick_5">
     <g id="line2d_27">
      <path d="M 40.603125 130.113181 
L 598.603125 130.113181 
" clip-path="url(#p80d118345d)" style="fill: none; stroke: #b0b0b0; stroke-width: 0.8; stroke-linecap: square"/>
     </g>
     <g id="line2d_28">
      <g>
       <use xlink:href="#m0c93c99730" x="40.603125" y="130.113181" style="stroke: #000000; stroke-width: 0.8"/>
      </g>
     </g>
     <g id="text_15">
      <!-- 12 -->
      <g transform="translate(20.878125 133.9124) scale(0.1 -0.1)">
       <use xlink:href="#DejaVuSans-31"/>
       <use xlink:href="#DejaVuSans-32" transform="translate(63.623047 0)"/>
      </g>
     </g>
    </g>
    <g id="ytick_6">
     <g id="line2d_29">
      <path d="M 40.603125 39.590142 
L 598.603125 39.590142 
" clip-path="url(#p80d118345d)" style="fill: none; stroke: #b0b0b0; stroke-width: 0.8; stroke-linecap: square"/>
     </g>
     <g id="line2d_30">
      <g>
       <use xlink:href="#m0c93c99730" x="40.603125" y="39.590142" style="stroke: #000000; stroke-width: 0.8"/>
      </g>
     </g>
     <g id="text_16">
      <!-- 14 -->
      <g transform="translate(20.878125 43.389361) scale(0.1 -0.1)">
       <use xlink:href="#DejaVuSans-31"/>
       <use xlink:href="#DejaVuSans-34" transform="translate(63.623047 0)"/>
      </g>
     </g>
    </g>
    <g id="text_17">
     <!-- Loss -->
     <g transform="translate(14.798437 310.485313) rotate(-90) scale(0.1 -0.1)">
      <defs>
       <path id="DejaVuSans-4c" d="M 628 4666 
L 1259 4666 
L 1259 531 
L 3531 531 
L 3531 0 
L 628 0 
L 628 4666 
z
" transform="scale(0.015625)"/>
      </defs>
      <use xlink:href="#DejaVuSans-4c"/>
      <use xlink:href="#DejaVuSans-6f" transform="translate(53.962891 0)"/>
      <use xlink:href="#DejaVuSans-73" transform="translate(115.144531 0)"/>
      <use xlink:href="#DejaVuSans-73" transform="translate(167.244141 0)"/>
     </g>
    </g>
   </g>
   <g id="line2d_31">
    <path d="M 65.966761 421.93224 
L 66.601646 422.270652 
L 75.490029 423.987918 
L 79.299336 425.093432 
L 83.108643 426.479755 
L 85.013297 427.340654 
L 86.283066 428.057901 
L 87.552835 429.002928 
L 89.457488 430.834236 
L 91.362142 432.630926 
L 93.90168 434.67087 
L 96.441218 436.413819 
L 100.88541 439.167709 
L 107.234255 442.812993 
L 125.645906 452.716951 
L 143.422672 461.189738 
L 152.311055 465.054644 
L 161.834323 468.963946 
L 176.436667 474.559738 
L 187.229704 478.432501 
L 198.657625 482.328961 
L 210.720431 486.217997 
L 232.306504 492.7365 
L 236.115811 493.802076 
L 252.622809 498.357694 
L 286.906572 507.003302 
L 298.334494 509.670484 
L 326.904297 515.97353 
L 330.078719 516.644235 
L 360.553176 522.665696 
L 370.711328 524.53133 
L 374.520636 525.24125 
L 380.234596 526.24605 
L 390.392748 528.008909 
L 398.646247 529.369753 
L 413.248591 531.72821 
L 419.597436 532.696687 
L 427.850935 533.966432 
L 430.390473 534.324073 
L 442.453279 536.102191 
L 450.071893 537.136915 
L 453.246315 537.590738 
L 457.055622 538.108489 
L 498.958 543.488025 
L 524.988266 546.493759 
L 528.162688 546.81647 
L 564.98599 550.691088 
L 573.239489 551.518125 
L 573.239489 551.518125 
" clip-path="url(#p80d118345d)" style="fill: none; stroke: #1f77b4; stroke-width: 1.5; stroke-linecap: square"/>
   </g>
   <g id="line2d_32">
    <path d="M 65.966761 422.169992 
L 67.871415 422.191358 
L 71.680722 422.051699 
L 77.394683 421.616382 
L 79.934221 421.313236 
L 86.283066 420.669974 
L 87.552835 420.85869 
L 88.187719 421.008342 
L 89.457488 421.52196 
L 91.997026 422.23912 
L 93.266795 422.479159 
L 97.076103 422.473829 
L 100.250525 422.097907 
L 101.520294 421.909795 
L 104.059832 421.568642 
L 105.964486 421.140275 
L 114.852869 419.077626 
L 115.487754 418.701035 
L 116.122638 418.751409 
L 123.106368 416.603013 
L 123.741252 416.341844 
L 124.376137 416.23704 
L 125.011021 415.838263 
L 125.645906 415.889845 
L 126.28079 415.659755 
L 126.915675 415.563174 
L 127.550559 415.157641 
L 128.185444 415.049147 
L 128.820328 414.734519 
L 129.455213 414.787244 
L 130.090097 414.323267 
L 130.724982 414.282066 
L 131.359866 413.892115 
L 131.994751 413.651472 
L 132.629635 413.563027 
L 135.804058 412.260855 
L 137.073827 411.927623 
L 137.708712 411.498328 
L 140.883134 410.458295 
L 141.518019 410.007245 
L 142.787788 409.57482 
L 143.422672 409.509383 
L 145.327326 408.609398 
L 145.96221 408.478306 
L 147.231979 407.827727 
L 149.771517 406.848815 
L 151.676171 405.72241 
L 152.311055 405.749776 
L 153.580824 405.051889 
L 154.215709 404.90528 
L 154.850593 404.621428 
L 155.485478 404.141544 
L 156.755247 403.797413 
L 157.390131 403.556273 
L 158.025016 403.078267 
L 158.659901 403.025584 
L 159.294785 402.610037 
L 159.92967 402.334646 
L 160.564554 401.92866 
L 163.738977 400.591481 
L 164.373861 400.235134 
L 165.64363 400.016462 
L 166.913399 399.186857 
L 168.183168 398.86856 
L 168.818053 398.264815 
L 170.722706 397.631825 
L 171.357591 397.184358 
L 171.992475 396.928132 
L 172.62736 396.804271 
L 173.897129 395.932645 
L 174.532013 395.880739 
L 175.801782 394.980905 
L 176.436667 394.689953 
L 177.071551 394.663018 
L 177.706436 394.13056 
L 178.34132 393.963987 
L 179.61109 393.096332 
L 181.515743 392.363589 
L 182.150628 391.866763 
L 183.420397 391.575099 
L 184.055281 391.020583 
L 184.690166 391.025266 
L 185.32505 390.438398 
L 185.959935 390.353277 
L 186.594819 390.080519 
L 187.229704 389.618246 
L 187.864588 389.55747 
L 188.499473 389.069687 
L 189.134357 388.404152 
L 192.30878 387.197977 
L 192.943664 386.954938 
L 193.578549 386.307748 
L 194.213433 386.244598 
L 194.848318 385.570537 
L 196.118087 385.247233 
L 196.752971 384.779629 
L 197.387856 384.656178 
L 198.02274 384.338464 
L 198.657625 383.768409 
L 199.292509 383.624217 
L 199.927394 383.257165 
L 200.562278 382.614183 
L 201.197163 382.509444 
L 201.832048 382.27957 
L 203.101817 381.559388 
L 203.736701 380.824379 
L 204.371586 380.958923 
L 205.641355 380.043701 
L 206.276239 380.097592 
L 208.180893 378.966891 
L 208.815777 378.660163 
L 209.450662 378.041504 
L 210.085546 377.863147 
L 210.720431 377.328573 
L 211.355315 377.245222 
L 211.9902 376.670419 
L 213.259969 376.285907 
L 213.894853 375.723751 
L 214.529738 375.449957 
L 215.799507 374.568253 
L 218.339045 373.340906 
L 218.973929 373.079457 
L 219.608814 372.680615 
L 220.243698 372.067222 
L 220.878583 371.905872 
L 222.148352 371.183877 
L 222.783237 370.576355 
L 223.418121 370.586218 
L 224.053006 370.284626 
L 224.68789 369.381512 
L 225.322775 369.52402 
L 225.957659 368.985259 
L 226.592544 368.716062 
L 227.227428 368.130079 
L 227.862313 368.304184 
L 228.497197 367.593088 
L 229.766966 366.795576 
L 231.036735 366.273002 
L 231.67162 365.928461 
L 233.576273 364.54229 
L 234.211158 364.119405 
L 234.846042 364.207288 
L 235.480927 363.503401 
L 236.115811 363.369979 
L 236.750696 363.032387 
L 237.38558 362.358585 
L 238.020465 362.270961 
L 238.655349 361.95588 
L 239.290234 361.496477 
L 239.925118 360.705095 
L 240.560003 360.620902 
L 241.194887 360.091767 
L 241.829772 360.101004 
L 242.464656 359.735485 
L 243.099541 359.219278 
L 243.734425 358.159821 
L 244.36931 358.562505 
L 245.004195 358.382486 
L 245.639079 357.602564 
L 246.908848 356.911194 
L 247.543733 356.383268 
L 248.178617 356.250558 
L 249.448386 354.943421 
L 250.083271 355.022369 
L 250.718155 354.491443 
L 251.35304 354.20962 
L 252.622809 352.704163 
L 253.257693 352.634366 
L 253.892578 352.190136 
L 254.527462 352.458232 
L 255.162347 351.668598 
L 255.797231 351.17639 
L 256.432116 350.193702 
L 257.067 349.979324 
L 257.701885 349.945914 
L 258.336769 349.793672 
L 258.971654 349.341478 
L 259.606538 348.482327 
L 260.241423 348.373034 
L 260.876307 348.113139 
L 261.511192 347.356483 
L 262.146076 347.243477 
L 262.780961 346.299098 
L 263.415845 346.477454 
L 264.05073 345.770308 
L 264.685614 345.377897 
L 265.320499 345.221058 
L 266.590268 343.826944 
L 267.225153 343.988424 
L 267.860037 343.415131 
L 268.494922 342.450377 
L 269.129806 342.050672 
L 269.764691 342.04342 
L 270.399575 341.906005 
L 271.03446 340.338823 
L 272.304229 340.694694 
L 272.939113 340.150948 
L 273.573998 339.06147 
L 274.208882 338.987593 
L 274.843767 337.861619 
L 275.478651 338.198736 
L 276.113536 338.306626 
L 276.74842 337.029425 
L 277.383305 336.867384 
L 278.018189 336.253517 
L 278.653074 335.906817 
L 279.287958 335.746201 
L 279.922843 335.40766 
L 280.557727 334.442712 
L 281.192612 334.379864 
L 281.827496 334.630436 
L 282.462381 333.270358 
L 284.367034 331.779663 
L 285.001919 331.526545 
L 285.636803 330.894203 
L 286.271688 330.937951 
L 287.541457 329.075651 
L 288.176342 329.062809 
L 288.811226 328.282822 
L 289.446111 328.518329 
L 290.080995 327.604531 
L 290.71588 327.654473 
L 291.350764 326.673209 
L 291.985649 326.574879 
L 292.620533 325.661729 
L 293.890302 325.100803 
L 294.525187 324.772039 
L 295.160071 323.957585 
L 295.794956 322.859474 
L 296.42984 323.039989 
L 297.064725 322.251131 
L 297.699609 321.971877 
L 298.334494 321.533582 
L 298.969378 320.91283 
L 299.604263 320.663834 
L 300.239147 320.697653 
L 300.874032 319.669016 
L 301.508916 319.431049 
L 302.143801 318.968754 
L 304.048454 317.064088 
L 304.683339 316.79679 
L 306.587992 315.001547 
L 307.222877 314.853837 
L 307.857761 314.061332 
L 308.492646 313.026868 
L 309.127531 313.234749 
L 309.762415 311.541612 
L 310.3973 312.893122 
L 311.032184 311.743407 
L 311.667069 311.184057 
L 312.301953 310.304769 
L 312.936838 309.885942 
L 313.571722 309.105868 
L 314.206607 309.413072 
L 315.476376 308.311766 
L 316.11126 307.310042 
L 316.746145 307.09206 
L 317.381029 306.113083 
L 318.015914 306.002021 
L 318.650798 305.136611 
L 319.920567 304.401947 
L 320.555452 304.275085 
L 321.190336 302.703759 
L 321.825221 302.598869 
L 322.460105 302.010792 
L 323.09499 302.025641 
L 323.729874 301.375191 
L 324.364759 301.082923 
L 324.999643 300.364791 
L 325.634528 300.117198 
L 326.269412 298.524937 
L 326.904297 298.859809 
L 328.174066 297.052285 
L 328.80895 296.926546 
L 329.443835 296.015122 
L 330.078719 296.055611 
L 330.713604 294.414099 
L 331.348489 295.163611 
L 331.983373 293.674039 
L 332.618258 294.031486 
L 333.253142 293.700801 
L 333.888027 292.557798 
L 334.522911 291.919867 
L 335.157796 291.87368 
L 335.79268 290.819468 
L 336.427565 290.589874 
L 337.062449 289.959928 
L 337.697334 289.014534 
L 338.332218 288.594325 
L 338.967103 289.163797 
L 339.601987 287.561867 
L 340.236872 286.859577 
L 340.871756 286.597869 
L 341.506641 286.020282 
L 342.141525 284.426553 
L 342.77641 284.352698 
L 343.411294 284.54491 
L 344.046179 283.727931 
L 344.681063 282.700956 
L 345.315948 282.998965 
L 345.950832 281.182333 
L 346.585717 281.564169 
L 347.855486 280.937028 
L 348.49037 279.443485 
L 349.125255 278.36251 
L 349.760139 278.26936 
L 350.395024 278.02017 
L 351.029908 276.578122 
L 351.664793 277.058071 
L 352.299678 275.446904 
L 352.934562 275.01953 
L 353.569447 274.978135 
L 354.204331 274.133271 
L 354.839216 274.681161 
L 355.4741 272.954873 
L 356.108985 271.844892 
L 356.743869 271.516796 
L 357.378754 270.875886 
L 358.013638 270.963338 
L 359.283407 268.911847 
L 360.553176 267.755895 
L 361.188061 268.499149 
L 361.822945 266.109203 
L 362.45783 267.626142 
L 363.092714 265.723958 
L 363.727599 265.799539 
L 364.997368 264.030864 
L 366.267137 262.512544 
L 366.902021 262.607549 
L 367.536906 261.775765 
L 368.17179 261.317398 
L 368.806675 261.184882 
L 369.441559 259.310928 
L 370.076444 258.875611 
L 370.711328 258.696823 
L 371.346213 257.261725 
L 371.981097 256.965528 
L 372.615982 257.525634 
L 373.250866 255.414058 
L 373.885751 255.730714 
L 374.520636 254.19625 
L 375.15552 254.250983 
L 375.790405 253.928974 
L 377.060174 252.149335 
L 377.695058 250.71933 
L 378.329943 250.306545 
L 378.964827 250.644396 
L 379.599712 250.525909 
L 380.234596 249.767979 
L 380.869481 248.754039 
L 381.504365 246.925537 
L 382.13925 247.311085 
L 382.774134 245.97151 
L 383.409019 245.672292 
L 384.043903 244.76199 
L 384.678788 244.264689 
L 385.313672 244.466743 
L 385.948557 242.954467 
L 386.583441 242.991675 
L 388.488095 241.510001 
L 389.122979 239.999796 
L 389.757864 237.988017 
L 390.392748 239.838964 
L 391.662517 237.555981 
L 392.297402 236.023719 
L 392.932286 236.489121 
L 393.567171 235.815492 
L 394.202055 234.926255 
L 394.83694 233.544336 
L 395.471825 233.797885 
L 396.106709 233.124386 
L 396.741594 232.800046 
L 397.376478 231.717603 
L 398.011363 230.098753 
L 398.646247 231.096419 
L 399.281132 229.936065 
L 399.916016 229.456677 
L 400.550901 228.753869 
L 401.185785 228.239517 
L 401.82067 227.524062 
L 403.090439 224.922263 
L 403.725323 225.592828 
L 404.360208 225.107699 
L 404.995092 224.474343 
L 405.629977 223.560372 
L 406.264861 221.79597 
L 406.899746 222.11103 
L 408.169515 220.71124 
L 408.804399 219.598712 
L 409.439284 218.791056 
L 410.709053 217.778066 
L 411.343937 217.377842 
L 411.978822 216.350219 
L 412.613706 216.145834 
L 413.883475 214.28703 
L 414.51836 213.302313 
L 415.153244 212.909989 
L 415.788129 213.886893 
L 416.423013 211.759993 
L 417.057898 211.227815 
L 417.692783 210.996582 
L 418.327667 209.846112 
L 418.962552 209.384594 
L 419.597436 208.273015 
L 420.232321 208.584276 
L 420.867205 206.670697 
L 421.50209 206.270991 
L 422.136974 206.782882 
L 422.771859 205.404416 
L 423.406743 204.805289 
L 424.041628 203.776069 
L 424.676512 203.304408 
L 425.311397 202.150139 
L 425.946281 202.011839 
L 426.581166 201.615544 
L 427.21605 199.576311 
L 427.850935 200.159554 
L 429.755588 197.187747 
L 430.390473 196.042413 
L 431.025357 197.160596 
L 431.660242 196.216065 
L 432.295126 195.063998 
L 432.930011 195.083293 
L 433.564895 193.602742 
L 434.19978 193.871227 
L 434.834664 193.815674 
L 435.469549 192.304994 
L 436.104433 189.864243 
L 436.739318 190.398666 
L 437.374202 190.05119 
L 438.009087 188.593948 
L 438.643972 189.142485 
L 439.278856 187.691718 
L 440.548625 187.014895 
L 441.18351 185.809044 
L 441.818394 185.567753 
L 442.453279 184.660689 
L 443.088163 184.854111 
L 443.723048 182.76416 
L 444.357932 183.122988 
L 444.992817 182.268801 
L 445.627701 181.204963 
L 446.262586 181.63579 
L 446.89747 180.378919 
L 447.532355 178.101331 
L 448.167239 179.14704 
L 448.802124 177.645252 
L 449.437008 177.259316 
L 450.706777 174.753948 
L 451.341662 176.150155 
L 451.976546 173.314706 
L 452.611431 175.339176 
L 453.246315 173.327569 
L 453.8812 173.171226 
L 454.516084 171.021017 
L 455.150969 172.528891 
L 455.785853 170.098759 
L 456.420738 170.175808 
L 457.055622 168.478916 
L 457.690507 167.528299 
L 458.325391 168.009758 
L 458.960276 167.052493 
L 459.59516 167.715029 
L 460.230045 165.979418 
L 461.499814 164.221361 
L 462.134699 164.09178 
L 462.769583 164.377401 
L 463.404468 162.171985 
L 464.039352 161.827012 
L 464.674237 162.546828 
L 465.309121 161.654483 
L 465.944006 160.338044 
L 466.57889 159.801377 
L 467.213775 158.109535 
L 467.848659 157.969249 
L 468.483544 155.618756 
L 469.118428 157.435819 
L 469.753313 156.741903 
L 470.388197 155.230791 
L 471.023082 156.046087 
L 471.657966 153.43613 
L 472.292851 155.071254 
L 472.927735 151.981522 
L 473.56262 151.220052 
L 474.197504 152.019248 
L 474.832389 150.000475 
L 475.467273 151.226527 
L 476.102158 148.656282 
L 476.737042 147.456561 
L 477.371927 146.982267 
L 478.006811 147.713348 
L 478.641696 145.019479 
L 479.27658 145.717324 
L 479.911465 143.600352 
L 480.546349 144.552437 
L 481.181234 144.950588 
L 481.816119 141.431971 
L 482.451003 142.131801 
L 483.085888 142.22249 
L 483.720772 140.080137 
L 484.355657 139.783941 
L 484.990541 140.394376 
L 485.625426 138.357389 
L 486.26031 137.425937 
L 486.895195 137.121668 
L 487.530079 137.484857 
L 488.164964 137.307752 
L 488.799848 135.220736 
L 489.434733 135.101688 
L 490.069617 134.392922 
L 490.704502 132.889019 
L 491.339386 133.352868 
L 491.974271 132.285878 
L 493.24404 131.379289 
L 493.878924 129.814438 
L 494.513809 130.001729 
L 495.148693 130.312429 
L 495.783578 129.116766 
L 496.418462 126.933061 
L 497.688231 126.278166 
L 498.323116 124.201337 
L 498.958 125.023927 
L 499.592885 124.426873 
L 500.862654 123.816912 
L 502.132423 121.634631 
L 502.767308 122.457826 
L 503.402192 120.871953 
L 504.037077 120.438579 
L 504.671961 118.577574 
L 505.306846 117.617677 
L 505.94173 117.399522 
L 506.576615 117.705949 
L 507.211499 115.450504 
L 507.846384 115.419944 
L 508.481268 113.986572 
L 509.116153 115.522676 
L 509.751037 114.581468 
L 511.020806 111.89852 
L 511.655691 111.730696 
L 512.290575 110.945054 
L 512.92546 109.753966 
L 513.560344 109.440633 
L 514.195229 110.194721 
L 514.830113 108.692545 
L 515.464998 108.314681 
L 516.099882 107.367128 
L 516.734767 104.861069 
L 517.369651 105.608165 
L 518.004536 104.770639 
L 518.63942 104.36489 
L 519.274305 105.454843 
L 519.909189 102.092007 
L 520.544074 103.366878 
L 521.178958 103.125415 
L 521.813843 101.637871 
L 522.448727 102.272824 
L 523.083612 98.375738 
L 523.718496 98.37017 
L 524.353381 98.535405 
L 524.988266 96.644098 
L 525.62315 96.861648 
L 526.258035 95.955491 
L 526.892919 95.944613 
L 527.527804 96.240982 
L 528.162688 95.348033 
L 528.797573 92.394831 
L 529.432457 92.649848 
L 530.067342 93.041698 
L 530.702226 93.988732 
L 531.337111 92.89947 
L 531.971995 90.152292 
L 532.60688 88.865249 
L 533.241764 90.553077 
L 533.876649 88.70977 
L 534.511533 88.615239 
L 535.146418 88.690389 
L 535.781302 87.926977 
L 536.416187 83.89539 
L 537.051071 86.719659 
L 537.685956 86.045728 
L 538.32084 83.799564 
L 538.955725 84.123256 
L 539.590609 84.268635 
L 540.225494 82.755883 
L 540.860378 80.398829 
L 541.495263 82.653453 
L 542.130147 78.666196 
L 542.765032 79.915816 
L 543.399916 79.532987 
L 544.034801 79.546584 
L 544.669685 78.61496 
L 545.30457 76.043679 
L 545.939455 75.466954 
L 546.574339 77.418735 
L 547.209224 76.351616 
L 547.844108 74.79216 
L 548.478993 74.548883 
L 549.113877 73.687747 
L 549.748762 73.125483 
L 550.383646 72.897875 
L 551.018531 69.947133 
L 551.653415 70.932454 
L 552.2883 69.875566 
L 552.923184 69.123765 
L 553.558069 69.985161 
L 554.192953 67.719184 
L 554.827838 69.716849 
L 555.462722 66.998247 
L 556.097607 64.894526 
L 556.732491 66.190979 
L 557.367376 65.190291 
L 558.00226 63.626216 
L 558.637145 62.911063 
L 559.272029 60.589922 
L 559.906914 62.695843 
L 560.541798 61.090978 
L 561.176683 61.672882 
L 561.811567 60.913182 
L 562.446452 60.971196 
L 563.081336 56.573096 
L 563.716221 57.086757 
L 564.351105 55.985408 
L 564.98599 56.799496 
L 565.620874 56.617297 
L 566.255759 57.181029 
L 566.890643 55.212846 
L 567.525528 54.028621 
L 568.160413 50.291503 
L 568.795297 52.074466 
L 570.065066 53.464717 
L 570.699951 49.98171 
L 571.334835 52.246521 
L 571.96972 51.848887 
L 572.604604 50.098471 
L 573.239489 47.518125 
L 573.239489 47.518125 
" clip-path="url(#p80d118345d)" style="fill: none; stroke: #ff7f0e; stroke-width: 1.5; stroke-linecap: square"/>
   </g>
   <g id="patch_3">
    <path d="M 40.603125 576.718125 
L 40.603125 22.318125 
" style="fill: none; stroke: #000000; stroke-width: 0.8; stroke-linejoin: miter; stroke-linecap: square"/>
   </g>
   <g id="patch_4">
    <path d="M 598.603125 576.718125 
L 598.603125 22.318125 
" style="fill: none; stroke: #000000; stroke-width: 0.8; stroke-linejoin: miter; stroke-linecap: square"/>
   </g>
   <g id="patch_5">
    <path d="M 40.603125 576.718125 
L 598.603125 576.718125 
" style="fill: none; stroke: #000000; stroke-width: 0.8; stroke-linejoin: miter; stroke-linecap: square"/>
   </g>
   <g id="patch_6">
    <path d="M 40.603125 22.318125 
L 598.603125 22.318125 
" style="fill: none; stroke: #000000; stroke-width: 0.8; stroke-linejoin: miter; stroke-linecap: square"/>
   </g>
   <g id="text_18">
    <!-- Train and Val Loss -->
    <g transform="translate(266.057812 16.318125) scale(0.12 -0.12)">
     <defs>
      <path id="DejaVuSans-54" d="M -19 4666 
L 3928 4666 
L 3928 4134 
L 2272 4134 
L 2272 0 
L 1638 0 
L 1638 4134 
L -19 4134 
L -19 4666 
z
" transform="scale(0.015625)"/>
      <path id="DejaVuSans-72" d="M 2631 2963 
Q 2534 3019 2420 3045 
Q 2306 3072 2169 3072 
Q 1681 3072 1420 2755 
Q 1159 2438 1159 1844 
L 1159 0 
L 581 0 
L 581 3500 
L 1159 3500 
L 1159 2956 
Q 1341 3275 1631 3429 
Q 1922 3584 2338 3584 
Q 2397 3584 2469 3576 
Q 2541 3569 2628 3553 
L 2631 2963 
z
" transform="scale(0.015625)"/>
      <path id="DejaVuSans-61" d="M 2194 1759 
Q 1497 1759 1228 1600 
Q 959 1441 959 1056 
Q 959 750 1161 570 
Q 1363 391 1709 391 
Q 2188 391 2477 730 
Q 2766 1069 2766 1631 
L 2766 1759 
L 2194 1759 
z
M 3341 1997 
L 3341 0 
L 2766 0 
L 2766 531 
Q 2569 213 2275 61 
Q 1981 -91 1556 -91 
Q 1019 -91 701 211 
Q 384 513 384 1019 
Q 384 1609 779 1909 
Q 1175 2209 1959 2209 
L 2766 2209 
L 2766 2266 
Q 2766 2663 2505 2880 
Q 2244 3097 1772 3097 
Q 1472 3097 1187 3025 
Q 903 2953 641 2809 
L 641 3341 
Q 956 3463 1253 3523 
Q 1550 3584 1831 3584 
Q 2591 3584 2966 3190 
Q 3341 2797 3341 1997 
z
" transform="scale(0.015625)"/>
      <path id="DejaVuSans-69" d="M 603 3500 
L 1178 3500 
L 1178 0 
L 603 0 
L 603 3500 
z
M 603 4863 
L 1178 4863 
L 1178 4134 
L 603 4134 
L 603 4863 
z
" transform="scale(0.015625)"/>
      <path id="DejaVuSans-6e" d="M 3513 2113 
L 3513 0 
L 2938 0 
L 2938 2094 
Q 2938 2591 2744 2837 
Q 2550 3084 2163 3084 
Q 1697 3084 1428 2787 
Q 1159 2491 1159 1978 
L 1159 0 
L 581 0 
L 581 3500 
L 1159 3500 
L 1159 2956 
Q 1366 3272 1645 3428 
Q 1925 3584 2291 3584 
Q 2894 3584 3203 3211 
Q 3513 2838 3513 2113 
z
" transform="scale(0.015625)"/>
      <path id="DejaVuSans-20" transform="scale(0.015625)"/>
      <path id="DejaVuSans-64" d="M 2906 2969 
L 2906 4863 
L 3481 4863 
L 3481 0 
L 2906 0 
L 2906 525 
Q 2725 213 2448 61 
Q 2172 -91 1784 -91 
Q 1150 -91 751 415 
Q 353 922 353 1747 
Q 353 2572 751 3078 
Q 1150 3584 1784 3584 
Q 2172 3584 2448 3432 
Q 2725 3281 2906 2969 
z
M 947 1747 
Q 947 1113 1208 752 
Q 1469 391 1925 391 
Q 2381 391 2643 752 
Q 2906 1113 2906 1747 
Q 2906 2381 2643 2742 
Q 2381 3103 1925 3103 
Q 1469 3103 1208 2742 
Q 947 2381 947 1747 
z
" transform="scale(0.015625)"/>
      <path id="DejaVuSans-56" d="M 1831 0 
L 50 4666 
L 709 4666 
L 2188 738 
L 3669 4666 
L 4325 4666 
L 2547 0 
L 1831 0 
z
" transform="scale(0.015625)"/>
      <path id="DejaVuSans-6c" d="M 603 4863 
L 1178 4863 
L 1178 0 
L 603 0 
L 603 4863 
z
" transform="scale(0.015625)"/>
     </defs>
     <use xlink:href="#DejaVuSans-54"/>
     <use xlink:href="#DejaVuSans-72" transform="translate(46.333984 0)"/>
     <use xlink:href="#DejaVuSans-61" transform="translate(87.447266 0)"/>
     <use xlink:href="#DejaVuSans-69" transform="translate(148.726562 0)"/>
     <use xlink:href="#DejaVuSans-6e" transform="translate(176.509766 0)"/>
     <use xlink:href="#DejaVuSans-20" transform="translate(239.888672 0)"/>
     <use xlink:href="#DejaVuSans-61" transform="translate(271.675781 0)"/>
     <use xlink:href="#DejaVuSans-6e" transform="translate(332.955078 0)"/>
     <use xlink:href="#DejaVuSans-64" transform="translate(396.333984 0)"/>
     <use xlink:href="#DejaVuSans-20" transform="translate(459.810547 0)"/>
     <use xlink:href="#DejaVuSans-56" transform="translate(491.597656 0)"/>
     <use xlink:href="#DejaVuSans-61" transform="translate(552.255859 0)"/>
     <use xlink:href="#DejaVuSans-6c" transform="translate(613.535156 0)"/>
     <use xlink:href="#DejaVuSans-20" transform="translate(641.318359 0)"/>
     <use xlink:href="#DejaVuSans-4c" transform="translate(673.105469 0)"/>
     <use xlink:href="#DejaVuSans-6f" transform="translate(727.068359 0)"/>
     <use xlink:href="#DejaVuSans-73" transform="translate(788.25 0)"/>
     <use xlink:href="#DejaVuSans-73" transform="translate(840.349609 0)"/>
    </g>
   </g>
   <g id="legend_1">
    <g id="patch_7">
     <path d="M 47.603125 60.230625 
L 127.19375 60.230625 
Q 129.19375 60.230625 129.19375 58.230625 
L 129.19375 29.318125 
Q 129.19375 27.318125 127.19375 27.318125 
L 47.603125 27.318125 
Q 45.603125 27.318125 45.603125 29.318125 
L 45.603125 58.230625 
Q 45.603125 60.230625 47.603125 60.230625 
z
" style="fill: #ffffff; opacity: 0.8; stroke: #cccccc; stroke-linejoin: miter"/>
    </g>
    <g id="line2d_33">
     <path d="M 49.603125 35.416563 
L 59.603125 35.416563 
L 69.603125 35.416563 
" style="fill: none; stroke: #1f77b4; stroke-width: 1.5; stroke-linecap: square"/>
    </g>
    <g id="text_19">
     <!-- train_loss -->
     <g transform="translate(77.603125 38.916563) scale(0.1 -0.1)">
      <defs>
       <path id="DejaVuSans-74" d="M 1172 4494 
L 1172 3500 
L 2356 3500 
L 2356 3053 
L 1172 3053 
L 1172 1153 
Q 1172 725 1289 603 
Q 1406 481 1766 481 
L 2356 481 
L 2356 0 
L 1766 0 
Q 1100 0 847 248 
Q 594 497 594 1153 
L 594 3053 
L 172 3053 
L 172 3500 
L 594 3500 
L 594 4494 
L 1172 4494 
z
" transform="scale(0.015625)"/>
       <path id="DejaVuSans-5f" d="M 3263 -1063 
L 3263 -1509 
L -63 -1509 
L -63 -1063 
L 3263 -1063 
z
" transform="scale(0.015625)"/>
      </defs>
      <use xlink:href="#DejaVuSans-74"/>
      <use xlink:href="#DejaVuSans-72" transform="translate(39.208984 0)"/>
      <use xlink:href="#DejaVuSans-61" transform="translate(80.322266 0)"/>
      <use xlink:href="#DejaVuSans-69" transform="translate(141.601562 0)"/>
      <use xlink:href="#DejaVuSans-6e" transform="translate(169.384766 0)"/>
      <use xlink:href="#DejaVuSans-5f" transform="translate(232.763672 0)"/>
      <use xlink:href="#DejaVuSans-6c" transform="translate(282.763672 0)"/>
      <use xlink:href="#DejaVuSans-6f" transform="translate(310.546875 0)"/>
      <use xlink:href="#DejaVuSans-73" transform="translate(371.728516 0)"/>
      <use xlink:href="#DejaVuSans-73" transform="translate(423.828125 0)"/>
     </g>
    </g>
    <g id="line2d_34">
     <path d="M 49.603125 50.372813 
L 59.603125 50.372813 
L 69.603125 50.372813 
" style="fill: none; stroke: #ff7f0e; stroke-width: 1.5; stroke-linecap: square"/>
    </g>
    <g id="text_20">
     <!-- val_loss -->
     <g transform="translate(77.603125 53.872813) scale(0.1 -0.1)">
      <defs>
       <path id="DejaVuSans-76" d="M 191 3500 
L 800 3500 
L 1894 563 
L 2988 3500 
L 3597 3500 
L 2284 0 
L 1503 0 
L 191 3500 
z
" transform="scale(0.015625)"/>
      </defs>
      <use xlink:href="#DejaVuSans-76"/>
      <use xlink:href="#DejaVuSans-61" transform="translate(59.179688 0)"/>
      <use xlink:href="#DejaVuSans-6c" transform="translate(120.458984 0)"/>
      <use xlink:href="#DejaVuSans-5f" transform="translate(148.242188 0)"/>
      <use xlink:href="#DejaVuSans-6c" transform="translate(198.242188 0)"/>
      <use xlink:href="#DejaVuSans-6f" transform="translate(226.025391 0)"/>
      <use xlink:href="#DejaVuSans-73" transform="translate(287.207031 0)"/>
      <use xlink:href="#DejaVuSans-73" transform="translate(339.306641 0)"/>
     </g>
    </g>
   </g>
  </g>
 </g>
 <defs>
  <clipPath id="p80d118345d">
   <rect x="40.603125" y="22.318125" width="558" height="554.4"/>
  </clipPath>
 </defs>
</svg>
