<?xml version="1.0" encoding="utf-8" standalone="no"?>
<!DOCTYPE svg PUBLIC "-//W3C//DTD SVG 1.1//EN"
  "http://www.w3.org/Graphics/SVG/1.1/DTD/svg11.dtd">
<svg xmlns:xlink="http://www.w3.org/1999/xlink" width="615.34375pt" height="614.274375pt" viewBox="0 0 615.34375 614.274375" xmlns="http://www.w3.org/2000/svg" version="1.1">
 <metadata>
  <rdf:RDF xmlns:dc="http://purl.org/dc/elements/1.1/" xmlns:cc="http://creativecommons.org/ns#" xmlns:rdf="http://www.w3.org/1999/02/22-rdf-syntax-ns#">
   <cc:Work>
    <dc:type rdf:resource="http://purl.org/dc/dcmitype/StillImage"/>
    <dc:date>2026-05-23T15:20:28.067914</dc:date>
    <dc:format>image/svg+xml</dc:format>
    <dc:creator>
     <cc:Agent>
      <dc:title>Matplotlib v3.10.9, https://matplotlib.org/</dc:title>
     </cc:Agent>
    </dc:creator>
   </cc:Work>
  </rdf:RDF>
 </metadata>
 <defs>
  <style type="text/css">*{stroke-linejoin: round; stroke-linecap: butt}</style>
 </defs>
 <g id="figure_1">
  <g id="patch_1">
   <path d="M 0 614.274375 
L 615.34375 614.274375 
L 615.34375 0 
L 0 0 
z
" style="fill: #ffffff"/>
  </g>
  <g id="axes_1">
   <g id="patch_2">
    <path d="M 50.14375 576.718125 
L 608.14375 576.718125 
L 608.14375 22.318125 
L 50.14375 22.318125 
z
" style="fill: #ffffff"/>
   </g>
   <g id="matplotlib.axis_1">
    <g id="xtick_1">
     <g id="line2d_1">
      <path d="M 75.507386 576.718125 
L 75.507386 22.318125 
" clip-path="url(#p62f9bc7683)" style="fill: none; stroke: #b0b0b0; stroke-width: 0.8; stroke-linecap: square"/>
     </g>
     <g id="line2d_2">
      <defs>
       <path id="m95de53f414" d="M 0 0 
L 0 3.5 
" style="stroke: #000000; stroke-width: 0.8"/>
      </defs>
      <g>
       <use xlink:href="#m95de53f414" x="75.507386" y="576.718125" style="stroke: #000000; stroke-width: 0.8"/>
      </g>
     </g>
     <g id="text_1">
      <!-- 0 -->
      <g transform="translate(72.326136 591.316563) scale(0.1 -0.1)">
       <defs>
        <path id="DejaVuSans-30" d="M 2034 4250 
Q 1547 4250 1301 3770 
Q 1056 3291 1056 2328 
Q 1056 1369 1301 889 
Q 1547 409 2034 409 
Q 2525 409 2770 889 
Q 3016 1369 3016 2328 
Q 3016 3291 2770 3770 
Q 2525 4250 2034 4250 
z
M 2034 4750 
Q 2819 4750 3233 4129 
Q 3647 3509 3647 2328 
Q 3647 1150 3233 529 
Q 2819 -91 2034 -91 
Q 1250 -91 836 529 
Q 422 1150 422 2328 
Q 422 3509 836 4129 
Q 1250 4750 2034 4750 
z
" transform="scale(0.015625)"/>
       </defs>
       <use xlink:href="#DejaVuSans-30"/>
      </g>
     </g>
    </g>
    <g id="xtick_2">
     <g id="line2d_3">
      <path d="M 138.995838 576.718125 
L 138.995838 22.318125 
" clip-path="url(#p62f9bc7683)" style="fill: none; stroke: #b0b0b0; stroke-width: 0.8; stroke-linecap: square"/>
     </g>
     <g id="line2d_4">
      <g>
       <use xlink:href="#m95de53f414" x="138.995838" y="576.718125" style="stroke: #000000; stroke-width: 0.8"/>
      </g>
     </g>
     <g id="text_2">
      <!-- 100 -->
      <g transform="translate(129.452088 591.316563) scale(0.1 -0.1)">
       <defs>
        <path id="DejaVuSans-31" d="M 794 531 
L 1825 531 
L 1825 4091 
L 703 3866 
L 703 4441 
L 1819 4666 
L 2450 4666 
L 2450 531 
L 3481 531 
L 3481 0 
L 794 0 
L 794 531 
z
" transform="scale(0.015625)"/>
       </defs>
       <use xlink:href="#DejaVuSans-31"/>
       <use xlink:href="#DejaVuSans-30" transform="translate(63.623047 0)"/>
       <use xlink:href="#DejaVuSans-30" transform="translate(127.246094 0)"/>
      </g>
     </g>
    </g>
    <g id="xtick_3">
     <g id="line2d_5">
      <path d="M 202.484289 576.718125 
L 202.484289 22.318125 
" clip-path="url(#p62f9bc7683)" style="fill: none; stroke: #b0b0b0; stroke-width: 0.8; stroke-linecap: square"/>
     </g>
     <g id="line2d_6">
      <g>
       <use xlink:href="#m95de53f414" x="202.484289" y="576.718125" style="stroke: #000000; stroke-width: 0.8"/>
      </g>
     </g>
     <g id="text_3">
      <!-- 200 -->
      <g transform="translate(192.940539 591.316563) scale(0.1 -0.1)">
       <defs>
        <path id="DejaVuSans-32" d="M 1228 531 
L 3431 531 
L 3431 0 
L 469 0 
L 469 531 
Q 828 903 1448 1529 
Q 2069 2156 2228 2338 
Q 2531 2678 2651 2914 
Q 2772 3150 2772 3378 
Q 2772 3750 2511 3984 
Q 2250 4219 1831 4219 
Q 1534 4219 1204 4116 
Q 875 4013 500 3803 
L 500 4441 
Q 881 4594 1212 4672 
Q 1544 4750 1819 4750 
Q 2544 4750 2975 4387 
Q 3406 4025 3406 3419 
Q 3406 3131 3298 2873 
Q 3191 2616 2906 2266 
Q 2828 2175 2409 1742 
Q 1991 1309 1228 531 
z
" transform="scale(0.015625)"/>
       </defs>
       <use xlink:href="#DejaVuSans-32"/>
       <use xlink:href="#DejaVuSans-30" transform="translate(63.623047 0)"/>
       <use xlink:href="#DejaVuSans-30" transform="translate(127.246094 0)"/>
      </g>
     </g>
    </g>
    <g id="xtick_4">
     <g id="line2d_7">
      <path d="M 265.972741 576.718125 
L 265.972741 22.318125 
" clip-path="url(#p62f9bc7683)" style="fill: none; stroke: #b0b0b0; stroke-width: 0.8; stroke-linecap: square"/>
     </g>
     <g id="line2d_8">
      <g>
       <use xlink:href="#m95de53f414" x="265.972741" y="576.718125" style="stroke: #000000; stroke-width: 0.8"/>
      </g>
     </g>
     <g id="text_4">
      <!-- 300 -->
      <g transform="translate(256.428991 591.316563) scale(0.1 -0.1)">
       <defs>
        <path id="DejaVuSans-33" d="M 2597 2516 
Q 3050 2419 3304 2112 
Q 3559 1806 3559 1356 
Q 3559 666 3084 287 
Q 2609 -91 1734 -91 
Q 1441 -91 1130 -33 
Q 819 25 488 141 
L 488 750 
Q 750 597 1062 519 
Q 1375 441 1716 441 
Q 2309 441 2620 675 
Q 2931 909 2931 1356 
Q 2931 1769 2642 2001 
Q 2353 2234 1838 2234 
L 1294 2234 
L 1294 2753 
L 1863 2753 
Q 2328 2753 2575 2939 
Q 2822 3125 2822 3475 
Q 2822 3834 2567 4026 
Q 2313 4219 1838 4219 
Q 1578 4219 1281 4162 
Q 984 4106 628 3988 
L 628 4550 
Q 988 4650 1302 4700 
Q 1616 4750 1894 4750 
Q 2613 4750 3031 4423 
Q 3450 4097 3450 3541 
Q 3450 3153 3228 2886 
Q 3006 2619 2597 2516 
z
" transform="scale(0.015625)"/>
       </defs>
       <use xlink:href="#DejaVuSans-33"/>
       <use xlink:href="#DejaVuSans-30" transform="translate(63.623047 0)"/>
       <use xlink:href="#DejaVuSans-30" transform="translate(127.246094 0)"/>
      </g>
     </g>
    </g>
    <g id="xtick_5">
     <g id="line2d_9">
      <path d="M 329.461192 576.718125 
L 329.461192 22.318125 
" clip-path="url(#p62f9bc7683)" style="fill: none; stroke: #b0b0b0; stroke-width: 0.8; stroke-linecap: square"/>
     </g>
     <g id="line2d_10">
      <g>
       <use xlink:href="#m95de53f414" x="329.461192" y="576.718125" style="stroke: #000000; stroke-width: 0.8"/>
      </g>
     </g>
     <g id="text_5">
      <!-- 400 -->
      <g transform="translate(319.917442 591.316563) scale(0.1 -0.1)">
       <defs>
        <path id="DejaVuSans-34" d="M 2419 4116 
L 825 1625 
L 2419 1625 
L 2419 4116 
z
M 2253 4666 
L 3047 4666 
L 3047 1625 
L 3713 1625 
L 3713 1100 
L 3047 1100 
L 3047 0 
L 2419 0 
L 2419 1100 
L 313 1100 
L 313 1709 
L 2253 4666 
z
" transform="scale(0.015625)"/>
       </defs>
       <use xlink:href="#DejaVuSans-34"/>
       <use xlink:href="#DejaVuSans-30" transform="translate(63.623047 0)"/>
       <use xlink:href="#DejaVuSans-30" transform="translate(127.246094 0)"/>
      </g>
     </g>
    </g>
    <g id="xtick_6">
     <g id="line2d_11">
      <path d="M 392.949644 576.718125 
L 392.949644 22.318125 
" clip-path="url(#p62f9bc7683)" style="fill: none; stroke: #b0b0b0; stroke-width: 0.8; stroke-linecap: square"/>
     </g>
     <g id="line2d_12">
      <g>
       <use xlink:href="#m95de53f414" x="392.949644" y="576.718125" style="stroke: #000000; stroke-width: 0.8"/>
      </g>
     </g>
     <g id="text_6">
      <!-- 500 -->
      <g transform="translate(383.405894 591.316563) scale(0.1 -0.1)">
       <defs>
        <path id="DejaVuSans-35" d="M 691 4666 
L 3169 4666 
L 3169 4134 
L 1269 4134 
L 1269 2991 
Q 1406 3038 1543 3061 
Q 1681 3084 1819 3084 
Q 2600 3084 3056 2656 
Q 3513 2228 3513 1497 
Q 3513 744 3044 326 
Q 2575 -91 1722 -91 
Q 1428 -91 1123 -41 
Q 819 9 494 109 
L 494 744 
Q 775 591 1075 516 
Q 1375 441 1709 441 
Q 2250 441 2565 725 
Q 2881 1009 2881 1497 
Q 2881 1984 2565 2268 
Q 2250 2553 1709 2553 
Q 1456 2553 1204 2497 
Q 953 2441 691 2322 
L 691 4666 
z
" transform="scale(0.015625)"/>
       </defs>
       <use xlink:href="#DejaVuSans-35"/>
       <use xlink:href="#DejaVuSans-30" transform="translate(63.623047 0)"/>
       <use xlink:href="#DejaVuSans-30" transform="translate(127.246094 0)"/>
      </g>
     </g>
    </g>
    <g id="xtick_7">
     <g id="line2d_13">
      <path d="M 456.438095 576.718125 
L 456.438095 22.318125 
" clip-path="url(#p62f9bc7683)" style="fill: none; stroke: #b0b0b0; stroke-width: 0.8; stroke-linecap: square"/>
     </g>
     <g id="line2d_14">
      <g>
       <use xlink:href="#m95de53f414" x="456.438095" y="576.718125" style="stroke: #000000; stroke-width: 0.8"/>
      </g>
     </g>
     <g id="text_7">
      <!-- 600 -->
      <g transform="translate(446.894345 591.316563) scale(0.1 -0.1)">
       <defs>
        <path id="DejaVuSans-36" d="M 2113 2584 
Q 1688 2584 1439 2293 
Q 1191 2003 1191 1497 
Q 1191 994 1439 701 
Q 1688 409 2113 409 
Q 2538 409 2786 701 
Q 3034 994 3034 1497 
Q 3034 2003 2786 2293 
Q 2538 2584 2113 2584 
z
M 3366 4563 
L 3366 3988 
Q 3128 4100 2886 4159 
Q 2644 4219 2406 4219 
Q 1781 4219 1451 3797 
Q 1122 3375 1075 2522 
Q 1259 2794 1537 2939 
Q 1816 3084 2150 3084 
Q 2853 3084 3261 2657 
Q 3669 2231 3669 1497 
Q 3669 778 3244 343 
Q 2819 -91 2113 -91 
Q 1303 -91 875 529 
Q 447 1150 447 2328 
Q 447 3434 972 4092 
Q 1497 4750 2381 4750 
Q 2619 4750 2861 4703 
Q 3103 4656 3366 4563 
z
" transform="scale(0.015625)"/>
       </defs>
       <use xlink:href="#DejaVuSans-36"/>
       <use xlink:href="#DejaVuSans-30" transform="translate(63.623047 0)"/>
       <use xlink:href="#DejaVuSans-30" transform="translate(127.246094 0)"/>
      </g>
     </g>
    </g>
    <g id="xtick_8">
     <g id="line2d_15">
      <path d="M 519.926547 576.718125 
L 519.926547 22.318125 
" clip-path="url(#p62f9bc7683)" style="fill: none; stroke: #b0b0b0; stroke-width: 0.8; stroke-linecap: square"/>
     </g>
     <g id="line2d_16">
      <g>
       <use xlink:href="#m95de53f414" x="519.926547" y="576.718125" style="stroke: #000000; stroke-width: 0.8"/>
      </g>
     </g>
     <g id="text_8">
      <!-- 700 -->
      <g transform="translate(510.382797 591.316563) scale(0.1 -0.1)">
       <defs>
        <path id="DejaVuSans-37" d="M 525 4666 
L 3525 4666 
L 3525 4397 
L 1831 0 
L 1172 0 
L 2766 4134 
L 525 4134 
L 525 4666 
z
" transform="scale(0.015625)"/>
       </defs>
       <use xlink:href="#DejaVuSans-37"/>
       <use xlink:href="#DejaVuSans-30" transform="translate(63.623047 0)"/>
       <use xlink:href="#DejaVuSans-30" transform="translate(127.246094 0)"/>
      </g>
     </g>
    </g>
    <g id="xtick_9">
     <g id="line2d_17">
      <path d="M 583.414998 576.718125 
L 583.414998 22.318125 
" clip-path="url(#p62f9bc7683)" style="fill: none; stroke: #b0b0b0; stroke-width: 0.8; stroke-linecap: square"/>
     </g>
     <g id="line2d_18">
      <g>
       <use xlink:href="#m95de53f414" x="583.414998" y="576.718125" style="stroke: #000000; stroke-width: 0.8"/>
      </g>
     </g>
     <g id="text_9">
      <!-- 800 -->
      <g transform="translate(573.871248 591.316563) scale(0.1 -0.1)">
       <defs>
        <path id="DejaVuSans-38" d="M 2034 2216 
Q 1584 2216 1326 1975 
Q 1069 1734 1069 1313 
Q 1069 891 1326 650 
Q 1584 409 2034 409 
Q 2484 409 2743 651 
Q 3003 894 3003 1313 
Q 3003 1734 2745 1975 
Q 2488 2216 2034 2216 
z
M 1403 2484 
Q 997 2584 770 2862 
Q 544 3141 544 3541 
Q 544 4100 942 4425 
Q 1341 4750 2034 4750 
Q 2731 4750 3128 4425 
Q 3525 4100 3525 3541 
Q 3525 3141 3298 2862 
Q 3072 2584 2669 2484 
Q 3125 2378 3379 2068 
Q 3634 1759 3634 1313 
Q 3634 634 3220 271 
Q 2806 -91 2034 -91 
Q 1263 -91 848 271 
Q 434 634 434 1313 
Q 434 1759 690 2068 
Q 947 2378 1403 2484 
z
M 1172 3481 
Q 1172 3119 1398 2916 
Q 1625 2713 2034 2713 
Q 2441 2713 2670 2916 
Q 2900 3119 2900 3481 
Q 2900 3844 2670 4047 
Q 2441 4250 2034 4250 
Q 1625 4250 1398 4047 
Q 1172 3844 1172 3481 
z
" transform="scale(0.015625)"/>
       </defs>
       <use xlink:href="#DejaVuSans-38"/>
       <use xlink:href="#DejaVuSans-30" transform="translate(63.623047 0)"/>
       <use xlink:href="#DejaVuSans-30" transform="translate(127.246094 0)"/>
      </g>
     </g>
    </g>
    <g id="text_10">
     <!-- Epochs -->
     <g transform="translate(311.228125 604.994688) scale(0.1 -0.1)">
      <defs>
       <path id="DejaVuSans-45" d="M 628 4666 
L 3578 4666 
L 3578 4134 
L 1259 4134 
L 1259 2753 
L 3481 2753 
L 3481 2222 
L 1259 2222 
L 1259 531 
L 3634 531 
L 3634 0 
L 628 0 
L 628 4666 
z
" transform="scale(0.015625)"/>
       <path id="DejaVuSans-70" d="M 1159 525 
L 1159 -1331 
L 581 -1331 
L 581 3500 
L 1159 3500 
L 1159 2969 
Q 1341 3281 1617 3432 
Q 1894 3584 2278 3584 
Q 2916 3584 3314 3078 
Q 3713 2572 3713 1747 
Q 3713 922 3314 415 
Q 2916 -91 2278 -91 
Q 1894 -91 1617 61 
Q 1341 213 1159 525 
z
M 3116 1747 
Q 3116 2381 2855 2742 
Q 2594 3103 2138 3103 
Q 1681 3103 1420 2742 
Q 1159 2381 1159 1747 
Q 1159 1113 1420 752 
Q 1681 391 2138 391 
Q 2594 391 2855 752 
Q 3116 1113 3116 1747 
z
" transform="scale(0.015625)"/>
       <path id="DejaVuSans-6f" d="M 1959 3097 
Q 1497 3097 1228 2736 
Q 959 2375 959 1747 
Q 959 1119 1226 758 
Q 1494 397 1959 397 
Q 2419 397 2687 759 
Q 2956 1122 2956 1747 
Q 2956 2369 2687 2733 
Q 2419 3097 1959 3097 
z
M 1959 3584 
Q 2709 3584 3137 3096 
Q 3566 2609 3566 1747 
Q 3566 888 3137 398 
Q 2709 -91 1959 -91 
Q 1206 -91 779 398 
Q 353 888 353 1747 
Q 353 2609 779 3096 
Q 1206 3584 1959 3584 
z
" transform="scale(0.015625)"/>
       <path id="DejaVuSans-63" d="M 3122 3366 
L 3122 2828 
Q 2878 2963 2633 3030 
Q 2388 3097 2138 3097 
Q 1578 3097 1268 2742 
Q 959 2388 959 1747 
Q 959 1106 1268 751 
Q 1578 397 2138 397 
Q 2388 397 2633 464 
Q 2878 531 3122 666 
L 3122 134 
Q 2881 22 2623 -34 
Q 2366 -91 2075 -91 
Q 1284 -91 818 406 
Q 353 903 353 1747 
Q 353 2603 823 3093 
Q 1294 3584 2113 3584 
Q 2378 3584 2631 3529 
Q 2884 3475 3122 3366 
z
" transform="scale(0.015625)"/>
       <path id="DejaVuSans-68" d="M 3513 2113 
L 3513 0 
L 2938 0 
L 2938 2094 
Q 2938 2591 2744 2837 
Q 2550 3084 2163 3084 
Q 1697 3084 1428 2787 
Q 1159 2491 1159 1978 
L 1159 0 
L 581 0 
L 581 4863 
L 1159 4863 
L 1159 2956 
Q 1366 3272 1645 3428 
Q 1925 3584 2291 3584 
Q 2894 3584 3203 3211 
Q 3513 2838 3513 2113 
z
" transform="scale(0.015625)"/>
       <path id="DejaVuSans-73" d="M 2834 3397 
L 2834 2853 
Q 2591 2978 2328 3040 
Q 2066 3103 1784 3103 
Q 1356 3103 1142 2972 
Q 928 2841 928 2578 
Q 928 2378 1081 2264 
Q 1234 2150 1697 2047 
L 1894 2003 
Q 2506 1872 2764 1633 
Q 3022 1394 3022 966 
Q 3022 478 2636 193 
Q 2250 -91 1575 -91 
Q 1294 -91 989 -36 
Q 684 19 347 128 
L 347 722 
Q 666 556 975 473 
Q 1284 391 1588 391 
Q 1994 391 2212 530 
Q 2431 669 2431 922 
Q 2431 1156 2273 1281 
Q 2116 1406 1581 1522 
L 1381 1569 
Q 847 1681 609 1914 
Q 372 2147 372 2553 
Q 372 3047 722 3315 
Q 1072 3584 1716 3584 
Q 2034 3584 2315 3537 
Q 2597 3491 2834 3397 
z
" transform="scale(0.015625)"/>
      </defs>
      <use xlink:href="#DejaVuSans-45"/>
      <use xlink:href="#DejaVuSans-70" transform="translate(63.183594 0)"/>
      <use xlink:href="#DejaVuSans-6f" transform="translate(126.660156 0)"/>
      <use xlink:href="#DejaVuSans-63" transform="translate(187.841797 0)"/>
      <use xlink:href="#DejaVuSans-68" transform="translate(242.822266 0)"/>
      <use xlink:href="#DejaVuSans-73" transform="translate(306.201172 0)"/>
     </g>
    </g>
   </g>
   <g id="matplotlib.axis_2">
    <g id="ytick_1">
     <g id="line2d_19">
      <path d="M 50.14375 556.630297 
L 608.14375 556.630297 
" clip-path="url(#p62f9bc7683)" style="fill: none; stroke: #b0b0b0; stroke-width: 0.8; stroke-linecap: square"/>
     </g>
     <g id="line2d_20">
      <defs>
       <path id="m6b30a9b6a7" d="M 0 0 
L -3.5 0 
" style="stroke: #000000; stroke-width: 0.8"/>
      </defs>
      <g>
       <use xlink:href="#m6b30a9b6a7" x="50.14375" y="556.630297" style="stroke: #000000; stroke-width: 0.8"/>
      </g>
     </g>
     <g id="text_11">
      <!-- 0.00 -->
      <g transform="translate(20.878125 560.429516) scale(0.1 -0.1)">
       <defs>
        <path id="DejaVuSans-2e" d="M 684 794 
L 1344 794 
L 1344 0 
L 684 0 
L 684 794 
z
" transform="scale(0.015625)"/>
       </defs>
       <use xlink:href="#DejaVuSans-30"/>
       <use xlink:href="#DejaVuSans-2e" transform="translate(63.623047 0)"/>
       <use xlink:href="#DejaVuSans-30" transform="translate(95.410156 0)"/>
       <use xlink:href="#DejaVuSans-30" transform="translate(159.033203 0)"/>
      </g>
     </g>
    </g>
    <g id="ytick_2">
     <g id="line2d_21">
      <path d="M 50.14375 481.451301 
L 608.14375 481.451301 
" clip-path="url(#p62f9bc7683)" style="fill: none; stroke: #b0b0b0; stroke-width: 0.8; stroke-linecap: square"/>
     </g>
     <g id="line2d_22">
      <g>
       <use xlink:href="#m6b30a9b6a7" x="50.14375" y="481.451301" style="stroke: #000000; stroke-width: 0.8"/>
      </g>
     </g>
     <g id="text_12">
      <!-- 0.05 -->
      <g transform="translate(20.878125 485.25052) scale(0.1 -0.1)">
       <use xlink:href="#DejaVuSans-30"/>
       <use xlink:href="#DejaVuSans-2e" transform="translate(63.623047 0)"/>
       <use xlink:href="#DejaVuSans-30" transform="translate(95.410156 0)"/>
       <use xlink:href="#DejaVuSans-35" transform="translate(159.033203 0)"/>
      </g>
     </g>
    </g>
    <g id="ytick_3">
     <g id="line2d_23">
      <path d="M 50.14375 406.272306 
L 608.14375 406.272306 
" clip-path="url(#p62f9bc7683)" style="fill: none; stroke: #b0b0b0; stroke-width: 0.8; stroke-linecap: square"/>
     </g>
     <g id="line2d_24">
      <g>
       <use xlink:href="#m6b30a9b6a7" x="50.14375" y="406.272306" style="stroke: #000000; stroke-width: 0.8"/>
      </g>
     </g>
     <g id="text_13">
      <!-- 0.10 -->
      <g transform="translate(20.878125 410.071525) scale(0.1 -0.1)">
       <use xlink:href="#DejaVuSans-30"/>
       <use xlink:href="#DejaVuSans-2e" transform="translate(63.623047 0)"/>
       <use xlink:href="#DejaVuSans-31" transform="translate(95.410156 0)"/>
       <use xlink:href="#DejaVuSans-30" transform="translate(159.033203 0)"/>
      </g>
     </g>
    </g>
    <g id="ytick_4">
     <g id="line2d_25">
      <path d="M 50.14375 331.09331 
L 608.14375 331.09331 
" clip-path="url(#p62f9bc7683)" style="fill: none; stroke: #b0b0b0; stroke-width: 0.8; stroke-linecap: square"/>
     </g>
     <g id="line2d_26">
      <g>
       <use xlink:href="#m6b30a9b6a7" x="50.14375" y="331.09331" style="stroke: #000000; stroke-width: 0.8"/>
      </g>
     </g>
     <g id="text_14">
      <!-- 0.15 -->
      <g transform="translate(20.878125 334.892529) scale(0.1 -0.1)">
       <use xlink:href="#DejaVuSans-30"/>
       <use xlink:href="#DejaVuSans-2e" transform="translate(63.623047 0)"/>
       <use xlink:href="#DejaVuSans-31" transform="translate(95.410156 0)"/>
       <use xlink:href="#DejaVuSans-35" transform="translate(159.033203 0)"/>
      </g>
     </g>
    </g>
    <g id="ytick_5">
     <g id="line2d_27">
      <path d="M 50.14375 255.914315 
L 608.14375 255.914315 
" clip-path="url(#p62f9bc7683)" style="fill: none; stroke: #b0b0b0; stroke-width: 0.8; stroke-linecap: square"/>
     </g>
     <g id="line2d_28">
      <g>
       <use xlink:href="#m6b30a9b6a7" x="50.14375" y="255.914315" style="stroke: #000000; stroke-width: 0.8"/>
      </g>
     </g>
     <g id="text_15">
      <!-- 0.20 -->
      <g transform="translate(20.878125 259.713534) scale(0.1 -0.1)">
       <use xlink:href="#DejaVuSans-30"/>
       <use xlink:href="#DejaVuSans-2e" transform="translate(63.623047 0)"/>
       <use xlink:href="#DejaVuSans-32" transform="translate(95.410156 0)"/>
       <use xlink:href="#DejaVuSans-30" transform="translate(159.033203 0)"/>
      </g>
     </g>
    </g>
    <g id="ytick_6">
     <g id="line2d_29">
      <path d="M 50.14375 180.735319 
L 608.14375 180.735319 
" clip-path="url(#p62f9bc7683)" style="fill: none; stroke: #b0b0b0; stroke-width: 0.8; stroke-linecap: square"/>
     </g>
     <g id="line2d_30">
      <g>
       <use xlink:href="#m6b30a9b6a7" x="50.14375" y="180.735319" style="stroke: #000000; stroke-width: 0.8"/>
      </g>
     </g>
     <g id="text_16">
      <!-- 0.25 -->
      <g transform="translate(20.878125 184.534538) scale(0.1 -0.1)">
       <use xlink:href="#DejaVuSans-30"/>
       <use xlink:href="#DejaVuSans-2e" transform="translate(63.623047 0)"/>
       <use xlink:href="#DejaVuSans-32" transform="translate(95.410156 0)"/>
       <use xlink:href="#DejaVuSans-35" transform="translate(159.033203 0)"/>
      </g>
     </g>
    </g>
    <g id="ytick_7">
     <g id="line2d_31">
      <path d="M 50.14375 105.556324 
L 608.14375 105.556324 
" clip-path="url(#p62f9bc7683)" style="fill: none; stroke: #b0b0b0; stroke-width: 0.8; stroke-linecap: square"/>
     </g>
     <g id="line2d_32">
      <g>
       <use xlink:href="#m6b30a9b6a7" x="50.14375" y="105.556324" style="stroke: #000000; stroke-width: 0.8"/>
      </g>
     </g>
     <g id="text_17">
      <!-- 0.30 -->
      <g transform="translate(20.878125 109.355543) scale(0.1 -0.1)">
       <use xlink:href="#DejaVuSans-30"/>
       <use xlink:href="#DejaVuSans-2e" transform="translate(63.623047 0)"/>
       <use xlink:href="#DejaVuSans-33" transform="translate(95.410156 0)"/>
       <use xlink:href="#DejaVuSans-30" transform="translate(159.033203 0)"/>
      </g>
     </g>
    </g>
    <g id="ytick_8">
     <g id="line2d_33">
      <path d="M 50.14375 30.377329 
L 608.14375 30.377329 
" clip-path="url(#p62f9bc7683)" style="fill: none; stroke: #b0b0b0; stroke-width: 0.8; stroke-linecap: square"/>
     </g>
     <g id="line2d_34">
      <g>
       <use xlink:href="#m6b30a9b6a7" x="50.14375" y="30.377329" style="stroke: #000000; stroke-width: 0.8"/>
      </g>
     </g>
     <g id="text_18">
      <!-- 0.35 -->
      <g transform="translate(20.878125 34.176547) scale(0.1 -0.1)">
       <use xlink:href="#DejaVuSans-30"/>
       <use xlink:href="#DejaVuSans-2e" transform="translate(63.623047 0)"/>
       <use xlink:href="#DejaVuSans-33" transform="translate(95.410156 0)"/>
       <use xlink:href="#DejaVuSans-35" transform="translate(159.033203 0)"/>
      </g>
     </g>
    </g>
    <g id="text_19">
     <!-- Accuracy -->
     <g transform="translate(14.798437 322.34625) rotate(-90) scale(0.1 -0.1)">
      <defs>
       <path id="DejaVuSans-41" d="M 2188 4044 
L 1331 1722 
L 3047 1722 
L 2188 4044 
z
M 1831 4666 
L 2547 4666 
L 4325 0 
L 3669 0 
L 3244 1197 
L 1141 1197 
L 716 0 
L 50 0 
L 1831 4666 
z
" transform="scale(0.015625)"/>
       <path id="DejaVuSans-75" d="M 544 1381 
L 544 3500 
L 1119 3500 
L 1119 1403 
Q 1119 906 1312 657 
Q 1506 409 1894 409 
Q 2359 409 2629 706 
Q 2900 1003 2900 1516 
L 2900 3500 
L 3475 3500 
L 3475 0 
L 2900 0 
L 2900 538 
Q 2691 219 2414 64 
Q 2138 -91 1772 -91 
Q 1169 -91 856 284 
Q 544 659 544 1381 
z
M 1991 3584 
L 1991 3584 
z
" transform="scale(0.015625)"/>
       <path id="DejaVuSans-72" d="M 2631 2963 
Q 2534 3019 2420 3045 
Q 2306 3072 2169 3072 
Q 1681 3072 1420 2755 
Q 1159 2438 1159 1844 
L 1159 0 
L 581 0 
L 581 3500 
L 1159 3500 
L 1159 2956 
Q 1341 3275 1631 3429 
Q 1922 3584 2338 3584 
Q 2397 3584 2469 3576 
Q 2541 3569 2628 3553 
L 2631 2963 
z
" transform="scale(0.015625)"/>
       <path id="DejaVuSans-61" d="M 2194 1759 
Q 1497 1759 1228 1600 
Q 959 1441 959 1056 
Q 959 750 1161 570 
Q 1363 391 1709 391 
Q 2188 391 2477 730 
Q 2766 1069 2766 1631 
L 2766 1759 
L 2194 1759 
z
M 3341 1997 
L 3341 0 
L 2766 0 
L 2766 531 
Q 2569 213 2275 61 
Q 1981 -91 1556 -91 
Q 1019 -91 701 211 
Q 384 513 384 1019 
Q 384 1609 779 1909 
Q 1175 2209 1959 2209 
L 2766 2209 
L 2766 2266 
Q 2766 2663 2505 2880 
Q 2244 3097 1772 3097 
Q 1472 3097 1187 3025 
Q 903 2953 641 2809 
L 641 3341 
Q 956 3463 1253 3523 
Q 1550 3584 1831 3584 
Q 2591 3584 2966 3190 
Q 3341 2797 3341 1997 
z
" transform="scale(0.015625)"/>
       <path id="DejaVuSans-79" d="M 2059 -325 
Q 1816 -950 1584 -1140 
Q 1353 -1331 966 -1331 
L 506 -1331 
L 506 -850 
L 844 -850 
Q 1081 -850 1212 -737 
Q 1344 -625 1503 -206 
L 1606 56 
L 191 3500 
L 800 3500 
L 1894 763 
L 2988 3500 
L 3597 3500 
L 2059 -325 
z
" transform="scale(0.015625)"/>
      </defs>
      <use xlink:href="#DejaVuSans-41"/>
      <use xlink:href="#DejaVuSans-63" transform="translate(66.658203 0)"/>
      <use xlink:href="#DejaVuSans-63" transform="translate(121.638672 0)"/>
      <use xlink:href="#DejaVuSans-75" transform="translate(176.619141 0)"/>
      <use xlink:href="#DejaVuSans-72" transform="translate(239.998047 0)"/>
      <use xlink:href="#DejaVuSans-61" transform="translate(281.111328 0)"/>
      <use xlink:href="#DejaVuSans-63" transform="translate(342.390625 0)"/>
      <use xlink:href="#DejaVuSans-79" transform="translate(397.371094 0)"/>
     </g>
    </g>
   </g>
   <g id="line2d_35">
    <path d="M 75.507386 550.549152 
L 76.777155 549.312875 
L 77.41204 548.62791 
L 78.046924 548.235309 
L 78.681809 547.483519 
L 79.951578 546.815261 
L 80.586462 546.038412 
L 81.221347 545.687576 
L 82.491116 544.651777 
L 83.126001 543.88328 
L 83.760885 543.682803 
L 85.030654 542.972779 
L 86.300423 541.928626 
L 86.935308 541.101658 
L 87.570192 540.792588 
L 88.205077 540.22457 
L 88.839961 539.882087 
L 89.474846 539.038412 
L 90.10973 538.679224 
L 90.744615 538.077791 
L 91.379499 537.777076 
L 92.014384 536.866574 
L 93.284153 535.747242 
L 96.458575 532.080178 
L 97.728344 530.701895 
L 98.363229 529.724569 
L 98.998113 529.306907 
L 99.632998 528.471587 
L 100.267882 527.385668 
L 100.902767 526.876121 
L 102.172536 525.481132 
L 102.80742 524.420274 
L 103.442305 523.726957 
L 104.07719 522.632684 
L 104.712074 522.315263 
L 105.346959 521.680417 
L 105.981843 520.510967 
L 107.251612 518.815263 
L 107.886497 518.305716 
L 108.521381 517.061085 
L 109.156266 516.493066 
L 109.79115 515.423853 
L 110.426035 515.056311 
L 111.060919 513.903567 
L 111.695804 513.85345 
L 112.330688 511.44772 
L 112.965573 511.13865 
L 113.600457 511.130299 
L 114.235342 509.94414 
L 114.870226 509.376121 
L 116.139995 507.337936 
L 116.77488 506.878508 
L 117.409764 505.683998 
L 118.044649 504.163712 
L 118.679533 503.837936 
L 119.314418 502.693546 
L 119.949302 502.225761 
L 120.584187 500.814067 
L 121.219071 500.145813 
L 123.123725 497.071824 
L 124.393494 494.883284 
L 125.028379 494.290205 
L 125.663263 493.388053 
L 126.298148 493.329581 
L 126.933032 491.500228 
L 127.567917 490.740085 
L 128.202801 489.470394 
L 128.837686 489.211442 
L 129.47257 487.290206 
L 130.107455 487.507389 
L 131.377224 484.725764 
L 132.012108 484.984717 
L 132.646993 483.13865 
L 133.281877 482.979943 
L 133.916762 482.503807 
L 134.551646 481.225765 
L 135.186531 479.63865 
L 135.821415 479.037219 
L 136.4563 477.867769 
L 137.091184 477.433402 
L 137.726069 476.071828 
L 138.360953 475.578989 
L 138.995838 474.543185 
L 140.265607 472.855835 
L 140.900491 471.469201 
L 141.535376 471.335549 
L 142.17026 469.347484 
L 143.440029 469.038412 
L 144.074914 466.732923 
L 144.709798 466.156552 
L 145.344683 466.131492 
L 145.979567 465.204285 
L 147.249337 462.422666 
L 147.884221 462.289008 
L 148.519106 460.85226 
L 149.15399 459.866581 
L 149.788875 459.407154 
L 150.423759 457.962037 
L 151.058644 457.519324 
L 151.693528 456.617172 
L 152.328413 456.132684 
L 152.963297 454.938179 
L 153.598182 454.086148 
L 154.233066 452.649388 
L 155.502835 451.605243 
L 156.13772 450.569445 
L 156.772604 450.318844 
L 157.407489 448.372548 
L 158.042373 447.754403 
L 158.677258 446.518124 
L 159.312142 447.052732 
L 159.947027 446.02529 
L 160.581911 443.995457 
L 162.486565 442.17445 
L 163.756334 439.777083 
L 164.391218 439.476362 
L 165.026103 438.382086 
L 165.660987 437.931016 
L 166.295872 437.287822 
L 166.930756 436.143426 
L 167.565641 435.374932 
L 168.83541 433.144617 
L 169.470295 432.752024 
L 170.105179 431.674451 
L 170.740064 430.262763 
L 171.374948 430.479947 
L 172.644717 428.892826 
L 175.184255 424.499032 
L 175.81914 423.713835 
L 176.454024 423.989484 
L 177.088909 422.611213 
L 177.723793 421.516937 
L 178.358678 421.08257 
L 179.628447 419.378506 
L 181.5331 416.354649 
L 182.167985 416.287814 
L 182.802869 414.717408 
L 183.437754 413.514546 
L 184.072638 413.589726 
L 184.707523 412.796172 
L 185.342407 411.610013 
L 185.977292 410.741278 
L 186.612176 410.499034 
L 187.247061 408.135074 
L 187.881945 407.976367 
L 188.51683 408.185194 
L 189.151715 407.383282 
L 189.786599 406.289018 
L 190.421484 405.97994 
L 191.056368 404.234124 
L 192.961022 402.312877 
L 193.595906 400.608824 
L 194.230791 400.700708 
L 194.865675 399.648206 
L 196.135444 398.370153 
L 196.770329 397.392832 
L 197.405213 396.18997 
L 198.040098 395.772305 
L 198.674982 394.694744 
L 199.309867 394.30214 
L 199.944751 393.216221 
L 200.579636 392.405952 
L 201.21452 391.370154 
L 201.849405 391.286628 
L 202.484289 389.666102 
L 203.119174 389.649399 
L 203.754058 389.281854 
L 204.388943 387.928632 
L 205.023827 387.160137 
L 206.293596 384.704282 
L 206.928481 384.829583 
L 207.563365 383.735318 
L 208.19825 382.983527 
L 208.833134 382.490682 
L 209.468019 382.173258 
L 210.737788 380.310488 
L 211.372673 378.982326 
L 212.007557 378.681616 
L 213.277326 377.244856 
L 213.912211 376.626722 
L 214.547095 375.69951 
L 215.18198 375.022899 
L 215.816864 374.045578 
L 216.451749 372.550352 
L 217.086633 372.909539 
L 217.721518 372.291405 
L 218.356402 370.737702 
L 218.991287 371.263953 
L 219.626171 368.858229 
L 220.261056 368.281847 
L 220.89594 367.956077 
L 221.530825 367.112413 
L 222.165709 366.945338 
L 222.800594 366.460851 
L 223.435478 365.065865 
L 224.070363 364.990674 
L 224.705247 364.405968 
L 225.340132 363.261561 
L 225.975016 362.468018 
L 226.609901 361.206679 
L 227.87967 360.354636 
L 228.514554 359.410732 
L 229.149439 357.664905 
L 229.784323 357.598093 
L 230.419208 356.804527 
L 231.054092 356.462043 
L 231.688977 356.445329 
L 232.958746 354.114797 
L 233.593631 353.49664 
L 234.228515 352.352256 
L 234.8634 352.377327 
L 236.133169 350.623143 
L 236.768053 350.130299 
L 237.402938 348.9692 
L 238.037822 348.083773 
L 238.672707 347.724575 
L 239.307591 347.674455 
L 239.942476 346.53007 
L 240.57736 345.861816 
L 241.212245 345.469212 
L 242.482014 343.380901 
L 243.116898 342.604049 
L 243.751783 343.289017 
L 245.021552 341.434593 
L 245.656436 339.630312 
L 246.291321 339.997845 
L 246.926205 338.594502 
L 247.56109 337.658933 
L 248.195974 337.942962 
L 249.465743 335.061085 
L 250.100628 334.275877 
L 250.735512 334.584955 
L 251.370397 333.022895 
L 252.005281 332.947726 
L 253.27505 331.243662 
L 253.909935 330.867772 
L 255.179704 327.944154 
L 255.814589 328.178041 
L 256.449473 327.793794 
L 257.719242 325.814081 
L 258.354127 325.872558 
L 258.989011 324.343904 
L 259.623896 323.425049 
L 260.25878 323.558695 
L 261.528549 321.754413 
L 262.163434 321.487098 
L 262.798318 321.453692 
L 263.433203 320.092113 
L 264.068087 319.240092 
L 265.337856 317.068255 
L 265.972741 316.984729 
L 266.607625 317.043184 
L 267.24251 315.080184 
L 267.877394 315.155353 
L 268.512279 312.390454 
L 269.147163 314.294976 
L 269.782048 312.131496 
L 270.416932 311.847489 
L 271.051817 311.212641 
L 271.686701 309.959659 
L 272.95647 309.266333 
L 273.591355 308.163712 
L 274.226239 307.478743 
L 274.861124 306.217427 
L 275.496009 306.250833 
L 276.130893 305.031257 
L 276.765778 305.298572 
L 277.400662 304.070639 
L 278.035547 304.279476 
L 278.670431 303.243667 
L 281.209969 300.052734 
L 281.844854 299.534841 
L 282.479738 299.618367 
L 283.114623 297.755608 
L 283.749507 296.995448 
L 284.384392 297.337932 
L 285.654161 294.973972 
L 286.289045 295.207881 
L 286.92393 293.570629 
L 287.558814 294.163714 
L 288.193699 292.459651 
L 288.828583 291.925043 
L 289.463468 290.805729 
L 290.098352 291.00621 
L 290.733237 290.037235 
L 292.63789 288.132691 
L 293.272775 287.088546 
L 293.907659 286.361815 
L 294.542544 284.6828 
L 295.177428 285.300956 
L 295.812313 284.590917 
L 296.447197 284.30691 
L 297.082082 282.970402 
L 297.716967 282.026475 
L 298.351851 281.984712 
L 298.986736 281.207861 
L 299.62162 280.982331 
L 300.256505 279.512177 
L 300.891389 279.75442 
L 301.526274 278.250837 
L 302.161158 277.799756 
L 302.796043 277.00619 
L 303.430927 276.505011 
L 304.065812 276.429819 
L 304.700696 275.377318 
L 305.335581 274.650587 
L 305.970465 274.684015 
L 306.60535 272.963237 
L 307.875119 271.326008 
L 308.510003 271.735326 
L 309.779772 269.880902 
L 310.414657 269.738899 
L 311.049541 269.087336 
L 311.684426 267.750828 
L 312.954195 267.01574 
L 313.589079 266.180433 
L 314.223964 265.077789 
L 314.858848 264.610016 
L 315.493733 264.752019 
L 316.128617 263.223387 
L 316.763502 263.44056 
L 317.398386 262.454893 
L 318.033271 262.279461 
L 318.668156 260.767543 
L 319.30304 260.926239 
L 320.572809 258.670875 
L 321.207694 258.462038 
L 321.842578 259.155363 
L 322.477463 257.576611 
L 323.747232 255.363011 
L 324.382116 255.605255 
L 325.017001 254.987098 
L 325.651885 253.742473 
L 326.28677 253.433418 
L 326.921654 253.32482 
L 327.556539 252.071838 
L 328.191423 251.729354 
L 328.826308 251.637471 
L 329.461192 250.326011 
L 330.096077 249.941764 
L 330.730961 250.200722 
L 331.365846 248.438181 
L 332.00073 248.89762 
L 333.270499 247.33556 
L 333.905384 247.001433 
L 334.540268 246.166104 
L 335.175153 245.681616 
L 335.810037 243.969218 
L 336.444922 244.044387 
L 337.079806 243.259178 
L 337.714691 242.666116 
L 338.349575 242.783048 
L 338.98446 240.661331 
L 339.619344 241.12077 
L 340.254229 240.527684 
L 340.889114 239.399992 
L 341.523998 240.126723 
L 342.158883 239.107628 
L 342.793767 237.720999 
L 343.428652 236.802144 
L 344.063536 236.551543 
L 344.698421 236.852264 
L 345.333305 236.217416 
L 345.96819 236.100484 
L 346.603074 233.460851 
L 347.237959 234.613593 
L 347.872843 233.084961 
L 348.507728 232.917886 
L 349.777497 230.829598 
L 350.412381 230.512163 
L 351.047266 230.370159 
L 351.68215 230.445351 
L 352.317035 230.746049 
L 352.951919 228.95846 
L 353.586804 227.931029 
L 354.221688 227.580188 
L 355.491457 226.644619 
L 356.126342 224.965627 
L 356.761226 224.932221 
L 357.396111 224.397613 
L 358.030995 224.138655 
L 358.66588 222.952507 
L 359.300764 222.626737 
L 359.935649 222.818861 
L 360.570533 220.68043 
L 361.205418 220.555118 
L 361.840303 220.947722 
L 362.475187 218.867769 
L 363.110072 218.784242 
L 363.744956 218.015748 
L 364.379841 218.266349 
L 365.014725 217.53126 
L 365.64961 217.15537 
L 366.284494 216.963247 
L 366.919379 215.735313 
L 367.554263 215.008582 
L 368.189148 213.538428 
L 368.824032 214.231731 
L 369.458917 213.404759 
L 370.093801 213.312876 
L 370.728686 212.811696 
L 371.36357 212.703099 
L 372.633339 210.865389 
L 373.268224 210.197135 
L 373.903108 209.111205 
L 374.537993 208.267541 
L 375.172877 207.674456 
L 375.807762 208.534834 
L 376.442646 207.256803 
L 377.077531 207.198326 
L 377.712415 205.911938 
L 378.982184 205.252018 
L 379.617069 204.959654 
L 380.251953 204.032465 
L 380.886838 204.132683 
L 381.521722 202.478761 
L 382.156607 202.478761 
L 382.791491 201.501429 
L 384.061261 200.532454 
L 384.696145 200.783055 
L 385.33103 199.463238 
L 385.965914 198.911939 
L 386.600799 197.216232 
L 387.235683 197.399999 
L 387.870568 196.831985 
L 388.505452 197.80096 
L 389.140337 195.871367 
L 389.775221 195.211448 
L 390.410106 194.209066 
L 391.04499 194.334356 
L 391.679875 193.206685 
L 392.949644 191.987109 
L 393.584528 192.246067 
L 394.854297 189.748438 
L 395.489182 189.965633 
L 396.124066 188.921466 
L 397.393835 188.28664 
L 398.02872 187.284237 
L 398.663604 187.334357 
L 399.298489 187.676841 
L 399.933373 186.390453 
L 400.568258 184.678032 
L 401.203142 184.043206 
L 401.838027 184.903584 
L 402.472911 182.99904 
L 403.107796 183.024111 
L 403.74268 181.963253 
L 405.01245 181.286641 
L 405.647334 181.478765 
L 406.282219 180.025302 
L 407.551988 179.42386 
L 408.186872 177.335572 
L 408.821757 178.621937 
L 409.456641 176.82599 
L 410.72641 176.942945 
L 411.361295 176.024112 
L 411.996179 175.706677 
L 412.631064 176.099304 
L 413.265948 174.161353 
L 414.535717 172.941755 
L 415.170602 173.167285 
L 415.805486 172.757988 
L 416.440371 171.404766 
L 417.075255 171.931017 
L 417.71014 169.658962 
L 418.345024 170.644606 
L 418.979909 169.141046 
L 419.614793 168.29736 
L 420.249678 168.898802 
L 420.884562 168.355837 
L 421.519447 166.802134 
L 422.154331 167.102855 
L 422.789216 166.426266 
L 423.4241 164.789037 
L 424.058985 164.789037 
L 424.693869 166.050354 
L 425.328754 162.959662 
L 425.963638 162.45846 
L 426.598523 162.266359 
L 427.233408 161.873732 
L 427.868292 162.692369 
L 428.503177 160.94652 
L 429.138061 159.927447 
L 429.772946 160.879708 
L 431.042715 158.941757 
L 431.677599 159.041998 
L 432.312484 158.407172 
L 432.947368 157.438197 
L 433.582253 157.429817 
L 434.217137 156.678037 
L 435.486906 154.848706 
L 436.121791 155.934591 
L 436.756675 153.57901 
L 437.39156 153.963257 
L 438.026444 153.420293 
L 438.661329 151.816447 
L 439.296213 151.240098 
L 439.931098 151.732921 
L 440.565982 151.373767 
L 441.200867 150.538416 
L 441.835751 150.321221 
L 442.470636 149.69473 
L 443.10552 148.859424 
L 443.740405 147.497866 
L 444.375289 148.408364 
L 445.010174 147.280672 
L 445.645058 147.355863 
L 446.279943 146.654181 
L 446.914827 145.392819 
L 447.549712 145.735303 
L 448.184597 144.950139 
L 448.819481 144.657753 
L 449.454366 143.195955 
L 450.08925 143.120764 
L 450.724135 142.55275 
L 451.359019 142.394033 
L 451.993904 140.639849 
L 452.628788 140.823615 
L 453.263673 141.224577 
L 453.898557 140.405984 
L 454.533442 140.314079 
L 455.803211 138.818853 
L 456.438095 137.941783 
L 457.07298 138.192362 
L 457.707864 137.298578 
L 458.342749 137.123146 
L 459.612518 135.845115 
L 460.882287 133.69835 
L 461.517171 134.700708 
L 462.152056 133.3642 
L 462.78694 133.907165 
L 463.421825 132.261556 
L 464.056709 131.284246 
L 464.691594 131.108814 
L 465.326478 131.30096 
L 465.961363 130.515752 
L 466.596247 130.248459 
L 467.231132 130.206696 
L 467.866016 128.636279 
L 468.500901 128.853474 
L 469.135785 127.976359 
L 469.77067 128.009788 
L 470.405555 127.358248 
L 471.040439 127.667304 
L 471.675324 126.280653 
L 472.310208 124.27589 
L 472.945093 124.919096 
L 473.579977 124.735329 
L 474.214862 123.148198 
L 474.849746 124.317653 
L 475.484631 121.410728 
L 476.119515 122.646996 
L 476.7544 122.680424 
L 477.389284 121.627923 
L 478.024169 122.187602 
L 478.659053 120.70909 
L 479.293938 119.573018 
L 479.928822 119.773499 
L 480.563707 119.080196 
L 481.198591 118.779475 
L 481.833476 119.289011 
L 482.46836 118.570659 
L 483.103245 116.657758 
L 483.738129 116.699521 
L 484.373014 115.981124 
L 485.007898 116.473991 
L 485.642783 115.8475 
L 486.277667 114.853476 
L 486.912552 114.176842 
L 487.547436 113.107627 
L 488.182321 113.065864 
L 488.817205 112.49785 
L 489.45209 113.425062 
L 490.086974 112.213843 
L 490.721859 110.409562 
L 491.356744 111.470398 
L 491.991628 110.935812 
L 492.626513 110.618377 
L 493.261397 110.100461 
L 493.896282 108.672092 
L 494.531166 107.644639 
L 495.166051 108.095699 
L 495.800935 107.427445 
L 496.43582 107.026483 
L 497.070704 107.469208 
L 498.340473 106.842717 
L 498.975358 106.157748 
L 499.610242 105.24725 
L 500.245127 103.559923 
L 500.880011 104.261561 
L 501.514896 103.777073 
L 502.14978 104.570662 
L 502.784665 102.448945 
L 503.419549 101.638642 
L 504.054434 102.23175 
L 504.689318 101.179248 
L 505.324203 100.987102 
L 505.959087 100.410754 
L 506.593972 100.226987 
L 507.228856 98.965626 
L 507.863741 99.191155 
L 508.498625 97.687595 
L 509.13351 99.458493 
L 509.768394 99.249633 
L 510.403279 97.645832 
L 511.038163 95.382111 
L 511.673048 96.994292 
L 512.307933 96.242467 
L 512.942817 95.056342 
L 513.577702 94.22937 
L 514.212586 94.42985 
L 514.847471 93.803359 
L 515.482355 93.686405 
L 516.11724 92.834384 
L 516.752124 93.126726 
L 517.387009 91.489497 
L 518.021893 91.289016 
L 518.656778 89.843933 
L 519.291662 91.355828 
L 519.926547 89.726978 
L 520.561431 90.503807 
L 521.8312 89.960842 
L 522.466085 87.822456 
L 523.735854 86.845101 
L 524.370738 87.012154 
L 525.005623 86.3439 
L 525.640507 87.104059 
L 526.275392 85.759172 
L 526.910276 85.191158 
L 528.81493 84.28066 
L 529.449814 83.111204 
L 530.084699 82.86896 
L 530.719583 82.818862 
L 531.354468 82.309326 
L 531.989352 82.183992 
L 532.624237 80.496665 
L 533.259121 81.549166 
L 533.894006 80.120752 
L 534.528891 79.636265 
L 535.163775 80.630289 
L 535.79866 78.968011 
L 536.433544 77.999035 
L 537.068429 79.335544 
L 537.703313 77.965652 
L 538.338198 77.573025 
L 538.973082 76.069465 
L 539.607967 75.643454 
L 540.877736 76.420283 
L 541.51262 74.858246 
L 542.147505 75.234113 
L 542.782389 73.839128 
L 543.417274 73.471595 
L 544.052158 73.830793 
L 544.687043 73.421497 
L 545.956812 72.185184 
L 546.591696 70.973965 
L 547.226581 70.715052 
L 547.861465 71.575407 
L 548.49635 71.024108 
L 549.131234 69.203112 
L 549.766119 69.320067 
L 550.401003 68.919105 
L 551.670772 66.947726 
L 552.305657 68.242472 
L 552.940541 66.76396 
L 553.575426 67.156542 
L 554.21031 67.031253 
L 554.845195 65.88689 
L 555.48008 63.923846 
L 556.114964 64.784247 
L 556.749849 64.82601 
L 557.384733 63.539599 
L 558.019618 64.099278 
L 558.654502 64.224567 
L 560.559156 61.133875 
L 561.19404 62.353474 
L 561.828925 61.459645 
L 562.463809 61.317642 
L 563.098694 59.964419 
L 563.733578 60.323618 
L 564.368463 59.789032 
L 565.003347 58.527671 
L 565.638232 59.028873 
L 566.273116 57.433406 
L 567.542885 57.725793 
L 568.17777 57.516933 
L 568.812654 56.447717 
L 569.447539 56.213853 
L 570.082423 55.320069 
L 570.717308 55.829606 
L 571.352192 54.025279 
L 571.987077 55.052732 
L 573.256846 52.379715 
L 573.89173 53.198352 
L 574.526615 52.053945 
L 576.431268 51.302165 
L 577.066153 51.368977 
L 577.701038 50.742486 
L 578.335922 49.890465 
L 578.970807 49.431026 
L 579.605691 49.740082 
L 580.240576 48.587341 
L 580.87546 48.896441 
L 581.510345 47.777083 
L 582.145229 47.518125 
L 582.780114 48.704295 
L 582.780114 48.704295 
" clip-path="url(#p62f9bc7683)" style="fill: none; stroke: #1f77b4; stroke-width: 1.5; stroke-linecap: square"/>
   </g>
   <g id="line2d_36">
    <path d="M 75.507386 550.465619 
L 76.142271 550.691156 
L 76.777155 551.217409 
L 77.41204 550.991872 
L 78.046924 551.217409 
L 78.681809 550.540798 
L 79.316693 551.518125 
L 79.951578 550.766335 
L 80.586462 550.691156 
L 81.221347 550.465619 
L 81.856232 550.766335 
L 82.491116 550.615977 
L 83.126001 551.367767 
L 83.760885 550.315261 
L 85.030654 550.766335 
L 85.665539 550.240082 
L 86.300423 550.240082 
L 86.935308 550.089724 
L 87.570192 549.63865 
L 88.205077 550.540798 
L 88.839961 550.089724 
L 89.474846 550.315261 
L 90.10973 549.63865 
L 90.744615 550.014545 
L 91.379499 549.939366 
L 92.014384 550.766335 
L 92.649268 550.164903 
L 93.284153 550.164903 
L 93.919037 549.337934 
L 94.553922 550.089724 
L 95.188806 548.811681 
L 95.823691 548.059891 
L 97.728344 549.262755 
L 98.363229 548.435786 
L 98.998113 547.909533 
L 99.632998 547.608817 
L 100.267882 547.458459 
L 100.902767 547.608817 
L 101.537651 546.556312 
L 102.172536 547.308101 
L 102.80742 546.405953 
L 103.442305 546.781848 
L 104.712074 546.631491 
L 105.346959 545.954879 
L 105.981843 547.383281 
L 106.616728 546.706669 
L 107.251612 547.007386 
L 107.886497 546.556312 
L 108.521381 546.781848 
L 109.156266 546.706669 
L 109.79115 546.781848 
L 110.426035 546.481132 
L 111.060919 546.631491 
L 112.330688 546.481132 
L 113.600457 546.631491 
L 114.235342 546.857027 
L 114.870226 546.481132 
L 115.505111 546.631491 
L 116.139995 546.330774 
L 116.77488 546.481132 
L 117.409764 546.105237 
L 118.044649 546.405953 
L 118.679533 546.405953 
L 119.314418 546.932206 
L 119.949302 546.481132 
L 120.584187 546.857027 
L 121.219071 546.932206 
L 121.853956 545.954879 
L 122.48884 546.180417 
L 123.123725 546.180417 
L 123.758609 546.706669 
L 124.393494 546.631491 
L 125.028379 546.932206 
L 125.663263 546.857027 
L 126.298148 546.932206 
L 126.933032 546.706669 
L 127.567917 546.180417 
L 128.202801 546.556312 
L 128.837686 546.405953 
L 129.47257 546.706669 
L 130.107455 546.030058 
L 131.377224 547.007386 
L 132.012108 546.255596 
L 132.646993 545.804522 
L 133.281877 546.405953 
L 133.916762 546.405953 
L 134.551646 546.255596 
L 135.186531 546.481132 
L 135.821415 546.330774 
L 136.4563 547.308101 
L 137.091184 547.157743 
L 137.726069 546.105237 
L 138.360953 547.533638 
L 138.995838 546.857027 
L 139.630722 547.082564 
L 140.265607 546.481132 
L 140.900491 547.608817 
L 141.535376 547.007386 
L 142.17026 547.232922 
L 142.805145 547.232922 
L 143.440029 546.556312 
L 144.074914 546.631491 
L 144.709798 546.330774 
L 145.344683 546.180417 
L 145.979567 547.308101 
L 146.614452 547.007386 
L 147.249337 546.330774 
L 147.884221 546.405953 
L 148.519106 547.608817 
L 149.788875 546.556312 
L 150.423759 546.932206 
L 151.058644 545.954879 
L 151.693528 547.683996 
L 152.328413 546.631491 
L 152.963297 546.857027 
L 154.867951 546.405953 
L 155.502835 546.405953 
L 156.13772 546.180417 
L 156.772604 547.082564 
L 157.407489 545.8797 
L 158.042373 546.481132 
L 159.312142 546.706669 
L 159.947027 546.330774 
L 160.581911 546.932206 
L 161.216796 546.105237 
L 161.85168 546.481132 
L 162.486565 546.255596 
L 163.121449 545.503805 
L 163.756334 546.405953 
L 164.391218 546.105237 
L 165.026103 546.330774 
L 165.660987 546.932206 
L 166.295872 546.180417 
L 167.565641 546.706669 
L 168.200526 546.706669 
L 168.83541 546.330774 
L 169.470295 546.255596 
L 170.105179 546.330774 
L 171.374948 546.255596 
L 172.644717 547.082564 
L 173.279602 546.030058 
L 173.914486 545.8797 
L 174.549371 547.082564 
L 175.81914 546.405953 
L 176.454024 546.706669 
L 177.088909 546.405953 
L 178.358678 546.330774 
L 178.993562 546.556312 
L 180.263331 545.578984 
L 180.898216 546.481132 
L 181.5331 546.255596 
L 182.167985 546.180417 
L 182.802869 545.503805 
L 183.437754 546.255596 
L 184.072638 545.654163 
L 184.707523 545.503805 
L 185.342407 546.481132 
L 187.247061 546.781848 
L 187.881945 545.954879 
L 188.51683 546.180417 
L 189.151715 545.954879 
L 189.786599 545.954879 
L 190.421484 546.631491 
L 191.056368 547.007386 
L 192.326137 545.8797 
L 192.961022 546.030058 
L 193.595906 546.330774 
L 194.230791 545.12791 
L 194.865675 545.8797 
L 196.770329 545.954879 
L 197.405213 545.278268 
L 198.040098 546.255596 
L 198.674982 546.330774 
L 199.309867 546.255596 
L 199.944751 545.804522 
L 200.579636 546.556312 
L 201.21452 546.631491 
L 201.849405 546.030058 
L 202.484289 545.804522 
L 203.119174 546.030058 
L 203.754058 546.105237 
L 204.388943 546.481132 
L 205.023827 545.503805 
L 205.658712 545.954879 
L 206.293596 546.631491 
L 206.928481 545.729343 
L 207.563365 545.278268 
L 208.19825 545.8797 
L 209.468019 545.654163 
L 210.102903 546.330774 
L 210.737788 546.030058 
L 211.372673 546.105237 
L 212.007557 545.8797 
L 212.642442 545.804522 
L 213.912211 546.180417 
L 214.547095 545.278268 
L 215.18198 545.503805 
L 215.816864 545.954879 
L 216.451749 545.203089 
L 217.086633 544.902374 
L 217.721518 546.180417 
L 218.356402 546.180417 
L 218.991287 545.052732 
L 219.626171 546.255596 
L 220.261056 545.954879 
L 221.530825 544.902374 
L 222.165709 545.578984 
L 222.800594 545.203089 
L 223.435478 545.428627 
L 224.070363 545.804522 
L 224.705247 545.503805 
L 225.340132 546.030058 
L 225.975016 545.353448 
L 226.609901 545.428627 
L 227.244785 544.977553 
L 227.87967 545.428627 
L 228.514554 545.12791 
L 229.149439 546.105237 
L 229.784323 545.954879 
L 230.419208 545.428627 
L 231.054092 545.804522 
L 231.688977 544.902374 
L 232.323862 545.203089 
L 232.958746 545.203089 
L 233.593631 545.052732 
L 234.228515 545.804522 
L 234.8634 545.503805 
L 235.498284 546.330774 
L 236.133169 545.654163 
L 236.768053 545.503805 
L 238.672707 545.804522 
L 239.307591 545.353448 
L 239.942476 545.503805 
L 240.57736 545.503805 
L 241.212245 546.030058 
L 241.847129 545.428627 
L 242.482014 546.030058 
L 243.116898 544.977553 
L 243.751783 545.729343 
L 244.386667 545.278268 
L 245.021552 545.578984 
L 245.656436 545.578984 
L 246.291321 545.804522 
L 246.926205 544.752016 
L 247.56109 545.8797 
L 248.195974 545.654163 
L 248.830859 545.729343 
L 249.465743 546.105237 
L 250.100628 546.030058 
L 250.735512 545.654163 
L 251.370397 545.428627 
L 252.005281 546.105237 
L 252.640166 545.804522 
L 253.27505 545.8797 
L 253.909935 546.255596 
L 254.54482 545.729343 
L 255.179704 546.030058 
L 256.449473 545.729343 
L 257.084358 545.954879 
L 257.719242 545.954879 
L 258.354127 544.902374 
L 258.989011 546.330774 
L 260.25878 545.654163 
L 260.893665 546.405953 
L 261.528549 545.954879 
L 262.163434 546.180417 
L 263.433203 545.12791 
L 264.068087 546.255596 
L 265.337856 546.255596 
L 265.972741 545.654163 
L 266.607625 546.706669 
L 267.24251 545.654163 
L 268.512279 545.578984 
L 269.147163 545.954879 
L 269.782048 545.654163 
L 270.416932 546.180417 
L 271.686701 546.556312 
L 272.321586 545.654163 
L 272.95647 545.954879 
L 273.591355 546.857027 
L 274.226239 546.255596 
L 274.861124 546.556312 
L 275.496009 545.954879 
L 276.130893 546.481132 
L 278.035547 546.330774 
L 278.670431 546.481132 
L 279.305316 546.255596 
L 279.9402 546.180417 
L 280.575085 545.804522 
L 281.209969 547.082564 
L 281.844854 546.405953 
L 283.749507 547.007386 
L 284.384392 547.082564 
L 285.019276 546.631491 
L 285.654161 546.781848 
L 286.92393 546.405953 
L 287.558814 547.308101 
L 288.193699 547.308101 
L 288.828583 547.082564 
L 289.463468 546.706669 
L 290.098352 546.781848 
L 291.368121 546.405953 
L 292.003006 547.458459 
L 292.63789 546.481132 
L 293.272775 547.608817 
L 293.907659 546.857027 
L 294.542544 547.383281 
L 295.177428 547.308101 
L 295.812313 546.781848 
L 296.447197 547.232922 
L 297.716967 547.308101 
L 298.351851 546.781848 
L 298.986736 547.834355 
L 299.62162 547.308101 
L 300.256505 547.383281 
L 300.891389 547.007386 
L 301.526274 547.608817 
L 302.161158 547.157743 
L 302.796043 547.383281 
L 303.430927 547.759175 
L 304.065812 547.308101 
L 304.700696 547.157743 
L 305.335581 547.308101 
L 305.970465 547.759175 
L 306.60535 547.383281 
L 307.240234 547.683996 
L 307.875119 547.458459 
L 308.510003 547.458459 
L 309.144888 547.984712 
L 309.779772 547.458459 
L 310.414657 547.683996 
L 311.049541 547.232922 
L 312.31931 548.059891 
L 312.954195 547.834355 
L 313.589079 547.909533 
L 314.223964 547.533638 
L 314.858848 548.13507 
L 315.493733 547.157743 
L 316.128617 547.909533 
L 316.763502 548.21025 
L 317.398386 547.759175 
L 318.668156 547.458459 
L 319.30304 547.683996 
L 319.937925 548.21025 
L 320.572809 547.759175 
L 321.207694 547.082564 
L 321.842578 547.533638 
L 322.477463 547.608817 
L 323.112347 547.909533 
L 323.747232 547.458459 
L 324.382116 547.458459 
L 325.017001 547.909533 
L 325.651885 547.232922 
L 326.28677 547.759175 
L 326.921654 547.533638 
L 327.556539 548.21025 
L 328.191423 548.13507 
L 328.826308 547.458459 
L 329.461192 547.533638 
L 330.730961 548.21025 
L 331.365846 547.533638 
L 332.635615 547.608817 
L 333.270499 547.984712 
L 333.905384 547.458459 
L 334.540268 547.157743 
L 335.175153 547.683996 
L 335.810037 547.608817 
L 337.714691 547.759175 
L 339.619344 547.533638 
L 340.254229 546.932206 
L 340.889114 547.608817 
L 341.523998 547.759175 
L 342.158883 546.781848 
L 342.793767 547.683996 
L 343.428652 547.608817 
L 344.063536 547.383281 
L 344.698421 547.834355 
L 345.333305 547.007386 
L 345.96819 546.631491 
L 346.603074 546.556312 
L 347.237959 547.683996 
L 347.872843 547.533638 
L 348.507728 547.157743 
L 349.142612 547.533638 
L 349.777497 547.683996 
L 350.412381 547.232922 
L 351.047266 546.556312 
L 351.68215 547.308101 
L 352.317035 546.781848 
L 352.951919 547.082564 
L 353.586804 546.857027 
L 354.221688 547.157743 
L 354.856573 546.631491 
L 355.491457 546.706669 
L 356.126342 547.157743 
L 356.761226 547.458459 
L 357.396111 547.383281 
L 358.030995 547.759175 
L 358.66588 547.383281 
L 359.300764 547.157743 
L 359.935649 547.608817 
L 361.205418 547.608817 
L 361.840303 547.007386 
L 362.475187 547.458459 
L 363.110072 546.781848 
L 363.744956 547.308101 
L 365.014725 547.533638 
L 365.64961 548.059891 
L 366.919379 547.007386 
L 367.554263 547.834355 
L 368.189148 547.082564 
L 368.824032 547.157743 
L 369.458917 547.458459 
L 370.093801 547.458459 
L 370.728686 546.932206 
L 371.36357 547.232922 
L 371.998455 547.834355 
L 372.633339 547.683996 
L 373.268224 547.308101 
L 373.903108 548.21025 
L 374.537993 547.458459 
L 375.172877 547.984712 
L 375.807762 547.834355 
L 376.442646 547.458459 
L 377.077531 547.308101 
L 377.712415 546.932206 
L 379.617069 547.834355 
L 380.251953 547.232922 
L 381.521722 548.360607 
L 382.791491 547.383281 
L 383.426376 546.932206 
L 384.061261 547.909533 
L 384.696145 546.932206 
L 385.33103 547.383281 
L 385.965914 547.533638 
L 386.600799 547.383281 
L 387.235683 547.909533 
L 387.870568 548.21025 
L 388.505452 547.909533 
L 389.140337 547.383281 
L 389.775221 548.661323 
L 390.410106 547.232922 
L 391.04499 547.007386 
L 391.679875 547.533638 
L 392.314759 547.458459 
L 392.949644 547.909533 
L 394.219413 547.984712 
L 394.854297 547.308101 
L 395.489182 547.458459 
L 396.124066 548.059891 
L 396.758951 547.759175 
L 397.393835 547.909533 
L 398.663604 546.857027 
L 399.298489 547.383281 
L 399.933373 547.157743 
L 400.568258 547.909533 
L 401.203142 547.608817 
L 401.838027 547.007386 
L 402.472911 547.458459 
L 403.74268 547.308101 
L 404.377565 547.458459 
L 405.01245 547.984712 
L 405.647334 547.458459 
L 406.282219 547.232922 
L 407.551988 547.759175 
L 408.186872 547.308101 
L 408.821757 546.706669 
L 409.456641 548.059891 
L 410.091526 547.308101 
L 410.72641 547.533638 
L 411.361295 547.308101 
L 411.996179 548.21025 
L 412.631064 547.383281 
L 413.265948 547.533638 
L 413.900833 547.984712 
L 414.535717 547.383281 
L 416.440371 547.232922 
L 417.075255 547.458459 
L 417.71014 547.082564 
L 418.345024 547.458459 
L 418.979909 547.232922 
L 419.614793 547.608817 
L 420.249678 547.232922 
L 420.884562 548.21025 
L 422.154331 547.683996 
L 422.789216 547.007386 
L 423.4241 547.759175 
L 424.058985 548.059891 
L 424.693869 547.458459 
L 425.328754 547.909533 
L 425.963638 547.608817 
L 426.598523 547.458459 
L 427.233408 547.533638 
L 427.868292 547.308101 
L 428.503177 546.857027 
L 429.138061 547.683996 
L 429.772946 547.759175 
L 430.40783 546.932206 
L 431.042715 547.909533 
L 431.677599 546.857027 
L 432.312484 547.984712 
L 432.947368 546.932206 
L 433.582253 547.533638 
L 434.217137 547.082564 
L 434.852022 547.683996 
L 435.486906 547.458459 
L 436.121791 547.533638 
L 436.756675 547.308101 
L 437.39156 547.683996 
L 438.661329 547.157743 
L 439.296213 547.909533 
L 439.931098 547.759175 
L 440.565982 547.984712 
L 441.200867 547.608817 
L 441.835751 547.683996 
L 442.470636 547.909533 
L 443.740405 547.533638 
L 444.375289 547.458459 
L 446.279943 548.059891 
L 446.914827 547.984712 
L 447.549712 548.435786 
L 448.184597 547.834355 
L 448.819481 547.683996 
L 449.454366 547.834355 
L 450.08925 548.285428 
L 450.724135 547.759175 
L 451.359019 548.13507 
L 451.993904 547.759175 
L 452.628788 547.834355 
L 453.263673 548.13507 
L 453.898557 547.909533 
L 454.533442 548.059891 
L 456.438095 547.533638 
L 457.07298 548.736502 
L 457.707864 546.932206 
L 458.342749 547.608817 
L 458.977633 547.984712 
L 459.612518 548.13507 
L 460.247402 548.13507 
L 460.882287 547.533638 
L 461.517171 548.435786 
L 463.421825 547.683996 
L 464.056709 548.059891 
L 464.691594 547.759175 
L 465.326478 547.834355 
L 465.961363 548.059891 
L 466.596247 547.984712 
L 467.231132 547.759175 
L 467.866016 548.435786 
L 468.500901 547.759175 
L 469.135785 548.811681 
L 469.77067 547.984712 
L 470.405555 548.13507 
L 471.040439 547.608817 
L 471.675324 548.059891 
L 472.310208 547.834355 
L 472.945093 547.834355 
L 474.849746 548.435786 
L 475.484631 548.21025 
L 476.119515 548.13507 
L 476.7544 547.834355 
L 477.389284 547.984712 
L 478.024169 547.834355 
L 478.659053 548.13507 
L 480.563707 547.834355 
L 481.198591 548.285428 
L 481.833476 548.510965 
L 482.46836 547.232922 
L 483.103245 547.909533 
L 483.738129 547.759175 
L 484.373014 548.059891 
L 486.277667 547.909533 
L 487.547436 548.21025 
L 488.182321 547.458459 
L 488.817205 548.21025 
L 489.45209 548.661323 
L 490.086974 547.683996 
L 490.721859 548.059891 
L 491.356744 547.383281 
L 491.991628 547.984712 
L 493.261397 547.308101 
L 493.896282 547.759175 
L 494.531166 547.533638 
L 495.166051 547.984712 
L 495.800935 547.308101 
L 496.43582 547.608817 
L 497.070704 548.21025 
L 497.705589 547.608817 
L 499.610242 548.285428 
L 500.245127 547.383281 
L 500.880011 547.759175 
L 501.514896 547.608817 
L 502.14978 547.683996 
L 502.784665 548.21025 
L 503.419549 548.360607 
L 504.054434 547.608817 
L 504.689318 547.909533 
L 505.324203 547.308101 
L 505.959087 548.21025 
L 506.593972 547.683996 
L 507.228856 547.759175 
L 507.863741 547.984712 
L 509.13351 547.683996 
L 509.768394 547.984712 
L 511.038163 547.533638 
L 511.673048 548.285428 
L 512.307933 547.909533 
L 512.942817 547.308101 
L 513.577702 547.834355 
L 514.212586 547.759175 
L 514.847471 547.458459 
L 516.11724 548.21025 
L 516.752124 547.984712 
L 517.387009 548.285428 
L 518.021893 547.683996 
L 519.291662 547.984712 
L 521.196316 547.533638 
L 522.466085 546.781848 
L 523.100969 547.383281 
L 523.735854 547.759175 
L 524.370738 547.984712 
L 525.005623 547.759175 
L 525.640507 548.285428 
L 526.275392 547.383281 
L 526.910276 548.059891 
L 527.545161 547.608817 
L 528.180045 547.683996 
L 528.81493 547.533638 
L 529.449814 547.608817 
L 530.084699 547.909533 
L 530.719583 547.007386 
L 531.989352 547.533638 
L 532.624237 546.781848 
L 533.259121 547.082564 
L 533.894006 547.232922 
L 534.528891 547.834355 
L 535.163775 547.608817 
L 535.79866 548.059891 
L 536.433544 547.984712 
L 537.068429 548.21025 
L 537.703313 547.984712 
L 538.338198 547.157743 
L 538.973082 547.157743 
L 539.607967 547.909533 
L 540.242851 547.683996 
L 540.877736 547.232922 
L 541.51262 547.383281 
L 542.147505 547.383281 
L 542.782389 548.360607 
L 543.417274 547.608817 
L 544.052158 547.759175 
L 544.687043 547.157743 
L 545.321927 546.932206 
L 545.956812 547.383281 
L 546.591696 548.13507 
L 547.226581 547.458459 
L 547.861465 547.533638 
L 548.49635 548.21025 
L 549.131234 547.759175 
L 549.766119 547.007386 
L 550.401003 547.909533 
L 551.035888 547.759175 
L 551.670772 546.932206 
L 552.305657 547.458459 
L 552.940541 547.308101 
L 553.575426 547.759175 
L 554.21031 547.007386 
L 554.845195 547.383281 
L 555.48008 547.232922 
L 556.114964 547.834355 
L 556.749849 547.383281 
L 557.384733 547.683996 
L 558.019618 547.458459 
L 558.654502 547.007386 
L 559.289387 547.608817 
L 559.924271 547.909533 
L 560.559156 547.308101 
L 561.19404 546.932206 
L 561.828925 547.759175 
L 562.463809 547.383281 
L 563.098694 548.13507 
L 563.733578 547.232922 
L 564.368463 547.533638 
L 565.638232 547.308101 
L 566.273116 547.232922 
L 566.908001 546.556312 
L 567.542885 547.157743 
L 568.17777 547.383281 
L 568.812654 547.308101 
L 569.447539 547.458459 
L 570.082423 547.759175 
L 570.717308 547.082564 
L 571.352192 546.857027 
L 572.621961 547.082564 
L 573.256846 547.458459 
L 573.89173 546.932206 
L 574.526615 546.932206 
L 575.161499 547.533638 
L 575.796384 547.232922 
L 577.066153 547.458459 
L 578.335922 547.383281 
L 578.970807 547.608817 
L 579.605691 547.683996 
L 580.240576 546.330774 
L 581.510345 547.232922 
L 582.145229 547.458459 
L 582.780114 547.308101 
L 582.780114 547.308101 
" clip-path="url(#p62f9bc7683)" style="fill: none; stroke: #ff7f0e; stroke-width: 1.5; stroke-linecap: square"/>
   </g>
   <g id="line2d_37">
    <path d="M 50.14375 550.756938 
L 608.14375 550.756938 
" clip-path="url(#p62f9bc7683)" style="fill: none; stroke-dasharray: 11.1,4.8; stroke-dashoffset: 0; stroke: #ff0000; stroke-width: 3"/>
   </g>
   <g id="patch_3">
    <path d="M 50.14375 576.718125 
L 50.14375 22.318125 
" style="fill: none; stroke: #000000; stroke-width: 0.8; stroke-linejoin: miter; stroke-linecap: square"/>
   </g>
   <g id="patch_4">
    <path d="M 608.14375 576.718125 
L 608.14375 22.318125 
" style="fill: none; stroke: #000000; stroke-width: 0.8; stroke-linejoin: miter; stroke-linecap: square"/>
   </g>
   <g id="patch_5">
    <path d="M 50.14375 576.718125 
L 608.14375 576.718125 
" style="fill: none; stroke: #000000; stroke-width: 0.8; stroke-linejoin: miter; stroke-linecap: square"/>
   </g>
   <g id="patch_6">
    <path d="M 50.14375 22.318125 
L 608.14375 22.318125 
" style="fill: none; stroke: #000000; stroke-width: 0.8; stroke-linejoin: miter; stroke-linecap: square"/>
   </g>
   <g id="text_20">
    <!-- Train and Val Accuracy -->
    <g transform="translate(261.365313 16.318125) scale(0.12 -0.12)">
     <defs>
      <path id="DejaVuSans-54" d="M -19 4666 
L 3928 4666 
L 3928 4134 
L 2272 4134 
L 2272 0 
L 1638 0 
L 1638 4134 
L -19 4134 
L -19 4666 
z
" transform="scale(0.015625)"/>
      <path id="DejaVuSans-69" d="M 603 3500 
L 1178 3500 
L 1178 0 
L 603 0 
L 603 3500 
z
M 603 4863 
L 1178 4863 
L 1178 4134 
L 603 4134 
L 603 4863 
z
" transform="scale(0.015625)"/>
      <path id="DejaVuSans-6e" d="M 3513 2113 
L 3513 0 
L 2938 0 
L 2938 2094 
Q 2938 2591 2744 2837 
Q 2550 3084 2163 3084 
Q 1697 3084 1428 2787 
Q 1159 2491 1159 1978 
L 1159 0 
L 581 0 
L 581 3500 
L 1159 3500 
L 1159 2956 
Q 1366 3272 1645 3428 
Q 1925 3584 2291 3584 
Q 2894 3584 3203 3211 
Q 3513 2838 3513 2113 
z
" transform="scale(0.015625)"/>
      <path id="DejaVuSans-20" transform="scale(0.015625)"/>
      <path id="DejaVuSans-64" d="M 2906 2969 
L 2906 4863 
L 3481 4863 
L 3481 0 
L 2906 0 
L 2906 525 
Q 2725 213 2448 61 
Q 2172 -91 1784 -91 
Q 1150 -91 751 415 
Q 353 922 353 1747 
Q 353 2572 751 3078 
Q 1150 3584 1784 3584 
Q 2172 3584 2448 3432 
Q 2725 3281 2906 2969 
z
M 947 1747 
Q 947 1113 1208 752 
Q 1469 391 1925 391 
Q 2381 391 2643 752 
Q 2906 1113 2906 1747 
Q 2906 2381 2643 2742 
Q 2381 3103 1925 3103 
Q 1469 3103 1208 2742 
Q 947 2381 947 1747 
z
" transform="scale(0.015625)"/>
      <path id="DejaVuSans-56" d="M 1831 0 
L 50 4666 
L 709 4666 
L 2188 738 
L 3669 4666 
L 4325 4666 
L 2547 0 
L 1831 0 
z
" transform="scale(0.015625)"/>
      <path id="DejaVuSans-6c" d="M 603 4863 
L 1178 4863 
L 1178 0 
L 603 0 
L 603 4863 
z
" transform="scale(0.015625)"/>
     </defs>
     <use xlink:href="#DejaVuSans-54"/>
     <use xlink:href="#DejaVuSans-72" transform="translate(46.333984 0)"/>
     <use xlink:href="#DejaVuSans-61" transform="translate(87.447266 0)"/>
     <use xlink:href="#DejaVuSans-69" transform="translate(148.726562 0)"/>
     <use xlink:href="#DejaVuSans-6e" transform="translate(176.509766 0)"/>
     <use xlink:href="#DejaVuSans-20" transform="translate(239.888672 0)"/>
     <use xlink:href="#DejaVuSans-61" transform="translate(271.675781 0)"/>
     <use xlink:href="#DejaVuSans-6e" transform="translate(332.955078 0)"/>
     <use xlink:href="#DejaVuSans-64" transform="translate(396.333984 0)"/>
     <use xlink:href="#DejaVuSans-20" transform="translate(459.810547 0)"/>
     <use xlink:href="#DejaVuSans-56" transform="translate(491.597656 0)"/>
     <use xlink:href="#DejaVuSans-61" transform="translate(552.255859 0)"/>
     <use xlink:href="#DejaVuSans-6c" transform="translate(613.535156 0)"/>
     <use xlink:href="#DejaVuSans-20" transform="translate(641.318359 0)"/>
     <use xlink:href="#DejaVuSans-41" transform="translate(673.105469 0)"/>
     <use xlink:href="#DejaVuSans-63" transform="translate(739.763672 0)"/>
     <use xlink:href="#DejaVuSans-63" transform="translate(794.744141 0)"/>
     <use xlink:href="#DejaVuSans-75" transform="translate(849.724609 0)"/>
     <use xlink:href="#DejaVuSans-72" transform="translate(913.103516 0)"/>
     <use xlink:href="#DejaVuSans-61" transform="translate(954.216797 0)"/>
     <use xlink:href="#DejaVuSans-63" transform="translate(1015.496094 0)"/>
     <use xlink:href="#DejaVuSans-79" transform="translate(1070.476562 0)"/>
    </g>
   </g>
   <g id="legend_1">
    <g id="patch_7">
     <path d="M 57.14375 74.90875 
L 224.267187 74.90875 
Q 226.267187 74.90875 226.267187 72.90875 
L 226.267187 29.318125 
Q 226.267187 27.318125 224.267187 27.318125 
L 57.14375 27.318125 
Q 55.14375 27.318125 55.14375 29.318125 
L 55.14375 72.90875 
Q 55.14375 74.90875 57.14375 74.90875 
z
" style="fill: #ffffff; opacity: 0.8; stroke: #cccccc; stroke-linejoin: miter"/>
    </g>
    <g id="line2d_38">
     <path d="M 59.14375 35.416562 
L 69.14375 35.416562 
L 79.14375 35.416562 
" style="fill: none; stroke: #1f77b4; stroke-width: 1.5; stroke-linecap: square"/>
    </g>
    <g id="text_21">
     <!-- train_accuracy -->
     <g transform="translate(87.14375 38.916562) scale(0.1 -0.1)">
      <defs>
       <path id="DejaVuSans-74" d="M 1172 4494 
L 1172 3500 
L 2356 3500 
L 2356 3053 
L 1172 3053 
L 1172 1153 
Q 1172 725 1289 603 
Q 1406 481 1766 481 
L 2356 481 
L 2356 0 
L 1766 0 
Q 1100 0 847 248 
Q 594 497 594 1153 
L 594 3053 
L 172 3053 
L 172 3500 
L 594 3500 
L 594 4494 
L 1172 4494 
z
" transform="scale(0.015625)"/>
       <path id="DejaVuSans-5f" d="M 3263 -1063 
L 3263 -1509 
L -63 -1509 
L -63 -1063 
L 3263 -1063 
z
" transform="scale(0.015625)"/>
      </defs>
      <use xlink:href="#DejaVuSans-74"/>
      <use xlink:href="#DejaVuSans-72" transform="translate(39.208984 0)"/>
      <use xlink:href="#DejaVuSans-61" transform="translate(80.322266 0)"/>
      <use xlink:href="#DejaVuSans-69" transform="translate(141.601562 0)"/>
      <use xlink:href="#DejaVuSans-6e" transform="translate(169.384766 0)"/>
      <use xlink:href="#DejaVuSans-5f" transform="translate(232.763672 0)"/>
      <use xlink:href="#DejaVuSans-61" transform="translate(282.763672 0)"/>
      <use xlink:href="#DejaVuSans-63" transform="translate(344.042969 0)"/>
      <use xlink:href="#DejaVuSans-63" transform="translate(399.023438 0)"/>
      <use xlink:href="#DejaVuSans-75" transform="translate(454.003906 0)"/>
      <use xlink:href="#DejaVuSans-72" transform="translate(517.382812 0)"/>
      <use xlink:href="#DejaVuSans-61" transform="translate(558.496094 0)"/>
      <use xlink:href="#DejaVuSans-63" transform="translate(619.775391 0)"/>
      <use xlink:href="#DejaVuSans-79" transform="translate(674.755859 0)"/>
     </g>
    </g>
    <g id="line2d_39">
     <path d="M 59.14375 50.372812 
L 69.14375 50.372812 
L 79.14375 50.372812 
" style="fill: none; stroke: #ff7f0e; stroke-width: 1.5; stroke-linecap: square"/>
    </g>
    <g id="text_22">
     <!-- val_accuracy -->
     <g transform="translate(87.14375 53.872812) scale(0.1 -0.1)">
      <defs>
       <path id="DejaVuSans-76" d="M 191 3500 
L 800 3500 
L 1894 563 
L 2988 3500 
L 3597 3500 
L 2284 0 
L 1503 0 
L 191 3500 
z
" transform="scale(0.015625)"/>
      </defs>
      <use xlink:href="#DejaVuSans-76"/>
      <use xlink:href="#DejaVuSans-61" transform="translate(59.179688 0)"/>
      <use xlink:href="#DejaVuSans-6c" transform="translate(120.458984 0)"/>
      <use xlink:href="#DejaVuSans-5f" transform="translate(148.242188 0)"/>
      <use xlink:href="#DejaVuSans-61" transform="translate(198.242188 0)"/>
      <use xlink:href="#DejaVuSans-63" transform="translate(259.521484 0)"/>
      <use xlink:href="#DejaVuSans-63" transform="translate(314.501953 0)"/>
      <use xlink:href="#DejaVuSans-75" transform="translate(369.482422 0)"/>
      <use xlink:href="#DejaVuSans-72" transform="translate(432.861328 0)"/>
      <use xlink:href="#DejaVuSans-61" transform="translate(473.974609 0)"/>
      <use xlink:href="#DejaVuSans-63" transform="translate(535.253906 0)"/>
      <use xlink:href="#DejaVuSans-79" transform="translate(590.234375 0)"/>
     </g>
    </g>
    <g id="line2d_40">
     <path d="M 59.14375 65.329062 
L 69.14375 65.329062 
L 79.14375 65.329062 
" style="fill: none; stroke-dasharray: 11.1,4.8; stroke-dashoffset: 0; stroke: #ff0000; stroke-width: 3"/>
    </g>
    <g id="text_23">
     <!-- Random-Guesser Accuracy -->
     <g transform="translate(87.14375 68.829062) scale(0.1 -0.1)">
      <defs>
       <path id="DejaVuSans-52" d="M 2841 2188 
Q 3044 2119 3236 1894 
Q 3428 1669 3622 1275 
L 4263 0 
L 3584 0 
L 2988 1197 
Q 2756 1666 2539 1819 
Q 2322 1972 1947 1972 
L 1259 1972 
L 1259 0 
L 628 0 
L 628 4666 
L 2053 4666 
Q 2853 4666 3247 4331 
Q 3641 3997 3641 3322 
Q 3641 2881 3436 2590 
Q 3231 2300 2841 2188 
z
M 1259 4147 
L 1259 2491 
L 2053 2491 
Q 2509 2491 2742 2702 
Q 2975 2913 2975 3322 
Q 2975 3731 2742 3939 
Q 2509 4147 2053 4147 
L 1259 4147 
z
" transform="scale(0.015625)"/>
       <path id="DejaVuSans-6d" d="M 3328 2828 
Q 3544 3216 3844 3400 
Q 4144 3584 4550 3584 
Q 5097 3584 5394 3201 
Q 5691 2819 5691 2113 
L 5691 0 
L 5113 0 
L 5113 2094 
Q 5113 2597 4934 2840 
Q 4756 3084 4391 3084 
Q 3944 3084 3684 2787 
Q 3425 2491 3425 1978 
L 3425 0 
L 2847 0 
L 2847 2094 
Q 2847 2600 2669 2842 
Q 2491 3084 2119 3084 
Q 1678 3084 1418 2786 
Q 1159 2488 1159 1978 
L 1159 0 
L 581 0 
L 581 3500 
L 1159 3500 
L 1159 2956 
Q 1356 3278 1631 3431 
Q 1906 3584 2284 3584 
Q 2666 3584 2933 3390 
Q 3200 3197 3328 2828 
z
" transform="scale(0.015625)"/>
       <path id="DejaVuSans-2d" d="M 313 2009 
L 1997 2009 
L 1997 1497 
L 313 1497 
L 313 2009 
z
" transform="scale(0.015625)"/>
       <path id="DejaVuSans-47" d="M 3809 666 
L 3809 1919 
L 2778 1919 
L 2778 2438 
L 4434 2438 
L 4434 434 
Q 4069 175 3628 42 
Q 3188 -91 2688 -91 
Q 1594 -91 976 548 
Q 359 1188 359 2328 
Q 359 3472 976 4111 
Q 1594 4750 2688 4750 
Q 3144 4750 3555 4637 
Q 3966 4525 4313 4306 
L 4313 3634 
Q 3963 3931 3569 4081 
Q 3175 4231 2741 4231 
Q 1884 4231 1454 3753 
Q 1025 3275 1025 2328 
Q 1025 1384 1454 906 
Q 1884 428 2741 428 
Q 3075 428 3337 486 
Q 3600 544 3809 666 
z
" transform="scale(0.015625)"/>
       <path id="DejaVuSans-65" d="M 3597 1894 
L 3597 1613 
L 953 1613 
Q 991 1019 1311 708 
Q 1631 397 2203 397 
Q 2534 397 2845 478 
Q 3156 559 3463 722 
L 3463 178 
Q 3153 47 2828 -22 
Q 2503 -91 2169 -91 
Q 1331 -91 842 396 
Q 353 884 353 1716 
Q 353 2575 817 3079 
Q 1281 3584 2069 3584 
Q 2775 3584 3186 3129 
Q 3597 2675 3597 1894 
z
M 3022 2063 
Q 3016 2534 2758 2815 
Q 2500 3097 2075 3097 
Q 1594 3097 1305 2825 
Q 1016 2553 972 2059 
L 3022 2063 
z
" transform="scale(0.015625)"/>
      </defs>
      <use xlink:href="#DejaVuSans-52"/>
      <use xlink:href="#DejaVuSans-61" transform="translate(67.232422 0)"/>
      <use xlink:href="#DejaVuSans-6e" transform="translate(128.511719 0)"/>
      <use xlink:href="#DejaVuSans-64" transform="translate(191.890625 0)"/>
      <use xlink:href="#DejaVuSans-6f" transform="translate(255.367188 0)"/>
      <use xlink:href="#DejaVuSans-6d" transform="translate(316.548828 0)"/>
      <use xlink:href="#DejaVuSans-2d" transform="translate(413.960938 0)"/>
      <use xlink:href="#DejaVuSans-47" transform="translate(453.669922 0)"/>
      <use xlink:href="#DejaVuSans-75" transform="translate(531.160156 0)"/>
      <use xlink:href="#DejaVuSans-65" transform="translate(594.539062 0)"/>
      <use xlink:href="#DejaVuSans-73" transform="translate(656.0625 0)"/>
      <use xlink:href="#DejaVuSans-73" transform="translate(708.162109 0)"/>
      <use xlink:href="#DejaVuSans-65" transform="translate(760.261719 0)"/>
      <use xlink:href="#DejaVuSans-72" transform="translate(821.785156 0)"/>
      <use xlink:href="#DejaVuSans-20" transform="translate(862.898438 0)"/>
      <use xlink:href="#DejaVuSans-41" transform="translate(894.685547 0)"/>
      <use xlink:href="#DejaVuSans-63" transform="translate(961.34375 0)"/>
      <use xlink:href="#DejaVuSans-63" transform="translate(1016.324219 0)"/>
      <use xlink:href="#DejaVuSans-75" transform="translate(1071.304688 0)"/>
      <use xlink:href="#DejaVuSans-72" transform="translate(1134.683594 0)"/>
      <use xlink:href="#DejaVuSans-61" transform="translate(1175.796875 0)"/>
      <use xlink:href="#DejaVuSans-63" transform="translate(1237.076172 0)"/>
      <use xlink:href="#DejaVuSans-79" transform="translate(1292.056641 0)"/>
     </g>
    </g>
   </g>
  </g>
 </g>
 <defs>
  <clipPath id="p62f9bc7683">
   <rect x="50.14375" y="22.318125" width="558" height="554.4"/>
  </clipPath>
 </defs>
</svg>
