<?xml version="1.0" encoding="utf-8" standalone="no"?>
<!DOCTYPE svg PUBLIC "-//W3C//DTD SVG 1.1//EN"
  "http://www.w3.org/Graphics/SVG/1.1/DTD/svg11.dtd">
<svg xmlns:xlink="http://www.w3.org/1999/xlink" width="608.98125pt" height="614.274375pt" viewBox="0 0 608.98125 614.274375" xmlns="http://www.w3.org/2000/svg" version="1.1">
 <metadata>
  <rdf:RDF xmlns:dc="http://purl.org/dc/elements/1.1/" xmlns:cc="http://creativecommons.org/ns#" xmlns:rdf="http://www.w3.org/1999/02/22-rdf-syntax-ns#">
   <cc:Work>
    <dc:type rdf:resource="http://purl.org/dc/dcmitype/StillImage"/>
    <dc:date>2026-06-03T23:46:55.377696</dc:date>
    <dc:format>image/svg+xml</dc:format>
    <dc:creator>
     <cc:Agent>
      <dc:title>Matplotlib v3.10.9, https://matplotlib.org/</dc:title>
     </cc:Agent>
    </dc:creator>
   </cc:Work>
  </rdf:RDF>
 </metadata>
 <defs>
  <style type="text/css">*{stroke-linejoin: round; stroke-linecap: butt}</style>
 </defs>
 <g id="figure_1">
  <g id="patch_1">
   <path d="M 0 614.274375 
L 608.98125 614.274375 
L 608.98125 0 
L 0 0 
z
" style="fill: #ffffff"/>
  </g>
  <g id="axes_1">
   <g id="patch_2">
    <path d="M 43.78125 576.718125 
L 601.78125 576.718125 
L 601.78125 22.318125 
L 43.78125 22.318125 
z
" style="fill: #ffffff"/>
   </g>
   <g id="matplotlib.axis_1">
    <g id="xtick_1">
     <g id="line2d_1">
      <path d="M 69.144886 576.718125 
L 69.144886 22.318125 
" clip-path="url(#pd58bd5eec1)" style="fill: none; stroke: #b0b0b0; stroke-width: 0.8; stroke-linecap: square"/>
     </g>
     <g id="line2d_2">
      <defs>
       <path id="m856f26c113" d="M 0 0 
L 0 3.5 
" style="stroke: #000000; stroke-width: 0.8"/>
      </defs>
      <g>
       <use xlink:href="#m856f26c113" x="69.144886" y="576.718125" style="stroke: #000000; stroke-width: 0.8"/>
      </g>
     </g>
     <g id="text_1">
      <!-- 0 -->
      <g transform="translate(65.963636 591.316563) scale(0.1 -0.1)">
       <defs>
        <path id="DejaVuSans-30" d="M 2034 4250 
Q 1547 4250 1301 3770 
Q 1056 3291 1056 2328 
Q 1056 1369 1301 889 
Q 1547 409 2034 409 
Q 2525 409 2770 889 
Q 3016 1369 3016 2328 
Q 3016 3291 2770 3770 
Q 2525 4250 2034 4250 
z
M 2034 4750 
Q 2819 4750 3233 4129 
Q 3647 3509 3647 2328 
Q 3647 1150 3233 529 
Q 2819 -91 2034 -91 
Q 1250 -91 836 529 
Q 422 1150 422 2328 
Q 422 3509 836 4129 
Q 1250 4750 2034 4750 
z
" transform="scale(0.015625)"/>
       </defs>
       <use xlink:href="#DejaVuSans-30"/>
      </g>
     </g>
    </g>
    <g id="xtick_2">
     <g id="line2d_3">
      <path d="M 132.633338 576.718125 
L 132.633338 22.318125 
" clip-path="url(#pd58bd5eec1)" style="fill: none; stroke: #b0b0b0; stroke-width: 0.8; stroke-linecap: square"/>
     </g>
     <g id="line2d_4">
      <g>
       <use xlink:href="#m856f26c113" x="132.633338" y="576.718125" style="stroke: #000000; stroke-width: 0.8"/>
      </g>
     </g>
     <g id="text_2">
      <!-- 100 -->
      <g transform="translate(123.089588 591.316563) scale(0.1 -0.1)">
       <defs>
        <path id="DejaVuSans-31" d="M 794 531 
L 1825 531 
L 1825 4091 
L 703 3866 
L 703 4441 
L 1819 4666 
L 2450 4666 
L 2450 531 
L 3481 531 
L 3481 0 
L 794 0 
L 794 531 
z
" transform="scale(0.015625)"/>
       </defs>
       <use xlink:href="#DejaVuSans-31"/>
       <use xlink:href="#DejaVuSans-30" transform="translate(63.623047 0)"/>
       <use xlink:href="#DejaVuSans-30" transform="translate(127.246094 0)"/>
      </g>
     </g>
    </g>
    <g id="xtick_3">
     <g id="line2d_5">
      <path d="M 196.121789 576.718125 
L 196.121789 22.318125 
" clip-path="url(#pd58bd5eec1)" style="fill: none; stroke: #b0b0b0; stroke-width: 0.8; stroke-linecap: square"/>
     </g>
     <g id="line2d_6">
      <g>
       <use xlink:href="#m856f26c113" x="196.121789" y="576.718125" style="stroke: #000000; stroke-width: 0.8"/>
      </g>
     </g>
     <g id="text_3">
      <!-- 200 -->
      <g transform="translate(186.578039 591.316563) scale(0.1 -0.1)">
       <defs>
        <path id="DejaVuSans-32" d="M 1228 531 
L 3431 531 
L 3431 0 
L 469 0 
L 469 531 
Q 828 903 1448 1529 
Q 2069 2156 2228 2338 
Q 2531 2678 2651 2914 
Q 2772 3150 2772 3378 
Q 2772 3750 2511 3984 
Q 2250 4219 1831 4219 
Q 1534 4219 1204 4116 
Q 875 4013 500 3803 
L 500 4441 
Q 881 4594 1212 4672 
Q 1544 4750 1819 4750 
Q 2544 4750 2975 4387 
Q 3406 4025 3406 3419 
Q 3406 3131 3298 2873 
Q 3191 2616 2906 2266 
Q 2828 2175 2409 1742 
Q 1991 1309 1228 531 
z
" transform="scale(0.015625)"/>
       </defs>
       <use xlink:href="#DejaVuSans-32"/>
       <use xlink:href="#DejaVuSans-30" transform="translate(63.623047 0)"/>
       <use xlink:href="#DejaVuSans-30" transform="translate(127.246094 0)"/>
      </g>
     </g>
    </g>
    <g id="xtick_4">
     <g id="line2d_7">
      <path d="M 259.610241 576.718125 
L 259.610241 22.318125 
" clip-path="url(#pd58bd5eec1)" style="fill: none; stroke: #b0b0b0; stroke-width: 0.8; stroke-linecap: square"/>
     </g>
     <g id="line2d_8">
      <g>
       <use xlink:href="#m856f26c113" x="259.610241" y="576.718125" style="stroke: #000000; stroke-width: 0.8"/>
      </g>
     </g>
     <g id="text_4">
      <!-- 300 -->
      <g transform="translate(250.066491 591.316563) scale(0.1 -0.1)">
       <defs>
        <path id="DejaVuSans-33" d="M 2597 2516 
Q 3050 2419 3304 2112 
Q 3559 1806 3559 1356 
Q 3559 666 3084 287 
Q 2609 -91 1734 -91 
Q 1441 -91 1130 -33 
Q 819 25 488 141 
L 488 750 
Q 750 597 1062 519 
Q 1375 441 1716 441 
Q 2309 441 2620 675 
Q 2931 909 2931 1356 
Q 2931 1769 2642 2001 
Q 2353 2234 1838 2234 
L 1294 2234 
L 1294 2753 
L 1863 2753 
Q 2328 2753 2575 2939 
Q 2822 3125 2822 3475 
Q 2822 3834 2567 4026 
Q 2313 4219 1838 4219 
Q 1578 4219 1281 4162 
Q 984 4106 628 3988 
L 628 4550 
Q 988 4650 1302 4700 
Q 1616 4750 1894 4750 
Q 2613 4750 3031 4423 
Q 3450 4097 3450 3541 
Q 3450 3153 3228 2886 
Q 3006 2619 2597 2516 
z
" transform="scale(0.015625)"/>
       </defs>
       <use xlink:href="#DejaVuSans-33"/>
       <use xlink:href="#DejaVuSans-30" transform="translate(63.623047 0)"/>
       <use xlink:href="#DejaVuSans-30" transform="translate(127.246094 0)"/>
      </g>
     </g>
    </g>
    <g id="xtick_5">
     <g id="line2d_9">
      <path d="M 323.098692 576.718125 
L 323.098692 22.318125 
" clip-path="url(#pd58bd5eec1)" style="fill: none; stroke: #b0b0b0; stroke-width: 0.8; stroke-linecap: square"/>
     </g>
     <g id="line2d_10">
      <g>
       <use xlink:href="#m856f26c113" x="323.098692" y="576.718125" style="stroke: #000000; stroke-width: 0.8"/>
      </g>
     </g>
     <g id="text_5">
      <!-- 400 -->
      <g transform="translate(313.554942 591.316563) scale(0.1 -0.1)">
       <defs>
        <path id="DejaVuSans-34" d="M 2419 4116 
L 825 1625 
L 2419 1625 
L 2419 4116 
z
M 2253 4666 
L 3047 4666 
L 3047 1625 
L 3713 1625 
L 3713 1100 
L 3047 1100 
L 3047 0 
L 2419 0 
L 2419 1100 
L 313 1100 
L 313 1709 
L 2253 4666 
z
" transform="scale(0.015625)"/>
       </defs>
       <use xlink:href="#DejaVuSans-34"/>
       <use xlink:href="#DejaVuSans-30" transform="translate(63.623047 0)"/>
       <use xlink:href="#DejaVuSans-30" transform="translate(127.246094 0)"/>
      </g>
     </g>
    </g>
    <g id="xtick_6">
     <g id="line2d_11">
      <path d="M 386.587144 576.718125 
L 386.587144 22.318125 
" clip-path="url(#pd58bd5eec1)" style="fill: none; stroke: #b0b0b0; stroke-width: 0.8; stroke-linecap: square"/>
     </g>
     <g id="line2d_12">
      <g>
       <use xlink:href="#m856f26c113" x="386.587144" y="576.718125" style="stroke: #000000; stroke-width: 0.8"/>
      </g>
     </g>
     <g id="text_6">
      <!-- 500 -->
      <g transform="translate(377.043394 591.316563) scale(0.1 -0.1)">
       <defs>
        <path id="DejaVuSans-35" d="M 691 4666 
L 3169 4666 
L 3169 4134 
L 1269 4134 
L 1269 2991 
Q 1406 3038 1543 3061 
Q 1681 3084 1819 3084 
Q 2600 3084 3056 2656 
Q 3513 2228 3513 1497 
Q 3513 744 3044 326 
Q 2575 -91 1722 -91 
Q 1428 -91 1123 -41 
Q 819 9 494 109 
L 494 744 
Q 775 591 1075 516 
Q 1375 441 1709 441 
Q 2250 441 2565 725 
Q 2881 1009 2881 1497 
Q 2881 1984 2565 2268 
Q 2250 2553 1709 2553 
Q 1456 2553 1204 2497 
Q 953 2441 691 2322 
L 691 4666 
z
" transform="scale(0.015625)"/>
       </defs>
       <use xlink:href="#DejaVuSans-35"/>
       <use xlink:href="#DejaVuSans-30" transform="translate(63.623047 0)"/>
       <use xlink:href="#DejaVuSans-30" transform="translate(127.246094 0)"/>
      </g>
     </g>
    </g>
    <g id="xtick_7">
     <g id="line2d_13">
      <path d="M 450.075595 576.718125 
L 450.075595 22.318125 
" clip-path="url(#pd58bd5eec1)" style="fill: none; stroke: #b0b0b0; stroke-width: 0.8; stroke-linecap: square"/>
     </g>
     <g id="line2d_14">
      <g>
       <use xlink:href="#m856f26c113" x="450.075595" y="576.718125" style="stroke: #000000; stroke-width: 0.8"/>
      </g>
     </g>
     <g id="text_7">
      <!-- 600 -->
      <g transform="translate(440.531845 591.316563) scale(0.1 -0.1)">
       <defs>
        <path id="DejaVuSans-36" d="M 2113 2584 
Q 1688 2584 1439 2293 
Q 1191 2003 1191 1497 
Q 1191 994 1439 701 
Q 1688 409 2113 409 
Q 2538 409 2786 701 
Q 3034 994 3034 1497 
Q 3034 2003 2786 2293 
Q 2538 2584 2113 2584 
z
M 3366 4563 
L 3366 3988 
Q 3128 4100 2886 4159 
Q 2644 4219 2406 4219 
Q 1781 4219 1451 3797 
Q 1122 3375 1075 2522 
Q 1259 2794 1537 2939 
Q 1816 3084 2150 3084 
Q 2853 3084 3261 2657 
Q 3669 2231 3669 1497 
Q 3669 778 3244 343 
Q 2819 -91 2113 -91 
Q 1303 -91 875 529 
Q 447 1150 447 2328 
Q 447 3434 972 4092 
Q 1497 4750 2381 4750 
Q 2619 4750 2861 4703 
Q 3103 4656 3366 4563 
z
" transform="scale(0.015625)"/>
       </defs>
       <use xlink:href="#DejaVuSans-36"/>
       <use xlink:href="#DejaVuSans-30" transform="translate(63.623047 0)"/>
       <use xlink:href="#DejaVuSans-30" transform="translate(127.246094 0)"/>
      </g>
     </g>
    </g>
    <g id="xtick_8">
     <g id="line2d_15">
      <path d="M 513.564047 576.718125 
L 513.564047 22.318125 
" clip-path="url(#pd58bd5eec1)" style="fill: none; stroke: #b0b0b0; stroke-width: 0.8; stroke-linecap: square"/>
     </g>
     <g id="line2d_16">
      <g>
       <use xlink:href="#m856f26c113" x="513.564047" y="576.718125" style="stroke: #000000; stroke-width: 0.8"/>
      </g>
     </g>
     <g id="text_8">
      <!-- 700 -->
      <g transform="translate(504.020297 591.316563) scale(0.1 -0.1)">
       <defs>
        <path id="DejaVuSans-37" d="M 525 4666 
L 3525 4666 
L 3525 4397 
L 1831 0 
L 1172 0 
L 2766 4134 
L 525 4134 
L 525 4666 
z
" transform="scale(0.015625)"/>
       </defs>
       <use xlink:href="#DejaVuSans-37"/>
       <use xlink:href="#DejaVuSans-30" transform="translate(63.623047 0)"/>
       <use xlink:href="#DejaVuSans-30" transform="translate(127.246094 0)"/>
      </g>
     </g>
    </g>
    <g id="xtick_9">
     <g id="line2d_17">
      <path d="M 577.052498 576.718125 
L 577.052498 22.318125 
" clip-path="url(#pd58bd5eec1)" style="fill: none; stroke: #b0b0b0; stroke-width: 0.8; stroke-linecap: square"/>
     </g>
     <g id="line2d_18">
      <g>
       <use xlink:href="#m856f26c113" x="577.052498" y="576.718125" style="stroke: #000000; stroke-width: 0.8"/>
      </g>
     </g>
     <g id="text_9">
      <!-- 800 -->
      <g transform="translate(567.508748 591.316563) scale(0.1 -0.1)">
       <defs>
        <path id="DejaVuSans-38" d="M 2034 2216 
Q 1584 2216 1326 1975 
Q 1069 1734 1069 1313 
Q 1069 891 1326 650 
Q 1584 409 2034 409 
Q 2484 409 2743 651 
Q 3003 894 3003 1313 
Q 3003 1734 2745 1975 
Q 2488 2216 2034 2216 
z
M 1403 2484 
Q 997 2584 770 2862 
Q 544 3141 544 3541 
Q 544 4100 942 4425 
Q 1341 4750 2034 4750 
Q 2731 4750 3128 4425 
Q 3525 4100 3525 3541 
Q 3525 3141 3298 2862 
Q 3072 2584 2669 2484 
Q 3125 2378 3379 2068 
Q 3634 1759 3634 1313 
Q 3634 634 3220 271 
Q 2806 -91 2034 -91 
Q 1263 -91 848 271 
Q 434 634 434 1313 
Q 434 1759 690 2068 
Q 947 2378 1403 2484 
z
M 1172 3481 
Q 1172 3119 1398 2916 
Q 1625 2713 2034 2713 
Q 2441 2713 2670 2916 
Q 2900 3119 2900 3481 
Q 2900 3844 2670 4047 
Q 2441 4250 2034 4250 
Q 1625 4250 1398 4047 
Q 1172 3844 1172 3481 
z
" transform="scale(0.015625)"/>
       </defs>
       <use xlink:href="#DejaVuSans-38"/>
       <use xlink:href="#DejaVuSans-30" transform="translate(63.623047 0)"/>
       <use xlink:href="#DejaVuSans-30" transform="translate(127.246094 0)"/>
      </g>
     </g>
    </g>
    <g id="text_10">
     <!-- Epochs -->
     <g transform="translate(304.865625 604.994688) scale(0.1 -0.1)">
      <defs>
       <path id="DejaVuSans-45" d="M 628 4666 
L 3578 4666 
L 3578 4134 
L 1259 4134 
L 1259 2753 
L 3481 2753 
L 3481 2222 
L 1259 2222 
L 1259 531 
L 3634 531 
L 3634 0 
L 628 0 
L 628 4666 
z
" transform="scale(0.015625)"/>
       <path id="DejaVuSans-70" d="M 1159 525 
L 1159 -1331 
L 581 -1331 
L 581 3500 
L 1159 3500 
L 1159 2969 
Q 1341 3281 1617 3432 
Q 1894 3584 2278 3584 
Q 2916 3584 3314 3078 
Q 3713 2572 3713 1747 
Q 3713 922 3314 415 
Q 2916 -91 2278 -91 
Q 1894 -91 1617 61 
Q 1341 213 1159 525 
z
M 3116 1747 
Q 3116 2381 2855 2742 
Q 2594 3103 2138 3103 
Q 1681 3103 1420 2742 
Q 1159 2381 1159 1747 
Q 1159 1113 1420 752 
Q 1681 391 2138 391 
Q 2594 391 2855 752 
Q 3116 1113 3116 1747 
z
" transform="scale(0.015625)"/>
       <path id="DejaVuSans-6f" d="M 1959 3097 
Q 1497 3097 1228 2736 
Q 959 2375 959 1747 
Q 959 1119 1226 758 
Q 1494 397 1959 397 
Q 2419 397 2687 759 
Q 2956 1122 2956 1747 
Q 2956 2369 2687 2733 
Q 2419 3097 1959 3097 
z
M 1959 3584 
Q 2709 3584 3137 3096 
Q 3566 2609 3566 1747 
Q 3566 888 3137 398 
Q 2709 -91 1959 -91 
Q 1206 -91 779 398 
Q 353 888 353 1747 
Q 353 2609 779 3096 
Q 1206 3584 1959 3584 
z
" transform="scale(0.015625)"/>
       <path id="DejaVuSans-63" d="M 3122 3366 
L 3122 2828 
Q 2878 2963 2633 3030 
Q 2388 3097 2138 3097 
Q 1578 3097 1268 2742 
Q 959 2388 959 1747 
Q 959 1106 1268 751 
Q 1578 397 2138 397 
Q 2388 397 2633 464 
Q 2878 531 3122 666 
L 3122 134 
Q 2881 22 2623 -34 
Q 2366 -91 2075 -91 
Q 1284 -91 818 406 
Q 353 903 353 1747 
Q 353 2603 823 3093 
Q 1294 3584 2113 3584 
Q 2378 3584 2631 3529 
Q 2884 3475 3122 3366 
z
" transform="scale(0.015625)"/>
       <path id="DejaVuSans-68" d="M 3513 2113 
L 3513 0 
L 2938 0 
L 2938 2094 
Q 2938 2591 2744 2837 
Q 2550 3084 2163 3084 
Q 1697 3084 1428 2787 
Q 1159 2491 1159 1978 
L 1159 0 
L 581 0 
L 581 4863 
L 1159 4863 
L 1159 2956 
Q 1366 3272 1645 3428 
Q 1925 3584 2291 3584 
Q 2894 3584 3203 3211 
Q 3513 2838 3513 2113 
z
" transform="scale(0.015625)"/>
       <path id="DejaVuSans-73" d="M 2834 3397 
L 2834 2853 
Q 2591 2978 2328 3040 
Q 2066 3103 1784 3103 
Q 1356 3103 1142 2972 
Q 928 2841 928 2578 
Q 928 2378 1081 2264 
Q 1234 2150 1697 2047 
L 1894 2003 
Q 2506 1872 2764 1633 
Q 3022 1394 3022 966 
Q 3022 478 2636 193 
Q 2250 -91 1575 -91 
Q 1294 -91 989 -36 
Q 684 19 347 128 
L 347 722 
Q 666 556 975 473 
Q 1284 391 1588 391 
Q 1994 391 2212 530 
Q 2431 669 2431 922 
Q 2431 1156 2273 1281 
Q 2116 1406 1581 1522 
L 1381 1569 
Q 847 1681 609 1914 
Q 372 2147 372 2553 
Q 372 3047 722 3315 
Q 1072 3584 1716 3584 
Q 2034 3584 2315 3537 
Q 2597 3491 2834 3397 
z
" transform="scale(0.015625)"/>
      </defs>
      <use xlink:href="#DejaVuSans-45"/>
      <use xlink:href="#DejaVuSans-70" transform="translate(63.183594 0)"/>
      <use xlink:href="#DejaVuSans-6f" transform="translate(126.660156 0)"/>
      <use xlink:href="#DejaVuSans-63" transform="translate(187.841797 0)"/>
      <use xlink:href="#DejaVuSans-68" transform="translate(242.822266 0)"/>
      <use xlink:href="#DejaVuSans-73" transform="translate(306.201172 0)"/>
     </g>
    </g>
   </g>
   <g id="matplotlib.axis_2">
    <g id="ytick_1">
     <g id="line2d_19">
      <path d="M 43.78125 553.769742 
L 601.78125 553.769742 
" clip-path="url(#pd58bd5eec1)" style="fill: none; stroke: #b0b0b0; stroke-width: 0.8; stroke-linecap: square"/>
     </g>
     <g id="line2d_20">
      <defs>
       <path id="m33eb4fda30" d="M 0 0 
L -3.5 0 
" style="stroke: #000000; stroke-width: 0.8"/>
      </defs>
      <g>
       <use xlink:href="#m33eb4fda30" x="43.78125" y="553.769742" style="stroke: #000000; stroke-width: 0.8"/>
      </g>
     </g>
     <g id="text_11">
      <!-- 0.0 -->
      <g transform="translate(20.878125 557.568961) scale(0.1 -0.1)">
       <defs>
        <path id="DejaVuSans-2e" d="M 684 794 
L 1344 794 
L 1344 0 
L 684 0 
L 684 794 
z
" transform="scale(0.015625)"/>
       </defs>
       <use xlink:href="#DejaVuSans-30"/>
       <use xlink:href="#DejaVuSans-2e" transform="translate(63.623047 0)"/>
       <use xlink:href="#DejaVuSans-30" transform="translate(95.410156 0)"/>
      </g>
     </g>
    </g>
    <g id="ytick_2">
     <g id="line2d_21">
      <path d="M 43.78125 438.48694 
L 601.78125 438.48694 
" clip-path="url(#pd58bd5eec1)" style="fill: none; stroke: #b0b0b0; stroke-width: 0.8; stroke-linecap: square"/>
     </g>
     <g id="line2d_22">
      <g>
       <use xlink:href="#m33eb4fda30" x="43.78125" y="438.48694" style="stroke: #000000; stroke-width: 0.8"/>
      </g>
     </g>
     <g id="text_12">
      <!-- 0.2 -->
      <g transform="translate(20.878125 442.286159) scale(0.1 -0.1)">
       <use xlink:href="#DejaVuSans-30"/>
       <use xlink:href="#DejaVuSans-2e" transform="translate(63.623047 0)"/>
       <use xlink:href="#DejaVuSans-32" transform="translate(95.410156 0)"/>
      </g>
     </g>
    </g>
    <g id="ytick_3">
     <g id="line2d_23">
      <path d="M 43.78125 323.204138 
L 601.78125 323.204138 
" clip-path="url(#pd58bd5eec1)" style="fill: none; stroke: #b0b0b0; stroke-width: 0.8; stroke-linecap: square"/>
     </g>
     <g id="line2d_24">
      <g>
       <use xlink:href="#m33eb4fda30" x="43.78125" y="323.204138" style="stroke: #000000; stroke-width: 0.8"/>
      </g>
     </g>
     <g id="text_13">
      <!-- 0.4 -->
      <g transform="translate(20.878125 327.003357) scale(0.1 -0.1)">
       <use xlink:href="#DejaVuSans-30"/>
       <use xlink:href="#DejaVuSans-2e" transform="translate(63.623047 0)"/>
       <use xlink:href="#DejaVuSans-34" transform="translate(95.410156 0)"/>
      </g>
     </g>
    </g>
    <g id="ytick_4">
     <g id="line2d_25">
      <path d="M 43.78125 207.921336 
L 601.78125 207.921336 
" clip-path="url(#pd58bd5eec1)" style="fill: none; stroke: #b0b0b0; stroke-width: 0.8; stroke-linecap: square"/>
     </g>
     <g id="line2d_26">
      <g>
       <use xlink:href="#m33eb4fda30" x="43.78125" y="207.921336" style="stroke: #000000; stroke-width: 0.8"/>
      </g>
     </g>
     <g id="text_14">
      <!-- 0.6 -->
      <g transform="translate(20.878125 211.720554) scale(0.1 -0.1)">
       <use xlink:href="#DejaVuSans-30"/>
       <use xlink:href="#DejaVuSans-2e" transform="translate(63.623047 0)"/>
       <use xlink:href="#DejaVuSans-36" transform="translate(95.410156 0)"/>
      </g>
     </g>
    </g>
    <g id="ytick_5">
     <g id="line2d_27">
      <path d="M 43.78125 92.638533 
L 601.78125 92.638533 
" clip-path="url(#pd58bd5eec1)" style="fill: none; stroke: #b0b0b0; stroke-width: 0.8; stroke-linecap: square"/>
     </g>
     <g id="line2d_28">
      <g>
       <use xlink:href="#m33eb4fda30" x="43.78125" y="92.638533" style="stroke: #000000; stroke-width: 0.8"/>
      </g>
     </g>
     <g id="text_15">
      <!-- 0.8 -->
      <g transform="translate(20.878125 96.437752) scale(0.1 -0.1)">
       <use xlink:href="#DejaVuSans-30"/>
       <use xlink:href="#DejaVuSans-2e" transform="translate(63.623047 0)"/>
       <use xlink:href="#DejaVuSans-38" transform="translate(95.410156 0)"/>
      </g>
     </g>
    </g>
    <g id="text_16">
     <!-- Accuracy -->
     <g transform="translate(14.798438 322.34625) rotate(-90) scale(0.1 -0.1)">
      <defs>
       <path id="DejaVuSans-41" d="M 2188 4044 
L 1331 1722 
L 3047 1722 
L 2188 4044 
z
M 1831 4666 
L 2547 4666 
L 4325 0 
L 3669 0 
L 3244 1197 
L 1141 1197 
L 716 0 
L 50 0 
L 1831 4666 
z
" transform="scale(0.015625)"/>
       <path id="DejaVuSans-75" d="M 544 1381 
L 544 3500 
L 1119 3500 
L 1119 1403 
Q 1119 906 1312 657 
Q 1506 409 1894 409 
Q 2359 409 2629 706 
Q 2900 1003 2900 1516 
L 2900 3500 
L 3475 3500 
L 3475 0 
L 2900 0 
L 2900 538 
Q 2691 219 2414 64 
Q 2138 -91 1772 -91 
Q 1169 -91 856 284 
Q 544 659 544 1381 
z
M 1991 3584 
L 1991 3584 
z
" transform="scale(0.015625)"/>
       <path id="DejaVuSans-72" d="M 2631 2963 
Q 2534 3019 2420 3045 
Q 2306 3072 2169 3072 
Q 1681 3072 1420 2755 
Q 1159 2438 1159 1844 
L 1159 0 
L 581 0 
L 581 3500 
L 1159 3500 
L 1159 2956 
Q 1341 3275 1631 3429 
Q 1922 3584 2338 3584 
Q 2397 3584 2469 3576 
Q 2541 3569 2628 3553 
L 2631 2963 
z
" transform="scale(0.015625)"/>
       <path id="DejaVuSans-61" d="M 2194 1759 
Q 1497 1759 1228 1600 
Q 959 1441 959 1056 
Q 959 750 1161 570 
Q 1363 391 1709 391 
Q 2188 391 2477 730 
Q 2766 1069 2766 1631 
L 2766 1759 
L 2194 1759 
z
M 3341 1997 
L 3341 0 
L 2766 0 
L 2766 531 
Q 2569 213 2275 61 
Q 1981 -91 1556 -91 
Q 1019 -91 701 211 
Q 384 513 384 1019 
Q 384 1609 779 1909 
Q 1175 2209 1959 2209 
L 2766 2209 
L 2766 2266 
Q 2766 2663 2505 2880 
Q 2244 3097 1772 3097 
Q 1472 3097 1187 3025 
Q 903 2953 641 2809 
L 641 3341 
Q 956 3463 1253 3523 
Q 1550 3584 1831 3584 
Q 2591 3584 2966 3190 
Q 3341 2797 3341 1997 
z
" transform="scale(0.015625)"/>
       <path id="DejaVuSans-79" d="M 2059 -325 
Q 1816 -950 1584 -1140 
Q 1353 -1331 966 -1331 
L 506 -1331 
L 506 -850 
L 844 -850 
Q 1081 -850 1212 -737 
Q 1344 -625 1503 -206 
L 1606 56 
L 191 3500 
L 800 3500 
L 1894 763 
L 2988 3500 
L 3597 3500 
L 2059 -325 
z
" transform="scale(0.015625)"/>
      </defs>
      <use xlink:href="#DejaVuSans-41"/>
      <use xlink:href="#DejaVuSans-63" transform="translate(66.658203 0)"/>
      <use xlink:href="#DejaVuSans-63" transform="translate(121.638672 0)"/>
      <use xlink:href="#DejaVuSans-75" transform="translate(176.619141 0)"/>
      <use xlink:href="#DejaVuSans-72" transform="translate(239.998047 0)"/>
      <use xlink:href="#DejaVuSans-61" transform="translate(281.111328 0)"/>
      <use xlink:href="#DejaVuSans-63" transform="translate(342.390625 0)"/>
      <use xlink:href="#DejaVuSans-79" transform="translate(397.371094 0)"/>
     </g>
    </g>
   </g>
   <g id="line2d_29">
    <path d="M 69.144886 363.449044 
L 69.779771 314.860548 
L 70.414655 294.255344 
L 71.04954 281.73275 
L 72.319309 268.542481 
L 73.589078 261.532632 
L 74.223962 258.818707 
L 74.858847 255.489897 
L 76.128616 251.206822 
L 78.03327 243.016949 
L 80.572808 233.550956 
L 81.842577 228.939634 
L 84.382115 221.502282 
L 85.016999 220.202146 
L 85.651884 218.17189 
L 87.556537 214.167416 
L 88.191422 212.543844 
L 88.826306 211.402231 
L 89.461191 209.801094 
L 90.096075 209.000508 
L 91.365844 206.558759 
L 92.000729 205.82383 
L 92.635613 204.230698 
L 93.905382 202.216453 
L 94.540267 201.784139 
L 95.175151 200.301465 
L 95.810036 199.481674 
L 96.44492 198.224759 
L 97.079805 197.444994 
L 97.71469 196.282561 
L 98.349574 195.824651 
L 98.984459 194.362797 
L 99.619343 193.698334 
L 100.254228 192.575926 
L 102.793766 189.123843 
L 103.42865 188.123128 
L 104.698419 186.847008 
L 105.968188 184.461295 
L 108.507726 181.728131 
L 109.142611 181.214151 
L 109.777495 180.059723 
L 111.047264 178.67634 
L 112.317033 176.857415 
L 112.951918 175.706182 
L 113.586802 175.522063 
L 114.221687 174.756727 
L 114.856571 173.60869 
L 115.491456 173.043484 
L 116.12634 171.897061 
L 116.761225 171.573625 
L 118.030994 170.057349 
L 118.665879 169.159087 
L 119.300763 168.510634 
L 119.935648 167.176862 
L 120.570532 166.835835 
L 121.205417 166.33467 
L 121.840301 165.133792 
L 122.475186 164.640632 
L 123.11007 163.588691 
L 123.744955 163.063511 
L 124.379839 162.166863 
L 125.014724 161.571251 
L 126.284493 159.729924 
L 126.919377 159.304001 
L 128.189146 157.870973 
L 128.824031 156.823841 
L 130.0938 155.763861 
L 130.728684 154.856013 
L 131.363569 154.205945 
L 131.998453 153.248451 
L 132.633338 152.985895 
L 133.903107 151.285466 
L 134.537991 150.806702 
L 135.80776 149.410504 
L 136.442645 148.845298 
L 139.617067 145.309968 
L 140.251952 145.079398 
L 142.156606 142.621639 
L 142.79149 142.560793 
L 144.061259 140.982057 
L 144.696144 140.817143 
L 145.331028 140.101419 
L 145.965913 139.568234 
L 146.600797 138.804479 
L 147.235682 138.802898 
L 147.870566 137.893435 
L 149.140335 136.975967 
L 151.044989 135.205107 
L 151.679873 134.899296 
L 152.314758 134.180377 
L 152.949642 133.969013 
L 153.584527 133.315749 
L 154.854296 132.56481 
L 155.48918 131.967583 
L 156.124065 131.652151 
L 156.758949 130.923647 
L 158.028718 129.895687 
L 159.298487 129.30327 
L 159.933372 128.29455 
L 160.568256 128.56195 
L 161.203141 127.509974 
L 161.838026 127.471563 
L 162.47291 126.714198 
L 163.742679 126.272299 
L 164.377564 125.609416 
L 165.012448 125.327621 
L 165.647333 125.242759 
L 166.282217 124.438978 
L 167.551986 123.968219 
L 168.186871 123.28936 
L 169.45664 122.389517 
L 170.091524 122.182963 
L 170.726409 121.77147 
L 171.361293 121.195029 
L 173.900831 119.784436 
L 174.535716 119.601897 
L 175.1706 118.7517 
L 175.805485 118.756476 
L 176.440369 118.445854 
L 177.075254 117.834232 
L 179.614792 116.634968 
L 180.249676 116.103397 
L 180.884561 115.898424 
L 181.519445 115.45491 
L 182.15433 115.363658 
L 182.789215 114.769626 
L 183.424099 114.71998 
L 185.328753 113.403834 
L 185.963637 113.421459 
L 187.868291 112.409544 
L 189.13806 111.958025 
L 189.772944 111.471256 
L 190.407829 111.229486 
L 191.042713 110.70592 
L 191.677598 110.888424 
L 192.312482 110.270411 
L 193.582251 109.95979 
L 194.217136 109.556268 
L 194.85202 109.43461 
L 196.121789 108.731701 
L 196.756674 108.211331 
L 197.391558 108.030372 
L 198.026443 107.308258 
L 198.661327 107.700546 
L 199.931096 106.960806 
L 200.565981 106.491696 
L 201.200865 106.512482 
L 201.83575 106.046568 
L 203.105519 105.599859 
L 205.010173 104.775257 
L 205.645057 104.643945 
L 206.279942 104.283712 
L 206.914826 104.192426 
L 208.81948 103.004363 
L 209.454364 103.020407 
L 210.089249 102.743387 
L 210.724133 102.301488 
L 211.359018 102.034088 
L 211.993902 102.501617 
L 212.628787 101.564944 
L 213.263671 101.555324 
L 213.898556 101.89477 
L 214.53344 101.086214 
L 215.168325 101.321559 
L 215.803209 100.762778 
L 216.438094 100.500187 
L 217.072978 100.439341 
L 217.707863 99.757253 
L 218.342747 99.555509 
L 218.977632 99.803669 
L 219.612516 99.272098 
L 220.247401 98.996693 
L 220.882285 98.923032 
L 221.51717 98.567609 
L 222.152054 98.340235 
L 222.786939 98.551564 
L 223.421823 97.874286 
L 225.326477 97.62451 
L 226.596246 97.000073 
L 227.866015 96.955237 
L 228.5009 96.193097 
L 229.135784 96.130636 
L 229.770669 95.538219 
L 230.405553 95.922501 
L 231.040438 95.829635 
L 231.675322 95.171562 
L 232.310207 95.338055 
L 232.945091 95.117106 
L 233.579976 94.54709 
L 234.21486 94.523074 
L 234.849745 94.61917 
L 235.484629 94.334145 
L 237.389283 94.037954 
L 238.659052 93.235753 
L 239.293936 93.074035 
L 239.928821 93.166902 
L 243.738128 91.858761 
L 245.642781 91.716283 
L 246.91255 91.151077 
L 247.547435 91.077415 
L 248.18232 91.176673 
L 248.817204 90.608271 
L 249.452089 90.526605 
L 250.086973 90.191968 
L 251.991627 90.236804 
L 253.261396 89.218464 
L 254.531165 89.218464 
L 255.166049 88.829406 
L 255.800934 88.742929 
L 256.435818 89.127212 
L 257.070703 88.345866 
L 257.705587 88.390667 
L 258.340472 88.187343 
L 258.975356 88.257775 
L 259.610241 87.644537 
L 260.245125 87.943958 
L 260.88001 87.937568 
L 261.514894 87.522845 
L 262.149779 87.538855 
L 262.784663 87.101766 
L 263.419548 87.159383 
L 264.054432 86.395662 
L 264.689317 86.711059 
L 265.324201 86.674263 
L 268.498624 85.548626 
L 269.133509 85.588686 
L 269.768393 85.753599 
L 270.403278 85.625482 
L 271.038162 85.215604 
L 271.673047 85.311666 
L 272.307931 84.725639 
L 272.942816 84.743264 
L 273.5777 84.954628 
L 274.212585 84.685614 
L 274.847469 84.248524 
L 275.482354 84.26773 
L 276.117238 84.162048 
L 276.752123 83.625667 
L 277.387007 83.958689 
L 278.021892 83.598456 
L 278.656776 84.014725 
L 279.291661 83.777765 
L 279.926545 83.319856 
L 280.56143 83.230184 
L 281.196314 83.283025 
L 281.831199 82.879537 
L 282.466083 82.652163 
L 283.100968 82.733829 
L 283.735852 82.259875 
L 284.370737 82.885928 
L 285.005621 82.47282 
L 286.27539 82.421593 
L 286.910275 81.965264 
L 287.545159 81.784341 
L 288.180044 81.851577 
L 288.814928 81.52656 
L 290.719582 81.358418 
L 291.354467 80.597892 
L 291.989351 80.71797 
L 292.624236 80.959739 
L 293.25912 80.852477 
L 293.894005 80.428169 
L 294.528889 80.807641 
L 295.163774 80.167159 
L 295.798658 80.391338 
L 296.433543 80.49702 
L 297.068427 80.205604 
L 297.703312 80.082332 
L 298.338196 79.768481 
L 298.973081 79.808507 
L 300.24285 79.502695 
L 300.877734 79.682039 
L 302.147503 79.581167 
L 302.782388 79.345787 
L 303.417272 78.849432 
L 304.052157 78.889458 
L 305.321926 78.47635 
L 305.95681 78.71812 
L 306.591695 78.572447 
L 307.226579 78.160919 
L 308.496348 78.426739 
L 309.131233 77.888743 
L 309.766117 78.162534 
L 310.401002 77.645359 
L 311.035886 77.858303 
L 311.670771 77.7094 
L 312.305656 77.310722 
L 312.94054 77.590937 
L 313.575425 77.552492 
L 314.210309 77.269081 
L 314.845194 77.432414 
L 316.114963 77.049746 
L 318.019616 76.562977 
L 318.654501 76.830377 
L 319.92427 76.388478 
L 320.559154 76.495741 
L 321.194039 76.050612 
L 321.828923 76.310007 
L 322.463808 76.116268 
L 323.098692 76.073047 
L 323.733577 75.579887 
L 324.368461 75.7224 
L 325.003346 75.666329 
L 326.907999 75.158774 
L 327.542884 75.45658 
L 328.177768 75.584697 
L 328.812653 75.101123 
L 329.447537 74.849768 
L 330.082422 74.944215 
L 331.352191 74.875364 
L 331.987075 74.816132 
L 332.62196 74.510321 
L 333.256844 74.635209 
L 333.891729 74.061997 
L 334.526614 74.241306 
L 335.161498 73.736946 
L 335.796383 74.281332 
L 336.431267 73.789787 
L 337.066152 74.161254 
L 337.701036 73.517611 
L 338.335921 73.517611 
L 338.970805 73.384719 
L 340.240574 73.589658 
L 340.875459 73.466351 
L 341.510343 73.568837 
L 342.145228 72.862733 
L 343.414997 73.211766 
L 345.31965 73.114123 
L 346.589419 72.677 
L 349.128957 72.052562 
L 349.763842 72.403209 
L 351.033611 71.66347 
L 351.668495 71.999721 
L 352.30338 71.839583 
L 352.938264 71.991716 
L 353.573149 71.522572 
L 354.208033 71.240776 
L 354.842918 71.389679 
L 355.477803 71.293617 
L 356.112687 71.056623 
L 356.747572 71.576993 
L 357.382456 70.771632 
L 358.017341 71.027797 
L 358.652225 70.987771 
L 359.28711 70.811658 
L 359.921994 70.805267 
L 360.556879 70.534672 
L 361.191763 70.139189 
L 361.826648 70.481831 
L 362.461532 70.461011 
L 363.096417 69.847773 
L 363.731301 70.505846 
L 366.270839 69.581988 
L 366.905724 70.147194 
L 368.175493 69.477886 
L 368.810377 69.610779 
L 369.445262 69.413845 
L 370.080146 69.38502 
L 371.349915 68.997542 
L 371.9848 68.768587 
L 372.619684 69.338603 
L 373.254569 68.9111 
L 373.889453 68.960711 
L 375.159222 68.714166 
L 377.063876 68.938311 
L 377.698761 68.270618 
L 378.96853 68.192181 
L 379.603414 67.956801 
L 380.238299 68.243407 
L 381.508068 68.014452 
L 382.142952 67.871939 
L 382.777837 67.945601 
L 383.412721 67.343564 
L 384.047606 67.867129 
L 384.68249 67.215481 
L 385.317375 67.753477 
L 385.952259 67.316353 
L 386.587144 67.337173 
L 387.222028 67.538918 
L 387.856913 67.029747 
L 388.491797 67.079359 
L 389.126682 67.319548 
L 389.761566 67.138625 
L 390.396451 66.828003 
L 391.66622 66.810378 
L 392.301104 66.599014 
L 393.570873 66.434101 
L 394.205758 66.190751 
L 394.840642 66.424515 
L 396.110411 65.931356 
L 396.745296 66.230777 
L 397.38018 65.451011 
L 398.015065 65.844879 
L 398.64995 65.995397 
L 399.284834 66.325224 
L 399.919719 65.800043 
L 400.554603 66.129905 
L 401.189488 65.452592 
L 402.459257 65.396555 
L 403.094141 65.061919 
L 403.729026 65.415795 
L 404.998795 65.015502 
L 406.903448 65.034708 
L 407.538333 65.121184 
L 408.808102 64.719277 
L 409.442986 64.245357 
L 410.077871 64.576764 
L 410.712755 64.684061 
L 412.617409 64.214917 
L 413.252293 64.304588 
L 413.887178 64.070824 
L 414.522062 64.360625 
L 415.156947 64.041998 
L 415.791831 63.467172 
L 416.426716 63.944321 
L 417.0616 63.651325 
L 418.331369 63.483182 
L 418.966254 63.656101 
L 420.236023 63.431956 
L 420.870908 63.243027 
L 421.505792 63.247837 
L 422.140677 63.11972 
L 423.410446 63.156551 
L 424.04533 62.796284 
L 424.680215 63.089314 
L 425.315099 62.961232 
L 425.949984 62.456871 
L 426.584868 62.815524 
L 427.219753 62.703417 
L 427.854637 62.837924 
L 429.124406 62.445637 
L 429.759291 62.655386 
L 431.02906 62.135016 
L 431.663944 62.480887 
L 432.298829 61.918876 
L 433.568598 62.027753 
L 434.203482 61.915681 
L 434.838367 62.050154 
L 435.473251 61.789178 
L 436.108136 61.906061 
L 436.74302 61.428911 
L 437.377905 61.893246 
L 438.012789 61.473747 
L 438.647674 61.685111 
L 439.282558 61.411321 
L 439.917443 60.857315 
L 440.552327 61.589015 
L 441.187212 61.11671 
L 441.822097 60.8557 
L 442.456981 61.161511 
L 443.091866 61.233592 
L 444.361635 60.987012 
L 444.996519 61.153506 
L 445.631404 61.070259 
L 446.266288 60.858895 
L 446.901173 60.320934 
L 447.536057 60.814059 
L 448.170942 60.237653 
L 448.805826 60.580295 
L 449.440711 60.155986 
L 450.075595 60.383361 
L 450.71048 60.33533 
L 451.345364 59.965477 
L 451.980249 60.328939 
L 452.615133 59.57477 
L 453.250018 60.005503 
L 453.884902 59.800564 
L 455.154671 60.067929 
L 456.42444 59.573189 
L 457.059325 59.445107 
L 457.694209 59.664441 
L 458.329094 59.60521 
L 458.963978 59.056014 
L 459.598863 59.533164 
L 460.233747 59.060824 
L 460.868632 59.712472 
L 461.503516 59.020798 
L 462.773285 59.256143 
L 464.043055 58.982353 
L 464.677939 58.815825 
L 465.312824 58.82383 
L 466.582593 58.159366 
L 467.217477 58.449167 
L 467.852362 58.516438 
L 468.487246 58.287449 
L 469.122131 58.574055 
L 469.757015 58.577284 
L 471.026784 58.144971 
L 471.661669 58.053684 
L 472.296553 58.341905 
L 472.931438 58.06169 
L 473.566322 58.111335 
L 474.201207 57.85194 
L 474.836091 57.749488 
L 475.470976 57.906396 
L 476.10586 57.394031 
L 477.375629 57.642191 
L 478.645398 57.803909 
L 479.280283 57.150646 
L 479.915167 57.515723 
L 480.550052 57.163461 
L 481.184936 56.944092 
L 482.454705 57.030569 
L 483.08959 57.281924 
L 483.724474 57.312364 
L 484.359359 56.686312 
L 484.994244 57.000129 
L 485.629128 56.755163 
L 487.533782 56.556615 
L 488.168666 56.635086 
L 488.803551 56.165942 
L 489.438435 55.919362 
L 490.07332 56.351675 
L 490.708204 56.138731 
L 491.977973 56.268394 
L 492.612858 55.83931 
L 494.517511 55.639147 
L 495.152396 55.344536 
L 495.78728 55.358966 
L 496.422165 55.642376 
L 497.057049 55.371781 
L 497.691934 55.531884 
L 498.326818 55.501444 
L 498.961703 55.080365 
L 499.596587 55.831305 
L 500.231472 55.190823 
L 502.136125 54.854606 
L 503.405894 54.889821 
L 504.040779 55.030719 
L 505.310548 54.571195 
L 505.945433 54.723293 
L 507.215202 54.516739 
L 507.850086 54.638432 
L 508.484971 54.172517 
L 509.119855 54.02839 
L 510.389624 54.411092 
L 512.294278 53.599306 
L 512.929162 53.524029 
L 513.564047 53.972353 
L 514.198931 54.042819 
L 514.833816 53.471188 
L 515.4687 53.793044 
L 516.103585 53.51922 
L 516.738469 53.381551 
L 517.373354 53.479194 
L 518.008238 53.232614 
L 519.912892 53.331905 
L 520.547776 53.378322 
L 521.182661 53.171802 
L 521.817545 52.801915 
L 522.45243 52.889972 
L 523.722199 52.857951 
L 525.626852 52.79872 
L 526.261737 53.0677 
L 526.896621 52.548945 
L 527.531506 52.580966 
L 528.166391 52.010949 
L 529.43616 52.416052 
L 530.705929 52.107011 
L 531.340813 51.884447 
L 531.975698 52.241519 
L 532.610582 52.006139 
L 533.880351 51.934093 
L 534.515236 51.980543 
L 535.15012 51.673117 
L 538.324543 51.341676 
L 538.959427 51.485769 
L 539.594312 51.373697 
L 540.864081 50.898162 
L 541.498965 50.755649 
L 542.768734 50.920563 
L 544.038503 50.925373 
L 544.673388 50.238474 
L 545.308272 50.445028 
L 545.943157 50.401807 
L 547.212926 50.646772 
L 549.752464 50.139217 
L 550.387349 50.307325 
L 551.022233 50.195253 
L 552.292002 49.687698 
L 552.926887 49.825366 
L 553.561771 50.156808 
L 554.196656 49.583596 
L 554.83154 49.770945 
L 555.466425 49.75332 
L 556.101309 49.465133 
L 556.736194 49.362647 
L 557.371078 49.660453 
L 558.005963 49.404287 
L 559.910616 49.53876 
L 560.545501 49.208934 
L 561.180385 49.268199 
L 563.085039 48.883917 
L 564.354808 48.733399 
L 564.989692 49.124072 
L 565.624577 48.792631 
L 566.259461 48.911128 
L 566.894346 48.691758 
L 567.52923 48.27226 
L 568.164115 48.342726 
L 568.798999 48.222649 
L 569.433884 48.486819 
L 570.068768 47.972839 
L 570.703653 48.29308 
L 571.338538 48.102537 
L 571.973422 48.097727 
L 572.608307 47.849567 
L 573.243191 48.048115 
L 573.878076 47.732684 
L 574.51296 48.006475 
L 575.147845 47.518125 
L 575.782729 47.859186 
L 576.417614 47.631812 
L 576.417614 47.631812 
" clip-path="url(#pd58bd5eec1)" style="fill: none; stroke: #1f77b4; stroke-width: 1.5; stroke-linecap: square"/>
   </g>
   <g id="line2d_30">
    <path d="M 69.144886 328.492734 
L 69.779771 306.012585 
L 70.414655 288.114932 
L 71.04954 281.21238 
L 71.684424 276.557838 
L 72.319309 269.424716 
L 73.589078 262.306007 
L 74.223962 261.71517 
L 74.858847 260.850543 
L 75.493732 255.92221 
L 76.763501 250.590389 
L 77.398385 249.33667 
L 78.03327 245.287359 
L 78.668154 243.687837 
L 79.303039 241.223653 
L 79.937923 240.027585 
L 80.572808 236.972599 
L 81.842577 235.358647 
L 82.477461 233.600567 
L 83.112346 230.444709 
L 83.74723 228.499315 
L 84.382115 227.822037 
L 85.016999 226.481875 
L 85.651884 227.533816 
L 86.286768 222.764006 
L 86.921653 223.369238 
L 87.556537 222.288472 
L 88.191422 220.011636 
L 88.826306 220.227776 
L 89.461191 219.19023 
L 90.096075 219.92516 
L 90.73096 217.460976 
L 91.365844 216.236117 
L 92.000729 218.037417 
L 92.635613 214.895955 
L 93.270498 212.518248 
L 93.905382 213.152305 
L 94.540267 210.154936 
L 95.175151 210.198157 
L 95.810036 208.440112 
L 96.44492 210.673726 
L 97.079805 206.292974 
L 97.71469 206.638811 
L 98.349574 213.094654 
L 98.984459 205.010429 
L 99.619343 206.365021 
L 100.254228 202.272489 
L 100.889112 200.874677 
L 101.523997 203.410907 
L 102.158881 199.952399 
L 102.793766 201.422258 
L 103.42865 199.620957 
L 104.063535 199.923607 
L 104.698419 198.741934 
L 105.333304 197.862912 
L 105.968188 198.165528 
L 106.603073 198.295225 
L 107.237957 197.387377 
L 107.872842 194.346787 
L 108.507726 195.456379 
L 109.142611 192.559916 
L 109.777495 192.041126 
L 110.41238 194.245915 
L 111.047264 191.536766 
L 111.682149 190.153383 
L 112.317033 188.409734 
L 112.951918 188.611478 
L 113.586802 189.966035 
L 114.221687 190.066907 
L 114.856571 186.867828 
L 115.491456 185.513236 
L 116.12634 186.723701 
L 116.761225 186.853398 
L 117.396109 191.147674 
L 118.030994 182.818518 
L 118.665879 183.164355 
L 119.300763 183.236401 
L 119.935648 181.276612 
L 120.570532 181.853019 
L 121.205417 181.103659 
L 121.840301 179.93645 
L 122.475186 179.057393 
L 123.11007 177.587534 
L 123.744955 178.884475 
L 124.379839 177.774883 
L 125.014724 175.440396 
L 125.649608 178.942126 
L 126.284493 174.64785 
L 126.919377 174.575769 
L 127.554262 174.085839 
L 128.189146 173.970537 
L 128.824031 173.639096 
L 129.458915 171.347865 
L 130.0938 172.34219 
L 130.728684 171.074074 
L 131.363569 169.186297 
L 131.998453 169.950052 
L 132.633338 168.696367 
L 133.268222 167.730868 
L 133.903107 166.30423 
L 134.537991 165.511684 
L 135.172876 166.376311 
L 135.80776 165.06494 
L 136.442645 164.085046 
L 137.077529 166.520404 
L 137.712414 165.07937 
L 138.347298 163.321291 
L 139.617067 162.644012 
L 140.251952 162.485489 
L 140.886837 161.53442 
L 141.521721 162.355792 
L 142.156606 162.903407 
L 142.79149 163.292465 
L 143.426375 160.323956 
L 144.061259 161.188583 
L 144.696144 161.548816 
L 145.331028 158.392958 
L 145.965913 156.851052 
L 146.600797 157.297761 
L 147.235682 156.173773 
L 147.870566 156.894273 
L 148.505451 155.381193 
L 149.140335 155.554111 
L 149.77522 154.285996 
L 150.410104 153.896938 
L 151.044989 155.00653 
L 151.679873 156.721355 
L 152.314758 152.268556 
L 153.584527 156.000855 
L 154.219411 152.7153 
L 154.854296 151.504801 
L 155.48918 155.914378 
L 156.124065 154.170729 
L 156.758949 150.654604 
L 157.393834 153.47902 
L 158.028718 150.553732 
L 158.663603 150.179069 
L 159.933372 152.110033 
L 160.568256 147.902234 
L 161.203141 147.556363 
L 161.838026 150.092593 
L 162.47291 146.720561 
L 163.107795 146.057712 
L 163.742679 147.599618 
L 164.377564 148.550687 
L 165.012448 145.841538 
L 165.647333 145.265132 
L 166.282217 145.94241 
L 166.917102 147.052003 
L 167.551986 145.394829 
L 168.186871 146.057712 
L 168.821755 144.832818 
L 169.45664 146.446771 
L 170.091524 144.832818 
L 170.726409 146.893514 
L 171.361293 143.204436 
L 171.996178 142.613634 
L 172.631062 144.371679 
L 173.265947 142.757727 
L 173.900831 146.115329 
L 174.535716 143.795273 
L 175.1706 142.584809 
L 175.805485 141.864275 
L 176.440369 142.267763 
L 177.075254 141.215821 
L 177.710138 143.319738 
L 178.345023 142.455111 
L 178.979907 140.005357 
L 180.249676 140.581764 
L 180.884561 139.861264 
L 181.519445 139.400125 
L 182.15433 140.466496 
L 182.789215 140.048578 
L 183.424099 141.734611 
L 184.693868 139.356904 
L 185.328753 137.959092 
L 185.963637 140.581764 
L 186.598522 140.452066 
L 187.233406 137.310604 
L 187.868291 136.417186 
L 188.503175 141.950751 
L 189.13806 136.301884 
L 189.772944 136.964767 
L 190.407829 139.14073 
L 191.042713 142.743332 
L 191.677598 135.552559 
L 192.312482 137.814999 
L 192.947367 136.820674 
L 193.582251 134.342095 
L 194.217136 135.033769 
L 194.85202 137.209732 
L 195.486905 133.86656 
L 196.121789 136.201012 
L 196.756674 136.647755 
L 197.391558 133.57834 
L 198.026443 136.460407 
L 198.661327 135.639035 
L 199.296212 134.010653 
L 199.931096 133.650386 
L 200.565981 134.58706 
L 201.200865 136.028093 
L 201.83575 135.711082 
L 202.470634 139.472172 
L 203.105519 134.342095 
L 203.740403 134.486188 
L 204.375288 132.05083 
L 205.010173 132.84341 
L 205.645057 131.60412 
L 206.279942 134.471792 
L 206.914826 133.708037 
L 207.549711 130.350435 
L 208.184595 132.511969 
L 208.81948 132.411097 
L 209.454364 130.508924 
L 210.089249 131.272679 
L 210.724133 129.010274 
L 211.359018 130.970063 
L 211.993902 129.08232 
L 212.628787 128.635577 
L 213.263671 130.739493 
L 213.898556 132.367876 
L 214.53344 129.81725 
L 215.168325 128.28974 
L 215.803209 128.995844 
L 216.438094 130.609796 
L 217.072978 128.938193 
L 217.707863 127.78538 
L 218.342747 128.0736 
L 218.977632 130.451307 
L 219.612516 128.376216 
L 220.247401 127.237798 
L 220.882285 129.168762 
L 221.51717 127.180147 
L 222.152054 128.981448 
L 223.421823 128.592356 
L 224.056708 127.410717 
L 224.691592 129.529029 
L 225.326477 126.791055 
L 225.961362 126.474043 
L 226.596246 125.494149 
L 227.231131 127.727729 
L 227.866015 127.252194 
L 228.5009 128.188868 
L 229.135784 125.566195 
L 230.405553 126.848706 
L 231.040438 125.566195 
L 231.675322 129.601076 
L 232.310207 126.589311 
L 232.945091 126.156997 
L 233.579976 129.212018 
L 234.21486 124.51422 
L 234.849745 123.865767 
L 236.119514 124.586266 
L 236.754398 126.589311 
L 237.389283 124.658347 
L 238.024167 124.02429 
L 238.659052 122.482384 
L 239.293936 123.620802 
L 239.928821 127.021625 
L 240.563705 123.678418 
L 241.19859 123.491104 
L 241.833474 125.854381 
L 242.468359 125.479719 
L 243.103243 126.329916 
L 243.738128 124.081906 
L 244.373012 123.073186 
L 245.007897 123.678418 
L 245.642781 125.364451 
L 246.277666 130.263959 
L 246.91255 125.868811 
L 247.547435 123.447849 
L 248.18232 124.715964 
L 248.817204 123.116407 
L 250.086973 121.372757 
L 250.721858 121.430408 
L 251.356742 121.934768 
L 251.991627 125.076231 
L 252.626511 125.220324 
L 253.261396 121.588931 
L 253.89628 123.750465 
L 254.531165 123.822546 
L 255.166049 121.747454 
L 255.800934 123.548721 
L 256.435818 121.660978 
L 257.070703 120.897223 
L 257.705587 123.174058 
L 258.340472 122.107687 
L 258.975356 124.168383 
L 259.610241 121.76185 
L 260.245125 123.995464 
L 260.88001 123.606372 
L 261.514894 124.989754 
L 262.149779 121.516885 
L 262.784663 124.067511 
L 263.419548 120.147898 
L 264.054432 120.897223 
L 264.689317 122.453558 
L 265.324201 119.816456 
L 265.959086 119.196794 
L 266.59397 121.127792 
L 267.228855 121.588931 
L 267.863739 119.51384 
L 268.498624 120.940478 
L 269.133509 121.949198 
L 269.768393 122.482384 
L 270.403278 127.626857 
L 271.038162 118.836562 
L 271.673047 119.211224 
L 272.307931 118.389818 
L 272.942816 121.920373 
L 273.5777 118.894178 
L 274.212585 130.81154 
L 274.847469 118.706864 
L 275.482354 119.254445 
L 276.117238 117.294656 
L 276.752123 119.629108 
L 277.387007 120.609037 
L 278.021892 121.098967 
L 278.656776 118.807736 
L 279.291661 122.914663 
L 279.926545 117.453145 
L 280.56143 120.868397 
L 281.196314 120.709909 
L 281.831199 120.940478 
L 282.466083 116.804691 
L 283.100968 119.686759 
L 283.735852 121.084571 
L 284.370737 116.876738 
L 285.005621 117.871063 
L 286.27539 116.055366 
L 287.545159 118.678039 
L 288.180044 121.704199 
L 288.814928 117.755761 
L 289.449813 120.652258 
L 290.084697 118.894178 
L 290.719582 119.74441 
L 291.989351 119.485015 
L 292.624236 115.911239 
L 293.25912 116.47325 
L 293.894005 115.781541 
L 294.528889 118.764515 
L 295.163774 119.268875 
L 295.798658 115.940064 
L 296.433543 118.951829 
L 297.068427 116.444424 
L 297.703312 117.856633 
L 298.338196 117.4964 
L 298.973081 122.439129 
L 299.607965 122.222989 
L 300.24285 117.943109 
L 300.877734 118.015156 
L 301.512619 117.871063 
L 302.147503 120.954874 
L 302.782388 117.654889 
L 303.417272 119.715584 
L 304.052157 118.389818 
L 304.687041 115.983285 
L 305.321926 117.813412 
L 305.95681 116.213855 
L 306.591695 117.424319 
L 307.861464 121.329536 
L 308.496348 116.069762 
L 309.131233 118.029585 
L 310.401002 119.485015 
L 311.035886 116.847912 
L 311.670771 117.064086 
L 312.305656 115.680669 
L 312.94054 115.435704 
L 313.575425 115.911239 
L 314.845194 120.493735 
L 315.480078 115.522181 
L 316.114963 118.159249 
L 316.749847 117.092912 
L 317.384732 114.499031 
L 318.019616 117.035261 
L 318.654501 114.599903 
L 319.289385 118.159249 
L 319.92427 119.917328 
L 320.559154 117.98633 
L 321.194039 117.654889 
L 321.828923 123.5055 
L 322.463808 116.47325 
L 323.733577 115.23396 
L 324.368461 119.902933 
L 325.003346 113.980275 
L 325.63823 115.839192 
L 326.273115 115.421309 
L 326.907999 119.686759 
L 328.177768 114.988995 
L 328.812653 115.983285 
L 329.447537 113.245346 
L 330.082422 118.750085 
L 330.717306 113.864973 
L 331.352191 116.674994 
L 331.987075 115.680669 
L 332.62196 114.354938 
L 333.256844 115.637448 
L 333.891729 118.807736 
L 334.526614 119.067131 
L 335.161498 114.614333 
L 335.796383 118.850957 
L 336.431267 113.461485 
L 337.066152 114.109938 
L 337.701036 120.119072 
L 338.335921 114.743996 
L 338.970805 118.49069 
L 339.60569 115.795971 
L 340.240574 117.323447 
L 340.875459 120.320816 
L 341.510343 116.300331 
L 342.145228 117.525225 
L 342.780112 111.890754 
L 343.414997 115.623053 
L 344.049881 114.239636 
L 344.684766 115.075437 
L 345.31965 118.793306 
L 345.954535 115.507751 
L 346.589419 114.023496 
L 347.224304 115.277181 
L 347.859188 112.409544 
L 348.494073 117.237005 
L 349.128957 115.810367 
L 349.763842 112.784207 
L 350.398726 118.50512 
L 351.033611 112.69773 
L 351.668495 116.24268 
L 352.30338 117.107307 
L 352.938264 120.364037 
L 353.573149 120.162293 
L 354.208033 122.323861 
L 354.842918 116.343552 
L 355.477803 114.931344 
L 356.112687 126.214648 
L 356.747572 114.412589 
L 357.382456 115.032216 
L 358.017341 112.495986 
L 358.652225 112.841857 
L 359.28711 114.599903 
L 359.921994 117.006435 
L 360.556879 113.057997 
L 361.191763 113.965845 
L 361.826648 113.158869 
L 362.461532 116.559726 
L 363.096417 115.623053 
L 363.731301 120.205549 
L 364.366186 113.375043 
L 365.00107 113.259741 
L 365.635955 111.573742 
L 366.270839 113.634404 
L 367.540608 112.409544 
L 368.175493 114.124368 
L 368.810377 111.559312 
L 369.445262 118.188074 
L 370.080146 115.493355 
L 370.715031 117.366702 
L 371.349915 116.48768 
L 371.9848 114.412589 
L 372.619684 112.841857 
L 373.254569 113.965845 
L 373.889453 117.640493 
L 374.524338 113.346218 
L 375.159222 113.158869 
L 375.794107 111.040557 
L 376.428991 112.726556 
L 377.063876 115.75275 
L 377.698761 115.435704 
L 378.333645 116.401203 
L 379.603414 115.190739 
L 380.238299 112.813032 
L 380.873183 117.626097 
L 381.508068 116.098587 
L 382.142952 113.821752 
L 382.777837 116.703819 
L 383.412721 113.749706 
L 384.047606 117.251401 
L 384.68249 114.859298 
L 385.317375 119.153573 
L 385.952259 113.43266 
L 386.587144 114.210845 
L 387.222028 112.236625 
L 387.856913 115.190739 
L 388.491797 110.997336 
L 389.126682 120.868397 
L 389.761566 112.568033 
L 390.396451 116.012111 
L 391.031335 114.182019 
L 391.66622 113.20209 
L 392.301104 114.686379 
L 392.935989 115.839192 
L 393.570873 116.343552 
L 394.205758 114.671949 
L 394.840642 115.666274 
L 395.475527 117.092912 
L 396.110411 112.9283 
L 396.745296 114.671949 
L 397.38018 113.605578 
L 398.015065 115.262786 
L 399.284834 114.44138 
L 399.919719 116.559726 
L 400.554603 112.222195 
L 401.189488 114.571077 
L 401.824372 113.20209 
L 402.459257 114.326112 
L 403.094141 118.317772 
L 403.729026 115.810367 
L 404.36391 116.833517 
L 404.998795 113.807322 
L 405.633679 117.813412 
L 406.268564 112.395114 
L 406.903448 115.954494 
L 407.538333 114.931344 
L 408.173217 114.657554 
L 408.808102 113.965845 
L 409.442986 122.194163 
L 410.077871 114.873693 
L 410.712755 115.96889 
L 411.34764 115.363658 
L 411.982524 114.916949 
L 412.617409 113.072427 
L 413.252293 117.71254 
L 413.887178 114.916949 
L 414.522062 116.069762 
L 415.156947 121.891547 
L 415.791831 117.049657 
L 416.426716 113.086823 
L 417.0616 116.530901 
L 417.696485 112.985951 
L 418.331369 116.199459 
L 418.966254 113.418264 
L 419.601138 114.499031 
L 420.236023 114.686379 
L 420.870908 115.450134 
L 421.505792 114.311717 
L 422.140677 113.576787 
L 422.775561 115.133088 
L 423.410446 112.971521 
L 424.04533 121.617757 
L 424.680215 111.934009 
L 425.315099 111.631359 
L 425.949984 116.790296 
L 426.584868 116.24268 
L 427.219753 115.478925 
L 427.854637 116.905563 
L 428.489522 113.95145 
L 429.124406 117.640493 
L 429.759291 112.683334 
L 430.394175 114.009066 
L 431.02906 111.847533 
L 431.663944 115.565402 
L 432.298829 111.833103 
L 432.933713 111.415219 
L 434.203482 114.816077 
L 434.838367 120.969269 
L 435.473251 114.153194 
L 436.108136 128.952623 
L 436.74302 118.389818 
L 437.377905 117.136133 
L 438.012789 112.568033 
L 438.647674 110.997336 
L 439.282558 117.121703 
L 439.917443 114.715205 
L 440.552327 113.000346 
L 441.187212 114.859298 
L 441.822097 114.268461 
L 442.456981 116.386773 
L 443.091866 114.109938 
L 443.72675 114.124368 
L 444.361635 123.015535 
L 444.996519 113.173299 
L 445.631404 116.502075 
L 446.266288 115.623053 
L 446.901173 113.461485 
L 447.536057 112.178974 
L 448.170942 114.369333 
L 448.805826 114.268461 
L 449.440711 121.387187 
L 450.075595 116.401203 
L 450.71048 113.360613 
L 451.980249 117.683714 
L 452.615133 115.291611 
L 453.250018 117.971935 
L 453.884902 114.369333 
L 454.519787 111.991626 
L 455.154671 115.651878 
L 455.789556 115.032216 
L 456.42444 113.043601 
L 457.059325 114.571077 
L 457.694209 113.533532 
L 458.329094 112.106928 
L 458.963978 118.058377 
L 459.598863 115.666274 
L 460.233747 124.398952 
L 460.868632 114.657554 
L 461.503516 112.654509 
L 462.138401 116.415599 
L 462.773285 113.648834 
L 463.40817 115.450134 
L 464.043055 116.574122 
L 464.677939 112.568033 
L 465.312824 112.71216 
L 465.947708 119.49941 
L 466.582593 119.441794 
L 467.217477 113.821752 
L 467.852362 114.614333 
L 468.487246 113.620008 
L 469.122131 115.551006 
L 469.757015 113.418264 
L 470.3919 113.331788 
L 471.026784 115.623053 
L 471.661669 116.631773 
L 472.296553 115.406879 
L 472.931438 113.418264 
L 473.566322 115.781541 
L 474.201207 113.634404 
L 474.836091 113.893799 
L 475.470976 116.76147 
L 476.10586 117.71254 
L 476.740745 114.96017 
L 477.375629 116.040936 
L 478.010514 113.20209 
L 478.645398 121.646582 
L 479.280283 112.19337 
L 479.915167 115.334832 
L 480.550052 113.158869 
L 481.184936 114.254066 
L 481.819821 117.71254 
L 482.454705 118.317772 
L 483.08959 117.237005 
L 483.724474 114.052322 
L 484.359359 115.637448 
L 484.994244 115.104263 
L 485.629128 112.769777 
L 486.264013 113.648834 
L 486.898897 113.792927 
L 487.533782 114.931344 
L 488.168666 114.182019 
L 488.803551 112.813032 
L 489.438435 113.749706 
L 490.07332 116.314727 
L 490.708204 115.853622 
L 491.343089 115.75275 
L 491.977973 113.072427 
L 492.612858 116.401203 
L 493.247742 114.830472 
L 494.517511 115.997715 
L 495.152396 116.891168 
L 495.78728 116.559726 
L 496.422165 117.683714 
L 497.057049 116.804691 
L 497.691934 113.230916 
L 498.326818 116.674994 
L 498.961703 113.475915 
L 499.596587 118.692434 
L 500.231472 114.499031 
L 500.866356 112.438369 
L 501.501241 116.74704 
L 502.136125 114.988995 
L 502.77101 121.949198 
L 503.405894 115.565402 
L 504.040779 115.262786 
L 504.675663 119.585887 
L 505.310548 111.68901 
L 505.945433 119.153573 
L 506.580317 112.279846 
L 507.215202 113.20209 
L 507.850086 114.599903 
L 508.484971 119.557061 
L 509.119855 116.646168 
L 509.75474 117.842237 
L 511.024509 113.591183 
L 511.659393 121.560106 
L 512.294278 114.527856 
L 512.929162 116.127413 
L 513.564047 112.006056 
L 514.198931 116.012111 
L 514.833816 114.988995 
L 515.4687 116.545296 
L 516.103585 111.069382 
L 516.738469 111.732231 
L 517.373354 113.70645 
L 518.008238 120.637828 
L 518.643123 119.758805 
L 519.278007 114.369333 
L 519.912892 115.291611 
L 520.547776 112.726556 
L 521.182661 114.109938 
L 521.817545 115.118693 
L 522.45243 113.620008 
L 523.087314 115.017821 
L 523.722199 113.93702 
L 524.357083 114.484635 
L 524.991968 113.807322 
L 525.626852 117.582842 
L 526.261737 112.596858 
L 526.896621 114.426984 
L 527.531506 117.654889 
L 528.166391 115.536576 
L 528.801275 112.740985 
L 529.43616 117.611668 
L 530.071044 112.265417 
L 530.705929 125.436498 
L 531.340813 113.836148 
L 531.975698 114.239636 
L 532.610582 115.363658 
L 533.245467 115.680669 
L 533.880351 114.758426 
L 534.515236 114.383763 
L 535.15012 118.260121 
L 535.785005 123.346977 
L 536.419889 119.211224 
L 537.054774 117.813412 
L 537.689658 112.380718 
L 538.324543 111.818707 
L 538.959427 119.211224 
L 539.594312 115.176309 
L 540.229196 115.637448 
L 540.864081 120.421688 
L 541.498965 115.190739 
L 542.13385 115.594227 
L 542.768734 111.386394 
L 543.403619 115.767146 
L 544.038503 122.467954 
L 545.308272 112.870649 
L 545.943157 113.634404 
L 546.578041 112.856253 
L 547.212926 115.723925 
L 547.84781 120.291991 
L 549.11758 111.674614 
L 549.752464 115.73832 
L 550.387349 114.282891 
L 551.022233 115.536576 
L 551.657118 117.251401 
L 552.292002 115.75275 
L 552.926887 113.403834 
L 553.561771 113.807322 
L 554.196656 112.582462 
L 554.83154 112.913904 
L 555.466425 114.109938 
L 556.101309 113.547962 
L 556.736194 112.827428 
L 557.371078 115.147484 
L 558.005963 116.602947 
L 558.640847 111.544917 
L 559.275732 118.188074 
L 559.910616 116.199459 
L 560.545501 122.381512 
L 561.180385 111.97723 
L 561.81527 118.836562 
L 562.450154 112.769777 
L 563.085039 114.124368 
L 563.719923 117.078482 
L 564.354808 116.602947 
L 564.989692 117.309051 
L 565.624577 120.24877 
L 566.259461 114.340508 
L 566.894346 113.20209 
L 567.52923 111.732231 
L 568.164115 122.482384 
L 568.798999 114.009066 
L 569.433884 113.735276 
L 570.068768 116.112983 
L 570.703653 112.726556 
L 571.973422 118.577167 
L 572.608307 114.340508 
L 573.243191 113.475915 
L 574.51296 113.821752 
L 575.147845 111.948405 
L 575.782729 115.651878 
L 576.417614 114.513461 
L 576.417614 114.513461 
" clip-path="url(#pd58bd5eec1)" style="fill: none; stroke: #ff7f0e; stroke-width: 1.5; stroke-linecap: square"/>
   </g>
   <g id="line2d_31">
    <path d="M 43.78125 551.518125 
L 601.78125 551.518125 
" clip-path="url(#pd58bd5eec1)" style="fill: none; stroke-dasharray: 11.1,4.8; stroke-dashoffset: 0; stroke: #ff0000; stroke-width: 3"/>
   </g>
   <g id="patch_3">
    <path d="M 43.78125 576.718125 
L 43.78125 22.318125 
" style="fill: none; stroke: #000000; stroke-width: 0.8; stroke-linejoin: miter; stroke-linecap: square"/>
   </g>
   <g id="patch_4">
    <path d="M 601.78125 576.718125 
L 601.78125 22.318125 
" style="fill: none; stroke: #000000; stroke-width: 0.8; stroke-linejoin: miter; stroke-linecap: square"/>
   </g>
   <g id="patch_5">
    <path d="M 43.78125 576.718125 
L 601.78125 576.718125 
" style="fill: none; stroke: #000000; stroke-width: 0.8; stroke-linejoin: miter; stroke-linecap: square"/>
   </g>
   <g id="patch_6">
    <path d="M 43.78125 22.318125 
L 601.78125 22.318125 
" style="fill: none; stroke: #000000; stroke-width: 0.8; stroke-linejoin: miter; stroke-linecap: square"/>
   </g>
   <g id="text_17">
    <!-- Train and Val Accuracy -->
    <g transform="translate(255.002813 16.318125) scale(0.12 -0.12)">
     <defs>
      <path id="DejaVuSans-54" d="M -19 4666 
L 3928 4666 
L 3928 4134 
L 2272 4134 
L 2272 0 
L 1638 0 
L 1638 4134 
L -19 4134 
L -19 4666 
z
" transform="scale(0.015625)"/>
      <path id="DejaVuSans-69" d="M 603 3500 
L 1178 3500 
L 1178 0 
L 603 0 
L 603 3500 
z
M 603 4863 
L 1178 4863 
L 1178 4134 
L 603 4134 
L 603 4863 
z
" transform="scale(0.015625)"/>
      <path id="DejaVuSans-6e" d="M 3513 2113 
L 3513 0 
L 2938 0 
L 2938 2094 
Q 2938 2591 2744 2837 
Q 2550 3084 2163 3084 
Q 1697 3084 1428 2787 
Q 1159 2491 1159 1978 
L 1159 0 
L 581 0 
L 581 3500 
L 1159 3500 
L 1159 2956 
Q 1366 3272 1645 3428 
Q 1925 3584 2291 3584 
Q 2894 3584 3203 3211 
Q 3513 2838 3513 2113 
z
" transform="scale(0.015625)"/>
      <path id="DejaVuSans-20" transform="scale(0.015625)"/>
      <path id="DejaVuSans-64" d="M 2906 2969 
L 2906 4863 
L 3481 4863 
L 3481 0 
L 2906 0 
L 2906 525 
Q 2725 213 2448 61 
Q 2172 -91 1784 -91 
Q 1150 -91 751 415 
Q 353 922 353 1747 
Q 353 2572 751 3078 
Q 1150 3584 1784 3584 
Q 2172 3584 2448 3432 
Q 2725 3281 2906 2969 
z
M 947 1747 
Q 947 1113 1208 752 
Q 1469 391 1925 391 
Q 2381 391 2643 752 
Q 2906 1113 2906 1747 
Q 2906 2381 2643 2742 
Q 2381 3103 1925 3103 
Q 1469 3103 1208 2742 
Q 947 2381 947 1747 
z
" transform="scale(0.015625)"/>
      <path id="DejaVuSans-56" d="M 1831 0 
L 50 4666 
L 709 4666 
L 2188 738 
L 3669 4666 
L 4325 4666 
L 2547 0 
L 1831 0 
z
" transform="scale(0.015625)"/>
      <path id="DejaVuSans-6c" d="M 603 4863 
L 1178 4863 
L 1178 0 
L 603 0 
L 603 4863 
z
" transform="scale(0.015625)"/>
     </defs>
     <use xlink:href="#DejaVuSans-54"/>
     <use xlink:href="#DejaVuSans-72" transform="translate(46.333984 0)"/>
     <use xlink:href="#DejaVuSans-61" transform="translate(87.447266 0)"/>
     <use xlink:href="#DejaVuSans-69" transform="translate(148.726562 0)"/>
     <use xlink:href="#DejaVuSans-6e" transform="translate(176.509766 0)"/>
     <use xlink:href="#DejaVuSans-20" transform="translate(239.888672 0)"/>
     <use xlink:href="#DejaVuSans-61" transform="translate(271.675781 0)"/>
     <use xlink:href="#DejaVuSans-6e" transform="translate(332.955078 0)"/>
     <use xlink:href="#DejaVuSans-64" transform="translate(396.333984 0)"/>
     <use xlink:href="#DejaVuSans-20" transform="translate(459.810547 0)"/>
     <use xlink:href="#DejaVuSans-56" transform="translate(491.597656 0)"/>
     <use xlink:href="#DejaVuSans-61" transform="translate(552.255859 0)"/>
     <use xlink:href="#DejaVuSans-6c" transform="translate(613.535156 0)"/>
     <use xlink:href="#DejaVuSans-20" transform="translate(641.318359 0)"/>
     <use xlink:href="#DejaVuSans-41" transform="translate(673.105469 0)"/>
     <use xlink:href="#DejaVuSans-63" transform="translate(739.763672 0)"/>
     <use xlink:href="#DejaVuSans-63" transform="translate(794.744141 0)"/>
     <use xlink:href="#DejaVuSans-75" transform="translate(849.724609 0)"/>
     <use xlink:href="#DejaVuSans-72" transform="translate(913.103516 0)"/>
     <use xlink:href="#DejaVuSans-61" transform="translate(954.216797 0)"/>
     <use xlink:href="#DejaVuSans-63" transform="translate(1015.496094 0)"/>
     <use xlink:href="#DejaVuSans-79" transform="translate(1070.476562 0)"/>
    </g>
   </g>
   <g id="legend_1">
    <g id="patch_7">
     <path d="M 50.78125 74.90875 
L 217.904687 74.90875 
Q 219.904687 74.90875 219.904687 72.90875 
L 219.904687 29.318125 
Q 219.904687 27.318125 217.904687 27.318125 
L 50.78125 27.318125 
Q 48.78125 27.318125 48.78125 29.318125 
L 48.78125 72.90875 
Q 48.78125 74.90875 50.78125 74.90875 
z
" style="fill: #ffffff; opacity: 0.8; stroke: #cccccc; stroke-linejoin: miter"/>
    </g>
    <g id="line2d_32">
     <path d="M 52.78125 35.416562 
L 62.78125 35.416562 
L 72.78125 35.416562 
" style="fill: none; stroke: #1f77b4; stroke-width: 1.5; stroke-linecap: square"/>
    </g>
    <g id="text_18">
     <!-- train_accuracy -->
     <g transform="translate(80.78125 38.916562) scale(0.1 -0.1)">
      <defs>
       <path id="DejaVuSans-74" d="M 1172 4494 
L 1172 3500 
L 2356 3500 
L 2356 3053 
L 1172 3053 
L 1172 1153 
Q 1172 725 1289 603 
Q 1406 481 1766 481 
L 2356 481 
L 2356 0 
L 1766 0 
Q 1100 0 847 248 
Q 594 497 594 1153 
L 594 3053 
L 172 3053 
L 172 3500 
L 594 3500 
L 594 4494 
L 1172 4494 
z
" transform="scale(0.015625)"/>
       <path id="DejaVuSans-5f" d="M 3263 -1063 
L 3263 -1509 
L -63 -1509 
L -63 -1063 
L 3263 -1063 
z
" transform="scale(0.015625)"/>
      </defs>
      <use xlink:href="#DejaVuSans-74"/>
      <use xlink:href="#DejaVuSans-72" transform="translate(39.208984 0)"/>
      <use xlink:href="#DejaVuSans-61" transform="translate(80.322266 0)"/>
      <use xlink:href="#DejaVuSans-69" transform="translate(141.601562 0)"/>
      <use xlink:href="#DejaVuSans-6e" transform="translate(169.384766 0)"/>
      <use xlink:href="#DejaVuSans-5f" transform="translate(232.763672 0)"/>
      <use xlink:href="#DejaVuSans-61" transform="translate(282.763672 0)"/>
      <use xlink:href="#DejaVuSans-63" transform="translate(344.042969 0)"/>
      <use xlink:href="#DejaVuSans-63" transform="translate(399.023438 0)"/>
      <use xlink:href="#DejaVuSans-75" transform="translate(454.003906 0)"/>
      <use xlink:href="#DejaVuSans-72" transform="translate(517.382812 0)"/>
      <use xlink:href="#DejaVuSans-61" transform="translate(558.496094 0)"/>
      <use xlink:href="#DejaVuSans-63" transform="translate(619.775391 0)"/>
      <use xlink:href="#DejaVuSans-79" transform="translate(674.755859 0)"/>
     </g>
    </g>
    <g id="line2d_33">
     <path d="M 52.78125 50.372812 
L 62.78125 50.372812 
L 72.78125 50.372812 
" style="fill: none; stroke: #ff7f0e; stroke-width: 1.5; stroke-linecap: square"/>
    </g>
    <g id="text_19">
     <!-- val_accuracy -->
     <g transform="translate(80.78125 53.872812) scale(0.1 -0.1)">
      <defs>
       <path id="DejaVuSans-76" d="M 191 3500 
L 800 3500 
L 1894 563 
L 2988 3500 
L 3597 3500 
L 2284 0 
L 1503 0 
L 191 3500 
z
" transform="scale(0.015625)"/>
      </defs>
      <use xlink:href="#DejaVuSans-76"/>
      <use xlink:href="#DejaVuSans-61" transform="translate(59.179688 0)"/>
      <use xlink:href="#DejaVuSans-6c" transform="translate(120.458984 0)"/>
      <use xlink:href="#DejaVuSans-5f" transform="translate(148.242188 0)"/>
      <use xlink:href="#DejaVuSans-61" transform="translate(198.242188 0)"/>
      <use xlink:href="#DejaVuSans-63" transform="translate(259.521484 0)"/>
      <use xlink:href="#DejaVuSans-63" transform="translate(314.501953 0)"/>
      <use xlink:href="#DejaVuSans-75" transform="translate(369.482422 0)"/>
      <use xlink:href="#DejaVuSans-72" transform="translate(432.861328 0)"/>
      <use xlink:href="#DejaVuSans-61" transform="translate(473.974609 0)"/>
      <use xlink:href="#DejaVuSans-63" transform="translate(535.253906 0)"/>
      <use xlink:href="#DejaVuSans-79" transform="translate(590.234375 0)"/>
     </g>
    </g>
    <g id="line2d_34">
     <path d="M 52.78125 65.329062 
L 62.78125 65.329062 
L 72.78125 65.329062 
" style="fill: none; stroke-dasharray: 11.1,4.8; stroke-dashoffset: 0; stroke: #ff0000; stroke-width: 3"/>
    </g>
    <g id="text_20">
     <!-- Random-Guesser Accuracy -->
     <g transform="translate(80.78125 68.829062) scale(0.1 -0.1)">
      <defs>
       <path id="DejaVuSans-52" d="M 2841 2188 
Q 3044 2119 3236 1894 
Q 3428 1669 3622 1275 
L 4263 0 
L 3584 0 
L 2988 1197 
Q 2756 1666 2539 1819 
Q 2322 1972 1947 1972 
L 1259 1972 
L 1259 0 
L 628 0 
L 628 4666 
L 2053 4666 
Q 2853 4666 3247 4331 
Q 3641 3997 3641 3322 
Q 3641 2881 3436 2590 
Q 3231 2300 2841 2188 
z
M 1259 4147 
L 1259 2491 
L 2053 2491 
Q 2509 2491 2742 2702 
Q 2975 2913 2975 3322 
Q 2975 3731 2742 3939 
Q 2509 4147 2053 4147 
L 1259 4147 
z
" transform="scale(0.015625)"/>
       <path id="DejaVuSans-6d" d="M 3328 2828 
Q 3544 3216 3844 3400 
Q 4144 3584 4550 3584 
Q 5097 3584 5394 3201 
Q 5691 2819 5691 2113 
L 5691 0 
L 5113 0 
L 5113 2094 
Q 5113 2597 4934 2840 
Q 4756 3084 4391 3084 
Q 3944 3084 3684 2787 
Q 3425 2491 3425 1978 
L 3425 0 
L 2847 0 
L 2847 2094 
Q 2847 2600 2669 2842 
Q 2491 3084 2119 3084 
Q 1678 3084 1418 2786 
Q 1159 2488 1159 1978 
L 1159 0 
L 581 0 
L 581 3500 
L 1159 3500 
L 1159 2956 
Q 1356 3278 1631 3431 
Q 1906 3584 2284 3584 
Q 2666 3584 2933 3390 
Q 3200 3197 3328 2828 
z
" transform="scale(0.015625)"/>
       <path id="DejaVuSans-2d" d="M 313 2009 
L 1997 2009 
L 1997 1497 
L 313 1497 
L 313 2009 
z
" transform="scale(0.015625)"/>
       <path id="DejaVuSans-47" d="M 3809 666 
L 3809 1919 
L 2778 1919 
L 2778 2438 
L 4434 2438 
L 4434 434 
Q 4069 175 3628 42 
Q 3188 -91 2688 -91 
Q 1594 -91 976 548 
Q 359 1188 359 2328 
Q 359 3472 976 4111 
Q 1594 4750 2688 4750 
Q 3144 4750 3555 4637 
Q 3966 4525 4313 4306 
L 4313 3634 
Q 3963 3931 3569 4081 
Q 3175 4231 2741 4231 
Q 1884 4231 1454 3753 
Q 1025 3275 1025 2328 
Q 1025 1384 1454 906 
Q 1884 428 2741 428 
Q 3075 428 3337 486 
Q 3600 544 3809 666 
z
" transform="scale(0.015625)"/>
       <path id="DejaVuSans-65" d="M 3597 1894 
L 3597 1613 
L 953 1613 
Q 991 1019 1311 708 
Q 1631 397 2203 397 
Q 2534 397 2845 478 
Q 3156 559 3463 722 
L 3463 178 
Q 3153 47 2828 -22 
Q 2503 -91 2169 -91 
Q 1331 -91 842 396 
Q 353 884 353 1716 
Q 353 2575 817 3079 
Q 1281 3584 2069 3584 
Q 2775 3584 3186 3129 
Q 3597 2675 3597 1894 
z
M 3022 2063 
Q 3016 2534 2758 2815 
Q 2500 3097 2075 3097 
Q 1594 3097 1305 2825 
Q 1016 2553 972 2059 
L 3022 2063 
z
" transform="scale(0.015625)"/>
      </defs>
      <use xlink:href="#DejaVuSans-52"/>
      <use xlink:href="#DejaVuSans-61" transform="translate(67.232422 0)"/>
      <use xlink:href="#DejaVuSans-6e" transform="translate(128.511719 0)"/>
      <use xlink:href="#DejaVuSans-64" transform="translate(191.890625 0)"/>
      <use xlink:href="#DejaVuSans-6f" transform="translate(255.367188 0)"/>
      <use xlink:href="#DejaVuSans-6d" transform="translate(316.548828 0)"/>
      <use xlink:href="#DejaVuSans-2d" transform="translate(413.960938 0)"/>
      <use xlink:href="#DejaVuSans-47" transform="translate(453.669922 0)"/>
      <use xlink:href="#DejaVuSans-75" transform="translate(531.160156 0)"/>
      <use xlink:href="#DejaVuSans-65" transform="translate(594.539062 0)"/>
      <use xlink:href="#DejaVuSans-73" transform="translate(656.0625 0)"/>
      <use xlink:href="#DejaVuSans-73" transform="translate(708.162109 0)"/>
      <use xlink:href="#DejaVuSans-65" transform="translate(760.261719 0)"/>
      <use xlink:href="#DejaVuSans-72" transform="translate(821.785156 0)"/>
      <use xlink:href="#DejaVuSans-20" transform="translate(862.898438 0)"/>
      <use xlink:href="#DejaVuSans-41" transform="translate(894.685547 0)"/>
      <use xlink:href="#DejaVuSans-63" transform="translate(961.34375 0)"/>
      <use xlink:href="#DejaVuSans-63" transform="translate(1016.324219 0)"/>
      <use xlink:href="#DejaVuSans-75" transform="translate(1071.304688 0)"/>
      <use xlink:href="#DejaVuSans-72" transform="translate(1134.683594 0)"/>
      <use xlink:href="#DejaVuSans-61" transform="translate(1175.796875 0)"/>
      <use xlink:href="#DejaVuSans-63" transform="translate(1237.076172 0)"/>
      <use xlink:href="#DejaVuSans-79" transform="translate(1292.056641 0)"/>
     </g>
    </g>
   </g>
  </g>
 </g>
 <defs>
  <clipPath id="pd58bd5eec1">
   <rect x="43.78125" y="22.318125" width="558" height="554.4"/>
  </clipPath>
 </defs>
</svg>
