<?xml version="1.0" encoding="utf-8" standalone="no"?>
<!DOCTYPE svg PUBLIC "-//W3C//DTD SVG 1.1//EN"
  "http://www.w3.org/Graphics/SVG/1.1/DTD/svg11.dtd">
<svg xmlns:xlink="http://www.w3.org/1999/xlink" width="608.98125pt" height="614.274375pt" viewBox="0 0 608.98125 614.274375" xmlns="http://www.w3.org/2000/svg" version="1.1">
 <metadata>
  <rdf:RDF xmlns:dc="http://purl.org/dc/elements/1.1/" xmlns:cc="http://creativecommons.org/ns#" xmlns:rdf="http://www.w3.org/1999/02/22-rdf-syntax-ns#">
   <cc:Work>
    <dc:type rdf:resource="http://purl.org/dc/dcmitype/StillImage"/>
    <dc:date>2026-06-03T23:46:53.414494</dc:date>
    <dc:format>image/svg+xml</dc:format>
    <dc:creator>
     <cc:Agent>
      <dc:title>Matplotlib v3.10.9, https://matplotlib.org/</dc:title>
     </cc:Agent>
    </dc:creator>
   </cc:Work>
  </rdf:RDF>
 </metadata>
 <defs>
  <style type="text/css">*{stroke-linejoin: round; stroke-linecap: butt}</style>
 </defs>
 <g id="figure_1">
  <g id="patch_1">
   <path d="M 0 614.274375 
L 608.98125 614.274375 
L 608.98125 0 
L 0 0 
z
" style="fill: #ffffff"/>
  </g>
  <g id="axes_1">
   <g id="patch_2">
    <path d="M 43.78125 576.718125 
L 601.78125 576.718125 
L 601.78125 22.318125 
L 43.78125 22.318125 
z
" style="fill: #ffffff"/>
   </g>
   <g id="matplotlib.axis_1">
    <g id="xtick_1">
     <g id="line2d_1">
      <path d="M 69.144886 576.718125 
L 69.144886 22.318125 
" clip-path="url(#pf8eda38754)" style="fill: none; stroke: #b0b0b0; stroke-width: 0.8; stroke-linecap: square"/>
     </g>
     <g id="line2d_2">
      <defs>
       <path id="m06156a6d94" d="M 0 0 
L 0 3.5 
" style="stroke: #000000; stroke-width: 0.8"/>
      </defs>
      <g>
       <use xlink:href="#m06156a6d94" x="69.144886" y="576.718125" style="stroke: #000000; stroke-width: 0.8"/>
      </g>
     </g>
     <g id="text_1">
      <!-- 0 -->
      <g transform="translate(65.963636 591.316563) scale(0.1 -0.1)">
       <defs>
        <path id="DejaVuSans-30" d="M 2034 4250 
Q 1547 4250 1301 3770 
Q 1056 3291 1056 2328 
Q 1056 1369 1301 889 
Q 1547 409 2034 409 
Q 2525 409 2770 889 
Q 3016 1369 3016 2328 
Q 3016 3291 2770 3770 
Q 2525 4250 2034 4250 
z
M 2034 4750 
Q 2819 4750 3233 4129 
Q 3647 3509 3647 2328 
Q 3647 1150 3233 529 
Q 2819 -91 2034 -91 
Q 1250 -91 836 529 
Q 422 1150 422 2328 
Q 422 3509 836 4129 
Q 1250 4750 2034 4750 
z
" transform="scale(0.015625)"/>
       </defs>
       <use xlink:href="#DejaVuSans-30"/>
      </g>
     </g>
    </g>
    <g id="xtick_2">
     <g id="line2d_3">
      <path d="M 132.633338 576.718125 
L 132.633338 22.318125 
" clip-path="url(#pf8eda38754)" style="fill: none; stroke: #b0b0b0; stroke-width: 0.8; stroke-linecap: square"/>
     </g>
     <g id="line2d_4">
      <g>
       <use xlink:href="#m06156a6d94" x="132.633338" y="576.718125" style="stroke: #000000; stroke-width: 0.8"/>
      </g>
     </g>
     <g id="text_2">
      <!-- 100 -->
      <g transform="translate(123.089588 591.316563) scale(0.1 -0.1)">
       <defs>
        <path id="DejaVuSans-31" d="M 794 531 
L 1825 531 
L 1825 4091 
L 703 3866 
L 703 4441 
L 1819 4666 
L 2450 4666 
L 2450 531 
L 3481 531 
L 3481 0 
L 794 0 
L 794 531 
z
" transform="scale(0.015625)"/>
       </defs>
       <use xlink:href="#DejaVuSans-31"/>
       <use xlink:href="#DejaVuSans-30" transform="translate(63.623047 0)"/>
       <use xlink:href="#DejaVuSans-30" transform="translate(127.246094 0)"/>
      </g>
     </g>
    </g>
    <g id="xtick_3">
     <g id="line2d_5">
      <path d="M 196.121789 576.718125 
L 196.121789 22.318125 
" clip-path="url(#pf8eda38754)" style="fill: none; stroke: #b0b0b0; stroke-width: 0.8; stroke-linecap: square"/>
     </g>
     <g id="line2d_6">
      <g>
       <use xlink:href="#m06156a6d94" x="196.121789" y="576.718125" style="stroke: #000000; stroke-width: 0.8"/>
      </g>
     </g>
     <g id="text_3">
      <!-- 200 -->
      <g transform="translate(186.578039 591.316563) scale(0.1 -0.1)">
       <defs>
        <path id="DejaVuSans-32" d="M 1228 531 
L 3431 531 
L 3431 0 
L 469 0 
L 469 531 
Q 828 903 1448 1529 
Q 2069 2156 2228 2338 
Q 2531 2678 2651 2914 
Q 2772 3150 2772 3378 
Q 2772 3750 2511 3984 
Q 2250 4219 1831 4219 
Q 1534 4219 1204 4116 
Q 875 4013 500 3803 
L 500 4441 
Q 881 4594 1212 4672 
Q 1544 4750 1819 4750 
Q 2544 4750 2975 4387 
Q 3406 4025 3406 3419 
Q 3406 3131 3298 2873 
Q 3191 2616 2906 2266 
Q 2828 2175 2409 1742 
Q 1991 1309 1228 531 
z
" transform="scale(0.015625)"/>
       </defs>
       <use xlink:href="#DejaVuSans-32"/>
       <use xlink:href="#DejaVuSans-30" transform="translate(63.623047 0)"/>
       <use xlink:href="#DejaVuSans-30" transform="translate(127.246094 0)"/>
      </g>
     </g>
    </g>
    <g id="xtick_4">
     <g id="line2d_7">
      <path d="M 259.610241 576.718125 
L 259.610241 22.318125 
" clip-path="url(#pf8eda38754)" style="fill: none; stroke: #b0b0b0; stroke-width: 0.8; stroke-linecap: square"/>
     </g>
     <g id="line2d_8">
      <g>
       <use xlink:href="#m06156a6d94" x="259.610241" y="576.718125" style="stroke: #000000; stroke-width: 0.8"/>
      </g>
     </g>
     <g id="text_4">
      <!-- 300 -->
      <g transform="translate(250.066491 591.316563) scale(0.1 -0.1)">
       <defs>
        <path id="DejaVuSans-33" d="M 2597 2516 
Q 3050 2419 3304 2112 
Q 3559 1806 3559 1356 
Q 3559 666 3084 287 
Q 2609 -91 1734 -91 
Q 1441 -91 1130 -33 
Q 819 25 488 141 
L 488 750 
Q 750 597 1062 519 
Q 1375 441 1716 441 
Q 2309 441 2620 675 
Q 2931 909 2931 1356 
Q 2931 1769 2642 2001 
Q 2353 2234 1838 2234 
L 1294 2234 
L 1294 2753 
L 1863 2753 
Q 2328 2753 2575 2939 
Q 2822 3125 2822 3475 
Q 2822 3834 2567 4026 
Q 2313 4219 1838 4219 
Q 1578 4219 1281 4162 
Q 984 4106 628 3988 
L 628 4550 
Q 988 4650 1302 4700 
Q 1616 4750 1894 4750 
Q 2613 4750 3031 4423 
Q 3450 4097 3450 3541 
Q 3450 3153 3228 2886 
Q 3006 2619 2597 2516 
z
" transform="scale(0.015625)"/>
       </defs>
       <use xlink:href="#DejaVuSans-33"/>
       <use xlink:href="#DejaVuSans-30" transform="translate(63.623047 0)"/>
       <use xlink:href="#DejaVuSans-30" transform="translate(127.246094 0)"/>
      </g>
     </g>
    </g>
    <g id="xtick_5">
     <g id="line2d_9">
      <path d="M 323.098692 576.718125 
L 323.098692 22.318125 
" clip-path="url(#pf8eda38754)" style="fill: none; stroke: #b0b0b0; stroke-width: 0.8; stroke-linecap: square"/>
     </g>
     <g id="line2d_10">
      <g>
       <use xlink:href="#m06156a6d94" x="323.098692" y="576.718125" style="stroke: #000000; stroke-width: 0.8"/>
      </g>
     </g>
     <g id="text_5">
      <!-- 400 -->
      <g transform="translate(313.554942 591.316563) scale(0.1 -0.1)">
       <defs>
        <path id="DejaVuSans-34" d="M 2419 4116 
L 825 1625 
L 2419 1625 
L 2419 4116 
z
M 2253 4666 
L 3047 4666 
L 3047 1625 
L 3713 1625 
L 3713 1100 
L 3047 1100 
L 3047 0 
L 2419 0 
L 2419 1100 
L 313 1100 
L 313 1709 
L 2253 4666 
z
" transform="scale(0.015625)"/>
       </defs>
       <use xlink:href="#DejaVuSans-34"/>
       <use xlink:href="#DejaVuSans-30" transform="translate(63.623047 0)"/>
       <use xlink:href="#DejaVuSans-30" transform="translate(127.246094 0)"/>
      </g>
     </g>
    </g>
    <g id="xtick_6">
     <g id="line2d_11">
      <path d="M 386.587144 576.718125 
L 386.587144 22.318125 
" clip-path="url(#pf8eda38754)" style="fill: none; stroke: #b0b0b0; stroke-width: 0.8; stroke-linecap: square"/>
     </g>
     <g id="line2d_12">
      <g>
       <use xlink:href="#m06156a6d94" x="386.587144" y="576.718125" style="stroke: #000000; stroke-width: 0.8"/>
      </g>
     </g>
     <g id="text_6">
      <!-- 500 -->
      <g transform="translate(377.043394 591.316563) scale(0.1 -0.1)">
       <defs>
        <path id="DejaVuSans-35" d="M 691 4666 
L 3169 4666 
L 3169 4134 
L 1269 4134 
L 1269 2991 
Q 1406 3038 1543 3061 
Q 1681 3084 1819 3084 
Q 2600 3084 3056 2656 
Q 3513 2228 3513 1497 
Q 3513 744 3044 326 
Q 2575 -91 1722 -91 
Q 1428 -91 1123 -41 
Q 819 9 494 109 
L 494 744 
Q 775 591 1075 516 
Q 1375 441 1709 441 
Q 2250 441 2565 725 
Q 2881 1009 2881 1497 
Q 2881 1984 2565 2268 
Q 2250 2553 1709 2553 
Q 1456 2553 1204 2497 
Q 953 2441 691 2322 
L 691 4666 
z
" transform="scale(0.015625)"/>
       </defs>
       <use xlink:href="#DejaVuSans-35"/>
       <use xlink:href="#DejaVuSans-30" transform="translate(63.623047 0)"/>
       <use xlink:href="#DejaVuSans-30" transform="translate(127.246094 0)"/>
      </g>
     </g>
    </g>
    <g id="xtick_7">
     <g id="line2d_13">
      <path d="M 450.075595 576.718125 
L 450.075595 22.318125 
" clip-path="url(#pf8eda38754)" style="fill: none; stroke: #b0b0b0; stroke-width: 0.8; stroke-linecap: square"/>
     </g>
     <g id="line2d_14">
      <g>
       <use xlink:href="#m06156a6d94" x="450.075595" y="576.718125" style="stroke: #000000; stroke-width: 0.8"/>
      </g>
     </g>
     <g id="text_7">
      <!-- 600 -->
      <g transform="translate(440.531845 591.316563) scale(0.1 -0.1)">
       <defs>
        <path id="DejaVuSans-36" d="M 2113 2584 
Q 1688 2584 1439 2293 
Q 1191 2003 1191 1497 
Q 1191 994 1439 701 
Q 1688 409 2113 409 
Q 2538 409 2786 701 
Q 3034 994 3034 1497 
Q 3034 2003 2786 2293 
Q 2538 2584 2113 2584 
z
M 3366 4563 
L 3366 3988 
Q 3128 4100 2886 4159 
Q 2644 4219 2406 4219 
Q 1781 4219 1451 3797 
Q 1122 3375 1075 2522 
Q 1259 2794 1537 2939 
Q 1816 3084 2150 3084 
Q 2853 3084 3261 2657 
Q 3669 2231 3669 1497 
Q 3669 778 3244 343 
Q 2819 -91 2113 -91 
Q 1303 -91 875 529 
Q 447 1150 447 2328 
Q 447 3434 972 4092 
Q 1497 4750 2381 4750 
Q 2619 4750 2861 4703 
Q 3103 4656 3366 4563 
z
" transform="scale(0.015625)"/>
       </defs>
       <use xlink:href="#DejaVuSans-36"/>
       <use xlink:href="#DejaVuSans-30" transform="translate(63.623047 0)"/>
       <use xlink:href="#DejaVuSans-30" transform="translate(127.246094 0)"/>
      </g>
     </g>
    </g>
    <g id="xtick_8">
     <g id="line2d_15">
      <path d="M 513.564047 576.718125 
L 513.564047 22.318125 
" clip-path="url(#pf8eda38754)" style="fill: none; stroke: #b0b0b0; stroke-width: 0.8; stroke-linecap: square"/>
     </g>
     <g id="line2d_16">
      <g>
       <use xlink:href="#m06156a6d94" x="513.564047" y="576.718125" style="stroke: #000000; stroke-width: 0.8"/>
      </g>
     </g>
     <g id="text_8">
      <!-- 700 -->
      <g transform="translate(504.020297 591.316563) scale(0.1 -0.1)">
       <defs>
        <path id="DejaVuSans-37" d="M 525 4666 
L 3525 4666 
L 3525 4397 
L 1831 0 
L 1172 0 
L 2766 4134 
L 525 4134 
L 525 4666 
z
" transform="scale(0.015625)"/>
       </defs>
       <use xlink:href="#DejaVuSans-37"/>
       <use xlink:href="#DejaVuSans-30" transform="translate(63.623047 0)"/>
       <use xlink:href="#DejaVuSans-30" transform="translate(127.246094 0)"/>
      </g>
     </g>
    </g>
    <g id="xtick_9">
     <g id="line2d_17">
      <path d="M 577.052498 576.718125 
L 577.052498 22.318125 
" clip-path="url(#pf8eda38754)" style="fill: none; stroke: #b0b0b0; stroke-width: 0.8; stroke-linecap: square"/>
     </g>
     <g id="line2d_18">
      <g>
       <use xlink:href="#m06156a6d94" x="577.052498" y="576.718125" style="stroke: #000000; stroke-width: 0.8"/>
      </g>
     </g>
     <g id="text_9">
      <!-- 800 -->
      <g transform="translate(567.508748 591.316563) scale(0.1 -0.1)">
       <defs>
        <path id="DejaVuSans-38" d="M 2034 2216 
Q 1584 2216 1326 1975 
Q 1069 1734 1069 1313 
Q 1069 891 1326 650 
Q 1584 409 2034 409 
Q 2484 409 2743 651 
Q 3003 894 3003 1313 
Q 3003 1734 2745 1975 
Q 2488 2216 2034 2216 
z
M 1403 2484 
Q 997 2584 770 2862 
Q 544 3141 544 3541 
Q 544 4100 942 4425 
Q 1341 4750 2034 4750 
Q 2731 4750 3128 4425 
Q 3525 4100 3525 3541 
Q 3525 3141 3298 2862 
Q 3072 2584 2669 2484 
Q 3125 2378 3379 2068 
Q 3634 1759 3634 1313 
Q 3634 634 3220 271 
Q 2806 -91 2034 -91 
Q 1263 -91 848 271 
Q 434 634 434 1313 
Q 434 1759 690 2068 
Q 947 2378 1403 2484 
z
M 1172 3481 
Q 1172 3119 1398 2916 
Q 1625 2713 2034 2713 
Q 2441 2713 2670 2916 
Q 2900 3119 2900 3481 
Q 2900 3844 2670 4047 
Q 2441 4250 2034 4250 
Q 1625 4250 1398 4047 
Q 1172 3844 1172 3481 
z
" transform="scale(0.015625)"/>
       </defs>
       <use xlink:href="#DejaVuSans-38"/>
       <use xlink:href="#DejaVuSans-30" transform="translate(63.623047 0)"/>
       <use xlink:href="#DejaVuSans-30" transform="translate(127.246094 0)"/>
      </g>
     </g>
    </g>
    <g id="text_10">
     <!-- Epochs -->
     <g transform="translate(304.865625 604.994688) scale(0.1 -0.1)">
      <defs>
       <path id="DejaVuSans-45" d="M 628 4666 
L 3578 4666 
L 3578 4134 
L 1259 4134 
L 1259 2753 
L 3481 2753 
L 3481 2222 
L 1259 2222 
L 1259 531 
L 3634 531 
L 3634 0 
L 628 0 
L 628 4666 
z
" transform="scale(0.015625)"/>
       <path id="DejaVuSans-70" d="M 1159 525 
L 1159 -1331 
L 581 -1331 
L 581 3500 
L 1159 3500 
L 1159 2969 
Q 1341 3281 1617 3432 
Q 1894 3584 2278 3584 
Q 2916 3584 3314 3078 
Q 3713 2572 3713 1747 
Q 3713 922 3314 415 
Q 2916 -91 2278 -91 
Q 1894 -91 1617 61 
Q 1341 213 1159 525 
z
M 3116 1747 
Q 3116 2381 2855 2742 
Q 2594 3103 2138 3103 
Q 1681 3103 1420 2742 
Q 1159 2381 1159 1747 
Q 1159 1113 1420 752 
Q 1681 391 2138 391 
Q 2594 391 2855 752 
Q 3116 1113 3116 1747 
z
" transform="scale(0.015625)"/>
       <path id="DejaVuSans-6f" d="M 1959 3097 
Q 1497 3097 1228 2736 
Q 959 2375 959 1747 
Q 959 1119 1226 758 
Q 1494 397 1959 397 
Q 2419 397 2687 759 
Q 2956 1122 2956 1747 
Q 2956 2369 2687 2733 
Q 2419 3097 1959 3097 
z
M 1959 3584 
Q 2709 3584 3137 3096 
Q 3566 2609 3566 1747 
Q 3566 888 3137 398 
Q 2709 -91 1959 -91 
Q 1206 -91 779 398 
Q 353 888 353 1747 
Q 353 2609 779 3096 
Q 1206 3584 1959 3584 
z
" transform="scale(0.015625)"/>
       <path id="DejaVuSans-63" d="M 3122 3366 
L 3122 2828 
Q 2878 2963 2633 3030 
Q 2388 3097 2138 3097 
Q 1578 3097 1268 2742 
Q 959 2388 959 1747 
Q 959 1106 1268 751 
Q 1578 397 2138 397 
Q 2388 397 2633 464 
Q 2878 531 3122 666 
L 3122 134 
Q 2881 22 2623 -34 
Q 2366 -91 2075 -91 
Q 1284 -91 818 406 
Q 353 903 353 1747 
Q 353 2603 823 3093 
Q 1294 3584 2113 3584 
Q 2378 3584 2631 3529 
Q 2884 3475 3122 3366 
z
" transform="scale(0.015625)"/>
       <path id="DejaVuSans-68" d="M 3513 2113 
L 3513 0 
L 2938 0 
L 2938 2094 
Q 2938 2591 2744 2837 
Q 2550 3084 2163 3084 
Q 1697 3084 1428 2787 
Q 1159 2491 1159 1978 
L 1159 0 
L 581 0 
L 581 4863 
L 1159 4863 
L 1159 2956 
Q 1366 3272 1645 3428 
Q 1925 3584 2291 3584 
Q 2894 3584 3203 3211 
Q 3513 2838 3513 2113 
z
" transform="scale(0.015625)"/>
       <path id="DejaVuSans-73" d="M 2834 3397 
L 2834 2853 
Q 2591 2978 2328 3040 
Q 2066 3103 1784 3103 
Q 1356 3103 1142 2972 
Q 928 2841 928 2578 
Q 928 2378 1081 2264 
Q 1234 2150 1697 2047 
L 1894 2003 
Q 2506 1872 2764 1633 
Q 3022 1394 3022 966 
Q 3022 478 2636 193 
Q 2250 -91 1575 -91 
Q 1294 -91 989 -36 
Q 684 19 347 128 
L 347 722 
Q 666 556 975 473 
Q 1284 391 1588 391 
Q 1994 391 2212 530 
Q 2431 669 2431 922 
Q 2431 1156 2273 1281 
Q 2116 1406 1581 1522 
L 1381 1569 
Q 847 1681 609 1914 
Q 372 2147 372 2553 
Q 372 3047 722 3315 
Q 1072 3584 1716 3584 
Q 2034 3584 2315 3537 
Q 2597 3491 2834 3397 
z
" transform="scale(0.015625)"/>
      </defs>
      <use xlink:href="#DejaVuSans-45"/>
      <use xlink:href="#DejaVuSans-70" transform="translate(63.183594 0)"/>
      <use xlink:href="#DejaVuSans-6f" transform="translate(126.660156 0)"/>
      <use xlink:href="#DejaVuSans-63" transform="translate(187.841797 0)"/>
      <use xlink:href="#DejaVuSans-68" transform="translate(242.822266 0)"/>
      <use xlink:href="#DejaVuSans-73" transform="translate(306.201172 0)"/>
     </g>
    </g>
   </g>
   <g id="matplotlib.axis_2">
    <g id="ytick_1">
     <g id="line2d_19">
      <path d="M 43.78125 517.489313 
L 601.78125 517.489313 
" clip-path="url(#pf8eda38754)" style="fill: none; stroke: #b0b0b0; stroke-width: 0.8; stroke-linecap: square"/>
     </g>
     <g id="line2d_20">
      <defs>
       <path id="mf9c14caad0" d="M 0 0 
L -3.5 0 
" style="stroke: #000000; stroke-width: 0.8"/>
      </defs>
      <g>
       <use xlink:href="#mf9c14caad0" x="43.78125" y="517.489313" style="stroke: #000000; stroke-width: 0.8"/>
      </g>
     </g>
     <g id="text_11">
      <!-- 0.4 -->
      <g transform="translate(20.878125 521.288532) scale(0.1 -0.1)">
       <defs>
        <path id="DejaVuSans-2e" d="M 684 794 
L 1344 794 
L 1344 0 
L 684 0 
L 684 794 
z
" transform="scale(0.015625)"/>
       </defs>
       <use xlink:href="#DejaVuSans-30"/>
       <use xlink:href="#DejaVuSans-2e" transform="translate(63.623047 0)"/>
       <use xlink:href="#DejaVuSans-34" transform="translate(95.410156 0)"/>
      </g>
     </g>
    </g>
    <g id="ytick_2">
     <g id="line2d_21">
      <path d="M 43.78125 440.212469 
L 601.78125 440.212469 
" clip-path="url(#pf8eda38754)" style="fill: none; stroke: #b0b0b0; stroke-width: 0.8; stroke-linecap: square"/>
     </g>
     <g id="line2d_22">
      <g>
       <use xlink:href="#mf9c14caad0" x="43.78125" y="440.212469" style="stroke: #000000; stroke-width: 0.8"/>
      </g>
     </g>
     <g id="text_12">
      <!-- 0.6 -->
      <g transform="translate(20.878125 444.011688) scale(0.1 -0.1)">
       <use xlink:href="#DejaVuSans-30"/>
       <use xlink:href="#DejaVuSans-2e" transform="translate(63.623047 0)"/>
       <use xlink:href="#DejaVuSans-36" transform="translate(95.410156 0)"/>
      </g>
     </g>
    </g>
    <g id="ytick_3">
     <g id="line2d_23">
      <path d="M 43.78125 362.935626 
L 601.78125 362.935626 
" clip-path="url(#pf8eda38754)" style="fill: none; stroke: #b0b0b0; stroke-width: 0.8; stroke-linecap: square"/>
     </g>
     <g id="line2d_24">
      <g>
       <use xlink:href="#mf9c14caad0" x="43.78125" y="362.935626" style="stroke: #000000; stroke-width: 0.8"/>
      </g>
     </g>
     <g id="text_13">
      <!-- 0.8 -->
      <g transform="translate(20.878125 366.734844) scale(0.1 -0.1)">
       <use xlink:href="#DejaVuSans-30"/>
       <use xlink:href="#DejaVuSans-2e" transform="translate(63.623047 0)"/>
       <use xlink:href="#DejaVuSans-38" transform="translate(95.410156 0)"/>
      </g>
     </g>
    </g>
    <g id="ytick_4">
     <g id="line2d_25">
      <path d="M 43.78125 285.658782 
L 601.78125 285.658782 
" clip-path="url(#pf8eda38754)" style="fill: none; stroke: #b0b0b0; stroke-width: 0.8; stroke-linecap: square"/>
     </g>
     <g id="line2d_26">
      <g>
       <use xlink:href="#mf9c14caad0" x="43.78125" y="285.658782" style="stroke: #000000; stroke-width: 0.8"/>
      </g>
     </g>
     <g id="text_14">
      <!-- 1.0 -->
      <g transform="translate(20.878125 289.458001) scale(0.1 -0.1)">
       <use xlink:href="#DejaVuSans-31"/>
       <use xlink:href="#DejaVuSans-2e" transform="translate(63.623047 0)"/>
       <use xlink:href="#DejaVuSans-30" transform="translate(95.410156 0)"/>
      </g>
     </g>
    </g>
    <g id="ytick_5">
     <g id="line2d_27">
      <path d="M 43.78125 208.381938 
L 601.78125 208.381938 
" clip-path="url(#pf8eda38754)" style="fill: none; stroke: #b0b0b0; stroke-width: 0.8; stroke-linecap: square"/>
     </g>
     <g id="line2d_28">
      <g>
       <use xlink:href="#mf9c14caad0" x="43.78125" y="208.381938" style="stroke: #000000; stroke-width: 0.8"/>
      </g>
     </g>
     <g id="text_15">
      <!-- 1.2 -->
      <g transform="translate(20.878125 212.181157) scale(0.1 -0.1)">
       <use xlink:href="#DejaVuSans-31"/>
       <use xlink:href="#DejaVuSans-2e" transform="translate(63.623047 0)"/>
       <use xlink:href="#DejaVuSans-32" transform="translate(95.410156 0)"/>
      </g>
     </g>
    </g>
    <g id="ytick_6">
     <g id="line2d_29">
      <path d="M 43.78125 131.105094 
L 601.78125 131.105094 
" clip-path="url(#pf8eda38754)" style="fill: none; stroke: #b0b0b0; stroke-width: 0.8; stroke-linecap: square"/>
     </g>
     <g id="line2d_30">
      <g>
       <use xlink:href="#mf9c14caad0" x="43.78125" y="131.105094" style="stroke: #000000; stroke-width: 0.8"/>
      </g>
     </g>
     <g id="text_16">
      <!-- 1.4 -->
      <g transform="translate(20.878125 134.904313) scale(0.1 -0.1)">
       <use xlink:href="#DejaVuSans-31"/>
       <use xlink:href="#DejaVuSans-2e" transform="translate(63.623047 0)"/>
       <use xlink:href="#DejaVuSans-34" transform="translate(95.410156 0)"/>
      </g>
     </g>
    </g>
    <g id="ytick_7">
     <g id="line2d_31">
      <path d="M 43.78125 53.828251 
L 601.78125 53.828251 
" clip-path="url(#pf8eda38754)" style="fill: none; stroke: #b0b0b0; stroke-width: 0.8; stroke-linecap: square"/>
     </g>
     <g id="line2d_32">
      <g>
       <use xlink:href="#mf9c14caad0" x="43.78125" y="53.828251" style="stroke: #000000; stroke-width: 0.8"/>
      </g>
     </g>
     <g id="text_17">
      <!-- 1.6 -->
      <g transform="translate(20.878125 57.627469) scale(0.1 -0.1)">
       <use xlink:href="#DejaVuSans-31"/>
       <use xlink:href="#DejaVuSans-2e" transform="translate(63.623047 0)"/>
       <use xlink:href="#DejaVuSans-36" transform="translate(95.410156 0)"/>
      </g>
     </g>
    </g>
    <g id="text_18">
     <!-- Loss -->
     <g transform="translate(14.798438 310.485313) rotate(-90) scale(0.1 -0.1)">
      <defs>
       <path id="DejaVuSans-4c" d="M 628 4666 
L 1259 4666 
L 1259 531 
L 3531 531 
L 3531 0 
L 628 0 
L 628 4666 
z
" transform="scale(0.015625)"/>
      </defs>
      <use xlink:href="#DejaVuSans-4c"/>
      <use xlink:href="#DejaVuSans-6f" transform="translate(53.962891 0)"/>
      <use xlink:href="#DejaVuSans-73" transform="translate(115.144531 0)"/>
      <use xlink:href="#DejaVuSans-73" transform="translate(167.244141 0)"/>
     </g>
    </g>
   </g>
   <g id="line2d_33">
    <path d="M 69.144886 47.518125 
L 69.779771 139.930635 
L 70.414655 177.190196 
L 71.04954 197.698903 
L 71.684424 209.357713 
L 72.319309 217.655851 
L 73.589078 229.542154 
L 74.858847 238.411581 
L 77.398385 252.809384 
L 80.572808 268.918706 
L 83.112346 280.017281 
L 85.651884 289.470365 
L 87.556537 295.734213 
L 90.096075 303.174173 
L 92.000729 308.203321 
L 93.905382 312.93858 
L 97.71469 321.91565 
L 102.793766 332.93788 
L 105.968188 339.238001 
L 110.41238 347.733048 
L 112.317033 351.311172 
L 113.586802 353.550339 
L 116.761225 359.348653 
L 118.665879 362.779361 
L 124.379839 372.727503 
L 126.919377 377.241072 
L 127.554262 378.182942 
L 128.189146 379.439775 
L 130.0938 382.534194 
L 130.728684 383.695704 
L 131.998453 385.658484 
L 138.347298 395.709733 
L 140.251952 398.498541 
L 141.521721 400.3119 
L 145.331028 405.575451 
L 147.235682 408.149731 
L 148.505451 409.562501 
L 150.410104 412.095511 
L 151.679873 413.623341 
L 156.758949 419.319423 
L 161.838026 424.82166 
L 169.45664 432.216572 
L 170.091524 432.671812 
L 171.996178 434.514719 
L 172.631062 434.994118 
L 173.900831 436.126425 
L 176.440369 438.322848 
L 181.519445 442.474887 
L 182.15433 442.863569 
L 183.424099 444.030123 
L 184.058984 444.203426 
L 184.693868 444.927222 
L 185.963637 445.902486 
L 187.868291 447.241605 
L 188.503175 447.9166 
L 189.772944 448.532085 
L 190.407829 449.164566 
L 191.042713 449.621763 
L 191.677598 449.927813 
L 192.947367 450.97196 
L 193.582251 451.268061 
L 194.217136 451.849299 
L 195.486905 452.658561 
L 197.391558 454.009495 
L 198.026443 454.424869 
L 198.661327 454.601051 
L 199.931096 455.798051 
L 200.565981 455.991712 
L 201.200865 456.441287 
L 201.83575 456.683335 
L 203.105519 457.549965 
L 204.375288 458.470509 
L 208.81948 461.038548 
L 211.359018 462.615685 
L 211.993902 462.830742 
L 212.628787 463.293398 
L 213.263671 463.536529 
L 215.803209 465.087941 
L 217.072978 465.505665 
L 217.707863 466.13757 
L 218.977632 466.722148 
L 219.612516 466.991119 
L 220.247401 467.569248 
L 220.882285 467.685068 
L 221.51717 467.9808 
L 222.786939 468.767008 
L 223.421823 469.139523 
L 224.056708 469.243136 
L 224.691592 469.795656 
L 225.326477 470.073724 
L 225.961362 470.55987 
L 226.596246 470.624793 
L 227.866015 471.3204 
L 228.5009 471.701689 
L 229.135784 471.871008 
L 229.770669 472.201354 
L 230.405553 472.665046 
L 231.040438 472.847423 
L 231.675322 473.294487 
L 232.945091 473.674395 
L 236.119514 475.262058 
L 236.754398 475.415094 
L 237.389283 475.861928 
L 239.293936 476.645602 
L 239.928821 477.071502 
L 240.563705 477.214336 
L 241.19859 477.534618 
L 241.833474 477.552098 
L 242.468359 478.166569 
L 243.103243 478.243905 
L 243.738128 478.69394 
L 244.373012 478.781962 
L 245.007897 479.111882 
L 245.642781 479.273014 
L 246.277666 479.752493 
L 246.91255 479.842345 
L 247.547435 480.232755 
L 248.18232 480.446776 
L 248.817204 480.925621 
L 249.452089 480.933659 
L 250.086973 481.349793 
L 250.721858 481.600294 
L 251.356742 481.666253 
L 253.89628 482.79879 
L 254.531165 482.95649 
L 255.166049 483.347004 
L 256.435818 483.725149 
L 257.070703 484.217203 
L 257.705587 484.552421 
L 258.340472 484.416818 
L 260.245125 485.254752 
L 260.88001 485.426685 
L 261.514894 485.828264 
L 262.149779 485.87953 
L 262.784663 486.233828 
L 265.324201 487.000679 
L 265.959086 487.392033 
L 266.59397 487.608587 
L 267.228855 487.619515 
L 269.133509 488.655118 
L 269.768393 488.677181 
L 270.403278 488.832083 
L 271.038162 489.11957 
L 271.673047 489.556431 
L 273.5777 489.968409 
L 275.482354 490.717665 
L 277.387007 491.242191 
L 278.021892 491.553388 
L 279.291661 491.768238 
L 279.926545 492.243618 
L 281.196314 492.573953 
L 283.100968 493.15412 
L 283.735852 493.635569 
L 284.370737 493.388718 
L 285.005621 493.727655 
L 285.640506 493.84329 
L 286.27539 494.073674 
L 286.910275 494.121289 
L 287.545159 494.514428 
L 288.180044 494.751329 
L 288.814928 494.839949 
L 291.354467 495.689007 
L 294.528889 496.538019 
L 295.163774 496.878027 
L 295.798658 496.841777 
L 296.433543 496.954556 
L 298.338196 497.830157 
L 298.973081 497.682797 
L 299.607965 498.142597 
L 301.512619 498.485115 
L 302.147503 498.676912 
L 302.782388 498.99048 
L 305.95681 499.893372 
L 306.591695 499.747003 
L 307.226579 500.232009 
L 307.861464 500.137677 
L 308.496348 500.284253 
L 309.131233 500.761188 
L 309.766117 500.751596 
L 310.401002 501.001428 
L 311.035886 500.873622 
L 312.305656 501.496867 
L 312.94054 501.446592 
L 313.575425 501.54857 
L 314.845194 502.105869 
L 315.480078 501.988461 
L 316.749847 502.695894 
L 318.654501 502.757396 
L 319.92427 503.491751 
L 320.559154 503.408393 
L 321.828923 503.678757 
L 322.463808 503.953993 
L 323.098692 504.037339 
L 324.368461 504.519225 
L 325.003346 504.620673 
L 325.63823 504.553644 
L 326.907999 505.061957 
L 327.542884 505.025719 
L 329.447537 505.760708 
L 330.082422 505.753683 
L 330.717306 506.117712 
L 331.987075 506.255364 
L 333.256844 506.569416 
L 333.891729 506.646073 
L 335.161498 507.05577 
L 335.796383 507.03525 
L 336.431267 507.419994 
L 337.066152 507.322599 
L 338.970805 507.923287 
L 341.510343 508.452431 
L 342.780112 508.938715 
L 345.31965 509.230014 
L 346.589419 509.662892 
L 347.224304 509.684851 
L 348.494073 510.35585 
L 349.128957 510.557319 
L 350.398726 510.484175 
L 351.033611 510.733224 
L 351.668495 510.702986 
L 352.30338 511.046459 
L 352.938264 510.864992 
L 353.573149 511.260365 
L 354.208033 511.473833 
L 354.842918 511.394954 
L 356.112687 511.823317 
L 356.747572 511.69155 
L 357.382456 512.34166 
L 358.017341 512.36104 
L 358.652225 512.235421 
L 359.28711 512.564893 
L 360.556879 512.862467 
L 362.461532 513.166018 
L 363.096417 513.519061 
L 363.731301 513.519522 
L 366.270839 514.239161 
L 366.905724 514.121361 
L 367.540608 514.457292 
L 368.810377 514.539476 
L 369.445262 514.939765 
L 370.080146 514.823911 
L 370.715031 515.110731 
L 372.619684 515.422204 
L 374.524338 515.961665 
L 375.159222 515.927765 
L 375.794107 516.177148 
L 376.428991 516.114241 
L 377.698761 516.648026 
L 378.333645 516.64061 
L 382.777837 517.647425 
L 383.412721 517.954097 
L 384.68249 517.821477 
L 385.317375 518.172297 
L 388.491797 518.612026 
L 389.126682 519.039077 
L 389.761566 518.890497 
L 390.396451 519.302486 
L 391.66622 519.319655 
L 392.301104 519.526697 
L 392.935989 519.550131 
L 393.570873 520.001651 
L 394.205758 520.227763 
L 394.840642 520.040653 
L 395.475527 520.19476 
L 396.110411 520.605713 
L 397.38018 520.579516 
L 398.015065 520.755502 
L 398.64995 520.673088 
L 399.284834 520.748788 
L 399.919719 521.140177 
L 401.824372 521.456187 
L 402.459257 521.491631 
L 403.094141 521.754164 
L 404.998795 521.921123 
L 405.633679 521.862464 
L 406.268564 522.299614 
L 406.903448 522.441469 
L 407.538333 522.306938 
L 408.173217 522.565522 
L 408.808102 522.337107 
L 409.442986 522.908155 
L 410.077871 522.724269 
L 410.712755 522.926383 
L 411.34764 523.324911 
L 411.982524 523.48815 
L 412.617409 523.404089 
L 413.252293 523.613458 
L 414.522062 523.52319 
L 415.791831 524.347007 
L 417.0616 524.08194 
L 417.696485 524.522509 
L 418.966254 524.366318 
L 420.236023 524.826774 
L 420.870908 524.932806 
L 421.505792 524.84027 
L 422.140677 525.310525 
L 424.680215 525.80722 
L 425.315099 525.755056 
L 425.949984 525.978784 
L 428.489522 526.149047 
L 429.124406 526.614086 
L 429.759291 526.27508 
L 430.394175 526.623678 
L 431.663944 526.78314 
L 432.933713 527.170786 
L 433.568598 527.086414 
L 434.203482 527.382446 
L 436.108136 527.603352 
L 436.74302 528.02422 
L 437.377905 527.7529 
L 438.647674 528.171947 
L 439.282558 528.178235 
L 439.917443 528.729488 
L 440.552327 528.203038 
L 441.187212 528.615614 
L 441.822097 528.889779 
L 442.456981 528.762145 
L 443.091866 528.889088 
L 443.72675 528.69743 
L 444.361635 528.825996 
L 444.996519 529.209335 
L 445.631404 529.145956 
L 446.901173 529.704199 
L 447.536057 529.59902 
L 448.170942 529.862164 
L 448.805826 529.892621 
L 449.440711 530.208182 
L 450.075595 530.090555 
L 450.71048 530.407037 
L 451.345364 530.336104 
L 451.980249 530.696943 
L 452.615133 530.865651 
L 453.250018 530.710139 
L 454.519787 530.992283 
L 455.154671 531.110452 
L 455.789556 531.368748 
L 456.42444 531.321248 
L 457.059325 531.446187 
L 457.694209 531.238684 
L 458.963978 531.723207 
L 459.598863 531.752398 
L 460.233747 532.017661 
L 460.868632 532.11136 
L 461.503516 532.046184 
L 462.138401 532.360674 
L 462.773285 532.220742 
L 464.043055 532.714339 
L 464.677939 532.527932 
L 465.312824 532.960752 
L 465.947708 532.911236 
L 466.582593 533.25957 
L 467.217477 533.286193 
L 467.852362 533.060127 
L 468.487246 533.308187 
L 469.757015 533.484334 
L 471.026784 533.922727 
L 471.661669 533.907469 
L 472.296553 533.775598 
L 472.931438 534.197317 
L 476.10586 534.629607 
L 476.740745 534.894398 
L 477.375629 534.752785 
L 478.010514 535.19074 
L 478.645398 534.998794 
L 479.915167 535.421032 
L 481.184936 535.565132 
L 482.454705 535.921492 
L 483.08959 535.772071 
L 483.724474 535.853552 
L 484.359359 536.164035 
L 484.994244 535.970281 
L 485.629128 536.387279 
L 486.264013 536.321724 
L 486.898897 536.502316 
L 488.168666 536.660488 
L 489.438435 537.304783 
L 490.07332 537.24396 
L 490.708204 537.339835 
L 491.343089 537.133288 
L 491.977973 537.52759 
L 492.612858 537.578038 
L 493.247742 537.768682 
L 493.882627 537.815065 
L 494.517511 538.016465 
L 495.152396 538.029293 
L 495.78728 538.527462 
L 496.422165 538.337185 
L 497.691934 538.434477 
L 498.326818 538.459131 
L 498.961703 538.613652 
L 499.596587 538.576355 
L 500.231472 539.172506 
L 500.866356 539.151893 
L 502.136125 539.269786 
L 504.040779 539.36079 
L 505.310548 539.883773 
L 507.850086 540.036729 
L 508.484971 540.576478 
L 509.75474 540.39257 
L 510.389624 540.525466 
L 511.024509 540.464816 
L 511.659393 540.646156 
L 512.294278 541.098425 
L 514.198931 541.101511 
L 514.833816 541.41857 
L 516.103585 541.839126 
L 516.738469 541.710858 
L 517.373354 541.916968 
L 518.008238 541.983721 
L 519.278007 541.852426 
L 519.912892 542.156403 
L 521.817545 542.416184 
L 523.087314 542.562761 
L 523.722199 542.851802 
L 524.357083 542.662574 
L 524.991968 543.183508 
L 525.626852 542.86676 
L 526.261737 542.982971 
L 526.896621 543.516387 
L 528.166391 543.504032 
L 528.801275 544.062977 
L 529.43616 543.925302 
L 530.071044 543.923506 
L 531.340813 544.209853 
L 531.975698 544.072385 
L 533.245467 544.456058 
L 533.880351 544.377168 
L 535.785005 544.743338 
L 536.419889 544.69198 
L 538.324543 545.226502 
L 539.594312 545.25233 
L 540.229196 545.757535 
L 540.864081 545.65505 
L 541.498965 545.900057 
L 542.13385 545.780818 
L 542.768734 546.027139 
L 543.403619 546.118258 
L 545.308272 546.6787 
L 545.943157 546.453545 
L 549.11758 547.075627 
L 549.752464 547.261217 
L 551.657118 547.375136 
L 552.292002 547.821141 
L 552.926887 547.660666 
L 553.561771 547.694129 
L 554.196656 548.170752 
L 554.83154 548.1091 
L 555.466425 548.350746 
L 556.101309 548.428381 
L 556.736194 548.682071 
L 557.371078 548.077549 
L 558.005963 548.583858 
L 558.640847 548.626407 
L 559.275732 548.483504 
L 559.910616 548.611587 
L 560.545501 549.010886 
L 561.180385 549.010356 
L 561.81527 549.234303 
L 562.450154 549.247154 
L 563.719923 549.656091 
L 564.989692 549.443326 
L 565.624577 550.000843 
L 566.894346 549.852666 
L 567.52923 550.020914 
L 568.164115 550.329393 
L 568.798999 550.468876 
L 569.433884 550.256491 
L 570.068768 550.686213 
L 570.703653 550.747347 
L 571.338538 550.632691 
L 571.973422 550.815379 
L 572.608307 550.87452 
L 573.243191 551.072754 
L 573.878076 551.495878 
L 574.51296 551.018172 
L 575.147845 551.518125 
L 575.782729 551.385977 
L 576.417614 551.397216 
L 576.417614 551.397216 
" clip-path="url(#pf8eda38754)" style="fill: none; stroke: #1f77b4; stroke-width: 1.5; stroke-linecap: square"/>
   </g>
   <g id="line2d_34">
    <path d="M 69.144886 111.63626 
L 69.779771 159.808404 
L 70.414655 187.208835 
L 71.04954 202.395794 
L 71.684424 206.050471 
L 72.319309 218.777011 
L 73.589078 228.801223 
L 74.223962 231.768078 
L 74.858847 233.201253 
L 76.128616 242.99636 
L 76.763501 245.794909 
L 77.398385 247.549633 
L 78.03327 252.838816 
L 79.303039 258.319197 
L 79.937923 259.654724 
L 80.572808 264.003212 
L 81.842577 266.311078 
L 82.477461 268.161055 
L 83.112346 272.838232 
L 84.382115 278.036952 
L 85.016999 278.200191 
L 85.651884 276.718007 
L 86.286768 283.541607 
L 86.921653 284.505517 
L 87.556537 285.803343 
L 88.191422 288.84295 
L 88.826306 289.311433 
L 89.461191 288.662278 
L 90.096075 291.062725 
L 90.73096 294.471623 
L 91.365844 295.858899 
L 92.000729 292.184968 
L 92.635613 297.339125 
L 93.270498 299.894359 
L 93.905382 298.84655 
L 94.540267 302.256738 
L 95.810036 305.235062 
L 96.44492 302.818539 
L 97.079805 308.286184 
L 97.71469 307.881381 
L 98.349574 297.901087 
L 98.984459 310.061774 
L 99.619343 308.116451 
L 100.254228 313.746321 
L 100.889112 315.153587 
L 101.523997 312.939202 
L 102.158881 317.172031 
L 102.793766 315.847237 
L 103.42865 318.391002 
L 104.063535 318.347866 
L 104.698419 320.428377 
L 105.333304 321.327664 
L 105.968188 319.859966 
L 106.603073 321.52455 
L 107.237957 322.046094 
L 107.872842 325.566758 
L 108.507726 324.947934 
L 109.142611 328.644619 
L 109.777495 328.973952 
L 110.41238 326.183509 
L 111.047264 330.580015 
L 111.682149 331.419585 
L 112.317033 333.075025 
L 113.586802 332.50141 
L 114.221687 332.531188 
L 115.491456 337.910259 
L 116.12634 336.543503 
L 116.761225 336.643685 
L 117.396109 329.039888 
L 118.030994 341.44124 
L 118.665879 340.765624 
L 119.300763 341.70876 
L 119.935648 343.003638 
L 120.570532 342.719168 
L 121.205417 344.660553 
L 122.475186 347.125831 
L 123.11007 348.314125 
L 123.744955 348.021272 
L 124.379839 346.840762 
L 125.014724 350.111708 
L 125.649608 345.989171 
L 126.284493 353.027597 
L 126.919377 352.987732 
L 127.554262 354.335326 
L 128.189146 354.430533 
L 128.824031 354.972413 
L 129.458915 356.132772 
L 130.0938 355.919856 
L 130.728684 357.579189 
L 131.363569 360.157039 
L 131.998453 358.450057 
L 132.633338 360.818907 
L 133.268222 361.256505 
L 134.537991 365.121726 
L 135.172876 364.247519 
L 136.442645 366.414831 
L 137.077529 364.829356 
L 137.712414 366.658261 
L 138.347298 367.118844 
L 138.982183 370.083349 
L 139.617067 369.604895 
L 140.251952 370.234658 
L 140.886837 372.418045 
L 141.521721 371.697911 
L 142.156606 368.552802 
L 142.79149 368.78345 
L 143.426375 371.18475 
L 144.061259 371.752147 
L 144.696144 370.964465 
L 145.331028 375.987534 
L 145.965913 378.057957 
L 146.600797 377.053353 
L 147.235682 378.200284 
L 147.870566 377.74562 
L 148.505451 380.384846 
L 149.140335 378.017585 
L 149.77522 380.75515 
L 151.044989 381.66609 
L 151.679873 380.226812 
L 152.314758 384.533984 
L 152.949642 382.457204 
L 153.584527 378.591339 
L 154.219411 383.973933 
L 154.854296 384.820711 
L 155.48918 378.854736 
L 156.124065 380.497487 
L 156.758949 385.50402 
L 157.393834 381.720764 
L 158.028718 387.724578 
L 158.663603 388.670501 
L 159.298487 385.837636 
L 159.933372 384.557567 
L 160.568256 389.674023 
L 161.203141 391.057038 
L 161.838026 387.777386 
L 162.47291 391.540858 
L 163.107795 393.616579 
L 163.742679 393.023848 
L 164.377564 390.97429 
L 165.012448 393.874933 
L 165.647333 394.238512 
L 166.282217 393.943724 
L 166.917102 389.567784 
L 167.551986 395.097381 
L 168.186871 393.661949 
L 168.821755 395.765443 
L 169.45664 389.820173 
L 170.091524 393.303574 
L 170.726409 391.10174 
L 171.361293 397.614845 
L 171.996178 397.430326 
L 172.631062 396.220085 
L 173.265947 399.638886 
L 173.900831 391.654006 
L 174.535716 395.658698 
L 175.1706 397.7589 
L 175.805485 399.467678 
L 176.440369 399.071557 
L 177.075254 400.668317 
L 177.710138 394.41725 
L 178.979907 401.201192 
L 179.614792 402.662947 
L 180.249676 400.601114 
L 180.884561 400.535708 
L 181.519445 402.976735 
L 182.15433 401.977244 
L 182.789215 401.953937 
L 183.424099 399.64386 
L 184.058984 400.673429 
L 185.328753 404.65569 
L 185.963637 400.463485 
L 186.598522 399.637297 
L 187.233406 407.02302 
L 187.868291 406.691591 
L 188.503175 397.109561 
L 189.13806 406.618308 
L 189.772944 407.014867 
L 190.407829 400.077705 
L 191.042713 396.899524 
L 191.677598 408.201733 
L 192.312482 403.13751 
L 192.947367 403.280827 
L 193.582251 407.664667 
L 194.217136 408.606836 
L 194.85202 403.944491 
L 195.486905 410.02822 
L 196.756674 403.259824 
L 197.391558 409.538365 
L 198.026443 406.483305 
L 198.661327 406.61566 
L 199.296212 407.935941 
L 199.931096 410.227063 
L 200.565981 409.630786 
L 201.200865 406.552327 
L 201.83575 406.155538 
L 202.470634 397.879279 
L 203.105519 409.221353 
L 203.740403 407.756581 
L 204.375288 412.737711 
L 205.010173 410.75957 
L 205.645057 412.331687 
L 206.279942 405.818512 
L 206.914826 406.655364 
L 207.549711 415.470647 
L 208.184595 409.03239 
L 208.81948 410.186899 
L 209.454364 415.477095 
L 210.089249 413.198731 
L 210.724133 411.853002 
L 211.359018 410.820093 
L 211.993902 414.848115 
L 212.628787 415.386609 
L 213.263671 410.906641 
L 213.898556 411.663854 
L 214.53344 415.532875 
L 215.168325 414.478456 
L 215.803209 415.836161 
L 216.438094 411.237679 
L 217.072978 415.38525 
L 217.707863 417.363944 
L 218.977632 413.047353 
L 219.612516 415.898365 
L 220.247401 417.254988 
L 220.882285 412.591883 
L 221.51717 416.291377 
L 222.152054 414.795514 
L 222.786939 415.693972 
L 223.421823 414.800834 
L 224.056708 415.532644 
L 224.691592 415.830035 
L 225.326477 418.238243 
L 225.961362 419.247247 
L 226.596246 421.095658 
L 227.231131 415.945232 
L 227.866015 417.321177 
L 228.5009 413.325882 
L 229.135784 417.138109 
L 229.770669 418.113281 
L 230.405553 415.23864 
L 231.040438 420.023713 
L 231.675322 413.831235 
L 232.945091 421.347724 
L 233.579976 411.779789 
L 234.21486 420.217858 
L 234.849745 419.96715 
L 235.484629 418.630564 
L 236.119514 418.933136 
L 236.754398 417.950664 
L 237.389283 417.622805 
L 238.024167 418.900226 
L 238.659052 423.525331 
L 239.928821 416.06188 
L 240.563705 419.922403 
L 241.19859 419.739197 
L 241.833474 419.19863 
L 242.468359 419.136816 
L 243.103243 416.919805 
L 243.738128 420.046789 
L 244.373012 419.497954 
L 245.007897 422.296457 
L 245.642781 417.633491 
L 246.277666 406.813283 
L 246.91255 419.073391 
L 247.547435 420.317234 
L 248.18232 421.016802 
L 248.817204 418.180829 
L 249.452089 422.537539 
L 250.086973 423.599926 
L 250.721858 423.525722 
L 251.356742 422.481276 
L 251.991627 417.027978 
L 252.626511 415.488104 
L 253.261396 421.896536 
L 253.89628 417.999097 
L 254.531165 417.590562 
L 255.166049 422.407809 
L 255.800934 418.245175 
L 256.435818 423.552138 
L 257.070703 423.904824 
L 257.705587 418.657303 
L 258.340472 419.079586 
L 258.975356 417.984519 
L 259.610241 421.759575 
L 260.245125 417.882287 
L 260.88001 417.208375 
L 261.514894 415.259758 
L 262.149779 422.427569 
L 262.784663 416.104026 
L 263.419548 421.06284 
L 264.054432 423.228378 
L 264.689317 420.027904 
L 265.324201 424.927599 
L 265.959086 425.881192 
L 266.59397 424.524316 
L 267.228855 422.43814 
L 267.863739 426.500661 
L 269.133509 419.312998 
L 269.768393 418.243932 
L 270.403278 406.562022 
L 271.038162 423.019125 
L 271.673047 419.902758 
L 272.307931 425.206243 
L 272.942816 417.700785 
L 273.5777 427.150898 
L 274.212585 404.840807 
L 274.847469 425.800425 
L 275.482354 425.398615 
L 276.117238 427.9214 
L 276.752123 422.233884 
L 277.387007 423.499882 
L 278.021892 421.782744 
L 278.656776 425.831446 
L 279.291661 416.671815 
L 279.926545 427.422494 
L 281.196314 419.32859 
L 281.831199 420.532176 
L 282.466083 427.072618 
L 283.100968 418.055705 
L 284.370737 425.518626 
L 285.005621 424.203458 
L 285.640506 426.097193 
L 286.27539 424.848767 
L 286.910275 427.683404 
L 288.180044 418.620638 
L 288.814928 424.887895 
L 289.449813 419.417694 
L 290.084697 420.306594 
L 290.719582 424.743564 
L 291.354467 421.704671 
L 292.624236 427.389331 
L 293.25912 427.071996 
L 293.894005 425.832206 
L 295.163774 420.33605 
L 295.798658 426.422588 
L 296.433543 422.228794 
L 297.068427 425.929371 
L 297.703312 425.299746 
L 298.338196 423.881656 
L 298.973081 416.246583 
L 299.607965 412.045766 
L 300.24285 422.852639 
L 300.877734 420.412764 
L 301.512619 422.525678 
L 302.147503 419.725931 
L 302.782388 422.965349 
L 303.417272 415.213099 
L 304.687041 425.130335 
L 305.321926 425.6987 
L 305.95681 426.516851 
L 306.591695 420.82853 
L 307.226579 418.398557 
L 307.861464 418.681715 
L 308.496348 424.297468 
L 309.131233 421.971316 
L 309.766117 422.457347 
L 310.401002 417.79286 
L 311.035886 422.6666 
L 311.670771 421.505344 
L 312.305656 424.299011 
L 312.94054 423.109243 
L 313.575425 426.858459 
L 314.845194 414.33751 
L 315.480078 426.776333 
L 316.114963 411.909657 
L 316.749847 419.89928 
L 317.384732 425.525028 
L 318.019616 420.317579 
L 318.654501 426.230561 
L 319.289385 420.46723 
L 319.92427 415.964624 
L 320.559154 422.207975 
L 321.194039 423.228378 
L 321.828923 406.4591 
L 322.463808 420.14628 
L 323.098692 426.001387 
L 323.733577 423.412183 
L 324.368461 413.279429 
L 325.003346 428.493311 
L 325.63823 422.187824 
L 326.273115 424.51006 
L 326.907999 419.426146 
L 328.177768 426.204376 
L 328.812653 421.60997 
L 329.447537 426.057351 
L 330.082422 413.75968 
L 330.717306 428.365424 
L 331.352191 424.195305 
L 331.987075 422.87385 
L 332.62196 426.189821 
L 333.256844 423.25104 
L 333.891729 416.880285 
L 334.526614 418.217677 
L 335.161498 423.761138 
L 335.796383 415.498997 
L 336.431267 426.487211 
L 337.066152 424.306219 
L 337.701036 414.67898 
L 338.335921 424.194522 
L 338.970805 417.794196 
L 339.60569 415.31077 
L 340.240574 420.375777 
L 340.875459 411.692688 
L 341.510343 419.844192 
L 342.145228 413.797588 
L 342.780112 427.303059 
L 343.414997 418.918811 
L 344.049881 417.936224 
L 344.684766 425.01523 
L 345.31965 415.149305 
L 345.954535 426.663393 
L 346.589419 421.825949 
L 347.224304 419.206944 
L 347.859188 425.757197 
L 348.494073 417.298377 
L 349.128957 422.650525 
L 349.763842 423.602505 
L 350.398726 416.697517 
L 351.033611 424.251614 
L 351.668495 416.092027 
L 352.30338 413.510538 
L 352.938264 407.758147 
L 353.573149 407.936793 
L 354.208033 407.998537 
L 354.842918 420.971156 
L 355.477803 422.279208 
L 356.112687 399.453446 
L 356.747572 422.736244 
L 357.382456 420.841035 
L 358.017341 422.592282 
L 358.652225 422.919657 
L 359.28711 425.594925 
L 359.921994 410.131442 
L 360.556879 425.910348 
L 361.191763 422.807776 
L 361.826648 426.42321 
L 362.461532 416.037791 
L 363.096417 418.622043 
L 363.731301 408.157077 
L 364.366186 419.698387 
L 365.00107 422.939924 
L 365.635955 428.4607 
L 366.270839 419.521514 
L 366.905724 422.874541 
L 367.540608 422.484154 
L 368.175493 424.226028 
L 368.810377 425.578689 
L 369.445262 412.698882 
L 370.080146 415.389488 
L 370.715031 410.267666 
L 371.9848 417.693047 
L 372.619684 423.512135 
L 373.254569 424.260089 
L 373.889453 406.594841 
L 374.524338 418.702142 
L 375.159222 419.026593 
L 375.794107 426.423302 
L 376.428991 421.593642 
L 377.063876 413.563232 
L 377.698761 417.785145 
L 378.333645 413.249674 
L 378.96853 417.602031 
L 379.603414 418.885487 
L 380.238299 419.807159 
L 380.873183 413.435713 
L 381.508068 412.550405 
L 382.142952 421.32702 
L 382.777837 413.660281 
L 383.412721 419.668309 
L 384.047606 416.137604 
L 384.68249 418.891636 
L 385.317375 406.820606 
L 385.952259 423.86109 
L 386.587144 416.510372 
L 387.222028 421.883547 
L 387.856913 418.557927 
L 388.491797 423.300394 
L 389.126682 403.192852 
L 389.761566 423.861873 
L 390.396451 414.071004 
L 391.031335 415.162962 
L 391.66622 424.012951 
L 392.301104 414.023193 
L 392.935989 416.36922 
L 393.570873 413.903228 
L 394.205758 415.180857 
L 394.840642 410.423051 
L 395.475527 413.620854 
L 396.110411 420.269769 
L 396.745296 419.458757 
L 397.38018 418.099002 
L 398.015065 408.09713 
L 398.64995 419.528999 
L 399.284834 409.50253 
L 399.919719 412.499324 
L 400.554603 418.88931 
L 401.189488 414.11635 
L 401.824372 415.530894 
L 402.459257 413.979988 
L 403.094141 409.660933 
L 403.729026 415.797516 
L 404.36391 410.746972 
L 404.998795 420.567804 
L 405.633679 407.451798 
L 406.268564 414.392138 
L 406.903448 412.033997 
L 407.538333 414.861403 
L 408.173217 416.915936 
L 408.808102 417.333153 
L 409.442986 399.026165 
L 410.077871 414.432648 
L 410.712755 412.688679 
L 411.34764 409.929443 
L 411.982524 413.165959 
L 412.617409 415.51627 
L 413.252293 405.387017 
L 413.887178 420.752553 
L 414.522062 414.239908 
L 415.156947 395.186669 
L 415.791831 407.908097 
L 416.426716 415.175537 
L 417.0616 410.470517 
L 417.696485 417.530868 
L 418.331369 405.643735 
L 418.966254 416.298816 
L 420.236023 408.20224 
L 420.870908 411.970019 
L 421.505792 412.757056 
L 422.140677 411.60188 
L 422.775561 412.537647 
L 423.410446 407.819661 
L 424.04533 392.743385 
L 424.680215 411.555382 
L 425.315099 416.240987 
L 425.949984 411.991921 
L 426.584868 404.717296 
L 427.219753 413.845399 
L 427.854637 409.727421 
L 428.489522 418.310812 
L 429.124406 399.060802 
L 429.759291 415.755301 
L 430.394175 419.735972 
L 431.02906 417.159412 
L 431.663944 407.552578 
L 432.933713 420.119243 
L 434.203482 411.023336 
L 434.838367 397.828382 
L 435.473251 417.118004 
L 436.108136 366.141277 
L 436.74302 402.432967 
L 437.377905 399.397597 
L 438.012789 405.26514 
L 438.647674 417.500237 
L 439.282558 393.749947 
L 439.917443 410.794507 
L 440.552327 416.515831 
L 441.187212 406.873162 
L 441.822097 413.071259 
L 442.456981 409.325059 
L 443.091866 409.363681 
L 443.72675 408.211797 
L 444.361635 387.996174 
L 444.996519 410.704251 
L 445.631404 405.974059 
L 446.266288 399.462036 
L 446.901173 408.892711 
L 447.536057 415.240206 
L 448.170942 405.992552 
L 448.805826 410.387654 
L 449.440711 394.774957 
L 450.075595 397.313471 
L 450.71048 411.824767 
L 451.345364 409.678228 
L 451.980249 397.016196 
L 452.615133 403.330918 
L 453.250018 396.954935 
L 453.884902 404.821784 
L 454.519787 414.645748 
L 455.154671 405.036173 
L 455.789556 403.161024 
L 456.42444 406.379784 
L 457.059325 403.705345 
L 457.694209 408.466305 
L 458.329094 411.556902 
L 458.963978 400.368923 
L 459.598863 403.609861 
L 460.233747 382.703075 
L 461.503516 408.690735 
L 462.138401 400.646116 
L 462.773285 403.073693 
L 463.40817 398.725757 
L 464.677939 410.599279 
L 465.312824 406.445005 
L 465.947708 399.798647 
L 466.582593 391.435357 
L 467.852362 406.794444 
L 468.487246 408.614344 
L 469.122131 406.453319 
L 469.757015 400.223809 
L 470.3919 408.586454 
L 471.026784 397.450386 
L 471.661669 397.185445 
L 472.296553 406.948263 
L 472.931438 403.542313 
L 473.566322 398.10774 
L 474.201207 402.317148 
L 474.836091 402.751315 
L 475.470976 394.383211 
L 476.10586 393.005447 
L 476.740745 405.799535 
L 477.375629 395.008115 
L 478.010514 408.305462 
L 478.645398 381.855837 
L 479.280283 409.56211 
L 479.915167 407.014913 
L 480.550052 401.055755 
L 481.184936 400.97386 
L 481.819821 398.868085 
L 482.454705 393.611167 
L 483.08959 391.062519 
L 483.724474 396.666135 
L 484.359359 398.363975 
L 484.994244 401.66767 
L 485.629128 400.924414 
L 486.264013 404.435566 
L 486.898897 401.432899 
L 487.533782 397.411902 
L 488.168666 397.758854 
L 488.803551 403.767757 
L 489.438435 397.090906 
L 490.07332 389.033527 
L 490.708204 398.4464 
L 491.343089 394.951484 
L 491.977973 402.602608 
L 492.612858 392.939765 
L 493.247742 397.924626 
L 493.882627 398.255939 
L 494.517511 381.770486 
L 495.152396 398.473276 
L 495.78728 386.369199 
L 496.422165 388.750439 
L 497.057049 387.412471 
L 497.691934 399.147926 
L 498.326818 393.637836 
L 498.961703 396.896484 
L 499.596587 387.851336 
L 500.231472 386.369337 
L 500.866356 388.004142 
L 501.501241 395.795751 
L 502.136125 394.928914 
L 502.77101 381.882414 
L 503.405894 385.840907 
L 504.040779 394.790295 
L 504.675663 389.911304 
L 505.310548 405.137691 
L 505.945433 382.438434 
L 506.580317 397.911614 
L 507.215202 401.425484 
L 507.850086 395.164929 
L 508.484971 375.937765 
L 509.119855 392.273567 
L 509.75474 376.080806 
L 510.389624 387.115265 
L 511.024509 389.362285 
L 511.659393 376.868373 
L 512.294278 395.080453 
L 512.929162 385.681353 
L 513.564047 398.824995 
L 514.198931 385.703669 
L 514.833816 392.649629 
L 515.4687 384.997998 
L 516.103585 403.442224 
L 517.373354 392.15328 
L 518.008238 376.034055 
L 518.643123 376.226703 
L 519.278007 399.900026 
L 519.912892 387.57214 
L 520.547776 398.245806 
L 521.182661 391.149712 
L 521.817545 390.310787 
L 522.45243 392.755131 
L 523.087314 392.375545 
L 523.722199 387.095574 
L 524.357083 388.175488 
L 524.991968 390.422945 
L 525.626852 386.805254 
L 526.261737 396.460613 
L 526.896621 384.243687 
L 527.531506 378.398851 
L 528.166391 389.118555 
L 528.801275 392.858836 
L 529.43616 382.589006 
L 530.071044 396.099889 
L 530.705929 353.761711 
L 531.340813 387.999191 
L 531.975698 388.095549 
L 532.610582 386.283296 
L 533.245467 373.169501 
L 533.880351 390.376032 
L 534.515236 392.340977 
L 535.15012 378.707434 
L 535.785005 370.585985 
L 536.419889 377.754187 
L 537.054774 386.742773 
L 537.689658 389.053103 
L 538.324543 389.497357 
L 538.959427 376.301206 
L 539.594312 394.210668 
L 540.864081 371.624168 
L 541.498965 379.267531 
L 542.13385 382.563719 
L 542.768734 396.738312 
L 543.403619 380.465291 
L 544.038503 368.092173 
L 544.673388 386.79466 
L 545.308272 394.337703 
L 545.943157 387.144076 
L 546.578041 386.384836 
L 547.212926 381.123243 
L 547.84781 369.716039 
L 548.482695 387.062226 
L 549.11758 389.616654 
L 549.752464 381.233673 
L 550.387349 375.055083 
L 551.022233 376.846241 
L 551.657118 384.393338 
L 552.292002 376.333886 
L 552.926887 386.065452 
L 553.561771 387.076044 
L 554.196656 388.470552 
L 554.83154 395.044158 
L 555.466425 376.172444 
L 556.101309 382.725115 
L 556.736194 394.954961 
L 557.371078 380.676041 
L 558.005963 363.388788 
L 558.640847 390.3349 
L 559.275732 371.468414 
L 559.910616 378.955839 
L 560.545501 370.963152 
L 561.180385 391.0908 
L 561.81527 375.876827 
L 562.450154 387.688328 
L 563.085039 386.288385 
L 563.719923 381.30813 
L 564.354808 373.357704 
L 564.989692 378.245999 
L 565.624577 363.469233 
L 566.259461 383.512959 
L 566.894346 385.026786 
L 567.52923 386.055918 
L 568.164115 362.460944 
L 569.433884 384.160409 
L 570.068768 369.273742 
L 570.703653 386.540936 
L 571.973422 356.953479 
L 572.608307 371.862923 
L 573.243191 370.484491 
L 573.878076 384.728659 
L 574.51296 370.235372 
L 575.147845 384.316048 
L 575.782729 369.974923 
L 576.417614 385.516018 
L 576.417614 385.516018 
" clip-path="url(#pf8eda38754)" style="fill: none; stroke: #ff7f0e; stroke-width: 1.5; stroke-linecap: square"/>
   </g>
   <g id="patch_3">
    <path d="M 43.78125 576.718125 
L 43.78125 22.318125 
" style="fill: none; stroke: #000000; stroke-width: 0.8; stroke-linejoin: miter; stroke-linecap: square"/>
   </g>
   <g id="patch_4">
    <path d="M 601.78125 576.718125 
L 601.78125 22.318125 
" style="fill: none; stroke: #000000; stroke-width: 0.8; stroke-linejoin: miter; stroke-linecap: square"/>
   </g>
   <g id="patch_5">
    <path d="M 43.78125 576.718125 
L 601.78125 576.718125 
" style="fill: none; stroke: #000000; stroke-width: 0.8; stroke-linejoin: miter; stroke-linecap: square"/>
   </g>
   <g id="patch_6">
    <path d="M 43.78125 22.318125 
L 601.78125 22.318125 
" style="fill: none; stroke: #000000; stroke-width: 0.8; stroke-linejoin: miter; stroke-linecap: square"/>
   </g>
   <g id="text_19">
    <!-- Train and Val Loss -->
    <g transform="translate(269.235937 16.318125) scale(0.12 -0.12)">
     <defs>
      <path id="DejaVuSans-54" d="M -19 4666 
L 3928 4666 
L 3928 4134 
L 2272 4134 
L 2272 0 
L 1638 0 
L 1638 4134 
L -19 4134 
L -19 4666 
z
" transform="scale(0.015625)"/>
      <path id="DejaVuSans-72" d="M 2631 2963 
Q 2534 3019 2420 3045 
Q 2306 3072 2169 3072 
Q 1681 3072 1420 2755 
Q 1159 2438 1159 1844 
L 1159 0 
L 581 0 
L 581 3500 
L 1159 3500 
L 1159 2956 
Q 1341 3275 1631 3429 
Q 1922 3584 2338 3584 
Q 2397 3584 2469 3576 
Q 2541 3569 2628 3553 
L 2631 2963 
z
" transform="scale(0.015625)"/>
      <path id="DejaVuSans-61" d="M 2194 1759 
Q 1497 1759 1228 1600 
Q 959 1441 959 1056 
Q 959 750 1161 570 
Q 1363 391 1709 391 
Q 2188 391 2477 730 
Q 2766 1069 2766 1631 
L 2766 1759 
L 2194 1759 
z
M 3341 1997 
L 3341 0 
L 2766 0 
L 2766 531 
Q 2569 213 2275 61 
Q 1981 -91 1556 -91 
Q 1019 -91 701 211 
Q 384 513 384 1019 
Q 384 1609 779 1909 
Q 1175 2209 1959 2209 
L 2766 2209 
L 2766 2266 
Q 2766 2663 2505 2880 
Q 2244 3097 1772 3097 
Q 1472 3097 1187 3025 
Q 903 2953 641 2809 
L 641 3341 
Q 956 3463 1253 3523 
Q 1550 3584 1831 3584 
Q 2591 3584 2966 3190 
Q 3341 2797 3341 1997 
z
" transform="scale(0.015625)"/>
      <path id="DejaVuSans-69" d="M 603 3500 
L 1178 3500 
L 1178 0 
L 603 0 
L 603 3500 
z
M 603 4863 
L 1178 4863 
L 1178 4134 
L 603 4134 
L 603 4863 
z
" transform="scale(0.015625)"/>
      <path id="DejaVuSans-6e" d="M 3513 2113 
L 3513 0 
L 2938 0 
L 2938 2094 
Q 2938 2591 2744 2837 
Q 2550 3084 2163 3084 
Q 1697 3084 1428 2787 
Q 1159 2491 1159 1978 
L 1159 0 
L 581 0 
L 581 3500 
L 1159 3500 
L 1159 2956 
Q 1366 3272 1645 3428 
Q 1925 3584 2291 3584 
Q 2894 3584 3203 3211 
Q 3513 2838 3513 2113 
z
" transform="scale(0.015625)"/>
      <path id="DejaVuSans-20" transform="scale(0.015625)"/>
      <path id="DejaVuSans-64" d="M 2906 2969 
L 2906 4863 
L 3481 4863 
L 3481 0 
L 2906 0 
L 2906 525 
Q 2725 213 2448 61 
Q 2172 -91 1784 -91 
Q 1150 -91 751 415 
Q 353 922 353 1747 
Q 353 2572 751 3078 
Q 1150 3584 1784 3584 
Q 2172 3584 2448 3432 
Q 2725 3281 2906 2969 
z
M 947 1747 
Q 947 1113 1208 752 
Q 1469 391 1925 391 
Q 2381 391 2643 752 
Q 2906 1113 2906 1747 
Q 2906 2381 2643 2742 
Q 2381 3103 1925 3103 
Q 1469 3103 1208 2742 
Q 947 2381 947 1747 
z
" transform="scale(0.015625)"/>
      <path id="DejaVuSans-56" d="M 1831 0 
L 50 4666 
L 709 4666 
L 2188 738 
L 3669 4666 
L 4325 4666 
L 2547 0 
L 1831 0 
z
" transform="scale(0.015625)"/>
      <path id="DejaVuSans-6c" d="M 603 4863 
L 1178 4863 
L 1178 0 
L 603 0 
L 603 4863 
z
" transform="scale(0.015625)"/>
     </defs>
     <use xlink:href="#DejaVuSans-54"/>
     <use xlink:href="#DejaVuSans-72" transform="translate(46.333984 0)"/>
     <use xlink:href="#DejaVuSans-61" transform="translate(87.447266 0)"/>
     <use xlink:href="#DejaVuSans-69" transform="translate(148.726562 0)"/>
     <use xlink:href="#DejaVuSans-6e" transform="translate(176.509766 0)"/>
     <use xlink:href="#DejaVuSans-20" transform="translate(239.888672 0)"/>
     <use xlink:href="#DejaVuSans-61" transform="translate(271.675781 0)"/>
     <use xlink:href="#DejaVuSans-6e" transform="translate(332.955078 0)"/>
     <use xlink:href="#DejaVuSans-64" transform="translate(396.333984 0)"/>
     <use xlink:href="#DejaVuSans-20" transform="translate(459.810547 0)"/>
     <use xlink:href="#DejaVuSans-56" transform="translate(491.597656 0)"/>
     <use xlink:href="#DejaVuSans-61" transform="translate(552.255859 0)"/>
     <use xlink:href="#DejaVuSans-6c" transform="translate(613.535156 0)"/>
     <use xlink:href="#DejaVuSans-20" transform="translate(641.318359 0)"/>
     <use xlink:href="#DejaVuSans-4c" transform="translate(673.105469 0)"/>
     <use xlink:href="#DejaVuSans-6f" transform="translate(727.068359 0)"/>
     <use xlink:href="#DejaVuSans-73" transform="translate(788.25 0)"/>
     <use xlink:href="#DejaVuSans-73" transform="translate(840.349609 0)"/>
    </g>
   </g>
   <g id="legend_1">
    <g id="patch_7">
     <path d="M 515.190625 60.230625 
L 594.78125 60.230625 
Q 596.78125 60.230625 596.78125 58.230625 
L 596.78125 29.318125 
Q 596.78125 27.318125 594.78125 27.318125 
L 515.190625 27.318125 
Q 513.190625 27.318125 513.190625 29.318125 
L 513.190625 58.230625 
Q 513.190625 60.230625 515.190625 60.230625 
z
" style="fill: #ffffff; opacity: 0.8; stroke: #cccccc; stroke-linejoin: miter"/>
    </g>
    <g id="line2d_35">
     <path d="M 517.190625 35.416563 
L 527.190625 35.416563 
L 537.190625 35.416563 
" style="fill: none; stroke: #1f77b4; stroke-width: 1.5; stroke-linecap: square"/>
    </g>
    <g id="text_20">
     <!-- train_loss -->
     <g transform="translate(545.190625 38.916563) scale(0.1 -0.1)">
      <defs>
       <path id="DejaVuSans-74" d="M 1172 4494 
L 1172 3500 
L 2356 3500 
L 2356 3053 
L 1172 3053 
L 1172 1153 
Q 1172 725 1289 603 
Q 1406 481 1766 481 
L 2356 481 
L 2356 0 
L 1766 0 
Q 1100 0 847 248 
Q 594 497 594 1153 
L 594 3053 
L 172 3053 
L 172 3500 
L 594 3500 
L 594 4494 
L 1172 4494 
z
" transform="scale(0.015625)"/>
       <path id="DejaVuSans-5f" d="M 3263 -1063 
L 3263 -1509 
L -63 -1509 
L -63 -1063 
L 3263 -1063 
z
" transform="scale(0.015625)"/>
      </defs>
      <use xlink:href="#DejaVuSans-74"/>
      <use xlink:href="#DejaVuSans-72" transform="translate(39.208984 0)"/>
      <use xlink:href="#DejaVuSans-61" transform="translate(80.322266 0)"/>
      <use xlink:href="#DejaVuSans-69" transform="translate(141.601562 0)"/>
      <use xlink:href="#DejaVuSans-6e" transform="translate(169.384766 0)"/>
      <use xlink:href="#DejaVuSans-5f" transform="translate(232.763672 0)"/>
      <use xlink:href="#DejaVuSans-6c" transform="translate(282.763672 0)"/>
      <use xlink:href="#DejaVuSans-6f" transform="translate(310.546875 0)"/>
      <use xlink:href="#DejaVuSans-73" transform="translate(371.728516 0)"/>
      <use xlink:href="#DejaVuSans-73" transform="translate(423.828125 0)"/>
     </g>
    </g>
    <g id="line2d_36">
     <path d="M 517.190625 50.372813 
L 527.190625 50.372813 
L 537.190625 50.372813 
" style="fill: none; stroke: #ff7f0e; stroke-width: 1.5; stroke-linecap: square"/>
    </g>
    <g id="text_21">
     <!-- val_loss -->
     <g transform="translate(545.190625 53.872813) scale(0.1 -0.1)">
      <defs>
       <path id="DejaVuSans-76" d="M 191 3500 
L 800 3500 
L 1894 563 
L 2988 3500 
L 3597 3500 
L 2284 0 
L 1503 0 
L 191 3500 
z
" transform="scale(0.015625)"/>
      </defs>
      <use xlink:href="#DejaVuSans-76"/>
      <use xlink:href="#DejaVuSans-61" transform="translate(59.179688 0)"/>
      <use xlink:href="#DejaVuSans-6c" transform="translate(120.458984 0)"/>
      <use xlink:href="#DejaVuSans-5f" transform="translate(148.242188 0)"/>
      <use xlink:href="#DejaVuSans-6c" transform="translate(198.242188 0)"/>
      <use xlink:href="#DejaVuSans-6f" transform="translate(226.025391 0)"/>
      <use xlink:href="#DejaVuSans-73" transform="translate(287.207031 0)"/>
      <use xlink:href="#DejaVuSans-73" transform="translate(339.306641 0)"/>
     </g>
    </g>
   </g>
  </g>
 </g>
 <defs>
  <clipPath id="pf8eda38754">
   <rect x="43.78125" y="22.318125" width="558" height="554.4"/>
  </clipPath>
 </defs>
</svg>
