<?xml version="1.0" encoding="utf-8" standalone="no"?>
<!DOCTYPE svg PUBLIC "-//W3C//DTD SVG 1.1//EN"
  "http://www.w3.org/Graphics/SVG/1.1/DTD/svg11.dtd">
<svg xmlns:xlink="http://www.w3.org/1999/xlink" width="608.98125pt" height="614.274375pt" viewBox="0 0 608.98125 614.274375" xmlns="http://www.w3.org/2000/svg" version="1.1">
 <metadata>
  <rdf:RDF xmlns:dc="http://purl.org/dc/elements/1.1/" xmlns:cc="http://creativecommons.org/ns#" xmlns:rdf="http://www.w3.org/1999/02/22-rdf-syntax-ns#">
   <cc:Work>
    <dc:type rdf:resource="http://purl.org/dc/dcmitype/StillImage"/>
    <dc:date>2026-06-04T05:50:24.781375</dc:date>
    <dc:format>image/svg+xml</dc:format>
    <dc:creator>
     <cc:Agent>
      <dc:title>Matplotlib v3.10.9, https://matplotlib.org/</dc:title>
     </cc:Agent>
    </dc:creator>
   </cc:Work>
  </rdf:RDF>
 </metadata>
 <defs>
  <style type="text/css">*{stroke-linejoin: round; stroke-linecap: butt}</style>
 </defs>
 <g id="figure_1">
  <g id="patch_1">
   <path d="M 0 614.274375 
L 608.98125 614.274375 
L 608.98125 0 
L 0 0 
z
" style="fill: #ffffff"/>
  </g>
  <g id="axes_1">
   <g id="patch_2">
    <path d="M 43.78125 576.718125 
L 601.78125 576.718125 
L 601.78125 22.318125 
L 43.78125 22.318125 
z
" style="fill: #ffffff"/>
   </g>
   <g id="matplotlib.axis_1">
    <g id="xtick_1">
     <g id="line2d_1">
      <path d="M 69.144886 576.718125 
L 69.144886 22.318125 
" clip-path="url(#p802d2458ab)" style="fill: none; stroke: #b0b0b0; stroke-width: 0.8; stroke-linecap: square"/>
     </g>
     <g id="line2d_2">
      <defs>
       <path id="m6e1e4c8f04" d="M 0 0 
L 0 3.5 
" style="stroke: #000000; stroke-width: 0.8"/>
      </defs>
      <g>
       <use xlink:href="#m6e1e4c8f04" x="69.144886" y="576.718125" style="stroke: #000000; stroke-width: 0.8"/>
      </g>
     </g>
     <g id="text_1">
      <!-- 0 -->
      <g transform="translate(65.963636 591.316563) scale(0.1 -0.1)">
       <defs>
        <path id="DejaVuSans-30" d="M 2034 4250 
Q 1547 4250 1301 3770 
Q 1056 3291 1056 2328 
Q 1056 1369 1301 889 
Q 1547 409 2034 409 
Q 2525 409 2770 889 
Q 3016 1369 3016 2328 
Q 3016 3291 2770 3770 
Q 2525 4250 2034 4250 
z
M 2034 4750 
Q 2819 4750 3233 4129 
Q 3647 3509 3647 2328 
Q 3647 1150 3233 529 
Q 2819 -91 2034 -91 
Q 1250 -91 836 529 
Q 422 1150 422 2328 
Q 422 3509 836 4129 
Q 1250 4750 2034 4750 
z
" transform="scale(0.015625)"/>
       </defs>
       <use xlink:href="#DejaVuSans-30"/>
      </g>
     </g>
    </g>
    <g id="xtick_2">
     <g id="line2d_3">
      <path d="M 132.633338 576.718125 
L 132.633338 22.318125 
" clip-path="url(#p802d2458ab)" style="fill: none; stroke: #b0b0b0; stroke-width: 0.8; stroke-linecap: square"/>
     </g>
     <g id="line2d_4">
      <g>
       <use xlink:href="#m6e1e4c8f04" x="132.633338" y="576.718125" style="stroke: #000000; stroke-width: 0.8"/>
      </g>
     </g>
     <g id="text_2">
      <!-- 100 -->
      <g transform="translate(123.089588 591.316563) scale(0.1 -0.1)">
       <defs>
        <path id="DejaVuSans-31" d="M 794 531 
L 1825 531 
L 1825 4091 
L 703 3866 
L 703 4441 
L 1819 4666 
L 2450 4666 
L 2450 531 
L 3481 531 
L 3481 0 
L 794 0 
L 794 531 
z
" transform="scale(0.015625)"/>
       </defs>
       <use xlink:href="#DejaVuSans-31"/>
       <use xlink:href="#DejaVuSans-30" transform="translate(63.623047 0)"/>
       <use xlink:href="#DejaVuSans-30" transform="translate(127.246094 0)"/>
      </g>
     </g>
    </g>
    <g id="xtick_3">
     <g id="line2d_5">
      <path d="M 196.121789 576.718125 
L 196.121789 22.318125 
" clip-path="url(#p802d2458ab)" style="fill: none; stroke: #b0b0b0; stroke-width: 0.8; stroke-linecap: square"/>
     </g>
     <g id="line2d_6">
      <g>
       <use xlink:href="#m6e1e4c8f04" x="196.121789" y="576.718125" style="stroke: #000000; stroke-width: 0.8"/>
      </g>
     </g>
     <g id="text_3">
      <!-- 200 -->
      <g transform="translate(186.578039 591.316563) scale(0.1 -0.1)">
       <defs>
        <path id="DejaVuSans-32" d="M 1228 531 
L 3431 531 
L 3431 0 
L 469 0 
L 469 531 
Q 828 903 1448 1529 
Q 2069 2156 2228 2338 
Q 2531 2678 2651 2914 
Q 2772 3150 2772 3378 
Q 2772 3750 2511 3984 
Q 2250 4219 1831 4219 
Q 1534 4219 1204 4116 
Q 875 4013 500 3803 
L 500 4441 
Q 881 4594 1212 4672 
Q 1544 4750 1819 4750 
Q 2544 4750 2975 4387 
Q 3406 4025 3406 3419 
Q 3406 3131 3298 2873 
Q 3191 2616 2906 2266 
Q 2828 2175 2409 1742 
Q 1991 1309 1228 531 
z
" transform="scale(0.015625)"/>
       </defs>
       <use xlink:href="#DejaVuSans-32"/>
       <use xlink:href="#DejaVuSans-30" transform="translate(63.623047 0)"/>
       <use xlink:href="#DejaVuSans-30" transform="translate(127.246094 0)"/>
      </g>
     </g>
    </g>
    <g id="xtick_4">
     <g id="line2d_7">
      <path d="M 259.610241 576.718125 
L 259.610241 22.318125 
" clip-path="url(#p802d2458ab)" style="fill: none; stroke: #b0b0b0; stroke-width: 0.8; stroke-linecap: square"/>
     </g>
     <g id="line2d_8">
      <g>
       <use xlink:href="#m6e1e4c8f04" x="259.610241" y="576.718125" style="stroke: #000000; stroke-width: 0.8"/>
      </g>
     </g>
     <g id="text_4">
      <!-- 300 -->
      <g transform="translate(250.066491 591.316563) scale(0.1 -0.1)">
       <defs>
        <path id="DejaVuSans-33" d="M 2597 2516 
Q 3050 2419 3304 2112 
Q 3559 1806 3559 1356 
Q 3559 666 3084 287 
Q 2609 -91 1734 -91 
Q 1441 -91 1130 -33 
Q 819 25 488 141 
L 488 750 
Q 750 597 1062 519 
Q 1375 441 1716 441 
Q 2309 441 2620 675 
Q 2931 909 2931 1356 
Q 2931 1769 2642 2001 
Q 2353 2234 1838 2234 
L 1294 2234 
L 1294 2753 
L 1863 2753 
Q 2328 2753 2575 2939 
Q 2822 3125 2822 3475 
Q 2822 3834 2567 4026 
Q 2313 4219 1838 4219 
Q 1578 4219 1281 4162 
Q 984 4106 628 3988 
L 628 4550 
Q 988 4650 1302 4700 
Q 1616 4750 1894 4750 
Q 2613 4750 3031 4423 
Q 3450 4097 3450 3541 
Q 3450 3153 3228 2886 
Q 3006 2619 2597 2516 
z
" transform="scale(0.015625)"/>
       </defs>
       <use xlink:href="#DejaVuSans-33"/>
       <use xlink:href="#DejaVuSans-30" transform="translate(63.623047 0)"/>
       <use xlink:href="#DejaVuSans-30" transform="translate(127.246094 0)"/>
      </g>
     </g>
    </g>
    <g id="xtick_5">
     <g id="line2d_9">
      <path d="M 323.098692 576.718125 
L 323.098692 22.318125 
" clip-path="url(#p802d2458ab)" style="fill: none; stroke: #b0b0b0; stroke-width: 0.8; stroke-linecap: square"/>
     </g>
     <g id="line2d_10">
      <g>
       <use xlink:href="#m6e1e4c8f04" x="323.098692" y="576.718125" style="stroke: #000000; stroke-width: 0.8"/>
      </g>
     </g>
     <g id="text_5">
      <!-- 400 -->
      <g transform="translate(313.554942 591.316563) scale(0.1 -0.1)">
       <defs>
        <path id="DejaVuSans-34" d="M 2419 4116 
L 825 1625 
L 2419 1625 
L 2419 4116 
z
M 2253 4666 
L 3047 4666 
L 3047 1625 
L 3713 1625 
L 3713 1100 
L 3047 1100 
L 3047 0 
L 2419 0 
L 2419 1100 
L 313 1100 
L 313 1709 
L 2253 4666 
z
" transform="scale(0.015625)"/>
       </defs>
       <use xlink:href="#DejaVuSans-34"/>
       <use xlink:href="#DejaVuSans-30" transform="translate(63.623047 0)"/>
       <use xlink:href="#DejaVuSans-30" transform="translate(127.246094 0)"/>
      </g>
     </g>
    </g>
    <g id="xtick_6">
     <g id="line2d_11">
      <path d="M 386.587144 576.718125 
L 386.587144 22.318125 
" clip-path="url(#p802d2458ab)" style="fill: none; stroke: #b0b0b0; stroke-width: 0.8; stroke-linecap: square"/>
     </g>
     <g id="line2d_12">
      <g>
       <use xlink:href="#m6e1e4c8f04" x="386.587144" y="576.718125" style="stroke: #000000; stroke-width: 0.8"/>
      </g>
     </g>
     <g id="text_6">
      <!-- 500 -->
      <g transform="translate(377.043394 591.316563) scale(0.1 -0.1)">
       <defs>
        <path id="DejaVuSans-35" d="M 691 4666 
L 3169 4666 
L 3169 4134 
L 1269 4134 
L 1269 2991 
Q 1406 3038 1543 3061 
Q 1681 3084 1819 3084 
Q 2600 3084 3056 2656 
Q 3513 2228 3513 1497 
Q 3513 744 3044 326 
Q 2575 -91 1722 -91 
Q 1428 -91 1123 -41 
Q 819 9 494 109 
L 494 744 
Q 775 591 1075 516 
Q 1375 441 1709 441 
Q 2250 441 2565 725 
Q 2881 1009 2881 1497 
Q 2881 1984 2565 2268 
Q 2250 2553 1709 2553 
Q 1456 2553 1204 2497 
Q 953 2441 691 2322 
L 691 4666 
z
" transform="scale(0.015625)"/>
       </defs>
       <use xlink:href="#DejaVuSans-35"/>
       <use xlink:href="#DejaVuSans-30" transform="translate(63.623047 0)"/>
       <use xlink:href="#DejaVuSans-30" transform="translate(127.246094 0)"/>
      </g>
     </g>
    </g>
    <g id="xtick_7">
     <g id="line2d_13">
      <path d="M 450.075595 576.718125 
L 450.075595 22.318125 
" clip-path="url(#p802d2458ab)" style="fill: none; stroke: #b0b0b0; stroke-width: 0.8; stroke-linecap: square"/>
     </g>
     <g id="line2d_14">
      <g>
       <use xlink:href="#m6e1e4c8f04" x="450.075595" y="576.718125" style="stroke: #000000; stroke-width: 0.8"/>
      </g>
     </g>
     <g id="text_7">
      <!-- 600 -->
      <g transform="translate(440.531845 591.316563) scale(0.1 -0.1)">
       <defs>
        <path id="DejaVuSans-36" d="M 2113 2584 
Q 1688 2584 1439 2293 
Q 1191 2003 1191 1497 
Q 1191 994 1439 701 
Q 1688 409 2113 409 
Q 2538 409 2786 701 
Q 3034 994 3034 1497 
Q 3034 2003 2786 2293 
Q 2538 2584 2113 2584 
z
M 3366 4563 
L 3366 3988 
Q 3128 4100 2886 4159 
Q 2644 4219 2406 4219 
Q 1781 4219 1451 3797 
Q 1122 3375 1075 2522 
Q 1259 2794 1537 2939 
Q 1816 3084 2150 3084 
Q 2853 3084 3261 2657 
Q 3669 2231 3669 1497 
Q 3669 778 3244 343 
Q 2819 -91 2113 -91 
Q 1303 -91 875 529 
Q 447 1150 447 2328 
Q 447 3434 972 4092 
Q 1497 4750 2381 4750 
Q 2619 4750 2861 4703 
Q 3103 4656 3366 4563 
z
" transform="scale(0.015625)"/>
       </defs>
       <use xlink:href="#DejaVuSans-36"/>
       <use xlink:href="#DejaVuSans-30" transform="translate(63.623047 0)"/>
       <use xlink:href="#DejaVuSans-30" transform="translate(127.246094 0)"/>
      </g>
     </g>
    </g>
    <g id="xtick_8">
     <g id="line2d_15">
      <path d="M 513.564047 576.718125 
L 513.564047 22.318125 
" clip-path="url(#p802d2458ab)" style="fill: none; stroke: #b0b0b0; stroke-width: 0.8; stroke-linecap: square"/>
     </g>
     <g id="line2d_16">
      <g>
       <use xlink:href="#m6e1e4c8f04" x="513.564047" y="576.718125" style="stroke: #000000; stroke-width: 0.8"/>
      </g>
     </g>
     <g id="text_8">
      <!-- 700 -->
      <g transform="translate(504.020297 591.316563) scale(0.1 -0.1)">
       <defs>
        <path id="DejaVuSans-37" d="M 525 4666 
L 3525 4666 
L 3525 4397 
L 1831 0 
L 1172 0 
L 2766 4134 
L 525 4134 
L 525 4666 
z
" transform="scale(0.015625)"/>
       </defs>
       <use xlink:href="#DejaVuSans-37"/>
       <use xlink:href="#DejaVuSans-30" transform="translate(63.623047 0)"/>
       <use xlink:href="#DejaVuSans-30" transform="translate(127.246094 0)"/>
      </g>
     </g>
    </g>
    <g id="xtick_9">
     <g id="line2d_17">
      <path d="M 577.052498 576.718125 
L 577.052498 22.318125 
" clip-path="url(#p802d2458ab)" style="fill: none; stroke: #b0b0b0; stroke-width: 0.8; stroke-linecap: square"/>
     </g>
     <g id="line2d_18">
      <g>
       <use xlink:href="#m6e1e4c8f04" x="577.052498" y="576.718125" style="stroke: #000000; stroke-width: 0.8"/>
      </g>
     </g>
     <g id="text_9">
      <!-- 800 -->
      <g transform="translate(567.508748 591.316563) scale(0.1 -0.1)">
       <defs>
        <path id="DejaVuSans-38" d="M 2034 2216 
Q 1584 2216 1326 1975 
Q 1069 1734 1069 1313 
Q 1069 891 1326 650 
Q 1584 409 2034 409 
Q 2484 409 2743 651 
Q 3003 894 3003 1313 
Q 3003 1734 2745 1975 
Q 2488 2216 2034 2216 
z
M 1403 2484 
Q 997 2584 770 2862 
Q 544 3141 544 3541 
Q 544 4100 942 4425 
Q 1341 4750 2034 4750 
Q 2731 4750 3128 4425 
Q 3525 4100 3525 3541 
Q 3525 3141 3298 2862 
Q 3072 2584 2669 2484 
Q 3125 2378 3379 2068 
Q 3634 1759 3634 1313 
Q 3634 634 3220 271 
Q 2806 -91 2034 -91 
Q 1263 -91 848 271 
Q 434 634 434 1313 
Q 434 1759 690 2068 
Q 947 2378 1403 2484 
z
M 1172 3481 
Q 1172 3119 1398 2916 
Q 1625 2713 2034 2713 
Q 2441 2713 2670 2916 
Q 2900 3119 2900 3481 
Q 2900 3844 2670 4047 
Q 2441 4250 2034 4250 
Q 1625 4250 1398 4047 
Q 1172 3844 1172 3481 
z
" transform="scale(0.015625)"/>
       </defs>
       <use xlink:href="#DejaVuSans-38"/>
       <use xlink:href="#DejaVuSans-30" transform="translate(63.623047 0)"/>
       <use xlink:href="#DejaVuSans-30" transform="translate(127.246094 0)"/>
      </g>
     </g>
    </g>
    <g id="text_10">
     <!-- Epochs -->
     <g transform="translate(304.865625 604.994688) scale(0.1 -0.1)">
      <defs>
       <path id="DejaVuSans-45" d="M 628 4666 
L 3578 4666 
L 3578 4134 
L 1259 4134 
L 1259 2753 
L 3481 2753 
L 3481 2222 
L 1259 2222 
L 1259 531 
L 3634 531 
L 3634 0 
L 628 0 
L 628 4666 
z
" transform="scale(0.015625)"/>
       <path id="DejaVuSans-70" d="M 1159 525 
L 1159 -1331 
L 581 -1331 
L 581 3500 
L 1159 3500 
L 1159 2969 
Q 1341 3281 1617 3432 
Q 1894 3584 2278 3584 
Q 2916 3584 3314 3078 
Q 3713 2572 3713 1747 
Q 3713 922 3314 415 
Q 2916 -91 2278 -91 
Q 1894 -91 1617 61 
Q 1341 213 1159 525 
z
M 3116 1747 
Q 3116 2381 2855 2742 
Q 2594 3103 2138 3103 
Q 1681 3103 1420 2742 
Q 1159 2381 1159 1747 
Q 1159 1113 1420 752 
Q 1681 391 2138 391 
Q 2594 391 2855 752 
Q 3116 1113 3116 1747 
z
" transform="scale(0.015625)"/>
       <path id="DejaVuSans-6f" d="M 1959 3097 
Q 1497 3097 1228 2736 
Q 959 2375 959 1747 
Q 959 1119 1226 758 
Q 1494 397 1959 397 
Q 2419 397 2687 759 
Q 2956 1122 2956 1747 
Q 2956 2369 2687 2733 
Q 2419 3097 1959 3097 
z
M 1959 3584 
Q 2709 3584 3137 3096 
Q 3566 2609 3566 1747 
Q 3566 888 3137 398 
Q 2709 -91 1959 -91 
Q 1206 -91 779 398 
Q 353 888 353 1747 
Q 353 2609 779 3096 
Q 1206 3584 1959 3584 
z
" transform="scale(0.015625)"/>
       <path id="DejaVuSans-63" d="M 3122 3366 
L 3122 2828 
Q 2878 2963 2633 3030 
Q 2388 3097 2138 3097 
Q 1578 3097 1268 2742 
Q 959 2388 959 1747 
Q 959 1106 1268 751 
Q 1578 397 2138 397 
Q 2388 397 2633 464 
Q 2878 531 3122 666 
L 3122 134 
Q 2881 22 2623 -34 
Q 2366 -91 2075 -91 
Q 1284 -91 818 406 
Q 353 903 353 1747 
Q 353 2603 823 3093 
Q 1294 3584 2113 3584 
Q 2378 3584 2631 3529 
Q 2884 3475 3122 3366 
z
" transform="scale(0.015625)"/>
       <path id="DejaVuSans-68" d="M 3513 2113 
L 3513 0 
L 2938 0 
L 2938 2094 
Q 2938 2591 2744 2837 
Q 2550 3084 2163 3084 
Q 1697 3084 1428 2787 
Q 1159 2491 1159 1978 
L 1159 0 
L 581 0 
L 581 4863 
L 1159 4863 
L 1159 2956 
Q 1366 3272 1645 3428 
Q 1925 3584 2291 3584 
Q 2894 3584 3203 3211 
Q 3513 2838 3513 2113 
z
" transform="scale(0.015625)"/>
       <path id="DejaVuSans-73" d="M 2834 3397 
L 2834 2853 
Q 2591 2978 2328 3040 
Q 2066 3103 1784 3103 
Q 1356 3103 1142 2972 
Q 928 2841 928 2578 
Q 928 2378 1081 2264 
Q 1234 2150 1697 2047 
L 1894 2003 
Q 2506 1872 2764 1633 
Q 3022 1394 3022 966 
Q 3022 478 2636 193 
Q 2250 -91 1575 -91 
Q 1294 -91 989 -36 
Q 684 19 347 128 
L 347 722 
Q 666 556 975 473 
Q 1284 391 1588 391 
Q 1994 391 2212 530 
Q 2431 669 2431 922 
Q 2431 1156 2273 1281 
Q 2116 1406 1581 1522 
L 1381 1569 
Q 847 1681 609 1914 
Q 372 2147 372 2553 
Q 372 3047 722 3315 
Q 1072 3584 1716 3584 
Q 2034 3584 2315 3537 
Q 2597 3491 2834 3397 
z
" transform="scale(0.015625)"/>
      </defs>
      <use xlink:href="#DejaVuSans-45"/>
      <use xlink:href="#DejaVuSans-70" transform="translate(63.183594 0)"/>
      <use xlink:href="#DejaVuSans-6f" transform="translate(126.660156 0)"/>
      <use xlink:href="#DejaVuSans-63" transform="translate(187.841797 0)"/>
      <use xlink:href="#DejaVuSans-68" transform="translate(242.822266 0)"/>
      <use xlink:href="#DejaVuSans-73" transform="translate(306.201172 0)"/>
     </g>
    </g>
   </g>
   <g id="matplotlib.axis_2">
    <g id="ytick_1">
     <g id="line2d_19">
      <path d="M 43.78125 572.34617 
L 601.78125 572.34617 
" clip-path="url(#p802d2458ab)" style="fill: none; stroke: #b0b0b0; stroke-width: 0.8; stroke-linecap: square"/>
     </g>
     <g id="line2d_20">
      <defs>
       <path id="m3fa32b6beb" d="M 0 0 
L -3.5 0 
" style="stroke: #000000; stroke-width: 0.8"/>
      </defs>
      <g>
       <use xlink:href="#m3fa32b6beb" x="43.78125" y="572.34617" style="stroke: #000000; stroke-width: 0.8"/>
      </g>
     </g>
     <g id="text_11">
      <!-- 0.2 -->
      <g transform="translate(20.878125 576.145389) scale(0.1 -0.1)">
       <defs>
        <path id="DejaVuSans-2e" d="M 684 794 
L 1344 794 
L 1344 0 
L 684 0 
L 684 794 
z
" transform="scale(0.015625)"/>
       </defs>
       <use xlink:href="#DejaVuSans-30"/>
       <use xlink:href="#DejaVuSans-2e" transform="translate(63.623047 0)"/>
       <use xlink:href="#DejaVuSans-32" transform="translate(95.410156 0)"/>
      </g>
     </g>
    </g>
    <g id="ytick_2">
     <g id="line2d_21">
      <path d="M 43.78125 470.666527 
L 601.78125 470.666527 
" clip-path="url(#p802d2458ab)" style="fill: none; stroke: #b0b0b0; stroke-width: 0.8; stroke-linecap: square"/>
     </g>
     <g id="line2d_22">
      <g>
       <use xlink:href="#m3fa32b6beb" x="43.78125" y="470.666527" style="stroke: #000000; stroke-width: 0.8"/>
      </g>
     </g>
     <g id="text_12">
      <!-- 0.4 -->
      <g transform="translate(20.878125 474.465746) scale(0.1 -0.1)">
       <use xlink:href="#DejaVuSans-30"/>
       <use xlink:href="#DejaVuSans-2e" transform="translate(63.623047 0)"/>
       <use xlink:href="#DejaVuSans-34" transform="translate(95.410156 0)"/>
      </g>
     </g>
    </g>
    <g id="ytick_3">
     <g id="line2d_23">
      <path d="M 43.78125 368.986884 
L 601.78125 368.986884 
" clip-path="url(#p802d2458ab)" style="fill: none; stroke: #b0b0b0; stroke-width: 0.8; stroke-linecap: square"/>
     </g>
     <g id="line2d_24">
      <g>
       <use xlink:href="#m3fa32b6beb" x="43.78125" y="368.986884" style="stroke: #000000; stroke-width: 0.8"/>
      </g>
     </g>
     <g id="text_13">
      <!-- 0.6 -->
      <g transform="translate(20.878125 372.786103) scale(0.1 -0.1)">
       <use xlink:href="#DejaVuSans-30"/>
       <use xlink:href="#DejaVuSans-2e" transform="translate(63.623047 0)"/>
       <use xlink:href="#DejaVuSans-36" transform="translate(95.410156 0)"/>
      </g>
     </g>
    </g>
    <g id="ytick_4">
     <g id="line2d_25">
      <path d="M 43.78125 267.307241 
L 601.78125 267.307241 
" clip-path="url(#p802d2458ab)" style="fill: none; stroke: #b0b0b0; stroke-width: 0.8; stroke-linecap: square"/>
     </g>
     <g id="line2d_26">
      <g>
       <use xlink:href="#m3fa32b6beb" x="43.78125" y="267.307241" style="stroke: #000000; stroke-width: 0.8"/>
      </g>
     </g>
     <g id="text_14">
      <!-- 0.8 -->
      <g transform="translate(20.878125 271.10646) scale(0.1 -0.1)">
       <use xlink:href="#DejaVuSans-30"/>
       <use xlink:href="#DejaVuSans-2e" transform="translate(63.623047 0)"/>
       <use xlink:href="#DejaVuSans-38" transform="translate(95.410156 0)"/>
      </g>
     </g>
    </g>
    <g id="ytick_5">
     <g id="line2d_27">
      <path d="M 43.78125 165.627598 
L 601.78125 165.627598 
" clip-path="url(#p802d2458ab)" style="fill: none; stroke: #b0b0b0; stroke-width: 0.8; stroke-linecap: square"/>
     </g>
     <g id="line2d_28">
      <g>
       <use xlink:href="#m3fa32b6beb" x="43.78125" y="165.627598" style="stroke: #000000; stroke-width: 0.8"/>
      </g>
     </g>
     <g id="text_15">
      <!-- 1.0 -->
      <g transform="translate(20.878125 169.426816) scale(0.1 -0.1)">
       <use xlink:href="#DejaVuSans-31"/>
       <use xlink:href="#DejaVuSans-2e" transform="translate(63.623047 0)"/>
       <use xlink:href="#DejaVuSans-30" transform="translate(95.410156 0)"/>
      </g>
     </g>
    </g>
    <g id="ytick_6">
     <g id="line2d_29">
      <path d="M 43.78125 63.947955 
L 601.78125 63.947955 
" clip-path="url(#p802d2458ab)" style="fill: none; stroke: #b0b0b0; stroke-width: 0.8; stroke-linecap: square"/>
     </g>
     <g id="line2d_30">
      <g>
       <use xlink:href="#m3fa32b6beb" x="43.78125" y="63.947955" style="stroke: #000000; stroke-width: 0.8"/>
      </g>
     </g>
     <g id="text_16">
      <!-- 1.2 -->
      <g transform="translate(20.878125 67.747173) scale(0.1 -0.1)">
       <use xlink:href="#DejaVuSans-31"/>
       <use xlink:href="#DejaVuSans-2e" transform="translate(63.623047 0)"/>
       <use xlink:href="#DejaVuSans-32" transform="translate(95.410156 0)"/>
      </g>
     </g>
    </g>
    <g id="text_17">
     <!-- Loss -->
     <g transform="translate(14.798438 310.485313) rotate(-90) scale(0.1 -0.1)">
      <defs>
       <path id="DejaVuSans-4c" d="M 628 4666 
L 1259 4666 
L 1259 531 
L 3531 531 
L 3531 0 
L 628 0 
L 628 4666 
z
" transform="scale(0.015625)"/>
      </defs>
      <use xlink:href="#DejaVuSans-4c"/>
      <use xlink:href="#DejaVuSans-6f" transform="translate(53.962891 0)"/>
      <use xlink:href="#DejaVuSans-73" transform="translate(115.144531 0)"/>
      <use xlink:href="#DejaVuSans-73" transform="translate(167.244141 0)"/>
     </g>
    </g>
   </g>
   <g id="line2d_31">
    <path d="M 69.144886 47.518125 
L 69.779771 144.897327 
L 70.414655 176.939638 
L 71.04954 196.079947 
L 72.954193 278.205762 
L 73.589078 294.162145 
L 75.493732 324.643888 
L 76.128616 330.069561 
L 77.398385 337.02059 
L 78.03327 339.656578 
L 78.668154 341.652903 
L 79.303039 344.27883 
L 79.937923 345.906187 
L 80.572808 347.905693 
L 83.74723 354.049544 
L 84.382115 354.468179 
L 85.016999 355.880567 
L 85.651884 356.656412 
L 86.286768 357.836043 
L 86.921653 358.449525 
L 88.191422 360.054821 
L 88.826306 360.737727 
L 89.461191 361.189603 
L 90.096075 361.795116 
L 90.73096 362.20969 
L 92.000729 363.324442 
L 92.635613 363.794925 
L 93.270498 364.736072 
L 93.905382 364.995768 
L 94.540267 365.550372 
L 95.175151 366.368217 
L 95.810036 366.618367 
L 97.079805 368.56448 
L 97.71469 369.184447 
L 98.349574 369.423203 
L 100.254228 371.266498 
L 100.889112 372.133676 
L 102.158881 373.299034 
L 103.42865 374.760573 
L 104.063535 376.446172 
L 104.698419 379.733854 
L 105.333304 381.664845 
L 105.968188 382.450599 
L 107.237957 384.554439 
L 107.872842 385.523343 
L 109.777495 387.432971 
L 110.41238 387.79103 
L 112.317033 389.508326 
L 112.951918 389.76784 
L 114.221687 390.646139 
L 114.856571 390.97747 
L 115.491456 391.680164 
L 116.12634 391.965678 
L 116.761225 391.936406 
L 117.396109 392.568433 
L 118.030994 393.03531 
L 118.665879 393.882033 
L 119.300763 393.784791 
L 119.935648 394.414243 
L 120.570532 394.827847 
L 121.205417 394.883059 
L 121.840301 395.137937 
L 123.11007 396.046357 
L 123.744955 396.126932 
L 124.379839 396.66193 
L 125.014724 396.805899 
L 126.284493 397.687501 
L 126.919377 397.667107 
L 128.189146 398.205165 
L 128.824031 398.775678 
L 130.0938 399.10701 
L 130.728684 399.685916 
L 131.363569 399.639765 
L 131.998453 399.992309 
L 132.633338 400.639397 
L 133.268222 400.731245 
L 133.903107 400.973759 
L 135.172876 401.729816 
L 137.077529 402.44654 
L 140.886837 404.840015 
L 141.521721 405.681647 
L 142.156606 406.278948 
L 142.79149 406.656673 
L 143.426375 407.461518 
L 144.061259 407.601002 
L 144.696144 408.289939 
L 145.331028 408.621483 
L 146.600797 409.760235 
L 147.235682 410.041991 
L 147.870566 410.722988 
L 148.505451 411.571742 
L 149.140335 412.199618 
L 150.410104 414.166397 
L 151.679873 417.153748 
L 153.584527 422.758738 
L 154.854296 427.596549 
L 157.393834 434.40414 
L 158.028718 435.565181 
L 158.663603 437.04281 
L 159.298487 437.980124 
L 159.933372 439.538769 
L 160.568256 440.200978 
L 161.838026 442.056349 
L 162.47291 442.619164 
L 163.107795 443.63866 
L 165.012448 445.806423 
L 166.917102 450.303327 
L 168.821755 453.451737 
L 169.45664 454.221294 
L 170.091524 455.454804 
L 170.726409 456.232846 
L 171.996178 458.718092 
L 172.631062 459.435847 
L 173.265947 460.942976 
L 173.900831 461.669822 
L 174.535716 462.686241 
L 177.075254 469.037622 
L 177.710138 470.030254 
L 178.345023 471.42546 
L 178.979907 474.12469 
L 179.614792 475.400124 
L 180.249676 475.945728 
L 181.519445 478.315035 
L 182.789215 479.181652 
L 184.058984 480.7856 
L 185.328753 481.533566 
L 186.598522 483.035969 
L 187.868291 483.757193 
L 188.503175 484.255918 
L 189.13806 484.433478 
L 189.772944 484.965142 
L 190.407829 485.214686 
L 191.677598 486.609225 
L 192.312482 486.539832 
L 192.947367 486.860164 
L 193.582251 487.455767 
L 194.217136 487.332101 
L 194.85202 488.020931 
L 196.121789 488.895291 
L 196.756674 489.107396 
L 197.391558 489.595727 
L 199.296212 490.538647 
L 199.931096 491.682854 
L 201.200865 493.120878 
L 202.470634 494.157783 
L 203.105519 494.265191 
L 203.740403 494.969597 
L 204.375288 495.246338 
L 205.645057 496.498151 
L 206.914826 497.122194 
L 207.549711 497.577525 
L 208.184595 498.256416 
L 208.81948 498.59999 
L 209.454364 498.486157 
L 210.089249 499.392093 
L 210.724133 499.426229 
L 211.993902 500.422558 
L 212.628787 500.421103 
L 213.263671 500.780935 
L 213.898556 500.814768 
L 214.53344 501.533674 
L 215.168325 501.895142 
L 215.803209 501.998202 
L 216.438094 502.453321 
L 217.072978 502.680805 
L 217.707863 503.111243 
L 218.342747 503.050667 
L 218.977632 503.543195 
L 219.612516 503.753694 
L 220.247401 503.703695 
L 220.882285 504.115344 
L 221.51717 504.043057 
L 222.152054 504.63616 
L 222.786939 505.037007 
L 224.056708 505.081855 
L 224.691592 505.498929 
L 225.326477 505.552171 
L 225.961362 506.084138 
L 226.596246 506.414213 
L 227.231131 506.416667 
L 227.866015 506.877029 
L 228.5009 506.750681 
L 229.135784 507.632677 
L 229.770669 507.732283 
L 230.405553 508.11919 
L 231.040438 508.163129 
L 231.675322 508.884217 
L 232.310207 509.246639 
L 232.945091 509.101792 
L 233.579976 509.734183 
L 234.21486 509.886258 
L 234.849745 510.628876 
L 235.484629 510.541391 
L 236.119514 510.823663 
L 237.389283 511.060904 
L 238.024167 511.567235 
L 238.659052 511.156722 
L 239.293936 511.781992 
L 239.928821 511.968536 
L 241.19859 513.006001 
L 242.468359 512.614261 
L 243.103243 512.992562 
L 243.738128 513.813937 
L 244.373012 513.847195 
L 245.007897 514.422419 
L 245.642781 514.601146 
L 246.277666 515.300961 
L 246.91255 515.604293 
L 247.547435 516.065942 
L 248.18232 517.072332 
L 248.817204 517.062817 
L 250.721858 519.604639 
L 251.356742 520.355575 
L 251.991627 520.927269 
L 252.626511 521.135041 
L 253.89628 522.421581 
L 258.340472 524.485829 
L 258.975356 524.556026 
L 259.610241 524.401269 
L 260.245125 525.345128 
L 260.88001 525.91708 
L 261.514894 525.310977 
L 262.149779 526.110276 
L 263.419548 526.441714 
L 264.054432 526.904455 
L 264.689317 527.613012 
L 265.324201 527.317013 
L 265.959086 527.289483 
L 266.59397 527.857799 
L 267.228855 527.336225 
L 267.863739 528.343403 
L 268.498624 528.534356 
L 269.133509 528.425372 
L 269.768393 528.458963 
L 270.403278 529.127581 
L 271.038162 528.856113 
L 272.307931 529.140126 
L 272.942816 529.774124 
L 273.5777 529.717321 
L 274.212585 530.197107 
L 274.847469 530.431302 
L 275.482354 530.273621 
L 276.117238 530.667286 
L 276.752123 530.431727 
L 277.387007 530.585453 
L 278.021892 530.901316 
L 278.656776 531.040724 
L 279.291661 530.87527 
L 279.926545 531.346253 
L 280.56143 530.920361 
L 281.196314 531.552691 
L 281.831199 531.721903 
L 282.466083 531.696312 
L 283.100968 532.2964 
L 283.735852 531.998008 
L 285.640506 532.492202 
L 286.27539 532.399369 
L 286.910275 532.847307 
L 287.545159 532.717126 
L 288.180044 532.923094 
L 288.814928 532.779671 
L 289.449813 532.775671 
L 290.084697 533.421607 
L 290.719582 533.258547 
L 291.354467 533.490122 
L 291.989351 533.195396 
L 292.624236 533.950802 
L 293.25912 533.24682 
L 293.894005 533.397592 
L 294.528889 534.142953 
L 295.163774 533.572985 
L 295.798658 534.176771 
L 296.433543 534.091362 
L 297.068427 534.345315 
L 297.703312 534.152937 
L 299.607965 534.480845 
L 300.24285 534.73295 
L 300.877734 534.321482 
L 301.512619 534.938419 
L 302.147503 535.124433 
L 302.782388 534.786177 
L 304.052157 535.139024 
L 304.687041 535.018373 
L 305.321926 535.442235 
L 305.95681 535.558461 
L 306.591695 535.451129 
L 307.226579 536.113444 
L 307.861464 535.50531 
L 309.131233 535.679946 
L 309.766117 536.370427 
L 310.401002 535.737248 
L 311.035886 536.061596 
L 311.670771 536.068444 
L 312.305656 536.562457 
L 312.94054 536.124095 
L 313.575425 536.043247 
L 314.210309 536.55376 
L 316.114963 536.677865 
L 316.749847 537.035712 
L 317.384732 536.503594 
L 318.019616 536.909364 
L 318.654501 536.710653 
L 319.289385 537.259908 
L 319.92427 537.426105 
L 320.559154 537.431665 
L 321.194039 537.655058 
L 321.828923 537.332741 
L 322.463808 537.810694 
L 323.098692 537.577361 
L 323.733577 537.569968 
L 324.368461 538.187995 
L 326.273115 537.996329 
L 326.907999 538.027238 
L 327.542884 538.257374 
L 328.177768 538.322555 
L 328.812653 537.879966 
L 329.447537 538.838674 
L 330.082422 538.596327 
L 331.352191 538.624736 
L 331.987075 538.991204 
L 332.62196 538.748038 
L 333.256844 538.895795 
L 333.891729 538.681811 
L 334.526614 539.401899 
L 335.161498 538.810886 
L 335.796383 539.030143 
L 336.431267 538.664569 
L 337.066152 538.818568 
L 337.701036 539.45858 
L 340.875459 539.748715 
L 341.510343 539.279308 
L 342.780112 540.304834 
L 343.414997 540.123835 
L 344.049881 539.503292 
L 344.684766 540.082229 
L 345.31965 539.682458 
L 346.589419 539.67914 
L 347.224304 540.586606 
L 347.859188 539.826367 
L 349.128957 540.69156 
L 349.763842 540.294395 
L 350.398726 540.636802 
L 351.033611 540.340137 
L 351.668495 540.687272 
L 352.30338 541.185603 
L 352.938264 540.048835 
L 353.573149 540.442379 
L 354.208033 541.17883 
L 354.842918 540.936013 
L 355.477803 540.892498 
L 356.112687 541.473996 
L 356.747572 540.442606 
L 357.382456 541.192618 
L 358.017341 541.290269 
L 358.652225 540.913437 
L 359.28711 541.411147 
L 359.921994 541.127027 
L 360.556879 540.985755 
L 361.191763 541.366602 
L 361.826648 541.27989 
L 362.461532 541.817479 
L 363.096417 541.281875 
L 363.731301 541.66551 
L 364.366186 541.59798 
L 365.00107 541.861448 
L 365.635955 541.359117 
L 366.270839 541.381132 
L 366.905724 542.513718 
L 367.540608 541.649525 
L 368.810377 542.246235 
L 369.445262 542.256992 
L 370.080146 542.017751 
L 370.715031 542.076932 
L 371.349915 542.381446 
L 371.9848 542.234113 
L 372.619684 542.513688 
L 373.254569 541.675055 
L 374.524338 542.162826 
L 375.159222 542.613521 
L 375.794107 542.701808 
L 376.428991 541.900039 
L 377.063876 542.63393 
L 377.698761 542.505097 
L 378.333645 542.879429 
L 378.96853 542.801732 
L 379.603414 542.503036 
L 380.238299 542.977156 
L 380.873183 542.329355 
L 381.508068 543.078428 
L 382.142952 542.744884 
L 382.777837 543.077367 
L 383.412721 542.780005 
L 384.047606 542.703414 
L 384.68249 543.409987 
L 385.317375 542.825732 
L 386.587144 543.35823 
L 387.222028 543.028504 
L 388.491797 542.988322 
L 389.126682 543.218321 
L 389.761566 542.774566 
L 391.031335 543.439881 
L 391.66622 542.926838 
L 392.301104 543.73991 
L 392.935989 543.870894 
L 394.205758 542.888671 
L 394.840642 543.558304 
L 395.475527 543.009807 
L 396.110411 543.960742 
L 396.745296 543.337078 
L 397.38018 543.452744 
L 398.015065 543.2982 
L 398.64995 543.737379 
L 399.284834 543.903833 
L 399.919719 543.279503 
L 400.554603 543.814652 
L 401.824372 543.882167 
L 402.459257 543.77241 
L 403.094141 543.935257 
L 403.729026 543.971909 
L 404.36391 543.823561 
L 404.998795 543.476911 
L 405.633679 544.22318 
L 406.268564 543.906591 
L 406.903448 543.882197 
L 407.538333 544.24912 
L 408.173217 543.413457 
L 408.808102 544.172211 
L 409.442986 544.216786 
L 410.077871 543.93403 
L 411.34764 544.487391 
L 411.982524 544.151711 
L 413.252293 544.164893 
L 413.887178 544.632436 
L 414.522062 543.736001 
L 415.156947 544.678951 
L 415.791831 544.222786 
L 416.426716 544.342528 
L 417.0616 544.679542 
L 417.696485 544.432376 
L 418.331369 545.05901 
L 418.966254 544.634391 
L 419.601138 544.739587 
L 420.236023 544.260695 
L 420.870908 544.871647 
L 421.505792 544.855662 
L 422.140677 544.302528 
L 422.775561 545.021692 
L 424.04533 544.900889 
L 424.680215 545.102252 
L 425.949984 544.591148 
L 427.219753 544.782132 
L 427.854637 544.988798 
L 428.489522 544.681921 
L 429.124406 544.68283 
L 429.759291 545.093646 
L 430.394175 545.104237 
L 431.02906 544.744829 
L 431.663944 544.857571 
L 432.298829 545.175312 
L 432.933713 544.752178 
L 433.568598 545.066677 
L 434.203482 544.738223 
L 434.838367 544.94895 
L 435.473251 544.896041 
L 436.108136 545.617598 
L 437.377905 544.885223 
L 438.012789 544.888662 
L 438.647674 545.255161 
L 439.282558 545.300282 
L 439.917443 545.082025 
L 440.552327 545.859612 
L 441.187212 544.998722 
L 441.822097 545.264751 
L 442.456981 545.262676 
L 443.091866 545.495311 
L 443.72675 545.273676 
L 444.361635 545.417069 
L 444.996519 545.252327 
L 445.631404 545.557038 
L 446.901173 545.340842 
L 447.536057 545.574614 
L 448.805826 545.565008 
L 449.440711 545.93493 
L 450.075595 545.443735 
L 451.345364 545.065116 
L 452.615133 546.217232 
L 453.250018 545.528962 
L 453.884902 545.95446 
L 455.154671 545.638659 
L 455.789556 546.375004 
L 456.42444 546.064869 
L 457.059325 546.084081 
L 457.694209 545.611765 
L 458.329094 545.705931 
L 458.963978 545.936036 
L 459.598863 545.666037 
L 460.233747 546.236747 
L 460.868632 546.203974 
L 461.503516 545.98746 
L 462.138401 546.16496 
L 462.773285 546.071248 
L 463.40817 546.227641 
L 464.043055 545.839597 
L 464.677939 546.339534 
L 465.947708 546.288035 
L 466.582593 546.45414 
L 467.217477 546.05149 
L 467.852362 546.372913 
L 468.487246 546.555397 
L 469.122131 546.384337 
L 469.757015 546.911062 
L 470.3919 546.22858 
L 471.026784 546.003975 
L 471.661669 546.039536 
L 472.296553 545.691931 
L 472.931438 546.534428 
L 473.566322 546.07943 
L 474.201207 546.324928 
L 474.836091 546.035521 
L 475.470976 546.729109 
L 476.10586 546.148823 
L 476.740745 546.346595 
L 477.375629 546.687897 
L 478.645398 546.784063 
L 479.280283 546.528503 
L 479.915167 546.696442 
L 480.550052 546.498731 
L 481.184936 546.993054 
L 481.819821 546.557806 
L 482.454705 546.794335 
L 483.08959 546.770623 
L 483.724474 546.549731 
L 484.359359 547.01063 
L 484.994244 546.940918 
L 485.629128 546.651654 
L 486.264013 546.759836 
L 486.898897 546.386883 
L 487.533782 547.199159 
L 488.168666 547.021175 
L 488.803551 546.960259 
L 489.438435 546.015097 
L 490.07332 547.015766 
L 491.343089 547.100274 
L 492.612858 547.165773 
L 493.247742 547.108069 
L 493.882627 547.288462 
L 494.517511 547.314992 
L 495.152396 546.866078 
L 495.78728 546.857502 
L 497.057049 547.296667 
L 497.691934 546.981509 
L 498.326818 546.966297 
L 498.961703 546.794002 
L 499.596587 546.951009 
L 500.231472 547.330879 
L 500.866356 547.114614 
L 501.501241 547.268538 
L 502.136125 547.621983 
L 502.77101 547.194493 
L 503.405894 547.180925 
L 504.675663 547.746559 
L 505.310548 546.724184 
L 505.945433 547.363636 
L 506.580317 547.6639 
L 507.215202 547.163107 
L 507.850086 547.413901 
L 508.484971 547.122986 
L 509.119855 547.790869 
L 509.75474 547.355219 
L 510.389624 547.885081 
L 511.024509 547.208667 
L 512.294278 547.329326 
L 513.564047 546.798745 
L 514.198931 547.392818 
L 514.833816 547.635779 
L 515.4687 547.079781 
L 516.103585 547.421924 
L 516.738469 547.295742 
L 517.373354 547.583264 
L 518.008238 547.248841 
L 518.643123 547.829141 
L 519.278007 548.050625 
L 519.912892 547.461067 
L 520.547776 547.863914 
L 521.182661 547.961338 
L 521.817545 547.488287 
L 523.087314 548.103125 
L 523.722199 548.075739 
L 524.357083 547.548968 
L 524.991968 547.99908 
L 525.626852 548.298541 
L 526.261737 547.757225 
L 526.896621 548.34726 
L 527.531506 547.888179 
L 528.166391 547.610415 
L 528.801275 548.222132 
L 529.43616 547.77374 
L 530.071044 548.143966 
L 530.705929 547.696968 
L 531.975698 547.510181 
L 532.610582 547.799823 
L 533.245467 547.751513 
L 533.880351 548.134784 
L 534.515236 548.091693 
L 535.15012 547.934535 
L 535.785005 547.595552 
L 536.419889 548.307208 
L 537.054774 547.769043 
L 537.689658 548.030921 
L 539.594312 547.935732 
L 540.229196 548.035906 
L 540.864081 548.672729 
L 541.498965 547.918232 
L 542.13385 547.963421 
L 542.768734 548.512404 
L 543.403619 548.049034 
L 544.038503 548.254602 
L 544.673388 548.239435 
L 545.308272 548.492517 
L 545.943157 549.072886 
L 546.578041 547.98677 
L 547.212926 548.432722 
L 548.482695 548.482305 
L 549.752464 547.928391 
L 550.387349 548.360556 
L 551.022233 548.043557 
L 551.657118 548.767281 
L 552.926887 548.151746 
L 553.561771 548.263405 
L 554.196656 548.504828 
L 554.83154 548.591585 
L 555.466425 548.543714 
L 556.101309 548.800016 
L 556.736194 548.181079 
L 557.371078 548.484654 
L 558.005963 548.318836 
L 559.275732 548.565843 
L 560.545501 548.625456 
L 561.180385 547.958656 
L 561.81527 548.721342 
L 562.450154 548.410631 
L 563.085039 548.84044 
L 563.719923 548.731031 
L 565.624577 549.030969 
L 566.259461 549.358438 
L 566.894346 548.624176 
L 567.52923 548.604941 
L 568.164115 547.777028 
L 568.798999 549.019129 
L 569.433884 548.580926 
L 570.068768 549.014386 
L 571.973422 548.333563 
L 573.243191 549.224552 
L 574.51296 548.437154 
L 575.147845 548.552843 
L 576.417614 549.190825 
L 576.417614 549.190825 
" clip-path="url(#p802d2458ab)" style="fill: none; stroke: #1f77b4; stroke-width: 1.5; stroke-linecap: square"/>
   </g>
   <g id="line2d_32">
    <path d="M 69.144886 121.724218 
L 70.414655 190.012428 
L 71.04954 209.245282 
L 72.319309 264.045886 
L 72.954193 287.343751 
L 73.589078 300.246209 
L 74.223962 310.32077 
L 74.858847 313.860603 
L 75.493732 330.308287 
L 76.763501 325.110007 
L 77.398385 342.443202 
L 78.03327 338.564856 
L 78.668154 345.922156 
L 79.303039 343.506804 
L 79.937923 347.028849 
L 80.572808 349.601928 
L 81.207692 344.588829 
L 81.842577 351.817767 
L 82.477461 350.533863 
L 83.112346 352.730762 
L 83.74723 351.999584 
L 84.382115 354.031696 
L 85.016999 352.223977 
L 85.651884 358.66316 
L 86.286768 352.047826 
L 86.921653 355.067691 
L 87.556537 358.636766 
L 88.191422 360.910059 
L 88.826306 354.437088 
L 89.461191 358.519434 
L 90.096075 347.608725 
L 90.73096 358.313798 
L 91.365844 360.388849 
L 92.000729 358.880644 
L 92.635613 364.753466 
L 93.905382 359.358854 
L 94.540267 362.461295 
L 95.175151 364.28362 
L 95.810036 363.051383 
L 96.44492 365.260919 
L 97.079805 365.913007 
L 97.71469 365.119586 
L 98.349574 366.049309 
L 98.984459 369.371628 
L 99.619343 367.980876 
L 100.254228 369.34081 
L 100.889112 368.24539 
L 101.523997 370.343472 
L 102.158881 367.279394 
L 102.793766 373.15158 
L 104.063535 374.040455 
L 104.698419 372.48125 
L 105.333304 373.73676 
L 105.968188 379.252553 
L 106.603073 381.831754 
L 107.237957 379.452795 
L 107.872842 381.561846 
L 108.507726 383.124718 
L 109.142611 386.181007 
L 111.047264 388.065544 
L 112.317033 386.447339 
L 112.951918 381.962662 
L 113.586802 389.758415 
L 114.221687 388.394603 
L 114.856571 380.982788 
L 115.491456 380.430396 
L 116.12634 382.346418 
L 116.761225 391.581044 
L 117.396109 388.197119 
L 118.030994 391.475438 
L 118.665879 388.340119 
L 119.300763 392.604766 
L 119.935648 392.811584 
L 120.570532 395.299906 
L 121.205417 387.88906 
L 121.840301 394.689575 
L 122.475186 393.104643 
L 123.11007 392.173677 
L 123.744955 390.259292 
L 124.379839 396.723869 
L 125.014724 381.485876 
L 125.649608 395.28036 
L 126.284493 394.861453 
L 126.919377 392.842189 
L 127.554262 397.644168 
L 128.189146 396.246417 
L 129.458915 396.387234 
L 130.0938 398.620436 
L 130.728684 388.685935 
L 131.363569 397.018353 
L 131.998453 398.819648 
L 132.633338 388.40327 
L 133.268222 395.110119 
L 133.903107 399.448887 
L 134.537991 395.959994 
L 135.172876 398.051015 
L 135.80776 399.463372 
L 136.442645 404.427077 
L 137.077529 396.42484 
L 137.712414 401.94927 
L 138.347298 402.354086 
L 138.982183 403.963625 
L 139.617067 401.566726 
L 140.251952 396.960807 
L 140.886837 402.637024 
L 141.521721 403.868171 
L 142.156606 403.567869 
L 142.79149 399.220009 
L 143.426375 402.463904 
L 144.061259 407.763123 
L 144.696144 394.46994 
L 145.331028 405.169256 
L 145.965913 408.983057 
L 146.600797 404.857863 
L 147.235682 386.669884 
L 147.870566 400.283732 
L 148.505451 411.344925 
L 149.140335 412.893585 
L 149.77522 401.642696 
L 150.410104 412.212709 
L 151.044989 412.438163 
L 151.679873 415.594058 
L 152.314758 413.254492 
L 152.949642 419.934932 
L 153.584527 421.962772 
L 154.219411 424.904486 
L 154.854296 426.097359 
L 155.48918 426.047632 
L 156.758949 433.538341 
L 157.393834 431.477199 
L 158.028718 434.95882 
L 158.663603 437.208916 
L 159.298487 431.449169 
L 159.933372 438.986089 
L 160.568256 433.279297 
L 161.203141 436.022466 
L 161.838026 429.736949 
L 162.47291 438.780893 
L 163.107795 442.348605 
L 163.742679 443.151328 
L 164.377564 441.688456 
L 165.012448 445.730135 
L 165.647333 446.459889 
L 166.282217 448.465684 
L 166.917102 448.949136 
L 167.551986 448.850591 
L 168.186871 449.150408 
L 168.821755 437.599596 
L 169.45664 452.460863 
L 170.091524 451.853729 
L 170.726409 452.64465 
L 171.361293 457.713673 
L 171.996178 454.055083 
L 172.631062 452.658756 
L 173.265947 454.44043 
L 173.900831 461.749942 
L 174.535716 458.492578 
L 175.1706 458.503714 
L 175.805485 465.475502 
L 176.440369 468.861896 
L 177.075254 464.28581 
L 177.710138 467.082449 
L 178.345023 475.206655 
L 178.979907 470.531797 
L 179.614792 476.948011 
L 180.249676 478.048461 
L 181.519445 475.415442 
L 182.15433 478.074718 
L 182.789215 471.211249 
L 183.424099 473.021377 
L 184.058984 463.156603 
L 184.693868 480.96116 
L 185.328753 479.50203 
L 185.963637 483.316998 
L 186.598522 478.86376 
L 187.233406 476.845148 
L 187.868291 480.729464 
L 188.503175 483.133695 
L 189.13806 477.121692 
L 189.772944 483.288892 
L 190.407829 483.114711 
L 191.042713 477.562978 
L 191.677598 483.756026 
L 192.312482 488.146097 
L 192.947367 484.807612 
L 193.582251 470.066708 
L 194.217136 487.566691 
L 194.85202 484.315114 
L 195.486905 484.691613 
L 196.121789 487.6236 
L 196.756674 485.160489 
L 197.391558 481.412309 
L 198.026443 489.935483 
L 198.661327 487.982265 
L 199.296212 477.700083 
L 199.931096 487.202723 
L 200.565981 487.649781 
L 201.200865 496.309985 
L 201.83575 495.085294 
L 202.470634 489.351865 
L 203.105519 492.141534 
L 203.740403 486.178864 
L 204.375288 492.500987 
L 205.010173 497.499571 
L 205.645057 495.707306 
L 206.279942 492.604411 
L 206.914826 494.413842 
L 207.549711 493.911147 
L 208.184595 495.51658 
L 208.81948 499.988514 
L 209.454364 496.839316 
L 210.089249 498.820201 
L 210.724133 492.720895 
L 211.359018 496.950179 
L 211.993902 498.518354 
L 212.628787 492.579668 
L 213.263671 501.178812 
L 213.898556 497.772721 
L 214.53344 501.565477 
L 215.168325 495.629655 
L 215.803209 500.891298 
L 216.438094 500.355012 
L 217.072978 497.996205 
L 217.707863 503.038546 
L 218.342747 498.307067 
L 218.977632 504.151541 
L 219.612516 495.344217 
L 220.247401 500.692405 
L 220.882285 495.747806 
L 221.51717 502.921319 
L 222.152054 499.688273 
L 222.786939 501.430068 
L 223.421823 508.085205 
L 224.691592 499.629879 
L 225.326477 502.64376 
L 225.961362 495.31502 
L 226.596246 504.656054 
L 227.231131 506.795832 
L 227.866015 492.403093 
L 228.5009 509.09861 
L 229.135784 506.342713 
L 229.770669 508.096826 
L 231.040438 508.778505 
L 231.675322 508.671657 
L 232.310207 487.968356 
L 232.945091 503.567468 
L 233.579976 507.014771 
L 234.21486 503.802512 
L 234.849745 505.356611 
L 235.484629 510.576027 
L 236.119514 508.926505 
L 236.754398 510.396407 
L 237.389283 496.11041 
L 238.024167 510.269483 
L 238.659052 507.228785 
L 239.293936 508.087266 
L 239.928821 512.342156 
L 240.563705 506.963635 
L 241.19859 507.389375 
L 241.833474 512.333186 
L 242.468359 499.420971 
L 243.103243 512.847972 
L 243.738128 511.162555 
L 244.373012 504.92025 
L 245.007897 514.128345 
L 246.277666 508.837081 
L 246.91255 510.449998 
L 247.547435 515.367627 
L 248.18232 508.840672 
L 248.817204 513.747574 
L 249.452089 519.622836 
L 250.086973 509.827061 
L 250.721858 516.222699 
L 251.356742 520.449499 
L 251.991627 517.663647 
L 252.626511 517.88198 
L 253.261396 522.391899 
L 253.89628 520.420635 
L 254.531165 511.616993 
L 255.166049 517.678875 
L 255.800934 521.809583 
L 256.435818 518.87946 
L 257.070703 524.263603 
L 257.705587 518.86593 
L 258.340472 521.277828 
L 258.975356 527.372619 
L 259.610241 526.084292 
L 260.245125 521.080496 
L 260.88001 521.928295 
L 261.514894 526.023155 
L 262.149779 524.51345 
L 262.784663 516.247214 
L 263.419548 523.925377 
L 264.054432 522.788609 
L 264.689317 529.064445 
L 265.959086 517.594496 
L 266.59397 519.576502 
L 267.228855 520.804224 
L 268.498624 530.326212 
L 269.768393 516.563895 
L 270.403278 528.387554 
L 271.038162 524.815403 
L 271.673047 518.382796 
L 272.307931 531.615479 
L 272.942816 527.690966 
L 273.5777 529.599715 
L 274.212585 528.301327 
L 274.847469 520.007697 
L 275.482354 530.528651 
L 276.117238 528.107813 
L 276.752123 530.572423 
L 277.387007 520.60968 
L 278.021892 530.874391 
L 278.656776 528.936658 
L 279.291661 528.738355 
L 279.926545 530.691559 
L 280.56143 525.497249 
L 281.196314 530.845649 
L 281.831199 524.812191 
L 282.466083 533.410335 
L 283.100968 530.095865 
L 283.735852 504.351798 
L 284.370737 531.769736 
L 285.005621 529.913744 
L 285.640506 529.273717 
L 286.27539 533.730364 
L 286.910275 524.439102 
L 287.545159 521.075117 
L 288.180044 529.518094 
L 288.814928 530.175031 
L 289.449813 517.626541 
L 290.084697 530.428469 
L 290.719582 524.043028 
L 291.354467 526.544896 
L 291.989351 525.720505 
L 292.624236 529.46567 
L 293.25912 528.94543 
L 293.894005 526.344109 
L 294.528889 532.679474 
L 295.163774 531.151208 
L 295.798658 531.422434 
L 296.433543 509.935167 
L 297.068427 538.178283 
L 297.703312 535.920202 
L 298.338196 535.083509 
L 298.973081 533.321532 
L 299.607965 535.13813 
L 300.24285 530.981255 
L 300.877734 532.066583 
L 301.512619 529.09149 
L 302.147503 531.059709 
L 302.782388 503.967451 
L 303.417272 532.819655 
L 304.052157 525.729839 
L 304.687041 535.396917 
L 305.321926 526.327594 
L 305.95681 536.04852 
L 306.591695 532.144901 
L 307.226579 531.895069 
L 307.861464 520.204257 
L 308.496348 534.15518 
L 309.131233 538.649796 
L 309.766117 529.992214 
L 310.401002 531.951705 
L 311.035886 530.231682 
L 311.670771 524.284224 
L 312.305656 522.33296 
L 312.94054 536.927258 
L 313.575425 532.395733 
L 314.210309 530.978285 
L 314.845194 530.776665 
L 315.480078 529.602336 
L 316.114963 534.069377 
L 316.749847 528.8574 
L 317.384732 530.604241 
L 318.019616 531.783645 
L 318.654501 533.374259 
L 319.289385 532.558505 
L 319.92427 538.843841 
L 320.559154 527.457134 
L 321.194039 532.022977 
L 321.828923 501.757597 
L 322.463808 539.095082 
L 323.098692 522.277354 
L 323.733577 537.067152 
L 324.368461 538.4911 
L 325.003346 534.767859 
L 325.63823 529.940941 
L 326.273115 537.7383 
L 326.907999 539.597595 
L 327.542884 524.46095 
L 328.177768 528.215024 
L 328.812653 528.896552 
L 329.447537 537.510862 
L 330.082422 533.995559 
L 330.717306 521.370464 
L 331.352191 525.65843 
L 331.987075 532.539157 
L 332.62196 533.849211 
L 333.256844 521.097102 
L 333.891729 528.949324 
L 334.526614 533.032215 
L 335.161498 531.782402 
L 335.796383 528.875991 
L 336.431267 533.97265 
L 337.066152 529.335656 
L 337.701036 537.949481 
L 338.335921 536.25764 
L 338.970805 537.776785 
L 339.60569 519.89544 
L 340.240574 538.313222 
L 340.875459 527.301771 
L 341.510343 539.655383 
L 342.145228 535.229645 
L 342.780112 536.892092 
L 343.414997 537.055409 
L 344.049881 530.909179 
L 344.684766 533.392274 
L 345.31965 535.208781 
L 345.954535 529.396262 
L 346.589419 535.281584 
L 347.224304 539.1849 
L 347.859188 538.389873 
L 348.494073 541.783843 
L 349.128957 527.914041 
L 349.763842 522.317581 
L 350.398726 527.319165 
L 351.033611 530.296879 
L 351.668495 511.821264 
L 352.30338 532.628353 
L 352.938264 535.219084 
L 353.573149 541.141709 
L 354.208033 536.040171 
L 354.842918 541.825691 
L 355.477803 540.29694 
L 356.112687 542.195311 
L 356.747572 528.800234 
L 357.382456 532.071507 
L 358.017341 543.037125 
L 358.652225 539.160309 
L 359.28711 534.256937 
L 359.921994 542.845308 
L 361.191763 535.178827 
L 361.826648 538.060087 
L 362.461532 538.419161 
L 363.096417 540.950528 
L 363.731301 535.783021 
L 364.366186 538.044556 
L 365.00107 535.481916 
L 365.635955 530.898785 
L 366.270839 536.972061 
L 366.905724 538.887462 
L 367.540608 543.95006 
L 368.175493 516.94506 
L 368.810377 540.169592 
L 369.445262 541.388935 
L 370.080146 534.666693 
L 370.715031 523.377516 
L 371.349915 530.408272 
L 371.9848 542.067235 
L 372.619684 506.530485 
L 373.254569 543.214321 
L 373.889453 535.969278 
L 374.524338 541.75757 
L 375.159222 529.342247 
L 375.794107 528.07151 
L 376.428991 523.497349 
L 377.063876 538.829583 
L 377.698761 534.008408 
L 378.333645 536.160125 
L 378.96853 536.550836 
L 379.603414 542.247507 
L 380.238299 529.322974 
L 380.873183 542.393976 
L 381.508068 536.485927 
L 382.142952 525.546006 
L 382.777837 540.342682 
L 383.412721 526.518502 
L 384.047606 528.09507 
L 384.68249 532.805837 
L 385.317375 532.816701 
L 385.952259 542.863535 
L 386.587144 532.566702 
L 387.222028 543.845121 
L 387.856913 527.755436 
L 388.491797 529.954623 
L 389.126682 542.176341 
L 389.761566 538.104238 
L 390.396451 542.377416 
L 391.031335 544.242635 
L 391.66622 533.772439 
L 392.301104 536.783365 
L 392.935989 539.141976 
L 394.205758 531.282056 
L 394.840642 541.492723 
L 395.475527 510.796193 
L 396.110411 539.370535 
L 396.745296 544.511179 
L 397.38018 544.071529 
L 398.015065 540.723681 
L 398.64995 542.122387 
L 399.284834 521.834371 
L 399.919719 546.631897 
L 400.554603 539.246899 
L 401.189488 535.6649 
L 401.824372 540.359819 
L 402.459257 537.60571 
L 403.094141 537.694119 
L 403.729026 538.243889 
L 404.36391 531.561691 
L 404.998795 535.001024 
L 405.633679 542.104872 
L 406.268564 537.423226 
L 406.903448 540.375652 
L 407.538333 544.679224 
L 408.173217 516.111018 
L 408.808102 543.978878 
L 409.442986 543.750304 
L 410.077871 525.306113 
L 410.712755 545.485917 
L 411.34764 543.587107 
L 411.982524 538.553539 
L 412.617409 543.423169 
L 413.252293 540.760772 
L 413.887178 543.135488 
L 414.522062 543.456684 
L 415.156947 519.660093 
L 415.791831 540.803802 
L 416.426716 541.188118 
L 417.0616 531.921129 
L 417.696485 540.64056 
L 418.331369 534.902161 
L 418.966254 537.576437 
L 419.601138 542.421703 
L 420.236023 542.571445 
L 420.870908 543.012443 
L 421.505792 545.974597 
L 422.140677 539.32199 
L 422.775561 536.450973 
L 423.410446 538.100965 
L 424.04533 532.827292 
L 424.680215 535.190054 
L 425.949984 544.532527 
L 426.584868 539.414338 
L 427.219753 545.324751 
L 427.854637 532.819822 
L 428.489522 540.23985 
L 429.124406 541.899236 
L 429.759291 548.013868 
L 430.394175 528.173388 
L 431.02906 529.332716 
L 431.663944 538.944537 
L 432.298829 540.040138 
L 432.933713 540.43194 
L 433.568598 543.139579 
L 434.203482 542.848292 
L 434.838367 538.77925 
L 435.473251 541.915888 
L 436.108136 536.259489 
L 436.74302 533.811242 
L 437.377905 536.826592 
L 438.012789 526.446457 
L 438.647674 536.343049 
L 439.282558 542.207265 
L 439.917443 544.699042 
L 440.552327 534.429012 
L 441.187212 542.832838 
L 441.822097 542.994655 
L 442.456981 547.228144 
L 443.091866 521.769735 
L 443.72675 541.014149 
L 444.361635 547.640998 
L 444.996519 541.729267 
L 445.631404 537.922981 
L 446.266288 542.057372 
L 446.901173 531.790039 
L 447.536057 536.553836 
L 448.170942 537.277348 
L 448.805826 544.50974 
L 449.440711 546.715533 
L 450.075595 543.303245 
L 450.71048 545.971763 
L 451.345364 542.622687 
L 451.980249 534.376603 
L 452.615133 537.707906 
L 453.250018 541.875782 
L 453.884902 548.073504 
L 454.519787 548.321329 
L 455.154671 541.101164 
L 455.789556 546.4927 
L 456.42444 543.748455 
L 457.059325 544.218347 
L 457.694209 543.33876 
L 458.329094 534.569693 
L 458.963978 548.829213 
L 459.598863 546.645988 
L 460.233747 537.971708 
L 460.868632 541.100346 
L 461.503516 547.49237 
L 462.138401 541.180133 
L 462.773285 538.392328 
L 463.40817 541.061043 
L 464.043055 533.654303 
L 464.677939 542.505249 
L 465.312824 540.173138 
L 465.947708 548.629267 
L 466.582593 538.771886 
L 467.217477 538.05945 
L 467.852362 539.645034 
L 468.487246 538.532115 
L 469.122131 545.676522 
L 469.757015 549.247938 
L 470.3919 541.539344 
L 471.026784 540.410319 
L 471.661669 540.163092 
L 472.296553 550.20229 
L 472.931438 535.40978 
L 473.566322 541.178209 
L 474.201207 526.086382 
L 474.836091 542.665945 
L 475.470976 544.013848 
L 476.10586 543.666592 
L 476.740745 540.296395 
L 477.375629 543.772728 
L 478.010514 545.811885 
L 478.645398 539.22243 
L 479.280283 538.045723 
L 479.915167 537.333847 
L 480.550052 540.412228 
L 481.184936 547.695634 
L 481.819821 533.614455 
L 482.454705 541.379041 
L 483.08959 542.223174 
L 483.724474 547.868035 
L 484.359359 546.25355 
L 484.994244 547.767399 
L 485.629128 546.24652 
L 486.264013 546.164581 
L 486.898897 546.338201 
L 487.533782 540.043214 
L 488.168666 538.750402 
L 488.803551 539.472444 
L 489.438435 549.143787 
L 490.07332 539.349929 
L 490.708204 539.578489 
L 491.343089 538.560115 
L 491.977973 547.005335 
L 492.612858 545.741507 
L 493.247742 532.023159 
L 494.517511 546.428625 
L 495.152396 545.932051 
L 495.78728 523.301486 
L 496.422165 529.787381 
L 497.691934 534.52783 
L 498.326818 534.61892 
L 498.961703 550.136836 
L 499.596587 544.595179 
L 500.231472 550.070041 
L 500.866356 537.456756 
L 501.501241 544.633209 
L 502.136125 537.775664 
L 502.77101 539.414459 
L 503.405894 545.060404 
L 504.040779 544.172984 
L 504.675663 545.787401 
L 505.310548 546.715639 
L 505.945433 538.720887 
L 506.580317 543.662092 
L 507.850086 536.890925 
L 508.484971 526.583668 
L 509.119855 530.596287 
L 510.389624 541.965509 
L 511.024509 532.566247 
L 511.659393 545.135828 
L 512.294278 547.335295 
L 512.929162 527.177211 
L 513.564047 543.438032 
L 514.198931 529.917577 
L 514.833816 547.738278 
L 515.4687 550.129192 
L 516.103585 527.334059 
L 516.738469 537.570771 
L 517.373354 530.700104 
L 518.008238 548.404957 
L 518.643123 527.454725 
L 519.278007 545.159116 
L 519.912892 544.906132 
L 520.547776 544.066802 
L 521.182661 540.599378 
L 521.817545 546.319353 
L 522.45243 542.166599 
L 523.087314 535.600295 
L 523.722199 542.114826 
L 524.357083 540.10682 
L 525.626852 530.517923 
L 526.261737 544.83289 
L 526.896621 539.625898 
L 527.531506 543.142852 
L 528.166391 541.264906 
L 528.801275 545.398827 
L 529.43616 536.278473 
L 530.071044 539.668882 
L 530.705929 551.518125 
L 531.340813 547.766074 
L 531.975698 537.920966 
L 532.610582 550.01248 
L 533.245467 546.674639 
L 533.880351 529.504019 
L 534.515236 547.741498 
L 535.15012 545.347993 
L 535.785005 551.149043 
L 536.419889 546.222687 
L 537.054774 542.643687 
L 537.689658 517.145544 
L 538.324543 541.063967 
L 538.959427 540.128305 
L 539.594312 544.480861 
L 540.229196 547.225735 
L 540.864081 548.493654 
L 541.498965 547.66671 
L 542.13385 538.110435 
L 542.768734 536.683835 
L 543.403619 546.364125 
L 544.038503 543.459578 
L 544.673388 545.489553 
L 545.308272 548.152163 
L 545.943157 545.38719 
L 546.578041 544.02456 
L 547.212926 544.215135 
L 547.84781 543.583123 
L 548.482695 539.195551 
L 549.11758 544.442513 
L 549.752464 548.640176 
L 550.387349 550.169025 
L 551.022233 546.6897 
L 551.657118 540.411212 
L 552.292002 549.579285 
L 552.926887 522.568232 
L 553.561771 536.044777 
L 554.196656 546.880805 
L 554.83154 530.553484 
L 555.466425 539.082188 
L 556.736194 541.290118 
L 557.371078 540.203516 
L 558.005963 547.143546 
L 558.640847 541.682055 
L 559.275732 548.568797 
L 559.910616 538.953598 
L 560.545501 548.365722 
L 561.180385 544.606436 
L 561.81527 549.03775 
L 562.450154 547.746612 
L 563.085039 538.208692 
L 563.719923 538.419146 
L 564.354808 548.363382 
L 564.989692 543.41329 
L 565.624577 528.799613 
L 566.259461 538.781886 
L 566.894346 546.370019 
L 567.52923 532.461702 
L 568.164115 545.34369 
L 568.798999 537.911784 
L 569.433884 543.838818 
L 570.068768 545.857355 
L 570.703653 544.658694 
L 571.973422 548.05583 
L 572.608307 543.849909 
L 573.243191 543.524956 
L 573.878076 547.410121 
L 574.51296 540.251501 
L 575.147845 538.156813 
L 575.782729 530.897391 
L 576.417614 547.355992 
L 576.417614 547.355992 
" clip-path="url(#p802d2458ab)" style="fill: none; stroke: #ff7f0e; stroke-width: 1.5; stroke-linecap: square"/>
   </g>
   <g id="patch_3">
    <path d="M 43.78125 576.718125 
L 43.78125 22.318125 
" style="fill: none; stroke: #000000; stroke-width: 0.8; stroke-linejoin: miter; stroke-linecap: square"/>
   </g>
   <g id="patch_4">
    <path d="M 601.78125 576.718125 
L 601.78125 22.318125 
" style="fill: none; stroke: #000000; stroke-width: 0.8; stroke-linejoin: miter; stroke-linecap: square"/>
   </g>
   <g id="patch_5">
    <path d="M 43.78125 576.718125 
L 601.78125 576.718125 
" style="fill: none; stroke: #000000; stroke-width: 0.8; stroke-linejoin: miter; stroke-linecap: square"/>
   </g>
   <g id="patch_6">
    <path d="M 43.78125 22.318125 
L 601.78125 22.318125 
" style="fill: none; stroke: #000000; stroke-width: 0.8; stroke-linejoin: miter; stroke-linecap: square"/>
   </g>
   <g id="text_18">
    <!-- Train and Val Loss -->
    <g transform="translate(269.235937 16.318125) scale(0.12 -0.12)">
     <defs>
      <path id="DejaVuSans-54" d="M -19 4666 
L 3928 4666 
L 3928 4134 
L 2272 4134 
L 2272 0 
L 1638 0 
L 1638 4134 
L -19 4134 
L -19 4666 
z
" transform="scale(0.015625)"/>
      <path id="DejaVuSans-72" d="M 2631 2963 
Q 2534 3019 2420 3045 
Q 2306 3072 2169 3072 
Q 1681 3072 1420 2755 
Q 1159 2438 1159 1844 
L 1159 0 
L 581 0 
L 581 3500 
L 1159 3500 
L 1159 2956 
Q 1341 3275 1631 3429 
Q 1922 3584 2338 3584 
Q 2397 3584 2469 3576 
Q 2541 3569 2628 3553 
L 2631 2963 
z
" transform="scale(0.015625)"/>
      <path id="DejaVuSans-61" d="M 2194 1759 
Q 1497 1759 1228 1600 
Q 959 1441 959 1056 
Q 959 750 1161 570 
Q 1363 391 1709 391 
Q 2188 391 2477 730 
Q 2766 1069 2766 1631 
L 2766 1759 
L 2194 1759 
z
M 3341 1997 
L 3341 0 
L 2766 0 
L 2766 531 
Q 2569 213 2275 61 
Q 1981 -91 1556 -91 
Q 1019 -91 701 211 
Q 384 513 384 1019 
Q 384 1609 779 1909 
Q 1175 2209 1959 2209 
L 2766 2209 
L 2766 2266 
Q 2766 2663 2505 2880 
Q 2244 3097 1772 3097 
Q 1472 3097 1187 3025 
Q 903 2953 641 2809 
L 641 3341 
Q 956 3463 1253 3523 
Q 1550 3584 1831 3584 
Q 2591 3584 2966 3190 
Q 3341 2797 3341 1997 
z
" transform="scale(0.015625)"/>
      <path id="DejaVuSans-69" d="M 603 3500 
L 1178 3500 
L 1178 0 
L 603 0 
L 603 3500 
z
M 603 4863 
L 1178 4863 
L 1178 4134 
L 603 4134 
L 603 4863 
z
" transform="scale(0.015625)"/>
      <path id="DejaVuSans-6e" d="M 3513 2113 
L 3513 0 
L 2938 0 
L 2938 2094 
Q 2938 2591 2744 2837 
Q 2550 3084 2163 3084 
Q 1697 3084 1428 2787 
Q 1159 2491 1159 1978 
L 1159 0 
L 581 0 
L 581 3500 
L 1159 3500 
L 1159 2956 
Q 1366 3272 1645 3428 
Q 1925 3584 2291 3584 
Q 2894 3584 3203 3211 
Q 3513 2838 3513 2113 
z
" transform="scale(0.015625)"/>
      <path id="DejaVuSans-20" transform="scale(0.015625)"/>
      <path id="DejaVuSans-64" d="M 2906 2969 
L 2906 4863 
L 3481 4863 
L 3481 0 
L 2906 0 
L 2906 525 
Q 2725 213 2448 61 
Q 2172 -91 1784 -91 
Q 1150 -91 751 415 
Q 353 922 353 1747 
Q 353 2572 751 3078 
Q 1150 3584 1784 3584 
Q 2172 3584 2448 3432 
Q 2725 3281 2906 2969 
z
M 947 1747 
Q 947 1113 1208 752 
Q 1469 391 1925 391 
Q 2381 391 2643 752 
Q 2906 1113 2906 1747 
Q 2906 2381 2643 2742 
Q 2381 3103 1925 3103 
Q 1469 3103 1208 2742 
Q 947 2381 947 1747 
z
" transform="scale(0.015625)"/>
      <path id="DejaVuSans-56" d="M 1831 0 
L 50 4666 
L 709 4666 
L 2188 738 
L 3669 4666 
L 4325 4666 
L 2547 0 
L 1831 0 
z
" transform="scale(0.015625)"/>
      <path id="DejaVuSans-6c" d="M 603 4863 
L 1178 4863 
L 1178 0 
L 603 0 
L 603 4863 
z
" transform="scale(0.015625)"/>
     </defs>
     <use xlink:href="#DejaVuSans-54"/>
     <use xlink:href="#DejaVuSans-72" transform="translate(46.333984 0)"/>
     <use xlink:href="#DejaVuSans-61" transform="translate(87.447266 0)"/>
     <use xlink:href="#DejaVuSans-69" transform="translate(148.726562 0)"/>
     <use xlink:href="#DejaVuSans-6e" transform="translate(176.509766 0)"/>
     <use xlink:href="#DejaVuSans-20" transform="translate(239.888672 0)"/>
     <use xlink:href="#DejaVuSans-61" transform="translate(271.675781 0)"/>
     <use xlink:href="#DejaVuSans-6e" transform="translate(332.955078 0)"/>
     <use xlink:href="#DejaVuSans-64" transform="translate(396.333984 0)"/>
     <use xlink:href="#DejaVuSans-20" transform="translate(459.810547 0)"/>
     <use xlink:href="#DejaVuSans-56" transform="translate(491.597656 0)"/>
     <use xlink:href="#DejaVuSans-61" transform="translate(552.255859 0)"/>
     <use xlink:href="#DejaVuSans-6c" transform="translate(613.535156 0)"/>
     <use xlink:href="#DejaVuSans-20" transform="translate(641.318359 0)"/>
     <use xlink:href="#DejaVuSans-4c" transform="translate(673.105469 0)"/>
     <use xlink:href="#DejaVuSans-6f" transform="translate(727.068359 0)"/>
     <use xlink:href="#DejaVuSans-73" transform="translate(788.25 0)"/>
     <use xlink:href="#DejaVuSans-73" transform="translate(840.349609 0)"/>
    </g>
   </g>
   <g id="legend_1">
    <g id="patch_7">
     <path d="M 515.190625 60.230625 
L 594.78125 60.230625 
Q 596.78125 60.230625 596.78125 58.230625 
L 596.78125 29.318125 
Q 596.78125 27.318125 594.78125 27.318125 
L 515.190625 27.318125 
Q 513.190625 27.318125 513.190625 29.318125 
L 513.190625 58.230625 
Q 513.190625 60.230625 515.190625 60.230625 
z
" style="fill: #ffffff; opacity: 0.8; stroke: #cccccc; stroke-linejoin: miter"/>
    </g>
    <g id="line2d_33">
     <path d="M 517.190625 35.416563 
L 527.190625 35.416563 
L 537.190625 35.416563 
" style="fill: none; stroke: #1f77b4; stroke-width: 1.5; stroke-linecap: square"/>
    </g>
    <g id="text_19">
     <!-- train_loss -->
     <g transform="translate(545.190625 38.916563) scale(0.1 -0.1)">
      <defs>
       <path id="DejaVuSans-74" d="M 1172 4494 
L 1172 3500 
L 2356 3500 
L 2356 3053 
L 1172 3053 
L 1172 1153 
Q 1172 725 1289 603 
Q 1406 481 1766 481 
L 2356 481 
L 2356 0 
L 1766 0 
Q 1100 0 847 248 
Q 594 497 594 1153 
L 594 3053 
L 172 3053 
L 172 3500 
L 594 3500 
L 594 4494 
L 1172 4494 
z
" transform="scale(0.015625)"/>
       <path id="DejaVuSans-5f" d="M 3263 -1063 
L 3263 -1509 
L -63 -1509 
L -63 -1063 
L 3263 -1063 
z
" transform="scale(0.015625)"/>
      </defs>
      <use xlink:href="#DejaVuSans-74"/>
      <use xlink:href="#DejaVuSans-72" transform="translate(39.208984 0)"/>
      <use xlink:href="#DejaVuSans-61" transform="translate(80.322266 0)"/>
      <use xlink:href="#DejaVuSans-69" transform="translate(141.601562 0)"/>
      <use xlink:href="#DejaVuSans-6e" transform="translate(169.384766 0)"/>
      <use xlink:href="#DejaVuSans-5f" transform="translate(232.763672 0)"/>
      <use xlink:href="#DejaVuSans-6c" transform="translate(282.763672 0)"/>
      <use xlink:href="#DejaVuSans-6f" transform="translate(310.546875 0)"/>
      <use xlink:href="#DejaVuSans-73" transform="translate(371.728516 0)"/>
      <use xlink:href="#DejaVuSans-73" transform="translate(423.828125 0)"/>
     </g>
    </g>
    <g id="line2d_34">
     <path d="M 517.190625 50.372813 
L 527.190625 50.372813 
L 537.190625 50.372813 
" style="fill: none; stroke: #ff7f0e; stroke-width: 1.5; stroke-linecap: square"/>
    </g>
    <g id="text_20">
     <!-- val_loss -->
     <g transform="translate(545.190625 53.872813) scale(0.1 -0.1)">
      <defs>
       <path id="DejaVuSans-76" d="M 191 3500 
L 800 3500 
L 1894 563 
L 2988 3500 
L 3597 3500 
L 2284 0 
L 1503 0 
L 191 3500 
z
" transform="scale(0.015625)"/>
      </defs>
      <use xlink:href="#DejaVuSans-76"/>
      <use xlink:href="#DejaVuSans-61" transform="translate(59.179688 0)"/>
      <use xlink:href="#DejaVuSans-6c" transform="translate(120.458984 0)"/>
      <use xlink:href="#DejaVuSans-5f" transform="translate(148.242188 0)"/>
      <use xlink:href="#DejaVuSans-6c" transform="translate(198.242188 0)"/>
      <use xlink:href="#DejaVuSans-6f" transform="translate(226.025391 0)"/>
      <use xlink:href="#DejaVuSans-73" transform="translate(287.207031 0)"/>
      <use xlink:href="#DejaVuSans-73" transform="translate(339.306641 0)"/>
     </g>
    </g>
   </g>
  </g>
 </g>
 <defs>
  <clipPath id="p802d2458ab">
   <rect x="43.78125" y="22.318125" width="558" height="554.4"/>
  </clipPath>
 </defs>
</svg>
