<?xml version="1.0" encoding="utf-8" standalone="no"?>
<!DOCTYPE svg PUBLIC "-//W3C//DTD SVG 1.1//EN"
  "http://www.w3.org/Graphics/SVG/1.1/DTD/svg11.dtd">
<svg xmlns:xlink="http://www.w3.org/1999/xlink" width="608.98125pt" height="614.274375pt" viewBox="0 0 608.98125 614.274375" xmlns="http://www.w3.org/2000/svg" version="1.1">
 <metadata>
  <rdf:RDF xmlns:dc="http://purl.org/dc/elements/1.1/" xmlns:cc="http://creativecommons.org/ns#" xmlns:rdf="http://www.w3.org/1999/02/22-rdf-syntax-ns#">
   <cc:Work>
    <dc:type rdf:resource="http://purl.org/dc/dcmitype/StillImage"/>
    <dc:date>2026-06-04T05:50:26.847790</dc:date>
    <dc:format>image/svg+xml</dc:format>
    <dc:creator>
     <cc:Agent>
      <dc:title>Matplotlib v3.10.9, https://matplotlib.org/</dc:title>
     </cc:Agent>
    </dc:creator>
   </cc:Work>
  </rdf:RDF>
 </metadata>
 <defs>
  <style type="text/css">*{stroke-linejoin: round; stroke-linecap: butt}</style>
 </defs>
 <g id="figure_1">
  <g id="patch_1">
   <path d="M 0 614.274375 
L 608.98125 614.274375 
L 608.98125 0 
L 0 0 
z
" style="fill: #ffffff"/>
  </g>
  <g id="axes_1">
   <g id="patch_2">
    <path d="M 43.78125 576.718125 
L 601.78125 576.718125 
L 601.78125 22.318125 
L 43.78125 22.318125 
z
" style="fill: #ffffff"/>
   </g>
   <g id="matplotlib.axis_1">
    <g id="xtick_1">
     <g id="line2d_1">
      <path d="M 69.144886 576.718125 
L 69.144886 22.318125 
" clip-path="url(#peec276d141)" style="fill: none; stroke: #b0b0b0; stroke-width: 0.8; stroke-linecap: square"/>
     </g>
     <g id="line2d_2">
      <defs>
       <path id="m976e792338" d="M 0 0 
L 0 3.5 
" style="stroke: #000000; stroke-width: 0.8"/>
      </defs>
      <g>
       <use xlink:href="#m976e792338" x="69.144886" y="576.718125" style="stroke: #000000; stroke-width: 0.8"/>
      </g>
     </g>
     <g id="text_1">
      <!-- 0 -->
      <g transform="translate(65.963636 591.316563) scale(0.1 -0.1)">
       <defs>
        <path id="DejaVuSans-30" d="M 2034 4250 
Q 1547 4250 1301 3770 
Q 1056 3291 1056 2328 
Q 1056 1369 1301 889 
Q 1547 409 2034 409 
Q 2525 409 2770 889 
Q 3016 1369 3016 2328 
Q 3016 3291 2770 3770 
Q 2525 4250 2034 4250 
z
M 2034 4750 
Q 2819 4750 3233 4129 
Q 3647 3509 3647 2328 
Q 3647 1150 3233 529 
Q 2819 -91 2034 -91 
Q 1250 -91 836 529 
Q 422 1150 422 2328 
Q 422 3509 836 4129 
Q 1250 4750 2034 4750 
z
" transform="scale(0.015625)"/>
       </defs>
       <use xlink:href="#DejaVuSans-30"/>
      </g>
     </g>
    </g>
    <g id="xtick_2">
     <g id="line2d_3">
      <path d="M 132.633338 576.718125 
L 132.633338 22.318125 
" clip-path="url(#peec276d141)" style="fill: none; stroke: #b0b0b0; stroke-width: 0.8; stroke-linecap: square"/>
     </g>
     <g id="line2d_4">
      <g>
       <use xlink:href="#m976e792338" x="132.633338" y="576.718125" style="stroke: #000000; stroke-width: 0.8"/>
      </g>
     </g>
     <g id="text_2">
      <!-- 100 -->
      <g transform="translate(123.089588 591.316563) scale(0.1 -0.1)">
       <defs>
        <path id="DejaVuSans-31" d="M 794 531 
L 1825 531 
L 1825 4091 
L 703 3866 
L 703 4441 
L 1819 4666 
L 2450 4666 
L 2450 531 
L 3481 531 
L 3481 0 
L 794 0 
L 794 531 
z
" transform="scale(0.015625)"/>
       </defs>
       <use xlink:href="#DejaVuSans-31"/>
       <use xlink:href="#DejaVuSans-30" transform="translate(63.623047 0)"/>
       <use xlink:href="#DejaVuSans-30" transform="translate(127.246094 0)"/>
      </g>
     </g>
    </g>
    <g id="xtick_3">
     <g id="line2d_5">
      <path d="M 196.121789 576.718125 
L 196.121789 22.318125 
" clip-path="url(#peec276d141)" style="fill: none; stroke: #b0b0b0; stroke-width: 0.8; stroke-linecap: square"/>
     </g>
     <g id="line2d_6">
      <g>
       <use xlink:href="#m976e792338" x="196.121789" y="576.718125" style="stroke: #000000; stroke-width: 0.8"/>
      </g>
     </g>
     <g id="text_3">
      <!-- 200 -->
      <g transform="translate(186.578039 591.316563) scale(0.1 -0.1)">
       <defs>
        <path id="DejaVuSans-32" d="M 1228 531 
L 3431 531 
L 3431 0 
L 469 0 
L 469 531 
Q 828 903 1448 1529 
Q 2069 2156 2228 2338 
Q 2531 2678 2651 2914 
Q 2772 3150 2772 3378 
Q 2772 3750 2511 3984 
Q 2250 4219 1831 4219 
Q 1534 4219 1204 4116 
Q 875 4013 500 3803 
L 500 4441 
Q 881 4594 1212 4672 
Q 1544 4750 1819 4750 
Q 2544 4750 2975 4387 
Q 3406 4025 3406 3419 
Q 3406 3131 3298 2873 
Q 3191 2616 2906 2266 
Q 2828 2175 2409 1742 
Q 1991 1309 1228 531 
z
" transform="scale(0.015625)"/>
       </defs>
       <use xlink:href="#DejaVuSans-32"/>
       <use xlink:href="#DejaVuSans-30" transform="translate(63.623047 0)"/>
       <use xlink:href="#DejaVuSans-30" transform="translate(127.246094 0)"/>
      </g>
     </g>
    </g>
    <g id="xtick_4">
     <g id="line2d_7">
      <path d="M 259.610241 576.718125 
L 259.610241 22.318125 
" clip-path="url(#peec276d141)" style="fill: none; stroke: #b0b0b0; stroke-width: 0.8; stroke-linecap: square"/>
     </g>
     <g id="line2d_8">
      <g>
       <use xlink:href="#m976e792338" x="259.610241" y="576.718125" style="stroke: #000000; stroke-width: 0.8"/>
      </g>
     </g>
     <g id="text_4">
      <!-- 300 -->
      <g transform="translate(250.066491 591.316563) scale(0.1 -0.1)">
       <defs>
        <path id="DejaVuSans-33" d="M 2597 2516 
Q 3050 2419 3304 2112 
Q 3559 1806 3559 1356 
Q 3559 666 3084 287 
Q 2609 -91 1734 -91 
Q 1441 -91 1130 -33 
Q 819 25 488 141 
L 488 750 
Q 750 597 1062 519 
Q 1375 441 1716 441 
Q 2309 441 2620 675 
Q 2931 909 2931 1356 
Q 2931 1769 2642 2001 
Q 2353 2234 1838 2234 
L 1294 2234 
L 1294 2753 
L 1863 2753 
Q 2328 2753 2575 2939 
Q 2822 3125 2822 3475 
Q 2822 3834 2567 4026 
Q 2313 4219 1838 4219 
Q 1578 4219 1281 4162 
Q 984 4106 628 3988 
L 628 4550 
Q 988 4650 1302 4700 
Q 1616 4750 1894 4750 
Q 2613 4750 3031 4423 
Q 3450 4097 3450 3541 
Q 3450 3153 3228 2886 
Q 3006 2619 2597 2516 
z
" transform="scale(0.015625)"/>
       </defs>
       <use xlink:href="#DejaVuSans-33"/>
       <use xlink:href="#DejaVuSans-30" transform="translate(63.623047 0)"/>
       <use xlink:href="#DejaVuSans-30" transform="translate(127.246094 0)"/>
      </g>
     </g>
    </g>
    <g id="xtick_5">
     <g id="line2d_9">
      <path d="M 323.098692 576.718125 
L 323.098692 22.318125 
" clip-path="url(#peec276d141)" style="fill: none; stroke: #b0b0b0; stroke-width: 0.8; stroke-linecap: square"/>
     </g>
     <g id="line2d_10">
      <g>
       <use xlink:href="#m976e792338" x="323.098692" y="576.718125" style="stroke: #000000; stroke-width: 0.8"/>
      </g>
     </g>
     <g id="text_5">
      <!-- 400 -->
      <g transform="translate(313.554942 591.316563) scale(0.1 -0.1)">
       <defs>
        <path id="DejaVuSans-34" d="M 2419 4116 
L 825 1625 
L 2419 1625 
L 2419 4116 
z
M 2253 4666 
L 3047 4666 
L 3047 1625 
L 3713 1625 
L 3713 1100 
L 3047 1100 
L 3047 0 
L 2419 0 
L 2419 1100 
L 313 1100 
L 313 1709 
L 2253 4666 
z
" transform="scale(0.015625)"/>
       </defs>
       <use xlink:href="#DejaVuSans-34"/>
       <use xlink:href="#DejaVuSans-30" transform="translate(63.623047 0)"/>
       <use xlink:href="#DejaVuSans-30" transform="translate(127.246094 0)"/>
      </g>
     </g>
    </g>
    <g id="xtick_6">
     <g id="line2d_11">
      <path d="M 386.587144 576.718125 
L 386.587144 22.318125 
" clip-path="url(#peec276d141)" style="fill: none; stroke: #b0b0b0; stroke-width: 0.8; stroke-linecap: square"/>
     </g>
     <g id="line2d_12">
      <g>
       <use xlink:href="#m976e792338" x="386.587144" y="576.718125" style="stroke: #000000; stroke-width: 0.8"/>
      </g>
     </g>
     <g id="text_6">
      <!-- 500 -->
      <g transform="translate(377.043394 591.316563) scale(0.1 -0.1)">
       <defs>
        <path id="DejaVuSans-35" d="M 691 4666 
L 3169 4666 
L 3169 4134 
L 1269 4134 
L 1269 2991 
Q 1406 3038 1543 3061 
Q 1681 3084 1819 3084 
Q 2600 3084 3056 2656 
Q 3513 2228 3513 1497 
Q 3513 744 3044 326 
Q 2575 -91 1722 -91 
Q 1428 -91 1123 -41 
Q 819 9 494 109 
L 494 744 
Q 775 591 1075 516 
Q 1375 441 1709 441 
Q 2250 441 2565 725 
Q 2881 1009 2881 1497 
Q 2881 1984 2565 2268 
Q 2250 2553 1709 2553 
Q 1456 2553 1204 2497 
Q 953 2441 691 2322 
L 691 4666 
z
" transform="scale(0.015625)"/>
       </defs>
       <use xlink:href="#DejaVuSans-35"/>
       <use xlink:href="#DejaVuSans-30" transform="translate(63.623047 0)"/>
       <use xlink:href="#DejaVuSans-30" transform="translate(127.246094 0)"/>
      </g>
     </g>
    </g>
    <g id="xtick_7">
     <g id="line2d_13">
      <path d="M 450.075595 576.718125 
L 450.075595 22.318125 
" clip-path="url(#peec276d141)" style="fill: none; stroke: #b0b0b0; stroke-width: 0.8; stroke-linecap: square"/>
     </g>
     <g id="line2d_14">
      <g>
       <use xlink:href="#m976e792338" x="450.075595" y="576.718125" style="stroke: #000000; stroke-width: 0.8"/>
      </g>
     </g>
     <g id="text_7">
      <!-- 600 -->
      <g transform="translate(440.531845 591.316563) scale(0.1 -0.1)">
       <defs>
        <path id="DejaVuSans-36" d="M 2113 2584 
Q 1688 2584 1439 2293 
Q 1191 2003 1191 1497 
Q 1191 994 1439 701 
Q 1688 409 2113 409 
Q 2538 409 2786 701 
Q 3034 994 3034 1497 
Q 3034 2003 2786 2293 
Q 2538 2584 2113 2584 
z
M 3366 4563 
L 3366 3988 
Q 3128 4100 2886 4159 
Q 2644 4219 2406 4219 
Q 1781 4219 1451 3797 
Q 1122 3375 1075 2522 
Q 1259 2794 1537 2939 
Q 1816 3084 2150 3084 
Q 2853 3084 3261 2657 
Q 3669 2231 3669 1497 
Q 3669 778 3244 343 
Q 2819 -91 2113 -91 
Q 1303 -91 875 529 
Q 447 1150 447 2328 
Q 447 3434 972 4092 
Q 1497 4750 2381 4750 
Q 2619 4750 2861 4703 
Q 3103 4656 3366 4563 
z
" transform="scale(0.015625)"/>
       </defs>
       <use xlink:href="#DejaVuSans-36"/>
       <use xlink:href="#DejaVuSans-30" transform="translate(63.623047 0)"/>
       <use xlink:href="#DejaVuSans-30" transform="translate(127.246094 0)"/>
      </g>
     </g>
    </g>
    <g id="xtick_8">
     <g id="line2d_15">
      <path d="M 513.564047 576.718125 
L 513.564047 22.318125 
" clip-path="url(#peec276d141)" style="fill: none; stroke: #b0b0b0; stroke-width: 0.8; stroke-linecap: square"/>
     </g>
     <g id="line2d_16">
      <g>
       <use xlink:href="#m976e792338" x="513.564047" y="576.718125" style="stroke: #000000; stroke-width: 0.8"/>
      </g>
     </g>
     <g id="text_8">
      <!-- 700 -->
      <g transform="translate(504.020297 591.316563) scale(0.1 -0.1)">
       <defs>
        <path id="DejaVuSans-37" d="M 525 4666 
L 3525 4666 
L 3525 4397 
L 1831 0 
L 1172 0 
L 2766 4134 
L 525 4134 
L 525 4666 
z
" transform="scale(0.015625)"/>
       </defs>
       <use xlink:href="#DejaVuSans-37"/>
       <use xlink:href="#DejaVuSans-30" transform="translate(63.623047 0)"/>
       <use xlink:href="#DejaVuSans-30" transform="translate(127.246094 0)"/>
      </g>
     </g>
    </g>
    <g id="xtick_9">
     <g id="line2d_17">
      <path d="M 577.052498 576.718125 
L 577.052498 22.318125 
" clip-path="url(#peec276d141)" style="fill: none; stroke: #b0b0b0; stroke-width: 0.8; stroke-linecap: square"/>
     </g>
     <g id="line2d_18">
      <g>
       <use xlink:href="#m976e792338" x="577.052498" y="576.718125" style="stroke: #000000; stroke-width: 0.8"/>
      </g>
     </g>
     <g id="text_9">
      <!-- 800 -->
      <g transform="translate(567.508748 591.316563) scale(0.1 -0.1)">
       <defs>
        <path id="DejaVuSans-38" d="M 2034 2216 
Q 1584 2216 1326 1975 
Q 1069 1734 1069 1313 
Q 1069 891 1326 650 
Q 1584 409 2034 409 
Q 2484 409 2743 651 
Q 3003 894 3003 1313 
Q 3003 1734 2745 1975 
Q 2488 2216 2034 2216 
z
M 1403 2484 
Q 997 2584 770 2862 
Q 544 3141 544 3541 
Q 544 4100 942 4425 
Q 1341 4750 2034 4750 
Q 2731 4750 3128 4425 
Q 3525 4100 3525 3541 
Q 3525 3141 3298 2862 
Q 3072 2584 2669 2484 
Q 3125 2378 3379 2068 
Q 3634 1759 3634 1313 
Q 3634 634 3220 271 
Q 2806 -91 2034 -91 
Q 1263 -91 848 271 
Q 434 634 434 1313 
Q 434 1759 690 2068 
Q 947 2378 1403 2484 
z
M 1172 3481 
Q 1172 3119 1398 2916 
Q 1625 2713 2034 2713 
Q 2441 2713 2670 2916 
Q 2900 3119 2900 3481 
Q 2900 3844 2670 4047 
Q 2441 4250 2034 4250 
Q 1625 4250 1398 4047 
Q 1172 3844 1172 3481 
z
" transform="scale(0.015625)"/>
       </defs>
       <use xlink:href="#DejaVuSans-38"/>
       <use xlink:href="#DejaVuSans-30" transform="translate(63.623047 0)"/>
       <use xlink:href="#DejaVuSans-30" transform="translate(127.246094 0)"/>
      </g>
     </g>
    </g>
    <g id="text_10">
     <!-- Epochs -->
     <g transform="translate(304.865625 604.994688) scale(0.1 -0.1)">
      <defs>
       <path id="DejaVuSans-45" d="M 628 4666 
L 3578 4666 
L 3578 4134 
L 1259 4134 
L 1259 2753 
L 3481 2753 
L 3481 2222 
L 1259 2222 
L 1259 531 
L 3634 531 
L 3634 0 
L 628 0 
L 628 4666 
z
" transform="scale(0.015625)"/>
       <path id="DejaVuSans-70" d="M 1159 525 
L 1159 -1331 
L 581 -1331 
L 581 3500 
L 1159 3500 
L 1159 2969 
Q 1341 3281 1617 3432 
Q 1894 3584 2278 3584 
Q 2916 3584 3314 3078 
Q 3713 2572 3713 1747 
Q 3713 922 3314 415 
Q 2916 -91 2278 -91 
Q 1894 -91 1617 61 
Q 1341 213 1159 525 
z
M 3116 1747 
Q 3116 2381 2855 2742 
Q 2594 3103 2138 3103 
Q 1681 3103 1420 2742 
Q 1159 2381 1159 1747 
Q 1159 1113 1420 752 
Q 1681 391 2138 391 
Q 2594 391 2855 752 
Q 3116 1113 3116 1747 
z
" transform="scale(0.015625)"/>
       <path id="DejaVuSans-6f" d="M 1959 3097 
Q 1497 3097 1228 2736 
Q 959 2375 959 1747 
Q 959 1119 1226 758 
Q 1494 397 1959 397 
Q 2419 397 2687 759 
Q 2956 1122 2956 1747 
Q 2956 2369 2687 2733 
Q 2419 3097 1959 3097 
z
M 1959 3584 
Q 2709 3584 3137 3096 
Q 3566 2609 3566 1747 
Q 3566 888 3137 398 
Q 2709 -91 1959 -91 
Q 1206 -91 779 398 
Q 353 888 353 1747 
Q 353 2609 779 3096 
Q 1206 3584 1959 3584 
z
" transform="scale(0.015625)"/>
       <path id="DejaVuSans-63" d="M 3122 3366 
L 3122 2828 
Q 2878 2963 2633 3030 
Q 2388 3097 2138 3097 
Q 1578 3097 1268 2742 
Q 959 2388 959 1747 
Q 959 1106 1268 751 
Q 1578 397 2138 397 
Q 2388 397 2633 464 
Q 2878 531 3122 666 
L 3122 134 
Q 2881 22 2623 -34 
Q 2366 -91 2075 -91 
Q 1284 -91 818 406 
Q 353 903 353 1747 
Q 353 2603 823 3093 
Q 1294 3584 2113 3584 
Q 2378 3584 2631 3529 
Q 2884 3475 3122 3366 
z
" transform="scale(0.015625)"/>
       <path id="DejaVuSans-68" d="M 3513 2113 
L 3513 0 
L 2938 0 
L 2938 2094 
Q 2938 2591 2744 2837 
Q 2550 3084 2163 3084 
Q 1697 3084 1428 2787 
Q 1159 2491 1159 1978 
L 1159 0 
L 581 0 
L 581 4863 
L 1159 4863 
L 1159 2956 
Q 1366 3272 1645 3428 
Q 1925 3584 2291 3584 
Q 2894 3584 3203 3211 
Q 3513 2838 3513 2113 
z
" transform="scale(0.015625)"/>
       <path id="DejaVuSans-73" d="M 2834 3397 
L 2834 2853 
Q 2591 2978 2328 3040 
Q 2066 3103 1784 3103 
Q 1356 3103 1142 2972 
Q 928 2841 928 2578 
Q 928 2378 1081 2264 
Q 1234 2150 1697 2047 
L 1894 2003 
Q 2506 1872 2764 1633 
Q 3022 1394 3022 966 
Q 3022 478 2636 193 
Q 2250 -91 1575 -91 
Q 1294 -91 989 -36 
Q 684 19 347 128 
L 347 722 
Q 666 556 975 473 
Q 1284 391 1588 391 
Q 1994 391 2212 530 
Q 2431 669 2431 922 
Q 2431 1156 2273 1281 
Q 2116 1406 1581 1522 
L 1381 1569 
Q 847 1681 609 1914 
Q 372 2147 372 2553 
Q 372 3047 722 3315 
Q 1072 3584 1716 3584 
Q 2034 3584 2315 3537 
Q 2597 3491 2834 3397 
z
" transform="scale(0.015625)"/>
      </defs>
      <use xlink:href="#DejaVuSans-45"/>
      <use xlink:href="#DejaVuSans-70" transform="translate(63.183594 0)"/>
      <use xlink:href="#DejaVuSans-6f" transform="translate(126.660156 0)"/>
      <use xlink:href="#DejaVuSans-63" transform="translate(187.841797 0)"/>
      <use xlink:href="#DejaVuSans-68" transform="translate(242.822266 0)"/>
      <use xlink:href="#DejaVuSans-73" transform="translate(306.201172 0)"/>
     </g>
    </g>
   </g>
   <g id="matplotlib.axis_2">
    <g id="ytick_1">
     <g id="line2d_19">
      <path d="M 43.78125 553.679108 
L 601.78125 553.679108 
" clip-path="url(#peec276d141)" style="fill: none; stroke: #b0b0b0; stroke-width: 0.8; stroke-linecap: square"/>
     </g>
     <g id="line2d_20">
      <defs>
       <path id="ma481bd27c1" d="M 0 0 
L -3.5 0 
" style="stroke: #000000; stroke-width: 0.8"/>
      </defs>
      <g>
       <use xlink:href="#ma481bd27c1" x="43.78125" y="553.679108" style="stroke: #000000; stroke-width: 0.8"/>
      </g>
     </g>
     <g id="text_11">
      <!-- 0.0 -->
      <g transform="translate(20.878125 557.478327) scale(0.1 -0.1)">
       <defs>
        <path id="DejaVuSans-2e" d="M 684 794 
L 1344 794 
L 1344 0 
L 684 0 
L 684 794 
z
" transform="scale(0.015625)"/>
       </defs>
       <use xlink:href="#DejaVuSans-30"/>
       <use xlink:href="#DejaVuSans-2e" transform="translate(63.623047 0)"/>
       <use xlink:href="#DejaVuSans-30" transform="translate(95.410156 0)"/>
      </g>
     </g>
    </g>
    <g id="ytick_2">
     <g id="line2d_21">
      <path d="M 43.78125 443.036783 
L 601.78125 443.036783 
" clip-path="url(#peec276d141)" style="fill: none; stroke: #b0b0b0; stroke-width: 0.8; stroke-linecap: square"/>
     </g>
     <g id="line2d_22">
      <g>
       <use xlink:href="#ma481bd27c1" x="43.78125" y="443.036783" style="stroke: #000000; stroke-width: 0.8"/>
      </g>
     </g>
     <g id="text_12">
      <!-- 0.2 -->
      <g transform="translate(20.878125 446.836002) scale(0.1 -0.1)">
       <use xlink:href="#DejaVuSans-30"/>
       <use xlink:href="#DejaVuSans-2e" transform="translate(63.623047 0)"/>
       <use xlink:href="#DejaVuSans-32" transform="translate(95.410156 0)"/>
      </g>
     </g>
    </g>
    <g id="ytick_3">
     <g id="line2d_23">
      <path d="M 43.78125 332.394458 
L 601.78125 332.394458 
" clip-path="url(#peec276d141)" style="fill: none; stroke: #b0b0b0; stroke-width: 0.8; stroke-linecap: square"/>
     </g>
     <g id="line2d_24">
      <g>
       <use xlink:href="#ma481bd27c1" x="43.78125" y="332.394458" style="stroke: #000000; stroke-width: 0.8"/>
      </g>
     </g>
     <g id="text_13">
      <!-- 0.4 -->
      <g transform="translate(20.878125 336.193677) scale(0.1 -0.1)">
       <use xlink:href="#DejaVuSans-30"/>
       <use xlink:href="#DejaVuSans-2e" transform="translate(63.623047 0)"/>
       <use xlink:href="#DejaVuSans-34" transform="translate(95.410156 0)"/>
      </g>
     </g>
    </g>
    <g id="ytick_4">
     <g id="line2d_25">
      <path d="M 43.78125 221.752133 
L 601.78125 221.752133 
" clip-path="url(#peec276d141)" style="fill: none; stroke: #b0b0b0; stroke-width: 0.8; stroke-linecap: square"/>
     </g>
     <g id="line2d_26">
      <g>
       <use xlink:href="#ma481bd27c1" x="43.78125" y="221.752133" style="stroke: #000000; stroke-width: 0.8"/>
      </g>
     </g>
     <g id="text_14">
      <!-- 0.6 -->
      <g transform="translate(20.878125 225.551352) scale(0.1 -0.1)">
       <use xlink:href="#DejaVuSans-30"/>
       <use xlink:href="#DejaVuSans-2e" transform="translate(63.623047 0)"/>
       <use xlink:href="#DejaVuSans-36" transform="translate(95.410156 0)"/>
      </g>
     </g>
    </g>
    <g id="ytick_5">
     <g id="line2d_27">
      <path d="M 43.78125 111.109808 
L 601.78125 111.109808 
" clip-path="url(#peec276d141)" style="fill: none; stroke: #b0b0b0; stroke-width: 0.8; stroke-linecap: square"/>
     </g>
     <g id="line2d_28">
      <g>
       <use xlink:href="#ma481bd27c1" x="43.78125" y="111.109808" style="stroke: #000000; stroke-width: 0.8"/>
      </g>
     </g>
     <g id="text_15">
      <!-- 0.8 -->
      <g transform="translate(20.878125 114.909027) scale(0.1 -0.1)">
       <use xlink:href="#DejaVuSans-30"/>
       <use xlink:href="#DejaVuSans-2e" transform="translate(63.623047 0)"/>
       <use xlink:href="#DejaVuSans-38" transform="translate(95.410156 0)"/>
      </g>
     </g>
    </g>
    <g id="text_16">
     <!-- Accuracy -->
     <g transform="translate(14.798438 322.34625) rotate(-90) scale(0.1 -0.1)">
      <defs>
       <path id="DejaVuSans-41" d="M 2188 4044 
L 1331 1722 
L 3047 1722 
L 2188 4044 
z
M 1831 4666 
L 2547 4666 
L 4325 0 
L 3669 0 
L 3244 1197 
L 1141 1197 
L 716 0 
L 50 0 
L 1831 4666 
z
" transform="scale(0.015625)"/>
       <path id="DejaVuSans-75" d="M 544 1381 
L 544 3500 
L 1119 3500 
L 1119 1403 
Q 1119 906 1312 657 
Q 1506 409 1894 409 
Q 2359 409 2629 706 
Q 2900 1003 2900 1516 
L 2900 3500 
L 3475 3500 
L 3475 0 
L 2900 0 
L 2900 538 
Q 2691 219 2414 64 
Q 2138 -91 1772 -91 
Q 1169 -91 856 284 
Q 544 659 544 1381 
z
M 1991 3584 
L 1991 3584 
z
" transform="scale(0.015625)"/>
       <path id="DejaVuSans-72" d="M 2631 2963 
Q 2534 3019 2420 3045 
Q 2306 3072 2169 3072 
Q 1681 3072 1420 2755 
Q 1159 2438 1159 1844 
L 1159 0 
L 581 0 
L 581 3500 
L 1159 3500 
L 1159 2956 
Q 1341 3275 1631 3429 
Q 1922 3584 2338 3584 
Q 2397 3584 2469 3576 
Q 2541 3569 2628 3553 
L 2631 2963 
z
" transform="scale(0.015625)"/>
       <path id="DejaVuSans-61" d="M 2194 1759 
Q 1497 1759 1228 1600 
Q 959 1441 959 1056 
Q 959 750 1161 570 
Q 1363 391 1709 391 
Q 2188 391 2477 730 
Q 2766 1069 2766 1631 
L 2766 1759 
L 2194 1759 
z
M 3341 1997 
L 3341 0 
L 2766 0 
L 2766 531 
Q 2569 213 2275 61 
Q 1981 -91 1556 -91 
Q 1019 -91 701 211 
Q 384 513 384 1019 
Q 384 1609 779 1909 
Q 1175 2209 1959 2209 
L 2766 2209 
L 2766 2266 
Q 2766 2663 2505 2880 
Q 2244 3097 1772 3097 
Q 1472 3097 1187 3025 
Q 903 2953 641 2809 
L 641 3341 
Q 956 3463 1253 3523 
Q 1550 3584 1831 3584 
Q 2591 3584 2966 3190 
Q 3341 2797 3341 1997 
z
" transform="scale(0.015625)"/>
       <path id="DejaVuSans-79" d="M 2059 -325 
Q 1816 -950 1584 -1140 
Q 1353 -1331 966 -1331 
L 506 -1331 
L 506 -850 
L 844 -850 
Q 1081 -850 1212 -737 
Q 1344 -625 1503 -206 
L 1606 56 
L 191 3500 
L 800 3500 
L 1894 763 
L 2988 3500 
L 3597 3500 
L 2059 -325 
z
" transform="scale(0.015625)"/>
      </defs>
      <use xlink:href="#DejaVuSans-41"/>
      <use xlink:href="#DejaVuSans-63" transform="translate(66.658203 0)"/>
      <use xlink:href="#DejaVuSans-63" transform="translate(121.638672 0)"/>
      <use xlink:href="#DejaVuSans-75" transform="translate(176.619141 0)"/>
      <use xlink:href="#DejaVuSans-72" transform="translate(239.998047 0)"/>
      <use xlink:href="#DejaVuSans-61" transform="translate(281.111328 0)"/>
      <use xlink:href="#DejaVuSans-63" transform="translate(342.390625 0)"/>
      <use xlink:href="#DejaVuSans-79" transform="translate(397.371094 0)"/>
     </g>
    </g>
   </g>
   <g id="line2d_29">
    <path d="M 69.144886 285.915467 
L 69.779771 237.100685 
L 70.414655 223.185862 
L 71.04954 214.677157 
L 71.684424 202.30367 
L 72.319309 185.682738 
L 72.954193 172.711466 
L 73.589078 165.109413 
L 74.858847 153.459705 
L 75.493732 149.823862 
L 77.398385 144.276385 
L 78.03327 142.705867 
L 78.668154 142.018986 
L 79.937923 140.076588 
L 80.572808 139.65861 
L 81.207692 138.384693 
L 81.842577 138.220252 
L 82.477461 137.754626 
L 83.112346 136.861823 
L 83.74723 136.53604 
L 84.382115 136.059665 
L 85.016999 135.00242 
L 85.651884 134.922491 
L 86.286768 134.501446 
L 86.921653 133.679306 
L 87.556537 133.545629 
L 88.191422 133.067704 
L 88.826306 132.973959 
L 89.461191 132.480669 
L 90.73096 132.552915 
L 91.365844 132.021209 
L 92.000729 131.718475 
L 92.635613 131.638579 
L 93.270498 130.922483 
L 93.905382 131.315863 
L 95.175151 131.220601 
L 96.44492 131.013128 
L 97.079805 130.280117 
L 97.71469 130.077294 
L 98.349574 130.02658 
L 98.984459 129.663899 
L 100.254228 129.983549 
L 100.889112 130.057312 
L 101.523997 129.845256 
L 102.158881 129.376564 
L 102.793766 129.385764 
L 103.42865 129.545588 
L 104.063535 129.049231 
L 104.698419 126.616641 
L 105.333304 125.1706 
L 105.968188 124.972361 
L 106.603073 123.995045 
L 107.872842 122.75951 
L 108.507726 122.767193 
L 109.142611 121.86054 
L 109.777495 121.922037 
L 111.047264 121.530174 
L 111.682149 121.766828 
L 112.317033 121.185958 
L 114.221687 121.318085 
L 114.856571 121.505575 
L 115.491456 121.0292 
L 117.396109 120.84481 
L 118.030994 120.654253 
L 118.665879 120.732632 
L 119.300763 120.44988 
L 119.935648 120.612739 
L 121.205417 120.282372 
L 121.840301 120.44988 
L 122.475186 120.279306 
L 123.11007 119.993454 
L 123.744955 120.283889 
L 124.379839 119.956589 
L 125.014724 119.796765 
L 125.649608 119.928924 
L 126.284493 119.543228 
L 126.919377 119.535545 
L 127.554262 119.291207 
L 128.189146 119.277358 
L 128.824031 118.903961 
L 129.458915 118.905478 
L 130.0938 118.784068 
L 130.728684 118.438335 
L 131.363569 118.681123 
L 132.633338 117.932745 
L 133.268222 117.915863 
L 133.903107 117.680725 
L 134.537991 117.666909 
L 135.172876 117.488652 
L 135.80776 117.044525 
L 136.442645 117.116771 
L 137.077529 116.772556 
L 137.712414 115.942733 
L 138.347298 116.18707 
L 138.982183 115.979597 
L 139.617067 115.976531 
L 140.251952 115.403344 
L 140.886837 115.205105 
L 141.521721 114.794809 
L 142.156606 114.524357 
L 142.79149 114.498241 
L 144.696144 113.135163 
L 145.331028 112.786331 
L 145.965913 112.243876 
L 146.600797 112.045669 
L 147.235682 111.633824 
L 147.870566 111.578494 
L 148.505451 110.773269 
L 149.140335 110.648793 
L 151.044989 109.099807 
L 151.679873 108.336063 
L 152.314758 107.129743 
L 153.584527 106.470527 
L 154.219411 105.944955 
L 154.854296 105.065968 
L 155.48918 104.638757 
L 156.124065 104.06712 
L 156.758949 102.879265 
L 157.393834 102.395174 
L 158.663603 100.54807 
L 159.298487 100.214605 
L 159.933372 99.404764 
L 160.568256 99.214207 
L 161.203141 98.342902 
L 162.47291 97.952589 
L 163.742679 97.430117 
L 164.377564 96.849247 
L 165.012448 97.038254 
L 166.282217 95.659842 
L 166.917102 95.140436 
L 167.551986 94.811587 
L 168.186871 94.097008 
L 169.45664 93.357863 
L 170.091524 93.03208 
L 170.726409 92.930652 
L 171.361293 92.070097 
L 172.631062 91.083548 
L 173.265947 90.330554 
L 174.535716 89.597576 
L 175.805485 87.370876 
L 176.440369 86.525687 
L 177.075254 86.233735 
L 177.710138 85.771176 
L 178.345023 85.032031 
L 178.979907 83.567558 
L 179.614792 82.965156 
L 180.249676 82.811497 
L 180.884561 82.24906 
L 181.519445 81.445385 
L 182.15433 81.563696 
L 183.424099 80.77997 
L 184.058984 80.460353 
L 184.693868 80.403506 
L 185.328753 80.618629 
L 185.963637 80.007027 
L 187.233406 79.813404 
L 187.868291 79.270949 
L 189.13806 79.164905 
L 189.772944 78.848354 
L 190.407829 78.94055 
L 191.042713 78.187556 
L 191.677598 78.419627 
L 192.947367 77.903287 
L 193.582251 77.532923 
L 194.217136 77.904804 
L 195.486905 77.331617 
L 196.121789 77.250171 
L 196.756674 77.296269 
L 197.391558 76.804528 
L 198.026443 76.832193 
L 198.661327 76.280538 
L 199.296212 76.411148 
L 201.200865 75.16028 
L 201.83575 75.060402 
L 202.470634 74.837564 
L 203.740403 74.159883 
L 204.375288 74.316641 
L 205.010173 73.892497 
L 206.914826 73.297778 
L 207.549711 73.260913 
L 208.184595 72.787604 
L 208.81948 72.474121 
L 209.454364 72.698476 
L 210.089249 72.010045 
L 211.359018 71.98393 
L 211.993902 71.633548 
L 212.628787 71.676579 
L 214.53344 70.855989 
L 215.168325 70.849822 
L 215.803209 70.722279 
L 216.438094 70.198257 
L 217.072978 70.230538 
L 217.707863 70.474875 
L 218.342747 70.19519 
L 218.977632 69.677334 
L 219.612516 70.049214 
L 220.882285 69.568223 
L 221.51717 69.755713 
L 222.152054 69.279338 
L 222.786939 69.316203 
L 223.421823 69.053433 
L 224.056708 69.085714 
L 224.691592 69.247056 
L 225.326477 68.962754 
L 225.961362 68.526344 
L 226.596246 68.762998 
L 227.231131 68.567825 
L 227.866015 68.000804 
L 228.5009 68.226676 
L 229.135784 68.136031 
L 229.770669 67.84098 
L 230.405553 67.704203 
L 231.040438 68.005388 
L 231.675322 67.435301 
L 232.945091 67.69807 
L 233.579976 66.938943 
L 234.21486 66.946626 
L 234.849745 66.588562 
L 235.484629 66.923577 
L 236.119514 66.834449 
L 237.389283 66.402621 
L 238.024167 66.244346 
L 238.659052 66.373439 
L 241.19859 65.393024 
L 241.833474 65.53745 
L 242.468359 65.529767 
L 243.103243 65.14562 
L 243.738128 64.938148 
L 244.373012 64.95658 
L 245.007897 64.612365 
L 246.277666 64.263533 
L 246.91255 63.960799 
L 248.18232 63.061829 
L 248.817204 63.127909 
L 250.086973 62.347283 
L 250.721858 62.155177 
L 251.991627 61.216276 
L 252.626511 61.076433 
L 253.261396 61.099482 
L 253.89628 60.766016 
L 254.531165 60.581625 
L 255.166049 60.583142 
L 256.435818 60.163614 
L 257.705587 59.811716 
L 258.975356 59.811716 
L 259.610241 60.029938 
L 260.245125 59.220097 
L 260.88001 59.209347 
L 261.514894 59.687239 
L 262.149779 59.074121 
L 263.419548 59.08487 
L 264.054432 58.726806 
L 264.689317 58.533183 
L 265.324201 58.901997 
L 265.959086 58.520883 
L 266.59397 58.714507 
L 267.228855 58.739105 
L 267.863739 58.364158 
L 270.403278 58.015326 
L 271.038162 58.147486 
L 271.673047 58.102905 
L 272.307931 58.199717 
L 272.942816 57.873934 
L 273.5777 57.940014 
L 274.212585 57.568133 
L 274.847469 57.419091 
L 275.482354 57.804787 
L 276.117238 57.474421 
L 276.752123 57.717209 
L 277.387007 57.838619 
L 278.656776 57.420608 
L 281.196314 57.419091 
L 281.831199 57.100991 
L 282.466083 57.226984 
L 283.100968 56.892002 
L 283.735852 57.005696 
L 285.005621 56.950399 
L 286.27539 56.825922 
L 286.910275 56.741409 
L 287.545159 56.867403 
L 290.084697 56.569285 
L 290.719582 56.747543 
L 291.354467 56.312649 
L 291.989351 56.775208 
L 292.624236 56.349547 
L 293.25912 56.764458 
L 293.894005 56.747543 
L 294.528889 56.166673 
L 295.163774 56.418693 
L 295.798658 56.025314 
L 296.433543 56.35568 
L 298.338196 55.959234 
L 298.973081 56.384895 
L 299.607965 56.171289 
L 300.24285 56.208154 
L 300.877734 56.377212 
L 302.147503 55.945385 
L 303.417272 56.115959 
L 304.052157 55.913103 
L 305.321926 56.023764 
L 305.95681 55.84244 
L 306.591695 55.837823 
L 307.226579 55.618085 
L 307.861464 55.845506 
L 308.496348 55.696431 
L 309.131233 56.052946 
L 309.766117 55.264637 
L 310.401002 55.552005 
L 311.035886 55.614985 
L 311.670771 55.550455 
L 312.305656 55.303051 
L 312.94054 55.382947 
L 313.575425 55.713347 
L 314.210309 55.32455 
L 314.845194 55.355282 
L 315.480078 55.249271 
L 316.114963 55.359899 
L 316.749847 55.126344 
L 317.384732 55.512041 
L 318.654501 55.184708 
L 319.92427 55.014133 
L 320.559154 55.315351 
L 321.194039 54.87739 
L 321.828923 55.024916 
L 322.463808 54.656102 
L 323.098692 54.998768 
L 324.368461 54.834359 
L 325.63823 54.806694 
L 326.273115 54.978818 
L 327.542884 54.7022 
L 328.812653 54.835909 
L 329.447537 54.414831 
L 330.717306 54.794395 
L 331.987075 54.43943 
L 333.256844 54.365667 
L 333.891729 54.585406 
L 334.526614 54.213525 
L 335.161498 54.533175 
L 335.796383 54.367184 
L 336.431267 54.649936 
L 337.066152 54.545441 
L 337.701036 54.233507 
L 338.335921 54.361051 
L 338.970805 54.302654 
L 340.240574 54.004536 
L 341.510343 54.520876 
L 342.780112 53.900041 
L 344.049881 54.17666 
L 345.31965 54.059866 
L 345.954535 54.221208 
L 346.589419 54.052183 
L 347.224304 53.643405 
L 347.859188 54.284221 
L 349.128957 53.880059 
L 349.763842 54.079849 
L 350.398726 54.030651 
L 351.033611 53.823212 
L 351.668495 53.818596 
L 352.30338 53.495879 
L 352.938264 54.109031 
L 353.573149 53.758682 
L 354.842918 53.591174 
L 355.477803 53.754066 
L 356.112687 53.422117 
L 356.747572 53.920024 
L 358.017341 53.543527 
L 358.652225 53.646472 
L 359.28711 53.478997 
L 359.921994 53.760199 
L 360.556879 53.472831 
L 361.191763 53.638789 
L 363.096417 53.400618 
L 363.731301 53.518928 
L 365.00107 53.231593 
L 366.270839 53.743316 
L 366.905724 52.83973 
L 367.540608 53.356037 
L 368.175493 53.160897 
L 369.445262 53.228493 
L 370.080146 53.03797 
L 370.715031 53.317622 
L 372.619684 52.964207 
L 373.889453 53.385252 
L 374.524338 53.27769 
L 375.159222 52.83973 
L 375.794107 52.855096 
L 376.428991 53.431349 
L 377.063876 52.881211 
L 377.698761 53.099433 
L 378.333645 52.66299 
L 378.96853 52.762901 
L 379.603414 53.228493 
L 380.238299 52.632258 
L 380.873183 53.511245 
L 381.508068 52.635324 
L 382.142952 52.913493 
L 382.777837 52.876595 
L 383.412721 52.984156 
L 384.68249 52.801315 
L 385.317375 53.114799 
L 386.587144 52.744435 
L 387.222028 53.010304 
L 387.856913 52.713704 
L 388.491797 53.014921 
L 389.761566 52.689138 
L 391.031335 52.696821 
L 391.66622 52.947291 
L 392.301104 52.446317 
L 394.205758 53.011821 
L 394.840642 52.730619 
L 395.475527 53.111732 
L 396.110411 52.483215 
L 396.745296 52.726003 
L 397.38018 52.825881 
L 398.015065 52.789016 
L 398.64995 52.481666 
L 399.284834 52.501648 
L 399.919719 52.856613 
L 401.189488 52.349506 
L 401.824372 52.517014 
L 403.094141 52.510881 
L 403.729026 52.412519 
L 404.36391 52.686038 
L 404.998795 52.664539 
L 405.633679 52.438635 
L 406.268564 52.693721 
L 407.538333 52.423269 
L 408.173217 52.699887 
L 408.808102 52.292659 
L 409.442986 52.66299 
L 410.077871 52.39102 
L 410.712755 52.281909 
L 412.617409 52.503198 
L 413.887178 52.223512 
L 414.522062 52.669156 
L 415.156947 51.980692 
L 415.791831 52.317257 
L 417.696485 52.435568 
L 418.331369 52.234262 
L 418.966254 52.317257 
L 419.601138 52.211213 
L 420.870908 52.240395 
L 422.140677 52.301891 
L 422.775561 51.89618 
L 424.04533 52.183548 
L 425.315099 52.151266 
L 425.949984 52.33569 
L 426.584868 52.232712 
L 427.219753 51.943827 
L 427.854637 52.331073 
L 428.489522 52.100552 
L 429.759291 52.351056 
L 430.394175 52.032956 
L 431.02906 52.218896 
L 432.298829 51.845466 
L 432.933713 52.191231 
L 433.568598 52.07292 
L 434.203482 52.206597 
L 434.838367 52.114401 
L 435.473251 52.317257 
L 436.108136 51.977625 
L 438.012789 52.374104 
L 438.647674 51.997608 
L 439.282558 52.060621 
L 440.552327 51.550414 
L 441.187212 52.012973 
L 441.822097 51.900796 
L 442.456981 51.656459 
L 443.091866 52.008357 
L 443.72675 52.063687 
L 444.361635 51.891563 
L 444.996519 52.168182 
L 445.631404 51.828583 
L 446.266288 52.063687 
L 446.901173 51.913095 
L 447.536057 52.092869 
L 448.805826 51.882363 
L 449.440711 52.025273 
L 450.075595 51.916162 
L 451.345364 52.191231 
L 452.615133 51.836266 
L 453.250018 51.834716 
L 453.884902 52.008357 
L 454.519787 51.957643 
L 455.154671 52.037572 
L 455.789556 51.366024 
L 456.42444 51.776319 
L 457.059325 51.866998 
L 457.694209 52.154366 
L 458.963978 51.808601 
L 459.598863 52.092869 
L 460.233747 51.714856 
L 462.773285 51.773253 
L 463.40817 51.449019 
L 464.043055 51.931528 
L 464.677939 51.618044 
L 465.312824 51.579629 
L 465.947708 51.710239 
L 466.582593 51.63186 
L 467.217477 51.803984 
L 468.487246 51.527366 
L 469.122131 51.823967 
L 469.757015 51.201616 
L 470.3919 51.882363 
L 471.026784 51.790168 
L 472.296553 51.903862 
L 472.931438 51.618044 
L 473.566322 51.788618 
L 474.201207 51.720989 
L 474.836091 51.914612 
L 475.470976 51.561197 
L 476.10586 51.791685 
L 476.740745 51.625727 
L 477.375629 51.799368 
L 478.010514 51.427487 
L 479.280283 51.63186 
L 479.915167 51.392139 
L 480.550052 51.704106 
L 481.184936 51.518166 
L 481.819821 51.522782 
L 482.454705 51.309177 
L 483.08959 51.293811 
L 483.724474 51.650326 
L 485.629128 51.516616 
L 486.264013 51.598062 
L 486.898897 51.893113 
L 487.533782 51.404439 
L 488.168666 51.611911 
L 488.803551 51.490501 
L 489.438435 51.707173 
L 490.07332 51.353725 
L 490.708204 51.524299 
L 491.343089 51.170851 
L 492.612858 51.332226 
L 493.882627 51.493567 
L 494.517511 51.181633 
L 495.152396 51.481268 
L 495.78728 51.63496 
L 496.422165 51.344525 
L 497.057049 51.469002 
L 497.691934 51.235414 
L 498.326818 51.674891 
L 498.961703 51.604228 
L 499.596587 51.647226 
L 500.231472 51.516616 
L 500.866356 51.551964 
L 501.501241 51.252297 
L 502.136125 51.17395 
L 503.405894 51.469002 
L 504.040779 51.319926 
L 504.675663 51.047924 
L 505.310548 51.681057 
L 505.945433 51.253846 
L 506.580317 51.352208 
L 507.215202 51.273829 
L 508.484971 51.481268 
L 509.119855 51.024875 
L 509.75474 51.387556 
L 510.389624 51.130919 
L 511.659393 51.427487 
L 512.294278 51.166267 
L 512.929162 51.433654 
L 513.564047 51.56733 
L 514.198931 51.307627 
L 514.833816 51.284578 
L 515.4687 51.455153 
L 516.103585 51.187767 
L 518.008238 51.296877 
L 518.643123 51.395239 
L 519.278007 51.201616 
L 519.912892 51.470518 
L 520.547776 51.015675 
L 521.817545 51.336842 
L 522.45243 51.110937 
L 524.357083 51.218498 
L 525.626852 50.788221 
L 526.261737 51.25078 
L 526.896621 50.888099 
L 528.166391 51.246163 
L 528.801275 51.037174 
L 530.705929 51.084822 
L 531.340813 50.968028 
L 531.975698 51.342975 
L 532.610582 50.911148 
L 533.245467 51.227731 
L 535.785005 51.160101 
L 536.419889 50.8666 
L 537.054774 51.216981 
L 537.689658 51.144735 
L 538.324543 50.935746 
L 538.959427 51.143219 
L 539.594312 51.094021 
L 540.229196 51.175467 
L 540.864081 50.941913 
L 543.403619 51.067906 
L 545.943157 50.702159 
L 546.578041 51.083272 
L 547.84781 50.912698 
L 548.482695 50.914247 
L 549.11758 51.034108 
L 552.926887 51.077139 
L 553.561771 51.223115 
L 554.196656 50.769788 
L 554.83154 50.926547 
L 555.466425 50.935746 
L 556.101309 50.743673 
L 556.736194 50.755972 
L 557.371078 50.891199 
L 558.005963 51.203132 
L 558.640847 51.12017 
L 559.910616 50.666844 
L 560.545501 50.878899 
L 561.180385 51.255396 
L 561.81527 50.740606 
L 562.450154 50.949595 
L 563.719923 50.527001 
L 564.989692 50.924997 
L 565.624577 50.777471 
L 566.259461 50.390225 
L 566.894346 50.697575 
L 567.52923 50.831252 
L 568.164115 51.283028 
L 568.798999 50.685276 
L 569.433884 50.706775 
L 570.068768 50.571549 
L 570.703653 50.875833 
L 572.608307 50.981844 
L 573.243191 50.540817 
L 573.878076 50.694476 
L 574.51296 51.05254 
L 575.147845 50.571549 
L 575.782729 50.73599 
L 576.417614 50.543884 
L 576.417614 50.543884 
" clip-path="url(#peec276d141)" style="fill: none; stroke: #1f77b4; stroke-width: 1.5; stroke-linecap: square"/>
   </g>
   <g id="line2d_30">
    <path d="M 69.144886 246.978569 
L 69.779771 232.73338 
L 70.414655 215.971056 
L 71.04954 209.595305 
L 72.319309 177.633492 
L 72.954193 169.210849 
L 73.589078 159.128592 
L 74.223962 157.441281 
L 74.858847 154.27413 
L 75.493732 147.621761 
L 76.128616 149.599507 
L 76.763501 149.018637 
L 77.398385 140.858764 
L 78.03327 143.707815 
L 78.668154 139.08849 
L 79.303039 140.858764 
L 79.937923 139.434255 
L 80.572808 136.778827 
L 81.207692 140.347041 
L 81.842577 137.511839 
L 83.112346 137.207555 
L 83.74723 135.630904 
L 84.382115 134.704269 
L 85.016999 136.363915 
L 85.651884 133.528714 
L 86.286768 137.401178 
L 86.921653 134.317023 
L 87.556537 133.169132 
L 88.191422 132.864848 
L 88.826306 138.13419 
L 89.461191 132.837183 
L 90.096075 137.580985 
L 90.73096 134.731934 
L 91.365844 133.196797 
L 92.000729 135.520276 
L 92.635613 131.689293 
L 93.270498 132.173351 
L 93.905382 133.348906 
L 94.540267 133.445718 
L 95.175151 133.362756 
L 95.810036 134.164914 
L 96.44492 132.201016 
L 97.079805 131.550967 
L 97.71469 132.491451 
L 98.349574 130.513705 
L 98.984459 131.481821 
L 99.619343 131.149905 
L 100.254228 131.025428 
L 100.889112 130.555186 
L 101.523997 130.831805 
L 102.158881 132.422272 
L 102.793766 131.993544 
L 103.42865 130.209454 
L 104.063535 130.167939 
L 104.698419 130.347746 
L 105.333304 129.462593 
L 105.968188 126.986972 
L 106.603073 125.562463 
L 107.237957 127.014637 
L 107.872842 124.663494 
L 108.507726 122.893219 
L 109.142611 124.552866 
L 109.777495 123.598566 
L 110.41238 120.362268 
L 111.047264 122.146392 
L 111.682149 122.602785 
L 112.317033 123.349612 
L 112.951918 127.706168 
L 113.586802 120.472929 
L 114.221687 122.87937 
L 114.856571 127.22211 
L 115.491456 124.884782 
L 116.12634 125.590128 
L 116.761225 120.984652 
L 117.396109 125.064556 
L 118.030994 122.215538 
L 118.665879 122.575119 
L 119.300763 122.395312 
L 119.935648 123.100659 
L 120.570532 117.651543 
L 121.205417 126.64124 
L 121.840301 122.298501 
L 122.475186 123.142173 
L 123.11007 123.363461 
L 123.744955 122.547454 
L 124.379839 122.575119 
L 125.014724 124.082624 
L 125.649608 120.320787 
L 126.284493 121.703815 
L 126.919377 120.071834 
L 127.554262 120.389934 
L 128.824031 122.008066 
L 129.458915 120.984652 
L 130.0938 118.771801 
L 130.728684 123.100659 
L 131.363569 122.008066 
L 131.998453 116.309997 
L 132.633338 122.713412 
L 133.268222 121.565522 
L 133.903107 120.044168 
L 134.537991 117.997308 
L 135.172876 118.481366 
L 135.80776 118.647325 
L 136.442645 116.697243 
L 137.077529 119.283525 
L 137.712414 118.301559 
L 138.347298 116.033378 
L 138.982183 115.715311 
L 139.617067 118.92391 
L 140.251952 120.306938 
L 140.886837 116.13019 
L 141.521721 116.074892 
L 142.156606 117.056824 
L 142.79149 119.518629 
L 143.426375 117.941978 
L 144.061259 112.54816 
L 144.696144 122.492124 
L 145.965913 112.28539 
L 146.600797 114.263104 
L 147.235682 118.09412 
L 147.870566 115.452508 
L 148.505451 111.427902 
L 149.140335 110.791702 
L 149.77522 118.398371 
L 150.410104 109.712958 
L 151.044989 110.05869 
L 151.679873 111.33109 
L 152.314758 108.440558 
L 152.949642 107.458626 
L 153.584527 107.652249 
L 154.219411 106.545807 
L 154.854296 105.010637 
L 155.48918 107.970316 
L 156.124065 104.388286 
L 156.758949 101.912666 
L 157.393834 103.779752 
L 158.028718 101.248801 
L 158.663603 99.326384 
L 159.298487 102.341393 
L 159.933372 97.390152 
L 160.568256 100.889219 
L 161.203141 99.851957 
L 161.838026 104.706386 
L 162.47291 98.081683 
L 163.107795 95.924162 
L 164.377564 96.781617 
L 165.012448 97.929541 
L 165.647333 95.689024 
L 166.282217 95.301778 
L 166.917102 95.619878 
L 167.551986 94.776239 
L 168.186871 93.545353 
L 168.821755 101.165838 
L 169.45664 97.085901 
L 170.091524 94.23685 
L 170.726409 94.693243 
L 171.361293 91.332502 
L 171.996178 93.849604 
L 172.631062 94.23685 
L 173.265947 92.369764 
L 173.900831 89.866479 
L 174.535716 90.820779 
L 175.1706 93.324064 
L 175.805485 86.975946 
L 176.440369 86.450407 
L 177.075254 90.558009 
L 177.710138 87.128088 
L 178.345023 82.674721 
L 178.979907 85.758877 
L 179.614792 81.775752 
L 180.884561 83.947121 
L 181.519445 82.813047 
L 182.15433 82.619424 
L 182.789215 84.099263 
L 183.424099 83.960937 
L 184.058984 84.500326 
L 184.693868 80.268247 
L 185.328753 79.562901 
L 185.963637 79.742708 
L 186.598522 81.526831 
L 187.233406 83.712017 
L 187.868291 80.669343 
L 188.503175 79.341645 
L 189.13806 82.882193 
L 189.772944 79.867184 
L 190.407829 80.005477 
L 191.042713 82.68857 
L 191.677598 79.424608 
L 192.312482 77.322417 
L 192.947367 80.005477 
L 193.582251 86.173788 
L 194.217136 78.027764 
L 194.85202 77.695815 
L 195.486905 79.742708 
L 196.121789 76.492594 
L 196.756674 78.09691 
L 197.391558 81.41617 
L 198.026443 76.368117 
L 198.661327 77.599003 
L 199.296212 81.706605 
L 199.931096 78.871403 
L 200.565981 78.387345 
L 201.200865 72.744573 
L 201.83575 74.653173 
L 202.470634 76.948987 
L 203.105519 77.72348 
L 203.740403 80.517201 
L 205.010173 70.946634 
L 205.645057 72.952046 
L 206.279942 74.418036 
L 207.549711 75.275524 
L 208.184595 74.708471 
L 208.81948 70.365764 
L 209.454364 75.234043 
L 210.089249 72.288181 
L 210.724133 75.884059 
L 211.359018 73.989308 
L 211.993902 72.716908 
L 212.628787 72.412657 
L 213.263671 70.476425 
L 213.898556 72.938197 
L 214.53344 68.471013 
L 215.168325 71.734976 
L 215.803209 70.296618 
L 216.438094 70.656199 
L 217.072978 74.556362 
L 217.707863 71.734976 
L 218.342747 70.407279 
L 218.977632 69.826376 
L 219.612516 75.068085 
L 220.247401 70.44876 
L 220.882285 72.661611 
L 221.51717 70.794525 
L 222.152054 71.472206 
L 222.786939 69.577455 
L 223.421823 69.411497 
L 224.056708 68.166762 
L 224.691592 70.836006 
L 225.326477 70.642383 
L 225.961362 71.513688 
L 226.596246 67.807181 
L 227.231131 69.425313 
L 227.866015 75.441482 
L 228.5009 67.143316 
L 229.135784 67.973139 
L 229.770669 66.949693 
L 230.405553 67.724186 
L 231.040438 65.497519 
L 231.675322 67.724186 
L 232.310207 74.40422 
L 233.579976 66.783735 
L 234.21486 69.23169 
L 234.849745 69.978518 
L 235.484629 68.125281 
L 236.119514 67.986955 
L 236.754398 64.861319 
L 237.389283 72.011562 
L 238.024167 67.419935 
L 238.659052 66.603928 
L 239.293936 68.042286 
L 239.928821 63.907019 
L 240.563705 67.682704 
L 241.19859 67.599709 
L 241.833474 64.460223 
L 242.468359 72.965862 
L 243.103243 65.442188 
L 243.738128 67.655039 
L 244.373012 69.356167 
L 245.007897 65.386858 
L 245.642781 67.309274 
L 246.277666 66.728404 
L 246.91255 64.598549 
L 247.547435 63.893202 
L 248.18232 67.779516 
L 248.817204 65.746439 
L 249.452089 61.984602 
L 250.086973 67.350755 
L 250.721858 64.460223 
L 251.356742 60.643089 
L 251.991627 62.759128 
L 252.626511 62.80061 
L 253.261396 60.076035 
L 253.89628 61.237775 
L 254.531165 66.216681 
L 255.800934 60.159031 
L 256.435818 63.671914 
L 257.070703 59.218547 
L 257.705587 61.071817 
L 258.340472 61.790979 
L 258.975356 58.222766 
L 259.610241 58.872815 
L 260.245125 61.625021 
L 261.514894 59.246212 
L 262.149779 60.62924 
L 262.784663 63.602768 
L 263.419548 60.449466 
L 264.054432 60.089851 
L 264.689317 57.088691 
L 265.324201 61.694168 
L 265.959086 61.472879 
L 267.228855 64.418742 
L 267.863739 59.09407 
L 268.498624 57.36531 
L 269.133509 59.190882 
L 269.768393 63.741061 
L 270.403278 57.434457 
L 271.673047 62.012268 
L 272.307931 55.263087 
L 272.942816 59.190882 
L 273.5777 56.99188 
L 274.212585 58.693008 
L 274.847469 62.122928 
L 275.482354 56.507822 
L 276.117238 57.973845 
L 276.752123 55.843957 
L 277.387007 64.197453 
L 278.021892 58.361092 
L 278.656776 58.416389 
L 279.291661 56.535487 
L 279.926545 56.99188 
L 280.56143 60.034554 
L 281.196314 55.71948 
L 281.831199 57.738708 
L 282.466083 55.982282 
L 283.100968 59.246212 
L 283.735852 68.042286 
L 284.370737 56.784441 
L 285.005621 58.1951 
L 285.640506 59.135584 
L 286.27539 57.074875 
L 287.545159 63.533621 
L 288.180044 58.444054 
L 288.814928 58.333426 
L 289.449813 63.990014 
L 290.084697 57.62808 
L 290.719582 61.860159 
L 291.354467 60.159031 
L 291.989351 60.919675 
L 292.624236 58.402573 
L 293.25912 56.61845 
L 293.894005 59.16325 
L 294.528889 56.646115 
L 295.163774 58.305761 
L 295.798658 58.153619 
L 296.433543 67.668855 
L 297.068427 54.447113 
L 297.703312 54.751364 
L 298.338196 54.018385 
L 298.973081 55.954617 
L 299.607965 55.069464 
L 300.24285 56.922733 
L 301.512619 58.831301 
L 302.147503 58.388757 
L 302.782388 68.484862 
L 303.417272 56.383345 
L 304.052157 61.32077 
L 304.687041 56.369529 
L 305.321926 62.620802 
L 305.95681 54.792878 
L 306.591695 57.171687 
L 307.226579 57.351461 
L 307.861464 61.140963 
L 308.496348 55.71948 
L 309.131233 53.783248 
L 309.766117 57.904666 
L 310.401002 56.715261 
L 311.035886 59.757935 
L 311.670771 61.998452 
L 312.305656 60.767566 
L 312.94054 54.585406 
L 313.575425 57.752557 
L 314.210309 58.278096 
L 314.845194 55.581187 
L 315.480078 58.20895 
L 316.114963 56.424826 
L 316.749847 59.177066 
L 317.384732 58.540866 
L 318.019616 57.213168 
L 318.654501 56.576968 
L 319.289385 56.397194 
L 319.92427 54.23964 
L 320.559154 59.757935 
L 321.194039 58.112138 
L 321.828923 72.993527 
L 322.463808 53.437482 
L 323.098692 61.90164 
L 323.733577 54.336452 
L 324.368461 54.073682 
L 325.003346 56.03758 
L 325.63823 58.388757 
L 326.273115 55.221606 
L 326.907999 53.064085 
L 327.542884 61.445247 
L 328.177768 58.900447 
L 328.812653 59.979224 
L 329.447537 53.727917 
L 330.082422 56.438675 
L 330.717306 64.00383 
L 331.352191 59.038773 
L 331.987075 55.760994 
L 332.62196 55.71948 
L 333.256844 62.012268 
L 333.891729 60.103701 
L 334.526614 57.213168 
L 335.161498 59.591977 
L 335.796383 59.840931 
L 336.431267 56.715261 
L 337.066152 59.246212 
L 337.701036 54.129013 
L 338.335921 54.737548 
L 338.970805 55.000317 
L 339.60569 61.279256 
L 340.240574 55.484375 
L 340.875459 60.878193 
L 341.510343 53.40985 
L 342.145228 55.097129 
L 342.780112 53.810913 
L 343.414997 54.115197 
L 344.049881 58.070657 
L 344.684766 56.162057 
L 345.31965 56.397194 
L 345.954535 57.36531 
L 346.589419 54.142829 
L 347.224304 54.336452 
L 347.859188 55.816291 
L 348.494073 52.925792 
L 349.128957 60.615424 
L 349.763842 61.666535 
L 350.398726 59.011108 
L 351.033611 57.959996 
L 351.668495 66.908212 
L 352.30338 56.687629 
L 352.938264 55.733329 
L 353.573149 54.184343 
L 354.208033 55.276936 
L 354.842918 52.261927 
L 355.477803 52.012973 
L 356.112687 52.856613 
L 356.747572 57.711042 
L 357.382456 59.107919 
L 358.017341 51.141669 
L 358.652225 54.82051 
L 359.28711 56.72911 
L 359.921994 52.275743 
L 360.556879 54.142829 
L 361.191763 55.304601 
L 361.826648 52.635324 
L 362.461532 54.25349 
L 363.096417 51.957643 
L 363.731301 56.051429 
L 364.366186 53.93539 
L 365.00107 55.954617 
L 365.635955 58.388757 
L 366.270839 53.963055 
L 366.905724 53.589624 
L 367.540608 52.331073 
L 368.175493 60.269659 
L 368.810377 53.824729 
L 369.445262 52.580027 
L 370.080146 55.249271 
L 370.715031 63.257002 
L 371.349915 58.5132 
L 371.9848 52.303408 
L 372.619684 67.807181 
L 373.254569 53.35452 
L 373.889453 56.93655 
L 374.524338 52.109785 
L 375.159222 59.688789 
L 375.794107 59.868596 
L 376.428991 58.167468 
L 377.063876 54.460929 
L 377.698761 55.387564 
L 378.333645 54.419448 
L 378.96853 53.700285 
L 379.603414 51.50125 
L 380.238299 61.625021 
L 380.873183 52.414069 
L 381.508068 55.027982 
L 382.142952 63.630433 
L 382.777837 53.686436 
L 383.412721 61.90164 
L 384.047606 59.591977 
L 384.68249 56.452491 
L 385.317375 56.839738 
L 385.952259 53.575808 
L 386.587144 57.531268 
L 387.222028 52.331073 
L 387.856913 58.734489 
L 388.491797 57.517419 
L 389.126682 51.279962 
L 389.761566 53.769431 
L 390.396451 52.925792 
L 391.031335 53.382185 
L 391.66622 56.93655 
L 392.301104 55.110978 
L 392.935989 54.516259 
L 393.570873 56.424826 
L 394.205758 59.757935 
L 394.840642 54.55774 
L 395.475527 65.635811 
L 396.110411 53.631106 
L 396.745296 51.44592 
L 397.38018 51.169334 
L 398.015065 54.281155 
L 398.64995 52.275743 
L 399.284834 64.072977 
L 399.919719 51.114004 
L 400.554603 55.429045 
L 401.189488 55.373748 
L 401.824372 54.765213 
L 402.459257 55.899287 
L 403.094141 54.654552 
L 403.729026 54.433264 
L 404.36391 58.333426 
L 404.998795 57.849368 
L 405.633679 52.580027 
L 406.268564 56.023764 
L 407.538333 51.404439 
L 408.173217 64.363411 
L 408.808102 52.040639 
L 409.442986 51.681057 
L 410.077871 60.006889 
L 410.712755 50.256515 
L 411.34764 51.81935 
L 411.982524 54.336452 
L 412.617409 51.279962 
L 413.252293 52.939608 
L 413.887178 52.967273 
L 414.522062 52.856613 
L 415.156947 64.944314 
L 415.791831 54.142829 
L 416.426716 52.34489 
L 417.0616 57.36531 
L 417.696485 54.032201 
L 418.331369 56.148241 
L 418.966254 55.055648 
L 419.601138 51.667208 
L 420.236023 53.188562 
L 420.870908 51.653392 
L 421.505792 51.473585 
L 422.140677 53.160897 
L 422.775561 55.664182 
L 423.410446 55.77481 
L 424.04533 57.061026 
L 424.680215 57.130173 
L 425.949984 52.745985 
L 426.584868 56.452491 
L 427.219753 50.906564 
L 427.854637 57.392975 
L 428.489522 55.913103 
L 429.124406 53.520478 
L 429.759291 49.523537 
L 430.394175 59.066438 
L 431.02906 60.228177 
L 431.663944 53.907724 
L 432.298829 52.580027 
L 432.933713 54.129013 
L 433.568598 51.556581 
L 434.203482 53.714101 
L 434.838367 54.613071 
L 435.473251 53.022604 
L 436.108136 55.788659 
L 436.74302 57.641896 
L 437.377905 55.290752 
L 438.012789 59.398354 
L 438.647674 58.278096 
L 439.282558 53.09175 
L 439.917443 52.109785 
L 440.552327 57.766373 
L 441.187212 51.694873 
L 441.822097 53.382185 
L 442.456981 50.560799 
L 443.091866 63.132526 
L 443.72675 54.460929 
L 444.361635 49.841637 
L 445.631404 54.377966 
L 446.266288 53.326855 
L 446.901173 56.09291 
L 447.536057 55.71948 
L 448.170942 55.996099 
L 448.805826 52.206597 
L 449.440711 49.772457 
L 450.075595 52.13745 
L 450.71048 51.681057 
L 451.345364 51.611911 
L 451.980249 55.180124 
L 453.250018 54.087532 
L 453.884902 48.735195 
L 454.519787 49.08096 
L 455.154671 52.635324 
L 455.789556 51.432104 
L 456.42444 52.012973 
L 457.059325 51.81935 
L 457.694209 52.427885 
L 458.329094 54.405632 
L 458.963978 48.887337 
L 459.598863 50.450139 
L 460.233747 55.000317 
L 460.868632 54.530075 
L 461.503516 50.657611 
L 462.138401 54.073682 
L 462.773285 54.419448 
L 463.40817 52.828948 
L 464.043055 60.781382 
L 464.677939 52.386404 
L 465.312824 54.115197 
L 465.947708 49.357546 
L 466.582593 55.152459 
L 467.217477 53.548143 
L 467.852362 55.014133 
L 468.487246 54.862024 
L 469.122131 51.542731 
L 469.757015 49.34373 
L 470.3919 54.350301 
L 471.026784 54.668401 
L 471.661669 53.437482 
L 472.296553 49.855453 
L 472.931438 57.877033 
L 473.566322 53.064085 
L 474.201207 58.693008 
L 474.836091 51.224664 
L 475.470976 51.293811 
L 476.10586 51.556581 
L 476.740745 54.792878 
L 477.375629 50.948046 
L 478.010514 51.50125 
L 478.645398 55.000317 
L 479.280283 55.747145 
L 479.915167 56.134391 
L 480.550052 56.175906 
L 481.184936 48.790525 
L 481.819821 59.48135 
L 482.454705 53.838578 
L 483.08959 52.911943 
L 483.724474 49.703311 
L 484.359359 52.45555 
L 484.994244 48.942667 
L 485.629128 49.703311 
L 486.264013 52.275743 
L 486.898897 50.60228 
L 487.533782 54.516259 
L 488.168666 55.373748 
L 488.803551 55.816291 
L 489.438435 49.634164 
L 490.07332 54.225824 
L 490.708204 51.943827 
L 491.343089 54.198159 
L 491.977973 51.321476 
L 492.612858 49.565018 
L 493.247742 58.651526 
L 494.517511 51.487434 
L 495.152396 51.584246 
L 495.78728 64.32193 
L 496.422165 59.550496 
L 497.057049 57.807854 
L 497.691934 56.922733 
L 498.326818 58.803635 
L 498.961703 48.970299 
L 499.596587 50.076741 
L 500.231472 49.703311 
L 500.866356 53.285373 
L 501.501241 52.566178 
L 502.136125 55.097129 
L 502.77101 54.267306 
L 503.405894 50.325695 
L 504.675663 52.234262 
L 505.310548 52.095969 
L 505.945433 54.322636 
L 506.580317 51.902346 
L 507.850086 57.766373 
L 508.484971 56.272717 
L 509.119855 58.789819 
L 509.75474 56.72911 
L 510.389624 54.267306 
L 511.024509 57.213168 
L 511.659393 51.667208 
L 512.294278 50.325695 
L 512.929162 60.435617 
L 513.564047 54.55774 
L 514.198931 58.181284 
L 514.833816 51.003376 
L 515.4687 48.679864 
L 516.103585 61.403733 
L 516.738469 55.525857 
L 517.373354 56.715261 
L 518.008238 50.03526 
L 518.643123 62.980384 
L 519.278007 52.040639 
L 519.912892 51.694873 
L 520.547776 51.044857 
L 521.182661 55.871622 
L 521.817545 50.311846 
L 522.45243 52.77365 
L 523.087314 54.073682 
L 523.722199 51.81935 
L 524.357083 54.599255 
L 524.991968 55.110978 
L 525.626852 58.015326 
L 526.261737 51.81935 
L 527.531506 54.433264 
L 528.166391 51.916162 
L 528.801275 51.667208 
L 530.071044 54.709882 
L 530.705929 47.836225 
L 531.340813 49.96608 
L 531.975698 55.014133 
L 532.610582 47.518125 
L 533.245467 49.800122 
L 533.880351 59.204731 
L 534.515236 50.353327 
L 535.15012 51.930011 
L 535.785005 49.260734 
L 536.419889 50.519318 
L 537.054774 52.870462 
L 537.689658 59.799417 
L 538.324543 53.893908 
L 538.959427 54.903506 
L 539.594312 52.165115 
L 540.229196 50.782088 
L 540.864081 49.053295 
L 541.498965 50.823569 
L 542.768734 56.494006 
L 543.403619 51.279962 
L 544.038503 52.911943 
L 544.673388 51.888497 
L 545.308272 48.873488 
L 546.578041 52.414069 
L 547.212926 51.487434 
L 547.84781 51.708722 
L 548.482695 55.041799 
L 549.11758 51.653392 
L 549.752464 50.28418 
L 550.387349 49.34373 
L 551.022233 50.837418 
L 551.657118 54.626887 
L 552.292002 49.274583 
L 552.926887 63.063379 
L 553.561771 56.09291 
L 554.196656 50.491653 
L 554.83154 57.807854 
L 555.466425 53.880059 
L 556.101309 55.290752 
L 556.736194 54.57159 
L 557.371078 54.322636 
L 558.005963 52.289592 
L 558.640847 54.046017 
L 559.275732 50.118222 
L 559.910616 54.184343 
L 560.545501 49.122441 
L 561.180385 50.851234 
L 561.81527 50.118222 
L 562.450154 51.072522 
L 563.085039 55.539706 
L 563.719923 54.626887 
L 564.354808 50.61613 
L 564.989692 51.473585 
L 565.624577 59.439835 
L 566.259461 52.870462 
L 566.894346 49.758641 
L 567.52923 57.959996 
L 568.164115 51.50125 
L 568.798999 54.751364 
L 569.433884 53.160897 
L 570.068768 50.643762 
L 570.703653 52.815131 
L 571.338538 52.441701 
L 571.973422 49.053295 
L 572.608307 53.382185 
L 573.243191 51.376773 
L 573.878076 50.007595 
L 574.51296 53.852394 
L 575.147845 53.631106 
L 575.782729 56.134391 
L 576.417614 49.302248 
L 576.417614 49.302248 
" clip-path="url(#peec276d141)" style="fill: none; stroke: #ff7f0e; stroke-width: 1.5; stroke-linecap: square"/>
   </g>
   <g id="line2d_31">
    <path d="M 43.78125 551.518125 
L 601.78125 551.518125 
" clip-path="url(#peec276d141)" style="fill: none; stroke-dasharray: 11.1,4.8; stroke-dashoffset: 0; stroke: #ff0000; stroke-width: 3"/>
   </g>
   <g id="patch_3">
    <path d="M 43.78125 576.718125 
L 43.78125 22.318125 
" style="fill: none; stroke: #000000; stroke-width: 0.8; stroke-linejoin: miter; stroke-linecap: square"/>
   </g>
   <g id="patch_4">
    <path d="M 601.78125 576.718125 
L 601.78125 22.318125 
" style="fill: none; stroke: #000000; stroke-width: 0.8; stroke-linejoin: miter; stroke-linecap: square"/>
   </g>
   <g id="patch_5">
    <path d="M 43.78125 576.718125 
L 601.78125 576.718125 
" style="fill: none; stroke: #000000; stroke-width: 0.8; stroke-linejoin: miter; stroke-linecap: square"/>
   </g>
   <g id="patch_6">
    <path d="M 43.78125 22.318125 
L 601.78125 22.318125 
" style="fill: none; stroke: #000000; stroke-width: 0.8; stroke-linejoin: miter; stroke-linecap: square"/>
   </g>
   <g id="text_17">
    <!-- Train and Val Accuracy -->
    <g transform="translate(255.002813 16.318125) scale(0.12 -0.12)">
     <defs>
      <path id="DejaVuSans-54" d="M -19 4666 
L 3928 4666 
L 3928 4134 
L 2272 4134 
L 2272 0 
L 1638 0 
L 1638 4134 
L -19 4134 
L -19 4666 
z
" transform="scale(0.015625)"/>
      <path id="DejaVuSans-69" d="M 603 3500 
L 1178 3500 
L 1178 0 
L 603 0 
L 603 3500 
z
M 603 4863 
L 1178 4863 
L 1178 4134 
L 603 4134 
L 603 4863 
z
" transform="scale(0.015625)"/>
      <path id="DejaVuSans-6e" d="M 3513 2113 
L 3513 0 
L 2938 0 
L 2938 2094 
Q 2938 2591 2744 2837 
Q 2550 3084 2163 3084 
Q 1697 3084 1428 2787 
Q 1159 2491 1159 1978 
L 1159 0 
L 581 0 
L 581 3500 
L 1159 3500 
L 1159 2956 
Q 1366 3272 1645 3428 
Q 1925 3584 2291 3584 
Q 2894 3584 3203 3211 
Q 3513 2838 3513 2113 
z
" transform="scale(0.015625)"/>
      <path id="DejaVuSans-20" transform="scale(0.015625)"/>
      <path id="DejaVuSans-64" d="M 2906 2969 
L 2906 4863 
L 3481 4863 
L 3481 0 
L 2906 0 
L 2906 525 
Q 2725 213 2448 61 
Q 2172 -91 1784 -91 
Q 1150 -91 751 415 
Q 353 922 353 1747 
Q 353 2572 751 3078 
Q 1150 3584 1784 3584 
Q 2172 3584 2448 3432 
Q 2725 3281 2906 2969 
z
M 947 1747 
Q 947 1113 1208 752 
Q 1469 391 1925 391 
Q 2381 391 2643 752 
Q 2906 1113 2906 1747 
Q 2906 2381 2643 2742 
Q 2381 3103 1925 3103 
Q 1469 3103 1208 2742 
Q 947 2381 947 1747 
z
" transform="scale(0.015625)"/>
      <path id="DejaVuSans-56" d="M 1831 0 
L 50 4666 
L 709 4666 
L 2188 738 
L 3669 4666 
L 4325 4666 
L 2547 0 
L 1831 0 
z
" transform="scale(0.015625)"/>
      <path id="DejaVuSans-6c" d="M 603 4863 
L 1178 4863 
L 1178 0 
L 603 0 
L 603 4863 
z
" transform="scale(0.015625)"/>
     </defs>
     <use xlink:href="#DejaVuSans-54"/>
     <use xlink:href="#DejaVuSans-72" transform="translate(46.333984 0)"/>
     <use xlink:href="#DejaVuSans-61" transform="translate(87.447266 0)"/>
     <use xlink:href="#DejaVuSans-69" transform="translate(148.726562 0)"/>
     <use xlink:href="#DejaVuSans-6e" transform="translate(176.509766 0)"/>
     <use xlink:href="#DejaVuSans-20" transform="translate(239.888672 0)"/>
     <use xlink:href="#DejaVuSans-61" transform="translate(271.675781 0)"/>
     <use xlink:href="#DejaVuSans-6e" transform="translate(332.955078 0)"/>
     <use xlink:href="#DejaVuSans-64" transform="translate(396.333984 0)"/>
     <use xlink:href="#DejaVuSans-20" transform="translate(459.810547 0)"/>
     <use xlink:href="#DejaVuSans-56" transform="translate(491.597656 0)"/>
     <use xlink:href="#DejaVuSans-61" transform="translate(552.255859 0)"/>
     <use xlink:href="#DejaVuSans-6c" transform="translate(613.535156 0)"/>
     <use xlink:href="#DejaVuSans-20" transform="translate(641.318359 0)"/>
     <use xlink:href="#DejaVuSans-41" transform="translate(673.105469 0)"/>
     <use xlink:href="#DejaVuSans-63" transform="translate(739.763672 0)"/>
     <use xlink:href="#DejaVuSans-63" transform="translate(794.744141 0)"/>
     <use xlink:href="#DejaVuSans-75" transform="translate(849.724609 0)"/>
     <use xlink:href="#DejaVuSans-72" transform="translate(913.103516 0)"/>
     <use xlink:href="#DejaVuSans-61" transform="translate(954.216797 0)"/>
     <use xlink:href="#DejaVuSans-63" transform="translate(1015.496094 0)"/>
     <use xlink:href="#DejaVuSans-79" transform="translate(1070.476562 0)"/>
    </g>
   </g>
   <g id="legend_1">
    <g id="patch_7">
     <path d="M 427.657812 323.313438 
L 594.78125 323.313438 
Q 596.78125 323.313438 596.78125 321.313438 
L 596.78125 277.722813 
Q 596.78125 275.722813 594.78125 275.722813 
L 427.657812 275.722813 
Q 425.657812 275.722813 425.657812 277.722813 
L 425.657812 321.313438 
Q 425.657812 323.313438 427.657812 323.313438 
z
" style="fill: #ffffff; opacity: 0.8; stroke: #cccccc; stroke-linejoin: miter"/>
    </g>
    <g id="line2d_32">
     <path d="M 429.657812 283.82125 
L 439.657812 283.82125 
L 449.657812 283.82125 
" style="fill: none; stroke: #1f77b4; stroke-width: 1.5; stroke-linecap: square"/>
    </g>
    <g id="text_18">
     <!-- train_accuracy -->
     <g transform="translate(457.657812 287.32125) scale(0.1 -0.1)">
      <defs>
       <path id="DejaVuSans-74" d="M 1172 4494 
L 1172 3500 
L 2356 3500 
L 2356 3053 
L 1172 3053 
L 1172 1153 
Q 1172 725 1289 603 
Q 1406 481 1766 481 
L 2356 481 
L 2356 0 
L 1766 0 
Q 1100 0 847 248 
Q 594 497 594 1153 
L 594 3053 
L 172 3053 
L 172 3500 
L 594 3500 
L 594 4494 
L 1172 4494 
z
" transform="scale(0.015625)"/>
       <path id="DejaVuSans-5f" d="M 3263 -1063 
L 3263 -1509 
L -63 -1509 
L -63 -1063 
L 3263 -1063 
z
" transform="scale(0.015625)"/>
      </defs>
      <use xlink:href="#DejaVuSans-74"/>
      <use xlink:href="#DejaVuSans-72" transform="translate(39.208984 0)"/>
      <use xlink:href="#DejaVuSans-61" transform="translate(80.322266 0)"/>
      <use xlink:href="#DejaVuSans-69" transform="translate(141.601562 0)"/>
      <use xlink:href="#DejaVuSans-6e" transform="translate(169.384766 0)"/>
      <use xlink:href="#DejaVuSans-5f" transform="translate(232.763672 0)"/>
      <use xlink:href="#DejaVuSans-61" transform="translate(282.763672 0)"/>
      <use xlink:href="#DejaVuSans-63" transform="translate(344.042969 0)"/>
      <use xlink:href="#DejaVuSans-63" transform="translate(399.023438 0)"/>
      <use xlink:href="#DejaVuSans-75" transform="translate(454.003906 0)"/>
      <use xlink:href="#DejaVuSans-72" transform="translate(517.382812 0)"/>
      <use xlink:href="#DejaVuSans-61" transform="translate(558.496094 0)"/>
      <use xlink:href="#DejaVuSans-63" transform="translate(619.775391 0)"/>
      <use xlink:href="#DejaVuSans-79" transform="translate(674.755859 0)"/>
     </g>
    </g>
    <g id="line2d_33">
     <path d="M 429.657812 298.7775 
L 439.657812 298.7775 
L 449.657812 298.7775 
" style="fill: none; stroke: #ff7f0e; stroke-width: 1.5; stroke-linecap: square"/>
    </g>
    <g id="text_19">
     <!-- val_accuracy -->
     <g transform="translate(457.657812 302.2775) scale(0.1 -0.1)">
      <defs>
       <path id="DejaVuSans-76" d="M 191 3500 
L 800 3500 
L 1894 563 
L 2988 3500 
L 3597 3500 
L 2284 0 
L 1503 0 
L 191 3500 
z
" transform="scale(0.015625)"/>
      </defs>
      <use xlink:href="#DejaVuSans-76"/>
      <use xlink:href="#DejaVuSans-61" transform="translate(59.179688 0)"/>
      <use xlink:href="#DejaVuSans-6c" transform="translate(120.458984 0)"/>
      <use xlink:href="#DejaVuSans-5f" transform="translate(148.242188 0)"/>
      <use xlink:href="#DejaVuSans-61" transform="translate(198.242188 0)"/>
      <use xlink:href="#DejaVuSans-63" transform="translate(259.521484 0)"/>
      <use xlink:href="#DejaVuSans-63" transform="translate(314.501953 0)"/>
      <use xlink:href="#DejaVuSans-75" transform="translate(369.482422 0)"/>
      <use xlink:href="#DejaVuSans-72" transform="translate(432.861328 0)"/>
      <use xlink:href="#DejaVuSans-61" transform="translate(473.974609 0)"/>
      <use xlink:href="#DejaVuSans-63" transform="translate(535.253906 0)"/>
      <use xlink:href="#DejaVuSans-79" transform="translate(590.234375 0)"/>
     </g>
    </g>
    <g id="line2d_34">
     <path d="M 429.657812 313.73375 
L 439.657812 313.73375 
L 449.657812 313.73375 
" style="fill: none; stroke-dasharray: 11.1,4.8; stroke-dashoffset: 0; stroke: #ff0000; stroke-width: 3"/>
    </g>
    <g id="text_20">
     <!-- Random-Guesser Accuracy -->
     <g transform="translate(457.657812 317.23375) scale(0.1 -0.1)">
      <defs>
       <path id="DejaVuSans-52" d="M 2841 2188 
Q 3044 2119 3236 1894 
Q 3428 1669 3622 1275 
L 4263 0 
L 3584 0 
L 2988 1197 
Q 2756 1666 2539 1819 
Q 2322 1972 1947 1972 
L 1259 1972 
L 1259 0 
L 628 0 
L 628 4666 
L 2053 4666 
Q 2853 4666 3247 4331 
Q 3641 3997 3641 3322 
Q 3641 2881 3436 2590 
Q 3231 2300 2841 2188 
z
M 1259 4147 
L 1259 2491 
L 2053 2491 
Q 2509 2491 2742 2702 
Q 2975 2913 2975 3322 
Q 2975 3731 2742 3939 
Q 2509 4147 2053 4147 
L 1259 4147 
z
" transform="scale(0.015625)"/>
       <path id="DejaVuSans-6d" d="M 3328 2828 
Q 3544 3216 3844 3400 
Q 4144 3584 4550 3584 
Q 5097 3584 5394 3201 
Q 5691 2819 5691 2113 
L 5691 0 
L 5113 0 
L 5113 2094 
Q 5113 2597 4934 2840 
Q 4756 3084 4391 3084 
Q 3944 3084 3684 2787 
Q 3425 2491 3425 1978 
L 3425 0 
L 2847 0 
L 2847 2094 
Q 2847 2600 2669 2842 
Q 2491 3084 2119 3084 
Q 1678 3084 1418 2786 
Q 1159 2488 1159 1978 
L 1159 0 
L 581 0 
L 581 3500 
L 1159 3500 
L 1159 2956 
Q 1356 3278 1631 3431 
Q 1906 3584 2284 3584 
Q 2666 3584 2933 3390 
Q 3200 3197 3328 2828 
z
" transform="scale(0.015625)"/>
       <path id="DejaVuSans-2d" d="M 313 2009 
L 1997 2009 
L 1997 1497 
L 313 1497 
L 313 2009 
z
" transform="scale(0.015625)"/>
       <path id="DejaVuSans-47" d="M 3809 666 
L 3809 1919 
L 2778 1919 
L 2778 2438 
L 4434 2438 
L 4434 434 
Q 4069 175 3628 42 
Q 3188 -91 2688 -91 
Q 1594 -91 976 548 
Q 359 1188 359 2328 
Q 359 3472 976 4111 
Q 1594 4750 2688 4750 
Q 3144 4750 3555 4637 
Q 3966 4525 4313 4306 
L 4313 3634 
Q 3963 3931 3569 4081 
Q 3175 4231 2741 4231 
Q 1884 4231 1454 3753 
Q 1025 3275 1025 2328 
Q 1025 1384 1454 906 
Q 1884 428 2741 428 
Q 3075 428 3337 486 
Q 3600 544 3809 666 
z
" transform="scale(0.015625)"/>
       <path id="DejaVuSans-65" d="M 3597 1894 
L 3597 1613 
L 953 1613 
Q 991 1019 1311 708 
Q 1631 397 2203 397 
Q 2534 397 2845 478 
Q 3156 559 3463 722 
L 3463 178 
Q 3153 47 2828 -22 
Q 2503 -91 2169 -91 
Q 1331 -91 842 396 
Q 353 884 353 1716 
Q 353 2575 817 3079 
Q 1281 3584 2069 3584 
Q 2775 3584 3186 3129 
Q 3597 2675 3597 1894 
z
M 3022 2063 
Q 3016 2534 2758 2815 
Q 2500 3097 2075 3097 
Q 1594 3097 1305 2825 
Q 1016 2553 972 2059 
L 3022 2063 
z
" transform="scale(0.015625)"/>
      </defs>
      <use xlink:href="#DejaVuSans-52"/>
      <use xlink:href="#DejaVuSans-61" transform="translate(67.232422 0)"/>
      <use xlink:href="#DejaVuSans-6e" transform="translate(128.511719 0)"/>
      <use xlink:href="#DejaVuSans-64" transform="translate(191.890625 0)"/>
      <use xlink:href="#DejaVuSans-6f" transform="translate(255.367188 0)"/>
      <use xlink:href="#DejaVuSans-6d" transform="translate(316.548828 0)"/>
      <use xlink:href="#DejaVuSans-2d" transform="translate(413.960938 0)"/>
      <use xlink:href="#DejaVuSans-47" transform="translate(453.669922 0)"/>
      <use xlink:href="#DejaVuSans-75" transform="translate(531.160156 0)"/>
      <use xlink:href="#DejaVuSans-65" transform="translate(594.539062 0)"/>
      <use xlink:href="#DejaVuSans-73" transform="translate(656.0625 0)"/>
      <use xlink:href="#DejaVuSans-73" transform="translate(708.162109 0)"/>
      <use xlink:href="#DejaVuSans-65" transform="translate(760.261719 0)"/>
      <use xlink:href="#DejaVuSans-72" transform="translate(821.785156 0)"/>
      <use xlink:href="#DejaVuSans-20" transform="translate(862.898438 0)"/>
      <use xlink:href="#DejaVuSans-41" transform="translate(894.685547 0)"/>
      <use xlink:href="#DejaVuSans-63" transform="translate(961.34375 0)"/>
      <use xlink:href="#DejaVuSans-63" transform="translate(1016.324219 0)"/>
      <use xlink:href="#DejaVuSans-75" transform="translate(1071.304688 0)"/>
      <use xlink:href="#DejaVuSans-72" transform="translate(1134.683594 0)"/>
      <use xlink:href="#DejaVuSans-61" transform="translate(1175.796875 0)"/>
      <use xlink:href="#DejaVuSans-63" transform="translate(1237.076172 0)"/>
      <use xlink:href="#DejaVuSans-79" transform="translate(1292.056641 0)"/>
     </g>
    </g>
   </g>
  </g>
 </g>
 <defs>
  <clipPath id="peec276d141">
   <rect x="43.78125" y="22.318125" width="558" height="554.4"/>
  </clipPath>
 </defs>
</svg>
