<?xml version="1.0" encoding="utf-8" standalone="no"?>
<!DOCTYPE svg PUBLIC "-//W3C//DTD SVG 1.1//EN"
  "http://www.w3.org/Graphics/SVG/1.1/DTD/svg11.dtd">
<svg xmlns:xlink="http://www.w3.org/1999/xlink" width="608.98125pt" height="614.274375pt" viewBox="0 0 608.98125 614.274375" xmlns="http://www.w3.org/2000/svg" version="1.1">
 <metadata>
  <rdf:RDF xmlns:dc="http://purl.org/dc/elements/1.1/" xmlns:cc="http://creativecommons.org/ns#" xmlns:rdf="http://www.w3.org/1999/02/22-rdf-syntax-ns#">
   <cc:Work>
    <dc:type rdf:resource="http://purl.org/dc/dcmitype/StillImage"/>
    <dc:date>2026-06-03T18:27:02.078896</dc:date>
    <dc:format>image/svg+xml</dc:format>
    <dc:creator>
     <cc:Agent>
      <dc:title>Matplotlib v3.10.9, https://matplotlib.org/</dc:title>
     </cc:Agent>
    </dc:creator>
   </cc:Work>
  </rdf:RDF>
 </metadata>
 <defs>
  <style type="text/css">*{stroke-linejoin: round; stroke-linecap: butt}</style>
 </defs>
 <g id="figure_1">
  <g id="patch_1">
   <path d="M 0 614.274375 
L 608.98125 614.274375 
L 608.98125 0 
L 0 0 
z
" style="fill: #ffffff"/>
  </g>
  <g id="axes_1">
   <g id="patch_2">
    <path d="M 43.78125 576.718125 
L 601.78125 576.718125 
L 601.78125 22.318125 
L 43.78125 22.318125 
z
" style="fill: #ffffff"/>
   </g>
   <g id="matplotlib.axis_1">
    <g id="xtick_1">
     <g id="line2d_1">
      <path d="M 69.144886 576.718125 
L 69.144886 22.318125 
" clip-path="url(#p399a2a68a5)" style="fill: none; stroke: #b0b0b0; stroke-width: 0.8; stroke-linecap: square"/>
     </g>
     <g id="line2d_2">
      <defs>
       <path id="m71740226ed" d="M 0 0 
L 0 3.5 
" style="stroke: #000000; stroke-width: 0.8"/>
      </defs>
      <g>
       <use xlink:href="#m71740226ed" x="69.144886" y="576.718125" style="stroke: #000000; stroke-width: 0.8"/>
      </g>
     </g>
     <g id="text_1">
      <!-- 0 -->
      <g transform="translate(65.963636 591.316563) scale(0.1 -0.1)">
       <defs>
        <path id="DejaVuSans-30" d="M 2034 4250 
Q 1547 4250 1301 3770 
Q 1056 3291 1056 2328 
Q 1056 1369 1301 889 
Q 1547 409 2034 409 
Q 2525 409 2770 889 
Q 3016 1369 3016 2328 
Q 3016 3291 2770 3770 
Q 2525 4250 2034 4250 
z
M 2034 4750 
Q 2819 4750 3233 4129 
Q 3647 3509 3647 2328 
Q 3647 1150 3233 529 
Q 2819 -91 2034 -91 
Q 1250 -91 836 529 
Q 422 1150 422 2328 
Q 422 3509 836 4129 
Q 1250 4750 2034 4750 
z
" transform="scale(0.015625)"/>
       </defs>
       <use xlink:href="#DejaVuSans-30"/>
      </g>
     </g>
    </g>
    <g id="xtick_2">
     <g id="line2d_3">
      <path d="M 132.633338 576.718125 
L 132.633338 22.318125 
" clip-path="url(#p399a2a68a5)" style="fill: none; stroke: #b0b0b0; stroke-width: 0.8; stroke-linecap: square"/>
     </g>
     <g id="line2d_4">
      <g>
       <use xlink:href="#m71740226ed" x="132.633338" y="576.718125" style="stroke: #000000; stroke-width: 0.8"/>
      </g>
     </g>
     <g id="text_2">
      <!-- 100 -->
      <g transform="translate(123.089588 591.316563) scale(0.1 -0.1)">
       <defs>
        <path id="DejaVuSans-31" d="M 794 531 
L 1825 531 
L 1825 4091 
L 703 3866 
L 703 4441 
L 1819 4666 
L 2450 4666 
L 2450 531 
L 3481 531 
L 3481 0 
L 794 0 
L 794 531 
z
" transform="scale(0.015625)"/>
       </defs>
       <use xlink:href="#DejaVuSans-31"/>
       <use xlink:href="#DejaVuSans-30" transform="translate(63.623047 0)"/>
       <use xlink:href="#DejaVuSans-30" transform="translate(127.246094 0)"/>
      </g>
     </g>
    </g>
    <g id="xtick_3">
     <g id="line2d_5">
      <path d="M 196.121789 576.718125 
L 196.121789 22.318125 
" clip-path="url(#p399a2a68a5)" style="fill: none; stroke: #b0b0b0; stroke-width: 0.8; stroke-linecap: square"/>
     </g>
     <g id="line2d_6">
      <g>
       <use xlink:href="#m71740226ed" x="196.121789" y="576.718125" style="stroke: #000000; stroke-width: 0.8"/>
      </g>
     </g>
     <g id="text_3">
      <!-- 200 -->
      <g transform="translate(186.578039 591.316563) scale(0.1 -0.1)">
       <defs>
        <path id="DejaVuSans-32" d="M 1228 531 
L 3431 531 
L 3431 0 
L 469 0 
L 469 531 
Q 828 903 1448 1529 
Q 2069 2156 2228 2338 
Q 2531 2678 2651 2914 
Q 2772 3150 2772 3378 
Q 2772 3750 2511 3984 
Q 2250 4219 1831 4219 
Q 1534 4219 1204 4116 
Q 875 4013 500 3803 
L 500 4441 
Q 881 4594 1212 4672 
Q 1544 4750 1819 4750 
Q 2544 4750 2975 4387 
Q 3406 4025 3406 3419 
Q 3406 3131 3298 2873 
Q 3191 2616 2906 2266 
Q 2828 2175 2409 1742 
Q 1991 1309 1228 531 
z
" transform="scale(0.015625)"/>
       </defs>
       <use xlink:href="#DejaVuSans-32"/>
       <use xlink:href="#DejaVuSans-30" transform="translate(63.623047 0)"/>
       <use xlink:href="#DejaVuSans-30" transform="translate(127.246094 0)"/>
      </g>
     </g>
    </g>
    <g id="xtick_4">
     <g id="line2d_7">
      <path d="M 259.610241 576.718125 
L 259.610241 22.318125 
" clip-path="url(#p399a2a68a5)" style="fill: none; stroke: #b0b0b0; stroke-width: 0.8; stroke-linecap: square"/>
     </g>
     <g id="line2d_8">
      <g>
       <use xlink:href="#m71740226ed" x="259.610241" y="576.718125" style="stroke: #000000; stroke-width: 0.8"/>
      </g>
     </g>
     <g id="text_4">
      <!-- 300 -->
      <g transform="translate(250.066491 591.316563) scale(0.1 -0.1)">
       <defs>
        <path id="DejaVuSans-33" d="M 2597 2516 
Q 3050 2419 3304 2112 
Q 3559 1806 3559 1356 
Q 3559 666 3084 287 
Q 2609 -91 1734 -91 
Q 1441 -91 1130 -33 
Q 819 25 488 141 
L 488 750 
Q 750 597 1062 519 
Q 1375 441 1716 441 
Q 2309 441 2620 675 
Q 2931 909 2931 1356 
Q 2931 1769 2642 2001 
Q 2353 2234 1838 2234 
L 1294 2234 
L 1294 2753 
L 1863 2753 
Q 2328 2753 2575 2939 
Q 2822 3125 2822 3475 
Q 2822 3834 2567 4026 
Q 2313 4219 1838 4219 
Q 1578 4219 1281 4162 
Q 984 4106 628 3988 
L 628 4550 
Q 988 4650 1302 4700 
Q 1616 4750 1894 4750 
Q 2613 4750 3031 4423 
Q 3450 4097 3450 3541 
Q 3450 3153 3228 2886 
Q 3006 2619 2597 2516 
z
" transform="scale(0.015625)"/>
       </defs>
       <use xlink:href="#DejaVuSans-33"/>
       <use xlink:href="#DejaVuSans-30" transform="translate(63.623047 0)"/>
       <use xlink:href="#DejaVuSans-30" transform="translate(127.246094 0)"/>
      </g>
     </g>
    </g>
    <g id="xtick_5">
     <g id="line2d_9">
      <path d="M 323.098692 576.718125 
L 323.098692 22.318125 
" clip-path="url(#p399a2a68a5)" style="fill: none; stroke: #b0b0b0; stroke-width: 0.8; stroke-linecap: square"/>
     </g>
     <g id="line2d_10">
      <g>
       <use xlink:href="#m71740226ed" x="323.098692" y="576.718125" style="stroke: #000000; stroke-width: 0.8"/>
      </g>
     </g>
     <g id="text_5">
      <!-- 400 -->
      <g transform="translate(313.554942 591.316563) scale(0.1 -0.1)">
       <defs>
        <path id="DejaVuSans-34" d="M 2419 4116 
L 825 1625 
L 2419 1625 
L 2419 4116 
z
M 2253 4666 
L 3047 4666 
L 3047 1625 
L 3713 1625 
L 3713 1100 
L 3047 1100 
L 3047 0 
L 2419 0 
L 2419 1100 
L 313 1100 
L 313 1709 
L 2253 4666 
z
" transform="scale(0.015625)"/>
       </defs>
       <use xlink:href="#DejaVuSans-34"/>
       <use xlink:href="#DejaVuSans-30" transform="translate(63.623047 0)"/>
       <use xlink:href="#DejaVuSans-30" transform="translate(127.246094 0)"/>
      </g>
     </g>
    </g>
    <g id="xtick_6">
     <g id="line2d_11">
      <path d="M 386.587144 576.718125 
L 386.587144 22.318125 
" clip-path="url(#p399a2a68a5)" style="fill: none; stroke: #b0b0b0; stroke-width: 0.8; stroke-linecap: square"/>
     </g>
     <g id="line2d_12">
      <g>
       <use xlink:href="#m71740226ed" x="386.587144" y="576.718125" style="stroke: #000000; stroke-width: 0.8"/>
      </g>
     </g>
     <g id="text_6">
      <!-- 500 -->
      <g transform="translate(377.043394 591.316563) scale(0.1 -0.1)">
       <defs>
        <path id="DejaVuSans-35" d="M 691 4666 
L 3169 4666 
L 3169 4134 
L 1269 4134 
L 1269 2991 
Q 1406 3038 1543 3061 
Q 1681 3084 1819 3084 
Q 2600 3084 3056 2656 
Q 3513 2228 3513 1497 
Q 3513 744 3044 326 
Q 2575 -91 1722 -91 
Q 1428 -91 1123 -41 
Q 819 9 494 109 
L 494 744 
Q 775 591 1075 516 
Q 1375 441 1709 441 
Q 2250 441 2565 725 
Q 2881 1009 2881 1497 
Q 2881 1984 2565 2268 
Q 2250 2553 1709 2553 
Q 1456 2553 1204 2497 
Q 953 2441 691 2322 
L 691 4666 
z
" transform="scale(0.015625)"/>
       </defs>
       <use xlink:href="#DejaVuSans-35"/>
       <use xlink:href="#DejaVuSans-30" transform="translate(63.623047 0)"/>
       <use xlink:href="#DejaVuSans-30" transform="translate(127.246094 0)"/>
      </g>
     </g>
    </g>
    <g id="xtick_7">
     <g id="line2d_13">
      <path d="M 450.075595 576.718125 
L 450.075595 22.318125 
" clip-path="url(#p399a2a68a5)" style="fill: none; stroke: #b0b0b0; stroke-width: 0.8; stroke-linecap: square"/>
     </g>
     <g id="line2d_14">
      <g>
       <use xlink:href="#m71740226ed" x="450.075595" y="576.718125" style="stroke: #000000; stroke-width: 0.8"/>
      </g>
     </g>
     <g id="text_7">
      <!-- 600 -->
      <g transform="translate(440.531845 591.316563) scale(0.1 -0.1)">
       <defs>
        <path id="DejaVuSans-36" d="M 2113 2584 
Q 1688 2584 1439 2293 
Q 1191 2003 1191 1497 
Q 1191 994 1439 701 
Q 1688 409 2113 409 
Q 2538 409 2786 701 
Q 3034 994 3034 1497 
Q 3034 2003 2786 2293 
Q 2538 2584 2113 2584 
z
M 3366 4563 
L 3366 3988 
Q 3128 4100 2886 4159 
Q 2644 4219 2406 4219 
Q 1781 4219 1451 3797 
Q 1122 3375 1075 2522 
Q 1259 2794 1537 2939 
Q 1816 3084 2150 3084 
Q 2853 3084 3261 2657 
Q 3669 2231 3669 1497 
Q 3669 778 3244 343 
Q 2819 -91 2113 -91 
Q 1303 -91 875 529 
Q 447 1150 447 2328 
Q 447 3434 972 4092 
Q 1497 4750 2381 4750 
Q 2619 4750 2861 4703 
Q 3103 4656 3366 4563 
z
" transform="scale(0.015625)"/>
       </defs>
       <use xlink:href="#DejaVuSans-36"/>
       <use xlink:href="#DejaVuSans-30" transform="translate(63.623047 0)"/>
       <use xlink:href="#DejaVuSans-30" transform="translate(127.246094 0)"/>
      </g>
     </g>
    </g>
    <g id="xtick_8">
     <g id="line2d_15">
      <path d="M 513.564047 576.718125 
L 513.564047 22.318125 
" clip-path="url(#p399a2a68a5)" style="fill: none; stroke: #b0b0b0; stroke-width: 0.8; stroke-linecap: square"/>
     </g>
     <g id="line2d_16">
      <g>
       <use xlink:href="#m71740226ed" x="513.564047" y="576.718125" style="stroke: #000000; stroke-width: 0.8"/>
      </g>
     </g>
     <g id="text_8">
      <!-- 700 -->
      <g transform="translate(504.020297 591.316563) scale(0.1 -0.1)">
       <defs>
        <path id="DejaVuSans-37" d="M 525 4666 
L 3525 4666 
L 3525 4397 
L 1831 0 
L 1172 0 
L 2766 4134 
L 525 4134 
L 525 4666 
z
" transform="scale(0.015625)"/>
       </defs>
       <use xlink:href="#DejaVuSans-37"/>
       <use xlink:href="#DejaVuSans-30" transform="translate(63.623047 0)"/>
       <use xlink:href="#DejaVuSans-30" transform="translate(127.246094 0)"/>
      </g>
     </g>
    </g>
    <g id="xtick_9">
     <g id="line2d_17">
      <path d="M 577.052498 576.718125 
L 577.052498 22.318125 
" clip-path="url(#p399a2a68a5)" style="fill: none; stroke: #b0b0b0; stroke-width: 0.8; stroke-linecap: square"/>
     </g>
     <g id="line2d_18">
      <g>
       <use xlink:href="#m71740226ed" x="577.052498" y="576.718125" style="stroke: #000000; stroke-width: 0.8"/>
      </g>
     </g>
     <g id="text_9">
      <!-- 800 -->
      <g transform="translate(567.508748 591.316563) scale(0.1 -0.1)">
       <defs>
        <path id="DejaVuSans-38" d="M 2034 2216 
Q 1584 2216 1326 1975 
Q 1069 1734 1069 1313 
Q 1069 891 1326 650 
Q 1584 409 2034 409 
Q 2484 409 2743 651 
Q 3003 894 3003 1313 
Q 3003 1734 2745 1975 
Q 2488 2216 2034 2216 
z
M 1403 2484 
Q 997 2584 770 2862 
Q 544 3141 544 3541 
Q 544 4100 942 4425 
Q 1341 4750 2034 4750 
Q 2731 4750 3128 4425 
Q 3525 4100 3525 3541 
Q 3525 3141 3298 2862 
Q 3072 2584 2669 2484 
Q 3125 2378 3379 2068 
Q 3634 1759 3634 1313 
Q 3634 634 3220 271 
Q 2806 -91 2034 -91 
Q 1263 -91 848 271 
Q 434 634 434 1313 
Q 434 1759 690 2068 
Q 947 2378 1403 2484 
z
M 1172 3481 
Q 1172 3119 1398 2916 
Q 1625 2713 2034 2713 
Q 2441 2713 2670 2916 
Q 2900 3119 2900 3481 
Q 2900 3844 2670 4047 
Q 2441 4250 2034 4250 
Q 1625 4250 1398 4047 
Q 1172 3844 1172 3481 
z
" transform="scale(0.015625)"/>
       </defs>
       <use xlink:href="#DejaVuSans-38"/>
       <use xlink:href="#DejaVuSans-30" transform="translate(63.623047 0)"/>
       <use xlink:href="#DejaVuSans-30" transform="translate(127.246094 0)"/>
      </g>
     </g>
    </g>
    <g id="text_10">
     <!-- Epochs -->
     <g transform="translate(304.865625 604.994688) scale(0.1 -0.1)">
      <defs>
       <path id="DejaVuSans-45" d="M 628 4666 
L 3578 4666 
L 3578 4134 
L 1259 4134 
L 1259 2753 
L 3481 2753 
L 3481 2222 
L 1259 2222 
L 1259 531 
L 3634 531 
L 3634 0 
L 628 0 
L 628 4666 
z
" transform="scale(0.015625)"/>
       <path id="DejaVuSans-70" d="M 1159 525 
L 1159 -1331 
L 581 -1331 
L 581 3500 
L 1159 3500 
L 1159 2969 
Q 1341 3281 1617 3432 
Q 1894 3584 2278 3584 
Q 2916 3584 3314 3078 
Q 3713 2572 3713 1747 
Q 3713 922 3314 415 
Q 2916 -91 2278 -91 
Q 1894 -91 1617 61 
Q 1341 213 1159 525 
z
M 3116 1747 
Q 3116 2381 2855 2742 
Q 2594 3103 2138 3103 
Q 1681 3103 1420 2742 
Q 1159 2381 1159 1747 
Q 1159 1113 1420 752 
Q 1681 391 2138 391 
Q 2594 391 2855 752 
Q 3116 1113 3116 1747 
z
" transform="scale(0.015625)"/>
       <path id="DejaVuSans-6f" d="M 1959 3097 
Q 1497 3097 1228 2736 
Q 959 2375 959 1747 
Q 959 1119 1226 758 
Q 1494 397 1959 397 
Q 2419 397 2687 759 
Q 2956 1122 2956 1747 
Q 2956 2369 2687 2733 
Q 2419 3097 1959 3097 
z
M 1959 3584 
Q 2709 3584 3137 3096 
Q 3566 2609 3566 1747 
Q 3566 888 3137 398 
Q 2709 -91 1959 -91 
Q 1206 -91 779 398 
Q 353 888 353 1747 
Q 353 2609 779 3096 
Q 1206 3584 1959 3584 
z
" transform="scale(0.015625)"/>
       <path id="DejaVuSans-63" d="M 3122 3366 
L 3122 2828 
Q 2878 2963 2633 3030 
Q 2388 3097 2138 3097 
Q 1578 3097 1268 2742 
Q 959 2388 959 1747 
Q 959 1106 1268 751 
Q 1578 397 2138 397 
Q 2388 397 2633 464 
Q 2878 531 3122 666 
L 3122 134 
Q 2881 22 2623 -34 
Q 2366 -91 2075 -91 
Q 1284 -91 818 406 
Q 353 903 353 1747 
Q 353 2603 823 3093 
Q 1294 3584 2113 3584 
Q 2378 3584 2631 3529 
Q 2884 3475 3122 3366 
z
" transform="scale(0.015625)"/>
       <path id="DejaVuSans-68" d="M 3513 2113 
L 3513 0 
L 2938 0 
L 2938 2094 
Q 2938 2591 2744 2837 
Q 2550 3084 2163 3084 
Q 1697 3084 1428 2787 
Q 1159 2491 1159 1978 
L 1159 0 
L 581 0 
L 581 4863 
L 1159 4863 
L 1159 2956 
Q 1366 3272 1645 3428 
Q 1925 3584 2291 3584 
Q 2894 3584 3203 3211 
Q 3513 2838 3513 2113 
z
" transform="scale(0.015625)"/>
       <path id="DejaVuSans-73" d="M 2834 3397 
L 2834 2853 
Q 2591 2978 2328 3040 
Q 2066 3103 1784 3103 
Q 1356 3103 1142 2972 
Q 928 2841 928 2578 
Q 928 2378 1081 2264 
Q 1234 2150 1697 2047 
L 1894 2003 
Q 2506 1872 2764 1633 
Q 3022 1394 3022 966 
Q 3022 478 2636 193 
Q 2250 -91 1575 -91 
Q 1294 -91 989 -36 
Q 684 19 347 128 
L 347 722 
Q 666 556 975 473 
Q 1284 391 1588 391 
Q 1994 391 2212 530 
Q 2431 669 2431 922 
Q 2431 1156 2273 1281 
Q 2116 1406 1581 1522 
L 1381 1569 
Q 847 1681 609 1914 
Q 372 2147 372 2553 
Q 372 3047 722 3315 
Q 1072 3584 1716 3584 
Q 2034 3584 2315 3537 
Q 2597 3491 2834 3397 
z
" transform="scale(0.015625)"/>
      </defs>
      <use xlink:href="#DejaVuSans-45"/>
      <use xlink:href="#DejaVuSans-70" transform="translate(63.183594 0)"/>
      <use xlink:href="#DejaVuSans-6f" transform="translate(126.660156 0)"/>
      <use xlink:href="#DejaVuSans-63" transform="translate(187.841797 0)"/>
      <use xlink:href="#DejaVuSans-68" transform="translate(242.822266 0)"/>
      <use xlink:href="#DejaVuSans-73" transform="translate(306.201172 0)"/>
     </g>
    </g>
   </g>
   <g id="matplotlib.axis_2">
    <g id="ytick_1">
     <g id="line2d_19">
      <path d="M 43.78125 554.816175 
L 601.78125 554.816175 
" clip-path="url(#p399a2a68a5)" style="fill: none; stroke: #b0b0b0; stroke-width: 0.8; stroke-linecap: square"/>
     </g>
     <g id="line2d_20">
      <defs>
       <path id="m53d6cec925" d="M 0 0 
L -3.5 0 
" style="stroke: #000000; stroke-width: 0.8"/>
      </defs>
      <g>
       <use xlink:href="#m53d6cec925" x="43.78125" y="554.816175" style="stroke: #000000; stroke-width: 0.8"/>
      </g>
     </g>
     <g id="text_11">
      <!-- 0.0 -->
      <g transform="translate(20.878125 558.615393) scale(0.1 -0.1)">
       <defs>
        <path id="DejaVuSans-2e" d="M 684 794 
L 1344 794 
L 1344 0 
L 684 0 
L 684 794 
z
" transform="scale(0.015625)"/>
       </defs>
       <use xlink:href="#DejaVuSans-30"/>
       <use xlink:href="#DejaVuSans-2e" transform="translate(63.623047 0)"/>
       <use xlink:href="#DejaVuSans-30" transform="translate(95.410156 0)"/>
      </g>
     </g>
    </g>
    <g id="ytick_2">
     <g id="line2d_21">
      <path d="M 43.78125 470.386107 
L 601.78125 470.386107 
" clip-path="url(#p399a2a68a5)" style="fill: none; stroke: #b0b0b0; stroke-width: 0.8; stroke-linecap: square"/>
     </g>
     <g id="line2d_22">
      <g>
       <use xlink:href="#m53d6cec925" x="43.78125" y="470.386107" style="stroke: #000000; stroke-width: 0.8"/>
      </g>
     </g>
     <g id="text_12">
      <!-- 0.1 -->
      <g transform="translate(20.878125 474.185326) scale(0.1 -0.1)">
       <use xlink:href="#DejaVuSans-30"/>
       <use xlink:href="#DejaVuSans-2e" transform="translate(63.623047 0)"/>
       <use xlink:href="#DejaVuSans-31" transform="translate(95.410156 0)"/>
      </g>
     </g>
    </g>
    <g id="ytick_3">
     <g id="line2d_23">
      <path d="M 43.78125 385.956039 
L 601.78125 385.956039 
" clip-path="url(#p399a2a68a5)" style="fill: none; stroke: #b0b0b0; stroke-width: 0.8; stroke-linecap: square"/>
     </g>
     <g id="line2d_24">
      <g>
       <use xlink:href="#m53d6cec925" x="43.78125" y="385.956039" style="stroke: #000000; stroke-width: 0.8"/>
      </g>
     </g>
     <g id="text_13">
      <!-- 0.2 -->
      <g transform="translate(20.878125 389.755258) scale(0.1 -0.1)">
       <use xlink:href="#DejaVuSans-30"/>
       <use xlink:href="#DejaVuSans-2e" transform="translate(63.623047 0)"/>
       <use xlink:href="#DejaVuSans-32" transform="translate(95.410156 0)"/>
      </g>
     </g>
    </g>
    <g id="ytick_4">
     <g id="line2d_25">
      <path d="M 43.78125 301.525972 
L 601.78125 301.525972 
" clip-path="url(#p399a2a68a5)" style="fill: none; stroke: #b0b0b0; stroke-width: 0.8; stroke-linecap: square"/>
     </g>
     <g id="line2d_26">
      <g>
       <use xlink:href="#m53d6cec925" x="43.78125" y="301.525972" style="stroke: #000000; stroke-width: 0.8"/>
      </g>
     </g>
     <g id="text_14">
      <!-- 0.3 -->
      <g transform="translate(20.878125 305.32519) scale(0.1 -0.1)">
       <use xlink:href="#DejaVuSans-30"/>
       <use xlink:href="#DejaVuSans-2e" transform="translate(63.623047 0)"/>
       <use xlink:href="#DejaVuSans-33" transform="translate(95.410156 0)"/>
      </g>
     </g>
    </g>
    <g id="ytick_5">
     <g id="line2d_27">
      <path d="M 43.78125 217.095904 
L 601.78125 217.095904 
" clip-path="url(#p399a2a68a5)" style="fill: none; stroke: #b0b0b0; stroke-width: 0.8; stroke-linecap: square"/>
     </g>
     <g id="line2d_28">
      <g>
       <use xlink:href="#m53d6cec925" x="43.78125" y="217.095904" style="stroke: #000000; stroke-width: 0.8"/>
      </g>
     </g>
     <g id="text_15">
      <!-- 0.4 -->
      <g transform="translate(20.878125 220.895123) scale(0.1 -0.1)">
       <use xlink:href="#DejaVuSans-30"/>
       <use xlink:href="#DejaVuSans-2e" transform="translate(63.623047 0)"/>
       <use xlink:href="#DejaVuSans-34" transform="translate(95.410156 0)"/>
      </g>
     </g>
    </g>
    <g id="ytick_6">
     <g id="line2d_29">
      <path d="M 43.78125 132.665836 
L 601.78125 132.665836 
" clip-path="url(#p399a2a68a5)" style="fill: none; stroke: #b0b0b0; stroke-width: 0.8; stroke-linecap: square"/>
     </g>
     <g id="line2d_30">
      <g>
       <use xlink:href="#m53d6cec925" x="43.78125" y="132.665836" style="stroke: #000000; stroke-width: 0.8"/>
      </g>
     </g>
     <g id="text_16">
      <!-- 0.5 -->
      <g transform="translate(20.878125 136.465055) scale(0.1 -0.1)">
       <use xlink:href="#DejaVuSans-30"/>
       <use xlink:href="#DejaVuSans-2e" transform="translate(63.623047 0)"/>
       <use xlink:href="#DejaVuSans-35" transform="translate(95.410156 0)"/>
      </g>
     </g>
    </g>
    <g id="ytick_7">
     <g id="line2d_31">
      <path d="M 43.78125 48.235769 
L 601.78125 48.235769 
" clip-path="url(#p399a2a68a5)" style="fill: none; stroke: #b0b0b0; stroke-width: 0.8; stroke-linecap: square"/>
     </g>
     <g id="line2d_32">
      <g>
       <use xlink:href="#m53d6cec925" x="43.78125" y="48.235769" style="stroke: #000000; stroke-width: 0.8"/>
      </g>
     </g>
     <g id="text_17">
      <!-- 0.6 -->
      <g transform="translate(20.878125 52.034988) scale(0.1 -0.1)">
       <use xlink:href="#DejaVuSans-30"/>
       <use xlink:href="#DejaVuSans-2e" transform="translate(63.623047 0)"/>
       <use xlink:href="#DejaVuSans-36" transform="translate(95.410156 0)"/>
      </g>
     </g>
    </g>
    <g id="text_18">
     <!-- Accuracy -->
     <g transform="translate(14.798438 322.34625) rotate(-90) scale(0.1 -0.1)">
      <defs>
       <path id="DejaVuSans-41" d="M 2188 4044 
L 1331 1722 
L 3047 1722 
L 2188 4044 
z
M 1831 4666 
L 2547 4666 
L 4325 0 
L 3669 0 
L 3244 1197 
L 1141 1197 
L 716 0 
L 50 0 
L 1831 4666 
z
" transform="scale(0.015625)"/>
       <path id="DejaVuSans-75" d="M 544 1381 
L 544 3500 
L 1119 3500 
L 1119 1403 
Q 1119 906 1312 657 
Q 1506 409 1894 409 
Q 2359 409 2629 706 
Q 2900 1003 2900 1516 
L 2900 3500 
L 3475 3500 
L 3475 0 
L 2900 0 
L 2900 538 
Q 2691 219 2414 64 
Q 2138 -91 1772 -91 
Q 1169 -91 856 284 
Q 544 659 544 1381 
z
M 1991 3584 
L 1991 3584 
z
" transform="scale(0.015625)"/>
       <path id="DejaVuSans-72" d="M 2631 2963 
Q 2534 3019 2420 3045 
Q 2306 3072 2169 3072 
Q 1681 3072 1420 2755 
Q 1159 2438 1159 1844 
L 1159 0 
L 581 0 
L 581 3500 
L 1159 3500 
L 1159 2956 
Q 1341 3275 1631 3429 
Q 1922 3584 2338 3584 
Q 2397 3584 2469 3576 
Q 2541 3569 2628 3553 
L 2631 2963 
z
" transform="scale(0.015625)"/>
       <path id="DejaVuSans-61" d="M 2194 1759 
Q 1497 1759 1228 1600 
Q 959 1441 959 1056 
Q 959 750 1161 570 
Q 1363 391 1709 391 
Q 2188 391 2477 730 
Q 2766 1069 2766 1631 
L 2766 1759 
L 2194 1759 
z
M 3341 1997 
L 3341 0 
L 2766 0 
L 2766 531 
Q 2569 213 2275 61 
Q 1981 -91 1556 -91 
Q 1019 -91 701 211 
Q 384 513 384 1019 
Q 384 1609 779 1909 
Q 1175 2209 1959 2209 
L 2766 2209 
L 2766 2266 
Q 2766 2663 2505 2880 
Q 2244 3097 1772 3097 
Q 1472 3097 1187 3025 
Q 903 2953 641 2809 
L 641 3341 
Q 956 3463 1253 3523 
Q 1550 3584 1831 3584 
Q 2591 3584 2966 3190 
Q 3341 2797 3341 1997 
z
" transform="scale(0.015625)"/>
       <path id="DejaVuSans-79" d="M 2059 -325 
Q 1816 -950 1584 -1140 
Q 1353 -1331 966 -1331 
L 506 -1331 
L 506 -850 
L 844 -850 
Q 1081 -850 1212 -737 
Q 1344 -625 1503 -206 
L 1606 56 
L 191 3500 
L 800 3500 
L 1894 763 
L 2988 3500 
L 3597 3500 
L 2059 -325 
z
" transform="scale(0.015625)"/>
      </defs>
      <use xlink:href="#DejaVuSans-41"/>
      <use xlink:href="#DejaVuSans-63" transform="translate(66.658203 0)"/>
      <use xlink:href="#DejaVuSans-63" transform="translate(121.638672 0)"/>
      <use xlink:href="#DejaVuSans-75" transform="translate(176.619141 0)"/>
      <use xlink:href="#DejaVuSans-72" transform="translate(239.998047 0)"/>
      <use xlink:href="#DejaVuSans-61" transform="translate(281.111328 0)"/>
      <use xlink:href="#DejaVuSans-63" transform="translate(342.390625 0)"/>
      <use xlink:href="#DejaVuSans-79" transform="translate(397.371094 0)"/>
     </g>
    </g>
   </g>
   <g id="line2d_33">
    <path d="M 69.144886 195.371578 
L 69.779771 154.870955 
L 70.414655 146.355238 
L 71.04954 139.485904 
L 71.684424 129.422338 
L 72.319309 125.97709 
L 72.954193 121.572662 
L 73.589078 120.334334 
L 74.223962 117.3957 
L 74.858847 116.640535 
L 75.493732 113.350134 
L 76.128616 112.219701 
L 76.763501 111.370681 
L 77.398385 110.247293 
L 78.668154 106.769284 
L 79.937923 106.361204 
L 80.572808 104.402887 
L 81.207692 103.410795 
L 81.842577 102.801066 
L 82.477461 101.405625 
L 83.112346 100.394812 
L 83.74723 99.742812 
L 84.382115 98.485712 
L 85.016999 97.702415 
L 85.651884 97.291971 
L 86.286768 96.351511 
L 86.921653 94.949025 
L 87.556537 94.468277 
L 88.191422 93.007163 
L 89.461191 92.022117 
L 90.096075 90.72053 
L 90.73096 90.136518 
L 91.365844 89.906687 
L 92.635613 87.889742 
L 93.270498 88.112577 
L 93.905382 87.786577 
L 94.540267 86.672549 
L 95.175151 86.388771 
L 95.810036 85.335736 
L 96.44492 84.662649 
L 97.079805 84.170126 
L 97.71469 83.459548 
L 98.349574 83.555667 
L 98.984459 83.339927 
L 99.619343 81.70293 
L 100.254228 81.144733 
L 100.889112 81.641937 
L 101.523997 80.734289 
L 102.158881 80.600627 
L 102.793766 80.063567 
L 103.42865 79.831371 
L 104.063535 78.722074 
L 104.698419 79.085566 
L 105.968188 78.072438 
L 106.603073 78.574322 
L 107.237957 78.231916 
L 107.872842 78.147472 
L 108.507726 78.245956 
L 109.142611 78.041942 
L 109.777495 76.435391 
L 110.41238 76.606594 
L 111.047264 76.967771 
L 111.682149 76.498749 
L 112.317033 76.186789 
L 112.951918 76.381493 
L 113.586802 75.933507 
L 114.221687 76.130526 
L 114.856571 75.616917 
L 115.491456 75.417583 
L 116.12634 76.142252 
L 117.396109 74.556837 
L 118.030994 75.415218 
L 119.300763 73.87907 
L 119.935648 74.355137 
L 121.205417 73.867344 
L 121.840301 74.071359 
L 122.475186 73.271606 
L 123.11007 73.907201 
L 123.744955 72.786178 
L 124.379839 72.521121 
L 125.014724 72.49767 
L 125.649608 71.850399 
L 126.284493 72.952651 
L 126.919377 72.152949 
L 128.189146 71.137405 
L 128.824031 71.707327 
L 129.458915 71.313339 
L 130.0938 71.65338 
L 130.728684 71.339105 
L 131.363569 70.408056 
L 131.998453 70.506541 
L 132.633338 70.304841 
L 133.268222 70.347063 
L 133.903107 69.880356 
L 134.537991 69.021976 
L 135.172876 69.134551 
L 135.80776 69.366747 
L 136.442645 68.569359 
L 137.077529 68.820276 
L 137.712414 68.442693 
L 138.347298 69.240081 
L 138.982183 68.203502 
L 139.617067 68.224588 
L 140.886837 67.907998 
L 142.156606 66.934677 
L 142.79149 67.626535 
L 144.061259 67.098835 
L 144.696144 67.478783 
L 145.331028 66.622767 
L 145.965913 66.56882 
L 146.600797 66.388256 
L 147.870566 66.721252 
L 148.505451 66.081027 
L 149.77522 65.970766 
L 151.044989 66.559459 
L 151.679873 66.188872 
L 152.314758 65.4173 
L 152.949642 65.567367 
L 153.584527 65.304725 
L 154.219411 65.440751 
L 154.854296 64.392397 
L 155.48918 65.049078 
L 156.124065 65.121796 
L 156.758949 64.284502 
L 157.393834 64.910686 
L 158.028718 64.486201 
L 159.298487 65.084255 
L 159.933372 64.927142 
L 160.568256 64.530789 
L 161.203141 63.808434 
L 161.838026 63.81548 
L 162.47291 63.984318 
L 163.107795 64.380671 
L 163.742679 63.559833 
L 164.377564 63.841246 
L 165.012448 63.620826 
L 165.647333 63.592644 
L 166.282217 63.365178 
L 166.917102 62.98523 
L 167.551986 63.322956 
L 168.186871 62.867975 
L 168.821755 62.987596 
L 169.45664 63.2831 
L 170.091524 62.964145 
L 170.726409 62.403583 
L 171.361293 62.459896 
L 171.996178 62.394223 
L 172.631062 62.054182 
L 173.900831 62.621738 
L 174.535716 62.696772 
L 175.1706 62.12685 
L 175.805485 62.607648 
L 176.440369 61.885293 
L 177.075254 62.889061 
L 177.710138 62.408313 
L 178.345023 61.343553 
L 178.979907 61.341188 
L 179.614792 62.248836 
L 180.249676 61.470169 
L 180.884561 61.751632 
L 181.519445 60.930743 
L 182.15433 61.28256 
L 182.789215 61.238023 
L 183.424099 60.923748 
L 184.058984 60.771266 
L 184.693868 61.317737 
L 185.963637 61.191071 
L 187.233406 60.426545 
L 187.868291 61.275515 
L 188.503175 61.245018 
L 189.13806 60.705643 
L 189.772944 59.91057 
L 190.407829 60.515669 
L 191.042713 60.11695 
L 192.947367 60.478127 
L 193.582251 59.793315 
L 194.217136 60.238886 
L 194.85202 59.181171 
L 195.486905 59.237483 
L 196.121789 59.990334 
L 196.756674 60.184988 
L 197.391558 59.776909 
L 198.026443 59.033419 
L 198.661327 60.037236 
L 199.296212 59.439183 
L 199.931096 59.516582 
L 200.565981 58.709783 
L 201.200865 58.64879 
L 201.83575 58.798908 
L 202.470634 59.141314 
L 203.105519 58.798908 
L 203.740403 58.934934 
L 204.375288 58.569077 
L 205.010173 58.348606 
L 206.279942 58.812998 
L 206.914826 58.048422 
L 207.549711 58.693378 
L 208.184595 57.928802 
L 209.454364 58.055468 
L 210.089249 58.247757 
L 210.724133 57.940527 
L 211.359018 58.505769 
L 211.993902 57.68961 
L 212.628787 57.14314 
L 213.263671 57.992109 
L 213.898556 58.329835 
L 214.53344 56.94612 
L 215.803209 57.637978 
L 216.438094 57.619257 
L 217.072978 57.46446 
L 217.707863 57.555899 
L 218.342747 57.867809 
L 218.977632 57.544173 
L 219.612516 56.62012 
L 220.882285 57.236944 
L 222.152054 56.859361 
L 223.421823 57.159545 
L 224.056708 56.474733 
L 224.691592 57.079832 
L 225.326477 57.122054 
L 226.596246 56.83591 
L 227.231131 56.500549 
L 227.866015 57.403467 
L 228.5009 56.746786 
L 229.135784 56.373883 
L 229.770669 57.089192 
L 230.405553 56.82655 
L 231.040438 56.962576 
L 232.310207 56.732695 
L 234.21486 57.218173 
L 234.849745 56.371568 
L 235.484629 56.036157 
L 236.119514 56.657662 
L 236.754398 56.84059 
L 237.389283 56.41847 
L 238.024167 56.927399 
L 238.659052 56.467688 
L 239.293936 56.380929 
L 239.928821 56.008026 
L 240.563705 56.772602 
L 241.19859 56.465373 
L 241.833474 56.411425 
L 242.468359 55.365436 
L 243.103243 56.10651 
L 243.738128 55.447514 
L 244.373012 56.111241 
L 245.007897 56.129962 
L 245.642781 55.618718 
L 246.277666 56.209725 
L 246.91255 56.09715 
L 247.547435 55.496732 
L 248.18232 56.160458 
L 248.817204 55.130874 
L 250.086973 55.954078 
L 250.721858 56.127647 
L 253.261396 55.628078 
L 253.89628 56.221451 
L 254.531165 56.09247 
L 255.166049 55.079292 
L 255.800934 55.9963 
L 256.435818 55.351345 
L 257.070703 55.011304 
L 257.705587 55.356025 
L 258.340472 55.407658 
L 258.975356 55.065201 
L 259.610241 54.896363 
L 260.88001 54.802559 
L 261.514894 54.732206 
L 262.149779 55.35371 
L 262.784663 55.198913 
L 263.419548 54.61963 
L 264.054432 55.055841 
L 264.689317 55.067566 
L 265.324201 54.345212 
L 266.59397 54.382754 
L 267.863739 54.08257 
L 268.498624 54.443747 
L 269.768393 54.767382 
L 270.403278 54.544547 
L 271.038162 54.781423 
L 271.673047 54.162284 
L 272.307931 54.246728 
L 272.942816 54.471878 
L 273.5777 54.530506 
L 274.212585 53.775341 
L 274.847469 54.971397 
L 275.482354 54.070845 
L 276.117238 54.267814 
L 276.752123 53.772975 
L 277.387007 54.589134 
L 278.021892 54.373344 
L 278.656776 54.352258 
L 279.291661 53.8621 
L 279.926545 53.515013 
L 280.56143 53.552505 
L 281.196314 53.737799 
L 281.831199 53.608818 
L 282.466083 53.620543 
L 283.100968 53.465746 
L 283.735852 53.503288 
L 284.370737 53.282817 
L 285.005621 54.244363 
L 285.640506 54.286585 
L 286.27539 53.414164 
L 286.910275 53.775341 
L 287.545159 53.280452 
L 288.180044 54.628991 
L 288.814928 53.048306 
L 290.084697 53.855054 
L 291.354467 54.075525 
L 291.989351 53.662765 
L 292.624236 52.81143 
L 293.25912 52.989628 
L 293.894005 53.55955 
L 294.528889 53.676806 
L 295.163774 52.602685 
L 296.433543 53.446975 
L 297.703312 52.984948 
L 298.338196 53.146791 
L 298.973081 52.830151 
L 300.24285 52.722306 
L 300.877734 52.942726 
L 301.512619 53.498557 
L 302.147503 53.437615 
L 302.782388 52.731666 
L 303.417272 52.743392 
L 304.052157 52.963862 
L 304.687041 52.898189 
L 305.321926 53.02249 
L 306.591695 52.471339 
L 307.226579 52.70117 
L 307.861464 52.417391 
L 308.496348 53.151471 
L 309.131233 52.598005 
L 309.766117 53.22887 
L 310.401002 52.771523 
L 311.670771 52.117207 
L 312.305656 52.717575 
L 312.94054 53.069392 
L 313.575425 52.262594 
L 314.210309 53.120974 
L 314.845194 52.473704 
L 315.480078 52.703535 
L 316.114963 53.310948 
L 316.749847 52.841876 
L 317.384732 52.551103 
L 318.019616 52.626136 
L 318.654501 53.285132 
L 319.92427 52.349403 
L 320.559154 52.818425 
L 321.194039 52.386895 
L 321.828923 52.783248 
L 322.463808 52.339993 
L 323.098692 52.548738 
L 324.368461 52.091391 
L 325.003346 52.17347 
L 325.63823 51.594187 
L 326.273115 52.304816 
L 326.907999 52.454933 
L 327.542884 51.922553 
L 328.177768 52.513561 
L 328.812653 51.129846 
L 329.447537 52.241508 
L 330.082422 51.96241 
L 331.352191 52.046854 
L 331.987075 52.330632 
L 332.62196 51.706763 
L 333.256844 51.617638 
L 333.891729 52.053899 
L 334.526614 52.121887 
L 335.161498 52.515926 
L 335.796383 51.695037 
L 337.066152 52.525286 
L 337.701036 52.818425 
L 338.335921 51.831064 
L 338.970805 51.263507 
L 339.60569 51.819338 
L 340.240574 51.446435 
L 340.875459 52.452568 
L 342.145228 51.240056 
L 342.780112 51.802932 
L 343.414997 51.795887 
L 344.049881 51.547285 
L 345.954535 51.272917 
L 346.589419 52.909915 
L 347.224304 51.831064 
L 348.494073 52.241508 
L 350.398726 51.931913 
L 351.033611 51.53556 
L 352.30338 52.06794 
L 352.938264 51.570736 
L 353.573149 51.716173 
L 354.208033 51.169702 
L 354.842918 51.226015 
L 355.477803 51.65986 
L 356.112687 51.247101 
L 356.747572 51.486342 
L 357.382456 51.427715 
L 358.017341 51.024316 
L 358.652225 51.981181 
L 359.28711 50.975048 
L 360.556879 51.720853 
L 361.191763 51.193153 
L 361.826648 51.716173 
L 362.461532 51.441755 
L 363.096417 51.331545 
L 363.731301 51.01727 
L 364.366186 51.359676 
L 365.00107 52.471339 
L 365.635955 51.197834 
L 369.445262 51.22365 
L 370.080146 50.996184 
L 370.715031 51.310409 
L 371.349915 51.805297 
L 371.9848 51.44412 
L 372.619684 51.291688 
L 373.254569 51.366722 
L 373.889453 50.70068 
L 374.524338 51.441755 
L 375.159222 50.68659 
L 375.794107 51.418304 
L 376.428991 51.469886 
L 377.063876 51.254146 
L 377.698761 51.183793 
L 378.333645 51.404264 
L 378.96853 51.920188 
L 379.603414 51.240056 
L 380.238299 51.399533 
L 380.873183 50.266785 
L 381.508068 51.050082 
L 382.142952 51.080578 
L 382.777837 50.785074 
L 383.412721 50.935191 
L 384.047606 50.667819 
L 386.587144 50.658458 
L 387.222028 51.242421 
L 387.856913 51.263507 
L 388.491797 50.435623 
L 389.126682 50.372315 
L 390.396451 50.651413 
L 391.031335 51.31982 
L 391.66622 51.202564 
L 392.301104 50.536472 
L 392.935989 50.642002 
L 393.570873 49.94783 
L 394.205758 50.839022 
L 394.840642 50.459074 
L 395.475527 50.564654 
L 396.110411 51.502748 
L 396.745296 50.318367 
L 397.38018 51.422984 
L 398.64995 50.043999 
L 399.284834 50.5951 
L 399.919719 50.803845 
L 400.554603 50.135438 
L 401.824372 51.181428 
L 403.094141 51.071218 
L 403.729026 50.285556 
L 404.998795 50.515387 
L 405.633679 51.043087 
L 406.268564 50.991454 
L 406.903448 50.536472 
L 407.538333 50.430942 
L 408.808102 50.897649 
L 410.077871 50.463804 
L 410.712755 49.821164 
L 411.34764 50.771034 
L 411.982524 50.180026 
L 412.617409 50.836707 
L 413.252293 50.416902 
L 414.522062 50.463804 
L 415.156947 50.5951 
L 415.791831 50.965688 
L 416.426716 50.454394 
L 417.0616 50.452079 
L 417.696485 51.000864 
L 418.331369 49.828209 
L 418.966254 50.602146 
L 419.601138 49.830574 
L 420.236023 50.015818 
L 420.870908 51.089989 
L 421.505792 50.217517 
L 422.140677 50.979728 
L 423.410446 50.142484 
L 424.04533 50.226928 
L 424.680215 50.592785 
L 425.315099 50.731127 
L 425.949984 50.754578 
L 426.584868 50.297281 
L 427.219753 50.147164 
L 427.854637 49.767216 
L 428.489522 50.323047 
L 429.124406 49.628875 
L 429.759291 50.543518 
L 430.394175 50.609191 
L 431.02906 50.501296 
L 431.663944 50.189386 
L 432.298829 50.004092 
L 432.933713 50.599831 
L 433.568598 49.811803 
L 434.203482 50.086171 
L 434.838367 49.832889 
L 435.473251 50.104942 
L 436.108136 49.938419 
L 436.74302 50.442668 
L 437.377905 49.936104 
L 438.012789 49.926694 
L 438.647674 49.556156 
L 439.282558 50.238654 
L 439.917443 50.191751 
L 440.552327 49.544431 
L 441.187212 49.816483 
L 441.822097 49.708588 
L 442.456981 50.219883 
L 443.091866 50.276145 
L 443.72675 49.983006 
L 444.361635 49.900928 
L 444.996519 49.21843 
L 445.631404 49.624195 
L 446.266288 49.703908 
L 446.901173 50.109622 
L 447.536057 49.699228 
L 448.170942 49.642915 
L 448.805826 49.715634 
L 450.075595 50.140119 
L 450.71048 49.778942 
L 451.345364 49.706273 
L 451.980249 50.224563 
L 452.615133 49.654641 
L 453.884902 49.478757 
L 454.519787 49.907973 
L 455.154671 49.497528 
L 456.42444 49.241881 
L 457.694209 50.248014 
L 458.329094 48.840847 
L 458.963978 49.879791 
L 459.598863 49.814118 
L 460.868632 49.886837 
L 461.503516 49.384953 
L 462.138401 49.73677 
L 462.773285 49.703908 
L 463.40817 49.185619 
L 464.043055 50.029909 
L 464.677939 50.252694 
L 465.312824 49.410769 
L 465.947708 49.776627 
L 466.582593 49.176208 
L 467.217477 50.191751 
L 467.852362 49.481123 
L 468.487246 49.258287 
L 469.122131 49.912653 
L 469.757015 49.940784 
L 470.3919 49.544431 
L 471.026784 50.114353 
L 471.661669 49.64528 
L 472.296553 48.939332 
L 472.931438 49.00737 
L 474.201207 50.15889 
L 474.836091 49.727359 
L 475.470976 49.478757 
L 476.10586 49.997097 
L 476.740745 49.633555 
L 477.375629 49.593698 
L 478.010514 49.725044 
L 478.645398 49.642915 
L 479.280283 49.907973 
L 479.915167 49.063633 
L 480.550052 49.598378 
L 481.184936 49.649961 
L 481.819821 49.054272 
L 482.454705 49.53975 
L 483.08959 49.206705 
L 483.724474 49.152757 
L 484.359359 49.52098 
L 484.994244 49.558521 
L 485.629128 49.241881 
L 486.264013 49.176208 
L 486.898897 50.055725 
L 487.533782 48.990965 
L 488.168666 49.450626 
L 488.803551 49.138717 
L 489.438435 49.816483 
L 490.07332 49.417815 
L 490.708204 49.574927 
L 491.343089 49.133986 
L 491.977973 49.584287 
L 492.612858 48.969828 
L 493.247742 48.951057 
L 493.882627 49.551476 
L 494.517511 49.729724 
L 495.78728 48.725957 
L 496.422165 49.504574 
L 497.057049 48.972194 
L 497.691934 49.879791 
L 498.326818 49.202024 
L 498.961703 49.040182 
L 499.596587 49.497528 
L 500.231472 48.526572 
L 500.866356 49.044912 
L 501.501241 49.284103 
L 502.136125 49.345096 
L 502.77101 49.126991 
L 503.405894 49.689817 
L 504.675663 49.173893 
L 505.310548 48.594611 
L 505.945433 49.696863 
L 506.580317 49.757856 
L 507.215202 49.030821 
L 507.850086 48.68605 
L 508.484971 48.852573 
L 509.119855 49.241881 
L 509.75474 48.493761 
L 510.389624 48.99328 
L 511.024509 48.873709 
L 511.659393 48.615697 
L 512.294278 49.727359 
L 512.929162 49.239566 
L 513.564047 49.399044 
L 514.198931 49.190299 
L 514.833816 49.298194 
L 515.4687 48.596926 
L 516.103585 49.150442 
L 516.738469 49.082404 
L 517.373354 49.581972 
L 518.008238 48.873709 
L 518.643123 49.572562 
L 519.278007 48.822076 
L 519.912892 48.99328 
L 520.547776 48.88775 
L 521.182661 49.265332 
L 521.817545 48.824442 
L 522.45243 49.279423 
L 523.722199 49.148077 
L 524.357083 48.777539 
L 524.991968 47.996558 
L 525.626852 48.948743 
L 526.261737 48.758769 
L 526.896621 48.718912 
L 527.531506 49.21375 
L 528.166391 49.035502 
L 529.43616 48.913566 
L 530.071044 48.123173 
L 530.705929 49.659371 
L 531.340813 48.878389 
L 531.975698 48.589931 
L 532.610582 49.026141 
L 533.245467 48.57116 
L 533.880351 48.592246 
L 534.515236 49.000325 
L 535.15012 48.552389 
L 536.419889 48.608651 
L 537.054774 49.058953 
L 538.324543 49.492848 
L 538.959427 48.085682 
L 539.594312 49.427175 
L 540.229196 49.037867 
L 540.864081 49.246561 
L 541.498965 48.376506 
L 542.13385 48.700141 
L 542.768734 49.150442 
L 543.403619 48.526572 
L 544.038503 48.763449 
L 544.673388 48.528938 
L 545.308272 49.356822 
L 545.943157 48.800991 
L 546.578041 48.747043 
L 547.212926 48.829122 
L 547.84781 48.336598 
L 548.482695 49.572562 
L 549.11758 48.934652 
L 550.387349 48.48435 
L 551.022233 49.769581 
L 551.657118 48.589931 
L 552.292002 49.000325 
L 552.926887 48.15367 
L 553.561771 48.937017 
L 554.196656 48.688415 
L 554.83154 49.077724 
L 555.466425 49.720314 
L 556.101309 48.810351 
L 556.736194 48.67201 
L 557.371078 48.695461 
L 558.005963 49.152757 
L 558.640847 48.552389 
L 559.275732 48.582885 
L 559.910616 48.754088 
L 561.81527 48.245159 
L 562.450154 48.292062 
L 563.085039 48.899475 
L 563.719923 48.622742 
L 564.354808 48.962783 
L 564.989692 48.702456 
L 565.624577 48.894795 
L 566.894346 48.151355 
L 567.52923 49.01205 
L 568.164115 48.831487 
L 569.433884 49.199659 
L 570.068768 48.503121 
L 570.703653 48.444494 
L 571.338538 48.191212 
L 572.608307 48.747043 
L 573.243191 48.209983 
L 573.878076 48.822076 
L 574.51296 48.435133 
L 575.147845 48.784585 
L 575.782729 47.518125 
L 576.417614 48.559434 
L 576.417614 48.559434 
" clip-path="url(#p399a2a68a5)" style="fill: none; stroke: #1f77b4; stroke-width: 1.5; stroke-linecap: square"/>
   </g>
   <g id="line2d_34">
    <path d="M 69.144886 156.897261 
L 69.779771 152.506899 
L 70.414655 151.177131 
L 71.04954 132.919118 
L 71.684424 127.367851 
L 72.319309 127.114569 
L 73.589078 115.019943 
L 74.223962 116.497463 
L 74.858847 118.270486 
L 75.493732 119.41033 
L 76.128616 114.661131 
L 76.763501 116.835189 
L 78.03327 105.64821 
L 78.668154 107.44237 
L 79.303039 105.268262 
L 79.937923 107.97002 
L 80.572808 107.822268 
L 81.207692 99.885883 
L 81.842577 106.133688 
L 82.477461 101.384489 
L 83.112346 104.550639 
L 83.74723 99.843661 
L 84.382115 103.664127 
L 85.016999 111.832707 
L 85.651884 97.374049 
L 86.286768 99.421491 
L 86.921653 94.756736 
L 87.556537 94.292394 
L 88.191422 93.384746 
L 88.826306 95.516582 
L 89.461191 91.991671 
L 90.096075 92.667072 
L 90.73096 90.577459 
L 91.365844 90.366348 
L 92.000729 90.661903 
L 92.635613 90.5141 
L 93.270498 91.337304 
L 93.905382 91.463971 
L 94.540267 91.0418 
L 95.175151 89.606503 
L 95.810036 85.743815 
L 96.44492 83.759732 
L 97.079805 85.617199 
L 97.71469 88.593325 
L 98.349574 85.342781 
L 98.984459 86.693685 
L 99.619343 84.034099 
L 100.254228 85.638285 
L 100.889112 84.181851 
L 101.523997 84.414047 
L 102.158881 85.617199 
L 102.793766 79.875958 
L 103.42865 79.91813 
L 104.063535 77.321902 
L 104.698419 79.854822 
L 105.333304 79.432702 
L 105.968188 85.385003 
L 106.603073 88.508931 
L 107.237957 87.664591 
L 107.872842 89.078803 
L 108.507726 81.459008 
L 109.142611 77.321902 
L 109.777495 85.406089 
L 110.41238 80.488052 
L 111.047264 77.131979 
L 111.682149 80.382522 
L 112.317033 91.527278 
L 112.951918 73.459265 
L 113.586802 78.461746 
L 114.221687 80.087018 
L 114.856571 79.559318 
L 115.491456 80.614718 
L 116.12634 80.994616 
L 116.761225 82.113324 
L 117.396109 78.250636 
L 118.030994 78.989396 
L 118.665879 74.366863 
L 119.300763 76.625365 
L 119.935648 74.008051 
L 120.570532 78.44061 
L 121.205417 78.018491 
L 121.840301 74.894563 
L 123.11007 78.96831 
L 123.744955 74.831255 
L 124.379839 81.142368 
L 125.014724 76.013271 
L 125.649608 74.303555 
L 126.284493 79.559318 
L 126.919377 75.612237 
L 127.554262 74.493529 
L 128.189146 77.385261 
L 128.824031 77.131979 
L 129.458915 83.71751 
L 130.0938 74.620145 
L 130.728684 74.957871 
L 131.363569 81.543452 
L 131.998453 76.815339 
L 132.633338 74.092495 
L 133.268222 79.031618 
L 133.903107 77.511876 
L 134.537991 75.570015 
L 135.172876 77.70185 
L 135.80776 79.348258 
L 136.442645 70.229808 
L 137.077529 72.087275 
L 137.712414 78.081798 
L 138.347298 75.844383 
L 138.982183 77.617457 
L 139.617067 75.717767 
L 140.251952 71.031875 
L 140.886837 75.042315 
L 141.521721 69.596578 
L 142.156606 78.820558 
L 142.79149 72.446087 
L 143.426375 70.335338 
L 144.061259 72.889343 
L 144.696144 74.852341 
L 145.331028 68.773374 
L 145.965913 71.770635 
L 146.600797 71.264071 
L 147.235682 70.356423 
L 147.870566 77.70185 
L 148.505451 69.95539 
L 149.77522 71.053012 
L 150.410104 70.187586 
L 151.044989 72.762727 
L 151.679873 82.34552 
L 152.314758 69.659886 
L 152.949642 67.190324 
L 153.584527 70.208671 
L 154.219411 69.00557 
L 154.854296 68.773374 
L 155.48918 67.865776 
L 156.124065 67.359162 
L 156.758949 69.53327 
L 157.393834 77.279731 
L 158.028718 67.696888 
L 158.663603 69.132186 
L 159.298487 66.725932 
L 159.933372 76.562057 
L 160.568256 72.973787 
L 161.203141 68.097922 
L 161.838026 65.83942 
L 162.47291 74.345777 
L 163.742679 64.805156 
L 164.377564 66.15606 
L 165.012448 69.258852 
L 165.647333 69.21663 
L 166.282217 68.68893 
L 166.917102 72.066139 
L 167.551986 69.702108 
L 168.186871 81.29012 
L 168.821755 68.16128 
L 169.45664 77.06862 
L 170.091524 69.258852 
L 170.726409 72.256113 
L 171.361293 70.525312 
L 171.996178 71.432909 
L 172.631062 67.169188 
L 173.265947 69.913168 
L 173.900831 75.633323 
L 174.535716 65.776112 
L 175.1706 68.119058 
L 175.805485 69.554356 
L 176.440369 62.166707 
L 177.075254 64.910686 
L 177.710138 63.390944 
L 178.345023 67.992392 
L 178.979907 81.247948 
L 179.614792 65.797198 
L 180.249676 72.108361 
L 180.884561 65.881642 
L 181.519445 66.071616 
L 182.15433 66.747068 
L 182.789215 79.91813 
L 183.424099 62.398903 
L 184.058984 66.134924 
L 184.693868 67.00035 
L 185.328753 66.810376 
L 185.963637 66.05053 
L 186.598522 64.573011 
L 187.233406 64.551874 
L 187.868291 65.20619 
L 188.503175 70.48309 
L 189.13806 61.132443 
L 190.407829 66.536008 
L 191.042713 71.833993 
L 191.677598 63.897559 
L 192.312482 61.596835 
L 192.947367 62.694407 
L 193.582251 66.873684 
L 194.217136 61.765673 
L 194.85202 61.765673 
L 195.486905 66.937042 
L 196.121789 65.185104 
L 196.756674 64.699626 
L 197.391558 66.557094 
L 198.026443 65.776112 
L 198.661327 67.127016 
L 199.296212 62.356681 
L 199.931096 61.470169 
L 200.565981 63.939781 
L 201.200865 61.807895 
L 201.83575 60.562571 
L 202.470634 68.097922 
L 203.105519 70.736371 
L 203.740403 62.842159 
L 204.375288 69.1111 
L 205.010173 63.348773 
L 205.645057 68.330118 
L 206.279942 64.594096 
L 206.914826 64.25637 
L 207.549711 59.042829 
L 208.184595 66.26159 
L 208.81948 66.557094 
L 209.454364 70.673064 
L 210.089249 61.491305 
L 210.724133 65.248412 
L 211.359018 65.712804 
L 211.993902 63.855337 
L 212.628787 63.897559 
L 213.263671 61.575699 
L 213.898556 62.166707 
L 214.53344 70.609756 
L 215.168325 60.900297 
L 215.803209 63.053269 
L 216.438094 59.781589 
L 217.072978 62.652185 
L 217.707863 64.931822 
L 218.342747 65.543916 
L 218.977632 59.844897 
L 219.612516 65.396164 
L 220.247401 59.063915 
L 220.882285 63.116577 
L 221.51717 67.95017 
L 222.152054 59.929341 
L 222.786939 62.018955 
L 223.421823 61.913425 
L 224.056708 62.272287 
L 224.691592 62.314459 
L 225.326477 67.232546 
L 225.961362 60.013785 
L 226.596246 64.25637 
L 227.231131 64.340815 
L 227.866015 60.435905 
L 228.5009 62.652185 
L 229.135784 63.644277 
L 229.770669 65.332856 
L 230.405553 61.069135 
L 231.040438 59.612701 
L 231.675322 66.979264 
L 232.945091 57.628617 
L 233.579976 61.048049 
L 234.21486 59.401641 
L 234.849745 61.406861 
L 235.484629 59.148359 
L 236.119514 59.654923 
L 236.754398 64.509652 
L 237.389283 61.955647 
L 238.024167 60.520349 
L 238.659052 64.762934 
L 239.293936 65.016266 
L 239.928821 58.325155 
L 240.563705 62.778851 
L 241.19859 64.509652 
L 241.833474 70.208671 
L 242.468359 63.074355 
L 243.103243 62.377817 
L 243.738128 63.412081 
L 244.373012 63.602055 
L 245.007897 58.958385 
L 245.642781 61.385775 
L 246.277666 67.253632 
L 246.91255 61.575699 
L 247.547435 60.773631 
L 248.18232 61.892339 
L 248.817204 62.377817 
L 249.452089 60.140401 
L 250.086973 58.578437 
L 250.721858 61.850117 
L 251.356742 61.406861 
L 251.991627 64.952908 
L 252.626511 60.731409 
L 253.261396 61.723451 
L 253.89628 58.895077 
L 254.531165 57.290891 
L 255.800934 64.741848 
L 256.435818 64.573011 
L 257.070703 63.454303 
L 257.705587 64.826292 
L 258.340472 64.150841 
L 258.975356 61.596835 
L 259.610241 63.433166 
L 260.245125 59.950427 
L 260.88001 61.723451 
L 261.514894 58.451821 
L 262.149779 60.541435 
L 262.784663 61.554613 
L 263.419548 59.844897 
L 264.054432 58.662881 
L 264.689317 57.206447 
L 265.324201 59.401641 
L 265.959086 65.016266 
L 266.59397 64.78407 
L 267.228855 60.288153 
L 267.863739 56.784328 
L 268.498624 60.541435 
L 269.133509 57.438643 
L 269.768393 61.681279 
L 270.403278 59.190581 
L 271.038162 60.625879 
L 271.673047 60.879161 
L 272.307931 58.240711 
L 272.942816 60.077093 
L 273.5777 58.388463 
L 274.212585 59.760453 
L 274.847469 56.573217 
L 275.482354 59.697145 
L 276.117238 60.245931 
L 276.752123 61.660143 
L 277.387007 54.694664 
L 278.021892 63.939781 
L 278.656776 58.219625 
L 279.926545 72.636061 
L 280.56143 70.715286 
L 281.196314 60.309289 
L 281.831199 58.958385 
L 282.466083 56.045568 
L 283.100968 56.467688 
L 283.735852 65.797198 
L 284.370737 61.554613 
L 285.005621 55.897816 
L 285.640506 61.871203 
L 286.27539 60.794717 
L 286.910275 56.129962 
L 287.545159 55.45456 
L 288.180044 63.960866 
L 288.814928 58.536215 
L 289.449813 60.794717 
L 290.084697 60.351461 
L 291.354467 57.797455 
L 291.989351 59.464949 
L 292.624236 59.127223 
L 293.25912 64.150841 
L 293.894005 56.425465 
L 294.528889 60.562571 
L 295.163774 61.976783 
L 295.798658 64.741848 
L 296.433543 55.834458 
L 297.068427 65.079574 
L 297.703312 57.333114 
L 298.338196 56.50991 
L 298.973081 56.573217 
L 299.607965 58.747325 
L 300.24285 58.726189 
L 300.877734 62.757765 
L 302.147503 59.443863 
L 302.782388 59.507171 
L 303.417272 69.74433 
L 304.052157 54.990168 
L 304.687041 57.586395 
L 305.321926 59.549393 
L 305.95681 57.100917 
L 306.591695 58.409599 
L 307.226579 68.604536 
L 308.496348 61.385775 
L 309.131233 55.813372 
L 309.766117 59.063915 
L 310.401002 57.839677 
L 311.035886 57.100917 
L 311.670771 61.850117 
L 312.305656 58.219625 
L 312.94054 57.881899 
L 313.575425 57.164225 
L 314.210309 55.939988 
L 314.845194 59.359419 
L 315.480078 57.544173 
L 316.114963 58.683967 
L 316.749847 55.77115 
L 317.384732 67.338076 
L 318.019616 56.108876 
L 318.654501 62.715543 
L 319.289385 65.31177 
L 319.92427 58.895077 
L 320.559154 56.531046 
L 321.194039 58.536215 
L 321.828923 61.681279 
L 322.463808 63.559833 
L 323.098692 55.180142 
L 323.733577 65.62836 
L 324.368461 62.377817 
L 325.003346 60.034871 
L 325.63823 55.56009 
L 326.273115 59.739367 
L 326.907999 58.599573 
L 328.177768 54.905724 
L 328.812653 61.955647 
L 329.447537 57.164225 
L 330.082422 62.546655 
L 330.717306 57.14314 
L 331.352191 58.768411 
L 331.987075 69.681022 
L 332.62196 59.148359 
L 333.256844 57.311977 
L 333.891729 56.319936 
L 334.526614 56.678798 
L 335.161498 54.335852 
L 335.796383 64.3619 
L 336.431267 67.31694 
L 337.066152 56.573217 
L 337.701036 59.908205 
L 338.335921 58.557351 
L 338.970805 65.037352 
L 339.60569 57.311977 
L 340.240574 64.171926 
L 340.875459 61.596835 
L 341.510343 57.755284 
L 342.145228 59.190581 
L 342.780112 57.881899 
L 343.414997 60.077093 
L 344.049881 58.008565 
L 344.684766 59.317197 
L 345.31965 56.003346 
L 345.954535 59.148359 
L 346.589419 53.575956 
L 347.859188 60.625879 
L 348.494073 57.248669 
L 349.128957 60.245931 
L 349.763842 57.860814 
L 350.398726 62.082313 
L 351.033611 59.211667 
L 351.668495 59.148359 
L 352.30338 54.842416 
L 352.938264 59.823811 
L 353.573149 68.456784 
L 354.208033 54.420296 
L 354.842918 56.699884 
L 355.477803 57.206447 
L 356.112687 56.784328 
L 356.747572 55.370116 
L 357.382456 62.610013 
L 358.017341 59.971563 
L 358.652225 58.873941 
L 359.28711 64.699626 
L 359.921994 56.108876 
L 360.556879 60.900297 
L 361.191763 58.114095 
L 362.461532 54.272494 
L 363.096417 64.974044 
L 363.731301 57.924121 
L 364.366186 60.435905 
L 365.00107 63.918644 
L 365.635955 59.760453 
L 366.270839 56.467688 
L 366.905724 57.375336 
L 367.540608 65.164018 
L 368.175493 55.45456 
L 368.810377 54.546912 
L 369.445262 57.100917 
L 370.715031 58.768411 
L 371.9848 55.602312 
L 372.619684 58.282933 
L 373.254569 56.805414 
L 373.889453 65.016266 
L 374.524338 57.480865 
L 375.159222 53.892596 
L 375.794107 59.908205 
L 376.428991 59.211667 
L 377.063876 66.47265 
L 377.698761 61.427947 
L 378.333645 58.683967 
L 378.96853 55.222364 
L 379.603414 56.19332 
L 380.238299 66.324898 
L 380.873183 57.734147 
L 381.508068 60.583657 
L 382.142952 57.164225 
L 382.777837 66.15606 
L 384.047606 57.058695 
L 384.68249 55.011304 
L 385.317375 55.391202 
L 385.952259 63.264329 
L 386.587144 56.29885 
L 387.222028 58.19854 
L 387.856913 57.734147 
L 388.491797 58.219625 
L 389.126682 52.647222 
L 389.761566 60.478127 
L 390.396451 57.818591 
L 391.031335 58.050788 
L 391.66622 55.87668 
L 392.301104 56.910943 
L 392.935989 55.834458 
L 393.570873 54.462468 
L 394.205758 62.103399 
L 394.840642 58.388463 
L 395.475527 56.868721 
L 396.110411 61.871203 
L 396.745296 54.947946 
L 397.38018 58.536215 
L 398.015065 53.97699 
L 398.64995 52.942726 
L 399.284834 58.071873 
L 399.919719 55.834458 
L 400.554603 56.678798 
L 401.189488 62.799937 
L 401.824372 61.681279 
L 402.459257 61.512391 
L 403.729026 54.757972 
L 404.36391 69.934304 
L 404.998795 57.227584 
L 405.633679 57.269806 
L 406.268564 56.847636 
L 406.903448 60.836939 
L 407.538333 63.517611 
L 408.173217 56.847636 
L 408.808102 59.633837 
L 409.442986 54.29363 
L 410.077871 60.034871 
L 410.712755 56.763191 
L 411.34764 54.842416 
L 411.982524 57.966343 
L 412.617409 56.93208 
L 413.252293 57.333114 
L 413.887178 57.311977 
L 414.522062 56.425465 
L 415.156947 55.918902 
L 415.791831 63.559833 
L 416.426716 58.831719 
L 417.0616 60.330375 
L 417.696485 60.013785 
L 418.331369 58.472907 
L 418.966254 54.230322 
L 419.601138 58.304069 
L 420.870908 64.129704 
L 421.505792 56.488824 
L 422.140677 60.562571 
L 422.775561 57.987429 
L 423.410446 61.195801 
L 424.680215 55.45456 
L 425.315099 59.718281 
L 425.949984 58.050788 
L 427.219753 56.93208 
L 427.854637 58.325155 
L 428.489522 70.1665 
L 429.124406 53.744844 
L 429.759291 58.895077 
L 430.394175 59.802675 
L 431.02906 53.829238 
L 431.663944 55.053476 
L 432.298829 53.23823 
L 432.933713 56.151098 
L 433.568598 55.939988 
L 434.203482 57.713062 
L 434.838367 54.990168 
L 435.473251 54.441382 
L 436.108136 55.792236 
L 436.74302 56.383294 
L 437.377905 64.931822 
L 438.012789 55.053476 
L 438.647674 63.770892 
L 439.282558 53.934818 
L 439.917443 56.910943 
L 440.552327 53.512648 
L 441.187212 61.026913 
L 441.822097 56.235542 
L 442.456981 53.575956 
L 443.091866 57.058695 
L 443.72675 57.206447 
L 444.361635 61.343553 
L 444.996519 56.573217 
L 445.631404 60.942519 
L 446.266288 54.420296 
L 446.901173 54.694664 
L 447.536057 57.438643 
L 448.170942 63.602055 
L 448.805826 55.13792 
L 449.440711 56.003346 
L 450.075595 59.380555 
L 450.71048 56.784328 
L 451.345364 56.552132 
L 451.980249 60.921383 
L 452.615133 58.599573 
L 453.250018 58.873941 
L 453.884902 53.808152 
L 455.154671 61.153579 
L 456.42444 54.905724 
L 457.059325 57.016473 
L 457.694209 54.546912 
L 458.329094 57.438643 
L 458.963978 54.568048 
L 459.598863 58.726189 
L 460.233747 60.372597 
L 460.868632 54.209186 
L 461.503516 63.285415 
L 462.138401 58.19854 
L 462.773285 55.391202 
L 463.40817 54.61022 
L 464.043055 58.831719 
L 464.677939 65.902778 
L 465.312824 58.979471 
L 465.947708 55.961124 
L 466.582593 60.309289 
L 467.217477 55.116834 
L 467.852362 57.03761 
L 468.487246 61.322417 
L 469.122131 56.19332 
L 469.757015 60.098179 
L 470.3919 57.691925 
L 471.026784 53.597092 
L 471.661669 62.905517 
L 472.296553 57.122054 
L 472.931438 61.470169 
L 473.566322 59.929341 
L 474.201207 55.116834 
L 474.836091 56.678798 
L 475.470976 54.462468 
L 476.10586 57.03761 
L 476.740745 53.217144 
L 477.375629 50.663138 
L 478.010514 57.713062 
L 478.645398 56.974302 
L 479.280283 56.425465 
L 479.915167 61.850117 
L 480.550052 55.538954 
L 481.184936 57.67084 
L 481.819821 55.644484 
L 482.454705 64.024174 
L 483.08959 59.633837 
L 483.724474 57.966343 
L 484.359359 57.966343 
L 484.994244 57.122054 
L 485.629128 55.24345 
L 486.264013 58.367377 
L 486.898897 54.29363 
L 487.533782 55.327894 
L 488.803551 58.831719 
L 489.438435 56.953165 
L 490.07332 52.689444 
L 490.708204 58.852855 
L 491.343089 52.773888 
L 491.977973 59.992649 
L 492.612858 56.08779 
L 493.247742 55.285672 
L 493.882627 53.069392 
L 494.517511 54.7158 
L 495.152396 51.929598 
L 495.78728 67.359162 
L 496.422165 57.016473 
L 497.057049 66.57818 
L 497.691934 57.227584 
L 498.326818 54.483604 
L 498.961703 55.517868 
L 499.596587 61.807895 
L 500.231472 54.29363 
L 500.866356 55.327894 
L 501.501241 54.50469 
L 502.136125 59.549393 
L 502.77101 53.6604 
L 503.405894 60.330375 
L 504.040779 53.259366 
L 504.675663 62.420039 
L 505.945433 56.024432 
L 506.580317 61.005827 
L 507.215202 60.858075 
L 507.850086 57.14314 
L 508.484971 59.359419 
L 509.119855 56.024432 
L 509.75474 53.597092 
L 510.389624 57.881899 
L 511.024509 55.45456 
L 511.659393 57.333114 
L 512.294278 56.425465 
L 512.929162 57.67084 
L 513.564047 55.918902 
L 514.198931 57.734147 
L 514.833816 52.605 
L 515.4687 55.538954 
L 516.103585 53.87146 
L 516.738469 57.544173 
L 517.373354 55.98221 
L 518.008238 55.56009 
L 518.643123 51.190838 
L 519.278007 53.533734 
L 519.912892 53.217144 
L 520.547776 60.330375 
L 521.182661 53.639314 
L 521.817545 56.319936 
L 522.45243 56.319936 
L 523.087314 53.575956 
L 523.722199 58.367377 
L 524.357083 58.071873 
L 524.991968 54.842416 
L 525.626852 58.494043 
L 526.896621 53.808152 
L 527.531506 56.362158 
L 528.166391 54.335852 
L 528.801275 59.338333 
L 529.43616 56.82655 
L 530.071044 55.327894 
L 530.705929 58.641795 
L 531.340813 56.868721 
L 531.975698 53.111614 
L 532.610582 54.483604 
L 533.245467 61.238023 
L 533.880351 53.597092 
L 534.515236 60.984691 
L 535.15012 58.726189 
L 535.785005 58.873941 
L 536.419889 55.750064 
L 537.054774 54.694664 
L 537.689658 58.873941 
L 538.324543 55.24345 
L 538.959427 53.069392 
L 539.594312 57.987429 
L 540.229196 64.235285 
L 540.864081 58.683967 
L 541.498965 57.227584 
L 542.13385 57.586395 
L 542.768734 54.378074 
L 543.403619 55.074612 
L 544.038503 57.290891 
L 544.673388 56.066654 
L 545.308272 55.24345 
L 545.943157 55.56009 
L 546.578041 57.839677 
L 547.212926 67.042572 
L 547.84781 55.095698 
L 548.482695 56.995388 
L 549.11758 54.50469 
L 549.752464 61.132443 
L 550.387349 61.660143 
L 551.022233 56.108876 
L 551.657118 59.127223 
L 552.292002 55.285672 
L 552.926887 57.227584 
L 553.561771 59.823811 
L 554.196656 54.61022 
L 554.83154 51.54965 
L 555.466425 65.079574 
L 556.101309 60.794717 
L 556.736194 61.385775 
L 557.371078 58.409599 
L 558.005963 61.723451 
L 558.640847 57.354199 
L 559.275732 63.243192 
L 559.910616 57.586395 
L 560.545501 54.230322 
L 561.180385 54.314716 
L 561.81527 56.910943 
L 562.450154 52.309496 
L 563.719923 57.269806 
L 564.354808 56.362158 
L 564.989692 58.029651 
L 565.624577 57.987429 
L 566.259461 52.731666 
L 566.894346 53.364896 
L 567.52923 55.306808 
L 568.164115 56.024432 
L 568.798999 59.633837 
L 569.433884 60.858075 
L 570.068768 50.515387 
L 570.703653 63.960866 
L 571.338538 54.209186 
L 571.973422 59.844897 
L 572.608307 54.124742 
L 573.243191 55.159056 
L 573.878076 55.180142 
L 574.51296 50.958642 
L 575.147845 54.631356 
L 575.782729 59.359419 
L 576.417614 56.256628 
L 576.417614 56.256628 
" clip-path="url(#p399a2a68a5)" style="fill: none; stroke: #ff7f0e; stroke-width: 1.5; stroke-linecap: square"/>
   </g>
   <g id="line2d_35">
    <path d="M 43.78125 551.518125 
L 601.78125 551.518125 
" clip-path="url(#p399a2a68a5)" style="fill: none; stroke-dasharray: 11.1,4.8; stroke-dashoffset: 0; stroke: #ff0000; stroke-width: 3"/>
   </g>
   <g id="patch_3">
    <path d="M 43.78125 576.718125 
L 43.78125 22.318125 
" style="fill: none; stroke: #000000; stroke-width: 0.8; stroke-linejoin: miter; stroke-linecap: square"/>
   </g>
   <g id="patch_4">
    <path d="M 601.78125 576.718125 
L 601.78125 22.318125 
" style="fill: none; stroke: #000000; stroke-width: 0.8; stroke-linejoin: miter; stroke-linecap: square"/>
   </g>
   <g id="patch_5">
    <path d="M 43.78125 576.718125 
L 601.78125 576.718125 
" style="fill: none; stroke: #000000; stroke-width: 0.8; stroke-linejoin: miter; stroke-linecap: square"/>
   </g>
   <g id="patch_6">
    <path d="M 43.78125 22.318125 
L 601.78125 22.318125 
" style="fill: none; stroke: #000000; stroke-width: 0.8; stroke-linejoin: miter; stroke-linecap: square"/>
   </g>
   <g id="text_19">
    <!-- Train and Val Accuracy -->
    <g transform="translate(255.002813 16.318125) scale(0.12 -0.12)">
     <defs>
      <path id="DejaVuSans-54" d="M -19 4666 
L 3928 4666 
L 3928 4134 
L 2272 4134 
L 2272 0 
L 1638 0 
L 1638 4134 
L -19 4134 
L -19 4666 
z
" transform="scale(0.015625)"/>
      <path id="DejaVuSans-69" d="M 603 3500 
L 1178 3500 
L 1178 0 
L 603 0 
L 603 3500 
z
M 603 4863 
L 1178 4863 
L 1178 4134 
L 603 4134 
L 603 4863 
z
" transform="scale(0.015625)"/>
      <path id="DejaVuSans-6e" d="M 3513 2113 
L 3513 0 
L 2938 0 
L 2938 2094 
Q 2938 2591 2744 2837 
Q 2550 3084 2163 3084 
Q 1697 3084 1428 2787 
Q 1159 2491 1159 1978 
L 1159 0 
L 581 0 
L 581 3500 
L 1159 3500 
L 1159 2956 
Q 1366 3272 1645 3428 
Q 1925 3584 2291 3584 
Q 2894 3584 3203 3211 
Q 3513 2838 3513 2113 
z
" transform="scale(0.015625)"/>
      <path id="DejaVuSans-20" transform="scale(0.015625)"/>
      <path id="DejaVuSans-64" d="M 2906 2969 
L 2906 4863 
L 3481 4863 
L 3481 0 
L 2906 0 
L 2906 525 
Q 2725 213 2448 61 
Q 2172 -91 1784 -91 
Q 1150 -91 751 415 
Q 353 922 353 1747 
Q 353 2572 751 3078 
Q 1150 3584 1784 3584 
Q 2172 3584 2448 3432 
Q 2725 3281 2906 2969 
z
M 947 1747 
Q 947 1113 1208 752 
Q 1469 391 1925 391 
Q 2381 391 2643 752 
Q 2906 1113 2906 1747 
Q 2906 2381 2643 2742 
Q 2381 3103 1925 3103 
Q 1469 3103 1208 2742 
Q 947 2381 947 1747 
z
" transform="scale(0.015625)"/>
      <path id="DejaVuSans-56" d="M 1831 0 
L 50 4666 
L 709 4666 
L 2188 738 
L 3669 4666 
L 4325 4666 
L 2547 0 
L 1831 0 
z
" transform="scale(0.015625)"/>
      <path id="DejaVuSans-6c" d="M 603 4863 
L 1178 4863 
L 1178 0 
L 603 0 
L 603 4863 
z
" transform="scale(0.015625)"/>
     </defs>
     <use xlink:href="#DejaVuSans-54"/>
     <use xlink:href="#DejaVuSans-72" transform="translate(46.333984 0)"/>
     <use xlink:href="#DejaVuSans-61" transform="translate(87.447266 0)"/>
     <use xlink:href="#DejaVuSans-69" transform="translate(148.726562 0)"/>
     <use xlink:href="#DejaVuSans-6e" transform="translate(176.509766 0)"/>
     <use xlink:href="#DejaVuSans-20" transform="translate(239.888672 0)"/>
     <use xlink:href="#DejaVuSans-61" transform="translate(271.675781 0)"/>
     <use xlink:href="#DejaVuSans-6e" transform="translate(332.955078 0)"/>
     <use xlink:href="#DejaVuSans-64" transform="translate(396.333984 0)"/>
     <use xlink:href="#DejaVuSans-20" transform="translate(459.810547 0)"/>
     <use xlink:href="#DejaVuSans-56" transform="translate(491.597656 0)"/>
     <use xlink:href="#DejaVuSans-61" transform="translate(552.255859 0)"/>
     <use xlink:href="#DejaVuSans-6c" transform="translate(613.535156 0)"/>
     <use xlink:href="#DejaVuSans-20" transform="translate(641.318359 0)"/>
     <use xlink:href="#DejaVuSans-41" transform="translate(673.105469 0)"/>
     <use xlink:href="#DejaVuSans-63" transform="translate(739.763672 0)"/>
     <use xlink:href="#DejaVuSans-63" transform="translate(794.744141 0)"/>
     <use xlink:href="#DejaVuSans-75" transform="translate(849.724609 0)"/>
     <use xlink:href="#DejaVuSans-72" transform="translate(913.103516 0)"/>
     <use xlink:href="#DejaVuSans-61" transform="translate(954.216797 0)"/>
     <use xlink:href="#DejaVuSans-63" transform="translate(1015.496094 0)"/>
     <use xlink:href="#DejaVuSans-79" transform="translate(1070.476562 0)"/>
    </g>
   </g>
   <g id="legend_1">
    <g id="patch_7">
     <path d="M 427.657812 323.313438 
L 594.78125 323.313438 
Q 596.78125 323.313438 596.78125 321.313438 
L 596.78125 277.722813 
Q 596.78125 275.722813 594.78125 275.722813 
L 427.657812 275.722813 
Q 425.657812 275.722813 425.657812 277.722813 
L 425.657812 321.313438 
Q 425.657812 323.313438 427.657812 323.313438 
z
" style="fill: #ffffff; opacity: 0.8; stroke: #cccccc; stroke-linejoin: miter"/>
    </g>
    <g id="line2d_36">
     <path d="M 429.657812 283.82125 
L 439.657812 283.82125 
L 449.657812 283.82125 
" style="fill: none; stroke: #1f77b4; stroke-width: 1.5; stroke-linecap: square"/>
    </g>
    <g id="text_20">
     <!-- train_accuracy -->
     <g transform="translate(457.657812 287.32125) scale(0.1 -0.1)">
      <defs>
       <path id="DejaVuSans-74" d="M 1172 4494 
L 1172 3500 
L 2356 3500 
L 2356 3053 
L 1172 3053 
L 1172 1153 
Q 1172 725 1289 603 
Q 1406 481 1766 481 
L 2356 481 
L 2356 0 
L 1766 0 
Q 1100 0 847 248 
Q 594 497 594 1153 
L 594 3053 
L 172 3053 
L 172 3500 
L 594 3500 
L 594 4494 
L 1172 4494 
z
" transform="scale(0.015625)"/>
       <path id="DejaVuSans-5f" d="M 3263 -1063 
L 3263 -1509 
L -63 -1509 
L -63 -1063 
L 3263 -1063 
z
" transform="scale(0.015625)"/>
      </defs>
      <use xlink:href="#DejaVuSans-74"/>
      <use xlink:href="#DejaVuSans-72" transform="translate(39.208984 0)"/>
      <use xlink:href="#DejaVuSans-61" transform="translate(80.322266 0)"/>
      <use xlink:href="#DejaVuSans-69" transform="translate(141.601562 0)"/>
      <use xlink:href="#DejaVuSans-6e" transform="translate(169.384766 0)"/>
      <use xlink:href="#DejaVuSans-5f" transform="translate(232.763672 0)"/>
      <use xlink:href="#DejaVuSans-61" transform="translate(282.763672 0)"/>
      <use xlink:href="#DejaVuSans-63" transform="translate(344.042969 0)"/>
      <use xlink:href="#DejaVuSans-63" transform="translate(399.023438 0)"/>
      <use xlink:href="#DejaVuSans-75" transform="translate(454.003906 0)"/>
      <use xlink:href="#DejaVuSans-72" transform="translate(517.382812 0)"/>
      <use xlink:href="#DejaVuSans-61" transform="translate(558.496094 0)"/>
      <use xlink:href="#DejaVuSans-63" transform="translate(619.775391 0)"/>
      <use xlink:href="#DejaVuSans-79" transform="translate(674.755859 0)"/>
     </g>
    </g>
    <g id="line2d_37">
     <path d="M 429.657812 298.7775 
L 439.657812 298.7775 
L 449.657812 298.7775 
" style="fill: none; stroke: #ff7f0e; stroke-width: 1.5; stroke-linecap: square"/>
    </g>
    <g id="text_21">
     <!-- val_accuracy -->
     <g transform="translate(457.657812 302.2775) scale(0.1 -0.1)">
      <defs>
       <path id="DejaVuSans-76" d="M 191 3500 
L 800 3500 
L 1894 563 
L 2988 3500 
L 3597 3500 
L 2284 0 
L 1503 0 
L 191 3500 
z
" transform="scale(0.015625)"/>
      </defs>
      <use xlink:href="#DejaVuSans-76"/>
      <use xlink:href="#DejaVuSans-61" transform="translate(59.179688 0)"/>
      <use xlink:href="#DejaVuSans-6c" transform="translate(120.458984 0)"/>
      <use xlink:href="#DejaVuSans-5f" transform="translate(148.242188 0)"/>
      <use xlink:href="#DejaVuSans-61" transform="translate(198.242188 0)"/>
      <use xlink:href="#DejaVuSans-63" transform="translate(259.521484 0)"/>
      <use xlink:href="#DejaVuSans-63" transform="translate(314.501953 0)"/>
      <use xlink:href="#DejaVuSans-75" transform="translate(369.482422 0)"/>
      <use xlink:href="#DejaVuSans-72" transform="translate(432.861328 0)"/>
      <use xlink:href="#DejaVuSans-61" transform="translate(473.974609 0)"/>
      <use xlink:href="#DejaVuSans-63" transform="translate(535.253906 0)"/>
      <use xlink:href="#DejaVuSans-79" transform="translate(590.234375 0)"/>
     </g>
    </g>
    <g id="line2d_38">
     <path d="M 429.657812 313.73375 
L 439.657812 313.73375 
L 449.657812 313.73375 
" style="fill: none; stroke-dasharray: 11.1,4.8; stroke-dashoffset: 0; stroke: #ff0000; stroke-width: 3"/>
    </g>
    <g id="text_22">
     <!-- Random-Guesser Accuracy -->
     <g transform="translate(457.657812 317.23375) scale(0.1 -0.1)">
      <defs>
       <path id="DejaVuSans-52" d="M 2841 2188 
Q 3044 2119 3236 1894 
Q 3428 1669 3622 1275 
L 4263 0 
L 3584 0 
L 2988 1197 
Q 2756 1666 2539 1819 
Q 2322 1972 1947 1972 
L 1259 1972 
L 1259 0 
L 628 0 
L 628 4666 
L 2053 4666 
Q 2853 4666 3247 4331 
Q 3641 3997 3641 3322 
Q 3641 2881 3436 2590 
Q 3231 2300 2841 2188 
z
M 1259 4147 
L 1259 2491 
L 2053 2491 
Q 2509 2491 2742 2702 
Q 2975 2913 2975 3322 
Q 2975 3731 2742 3939 
Q 2509 4147 2053 4147 
L 1259 4147 
z
" transform="scale(0.015625)"/>
       <path id="DejaVuSans-6d" d="M 3328 2828 
Q 3544 3216 3844 3400 
Q 4144 3584 4550 3584 
Q 5097 3584 5394 3201 
Q 5691 2819 5691 2113 
L 5691 0 
L 5113 0 
L 5113 2094 
Q 5113 2597 4934 2840 
Q 4756 3084 4391 3084 
Q 3944 3084 3684 2787 
Q 3425 2491 3425 1978 
L 3425 0 
L 2847 0 
L 2847 2094 
Q 2847 2600 2669 2842 
Q 2491 3084 2119 3084 
Q 1678 3084 1418 2786 
Q 1159 2488 1159 1978 
L 1159 0 
L 581 0 
L 581 3500 
L 1159 3500 
L 1159 2956 
Q 1356 3278 1631 3431 
Q 1906 3584 2284 3584 
Q 2666 3584 2933 3390 
Q 3200 3197 3328 2828 
z
" transform="scale(0.015625)"/>
       <path id="DejaVuSans-2d" d="M 313 2009 
L 1997 2009 
L 1997 1497 
L 313 1497 
L 313 2009 
z
" transform="scale(0.015625)"/>
       <path id="DejaVuSans-47" d="M 3809 666 
L 3809 1919 
L 2778 1919 
L 2778 2438 
L 4434 2438 
L 4434 434 
Q 4069 175 3628 42 
Q 3188 -91 2688 -91 
Q 1594 -91 976 548 
Q 359 1188 359 2328 
Q 359 3472 976 4111 
Q 1594 4750 2688 4750 
Q 3144 4750 3555 4637 
Q 3966 4525 4313 4306 
L 4313 3634 
Q 3963 3931 3569 4081 
Q 3175 4231 2741 4231 
Q 1884 4231 1454 3753 
Q 1025 3275 1025 2328 
Q 1025 1384 1454 906 
Q 1884 428 2741 428 
Q 3075 428 3337 486 
Q 3600 544 3809 666 
z
" transform="scale(0.015625)"/>
       <path id="DejaVuSans-65" d="M 3597 1894 
L 3597 1613 
L 953 1613 
Q 991 1019 1311 708 
Q 1631 397 2203 397 
Q 2534 397 2845 478 
Q 3156 559 3463 722 
L 3463 178 
Q 3153 47 2828 -22 
Q 2503 -91 2169 -91 
Q 1331 -91 842 396 
Q 353 884 353 1716 
Q 353 2575 817 3079 
Q 1281 3584 2069 3584 
Q 2775 3584 3186 3129 
Q 3597 2675 3597 1894 
z
M 3022 2063 
Q 3016 2534 2758 2815 
Q 2500 3097 2075 3097 
Q 1594 3097 1305 2825 
Q 1016 2553 972 2059 
L 3022 2063 
z
" transform="scale(0.015625)"/>
      </defs>
      <use xlink:href="#DejaVuSans-52"/>
      <use xlink:href="#DejaVuSans-61" transform="translate(67.232422 0)"/>
      <use xlink:href="#DejaVuSans-6e" transform="translate(128.511719 0)"/>
      <use xlink:href="#DejaVuSans-64" transform="translate(191.890625 0)"/>
      <use xlink:href="#DejaVuSans-6f" transform="translate(255.367188 0)"/>
      <use xlink:href="#DejaVuSans-6d" transform="translate(316.548828 0)"/>
      <use xlink:href="#DejaVuSans-2d" transform="translate(413.960938 0)"/>
      <use xlink:href="#DejaVuSans-47" transform="translate(453.669922 0)"/>
      <use xlink:href="#DejaVuSans-75" transform="translate(531.160156 0)"/>
      <use xlink:href="#DejaVuSans-65" transform="translate(594.539062 0)"/>
      <use xlink:href="#DejaVuSans-73" transform="translate(656.0625 0)"/>
      <use xlink:href="#DejaVuSans-73" transform="translate(708.162109 0)"/>
      <use xlink:href="#DejaVuSans-65" transform="translate(760.261719 0)"/>
      <use xlink:href="#DejaVuSans-72" transform="translate(821.785156 0)"/>
      <use xlink:href="#DejaVuSans-20" transform="translate(862.898438 0)"/>
      <use xlink:href="#DejaVuSans-41" transform="translate(894.685547 0)"/>
      <use xlink:href="#DejaVuSans-63" transform="translate(961.34375 0)"/>
      <use xlink:href="#DejaVuSans-63" transform="translate(1016.324219 0)"/>
      <use xlink:href="#DejaVuSans-75" transform="translate(1071.304688 0)"/>
      <use xlink:href="#DejaVuSans-72" transform="translate(1134.683594 0)"/>
      <use xlink:href="#DejaVuSans-61" transform="translate(1175.796875 0)"/>
      <use xlink:href="#DejaVuSans-63" transform="translate(1237.076172 0)"/>
      <use xlink:href="#DejaVuSans-79" transform="translate(1292.056641 0)"/>
     </g>
    </g>
   </g>
  </g>
 </g>
 <defs>
  <clipPath id="p399a2a68a5">
   <rect x="43.78125" y="22.318125" width="558" height="554.4"/>
  </clipPath>
 </defs>
</svg>
