<?xml version="1.0" encoding="utf-8" standalone="no"?>
<!DOCTYPE svg PUBLIC "-//W3C//DTD SVG 1.1//EN"
  "http://www.w3.org/Graphics/SVG/1.1/DTD/svg11.dtd">
<svg xmlns:xlink="http://www.w3.org/1999/xlink" width="608.98125pt" height="614.274375pt" viewBox="0 0 608.98125 614.274375" xmlns="http://www.w3.org/2000/svg" version="1.1">
 <metadata>
  <rdf:RDF xmlns:dc="http://purl.org/dc/elements/1.1/" xmlns:cc="http://creativecommons.org/ns#" xmlns:rdf="http://www.w3.org/1999/02/22-rdf-syntax-ns#">
   <cc:Work>
    <dc:type rdf:resource="http://purl.org/dc/dcmitype/StillImage"/>
    <dc:date>2026-06-03T12:26:57.641636</dc:date>
    <dc:format>image/svg+xml</dc:format>
    <dc:creator>
     <cc:Agent>
      <dc:title>Matplotlib v3.10.9, https://matplotlib.org/</dc:title>
     </cc:Agent>
    </dc:creator>
   </cc:Work>
  </rdf:RDF>
 </metadata>
 <defs>
  <style type="text/css">*{stroke-linejoin: round; stroke-linecap: butt}</style>
 </defs>
 <g id="figure_1">
  <g id="patch_1">
   <path d="M 0 614.274375 
L 608.98125 614.274375 
L 608.98125 0 
L 0 0 
z
" style="fill: #ffffff"/>
  </g>
  <g id="axes_1">
   <g id="patch_2">
    <path d="M 43.78125 576.718125 
L 601.78125 576.718125 
L 601.78125 22.318125 
L 43.78125 22.318125 
z
" style="fill: #ffffff"/>
   </g>
   <g id="matplotlib.axis_1">
    <g id="xtick_1">
     <g id="line2d_1">
      <path d="M 69.144886 576.718125 
L 69.144886 22.318125 
" clip-path="url(#p6f543fa423)" style="fill: none; stroke: #b0b0b0; stroke-width: 0.8; stroke-linecap: square"/>
     </g>
     <g id="line2d_2">
      <defs>
       <path id="m0f43dfc132" d="M 0 0 
L 0 3.5 
" style="stroke: #000000; stroke-width: 0.8"/>
      </defs>
      <g>
       <use xlink:href="#m0f43dfc132" x="69.144886" y="576.718125" style="stroke: #000000; stroke-width: 0.8"/>
      </g>
     </g>
     <g id="text_1">
      <!-- 0 -->
      <g transform="translate(65.963636 591.316563) scale(0.1 -0.1)">
       <defs>
        <path id="DejaVuSans-30" d="M 2034 4250 
Q 1547 4250 1301 3770 
Q 1056 3291 1056 2328 
Q 1056 1369 1301 889 
Q 1547 409 2034 409 
Q 2525 409 2770 889 
Q 3016 1369 3016 2328 
Q 3016 3291 2770 3770 
Q 2525 4250 2034 4250 
z
M 2034 4750 
Q 2819 4750 3233 4129 
Q 3647 3509 3647 2328 
Q 3647 1150 3233 529 
Q 2819 -91 2034 -91 
Q 1250 -91 836 529 
Q 422 1150 422 2328 
Q 422 3509 836 4129 
Q 1250 4750 2034 4750 
z
" transform="scale(0.015625)"/>
       </defs>
       <use xlink:href="#DejaVuSans-30"/>
      </g>
     </g>
    </g>
    <g id="xtick_2">
     <g id="line2d_3">
      <path d="M 132.633338 576.718125 
L 132.633338 22.318125 
" clip-path="url(#p6f543fa423)" style="fill: none; stroke: #b0b0b0; stroke-width: 0.8; stroke-linecap: square"/>
     </g>
     <g id="line2d_4">
      <g>
       <use xlink:href="#m0f43dfc132" x="132.633338" y="576.718125" style="stroke: #000000; stroke-width: 0.8"/>
      </g>
     </g>
     <g id="text_2">
      <!-- 100 -->
      <g transform="translate(123.089588 591.316563) scale(0.1 -0.1)">
       <defs>
        <path id="DejaVuSans-31" d="M 794 531 
L 1825 531 
L 1825 4091 
L 703 3866 
L 703 4441 
L 1819 4666 
L 2450 4666 
L 2450 531 
L 3481 531 
L 3481 0 
L 794 0 
L 794 531 
z
" transform="scale(0.015625)"/>
       </defs>
       <use xlink:href="#DejaVuSans-31"/>
       <use xlink:href="#DejaVuSans-30" transform="translate(63.623047 0)"/>
       <use xlink:href="#DejaVuSans-30" transform="translate(127.246094 0)"/>
      </g>
     </g>
    </g>
    <g id="xtick_3">
     <g id="line2d_5">
      <path d="M 196.121789 576.718125 
L 196.121789 22.318125 
" clip-path="url(#p6f543fa423)" style="fill: none; stroke: #b0b0b0; stroke-width: 0.8; stroke-linecap: square"/>
     </g>
     <g id="line2d_6">
      <g>
       <use xlink:href="#m0f43dfc132" x="196.121789" y="576.718125" style="stroke: #000000; stroke-width: 0.8"/>
      </g>
     </g>
     <g id="text_3">
      <!-- 200 -->
      <g transform="translate(186.578039 591.316563) scale(0.1 -0.1)">
       <defs>
        <path id="DejaVuSans-32" d="M 1228 531 
L 3431 531 
L 3431 0 
L 469 0 
L 469 531 
Q 828 903 1448 1529 
Q 2069 2156 2228 2338 
Q 2531 2678 2651 2914 
Q 2772 3150 2772 3378 
Q 2772 3750 2511 3984 
Q 2250 4219 1831 4219 
Q 1534 4219 1204 4116 
Q 875 4013 500 3803 
L 500 4441 
Q 881 4594 1212 4672 
Q 1544 4750 1819 4750 
Q 2544 4750 2975 4387 
Q 3406 4025 3406 3419 
Q 3406 3131 3298 2873 
Q 3191 2616 2906 2266 
Q 2828 2175 2409 1742 
Q 1991 1309 1228 531 
z
" transform="scale(0.015625)"/>
       </defs>
       <use xlink:href="#DejaVuSans-32"/>
       <use xlink:href="#DejaVuSans-30" transform="translate(63.623047 0)"/>
       <use xlink:href="#DejaVuSans-30" transform="translate(127.246094 0)"/>
      </g>
     </g>
    </g>
    <g id="xtick_4">
     <g id="line2d_7">
      <path d="M 259.610241 576.718125 
L 259.610241 22.318125 
" clip-path="url(#p6f543fa423)" style="fill: none; stroke: #b0b0b0; stroke-width: 0.8; stroke-linecap: square"/>
     </g>
     <g id="line2d_8">
      <g>
       <use xlink:href="#m0f43dfc132" x="259.610241" y="576.718125" style="stroke: #000000; stroke-width: 0.8"/>
      </g>
     </g>
     <g id="text_4">
      <!-- 300 -->
      <g transform="translate(250.066491 591.316563) scale(0.1 -0.1)">
       <defs>
        <path id="DejaVuSans-33" d="M 2597 2516 
Q 3050 2419 3304 2112 
Q 3559 1806 3559 1356 
Q 3559 666 3084 287 
Q 2609 -91 1734 -91 
Q 1441 -91 1130 -33 
Q 819 25 488 141 
L 488 750 
Q 750 597 1062 519 
Q 1375 441 1716 441 
Q 2309 441 2620 675 
Q 2931 909 2931 1356 
Q 2931 1769 2642 2001 
Q 2353 2234 1838 2234 
L 1294 2234 
L 1294 2753 
L 1863 2753 
Q 2328 2753 2575 2939 
Q 2822 3125 2822 3475 
Q 2822 3834 2567 4026 
Q 2313 4219 1838 4219 
Q 1578 4219 1281 4162 
Q 984 4106 628 3988 
L 628 4550 
Q 988 4650 1302 4700 
Q 1616 4750 1894 4750 
Q 2613 4750 3031 4423 
Q 3450 4097 3450 3541 
Q 3450 3153 3228 2886 
Q 3006 2619 2597 2516 
z
" transform="scale(0.015625)"/>
       </defs>
       <use xlink:href="#DejaVuSans-33"/>
       <use xlink:href="#DejaVuSans-30" transform="translate(63.623047 0)"/>
       <use xlink:href="#DejaVuSans-30" transform="translate(127.246094 0)"/>
      </g>
     </g>
    </g>
    <g id="xtick_5">
     <g id="line2d_9">
      <path d="M 323.098692 576.718125 
L 323.098692 22.318125 
" clip-path="url(#p6f543fa423)" style="fill: none; stroke: #b0b0b0; stroke-width: 0.8; stroke-linecap: square"/>
     </g>
     <g id="line2d_10">
      <g>
       <use xlink:href="#m0f43dfc132" x="323.098692" y="576.718125" style="stroke: #000000; stroke-width: 0.8"/>
      </g>
     </g>
     <g id="text_5">
      <!-- 400 -->
      <g transform="translate(313.554942 591.316563) scale(0.1 -0.1)">
       <defs>
        <path id="DejaVuSans-34" d="M 2419 4116 
L 825 1625 
L 2419 1625 
L 2419 4116 
z
M 2253 4666 
L 3047 4666 
L 3047 1625 
L 3713 1625 
L 3713 1100 
L 3047 1100 
L 3047 0 
L 2419 0 
L 2419 1100 
L 313 1100 
L 313 1709 
L 2253 4666 
z
" transform="scale(0.015625)"/>
       </defs>
       <use xlink:href="#DejaVuSans-34"/>
       <use xlink:href="#DejaVuSans-30" transform="translate(63.623047 0)"/>
       <use xlink:href="#DejaVuSans-30" transform="translate(127.246094 0)"/>
      </g>
     </g>
    </g>
    <g id="xtick_6">
     <g id="line2d_11">
      <path d="M 386.587144 576.718125 
L 386.587144 22.318125 
" clip-path="url(#p6f543fa423)" style="fill: none; stroke: #b0b0b0; stroke-width: 0.8; stroke-linecap: square"/>
     </g>
     <g id="line2d_12">
      <g>
       <use xlink:href="#m0f43dfc132" x="386.587144" y="576.718125" style="stroke: #000000; stroke-width: 0.8"/>
      </g>
     </g>
     <g id="text_6">
      <!-- 500 -->
      <g transform="translate(377.043394 591.316563) scale(0.1 -0.1)">
       <defs>
        <path id="DejaVuSans-35" d="M 691 4666 
L 3169 4666 
L 3169 4134 
L 1269 4134 
L 1269 2991 
Q 1406 3038 1543 3061 
Q 1681 3084 1819 3084 
Q 2600 3084 3056 2656 
Q 3513 2228 3513 1497 
Q 3513 744 3044 326 
Q 2575 -91 1722 -91 
Q 1428 -91 1123 -41 
Q 819 9 494 109 
L 494 744 
Q 775 591 1075 516 
Q 1375 441 1709 441 
Q 2250 441 2565 725 
Q 2881 1009 2881 1497 
Q 2881 1984 2565 2268 
Q 2250 2553 1709 2553 
Q 1456 2553 1204 2497 
Q 953 2441 691 2322 
L 691 4666 
z
" transform="scale(0.015625)"/>
       </defs>
       <use xlink:href="#DejaVuSans-35"/>
       <use xlink:href="#DejaVuSans-30" transform="translate(63.623047 0)"/>
       <use xlink:href="#DejaVuSans-30" transform="translate(127.246094 0)"/>
      </g>
     </g>
    </g>
    <g id="xtick_7">
     <g id="line2d_13">
      <path d="M 450.075595 576.718125 
L 450.075595 22.318125 
" clip-path="url(#p6f543fa423)" style="fill: none; stroke: #b0b0b0; stroke-width: 0.8; stroke-linecap: square"/>
     </g>
     <g id="line2d_14">
      <g>
       <use xlink:href="#m0f43dfc132" x="450.075595" y="576.718125" style="stroke: #000000; stroke-width: 0.8"/>
      </g>
     </g>
     <g id="text_7">
      <!-- 600 -->
      <g transform="translate(440.531845 591.316563) scale(0.1 -0.1)">
       <defs>
        <path id="DejaVuSans-36" d="M 2113 2584 
Q 1688 2584 1439 2293 
Q 1191 2003 1191 1497 
Q 1191 994 1439 701 
Q 1688 409 2113 409 
Q 2538 409 2786 701 
Q 3034 994 3034 1497 
Q 3034 2003 2786 2293 
Q 2538 2584 2113 2584 
z
M 3366 4563 
L 3366 3988 
Q 3128 4100 2886 4159 
Q 2644 4219 2406 4219 
Q 1781 4219 1451 3797 
Q 1122 3375 1075 2522 
Q 1259 2794 1537 2939 
Q 1816 3084 2150 3084 
Q 2853 3084 3261 2657 
Q 3669 2231 3669 1497 
Q 3669 778 3244 343 
Q 2819 -91 2113 -91 
Q 1303 -91 875 529 
Q 447 1150 447 2328 
Q 447 3434 972 4092 
Q 1497 4750 2381 4750 
Q 2619 4750 2861 4703 
Q 3103 4656 3366 4563 
z
" transform="scale(0.015625)"/>
       </defs>
       <use xlink:href="#DejaVuSans-36"/>
       <use xlink:href="#DejaVuSans-30" transform="translate(63.623047 0)"/>
       <use xlink:href="#DejaVuSans-30" transform="translate(127.246094 0)"/>
      </g>
     </g>
    </g>
    <g id="xtick_8">
     <g id="line2d_15">
      <path d="M 513.564047 576.718125 
L 513.564047 22.318125 
" clip-path="url(#p6f543fa423)" style="fill: none; stroke: #b0b0b0; stroke-width: 0.8; stroke-linecap: square"/>
     </g>
     <g id="line2d_16">
      <g>
       <use xlink:href="#m0f43dfc132" x="513.564047" y="576.718125" style="stroke: #000000; stroke-width: 0.8"/>
      </g>
     </g>
     <g id="text_8">
      <!-- 700 -->
      <g transform="translate(504.020297 591.316563) scale(0.1 -0.1)">
       <defs>
        <path id="DejaVuSans-37" d="M 525 4666 
L 3525 4666 
L 3525 4397 
L 1831 0 
L 1172 0 
L 2766 4134 
L 525 4134 
L 525 4666 
z
" transform="scale(0.015625)"/>
       </defs>
       <use xlink:href="#DejaVuSans-37"/>
       <use xlink:href="#DejaVuSans-30" transform="translate(63.623047 0)"/>
       <use xlink:href="#DejaVuSans-30" transform="translate(127.246094 0)"/>
      </g>
     </g>
    </g>
    <g id="xtick_9">
     <g id="line2d_17">
      <path d="M 577.052498 576.718125 
L 577.052498 22.318125 
" clip-path="url(#p6f543fa423)" style="fill: none; stroke: #b0b0b0; stroke-width: 0.8; stroke-linecap: square"/>
     </g>
     <g id="line2d_18">
      <g>
       <use xlink:href="#m0f43dfc132" x="577.052498" y="576.718125" style="stroke: #000000; stroke-width: 0.8"/>
      </g>
     </g>
     <g id="text_9">
      <!-- 800 -->
      <g transform="translate(567.508748 591.316563) scale(0.1 -0.1)">
       <defs>
        <path id="DejaVuSans-38" d="M 2034 2216 
Q 1584 2216 1326 1975 
Q 1069 1734 1069 1313 
Q 1069 891 1326 650 
Q 1584 409 2034 409 
Q 2484 409 2743 651 
Q 3003 894 3003 1313 
Q 3003 1734 2745 1975 
Q 2488 2216 2034 2216 
z
M 1403 2484 
Q 997 2584 770 2862 
Q 544 3141 544 3541 
Q 544 4100 942 4425 
Q 1341 4750 2034 4750 
Q 2731 4750 3128 4425 
Q 3525 4100 3525 3541 
Q 3525 3141 3298 2862 
Q 3072 2584 2669 2484 
Q 3125 2378 3379 2068 
Q 3634 1759 3634 1313 
Q 3634 634 3220 271 
Q 2806 -91 2034 -91 
Q 1263 -91 848 271 
Q 434 634 434 1313 
Q 434 1759 690 2068 
Q 947 2378 1403 2484 
z
M 1172 3481 
Q 1172 3119 1398 2916 
Q 1625 2713 2034 2713 
Q 2441 2713 2670 2916 
Q 2900 3119 2900 3481 
Q 2900 3844 2670 4047 
Q 2441 4250 2034 4250 
Q 1625 4250 1398 4047 
Q 1172 3844 1172 3481 
z
" transform="scale(0.015625)"/>
       </defs>
       <use xlink:href="#DejaVuSans-38"/>
       <use xlink:href="#DejaVuSans-30" transform="translate(63.623047 0)"/>
       <use xlink:href="#DejaVuSans-30" transform="translate(127.246094 0)"/>
      </g>
     </g>
    </g>
    <g id="text_10">
     <!-- Epochs -->
     <g transform="translate(304.865625 604.994688) scale(0.1 -0.1)">
      <defs>
       <path id="DejaVuSans-45" d="M 628 4666 
L 3578 4666 
L 3578 4134 
L 1259 4134 
L 1259 2753 
L 3481 2753 
L 3481 2222 
L 1259 2222 
L 1259 531 
L 3634 531 
L 3634 0 
L 628 0 
L 628 4666 
z
" transform="scale(0.015625)"/>
       <path id="DejaVuSans-70" d="M 1159 525 
L 1159 -1331 
L 581 -1331 
L 581 3500 
L 1159 3500 
L 1159 2969 
Q 1341 3281 1617 3432 
Q 1894 3584 2278 3584 
Q 2916 3584 3314 3078 
Q 3713 2572 3713 1747 
Q 3713 922 3314 415 
Q 2916 -91 2278 -91 
Q 1894 -91 1617 61 
Q 1341 213 1159 525 
z
M 3116 1747 
Q 3116 2381 2855 2742 
Q 2594 3103 2138 3103 
Q 1681 3103 1420 2742 
Q 1159 2381 1159 1747 
Q 1159 1113 1420 752 
Q 1681 391 2138 391 
Q 2594 391 2855 752 
Q 3116 1113 3116 1747 
z
" transform="scale(0.015625)"/>
       <path id="DejaVuSans-6f" d="M 1959 3097 
Q 1497 3097 1228 2736 
Q 959 2375 959 1747 
Q 959 1119 1226 758 
Q 1494 397 1959 397 
Q 2419 397 2687 759 
Q 2956 1122 2956 1747 
Q 2956 2369 2687 2733 
Q 2419 3097 1959 3097 
z
M 1959 3584 
Q 2709 3584 3137 3096 
Q 3566 2609 3566 1747 
Q 3566 888 3137 398 
Q 2709 -91 1959 -91 
Q 1206 -91 779 398 
Q 353 888 353 1747 
Q 353 2609 779 3096 
Q 1206 3584 1959 3584 
z
" transform="scale(0.015625)"/>
       <path id="DejaVuSans-63" d="M 3122 3366 
L 3122 2828 
Q 2878 2963 2633 3030 
Q 2388 3097 2138 3097 
Q 1578 3097 1268 2742 
Q 959 2388 959 1747 
Q 959 1106 1268 751 
Q 1578 397 2138 397 
Q 2388 397 2633 464 
Q 2878 531 3122 666 
L 3122 134 
Q 2881 22 2623 -34 
Q 2366 -91 2075 -91 
Q 1284 -91 818 406 
Q 353 903 353 1747 
Q 353 2603 823 3093 
Q 1294 3584 2113 3584 
Q 2378 3584 2631 3529 
Q 2884 3475 3122 3366 
z
" transform="scale(0.015625)"/>
       <path id="DejaVuSans-68" d="M 3513 2113 
L 3513 0 
L 2938 0 
L 2938 2094 
Q 2938 2591 2744 2837 
Q 2550 3084 2163 3084 
Q 1697 3084 1428 2787 
Q 1159 2491 1159 1978 
L 1159 0 
L 581 0 
L 581 4863 
L 1159 4863 
L 1159 2956 
Q 1366 3272 1645 3428 
Q 1925 3584 2291 3584 
Q 2894 3584 3203 3211 
Q 3513 2838 3513 2113 
z
" transform="scale(0.015625)"/>
       <path id="DejaVuSans-73" d="M 2834 3397 
L 2834 2853 
Q 2591 2978 2328 3040 
Q 2066 3103 1784 3103 
Q 1356 3103 1142 2972 
Q 928 2841 928 2578 
Q 928 2378 1081 2264 
Q 1234 2150 1697 2047 
L 1894 2003 
Q 2506 1872 2764 1633 
Q 3022 1394 3022 966 
Q 3022 478 2636 193 
Q 2250 -91 1575 -91 
Q 1294 -91 989 -36 
Q 684 19 347 128 
L 347 722 
Q 666 556 975 473 
Q 1284 391 1588 391 
Q 1994 391 2212 530 
Q 2431 669 2431 922 
Q 2431 1156 2273 1281 
Q 2116 1406 1581 1522 
L 1381 1569 
Q 847 1681 609 1914 
Q 372 2147 372 2553 
Q 372 3047 722 3315 
Q 1072 3584 1716 3584 
Q 2034 3584 2315 3537 
Q 2597 3491 2834 3397 
z
" transform="scale(0.015625)"/>
      </defs>
      <use xlink:href="#DejaVuSans-45"/>
      <use xlink:href="#DejaVuSans-70" transform="translate(63.183594 0)"/>
      <use xlink:href="#DejaVuSans-6f" transform="translate(126.660156 0)"/>
      <use xlink:href="#DejaVuSans-63" transform="translate(187.841797 0)"/>
      <use xlink:href="#DejaVuSans-68" transform="translate(242.822266 0)"/>
      <use xlink:href="#DejaVuSans-73" transform="translate(306.201172 0)"/>
     </g>
    </g>
   </g>
   <g id="matplotlib.axis_2">
    <g id="ytick_1">
     <g id="line2d_19">
      <path d="M 43.78125 562.116846 
L 601.78125 562.116846 
" clip-path="url(#p6f543fa423)" style="fill: none; stroke: #b0b0b0; stroke-width: 0.8; stroke-linecap: square"/>
     </g>
     <g id="line2d_20">
      <defs>
       <path id="mbd8f44bd1c" d="M 0 0 
L -3.5 0 
" style="stroke: #000000; stroke-width: 0.8"/>
      </defs>
      <g>
       <use xlink:href="#mbd8f44bd1c" x="43.78125" y="562.116846" style="stroke: #000000; stroke-width: 0.8"/>
      </g>
     </g>
     <g id="text_11">
      <!-- 0.4 -->
      <g transform="translate(20.878125 565.916065) scale(0.1 -0.1)">
       <defs>
        <path id="DejaVuSans-2e" d="M 684 794 
L 1344 794 
L 1344 0 
L 684 0 
L 684 794 
z
" transform="scale(0.015625)"/>
       </defs>
       <use xlink:href="#DejaVuSans-30"/>
       <use xlink:href="#DejaVuSans-2e" transform="translate(63.623047 0)"/>
       <use xlink:href="#DejaVuSans-34" transform="translate(95.410156 0)"/>
      </g>
     </g>
    </g>
    <g id="ytick_2">
     <g id="line2d_21">
      <path d="M 43.78125 478.057922 
L 601.78125 478.057922 
" clip-path="url(#p6f543fa423)" style="fill: none; stroke: #b0b0b0; stroke-width: 0.8; stroke-linecap: square"/>
     </g>
     <g id="line2d_22">
      <g>
       <use xlink:href="#mbd8f44bd1c" x="43.78125" y="478.057922" style="stroke: #000000; stroke-width: 0.8"/>
      </g>
     </g>
     <g id="text_12">
      <!-- 0.6 -->
      <g transform="translate(20.878125 481.857141) scale(0.1 -0.1)">
       <use xlink:href="#DejaVuSans-30"/>
       <use xlink:href="#DejaVuSans-2e" transform="translate(63.623047 0)"/>
       <use xlink:href="#DejaVuSans-36" transform="translate(95.410156 0)"/>
      </g>
     </g>
    </g>
    <g id="ytick_3">
     <g id="line2d_23">
      <path d="M 43.78125 393.998998 
L 601.78125 393.998998 
" clip-path="url(#p6f543fa423)" style="fill: none; stroke: #b0b0b0; stroke-width: 0.8; stroke-linecap: square"/>
     </g>
     <g id="line2d_24">
      <g>
       <use xlink:href="#mbd8f44bd1c" x="43.78125" y="393.998998" style="stroke: #000000; stroke-width: 0.8"/>
      </g>
     </g>
     <g id="text_13">
      <!-- 0.8 -->
      <g transform="translate(20.878125 397.798216) scale(0.1 -0.1)">
       <use xlink:href="#DejaVuSans-30"/>
       <use xlink:href="#DejaVuSans-2e" transform="translate(63.623047 0)"/>
       <use xlink:href="#DejaVuSans-38" transform="translate(95.410156 0)"/>
      </g>
     </g>
    </g>
    <g id="ytick_4">
     <g id="line2d_25">
      <path d="M 43.78125 309.940074 
L 601.78125 309.940074 
" clip-path="url(#p6f543fa423)" style="fill: none; stroke: #b0b0b0; stroke-width: 0.8; stroke-linecap: square"/>
     </g>
     <g id="line2d_26">
      <g>
       <use xlink:href="#mbd8f44bd1c" x="43.78125" y="309.940074" style="stroke: #000000; stroke-width: 0.8"/>
      </g>
     </g>
     <g id="text_14">
      <!-- 1.0 -->
      <g transform="translate(20.878125 313.739292) scale(0.1 -0.1)">
       <use xlink:href="#DejaVuSans-31"/>
       <use xlink:href="#DejaVuSans-2e" transform="translate(63.623047 0)"/>
       <use xlink:href="#DejaVuSans-30" transform="translate(95.410156 0)"/>
      </g>
     </g>
    </g>
    <g id="ytick_5">
     <g id="line2d_27">
      <path d="M 43.78125 225.88115 
L 601.78125 225.88115 
" clip-path="url(#p6f543fa423)" style="fill: none; stroke: #b0b0b0; stroke-width: 0.8; stroke-linecap: square"/>
     </g>
     <g id="line2d_28">
      <g>
       <use xlink:href="#mbd8f44bd1c" x="43.78125" y="225.88115" style="stroke: #000000; stroke-width: 0.8"/>
      </g>
     </g>
     <g id="text_15">
      <!-- 1.2 -->
      <g transform="translate(20.878125 229.680368) scale(0.1 -0.1)">
       <use xlink:href="#DejaVuSans-31"/>
       <use xlink:href="#DejaVuSans-2e" transform="translate(63.623047 0)"/>
       <use xlink:href="#DejaVuSans-32" transform="translate(95.410156 0)"/>
      </g>
     </g>
    </g>
    <g id="ytick_6">
     <g id="line2d_29">
      <path d="M 43.78125 141.822225 
L 601.78125 141.822225 
" clip-path="url(#p6f543fa423)" style="fill: none; stroke: #b0b0b0; stroke-width: 0.8; stroke-linecap: square"/>
     </g>
     <g id="line2d_30">
      <g>
       <use xlink:href="#mbd8f44bd1c" x="43.78125" y="141.822225" style="stroke: #000000; stroke-width: 0.8"/>
      </g>
     </g>
     <g id="text_16">
      <!-- 1.4 -->
      <g transform="translate(20.878125 145.621444) scale(0.1 -0.1)">
       <use xlink:href="#DejaVuSans-31"/>
       <use xlink:href="#DejaVuSans-2e" transform="translate(63.623047 0)"/>
       <use xlink:href="#DejaVuSans-34" transform="translate(95.410156 0)"/>
      </g>
     </g>
    </g>
    <g id="ytick_7">
     <g id="line2d_31">
      <path d="M 43.78125 57.763301 
L 601.78125 57.763301 
" clip-path="url(#p6f543fa423)" style="fill: none; stroke: #b0b0b0; stroke-width: 0.8; stroke-linecap: square"/>
     </g>
     <g id="line2d_32">
      <g>
       <use xlink:href="#mbd8f44bd1c" x="43.78125" y="57.763301" style="stroke: #000000; stroke-width: 0.8"/>
      </g>
     </g>
     <g id="text_17">
      <!-- 1.6 -->
      <g transform="translate(20.878125 61.56252) scale(0.1 -0.1)">
       <use xlink:href="#DejaVuSans-31"/>
       <use xlink:href="#DejaVuSans-2e" transform="translate(63.623047 0)"/>
       <use xlink:href="#DejaVuSans-36" transform="translate(95.410156 0)"/>
      </g>
     </g>
    </g>
    <g id="text_18">
     <!-- Loss -->
     <g transform="translate(14.798438 310.485313) rotate(-90) scale(0.1 -0.1)">
      <defs>
       <path id="DejaVuSans-4c" d="M 628 4666 
L 1259 4666 
L 1259 531 
L 3531 531 
L 3531 0 
L 628 0 
L 628 4666 
z
" transform="scale(0.015625)"/>
      </defs>
      <use xlink:href="#DejaVuSans-4c"/>
      <use xlink:href="#DejaVuSans-6f" transform="translate(53.962891 0)"/>
      <use xlink:href="#DejaVuSans-73" transform="translate(115.144531 0)"/>
      <use xlink:href="#DejaVuSans-73" transform="translate(167.244141 0)"/>
     </g>
    </g>
   </g>
   <g id="line2d_33">
    <path d="M 69.144886 47.518125 
L 69.779771 155.507375 
L 70.414655 193.742696 
L 71.04954 212.650675 
L 71.684424 223.359094 
L 72.319309 230.865178 
L 72.954193 236.727131 
L 74.223962 245.724031 
L 75.493732 252.555578 
L 76.763501 258.415127 
L 78.03327 263.658709 
L 81.207692 275.628922 
L 84.382115 287.446271 
L 85.651884 291.972278 
L 88.191422 299.756033 
L 91.365844 308.299651 
L 97.71469 323.301673 
L 100.254228 329.057759 
L 101.523997 331.610533 
L 104.063535 337.006503 
L 112.951918 355.116466 
L 113.586802 356.187844 
L 116.12634 361.265736 
L 121.205417 370.410514 
L 123.11007 373.701907 
L 125.014724 376.916768 
L 128.824031 382.833709 
L 129.458915 383.922298 
L 131.998453 387.396692 
L 133.268222 389.324631 
L 135.172876 391.912853 
L 140.886837 399.433467 
L 141.521721 400.044298 
L 145.965913 405.409806 
L 151.679873 411.541364 
L 152.949642 412.79196 
L 155.48918 415.335816 
L 156.124065 415.895291 
L 156.758949 416.690451 
L 157.393834 417.196116 
L 158.028718 417.852215 
L 158.663603 418.301289 
L 159.933372 419.612735 
L 162.47291 421.809377 
L 164.377564 423.600585 
L 166.282217 425.257116 
L 167.551986 426.414271 
L 168.186871 426.721928 
L 168.821755 427.246031 
L 169.45664 427.953361 
L 170.726409 428.942043 
L 173.265947 430.809834 
L 173.900831 431.431638 
L 174.535716 431.859618 
L 175.1706 432.438132 
L 175.805485 432.831165 
L 176.440369 433.475039 
L 177.075254 433.703985 
L 179.614792 435.739245 
L 180.249676 436.106375 
L 180.884561 436.709039 
L 181.519445 437.040771 
L 184.058984 438.808356 
L 191.677598 444.052664 
L 192.947367 444.598011 
L 194.217136 445.512842 
L 197.391558 447.42823 
L 198.026443 447.937678 
L 198.661327 448.165722 
L 199.931096 449.016246 
L 200.565981 449.258118 
L 201.200865 449.882602 
L 201.83575 450.089227 
L 202.470634 450.616486 
L 203.105519 450.806376 
L 203.740403 451.237914 
L 205.010173 451.861371 
L 206.279942 452.697741 
L 207.549711 453.280439 
L 208.184595 453.920605 
L 208.81948 454.283752 
L 209.454364 454.389369 
L 210.089249 454.847436 
L 211.359018 455.497923 
L 214.53344 457.287954 
L 215.168325 457.390891 
L 216.438094 458.205466 
L 217.707863 458.742244 
L 218.977632 459.589812 
L 220.247401 460.139142 
L 222.786939 461.305941 
L 223.421823 461.756367 
L 224.691592 462.264687 
L 225.326477 462.525073 
L 225.961362 462.95155 
L 226.596246 463.132572 
L 228.5009 464.202597 
L 229.770669 464.68554 
L 231.675322 465.706013 
L 232.310207 465.975142 
L 232.945091 466.082312 
L 233.579976 466.507862 
L 234.21486 466.683073 
L 234.849745 467.204896 
L 235.484629 467.322813 
L 236.119514 467.776997 
L 237.389283 468.280182 
L 238.024167 468.518246 
L 238.659052 468.962986 
L 239.928821 469.362557 
L 241.833474 470.401694 
L 243.103243 470.68202 
L 243.738128 471.14397 
L 250.086973 473.712276 
L 250.721858 474.119138 
L 251.356742 474.068358 
L 251.991627 474.604235 
L 253.261396 474.914548 
L 253.89628 475.162809 
L 254.531165 475.575708 
L 258.975356 477.200449 
L 259.610241 477.597841 
L 261.514894 478.257297 
L 262.149779 478.735981 
L 262.784663 478.922815 
L 263.419548 478.977002 
L 264.054432 479.386418 
L 264.689317 479.610229 
L 265.324201 479.687663 
L 267.863739 480.885601 
L 269.133509 481.136367 
L 271.673047 482.008811 
L 272.307931 482.396658 
L 273.5777 482.861264 
L 274.212585 482.953052 
L 274.847469 483.364849 
L 275.482354 483.415152 
L 280.56143 485.333998 
L 281.196314 485.507079 
L 281.831199 485.436183 
L 282.466083 485.963743 
L 283.100968 486.067682 
L 283.735852 486.29565 
L 284.370737 486.719798 
L 285.005621 486.799837 
L 290.084697 488.596557 
L 290.719582 488.558178 
L 291.354467 489.064544 
L 292.624236 489.175823 
L 293.25912 489.384978 
L 294.528889 490.12059 
L 295.163774 490.041478 
L 296.433543 490.606489 
L 297.068427 490.651457 
L 297.703312 491.037676 
L 300.24285 491.846614 
L 300.877734 491.863299 
L 301.512619 492.213444 
L 304.052157 493.066573 
L 305.321926 493.253708 
L 305.95681 493.622115 
L 306.591695 493.587419 
L 307.226579 494.000168 
L 308.496348 494.235101 
L 309.131233 494.608894 
L 309.766117 494.730444 
L 310.401002 494.987648 
L 311.035886 495.028106 
L 311.670771 495.314144 
L 312.305656 495.440529 
L 314.210309 496.277651 
L 314.845194 496.27482 
L 318.019616 497.193158 
L 318.654501 497.474687 
L 319.289385 497.491722 
L 320.559154 497.958407 
L 321.194039 498.287884 
L 323.733577 498.86447 
L 324.368461 499.172278 
L 325.003346 499.194448 
L 325.63823 499.329977 
L 326.273115 499.670677 
L 326.907999 499.518114 
L 328.177768 500.16805 
L 330.082422 500.44021 
L 330.717306 500.847497 
L 331.352191 500.7636 
L 333.891729 501.477017 
L 335.161498 502.03286 
L 335.796383 501.970807 
L 337.066152 502.40991 
L 337.701036 502.452848 
L 338.970805 502.924042 
L 339.60569 502.893379 
L 340.875459 503.382435 
L 342.145228 503.727519 
L 342.780112 504.078892 
L 343.414997 504.036404 
L 344.049881 504.408069 
L 344.684766 504.326802 
L 345.31965 504.665423 
L 345.954535 504.640396 
L 347.224304 505.011459 
L 347.859188 504.974809 
L 348.494073 505.165075 
L 349.128957 505.549816 
L 349.763842 505.620286 
L 350.398726 505.81917 
L 351.033611 505.816364 
L 351.668495 506.184546 
L 352.30338 506.165582 
L 352.938264 506.282723 
L 353.573149 506.515677 
L 354.208033 506.605788 
L 354.842918 506.933937 
L 356.112687 506.956784 
L 356.747572 507.357133 
L 358.017341 507.668272 
L 359.28711 507.933142 
L 360.556879 508.053715 
L 361.191763 508.379735 
L 361.826648 508.329357 
L 362.461532 508.808116 
L 363.096417 508.722891 
L 364.366186 509.199897 
L 366.905724 509.663049 
L 367.540608 509.880296 
L 368.175493 509.935635 
L 368.810377 510.311608 
L 371.349915 510.758552 
L 371.9848 511.194022 
L 372.619684 511.040055 
L 373.254569 511.292374 
L 373.889453 511.30247 
L 374.524338 511.584199 
L 375.159222 511.581343 
L 376.428991 511.964632 
L 377.063876 512.209786 
L 377.698761 512.171808 
L 378.333645 512.495298 
L 380.873183 513.000988 
L 381.508068 513.380468 
L 382.142952 513.282817 
L 382.777837 513.299426 
L 383.412721 513.896404 
L 384.047606 513.648018 
L 384.68249 514.097793 
L 385.952259 514.086445 
L 387.222028 514.635649 
L 387.856913 514.647974 
L 388.491797 515.119869 
L 389.126682 514.985117 
L 389.761566 515.030611 
L 391.66622 515.693248 
L 392.301104 515.379528 
L 392.935989 515.813095 
L 393.570873 516.056721 
L 394.840642 516.27249 
L 395.475527 516.537008 
L 396.745296 516.74679 
L 397.38018 516.762222 
L 399.284834 517.438161 
L 399.919719 517.334398 
L 400.554603 517.365161 
L 402.459257 517.956277 
L 403.094141 518.326338 
L 403.729026 518.355047 
L 404.36391 518.516128 
L 404.998795 518.391772 
L 405.633679 518.747178 
L 406.268564 518.709776 
L 406.903448 519.037149 
L 410.077871 519.979512 
L 410.712755 519.900976 
L 413.252293 520.507335 
L 413.887178 520.518332 
L 415.156947 520.767056 
L 415.791831 520.755407 
L 416.426716 521.069917 
L 417.0616 521.072334 
L 418.331369 521.412972 
L 418.966254 521.515069 
L 419.601138 521.88151 
L 420.870908 522.179949 
L 421.505792 522.460376 
L 422.140677 522.377631 
L 422.775561 522.747103 
L 424.04533 522.744234 
L 424.680215 523.069729 
L 426.584868 523.383649 
L 427.219753 523.615288 
L 427.854637 523.545645 
L 428.489522 524.080019 
L 429.124406 523.852538 
L 429.759291 524.021949 
L 430.394175 524.489987 
L 431.02906 524.143662 
L 431.663944 524.547517 
L 432.933713 524.676307 
L 433.568598 525.011071 
L 434.203482 525.063553 
L 434.838367 524.976863 
L 436.108136 525.538768 
L 437.377905 525.637534 
L 438.012789 525.720805 
L 438.647674 526.075008 
L 439.282558 526.261604 
L 439.917443 526.189907 
L 440.552327 526.435036 
L 441.187212 526.360721 
L 441.822097 526.556586 
L 442.456981 526.875817 
L 443.091866 526.737107 
L 443.72675 526.817823 
L 444.361635 527.246718 
L 448.170942 528.0103 
L 448.805826 528.363965 
L 450.075595 528.481256 
L 450.71048 528.857004 
L 451.345364 528.798032 
L 452.615133 529.288553 
L 453.250018 528.905867 
L 454.519787 529.393093 
L 455.154671 529.475024 
L 455.789556 529.802611 
L 456.42444 529.832672 
L 457.694209 530.307524 
L 458.329094 530.340291 
L 458.963978 530.20827 
L 459.598863 530.571266 
L 460.868632 530.528253 
L 462.138401 530.90504 
L 463.40817 530.871584 
L 465.312824 531.507178 
L 466.582593 531.586742 
L 467.217477 531.98491 
L 467.852362 531.97742 
L 468.487246 532.099333 
L 469.122131 532.042754 
L 469.757015 532.416899 
L 470.3919 532.62435 
L 471.026784 532.978328 
L 472.296553 532.779244 
L 472.931438 533.113556 
L 473.566322 533.317413 
L 475.470976 533.504046 
L 476.10586 533.778949 
L 476.740745 533.661934 
L 477.375629 533.910883 
L 478.010514 533.959771 
L 478.645398 534.440171 
L 479.915167 534.378344 
L 481.184936 534.805635 
L 481.819821 534.764726 
L 483.08959 535.195988 
L 483.724474 535.031487 
L 484.994244 535.212422 
L 485.629128 535.502531 
L 486.898897 535.710746 
L 488.168666 535.880007 
L 488.803551 536.220044 
L 490.708204 536.233759 
L 491.977973 536.627419 
L 492.612858 536.667226 
L 493.247742 536.852519 
L 493.882627 536.478989 
L 494.517511 537.032176 
L 495.152396 537.16897 
L 495.78728 537.050764 
L 497.057049 537.601196 
L 497.691934 537.695653 
L 498.326818 537.962953 
L 498.961703 537.66385 
L 500.231472 538.449678 
L 500.866356 538.363288 
L 502.77101 538.453586 
L 503.405894 538.937982 
L 504.040779 538.875592 
L 505.310548 539.185015 
L 505.945433 539.114295 
L 506.580317 539.351959 
L 507.215202 539.174231 
L 507.850086 539.601171 
L 508.484971 539.334235 
L 509.119855 539.479621 
L 509.75474 539.987202 
L 511.024509 540.054478 
L 512.294278 540.491013 
L 512.929162 540.393651 
L 513.564047 540.424151 
L 514.198931 540.852218 
L 514.833816 540.904902 
L 515.4687 540.761269 
L 516.103585 540.930555 
L 516.738469 541.233415 
L 517.373354 541.048697 
L 521.182661 542.076912 
L 521.817545 541.709807 
L 522.45243 542.149386 
L 524.357083 542.680941 
L 525.626852 542.497188 
L 526.261737 543.200773 
L 526.896621 543.058493 
L 528.166391 543.437121 
L 528.801275 543.297697 
L 529.43616 543.289267 
L 530.071044 543.450712 
L 530.705929 543.754624 
L 531.340813 543.692459 
L 532.610582 544.036491 
L 533.245467 544.082436 
L 533.880351 544.269032 
L 534.515236 544.574347 
L 535.15012 544.423011 
L 535.785005 544.659823 
L 536.419889 544.750522 
L 537.054774 544.707959 
L 537.689658 545.1471 
L 539.594312 545.319304 
L 540.229196 545.521682 
L 541.498965 545.402826 
L 542.13385 545.8037 
L 542.768734 546.011001 
L 544.038503 546.102326 
L 544.673388 546.348883 
L 545.943157 546.459937 
L 546.578041 546.412189 
L 547.212926 546.863742 
L 547.84781 546.620943 
L 548.482695 546.707371 
L 549.11758 546.93941 
L 549.752464 546.800186 
L 550.387349 547.310323 
L 551.022233 547.157609 
L 551.657118 547.344443 
L 552.926887 547.3724 
L 553.561771 547.484205 
L 554.83154 547.959721 
L 556.101309 547.998175 
L 556.736194 548.278464 
L 557.371078 548.130046 
L 558.005963 548.647698 
L 559.275732 548.586747 
L 559.910616 548.823472 
L 561.81527 548.804157 
L 562.450154 549.316899 
L 563.085039 549.162481 
L 563.719923 549.155129 
L 566.259461 549.897868 
L 566.894346 549.778009 
L 568.164115 550.362712 
L 568.798999 550.071814 
L 569.433884 549.950777 
L 570.068768 550.511693 
L 571.338538 550.266877 
L 571.973422 550.751173 
L 572.608307 550.57932 
L 573.243191 550.918955 
L 573.878076 550.917001 
L 574.51296 551.29672 
L 575.147845 551.029783 
L 575.782729 551.518125 
L 576.417614 551.383536 
L 576.417614 551.383536 
" clip-path="url(#p6f543fa423)" style="fill: none; stroke: #1f77b4; stroke-width: 1.5; stroke-linecap: square"/>
   </g>
   <g id="line2d_34">
    <path d="M 69.144886 122.019817 
L 69.779771 177.027225 
L 70.414655 201.610073 
L 71.04954 217.203587 
L 71.684424 225.743547 
L 72.319309 231.135584 
L 72.954193 234.083696 
L 73.589078 236.370949 
L 74.858847 246.635856 
L 75.493732 249.654613 
L 76.128616 251.253401 
L 76.763501 254.129815 
L 77.398385 253.540503 
L 78.03327 258.99532 
L 79.303039 258.658828 
L 80.572808 264.281389 
L 81.207692 264.697695 
L 81.842577 270.162732 
L 82.477461 271.988637 
L 83.112346 274.337366 
L 83.74723 277.404473 
L 85.016999 280.560162 
L 85.651884 280.921956 
L 86.286768 284.536588 
L 86.921653 281.769849 
L 88.191422 289.857179 
L 88.826306 288.882224 
L 89.461191 292.59596 
L 90.096075 287.390907 
L 90.73096 294.683603 
L 91.365844 295.98553 
L 92.000729 298.872516 
L 92.635613 295.495071 
L 93.270498 300.575267 
L 94.540267 303.765728 
L 95.175151 297.352641 
L 95.810036 308.050338 
L 96.44492 302.775091 
L 97.079805 307.71104 
L 98.349574 312.465216 
L 98.984459 311.876455 
L 99.619343 313.808553 
L 100.254228 314.544692 
L 100.889112 316.511035 
L 101.523997 315.967041 
L 102.158881 317.594763 
L 102.793766 311.456918 
L 103.42865 319.195204 
L 104.063535 318.222053 
L 104.698419 321.642862 
L 105.333304 323.826678 
L 105.968188 325.107486 
L 106.603073 325.242213 
L 107.237957 325.785505 
L 107.872842 326.951753 
L 108.507726 330.031912 
L 109.142611 330.227013 
L 109.777495 331.416709 
L 110.41238 331.460725 
L 111.047264 332.353511 
L 111.682149 334.280749 
L 112.317033 333.574797 
L 112.951918 335.977087 
L 113.586802 337.743394 
L 114.221687 336.837656 
L 114.856571 338.694023 
L 115.491456 340.979623 
L 116.12634 339.456241 
L 116.761225 339.561983 
L 118.030994 343.00381 
L 118.665879 342.552808 
L 119.300763 339.843512 
L 119.935648 344.763053 
L 120.570532 346.92595 
L 121.205417 347.137861 
L 121.840301 346.625557 
L 122.475186 349.092129 
L 123.11007 350.603913 
L 123.744955 349.200602 
L 124.379839 351.965688 
L 125.014724 347.92042 
L 125.649608 354.494062 
L 126.284493 353.651855 
L 126.919377 353.822806 
L 127.554262 355.459346 
L 128.189146 353.980881 
L 128.824031 358.472868 
L 129.458915 356.811251 
L 130.0938 358.162856 
L 130.728684 360.254056 
L 131.363569 359.878784 
L 131.998453 356.043673 
L 132.633338 360.778108 
L 133.268222 360.916267 
L 133.903107 360.279633 
L 134.537991 362.082741 
L 135.172876 364.583332 
L 135.80776 364.933653 
L 136.442645 362.81913 
L 137.077529 362.413371 
L 137.712414 365.302436 
L 138.347298 362.668821 
L 138.982183 368.391237 
L 139.617067 365.540325 
L 140.251952 369.888867 
L 140.886837 370.519063 
L 141.521721 367.304302 
L 142.156606 369.767743 
L 142.79149 371.11852 
L 143.426375 371.833165 
L 144.061259 367.789275 
L 144.696144 371.173358 
L 145.331028 371.977286 
L 145.965913 372.470425 
L 146.600797 374.353672 
L 147.235682 374.793752 
L 147.870566 372.370369 
L 148.505451 374.188834 
L 149.140335 374.459615 
L 149.77522 375.068267 
L 150.410104 374.644195 
L 151.044989 376.448405 
L 151.679873 376.663773 
L 152.314758 377.785354 
L 152.949642 376.272819 
L 153.584527 378.993137 
L 154.219411 376.111963 
L 154.854296 376.04014 
L 155.48918 378.056111 
L 156.124065 377.361332 
L 156.758949 377.847582 
L 157.393834 377.347378 
L 158.028718 373.297977 
L 158.663603 381.517553 
L 159.298487 377.724604 
L 159.933372 380.753732 
L 160.568256 378.62508 
L 161.203141 374.53001 
L 161.838026 381.872232 
L 162.47291 382.243145 
L 163.107795 381.867748 
L 163.742679 383.077035 
L 164.377564 381.688429 
L 165.012448 383.400149 
L 165.647333 384.439186 
L 166.282217 382.456083 
L 166.917102 384.641777 
L 167.551986 384.054094 
L 168.186871 385.471358 
L 168.821755 385.96094 
L 169.45664 375.526484 
L 170.091524 384.748121 
L 170.726409 383.939057 
L 171.361293 381.008932 
L 171.996178 386.59805 
L 172.631062 387.579543 
L 173.265947 386.054883 
L 173.900831 386.017756 
L 174.535716 384.742635 
L 175.1706 387.245681 
L 175.805485 388.504094 
L 176.440369 388.757841 
L 177.075254 387.602164 
L 177.710138 384.282238 
L 178.345023 376.164546 
L 178.979907 387.326573 
L 179.614792 389.761379 
L 180.249676 387.841882 
L 180.884561 388.923406 
L 182.15433 387.557397 
L 182.789215 390.388995 
L 183.424099 388.984657 
L 184.058984 389.016422 
L 184.693868 386.744426 
L 185.328753 392.165974 
L 185.963637 389.048689 
L 186.598522 390.824365 
L 187.233406 391.797115 
L 187.868291 381.259072 
L 188.503175 392.31235 
L 189.13806 393.463617 
L 189.772944 391.202968 
L 190.407829 391.236061 
L 191.042713 388.590772 
L 191.677598 392.692331 
L 192.312482 391.720307 
L 192.947367 392.100865 
L 193.582251 393.273776 
L 194.217136 390.465452 
L 194.85202 393.32175 
L 195.486905 393.430749 
L 196.121789 393.888716 
L 196.756674 391.890382 
L 197.391558 392.81839 
L 198.026443 392.284417 
L 198.661327 392.672465 
L 199.296212 391.591217 
L 199.931096 393.096387 
L 200.565981 393.187649 
L 201.200865 392.940566 
L 201.83575 394.052102 
L 202.470634 394.937523 
L 203.105519 393.646042 
L 203.740403 393.89057 
L 204.375288 393.340388 
L 205.010173 394.576831 
L 205.645057 394.713261 
L 206.279942 396.917243 
L 206.914826 395.835294 
L 207.549711 388.978244 
L 208.184595 393.776159 
L 210.724133 396.145882 
L 211.359018 397.686425 
L 211.993902 395.524029 
L 212.628787 388.271917 
L 213.263671 394.313038 
L 213.898556 394.64958 
L 214.53344 396.557178 
L 215.168325 394.91673 
L 215.803209 395.2063 
L 216.438094 394.616738 
L 217.072978 396.479042 
L 217.707863 397.162548 
L 218.342747 396.494073 
L 218.977632 394.684653 
L 219.612516 394.199655 
L 220.247401 394.911294 
L 220.882285 397.909458 
L 222.152054 394.140408 
L 222.786939 397.009608 
L 223.421823 392.140095 
L 224.056708 391.085677 
L 224.691592 394.682122 
L 225.326477 395.740674 
L 225.961362 391.576612 
L 226.596246 395.131045 
L 227.231131 388.320391 
L 227.866015 397.466272 
L 228.5009 396.330837 
L 229.135784 396.821521 
L 229.770669 396.388857 
L 230.405553 395.78509 
L 231.040438 396.711846 
L 231.675322 397.964572 
L 232.310207 392.038762 
L 232.945091 396.312926 
L 233.579976 394.495564 
L 234.21486 400.294488 
L 234.849745 395.250015 
L 235.484629 394.111825 
L 236.119514 398.370406 
L 237.389283 392.870823 
L 238.024167 398.244397 
L 238.659052 395.414178 
L 239.293936 391.429785 
L 239.928821 391.329955 
L 241.19859 397.559689 
L 241.833474 399.081669 
L 242.468359 396.678552 
L 243.103243 395.791929 
L 243.738128 399.487629 
L 244.373012 397.688103 
L 245.007897 397.520684 
L 245.642781 399.010247 
L 246.277666 390.757753 
L 246.91255 396.561913 
L 247.547435 394.147348 
L 248.18232 398.457761 
L 248.817204 393.150323 
L 249.452089 393.691185 
L 250.086973 396.823325 
L 250.721858 398.068035 
L 251.356742 398.835913 
L 251.991627 392.045476 
L 252.626511 396.354286 
L 253.261396 396.881921 
L 253.89628 396.966845 
L 254.531165 399.645052 
L 255.166049 399.217924 
L 255.800934 386.396936 
L 256.435818 394.731749 
L 257.070703 396.26623 
L 257.705587 397.508384 
L 258.340472 395.949378 
L 258.975356 397.536642 
L 259.610241 393.530104 
L 260.245125 393.017775 
L 260.88001 395.646681 
L 261.514894 400.079195 
L 262.149779 386.868982 
L 262.784663 397.002944 
L 263.419548 397.944205 
L 264.054432 392.896 
L 264.689317 395.960225 
L 265.324201 398.002099 
L 265.959086 397.342668 
L 266.59397 396.93766 
L 267.228855 392.74767 
L 267.863739 395.474777 
L 268.498624 392.712247 
L 269.133509 398.489201 
L 269.768393 392.807292 
L 270.403278 395.468063 
L 271.038162 395.784063 
L 271.673047 395.327174 
L 272.307931 395.959649 
L 272.942816 395.104641 
L 273.5777 395.040935 
L 274.212585 397.753312 
L 274.847469 388.20543 
L 275.482354 395.158953 
L 276.117238 396.727127 
L 276.752123 392.714051 
L 277.387007 391.253773 
L 278.656776 396.626095 
L 279.291661 395.717126 
L 279.926545 383.741501 
L 280.56143 386.794654 
L 281.196314 393.326811 
L 281.831199 394.087976 
L 282.466083 391.600887 
L 283.100968 395.767178 
L 283.735852 389.542429 
L 284.370737 392.358219 
L 285.005621 393.76183 
L 285.640506 392.787026 
L 286.27539 393.4917 
L 286.910275 392.991321 
L 287.545159 393.097815 
L 288.180044 390.498495 
L 288.814928 391.748716 
L 289.449813 396.888184 
L 290.084697 393.309525 
L 290.719582 392.837104 
L 291.354467 388.287824 
L 291.989351 390.667041 
L 292.624236 389.483207 
L 293.25912 383.926957 
L 293.894005 390.534118 
L 294.528889 393.344923 
L 295.163774 383.331358 
L 295.798658 389.771124 
L 297.068427 395.165692 
L 297.703312 379.524405 
L 298.338196 394.981087 
L 298.973081 382.892631 
L 299.607965 390.200207 
L 300.24285 391.792255 
L 300.877734 390.191889 
L 301.512619 391.151287 
L 302.147503 385.326861 
L 302.782388 394.237107 
L 303.417272 376.878314 
L 304.052157 387.59753 
L 304.687041 390.209 
L 305.321926 393.912916 
L 305.95681 394.21416 
L 306.591695 390.029756 
L 307.226579 393.929575 
L 307.861464 389.486464 
L 308.496348 380.919473 
L 309.131233 377.98311 
L 309.766117 391.096124 
L 310.401002 391.728925 
L 311.035886 388.963714 
L 311.670771 380.952717 
L 312.305656 388.481548 
L 312.94054 382.987476 
L 313.575425 383.324919 
L 314.210309 387.892035 
L 314.845194 381.074492 
L 315.480078 387.815102 
L 316.114963 385.044881 
L 316.749847 389.300557 
L 317.384732 389.322802 
L 318.019616 386.724009 
L 318.654501 389.996062 
L 319.289385 377.262403 
L 319.92427 388.727929 
L 320.559154 382.878176 
L 321.194039 384.350478 
L 321.828923 375.617847 
L 322.463808 383.997552 
L 323.098692 383.056943 
L 323.733577 383.639717 
L 324.368461 386.780625 
L 325.003346 386.237834 
L 325.63823 387.017412 
L 326.273115 378.853776 
L 326.907999 382.772358 
L 327.542884 388.062761 
L 328.177768 382.584522 
L 328.812653 385.442599 
L 329.447537 373.327638 
L 330.082422 379.542291 
L 331.352191 384.770342 
L 331.987075 383.061979 
L 332.62196 379.352877 
L 333.256844 385.427242 
L 333.891729 384.892643 
L 334.526614 382.731249 
L 335.161498 382.895386 
L 335.796383 380.724823 
L 336.431267 380.521505 
L 337.066152 386.653414 
L 337.701036 383.719581 
L 338.335921 375.168723 
L 338.970805 382.388895 
L 339.60569 385.731142 
L 340.240574 385.262504 
L 340.875459 378.231145 
L 341.510343 381.931053 
L 342.145228 377.572015 
L 342.780112 387.573255 
L 343.414997 378.659226 
L 344.684766 383.787796 
L 345.31965 381.014444 
L 345.954535 372.021076 
L 346.589419 379.574357 
L 347.224304 377.731418 
L 347.859188 383.238341 
L 348.494073 380.706435 
L 349.128957 371.32497 
L 349.763842 376.976666 
L 350.398726 381.220818 
L 351.668495 364.511109 
L 352.30338 384.990244 
L 352.938264 379.049102 
L 353.573149 376.055622 
L 354.208033 375.375423 
L 354.842918 370.550452 
L 355.477803 375.472573 
L 356.112687 382.370883 
L 356.747572 372.487185 
L 357.382456 370.526252 
L 358.017341 382.047192 
L 358.652225 375.195529 
L 359.28711 376.988716 
L 359.921994 387.046672 
L 360.556879 378.574176 
L 361.191763 375.311567 
L 361.826648 374.938625 
L 362.461532 377.516877 
L 363.096417 381.734399 
L 363.731301 373.288658 
L 364.366186 369.780469 
L 365.00107 375.978338 
L 365.635955 364.736898 
L 366.270839 379.721159 
L 366.905724 369.356547 
L 367.540608 377.54997 
L 368.175493 377.772828 
L 368.810377 374.982115 
L 369.445262 370.414322 
L 370.080146 380.031347 
L 370.715031 370.480809 
L 371.349915 375.958172 
L 371.9848 367.865857 
L 372.619684 382.680144 
L 373.254569 371.089811 
L 373.889453 379.26422 
L 374.524338 377.484961 
L 375.159222 373.447083 
L 375.794107 368.109558 
L 376.428991 375.46606 
L 377.063876 370.902175 
L 377.698761 373.43839 
L 378.333645 371.587084 
L 378.96853 376.177147 
L 379.603414 376.818541 
L 380.238299 370.811714 
L 380.873183 366.105061 
L 381.508068 371.380659 
L 382.142952 371.690221 
L 382.777837 372.86679 
L 383.412721 374.96999 
L 384.047606 372.405943 
L 384.68249 373.089423 
L 385.317375 355.679048 
L 385.952259 371.056994 
L 386.587144 361.147217 
L 387.222028 370.65865 
L 387.856913 374.42061 
L 388.491797 370.621248 
L 389.126682 371.57308 
L 389.761566 369.479275 
L 390.396451 360.658512 
L 391.031335 370.538853 
L 391.66622 371.832163 
L 392.301104 368.697968 
L 393.570873 371.911526 
L 394.205758 360.863083 
L 394.840642 368.208637 
L 395.475527 351.380885 
L 396.110411 361.276508 
L 396.745296 362.429629 
L 397.38018 366.59309 
L 398.015065 368.469674 
L 398.64995 353.998367 
L 399.284834 366.173352 
L 399.919719 364.906773 
L 400.554603 369.33861 
L 401.189488 370.054858 
L 401.824372 366.730548 
L 402.459257 368.458025 
L 403.094141 362.335661 
L 403.729026 353.567481 
L 404.36391 367.739197 
L 404.998795 369.49661 
L 405.633679 362.342525 
L 406.268564 360.231985 
L 406.903448 365.522188 
L 408.173217 358.275913 
L 408.808102 358.494563 
L 409.442986 362.249158 
L 410.077871 365.156812 
L 410.712755 350.307002 
L 411.34764 363.73574 
L 411.982524 362.376745 
L 412.617409 354.21589 
L 413.252293 360.631457 
L 413.887178 363.43204 
L 414.522062 356.247392 
L 415.156947 364.068148 
L 415.791831 357.609618 
L 416.426716 362.540432 
L 417.0616 358.757178 
L 417.696485 345.538096 
L 418.331369 360.556077 
L 418.966254 348.69361 
L 419.601138 351.091766 
L 420.236023 364.612192 
L 420.870908 363.464507 
L 421.505792 360.423153 
L 422.140677 358.452752 
L 422.775561 354.523723 
L 423.410446 358.947168 
L 424.04533 361.867648 
L 424.680215 357.133739 
L 425.315099 365.162473 
L 425.949984 363.180072 
L 426.584868 363.420316 
L 427.219753 354.563179 
L 427.854637 361.964623 
L 428.489522 357.801788 
L 429.124406 359.403256 
L 429.759291 362.270577 
L 430.394175 344.070754 
L 431.663944 359.392584 
L 432.298829 360.133808 
L 432.933713 338.671276 
L 434.203482 361.840868 
L 434.838367 356.192554 
L 435.473251 348.321795 
L 436.108136 347.870317 
L 436.74302 329.985291 
L 437.377905 343.041964 
L 438.012789 345.512544 
L 438.647674 358.824742 
L 439.282558 349.854447 
L 439.917443 352.917795 
L 440.552327 349.25083 
L 441.187212 339.721185 
L 441.822097 347.18155 
L 442.456981 339.288947 
L 443.091866 344.317912 
L 443.72675 343.89146 
L 444.361635 356.685167 
L 444.996519 343.822669 
L 445.631404 342.099551 
L 446.266288 352.440239 
L 446.901173 326.824717 
L 447.536057 351.757911 
L 448.170942 357.8562 
L 448.805826 347.391658 
L 449.440711 339.677846 
L 450.075595 354.599178 
L 450.71048 348.383447 
L 451.345364 345.671345 
L 451.980249 337.573544 
L 452.615133 341.318069 
L 453.250018 338.857209 
L 453.884902 351.431063 
L 454.519787 345.175125 
L 455.154671 345.109014 
L 455.789556 356.019849 
L 456.42444 353.84653 
L 457.059325 342.556941 
L 457.694209 346.17944 
L 458.329094 348.937536 
L 458.963978 348.471578 
L 459.598863 332.579049 
L 460.233747 347.804832 
L 460.868632 342.630543 
L 462.138401 349.178482 
L 462.773285 343.744208 
L 463.40817 336.317988 
L 464.043055 320.419973 
L 464.677939 336.830391 
L 465.312824 332.436231 
L 465.947708 342.005883 
L 466.582593 324.544779 
L 467.217477 334.398992 
L 467.852362 353.329667 
L 468.487246 337.222497 
L 469.122131 340.074387 
L 469.757015 339.961454 
L 470.3919 319.452358 
L 471.026784 345.13166 
L 471.661669 352.411655 
L 472.296553 345.715436 
L 472.931438 325.690811 
L 473.566322 349.312858 
L 474.836091 345.825186 
L 475.470976 328.252678 
L 476.10586 330.899571 
L 476.740745 336.376282 
L 477.375629 339.946073 
L 478.010514 330.415451 
L 478.645398 326.003854 
L 479.280283 330.148452 
L 479.915167 339.787547 
L 480.550052 342.312864 
L 481.184936 336.211694 
L 481.819821 326.292072 
L 482.454705 332.481399 
L 483.724474 323.684235 
L 484.359359 334.617566 
L 484.994244 332.455546 
L 485.629128 333.476871 
L 486.264013 328.474986 
L 486.898897 338.1597 
L 487.533782 327.663241 
L 488.168666 338.85072 
L 488.803551 330.243221 
L 489.438435 337.885761 
L 490.07332 331.376051 
L 490.708204 322.380504 
L 491.343089 327.417586 
L 491.977973 320.66936 
L 492.612858 318.772159 
L 493.247742 320.608385 
L 493.882627 334.094916 
L 494.517511 337.875215 
L 495.152396 325.636399 
L 495.78728 318.673056 
L 496.422165 318.953557 
L 497.057049 324.900435 
L 497.691934 335.376026 
L 498.326818 332.490893 
L 498.961703 330.383961 
L 499.596587 311.676369 
L 500.231472 334.403802 
L 500.866356 324.70095 
L 501.501241 319.611435 
L 502.136125 324.418895 
L 502.77101 307.084953 
L 503.405894 331.629948 
L 504.040779 321.223049 
L 504.675663 314.316022 
L 505.310548 328.610464 
L 505.945433 320.006698 
L 506.580317 331.335242 
L 507.215202 323.099482 
L 507.850086 318.831531 
L 508.484971 327.912379 
L 509.119855 311.158354 
L 509.75474 321.481681 
L 510.389624 328.012084 
L 511.659393 304.995005 
L 512.294278 319.633004 
L 512.929162 331.062456 
L 513.564047 314.864625 
L 514.198931 307.360018 
L 514.833816 318.984045 
L 515.4687 324.649444 
L 516.103585 332.956325 
L 516.738469 313.757849 
L 517.373354 323.758412 
L 518.008238 311.734238 
L 518.643123 326.618168 
L 519.278007 314.683051 
L 519.912892 322.185227 
L 520.547776 317.086894 
L 521.182661 321.567257 
L 521.817545 319.021222 
L 522.45243 318.943862 
L 523.087314 324.955098 
L 523.722199 322.805653 
L 524.357083 317.085216 
L 524.991968 316.111513 
L 525.626852 304.768339 
L 526.261737 310.452477 
L 526.896621 318.525202 
L 527.531506 313.02652 
L 528.801275 324.321119 
L 529.43616 317.354995 
L 530.071044 307.729979 
L 530.705929 318.674884 
L 531.340813 322.730499 
L 531.975698 316.89758 
L 532.610582 319.301122 
L 533.245467 312.350405 
L 533.880351 278.898645 
L 534.515236 313.04844 
L 535.15012 312.222141 
L 535.785005 305.869103 
L 536.419889 318.234128 
L 537.054774 300.116374 
L 537.689658 305.052975 
L 538.324543 293.765766 
L 538.959427 296.544479 
L 539.594312 315.875428 
L 540.229196 312.594381 
L 540.864081 315.007543 
L 541.498965 300.822376 
L 542.13385 298.132094 
L 542.768734 302.309283 
L 543.403619 297.959038 
L 544.038503 296.252028 
L 544.673388 299.794863 
L 545.308272 315.929113 
L 545.943157 316.402387 
L 546.578041 300.951942 
L 547.212926 308.67387 
L 547.84781 310.184576 
L 548.482695 307.326149 
L 549.11758 289.998269 
L 549.752464 294.453179 
L 550.387349 310.482389 
L 551.022233 316.614673 
L 551.657118 316.345019 
L 552.292002 293.351263 
L 552.926887 300.05615 
L 553.561771 301.908409 
L 554.196656 308.855143 
L 554.83154 284.66395 
L 555.466425 302.573927 
L 556.101309 311.794387 
L 556.736194 302.660255 
L 557.371078 290.256901 
L 558.005963 280.40865 
L 558.640847 314.538329 
L 559.275732 320.020576 
L 559.910616 315.546376 
L 561.180385 293.328567 
L 561.81527 292.726128 
L 562.450154 295.577591 
L 563.085039 301.347856 
L 563.719923 290.5727 
L 564.354808 285.812813 
L 564.989692 308.24113 
L 565.624577 297.285653 
L 566.259461 294.552583 
L 566.894346 296.479446 
L 567.52923 291.433219 
L 568.164115 296.732666 
L 568.798999 314.721906 
L 569.433884 271.878811 
L 570.068768 277.799485 
L 570.703653 299.091466 
L 571.338538 290.623805 
L 571.973422 290.496042 
L 572.608307 293.744672 
L 573.243191 298.059895 
L 573.878076 272.70967 
L 574.51296 269.755044 
L 575.147845 279.244757 
L 575.782729 276.232263 
L 576.417614 284.852488 
L 576.417614 284.852488 
" clip-path="url(#p6f543fa423)" style="fill: none; stroke: #ff7f0e; stroke-width: 1.5; stroke-linecap: square"/>
   </g>
   <g id="patch_3">
    <path d="M 43.78125 576.718125 
L 43.78125 22.318125 
" style="fill: none; stroke: #000000; stroke-width: 0.8; stroke-linejoin: miter; stroke-linecap: square"/>
   </g>
   <g id="patch_4">
    <path d="M 601.78125 576.718125 
L 601.78125 22.318125 
" style="fill: none; stroke: #000000; stroke-width: 0.8; stroke-linejoin: miter; stroke-linecap: square"/>
   </g>
   <g id="patch_5">
    <path d="M 43.78125 576.718125 
L 601.78125 576.718125 
" style="fill: none; stroke: #000000; stroke-width: 0.8; stroke-linejoin: miter; stroke-linecap: square"/>
   </g>
   <g id="patch_6">
    <path d="M 43.78125 22.318125 
L 601.78125 22.318125 
" style="fill: none; stroke: #000000; stroke-width: 0.8; stroke-linejoin: miter; stroke-linecap: square"/>
   </g>
   <g id="text_19">
    <!-- Train and Val Loss -->
    <g transform="translate(269.235937 16.318125) scale(0.12 -0.12)">
     <defs>
      <path id="DejaVuSans-54" d="M -19 4666 
L 3928 4666 
L 3928 4134 
L 2272 4134 
L 2272 0 
L 1638 0 
L 1638 4134 
L -19 4134 
L -19 4666 
z
" transform="scale(0.015625)"/>
      <path id="DejaVuSans-72" d="M 2631 2963 
Q 2534 3019 2420 3045 
Q 2306 3072 2169 3072 
Q 1681 3072 1420 2755 
Q 1159 2438 1159 1844 
L 1159 0 
L 581 0 
L 581 3500 
L 1159 3500 
L 1159 2956 
Q 1341 3275 1631 3429 
Q 1922 3584 2338 3584 
Q 2397 3584 2469 3576 
Q 2541 3569 2628 3553 
L 2631 2963 
z
" transform="scale(0.015625)"/>
      <path id="DejaVuSans-61" d="M 2194 1759 
Q 1497 1759 1228 1600 
Q 959 1441 959 1056 
Q 959 750 1161 570 
Q 1363 391 1709 391 
Q 2188 391 2477 730 
Q 2766 1069 2766 1631 
L 2766 1759 
L 2194 1759 
z
M 3341 1997 
L 3341 0 
L 2766 0 
L 2766 531 
Q 2569 213 2275 61 
Q 1981 -91 1556 -91 
Q 1019 -91 701 211 
Q 384 513 384 1019 
Q 384 1609 779 1909 
Q 1175 2209 1959 2209 
L 2766 2209 
L 2766 2266 
Q 2766 2663 2505 2880 
Q 2244 3097 1772 3097 
Q 1472 3097 1187 3025 
Q 903 2953 641 2809 
L 641 3341 
Q 956 3463 1253 3523 
Q 1550 3584 1831 3584 
Q 2591 3584 2966 3190 
Q 3341 2797 3341 1997 
z
" transform="scale(0.015625)"/>
      <path id="DejaVuSans-69" d="M 603 3500 
L 1178 3500 
L 1178 0 
L 603 0 
L 603 3500 
z
M 603 4863 
L 1178 4863 
L 1178 4134 
L 603 4134 
L 603 4863 
z
" transform="scale(0.015625)"/>
      <path id="DejaVuSans-6e" d="M 3513 2113 
L 3513 0 
L 2938 0 
L 2938 2094 
Q 2938 2591 2744 2837 
Q 2550 3084 2163 3084 
Q 1697 3084 1428 2787 
Q 1159 2491 1159 1978 
L 1159 0 
L 581 0 
L 581 3500 
L 1159 3500 
L 1159 2956 
Q 1366 3272 1645 3428 
Q 1925 3584 2291 3584 
Q 2894 3584 3203 3211 
Q 3513 2838 3513 2113 
z
" transform="scale(0.015625)"/>
      <path id="DejaVuSans-20" transform="scale(0.015625)"/>
      <path id="DejaVuSans-64" d="M 2906 2969 
L 2906 4863 
L 3481 4863 
L 3481 0 
L 2906 0 
L 2906 525 
Q 2725 213 2448 61 
Q 2172 -91 1784 -91 
Q 1150 -91 751 415 
Q 353 922 353 1747 
Q 353 2572 751 3078 
Q 1150 3584 1784 3584 
Q 2172 3584 2448 3432 
Q 2725 3281 2906 2969 
z
M 947 1747 
Q 947 1113 1208 752 
Q 1469 391 1925 391 
Q 2381 391 2643 752 
Q 2906 1113 2906 1747 
Q 2906 2381 2643 2742 
Q 2381 3103 1925 3103 
Q 1469 3103 1208 2742 
Q 947 2381 947 1747 
z
" transform="scale(0.015625)"/>
      <path id="DejaVuSans-56" d="M 1831 0 
L 50 4666 
L 709 4666 
L 2188 738 
L 3669 4666 
L 4325 4666 
L 2547 0 
L 1831 0 
z
" transform="scale(0.015625)"/>
      <path id="DejaVuSans-6c" d="M 603 4863 
L 1178 4863 
L 1178 0 
L 603 0 
L 603 4863 
z
" transform="scale(0.015625)"/>
     </defs>
     <use xlink:href="#DejaVuSans-54"/>
     <use xlink:href="#DejaVuSans-72" transform="translate(46.333984 0)"/>
     <use xlink:href="#DejaVuSans-61" transform="translate(87.447266 0)"/>
     <use xlink:href="#DejaVuSans-69" transform="translate(148.726562 0)"/>
     <use xlink:href="#DejaVuSans-6e" transform="translate(176.509766 0)"/>
     <use xlink:href="#DejaVuSans-20" transform="translate(239.888672 0)"/>
     <use xlink:href="#DejaVuSans-61" transform="translate(271.675781 0)"/>
     <use xlink:href="#DejaVuSans-6e" transform="translate(332.955078 0)"/>
     <use xlink:href="#DejaVuSans-64" transform="translate(396.333984 0)"/>
     <use xlink:href="#DejaVuSans-20" transform="translate(459.810547 0)"/>
     <use xlink:href="#DejaVuSans-56" transform="translate(491.597656 0)"/>
     <use xlink:href="#DejaVuSans-61" transform="translate(552.255859 0)"/>
     <use xlink:href="#DejaVuSans-6c" transform="translate(613.535156 0)"/>
     <use xlink:href="#DejaVuSans-20" transform="translate(641.318359 0)"/>
     <use xlink:href="#DejaVuSans-4c" transform="translate(673.105469 0)"/>
     <use xlink:href="#DejaVuSans-6f" transform="translate(727.068359 0)"/>
     <use xlink:href="#DejaVuSans-73" transform="translate(788.25 0)"/>
     <use xlink:href="#DejaVuSans-73" transform="translate(840.349609 0)"/>
    </g>
   </g>
   <g id="legend_1">
    <g id="patch_7">
     <path d="M 515.190625 60.230625 
L 594.78125 60.230625 
Q 596.78125 60.230625 596.78125 58.230625 
L 596.78125 29.318125 
Q 596.78125 27.318125 594.78125 27.318125 
L 515.190625 27.318125 
Q 513.190625 27.318125 513.190625 29.318125 
L 513.190625 58.230625 
Q 513.190625 60.230625 515.190625 60.230625 
z
" style="fill: #ffffff; opacity: 0.8; stroke: #cccccc; stroke-linejoin: miter"/>
    </g>
    <g id="line2d_35">
     <path d="M 517.190625 35.416563 
L 527.190625 35.416563 
L 537.190625 35.416563 
" style="fill: none; stroke: #1f77b4; stroke-width: 1.5; stroke-linecap: square"/>
    </g>
    <g id="text_20">
     <!-- train_loss -->
     <g transform="translate(545.190625 38.916563) scale(0.1 -0.1)">
      <defs>
       <path id="DejaVuSans-74" d="M 1172 4494 
L 1172 3500 
L 2356 3500 
L 2356 3053 
L 1172 3053 
L 1172 1153 
Q 1172 725 1289 603 
Q 1406 481 1766 481 
L 2356 481 
L 2356 0 
L 1766 0 
Q 1100 0 847 248 
Q 594 497 594 1153 
L 594 3053 
L 172 3053 
L 172 3500 
L 594 3500 
L 594 4494 
L 1172 4494 
z
" transform="scale(0.015625)"/>
       <path id="DejaVuSans-5f" d="M 3263 -1063 
L 3263 -1509 
L -63 -1509 
L -63 -1063 
L 3263 -1063 
z
" transform="scale(0.015625)"/>
      </defs>
      <use xlink:href="#DejaVuSans-74"/>
      <use xlink:href="#DejaVuSans-72" transform="translate(39.208984 0)"/>
      <use xlink:href="#DejaVuSans-61" transform="translate(80.322266 0)"/>
      <use xlink:href="#DejaVuSans-69" transform="translate(141.601562 0)"/>
      <use xlink:href="#DejaVuSans-6e" transform="translate(169.384766 0)"/>
      <use xlink:href="#DejaVuSans-5f" transform="translate(232.763672 0)"/>
      <use xlink:href="#DejaVuSans-6c" transform="translate(282.763672 0)"/>
      <use xlink:href="#DejaVuSans-6f" transform="translate(310.546875 0)"/>
      <use xlink:href="#DejaVuSans-73" transform="translate(371.728516 0)"/>
      <use xlink:href="#DejaVuSans-73" transform="translate(423.828125 0)"/>
     </g>
    </g>
    <g id="line2d_36">
     <path d="M 517.190625 50.372813 
L 527.190625 50.372813 
L 537.190625 50.372813 
" style="fill: none; stroke: #ff7f0e; stroke-width: 1.5; stroke-linecap: square"/>
    </g>
    <g id="text_21">
     <!-- val_loss -->
     <g transform="translate(545.190625 53.872813) scale(0.1 -0.1)">
      <defs>
       <path id="DejaVuSans-76" d="M 191 3500 
L 800 3500 
L 1894 563 
L 2988 3500 
L 3597 3500 
L 2284 0 
L 1503 0 
L 191 3500 
z
" transform="scale(0.015625)"/>
      </defs>
      <use xlink:href="#DejaVuSans-76"/>
      <use xlink:href="#DejaVuSans-61" transform="translate(59.179688 0)"/>
      <use xlink:href="#DejaVuSans-6c" transform="translate(120.458984 0)"/>
      <use xlink:href="#DejaVuSans-5f" transform="translate(148.242188 0)"/>
      <use xlink:href="#DejaVuSans-6c" transform="translate(198.242188 0)"/>
      <use xlink:href="#DejaVuSans-6f" transform="translate(226.025391 0)"/>
      <use xlink:href="#DejaVuSans-73" transform="translate(287.207031 0)"/>
      <use xlink:href="#DejaVuSans-73" transform="translate(339.306641 0)"/>
     </g>
    </g>
   </g>
  </g>
 </g>
 <defs>
  <clipPath id="p6f543fa423">
   <rect x="43.78125" y="22.318125" width="558" height="554.4"/>
  </clipPath>
 </defs>
</svg>
