<?xml version="1.0" encoding="utf-8" standalone="no"?>
<!DOCTYPE svg PUBLIC "-//W3C//DTD SVG 1.1//EN"
  "http://www.w3.org/Graphics/SVG/1.1/DTD/svg11.dtd">
<svg xmlns:xlink="http://www.w3.org/1999/xlink" width="608.98125pt" height="614.274375pt" viewBox="0 0 608.98125 614.274375" xmlns="http://www.w3.org/2000/svg" version="1.1">
 <metadata>
  <rdf:RDF xmlns:dc="http://purl.org/dc/elements/1.1/" xmlns:cc="http://creativecommons.org/ns#" xmlns:rdf="http://www.w3.org/1999/02/22-rdf-syntax-ns#">
   <cc:Work>
    <dc:type rdf:resource="http://purl.org/dc/dcmitype/StillImage"/>
    <dc:date>2026-06-03T12:26:59.720382</dc:date>
    <dc:format>image/svg+xml</dc:format>
    <dc:creator>
     <cc:Agent>
      <dc:title>Matplotlib v3.10.9, https://matplotlib.org/</dc:title>
     </cc:Agent>
    </dc:creator>
   </cc:Work>
  </rdf:RDF>
 </metadata>
 <defs>
  <style type="text/css">*{stroke-linejoin: round; stroke-linecap: butt}</style>
 </defs>
 <g id="figure_1">
  <g id="patch_1">
   <path d="M 0 614.274375 
L 608.98125 614.274375 
L 608.98125 0 
L 0 0 
z
" style="fill: #ffffff"/>
  </g>
  <g id="axes_1">
   <g id="patch_2">
    <path d="M 43.78125 576.718125 
L 601.78125 576.718125 
L 601.78125 22.318125 
L 43.78125 22.318125 
z
" style="fill: #ffffff"/>
   </g>
   <g id="matplotlib.axis_1">
    <g id="xtick_1">
     <g id="line2d_1">
      <path d="M 69.144886 576.718125 
L 69.144886 22.318125 
" clip-path="url(#pdc05ea7124)" style="fill: none; stroke: #b0b0b0; stroke-width: 0.8; stroke-linecap: square"/>
     </g>
     <g id="line2d_2">
      <defs>
       <path id="m6f805ec5d2" d="M 0 0 
L 0 3.5 
" style="stroke: #000000; stroke-width: 0.8"/>
      </defs>
      <g>
       <use xlink:href="#m6f805ec5d2" x="69.144886" y="576.718125" style="stroke: #000000; stroke-width: 0.8"/>
      </g>
     </g>
     <g id="text_1">
      <!-- 0 -->
      <g transform="translate(65.963636 591.316563) scale(0.1 -0.1)">
       <defs>
        <path id="DejaVuSans-30" d="M 2034 4250 
Q 1547 4250 1301 3770 
Q 1056 3291 1056 2328 
Q 1056 1369 1301 889 
Q 1547 409 2034 409 
Q 2525 409 2770 889 
Q 3016 1369 3016 2328 
Q 3016 3291 2770 3770 
Q 2525 4250 2034 4250 
z
M 2034 4750 
Q 2819 4750 3233 4129 
Q 3647 3509 3647 2328 
Q 3647 1150 3233 529 
Q 2819 -91 2034 -91 
Q 1250 -91 836 529 
Q 422 1150 422 2328 
Q 422 3509 836 4129 
Q 1250 4750 2034 4750 
z
" transform="scale(0.015625)"/>
       </defs>
       <use xlink:href="#DejaVuSans-30"/>
      </g>
     </g>
    </g>
    <g id="xtick_2">
     <g id="line2d_3">
      <path d="M 132.633338 576.718125 
L 132.633338 22.318125 
" clip-path="url(#pdc05ea7124)" style="fill: none; stroke: #b0b0b0; stroke-width: 0.8; stroke-linecap: square"/>
     </g>
     <g id="line2d_4">
      <g>
       <use xlink:href="#m6f805ec5d2" x="132.633338" y="576.718125" style="stroke: #000000; stroke-width: 0.8"/>
      </g>
     </g>
     <g id="text_2">
      <!-- 100 -->
      <g transform="translate(123.089588 591.316563) scale(0.1 -0.1)">
       <defs>
        <path id="DejaVuSans-31" d="M 794 531 
L 1825 531 
L 1825 4091 
L 703 3866 
L 703 4441 
L 1819 4666 
L 2450 4666 
L 2450 531 
L 3481 531 
L 3481 0 
L 794 0 
L 794 531 
z
" transform="scale(0.015625)"/>
       </defs>
       <use xlink:href="#DejaVuSans-31"/>
       <use xlink:href="#DejaVuSans-30" transform="translate(63.623047 0)"/>
       <use xlink:href="#DejaVuSans-30" transform="translate(127.246094 0)"/>
      </g>
     </g>
    </g>
    <g id="xtick_3">
     <g id="line2d_5">
      <path d="M 196.121789 576.718125 
L 196.121789 22.318125 
" clip-path="url(#pdc05ea7124)" style="fill: none; stroke: #b0b0b0; stroke-width: 0.8; stroke-linecap: square"/>
     </g>
     <g id="line2d_6">
      <g>
       <use xlink:href="#m6f805ec5d2" x="196.121789" y="576.718125" style="stroke: #000000; stroke-width: 0.8"/>
      </g>
     </g>
     <g id="text_3">
      <!-- 200 -->
      <g transform="translate(186.578039 591.316563) scale(0.1 -0.1)">
       <defs>
        <path id="DejaVuSans-32" d="M 1228 531 
L 3431 531 
L 3431 0 
L 469 0 
L 469 531 
Q 828 903 1448 1529 
Q 2069 2156 2228 2338 
Q 2531 2678 2651 2914 
Q 2772 3150 2772 3378 
Q 2772 3750 2511 3984 
Q 2250 4219 1831 4219 
Q 1534 4219 1204 4116 
Q 875 4013 500 3803 
L 500 4441 
Q 881 4594 1212 4672 
Q 1544 4750 1819 4750 
Q 2544 4750 2975 4387 
Q 3406 4025 3406 3419 
Q 3406 3131 3298 2873 
Q 3191 2616 2906 2266 
Q 2828 2175 2409 1742 
Q 1991 1309 1228 531 
z
" transform="scale(0.015625)"/>
       </defs>
       <use xlink:href="#DejaVuSans-32"/>
       <use xlink:href="#DejaVuSans-30" transform="translate(63.623047 0)"/>
       <use xlink:href="#DejaVuSans-30" transform="translate(127.246094 0)"/>
      </g>
     </g>
    </g>
    <g id="xtick_4">
     <g id="line2d_7">
      <path d="M 259.610241 576.718125 
L 259.610241 22.318125 
" clip-path="url(#pdc05ea7124)" style="fill: none; stroke: #b0b0b0; stroke-width: 0.8; stroke-linecap: square"/>
     </g>
     <g id="line2d_8">
      <g>
       <use xlink:href="#m6f805ec5d2" x="259.610241" y="576.718125" style="stroke: #000000; stroke-width: 0.8"/>
      </g>
     </g>
     <g id="text_4">
      <!-- 300 -->
      <g transform="translate(250.066491 591.316563) scale(0.1 -0.1)">
       <defs>
        <path id="DejaVuSans-33" d="M 2597 2516 
Q 3050 2419 3304 2112 
Q 3559 1806 3559 1356 
Q 3559 666 3084 287 
Q 2609 -91 1734 -91 
Q 1441 -91 1130 -33 
Q 819 25 488 141 
L 488 750 
Q 750 597 1062 519 
Q 1375 441 1716 441 
Q 2309 441 2620 675 
Q 2931 909 2931 1356 
Q 2931 1769 2642 2001 
Q 2353 2234 1838 2234 
L 1294 2234 
L 1294 2753 
L 1863 2753 
Q 2328 2753 2575 2939 
Q 2822 3125 2822 3475 
Q 2822 3834 2567 4026 
Q 2313 4219 1838 4219 
Q 1578 4219 1281 4162 
Q 984 4106 628 3988 
L 628 4550 
Q 988 4650 1302 4700 
Q 1616 4750 1894 4750 
Q 2613 4750 3031 4423 
Q 3450 4097 3450 3541 
Q 3450 3153 3228 2886 
Q 3006 2619 2597 2516 
z
" transform="scale(0.015625)"/>
       </defs>
       <use xlink:href="#DejaVuSans-33"/>
       <use xlink:href="#DejaVuSans-30" transform="translate(63.623047 0)"/>
       <use xlink:href="#DejaVuSans-30" transform="translate(127.246094 0)"/>
      </g>
     </g>
    </g>
    <g id="xtick_5">
     <g id="line2d_9">
      <path d="M 323.098692 576.718125 
L 323.098692 22.318125 
" clip-path="url(#pdc05ea7124)" style="fill: none; stroke: #b0b0b0; stroke-width: 0.8; stroke-linecap: square"/>
     </g>
     <g id="line2d_10">
      <g>
       <use xlink:href="#m6f805ec5d2" x="323.098692" y="576.718125" style="stroke: #000000; stroke-width: 0.8"/>
      </g>
     </g>
     <g id="text_5">
      <!-- 400 -->
      <g transform="translate(313.554942 591.316563) scale(0.1 -0.1)">
       <defs>
        <path id="DejaVuSans-34" d="M 2419 4116 
L 825 1625 
L 2419 1625 
L 2419 4116 
z
M 2253 4666 
L 3047 4666 
L 3047 1625 
L 3713 1625 
L 3713 1100 
L 3047 1100 
L 3047 0 
L 2419 0 
L 2419 1100 
L 313 1100 
L 313 1709 
L 2253 4666 
z
" transform="scale(0.015625)"/>
       </defs>
       <use xlink:href="#DejaVuSans-34"/>
       <use xlink:href="#DejaVuSans-30" transform="translate(63.623047 0)"/>
       <use xlink:href="#DejaVuSans-30" transform="translate(127.246094 0)"/>
      </g>
     </g>
    </g>
    <g id="xtick_6">
     <g id="line2d_11">
      <path d="M 386.587144 576.718125 
L 386.587144 22.318125 
" clip-path="url(#pdc05ea7124)" style="fill: none; stroke: #b0b0b0; stroke-width: 0.8; stroke-linecap: square"/>
     </g>
     <g id="line2d_12">
      <g>
       <use xlink:href="#m6f805ec5d2" x="386.587144" y="576.718125" style="stroke: #000000; stroke-width: 0.8"/>
      </g>
     </g>
     <g id="text_6">
      <!-- 500 -->
      <g transform="translate(377.043394 591.316563) scale(0.1 -0.1)">
       <defs>
        <path id="DejaVuSans-35" d="M 691 4666 
L 3169 4666 
L 3169 4134 
L 1269 4134 
L 1269 2991 
Q 1406 3038 1543 3061 
Q 1681 3084 1819 3084 
Q 2600 3084 3056 2656 
Q 3513 2228 3513 1497 
Q 3513 744 3044 326 
Q 2575 -91 1722 -91 
Q 1428 -91 1123 -41 
Q 819 9 494 109 
L 494 744 
Q 775 591 1075 516 
Q 1375 441 1709 441 
Q 2250 441 2565 725 
Q 2881 1009 2881 1497 
Q 2881 1984 2565 2268 
Q 2250 2553 1709 2553 
Q 1456 2553 1204 2497 
Q 953 2441 691 2322 
L 691 4666 
z
" transform="scale(0.015625)"/>
       </defs>
       <use xlink:href="#DejaVuSans-35"/>
       <use xlink:href="#DejaVuSans-30" transform="translate(63.623047 0)"/>
       <use xlink:href="#DejaVuSans-30" transform="translate(127.246094 0)"/>
      </g>
     </g>
    </g>
    <g id="xtick_7">
     <g id="line2d_13">
      <path d="M 450.075595 576.718125 
L 450.075595 22.318125 
" clip-path="url(#pdc05ea7124)" style="fill: none; stroke: #b0b0b0; stroke-width: 0.8; stroke-linecap: square"/>
     </g>
     <g id="line2d_14">
      <g>
       <use xlink:href="#m6f805ec5d2" x="450.075595" y="576.718125" style="stroke: #000000; stroke-width: 0.8"/>
      </g>
     </g>
     <g id="text_7">
      <!-- 600 -->
      <g transform="translate(440.531845 591.316563) scale(0.1 -0.1)">
       <defs>
        <path id="DejaVuSans-36" d="M 2113 2584 
Q 1688 2584 1439 2293 
Q 1191 2003 1191 1497 
Q 1191 994 1439 701 
Q 1688 409 2113 409 
Q 2538 409 2786 701 
Q 3034 994 3034 1497 
Q 3034 2003 2786 2293 
Q 2538 2584 2113 2584 
z
M 3366 4563 
L 3366 3988 
Q 3128 4100 2886 4159 
Q 2644 4219 2406 4219 
Q 1781 4219 1451 3797 
Q 1122 3375 1075 2522 
Q 1259 2794 1537 2939 
Q 1816 3084 2150 3084 
Q 2853 3084 3261 2657 
Q 3669 2231 3669 1497 
Q 3669 778 3244 343 
Q 2819 -91 2113 -91 
Q 1303 -91 875 529 
Q 447 1150 447 2328 
Q 447 3434 972 4092 
Q 1497 4750 2381 4750 
Q 2619 4750 2861 4703 
Q 3103 4656 3366 4563 
z
" transform="scale(0.015625)"/>
       </defs>
       <use xlink:href="#DejaVuSans-36"/>
       <use xlink:href="#DejaVuSans-30" transform="translate(63.623047 0)"/>
       <use xlink:href="#DejaVuSans-30" transform="translate(127.246094 0)"/>
      </g>
     </g>
    </g>
    <g id="xtick_8">
     <g id="line2d_15">
      <path d="M 513.564047 576.718125 
L 513.564047 22.318125 
" clip-path="url(#pdc05ea7124)" style="fill: none; stroke: #b0b0b0; stroke-width: 0.8; stroke-linecap: square"/>
     </g>
     <g id="line2d_16">
      <g>
       <use xlink:href="#m6f805ec5d2" x="513.564047" y="576.718125" style="stroke: #000000; stroke-width: 0.8"/>
      </g>
     </g>
     <g id="text_8">
      <!-- 700 -->
      <g transform="translate(504.020297 591.316563) scale(0.1 -0.1)">
       <defs>
        <path id="DejaVuSans-37" d="M 525 4666 
L 3525 4666 
L 3525 4397 
L 1831 0 
L 1172 0 
L 2766 4134 
L 525 4134 
L 525 4666 
z
" transform="scale(0.015625)"/>
       </defs>
       <use xlink:href="#DejaVuSans-37"/>
       <use xlink:href="#DejaVuSans-30" transform="translate(63.623047 0)"/>
       <use xlink:href="#DejaVuSans-30" transform="translate(127.246094 0)"/>
      </g>
     </g>
    </g>
    <g id="xtick_9">
     <g id="line2d_17">
      <path d="M 577.052498 576.718125 
L 577.052498 22.318125 
" clip-path="url(#pdc05ea7124)" style="fill: none; stroke: #b0b0b0; stroke-width: 0.8; stroke-linecap: square"/>
     </g>
     <g id="line2d_18">
      <g>
       <use xlink:href="#m6f805ec5d2" x="577.052498" y="576.718125" style="stroke: #000000; stroke-width: 0.8"/>
      </g>
     </g>
     <g id="text_9">
      <!-- 800 -->
      <g transform="translate(567.508748 591.316563) scale(0.1 -0.1)">
       <defs>
        <path id="DejaVuSans-38" d="M 2034 2216 
Q 1584 2216 1326 1975 
Q 1069 1734 1069 1313 
Q 1069 891 1326 650 
Q 1584 409 2034 409 
Q 2484 409 2743 651 
Q 3003 894 3003 1313 
Q 3003 1734 2745 1975 
Q 2488 2216 2034 2216 
z
M 1403 2484 
Q 997 2584 770 2862 
Q 544 3141 544 3541 
Q 544 4100 942 4425 
Q 1341 4750 2034 4750 
Q 2731 4750 3128 4425 
Q 3525 4100 3525 3541 
Q 3525 3141 3298 2862 
Q 3072 2584 2669 2484 
Q 3125 2378 3379 2068 
Q 3634 1759 3634 1313 
Q 3634 634 3220 271 
Q 2806 -91 2034 -91 
Q 1263 -91 848 271 
Q 434 634 434 1313 
Q 434 1759 690 2068 
Q 947 2378 1403 2484 
z
M 1172 3481 
Q 1172 3119 1398 2916 
Q 1625 2713 2034 2713 
Q 2441 2713 2670 2916 
Q 2900 3119 2900 3481 
Q 2900 3844 2670 4047 
Q 2441 4250 2034 4250 
Q 1625 4250 1398 4047 
Q 1172 3844 1172 3481 
z
" transform="scale(0.015625)"/>
       </defs>
       <use xlink:href="#DejaVuSans-38"/>
       <use xlink:href="#DejaVuSans-30" transform="translate(63.623047 0)"/>
       <use xlink:href="#DejaVuSans-30" transform="translate(127.246094 0)"/>
      </g>
     </g>
    </g>
    <g id="text_10">
     <!-- Epochs -->
     <g transform="translate(304.865625 604.994688) scale(0.1 -0.1)">
      <defs>
       <path id="DejaVuSans-45" d="M 628 4666 
L 3578 4666 
L 3578 4134 
L 1259 4134 
L 1259 2753 
L 3481 2753 
L 3481 2222 
L 1259 2222 
L 1259 531 
L 3634 531 
L 3634 0 
L 628 0 
L 628 4666 
z
" transform="scale(0.015625)"/>
       <path id="DejaVuSans-70" d="M 1159 525 
L 1159 -1331 
L 581 -1331 
L 581 3500 
L 1159 3500 
L 1159 2969 
Q 1341 3281 1617 3432 
Q 1894 3584 2278 3584 
Q 2916 3584 3314 3078 
Q 3713 2572 3713 1747 
Q 3713 922 3314 415 
Q 2916 -91 2278 -91 
Q 1894 -91 1617 61 
Q 1341 213 1159 525 
z
M 3116 1747 
Q 3116 2381 2855 2742 
Q 2594 3103 2138 3103 
Q 1681 3103 1420 2742 
Q 1159 2381 1159 1747 
Q 1159 1113 1420 752 
Q 1681 391 2138 391 
Q 2594 391 2855 752 
Q 3116 1113 3116 1747 
z
" transform="scale(0.015625)"/>
       <path id="DejaVuSans-6f" d="M 1959 3097 
Q 1497 3097 1228 2736 
Q 959 2375 959 1747 
Q 959 1119 1226 758 
Q 1494 397 1959 397 
Q 2419 397 2687 759 
Q 2956 1122 2956 1747 
Q 2956 2369 2687 2733 
Q 2419 3097 1959 3097 
z
M 1959 3584 
Q 2709 3584 3137 3096 
Q 3566 2609 3566 1747 
Q 3566 888 3137 398 
Q 2709 -91 1959 -91 
Q 1206 -91 779 398 
Q 353 888 353 1747 
Q 353 2609 779 3096 
Q 1206 3584 1959 3584 
z
" transform="scale(0.015625)"/>
       <path id="DejaVuSans-63" d="M 3122 3366 
L 3122 2828 
Q 2878 2963 2633 3030 
Q 2388 3097 2138 3097 
Q 1578 3097 1268 2742 
Q 959 2388 959 1747 
Q 959 1106 1268 751 
Q 1578 397 2138 397 
Q 2388 397 2633 464 
Q 2878 531 3122 666 
L 3122 134 
Q 2881 22 2623 -34 
Q 2366 -91 2075 -91 
Q 1284 -91 818 406 
Q 353 903 353 1747 
Q 353 2603 823 3093 
Q 1294 3584 2113 3584 
Q 2378 3584 2631 3529 
Q 2884 3475 3122 3366 
z
" transform="scale(0.015625)"/>
       <path id="DejaVuSans-68" d="M 3513 2113 
L 3513 0 
L 2938 0 
L 2938 2094 
Q 2938 2591 2744 2837 
Q 2550 3084 2163 3084 
Q 1697 3084 1428 2787 
Q 1159 2491 1159 1978 
L 1159 0 
L 581 0 
L 581 4863 
L 1159 4863 
L 1159 2956 
Q 1366 3272 1645 3428 
Q 1925 3584 2291 3584 
Q 2894 3584 3203 3211 
Q 3513 2838 3513 2113 
z
" transform="scale(0.015625)"/>
       <path id="DejaVuSans-73" d="M 2834 3397 
L 2834 2853 
Q 2591 2978 2328 3040 
Q 2066 3103 1784 3103 
Q 1356 3103 1142 2972 
Q 928 2841 928 2578 
Q 928 2378 1081 2264 
Q 1234 2150 1697 2047 
L 1894 2003 
Q 2506 1872 2764 1633 
Q 3022 1394 3022 966 
Q 3022 478 2636 193 
Q 2250 -91 1575 -91 
Q 1294 -91 989 -36 
Q 684 19 347 128 
L 347 722 
Q 666 556 975 473 
Q 1284 391 1588 391 
Q 1994 391 2212 530 
Q 2431 669 2431 922 
Q 2431 1156 2273 1281 
Q 2116 1406 1581 1522 
L 1381 1569 
Q 847 1681 609 1914 
Q 372 2147 372 2553 
Q 372 3047 722 3315 
Q 1072 3584 1716 3584 
Q 2034 3584 2315 3537 
Q 2597 3491 2834 3397 
z
" transform="scale(0.015625)"/>
      </defs>
      <use xlink:href="#DejaVuSans-45"/>
      <use xlink:href="#DejaVuSans-70" transform="translate(63.183594 0)"/>
      <use xlink:href="#DejaVuSans-6f" transform="translate(126.660156 0)"/>
      <use xlink:href="#DejaVuSans-63" transform="translate(187.841797 0)"/>
      <use xlink:href="#DejaVuSans-68" transform="translate(242.822266 0)"/>
      <use xlink:href="#DejaVuSans-73" transform="translate(306.201172 0)"/>
     </g>
    </g>
   </g>
   <g id="matplotlib.axis_2">
    <g id="ytick_1">
     <g id="line2d_19">
      <path d="M 43.78125 553.900312 
L 601.78125 553.900312 
" clip-path="url(#pdc05ea7124)" style="fill: none; stroke: #b0b0b0; stroke-width: 0.8; stroke-linecap: square"/>
     </g>
     <g id="line2d_20">
      <defs>
       <path id="m9f99604a2e" d="M 0 0 
L -3.5 0 
" style="stroke: #000000; stroke-width: 0.8"/>
      </defs>
      <g>
       <use xlink:href="#m9f99604a2e" x="43.78125" y="553.900312" style="stroke: #000000; stroke-width: 0.8"/>
      </g>
     </g>
     <g id="text_11">
      <!-- 0.0 -->
      <g transform="translate(20.878125 557.699531) scale(0.1 -0.1)">
       <defs>
        <path id="DejaVuSans-2e" d="M 684 794 
L 1344 794 
L 1344 0 
L 684 0 
L 684 794 
z
" transform="scale(0.015625)"/>
       </defs>
       <use xlink:href="#DejaVuSans-30"/>
       <use xlink:href="#DejaVuSans-2e" transform="translate(63.623047 0)"/>
       <use xlink:href="#DejaVuSans-30" transform="translate(95.410156 0)"/>
      </g>
     </g>
    </g>
    <g id="ytick_2">
     <g id="line2d_21">
      <path d="M 43.78125 431.932349 
L 601.78125 431.932349 
" clip-path="url(#pdc05ea7124)" style="fill: none; stroke: #b0b0b0; stroke-width: 0.8; stroke-linecap: square"/>
     </g>
     <g id="line2d_22">
      <g>
       <use xlink:href="#m9f99604a2e" x="43.78125" y="431.932349" style="stroke: #000000; stroke-width: 0.8"/>
      </g>
     </g>
     <g id="text_12">
      <!-- 0.2 -->
      <g transform="translate(20.878125 435.731568) scale(0.1 -0.1)">
       <use xlink:href="#DejaVuSans-30"/>
       <use xlink:href="#DejaVuSans-2e" transform="translate(63.623047 0)"/>
       <use xlink:href="#DejaVuSans-32" transform="translate(95.410156 0)"/>
      </g>
     </g>
    </g>
    <g id="ytick_3">
     <g id="line2d_23">
      <path d="M 43.78125 309.964386 
L 601.78125 309.964386 
" clip-path="url(#pdc05ea7124)" style="fill: none; stroke: #b0b0b0; stroke-width: 0.8; stroke-linecap: square"/>
     </g>
     <g id="line2d_24">
      <g>
       <use xlink:href="#m9f99604a2e" x="43.78125" y="309.964386" style="stroke: #000000; stroke-width: 0.8"/>
      </g>
     </g>
     <g id="text_13">
      <!-- 0.4 -->
      <g transform="translate(20.878125 313.763605) scale(0.1 -0.1)">
       <use xlink:href="#DejaVuSans-30"/>
       <use xlink:href="#DejaVuSans-2e" transform="translate(63.623047 0)"/>
       <use xlink:href="#DejaVuSans-34" transform="translate(95.410156 0)"/>
      </g>
     </g>
    </g>
    <g id="ytick_4">
     <g id="line2d_25">
      <path d="M 43.78125 187.996423 
L 601.78125 187.996423 
" clip-path="url(#pdc05ea7124)" style="fill: none; stroke: #b0b0b0; stroke-width: 0.8; stroke-linecap: square"/>
     </g>
     <g id="line2d_26">
      <g>
       <use xlink:href="#m9f99604a2e" x="43.78125" y="187.996423" style="stroke: #000000; stroke-width: 0.8"/>
      </g>
     </g>
     <g id="text_14">
      <!-- 0.6 -->
      <g transform="translate(20.878125 191.795642) scale(0.1 -0.1)">
       <use xlink:href="#DejaVuSans-30"/>
       <use xlink:href="#DejaVuSans-2e" transform="translate(63.623047 0)"/>
       <use xlink:href="#DejaVuSans-36" transform="translate(95.410156 0)"/>
      </g>
     </g>
    </g>
    <g id="ytick_5">
     <g id="line2d_27">
      <path d="M 43.78125 66.028461 
L 601.78125 66.028461 
" clip-path="url(#pdc05ea7124)" style="fill: none; stroke: #b0b0b0; stroke-width: 0.8; stroke-linecap: square"/>
     </g>
     <g id="line2d_28">
      <g>
       <use xlink:href="#m9f99604a2e" x="43.78125" y="66.028461" style="stroke: #000000; stroke-width: 0.8"/>
      </g>
     </g>
     <g id="text_15">
      <!-- 0.8 -->
      <g transform="translate(20.878125 69.827679) scale(0.1 -0.1)">
       <use xlink:href="#DejaVuSans-30"/>
       <use xlink:href="#DejaVuSans-2e" transform="translate(63.623047 0)"/>
       <use xlink:href="#DejaVuSans-38" transform="translate(95.410156 0)"/>
      </g>
     </g>
    </g>
    <g id="text_16">
     <!-- Accuracy -->
     <g transform="translate(14.798438 322.34625) rotate(-90) scale(0.1 -0.1)">
      <defs>
       <path id="DejaVuSans-41" d="M 2188 4044 
L 1331 1722 
L 3047 1722 
L 2188 4044 
z
M 1831 4666 
L 2547 4666 
L 4325 0 
L 3669 0 
L 3244 1197 
L 1141 1197 
L 716 0 
L 50 0 
L 1831 4666 
z
" transform="scale(0.015625)"/>
       <path id="DejaVuSans-75" d="M 544 1381 
L 544 3500 
L 1119 3500 
L 1119 1403 
Q 1119 906 1312 657 
Q 1506 409 1894 409 
Q 2359 409 2629 706 
Q 2900 1003 2900 1516 
L 2900 3500 
L 3475 3500 
L 3475 0 
L 2900 0 
L 2900 538 
Q 2691 219 2414 64 
Q 2138 -91 1772 -91 
Q 1169 -91 856 284 
Q 544 659 544 1381 
z
M 1991 3584 
L 1991 3584 
z
" transform="scale(0.015625)"/>
       <path id="DejaVuSans-72" d="M 2631 2963 
Q 2534 3019 2420 3045 
Q 2306 3072 2169 3072 
Q 1681 3072 1420 2755 
Q 1159 2438 1159 1844 
L 1159 0 
L 581 0 
L 581 3500 
L 1159 3500 
L 1159 2956 
Q 1341 3275 1631 3429 
Q 1922 3584 2338 3584 
Q 2397 3584 2469 3576 
Q 2541 3569 2628 3553 
L 2631 2963 
z
" transform="scale(0.015625)"/>
       <path id="DejaVuSans-61" d="M 2194 1759 
Q 1497 1759 1228 1600 
Q 959 1441 959 1056 
Q 959 750 1161 570 
Q 1363 391 1709 391 
Q 2188 391 2477 730 
Q 2766 1069 2766 1631 
L 2766 1759 
L 2194 1759 
z
M 3341 1997 
L 3341 0 
L 2766 0 
L 2766 531 
Q 2569 213 2275 61 
Q 1981 -91 1556 -91 
Q 1019 -91 701 211 
Q 384 513 384 1019 
Q 384 1609 779 1909 
Q 1175 2209 1959 2209 
L 2766 2209 
L 2766 2266 
Q 2766 2663 2505 2880 
Q 2244 3097 1772 3097 
Q 1472 3097 1187 3025 
Q 903 2953 641 2809 
L 641 3341 
Q 956 3463 1253 3523 
Q 1550 3584 1831 3584 
Q 2591 3584 2966 3190 
Q 3341 2797 3341 1997 
z
" transform="scale(0.015625)"/>
       <path id="DejaVuSans-79" d="M 2059 -325 
Q 1816 -950 1584 -1140 
Q 1353 -1331 966 -1331 
L 506 -1331 
L 506 -850 
L 844 -850 
Q 1081 -850 1212 -737 
Q 1344 -625 1503 -206 
L 1606 56 
L 191 3500 
L 800 3500 
L 1894 763 
L 2988 3500 
L 3597 3500 
L 2059 -325 
z
" transform="scale(0.015625)"/>
      </defs>
      <use xlink:href="#DejaVuSans-41"/>
      <use xlink:href="#DejaVuSans-63" transform="translate(66.658203 0)"/>
      <use xlink:href="#DejaVuSans-63" transform="translate(121.638672 0)"/>
      <use xlink:href="#DejaVuSans-75" transform="translate(176.619141 0)"/>
      <use xlink:href="#DejaVuSans-72" transform="translate(239.998047 0)"/>
      <use xlink:href="#DejaVuSans-61" transform="translate(281.111328 0)"/>
      <use xlink:href="#DejaVuSans-63" transform="translate(342.390625 0)"/>
      <use xlink:href="#DejaVuSans-79" transform="translate(397.371094 0)"/>
     </g>
    </g>
   </g>
   <g id="line2d_29">
    <path d="M 69.144886 352.627757 
L 69.779771 298.983881 
L 70.414655 278.002001 
L 71.04954 267.280689 
L 71.684424 261.014581 
L 72.954193 252.983334 
L 73.589078 249.581767 
L 74.858847 244.609876 
L 75.493732 242.507615 
L 76.128616 239.907332 
L 76.763501 238.326829 
L 78.03327 234.083377 
L 82.477461 222.682751 
L 83.112346 220.507646 
L 84.382115 217.460158 
L 85.016999 215.451061 
L 85.651884 214.538003 
L 86.286768 212.727118 
L 88.191422 208.749597 
L 89.461191 206.540651 
L 90.73096 204.490879 
L 91.365844 202.844329 
L 92.000729 202.165033 
L 92.635613 200.474428 
L 93.905382 198.533085 
L 94.540267 197.467579 
L 95.175151 197.07119 
L 95.810036 195.404284 
L 96.44492 194.735167 
L 97.079805 193.444331 
L 98.349574 191.982399 
L 98.984459 190.776293 
L 101.523997 187.093529 
L 102.158881 186.22449 
L 102.793766 185.143717 
L 104.063535 183.612358 
L 104.698419 182.501088 
L 105.333304 181.618527 
L 105.968188 180.520815 
L 106.603073 180.005818 
L 107.237957 179.097849 
L 107.872842 178.620147 
L 108.507726 177.181915 
L 109.777495 175.95887 
L 111.682149 173.11294 
L 112.317033 172.35742 
L 113.586802 170.411024 
L 114.221687 169.743579 
L 116.12634 167.241548 
L 116.761225 166.048965 
L 118.030994 165.10541 
L 118.665879 163.773936 
L 119.300763 163.192892 
L 119.935648 162.779565 
L 121.205417 161.334571 
L 122.475186 159.701543 
L 123.11007 158.863038 
L 123.744955 158.659737 
L 124.379839 157.682304 
L 125.649608 156.681136 
L 126.284493 155.873128 
L 126.919377 155.256498 
L 128.189146 153.704784 
L 128.824031 153.179646 
L 129.458915 152.308935 
L 130.0938 152.015887 
L 130.728684 151.494129 
L 131.363569 150.376098 
L 131.998453 149.869571 
L 132.633338 149.632428 
L 133.268222 148.812533 
L 134.537991 147.765638 
L 135.172876 147.416648 
L 135.80776 146.305414 
L 137.712414 144.541965 
L 138.347298 144.450474 
L 139.617067 143.154549 
L 140.251952 143.118999 
L 140.886837 142.40241 
L 141.521721 141.962002 
L 142.156606 141.38263 
L 142.79149 141.465652 
L 144.061259 139.946143 
L 147.235682 137.442404 
L 147.870566 137.720222 
L 149.140335 136.010969 
L 149.77522 135.733152 
L 151.044989 134.809916 
L 151.679873 134.427086 
L 152.314758 134.286487 
L 152.949642 133.637688 
L 153.584527 133.493672 
L 154.854296 132.445104 
L 155.48918 131.935197 
L 156.124065 132.024979 
L 156.758949 131.144091 
L 157.393834 130.849334 
L 158.028718 130.293736 
L 158.663603 130.349605 
L 159.933372 129.167199 
L 160.568256 128.999519 
L 161.203141 129.009661 
L 162.47291 127.749322 
L 163.107795 127.551146 
L 164.377564 126.854912 
L 165.012448 126.685487 
L 166.282217 125.630122 
L 166.917102 125.657239 
L 167.551986 124.957624 
L 168.186871 124.925419 
L 169.45664 123.981864 
L 170.091524 123.727782 
L 170.726409 123.216203 
L 171.361293 123.101012 
L 173.265947 122.135429 
L 173.900831 122.118491 
L 176.440369 120.39906 
L 177.075254 120.207645 
L 177.710138 119.873922 
L 178.345023 119.336934 
L 179.614792 119.116694 
L 181.519445 118.003751 
L 182.789215 117.829275 
L 184.058984 116.872162 
L 184.693868 116.611283 
L 185.328753 116.934828 
L 185.963637 116.404601 
L 186.598522 116.028531 
L 187.233406 115.918429 
L 187.868291 115.615204 
L 188.503175 114.891889 
L 189.13806 114.597133 
L 189.772944 114.549697 
L 190.407829 114.071995 
L 191.042713 114.195655 
L 192.312482 113.424868 
L 192.947367 113.40793 
L 193.582251 112.715076 
L 194.217136 112.223815 
L 194.85202 112.501633 
L 195.486905 112.308509 
L 196.121789 111.717324 
L 196.756674 111.785079 
L 197.391558 111.492031 
L 198.661327 111.146459 
L 200.565981 110.226604 
L 201.200865 109.715024 
L 202.470634 109.435498 
L 203.105519 109.511722 
L 203.740403 109.203408 
L 204.375288 108.590195 
L 205.010173 108.917157 
L 205.645057 108.070146 
L 206.279942 108.126051 
L 206.914826 107.773681 
L 207.549711 107.648349 
L 208.184595 106.704794 
L 209.454364 107.165558 
L 210.724133 106.394771 
L 211.359018 106.381213 
L 211.993902 105.713804 
L 212.628787 106.028879 
L 213.263671 105.637543 
L 215.803209 104.851526 
L 216.438094 104.495812 
L 217.072978 104.531361 
L 218.342747 104.04857 
L 219.612516 103.365894 
L 220.247401 103.386213 
L 221.51717 102.754354 
L 222.152054 102.523972 
L 222.786939 102.647632 
L 223.421823 102.085236 
L 224.691592 102.41049 
L 225.326477 102.190286 
L 225.961362 101.455085 
L 226.596246 101.51099 
L 227.231131 100.997702 
L 227.866015 101.075598 
L 228.5009 100.848633 
L 229.770669 100.675829 
L 230.405553 100.193038 
L 231.040438 100.008383 
L 231.675322 99.989773 
L 232.310207 99.640783 
L 232.945091 99.549328 
L 233.579976 99.335885 
L 234.21486 99.53915 
L 234.849745 99.132584 
L 235.484629 98.910671 
L 236.119514 98.534602 
L 236.754398 98.492255 
L 237.389283 98.617623 
L 238.024167 97.902742 
L 238.659052 97.702857 
L 239.293936 97.67236 
L 239.928821 97.516531 
L 240.563705 97.687627 
L 241.19859 97.186189 
L 241.833474 97.099786 
L 242.468359 96.843996 
L 243.103243 96.974454 
L 243.738128 96.622084 
L 244.373012 96.722044 
L 245.007897 96.467927 
L 245.642781 96.506893 
L 246.277666 95.974994 
L 246.91255 95.637891 
L 247.547435 96.04613 
L 248.18232 95.5227 
L 248.817204 95.476936 
L 249.452089 95.012792 
L 250.086973 94.885751 
L 250.721858 94.606225 
L 251.356742 94.89084 
L 251.991627 94.194606 
L 252.626511 94.604553 
L 254.531165 93.820208 
L 255.166049 93.53901 
L 255.800934 93.596624 
L 257.070703 93.555949 
L 257.705587 92.983375 
L 258.340472 92.832598 
L 258.975356 92.91562 
L 259.610241 92.624244 
L 260.245125 92.478556 
L 260.88001 92.590367 
L 261.514894 92.212625 
L 262.149779 91.599376 
L 263.419548 91.773853 
L 265.324201 91.241954 
L 265.959086 90.721904 
L 266.59397 91.130143 
L 267.228855 90.635502 
L 267.863739 90.361065 
L 268.498624 90.489814 
L 269.768393 90.198438 
L 270.403278 90.208616 
L 271.038162 89.856246 
L 271.673047 89.703797 
L 272.307931 89.951118 
L 272.942816 89.326019 
L 273.5777 89.271822 
L 274.212585 89.476796 
L 275.482354 88.717895 
L 276.117238 88.90593 
L 277.387007 88.499364 
L 278.021892 88.614554 
L 278.656776 87.703169 
L 279.291661 88.099594 
L 279.926545 87.865796 
L 280.56143 87.510081 
L 281.831199 87.679469 
L 283.100968 87.330516 
L 283.735852 87.250875 
L 284.370737 87.289841 
L 285.005621 87.069637 
L 285.640506 86.564818 
L 286.27539 86.486885 
L 286.910275 86.29547 
L 287.545159 86.520763 
L 288.814928 85.949897 
L 289.449813 86.124374 
L 290.084697 85.611086 
L 290.719582 85.592475 
L 291.354467 85.338357 
L 293.25912 85.096125 
L 294.528889 84.736994 
L 295.163774 84.828449 
L 295.798658 84.689559 
L 297.703312 84.577748 
L 298.338196 84.113604 
L 298.973081 83.864575 
L 299.607965 83.825609 
L 300.24285 83.56473 
L 300.877734 83.766323 
L 301.512619 83.408901 
L 302.147503 83.690099 
L 302.782388 83.324207 
L 303.417272 83.525764 
L 304.687041 82.904082 
L 305.321926 83.085356 
L 305.95681 82.724516 
L 306.591695 82.670319 
L 307.226579 82.292541 
L 307.861464 82.165501 
L 308.496348 82.68893 
L 309.131233 82.326419 
L 309.766117 82.336597 
L 311.035886 81.858894 
L 311.670771 81.652212 
L 312.305656 81.052558 
L 312.94054 81.4303 
L 313.575425 81.135544 
L 314.210309 81.348987 
L 314.845194 80.773032 
L 315.480078 81.360836 
L 316.114963 80.91534 
L 316.749847 81.099958 
L 317.384732 80.635814 
L 318.019616 80.31056 
L 318.654501 80.481656 
L 319.289385 80.354616 
L 319.92427 80.479984 
L 320.559154 80.073417 
L 321.194039 80.169961 
L 323.098692 79.482196 
L 323.733577 79.677028 
L 324.368461 79.141713 
L 325.63823 79.351775 
L 326.273115 79.045169 
L 326.907999 79.324659 
L 327.542884 79.246726 
L 328.177768 78.868984 
L 328.812653 78.921509 
L 329.447537 78.625044 
L 330.082422 78.680949 
L 330.717306 78.506472 
L 331.352191 78.582697 
L 332.62196 78.32011 
L 333.256844 77.972865 
L 333.891729 78.020301 
L 335.161498 77.493454 
L 335.796383 77.327447 
L 337.066152 77.478188 
L 337.701036 77.612026 
L 338.970805 77.030982 
L 339.60569 77.278303 
L 340.240574 76.848036 
L 340.875459 76.814159 
L 341.510343 76.526163 
L 344.049881 76.307631 
L 344.684766 76.109455 
L 345.31965 75.789291 
L 345.954535 76.233115 
L 346.589419 76.084047 
L 347.224304 75.730005 
L 347.859188 76.009495 
L 348.494073 75.579228 
L 349.128957 75.506384 
L 349.763842 75.204867 
L 350.398726 75.497915 
L 351.668495 75.216717 
L 352.30338 74.835558 
L 352.938264 75.284472 
L 354.208033 75.143873 
L 354.842918 74.340917 
L 356.112687 74.718695 
L 356.747572 74.68649 
L 357.382456 74.132563 
L 358.652225 74.349386 
L 359.28711 73.866595 
L 359.921994 73.94282 
L 360.556879 74.237576 
L 361.191763 73.905562 
L 361.826648 73.964847 
L 362.461532 73.509173 
L 365.00107 72.962007 
L 365.635955 73.57013 
L 366.270839 72.989087 
L 366.905724 73.129722 
L 367.540608 72.980618 
L 368.175493 73.094137 
L 368.810377 72.66387 
L 369.445262 72.401283 
L 370.080146 72.580848 
L 371.349915 72.026922 
L 372.619684 72.054002 
L 373.254569 72.452099 
L 373.889453 71.750776 
L 374.524338 71.503455 
L 375.159222 72.147201 
L 377.063876 71.142652 
L 377.698761 71.605124 
L 378.333645 71.154502 
L 378.96853 71.334068 
L 379.603414 71.003725 
L 380.238299 71.235816 
L 382.142952 70.951237 
L 383.412721 70.429479 
L 384.047606 70.351547 
L 384.68249 70.509084 
L 385.317375 70.483676 
L 386.587144 70.024621 
L 387.222028 70.016152 
L 387.856913 69.633285 
L 388.491797 69.463897 
L 389.126682 69.658693 
L 389.761566 69.533361 
L 390.396451 69.711218 
L 391.031335 69.543502 
L 391.66622 69.203018 
L 392.301104 69.590938 
L 392.935989 69.145405 
L 393.570873 68.943848 
L 395.475527 68.928581 
L 396.110411 68.159503 
L 396.745296 68.726988 
L 397.38018 68.842179 
L 398.015065 68.023993 
L 398.64995 68.288252 
L 399.284834 68.110395 
L 399.919719 68.41024 
L 400.554603 68.467818 
L 401.824372 68.242525 
L 402.459257 67.717387 
L 403.094141 67.70212 
L 403.729026 67.427719 
L 404.36391 67.659773 
L 405.633679 67.41925 
L 406.268564 67.373486 
L 406.903448 66.733157 
L 407.538333 67.20239 
L 408.173217 66.660313 
L 408.808102 67.131254 
L 409.442986 66.846676 
L 410.712755 66.516333 
L 411.34764 66.362176 
L 411.982524 66.67558 
L 412.617409 66.55868 
L 413.887178 66.819559 
L 415.156947 66.019984 
L 415.791831 66.116564 
L 416.426716 65.987815 
L 417.0616 66.197877 
L 418.331369 65.740494 
L 418.966254 65.974257 
L 419.601138 65.247525 
L 421.505792 65.557512 
L 422.140677 64.962947 
L 422.775561 65.156034 
L 423.410446 64.873164 
L 424.680215 64.608905 
L 425.315099 64.922272 
L 425.949984 64.825728 
L 427.219753 64.397134 
L 428.489522 64.220949 
L 429.124406 64.55638 
L 429.759291 64.358167 
L 430.394175 63.953309 
L 431.02906 64.234507 
L 432.298829 63.390913 
L 432.933713 63.846588 
L 433.568598 63.858437 
L 434.203482 63.526423 
L 434.838367 63.644994 
L 435.473251 63.392585 
L 436.108136 62.852216 
L 436.74302 63.246897 
L 437.377905 63.040251 
L 438.012789 63.063951 
L 439.282558 62.784461 
L 440.552327 62.886094 
L 441.187212 62.418533 
L 442.456981 62.598099 
L 443.091866 62.283023 
L 444.361635 62.55408 
L 444.996519 62.19324 
L 445.631404 62.31352 
L 446.266288 61.744327 
L 447.536057 62.04588 
L 448.170942 61.603728 
L 448.805826 61.430959 
L 449.440711 61.593586 
L 450.075595 61.563089 
L 450.71048 61.253066 
L 451.345364 61.180222 
L 451.980249 61.43434 
L 452.615133 60.644942 
L 453.250018 61.227658 
L 453.884902 61.119264 
L 454.519787 60.743195 
L 455.154671 61.132786 
L 455.789556 60.341717 
L 456.42444 60.727928 
L 457.059325 60.550071 
L 457.694209 60.013083 
L 458.329094 60.102866 
L 458.963978 60.67544 
L 459.598863 60.106246 
L 460.233747 60.368797 
L 460.868632 60.114715 
L 461.503516 60.372214 
L 462.138401 59.93853 
L 462.773285 59.80302 
L 464.043055 59.825048 
L 465.947708 59.564169 
L 466.582593 59.581108 
L 467.217477 59.001737 
L 467.852362 59.526875 
L 468.487246 59.181302 
L 469.122131 59.077997 
L 469.757015 58.478307 
L 470.3919 59.113547 
L 471.026784 58.793383 
L 471.661669 58.652784 
L 472.296553 58.922132 
L 472.931438 58.883165 
L 473.566322 58.227606 
L 474.201207 58.588409 
L 474.836091 58.696839 
L 475.470976 58.529123 
L 476.10586 58.054801 
L 476.740745 58.352938 
L 477.375629 58.100529 
L 478.010514 58.317389 
L 478.645398 57.834597 
L 479.280283 57.937902 
L 479.915167 57.746487 
L 481.184936 57.787162 
L 481.819821 57.522902 
L 482.454705 57.44835 
L 483.08959 57.721079 
L 483.724474 57.453439 
L 484.359359 57.389064 
L 484.994244 57.170532 
L 486.264013 57.355187 
L 488.168666 56.93677 
L 488.803551 57.004525 
L 489.438435 56.675891 
L 490.07332 56.818199 
L 490.708204 56.459068 
L 491.343089 56.55732 
L 491.977973 56.43366 
L 492.612858 56.664041 
L 493.247742 56.718238 
L 493.882627 56.489565 
L 494.517511 56.596286 
L 495.152396 55.959338 
L 495.78728 56.526823 
L 496.422165 55.823791 
L 497.691934 55.972896 
L 498.326818 55.606968 
L 498.961703 56.118548 
L 499.596587 55.396905 
L 500.231472 55.278334 
L 500.866356 55.451138 
L 501.501241 55.46128 
L 502.136125 55.068271 
L 502.77101 55.339328 
L 504.040779 55.19364 
L 504.675663 55.451138 
L 505.310548 55.32577 
L 505.945433 54.788782 
L 506.580317 54.436412 
L 507.215202 55.003897 
L 508.484971 55.102149 
L 509.119855 54.568541 
L 509.75474 54.658324 
L 510.389624 54.255174 
L 511.024509 54.538044 
L 511.659393 54.353426 
L 512.294278 54.412712 
L 512.929162 54.33816 
L 513.564047 54.688821 
L 514.198931 53.758825 
L 514.833816 53.862166 
L 515.4687 54.104397 
L 516.738469 53.819819 
L 517.373354 54.158594 
L 518.008238 53.772383 
L 518.643123 53.813022 
L 519.912892 53.469157 
L 520.547776 53.494565 
L 521.182661 53.391224 
L 521.817545 53.662281 
L 522.45243 53.381047 
L 523.087314 53.270945 
L 523.722199 52.766126 
L 524.357083 52.774595 
L 524.991968 53.132054 
L 525.626852 52.905053 
L 526.261737 52.518805 
L 526.896621 52.656024 
L 527.531506 52.418881 
L 528.166391 52.415464 
L 528.801275 52.944019 
L 529.43616 52.357887 
L 530.071044 52.754276 
L 530.705929 52.076689 
L 531.340813 52.611968 
L 531.975698 52.134266 
L 532.610582 52.161383 
L 533.880351 51.942851 
L 535.785005 51.620978 
L 536.419889 51.185623 
L 537.054774 51.617597 
L 537.689658 51.343197 
L 538.959427 51.532904 
L 539.594312 51.050112 
L 540.229196 50.745215 
L 540.864081 51.365188 
L 542.768734 50.865458 
L 543.403619 50.623226 
L 544.038503 50.889194 
L 544.673388 50.865458 
L 545.308272 50.968799 
L 546.578041 50.670662 
L 547.212926 50.394553 
L 547.84781 50.380995 
L 548.482695 50.226837 
L 549.11758 50.218368 
L 549.752464 50.528355 
L 550.387349 50.240396 
L 551.022233 50.365728 
L 551.657118 50.164171 
L 552.292002 50.396225 
L 552.926887 49.976136 
L 554.196656 49.793154 
L 555.466425 49.886354 
L 556.101309 50.399606 
L 556.736194 49.760985 
L 557.371078 49.854148 
L 558.005963 49.044431 
L 558.640847 49.32901 
L 559.275732 49.159622 
L 559.910616 49.559392 
L 560.545501 49.174853 
L 561.180385 49.213819 
L 561.81527 49.415412 
L 562.450154 49.054573 
L 563.085039 49.222289 
L 563.719923 49.086778 
L 564.354808 48.771703 
L 564.989692 48.631104 
L 565.624577 48.69715 
L 566.894346 48.571782 
L 567.52923 48.80558 
L 568.164115 48.290584 
L 568.798999 48.363428 
L 569.433884 48.653095 
L 570.068768 47.968747 
L 570.703653 48.20589 
L 571.338538 48.256706 
L 571.973422 48.088991 
L 572.608307 48.46168 
L 573.243191 48.053441 
L 574.51296 47.518125 
L 575.147845 47.823059 
L 575.782729 47.552003 
L 576.417614 47.69093 
L 576.417614 47.69093 
" clip-path="url(#pdc05ea7124)" style="fill: none; stroke: #1f77b4; stroke-width: 1.5; stroke-linecap: square"/>
   </g>
   <g id="line2d_30">
    <path d="M 69.144886 315.712132 
L 69.779771 288.315075 
L 71.04954 264.760011 
L 71.684424 259.835556 
L 72.954193 255.216016 
L 73.589078 252.959616 
L 74.223962 249.300569 
L 75.493732 244.376114 
L 76.128616 243.598566 
L 76.763501 241.708076 
L 77.398385 241.372645 
L 78.03327 238.110006 
L 78.668154 238.735104 
L 79.303039 238.90282 
L 79.937923 236.493953 
L 80.572808 234.755875 
L 81.207692 235.640144 
L 81.842577 229.968638 
L 82.477461 230.365027 
L 83.112346 226.431562 
L 83.74723 224.571569 
L 85.016999 222.589588 
L 85.651884 222.757303 
L 86.286768 220.119726 
L 86.921653 221.202208 
L 87.556537 219.647113 
L 88.191422 216.719869 
L 88.826306 216.643644 
L 89.461191 213.899382 
L 90.096075 217.253476 
L 92.000729 210.026875 
L 92.635613 212.877895 
L 93.270498 208.761483 
L 93.905382 209.249327 
L 94.540267 206.566059 
L 95.175151 212.32902 
L 95.810036 203.150935 
L 96.44492 207.465559 
L 97.079805 203.364378 
L 97.71469 203.364378 
L 98.349574 200.299951 
L 98.984459 200.818292 
L 99.619343 199.080251 
L 100.254228 200.223727 
L 100.889112 198.485686 
L 101.523997 198.348467 
L 102.158881 198.485686 
L 102.793766 202.785043 
L 103.42865 196.518935 
L 104.063535 197.860587 
L 104.698419 194.933343 
L 105.333304 193.286793 
L 105.968188 191.274315 
L 106.603073 192.890404 
L 107.237957 191.457261 
L 107.872842 192.112856 
L 108.507726 189.551504 
L 109.142611 188.804454 
L 109.777495 188.408065 
L 110.41238 188.636738 
L 111.047264 187.965948 
L 111.682149 185.099698 
L 112.317033 185.740027 
L 113.586802 184.017216 
L 114.221687 183.910495 
L 114.856571 184.169665 
L 115.491456 182.416394 
L 116.12634 183.163444 
L 116.761225 183.300663 
L 117.396109 181.044245 
L 118.030994 180.098981 
L 118.665879 181.21196 
L 119.300763 181.928514 
L 119.935648 179.473919 
L 120.570532 178.391437 
L 121.205417 178.681105 
L 121.840301 179.504416 
L 122.475186 177.308992 
L 123.11007 175.555684 
L 123.744955 176.546675 
L 124.379839 174.412245 
L 125.014724 177.461441 
L 125.649608 172.338772 
L 126.919377 173.970092 
L 127.554262 172.110099 
L 128.189146 171.972881 
L 128.824031 169.472522 
L 129.458915 170.555004 
L 130.0938 170.463513 
L 130.728684 168.557792 
L 131.363569 168.84746 
L 131.998453 172.140596 
L 132.633338 166.850212 
L 133.268222 167.749748 
L 133.903107 167.521038 
L 134.537991 166.652036 
L 135.80776 164.288896 
L 136.442645 166.636769 
L 137.077529 166.72826 
L 137.712414 165.7525 
L 138.347298 165.584821 
L 138.982183 162.596582 
L 139.617067 166.118428 
L 140.251952 161.773307 
L 140.886837 160.309703 
L 141.521721 163.877277 
L 142.79149 159.760829 
L 143.426375 159.410168 
L 144.061259 162.032478 
L 144.696144 161.25493 
L 145.331028 159.959042 
L 145.965913 158.388716 
L 146.600797 157.656896 
L 147.235682 158.236231 
L 147.870566 157.88557 
L 148.505451 156.589681 
L 149.140335 158.37345 
L 149.77522 156.864118 
L 150.410104 157.336732 
L 151.044989 156.193292 
L 151.679873 156.543917 
L 152.314758 154.516209 
L 152.949642 156.178026 
L 153.584527 154.34853 
L 154.219411 156.467693 
L 154.854296 155.796867 
L 155.48918 155.659685 
L 156.124065 155.11081 
L 156.758949 154.394257 
L 157.393834 153.952104 
L 158.028718 159.150997 
L 158.663603 152.915386 
L 159.298487 154.272269 
L 159.933372 153.87588 
L 160.568256 154.150317 
L 161.203141 154.821143 
L 161.838026 151.543237 
L 162.47291 151.345061 
L 163.107795 150.872411 
L 163.742679 150.872411 
L 164.377564 152.412276 
L 165.012448 150.537016 
L 165.647333 150.094864 
L 166.282217 153.174557 
L 166.917102 148.326325 
L 167.551986 149.988142 
L 168.186871 149.256358 
L 168.821755 149.896687 
L 169.45664 154.333263 
L 170.091524 150.11013 
L 170.726409 150.293076 
L 171.361293 150.826684 
L 171.996178 147.884209 
L 172.631062 147.198153 
L 173.265947 148.280598 
L 173.900831 147.990931 
L 174.535716 150.415028 
L 175.1706 146.908449 
L 175.805485 147.411596 
L 176.440369 147.48782 
L 177.075254 146.51206 
L 177.710138 148.265368 
L 178.345023 155.004089 
L 178.979907 146.816994 
L 179.614792 145.170408 
L 180.249676 147.457323 
L 180.884561 147.22865 
L 181.519445 146.51206 
L 182.15433 147.48782 
L 182.789215 144.240411 
L 183.424099 146.420605 
L 184.058984 145.673555 
L 184.693868 146.146168 
L 185.328753 144.301405 
L 185.963637 146.588284 
L 186.598522 145.078953 
L 187.233406 144.789285 
L 187.868291 151.619462 
L 188.503175 144.118459 
L 189.13806 142.74631 
L 189.772944 144.62157 
L 190.407829 142.837801 
L 191.042713 145.902228 
L 191.677598 143.325645 
L 192.947367 143.112202 
L 193.582251 142.822535 
L 194.217136 143.813525 
L 194.85202 142.471873 
L 195.486905 142.2432 
L 196.121789 142.868262 
L 196.756674 144.240411 
L 197.391558 141.740089 
L 198.026443 143.127469 
L 198.661327 140.550886 
L 199.296212 142.212703 
L 199.931096 141.465652 
L 201.200865 142.2432 
L 201.83575 141.282706 
L 202.470634 140.093503 
L 203.105519 140.962542 
L 203.740403 139.971551 
L 204.375288 141.069263 
L 205.010173 140.230722 
L 205.645057 138.568905 
L 206.279942 139.239731 
L 206.914826 139.468404 
L 207.549711 143.798295 
L 208.184595 140.871051 
L 208.81948 141.038766 
L 209.454364 139.849563 
L 210.089249 139.86483 
L 211.359018 138.873839 
L 211.993902 138.24874 
L 212.628787 143.340912 
L 213.263671 139.681847 
L 213.898556 138.660396 
L 214.53344 138.873839 
L 215.168325 138.294468 
L 216.438094 139.331222 
L 217.072978 138.889069 
L 217.707863 137.51692 
L 218.342747 137.105301 
L 218.977632 139.63612 
L 219.612516 140.10877 
L 220.247401 137.105301 
L 220.882285 138.401189 
L 221.51717 137.699903 
L 222.152054 138.355462 
L 222.786939 137.562684 
L 223.421823 138.370692 
L 224.056708 138.355462 
L 224.691592 137.547417 
L 225.326477 138.660396 
L 225.961362 140.825323 
L 226.596246 136.724142 
L 227.231131 140.428934 
L 227.866015 136.724142 
L 228.5009 138.096292 
L 229.135784 136.129541 
L 229.770669 137.76086 
L 230.405553 136.708912 
L 231.040438 137.50169 
L 231.675322 136.373481 
L 232.310207 137.105301 
L 232.945091 136.571693 
L 233.579976 138.721354 
L 234.21486 135.458715 
L 234.849745 136.876591 
L 235.484629 136.373481 
L 236.119514 137.059537 
L 236.754398 139.483671 
L 237.389283 136.190535 
L 238.024167 135.839873 
L 238.659052 137.044307 
L 239.293936 138.980561 
L 239.928821 137.074804 
L 240.563705 135.794146 
L 241.19859 136.266759 
L 241.833474 135.641661 
L 242.468359 134.848883 
L 243.103243 136.571693 
L 243.738128 135.108053 
L 244.373012 135.153817 
L 245.007897 136.449705 
L 245.642781 136.022819 
L 246.277666 136.129541 
L 246.91255 134.315275 
L 247.547435 134.101832 
L 248.18232 133.400509 
L 248.817204 135.717921 
L 249.452089 135.885601 
L 250.086973 134.909877 
L 250.721858 134.162826 
L 251.356742 134.162826 
L 251.991627 137.288247 
L 252.626511 136.236262 
L 253.261396 135.534939 
L 253.89628 135.550206 
L 254.531165 134.071335 
L 255.166049 134.421997 
L 255.800934 138.279237 
L 256.435818 134.086602 
L 257.070703 135.519709 
L 257.705587 134.955604 
L 258.340472 133.857892 
L 258.975356 134.589712 
L 259.610241 135.565436 
L 260.88001 133.400509 
L 261.514894 132.531507 
L 262.149779 137.227253 
L 262.784663 134.284778 
L 264.054432 135.885601 
L 264.689317 135.687424 
L 265.324201 132.714453 
L 265.959086 134.925107 
L 266.59397 133.278557 
L 267.228855 135.397757 
L 267.863739 135.153817 
L 268.498624 133.65968 
L 269.133509 133.065114 
L 269.768393 135.504478 
L 270.403278 133.24806 
L 271.038162 134.620209 
L 271.673047 134.208554 
L 272.307931 134.467724 
L 272.942816 133.217563 
L 273.5777 134.315275 
L 274.212585 133.00412 
L 274.847469 137.76086 
L 275.482354 132.821174 
L 276.117238 134.025608 
L 276.752123 134.101832 
L 277.387007 136.373481 
L 278.021892 134.284778 
L 279.291661 133.309054 
L 279.926545 138.446953 
L 280.56143 136.907088 
L 281.196314 133.217563 
L 281.831199 132.455246 
L 282.466083 134.193323 
L 283.100968 131.586244 
L 284.370737 134.604943 
L 285.005621 133.476734 
L 285.640506 135.260538 
L 286.27539 131.967402 
L 286.910275 134.925107 
L 287.545159 131.738692 
L 288.180044 133.446236 
L 288.814928 131.555747 
L 289.449813 131.494752 
L 290.084697 132.196076 
L 290.719582 131.891178 
L 291.354467 134.803155 
L 291.989351 132.363791 
L 292.624236 135.458715 
L 293.25912 136.266759 
L 293.894005 132.98889 
L 294.528889 133.141339 
L 295.163774 139.163507 
L 295.798658 133.507231 
L 296.433543 134.498221 
L 297.068427 130.961145 
L 297.703312 139.453174 
L 298.338196 131.601474 
L 298.973081 136.937585 
L 299.607965 134.345772 
L 300.24285 133.598722 
L 300.877734 134.345772 
L 301.512619 133.690177 
L 302.147503 135.36726 
L 302.782388 132.333294 
L 303.417272 138.416456 
L 304.052157 133.964614 
L 304.687041 134.986101 
L 305.321926 133.979844 
L 305.95681 131.570977 
L 306.591695 134.696434 
L 307.226579 133.400509 
L 307.861464 133.766401 
L 308.496348 131.662468 
L 309.131233 135.748382 
L 309.766117 135.275769 
L 310.401002 131.357534 
L 311.035886 132.424785 
L 311.670771 134.665937 
L 312.305656 134.437227 
L 312.94054 133.309054 
L 313.575425 134.437227 
L 314.210309 133.781668 
L 314.845194 132.943126 
L 315.480078 135.687424 
L 316.114963 133.934117 
L 316.749847 134.040838 
L 317.384732 132.836405 
L 318.019616 135.656927 
L 318.654501 133.674946 
L 319.289385 138.507911 
L 319.92427 132.50101 
L 320.559154 134.726931 
L 321.194039 133.720674 
L 321.828923 139.834333 
L 322.463808 131.433795 
L 323.733577 135.38249 
L 324.368461 135.153817 
L 325.003346 135.230041 
L 325.63823 133.24806 
L 326.273115 135.961825 
L 326.907999 132.653459 
L 327.542884 133.949383 
L 328.177768 134.406766 
L 328.812653 134.620209 
L 329.447537 138.081025 
L 330.082422 132.897399 
L 330.717306 135.062326 
L 331.352191 135.672158 
L 331.987075 133.568225 
L 332.62196 133.705443 
L 333.256844 131.494752 
L 333.891729 132.821174 
L 334.526614 132.241803 
L 335.161498 133.126072 
L 335.796383 135.87037 
L 336.431267 133.629219 
L 337.066152 133.629219 
L 337.701036 134.101832 
L 338.335921 135.946595 
L 338.970805 134.132329 
L 339.60569 132.821174 
L 340.240574 132.363791 
L 340.875459 135.016598 
L 341.510343 134.528718 
L 342.145228 134.955604 
L 342.780112 133.537728 
L 343.414997 134.589712 
L 344.049881 133.583455 
L 344.684766 132.851671 
L 345.31965 135.473981 
L 345.954535 136.022819 
L 346.589419 133.126072 
L 347.224304 133.492 
L 347.859188 131.875911 
L 348.494073 133.370012 
L 349.128957 136.373481 
L 349.763842 136.556427 
L 350.398726 132.74495 
L 351.668495 136.28199 
L 352.30338 132.01313 
L 352.938264 132.226573 
L 353.573149 138.157249 
L 354.208033 137.090034 
L 354.842918 134.162826 
L 355.477803 132.119851 
L 356.747572 134.528718 
L 357.382456 138.629899 
L 358.017341 133.796898 
L 358.652225 134.818386 
L 359.28711 133.400509 
L 359.921994 132.348524 
L 360.556879 133.90362 
L 361.191763 133.583455 
L 361.826648 134.864113 
L 362.461532 133.705443 
L 363.096417 134.772658 
L 363.731301 136.541196 
L 364.366186 132.02836 
L 365.00107 132.714453 
L 365.635955 134.178057 
L 366.270839 131.860681 
L 366.905724 136.556427 
L 367.540608 134.284778 
L 368.175493 132.927896 
L 368.810377 132.638228 
L 369.445262 134.040838 
L 370.080146 133.095611 
L 370.715031 133.842662 
L 371.349915 132.897399 
L 371.9848 133.751171 
L 372.619684 132.836405 
L 373.254569 133.888389 
L 374.524338 134.056105 
L 375.159222 133.812165 
L 375.794107 137.01381 
L 376.428991 133.751171 
L 377.063876 133.507231 
L 377.698761 138.126789 
L 378.333645 133.65968 
L 378.96853 132.607731 
L 379.603414 135.214775 
L 380.238299 132.455246 
L 380.873183 136.251529 
L 381.508068 134.803155 
L 382.142952 134.254281 
L 382.777837 135.199544 
L 383.412721 135.36726 
L 384.047606 133.293788 
L 384.68249 133.309054 
L 385.317375 139.117779 
L 385.952259 136.373481 
L 386.587144 138.767118 
L 387.222028 134.269548 
L 387.856913 132.165578 
L 388.491797 132.241803 
L 389.126682 133.385279 
L 389.761566 135.38249 
L 390.396451 136.221032 
L 391.031335 132.485743 
L 391.66622 134.787889 
L 392.301104 134.65067 
L 392.935989 135.550206 
L 393.570873 133.65968 
L 394.205758 136.434475 
L 394.840642 133.065114 
L 395.475527 135.306266 
L 396.110411 136.556427 
L 396.745296 135.6112 
L 397.38018 135.397757 
L 398.015065 133.202333 
L 398.64995 138.812845 
L 399.284834 135.565436 
L 399.919719 137.318744 
L 400.554603 135.031829 
L 401.189488 133.507231 
L 401.824372 134.665937 
L 402.459257 133.126072 
L 403.094141 138.020067 
L 403.729026 138.584135 
L 404.36391 135.245272 
L 404.998795 135.153817 
L 405.633679 134.543949 
L 406.268564 134.787889 
L 406.903448 133.796898 
L 407.538333 135.13855 
L 408.173217 133.720674 
L 408.808102 135.351993 
L 409.442986 135.885601 
L 410.077871 134.559215 
L 410.712755 142.349921 
L 411.34764 135.534939 
L 411.982524 136.678415 
L 412.617409 133.537728 
L 413.252293 135.473981 
L 413.887178 134.086602 
L 414.522062 136.11431 
L 415.156947 134.604943 
L 415.791831 134.604943 
L 416.426716 135.230041 
L 417.0616 136.602191 
L 417.696485 135.214775 
L 418.331369 132.897399 
L 418.966254 136.480202 
L 419.601138 134.742161 
L 420.236023 135.001332 
L 420.870908 135.397757 
L 421.505792 133.857892 
L 422.140677 137.074804 
L 422.775561 134.833652 
L 423.410446 135.047095 
L 424.04533 134.589712 
L 424.680215 136.083813 
L 425.315099 132.683956 
L 426.584868 135.885601 
L 427.219753 135.992322 
L 427.854637 136.617421 
L 428.489522 135.428218 
L 429.124406 135.519709 
L 429.759291 134.574446 
L 430.394175 138.370692 
L 431.02906 134.909877 
L 431.663944 135.36726 
L 432.298829 133.73594 
L 432.933713 134.925107 
L 433.568598 137.715133 
L 434.203482 134.986101 
L 434.838367 136.312487 
L 435.473251 135.992322 
L 436.108136 136.449705 
L 436.74302 144.86551 
L 437.377905 136.602191 
L 438.012789 137.837085 
L 438.647674 133.888389 
L 439.282558 135.885601 
L 439.917443 138.660396 
L 440.552327 136.11431 
L 441.187212 142.334655 
L 441.822097 137.76086 
L 442.456981 137.455963 
L 443.091866 136.556427 
L 443.72675 136.708912 
L 444.361635 134.178057 
L 444.996519 134.986101 
L 445.631404 135.199544 
L 446.266288 134.010341 
L 446.901173 141.75532 
L 447.536057 134.818386 
L 448.170942 134.513488 
L 448.805826 134.742161 
L 449.440711 139.026288 
L 450.075595 135.336763 
L 450.71048 133.415776 
L 451.345364 134.864113 
L 451.980249 139.559896 
L 452.615133 137.01381 
L 453.250018 136.861361 
L 453.884902 134.559215 
L 454.519787 133.476734 
L 455.154671 138.172516 
L 455.789556 135.504478 
L 456.42444 137.562684 
L 457.059325 135.763649 
L 457.694209 137.455963 
L 458.329094 135.443484 
L 458.963978 135.443484 
L 459.598863 134.726931 
L 460.233747 136.998579 
L 460.868632 135.6112 
L 461.503516 134.604943 
L 462.138401 138.324965 
L 462.773285 135.336763 
L 463.40817 138.492681 
L 464.043055 138.0048 
L 464.677939 136.937585 
L 465.312824 138.858572 
L 465.947708 134.467724 
L 466.582593 137.547417 
L 467.217477 137.288247 
L 467.852362 135.001332 
L 468.487246 136.312487 
L 469.122131 134.63544 
L 469.757015 136.251529 
L 470.3919 142.334655 
L 471.026784 135.961825 
L 471.661669 133.446236 
L 472.296553 135.839873 
L 472.931438 139.803836 
L 473.566322 136.571693 
L 474.201207 135.580703 
L 474.836091 135.077556 
L 475.470976 140.840554 
L 476.10586 136.754639 
L 476.740745 136.129541 
L 477.375629 135.275769 
L 478.010514 138.020067 
L 478.645398 136.480202 
L 479.280283 138.904336 
L 479.915167 133.90362 
L 480.550052 137.959073 
L 481.184936 138.020067 
L 481.819821 136.998579 
L 482.454705 139.89529 
L 483.08959 144.469121 
L 483.724474 137.410199 
L 484.359359 136.160038 
L 484.994244 138.294468 
L 485.629128 135.321496 
L 486.264013 140.352673 
L 486.898897 135.946595 
L 487.533782 136.861361 
L 488.168666 138.111522 
L 488.803551 136.647918 
L 489.438435 136.35825 
L 490.07332 136.708912 
L 490.708204 141.938266 
L 491.343089 136.403978 
L 491.977973 137.425465 
L 492.612858 141.358931 
L 493.247742 136.617421 
L 493.882627 135.12332 
L 494.517511 136.968082 
L 495.152396 136.297256 
L 495.78728 143.905016 
L 496.422165 139.529398 
L 497.057049 139.346453 
L 497.691934 136.876591 
L 498.326818 138.035297 
L 498.961703 138.690857 
L 499.596587 137.608411 
L 500.231472 138.568905 
L 500.866356 135.733152 
L 501.501241 138.995791 
L 502.136125 137.227253 
L 502.77101 138.629899 
L 503.405894 138.065794 
L 504.040779 135.794146 
L 504.675663 136.373481 
L 505.310548 139.956284 
L 505.945433 139.315955 
L 506.580317 136.449705 
L 507.215202 138.24874 
L 507.850086 138.904336 
L 508.484971 137.425465 
L 509.119855 138.385959 
L 509.75474 135.809376 
L 511.024509 139.498901 
L 511.659393 139.941054 
L 512.294278 139.849563 
L 512.929162 138.782348 
L 513.564047 137.394968 
L 514.198931 138.477414 
L 514.833816 137.684636 
L 515.4687 136.190535 
L 516.103585 139.89529 
L 516.738469 141.358931 
L 517.373354 139.666617 
L 518.008238 138.690857 
L 518.643123 137.24252 
L 519.278007 138.126789 
L 519.912892 137.318744 
L 520.547776 138.767118 
L 521.182661 137.318744 
L 521.817545 138.035297 
L 522.45243 137.638908 
L 523.087314 136.861361 
L 523.722199 139.254961 
L 524.357083 139.072015 
L 524.991968 139.681847 
L 525.626852 137.074804 
L 526.261737 138.614632 
L 526.896621 139.559896 
L 527.531506 139.773339 
L 528.166391 137.532187 
L 528.801275 138.187746 
L 529.43616 138.309735 
L 530.071044 140.977772 
L 531.975698 136.785136 
L 532.610582 137.044307 
L 533.880351 144.728291 
L 534.515236 139.14824 
L 535.15012 137.181525 
L 535.785005 143.88975 
L 536.419889 139.285458 
L 537.054774 139.102512 
L 537.689658 140.993002 
L 538.324543 139.681847 
L 538.959427 140.398437 
L 539.594312 138.934797 
L 540.864081 138.690857 
L 541.498965 138.111522 
L 542.13385 139.62089 
L 542.768734 138.995791 
L 543.403619 136.76987 
L 544.038503 138.645129 
L 544.673388 141.541877 
L 545.308272 136.815634 
L 545.943157 138.324965 
L 546.578041 141.389428 
L 547.212926 140.261219 
L 547.84781 136.76987 
L 548.482695 138.995791 
L 549.11758 140.230722 
L 549.752464 138.645129 
L 550.387349 138.187746 
L 551.022233 138.782348 
L 552.292002 137.638908 
L 552.926887 137.928576 
L 553.561771 139.849563 
L 554.196656 139.163507 
L 554.83154 139.88006 
L 555.466425 141.328434 
L 556.101309 138.751851 
L 556.736194 138.950064 
L 557.371078 142.349921 
L 558.005963 139.590393 
L 558.640847 138.904336 
L 559.275732 140.36794 
L 559.910616 137.837085 
L 560.545501 138.873839 
L 561.180385 137.715133 
L 561.81527 139.483671 
L 562.450154 139.651387 
L 563.085039 139.041518 
L 563.719923 139.910557 
L 564.989692 139.102512 
L 565.624577 140.901548 
L 566.259461 139.087282 
L 566.894346 141.694326 
L 567.52923 140.276449 
L 568.164115 137.135798 
L 568.798999 138.081025 
L 569.433884 147.091431 
L 570.068768 139.758108 
L 570.703653 140.947275 
L 571.338538 141.404658 
L 571.973422 139.072015 
L 572.608307 138.035297 
L 573.243191 138.950064 
L 573.878076 141.404658 
L 574.51296 146.679775 
L 575.147845 141.236943 
L 575.782729 140.032509 
L 576.417614 142.944523 
L 576.417614 142.944523 
" clip-path="url(#pdc05ea7124)" style="fill: none; stroke: #ff7f0e; stroke-width: 1.5; stroke-linecap: square"/>
   </g>
   <g id="line2d_31">
    <path d="M 43.78125 551.518125 
L 601.78125 551.518125 
" clip-path="url(#pdc05ea7124)" style="fill: none; stroke-dasharray: 11.1,4.8; stroke-dashoffset: 0; stroke: #ff0000; stroke-width: 3"/>
   </g>
   <g id="patch_3">
    <path d="M 43.78125 576.718125 
L 43.78125 22.318125 
" style="fill: none; stroke: #000000; stroke-width: 0.8; stroke-linejoin: miter; stroke-linecap: square"/>
   </g>
   <g id="patch_4">
    <path d="M 601.78125 576.718125 
L 601.78125 22.318125 
" style="fill: none; stroke: #000000; stroke-width: 0.8; stroke-linejoin: miter; stroke-linecap: square"/>
   </g>
   <g id="patch_5">
    <path d="M 43.78125 576.718125 
L 601.78125 576.718125 
" style="fill: none; stroke: #000000; stroke-width: 0.8; stroke-linejoin: miter; stroke-linecap: square"/>
   </g>
   <g id="patch_6">
    <path d="M 43.78125 22.318125 
L 601.78125 22.318125 
" style="fill: none; stroke: #000000; stroke-width: 0.8; stroke-linejoin: miter; stroke-linecap: square"/>
   </g>
   <g id="text_17">
    <!-- Train and Val Accuracy -->
    <g transform="translate(255.002813 16.318125) scale(0.12 -0.12)">
     <defs>
      <path id="DejaVuSans-54" d="M -19 4666 
L 3928 4666 
L 3928 4134 
L 2272 4134 
L 2272 0 
L 1638 0 
L 1638 4134 
L -19 4134 
L -19 4666 
z
" transform="scale(0.015625)"/>
      <path id="DejaVuSans-69" d="M 603 3500 
L 1178 3500 
L 1178 0 
L 603 0 
L 603 3500 
z
M 603 4863 
L 1178 4863 
L 1178 4134 
L 603 4134 
L 603 4863 
z
" transform="scale(0.015625)"/>
      <path id="DejaVuSans-6e" d="M 3513 2113 
L 3513 0 
L 2938 0 
L 2938 2094 
Q 2938 2591 2744 2837 
Q 2550 3084 2163 3084 
Q 1697 3084 1428 2787 
Q 1159 2491 1159 1978 
L 1159 0 
L 581 0 
L 581 3500 
L 1159 3500 
L 1159 2956 
Q 1366 3272 1645 3428 
Q 1925 3584 2291 3584 
Q 2894 3584 3203 3211 
Q 3513 2838 3513 2113 
z
" transform="scale(0.015625)"/>
      <path id="DejaVuSans-20" transform="scale(0.015625)"/>
      <path id="DejaVuSans-64" d="M 2906 2969 
L 2906 4863 
L 3481 4863 
L 3481 0 
L 2906 0 
L 2906 525 
Q 2725 213 2448 61 
Q 2172 -91 1784 -91 
Q 1150 -91 751 415 
Q 353 922 353 1747 
Q 353 2572 751 3078 
Q 1150 3584 1784 3584 
Q 2172 3584 2448 3432 
Q 2725 3281 2906 2969 
z
M 947 1747 
Q 947 1113 1208 752 
Q 1469 391 1925 391 
Q 2381 391 2643 752 
Q 2906 1113 2906 1747 
Q 2906 2381 2643 2742 
Q 2381 3103 1925 3103 
Q 1469 3103 1208 2742 
Q 947 2381 947 1747 
z
" transform="scale(0.015625)"/>
      <path id="DejaVuSans-56" d="M 1831 0 
L 50 4666 
L 709 4666 
L 2188 738 
L 3669 4666 
L 4325 4666 
L 2547 0 
L 1831 0 
z
" transform="scale(0.015625)"/>
      <path id="DejaVuSans-6c" d="M 603 4863 
L 1178 4863 
L 1178 0 
L 603 0 
L 603 4863 
z
" transform="scale(0.015625)"/>
     </defs>
     <use xlink:href="#DejaVuSans-54"/>
     <use xlink:href="#DejaVuSans-72" transform="translate(46.333984 0)"/>
     <use xlink:href="#DejaVuSans-61" transform="translate(87.447266 0)"/>
     <use xlink:href="#DejaVuSans-69" transform="translate(148.726562 0)"/>
     <use xlink:href="#DejaVuSans-6e" transform="translate(176.509766 0)"/>
     <use xlink:href="#DejaVuSans-20" transform="translate(239.888672 0)"/>
     <use xlink:href="#DejaVuSans-61" transform="translate(271.675781 0)"/>
     <use xlink:href="#DejaVuSans-6e" transform="translate(332.955078 0)"/>
     <use xlink:href="#DejaVuSans-64" transform="translate(396.333984 0)"/>
     <use xlink:href="#DejaVuSans-20" transform="translate(459.810547 0)"/>
     <use xlink:href="#DejaVuSans-56" transform="translate(491.597656 0)"/>
     <use xlink:href="#DejaVuSans-61" transform="translate(552.255859 0)"/>
     <use xlink:href="#DejaVuSans-6c" transform="translate(613.535156 0)"/>
     <use xlink:href="#DejaVuSans-20" transform="translate(641.318359 0)"/>
     <use xlink:href="#DejaVuSans-41" transform="translate(673.105469 0)"/>
     <use xlink:href="#DejaVuSans-63" transform="translate(739.763672 0)"/>
     <use xlink:href="#DejaVuSans-63" transform="translate(794.744141 0)"/>
     <use xlink:href="#DejaVuSans-75" transform="translate(849.724609 0)"/>
     <use xlink:href="#DejaVuSans-72" transform="translate(913.103516 0)"/>
     <use xlink:href="#DejaVuSans-61" transform="translate(954.216797 0)"/>
     <use xlink:href="#DejaVuSans-63" transform="translate(1015.496094 0)"/>
     <use xlink:href="#DejaVuSans-79" transform="translate(1070.476562 0)"/>
    </g>
   </g>
   <g id="legend_1">
    <g id="patch_7">
     <path d="M 50.78125 74.90875 
L 217.904687 74.90875 
Q 219.904687 74.90875 219.904687 72.90875 
L 219.904687 29.318125 
Q 219.904687 27.318125 217.904687 27.318125 
L 50.78125 27.318125 
Q 48.78125 27.318125 48.78125 29.318125 
L 48.78125 72.90875 
Q 48.78125 74.90875 50.78125 74.90875 
z
" style="fill: #ffffff; opacity: 0.8; stroke: #cccccc; stroke-linejoin: miter"/>
    </g>
    <g id="line2d_32">
     <path d="M 52.78125 35.416562 
L 62.78125 35.416562 
L 72.78125 35.416562 
" style="fill: none; stroke: #1f77b4; stroke-width: 1.5; stroke-linecap: square"/>
    </g>
    <g id="text_18">
     <!-- train_accuracy -->
     <g transform="translate(80.78125 38.916562) scale(0.1 -0.1)">
      <defs>
       <path id="DejaVuSans-74" d="M 1172 4494 
L 1172 3500 
L 2356 3500 
L 2356 3053 
L 1172 3053 
L 1172 1153 
Q 1172 725 1289 603 
Q 1406 481 1766 481 
L 2356 481 
L 2356 0 
L 1766 0 
Q 1100 0 847 248 
Q 594 497 594 1153 
L 594 3053 
L 172 3053 
L 172 3500 
L 594 3500 
L 594 4494 
L 1172 4494 
z
" transform="scale(0.015625)"/>
       <path id="DejaVuSans-5f" d="M 3263 -1063 
L 3263 -1509 
L -63 -1509 
L -63 -1063 
L 3263 -1063 
z
" transform="scale(0.015625)"/>
      </defs>
      <use xlink:href="#DejaVuSans-74"/>
      <use xlink:href="#DejaVuSans-72" transform="translate(39.208984 0)"/>
      <use xlink:href="#DejaVuSans-61" transform="translate(80.322266 0)"/>
      <use xlink:href="#DejaVuSans-69" transform="translate(141.601562 0)"/>
      <use xlink:href="#DejaVuSans-6e" transform="translate(169.384766 0)"/>
      <use xlink:href="#DejaVuSans-5f" transform="translate(232.763672 0)"/>
      <use xlink:href="#DejaVuSans-61" transform="translate(282.763672 0)"/>
      <use xlink:href="#DejaVuSans-63" transform="translate(344.042969 0)"/>
      <use xlink:href="#DejaVuSans-63" transform="translate(399.023438 0)"/>
      <use xlink:href="#DejaVuSans-75" transform="translate(454.003906 0)"/>
      <use xlink:href="#DejaVuSans-72" transform="translate(517.382812 0)"/>
      <use xlink:href="#DejaVuSans-61" transform="translate(558.496094 0)"/>
      <use xlink:href="#DejaVuSans-63" transform="translate(619.775391 0)"/>
      <use xlink:href="#DejaVuSans-79" transform="translate(674.755859 0)"/>
     </g>
    </g>
    <g id="line2d_33">
     <path d="M 52.78125 50.372812 
L 62.78125 50.372812 
L 72.78125 50.372812 
" style="fill: none; stroke: #ff7f0e; stroke-width: 1.5; stroke-linecap: square"/>
    </g>
    <g id="text_19">
     <!-- val_accuracy -->
     <g transform="translate(80.78125 53.872812) scale(0.1 -0.1)">
      <defs>
       <path id="DejaVuSans-76" d="M 191 3500 
L 800 3500 
L 1894 563 
L 2988 3500 
L 3597 3500 
L 2284 0 
L 1503 0 
L 191 3500 
z
" transform="scale(0.015625)"/>
      </defs>
      <use xlink:href="#DejaVuSans-76"/>
      <use xlink:href="#DejaVuSans-61" transform="translate(59.179688 0)"/>
      <use xlink:href="#DejaVuSans-6c" transform="translate(120.458984 0)"/>
      <use xlink:href="#DejaVuSans-5f" transform="translate(148.242188 0)"/>
      <use xlink:href="#DejaVuSans-61" transform="translate(198.242188 0)"/>
      <use xlink:href="#DejaVuSans-63" transform="translate(259.521484 0)"/>
      <use xlink:href="#DejaVuSans-63" transform="translate(314.501953 0)"/>
      <use xlink:href="#DejaVuSans-75" transform="translate(369.482422 0)"/>
      <use xlink:href="#DejaVuSans-72" transform="translate(432.861328 0)"/>
      <use xlink:href="#DejaVuSans-61" transform="translate(473.974609 0)"/>
      <use xlink:href="#DejaVuSans-63" transform="translate(535.253906 0)"/>
      <use xlink:href="#DejaVuSans-79" transform="translate(590.234375 0)"/>
     </g>
    </g>
    <g id="line2d_34">
     <path d="M 52.78125 65.329062 
L 62.78125 65.329062 
L 72.78125 65.329062 
" style="fill: none; stroke-dasharray: 11.1,4.8; stroke-dashoffset: 0; stroke: #ff0000; stroke-width: 3"/>
    </g>
    <g id="text_20">
     <!-- Random-Guesser Accuracy -->
     <g transform="translate(80.78125 68.829062) scale(0.1 -0.1)">
      <defs>
       <path id="DejaVuSans-52" d="M 2841 2188 
Q 3044 2119 3236 1894 
Q 3428 1669 3622 1275 
L 4263 0 
L 3584 0 
L 2988 1197 
Q 2756 1666 2539 1819 
Q 2322 1972 1947 1972 
L 1259 1972 
L 1259 0 
L 628 0 
L 628 4666 
L 2053 4666 
Q 2853 4666 3247 4331 
Q 3641 3997 3641 3322 
Q 3641 2881 3436 2590 
Q 3231 2300 2841 2188 
z
M 1259 4147 
L 1259 2491 
L 2053 2491 
Q 2509 2491 2742 2702 
Q 2975 2913 2975 3322 
Q 2975 3731 2742 3939 
Q 2509 4147 2053 4147 
L 1259 4147 
z
" transform="scale(0.015625)"/>
       <path id="DejaVuSans-6d" d="M 3328 2828 
Q 3544 3216 3844 3400 
Q 4144 3584 4550 3584 
Q 5097 3584 5394 3201 
Q 5691 2819 5691 2113 
L 5691 0 
L 5113 0 
L 5113 2094 
Q 5113 2597 4934 2840 
Q 4756 3084 4391 3084 
Q 3944 3084 3684 2787 
Q 3425 2491 3425 1978 
L 3425 0 
L 2847 0 
L 2847 2094 
Q 2847 2600 2669 2842 
Q 2491 3084 2119 3084 
Q 1678 3084 1418 2786 
Q 1159 2488 1159 1978 
L 1159 0 
L 581 0 
L 581 3500 
L 1159 3500 
L 1159 2956 
Q 1356 3278 1631 3431 
Q 1906 3584 2284 3584 
Q 2666 3584 2933 3390 
Q 3200 3197 3328 2828 
z
" transform="scale(0.015625)"/>
       <path id="DejaVuSans-2d" d="M 313 2009 
L 1997 2009 
L 1997 1497 
L 313 1497 
L 313 2009 
z
" transform="scale(0.015625)"/>
       <path id="DejaVuSans-47" d="M 3809 666 
L 3809 1919 
L 2778 1919 
L 2778 2438 
L 4434 2438 
L 4434 434 
Q 4069 175 3628 42 
Q 3188 -91 2688 -91 
Q 1594 -91 976 548 
Q 359 1188 359 2328 
Q 359 3472 976 4111 
Q 1594 4750 2688 4750 
Q 3144 4750 3555 4637 
Q 3966 4525 4313 4306 
L 4313 3634 
Q 3963 3931 3569 4081 
Q 3175 4231 2741 4231 
Q 1884 4231 1454 3753 
Q 1025 3275 1025 2328 
Q 1025 1384 1454 906 
Q 1884 428 2741 428 
Q 3075 428 3337 486 
Q 3600 544 3809 666 
z
" transform="scale(0.015625)"/>
       <path id="DejaVuSans-65" d="M 3597 1894 
L 3597 1613 
L 953 1613 
Q 991 1019 1311 708 
Q 1631 397 2203 397 
Q 2534 397 2845 478 
Q 3156 559 3463 722 
L 3463 178 
Q 3153 47 2828 -22 
Q 2503 -91 2169 -91 
Q 1331 -91 842 396 
Q 353 884 353 1716 
Q 353 2575 817 3079 
Q 1281 3584 2069 3584 
Q 2775 3584 3186 3129 
Q 3597 2675 3597 1894 
z
M 3022 2063 
Q 3016 2534 2758 2815 
Q 2500 3097 2075 3097 
Q 1594 3097 1305 2825 
Q 1016 2553 972 2059 
L 3022 2063 
z
" transform="scale(0.015625)"/>
      </defs>
      <use xlink:href="#DejaVuSans-52"/>
      <use xlink:href="#DejaVuSans-61" transform="translate(67.232422 0)"/>
      <use xlink:href="#DejaVuSans-6e" transform="translate(128.511719 0)"/>
      <use xlink:href="#DejaVuSans-64" transform="translate(191.890625 0)"/>
      <use xlink:href="#DejaVuSans-6f" transform="translate(255.367188 0)"/>
      <use xlink:href="#DejaVuSans-6d" transform="translate(316.548828 0)"/>
      <use xlink:href="#DejaVuSans-2d" transform="translate(413.960938 0)"/>
      <use xlink:href="#DejaVuSans-47" transform="translate(453.669922 0)"/>
      <use xlink:href="#DejaVuSans-75" transform="translate(531.160156 0)"/>
      <use xlink:href="#DejaVuSans-65" transform="translate(594.539062 0)"/>
      <use xlink:href="#DejaVuSans-73" transform="translate(656.0625 0)"/>
      <use xlink:href="#DejaVuSans-73" transform="translate(708.162109 0)"/>
      <use xlink:href="#DejaVuSans-65" transform="translate(760.261719 0)"/>
      <use xlink:href="#DejaVuSans-72" transform="translate(821.785156 0)"/>
      <use xlink:href="#DejaVuSans-20" transform="translate(862.898438 0)"/>
      <use xlink:href="#DejaVuSans-41" transform="translate(894.685547 0)"/>
      <use xlink:href="#DejaVuSans-63" transform="translate(961.34375 0)"/>
      <use xlink:href="#DejaVuSans-63" transform="translate(1016.324219 0)"/>
      <use xlink:href="#DejaVuSans-75" transform="translate(1071.304688 0)"/>
      <use xlink:href="#DejaVuSans-72" transform="translate(1134.683594 0)"/>
      <use xlink:href="#DejaVuSans-61" transform="translate(1175.796875 0)"/>
      <use xlink:href="#DejaVuSans-63" transform="translate(1237.076172 0)"/>
      <use xlink:href="#DejaVuSans-79" transform="translate(1292.056641 0)"/>
     </g>
    </g>
   </g>
  </g>
 </g>
 <defs>
  <clipPath id="pdc05ea7124">
   <rect x="43.78125" y="22.318125" width="558" height="554.4"/>
  </clipPath>
 </defs>
</svg>
