<?xml version="1.0" encoding="utf-8" standalone="no"?>
<!DOCTYPE svg PUBLIC "-//W3C//DTD SVG 1.1//EN"
  "http://www.w3.org/Graphics/SVG/1.1/DTD/svg11.dtd">
<svg xmlns:xlink="http://www.w3.org/1999/xlink" width="608.98125pt" height="614.274375pt" viewBox="0 0 608.98125 614.274375" xmlns="http://www.w3.org/2000/svg" version="1.1">
 <metadata>
  <rdf:RDF xmlns:dc="http://purl.org/dc/elements/1.1/" xmlns:cc="http://creativecommons.org/ns#" xmlns:rdf="http://www.w3.org/1999/02/22-rdf-syntax-ns#">
   <cc:Work>
    <dc:type rdf:resource="http://purl.org/dc/dcmitype/StillImage"/>
    <dc:date>2026-05-24T22:00:32.636347</dc:date>
    <dc:format>image/svg+xml</dc:format>
    <dc:creator>
     <cc:Agent>
      <dc:title>Matplotlib v3.10.9, https://matplotlib.org/</dc:title>
     </cc:Agent>
    </dc:creator>
   </cc:Work>
  </rdf:RDF>
 </metadata>
 <defs>
  <style type="text/css">*{stroke-linejoin: round; stroke-linecap: butt}</style>
 </defs>
 <g id="figure_1">
  <g id="patch_1">
   <path d="M 0 614.274375 
L 608.98125 614.274375 
L 608.98125 0 
L 0 0 
z
" style="fill: #ffffff"/>
  </g>
  <g id="axes_1">
   <g id="patch_2">
    <path d="M 43.78125 576.718125 
L 601.78125 576.718125 
L 601.78125 22.318125 
L 43.78125 22.318125 
z
" style="fill: #ffffff"/>
   </g>
   <g id="matplotlib.axis_1">
    <g id="xtick_1">
     <g id="line2d_1">
      <path d="M 69.144886 576.718125 
L 69.144886 22.318125 
" clip-path="url(#p58fd83f856)" style="fill: none; stroke: #b0b0b0; stroke-width: 0.8; stroke-linecap: square"/>
     </g>
     <g id="line2d_2">
      <defs>
       <path id="md85f56a780" d="M 0 0 
L 0 3.5 
" style="stroke: #000000; stroke-width: 0.8"/>
      </defs>
      <g>
       <use xlink:href="#md85f56a780" x="69.144886" y="576.718125" style="stroke: #000000; stroke-width: 0.8"/>
      </g>
     </g>
     <g id="text_1">
      <!-- 0 -->
      <g transform="translate(65.963636 591.316563) scale(0.1 -0.1)">
       <defs>
        <path id="DejaVuSans-30" d="M 2034 4250 
Q 1547 4250 1301 3770 
Q 1056 3291 1056 2328 
Q 1056 1369 1301 889 
Q 1547 409 2034 409 
Q 2525 409 2770 889 
Q 3016 1369 3016 2328 
Q 3016 3291 2770 3770 
Q 2525 4250 2034 4250 
z
M 2034 4750 
Q 2819 4750 3233 4129 
Q 3647 3509 3647 2328 
Q 3647 1150 3233 529 
Q 2819 -91 2034 -91 
Q 1250 -91 836 529 
Q 422 1150 422 2328 
Q 422 3509 836 4129 
Q 1250 4750 2034 4750 
z
" transform="scale(0.015625)"/>
       </defs>
       <use xlink:href="#DejaVuSans-30"/>
      </g>
     </g>
    </g>
    <g id="xtick_2">
     <g id="line2d_3">
      <path d="M 132.633338 576.718125 
L 132.633338 22.318125 
" clip-path="url(#p58fd83f856)" style="fill: none; stroke: #b0b0b0; stroke-width: 0.8; stroke-linecap: square"/>
     </g>
     <g id="line2d_4">
      <g>
       <use xlink:href="#md85f56a780" x="132.633338" y="576.718125" style="stroke: #000000; stroke-width: 0.8"/>
      </g>
     </g>
     <g id="text_2">
      <!-- 100 -->
      <g transform="translate(123.089588 591.316563) scale(0.1 -0.1)">
       <defs>
        <path id="DejaVuSans-31" d="M 794 531 
L 1825 531 
L 1825 4091 
L 703 3866 
L 703 4441 
L 1819 4666 
L 2450 4666 
L 2450 531 
L 3481 531 
L 3481 0 
L 794 0 
L 794 531 
z
" transform="scale(0.015625)"/>
       </defs>
       <use xlink:href="#DejaVuSans-31"/>
       <use xlink:href="#DejaVuSans-30" transform="translate(63.623047 0)"/>
       <use xlink:href="#DejaVuSans-30" transform="translate(127.246094 0)"/>
      </g>
     </g>
    </g>
    <g id="xtick_3">
     <g id="line2d_5">
      <path d="M 196.121789 576.718125 
L 196.121789 22.318125 
" clip-path="url(#p58fd83f856)" style="fill: none; stroke: #b0b0b0; stroke-width: 0.8; stroke-linecap: square"/>
     </g>
     <g id="line2d_6">
      <g>
       <use xlink:href="#md85f56a780" x="196.121789" y="576.718125" style="stroke: #000000; stroke-width: 0.8"/>
      </g>
     </g>
     <g id="text_3">
      <!-- 200 -->
      <g transform="translate(186.578039 591.316563) scale(0.1 -0.1)">
       <defs>
        <path id="DejaVuSans-32" d="M 1228 531 
L 3431 531 
L 3431 0 
L 469 0 
L 469 531 
Q 828 903 1448 1529 
Q 2069 2156 2228 2338 
Q 2531 2678 2651 2914 
Q 2772 3150 2772 3378 
Q 2772 3750 2511 3984 
Q 2250 4219 1831 4219 
Q 1534 4219 1204 4116 
Q 875 4013 500 3803 
L 500 4441 
Q 881 4594 1212 4672 
Q 1544 4750 1819 4750 
Q 2544 4750 2975 4387 
Q 3406 4025 3406 3419 
Q 3406 3131 3298 2873 
Q 3191 2616 2906 2266 
Q 2828 2175 2409 1742 
Q 1991 1309 1228 531 
z
" transform="scale(0.015625)"/>
       </defs>
       <use xlink:href="#DejaVuSans-32"/>
       <use xlink:href="#DejaVuSans-30" transform="translate(63.623047 0)"/>
       <use xlink:href="#DejaVuSans-30" transform="translate(127.246094 0)"/>
      </g>
     </g>
    </g>
    <g id="xtick_4">
     <g id="line2d_7">
      <path d="M 259.610241 576.718125 
L 259.610241 22.318125 
" clip-path="url(#p58fd83f856)" style="fill: none; stroke: #b0b0b0; stroke-width: 0.8; stroke-linecap: square"/>
     </g>
     <g id="line2d_8">
      <g>
       <use xlink:href="#md85f56a780" x="259.610241" y="576.718125" style="stroke: #000000; stroke-width: 0.8"/>
      </g>
     </g>
     <g id="text_4">
      <!-- 300 -->
      <g transform="translate(250.066491 591.316563) scale(0.1 -0.1)">
       <defs>
        <path id="DejaVuSans-33" d="M 2597 2516 
Q 3050 2419 3304 2112 
Q 3559 1806 3559 1356 
Q 3559 666 3084 287 
Q 2609 -91 1734 -91 
Q 1441 -91 1130 -33 
Q 819 25 488 141 
L 488 750 
Q 750 597 1062 519 
Q 1375 441 1716 441 
Q 2309 441 2620 675 
Q 2931 909 2931 1356 
Q 2931 1769 2642 2001 
Q 2353 2234 1838 2234 
L 1294 2234 
L 1294 2753 
L 1863 2753 
Q 2328 2753 2575 2939 
Q 2822 3125 2822 3475 
Q 2822 3834 2567 4026 
Q 2313 4219 1838 4219 
Q 1578 4219 1281 4162 
Q 984 4106 628 3988 
L 628 4550 
Q 988 4650 1302 4700 
Q 1616 4750 1894 4750 
Q 2613 4750 3031 4423 
Q 3450 4097 3450 3541 
Q 3450 3153 3228 2886 
Q 3006 2619 2597 2516 
z
" transform="scale(0.015625)"/>
       </defs>
       <use xlink:href="#DejaVuSans-33"/>
       <use xlink:href="#DejaVuSans-30" transform="translate(63.623047 0)"/>
       <use xlink:href="#DejaVuSans-30" transform="translate(127.246094 0)"/>
      </g>
     </g>
    </g>
    <g id="xtick_5">
     <g id="line2d_9">
      <path d="M 323.098692 576.718125 
L 323.098692 22.318125 
" clip-path="url(#p58fd83f856)" style="fill: none; stroke: #b0b0b0; stroke-width: 0.8; stroke-linecap: square"/>
     </g>
     <g id="line2d_10">
      <g>
       <use xlink:href="#md85f56a780" x="323.098692" y="576.718125" style="stroke: #000000; stroke-width: 0.8"/>
      </g>
     </g>
     <g id="text_5">
      <!-- 400 -->
      <g transform="translate(313.554942 591.316563) scale(0.1 -0.1)">
       <defs>
        <path id="DejaVuSans-34" d="M 2419 4116 
L 825 1625 
L 2419 1625 
L 2419 4116 
z
M 2253 4666 
L 3047 4666 
L 3047 1625 
L 3713 1625 
L 3713 1100 
L 3047 1100 
L 3047 0 
L 2419 0 
L 2419 1100 
L 313 1100 
L 313 1709 
L 2253 4666 
z
" transform="scale(0.015625)"/>
       </defs>
       <use xlink:href="#DejaVuSans-34"/>
       <use xlink:href="#DejaVuSans-30" transform="translate(63.623047 0)"/>
       <use xlink:href="#DejaVuSans-30" transform="translate(127.246094 0)"/>
      </g>
     </g>
    </g>
    <g id="xtick_6">
     <g id="line2d_11">
      <path d="M 386.587144 576.718125 
L 386.587144 22.318125 
" clip-path="url(#p58fd83f856)" style="fill: none; stroke: #b0b0b0; stroke-width: 0.8; stroke-linecap: square"/>
     </g>
     <g id="line2d_12">
      <g>
       <use xlink:href="#md85f56a780" x="386.587144" y="576.718125" style="stroke: #000000; stroke-width: 0.8"/>
      </g>
     </g>
     <g id="text_6">
      <!-- 500 -->
      <g transform="translate(377.043394 591.316563) scale(0.1 -0.1)">
       <defs>
        <path id="DejaVuSans-35" d="M 691 4666 
L 3169 4666 
L 3169 4134 
L 1269 4134 
L 1269 2991 
Q 1406 3038 1543 3061 
Q 1681 3084 1819 3084 
Q 2600 3084 3056 2656 
Q 3513 2228 3513 1497 
Q 3513 744 3044 326 
Q 2575 -91 1722 -91 
Q 1428 -91 1123 -41 
Q 819 9 494 109 
L 494 744 
Q 775 591 1075 516 
Q 1375 441 1709 441 
Q 2250 441 2565 725 
Q 2881 1009 2881 1497 
Q 2881 1984 2565 2268 
Q 2250 2553 1709 2553 
Q 1456 2553 1204 2497 
Q 953 2441 691 2322 
L 691 4666 
z
" transform="scale(0.015625)"/>
       </defs>
       <use xlink:href="#DejaVuSans-35"/>
       <use xlink:href="#DejaVuSans-30" transform="translate(63.623047 0)"/>
       <use xlink:href="#DejaVuSans-30" transform="translate(127.246094 0)"/>
      </g>
     </g>
    </g>
    <g id="xtick_7">
     <g id="line2d_13">
      <path d="M 450.075595 576.718125 
L 450.075595 22.318125 
" clip-path="url(#p58fd83f856)" style="fill: none; stroke: #b0b0b0; stroke-width: 0.8; stroke-linecap: square"/>
     </g>
     <g id="line2d_14">
      <g>
       <use xlink:href="#md85f56a780" x="450.075595" y="576.718125" style="stroke: #000000; stroke-width: 0.8"/>
      </g>
     </g>
     <g id="text_7">
      <!-- 600 -->
      <g transform="translate(440.531845 591.316563) scale(0.1 -0.1)">
       <defs>
        <path id="DejaVuSans-36" d="M 2113 2584 
Q 1688 2584 1439 2293 
Q 1191 2003 1191 1497 
Q 1191 994 1439 701 
Q 1688 409 2113 409 
Q 2538 409 2786 701 
Q 3034 994 3034 1497 
Q 3034 2003 2786 2293 
Q 2538 2584 2113 2584 
z
M 3366 4563 
L 3366 3988 
Q 3128 4100 2886 4159 
Q 2644 4219 2406 4219 
Q 1781 4219 1451 3797 
Q 1122 3375 1075 2522 
Q 1259 2794 1537 2939 
Q 1816 3084 2150 3084 
Q 2853 3084 3261 2657 
Q 3669 2231 3669 1497 
Q 3669 778 3244 343 
Q 2819 -91 2113 -91 
Q 1303 -91 875 529 
Q 447 1150 447 2328 
Q 447 3434 972 4092 
Q 1497 4750 2381 4750 
Q 2619 4750 2861 4703 
Q 3103 4656 3366 4563 
z
" transform="scale(0.015625)"/>
       </defs>
       <use xlink:href="#DejaVuSans-36"/>
       <use xlink:href="#DejaVuSans-30" transform="translate(63.623047 0)"/>
       <use xlink:href="#DejaVuSans-30" transform="translate(127.246094 0)"/>
      </g>
     </g>
    </g>
    <g id="xtick_8">
     <g id="line2d_15">
      <path d="M 513.564047 576.718125 
L 513.564047 22.318125 
" clip-path="url(#p58fd83f856)" style="fill: none; stroke: #b0b0b0; stroke-width: 0.8; stroke-linecap: square"/>
     </g>
     <g id="line2d_16">
      <g>
       <use xlink:href="#md85f56a780" x="513.564047" y="576.718125" style="stroke: #000000; stroke-width: 0.8"/>
      </g>
     </g>
     <g id="text_8">
      <!-- 700 -->
      <g transform="translate(504.020297 591.316563) scale(0.1 -0.1)">
       <defs>
        <path id="DejaVuSans-37" d="M 525 4666 
L 3525 4666 
L 3525 4397 
L 1831 0 
L 1172 0 
L 2766 4134 
L 525 4134 
L 525 4666 
z
" transform="scale(0.015625)"/>
       </defs>
       <use xlink:href="#DejaVuSans-37"/>
       <use xlink:href="#DejaVuSans-30" transform="translate(63.623047 0)"/>
       <use xlink:href="#DejaVuSans-30" transform="translate(127.246094 0)"/>
      </g>
     </g>
    </g>
    <g id="xtick_9">
     <g id="line2d_17">
      <path d="M 577.052498 576.718125 
L 577.052498 22.318125 
" clip-path="url(#p58fd83f856)" style="fill: none; stroke: #b0b0b0; stroke-width: 0.8; stroke-linecap: square"/>
     </g>
     <g id="line2d_18">
      <g>
       <use xlink:href="#md85f56a780" x="577.052498" y="576.718125" style="stroke: #000000; stroke-width: 0.8"/>
      </g>
     </g>
     <g id="text_9">
      <!-- 800 -->
      <g transform="translate(567.508748 591.316563) scale(0.1 -0.1)">
       <defs>
        <path id="DejaVuSans-38" d="M 2034 2216 
Q 1584 2216 1326 1975 
Q 1069 1734 1069 1313 
Q 1069 891 1326 650 
Q 1584 409 2034 409 
Q 2484 409 2743 651 
Q 3003 894 3003 1313 
Q 3003 1734 2745 1975 
Q 2488 2216 2034 2216 
z
M 1403 2484 
Q 997 2584 770 2862 
Q 544 3141 544 3541 
Q 544 4100 942 4425 
Q 1341 4750 2034 4750 
Q 2731 4750 3128 4425 
Q 3525 4100 3525 3541 
Q 3525 3141 3298 2862 
Q 3072 2584 2669 2484 
Q 3125 2378 3379 2068 
Q 3634 1759 3634 1313 
Q 3634 634 3220 271 
Q 2806 -91 2034 -91 
Q 1263 -91 848 271 
Q 434 634 434 1313 
Q 434 1759 690 2068 
Q 947 2378 1403 2484 
z
M 1172 3481 
Q 1172 3119 1398 2916 
Q 1625 2713 2034 2713 
Q 2441 2713 2670 2916 
Q 2900 3119 2900 3481 
Q 2900 3844 2670 4047 
Q 2441 4250 2034 4250 
Q 1625 4250 1398 4047 
Q 1172 3844 1172 3481 
z
" transform="scale(0.015625)"/>
       </defs>
       <use xlink:href="#DejaVuSans-38"/>
       <use xlink:href="#DejaVuSans-30" transform="translate(63.623047 0)"/>
       <use xlink:href="#DejaVuSans-30" transform="translate(127.246094 0)"/>
      </g>
     </g>
    </g>
    <g id="text_10">
     <!-- Epochs -->
     <g transform="translate(304.865625 604.994688) scale(0.1 -0.1)">
      <defs>
       <path id="DejaVuSans-45" d="M 628 4666 
L 3578 4666 
L 3578 4134 
L 1259 4134 
L 1259 2753 
L 3481 2753 
L 3481 2222 
L 1259 2222 
L 1259 531 
L 3634 531 
L 3634 0 
L 628 0 
L 628 4666 
z
" transform="scale(0.015625)"/>
       <path id="DejaVuSans-70" d="M 1159 525 
L 1159 -1331 
L 581 -1331 
L 581 3500 
L 1159 3500 
L 1159 2969 
Q 1341 3281 1617 3432 
Q 1894 3584 2278 3584 
Q 2916 3584 3314 3078 
Q 3713 2572 3713 1747 
Q 3713 922 3314 415 
Q 2916 -91 2278 -91 
Q 1894 -91 1617 61 
Q 1341 213 1159 525 
z
M 3116 1747 
Q 3116 2381 2855 2742 
Q 2594 3103 2138 3103 
Q 1681 3103 1420 2742 
Q 1159 2381 1159 1747 
Q 1159 1113 1420 752 
Q 1681 391 2138 391 
Q 2594 391 2855 752 
Q 3116 1113 3116 1747 
z
" transform="scale(0.015625)"/>
       <path id="DejaVuSans-6f" d="M 1959 3097 
Q 1497 3097 1228 2736 
Q 959 2375 959 1747 
Q 959 1119 1226 758 
Q 1494 397 1959 397 
Q 2419 397 2687 759 
Q 2956 1122 2956 1747 
Q 2956 2369 2687 2733 
Q 2419 3097 1959 3097 
z
M 1959 3584 
Q 2709 3584 3137 3096 
Q 3566 2609 3566 1747 
Q 3566 888 3137 398 
Q 2709 -91 1959 -91 
Q 1206 -91 779 398 
Q 353 888 353 1747 
Q 353 2609 779 3096 
Q 1206 3584 1959 3584 
z
" transform="scale(0.015625)"/>
       <path id="DejaVuSans-63" d="M 3122 3366 
L 3122 2828 
Q 2878 2963 2633 3030 
Q 2388 3097 2138 3097 
Q 1578 3097 1268 2742 
Q 959 2388 959 1747 
Q 959 1106 1268 751 
Q 1578 397 2138 397 
Q 2388 397 2633 464 
Q 2878 531 3122 666 
L 3122 134 
Q 2881 22 2623 -34 
Q 2366 -91 2075 -91 
Q 1284 -91 818 406 
Q 353 903 353 1747 
Q 353 2603 823 3093 
Q 1294 3584 2113 3584 
Q 2378 3584 2631 3529 
Q 2884 3475 3122 3366 
z
" transform="scale(0.015625)"/>
       <path id="DejaVuSans-68" d="M 3513 2113 
L 3513 0 
L 2938 0 
L 2938 2094 
Q 2938 2591 2744 2837 
Q 2550 3084 2163 3084 
Q 1697 3084 1428 2787 
Q 1159 2491 1159 1978 
L 1159 0 
L 581 0 
L 581 4863 
L 1159 4863 
L 1159 2956 
Q 1366 3272 1645 3428 
Q 1925 3584 2291 3584 
Q 2894 3584 3203 3211 
Q 3513 2838 3513 2113 
z
" transform="scale(0.015625)"/>
       <path id="DejaVuSans-73" d="M 2834 3397 
L 2834 2853 
Q 2591 2978 2328 3040 
Q 2066 3103 1784 3103 
Q 1356 3103 1142 2972 
Q 928 2841 928 2578 
Q 928 2378 1081 2264 
Q 1234 2150 1697 2047 
L 1894 2003 
Q 2506 1872 2764 1633 
Q 3022 1394 3022 966 
Q 3022 478 2636 193 
Q 2250 -91 1575 -91 
Q 1294 -91 989 -36 
Q 684 19 347 128 
L 347 722 
Q 666 556 975 473 
Q 1284 391 1588 391 
Q 1994 391 2212 530 
Q 2431 669 2431 922 
Q 2431 1156 2273 1281 
Q 2116 1406 1581 1522 
L 1381 1569 
Q 847 1681 609 1914 
Q 372 2147 372 2553 
Q 372 3047 722 3315 
Q 1072 3584 1716 3584 
Q 2034 3584 2315 3537 
Q 2597 3491 2834 3397 
z
" transform="scale(0.015625)"/>
      </defs>
      <use xlink:href="#DejaVuSans-45"/>
      <use xlink:href="#DejaVuSans-70" transform="translate(63.183594 0)"/>
      <use xlink:href="#DejaVuSans-6f" transform="translate(126.660156 0)"/>
      <use xlink:href="#DejaVuSans-63" transform="translate(187.841797 0)"/>
      <use xlink:href="#DejaVuSans-68" transform="translate(242.822266 0)"/>
      <use xlink:href="#DejaVuSans-73" transform="translate(306.201172 0)"/>
     </g>
    </g>
   </g>
   <g id="matplotlib.axis_2">
    <g id="ytick_1">
     <g id="line2d_19">
      <path d="M 43.78125 456.755627 
L 601.78125 456.755627 
" clip-path="url(#p58fd83f856)" style="fill: none; stroke: #b0b0b0; stroke-width: 0.8; stroke-linecap: square"/>
     </g>
     <g id="line2d_20">
      <defs>
       <path id="m15b4842560" d="M 0 0 
L -3.5 0 
" style="stroke: #000000; stroke-width: 0.8"/>
      </defs>
      <g>
       <use xlink:href="#m15b4842560" x="43.78125" y="456.755627" style="stroke: #000000; stroke-width: 0.8"/>
      </g>
     </g>
     <g id="text_11">
      <!-- 0.6 -->
      <g transform="translate(20.878125 460.554846) scale(0.1 -0.1)">
       <defs>
        <path id="DejaVuSans-2e" d="M 684 794 
L 1344 794 
L 1344 0 
L 684 0 
L 684 794 
z
" transform="scale(0.015625)"/>
       </defs>
       <use xlink:href="#DejaVuSans-30"/>
       <use xlink:href="#DejaVuSans-2e" transform="translate(63.623047 0)"/>
       <use xlink:href="#DejaVuSans-36" transform="translate(95.410156 0)"/>
      </g>
     </g>
    </g>
    <g id="ytick_2">
     <g id="line2d_21">
      <path d="M 43.78125 336.6549 
L 601.78125 336.6549 
" clip-path="url(#p58fd83f856)" style="fill: none; stroke: #b0b0b0; stroke-width: 0.8; stroke-linecap: square"/>
     </g>
     <g id="line2d_22">
      <g>
       <use xlink:href="#m15b4842560" x="43.78125" y="336.6549" style="stroke: #000000; stroke-width: 0.8"/>
      </g>
     </g>
     <g id="text_12">
      <!-- 0.7 -->
      <g transform="translate(20.878125 340.454119) scale(0.1 -0.1)">
       <use xlink:href="#DejaVuSans-30"/>
       <use xlink:href="#DejaVuSans-2e" transform="translate(63.623047 0)"/>
       <use xlink:href="#DejaVuSans-37" transform="translate(95.410156 0)"/>
      </g>
     </g>
    </g>
    <g id="ytick_3">
     <g id="line2d_23">
      <path d="M 43.78125 216.554174 
L 601.78125 216.554174 
" clip-path="url(#p58fd83f856)" style="fill: none; stroke: #b0b0b0; stroke-width: 0.8; stroke-linecap: square"/>
     </g>
     <g id="line2d_24">
      <g>
       <use xlink:href="#m15b4842560" x="43.78125" y="216.554174" style="stroke: #000000; stroke-width: 0.8"/>
      </g>
     </g>
     <g id="text_13">
      <!-- 0.8 -->
      <g transform="translate(20.878125 220.353393) scale(0.1 -0.1)">
       <use xlink:href="#DejaVuSans-30"/>
       <use xlink:href="#DejaVuSans-2e" transform="translate(63.623047 0)"/>
       <use xlink:href="#DejaVuSans-38" transform="translate(95.410156 0)"/>
      </g>
     </g>
    </g>
    <g id="ytick_4">
     <g id="line2d_25">
      <path d="M 43.78125 96.453448 
L 601.78125 96.453448 
" clip-path="url(#p58fd83f856)" style="fill: none; stroke: #b0b0b0; stroke-width: 0.8; stroke-linecap: square"/>
     </g>
     <g id="line2d_26">
      <g>
       <use xlink:href="#m15b4842560" x="43.78125" y="96.453448" style="stroke: #000000; stroke-width: 0.8"/>
      </g>
     </g>
     <g id="text_14">
      <!-- 0.9 -->
      <g transform="translate(20.878125 100.252666) scale(0.1 -0.1)">
       <defs>
        <path id="DejaVuSans-39" d="M 703 97 
L 703 672 
Q 941 559 1184 500 
Q 1428 441 1663 441 
Q 2288 441 2617 861 
Q 2947 1281 2994 2138 
Q 2813 1869 2534 1725 
Q 2256 1581 1919 1581 
Q 1219 1581 811 2004 
Q 403 2428 403 3163 
Q 403 3881 828 4315 
Q 1253 4750 1959 4750 
Q 2769 4750 3195 4129 
Q 3622 3509 3622 2328 
Q 3622 1225 3098 567 
Q 2575 -91 1691 -91 
Q 1453 -91 1209 -44 
Q 966 3 703 97 
z
M 1959 2075 
Q 2384 2075 2632 2365 
Q 2881 2656 2881 3163 
Q 2881 3666 2632 3958 
Q 2384 4250 1959 4250 
Q 1534 4250 1286 3958 
Q 1038 3666 1038 3163 
Q 1038 2656 1286 2365 
Q 1534 2075 1959 2075 
z
" transform="scale(0.015625)"/>
       </defs>
       <use xlink:href="#DejaVuSans-30"/>
       <use xlink:href="#DejaVuSans-2e" transform="translate(63.623047 0)"/>
       <use xlink:href="#DejaVuSans-39" transform="translate(95.410156 0)"/>
      </g>
     </g>
    </g>
    <g id="text_15">
     <!-- Loss -->
     <g transform="translate(14.798438 310.485313) rotate(-90) scale(0.1 -0.1)">
      <defs>
       <path id="DejaVuSans-4c" d="M 628 4666 
L 1259 4666 
L 1259 531 
L 3531 531 
L 3531 0 
L 628 0 
L 628 4666 
z
" transform="scale(0.015625)"/>
      </defs>
      <use xlink:href="#DejaVuSans-4c"/>
      <use xlink:href="#DejaVuSans-6f" transform="translate(53.962891 0)"/>
      <use xlink:href="#DejaVuSans-73" transform="translate(115.144531 0)"/>
      <use xlink:href="#DejaVuSans-73" transform="translate(167.244141 0)"/>
     </g>
    </g>
   </g>
   <g id="line2d_27">
    <path d="M 69.144886 341.56082 
L 69.779771 344.333116 
L 71.04954 346.004711 
L 72.319309 347.355818 
L 73.589078 348.367251 
L 76.128616 349.974277 
L 80.572808 352.603044 
L 84.382115 354.926999 
L 88.826306 357.736305 
L 98.349574 364.245584 
L 101.523997 366.561737 
L 106.603073 370.304447 
L 118.665879 379.496541 
L 121.205417 381.418829 
L 126.284493 385.259684 
L 130.0938 388.091396 
L 143.426375 397.900199 
L 145.331028 399.234054 
L 147.235682 400.59912 
L 151.044989 403.245712 
L 156.124065 406.763285 
L 171.361293 416.842539 
L 181.519445 423.152453 
L 201.83575 434.906023 
L 205.645057 436.986874 
L 207.549711 438.044623 
L 229.770669 449.499394 
L 233.579976 451.329838 
L 234.849745 451.945904 
L 239.293936 454.095978 
L 241.833474 455.272702 
L 248.18232 458.225108 
L 250.086973 459.027511 
L 251.356742 459.657249 
L 253.261396 460.501816 
L 257.705587 462.505927 
L 262.784663 464.694729 
L 264.054432 465.276219 
L 267.228855 466.64286 
L 272.307931 468.792074 
L 275.482354 470.084266 
L 278.021892 471.17294 
L 279.926545 471.918218 
L 284.370737 473.755821 
L 286.27539 474.484705 
L 287.545159 475.002198 
L 296.433543 478.5066 
L 297.703312 478.975844 
L 320.559154 487.43125 
L 322.463808 488.082607 
L 325.003346 489.020808 
L 329.447537 490.517592 
L 333.256844 491.86018 
L 335.796383 492.683486 
L 349.128957 497.127306 
L 351.033611 497.707722 
L 353.573149 498.584073 
L 363.731301 501.720239 
L 365.00107 502.16228 
L 368.175493 503.112078 
L 382.777837 507.510584 
L 384.68249 508.077184 
L 386.587144 508.640277 
L 398.64995 512.087052 
L 399.919719 512.424793 
L 410.712755 515.345558 
L 414.522062 516.4134 
L 415.156947 516.527937 
L 416.426716 516.905551 
L 420.236023 517.889066 
L 421.505792 518.232319 
L 423.410446 518.699773 
L 425.315099 519.200729 
L 430.394175 520.497789 
L 444.361635 523.948502 
L 445.631404 524.261903 
L 448.170942 524.905744 
L 454.519787 526.408398 
L 456.42444 526.852444 
L 460.868632 527.917924 
L 463.40817 528.471281 
L 467.217477 529.384283 
L 475.470976 531.249089 
L 493.882627 535.292244 
L 498.326818 536.214338 
L 499.596587 536.506622 
L 503.405894 537.28984 
L 506.580317 538.025812 
L 508.484971 538.331411 
L 509.75474 538.634433 
L 512.929162 539.336759 
L 515.4687 539.773718 
L 518.643123 540.452493 
L 522.45243 541.236355 
L 536.419889 543.996911 
L 538.324543 544.358848 
L 540.229196 544.73231 
L 541.498965 545.009132 
L 544.038503 545.42304 
L 545.308272 545.712961 
L 548.482695 546.318862 
L 551.022233 546.835782 
L 552.292002 547.020831 
L 553.561771 547.257493 
L 576.417614 551.518125 
L 576.417614 551.518125 
" clip-path="url(#p58fd83f856)" style="fill: none; stroke: #1f77b4; stroke-width: 1.5; stroke-linecap: square"/>
   </g>
   <g id="line2d_28">
    <path d="M 69.144886 343.345807 
L 69.779771 344.172549 
L 71.684424 345.461305 
L 72.954193 345.897619 
L 75.493732 346.215316 
L 78.03327 346.201643 
L 78.668154 346.294132 
L 80.572808 346.099204 
L 81.842577 346.172794 
L 82.477461 346.034276 
L 83.112346 346.033704 
L 83.74723 345.903203 
L 84.382115 345.963407 
L 85.016999 345.757741 
L 85.651884 345.737983 
L 88.826306 345.140888 
L 90.096075 344.979605 
L 92.635613 344.336266 
L 97.079805 343.158611 
L 102.158881 341.309769 
L 102.793766 340.927931 
L 103.42865 340.805448 
L 104.063535 340.331838 
L 105.333304 340.070765 
L 105.968188 339.661081 
L 107.872842 338.912295 
L 108.507726 338.434104 
L 109.142611 338.284203 
L 109.777495 337.766854 
L 110.41238 337.486883 
L 111.047264 337.02129 
L 111.682149 336.800377 
L 112.951918 336.179014 
L 113.586802 335.860028 
L 114.221687 335.30889 
L 114.856571 335.085543 
L 115.491456 334.550656 
L 116.12634 334.511999 
L 119.300763 332.514761 
L 119.935648 332.269222 
L 120.570532 331.855887 
L 121.205417 331.576345 
L 122.475186 330.649025 
L 123.11007 330.418376 
L 124.379839 329.296343 
L 125.014724 329.111008 
L 126.284493 328.377184 
L 127.554262 327.676289 
L 128.189146 327.108472 
L 128.824031 326.833942 
L 129.458915 326.224175 
L 130.0938 326.099616 
L 132.633338 324.325868 
L 133.268222 323.606146 
L 133.903107 323.302981 
L 134.537991 323.264969 
L 135.172876 322.459774 
L 135.80776 321.855449 
L 136.442645 321.569607 
L 137.077529 321.012528 
L 137.712414 320.881097 
L 138.982183 319.91419 
L 139.617067 319.210289 
L 140.251952 319.108208 
L 140.886837 318.408745 
L 142.156606 317.566611 
L 142.79149 317.331954 
L 145.331028 315.444098 
L 145.965913 314.507042 
L 146.600797 314.660236 
L 147.235682 314.552571 
L 148.505451 313.125798 
L 149.140335 312.829076 
L 150.410104 312.009349 
L 151.044989 311.242023 
L 151.679873 311.102502 
L 152.314758 310.226724 
L 152.949642 309.816252 
L 153.584527 309.581666 
L 154.219411 309.108342 
L 154.854296 308.778977 
L 155.48918 308.232922 
L 156.124065 308.196341 
L 156.758949 307.601322 
L 157.393834 307.237882 
L 158.028718 306.019065 
L 158.663603 306.118139 
L 159.298487 305.332273 
L 160.568256 304.473889 
L 161.203141 303.811723 
L 161.838026 303.342193 
L 162.47291 303.275976 
L 163.107795 302.663561 
L 163.742679 302.210352 
L 164.377564 301.495713 
L 165.647333 301.02783 
L 166.917102 299.811161 
L 167.551986 299.485804 
L 168.821755 298.068337 
L 169.45664 298.325616 
L 170.091524 297.352911 
L 171.361293 296.661752 
L 171.996178 296.013258 
L 172.631062 295.692984 
L 173.265947 295.118366 
L 174.535716 294.221899 
L 175.1706 293.44992 
L 175.805485 293.352349 
L 177.075254 291.864871 
L 177.710138 292.037393 
L 179.614792 290.297934 
L 180.249676 289.616654 
L 180.884561 289.484578 
L 181.519445 288.710237 
L 182.15433 288.611735 
L 182.789215 288.326395 
L 183.424099 287.575891 
L 184.058984 287.333717 
L 185.328753 285.742011 
L 185.963637 285.566769 
L 186.598522 285.09366 
L 187.233406 284.366422 
L 187.868291 284.328195 
L 188.503175 283.627014 
L 189.13806 283.781782 
L 191.042713 281.716609 
L 191.677598 281.296258 
L 192.312482 280.612687 
L 192.947367 280.327275 
L 193.582251 280.26113 
L 194.217136 279.626309 
L 195.486905 278.766423 
L 197.391558 277.509666 
L 198.661327 276.492076 
L 199.296212 276.371454 
L 199.931096 275.025573 
L 200.565981 274.792562 
L 201.200865 274.775167 
L 201.83575 273.477391 
L 202.470634 273.61999 
L 203.740403 272.553507 
L 204.375288 272.290144 
L 205.010173 271.663484 
L 205.645057 270.855855 
L 206.914826 270.003485 
L 207.549711 270.046436 
L 208.184595 269.813926 
L 208.81948 269.277249 
L 209.454364 268.486443 
L 210.724133 267.618897 
L 211.359018 267.263903 
L 211.993902 266.743691 
L 212.628787 266.522205 
L 213.263671 265.705485 
L 213.898556 265.12965 
L 214.53344 264.339488 
L 215.168325 264.47457 
L 215.803209 263.715118 
L 216.438094 263.310803 
L 217.707863 262.924241 
L 218.977632 261.465827 
L 220.247401 261.082629 
L 220.882285 260.125887 
L 221.51717 259.612833 
L 222.152054 259.350544 
L 222.786939 258.491302 
L 223.421823 258.233021 
L 224.056708 258.123781 
L 224.691592 257.095239 
L 225.326477 256.448678 
L 225.961362 256.699514 
L 226.596246 255.83476 
L 228.5009 254.874367 
L 229.135784 254.13453 
L 229.770669 253.884767 
L 230.405553 252.457064 
L 231.040438 252.909342 
L 232.310207 252.511254 
L 232.945091 251.905568 
L 233.579976 251.891824 
L 234.21486 250.63793 
L 234.849745 250.674439 
L 235.484629 249.701591 
L 236.119514 249.702593 
L 236.754398 247.873294 
L 237.389283 248.323424 
L 238.024167 247.942374 
L 238.659052 247.287366 
L 239.293936 247.580509 
L 239.928821 247.239046 
L 240.563705 246.363339 
L 241.19859 245.759729 
L 241.833474 245.490853 
L 242.468359 244.958614 
L 243.103243 243.999009 
L 244.373012 244.168381 
L 245.642781 242.218246 
L 246.277666 242.163769 
L 246.91255 241.369598 
L 247.547435 241.862036 
L 248.18232 241.544768 
L 249.452089 239.999235 
L 250.721858 238.982146 
L 251.356742 239.060604 
L 251.991627 238.223411 
L 253.261396 237.492951 
L 254.531165 237.271608 
L 255.166049 236.075842 
L 255.800934 235.715194 
L 256.435818 235.161408 
L 257.070703 234.422143 
L 257.705587 234.863039 
L 258.340472 233.720175 
L 258.975356 233.730483 
L 259.610241 232.570223 
L 260.245125 232.877397 
L 260.88001 232.398203 
L 261.514894 232.710531 
L 262.149779 231.404523 
L 262.784663 230.506768 
L 263.419548 230.520083 
L 264.054432 230.046115 
L 264.689317 229.791699 
L 265.324201 229.38903 
L 265.959086 228.532365 
L 266.59397 228.554414 
L 267.228855 227.847792 
L 267.863739 226.896491 
L 268.498624 227.436819 
L 269.133509 226.847312 
L 269.768393 226.749526 
L 270.403278 225.305644 
L 271.038162 224.939627 
L 271.673047 224.156408 
L 272.307931 225.074995 
L 272.942816 223.948309 
L 273.5777 223.756603 
L 274.212585 222.672653 
L 274.847469 222.04993 
L 275.482354 222.346366 
L 276.117238 221.993378 
L 276.752123 221.086388 
L 277.387007 221.237076 
L 278.021892 220.457437 
L 278.656776 220.006519 
L 279.291661 219.878381 
L 279.926545 219.009976 
L 280.56143 219.152073 
L 281.196314 218.316955 
L 281.831199 218.304714 
L 282.466083 217.181464 
L 283.735852 217.334157 
L 284.370737 215.873237 
L 285.005621 215.473074 
L 285.640506 215.986772 
L 286.27539 215.29955 
L 286.910275 215.245718 
L 288.180044 213.176751 
L 288.814928 212.85483 
L 289.449813 213.303385 
L 290.084697 212.865997 
L 290.719582 212.098743 
L 291.354467 212.204117 
L 291.989351 210.828456 
L 292.624236 210.82545 
L 293.25912 209.769347 
L 293.894005 210.008658 
L 294.528889 209.377559 
L 295.163774 208.949119 
L 295.798658 207.491994 
L 296.433543 207.690286 
L 297.068427 207.310381 
L 298.338196 206.825102 
L 298.973081 206.880939 
L 299.607965 206.205744 
L 300.24285 205.928994 
L 300.877734 204.879835 
L 301.512619 205.109267 
L 302.147503 204.451037 
L 302.782388 203.474466 
L 304.687041 203.286912 
L 305.321926 202.351073 
L 305.95681 202.609068 
L 306.591695 201.511517 
L 307.226579 201.092097 
L 307.861464 200.283108 
L 308.496348 200.199926 
L 309.131233 199.85202 
L 309.766117 199.858033 
L 310.401002 198.112561 
L 311.035886 198.787327 
L 311.670771 197.838245 
L 312.305656 197.740387 
L 312.94054 196.888375 
L 313.575425 197.298275 
L 314.210309 196.054976 
L 314.845194 195.763407 
L 315.480078 196.176456 
L 316.114963 195.922113 
L 316.749847 194.19604 
L 317.384732 194.467064 
L 318.019616 193.30258 
L 318.654501 193.625145 
L 319.289385 194.118585 
L 319.92427 193.179811 
L 320.559154 192.959685 
L 321.194039 191.756045 
L 322.463808 190.047368 
L 323.098692 190.519976 
L 323.733577 190.233562 
L 324.368461 190.353182 
L 325.003346 189.291209 
L 325.63823 188.79598 
L 326.273115 188.716949 
L 326.907999 188.224512 
L 327.542884 187.507153 
L 328.177768 187.383524 
L 328.812653 187.535644 
L 329.447537 186.953939 
L 330.082422 186.211023 
L 330.717306 186.291342 
L 331.352191 185.503901 
L 331.987075 184.395541 
L 332.62196 184.615022 
L 333.256844 183.99552 
L 333.891729 183.681617 
L 334.526614 183.862729 
L 335.161498 183.260265 
L 335.796383 182.1043 
L 336.431267 182.681781 
L 337.066152 181.794979 
L 337.701036 181.597116 
L 338.335921 180.578023 
L 338.970805 181.149062 
L 340.240574 179.631661 
L 340.875459 179.431222 
L 341.510343 178.429453 
L 342.145228 178.244833 
L 342.780112 178.443627 
L 343.414997 177.537496 
L 344.049881 176.988148 
L 344.684766 177.388455 
L 345.31965 176.777472 
L 345.954535 174.843801 
L 346.589419 176.324549 
L 347.224304 175.312973 
L 347.859188 174.601985 
L 348.494073 174.069459 
L 349.128957 173.35661 
L 349.763842 174.869357 
L 350.398726 173.306071 
L 351.033611 172.790225 
L 351.668495 172.515193 
L 353.573149 171.044681 
L 354.208033 171.347059 
L 354.842918 170.223666 
L 355.477803 169.862874 
L 356.112687 168.977861 
L 356.747572 169.855644 
L 357.382456 168.877928 
L 358.017341 168.633964 
L 358.652225 167.492818 
L 359.28711 168.006731 
L 359.921994 166.856994 
L 360.556879 167.034455 
L 361.191763 165.715347 
L 361.826648 165.737037 
L 362.461532 164.968065 
L 363.096417 165.165641 
L 363.731301 165.632737 
L 364.366186 163.930718 
L 365.00107 164.437472 
L 365.635955 164.2875 
L 366.270839 163.266761 
L 367.540608 162.622705 
L 368.175493 161.889669 
L 369.445262 161.026919 
L 370.080146 161.201015 
L 370.715031 161.042167 
L 371.349915 160.291592 
L 371.9848 160.17412 
L 372.619684 159.352317 
L 373.254569 158.977351 
L 373.889453 159.282163 
L 374.524338 158.67526 
L 375.159222 157.212193 
L 375.794107 157.53712 
L 376.428991 157.343553 
L 377.063876 156.23913 
L 377.698761 156.379152 
L 378.333645 156.977393 
L 378.96853 155.109294 
L 379.603414 155.06169 
L 380.238299 154.787088 
L 380.873183 153.784674 
L 381.508068 154.327078 
L 382.142952 152.546601 
L 382.777837 154.602468 
L 383.412721 152.682542 
L 384.047606 152.32354 
L 384.68249 152.487471 
L 385.317375 152.486326 
L 385.952259 149.604146 
L 386.587144 151.539535 
L 387.222028 150.100234 
L 387.856913 149.803942 
L 388.491797 149.673226 
L 389.126682 149.841381 
L 389.761566 148.19212 
L 390.396451 148.187753 
L 391.66622 147.33209 
L 392.301104 146.61602 
L 392.935989 147.352492 
L 393.570873 146.728409 
L 394.205758 145.678177 
L 394.840642 144.845135 
L 395.475527 146.26253 
L 396.110411 146.717958 
L 396.745296 144.083607 
L 397.38018 144.571749 
L 398.015065 142.970164 
L 398.64995 143.324728 
L 399.284834 143.171893 
L 399.919719 142.409792 
L 400.554603 144.535026 
L 401.189488 141.83947 
L 402.459257 141.708754 
L 403.094141 140.544701 
L 403.729026 141.177947 
L 404.36391 140.029571 
L 404.998795 139.41644 
L 405.633679 140.029857 
L 406.268564 139.422525 
L 406.903448 137.662807 
L 407.538333 138.093681 
L 408.173217 138.726068 
L 408.808102 138.267992 
L 409.442986 136.494029 
L 410.077871 138.35912 
L 410.712755 136.772211 
L 411.34764 137.682135 
L 411.982524 135.6864 
L 412.617409 134.329996 
L 413.252293 134.973551 
L 413.887178 134.890583 
L 414.522062 132.849605 
L 415.156947 134.784135 
L 415.791831 134.912058 
L 417.0616 133.120986 
L 417.696485 132.805294 
L 418.331369 132.663197 
L 418.966254 132.696913 
L 419.601138 132.548158 
L 420.236023 131.787704 
L 420.870908 130.630523 
L 421.505792 130.643122 
L 422.775561 129.090359 
L 423.410446 129.064445 
L 424.680215 128.142708 
L 425.315099 127.827302 
L 425.949984 128.376793 
L 426.584868 126.493662 
L 427.219753 127.52156 
L 427.854637 127.682198 
L 428.489522 126.018548 
L 429.124406 126.169451 
L 429.759291 125.844595 
L 430.394175 126.260508 
L 431.02906 124.992512 
L 431.663944 125.406277 
L 433.568598 124.11566 
L 434.203482 122.969789 
L 434.838367 122.835995 
L 435.473251 121.579382 
L 436.108136 121.513308 
L 436.74302 121.691986 
L 437.377905 119.837775 
L 438.012789 121.276861 
L 438.647674 120.994599 
L 439.282558 120.888222 
L 439.917443 120.032703 
L 440.552327 119.725099 
L 441.187212 119.048902 
L 441.822097 119.64206 
L 442.456981 117.74225 
L 443.091866 118.896066 
L 443.72675 118.560187 
L 444.361635 117.753059 
L 444.996519 115.983391 
L 445.631404 117.104565 
L 446.266288 117.357191 
L 446.901173 114.95986 
L 447.536057 115.479357 
L 448.170942 114.959287 
L 448.805826 115.119496 
L 449.440711 114.003262 
L 450.075595 114.627631 
L 450.71048 113.86145 
L 451.345364 113.347681 
L 451.980249 113.878989 
L 452.615133 112.063291 
L 453.250018 112.623306 
L 453.884902 112.406902 
L 454.519787 111.854691 
L 455.154671 112.976223 
L 455.789556 112.090852 
L 456.42444 110.091537 
L 457.059325 109.71106 
L 457.694209 109.841847 
L 458.329094 108.97967 
L 458.963978 107.802945 
L 459.598863 109.032142 
L 460.233747 109.431446 
L 460.868632 109.436028 
L 461.503516 107.945329 
L 462.138401 108.600982 
L 462.773285 107.662709 
L 463.40817 107.070983 
L 464.043055 107.335348 
L 464.677939 104.922412 
L 465.312824 105.466176 
L 465.947708 105.415136 
L 467.217477 104.58145 
L 467.852362 105.033155 
L 468.487246 104.811096 
L 469.122131 103.793578 
L 469.757015 102.324069 
L 470.3919 103.432214 
L 471.661669 102.145105 
L 472.296553 102.275176 
L 472.931438 101.111122 
L 473.566322 102.315837 
L 474.201207 101.516655 
L 474.836091 100.924284 
L 475.470976 99.9679 
L 476.10586 99.687571 
L 477.375629 98.803059 
L 478.010514 99.007365 
L 479.280283 98.617867 
L 479.915167 96.646113 
L 480.550052 98.233596 
L 481.819821 96.388333 
L 482.454705 96.506951 
L 483.08959 96.231919 
L 483.724474 94.263601 
L 484.359359 94.772646 
L 484.994244 95.967911 
L 485.629128 94.835498 
L 486.264013 95.566888 
L 486.898897 94.547295 
L 487.533782 92.385266 
L 488.168666 93.433924 
L 488.803551 93.802303 
L 489.438435 93.912831 
L 490.07332 93.074707 
L 490.708204 92.737968 
L 491.343089 90.939523 
L 491.977973 92.124766 
L 492.612858 89.860656 
L 493.247742 91.628391 
L 493.882627 91.231521 
L 494.517511 89.34839 
L 495.152396 88.812285 
L 495.78728 89.901245 
L 496.422165 88.489291 
L 497.057049 88.529593 
L 497.691934 87.902145 
L 498.326818 88.994971 
L 498.961703 88.361797 
L 499.596587 86.644028 
L 500.231472 87.341845 
L 501.501241 87.571993 
L 502.136125 85.820794 
L 502.77101 84.649009 
L 503.405894 84.140894 
L 504.040779 85.121044 
L 504.675663 85.249469 
L 505.310548 85.16056 
L 505.945433 85.424925 
L 506.580317 83.217511 
L 507.215202 83.417378 
L 507.850086 82.519552 
L 508.484971 82.28833 
L 509.119855 82.912557 
L 509.75474 80.579725 
L 510.389624 82.141508 
L 511.024509 81.491439 
L 511.659393 81.771983 
L 512.294278 80.922835 
L 512.929162 79.634294 
L 513.564047 80.043191 
L 514.198931 78.967044 
L 514.833816 79.155314 
L 515.4687 78.803185 
L 516.103585 78.319409 
L 516.738469 79.196476 
L 517.373354 77.346418 
L 518.008238 78.202009 
L 518.643123 77.029723 
L 519.278007 77.974223 
L 519.912892 76.908457 
L 520.547776 76.462049 
L 521.182661 76.330331 
L 521.817545 75.170287 
L 522.45243 76.434131 
L 523.087314 75.60474 
L 523.722199 73.585381 
L 524.357083 74.212972 
L 525.626852 73.156369 
L 526.896621 73.016347 
L 527.531506 72.447814 
L 528.166391 72.519758 
L 528.801275 73.171402 
L 529.43616 70.821532 
L 530.071044 71.942348 
L 530.705929 70.872788 
L 531.340813 69.552534 
L 531.975698 70.606775 
L 532.610582 69.051578 
L 533.245467 69.863359 
L 533.880351 69.488393 
L 534.515236 70.429028 
L 535.15012 68.596079 
L 535.785005 68.827945 
L 536.419889 68.075222 
L 537.054774 67.568253 
L 537.689658 66.784963 
L 538.324543 69.061886 
L 538.959427 67.281051 
L 539.594312 67.198799 
L 540.229196 66.937154 
L 540.864081 65.14057 
L 541.498965 65.632005 
L 542.13385 65.85886 
L 542.768734 64.016747 
L 543.403619 64.978285 
L 544.038503 65.622985 
L 544.673388 63.574133 
L 545.308272 62.971526 
L 545.943157 62.553251 
L 546.578041 63.472339 
L 547.212926 63.302681 
L 548.482695 61.715127 
L 549.11758 60.371608 
L 549.752464 61.365001 
L 550.387349 60.790956 
L 551.022233 60.977294 
L 551.657118 59.018139 
L 552.292002 59.231106 
L 552.926887 60.111466 
L 553.561771 59.4304 
L 554.196656 60.260435 
L 554.83154 58.176364 
L 555.466425 60.069159 
L 556.101309 59.383583 
L 556.736194 57.400447 
L 557.371078 57.8412 
L 558.005963 57.777846 
L 558.640847 58.013936 
L 559.275732 56.240689 
L 559.910616 56.244554 
L 560.545501 55.442581 
L 561.180385 55.484816 
L 561.81527 56.361239 
L 562.450154 54.784351 
L 563.085039 55.006409 
L 563.719923 55.012279 
L 564.354808 54.718063 
L 564.989692 52.878241 
L 565.624577 52.865785 
L 566.259461 54.196776 
L 566.894346 53.357363 
L 567.52923 53.991182 
L 568.164115 52.416227 
L 568.798999 52.128668 
L 569.433884 51.259189 
L 570.068768 51.014653 
L 570.703653 49.822108 
L 571.338538 51.306149 
L 571.973422 49.743077 
L 572.608307 50.375823 
L 573.243191 49.622026 
L 573.878076 50.586571 
L 574.51296 49.241692 
L 575.147845 49.21363 
L 575.782729 49.023499 
L 576.417614 47.518125 
L 576.417614 47.518125 
" clip-path="url(#p58fd83f856)" style="fill: none; stroke: #ff7f0e; stroke-width: 1.5; stroke-linecap: square"/>
   </g>
   <g id="patch_3">
    <path d="M 43.78125 576.718125 
L 43.78125 22.318125 
" style="fill: none; stroke: #000000; stroke-width: 0.8; stroke-linejoin: miter; stroke-linecap: square"/>
   </g>
   <g id="patch_4">
    <path d="M 601.78125 576.718125 
L 601.78125 22.318125 
" style="fill: none; stroke: #000000; stroke-width: 0.8; stroke-linejoin: miter; stroke-linecap: square"/>
   </g>
   <g id="patch_5">
    <path d="M 43.78125 576.718125 
L 601.78125 576.718125 
" style="fill: none; stroke: #000000; stroke-width: 0.8; stroke-linejoin: miter; stroke-linecap: square"/>
   </g>
   <g id="patch_6">
    <path d="M 43.78125 22.318125 
L 601.78125 22.318125 
" style="fill: none; stroke: #000000; stroke-width: 0.8; stroke-linejoin: miter; stroke-linecap: square"/>
   </g>
   <g id="text_16">
    <!-- Train and Val Loss -->
    <g transform="translate(269.235937 16.318125) scale(0.12 -0.12)">
     <defs>
      <path id="DejaVuSans-54" d="M -19 4666 
L 3928 4666 
L 3928 4134 
L 2272 4134 
L 2272 0 
L 1638 0 
L 1638 4134 
L -19 4134 
L -19 4666 
z
" transform="scale(0.015625)"/>
      <path id="DejaVuSans-72" d="M 2631 2963 
Q 2534 3019 2420 3045 
Q 2306 3072 2169 3072 
Q 1681 3072 1420 2755 
Q 1159 2438 1159 1844 
L 1159 0 
L 581 0 
L 581 3500 
L 1159 3500 
L 1159 2956 
Q 1341 3275 1631 3429 
Q 1922 3584 2338 3584 
Q 2397 3584 2469 3576 
Q 2541 3569 2628 3553 
L 2631 2963 
z
" transform="scale(0.015625)"/>
      <path id="DejaVuSans-61" d="M 2194 1759 
Q 1497 1759 1228 1600 
Q 959 1441 959 1056 
Q 959 750 1161 570 
Q 1363 391 1709 391 
Q 2188 391 2477 730 
Q 2766 1069 2766 1631 
L 2766 1759 
L 2194 1759 
z
M 3341 1997 
L 3341 0 
L 2766 0 
L 2766 531 
Q 2569 213 2275 61 
Q 1981 -91 1556 -91 
Q 1019 -91 701 211 
Q 384 513 384 1019 
Q 384 1609 779 1909 
Q 1175 2209 1959 2209 
L 2766 2209 
L 2766 2266 
Q 2766 2663 2505 2880 
Q 2244 3097 1772 3097 
Q 1472 3097 1187 3025 
Q 903 2953 641 2809 
L 641 3341 
Q 956 3463 1253 3523 
Q 1550 3584 1831 3584 
Q 2591 3584 2966 3190 
Q 3341 2797 3341 1997 
z
" transform="scale(0.015625)"/>
      <path id="DejaVuSans-69" d="M 603 3500 
L 1178 3500 
L 1178 0 
L 603 0 
L 603 3500 
z
M 603 4863 
L 1178 4863 
L 1178 4134 
L 603 4134 
L 603 4863 
z
" transform="scale(0.015625)"/>
      <path id="DejaVuSans-6e" d="M 3513 2113 
L 3513 0 
L 2938 0 
L 2938 2094 
Q 2938 2591 2744 2837 
Q 2550 3084 2163 3084 
Q 1697 3084 1428 2787 
Q 1159 2491 1159 1978 
L 1159 0 
L 581 0 
L 581 3500 
L 1159 3500 
L 1159 2956 
Q 1366 3272 1645 3428 
Q 1925 3584 2291 3584 
Q 2894 3584 3203 3211 
Q 3513 2838 3513 2113 
z
" transform="scale(0.015625)"/>
      <path id="DejaVuSans-20" transform="scale(0.015625)"/>
      <path id="DejaVuSans-64" d="M 2906 2969 
L 2906 4863 
L 3481 4863 
L 3481 0 
L 2906 0 
L 2906 525 
Q 2725 213 2448 61 
Q 2172 -91 1784 -91 
Q 1150 -91 751 415 
Q 353 922 353 1747 
Q 353 2572 751 3078 
Q 1150 3584 1784 3584 
Q 2172 3584 2448 3432 
Q 2725 3281 2906 2969 
z
M 947 1747 
Q 947 1113 1208 752 
Q 1469 391 1925 391 
Q 2381 391 2643 752 
Q 2906 1113 2906 1747 
Q 2906 2381 2643 2742 
Q 2381 3103 1925 3103 
Q 1469 3103 1208 2742 
Q 947 2381 947 1747 
z
" transform="scale(0.015625)"/>
      <path id="DejaVuSans-56" d="M 1831 0 
L 50 4666 
L 709 4666 
L 2188 738 
L 3669 4666 
L 4325 4666 
L 2547 0 
L 1831 0 
z
" transform="scale(0.015625)"/>
      <path id="DejaVuSans-6c" d="M 603 4863 
L 1178 4863 
L 1178 0 
L 603 0 
L 603 4863 
z
" transform="scale(0.015625)"/>
     </defs>
     <use xlink:href="#DejaVuSans-54"/>
     <use xlink:href="#DejaVuSans-72" transform="translate(46.333984 0)"/>
     <use xlink:href="#DejaVuSans-61" transform="translate(87.447266 0)"/>
     <use xlink:href="#DejaVuSans-69" transform="translate(148.726562 0)"/>
     <use xlink:href="#DejaVuSans-6e" transform="translate(176.509766 0)"/>
     <use xlink:href="#DejaVuSans-20" transform="translate(239.888672 0)"/>
     <use xlink:href="#DejaVuSans-61" transform="translate(271.675781 0)"/>
     <use xlink:href="#DejaVuSans-6e" transform="translate(332.955078 0)"/>
     <use xlink:href="#DejaVuSans-64" transform="translate(396.333984 0)"/>
     <use xlink:href="#DejaVuSans-20" transform="translate(459.810547 0)"/>
     <use xlink:href="#DejaVuSans-56" transform="translate(491.597656 0)"/>
     <use xlink:href="#DejaVuSans-61" transform="translate(552.255859 0)"/>
     <use xlink:href="#DejaVuSans-6c" transform="translate(613.535156 0)"/>
     <use xlink:href="#DejaVuSans-20" transform="translate(641.318359 0)"/>
     <use xlink:href="#DejaVuSans-4c" transform="translate(673.105469 0)"/>
     <use xlink:href="#DejaVuSans-6f" transform="translate(727.068359 0)"/>
     <use xlink:href="#DejaVuSans-73" transform="translate(788.25 0)"/>
     <use xlink:href="#DejaVuSans-73" transform="translate(840.349609 0)"/>
    </g>
   </g>
   <g id="legend_1">
    <g id="patch_7">
     <path d="M 50.78125 60.230625 
L 130.371875 60.230625 
Q 132.371875 60.230625 132.371875 58.230625 
L 132.371875 29.318125 
Q 132.371875 27.318125 130.371875 27.318125 
L 50.78125 27.318125 
Q 48.78125 27.318125 48.78125 29.318125 
L 48.78125 58.230625 
Q 48.78125 60.230625 50.78125 60.230625 
z
" style="fill: #ffffff; opacity: 0.8; stroke: #cccccc; stroke-linejoin: miter"/>
    </g>
    <g id="line2d_29">
     <path d="M 52.78125 35.416563 
L 62.78125 35.416563 
L 72.78125 35.416563 
" style="fill: none; stroke: #1f77b4; stroke-width: 1.5; stroke-linecap: square"/>
    </g>
    <g id="text_17">
     <!-- train_loss -->
     <g transform="translate(80.78125 38.916563) scale(0.1 -0.1)">
      <defs>
       <path id="DejaVuSans-74" d="M 1172 4494 
L 1172 3500 
L 2356 3500 
L 2356 3053 
L 1172 3053 
L 1172 1153 
Q 1172 725 1289 603 
Q 1406 481 1766 481 
L 2356 481 
L 2356 0 
L 1766 0 
Q 1100 0 847 248 
Q 594 497 594 1153 
L 594 3053 
L 172 3053 
L 172 3500 
L 594 3500 
L 594 4494 
L 1172 4494 
z
" transform="scale(0.015625)"/>
       <path id="DejaVuSans-5f" d="M 3263 -1063 
L 3263 -1509 
L -63 -1509 
L -63 -1063 
L 3263 -1063 
z
" transform="scale(0.015625)"/>
      </defs>
      <use xlink:href="#DejaVuSans-74"/>
      <use xlink:href="#DejaVuSans-72" transform="translate(39.208984 0)"/>
      <use xlink:href="#DejaVuSans-61" transform="translate(80.322266 0)"/>
      <use xlink:href="#DejaVuSans-69" transform="translate(141.601562 0)"/>
      <use xlink:href="#DejaVuSans-6e" transform="translate(169.384766 0)"/>
      <use xlink:href="#DejaVuSans-5f" transform="translate(232.763672 0)"/>
      <use xlink:href="#DejaVuSans-6c" transform="translate(282.763672 0)"/>
      <use xlink:href="#DejaVuSans-6f" transform="translate(310.546875 0)"/>
      <use xlink:href="#DejaVuSans-73" transform="translate(371.728516 0)"/>
      <use xlink:href="#DejaVuSans-73" transform="translate(423.828125 0)"/>
     </g>
    </g>
    <g id="line2d_30">
     <path d="M 52.78125 50.372813 
L 62.78125 50.372813 
L 72.78125 50.372813 
" style="fill: none; stroke: #ff7f0e; stroke-width: 1.5; stroke-linecap: square"/>
    </g>
    <g id="text_18">
     <!-- val_loss -->
     <g transform="translate(80.78125 53.872813) scale(0.1 -0.1)">
      <defs>
       <path id="DejaVuSans-76" d="M 191 3500 
L 800 3500 
L 1894 563 
L 2988 3500 
L 3597 3500 
L 2284 0 
L 1503 0 
L 191 3500 
z
" transform="scale(0.015625)"/>
      </defs>
      <use xlink:href="#DejaVuSans-76"/>
      <use xlink:href="#DejaVuSans-61" transform="translate(59.179688 0)"/>
      <use xlink:href="#DejaVuSans-6c" transform="translate(120.458984 0)"/>
      <use xlink:href="#DejaVuSans-5f" transform="translate(148.242188 0)"/>
      <use xlink:href="#DejaVuSans-6c" transform="translate(198.242188 0)"/>
      <use xlink:href="#DejaVuSans-6f" transform="translate(226.025391 0)"/>
      <use xlink:href="#DejaVuSans-73" transform="translate(287.207031 0)"/>
      <use xlink:href="#DejaVuSans-73" transform="translate(339.306641 0)"/>
     </g>
    </g>
   </g>
  </g>
 </g>
 <defs>
  <clipPath id="p58fd83f856">
   <rect x="43.78125" y="22.318125" width="558" height="554.4"/>
  </clipPath>
 </defs>
</svg>
