<?xml version="1.0" encoding="utf-8" standalone="no"?>
<!DOCTYPE svg PUBLIC "-//W3C//DTD SVG 1.1//EN"
  "http://www.w3.org/Graphics/SVG/1.1/DTD/svg11.dtd">
<svg xmlns:xlink="http://www.w3.org/1999/xlink" width="615.34375pt" height="614.274375pt" viewBox="0 0 615.34375 614.274375" xmlns="http://www.w3.org/2000/svg" version="1.1">
 <metadata>
  <rdf:RDF xmlns:dc="http://purl.org/dc/elements/1.1/" xmlns:cc="http://creativecommons.org/ns#" xmlns:rdf="http://www.w3.org/1999/02/22-rdf-syntax-ns#">
   <cc:Work>
    <dc:type rdf:resource="http://purl.org/dc/dcmitype/StillImage"/>
    <dc:date>2026-06-02T08:15:24.500878</dc:date>
    <dc:format>image/svg+xml</dc:format>
    <dc:creator>
     <cc:Agent>
      <dc:title>Matplotlib v3.10.9, https://matplotlib.org/</dc:title>
     </cc:Agent>
    </dc:creator>
   </cc:Work>
  </rdf:RDF>
 </metadata>
 <defs>
  <style type="text/css">*{stroke-linejoin: round; stroke-linecap: butt}</style>
 </defs>
 <g id="figure_1">
  <g id="patch_1">
   <path d="M 0 614.274375 
L 615.34375 614.274375 
L 615.34375 0 
L 0 0 
z
" style="fill: #ffffff"/>
  </g>
  <g id="axes_1">
   <g id="patch_2">
    <path d="M 50.14375 576.718125 
L 608.14375 576.718125 
L 608.14375 22.318125 
L 50.14375 22.318125 
z
" style="fill: #ffffff"/>
   </g>
   <g id="matplotlib.axis_1">
    <g id="xtick_1">
     <g id="line2d_1">
      <path d="M 75.507386 576.718125 
L 75.507386 22.318125 
" clip-path="url(#p8026401ea8)" style="fill: none; stroke: #b0b0b0; stroke-width: 0.8; stroke-linecap: square"/>
     </g>
     <g id="line2d_2">
      <defs>
       <path id="mfda9cb449d" d="M 0 0 
L 0 3.5 
" style="stroke: #000000; stroke-width: 0.8"/>
      </defs>
      <g>
       <use xlink:href="#mfda9cb449d" x="75.507386" y="576.718125" style="stroke: #000000; stroke-width: 0.8"/>
      </g>
     </g>
     <g id="text_1">
      <!-- 0 -->
      <g transform="translate(72.326136 591.316563) scale(0.1 -0.1)">
       <defs>
        <path id="DejaVuSans-30" d="M 2034 4250 
Q 1547 4250 1301 3770 
Q 1056 3291 1056 2328 
Q 1056 1369 1301 889 
Q 1547 409 2034 409 
Q 2525 409 2770 889 
Q 3016 1369 3016 2328 
Q 3016 3291 2770 3770 
Q 2525 4250 2034 4250 
z
M 2034 4750 
Q 2819 4750 3233 4129 
Q 3647 3509 3647 2328 
Q 3647 1150 3233 529 
Q 2819 -91 2034 -91 
Q 1250 -91 836 529 
Q 422 1150 422 2328 
Q 422 3509 836 4129 
Q 1250 4750 2034 4750 
z
" transform="scale(0.015625)"/>
       </defs>
       <use xlink:href="#DejaVuSans-30"/>
      </g>
     </g>
    </g>
    <g id="xtick_2">
     <g id="line2d_3">
      <path d="M 138.995838 576.718125 
L 138.995838 22.318125 
" clip-path="url(#p8026401ea8)" style="fill: none; stroke: #b0b0b0; stroke-width: 0.8; stroke-linecap: square"/>
     </g>
     <g id="line2d_4">
      <g>
       <use xlink:href="#mfda9cb449d" x="138.995838" y="576.718125" style="stroke: #000000; stroke-width: 0.8"/>
      </g>
     </g>
     <g id="text_2">
      <!-- 100 -->
      <g transform="translate(129.452088 591.316563) scale(0.1 -0.1)">
       <defs>
        <path id="DejaVuSans-31" d="M 794 531 
L 1825 531 
L 1825 4091 
L 703 3866 
L 703 4441 
L 1819 4666 
L 2450 4666 
L 2450 531 
L 3481 531 
L 3481 0 
L 794 0 
L 794 531 
z
" transform="scale(0.015625)"/>
       </defs>
       <use xlink:href="#DejaVuSans-31"/>
       <use xlink:href="#DejaVuSans-30" transform="translate(63.623047 0)"/>
       <use xlink:href="#DejaVuSans-30" transform="translate(127.246094 0)"/>
      </g>
     </g>
    </g>
    <g id="xtick_3">
     <g id="line2d_5">
      <path d="M 202.484289 576.718125 
L 202.484289 22.318125 
" clip-path="url(#p8026401ea8)" style="fill: none; stroke: #b0b0b0; stroke-width: 0.8; stroke-linecap: square"/>
     </g>
     <g id="line2d_6">
      <g>
       <use xlink:href="#mfda9cb449d" x="202.484289" y="576.718125" style="stroke: #000000; stroke-width: 0.8"/>
      </g>
     </g>
     <g id="text_3">
      <!-- 200 -->
      <g transform="translate(192.940539 591.316563) scale(0.1 -0.1)">
       <defs>
        <path id="DejaVuSans-32" d="M 1228 531 
L 3431 531 
L 3431 0 
L 469 0 
L 469 531 
Q 828 903 1448 1529 
Q 2069 2156 2228 2338 
Q 2531 2678 2651 2914 
Q 2772 3150 2772 3378 
Q 2772 3750 2511 3984 
Q 2250 4219 1831 4219 
Q 1534 4219 1204 4116 
Q 875 4013 500 3803 
L 500 4441 
Q 881 4594 1212 4672 
Q 1544 4750 1819 4750 
Q 2544 4750 2975 4387 
Q 3406 4025 3406 3419 
Q 3406 3131 3298 2873 
Q 3191 2616 2906 2266 
Q 2828 2175 2409 1742 
Q 1991 1309 1228 531 
z
" transform="scale(0.015625)"/>
       </defs>
       <use xlink:href="#DejaVuSans-32"/>
       <use xlink:href="#DejaVuSans-30" transform="translate(63.623047 0)"/>
       <use xlink:href="#DejaVuSans-30" transform="translate(127.246094 0)"/>
      </g>
     </g>
    </g>
    <g id="xtick_4">
     <g id="line2d_7">
      <path d="M 265.972741 576.718125 
L 265.972741 22.318125 
" clip-path="url(#p8026401ea8)" style="fill: none; stroke: #b0b0b0; stroke-width: 0.8; stroke-linecap: square"/>
     </g>
     <g id="line2d_8">
      <g>
       <use xlink:href="#mfda9cb449d" x="265.972741" y="576.718125" style="stroke: #000000; stroke-width: 0.8"/>
      </g>
     </g>
     <g id="text_4">
      <!-- 300 -->
      <g transform="translate(256.428991 591.316563) scale(0.1 -0.1)">
       <defs>
        <path id="DejaVuSans-33" d="M 2597 2516 
Q 3050 2419 3304 2112 
Q 3559 1806 3559 1356 
Q 3559 666 3084 287 
Q 2609 -91 1734 -91 
Q 1441 -91 1130 -33 
Q 819 25 488 141 
L 488 750 
Q 750 597 1062 519 
Q 1375 441 1716 441 
Q 2309 441 2620 675 
Q 2931 909 2931 1356 
Q 2931 1769 2642 2001 
Q 2353 2234 1838 2234 
L 1294 2234 
L 1294 2753 
L 1863 2753 
Q 2328 2753 2575 2939 
Q 2822 3125 2822 3475 
Q 2822 3834 2567 4026 
Q 2313 4219 1838 4219 
Q 1578 4219 1281 4162 
Q 984 4106 628 3988 
L 628 4550 
Q 988 4650 1302 4700 
Q 1616 4750 1894 4750 
Q 2613 4750 3031 4423 
Q 3450 4097 3450 3541 
Q 3450 3153 3228 2886 
Q 3006 2619 2597 2516 
z
" transform="scale(0.015625)"/>
       </defs>
       <use xlink:href="#DejaVuSans-33"/>
       <use xlink:href="#DejaVuSans-30" transform="translate(63.623047 0)"/>
       <use xlink:href="#DejaVuSans-30" transform="translate(127.246094 0)"/>
      </g>
     </g>
    </g>
    <g id="xtick_5">
     <g id="line2d_9">
      <path d="M 329.461192 576.718125 
L 329.461192 22.318125 
" clip-path="url(#p8026401ea8)" style="fill: none; stroke: #b0b0b0; stroke-width: 0.8; stroke-linecap: square"/>
     </g>
     <g id="line2d_10">
      <g>
       <use xlink:href="#mfda9cb449d" x="329.461192" y="576.718125" style="stroke: #000000; stroke-width: 0.8"/>
      </g>
     </g>
     <g id="text_5">
      <!-- 400 -->
      <g transform="translate(319.917442 591.316563) scale(0.1 -0.1)">
       <defs>
        <path id="DejaVuSans-34" d="M 2419 4116 
L 825 1625 
L 2419 1625 
L 2419 4116 
z
M 2253 4666 
L 3047 4666 
L 3047 1625 
L 3713 1625 
L 3713 1100 
L 3047 1100 
L 3047 0 
L 2419 0 
L 2419 1100 
L 313 1100 
L 313 1709 
L 2253 4666 
z
" transform="scale(0.015625)"/>
       </defs>
       <use xlink:href="#DejaVuSans-34"/>
       <use xlink:href="#DejaVuSans-30" transform="translate(63.623047 0)"/>
       <use xlink:href="#DejaVuSans-30" transform="translate(127.246094 0)"/>
      </g>
     </g>
    </g>
    <g id="xtick_6">
     <g id="line2d_11">
      <path d="M 392.949644 576.718125 
L 392.949644 22.318125 
" clip-path="url(#p8026401ea8)" style="fill: none; stroke: #b0b0b0; stroke-width: 0.8; stroke-linecap: square"/>
     </g>
     <g id="line2d_12">
      <g>
       <use xlink:href="#mfda9cb449d" x="392.949644" y="576.718125" style="stroke: #000000; stroke-width: 0.8"/>
      </g>
     </g>
     <g id="text_6">
      <!-- 500 -->
      <g transform="translate(383.405894 591.316563) scale(0.1 -0.1)">
       <defs>
        <path id="DejaVuSans-35" d="M 691 4666 
L 3169 4666 
L 3169 4134 
L 1269 4134 
L 1269 2991 
Q 1406 3038 1543 3061 
Q 1681 3084 1819 3084 
Q 2600 3084 3056 2656 
Q 3513 2228 3513 1497 
Q 3513 744 3044 326 
Q 2575 -91 1722 -91 
Q 1428 -91 1123 -41 
Q 819 9 494 109 
L 494 744 
Q 775 591 1075 516 
Q 1375 441 1709 441 
Q 2250 441 2565 725 
Q 2881 1009 2881 1497 
Q 2881 1984 2565 2268 
Q 2250 2553 1709 2553 
Q 1456 2553 1204 2497 
Q 953 2441 691 2322 
L 691 4666 
z
" transform="scale(0.015625)"/>
       </defs>
       <use xlink:href="#DejaVuSans-35"/>
       <use xlink:href="#DejaVuSans-30" transform="translate(63.623047 0)"/>
       <use xlink:href="#DejaVuSans-30" transform="translate(127.246094 0)"/>
      </g>
     </g>
    </g>
    <g id="xtick_7">
     <g id="line2d_13">
      <path d="M 456.438095 576.718125 
L 456.438095 22.318125 
" clip-path="url(#p8026401ea8)" style="fill: none; stroke: #b0b0b0; stroke-width: 0.8; stroke-linecap: square"/>
     </g>
     <g id="line2d_14">
      <g>
       <use xlink:href="#mfda9cb449d" x="456.438095" y="576.718125" style="stroke: #000000; stroke-width: 0.8"/>
      </g>
     </g>
     <g id="text_7">
      <!-- 600 -->
      <g transform="translate(446.894345 591.316563) scale(0.1 -0.1)">
       <defs>
        <path id="DejaVuSans-36" d="M 2113 2584 
Q 1688 2584 1439 2293 
Q 1191 2003 1191 1497 
Q 1191 994 1439 701 
Q 1688 409 2113 409 
Q 2538 409 2786 701 
Q 3034 994 3034 1497 
Q 3034 2003 2786 2293 
Q 2538 2584 2113 2584 
z
M 3366 4563 
L 3366 3988 
Q 3128 4100 2886 4159 
Q 2644 4219 2406 4219 
Q 1781 4219 1451 3797 
Q 1122 3375 1075 2522 
Q 1259 2794 1537 2939 
Q 1816 3084 2150 3084 
Q 2853 3084 3261 2657 
Q 3669 2231 3669 1497 
Q 3669 778 3244 343 
Q 2819 -91 2113 -91 
Q 1303 -91 875 529 
Q 447 1150 447 2328 
Q 447 3434 972 4092 
Q 1497 4750 2381 4750 
Q 2619 4750 2861 4703 
Q 3103 4656 3366 4563 
z
" transform="scale(0.015625)"/>
       </defs>
       <use xlink:href="#DejaVuSans-36"/>
       <use xlink:href="#DejaVuSans-30" transform="translate(63.623047 0)"/>
       <use xlink:href="#DejaVuSans-30" transform="translate(127.246094 0)"/>
      </g>
     </g>
    </g>
    <g id="xtick_8">
     <g id="line2d_15">
      <path d="M 519.926547 576.718125 
L 519.926547 22.318125 
" clip-path="url(#p8026401ea8)" style="fill: none; stroke: #b0b0b0; stroke-width: 0.8; stroke-linecap: square"/>
     </g>
     <g id="line2d_16">
      <g>
       <use xlink:href="#mfda9cb449d" x="519.926547" y="576.718125" style="stroke: #000000; stroke-width: 0.8"/>
      </g>
     </g>
     <g id="text_8">
      <!-- 700 -->
      <g transform="translate(510.382797 591.316563) scale(0.1 -0.1)">
       <defs>
        <path id="DejaVuSans-37" d="M 525 4666 
L 3525 4666 
L 3525 4397 
L 1831 0 
L 1172 0 
L 2766 4134 
L 525 4134 
L 525 4666 
z
" transform="scale(0.015625)"/>
       </defs>
       <use xlink:href="#DejaVuSans-37"/>
       <use xlink:href="#DejaVuSans-30" transform="translate(63.623047 0)"/>
       <use xlink:href="#DejaVuSans-30" transform="translate(127.246094 0)"/>
      </g>
     </g>
    </g>
    <g id="xtick_9">
     <g id="line2d_17">
      <path d="M 583.414998 576.718125 
L 583.414998 22.318125 
" clip-path="url(#p8026401ea8)" style="fill: none; stroke: #b0b0b0; stroke-width: 0.8; stroke-linecap: square"/>
     </g>
     <g id="line2d_18">
      <g>
       <use xlink:href="#mfda9cb449d" x="583.414998" y="576.718125" style="stroke: #000000; stroke-width: 0.8"/>
      </g>
     </g>
     <g id="text_9">
      <!-- 800 -->
      <g transform="translate(573.871248 591.316563) scale(0.1 -0.1)">
       <defs>
        <path id="DejaVuSans-38" d="M 2034 2216 
Q 1584 2216 1326 1975 
Q 1069 1734 1069 1313 
Q 1069 891 1326 650 
Q 1584 409 2034 409 
Q 2484 409 2743 651 
Q 3003 894 3003 1313 
Q 3003 1734 2745 1975 
Q 2488 2216 2034 2216 
z
M 1403 2484 
Q 997 2584 770 2862 
Q 544 3141 544 3541 
Q 544 4100 942 4425 
Q 1341 4750 2034 4750 
Q 2731 4750 3128 4425 
Q 3525 4100 3525 3541 
Q 3525 3141 3298 2862 
Q 3072 2584 2669 2484 
Q 3125 2378 3379 2068 
Q 3634 1759 3634 1313 
Q 3634 634 3220 271 
Q 2806 -91 2034 -91 
Q 1263 -91 848 271 
Q 434 634 434 1313 
Q 434 1759 690 2068 
Q 947 2378 1403 2484 
z
M 1172 3481 
Q 1172 3119 1398 2916 
Q 1625 2713 2034 2713 
Q 2441 2713 2670 2916 
Q 2900 3119 2900 3481 
Q 2900 3844 2670 4047 
Q 2441 4250 2034 4250 
Q 1625 4250 1398 4047 
Q 1172 3844 1172 3481 
z
" transform="scale(0.015625)"/>
       </defs>
       <use xlink:href="#DejaVuSans-38"/>
       <use xlink:href="#DejaVuSans-30" transform="translate(63.623047 0)"/>
       <use xlink:href="#DejaVuSans-30" transform="translate(127.246094 0)"/>
      </g>
     </g>
    </g>
    <g id="text_10">
     <!-- Epochs -->
     <g transform="translate(311.228125 604.994688) scale(0.1 -0.1)">
      <defs>
       <path id="DejaVuSans-45" d="M 628 4666 
L 3578 4666 
L 3578 4134 
L 1259 4134 
L 1259 2753 
L 3481 2753 
L 3481 2222 
L 1259 2222 
L 1259 531 
L 3634 531 
L 3634 0 
L 628 0 
L 628 4666 
z
" transform="scale(0.015625)"/>
       <path id="DejaVuSans-70" d="M 1159 525 
L 1159 -1331 
L 581 -1331 
L 581 3500 
L 1159 3500 
L 1159 2969 
Q 1341 3281 1617 3432 
Q 1894 3584 2278 3584 
Q 2916 3584 3314 3078 
Q 3713 2572 3713 1747 
Q 3713 922 3314 415 
Q 2916 -91 2278 -91 
Q 1894 -91 1617 61 
Q 1341 213 1159 525 
z
M 3116 1747 
Q 3116 2381 2855 2742 
Q 2594 3103 2138 3103 
Q 1681 3103 1420 2742 
Q 1159 2381 1159 1747 
Q 1159 1113 1420 752 
Q 1681 391 2138 391 
Q 2594 391 2855 752 
Q 3116 1113 3116 1747 
z
" transform="scale(0.015625)"/>
       <path id="DejaVuSans-6f" d="M 1959 3097 
Q 1497 3097 1228 2736 
Q 959 2375 959 1747 
Q 959 1119 1226 758 
Q 1494 397 1959 397 
Q 2419 397 2687 759 
Q 2956 1122 2956 1747 
Q 2956 2369 2687 2733 
Q 2419 3097 1959 3097 
z
M 1959 3584 
Q 2709 3584 3137 3096 
Q 3566 2609 3566 1747 
Q 3566 888 3137 398 
Q 2709 -91 1959 -91 
Q 1206 -91 779 398 
Q 353 888 353 1747 
Q 353 2609 779 3096 
Q 1206 3584 1959 3584 
z
" transform="scale(0.015625)"/>
       <path id="DejaVuSans-63" d="M 3122 3366 
L 3122 2828 
Q 2878 2963 2633 3030 
Q 2388 3097 2138 3097 
Q 1578 3097 1268 2742 
Q 959 2388 959 1747 
Q 959 1106 1268 751 
Q 1578 397 2138 397 
Q 2388 397 2633 464 
Q 2878 531 3122 666 
L 3122 134 
Q 2881 22 2623 -34 
Q 2366 -91 2075 -91 
Q 1284 -91 818 406 
Q 353 903 353 1747 
Q 353 2603 823 3093 
Q 1294 3584 2113 3584 
Q 2378 3584 2631 3529 
Q 2884 3475 3122 3366 
z
" transform="scale(0.015625)"/>
       <path id="DejaVuSans-68" d="M 3513 2113 
L 3513 0 
L 2938 0 
L 2938 2094 
Q 2938 2591 2744 2837 
Q 2550 3084 2163 3084 
Q 1697 3084 1428 2787 
Q 1159 2491 1159 1978 
L 1159 0 
L 581 0 
L 581 4863 
L 1159 4863 
L 1159 2956 
Q 1366 3272 1645 3428 
Q 1925 3584 2291 3584 
Q 2894 3584 3203 3211 
Q 3513 2838 3513 2113 
z
" transform="scale(0.015625)"/>
       <path id="DejaVuSans-73" d="M 2834 3397 
L 2834 2853 
Q 2591 2978 2328 3040 
Q 2066 3103 1784 3103 
Q 1356 3103 1142 2972 
Q 928 2841 928 2578 
Q 928 2378 1081 2264 
Q 1234 2150 1697 2047 
L 1894 2003 
Q 2506 1872 2764 1633 
Q 3022 1394 3022 966 
Q 3022 478 2636 193 
Q 2250 -91 1575 -91 
Q 1294 -91 989 -36 
Q 684 19 347 128 
L 347 722 
Q 666 556 975 473 
Q 1284 391 1588 391 
Q 1994 391 2212 530 
Q 2431 669 2431 922 
Q 2431 1156 2273 1281 
Q 2116 1406 1581 1522 
L 1381 1569 
Q 847 1681 609 1914 
Q 372 2147 372 2553 
Q 372 3047 722 3315 
Q 1072 3584 1716 3584 
Q 2034 3584 2315 3537 
Q 2597 3491 2834 3397 
z
" transform="scale(0.015625)"/>
      </defs>
      <use xlink:href="#DejaVuSans-45"/>
      <use xlink:href="#DejaVuSans-70" transform="translate(63.183594 0)"/>
      <use xlink:href="#DejaVuSans-6f" transform="translate(126.660156 0)"/>
      <use xlink:href="#DejaVuSans-63" transform="translate(187.841797 0)"/>
      <use xlink:href="#DejaVuSans-68" transform="translate(242.822266 0)"/>
      <use xlink:href="#DejaVuSans-73" transform="translate(306.201172 0)"/>
     </g>
    </g>
   </g>
   <g id="matplotlib.axis_2">
    <g id="ytick_1">
     <g id="line2d_19">
      <path d="M 50.14375 563.695803 
L 608.14375 563.695803 
" clip-path="url(#p8026401ea8)" style="fill: none; stroke: #b0b0b0; stroke-width: 0.8; stroke-linecap: square"/>
     </g>
     <g id="line2d_20">
      <defs>
       <path id="m03b9597d65" d="M 0 0 
L -3.5 0 
" style="stroke: #000000; stroke-width: 0.8"/>
      </defs>
      <g>
       <use xlink:href="#m03b9597d65" x="50.14375" y="563.695803" style="stroke: #000000; stroke-width: 0.8"/>
      </g>
     </g>
     <g id="text_11">
      <!-- 0.00 -->
      <g transform="translate(20.878125 567.495022) scale(0.1 -0.1)">
       <defs>
        <path id="DejaVuSans-2e" d="M 684 794 
L 1344 794 
L 1344 0 
L 684 0 
L 684 794 
z
" transform="scale(0.015625)"/>
       </defs>
       <use xlink:href="#DejaVuSans-30"/>
       <use xlink:href="#DejaVuSans-2e" transform="translate(63.623047 0)"/>
       <use xlink:href="#DejaVuSans-30" transform="translate(95.410156 0)"/>
       <use xlink:href="#DejaVuSans-30" transform="translate(159.033203 0)"/>
      </g>
     </g>
    </g>
    <g id="ytick_2">
     <g id="line2d_21">
      <path d="M 50.14375 501.34609 
L 608.14375 501.34609 
" clip-path="url(#p8026401ea8)" style="fill: none; stroke: #b0b0b0; stroke-width: 0.8; stroke-linecap: square"/>
     </g>
     <g id="line2d_22">
      <g>
       <use xlink:href="#m03b9597d65" x="50.14375" y="501.34609" style="stroke: #000000; stroke-width: 0.8"/>
      </g>
     </g>
     <g id="text_12">
      <!-- 0.02 -->
      <g transform="translate(20.878125 505.145309) scale(0.1 -0.1)">
       <use xlink:href="#DejaVuSans-30"/>
       <use xlink:href="#DejaVuSans-2e" transform="translate(63.623047 0)"/>
       <use xlink:href="#DejaVuSans-30" transform="translate(95.410156 0)"/>
       <use xlink:href="#DejaVuSans-32" transform="translate(159.033203 0)"/>
      </g>
     </g>
    </g>
    <g id="ytick_3">
     <g id="line2d_23">
      <path d="M 50.14375 438.996378 
L 608.14375 438.996378 
" clip-path="url(#p8026401ea8)" style="fill: none; stroke: #b0b0b0; stroke-width: 0.8; stroke-linecap: square"/>
     </g>
     <g id="line2d_24">
      <g>
       <use xlink:href="#m03b9597d65" x="50.14375" y="438.996378" style="stroke: #000000; stroke-width: 0.8"/>
      </g>
     </g>
     <g id="text_13">
      <!-- 0.04 -->
      <g transform="translate(20.878125 442.795596) scale(0.1 -0.1)">
       <use xlink:href="#DejaVuSans-30"/>
       <use xlink:href="#DejaVuSans-2e" transform="translate(63.623047 0)"/>
       <use xlink:href="#DejaVuSans-30" transform="translate(95.410156 0)"/>
       <use xlink:href="#DejaVuSans-34" transform="translate(159.033203 0)"/>
      </g>
     </g>
    </g>
    <g id="ytick_4">
     <g id="line2d_25">
      <path d="M 50.14375 376.646665 
L 608.14375 376.646665 
" clip-path="url(#p8026401ea8)" style="fill: none; stroke: #b0b0b0; stroke-width: 0.8; stroke-linecap: square"/>
     </g>
     <g id="line2d_26">
      <g>
       <use xlink:href="#m03b9597d65" x="50.14375" y="376.646665" style="stroke: #000000; stroke-width: 0.8"/>
      </g>
     </g>
     <g id="text_14">
      <!-- 0.06 -->
      <g transform="translate(20.878125 380.445883) scale(0.1 -0.1)">
       <use xlink:href="#DejaVuSans-30"/>
       <use xlink:href="#DejaVuSans-2e" transform="translate(63.623047 0)"/>
       <use xlink:href="#DejaVuSans-30" transform="translate(95.410156 0)"/>
       <use xlink:href="#DejaVuSans-36" transform="translate(159.033203 0)"/>
      </g>
     </g>
    </g>
    <g id="ytick_5">
     <g id="line2d_27">
      <path d="M 50.14375 314.296952 
L 608.14375 314.296952 
" clip-path="url(#p8026401ea8)" style="fill: none; stroke: #b0b0b0; stroke-width: 0.8; stroke-linecap: square"/>
     </g>
     <g id="line2d_28">
      <g>
       <use xlink:href="#m03b9597d65" x="50.14375" y="314.296952" style="stroke: #000000; stroke-width: 0.8"/>
      </g>
     </g>
     <g id="text_15">
      <!-- 0.08 -->
      <g transform="translate(20.878125 318.09617) scale(0.1 -0.1)">
       <use xlink:href="#DejaVuSans-30"/>
       <use xlink:href="#DejaVuSans-2e" transform="translate(63.623047 0)"/>
       <use xlink:href="#DejaVuSans-30" transform="translate(95.410156 0)"/>
       <use xlink:href="#DejaVuSans-38" transform="translate(159.033203 0)"/>
      </g>
     </g>
    </g>
    <g id="ytick_6">
     <g id="line2d_29">
      <path d="M 50.14375 251.947239 
L 608.14375 251.947239 
" clip-path="url(#p8026401ea8)" style="fill: none; stroke: #b0b0b0; stroke-width: 0.8; stroke-linecap: square"/>
     </g>
     <g id="line2d_30">
      <g>
       <use xlink:href="#m03b9597d65" x="50.14375" y="251.947239" style="stroke: #000000; stroke-width: 0.8"/>
      </g>
     </g>
     <g id="text_16">
      <!-- 0.10 -->
      <g transform="translate(20.878125 255.746458) scale(0.1 -0.1)">
       <use xlink:href="#DejaVuSans-30"/>
       <use xlink:href="#DejaVuSans-2e" transform="translate(63.623047 0)"/>
       <use xlink:href="#DejaVuSans-31" transform="translate(95.410156 0)"/>
       <use xlink:href="#DejaVuSans-30" transform="translate(159.033203 0)"/>
      </g>
     </g>
    </g>
    <g id="ytick_7">
     <g id="line2d_31">
      <path d="M 50.14375 189.597526 
L 608.14375 189.597526 
" clip-path="url(#p8026401ea8)" style="fill: none; stroke: #b0b0b0; stroke-width: 0.8; stroke-linecap: square"/>
     </g>
     <g id="line2d_32">
      <g>
       <use xlink:href="#m03b9597d65" x="50.14375" y="189.597526" style="stroke: #000000; stroke-width: 0.8"/>
      </g>
     </g>
     <g id="text_17">
      <!-- 0.12 -->
      <g transform="translate(20.878125 193.396745) scale(0.1 -0.1)">
       <use xlink:href="#DejaVuSans-30"/>
       <use xlink:href="#DejaVuSans-2e" transform="translate(63.623047 0)"/>
       <use xlink:href="#DejaVuSans-31" transform="translate(95.410156 0)"/>
       <use xlink:href="#DejaVuSans-32" transform="translate(159.033203 0)"/>
      </g>
     </g>
    </g>
    <g id="ytick_8">
     <g id="line2d_33">
      <path d="M 50.14375 127.247813 
L 608.14375 127.247813 
" clip-path="url(#p8026401ea8)" style="fill: none; stroke: #b0b0b0; stroke-width: 0.8; stroke-linecap: square"/>
     </g>
     <g id="line2d_34">
      <g>
       <use xlink:href="#m03b9597d65" x="50.14375" y="127.247813" style="stroke: #000000; stroke-width: 0.8"/>
      </g>
     </g>
     <g id="text_18">
      <!-- 0.14 -->
      <g transform="translate(20.878125 131.047032) scale(0.1 -0.1)">
       <use xlink:href="#DejaVuSans-30"/>
       <use xlink:href="#DejaVuSans-2e" transform="translate(63.623047 0)"/>
       <use xlink:href="#DejaVuSans-31" transform="translate(95.410156 0)"/>
       <use xlink:href="#DejaVuSans-34" transform="translate(159.033203 0)"/>
      </g>
     </g>
    </g>
    <g id="ytick_9">
     <g id="line2d_35">
      <path d="M 50.14375 64.8981 
L 608.14375 64.8981 
" clip-path="url(#p8026401ea8)" style="fill: none; stroke: #b0b0b0; stroke-width: 0.8; stroke-linecap: square"/>
     </g>
     <g id="line2d_36">
      <g>
       <use xlink:href="#m03b9597d65" x="50.14375" y="64.8981" style="stroke: #000000; stroke-width: 0.8"/>
      </g>
     </g>
     <g id="text_19">
      <!-- 0.16 -->
      <g transform="translate(20.878125 68.697319) scale(0.1 -0.1)">
       <use xlink:href="#DejaVuSans-30"/>
       <use xlink:href="#DejaVuSans-2e" transform="translate(63.623047 0)"/>
       <use xlink:href="#DejaVuSans-31" transform="translate(95.410156 0)"/>
       <use xlink:href="#DejaVuSans-36" transform="translate(159.033203 0)"/>
      </g>
     </g>
    </g>
    <g id="text_20">
     <!-- Accuracy -->
     <g transform="translate(14.798437 322.34625) rotate(-90) scale(0.1 -0.1)">
      <defs>
       <path id="DejaVuSans-41" d="M 2188 4044 
L 1331 1722 
L 3047 1722 
L 2188 4044 
z
M 1831 4666 
L 2547 4666 
L 4325 0 
L 3669 0 
L 3244 1197 
L 1141 1197 
L 716 0 
L 50 0 
L 1831 4666 
z
" transform="scale(0.015625)"/>
       <path id="DejaVuSans-75" d="M 544 1381 
L 544 3500 
L 1119 3500 
L 1119 1403 
Q 1119 906 1312 657 
Q 1506 409 1894 409 
Q 2359 409 2629 706 
Q 2900 1003 2900 1516 
L 2900 3500 
L 3475 3500 
L 3475 0 
L 2900 0 
L 2900 538 
Q 2691 219 2414 64 
Q 2138 -91 1772 -91 
Q 1169 -91 856 284 
Q 544 659 544 1381 
z
M 1991 3584 
L 1991 3584 
z
" transform="scale(0.015625)"/>
       <path id="DejaVuSans-72" d="M 2631 2963 
Q 2534 3019 2420 3045 
Q 2306 3072 2169 3072 
Q 1681 3072 1420 2755 
Q 1159 2438 1159 1844 
L 1159 0 
L 581 0 
L 581 3500 
L 1159 3500 
L 1159 2956 
Q 1341 3275 1631 3429 
Q 1922 3584 2338 3584 
Q 2397 3584 2469 3576 
Q 2541 3569 2628 3553 
L 2631 2963 
z
" transform="scale(0.015625)"/>
       <path id="DejaVuSans-61" d="M 2194 1759 
Q 1497 1759 1228 1600 
Q 959 1441 959 1056 
Q 959 750 1161 570 
Q 1363 391 1709 391 
Q 2188 391 2477 730 
Q 2766 1069 2766 1631 
L 2766 1759 
L 2194 1759 
z
M 3341 1997 
L 3341 0 
L 2766 0 
L 2766 531 
Q 2569 213 2275 61 
Q 1981 -91 1556 -91 
Q 1019 -91 701 211 
Q 384 513 384 1019 
Q 384 1609 779 1909 
Q 1175 2209 1959 2209 
L 2766 2209 
L 2766 2266 
Q 2766 2663 2505 2880 
Q 2244 3097 1772 3097 
Q 1472 3097 1187 3025 
Q 903 2953 641 2809 
L 641 3341 
Q 956 3463 1253 3523 
Q 1550 3584 1831 3584 
Q 2591 3584 2966 3190 
Q 3341 2797 3341 1997 
z
" transform="scale(0.015625)"/>
       <path id="DejaVuSans-79" d="M 2059 -325 
Q 1816 -950 1584 -1140 
Q 1353 -1331 966 -1331 
L 506 -1331 
L 506 -850 
L 844 -850 
Q 1081 -850 1212 -737 
Q 1344 -625 1503 -206 
L 1606 56 
L 191 3500 
L 800 3500 
L 1894 763 
L 2988 3500 
L 3597 3500 
L 2059 -325 
z
" transform="scale(0.015625)"/>
      </defs>
      <use xlink:href="#DejaVuSans-41"/>
      <use xlink:href="#DejaVuSans-63" transform="translate(66.658203 0)"/>
      <use xlink:href="#DejaVuSans-63" transform="translate(121.638672 0)"/>
      <use xlink:href="#DejaVuSans-75" transform="translate(176.619141 0)"/>
      <use xlink:href="#DejaVuSans-72" transform="translate(239.998047 0)"/>
      <use xlink:href="#DejaVuSans-61" transform="translate(281.111328 0)"/>
      <use xlink:href="#DejaVuSans-63" transform="translate(342.390625 0)"/>
      <use xlink:href="#DejaVuSans-79" transform="translate(397.371094 0)"/>
     </g>
    </g>
   </g>
   <g id="line2d_37">
    <path d="M 75.507386 219.473433 
L 76.142271 105.702513 
L 76.777155 139.44932 
L 77.41204 183.267296 
L 79.316693 254.32866 
L 79.951578 269.647638 
L 80.586462 277.441345 
L 81.221347 274.098713 
L 81.856232 269.387843 
L 82.491116 266.660032 
L 83.126001 264.633678 
L 83.760885 266.668696 
L 84.39577 267.898384 
L 85.030654 273.21541 
L 85.665539 275.059942 
L 86.300423 274.843443 
L 86.935308 273.379951 
L 88.205077 279.900697 
L 88.839961 276.523411 
L 89.474846 274.358508 
L 90.10973 277.380722 
L 90.744615 274.670238 
L 91.379499 274.973328 
L 92.014384 276.921755 
L 92.649268 272.574598 
L 93.284153 271.388229 
L 93.919037 273.163451 
L 95.188806 272.392754 
L 95.823691 268.677745 
L 96.458575 269.249294 
L 97.09346 269.02413 
L 97.728344 266.339638 
L 98.363229 268.426614 
L 98.998113 264.954073 
L 99.632998 264.22667 
L 100.267882 264.44317 
L 100.902767 261.74999 
L 101.537651 258.554571 
L 102.80742 261.853908 
L 103.442305 261.213096 
L 104.07719 259.26467 
L 104.712074 261.117842 
L 105.981843 256.874603 
L 106.616728 257.610669 
L 107.251612 257.082439 
L 107.886497 253.973611 
L 108.521381 254.120824 
L 109.156266 254.649054 
L 109.79115 251.029323 
L 110.426035 255.757497 
L 111.060919 253.748448 
L 111.695804 250.094062 
L 112.330688 251.193841 
L 112.965573 251.938571 
L 113.600457 247.556782 
L 114.235342 251.869307 
L 114.870226 248.336144 
L 115.505111 249.825626 
L 116.139995 250.726233 
L 116.77488 249.323364 
L 117.409764 249.167487 
L 118.044649 251.436308 
L 118.679533 247.184406 
L 119.314418 250.163348 
L 119.949302 251.722094 
L 121.219071 247.747291 
L 121.853956 252.051152 
L 122.48884 246.024027 
L 123.123725 248.604602 
L 123.758609 250.457775 
L 124.393494 250.414479 
L 125.028379 247.946463 
L 125.663263 247.652036 
L 126.298148 250.994669 
L 126.933032 249.323364 
L 127.567917 251.02066 
L 128.202801 248.691193 
L 128.837686 248.665225 
L 129.47257 249.600463 
L 130.107455 252.042488 
L 130.742339 248.093676 
L 131.377224 252.362906 
L 132.012108 250.908078 
L 133.281877 250.397152 
L 133.916762 248.795111 
L 134.551646 253.869693 
L 135.186531 248.829742 
L 135.821415 252.423529 
L 136.4563 250.899414 
L 137.091184 251.531586 
L 137.726069 250.033439 
L 138.360953 250.66561 
L 138.995838 247.738627 
L 139.630722 250.414479 
L 140.265607 247.738627 
L 140.900491 247.929136 
L 141.535376 249.643758 
L 142.17026 246.855348 
L 142.805145 245.911446 
L 143.440029 246.084627 
L 144.074914 244.404659 
L 144.709798 244.170855 
L 145.344683 243.573315 
L 145.979567 243.963019 
L 146.614452 240.507805 
L 147.249337 242.759322 
L 147.884221 240.516469 
L 148.519106 239.070281 
L 149.15399 238.238961 
L 149.788875 239.892961 
L 150.423759 237.875248 
L 151.058644 238.663297 
L 151.693528 235.095501 
L 152.328413 237.918544 
L 152.963297 237.857944 
L 153.598182 236.914019 
L 154.233066 235.06087 
L 154.867951 234.446026 
L 155.502835 236.004772 
L 156.13772 235.28601 
L 156.772604 233.043157 
L 157.407489 233.441501 
L 158.042373 235.008911 
L 158.677258 232.376354 
L 159.312142 233.822518 
L 159.947027 234.610566 
L 160.581911 230.18546 
L 161.216796 232.991198 
L 161.85168 228.263001 
L 162.486565 233.225001 
L 163.121449 229.717829 
L 163.756334 232.991198 
L 164.391218 232.133886 
L 165.026103 231.493074 
L 165.660987 228.912476 
L 166.295872 233.164379 
L 166.930756 229.198262 
L 167.565641 228.280328 
L 168.200526 232.350386 
L 168.83541 227.024672 
L 170.740064 229.146303 
L 171.374948 231.874091 
L 172.009833 227.500967 
L 172.644717 227.232508 
L 173.279602 229.284853 
L 173.914486 227.691475 
L 174.549371 227.319099 
L 175.184255 228.713304 
L 175.81914 226.808173 
L 176.454024 227.310435 
L 177.088909 229.52732 
L 177.723793 230.71369 
L 178.358678 224.980991 
L 178.993562 225.950861 
L 179.628447 229.328148 
L 180.263331 226.678287 
L 180.898216 228.141779 
L 181.5331 227.769402 
L 182.167985 224.56532 
L 182.802869 227.293131 
L 183.437754 225.942221 
L 184.072638 225.102214 
L 184.707523 225.543876 
L 185.342407 225.024287 
L 185.977292 226.409828 
L 186.612176 224.937696 
L 187.247061 222.443712 
L 187.881945 228.83455 
L 188.51683 226.08077 
L 189.151715 225.656435 
L 189.786599 226.626328 
L 190.421484 225.041614 
L 191.056368 226.167361 
L 191.691253 226.011484 
L 192.326137 226.046139 
L 192.961022 222.487007 
L 193.595906 225.084909 
L 194.230791 224.963664 
L 194.865675 225.318713 
L 195.50056 225.292745 
L 196.135444 223.716672 
L 196.770329 226.790869 
L 197.405213 223.448213 
L 198.040098 224.764492 
L 198.674982 225.820975 
L 199.309867 222.625557 
L 199.944751 228.081156 
L 200.579636 226.990041 
L 201.21452 224.851082 
L 201.849405 226.704255 
L 202.484289 224.859746 
L 203.119174 223.924508 
L 203.754058 225.362008 
L 204.388943 221.42186 
L 205.023827 228.211042 
L 205.658712 223.275032 
L 206.928481 226.461787 
L 207.563365 223.759967 
L 208.19825 226.427156 
L 208.833134 222.409057 
L 209.468019 222.538966 
L 210.102903 222.980606 
L 210.737788 225.249427 
L 211.372673 224.712533 
L 212.007557 224.331516 
L 212.642442 222.010713 
L 213.912211 224.366147 
L 215.18198 224.158312 
L 215.816864 224.279557 
L 216.451749 224.227598 
L 217.086633 225.232123 
L 217.721518 224.955 
L 218.356402 224.487393 
L 218.991287 222.99791 
L 219.626171 226.8255 
L 220.261056 225.015623 
L 220.89594 225.327377 
L 221.530825 225.483254 
L 222.165709 223.872549 
L 222.800594 226.011484 
L 223.435478 226.115402 
L 224.070363 228.462173 
L 224.705247 225.301386 
L 225.340132 224.452738 
L 225.975016 225.006959 
L 226.609901 227.405689 
L 227.244785 224.244925 
L 227.87967 227.171886 
L 229.149439 223.777295 
L 229.784323 227.639516 
L 230.419208 226.020148 
L 231.054092 224.773156 
L 231.688977 226.496442 
L 232.323862 226.453124 
L 232.958746 225.578508 
L 234.228515 227.881984 
L 234.8634 225.924893 
L 235.498284 225.206132 
L 236.133169 227.604862 
L 236.768053 226.756214 
L 238.037822 226.972713 
L 238.672707 224.86841 
L 239.307591 226.401165 
L 239.942476 225.25809 
L 240.57736 225.232123 
L 241.212245 228.531459 
L 241.847129 228.263001 
L 243.116898 226.150057 
L 243.751783 226.453124 
L 244.386667 227.994565 
L 245.021552 224.781819 
L 245.656436 228.063829 
L 246.291321 227.258476 
L 246.926205 226.011484 
L 247.56109 228.860517 
L 248.195974 224.755828 
L 248.830859 229.310821 
L 249.465743 227.336426 
L 250.100628 226.401165 
L 250.735512 228.713304 
L 251.370397 229.05969 
L 252.005281 229.016394 
L 252.640166 228.730632 
L 253.27505 229.579279 
L 253.909935 229.293517 
L 254.54482 227.163222 
L 255.814589 228.08982 
L 256.449473 229.691861 
L 257.084358 227.093959 
L 257.719242 228.159083 
L 258.354127 228.730632 
L 258.989011 229.839074 
L 260.25878 226.00282 
L 260.893665 229.873706 
L 262.163434 225.552517 
L 262.798318 229.180935 
L 263.433203 229.077017 
L 264.068087 229.215567 
L 264.702972 229.700525 
L 265.337856 229.761124 
L 265.972741 229.683197 
L 266.607625 227.119927 
L 267.24251 233.424174 
L 267.877394 228.418878 
L 268.512279 230.852263 
L 269.147163 228.730632 
L 269.782048 233.571387 
L 270.416932 231.605656 
L 271.051817 231.423788 
L 271.686701 229.908337 
L 272.321586 229.986287 
L 272.95647 230.722354 
L 273.591355 231.163993 
L 274.226239 228.696 
L 274.861124 231.571001 
L 275.496009 230.609772 
L 276.130893 233.147075 
L 276.765778 231.813469 
L 277.400662 231.960682 
L 278.035547 234.116945 
L 278.670431 233.225001 
L 279.305316 232.714075 
L 279.9402 234.965592 
L 280.575085 232.610158 
L 281.209969 234.688493 
L 281.844854 233.614682 
L 282.479738 233.987059 
L 283.114623 231.804828 
L 283.749507 232.618821 
L 284.384392 234.272821 
L 285.019276 236.49837 
L 285.654161 233.311592 
L 286.289045 236.957337 
L 286.92393 236.550329 
L 287.558814 235.199419 
L 288.193699 235.476518 
L 288.828583 237.883912 
L 289.463468 234.879002 
L 290.098352 235.658386 
L 290.733237 238.836478 
L 291.368121 236.307862 
L 292.003006 236.879387 
L 292.63789 239.001018 
L 293.272775 236.013412 
L 294.542544 238.126379 
L 295.177428 239.633167 
L 295.812313 238.394838 
L 296.447197 237.54619 
L 297.716967 239.728421 
L 298.351851 235.337969 
L 298.986736 238.949059 
L 299.62162 239.55524 
L 300.256505 238.51606 
L 300.891389 239.962248 
L 301.526274 238.827814 
L 302.796043 240.282642 
L 303.430927 240.230683 
L 304.065812 240.343265 
L 304.700696 240.152756 
L 305.335581 240.178724 
L 305.970465 238.992355 
L 306.60535 241.754797 
L 307.240234 239.875634 
L 307.875119 242.4822 
L 308.510003 241.269839 
L 309.144888 241.720143 
L 309.779772 238.152371 
L 310.414657 243.123012 
L 311.049541 241.867379 
L 311.684426 238.472765 
L 312.31931 241.798093 
L 312.954195 242.023233 
L 313.589079 243.902396 
L 314.223964 243.729192 
L 314.858848 241.13129 
L 315.493733 243.019117 
L 316.763502 241.65088 
L 317.398386 245.253306 
L 318.033271 243.452093 
L 318.668156 243.772487 
L 319.30304 241.754797 
L 320.572809 246.560921 
L 321.207694 245.582364 
L 321.842578 244.828971 
L 322.477463 246.171241 
L 323.112347 244.681758 
L 323.747232 245.452479 
L 325.017001 245.357224 
L 325.651885 245.911446 
L 326.28677 244.967544 
L 326.921654 246.907307 
L 327.556539 246.638848 
L 328.191423 245.816191 
L 328.826308 246.387717 
L 329.461192 250.120053 
L 330.096077 245.383192 
L 330.730961 245.56506 
L 331.365846 246.145249 
L 332.00073 248.526675 
L 332.635615 249.115528 
L 333.270499 246.205872 
L 333.905384 247.981094 
L 334.540268 246.855348 
L 335.175153 248.665225 
L 335.810037 247.591414 
L 337.079806 248.483357 
L 337.714691 250.682915 
L 338.98446 247.851209 
L 339.619344 249.505209 
L 340.254229 249.115528 
L 340.889114 250.960037 
L 341.523998 249.565832 
L 342.158883 248.777806 
L 342.793767 252.051152 
L 343.428652 250.899414 
L 344.063536 247.851209 
L 344.698421 249.704381 
L 345.333305 250.353857 
L 345.96819 251.289095 
L 346.603074 251.341054 
L 347.237959 251.903939 
L 347.872843 251.263127 
L 348.507728 249.565832 
L 349.142612 252.614037 
L 349.777497 250.241275 
L 350.412381 252.380233 
L 351.047266 249.072233 
L 351.68215 249.600463 
L 352.317035 250.795496 
L 352.951919 255.064726 
L 353.586804 250.760865 
L 354.856573 254.172783 
L 355.491457 252.198365 
L 356.126342 252.492792 
L 356.761226 251.609512 
L 357.396111 251.696103 
L 358.030995 254.086169 
L 358.66588 254.649054 
L 359.300764 251.228496 
L 359.935649 254.744309 
L 360.570533 253.982275 
L 361.205418 252.406201 
L 362.475187 255.099358 
L 363.110072 255.774824 
L 363.744956 253.185563 
L 364.379841 254.63175 
L 365.014725 254.38926 
L 365.64961 255.939342 
L 366.284494 255.090694 
L 366.919379 253.332799 
L 368.189148 256.519554 
L 368.824032 253.973611 
L 369.458917 253.185563 
L 370.093801 254.475873 
L 370.728686 251.375709 
L 371.36357 255.688211 
L 371.998455 252.969086 
L 372.633339 255.454407 
L 373.268224 253.72248 
L 373.903108 255.549661 
L 374.537993 256.069251 
L 375.172877 254.761636 
L 375.807762 254.319996 
L 376.442646 255.082054 
L 377.077531 256.805317 
L 377.712415 253.445358 
L 378.3473 255.281226 
L 378.982184 255.722865 
L 380.251953 254.441218 
L 380.886838 255.887383 
L 381.521722 255.428439 
L 382.156607 257.065112 
L 382.791491 255.315857 
L 383.426376 254.311333 
L 384.061261 256.320382 
L 384.696145 254.588432 
L 385.33103 254.519169 
L 385.965914 254.93484 
L 386.600799 256.484923 
L 387.235683 259.818891 
L 387.870568 255.220603 
L 388.505452 253.956284 
L 389.140337 258.918284 
L 389.775221 256.666767 
L 390.410106 256.623472 
L 391.04499 257.47212 
L 391.679875 257.177693 
L 392.314759 255.809456 
L 392.949644 256.64944 
L 393.584528 257.879128 
L 394.219413 257.541383 
L 394.854297 256.86594 
L 395.489182 255.185972 
L 396.124066 258.554571 
L 396.758951 257.532743 
L 397.393835 257.619333 
L 398.02872 256.839949 
L 398.663604 258.121595 
L 399.298489 255.991301 
L 399.933373 257.09108 
L 400.568258 253.670521 
L 401.203142 258.043645 
L 401.838027 255.211939 
L 402.472911 257.454793 
L 403.107796 257.610669 
L 403.74268 254.85689 
L 404.377565 256.181832 
L 405.01245 256.381005 
L 406.282219 259.35126 
L 406.917103 256.432964 
L 407.551988 256.597481 
L 408.186872 257.359538 
L 408.821757 254.986776 
L 409.456641 258.563235 
L 410.091526 256.112546 
L 410.72641 258.597867 
L 411.361295 257.723251 
L 411.996179 253.393399 
L 412.631064 258.771071 
L 413.265948 255.549661 
L 414.535717 258.312104 
L 415.805486 255.471734 
L 417.075255 259.455178 
L 417.71014 256.770685 
L 418.345024 257.705924 
L 418.979909 255.913374 
L 419.614793 255.999964 
L 420.249678 258.234177 
L 420.884562 255.237907 
L 421.519447 258.970243 
L 422.154331 255.341825 
L 422.789216 259.602391 
L 423.4241 255.991301 
L 424.058985 257.177693 
L 424.693869 256.588817 
L 425.328754 256.710063 
L 425.963638 258.026341 
L 426.598523 258.563235 
L 427.233408 259.766932 
L 428.503177 257.359538 
L 429.138061 258.294777 
L 430.40783 257.056448 
L 431.042715 257.801178 
L 431.677599 259.437874 
L 432.312484 257.359538 
L 432.947368 258.805703 
L 433.582253 259.307965 
L 434.217137 258.30344 
L 434.852022 259.663014 
L 435.486906 259.281997 
L 436.121791 255.81812 
L 436.756675 259.637046 
L 438.026444 260.676202 
L 439.296213 257.896432 
L 439.931098 257.671292 
L 440.565982 261.334342 
L 441.200867 259.95744 
L 441.835751 259.091465 
L 442.470636 259.680341 
L 443.10552 260.754129 
L 443.740405 258.069636 
L 444.375289 260.364449 
L 445.010174 260.806088 
L 445.645058 260.303826 
L 446.279943 260.156613 
L 446.914827 261.810613 
L 447.549712 257.801178 
L 448.184597 261.758654 
L 448.819481 258.952916 
L 449.454366 259.152088 
L 450.08925 259.940136 
L 450.724135 259.671678 
L 451.359019 259.576423 
L 451.993904 260.182604 
L 452.628788 261.801949 
L 453.263673 258.182218 
L 453.898557 261.845244 
L 454.533442 258.710448 
L 455.168326 258.44199 
L 455.803211 259.888177 
L 456.438095 261.957826 
L 457.07298 260.927334 
L 457.707864 261.299687 
L 458.342749 259.680341 
L 458.977633 261.308351 
L 459.612518 260.511662 
L 460.247402 259.507137 
L 460.882287 260.641571 
L 461.517171 261.533514 
L 462.152056 260.277858 
L 462.78694 262.962351 
L 463.421825 260.875375 
L 464.056709 261.585473 
L 464.691594 260.684866 
L 465.326478 261.810613 
L 465.961363 259.074161 
L 466.596247 261.6634 
L 467.231132 259.896818 
L 467.866016 263.672449 
L 468.500901 260.208572 
L 469.135785 260.987956 
L 470.405555 261.914531 
L 471.040439 261.983817 
L 471.675324 260.589612 
L 472.310208 263.862958 
L 472.945093 261.299687 
L 473.579977 261.368973 
L 474.214862 261.256392 
L 474.849746 263.611826 
L 475.484631 260.442399 
L 476.119515 264.131416 
L 476.7544 263.360695 
L 477.389284 260.130645 
L 478.024169 262.156998 
L 478.659053 262.858433 
L 479.293938 259.983432 
L 479.928822 266.270351 
L 480.563707 263.066269 
L 481.198591 260.910006 
L 481.833476 263.733072 
L 482.46836 260.130645 
L 483.103245 263.733072 
L 483.738129 263.334727 
L 484.373014 262.122367 
L 485.007898 260.121981 
L 485.642783 263.819662 
L 486.277667 261.732686 
L 486.912552 263.862958 
L 487.547436 264.192039 
L 488.182321 262.893088 
L 488.817205 262.737211 
L 489.45209 263.109564 
L 490.086974 262.503384 
L 490.721859 262.079071 
L 491.356744 262.823801 
L 491.991628 266.703327 
L 492.626513 262.364834 
L 493.261397 260.442399 
L 493.896282 262.442784 
L 494.531166 262.927719 
L 495.166051 264.902114 
L 495.800935 261.516186 
L 496.43582 264.036162 
L 497.070704 262.884424 
L 497.705589 263.681113 
L 498.340473 263.819662 
L 498.975358 264.417179 
L 499.610242 264.685637 
L 500.245127 262.234948 
L 500.880011 261.013924 
L 501.514896 265.309122 
L 502.14978 261.957826 
L 502.784665 264.824187 
L 503.419549 264.780892 
L 504.054434 262.633293 
L 504.689318 264.573056 
L 505.324203 264.010171 
L 505.959087 265.127277 
L 506.593972 263.715744 
L 507.228856 264.893473 
L 507.863741 266.772614 
L 508.498625 263.603163 
L 509.13351 264.373884 
L 509.768394 261.732686 
L 510.403279 264.295957 
L 511.038163 264.910777 
L 511.673048 266.40026 
L 512.307933 264.945432 
L 512.942817 262.182989 
L 513.577702 261.559482 
L 514.212586 266.131802 
L 514.847471 265.361081 
L 515.482355 263.222146 
L 516.11724 266.062515 
L 516.752124 265.594908 
L 517.387009 262.78917 
L 518.656778 264.564392 
L 519.291662 262.893088 
L 519.926547 264.391211 
L 520.561431 264.832851 
L 521.196316 266.504155 
L 521.8312 265.854679 
L 522.466085 261.992481 
L 523.100969 264.131416 
L 523.735854 262.927719 
L 524.370738 264.962736 
L 525.005623 265.941293 
L 525.640507 263.940908 
L 526.275392 262.555343 
L 526.910276 265.79408 
L 527.545161 263.17885 
L 528.180045 263.438645 
L 528.81493 262.208957 
L 529.449814 266.599432 
L 530.084699 264.538424 
L 530.719583 265.456335 
L 531.354468 266.893859 
L 531.989352 266.374269 
L 532.624237 266.512819 
L 533.259121 264.616351 
L 533.894006 265.395736 
L 534.528891 264.74626 
L 535.163775 267.733843 
L 535.79866 266.417564 
L 536.433544 262.05308 
L 537.068429 265.309122 
L 537.703313 266.660032 
L 538.338198 267.162294 
L 538.973082 266.530146 
L 539.607967 261.975154 
L 540.242851 264.131416 
L 540.877736 263.282768 
L 541.51262 265.785416 
L 542.147505 264.538424 
L 542.782389 262.815138 
L 543.417274 264.122752 
L 544.052158 266.218392 
L 544.687043 265.698826 
L 545.321927 268.106196 
L 545.956812 264.417179 
L 546.591696 267.101672 
L 547.226581 265.352417 
L 547.861465 265.629539 
L 548.49635 266.166433 
L 549.131234 265.49963 
L 549.766119 266.105811 
L 551.035888 264.564392 
L 551.670772 266.608073 
L 552.305657 262.780506 
L 552.940541 264.408515 
L 553.575426 267.500039 
L 554.21031 262.702556 
L 554.845195 262.174326 
L 555.48008 262.962351 
L 556.114964 266.989113 
L 556.749849 267.716516 
L 557.384733 265.170572 
L 558.019618 263.352031 
L 558.654502 264.209343 
L 559.289387 266.209729 
L 559.924271 265.776753 
L 560.559156 264.096785 
L 561.19404 264.521097 
L 561.828925 266.09717 
L 562.463809 264.434506 
L 563.098694 266.530146 
L 563.733578 265.196563 
L 564.368463 266.365605 
L 565.003347 268.270737 
L 565.638232 267.318171 
L 566.273116 264.287293 
L 566.908001 267.50868 
L 567.542885 265.309122 
L 568.17777 264.304597 
L 568.812654 266.876532 
L 569.447539 264.088121 
L 570.082423 264.44317 
L 571.352192 266.045211 
L 571.987077 263.862958 
L 572.621961 268.478573 
L 573.256846 262.832465 
L 573.89173 267.44808 
L 574.526615 265.092645 
L 575.161499 264.737596 
L 575.796384 266.166433 
L 576.431268 266.209729 
L 577.066153 264.295957 
L 577.701038 266.027884 
L 578.335922 265.032023 
L 578.970807 265.49099 
L 579.605691 263.421318 
L 580.240576 265.629539 
L 580.87546 265.655507 
L 581.510345 268.296728 
L 582.145229 264.347892 
L 582.780114 265.923966 
L 582.780114 265.923966 
" clip-path="url(#p8026401ea8)" style="fill: none; stroke: #1f77b4; stroke-width: 1.5; stroke-linecap: square"/>
   </g>
   <g id="line2d_38">
    <path d="M 75.507386 47.518125 
L 76.142271 126.780204 
L 76.777155 144.393994 
L 77.41204 247.738627 
L 78.046924 180.556812 
L 78.681809 290.681987 
L 79.316693 206.743694 
L 79.951578 200.898414 
L 80.586462 306.737054 
L 81.221347 154.681685 
L 81.856232 275.640131 
L 82.491116 279.225231 
L 83.126001 234.723125 
L 84.39577 269.638974 
L 85.030654 281.329534 
L 85.665539 304.398924 
L 86.300423 256.545522 
L 86.935308 297.774282 
L 87.570192 230.670395 
L 88.205077 295.514102 
L 88.839961 284.291149 
L 89.474846 319.674607 
L 90.10973 300.735897 
L 90.744615 338.223658 
L 91.379499 260.910006 
L 92.014384 266.209729 
L 92.649268 256.467595 
L 93.284153 265.27449 
L 93.919037 276.419493 
L 94.553922 350.148045 
L 95.188806 288.889437 
L 95.823691 244.699085 
L 96.458575 295.981733 
L 97.09346 219.993 
L 97.728344 258.649826 
L 98.363229 350.303922 
L 98.998113 267.14499 
L 99.632998 247.58275 
L 100.267882 219.135711 
L 100.902767 209.783236 
L 101.537651 264.962736 
L 102.172536 302.762251 
L 102.80742 323.025902 
L 103.442305 222.487007 
L 104.07719 275.796008 
L 104.712074 268.547859 
L 105.346959 322.168614 
L 105.981843 232.307091 
L 106.616728 167.54131 
L 107.251612 218.668081 
L 107.886497 260.130645 
L 108.521381 251.011996 
L 109.156266 201.677775 
L 110.426035 283.979396 
L 111.060919 233.320256 
L 111.695804 276.029812 
L 112.330688 291.539299 
L 112.965573 273.691705 
L 113.600457 223.188442 
L 114.235342 334.872362 
L 114.870226 334.015051 
L 116.139995 181.18032 
L 116.77488 242.049224 
L 117.409764 318.583491 
L 118.044649 159.202046 
L 118.679533 233.865813 
L 119.314418 244.854962 
L 119.949302 204.795267 
L 120.584187 269.483097 
L 121.219071 310.555958 
L 121.853956 237.840617 
L 122.48884 305.95767 
L 123.123725 315.93363 
L 123.758609 262.390825 
L 124.393494 247.738627 
L 125.663263 210.640547 
L 126.298148 265.352417 
L 126.933032 283.511788 
L 127.567917 216.641704 
L 128.202801 217.421089 
L 128.837686 210.094989 
L 130.107455 281.095731 
L 130.742339 249.141496 
L 131.377224 283.200034 
L 132.012108 271.431524 
L 132.646993 287.564518 
L 133.281877 333.391543 
L 133.916762 316.01158 
L 134.551646 198.248552 
L 135.186531 340.951446 
L 135.821415 349.056907 
L 136.4563 228.721968 
L 137.091184 187.103527 
L 137.726069 268.002278 
L 138.360953 254.129488 
L 138.995838 249.531177 
L 139.630722 295.981733 
L 140.265607 121.636335 
L 140.900491 260.520325 
L 141.535376 249.141496 
L 142.17026 364.176713 
L 143.440029 228.877845 
L 144.074914 239.866994 
L 144.709798 320.220164 
L 145.344683 362.773844 
L 145.979567 248.595938 
L 146.614452 357.474121 
L 147.249337 235.346632 
L 147.884221 264.105425 
L 148.519106 140.808894 
L 149.15399 235.268682 
L 149.788875 217.265212 
L 150.423759 301.437332 
L 151.058644 182.583189 
L 151.693528 230.904222 
L 152.328413 337.366347 
L 152.963297 245.166716 
L 153.598182 263.40399 
L 154.233066 317.72618 
L 154.867951 271.743278 
L 155.502835 103.632841 
L 156.13772 125.766992 
L 156.772604 213.134531 
L 157.407489 271.977082 
L 158.042373 202.223333 
L 158.677258 244.075577 
L 159.312142 308.529604 
L 159.947027 171.594064 
L 160.581911 241.73747 
L 161.216796 215.550589 
L 161.85168 273.379951 
L 162.486565 263.637817 
L 163.121449 239.789043 
L 163.756334 290.058503 
L 164.391218 217.732842 
L 165.026103 173.54249 
L 165.660987 217.265212 
L 166.295872 206.587817 
L 166.930756 216.641704 
L 167.565641 107.607644 
L 168.83541 294.111233 
L 169.470295 206.899571 
L 170.105179 173.698344 
L 170.740064 59.754243 
L 171.374948 223.578122 
L 172.009833 201.989529 
L 172.644717 324.350845 
L 173.279602 191.468011 
L 173.914486 244.465281 
L 174.549371 349.290734 
L 175.184255 174.555655 
L 175.81914 255.610284 
L 176.454024 119.999662 
L 177.088909 233.865813 
L 177.723793 167.775114 
L 178.358678 72.22421 
L 178.993562 272.210886 
L 179.628447 251.557554 
L 180.263331 290.448183 
L 180.898216 107.919398 
L 181.5331 269.483097 
L 182.167985 238.542051 
L 182.802869 179.621574 
L 183.437754 227.864656 
L 184.072638 186.324165 
L 184.707523 278.212066 
L 185.342407 226.617664 
L 185.977292 220.53858 
L 186.612176 346.952603 
L 187.247061 226.773541 
L 187.881945 185.466854 
L 188.51683 255.220603 
L 189.151715 311.725023 
L 189.786599 346.796749 
L 190.421484 303.697489 
L 191.056368 195.910445 
L 191.691253 195.910445 
L 192.326137 168.086868 
L 192.961022 300.034463 
L 193.595906 203.470348 
L 194.865675 286.239576 
L 195.50056 144.00429 
L 196.135444 184.765419 
L 196.770329 320.687795 
L 197.405213 183.206673 
L 198.040098 318.973172 
L 198.674982 223.500172 
L 199.309867 238.464124 
L 199.944751 302.528447 
L 200.579636 298.709521 
L 201.21452 136.054729 
L 201.849405 247.738627 
L 202.484289 243.919724 
L 203.119174 326.844829 
L 203.754058 302.216693 
L 204.388943 246.024027 
L 205.023827 223.733999 
L 205.658712 270.963893 
L 206.293596 238.931732 
L 206.928481 271.19772 
L 207.563365 277.198877 
L 208.19825 181.803804 
L 208.833134 276.731247 
L 209.468019 236.281871 
L 210.102903 215.238835 
L 210.737788 209.393555 
L 212.007557 165.904637 
L 212.642442 200.742537 
L 213.277326 257.09108 
L 213.912211 273.769631 
L 214.547095 158.422684 
L 215.18198 247.738627 
L 215.816864 221.551746 
L 216.451749 186.557969 
L 217.086633 293.721552 
L 217.721518 222.798738 
L 218.356402 276.185689 
L 218.991287 352.408202 
L 219.626171 223.110492 
L 220.261056 197.547118 
L 220.89594 314.998392 
L 221.530825 233.398206 
L 222.165709 228.488164 
L 222.800594 119.999662 
L 223.435478 265.040687 
L 224.070363 263.326064 
L 224.705247 259.195383 
L 225.975016 177.51727 
L 226.609901 194.975184 
L 227.244785 228.410214 
L 227.87967 273.457901 
L 228.514554 206.665767 
L 229.149439 243.53002 
L 229.784323 247.115143 
L 230.419208 231.215952 
L 231.054092 261.065883 
L 231.688977 168.242768 
L 232.323862 239.087609 
L 232.958746 203.704152 
L 233.593631 207.912759 
L 234.228515 271.509451 
L 234.8634 135.976779 
L 235.498284 253.973611 
L 236.133169 214.381547 
L 236.768053 300.813824 
L 237.402938 226.227984 
L 238.037822 190.143092 
L 239.307591 256.779349 
L 239.942476 142.289667 
L 240.57736 242.205101 
L 241.212245 234.801075 
L 241.847129 194.975184 
L 242.482014 236.593625 
L 243.116898 216.797581 
L 243.751783 229.813083 
L 244.386667 222.409057 
L 245.021552 155.69485 
L 245.656436 138.860468 
L 246.291321 307.282612 
L 247.56109 146.810028 
L 248.195974 268.703713 
L 248.830859 291.695175 
L 249.465743 152.031847 
L 250.100628 270.106582 
L 250.735512 201.210167 
L 251.370397 272.756466 
L 252.005281 244.465281 
L 252.640166 243.60797 
L 253.27505 244.075577 
L 253.909935 135.820879 
L 254.54482 264.027498 
L 255.179704 177.51727 
L 255.814589 203.626202 
L 256.449473 172.373425 
L 257.084358 223.422245 
L 257.719242 226.072107 
L 258.354127 263.09226 
L 258.989011 272.132959 
L 259.623896 136.600287 
L 260.25878 195.988372 
L 260.893665 217.732842 
L 261.528549 232.307091 
L 262.163434 229.891033 
L 262.798318 215.005031 
L 263.433203 249.375323 
L 264.068087 218.356327 
L 264.702972 249.45325 
L 265.337856 198.872037 
L 266.607625 274.237262 
L 267.24251 278.289993 
L 267.877394 290.21438 
L 268.512279 239.243486 
L 269.147163 306.425301 
L 269.782048 208.224513 
L 270.416932 268.158155 
L 271.051817 168.086868 
L 271.686701 257.636661 
L 272.321586 75.263752 
L 272.95647 238.542051 
L 273.591355 215.160908 
L 274.226239 259.03953 
L 274.861124 175.25709 
L 275.496009 234.879002 
L 276.130893 250.934046 
L 276.765778 237.528863 
L 277.400662 374.386488 
L 278.035547 304.476874 
L 278.670431 287.564518 
L 279.305316 260.987956 
L 279.9402 257.948391 
L 280.575085 291.227568 
L 281.209969 298.008086 
L 281.844854 333.235666 
L 282.479738 220.46063 
L 283.114623 260.364449 
L 283.749507 290.759937 
L 284.384392 288.032126 
L 285.019276 273.302024 
L 285.654161 231.060075 
L 286.289045 258.104268 
L 286.92393 240.100797 
L 288.193699 287.486568 
L 288.828583 186.012412 
L 290.098352 268.93754 
L 290.733237 145.251305 
L 291.368121 172.529279 
L 292.003006 235.580436 
L 292.63789 232.774698 
L 293.272775 219.681269 
L 293.907659 166.761949 
L 294.542544 282.186846 
L 295.177428 241.971274 
L 295.812313 257.09108 
L 296.447197 255.37648 
L 297.082082 295.046471 
L 297.716967 214.5374 
L 298.351851 239.789043 
L 298.986736 281.875092 
L 299.62162 260.832079 
L 300.256505 266.443556 
L 300.891389 248.673889 
L 301.526274 185.388927 
L 302.161158 283.044157 
L 302.796043 280.238419 
L 303.430927 251.791357 
L 304.065812 233.476133 
L 304.700696 186.869723 
L 305.335581 254.908849 
L 305.970465 236.827428 
L 306.60535 238.775855 
L 307.240234 306.892931 
L 307.875119 233.554083 
L 308.510003 255.532357 
L 309.144888 229.033722 
L 309.779772 350.381849 
L 310.414657 286.473403 
L 311.049541 188.974027 
L 311.684426 260.130645 
L 312.31931 186.168289 
L 312.954195 257.714587 
L 313.589079 276.887123 
L 314.223964 194.66343 
L 314.858848 222.720811 
L 315.493733 272.132959 
L 316.128617 165.904637 
L 316.763502 296.44934 
L 317.398386 252.648669 
L 318.033271 247.426873 
L 318.668156 169.801491 
L 319.30304 261.14381 
L 319.937925 171.983721 
L 320.572809 252.258988 
L 321.207694 223.500172 
L 321.842578 235.346632 
L 322.477463 208.77007 
L 323.112347 256.077915 
L 323.747232 392.156155 
L 324.382116 365.501655 
L 325.017001 279.225231 
L 325.651885 242.205101 
L 326.28677 183.128747 
L 326.921654 221.240015 
L 327.556539 313.361696 
L 328.191423 182.349362 
L 328.826308 229.189599 
L 329.461192 247.972454 
L 330.096077 275.562181 
L 330.730961 122.6495 
L 331.365846 240.646355 
L 332.00073 288.73356 
L 332.635615 243.53002 
L 333.270499 238.542051 
L 333.905384 298.943324 
L 334.540268 167.853064 
L 335.175153 201.132217 
L 335.810037 207.678932 
L 336.444922 284.057346 
L 337.079806 262.079071 
L 337.714691 272.132959 
L 338.349575 259.896818 
L 338.98446 130.521157 
L 339.619344 285.226388 
L 340.889114 199.183791 
L 341.523998 331.676944 
L 342.158883 260.520325 
L 342.793767 328.325648 
L 343.428652 318.193811 
L 344.063536 284.213223 
L 344.698421 260.676202 
L 345.333305 246.491635 
L 345.96819 253.895661 
L 346.603074 221.240015 
L 347.237959 224.903041 
L 347.872843 266.287679 
L 348.507728 327.935944 
L 349.142612 289.902626 
L 349.777497 261.611441 
L 350.412381 136.288533 
L 351.047266 208.847997 
L 351.68215 326.221344 
L 352.317035 240.256674 
L 352.951919 208.536243 
L 353.586804 214.849154 
L 354.221688 296.215536 
L 354.856573 241.347789 
L 355.491457 289.279118 
L 356.126342 227.007345 
L 356.761226 271.743278 
L 357.396111 285.148461 
L 358.030995 293.799479 
L 358.66588 284.75878 
L 359.300764 250.934046 
L 360.570533 202.145406 
L 361.205418 290.993741 
L 361.840303 265.975925 
L 362.475187 295.046471 
L 363.110072 170.347048 
L 363.744956 150.706881 
L 364.379841 319.98636 
L 365.014725 222.25318 
L 365.64961 330.663755 
L 366.284494 316.557138 
L 366.919379 325.130206 
L 367.554263 299.644759 
L 368.824032 220.46063 
L 369.458917 280.861927 
L 370.093801 352.174399 
L 370.728686 339.860331 
L 371.36357 228.332287 
L 371.998455 275.406328 
L 372.633339 274.393139 
L 373.268224 264.495129 
L 373.903108 235.970117 
L 374.537993 257.714587 
L 375.172877 289.279118 
L 375.807762 235.346632 
L 376.442646 192.325322 
L 377.077531 237.295059 
L 377.712415 238.152371 
L 378.3473 318.505564 
L 378.982184 232.540894 
L 379.617069 274.626943 
L 380.251953 230.04691 
L 380.886838 360.981294 
L 381.521722 147.511486 
L 382.156607 254.285342 
L 382.791491 284.75878 
L 383.426376 220.850311 
L 384.061261 190.610699 
L 384.696145 290.993741 
L 385.33103 309.854523 
L 385.965914 264.728933 
L 387.235683 219.525392 
L 387.870568 211.264055 
L 388.505452 268.85959 
L 389.140337 296.683167 
L 389.775221 230.904222 
L 390.410106 297.774282 
L 391.04499 350.303922 
L 391.679875 252.025184 
L 392.314759 375.867296 
L 392.949644 304.398924 
L 393.584528 201.210167 
L 394.219413 293.253921 
L 394.854297 271.275647 
L 395.489182 310.478031 
L 396.124066 264.027498 
L 396.758951 376.179038 
L 397.393835 243.685897 
L 398.02872 266.443556 
L 398.663604 193.884068 
L 399.298489 206.276063 
L 399.933373 266.599432 
L 400.568258 290.526133 
L 401.203142 228.488164 
L 401.838027 283.044157 
L 402.472911 289.045314 
L 403.107796 342.276388 
L 403.74268 290.21438 
L 404.377565 284.992584 
L 405.01245 282.96623 
L 405.647334 316.01158 
L 406.282219 325.208156 
L 406.917103 297.540455 
L 407.551988 186.947673 
L 408.186872 337.833977 
L 408.821757 251.947234 
L 409.456641 263.793694 
L 410.091526 256.779349 
L 410.72641 213.913916 
L 411.361295 186.480042 
L 411.996179 312.972015 
L 412.631064 229.891033 
L 413.265948 253.58393 
L 413.900833 320.765745 
L 414.535717 271.041843 
L 415.170602 233.554083 
L 415.805486 281.797165 
L 416.440371 215.940269 
L 417.075255 184.609543 
L 417.71014 188.974027 
L 418.345024 315.699826 
L 418.979909 272.210886 
L 419.614793 250.466438 
L 420.249678 333.62537 
L 420.884562 204.795267 
L 421.519447 234.333444 
L 422.154331 207.367201 
L 422.789216 250.232611 
L 423.4241 315.154269 
L 424.058985 329.806444 
L 424.693869 296.371413 
L 425.328754 329.650567 
L 426.598523 246.803389 
L 427.233408 306.03562 
L 427.868292 271.587401 
L 428.503177 251.32375 
L 429.138061 202.301283 
L 429.772946 242.360978 
L 430.40783 264.962736 
L 431.042715 295.747906 
L 431.677599 242.750658 
L 432.312484 251.2458 
L 432.947368 334.560609 
L 434.217137 315.154269 
L 434.852022 299.255078 
L 435.486906 322.090664 
L 436.121791 227.163222 
L 436.756675 321.623033 
L 437.39156 261.22176 
L 438.026444 227.630853 
L 438.661329 245.7902 
L 439.296213 216.875531 
L 439.931098 282.654477 
L 440.565982 213.446285 
L 441.200867 113.764678 
L 441.835751 262.702556 
L 442.470636 300.735897 
L 443.10552 209.315628 
L 443.740405 205.262898 
L 444.375289 237.295059 
L 445.010174 294.500914 
L 445.645058 236.593625 
L 446.279943 280.70605 
L 446.914827 243.062412 
L 447.549712 229.501352 
L 448.184597 298.865398 
L 448.819481 256.077915 
L 449.454366 192.481199 
L 450.08925 280.6281 
L 450.724135 263.793694 
L 451.359019 236.359821 
L 451.993904 237.68474 
L 452.628788 224.513361 
L 453.263673 237.372986 
L 453.898557 247.348946 
L 454.533442 291.149618 
L 455.168326 315.076319 
L 455.803211 307.438489 
L 456.438095 249.920881 
L 457.07298 321.389229 
L 457.707864 241.347789 
L 458.342749 260.364449 
L 458.977633 246.647512 
L 459.612518 243.685897 
L 460.247402 248.128308 
L 460.882287 270.028655 
L 461.517171 303.229882 
L 462.152056 268.391982 
L 462.78694 268.625786 
L 463.421825 290.60406 
L 464.056709 249.920881 
L 464.691594 326.143394 
L 465.326478 220.304754 
L 465.961363 272.91232 
L 466.596247 281.173657 
L 467.231132 321.623033 
L 467.866016 222.720811 
L 468.500901 146.654174 
L 469.135785 314.374884 
L 469.77067 151.174535 
L 470.405555 232.229141 
L 471.040439 272.444713 
L 471.675324 297.306652 
L 472.310208 212.199293 
L 472.945093 195.910445 
L 473.579977 212.666924 
L 474.214862 247.115143 
L 474.849746 260.442399 
L 475.484631 271.431524 
L 476.119515 275.873935 
L 476.7544 246.257831 
L 477.389284 278.289993 
L 478.024169 270.262459 
L 478.659053 177.984901 
L 479.293938 184.921296 
L 479.928822 260.286522 
L 480.563707 276.029812 
L 481.198591 299.333028 
L 481.833476 268.93754 
L 482.46836 312.270581 
L 483.103245 236.671551 
L 483.738129 276.65332 
L 484.373014 256.935226 
L 485.007898 215.706466 
L 485.642783 319.362876 
L 486.277667 217.421089 
L 486.912552 210.017063 
L 487.547436 224.357484 
L 488.182321 318.973172 
L 488.817205 231.605656 
L 489.45209 271.821205 
L 490.086974 228.020533 
L 490.721859 214.381547 
L 491.356744 313.67345 
L 491.991628 202.223333 
L 492.626513 280.70605 
L 493.261397 282.342723 
L 493.896282 299.878586 
L 494.531166 260.987956 
L 495.166051 262.312875 
L 495.800935 261.767318 
L 496.43582 176.348205 
L 497.070704 163.644457 
L 497.705589 280.238419 
L 498.340473 223.889876 
L 498.975358 299.566832 
L 499.610242 358.799063 
L 500.245127 272.055032 
L 500.880011 220.382704 
L 501.514896 221.551746 
L 502.14978 252.570742 
L 502.784665 188.584346 
L 503.419549 214.381547 
L 504.054434 299.177151 
L 504.689318 210.874374 
L 505.324203 278.445869 
L 505.959087 257.013153 
L 506.593972 279.926665 
L 507.228856 279.848738 
L 507.863741 232.229141 
L 508.498625 281.563361 
L 509.13351 294.345037 
L 509.768394 282.42065 
L 510.403279 341.574954 
L 511.038163 197.702995 
L 511.673048 295.436175 
L 512.307933 268.703713 
L 512.942817 319.129049 
L 513.577702 217.654892 
L 514.212586 345.627684 
L 514.847471 324.272894 
L 515.482355 174.399778 
L 516.11724 282.88828 
L 516.752124 305.567989 
L 517.387009 336.275232 
L 518.656778 296.683167 
L 519.291662 298.865398 
L 519.926547 346.874676 
L 520.561431 290.21438 
L 521.196316 215.628539 
L 521.8312 245.478447 
L 522.466085 369.086766 
L 523.100969 306.347374 
L 523.735854 346.017365 
L 524.370738 229.423402 
L 525.005623 305.567989 
L 525.640507 365.813409 
L 526.275392 296.371413 
L 526.910276 203.236521 
L 527.545161 298.475717 
L 528.180045 217.654892 
L 528.81493 300.424144 
L 529.449814 269.171344 
L 530.084699 226.695614 
L 530.719583 310.633908 
L 531.354468 216.329973 
L 532.624237 382.02433 
L 533.894006 197.157437 
L 534.528891 189.051977 
L 535.163775 339.938281 
L 535.79866 228.877845 
L 536.433544 197.157437 
L 537.068429 304.944505 
L 537.703313 324.818475 
L 538.338198 227.864656 
L 538.973082 260.598252 
L 539.607967 278.991427 
L 540.242851 292.39661 
L 540.877736 347.965792 
L 541.51262 262.546679 
L 542.147505 309.620719 
L 542.782389 293.799479 
L 543.417274 336.898716 
L 544.052158 340.951446 
L 544.687043 206.042259 
L 545.321927 277.043 
L 545.956812 275.562181 
L 546.591696 209.159751 
L 547.226581 304.788628 
L 547.861465 293.020118 
L 548.49635 341.107323 
L 549.131234 268.547859 
L 549.766119 289.434995 
L 550.401003 247.894504 
L 551.035888 287.330691 
L 551.670772 250.544365 
L 552.305657 267.222917 
L 552.940541 304.24307 
L 553.575426 162.007784 
L 554.21031 290.136429 
L 554.845195 225.91623 
L 555.48008 237.295059 
L 556.114964 283.511788 
L 556.749849 253.895661 
L 557.384733 282.576527 
L 558.019618 267.456721 
L 558.654502 236.827428 
L 559.289387 294.500914 
L 559.924271 235.346632 
L 560.559156 250.232611 
L 561.19404 228.17641 
L 562.463809 317.336499 
L 563.098694 412.263941 
L 563.733578 343.05575 
L 564.368463 308.997235 
L 565.003347 210.56262 
L 565.638232 270.808016 
L 566.273116 264.105425 
L 566.908001 322.480345 
L 567.542885 218.668081 
L 568.17777 256.935226 
L 568.812654 318.505564 
L 569.447539 263.715744 
L 570.082423 323.493533 
L 570.717308 207.834809 
L 571.352192 243.997651 
L 571.987077 294.18916 
L 573.256846 204.249709 
L 573.89173 234.567248 
L 574.526615 198.79411 
L 575.161499 321.77891 
L 575.796384 305.334185 
L 576.431268 312.972015 
L 577.066153 391.06504 
L 577.701038 244.932889 
L 578.335922 266.365605 
L 578.970807 273.068197 
L 579.605691 324.194968 
L 580.87546 234.333444 
L 581.510345 174.243902 
L 582.145229 158.812342 
L 582.780114 363.709105 
L 582.780114 363.709105 
" clip-path="url(#p8026401ea8)" style="fill: none; stroke: #ff7f0e; stroke-width: 1.5; stroke-linecap: square"/>
   </g>
   <g id="line2d_39">
    <path d="M 50.14375 551.518125 
L 608.14375 551.518125 
" clip-path="url(#p8026401ea8)" style="fill: none; stroke-dasharray: 11.1,4.8; stroke-dashoffset: 0; stroke: #ff0000; stroke-width: 3"/>
   </g>
   <g id="patch_3">
    <path d="M 50.14375 576.718125 
L 50.14375 22.318125 
" style="fill: none; stroke: #000000; stroke-width: 0.8; stroke-linejoin: miter; stroke-linecap: square"/>
   </g>
   <g id="patch_4">
    <path d="M 608.14375 576.718125 
L 608.14375 22.318125 
" style="fill: none; stroke: #000000; stroke-width: 0.8; stroke-linejoin: miter; stroke-linecap: square"/>
   </g>
   <g id="patch_5">
    <path d="M 50.14375 576.718125 
L 608.14375 576.718125 
" style="fill: none; stroke: #000000; stroke-width: 0.8; stroke-linejoin: miter; stroke-linecap: square"/>
   </g>
   <g id="patch_6">
    <path d="M 50.14375 22.318125 
L 608.14375 22.318125 
" style="fill: none; stroke: #000000; stroke-width: 0.8; stroke-linejoin: miter; stroke-linecap: square"/>
   </g>
   <g id="text_21">
    <!-- Train and Val Accuracy -->
    <g transform="translate(261.365313 16.318125) scale(0.12 -0.12)">
     <defs>
      <path id="DejaVuSans-54" d="M -19 4666 
L 3928 4666 
L 3928 4134 
L 2272 4134 
L 2272 0 
L 1638 0 
L 1638 4134 
L -19 4134 
L -19 4666 
z
" transform="scale(0.015625)"/>
      <path id="DejaVuSans-69" d="M 603 3500 
L 1178 3500 
L 1178 0 
L 603 0 
L 603 3500 
z
M 603 4863 
L 1178 4863 
L 1178 4134 
L 603 4134 
L 603 4863 
z
" transform="scale(0.015625)"/>
      <path id="DejaVuSans-6e" d="M 3513 2113 
L 3513 0 
L 2938 0 
L 2938 2094 
Q 2938 2591 2744 2837 
Q 2550 3084 2163 3084 
Q 1697 3084 1428 2787 
Q 1159 2491 1159 1978 
L 1159 0 
L 581 0 
L 581 3500 
L 1159 3500 
L 1159 2956 
Q 1366 3272 1645 3428 
Q 1925 3584 2291 3584 
Q 2894 3584 3203 3211 
Q 3513 2838 3513 2113 
z
" transform="scale(0.015625)"/>
      <path id="DejaVuSans-20" transform="scale(0.015625)"/>
      <path id="DejaVuSans-64" d="M 2906 2969 
L 2906 4863 
L 3481 4863 
L 3481 0 
L 2906 0 
L 2906 525 
Q 2725 213 2448 61 
Q 2172 -91 1784 -91 
Q 1150 -91 751 415 
Q 353 922 353 1747 
Q 353 2572 751 3078 
Q 1150 3584 1784 3584 
Q 2172 3584 2448 3432 
Q 2725 3281 2906 2969 
z
M 947 1747 
Q 947 1113 1208 752 
Q 1469 391 1925 391 
Q 2381 391 2643 752 
Q 2906 1113 2906 1747 
Q 2906 2381 2643 2742 
Q 2381 3103 1925 3103 
Q 1469 3103 1208 2742 
Q 947 2381 947 1747 
z
" transform="scale(0.015625)"/>
      <path id="DejaVuSans-56" d="M 1831 0 
L 50 4666 
L 709 4666 
L 2188 738 
L 3669 4666 
L 4325 4666 
L 2547 0 
L 1831 0 
z
" transform="scale(0.015625)"/>
      <path id="DejaVuSans-6c" d="M 603 4863 
L 1178 4863 
L 1178 0 
L 603 0 
L 603 4863 
z
" transform="scale(0.015625)"/>
     </defs>
     <use xlink:href="#DejaVuSans-54"/>
     <use xlink:href="#DejaVuSans-72" transform="translate(46.333984 0)"/>
     <use xlink:href="#DejaVuSans-61" transform="translate(87.447266 0)"/>
     <use xlink:href="#DejaVuSans-69" transform="translate(148.726562 0)"/>
     <use xlink:href="#DejaVuSans-6e" transform="translate(176.509766 0)"/>
     <use xlink:href="#DejaVuSans-20" transform="translate(239.888672 0)"/>
     <use xlink:href="#DejaVuSans-61" transform="translate(271.675781 0)"/>
     <use xlink:href="#DejaVuSans-6e" transform="translate(332.955078 0)"/>
     <use xlink:href="#DejaVuSans-64" transform="translate(396.333984 0)"/>
     <use xlink:href="#DejaVuSans-20" transform="translate(459.810547 0)"/>
     <use xlink:href="#DejaVuSans-56" transform="translate(491.597656 0)"/>
     <use xlink:href="#DejaVuSans-61" transform="translate(552.255859 0)"/>
     <use xlink:href="#DejaVuSans-6c" transform="translate(613.535156 0)"/>
     <use xlink:href="#DejaVuSans-20" transform="translate(641.318359 0)"/>
     <use xlink:href="#DejaVuSans-41" transform="translate(673.105469 0)"/>
     <use xlink:href="#DejaVuSans-63" transform="translate(739.763672 0)"/>
     <use xlink:href="#DejaVuSans-63" transform="translate(794.744141 0)"/>
     <use xlink:href="#DejaVuSans-75" transform="translate(849.724609 0)"/>
     <use xlink:href="#DejaVuSans-72" transform="translate(913.103516 0)"/>
     <use xlink:href="#DejaVuSans-61" transform="translate(954.216797 0)"/>
     <use xlink:href="#DejaVuSans-63" transform="translate(1015.496094 0)"/>
     <use xlink:href="#DejaVuSans-79" transform="translate(1070.476562 0)"/>
    </g>
   </g>
   <g id="legend_1">
    <g id="patch_7">
     <path d="M 434.020312 74.90875 
L 601.14375 74.90875 
Q 603.14375 74.90875 603.14375 72.90875 
L 603.14375 29.318125 
Q 603.14375 27.318125 601.14375 27.318125 
L 434.020312 27.318125 
Q 432.020312 27.318125 432.020312 29.318125 
L 432.020312 72.90875 
Q 432.020312 74.90875 434.020312 74.90875 
z
" style="fill: #ffffff; opacity: 0.8; stroke: #cccccc; stroke-linejoin: miter"/>
    </g>
    <g id="line2d_40">
     <path d="M 436.020312 35.416562 
L 446.020312 35.416562 
L 456.020312 35.416562 
" style="fill: none; stroke: #1f77b4; stroke-width: 1.5; stroke-linecap: square"/>
    </g>
    <g id="text_22">
     <!-- train_accuracy -->
     <g transform="translate(464.020312 38.916562) scale(0.1 -0.1)">
      <defs>
       <path id="DejaVuSans-74" d="M 1172 4494 
L 1172 3500 
L 2356 3500 
L 2356 3053 
L 1172 3053 
L 1172 1153 
Q 1172 725 1289 603 
Q 1406 481 1766 481 
L 2356 481 
L 2356 0 
L 1766 0 
Q 1100 0 847 248 
Q 594 497 594 1153 
L 594 3053 
L 172 3053 
L 172 3500 
L 594 3500 
L 594 4494 
L 1172 4494 
z
" transform="scale(0.015625)"/>
       <path id="DejaVuSans-5f" d="M 3263 -1063 
L 3263 -1509 
L -63 -1509 
L -63 -1063 
L 3263 -1063 
z
" transform="scale(0.015625)"/>
      </defs>
      <use xlink:href="#DejaVuSans-74"/>
      <use xlink:href="#DejaVuSans-72" transform="translate(39.208984 0)"/>
      <use xlink:href="#DejaVuSans-61" transform="translate(80.322266 0)"/>
      <use xlink:href="#DejaVuSans-69" transform="translate(141.601562 0)"/>
      <use xlink:href="#DejaVuSans-6e" transform="translate(169.384766 0)"/>
      <use xlink:href="#DejaVuSans-5f" transform="translate(232.763672 0)"/>
      <use xlink:href="#DejaVuSans-61" transform="translate(282.763672 0)"/>
      <use xlink:href="#DejaVuSans-63" transform="translate(344.042969 0)"/>
      <use xlink:href="#DejaVuSans-63" transform="translate(399.023438 0)"/>
      <use xlink:href="#DejaVuSans-75" transform="translate(454.003906 0)"/>
      <use xlink:href="#DejaVuSans-72" transform="translate(517.382812 0)"/>
      <use xlink:href="#DejaVuSans-61" transform="translate(558.496094 0)"/>
      <use xlink:href="#DejaVuSans-63" transform="translate(619.775391 0)"/>
      <use xlink:href="#DejaVuSans-79" transform="translate(674.755859 0)"/>
     </g>
    </g>
    <g id="line2d_41">
     <path d="M 436.020312 50.372812 
L 446.020312 50.372812 
L 456.020312 50.372812 
" style="fill: none; stroke: #ff7f0e; stroke-width: 1.5; stroke-linecap: square"/>
    </g>
    <g id="text_23">
     <!-- val_accuracy -->
     <g transform="translate(464.020312 53.872812) scale(0.1 -0.1)">
      <defs>
       <path id="DejaVuSans-76" d="M 191 3500 
L 800 3500 
L 1894 563 
L 2988 3500 
L 3597 3500 
L 2284 0 
L 1503 0 
L 191 3500 
z
" transform="scale(0.015625)"/>
      </defs>
      <use xlink:href="#DejaVuSans-76"/>
      <use xlink:href="#DejaVuSans-61" transform="translate(59.179688 0)"/>
      <use xlink:href="#DejaVuSans-6c" transform="translate(120.458984 0)"/>
      <use xlink:href="#DejaVuSans-5f" transform="translate(148.242188 0)"/>
      <use xlink:href="#DejaVuSans-61" transform="translate(198.242188 0)"/>
      <use xlink:href="#DejaVuSans-63" transform="translate(259.521484 0)"/>
      <use xlink:href="#DejaVuSans-63" transform="translate(314.501953 0)"/>
      <use xlink:href="#DejaVuSans-75" transform="translate(369.482422 0)"/>
      <use xlink:href="#DejaVuSans-72" transform="translate(432.861328 0)"/>
      <use xlink:href="#DejaVuSans-61" transform="translate(473.974609 0)"/>
      <use xlink:href="#DejaVuSans-63" transform="translate(535.253906 0)"/>
      <use xlink:href="#DejaVuSans-79" transform="translate(590.234375 0)"/>
     </g>
    </g>
    <g id="line2d_42">
     <path d="M 436.020312 65.329062 
L 446.020312 65.329062 
L 456.020312 65.329062 
" style="fill: none; stroke-dasharray: 11.1,4.8; stroke-dashoffset: 0; stroke: #ff0000; stroke-width: 3"/>
    </g>
    <g id="text_24">
     <!-- Random-Guesser Accuracy -->
     <g transform="translate(464.020312 68.829062) scale(0.1 -0.1)">
      <defs>
       <path id="DejaVuSans-52" d="M 2841 2188 
Q 3044 2119 3236 1894 
Q 3428 1669 3622 1275 
L 4263 0 
L 3584 0 
L 2988 1197 
Q 2756 1666 2539 1819 
Q 2322 1972 1947 1972 
L 1259 1972 
L 1259 0 
L 628 0 
L 628 4666 
L 2053 4666 
Q 2853 4666 3247 4331 
Q 3641 3997 3641 3322 
Q 3641 2881 3436 2590 
Q 3231 2300 2841 2188 
z
M 1259 4147 
L 1259 2491 
L 2053 2491 
Q 2509 2491 2742 2702 
Q 2975 2913 2975 3322 
Q 2975 3731 2742 3939 
Q 2509 4147 2053 4147 
L 1259 4147 
z
" transform="scale(0.015625)"/>
       <path id="DejaVuSans-6d" d="M 3328 2828 
Q 3544 3216 3844 3400 
Q 4144 3584 4550 3584 
Q 5097 3584 5394 3201 
Q 5691 2819 5691 2113 
L 5691 0 
L 5113 0 
L 5113 2094 
Q 5113 2597 4934 2840 
Q 4756 3084 4391 3084 
Q 3944 3084 3684 2787 
Q 3425 2491 3425 1978 
L 3425 0 
L 2847 0 
L 2847 2094 
Q 2847 2600 2669 2842 
Q 2491 3084 2119 3084 
Q 1678 3084 1418 2786 
Q 1159 2488 1159 1978 
L 1159 0 
L 581 0 
L 581 3500 
L 1159 3500 
L 1159 2956 
Q 1356 3278 1631 3431 
Q 1906 3584 2284 3584 
Q 2666 3584 2933 3390 
Q 3200 3197 3328 2828 
z
" transform="scale(0.015625)"/>
       <path id="DejaVuSans-2d" d="M 313 2009 
L 1997 2009 
L 1997 1497 
L 313 1497 
L 313 2009 
z
" transform="scale(0.015625)"/>
       <path id="DejaVuSans-47" d="M 3809 666 
L 3809 1919 
L 2778 1919 
L 2778 2438 
L 4434 2438 
L 4434 434 
Q 4069 175 3628 42 
Q 3188 -91 2688 -91 
Q 1594 -91 976 548 
Q 359 1188 359 2328 
Q 359 3472 976 4111 
Q 1594 4750 2688 4750 
Q 3144 4750 3555 4637 
Q 3966 4525 4313 4306 
L 4313 3634 
Q 3963 3931 3569 4081 
Q 3175 4231 2741 4231 
Q 1884 4231 1454 3753 
Q 1025 3275 1025 2328 
Q 1025 1384 1454 906 
Q 1884 428 2741 428 
Q 3075 428 3337 486 
Q 3600 544 3809 666 
z
" transform="scale(0.015625)"/>
       <path id="DejaVuSans-65" d="M 3597 1894 
L 3597 1613 
L 953 1613 
Q 991 1019 1311 708 
Q 1631 397 2203 397 
Q 2534 397 2845 478 
Q 3156 559 3463 722 
L 3463 178 
Q 3153 47 2828 -22 
Q 2503 -91 2169 -91 
Q 1331 -91 842 396 
Q 353 884 353 1716 
Q 353 2575 817 3079 
Q 1281 3584 2069 3584 
Q 2775 3584 3186 3129 
Q 3597 2675 3597 1894 
z
M 3022 2063 
Q 3016 2534 2758 2815 
Q 2500 3097 2075 3097 
Q 1594 3097 1305 2825 
Q 1016 2553 972 2059 
L 3022 2063 
z
" transform="scale(0.015625)"/>
      </defs>
      <use xlink:href="#DejaVuSans-52"/>
      <use xlink:href="#DejaVuSans-61" transform="translate(67.232422 0)"/>
      <use xlink:href="#DejaVuSans-6e" transform="translate(128.511719 0)"/>
      <use xlink:href="#DejaVuSans-64" transform="translate(191.890625 0)"/>
      <use xlink:href="#DejaVuSans-6f" transform="translate(255.367188 0)"/>
      <use xlink:href="#DejaVuSans-6d" transform="translate(316.548828 0)"/>
      <use xlink:href="#DejaVuSans-2d" transform="translate(413.960938 0)"/>
      <use xlink:href="#DejaVuSans-47" transform="translate(453.669922 0)"/>
      <use xlink:href="#DejaVuSans-75" transform="translate(531.160156 0)"/>
      <use xlink:href="#DejaVuSans-65" transform="translate(594.539062 0)"/>
      <use xlink:href="#DejaVuSans-73" transform="translate(656.0625 0)"/>
      <use xlink:href="#DejaVuSans-73" transform="translate(708.162109 0)"/>
      <use xlink:href="#DejaVuSans-65" transform="translate(760.261719 0)"/>
      <use xlink:href="#DejaVuSans-72" transform="translate(821.785156 0)"/>
      <use xlink:href="#DejaVuSans-20" transform="translate(862.898438 0)"/>
      <use xlink:href="#DejaVuSans-41" transform="translate(894.685547 0)"/>
      <use xlink:href="#DejaVuSans-63" transform="translate(961.34375 0)"/>
      <use xlink:href="#DejaVuSans-63" transform="translate(1016.324219 0)"/>
      <use xlink:href="#DejaVuSans-75" transform="translate(1071.304688 0)"/>
      <use xlink:href="#DejaVuSans-72" transform="translate(1134.683594 0)"/>
      <use xlink:href="#DejaVuSans-61" transform="translate(1175.796875 0)"/>
      <use xlink:href="#DejaVuSans-63" transform="translate(1237.076172 0)"/>
      <use xlink:href="#DejaVuSans-79" transform="translate(1292.056641 0)"/>
     </g>
    </g>
   </g>
  </g>
 </g>
 <defs>
  <clipPath id="p8026401ea8">
   <rect x="50.14375" y="22.318125" width="558" height="554.4"/>
  </clipPath>
 </defs>
</svg>
