<?xml version="1.0" encoding="utf-8" standalone="no"?>
<!DOCTYPE svg PUBLIC "-//W3C//DTD SVG 1.1//EN"
  "http://www.w3.org/Graphics/SVG/1.1/DTD/svg11.dtd">
<svg xmlns:xlink="http://www.w3.org/1999/xlink" width="608.98125pt" height="614.274375pt" viewBox="0 0 608.98125 614.274375" xmlns="http://www.w3.org/2000/svg" version="1.1">
 <metadata>
  <rdf:RDF xmlns:dc="http://purl.org/dc/elements/1.1/" xmlns:cc="http://creativecommons.org/ns#" xmlns:rdf="http://www.w3.org/1999/02/22-rdf-syntax-ns#">
   <cc:Work>
    <dc:type rdf:resource="http://purl.org/dc/dcmitype/StillImage"/>
    <dc:date>2026-06-03T00:57:58.097170</dc:date>
    <dc:format>image/svg+xml</dc:format>
    <dc:creator>
     <cc:Agent>
      <dc:title>Matplotlib v3.10.9, https://matplotlib.org/</dc:title>
     </cc:Agent>
    </dc:creator>
   </cc:Work>
  </rdf:RDF>
 </metadata>
 <defs>
  <style type="text/css">*{stroke-linejoin: round; stroke-linecap: butt}</style>
 </defs>
 <g id="figure_1">
  <g id="patch_1">
   <path d="M 0 614.274375 
L 608.98125 614.274375 
L 608.98125 0 
L 0 0 
z
" style="fill: #ffffff"/>
  </g>
  <g id="axes_1">
   <g id="patch_2">
    <path d="M 43.78125 576.718125 
L 601.78125 576.718125 
L 601.78125 22.318125 
L 43.78125 22.318125 
z
" style="fill: #ffffff"/>
   </g>
   <g id="matplotlib.axis_1">
    <g id="xtick_1">
     <g id="line2d_1">
      <path d="M 69.144886 576.718125 
L 69.144886 22.318125 
" clip-path="url(#p876b184eb7)" style="fill: none; stroke: #b0b0b0; stroke-width: 0.8; stroke-linecap: square"/>
     </g>
     <g id="line2d_2">
      <defs>
       <path id="m429b1ba8ae" d="M 0 0 
L 0 3.5 
" style="stroke: #000000; stroke-width: 0.8"/>
      </defs>
      <g>
       <use xlink:href="#m429b1ba8ae" x="69.144886" y="576.718125" style="stroke: #000000; stroke-width: 0.8"/>
      </g>
     </g>
     <g id="text_1">
      <!-- 0 -->
      <g transform="translate(65.963636 591.316563) scale(0.1 -0.1)">
       <defs>
        <path id="DejaVuSans-30" d="M 2034 4250 
Q 1547 4250 1301 3770 
Q 1056 3291 1056 2328 
Q 1056 1369 1301 889 
Q 1547 409 2034 409 
Q 2525 409 2770 889 
Q 3016 1369 3016 2328 
Q 3016 3291 2770 3770 
Q 2525 4250 2034 4250 
z
M 2034 4750 
Q 2819 4750 3233 4129 
Q 3647 3509 3647 2328 
Q 3647 1150 3233 529 
Q 2819 -91 2034 -91 
Q 1250 -91 836 529 
Q 422 1150 422 2328 
Q 422 3509 836 4129 
Q 1250 4750 2034 4750 
z
" transform="scale(0.015625)"/>
       </defs>
       <use xlink:href="#DejaVuSans-30"/>
      </g>
     </g>
    </g>
    <g id="xtick_2">
     <g id="line2d_3">
      <path d="M 132.633338 576.718125 
L 132.633338 22.318125 
" clip-path="url(#p876b184eb7)" style="fill: none; stroke: #b0b0b0; stroke-width: 0.8; stroke-linecap: square"/>
     </g>
     <g id="line2d_4">
      <g>
       <use xlink:href="#m429b1ba8ae" x="132.633338" y="576.718125" style="stroke: #000000; stroke-width: 0.8"/>
      </g>
     </g>
     <g id="text_2">
      <!-- 100 -->
      <g transform="translate(123.089588 591.316563) scale(0.1 -0.1)">
       <defs>
        <path id="DejaVuSans-31" d="M 794 531 
L 1825 531 
L 1825 4091 
L 703 3866 
L 703 4441 
L 1819 4666 
L 2450 4666 
L 2450 531 
L 3481 531 
L 3481 0 
L 794 0 
L 794 531 
z
" transform="scale(0.015625)"/>
       </defs>
       <use xlink:href="#DejaVuSans-31"/>
       <use xlink:href="#DejaVuSans-30" transform="translate(63.623047 0)"/>
       <use xlink:href="#DejaVuSans-30" transform="translate(127.246094 0)"/>
      </g>
     </g>
    </g>
    <g id="xtick_3">
     <g id="line2d_5">
      <path d="M 196.121789 576.718125 
L 196.121789 22.318125 
" clip-path="url(#p876b184eb7)" style="fill: none; stroke: #b0b0b0; stroke-width: 0.8; stroke-linecap: square"/>
     </g>
     <g id="line2d_6">
      <g>
       <use xlink:href="#m429b1ba8ae" x="196.121789" y="576.718125" style="stroke: #000000; stroke-width: 0.8"/>
      </g>
     </g>
     <g id="text_3">
      <!-- 200 -->
      <g transform="translate(186.578039 591.316563) scale(0.1 -0.1)">
       <defs>
        <path id="DejaVuSans-32" d="M 1228 531 
L 3431 531 
L 3431 0 
L 469 0 
L 469 531 
Q 828 903 1448 1529 
Q 2069 2156 2228 2338 
Q 2531 2678 2651 2914 
Q 2772 3150 2772 3378 
Q 2772 3750 2511 3984 
Q 2250 4219 1831 4219 
Q 1534 4219 1204 4116 
Q 875 4013 500 3803 
L 500 4441 
Q 881 4594 1212 4672 
Q 1544 4750 1819 4750 
Q 2544 4750 2975 4387 
Q 3406 4025 3406 3419 
Q 3406 3131 3298 2873 
Q 3191 2616 2906 2266 
Q 2828 2175 2409 1742 
Q 1991 1309 1228 531 
z
" transform="scale(0.015625)"/>
       </defs>
       <use xlink:href="#DejaVuSans-32"/>
       <use xlink:href="#DejaVuSans-30" transform="translate(63.623047 0)"/>
       <use xlink:href="#DejaVuSans-30" transform="translate(127.246094 0)"/>
      </g>
     </g>
    </g>
    <g id="xtick_4">
     <g id="line2d_7">
      <path d="M 259.610241 576.718125 
L 259.610241 22.318125 
" clip-path="url(#p876b184eb7)" style="fill: none; stroke: #b0b0b0; stroke-width: 0.8; stroke-linecap: square"/>
     </g>
     <g id="line2d_8">
      <g>
       <use xlink:href="#m429b1ba8ae" x="259.610241" y="576.718125" style="stroke: #000000; stroke-width: 0.8"/>
      </g>
     </g>
     <g id="text_4">
      <!-- 300 -->
      <g transform="translate(250.066491 591.316563) scale(0.1 -0.1)">
       <defs>
        <path id="DejaVuSans-33" d="M 2597 2516 
Q 3050 2419 3304 2112 
Q 3559 1806 3559 1356 
Q 3559 666 3084 287 
Q 2609 -91 1734 -91 
Q 1441 -91 1130 -33 
Q 819 25 488 141 
L 488 750 
Q 750 597 1062 519 
Q 1375 441 1716 441 
Q 2309 441 2620 675 
Q 2931 909 2931 1356 
Q 2931 1769 2642 2001 
Q 2353 2234 1838 2234 
L 1294 2234 
L 1294 2753 
L 1863 2753 
Q 2328 2753 2575 2939 
Q 2822 3125 2822 3475 
Q 2822 3834 2567 4026 
Q 2313 4219 1838 4219 
Q 1578 4219 1281 4162 
Q 984 4106 628 3988 
L 628 4550 
Q 988 4650 1302 4700 
Q 1616 4750 1894 4750 
Q 2613 4750 3031 4423 
Q 3450 4097 3450 3541 
Q 3450 3153 3228 2886 
Q 3006 2619 2597 2516 
z
" transform="scale(0.015625)"/>
       </defs>
       <use xlink:href="#DejaVuSans-33"/>
       <use xlink:href="#DejaVuSans-30" transform="translate(63.623047 0)"/>
       <use xlink:href="#DejaVuSans-30" transform="translate(127.246094 0)"/>
      </g>
     </g>
    </g>
    <g id="xtick_5">
     <g id="line2d_9">
      <path d="M 323.098692 576.718125 
L 323.098692 22.318125 
" clip-path="url(#p876b184eb7)" style="fill: none; stroke: #b0b0b0; stroke-width: 0.8; stroke-linecap: square"/>
     </g>
     <g id="line2d_10">
      <g>
       <use xlink:href="#m429b1ba8ae" x="323.098692" y="576.718125" style="stroke: #000000; stroke-width: 0.8"/>
      </g>
     </g>
     <g id="text_5">
      <!-- 400 -->
      <g transform="translate(313.554942 591.316563) scale(0.1 -0.1)">
       <defs>
        <path id="DejaVuSans-34" d="M 2419 4116 
L 825 1625 
L 2419 1625 
L 2419 4116 
z
M 2253 4666 
L 3047 4666 
L 3047 1625 
L 3713 1625 
L 3713 1100 
L 3047 1100 
L 3047 0 
L 2419 0 
L 2419 1100 
L 313 1100 
L 313 1709 
L 2253 4666 
z
" transform="scale(0.015625)"/>
       </defs>
       <use xlink:href="#DejaVuSans-34"/>
       <use xlink:href="#DejaVuSans-30" transform="translate(63.623047 0)"/>
       <use xlink:href="#DejaVuSans-30" transform="translate(127.246094 0)"/>
      </g>
     </g>
    </g>
    <g id="xtick_6">
     <g id="line2d_11">
      <path d="M 386.587144 576.718125 
L 386.587144 22.318125 
" clip-path="url(#p876b184eb7)" style="fill: none; stroke: #b0b0b0; stroke-width: 0.8; stroke-linecap: square"/>
     </g>
     <g id="line2d_12">
      <g>
       <use xlink:href="#m429b1ba8ae" x="386.587144" y="576.718125" style="stroke: #000000; stroke-width: 0.8"/>
      </g>
     </g>
     <g id="text_6">
      <!-- 500 -->
      <g transform="translate(377.043394 591.316563) scale(0.1 -0.1)">
       <defs>
        <path id="DejaVuSans-35" d="M 691 4666 
L 3169 4666 
L 3169 4134 
L 1269 4134 
L 1269 2991 
Q 1406 3038 1543 3061 
Q 1681 3084 1819 3084 
Q 2600 3084 3056 2656 
Q 3513 2228 3513 1497 
Q 3513 744 3044 326 
Q 2575 -91 1722 -91 
Q 1428 -91 1123 -41 
Q 819 9 494 109 
L 494 744 
Q 775 591 1075 516 
Q 1375 441 1709 441 
Q 2250 441 2565 725 
Q 2881 1009 2881 1497 
Q 2881 1984 2565 2268 
Q 2250 2553 1709 2553 
Q 1456 2553 1204 2497 
Q 953 2441 691 2322 
L 691 4666 
z
" transform="scale(0.015625)"/>
       </defs>
       <use xlink:href="#DejaVuSans-35"/>
       <use xlink:href="#DejaVuSans-30" transform="translate(63.623047 0)"/>
       <use xlink:href="#DejaVuSans-30" transform="translate(127.246094 0)"/>
      </g>
     </g>
    </g>
    <g id="xtick_7">
     <g id="line2d_13">
      <path d="M 450.075595 576.718125 
L 450.075595 22.318125 
" clip-path="url(#p876b184eb7)" style="fill: none; stroke: #b0b0b0; stroke-width: 0.8; stroke-linecap: square"/>
     </g>
     <g id="line2d_14">
      <g>
       <use xlink:href="#m429b1ba8ae" x="450.075595" y="576.718125" style="stroke: #000000; stroke-width: 0.8"/>
      </g>
     </g>
     <g id="text_7">
      <!-- 600 -->
      <g transform="translate(440.531845 591.316563) scale(0.1 -0.1)">
       <defs>
        <path id="DejaVuSans-36" d="M 2113 2584 
Q 1688 2584 1439 2293 
Q 1191 2003 1191 1497 
Q 1191 994 1439 701 
Q 1688 409 2113 409 
Q 2538 409 2786 701 
Q 3034 994 3034 1497 
Q 3034 2003 2786 2293 
Q 2538 2584 2113 2584 
z
M 3366 4563 
L 3366 3988 
Q 3128 4100 2886 4159 
Q 2644 4219 2406 4219 
Q 1781 4219 1451 3797 
Q 1122 3375 1075 2522 
Q 1259 2794 1537 2939 
Q 1816 3084 2150 3084 
Q 2853 3084 3261 2657 
Q 3669 2231 3669 1497 
Q 3669 778 3244 343 
Q 2819 -91 2113 -91 
Q 1303 -91 875 529 
Q 447 1150 447 2328 
Q 447 3434 972 4092 
Q 1497 4750 2381 4750 
Q 2619 4750 2861 4703 
Q 3103 4656 3366 4563 
z
" transform="scale(0.015625)"/>
       </defs>
       <use xlink:href="#DejaVuSans-36"/>
       <use xlink:href="#DejaVuSans-30" transform="translate(63.623047 0)"/>
       <use xlink:href="#DejaVuSans-30" transform="translate(127.246094 0)"/>
      </g>
     </g>
    </g>
    <g id="xtick_8">
     <g id="line2d_15">
      <path d="M 513.564047 576.718125 
L 513.564047 22.318125 
" clip-path="url(#p876b184eb7)" style="fill: none; stroke: #b0b0b0; stroke-width: 0.8; stroke-linecap: square"/>
     </g>
     <g id="line2d_16">
      <g>
       <use xlink:href="#m429b1ba8ae" x="513.564047" y="576.718125" style="stroke: #000000; stroke-width: 0.8"/>
      </g>
     </g>
     <g id="text_8">
      <!-- 700 -->
      <g transform="translate(504.020297 591.316563) scale(0.1 -0.1)">
       <defs>
        <path id="DejaVuSans-37" d="M 525 4666 
L 3525 4666 
L 3525 4397 
L 1831 0 
L 1172 0 
L 2766 4134 
L 525 4134 
L 525 4666 
z
" transform="scale(0.015625)"/>
       </defs>
       <use xlink:href="#DejaVuSans-37"/>
       <use xlink:href="#DejaVuSans-30" transform="translate(63.623047 0)"/>
       <use xlink:href="#DejaVuSans-30" transform="translate(127.246094 0)"/>
      </g>
     </g>
    </g>
    <g id="xtick_9">
     <g id="line2d_17">
      <path d="M 577.052498 576.718125 
L 577.052498 22.318125 
" clip-path="url(#p876b184eb7)" style="fill: none; stroke: #b0b0b0; stroke-width: 0.8; stroke-linecap: square"/>
     </g>
     <g id="line2d_18">
      <g>
       <use xlink:href="#m429b1ba8ae" x="577.052498" y="576.718125" style="stroke: #000000; stroke-width: 0.8"/>
      </g>
     </g>
     <g id="text_9">
      <!-- 800 -->
      <g transform="translate(567.508748 591.316563) scale(0.1 -0.1)">
       <defs>
        <path id="DejaVuSans-38" d="M 2034 2216 
Q 1584 2216 1326 1975 
Q 1069 1734 1069 1313 
Q 1069 891 1326 650 
Q 1584 409 2034 409 
Q 2484 409 2743 651 
Q 3003 894 3003 1313 
Q 3003 1734 2745 1975 
Q 2488 2216 2034 2216 
z
M 1403 2484 
Q 997 2584 770 2862 
Q 544 3141 544 3541 
Q 544 4100 942 4425 
Q 1341 4750 2034 4750 
Q 2731 4750 3128 4425 
Q 3525 4100 3525 3541 
Q 3525 3141 3298 2862 
Q 3072 2584 2669 2484 
Q 3125 2378 3379 2068 
Q 3634 1759 3634 1313 
Q 3634 634 3220 271 
Q 2806 -91 2034 -91 
Q 1263 -91 848 271 
Q 434 634 434 1313 
Q 434 1759 690 2068 
Q 947 2378 1403 2484 
z
M 1172 3481 
Q 1172 3119 1398 2916 
Q 1625 2713 2034 2713 
Q 2441 2713 2670 2916 
Q 2900 3119 2900 3481 
Q 2900 3844 2670 4047 
Q 2441 4250 2034 4250 
Q 1625 4250 1398 4047 
Q 1172 3844 1172 3481 
z
" transform="scale(0.015625)"/>
       </defs>
       <use xlink:href="#DejaVuSans-38"/>
       <use xlink:href="#DejaVuSans-30" transform="translate(63.623047 0)"/>
       <use xlink:href="#DejaVuSans-30" transform="translate(127.246094 0)"/>
      </g>
     </g>
    </g>
    <g id="text_10">
     <!-- Epochs -->
     <g transform="translate(304.865625 604.994688) scale(0.1 -0.1)">
      <defs>
       <path id="DejaVuSans-45" d="M 628 4666 
L 3578 4666 
L 3578 4134 
L 1259 4134 
L 1259 2753 
L 3481 2753 
L 3481 2222 
L 1259 2222 
L 1259 531 
L 3634 531 
L 3634 0 
L 628 0 
L 628 4666 
z
" transform="scale(0.015625)"/>
       <path id="DejaVuSans-70" d="M 1159 525 
L 1159 -1331 
L 581 -1331 
L 581 3500 
L 1159 3500 
L 1159 2969 
Q 1341 3281 1617 3432 
Q 1894 3584 2278 3584 
Q 2916 3584 3314 3078 
Q 3713 2572 3713 1747 
Q 3713 922 3314 415 
Q 2916 -91 2278 -91 
Q 1894 -91 1617 61 
Q 1341 213 1159 525 
z
M 3116 1747 
Q 3116 2381 2855 2742 
Q 2594 3103 2138 3103 
Q 1681 3103 1420 2742 
Q 1159 2381 1159 1747 
Q 1159 1113 1420 752 
Q 1681 391 2138 391 
Q 2594 391 2855 752 
Q 3116 1113 3116 1747 
z
" transform="scale(0.015625)"/>
       <path id="DejaVuSans-6f" d="M 1959 3097 
Q 1497 3097 1228 2736 
Q 959 2375 959 1747 
Q 959 1119 1226 758 
Q 1494 397 1959 397 
Q 2419 397 2687 759 
Q 2956 1122 2956 1747 
Q 2956 2369 2687 2733 
Q 2419 3097 1959 3097 
z
M 1959 3584 
Q 2709 3584 3137 3096 
Q 3566 2609 3566 1747 
Q 3566 888 3137 398 
Q 2709 -91 1959 -91 
Q 1206 -91 779 398 
Q 353 888 353 1747 
Q 353 2609 779 3096 
Q 1206 3584 1959 3584 
z
" transform="scale(0.015625)"/>
       <path id="DejaVuSans-63" d="M 3122 3366 
L 3122 2828 
Q 2878 2963 2633 3030 
Q 2388 3097 2138 3097 
Q 1578 3097 1268 2742 
Q 959 2388 959 1747 
Q 959 1106 1268 751 
Q 1578 397 2138 397 
Q 2388 397 2633 464 
Q 2878 531 3122 666 
L 3122 134 
Q 2881 22 2623 -34 
Q 2366 -91 2075 -91 
Q 1284 -91 818 406 
Q 353 903 353 1747 
Q 353 2603 823 3093 
Q 1294 3584 2113 3584 
Q 2378 3584 2631 3529 
Q 2884 3475 3122 3366 
z
" transform="scale(0.015625)"/>
       <path id="DejaVuSans-68" d="M 3513 2113 
L 3513 0 
L 2938 0 
L 2938 2094 
Q 2938 2591 2744 2837 
Q 2550 3084 2163 3084 
Q 1697 3084 1428 2787 
Q 1159 2491 1159 1978 
L 1159 0 
L 581 0 
L 581 4863 
L 1159 4863 
L 1159 2956 
Q 1366 3272 1645 3428 
Q 1925 3584 2291 3584 
Q 2894 3584 3203 3211 
Q 3513 2838 3513 2113 
z
" transform="scale(0.015625)"/>
       <path id="DejaVuSans-73" d="M 2834 3397 
L 2834 2853 
Q 2591 2978 2328 3040 
Q 2066 3103 1784 3103 
Q 1356 3103 1142 2972 
Q 928 2841 928 2578 
Q 928 2378 1081 2264 
Q 1234 2150 1697 2047 
L 1894 2003 
Q 2506 1872 2764 1633 
Q 3022 1394 3022 966 
Q 3022 478 2636 193 
Q 2250 -91 1575 -91 
Q 1294 -91 989 -36 
Q 684 19 347 128 
L 347 722 
Q 666 556 975 473 
Q 1284 391 1588 391 
Q 1994 391 2212 530 
Q 2431 669 2431 922 
Q 2431 1156 2273 1281 
Q 2116 1406 1581 1522 
L 1381 1569 
Q 847 1681 609 1914 
Q 372 2147 372 2553 
Q 372 3047 722 3315 
Q 1072 3584 1716 3584 
Q 2034 3584 2315 3537 
Q 2597 3491 2834 3397 
z
" transform="scale(0.015625)"/>
      </defs>
      <use xlink:href="#DejaVuSans-45"/>
      <use xlink:href="#DejaVuSans-70" transform="translate(63.183594 0)"/>
      <use xlink:href="#DejaVuSans-6f" transform="translate(126.660156 0)"/>
      <use xlink:href="#DejaVuSans-63" transform="translate(187.841797 0)"/>
      <use xlink:href="#DejaVuSans-68" transform="translate(242.822266 0)"/>
      <use xlink:href="#DejaVuSans-73" transform="translate(306.201172 0)"/>
     </g>
    </g>
   </g>
   <g id="matplotlib.axis_2">
    <g id="ytick_1">
     <g id="line2d_19">
      <path d="M 43.78125 554.948787 
L 601.78125 554.948787 
" clip-path="url(#p876b184eb7)" style="fill: none; stroke: #b0b0b0; stroke-width: 0.8; stroke-linecap: square"/>
     </g>
     <g id="line2d_20">
      <defs>
       <path id="m191f52f95e" d="M 0 0 
L -3.5 0 
" style="stroke: #000000; stroke-width: 0.8"/>
      </defs>
      <g>
       <use xlink:href="#m191f52f95e" x="43.78125" y="554.948787" style="stroke: #000000; stroke-width: 0.8"/>
      </g>
     </g>
     <g id="text_11">
      <!-- 0.0 -->
      <g transform="translate(20.878125 558.748006) scale(0.1 -0.1)">
       <defs>
        <path id="DejaVuSans-2e" d="M 684 794 
L 1344 794 
L 1344 0 
L 684 0 
L 684 794 
z
" transform="scale(0.015625)"/>
       </defs>
       <use xlink:href="#DejaVuSans-30"/>
       <use xlink:href="#DejaVuSans-2e" transform="translate(63.623047 0)"/>
       <use xlink:href="#DejaVuSans-30" transform="translate(95.410156 0)"/>
      </g>
     </g>
    </g>
    <g id="ytick_2">
     <g id="line2d_21">
      <path d="M 43.78125 467.123828 
L 601.78125 467.123828 
" clip-path="url(#p876b184eb7)" style="fill: none; stroke: #b0b0b0; stroke-width: 0.8; stroke-linecap: square"/>
     </g>
     <g id="line2d_22">
      <g>
       <use xlink:href="#m191f52f95e" x="43.78125" y="467.123828" style="stroke: #000000; stroke-width: 0.8"/>
      </g>
     </g>
     <g id="text_12">
      <!-- 0.1 -->
      <g transform="translate(20.878125 470.923046) scale(0.1 -0.1)">
       <use xlink:href="#DejaVuSans-30"/>
       <use xlink:href="#DejaVuSans-2e" transform="translate(63.623047 0)"/>
       <use xlink:href="#DejaVuSans-31" transform="translate(95.410156 0)"/>
      </g>
     </g>
    </g>
    <g id="ytick_3">
     <g id="line2d_23">
      <path d="M 43.78125 379.298868 
L 601.78125 379.298868 
" clip-path="url(#p876b184eb7)" style="fill: none; stroke: #b0b0b0; stroke-width: 0.8; stroke-linecap: square"/>
     </g>
     <g id="line2d_24">
      <g>
       <use xlink:href="#m191f52f95e" x="43.78125" y="379.298868" style="stroke: #000000; stroke-width: 0.8"/>
      </g>
     </g>
     <g id="text_13">
      <!-- 0.2 -->
      <g transform="translate(20.878125 383.098087) scale(0.1 -0.1)">
       <use xlink:href="#DejaVuSans-30"/>
       <use xlink:href="#DejaVuSans-2e" transform="translate(63.623047 0)"/>
       <use xlink:href="#DejaVuSans-32" transform="translate(95.410156 0)"/>
      </g>
     </g>
    </g>
    <g id="ytick_4">
     <g id="line2d_25">
      <path d="M 43.78125 291.473908 
L 601.78125 291.473908 
" clip-path="url(#p876b184eb7)" style="fill: none; stroke: #b0b0b0; stroke-width: 0.8; stroke-linecap: square"/>
     </g>
     <g id="line2d_26">
      <g>
       <use xlink:href="#m191f52f95e" x="43.78125" y="291.473908" style="stroke: #000000; stroke-width: 0.8"/>
      </g>
     </g>
     <g id="text_14">
      <!-- 0.3 -->
      <g transform="translate(20.878125 295.273127) scale(0.1 -0.1)">
       <use xlink:href="#DejaVuSans-30"/>
       <use xlink:href="#DejaVuSans-2e" transform="translate(63.623047 0)"/>
       <use xlink:href="#DejaVuSans-33" transform="translate(95.410156 0)"/>
      </g>
     </g>
    </g>
    <g id="ytick_5">
     <g id="line2d_27">
      <path d="M 43.78125 203.648949 
L 601.78125 203.648949 
" clip-path="url(#p876b184eb7)" style="fill: none; stroke: #b0b0b0; stroke-width: 0.8; stroke-linecap: square"/>
     </g>
     <g id="line2d_28">
      <g>
       <use xlink:href="#m191f52f95e" x="43.78125" y="203.648949" style="stroke: #000000; stroke-width: 0.8"/>
      </g>
     </g>
     <g id="text_15">
      <!-- 0.4 -->
      <g transform="translate(20.878125 207.448167) scale(0.1 -0.1)">
       <use xlink:href="#DejaVuSans-30"/>
       <use xlink:href="#DejaVuSans-2e" transform="translate(63.623047 0)"/>
       <use xlink:href="#DejaVuSans-34" transform="translate(95.410156 0)"/>
      </g>
     </g>
    </g>
    <g id="ytick_6">
     <g id="line2d_29">
      <path d="M 43.78125 115.823989 
L 601.78125 115.823989 
" clip-path="url(#p876b184eb7)" style="fill: none; stroke: #b0b0b0; stroke-width: 0.8; stroke-linecap: square"/>
     </g>
     <g id="line2d_30">
      <g>
       <use xlink:href="#m191f52f95e" x="43.78125" y="115.823989" style="stroke: #000000; stroke-width: 0.8"/>
      </g>
     </g>
     <g id="text_16">
      <!-- 0.5 -->
      <g transform="translate(20.878125 119.623208) scale(0.1 -0.1)">
       <use xlink:href="#DejaVuSans-30"/>
       <use xlink:href="#DejaVuSans-2e" transform="translate(63.623047 0)"/>
       <use xlink:href="#DejaVuSans-35" transform="translate(95.410156 0)"/>
      </g>
     </g>
    </g>
    <g id="ytick_7">
     <g id="line2d_31">
      <path d="M 43.78125 27.999029 
L 601.78125 27.999029 
" clip-path="url(#p876b184eb7)" style="fill: none; stroke: #b0b0b0; stroke-width: 0.8; stroke-linecap: square"/>
     </g>
     <g id="line2d_32">
      <g>
       <use xlink:href="#m191f52f95e" x="43.78125" y="27.999029" style="stroke: #000000; stroke-width: 0.8"/>
      </g>
     </g>
     <g id="text_17">
      <!-- 0.6 -->
      <g transform="translate(20.878125 31.798248) scale(0.1 -0.1)">
       <use xlink:href="#DejaVuSans-30"/>
       <use xlink:href="#DejaVuSans-2e" transform="translate(63.623047 0)"/>
       <use xlink:href="#DejaVuSans-36" transform="translate(95.410156 0)"/>
      </g>
     </g>
    </g>
    <g id="text_18">
     <!-- Accuracy -->
     <g transform="translate(14.798438 322.34625) rotate(-90) scale(0.1 -0.1)">
      <defs>
       <path id="DejaVuSans-41" d="M 2188 4044 
L 1331 1722 
L 3047 1722 
L 2188 4044 
z
M 1831 4666 
L 2547 4666 
L 4325 0 
L 3669 0 
L 3244 1197 
L 1141 1197 
L 716 0 
L 50 0 
L 1831 4666 
z
" transform="scale(0.015625)"/>
       <path id="DejaVuSans-75" d="M 544 1381 
L 544 3500 
L 1119 3500 
L 1119 1403 
Q 1119 906 1312 657 
Q 1506 409 1894 409 
Q 2359 409 2629 706 
Q 2900 1003 2900 1516 
L 2900 3500 
L 3475 3500 
L 3475 0 
L 2900 0 
L 2900 538 
Q 2691 219 2414 64 
Q 2138 -91 1772 -91 
Q 1169 -91 856 284 
Q 544 659 544 1381 
z
M 1991 3584 
L 1991 3584 
z
" transform="scale(0.015625)"/>
       <path id="DejaVuSans-72" d="M 2631 2963 
Q 2534 3019 2420 3045 
Q 2306 3072 2169 3072 
Q 1681 3072 1420 2755 
Q 1159 2438 1159 1844 
L 1159 0 
L 581 0 
L 581 3500 
L 1159 3500 
L 1159 2956 
Q 1341 3275 1631 3429 
Q 1922 3584 2338 3584 
Q 2397 3584 2469 3576 
Q 2541 3569 2628 3553 
L 2631 2963 
z
" transform="scale(0.015625)"/>
       <path id="DejaVuSans-61" d="M 2194 1759 
Q 1497 1759 1228 1600 
Q 959 1441 959 1056 
Q 959 750 1161 570 
Q 1363 391 1709 391 
Q 2188 391 2477 730 
Q 2766 1069 2766 1631 
L 2766 1759 
L 2194 1759 
z
M 3341 1997 
L 3341 0 
L 2766 0 
L 2766 531 
Q 2569 213 2275 61 
Q 1981 -91 1556 -91 
Q 1019 -91 701 211 
Q 384 513 384 1019 
Q 384 1609 779 1909 
Q 1175 2209 1959 2209 
L 2766 2209 
L 2766 2266 
Q 2766 2663 2505 2880 
Q 2244 3097 1772 3097 
Q 1472 3097 1187 3025 
Q 903 2953 641 2809 
L 641 3341 
Q 956 3463 1253 3523 
Q 1550 3584 1831 3584 
Q 2591 3584 2966 3190 
Q 3341 2797 3341 1997 
z
" transform="scale(0.015625)"/>
       <path id="DejaVuSans-79" d="M 2059 -325 
Q 1816 -950 1584 -1140 
Q 1353 -1331 966 -1331 
L 506 -1331 
L 506 -850 
L 844 -850 
Q 1081 -850 1212 -737 
Q 1344 -625 1503 -206 
L 1606 56 
L 191 3500 
L 800 3500 
L 1894 763 
L 2988 3500 
L 3597 3500 
L 2059 -325 
z
" transform="scale(0.015625)"/>
      </defs>
      <use xlink:href="#DejaVuSans-41"/>
      <use xlink:href="#DejaVuSans-63" transform="translate(66.658203 0)"/>
      <use xlink:href="#DejaVuSans-63" transform="translate(121.638672 0)"/>
      <use xlink:href="#DejaVuSans-75" transform="translate(176.619141 0)"/>
      <use xlink:href="#DejaVuSans-72" transform="translate(239.998047 0)"/>
      <use xlink:href="#DejaVuSans-61" transform="translate(281.111328 0)"/>
      <use xlink:href="#DejaVuSans-63" transform="translate(342.390625 0)"/>
      <use xlink:href="#DejaVuSans-79" transform="translate(397.371094 0)"/>
     </g>
    </g>
   </g>
   <g id="line2d_33">
    <path d="M 69.144886 450.485878 
L 69.779771 438.453857 
L 70.414655 429.942152 
L 71.684424 386.934754 
L 72.319309 368.855017 
L 72.954193 340.565623 
L 73.589078 325.386553 
L 74.223962 320.848919 
L 74.858847 317.633537 
L 75.493732 305.784492 
L 76.128616 297.446018 
L 76.763501 297.048358 
L 77.398385 289.544202 
L 78.03327 278.434334 
L 78.668154 273.816215 
L 79.937923 271.557147 
L 80.572808 274.133364 
L 81.207692 276.041099 
L 81.842577 275.753239 
L 82.477461 273.491737 
L 83.74723 267.792873 
L 85.016999 260.36436 
L 86.286768 254.62647 
L 88.826306 246.736852 
L 89.461191 245.058426 
L 90.73096 242.909158 
L 92.000729 240.176814 
L 92.635613 239.164383 
L 93.270498 237.74212 
L 95.175151 234.885346 
L 96.44492 232.470178 
L 97.079805 231.621202 
L 97.71469 230.416052 
L 98.349574 229.796385 
L 99.619343 227.581238 
L 101.523997 224.607388 
L 102.793766 222.83382 
L 103.42865 222.009238 
L 104.063535 220.565016 
L 104.698419 220.064885 
L 105.333304 219.31838 
L 105.968188 218.010759 
L 106.603073 217.754622 
L 107.237957 216.43237 
L 107.872842 215.751718 
L 108.507726 214.68317 
L 112.951918 208.874532 
L 114.221687 207.442507 
L 114.856571 206.615491 
L 115.491456 205.998258 
L 116.761225 204.410106 
L 118.030994 203.090288 
L 118.665879 202.068093 
L 119.300763 201.868046 
L 120.570532 200.453087 
L 121.840301 199.17232 
L 123.11007 198.035458 
L 123.744955 197.018158 
L 124.379839 196.779086 
L 125.649608 195.3446 
L 126.284493 194.74692 
L 126.919377 194.459033 
L 127.554262 193.739356 
L 129.458915 192.407341 
L 130.0938 191.465684 
L 133.268222 189.072449 
L 135.80776 187.042717 
L 136.442645 186.818276 
L 137.077529 185.954669 
L 137.712414 185.525287 
L 138.347298 185.422842 
L 138.982183 185.13739 
L 139.617067 184.376253 
L 140.251952 184.176206 
L 140.886837 183.539475 
L 141.521721 183.112552 
L 142.156606 182.944202 
L 142.79149 182.114752 
L 143.426375 181.958625 
L 144.061259 181.436561 
L 145.965913 180.185057 
L 147.235682 179.392171 
L 147.870566 179.223847 
L 148.505451 178.457816 
L 149.140335 178.033328 
L 150.410104 177.555184 
L 151.044989 176.937952 
L 151.679873 176.830612 
L 152.314758 176.32564 
L 152.949642 176.076779 
L 154.219411 175.227803 
L 155.48918 174.403247 
L 157.393834 173.422512 
L 158.028718 172.900448 
L 158.663603 172.563799 
L 159.298487 172.034406 
L 159.933372 171.919739 
L 160.568256 171.468422 
L 161.203141 171.485488 
L 161.838026 170.892676 
L 162.47291 170.656038 
L 163.107795 169.997346 
L 165.012448 169.341114 
L 165.647333 168.577518 
L 166.282217 168.545795 
L 166.917102 168.238409 
L 167.551986 167.6334 
L 168.186871 167.274765 
L 168.821755 167.155229 
L 169.45664 166.869803 
L 170.726409 165.957408 
L 171.361293 165.567077 
L 172.631062 165.127958 
L 173.265947 164.725403 
L 173.900831 164.644919 
L 174.535716 164.235062 
L 175.1706 163.983793 
L 175.805485 163.510491 
L 176.440369 162.89085 
L 177.075254 162.973795 
L 178.345023 162.439534 
L 178.979907 161.866221 
L 182.15433 160.561035 
L 182.789215 159.856015 
L 183.424099 159.716953 
L 184.058984 159.258309 
L 184.693868 159.226586 
L 185.328753 158.765507 
L 186.598522 158.275165 
L 188.503175 157.416427 
L 189.13806 156.850443 
L 189.772944 156.855311 
L 190.407829 156.367404 
L 191.042713 156.203948 
L 191.677598 155.796551 
L 192.947367 155.230568 
L 194.217136 154.503562 
L 194.85202 154.53039 
L 195.486905 153.900987 
L 196.121789 153.869264 
L 196.756674 153.149587 
L 197.391558 153.359397 
L 198.026443 153.103233 
L 199.296212 152.195733 
L 199.931096 152.176207 
L 200.565981 151.615091 
L 201.83575 151.149144 
L 202.470634 150.722222 
L 203.105519 150.72709 
L 203.740403 150.451427 
L 204.375288 149.848852 
L 205.010173 149.878114 
L 205.645057 149.429232 
L 206.279942 149.23162 
L 206.914826 148.890077 
L 207.549711 149.036467 
L 208.184595 148.136243 
L 208.81948 148.028904 
L 209.454364 147.741043 
L 210.089249 147.62881 
L 210.724133 147.294596 
L 211.359018 147.433657 
L 211.993902 146.831082 
L 213.263671 146.245573 
L 213.898556 146.106511 
L 214.53344 145.642998 
L 215.168325 145.50883 
L 215.803209 145.120933 
L 216.438094 145.128262 
L 217.072978 144.564712 
L 217.707863 144.452479 
L 219.612516 143.523018 
L 220.247401 143.632792 
L 220.882285 143.203409 
L 221.51717 143.122924 
L 222.786939 142.395919 
L 223.421823 142.129992 
L 224.056708 142.066573 
L 224.691592 141.62502 
L 225.326477 141.378619 
L 225.961362 141.302976 
L 226.596246 140.72969 
L 227.231131 140.776044 
L 228.5009 140.146614 
L 229.135784 139.766046 
L 230.405553 139.556236 
L 231.040438 139.190299 
L 231.675322 139.202496 
L 232.945091 138.468188 
L 233.579976 138.202288 
L 234.21486 138.175433 
L 234.849745 137.585055 
L 235.484629 137.704591 
L 237.389283 136.599478 
L 238.024167 136.81659 
L 238.659052 136.19695 
L 239.293936 136.111545 
L 239.928821 135.560218 
L 241.19859 135.433353 
L 241.833474 134.996668 
L 242.468359 134.98934 
L 244.373012 134.025722 
L 246.277666 133.352399 
L 246.91255 132.996199 
L 247.547435 132.918148 
L 248.817204 132.320442 
L 249.452089 132.130158 
L 250.086973 132.198471 
L 250.721858 131.644684 
L 251.991627 131.322667 
L 252.626511 131.149448 
L 253.261396 130.859128 
L 253.89628 130.778617 
L 254.531165 130.449271 
L 255.166049 129.98089 
L 255.800934 129.878419 
L 257.070703 129.302672 
L 257.705587 129.300238 
L 258.340472 129.146545 
L 258.975356 128.6879 
L 260.245125 128.680597 
L 260.88001 128.209756 
L 262.149779 127.668166 
L 262.784663 127.694994 
L 263.419548 127.2949 
L 264.689317 126.699654 
L 265.324201 126.699654 
L 265.959086 126.555724 
L 266.59397 125.955583 
L 267.228855 126.075119 
L 267.863739 125.784798 
L 268.498624 125.733576 
L 271.038162 124.650396 
L 271.673047 124.638199 
L 272.942816 123.852643 
L 273.5777 123.830709 
L 274.212585 123.489166 
L 274.847469 123.362301 
L 275.482354 123.106137 
L 276.117238 122.713372 
L 276.752123 122.613336 
L 278.021892 121.959538 
L 278.656776 122.064443 
L 279.926545 121.574076 
L 280.56143 121.496025 
L 281.196314 121.278887 
L 281.831199 120.783651 
L 282.466083 120.68364 
L 283.100968 120.376254 
L 283.735852 120.403082 
L 285.005621 119.798073 
L 285.640506 119.661446 
L 286.27539 119.122316 
L 286.910275 119.307706 
L 287.545159 118.736853 
L 288.180044 118.836864 
L 288.814928 118.483124 
L 290.084697 118.280643 
L 290.719582 118.131844 
L 291.354467 117.626845 
L 293.25912 117.509744 
L 293.894005 116.946194 
L 295.798658 116.194794 
L 297.068427 116.00451 
L 297.703312 115.799595 
L 298.338196 115.270202 
L 298.973081 115.462946 
L 299.607965 115.099443 
L 300.24285 115.03113 
L 300.877734 114.718875 
L 301.512619 114.721283 
L 303.417272 113.872307 
L 304.052157 114.013803 
L 304.687041 113.855242 
L 305.321926 113.135565 
L 306.591695 112.974543 
L 307.226579 112.611041 
L 309.131233 112.074371 
L 309.766117 111.669357 
L 310.401002 111.635226 
L 311.035886 111.769393 
L 312.305656 111.017994 
L 313.575425 110.752119 
L 314.210309 110.173939 
L 314.845194 110.234924 
L 315.480078 109.932406 
L 316.114963 109.881158 
L 316.749847 109.642085 
L 317.384732 109.276175 
L 318.019616 109.488392 
L 318.654501 109.095627 
L 319.289385 109.263977 
L 319.92427 108.62968 
L 321.194039 108.144207 
L 321.828923 108.305176 
L 323.098692 107.697733 
L 323.733577 107.817295 
L 325.003346 107.136617 
L 325.63823 107.246443 
L 326.273115 106.692656 
L 326.907999 106.782903 
L 327.542884 106.336429 
L 328.177768 106.233985 
L 328.812653 105.785103 
L 329.447537 106.224248 
L 330.717306 105.563096 
L 331.352191 105.411863 
L 331.987075 105.455783 
L 332.62196 104.745843 
L 333.256844 104.433588 
L 333.891729 104.50431 
L 334.526614 104.182319 
L 335.161498 104.523836 
L 335.796383 103.967641 
L 336.431267 104.048099 
L 337.066152 103.496773 
L 337.701036 103.657795 
L 338.335921 103.311357 
L 339.60569 103.079614 
L 340.240574 102.647797 
L 340.875459 103.157664 
L 341.510343 102.2599 
L 342.145228 102.411185 
L 342.780112 101.710982 
L 343.414997 102.05009 
L 344.684766 101.364597 
L 345.954535 101.513421 
L 346.589419 100.776627 
L 347.224304 100.676642 
L 348.494073 100.818138 
L 349.763842 100.139921 
L 350.398726 100.110658 
L 351.033611 99.856929 
L 351.668495 99.769089 
L 352.30338 99.795944 
L 352.938264 99.22996 
L 353.573149 99.237288 
L 355.477803 98.737158 
L 356.112687 98.327327 
L 357.382456 98.083335 
L 358.017341 97.532008 
L 358.652225 97.880853 
L 359.28711 97.144111 
L 359.921994 97.449037 
L 360.556879 97.388052 
L 361.191763 96.805002 
L 361.826648 96.680572 
L 362.461532 96.841593 
L 363.096417 96.500077 
L 363.731301 96.631784 
L 364.366186 95.89991 
L 365.00107 96.329266 
L 365.635955 95.668166 
L 366.270839 95.707218 
L 366.905724 95.536407 
L 367.540608 95.19243 
L 368.175493 95.429094 
L 368.810377 95.197298 
L 369.445262 94.511804 
L 370.080146 94.765534 
L 370.715031 94.331257 
L 371.349915 94.341046 
L 371.9848 94.206826 
L 372.619684 93.806785 
L 373.254569 93.555463 
L 373.889453 93.470084 
L 374.524338 93.792127 
L 375.159222 93.104173 
L 375.794107 92.747999 
L 376.428991 93.179763 
L 377.063876 92.638173 
L 377.698761 92.535729 
L 378.333645 92.006336 
L 378.96853 92.391825 
L 379.603414 91.818512 
L 380.238299 91.601374 
L 380.873183 91.891694 
L 381.508068 91.20374 
L 382.142952 91.452549 
L 382.777837 91.132966 
L 383.412721 91.093967 
L 384.047606 91.193951 
L 384.68249 90.57185 
L 385.317375 90.681676 
L 385.952259 90.288858 
L 387.856913 89.932684 
L 388.491797 89.896093 
L 389.761566 89.195942 
L 390.396451 89.422817 
L 391.031335 88.976396 
L 392.301104 88.639747 
L 392.935989 88.737323 
L 393.570873 88.622629 
L 394.205758 88.276244 
L 394.840642 88.08596 
L 395.475527 87.651683 
L 396.110411 87.859033 
L 396.745296 87.268655 
L 397.38018 87.324772 
L 398.015065 87.58829 
L 398.64995 86.761248 
L 399.284834 87.056437 
L 399.919719 86.858824 
L 400.554603 86.270906 
L 401.189488 86.548978 
L 401.824372 85.861024 
L 403.094141 85.804907 
L 404.36391 85.50731 
L 404.998795 85.668331 
L 405.633679 85.073033 
L 406.903448 84.697385 
L 407.538333 84.670531 
L 408.808102 84.221649 
L 409.442986 84.585152 
L 410.077871 84.299699 
L 410.712755 83.645876 
L 411.34764 83.80449 
L 411.982524 83.597088 
L 412.617409 83.580022 
L 413.252293 83.697124 
L 413.887178 82.701784 
L 414.522062 83.511709 
L 415.156947 82.518829 
L 415.791831 83.057958 
L 416.426716 82.55542 
L 417.0616 82.504171 
L 417.696485 82.113867 
L 418.331369 82.187049 
L 418.966254 81.933319 
L 419.601138 81.882071 
L 420.236023 81.703984 
L 420.870908 81.367335 
L 421.505792 81.521028 
L 422.140677 80.962373 
L 422.775561 81.033095 
L 423.410446 80.652527 
L 424.04533 81.011161 
L 424.680215 80.425651 
L 426.584868 80.271958 
L 427.219753 79.774288 
L 427.854637 79.879193 
L 429.124406 79.196107 
L 429.759291 79.366866 
L 430.394175 79.374194 
L 431.02906 78.957035 
L 431.663944 78.698437 
L 432.933713 78.798474 
L 433.568598 78.493496 
L 434.838367 78.410577 
L 435.473251 77.705505 
L 436.108136 77.968971 
L 436.74302 77.35912 
L 437.377905 77.398119 
L 438.012789 77.703097 
L 438.647674 77.324937 
L 439.282558 76.805333 
L 439.917443 77.122456 
L 441.187212 76.524749 
L 441.822097 76.478421 
L 442.456981 76.085656 
L 443.72675 76.258822 
L 444.361635 75.619656 
L 445.631404 75.748955 
L 446.266288 74.899979 
L 446.901173 75.566 
L 447.536057 74.804864 
L 448.170942 75.465963 
L 449.440711 74.69263 
L 450.075595 74.599922 
L 450.71048 74.638974 
L 451.345364 74.243748 
L 451.980249 74.048596 
L 452.615133 74.155908 
L 453.250018 73.997347 
L 453.884902 73.048335 
L 454.519787 74.082726 
L 455.154671 73.316722 
L 455.789556 73.44356 
L 456.42444 72.960547 
L 457.059325 73.197159 
L 457.694209 73.026401 
L 458.329094 72.555533 
L 458.963978 72.61657 
L 459.598863 72.267673 
L 460.233747 72.497008 
L 460.868632 71.992009 
L 461.503516 72.221345 
L 462.138401 71.567521 
L 462.773285 71.799265 
L 463.40817 71.582179 
L 464.043055 71.706609 
L 464.677939 70.952749 
L 465.312824 71.328449 
L 465.947708 70.930816 
L 466.582593 71.28699 
L 467.217477 70.606312 
L 467.852362 70.755137 
L 469.757015 70.047657 
L 471.661669 69.82811 
L 472.931438 69.347505 
L 474.201207 69.498738 
L 474.836091 69.157221 
L 475.470976 69.030383 
L 476.10586 68.727865 
L 476.740745 69.069382 
L 477.375629 68.432676 
L 478.010514 68.683945 
L 478.645398 68.813244 
L 479.915167 68.130158 
L 481.819821 67.610502 
L 482.454705 67.359233 
L 483.724474 67.442204 
L 484.359359 67.244591 
L 484.994244 66.71033 
L 485.629128 66.573703 
L 486.264013 66.700541 
L 486.898897 66.688344 
L 488.168666 66.188266 
L 488.803551 66.229725 
L 489.438435 66.080901 
L 490.07332 65.797909 
L 491.343089 65.656413 
L 491.977973 65.478326 
L 492.612858 65.478326 
L 493.247742 65.617361 
L 493.882627 64.853817 
L 494.517511 65.178268 
L 495.152396 64.734255 
L 495.78728 64.712321 
L 496.422165 64.326832 
L 497.057049 64.37562 
L 497.691934 64.182928 
L 498.326818 64.351226 
L 498.961703 63.956053 
L 499.596587 63.707192 
L 500.231472 63.87795 
L 500.866356 63.780374 
L 501.501241 63.521776 
L 502.136125 63.111945 
L 503.405894 63.331492 
L 504.040779 62.677668 
L 505.310548 62.665471 
L 505.945433 62.499581 
L 506.580317 62.077554 
L 507.215202 62.592289 
L 507.850086 61.738445 
L 508.484971 62.489845 
L 509.119855 61.596949 
L 509.75474 61.738445 
L 510.389624 61.296892 
L 511.024509 61.387139 
L 511.659393 61.157856 
L 512.294278 61.448124 
L 512.929162 60.867535 
L 514.198931 60.830944 
L 514.833816 60.567426 
L 515.4687 60.64066 
L 516.103585 60.464981 
L 516.738469 60.743105 
L 517.373354 59.742896 
L 518.008238 60.238106 
L 519.278007 59.484298 
L 519.912892 59.830683 
L 520.547776 59.333013 
L 521.182661 59.001233 
L 522.45243 59.269568 
L 523.087314 59.008562 
L 523.722199 58.901197 
L 524.357083 58.581614 
L 524.991968 58.662125 
L 526.261737 58.549891 
L 526.896621 58.149849 
L 528.166391 57.879054 
L 528.801275 58.244965 
L 529.43616 57.68877 
L 531.340813 57.371595 
L 531.975698 57.02275 
L 532.610582 57.06667 
L 533.880351 56.678773 
L 534.515236 56.742166 
L 535.15012 56.43724 
L 535.785005 56.564079 
L 536.419889 56.332335 
L 537.054774 55.915176 
L 537.689658 56.35919 
L 538.324543 56.042015 
L 538.959427 56.020081 
L 539.594312 55.56141 
L 540.229196 55.619987 
L 540.864081 55.417506 
L 542.13385 55.195499 
L 544.673388 54.651449 
L 545.308272 54.795405 
L 545.943157 54.363589 
L 546.578041 54.095254 
L 547.212926 54.461165 
L 548.482695 53.712225 
L 549.11758 53.875655 
L 549.752464 53.919575 
L 551.657118 53.334065 
L 552.292002 53.460956 
L 552.926887 52.550995 
L 553.561771 52.875447 
L 554.83154 52.507075 
L 555.466425 52.504615 
L 556.101309 52.316791 
L 557.371078 52.402171 
L 558.005963 51.675165 
L 558.640847 51.745939 
L 559.275732 51.977683 
L 559.910616 51.314122 
L 561.81527 51.209218 
L 562.450154 51.111641 
L 563.085039 50.899371 
L 563.719923 50.999408 
L 564.989692 50.369978 
L 566.259461 50.813992 
L 566.894346 50.086986 
L 567.52923 50.350505 
L 568.164115 49.98941 
L 568.798999 50.284599 
L 569.433884 49.901623 
L 570.068768 50.167497 
L 570.703653 49.567383 
L 571.338538 49.472214 
L 571.973422 49.66009 
L 572.608307 48.750129 
L 573.243191 49.445412 
L 573.878076 48.986741 
L 574.51296 49.174617 
L 575.147845 48.423218 
L 575.782729 48.542728 
L 576.417614 48.8721 
L 576.417614 48.8721 
" clip-path="url(#p876b184eb7)" style="fill: none; stroke: #1f77b4; stroke-width: 1.5; stroke-linecap: square"/>
   </g>
   <g id="line2d_34">
    <path d="M 69.144886 458.473072 
L 69.779771 451.095775 
L 70.414655 411.859967 
L 71.04954 388.322886 
L 71.684424 379.189092 
L 72.319309 357.298714 
L 73.589078 319.57789 
L 74.223962 316.811415 
L 74.858847 313.166677 
L 75.493732 298.565762 
L 76.128616 295.316249 
L 76.763501 304.406123 
L 77.398385 279.705363 
L 78.668154 271.998727 
L 79.303039 262.447748 
L 79.937923 266.355979 
L 80.572808 277.948861 
L 81.207692 270.351997 
L 81.842577 266.070527 
L 82.477461 271.603501 
L 83.112346 271.405915 
L 83.74723 271.603501 
L 84.382115 270.220264 
L 85.651884 255.685229 
L 86.286768 257.002613 
L 86.921653 255.816963 
L 87.556537 251.074439 
L 88.191422 251.557452 
L 88.826306 249.164243 
L 89.461191 247.78098 
L 90.096075 244.597347 
L 90.73096 245.168199 
L 91.365844 247.912739 
L 92.000729 244.180161 
L 92.635613 241.984539 
L 93.270498 242.248006 
L 93.905382 235.968526 
L 94.540267 238.054375 
L 95.175151 235.924632 
L 95.810036 229.227967 
L 96.44492 231.643162 
L 97.079805 232.47748 
L 97.71469 230.216005 
L 98.349574 228.481462 
L 98.984459 230.611204 
L 99.619343 230.523391 
L 100.254228 229.557313 
L 101.523997 224.112152 
L 102.158881 225.868655 
L 102.793766 224.112152 
L 103.42865 226.066267 
L 104.063535 220.752866 
L 104.698419 222.860648 
L 105.333304 225.605188 
L 105.968188 220.247867 
L 106.603073 216.888554 
L 107.237957 217.086167 
L 107.872842 219.479402 
L 108.507726 212.826656 
L 109.142611 216.800741 
L 109.777495 214.14404 
L 110.41238 215.285745 
L 111.047264 213.792734 
L 111.682149 209.467344 
L 112.317033 206.986296 
L 112.951918 215.505317 
L 113.586802 208.786718 
L 114.221687 210.609075 
L 114.856571 207.315642 
L 115.491456 208.896492 
L 116.12634 204.856554 
L 116.761225 205.471326 
L 117.396109 204.768714 
L 118.030994 201.519201 
L 118.665879 205.822605 
L 119.300763 201.277668 
L 119.935648 201.95832 
L 120.570532 201.892441 
L 121.205417 201.123975 
L 121.840301 199.323579 
L 122.475186 201.93636 
L 123.11007 197.589036 
L 123.744955 198.642927 
L 124.379839 199.455312 
L 125.014724 197.23773 
L 125.649608 197.25969 
L 126.284493 198.577048 
L 126.919377 196.05208 
L 127.554262 195.569041 
L 128.189146 188.982175 
L 128.824031 193.988191 
L 129.458915 192.648874 
L 130.0938 193.373419 
L 130.728684 192.758647 
L 131.363569 194.163844 
L 131.998453 190.475212 
L 132.633338 191.946262 
L 133.268222 190.365412 
L 133.903107 191.37541 
L 134.537991 186.215701 
L 135.172876 190.519105 
L 135.80776 188.521096 
L 136.442645 184.832438 
L 137.077529 190.167826 
L 137.712414 187.730671 
L 138.347298 185.996129 
L 138.982183 186.852433 
L 139.617067 186.105902 
L 140.251952 186.984166 
L 141.521721 186.479167 
L 142.156606 181.758578 
L 142.79149 183.646814 
L 143.426375 186.105902 
L 144.061259 183.141815 
L 144.696144 183.580934 
L 145.331028 182.461189 
L 145.965913 180.77054 
L 146.600797 181.341419 
L 147.235682 182.944202 
L 147.870566 179.870342 
L 148.505451 179.497076 
L 149.140335 179.519036 
L 151.044989 176.730602 
L 151.679873 179.584916 
L 152.314758 181.253579 
L 152.949642 176.511029 
L 153.584527 177.60884 
L 154.219411 175.523018 
L 154.854296 175.237566 
L 155.48918 176.511029 
L 156.124065 173.678676 
L 156.758949 175.676711 
L 158.028718 173.063904 
L 158.663603 174.337367 
L 159.298487 172.075866 
L 159.933372 173.744555 
L 160.568256 172.97609 
L 161.203141 171.856319 
L 161.838026 172.449131 
L 162.47291 169.331352 
L 163.107795 171.680666 
L 163.742679 172.624784 
L 165.012448 169.265472 
L 165.647333 170.626775 
L 166.282217 170.033937 
L 166.917102 167.970048 
L 167.551986 171.131748 
L 168.186871 169.265472 
L 168.821755 170.011977 
L 169.45664 166.718544 
L 170.091524 169.682657 
L 170.726409 167.355276 
L 171.996178 167.443116 
L 172.631062 166.235505 
L 173.265947 169.792431 
L 173.900831 168.497007 
L 174.535716 166.762464 
L 175.1706 163.029912 
L 175.805485 165.335307 
L 176.440369 166.235505 
L 177.075254 165.796386 
L 177.710138 165.950079 
L 178.345023 163.227499 
L 178.979907 166.520958 
L 179.614792 161.844261 
L 180.249676 163.139685 
L 180.884561 163.93011 
L 181.519445 163.183605 
L 182.15433 158.506909 
L 182.789215 161.536875 
L 183.424099 167.399196 
L 184.058984 161.405142 
L 184.693868 158.682562 
L 185.328753 159.033868 
L 185.963637 161.339263 
L 186.598522 160.922103 
L 187.233406 159.011908 
L 187.868291 160.878184 
L 188.503175 159.977985 
L 189.13806 160.526904 
L 189.772944 158.792361 
L 190.407829 159.714519 
L 191.042713 159.60472 
L 191.677598 160.241452 
L 192.312482 160.153638 
L 192.947367 158.199523 
L 193.582251 159.912106 
L 194.85202 158.177563 
L 195.486905 157.540857 
L 196.121789 158.133669 
L 196.756674 159.011908 
L 197.391558 156.003901 
L 198.026443 156.267393 
L 198.661327 155.916088 
L 199.296212 154.92805 
L 199.931096 153.41308 
L 200.565981 155.345209 
L 201.200865 156.618673 
L 201.83575 153.061774 
L 202.470634 154.181545 
L 203.105519 152.666548 
L 204.375288 155.894128 
L 205.010173 153.742426 
L 205.645057 150.25138 
L 206.279942 154.049812 
L 206.914826 154.840237 
L 207.549711 148.363144 
L 208.184595 149.592688 
L 208.81948 152.029816 
L 209.454364 151.590697 
L 210.089249 152.315269 
L 210.724133 153.41308 
L 211.359018 147.04576 
L 212.628787 149.702461 
L 213.263671 150.778312 
L 213.898556 150.668539 
L 215.168325 146.189456 
L 215.803209 148.363144 
L 216.438094 148.538797 
L 217.072978 145.377097 
L 217.707863 147.375106 
L 218.342747 146.870108 
L 218.977632 149.329222 
L 219.612516 149.307262 
L 220.882285 146.760334 
L 221.51717 145.50883 
L 222.152054 145.311218 
L 222.786939 144.498833 
L 223.421823 147.397066 
L 224.056708 146.277295 
L 224.691592 145.420991 
L 225.326477 145.640563 
L 225.961362 143.818207 
L 226.596246 143.247329 
L 227.231131 144.411019 
L 227.866015 143.576675 
L 228.5009 142.149518 
L 229.135784 145.333177 
L 229.770669 141.776252 
L 230.405553 141.688439 
L 231.040438 141.754318 
L 231.675322 143.093636 
L 232.945091 141.117587 
L 233.579976 139.426937 
L 234.21486 139.71239 
L 234.849745 143.862101 
L 235.484629 140.129549 
L 236.119514 140.480855 
L 236.754398 139.383044 
L 237.389283 143.291249 
L 238.024167 138.285233 
L 238.659052 140.283242 
L 239.293936 137.165462 
L 239.928821 139.163471 
L 240.563705 138.0437 
L 241.19859 138.570659 
L 241.833474 142.171478 
L 242.468359 139.931936 
L 243.103243 136.48481 
L 243.738128 137.121542 
L 244.373012 136.792196 
L 245.007897 136.748276 
L 245.642781 135.628506 
L 246.277666 136.945889 
L 246.91255 137.055662 
L 247.547435 135.650466 
L 248.18232 136.660463 
L 248.817204 136.967849 
L 249.452089 135.474813 
L 250.086973 132.883991 
L 250.721858 135.935892 
L 251.356742 134.003762 
L 251.991627 133.213337 
L 253.261396 133.454844 
L 253.89628 131.149448 
L 254.531165 132.708338 
L 255.166049 132.071607 
L 255.800934 135.694385 
L 256.435818 134.574614 
L 257.070703 131.917914 
L 257.705587 133.169417 
L 258.340472 128.426868 
L 258.975356 134.442881 
L 259.610241 134.508761 
L 260.245125 131.259222 
L 260.88001 131.325101 
L 261.514894 131.80814 
L 262.149779 130.754223 
L 262.784663 129.480759 
L 263.419548 129.875985 
L 264.054432 127.899909 
L 264.689317 129.700332 
L 265.324201 129.744252 
L 265.959086 128.580561 
L 266.59397 129.283172 
L 267.228855 126.736245 
L 267.863739 128.382948 
L 268.498624 125.9019 
L 269.133509 127.50471 
L 269.768393 127.307097 
L 270.403278 127.614483 
L 271.038162 128.273175 
L 271.673047 126.538632 
L 272.307931 127.43883 
L 272.942816 129.327066 
L 273.5777 127.768176 
L 274.212585 126.999711 
L 274.847469 126.911898 
L 275.482354 124.32105 
L 276.752123 124.233237 
L 277.387007 123.486706 
L 278.021892 126.670365 
L 278.656776 124.650396 
L 279.291661 125.199315 
L 279.926545 125.023662 
L 280.56143 123.464772 
L 281.196314 122.78412 
L 282.466083 123.508665 
L 283.100968 123.662358 
L 283.735852 122.959773 
L 284.370737 123.113466 
L 285.005621 122.388895 
L 285.640506 120.720231 
L 286.27539 124.562583 
L 286.910275 121.708269 
L 287.545159 120.917844 
L 288.180044 118.283077 
L 288.814928 120.325006 
L 289.449813 121.335003 
L 290.084697 118.941769 
L 290.719582 119.424808 
L 291.354467 122.981733 
L 291.989351 121.774123 
L 292.624236 119.271115 
L 293.25912 117.514612 
L 293.894005 119.490687 
L 294.528889 118.656343 
L 295.163774 119.710234 
L 295.798658 120.478699 
L 296.433543 119.161341 
L 297.068427 115.670296 
L 297.703312 114.462685 
L 298.338196 118.656343 
L 298.973081 118.546569 
L 299.607965 119.161341 
L 300.24285 117.931797 
L 300.877734 116.438761 
L 301.512619 115.297056 
L 302.147503 115.670296 
L 302.782388 115.626376 
L 304.052157 118.45873 
L 304.687041 113.45274 
L 305.321926 118.48069 
L 305.95681 116.746147 
L 306.591695 114.638364 
L 307.861464 115.648362 
L 308.496348 112.618369 
L 309.131233 114.308992 
L 309.766117 112.794048 
L 310.401002 116.153335 
L 311.035886 113.299047 
L 311.670771 113.255127 
L 312.305656 114.638364 
L 312.94054 112.596436 
L 313.575425 111.827971 
L 314.210309 113.650301 
L 314.845194 109.149284 
L 315.480078 114.221205 
L 316.114963 115.03359 
L 316.749847 112.420757 
L 317.384732 114.265073 
L 318.019616 111.191212 
L 318.654501 109.654282 
L 319.289385 108.578431 
L 320.559154 110.137347 
L 321.194039 112.11337 
L 321.828923 110.137347 
L 322.463808 107.78798 
L 323.098692 111.059505 
L 323.733577 108.292979 
L 324.368461 107.941673 
L 325.003346 111.87189 
L 325.63823 108.380818 
L 326.273115 110.400814 
L 327.542884 108.688205 
L 328.177768 108.358885 
L 328.812653 112.398823 
L 329.447537 109.610363 
L 330.717306 105.131279 
L 331.352191 107.239114 
L 331.987075 104.231107 
L 332.62196 107.700193 
L 333.256844 106.953662 
L 333.891729 105.899744 
L 334.526614 107.019515 
L 335.161498 103.265029 
L 335.796383 105.394798 
L 336.431267 104.780026 
L 337.066152 107.5465 
L 337.701036 105.197185 
L 338.335921 105.92173 
L 338.970805 106.141277 
L 339.60569 103.879801 
L 340.240574 108.402805 
L 340.875459 101.354807 
L 341.510343 105.899744 
L 342.145228 103.352869 
L 343.414997 106.821955 
L 344.049881 103.572415 
L 344.684766 105.680198 
L 345.31965 103.330883 
L 345.954535 98.720093 
L 346.589419 103.308949 
L 347.224304 102.518498 
L 347.859188 102.013499 
L 348.494073 102.628271 
L 349.128957 102.079405 
L 349.763842 102.913724 
L 350.398726 101.288954 
L 351.033611 103.067417 
L 351.668495 101.793953 
L 352.30338 98.873786 
L 352.938264 100.300942 
L 353.573149 100.432649 
L 354.208033 101.903726 
L 354.842918 99.576397 
L 355.477803 96.546404 
L 356.112687 97.292936 
L 356.747572 99.290945 
L 358.017341 101.750033 
L 358.652225 97.358789 
L 359.28711 101.96958 
L 359.921994 100.081344 
L 360.556879 99.071398 
L 361.826648 98.698107 
L 362.461532 97.973561 
L 363.096417 100.783955 
L 363.731301 98.456626 
L 364.366186 100.959634 
L 365.00107 98.764012 
L 365.635955 98.8518 
L 366.270839 96.348792 
L 366.905724 96.261004 
L 367.540608 97.22703 
L 368.175493 94.219023 
L 369.445262 97.139243 
L 370.080146 96.98555 
L 370.715031 96.326858 
L 371.349915 97.885722 
L 371.9848 95.580327 
L 372.619684 96.392711 
L 373.254569 95.602313 
L 373.889453 96.700097 
L 374.524338 90.881697 
L 375.159222 93.86777 
L 375.794107 95.294927 
L 376.428991 95.865779 
L 377.063876 94.438622 
L 377.698761 94.943621 
L 378.333645 94.877715 
L 378.96853 93.626237 
L 379.603414 93.801864 
L 380.238299 95.382714 
L 380.873183 93.318851 
L 381.508068 96.436631 
L 382.142952 93.626237 
L 382.777837 93.604251 
L 384.047606 92.374707 
L 384.68249 94.877715 
L 385.317375 93.318851 
L 385.952259 92.61624 
L 386.587144 92.660159 
L 387.222028 92.48448 
L 387.856913 91.716015 
L 388.491797 91.320842 
L 389.126682 90.354764 
L 389.761566 92.243 
L 390.396451 91.057376 
L 391.031335 91.825841 
L 391.66622 92.989479 
L 392.301104 92.243 
L 392.935989 90.310845 
L 393.570873 90.552377 
L 394.205758 90.179085 
L 394.840642 89.41062 
L 395.475527 91.07931 
L 396.110411 88.224996 
L 396.745296 91.584308 
L 397.38018 91.606242 
L 398.015065 89.981472 
L 398.64995 90.749937 
L 399.284834 88.861702 
L 399.919719 86.534373 
L 400.554603 89.520393 
L 401.189488 87.939544 
L 401.824372 87.698063 
L 403.094141 89.893685 
L 403.729026 87.719997 
L 404.36391 88.334769 
L 404.998795 86.095227 
L 405.633679 85.831761 
L 406.268564 85.809827 
L 406.903448 87.039372 
L 407.538333 87.390677 
L 408.173217 87.083291 
L 408.808102 89.015395 
L 409.442986 85.546309 
L 410.077871 82.845741 
L 410.712755 87.654144 
L 411.34764 86.095227 
L 411.982524 87.171078 
L 412.617409 87.54437 
L 413.252293 82.670061 
L 413.887178 88.664141 
L 414.522062 83.438526 
L 415.156947 87.741983 
L 415.791831 84.206992 
L 416.426716 85.238923 
L 417.0616 85.151136 
L 417.696485 84.075285 
L 418.966254 85.151136 
L 419.601138 84.206992 
L 420.236023 84.646137 
L 420.870908 84.448524 
L 421.505792 82.01137 
L 422.775561 82.757901 
L 423.410446 84.470458 
L 424.04533 80.606199 
L 424.680215 82.340742 
L 425.315099 81.660064 
L 425.949984 82.516368 
L 426.584868 82.033356 
L 427.219753 80.803812 
L 427.854637 80.957505 
L 428.489522 81.835743 
L 429.124406 82.340742 
L 429.759291 81.308758 
L 430.394175 77.400579 
L 431.02906 80.584213 
L 431.663944 81.72597 
L 432.298829 82.165063 
L 432.933713 79.640121 
L 433.568598 80.979438 
L 434.203482 78.212964 
L 434.838367 79.135122 
L 435.473251 82.055289 
L 436.108136 80.672052 
L 436.74302 80.957505 
L 437.377905 80.210973 
L 438.012789 78.212964 
L 438.647674 77.751885 
L 439.282558 82.077223 
L 439.917443 80.3866 
L 441.187212 78.432511 
L 441.822097 76.719902 
L 442.456981 79.157056 
L 443.091866 77.576206 
L 443.72675 75.600183 
L 444.361635 78.76183 
L 444.996519 78.47643 
L 445.631404 74.52428 
L 446.266288 80.518359 
L 446.901173 75.534277 
L 447.536057 81.330744 
L 448.170942 77.839672 
L 448.805826 78.015351 
L 449.440711 76.654048 
L 450.075595 76.719902 
L 450.71048 76.632114 
L 451.345364 77.115127 
L 451.980249 76.566208 
L 452.615133 75.73189 
L 453.250018 73.931494 
L 453.884902 79.618135 
L 454.519787 75.226891 
L 455.789556 75.380584 
L 456.42444 76.390582 
L 457.059325 76.192969 
L 457.694209 74.370587 
L 458.329094 74.041267 
L 458.963978 73.141043 
L 459.598863 76.873595 
L 460.233747 72.789737 
L 460.868632 76.214955 
L 461.503516 71.626098 
L 462.138401 75.578197 
L 462.773285 72.899562 
L 463.40817 72.811723 
L 464.043055 70.813714 
L 464.677939 74.414506 
L 465.312824 73.184962 
L 465.947708 74.831666 
L 466.582593 72.855643 
L 467.852362 74.15104 
L 468.487246 73.86564 
L 469.122131 71.099114 
L 469.757015 72.153031 
L 470.3919 72.61411 
L 471.026784 73.558202 
L 472.296553 70.067182 
L 472.931438 70.98934 
L 473.566322 71.296726 
L 474.201207 70.572181 
L 474.836091 72.328658 
L 475.470976 69.78173 
L 476.10586 72.548257 
L 476.740745 70.396554 
L 477.375629 73.228882 
L 478.010514 71.208887 
L 478.645398 67.87156 
L 479.280283 67.147015 
L 479.915167 68.047187 
L 480.550052 67.454401 
L 481.184936 67.212869 
L 481.819821 67.300708 
L 482.454705 71.274793 
L 483.724474 68.135027 
L 484.359359 65.895485 
L 484.994244 66.444404 
L 485.629128 69.715877 
L 486.264013 69.913489 
L 486.898897 68.771785 
L 487.533782 67.9594 
L 488.168666 66.795709 
L 488.803551 66.861563 
L 489.438435 66.532243 
L 490.07332 65.741792 
L 490.708204 65.961391 
L 491.977973 67.9594 
L 492.612858 67.739801 
L 493.247742 63.348557 
L 493.882627 67.190935 
L 494.517511 64.600087 
L 495.78728 65.061166 
L 496.422165 66.33463 
L 497.057049 66.444404 
L 498.326818 65.895485 
L 498.961703 65.610085 
L 499.596587 65.895485 
L 500.231472 65.236793 
L 500.866356 62.294692 
L 502.136125 65.917471 
L 502.77101 66.488323 
L 503.405894 63.677929 
L 504.040779 66.42247 
L 504.675663 65.654005 
L 505.310548 65.412472 
L 505.945433 63.326624 
L 506.580317 67.630028 
L 507.215202 62.184919 
L 507.850086 67.015256 
L 508.484971 62.05316 
L 509.119855 64.051169 
L 509.75474 61.96532 
L 510.389624 63.304638 
L 511.024509 62.580092 
L 511.659393 65.03918 
L 512.294278 60.669923 
L 512.929162 63.875542 
L 513.564047 62.470319 
L 514.198931 62.997252 
L 514.833816 64.687927 
L 515.4687 62.250773 
L 516.103585 62.821625 
L 516.738469 60.735776 
L 517.373354 65.302699 
L 518.008238 61.987306 
L 518.643123 59.528166 
L 519.278007 61.833613 
L 519.912892 57.39845 
L 520.547776 59.594072 
L 521.817545 62.360546 
L 522.45243 58.715833 
L 523.087314 59.879472 
L 523.722199 59.330605 
L 524.357083 61.043162 
L 524.991968 62.00924 
L 526.261737 57.705836 
L 526.896621 56.98129 
L 527.531506 60.560149 
L 528.166391 62.031226 
L 528.801275 58.737767 
L 529.43616 60.09907 
L 530.071044 59.001233 
L 530.705929 59.176912 
L 531.340813 60.51623 
L 531.975698 60.033165 
L 532.610582 57.464303 
L 533.245467 56.783678 
L 533.880351 59.637991 
L 534.515236 58.276688 
L 535.15012 59.440379 
L 535.785005 56.739758 
L 536.419889 56.98129 
L 537.054774 58.869526 
L 537.689658 58.122995 
L 538.324543 58.057142 
L 538.959427 55.488228 
L 539.594312 58.122995 
L 540.229196 58.144929 
L 540.864081 58.408447 
L 541.498965 57.705836 
L 542.13385 57.244757 
L 543.403619 58.869526 
L 544.673388 58.122995 
L 545.308272 54.368457 
L 545.943157 53.292606 
L 546.578041 56.937371 
L 547.212926 54.895442 
L 547.84781 54.346523 
L 548.482695 56.322599 
L 549.752464 53.643912 
L 550.387349 53.687831 
L 551.022233 55.005215 
L 551.657118 55.071069 
L 552.292002 51.711756 
L 552.926887 56.761692 
L 553.561771 53.907378 
L 554.196656 53.490219 
L 554.83154 55.554134 
L 555.466425 54.23675 
L 556.101309 55.290615 
L 556.736194 53.358512 
L 557.371078 50.284599 
L 558.005963 52.853513 
L 558.640847 53.731751 
L 559.275732 51.601983 
L 559.910616 53.556072 
L 560.545501 53.973284 
L 561.180385 54.14891 
L 561.81527 51.558063 
L 562.450154 53.270672 
L 563.085039 53.929364 
L 563.719923 51.580049 
L 564.354808 52.721754 
L 564.989692 54.23675 
L 565.624577 53.709765 
L 566.259461 50.504198 
L 566.894346 53.007206 
L 567.52923 51.250677 
L 568.164115 54.258684 
L 568.798999 50.965277 
L 569.433884 52.172835 
L 570.068768 51.601983 
L 570.703653 52.238741 
L 571.338538 51.843515 
L 571.973422 49.077041 
L 572.608307 53.973284 
L 573.243191 49.801586 
L 573.878076 51.07505 
L 574.51296 47.518125 
L 575.147845 50.921357 
L 575.782729 52.348514 
L 576.417614 50.635905 
L 576.417614 50.635905 
" clip-path="url(#p876b184eb7)" style="fill: none; stroke: #ff7f0e; stroke-width: 1.5; stroke-linecap: square"/>
   </g>
   <g id="line2d_35">
    <path d="M 43.78125 551.518125 
L 601.78125 551.518125 
" clip-path="url(#p876b184eb7)" style="fill: none; stroke-dasharray: 11.1,4.8; stroke-dashoffset: 0; stroke: #ff0000; stroke-width: 3"/>
   </g>
   <g id="patch_3">
    <path d="M 43.78125 576.718125 
L 43.78125 22.318125 
" style="fill: none; stroke: #000000; stroke-width: 0.8; stroke-linejoin: miter; stroke-linecap: square"/>
   </g>
   <g id="patch_4">
    <path d="M 601.78125 576.718125 
L 601.78125 22.318125 
" style="fill: none; stroke: #000000; stroke-width: 0.8; stroke-linejoin: miter; stroke-linecap: square"/>
   </g>
   <g id="patch_5">
    <path d="M 43.78125 576.718125 
L 601.78125 576.718125 
" style="fill: none; stroke: #000000; stroke-width: 0.8; stroke-linejoin: miter; stroke-linecap: square"/>
   </g>
   <g id="patch_6">
    <path d="M 43.78125 22.318125 
L 601.78125 22.318125 
" style="fill: none; stroke: #000000; stroke-width: 0.8; stroke-linejoin: miter; stroke-linecap: square"/>
   </g>
   <g id="text_19">
    <!-- Train and Val Accuracy -->
    <g transform="translate(255.002813 16.318125) scale(0.12 -0.12)">
     <defs>
      <path id="DejaVuSans-54" d="M -19 4666 
L 3928 4666 
L 3928 4134 
L 2272 4134 
L 2272 0 
L 1638 0 
L 1638 4134 
L -19 4134 
L -19 4666 
z
" transform="scale(0.015625)"/>
      <path id="DejaVuSans-69" d="M 603 3500 
L 1178 3500 
L 1178 0 
L 603 0 
L 603 3500 
z
M 603 4863 
L 1178 4863 
L 1178 4134 
L 603 4134 
L 603 4863 
z
" transform="scale(0.015625)"/>
      <path id="DejaVuSans-6e" d="M 3513 2113 
L 3513 0 
L 2938 0 
L 2938 2094 
Q 2938 2591 2744 2837 
Q 2550 3084 2163 3084 
Q 1697 3084 1428 2787 
Q 1159 2491 1159 1978 
L 1159 0 
L 581 0 
L 581 3500 
L 1159 3500 
L 1159 2956 
Q 1366 3272 1645 3428 
Q 1925 3584 2291 3584 
Q 2894 3584 3203 3211 
Q 3513 2838 3513 2113 
z
" transform="scale(0.015625)"/>
      <path id="DejaVuSans-20" transform="scale(0.015625)"/>
      <path id="DejaVuSans-64" d="M 2906 2969 
L 2906 4863 
L 3481 4863 
L 3481 0 
L 2906 0 
L 2906 525 
Q 2725 213 2448 61 
Q 2172 -91 1784 -91 
Q 1150 -91 751 415 
Q 353 922 353 1747 
Q 353 2572 751 3078 
Q 1150 3584 1784 3584 
Q 2172 3584 2448 3432 
Q 2725 3281 2906 2969 
z
M 947 1747 
Q 947 1113 1208 752 
Q 1469 391 1925 391 
Q 2381 391 2643 752 
Q 2906 1113 2906 1747 
Q 2906 2381 2643 2742 
Q 2381 3103 1925 3103 
Q 1469 3103 1208 2742 
Q 947 2381 947 1747 
z
" transform="scale(0.015625)"/>
      <path id="DejaVuSans-56" d="M 1831 0 
L 50 4666 
L 709 4666 
L 2188 738 
L 3669 4666 
L 4325 4666 
L 2547 0 
L 1831 0 
z
" transform="scale(0.015625)"/>
      <path id="DejaVuSans-6c" d="M 603 4863 
L 1178 4863 
L 1178 0 
L 603 0 
L 603 4863 
z
" transform="scale(0.015625)"/>
     </defs>
     <use xlink:href="#DejaVuSans-54"/>
     <use xlink:href="#DejaVuSans-72" transform="translate(46.333984 0)"/>
     <use xlink:href="#DejaVuSans-61" transform="translate(87.447266 0)"/>
     <use xlink:href="#DejaVuSans-69" transform="translate(148.726562 0)"/>
     <use xlink:href="#DejaVuSans-6e" transform="translate(176.509766 0)"/>
     <use xlink:href="#DejaVuSans-20" transform="translate(239.888672 0)"/>
     <use xlink:href="#DejaVuSans-61" transform="translate(271.675781 0)"/>
     <use xlink:href="#DejaVuSans-6e" transform="translate(332.955078 0)"/>
     <use xlink:href="#DejaVuSans-64" transform="translate(396.333984 0)"/>
     <use xlink:href="#DejaVuSans-20" transform="translate(459.810547 0)"/>
     <use xlink:href="#DejaVuSans-56" transform="translate(491.597656 0)"/>
     <use xlink:href="#DejaVuSans-61" transform="translate(552.255859 0)"/>
     <use xlink:href="#DejaVuSans-6c" transform="translate(613.535156 0)"/>
     <use xlink:href="#DejaVuSans-20" transform="translate(641.318359 0)"/>
     <use xlink:href="#DejaVuSans-41" transform="translate(673.105469 0)"/>
     <use xlink:href="#DejaVuSans-63" transform="translate(739.763672 0)"/>
     <use xlink:href="#DejaVuSans-63" transform="translate(794.744141 0)"/>
     <use xlink:href="#DejaVuSans-75" transform="translate(849.724609 0)"/>
     <use xlink:href="#DejaVuSans-72" transform="translate(913.103516 0)"/>
     <use xlink:href="#DejaVuSans-61" transform="translate(954.216797 0)"/>
     <use xlink:href="#DejaVuSans-63" transform="translate(1015.496094 0)"/>
     <use xlink:href="#DejaVuSans-79" transform="translate(1070.476562 0)"/>
    </g>
   </g>
   <g id="legend_1">
    <g id="patch_7">
     <path d="M 50.78125 74.90875 
L 217.904687 74.90875 
Q 219.904687 74.90875 219.904687 72.90875 
L 219.904687 29.318125 
Q 219.904687 27.318125 217.904687 27.318125 
L 50.78125 27.318125 
Q 48.78125 27.318125 48.78125 29.318125 
L 48.78125 72.90875 
Q 48.78125 74.90875 50.78125 74.90875 
z
" style="fill: #ffffff; opacity: 0.8; stroke: #cccccc; stroke-linejoin: miter"/>
    </g>
    <g id="line2d_36">
     <path d="M 52.78125 35.416562 
L 62.78125 35.416562 
L 72.78125 35.416562 
" style="fill: none; stroke: #1f77b4; stroke-width: 1.5; stroke-linecap: square"/>
    </g>
    <g id="text_20">
     <!-- train_accuracy -->
     <g transform="translate(80.78125 38.916562) scale(0.1 -0.1)">
      <defs>
       <path id="DejaVuSans-74" d="M 1172 4494 
L 1172 3500 
L 2356 3500 
L 2356 3053 
L 1172 3053 
L 1172 1153 
Q 1172 725 1289 603 
Q 1406 481 1766 481 
L 2356 481 
L 2356 0 
L 1766 0 
Q 1100 0 847 248 
Q 594 497 594 1153 
L 594 3053 
L 172 3053 
L 172 3500 
L 594 3500 
L 594 4494 
L 1172 4494 
z
" transform="scale(0.015625)"/>
       <path id="DejaVuSans-5f" d="M 3263 -1063 
L 3263 -1509 
L -63 -1509 
L -63 -1063 
L 3263 -1063 
z
" transform="scale(0.015625)"/>
      </defs>
      <use xlink:href="#DejaVuSans-74"/>
      <use xlink:href="#DejaVuSans-72" transform="translate(39.208984 0)"/>
      <use xlink:href="#DejaVuSans-61" transform="translate(80.322266 0)"/>
      <use xlink:href="#DejaVuSans-69" transform="translate(141.601562 0)"/>
      <use xlink:href="#DejaVuSans-6e" transform="translate(169.384766 0)"/>
      <use xlink:href="#DejaVuSans-5f" transform="translate(232.763672 0)"/>
      <use xlink:href="#DejaVuSans-61" transform="translate(282.763672 0)"/>
      <use xlink:href="#DejaVuSans-63" transform="translate(344.042969 0)"/>
      <use xlink:href="#DejaVuSans-63" transform="translate(399.023438 0)"/>
      <use xlink:href="#DejaVuSans-75" transform="translate(454.003906 0)"/>
      <use xlink:href="#DejaVuSans-72" transform="translate(517.382812 0)"/>
      <use xlink:href="#DejaVuSans-61" transform="translate(558.496094 0)"/>
      <use xlink:href="#DejaVuSans-63" transform="translate(619.775391 0)"/>
      <use xlink:href="#DejaVuSans-79" transform="translate(674.755859 0)"/>
     </g>
    </g>
    <g id="line2d_37">
     <path d="M 52.78125 50.372812 
L 62.78125 50.372812 
L 72.78125 50.372812 
" style="fill: none; stroke: #ff7f0e; stroke-width: 1.5; stroke-linecap: square"/>
    </g>
    <g id="text_21">
     <!-- val_accuracy -->
     <g transform="translate(80.78125 53.872812) scale(0.1 -0.1)">
      <defs>
       <path id="DejaVuSans-76" d="M 191 3500 
L 800 3500 
L 1894 563 
L 2988 3500 
L 3597 3500 
L 2284 0 
L 1503 0 
L 191 3500 
z
" transform="scale(0.015625)"/>
      </defs>
      <use xlink:href="#DejaVuSans-76"/>
      <use xlink:href="#DejaVuSans-61" transform="translate(59.179688 0)"/>
      <use xlink:href="#DejaVuSans-6c" transform="translate(120.458984 0)"/>
      <use xlink:href="#DejaVuSans-5f" transform="translate(148.242188 0)"/>
      <use xlink:href="#DejaVuSans-61" transform="translate(198.242188 0)"/>
      <use xlink:href="#DejaVuSans-63" transform="translate(259.521484 0)"/>
      <use xlink:href="#DejaVuSans-63" transform="translate(314.501953 0)"/>
      <use xlink:href="#DejaVuSans-75" transform="translate(369.482422 0)"/>
      <use xlink:href="#DejaVuSans-72" transform="translate(432.861328 0)"/>
      <use xlink:href="#DejaVuSans-61" transform="translate(473.974609 0)"/>
      <use xlink:href="#DejaVuSans-63" transform="translate(535.253906 0)"/>
      <use xlink:href="#DejaVuSans-79" transform="translate(590.234375 0)"/>
     </g>
    </g>
    <g id="line2d_38">
     <path d="M 52.78125 65.329062 
L 62.78125 65.329062 
L 72.78125 65.329062 
" style="fill: none; stroke-dasharray: 11.1,4.8; stroke-dashoffset: 0; stroke: #ff0000; stroke-width: 3"/>
    </g>
    <g id="text_22">
     <!-- Random-Guesser Accuracy -->
     <g transform="translate(80.78125 68.829062) scale(0.1 -0.1)">
      <defs>
       <path id="DejaVuSans-52" d="M 2841 2188 
Q 3044 2119 3236 1894 
Q 3428 1669 3622 1275 
L 4263 0 
L 3584 0 
L 2988 1197 
Q 2756 1666 2539 1819 
Q 2322 1972 1947 1972 
L 1259 1972 
L 1259 0 
L 628 0 
L 628 4666 
L 2053 4666 
Q 2853 4666 3247 4331 
Q 3641 3997 3641 3322 
Q 3641 2881 3436 2590 
Q 3231 2300 2841 2188 
z
M 1259 4147 
L 1259 2491 
L 2053 2491 
Q 2509 2491 2742 2702 
Q 2975 2913 2975 3322 
Q 2975 3731 2742 3939 
Q 2509 4147 2053 4147 
L 1259 4147 
z
" transform="scale(0.015625)"/>
       <path id="DejaVuSans-6d" d="M 3328 2828 
Q 3544 3216 3844 3400 
Q 4144 3584 4550 3584 
Q 5097 3584 5394 3201 
Q 5691 2819 5691 2113 
L 5691 0 
L 5113 0 
L 5113 2094 
Q 5113 2597 4934 2840 
Q 4756 3084 4391 3084 
Q 3944 3084 3684 2787 
Q 3425 2491 3425 1978 
L 3425 0 
L 2847 0 
L 2847 2094 
Q 2847 2600 2669 2842 
Q 2491 3084 2119 3084 
Q 1678 3084 1418 2786 
Q 1159 2488 1159 1978 
L 1159 0 
L 581 0 
L 581 3500 
L 1159 3500 
L 1159 2956 
Q 1356 3278 1631 3431 
Q 1906 3584 2284 3584 
Q 2666 3584 2933 3390 
Q 3200 3197 3328 2828 
z
" transform="scale(0.015625)"/>
       <path id="DejaVuSans-2d" d="M 313 2009 
L 1997 2009 
L 1997 1497 
L 313 1497 
L 313 2009 
z
" transform="scale(0.015625)"/>
       <path id="DejaVuSans-47" d="M 3809 666 
L 3809 1919 
L 2778 1919 
L 2778 2438 
L 4434 2438 
L 4434 434 
Q 4069 175 3628 42 
Q 3188 -91 2688 -91 
Q 1594 -91 976 548 
Q 359 1188 359 2328 
Q 359 3472 976 4111 
Q 1594 4750 2688 4750 
Q 3144 4750 3555 4637 
Q 3966 4525 4313 4306 
L 4313 3634 
Q 3963 3931 3569 4081 
Q 3175 4231 2741 4231 
Q 1884 4231 1454 3753 
Q 1025 3275 1025 2328 
Q 1025 1384 1454 906 
Q 1884 428 2741 428 
Q 3075 428 3337 486 
Q 3600 544 3809 666 
z
" transform="scale(0.015625)"/>
       <path id="DejaVuSans-65" d="M 3597 1894 
L 3597 1613 
L 953 1613 
Q 991 1019 1311 708 
Q 1631 397 2203 397 
Q 2534 397 2845 478 
Q 3156 559 3463 722 
L 3463 178 
Q 3153 47 2828 -22 
Q 2503 -91 2169 -91 
Q 1331 -91 842 396 
Q 353 884 353 1716 
Q 353 2575 817 3079 
Q 1281 3584 2069 3584 
Q 2775 3584 3186 3129 
Q 3597 2675 3597 1894 
z
M 3022 2063 
Q 3016 2534 2758 2815 
Q 2500 3097 2075 3097 
Q 1594 3097 1305 2825 
Q 1016 2553 972 2059 
L 3022 2063 
z
" transform="scale(0.015625)"/>
      </defs>
      <use xlink:href="#DejaVuSans-52"/>
      <use xlink:href="#DejaVuSans-61" transform="translate(67.232422 0)"/>
      <use xlink:href="#DejaVuSans-6e" transform="translate(128.511719 0)"/>
      <use xlink:href="#DejaVuSans-64" transform="translate(191.890625 0)"/>
      <use xlink:href="#DejaVuSans-6f" transform="translate(255.367188 0)"/>
      <use xlink:href="#DejaVuSans-6d" transform="translate(316.548828 0)"/>
      <use xlink:href="#DejaVuSans-2d" transform="translate(413.960938 0)"/>
      <use xlink:href="#DejaVuSans-47" transform="translate(453.669922 0)"/>
      <use xlink:href="#DejaVuSans-75" transform="translate(531.160156 0)"/>
      <use xlink:href="#DejaVuSans-65" transform="translate(594.539062 0)"/>
      <use xlink:href="#DejaVuSans-73" transform="translate(656.0625 0)"/>
      <use xlink:href="#DejaVuSans-73" transform="translate(708.162109 0)"/>
      <use xlink:href="#DejaVuSans-65" transform="translate(760.261719 0)"/>
      <use xlink:href="#DejaVuSans-72" transform="translate(821.785156 0)"/>
      <use xlink:href="#DejaVuSans-20" transform="translate(862.898438 0)"/>
      <use xlink:href="#DejaVuSans-41" transform="translate(894.685547 0)"/>
      <use xlink:href="#DejaVuSans-63" transform="translate(961.34375 0)"/>
      <use xlink:href="#DejaVuSans-63" transform="translate(1016.324219 0)"/>
      <use xlink:href="#DejaVuSans-75" transform="translate(1071.304688 0)"/>
      <use xlink:href="#DejaVuSans-72" transform="translate(1134.683594 0)"/>
      <use xlink:href="#DejaVuSans-61" transform="translate(1175.796875 0)"/>
      <use xlink:href="#DejaVuSans-63" transform="translate(1237.076172 0)"/>
      <use xlink:href="#DejaVuSans-79" transform="translate(1292.056641 0)"/>
     </g>
    </g>
   </g>
  </g>
 </g>
 <defs>
  <clipPath id="p876b184eb7">
   <rect x="43.78125" y="22.318125" width="558" height="554.4"/>
  </clipPath>
 </defs>
</svg>
