<?xml version="1.0" encoding="utf-8" standalone="no"?>
<!DOCTYPE svg PUBLIC "-//W3C//DTD SVG 1.1//EN"
  "http://www.w3.org/Graphics/SVG/1.1/DTD/svg11.dtd">
<svg xmlns:xlink="http://www.w3.org/1999/xlink" width="608.98125pt" height="614.274375pt" viewBox="0 0 608.98125 614.274375" xmlns="http://www.w3.org/2000/svg" version="1.1">
 <metadata>
  <rdf:RDF xmlns:dc="http://purl.org/dc/elements/1.1/" xmlns:cc="http://creativecommons.org/ns#" xmlns:rdf="http://www.w3.org/1999/02/22-rdf-syntax-ns#">
   <cc:Work>
    <dc:type rdf:resource="http://purl.org/dc/dcmitype/StillImage"/>
    <dc:date>2026-05-24T13:49:18.264422</dc:date>
    <dc:format>image/svg+xml</dc:format>
    <dc:creator>
     <cc:Agent>
      <dc:title>Matplotlib v3.10.9, https://matplotlib.org/</dc:title>
     </cc:Agent>
    </dc:creator>
   </cc:Work>
  </rdf:RDF>
 </metadata>
 <defs>
  <style type="text/css">*{stroke-linejoin: round; stroke-linecap: butt}</style>
 </defs>
 <g id="figure_1">
  <g id="patch_1">
   <path d="M 0 614.274375 
L 608.98125 614.274375 
L 608.98125 0 
L 0 0 
z
" style="fill: #ffffff"/>
  </g>
  <g id="axes_1">
   <g id="patch_2">
    <path d="M 43.78125 576.718125 
L 601.78125 576.718125 
L 601.78125 22.318125 
L 43.78125 22.318125 
z
" style="fill: #ffffff"/>
   </g>
   <g id="matplotlib.axis_1">
    <g id="xtick_1">
     <g id="line2d_1">
      <path d="M 69.144886 576.718125 
L 69.144886 22.318125 
" clip-path="url(#p8c92d9e829)" style="fill: none; stroke: #b0b0b0; stroke-width: 0.8; stroke-linecap: square"/>
     </g>
     <g id="line2d_2">
      <defs>
       <path id="m789d3fb8d8" d="M 0 0 
L 0 3.5 
" style="stroke: #000000; stroke-width: 0.8"/>
      </defs>
      <g>
       <use xlink:href="#m789d3fb8d8" x="69.144886" y="576.718125" style="stroke: #000000; stroke-width: 0.8"/>
      </g>
     </g>
     <g id="text_1">
      <!-- 0 -->
      <g transform="translate(65.963636 591.316563) scale(0.1 -0.1)">
       <defs>
        <path id="DejaVuSans-30" d="M 2034 4250 
Q 1547 4250 1301 3770 
Q 1056 3291 1056 2328 
Q 1056 1369 1301 889 
Q 1547 409 2034 409 
Q 2525 409 2770 889 
Q 3016 1369 3016 2328 
Q 3016 3291 2770 3770 
Q 2525 4250 2034 4250 
z
M 2034 4750 
Q 2819 4750 3233 4129 
Q 3647 3509 3647 2328 
Q 3647 1150 3233 529 
Q 2819 -91 2034 -91 
Q 1250 -91 836 529 
Q 422 1150 422 2328 
Q 422 3509 836 4129 
Q 1250 4750 2034 4750 
z
" transform="scale(0.015625)"/>
       </defs>
       <use xlink:href="#DejaVuSans-30"/>
      </g>
     </g>
    </g>
    <g id="xtick_2">
     <g id="line2d_3">
      <path d="M 132.633338 576.718125 
L 132.633338 22.318125 
" clip-path="url(#p8c92d9e829)" style="fill: none; stroke: #b0b0b0; stroke-width: 0.8; stroke-linecap: square"/>
     </g>
     <g id="line2d_4">
      <g>
       <use xlink:href="#m789d3fb8d8" x="132.633338" y="576.718125" style="stroke: #000000; stroke-width: 0.8"/>
      </g>
     </g>
     <g id="text_2">
      <!-- 100 -->
      <g transform="translate(123.089588 591.316563) scale(0.1 -0.1)">
       <defs>
        <path id="DejaVuSans-31" d="M 794 531 
L 1825 531 
L 1825 4091 
L 703 3866 
L 703 4441 
L 1819 4666 
L 2450 4666 
L 2450 531 
L 3481 531 
L 3481 0 
L 794 0 
L 794 531 
z
" transform="scale(0.015625)"/>
       </defs>
       <use xlink:href="#DejaVuSans-31"/>
       <use xlink:href="#DejaVuSans-30" transform="translate(63.623047 0)"/>
       <use xlink:href="#DejaVuSans-30" transform="translate(127.246094 0)"/>
      </g>
     </g>
    </g>
    <g id="xtick_3">
     <g id="line2d_5">
      <path d="M 196.121789 576.718125 
L 196.121789 22.318125 
" clip-path="url(#p8c92d9e829)" style="fill: none; stroke: #b0b0b0; stroke-width: 0.8; stroke-linecap: square"/>
     </g>
     <g id="line2d_6">
      <g>
       <use xlink:href="#m789d3fb8d8" x="196.121789" y="576.718125" style="stroke: #000000; stroke-width: 0.8"/>
      </g>
     </g>
     <g id="text_3">
      <!-- 200 -->
      <g transform="translate(186.578039 591.316563) scale(0.1 -0.1)">
       <defs>
        <path id="DejaVuSans-32" d="M 1228 531 
L 3431 531 
L 3431 0 
L 469 0 
L 469 531 
Q 828 903 1448 1529 
Q 2069 2156 2228 2338 
Q 2531 2678 2651 2914 
Q 2772 3150 2772 3378 
Q 2772 3750 2511 3984 
Q 2250 4219 1831 4219 
Q 1534 4219 1204 4116 
Q 875 4013 500 3803 
L 500 4441 
Q 881 4594 1212 4672 
Q 1544 4750 1819 4750 
Q 2544 4750 2975 4387 
Q 3406 4025 3406 3419 
Q 3406 3131 3298 2873 
Q 3191 2616 2906 2266 
Q 2828 2175 2409 1742 
Q 1991 1309 1228 531 
z
" transform="scale(0.015625)"/>
       </defs>
       <use xlink:href="#DejaVuSans-32"/>
       <use xlink:href="#DejaVuSans-30" transform="translate(63.623047 0)"/>
       <use xlink:href="#DejaVuSans-30" transform="translate(127.246094 0)"/>
      </g>
     </g>
    </g>
    <g id="xtick_4">
     <g id="line2d_7">
      <path d="M 259.610241 576.718125 
L 259.610241 22.318125 
" clip-path="url(#p8c92d9e829)" style="fill: none; stroke: #b0b0b0; stroke-width: 0.8; stroke-linecap: square"/>
     </g>
     <g id="line2d_8">
      <g>
       <use xlink:href="#m789d3fb8d8" x="259.610241" y="576.718125" style="stroke: #000000; stroke-width: 0.8"/>
      </g>
     </g>
     <g id="text_4">
      <!-- 300 -->
      <g transform="translate(250.066491 591.316563) scale(0.1 -0.1)">
       <defs>
        <path id="DejaVuSans-33" d="M 2597 2516 
Q 3050 2419 3304 2112 
Q 3559 1806 3559 1356 
Q 3559 666 3084 287 
Q 2609 -91 1734 -91 
Q 1441 -91 1130 -33 
Q 819 25 488 141 
L 488 750 
Q 750 597 1062 519 
Q 1375 441 1716 441 
Q 2309 441 2620 675 
Q 2931 909 2931 1356 
Q 2931 1769 2642 2001 
Q 2353 2234 1838 2234 
L 1294 2234 
L 1294 2753 
L 1863 2753 
Q 2328 2753 2575 2939 
Q 2822 3125 2822 3475 
Q 2822 3834 2567 4026 
Q 2313 4219 1838 4219 
Q 1578 4219 1281 4162 
Q 984 4106 628 3988 
L 628 4550 
Q 988 4650 1302 4700 
Q 1616 4750 1894 4750 
Q 2613 4750 3031 4423 
Q 3450 4097 3450 3541 
Q 3450 3153 3228 2886 
Q 3006 2619 2597 2516 
z
" transform="scale(0.015625)"/>
       </defs>
       <use xlink:href="#DejaVuSans-33"/>
       <use xlink:href="#DejaVuSans-30" transform="translate(63.623047 0)"/>
       <use xlink:href="#DejaVuSans-30" transform="translate(127.246094 0)"/>
      </g>
     </g>
    </g>
    <g id="xtick_5">
     <g id="line2d_9">
      <path d="M 323.098692 576.718125 
L 323.098692 22.318125 
" clip-path="url(#p8c92d9e829)" style="fill: none; stroke: #b0b0b0; stroke-width: 0.8; stroke-linecap: square"/>
     </g>
     <g id="line2d_10">
      <g>
       <use xlink:href="#m789d3fb8d8" x="323.098692" y="576.718125" style="stroke: #000000; stroke-width: 0.8"/>
      </g>
     </g>
     <g id="text_5">
      <!-- 400 -->
      <g transform="translate(313.554942 591.316563) scale(0.1 -0.1)">
       <defs>
        <path id="DejaVuSans-34" d="M 2419 4116 
L 825 1625 
L 2419 1625 
L 2419 4116 
z
M 2253 4666 
L 3047 4666 
L 3047 1625 
L 3713 1625 
L 3713 1100 
L 3047 1100 
L 3047 0 
L 2419 0 
L 2419 1100 
L 313 1100 
L 313 1709 
L 2253 4666 
z
" transform="scale(0.015625)"/>
       </defs>
       <use xlink:href="#DejaVuSans-34"/>
       <use xlink:href="#DejaVuSans-30" transform="translate(63.623047 0)"/>
       <use xlink:href="#DejaVuSans-30" transform="translate(127.246094 0)"/>
      </g>
     </g>
    </g>
    <g id="xtick_6">
     <g id="line2d_11">
      <path d="M 386.587144 576.718125 
L 386.587144 22.318125 
" clip-path="url(#p8c92d9e829)" style="fill: none; stroke: #b0b0b0; stroke-width: 0.8; stroke-linecap: square"/>
     </g>
     <g id="line2d_12">
      <g>
       <use xlink:href="#m789d3fb8d8" x="386.587144" y="576.718125" style="stroke: #000000; stroke-width: 0.8"/>
      </g>
     </g>
     <g id="text_6">
      <!-- 500 -->
      <g transform="translate(377.043394 591.316563) scale(0.1 -0.1)">
       <defs>
        <path id="DejaVuSans-35" d="M 691 4666 
L 3169 4666 
L 3169 4134 
L 1269 4134 
L 1269 2991 
Q 1406 3038 1543 3061 
Q 1681 3084 1819 3084 
Q 2600 3084 3056 2656 
Q 3513 2228 3513 1497 
Q 3513 744 3044 326 
Q 2575 -91 1722 -91 
Q 1428 -91 1123 -41 
Q 819 9 494 109 
L 494 744 
Q 775 591 1075 516 
Q 1375 441 1709 441 
Q 2250 441 2565 725 
Q 2881 1009 2881 1497 
Q 2881 1984 2565 2268 
Q 2250 2553 1709 2553 
Q 1456 2553 1204 2497 
Q 953 2441 691 2322 
L 691 4666 
z
" transform="scale(0.015625)"/>
       </defs>
       <use xlink:href="#DejaVuSans-35"/>
       <use xlink:href="#DejaVuSans-30" transform="translate(63.623047 0)"/>
       <use xlink:href="#DejaVuSans-30" transform="translate(127.246094 0)"/>
      </g>
     </g>
    </g>
    <g id="xtick_7">
     <g id="line2d_13">
      <path d="M 450.075595 576.718125 
L 450.075595 22.318125 
" clip-path="url(#p8c92d9e829)" style="fill: none; stroke: #b0b0b0; stroke-width: 0.8; stroke-linecap: square"/>
     </g>
     <g id="line2d_14">
      <g>
       <use xlink:href="#m789d3fb8d8" x="450.075595" y="576.718125" style="stroke: #000000; stroke-width: 0.8"/>
      </g>
     </g>
     <g id="text_7">
      <!-- 600 -->
      <g transform="translate(440.531845 591.316563) scale(0.1 -0.1)">
       <defs>
        <path id="DejaVuSans-36" d="M 2113 2584 
Q 1688 2584 1439 2293 
Q 1191 2003 1191 1497 
Q 1191 994 1439 701 
Q 1688 409 2113 409 
Q 2538 409 2786 701 
Q 3034 994 3034 1497 
Q 3034 2003 2786 2293 
Q 2538 2584 2113 2584 
z
M 3366 4563 
L 3366 3988 
Q 3128 4100 2886 4159 
Q 2644 4219 2406 4219 
Q 1781 4219 1451 3797 
Q 1122 3375 1075 2522 
Q 1259 2794 1537 2939 
Q 1816 3084 2150 3084 
Q 2853 3084 3261 2657 
Q 3669 2231 3669 1497 
Q 3669 778 3244 343 
Q 2819 -91 2113 -91 
Q 1303 -91 875 529 
Q 447 1150 447 2328 
Q 447 3434 972 4092 
Q 1497 4750 2381 4750 
Q 2619 4750 2861 4703 
Q 3103 4656 3366 4563 
z
" transform="scale(0.015625)"/>
       </defs>
       <use xlink:href="#DejaVuSans-36"/>
       <use xlink:href="#DejaVuSans-30" transform="translate(63.623047 0)"/>
       <use xlink:href="#DejaVuSans-30" transform="translate(127.246094 0)"/>
      </g>
     </g>
    </g>
    <g id="xtick_8">
     <g id="line2d_15">
      <path d="M 513.564047 576.718125 
L 513.564047 22.318125 
" clip-path="url(#p8c92d9e829)" style="fill: none; stroke: #b0b0b0; stroke-width: 0.8; stroke-linecap: square"/>
     </g>
     <g id="line2d_16">
      <g>
       <use xlink:href="#m789d3fb8d8" x="513.564047" y="576.718125" style="stroke: #000000; stroke-width: 0.8"/>
      </g>
     </g>
     <g id="text_8">
      <!-- 700 -->
      <g transform="translate(504.020297 591.316563) scale(0.1 -0.1)">
       <defs>
        <path id="DejaVuSans-37" d="M 525 4666 
L 3525 4666 
L 3525 4397 
L 1831 0 
L 1172 0 
L 2766 4134 
L 525 4134 
L 525 4666 
z
" transform="scale(0.015625)"/>
       </defs>
       <use xlink:href="#DejaVuSans-37"/>
       <use xlink:href="#DejaVuSans-30" transform="translate(63.623047 0)"/>
       <use xlink:href="#DejaVuSans-30" transform="translate(127.246094 0)"/>
      </g>
     </g>
    </g>
    <g id="xtick_9">
     <g id="line2d_17">
      <path d="M 577.052498 576.718125 
L 577.052498 22.318125 
" clip-path="url(#p8c92d9e829)" style="fill: none; stroke: #b0b0b0; stroke-width: 0.8; stroke-linecap: square"/>
     </g>
     <g id="line2d_18">
      <g>
       <use xlink:href="#m789d3fb8d8" x="577.052498" y="576.718125" style="stroke: #000000; stroke-width: 0.8"/>
      </g>
     </g>
     <g id="text_9">
      <!-- 800 -->
      <g transform="translate(567.508748 591.316563) scale(0.1 -0.1)">
       <defs>
        <path id="DejaVuSans-38" d="M 2034 2216 
Q 1584 2216 1326 1975 
Q 1069 1734 1069 1313 
Q 1069 891 1326 650 
Q 1584 409 2034 409 
Q 2484 409 2743 651 
Q 3003 894 3003 1313 
Q 3003 1734 2745 1975 
Q 2488 2216 2034 2216 
z
M 1403 2484 
Q 997 2584 770 2862 
Q 544 3141 544 3541 
Q 544 4100 942 4425 
Q 1341 4750 2034 4750 
Q 2731 4750 3128 4425 
Q 3525 4100 3525 3541 
Q 3525 3141 3298 2862 
Q 3072 2584 2669 2484 
Q 3125 2378 3379 2068 
Q 3634 1759 3634 1313 
Q 3634 634 3220 271 
Q 2806 -91 2034 -91 
Q 1263 -91 848 271 
Q 434 634 434 1313 
Q 434 1759 690 2068 
Q 947 2378 1403 2484 
z
M 1172 3481 
Q 1172 3119 1398 2916 
Q 1625 2713 2034 2713 
Q 2441 2713 2670 2916 
Q 2900 3119 2900 3481 
Q 2900 3844 2670 4047 
Q 2441 4250 2034 4250 
Q 1625 4250 1398 4047 
Q 1172 3844 1172 3481 
z
" transform="scale(0.015625)"/>
       </defs>
       <use xlink:href="#DejaVuSans-38"/>
       <use xlink:href="#DejaVuSans-30" transform="translate(63.623047 0)"/>
       <use xlink:href="#DejaVuSans-30" transform="translate(127.246094 0)"/>
      </g>
     </g>
    </g>
    <g id="text_10">
     <!-- Epochs -->
     <g transform="translate(304.865625 604.994688) scale(0.1 -0.1)">
      <defs>
       <path id="DejaVuSans-45" d="M 628 4666 
L 3578 4666 
L 3578 4134 
L 1259 4134 
L 1259 2753 
L 3481 2753 
L 3481 2222 
L 1259 2222 
L 1259 531 
L 3634 531 
L 3634 0 
L 628 0 
L 628 4666 
z
" transform="scale(0.015625)"/>
       <path id="DejaVuSans-70" d="M 1159 525 
L 1159 -1331 
L 581 -1331 
L 581 3500 
L 1159 3500 
L 1159 2969 
Q 1341 3281 1617 3432 
Q 1894 3584 2278 3584 
Q 2916 3584 3314 3078 
Q 3713 2572 3713 1747 
Q 3713 922 3314 415 
Q 2916 -91 2278 -91 
Q 1894 -91 1617 61 
Q 1341 213 1159 525 
z
M 3116 1747 
Q 3116 2381 2855 2742 
Q 2594 3103 2138 3103 
Q 1681 3103 1420 2742 
Q 1159 2381 1159 1747 
Q 1159 1113 1420 752 
Q 1681 391 2138 391 
Q 2594 391 2855 752 
Q 3116 1113 3116 1747 
z
" transform="scale(0.015625)"/>
       <path id="DejaVuSans-6f" d="M 1959 3097 
Q 1497 3097 1228 2736 
Q 959 2375 959 1747 
Q 959 1119 1226 758 
Q 1494 397 1959 397 
Q 2419 397 2687 759 
Q 2956 1122 2956 1747 
Q 2956 2369 2687 2733 
Q 2419 3097 1959 3097 
z
M 1959 3584 
Q 2709 3584 3137 3096 
Q 3566 2609 3566 1747 
Q 3566 888 3137 398 
Q 2709 -91 1959 -91 
Q 1206 -91 779 398 
Q 353 888 353 1747 
Q 353 2609 779 3096 
Q 1206 3584 1959 3584 
z
" transform="scale(0.015625)"/>
       <path id="DejaVuSans-63" d="M 3122 3366 
L 3122 2828 
Q 2878 2963 2633 3030 
Q 2388 3097 2138 3097 
Q 1578 3097 1268 2742 
Q 959 2388 959 1747 
Q 959 1106 1268 751 
Q 1578 397 2138 397 
Q 2388 397 2633 464 
Q 2878 531 3122 666 
L 3122 134 
Q 2881 22 2623 -34 
Q 2366 -91 2075 -91 
Q 1284 -91 818 406 
Q 353 903 353 1747 
Q 353 2603 823 3093 
Q 1294 3584 2113 3584 
Q 2378 3584 2631 3529 
Q 2884 3475 3122 3366 
z
" transform="scale(0.015625)"/>
       <path id="DejaVuSans-68" d="M 3513 2113 
L 3513 0 
L 2938 0 
L 2938 2094 
Q 2938 2591 2744 2837 
Q 2550 3084 2163 3084 
Q 1697 3084 1428 2787 
Q 1159 2491 1159 1978 
L 1159 0 
L 581 0 
L 581 4863 
L 1159 4863 
L 1159 2956 
Q 1366 3272 1645 3428 
Q 1925 3584 2291 3584 
Q 2894 3584 3203 3211 
Q 3513 2838 3513 2113 
z
" transform="scale(0.015625)"/>
       <path id="DejaVuSans-73" d="M 2834 3397 
L 2834 2853 
Q 2591 2978 2328 3040 
Q 2066 3103 1784 3103 
Q 1356 3103 1142 2972 
Q 928 2841 928 2578 
Q 928 2378 1081 2264 
Q 1234 2150 1697 2047 
L 1894 2003 
Q 2506 1872 2764 1633 
Q 3022 1394 3022 966 
Q 3022 478 2636 193 
Q 2250 -91 1575 -91 
Q 1294 -91 989 -36 
Q 684 19 347 128 
L 347 722 
Q 666 556 975 473 
Q 1284 391 1588 391 
Q 1994 391 2212 530 
Q 2431 669 2431 922 
Q 2431 1156 2273 1281 
Q 2116 1406 1581 1522 
L 1381 1569 
Q 847 1681 609 1914 
Q 372 2147 372 2553 
Q 372 3047 722 3315 
Q 1072 3584 1716 3584 
Q 2034 3584 2315 3537 
Q 2597 3491 2834 3397 
z
" transform="scale(0.015625)"/>
      </defs>
      <use xlink:href="#DejaVuSans-45"/>
      <use xlink:href="#DejaVuSans-70" transform="translate(63.183594 0)"/>
      <use xlink:href="#DejaVuSans-6f" transform="translate(126.660156 0)"/>
      <use xlink:href="#DejaVuSans-63" transform="translate(187.841797 0)"/>
      <use xlink:href="#DejaVuSans-68" transform="translate(242.822266 0)"/>
      <use xlink:href="#DejaVuSans-73" transform="translate(306.201172 0)"/>
     </g>
    </g>
   </g>
   <g id="matplotlib.axis_2">
    <g id="ytick_1">
     <g id="line2d_19">
      <path d="M 43.78125 540.352489 
L 601.78125 540.352489 
" clip-path="url(#p8c92d9e829)" style="fill: none; stroke: #b0b0b0; stroke-width: 0.8; stroke-linecap: square"/>
     </g>
     <g id="line2d_20">
      <defs>
       <path id="mb0953daa12" d="M 0 0 
L -3.5 0 
" style="stroke: #000000; stroke-width: 0.8"/>
      </defs>
      <g>
       <use xlink:href="#mb0953daa12" x="43.78125" y="540.352489" style="stroke: #000000; stroke-width: 0.8"/>
      </g>
     </g>
     <g id="text_11">
      <!-- 4.0 -->
      <g transform="translate(20.878125 544.151707) scale(0.1 -0.1)">
       <defs>
        <path id="DejaVuSans-2e" d="M 684 794 
L 1344 794 
L 1344 0 
L 684 0 
L 684 794 
z
" transform="scale(0.015625)"/>
       </defs>
       <use xlink:href="#DejaVuSans-34"/>
       <use xlink:href="#DejaVuSans-2e" transform="translate(63.623047 0)"/>
       <use xlink:href="#DejaVuSans-30" transform="translate(95.410156 0)"/>
      </g>
     </g>
    </g>
    <g id="ytick_2">
     <g id="line2d_21">
      <path d="M 43.78125 466.480904 
L 601.78125 466.480904 
" clip-path="url(#p8c92d9e829)" style="fill: none; stroke: #b0b0b0; stroke-width: 0.8; stroke-linecap: square"/>
     </g>
     <g id="line2d_22">
      <g>
       <use xlink:href="#mb0953daa12" x="43.78125" y="466.480904" style="stroke: #000000; stroke-width: 0.8"/>
      </g>
     </g>
     <g id="text_12">
      <!-- 4.5 -->
      <g transform="translate(20.878125 470.280123) scale(0.1 -0.1)">
       <use xlink:href="#DejaVuSans-34"/>
       <use xlink:href="#DejaVuSans-2e" transform="translate(63.623047 0)"/>
       <use xlink:href="#DejaVuSans-35" transform="translate(95.410156 0)"/>
      </g>
     </g>
    </g>
    <g id="ytick_3">
     <g id="line2d_23">
      <path d="M 43.78125 392.609319 
L 601.78125 392.609319 
" clip-path="url(#p8c92d9e829)" style="fill: none; stroke: #b0b0b0; stroke-width: 0.8; stroke-linecap: square"/>
     </g>
     <g id="line2d_24">
      <g>
       <use xlink:href="#mb0953daa12" x="43.78125" y="392.609319" style="stroke: #000000; stroke-width: 0.8"/>
      </g>
     </g>
     <g id="text_13">
      <!-- 5.0 -->
      <g transform="translate(20.878125 396.408538) scale(0.1 -0.1)">
       <use xlink:href="#DejaVuSans-35"/>
       <use xlink:href="#DejaVuSans-2e" transform="translate(63.623047 0)"/>
       <use xlink:href="#DejaVuSans-30" transform="translate(95.410156 0)"/>
      </g>
     </g>
    </g>
    <g id="ytick_4">
     <g id="line2d_25">
      <path d="M 43.78125 318.737734 
L 601.78125 318.737734 
" clip-path="url(#p8c92d9e829)" style="fill: none; stroke: #b0b0b0; stroke-width: 0.8; stroke-linecap: square"/>
     </g>
     <g id="line2d_26">
      <g>
       <use xlink:href="#mb0953daa12" x="43.78125" y="318.737734" style="stroke: #000000; stroke-width: 0.8"/>
      </g>
     </g>
     <g id="text_14">
      <!-- 5.5 -->
      <g transform="translate(20.878125 322.536953) scale(0.1 -0.1)">
       <use xlink:href="#DejaVuSans-35"/>
       <use xlink:href="#DejaVuSans-2e" transform="translate(63.623047 0)"/>
       <use xlink:href="#DejaVuSans-35" transform="translate(95.410156 0)"/>
      </g>
     </g>
    </g>
    <g id="ytick_5">
     <g id="line2d_27">
      <path d="M 43.78125 244.866149 
L 601.78125 244.866149 
" clip-path="url(#p8c92d9e829)" style="fill: none; stroke: #b0b0b0; stroke-width: 0.8; stroke-linecap: square"/>
     </g>
     <g id="line2d_28">
      <g>
       <use xlink:href="#mb0953daa12" x="43.78125" y="244.866149" style="stroke: #000000; stroke-width: 0.8"/>
      </g>
     </g>
     <g id="text_15">
      <!-- 6.0 -->
      <g transform="translate(20.878125 248.665368) scale(0.1 -0.1)">
       <use xlink:href="#DejaVuSans-36"/>
       <use xlink:href="#DejaVuSans-2e" transform="translate(63.623047 0)"/>
       <use xlink:href="#DejaVuSans-30" transform="translate(95.410156 0)"/>
      </g>
     </g>
    </g>
    <g id="ytick_6">
     <g id="line2d_29">
      <path d="M 43.78125 170.994565 
L 601.78125 170.994565 
" clip-path="url(#p8c92d9e829)" style="fill: none; stroke: #b0b0b0; stroke-width: 0.8; stroke-linecap: square"/>
     </g>
     <g id="line2d_30">
      <g>
       <use xlink:href="#mb0953daa12" x="43.78125" y="170.994565" style="stroke: #000000; stroke-width: 0.8"/>
      </g>
     </g>
     <g id="text_16">
      <!-- 6.5 -->
      <g transform="translate(20.878125 174.793783) scale(0.1 -0.1)">
       <use xlink:href="#DejaVuSans-36"/>
       <use xlink:href="#DejaVuSans-2e" transform="translate(63.623047 0)"/>
       <use xlink:href="#DejaVuSans-35" transform="translate(95.410156 0)"/>
      </g>
     </g>
    </g>
    <g id="ytick_7">
     <g id="line2d_31">
      <path d="M 43.78125 97.12298 
L 601.78125 97.12298 
" clip-path="url(#p8c92d9e829)" style="fill: none; stroke: #b0b0b0; stroke-width: 0.8; stroke-linecap: square"/>
     </g>
     <g id="line2d_32">
      <g>
       <use xlink:href="#mb0953daa12" x="43.78125" y="97.12298" style="stroke: #000000; stroke-width: 0.8"/>
      </g>
     </g>
     <g id="text_17">
      <!-- 7.0 -->
      <g transform="translate(20.878125 100.922199) scale(0.1 -0.1)">
       <use xlink:href="#DejaVuSans-37"/>
       <use xlink:href="#DejaVuSans-2e" transform="translate(63.623047 0)"/>
       <use xlink:href="#DejaVuSans-30" transform="translate(95.410156 0)"/>
      </g>
     </g>
    </g>
    <g id="ytick_8">
     <g id="line2d_33">
      <path d="M 43.78125 23.251395 
L 601.78125 23.251395 
" clip-path="url(#p8c92d9e829)" style="fill: none; stroke: #b0b0b0; stroke-width: 0.8; stroke-linecap: square"/>
     </g>
     <g id="line2d_34">
      <g>
       <use xlink:href="#mb0953daa12" x="43.78125" y="23.251395" style="stroke: #000000; stroke-width: 0.8"/>
      </g>
     </g>
     <g id="text_18">
      <!-- 7.5 -->
      <g transform="translate(20.878125 27.050614) scale(0.1 -0.1)">
       <use xlink:href="#DejaVuSans-37"/>
       <use xlink:href="#DejaVuSans-2e" transform="translate(63.623047 0)"/>
       <use xlink:href="#DejaVuSans-35" transform="translate(95.410156 0)"/>
      </g>
     </g>
    </g>
    <g id="text_19">
     <!-- Loss -->
     <g transform="translate(14.798438 310.485313) rotate(-90) scale(0.1 -0.1)">
      <defs>
       <path id="DejaVuSans-4c" d="M 628 4666 
L 1259 4666 
L 1259 531 
L 3531 531 
L 3531 0 
L 628 0 
L 628 4666 
z
" transform="scale(0.015625)"/>
      </defs>
      <use xlink:href="#DejaVuSans-4c"/>
      <use xlink:href="#DejaVuSans-6f" transform="translate(53.962891 0)"/>
      <use xlink:href="#DejaVuSans-73" transform="translate(115.144531 0)"/>
      <use xlink:href="#DejaVuSans-73" transform="translate(167.244141 0)"/>
     </g>
    </g>
   </g>
   <g id="line2d_35">
    <path d="M 69.144886 310.527839 
L 69.779771 311.838269 
L 71.04954 312.510286 
L 77.398385 315.21801 
L 80.572808 316.911896 
L 84.382115 319.307952 
L 87.556537 321.588541 
L 91.365844 324.657177 
L 95.175151 328.116526 
L 98.984459 332.025343 
L 100.889112 334.09085 
L 104.698419 338.413204 
L 109.777495 344.051765 
L 113.586802 348.066045 
L 118.030994 352.567834 
L 125.649608 359.95657 
L 135.80776 369.296193 
L 149.140335 380.785791 
L 163.107795 392.010922 
L 165.647333 393.930669 
L 175.1706 401.072973 
L 184.058984 407.468936 
L 186.598522 409.193116 
L 188.503175 410.52313 
L 200.565981 418.614318 
L 203.105519 420.249731 
L 221.51717 431.623652 
L 241.833474 443.196873 
L 250.721858 447.936006 
L 273.5777 459.426098 
L 274.847469 460.018789 
L 279.291661 462.13354 
L 290.084697 467.099239 
L 291.354467 467.684814 
L 293.894005 468.794393 
L 299.607965 471.320287 
L 301.512619 472.129187 
L 303.417272 472.945133 
L 305.321926 473.744311 
L 309.131233 475.339991 
L 310.401002 475.859485 
L 316.114963 478.265967 
L 317.384732 478.732131 
L 318.654501 479.251273 
L 325.003346 481.792877 
L 326.273115 482.24946 
L 328.177768 483.051597 
L 335.161498 485.721208 
L 337.701036 486.690099 
L 341.510343 488.120997 
L 344.684766 489.322794 
L 347.859188 490.492325 
L 356.112687 493.459867 
L 359.28711 494.613828 
L 383.412721 502.844929 
L 385.317375 503.441283 
L 387.222028 504.087516 
L 391.031335 505.287833 
L 392.301104 505.733849 
L 408.173217 510.602398 
L 410.077871 511.204881 
L 411.982524 511.752062 
L 420.236023 514.227655 
L 421.505792 514.575323 
L 428.489522 516.561081 
L 430.394175 517.145811 
L 432.298829 517.649102 
L 435.473251 518.564452 
L 441.822097 520.29786 
L 444.996519 521.190102 
L 453.884902 523.570377 
L 455.154671 523.920863 
L 458.329094 524.760127 
L 459.598863 525.064962 
L 462.138401 525.760509 
L 463.40817 526.038855 
L 464.677939 526.420831 
L 467.217477 527.02247 
L 468.487246 527.405433 
L 500.866356 535.349663 
L 503.405894 535.870918 
L 505.310548 536.335955 
L 514.833816 538.539261 
L 516.738469 538.962028 
L 518.643123 539.365915 
L 523.087314 540.376124 
L 535.785005 543.189206 
L 537.054774 543.387274 
L 542.768734 544.612918 
L 547.84781 545.675648 
L 549.11758 545.965195 
L 563.719923 548.984129 
L 576.417614 551.518125 
L 576.417614 551.518125 
" clip-path="url(#p8c92d9e829)" style="fill: none; stroke: #1f77b4; stroke-width: 1.5; stroke-linecap: square"/>
   </g>
   <g id="line2d_36">
    <path d="M 69.144886 311.519133 
L 69.779771 311.700399 
L 71.684424 311.665879 
L 77.398385 311.10475 
L 83.74723 310.025605 
L 90.096075 308.348345 
L 90.73096 308.080989 
L 92.000729 307.820467 
L 93.270498 307.247009 
L 93.905382 307.055246 
L 94.540267 307.030166 
L 96.44492 306.515251 
L 97.079805 306.202737 
L 98.349574 305.97272 
L 101.523997 305.26118 
L 102.158881 305.167694 
L 103.42865 304.766344 
L 104.698419 304.632278 
L 105.968188 304.161887 
L 106.603073 304.136244 
L 107.237957 303.749265 
L 107.872842 303.836411 
L 111.047264 302.826166 
L 111.682149 302.436792 
L 112.317033 302.425661 
L 112.951918 301.918848 
L 114.221687 301.564699 
L 114.856571 301.510312 
L 116.12634 300.709865 
L 116.761225 300.659494 
L 119.935648 299.001819 
L 121.205417 298.587153 
L 121.840301 298.116551 
L 123.11007 297.643201 
L 123.744955 297.196975 
L 125.014724 296.824861 
L 126.284493 295.618344 
L 126.919377 295.390933 
L 127.554262 295.424608 
L 128.189146 295.113362 
L 128.824031 294.499255 
L 130.0938 294.033795 
L 130.728684 293.544453 
L 131.363569 293.279141 
L 133.268222 292.030777 
L 134.537991 291.400607 
L 135.172876 290.88858 
L 135.80776 290.648136 
L 136.442645 290.214097 
L 137.077529 289.966468 
L 137.712414 289.433306 
L 138.982183 288.655404 
L 139.617067 288.02312 
L 140.251952 287.884969 
L 142.156606 286.589756 
L 142.79149 286.197846 
L 143.426375 286.022145 
L 144.061259 285.434949 
L 144.696144 285.306167 
L 145.965913 284.297965 
L 146.600797 283.570645 
L 147.870566 283.181976 
L 148.505451 282.71863 
L 149.77522 282.09015 
L 150.410104 281.552762 
L 151.044989 280.636849 
L 151.679873 280.629593 
L 152.314758 280.391192 
L 152.949642 279.637947 
L 153.584527 279.347836 
L 154.219411 278.871105 
L 155.48918 278.266789 
L 156.124065 277.448308 
L 157.393834 276.732964 
L 158.028718 276.013041 
L 158.663603 275.756042 
L 159.933372 274.860277 
L 161.203141 274.534801 
L 161.838026 273.803184 
L 163.107795 272.913407 
L 163.742679 272.495219 
L 164.377564 272.275276 
L 165.012448 271.501037 
L 165.647333 271.469264 
L 166.282217 270.871712 
L 166.917102 270.096487 
L 167.551986 269.778971 
L 169.45664 268.125312 
L 170.091524 268.041829 
L 171.361293 267.01989 
L 171.996178 266.852361 
L 172.631062 266.087984 
L 173.265947 265.75504 
L 175.1706 264.421714 
L 175.805485 264.370357 
L 176.440369 263.281561 
L 177.075254 262.987223 
L 177.710138 262.505138 
L 178.345023 262.578405 
L 178.979907 261.643189 
L 179.614792 261.559565 
L 180.249676 260.985191 
L 180.884561 260.0225 
L 181.519445 260.27027 
L 182.15433 259.07573 
L 182.789215 258.913132 
L 183.424099 258.592094 
L 184.058984 257.562194 
L 184.693868 257.769668 
L 185.963637 256.868619 
L 186.598522 256.698554 
L 187.233406 255.915861 
L 187.868291 255.542409 
L 188.503175 254.613251 
L 189.13806 254.679403 
L 189.772944 253.994494 
L 190.407829 253.639147 
L 191.042713 253.453231 
L 191.677598 252.827288 
L 192.312482 252.656448 
L 192.947367 251.505445 
L 193.582251 251.483394 
L 194.217136 250.663715 
L 195.486905 250.427498 
L 196.121789 249.888137 
L 196.756674 248.902972 
L 197.391558 248.909102 
L 198.026443 248.320778 
L 198.661327 247.395707 
L 199.296212 246.876988 
L 199.931096 246.681279 
L 201.200865 245.845608 
L 201.83575 245.564022 
L 202.470634 244.820357 
L 203.105519 245.04185 
L 205.645057 243.092303 
L 206.279942 243.023192 
L 206.914826 241.70607 
L 207.549711 241.583065 
L 208.184595 241.072307 
L 208.81948 240.367953 
L 209.454364 240.192534 
L 210.089249 239.219627 
L 210.724133 239.490999 
L 211.359018 239.078517 
L 212.628787 237.821136 
L 213.263671 237.453249 
L 213.898556 236.744387 
L 215.168325 236.122318 
L 215.803209 235.79346 
L 216.438094 234.791035 
L 217.072978 234.536572 
L 217.707863 233.908304 
L 219.612516 233.072703 
L 220.247401 232.610625 
L 220.882285 232.338479 
L 221.51717 231.364304 
L 222.152054 231.195014 
L 222.786939 230.025201 
L 223.421823 230.301645 
L 225.961362 228.890402 
L 226.596246 227.974418 
L 227.231131 227.632034 
L 227.866015 226.589101 
L 228.5009 226.976502 
L 229.135784 226.616012 
L 230.405553 225.456908 
L 231.675322 224.626661 
L 233.579976 222.637099 
L 234.21486 223.236835 
L 234.849745 221.670251 
L 235.484629 221.833764 
L 236.119514 221.317863 
L 236.754398 220.962445 
L 237.389283 221.096581 
L 238.024167 219.691115 
L 238.659052 219.331612 
L 239.293936 218.213649 
L 239.928821 218.678123 
L 240.563705 217.817512 
L 241.19859 218.034356 
L 241.833474 217.023688 
L 242.468359 217.067085 
L 243.738128 216.333354 
L 244.373012 215.957365 
L 245.007897 215.157271 
L 245.642781 215.144802 
L 246.277666 214.007959 
L 246.91255 213.847898 
L 247.547435 213.093737 
L 248.18232 212.938044 
L 248.817204 212.483293 
L 249.452089 212.563464 
L 250.086973 211.820786 
L 250.721858 211.301644 
L 251.356742 211.417322 
L 252.626511 210.427085 
L 253.261396 209.544494 
L 253.89628 208.342275 
L 254.531165 209.571195 
L 255.166049 208.822599 
L 255.800934 207.456162 
L 256.435818 207.156893 
L 257.070703 207.111171 
L 257.705587 206.408861 
L 258.340472 206.932793 
L 259.610241 205.26441 
L 260.245125 205.007481 
L 260.88001 204.44311 
L 262.149779 204.095794 
L 262.784663 203.382564 
L 263.419548 202.472428 
L 264.689317 202.512443 
L 265.324201 202.061497 
L 265.959086 200.811301 
L 266.59397 200.816726 
L 267.863739 199.95534 
L 269.133509 199.479877 
L 269.768393 198.238065 
L 270.403278 198.221439 
L 271.038162 197.90815 
L 271.673047 197.387599 
L 272.307931 197.450581 
L 272.942816 196.826399 
L 273.5777 195.99883 
L 274.212585 196.706635 
L 274.847469 195.072842 
L 275.482354 195.730981 
L 276.752123 194.102542 
L 277.387007 194.202158 
L 278.021892 193.170778 
L 278.656776 193.234253 
L 279.291661 192.378081 
L 279.926545 191.128731 
L 280.56143 191.308659 
L 281.196314 190.995793 
L 281.831199 190.246422 
L 283.100968 189.669653 
L 283.735852 190.595922 
L 284.370737 188.713513 
L 285.005621 189.115709 
L 285.640506 188.436647 
L 286.27539 188.173729 
L 286.910275 186.993067 
L 287.545159 187.480014 
L 288.814928 186.669634 
L 290.084697 185.834879 
L 290.719582 185.301436 
L 291.354467 185.043097 
L 291.989351 185.406194 
L 292.624236 184.707054 
L 293.25912 184.294079 
L 293.894005 184.079842 
L 294.528889 183.080658 
L 295.163774 182.804214 
L 295.798658 182.35989 
L 296.433543 181.685337 
L 297.068427 181.851175 
L 297.703312 181.153514 
L 298.338196 181.425942 
L 298.973081 180.883129 
L 299.607965 180.103042 
L 300.24285 179.511901 
L 300.877734 178.340257 
L 301.512619 179.062997 
L 302.147503 178.060431 
L 302.782388 178.308625 
L 304.052157 176.340056 
L 304.687041 177.353894 
L 305.321926 177.333816 
L 305.95681 176.278695 
L 307.226579 175.615413 
L 307.861464 174.285046 
L 308.496348 174.581709 
L 309.131233 175.093594 
L 309.766117 174.125831 
L 310.401002 173.832338 
L 311.035886 173.084588 
L 311.670771 172.988636 
L 312.305656 171.533151 
L 312.94054 172.284705 
L 313.575425 171.801492 
L 314.210309 171.808115 
L 314.845194 169.860117 
L 315.480078 170.849721 
L 316.114963 170.37623 
L 316.749847 170.381795 
L 317.384732 169.363731 
L 318.019616 169.484552 
L 318.654501 168.056753 
L 319.289385 168.678046 
L 321.194039 167.306607 
L 321.828923 167.611724 
L 322.463808 166.7819 
L 323.098692 167.626236 
L 323.733577 165.650975 
L 324.368461 165.870214 
L 325.003346 165.306759 
L 325.63823 165.793353 
L 326.273115 164.489757 
L 326.907999 163.998654 
L 327.542884 165.047928 
L 328.177768 163.469931 
L 328.812653 163.206732 
L 330.082422 162.082289 
L 330.717306 161.852412 
L 331.352191 162.125263 
L 331.987075 161.778652 
L 333.256844 160.541489 
L 333.891729 160.434195 
L 334.526614 159.530469 
L 335.161498 158.867822 
L 335.796383 157.943314 
L 336.431267 158.154662 
L 337.066152 158.239131 
L 337.701036 157.713015 
L 338.970805 157.098062 
L 339.60569 156.995558 
L 340.240574 156.764343 
L 341.510343 155.601082 
L 342.145228 155.42362 
L 342.780112 155.86893 
L 343.414997 155.698866 
L 344.049881 154.705176 
L 344.684766 154.363074 
L 345.31965 153.814907 
L 345.954535 153.742767 
L 346.589419 153.433 
L 347.859188 151.92024 
L 348.494073 152.03 
L 349.128957 152.874407 
L 349.763842 151.425403 
L 351.033611 150.4954 
L 351.668495 150.177321 
L 352.30338 150.777198 
L 352.938264 150.634538 
L 353.573149 148.442292 
L 354.842918 148.788762 
L 356.112687 148.412351 
L 356.747572 147.80395 
L 357.382456 146.820687 
L 358.017341 146.282665 
L 358.652225 146.952005 
L 359.28711 146.179949 
L 360.556879 145.958104 
L 361.191763 144.592724 
L 361.826648 144.320225 
L 362.461532 145.214651 
L 363.096417 144.156078 
L 363.731301 143.54817 
L 364.366186 143.583254 
L 365.635955 143.264893 
L 366.270839 142.649094 
L 366.905724 143.777131 
L 368.175493 140.434587 
L 368.810377 140.808532 
L 369.445262 139.737912 
L 370.080146 140.145815 
L 370.715031 140.412184 
L 371.349915 139.228633 
L 371.9848 139.483238 
L 372.619684 140.075365 
L 373.254569 138.863917 
L 373.889453 138.9052 
L 374.524338 138.439811 
L 375.159222 138.182389 
L 375.794107 138.151391 
L 376.428991 136.755999 
L 377.063876 136.442147 
L 377.698761 134.888807 
L 378.333645 134.599331 
L 378.96853 136.909649 
L 379.603414 134.515496 
L 380.238299 134.379176 
L 380.873183 135.029847 
L 381.508068 134.762985 
L 382.142952 133.902727 
L 382.777837 133.302075 
L 383.412721 133.378231 
L 384.047606 132.347978 
L 384.68249 132.144591 
L 385.317375 131.462852 
L 385.952259 132.774902 
L 386.587144 132.41096 
L 387.856913 129.995249 
L 388.491797 129.972494 
L 389.126682 130.143827 
L 389.761566 130.747931 
L 390.396451 129.57058 
L 391.031335 128.087197 
L 391.66622 129.07208 
L 392.301104 128.973169 
L 392.935989 128.049929 
L 393.570873 127.966939 
L 394.205758 128.000121 
L 394.840642 127.6285 
L 395.475527 127.92319 
L 396.110411 125.638445 
L 396.745296 126.52653 
L 397.38018 126.090307 
L 398.015065 126.168858 
L 399.284834 124.544788 
L 399.919719 125.54841 
L 400.554603 124.654125 
L 401.189488 124.668286 
L 401.824372 123.872771 
L 402.459257 122.680343 
L 403.094141 123.306639 
L 403.729026 124.420867 
L 404.36391 122.319431 
L 404.998795 123.514747 
L 405.633679 122.371 
L 406.268564 120.957291 
L 406.903448 122.762276 
L 407.538333 121.154902 
L 408.173217 120.259419 
L 408.808102 120.932634 
L 409.442986 118.460211 
L 410.077871 120.343113 
L 410.712755 119.821153 
L 411.34764 118.417871 
L 411.982524 118.07288 
L 412.617409 119.67652 
L 413.252293 118.221599 
L 413.887178 118.708968 
L 414.522062 119.706321 
L 415.156947 117.34866 
L 416.426716 115.862952 
L 417.0616 116.463604 
L 417.696485 116.570475 
L 418.331369 117.156051 
L 418.966254 114.980502 
L 419.601138 115.848932 
L 420.236023 115.387136 
L 420.870908 115.162966 
L 421.505792 113.860286 
L 422.140677 113.206304 
L 422.775561 113.671129 
L 423.410446 113.944896 
L 424.04533 113.494512 
L 424.680215 112.073547 
L 425.315099 111.625137 
L 425.949984 111.93293 
L 426.584868 111.179826 
L 427.219753 112.336958 
L 427.854637 110.403332 
L 428.489522 110.15373 
L 429.124406 112.000139 
L 429.759291 110.611158 
L 430.394175 108.729594 
L 431.02906 109.708278 
L 431.663944 109.826703 
L 432.298829 109.443811 
L 432.933713 109.23056 
L 433.568598 109.453392 
L 434.203482 108.547905 
L 434.838367 108.516274 
L 435.473251 107.106721 
L 436.108136 107.353294 
L 436.74302 107.028241 
L 437.377905 106.503745 
L 438.012789 106.768775 
L 438.647674 107.460518 
L 439.282558 106.100422 
L 439.917443 104.417596 
L 440.552327 104.799714 
L 441.187212 103.714299 
L 441.822097 104.080777 
L 442.456981 104.124738 
L 443.091866 104.431052 
L 443.72675 103.057992 
L 444.361635 104.649093 
L 444.996519 103.45737 
L 445.631404 103.02312 
L 446.266288 101.4807 
L 447.536057 103.557338 
L 448.170942 102.662278 
L 448.805826 100.746828 
L 449.440711 100.223741 
L 450.075595 101.229055 
L 450.71048 99.920386 
L 451.345364 99.553485 
L 451.980249 101.345296 
L 452.615133 99.509595 
L 453.250018 98.026987 
L 453.884902 98.646238 
L 454.519787 99.462042 
L 455.154671 96.73276 
L 455.789556 98.046924 
L 456.42444 97.100929 
L 457.059325 97.553778 
L 457.694209 95.993887 
L 458.329094 95.63692 
L 458.963978 97.151864 
L 459.598863 96.893949 
L 460.233747 96.504293 
L 460.868632 95.903852 
L 461.503516 94.259985 
L 462.138401 95.029645 
L 463.40817 94.834923 
L 464.043055 95.567315 
L 464.677939 94.39088 
L 465.312824 94.231594 
L 465.947708 93.141178 
L 466.582593 93.346045 
L 467.217477 93.286726 
L 467.852362 93.836302 
L 468.487246 93.238116 
L 469.757015 91.188108 
L 471.026784 91.514078 
L 471.661669 90.573085 
L 472.296553 91.411644 
L 472.931438 89.940801 
L 473.566322 88.834604 
L 474.836091 89.182624 
L 475.470976 88.411767 
L 476.10586 89.354803 
L 476.740745 89.68986 
L 477.375629 89.272518 
L 478.010514 89.404751 
L 478.645398 86.487088 
L 479.280283 87.09246 
L 479.915167 88.159839 
L 480.550052 85.925747 
L 481.184936 87.435901 
L 481.819821 86.326322 
L 482.454705 87.373906 
L 483.08959 86.134489 
L 484.359359 85.856847 
L 485.629128 86.139772 
L 486.264013 84.657728 
L 486.898897 83.67524 
L 487.533782 83.427751 
L 488.168666 82.593137 
L 488.803551 84.371139 
L 489.438435 83.028021 
L 490.07332 82.239128 
L 490.708204 83.579217 
L 491.343089 81.645944 
L 492.612858 83.286923 
L 493.247742 82.871905 
L 493.882627 81.283975 
L 494.517511 80.583214 
L 495.78728 80.7754 
L 497.057049 79.328228 
L 497.691934 80.904675 
L 498.326818 79.765578 
L 498.961703 79.416853 
L 499.596587 78.28931 
L 500.231472 77.876688 
L 500.866356 78.788656 
L 501.501241 77.82054 
L 502.136125 77.224608 
L 502.77101 77.777988 
L 503.405894 77.34719 
L 504.040779 77.172546 
L 504.675663 74.722244 
L 505.310548 76.459245 
L 505.945433 75.227014 
L 506.580317 75.383482 
L 507.215202 76.273893 
L 507.850086 76.066912 
L 508.484971 73.6431 
L 509.119855 73.45972 
L 509.75474 75.22159 
L 510.389624 75.409549 
L 511.024509 75.3956 
L 511.659393 74.588461 
L 512.294278 74.745774 
L 512.929162 73.43943 
L 513.564047 73.559899 
L 514.198931 71.592951 
L 514.833816 72.066089 
L 515.4687 71.998458 
L 516.103585 72.232279 
L 516.738469 72.142034 
L 517.373354 69.703779 
L 518.008238 70.574463 
L 518.643123 71.929065 
L 519.278007 71.893277 
L 519.912892 70.46273 
L 520.547776 70.050883 
L 521.182661 69.10524 
L 521.817545 69.9798 
L 522.45243 67.761417 
L 523.087314 69.610926 
L 523.722199 69.735199 
L 524.357083 68.971668 
L 524.991968 67.783961 
L 525.626852 68.692829 
L 526.261737 67.78847 
L 526.896621 70.307108 
L 527.531506 66.979358 
L 528.166391 67.713653 
L 528.801275 68.679867 
L 529.43616 65.873091 
L 530.071044 66.743634 
L 530.705929 66.070349 
L 531.340813 67.946488 
L 531.975698 66.103601 
L 532.610582 66.60337 
L 533.245467 66.788088 
L 533.880351 64.464947 
L 534.515236 62.78501 
L 535.15012 63.116334 
L 535.785005 65.67238 
L 536.419889 63.238986 
L 537.054774 63.109148 
L 537.689658 61.122967 
L 538.324543 63.765314 
L 538.959427 62.901745 
L 539.594312 63.866832 
L 540.229196 62.475808 
L 540.864081 61.882201 
L 541.498965 61.76758 
L 542.13385 62.418462 
L 542.768734 61.37574 
L 543.403619 59.836279 
L 544.038503 60.003174 
L 544.673388 60.375076 
L 545.308272 58.205234 
L 545.943157 60.517173 
L 546.578041 59.788162 
L 547.212926 57.88483 
L 547.84781 60.758885 
L 548.482695 58.401576 
L 549.11758 59.144113 
L 549.752464 57.186535 
L 550.387349 56.624701 
L 551.022233 58.865556 
L 551.657118 56.927704 
L 552.292002 58.120412 
L 552.926887 58.857595 
L 553.561771 57.492497 
L 554.196656 56.929676 
L 554.83154 55.345339 
L 555.466425 56.319514 
L 556.736194 54.156505 
L 557.371078 55.147446 
L 558.005963 55.251148 
L 558.640847 54.691145 
L 559.275732 53.523657 
L 559.910616 53.312732 
L 560.545501 54.291556 
L 561.180385 53.476104 
L 561.81527 55.040081 
L 562.450154 53.054112 
L 563.085039 53.371487 
L 563.719923 51.871195 
L 564.354808 54.418295 
L 564.989692 52.264796 
L 565.624577 52.355535 
L 566.259461 51.752418 
L 566.894346 51.85774 
L 567.52923 50.914704 
L 568.798999 52.098606 
L 569.433884 51.134788 
L 570.068768 49.295635 
L 570.703653 50.082343 
L 571.338538 48.971779 
L 571.973422 50.446426 
L 572.608307 48.945571 
L 573.243191 50.81692 
L 573.878076 49.537065 
L 574.51296 48.65384 
L 575.147845 47.518125 
L 575.782729 47.545248 
L 576.417614 49.024968 
L 576.417614 49.024968 
" clip-path="url(#p8c92d9e829)" style="fill: none; stroke: #ff7f0e; stroke-width: 1.5; stroke-linecap: square"/>
   </g>
   <g id="patch_3">
    <path d="M 43.78125 576.718125 
L 43.78125 22.318125 
" style="fill: none; stroke: #000000; stroke-width: 0.8; stroke-linejoin: miter; stroke-linecap: square"/>
   </g>
   <g id="patch_4">
    <path d="M 601.78125 576.718125 
L 601.78125 22.318125 
" style="fill: none; stroke: #000000; stroke-width: 0.8; stroke-linejoin: miter; stroke-linecap: square"/>
   </g>
   <g id="patch_5">
    <path d="M 43.78125 576.718125 
L 601.78125 576.718125 
" style="fill: none; stroke: #000000; stroke-width: 0.8; stroke-linejoin: miter; stroke-linecap: square"/>
   </g>
   <g id="patch_6">
    <path d="M 43.78125 22.318125 
L 601.78125 22.318125 
" style="fill: none; stroke: #000000; stroke-width: 0.8; stroke-linejoin: miter; stroke-linecap: square"/>
   </g>
   <g id="text_20">
    <!-- Train and Val Loss -->
    <g transform="translate(269.235937 16.318125) scale(0.12 -0.12)">
     <defs>
      <path id="DejaVuSans-54" d="M -19 4666 
L 3928 4666 
L 3928 4134 
L 2272 4134 
L 2272 0 
L 1638 0 
L 1638 4134 
L -19 4134 
L -19 4666 
z
" transform="scale(0.015625)"/>
      <path id="DejaVuSans-72" d="M 2631 2963 
Q 2534 3019 2420 3045 
Q 2306 3072 2169 3072 
Q 1681 3072 1420 2755 
Q 1159 2438 1159 1844 
L 1159 0 
L 581 0 
L 581 3500 
L 1159 3500 
L 1159 2956 
Q 1341 3275 1631 3429 
Q 1922 3584 2338 3584 
Q 2397 3584 2469 3576 
Q 2541 3569 2628 3553 
L 2631 2963 
z
" transform="scale(0.015625)"/>
      <path id="DejaVuSans-61" d="M 2194 1759 
Q 1497 1759 1228 1600 
Q 959 1441 959 1056 
Q 959 750 1161 570 
Q 1363 391 1709 391 
Q 2188 391 2477 730 
Q 2766 1069 2766 1631 
L 2766 1759 
L 2194 1759 
z
M 3341 1997 
L 3341 0 
L 2766 0 
L 2766 531 
Q 2569 213 2275 61 
Q 1981 -91 1556 -91 
Q 1019 -91 701 211 
Q 384 513 384 1019 
Q 384 1609 779 1909 
Q 1175 2209 1959 2209 
L 2766 2209 
L 2766 2266 
Q 2766 2663 2505 2880 
Q 2244 3097 1772 3097 
Q 1472 3097 1187 3025 
Q 903 2953 641 2809 
L 641 3341 
Q 956 3463 1253 3523 
Q 1550 3584 1831 3584 
Q 2591 3584 2966 3190 
Q 3341 2797 3341 1997 
z
" transform="scale(0.015625)"/>
      <path id="DejaVuSans-69" d="M 603 3500 
L 1178 3500 
L 1178 0 
L 603 0 
L 603 3500 
z
M 603 4863 
L 1178 4863 
L 1178 4134 
L 603 4134 
L 603 4863 
z
" transform="scale(0.015625)"/>
      <path id="DejaVuSans-6e" d="M 3513 2113 
L 3513 0 
L 2938 0 
L 2938 2094 
Q 2938 2591 2744 2837 
Q 2550 3084 2163 3084 
Q 1697 3084 1428 2787 
Q 1159 2491 1159 1978 
L 1159 0 
L 581 0 
L 581 3500 
L 1159 3500 
L 1159 2956 
Q 1366 3272 1645 3428 
Q 1925 3584 2291 3584 
Q 2894 3584 3203 3211 
Q 3513 2838 3513 2113 
z
" transform="scale(0.015625)"/>
      <path id="DejaVuSans-20" transform="scale(0.015625)"/>
      <path id="DejaVuSans-64" d="M 2906 2969 
L 2906 4863 
L 3481 4863 
L 3481 0 
L 2906 0 
L 2906 525 
Q 2725 213 2448 61 
Q 2172 -91 1784 -91 
Q 1150 -91 751 415 
Q 353 922 353 1747 
Q 353 2572 751 3078 
Q 1150 3584 1784 3584 
Q 2172 3584 2448 3432 
Q 2725 3281 2906 2969 
z
M 947 1747 
Q 947 1113 1208 752 
Q 1469 391 1925 391 
Q 2381 391 2643 752 
Q 2906 1113 2906 1747 
Q 2906 2381 2643 2742 
Q 2381 3103 1925 3103 
Q 1469 3103 1208 2742 
Q 947 2381 947 1747 
z
" transform="scale(0.015625)"/>
      <path id="DejaVuSans-56" d="M 1831 0 
L 50 4666 
L 709 4666 
L 2188 738 
L 3669 4666 
L 4325 4666 
L 2547 0 
L 1831 0 
z
" transform="scale(0.015625)"/>
      <path id="DejaVuSans-6c" d="M 603 4863 
L 1178 4863 
L 1178 0 
L 603 0 
L 603 4863 
z
" transform="scale(0.015625)"/>
     </defs>
     <use xlink:href="#DejaVuSans-54"/>
     <use xlink:href="#DejaVuSans-72" transform="translate(46.333984 0)"/>
     <use xlink:href="#DejaVuSans-61" transform="translate(87.447266 0)"/>
     <use xlink:href="#DejaVuSans-69" transform="translate(148.726562 0)"/>
     <use xlink:href="#DejaVuSans-6e" transform="translate(176.509766 0)"/>
     <use xlink:href="#DejaVuSans-20" transform="translate(239.888672 0)"/>
     <use xlink:href="#DejaVuSans-61" transform="translate(271.675781 0)"/>
     <use xlink:href="#DejaVuSans-6e" transform="translate(332.955078 0)"/>
     <use xlink:href="#DejaVuSans-64" transform="translate(396.333984 0)"/>
     <use xlink:href="#DejaVuSans-20" transform="translate(459.810547 0)"/>
     <use xlink:href="#DejaVuSans-56" transform="translate(491.597656 0)"/>
     <use xlink:href="#DejaVuSans-61" transform="translate(552.255859 0)"/>
     <use xlink:href="#DejaVuSans-6c" transform="translate(613.535156 0)"/>
     <use xlink:href="#DejaVuSans-20" transform="translate(641.318359 0)"/>
     <use xlink:href="#DejaVuSans-4c" transform="translate(673.105469 0)"/>
     <use xlink:href="#DejaVuSans-6f" transform="translate(727.068359 0)"/>
     <use xlink:href="#DejaVuSans-73" transform="translate(788.25 0)"/>
     <use xlink:href="#DejaVuSans-73" transform="translate(840.349609 0)"/>
    </g>
   </g>
   <g id="legend_1">
    <g id="patch_7">
     <path d="M 50.78125 60.230625 
L 130.371875 60.230625 
Q 132.371875 60.230625 132.371875 58.230625 
L 132.371875 29.318125 
Q 132.371875 27.318125 130.371875 27.318125 
L 50.78125 27.318125 
Q 48.78125 27.318125 48.78125 29.318125 
L 48.78125 58.230625 
Q 48.78125 60.230625 50.78125 60.230625 
z
" style="fill: #ffffff; opacity: 0.8; stroke: #cccccc; stroke-linejoin: miter"/>
    </g>
    <g id="line2d_37">
     <path d="M 52.78125 35.416563 
L 62.78125 35.416563 
L 72.78125 35.416563 
" style="fill: none; stroke: #1f77b4; stroke-width: 1.5; stroke-linecap: square"/>
    </g>
    <g id="text_21">
     <!-- train_loss -->
     <g transform="translate(80.78125 38.916563) scale(0.1 -0.1)">
      <defs>
       <path id="DejaVuSans-74" d="M 1172 4494 
L 1172 3500 
L 2356 3500 
L 2356 3053 
L 1172 3053 
L 1172 1153 
Q 1172 725 1289 603 
Q 1406 481 1766 481 
L 2356 481 
L 2356 0 
L 1766 0 
Q 1100 0 847 248 
Q 594 497 594 1153 
L 594 3053 
L 172 3053 
L 172 3500 
L 594 3500 
L 594 4494 
L 1172 4494 
z
" transform="scale(0.015625)"/>
       <path id="DejaVuSans-5f" d="M 3263 -1063 
L 3263 -1509 
L -63 -1509 
L -63 -1063 
L 3263 -1063 
z
" transform="scale(0.015625)"/>
      </defs>
      <use xlink:href="#DejaVuSans-74"/>
      <use xlink:href="#DejaVuSans-72" transform="translate(39.208984 0)"/>
      <use xlink:href="#DejaVuSans-61" transform="translate(80.322266 0)"/>
      <use xlink:href="#DejaVuSans-69" transform="translate(141.601562 0)"/>
      <use xlink:href="#DejaVuSans-6e" transform="translate(169.384766 0)"/>
      <use xlink:href="#DejaVuSans-5f" transform="translate(232.763672 0)"/>
      <use xlink:href="#DejaVuSans-6c" transform="translate(282.763672 0)"/>
      <use xlink:href="#DejaVuSans-6f" transform="translate(310.546875 0)"/>
      <use xlink:href="#DejaVuSans-73" transform="translate(371.728516 0)"/>
      <use xlink:href="#DejaVuSans-73" transform="translate(423.828125 0)"/>
     </g>
    </g>
    <g id="line2d_38">
     <path d="M 52.78125 50.372813 
L 62.78125 50.372813 
L 72.78125 50.372813 
" style="fill: none; stroke: #ff7f0e; stroke-width: 1.5; stroke-linecap: square"/>
    </g>
    <g id="text_22">
     <!-- val_loss -->
     <g transform="translate(80.78125 53.872813) scale(0.1 -0.1)">
      <defs>
       <path id="DejaVuSans-76" d="M 191 3500 
L 800 3500 
L 1894 563 
L 2988 3500 
L 3597 3500 
L 2284 0 
L 1503 0 
L 191 3500 
z
" transform="scale(0.015625)"/>
      </defs>
      <use xlink:href="#DejaVuSans-76"/>
      <use xlink:href="#DejaVuSans-61" transform="translate(59.179688 0)"/>
      <use xlink:href="#DejaVuSans-6c" transform="translate(120.458984 0)"/>
      <use xlink:href="#DejaVuSans-5f" transform="translate(148.242188 0)"/>
      <use xlink:href="#DejaVuSans-6c" transform="translate(198.242188 0)"/>
      <use xlink:href="#DejaVuSans-6f" transform="translate(226.025391 0)"/>
      <use xlink:href="#DejaVuSans-73" transform="translate(287.207031 0)"/>
      <use xlink:href="#DejaVuSans-73" transform="translate(339.306641 0)"/>
     </g>
    </g>
   </g>
  </g>
 </g>
 <defs>
  <clipPath id="p8c92d9e829">
   <rect x="43.78125" y="22.318125" width="558" height="554.4"/>
  </clipPath>
 </defs>
</svg>
