<?xml version="1.0" encoding="utf-8" standalone="no"?>
<!DOCTYPE svg PUBLIC "-//W3C//DTD SVG 1.1//EN"
  "http://www.w3.org/Graphics/SVG/1.1/DTD/svg11.dtd">
<svg xmlns:xlink="http://www.w3.org/1999/xlink" width="621.70625pt" height="614.274375pt" viewBox="0 0 621.70625 614.274375" xmlns="http://www.w3.org/2000/svg" version="1.1">
 <metadata>
  <rdf:RDF xmlns:dc="http://purl.org/dc/elements/1.1/" xmlns:cc="http://creativecommons.org/ns#" xmlns:rdf="http://www.w3.org/1999/02/22-rdf-syntax-ns#">
   <cc:Work>
    <dc:type rdf:resource="http://purl.org/dc/dcmitype/StillImage"/>
    <dc:date>2026-05-24T13:49:20.235436</dc:date>
    <dc:format>image/svg+xml</dc:format>
    <dc:creator>
     <cc:Agent>
      <dc:title>Matplotlib v3.10.9, https://matplotlib.org/</dc:title>
     </cc:Agent>
    </dc:creator>
   </cc:Work>
  </rdf:RDF>
 </metadata>
 <defs>
  <style type="text/css">*{stroke-linejoin: round; stroke-linecap: butt}</style>
 </defs>
 <g id="figure_1">
  <g id="patch_1">
   <path d="M 0 614.274375 
L 621.70625 614.274375 
L 621.70625 0 
L 0 0 
z
" style="fill: #ffffff"/>
  </g>
  <g id="axes_1">
   <g id="patch_2">
    <path d="M 56.50625 576.718125 
L 614.50625 576.718125 
L 614.50625 22.318125 
L 56.50625 22.318125 
z
" style="fill: #ffffff"/>
   </g>
   <g id="matplotlib.axis_1">
    <g id="xtick_1">
     <g id="line2d_1">
      <path d="M 81.869886 576.718125 
L 81.869886 22.318125 
" clip-path="url(#p45a23a3c67)" style="fill: none; stroke: #b0b0b0; stroke-width: 0.8; stroke-linecap: square"/>
     </g>
     <g id="line2d_2">
      <defs>
       <path id="m926c8e6fea" d="M 0 0 
L 0 3.5 
" style="stroke: #000000; stroke-width: 0.8"/>
      </defs>
      <g>
       <use xlink:href="#m926c8e6fea" x="81.869886" y="576.718125" style="stroke: #000000; stroke-width: 0.8"/>
      </g>
     </g>
     <g id="text_1">
      <!-- 0 -->
      <g transform="translate(78.688636 591.316563) scale(0.1 -0.1)">
       <defs>
        <path id="DejaVuSans-30" d="M 2034 4250 
Q 1547 4250 1301 3770 
Q 1056 3291 1056 2328 
Q 1056 1369 1301 889 
Q 1547 409 2034 409 
Q 2525 409 2770 889 
Q 3016 1369 3016 2328 
Q 3016 3291 2770 3770 
Q 2525 4250 2034 4250 
z
M 2034 4750 
Q 2819 4750 3233 4129 
Q 3647 3509 3647 2328 
Q 3647 1150 3233 529 
Q 2819 -91 2034 -91 
Q 1250 -91 836 529 
Q 422 1150 422 2328 
Q 422 3509 836 4129 
Q 1250 4750 2034 4750 
z
" transform="scale(0.015625)"/>
       </defs>
       <use xlink:href="#DejaVuSans-30"/>
      </g>
     </g>
    </g>
    <g id="xtick_2">
     <g id="line2d_3">
      <path d="M 145.358338 576.718125 
L 145.358338 22.318125 
" clip-path="url(#p45a23a3c67)" style="fill: none; stroke: #b0b0b0; stroke-width: 0.8; stroke-linecap: square"/>
     </g>
     <g id="line2d_4">
      <g>
       <use xlink:href="#m926c8e6fea" x="145.358338" y="576.718125" style="stroke: #000000; stroke-width: 0.8"/>
      </g>
     </g>
     <g id="text_2">
      <!-- 100 -->
      <g transform="translate(135.814588 591.316563) scale(0.1 -0.1)">
       <defs>
        <path id="DejaVuSans-31" d="M 794 531 
L 1825 531 
L 1825 4091 
L 703 3866 
L 703 4441 
L 1819 4666 
L 2450 4666 
L 2450 531 
L 3481 531 
L 3481 0 
L 794 0 
L 794 531 
z
" transform="scale(0.015625)"/>
       </defs>
       <use xlink:href="#DejaVuSans-31"/>
       <use xlink:href="#DejaVuSans-30" transform="translate(63.623047 0)"/>
       <use xlink:href="#DejaVuSans-30" transform="translate(127.246094 0)"/>
      </g>
     </g>
    </g>
    <g id="xtick_3">
     <g id="line2d_5">
      <path d="M 208.846789 576.718125 
L 208.846789 22.318125 
" clip-path="url(#p45a23a3c67)" style="fill: none; stroke: #b0b0b0; stroke-width: 0.8; stroke-linecap: square"/>
     </g>
     <g id="line2d_6">
      <g>
       <use xlink:href="#m926c8e6fea" x="208.846789" y="576.718125" style="stroke: #000000; stroke-width: 0.8"/>
      </g>
     </g>
     <g id="text_3">
      <!-- 200 -->
      <g transform="translate(199.303039 591.316563) scale(0.1 -0.1)">
       <defs>
        <path id="DejaVuSans-32" d="M 1228 531 
L 3431 531 
L 3431 0 
L 469 0 
L 469 531 
Q 828 903 1448 1529 
Q 2069 2156 2228 2338 
Q 2531 2678 2651 2914 
Q 2772 3150 2772 3378 
Q 2772 3750 2511 3984 
Q 2250 4219 1831 4219 
Q 1534 4219 1204 4116 
Q 875 4013 500 3803 
L 500 4441 
Q 881 4594 1212 4672 
Q 1544 4750 1819 4750 
Q 2544 4750 2975 4387 
Q 3406 4025 3406 3419 
Q 3406 3131 3298 2873 
Q 3191 2616 2906 2266 
Q 2828 2175 2409 1742 
Q 1991 1309 1228 531 
z
" transform="scale(0.015625)"/>
       </defs>
       <use xlink:href="#DejaVuSans-32"/>
       <use xlink:href="#DejaVuSans-30" transform="translate(63.623047 0)"/>
       <use xlink:href="#DejaVuSans-30" transform="translate(127.246094 0)"/>
      </g>
     </g>
    </g>
    <g id="xtick_4">
     <g id="line2d_7">
      <path d="M 272.335241 576.718125 
L 272.335241 22.318125 
" clip-path="url(#p45a23a3c67)" style="fill: none; stroke: #b0b0b0; stroke-width: 0.8; stroke-linecap: square"/>
     </g>
     <g id="line2d_8">
      <g>
       <use xlink:href="#m926c8e6fea" x="272.335241" y="576.718125" style="stroke: #000000; stroke-width: 0.8"/>
      </g>
     </g>
     <g id="text_4">
      <!-- 300 -->
      <g transform="translate(262.791491 591.316563) scale(0.1 -0.1)">
       <defs>
        <path id="DejaVuSans-33" d="M 2597 2516 
Q 3050 2419 3304 2112 
Q 3559 1806 3559 1356 
Q 3559 666 3084 287 
Q 2609 -91 1734 -91 
Q 1441 -91 1130 -33 
Q 819 25 488 141 
L 488 750 
Q 750 597 1062 519 
Q 1375 441 1716 441 
Q 2309 441 2620 675 
Q 2931 909 2931 1356 
Q 2931 1769 2642 2001 
Q 2353 2234 1838 2234 
L 1294 2234 
L 1294 2753 
L 1863 2753 
Q 2328 2753 2575 2939 
Q 2822 3125 2822 3475 
Q 2822 3834 2567 4026 
Q 2313 4219 1838 4219 
Q 1578 4219 1281 4162 
Q 984 4106 628 3988 
L 628 4550 
Q 988 4650 1302 4700 
Q 1616 4750 1894 4750 
Q 2613 4750 3031 4423 
Q 3450 4097 3450 3541 
Q 3450 3153 3228 2886 
Q 3006 2619 2597 2516 
z
" transform="scale(0.015625)"/>
       </defs>
       <use xlink:href="#DejaVuSans-33"/>
       <use xlink:href="#DejaVuSans-30" transform="translate(63.623047 0)"/>
       <use xlink:href="#DejaVuSans-30" transform="translate(127.246094 0)"/>
      </g>
     </g>
    </g>
    <g id="xtick_5">
     <g id="line2d_9">
      <path d="M 335.823692 576.718125 
L 335.823692 22.318125 
" clip-path="url(#p45a23a3c67)" style="fill: none; stroke: #b0b0b0; stroke-width: 0.8; stroke-linecap: square"/>
     </g>
     <g id="line2d_10">
      <g>
       <use xlink:href="#m926c8e6fea" x="335.823692" y="576.718125" style="stroke: #000000; stroke-width: 0.8"/>
      </g>
     </g>
     <g id="text_5">
      <!-- 400 -->
      <g transform="translate(326.279942 591.316563) scale(0.1 -0.1)">
       <defs>
        <path id="DejaVuSans-34" d="M 2419 4116 
L 825 1625 
L 2419 1625 
L 2419 4116 
z
M 2253 4666 
L 3047 4666 
L 3047 1625 
L 3713 1625 
L 3713 1100 
L 3047 1100 
L 3047 0 
L 2419 0 
L 2419 1100 
L 313 1100 
L 313 1709 
L 2253 4666 
z
" transform="scale(0.015625)"/>
       </defs>
       <use xlink:href="#DejaVuSans-34"/>
       <use xlink:href="#DejaVuSans-30" transform="translate(63.623047 0)"/>
       <use xlink:href="#DejaVuSans-30" transform="translate(127.246094 0)"/>
      </g>
     </g>
    </g>
    <g id="xtick_6">
     <g id="line2d_11">
      <path d="M 399.312144 576.718125 
L 399.312144 22.318125 
" clip-path="url(#p45a23a3c67)" style="fill: none; stroke: #b0b0b0; stroke-width: 0.8; stroke-linecap: square"/>
     </g>
     <g id="line2d_12">
      <g>
       <use xlink:href="#m926c8e6fea" x="399.312144" y="576.718125" style="stroke: #000000; stroke-width: 0.8"/>
      </g>
     </g>
     <g id="text_6">
      <!-- 500 -->
      <g transform="translate(389.768394 591.316563) scale(0.1 -0.1)">
       <defs>
        <path id="DejaVuSans-35" d="M 691 4666 
L 3169 4666 
L 3169 4134 
L 1269 4134 
L 1269 2991 
Q 1406 3038 1543 3061 
Q 1681 3084 1819 3084 
Q 2600 3084 3056 2656 
Q 3513 2228 3513 1497 
Q 3513 744 3044 326 
Q 2575 -91 1722 -91 
Q 1428 -91 1123 -41 
Q 819 9 494 109 
L 494 744 
Q 775 591 1075 516 
Q 1375 441 1709 441 
Q 2250 441 2565 725 
Q 2881 1009 2881 1497 
Q 2881 1984 2565 2268 
Q 2250 2553 1709 2553 
Q 1456 2553 1204 2497 
Q 953 2441 691 2322 
L 691 4666 
z
" transform="scale(0.015625)"/>
       </defs>
       <use xlink:href="#DejaVuSans-35"/>
       <use xlink:href="#DejaVuSans-30" transform="translate(63.623047 0)"/>
       <use xlink:href="#DejaVuSans-30" transform="translate(127.246094 0)"/>
      </g>
     </g>
    </g>
    <g id="xtick_7">
     <g id="line2d_13">
      <path d="M 462.800595 576.718125 
L 462.800595 22.318125 
" clip-path="url(#p45a23a3c67)" style="fill: none; stroke: #b0b0b0; stroke-width: 0.8; stroke-linecap: square"/>
     </g>
     <g id="line2d_14">
      <g>
       <use xlink:href="#m926c8e6fea" x="462.800595" y="576.718125" style="stroke: #000000; stroke-width: 0.8"/>
      </g>
     </g>
     <g id="text_7">
      <!-- 600 -->
      <g transform="translate(453.256845 591.316563) scale(0.1 -0.1)">
       <defs>
        <path id="DejaVuSans-36" d="M 2113 2584 
Q 1688 2584 1439 2293 
Q 1191 2003 1191 1497 
Q 1191 994 1439 701 
Q 1688 409 2113 409 
Q 2538 409 2786 701 
Q 3034 994 3034 1497 
Q 3034 2003 2786 2293 
Q 2538 2584 2113 2584 
z
M 3366 4563 
L 3366 3988 
Q 3128 4100 2886 4159 
Q 2644 4219 2406 4219 
Q 1781 4219 1451 3797 
Q 1122 3375 1075 2522 
Q 1259 2794 1537 2939 
Q 1816 3084 2150 3084 
Q 2853 3084 3261 2657 
Q 3669 2231 3669 1497 
Q 3669 778 3244 343 
Q 2819 -91 2113 -91 
Q 1303 -91 875 529 
Q 447 1150 447 2328 
Q 447 3434 972 4092 
Q 1497 4750 2381 4750 
Q 2619 4750 2861 4703 
Q 3103 4656 3366 4563 
z
" transform="scale(0.015625)"/>
       </defs>
       <use xlink:href="#DejaVuSans-36"/>
       <use xlink:href="#DejaVuSans-30" transform="translate(63.623047 0)"/>
       <use xlink:href="#DejaVuSans-30" transform="translate(127.246094 0)"/>
      </g>
     </g>
    </g>
    <g id="xtick_8">
     <g id="line2d_15">
      <path d="M 526.289047 576.718125 
L 526.289047 22.318125 
" clip-path="url(#p45a23a3c67)" style="fill: none; stroke: #b0b0b0; stroke-width: 0.8; stroke-linecap: square"/>
     </g>
     <g id="line2d_16">
      <g>
       <use xlink:href="#m926c8e6fea" x="526.289047" y="576.718125" style="stroke: #000000; stroke-width: 0.8"/>
      </g>
     </g>
     <g id="text_8">
      <!-- 700 -->
      <g transform="translate(516.745297 591.316563) scale(0.1 -0.1)">
       <defs>
        <path id="DejaVuSans-37" d="M 525 4666 
L 3525 4666 
L 3525 4397 
L 1831 0 
L 1172 0 
L 2766 4134 
L 525 4134 
L 525 4666 
z
" transform="scale(0.015625)"/>
       </defs>
       <use xlink:href="#DejaVuSans-37"/>
       <use xlink:href="#DejaVuSans-30" transform="translate(63.623047 0)"/>
       <use xlink:href="#DejaVuSans-30" transform="translate(127.246094 0)"/>
      </g>
     </g>
    </g>
    <g id="xtick_9">
     <g id="line2d_17">
      <path d="M 589.777498 576.718125 
L 589.777498 22.318125 
" clip-path="url(#p45a23a3c67)" style="fill: none; stroke: #b0b0b0; stroke-width: 0.8; stroke-linecap: square"/>
     </g>
     <g id="line2d_18">
      <g>
       <use xlink:href="#m926c8e6fea" x="589.777498" y="576.718125" style="stroke: #000000; stroke-width: 0.8"/>
      </g>
     </g>
     <g id="text_9">
      <!-- 800 -->
      <g transform="translate(580.233748 591.316563) scale(0.1 -0.1)">
       <defs>
        <path id="DejaVuSans-38" d="M 2034 2216 
Q 1584 2216 1326 1975 
Q 1069 1734 1069 1313 
Q 1069 891 1326 650 
Q 1584 409 2034 409 
Q 2484 409 2743 651 
Q 3003 894 3003 1313 
Q 3003 1734 2745 1975 
Q 2488 2216 2034 2216 
z
M 1403 2484 
Q 997 2584 770 2862 
Q 544 3141 544 3541 
Q 544 4100 942 4425 
Q 1341 4750 2034 4750 
Q 2731 4750 3128 4425 
Q 3525 4100 3525 3541 
Q 3525 3141 3298 2862 
Q 3072 2584 2669 2484 
Q 3125 2378 3379 2068 
Q 3634 1759 3634 1313 
Q 3634 634 3220 271 
Q 2806 -91 2034 -91 
Q 1263 -91 848 271 
Q 434 634 434 1313 
Q 434 1759 690 2068 
Q 947 2378 1403 2484 
z
M 1172 3481 
Q 1172 3119 1398 2916 
Q 1625 2713 2034 2713 
Q 2441 2713 2670 2916 
Q 2900 3119 2900 3481 
Q 2900 3844 2670 4047 
Q 2441 4250 2034 4250 
Q 1625 4250 1398 4047 
Q 1172 3844 1172 3481 
z
" transform="scale(0.015625)"/>
       </defs>
       <use xlink:href="#DejaVuSans-38"/>
       <use xlink:href="#DejaVuSans-30" transform="translate(63.623047 0)"/>
       <use xlink:href="#DejaVuSans-30" transform="translate(127.246094 0)"/>
      </g>
     </g>
    </g>
    <g id="text_10">
     <!-- Epochs -->
     <g transform="translate(317.590625 604.994688) scale(0.1 -0.1)">
      <defs>
       <path id="DejaVuSans-45" d="M 628 4666 
L 3578 4666 
L 3578 4134 
L 1259 4134 
L 1259 2753 
L 3481 2753 
L 3481 2222 
L 1259 2222 
L 1259 531 
L 3634 531 
L 3634 0 
L 628 0 
L 628 4666 
z
" transform="scale(0.015625)"/>
       <path id="DejaVuSans-70" d="M 1159 525 
L 1159 -1331 
L 581 -1331 
L 581 3500 
L 1159 3500 
L 1159 2969 
Q 1341 3281 1617 3432 
Q 1894 3584 2278 3584 
Q 2916 3584 3314 3078 
Q 3713 2572 3713 1747 
Q 3713 922 3314 415 
Q 2916 -91 2278 -91 
Q 1894 -91 1617 61 
Q 1341 213 1159 525 
z
M 3116 1747 
Q 3116 2381 2855 2742 
Q 2594 3103 2138 3103 
Q 1681 3103 1420 2742 
Q 1159 2381 1159 1747 
Q 1159 1113 1420 752 
Q 1681 391 2138 391 
Q 2594 391 2855 752 
Q 3116 1113 3116 1747 
z
" transform="scale(0.015625)"/>
       <path id="DejaVuSans-6f" d="M 1959 3097 
Q 1497 3097 1228 2736 
Q 959 2375 959 1747 
Q 959 1119 1226 758 
Q 1494 397 1959 397 
Q 2419 397 2687 759 
Q 2956 1122 2956 1747 
Q 2956 2369 2687 2733 
Q 2419 3097 1959 3097 
z
M 1959 3584 
Q 2709 3584 3137 3096 
Q 3566 2609 3566 1747 
Q 3566 888 3137 398 
Q 2709 -91 1959 -91 
Q 1206 -91 779 398 
Q 353 888 353 1747 
Q 353 2609 779 3096 
Q 1206 3584 1959 3584 
z
" transform="scale(0.015625)"/>
       <path id="DejaVuSans-63" d="M 3122 3366 
L 3122 2828 
Q 2878 2963 2633 3030 
Q 2388 3097 2138 3097 
Q 1578 3097 1268 2742 
Q 959 2388 959 1747 
Q 959 1106 1268 751 
Q 1578 397 2138 397 
Q 2388 397 2633 464 
Q 2878 531 3122 666 
L 3122 134 
Q 2881 22 2623 -34 
Q 2366 -91 2075 -91 
Q 1284 -91 818 406 
Q 353 903 353 1747 
Q 353 2603 823 3093 
Q 1294 3584 2113 3584 
Q 2378 3584 2631 3529 
Q 2884 3475 3122 3366 
z
" transform="scale(0.015625)"/>
       <path id="DejaVuSans-68" d="M 3513 2113 
L 3513 0 
L 2938 0 
L 2938 2094 
Q 2938 2591 2744 2837 
Q 2550 3084 2163 3084 
Q 1697 3084 1428 2787 
Q 1159 2491 1159 1978 
L 1159 0 
L 581 0 
L 581 4863 
L 1159 4863 
L 1159 2956 
Q 1366 3272 1645 3428 
Q 1925 3584 2291 3584 
Q 2894 3584 3203 3211 
Q 3513 2838 3513 2113 
z
" transform="scale(0.015625)"/>
       <path id="DejaVuSans-73" d="M 2834 3397 
L 2834 2853 
Q 2591 2978 2328 3040 
Q 2066 3103 1784 3103 
Q 1356 3103 1142 2972 
Q 928 2841 928 2578 
Q 928 2378 1081 2264 
Q 1234 2150 1697 2047 
L 1894 2003 
Q 2506 1872 2764 1633 
Q 3022 1394 3022 966 
Q 3022 478 2636 193 
Q 2250 -91 1575 -91 
Q 1294 -91 989 -36 
Q 684 19 347 128 
L 347 722 
Q 666 556 975 473 
Q 1284 391 1588 391 
Q 1994 391 2212 530 
Q 2431 669 2431 922 
Q 2431 1156 2273 1281 
Q 2116 1406 1581 1522 
L 1381 1569 
Q 847 1681 609 1914 
Q 372 2147 372 2553 
Q 372 3047 722 3315 
Q 1072 3584 1716 3584 
Q 2034 3584 2315 3537 
Q 2597 3491 2834 3397 
z
" transform="scale(0.015625)"/>
      </defs>
      <use xlink:href="#DejaVuSans-45"/>
      <use xlink:href="#DejaVuSans-70" transform="translate(63.183594 0)"/>
      <use xlink:href="#DejaVuSans-6f" transform="translate(126.660156 0)"/>
      <use xlink:href="#DejaVuSans-63" transform="translate(187.841797 0)"/>
      <use xlink:href="#DejaVuSans-68" transform="translate(242.822266 0)"/>
      <use xlink:href="#DejaVuSans-73" transform="translate(306.201172 0)"/>
     </g>
    </g>
   </g>
   <g id="matplotlib.axis_2">
    <g id="ytick_1">
     <g id="line2d_19">
      <path d="M 56.50625 560.165349 
L 614.50625 560.165349 
" clip-path="url(#p45a23a3c67)" style="fill: none; stroke: #b0b0b0; stroke-width: 0.8; stroke-linecap: square"/>
     </g>
     <g id="line2d_20">
      <defs>
       <path id="m9293f712a7" d="M 0 0 
L -3.5 0 
" style="stroke: #000000; stroke-width: 0.8"/>
      </defs>
      <g>
       <use xlink:href="#m9293f712a7" x="56.50625" y="560.165349" style="stroke: #000000; stroke-width: 0.8"/>
      </g>
     </g>
     <g id="text_11">
      <!-- 0.000 -->
      <g transform="translate(20.878125 563.964568) scale(0.1 -0.1)">
       <defs>
        <path id="DejaVuSans-2e" d="M 684 794 
L 1344 794 
L 1344 0 
L 684 0 
L 684 794 
z
" transform="scale(0.015625)"/>
       </defs>
       <use xlink:href="#DejaVuSans-30"/>
       <use xlink:href="#DejaVuSans-2e" transform="translate(63.623047 0)"/>
       <use xlink:href="#DejaVuSans-30" transform="translate(95.410156 0)"/>
       <use xlink:href="#DejaVuSans-30" transform="translate(159.033203 0)"/>
       <use xlink:href="#DejaVuSans-30" transform="translate(222.65625 0)"/>
      </g>
     </g>
    </g>
    <g id="ytick_2">
     <g id="line2d_21">
      <path d="M 56.50625 484.312505 
L 614.50625 484.312505 
" clip-path="url(#p45a23a3c67)" style="fill: none; stroke: #b0b0b0; stroke-width: 0.8; stroke-linecap: square"/>
     </g>
     <g id="line2d_22">
      <g>
       <use xlink:href="#m9293f712a7" x="56.50625" y="484.312505" style="stroke: #000000; stroke-width: 0.8"/>
      </g>
     </g>
     <g id="text_12">
      <!-- 0.025 -->
      <g transform="translate(20.878125 488.111724) scale(0.1 -0.1)">
       <use xlink:href="#DejaVuSans-30"/>
       <use xlink:href="#DejaVuSans-2e" transform="translate(63.623047 0)"/>
       <use xlink:href="#DejaVuSans-30" transform="translate(95.410156 0)"/>
       <use xlink:href="#DejaVuSans-32" transform="translate(159.033203 0)"/>
       <use xlink:href="#DejaVuSans-35" transform="translate(222.65625 0)"/>
      </g>
     </g>
    </g>
    <g id="ytick_3">
     <g id="line2d_23">
      <path d="M 56.50625 408.459661 
L 614.50625 408.459661 
" clip-path="url(#p45a23a3c67)" style="fill: none; stroke: #b0b0b0; stroke-width: 0.8; stroke-linecap: square"/>
     </g>
     <g id="line2d_24">
      <g>
       <use xlink:href="#m9293f712a7" x="56.50625" y="408.459661" style="stroke: #000000; stroke-width: 0.8"/>
      </g>
     </g>
     <g id="text_13">
      <!-- 0.050 -->
      <g transform="translate(20.878125 412.258879) scale(0.1 -0.1)">
       <use xlink:href="#DejaVuSans-30"/>
       <use xlink:href="#DejaVuSans-2e" transform="translate(63.623047 0)"/>
       <use xlink:href="#DejaVuSans-30" transform="translate(95.410156 0)"/>
       <use xlink:href="#DejaVuSans-35" transform="translate(159.033203 0)"/>
       <use xlink:href="#DejaVuSans-30" transform="translate(222.65625 0)"/>
      </g>
     </g>
    </g>
    <g id="ytick_4">
     <g id="line2d_25">
      <path d="M 56.50625 332.606816 
L 614.50625 332.606816 
" clip-path="url(#p45a23a3c67)" style="fill: none; stroke: #b0b0b0; stroke-width: 0.8; stroke-linecap: square"/>
     </g>
     <g id="line2d_26">
      <g>
       <use xlink:href="#m9293f712a7" x="56.50625" y="332.606816" style="stroke: #000000; stroke-width: 0.8"/>
      </g>
     </g>
     <g id="text_14">
      <!-- 0.075 -->
      <g transform="translate(20.878125 336.406035) scale(0.1 -0.1)">
       <use xlink:href="#DejaVuSans-30"/>
       <use xlink:href="#DejaVuSans-2e" transform="translate(63.623047 0)"/>
       <use xlink:href="#DejaVuSans-30" transform="translate(95.410156 0)"/>
       <use xlink:href="#DejaVuSans-37" transform="translate(159.033203 0)"/>
       <use xlink:href="#DejaVuSans-35" transform="translate(222.65625 0)"/>
      </g>
     </g>
    </g>
    <g id="ytick_5">
     <g id="line2d_27">
      <path d="M 56.50625 256.753972 
L 614.50625 256.753972 
" clip-path="url(#p45a23a3c67)" style="fill: none; stroke: #b0b0b0; stroke-width: 0.8; stroke-linecap: square"/>
     </g>
     <g id="line2d_28">
      <g>
       <use xlink:href="#m9293f712a7" x="56.50625" y="256.753972" style="stroke: #000000; stroke-width: 0.8"/>
      </g>
     </g>
     <g id="text_15">
      <!-- 0.100 -->
      <g transform="translate(20.878125 260.553191) scale(0.1 -0.1)">
       <use xlink:href="#DejaVuSans-30"/>
       <use xlink:href="#DejaVuSans-2e" transform="translate(63.623047 0)"/>
       <use xlink:href="#DejaVuSans-31" transform="translate(95.410156 0)"/>
       <use xlink:href="#DejaVuSans-30" transform="translate(159.033203 0)"/>
       <use xlink:href="#DejaVuSans-30" transform="translate(222.65625 0)"/>
      </g>
     </g>
    </g>
    <g id="ytick_6">
     <g id="line2d_29">
      <path d="M 56.50625 180.901128 
L 614.50625 180.901128 
" clip-path="url(#p45a23a3c67)" style="fill: none; stroke: #b0b0b0; stroke-width: 0.8; stroke-linecap: square"/>
     </g>
     <g id="line2d_30">
      <g>
       <use xlink:href="#m9293f712a7" x="56.50625" y="180.901128" style="stroke: #000000; stroke-width: 0.8"/>
      </g>
     </g>
     <g id="text_16">
      <!-- 0.125 -->
      <g transform="translate(20.878125 184.700346) scale(0.1 -0.1)">
       <use xlink:href="#DejaVuSans-30"/>
       <use xlink:href="#DejaVuSans-2e" transform="translate(63.623047 0)"/>
       <use xlink:href="#DejaVuSans-31" transform="translate(95.410156 0)"/>
       <use xlink:href="#DejaVuSans-32" transform="translate(159.033203 0)"/>
       <use xlink:href="#DejaVuSans-35" transform="translate(222.65625 0)"/>
      </g>
     </g>
    </g>
    <g id="ytick_7">
     <g id="line2d_31">
      <path d="M 56.50625 105.048283 
L 614.50625 105.048283 
" clip-path="url(#p45a23a3c67)" style="fill: none; stroke: #b0b0b0; stroke-width: 0.8; stroke-linecap: square"/>
     </g>
     <g id="line2d_32">
      <g>
       <use xlink:href="#m9293f712a7" x="56.50625" y="105.048283" style="stroke: #000000; stroke-width: 0.8"/>
      </g>
     </g>
     <g id="text_17">
      <!-- 0.150 -->
      <g transform="translate(20.878125 108.847502) scale(0.1 -0.1)">
       <use xlink:href="#DejaVuSans-30"/>
       <use xlink:href="#DejaVuSans-2e" transform="translate(63.623047 0)"/>
       <use xlink:href="#DejaVuSans-31" transform="translate(95.410156 0)"/>
       <use xlink:href="#DejaVuSans-35" transform="translate(159.033203 0)"/>
       <use xlink:href="#DejaVuSans-30" transform="translate(222.65625 0)"/>
      </g>
     </g>
    </g>
    <g id="ytick_8">
     <g id="line2d_33">
      <path d="M 56.50625 29.195439 
L 614.50625 29.195439 
" clip-path="url(#p45a23a3c67)" style="fill: none; stroke: #b0b0b0; stroke-width: 0.8; stroke-linecap: square"/>
     </g>
     <g id="line2d_34">
      <g>
       <use xlink:href="#m9293f712a7" x="56.50625" y="29.195439" style="stroke: #000000; stroke-width: 0.8"/>
      </g>
     </g>
     <g id="text_18">
      <!-- 0.175 -->
      <g transform="translate(20.878125 32.994658) scale(0.1 -0.1)">
       <use xlink:href="#DejaVuSans-30"/>
       <use xlink:href="#DejaVuSans-2e" transform="translate(63.623047 0)"/>
       <use xlink:href="#DejaVuSans-31" transform="translate(95.410156 0)"/>
       <use xlink:href="#DejaVuSans-37" transform="translate(159.033203 0)"/>
       <use xlink:href="#DejaVuSans-35" transform="translate(222.65625 0)"/>
      </g>
     </g>
    </g>
    <g id="text_19">
     <!-- Accuracy -->
     <g transform="translate(14.798437 322.34625) rotate(-90) scale(0.1 -0.1)">
      <defs>
       <path id="DejaVuSans-41" d="M 2188 4044 
L 1331 1722 
L 3047 1722 
L 2188 4044 
z
M 1831 4666 
L 2547 4666 
L 4325 0 
L 3669 0 
L 3244 1197 
L 1141 1197 
L 716 0 
L 50 0 
L 1831 4666 
z
" transform="scale(0.015625)"/>
       <path id="DejaVuSans-75" d="M 544 1381 
L 544 3500 
L 1119 3500 
L 1119 1403 
Q 1119 906 1312 657 
Q 1506 409 1894 409 
Q 2359 409 2629 706 
Q 2900 1003 2900 1516 
L 2900 3500 
L 3475 3500 
L 3475 0 
L 2900 0 
L 2900 538 
Q 2691 219 2414 64 
Q 2138 -91 1772 -91 
Q 1169 -91 856 284 
Q 544 659 544 1381 
z
M 1991 3584 
L 1991 3584 
z
" transform="scale(0.015625)"/>
       <path id="DejaVuSans-72" d="M 2631 2963 
Q 2534 3019 2420 3045 
Q 2306 3072 2169 3072 
Q 1681 3072 1420 2755 
Q 1159 2438 1159 1844 
L 1159 0 
L 581 0 
L 581 3500 
L 1159 3500 
L 1159 2956 
Q 1341 3275 1631 3429 
Q 1922 3584 2338 3584 
Q 2397 3584 2469 3576 
Q 2541 3569 2628 3553 
L 2631 2963 
z
" transform="scale(0.015625)"/>
       <path id="DejaVuSans-61" d="M 2194 1759 
Q 1497 1759 1228 1600 
Q 959 1441 959 1056 
Q 959 750 1161 570 
Q 1363 391 1709 391 
Q 2188 391 2477 730 
Q 2766 1069 2766 1631 
L 2766 1759 
L 2194 1759 
z
M 3341 1997 
L 3341 0 
L 2766 0 
L 2766 531 
Q 2569 213 2275 61 
Q 1981 -91 1556 -91 
Q 1019 -91 701 211 
Q 384 513 384 1019 
Q 384 1609 779 1909 
Q 1175 2209 1959 2209 
L 2766 2209 
L 2766 2266 
Q 2766 2663 2505 2880 
Q 2244 3097 1772 3097 
Q 1472 3097 1187 3025 
Q 903 2953 641 2809 
L 641 3341 
Q 956 3463 1253 3523 
Q 1550 3584 1831 3584 
Q 2591 3584 2966 3190 
Q 3341 2797 3341 1997 
z
" transform="scale(0.015625)"/>
       <path id="DejaVuSans-79" d="M 2059 -325 
Q 1816 -950 1584 -1140 
Q 1353 -1331 966 -1331 
L 506 -1331 
L 506 -850 
L 844 -850 
Q 1081 -850 1212 -737 
Q 1344 -625 1503 -206 
L 1606 56 
L 191 3500 
L 800 3500 
L 1894 763 
L 2988 3500 
L 3597 3500 
L 2059 -325 
z
" transform="scale(0.015625)"/>
      </defs>
      <use xlink:href="#DejaVuSans-41"/>
      <use xlink:href="#DejaVuSans-63" transform="translate(66.658203 0)"/>
      <use xlink:href="#DejaVuSans-63" transform="translate(121.638672 0)"/>
      <use xlink:href="#DejaVuSans-75" transform="translate(176.619141 0)"/>
      <use xlink:href="#DejaVuSans-72" transform="translate(239.998047 0)"/>
      <use xlink:href="#DejaVuSans-61" transform="translate(281.111328 0)"/>
      <use xlink:href="#DejaVuSans-63" transform="translate(342.390625 0)"/>
      <use xlink:href="#DejaVuSans-79" transform="translate(397.371094 0)"/>
     </g>
    </g>
   </g>
   <g id="line2d_35">
    <path d="M 81.869886 548.248024 
L 82.504771 547.540065 
L 83.139655 545.83759 
L 85.044309 542.011236 
L 86.948962 540.966152 
L 87.583847 538.977122 
L 88.218732 539.29739 
L 90.123385 537.342072 
L 90.75827 535.943007 
L 91.393154 535.791302 
L 92.028039 535.808158 
L 93.297808 534.510231 
L 95.837346 532.622338 
L 97.107115 530.599595 
L 97.741999 529.942204 
L 98.376884 529.655649 
L 99.011768 528.088025 
L 99.646653 527.53177 
L 100.281537 527.413778 
L 100.916422 526.621537 
L 101.551306 525.306752 
L 102.186191 525.627021 
L 102.821075 523.300867 
L 103.45596 523.250298 
L 104.090844 522.542338 
L 104.725729 522.458057 
L 105.995498 520.991569 
L 107.265267 518.78341 
L 107.900151 517.637189 
L 108.535036 516.187556 
L 109.16992 516.305548 
L 109.804805 515.412171 
L 111.074574 514.367088 
L 111.709459 513.743408 
L 112.344343 512.462337 
L 112.979228 511.889226 
L 114.248997 509.748492 
L 114.883881 509.209093 
L 115.518766 507.67518 
L 116.15365 507.203208 
L 116.788535 506.967219 
L 117.423419 504.893913 
L 118.058304 503.393711 
L 118.693188 503.0903 
L 119.962957 501.101268 
L 120.597842 500.848427 
L 121.232726 499.213375 
L 121.867611 498.791967 
L 122.502495 497.949163 
L 123.13738 496.330969 
L 123.772264 495.858992 
L 124.407149 495.639862 
L 125.042033 494.375649 
L 125.676918 492.622606 
L 126.311802 492.066353 
L 126.946687 491.880934 
L 127.581571 491.442673 
L 128.216456 488.98167 
L 128.85134 489.11652 
L 129.486225 488.492839 
L 130.121109 486.486955 
L 130.755994 486.183544 
L 133.295532 482.47518 
L 133.930417 480.856987 
L 134.565301 480.738996 
L 135.200186 478.446553 
L 135.83507 478.412842 
L 136.469955 478.143142 
L 137.104839 477.418323 
L 137.739724 476.15411 
L 138.374608 474.249359 
L 139.009493 473.844815 
L 140.279262 472.445747 
L 140.914146 471.130964 
L 141.549031 471.130964 
L 142.183915 470.052171 
L 142.8188 468.535111 
L 143.453684 468.079997 
L 144.088569 466.933776 
L 144.723453 466.950634 
L 147.262991 462.365743 
L 147.897876 462.146613 
L 148.53276 460.781273 
L 149.167645 460.814978 
L 151.072298 458.202266 
L 151.707183 456.280662 
L 152.342067 457.157184 
L 152.976952 455.117588 
L 153.611837 454.274783 
L 154.246721 452.757723 
L 154.881606 452.808293 
L 156.151375 450.819255 
L 156.786259 450.532703 
L 158.056028 447.684008 
L 158.690913 448.189691 
L 159.325797 446.217517 
L 159.960682 445.324143 
L 160.595566 445.08816 
L 161.230451 443.891369 
L 161.865335 443.08227 
L 162.50022 442.964278 
L 163.135104 440.722405 
L 163.769989 440.149289 
L 164.404873 438.90194 
L 165.039758 439.019931 
L 165.674642 436.40722 
L 166.944411 435.783545 
L 168.21418 434.165346 
L 168.849065 433.238255 
L 169.483949 432.564012 
L 170.118834 430.069291 
L 170.753718 430.069291 
L 171.388603 429.934447 
L 172.023487 428.838795 
L 172.658372 428.451104 
L 173.293256 427.844282 
L 173.928141 426.411497 
L 174.563026 425.821539 
L 175.19791 424.119054 
L 175.832795 424.489893 
L 177.102564 422.416581 
L 177.737448 420.680402 
L 178.372333 419.551033 
L 179.007217 419.449894 
L 179.642102 419.213911 
L 180.276986 418.033973 
L 180.911871 417.511437 
L 181.546755 418.06769 
L 182.18164 414.932442 
L 182.816524 414.443612 
L 183.451409 413.499657 
L 184.086293 413.735652 
L 184.721178 410.701532 
L 185.356062 411.207215 
L 185.990947 411.257784 
L 186.625831 408.931636 
L 187.260716 407.734845 
L 187.8956 407.448293 
L 188.530485 407.313437 
L 189.165369 406.605477 
L 189.800254 404.498459 
L 190.435138 403.959059 
L 191.070023 404.363603 
L 191.704907 402.307155 
L 192.339792 400.638387 
L 192.974676 401.717186 
L 194.244445 398.312239 
L 194.87933 398.413378 
L 195.514215 397.6717 
L 196.149099 397.402001 
L 196.783984 395.834371 
L 197.418868 395.750096 
L 198.688637 393.845345 
L 199.323522 392.159724 
L 199.958406 391.53605 
L 200.593291 390.086412 
L 201.228175 390.204415 
L 202.497944 388.535646 
L 203.132829 389.058193 
L 203.767713 387.288286 
L 204.402598 387.03545 
L 205.037482 384.793577 
L 205.672367 384.995844 
L 206.307251 385.366682 
L 206.942136 383.192231 
L 207.57702 384.0519 
L 208.211905 381.574044 
L 209.481674 379.028754 
L 210.116558 378.995048 
L 211.386327 378.674779 
L 212.021212 378.641063 
L 212.656096 375.050702 
L 213.290981 374.764138 
L 213.925865 374.646146 
L 214.56075 373.213372 
L 215.195634 372.336851 
L 215.830519 373.567347 
L 216.465403 373.078528 
L 217.100288 370.516374 
L 217.735173 370.212981 
L 218.370057 370.145547 
L 219.004942 367.83624 
L 220.274711 367.650827 
L 221.54448 365.156106 
L 222.179364 363.622205 
L 222.814249 363.841324 
L 223.449133 363.386222 
L 224.084018 360.992641 
L 224.718902 361.026346 
L 225.353787 360.942071 
L 225.988671 359.441875 
L 226.623556 357.52026 
L 227.25844 357.46969 
L 227.893325 356.677444 
L 228.528209 358.177662 
L 229.163094 355.969494 
L 229.797978 355.935789 
L 230.432863 355.312092 
L 231.067747 353.120788 
L 231.702632 352.985944 
L 232.337516 351.671162 
L 232.972401 351.485748 
L 233.607285 350.760935 
L 234.24217 349.311308 
L 234.877054 350.120396 
L 235.511939 347.945957 
L 236.146823 348.097642 
L 236.781708 347.069435 
L 238.051477 346.12548 
L 238.686362 343.934176 
L 239.321246 344.203865 
L 239.956131 343.546485 
L 240.591015 341.658598 
L 241.2259 341.372045 
L 241.860784 341.94515 
L 242.495669 341.119198 
L 243.130553 339.062738 
L 243.765438 338.658183 
L 244.400322 338.573908 
L 245.035207 336.837729 
L 245.670091 337.141123 
L 246.304976 335.590358 
L 246.93986 334.89925 
L 247.574745 334.814975 
L 248.844514 331.157181 
L 249.479398 331.022336 
L 250.114283 331.797719 
L 250.749167 330.027812 
L 251.384052 329.168155 
L 252.018936 329.134449 
L 252.653821 328.375908 
L 253.288705 328.392772 
L 253.92359 328.072491 
L 254.558474 326.04976 
L 255.828243 325.122669 
L 256.463128 324.212442 
L 257.098012 322.35826 
L 257.732897 322.627949 
L 258.367781 321.650288 
L 259.002666 321.464875 
L 260.272435 319.947815 
L 260.90732 318.734171 
L 261.542204 318.059927 
L 262.177089 316.34059 
L 262.811973 317.436253 
L 263.446858 315.868623 
L 264.081742 314.907827 
L 264.716627 314.857258 
L 265.351511 313.222195 
L 265.986396 314.267289 
L 266.62128 311.974846 
L 267.256165 310.862341 
L 267.891049 310.390353 
L 268.525934 310.255508 
L 269.160818 309.261007 
L 269.795703 308.940726 
L 270.430587 307.760788 
L 271.065472 307.625944 
L 272.335241 304.490685 
L 272.970125 305.400935 
L 273.60501 304.928946 
L 274.239894 303.226472 
L 274.874779 302.501659 
L 275.509663 302.670231 
L 276.144548 300.495769 
L 276.779432 300.040667 
L 277.414317 300.377789 
L 278.049201 299.990097 
L 278.684086 298.473037 
L 279.31897 297.781929 
L 279.953855 297.343669 
L 280.588739 296.079456 
L 281.223624 295.792903 
L 281.858509 296.248028 
L 282.493393 294.006155 
L 283.128278 293.736444 
L 283.763162 293.028494 
L 284.398047 292.657644 
L 285.032931 291.983401 
L 285.667816 292.135109 
L 286.3027 289.572978 
L 286.937585 291.241723 
L 287.572469 288.780731 
L 288.207354 288.477315 
L 288.842238 287.111963 
L 289.477123 287.53336 
L 290.746892 287.128827 
L 291.381776 284.499262 
L 292.016661 283.909293 
L 292.651545 284.094707 
L 293.28643 282.527078 
L 293.921314 282.64508 
L 294.556199 282.291094 
L 295.191083 280.453777 
L 295.825968 280.774034 
L 296.460852 278.970422 
L 297.095737 279.138994 
L 297.730621 278.51532 
L 298.365506 278.161334 
L 299.00039 276.795982 
L 299.635275 276.155444 
L 300.270159 275.278922 
L 300.905044 273.610154 
L 301.539928 273.559585 
L 302.174813 272.3291 
L 302.809697 273.96414 
L 303.444582 273.121324 
L 304.079467 271.95825 
L 304.714351 272.160527 
L 305.98412 269.598396 
L 306.619005 269.750082 
L 307.253889 268.064472 
L 307.888774 267.019401 
L 308.523658 266.597982 
L 309.158543 266.74969 
L 309.793427 264.929214 
L 310.428312 265.468613 
L 311.063196 265.502341 
L 311.698081 264.423542 
L 312.332965 262.501927 
L 312.96785 262.872777 
L 314.237619 260.900592 
L 315.507388 259.282393 
L 316.142272 258.271027 
L 316.777157 258.119319 
L 317.412041 257.259662 
L 318.046926 258.051908 
L 318.68181 256.484279 
L 319.316695 256.939381 
L 319.951579 256.01229 
L 320.586464 255.388616 
L 321.221348 253.045604 
L 321.856233 254.86608 
L 322.491117 253.146742 
L 323.760886 250.702592 
L 324.395771 252.236516 
L 325.030656 249.505812 
L 325.66554 248.713565 
L 326.300425 248.545016 
L 328.205078 245.797448 
L 328.839963 245.426621 
L 329.474847 246.235709 
L 330.109732 245.089499 
L 331.379501 243.505006 
L 332.014385 244.280388 
L 332.64927 242.291362 
L 333.284154 241.903671 
L 333.919039 239.914645 
L 334.553923 239.661798 
L 335.188808 238.48186 
L 335.823692 239.122398 
L 336.458577 237.487358 
L 337.093461 236.745681 
L 337.728346 236.593972 
L 338.36323 236.728817 
L 338.998115 236.290556 
L 339.632999 234.402669 
L 340.267884 235.852295 
L 341.537653 231.233704 
L 342.172537 233.10475 
L 343.442306 230.812308 
L 344.077191 230.643735 
L 344.712075 230.205475 
L 345.34696 230.72801 
L 345.981844 229.5818 
L 346.616729 228.165879 
L 347.251614 229.362658 
L 347.886498 227.019646 
L 348.521383 227.002805 
L 349.156267 225.317173 
L 349.791152 225.098054 
L 350.426036 224.744068 
L 351.060921 224.659793 
L 351.695805 223.429285 
L 352.33069 222.704472 
L 352.965574 221.709948 
L 354.235343 221.38969 
L 354.870228 220.007474 
L 355.505112 219.87263 
L 356.139997 219.147817 
L 356.774881 218.709556 
L 357.409766 217.394774 
L 358.04465 217.411638 
L 358.679535 217.243065 
L 359.314419 216.484547 
L 359.949304 214.680934 
L 360.584188 213.382993 
L 361.219073 214.411223 
L 361.853957 213.079599 
L 362.488842 212.894163 
L 363.123726 211.562539 
L 363.758611 210.922001 
L 364.393495 212.203078 
L 365.02838 211.62995 
L 367.567918 207.432756 
L 368.202803 207.938451 
L 368.837687 207.33164 
L 369.472572 207.179932 
L 370.107456 206.657374 
L 370.742341 204.095243 
L 371.377225 205.089767 
L 372.01211 203.387271 
L 372.646994 202.763596 
L 373.281879 203.168152 
L 373.916763 202.510749 
L 374.551648 201.246536 
L 375.186532 202.881599 
L 376.456301 199.62836 
L 377.091186 199.055232 
L 377.72607 197.723609 
L 378.360955 200.134032 
L 378.995839 198.195575 
L 379.630724 197.386487 
L 380.265608 196.779654 
L 381.535377 195.195183 
L 382.170262 195.245752 
L 382.805146 193.138723 
L 383.440031 192.852171 
L 384.074915 194.520917 
L 384.7098 192.95331 
L 385.344684 192.009355 
L 385.979569 191.739666 
L 386.614453 191.672233 
L 387.249338 190.340587 
L 388.519107 188.587544 
L 389.153991 189.902326 
L 389.788876 188.149283 
L 390.423761 187.070484 
L 391.69353 186.059118 
L 392.328414 184.137525 
L 392.963299 184.626355 
L 393.598183 184.171231 
L 394.233068 184.508352 
L 394.867952 182.536168 
L 395.502837 183.716106 
L 396.137721 181.035972 
L 396.772606 181.777649 
L 397.40749 182.232774 
L 398.042375 179.704325 
L 398.677259 180.024606 
L 399.312144 177.563591 
L 399.947028 178.490705 
L 400.581913 176.973622 
L 401.216797 178.608707 
L 401.851682 176.333106 
L 402.486566 176.484792 
L 403.756335 174.158644 
L 404.39122 173.787816 
L 405.026104 176.147693 
L 405.660989 174.192372 
L 406.295873 172.82702 
L 406.930758 172.102184 
L 407.565642 172.220187 
L 408.200527 170.146864 
L 408.835411 170.989702 
L 409.470296 170.669422 
L 410.10518 168.81524 
L 410.740065 169.556895 
L 411.37495 170.736833 
L 412.009834 167.972446 
L 412.644719 167.972446 
L 413.279603 167.382477 
L 413.914488 167.399341 
L 414.549372 164.46636 
L 415.184257 164.921462 
L 415.819141 164.988873 
L 416.454026 164.011213 
L 417.08891 164.651774 
L 417.723795 164.112352 
L 418.358679 163.808935 
L 418.993564 161.803068 
L 419.628448 161.213099 
L 420.263333 161.347966 
L 420.898217 161.870478 
L 421.533102 161.449104 
L 422.167986 159.510648 
L 422.802871 160.960274 
L 423.437755 160.218574 
L 424.07264 158.752084 
L 424.707524 159.156639 
L 425.342409 157.083316 
L 425.977293 156.796763 
L 426.612178 156.139383 
L 427.881947 153.206402 
L 428.516831 156.122519 
L 429.151716 156.189975 
L 429.7866 153.459272 
L 430.421485 154.639165 
L 431.056369 153.72896 
L 431.691254 153.745824 
L 432.326138 152.329881 
L 432.961023 151.60509 
L 433.595908 150.138599 
L 434.230792 151.84105 
L 434.865677 151.689365 
L 436.135446 148.065276 
L 436.77033 147.441579 
L 437.405215 147.542718 
L 438.040099 148.924933 
L 438.674984 145.739128 
L 439.309868 146.733652 
L 439.944753 145.7054 
L 440.579637 144.946881 
L 441.214522 146.211094 
L 441.849406 144.002949 
L 442.484291 144.525462 
L 443.119175 143.362388 
L 443.75406 142.654416 
L 444.388944 144.272637 
L 445.023829 141.997036 
L 445.658713 141.373384 
L 446.293598 141.204789 
L 446.928482 139.030372 
L 447.563367 140.12599 
L 448.198251 140.058579 
L 448.833136 139.434927 
L 449.46802 139.333789 
L 450.102905 136.417626 
L 450.737789 137.125598 
L 451.372674 135.861385 
L 452.007558 135.911977 
L 452.642443 137.530153 
L 453.277327 136.417626 
L 453.912212 135.844521 
L 454.547097 133.198138 
L 455.181981 134.47917 
L 455.816866 133.804926 
L 456.45175 132.50703 
L 457.086635 133.720651 
L 457.721519 133.568965 
L 458.356404 130.214565 
L 458.991288 130.855126 
L 459.626173 131.866469 
L 460.261057 131.2765 
L 460.895942 131.023675 
L 461.530826 129.742599 
L 462.165711 129.439182 
L 462.800595 129.506593 
L 463.43548 129.321179 
L 464.070364 126.877028 
L 464.705249 126.910756 
L 465.340133 125.983688 
L 465.975018 125.848821 
L 466.609902 125.545405 
L 467.879671 125.78141 
L 468.514556 126.303923 
L 469.14944 124.736294 
L 469.784325 124.348603 
L 470.419209 123.606948 
L 471.054094 123.067526 
L 471.688978 122.780973 
L 472.323863 122.898976 
L 472.958747 121.044794 
L 473.593632 121.702174 
L 474.228516 119.965995 
L 474.863401 120.269412 
L 475.498285 119.325479 
L 476.13317 121.44935 
L 476.768055 119.696306 
L 477.402939 118.870377 
L 478.037824 117.454433 
L 478.672708 117.875853 
L 479.307593 117.774714 
L 479.942477 116.645323 
L 480.577362 116.8476 
L 481.212246 114.521452 
L 481.847131 114.959736 
L 482.482015 114.352903 
L 483.1169 115.667662 
L 483.751784 114.521452 
L 484.386669 113.796662 
L 485.021553 114.538316 
L 485.656438 112.802137 
L 486.291322 113.510109 
L 486.926207 112.330171 
L 488.195976 110.526536 
L 488.83086 110.324258 
L 489.465745 111.571607 
L 490.735514 108.90836 
L 491.370398 107.121589 
L 492.005283 109.88602 
L 492.640167 108.335255 
L 493.275052 105.655098 
L 493.909936 106.717033 
L 494.544821 106.784489 
L 495.179705 107.829561 
L 495.81459 106.750761 
L 496.449474 106.615894 
L 497.084359 105.671962 
L 497.719244 105.756237 
L 498.354128 103.581775 
L 498.989013 103.076126 
L 500.258782 103.767233 
L 500.893666 102.300743 
L 501.528551 101.963598 
L 502.163435 102.452429 
L 502.79832 102.469293 
L 503.433204 100.210555 
L 504.068089 101.390493 
L 504.702973 99.839728 
L 505.337858 100.261147 
L 505.972742 99.14862 
L 506.607627 99.14862 
L 507.242511 97.597855 
L 507.877396 98.221507 
L 508.51228 96.788744 
L 509.147165 96.873019 
L 509.782049 97.109025 
L 510.416934 95.38971 
L 511.051818 96.670741 
L 511.686703 95.052565 
L 512.321587 94.209771 
L 513.591356 93.451208 
L 514.226241 93.872627 
L 514.861125 93.535528 
L 515.49601 93.586074 
L 516.130894 92.153312 
L 517.400663 92.136448 
L 518.035548 89.675433 
L 518.670433 90.282266 
L 519.940202 88.006665 
L 520.575086 89.0686 
L 521.209971 89.136056 
L 521.844855 89.506883 
L 522.47974 88.040393 
L 523.114624 88.24267 
L 524.384393 86.371625 
L 525.019278 85.545695 
L 525.654162 84.500579 
L 526.289047 85.393964 
L 526.923931 85.79852 
L 527.558816 84.079205 
L 528.1937 83.168955 
L 528.828585 85.259097 
L 529.463469 82.83181 
L 530.098354 84.197162 
L 530.733238 83.657785 
L 531.368123 81.112495 
L 532.003007 81.736192 
L 532.637892 82.123884 
L 533.272776 80.87649 
L 533.907661 82.275569 
L 534.542545 81.247362 
L 535.17743 78.230106 
L 535.812314 80.303385 
L 536.447199 78.061511 
L 537.082083 78.09524 
L 537.716968 78.988625 
L 538.351852 76.915301 
L 538.986737 77.151307 
L 539.621621 77.067032 
L 540.256506 77.404132 
L 540.891391 76.847891 
L 541.526275 76.831027 
L 542.796044 74.825159 
L 543.430929 76.493882 
L 544.065813 74.757703 
L 544.700698 74.285737 
L 545.335582 72.7687 
L 545.970467 74.656564 
L 546.605351 72.161867 
L 547.240236 72.178731 
L 547.87512 72.785518 
L 548.510005 71.605626 
L 549.144889 69.616577 
L 549.779774 72.043864 
L 550.414658 71.470759 
L 551.049543 71.639308 
L 552.319312 71.032475 
L 552.954196 70.021132 
L 553.589081 69.448027 
L 554.85885 68.925469 
L 555.493734 65.992488 
L 556.128619 68.251225 
L 556.763503 66.717324 
L 558.033272 67.172426 
L 558.668157 66.734188 
L 559.303041 65.992488 
L 559.937926 65.469975 
L 560.57281 66.397043 
L 561.207695 65.486794 
L 561.84258 65.149694 
L 562.477464 62.739271 
L 563.112349 62.486402 
L 563.747233 63.834889 
L 564.382118 63.295512 
L 565.017002 63.194374 
L 565.651887 60.480534 
L 566.921656 63.598929 
L 567.55654 63.362923 
L 568.191425 61.154778 
L 568.826309 59.907429 
L 569.461194 60.986228 
L 570.096078 61.255917 
L 570.730963 60.665948 
L 571.365847 59.519738 
L 572.000732 59.300596 
L 572.635616 57.5981 
L 573.270501 57.446414 
L 573.905385 58.727491 
L 574.54027 57.614964 
L 575.810039 57.244137 
L 576.444923 56.047335 
L 577.079808 56.418162 
L 577.714692 54.631436 
L 578.349577 53.771779 
L 578.984461 53.400906 
L 579.619346 53.822325 
L 580.25423 52.355835 
L 581.523999 52.305288 
L 582.158884 53.215492 
L 582.793768 53.131217 
L 583.428653 51.479313 
L 584.063538 51.631044 
L 584.698422 51.327628 
L 585.333307 50.788205 
L 585.968191 49.035162 
L 586.603076 50.2151 
L 587.23796 48.411511 
L 587.872845 49.776862 
L 589.142614 47.518125 
L 589.142614 47.518125 
" clip-path="url(#p45a23a3c67)" style="fill: none; stroke: #1f77b4; stroke-width: 1.5; stroke-linecap: square"/>
   </g>
   <g id="line2d_36">
    <path d="M 81.869886 550.456186 
L 82.504771 551.518125 
L 83.139655 549.394245 
L 83.77454 550.911303 
L 84.409424 550.152774 
L 85.044309 550.911303 
L 85.679193 550.456186 
L 86.314078 548.635717 
L 86.948962 549.394245 
L 87.583847 548.484011 
L 88.218732 549.394245 
L 88.853616 548.939128 
L 89.488501 550.001069 
L 90.123385 549.545951 
L 90.75827 549.394245 
L 91.393154 548.787423 
L 92.028039 550.152774 
L 92.662923 548.787423 
L 93.297808 549.545951 
L 93.932692 547.11866 
L 94.567577 548.180601 
L 95.202461 547.573777 
L 95.837346 547.725483 
L 96.47223 546.663543 
L 97.107115 548.028894 
L 97.741999 548.180601 
L 98.376884 546.966954 
L 99.011768 548.028894 
L 100.281537 547.725483 
L 100.916422 546.815249 
L 101.551306 547.877188 
L 102.186191 547.11866 
L 102.821075 547.422072 
L 103.45596 546.663543 
L 104.090844 546.966954 
L 104.725729 546.815249 
L 105.360613 547.573777 
L 105.995498 547.11866 
L 106.630382 547.11866 
L 107.265267 547.422072 
L 107.900151 547.11866 
L 108.535036 545.905015 
L 109.16992 547.422072 
L 109.804805 547.270365 
L 110.43969 545.905015 
L 111.074574 546.663543 
L 111.709459 545.753309 
L 112.344343 547.270365 
L 112.979228 544.539663 
L 113.614112 544.691369 
L 114.248997 544.539663 
L 114.883881 544.994781 
L 115.518766 544.691369 
L 116.15365 543.781135 
L 116.788535 543.174313 
L 117.423419 543.477724 
L 118.058304 543.629429 
L 118.693188 544.539663 
L 119.328073 543.326018 
L 119.962957 543.781135 
L 120.597842 543.326018 
L 121.232726 543.326018 
L 121.867611 541.202138 
L 122.502495 543.781135 
L 123.772264 541.657256 
L 124.407149 543.93284 
L 125.676918 542.415784 
L 126.311802 544.236252 
L 126.946687 542.264077 
L 127.581571 542.56749 
L 128.216456 543.174313 
L 128.85134 542.719195 
L 129.486225 541.808961 
L 130.121109 543.326018 
L 130.755994 540.898727 
L 131.390879 541.808961 
L 132.025763 543.629429 
L 132.660648 543.174313 
L 133.295532 540.140199 
L 133.930417 543.326018 
L 135.200186 541.353843 
L 135.83507 542.870901 
L 136.469955 542.112372 
L 137.104839 542.870901 
L 137.739724 541.960667 
L 138.374608 542.870901 
L 139.009493 542.112372 
L 139.644377 543.477724 
L 140.279262 541.808961 
L 140.914146 542.719195 
L 141.549031 542.719195 
L 142.183915 542.56749 
L 142.8188 540.595315 
L 143.453684 543.477724 
L 144.088569 540.595315 
L 145.358338 543.477724 
L 145.993222 543.326018 
L 146.628107 543.022606 
L 147.262991 542.415784 
L 147.897876 543.326018 
L 148.53276 543.022606 
L 149.167645 541.808961 
L 149.802529 541.960667 
L 150.437414 542.719195 
L 151.072298 542.56749 
L 151.707183 542.719195 
L 152.342067 542.719195 
L 153.611837 542.112372 
L 154.246721 543.477724 
L 154.881606 542.264077 
L 155.51649 542.870901 
L 156.151375 542.719195 
L 156.786259 542.719195 
L 157.421144 542.112372 
L 158.056028 541.808961 
L 158.690913 543.477724 
L 159.325797 542.264077 
L 159.960682 543.022606 
L 160.595566 543.022606 
L 161.230451 541.960667 
L 161.865335 543.93284 
L 162.50022 543.629429 
L 163.135104 543.629429 
L 163.769989 543.022606 
L 164.404873 544.084547 
L 165.039758 542.112372 
L 166.309527 542.112372 
L 166.944411 541.50555 
L 167.579296 541.50555 
L 168.21418 543.629429 
L 168.849065 542.719195 
L 169.483949 543.326018 
L 170.118834 543.022606 
L 170.753718 541.960667 
L 171.388603 543.022606 
L 172.023487 541.50555 
L 173.293256 542.415784 
L 173.928141 543.326018 
L 174.563026 542.264077 
L 175.19791 542.56749 
L 175.832795 543.022606 
L 177.102564 544.691369 
L 178.372333 542.870901 
L 179.007217 542.870901 
L 179.642102 542.56749 
L 180.276986 541.960667 
L 180.911871 542.870901 
L 181.546755 543.174313 
L 182.18164 544.539663 
L 182.816524 543.781135 
L 183.451409 543.781135 
L 184.086293 544.539663 
L 184.721178 544.084547 
L 185.356062 543.326018 
L 185.990947 543.477724 
L 186.625831 544.387958 
L 187.260716 543.93284 
L 187.8956 543.629429 
L 188.530485 544.691369 
L 189.165369 544.843075 
L 189.800254 545.146486 
L 190.435138 543.93284 
L 191.070023 543.629429 
L 191.704907 543.477724 
L 192.339792 545.449897 
L 192.974676 543.781135 
L 194.244445 544.994781 
L 194.87933 544.084547 
L 195.514215 544.236252 
L 196.149099 546.05672 
L 196.783984 543.93284 
L 197.418868 545.449897 
L 198.053753 545.146486 
L 198.688637 544.387958 
L 199.323522 545.753309 
L 199.958406 544.387958 
L 200.593291 545.601603 
L 201.228175 544.994781 
L 201.86306 545.905015 
L 202.497944 545.449897 
L 203.132829 545.449897 
L 203.767713 544.539663 
L 204.402598 545.449897 
L 205.037482 544.387958 
L 205.672367 544.084547 
L 206.942136 545.146486 
L 207.57702 544.843075 
L 208.846789 544.539663 
L 209.481674 545.449897 
L 210.116558 545.298192 
L 210.751443 546.966954 
L 211.386327 544.994781 
L 212.021212 544.539663 
L 212.656096 545.601603 
L 213.290981 546.208426 
L 213.925865 545.601603 
L 214.56075 546.05672 
L 215.195634 545.298192 
L 215.830519 545.449897 
L 216.465403 545.146486 
L 217.100288 544.539663 
L 217.735173 545.905015 
L 218.370057 545.146486 
L 219.004942 544.691369 
L 219.639826 545.449897 
L 220.274711 545.753309 
L 220.909595 545.146486 
L 221.54448 545.753309 
L 222.179364 544.994781 
L 222.814249 544.994781 
L 223.449133 546.360131 
L 224.084018 544.236252 
L 224.718902 545.449897 
L 225.353787 545.753309 
L 225.988671 544.994781 
L 226.623556 545.146486 
L 227.25844 545.449897 
L 227.893325 544.994781 
L 228.528209 544.994781 
L 229.163094 545.146486 
L 229.797978 544.994781 
L 230.432863 545.753309 
L 231.067747 545.753309 
L 231.702632 546.511838 
L 232.337516 546.208426 
L 233.607285 545.298192 
L 234.24217 546.360131 
L 234.877054 545.449897 
L 235.511939 546.208426 
L 236.146823 546.360131 
L 236.781708 544.843075 
L 237.416592 545.298192 
L 238.051477 544.843075 
L 238.686362 546.208426 
L 239.321246 545.601603 
L 239.956131 545.449897 
L 240.591015 546.663543 
L 241.2259 546.05672 
L 241.860784 545.905015 
L 242.495669 546.05672 
L 243.130553 544.539663 
L 243.765438 545.753309 
L 244.400322 545.753309 
L 245.035207 546.511838 
L 245.670091 545.601603 
L 246.93986 546.815249 
L 247.574745 546.815249 
L 248.209629 545.601603 
L 248.844514 545.601603 
L 249.479398 546.663543 
L 250.114283 546.511838 
L 250.749167 545.753309 
L 252.018936 546.815249 
L 252.653821 545.449897 
L 253.288705 545.601603 
L 253.92359 546.511838 
L 254.558474 546.511838 
L 255.193359 546.208426 
L 256.463128 547.573777 
L 257.098012 545.449897 
L 258.367781 546.05672 
L 259.002666 546.815249 
L 259.63755 546.966954 
L 260.272435 547.877188 
L 260.90732 546.815249 
L 261.542204 546.208426 
L 262.177089 547.270365 
L 262.811973 547.422072 
L 263.446858 546.815249 
L 264.081742 546.511838 
L 264.716627 545.753309 
L 265.351511 546.05672 
L 265.986396 546.663543 
L 266.62128 546.663543 
L 267.256165 547.11866 
L 268.525934 546.815249 
L 269.160818 546.208426 
L 269.795703 546.815249 
L 270.430587 546.208426 
L 271.065472 546.966954 
L 271.700356 546.511838 
L 272.335241 546.815249 
L 272.970125 545.601603 
L 273.60501 546.511838 
L 274.239894 546.966954 
L 274.874779 546.511838 
L 275.509663 545.905015 
L 276.144548 547.11866 
L 276.779432 547.270365 
L 278.049201 546.663543 
L 278.684086 547.11866 
L 279.31897 547.725483 
L 279.953855 546.815249 
L 280.588739 544.691369 
L 281.223624 547.11866 
L 281.858509 546.966954 
L 282.493393 546.511838 
L 283.128278 545.601603 
L 283.763162 547.725483 
L 284.398047 547.725483 
L 285.032931 547.11866 
L 285.667816 546.815249 
L 286.3027 546.208426 
L 286.937585 545.905015 
L 287.572469 546.208426 
L 288.207354 546.360131 
L 288.842238 546.208426 
L 289.477123 545.146486 
L 290.112007 546.360131 
L 290.746892 546.511838 
L 291.381776 546.360131 
L 292.016661 545.449897 
L 292.651545 546.05672 
L 293.28643 545.449897 
L 293.921314 545.753309 
L 295.191083 545.753309 
L 295.825968 545.905015 
L 296.460852 546.360131 
L 297.095737 546.663543 
L 297.730621 546.511838 
L 298.365506 546.663543 
L 299.00039 546.663543 
L 299.635275 546.511838 
L 300.270159 545.753309 
L 300.905044 546.511838 
L 301.539928 546.05672 
L 302.174813 545.146486 
L 302.809697 545.601603 
L 303.444582 545.753309 
L 304.079467 546.05672 
L 304.714351 545.449897 
L 305.349236 545.601603 
L 305.98412 546.663543 
L 307.253889 545.601603 
L 307.888774 546.208426 
L 308.523658 545.753309 
L 309.158543 545.905015 
L 309.793427 544.994781 
L 310.428312 546.663543 
L 311.063196 546.208426 
L 311.698081 545.449897 
L 312.332965 546.360131 
L 312.96785 545.146486 
L 313.602734 545.449897 
L 314.237619 545.601603 
L 314.872503 546.05672 
L 315.507388 544.843075 
L 316.142272 545.298192 
L 316.777157 544.236252 
L 317.412041 545.449897 
L 318.046926 545.146486 
L 318.68181 545.449897 
L 319.316695 546.05672 
L 319.951579 545.905015 
L 320.586464 545.298192 
L 321.221348 545.449897 
L 321.856233 545.298192 
L 322.491117 544.387958 
L 323.126002 545.753309 
L 323.760886 545.146486 
L 324.395771 545.601603 
L 325.030656 545.753309 
L 325.66554 544.994781 
L 326.300425 545.298192 
L 326.935309 545.753309 
L 327.570194 545.146486 
L 328.205078 545.449897 
L 328.839963 545.146486 
L 330.109732 546.208426 
L 330.744616 544.994781 
L 331.379501 546.05672 
L 332.014385 546.511838 
L 332.64927 546.360131 
L 333.284154 545.146486 
L 333.919039 545.753309 
L 334.553923 544.843075 
L 335.823692 546.511838 
L 336.458577 545.298192 
L 337.093461 545.146486 
L 337.728346 545.905015 
L 338.36323 544.843075 
L 338.998115 545.753309 
L 339.632999 544.843075 
L 340.267884 545.449897 
L 340.902768 545.146486 
L 342.172537 544.843075 
L 342.807422 544.387958 
L 343.442306 544.843075 
L 344.077191 544.084547 
L 344.712075 545.449897 
L 345.34696 545.601603 
L 345.981844 544.539663 
L 346.616729 544.539663 
L 347.251614 544.994781 
L 347.886498 545.298192 
L 348.521383 545.753309 
L 349.156267 544.691369 
L 349.791152 545.753309 
L 350.426036 546.208426 
L 351.695805 544.691369 
L 352.33069 545.298192 
L 352.965574 544.691369 
L 353.600459 544.994781 
L 354.235343 545.905015 
L 354.870228 546.360131 
L 355.505112 544.387958 
L 356.139997 544.539663 
L 356.774881 544.387958 
L 357.409766 545.601603 
L 358.04465 544.994781 
L 358.679535 544.691369 
L 359.314419 545.146486 
L 359.949304 544.387958 
L 361.853957 545.298192 
L 362.488842 544.539663 
L 363.123726 543.477724 
L 363.758611 545.601603 
L 364.393495 545.146486 
L 365.02838 545.298192 
L 365.663264 544.994781 
L 366.298149 544.539663 
L 366.933033 544.994781 
L 367.567918 543.93284 
L 368.202803 544.387958 
L 368.837687 544.387958 
L 369.472572 544.236252 
L 370.107456 544.236252 
L 370.742341 544.539663 
L 371.377225 543.781135 
L 372.01211 545.449897 
L 372.646994 544.236252 
L 373.281879 545.298192 
L 373.916763 544.691369 
L 374.551648 545.146486 
L 375.186532 544.994781 
L 375.821417 544.084547 
L 376.456301 543.781135 
L 377.091186 544.539663 
L 377.72607 544.843075 
L 378.360955 545.298192 
L 378.995839 543.93284 
L 380.265608 544.843075 
L 380.900493 545.146486 
L 381.535377 543.326018 
L 382.170262 546.208426 
L 382.805146 543.629429 
L 383.440031 545.146486 
L 384.074915 544.387958 
L 384.7098 545.146486 
L 385.344684 544.236252 
L 385.979569 545.298192 
L 386.614453 544.691369 
L 387.249338 545.601603 
L 387.884222 544.994781 
L 388.519107 543.93284 
L 389.153991 544.084547 
L 390.423761 544.084547 
L 391.058645 545.449897 
L 391.69353 545.146486 
L 392.328414 544.387958 
L 392.963299 545.753309 
L 393.598183 545.298192 
L 394.867952 544.236252 
L 395.502837 545.146486 
L 396.137721 545.449897 
L 396.772606 544.539663 
L 397.40749 544.843075 
L 398.042375 544.387958 
L 398.677259 543.477724 
L 399.312144 543.781135 
L 400.581913 545.146486 
L 401.216797 543.93284 
L 402.486566 544.994781 
L 403.121451 543.629429 
L 403.756335 544.994781 
L 404.39122 543.629429 
L 405.026104 544.994781 
L 405.660989 544.539663 
L 406.295873 544.236252 
L 406.930758 543.781135 
L 407.565642 544.084547 
L 408.835411 543.477724 
L 409.470296 544.236252 
L 410.740065 544.236252 
L 411.37495 544.387958 
L 412.009834 544.084547 
L 413.279603 544.387958 
L 413.914488 544.236252 
L 414.549372 544.994781 
L 415.184257 544.691369 
L 415.819141 543.629429 
L 416.454026 544.539663 
L 417.08891 544.387958 
L 417.723795 543.477724 
L 418.993564 545.449897 
L 419.628448 544.539663 
L 420.263333 544.539663 
L 420.898217 543.629429 
L 421.533102 545.146486 
L 422.167986 544.236252 
L 422.802871 544.387958 
L 423.437755 542.719195 
L 424.707524 543.629429 
L 425.342409 545.146486 
L 425.977293 543.93284 
L 426.612178 543.93284 
L 427.247062 544.994781 
L 427.881947 544.539663 
L 429.151716 544.843075 
L 429.7866 543.477724 
L 430.421485 544.843075 
L 431.056369 544.236252 
L 431.691254 544.539663 
L 432.961023 543.022606 
L 433.595908 543.93284 
L 434.230792 543.781135 
L 434.865677 543.93284 
L 435.500561 544.387958 
L 436.135446 543.022606 
L 436.77033 543.477724 
L 437.405215 543.477724 
L 438.040099 543.781135 
L 438.674984 543.326018 
L 439.309868 543.174313 
L 439.944753 543.174313 
L 440.579637 543.93284 
L 441.214522 544.387958 
L 441.849406 544.994781 
L 442.484291 544.236252 
L 443.119175 543.93284 
L 443.75406 542.415784 
L 444.388944 543.477724 
L 445.023829 543.326018 
L 445.658713 543.93284 
L 446.293598 544.236252 
L 446.928482 543.326018 
L 447.563367 544.084547 
L 448.198251 543.629429 
L 448.833136 544.084547 
L 449.46802 544.691369 
L 450.102905 543.477724 
L 450.737789 544.084547 
L 452.007558 543.477724 
L 452.642443 543.326018 
L 453.277327 544.084547 
L 453.912212 543.174313 
L 454.547097 543.326018 
L 455.181981 542.719195 
L 455.816866 544.691369 
L 456.45175 542.56749 
L 457.086635 544.084547 
L 457.721519 543.629429 
L 458.356404 543.326018 
L 458.991288 544.539663 
L 459.626173 543.174313 
L 460.261057 543.629429 
L 460.895942 544.691369 
L 461.530826 543.781135 
L 462.165711 542.264077 
L 462.800595 544.994781 
L 463.43548 543.477724 
L 464.070364 543.93284 
L 464.705249 543.477724 
L 465.340133 544.084547 
L 465.975018 543.477724 
L 466.609902 543.326018 
L 467.244787 543.326018 
L 467.879671 543.93284 
L 469.14944 542.264077 
L 469.784325 544.236252 
L 470.419209 543.326018 
L 471.054094 542.719195 
L 472.323863 545.146486 
L 472.958747 544.539663 
L 473.593632 542.719195 
L 474.228516 543.477724 
L 474.863401 542.870901 
L 475.498285 543.781135 
L 476.13317 543.93284 
L 476.768055 544.387958 
L 477.402939 541.960667 
L 478.037824 543.781135 
L 478.672708 543.781135 
L 479.307593 543.174313 
L 479.942477 544.084547 
L 480.577362 543.781135 
L 481.212246 543.629429 
L 481.847131 544.843075 
L 482.482015 543.93284 
L 483.1169 543.629429 
L 483.751784 544.084547 
L 484.386669 543.174313 
L 485.021553 543.629429 
L 485.656438 543.326018 
L 486.291322 543.781135 
L 486.926207 543.93284 
L 487.561091 542.56749 
L 488.195976 543.93284 
L 488.83086 543.629429 
L 489.465745 542.719195 
L 490.100629 544.387958 
L 490.735514 543.022606 
L 492.005283 543.93284 
L 492.640167 543.93284 
L 493.275052 542.870901 
L 494.544821 543.477724 
L 495.179705 544.994781 
L 495.81459 543.326018 
L 496.449474 542.719195 
L 497.084359 543.174313 
L 497.719244 544.539663 
L 498.354128 543.781135 
L 498.989013 543.326018 
L 499.623897 543.022606 
L 500.258782 544.691369 
L 500.893666 544.236252 
L 501.528551 544.691369 
L 502.163435 543.629429 
L 502.79832 543.326018 
L 503.433204 544.236252 
L 504.068089 542.719195 
L 504.702973 543.93284 
L 505.337858 544.387958 
L 505.972742 543.629429 
L 506.607627 544.084547 
L 507.242511 543.326018 
L 507.877396 543.93284 
L 508.51228 544.236252 
L 509.147165 544.387958 
L 509.782049 543.022606 
L 510.416934 543.022606 
L 511.051818 545.146486 
L 511.686703 542.870901 
L 512.321587 544.236252 
L 512.956472 545.146486 
L 513.591356 544.387958 
L 514.861125 543.781135 
L 515.49601 543.174313 
L 516.765779 543.477724 
L 517.400663 544.387958 
L 518.035548 543.93284 
L 518.670433 543.022606 
L 519.305317 543.477724 
L 519.940202 545.298192 
L 520.575086 543.477724 
L 521.209971 543.93284 
L 521.844855 543.477724 
L 522.47974 544.387958 
L 523.114624 544.236252 
L 523.749509 544.539663 
L 524.384393 543.629429 
L 525.654162 544.843075 
L 526.923931 544.236252 
L 527.558816 544.236252 
L 528.1937 545.298192 
L 528.828585 543.781135 
L 529.463469 544.843075 
L 530.098354 544.387958 
L 530.733238 544.236252 
L 531.368123 543.93284 
L 532.003007 544.539663 
L 532.637892 544.691369 
L 533.272776 543.93284 
L 533.907661 544.084547 
L 534.542545 544.539663 
L 535.17743 543.326018 
L 535.812314 543.93284 
L 536.447199 543.781135 
L 537.082083 545.449897 
L 537.716968 542.56749 
L 538.351852 543.629429 
L 538.986737 543.93284 
L 539.621621 543.93284 
L 540.256506 544.236252 
L 540.891391 544.843075 
L 541.526275 543.477724 
L 542.16116 544.843075 
L 542.796044 544.691369 
L 544.065813 544.084547 
L 544.700698 544.994781 
L 545.335582 544.691369 
L 545.970467 544.691369 
L 546.605351 544.084547 
L 547.240236 543.93284 
L 547.87512 544.994781 
L 548.510005 543.781135 
L 549.144889 544.843075 
L 549.779774 543.326018 
L 550.414658 544.236252 
L 551.049543 543.93284 
L 551.684427 544.539663 
L 552.319312 543.93284 
L 552.954196 544.084547 
L 553.589081 544.387958 
L 554.223965 543.022606 
L 554.85885 544.691369 
L 555.493734 544.539663 
L 556.128619 544.539663 
L 556.763503 543.629429 
L 557.398388 543.93284 
L 558.033272 544.539663 
L 558.668157 543.477724 
L 559.303041 543.174313 
L 559.937926 544.994781 
L 560.57281 544.994781 
L 561.207695 544.387958 
L 561.84258 544.084547 
L 563.112349 543.781135 
L 563.747233 543.477724 
L 564.382118 545.146486 
L 565.017002 544.236252 
L 566.286771 543.93284 
L 566.921656 543.93284 
L 567.55654 544.843075 
L 568.191425 544.843075 
L 568.826309 543.477724 
L 569.461194 544.539663 
L 570.096078 544.994781 
L 570.730963 545.146486 
L 571.365847 543.326018 
L 572.000732 545.298192 
L 572.635616 544.236252 
L 573.270501 544.539663 
L 574.54027 543.93284 
L 575.175154 544.084547 
L 575.810039 545.601603 
L 576.444923 544.539663 
L 577.079808 545.449897 
L 577.714692 545.298192 
L 578.984461 543.326018 
L 579.619346 544.843075 
L 580.25423 544.387958 
L 580.889115 544.539663 
L 581.523999 543.781135 
L 582.158884 544.843075 
L 582.793768 544.084547 
L 583.428653 544.994781 
L 584.063538 545.298192 
L 584.698422 544.994781 
L 585.333307 545.146486 
L 585.968191 544.084547 
L 586.603076 544.994781 
L 587.23796 544.387958 
L 587.872845 545.905015 
L 588.507729 545.905015 
L 589.142614 544.843075 
L 589.142614 544.843075 
" clip-path="url(#p45a23a3c67)" style="fill: none; stroke: #ff7f0e; stroke-width: 1.5; stroke-linecap: square"/>
   </g>
   <g id="line2d_37">
    <path d="M 56.50625 548.313342 
L 614.50625 548.313342 
" clip-path="url(#p45a23a3c67)" style="fill: none; stroke-dasharray: 11.1,4.8; stroke-dashoffset: 0; stroke: #ff0000; stroke-width: 3"/>
   </g>
   <g id="patch_3">
    <path d="M 56.50625 576.718125 
L 56.50625 22.318125 
" style="fill: none; stroke: #000000; stroke-width: 0.8; stroke-linejoin: miter; stroke-linecap: square"/>
   </g>
   <g id="patch_4">
    <path d="M 614.50625 576.718125 
L 614.50625 22.318125 
" style="fill: none; stroke: #000000; stroke-width: 0.8; stroke-linejoin: miter; stroke-linecap: square"/>
   </g>
   <g id="patch_5">
    <path d="M 56.50625 576.718125 
L 614.50625 576.718125 
" style="fill: none; stroke: #000000; stroke-width: 0.8; stroke-linejoin: miter; stroke-linecap: square"/>
   </g>
   <g id="patch_6">
    <path d="M 56.50625 22.318125 
L 614.50625 22.318125 
" style="fill: none; stroke: #000000; stroke-width: 0.8; stroke-linejoin: miter; stroke-linecap: square"/>
   </g>
   <g id="text_20">
    <!-- Train and Val Accuracy -->
    <g transform="translate(267.727813 16.318125) scale(0.12 -0.12)">
     <defs>
      <path id="DejaVuSans-54" d="M -19 4666 
L 3928 4666 
L 3928 4134 
L 2272 4134 
L 2272 0 
L 1638 0 
L 1638 4134 
L -19 4134 
L -19 4666 
z
" transform="scale(0.015625)"/>
      <path id="DejaVuSans-69" d="M 603 3500 
L 1178 3500 
L 1178 0 
L 603 0 
L 603 3500 
z
M 603 4863 
L 1178 4863 
L 1178 4134 
L 603 4134 
L 603 4863 
z
" transform="scale(0.015625)"/>
      <path id="DejaVuSans-6e" d="M 3513 2113 
L 3513 0 
L 2938 0 
L 2938 2094 
Q 2938 2591 2744 2837 
Q 2550 3084 2163 3084 
Q 1697 3084 1428 2787 
Q 1159 2491 1159 1978 
L 1159 0 
L 581 0 
L 581 3500 
L 1159 3500 
L 1159 2956 
Q 1366 3272 1645 3428 
Q 1925 3584 2291 3584 
Q 2894 3584 3203 3211 
Q 3513 2838 3513 2113 
z
" transform="scale(0.015625)"/>
      <path id="DejaVuSans-20" transform="scale(0.015625)"/>
      <path id="DejaVuSans-64" d="M 2906 2969 
L 2906 4863 
L 3481 4863 
L 3481 0 
L 2906 0 
L 2906 525 
Q 2725 213 2448 61 
Q 2172 -91 1784 -91 
Q 1150 -91 751 415 
Q 353 922 353 1747 
Q 353 2572 751 3078 
Q 1150 3584 1784 3584 
Q 2172 3584 2448 3432 
Q 2725 3281 2906 2969 
z
M 947 1747 
Q 947 1113 1208 752 
Q 1469 391 1925 391 
Q 2381 391 2643 752 
Q 2906 1113 2906 1747 
Q 2906 2381 2643 2742 
Q 2381 3103 1925 3103 
Q 1469 3103 1208 2742 
Q 947 2381 947 1747 
z
" transform="scale(0.015625)"/>
      <path id="DejaVuSans-56" d="M 1831 0 
L 50 4666 
L 709 4666 
L 2188 738 
L 3669 4666 
L 4325 4666 
L 2547 0 
L 1831 0 
z
" transform="scale(0.015625)"/>
      <path id="DejaVuSans-6c" d="M 603 4863 
L 1178 4863 
L 1178 0 
L 603 0 
L 603 4863 
z
" transform="scale(0.015625)"/>
     </defs>
     <use xlink:href="#DejaVuSans-54"/>
     <use xlink:href="#DejaVuSans-72" transform="translate(46.333984 0)"/>
     <use xlink:href="#DejaVuSans-61" transform="translate(87.447266 0)"/>
     <use xlink:href="#DejaVuSans-69" transform="translate(148.726562 0)"/>
     <use xlink:href="#DejaVuSans-6e" transform="translate(176.509766 0)"/>
     <use xlink:href="#DejaVuSans-20" transform="translate(239.888672 0)"/>
     <use xlink:href="#DejaVuSans-61" transform="translate(271.675781 0)"/>
     <use xlink:href="#DejaVuSans-6e" transform="translate(332.955078 0)"/>
     <use xlink:href="#DejaVuSans-64" transform="translate(396.333984 0)"/>
     <use xlink:href="#DejaVuSans-20" transform="translate(459.810547 0)"/>
     <use xlink:href="#DejaVuSans-56" transform="translate(491.597656 0)"/>
     <use xlink:href="#DejaVuSans-61" transform="translate(552.255859 0)"/>
     <use xlink:href="#DejaVuSans-6c" transform="translate(613.535156 0)"/>
     <use xlink:href="#DejaVuSans-20" transform="translate(641.318359 0)"/>
     <use xlink:href="#DejaVuSans-41" transform="translate(673.105469 0)"/>
     <use xlink:href="#DejaVuSans-63" transform="translate(739.763672 0)"/>
     <use xlink:href="#DejaVuSans-63" transform="translate(794.744141 0)"/>
     <use xlink:href="#DejaVuSans-75" transform="translate(849.724609 0)"/>
     <use xlink:href="#DejaVuSans-72" transform="translate(913.103516 0)"/>
     <use xlink:href="#DejaVuSans-61" transform="translate(954.216797 0)"/>
     <use xlink:href="#DejaVuSans-63" transform="translate(1015.496094 0)"/>
     <use xlink:href="#DejaVuSans-79" transform="translate(1070.476562 0)"/>
    </g>
   </g>
   <g id="legend_1">
    <g id="patch_7">
     <path d="M 63.50625 74.90875 
L 230.629687 74.90875 
Q 232.629687 74.90875 232.629687 72.90875 
L 232.629687 29.318125 
Q 232.629687 27.318125 230.629687 27.318125 
L 63.50625 27.318125 
Q 61.50625 27.318125 61.50625 29.318125 
L 61.50625 72.90875 
Q 61.50625 74.90875 63.50625 74.90875 
z
" style="fill: #ffffff; opacity: 0.8; stroke: #cccccc; stroke-linejoin: miter"/>
    </g>
    <g id="line2d_38">
     <path d="M 65.50625 35.416562 
L 75.50625 35.416562 
L 85.50625 35.416562 
" style="fill: none; stroke: #1f77b4; stroke-width: 1.5; stroke-linecap: square"/>
    </g>
    <g id="text_21">
     <!-- train_accuracy -->
     <g transform="translate(93.50625 38.916562) scale(0.1 -0.1)">
      <defs>
       <path id="DejaVuSans-74" d="M 1172 4494 
L 1172 3500 
L 2356 3500 
L 2356 3053 
L 1172 3053 
L 1172 1153 
Q 1172 725 1289 603 
Q 1406 481 1766 481 
L 2356 481 
L 2356 0 
L 1766 0 
Q 1100 0 847 248 
Q 594 497 594 1153 
L 594 3053 
L 172 3053 
L 172 3500 
L 594 3500 
L 594 4494 
L 1172 4494 
z
" transform="scale(0.015625)"/>
       <path id="DejaVuSans-5f" d="M 3263 -1063 
L 3263 -1509 
L -63 -1509 
L -63 -1063 
L 3263 -1063 
z
" transform="scale(0.015625)"/>
      </defs>
      <use xlink:href="#DejaVuSans-74"/>
      <use xlink:href="#DejaVuSans-72" transform="translate(39.208984 0)"/>
      <use xlink:href="#DejaVuSans-61" transform="translate(80.322266 0)"/>
      <use xlink:href="#DejaVuSans-69" transform="translate(141.601562 0)"/>
      <use xlink:href="#DejaVuSans-6e" transform="translate(169.384766 0)"/>
      <use xlink:href="#DejaVuSans-5f" transform="translate(232.763672 0)"/>
      <use xlink:href="#DejaVuSans-61" transform="translate(282.763672 0)"/>
      <use xlink:href="#DejaVuSans-63" transform="translate(344.042969 0)"/>
      <use xlink:href="#DejaVuSans-63" transform="translate(399.023438 0)"/>
      <use xlink:href="#DejaVuSans-75" transform="translate(454.003906 0)"/>
      <use xlink:href="#DejaVuSans-72" transform="translate(517.382812 0)"/>
      <use xlink:href="#DejaVuSans-61" transform="translate(558.496094 0)"/>
      <use xlink:href="#DejaVuSans-63" transform="translate(619.775391 0)"/>
      <use xlink:href="#DejaVuSans-79" transform="translate(674.755859 0)"/>
     </g>
    </g>
    <g id="line2d_39">
     <path d="M 65.50625 50.372812 
L 75.50625 50.372812 
L 85.50625 50.372812 
" style="fill: none; stroke: #ff7f0e; stroke-width: 1.5; stroke-linecap: square"/>
    </g>
    <g id="text_22">
     <!-- val_accuracy -->
     <g transform="translate(93.50625 53.872812) scale(0.1 -0.1)">
      <defs>
       <path id="DejaVuSans-76" d="M 191 3500 
L 800 3500 
L 1894 563 
L 2988 3500 
L 3597 3500 
L 2284 0 
L 1503 0 
L 191 3500 
z
" transform="scale(0.015625)"/>
      </defs>
      <use xlink:href="#DejaVuSans-76"/>
      <use xlink:href="#DejaVuSans-61" transform="translate(59.179688 0)"/>
      <use xlink:href="#DejaVuSans-6c" transform="translate(120.458984 0)"/>
      <use xlink:href="#DejaVuSans-5f" transform="translate(148.242188 0)"/>
      <use xlink:href="#DejaVuSans-61" transform="translate(198.242188 0)"/>
      <use xlink:href="#DejaVuSans-63" transform="translate(259.521484 0)"/>
      <use xlink:href="#DejaVuSans-63" transform="translate(314.501953 0)"/>
      <use xlink:href="#DejaVuSans-75" transform="translate(369.482422 0)"/>
      <use xlink:href="#DejaVuSans-72" transform="translate(432.861328 0)"/>
      <use xlink:href="#DejaVuSans-61" transform="translate(473.974609 0)"/>
      <use xlink:href="#DejaVuSans-63" transform="translate(535.253906 0)"/>
      <use xlink:href="#DejaVuSans-79" transform="translate(590.234375 0)"/>
     </g>
    </g>
    <g id="line2d_40">
     <path d="M 65.50625 65.329062 
L 75.50625 65.329062 
L 85.50625 65.329062 
" style="fill: none; stroke-dasharray: 11.1,4.8; stroke-dashoffset: 0; stroke: #ff0000; stroke-width: 3"/>
    </g>
    <g id="text_23">
     <!-- Random-Guesser Accuracy -->
     <g transform="translate(93.50625 68.829062) scale(0.1 -0.1)">
      <defs>
       <path id="DejaVuSans-52" d="M 2841 2188 
Q 3044 2119 3236 1894 
Q 3428 1669 3622 1275 
L 4263 0 
L 3584 0 
L 2988 1197 
Q 2756 1666 2539 1819 
Q 2322 1972 1947 1972 
L 1259 1972 
L 1259 0 
L 628 0 
L 628 4666 
L 2053 4666 
Q 2853 4666 3247 4331 
Q 3641 3997 3641 3322 
Q 3641 2881 3436 2590 
Q 3231 2300 2841 2188 
z
M 1259 4147 
L 1259 2491 
L 2053 2491 
Q 2509 2491 2742 2702 
Q 2975 2913 2975 3322 
Q 2975 3731 2742 3939 
Q 2509 4147 2053 4147 
L 1259 4147 
z
" transform="scale(0.015625)"/>
       <path id="DejaVuSans-6d" d="M 3328 2828 
Q 3544 3216 3844 3400 
Q 4144 3584 4550 3584 
Q 5097 3584 5394 3201 
Q 5691 2819 5691 2113 
L 5691 0 
L 5113 0 
L 5113 2094 
Q 5113 2597 4934 2840 
Q 4756 3084 4391 3084 
Q 3944 3084 3684 2787 
Q 3425 2491 3425 1978 
L 3425 0 
L 2847 0 
L 2847 2094 
Q 2847 2600 2669 2842 
Q 2491 3084 2119 3084 
Q 1678 3084 1418 2786 
Q 1159 2488 1159 1978 
L 1159 0 
L 581 0 
L 581 3500 
L 1159 3500 
L 1159 2956 
Q 1356 3278 1631 3431 
Q 1906 3584 2284 3584 
Q 2666 3584 2933 3390 
Q 3200 3197 3328 2828 
z
" transform="scale(0.015625)"/>
       <path id="DejaVuSans-2d" d="M 313 2009 
L 1997 2009 
L 1997 1497 
L 313 1497 
L 313 2009 
z
" transform="scale(0.015625)"/>
       <path id="DejaVuSans-47" d="M 3809 666 
L 3809 1919 
L 2778 1919 
L 2778 2438 
L 4434 2438 
L 4434 434 
Q 4069 175 3628 42 
Q 3188 -91 2688 -91 
Q 1594 -91 976 548 
Q 359 1188 359 2328 
Q 359 3472 976 4111 
Q 1594 4750 2688 4750 
Q 3144 4750 3555 4637 
Q 3966 4525 4313 4306 
L 4313 3634 
Q 3963 3931 3569 4081 
Q 3175 4231 2741 4231 
Q 1884 4231 1454 3753 
Q 1025 3275 1025 2328 
Q 1025 1384 1454 906 
Q 1884 428 2741 428 
Q 3075 428 3337 486 
Q 3600 544 3809 666 
z
" transform="scale(0.015625)"/>
       <path id="DejaVuSans-65" d="M 3597 1894 
L 3597 1613 
L 953 1613 
Q 991 1019 1311 708 
Q 1631 397 2203 397 
Q 2534 397 2845 478 
Q 3156 559 3463 722 
L 3463 178 
Q 3153 47 2828 -22 
Q 2503 -91 2169 -91 
Q 1331 -91 842 396 
Q 353 884 353 1716 
Q 353 2575 817 3079 
Q 1281 3584 2069 3584 
Q 2775 3584 3186 3129 
Q 3597 2675 3597 1894 
z
M 3022 2063 
Q 3016 2534 2758 2815 
Q 2500 3097 2075 3097 
Q 1594 3097 1305 2825 
Q 1016 2553 972 2059 
L 3022 2063 
z
" transform="scale(0.015625)"/>
      </defs>
      <use xlink:href="#DejaVuSans-52"/>
      <use xlink:href="#DejaVuSans-61" transform="translate(67.232422 0)"/>
      <use xlink:href="#DejaVuSans-6e" transform="translate(128.511719 0)"/>
      <use xlink:href="#DejaVuSans-64" transform="translate(191.890625 0)"/>
      <use xlink:href="#DejaVuSans-6f" transform="translate(255.367188 0)"/>
      <use xlink:href="#DejaVuSans-6d" transform="translate(316.548828 0)"/>
      <use xlink:href="#DejaVuSans-2d" transform="translate(413.960938 0)"/>
      <use xlink:href="#DejaVuSans-47" transform="translate(453.669922 0)"/>
      <use xlink:href="#DejaVuSans-75" transform="translate(531.160156 0)"/>
      <use xlink:href="#DejaVuSans-65" transform="translate(594.539062 0)"/>
      <use xlink:href="#DejaVuSans-73" transform="translate(656.0625 0)"/>
      <use xlink:href="#DejaVuSans-73" transform="translate(708.162109 0)"/>
      <use xlink:href="#DejaVuSans-65" transform="translate(760.261719 0)"/>
      <use xlink:href="#DejaVuSans-72" transform="translate(821.785156 0)"/>
      <use xlink:href="#DejaVuSans-20" transform="translate(862.898438 0)"/>
      <use xlink:href="#DejaVuSans-41" transform="translate(894.685547 0)"/>
      <use xlink:href="#DejaVuSans-63" transform="translate(961.34375 0)"/>
      <use xlink:href="#DejaVuSans-63" transform="translate(1016.324219 0)"/>
      <use xlink:href="#DejaVuSans-75" transform="translate(1071.304688 0)"/>
      <use xlink:href="#DejaVuSans-72" transform="translate(1134.683594 0)"/>
      <use xlink:href="#DejaVuSans-61" transform="translate(1175.796875 0)"/>
      <use xlink:href="#DejaVuSans-63" transform="translate(1237.076172 0)"/>
      <use xlink:href="#DejaVuSans-79" transform="translate(1292.056641 0)"/>
     </g>
    </g>
   </g>
  </g>
 </g>
 <defs>
  <clipPath id="p45a23a3c67">
   <rect x="56.50625" y="22.318125" width="558" height="554.4"/>
  </clipPath>
 </defs>
</svg>
