<?xml version="1.0" encoding="utf-8" standalone="no"?>
<!DOCTYPE svg PUBLIC "-//W3C//DTD SVG 1.1//EN"
  "http://www.w3.org/Graphics/SVG/1.1/DTD/svg11.dtd">
<svg xmlns:xlink="http://www.w3.org/1999/xlink" width="621.70625pt" height="614.274375pt" viewBox="0 0 621.70625 614.274375" xmlns="http://www.w3.org/2000/svg" version="1.1">
 <metadata>
  <rdf:RDF xmlns:dc="http://purl.org/dc/elements/1.1/" xmlns:cc="http://creativecommons.org/ns#" xmlns:rdf="http://www.w3.org/1999/02/22-rdf-syntax-ns#">
   <cc:Work>
    <dc:type rdf:resource="http://purl.org/dc/dcmitype/StillImage"/>
    <dc:date>2026-05-22T06:27:44.014365</dc:date>
    <dc:format>image/svg+xml</dc:format>
    <dc:creator>
     <cc:Agent>
      <dc:title>Matplotlib v3.10.9, https://matplotlib.org/</dc:title>
     </cc:Agent>
    </dc:creator>
   </cc:Work>
  </rdf:RDF>
 </metadata>
 <defs>
  <style type="text/css">*{stroke-linejoin: round; stroke-linecap: butt}</style>
 </defs>
 <g id="figure_1">
  <g id="patch_1">
   <path d="M 0 614.274375 
L 621.70625 614.274375 
L 621.70625 0 
L 0 0 
z
" style="fill: #ffffff"/>
  </g>
  <g id="axes_1">
   <g id="patch_2">
    <path d="M 56.50625 576.718125 
L 614.50625 576.718125 
L 614.50625 22.318125 
L 56.50625 22.318125 
z
" style="fill: #ffffff"/>
   </g>
   <g id="matplotlib.axis_1">
    <g id="xtick_1">
     <g id="line2d_1">
      <path d="M 81.869886 576.718125 
L 81.869886 22.318125 
" clip-path="url(#pdd098f8a7f)" style="fill: none; stroke: #b0b0b0; stroke-width: 0.8; stroke-linecap: square"/>
     </g>
     <g id="line2d_2">
      <defs>
       <path id="me0ab9ec407" d="M 0 0 
L 0 3.5 
" style="stroke: #000000; stroke-width: 0.8"/>
      </defs>
      <g>
       <use xlink:href="#me0ab9ec407" x="81.869886" y="576.718125" style="stroke: #000000; stroke-width: 0.8"/>
      </g>
     </g>
     <g id="text_1">
      <!-- 0 -->
      <g transform="translate(78.688636 591.316563) scale(0.1 -0.1)">
       <defs>
        <path id="DejaVuSans-30" d="M 2034 4250 
Q 1547 4250 1301 3770 
Q 1056 3291 1056 2328 
Q 1056 1369 1301 889 
Q 1547 409 2034 409 
Q 2525 409 2770 889 
Q 3016 1369 3016 2328 
Q 3016 3291 2770 3770 
Q 2525 4250 2034 4250 
z
M 2034 4750 
Q 2819 4750 3233 4129 
Q 3647 3509 3647 2328 
Q 3647 1150 3233 529 
Q 2819 -91 2034 -91 
Q 1250 -91 836 529 
Q 422 1150 422 2328 
Q 422 3509 836 4129 
Q 1250 4750 2034 4750 
z
" transform="scale(0.015625)"/>
       </defs>
       <use xlink:href="#DejaVuSans-30"/>
      </g>
     </g>
    </g>
    <g id="xtick_2">
     <g id="line2d_3">
      <path d="M 145.358338 576.718125 
L 145.358338 22.318125 
" clip-path="url(#pdd098f8a7f)" style="fill: none; stroke: #b0b0b0; stroke-width: 0.8; stroke-linecap: square"/>
     </g>
     <g id="line2d_4">
      <g>
       <use xlink:href="#me0ab9ec407" x="145.358338" y="576.718125" style="stroke: #000000; stroke-width: 0.8"/>
      </g>
     </g>
     <g id="text_2">
      <!-- 100 -->
      <g transform="translate(135.814588 591.316563) scale(0.1 -0.1)">
       <defs>
        <path id="DejaVuSans-31" d="M 794 531 
L 1825 531 
L 1825 4091 
L 703 3866 
L 703 4441 
L 1819 4666 
L 2450 4666 
L 2450 531 
L 3481 531 
L 3481 0 
L 794 0 
L 794 531 
z
" transform="scale(0.015625)"/>
       </defs>
       <use xlink:href="#DejaVuSans-31"/>
       <use xlink:href="#DejaVuSans-30" transform="translate(63.623047 0)"/>
       <use xlink:href="#DejaVuSans-30" transform="translate(127.246094 0)"/>
      </g>
     </g>
    </g>
    <g id="xtick_3">
     <g id="line2d_5">
      <path d="M 208.846789 576.718125 
L 208.846789 22.318125 
" clip-path="url(#pdd098f8a7f)" style="fill: none; stroke: #b0b0b0; stroke-width: 0.8; stroke-linecap: square"/>
     </g>
     <g id="line2d_6">
      <g>
       <use xlink:href="#me0ab9ec407" x="208.846789" y="576.718125" style="stroke: #000000; stroke-width: 0.8"/>
      </g>
     </g>
     <g id="text_3">
      <!-- 200 -->
      <g transform="translate(199.303039 591.316563) scale(0.1 -0.1)">
       <defs>
        <path id="DejaVuSans-32" d="M 1228 531 
L 3431 531 
L 3431 0 
L 469 0 
L 469 531 
Q 828 903 1448 1529 
Q 2069 2156 2228 2338 
Q 2531 2678 2651 2914 
Q 2772 3150 2772 3378 
Q 2772 3750 2511 3984 
Q 2250 4219 1831 4219 
Q 1534 4219 1204 4116 
Q 875 4013 500 3803 
L 500 4441 
Q 881 4594 1212 4672 
Q 1544 4750 1819 4750 
Q 2544 4750 2975 4387 
Q 3406 4025 3406 3419 
Q 3406 3131 3298 2873 
Q 3191 2616 2906 2266 
Q 2828 2175 2409 1742 
Q 1991 1309 1228 531 
z
" transform="scale(0.015625)"/>
       </defs>
       <use xlink:href="#DejaVuSans-32"/>
       <use xlink:href="#DejaVuSans-30" transform="translate(63.623047 0)"/>
       <use xlink:href="#DejaVuSans-30" transform="translate(127.246094 0)"/>
      </g>
     </g>
    </g>
    <g id="xtick_4">
     <g id="line2d_7">
      <path d="M 272.335241 576.718125 
L 272.335241 22.318125 
" clip-path="url(#pdd098f8a7f)" style="fill: none; stroke: #b0b0b0; stroke-width: 0.8; stroke-linecap: square"/>
     </g>
     <g id="line2d_8">
      <g>
       <use xlink:href="#me0ab9ec407" x="272.335241" y="576.718125" style="stroke: #000000; stroke-width: 0.8"/>
      </g>
     </g>
     <g id="text_4">
      <!-- 300 -->
      <g transform="translate(262.791491 591.316563) scale(0.1 -0.1)">
       <defs>
        <path id="DejaVuSans-33" d="M 2597 2516 
Q 3050 2419 3304 2112 
Q 3559 1806 3559 1356 
Q 3559 666 3084 287 
Q 2609 -91 1734 -91 
Q 1441 -91 1130 -33 
Q 819 25 488 141 
L 488 750 
Q 750 597 1062 519 
Q 1375 441 1716 441 
Q 2309 441 2620 675 
Q 2931 909 2931 1356 
Q 2931 1769 2642 2001 
Q 2353 2234 1838 2234 
L 1294 2234 
L 1294 2753 
L 1863 2753 
Q 2328 2753 2575 2939 
Q 2822 3125 2822 3475 
Q 2822 3834 2567 4026 
Q 2313 4219 1838 4219 
Q 1578 4219 1281 4162 
Q 984 4106 628 3988 
L 628 4550 
Q 988 4650 1302 4700 
Q 1616 4750 1894 4750 
Q 2613 4750 3031 4423 
Q 3450 4097 3450 3541 
Q 3450 3153 3228 2886 
Q 3006 2619 2597 2516 
z
" transform="scale(0.015625)"/>
       </defs>
       <use xlink:href="#DejaVuSans-33"/>
       <use xlink:href="#DejaVuSans-30" transform="translate(63.623047 0)"/>
       <use xlink:href="#DejaVuSans-30" transform="translate(127.246094 0)"/>
      </g>
     </g>
    </g>
    <g id="xtick_5">
     <g id="line2d_9">
      <path d="M 335.823692 576.718125 
L 335.823692 22.318125 
" clip-path="url(#pdd098f8a7f)" style="fill: none; stroke: #b0b0b0; stroke-width: 0.8; stroke-linecap: square"/>
     </g>
     <g id="line2d_10">
      <g>
       <use xlink:href="#me0ab9ec407" x="335.823692" y="576.718125" style="stroke: #000000; stroke-width: 0.8"/>
      </g>
     </g>
     <g id="text_5">
      <!-- 400 -->
      <g transform="translate(326.279942 591.316563) scale(0.1 -0.1)">
       <defs>
        <path id="DejaVuSans-34" d="M 2419 4116 
L 825 1625 
L 2419 1625 
L 2419 4116 
z
M 2253 4666 
L 3047 4666 
L 3047 1625 
L 3713 1625 
L 3713 1100 
L 3047 1100 
L 3047 0 
L 2419 0 
L 2419 1100 
L 313 1100 
L 313 1709 
L 2253 4666 
z
" transform="scale(0.015625)"/>
       </defs>
       <use xlink:href="#DejaVuSans-34"/>
       <use xlink:href="#DejaVuSans-30" transform="translate(63.623047 0)"/>
       <use xlink:href="#DejaVuSans-30" transform="translate(127.246094 0)"/>
      </g>
     </g>
    </g>
    <g id="xtick_6">
     <g id="line2d_11">
      <path d="M 399.312144 576.718125 
L 399.312144 22.318125 
" clip-path="url(#pdd098f8a7f)" style="fill: none; stroke: #b0b0b0; stroke-width: 0.8; stroke-linecap: square"/>
     </g>
     <g id="line2d_12">
      <g>
       <use xlink:href="#me0ab9ec407" x="399.312144" y="576.718125" style="stroke: #000000; stroke-width: 0.8"/>
      </g>
     </g>
     <g id="text_6">
      <!-- 500 -->
      <g transform="translate(389.768394 591.316563) scale(0.1 -0.1)">
       <defs>
        <path id="DejaVuSans-35" d="M 691 4666 
L 3169 4666 
L 3169 4134 
L 1269 4134 
L 1269 2991 
Q 1406 3038 1543 3061 
Q 1681 3084 1819 3084 
Q 2600 3084 3056 2656 
Q 3513 2228 3513 1497 
Q 3513 744 3044 326 
Q 2575 -91 1722 -91 
Q 1428 -91 1123 -41 
Q 819 9 494 109 
L 494 744 
Q 775 591 1075 516 
Q 1375 441 1709 441 
Q 2250 441 2565 725 
Q 2881 1009 2881 1497 
Q 2881 1984 2565 2268 
Q 2250 2553 1709 2553 
Q 1456 2553 1204 2497 
Q 953 2441 691 2322 
L 691 4666 
z
" transform="scale(0.015625)"/>
       </defs>
       <use xlink:href="#DejaVuSans-35"/>
       <use xlink:href="#DejaVuSans-30" transform="translate(63.623047 0)"/>
       <use xlink:href="#DejaVuSans-30" transform="translate(127.246094 0)"/>
      </g>
     </g>
    </g>
    <g id="xtick_7">
     <g id="line2d_13">
      <path d="M 462.800595 576.718125 
L 462.800595 22.318125 
" clip-path="url(#pdd098f8a7f)" style="fill: none; stroke: #b0b0b0; stroke-width: 0.8; stroke-linecap: square"/>
     </g>
     <g id="line2d_14">
      <g>
       <use xlink:href="#me0ab9ec407" x="462.800595" y="576.718125" style="stroke: #000000; stroke-width: 0.8"/>
      </g>
     </g>
     <g id="text_7">
      <!-- 600 -->
      <g transform="translate(453.256845 591.316563) scale(0.1 -0.1)">
       <defs>
        <path id="DejaVuSans-36" d="M 2113 2584 
Q 1688 2584 1439 2293 
Q 1191 2003 1191 1497 
Q 1191 994 1439 701 
Q 1688 409 2113 409 
Q 2538 409 2786 701 
Q 3034 994 3034 1497 
Q 3034 2003 2786 2293 
Q 2538 2584 2113 2584 
z
M 3366 4563 
L 3366 3988 
Q 3128 4100 2886 4159 
Q 2644 4219 2406 4219 
Q 1781 4219 1451 3797 
Q 1122 3375 1075 2522 
Q 1259 2794 1537 2939 
Q 1816 3084 2150 3084 
Q 2853 3084 3261 2657 
Q 3669 2231 3669 1497 
Q 3669 778 3244 343 
Q 2819 -91 2113 -91 
Q 1303 -91 875 529 
Q 447 1150 447 2328 
Q 447 3434 972 4092 
Q 1497 4750 2381 4750 
Q 2619 4750 2861 4703 
Q 3103 4656 3366 4563 
z
" transform="scale(0.015625)"/>
       </defs>
       <use xlink:href="#DejaVuSans-36"/>
       <use xlink:href="#DejaVuSans-30" transform="translate(63.623047 0)"/>
       <use xlink:href="#DejaVuSans-30" transform="translate(127.246094 0)"/>
      </g>
     </g>
    </g>
    <g id="xtick_8">
     <g id="line2d_15">
      <path d="M 526.289047 576.718125 
L 526.289047 22.318125 
" clip-path="url(#pdd098f8a7f)" style="fill: none; stroke: #b0b0b0; stroke-width: 0.8; stroke-linecap: square"/>
     </g>
     <g id="line2d_16">
      <g>
       <use xlink:href="#me0ab9ec407" x="526.289047" y="576.718125" style="stroke: #000000; stroke-width: 0.8"/>
      </g>
     </g>
     <g id="text_8">
      <!-- 700 -->
      <g transform="translate(516.745297 591.316563) scale(0.1 -0.1)">
       <defs>
        <path id="DejaVuSans-37" d="M 525 4666 
L 3525 4666 
L 3525 4397 
L 1831 0 
L 1172 0 
L 2766 4134 
L 525 4134 
L 525 4666 
z
" transform="scale(0.015625)"/>
       </defs>
       <use xlink:href="#DejaVuSans-37"/>
       <use xlink:href="#DejaVuSans-30" transform="translate(63.623047 0)"/>
       <use xlink:href="#DejaVuSans-30" transform="translate(127.246094 0)"/>
      </g>
     </g>
    </g>
    <g id="xtick_9">
     <g id="line2d_17">
      <path d="M 589.777498 576.718125 
L 589.777498 22.318125 
" clip-path="url(#pdd098f8a7f)" style="fill: none; stroke: #b0b0b0; stroke-width: 0.8; stroke-linecap: square"/>
     </g>
     <g id="line2d_18">
      <g>
       <use xlink:href="#me0ab9ec407" x="589.777498" y="576.718125" style="stroke: #000000; stroke-width: 0.8"/>
      </g>
     </g>
     <g id="text_9">
      <!-- 800 -->
      <g transform="translate(580.233748 591.316563) scale(0.1 -0.1)">
       <defs>
        <path id="DejaVuSans-38" d="M 2034 2216 
Q 1584 2216 1326 1975 
Q 1069 1734 1069 1313 
Q 1069 891 1326 650 
Q 1584 409 2034 409 
Q 2484 409 2743 651 
Q 3003 894 3003 1313 
Q 3003 1734 2745 1975 
Q 2488 2216 2034 2216 
z
M 1403 2484 
Q 997 2584 770 2862 
Q 544 3141 544 3541 
Q 544 4100 942 4425 
Q 1341 4750 2034 4750 
Q 2731 4750 3128 4425 
Q 3525 4100 3525 3541 
Q 3525 3141 3298 2862 
Q 3072 2584 2669 2484 
Q 3125 2378 3379 2068 
Q 3634 1759 3634 1313 
Q 3634 634 3220 271 
Q 2806 -91 2034 -91 
Q 1263 -91 848 271 
Q 434 634 434 1313 
Q 434 1759 690 2068 
Q 947 2378 1403 2484 
z
M 1172 3481 
Q 1172 3119 1398 2916 
Q 1625 2713 2034 2713 
Q 2441 2713 2670 2916 
Q 2900 3119 2900 3481 
Q 2900 3844 2670 4047 
Q 2441 4250 2034 4250 
Q 1625 4250 1398 4047 
Q 1172 3844 1172 3481 
z
" transform="scale(0.015625)"/>
       </defs>
       <use xlink:href="#DejaVuSans-38"/>
       <use xlink:href="#DejaVuSans-30" transform="translate(63.623047 0)"/>
       <use xlink:href="#DejaVuSans-30" transform="translate(127.246094 0)"/>
      </g>
     </g>
    </g>
    <g id="text_10">
     <!-- Epochs -->
     <g transform="translate(317.590625 604.994688) scale(0.1 -0.1)">
      <defs>
       <path id="DejaVuSans-45" d="M 628 4666 
L 3578 4666 
L 3578 4134 
L 1259 4134 
L 1259 2753 
L 3481 2753 
L 3481 2222 
L 1259 2222 
L 1259 531 
L 3634 531 
L 3634 0 
L 628 0 
L 628 4666 
z
" transform="scale(0.015625)"/>
       <path id="DejaVuSans-70" d="M 1159 525 
L 1159 -1331 
L 581 -1331 
L 581 3500 
L 1159 3500 
L 1159 2969 
Q 1341 3281 1617 3432 
Q 1894 3584 2278 3584 
Q 2916 3584 3314 3078 
Q 3713 2572 3713 1747 
Q 3713 922 3314 415 
Q 2916 -91 2278 -91 
Q 1894 -91 1617 61 
Q 1341 213 1159 525 
z
M 3116 1747 
Q 3116 2381 2855 2742 
Q 2594 3103 2138 3103 
Q 1681 3103 1420 2742 
Q 1159 2381 1159 1747 
Q 1159 1113 1420 752 
Q 1681 391 2138 391 
Q 2594 391 2855 752 
Q 3116 1113 3116 1747 
z
" transform="scale(0.015625)"/>
       <path id="DejaVuSans-6f" d="M 1959 3097 
Q 1497 3097 1228 2736 
Q 959 2375 959 1747 
Q 959 1119 1226 758 
Q 1494 397 1959 397 
Q 2419 397 2687 759 
Q 2956 1122 2956 1747 
Q 2956 2369 2687 2733 
Q 2419 3097 1959 3097 
z
M 1959 3584 
Q 2709 3584 3137 3096 
Q 3566 2609 3566 1747 
Q 3566 888 3137 398 
Q 2709 -91 1959 -91 
Q 1206 -91 779 398 
Q 353 888 353 1747 
Q 353 2609 779 3096 
Q 1206 3584 1959 3584 
z
" transform="scale(0.015625)"/>
       <path id="DejaVuSans-63" d="M 3122 3366 
L 3122 2828 
Q 2878 2963 2633 3030 
Q 2388 3097 2138 3097 
Q 1578 3097 1268 2742 
Q 959 2388 959 1747 
Q 959 1106 1268 751 
Q 1578 397 2138 397 
Q 2388 397 2633 464 
Q 2878 531 3122 666 
L 3122 134 
Q 2881 22 2623 -34 
Q 2366 -91 2075 -91 
Q 1284 -91 818 406 
Q 353 903 353 1747 
Q 353 2603 823 3093 
Q 1294 3584 2113 3584 
Q 2378 3584 2631 3529 
Q 2884 3475 3122 3366 
z
" transform="scale(0.015625)"/>
       <path id="DejaVuSans-68" d="M 3513 2113 
L 3513 0 
L 2938 0 
L 2938 2094 
Q 2938 2591 2744 2837 
Q 2550 3084 2163 3084 
Q 1697 3084 1428 2787 
Q 1159 2491 1159 1978 
L 1159 0 
L 581 0 
L 581 4863 
L 1159 4863 
L 1159 2956 
Q 1366 3272 1645 3428 
Q 1925 3584 2291 3584 
Q 2894 3584 3203 3211 
Q 3513 2838 3513 2113 
z
" transform="scale(0.015625)"/>
       <path id="DejaVuSans-73" d="M 2834 3397 
L 2834 2853 
Q 2591 2978 2328 3040 
Q 2066 3103 1784 3103 
Q 1356 3103 1142 2972 
Q 928 2841 928 2578 
Q 928 2378 1081 2264 
Q 1234 2150 1697 2047 
L 1894 2003 
Q 2506 1872 2764 1633 
Q 3022 1394 3022 966 
Q 3022 478 2636 193 
Q 2250 -91 1575 -91 
Q 1294 -91 989 -36 
Q 684 19 347 128 
L 347 722 
Q 666 556 975 473 
Q 1284 391 1588 391 
Q 1994 391 2212 530 
Q 2431 669 2431 922 
Q 2431 1156 2273 1281 
Q 2116 1406 1581 1522 
L 1381 1569 
Q 847 1681 609 1914 
Q 372 2147 372 2553 
Q 372 3047 722 3315 
Q 1072 3584 1716 3584 
Q 2034 3584 2315 3537 
Q 2597 3491 2834 3397 
z
" transform="scale(0.015625)"/>
      </defs>
      <use xlink:href="#DejaVuSans-45"/>
      <use xlink:href="#DejaVuSans-70" transform="translate(63.183594 0)"/>
      <use xlink:href="#DejaVuSans-6f" transform="translate(126.660156 0)"/>
      <use xlink:href="#DejaVuSans-63" transform="translate(187.841797 0)"/>
      <use xlink:href="#DejaVuSans-68" transform="translate(242.822266 0)"/>
      <use xlink:href="#DejaVuSans-73" transform="translate(306.201172 0)"/>
     </g>
    </g>
   </g>
   <g id="matplotlib.axis_2">
    <g id="ytick_1">
     <g id="line2d_19">
      <path d="M 56.50625 549.116516 
L 614.50625 549.116516 
" clip-path="url(#pdd098f8a7f)" style="fill: none; stroke: #b0b0b0; stroke-width: 0.8; stroke-linecap: square"/>
     </g>
     <g id="line2d_20">
      <defs>
       <path id="maf90eff102" d="M 0 0 
L -3.5 0 
" style="stroke: #000000; stroke-width: 0.8"/>
      </defs>
      <g>
       <use xlink:href="#maf90eff102" x="56.50625" y="549.116516" style="stroke: #000000; stroke-width: 0.8"/>
      </g>
     </g>
     <g id="text_11">
      <!-- 0.670 -->
      <g transform="translate(20.878125 552.915735) scale(0.1 -0.1)">
       <defs>
        <path id="DejaVuSans-2e" d="M 684 794 
L 1344 794 
L 1344 0 
L 684 0 
L 684 794 
z
" transform="scale(0.015625)"/>
       </defs>
       <use xlink:href="#DejaVuSans-30"/>
       <use xlink:href="#DejaVuSans-2e" transform="translate(63.623047 0)"/>
       <use xlink:href="#DejaVuSans-36" transform="translate(95.410156 0)"/>
       <use xlink:href="#DejaVuSans-37" transform="translate(159.033203 0)"/>
       <use xlink:href="#DejaVuSans-30" transform="translate(222.65625 0)"/>
      </g>
     </g>
    </g>
    <g id="ytick_2">
     <g id="line2d_21">
      <path d="M 56.50625 456.860389 
L 614.50625 456.860389 
" clip-path="url(#pdd098f8a7f)" style="fill: none; stroke: #b0b0b0; stroke-width: 0.8; stroke-linecap: square"/>
     </g>
     <g id="line2d_22">
      <g>
       <use xlink:href="#maf90eff102" x="56.50625" y="456.860389" style="stroke: #000000; stroke-width: 0.8"/>
      </g>
     </g>
     <g id="text_12">
      <!-- 0.675 -->
      <g transform="translate(20.878125 460.659608) scale(0.1 -0.1)">
       <use xlink:href="#DejaVuSans-30"/>
       <use xlink:href="#DejaVuSans-2e" transform="translate(63.623047 0)"/>
       <use xlink:href="#DejaVuSans-36" transform="translate(95.410156 0)"/>
       <use xlink:href="#DejaVuSans-37" transform="translate(159.033203 0)"/>
       <use xlink:href="#DejaVuSans-35" transform="translate(222.65625 0)"/>
      </g>
     </g>
    </g>
    <g id="ytick_3">
     <g id="line2d_23">
      <path d="M 56.50625 364.604262 
L 614.50625 364.604262 
" clip-path="url(#pdd098f8a7f)" style="fill: none; stroke: #b0b0b0; stroke-width: 0.8; stroke-linecap: square"/>
     </g>
     <g id="line2d_24">
      <g>
       <use xlink:href="#maf90eff102" x="56.50625" y="364.604262" style="stroke: #000000; stroke-width: 0.8"/>
      </g>
     </g>
     <g id="text_13">
      <!-- 0.680 -->
      <g transform="translate(20.878125 368.403481) scale(0.1 -0.1)">
       <use xlink:href="#DejaVuSans-30"/>
       <use xlink:href="#DejaVuSans-2e" transform="translate(63.623047 0)"/>
       <use xlink:href="#DejaVuSans-36" transform="translate(95.410156 0)"/>
       <use xlink:href="#DejaVuSans-38" transform="translate(159.033203 0)"/>
       <use xlink:href="#DejaVuSans-30" transform="translate(222.65625 0)"/>
      </g>
     </g>
    </g>
    <g id="ytick_4">
     <g id="line2d_25">
      <path d="M 56.50625 272.348135 
L 614.50625 272.348135 
" clip-path="url(#pdd098f8a7f)" style="fill: none; stroke: #b0b0b0; stroke-width: 0.8; stroke-linecap: square"/>
     </g>
     <g id="line2d_26">
      <g>
       <use xlink:href="#maf90eff102" x="56.50625" y="272.348135" style="stroke: #000000; stroke-width: 0.8"/>
      </g>
     </g>
     <g id="text_14">
      <!-- 0.685 -->
      <g transform="translate(20.878125 276.147354) scale(0.1 -0.1)">
       <use xlink:href="#DejaVuSans-30"/>
       <use xlink:href="#DejaVuSans-2e" transform="translate(63.623047 0)"/>
       <use xlink:href="#DejaVuSans-36" transform="translate(95.410156 0)"/>
       <use xlink:href="#DejaVuSans-38" transform="translate(159.033203 0)"/>
       <use xlink:href="#DejaVuSans-35" transform="translate(222.65625 0)"/>
      </g>
     </g>
    </g>
    <g id="ytick_5">
     <g id="line2d_27">
      <path d="M 56.50625 180.092008 
L 614.50625 180.092008 
" clip-path="url(#pdd098f8a7f)" style="fill: none; stroke: #b0b0b0; stroke-width: 0.8; stroke-linecap: square"/>
     </g>
     <g id="line2d_28">
      <g>
       <use xlink:href="#maf90eff102" x="56.50625" y="180.092008" style="stroke: #000000; stroke-width: 0.8"/>
      </g>
     </g>
     <g id="text_15">
      <!-- 0.690 -->
      <g transform="translate(20.878125 183.891227) scale(0.1 -0.1)">
       <defs>
        <path id="DejaVuSans-39" d="M 703 97 
L 703 672 
Q 941 559 1184 500 
Q 1428 441 1663 441 
Q 2288 441 2617 861 
Q 2947 1281 2994 2138 
Q 2813 1869 2534 1725 
Q 2256 1581 1919 1581 
Q 1219 1581 811 2004 
Q 403 2428 403 3163 
Q 403 3881 828 4315 
Q 1253 4750 1959 4750 
Q 2769 4750 3195 4129 
Q 3622 3509 3622 2328 
Q 3622 1225 3098 567 
Q 2575 -91 1691 -91 
Q 1453 -91 1209 -44 
Q 966 3 703 97 
z
M 1959 2075 
Q 2384 2075 2632 2365 
Q 2881 2656 2881 3163 
Q 2881 3666 2632 3958 
Q 2384 4250 1959 4250 
Q 1534 4250 1286 3958 
Q 1038 3666 1038 3163 
Q 1038 2656 1286 2365 
Q 1534 2075 1959 2075 
z
" transform="scale(0.015625)"/>
       </defs>
       <use xlink:href="#DejaVuSans-30"/>
       <use xlink:href="#DejaVuSans-2e" transform="translate(63.623047 0)"/>
       <use xlink:href="#DejaVuSans-36" transform="translate(95.410156 0)"/>
       <use xlink:href="#DejaVuSans-39" transform="translate(159.033203 0)"/>
       <use xlink:href="#DejaVuSans-30" transform="translate(222.65625 0)"/>
      </g>
     </g>
    </g>
    <g id="ytick_6">
     <g id="line2d_29">
      <path d="M 56.50625 87.835881 
L 614.50625 87.835881 
" clip-path="url(#pdd098f8a7f)" style="fill: none; stroke: #b0b0b0; stroke-width: 0.8; stroke-linecap: square"/>
     </g>
     <g id="line2d_30">
      <g>
       <use xlink:href="#maf90eff102" x="56.50625" y="87.835881" style="stroke: #000000; stroke-width: 0.8"/>
      </g>
     </g>
     <g id="text_16">
      <!-- 0.695 -->
      <g transform="translate(20.878125 91.6351) scale(0.1 -0.1)">
       <use xlink:href="#DejaVuSans-30"/>
       <use xlink:href="#DejaVuSans-2e" transform="translate(63.623047 0)"/>
       <use xlink:href="#DejaVuSans-36" transform="translate(95.410156 0)"/>
       <use xlink:href="#DejaVuSans-39" transform="translate(159.033203 0)"/>
       <use xlink:href="#DejaVuSans-35" transform="translate(222.65625 0)"/>
      </g>
     </g>
    </g>
    <g id="text_17">
     <!-- Loss -->
     <g transform="translate(14.798437 310.485313) rotate(-90) scale(0.1 -0.1)">
      <defs>
       <path id="DejaVuSans-4c" d="M 628 4666 
L 1259 4666 
L 1259 531 
L 3531 531 
L 3531 0 
L 628 0 
L 628 4666 
z
" transform="scale(0.015625)"/>
      </defs>
      <use xlink:href="#DejaVuSans-4c"/>
      <use xlink:href="#DejaVuSans-6f" transform="translate(53.962891 0)"/>
      <use xlink:href="#DejaVuSans-73" transform="translate(115.144531 0)"/>
      <use xlink:href="#DejaVuSans-73" transform="translate(167.244141 0)"/>
     </g>
    </g>
   </g>
   <g id="line2d_31">
    <path d="M 81.869886 47.518125 
L 82.504771 131.834861 
L 83.139655 154.567288 
L 83.77454 167.67555 
L 84.409424 185.336897 
L 85.679193 231.919125 
L 86.314078 251.723941 
L 86.948962 267.108745 
L 88.218732 291.001438 
L 89.488501 309.88244 
L 90.75827 324.024495 
L 93.297808 349.131343 
L 94.567577 359.13823 
L 95.837346 369.012043 
L 96.47223 371.787885 
L 97.107115 376.948047 
L 98.376884 383.080413 
L 99.011768 387.706082 
L 99.646653 391.04831 
L 100.281537 391.127494 
L 100.916422 396.727567 
L 101.551306 399.768456 
L 102.186191 401.916323 
L 102.821075 406.198862 
L 103.45596 407.893621 
L 104.090844 411.405214 
L 104.725729 412.751344 
L 105.995498 419.803125 
L 106.630382 421.414301 
L 107.265267 425.073265 
L 109.16992 430.240025 
L 109.804805 434.062856 
L 110.43969 435.456276 
L 111.074574 438.247514 
L 111.709459 440.521856 
L 112.344343 440.549351 
L 112.979228 443.460465 
L 113.614112 444.644927 
L 114.248997 446.12083 
L 114.883881 448.730605 
L 115.518766 450.2483 
L 116.15365 453.387068 
L 116.788535 454.615521 
L 117.423419 456.137615 
L 118.058304 456.485145 
L 118.693188 458.231593 
L 119.328073 460.949147 
L 119.962957 461.588118 
L 121.232726 463.762381 
L 121.867611 466.124705 
L 122.502495 466.222586 
L 124.407149 469.705585 
L 125.042033 469.953035 
L 126.311802 471.689586 
L 126.946687 473.868247 
L 127.581571 473.812159 
L 128.216456 474.35325 
L 128.85134 475.886341 
L 129.486225 476.625393 
L 130.121109 476.878342 
L 130.755994 476.901437 
L 131.390879 479.032808 
L 132.025763 478.383939 
L 132.660648 480.01821 
L 133.930417 481.601891 
L 134.565301 481.963719 
L 135.200186 482.195772 
L 135.83507 483.612287 
L 137.104839 484.375533 
L 137.739724 484.936421 
L 138.374608 485.894328 
L 139.009493 485.661175 
L 139.644377 486.746656 
L 140.279262 487.164572 
L 140.914146 487.160173 
L 141.549031 488.257752 
L 142.183915 488.56679 
L 142.8188 488.375429 
L 143.453684 488.423819 
L 144.088569 490.143873 
L 144.723453 489.567589 
L 145.358338 491.35033 
L 145.993222 491.275545 
L 146.628107 491.692361 
L 147.262991 492.419315 
L 147.897876 492.698659 
L 148.53276 493.445409 
L 149.167645 493.565285 
L 149.802529 494.207555 
L 150.437414 494.529791 
L 151.072298 495.581179 
L 151.707183 494.855325 
L 152.342067 495.395316 
L 152.976952 496.878918 
L 153.611837 496.134368 
L 154.246721 496.386217 
L 154.881606 497.967699 
L 155.51649 498.199752 
L 156.151375 497.308931 
L 156.786259 498.15906 
L 157.421144 497.755442 
L 158.056028 498.119468 
L 159.325797 499.846121 
L 159.960682 499.065278 
L 160.595566 499.621766 
L 161.230451 501.020685 
L 161.865335 500.157358 
L 162.50022 501.513385 
L 163.135104 500.566476 
L 163.769989 501.672853 
L 165.039758 501.308827 
L 165.674642 501.087771 
L 166.309527 502.950796 
L 166.944411 503.585369 
L 167.579296 502.837519 
L 168.21418 503.853715 
L 168.849065 503.797626 
L 169.483949 504.488287 
L 170.118834 504.060473 
L 170.753718 504.038477 
L 171.388603 504.604864 
L 172.023487 505.530877 
L 172.658372 506.107161 
L 173.293256 506.287525 
L 173.928141 506.087365 
L 174.563026 506.200642 
L 175.19791 507.05957 
L 175.832795 507.559969 
L 176.467679 506.95619 
L 177.737448 507.226736 
L 178.372333 507.545672 
L 179.007217 508.174745 
L 179.642102 507.386204 
L 180.276986 508.317717 
L 180.911871 508.658648 
L 181.546755 508.473885 
L 182.18164 509.820014 
L 182.816524 508.778524 
L 183.451409 509.083163 
L 184.086293 510.203837 
L 184.721178 509.699039 
L 185.356062 510.742729 
L 185.990947 510.548068 
L 186.625831 509.846409 
L 187.260716 510.98578 
L 187.8956 510.806516 
L 189.165369 510.697638 
L 189.800254 511.001177 
L 190.435138 511.887598 
L 191.070023 513.257923 
L 191.704907 512.471581 
L 192.339792 512.968681 
L 192.974676 511.773221 
L 193.609561 512.245026 
L 194.87933 512.441887 
L 195.514215 513.926588 
L 196.149099 513.394295 
L 196.783984 513.095155 
L 197.418868 514.445684 
L 198.053753 513.345905 
L 198.688637 514.461081 
L 199.323522 515.156141 
L 199.958406 515.65874 
L 200.593291 514.31591 
L 201.228175 514.447883 
L 201.86306 515.267218 
L 203.132829 514.340105 
L 203.767713 515.750021 
L 204.402598 516.068957 
L 205.037482 515.25952 
L 205.672367 516.637543 
L 206.307251 515.316708 
L 206.942136 516.134944 
L 207.57702 516.199831 
L 208.211905 516.473676 
L 208.846789 516.967476 
L 209.481674 516.339503 
L 210.116558 517.24792 
L 211.386327 517.666936 
L 212.021212 518.247619 
L 212.656096 518.171734 
L 213.290981 518.711725 
L 213.925865 518.829402 
L 214.56075 517.904488 
L 215.195634 518.827202 
L 215.830519 519.300107 
L 216.465403 518.866794 
L 217.735173 519.241819 
L 218.370057 519.304506 
L 219.004942 519.501366 
L 219.639826 519.503566 
L 220.274711 518.620444 
L 220.909595 519.808205 
L 221.54448 520.640737 
L 222.179364 520.173331 
L 222.814249 520.18103 
L 223.449133 520.812303 
L 224.084018 520.088648 
L 224.718902 520.878289 
L 225.353787 521.086148 
L 226.623556 520.493367 
L 227.893325 521.001465 
L 228.528209 521.759212 
L 229.163094 521.442476 
L 229.797978 521.313802 
L 230.432863 520.905784 
L 231.067747 522.633536 
L 231.702632 521.489766 
L 232.337516 521.665731 
L 232.972401 522.040756 
L 233.607285 522.165031 
L 234.24217 523.797102 
L 234.877054 523.204321 
L 235.511939 523.442973 
L 236.146823 522.804002 
L 236.781708 523.224117 
L 237.416592 522.747913 
L 238.051477 523.636535 
L 238.686362 523.326397 
L 239.321246 523.932375 
L 239.956131 523.787204 
L 240.591015 524.341493 
L 241.2259 523.719018 
L 241.860784 524.099541 
L 242.495669 523.865288 
L 243.130553 524.379985 
L 243.765438 523.545253 
L 244.400322 524.989262 
L 245.035207 523.51006 
L 245.670091 525.278504 
L 246.304976 524.890282 
L 246.93986 525.387382 
L 247.574745 524.606539 
L 248.209629 524.315098 
L 248.844514 525.785502 
L 249.479398 525.216917 
L 250.114283 525.709617 
L 250.749167 524.383284 
L 251.384052 525.89438 
L 252.653821 526.09674 
L 253.288705 526.305698 
L 254.558474 525.54795 
L 255.193359 526.14513 
L 255.828243 525.89658 
L 256.463128 526.663126 
L 257.098012 525.99446 
L 257.732897 526.355188 
L 258.367781 525.89438 
L 259.002666 526.954567 
L 259.63755 526.256207 
L 260.272435 527.399977 
L 260.90732 526.356287 
L 261.542204 527.704616 
L 262.177089 526.768704 
L 262.811973 527.266904 
L 263.446858 526.94137 
L 264.081742 527.252607 
L 264.716627 527.049148 
L 265.351511 527.222913 
L 265.986396 527.606736 
L 266.62128 528.387579 
L 267.256165 527.744208 
L 267.891049 527.449467 
L 268.525934 528.7791 
L 269.160818 529.440067 
L 269.795703 528.97816 
L 270.430587 529.405974 
L 271.065472 529.199215 
L 271.700356 528.523951 
L 272.335241 528.554745 
L 272.970125 529.095836 
L 273.60501 529.378479 
L 274.874779 528.767002 
L 275.509663 528.818692 
L 276.144548 529.212413 
L 276.779432 530.235207 
L 277.414317 528.448066 
L 278.049201 529.409273 
L 278.684086 530.057043 
L 279.31897 529.016652 
L 279.953855 530.016351 
L 280.588739 530.190116 
L 281.223624 529.52475 
L 281.858509 530.511251 
L 282.493393 530.225309 
L 283.763162 530.661921 
L 284.398047 530.643225 
L 285.032931 530.182418 
L 286.3027 531.341584 
L 286.937585 530.614631 
L 287.572469 531.31519 
L 288.207354 530.214311 
L 288.842238 531.236006 
L 289.477123 530.826888 
L 290.746892 531.497753 
L 291.381776 533.359678 
L 292.016661 532.05864 
L 292.651545 532.370977 
L 293.28643 532.434764 
L 293.921314 532.053141 
L 294.556199 531.91127 
L 295.191083 531.358081 
L 295.825968 531.7606 
L 296.460852 532.01025 
L 297.095737 531.576937 
L 297.730621 532.814188 
L 298.365506 533.094632 
L 299.00039 532.236804 
L 299.635275 533.114428 
L 300.270159 531.371278 
L 300.905044 532.7559 
L 301.539928 533.677514 
L 302.174813 533.344281 
L 302.809697 532.042143 
L 303.444582 532.590933 
L 304.079467 532.573337 
L 304.714351 532.971456 
L 305.98412 533.2519 
L 306.619005 533.168317 
L 307.253889 533.515847 
L 307.888774 533.584033 
L 308.523658 533.395971 
L 309.158543 534.051439 
L 310.428312 534.34618 
L 311.063196 533.2541 
L 311.698081 534.270295 
L 312.332965 534.039342 
L 314.237619 534.478153 
L 314.872503 533.768796 
L 315.507388 533.736902 
L 316.142272 535.244699 
L 316.777157 534.056938 
L 317.412041 534.816885 
L 318.046926 534.736601 
L 318.68181 535.143519 
L 319.316695 535.332681 
L 319.951579 535.243599 
L 320.586464 535.028043 
L 321.221348 535.896868 
L 321.856233 534.627723 
L 322.491117 534.665116 
L 323.126002 534.935661 
L 323.760886 534.949958 
L 324.395771 535.154517 
L 325.030656 535.648318 
L 325.66554 534.661816 
L 326.300425 535.796788 
L 326.935309 534.7443 
L 327.570194 535.918863 
L 328.205078 535.351378 
L 328.839963 535.850677 
L 329.474847 535.276593 
L 330.109732 535.453657 
L 330.744616 535.493249 
L 331.379501 534.768495 
L 332.014385 536.98015 
L 332.64927 536.820682 
L 333.284154 535.877072 
L 333.919039 535.778092 
L 334.553923 536.450057 
L 335.188808 535.356876 
L 335.823692 537.274891 
L 336.458577 535.783591 
L 337.093461 537.169312 
L 337.728346 536.606225 
L 338.36323 536.988948 
L 338.998115 535.959555 
L 339.632999 535.83748 
L 340.267884 536.520442 
L 340.902768 537.473951 
L 341.537653 535.734101 
L 342.172537 536.018943 
L 342.807422 536.650216 
L 343.442306 536.649117 
L 344.077191 537.519041 
L 344.712075 536.429161 
L 345.981844 536.834979 
L 346.616729 537.556434 
L 347.251614 538.078829 
L 347.886498 536.308185 
L 348.521383 537.82368 
L 349.156267 537.411263 
L 349.791152 537.273791 
L 351.060921 538.51874 
L 351.695805 537.877569 
L 352.965574 537.122021 
L 353.600459 538.564931 
L 354.235343 537.443157 
L 354.870228 538.206403 
L 355.505112 538.689206 
L 356.139997 537.693906 
L 356.774881 537.842376 
L 357.409766 537.734598 
L 358.04465 537.842376 
L 358.679535 538.176709 
L 359.314419 537.932558 
L 359.949304 539.088426 
L 360.584188 537.730199 
L 361.219073 539.048834 
L 361.853957 538.651814 
L 362.488842 537.808283 
L 363.123726 538.141516 
L 363.758611 538.884967 
L 365.02838 539.346874 
L 365.663264 537.741197 
L 366.298149 538.535237 
L 366.933033 538.575929 
L 367.567918 539.16431 
L 368.202803 538.96855 
L 368.837687 538.278989 
L 369.472572 538.883867 
L 370.107456 538.985047 
L 370.742341 538.96965 
L 371.377225 539.61302 
L 372.01211 539.982546 
L 372.646994 539.06753 
L 373.281879 539.503042 
L 373.916763 539.743894 
L 374.551648 540.156311 
L 375.186532 539.021339 
L 375.821417 539.005942 
L 376.456301 540.11012 
L 377.72607 539.369969 
L 378.360955 540.238794 
L 378.995839 539.322679 
L 379.630724 540.26079 
L 380.265608 540.085925 
L 380.900493 539.635016 
L 381.535377 540.41146 
L 382.170262 539.501943 
L 382.805146 541.175806 
L 383.440031 539.849473 
L 384.074915 539.679007 
L 384.7098 540.562129 
L 385.344684 540.723797 
L 385.979569 540.090324 
L 386.614453 540.473047 
L 387.249338 540.665508 
L 387.884222 541.613518 
L 389.153991 539.997943 
L 389.788876 540.171708 
L 390.423761 540.724896 
L 391.058645 540.273987 
L 391.69353 541.022937 
L 392.328414 540.676506 
L 392.963299 541.040533 
L 393.598183 540.996542 
L 394.233068 540.577526 
L 394.867952 540.693003 
L 395.502837 540.098023 
L 396.137721 541.010839 
L 396.772606 541.564028 
L 397.40749 541.338573 
L 398.042375 540.850271 
L 398.677259 541.467247 
L 399.312144 540.867868 
L 400.581913 541.243992 
L 401.216797 541.665207 
L 401.851682 540.338874 
L 402.486566 541.859868 
L 403.756335 541.628915 
L 404.39122 541.786183 
L 405.026104 541.440852 
L 405.660989 542.09742 
L 406.295873 541.467247 
L 406.930758 542.472445 
L 407.565642 541.922556 
L 408.200527 542.069926 
L 408.835411 541.284684 
L 409.470296 541.846671 
L 410.10518 542.072125 
L 410.740065 542.437252 
L 411.37495 541.979744 
L 412.009834 541.160409 
L 412.644719 542.157908 
L 413.279603 542.206298 
L 413.914488 541.761988 
L 414.549372 541.769686 
L 415.184257 542.176604 
L 415.819141 541.218697 
L 416.454026 541.986343 
L 417.08891 542.988241 
L 417.723795 541.754289 
L 418.358679 542.603319 
L 418.993564 542.251389 
L 419.628448 542.969545 
L 420.263333 542.490041 
L 420.898217 543.137811 
L 421.533102 543.485341 
L 422.167986 542.914556 
L 422.802871 541.970946 
L 423.437755 542.758387 
L 424.07264 542.582423 
L 424.707524 543.155407 
L 425.342409 542.638511 
L 425.977293 543.368765 
L 428.516831 542.911257 
L 429.151716 543.643709 
L 429.7866 542.934352 
L 430.421485 543.656907 
L 431.056369 543.366565 
L 431.691254 544.415754 
L 432.326138 543.814175 
L 432.961023 543.54253 
L 433.595908 543.896658 
L 434.230792 542.998139 
L 435.500561 543.924153 
L 436.135446 543.544729 
L 436.77033 544.007736 
L 437.405215 542.814476 
L 438.040099 543.79108 
L 438.674984 543.633811 
L 439.309868 543.262086 
L 439.944753 543.567825 
L 440.579637 544.203497 
L 441.214522 543.579922 
L 441.849406 544.03963 
L 442.484291 543.774583 
L 443.119175 543.831771 
L 443.75406 544.762184 
L 444.388944 545.295577 
L 445.023829 542.770485 
L 446.293598 544.739089 
L 446.928482 544.025332 
L 447.563367 543.656907 
L 448.198251 544.257386 
L 448.833136 544.469643 
L 449.46802 543.945049 
L 450.102905 544.544428 
L 450.737789 544.729191 
L 451.372674 544.556526 
L 452.007558 544.952446 
L 452.642443 543.827372 
L 453.277327 544.610415 
L 453.912212 545.071222 
L 454.547097 544.810574 
L 455.181981 543.756986 
L 455.816866 545.157005 
L 456.45175 545.019532 
L 457.086635 543.494139 
L 457.721519 545.540828 
L 458.356404 545.015133 
L 458.991288 543.802077 
L 459.626173 545.418752 
L 460.261057 545.026131 
L 460.895942 545.290078 
L 461.530826 544.277182 
L 462.165711 544.670903 
L 462.800595 545.58042 
L 463.43548 545.273581 
L 464.070364 545.200996 
L 464.705249 545.262584 
L 465.340133 545.539728 
L 465.975018 545.015133 
L 466.609902 545.507834 
L 467.244787 544.746787 
L 467.879671 545.599116 
L 468.514556 545.794876 
L 469.14944 544.448747 
L 469.784325 545.784978 
L 470.419209 545.020632 
L 471.054094 545.387958 
L 471.688978 545.183399 
L 472.323863 545.903755 
L 472.958747 545.957644 
L 473.593632 545.881759 
L 474.228516 545.539728 
L 474.863401 546.041227 
L 475.498285 545.804774 
L 476.13317 545.32967 
L 476.768055 545.832269 
L 477.402939 545.208694 
L 478.037824 545.401156 
L 478.672708 545.027231 
L 479.307593 546.12701 
L 479.942477 545.342867 
L 480.577362 545.767382 
L 481.212246 545.318672 
L 481.847131 546.250185 
L 483.1169 546.238087 
L 483.751784 546.727489 
L 484.386669 545.912553 
L 485.021553 546.090717 
L 485.656438 546.826469 
L 486.291322 546.867161 
L 486.926207 546.07752 
L 487.561091 545.957644 
L 488.195976 546.731888 
L 488.83086 546.27218 
L 489.465745 546.231489 
L 490.100629 546.387657 
L 490.735514 546.087418 
L 491.370398 546.388757 
L 492.005283 546.813272 
L 492.640167 546.389857 
L 493.275052 546.466841 
L 494.544821 547.661201 
L 495.179705 547.522629 
L 495.81459 546.149005 
L 496.449474 547.02003 
L 497.084359 547.597414 
L 497.719244 545.887258 
L 498.354128 546.989236 
L 498.989013 546.649405 
L 500.258782 548.181396 
L 501.528551 546.724189 
L 502.163435 546.888057 
L 502.79832 547.448944 
L 503.433204 547.590815 
L 504.068089 548.104412 
L 504.702973 547.499534 
L 505.337858 546.664801 
L 505.972742 547.371959 
L 506.607627 547.359862 
L 507.242511 547.924048 
L 507.877396 546.791276 
L 508.51228 547.768979 
L 509.147165 546.998034 
L 509.782049 546.979338 
L 511.051818 547.755782 
L 512.321587 547.058522 
L 512.956472 547.680997 
L 513.591356 546.815471 
L 514.226241 548.292474 
L 514.861125 548.319968 
L 515.49601 547.436846 
L 516.130894 548.072518 
L 516.765779 547.327968 
L 517.400663 547.186097 
L 518.035548 546.504234 
L 518.670433 548.084616 
L 519.940202 548.104412 
L 520.575086 548.030727 
L 521.209971 547.575418 
L 522.47974 548.241884 
L 524.384393 547.898753 
L 525.019278 547.452243 
L 525.654162 548.780776 
L 526.289047 547.841565 
L 526.923931 548.005432 
L 527.558816 546.527329 
L 528.1937 547.760181 
L 528.828585 547.990035 
L 529.463469 548.724687 
L 530.098354 549.645202 
L 530.733238 547.646904 
L 531.368123 548.829166 
L 532.637892 547.803072 
L 533.272776 547.730487 
L 533.907661 548.292474 
L 534.542545 549.185494 
L 535.17743 548.85886 
L 535.812314 548.766479 
L 536.447199 548.382656 
L 537.082083 548.883055 
L 537.716968 548.465139 
L 538.351852 548.615809 
L 538.986737 548.615809 
L 539.621621 548.911649 
L 540.256506 548.223188 
L 540.891391 548.578416 
L 541.526275 548.246283 
L 542.16116 549.214089 
L 542.796044 549.695792 
L 544.065813 548.520128 
L 544.700698 550.024625 
L 545.335582 549.333964 
L 545.970467 548.847862 
L 546.605351 548.928146 
L 547.240236 549.550621 
L 547.87512 548.71149 
L 548.510005 548.879756 
L 549.144889 548.51023 
L 549.779774 548.916049 
L 550.414658 548.770878 
L 551.049543 549.00733 
L 551.684427 548.167099 
L 552.319312 549.292173 
L 552.954196 549.085414 
L 553.589081 549.90035 
L 554.223965 549.527525 
L 554.85885 550.283073 
L 555.493734 549.761778 
L 556.128619 549.419747 
L 556.763503 549.664998 
L 557.398388 549.736483 
L 558.033272 548.633405 
L 558.668157 549.508829 
L 559.303041 549.636404 
L 559.937926 549.647401 
L 560.57281 548.456341 
L 561.207695 549.617707 
L 561.84258 549.35486 
L 562.477464 549.864058 
L 564.382118 549.079916 
L 565.017002 550.030124 
L 565.651887 549.289973 
L 566.286771 550.678994 
L 567.55654 549.439543 
L 569.461194 549.832164 
L 570.096078 550.181894 
L 570.730963 550.20169 
L 571.365847 550.576714 
L 572.000732 549.594612 
L 572.635616 548.898452 
L 573.905385 550.35016 
L 575.175154 550.391952 
L 575.810039 549.723286 
L 576.444923 549.989433 
L 577.714692 550.230284 
L 578.349577 550.024625 
L 578.984461 549.360359 
L 579.619346 550.577814 
L 580.25423 550.528324 
L 580.889115 550.025725 
L 581.523999 550.014727 
L 582.158884 550.516227 
L 582.793768 551.518125 
L 583.428653 550.641601 
L 584.063538 550.079614 
L 584.698422 550.460138 
L 585.333307 550.181894 
L 585.968191 550.277575 
L 586.603076 550.99573 
L 587.23796 550.506329 
L 587.872845 550.908848 
L 588.507729 550.777974 
L 589.142614 550.353459 
L 589.142614 550.353459 
" clip-path="url(#pdd098f8a7f)" style="fill: none; stroke: #1f77b4; stroke-width: 1.5; stroke-linecap: square"/>
   </g>
   <g id="line2d_32">
    <path d="M 81.869886 114.257098 
L 82.504771 154.227456 
L 83.139655 169.259232 
L 83.77454 179.526766 
L 85.044309 220.700282 
L 85.679193 224.588 
L 86.314078 249.164756 
L 86.948962 251.755834 
L 87.583847 261.506473 
L 88.218732 266.610546 
L 88.853616 282.671714 
L 89.488501 285.292487 
L 90.75827 280.992352 
L 91.393154 287.937455 
L 92.028039 302.317062 
L 92.662923 294.119311 
L 93.297808 291.149909 
L 93.932692 328.126669 
L 94.567577 310.730369 
L 95.202461 327.487698 
L 95.837346 323.228255 
L 96.47223 328.253144 
L 97.107115 321.160671 
L 97.741999 324.79104 
L 98.376884 330.662759 
L 99.011768 332.507088 
L 99.646653 339.068368 
L 100.281537 349.717525 
L 100.916422 348.765117 
L 101.551306 336.4223 
L 102.186191 331.69985 
L 102.821075 355.976366 
L 103.45596 332.507088 
L 104.090844 353.560152 
L 104.725729 368.697507 
L 105.360613 327.341427 
L 105.995498 364.090534 
L 106.630382 364.941762 
L 107.265267 366.800388 
L 107.900151 353.268711 
L 108.535036 361.788697 
L 109.16992 363.806791 
L 109.804805 364.265398 
L 110.43969 366.511147 
L 111.074574 361.762302 
L 111.709459 376.935949 
L 112.344343 368.110225 
L 112.979228 367.483351 
L 113.614112 375.038831 
L 114.248997 367.151218 
L 114.883881 362.484857 
L 115.518766 374.224995 
L 116.15365 383.861256 
L 116.788535 359.858585 
L 117.423419 382.128005 
L 118.058304 383.224484 
L 118.693188 366.043741 
L 119.328073 390.631494 
L 119.962957 386.035519 
L 120.597842 370.901463 
L 121.232726 384.852157 
L 121.867611 388.91144 
L 122.502495 382.086213 
L 123.13738 381.85086 
L 123.772264 388.56061 
L 124.407149 388.307661 
L 125.042033 387.544415 
L 125.676918 389.541613 
L 126.311802 388.389045 
L 126.946687 386.358853 
L 127.581571 389.264469 
L 128.216456 380.51133 
L 128.85134 359.031551 
L 129.486225 389.966128 
L 130.121109 397.605191 
L 130.755994 381.429645 
L 131.390879 382.695491 
L 132.025763 397.153182 
L 132.660648 382.772475 
L 133.295532 386.82186 
L 133.930417 398.822646 
L 134.565301 372.372967 
L 135.200186 386.734978 
L 135.83507 382.312768 
L 136.469955 383.821664 
L 137.104839 386.875749 
L 137.739724 384.019624 
L 138.374608 378.210593 
L 139.009493 401.263055 
L 139.644377 404.377628 
L 140.279262 386.383049 
L 140.914146 373.287983 
L 141.549031 402.129681 
L 142.183915 385.636299 
L 142.8188 389.448132 
L 143.453684 391.947929 
L 144.088569 395.777359 
L 144.723453 384.863154 
L 145.358338 387.796264 
L 145.993222 404.008103 
L 146.628107 377.997236 
L 147.262991 388.022819 
L 147.897876 382.826364 
L 148.53276 393.100497 
L 149.167645 397.51061 
L 149.802529 387.51802 
L 150.437414 389.168788 
L 151.072298 393.914333 
L 151.707183 379.46654 
L 152.342067 394.243167 
L 152.976952 388.324158 
L 154.246721 393.53491 
L 154.881606 391.511317 
L 155.51649 390.069507 
L 156.151375 397.943923 
L 156.786259 384.813664 
L 157.421144 396.205172 
L 158.056028 384.479332 
L 158.690913 388.282366 
L 159.325797 386.804264 
L 159.960682 397.420428 
L 160.595566 394.747966 
L 161.230451 404.450214 
L 161.865335 378.92105 
L 162.50022 391.270465 
L 163.135104 394.152985 
L 163.769989 380.95674 
L 164.404873 399.332943 
L 165.039758 392.230572 
L 165.674642 394.139788 
L 166.309527 387.902943 
L 166.944411 393.523912 
L 167.579296 383.93824 
L 168.21418 382.10161 
L 168.849065 387.611501 
L 169.483949 390.447831 
L 170.118834 374.140312 
L 170.753718 388.085506 
L 171.388603 394.262963 
L 172.658372 397.205971 
L 173.293256 386.965931 
L 174.563026 398.092393 
L 175.19791 375.601918 
L 175.832795 392.207477 
L 176.467679 405.837035 
L 177.102564 385.670392 
L 177.737448 380.752181 
L 178.372333 387.062712 
L 179.007217 401.103587 
L 179.642102 382.107109 
L 180.911871 400.820944 
L 181.546755 387.777568 
L 182.18164 395.596995 
L 182.816524 379.1696 
L 183.451409 381.90475 
L 184.086293 382.731783 
L 184.721178 394.689677 
L 185.356062 387.698384 
L 185.990947 386.814162 
L 186.625831 399.84764 
L 187.260716 394.431229 
L 187.8956 380.526727 
L 188.530485 385.426241 
L 189.165369 403.039198 
L 189.800254 380.553122 
L 190.435138 404.590985 
L 191.070023 381.759579 
L 192.339792 394.953624 
L 193.609561 395.250565 
L 194.244445 386.509523 
L 194.87933 382.30177 
L 195.514215 380.340864 
L 196.149099 399.061298 
L 196.783984 389.249072 
L 197.418868 389.305161 
L 198.053753 386.015723 
L 198.688637 389.75827 
L 199.323522 389.826456 
L 199.958406 386.222481 
L 200.593291 388.974127 
L 201.228175 391.008718 
L 201.86306 382.737282 
L 202.497944 380.921547 
L 203.132829 385.608804 
L 203.767713 380.90725 
L 204.402598 393.398537 
L 205.037482 391.622394 
L 205.672367 376.526832 
L 206.307251 394.336648 
L 206.942136 388.31426 
L 207.57702 397.444623 
L 208.211905 393.687779 
L 208.846789 390.776665 
L 209.481674 377.32967 
L 210.116558 399.721165 
L 210.751443 377.401156 
L 211.386327 393.101597 
L 212.021212 394.919531 
L 212.656096 408.209257 
L 213.290981 381.430745 
L 213.925865 364.148822 
L 214.56075 374.492241 
L 215.195634 391.416736 
L 215.830519 388.510021 
L 216.465403 394.110094 
L 217.100288 381.784874 
L 217.735173 398.461918 
L 218.370057 389.926536 
L 219.004942 401.662275 
L 219.639826 387.182588 
L 220.274711 383.961336 
L 220.909595 399.238362 
L 221.54448 399.902629 
L 222.179364 381.141503 
L 222.814249 397.813049 
L 223.449133 391.230873 
L 224.084018 403.97181 
L 224.718902 388.270269 
L 225.353787 392.126093 
L 225.988671 386.188388 
L 226.623556 396.81335 
L 227.25844 392.361446 
L 227.893325 396.182077 
L 228.528209 391.641091 
L 229.163094 394.116693 
L 229.797978 399.19877 
L 230.432863 385.002826 
L 231.067747 390.952629 
L 231.702632 366.299989 
L 232.337516 387.843555 
L 232.972401 386.87465 
L 233.607285 390.007919 
L 234.24217 402.762053 
L 234.877054 398.10559 
L 235.511939 385.339359 
L 236.146823 401.303747 
L 236.781708 390.265268 
L 237.416592 385.207385 
L 238.051477 384.103207 
L 238.686362 379.078318 
L 239.321246 379.925148 
L 239.956131 386.554614 
L 240.591015 390.928434 
L 241.2259 387.933737 
L 242.495669 371.759291 
L 243.130553 398.090193 
L 243.765438 376.241989 
L 244.400322 394.061704 
L 245.035207 390.89764 
L 245.670091 389.717578 
L 246.304976 379.303773 
L 246.93986 391.235272 
L 247.574745 392.415335 
L 248.209629 396.16778 
L 248.844514 396.593394 
L 249.479398 387.399244 
L 250.114283 388.979626 
L 250.749167 379.228988 
L 251.384052 387.998624 
L 252.018936 366.84438 
L 252.653821 365.271696 
L 253.288705 384.016325 
L 253.92359 376.58622 
L 254.558474 363.480156 
L 255.193359 379.921849 
L 255.828243 390.123396 
L 256.463128 377.759684 
L 257.098012 402.5311 
L 257.732897 384.841159 
L 258.367781 389.797862 
L 259.002666 374.800179 
L 259.63755 398.458619 
L 260.272435 379.149804 
L 260.90732 398.741262 
L 261.542204 379.820669 
L 262.177089 380.497033 
L 262.811973 382.750479 
L 263.446858 390.792062 
L 264.081742 400.749458 
L 265.351511 393.076302 
L 265.986396 396.458122 
L 266.62128 389.130296 
L 267.256165 396.61319 
L 268.525934 392.564905 
L 269.160818 385.016024 
L 269.795703 394.833748 
L 270.430587 380.56082 
L 271.065472 383.286072 
L 271.700356 395.165882 
L 272.335241 393.090599 
L 272.970125 390.459928 
L 273.60501 392.976222 
L 274.239894 386.421541 
L 274.874779 386.17959 
L 275.509663 375.156507 
L 276.144548 384.843358 
L 276.779432 379.886656 
L 277.414317 384.472733 
L 278.049201 383.706187 
L 279.31897 392.506617 
L 279.953855 397.198273 
L 280.588739 394.910733 
L 281.858509 361.904174 
L 282.493393 396.183177 
L 283.128278 389.932035 
L 283.763162 392.592399 
L 284.398047 376.091319 
L 285.032931 397.851541 
L 285.667816 394.907434 
L 286.3027 389.221578 
L 286.937585 384.804866 
L 287.572469 390.578704 
L 288.207354 380.597113 
L 288.842238 390.788762 
L 289.477123 367.059936 
L 290.112007 382.35236 
L 290.746892 373.562928 
L 291.381776 387.314561 
L 292.016661 391.39694 
L 292.651545 381.60671 
L 293.28643 383.811766 
L 293.921314 377.584819 
L 294.556199 396.66488 
L 295.191083 385.684689 
L 295.825968 393.821952 
L 296.460852 394.5775 
L 297.095737 385.739678 
L 297.730621 371.622918 
L 298.365506 383.267375 
L 299.00039 389.676886 
L 299.635275 366.072335 
L 300.270159 376.247488 
L 300.905044 379.032128 
L 301.539928 390.425835 
L 302.174813 391.954528 
L 302.809697 388.121799 
L 303.444582 385.641798 
L 304.079467 380.155002 
L 304.714351 383.383952 
L 305.349236 380.555321 
L 305.98412 386.497426 
L 306.619005 378.304074 
L 307.253889 390.017817 
L 307.888774 398.347541 
L 308.523658 384.243979 
L 309.158543 376.794078 
L 309.793427 393.389739 
L 310.428312 376.58292 
L 311.063196 378.882558 
L 311.698081 374.561527 
L 312.332965 389.305161 
L 312.96785 365.938162 
L 313.602734 369.422261 
L 314.237619 374.857367 
L 314.872503 386.268672 
L 315.507388 391.162687 
L 316.142272 375.759186 
L 316.777157 382.490932 
L 317.412041 382.561318 
L 318.046926 389.517418 
L 318.68181 378.158903 
L 319.316695 390.378545 
L 319.951579 379.709591 
L 320.586464 383.173894 
L 321.221348 390.382944 
L 321.856233 390.743671 
L 322.491117 389.911139 
L 323.126002 370.947654 
L 323.760886 371.418359 
L 324.395771 377.436349 
L 325.030656 391.0978 
L 325.66554 393.045508 
L 326.300425 392.880541 
L 326.935309 383.238781 
L 327.570194 382.55032 
L 328.205078 366.810286 
L 328.839963 390.330154 
L 329.474847 382.074116 
L 330.109732 399.561697 
L 330.744616 376.508135 
L 331.379501 386.483128 
L 332.014385 370.547335 
L 333.284154 400.098389 
L 333.919039 379.859161 
L 334.553923 384.725682 
L 335.188808 386.174091 
L 335.823692 356.35689 
L 336.458577 387.309062 
L 337.093461 383.537921 
L 337.728346 396.626388 
L 338.36323 383.074914 
L 338.998115 381.377956 
L 339.632999 381.55282 
L 340.267884 392.204177 
L 340.902768 382.84726 
L 341.537653 387.390446 
L 342.172537 362.511251 
L 342.807422 390.704079 
L 343.442306 385.959634 
L 344.077191 392.606696 
L 344.712075 380.744483 
L 345.34696 388.199883 
L 345.981844 393.913234 
L 346.616729 385.849656 
L 347.251614 400.255658 
L 347.886498 380.279277 
L 348.521383 375.180702 
L 349.156267 384.989629 
L 349.791152 382.923145 
L 350.426036 387.972229 
L 351.060921 385.455935 
L 351.695805 388.01622 
L 352.33069 373.063628 
L 352.965574 390.414837 
L 353.600459 373.726795 
L 354.870228 385.406445 
L 355.505112 384.752077 
L 356.139997 385.196387 
L 356.774881 384.543119 
L 357.409766 389.25897 
L 358.04465 381.701291 
L 358.679535 378.318371 
L 359.314419 376.042929 
L 359.949304 377.937848 
L 360.584188 385.869452 
L 361.219073 389.003821 
L 361.853957 384.544219 
L 362.488842 386.811962 
L 363.123726 387.573009 
L 363.758611 389.783564 
L 364.393495 389.565808 
L 365.02838 388.022819 
L 365.663264 385.276671 
L 366.298149 375.995638 
L 366.933033 377.953245 
L 367.567918 389.699981 
L 368.202803 370.427459 
L 368.837687 390.076106 
L 369.472572 375.149909 
L 370.107456 385.115004 
L 370.742341 379.462141 
L 371.377225 376.978841 
L 372.01211 364.622827 
L 372.646994 379.933946 
L 373.281879 385.884849 
L 373.916763 378.557023 
L 374.551648 380.528926 
L 375.186532 389.594403 
L 375.821417 372.643513 
L 376.456301 364.424866 
L 377.091186 389.721977 
L 377.72607 393.240169 
L 378.360955 384.320963 
L 378.995839 370.167911 
L 379.630724 385.343758 
L 380.265608 380.251782 
L 380.900493 372.365269 
L 381.535377 378.415152 
L 382.170262 374.470245 
L 382.805146 386.182889 
L 383.440031 386.594206 
L 384.074915 379.81407 
L 384.7098 364.652521 
L 385.344684 370.404363 
L 385.979569 385.494427 
L 386.614453 393.574502 
L 387.249338 381.175596 
L 387.884222 382.703189 
L 388.519107 388.372548 
L 389.153991 383.567615 
L 389.788876 374.167806 
L 390.423761 377.124011 
L 391.058645 385.896946 
L 391.69353 382.713087 
L 392.328414 398.199071 
L 392.963299 375.83727 
L 393.598183 378.050025 
L 394.233068 379.411551 
L 394.867952 388.211981 
L 395.502837 384.868653 
L 396.137721 388.491324 
L 396.772606 370.757392 
L 398.042375 380.919348 
L 398.677259 375.410556 
L 399.312144 386.02782 
L 399.947028 379.650203 
L 400.581913 393.097198 
L 401.216797 385.899146 
L 401.851682 386.218082 
L 402.486566 366.772894 
L 403.121451 371.607521 
L 403.756335 382.938542 
L 404.39122 378.790176 
L 405.026104 383.710586 
L 405.660989 393.545908 
L 406.295873 364.735004 
L 406.930758 380.131906 
L 407.565642 375.350068 
L 408.200527 382.34796 
L 408.835411 384.434241 
L 409.470296 387.762171 
L 410.10518 377.648606 
L 410.740065 386.422641 
L 411.37495 368.773391 
L 412.009834 388.319759 
L 412.644719 378.257883 
L 413.279603 378.886957 
L 413.914488 388.795963 
L 414.549372 376.122113 
L 415.184257 383.970134 
L 415.819141 394.218972 
L 416.454026 375.279682 
L 417.08891 386.827359 
L 417.723795 376.655506 
L 418.358679 389.168788 
L 418.993564 380.371658 
L 419.628448 376.490539 
L 420.263333 380.384855 
L 420.898217 375.759186 
L 421.533102 360.544847 
L 422.167986 380.06152 
L 422.802871 377.508934 
L 423.437755 369.754394 
L 424.07264 378.47124 
L 424.707524 396.447124 
L 425.342409 372.412559 
L 425.977293 372.665508 
L 426.612178 373.220897 
L 427.247062 377.731089 
L 427.881947 377.805874 
L 428.516831 391.896239 
L 429.151716 380.106611 
L 429.7866 381.35486 
L 430.421485 373.986343 
L 431.056369 372.206901 
L 431.691254 393.703176 
L 432.326138 386.72288 
L 432.961023 390.1058 
L 433.595908 375.559026 
L 434.230792 368.803086 
L 434.865677 390.777764 
L 435.500561 373.922556 
L 436.135446 372.85467 
L 436.77033 381.494532 
L 437.405215 372.40926 
L 438.040099 374.388862 
L 438.674984 395.230769 
L 439.309868 380.719188 
L 439.944753 384.004227 
L 440.579637 388.202083 
L 441.214522 375.44025 
L 441.849406 375.953847 
L 442.484291 380.354062 
L 443.119175 361.630329 
L 443.75406 379.288376 
L 444.388944 381.744182 
L 445.023829 384.928041 
L 445.658713 366.834482 
L 446.293598 384.317664 
L 446.928482 362.309992 
L 447.563367 364.296192 
L 448.198251 381.990532 
L 448.833136 367.543839 
L 449.46802 374.261287 
L 450.102905 385.558215 
L 450.737789 373.072427 
L 451.372674 375.54033 
L 452.007558 373.162608 
L 452.642443 380.381556 
L 453.277327 374.772684 
L 453.912212 378.647205 
L 454.547097 386.964832 
L 455.181981 361.840386 
L 455.816866 375.276383 
L 456.45175 384.068014 
L 457.086635 375.334671 
L 457.721519 383.120005 
L 458.356404 380.513529 
L 458.991288 376.149607 
L 459.626173 373.766387 
L 460.261057 379.131108 
L 460.895942 389.530615 
L 462.165711 379.144305 
L 462.800595 357.809697 
L 463.43548 371.344674 
L 464.070364 373.25499 
L 464.705249 388.397843 
L 465.340133 393.073003 
L 465.975018 389.981525 
L 466.609902 378.088517 
L 467.244787 388.727777 
L 467.879671 382.665796 
L 468.514556 380.350762 
L 469.14944 376.33547 
L 469.784325 380.770878 
L 470.419209 386.418242 
L 471.054094 383.189291 
L 471.688978 378.713192 
L 472.323863 369.466252 
L 472.958747 374.157908 
L 473.593632 362.438666 
L 474.228516 372.126617 
L 474.863401 379.263081 
L 475.498285 375.115815 
L 476.13317 374.788081 
L 476.768055 376.893058 
L 477.402939 372.021038 
L 478.037824 380.983135 
L 478.672708 386.03002 
L 479.307593 365.589532 
L 479.942477 371.382067 
L 480.577362 383.222285 
L 481.212246 379.263081 
L 481.847131 376.824872 
L 482.482015 387.778668 
L 483.1169 374.521935 
L 483.751784 370.303184 
L 484.386669 380.730186 
L 485.021553 382.801069 
L 485.656438 378.288677 
L 486.291322 390.875645 
L 486.926207 366.245 
L 487.561091 374.585722 
L 488.195976 376.999736 
L 488.83086 377.242788 
L 489.465745 380.877556 
L 490.100629 385.273372 
L 490.735514 380.198993 
L 491.370398 363.003952 
L 492.005283 382.208289 
L 492.640167 374.701199 
L 493.275052 376.402557 
L 493.909936 364.789993 
L 494.544821 385.063314 
L 495.179705 362.945664 
L 495.81459 377.821271 
L 496.449474 373.880764 
L 497.084359 375.030033 
L 497.719244 372.585225 
L 498.354128 376.405856 
L 498.989013 381.548421 
L 499.623897 377.08002 
L 500.258782 383.073814 
L 500.893666 373.429855 
L 501.528551 379.582017 
L 502.163435 371.269889 
L 502.79832 383.316865 
L 503.433204 372.002342 
L 504.068089 380.613609 
L 504.702973 370.596825 
L 505.337858 378.081919 
L 505.972742 381.579215 
L 507.242511 381.893752 
L 507.877396 380.825867 
L 508.51228 380.989734 
L 509.147165 361.595136 
L 509.782049 370.106323 
L 510.416934 393.975921 
L 511.051818 379.590815 
L 511.686703 372.01334 
L 512.321587 385.459234 
L 512.956472 372.100222 
L 513.591356 368.917463 
L 514.226241 372.969047 
L 514.861125 375.698698 
L 515.49601 372.632515 
L 516.130894 374.144711 
L 516.765779 383.032023 
L 517.400663 382.356759 
L 518.035548 387.976628 
L 518.670433 376.927151 
L 519.305317 362.723509 
L 519.940202 373.038333 
L 520.575086 368.957055 
L 521.209971 379.061822 
L 522.47974 371.679007 
L 523.114624 377.581519 
L 523.749509 385.409744 
L 524.384393 378.642806 
L 525.019278 377.849865 
L 525.654162 370.759592 
L 526.289047 369.249596 
L 526.923931 375.809776 
L 527.558816 386.637097 
L 528.1937 368.952655 
L 528.828585 387.445435 
L 529.463469 371.808781 
L 530.098354 368.908664 
L 530.733238 384.549717 
L 531.368123 382.416147 
L 532.003007 383.702888 
L 532.637892 386.22798 
L 533.272776 369.621321 
L 533.907661 384.621203 
L 534.542545 378.32497 
L 535.17743 375.631612 
L 535.812314 384.33966 
L 536.447199 383.6402 
L 537.082083 360.352386 
L 538.351852 374.289882 
L 538.986737 372.718298 
L 539.621621 364.658019 
L 540.256506 366.601328 
L 540.891391 376.061625 
L 541.526275 380.813769 
L 542.16116 390.359849 
L 542.796044 385.194188 
L 543.430929 384.176892 
L 544.065813 380.961139 
L 544.700698 382.237983 
L 545.335582 384.547518 
L 545.970467 382.05212 
L 546.605351 362.327588 
L 547.240236 381.706789 
L 547.87512 348.90039 
L 548.510005 381.40545 
L 549.144889 370.701304 
L 549.779774 378.641706 
L 550.414658 372.786484 
L 551.049543 381.251481 
L 551.684427 386.354454 
L 552.319312 371.250093 
L 552.954196 370.439556 
L 553.589081 384.360556 
L 554.223965 368.638119 
L 554.85885 375.410556 
L 555.493734 390.528115 
L 556.128619 377.249386 
L 556.763503 381.564918 
L 557.398388 373.630014 
L 558.033272 379.411551 
L 558.668157 390.821756 
L 559.303041 382.374355 
L 559.937926 368.574332 
L 560.57281 381.325166 
L 561.207695 338.938594 
L 561.84258 366.39567 
L 562.477464 383.674294 
L 563.112349 375.828472 
L 563.747233 382.431544 
L 564.382118 360.040049 
L 565.017002 378.531728 
L 565.651887 377.646406 
L 566.286771 387.194685 
L 566.921656 367.767094 
L 567.55654 367.243599 
L 568.191425 373.660808 
L 568.826309 371.01914 
L 569.461194 376.78528 
L 570.096078 376.500437 
L 570.730963 376.438849 
L 571.365847 374.089722 
L 572.000732 385.559314 
L 572.635616 371.530537 
L 573.270501 385.449336 
L 573.905385 368.167413 
L 574.54027 380.344164 
L 575.175154 382.043322 
L 575.810039 379.232287 
L 576.444923 379.271879 
L 577.079808 367.568034 
L 577.714692 385.900246 
L 578.349577 347.612549 
L 578.984461 357.94387 
L 579.619346 376.470743 
L 580.25423 371.717499 
L 580.889115 370.097525 
L 581.523999 353.12464 
L 582.158884 376.986539 
L 582.793768 348.914687 
L 583.428653 390.762368 
L 584.063538 381.600111 
L 584.698422 376.350867 
L 585.333307 366.430863 
L 585.968191 365.342082 
L 586.603076 378.011533 
L 587.23796 364.050942 
L 587.872845 378.873759 
L 588.507729 378.310673 
L 589.142614 357.029954 
L 589.142614 357.029954 
" clip-path="url(#pdd098f8a7f)" style="fill: none; stroke: #ff7f0e; stroke-width: 1.5; stroke-linecap: square"/>
   </g>
   <g id="patch_3">
    <path d="M 56.50625 576.718125 
L 56.50625 22.318125 
" style="fill: none; stroke: #000000; stroke-width: 0.8; stroke-linejoin: miter; stroke-linecap: square"/>
   </g>
   <g id="patch_4">
    <path d="M 614.50625 576.718125 
L 614.50625 22.318125 
" style="fill: none; stroke: #000000; stroke-width: 0.8; stroke-linejoin: miter; stroke-linecap: square"/>
   </g>
   <g id="patch_5">
    <path d="M 56.50625 576.718125 
L 614.50625 576.718125 
" style="fill: none; stroke: #000000; stroke-width: 0.8; stroke-linejoin: miter; stroke-linecap: square"/>
   </g>
   <g id="patch_6">
    <path d="M 56.50625 22.318125 
L 614.50625 22.318125 
" style="fill: none; stroke: #000000; stroke-width: 0.8; stroke-linejoin: miter; stroke-linecap: square"/>
   </g>
   <g id="text_18">
    <!-- Train and Val Loss -->
    <g transform="translate(281.960938 16.318125) scale(0.12 -0.12)">
     <defs>
      <path id="DejaVuSans-54" d="M -19 4666 
L 3928 4666 
L 3928 4134 
L 2272 4134 
L 2272 0 
L 1638 0 
L 1638 4134 
L -19 4134 
L -19 4666 
z
" transform="scale(0.015625)"/>
      <path id="DejaVuSans-72" d="M 2631 2963 
Q 2534 3019 2420 3045 
Q 2306 3072 2169 3072 
Q 1681 3072 1420 2755 
Q 1159 2438 1159 1844 
L 1159 0 
L 581 0 
L 581 3500 
L 1159 3500 
L 1159 2956 
Q 1341 3275 1631 3429 
Q 1922 3584 2338 3584 
Q 2397 3584 2469 3576 
Q 2541 3569 2628 3553 
L 2631 2963 
z
" transform="scale(0.015625)"/>
      <path id="DejaVuSans-61" d="M 2194 1759 
Q 1497 1759 1228 1600 
Q 959 1441 959 1056 
Q 959 750 1161 570 
Q 1363 391 1709 391 
Q 2188 391 2477 730 
Q 2766 1069 2766 1631 
L 2766 1759 
L 2194 1759 
z
M 3341 1997 
L 3341 0 
L 2766 0 
L 2766 531 
Q 2569 213 2275 61 
Q 1981 -91 1556 -91 
Q 1019 -91 701 211 
Q 384 513 384 1019 
Q 384 1609 779 1909 
Q 1175 2209 1959 2209 
L 2766 2209 
L 2766 2266 
Q 2766 2663 2505 2880 
Q 2244 3097 1772 3097 
Q 1472 3097 1187 3025 
Q 903 2953 641 2809 
L 641 3341 
Q 956 3463 1253 3523 
Q 1550 3584 1831 3584 
Q 2591 3584 2966 3190 
Q 3341 2797 3341 1997 
z
" transform="scale(0.015625)"/>
      <path id="DejaVuSans-69" d="M 603 3500 
L 1178 3500 
L 1178 0 
L 603 0 
L 603 3500 
z
M 603 4863 
L 1178 4863 
L 1178 4134 
L 603 4134 
L 603 4863 
z
" transform="scale(0.015625)"/>
      <path id="DejaVuSans-6e" d="M 3513 2113 
L 3513 0 
L 2938 0 
L 2938 2094 
Q 2938 2591 2744 2837 
Q 2550 3084 2163 3084 
Q 1697 3084 1428 2787 
Q 1159 2491 1159 1978 
L 1159 0 
L 581 0 
L 581 3500 
L 1159 3500 
L 1159 2956 
Q 1366 3272 1645 3428 
Q 1925 3584 2291 3584 
Q 2894 3584 3203 3211 
Q 3513 2838 3513 2113 
z
" transform="scale(0.015625)"/>
      <path id="DejaVuSans-20" transform="scale(0.015625)"/>
      <path id="DejaVuSans-64" d="M 2906 2969 
L 2906 4863 
L 3481 4863 
L 3481 0 
L 2906 0 
L 2906 525 
Q 2725 213 2448 61 
Q 2172 -91 1784 -91 
Q 1150 -91 751 415 
Q 353 922 353 1747 
Q 353 2572 751 3078 
Q 1150 3584 1784 3584 
Q 2172 3584 2448 3432 
Q 2725 3281 2906 2969 
z
M 947 1747 
Q 947 1113 1208 752 
Q 1469 391 1925 391 
Q 2381 391 2643 752 
Q 2906 1113 2906 1747 
Q 2906 2381 2643 2742 
Q 2381 3103 1925 3103 
Q 1469 3103 1208 2742 
Q 947 2381 947 1747 
z
" transform="scale(0.015625)"/>
      <path id="DejaVuSans-56" d="M 1831 0 
L 50 4666 
L 709 4666 
L 2188 738 
L 3669 4666 
L 4325 4666 
L 2547 0 
L 1831 0 
z
" transform="scale(0.015625)"/>
      <path id="DejaVuSans-6c" d="M 603 4863 
L 1178 4863 
L 1178 0 
L 603 0 
L 603 4863 
z
" transform="scale(0.015625)"/>
     </defs>
     <use xlink:href="#DejaVuSans-54"/>
     <use xlink:href="#DejaVuSans-72" transform="translate(46.333984 0)"/>
     <use xlink:href="#DejaVuSans-61" transform="translate(87.447266 0)"/>
     <use xlink:href="#DejaVuSans-69" transform="translate(148.726562 0)"/>
     <use xlink:href="#DejaVuSans-6e" transform="translate(176.509766 0)"/>
     <use xlink:href="#DejaVuSans-20" transform="translate(239.888672 0)"/>
     <use xlink:href="#DejaVuSans-61" transform="translate(271.675781 0)"/>
     <use xlink:href="#DejaVuSans-6e" transform="translate(332.955078 0)"/>
     <use xlink:href="#DejaVuSans-64" transform="translate(396.333984 0)"/>
     <use xlink:href="#DejaVuSans-20" transform="translate(459.810547 0)"/>
     <use xlink:href="#DejaVuSans-56" transform="translate(491.597656 0)"/>
     <use xlink:href="#DejaVuSans-61" transform="translate(552.255859 0)"/>
     <use xlink:href="#DejaVuSans-6c" transform="translate(613.535156 0)"/>
     <use xlink:href="#DejaVuSans-20" transform="translate(641.318359 0)"/>
     <use xlink:href="#DejaVuSans-4c" transform="translate(673.105469 0)"/>
     <use xlink:href="#DejaVuSans-6f" transform="translate(727.068359 0)"/>
     <use xlink:href="#DejaVuSans-73" transform="translate(788.25 0)"/>
     <use xlink:href="#DejaVuSans-73" transform="translate(840.349609 0)"/>
    </g>
   </g>
   <g id="legend_1">
    <g id="patch_7">
     <path d="M 527.915625 60.230625 
L 607.50625 60.230625 
Q 609.50625 60.230625 609.50625 58.230625 
L 609.50625 29.318125 
Q 609.50625 27.318125 607.50625 27.318125 
L 527.915625 27.318125 
Q 525.915625 27.318125 525.915625 29.318125 
L 525.915625 58.230625 
Q 525.915625 60.230625 527.915625 60.230625 
z
" style="fill: #ffffff; opacity: 0.8; stroke: #cccccc; stroke-linejoin: miter"/>
    </g>
    <g id="line2d_33">
     <path d="M 529.915625 35.416563 
L 539.915625 35.416563 
L 549.915625 35.416563 
" style="fill: none; stroke: #1f77b4; stroke-width: 1.5; stroke-linecap: square"/>
    </g>
    <g id="text_19">
     <!-- train_loss -->
     <g transform="translate(557.915625 38.916563) scale(0.1 -0.1)">
      <defs>
       <path id="DejaVuSans-74" d="M 1172 4494 
L 1172 3500 
L 2356 3500 
L 2356 3053 
L 1172 3053 
L 1172 1153 
Q 1172 725 1289 603 
Q 1406 481 1766 481 
L 2356 481 
L 2356 0 
L 1766 0 
Q 1100 0 847 248 
Q 594 497 594 1153 
L 594 3053 
L 172 3053 
L 172 3500 
L 594 3500 
L 594 4494 
L 1172 4494 
z
" transform="scale(0.015625)"/>
       <path id="DejaVuSans-5f" d="M 3263 -1063 
L 3263 -1509 
L -63 -1509 
L -63 -1063 
L 3263 -1063 
z
" transform="scale(0.015625)"/>
      </defs>
      <use xlink:href="#DejaVuSans-74"/>
      <use xlink:href="#DejaVuSans-72" transform="translate(39.208984 0)"/>
      <use xlink:href="#DejaVuSans-61" transform="translate(80.322266 0)"/>
      <use xlink:href="#DejaVuSans-69" transform="translate(141.601562 0)"/>
      <use xlink:href="#DejaVuSans-6e" transform="translate(169.384766 0)"/>
      <use xlink:href="#DejaVuSans-5f" transform="translate(232.763672 0)"/>
      <use xlink:href="#DejaVuSans-6c" transform="translate(282.763672 0)"/>
      <use xlink:href="#DejaVuSans-6f" transform="translate(310.546875 0)"/>
      <use xlink:href="#DejaVuSans-73" transform="translate(371.728516 0)"/>
      <use xlink:href="#DejaVuSans-73" transform="translate(423.828125 0)"/>
     </g>
    </g>
    <g id="line2d_34">
     <path d="M 529.915625 50.372813 
L 539.915625 50.372813 
L 549.915625 50.372813 
" style="fill: none; stroke: #ff7f0e; stroke-width: 1.5; stroke-linecap: square"/>
    </g>
    <g id="text_20">
     <!-- val_loss -->
     <g transform="translate(557.915625 53.872813) scale(0.1 -0.1)">
      <defs>
       <path id="DejaVuSans-76" d="M 191 3500 
L 800 3500 
L 1894 563 
L 2988 3500 
L 3597 3500 
L 2284 0 
L 1503 0 
L 191 3500 
z
" transform="scale(0.015625)"/>
      </defs>
      <use xlink:href="#DejaVuSans-76"/>
      <use xlink:href="#DejaVuSans-61" transform="translate(59.179688 0)"/>
      <use xlink:href="#DejaVuSans-6c" transform="translate(120.458984 0)"/>
      <use xlink:href="#DejaVuSans-5f" transform="translate(148.242188 0)"/>
      <use xlink:href="#DejaVuSans-6c" transform="translate(198.242188 0)"/>
      <use xlink:href="#DejaVuSans-6f" transform="translate(226.025391 0)"/>
      <use xlink:href="#DejaVuSans-73" transform="translate(287.207031 0)"/>
      <use xlink:href="#DejaVuSans-73" transform="translate(339.306641 0)"/>
     </g>
    </g>
   </g>
  </g>
 </g>
 <defs>
  <clipPath id="pdd098f8a7f">
   <rect x="56.50625" y="22.318125" width="558" height="554.4"/>
  </clipPath>
 </defs>
</svg>
