<?xml version="1.0" encoding="utf-8" standalone="no"?>
<!DOCTYPE svg PUBLIC "-//W3C//DTD SVG 1.1//EN"
  "http://www.w3.org/Graphics/SVG/1.1/DTD/svg11.dtd">
<svg xmlns:xlink="http://www.w3.org/1999/xlink" width="615.34375pt" height="614.274375pt" viewBox="0 0 615.34375 614.274375" xmlns="http://www.w3.org/2000/svg" version="1.1">
 <metadata>
  <rdf:RDF xmlns:dc="http://purl.org/dc/elements/1.1/" xmlns:cc="http://creativecommons.org/ns#" xmlns:rdf="http://www.w3.org/1999/02/22-rdf-syntax-ns#">
   <cc:Work>
    <dc:type rdf:resource="http://purl.org/dc/dcmitype/StillImage"/>
    <dc:date>2026-05-22T06:27:46.198731</dc:date>
    <dc:format>image/svg+xml</dc:format>
    <dc:creator>
     <cc:Agent>
      <dc:title>Matplotlib v3.10.9, https://matplotlib.org/</dc:title>
     </cc:Agent>
    </dc:creator>
   </cc:Work>
  </rdf:RDF>
 </metadata>
 <defs>
  <style type="text/css">*{stroke-linejoin: round; stroke-linecap: butt}</style>
 </defs>
 <g id="figure_1">
  <g id="patch_1">
   <path d="M 0 614.274375 
L 615.34375 614.274375 
L 615.34375 0 
L 0 0 
z
" style="fill: #ffffff"/>
  </g>
  <g id="axes_1">
   <g id="patch_2">
    <path d="M 50.14375 576.718125 
L 608.14375 576.718125 
L 608.14375 22.318125 
L 50.14375 22.318125 
z
" style="fill: #ffffff"/>
   </g>
   <g id="matplotlib.axis_1">
    <g id="xtick_1">
     <g id="line2d_1">
      <path d="M 75.507386 576.718125 
L 75.507386 22.318125 
" clip-path="url(#p02d6877fd3)" style="fill: none; stroke: #b0b0b0; stroke-width: 0.8; stroke-linecap: square"/>
     </g>
     <g id="line2d_2">
      <defs>
       <path id="m5c1f40323f" d="M 0 0 
L 0 3.5 
" style="stroke: #000000; stroke-width: 0.8"/>
      </defs>
      <g>
       <use xlink:href="#m5c1f40323f" x="75.507386" y="576.718125" style="stroke: #000000; stroke-width: 0.8"/>
      </g>
     </g>
     <g id="text_1">
      <!-- 0 -->
      <g transform="translate(72.326136 591.316563) scale(0.1 -0.1)">
       <defs>
        <path id="DejaVuSans-30" d="M 2034 4250 
Q 1547 4250 1301 3770 
Q 1056 3291 1056 2328 
Q 1056 1369 1301 889 
Q 1547 409 2034 409 
Q 2525 409 2770 889 
Q 3016 1369 3016 2328 
Q 3016 3291 2770 3770 
Q 2525 4250 2034 4250 
z
M 2034 4750 
Q 2819 4750 3233 4129 
Q 3647 3509 3647 2328 
Q 3647 1150 3233 529 
Q 2819 -91 2034 -91 
Q 1250 -91 836 529 
Q 422 1150 422 2328 
Q 422 3509 836 4129 
Q 1250 4750 2034 4750 
z
" transform="scale(0.015625)"/>
       </defs>
       <use xlink:href="#DejaVuSans-30"/>
      </g>
     </g>
    </g>
    <g id="xtick_2">
     <g id="line2d_3">
      <path d="M 138.995838 576.718125 
L 138.995838 22.318125 
" clip-path="url(#p02d6877fd3)" style="fill: none; stroke: #b0b0b0; stroke-width: 0.8; stroke-linecap: square"/>
     </g>
     <g id="line2d_4">
      <g>
       <use xlink:href="#m5c1f40323f" x="138.995838" y="576.718125" style="stroke: #000000; stroke-width: 0.8"/>
      </g>
     </g>
     <g id="text_2">
      <!-- 100 -->
      <g transform="translate(129.452088 591.316563) scale(0.1 -0.1)">
       <defs>
        <path id="DejaVuSans-31" d="M 794 531 
L 1825 531 
L 1825 4091 
L 703 3866 
L 703 4441 
L 1819 4666 
L 2450 4666 
L 2450 531 
L 3481 531 
L 3481 0 
L 794 0 
L 794 531 
z
" transform="scale(0.015625)"/>
       </defs>
       <use xlink:href="#DejaVuSans-31"/>
       <use xlink:href="#DejaVuSans-30" transform="translate(63.623047 0)"/>
       <use xlink:href="#DejaVuSans-30" transform="translate(127.246094 0)"/>
      </g>
     </g>
    </g>
    <g id="xtick_3">
     <g id="line2d_5">
      <path d="M 202.484289 576.718125 
L 202.484289 22.318125 
" clip-path="url(#p02d6877fd3)" style="fill: none; stroke: #b0b0b0; stroke-width: 0.8; stroke-linecap: square"/>
     </g>
     <g id="line2d_6">
      <g>
       <use xlink:href="#m5c1f40323f" x="202.484289" y="576.718125" style="stroke: #000000; stroke-width: 0.8"/>
      </g>
     </g>
     <g id="text_3">
      <!-- 200 -->
      <g transform="translate(192.940539 591.316563) scale(0.1 -0.1)">
       <defs>
        <path id="DejaVuSans-32" d="M 1228 531 
L 3431 531 
L 3431 0 
L 469 0 
L 469 531 
Q 828 903 1448 1529 
Q 2069 2156 2228 2338 
Q 2531 2678 2651 2914 
Q 2772 3150 2772 3378 
Q 2772 3750 2511 3984 
Q 2250 4219 1831 4219 
Q 1534 4219 1204 4116 
Q 875 4013 500 3803 
L 500 4441 
Q 881 4594 1212 4672 
Q 1544 4750 1819 4750 
Q 2544 4750 2975 4387 
Q 3406 4025 3406 3419 
Q 3406 3131 3298 2873 
Q 3191 2616 2906 2266 
Q 2828 2175 2409 1742 
Q 1991 1309 1228 531 
z
" transform="scale(0.015625)"/>
       </defs>
       <use xlink:href="#DejaVuSans-32"/>
       <use xlink:href="#DejaVuSans-30" transform="translate(63.623047 0)"/>
       <use xlink:href="#DejaVuSans-30" transform="translate(127.246094 0)"/>
      </g>
     </g>
    </g>
    <g id="xtick_4">
     <g id="line2d_7">
      <path d="M 265.972741 576.718125 
L 265.972741 22.318125 
" clip-path="url(#p02d6877fd3)" style="fill: none; stroke: #b0b0b0; stroke-width: 0.8; stroke-linecap: square"/>
     </g>
     <g id="line2d_8">
      <g>
       <use xlink:href="#m5c1f40323f" x="265.972741" y="576.718125" style="stroke: #000000; stroke-width: 0.8"/>
      </g>
     </g>
     <g id="text_4">
      <!-- 300 -->
      <g transform="translate(256.428991 591.316563) scale(0.1 -0.1)">
       <defs>
        <path id="DejaVuSans-33" d="M 2597 2516 
Q 3050 2419 3304 2112 
Q 3559 1806 3559 1356 
Q 3559 666 3084 287 
Q 2609 -91 1734 -91 
Q 1441 -91 1130 -33 
Q 819 25 488 141 
L 488 750 
Q 750 597 1062 519 
Q 1375 441 1716 441 
Q 2309 441 2620 675 
Q 2931 909 2931 1356 
Q 2931 1769 2642 2001 
Q 2353 2234 1838 2234 
L 1294 2234 
L 1294 2753 
L 1863 2753 
Q 2328 2753 2575 2939 
Q 2822 3125 2822 3475 
Q 2822 3834 2567 4026 
Q 2313 4219 1838 4219 
Q 1578 4219 1281 4162 
Q 984 4106 628 3988 
L 628 4550 
Q 988 4650 1302 4700 
Q 1616 4750 1894 4750 
Q 2613 4750 3031 4423 
Q 3450 4097 3450 3541 
Q 3450 3153 3228 2886 
Q 3006 2619 2597 2516 
z
" transform="scale(0.015625)"/>
       </defs>
       <use xlink:href="#DejaVuSans-33"/>
       <use xlink:href="#DejaVuSans-30" transform="translate(63.623047 0)"/>
       <use xlink:href="#DejaVuSans-30" transform="translate(127.246094 0)"/>
      </g>
     </g>
    </g>
    <g id="xtick_5">
     <g id="line2d_9">
      <path d="M 329.461192 576.718125 
L 329.461192 22.318125 
" clip-path="url(#p02d6877fd3)" style="fill: none; stroke: #b0b0b0; stroke-width: 0.8; stroke-linecap: square"/>
     </g>
     <g id="line2d_10">
      <g>
       <use xlink:href="#m5c1f40323f" x="329.461192" y="576.718125" style="stroke: #000000; stroke-width: 0.8"/>
      </g>
     </g>
     <g id="text_5">
      <!-- 400 -->
      <g transform="translate(319.917442 591.316563) scale(0.1 -0.1)">
       <defs>
        <path id="DejaVuSans-34" d="M 2419 4116 
L 825 1625 
L 2419 1625 
L 2419 4116 
z
M 2253 4666 
L 3047 4666 
L 3047 1625 
L 3713 1625 
L 3713 1100 
L 3047 1100 
L 3047 0 
L 2419 0 
L 2419 1100 
L 313 1100 
L 313 1709 
L 2253 4666 
z
" transform="scale(0.015625)"/>
       </defs>
       <use xlink:href="#DejaVuSans-34"/>
       <use xlink:href="#DejaVuSans-30" transform="translate(63.623047 0)"/>
       <use xlink:href="#DejaVuSans-30" transform="translate(127.246094 0)"/>
      </g>
     </g>
    </g>
    <g id="xtick_6">
     <g id="line2d_11">
      <path d="M 392.949644 576.718125 
L 392.949644 22.318125 
" clip-path="url(#p02d6877fd3)" style="fill: none; stroke: #b0b0b0; stroke-width: 0.8; stroke-linecap: square"/>
     </g>
     <g id="line2d_12">
      <g>
       <use xlink:href="#m5c1f40323f" x="392.949644" y="576.718125" style="stroke: #000000; stroke-width: 0.8"/>
      </g>
     </g>
     <g id="text_6">
      <!-- 500 -->
      <g transform="translate(383.405894 591.316563) scale(0.1 -0.1)">
       <defs>
        <path id="DejaVuSans-35" d="M 691 4666 
L 3169 4666 
L 3169 4134 
L 1269 4134 
L 1269 2991 
Q 1406 3038 1543 3061 
Q 1681 3084 1819 3084 
Q 2600 3084 3056 2656 
Q 3513 2228 3513 1497 
Q 3513 744 3044 326 
Q 2575 -91 1722 -91 
Q 1428 -91 1123 -41 
Q 819 9 494 109 
L 494 744 
Q 775 591 1075 516 
Q 1375 441 1709 441 
Q 2250 441 2565 725 
Q 2881 1009 2881 1497 
Q 2881 1984 2565 2268 
Q 2250 2553 1709 2553 
Q 1456 2553 1204 2497 
Q 953 2441 691 2322 
L 691 4666 
z
" transform="scale(0.015625)"/>
       </defs>
       <use xlink:href="#DejaVuSans-35"/>
       <use xlink:href="#DejaVuSans-30" transform="translate(63.623047 0)"/>
       <use xlink:href="#DejaVuSans-30" transform="translate(127.246094 0)"/>
      </g>
     </g>
    </g>
    <g id="xtick_7">
     <g id="line2d_13">
      <path d="M 456.438095 576.718125 
L 456.438095 22.318125 
" clip-path="url(#p02d6877fd3)" style="fill: none; stroke: #b0b0b0; stroke-width: 0.8; stroke-linecap: square"/>
     </g>
     <g id="line2d_14">
      <g>
       <use xlink:href="#m5c1f40323f" x="456.438095" y="576.718125" style="stroke: #000000; stroke-width: 0.8"/>
      </g>
     </g>
     <g id="text_7">
      <!-- 600 -->
      <g transform="translate(446.894345 591.316563) scale(0.1 -0.1)">
       <defs>
        <path id="DejaVuSans-36" d="M 2113 2584 
Q 1688 2584 1439 2293 
Q 1191 2003 1191 1497 
Q 1191 994 1439 701 
Q 1688 409 2113 409 
Q 2538 409 2786 701 
Q 3034 994 3034 1497 
Q 3034 2003 2786 2293 
Q 2538 2584 2113 2584 
z
M 3366 4563 
L 3366 3988 
Q 3128 4100 2886 4159 
Q 2644 4219 2406 4219 
Q 1781 4219 1451 3797 
Q 1122 3375 1075 2522 
Q 1259 2794 1537 2939 
Q 1816 3084 2150 3084 
Q 2853 3084 3261 2657 
Q 3669 2231 3669 1497 
Q 3669 778 3244 343 
Q 2819 -91 2113 -91 
Q 1303 -91 875 529 
Q 447 1150 447 2328 
Q 447 3434 972 4092 
Q 1497 4750 2381 4750 
Q 2619 4750 2861 4703 
Q 3103 4656 3366 4563 
z
" transform="scale(0.015625)"/>
       </defs>
       <use xlink:href="#DejaVuSans-36"/>
       <use xlink:href="#DejaVuSans-30" transform="translate(63.623047 0)"/>
       <use xlink:href="#DejaVuSans-30" transform="translate(127.246094 0)"/>
      </g>
     </g>
    </g>
    <g id="xtick_8">
     <g id="line2d_15">
      <path d="M 519.926547 576.718125 
L 519.926547 22.318125 
" clip-path="url(#p02d6877fd3)" style="fill: none; stroke: #b0b0b0; stroke-width: 0.8; stroke-linecap: square"/>
     </g>
     <g id="line2d_16">
      <g>
       <use xlink:href="#m5c1f40323f" x="519.926547" y="576.718125" style="stroke: #000000; stroke-width: 0.8"/>
      </g>
     </g>
     <g id="text_8">
      <!-- 700 -->
      <g transform="translate(510.382797 591.316563) scale(0.1 -0.1)">
       <defs>
        <path id="DejaVuSans-37" d="M 525 4666 
L 3525 4666 
L 3525 4397 
L 1831 0 
L 1172 0 
L 2766 4134 
L 525 4134 
L 525 4666 
z
" transform="scale(0.015625)"/>
       </defs>
       <use xlink:href="#DejaVuSans-37"/>
       <use xlink:href="#DejaVuSans-30" transform="translate(63.623047 0)"/>
       <use xlink:href="#DejaVuSans-30" transform="translate(127.246094 0)"/>
      </g>
     </g>
    </g>
    <g id="xtick_9">
     <g id="line2d_17">
      <path d="M 583.414998 576.718125 
L 583.414998 22.318125 
" clip-path="url(#p02d6877fd3)" style="fill: none; stroke: #b0b0b0; stroke-width: 0.8; stroke-linecap: square"/>
     </g>
     <g id="line2d_18">
      <g>
       <use xlink:href="#m5c1f40323f" x="583.414998" y="576.718125" style="stroke: #000000; stroke-width: 0.8"/>
      </g>
     </g>
     <g id="text_9">
      <!-- 800 -->
      <g transform="translate(573.871248 591.316563) scale(0.1 -0.1)">
       <defs>
        <path id="DejaVuSans-38" d="M 2034 2216 
Q 1584 2216 1326 1975 
Q 1069 1734 1069 1313 
Q 1069 891 1326 650 
Q 1584 409 2034 409 
Q 2484 409 2743 651 
Q 3003 894 3003 1313 
Q 3003 1734 2745 1975 
Q 2488 2216 2034 2216 
z
M 1403 2484 
Q 997 2584 770 2862 
Q 544 3141 544 3541 
Q 544 4100 942 4425 
Q 1341 4750 2034 4750 
Q 2731 4750 3128 4425 
Q 3525 4100 3525 3541 
Q 3525 3141 3298 2862 
Q 3072 2584 2669 2484 
Q 3125 2378 3379 2068 
Q 3634 1759 3634 1313 
Q 3634 634 3220 271 
Q 2806 -91 2034 -91 
Q 1263 -91 848 271 
Q 434 634 434 1313 
Q 434 1759 690 2068 
Q 947 2378 1403 2484 
z
M 1172 3481 
Q 1172 3119 1398 2916 
Q 1625 2713 2034 2713 
Q 2441 2713 2670 2916 
Q 2900 3119 2900 3481 
Q 2900 3844 2670 4047 
Q 2441 4250 2034 4250 
Q 1625 4250 1398 4047 
Q 1172 3844 1172 3481 
z
" transform="scale(0.015625)"/>
       </defs>
       <use xlink:href="#DejaVuSans-38"/>
       <use xlink:href="#DejaVuSans-30" transform="translate(63.623047 0)"/>
       <use xlink:href="#DejaVuSans-30" transform="translate(127.246094 0)"/>
      </g>
     </g>
    </g>
    <g id="text_10">
     <!-- Epochs -->
     <g transform="translate(311.228125 604.994688) scale(0.1 -0.1)">
      <defs>
       <path id="DejaVuSans-45" d="M 628 4666 
L 3578 4666 
L 3578 4134 
L 1259 4134 
L 1259 2753 
L 3481 2753 
L 3481 2222 
L 1259 2222 
L 1259 531 
L 3634 531 
L 3634 0 
L 628 0 
L 628 4666 
z
" transform="scale(0.015625)"/>
       <path id="DejaVuSans-70" d="M 1159 525 
L 1159 -1331 
L 581 -1331 
L 581 3500 
L 1159 3500 
L 1159 2969 
Q 1341 3281 1617 3432 
Q 1894 3584 2278 3584 
Q 2916 3584 3314 3078 
Q 3713 2572 3713 1747 
Q 3713 922 3314 415 
Q 2916 -91 2278 -91 
Q 1894 -91 1617 61 
Q 1341 213 1159 525 
z
M 3116 1747 
Q 3116 2381 2855 2742 
Q 2594 3103 2138 3103 
Q 1681 3103 1420 2742 
Q 1159 2381 1159 1747 
Q 1159 1113 1420 752 
Q 1681 391 2138 391 
Q 2594 391 2855 752 
Q 3116 1113 3116 1747 
z
" transform="scale(0.015625)"/>
       <path id="DejaVuSans-6f" d="M 1959 3097 
Q 1497 3097 1228 2736 
Q 959 2375 959 1747 
Q 959 1119 1226 758 
Q 1494 397 1959 397 
Q 2419 397 2687 759 
Q 2956 1122 2956 1747 
Q 2956 2369 2687 2733 
Q 2419 3097 1959 3097 
z
M 1959 3584 
Q 2709 3584 3137 3096 
Q 3566 2609 3566 1747 
Q 3566 888 3137 398 
Q 2709 -91 1959 -91 
Q 1206 -91 779 398 
Q 353 888 353 1747 
Q 353 2609 779 3096 
Q 1206 3584 1959 3584 
z
" transform="scale(0.015625)"/>
       <path id="DejaVuSans-63" d="M 3122 3366 
L 3122 2828 
Q 2878 2963 2633 3030 
Q 2388 3097 2138 3097 
Q 1578 3097 1268 2742 
Q 959 2388 959 1747 
Q 959 1106 1268 751 
Q 1578 397 2138 397 
Q 2388 397 2633 464 
Q 2878 531 3122 666 
L 3122 134 
Q 2881 22 2623 -34 
Q 2366 -91 2075 -91 
Q 1284 -91 818 406 
Q 353 903 353 1747 
Q 353 2603 823 3093 
Q 1294 3584 2113 3584 
Q 2378 3584 2631 3529 
Q 2884 3475 3122 3366 
z
" transform="scale(0.015625)"/>
       <path id="DejaVuSans-68" d="M 3513 2113 
L 3513 0 
L 2938 0 
L 2938 2094 
Q 2938 2591 2744 2837 
Q 2550 3084 2163 3084 
Q 1697 3084 1428 2787 
Q 1159 2491 1159 1978 
L 1159 0 
L 581 0 
L 581 4863 
L 1159 4863 
L 1159 2956 
Q 1366 3272 1645 3428 
Q 1925 3584 2291 3584 
Q 2894 3584 3203 3211 
Q 3513 2838 3513 2113 
z
" transform="scale(0.015625)"/>
       <path id="DejaVuSans-73" d="M 2834 3397 
L 2834 2853 
Q 2591 2978 2328 3040 
Q 2066 3103 1784 3103 
Q 1356 3103 1142 2972 
Q 928 2841 928 2578 
Q 928 2378 1081 2264 
Q 1234 2150 1697 2047 
L 1894 2003 
Q 2506 1872 2764 1633 
Q 3022 1394 3022 966 
Q 3022 478 2636 193 
Q 2250 -91 1575 -91 
Q 1294 -91 989 -36 
Q 684 19 347 128 
L 347 722 
Q 666 556 975 473 
Q 1284 391 1588 391 
Q 1994 391 2212 530 
Q 2431 669 2431 922 
Q 2431 1156 2273 1281 
Q 2116 1406 1581 1522 
L 1381 1569 
Q 847 1681 609 1914 
Q 372 2147 372 2553 
Q 372 3047 722 3315 
Q 1072 3584 1716 3584 
Q 2034 3584 2315 3537 
Q 2597 3491 2834 3397 
z
" transform="scale(0.015625)"/>
      </defs>
      <use xlink:href="#DejaVuSans-45"/>
      <use xlink:href="#DejaVuSans-70" transform="translate(63.183594 0)"/>
      <use xlink:href="#DejaVuSans-6f" transform="translate(126.660156 0)"/>
      <use xlink:href="#DejaVuSans-63" transform="translate(187.841797 0)"/>
      <use xlink:href="#DejaVuSans-68" transform="translate(242.822266 0)"/>
      <use xlink:href="#DejaVuSans-73" transform="translate(306.201172 0)"/>
     </g>
    </g>
   </g>
   <g id="matplotlib.axis_2">
    <g id="ytick_1">
     <g id="line2d_19">
      <path d="M 50.14375 564.875204 
L 608.14375 564.875204 
" clip-path="url(#p02d6877fd3)" style="fill: none; stroke: #b0b0b0; stroke-width: 0.8; stroke-linecap: square"/>
     </g>
     <g id="line2d_20">
      <defs>
       <path id="m8ed6a1cbd7" d="M 0 0 
L -3.5 0 
" style="stroke: #000000; stroke-width: 0.8"/>
      </defs>
      <g>
       <use xlink:href="#m8ed6a1cbd7" x="50.14375" y="564.875204" style="stroke: #000000; stroke-width: 0.8"/>
      </g>
     </g>
     <g id="text_11">
      <!-- 0.00 -->
      <g transform="translate(20.878125 568.674423) scale(0.1 -0.1)">
       <defs>
        <path id="DejaVuSans-2e" d="M 684 794 
L 1344 794 
L 1344 0 
L 684 0 
L 684 794 
z
" transform="scale(0.015625)"/>
       </defs>
       <use xlink:href="#DejaVuSans-30"/>
       <use xlink:href="#DejaVuSans-2e" transform="translate(63.623047 0)"/>
       <use xlink:href="#DejaVuSans-30" transform="translate(95.410156 0)"/>
       <use xlink:href="#DejaVuSans-30" transform="translate(159.033203 0)"/>
      </g>
     </g>
    </g>
    <g id="ytick_2">
     <g id="line2d_21">
      <path d="M 50.14375 496.486958 
L 608.14375 496.486958 
" clip-path="url(#p02d6877fd3)" style="fill: none; stroke: #b0b0b0; stroke-width: 0.8; stroke-linecap: square"/>
     </g>
     <g id="line2d_22">
      <g>
       <use xlink:href="#m8ed6a1cbd7" x="50.14375" y="496.486958" style="stroke: #000000; stroke-width: 0.8"/>
      </g>
     </g>
     <g id="text_12">
      <!-- 0.02 -->
      <g transform="translate(20.878125 500.286177) scale(0.1 -0.1)">
       <use xlink:href="#DejaVuSans-30"/>
       <use xlink:href="#DejaVuSans-2e" transform="translate(63.623047 0)"/>
       <use xlink:href="#DejaVuSans-30" transform="translate(95.410156 0)"/>
       <use xlink:href="#DejaVuSans-32" transform="translate(159.033203 0)"/>
      </g>
     </g>
    </g>
    <g id="ytick_3">
     <g id="line2d_23">
      <path d="M 50.14375 428.098711 
L 608.14375 428.098711 
" clip-path="url(#p02d6877fd3)" style="fill: none; stroke: #b0b0b0; stroke-width: 0.8; stroke-linecap: square"/>
     </g>
     <g id="line2d_24">
      <g>
       <use xlink:href="#m8ed6a1cbd7" x="50.14375" y="428.098711" style="stroke: #000000; stroke-width: 0.8"/>
      </g>
     </g>
     <g id="text_13">
      <!-- 0.04 -->
      <g transform="translate(20.878125 431.89793) scale(0.1 -0.1)">
       <use xlink:href="#DejaVuSans-30"/>
       <use xlink:href="#DejaVuSans-2e" transform="translate(63.623047 0)"/>
       <use xlink:href="#DejaVuSans-30" transform="translate(95.410156 0)"/>
       <use xlink:href="#DejaVuSans-34" transform="translate(159.033203 0)"/>
      </g>
     </g>
    </g>
    <g id="ytick_4">
     <g id="line2d_25">
      <path d="M 50.14375 359.710465 
L 608.14375 359.710465 
" clip-path="url(#p02d6877fd3)" style="fill: none; stroke: #b0b0b0; stroke-width: 0.8; stroke-linecap: square"/>
     </g>
     <g id="line2d_26">
      <g>
       <use xlink:href="#m8ed6a1cbd7" x="50.14375" y="359.710465" style="stroke: #000000; stroke-width: 0.8"/>
      </g>
     </g>
     <g id="text_14">
      <!-- 0.06 -->
      <g transform="translate(20.878125 363.509683) scale(0.1 -0.1)">
       <use xlink:href="#DejaVuSans-30"/>
       <use xlink:href="#DejaVuSans-2e" transform="translate(63.623047 0)"/>
       <use xlink:href="#DejaVuSans-30" transform="translate(95.410156 0)"/>
       <use xlink:href="#DejaVuSans-36" transform="translate(159.033203 0)"/>
      </g>
     </g>
    </g>
    <g id="ytick_5">
     <g id="line2d_27">
      <path d="M 50.14375 291.322218 
L 608.14375 291.322218 
" clip-path="url(#p02d6877fd3)" style="fill: none; stroke: #b0b0b0; stroke-width: 0.8; stroke-linecap: square"/>
     </g>
     <g id="line2d_28">
      <g>
       <use xlink:href="#m8ed6a1cbd7" x="50.14375" y="291.322218" style="stroke: #000000; stroke-width: 0.8"/>
      </g>
     </g>
     <g id="text_15">
      <!-- 0.08 -->
      <g transform="translate(20.878125 295.121437) scale(0.1 -0.1)">
       <use xlink:href="#DejaVuSans-30"/>
       <use xlink:href="#DejaVuSans-2e" transform="translate(63.623047 0)"/>
       <use xlink:href="#DejaVuSans-30" transform="translate(95.410156 0)"/>
       <use xlink:href="#DejaVuSans-38" transform="translate(159.033203 0)"/>
      </g>
     </g>
    </g>
    <g id="ytick_6">
     <g id="line2d_29">
      <path d="M 50.14375 222.933971 
L 608.14375 222.933971 
" clip-path="url(#p02d6877fd3)" style="fill: none; stroke: #b0b0b0; stroke-width: 0.8; stroke-linecap: square"/>
     </g>
     <g id="line2d_30">
      <g>
       <use xlink:href="#m8ed6a1cbd7" x="50.14375" y="222.933971" style="stroke: #000000; stroke-width: 0.8"/>
      </g>
     </g>
     <g id="text_16">
      <!-- 0.10 -->
      <g transform="translate(20.878125 226.73319) scale(0.1 -0.1)">
       <use xlink:href="#DejaVuSans-30"/>
       <use xlink:href="#DejaVuSans-2e" transform="translate(63.623047 0)"/>
       <use xlink:href="#DejaVuSans-31" transform="translate(95.410156 0)"/>
       <use xlink:href="#DejaVuSans-30" transform="translate(159.033203 0)"/>
      </g>
     </g>
    </g>
    <g id="ytick_7">
     <g id="line2d_31">
      <path d="M 50.14375 154.545725 
L 608.14375 154.545725 
" clip-path="url(#p02d6877fd3)" style="fill: none; stroke: #b0b0b0; stroke-width: 0.8; stroke-linecap: square"/>
     </g>
     <g id="line2d_32">
      <g>
       <use xlink:href="#m8ed6a1cbd7" x="50.14375" y="154.545725" style="stroke: #000000; stroke-width: 0.8"/>
      </g>
     </g>
     <g id="text_17">
      <!-- 0.12 -->
      <g transform="translate(20.878125 158.344943) scale(0.1 -0.1)">
       <use xlink:href="#DejaVuSans-30"/>
       <use xlink:href="#DejaVuSans-2e" transform="translate(63.623047 0)"/>
       <use xlink:href="#DejaVuSans-31" transform="translate(95.410156 0)"/>
       <use xlink:href="#DejaVuSans-32" transform="translate(159.033203 0)"/>
      </g>
     </g>
    </g>
    <g id="ytick_8">
     <g id="line2d_33">
      <path d="M 50.14375 86.157478 
L 608.14375 86.157478 
" clip-path="url(#p02d6877fd3)" style="fill: none; stroke: #b0b0b0; stroke-width: 0.8; stroke-linecap: square"/>
     </g>
     <g id="line2d_34">
      <g>
       <use xlink:href="#m8ed6a1cbd7" x="50.14375" y="86.157478" style="stroke: #000000; stroke-width: 0.8"/>
      </g>
     </g>
     <g id="text_18">
      <!-- 0.14 -->
      <g transform="translate(20.878125 89.956697) scale(0.1 -0.1)">
       <use xlink:href="#DejaVuSans-30"/>
       <use xlink:href="#DejaVuSans-2e" transform="translate(63.623047 0)"/>
       <use xlink:href="#DejaVuSans-31" transform="translate(95.410156 0)"/>
       <use xlink:href="#DejaVuSans-34" transform="translate(159.033203 0)"/>
      </g>
     </g>
    </g>
    <g id="text_19">
     <!-- Accuracy -->
     <g transform="translate(14.798437 322.34625) rotate(-90) scale(0.1 -0.1)">
      <defs>
       <path id="DejaVuSans-41" d="M 2188 4044 
L 1331 1722 
L 3047 1722 
L 2188 4044 
z
M 1831 4666 
L 2547 4666 
L 4325 0 
L 3669 0 
L 3244 1197 
L 1141 1197 
L 716 0 
L 50 0 
L 1831 4666 
z
" transform="scale(0.015625)"/>
       <path id="DejaVuSans-75" d="M 544 1381 
L 544 3500 
L 1119 3500 
L 1119 1403 
Q 1119 906 1312 657 
Q 1506 409 1894 409 
Q 2359 409 2629 706 
Q 2900 1003 2900 1516 
L 2900 3500 
L 3475 3500 
L 3475 0 
L 2900 0 
L 2900 538 
Q 2691 219 2414 64 
Q 2138 -91 1772 -91 
Q 1169 -91 856 284 
Q 544 659 544 1381 
z
M 1991 3584 
L 1991 3584 
z
" transform="scale(0.015625)"/>
       <path id="DejaVuSans-72" d="M 2631 2963 
Q 2534 3019 2420 3045 
Q 2306 3072 2169 3072 
Q 1681 3072 1420 2755 
Q 1159 2438 1159 1844 
L 1159 0 
L 581 0 
L 581 3500 
L 1159 3500 
L 1159 2956 
Q 1341 3275 1631 3429 
Q 1922 3584 2338 3584 
Q 2397 3584 2469 3576 
Q 2541 3569 2628 3553 
L 2631 2963 
z
" transform="scale(0.015625)"/>
       <path id="DejaVuSans-61" d="M 2194 1759 
Q 1497 1759 1228 1600 
Q 959 1441 959 1056 
Q 959 750 1161 570 
Q 1363 391 1709 391 
Q 2188 391 2477 730 
Q 2766 1069 2766 1631 
L 2766 1759 
L 2194 1759 
z
M 3341 1997 
L 3341 0 
L 2766 0 
L 2766 531 
Q 2569 213 2275 61 
Q 1981 -91 1556 -91 
Q 1019 -91 701 211 
Q 384 513 384 1019 
Q 384 1609 779 1909 
Q 1175 2209 1959 2209 
L 2766 2209 
L 2766 2266 
Q 2766 2663 2505 2880 
Q 2244 3097 1772 3097 
Q 1472 3097 1187 3025 
Q 903 2953 641 2809 
L 641 3341 
Q 956 3463 1253 3523 
Q 1550 3584 1831 3584 
Q 2591 3584 2966 3190 
Q 3341 2797 3341 1997 
z
" transform="scale(0.015625)"/>
       <path id="DejaVuSans-79" d="M 2059 -325 
Q 1816 -950 1584 -1140 
Q 1353 -1331 966 -1331 
L 506 -1331 
L 506 -850 
L 844 -850 
Q 1081 -850 1212 -737 
Q 1344 -625 1503 -206 
L 1606 56 
L 191 3500 
L 800 3500 
L 1894 763 
L 2988 3500 
L 3597 3500 
L 2059 -325 
z
" transform="scale(0.015625)"/>
      </defs>
      <use xlink:href="#DejaVuSans-41"/>
      <use xlink:href="#DejaVuSans-63" transform="translate(66.658203 0)"/>
      <use xlink:href="#DejaVuSans-63" transform="translate(121.638672 0)"/>
      <use xlink:href="#DejaVuSans-75" transform="translate(176.619141 0)"/>
      <use xlink:href="#DejaVuSans-72" transform="translate(239.998047 0)"/>
      <use xlink:href="#DejaVuSans-61" transform="translate(281.111328 0)"/>
      <use xlink:href="#DejaVuSans-63" transform="translate(342.390625 0)"/>
      <use xlink:href="#DejaVuSans-79" transform="translate(397.371094 0)"/>
     </g>
    </g>
   </g>
   <g id="line2d_35">
    <path d="M 75.507386 133.896256 
L 76.142271 254.468554 
L 76.777155 313.510413 
L 77.41204 311.667715 
L 78.046924 288.890635 
L 78.681809 317.594695 
L 79.316693 354.695323 
L 79.951578 383.000457 
L 80.586462 391.055078 
L 81.221347 396.317169 
L 82.491116 392.859764 
L 83.126001 398.653769 
L 83.760885 397.969888 
L 84.39577 401.31331 
L 85.030654 405.62557 
L 85.665539 411.362583 
L 86.300423 404.694731 
L 86.935308 401.826231 
L 87.570192 393.885593 
L 88.205077 392.992739 
L 88.839961 387.996598 
L 89.474846 376.009664 
L 90.10973 389.060425 
L 90.744615 378.612214 
L 91.379499 380.30293 
L 92.014384 371.241487 
L 92.649268 378.669205 
L 93.284153 368.334989 
L 93.919037 369.987694 
L 94.553922 361.59114 
L 95.188806 359.501497 
L 95.823691 359.501497 
L 96.458575 356.613991 
L 97.09346 347.001655 
L 97.728344 343.772215 
L 98.363229 346.089796 
L 98.998113 334.121854 
L 99.632998 326.485165 
L 100.267882 325.97227 
L 100.902767 318.962458 
L 101.537651 319.019449 
L 102.172536 308.058342 
L 102.80742 316.454897 
L 103.442305 310.413935 
L 104.07719 310.527917 
L 104.712074 307.507436 
L 105.346959 294.513679 
L 105.981843 304.600937 
L 106.616728 302.207359 
L 107.251612 297.154227 
L 107.886497 299.110881 
L 108.521381 281.272951 
L 109.156266 288.624684 
L 109.79115 287.92181 
L 110.426035 288.738667 
L 111.060919 274.966038 
L 111.695804 289.308553 
L 112.330688 278.727379 
L 112.965573 284.388409 
L 113.600457 273.883206 
L 114.235342 278.917358 
L 114.870226 279.943174 
L 116.139995 275.004024 
L 116.77488 275.687893 
L 117.409764 274.05418 
L 118.044649 270.273833 
L 118.679533 277.815546 
L 119.314418 273.465288 
L 119.949302 268.165186 
L 120.584187 264.688801 
L 121.219071 271.166687 
L 121.853956 269.38098 
L 122.48884 266.797423 
L 123.123725 271.679582 
L 124.393494 261.6873 
L 125.028379 268.469147 
L 125.663263 262.789112 
L 126.298148 258.913789 
L 126.933032 263.131059 
L 127.567917 265.733622 
L 128.202801 260.718475 
L 128.837686 267.12039 
L 129.47257 264.498822 
L 130.107455 261.364358 
L 130.742339 261.364358 
L 131.377224 261.174405 
L 132.012108 261.47834 
L 132.646993 257.944964 
L 133.281877 267.215367 
L 133.916762 263.814953 
L 134.551646 257.185074 
L 135.186531 262.010267 
L 135.821415 260.22456 
L 136.4563 252.150947 
L 137.091184 258.628833 
L 137.726069 254.75351 
L 138.360953 259.920624 
L 138.995838 252.302915 
L 139.630722 255.418398 
L 140.265607 262.599158 
L 140.900491 249.54841 
L 141.535376 258.2489 
L 142.805145 254.696519 
L 143.440029 256.691159 
L 144.074914 252.150947 
L 144.709798 255.437378 
L 145.979567 248.57956 
L 146.614452 251.619046 
L 147.249337 249.928342 
L 147.884221 253.727669 
L 148.519106 255.399393 
L 149.15399 250.650196 
L 149.788875 253.328756 
L 150.423759 251.922982 
L 151.058644 253.841651 
L 151.693528 246.755868 
L 152.328413 256.767155 
L 152.963297 248.693542 
L 153.598182 250.023319 
L 154.233066 250.745199 
L 154.867951 247.515759 
L 155.502835 247.648721 
L 156.13772 249.56739 
L 156.772604 247.876686 
L 157.407489 252.397917 
L 158.042373 250.726193 
L 158.677258 250.365266 
L 159.312142 249.681372 
L 159.947027 245.198152 
L 160.581911 244.077334 
L 161.216796 246.299964 
L 161.85168 251.54305 
L 162.486565 245.88202 
L 163.121449 249.168451 
L 163.756334 249.453407 
L 164.391218 246.489917 
L 165.026103 245.559079 
L 165.660987 245.122155 
L 166.295872 247.059829 
L 166.930756 250.327255 
L 167.565641 244.799213 
L 168.200526 240.733911 
L 168.83541 242.500612 
L 169.470295 241.91172 
L 170.105179 244.476272 
L 170.740064 249.168451 
L 171.374948 234.768946 
L 172.009833 246.926841 
L 172.644717 241.227826 
L 173.279602 240.733911 
L 173.914486 242.975521 
L 174.549371 243.602424 
L 175.184255 235.756776 
L 175.81914 240.847893 
L 176.454024 240.771897 
L 177.088909 239.157189 
L 177.723793 246.052994 
L 178.358678 239.651104 
L 178.993562 240.733911 
L 179.628447 245.521093 
L 180.263331 239.461125 
L 180.898216 239.746081 
L 181.5331 238.397324 
L 182.167985 238.131348 
L 182.802869 244.89419 
L 183.437754 235.072882 
L 184.072638 247.667726 
L 184.707523 239.898049 
L 185.342407 242.101674 
L 185.977292 246.185982 
L 186.612176 240.486966 
L 187.247061 236.99155 
L 187.881945 243.925366 
L 188.51683 241.113844 
L 189.151715 239.499136 
L 190.421484 241.227826 
L 191.056368 235.946729 
L 191.691253 238.530287 
L 192.326137 238.853228 
L 192.961022 243.336474 
L 193.595906 238.606283 
L 194.230791 234.787926 
L 194.865675 238.43531 
L 195.50056 239.271172 
L 196.135444 241.265812 
L 196.770329 245.559079 
L 197.405213 233.24919 
L 198.040098 237.770421 
L 198.674982 239.537122 
L 199.309867 237.086527 
L 199.944751 240.220991 
L 200.579636 234.901908 
L 201.21452 238.150354 
L 201.849405 244.343284 
L 202.484289 235.338832 
L 203.119174 233.876093 
L 203.754058 241.170835 
L 204.388943 232.793286 
L 205.023827 239.062187 
L 205.658712 237.789427 
L 206.928481 246.755868 
L 207.563365 235.661773 
L 208.19825 235.794761 
L 208.833134 242.500612 
L 209.468019 236.573632 
L 210.102903 247.686707 
L 210.737788 240.41097 
L 211.372673 242.975521 
L 212.007557 232.090386 
L 212.642442 238.777257 
L 213.277326 239.442145 
L 213.912211 242.063688 
L 214.547095 238.359313 
L 215.18198 240.031037 
L 215.816864 239.917055 
L 216.451749 236.307682 
L 217.086633 234.540981 
L 217.721518 240.088028 
L 218.356402 242.519618 
L 218.991287 241.797738 
L 219.626171 238.264336 
L 220.261056 237.675444 
L 220.89594 240.259002 
L 221.530825 240.94287 
L 222.165709 246.926841 
L 222.800594 235.490825 
L 223.435478 239.556102 
L 224.070363 236.782591 
L 224.705247 235.129873 
L 225.340132 241.056853 
L 225.975016 242.709571 
L 226.609901 233.76211 
L 227.244785 238.43531 
L 227.87967 239.100198 
L 228.514554 240.239996 
L 229.149439 237.409494 
L 229.784323 240.657914 
L 230.419208 239.898049 
L 231.054092 244.590254 
L 231.688977 238.245331 
L 232.323862 241.132849 
L 232.958746 240.581943 
L 233.593631 236.535621 
L 234.228515 233.306181 
L 234.8634 237.9604 
L 235.498284 230.228709 
L 236.133169 240.904885 
L 236.768053 243.203486 
L 237.402938 233.572131 
L 238.037822 238.872234 
L 238.672707 242.709571 
L 239.307591 233.857087 
L 239.942476 238.929225 
L 240.57736 235.528811 
L 241.212245 240.828888 
L 241.847129 234.920914 
L 242.482014 238.682255 
L 243.116898 236.079717 
L 243.751783 239.42314 
L 244.386667 234.123037 
L 245.021552 237.466485 
L 245.656436 234.446004 
L 246.291321 239.575108 
L 246.926205 239.347143 
L 247.56109 240.505946 
L 248.195974 233.610142 
L 248.830859 239.898049 
L 250.100628 238.207345 
L 250.735512 237.998386 
L 251.370397 240.714906 
L 252.005281 237.105533 
L 252.640166 242.823553 
L 253.27505 232.52731 
L 253.909935 239.765087 
L 254.54482 241.778732 
L 255.179704 238.568272 
L 255.814589 238.131348 
L 256.449473 230.684638 
L 257.084358 242.65258 
L 257.719242 232.584301 
L 258.354127 246.698877 
L 258.989011 237.580442 
L 259.623896 232.546316 
L 260.25878 238.606283 
L 260.893665 238.929225 
L 261.528549 229.449863 
L 262.163434 246.071999 
L 262.798318 239.347143 
L 263.433203 242.747557 
L 264.068087 234.882928 
L 264.702972 232.812266 
L 265.337856 233.572131 
L 265.972741 236.7256 
L 266.607625 234.464984 
L 267.24251 241.303823 
L 267.877394 233.192199 
L 268.512279 234.977905 
L 269.147163 234.711955 
L 269.782048 237.029562 
L 270.416932 231.026585 
L 271.051817 234.521976 
L 271.686701 235.22485 
L 272.321586 228.405042 
L 272.95647 231.805456 
L 273.591355 231.938418 
L 274.226239 241.113844 
L 274.861124 232.299371 
L 275.496009 238.587278 
L 276.130893 241.683756 
L 276.765778 239.100198 
L 277.400662 228.424022 
L 278.035547 237.010556 
L 278.670431 228.500019 
L 279.305316 237.504471 
L 279.9402 235.718765 
L 280.575085 231.083576 
L 281.209969 238.625263 
L 281.844854 237.371483 
L 282.479738 234.426999 
L 283.114623 238.777257 
L 283.749507 234.294011 
L 284.384392 239.347143 
L 285.019276 231.748465 
L 285.654161 241.265812 
L 286.289045 236.896574 
L 286.92393 235.98474 
L 287.558814 240.809908 
L 288.193699 230.608641 
L 288.828583 233.325186 
L 289.463468 243.070498 
L 290.098352 236.079717 
L 290.733237 235.851752 
L 291.368121 238.473295 
L 292.003006 238.473295 
L 292.63789 238.074357 
L 293.272775 233.705119 
L 293.907659 239.024202 
L 294.542544 234.730935 
L 295.177428 232.736295 
L 295.812313 237.561462 
L 296.447197 228.139066 
L 297.082082 235.167858 
L 297.716967 234.23702 
L 298.351851 240.334973 
L 298.986736 235.034896 
L 299.62162 237.086527 
L 300.256505 236.098697 
L 300.891389 236.858588 
L 301.526274 241.550768 
L 302.161158 235.452814 
L 302.796043 236.7256 
L 303.430927 230.969594 
L 304.065812 242.082668 
L 304.700696 234.787926 
L 305.335581 236.022726 
L 305.970465 238.397324 
L 306.60535 231.78645 
L 307.240234 237.466485 
L 307.875119 231.5205 
L 308.510003 236.45965 
L 309.144888 233.667133 
L 309.779772 232.869257 
L 311.049541 239.385154 
L 311.684426 240.012031 
L 312.31931 238.739246 
L 312.954195 239.442145 
L 313.589079 243.108509 
L 314.223964 234.047066 
L 314.858848 242.481606 
L 315.493733 233.553151 
L 316.128617 231.558486 
L 316.763502 241.854729 
L 317.398386 227.721148 
L 318.033271 239.461125 
L 318.668156 235.091887 
L 319.30304 235.01589 
L 319.937925 234.199034 
L 320.572809 242.025703 
L 321.207694 238.606283 
L 321.842578 235.908744 
L 322.477463 236.744606 
L 323.112347 229.696808 
L 323.747232 240.543932 
L 324.382116 239.252166 
L 325.017001 238.302322 
L 325.651885 236.022726 
L 326.28677 236.592612 
L 326.921654 237.428474 
L 327.556539 236.45965 
L 328.191423 230.380702 
L 328.826308 235.47182 
L 329.461192 230.855611 
L 330.096077 238.283342 
L 330.730961 232.26136 
L 331.365846 237.352503 
L 332.00073 237.941395 
L 332.635615 236.155688 
L 333.270499 240.562938 
L 333.905384 233.173218 
L 334.540268 237.257501 
L 335.175153 235.053876 
L 335.810037 236.155688 
L 336.444922 233.173218 
L 337.079806 235.300846 
L 337.714691 234.863923 
L 338.349575 233.515165 
L 338.98446 240.581943 
L 339.619344 236.440644 
L 340.254229 233.686114 
L 340.889114 238.18834 
L 341.523998 232.698284 
L 342.158883 238.131348 
L 342.793767 235.851752 
L 343.428652 230.399682 
L 344.063536 239.347143 
L 344.698421 239.385154 
L 345.333305 236.117703 
L 345.96819 229.145902 
L 346.603074 240.904885 
L 347.237959 236.934559 
L 347.872843 226.961283 
L 348.507728 233.914078 
L 349.142612 233.629122 
L 349.777497 238.606283 
L 350.412381 227.816125 
L 351.047266 229.962758 
L 351.68215 239.613093 
L 352.317035 231.881427 
L 352.951919 231.596471 
L 353.586804 234.502995 
L 354.221688 234.275031 
L 354.856573 232.983239 
L 355.491457 233.021225 
L 356.126342 234.863923 
L 356.761226 235.927749 
L 357.396111 230.627647 
L 358.030995 238.264336 
L 358.66588 231.444503 
L 359.300764 233.24919 
L 359.935649 230.741629 
L 360.570533 231.938418 
L 361.205418 236.516641 
L 361.840303 233.477154 
L 362.475187 236.250691 
L 363.110072 233.306181 
L 363.744956 240.92389 
L 364.379841 228.651987 
L 365.014725 234.332022 
L 365.64961 234.047066 
L 366.284494 237.71343 
L 366.919379 239.537122 
L 367.554263 235.243855 
L 368.189148 229.29787 
L 368.824032 232.109392 
L 369.458917 232.318351 
L 370.093801 229.430858 
L 370.728686 235.490825 
L 371.36357 233.116227 
L 371.998455 238.340333 
L 372.633339 233.76211 
L 373.268224 236.97257 
L 373.903108 232.812266 
L 374.537993 239.404134 
L 375.172877 229.259884 
L 375.807762 238.834248 
L 376.442646 231.5205 
L 377.077531 230.836606 
L 377.712415 239.537122 
L 378.3473 235.661773 
L 378.982184 237.732436 
L 379.617069 231.653462 
L 380.251953 239.594113 
L 380.886838 235.547791 
L 381.521722 230.456673 
L 382.156607 234.540981 
L 382.791491 232.413353 
L 383.426376 230.722624 
L 384.061261 232.660298 
L 385.33103 241.493776 
L 385.965914 235.148878 
L 386.600799 233.268195 
L 387.235683 233.895098 
L 387.870568 235.699785 
L 388.505452 235.566797 
L 389.140337 231.064571 
L 389.775221 241.493776 
L 390.410106 237.238521 
L 391.04499 235.091887 
L 391.679875 240.012031 
L 392.314759 241.018867 
L 392.949644 231.102556 
L 393.584528 234.332022 
L 394.219413 238.18834 
L 394.854297 236.934559 
L 395.489182 236.440644 
L 396.124066 234.521976 
L 396.758951 238.378319 
L 397.393835 228.936943 
L 398.02872 233.23021 
L 398.663604 231.026585 
L 399.298489 233.515165 
L 399.933373 234.825937 
L 400.568258 236.744606 
L 401.203142 233.306181 
L 401.838027 235.490825 
L 402.472911 235.072882 
L 403.107796 239.119178 
L 403.74268 233.591137 
L 404.377565 242.956541 
L 405.01245 233.800096 
L 405.647334 241.075858 
L 406.282219 229.487849 
L 406.917103 238.397324 
L 407.551988 231.824436 
L 408.186872 235.414829 
L 408.821757 232.660298 
L 409.456641 236.231685 
L 410.091526 231.197559 
L 410.72641 239.461125 
L 411.361295 238.587278 
L 411.996179 238.872234 
L 412.631064 234.407993 
L 413.265948 234.939919 
L 413.900833 239.651104 
L 414.535717 232.964259 
L 415.170602 233.705119 
L 415.805486 240.524952 
L 416.440371 227.683162 
L 417.075255 232.850277 
L 417.71014 234.256025 
L 418.345024 235.300846 
L 418.979909 233.819101 
L 419.614793 234.21804 
L 420.249678 230.53267 
L 420.884562 236.649603 
L 421.519447 232.77428 
L 422.154331 234.673943 
L 422.789216 225.992458 
L 423.4241 239.271172 
L 424.058985 236.668609 
L 424.693869 227.949113 
L 425.328754 233.477154 
L 425.963638 230.437693 
L 426.598523 233.591137 
L 427.233408 231.919438 
L 427.868292 229.202893 
L 428.503177 234.00908 
L 429.138061 231.5205 
L 429.772946 233.021225 
L 430.40783 231.900433 
L 431.042715 232.77428 
L 431.677599 238.359313 
L 432.312484 238.18834 
L 432.947368 232.26136 
L 433.582253 240.239996 
L 434.217137 232.185388 
L 434.852022 235.281841 
L 435.486906 240.790902 
L 436.121791 233.097222 
L 436.756675 234.74994 
L 437.39156 228.784975 
L 438.026444 233.819101 
L 438.661329 240.220991 
L 439.296213 237.71343 
L 439.931098 233.895098 
L 440.565982 229.221899 
L 441.200867 234.332022 
L 441.835751 228.936943 
L 442.470636 243.64041 
L 443.10552 235.01589 
L 443.740405 234.256025 
L 444.375289 233.116227 
L 445.010174 234.313016 
L 445.645058 237.44748 
L 446.279943 231.710454 
L 446.914827 229.240879 
L 447.549712 237.371483 
L 448.184597 231.900433 
L 448.819481 239.651104 
L 450.08925 232.280365 
L 450.724135 234.104057 
L 451.359019 233.021225 
L 451.993904 229.27889 
L 452.628788 237.732436 
L 453.263673 232.26136 
L 453.898557 236.497635 
L 454.533442 235.965735 
L 455.168326 228.158072 
L 455.803211 230.836606 
L 456.438095 234.502995 
L 457.07298 240.885879 
L 457.707864 231.25455 
L 458.342749 233.344192 
L 458.977633 232.166383 
L 459.612518 233.76211 
L 460.247402 231.311541 
L 460.882287 240.202011 
L 461.517171 234.597972 
L 462.152056 230.513664 
L 462.78694 233.078216 
L 463.421825 233.458174 
L 464.056709 233.401183 
L 464.691594 236.801597 
L 465.326478 226.733318 
L 465.961363 231.311541 
L 466.596247 231.25455 
L 467.231132 234.313016 
L 467.866016 230.779615 
L 468.500901 236.744606 
L 469.135785 226.106415 
L 469.77067 233.078216 
L 470.405555 234.521976 
L 471.040439 235.680779 
L 471.675324 237.276506 
L 472.310208 229.924773 
L 472.945093 237.9604 
L 473.579977 233.287201 
L 474.214862 229.468843 
L 474.849746 237.542457 
L 475.484631 235.148878 
L 476.119515 234.711955 
L 476.7544 229.677802 
L 477.389284 237.143518 
L 478.024169 238.112368 
L 478.659053 238.473295 
L 479.293938 228.234069 
L 479.928822 232.698284 
L 480.563707 240.828888 
L 481.198591 231.691473 
L 481.833476 239.271172 
L 482.46836 231.748465 
L 483.103245 232.945254 
L 483.738129 225.973453 
L 484.373014 240.999861 
L 485.007898 235.604782 
L 485.642783 231.406518 
L 486.277667 235.490825 
L 486.912552 233.116227 
L 487.547436 235.357838 
L 488.182321 231.805456 
L 488.817205 233.078216 
L 489.45209 228.158072 
L 490.086974 229.639817 
L 490.721859 235.775756 
L 491.356744 236.1937 
L 491.991628 234.085052 
L 492.626513 242.937536 
L 493.261397 236.421664 
L 493.896282 233.705119 
L 494.531166 229.924773 
L 495.166051 241.455791 
L 495.800935 237.9604 
L 497.070704 229.29787 
L 497.705589 233.686114 
L 498.340473 227.151236 
L 499.610242 234.74994 
L 500.245127 233.268195 
L 500.880011 232.698284 
L 501.514896 233.401183 
L 502.14978 238.815242 
L 502.784665 228.841966 
L 503.419549 236.535621 
L 504.054434 235.414829 
L 504.689318 233.743105 
L 505.324203 236.098697 
L 505.959087 229.27889 
L 506.593972 231.558486 
L 507.228856 231.748465 
L 507.863741 233.040231 
L 508.498625 230.26672 
L 509.13351 235.262861 
L 509.768394 233.705119 
L 510.403279 232.888263 
L 511.038163 228.025084 
L 511.673048 235.73777 
L 512.307933 233.23021 
L 512.942817 229.335881 
L 513.577702 233.040231 
L 514.212586 226.448362 
L 514.847471 233.610142 
L 515.482355 234.407993 
L 516.11724 234.028061 
L 516.752124 228.04409 
L 517.387009 241.740747 
L 518.021893 227.32221 
L 518.656778 232.470344 
L 519.291662 229.03192 
L 519.926547 231.957424 
L 520.561431 236.307682 
L 521.196316 234.597972 
L 521.8312 233.819101 
L 522.466085 229.962758 
L 523.100969 231.444503 
L 523.735854 235.091887 
L 524.370738 236.440644 
L 525.005623 234.104057 
L 525.640507 235.528811 
L 526.275392 233.610142 
L 526.910276 232.679303 
L 527.545161 236.1937 
L 528.180045 231.045565 
L 528.81493 237.295512 
L 529.449814 236.345667 
L 530.084699 243.773398 
L 530.719583 231.919438 
L 531.354468 227.645151 
L 531.989352 234.21804 
L 532.624237 232.52731 
L 533.259121 223.731843 
L 533.894006 235.965735 
L 534.528891 228.708978 
L 535.163775 234.389013 
L 535.79866 231.957424 
L 536.433544 230.190723 
L 537.068429 238.473295 
L 537.703313 233.705119 
L 538.338198 233.23021 
L 538.973082 237.675444 
L 539.607967 239.879069 
L 540.242851 231.406518 
L 540.877736 234.066046 
L 541.51262 231.672468 
L 542.147505 232.166383 
L 542.782389 234.256025 
L 543.417274 231.691473 
L 544.052158 239.081193 
L 544.687043 232.128397 
L 545.321927 233.24919 
L 545.956812 231.27353 
L 546.591696 235.851752 
L 547.226581 234.730935 
L 547.861465 235.642793 
L 548.49635 233.667133 
L 549.131234 230.304705 
L 549.766119 234.028061 
L 550.401003 232.052401 
L 551.035888 234.23702 
L 551.670772 234.74994 
L 552.305657 234.597972 
L 552.940541 232.622312 
L 553.575426 223.579849 
L 554.21031 234.977905 
L 554.845195 232.584301 
L 555.48008 237.523477 
L 556.114964 237.238521 
L 556.749849 233.439169 
L 557.384733 230.722624 
L 558.019618 230.190723 
L 558.654502 228.063095 
L 559.289387 233.952089 
L 559.924271 232.926248 
L 560.559156 233.591137 
L 561.19404 231.501494 
L 561.828925 239.632099 
L 562.463809 238.530287 
L 563.098694 227.151236 
L 563.733578 230.000769 
L 564.368463 236.421664 
L 565.003347 234.180028 
L 565.638232 235.680779 
L 566.273116 225.555509 
L 566.908001 230.665632 
L 567.542885 231.026585 
L 568.17777 232.489324 
L 568.812654 238.625263 
L 569.447539 235.908744 
L 570.082423 233.724125 
L 570.717308 238.530287 
L 571.352192 233.629122 
L 571.987077 234.446004 
L 572.621961 235.832747 
L 573.256846 234.74994 
L 573.89173 234.085052 
L 574.526615 232.812266 
L 575.161499 231.938418 
L 576.431268 233.135207 
L 577.066153 230.076741 
L 577.701038 237.390489 
L 578.335922 228.670992 
L 578.970807 237.466485 
L 579.605691 231.083576 
L 580.240576 235.053876 
L 580.87546 232.489324 
L 581.510345 235.129873 
L 582.145229 233.325186 
L 582.780114 236.687614 
L 582.780114 236.687614 
" clip-path="url(#p02d6877fd3)" style="fill: none; stroke: #1f77b4; stroke-width: 1.5; stroke-linecap: square"/>
   </g>
   <g id="line2d_36">
    <path d="M 75.507386 282.089807 
L 76.142271 238.834248 
L 76.777155 299.5288 
L 77.41204 413.908155 
L 78.046924 354.752314 
L 78.681809 233.705119 
L 79.316693 456.479833 
L 79.951578 384.330234 
L 80.586462 420.576007 
L 82.491116 366.207348 
L 83.126001 411.172617 
L 83.760885 290.467356 
L 84.39577 425.876097 
L 85.665539 469.986511 
L 86.300423 454.086242 
L 86.935308 483.493189 
L 87.570192 409.975828 
L 88.205077 410.317762 
L 88.839961 397.153031 
L 90.10973 454.941097 
L 90.744615 447.589363 
L 91.379499 416.130772 
L 92.014384 410.317762 
L 92.649268 280.551071 
L 93.284153 355.949116 
L 93.919037 301.922403 
L 94.553922 316.283924 
L 95.188806 410.146801 
L 95.823691 327.055076 
L 96.458575 393.733612 
L 97.09346 425.021242 
L 97.728344 257.811976 
L 98.363229 265.16371 
L 98.998113 329.106733 
L 99.632998 244.647245 
L 100.267882 323.977604 
L 100.902767 227.892122 
L 101.537651 211.478945 
L 102.172536 347.742514 
L 102.80742 255.076451 
L 103.442305 301.409483 
L 104.07719 379.543052 
L 104.712074 212.675734 
L 105.346959 244.134325 
L 105.981843 240.031037 
L 106.616728 300.212694 
L 107.251612 279.012335 
L 107.886497 298.332011 
L 108.521381 283.799517 
L 109.156266 241.227826 
L 109.79115 110.606255 
L 110.426035 186.51722 
L 111.060919 362.787941 
L 111.695804 268.070209 
L 112.330688 296.793274 
L 112.965573 260.718475 
L 113.600457 413.395234 
L 114.235342 178.481618 
L 114.870226 196.262557 
L 115.505111 258.153923 
L 116.139995 239.518117 
L 116.77488 304.657929 
L 117.409764 227.208228 
L 118.044649 325.51634 
L 118.679533 288.92862 
L 119.314418 325.51634 
L 119.949302 223.10494 
L 120.584187 301.067536 
L 121.219071 286.193095 
L 121.853956 342.784385 
L 122.48884 291.835119 
L 123.123725 306.538612 
L 123.758609 235.756776 
L 124.393494 298.332011 
L 125.028379 211.99184 
L 125.663263 263.283027 
L 126.298148 326.029261 
L 126.933032 331.842258 
L 127.567917 295.596485 
L 128.202801 299.186878 
L 128.837686 263.454 
L 129.47257 219.68552 
L 130.107455 271.660602 
L 130.742339 203.956238 
L 131.377224 246.86985 
L 132.012108 65.470012 
L 132.646993 133.34535 
L 133.281877 249.947322 
L 133.916762 337.142335 
L 134.551646 228.917937 
L 135.186531 180.362275 
L 135.821415 236.269671 
L 136.4563 231.995409 
L 137.091184 149.758552 
L 137.726069 314.40324 
L 138.360953 304.315982 
L 138.995838 250.460243 
L 139.630722 234.389013 
L 140.265607 254.563531 
L 140.900491 235.756776 
L 141.535376 392.194876 
L 142.17026 240.202011 
L 142.805145 292.86096 
L 143.440029 221.39523 
L 144.074914 300.725614 
L 144.709798 306.367638 
L 145.344683 217.462916 
L 145.979567 202.588475 
L 146.614452 247.211797 
L 147.249337 230.2857 
L 147.884221 143.26166 
L 148.519106 153.519893 
L 149.15399 275.592916 
L 149.788875 309.958006 
L 150.423759 354.410379 
L 151.693528 195.92061 
L 152.963297 297.306195 
L 153.598182 299.870747 
L 154.233066 289.954461 
L 154.867951 244.818219 
L 155.502835 400.572438 
L 156.13772 318.677527 
L 156.772604 333.210021 
L 157.407489 252.340926 
L 158.042373 190.962455 
L 158.677258 285.6802 
L 159.312142 251.657032 
L 159.947027 173.523462 
L 160.581911 243.792378 
L 161.216796 242.766562 
L 161.85168 264.308868 
L 162.486565 248.408586 
L 163.121449 77.779901 
L 163.756334 200.878765 
L 164.391218 298.673958 
L 165.026103 276.789705 
L 165.660987 345.861857 
L 166.295872 232.166383 
L 166.930756 286.193095 
L 167.565641 136.593821 
L 168.200526 261.060422 
L 168.83541 205.324 
L 169.470295 278.157493 
L 170.105179 317.82266 
L 170.740064 142.406818 
L 171.374948 264.308868 
L 172.009833 336.458467 
L 172.644717 210.795051 
L 173.279602 336.62944 
L 173.914486 322.951789 
L 174.549371 218.659705 
L 175.184255 197.63032 
L 175.81914 284.141464 
L 176.454024 227.208228 
L 177.088909 208.572446 
L 177.723793 271.318654 
L 178.358678 376.294619 
L 178.993562 356.462023 
L 179.628447 234.730935 
L 180.263331 282.773676 
L 180.898216 263.795947 
L 181.5331 294.057749 
L 182.167985 299.870747 
L 182.802869 254.734504 
L 183.437754 248.921507 
L 184.072638 319.190422 
L 185.977292 176.600935 
L 186.612176 341.416596 
L 187.247061 263.795947 
L 187.881945 113.512779 
L 188.51683 217.975811 
L 189.151715 182.242959 
L 189.786599 205.494974 
L 190.421484 168.73628 
L 191.691253 379.714026 
L 192.961022 136.422822 
L 193.595906 78.121848 
L 194.230791 261.915264 
L 194.865675 279.696204 
L 195.50056 335.774573 
L 196.135444 257.128082 
L 196.770329 254.905478 
L 197.405213 253.537715 
L 198.040098 246.356955 
L 198.674982 231.482514 
L 199.309867 369.968701 
L 199.944751 214.385444 
L 200.579636 269.266998 
L 201.21452 298.332011 
L 202.484289 195.749637 
L 203.119174 283.97049 
L 203.754058 274.396127 
L 204.388943 389.972258 
L 205.023827 302.264325 
L 205.658712 307.051507 
L 206.293596 210.624077 
L 206.928481 186.51722 
L 207.563365 104.109414 
L 208.19825 324.319551 
L 208.833134 318.506554 
L 209.468019 339.87786 
L 210.102903 275.080021 
L 210.737788 330.987391 
L 211.372673 189.423719 
L 212.007557 182.755879 
L 213.277326 299.186878 
L 213.912211 333.380994 
L 214.547095 295.083565 
L 215.18198 206.349816 
L 216.451749 242.595589 
L 217.086633 107.357835 
L 217.721518 262.599158 
L 218.356402 333.380994 
L 218.991287 209.427288 
L 219.626171 129.413035 
L 220.261056 258.837792 
L 220.89594 312.693556 
L 221.530825 321.584026 
L 222.165709 289.099594 
L 222.800594 337.655256 
L 223.435478 241.227826 
L 224.070363 294.912591 
L 224.705247 255.076451 
L 225.340132 391.340034 
L 225.975016 166.342702 
L 226.609901 292.86096 
L 227.244785 314.574214 
L 227.87967 209.256315 
L 228.514554 172.1557 
L 229.149439 121.890354 
L 229.784323 84.960687 
L 230.419208 179.165486 
L 231.054092 227.379201 
L 231.688977 300.383667 
L 232.323862 297.648142 
L 232.958746 141.380977 
L 233.593631 262.428185 
L 234.228515 148.903684 
L 234.8634 108.383676 
L 235.498284 269.09605 
L 236.133169 333.893889 
L 236.768053 201.391686 
L 237.402938 220.198441 
L 238.037822 253.708689 
L 238.672707 253.879662 
L 239.307591 221.39523 
L 239.942476 307.051507 
L 240.57736 255.247425 
L 241.212245 233.705119 
L 241.847129 293.715802 
L 242.482014 223.61786 
L 243.116898 248.408586 
L 243.751783 127.532352 
L 244.386667 241.740747 
L 245.021552 240.202011 
L 245.656436 155.058629 
L 246.291321 314.916161 
L 246.926205 192.501191 
L 247.56109 213.359628 
L 248.195974 284.483386 
L 248.830859 342.955333 
L 249.465743 302.777245 
L 250.100628 347.229619 
L 250.735512 307.906374 
L 251.370397 295.425512 
L 252.005281 331.842258 
L 252.640166 212.846707 
L 253.27505 358.855614 
L 253.909935 292.519013 
L 254.54482 268.241182 
L 255.179704 251.828005 
L 255.814589 269.09605 
L 256.449473 290.467356 
L 257.084358 166.000755 
L 257.719242 313.206451 
L 258.354127 196.946426 
L 258.989011 164.632993 
L 259.623896 263.454 
L 260.25878 241.740747 
L 260.893665 136.251874 
L 261.528549 357.829786 
L 262.163434 207.375657 
L 262.798318 241.91172 
L 263.433203 183.097826 
L 264.068087 248.921507 
L 264.702972 269.779918 
L 265.337856 318.677527 
L 265.972741 328.593812 
L 266.607625 306.367638 
L 267.24251 220.882335 
L 267.877394 299.015905 
L 268.512279 260.205555 
L 269.147163 189.081797 
L 269.782048 249.605375 
L 270.416932 364.668612 
L 271.051817 202.930397 
L 271.686701 213.872523 
L 272.321586 202.588475 
L 272.95647 284.996306 
L 273.591355 156.255443 
L 274.226239 199.511003 
L 274.861124 262.770132 
L 275.496009 345.690883 
L 276.130893 211.136998 
L 276.765778 237.124538 
L 277.400662 308.419269 
L 278.035547 97.612523 
L 278.670431 193.698005 
L 279.305316 201.049739 
L 279.9402 290.296383 
L 280.575085 359.026588 
L 281.209969 155.571549 
L 281.844854 184.294615 
L 282.479738 284.312412 
L 283.114623 283.799517 
L 283.749507 278.841362 
L 284.384392 318.506554 
L 285.019276 233.192199 
L 285.654161 342.784385 
L 286.289045 259.863633 
L 287.558814 149.245631 
L 288.193699 274.225153 
L 288.828583 250.631216 
L 289.463468 203.443317 
L 290.098352 212.675734 
L 290.733237 150.784368 
L 291.368121 297.81909 
L 292.003006 214.043497 
L 292.63789 257.128082 
L 293.272775 332.013232 
L 293.907659 168.394333 
L 294.542544 293.886776 
L 295.177428 151.126315 
L 295.812313 304.315982 
L 296.447197 315.087134 
L 297.082082 290.809304 
L 297.716967 339.364965 
L 298.351851 222.421071 
L 298.986736 234.21804 
L 299.62162 241.91172 
L 300.256505 335.090704 
L 300.891389 229.430858 
L 301.526274 304.486955 
L 302.161158 279.525256 
L 302.796043 163.436204 
L 303.430927 273.028364 
L 304.065812 270.463812 
L 304.700696 352.358723 
L 305.335581 252.853821 
L 305.970465 187.543061 
L 306.60535 284.825333 
L 307.240234 183.2688 
L 308.510003 278.841362 
L 309.144888 296.622301 
L 309.779772 304.486955 
L 310.414657 320.729158 
L 311.049541 204.469133 
L 311.684426 314.40324 
L 312.31931 229.943778 
L 312.954195 257.98295 
L 314.223964 291.664171 
L 314.858848 175.404145 
L 315.493733 208.059526 
L 316.128617 280.551071 
L 316.763502 146.68108 
L 317.398386 270.976707 
L 318.033271 308.590243 
L 318.668156 299.5288 
L 319.30304 239.68909 
L 319.937925 322.438868 
L 320.572809 258.324897 
L 321.207694 331.500311 
L 321.842578 226.011438 
L 322.477463 242.424615 
L 323.112347 245.331114 
L 323.747232 225.498518 
L 324.382116 211.99184 
L 325.017001 301.409483 
L 325.651885 237.466485 
L 326.28677 139.158373 
L 326.921654 310.983847 
L 327.556539 258.666819 
L 328.191423 148.903684 
L 329.461192 319.361396 
L 330.096077 260.889449 
L 330.730961 305.170849 
L 331.365846 217.975811 
L 332.00073 232.679303 
L 332.635615 186.859167 
L 333.270499 175.062198 
L 333.905384 335.432626 
L 334.540268 174.720251 
L 335.810037 293.373855 
L 336.444922 182.413932 
L 337.079806 217.291942 
L 337.714691 273.883206 
L 338.349575 364.155704 
L 339.619344 160.187758 
L 340.254229 267.38634 
L 340.889114 144.116528 
L 341.523998 135.055085 
L 342.158883 214.556417 
L 342.793767 235.072882 
L 343.428652 259.69266 
L 344.063536 241.056853 
L 344.698421 254.221584 
L 345.333305 255.76032 
L 345.96819 237.295512 
L 346.603074 233.876093 
L 347.237959 191.133428 
L 347.872843 303.803061 
L 348.507728 220.540388 
L 349.142612 281.576887 
L 349.777497 197.288373 
L 350.412381 307.22248 
L 351.047266 272.686417 
L 351.68215 196.775478 
L 352.317035 339.364965 
L 352.951919 260.205555 
L 353.586804 239.176169 
L 354.221688 264.992736 
L 354.856573 270.805734 
L 355.491457 294.228723 
L 356.126342 233.363172 
L 356.761226 241.740747 
L 357.396111 256.957134 
L 358.030995 282.773676 
L 358.66588 224.814649 
L 359.300764 305.512771 
L 359.935649 362.616968 
L 360.570533 309.616084 
L 361.205418 329.790602 
L 361.840303 277.986519 
L 362.475187 181.217143 
L 363.110072 351.161934 
L 363.744956 194.2109 
L 365.014725 346.716699 
L 365.64961 318.677527 
L 366.284494 227.550175 
L 366.919379 240.543932 
L 367.554263 248.57956 
L 368.189148 293.373855 
L 368.824032 325.345367 
L 369.458917 259.521686 
L 370.093801 253.537715 
L 370.728686 230.114726 
L 371.36357 349.452224 
L 371.998455 242.082668 
L 372.633339 264.992736 
L 373.268224 273.028364 
L 373.903108 284.483386 
L 374.537993 188.22693 
L 375.172877 303.974035 
L 375.807762 253.024795 
L 377.077531 359.539496 
L 377.712415 328.422839 
L 378.3473 259.521686 
L 378.982184 204.298185 
L 379.617069 169.078228 
L 380.251953 118.470935 
L 380.886838 251.144111 
L 381.521722 249.434427 
L 382.156607 267.215367 
L 382.791491 179.33646 
L 383.426376 235.585802 
L 384.061261 197.63032 
L 385.33103 277.131652 
L 385.965914 178.481618 
L 386.600799 256.27324 
L 387.235683 250.118296 
L 387.870568 107.87073 
L 389.140337 371.678411 
L 389.775221 215.753206 
L 390.410106 216.779022 
L 391.04499 282.431754 
L 391.679875 321.242079 
L 392.314759 200.536818 
L 392.949644 170.275017 
L 393.584528 314.061319 
L 394.219413 216.949995 
L 394.854297 147.535922 
L 395.489182 203.956238 
L 396.124066 219.856494 
L 396.758951 81.712267 
L 397.393835 130.438876 
L 398.02872 287.047963 
L 398.663604 406.385448 
L 399.298489 293.202907 
L 399.933373 213.872523 
L 400.568258 313.890345 
L 401.203142 314.745187 
L 401.838027 311.325768 
L 402.472911 314.40324 
L 403.107796 47.518125 
L 403.74268 267.557314 
L 404.377565 334.577783 
L 405.01245 316.11295 
L 405.647334 167.026571 
L 406.282219 254.392557 
L 406.917103 256.27324 
L 407.551988 236.611618 
L 408.186872 279.183309 
L 408.821757 235.072882 
L 409.456641 151.126315 
L 410.091526 347.571541 
L 410.72641 279.525256 
L 411.361295 244.989192 
L 411.996179 157.794154 
L 412.631064 360.052403 
L 413.265948 145.655264 
L 413.900833 226.182412 
L 414.535717 349.110277 
L 415.170602 290.296383 
L 415.805486 190.791507 
L 416.440371 254.563531 
L 417.075255 297.135222 
L 417.71014 370.823556 
L 418.345024 287.731831 
L 418.979909 281.405913 
L 419.614793 243.963351 
L 420.249678 227.379201 
L 420.884562 204.298185 
L 421.519447 245.502087 
L 422.154331 230.114726 
L 422.789216 235.072882 
L 423.4241 246.527929 
L 424.058985 313.548398 
L 424.693869 344.323121 
L 425.963638 125.138774 
L 426.598523 207.888552 
L 427.233408 128.045298 
L 427.868292 299.357826 
L 428.503177 115.56441 
L 429.138061 175.062198 
L 429.772946 284.825333 
L 430.40783 222.762993 
L 431.042715 193.527032 
L 431.677599 325.687314 
L 432.312484 94.705999 
L 432.947368 256.444214 
L 433.582253 83.592899 
L 434.217137 321.925947 
L 435.486906 246.015008 
L 436.121791 266.702446 
L 436.756675 257.641003 
L 437.39156 259.863633 
L 438.026444 316.967818 
L 438.661329 294.912591 
L 439.296213 294.228723 
L 439.931098 255.418398 
L 440.565982 231.140567 
L 441.200867 341.58757 
L 441.835751 289.270567 
L 442.470636 362.445994 
L 443.10552 253.024795 
L 443.740405 190.791507 
L 444.375289 255.931293 
L 445.010174 237.466485 
L 445.645058 261.402369 
L 446.279943 306.709585 
L 446.914827 336.800414 
L 448.184597 197.801293 
L 448.819481 292.519013 
L 449.454366 209.085341 
L 450.08925 98.638313 
L 451.359019 295.083565 
L 451.993904 257.128082 
L 452.628788 257.98295 
L 453.263673 314.061319 
L 454.533442 207.717579 
L 455.168326 306.538612 
L 455.803211 299.186878 
L 456.438095 273.199338 
L 457.07298 119.325777 
L 457.707864 151.981157 
L 458.342749 168.394333 
L 459.612518 269.950892 
L 460.247402 178.823565 
L 460.882287 286.364069 
L 461.517171 313.719372 
L 462.152056 284.312412 
L 462.78694 351.845815 
L 463.421825 268.754103 
L 464.056709 247.724718 
L 464.691594 198.314214 
L 465.326478 316.454897 
L 465.961363 371.165491 
L 466.596247 275.934863 
L 467.231132 353.042617 
L 467.866016 312.009662 
L 468.500901 310.470926 
L 469.135785 247.382771 
L 469.77067 296.964248 
L 470.405555 241.569773 
L 471.040439 260.889449 
L 471.675324 216.608048 
L 472.310208 298.673958 
L 472.945093 331.329338 
L 473.579977 241.227826 
L 474.214862 291.151251 
L 474.849746 293.886776 
L 475.484631 191.646349 
L 476.119515 233.363172 
L 476.7544 194.552847 
L 477.389284 260.205555 
L 478.024169 283.97049 
L 478.659053 195.236742 
L 479.293938 268.241182 
L 479.928822 251.998979 
L 480.563707 141.210029 
L 481.198591 310.128979 
L 481.833476 266.702446 
L 482.46836 238.150354 
L 483.103245 245.502087 
L 483.738129 271.660602 
L 484.373014 234.21804 
L 485.007898 220.711362 
L 485.642783 307.22248 
L 486.277667 111.632096 
L 486.912552 222.933966 
L 487.547436 264.137894 
L 488.182321 282.602728 
L 488.817205 243.108509 
L 489.45209 112.657937 
L 490.086974 323.977604 
L 490.721859 230.2857 
L 491.356744 240.885879 
L 491.991628 266.189526 
L 492.626513 222.592019 
L 493.261397 211.136998 
L 493.896282 235.756776 
L 494.531166 288.92862 
L 495.166051 259.521686 
L 495.800935 217.975811 
L 496.43582 141.722924 
L 497.070704 215.582233 
L 497.705589 111.119201 
L 498.340473 279.012335 
L 498.975358 292.34804 
L 499.610242 260.718475 
L 500.245127 268.241182 
L 500.880011 290.809304 
L 501.514896 275.592916 
L 502.14978 334.577783 
L 502.784665 272.857391 
L 503.419549 224.301729 
L 504.054434 129.242087 
L 504.689318 190.107613 
L 505.324203 339.023018 
L 506.593972 169.762122 
L 507.228856 247.040824 
L 507.863741 244.647245 
L 508.498625 275.250969 
L 509.13351 292.689987 
L 509.768394 327.567997 
L 510.403279 222.762993 
L 511.038163 277.644572 
L 511.673048 172.66862 
L 512.307933 306.196665 
L 512.942817 252.5119 
L 513.577702 210.111182 
L 514.212586 353.555525 
L 514.847471 145.655264 
L 515.482355 227.550175 
L 516.11724 153.86184 
L 516.752124 244.305298 
L 517.387009 199.340029 
L 518.021893 297.306195 
L 518.656778 224.130755 
L 519.291662 191.817322 
L 519.926547 315.087134 
L 520.561431 157.110286 
L 521.196316 230.627647 
L 522.466085 149.929525 
L 523.100969 214.556417 
L 523.735854 131.635666 
L 524.370738 171.129884 
L 525.005623 228.57599 
L 525.640507 200.878765 
L 526.275392 225.32757 
L 526.910276 324.661498 
L 527.545161 313.719372 
L 528.180045 306.709585 
L 528.81493 202.417502 
L 529.449814 222.250098 
L 530.084699 181.730063 
L 530.719583 74.702429 
L 531.354468 276.618757 
L 531.989352 298.332011 
L 532.624237 214.898364 
L 533.259121 285.16728 
L 533.894006 239.860064 
L 534.528891 274.5671 
L 535.163775 161.726494 
L 535.79866 185.662378 
L 536.433544 313.548398 
L 537.068429 201.904581 
L 537.703313 366.891229 
L 538.338198 330.816443 
L 538.973082 333.722941 
L 539.607967 147.194 
L 540.242851 262.941105 
L 540.877736 260.547502 
L 541.51262 296.964248 
L 542.782389 163.778151 
L 543.417274 297.648142 
L 544.052158 182.755879 
L 544.687043 255.247425 
L 545.321927 258.153923 
L 545.956812 327.397023 
L 546.591696 234.047066 
L 547.226581 229.601831 
L 547.861465 242.082668 
L 548.49635 281.576887 
L 549.131234 180.191327 
L 549.766119 310.983847 
L 550.401003 171.984726 
L 551.035888 122.916144 
L 551.670772 151.297288 
L 552.305657 194.723821 
L 552.940541 204.982053 
L 553.575426 354.923287 
L 554.21031 250.973163 
L 554.845195 367.233176 
L 555.48008 262.599158 
L 556.114964 293.031934 
L 556.749849 210.624077 
L 557.384733 340.903701 
L 558.019618 248.750533 
L 558.654502 337.655256 
L 559.289387 214.556417 
L 559.924271 132.148561 
L 560.559156 315.087134 
L 561.19404 203.443317 
L 562.463809 252.682848 
L 563.098694 224.643676 
L 563.733578 266.702446 
L 564.368463 318.164607 
L 565.638232 110.435307 
L 566.273116 369.28482 
L 566.908001 283.286596 
L 567.542885 277.473599 
L 568.17777 167.026571 
L 568.812654 278.499415 
L 569.447539 266.360499 
L 570.082423 354.923287 
L 570.717308 291.835119 
L 571.352192 242.082668 
L 571.987077 246.185982 
L 572.621961 376.807527 
L 573.256846 310.812873 
L 573.89173 197.801293 
L 574.526615 199.169056 
L 575.161499 316.967818 
L 575.796384 258.666819 
L 576.431268 242.082668 
L 577.066153 117.78704 
L 578.335922 220.198441 
L 578.970807 269.608945 
L 579.605691 191.133428 
L 580.240576 234.047066 
L 580.87546 254.392557 
L 581.510345 259.008766 
L 582.145229 120.864513 
L 582.780114 255.76032 
L 582.780114 255.76032 
" clip-path="url(#p02d6877fd3)" style="fill: none; stroke: #ff7f0e; stroke-width: 1.5; stroke-linecap: square"/>
   </g>
   <g id="line2d_37">
    <path d="M 50.14375 551.518125 
L 608.14375 551.518125 
" clip-path="url(#p02d6877fd3)" style="fill: none; stroke-dasharray: 11.1,4.8; stroke-dashoffset: 0; stroke: #ff0000; stroke-width: 3"/>
   </g>
   <g id="patch_3">
    <path d="M 50.14375 576.718125 
L 50.14375 22.318125 
" style="fill: none; stroke: #000000; stroke-width: 0.8; stroke-linejoin: miter; stroke-linecap: square"/>
   </g>
   <g id="patch_4">
    <path d="M 608.14375 576.718125 
L 608.14375 22.318125 
" style="fill: none; stroke: #000000; stroke-width: 0.8; stroke-linejoin: miter; stroke-linecap: square"/>
   </g>
   <g id="patch_5">
    <path d="M 50.14375 576.718125 
L 608.14375 576.718125 
" style="fill: none; stroke: #000000; stroke-width: 0.8; stroke-linejoin: miter; stroke-linecap: square"/>
   </g>
   <g id="patch_6">
    <path d="M 50.14375 22.318125 
L 608.14375 22.318125 
" style="fill: none; stroke: #000000; stroke-width: 0.8; stroke-linejoin: miter; stroke-linecap: square"/>
   </g>
   <g id="text_20">
    <!-- Train and Val Accuracy -->
    <g transform="translate(261.365313 16.318125) scale(0.12 -0.12)">
     <defs>
      <path id="DejaVuSans-54" d="M -19 4666 
L 3928 4666 
L 3928 4134 
L 2272 4134 
L 2272 0 
L 1638 0 
L 1638 4134 
L -19 4134 
L -19 4666 
z
" transform="scale(0.015625)"/>
      <path id="DejaVuSans-69" d="M 603 3500 
L 1178 3500 
L 1178 0 
L 603 0 
L 603 3500 
z
M 603 4863 
L 1178 4863 
L 1178 4134 
L 603 4134 
L 603 4863 
z
" transform="scale(0.015625)"/>
      <path id="DejaVuSans-6e" d="M 3513 2113 
L 3513 0 
L 2938 0 
L 2938 2094 
Q 2938 2591 2744 2837 
Q 2550 3084 2163 3084 
Q 1697 3084 1428 2787 
Q 1159 2491 1159 1978 
L 1159 0 
L 581 0 
L 581 3500 
L 1159 3500 
L 1159 2956 
Q 1366 3272 1645 3428 
Q 1925 3584 2291 3584 
Q 2894 3584 3203 3211 
Q 3513 2838 3513 2113 
z
" transform="scale(0.015625)"/>
      <path id="DejaVuSans-20" transform="scale(0.015625)"/>
      <path id="DejaVuSans-64" d="M 2906 2969 
L 2906 4863 
L 3481 4863 
L 3481 0 
L 2906 0 
L 2906 525 
Q 2725 213 2448 61 
Q 2172 -91 1784 -91 
Q 1150 -91 751 415 
Q 353 922 353 1747 
Q 353 2572 751 3078 
Q 1150 3584 1784 3584 
Q 2172 3584 2448 3432 
Q 2725 3281 2906 2969 
z
M 947 1747 
Q 947 1113 1208 752 
Q 1469 391 1925 391 
Q 2381 391 2643 752 
Q 2906 1113 2906 1747 
Q 2906 2381 2643 2742 
Q 2381 3103 1925 3103 
Q 1469 3103 1208 2742 
Q 947 2381 947 1747 
z
" transform="scale(0.015625)"/>
      <path id="DejaVuSans-56" d="M 1831 0 
L 50 4666 
L 709 4666 
L 2188 738 
L 3669 4666 
L 4325 4666 
L 2547 0 
L 1831 0 
z
" transform="scale(0.015625)"/>
      <path id="DejaVuSans-6c" d="M 603 4863 
L 1178 4863 
L 1178 0 
L 603 0 
L 603 4863 
z
" transform="scale(0.015625)"/>
     </defs>
     <use xlink:href="#DejaVuSans-54"/>
     <use xlink:href="#DejaVuSans-72" transform="translate(46.333984 0)"/>
     <use xlink:href="#DejaVuSans-61" transform="translate(87.447266 0)"/>
     <use xlink:href="#DejaVuSans-69" transform="translate(148.726562 0)"/>
     <use xlink:href="#DejaVuSans-6e" transform="translate(176.509766 0)"/>
     <use xlink:href="#DejaVuSans-20" transform="translate(239.888672 0)"/>
     <use xlink:href="#DejaVuSans-61" transform="translate(271.675781 0)"/>
     <use xlink:href="#DejaVuSans-6e" transform="translate(332.955078 0)"/>
     <use xlink:href="#DejaVuSans-64" transform="translate(396.333984 0)"/>
     <use xlink:href="#DejaVuSans-20" transform="translate(459.810547 0)"/>
     <use xlink:href="#DejaVuSans-56" transform="translate(491.597656 0)"/>
     <use xlink:href="#DejaVuSans-61" transform="translate(552.255859 0)"/>
     <use xlink:href="#DejaVuSans-6c" transform="translate(613.535156 0)"/>
     <use xlink:href="#DejaVuSans-20" transform="translate(641.318359 0)"/>
     <use xlink:href="#DejaVuSans-41" transform="translate(673.105469 0)"/>
     <use xlink:href="#DejaVuSans-63" transform="translate(739.763672 0)"/>
     <use xlink:href="#DejaVuSans-63" transform="translate(794.744141 0)"/>
     <use xlink:href="#DejaVuSans-75" transform="translate(849.724609 0)"/>
     <use xlink:href="#DejaVuSans-72" transform="translate(913.103516 0)"/>
     <use xlink:href="#DejaVuSans-61" transform="translate(954.216797 0)"/>
     <use xlink:href="#DejaVuSans-63" transform="translate(1015.496094 0)"/>
     <use xlink:href="#DejaVuSans-79" transform="translate(1070.476562 0)"/>
    </g>
   </g>
   <g id="legend_1">
    <g id="patch_7">
     <path d="M 57.14375 571.718125 
L 224.267187 571.718125 
Q 226.267187 571.718125 226.267187 569.718125 
L 226.267187 526.1275 
Q 226.267187 524.1275 224.267187 524.1275 
L 57.14375 524.1275 
Q 55.14375 524.1275 55.14375 526.1275 
L 55.14375 569.718125 
Q 55.14375 571.718125 57.14375 571.718125 
z
" style="fill: #ffffff; opacity: 0.8; stroke: #cccccc; stroke-linejoin: miter"/>
    </g>
    <g id="line2d_38">
     <path d="M 59.14375 532.225938 
L 69.14375 532.225938 
L 79.14375 532.225938 
" style="fill: none; stroke: #1f77b4; stroke-width: 1.5; stroke-linecap: square"/>
    </g>
    <g id="text_21">
     <!-- train_accuracy -->
     <g transform="translate(87.14375 535.725938) scale(0.1 -0.1)">
      <defs>
       <path id="DejaVuSans-74" d="M 1172 4494 
L 1172 3500 
L 2356 3500 
L 2356 3053 
L 1172 3053 
L 1172 1153 
Q 1172 725 1289 603 
Q 1406 481 1766 481 
L 2356 481 
L 2356 0 
L 1766 0 
Q 1100 0 847 248 
Q 594 497 594 1153 
L 594 3053 
L 172 3053 
L 172 3500 
L 594 3500 
L 594 4494 
L 1172 4494 
z
" transform="scale(0.015625)"/>
       <path id="DejaVuSans-5f" d="M 3263 -1063 
L 3263 -1509 
L -63 -1509 
L -63 -1063 
L 3263 -1063 
z
" transform="scale(0.015625)"/>
      </defs>
      <use xlink:href="#DejaVuSans-74"/>
      <use xlink:href="#DejaVuSans-72" transform="translate(39.208984 0)"/>
      <use xlink:href="#DejaVuSans-61" transform="translate(80.322266 0)"/>
      <use xlink:href="#DejaVuSans-69" transform="translate(141.601562 0)"/>
      <use xlink:href="#DejaVuSans-6e" transform="translate(169.384766 0)"/>
      <use xlink:href="#DejaVuSans-5f" transform="translate(232.763672 0)"/>
      <use xlink:href="#DejaVuSans-61" transform="translate(282.763672 0)"/>
      <use xlink:href="#DejaVuSans-63" transform="translate(344.042969 0)"/>
      <use xlink:href="#DejaVuSans-63" transform="translate(399.023438 0)"/>
      <use xlink:href="#DejaVuSans-75" transform="translate(454.003906 0)"/>
      <use xlink:href="#DejaVuSans-72" transform="translate(517.382812 0)"/>
      <use xlink:href="#DejaVuSans-61" transform="translate(558.496094 0)"/>
      <use xlink:href="#DejaVuSans-63" transform="translate(619.775391 0)"/>
      <use xlink:href="#DejaVuSans-79" transform="translate(674.755859 0)"/>
     </g>
    </g>
    <g id="line2d_39">
     <path d="M 59.14375 547.182188 
L 69.14375 547.182188 
L 79.14375 547.182188 
" style="fill: none; stroke: #ff7f0e; stroke-width: 1.5; stroke-linecap: square"/>
    </g>
    <g id="text_22">
     <!-- val_accuracy -->
     <g transform="translate(87.14375 550.682188) scale(0.1 -0.1)">
      <defs>
       <path id="DejaVuSans-76" d="M 191 3500 
L 800 3500 
L 1894 563 
L 2988 3500 
L 3597 3500 
L 2284 0 
L 1503 0 
L 191 3500 
z
" transform="scale(0.015625)"/>
      </defs>
      <use xlink:href="#DejaVuSans-76"/>
      <use xlink:href="#DejaVuSans-61" transform="translate(59.179688 0)"/>
      <use xlink:href="#DejaVuSans-6c" transform="translate(120.458984 0)"/>
      <use xlink:href="#DejaVuSans-5f" transform="translate(148.242188 0)"/>
      <use xlink:href="#DejaVuSans-61" transform="translate(198.242188 0)"/>
      <use xlink:href="#DejaVuSans-63" transform="translate(259.521484 0)"/>
      <use xlink:href="#DejaVuSans-63" transform="translate(314.501953 0)"/>
      <use xlink:href="#DejaVuSans-75" transform="translate(369.482422 0)"/>
      <use xlink:href="#DejaVuSans-72" transform="translate(432.861328 0)"/>
      <use xlink:href="#DejaVuSans-61" transform="translate(473.974609 0)"/>
      <use xlink:href="#DejaVuSans-63" transform="translate(535.253906 0)"/>
      <use xlink:href="#DejaVuSans-79" transform="translate(590.234375 0)"/>
     </g>
    </g>
    <g id="line2d_40">
     <path d="M 59.14375 562.138438 
L 69.14375 562.138438 
L 79.14375 562.138438 
" style="fill: none; stroke-dasharray: 11.1,4.8; stroke-dashoffset: 0; stroke: #ff0000; stroke-width: 3"/>
    </g>
    <g id="text_23">
     <!-- Random-Guesser Accuracy -->
     <g transform="translate(87.14375 565.638438) scale(0.1 -0.1)">
      <defs>
       <path id="DejaVuSans-52" d="M 2841 2188 
Q 3044 2119 3236 1894 
Q 3428 1669 3622 1275 
L 4263 0 
L 3584 0 
L 2988 1197 
Q 2756 1666 2539 1819 
Q 2322 1972 1947 1972 
L 1259 1972 
L 1259 0 
L 628 0 
L 628 4666 
L 2053 4666 
Q 2853 4666 3247 4331 
Q 3641 3997 3641 3322 
Q 3641 2881 3436 2590 
Q 3231 2300 2841 2188 
z
M 1259 4147 
L 1259 2491 
L 2053 2491 
Q 2509 2491 2742 2702 
Q 2975 2913 2975 3322 
Q 2975 3731 2742 3939 
Q 2509 4147 2053 4147 
L 1259 4147 
z
" transform="scale(0.015625)"/>
       <path id="DejaVuSans-6d" d="M 3328 2828 
Q 3544 3216 3844 3400 
Q 4144 3584 4550 3584 
Q 5097 3584 5394 3201 
Q 5691 2819 5691 2113 
L 5691 0 
L 5113 0 
L 5113 2094 
Q 5113 2597 4934 2840 
Q 4756 3084 4391 3084 
Q 3944 3084 3684 2787 
Q 3425 2491 3425 1978 
L 3425 0 
L 2847 0 
L 2847 2094 
Q 2847 2600 2669 2842 
Q 2491 3084 2119 3084 
Q 1678 3084 1418 2786 
Q 1159 2488 1159 1978 
L 1159 0 
L 581 0 
L 581 3500 
L 1159 3500 
L 1159 2956 
Q 1356 3278 1631 3431 
Q 1906 3584 2284 3584 
Q 2666 3584 2933 3390 
Q 3200 3197 3328 2828 
z
" transform="scale(0.015625)"/>
       <path id="DejaVuSans-2d" d="M 313 2009 
L 1997 2009 
L 1997 1497 
L 313 1497 
L 313 2009 
z
" transform="scale(0.015625)"/>
       <path id="DejaVuSans-47" d="M 3809 666 
L 3809 1919 
L 2778 1919 
L 2778 2438 
L 4434 2438 
L 4434 434 
Q 4069 175 3628 42 
Q 3188 -91 2688 -91 
Q 1594 -91 976 548 
Q 359 1188 359 2328 
Q 359 3472 976 4111 
Q 1594 4750 2688 4750 
Q 3144 4750 3555 4637 
Q 3966 4525 4313 4306 
L 4313 3634 
Q 3963 3931 3569 4081 
Q 3175 4231 2741 4231 
Q 1884 4231 1454 3753 
Q 1025 3275 1025 2328 
Q 1025 1384 1454 906 
Q 1884 428 2741 428 
Q 3075 428 3337 486 
Q 3600 544 3809 666 
z
" transform="scale(0.015625)"/>
       <path id="DejaVuSans-65" d="M 3597 1894 
L 3597 1613 
L 953 1613 
Q 991 1019 1311 708 
Q 1631 397 2203 397 
Q 2534 397 2845 478 
Q 3156 559 3463 722 
L 3463 178 
Q 3153 47 2828 -22 
Q 2503 -91 2169 -91 
Q 1331 -91 842 396 
Q 353 884 353 1716 
Q 353 2575 817 3079 
Q 1281 3584 2069 3584 
Q 2775 3584 3186 3129 
Q 3597 2675 3597 1894 
z
M 3022 2063 
Q 3016 2534 2758 2815 
Q 2500 3097 2075 3097 
Q 1594 3097 1305 2825 
Q 1016 2553 972 2059 
L 3022 2063 
z
" transform="scale(0.015625)"/>
      </defs>
      <use xlink:href="#DejaVuSans-52"/>
      <use xlink:href="#DejaVuSans-61" transform="translate(67.232422 0)"/>
      <use xlink:href="#DejaVuSans-6e" transform="translate(128.511719 0)"/>
      <use xlink:href="#DejaVuSans-64" transform="translate(191.890625 0)"/>
      <use xlink:href="#DejaVuSans-6f" transform="translate(255.367188 0)"/>
      <use xlink:href="#DejaVuSans-6d" transform="translate(316.548828 0)"/>
      <use xlink:href="#DejaVuSans-2d" transform="translate(413.960938 0)"/>
      <use xlink:href="#DejaVuSans-47" transform="translate(453.669922 0)"/>
      <use xlink:href="#DejaVuSans-75" transform="translate(531.160156 0)"/>
      <use xlink:href="#DejaVuSans-65" transform="translate(594.539062 0)"/>
      <use xlink:href="#DejaVuSans-73" transform="translate(656.0625 0)"/>
      <use xlink:href="#DejaVuSans-73" transform="translate(708.162109 0)"/>
      <use xlink:href="#DejaVuSans-65" transform="translate(760.261719 0)"/>
      <use xlink:href="#DejaVuSans-72" transform="translate(821.785156 0)"/>
      <use xlink:href="#DejaVuSans-20" transform="translate(862.898438 0)"/>
      <use xlink:href="#DejaVuSans-41" transform="translate(894.685547 0)"/>
      <use xlink:href="#DejaVuSans-63" transform="translate(961.34375 0)"/>
      <use xlink:href="#DejaVuSans-63" transform="translate(1016.324219 0)"/>
      <use xlink:href="#DejaVuSans-75" transform="translate(1071.304688 0)"/>
      <use xlink:href="#DejaVuSans-72" transform="translate(1134.683594 0)"/>
      <use xlink:href="#DejaVuSans-61" transform="translate(1175.796875 0)"/>
      <use xlink:href="#DejaVuSans-63" transform="translate(1237.076172 0)"/>
      <use xlink:href="#DejaVuSans-79" transform="translate(1292.056641 0)"/>
     </g>
    </g>
   </g>
  </g>
 </g>
 <defs>
  <clipPath id="p02d6877fd3">
   <rect x="50.14375" y="22.318125" width="558" height="554.4"/>
  </clipPath>
 </defs>
</svg>
