<?xml version="1.0" encoding="utf-8" standalone="no"?>
<!DOCTYPE svg PUBLIC "-//W3C//DTD SVG 1.1//EN"
  "http://www.w3.org/Graphics/SVG/1.1/DTD/svg11.dtd">
<svg xmlns:xlink="http://www.w3.org/1999/xlink" width="599.440625pt" height="614.274375pt" viewBox="0 0 599.440625 614.274375" xmlns="http://www.w3.org/2000/svg" version="1.1">
 <metadata>
  <rdf:RDF xmlns:dc="http://purl.org/dc/elements/1.1/" xmlns:cc="http://creativecommons.org/ns#" xmlns:rdf="http://www.w3.org/1999/02/22-rdf-syntax-ns#">
   <cc:Work>
    <dc:type rdf:resource="http://purl.org/dc/dcmitype/StillImage"/>
    <dc:date>2026-05-31T16:21:32.233488</dc:date>
    <dc:format>image/svg+xml</dc:format>
    <dc:creator>
     <cc:Agent>
      <dc:title>Matplotlib v3.10.9, https://matplotlib.org/</dc:title>
     </cc:Agent>
    </dc:creator>
   </cc:Work>
  </rdf:RDF>
 </metadata>
 <defs>
  <style type="text/css">*{stroke-linejoin: round; stroke-linecap: butt}</style>
 </defs>
 <g id="figure_1">
  <g id="patch_1">
   <path d="M 0 614.274375 
L 599.440625 614.274375 
L 599.440625 0 
L 0 0 
z
" style="fill: #ffffff"/>
  </g>
  <g id="axes_1">
   <g id="patch_2">
    <path d="M 34.240625 576.718125 
L 592.240625 576.718125 
L 592.240625 22.318125 
L 34.240625 22.318125 
z
" style="fill: #ffffff"/>
   </g>
   <g id="matplotlib.axis_1">
    <g id="xtick_1">
     <g id="line2d_1">
      <path d="M 59.604261 576.718125 
L 59.604261 22.318125 
" clip-path="url(#p62ac102bc1)" style="fill: none; stroke: #b0b0b0; stroke-width: 0.8; stroke-linecap: square"/>
     </g>
     <g id="line2d_2">
      <defs>
       <path id="ma56ee95edb" d="M 0 0 
L 0 3.5 
" style="stroke: #000000; stroke-width: 0.8"/>
      </defs>
      <g>
       <use xlink:href="#ma56ee95edb" x="59.604261" y="576.718125" style="stroke: #000000; stroke-width: 0.8"/>
      </g>
     </g>
     <g id="text_1">
      <!-- 0 -->
      <g transform="translate(56.423011 591.316563) scale(0.1 -0.1)">
       <defs>
        <path id="DejaVuSans-30" d="M 2034 4250 
Q 1547 4250 1301 3770 
Q 1056 3291 1056 2328 
Q 1056 1369 1301 889 
Q 1547 409 2034 409 
Q 2525 409 2770 889 
Q 3016 1369 3016 2328 
Q 3016 3291 2770 3770 
Q 2525 4250 2034 4250 
z
M 2034 4750 
Q 2819 4750 3233 4129 
Q 3647 3509 3647 2328 
Q 3647 1150 3233 529 
Q 2819 -91 2034 -91 
Q 1250 -91 836 529 
Q 422 1150 422 2328 
Q 422 3509 836 4129 
Q 1250 4750 2034 4750 
z
" transform="scale(0.015625)"/>
       </defs>
       <use xlink:href="#DejaVuSans-30"/>
      </g>
     </g>
    </g>
    <g id="xtick_2">
     <g id="line2d_3">
      <path d="M 123.092713 576.718125 
L 123.092713 22.318125 
" clip-path="url(#p62ac102bc1)" style="fill: none; stroke: #b0b0b0; stroke-width: 0.8; stroke-linecap: square"/>
     </g>
     <g id="line2d_4">
      <g>
       <use xlink:href="#ma56ee95edb" x="123.092713" y="576.718125" style="stroke: #000000; stroke-width: 0.8"/>
      </g>
     </g>
     <g id="text_2">
      <!-- 100 -->
      <g transform="translate(113.548963 591.316563) scale(0.1 -0.1)">
       <defs>
        <path id="DejaVuSans-31" d="M 794 531 
L 1825 531 
L 1825 4091 
L 703 3866 
L 703 4441 
L 1819 4666 
L 2450 4666 
L 2450 531 
L 3481 531 
L 3481 0 
L 794 0 
L 794 531 
z
" transform="scale(0.015625)"/>
       </defs>
       <use xlink:href="#DejaVuSans-31"/>
       <use xlink:href="#DejaVuSans-30" transform="translate(63.623047 0)"/>
       <use xlink:href="#DejaVuSans-30" transform="translate(127.246094 0)"/>
      </g>
     </g>
    </g>
    <g id="xtick_3">
     <g id="line2d_5">
      <path d="M 186.581164 576.718125 
L 186.581164 22.318125 
" clip-path="url(#p62ac102bc1)" style="fill: none; stroke: #b0b0b0; stroke-width: 0.8; stroke-linecap: square"/>
     </g>
     <g id="line2d_6">
      <g>
       <use xlink:href="#ma56ee95edb" x="186.581164" y="576.718125" style="stroke: #000000; stroke-width: 0.8"/>
      </g>
     </g>
     <g id="text_3">
      <!-- 200 -->
      <g transform="translate(177.037414 591.316563) scale(0.1 -0.1)">
       <defs>
        <path id="DejaVuSans-32" d="M 1228 531 
L 3431 531 
L 3431 0 
L 469 0 
L 469 531 
Q 828 903 1448 1529 
Q 2069 2156 2228 2338 
Q 2531 2678 2651 2914 
Q 2772 3150 2772 3378 
Q 2772 3750 2511 3984 
Q 2250 4219 1831 4219 
Q 1534 4219 1204 4116 
Q 875 4013 500 3803 
L 500 4441 
Q 881 4594 1212 4672 
Q 1544 4750 1819 4750 
Q 2544 4750 2975 4387 
Q 3406 4025 3406 3419 
Q 3406 3131 3298 2873 
Q 3191 2616 2906 2266 
Q 2828 2175 2409 1742 
Q 1991 1309 1228 531 
z
" transform="scale(0.015625)"/>
       </defs>
       <use xlink:href="#DejaVuSans-32"/>
       <use xlink:href="#DejaVuSans-30" transform="translate(63.623047 0)"/>
       <use xlink:href="#DejaVuSans-30" transform="translate(127.246094 0)"/>
      </g>
     </g>
    </g>
    <g id="xtick_4">
     <g id="line2d_7">
      <path d="M 250.069616 576.718125 
L 250.069616 22.318125 
" clip-path="url(#p62ac102bc1)" style="fill: none; stroke: #b0b0b0; stroke-width: 0.8; stroke-linecap: square"/>
     </g>
     <g id="line2d_8">
      <g>
       <use xlink:href="#ma56ee95edb" x="250.069616" y="576.718125" style="stroke: #000000; stroke-width: 0.8"/>
      </g>
     </g>
     <g id="text_4">
      <!-- 300 -->
      <g transform="translate(240.525866 591.316563) scale(0.1 -0.1)">
       <defs>
        <path id="DejaVuSans-33" d="M 2597 2516 
Q 3050 2419 3304 2112 
Q 3559 1806 3559 1356 
Q 3559 666 3084 287 
Q 2609 -91 1734 -91 
Q 1441 -91 1130 -33 
Q 819 25 488 141 
L 488 750 
Q 750 597 1062 519 
Q 1375 441 1716 441 
Q 2309 441 2620 675 
Q 2931 909 2931 1356 
Q 2931 1769 2642 2001 
Q 2353 2234 1838 2234 
L 1294 2234 
L 1294 2753 
L 1863 2753 
Q 2328 2753 2575 2939 
Q 2822 3125 2822 3475 
Q 2822 3834 2567 4026 
Q 2313 4219 1838 4219 
Q 1578 4219 1281 4162 
Q 984 4106 628 3988 
L 628 4550 
Q 988 4650 1302 4700 
Q 1616 4750 1894 4750 
Q 2613 4750 3031 4423 
Q 3450 4097 3450 3541 
Q 3450 3153 3228 2886 
Q 3006 2619 2597 2516 
z
" transform="scale(0.015625)"/>
       </defs>
       <use xlink:href="#DejaVuSans-33"/>
       <use xlink:href="#DejaVuSans-30" transform="translate(63.623047 0)"/>
       <use xlink:href="#DejaVuSans-30" transform="translate(127.246094 0)"/>
      </g>
     </g>
    </g>
    <g id="xtick_5">
     <g id="line2d_9">
      <path d="M 313.558067 576.718125 
L 313.558067 22.318125 
" clip-path="url(#p62ac102bc1)" style="fill: none; stroke: #b0b0b0; stroke-width: 0.8; stroke-linecap: square"/>
     </g>
     <g id="line2d_10">
      <g>
       <use xlink:href="#ma56ee95edb" x="313.558067" y="576.718125" style="stroke: #000000; stroke-width: 0.8"/>
      </g>
     </g>
     <g id="text_5">
      <!-- 400 -->
      <g transform="translate(304.014317 591.316563) scale(0.1 -0.1)">
       <defs>
        <path id="DejaVuSans-34" d="M 2419 4116 
L 825 1625 
L 2419 1625 
L 2419 4116 
z
M 2253 4666 
L 3047 4666 
L 3047 1625 
L 3713 1625 
L 3713 1100 
L 3047 1100 
L 3047 0 
L 2419 0 
L 2419 1100 
L 313 1100 
L 313 1709 
L 2253 4666 
z
" transform="scale(0.015625)"/>
       </defs>
       <use xlink:href="#DejaVuSans-34"/>
       <use xlink:href="#DejaVuSans-30" transform="translate(63.623047 0)"/>
       <use xlink:href="#DejaVuSans-30" transform="translate(127.246094 0)"/>
      </g>
     </g>
    </g>
    <g id="xtick_6">
     <g id="line2d_11">
      <path d="M 377.046519 576.718125 
L 377.046519 22.318125 
" clip-path="url(#p62ac102bc1)" style="fill: none; stroke: #b0b0b0; stroke-width: 0.8; stroke-linecap: square"/>
     </g>
     <g id="line2d_12">
      <g>
       <use xlink:href="#ma56ee95edb" x="377.046519" y="576.718125" style="stroke: #000000; stroke-width: 0.8"/>
      </g>
     </g>
     <g id="text_6">
      <!-- 500 -->
      <g transform="translate(367.502769 591.316563) scale(0.1 -0.1)">
       <defs>
        <path id="DejaVuSans-35" d="M 691 4666 
L 3169 4666 
L 3169 4134 
L 1269 4134 
L 1269 2991 
Q 1406 3038 1543 3061 
Q 1681 3084 1819 3084 
Q 2600 3084 3056 2656 
Q 3513 2228 3513 1497 
Q 3513 744 3044 326 
Q 2575 -91 1722 -91 
Q 1428 -91 1123 -41 
Q 819 9 494 109 
L 494 744 
Q 775 591 1075 516 
Q 1375 441 1709 441 
Q 2250 441 2565 725 
Q 2881 1009 2881 1497 
Q 2881 1984 2565 2268 
Q 2250 2553 1709 2553 
Q 1456 2553 1204 2497 
Q 953 2441 691 2322 
L 691 4666 
z
" transform="scale(0.015625)"/>
       </defs>
       <use xlink:href="#DejaVuSans-35"/>
       <use xlink:href="#DejaVuSans-30" transform="translate(63.623047 0)"/>
       <use xlink:href="#DejaVuSans-30" transform="translate(127.246094 0)"/>
      </g>
     </g>
    </g>
    <g id="xtick_7">
     <g id="line2d_13">
      <path d="M 440.53497 576.718125 
L 440.53497 22.318125 
" clip-path="url(#p62ac102bc1)" style="fill: none; stroke: #b0b0b0; stroke-width: 0.8; stroke-linecap: square"/>
     </g>
     <g id="line2d_14">
      <g>
       <use xlink:href="#ma56ee95edb" x="440.53497" y="576.718125" style="stroke: #000000; stroke-width: 0.8"/>
      </g>
     </g>
     <g id="text_7">
      <!-- 600 -->
      <g transform="translate(430.99122 591.316563) scale(0.1 -0.1)">
       <defs>
        <path id="DejaVuSans-36" d="M 2113 2584 
Q 1688 2584 1439 2293 
Q 1191 2003 1191 1497 
Q 1191 994 1439 701 
Q 1688 409 2113 409 
Q 2538 409 2786 701 
Q 3034 994 3034 1497 
Q 3034 2003 2786 2293 
Q 2538 2584 2113 2584 
z
M 3366 4563 
L 3366 3988 
Q 3128 4100 2886 4159 
Q 2644 4219 2406 4219 
Q 1781 4219 1451 3797 
Q 1122 3375 1075 2522 
Q 1259 2794 1537 2939 
Q 1816 3084 2150 3084 
Q 2853 3084 3261 2657 
Q 3669 2231 3669 1497 
Q 3669 778 3244 343 
Q 2819 -91 2113 -91 
Q 1303 -91 875 529 
Q 447 1150 447 2328 
Q 447 3434 972 4092 
Q 1497 4750 2381 4750 
Q 2619 4750 2861 4703 
Q 3103 4656 3366 4563 
z
" transform="scale(0.015625)"/>
       </defs>
       <use xlink:href="#DejaVuSans-36"/>
       <use xlink:href="#DejaVuSans-30" transform="translate(63.623047 0)"/>
       <use xlink:href="#DejaVuSans-30" transform="translate(127.246094 0)"/>
      </g>
     </g>
    </g>
    <g id="xtick_8">
     <g id="line2d_15">
      <path d="M 504.023422 576.718125 
L 504.023422 22.318125 
" clip-path="url(#p62ac102bc1)" style="fill: none; stroke: #b0b0b0; stroke-width: 0.8; stroke-linecap: square"/>
     </g>
     <g id="line2d_16">
      <g>
       <use xlink:href="#ma56ee95edb" x="504.023422" y="576.718125" style="stroke: #000000; stroke-width: 0.8"/>
      </g>
     </g>
     <g id="text_8">
      <!-- 700 -->
      <g transform="translate(494.479672 591.316563) scale(0.1 -0.1)">
       <defs>
        <path id="DejaVuSans-37" d="M 525 4666 
L 3525 4666 
L 3525 4397 
L 1831 0 
L 1172 0 
L 2766 4134 
L 525 4134 
L 525 4666 
z
" transform="scale(0.015625)"/>
       </defs>
       <use xlink:href="#DejaVuSans-37"/>
       <use xlink:href="#DejaVuSans-30" transform="translate(63.623047 0)"/>
       <use xlink:href="#DejaVuSans-30" transform="translate(127.246094 0)"/>
      </g>
     </g>
    </g>
    <g id="xtick_9">
     <g id="line2d_17">
      <path d="M 567.511873 576.718125 
L 567.511873 22.318125 
" clip-path="url(#p62ac102bc1)" style="fill: none; stroke: #b0b0b0; stroke-width: 0.8; stroke-linecap: square"/>
     </g>
     <g id="line2d_18">
      <g>
       <use xlink:href="#ma56ee95edb" x="567.511873" y="576.718125" style="stroke: #000000; stroke-width: 0.8"/>
      </g>
     </g>
     <g id="text_9">
      <!-- 800 -->
      <g transform="translate(557.968123 591.316563) scale(0.1 -0.1)">
       <defs>
        <path id="DejaVuSans-38" d="M 2034 2216 
Q 1584 2216 1326 1975 
Q 1069 1734 1069 1313 
Q 1069 891 1326 650 
Q 1584 409 2034 409 
Q 2484 409 2743 651 
Q 3003 894 3003 1313 
Q 3003 1734 2745 1975 
Q 2488 2216 2034 2216 
z
M 1403 2484 
Q 997 2584 770 2862 
Q 544 3141 544 3541 
Q 544 4100 942 4425 
Q 1341 4750 2034 4750 
Q 2731 4750 3128 4425 
Q 3525 4100 3525 3541 
Q 3525 3141 3298 2862 
Q 3072 2584 2669 2484 
Q 3125 2378 3379 2068 
Q 3634 1759 3634 1313 
Q 3634 634 3220 271 
Q 2806 -91 2034 -91 
Q 1263 -91 848 271 
Q 434 634 434 1313 
Q 434 1759 690 2068 
Q 947 2378 1403 2484 
z
M 1172 3481 
Q 1172 3119 1398 2916 
Q 1625 2713 2034 2713 
Q 2441 2713 2670 2916 
Q 2900 3119 2900 3481 
Q 2900 3844 2670 4047 
Q 2441 4250 2034 4250 
Q 1625 4250 1398 4047 
Q 1172 3844 1172 3481 
z
" transform="scale(0.015625)"/>
       </defs>
       <use xlink:href="#DejaVuSans-38"/>
       <use xlink:href="#DejaVuSans-30" transform="translate(63.623047 0)"/>
       <use xlink:href="#DejaVuSans-30" transform="translate(127.246094 0)"/>
      </g>
     </g>
    </g>
    <g id="text_10">
     <!-- Epochs -->
     <g transform="translate(295.325 604.994688) scale(0.1 -0.1)">
      <defs>
       <path id="DejaVuSans-45" d="M 628 4666 
L 3578 4666 
L 3578 4134 
L 1259 4134 
L 1259 2753 
L 3481 2753 
L 3481 2222 
L 1259 2222 
L 1259 531 
L 3634 531 
L 3634 0 
L 628 0 
L 628 4666 
z
" transform="scale(0.015625)"/>
       <path id="DejaVuSans-70" d="M 1159 525 
L 1159 -1331 
L 581 -1331 
L 581 3500 
L 1159 3500 
L 1159 2969 
Q 1341 3281 1617 3432 
Q 1894 3584 2278 3584 
Q 2916 3584 3314 3078 
Q 3713 2572 3713 1747 
Q 3713 922 3314 415 
Q 2916 -91 2278 -91 
Q 1894 -91 1617 61 
Q 1341 213 1159 525 
z
M 3116 1747 
Q 3116 2381 2855 2742 
Q 2594 3103 2138 3103 
Q 1681 3103 1420 2742 
Q 1159 2381 1159 1747 
Q 1159 1113 1420 752 
Q 1681 391 2138 391 
Q 2594 391 2855 752 
Q 3116 1113 3116 1747 
z
" transform="scale(0.015625)"/>
       <path id="DejaVuSans-6f" d="M 1959 3097 
Q 1497 3097 1228 2736 
Q 959 2375 959 1747 
Q 959 1119 1226 758 
Q 1494 397 1959 397 
Q 2419 397 2687 759 
Q 2956 1122 2956 1747 
Q 2956 2369 2687 2733 
Q 2419 3097 1959 3097 
z
M 1959 3584 
Q 2709 3584 3137 3096 
Q 3566 2609 3566 1747 
Q 3566 888 3137 398 
Q 2709 -91 1959 -91 
Q 1206 -91 779 398 
Q 353 888 353 1747 
Q 353 2609 779 3096 
Q 1206 3584 1959 3584 
z
" transform="scale(0.015625)"/>
       <path id="DejaVuSans-63" d="M 3122 3366 
L 3122 2828 
Q 2878 2963 2633 3030 
Q 2388 3097 2138 3097 
Q 1578 3097 1268 2742 
Q 959 2388 959 1747 
Q 959 1106 1268 751 
Q 1578 397 2138 397 
Q 2388 397 2633 464 
Q 2878 531 3122 666 
L 3122 134 
Q 2881 22 2623 -34 
Q 2366 -91 2075 -91 
Q 1284 -91 818 406 
Q 353 903 353 1747 
Q 353 2603 823 3093 
Q 1294 3584 2113 3584 
Q 2378 3584 2631 3529 
Q 2884 3475 3122 3366 
z
" transform="scale(0.015625)"/>
       <path id="DejaVuSans-68" d="M 3513 2113 
L 3513 0 
L 2938 0 
L 2938 2094 
Q 2938 2591 2744 2837 
Q 2550 3084 2163 3084 
Q 1697 3084 1428 2787 
Q 1159 2491 1159 1978 
L 1159 0 
L 581 0 
L 581 4863 
L 1159 4863 
L 1159 2956 
Q 1366 3272 1645 3428 
Q 1925 3584 2291 3584 
Q 2894 3584 3203 3211 
Q 3513 2838 3513 2113 
z
" transform="scale(0.015625)"/>
       <path id="DejaVuSans-73" d="M 2834 3397 
L 2834 2853 
Q 2591 2978 2328 3040 
Q 2066 3103 1784 3103 
Q 1356 3103 1142 2972 
Q 928 2841 928 2578 
Q 928 2378 1081 2264 
Q 1234 2150 1697 2047 
L 1894 2003 
Q 2506 1872 2764 1633 
Q 3022 1394 3022 966 
Q 3022 478 2636 193 
Q 2250 -91 1575 -91 
Q 1294 -91 989 -36 
Q 684 19 347 128 
L 347 722 
Q 666 556 975 473 
Q 1284 391 1588 391 
Q 1994 391 2212 530 
Q 2431 669 2431 922 
Q 2431 1156 2273 1281 
Q 2116 1406 1581 1522 
L 1381 1569 
Q 847 1681 609 1914 
Q 372 2147 372 2553 
Q 372 3047 722 3315 
Q 1072 3584 1716 3584 
Q 2034 3584 2315 3537 
Q 2597 3491 2834 3397 
z
" transform="scale(0.015625)"/>
      </defs>
      <use xlink:href="#DejaVuSans-45"/>
      <use xlink:href="#DejaVuSans-70" transform="translate(63.183594 0)"/>
      <use xlink:href="#DejaVuSans-6f" transform="translate(126.660156 0)"/>
      <use xlink:href="#DejaVuSans-63" transform="translate(187.841797 0)"/>
      <use xlink:href="#DejaVuSans-68" transform="translate(242.822266 0)"/>
      <use xlink:href="#DejaVuSans-73" transform="translate(306.201172 0)"/>
     </g>
    </g>
   </g>
   <g id="matplotlib.axis_2">
    <g id="ytick_1">
     <g id="line2d_19">
      <path d="M 34.240625 487.859118 
L 592.240625 487.859118 
" clip-path="url(#p62ac102bc1)" style="fill: none; stroke: #b0b0b0; stroke-width: 0.8; stroke-linecap: square"/>
     </g>
     <g id="line2d_20">
      <defs>
       <path id="mc980d04205" d="M 0 0 
L -3.5 0 
" style="stroke: #000000; stroke-width: 0.8"/>
      </defs>
      <g>
       <use xlink:href="#mc980d04205" x="34.240625" y="487.859118" style="stroke: #000000; stroke-width: 0.8"/>
      </g>
     </g>
     <g id="text_11">
      <!-- 1 -->
      <g transform="translate(20.878125 491.658337) scale(0.1 -0.1)">
       <use xlink:href="#DejaVuSans-31"/>
      </g>
     </g>
    </g>
    <g id="ytick_2">
     <g id="line2d_21">
      <path d="M 34.240625 390.720671 
L 592.240625 390.720671 
" clip-path="url(#p62ac102bc1)" style="fill: none; stroke: #b0b0b0; stroke-width: 0.8; stroke-linecap: square"/>
     </g>
     <g id="line2d_22">
      <g>
       <use xlink:href="#mc980d04205" x="34.240625" y="390.720671" style="stroke: #000000; stroke-width: 0.8"/>
      </g>
     </g>
     <g id="text_12">
      <!-- 2 -->
      <g transform="translate(20.878125 394.51989) scale(0.1 -0.1)">
       <use xlink:href="#DejaVuSans-32"/>
      </g>
     </g>
    </g>
    <g id="ytick_3">
     <g id="line2d_23">
      <path d="M 34.240625 293.582224 
L 592.240625 293.582224 
" clip-path="url(#p62ac102bc1)" style="fill: none; stroke: #b0b0b0; stroke-width: 0.8; stroke-linecap: square"/>
     </g>
     <g id="line2d_24">
      <g>
       <use xlink:href="#mc980d04205" x="34.240625" y="293.582224" style="stroke: #000000; stroke-width: 0.8"/>
      </g>
     </g>
     <g id="text_13">
      <!-- 3 -->
      <g transform="translate(20.878125 297.381443) scale(0.1 -0.1)">
       <use xlink:href="#DejaVuSans-33"/>
      </g>
     </g>
    </g>
    <g id="ytick_4">
     <g id="line2d_25">
      <path d="M 34.240625 196.443777 
L 592.240625 196.443777 
" clip-path="url(#p62ac102bc1)" style="fill: none; stroke: #b0b0b0; stroke-width: 0.8; stroke-linecap: square"/>
     </g>
     <g id="line2d_26">
      <g>
       <use xlink:href="#mc980d04205" x="34.240625" y="196.443777" style="stroke: #000000; stroke-width: 0.8"/>
      </g>
     </g>
     <g id="text_14">
      <!-- 4 -->
      <g transform="translate(20.878125 200.242996) scale(0.1 -0.1)">
       <use xlink:href="#DejaVuSans-34"/>
      </g>
     </g>
    </g>
    <g id="ytick_5">
     <g id="line2d_27">
      <path d="M 34.240625 99.30533 
L 592.240625 99.30533 
" clip-path="url(#p62ac102bc1)" style="fill: none; stroke: #b0b0b0; stroke-width: 0.8; stroke-linecap: square"/>
     </g>
     <g id="line2d_28">
      <g>
       <use xlink:href="#mc980d04205" x="34.240625" y="99.30533" style="stroke: #000000; stroke-width: 0.8"/>
      </g>
     </g>
     <g id="text_15">
      <!-- 5 -->
      <g transform="translate(20.878125 103.104549) scale(0.1 -0.1)">
       <use xlink:href="#DejaVuSans-35"/>
      </g>
     </g>
    </g>
    <g id="text_16">
     <!-- Loss -->
     <g transform="translate(14.798438 310.485313) rotate(-90) scale(0.1 -0.1)">
      <defs>
       <path id="DejaVuSans-4c" d="M 628 4666 
L 1259 4666 
L 1259 531 
L 3531 531 
L 3531 0 
L 628 0 
L 628 4666 
z
" transform="scale(0.015625)"/>
      </defs>
      <use xlink:href="#DejaVuSans-4c"/>
      <use xlink:href="#DejaVuSans-6f" transform="translate(53.962891 0)"/>
      <use xlink:href="#DejaVuSans-73" transform="translate(115.144531 0)"/>
      <use xlink:href="#DejaVuSans-73" transform="translate(167.244141 0)"/>
     </g>
    </g>
   </g>
   <g id="line2d_29">
    <path d="M 59.604261 47.518125 
L 60.239146 65.814681 
L 60.87403 91.889669 
L 61.508915 127.214699 
L 63.413568 254.339584 
L 64.048453 284.290264 
L 64.683337 304.342897 
L 65.318222 318.420652 
L 65.953107 328.921682 
L 66.587991 337.356806 
L 67.85776 349.746132 
L 69.127529 358.702533 
L 70.397298 365.573989 
L 71.667067 371.191608 
L 72.936836 375.980065 
L 74.206605 380.062063 
L 76.111259 385.242289 
L 79.285681 392.308193 
L 81.825219 397.020572 
L 84.364757 401.255121 
L 85.634526 403.212224 
L 87.53918 406.047516 
L 89.443834 408.78687 
L 90.713603 410.33744 
L 93.253141 413.476529 
L 94.52291 414.880812 
L 98.332217 418.842471 
L 100.23687 420.646246 
L 102.141524 422.345293 
L 104.681062 424.559375 
L 107.2206 426.603813 
L 112.299676 430.362548 
L 113.569445 431.162273 
L 114.20433 431.795294 
L 114.839214 432.196094 
L 115.474099 432.456362 
L 116.743868 433.458919 
L 118.013637 434.185725 
L 119.283406 435.136195 
L 119.91829 435.427428 
L 122.457828 437.217723 
L 123.727597 437.933969 
L 125.632251 439.335647 
L 126.267135 439.837295 
L 126.90202 440.075828 
L 127.536904 440.623865 
L 129.441558 441.736048 
L 130.076442 442.211097 
L 130.711327 442.49317 
L 131.346212 443.016403 
L 131.981096 443.206972 
L 133.88575 444.658165 
L 135.155519 445.285536 
L 135.790403 445.691304 
L 137.060172 446.770287 
L 140.869479 449.678821 
L 141.504364 450.40205 
L 142.139248 450.782956 
L 142.774133 451.412283 
L 143.409017 451.722217 
L 144.678786 452.887551 
L 148.488093 456.125612 
L 151.027631 458.269971 
L 152.932285 459.960588 
L 163.090437 468.049129 
L 163.725322 468.492322 
L 164.360206 469.129988 
L 164.995091 469.396265 
L 165.629975 469.97397 
L 166.899744 470.909097 
L 167.534629 471.454495 
L 168.804398 472.296184 
L 171.343936 473.955651 
L 173.24859 475.285777 
L 175.153243 476.619053 
L 177.057897 477.853981 
L 178.96255 479.167131 
L 179.597435 479.463458 
L 183.406742 482.071508 
L 185.94628 483.503838 
L 188.485818 485.208084 
L 189.755587 485.976416 
L 190.390471 486.204677 
L 191.025356 486.703836 
L 194.199778 488.51739 
L 196.739317 489.889301 
L 197.374201 490.197585 
L 198.009086 490.672391 
L 198.64397 490.804181 
L 199.913739 491.576537 
L 201.183508 492.339409 
L 201.818393 492.733597 
L 202.453277 492.911196 
L 203.723046 493.706445 
L 204.357931 493.954751 
L 204.992815 494.374015 
L 206.262584 494.827341 
L 206.897469 495.065023 
L 210.071891 496.762321 
L 217.690506 500.523453 
L 218.960275 500.911533 
L 220.864928 501.878302 
L 222.769582 502.765703 
L 226.578889 504.489375 
L 227.848658 504.99719 
L 228.483542 505.188812 
L 232.292849 507.037615 
L 232.927734 507.158578 
L 234.197503 507.804586 
L 238.641695 509.418573 
L 240.546348 510.286271 
L 241.816117 510.592905 
L 243.085886 511.229904 
L 244.355655 511.655635 
L 251.339385 514.052921 
L 251.974269 514.166334 
L 252.609154 514.487807 
L 253.244038 514.496677 
L 255.148692 515.184043 
L 255.783576 515.247187 
L 256.418461 515.605912 
L 257.053345 515.663615 
L 257.68823 515.92878 
L 258.323114 516.055516 
L 260.227768 516.882389 
L 264.67196 517.94534 
L 266.576613 518.614664 
L 269.116151 519.022951 
L 269.751036 519.439198 
L 271.655689 519.884865 
L 272.925458 520.176166 
L 273.560343 520.445148 
L 275.464996 520.979561 
L 278.639419 521.882798 
L 280.544072 522.491317 
L 281.178957 522.514227 
L 281.813842 522.76097 
L 283.083611 522.898173 
L 283.718495 523.173437 
L 285.623149 523.43488 
L 286.258033 523.789888 
L 286.892918 523.837637 
L 287.527802 524.034737 
L 288.797571 524.204358 
L 291.971994 525.00132 
L 293.876647 525.233831 
L 294.511532 525.519424 
L 296.416185 525.93998 
L 297.05107 525.964876 
L 299.590608 526.66491 
L 300.860377 526.893189 
L 302.765031 527.239367 
L 303.399915 527.282392 
L 304.0348 527.579055 
L 304.669684 527.704568 
L 305.939453 527.720021 
L 307.209222 528.00588 
L 307.844107 528.011659 
L 310.383645 528.774722 
L 311.018529 528.736462 
L 311.653414 528.941071 
L 312.923183 529.151106 
L 314.827836 529.568784 
L 316.097605 529.701893 
L 316.73249 529.783624 
L 317.367374 530.033742 
L 318.002259 529.920532 
L 318.637143 530.143327 
L 319.906912 530.396977 
L 320.541797 530.514998 
L 321.176681 530.493396 
L 321.811566 530.689917 
L 322.44645 530.668026 
L 323.716219 531.041781 
L 324.351104 530.913054 
L 325.620873 531.276921 
L 326.255758 531.280453 
L 326.890642 531.452633 
L 328.795296 531.673969 
L 331.969718 532.215811 
L 333.239487 532.305508 
L 335.144141 532.680561 
L 335.779025 532.631694 
L 337.683679 532.936023 
L 338.318563 533.067738 
L 338.953448 533.061531 
L 340.223217 533.379605 
L 342.12787 533.592164 
L 342.762755 533.783138 
L 343.397639 533.747501 
L 344.032524 533.970088 
L 345.937178 533.978211 
L 347.206947 534.313719 
L 347.841831 534.292059 
L 348.476716 534.620549 
L 349.1116 534.433188 
L 351.016254 534.845718 
L 352.286023 534.910652 
L 352.920907 534.97254 
L 353.555792 535.171476 
L 354.825561 535.179581 
L 355.460445 535.389077 
L 356.09533 535.332197 
L 356.730214 535.529656 
L 357.365099 535.602308 
L 357.999983 535.867173 
L 358.634868 535.729362 
L 359.269752 535.738382 
L 360.539521 536.121755 
L 361.174406 536.020576 
L 361.80929 536.344579 
L 362.444175 536.204435 
L 363.079059 536.259728 
L 363.713944 536.194389 
L 364.348828 536.470278 
L 364.983713 536.446681 
L 370.062789 537.12916 
L 376.411634 537.632352 
L 377.046519 537.852646 
L 381.49071 537.975766 
L 382.125595 538.183357 
L 382.760479 538.169389 
L 383.395364 538.416169 
L 384.665133 538.242336 
L 385.300017 538.417619 
L 387.204671 538.488702 
L 392.283747 539.005566 
L 392.918632 538.898749 
L 394.188401 539.097756 
L 394.823285 539.030324 
L 395.45817 539.100049 
L 396.093054 538.98168 
L 396.727939 539.191758 
L 397.362823 539.18472 
L 397.997708 539.435562 
L 398.632592 539.326617 
L 399.267477 539.559032 
L 399.902361 539.489996 
L 400.537246 539.636078 
L 403.711668 539.673446 
L 404.346553 539.84175 
L 408.790744 539.834533 
L 409.425629 539.954222 
L 410.060513 539.934273 
L 411.330283 540.092094 
L 411.965167 540.02309 
L 413.869821 540.162566 
L 414.504705 540.133439 
L 416.409359 540.478564 
L 418.314012 540.42158 
L 418.948897 540.617076 
L 419.583781 540.505261 
L 421.488435 540.614334 
L 422.123319 540.874602 
L 424.027973 540.680507 
L 424.662857 540.911594 
L 425.297742 540.911681 
L 425.932626 541.065536 
L 426.567511 540.952247 
L 427.202395 541.193 
L 429.107049 541.229309 
L 429.741933 541.409007 
L 430.376818 541.310446 
L 431.011702 541.389938 
L 432.281472 541.33936 
L 434.186125 541.664272 
L 435.455894 541.440947 
L 436.090779 541.510449 
L 437.360548 541.436301 
L 437.995432 541.601956 
L 440.53497 541.553821 
L 441.169855 541.428893 
L 441.804739 541.71802 
L 444.979162 541.852621 
L 445.614046 541.7469 
L 446.248931 541.948588 
L 446.883815 541.661832 
L 447.5187 541.817583 
L 448.153584 541.772037 
L 448.788469 541.922418 
L 450.058238 541.981837 
L 450.693122 542.041962 
L 451.962891 541.808137 
L 452.597776 541.996923 
L 453.23266 541.814497 
L 455.137314 542.031219 
L 456.407083 542.243827 
L 457.041968 542.023507 
L 457.676852 542.136833 
L 458.311737 542.068532 
L 458.946621 542.214145 
L 460.21639 542.037437 
L 461.486159 542.297421 
L 462.755928 542.270223 
L 463.390813 542.255225 
L 464.025697 542.415312 
L 465.295466 542.32534 
L 465.930351 542.45092 
L 466.565235 542.20722 
L 467.835004 542.277354 
L 470.374542 542.383152 
L 471.644311 542.222503 
L 472.91408 542.492362 
L 473.548965 542.304922 
L 475.453619 542.489991 
L 476.088503 542.409934 
L 479.89781 542.660312 
L 480.532695 542.591381 
L 481.167579 542.770288 
L 481.802464 542.613889 
L 483.072233 542.607343 
L 484.342002 542.878296 
L 484.976886 542.757609 
L 486.246655 542.797377 
L 486.88154 542.768193 
L 487.516424 542.880216 
L 488.151309 542.786796 
L 488.786193 542.885982 
L 489.421078 542.870726 
L 491.325731 543.119845 
L 493.230385 542.854294 
L 493.865269 542.943389 
L 495.135038 542.892383 
L 495.769923 543.112116 
L 497.039692 543.121362 
L 500.214115 543.227511 
L 500.848999 543.071604 
L 503.388537 543.248448 
L 504.023422 543.018128 
L 504.658306 543.30045 
L 505.928075 543.113248 
L 506.56296 543.354394 
L 507.197844 543.246962 
L 507.832729 543.259541 
L 508.467613 543.070976 
L 509.737382 543.456786 
L 510.372267 543.355873 
L 511.642036 543.445293 
L 512.27692 543.201486 
L 512.911805 543.332998 
L 513.546689 543.326791 
L 514.181574 543.535444 
L 515.451343 543.292923 
L 516.086227 543.626928 
L 516.721112 543.40362 
L 517.355996 543.563213 
L 517.990881 543.358537 
L 519.26065 543.637017 
L 519.895535 543.44828 
L 520.530419 543.585866 
L 522.435073 543.562072 
L 523.069957 543.696905 
L 523.704842 543.537517 
L 524.339726 543.670381 
L 524.974611 543.554363 
L 525.609495 543.72901 
L 526.24438 543.677656 
L 526.879264 543.873062 
L 527.514149 543.72328 
L 528.783918 543.940031 
L 529.418802 543.809602 
L 530.053687 543.952841 
L 530.688571 543.805914 
L 531.323456 543.963089 
L 533.228109 543.909339 
L 533.862994 544.188467 
L 535.132763 544.052813 
L 536.402532 544.291067 
L 537.037416 544.092954 
L 538.307185 544.368837 
L 538.94207 544.491013 
L 540.846724 544.08684 
L 541.481608 544.434307 
L 542.116493 544.257819 
L 542.751377 544.500094 
L 543.386262 544.239777 
L 545.9258 544.475675 
L 546.560684 544.374251 
L 547.195569 544.588312 
L 547.830453 544.416254 
L 548.465338 544.492553 
L 549.100222 544.31751 
L 549.735107 544.459562 
L 552.909529 544.407731 
L 553.544414 544.653333 
L 554.814183 544.49187 
L 555.449067 544.602581 
L 556.083952 544.518283 
L 557.353721 544.663135 
L 557.988605 544.480808 
L 558.62349 544.769348 
L 559.258374 544.507419 
L 559.893259 544.692771 
L 560.528143 544.538791 
L 561.163028 544.615186 
L 561.797913 544.383564 
L 563.067682 544.73561 
L 563.702566 544.732397 
L 564.337451 544.542818 
L 565.60722 544.802209 
L 566.242104 544.694267 
L 566.876989 544.735248 
L 566.876989 544.735248 
" clip-path="url(#p62ac102bc1)" style="fill: none; stroke: #1f77b4; stroke-width: 1.5; stroke-linecap: square"/>
   </g>
   <g id="line2d_30">
    <path d="M 59.604261 52.201091 
L 60.87403 106.930076 
L 62.143799 191.238469 
L 62.778684 235.256274 
L 63.413568 270.489962 
L 64.048453 294.989819 
L 64.683337 312.282035 
L 65.953107 333.164801 
L 67.222876 347.032776 
L 67.85776 350.892163 
L 68.492645 353.791561 
L 69.127529 358.914675 
L 69.762414 362.80146 
L 70.397298 364.562702 
L 71.032183 368.313007 
L 71.667067 372.747679 
L 72.301952 372.035474 
L 72.936836 376.276624 
L 74.206605 381.350432 
L 74.84149 382.186679 
L 76.111259 385.282239 
L 77.381028 386.873119 
L 78.015912 388.211814 
L 78.650797 391.204337 
L 79.285681 390.359775 
L 81.190335 394.743137 
L 81.825219 394.281728 
L 82.460104 397.956857 
L 83.094988 395.797825 
L 83.729873 399.181294 
L 84.999642 399.813574 
L 85.634526 402.861043 
L 86.269411 403.511145 
L 86.904295 405.195984 
L 87.53918 404.528072 
L 88.174065 406.356187 
L 88.808949 404.908098 
L 89.443834 407.966024 
L 90.078718 408.049815 
L 90.713603 410.156575 
L 91.348487 409.406991 
L 91.983372 407.797364 
L 92.618256 412.648156 
L 93.253141 412.854068 
L 93.888025 412.389625 
L 94.52291 412.897643 
L 95.157794 413.831704 
L 95.792679 415.450353 
L 96.427563 413.858315 
L 97.062448 414.285112 
L 97.697332 413.864035 
L 98.332217 419.868674 
L 98.967101 416.031937 
L 99.601986 418.456713 
L 100.23687 419.835857 
L 100.871755 414.838001 
L 101.506639 421.450568 
L 102.141524 418.553717 
L 102.776408 418.512551 
L 103.411293 421.7676 
L 104.681062 424.448846 
L 105.315946 423.620172 
L 106.585715 427.317569 
L 107.2206 425.25971 
L 107.855484 425.606479 
L 108.490369 429.379226 
L 109.125254 423.443753 
L 109.760138 421.573233 
L 111.029907 431.180847 
L 111.664792 426.951334 
L 112.299676 428.719964 
L 112.934561 426.919837 
L 114.20433 429.915614 
L 114.839214 426.481959 
L 115.474099 431.743394 
L 116.108983 430.326975 
L 116.743868 429.601049 
L 117.378752 432.774656 
L 118.013637 431.497867 
L 118.648521 432.246999 
L 119.283406 428.434163 
L 119.91829 435.496964 
L 121.188059 435.239881 
L 121.822944 434.196448 
L 122.457828 430.589825 
L 123.092713 435.373778 
L 123.727597 436.25763 
L 124.362482 434.297632 
L 124.997366 438.518182 
L 125.632251 431.283502 
L 126.267135 437.015818 
L 126.90202 438.484033 
L 127.536904 431.312451 
L 128.171789 441.181433 
L 128.806673 436.621143 
L 129.441558 442.284815 
L 130.076442 436.745557 
L 130.711327 441.240467 
L 131.346212 440.732102 
L 131.981096 438.947885 
L 132.615981 442.758359 
L 133.250865 441.437636 
L 133.88575 441.540893 
L 134.520634 438.102571 
L 135.155519 443.088164 
L 136.425288 446.091235 
L 137.060172 444.699609 
L 137.695057 444.528437 
L 138.329941 443.594444 
L 138.964826 443.78455 
L 139.59971 447.674843 
L 140.234595 442.42588 
L 140.869479 443.563688 
L 141.504364 446.186445 
L 142.139248 445.861701 
L 142.774133 450.262779 
L 143.409017 450.296164 
L 144.043902 449.054878 
L 144.678786 453.990504 
L 145.313671 451.585425 
L 145.948555 454.446146 
L 146.58344 448.778885 
L 147.218324 455.411126 
L 147.853209 451.396836 
L 148.488093 456.031699 
L 149.122978 453.26577 
L 149.757862 434.71571 
L 150.392747 459.823194 
L 151.027631 456.671889 
L 151.662516 457.762359 
L 152.297401 459.660092 
L 152.932285 460.580235 
L 153.56717 456.662637 
L 154.836939 461.227454 
L 156.106708 451.663438 
L 156.741592 456.629634 
L 157.376477 460.457512 
L 158.011361 463.263276 
L 158.646246 457.589276 
L 159.28113 465.753525 
L 159.916015 461.021275 
L 160.550899 459.514824 
L 161.185784 458.72859 
L 161.820668 465.315403 
L 162.455553 463.027036 
L 163.090437 467.808222 
L 163.725322 464.208918 
L 164.360206 466.256841 
L 164.995091 464.034896 
L 165.629975 465.951539 
L 166.26486 466.673645 
L 166.899744 464.946818 
L 167.534629 467.888355 
L 168.169513 469.642707 
L 168.804398 460.974111 
L 169.439282 469.802797 
L 170.074167 467.805038 
L 170.709051 467.319404 
L 171.343936 472.309779 
L 171.97882 464.847764 
L 172.613705 471.037946 
L 173.24859 469.128077 
L 173.883474 477.298023 
L 174.518359 456.405959 
L 175.153243 474.013122 
L 175.788128 474.215305 
L 176.423012 465.262043 
L 177.057897 476.966771 
L 177.692781 475.311948 
L 178.327666 477.962623 
L 178.96255 478.013481 
L 179.597435 477.824418 
L 180.232319 476.389344 
L 180.867204 481.804443 
L 181.502088 474.400883 
L 182.136973 482.096613 
L 182.771857 481.857699 
L 183.406742 465.263664 
L 184.041626 477.114923 
L 184.676511 476.636052 
L 185.311395 476.789635 
L 185.94628 477.256371 
L 186.581164 483.323216 
L 187.216049 469.151792 
L 187.850933 480.037168 
L 188.485818 473.712753 
L 189.120702 484.513678 
L 189.755587 483.341987 
L 190.390471 486.698196 
L 191.025356 483.115926 
L 191.66024 483.898813 
L 192.295125 476.545266 
L 193.564894 484.137635 
L 194.199778 477.61392 
L 194.834663 483.565547 
L 195.469548 487.094434 
L 196.104432 485.968426 
L 196.739317 486.755957 
L 197.374201 487.248133 
L 198.009086 484.845787 
L 198.64397 487.14982 
L 199.278855 490.228891 
L 199.913739 492.320146 
L 200.548624 489.636798 
L 201.183508 493.189222 
L 201.818393 493.89409 
L 202.453277 489.425715 
L 203.088162 490.342911 
L 203.723046 494.361798 
L 204.357931 489.952782 
L 204.992815 481.762559 
L 205.6277 495.463733 
L 206.262584 490.804141 
L 206.897469 488.179873 
L 207.532353 493.400385 
L 208.167238 496.091688 
L 208.802122 495.547941 
L 209.437007 496.908406 
L 210.071891 493.578743 
L 210.706776 493.991476 
L 211.34166 497.30315 
L 211.976545 493.579432 
L 212.611429 498.739318 
L 213.246314 495.762486 
L 213.881198 489.891855 
L 214.516083 492.137671 
L 215.150967 492.540735 
L 215.785852 499.255337 
L 216.420737 501.528071 
L 217.055621 493.589767 
L 217.690506 499.935107 
L 218.32539 499.585472 
L 218.960275 502.700897 
L 219.595159 500.968836 
L 220.230044 487.44778 
L 220.864928 502.463071 
L 221.499813 502.821761 
L 222.134697 502.431811 
L 222.769582 504.619068 
L 223.404466 502.690515 
L 224.039351 495.996456 
L 224.674235 503.586665 
L 225.30912 496.948686 
L 225.944004 505.672836 
L 226.578889 507.060346 
L 227.213773 498.442748 
L 227.848658 504.650264 
L 228.483542 500.597101 
L 229.118427 507.170042 
L 229.753311 495.831351 
L 230.388196 503.797012 
L 231.02308 500.418187 
L 231.657965 507.240024 
L 232.292849 507.104112 
L 232.927734 508.730768 
L 233.562618 504.674107 
L 234.197503 504.179314 
L 234.832387 507.871118 
L 235.467272 507.861802 
L 236.102156 506.283775 
L 236.737041 507.696645 
L 237.371925 506.668648 
L 238.00681 507.778398 
L 238.641695 510.047426 
L 239.276579 508.166189 
L 239.911464 501.911085 
L 240.546348 509.660128 
L 241.181233 509.800661 
L 241.816117 508.414778 
L 242.451002 507.78299 
L 243.085886 508.633306 
L 243.720771 494.958315 
L 244.355655 510.056956 
L 244.99054 499.417732 
L 246.260309 510.745914 
L 246.895193 510.802019 
L 247.530078 515.774219 
L 248.164962 513.356408 
L 248.799847 514.690008 
L 249.434731 513.026476 
L 250.069616 515.607203 
L 250.7045 513.724976 
L 251.339385 499.253155 
L 251.974269 513.299916 
L 252.609154 515.632534 
L 253.244038 510.289919 
L 253.878923 510.636699 
L 255.148692 516.399969 
L 255.783576 517.107043 
L 256.418461 515.279842 
L 257.053345 515.620677 
L 257.68823 516.28054 
L 258.323114 513.544869 
L 258.957999 508.762218 
L 259.592884 498.252144 
L 260.227768 514.535087 
L 260.862653 498.913918 
L 261.497537 520.442044 
L 262.132422 517.082141 
L 262.767306 520.297106 
L 263.402191 513.094907 
L 264.037075 514.88313 
L 264.67196 520.669651 
L 265.306844 518.163631 
L 265.941729 521.441723 
L 266.576613 513.893415 
L 267.211498 518.094638 
L 267.846382 514.346632 
L 268.481267 520.756668 
L 269.116151 519.689426 
L 269.751036 521.130267 
L 270.38592 518.157158 
L 271.020805 521.603916 
L 271.655689 504.163455 
L 272.290574 510.516472 
L 272.925458 521.041392 
L 273.560343 522.95998 
L 274.195227 520.674758 
L 274.830112 522.179913 
L 275.464996 521.461119 
L 276.099881 523.511469 
L 276.734765 518.418606 
L 277.36965 519.463452 
L 278.004534 524.921866 
L 278.639419 521.063671 
L 279.274303 521.636426 
L 279.909188 520.750351 
L 280.544072 524.767264 
L 281.178957 502.783351 
L 281.813842 491.058503 
L 282.448726 521.562055 
L 283.083611 517.978064 
L 283.718495 523.875584 
L 284.35338 519.060985 
L 284.988264 523.339034 
L 285.623149 525.432425 
L 286.258033 512.084714 
L 286.892918 524.189437 
L 287.527802 517.975482 
L 288.162687 521.464113 
L 288.797571 519.310205 
L 289.432456 525.502923 
L 290.06734 526.175194 
L 290.702225 523.520541 
L 291.337109 515.579285 
L 291.971994 523.56121 
L 292.606878 523.491684 
L 293.241763 526.511373 
L 293.876647 528.301582 
L 294.511532 526.685534 
L 295.146416 522.211693 
L 295.781301 526.391563 
L 296.416185 521.642233 
L 297.05107 528.403363 
L 297.685954 527.544668 
L 298.320839 528.364797 
L 298.955723 520.967901 
L 299.590608 520.697304 
L 300.225492 511.604111 
L 300.860377 529.916844 
L 301.495261 503.143778 
L 302.130146 521.819202 
L 302.765031 512.139666 
L 303.399915 526.445334 
L 304.0348 529.489844 
L 304.669684 516.475237 
L 305.304569 477.598427 
L 305.939453 527.582366 
L 306.574338 496.63789 
L 307.209222 529.259418 
L 307.844107 508.273875 
L 308.478991 528.804864 
L 309.113876 522.995316 
L 309.74876 532.542478 
L 310.383645 520.191868 
L 311.018529 530.507263 
L 311.653414 515.427398 
L 312.288298 531.592181 
L 312.923183 529.484992 
L 314.192952 534.209871 
L 314.827836 532.991085 
L 315.462721 532.040916 
L 316.097605 533.084795 
L 317.367374 489.370607 
L 318.002259 526.186039 
L 319.272028 533.228274 
L 319.906912 484.371316 
L 320.541797 506.689619 
L 321.176681 535.0351 
L 322.44645 532.106637 
L 323.081335 526.092694 
L 324.351104 533.444006 
L 324.985989 530.597933 
L 325.620873 519.559119 
L 326.255758 531.780544 
L 326.890642 505.59634 
L 327.525527 531.165743 
L 328.160411 533.754935 
L 328.795296 525.185538 
L 329.43018 532.822344 
L 330.065065 533.463408 
L 331.334834 531.291656 
L 331.969718 531.931909 
L 332.604603 515.256115 
L 333.239487 521.92921 
L 333.874372 510.641511 
L 334.509256 533.440775 
L 335.144141 516.698525 
L 335.779025 479.935741 
L 336.41391 536.916054 
L 337.048794 537.151865 
L 337.683679 535.272955 
L 338.318563 534.732971 
L 338.953448 533.248232 
L 339.588332 537.302776 
L 340.223217 537.49437 
L 340.858101 516.288663 
L 341.492986 528.836454 
L 342.12787 531.959869 
L 342.762755 536.410532 
L 343.397639 536.062397 
L 344.032524 502.312904 
L 344.667408 530.172642 
L 345.302293 532.814528 
L 345.937178 538.209446 
L 346.572062 538.414666 
L 347.206947 532.629702 
L 347.841831 536.485118 
L 348.476716 531.630278 
L 349.1116 519.897973 
L 349.746485 533.259609 
L 350.381369 537.147815 
L 351.016254 531.556561 
L 351.651138 538.408572 
L 352.286023 536.437093 
L 352.920907 538.394517 
L 353.555792 535.338259 
L 354.190676 538.751309 
L 354.825561 536.289413 
L 355.460445 521.288881 
L 356.09533 539.171213 
L 356.730214 540.535681 
L 357.365099 536.689681 
L 357.999983 538.184906 
L 358.634868 503.836621 
L 359.269752 510.511863 
L 359.904637 495.401242 
L 360.539521 532.304136 
L 361.174406 516.23381 
L 361.80929 532.867737 
L 362.444175 507.628359 
L 363.079059 532.380123 
L 363.713944 531.113518 
L 364.348828 539.455737 
L 364.983713 539.271957 
L 365.618597 523.82681 
L 366.888366 539.070958 
L 367.523251 531.891994 
L 368.158136 510.745272 
L 368.79302 541.186912 
L 369.427905 538.60575 
L 370.062789 538.846961 
L 370.697674 535.114873 
L 371.332558 514.800543 
L 371.967443 501.097134 
L 372.602327 535.832839 
L 373.237212 541.334891 
L 373.872096 511.085706 
L 374.506981 538.282272 
L 375.141865 511.552384 
L 375.77675 494.787403 
L 377.046519 537.594663 
L 377.681403 524.950503 
L 378.316288 534.366401 
L 378.951172 538.267365 
L 379.586057 539.050079 
L 380.220941 542.927678 
L 380.855826 539.436072 
L 381.49071 526.386057 
L 382.125595 539.416621 
L 382.760479 533.573439 
L 383.395364 504.151881 
L 384.030248 518.690182 
L 384.665133 541.331619 
L 385.300017 532.115055 
L 385.934902 535.717336 
L 386.569786 541.818188 
L 387.204671 526.355828 
L 387.839555 540.141571 
L 388.47444 527.002878 
L 389.109325 530.114835 
L 389.744209 542.060962 
L 390.379094 544.706678 
L 391.013978 535.864046 
L 391.648863 543.618066 
L 392.283747 534.022 
L 392.918632 541.843374 
L 393.553516 545.07698 
L 394.188401 488.748332 
L 394.823285 540.089124 
L 395.45817 529.903069 
L 396.093054 540.345147 
L 396.727939 525.135646 
L 397.362823 527.488269 
L 397.997708 533.392204 
L 398.632592 529.976433 
L 399.267477 544.932163 
L 399.902361 541.077086 
L 400.537246 536.535293 
L 401.17213 511.259606 
L 401.807015 536.412819 
L 402.441899 539.190939 
L 403.076784 547.226704 
L 403.711668 541.803268 
L 404.346553 541.723512 
L 404.981437 506.66456 
L 405.616322 542.163669 
L 406.251206 545.092381 
L 406.886091 544.578814 
L 407.520975 527.399226 
L 408.15586 539.663603 
L 408.790744 542.436483 
L 409.425629 534.767282 
L 410.060513 535.588597 
L 410.695398 537.249405 
L 411.330283 539.968132 
L 411.965167 495.856068 
L 412.600052 545.397503 
L 413.234936 527.75197 
L 413.869821 534.519191 
L 414.504705 548.045845 
L 415.13959 536.907028 
L 415.774474 545.358957 
L 416.409359 537.249903 
L 417.044243 521.424388 
L 417.679128 544.207971 
L 418.314012 541.908586 
L 418.948897 546.572975 
L 419.583781 523.896665 
L 420.218666 536.878521 
L 420.85355 524.87147 
L 421.488435 546.492695 
L 422.123319 494.504525 
L 422.758204 500.989066 
L 423.393088 525.263522 
L 424.027973 541.797854 
L 424.662857 544.77583 
L 425.297742 528.957491 
L 425.932626 546.311361 
L 427.202395 540.841681 
L 427.83728 545.058794 
L 428.472164 544.56094 
L 429.107049 518.959922 
L 429.741933 545.399915 
L 430.376818 519.28429 
L 431.011702 529.021754 
L 431.646587 497.34856 
L 432.281472 546.305143 
L 432.916356 548.654795 
L 433.551241 542.409001 
L 434.186125 543.15684 
L 434.82101 544.160097 
L 435.455894 544.26272 
L 436.090779 547.165818 
L 436.725663 547.210959 
L 437.360548 545.713325 
L 437.995432 528.214786 
L 438.630317 545.910819 
L 439.265201 536.40117 
L 439.900086 544.831045 
L 440.53497 542.241529 
L 441.804739 543.371558 
L 442.439624 534.304374 
L 443.074508 546.074091 
L 443.709393 530.661541 
L 444.344277 476.512623 
L 444.979162 524.432463 
L 445.614046 525.444312 
L 446.248931 539.735664 
L 446.883815 547.219887 
L 447.5187 544.490773 
L 448.153584 544.098912 
L 448.788469 507.350831 
L 449.423353 544.778392 
L 450.058238 545.329492 
L 450.693122 536.437472 
L 451.328007 497.134455 
L 451.962891 545.570419 
L 452.597776 546.845109 
L 453.23266 530.059466 
L 453.867545 546.1603 
L 454.50243 546.058441 
L 455.137314 545.10185 
L 455.772199 545.08277 
L 456.407083 547.789526 
L 457.041968 545.554586 
L 457.676852 548.890551 
L 458.311737 500.332508 
L 458.946621 513.32128 
L 459.581506 537.461666 
L 460.21639 544.138014 
L 460.851275 536.260765 
L 461.486159 497.518749 
L 462.121044 541.962122 
L 462.755928 542.832217 
L 463.390813 542.006922 
L 464.025697 544.32083 
L 464.660582 520.100249 
L 465.295466 549.334515 
L 465.930351 542.682198 
L 466.565235 547.720678 
L 467.20012 546.737388 
L 467.835004 529.961987 
L 468.469889 529.699809 
L 469.104773 545.363088 
L 469.739658 545.765477 
L 470.374542 550.227541 
L 471.009427 541.520715 
L 471.644311 542.035463 
L 472.279196 544.874241 
L 472.91408 544.241303 
L 473.548965 547.428853 
L 474.183849 530.216795 
L 474.818734 531.780654 
L 475.453619 515.871663 
L 476.088503 512.573711 
L 476.723388 518.886321 
L 477.358272 550.495252 
L 477.993157 488.978451 
L 478.628041 545.422194 
L 479.262926 521.722111 
L 479.89781 546.417114 
L 480.532695 538.609789 
L 481.167579 543.561175 
L 481.802464 541.375672 
L 482.437348 534.994316 
L 483.072233 547.575407 
L 483.707117 544.728486 
L 484.342002 549.689373 
L 484.976886 527.900707 
L 485.611771 549.011115 
L 486.246655 500.360977 
L 486.88154 516.875887 
L 487.516424 541.219321 
L 488.786193 550.017504 
L 489.421078 501.85582 
L 490.055962 541.514314 
L 490.690847 542.909591 
L 491.325731 548.904589 
L 491.960616 549.310041 
L 492.5955 548.744773 
L 493.230385 542.618628 
L 493.865269 547.980327 
L 494.500154 550.514286 
L 495.135038 548.31965 
L 495.769923 551.518125 
L 496.404808 545.607254 
L 497.039692 549.893195 
L 497.674577 524.817705 
L 498.309461 534.91925 
L 498.944346 541.763039 
L 499.57923 547.116059 
L 500.214115 548.443672 
L 500.848999 547.880488 
L 501.483884 535.795442 
L 502.118768 549.053253 
L 502.753653 545.357799 
L 503.388537 515.179723 
L 504.023422 542.90852 
L 504.658306 548.415826 
L 505.293191 545.08497 
L 505.928075 547.138072 
L 506.56296 547.859376 
L 507.197844 547.819929 
L 507.832729 543.897383 
L 508.467613 544.94504 
L 509.102498 547.687019 
L 509.737382 545.474057 
L 510.372267 543.881869 
L 511.007151 536.795173 
L 511.642036 539.7839 
L 512.27692 534.396329 
L 512.911805 517.464517 
L 514.181574 542.688526 
L 514.816458 483.210533 
L 515.451343 542.192552 
L 516.086227 542.968037 
L 516.721112 548.571823 
L 517.355996 535.241765 
L 517.990881 548.513582 
L 518.625766 549.740101 
L 519.26065 549.200036 
L 519.895535 509.82052 
L 520.530419 550.274283 
L 521.165304 541.467117 
L 521.800188 547.702333 
L 522.435073 531.687263 
L 523.069957 530.623241 
L 523.704842 529.77641 
L 524.339726 526.51754 
L 524.974611 535.355496 
L 525.609495 548.404278 
L 526.24438 519.707427 
L 526.879264 531.252366 
L 527.514149 484.886165 
L 528.149033 535.833997 
L 528.783918 533.663756 
L 529.418802 543.449464 
L 530.053687 545.202016 
L 530.688571 542.016701 
L 531.323456 524.016383 
L 531.95834 533.074431 
L 532.593225 518.658036 
L 533.228109 536.656878 
L 533.862994 551.097688 
L 534.497878 541.478335 
L 535.132763 545.960814 
L 535.767647 542.729939 
L 536.402532 530.815043 
L 537.037416 542.721271 
L 537.672301 549.568066 
L 538.307185 546.80264 
L 538.94207 546.907724 
L 539.576955 549.817535 
L 540.211839 550.059101 
L 540.846724 538.467632 
L 541.481608 516.153012 
L 542.116493 548.658996 
L 542.751377 546.947669 
L 543.386262 549.084565 
L 544.021146 547.131973 
L 544.656031 547.163895 
L 545.290915 463.824283 
L 545.9258 543.279357 
L 546.560684 550.61781 
L 547.195569 551.186586 
L 547.830453 550.436684 
L 548.465338 550.536864 
L 549.100222 537.794805 
L 549.735107 551.010183 
L 550.369991 548.281005 
L 551.004876 534.245311 
L 551.63976 538.373529 
L 552.274645 546.777214 
L 552.909529 545.777254 
L 553.544414 503.854014 
L 554.179298 538.84243 
L 554.814183 525.360231 
L 555.449067 551.441342 
L 556.083952 549.177044 
L 556.718836 535.340355 
L 557.353721 540.694076 
L 557.988605 513.351868 
L 558.62349 546.631806 
L 559.258374 543.398942 
L 559.893259 538.654325 
L 560.528143 529.871908 
L 561.163028 494.545136 
L 561.797913 522.556708 
L 562.432797 539.987479 
L 563.067682 547.345487 
L 563.702566 486.418428 
L 564.337451 527.230161 
L 564.972335 516.41028 
L 565.60722 550.85845 
L 566.242104 494.99592 
L 566.876989 514.398938 
L 566.876989 514.398938 
" clip-path="url(#p62ac102bc1)" style="fill: none; stroke: #ff7f0e; stroke-width: 1.5; stroke-linecap: square"/>
   </g>
   <g id="patch_3">
    <path d="M 34.240625 576.718125 
L 34.240625 22.318125 
" style="fill: none; stroke: #000000; stroke-width: 0.8; stroke-linejoin: miter; stroke-linecap: square"/>
   </g>
   <g id="patch_4">
    <path d="M 592.240625 576.718125 
L 592.240625 22.318125 
" style="fill: none; stroke: #000000; stroke-width: 0.8; stroke-linejoin: miter; stroke-linecap: square"/>
   </g>
   <g id="patch_5">
    <path d="M 34.240625 576.718125 
L 592.240625 576.718125 
" style="fill: none; stroke: #000000; stroke-width: 0.8; stroke-linejoin: miter; stroke-linecap: square"/>
   </g>
   <g id="patch_6">
    <path d="M 34.240625 22.318125 
L 592.240625 22.318125 
" style="fill: none; stroke: #000000; stroke-width: 0.8; stroke-linejoin: miter; stroke-linecap: square"/>
   </g>
   <g id="text_17">
    <!-- Train and Val Loss -->
    <g transform="translate(259.695312 16.318125) scale(0.12 -0.12)">
     <defs>
      <path id="DejaVuSans-54" d="M -19 4666 
L 3928 4666 
L 3928 4134 
L 2272 4134 
L 2272 0 
L 1638 0 
L 1638 4134 
L -19 4134 
L -19 4666 
z
" transform="scale(0.015625)"/>
      <path id="DejaVuSans-72" d="M 2631 2963 
Q 2534 3019 2420 3045 
Q 2306 3072 2169 3072 
Q 1681 3072 1420 2755 
Q 1159 2438 1159 1844 
L 1159 0 
L 581 0 
L 581 3500 
L 1159 3500 
L 1159 2956 
Q 1341 3275 1631 3429 
Q 1922 3584 2338 3584 
Q 2397 3584 2469 3576 
Q 2541 3569 2628 3553 
L 2631 2963 
z
" transform="scale(0.015625)"/>
      <path id="DejaVuSans-61" d="M 2194 1759 
Q 1497 1759 1228 1600 
Q 959 1441 959 1056 
Q 959 750 1161 570 
Q 1363 391 1709 391 
Q 2188 391 2477 730 
Q 2766 1069 2766 1631 
L 2766 1759 
L 2194 1759 
z
M 3341 1997 
L 3341 0 
L 2766 0 
L 2766 531 
Q 2569 213 2275 61 
Q 1981 -91 1556 -91 
Q 1019 -91 701 211 
Q 384 513 384 1019 
Q 384 1609 779 1909 
Q 1175 2209 1959 2209 
L 2766 2209 
L 2766 2266 
Q 2766 2663 2505 2880 
Q 2244 3097 1772 3097 
Q 1472 3097 1187 3025 
Q 903 2953 641 2809 
L 641 3341 
Q 956 3463 1253 3523 
Q 1550 3584 1831 3584 
Q 2591 3584 2966 3190 
Q 3341 2797 3341 1997 
z
" transform="scale(0.015625)"/>
      <path id="DejaVuSans-69" d="M 603 3500 
L 1178 3500 
L 1178 0 
L 603 0 
L 603 3500 
z
M 603 4863 
L 1178 4863 
L 1178 4134 
L 603 4134 
L 603 4863 
z
" transform="scale(0.015625)"/>
      <path id="DejaVuSans-6e" d="M 3513 2113 
L 3513 0 
L 2938 0 
L 2938 2094 
Q 2938 2591 2744 2837 
Q 2550 3084 2163 3084 
Q 1697 3084 1428 2787 
Q 1159 2491 1159 1978 
L 1159 0 
L 581 0 
L 581 3500 
L 1159 3500 
L 1159 2956 
Q 1366 3272 1645 3428 
Q 1925 3584 2291 3584 
Q 2894 3584 3203 3211 
Q 3513 2838 3513 2113 
z
" transform="scale(0.015625)"/>
      <path id="DejaVuSans-20" transform="scale(0.015625)"/>
      <path id="DejaVuSans-64" d="M 2906 2969 
L 2906 4863 
L 3481 4863 
L 3481 0 
L 2906 0 
L 2906 525 
Q 2725 213 2448 61 
Q 2172 -91 1784 -91 
Q 1150 -91 751 415 
Q 353 922 353 1747 
Q 353 2572 751 3078 
Q 1150 3584 1784 3584 
Q 2172 3584 2448 3432 
Q 2725 3281 2906 2969 
z
M 947 1747 
Q 947 1113 1208 752 
Q 1469 391 1925 391 
Q 2381 391 2643 752 
Q 2906 1113 2906 1747 
Q 2906 2381 2643 2742 
Q 2381 3103 1925 3103 
Q 1469 3103 1208 2742 
Q 947 2381 947 1747 
z
" transform="scale(0.015625)"/>
      <path id="DejaVuSans-56" d="M 1831 0 
L 50 4666 
L 709 4666 
L 2188 738 
L 3669 4666 
L 4325 4666 
L 2547 0 
L 1831 0 
z
" transform="scale(0.015625)"/>
      <path id="DejaVuSans-6c" d="M 603 4863 
L 1178 4863 
L 1178 0 
L 603 0 
L 603 4863 
z
" transform="scale(0.015625)"/>
     </defs>
     <use xlink:href="#DejaVuSans-54"/>
     <use xlink:href="#DejaVuSans-72" transform="translate(46.333984 0)"/>
     <use xlink:href="#DejaVuSans-61" transform="translate(87.447266 0)"/>
     <use xlink:href="#DejaVuSans-69" transform="translate(148.726562 0)"/>
     <use xlink:href="#DejaVuSans-6e" transform="translate(176.509766 0)"/>
     <use xlink:href="#DejaVuSans-20" transform="translate(239.888672 0)"/>
     <use xlink:href="#DejaVuSans-61" transform="translate(271.675781 0)"/>
     <use xlink:href="#DejaVuSans-6e" transform="translate(332.955078 0)"/>
     <use xlink:href="#DejaVuSans-64" transform="translate(396.333984 0)"/>
     <use xlink:href="#DejaVuSans-20" transform="translate(459.810547 0)"/>
     <use xlink:href="#DejaVuSans-56" transform="translate(491.597656 0)"/>
     <use xlink:href="#DejaVuSans-61" transform="translate(552.255859 0)"/>
     <use xlink:href="#DejaVuSans-6c" transform="translate(613.535156 0)"/>
     <use xlink:href="#DejaVuSans-20" transform="translate(641.318359 0)"/>
     <use xlink:href="#DejaVuSans-4c" transform="translate(673.105469 0)"/>
     <use xlink:href="#DejaVuSans-6f" transform="translate(727.068359 0)"/>
     <use xlink:href="#DejaVuSans-73" transform="translate(788.25 0)"/>
     <use xlink:href="#DejaVuSans-73" transform="translate(840.349609 0)"/>
    </g>
   </g>
   <g id="legend_1">
    <g id="patch_7">
     <path d="M 505.65 60.230625 
L 585.240625 60.230625 
Q 587.240625 60.230625 587.240625 58.230625 
L 587.240625 29.318125 
Q 587.240625 27.318125 585.240625 27.318125 
L 505.65 27.318125 
Q 503.65 27.318125 503.65 29.318125 
L 503.65 58.230625 
Q 503.65 60.230625 505.65 60.230625 
z
" style="fill: #ffffff; opacity: 0.8; stroke: #cccccc; stroke-linejoin: miter"/>
    </g>
    <g id="line2d_31">
     <path d="M 507.65 35.416563 
L 517.65 35.416563 
L 527.65 35.416563 
" style="fill: none; stroke: #1f77b4; stroke-width: 1.5; stroke-linecap: square"/>
    </g>
    <g id="text_18">
     <!-- train_loss -->
     <g transform="translate(535.65 38.916563) scale(0.1 -0.1)">
      <defs>
       <path id="DejaVuSans-74" d="M 1172 4494 
L 1172 3500 
L 2356 3500 
L 2356 3053 
L 1172 3053 
L 1172 1153 
Q 1172 725 1289 603 
Q 1406 481 1766 481 
L 2356 481 
L 2356 0 
L 1766 0 
Q 1100 0 847 248 
Q 594 497 594 1153 
L 594 3053 
L 172 3053 
L 172 3500 
L 594 3500 
L 594 4494 
L 1172 4494 
z
" transform="scale(0.015625)"/>
       <path id="DejaVuSans-5f" d="M 3263 -1063 
L 3263 -1509 
L -63 -1509 
L -63 -1063 
L 3263 -1063 
z
" transform="scale(0.015625)"/>
      </defs>
      <use xlink:href="#DejaVuSans-74"/>
      <use xlink:href="#DejaVuSans-72" transform="translate(39.208984 0)"/>
      <use xlink:href="#DejaVuSans-61" transform="translate(80.322266 0)"/>
      <use xlink:href="#DejaVuSans-69" transform="translate(141.601562 0)"/>
      <use xlink:href="#DejaVuSans-6e" transform="translate(169.384766 0)"/>
      <use xlink:href="#DejaVuSans-5f" transform="translate(232.763672 0)"/>
      <use xlink:href="#DejaVuSans-6c" transform="translate(282.763672 0)"/>
      <use xlink:href="#DejaVuSans-6f" transform="translate(310.546875 0)"/>
      <use xlink:href="#DejaVuSans-73" transform="translate(371.728516 0)"/>
      <use xlink:href="#DejaVuSans-73" transform="translate(423.828125 0)"/>
     </g>
    </g>
    <g id="line2d_32">
     <path d="M 507.65 50.372813 
L 517.65 50.372813 
L 527.65 50.372813 
" style="fill: none; stroke: #ff7f0e; stroke-width: 1.5; stroke-linecap: square"/>
    </g>
    <g id="text_19">
     <!-- val_loss -->
     <g transform="translate(535.65 53.872813) scale(0.1 -0.1)">
      <defs>
       <path id="DejaVuSans-76" d="M 191 3500 
L 800 3500 
L 1894 563 
L 2988 3500 
L 3597 3500 
L 2284 0 
L 1503 0 
L 191 3500 
z
" transform="scale(0.015625)"/>
      </defs>
      <use xlink:href="#DejaVuSans-76"/>
      <use xlink:href="#DejaVuSans-61" transform="translate(59.179688 0)"/>
      <use xlink:href="#DejaVuSans-6c" transform="translate(120.458984 0)"/>
      <use xlink:href="#DejaVuSans-5f" transform="translate(148.242188 0)"/>
      <use xlink:href="#DejaVuSans-6c" transform="translate(198.242188 0)"/>
      <use xlink:href="#DejaVuSans-6f" transform="translate(226.025391 0)"/>
      <use xlink:href="#DejaVuSans-73" transform="translate(287.207031 0)"/>
      <use xlink:href="#DejaVuSans-73" transform="translate(339.306641 0)"/>
     </g>
    </g>
   </g>
  </g>
 </g>
 <defs>
  <clipPath id="p62ac102bc1">
   <rect x="34.240625" y="22.318125" width="558" height="554.4"/>
  </clipPath>
 </defs>
</svg>
