<?xml version="1.0" encoding="utf-8" standalone="no"?>
<!DOCTYPE svg PUBLIC "-//W3C//DTD SVG 1.1//EN"
  "http://www.w3.org/Graphics/SVG/1.1/DTD/svg11.dtd">
<svg xmlns:xlink="http://www.w3.org/1999/xlink" width="608.98125pt" height="614.274375pt" viewBox="0 0 608.98125 614.274375" xmlns="http://www.w3.org/2000/svg" version="1.1">
 <metadata>
  <rdf:RDF xmlns:dc="http://purl.org/dc/elements/1.1/" xmlns:cc="http://creativecommons.org/ns#" xmlns:rdf="http://www.w3.org/1999/02/22-rdf-syntax-ns#">
   <cc:Work>
    <dc:type rdf:resource="http://purl.org/dc/dcmitype/StillImage"/>
    <dc:date>2026-05-31T16:21:34.171048</dc:date>
    <dc:format>image/svg+xml</dc:format>
    <dc:creator>
     <cc:Agent>
      <dc:title>Matplotlib v3.10.9, https://matplotlib.org/</dc:title>
     </cc:Agent>
    </dc:creator>
   </cc:Work>
  </rdf:RDF>
 </metadata>
 <defs>
  <style type="text/css">*{stroke-linejoin: round; stroke-linecap: butt}</style>
 </defs>
 <g id="figure_1">
  <g id="patch_1">
   <path d="M 0 614.274375 
L 608.98125 614.274375 
L 608.98125 0 
L 0 0 
z
" style="fill: #ffffff"/>
  </g>
  <g id="axes_1">
   <g id="patch_2">
    <path d="M 43.78125 576.718125 
L 601.78125 576.718125 
L 601.78125 22.318125 
L 43.78125 22.318125 
z
" style="fill: #ffffff"/>
   </g>
   <g id="matplotlib.axis_1">
    <g id="xtick_1">
     <g id="line2d_1">
      <path d="M 69.144886 576.718125 
L 69.144886 22.318125 
" clip-path="url(#p5d1cd52560)" style="fill: none; stroke: #b0b0b0; stroke-width: 0.8; stroke-linecap: square"/>
     </g>
     <g id="line2d_2">
      <defs>
       <path id="m36da25df0b" d="M 0 0 
L 0 3.5 
" style="stroke: #000000; stroke-width: 0.8"/>
      </defs>
      <g>
       <use xlink:href="#m36da25df0b" x="69.144886" y="576.718125" style="stroke: #000000; stroke-width: 0.8"/>
      </g>
     </g>
     <g id="text_1">
      <!-- 0 -->
      <g transform="translate(65.963636 591.316563) scale(0.1 -0.1)">
       <defs>
        <path id="DejaVuSans-30" d="M 2034 4250 
Q 1547 4250 1301 3770 
Q 1056 3291 1056 2328 
Q 1056 1369 1301 889 
Q 1547 409 2034 409 
Q 2525 409 2770 889 
Q 3016 1369 3016 2328 
Q 3016 3291 2770 3770 
Q 2525 4250 2034 4250 
z
M 2034 4750 
Q 2819 4750 3233 4129 
Q 3647 3509 3647 2328 
Q 3647 1150 3233 529 
Q 2819 -91 2034 -91 
Q 1250 -91 836 529 
Q 422 1150 422 2328 
Q 422 3509 836 4129 
Q 1250 4750 2034 4750 
z
" transform="scale(0.015625)"/>
       </defs>
       <use xlink:href="#DejaVuSans-30"/>
      </g>
     </g>
    </g>
    <g id="xtick_2">
     <g id="line2d_3">
      <path d="M 132.633338 576.718125 
L 132.633338 22.318125 
" clip-path="url(#p5d1cd52560)" style="fill: none; stroke: #b0b0b0; stroke-width: 0.8; stroke-linecap: square"/>
     </g>
     <g id="line2d_4">
      <g>
       <use xlink:href="#m36da25df0b" x="132.633338" y="576.718125" style="stroke: #000000; stroke-width: 0.8"/>
      </g>
     </g>
     <g id="text_2">
      <!-- 100 -->
      <g transform="translate(123.089588 591.316563) scale(0.1 -0.1)">
       <defs>
        <path id="DejaVuSans-31" d="M 794 531 
L 1825 531 
L 1825 4091 
L 703 3866 
L 703 4441 
L 1819 4666 
L 2450 4666 
L 2450 531 
L 3481 531 
L 3481 0 
L 794 0 
L 794 531 
z
" transform="scale(0.015625)"/>
       </defs>
       <use xlink:href="#DejaVuSans-31"/>
       <use xlink:href="#DejaVuSans-30" transform="translate(63.623047 0)"/>
       <use xlink:href="#DejaVuSans-30" transform="translate(127.246094 0)"/>
      </g>
     </g>
    </g>
    <g id="xtick_3">
     <g id="line2d_5">
      <path d="M 196.121789 576.718125 
L 196.121789 22.318125 
" clip-path="url(#p5d1cd52560)" style="fill: none; stroke: #b0b0b0; stroke-width: 0.8; stroke-linecap: square"/>
     </g>
     <g id="line2d_6">
      <g>
       <use xlink:href="#m36da25df0b" x="196.121789" y="576.718125" style="stroke: #000000; stroke-width: 0.8"/>
      </g>
     </g>
     <g id="text_3">
      <!-- 200 -->
      <g transform="translate(186.578039 591.316563) scale(0.1 -0.1)">
       <defs>
        <path id="DejaVuSans-32" d="M 1228 531 
L 3431 531 
L 3431 0 
L 469 0 
L 469 531 
Q 828 903 1448 1529 
Q 2069 2156 2228 2338 
Q 2531 2678 2651 2914 
Q 2772 3150 2772 3378 
Q 2772 3750 2511 3984 
Q 2250 4219 1831 4219 
Q 1534 4219 1204 4116 
Q 875 4013 500 3803 
L 500 4441 
Q 881 4594 1212 4672 
Q 1544 4750 1819 4750 
Q 2544 4750 2975 4387 
Q 3406 4025 3406 3419 
Q 3406 3131 3298 2873 
Q 3191 2616 2906 2266 
Q 2828 2175 2409 1742 
Q 1991 1309 1228 531 
z
" transform="scale(0.015625)"/>
       </defs>
       <use xlink:href="#DejaVuSans-32"/>
       <use xlink:href="#DejaVuSans-30" transform="translate(63.623047 0)"/>
       <use xlink:href="#DejaVuSans-30" transform="translate(127.246094 0)"/>
      </g>
     </g>
    </g>
    <g id="xtick_4">
     <g id="line2d_7">
      <path d="M 259.610241 576.718125 
L 259.610241 22.318125 
" clip-path="url(#p5d1cd52560)" style="fill: none; stroke: #b0b0b0; stroke-width: 0.8; stroke-linecap: square"/>
     </g>
     <g id="line2d_8">
      <g>
       <use xlink:href="#m36da25df0b" x="259.610241" y="576.718125" style="stroke: #000000; stroke-width: 0.8"/>
      </g>
     </g>
     <g id="text_4">
      <!-- 300 -->
      <g transform="translate(250.066491 591.316563) scale(0.1 -0.1)">
       <defs>
        <path id="DejaVuSans-33" d="M 2597 2516 
Q 3050 2419 3304 2112 
Q 3559 1806 3559 1356 
Q 3559 666 3084 287 
Q 2609 -91 1734 -91 
Q 1441 -91 1130 -33 
Q 819 25 488 141 
L 488 750 
Q 750 597 1062 519 
Q 1375 441 1716 441 
Q 2309 441 2620 675 
Q 2931 909 2931 1356 
Q 2931 1769 2642 2001 
Q 2353 2234 1838 2234 
L 1294 2234 
L 1294 2753 
L 1863 2753 
Q 2328 2753 2575 2939 
Q 2822 3125 2822 3475 
Q 2822 3834 2567 4026 
Q 2313 4219 1838 4219 
Q 1578 4219 1281 4162 
Q 984 4106 628 3988 
L 628 4550 
Q 988 4650 1302 4700 
Q 1616 4750 1894 4750 
Q 2613 4750 3031 4423 
Q 3450 4097 3450 3541 
Q 3450 3153 3228 2886 
Q 3006 2619 2597 2516 
z
" transform="scale(0.015625)"/>
       </defs>
       <use xlink:href="#DejaVuSans-33"/>
       <use xlink:href="#DejaVuSans-30" transform="translate(63.623047 0)"/>
       <use xlink:href="#DejaVuSans-30" transform="translate(127.246094 0)"/>
      </g>
     </g>
    </g>
    <g id="xtick_5">
     <g id="line2d_9">
      <path d="M 323.098692 576.718125 
L 323.098692 22.318125 
" clip-path="url(#p5d1cd52560)" style="fill: none; stroke: #b0b0b0; stroke-width: 0.8; stroke-linecap: square"/>
     </g>
     <g id="line2d_10">
      <g>
       <use xlink:href="#m36da25df0b" x="323.098692" y="576.718125" style="stroke: #000000; stroke-width: 0.8"/>
      </g>
     </g>
     <g id="text_5">
      <!-- 400 -->
      <g transform="translate(313.554942 591.316563) scale(0.1 -0.1)">
       <defs>
        <path id="DejaVuSans-34" d="M 2419 4116 
L 825 1625 
L 2419 1625 
L 2419 4116 
z
M 2253 4666 
L 3047 4666 
L 3047 1625 
L 3713 1625 
L 3713 1100 
L 3047 1100 
L 3047 0 
L 2419 0 
L 2419 1100 
L 313 1100 
L 313 1709 
L 2253 4666 
z
" transform="scale(0.015625)"/>
       </defs>
       <use xlink:href="#DejaVuSans-34"/>
       <use xlink:href="#DejaVuSans-30" transform="translate(63.623047 0)"/>
       <use xlink:href="#DejaVuSans-30" transform="translate(127.246094 0)"/>
      </g>
     </g>
    </g>
    <g id="xtick_6">
     <g id="line2d_11">
      <path d="M 386.587144 576.718125 
L 386.587144 22.318125 
" clip-path="url(#p5d1cd52560)" style="fill: none; stroke: #b0b0b0; stroke-width: 0.8; stroke-linecap: square"/>
     </g>
     <g id="line2d_12">
      <g>
       <use xlink:href="#m36da25df0b" x="386.587144" y="576.718125" style="stroke: #000000; stroke-width: 0.8"/>
      </g>
     </g>
     <g id="text_6">
      <!-- 500 -->
      <g transform="translate(377.043394 591.316563) scale(0.1 -0.1)">
       <defs>
        <path id="DejaVuSans-35" d="M 691 4666 
L 3169 4666 
L 3169 4134 
L 1269 4134 
L 1269 2991 
Q 1406 3038 1543 3061 
Q 1681 3084 1819 3084 
Q 2600 3084 3056 2656 
Q 3513 2228 3513 1497 
Q 3513 744 3044 326 
Q 2575 -91 1722 -91 
Q 1428 -91 1123 -41 
Q 819 9 494 109 
L 494 744 
Q 775 591 1075 516 
Q 1375 441 1709 441 
Q 2250 441 2565 725 
Q 2881 1009 2881 1497 
Q 2881 1984 2565 2268 
Q 2250 2553 1709 2553 
Q 1456 2553 1204 2497 
Q 953 2441 691 2322 
L 691 4666 
z
" transform="scale(0.015625)"/>
       </defs>
       <use xlink:href="#DejaVuSans-35"/>
       <use xlink:href="#DejaVuSans-30" transform="translate(63.623047 0)"/>
       <use xlink:href="#DejaVuSans-30" transform="translate(127.246094 0)"/>
      </g>
     </g>
    </g>
    <g id="xtick_7">
     <g id="line2d_13">
      <path d="M 450.075595 576.718125 
L 450.075595 22.318125 
" clip-path="url(#p5d1cd52560)" style="fill: none; stroke: #b0b0b0; stroke-width: 0.8; stroke-linecap: square"/>
     </g>
     <g id="line2d_14">
      <g>
       <use xlink:href="#m36da25df0b" x="450.075595" y="576.718125" style="stroke: #000000; stroke-width: 0.8"/>
      </g>
     </g>
     <g id="text_7">
      <!-- 600 -->
      <g transform="translate(440.531845 591.316563) scale(0.1 -0.1)">
       <defs>
        <path id="DejaVuSans-36" d="M 2113 2584 
Q 1688 2584 1439 2293 
Q 1191 2003 1191 1497 
Q 1191 994 1439 701 
Q 1688 409 2113 409 
Q 2538 409 2786 701 
Q 3034 994 3034 1497 
Q 3034 2003 2786 2293 
Q 2538 2584 2113 2584 
z
M 3366 4563 
L 3366 3988 
Q 3128 4100 2886 4159 
Q 2644 4219 2406 4219 
Q 1781 4219 1451 3797 
Q 1122 3375 1075 2522 
Q 1259 2794 1537 2939 
Q 1816 3084 2150 3084 
Q 2853 3084 3261 2657 
Q 3669 2231 3669 1497 
Q 3669 778 3244 343 
Q 2819 -91 2113 -91 
Q 1303 -91 875 529 
Q 447 1150 447 2328 
Q 447 3434 972 4092 
Q 1497 4750 2381 4750 
Q 2619 4750 2861 4703 
Q 3103 4656 3366 4563 
z
" transform="scale(0.015625)"/>
       </defs>
       <use xlink:href="#DejaVuSans-36"/>
       <use xlink:href="#DejaVuSans-30" transform="translate(63.623047 0)"/>
       <use xlink:href="#DejaVuSans-30" transform="translate(127.246094 0)"/>
      </g>
     </g>
    </g>
    <g id="xtick_8">
     <g id="line2d_15">
      <path d="M 513.564047 576.718125 
L 513.564047 22.318125 
" clip-path="url(#p5d1cd52560)" style="fill: none; stroke: #b0b0b0; stroke-width: 0.8; stroke-linecap: square"/>
     </g>
     <g id="line2d_16">
      <g>
       <use xlink:href="#m36da25df0b" x="513.564047" y="576.718125" style="stroke: #000000; stroke-width: 0.8"/>
      </g>
     </g>
     <g id="text_8">
      <!-- 700 -->
      <g transform="translate(504.020297 591.316563) scale(0.1 -0.1)">
       <defs>
        <path id="DejaVuSans-37" d="M 525 4666 
L 3525 4666 
L 3525 4397 
L 1831 0 
L 1172 0 
L 2766 4134 
L 525 4134 
L 525 4666 
z
" transform="scale(0.015625)"/>
       </defs>
       <use xlink:href="#DejaVuSans-37"/>
       <use xlink:href="#DejaVuSans-30" transform="translate(63.623047 0)"/>
       <use xlink:href="#DejaVuSans-30" transform="translate(127.246094 0)"/>
      </g>
     </g>
    </g>
    <g id="xtick_9">
     <g id="line2d_17">
      <path d="M 577.052498 576.718125 
L 577.052498 22.318125 
" clip-path="url(#p5d1cd52560)" style="fill: none; stroke: #b0b0b0; stroke-width: 0.8; stroke-linecap: square"/>
     </g>
     <g id="line2d_18">
      <g>
       <use xlink:href="#m36da25df0b" x="577.052498" y="576.718125" style="stroke: #000000; stroke-width: 0.8"/>
      </g>
     </g>
     <g id="text_9">
      <!-- 800 -->
      <g transform="translate(567.508748 591.316563) scale(0.1 -0.1)">
       <defs>
        <path id="DejaVuSans-38" d="M 2034 2216 
Q 1584 2216 1326 1975 
Q 1069 1734 1069 1313 
Q 1069 891 1326 650 
Q 1584 409 2034 409 
Q 2484 409 2743 651 
Q 3003 894 3003 1313 
Q 3003 1734 2745 1975 
Q 2488 2216 2034 2216 
z
M 1403 2484 
Q 997 2584 770 2862 
Q 544 3141 544 3541 
Q 544 4100 942 4425 
Q 1341 4750 2034 4750 
Q 2731 4750 3128 4425 
Q 3525 4100 3525 3541 
Q 3525 3141 3298 2862 
Q 3072 2584 2669 2484 
Q 3125 2378 3379 2068 
Q 3634 1759 3634 1313 
Q 3634 634 3220 271 
Q 2806 -91 2034 -91 
Q 1263 -91 848 271 
Q 434 634 434 1313 
Q 434 1759 690 2068 
Q 947 2378 1403 2484 
z
M 1172 3481 
Q 1172 3119 1398 2916 
Q 1625 2713 2034 2713 
Q 2441 2713 2670 2916 
Q 2900 3119 2900 3481 
Q 2900 3844 2670 4047 
Q 2441 4250 2034 4250 
Q 1625 4250 1398 4047 
Q 1172 3844 1172 3481 
z
" transform="scale(0.015625)"/>
       </defs>
       <use xlink:href="#DejaVuSans-38"/>
       <use xlink:href="#DejaVuSans-30" transform="translate(63.623047 0)"/>
       <use xlink:href="#DejaVuSans-30" transform="translate(127.246094 0)"/>
      </g>
     </g>
    </g>
    <g id="text_10">
     <!-- Epochs -->
     <g transform="translate(304.865625 604.994688) scale(0.1 -0.1)">
      <defs>
       <path id="DejaVuSans-45" d="M 628 4666 
L 3578 4666 
L 3578 4134 
L 1259 4134 
L 1259 2753 
L 3481 2753 
L 3481 2222 
L 1259 2222 
L 1259 531 
L 3634 531 
L 3634 0 
L 628 0 
L 628 4666 
z
" transform="scale(0.015625)"/>
       <path id="DejaVuSans-70" d="M 1159 525 
L 1159 -1331 
L 581 -1331 
L 581 3500 
L 1159 3500 
L 1159 2969 
Q 1341 3281 1617 3432 
Q 1894 3584 2278 3584 
Q 2916 3584 3314 3078 
Q 3713 2572 3713 1747 
Q 3713 922 3314 415 
Q 2916 -91 2278 -91 
Q 1894 -91 1617 61 
Q 1341 213 1159 525 
z
M 3116 1747 
Q 3116 2381 2855 2742 
Q 2594 3103 2138 3103 
Q 1681 3103 1420 2742 
Q 1159 2381 1159 1747 
Q 1159 1113 1420 752 
Q 1681 391 2138 391 
Q 2594 391 2855 752 
Q 3116 1113 3116 1747 
z
" transform="scale(0.015625)"/>
       <path id="DejaVuSans-6f" d="M 1959 3097 
Q 1497 3097 1228 2736 
Q 959 2375 959 1747 
Q 959 1119 1226 758 
Q 1494 397 1959 397 
Q 2419 397 2687 759 
Q 2956 1122 2956 1747 
Q 2956 2369 2687 2733 
Q 2419 3097 1959 3097 
z
M 1959 3584 
Q 2709 3584 3137 3096 
Q 3566 2609 3566 1747 
Q 3566 888 3137 398 
Q 2709 -91 1959 -91 
Q 1206 -91 779 398 
Q 353 888 353 1747 
Q 353 2609 779 3096 
Q 1206 3584 1959 3584 
z
" transform="scale(0.015625)"/>
       <path id="DejaVuSans-63" d="M 3122 3366 
L 3122 2828 
Q 2878 2963 2633 3030 
Q 2388 3097 2138 3097 
Q 1578 3097 1268 2742 
Q 959 2388 959 1747 
Q 959 1106 1268 751 
Q 1578 397 2138 397 
Q 2388 397 2633 464 
Q 2878 531 3122 666 
L 3122 134 
Q 2881 22 2623 -34 
Q 2366 -91 2075 -91 
Q 1284 -91 818 406 
Q 353 903 353 1747 
Q 353 2603 823 3093 
Q 1294 3584 2113 3584 
Q 2378 3584 2631 3529 
Q 2884 3475 3122 3366 
z
" transform="scale(0.015625)"/>
       <path id="DejaVuSans-68" d="M 3513 2113 
L 3513 0 
L 2938 0 
L 2938 2094 
Q 2938 2591 2744 2837 
Q 2550 3084 2163 3084 
Q 1697 3084 1428 2787 
Q 1159 2491 1159 1978 
L 1159 0 
L 581 0 
L 581 4863 
L 1159 4863 
L 1159 2956 
Q 1366 3272 1645 3428 
Q 1925 3584 2291 3584 
Q 2894 3584 3203 3211 
Q 3513 2838 3513 2113 
z
" transform="scale(0.015625)"/>
       <path id="DejaVuSans-73" d="M 2834 3397 
L 2834 2853 
Q 2591 2978 2328 3040 
Q 2066 3103 1784 3103 
Q 1356 3103 1142 2972 
Q 928 2841 928 2578 
Q 928 2378 1081 2264 
Q 1234 2150 1697 2047 
L 1894 2003 
Q 2506 1872 2764 1633 
Q 3022 1394 3022 966 
Q 3022 478 2636 193 
Q 2250 -91 1575 -91 
Q 1294 -91 989 -36 
Q 684 19 347 128 
L 347 722 
Q 666 556 975 473 
Q 1284 391 1588 391 
Q 1994 391 2212 530 
Q 2431 669 2431 922 
Q 2431 1156 2273 1281 
Q 2116 1406 1581 1522 
L 1381 1569 
Q 847 1681 609 1914 
Q 372 2147 372 2553 
Q 372 3047 722 3315 
Q 1072 3584 1716 3584 
Q 2034 3584 2315 3537 
Q 2597 3491 2834 3397 
z
" transform="scale(0.015625)"/>
      </defs>
      <use xlink:href="#DejaVuSans-45"/>
      <use xlink:href="#DejaVuSans-70" transform="translate(63.183594 0)"/>
      <use xlink:href="#DejaVuSans-6f" transform="translate(126.660156 0)"/>
      <use xlink:href="#DejaVuSans-63" transform="translate(187.841797 0)"/>
      <use xlink:href="#DejaVuSans-68" transform="translate(242.822266 0)"/>
      <use xlink:href="#DejaVuSans-73" transform="translate(306.201172 0)"/>
     </g>
    </g>
   </g>
   <g id="matplotlib.axis_2">
    <g id="ytick_1">
     <g id="line2d_19">
      <path d="M 43.78125 554.636295 
L 601.78125 554.636295 
" clip-path="url(#p5d1cd52560)" style="fill: none; stroke: #b0b0b0; stroke-width: 0.8; stroke-linecap: square"/>
     </g>
     <g id="line2d_20">
      <defs>
       <path id="m4d5e406632" d="M 0 0 
L -3.5 0 
" style="stroke: #000000; stroke-width: 0.8"/>
      </defs>
      <g>
       <use xlink:href="#m4d5e406632" x="43.78125" y="554.636295" style="stroke: #000000; stroke-width: 0.8"/>
      </g>
     </g>
     <g id="text_11">
      <!-- 0.0 -->
      <g transform="translate(20.878125 558.435513) scale(0.1 -0.1)">
       <defs>
        <path id="DejaVuSans-2e" d="M 684 794 
L 1344 794 
L 1344 0 
L 684 0 
L 684 794 
z
" transform="scale(0.015625)"/>
       </defs>
       <use xlink:href="#DejaVuSans-30"/>
       <use xlink:href="#DejaVuSans-2e" transform="translate(63.623047 0)"/>
       <use xlink:href="#DejaVuSans-30" transform="translate(95.410156 0)"/>
      </g>
     </g>
    </g>
    <g id="ytick_2">
     <g id="line2d_21">
      <path d="M 43.78125 439.326478 
L 601.78125 439.326478 
" clip-path="url(#p5d1cd52560)" style="fill: none; stroke: #b0b0b0; stroke-width: 0.8; stroke-linecap: square"/>
     </g>
     <g id="line2d_22">
      <g>
       <use xlink:href="#m4d5e406632" x="43.78125" y="439.326478" style="stroke: #000000; stroke-width: 0.8"/>
      </g>
     </g>
     <g id="text_12">
      <!-- 0.2 -->
      <g transform="translate(20.878125 443.125696) scale(0.1 -0.1)">
       <use xlink:href="#DejaVuSans-30"/>
       <use xlink:href="#DejaVuSans-2e" transform="translate(63.623047 0)"/>
       <use xlink:href="#DejaVuSans-32" transform="translate(95.410156 0)"/>
      </g>
     </g>
    </g>
    <g id="ytick_3">
     <g id="line2d_23">
      <path d="M 43.78125 324.016661 
L 601.78125 324.016661 
" clip-path="url(#p5d1cd52560)" style="fill: none; stroke: #b0b0b0; stroke-width: 0.8; stroke-linecap: square"/>
     </g>
     <g id="line2d_24">
      <g>
       <use xlink:href="#m4d5e406632" x="43.78125" y="324.016661" style="stroke: #000000; stroke-width: 0.8"/>
      </g>
     </g>
     <g id="text_13">
      <!-- 0.4 -->
      <g transform="translate(20.878125 327.815879) scale(0.1 -0.1)">
       <use xlink:href="#DejaVuSans-30"/>
       <use xlink:href="#DejaVuSans-2e" transform="translate(63.623047 0)"/>
       <use xlink:href="#DejaVuSans-34" transform="translate(95.410156 0)"/>
      </g>
     </g>
    </g>
    <g id="ytick_4">
     <g id="line2d_25">
      <path d="M 43.78125 208.706844 
L 601.78125 208.706844 
" clip-path="url(#p5d1cd52560)" style="fill: none; stroke: #b0b0b0; stroke-width: 0.8; stroke-linecap: square"/>
     </g>
     <g id="line2d_26">
      <g>
       <use xlink:href="#m4d5e406632" x="43.78125" y="208.706844" style="stroke: #000000; stroke-width: 0.8"/>
      </g>
     </g>
     <g id="text_14">
      <!-- 0.6 -->
      <g transform="translate(20.878125 212.506062) scale(0.1 -0.1)">
       <use xlink:href="#DejaVuSans-30"/>
       <use xlink:href="#DejaVuSans-2e" transform="translate(63.623047 0)"/>
       <use xlink:href="#DejaVuSans-36" transform="translate(95.410156 0)"/>
      </g>
     </g>
    </g>
    <g id="ytick_5">
     <g id="line2d_27">
      <path d="M 43.78125 93.397027 
L 601.78125 93.397027 
" clip-path="url(#p5d1cd52560)" style="fill: none; stroke: #b0b0b0; stroke-width: 0.8; stroke-linecap: square"/>
     </g>
     <g id="line2d_28">
      <g>
       <use xlink:href="#m4d5e406632" x="43.78125" y="93.397027" style="stroke: #000000; stroke-width: 0.8"/>
      </g>
     </g>
     <g id="text_15">
      <!-- 0.8 -->
      <g transform="translate(20.878125 97.196245) scale(0.1 -0.1)">
       <use xlink:href="#DejaVuSans-30"/>
       <use xlink:href="#DejaVuSans-2e" transform="translate(63.623047 0)"/>
       <use xlink:href="#DejaVuSans-38" transform="translate(95.410156 0)"/>
      </g>
     </g>
    </g>
    <g id="text_16">
     <!-- Accuracy -->
     <g transform="translate(14.798438 322.34625) rotate(-90) scale(0.1 -0.1)">
      <defs>
       <path id="DejaVuSans-41" d="M 2188 4044 
L 1331 1722 
L 3047 1722 
L 2188 4044 
z
M 1831 4666 
L 2547 4666 
L 4325 0 
L 3669 0 
L 3244 1197 
L 1141 1197 
L 716 0 
L 50 0 
L 1831 4666 
z
" transform="scale(0.015625)"/>
       <path id="DejaVuSans-75" d="M 544 1381 
L 544 3500 
L 1119 3500 
L 1119 1403 
Q 1119 906 1312 657 
Q 1506 409 1894 409 
Q 2359 409 2629 706 
Q 2900 1003 2900 1516 
L 2900 3500 
L 3475 3500 
L 3475 0 
L 2900 0 
L 2900 538 
Q 2691 219 2414 64 
Q 2138 -91 1772 -91 
Q 1169 -91 856 284 
Q 544 659 544 1381 
z
M 1991 3584 
L 1991 3584 
z
" transform="scale(0.015625)"/>
       <path id="DejaVuSans-72" d="M 2631 2963 
Q 2534 3019 2420 3045 
Q 2306 3072 2169 3072 
Q 1681 3072 1420 2755 
Q 1159 2438 1159 1844 
L 1159 0 
L 581 0 
L 581 3500 
L 1159 3500 
L 1159 2956 
Q 1341 3275 1631 3429 
Q 1922 3584 2338 3584 
Q 2397 3584 2469 3576 
Q 2541 3569 2628 3553 
L 2631 2963 
z
" transform="scale(0.015625)"/>
       <path id="DejaVuSans-61" d="M 2194 1759 
Q 1497 1759 1228 1600 
Q 959 1441 959 1056 
Q 959 750 1161 570 
Q 1363 391 1709 391 
Q 2188 391 2477 730 
Q 2766 1069 2766 1631 
L 2766 1759 
L 2194 1759 
z
M 3341 1997 
L 3341 0 
L 2766 0 
L 2766 531 
Q 2569 213 2275 61 
Q 1981 -91 1556 -91 
Q 1019 -91 701 211 
Q 384 513 384 1019 
Q 384 1609 779 1909 
Q 1175 2209 1959 2209 
L 2766 2209 
L 2766 2266 
Q 2766 2663 2505 2880 
Q 2244 3097 1772 3097 
Q 1472 3097 1187 3025 
Q 903 2953 641 2809 
L 641 3341 
Q 956 3463 1253 3523 
Q 1550 3584 1831 3584 
Q 2591 3584 2966 3190 
Q 3341 2797 3341 1997 
z
" transform="scale(0.015625)"/>
       <path id="DejaVuSans-79" d="M 2059 -325 
Q 1816 -950 1584 -1140 
Q 1353 -1331 966 -1331 
L 506 -1331 
L 506 -850 
L 844 -850 
Q 1081 -850 1212 -737 
Q 1344 -625 1503 -206 
L 1606 56 
L 191 3500 
L 800 3500 
L 1894 763 
L 2988 3500 
L 3597 3500 
L 2059 -325 
z
" transform="scale(0.015625)"/>
      </defs>
      <use xlink:href="#DejaVuSans-41"/>
      <use xlink:href="#DejaVuSans-63" transform="translate(66.658203 0)"/>
      <use xlink:href="#DejaVuSans-63" transform="translate(121.638672 0)"/>
      <use xlink:href="#DejaVuSans-75" transform="translate(176.619141 0)"/>
      <use xlink:href="#DejaVuSans-72" transform="translate(239.998047 0)"/>
      <use xlink:href="#DejaVuSans-61" transform="translate(281.111328 0)"/>
      <use xlink:href="#DejaVuSans-63" transform="translate(342.390625 0)"/>
      <use xlink:href="#DejaVuSans-79" transform="translate(397.371094 0)"/>
     </g>
    </g>
   </g>
   <g id="line2d_29">
    <path d="M 69.144886 551.518125 
L 69.779771 548.699441 
L 70.414655 542.781805 
L 71.04954 533.271948 
L 71.684424 520.940204 
L 72.319309 501.475267 
L 73.589078 452.985886 
L 74.223962 435.399535 
L 74.858847 423.181505 
L 76.128616 407.055736 
L 77.398385 394.679163 
L 78.03327 390.371046 
L 78.668154 387.414642 
L 79.303039 382.425891 
L 79.937923 379.089908 
L 80.572808 377.171276 
L 81.207692 373.904178 
L 83.112346 366.322554 
L 84.382115 362.379599 
L 85.016999 359.897226 
L 85.651884 359.211782 
L 86.286768 357.224282 
L 86.921653 355.885404 
L 88.191422 352.418112 
L 89.461191 349.078934 
L 90.096075 348.260548 
L 90.73096 346.22181 
L 92.000729 344.311185 
L 92.635613 342.519084 
L 93.270498 341.716713 
L 93.905382 339.790091 
L 94.540267 338.843575 
L 95.175151 337.259675 
L 95.810036 336.316373 
L 96.44492 334.71005 
L 97.079805 333.691471 
L 97.71469 331.979441 
L 98.349574 331.718387 
L 98.984459 329.666848 
L 99.619343 328.93654 
L 100.254228 327.379857 
L 100.889112 326.663982 
L 101.523997 325.458028 
L 102.158881 323.90296 
L 102.793766 322.706612 
L 103.42865 322.352669 
L 104.063535 320.55416 
L 104.698419 319.93437 
L 105.333304 318.965448 
L 105.968188 317.716263 
L 107.237957 315.88411 
L 107.872842 314.490781 
L 109.142611 313.424177 
L 109.777495 311.755379 
L 110.41238 311.382226 
L 111.047264 309.888001 
L 111.682149 309.495639 
L 112.317033 308.206402 
L 112.951918 308.006208 
L 113.586802 306.880342 
L 114.221687 306.278164 
L 114.856571 304.995353 
L 115.491456 302.927782 
L 116.12634 303.531558 
L 116.761225 302.215104 
L 117.396109 302.024515 
L 118.030994 300.682442 
L 118.665879 299.832028 
L 119.300763 299.476488 
L 119.935648 298.22409 
L 120.570532 297.343263 
L 121.205417 297.271183 
L 121.840301 295.917906 
L 122.475186 295.163577 
L 123.11007 294.729564 
L 123.744955 293.882364 
L 124.379839 292.743679 
L 125.014724 292.866998 
L 125.649608 292.042204 
L 126.284493 290.270928 
L 126.919377 290.448698 
L 127.554262 289.787258 
L 128.189146 288.451593 
L 128.824031 287.634806 
L 129.458915 288.062427 
L 130.0938 287.013418 
L 130.728684 286.425656 
L 131.363569 284.939439 
L 131.998453 284.806515 
L 133.903107 282.713325 
L 134.537991 281.633903 
L 135.172876 281.507371 
L 135.80776 279.739292 
L 136.442645 279.973111 
L 138.982183 276.257584 
L 140.886837 274.953931 
L 141.521721 274.758549 
L 142.156606 273.919355 
L 142.79149 273.680725 
L 143.426375 272.075999 
L 144.061259 271.613154 
L 144.696144 271.742882 
L 145.331028 270.452047 
L 146.600797 268.304406 
L 147.235682 267.915239 
L 147.870566 266.629215 
L 148.505451 266.68846 
L 149.140335 265.104543 
L 149.77522 264.417483 
L 152.314758 260.831701 
L 152.949642 260.375265 
L 153.584527 259.076406 
L 154.219411 257.468467 
L 154.854296 256.600442 
L 155.48918 256.079949 
L 156.124065 255.170308 
L 156.758949 254.010798 
L 157.393834 253.418242 
L 158.028718 252.393237 
L 159.298487 250.963103 
L 159.933372 249.279871 
L 160.568256 248.56879 
L 161.203141 247.335637 
L 162.47291 245.844608 
L 163.107795 244.598636 
L 164.377564 243.483973 
L 166.282217 240.130361 
L 166.917102 239.00611 
L 168.186871 237.800139 
L 169.45664 235.908758 
L 170.091524 234.116657 
L 170.726409 234.179098 
L 171.361293 232.936322 
L 172.631062 231.241921 
L 173.900831 228.911699 
L 174.535716 229.046204 
L 175.1706 228.197423 
L 175.805485 226.977053 
L 176.440369 226.229133 
L 177.075254 224.821405 
L 177.710138 224.219227 
L 178.345023 223.200648 
L 178.979907 222.611288 
L 179.614792 222.665722 
L 180.249676 220.39478 
L 180.884561 220.522893 
L 181.519445 219.107158 
L 182.15433 218.634707 
L 182.789215 217.234952 
L 183.424099 217.292617 
L 184.058984 216.189156 
L 184.693868 215.41883 
L 185.328753 215.0825 
L 185.963637 214.211279 
L 186.598522 213.006923 
L 187.868291 211.174787 
L 188.503175 210.75519 
L 189.13806 209.419526 
L 189.772944 209.188902 
L 190.407829 208.024581 
L 191.042713 207.396802 
L 191.677598 206.166809 
L 192.312482 205.601471 
L 192.947367 204.523647 
L 193.582251 203.937517 
L 194.217136 202.579412 
L 194.85202 202.745979 
L 195.486905 202.712336 
L 196.121789 200.957075 
L 196.756674 200.391736 
L 197.391558 199.235422 
L 198.026443 198.950365 
L 199.296212 196.684199 
L 199.931096 196.621723 
L 200.565981 195.24922 
L 201.200865 194.65986 
L 201.83575 194.254696 
L 203.105519 192.565072 
L 203.740403 191.131708 
L 204.375288 190.84665 
L 205.010173 189.826456 
L 205.645057 190.19643 
L 206.914826 188.388281 
L 207.549711 187.084645 
L 208.184595 186.966154 
L 208.81948 186.199024 
L 209.454364 186.019639 
L 210.724133 183.880005 
L 211.359018 183.25061 
L 211.993902 182.939916 
L 213.263671 181.2439 
L 213.898556 180.873926 
L 214.53344 179.882599 
L 215.168325 179.778507 
L 215.803209 178.8256 
L 217.072978 177.770182 
L 217.707863 177.115151 
L 218.342747 175.841928 
L 218.977632 176.04853 
L 219.612516 174.656816 
L 220.247401 173.9057 
L 220.882285 173.859273 
L 221.51717 172.368244 
L 222.152054 173.301941 
L 222.786939 171.903801 
L 223.421823 171.171895 
L 224.056708 170.137303 
L 224.691592 169.354159 
L 225.326477 169.035458 
L 225.961362 168.45572 
L 226.596246 167.096 
L 227.231131 167.134454 
L 227.866015 166.461828 
L 228.5009 166.035805 
L 229.135784 165.012415 
L 230.405553 164.206865 
L 231.675322 162.275415 
L 232.310207 162.233799 
L 232.945091 161.095114 
L 233.579976 160.80363 
L 234.849745 158.828948 
L 235.484629 158.636745 
L 236.119514 158.188316 
L 236.754398 157.118499 
L 237.389283 157.185786 
L 238.024167 156.461887 
L 238.659052 156.047101 
L 239.293936 155.127803 
L 239.928821 154.753053 
L 240.563705 154.070804 
L 241.19859 153.997126 
L 241.833474 152.605412 
L 242.468359 152.450082 
L 243.103243 151.49556 
L 243.738128 151.040739 
L 245.007897 150.643548 
L 245.642781 149.450395 
L 246.277666 149.548095 
L 246.91255 148.989183 
L 248.18232 147.368426 
L 248.817204 147.092956 
L 249.452089 146.210532 
L 250.086973 145.992726 
L 250.721858 145.33608 
L 251.356742 145.075043 
L 252.626511 143.614462 
L 253.89628 143.100361 
L 255.166049 141.606137 
L 256.435818 141.474828 
L 257.070703 140.915881 
L 258.340472 139.391243 
L 258.975356 139.245501 
L 259.610241 138.233315 
L 260.245125 138.298986 
L 261.514894 137.317247 
L 262.149779 136.415612 
L 262.784663 136.072856 
L 264.054432 135.598825 
L 264.689317 134.647498 
L 265.324201 134.929394 
L 265.959086 133.694591 
L 266.59397 133.686584 
L 267.228855 132.738488 
L 267.863739 132.607179 
L 269.133509 131.782385 
L 269.768393 131.282718 
L 270.403278 130.592462 
L 271.038162 130.243314 
L 272.942816 130.052725 
L 273.5777 128.954076 
L 274.212585 128.941293 
L 274.847469 128.009176 
L 276.117238 127.490299 
L 276.752123 126.892932 
L 277.387007 126.522959 
L 278.656776 126.503749 
L 279.291661 125.200112 
L 280.56143 124.416968 
L 281.196314 124.694019 
L 281.831199 124.042218 
L 282.466083 123.653034 
L 283.735852 122.301355 
L 284.370737 122.591224 
L 285.005621 121.843304 
L 285.640506 121.843304 
L 286.27539 121.359651 
L 286.910275 121.076174 
L 287.545159 120.621353 
L 288.180044 119.838209 
L 288.814928 119.851027 
L 289.449813 118.907708 
L 290.084697 118.40646 
L 290.719582 118.842071 
L 291.354467 117.809059 
L 291.989351 117.572044 
L 292.624236 117.210111 
L 293.25912 117.12523 
L 293.894005 116.483017 
L 294.528889 117.176468 
L 295.163774 116.726458 
L 295.798658 115.233814 
L 296.433543 116.015378 
L 297.068427 115.142541 
L 297.703312 115.102506 
L 298.338196 114.788616 
L 298.973081 113.973409 
L 300.24285 113.821275 
L 300.877734 113.182258 
L 301.512619 112.861976 
L 302.147503 112.672969 
L 302.782388 112.799501 
L 303.417272 112.274197 
L 304.687041 111.61597 
L 305.321926 111.36294 
L 305.95681 110.812001 
L 306.591695 110.836022 
L 307.226579 110.222641 
L 307.861464 110.0625 
L 308.496348 109.623693 
L 309.766117 109.231314 
L 310.401002 108.74443 
L 311.035886 108.56989 
L 311.670771 108.512226 
L 312.305656 108.086203 
L 312.94054 107.959705 
L 313.575425 107.426395 
L 314.210309 107.157317 
L 314.845194 107.026008 
L 315.480078 107.272646 
L 316.114963 106.436648 
L 316.749847 106.276507 
L 317.384732 105.944988 
L 318.019616 106.276507 
L 318.654501 104.6141 
L 319.289385 105.451713 
L 319.92427 104.868745 
L 320.559154 104.695786 
L 321.194039 104.12244 
L 321.828923 103.965495 
L 323.098692 103.107058 
L 323.733577 103.113484 
L 324.368461 102.559348 
L 325.003346 102.700279 
L 325.63823 102.434431 
L 326.273115 102.331921 
L 326.907999 101.745791 
L 327.542884 101.798644 
L 328.177768 101.07155 
L 328.812653 101.487916 
L 329.447537 100.671163 
L 330.082422 100.911374 
L 331.352191 100.033761 
L 331.987075 100.309196 
L 332.62196 99.93125 
L 333.256844 99.112882 
L 333.891729 99.633374 
L 334.526614 98.829405 
L 336.431267 98.363347 
L 337.066152 98.661257 
L 337.701036 98.033443 
L 338.335921 97.617042 
L 338.970805 97.713127 
L 339.60569 97.291949 
L 340.875459 97.109368 
L 341.510343 96.84352 
L 342.145228 96.829087 
L 343.414997 96.07639 
L 344.049881 95.498233 
L 344.684766 95.752878 
L 345.31965 95.677584 
L 345.954535 95.885802 
L 346.589419 95.144274 
L 347.224304 95.357303 
L 347.859188 94.726292 
L 348.494073 95.069015 
L 349.128957 94.305081 
L 349.763842 94.308311 
L 350.398726 94.157758 
L 351.033611 93.308942 
L 351.668495 93.37781 
L 352.30338 92.940584 
L 352.938264 93.011066 
L 353.573149 92.890961 
L 354.208033 92.620302 
L 354.842918 92.939003 
L 355.477803 92.549819 
L 356.112687 92.884534 
L 356.747572 92.077369 
L 357.382456 92.299986 
L 358.017341 91.841935 
L 359.28711 91.257386 
L 359.921994 91.579283 
L 360.556879 90.589536 
L 361.191763 91.202952 
L 361.826648 90.97872 
L 362.461532 91.013944 
L 363.096417 90.168359 
L 363.731301 90.387745 
L 364.366186 90.448606 
L 365.00107 89.891274 
L 365.635955 89.516524 
L 366.270839 89.454082 
L 366.905724 89.244284 
L 367.540608 88.371447 
L 368.175493 89.144969 
L 368.810377 89.03287 
L 369.445262 88.614889 
L 370.080146 87.919822 
L 370.715031 88.525196 
L 371.349915 87.192728 
L 371.9848 88.011096 
L 372.619684 87.955046 
L 373.254569 87.583492 
L 373.889453 87.482596 
L 374.524338 87.706794 
L 375.159222 87.072588 
L 375.794107 87.171902 
L 377.063876 86.230198 
L 377.698761 86.419171 
L 378.333645 86.307073 
L 378.96853 85.967547 
L 379.603414 86.06205 
L 380.238299 85.573586 
L 381.508068 85.682489 
L 382.777837 85.171584 
L 383.412721 85.168388 
L 384.047606 84.771198 
L 384.68249 84.948968 
L 385.317375 84.180257 
L 385.952259 84.571022 
L 386.587144 83.895165 
L 387.222028 84.598239 
L 387.856913 84.177061 
L 388.491797 84.015305 
L 389.126682 84.353216 
L 389.761566 83.978466 
L 390.396451 84.079361 
L 391.031335 83.967263 
L 391.66622 83.42433 
L 392.301104 83.336253 
L 392.935989 82.988719 
L 393.570873 82.919852 
L 394.205758 83.762241 
L 394.840642 82.623557 
L 395.475527 83.365085 
L 396.110411 82.806138 
L 396.745296 82.884628 
L 398.015065 82.778921 
L 398.64995 81.528138 
L 399.284834 82.352898 
L 401.189488 81.86763 
L 402.459257 81.717111 
L 403.094141 81.334354 
L 403.729026 81.433634 
L 404.36391 81.782783 
L 404.998795 81.119744 
L 405.633679 81.939728 
L 406.268564 81.230228 
L 406.903448 81.440026 
L 407.538333 80.751386 
L 408.173217 80.447084 
L 408.808102 80.656882 
L 410.077871 80.471105 
L 410.712755 80.253299 
L 411.34764 80.1556 
L 411.982524 80.210068 
L 412.617409 79.808101 
L 413.252293 80.029102 
L 413.887178 79.353246 
L 414.522062 79.54703 
L 415.156947 79.346854 
L 415.791831 79.56624 
L 416.426716 79.329224 
L 417.0616 79.242762 
L 417.696485 80.200446 
L 418.331369 79.577477 
L 418.966254 79.172279 
L 419.601138 79.385274 
L 420.236023 78.8776 
L 420.870908 78.928838 
L 421.505792 78.172911 
L 422.140677 78.421164 
L 422.775561 78.208169 
L 423.410446 79.255546 
L 424.04533 78.706221 
L 425.949984 77.939091 
L 426.584868 77.932699 
L 427.219753 78.256212 
L 427.854637 77.987134 
L 428.489522 77.476263 
L 429.124406 77.935895 
L 429.759291 77.775754 
L 430.394175 77.823797 
L 431.663944 77.240829 
L 432.298829 77.197598 
L 432.933713 77.277668 
L 433.568598 77.719705 
L 434.203482 77.079073 
L 435.473251 76.523356 
L 436.74302 76.24469 
L 437.377905 76.113382 
L 438.012789 76.85326 
L 438.647674 76.022074 
L 439.282558 75.91159 
L 439.917443 76.462496 
L 440.552327 75.998053 
L 441.822097 75.975647 
L 442.456981 75.254944 
L 443.091866 75.520792 
L 443.72675 75.009922 
L 444.361635 75.314189 
L 446.266288 75.400686 
L 446.901173 75.857122 
L 447.536057 75.08037 
L 448.170942 75.06116 
L 448.805826 75.242126 
L 449.440711 75.274154 
L 450.075595 75.799457 
L 450.71048 75.905164 
L 451.345364 74.828955 
L 451.980249 75.032328 
L 452.615133 74.627164 
L 453.250018 74.534276 
L 453.884902 74.305233 
L 454.519787 75.02432 
L 455.154671 75.347833 
L 455.789556 75.086796 
L 456.42444 75.054768 
L 457.059325 74.806515 
L 457.694209 74.800123 
L 458.329094 74.108253 
L 458.963978 74.572696 
L 459.598863 74.515031 
L 460.233747 74.327673 
L 460.868632 74.896208 
L 461.503516 74.876998 
L 462.138401 73.922475 
L 462.773285 75.115628 
L 464.043055 74.223582 
L 464.677939 73.965707 
L 465.312824 74.253995 
L 465.947708 73.730306 
L 466.582593 74.351694 
L 467.217477 74.005776 
L 467.852362 74.153099 
L 468.487246 73.752712 
L 469.122131 74.145092 
L 469.757015 74.69122 
L 470.3919 74.143477 
L 471.026784 73.815188 
L 471.661669 74.036189 
L 472.931438 73.78474 
L 473.566322 73.847216 
L 474.201207 73.31229 
L 474.836091 73.54934 
L 475.470976 72.870288 
L 476.10586 73.776733 
L 476.740745 73.866426 
L 478.010514 73.491676 
L 478.645398 73.773537 
L 479.280283 73.592571 
L 481.184936 73.658243 
L 481.819821 73.416382 
L 482.454705 72.85905 
L 483.08959 73.464459 
L 484.359359 73.222598 
L 484.994244 72.724546 
L 485.629128 73.432396 
L 486.264013 72.85905 
L 486.898897 73.377962 
L 488.168666 73.110499 
L 488.803551 73.046443 
L 489.438435 72.758155 
L 490.07332 72.924722 
L 490.708204 72.437873 
L 491.343089 72.809427 
L 492.612858 73.112114 
L 493.247742 72.383404 
L 493.882627 71.981437 
L 495.152396 72.807812 
L 495.78728 71.963808 
L 496.422165 72.417048 
L 497.057049 72.370586 
L 497.691934 72.66207 
L 498.326818 72.296942 
L 499.596587 71.925388 
L 500.231472 71.981437 
L 500.866356 71.457749 
L 501.501241 72.107934 
L 502.77101 72.213641 
L 503.405894 71.707582 
L 504.675663 72.351376 
L 505.310548 71.768443 
L 505.945433 71.721981 
L 506.580317 71.425686 
L 507.215202 71.851709 
L 507.850086 71.755624 
L 508.484971 71.526582 
L 509.119855 71.784457 
L 509.75474 71.321594 
L 510.389624 71.577854 
L 511.659393 71.752428 
L 512.294278 71.67875 
L 512.929162 71.273552 
L 513.564047 71.946213 
L 514.198931 71.528197 
L 516.103585 71.073376 
L 516.738469 71.635519 
L 517.373354 71.757205 
L 518.008238 71.515379 
L 518.643123 71.533008 
L 519.278007 70.65536 
L 519.912892 70.849144 
L 520.547776 70.730654 
L 521.182661 70.85234 
L 521.817545 71.549022 
L 522.45243 71.185475 
L 523.087314 71.236713 
L 523.722199 70.980487 
L 524.357083 71.502561 
L 525.626852 70.264596 
L 526.261737 70.828319 
L 527.531506 70.490408 
L 528.166391 70.884403 
L 528.801275 70.274218 
L 529.43616 71.196678 
L 530.071044 71.082964 
L 530.705929 70.496834 
L 531.340813 70.245386 
L 531.975698 70.801102 
L 532.610582 70.349477 
L 533.245467 70.684192 
L 533.880351 70.367106 
L 534.515236 70.684192 
L 535.15012 70.256589 
L 535.785005 70.339855 
L 536.419889 69.856202 
L 537.054774 70.431163 
L 537.689658 70.487212 
L 538.324543 69.822559 
L 538.959427 69.459046 
L 540.229196 70.086826 
L 540.864081 69.579151 
L 542.13385 69.359731 
L 542.768734 69.859398 
L 543.403619 68.988176 
L 544.038503 69.547123 
L 544.673388 69.244436 
L 545.308272 69.303681 
L 545.943157 68.872882 
L 546.578041 69.45743 
L 547.212926 68.823224 
L 547.84781 68.735147 
L 548.482695 68.347578 
L 549.11758 69.209178 
L 549.752464 68.892092 
L 550.387349 69.80816 
L 551.022233 68.983365 
L 551.657118 69.053848 
L 552.292002 68.307543 
L 552.926887 69.034638 
L 553.561771 68.751161 
L 554.196656 68.981784 
L 554.83154 68.706315 
L 555.466425 68.153794 
L 556.101309 68.978554 
L 556.736194 68.498097 
L 557.371078 68.701503 
L 558.005963 68.472495 
L 558.640847 68.741539 
L 559.275732 67.919975 
L 559.910616 68.329949 
L 560.545501 68.166612 
L 561.180385 68.256271 
L 561.81527 69.122715 
L 562.450154 68.712706 
L 563.085039 68.169808 
L 563.719923 67.995234 
L 564.354808 68.757553 
L 564.989692 67.700554 
L 565.624577 68.262697 
L 566.894346 67.99843 
L 567.52923 68.658272 
L 568.164115 67.234496 
L 568.798999 67.854303 
L 569.433884 67.56763 
L 570.068768 68.523733 
L 571.338538 68.299536 
L 571.973422 67.697358 
L 573.243191 67.831863 
L 573.878076 68.23706 
L 574.51296 68.112144 
L 575.147845 67.469931 
L 575.782729 67.852688 
L 576.417614 67.795058 
L 576.417614 67.795058 
" clip-path="url(#p5d1cd52560)" style="fill: none; stroke: #1f77b4; stroke-width: 1.5; stroke-linecap: square"/>
   </g>
   <g id="line2d_30">
    <path d="M 69.144886 551.018449 
L 69.779771 546.463711 
L 70.414655 538.954159 
L 71.04954 529.152825 
L 71.684424 514.234619 
L 72.954193 464.968499 
L 74.223962 424.955994 
L 74.858847 419.867946 
L 75.493732 408.798196 
L 76.128616 403.998436 
L 76.763501 401.389548 
L 77.398385 393.966484 
L 78.03327 393.735861 
L 78.668154 386.13982 
L 79.303039 385.174112 
L 79.937923 383.530932 
L 80.572808 380.662606 
L 81.207692 370.385614 
L 81.842577 374.9836 
L 82.477461 365.384063 
L 83.112346 364.879584 
L 83.74723 361.002284 
L 84.382115 361.146428 
L 85.016999 358.364564 
L 85.651884 357.802438 
L 86.286768 357.009689 
L 86.921653 352.454952 
L 87.556537 357.38444 
L 88.191422 353.002661 
L 88.826306 354.501697 
L 89.461191 350.105502 
L 90.096075 353.002661 
L 90.73096 349.442481 
L 91.365844 351.907225 
L 92.000729 345.204847 
L 92.635613 351.763081 
L 93.270498 344.613872 
L 93.905382 343.950851 
L 94.540267 344.296769 
L 95.175151 336.268331 
L 95.810036 336.888121 
L 96.44492 329.565952 
L 97.079805 333.227028 
L 97.71469 334.711648 
L 98.349574 338.617763 
L 98.984459 331.48297 
L 99.619343 331.886552 
L 100.254228 324.160801 
L 100.889112 328.355187 
L 101.523997 334.351296 
L 102.158881 321.811352 
L 102.793766 319.721375 
L 103.42865 320.61502 
L 104.063535 324.391425 
L 104.698419 318.611506 
L 105.333304 319.159233 
L 105.968188 319.015106 
L 106.603073 323.238324 
L 107.237957 324.867071 
L 107.872842 312.615397 
L 108.507726 318.914193 
L 109.142611 314.244161 
L 109.777495 313.63877 
L 110.41238 326.092235 
L 111.047264 307.570597 
L 111.682149 318.04938 
L 112.317033 312.615397 
L 112.951918 308.348948 
L 113.586802 307.26791 
L 114.221687 303.678898 
L 114.856571 308.406595 
L 115.491456 302.727589 
L 116.12634 298.129603 
L 116.761225 310.251549 
L 117.396109 302.742005 
L 118.030994 292.681221 
L 118.665879 305.711227 
L 119.300763 310.813692 
L 119.935648 304.457231 
L 120.570532 295.001821 
L 121.205417 304.860814 
L 121.840301 297.480981 
L 122.475186 301.142074 
L 123.11007 297.452166 
L 123.744955 300.608763 
L 124.379839 305.379708 
L 125.014724 290.937163 
L 125.649608 294.108176 
L 126.284493 300.839387 
L 126.919377 293.517218 
L 127.554262 296.904439 
L 128.189146 296.227002 
L 128.824031 305.336477 
L 129.458915 285.647323 
L 130.0938 286.03649 
L 130.728684 290.245292 
L 131.363569 292.565909 
L 131.998453 300.248429 
L 132.633338 289.452543 
L 133.268222 289.308399 
L 133.903107 290.648875 
L 134.537991 282.533957 
L 135.172876 291.600184 
L 135.80776 289.639918 
L 136.442645 281.842086 
L 137.077529 298.014291 
L 137.712414 277.099974 
L 138.347298 290.692123 
L 138.982183 277.806243 
L 139.617067 286.223865 
L 140.251952 273.986607 
L 141.521721 279.50707 
L 142.156606 273.424482 
L 142.79149 279.377342 
L 143.426375 277.935971 
L 144.061259 288.587713 
L 144.696144 267.846372 
L 145.331028 273.30917 
L 145.965913 264.732988 
L 146.600797 274.721709 
L 147.235682 272.747027 
L 147.870566 274.145168 
L 148.505451 274.692894 
L 149.140335 264.069984 
L 149.77522 279.377342 
L 150.410104 276.768454 
L 151.044989 271.031801 
L 151.679873 271.161529 
L 152.314758 260.106187 
L 152.949642 258.967503 
L 153.584527 263.104259 
L 154.219411 252.077732 
L 154.854296 261.648454 
L 155.48918 255.55145 
L 156.124065 269.763389 
L 156.758949 252.077732 
L 157.393834 262.023205 
L 158.028718 252.077732 
L 158.663603 256.589239 
L 159.298487 302.064551 
L 159.933372 242.997089 
L 160.568256 248.416657 
L 161.203141 247.422099 
L 161.838026 243.155649 
L 162.47291 245.000603 
L 163.107795 249.800363 
L 163.742679 241.800775 
L 164.377564 240.417034 
L 165.647333 268.019331 
L 166.917102 243.991647 
L 167.551986 236.164983 
L 168.186871 253.735328 
L 168.821755 231.754407 
L 170.091524 249.079695 
L 170.726409 250.838152 
L 171.361293 234.175902 
L 171.996178 244.092543 
L 172.631062 232.403012 
L 173.265947 240.388201 
L 173.900831 236.683895 
L 174.535716 239.638701 
L 175.1706 236.482103 
L 175.805485 234.175902 
L 176.440369 238.110833 
L 177.075254 225.84476 
L 177.710138 229.231981 
L 178.345023 245.101499 
L 178.979907 226.176279 
L 179.614792 236.424439 
L 180.249676 239.883723 
L 180.884561 221.679206 
L 181.519445 241.2098 
L 182.15433 224.994364 
L 182.789215 229.015791 
L 183.424099 210.739176 
L 184.058984 263.060993 
L 184.693868 219.055885 
L 185.328753 218.825296 
L 185.963637 241.815174 
L 186.598522 213.189504 
L 187.233406 217.383924 
L 187.868291 210.984199 
L 189.13806 210.148201 
L 189.772944 218.810862 
L 190.407829 200.591912 
L 191.042713 218.104593 
L 191.677598 199.727083 
L 192.312482 201.860325 
L 192.947367 243.977248 
L 193.582251 214.284957 
L 194.217136 215.279515 
L 194.85202 219.574797 
L 195.486905 216.043414 
L 196.121789 201.58647 
L 196.756674 237.130708 
L 197.391558 211.301319 
L 198.026443 225.037595 
L 198.661327 198.631664 
L 199.296212 196.426358 
L 199.931096 192.131042 
L 200.565981 201.730597 
L 201.200865 203.215199 
L 201.83575 218.882926 
L 202.470634 210.076138 
L 203.105519 203.460256 
L 203.740403 218.378448 
L 204.375288 202.436866 
L 205.010173 193.183264 
L 205.645057 194.278718 
L 206.279942 196.080406 
L 206.914826 195.114715 
L 207.549711 197.738002 
L 208.184595 195.302073 
L 208.81948 187.432178 
L 209.454364 181.090151 
L 210.089249 186.985364 
L 210.724133 178.524494 
L 211.359018 176.823667 
L 211.993902 190.617607 
L 212.628787 188.815885 
L 213.263671 173.883294 
L 213.898556 187.648402 
L 214.53344 210.26353 
L 215.168325 175.684983 
L 215.803209 187.504241 
L 216.438094 195.028218 
L 217.072978 179.129868 
L 217.707863 175.007545 
L 218.342747 172.931968 
L 218.977632 173.724734 
L 219.612516 179.547884 
L 220.247401 180.55684 
L 220.882285 169.890665 
L 221.51717 177.414642 
L 222.152054 168.37723 
L 222.786939 174.603963 
L 223.421823 193.399455 
L 224.056708 183.036 
L 224.691592 181.810819 
L 225.326477 167.959249 
L 225.961362 160.910918 
L 226.596246 183.713438 
L 227.231131 168.737582 
L 227.866015 166.849397 
L 228.5009 158.114672 
L 229.135784 164.917946 
L 229.770669 195.720089 
L 230.405553 161.3145 
L 231.040438 157.321906 
L 231.675322 159.296587 
L 232.310207 155.289559 
L 232.945091 157.912881 
L 233.579976 177.573202 
L 234.21486 159.844297 
L 234.849745 176.866932 
L 235.484629 154.006748 
L 236.119514 146.75666 
L 236.754398 170.251016 
L 237.389283 155.217496 
L 238.024167 163.79366 
L 238.659052 149.596137 
L 239.293936 178.812782 
L 239.928821 159.945192 
L 240.563705 168.175439 
L 241.19859 149.668201 
L 241.833474 151.037509 
L 242.468359 145.632375 
L 243.103243 157.293073 
L 243.738128 161.170374 
L 244.373012 150.086217 
L 245.007897 149.711466 
L 245.642781 153.314877 
L 246.277666 147.808848 
L 246.91255 152.392418 
L 247.547435 150.605094 
L 248.18232 145.661207 
L 248.817204 150.850151 
L 249.452089 163.952221 
L 250.086973 145.632375 
L 250.721858 147.016082 
L 251.356742 148.904301 
L 251.991627 153.084254 
L 252.626511 151.138404 
L 253.261396 181.983778 
L 253.89628 143.816253 
L 254.531165 171.274406 
L 255.166049 159.238923 
L 255.800934 144.695482 
L 256.435818 142.288385 
L 257.070703 129.474569 
L 257.705587 136.566131 
L 258.340472 135.701301 
L 258.975356 138.151663 
L 259.610241 130.324999 
L 260.245125 134.750009 
L 260.88001 171.432932 
L 261.514894 136.89765 
L 262.149779 131.088933 
L 262.784663 147.145809 
L 263.419548 143.873883 
L 264.689317 128.263821 
L 265.324201 126.044117 
L 265.959086 130.454727 
L 266.59397 130.627686 
L 267.228855 129.445771 
L 267.863739 140.529928 
L 268.498624 154.698619 
L 269.133509 179.446988 
L 269.768393 135.196823 
L 270.403278 172.816673 
L 271.038162 119.485865 
L 271.673047 128.941293 
L 272.307931 120.927236 
L 272.942816 142.101027 
L 273.5777 134.9518 
L 274.212585 118.159823 
L 274.847469 128.825964 
L 275.482354 115.882454 
L 276.117238 136.710292 
L 276.752123 128.523277 
L 277.387007 136.811188 
L 278.021892 121.244357 
L 278.656776 123.08931 
L 279.291661 117.785038 
L 279.926545 126.072949 
L 280.56143 118.433677 
L 281.196314 160.853253 
L 281.831199 144.98377 
L 282.466083 116.934641 
L 283.100968 116.329268 
L 283.735852 120.120071 
L 284.370737 114.181627 
L 285.005621 116.920243 
L 285.640506 112.596094 
L 286.27539 127.29813 
L 286.910275 126.27474 
L 287.545159 106.628818 
L 288.180044 118.303949 
L 288.814928 121.69117 
L 289.449813 120.653382 
L 290.084697 110.996197 
L 290.719582 168.607854 
L 291.354467 191.871621 
L 291.989351 117.410287 
L 292.624236 130.642085 
L 293.25912 113.345629 
L 293.894005 127.845839 
L 294.528889 114.498713 
L 295.163774 109.439497 
L 295.798658 146.381875 
L 296.433543 111.443011 
L 297.068427 132.948286 
L 297.703312 119.932713 
L 298.338196 127.35576 
L 298.973081 110.405222 
L 299.607965 105.533399 
L 300.24285 116.127476 
L 300.877734 140.472263 
L 301.512619 115.882454 
L 302.147503 113.994234 
L 302.782388 104.812696 
L 303.417272 101.656098 
L 304.052157 104.207322 
L 304.687041 119.356137 
L 305.321926 110.131367 
L 305.95681 123.723517 
L 306.591695 102.102912 
L 307.226579 106.081108 
L 307.861464 100.330022 
L 308.496348 122.310978 
L 309.131233 123.608188 
L 309.766117 145.243191 
L 310.401002 99.59492 
L 311.035886 173.061696 
L 311.670771 122.455104 
L 312.305656 147.102578 
L 312.94054 107.68104 
L 313.575425 99.739081 
L 314.210309 136.955314 
L 314.845194 204.036798 
L 315.480078 107.0324 
L 316.114963 176.46335 
L 316.749847 98.427403 
L 317.384732 156.572405 
L 318.019616 100.877765 
L 318.654501 116.920243 
L 319.289385 92.229503 
L 319.92427 129.921417 
L 320.559154 97.360817 
L 321.194039 137.142672 
L 321.828923 93.411453 
L 322.463808 101.382244 
L 323.733577 82.961502 
L 324.368461 90.427815 
L 325.003346 93.454684 
L 325.63823 90.009799 
L 326.907999 189.032109 
L 327.542884 110.390823 
L 328.812653 90.701669 
L 329.447537 208.807725 
L 330.082422 164.557594 
L 330.717306 86.406353 
L 331.987075 94.939287 
L 332.62196 112.567296 
L 333.891729 89.361194 
L 334.526614 98.585963 
L 335.161498 130.944772 
L 335.796383 97.764399 
L 336.431267 162.957663 
L 337.066152 98.240045 
L 337.701036 88.784618 
L 338.335921 116.372499 
L 338.970805 91.364708 
L 339.60569 91.105252 
L 340.240574 95.198742 
L 340.875459 95.01135 
L 341.510343 93.71414 
L 342.145228 138.555246 
L 342.780112 125.95762 
L 343.414997 151.498756 
L 344.049881 88.928779 
L 344.684766 138.612876 
L 345.31965 209.701387 
L 345.954535 78.882411 
L 346.589419 79.502184 
L 347.224304 87.155888 
L 347.859188 88.208076 
L 348.494073 93.353789 
L 349.128957 79.199497 
L 349.763842 76.749169 
L 350.398726 141.610948 
L 351.033611 105.490133 
L 351.668495 96.236531 
L 352.30338 83.610107 
L 352.938264 84.590232 
L 353.573149 168.506958 
L 354.208033 100.719205 
L 354.842918 98.903084 
L 355.477803 78.666186 
L 356.112687 77.613998 
L 356.747572 95.429366 
L 357.382456 83.321819 
L 358.017341 99.148106 
L 358.652225 130.843877 
L 359.28711 91.840354 
L 359.921994 83.163294 
L 360.556879 99.292233 
L 361.191763 78.911243 
L 361.826648 81.678657 
L 362.461532 79.285993 
L 363.096417 88.366636 
L 363.731301 78.637354 
L 364.366186 84.561399 
L 365.00107 127.773776 
L 365.635955 77.224815 
L 366.270839 71.978241 
L 366.905724 86.377555 
L 367.540608 78.550891 
L 368.175493 164.399034 
L 368.810377 151.729379 
L 369.445262 182.646817 
L 370.080146 101.007459 
L 370.715031 138.065167 
L 371.349915 93.137564 
L 371.9848 158.042608 
L 372.619684 98.542732 
L 373.254569 99.119274 
L 373.889453 78.622955 
L 374.524338 79.343658 
L 375.159222 120.840774 
L 376.428991 78.104078 
L 377.063876 102.866846 
L 377.698761 152.968959 
L 378.333645 72.425055 
L 378.96853 79.502184 
L 379.603414 80.525573 
L 380.238299 91.047588 
L 380.873183 145.935062 
L 381.508068 177.746161 
L 382.142952 87.847725 
L 382.777837 71.790849 
L 383.412721 151.138404 
L 384.047606 84.186649 
L 384.68249 144.133339 
L 385.317375 170.971719 
L 386.587144 85.325333 
L 387.222028 115.204982 
L 387.856913 92.863709 
L 388.491797 80.929156 
L 389.126682 79.170664 
L 389.761566 68.821609 
L 390.396451 74.745655 
L 391.031335 118.318348 
L 391.66622 78.089644 
L 392.301104 96.135636 
L 392.935989 163.173888 
L 393.570873 136.393172 
L 394.205758 73.909657 
L 394.840642 96.611282 
L 395.475527 88.568427 
L 396.110411 70.320645 
L 396.745296 119.269675 
L 397.38018 74.370904 
L 398.015065 111.169156 
L 398.64995 105.57663 
L 399.284834 71.372867 
L 399.919719 63.47414 
L 400.554603 91.926816 
L 401.189488 65.24703 
L 401.824372 92.359231 
L 402.459257 70.53687 
L 403.094141 62.45075 
L 403.729026 196.772277 
L 404.36391 79.098601 
L 404.998795 104.985655 
L 405.633679 74.990711 
L 406.268564 119.05345 
L 406.903448 111.803362 
L 407.538333 99.868775 
L 408.173217 104.798297 
L 408.808102 61.384129 
L 409.442986 73.54934 
L 410.077871 89.548552 
L 410.712755 151.325797 
L 411.34764 88.10718 
L 411.982524 82.327296 
L 412.617409 56.137555 
L 413.252293 72.425055 
L 413.887178 75.077174 
L 414.522062 160.449671 
L 415.156947 73.333116 
L 415.791831 62.407519 
L 416.426716 66.472177 
L 417.0616 112.581695 
L 417.696485 76.331187 
L 418.331369 70.104455 
L 418.966254 92.762814 
L 419.601138 88.453133 
L 420.236023 86.882034 
L 420.870908 77.123919 
L 421.505792 189.56542 
L 422.140677 62.508414 
L 422.775561 113.864506 
L 423.410446 90.197191 
L 424.04533 52.952091 
L 424.680215 88.957611 
L 425.315099 60.922916 
L 425.949984 88.323405 
L 426.584868 123.334333 
L 427.219753 66.87576 
L 427.854637 73.534907 
L 428.489522 59.553608 
L 429.124406 124.934264 
L 429.759291 88.799051 
L 430.394175 115.33471 
L 431.02906 58.126636 
L 431.663944 181.234278 
L 432.298829 175.2814 
L 432.933713 113.806876 
L 433.568598 72.352991 
L 434.203482 66.227155 
L 434.838367 106.210836 
L 435.473251 58.703178 
L 436.108136 69.0234 
L 436.74302 73.981721 
L 437.377905 63.618267 
L 438.012789 66.789297 
L 438.647674 127.600817 
L 439.282558 63.142621 
L 439.917443 133.568094 
L 440.552327 109.324202 
L 441.187212 179.980299 
L 441.822097 59.481511 
L 442.456981 51.51072 
L 443.091866 72.598014 
L 443.72675 69.931496 
L 444.361635 64.137144 
L 444.996519 66.342449 
L 445.631404 57.405933 
L 446.266288 58.89057 
L 446.901173 62.104832 
L 447.536057 104.798297 
L 448.170942 62.76787 
L 448.805826 86.939664 
L 449.440711 68.749546 
L 450.075595 72.36739 
L 450.71048 70.940452 
L 451.345364 69.801768 
L 451.980249 97.216655 
L 452.615133 59.366216 
L 453.250018 108.97825 
L 453.884902 214.039935 
L 454.519787 123.190206 
L 455.154671 118.606636 
L 455.789556 81.678657 
L 456.42444 59.784232 
L 457.059325 63.373244 
L 457.694209 65.693844 
L 458.329094 154.713018 
L 458.963978 64.612824 
L 459.598863 64.209242 
L 460.233747 85.772181 
L 460.868632 171.360869 
L 461.503516 64.540761 
L 462.138401 59.337384 
L 462.773285 107.118897 
L 463.40817 62.666975 
L 464.043055 63.618267 
L 464.677939 62.724605 
L 465.312824 64.238074 
L 465.947708 55.993394 
L 466.582593 64.079514 
L 467.217477 53.600731 
L 467.852362 162.453185 
L 468.487246 142.821695 
L 469.122131 87.57387 
L 469.757015 68.216235 
L 470.3919 90.197191 
L 471.026784 168.276335 
L 471.661669 73.145723 
L 472.296553 72.482719 
L 472.931438 72.540349 
L 473.566322 68.893707 
L 474.201207 130.440294 
L 474.836091 52.519711 
L 475.470976 71.07018 
L 476.10586 57.636557 
L 476.740745 58.169867 
L 477.375629 103.659612 
L 478.010514 105.043319 
L 478.645398 61.614752 
L 479.280283 63.084956 
L 479.915167 48.48385 
L 480.550052 75.596085 
L 481.184936 73.996154 
L 481.819821 65.492053 
L 482.454705 66.991089 
L 483.08959 59.524776 
L 483.724474 109.612456 
L 484.359359 100.301189 
L 484.994244 131.088933 
L 485.629128 143.715357 
L 486.264013 131.39162 
L 486.898897 49.03156 
L 487.533782 187.172722 
L 488.168666 63.575035 
L 488.803551 119.644425 
L 489.438435 61.600354 
L 490.07332 81.145346 
L 490.708204 68.96577 
L 491.343089 74.212344 
L 491.977973 97.504943 
L 492.612858 60.331941 
L 493.247742 64.77135 
L 493.882627 52.260255 
L 494.517511 116.055413 
L 495.152396 55.618644 
L 495.78728 163.692765 
L 496.422165 133.063615 
L 497.057049 72.107934 
L 497.691934 65.910034 
L 498.326818 47.936141 
L 498.961703 148.817804 
L 499.596587 77.441039 
L 500.231472 69.614375 
L 500.866356 53.168316 
L 501.501241 51.770176 
L 502.136125 56.757328 
L 502.77101 70.508037 
L 503.405894 57.00235 
L 504.040779 48.26766 
L 504.675663 57.679822 
L 505.310548 47.518125 
L 505.945433 63.906555 
L 506.580317 49.752263 
L 507.215202 127.182801 
L 507.850086 93.973561 
L 509.119855 59.366216 
L 509.75474 54.984437 
L 510.389624 53.975481 
L 511.024509 87.57387 
L 511.659393 53.254812 
L 512.294278 66.01093 
L 512.929162 137.21477 
L 513.564047 72.497118 
L 514.198931 53.917816 
L 514.833816 65.24703 
L 515.4687 57.996908 
L 516.103585 58.587883 
L 516.738469 57.881613 
L 517.373354 67.711757 
L 518.008238 67.466735 
L 518.643123 56.166353 
L 519.278007 60.317508 
L 519.912892 71.401665 
L 520.547776 90.961091 
L 521.182661 81.707489 
L 521.817545 94.47804 
L 522.45243 135.240088 
L 523.087314 109.684554 
L 523.722199 70.897187 
L 524.357083 203.41699 
L 524.991968 74.947446 
L 525.626852 70.954851 
L 526.261737 56.973553 
L 526.896621 86.49285 
L 527.531506 55.863666 
L 528.166391 54.321399 
L 528.801275 54.912374 
L 529.43616 148.255662 
L 530.071044 50.934178 
L 530.705929 73.030429 
L 531.340813 56.180786 
L 531.975698 98.038254 
L 532.610582 104.567673 
L 533.245467 104.55324 
L 533.880351 115.522102 
L 534.515236 94.045659 
L 535.15012 55.690707 
L 535.785005 128.407982 
L 536.419889 106.326131 
L 537.054774 172.816673 
L 537.689658 89.764776 
L 538.324543 102.578558 
L 538.959427 70.522436 
L 539.594312 65.001973 
L 540.229196 74.183512 
L 540.864081 122.93075 
L 541.498965 93.137564 
L 542.13385 129.388106 
L 543.403619 49.737864 
L 544.038503 75.826709 
L 544.673388 61.571521 
L 545.308272 73.160156 
L 545.943157 100.8345 
L 546.578041 72.900701 
L 547.212926 53.759291 
L 547.84781 59.654504 
L 548.482695 58.1843 
L 549.11758 53.168316 
L 549.752464 53.081819 
L 550.387349 81.332739 
L 551.022233 136.984147 
L 551.657118 55.359188 
L 552.292002 61.629186 
L 552.926887 54.984437 
L 553.561771 59.769799 
L 554.196656 58.458155 
L 554.83154 229.750893 
L 555.466425 72.266495 
L 556.101309 49.939655 
L 556.736194 49.982886 
L 557.371078 53.139484 
L 558.005963 50.127013 
L 558.640847 86.982929 
L 559.275732 48.656809 
L 559.910616 58.429323 
L 560.545501 95.458198 
L 561.180385 81.073283 
L 561.81527 58.097804 
L 562.450154 64.598391 
L 563.085039 160.305544 
L 563.719923 80.929156 
L 564.354808 113.605085 
L 564.989692 49.910823 
L 565.624577 53.398939 
L 566.259461 94.708663 
L 566.894346 78.060812 
L 567.52923 140.45783 
L 568.164115 62.666975 
L 568.798999 71.387266 
L 569.433884 82.831774 
L 570.068768 105.720757 
L 570.703653 178.755118 
L 571.338538 124.328891 
L 571.973422 81.765153 
L 572.608307 60.807587 
L 573.243191 187.878992 
L 573.878076 116.660787 
L 574.51296 135.730133 
L 575.147845 50.977444 
L 575.782729 176.362454 
L 576.417614 133.87078 
L 576.417614 133.87078 
" clip-path="url(#p5d1cd52560)" style="fill: none; stroke: #ff7f0e; stroke-width: 1.5; stroke-linecap: square"/>
   </g>
   <g id="line2d_31">
    <path d="M 43.78125 552.38415 
L 601.78125 552.38415 
" clip-path="url(#p5d1cd52560)" style="fill: none; stroke-dasharray: 11.1,4.8; stroke-dashoffset: 0; stroke: #ff0000; stroke-width: 3"/>
   </g>
   <g id="patch_3">
    <path d="M 43.78125 576.718125 
L 43.78125 22.318125 
" style="fill: none; stroke: #000000; stroke-width: 0.8; stroke-linejoin: miter; stroke-linecap: square"/>
   </g>
   <g id="patch_4">
    <path d="M 601.78125 576.718125 
L 601.78125 22.318125 
" style="fill: none; stroke: #000000; stroke-width: 0.8; stroke-linejoin: miter; stroke-linecap: square"/>
   </g>
   <g id="patch_5">
    <path d="M 43.78125 576.718125 
L 601.78125 576.718125 
" style="fill: none; stroke: #000000; stroke-width: 0.8; stroke-linejoin: miter; stroke-linecap: square"/>
   </g>
   <g id="patch_6">
    <path d="M 43.78125 22.318125 
L 601.78125 22.318125 
" style="fill: none; stroke: #000000; stroke-width: 0.8; stroke-linejoin: miter; stroke-linecap: square"/>
   </g>
   <g id="text_17">
    <!-- Train and Val Accuracy -->
    <g transform="translate(255.002813 16.318125) scale(0.12 -0.12)">
     <defs>
      <path id="DejaVuSans-54" d="M -19 4666 
L 3928 4666 
L 3928 4134 
L 2272 4134 
L 2272 0 
L 1638 0 
L 1638 4134 
L -19 4134 
L -19 4666 
z
" transform="scale(0.015625)"/>
      <path id="DejaVuSans-69" d="M 603 3500 
L 1178 3500 
L 1178 0 
L 603 0 
L 603 3500 
z
M 603 4863 
L 1178 4863 
L 1178 4134 
L 603 4134 
L 603 4863 
z
" transform="scale(0.015625)"/>
      <path id="DejaVuSans-6e" d="M 3513 2113 
L 3513 0 
L 2938 0 
L 2938 2094 
Q 2938 2591 2744 2837 
Q 2550 3084 2163 3084 
Q 1697 3084 1428 2787 
Q 1159 2491 1159 1978 
L 1159 0 
L 581 0 
L 581 3500 
L 1159 3500 
L 1159 2956 
Q 1366 3272 1645 3428 
Q 1925 3584 2291 3584 
Q 2894 3584 3203 3211 
Q 3513 2838 3513 2113 
z
" transform="scale(0.015625)"/>
      <path id="DejaVuSans-20" transform="scale(0.015625)"/>
      <path id="DejaVuSans-64" d="M 2906 2969 
L 2906 4863 
L 3481 4863 
L 3481 0 
L 2906 0 
L 2906 525 
Q 2725 213 2448 61 
Q 2172 -91 1784 -91 
Q 1150 -91 751 415 
Q 353 922 353 1747 
Q 353 2572 751 3078 
Q 1150 3584 1784 3584 
Q 2172 3584 2448 3432 
Q 2725 3281 2906 2969 
z
M 947 1747 
Q 947 1113 1208 752 
Q 1469 391 1925 391 
Q 2381 391 2643 752 
Q 2906 1113 2906 1747 
Q 2906 2381 2643 2742 
Q 2381 3103 1925 3103 
Q 1469 3103 1208 2742 
Q 947 2381 947 1747 
z
" transform="scale(0.015625)"/>
      <path id="DejaVuSans-56" d="M 1831 0 
L 50 4666 
L 709 4666 
L 2188 738 
L 3669 4666 
L 4325 4666 
L 2547 0 
L 1831 0 
z
" transform="scale(0.015625)"/>
      <path id="DejaVuSans-6c" d="M 603 4863 
L 1178 4863 
L 1178 0 
L 603 0 
L 603 4863 
z
" transform="scale(0.015625)"/>
     </defs>
     <use xlink:href="#DejaVuSans-54"/>
     <use xlink:href="#DejaVuSans-72" transform="translate(46.333984 0)"/>
     <use xlink:href="#DejaVuSans-61" transform="translate(87.447266 0)"/>
     <use xlink:href="#DejaVuSans-69" transform="translate(148.726562 0)"/>
     <use xlink:href="#DejaVuSans-6e" transform="translate(176.509766 0)"/>
     <use xlink:href="#DejaVuSans-20" transform="translate(239.888672 0)"/>
     <use xlink:href="#DejaVuSans-61" transform="translate(271.675781 0)"/>
     <use xlink:href="#DejaVuSans-6e" transform="translate(332.955078 0)"/>
     <use xlink:href="#DejaVuSans-64" transform="translate(396.333984 0)"/>
     <use xlink:href="#DejaVuSans-20" transform="translate(459.810547 0)"/>
     <use xlink:href="#DejaVuSans-56" transform="translate(491.597656 0)"/>
     <use xlink:href="#DejaVuSans-61" transform="translate(552.255859 0)"/>
     <use xlink:href="#DejaVuSans-6c" transform="translate(613.535156 0)"/>
     <use xlink:href="#DejaVuSans-20" transform="translate(641.318359 0)"/>
     <use xlink:href="#DejaVuSans-41" transform="translate(673.105469 0)"/>
     <use xlink:href="#DejaVuSans-63" transform="translate(739.763672 0)"/>
     <use xlink:href="#DejaVuSans-63" transform="translate(794.744141 0)"/>
     <use xlink:href="#DejaVuSans-75" transform="translate(849.724609 0)"/>
     <use xlink:href="#DejaVuSans-72" transform="translate(913.103516 0)"/>
     <use xlink:href="#DejaVuSans-61" transform="translate(954.216797 0)"/>
     <use xlink:href="#DejaVuSans-63" transform="translate(1015.496094 0)"/>
     <use xlink:href="#DejaVuSans-79" transform="translate(1070.476562 0)"/>
    </g>
   </g>
   <g id="legend_1">
    <g id="patch_7">
     <path d="M 50.78125 74.90875 
L 217.904687 74.90875 
Q 219.904687 74.90875 219.904687 72.90875 
L 219.904687 29.318125 
Q 219.904687 27.318125 217.904687 27.318125 
L 50.78125 27.318125 
Q 48.78125 27.318125 48.78125 29.318125 
L 48.78125 72.90875 
Q 48.78125 74.90875 50.78125 74.90875 
z
" style="fill: #ffffff; opacity: 0.8; stroke: #cccccc; stroke-linejoin: miter"/>
    </g>
    <g id="line2d_32">
     <path d="M 52.78125 35.416562 
L 62.78125 35.416562 
L 72.78125 35.416562 
" style="fill: none; stroke: #1f77b4; stroke-width: 1.5; stroke-linecap: square"/>
    </g>
    <g id="text_18">
     <!-- train_accuracy -->
     <g transform="translate(80.78125 38.916562) scale(0.1 -0.1)">
      <defs>
       <path id="DejaVuSans-74" d="M 1172 4494 
L 1172 3500 
L 2356 3500 
L 2356 3053 
L 1172 3053 
L 1172 1153 
Q 1172 725 1289 603 
Q 1406 481 1766 481 
L 2356 481 
L 2356 0 
L 1766 0 
Q 1100 0 847 248 
Q 594 497 594 1153 
L 594 3053 
L 172 3053 
L 172 3500 
L 594 3500 
L 594 4494 
L 1172 4494 
z
" transform="scale(0.015625)"/>
       <path id="DejaVuSans-5f" d="M 3263 -1063 
L 3263 -1509 
L -63 -1509 
L -63 -1063 
L 3263 -1063 
z
" transform="scale(0.015625)"/>
      </defs>
      <use xlink:href="#DejaVuSans-74"/>
      <use xlink:href="#DejaVuSans-72" transform="translate(39.208984 0)"/>
      <use xlink:href="#DejaVuSans-61" transform="translate(80.322266 0)"/>
      <use xlink:href="#DejaVuSans-69" transform="translate(141.601562 0)"/>
      <use xlink:href="#DejaVuSans-6e" transform="translate(169.384766 0)"/>
      <use xlink:href="#DejaVuSans-5f" transform="translate(232.763672 0)"/>
      <use xlink:href="#DejaVuSans-61" transform="translate(282.763672 0)"/>
      <use xlink:href="#DejaVuSans-63" transform="translate(344.042969 0)"/>
      <use xlink:href="#DejaVuSans-63" transform="translate(399.023438 0)"/>
      <use xlink:href="#DejaVuSans-75" transform="translate(454.003906 0)"/>
      <use xlink:href="#DejaVuSans-72" transform="translate(517.382812 0)"/>
      <use xlink:href="#DejaVuSans-61" transform="translate(558.496094 0)"/>
      <use xlink:href="#DejaVuSans-63" transform="translate(619.775391 0)"/>
      <use xlink:href="#DejaVuSans-79" transform="translate(674.755859 0)"/>
     </g>
    </g>
    <g id="line2d_33">
     <path d="M 52.78125 50.372812 
L 62.78125 50.372812 
L 72.78125 50.372812 
" style="fill: none; stroke: #ff7f0e; stroke-width: 1.5; stroke-linecap: square"/>
    </g>
    <g id="text_19">
     <!-- val_accuracy -->
     <g transform="translate(80.78125 53.872812) scale(0.1 -0.1)">
      <defs>
       <path id="DejaVuSans-76" d="M 191 3500 
L 800 3500 
L 1894 563 
L 2988 3500 
L 3597 3500 
L 2284 0 
L 1503 0 
L 191 3500 
z
" transform="scale(0.015625)"/>
      </defs>
      <use xlink:href="#DejaVuSans-76"/>
      <use xlink:href="#DejaVuSans-61" transform="translate(59.179688 0)"/>
      <use xlink:href="#DejaVuSans-6c" transform="translate(120.458984 0)"/>
      <use xlink:href="#DejaVuSans-5f" transform="translate(148.242188 0)"/>
      <use xlink:href="#DejaVuSans-61" transform="translate(198.242188 0)"/>
      <use xlink:href="#DejaVuSans-63" transform="translate(259.521484 0)"/>
      <use xlink:href="#DejaVuSans-63" transform="translate(314.501953 0)"/>
      <use xlink:href="#DejaVuSans-75" transform="translate(369.482422 0)"/>
      <use xlink:href="#DejaVuSans-72" transform="translate(432.861328 0)"/>
      <use xlink:href="#DejaVuSans-61" transform="translate(473.974609 0)"/>
      <use xlink:href="#DejaVuSans-63" transform="translate(535.253906 0)"/>
      <use xlink:href="#DejaVuSans-79" transform="translate(590.234375 0)"/>
     </g>
    </g>
    <g id="line2d_34">
     <path d="M 52.78125 65.329062 
L 62.78125 65.329062 
L 72.78125 65.329062 
" style="fill: none; stroke-dasharray: 11.1,4.8; stroke-dashoffset: 0; stroke: #ff0000; stroke-width: 3"/>
    </g>
    <g id="text_20">
     <!-- Random-Guesser Accuracy -->
     <g transform="translate(80.78125 68.829062) scale(0.1 -0.1)">
      <defs>
       <path id="DejaVuSans-52" d="M 2841 2188 
Q 3044 2119 3236 1894 
Q 3428 1669 3622 1275 
L 4263 0 
L 3584 0 
L 2988 1197 
Q 2756 1666 2539 1819 
Q 2322 1972 1947 1972 
L 1259 1972 
L 1259 0 
L 628 0 
L 628 4666 
L 2053 4666 
Q 2853 4666 3247 4331 
Q 3641 3997 3641 3322 
Q 3641 2881 3436 2590 
Q 3231 2300 2841 2188 
z
M 1259 4147 
L 1259 2491 
L 2053 2491 
Q 2509 2491 2742 2702 
Q 2975 2913 2975 3322 
Q 2975 3731 2742 3939 
Q 2509 4147 2053 4147 
L 1259 4147 
z
" transform="scale(0.015625)"/>
       <path id="DejaVuSans-6d" d="M 3328 2828 
Q 3544 3216 3844 3400 
Q 4144 3584 4550 3584 
Q 5097 3584 5394 3201 
Q 5691 2819 5691 2113 
L 5691 0 
L 5113 0 
L 5113 2094 
Q 5113 2597 4934 2840 
Q 4756 3084 4391 3084 
Q 3944 3084 3684 2787 
Q 3425 2491 3425 1978 
L 3425 0 
L 2847 0 
L 2847 2094 
Q 2847 2600 2669 2842 
Q 2491 3084 2119 3084 
Q 1678 3084 1418 2786 
Q 1159 2488 1159 1978 
L 1159 0 
L 581 0 
L 581 3500 
L 1159 3500 
L 1159 2956 
Q 1356 3278 1631 3431 
Q 1906 3584 2284 3584 
Q 2666 3584 2933 3390 
Q 3200 3197 3328 2828 
z
" transform="scale(0.015625)"/>
       <path id="DejaVuSans-2d" d="M 313 2009 
L 1997 2009 
L 1997 1497 
L 313 1497 
L 313 2009 
z
" transform="scale(0.015625)"/>
       <path id="DejaVuSans-47" d="M 3809 666 
L 3809 1919 
L 2778 1919 
L 2778 2438 
L 4434 2438 
L 4434 434 
Q 4069 175 3628 42 
Q 3188 -91 2688 -91 
Q 1594 -91 976 548 
Q 359 1188 359 2328 
Q 359 3472 976 4111 
Q 1594 4750 2688 4750 
Q 3144 4750 3555 4637 
Q 3966 4525 4313 4306 
L 4313 3634 
Q 3963 3931 3569 4081 
Q 3175 4231 2741 4231 
Q 1884 4231 1454 3753 
Q 1025 3275 1025 2328 
Q 1025 1384 1454 906 
Q 1884 428 2741 428 
Q 3075 428 3337 486 
Q 3600 544 3809 666 
z
" transform="scale(0.015625)"/>
       <path id="DejaVuSans-65" d="M 3597 1894 
L 3597 1613 
L 953 1613 
Q 991 1019 1311 708 
Q 1631 397 2203 397 
Q 2534 397 2845 478 
Q 3156 559 3463 722 
L 3463 178 
Q 3153 47 2828 -22 
Q 2503 -91 2169 -91 
Q 1331 -91 842 396 
Q 353 884 353 1716 
Q 353 2575 817 3079 
Q 1281 3584 2069 3584 
Q 2775 3584 3186 3129 
Q 3597 2675 3597 1894 
z
M 3022 2063 
Q 3016 2534 2758 2815 
Q 2500 3097 2075 3097 
Q 1594 3097 1305 2825 
Q 1016 2553 972 2059 
L 3022 2063 
z
" transform="scale(0.015625)"/>
      </defs>
      <use xlink:href="#DejaVuSans-52"/>
      <use xlink:href="#DejaVuSans-61" transform="translate(67.232422 0)"/>
      <use xlink:href="#DejaVuSans-6e" transform="translate(128.511719 0)"/>
      <use xlink:href="#DejaVuSans-64" transform="translate(191.890625 0)"/>
      <use xlink:href="#DejaVuSans-6f" transform="translate(255.367188 0)"/>
      <use xlink:href="#DejaVuSans-6d" transform="translate(316.548828 0)"/>
      <use xlink:href="#DejaVuSans-2d" transform="translate(413.960938 0)"/>
      <use xlink:href="#DejaVuSans-47" transform="translate(453.669922 0)"/>
      <use xlink:href="#DejaVuSans-75" transform="translate(531.160156 0)"/>
      <use xlink:href="#DejaVuSans-65" transform="translate(594.539062 0)"/>
      <use xlink:href="#DejaVuSans-73" transform="translate(656.0625 0)"/>
      <use xlink:href="#DejaVuSans-73" transform="translate(708.162109 0)"/>
      <use xlink:href="#DejaVuSans-65" transform="translate(760.261719 0)"/>
      <use xlink:href="#DejaVuSans-72" transform="translate(821.785156 0)"/>
      <use xlink:href="#DejaVuSans-20" transform="translate(862.898438 0)"/>
      <use xlink:href="#DejaVuSans-41" transform="translate(894.685547 0)"/>
      <use xlink:href="#DejaVuSans-63" transform="translate(961.34375 0)"/>
      <use xlink:href="#DejaVuSans-63" transform="translate(1016.324219 0)"/>
      <use xlink:href="#DejaVuSans-75" transform="translate(1071.304688 0)"/>
      <use xlink:href="#DejaVuSans-72" transform="translate(1134.683594 0)"/>
      <use xlink:href="#DejaVuSans-61" transform="translate(1175.796875 0)"/>
      <use xlink:href="#DejaVuSans-63" transform="translate(1237.076172 0)"/>
      <use xlink:href="#DejaVuSans-79" transform="translate(1292.056641 0)"/>
     </g>
    </g>
   </g>
  </g>
 </g>
 <defs>
  <clipPath id="p5d1cd52560">
   <rect x="43.78125" y="22.318125" width="558" height="554.4"/>
  </clipPath>
 </defs>
</svg>
