<?xml version="1.0" encoding="utf-8" standalone="no"?>
<!DOCTYPE svg PUBLIC "-//W3C//DTD SVG 1.1//EN"
  "http://www.w3.org/Graphics/SVG/1.1/DTD/svg11.dtd">
<svg xmlns:xlink="http://www.w3.org/1999/xlink" width="615.34375pt" height="614.274375pt" viewBox="0 0 615.34375 614.274375" xmlns="http://www.w3.org/2000/svg" version="1.1">
 <metadata>
  <rdf:RDF xmlns:dc="http://purl.org/dc/elements/1.1/" xmlns:cc="http://creativecommons.org/ns#" xmlns:rdf="http://www.w3.org/1999/02/22-rdf-syntax-ns#">
   <cc:Work>
    <dc:type rdf:resource="http://purl.org/dc/dcmitype/StillImage"/>
    <dc:date>2026-06-02T02:07:34.235547</dc:date>
    <dc:format>image/svg+xml</dc:format>
    <dc:creator>
     <cc:Agent>
      <dc:title>Matplotlib v3.10.9, https://matplotlib.org/</dc:title>
     </cc:Agent>
    </dc:creator>
   </cc:Work>
  </rdf:RDF>
 </metadata>
 <defs>
  <style type="text/css">*{stroke-linejoin: round; stroke-linecap: butt}</style>
 </defs>
 <g id="figure_1">
  <g id="patch_1">
   <path d="M 0 614.274375 
L 615.34375 614.274375 
L 615.34375 0 
L 0 0 
z
" style="fill: #ffffff"/>
  </g>
  <g id="axes_1">
   <g id="patch_2">
    <path d="M 50.14375 576.718125 
L 608.14375 576.718125 
L 608.14375 22.318125 
L 50.14375 22.318125 
z
" style="fill: #ffffff"/>
   </g>
   <g id="matplotlib.axis_1">
    <g id="xtick_1">
     <g id="line2d_1">
      <path d="M 75.507386 576.718125 
L 75.507386 22.318125 
" clip-path="url(#pa8fc489a48)" style="fill: none; stroke: #b0b0b0; stroke-width: 0.8; stroke-linecap: square"/>
     </g>
     <g id="line2d_2">
      <defs>
       <path id="m15409d307c" d="M 0 0 
L 0 3.5 
" style="stroke: #000000; stroke-width: 0.8"/>
      </defs>
      <g>
       <use xlink:href="#m15409d307c" x="75.507386" y="576.718125" style="stroke: #000000; stroke-width: 0.8"/>
      </g>
     </g>
     <g id="text_1">
      <!-- 0 -->
      <g transform="translate(72.326136 591.316563) scale(0.1 -0.1)">
       <defs>
        <path id="DejaVuSans-30" d="M 2034 4250 
Q 1547 4250 1301 3770 
Q 1056 3291 1056 2328 
Q 1056 1369 1301 889 
Q 1547 409 2034 409 
Q 2525 409 2770 889 
Q 3016 1369 3016 2328 
Q 3016 3291 2770 3770 
Q 2525 4250 2034 4250 
z
M 2034 4750 
Q 2819 4750 3233 4129 
Q 3647 3509 3647 2328 
Q 3647 1150 3233 529 
Q 2819 -91 2034 -91 
Q 1250 -91 836 529 
Q 422 1150 422 2328 
Q 422 3509 836 4129 
Q 1250 4750 2034 4750 
z
" transform="scale(0.015625)"/>
       </defs>
       <use xlink:href="#DejaVuSans-30"/>
      </g>
     </g>
    </g>
    <g id="xtick_2">
     <g id="line2d_3">
      <path d="M 138.995838 576.718125 
L 138.995838 22.318125 
" clip-path="url(#pa8fc489a48)" style="fill: none; stroke: #b0b0b0; stroke-width: 0.8; stroke-linecap: square"/>
     </g>
     <g id="line2d_4">
      <g>
       <use xlink:href="#m15409d307c" x="138.995838" y="576.718125" style="stroke: #000000; stroke-width: 0.8"/>
      </g>
     </g>
     <g id="text_2">
      <!-- 100 -->
      <g transform="translate(129.452088 591.316563) scale(0.1 -0.1)">
       <defs>
        <path id="DejaVuSans-31" d="M 794 531 
L 1825 531 
L 1825 4091 
L 703 3866 
L 703 4441 
L 1819 4666 
L 2450 4666 
L 2450 531 
L 3481 531 
L 3481 0 
L 794 0 
L 794 531 
z
" transform="scale(0.015625)"/>
       </defs>
       <use xlink:href="#DejaVuSans-31"/>
       <use xlink:href="#DejaVuSans-30" transform="translate(63.623047 0)"/>
       <use xlink:href="#DejaVuSans-30" transform="translate(127.246094 0)"/>
      </g>
     </g>
    </g>
    <g id="xtick_3">
     <g id="line2d_5">
      <path d="M 202.484289 576.718125 
L 202.484289 22.318125 
" clip-path="url(#pa8fc489a48)" style="fill: none; stroke: #b0b0b0; stroke-width: 0.8; stroke-linecap: square"/>
     </g>
     <g id="line2d_6">
      <g>
       <use xlink:href="#m15409d307c" x="202.484289" y="576.718125" style="stroke: #000000; stroke-width: 0.8"/>
      </g>
     </g>
     <g id="text_3">
      <!-- 200 -->
      <g transform="translate(192.940539 591.316563) scale(0.1 -0.1)">
       <defs>
        <path id="DejaVuSans-32" d="M 1228 531 
L 3431 531 
L 3431 0 
L 469 0 
L 469 531 
Q 828 903 1448 1529 
Q 2069 2156 2228 2338 
Q 2531 2678 2651 2914 
Q 2772 3150 2772 3378 
Q 2772 3750 2511 3984 
Q 2250 4219 1831 4219 
Q 1534 4219 1204 4116 
Q 875 4013 500 3803 
L 500 4441 
Q 881 4594 1212 4672 
Q 1544 4750 1819 4750 
Q 2544 4750 2975 4387 
Q 3406 4025 3406 3419 
Q 3406 3131 3298 2873 
Q 3191 2616 2906 2266 
Q 2828 2175 2409 1742 
Q 1991 1309 1228 531 
z
" transform="scale(0.015625)"/>
       </defs>
       <use xlink:href="#DejaVuSans-32"/>
       <use xlink:href="#DejaVuSans-30" transform="translate(63.623047 0)"/>
       <use xlink:href="#DejaVuSans-30" transform="translate(127.246094 0)"/>
      </g>
     </g>
    </g>
    <g id="xtick_4">
     <g id="line2d_7">
      <path d="M 265.972741 576.718125 
L 265.972741 22.318125 
" clip-path="url(#pa8fc489a48)" style="fill: none; stroke: #b0b0b0; stroke-width: 0.8; stroke-linecap: square"/>
     </g>
     <g id="line2d_8">
      <g>
       <use xlink:href="#m15409d307c" x="265.972741" y="576.718125" style="stroke: #000000; stroke-width: 0.8"/>
      </g>
     </g>
     <g id="text_4">
      <!-- 300 -->
      <g transform="translate(256.428991 591.316563) scale(0.1 -0.1)">
       <defs>
        <path id="DejaVuSans-33" d="M 2597 2516 
Q 3050 2419 3304 2112 
Q 3559 1806 3559 1356 
Q 3559 666 3084 287 
Q 2609 -91 1734 -91 
Q 1441 -91 1130 -33 
Q 819 25 488 141 
L 488 750 
Q 750 597 1062 519 
Q 1375 441 1716 441 
Q 2309 441 2620 675 
Q 2931 909 2931 1356 
Q 2931 1769 2642 2001 
Q 2353 2234 1838 2234 
L 1294 2234 
L 1294 2753 
L 1863 2753 
Q 2328 2753 2575 2939 
Q 2822 3125 2822 3475 
Q 2822 3834 2567 4026 
Q 2313 4219 1838 4219 
Q 1578 4219 1281 4162 
Q 984 4106 628 3988 
L 628 4550 
Q 988 4650 1302 4700 
Q 1616 4750 1894 4750 
Q 2613 4750 3031 4423 
Q 3450 4097 3450 3541 
Q 3450 3153 3228 2886 
Q 3006 2619 2597 2516 
z
" transform="scale(0.015625)"/>
       </defs>
       <use xlink:href="#DejaVuSans-33"/>
       <use xlink:href="#DejaVuSans-30" transform="translate(63.623047 0)"/>
       <use xlink:href="#DejaVuSans-30" transform="translate(127.246094 0)"/>
      </g>
     </g>
    </g>
    <g id="xtick_5">
     <g id="line2d_9">
      <path d="M 329.461192 576.718125 
L 329.461192 22.318125 
" clip-path="url(#pa8fc489a48)" style="fill: none; stroke: #b0b0b0; stroke-width: 0.8; stroke-linecap: square"/>
     </g>
     <g id="line2d_10">
      <g>
       <use xlink:href="#m15409d307c" x="329.461192" y="576.718125" style="stroke: #000000; stroke-width: 0.8"/>
      </g>
     </g>
     <g id="text_5">
      <!-- 400 -->
      <g transform="translate(319.917442 591.316563) scale(0.1 -0.1)">
       <defs>
        <path id="DejaVuSans-34" d="M 2419 4116 
L 825 1625 
L 2419 1625 
L 2419 4116 
z
M 2253 4666 
L 3047 4666 
L 3047 1625 
L 3713 1625 
L 3713 1100 
L 3047 1100 
L 3047 0 
L 2419 0 
L 2419 1100 
L 313 1100 
L 313 1709 
L 2253 4666 
z
" transform="scale(0.015625)"/>
       </defs>
       <use xlink:href="#DejaVuSans-34"/>
       <use xlink:href="#DejaVuSans-30" transform="translate(63.623047 0)"/>
       <use xlink:href="#DejaVuSans-30" transform="translate(127.246094 0)"/>
      </g>
     </g>
    </g>
    <g id="xtick_6">
     <g id="line2d_11">
      <path d="M 392.949644 576.718125 
L 392.949644 22.318125 
" clip-path="url(#pa8fc489a48)" style="fill: none; stroke: #b0b0b0; stroke-width: 0.8; stroke-linecap: square"/>
     </g>
     <g id="line2d_12">
      <g>
       <use xlink:href="#m15409d307c" x="392.949644" y="576.718125" style="stroke: #000000; stroke-width: 0.8"/>
      </g>
     </g>
     <g id="text_6">
      <!-- 500 -->
      <g transform="translate(383.405894 591.316563) scale(0.1 -0.1)">
       <defs>
        <path id="DejaVuSans-35" d="M 691 4666 
L 3169 4666 
L 3169 4134 
L 1269 4134 
L 1269 2991 
Q 1406 3038 1543 3061 
Q 1681 3084 1819 3084 
Q 2600 3084 3056 2656 
Q 3513 2228 3513 1497 
Q 3513 744 3044 326 
Q 2575 -91 1722 -91 
Q 1428 -91 1123 -41 
Q 819 9 494 109 
L 494 744 
Q 775 591 1075 516 
Q 1375 441 1709 441 
Q 2250 441 2565 725 
Q 2881 1009 2881 1497 
Q 2881 1984 2565 2268 
Q 2250 2553 1709 2553 
Q 1456 2553 1204 2497 
Q 953 2441 691 2322 
L 691 4666 
z
" transform="scale(0.015625)"/>
       </defs>
       <use xlink:href="#DejaVuSans-35"/>
       <use xlink:href="#DejaVuSans-30" transform="translate(63.623047 0)"/>
       <use xlink:href="#DejaVuSans-30" transform="translate(127.246094 0)"/>
      </g>
     </g>
    </g>
    <g id="xtick_7">
     <g id="line2d_13">
      <path d="M 456.438095 576.718125 
L 456.438095 22.318125 
" clip-path="url(#pa8fc489a48)" style="fill: none; stroke: #b0b0b0; stroke-width: 0.8; stroke-linecap: square"/>
     </g>
     <g id="line2d_14">
      <g>
       <use xlink:href="#m15409d307c" x="456.438095" y="576.718125" style="stroke: #000000; stroke-width: 0.8"/>
      </g>
     </g>
     <g id="text_7">
      <!-- 600 -->
      <g transform="translate(446.894345 591.316563) scale(0.1 -0.1)">
       <defs>
        <path id="DejaVuSans-36" d="M 2113 2584 
Q 1688 2584 1439 2293 
Q 1191 2003 1191 1497 
Q 1191 994 1439 701 
Q 1688 409 2113 409 
Q 2538 409 2786 701 
Q 3034 994 3034 1497 
Q 3034 2003 2786 2293 
Q 2538 2584 2113 2584 
z
M 3366 4563 
L 3366 3988 
Q 3128 4100 2886 4159 
Q 2644 4219 2406 4219 
Q 1781 4219 1451 3797 
Q 1122 3375 1075 2522 
Q 1259 2794 1537 2939 
Q 1816 3084 2150 3084 
Q 2853 3084 3261 2657 
Q 3669 2231 3669 1497 
Q 3669 778 3244 343 
Q 2819 -91 2113 -91 
Q 1303 -91 875 529 
Q 447 1150 447 2328 
Q 447 3434 972 4092 
Q 1497 4750 2381 4750 
Q 2619 4750 2861 4703 
Q 3103 4656 3366 4563 
z
" transform="scale(0.015625)"/>
       </defs>
       <use xlink:href="#DejaVuSans-36"/>
       <use xlink:href="#DejaVuSans-30" transform="translate(63.623047 0)"/>
       <use xlink:href="#DejaVuSans-30" transform="translate(127.246094 0)"/>
      </g>
     </g>
    </g>
    <g id="xtick_8">
     <g id="line2d_15">
      <path d="M 519.926547 576.718125 
L 519.926547 22.318125 
" clip-path="url(#pa8fc489a48)" style="fill: none; stroke: #b0b0b0; stroke-width: 0.8; stroke-linecap: square"/>
     </g>
     <g id="line2d_16">
      <g>
       <use xlink:href="#m15409d307c" x="519.926547" y="576.718125" style="stroke: #000000; stroke-width: 0.8"/>
      </g>
     </g>
     <g id="text_8">
      <!-- 700 -->
      <g transform="translate(510.382797 591.316563) scale(0.1 -0.1)">
       <defs>
        <path id="DejaVuSans-37" d="M 525 4666 
L 3525 4666 
L 3525 4397 
L 1831 0 
L 1172 0 
L 2766 4134 
L 525 4134 
L 525 4666 
z
" transform="scale(0.015625)"/>
       </defs>
       <use xlink:href="#DejaVuSans-37"/>
       <use xlink:href="#DejaVuSans-30" transform="translate(63.623047 0)"/>
       <use xlink:href="#DejaVuSans-30" transform="translate(127.246094 0)"/>
      </g>
     </g>
    </g>
    <g id="xtick_9">
     <g id="line2d_17">
      <path d="M 583.414998 576.718125 
L 583.414998 22.318125 
" clip-path="url(#pa8fc489a48)" style="fill: none; stroke: #b0b0b0; stroke-width: 0.8; stroke-linecap: square"/>
     </g>
     <g id="line2d_18">
      <g>
       <use xlink:href="#m15409d307c" x="583.414998" y="576.718125" style="stroke: #000000; stroke-width: 0.8"/>
      </g>
     </g>
     <g id="text_9">
      <!-- 800 -->
      <g transform="translate(573.871248 591.316563) scale(0.1 -0.1)">
       <defs>
        <path id="DejaVuSans-38" d="M 2034 2216 
Q 1584 2216 1326 1975 
Q 1069 1734 1069 1313 
Q 1069 891 1326 650 
Q 1584 409 2034 409 
Q 2484 409 2743 651 
Q 3003 894 3003 1313 
Q 3003 1734 2745 1975 
Q 2488 2216 2034 2216 
z
M 1403 2484 
Q 997 2584 770 2862 
Q 544 3141 544 3541 
Q 544 4100 942 4425 
Q 1341 4750 2034 4750 
Q 2731 4750 3128 4425 
Q 3525 4100 3525 3541 
Q 3525 3141 3298 2862 
Q 3072 2584 2669 2484 
Q 3125 2378 3379 2068 
Q 3634 1759 3634 1313 
Q 3634 634 3220 271 
Q 2806 -91 2034 -91 
Q 1263 -91 848 271 
Q 434 634 434 1313 
Q 434 1759 690 2068 
Q 947 2378 1403 2484 
z
M 1172 3481 
Q 1172 3119 1398 2916 
Q 1625 2713 2034 2713 
Q 2441 2713 2670 2916 
Q 2900 3119 2900 3481 
Q 2900 3844 2670 4047 
Q 2441 4250 2034 4250 
Q 1625 4250 1398 4047 
Q 1172 3844 1172 3481 
z
" transform="scale(0.015625)"/>
       </defs>
       <use xlink:href="#DejaVuSans-38"/>
       <use xlink:href="#DejaVuSans-30" transform="translate(63.623047 0)"/>
       <use xlink:href="#DejaVuSans-30" transform="translate(127.246094 0)"/>
      </g>
     </g>
    </g>
    <g id="text_10">
     <!-- Epochs -->
     <g transform="translate(311.228125 604.994688) scale(0.1 -0.1)">
      <defs>
       <path id="DejaVuSans-45" d="M 628 4666 
L 3578 4666 
L 3578 4134 
L 1259 4134 
L 1259 2753 
L 3481 2753 
L 3481 2222 
L 1259 2222 
L 1259 531 
L 3634 531 
L 3634 0 
L 628 0 
L 628 4666 
z
" transform="scale(0.015625)"/>
       <path id="DejaVuSans-70" d="M 1159 525 
L 1159 -1331 
L 581 -1331 
L 581 3500 
L 1159 3500 
L 1159 2969 
Q 1341 3281 1617 3432 
Q 1894 3584 2278 3584 
Q 2916 3584 3314 3078 
Q 3713 2572 3713 1747 
Q 3713 922 3314 415 
Q 2916 -91 2278 -91 
Q 1894 -91 1617 61 
Q 1341 213 1159 525 
z
M 3116 1747 
Q 3116 2381 2855 2742 
Q 2594 3103 2138 3103 
Q 1681 3103 1420 2742 
Q 1159 2381 1159 1747 
Q 1159 1113 1420 752 
Q 1681 391 2138 391 
Q 2594 391 2855 752 
Q 3116 1113 3116 1747 
z
" transform="scale(0.015625)"/>
       <path id="DejaVuSans-6f" d="M 1959 3097 
Q 1497 3097 1228 2736 
Q 959 2375 959 1747 
Q 959 1119 1226 758 
Q 1494 397 1959 397 
Q 2419 397 2687 759 
Q 2956 1122 2956 1747 
Q 2956 2369 2687 2733 
Q 2419 3097 1959 3097 
z
M 1959 3584 
Q 2709 3584 3137 3096 
Q 3566 2609 3566 1747 
Q 3566 888 3137 398 
Q 2709 -91 1959 -91 
Q 1206 -91 779 398 
Q 353 888 353 1747 
Q 353 2609 779 3096 
Q 1206 3584 1959 3584 
z
" transform="scale(0.015625)"/>
       <path id="DejaVuSans-63" d="M 3122 3366 
L 3122 2828 
Q 2878 2963 2633 3030 
Q 2388 3097 2138 3097 
Q 1578 3097 1268 2742 
Q 959 2388 959 1747 
Q 959 1106 1268 751 
Q 1578 397 2138 397 
Q 2388 397 2633 464 
Q 2878 531 3122 666 
L 3122 134 
Q 2881 22 2623 -34 
Q 2366 -91 2075 -91 
Q 1284 -91 818 406 
Q 353 903 353 1747 
Q 353 2603 823 3093 
Q 1294 3584 2113 3584 
Q 2378 3584 2631 3529 
Q 2884 3475 3122 3366 
z
" transform="scale(0.015625)"/>
       <path id="DejaVuSans-68" d="M 3513 2113 
L 3513 0 
L 2938 0 
L 2938 2094 
Q 2938 2591 2744 2837 
Q 2550 3084 2163 3084 
Q 1697 3084 1428 2787 
Q 1159 2491 1159 1978 
L 1159 0 
L 581 0 
L 581 4863 
L 1159 4863 
L 1159 2956 
Q 1366 3272 1645 3428 
Q 1925 3584 2291 3584 
Q 2894 3584 3203 3211 
Q 3513 2838 3513 2113 
z
" transform="scale(0.015625)"/>
       <path id="DejaVuSans-73" d="M 2834 3397 
L 2834 2853 
Q 2591 2978 2328 3040 
Q 2066 3103 1784 3103 
Q 1356 3103 1142 2972 
Q 928 2841 928 2578 
Q 928 2378 1081 2264 
Q 1234 2150 1697 2047 
L 1894 2003 
Q 2506 1872 2764 1633 
Q 3022 1394 3022 966 
Q 3022 478 2636 193 
Q 2250 -91 1575 -91 
Q 1294 -91 989 -36 
Q 684 19 347 128 
L 347 722 
Q 666 556 975 473 
Q 1284 391 1588 391 
Q 1994 391 2212 530 
Q 2431 669 2431 922 
Q 2431 1156 2273 1281 
Q 2116 1406 1581 1522 
L 1381 1569 
Q 847 1681 609 1914 
Q 372 2147 372 2553 
Q 372 3047 722 3315 
Q 1072 3584 1716 3584 
Q 2034 3584 2315 3537 
Q 2597 3491 2834 3397 
z
" transform="scale(0.015625)"/>
      </defs>
      <use xlink:href="#DejaVuSans-45"/>
      <use xlink:href="#DejaVuSans-70" transform="translate(63.183594 0)"/>
      <use xlink:href="#DejaVuSans-6f" transform="translate(126.660156 0)"/>
      <use xlink:href="#DejaVuSans-63" transform="translate(187.841797 0)"/>
      <use xlink:href="#DejaVuSans-68" transform="translate(242.822266 0)"/>
      <use xlink:href="#DejaVuSans-73" transform="translate(306.201172 0)"/>
     </g>
    </g>
   </g>
   <g id="matplotlib.axis_2">
    <g id="ytick_1">
     <g id="line2d_19">
      <path d="M 50.14375 561.811681 
L 608.14375 561.811681 
" clip-path="url(#pa8fc489a48)" style="fill: none; stroke: #b0b0b0; stroke-width: 0.8; stroke-linecap: square"/>
     </g>
     <g id="line2d_20">
      <defs>
       <path id="m9836423c07" d="M 0 0 
L -3.5 0 
" style="stroke: #000000; stroke-width: 0.8"/>
      </defs>
      <g>
       <use xlink:href="#m9836423c07" x="50.14375" y="561.811681" style="stroke: #000000; stroke-width: 0.8"/>
      </g>
     </g>
     <g id="text_11">
      <!-- 0.58 -->
      <g transform="translate(20.878125 565.6109) scale(0.1 -0.1)">
       <defs>
        <path id="DejaVuSans-2e" d="M 684 794 
L 1344 794 
L 1344 0 
L 684 0 
L 684 794 
z
" transform="scale(0.015625)"/>
       </defs>
       <use xlink:href="#DejaVuSans-30"/>
       <use xlink:href="#DejaVuSans-2e" transform="translate(63.623047 0)"/>
       <use xlink:href="#DejaVuSans-35" transform="translate(95.410156 0)"/>
       <use xlink:href="#DejaVuSans-38" transform="translate(159.033203 0)"/>
      </g>
     </g>
    </g>
    <g id="ytick_2">
     <g id="line2d_21">
      <path d="M 50.14375 460.071636 
L 608.14375 460.071636 
" clip-path="url(#pa8fc489a48)" style="fill: none; stroke: #b0b0b0; stroke-width: 0.8; stroke-linecap: square"/>
     </g>
     <g id="line2d_22">
      <g>
       <use xlink:href="#m9836423c07" x="50.14375" y="460.071636" style="stroke: #000000; stroke-width: 0.8"/>
      </g>
     </g>
     <g id="text_12">
      <!-- 0.60 -->
      <g transform="translate(20.878125 463.870855) scale(0.1 -0.1)">
       <use xlink:href="#DejaVuSans-30"/>
       <use xlink:href="#DejaVuSans-2e" transform="translate(63.623047 0)"/>
       <use xlink:href="#DejaVuSans-36" transform="translate(95.410156 0)"/>
       <use xlink:href="#DejaVuSans-30" transform="translate(159.033203 0)"/>
      </g>
     </g>
    </g>
    <g id="ytick_3">
     <g id="line2d_23">
      <path d="M 50.14375 358.331592 
L 608.14375 358.331592 
" clip-path="url(#pa8fc489a48)" style="fill: none; stroke: #b0b0b0; stroke-width: 0.8; stroke-linecap: square"/>
     </g>
     <g id="line2d_24">
      <g>
       <use xlink:href="#m9836423c07" x="50.14375" y="358.331592" style="stroke: #000000; stroke-width: 0.8"/>
      </g>
     </g>
     <g id="text_13">
      <!-- 0.62 -->
      <g transform="translate(20.878125 362.13081) scale(0.1 -0.1)">
       <use xlink:href="#DejaVuSans-30"/>
       <use xlink:href="#DejaVuSans-2e" transform="translate(63.623047 0)"/>
       <use xlink:href="#DejaVuSans-36" transform="translate(95.410156 0)"/>
       <use xlink:href="#DejaVuSans-32" transform="translate(159.033203 0)"/>
      </g>
     </g>
    </g>
    <g id="ytick_4">
     <g id="line2d_25">
      <path d="M 50.14375 256.591547 
L 608.14375 256.591547 
" clip-path="url(#pa8fc489a48)" style="fill: none; stroke: #b0b0b0; stroke-width: 0.8; stroke-linecap: square"/>
     </g>
     <g id="line2d_26">
      <g>
       <use xlink:href="#m9836423c07" x="50.14375" y="256.591547" style="stroke: #000000; stroke-width: 0.8"/>
      </g>
     </g>
     <g id="text_14">
      <!-- 0.64 -->
      <g transform="translate(20.878125 260.390765) scale(0.1 -0.1)">
       <use xlink:href="#DejaVuSans-30"/>
       <use xlink:href="#DejaVuSans-2e" transform="translate(63.623047 0)"/>
       <use xlink:href="#DejaVuSans-36" transform="translate(95.410156 0)"/>
       <use xlink:href="#DejaVuSans-34" transform="translate(159.033203 0)"/>
      </g>
     </g>
    </g>
    <g id="ytick_5">
     <g id="line2d_27">
      <path d="M 50.14375 154.851502 
L 608.14375 154.851502 
" clip-path="url(#pa8fc489a48)" style="fill: none; stroke: #b0b0b0; stroke-width: 0.8; stroke-linecap: square"/>
     </g>
     <g id="line2d_28">
      <g>
       <use xlink:href="#m9836423c07" x="50.14375" y="154.851502" style="stroke: #000000; stroke-width: 0.8"/>
      </g>
     </g>
     <g id="text_15">
      <!-- 0.66 -->
      <g transform="translate(20.878125 158.650721) scale(0.1 -0.1)">
       <use xlink:href="#DejaVuSans-30"/>
       <use xlink:href="#DejaVuSans-2e" transform="translate(63.623047 0)"/>
       <use xlink:href="#DejaVuSans-36" transform="translate(95.410156 0)"/>
       <use xlink:href="#DejaVuSans-36" transform="translate(159.033203 0)"/>
      </g>
     </g>
    </g>
    <g id="ytick_6">
     <g id="line2d_29">
      <path d="M 50.14375 53.111457 
L 608.14375 53.111457 
" clip-path="url(#pa8fc489a48)" style="fill: none; stroke: #b0b0b0; stroke-width: 0.8; stroke-linecap: square"/>
     </g>
     <g id="line2d_30">
      <g>
       <use xlink:href="#m9836423c07" x="50.14375" y="53.111457" style="stroke: #000000; stroke-width: 0.8"/>
      </g>
     </g>
     <g id="text_16">
      <!-- 0.68 -->
      <g transform="translate(20.878125 56.910676) scale(0.1 -0.1)">
       <use xlink:href="#DejaVuSans-30"/>
       <use xlink:href="#DejaVuSans-2e" transform="translate(63.623047 0)"/>
       <use xlink:href="#DejaVuSans-36" transform="translate(95.410156 0)"/>
       <use xlink:href="#DejaVuSans-38" transform="translate(159.033203 0)"/>
      </g>
     </g>
    </g>
    <g id="text_17">
     <!-- Loss -->
     <g transform="translate(14.798437 310.485313) rotate(-90) scale(0.1 -0.1)">
      <defs>
       <path id="DejaVuSans-4c" d="M 628 4666 
L 1259 4666 
L 1259 531 
L 3531 531 
L 3531 0 
L 628 0 
L 628 4666 
z
" transform="scale(0.015625)"/>
      </defs>
      <use xlink:href="#DejaVuSans-4c"/>
      <use xlink:href="#DejaVuSans-6f" transform="translate(53.962891 0)"/>
      <use xlink:href="#DejaVuSans-73" transform="translate(115.144531 0)"/>
      <use xlink:href="#DejaVuSans-73" transform="translate(167.244141 0)"/>
     </g>
    </g>
   </g>
   <g id="line2d_31">
    <path d="M 75.507386 50.865249 
L 76.142271 159.651773 
L 76.777155 189.59669 
L 77.41204 203.363589 
L 78.046924 210.790087 
L 78.681809 215.837606 
L 79.316693 219.56647 
L 80.586462 225.137935 
L 81.856232 229.38195 
L 83.126001 232.864912 
L 85.030654 237.278118 
L 86.935308 241.12584 
L 89.474846 245.692167 
L 92.649268 250.696631 
L 97.728344 257.601609 
L 102.172536 262.846214 
L 103.442305 264.334364 
L 104.712074 265.676973 
L 105.981843 267.075069 
L 107.251612 268.43769 
L 108.521381 269.70662 
L 112.330688 273.481571 
L 113.600457 274.637707 
L 115.505111 276.470302 
L 116.77488 277.681319 
L 119.949302 280.489034 
L 120.584187 281.152152 
L 121.219071 281.575431 
L 122.48884 282.82253 
L 123.758609 283.831609 
L 125.663263 285.557778 
L 127.567917 287.182068 
L 128.202801 287.77181 
L 128.837686 288.193877 
L 129.47257 288.853356 
L 130.107455 289.260566 
L 132.012108 291.077697 
L 132.646993 291.400918 
L 133.281877 292.05494 
L 135.186531 293.600092 
L 146.614452 303.065063 
L 147.249337 303.448926 
L 151.693528 307.142314 
L 156.13772 310.639526 
L 156.772604 311.048859 
L 158.042373 312.193169 
L 159.947027 313.661004 
L 160.581911 314.080948 
L 161.85168 315.163707 
L 164.391218 317.090904 
L 165.026103 317.761299 
L 165.660987 318.120904 
L 166.930756 319.134835 
L 168.83541 320.515649 
L 170.105179 321.58537 
L 170.740064 321.923448 
L 171.374948 322.611429 
L 173.914486 324.384898 
L 175.184255 325.423086 
L 175.81914 325.921561 
L 176.454024 326.262065 
L 178.358678 327.846029 
L 178.993562 328.077984 
L 180.263331 329.198037 
L 185.977292 333.325924 
L 186.612176 333.92931 
L 187.247061 334.312263 
L 187.881945 334.836814 
L 188.51683 335.073317 
L 191.056368 337.027499 
L 193.595906 338.928013 
L 194.230791 339.253356 
L 195.50056 340.22029 
L 199.309867 342.983433 
L 199.944751 343.259656 
L 201.21452 344.344235 
L 203.754058 345.878775 
L 205.023827 346.926059 
L 213.912211 352.838634 
L 214.547095 353.503268 
L 216.451749 354.544487 
L 217.086633 355.183955 
L 218.356402 355.856169 
L 219.626171 356.921342 
L 220.261056 357.119338 
L 220.89594 357.683003 
L 224.070363 359.666596 
L 224.705247 360.263312 
L 228.514554 362.760541 
L 229.149439 362.981277 
L 231.054092 364.468517 
L 231.688977 364.68713 
L 232.958746 365.706216 
L 234.8634 366.806258 
L 235.498284 367.431778 
L 236.133169 367.549423 
L 237.402938 368.626724 
L 238.037822 368.845641 
L 238.672707 369.520281 
L 239.307591 369.779222 
L 240.57736 370.579996 
L 241.212245 371.16428 
L 241.847129 371.304969 
L 242.482014 371.630312 
L 243.116898 372.263413 
L 244.386667 372.954123 
L 246.926205 374.538389 
L 247.56109 374.867068 
L 248.195974 375.535037 
L 248.830859 375.750922 
L 249.465743 376.261829 
L 251.370397 377.381277 
L 253.27505 378.624737 
L 253.909935 378.838802 
L 255.179704 379.833328 
L 255.814589 380.108641 
L 257.084358 381.154712 
L 257.719242 381.434877 
L 258.989011 382.225949 
L 259.623896 382.502779 
L 262.163434 384.251385 
L 264.702972 385.795325 
L 265.337856 385.944807 
L 265.972741 386.563657 
L 266.607625 386.837455 
L 267.24251 387.396269 
L 271.051817 389.632435 
L 271.686701 390.158806 
L 272.95647 390.939569 
L 273.591355 391.357997 
L 274.226239 391.54447 
L 275.496009 392.501398 
L 276.130893 392.729411 
L 276.765778 393.408902 
L 277.400662 393.670269 
L 278.670431 394.447393 
L 279.305316 394.781833 
L 279.9402 395.271515 
L 282.479738 396.547115 
L 283.114623 397.256624 
L 283.749507 397.402164 
L 285.019276 398.20112 
L 286.289045 399.162596 
L 286.92393 399.36241 
L 287.558814 399.708675 
L 288.828583 400.678034 
L 289.463468 400.864204 
L 290.098352 401.209863 
L 291.368121 402.178312 
L 294.542544 403.883559 
L 295.177428 404.388402 
L 295.812313 404.638246 
L 296.447197 405.178261 
L 297.082082 405.36989 
L 298.351851 406.229487 
L 298.986736 406.42627 
L 300.891389 407.925335 
L 302.161158 408.478085 
L 302.796043 409.010216 
L 303.430927 409.21367 
L 304.700696 409.988368 
L 309.144888 412.604152 
L 310.414657 413.40614 
L 311.049541 413.615051 
L 311.684426 414.154156 
L 312.31931 414.28302 
L 314.223964 415.633816 
L 314.858848 415.804523 
L 315.493733 416.400025 
L 316.128617 416.735981 
L 316.763502 417.218689 
L 317.398386 417.553432 
L 318.033271 417.723835 
L 318.668156 418.119826 
L 319.30304 418.649532 
L 319.937925 418.914537 
L 320.572809 419.032789 
L 321.207694 419.616769 
L 321.842578 420.038836 
L 322.477463 420.213181 
L 323.747232 421.123111 
L 324.382116 421.737109 
L 325.017001 421.758031 
L 325.651885 422.283492 
L 326.28677 422.4921 
L 326.921654 422.955403 
L 327.556539 423.106401 
L 328.191423 423.796808 
L 328.826308 423.948412 
L 329.461192 424.479028 
L 330.096077 424.714015 
L 330.730961 425.233109 
L 331.365846 425.332864 
L 332.00073 425.826792 
L 332.635615 426.160625 
L 333.270499 426.762495 
L 333.905384 426.892874 
L 334.540268 427.193658 
L 335.175153 427.659993 
L 335.810037 427.87133 
L 336.444922 428.459555 
L 338.349575 429.323397 
L 340.254229 430.561703 
L 340.889114 430.81185 
L 341.523998 431.369755 
L 342.158883 431.652042 
L 342.793767 432.16871 
L 343.428652 432.237236 
L 344.698421 433.124122 
L 345.96819 433.682936 
L 346.603074 434.179895 
L 347.872843 434.676248 
L 348.507728 435.239308 
L 349.142612 435.604371 
L 349.777497 435.837236 
L 350.412381 436.399082 
L 351.047266 436.786583 
L 352.317035 437.268988 
L 352.951919 437.700758 
L 354.856573 438.608262 
L 355.491457 439.169199 
L 356.761226 439.730742 
L 357.396111 440.27106 
L 358.030995 440.45147 
L 360.570533 441.998138 
L 361.205418 442.18249 
L 361.840303 442.539366 
L 362.475187 443.080291 
L 363.744956 443.668517 
L 365.014725 444.552674 
L 365.64961 444.770378 
L 366.284494 444.858612 
L 366.919379 445.445928 
L 373.268224 448.965577 
L 375.172877 450.176897 
L 375.807762 450.448572 
L 376.442646 450.430076 
L 377.077531 451.076215 
L 378.3473 451.731753 
L 378.982184 452.015859 
L 379.617069 452.500387 
L 381.521722 453.207774 
L 382.156607 453.82541 
L 382.791491 454.032805 
L 383.426376 454.520365 
L 384.696145 454.976998 
L 386.600799 456.229251 
L 387.235683 456.33022 
L 387.870568 456.591889 
L 388.505452 457.332022 
L 389.140337 457.398425 
L 391.679875 458.875356 
L 392.949644 459.353819 
L 393.584528 459.898989 
L 394.219413 460.078186 
L 396.758951 461.779794 
L 397.393835 461.817392 
L 398.02872 462.458679 
L 399.298489 462.898332 
L 400.568258 463.54538 
L 401.838027 464.208801 
L 402.472911 464.645119 
L 403.74268 465.104481 
L 404.377565 465.65905 
L 405.01245 465.822176 
L 405.647334 466.551697 
L 407.551988 467.266664 
L 408.186872 467.703891 
L 408.821757 467.964348 
L 409.456641 468.5362 
L 410.72641 468.814849 
L 411.361295 469.059235 
L 411.996179 469.65777 
L 412.631064 470.097119 
L 413.900833 470.591956 
L 414.535717 471.05344 
L 415.170602 471.263261 
L 415.805486 471.753247 
L 417.075255 472.207454 
L 417.71014 472.795679 
L 418.345024 473.08676 
L 418.979909 473.104952 
L 419.614793 473.783231 
L 420.249678 473.695603 
L 420.884562 474.339619 
L 421.519447 474.701044 
L 422.154331 474.794433 
L 422.789216 475.135846 
L 423.4241 475.779255 
L 424.058985 475.969064 
L 428.503177 478.276788 
L 429.772946 479.090904 
L 430.40783 479.471431 
L 431.042715 479.272223 
L 431.677599 479.896833 
L 434.852022 481.607841 
L 435.486906 481.633008 
L 436.121791 482.247915 
L 436.756675 482.465316 
L 437.39156 482.850391 
L 438.026444 483.374337 
L 439.296213 483.707563 
L 439.931098 484.306098 
L 440.565982 484.726042 
L 442.470636 485.499225 
L 443.10552 485.916744 
L 443.740405 486.1299 
L 444.375289 486.564095 
L 445.010174 486.705997 
L 445.645058 487.232671 
L 446.914827 487.776627 
L 447.549712 488.383955 
L 448.184597 488.382136 
L 448.819481 488.81815 
L 449.454366 488.97218 
L 450.08925 489.292066 
L 450.724135 489.82632 
L 451.359019 489.89242 
L 451.993904 490.434557 
L 453.263673 490.795982 
L 454.533442 491.747149 
L 455.803211 492.138895 
L 456.438095 492.724998 
L 457.07298 492.76108 
L 457.707864 493.112499 
L 458.977633 494.044563 
L 460.247402 494.170092 
L 462.78694 495.791047 
L 463.421825 495.97085 
L 464.691594 496.634877 
L 465.961363 497.2134 
L 466.596247 497.655479 
L 467.231132 497.795561 
L 467.866016 498.107563 
L 468.500901 498.703975 
L 469.135785 498.659404 
L 469.77067 499.22034 
L 471.040439 499.740343 
L 471.675324 500.318866 
L 473.579977 501.01746 
L 474.849746 501.770631 
L 476.119515 502.060802 
L 476.7544 502.493481 
L 478.024169 503.152657 
L 478.659053 503.476181 
L 479.293938 504.025293 
L 480.563707 504.573798 
L 481.198591 504.791198 
L 481.833476 505.221149 
L 482.46836 505.467961 
L 483.738129 506.162612 
L 484.373014 506.075895 
L 485.007898 506.716272 
L 485.642783 507.121662 
L 486.277667 507.359985 
L 486.912552 507.47672 
L 487.547436 508.069797 
L 488.817205 508.581614 
L 489.45209 508.598896 
L 491.991628 510.035197 
L 492.626513 510.229251 
L 493.261397 510.815657 
L 493.896282 510.667994 
L 494.531166 511.469982 
L 496.43582 512.251958 
L 497.705589 512.480274 
L 498.340473 513.055159 
L 498.975358 513.416584 
L 500.245127 513.820458 
L 504.689318 516.221873 
L 505.324203 516.242491 
L 509.13351 518.044765 
L 509.768394 518.782473 
L 510.403279 518.657247 
L 511.038163 519.283374 
L 511.673048 519.310359 
L 512.942817 520.078085 
L 513.577702 519.778211 
L 514.212586 520.528653 
L 514.847471 520.696024 
L 516.11724 521.516811 
L 518.021893 522.288175 
L 518.656778 522.564398 
L 519.291662 523.329091 
L 519.926547 523.264204 
L 521.8312 524.361821 
L 522.466085 524.564668 
L 523.100969 524.98825 
L 523.735854 525.104076 
L 525.005623 525.694121 
L 525.640507 525.916373 
L 526.275392 526.277192 
L 526.910276 526.469426 
L 527.545161 526.997616 
L 528.81493 527.541876 
L 529.449814 527.656489 
L 531.354468 528.766537 
L 532.624237 529.282599 
L 533.259121 529.626438 
L 533.894006 529.777436 
L 534.528891 530.171001 
L 535.163775 530.347772 
L 535.79866 530.779542 
L 536.433544 531.018167 
L 537.068429 531.049094 
L 537.703313 531.509366 
L 538.338198 532.150349 
L 538.973082 532.043923 
L 539.607967 532.419599 
L 540.242851 532.472054 
L 540.877736 533.159732 
L 541.51262 533.294357 
L 542.147505 533.608481 
L 543.417274 534.024484 
L 545.321927 535.140596 
L 546.591696 535.493835 
L 547.861465 536.426505 
L 549.131234 536.736688 
L 549.766119 537.072644 
L 550.401003 537.236376 
L 551.035888 537.774876 
L 551.670772 538.158132 
L 552.305657 538.002282 
L 552.940541 538.503487 
L 553.575426 538.374017 
L 554.21031 538.91767 
L 554.845195 539.209964 
L 555.48008 539.7236 
L 556.114964 539.549254 
L 556.749849 540.256035 
L 557.384733 540.107462 
L 558.019618 540.740866 
L 559.289387 541.179912 
L 559.924271 541.687787 
L 561.19404 542.296328 
L 561.828925 542.319978 
L 562.463809 542.985218 
L 563.098694 542.987644 
L 564.368463 543.652885 
L 565.003347 543.652278 
L 566.273116 544.62194 
L 566.908001 544.846012 
L 567.542885 544.764449 
L 568.812654 545.446669 
L 569.447539 545.967885 
L 570.082423 545.936048 
L 570.717308 546.398745 
L 571.987077 546.902072 
L 572.621961 547.025175 
L 573.256846 547.440874 
L 573.89173 548.041531 
L 574.526615 547.713459 
L 575.161499 548.337463 
L 575.796384 548.689489 
L 577.066153 548.867169 
L 577.701038 549.387476 
L 578.335922 549.443872 
L 578.970807 549.920517 
L 580.87546 550.658528 
L 581.510345 551.182776 
L 582.780114 551.518125 
L 582.780114 551.518125 
" clip-path="url(#pa8fc489a48)" style="fill: none; stroke: #1f77b4; stroke-width: 1.5; stroke-linecap: square"/>
   </g>
   <g id="line2d_32">
    <path d="M 75.507386 134.02819 
L 76.142271 179.785151 
L 76.777155 199.811193 
L 77.41204 209.283138 
L 78.046924 215.230582 
L 78.681809 217.99706 
L 79.316693 222.177706 
L 79.951578 224.070033 
L 80.586462 225.209492 
L 81.221347 228.508102 
L 81.856232 228.834658 
L 82.491116 231.738794 
L 83.126001 232.297911 
L 83.760885 234.272711 
L 84.39577 233.992546 
L 85.665539 236.496749 
L 86.300423 239.131028 
L 86.935308 239.479415 
L 87.570192 239.690752 
L 88.205077 241.145852 
L 88.839961 241.834136 
L 89.474846 243.373225 
L 90.10973 243.267405 
L 90.744615 243.552421 
L 91.379499 244.805281 
L 92.014384 246.345885 
L 92.649268 244.447797 
L 93.284153 244.003899 
L 93.919037 247.821907 
L 94.553922 249.28398 
L 95.188806 249.072037 
L 96.458575 251.09626 
L 97.728344 251.601103 
L 98.363229 251.602013 
L 98.998113 252.237539 
L 99.632998 252.584713 
L 100.267882 252.759058 
L 100.902767 253.906098 
L 101.537651 254.798138 
L 102.172536 253.959159 
L 102.80742 254.417308 
L 103.442305 255.69685 
L 104.07719 256.311758 
L 104.712074 256.50945 
L 105.346959 256.395443 
L 105.981843 257.317199 
L 106.616728 257.45243 
L 107.251612 257.080999 
L 109.156266 258.902072 
L 109.79115 258.794433 
L 110.426035 259.658881 
L 111.060919 259.715885 
L 111.695804 259.645843 
L 112.330688 260.126733 
L 113.600457 259.764095 
L 114.235342 260.408414 
L 114.870226 259.75985 
L 115.505111 261.292268 
L 116.139995 261.194938 
L 116.77488 260.228308 
L 117.409764 260.623995 
L 118.044649 261.604876 
L 118.679533 261.747991 
L 119.314418 262.036343 
L 119.949302 263.003276 
L 120.584187 261.672189 
L 121.219071 262.328939 
L 121.853956 262.734633 
L 122.48884 260.603074 
L 123.123725 262.452952 
L 123.758609 261.909601 
L 124.393494 262.74282 
L 125.028379 261.956599 
L 125.663263 263.5063 
L 126.298148 263.535408 
L 126.933032 264.18943 
L 127.567917 263.946559 
L 128.202801 261.565156 
L 128.837686 264.570867 
L 129.47257 263.7898 
L 130.107455 263.932005 
L 130.742339 263.557239 
L 131.377224 264.830717 
L 132.012108 263.62819 
L 132.646993 264.440183 
L 133.281877 265.482009 
L 133.916762 264.962916 
L 134.551646 265.936216 
L 135.186531 264.424113 
L 135.821415 265.504447 
L 136.4563 265.244294 
L 137.091184 263.693683 
L 137.726069 265.24581 
L 138.360953 263.565122 
L 138.995838 265.540226 
L 139.630722 265.287046 
L 140.265607 265.346475 
L 140.900491 265.784309 
L 141.535376 265.974421 
L 142.17026 265.611176 
L 142.805145 265.479887 
L 143.440029 266.590541 
L 144.074914 265.736099 
L 144.709798 265.759749 
L 145.344683 266.023844 
L 145.979567 265.315245 
L 146.614452 264.40774 
L 147.249337 265.780973 
L 147.884221 265.662722 
L 148.519106 266.782169 
L 149.15399 266.373444 
L 149.788875 264.950181 
L 150.423759 266.173023 
L 151.058644 265.766116 
L 151.693528 263.241295 
L 152.328413 264.257652 
L 152.963297 266.17181 
L 153.598182 265.297962 
L 154.233066 265.357087 
L 154.867951 265.956835 
L 155.502835 265.79007 
L 156.13772 266.391636 
L 156.772604 266.75579 
L 157.407489 266.007471 
L 158.042373 266.089337 
L 158.677258 266.896782 
L 159.312142 265.875271 
L 159.947027 266.438331 
L 160.581911 265.383163 
L 161.216796 264.730354 
L 161.85168 266.991687 
L 162.486565 266.223962 
L 163.121449 265.040234 
L 163.756334 264.316777 
L 164.391218 265.281285 
L 165.026103 265.711539 
L 165.660987 264.28494 
L 166.295872 264.972012 
L 166.930756 265.225495 
L 167.565641 262.458106 
L 168.200526 264.282515 
L 168.83541 265.712145 
L 169.470295 264.243401 
L 170.105179 265.232165 
L 170.740064 263.890769 
L 171.374948 266.418622 
L 172.009833 264.344066 
L 172.644717 265.677276 
L 173.279602 262.594854 
L 174.549371 264.83011 
L 175.184255 263.432923 
L 175.81914 265.374067 
L 176.454024 263.917148 
L 177.088909 263.201272 
L 177.723793 262.906856 
L 178.358678 262.467203 
L 178.993562 264.282515 
L 179.628447 261.808936 
L 180.263331 264.429268 
L 180.898216 262.66065 
L 181.5331 264.249768 
L 182.167985 264.95291 
L 182.802869 261.187055 
L 183.437754 261.892925 
L 184.072638 264.385606 
L 184.707523 261.391417 
L 185.342407 263.741287 
L 185.977292 261.991771 
L 186.612176 262.687332 
L 187.247061 262.318934 
L 187.881945 261.378076 
L 188.51683 261.815607 
L 189.151715 261.150973 
L 189.786599 260.691308 
L 190.421484 262.354712 
L 191.056368 261.808936 
L 191.691253 261.113981 
L 192.326137 262.609408 
L 192.961022 256.115885 
L 193.595906 261.046366 
L 194.230791 261.257399 
L 194.865675 260.673419 
L 195.50056 260.440251 
L 196.135444 261.139754 
L 196.770329 260.460566 
L 197.405213 259.955116 
L 198.040098 258.050661 
L 198.674982 259.786532 
L 199.309867 259.029116 
L 199.944751 260.000598 
L 200.579636 260.230127 
L 201.21452 257.688326 
L 201.849405 259.356885 
L 202.484289 256.903622 
L 203.119174 257.902998 
L 203.754058 260.342921 
L 205.023827 259.048218 
L 205.658712 259.646753 
L 206.293596 259.490904 
L 207.563365 255.377571 
L 208.19825 258.112819 
L 208.833134 258.904194 
L 209.468019 257.226539 
L 210.102903 257.591906 
L 210.737788 255.738389 
L 211.372673 256.094054 
L 212.007557 255.861796 
L 212.642442 253.835147 
L 213.277326 253.984326 
L 213.912211 255.649246 
L 214.547095 256.479735 
L 215.18198 254.437017 
L 215.816864 255.567076 
L 216.451749 255.057989 
L 217.086633 255.985505 
L 217.721518 255.055563 
L 218.356402 255.634692 
L 218.991287 255.444883 
L 219.626171 255.044041 
L 220.261056 254.981883 
L 220.89594 252.821216 
L 221.530825 254.544656 
L 222.165709 255.334212 
L 222.800594 253.670201 
L 223.435478 252.897018 
L 224.070363 252.387324 
L 224.705247 251.365207 
L 225.340132 251.118091 
L 225.975016 251.907041 
L 226.609901 253.07864 
L 227.244785 252.846989 
L 227.87967 253.313931 
L 228.514554 252.459488 
L 229.149439 250.680258 
L 229.784323 251.816382 
L 230.419208 252.418555 
L 231.054092 250.628106 
L 231.688977 249.354022 
L 232.323862 251.517418 
L 232.958746 251.184797 
L 233.593631 251.161147 
L 234.228515 250.120231 
L 234.8634 249.756077 
L 235.498284 248.450156 
L 236.133169 248.79642 
L 236.768053 249.741523 
L 237.402938 248.368289 
L 238.037822 248.359193 
L 238.672707 246.049044 
L 239.307591 248.696968 
L 239.942476 249.28489 
L 240.57736 248.721528 
L 241.847129 245.754325 
L 242.482014 245.889253 
L 243.116898 247.374673 
L 243.751783 246.194887 
L 244.386667 246.274328 
L 245.021552 245.724004 
L 245.656436 240.180131 
L 246.291321 245.664878 
L 246.926205 245.690651 
L 247.56109 247.332527 
L 248.195974 245.596656 
L 248.830859 242.419633 
L 249.465743 244.052716 
L 250.100628 244.298922 
L 250.735512 244.164297 
L 251.370397 241.249246 
L 252.005281 242.448741 
L 252.640166 240.414209 
L 253.27505 243.197364 
L 253.909935 239.570378 
L 254.54482 242.823507 
L 255.179704 238.68895 
L 255.814589 243.437505 
L 256.449473 240.124038 
L 257.084358 240.625545 
L 257.719242 241.563371 
L 258.354127 236.440655 
L 258.989011 241.531837 
L 259.623896 242.738608 
L 260.25878 240.351444 
L 262.163434 238.513392 
L 262.798318 240.285951 
L 263.433203 235.814529 
L 264.068087 237.944875 
L 265.337856 238.821452 
L 265.972741 238.322673 
L 266.607625 236.569822 
L 267.24251 237.774168 
L 267.877394 236.649566 
L 268.512279 235.923077 
L 269.147163 233.757256 
L 269.782048 237.814798 
L 271.051817 235.83454 
L 271.686701 234.427044 
L 272.321586 232.344302 
L 272.95647 229.82979 
L 273.591355 233.317906 
L 274.226239 233.326093 
L 274.861124 235.098046 
L 275.496009 232.845203 
L 276.130893 233.556228 
L 276.765778 232.760305 
L 277.400662 232.680864 
L 278.035547 233.876114 
L 278.670431 233.384612 
L 279.305316 231.420728 
L 279.9402 232.508945 
L 280.575085 227.955656 
L 281.209969 230.765796 
L 281.844854 230.342213 
L 282.479738 228.505373 
L 283.114623 227.221587 
L 283.749507 231.650863 
L 284.384392 230.493211 
L 285.019276 228.847393 
L 285.654161 228.36802 
L 286.289045 228.767952 
L 286.92393 228.035399 
L 287.558814 230.251554 
L 288.828583 228.581782 
L 289.463468 225.272863 
L 290.098352 223.75227 
L 290.733237 228.038432 
L 291.368121 225.037572 
L 292.003006 227.942011 
L 292.63789 225.038179 
L 293.272775 225.925368 
L 293.907659 226.042104 
L 294.542544 227.003276 
L 295.177428 218.643805 
L 295.812313 223.280173 
L 296.447197 222.296867 
L 297.082082 222.595831 
L 297.716967 224.451166 
L 298.351851 216.419767 
L 298.986736 222.864474 
L 299.62162 219.81783 
L 300.256505 218.061037 
L 300.891389 221.936958 
L 301.526274 222.226219 
L 302.161158 222.81596 
L 302.796043 217.119574 
L 303.430927 218.804506 
L 304.065812 217.632906 
L 304.700696 218.370007 
L 305.335581 216.733285 
L 305.970465 220.887551 
L 306.60535 218.579222 
L 307.240234 217.996757 
L 307.875119 219.477933 
L 308.510003 215.576846 
L 309.144888 215.666596 
L 309.779772 215.251806 
L 310.414657 215.404017 
L 311.049541 217.897305 
L 311.684426 213.23486 
L 312.31931 212.522016 
L 312.954195 216.551663 
L 313.589079 217.388217 
L 314.223964 210.83951 
L 314.858848 209.996892 
L 315.493733 214.715733 
L 316.763502 210.389244 
L 317.398386 214.403731 
L 318.033271 209.975061 
L 318.668156 214.474075 
L 319.30304 206.762259 
L 319.937925 211.705474 
L 320.572809 212.874042 
L 321.207694 211.550838 
L 321.842578 209.915935 
L 322.477463 213.30096 
L 323.112347 208.217055 
L 323.747232 210.992024 
L 324.382116 208.331972 
L 325.017001 208.610317 
L 325.651885 208.702796 
L 326.28677 210.788267 
L 326.921654 208.787695 
L 327.556539 208.170058 
L 328.191423 208.349861 
L 328.826308 207.177655 
L 329.461192 209.150636 
L 330.096077 206.527575 
L 330.730961 201.046467 
L 331.365846 203.429083 
L 332.635615 206.204354 
L 333.270499 202.789615 
L 333.905384 205.881437 
L 334.540268 204.248656 
L 335.175153 206.884149 
L 336.444922 201.601642 
L 337.079806 202.823574 
L 337.714691 200.886069 
L 338.349575 198.357913 
L 338.98446 198.658696 
L 340.254229 203.307799 
L 340.889114 199.919439 
L 341.523998 199.155352 
L 342.158883 196.203613 
L 342.793767 197.874294 
L 343.428652 197.653255 
L 344.698421 198.215708 
L 345.333305 201.7772 
L 345.96819 199.509197 
L 346.603074 196.288815 
L 347.237959 196.777588 
L 347.872843 201.49279 
L 349.142612 197.6575 
L 349.777497 198.209947 
L 350.412381 195.696951 
L 351.047266 196.032906 
L 351.68215 198.730253 
L 352.951919 193.01719 
L 353.586804 194.267624 
L 354.221688 197.56108 
L 354.856573 192.87074 
L 355.491457 195.014124 
L 356.126342 194.055984 
L 356.761226 192.750669 
L 357.396111 190.514503 
L 358.030995 189.927491 
L 358.66588 193.999284 
L 359.300764 187.828982 
L 359.935649 193.525065 
L 360.570533 190.865013 
L 361.205418 187.599452 
L 361.840303 192.687299 
L 362.475187 188.572147 
L 363.110072 192.031458 
L 364.379841 186.010637 
L 365.014725 186.4606 
L 365.64961 191.17186 
L 366.284494 189.803478 
L 366.919379 187.744386 
L 367.554263 187.942988 
L 368.189148 188.500589 
L 368.824032 187.694357 
L 369.458917 186.514571 
L 370.093801 188.377487 
L 370.728686 186.951192 
L 371.36357 186.127676 
L 371.998455 185.871768 
L 372.633339 187.091274 
L 373.268224 177.9662 
L 373.903108 183.612558 
L 374.537993 181.458864 
L 375.172877 177.07325 
L 375.807762 182.520399 
L 376.442646 179.969199 
L 377.077531 182.414882 
L 378.3473 174.232485 
L 378.982184 178.635079 
L 379.617069 174.106047 
L 380.251953 181.040739 
L 380.886838 178.917973 
L 381.521722 180.50224 
L 382.156607 179.57715 
L 382.791491 177.438617 
L 383.426376 174.032671 
L 384.061261 177.074463 
L 384.696145 175.859808 
L 385.33103 180.548025 
L 385.965914 178.048673 
L 386.600799 178.339754 
L 387.235683 173.805567 
L 387.870568 175.590558 
L 388.505452 180.568037 
L 389.140337 176.416196 
L 389.775221 174.120904 
L 390.410106 174.391367 
L 391.04499 174.449583 
L 391.679875 176.267321 
L 392.314759 170.050324 
L 392.949644 170.87293 
L 393.584528 169.63887 
L 394.219413 175.340108 
L 394.854297 169.892049 
L 395.489182 172.569384 
L 396.124066 171.279836 
L 396.758951 172.992361 
L 397.393835 169.878405 
L 398.02872 174.159412 
L 398.663604 173.184898 
L 399.298489 169.741354 
L 399.933373 172.536334 
L 400.568258 165.805702 
L 401.203142 173.102426 
L 401.838027 166.106182 
L 402.472911 164.182927 
L 403.107796 165.549187 
L 403.74268 171.13278 
L 404.377565 169.063076 
L 405.01245 164.091055 
L 405.647334 168.277765 
L 406.282219 169.441177 
L 406.917103 164.874244 
L 407.551988 161.435248 
L 408.186872 162.749659 
L 408.821757 168.510932 
L 409.456641 160.196942 
L 410.091526 164.458241 
L 410.72641 167.152253 
L 411.361295 163.384882 
L 411.996179 163.556195 
L 412.631064 162.25846 
L 413.265948 163.752371 
L 414.535717 157.158485 
L 415.170602 159.594163 
L 415.805486 158.922858 
L 416.440371 158.815219 
L 417.075255 158.522016 
L 417.71014 158.595393 
L 418.345024 156.230666 
L 418.979909 150.572484 
L 419.614793 158.237303 
L 420.249678 150.413299 
L 420.884562 156.545094 
L 421.519447 151.514251 
L 422.154331 150.114941 
L 422.789216 155.144268 
L 423.4241 152.041228 
L 424.058985 155.857416 
L 424.693869 155.744622 
L 425.328754 154.605466 
L 425.963638 157.550231 
L 426.598523 148.84116 
L 427.233408 152.902038 
L 427.868292 148.397869 
L 428.503177 149.215927 
L 429.138061 148.801137 
L 429.772946 153.692807 
L 430.40783 149.486996 
L 431.042715 150.474244 
L 431.677599 140.111168 
L 432.312484 153.807117 
L 432.947368 149.413922 
L 433.582253 148.052211 
L 434.217137 147.340883 
L 434.852022 151.598543 
L 435.486906 148.774454 
L 436.121791 140.891021 
L 436.756675 147.077394 
L 437.39156 150.08553 
L 438.026444 146.264187 
L 438.661329 148.394837 
L 439.296213 147.196252 
L 439.931098 148.800227 
L 440.565982 146.456422 
L 441.200867 145.919742 
L 441.835751 144.227836 
L 442.470636 141.066276 
L 443.10552 145.402164 
L 443.740405 147.551916 
L 444.375289 136.353196 
L 445.010174 146.218706 
L 445.645058 146.458544 
L 446.279943 139.442592 
L 446.914827 149.545818 
L 447.549712 137.25312 
L 448.184597 141.279129 
L 448.819481 142.443451 
L 449.454366 141.877663 
L 450.08925 144.065316 
L 450.724135 134.878388 
L 451.359019 138.782203 
L 451.993904 144.64111 
L 452.628788 139.134532 
L 453.263673 141.798223 
L 453.898557 137.482043 
L 454.533442 134.556986 
L 455.168326 134.956312 
L 455.803211 139.47352 
L 456.438095 130.830851 
L 457.707864 137.686406 
L 458.342749 137.703386 
L 458.977633 135.485412 
L 459.612518 132.086743 
L 460.247402 135.606089 
L 460.882287 129.515228 
L 461.517171 130.135593 
L 462.152056 130.092538 
L 462.78694 131.9882 
L 463.421825 127.043771 
L 464.056709 126.464339 
L 464.691594 129.239004 
L 465.326478 127.985538 
L 465.961363 132.078556 
L 466.596247 132.221671 
L 467.231132 131.281117 
L 467.866016 124.97619 
L 468.500901 127.818167 
L 469.135785 135.086996 
L 469.77067 123.21212 
L 470.405555 122.26823 
L 471.040439 127.488882 
L 471.675324 126.01468 
L 472.310208 127.344555 
L 472.945093 118.297709 
L 473.579977 123.014428 
L 474.214862 131.777773 
L 474.849746 127.717199 
L 475.484631 128.738406 
L 476.119515 121.206392 
L 476.7544 120.41714 
L 477.389284 122.784898 
L 478.024169 127.18628 
L 478.659053 121.765813 
L 479.293938 122.000194 
L 479.928822 121.522943 
L 480.563707 115.647663 
L 481.198591 122.857972 
L 481.833476 115.423288 
L 482.46836 121.574185 
L 483.103245 121.798863 
L 483.738129 127.4055 
L 484.373014 123.760322 
L 485.007898 122.279752 
L 485.642783 112.773848 
L 486.277667 115.19103 
L 486.912552 124.00865 
L 487.547436 120.206106 
L 488.182321 114.908742 
L 488.817205 116.810469 
L 489.45209 119.137295 
L 490.086974 117.391417 
L 490.721859 113.499124 
L 491.356744 116.078219 
L 491.991628 116.37779 
L 492.626513 114.524273 
L 493.261397 106.68996 
L 493.896282 118.710376 
L 494.531166 108.541961 
L 495.166051 109.03043 
L 495.800935 116.49968 
L 496.43582 111.18564 
L 497.070704 108.689927 
L 497.705589 107.951006 
L 498.340473 116.517266 
L 498.975358 119.101516 
L 499.610242 107.535004 
L 500.245127 106.240908 
L 500.880011 106.790322 
L 501.514896 113.8748 
L 502.14978 108.131416 
L 502.784665 109.046197 
L 503.419549 108.809088 
L 504.054434 105.986515 
L 504.689318 112.836916 
L 505.324203 102.033883 
L 505.959087 102.649398 
L 506.593972 96.672543 
L 507.228856 104.947722 
L 507.863741 102.470504 
L 508.498625 108.174471 
L 509.13351 104.358283 
L 509.768394 105.471667 
L 511.038163 105.260027 
L 512.307933 101.832856 
L 512.942817 104.258224 
L 513.577702 102.97747 
L 514.212586 96.243805 
L 514.847471 99.452969 
L 515.482355 103.802501 
L 516.11724 94.778093 
L 516.752124 105.956195 
L 517.387009 97.83171 
L 518.021893 98.632485 
L 518.656778 100.763135 
L 519.291662 95.745633 
L 519.926547 99.870791 
L 520.561431 99.62125 
L 521.196316 101.706418 
L 521.8312 91.593186 
L 522.466085 88.467102 
L 523.100969 94.461543 
L 523.735854 96.904497 
L 524.370738 93.675019 
L 525.005623 92.306637 
L 525.640507 93.871498 
L 526.275392 94.42819 
L 526.910276 96.180434 
L 527.545161 88.867034 
L 528.180045 90.914604 
L 528.81493 74.633799 
L 529.449814 91.354257 
L 530.084699 89.296681 
L 530.719583 92.894256 
L 531.354468 90.334566 
L 531.989352 92.162916 
L 532.624237 86.363135 
L 533.259121 88.817611 
L 533.894006 81.571523 
L 534.528891 82.949608 
L 535.79866 91.284823 
L 536.433544 91.640183 
L 537.068429 86.309163 
L 537.703313 90.182961 
L 538.338198 83.836798 
L 538.973082 88.572012 
L 539.607967 89.724812 
L 540.242851 88.540175 
L 540.877736 84.506586 
L 541.51262 72.322134 
L 542.147505 81.506334 
L 542.782389 84.187307 
L 543.417274 94.664693 
L 544.052158 71.410385 
L 544.687043 77.826286 
L 545.321927 91.189312 
L 546.591696 75.683205 
L 547.226581 76.39423 
L 547.861465 69.679062 
L 548.49635 76.41879 
L 549.131234 88.101128 
L 549.766119 82.549069 
L 550.401003 83.596656 
L 551.035888 79.254097 
L 551.670772 87.0496 
L 552.940541 76.139535 
L 553.575426 77.634052 
L 554.21031 80.452379 
L 554.845195 71.61687 
L 555.48008 86.681807 
L 556.114964 75.755672 
L 556.749849 80.091257 
L 557.384733 72.009222 
L 558.019618 68.900118 
L 558.654502 77.864491 
L 559.289387 68.667556 
L 559.924271 73.968559 
L 560.559156 64.258898 
L 561.828925 76.562208 
L 562.463809 77.489724 
L 563.098694 79.364769 
L 563.733578 79.023355 
L 564.368463 69.64298 
L 565.003347 75.427297 
L 565.638232 72.105643 
L 566.273116 73.493127 
L 566.908001 66.274935 
L 567.542885 71.573511 
L 568.17777 68.502004 
L 568.812654 73.618959 
L 569.447539 61.804118 
L 570.082423 61.511825 
L 570.717308 67.059943 
L 571.352192 64.127912 
L 571.987077 59.227145 
L 572.621961 62.304716 
L 573.256846 63.967211 
L 573.89173 58.893009 
L 574.526615 66.411379 
L 575.161499 68.491392 
L 575.796384 59.746542 
L 576.431268 59.592209 
L 577.066153 63.073958 
L 577.701038 50.217594 
L 578.335922 62.984511 
L 578.970807 62.821081 
L 579.605691 58.07859 
L 580.240576 67.279163 
L 580.87546 56.483711 
L 581.510345 57.042222 
L 582.145229 62.176762 
L 582.780114 47.518125 
L 582.780114 47.518125 
" clip-path="url(#pa8fc489a48)" style="fill: none; stroke: #ff7f0e; stroke-width: 1.5; stroke-linecap: square"/>
   </g>
   <g id="patch_3">
    <path d="M 50.14375 576.718125 
L 50.14375 22.318125 
" style="fill: none; stroke: #000000; stroke-width: 0.8; stroke-linejoin: miter; stroke-linecap: square"/>
   </g>
   <g id="patch_4">
    <path d="M 608.14375 576.718125 
L 608.14375 22.318125 
" style="fill: none; stroke: #000000; stroke-width: 0.8; stroke-linejoin: miter; stroke-linecap: square"/>
   </g>
   <g id="patch_5">
    <path d="M 50.14375 576.718125 
L 608.14375 576.718125 
" style="fill: none; stroke: #000000; stroke-width: 0.8; stroke-linejoin: miter; stroke-linecap: square"/>
   </g>
   <g id="patch_6">
    <path d="M 50.14375 22.318125 
L 608.14375 22.318125 
" style="fill: none; stroke: #000000; stroke-width: 0.8; stroke-linejoin: miter; stroke-linecap: square"/>
   </g>
   <g id="text_18">
    <!-- Train and Val Loss -->
    <g transform="translate(275.598437 16.318125) scale(0.12 -0.12)">
     <defs>
      <path id="DejaVuSans-54" d="M -19 4666 
L 3928 4666 
L 3928 4134 
L 2272 4134 
L 2272 0 
L 1638 0 
L 1638 4134 
L -19 4134 
L -19 4666 
z
" transform="scale(0.015625)"/>
      <path id="DejaVuSans-72" d="M 2631 2963 
Q 2534 3019 2420 3045 
Q 2306 3072 2169 3072 
Q 1681 3072 1420 2755 
Q 1159 2438 1159 1844 
L 1159 0 
L 581 0 
L 581 3500 
L 1159 3500 
L 1159 2956 
Q 1341 3275 1631 3429 
Q 1922 3584 2338 3584 
Q 2397 3584 2469 3576 
Q 2541 3569 2628 3553 
L 2631 2963 
z
" transform="scale(0.015625)"/>
      <path id="DejaVuSans-61" d="M 2194 1759 
Q 1497 1759 1228 1600 
Q 959 1441 959 1056 
Q 959 750 1161 570 
Q 1363 391 1709 391 
Q 2188 391 2477 730 
Q 2766 1069 2766 1631 
L 2766 1759 
L 2194 1759 
z
M 3341 1997 
L 3341 0 
L 2766 0 
L 2766 531 
Q 2569 213 2275 61 
Q 1981 -91 1556 -91 
Q 1019 -91 701 211 
Q 384 513 384 1019 
Q 384 1609 779 1909 
Q 1175 2209 1959 2209 
L 2766 2209 
L 2766 2266 
Q 2766 2663 2505 2880 
Q 2244 3097 1772 3097 
Q 1472 3097 1187 3025 
Q 903 2953 641 2809 
L 641 3341 
Q 956 3463 1253 3523 
Q 1550 3584 1831 3584 
Q 2591 3584 2966 3190 
Q 3341 2797 3341 1997 
z
" transform="scale(0.015625)"/>
      <path id="DejaVuSans-69" d="M 603 3500 
L 1178 3500 
L 1178 0 
L 603 0 
L 603 3500 
z
M 603 4863 
L 1178 4863 
L 1178 4134 
L 603 4134 
L 603 4863 
z
" transform="scale(0.015625)"/>
      <path id="DejaVuSans-6e" d="M 3513 2113 
L 3513 0 
L 2938 0 
L 2938 2094 
Q 2938 2591 2744 2837 
Q 2550 3084 2163 3084 
Q 1697 3084 1428 2787 
Q 1159 2491 1159 1978 
L 1159 0 
L 581 0 
L 581 3500 
L 1159 3500 
L 1159 2956 
Q 1366 3272 1645 3428 
Q 1925 3584 2291 3584 
Q 2894 3584 3203 3211 
Q 3513 2838 3513 2113 
z
" transform="scale(0.015625)"/>
      <path id="DejaVuSans-20" transform="scale(0.015625)"/>
      <path id="DejaVuSans-64" d="M 2906 2969 
L 2906 4863 
L 3481 4863 
L 3481 0 
L 2906 0 
L 2906 525 
Q 2725 213 2448 61 
Q 2172 -91 1784 -91 
Q 1150 -91 751 415 
Q 353 922 353 1747 
Q 353 2572 751 3078 
Q 1150 3584 1784 3584 
Q 2172 3584 2448 3432 
Q 2725 3281 2906 2969 
z
M 947 1747 
Q 947 1113 1208 752 
Q 1469 391 1925 391 
Q 2381 391 2643 752 
Q 2906 1113 2906 1747 
Q 2906 2381 2643 2742 
Q 2381 3103 1925 3103 
Q 1469 3103 1208 2742 
Q 947 2381 947 1747 
z
" transform="scale(0.015625)"/>
      <path id="DejaVuSans-56" d="M 1831 0 
L 50 4666 
L 709 4666 
L 2188 738 
L 3669 4666 
L 4325 4666 
L 2547 0 
L 1831 0 
z
" transform="scale(0.015625)"/>
      <path id="DejaVuSans-6c" d="M 603 4863 
L 1178 4863 
L 1178 0 
L 603 0 
L 603 4863 
z
" transform="scale(0.015625)"/>
     </defs>
     <use xlink:href="#DejaVuSans-54"/>
     <use xlink:href="#DejaVuSans-72" transform="translate(46.333984 0)"/>
     <use xlink:href="#DejaVuSans-61" transform="translate(87.447266 0)"/>
     <use xlink:href="#DejaVuSans-69" transform="translate(148.726562 0)"/>
     <use xlink:href="#DejaVuSans-6e" transform="translate(176.509766 0)"/>
     <use xlink:href="#DejaVuSans-20" transform="translate(239.888672 0)"/>
     <use xlink:href="#DejaVuSans-61" transform="translate(271.675781 0)"/>
     <use xlink:href="#DejaVuSans-6e" transform="translate(332.955078 0)"/>
     <use xlink:href="#DejaVuSans-64" transform="translate(396.333984 0)"/>
     <use xlink:href="#DejaVuSans-20" transform="translate(459.810547 0)"/>
     <use xlink:href="#DejaVuSans-56" transform="translate(491.597656 0)"/>
     <use xlink:href="#DejaVuSans-61" transform="translate(552.255859 0)"/>
     <use xlink:href="#DejaVuSans-6c" transform="translate(613.535156 0)"/>
     <use xlink:href="#DejaVuSans-20" transform="translate(641.318359 0)"/>
     <use xlink:href="#DejaVuSans-4c" transform="translate(673.105469 0)"/>
     <use xlink:href="#DejaVuSans-6f" transform="translate(727.068359 0)"/>
     <use xlink:href="#DejaVuSans-73" transform="translate(788.25 0)"/>
     <use xlink:href="#DejaVuSans-73" transform="translate(840.349609 0)"/>
    </g>
   </g>
   <g id="legend_1">
    <g id="patch_7">
     <path d="M 57.14375 571.718125 
L 136.734375 571.718125 
Q 138.734375 571.718125 138.734375 569.718125 
L 138.734375 540.805625 
Q 138.734375 538.805625 136.734375 538.805625 
L 57.14375 538.805625 
Q 55.14375 538.805625 55.14375 540.805625 
L 55.14375 569.718125 
Q 55.14375 571.718125 57.14375 571.718125 
z
" style="fill: #ffffff; opacity: 0.8; stroke: #cccccc; stroke-linejoin: miter"/>
    </g>
    <g id="line2d_33">
     <path d="M 59.14375 546.904063 
L 69.14375 546.904063 
L 79.14375 546.904063 
" style="fill: none; stroke: #1f77b4; stroke-width: 1.5; stroke-linecap: square"/>
    </g>
    <g id="text_19">
     <!-- train_loss -->
     <g transform="translate(87.14375 550.404063) scale(0.1 -0.1)">
      <defs>
       <path id="DejaVuSans-74" d="M 1172 4494 
L 1172 3500 
L 2356 3500 
L 2356 3053 
L 1172 3053 
L 1172 1153 
Q 1172 725 1289 603 
Q 1406 481 1766 481 
L 2356 481 
L 2356 0 
L 1766 0 
Q 1100 0 847 248 
Q 594 497 594 1153 
L 594 3053 
L 172 3053 
L 172 3500 
L 594 3500 
L 594 4494 
L 1172 4494 
z
" transform="scale(0.015625)"/>
       <path id="DejaVuSans-5f" d="M 3263 -1063 
L 3263 -1509 
L -63 -1509 
L -63 -1063 
L 3263 -1063 
z
" transform="scale(0.015625)"/>
      </defs>
      <use xlink:href="#DejaVuSans-74"/>
      <use xlink:href="#DejaVuSans-72" transform="translate(39.208984 0)"/>
      <use xlink:href="#DejaVuSans-61" transform="translate(80.322266 0)"/>
      <use xlink:href="#DejaVuSans-69" transform="translate(141.601562 0)"/>
      <use xlink:href="#DejaVuSans-6e" transform="translate(169.384766 0)"/>
      <use xlink:href="#DejaVuSans-5f" transform="translate(232.763672 0)"/>
      <use xlink:href="#DejaVuSans-6c" transform="translate(282.763672 0)"/>
      <use xlink:href="#DejaVuSans-6f" transform="translate(310.546875 0)"/>
      <use xlink:href="#DejaVuSans-73" transform="translate(371.728516 0)"/>
      <use xlink:href="#DejaVuSans-73" transform="translate(423.828125 0)"/>
     </g>
    </g>
    <g id="line2d_34">
     <path d="M 59.14375 561.860313 
L 69.14375 561.860313 
L 79.14375 561.860313 
" style="fill: none; stroke: #ff7f0e; stroke-width: 1.5; stroke-linecap: square"/>
    </g>
    <g id="text_20">
     <!-- val_loss -->
     <g transform="translate(87.14375 565.360313) scale(0.1 -0.1)">
      <defs>
       <path id="DejaVuSans-76" d="M 191 3500 
L 800 3500 
L 1894 563 
L 2988 3500 
L 3597 3500 
L 2284 0 
L 1503 0 
L 191 3500 
z
" transform="scale(0.015625)"/>
      </defs>
      <use xlink:href="#DejaVuSans-76"/>
      <use xlink:href="#DejaVuSans-61" transform="translate(59.179688 0)"/>
      <use xlink:href="#DejaVuSans-6c" transform="translate(120.458984 0)"/>
      <use xlink:href="#DejaVuSans-5f" transform="translate(148.242188 0)"/>
      <use xlink:href="#DejaVuSans-6c" transform="translate(198.242188 0)"/>
      <use xlink:href="#DejaVuSans-6f" transform="translate(226.025391 0)"/>
      <use xlink:href="#DejaVuSans-73" transform="translate(287.207031 0)"/>
      <use xlink:href="#DejaVuSans-73" transform="translate(339.306641 0)"/>
     </g>
    </g>
   </g>
  </g>
 </g>
 <defs>
  <clipPath id="pa8fc489a48">
   <rect x="50.14375" y="22.318125" width="558" height="554.4"/>
  </clipPath>
 </defs>
</svg>
