<?xml version="1.0" encoding="utf-8" standalone="no"?>
<!DOCTYPE svg PUBLIC "-//W3C//DTD SVG 1.1//EN"
  "http://www.w3.org/Graphics/SVG/1.1/DTD/svg11.dtd">
<svg xmlns:xlink="http://www.w3.org/1999/xlink" width="621.70625pt" height="614.274375pt" viewBox="0 0 621.70625 614.274375" xmlns="http://www.w3.org/2000/svg" version="1.1">
 <metadata>
  <rdf:RDF xmlns:dc="http://purl.org/dc/elements/1.1/" xmlns:cc="http://creativecommons.org/ns#" xmlns:rdf="http://www.w3.org/1999/02/22-rdf-syntax-ns#">
   <cc:Work>
    <dc:type rdf:resource="http://purl.org/dc/dcmitype/StillImage"/>
    <dc:date>2026-05-22T03:26:14.136247</dc:date>
    <dc:format>image/svg+xml</dc:format>
    <dc:creator>
     <cc:Agent>
      <dc:title>Matplotlib v3.10.9, https://matplotlib.org/</dc:title>
     </cc:Agent>
    </dc:creator>
   </cc:Work>
  </rdf:RDF>
 </metadata>
 <defs>
  <style type="text/css">*{stroke-linejoin: round; stroke-linecap: butt}</style>
 </defs>
 <g id="figure_1">
  <g id="patch_1">
   <path d="M 0 614.274375 
L 621.70625 614.274375 
L 621.70625 0 
L 0 0 
z
" style="fill: #ffffff"/>
  </g>
  <g id="axes_1">
   <g id="patch_2">
    <path d="M 56.50625 576.718125 
L 614.50625 576.718125 
L 614.50625 22.318125 
L 56.50625 22.318125 
z
" style="fill: #ffffff"/>
   </g>
   <g id="matplotlib.axis_1">
    <g id="xtick_1">
     <g id="line2d_1">
      <path d="M 81.869886 576.718125 
L 81.869886 22.318125 
" clip-path="url(#p7d03081d0f)" style="fill: none; stroke: #b0b0b0; stroke-width: 0.8; stroke-linecap: square"/>
     </g>
     <g id="line2d_2">
      <defs>
       <path id="m8cf047d526" d="M 0 0 
L 0 3.5 
" style="stroke: #000000; stroke-width: 0.8"/>
      </defs>
      <g>
       <use xlink:href="#m8cf047d526" x="81.869886" y="576.718125" style="stroke: #000000; stroke-width: 0.8"/>
      </g>
     </g>
     <g id="text_1">
      <!-- 0 -->
      <g transform="translate(78.688636 591.316563) scale(0.1 -0.1)">
       <defs>
        <path id="DejaVuSans-30" d="M 2034 4250 
Q 1547 4250 1301 3770 
Q 1056 3291 1056 2328 
Q 1056 1369 1301 889 
Q 1547 409 2034 409 
Q 2525 409 2770 889 
Q 3016 1369 3016 2328 
Q 3016 3291 2770 3770 
Q 2525 4250 2034 4250 
z
M 2034 4750 
Q 2819 4750 3233 4129 
Q 3647 3509 3647 2328 
Q 3647 1150 3233 529 
Q 2819 -91 2034 -91 
Q 1250 -91 836 529 
Q 422 1150 422 2328 
Q 422 3509 836 4129 
Q 1250 4750 2034 4750 
z
" transform="scale(0.015625)"/>
       </defs>
       <use xlink:href="#DejaVuSans-30"/>
      </g>
     </g>
    </g>
    <g id="xtick_2">
     <g id="line2d_3">
      <path d="M 145.358338 576.718125 
L 145.358338 22.318125 
" clip-path="url(#p7d03081d0f)" style="fill: none; stroke: #b0b0b0; stroke-width: 0.8; stroke-linecap: square"/>
     </g>
     <g id="line2d_4">
      <g>
       <use xlink:href="#m8cf047d526" x="145.358338" y="576.718125" style="stroke: #000000; stroke-width: 0.8"/>
      </g>
     </g>
     <g id="text_2">
      <!-- 100 -->
      <g transform="translate(135.814588 591.316563) scale(0.1 -0.1)">
       <defs>
        <path id="DejaVuSans-31" d="M 794 531 
L 1825 531 
L 1825 4091 
L 703 3866 
L 703 4441 
L 1819 4666 
L 2450 4666 
L 2450 531 
L 3481 531 
L 3481 0 
L 794 0 
L 794 531 
z
" transform="scale(0.015625)"/>
       </defs>
       <use xlink:href="#DejaVuSans-31"/>
       <use xlink:href="#DejaVuSans-30" transform="translate(63.623047 0)"/>
       <use xlink:href="#DejaVuSans-30" transform="translate(127.246094 0)"/>
      </g>
     </g>
    </g>
    <g id="xtick_3">
     <g id="line2d_5">
      <path d="M 208.846789 576.718125 
L 208.846789 22.318125 
" clip-path="url(#p7d03081d0f)" style="fill: none; stroke: #b0b0b0; stroke-width: 0.8; stroke-linecap: square"/>
     </g>
     <g id="line2d_6">
      <g>
       <use xlink:href="#m8cf047d526" x="208.846789" y="576.718125" style="stroke: #000000; stroke-width: 0.8"/>
      </g>
     </g>
     <g id="text_3">
      <!-- 200 -->
      <g transform="translate(199.303039 591.316563) scale(0.1 -0.1)">
       <defs>
        <path id="DejaVuSans-32" d="M 1228 531 
L 3431 531 
L 3431 0 
L 469 0 
L 469 531 
Q 828 903 1448 1529 
Q 2069 2156 2228 2338 
Q 2531 2678 2651 2914 
Q 2772 3150 2772 3378 
Q 2772 3750 2511 3984 
Q 2250 4219 1831 4219 
Q 1534 4219 1204 4116 
Q 875 4013 500 3803 
L 500 4441 
Q 881 4594 1212 4672 
Q 1544 4750 1819 4750 
Q 2544 4750 2975 4387 
Q 3406 4025 3406 3419 
Q 3406 3131 3298 2873 
Q 3191 2616 2906 2266 
Q 2828 2175 2409 1742 
Q 1991 1309 1228 531 
z
" transform="scale(0.015625)"/>
       </defs>
       <use xlink:href="#DejaVuSans-32"/>
       <use xlink:href="#DejaVuSans-30" transform="translate(63.623047 0)"/>
       <use xlink:href="#DejaVuSans-30" transform="translate(127.246094 0)"/>
      </g>
     </g>
    </g>
    <g id="xtick_4">
     <g id="line2d_7">
      <path d="M 272.335241 576.718125 
L 272.335241 22.318125 
" clip-path="url(#p7d03081d0f)" style="fill: none; stroke: #b0b0b0; stroke-width: 0.8; stroke-linecap: square"/>
     </g>
     <g id="line2d_8">
      <g>
       <use xlink:href="#m8cf047d526" x="272.335241" y="576.718125" style="stroke: #000000; stroke-width: 0.8"/>
      </g>
     </g>
     <g id="text_4">
      <!-- 300 -->
      <g transform="translate(262.791491 591.316563) scale(0.1 -0.1)">
       <defs>
        <path id="DejaVuSans-33" d="M 2597 2516 
Q 3050 2419 3304 2112 
Q 3559 1806 3559 1356 
Q 3559 666 3084 287 
Q 2609 -91 1734 -91 
Q 1441 -91 1130 -33 
Q 819 25 488 141 
L 488 750 
Q 750 597 1062 519 
Q 1375 441 1716 441 
Q 2309 441 2620 675 
Q 2931 909 2931 1356 
Q 2931 1769 2642 2001 
Q 2353 2234 1838 2234 
L 1294 2234 
L 1294 2753 
L 1863 2753 
Q 2328 2753 2575 2939 
Q 2822 3125 2822 3475 
Q 2822 3834 2567 4026 
Q 2313 4219 1838 4219 
Q 1578 4219 1281 4162 
Q 984 4106 628 3988 
L 628 4550 
Q 988 4650 1302 4700 
Q 1616 4750 1894 4750 
Q 2613 4750 3031 4423 
Q 3450 4097 3450 3541 
Q 3450 3153 3228 2886 
Q 3006 2619 2597 2516 
z
" transform="scale(0.015625)"/>
       </defs>
       <use xlink:href="#DejaVuSans-33"/>
       <use xlink:href="#DejaVuSans-30" transform="translate(63.623047 0)"/>
       <use xlink:href="#DejaVuSans-30" transform="translate(127.246094 0)"/>
      </g>
     </g>
    </g>
    <g id="xtick_5">
     <g id="line2d_9">
      <path d="M 335.823692 576.718125 
L 335.823692 22.318125 
" clip-path="url(#p7d03081d0f)" style="fill: none; stroke: #b0b0b0; stroke-width: 0.8; stroke-linecap: square"/>
     </g>
     <g id="line2d_10">
      <g>
       <use xlink:href="#m8cf047d526" x="335.823692" y="576.718125" style="stroke: #000000; stroke-width: 0.8"/>
      </g>
     </g>
     <g id="text_5">
      <!-- 400 -->
      <g transform="translate(326.279942 591.316563) scale(0.1 -0.1)">
       <defs>
        <path id="DejaVuSans-34" d="M 2419 4116 
L 825 1625 
L 2419 1625 
L 2419 4116 
z
M 2253 4666 
L 3047 4666 
L 3047 1625 
L 3713 1625 
L 3713 1100 
L 3047 1100 
L 3047 0 
L 2419 0 
L 2419 1100 
L 313 1100 
L 313 1709 
L 2253 4666 
z
" transform="scale(0.015625)"/>
       </defs>
       <use xlink:href="#DejaVuSans-34"/>
       <use xlink:href="#DejaVuSans-30" transform="translate(63.623047 0)"/>
       <use xlink:href="#DejaVuSans-30" transform="translate(127.246094 0)"/>
      </g>
     </g>
    </g>
    <g id="xtick_6">
     <g id="line2d_11">
      <path d="M 399.312144 576.718125 
L 399.312144 22.318125 
" clip-path="url(#p7d03081d0f)" style="fill: none; stroke: #b0b0b0; stroke-width: 0.8; stroke-linecap: square"/>
     </g>
     <g id="line2d_12">
      <g>
       <use xlink:href="#m8cf047d526" x="399.312144" y="576.718125" style="stroke: #000000; stroke-width: 0.8"/>
      </g>
     </g>
     <g id="text_6">
      <!-- 500 -->
      <g transform="translate(389.768394 591.316563) scale(0.1 -0.1)">
       <defs>
        <path id="DejaVuSans-35" d="M 691 4666 
L 3169 4666 
L 3169 4134 
L 1269 4134 
L 1269 2991 
Q 1406 3038 1543 3061 
Q 1681 3084 1819 3084 
Q 2600 3084 3056 2656 
Q 3513 2228 3513 1497 
Q 3513 744 3044 326 
Q 2575 -91 1722 -91 
Q 1428 -91 1123 -41 
Q 819 9 494 109 
L 494 744 
Q 775 591 1075 516 
Q 1375 441 1709 441 
Q 2250 441 2565 725 
Q 2881 1009 2881 1497 
Q 2881 1984 2565 2268 
Q 2250 2553 1709 2553 
Q 1456 2553 1204 2497 
Q 953 2441 691 2322 
L 691 4666 
z
" transform="scale(0.015625)"/>
       </defs>
       <use xlink:href="#DejaVuSans-35"/>
       <use xlink:href="#DejaVuSans-30" transform="translate(63.623047 0)"/>
       <use xlink:href="#DejaVuSans-30" transform="translate(127.246094 0)"/>
      </g>
     </g>
    </g>
    <g id="xtick_7">
     <g id="line2d_13">
      <path d="M 462.800595 576.718125 
L 462.800595 22.318125 
" clip-path="url(#p7d03081d0f)" style="fill: none; stroke: #b0b0b0; stroke-width: 0.8; stroke-linecap: square"/>
     </g>
     <g id="line2d_14">
      <g>
       <use xlink:href="#m8cf047d526" x="462.800595" y="576.718125" style="stroke: #000000; stroke-width: 0.8"/>
      </g>
     </g>
     <g id="text_7">
      <!-- 600 -->
      <g transform="translate(453.256845 591.316563) scale(0.1 -0.1)">
       <defs>
        <path id="DejaVuSans-36" d="M 2113 2584 
Q 1688 2584 1439 2293 
Q 1191 2003 1191 1497 
Q 1191 994 1439 701 
Q 1688 409 2113 409 
Q 2538 409 2786 701 
Q 3034 994 3034 1497 
Q 3034 2003 2786 2293 
Q 2538 2584 2113 2584 
z
M 3366 4563 
L 3366 3988 
Q 3128 4100 2886 4159 
Q 2644 4219 2406 4219 
Q 1781 4219 1451 3797 
Q 1122 3375 1075 2522 
Q 1259 2794 1537 2939 
Q 1816 3084 2150 3084 
Q 2853 3084 3261 2657 
Q 3669 2231 3669 1497 
Q 3669 778 3244 343 
Q 2819 -91 2113 -91 
Q 1303 -91 875 529 
Q 447 1150 447 2328 
Q 447 3434 972 4092 
Q 1497 4750 2381 4750 
Q 2619 4750 2861 4703 
Q 3103 4656 3366 4563 
z
" transform="scale(0.015625)"/>
       </defs>
       <use xlink:href="#DejaVuSans-36"/>
       <use xlink:href="#DejaVuSans-30" transform="translate(63.623047 0)"/>
       <use xlink:href="#DejaVuSans-30" transform="translate(127.246094 0)"/>
      </g>
     </g>
    </g>
    <g id="xtick_8">
     <g id="line2d_15">
      <path d="M 526.289047 576.718125 
L 526.289047 22.318125 
" clip-path="url(#p7d03081d0f)" style="fill: none; stroke: #b0b0b0; stroke-width: 0.8; stroke-linecap: square"/>
     </g>
     <g id="line2d_16">
      <g>
       <use xlink:href="#m8cf047d526" x="526.289047" y="576.718125" style="stroke: #000000; stroke-width: 0.8"/>
      </g>
     </g>
     <g id="text_8">
      <!-- 700 -->
      <g transform="translate(516.745297 591.316563) scale(0.1 -0.1)">
       <defs>
        <path id="DejaVuSans-37" d="M 525 4666 
L 3525 4666 
L 3525 4397 
L 1831 0 
L 1172 0 
L 2766 4134 
L 525 4134 
L 525 4666 
z
" transform="scale(0.015625)"/>
       </defs>
       <use xlink:href="#DejaVuSans-37"/>
       <use xlink:href="#DejaVuSans-30" transform="translate(63.623047 0)"/>
       <use xlink:href="#DejaVuSans-30" transform="translate(127.246094 0)"/>
      </g>
     </g>
    </g>
    <g id="xtick_9">
     <g id="line2d_17">
      <path d="M 589.777498 576.718125 
L 589.777498 22.318125 
" clip-path="url(#p7d03081d0f)" style="fill: none; stroke: #b0b0b0; stroke-width: 0.8; stroke-linecap: square"/>
     </g>
     <g id="line2d_18">
      <g>
       <use xlink:href="#m8cf047d526" x="589.777498" y="576.718125" style="stroke: #000000; stroke-width: 0.8"/>
      </g>
     </g>
     <g id="text_9">
      <!-- 800 -->
      <g transform="translate(580.233748 591.316563) scale(0.1 -0.1)">
       <defs>
        <path id="DejaVuSans-38" d="M 2034 2216 
Q 1584 2216 1326 1975 
Q 1069 1734 1069 1313 
Q 1069 891 1326 650 
Q 1584 409 2034 409 
Q 2484 409 2743 651 
Q 3003 894 3003 1313 
Q 3003 1734 2745 1975 
Q 2488 2216 2034 2216 
z
M 1403 2484 
Q 997 2584 770 2862 
Q 544 3141 544 3541 
Q 544 4100 942 4425 
Q 1341 4750 2034 4750 
Q 2731 4750 3128 4425 
Q 3525 4100 3525 3541 
Q 3525 3141 3298 2862 
Q 3072 2584 2669 2484 
Q 3125 2378 3379 2068 
Q 3634 1759 3634 1313 
Q 3634 634 3220 271 
Q 2806 -91 2034 -91 
Q 1263 -91 848 271 
Q 434 634 434 1313 
Q 434 1759 690 2068 
Q 947 2378 1403 2484 
z
M 1172 3481 
Q 1172 3119 1398 2916 
Q 1625 2713 2034 2713 
Q 2441 2713 2670 2916 
Q 2900 3119 2900 3481 
Q 2900 3844 2670 4047 
Q 2441 4250 2034 4250 
Q 1625 4250 1398 4047 
Q 1172 3844 1172 3481 
z
" transform="scale(0.015625)"/>
       </defs>
       <use xlink:href="#DejaVuSans-38"/>
       <use xlink:href="#DejaVuSans-30" transform="translate(63.623047 0)"/>
       <use xlink:href="#DejaVuSans-30" transform="translate(127.246094 0)"/>
      </g>
     </g>
    </g>
    <g id="text_10">
     <!-- Epochs -->
     <g transform="translate(317.590625 604.994688) scale(0.1 -0.1)">
      <defs>
       <path id="DejaVuSans-45" d="M 628 4666 
L 3578 4666 
L 3578 4134 
L 1259 4134 
L 1259 2753 
L 3481 2753 
L 3481 2222 
L 1259 2222 
L 1259 531 
L 3634 531 
L 3634 0 
L 628 0 
L 628 4666 
z
" transform="scale(0.015625)"/>
       <path id="DejaVuSans-70" d="M 1159 525 
L 1159 -1331 
L 581 -1331 
L 581 3500 
L 1159 3500 
L 1159 2969 
Q 1341 3281 1617 3432 
Q 1894 3584 2278 3584 
Q 2916 3584 3314 3078 
Q 3713 2572 3713 1747 
Q 3713 922 3314 415 
Q 2916 -91 2278 -91 
Q 1894 -91 1617 61 
Q 1341 213 1159 525 
z
M 3116 1747 
Q 3116 2381 2855 2742 
Q 2594 3103 2138 3103 
Q 1681 3103 1420 2742 
Q 1159 2381 1159 1747 
Q 1159 1113 1420 752 
Q 1681 391 2138 391 
Q 2594 391 2855 752 
Q 3116 1113 3116 1747 
z
" transform="scale(0.015625)"/>
       <path id="DejaVuSans-6f" d="M 1959 3097 
Q 1497 3097 1228 2736 
Q 959 2375 959 1747 
Q 959 1119 1226 758 
Q 1494 397 1959 397 
Q 2419 397 2687 759 
Q 2956 1122 2956 1747 
Q 2956 2369 2687 2733 
Q 2419 3097 1959 3097 
z
M 1959 3584 
Q 2709 3584 3137 3096 
Q 3566 2609 3566 1747 
Q 3566 888 3137 398 
Q 2709 -91 1959 -91 
Q 1206 -91 779 398 
Q 353 888 353 1747 
Q 353 2609 779 3096 
Q 1206 3584 1959 3584 
z
" transform="scale(0.015625)"/>
       <path id="DejaVuSans-63" d="M 3122 3366 
L 3122 2828 
Q 2878 2963 2633 3030 
Q 2388 3097 2138 3097 
Q 1578 3097 1268 2742 
Q 959 2388 959 1747 
Q 959 1106 1268 751 
Q 1578 397 2138 397 
Q 2388 397 2633 464 
Q 2878 531 3122 666 
L 3122 134 
Q 2881 22 2623 -34 
Q 2366 -91 2075 -91 
Q 1284 -91 818 406 
Q 353 903 353 1747 
Q 353 2603 823 3093 
Q 1294 3584 2113 3584 
Q 2378 3584 2631 3529 
Q 2884 3475 3122 3366 
z
" transform="scale(0.015625)"/>
       <path id="DejaVuSans-68" d="M 3513 2113 
L 3513 0 
L 2938 0 
L 2938 2094 
Q 2938 2591 2744 2837 
Q 2550 3084 2163 3084 
Q 1697 3084 1428 2787 
Q 1159 2491 1159 1978 
L 1159 0 
L 581 0 
L 581 4863 
L 1159 4863 
L 1159 2956 
Q 1366 3272 1645 3428 
Q 1925 3584 2291 3584 
Q 2894 3584 3203 3211 
Q 3513 2838 3513 2113 
z
" transform="scale(0.015625)"/>
       <path id="DejaVuSans-73" d="M 2834 3397 
L 2834 2853 
Q 2591 2978 2328 3040 
Q 2066 3103 1784 3103 
Q 1356 3103 1142 2972 
Q 928 2841 928 2578 
Q 928 2378 1081 2264 
Q 1234 2150 1697 2047 
L 1894 2003 
Q 2506 1872 2764 1633 
Q 3022 1394 3022 966 
Q 3022 478 2636 193 
Q 2250 -91 1575 -91 
Q 1294 -91 989 -36 
Q 684 19 347 128 
L 347 722 
Q 666 556 975 473 
Q 1284 391 1588 391 
Q 1994 391 2212 530 
Q 2431 669 2431 922 
Q 2431 1156 2273 1281 
Q 2116 1406 1581 1522 
L 1381 1569 
Q 847 1681 609 1914 
Q 372 2147 372 2553 
Q 372 3047 722 3315 
Q 1072 3584 1716 3584 
Q 2034 3584 2315 3537 
Q 2597 3491 2834 3397 
z
" transform="scale(0.015625)"/>
      </defs>
      <use xlink:href="#DejaVuSans-45"/>
      <use xlink:href="#DejaVuSans-70" transform="translate(63.183594 0)"/>
      <use xlink:href="#DejaVuSans-6f" transform="translate(126.660156 0)"/>
      <use xlink:href="#DejaVuSans-63" transform="translate(187.841797 0)"/>
      <use xlink:href="#DejaVuSans-68" transform="translate(242.822266 0)"/>
      <use xlink:href="#DejaVuSans-73" transform="translate(306.201172 0)"/>
     </g>
    </g>
   </g>
   <g id="matplotlib.axis_2">
    <g id="ytick_1">
     <g id="line2d_19">
      <path d="M 56.50625 562.92817 
L 614.50625 562.92817 
" clip-path="url(#p7d03081d0f)" style="fill: none; stroke: #b0b0b0; stroke-width: 0.8; stroke-linecap: square"/>
     </g>
     <g id="line2d_20">
      <defs>
       <path id="m54f20d7380" d="M 0 0 
L -3.5 0 
" style="stroke: #000000; stroke-width: 0.8"/>
      </defs>
      <g>
       <use xlink:href="#m54f20d7380" x="56.50625" y="562.92817" style="stroke: #000000; stroke-width: 0.8"/>
      </g>
     </g>
     <g id="text_11">
      <!-- 5.425 -->
      <g transform="translate(20.878125 566.727389) scale(0.1 -0.1)">
       <defs>
        <path id="DejaVuSans-2e" d="M 684 794 
L 1344 794 
L 1344 0 
L 684 0 
L 684 794 
z
" transform="scale(0.015625)"/>
       </defs>
       <use xlink:href="#DejaVuSans-35"/>
       <use xlink:href="#DejaVuSans-2e" transform="translate(63.623047 0)"/>
       <use xlink:href="#DejaVuSans-34" transform="translate(95.410156 0)"/>
       <use xlink:href="#DejaVuSans-32" transform="translate(159.033203 0)"/>
       <use xlink:href="#DejaVuSans-35" transform="translate(222.65625 0)"/>
      </g>
     </g>
    </g>
    <g id="ytick_2">
     <g id="line2d_21">
      <path d="M 56.50625 492.586351 
L 614.50625 492.586351 
" clip-path="url(#p7d03081d0f)" style="fill: none; stroke: #b0b0b0; stroke-width: 0.8; stroke-linecap: square"/>
     </g>
     <g id="line2d_22">
      <g>
       <use xlink:href="#m54f20d7380" x="56.50625" y="492.586351" style="stroke: #000000; stroke-width: 0.8"/>
      </g>
     </g>
     <g id="text_12">
      <!-- 5.450 -->
      <g transform="translate(20.878125 496.38557) scale(0.1 -0.1)">
       <use xlink:href="#DejaVuSans-35"/>
       <use xlink:href="#DejaVuSans-2e" transform="translate(63.623047 0)"/>
       <use xlink:href="#DejaVuSans-34" transform="translate(95.410156 0)"/>
       <use xlink:href="#DejaVuSans-35" transform="translate(159.033203 0)"/>
       <use xlink:href="#DejaVuSans-30" transform="translate(222.65625 0)"/>
      </g>
     </g>
    </g>
    <g id="ytick_3">
     <g id="line2d_23">
      <path d="M 56.50625 422.244533 
L 614.50625 422.244533 
" clip-path="url(#p7d03081d0f)" style="fill: none; stroke: #b0b0b0; stroke-width: 0.8; stroke-linecap: square"/>
     </g>
     <g id="line2d_24">
      <g>
       <use xlink:href="#m54f20d7380" x="56.50625" y="422.244533" style="stroke: #000000; stroke-width: 0.8"/>
      </g>
     </g>
     <g id="text_13">
      <!-- 5.475 -->
      <g transform="translate(20.878125 426.043751) scale(0.1 -0.1)">
       <use xlink:href="#DejaVuSans-35"/>
       <use xlink:href="#DejaVuSans-2e" transform="translate(63.623047 0)"/>
       <use xlink:href="#DejaVuSans-34" transform="translate(95.410156 0)"/>
       <use xlink:href="#DejaVuSans-37" transform="translate(159.033203 0)"/>
       <use xlink:href="#DejaVuSans-35" transform="translate(222.65625 0)"/>
      </g>
     </g>
    </g>
    <g id="ytick_4">
     <g id="line2d_25">
      <path d="M 56.50625 351.902714 
L 614.50625 351.902714 
" clip-path="url(#p7d03081d0f)" style="fill: none; stroke: #b0b0b0; stroke-width: 0.8; stroke-linecap: square"/>
     </g>
     <g id="line2d_26">
      <g>
       <use xlink:href="#m54f20d7380" x="56.50625" y="351.902714" style="stroke: #000000; stroke-width: 0.8"/>
      </g>
     </g>
     <g id="text_14">
      <!-- 5.500 -->
      <g transform="translate(20.878125 355.701933) scale(0.1 -0.1)">
       <use xlink:href="#DejaVuSans-35"/>
       <use xlink:href="#DejaVuSans-2e" transform="translate(63.623047 0)"/>
       <use xlink:href="#DejaVuSans-35" transform="translate(95.410156 0)"/>
       <use xlink:href="#DejaVuSans-30" transform="translate(159.033203 0)"/>
       <use xlink:href="#DejaVuSans-30" transform="translate(222.65625 0)"/>
      </g>
     </g>
    </g>
    <g id="ytick_5">
     <g id="line2d_27">
      <path d="M 56.50625 281.560895 
L 614.50625 281.560895 
" clip-path="url(#p7d03081d0f)" style="fill: none; stroke: #b0b0b0; stroke-width: 0.8; stroke-linecap: square"/>
     </g>
     <g id="line2d_28">
      <g>
       <use xlink:href="#m54f20d7380" x="56.50625" y="281.560895" style="stroke: #000000; stroke-width: 0.8"/>
      </g>
     </g>
     <g id="text_15">
      <!-- 5.525 -->
      <g transform="translate(20.878125 285.360114) scale(0.1 -0.1)">
       <use xlink:href="#DejaVuSans-35"/>
       <use xlink:href="#DejaVuSans-2e" transform="translate(63.623047 0)"/>
       <use xlink:href="#DejaVuSans-35" transform="translate(95.410156 0)"/>
       <use xlink:href="#DejaVuSans-32" transform="translate(159.033203 0)"/>
       <use xlink:href="#DejaVuSans-35" transform="translate(222.65625 0)"/>
      </g>
     </g>
    </g>
    <g id="ytick_6">
     <g id="line2d_29">
      <path d="M 56.50625 211.219077 
L 614.50625 211.219077 
" clip-path="url(#p7d03081d0f)" style="fill: none; stroke: #b0b0b0; stroke-width: 0.8; stroke-linecap: square"/>
     </g>
     <g id="line2d_30">
      <g>
       <use xlink:href="#m54f20d7380" x="56.50625" y="211.219077" style="stroke: #000000; stroke-width: 0.8"/>
      </g>
     </g>
     <g id="text_16">
      <!-- 5.550 -->
      <g transform="translate(20.878125 215.018295) scale(0.1 -0.1)">
       <use xlink:href="#DejaVuSans-35"/>
       <use xlink:href="#DejaVuSans-2e" transform="translate(63.623047 0)"/>
       <use xlink:href="#DejaVuSans-35" transform="translate(95.410156 0)"/>
       <use xlink:href="#DejaVuSans-35" transform="translate(159.033203 0)"/>
       <use xlink:href="#DejaVuSans-30" transform="translate(222.65625 0)"/>
      </g>
     </g>
    </g>
    <g id="ytick_7">
     <g id="line2d_31">
      <path d="M 56.50625 140.877258 
L 614.50625 140.877258 
" clip-path="url(#p7d03081d0f)" style="fill: none; stroke: #b0b0b0; stroke-width: 0.8; stroke-linecap: square"/>
     </g>
     <g id="line2d_32">
      <g>
       <use xlink:href="#m54f20d7380" x="56.50625" y="140.877258" style="stroke: #000000; stroke-width: 0.8"/>
      </g>
     </g>
     <g id="text_17">
      <!-- 5.575 -->
      <g transform="translate(20.878125 144.676477) scale(0.1 -0.1)">
       <use xlink:href="#DejaVuSans-35"/>
       <use xlink:href="#DejaVuSans-2e" transform="translate(63.623047 0)"/>
       <use xlink:href="#DejaVuSans-35" transform="translate(95.410156 0)"/>
       <use xlink:href="#DejaVuSans-37" transform="translate(159.033203 0)"/>
       <use xlink:href="#DejaVuSans-35" transform="translate(222.65625 0)"/>
      </g>
     </g>
    </g>
    <g id="ytick_8">
     <g id="line2d_33">
      <path d="M 56.50625 70.535439 
L 614.50625 70.535439 
" clip-path="url(#p7d03081d0f)" style="fill: none; stroke: #b0b0b0; stroke-width: 0.8; stroke-linecap: square"/>
     </g>
     <g id="line2d_34">
      <g>
       <use xlink:href="#m54f20d7380" x="56.50625" y="70.535439" style="stroke: #000000; stroke-width: 0.8"/>
      </g>
     </g>
     <g id="text_18">
      <!-- 5.600 -->
      <g transform="translate(20.878125 74.334658) scale(0.1 -0.1)">
       <use xlink:href="#DejaVuSans-35"/>
       <use xlink:href="#DejaVuSans-2e" transform="translate(63.623047 0)"/>
       <use xlink:href="#DejaVuSans-36" transform="translate(95.410156 0)"/>
       <use xlink:href="#DejaVuSans-30" transform="translate(159.033203 0)"/>
       <use xlink:href="#DejaVuSans-30" transform="translate(222.65625 0)"/>
      </g>
     </g>
    </g>
    <g id="text_19">
     <!-- Loss -->
     <g transform="translate(14.798437 310.485313) rotate(-90) scale(0.1 -0.1)">
      <defs>
       <path id="DejaVuSans-4c" d="M 628 4666 
L 1259 4666 
L 1259 531 
L 3531 531 
L 3531 0 
L 628 0 
L 628 4666 
z
" transform="scale(0.015625)"/>
      </defs>
      <use xlink:href="#DejaVuSans-4c"/>
      <use xlink:href="#DejaVuSans-6f" transform="translate(53.962891 0)"/>
      <use xlink:href="#DejaVuSans-73" transform="translate(115.144531 0)"/>
      <use xlink:href="#DejaVuSans-73" transform="translate(167.244141 0)"/>
     </g>
    </g>
   </g>
   <g id="line2d_35">
    <path d="M 81.869886 204.490096 
L 82.504771 222.359716 
L 83.139655 222.964806 
L 83.77454 224.319886 
L 84.409424 226.827456 
L 85.044309 229.823391 
L 86.948962 244.038318 
L 88.218732 254.642828 
L 89.488501 263.069818 
L 90.123385 266.605102 
L 90.75827 268.154723 
L 91.393154 271.408258 
L 92.028039 273.39392 
L 93.297808 278.572742 
L 93.932692 280.758312 
L 95.202461 284.219804 
L 95.837346 284.89332 
L 96.47223 286.000192 
L 97.741999 289.080652 
L 98.376884 290.031892 
L 99.646653 292.628011 
L 100.916422 294.258132 
L 102.186191 296.171345 
L 102.821075 296.572502 
L 103.45596 297.841716 
L 104.090844 298.444123 
L 105.360613 299.226313 
L 105.995498 300.573344 
L 106.630382 300.65921 
L 107.265267 301.4897 
L 107.900151 301.705708 
L 109.16992 303.58672 
L 109.804805 303.961044 
L 110.43969 304.760676 
L 111.074574 304.52991 
L 111.709459 304.724451 
L 112.344343 306.620222 
L 113.614112 307.688186 
L 114.248997 307.969936 
L 114.883881 308.815184 
L 115.518766 309.325016 
L 116.15365 310.154164 
L 116.788535 310.213197 
L 117.423419 311.644752 
L 118.058304 311.703786 
L 118.693188 312.724792 
L 119.328073 313.329882 
L 119.962957 314.13488 
L 120.597842 314.600438 
L 121.232726 315.561069 
L 121.867611 315.677794 
L 123.13738 317.40854 
L 123.772264 317.399148 
L 124.407149 318.120963 
L 125.042033 319.198319 
L 125.676918 319.064153 
L 126.311802 319.971118 
L 126.946687 320.450091 
L 127.581571 321.514031 
L 128.216456 321.756872 
L 128.85134 322.133879 
L 129.486225 322.971078 
L 130.121109 323.32796 
L 132.025763 325.253248 
L 132.660648 325.372656 
L 133.295532 326.462087 
L 133.930417 327.260376 
L 134.565301 326.706269 
L 135.200186 327.104744 
L 135.83507 327.35161 
L 137.104839 328.929406 
L 137.739724 329.51303 
L 138.374608 329.510347 
L 139.644377 331.337693 
L 140.279262 330.788952 
L 140.914146 331.082776 
L 141.549031 331.980349 
L 142.183915 332.070241 
L 142.8188 332.856456 
L 143.453684 333.236147 
L 144.088569 333.429346 
L 144.723453 333.397146 
L 145.358338 334.677094 
L 145.993222 334.669044 
L 146.628107 334.438277 
L 147.262991 335.453917 
L 147.897876 335.369392 
L 148.53276 336.013391 
L 149.167645 336.470898 
L 149.802529 336.771431 
L 150.437414 337.94807 
L 151.072298 337.624729 
L 152.342067 338.347885 
L 152.976952 337.919895 
L 154.246721 340.21414 
L 154.881606 340.187306 
L 155.51649 339.910924 
L 156.151375 339.893482 
L 156.786259 341.298204 
L 157.421144 341.146596 
L 158.056028 341.162696 
L 158.690913 342.260177 
L 159.325797 341.696678 
L 160.595566 342.578151 
L 161.230451 342.260177 
L 162.50022 343.601841 
L 163.135104 343.603182 
L 163.769989 343.901032 
L 164.404873 343.997631 
L 165.039758 344.909963 
L 165.674642 344.626872 
L 166.944411 345.630436 
L 167.579296 345.910844 
L 168.21418 345.705569 
L 168.849065 346.596434 
L 169.483949 346.148318 
L 170.118834 347.85089 
L 170.753718 347.198841 
L 171.388603 348.060189 
L 172.023487 347.888456 
L 172.658372 348.551238 
L 173.293256 348.53648 
L 173.928141 348.095072 
L 175.19791 349.377703 
L 175.832795 348.795421 
L 176.467679 349.266345 
L 177.102564 350.02841 
L 177.737448 349.823135 
L 178.372333 349.833869 
L 179.007217 350.7301 
L 179.642102 351.107107 
L 180.276986 351.667923 
L 180.911871 351.521681 
L 181.546755 350.884391 
L 182.18164 351.671948 
L 182.816524 352.220688 
L 183.451409 351.878564 
L 184.086293 352.817729 
L 184.721178 353.357077 
L 185.356062 353.112895 
L 185.990947 353.10887 
L 187.8956 353.853493 
L 188.530485 354.445167 
L 189.165369 354.701424 
L 189.800254 353.648218 
L 190.435138 354.940241 
L 191.070023 355.857939 
L 191.704907 355.416531 
L 192.339792 355.287732 
L 192.974676 355.660714 
L 193.609561 356.166521 
L 194.244445 356.334229 
L 194.87933 355.77878 
L 196.149099 356.55292 
L 196.783984 356.493887 
L 197.418868 357.429027 
L 198.053753 357.227777 
L 199.323522 357.810059 
L 199.958406 357.645035 
L 200.593291 358.330625 
L 201.228175 358.388316 
L 201.86306 358.075709 
L 202.497944 357.914709 
L 203.767713 359.06049 
L 204.402598 359.393222 
L 205.037482 359.495189 
L 205.672367 359.77023 
L 206.307251 359.175873 
L 208.211905 360.485337 
L 208.846789 360.500095 
L 209.481674 360.160654 
L 210.116558 360.889178 
L 210.751443 360.840878 
L 211.386327 361.353393 
L 212.021212 361.443285 
L 212.656096 361.23801 
L 213.925865 362.06045 
L 214.56075 361.723692 
L 215.195634 361.808217 
L 215.830519 363.072064 
L 216.465403 362.489782 
L 217.100288 362.68164 
L 217.735173 363.502738 
L 218.370057 363.69728 
L 219.004942 363.533597 
L 219.639826 363.517497 
L 220.274711 363.344422 
L 220.909595 363.966954 
L 221.54448 364.305053 
L 222.179364 364.241995 
L 222.814249 364.51167 
L 223.449133 364.936977 
L 224.084018 364.997352 
L 224.718902 364.204429 
L 225.353787 365.382409 
L 225.988671 365.097977 
L 226.623556 364.945027 
L 227.25844 365.11676 
L 227.893325 364.42312 
L 228.528209 365.845283 
L 229.163094 365.645375 
L 229.797978 366.133741 
L 230.432863 366.148499 
L 231.067747 366.784448 
L 231.702632 366.202166 
L 232.337516 366.045191 
L 232.972401 366.840798 
L 233.607285 366.709315 
L 234.24217 366.167283 
L 234.877054 367.337213 
L 235.511939 367.054122 
L 236.146823 367.004481 
L 236.781708 367.235247 
L 237.416592 367.93157 
L 238.051477 367.826921 
L 238.686362 367.869854 
L 239.321246 368.131478 
L 239.956131 367.726296 
L 240.591015 368.209295 
L 241.2259 368.207953 
L 241.860784 368.716444 
L 242.495669 368.281745 
L 243.130553 369.422159 
L 244.400322 368.572886 
L 245.035207 368.670827 
L 245.670091 369.098818 
L 246.304976 369.379226 
L 246.93986 370.024566 
L 247.574745 369.6489 
L 248.209629 369.942724 
L 248.844514 369.682442 
L 249.479398 369.890399 
L 250.114283 370.538423 
L 250.749167 370.999955 
L 251.384052 370.355957 
L 252.018936 370.928847 
L 252.653821 370.280824 
L 253.92359 371.20523 
L 254.558474 371.215963 
L 255.193359 371.82642 
L 255.828243 370.822856 
L 256.463128 371.214622 
L 257.098012 371.937778 
L 257.732897 372.395286 
L 258.367781 372.660935 
L 259.63755 372.185986 
L 260.272435 372.294661 
L 260.90732 371.35013 
L 261.542204 372.626052 
L 262.177089 372.187328 
L 262.811973 372.813885 
L 264.081742 372.843401 
L 264.716627 372.306736 
L 265.351511 373.785249 
L 265.986396 373.164059 
L 266.62128 374.202507 
L 267.256165 373.400192 
L 267.891049 373.266025 
L 268.525934 373.900632 
L 269.160818 373.673891 
L 269.795703 374.159573 
L 270.430587 374.896147 
L 271.065472 373.94759 
L 271.700356 374.70563 
L 272.970125 374.688189 
L 273.60501 375.269129 
L 274.239894 374.37424 
L 274.874779 374.540606 
L 275.509663 375.183263 
L 276.144548 374.94713 
L 276.779432 375.078613 
L 277.414317 374.439981 
L 278.049201 375.113496 
L 278.684086 376.480652 
L 279.31897 376.593351 
L 279.953855 375.499895 
L 280.588739 375.56832 
L 281.223624 376.351852 
L 281.858509 376.365269 
L 282.493393 375.964111 
L 283.128278 376.747643 
L 283.763162 375.11618 
L 284.398047 376.186827 
L 285.032931 376.405518 
L 285.667816 376.165361 
L 286.3027 376.367952 
L 286.937585 376.869734 
L 287.572469 376.754351 
L 288.207354 377.643874 
L 288.842238 377.175633 
L 289.477123 376.897909 
L 290.112007 377.421158 
L 290.746892 377.410425 
L 291.381776 378.703788 
L 292.651545 377.75389 
L 293.28643 378.090648 
L 293.921314 378.56023 
L 294.556199 377.827682 
L 295.191083 378.446189 
L 295.825968 378.629997 
L 296.460852 377.787432 
L 297.095737 378.676955 
L 297.730621 378.741355 
L 298.365506 378.285189 
L 299.00039 380.04411 
L 299.635275 379.087504 
L 300.905044 378.473022 
L 301.539928 379.231062 
L 302.174813 379.375962 
L 302.809697 379.354495 
L 303.444582 379.118362 
L 305.349236 379.805294 
L 305.98412 381.110733 
L 306.619005 380.276218 
L 307.888774 380.11656 
L 308.523658 380.336593 
L 309.158543 380.134002 
L 309.793427 379.782486 
L 310.428312 379.966294 
L 311.063196 381.251608 
L 311.698081 381.303933 
L 312.332965 380.456001 
L 312.96785 380.516376 
L 314.237619 382.240414 
L 314.872503 381.120125 
L 316.142272 381.582999 
L 316.777157 381.566899 
L 317.412041 381.854015 
L 318.046926 381.84194 
L 318.68181 382.009648 
L 319.316695 382.485938 
L 319.951579 382.483255 
L 320.586464 381.494449 
L 321.221348 382.932712 
L 321.856233 382.327622 
L 322.491117 382.445688 
L 323.126002 382.760979 
L 323.760886 382.59193 
L 324.395771 382.950154 
L 325.030656 382.659013 
L 325.66554 382.838796 
L 326.300425 383.43852 
L 326.935309 382.899171 
L 327.570194 383.256053 
L 328.205078 383.839677 
L 328.839963 383.380828 
L 329.474847 383.209095 
L 330.109732 383.768569 
L 330.744616 384.599059 
L 332.014385 384.239493 
L 332.64927 383.47877 
L 333.284154 384.397809 
L 333.919039 384.546734 
L 334.553923 384.223393 
L 335.188808 384.456842 
L 337.093461 384.521242 
L 337.728346 384.831167 
L 338.36323 384.392443 
L 338.998115 385.634823 
L 339.632999 385.261841 
L 340.267884 386.302972 
L 340.902768 385.840098 
L 341.537653 385.810581 
L 342.172537 384.88215 
L 342.807422 386.290897 
L 343.442306 385.299407 
L 344.077191 384.945208 
L 344.712075 385.759598 
L 345.34696 385.893764 
L 345.981844 386.155389 
L 346.616729 385.468457 
L 347.251614 386.336513 
L 347.886498 385.927306 
L 348.521383 386.523005 
L 349.156267 386.815487 
L 349.791152 386.24528 
L 350.426036 386.996612 
L 351.060921 387.081137 
L 351.695805 386.997953 
L 352.33069 386.802071 
L 352.965574 386.806096 
L 353.600459 386.972462 
L 354.235343 386.845004 
L 354.870228 386.956362 
L 355.505112 387.411186 
L 356.139997 387.073087 
L 356.774881 387.321294 
L 357.409766 387.853935 
L 358.04465 387.531936 
L 358.679535 388.048476 
L 359.314419 389.092291 
L 359.949304 388.861524 
L 360.584188 388.783708 
L 361.219073 388.228259 
L 361.853957 388.39865 
L 362.488842 389.403557 
L 363.123726 389.254632 
L 363.758611 390.063655 
L 364.393495 390.687529 
L 365.02838 391.895026 
L 365.663264 393.923622 
L 366.298149 396.420458 
L 366.933033 398.096196 
L 367.567918 403.128776 
L 368.202803 405.321055 
L 369.472572 411.795924 
L 370.107456 413.517278 
L 370.742341 416.560172 
L 371.377225 418.413009 
L 372.01211 420.907162 
L 373.281879 424.496113 
L 373.916763 426.866832 
L 374.551648 428.099821 
L 376.456301 432.807719 
L 377.72607 434.946331 
L 378.360955 436.46107 
L 378.995839 436.26787 
L 379.630724 437.822858 
L 381.535377 441.305817 
L 382.170262 441.211901 
L 382.805146 443.424304 
L 384.074915 444.532519 
L 384.7098 445.144317 
L 385.344684 446.390723 
L 385.979569 446.540989 
L 386.614453 447.184988 
L 387.249338 448.301252 
L 387.884222 448.30796 
L 388.519107 449.758299 
L 389.153991 449.895148 
L 389.788876 450.777963 
L 390.423761 451.864711 
L 391.058645 451.458187 
L 391.69353 451.782869 
L 392.328414 452.865592 
L 392.963299 453.628999 
L 393.598183 453.031958 
L 394.233068 454.671471 
L 394.867952 454.601705 
L 395.502837 454.671471 
L 396.137721 455.548919 
L 396.772606 456.687992 
L 397.40749 455.646861 
L 398.042375 456.977791 
L 398.677259 457.491648 
L 399.312144 457.594957 
L 399.947028 457.274299 
L 400.581913 457.967939 
L 401.216797 458.98492 
L 401.851682 457.965256 
L 402.486566 458.962112 
L 403.121451 459.035903 
L 403.756335 460.459409 
L 404.39122 461.530056 
L 405.660989 460.580158 
L 406.295873 461.493831 
L 406.930758 461.670931 
L 407.565642 461.479073 
L 408.200527 462.149905 
L 408.835411 462.471904 
L 409.470296 463.326544 
L 410.10518 463.212503 
L 411.37495 463.857843 
L 412.009834 463.521085 
L 412.644719 464.343525 
L 413.914488 464.921782 
L 414.549372 464.940565 
L 415.184257 466.315771 
L 415.819141 465.773739 
L 416.454026 465.415514 
L 417.08891 466.885978 
L 417.723795 467.060394 
L 418.358679 466.903419 
L 418.993564 468.402058 
L 419.628448 468.019684 
L 420.263333 467.991509 
L 420.898217 468.080058 
L 421.533102 467.662801 
L 422.167986 468.597941 
L 422.802871 468.261183 
L 424.07264 469.013856 
L 424.707524 469.631022 
L 425.342409 469.494172 
L 425.977293 469.243281 
L 426.612178 470.301854 
L 427.247062 470.539328 
L 427.881947 471.058552 
L 428.516831 470.681544 
L 429.151716 471.184668 
L 430.421485 471.419459 
L 431.056369 471.254435 
L 431.691254 472.267391 
L 432.326138 471.435559 
L 432.961023 473.126056 
L 433.595908 472.071508 
L 434.230792 472.433757 
L 434.865677 473.026773 
L 436.135446 473.943129 
L 437.405215 473.469522 
L 438.040099 474.10547 
L 438.674984 473.405122 
L 439.309868 474.529436 
L 439.944753 474.139012 
L 440.579637 474.188653 
L 441.214522 475.432376 
L 441.849406 474.946693 
L 442.484291 475.255276 
L 443.119175 474.601886 
L 443.75406 475.675217 
L 444.388944 476.143457 
L 445.023829 476.154191 
L 445.658713 475.57325 
L 446.928482 476.760623 
L 447.563367 476.312507 
L 448.198251 477.550863 
L 448.833136 477.357663 
L 450.102905 477.656854 
L 450.737789 476.877347 
L 451.372674 477.617946 
L 452.007558 477.691737 
L 452.642443 477.458288 
L 453.277327 478.155953 
L 453.912212 478.371961 
L 454.547097 478.308903 
L 455.181981 479.3876 
L 455.816866 478.122411 
L 456.45175 478.554427 
L 457.086635 479.504325 
L 457.721519 479.350034 
L 458.356404 478.997176 
L 458.991288 480.424706 
L 459.626173 480.546798 
L 460.261057 480.316032 
L 460.895942 480.36299 
L 461.530826 479.755216 
L 462.165711 481.186771 
L 462.800595 480.965397 
L 463.43548 481.441687 
L 464.070364 481.253855 
L 464.705249 481.437662 
L 465.340133 481.146521 
L 465.975018 481.697945 
L 466.609902 482.096419 
L 467.244787 481.754295 
L 467.879671 482.225219 
L 468.514556 482.317794 
L 469.14944 483.270375 
L 469.784325 482.422444 
L 470.419209 483.0973 
L 471.054094 483.570908 
L 471.688978 483.090592 
L 472.323863 484.27394 
L 472.958747 483.860707 
L 473.593632 483.248908 
L 474.228516 483.750691 
L 474.863401 484.786455 
L 476.13317 483.921082 
L 476.768055 484.330289 
L 477.402939 484.413473 
L 478.037824 485.900036 
L 478.672708 486.110677 
L 479.307593 485.819536 
L 479.942477 486.181785 
L 480.577362 486.385718 
L 481.212246 486.717109 
L 481.847131 486.8714 
L 483.1169 487.417458 
L 483.751784 486.667468 
L 484.386669 487.781048 
L 485.021553 486.8714 
L 485.656438 487.805198 
L 486.291322 488.255997 
L 486.926207 489.423245 
L 487.561091 488.62898 
L 488.195976 488.780588 
L 488.83086 489.91161 
L 489.465745 490.27386 
L 490.100629 489.660719 
L 490.735514 489.628519 
L 491.370398 490.602567 
L 492.640167 490.536826 
L 493.275052 491.638332 
L 493.909936 491.341824 
L 494.544821 491.591373 
L 495.179705 492.611038 
L 495.81459 493.28187 
L 496.449474 492.95987 
L 497.084359 492.039489 
L 497.719244 493.12892 
L 498.354128 492.407105 
L 498.989013 494.013076 
L 499.623897 494.380692 
L 500.258782 493.683027 
L 500.893666 495.924947 
L 501.528551 495.187032 
L 502.163435 496.14498 
L 502.79832 496.034964 
L 503.433204 496.817154 
L 504.068089 495.49159 
L 504.702973 497.270636 
L 505.337858 495.843106 
L 505.972742 497.043895 
L 506.607627 497.094878 
L 507.242511 497.748268 
L 507.877396 498.011234 
L 509.147165 498.191017 
L 509.782049 498.695483 
L 510.416934 499.373023 
L 511.686703 499.033582 
L 512.321587 500.106913 
L 512.956472 500.427571 
L 513.591356 501.241961 
L 514.226241 501.169511 
L 514.861125 500.030438 
L 515.49601 502.833174 
L 516.130894 501.71691 
L 516.765779 501.699468 
L 517.400663 502.584966 
L 518.035548 503.171273 
L 518.670433 504.337179 
L 519.305317 503.520106 
L 519.940202 504.275462 
L 520.575086 503.092115 
L 521.209971 504.445854 
L 521.844855 503.996396 
L 522.47974 504.405604 
L 523.114624 505.266952 
L 523.749509 505.630543 
L 524.384393 505.270977 
L 525.019278 506.448957 
L 525.654162 506.302716 
L 526.289047 507.423005 
L 526.923931 506.930615 
L 527.558816 507.414955 
L 528.1937 508.441328 
L 528.828585 508.803577 
L 529.463469 508.371562 
L 530.098354 509.180585 
L 530.733238 509.7092 
L 531.368123 509.62065 
L 532.003007 510.880473 
L 532.637892 510.77314 
L 533.272776 511.743162 
L 533.907661 511.438605 
L 534.542545 512.16042 
L 535.17743 511.981979 
L 535.812314 513.824083 
L 536.447199 514.504306 
L 537.082083 514.303057 
L 537.716968 514.50699 
L 538.351852 515.962695 
L 538.986737 516.728785 
L 539.621621 516.972968 
L 540.256506 517.717591 
L 540.891391 517.973849 
L 541.526275 518.682247 
L 542.16116 520.588751 
L 542.796044 520.629001 
L 543.430929 521.623174 
L 544.065813 520.351277 
L 544.700698 522.408047 
L 545.335582 522.370481 
L 545.970467 522.641497 
L 546.605351 524.963917 
L 547.240236 524.772059 
L 547.87512 524.352118 
L 548.510005 525.84539 
L 549.144889 526.510855 
L 549.779774 526.745646 
L 550.414658 528.229526 
L 551.049543 527.022029 
L 551.684427 528.283193 
L 552.319312 530.166889 
L 552.954196 529.376649 
L 554.223965 531.118128 
L 554.85885 530.29703 
L 555.493734 532.658358 
L 556.128619 532.593958 
L 556.763503 533.16014 
L 557.398388 533.55459 
L 558.668157 533.834997 
L 559.303041 534.465579 
L 559.937926 534.182488 
L 560.57281 535.340344 
L 561.207695 536.083626 
L 561.84258 536.024592 
L 562.477464 535.245086 
L 563.112349 538.196746 
L 563.747233 537.711064 
L 564.382118 538.336279 
L 565.017002 539.355943 
L 565.651887 539.382777 
L 566.286771 539.702093 
L 566.921656 540.627841 
L 567.55654 540.755299 
L 568.191425 540.253516 
L 568.826309 541.718613 
L 569.461194 541.883638 
L 570.730963 542.469945 
L 571.365847 542.338462 
L 572.000732 543.163585 
L 572.635616 542.810727 
L 573.270501 543.206518 
L 573.905385 545.011056 
L 574.54027 543.378251 
L 575.175154 544.625998 
L 575.810039 544.968123 
L 576.444923 546.061579 
L 577.079808 545.797271 
L 577.714692 546.15952 
L 578.349577 546.132687 
L 578.984461 546.457369 
L 579.619346 547.055751 
L 580.25423 547.004768 
L 580.889115 548.260565 
L 581.523999 549.014581 
L 582.158884 547.672917 
L 582.793768 547.945275 
L 583.428653 548.896514 
L 584.063538 549.35268 
L 584.698422 549.386221 
L 585.333307 550.07852 
L 585.968191 549.81287 
L 586.603076 549.926912 
L 587.23796 550.993534 
L 587.872845 551.053909 
L 588.507729 550.784235 
L 589.142614 551.518125 
L 589.142614 551.518125 
" clip-path="url(#p7d03081d0f)" style="fill: none; stroke: #1f77b4; stroke-width: 1.5; stroke-linecap: square"/>
   </g>
   <g id="line2d_36">
    <path d="M 81.869886 219.999729 
L 82.504771 220.494803 
L 83.139655 218.840532 
L 83.77454 217.999308 
L 84.409424 217.402268 
L 85.044309 210.27535 
L 85.679193 207.665814 
L 86.314078 202.093885 
L 86.948962 200.239706 
L 87.583847 201.060804 
L 88.218732 193.149013 
L 88.853616 193.841312 
L 89.488501 184.078025 
L 90.123385 188.281457 
L 90.75827 178.645628 
L 91.393154 182.898702 
L 92.028039 168.324209 
L 92.662923 175.79996 
L 93.297808 163.746453 
L 93.932692 173.520473 
L 94.567577 160.153477 
L 95.202461 162.82473 
L 95.837346 158.650814 
L 96.47223 158.157082 
L 97.107115 166.270122 
L 97.741999 157.338667 
L 98.376884 161.065809 
L 99.011768 160.409735 
L 99.646653 161.79299 
L 100.281537 158.524698 
L 100.916422 151.384363 
L 101.551306 167.366261 
L 102.186191 157.776049 
L 102.821075 151.581588 
L 103.45596 142.27715 
L 104.090844 151.179089 
L 104.725729 156.669177 
L 105.995498 143.326331 
L 106.630382 125.419145 
L 107.265267 145.37371 
L 107.900151 141.798176 
L 108.535036 151.431321 
L 109.16992 134.651133 
L 109.804805 146.606699 
L 111.074574 151.263614 
L 111.709459 131.142683 
L 112.344343 151.51853 
L 112.979228 143.094223 
L 113.614112 131.719598 
L 114.248997 142.811132 
L 114.883881 124.901263 
L 115.518766 131.55994 
L 116.15365 127.182091 
L 116.788535 129.169095 
L 117.423419 139.687739 
L 118.058304 127.27735 
L 118.693188 144.506995 
L 119.328073 140.068771 
L 119.962957 146.037833 
L 120.597842 126.951325 
L 121.232726 135.65604 
L 121.867611 139.587114 
L 122.502495 126.339527 
L 123.13738 128.522414 
L 123.772264 134.390851 
L 124.407149 133.501328 
L 125.042033 126.488451 
L 125.676918 139.004832 
L 126.311802 122.172319 
L 126.946687 140.176105 
L 127.581571 107.92385 
L 128.216456 121.001047 
L 128.85134 126.195969 
L 129.486225 135.63994 
L 130.121109 121.88252 
L 130.755994 121.634312 
L 131.390879 96.863175 
L 132.025763 112.273524 
L 132.660648 107.163127 
L 133.295532 119.609741 
L 133.930417 109.395656 
L 134.565301 122.456752 
L 135.200186 122.275627 
L 136.469955 111.461818 
L 137.739724 118.026578 
L 138.374608 117.477838 
L 139.009493 119.558758 
L 139.644377 124.975055 
L 140.279262 119.813674 
L 140.914146 113.625921 
L 141.549031 117.487229 
L 142.183915 118.284178 
L 142.8188 121.21303 
L 143.453684 111.353143 
L 144.088569 120.540856 
L 144.723453 112.91484 
L 145.358338 116.27839 
L 145.993222 111.349118 
L 146.628107 130.489293 
L 147.262991 118.288203 
L 147.897876 121.336463 
L 148.53276 109.81828 
L 149.167645 121.536371 
L 149.802529 110.430078 
L 150.437414 116.914339 
L 151.707183 96.856467 
L 152.342067 109.079023 
L 152.976952 108.392091 
L 153.611837 113.27843 
L 154.246721 97.631948 
L 154.881606 107.772242 
L 155.51649 103.319261 
L 156.151375 119.813674 
L 157.421144 99.680669 
L 158.056028 107.965442 
L 158.690913 108.613466 
L 159.325797 108.349158 
L 159.960682 108.944857 
L 160.595566 125.161546 
L 161.230451 114.401403 
L 161.865335 114.487269 
L 162.50022 94.739321 
L 163.135104 108.578582 
L 163.769989 97.521932 
L 164.404873 107.690401 
L 165.674642 102.440471 
L 166.309527 95.638236 
L 166.944411 107.320102 
L 167.579296 102.202996 
L 168.21418 116.581606 
L 168.849065 110.859411 
L 169.483949 91.947319 
L 170.118834 117.379896 
L 170.753718 93.805523 
L 171.388603 98.203497 
L 172.023487 107.522693 
L 172.658372 95.21427 
L 173.293256 88.884301 
L 173.928141 96.731692 
L 174.563026 99.632369 
L 175.19791 108.967665 
L 175.832795 108.14925 
L 176.467679 102.977136 
L 177.102564 93.962498 
L 178.372333 98.347055 
L 179.007217 104.756182 
L 179.642102 113.748013 
L 180.276986 91.61727 
L 180.911871 101.426173 
L 181.546755 107.100069 
L 182.18164 93.580124 
L 182.816524 83.115147 
L 183.451409 100.949882 
L 184.086293 114.459094 
L 184.721178 91.130246 
L 185.356062 105.95563 
L 185.990947 101.199432 
L 186.625831 85.127642 
L 187.260716 94.437447 
L 187.8956 106.602312 
L 188.530485 86.77118 
L 189.800254 89.196908 
L 190.435138 105.936847 
L 191.070023 88.314094 
L 191.704907 80.457311 
L 192.339792 100.154276 
L 192.974676 98.33498 
L 193.609561 99.844352 
L 194.244445 97.390449 
L 194.87933 85.954107 
L 196.149099 102.868462 
L 196.783984 89.667832 
L 197.418868 96.7384 
L 198.053753 83.316396 
L 198.688637 81.059718 
L 199.323522 89.348516 
L 199.958406 87.48897 
L 200.593291 92.591318 
L 201.228175 96.299676 
L 201.86306 93.282274 
L 202.497944 107.823226 
L 203.132829 86.21439 
L 203.767713 92.585951 
L 205.037482 101.789764 
L 205.672367 99.712869 
L 206.307251 98.542938 
L 206.942136 95.638236 
L 207.57702 97.315315 
L 208.211905 84.468885 
L 208.846789 89.411575 
L 209.481674 88.519368 
L 210.116558 95.430278 
L 210.751443 75.994937 
L 211.386327 87.224663 
L 212.021212 95.477236 
L 212.656096 94.470988 
L 213.290981 101.372507 
L 213.925865 89.682591 
L 214.56075 84.259586 
L 215.195634 95.571153 
L 215.830519 86.09364 
L 216.465403 94.173139 
L 217.100288 93.801498 
L 217.735173 85.583808 
L 218.370057 71.258864 
L 219.004942 103.929718 
L 219.639826 85.703216 
L 220.274711 95.473211 
L 220.909595 90.90753 
L 221.54448 95.199512 
L 222.179364 80.490852 
L 222.814249 101.674381 
L 223.449133 86.371365 
L 224.084018 94.461597 
L 224.718902 87.291746 
L 225.353787 91.142321 
L 225.988671 91.241604 
L 226.623556 95.043879 
L 227.25844 89.131167 
L 227.893325 92.650351 
L 228.528209 94.301939 
L 229.163094 77.103152 
L 229.797978 91.371745 
L 230.432863 82.374548 
L 231.067747 86.072174 
L 231.702632 100.34345 
L 232.337516 91.183912 
L 232.972401 83.80342 
L 233.607285 105.534347 
L 234.24217 95.216953 
L 234.877054 81.955949 
L 235.511939 71.317898 
L 236.146823 79.19078 
L 236.781708 79.732812 
L 237.416592 79.104914 
L 238.686362 87.81097 
L 239.321246 83.414338 
L 239.956131 87.90757 
L 240.591015 96.21381 
L 241.2259 76.062021 
L 242.495669 93.64184 
L 243.130553 78.544098 
L 243.765438 85.485867 
L 244.400322 94.980821 
L 245.035207 75.157739 
L 245.670091 90.556014 
L 246.304976 73.121094 
L 246.93986 75.314714 
L 247.574745 72.972169 
L 248.209629 82.045841 
L 249.479398 78.179166 
L 250.114283 91.291245 
L 250.749167 91.334179 
L 251.384052 85.781033 
L 252.018936 75.252997 
L 252.653821 82.931339 
L 253.288705 83.679987 
L 253.92359 76.938127 
L 254.558474 79.070031 
L 255.193359 78.259666 
L 255.828243 83.202355 
L 256.463128 84.895534 
L 257.098012 76.307545 
L 257.732897 81.285117 
L 258.367781 72.815194 
L 259.002666 92.412876 
L 259.63755 86.081565 
L 260.272435 86.557856 
L 260.90732 84.713068 
L 261.542204 79.010997 
L 262.177089 81.953266 
L 262.811973 87.086471 
L 263.446858 90.954488 
L 264.081742 86.634331 
L 264.716627 86.415639 
L 265.351511 80.242645 
L 265.986396 77.019968 
L 266.62128 77.943033 
L 267.256165 69.583126 
L 267.891049 74.930998 
L 268.525934 86.614206 
L 269.160818 91.680328 
L 270.430587 67.201673 
L 271.065472 85.118251 
L 271.700356 71.862613 
L 272.335241 79.041856 
L 272.970125 70.712807 
L 273.60501 84.962618 
L 274.239894 85.806524 
L 274.874779 85.212167 
L 275.509663 90.691522 
L 276.144548 74.896115 
L 276.779432 87.790845 
L 277.414317 86.089615 
L 278.049201 87.758645 
L 278.684086 80.81956 
L 279.31897 67.264732 
L 279.953855 66.6583 
L 280.588739 81.801658 
L 281.223624 83.364696 
L 281.858509 91.656178 
L 282.493393 62.5139 
L 283.128278 76.726144 
L 283.763162 70.425691 
L 284.398047 80.312411 
L 285.032931 62.71515 
L 285.667816 79.326288 
L 286.3027 75.974812 
L 286.937585 78.592398 
L 287.572469 79.795871 
L 288.207354 72.503928 
L 288.842238 76.742244 
L 289.477123 72.482462 
L 290.112007 76.019087 
L 290.746892 73.947559 
L 291.381776 76.346453 
L 292.016661 66.978957 
L 292.651545 83.527037 
L 293.28643 79.864296 
L 293.921314 80.065545 
L 294.556199 83.437146 
L 295.191083 87.491654 
L 295.825968 67.863114 
L 296.460852 86.512239 
L 297.095737 73.692642 
L 297.730621 82.106216 
L 298.365506 69.862193 
L 299.00039 75.160423 
L 299.635275 89.282775 
L 300.270159 72.061179 
L 300.905044 73.907309 
L 301.539928 82.310148 
L 302.174813 86.80338 
L 302.809697 74.123316 
L 303.444582 70.994557 
L 304.079467 68.516504 
L 304.714351 85.632108 
L 305.349236 63.600648 
L 305.98412 61.962477 
L 306.619005 72.116188 
L 307.253889 73.133169 
L 307.888774 71.680147 
L 308.523658 76.342428 
L 309.158543 75.58573 
L 309.793427 82.58519 
L 310.428312 74.379574 
L 311.063196 77.596884 
L 311.698081 71.609039 
L 312.96785 78.383099 
L 313.602734 79.272622 
L 314.237619 80.802118 
L 314.872503 70.671216 
L 315.507388 73.200252 
L 316.142272 70.476675 
L 316.777157 70.563883 
L 317.412041 79.019047 
L 318.046926 71.55403 
L 318.68181 74.426532 
L 319.316695 72.652853 
L 319.951579 70.270058 
L 320.586464 71.328631 
L 321.221348 68.313913 
L 321.856233 84.525235 
L 322.491117 74.311149 
L 323.126002 73.672517 
L 323.760886 70.471308 
L 324.395771 73.23916 
L 325.030656 83.611562 
L 325.66554 63.988389 
L 326.300425 68.531262 
L 326.935309 84.743926 
L 327.570194 77.062902 
L 328.205078 85.29535 
L 328.839963 74.213208 
L 329.474847 74.0777 
L 330.109732 65.476294 
L 330.744616 73.406868 
L 331.379501 75.420705 
L 332.014385 65.966001 
L 332.64927 71.625139 
L 333.284154 65.733893 
L 333.919039 70.378733 
L 334.553923 76.130445 
L 335.188808 63.349757 
L 335.823692 69.984284 
L 336.458577 67.291565 
L 337.093461 70.97309 
L 337.728346 68.91632 
L 338.36323 73.802659 
L 338.998115 84.293127 
L 339.632999 55.83644 
L 340.267884 69.130986 
L 340.902768 76.681869 
L 341.537653 75.542797 
L 342.172537 77.074977 
L 342.807422 62.737958 
L 343.442306 75.403264 
L 344.077191 67.82018 
L 344.712075 70.692682 
L 345.34696 70.421666 
L 345.981844 75.59378 
L 346.616729 58.141418 
L 347.251614 78.412615 
L 347.886498 81.946558 
L 348.521383 72.367079 
L 349.156267 55.285016 
L 349.791152 66.070651 
L 350.426036 59.735315 
L 351.060921 60.945495 
L 351.695805 62.397176 
L 352.33069 66.393992 
L 352.965574 62.312651 
L 353.600459 72.581745 
L 354.235343 61.37617 
L 354.870228 68.550045 
L 355.505112 71.757963 
L 356.139997 73.983783 
L 356.774881 73.16671 
L 357.409766 71.523172 
L 358.04465 71.232031 
L 358.679535 63.042516 
L 359.314419 75.880896 
L 359.949304 72.986927 
L 360.584188 73.794609 
L 361.219073 47.518125 
L 361.853957 70.362633 
L 362.488842 70.445816 
L 363.123726 76.306203 
L 363.758611 84.863335 
L 364.393495 83.315055 
L 365.02838 72.041054 
L 365.663264 76.550386 
L 366.298149 96.075618 
L 366.933033 106.344712 
L 367.567918 105.169415 
L 368.202803 119.961257 
L 368.837687 96.412376 
L 369.472572 126.634693 
L 370.107456 141.893434 
L 370.742341 139.636756 
L 371.377225 134.962399 
L 372.01211 121.419646 
L 372.646994 147.305706 
L 373.281879 134.146668 
L 373.916763 135.24549 
L 374.551648 136.754862 
L 375.186532 150.269441 
L 375.821417 141.116611 
L 376.456301 150.343232 
L 377.091186 139.460998 
L 377.72607 144.658603 
L 378.360955 154.980022 
L 378.995839 146.133091 
L 379.630724 144.811553 
L 380.900493 163.604236 
L 381.535377 140.467246 
L 382.170262 138.713691 
L 382.805146 153.348559 
L 383.440031 154.326632 
L 384.074915 158.477739 
L 384.7098 164.063085 
L 385.344684 163.25272 
L 385.979569 161.898982 
L 386.614453 134.861775 
L 387.249338 158.30869 
L 387.884222 154.318582 
L 388.519107 153.343192 
L 389.153991 162.204881 
L 389.788876 161.449524 
L 390.423761 161.860074 
L 391.058645 152.984968 
L 391.69353 169.208366 
L 392.963299 158.908413 
L 393.598183 172.935508 
L 394.233068 166.216456 
L 394.867952 167.327353 
L 395.502837 173.036132 
L 396.137721 173.535231 
L 396.772606 166.227189 
L 397.40749 169.708806 
L 398.042375 163.731694 
L 398.677259 156.443777 
L 399.312144 175.723485 
L 399.947028 159.678528 
L 400.581913 172.420309 
L 401.216797 164.22811 
L 401.851682 164.587676 
L 402.486566 152.586494 
L 403.121451 177.128207 
L 403.756335 156.835543 
L 404.39122 168.15516 
L 405.026104 183.145568 
L 405.660989 162.83278 
L 406.295873 171.505294 
L 406.930758 167.516528 
L 407.565642 172.266017 
L 408.200527 159.677187 
L 408.835411 175.351844 
L 409.470296 154.377615 
L 410.10518 168.447642 
L 410.740065 165.124341 
L 411.37495 162.55103 
L 412.644719 182.478762 
L 413.279603 155.036372 
L 413.914488 164.441435 
L 414.549372 175.923393 
L 415.184257 172.7195 
L 415.819141 185.712171 
L 416.454026 170.817021 
L 417.08891 166.732996 
L 417.723795 169.802723 
L 418.358679 172.236501 
L 418.993564 167.478961 
L 419.628448 170.595646 
L 420.263333 176.912199 
L 420.898217 166.388189 
L 421.533102 169.041999 
L 422.167986 166.221822 
L 422.802871 177.713172 
L 423.437755 166.42978 
L 424.07264 182.677328 
L 424.707524 174.326813 
L 425.342409 189.413821 
L 425.977293 168.907833 
L 426.612178 165.0103 
L 427.247062 181.734138 
L 428.516831 174.16313 
L 429.151716 181.159906 
L 430.421485 176.474816 
L 431.056369 171.532127 
L 431.691254 158.378456 
L 432.326138 184.562365 
L 432.961023 159.996503 
L 433.595908 185.070856 
L 434.865677 161.93789 
L 435.500561 150.941614 
L 436.135446 176.932324 
L 436.77033 159.59937 
L 438.040099 184.481865 
L 438.674984 174.530746 
L 439.309868 167.301862 
L 439.944753 171.683735 
L 440.579637 168.529484 
L 441.214522 185.779254 
L 441.849406 177.157723 
L 442.484291 175.873751 
L 443.119175 170.904229 
L 443.75406 184.173283 
L 444.388944 179.395618 
L 445.023829 168.644867 
L 446.293598 173.285682 
L 446.928482 157.731774 
L 447.563367 171.972193 
L 448.198251 169.918106 
L 448.833136 180.434066 
L 449.46802 188.729573 
L 450.102905 164.641342 
L 450.737789 185.390172 
L 451.372674 172.860374 
L 452.007558 182.423753 
L 452.642443 182.003813 
L 453.277327 168.438251 
L 453.912212 186.293111 
L 454.547097 172.837566 
L 455.181981 164.146269 
L 455.816866 171.467727 
L 456.45175 174.725287 
L 457.086635 185.677288 
L 457.721519 182.360695 
L 458.356404 170.433305 
L 458.991288 165.297416 
L 459.626173 167.88951 
L 460.261057 178.393396 
L 460.895942 183.722484 
L 461.530826 184.738123 
L 462.165711 179.209127 
L 462.800595 178.043221 
L 463.43548 183.654059 
L 464.070364 168.051852 
L 464.705249 178.087496 
L 465.340133 173.874672 
L 465.975018 172.3492 
L 466.609902 178.347779 
L 467.879671 181.375914 
L 469.14944 185.960379 
L 469.784325 172.42165 
L 470.419209 174.167155 
L 471.054094 167.838527 
L 471.688978 167.974035 
L 472.323863 173.46144 
L 472.958747 175.241827 
L 473.593632 174.656862 
L 474.863401 183.782859 
L 475.498285 178.612087 
L 476.13317 179.737743 
L 476.768055 167.619836 
L 477.402939 183.212652 
L 478.037824 186.501069 
L 478.672708 186.633894 
L 479.307593 189.486271 
L 479.942477 175.546385 
L 480.577362 189.305147 
L 481.212246 179.802142 
L 481.847131 177.821847 
L 482.482015 183.373651 
L 483.1169 175.978401 
L 483.751784 171.24367 
L 484.386669 172.239184 
L 485.021553 167.072437 
L 485.656438 176.867924 
L 486.926207 185.857071 
L 487.561091 185.812796 
L 488.195976 188.708106 
L 488.83086 177.191265 
L 489.465745 180.837907 
L 490.100629 197.563087 
L 490.735514 191.815399 
L 491.370398 187.764917 
L 492.005283 190.367744 
L 492.640167 185.357972 
L 493.275052 197.051913 
L 493.909936 188.733598 
L 494.544821 171.351003 
L 495.179705 184.232316 
L 495.81459 192.136057 
L 496.449474 204.855029 
L 497.084359 187.052493 
L 497.719244 187.295334 
L 498.354128 198.402968 
L 498.989013 186.730494 
L 499.623897 197.933386 
L 500.258782 200.179331 
L 500.893666 170.617113 
L 501.528551 185.289547 
L 502.163435 190.599852 
L 502.79832 186.24347 
L 503.433204 198.254044 
L 504.068089 190.644127 
L 504.702973 200.427539 
L 505.337858 189.774729 
L 505.972742 208.678771 
L 506.607627 191.838208 
L 507.242511 188.002391 
L 507.877396 186.654019 
L 508.51228 195.182975 
L 509.147165 195.067592 
L 510.416934 195.443258 
L 511.686703 187.514025 
L 512.321587 202.203902 
L 512.956472 197.580528 
L 513.591356 212.829878 
L 514.226241 184.182674 
L 515.49601 199.201258 
L 516.130894 191.5095 
L 516.765779 202.431984 
L 517.400663 190.540819 
L 518.035548 191.486692 
L 518.670433 196.432064 
L 519.305317 196.915063 
L 519.940202 203.74279 
L 520.575086 197.030446 
L 521.209971 198.294293 
L 521.844855 200.949446 
L 522.47974 212.313338 
L 523.114624 201.255345 
L 523.749509 206.301342 
L 524.384393 206.263776 
L 525.019278 178.452429 
L 525.654162 207.530306 
L 526.289047 201.559903 
L 526.923931 198.631051 
L 527.558816 188.738964 
L 528.1937 202.884125 
L 528.828585 213.51681 
L 529.463469 209.990918 
L 530.098354 213.098211 
L 530.733238 195.674024 
L 531.368123 220.798019 
L 532.003007 222.469732 
L 532.637892 203.685098 
L 533.272776 211.929622 
L 533.907661 203.336266 
L 534.542545 201.821527 
L 535.17743 220.422353 
L 535.812314 207.200257 
L 536.447199 222.38789 
L 537.082083 214.341933 
L 537.716968 211.692147 
L 538.351852 213.943459 
L 538.986737 219.543563 
L 540.256506 217.780617 
L 540.891391 214.81554 
L 541.526275 222.913823 
L 542.16116 222.618657 
L 542.796044 230.793414 
L 543.430929 212.902328 
L 544.065813 236.123844 
L 544.700698 208.843795 
L 545.335582 228.373052 
L 545.970467 220.205004 
L 546.605351 232.835426 
L 547.240236 231.660128 
L 547.87512 212.923795 
L 548.510005 232.027744 
L 549.144889 238.30673 
L 549.779774 234.827796 
L 550.414658 232.648935 
L 551.049543 229.942799 
L 551.684427 229.541641 
L 552.319312 241.028966 
L 552.954196 231.08858 
L 553.589081 225.132934 
L 554.223965 240.821008 
L 554.85885 226.171382 
L 555.493734 238.057181 
L 556.128619 240.976641 
L 556.763503 228.543444 
L 557.398388 227.716979 
L 558.033272 235.689145 
L 558.668157 238.049131 
L 559.303041 235.277254 
L 559.937926 241.242291 
L 560.57281 228.503194 
L 561.207695 239.275412 
L 561.84258 240.890775 
L 562.477464 254.269845 
L 563.112349 228.84666 
L 563.747233 238.305389 
L 564.382118 240.861258 
L 565.017002 216.143788 
L 565.651887 232.312177 
L 566.286771 239.575944 
L 566.921656 249.618297 
L 567.55654 243.633135 
L 568.191425 240.464126 
L 568.826309 233.516991 
L 569.461194 244.945283 
L 570.096078 234.623864 
L 570.730963 243.763277 
L 571.365847 224.08912 
L 572.000732 248.122342 
L 572.635616 236.722226 
L 573.270501 244.367025 
L 574.54027 238.234281 
L 575.175154 252.747057 
L 575.810039 240.292393 
L 576.444923 243.924276 
L 577.079808 248.811957 
L 577.714692 251.740809 
L 578.349577 253.266281 
L 578.984461 249.010524 
L 579.619346 232.412802 
L 580.25423 240.154201 
L 580.889115 238.32283 
L 581.523999 251.271227 
L 582.158884 252.777915 
L 582.793768 248.616074 
L 583.428653 256.742532 
L 584.063538 230.495564 
L 584.698422 259.623084 
L 585.333307 259.11996 
L 585.968191 256.66069 
L 586.603076 263.047009 
L 587.23796 260.787648 
L 587.872845 260.385149 
L 588.507729 246.379521 
L 589.142614 247.62861 
L 589.142614 247.62861 
" clip-path="url(#p7d03081d0f)" style="fill: none; stroke: #ff7f0e; stroke-width: 1.5; stroke-linecap: square"/>
   </g>
   <g id="patch_3">
    <path d="M 56.50625 576.718125 
L 56.50625 22.318125 
" style="fill: none; stroke: #000000; stroke-width: 0.8; stroke-linejoin: miter; stroke-linecap: square"/>
   </g>
   <g id="patch_4">
    <path d="M 614.50625 576.718125 
L 614.50625 22.318125 
" style="fill: none; stroke: #000000; stroke-width: 0.8; stroke-linejoin: miter; stroke-linecap: square"/>
   </g>
   <g id="patch_5">
    <path d="M 56.50625 576.718125 
L 614.50625 576.718125 
" style="fill: none; stroke: #000000; stroke-width: 0.8; stroke-linejoin: miter; stroke-linecap: square"/>
   </g>
   <g id="patch_6">
    <path d="M 56.50625 22.318125 
L 614.50625 22.318125 
" style="fill: none; stroke: #000000; stroke-width: 0.8; stroke-linejoin: miter; stroke-linecap: square"/>
   </g>
   <g id="text_20">
    <!-- Train and Val Loss -->
    <g transform="translate(281.960938 16.318125) scale(0.12 -0.12)">
     <defs>
      <path id="DejaVuSans-54" d="M -19 4666 
L 3928 4666 
L 3928 4134 
L 2272 4134 
L 2272 0 
L 1638 0 
L 1638 4134 
L -19 4134 
L -19 4666 
z
" transform="scale(0.015625)"/>
      <path id="DejaVuSans-72" d="M 2631 2963 
Q 2534 3019 2420 3045 
Q 2306 3072 2169 3072 
Q 1681 3072 1420 2755 
Q 1159 2438 1159 1844 
L 1159 0 
L 581 0 
L 581 3500 
L 1159 3500 
L 1159 2956 
Q 1341 3275 1631 3429 
Q 1922 3584 2338 3584 
Q 2397 3584 2469 3576 
Q 2541 3569 2628 3553 
L 2631 2963 
z
" transform="scale(0.015625)"/>
      <path id="DejaVuSans-61" d="M 2194 1759 
Q 1497 1759 1228 1600 
Q 959 1441 959 1056 
Q 959 750 1161 570 
Q 1363 391 1709 391 
Q 2188 391 2477 730 
Q 2766 1069 2766 1631 
L 2766 1759 
L 2194 1759 
z
M 3341 1997 
L 3341 0 
L 2766 0 
L 2766 531 
Q 2569 213 2275 61 
Q 1981 -91 1556 -91 
Q 1019 -91 701 211 
Q 384 513 384 1019 
Q 384 1609 779 1909 
Q 1175 2209 1959 2209 
L 2766 2209 
L 2766 2266 
Q 2766 2663 2505 2880 
Q 2244 3097 1772 3097 
Q 1472 3097 1187 3025 
Q 903 2953 641 2809 
L 641 3341 
Q 956 3463 1253 3523 
Q 1550 3584 1831 3584 
Q 2591 3584 2966 3190 
Q 3341 2797 3341 1997 
z
" transform="scale(0.015625)"/>
      <path id="DejaVuSans-69" d="M 603 3500 
L 1178 3500 
L 1178 0 
L 603 0 
L 603 3500 
z
M 603 4863 
L 1178 4863 
L 1178 4134 
L 603 4134 
L 603 4863 
z
" transform="scale(0.015625)"/>
      <path id="DejaVuSans-6e" d="M 3513 2113 
L 3513 0 
L 2938 0 
L 2938 2094 
Q 2938 2591 2744 2837 
Q 2550 3084 2163 3084 
Q 1697 3084 1428 2787 
Q 1159 2491 1159 1978 
L 1159 0 
L 581 0 
L 581 3500 
L 1159 3500 
L 1159 2956 
Q 1366 3272 1645 3428 
Q 1925 3584 2291 3584 
Q 2894 3584 3203 3211 
Q 3513 2838 3513 2113 
z
" transform="scale(0.015625)"/>
      <path id="DejaVuSans-20" transform="scale(0.015625)"/>
      <path id="DejaVuSans-64" d="M 2906 2969 
L 2906 4863 
L 3481 4863 
L 3481 0 
L 2906 0 
L 2906 525 
Q 2725 213 2448 61 
Q 2172 -91 1784 -91 
Q 1150 -91 751 415 
Q 353 922 353 1747 
Q 353 2572 751 3078 
Q 1150 3584 1784 3584 
Q 2172 3584 2448 3432 
Q 2725 3281 2906 2969 
z
M 947 1747 
Q 947 1113 1208 752 
Q 1469 391 1925 391 
Q 2381 391 2643 752 
Q 2906 1113 2906 1747 
Q 2906 2381 2643 2742 
Q 2381 3103 1925 3103 
Q 1469 3103 1208 2742 
Q 947 2381 947 1747 
z
" transform="scale(0.015625)"/>
      <path id="DejaVuSans-56" d="M 1831 0 
L 50 4666 
L 709 4666 
L 2188 738 
L 3669 4666 
L 4325 4666 
L 2547 0 
L 1831 0 
z
" transform="scale(0.015625)"/>
      <path id="DejaVuSans-6c" d="M 603 4863 
L 1178 4863 
L 1178 0 
L 603 0 
L 603 4863 
z
" transform="scale(0.015625)"/>
     </defs>
     <use xlink:href="#DejaVuSans-54"/>
     <use xlink:href="#DejaVuSans-72" transform="translate(46.333984 0)"/>
     <use xlink:href="#DejaVuSans-61" transform="translate(87.447266 0)"/>
     <use xlink:href="#DejaVuSans-69" transform="translate(148.726562 0)"/>
     <use xlink:href="#DejaVuSans-6e" transform="translate(176.509766 0)"/>
     <use xlink:href="#DejaVuSans-20" transform="translate(239.888672 0)"/>
     <use xlink:href="#DejaVuSans-61" transform="translate(271.675781 0)"/>
     <use xlink:href="#DejaVuSans-6e" transform="translate(332.955078 0)"/>
     <use xlink:href="#DejaVuSans-64" transform="translate(396.333984 0)"/>
     <use xlink:href="#DejaVuSans-20" transform="translate(459.810547 0)"/>
     <use xlink:href="#DejaVuSans-56" transform="translate(491.597656 0)"/>
     <use xlink:href="#DejaVuSans-61" transform="translate(552.255859 0)"/>
     <use xlink:href="#DejaVuSans-6c" transform="translate(613.535156 0)"/>
     <use xlink:href="#DejaVuSans-20" transform="translate(641.318359 0)"/>
     <use xlink:href="#DejaVuSans-4c" transform="translate(673.105469 0)"/>
     <use xlink:href="#DejaVuSans-6f" transform="translate(727.068359 0)"/>
     <use xlink:href="#DejaVuSans-73" transform="translate(788.25 0)"/>
     <use xlink:href="#DejaVuSans-73" transform="translate(840.349609 0)"/>
    </g>
   </g>
   <g id="legend_1">
    <g id="patch_7">
     <path d="M 527.915625 60.230625 
L 607.50625 60.230625 
Q 609.50625 60.230625 609.50625 58.230625 
L 609.50625 29.318125 
Q 609.50625 27.318125 607.50625 27.318125 
L 527.915625 27.318125 
Q 525.915625 27.318125 525.915625 29.318125 
L 525.915625 58.230625 
Q 525.915625 60.230625 527.915625 60.230625 
z
" style="fill: #ffffff; opacity: 0.8; stroke: #cccccc; stroke-linejoin: miter"/>
    </g>
    <g id="line2d_37">
     <path d="M 529.915625 35.416563 
L 539.915625 35.416563 
L 549.915625 35.416563 
" style="fill: none; stroke: #1f77b4; stroke-width: 1.5; stroke-linecap: square"/>
    </g>
    <g id="text_21">
     <!-- train_loss -->
     <g transform="translate(557.915625 38.916563) scale(0.1 -0.1)">
      <defs>
       <path id="DejaVuSans-74" d="M 1172 4494 
L 1172 3500 
L 2356 3500 
L 2356 3053 
L 1172 3053 
L 1172 1153 
Q 1172 725 1289 603 
Q 1406 481 1766 481 
L 2356 481 
L 2356 0 
L 1766 0 
Q 1100 0 847 248 
Q 594 497 594 1153 
L 594 3053 
L 172 3053 
L 172 3500 
L 594 3500 
L 594 4494 
L 1172 4494 
z
" transform="scale(0.015625)"/>
       <path id="DejaVuSans-5f" d="M 3263 -1063 
L 3263 -1509 
L -63 -1509 
L -63 -1063 
L 3263 -1063 
z
" transform="scale(0.015625)"/>
      </defs>
      <use xlink:href="#DejaVuSans-74"/>
      <use xlink:href="#DejaVuSans-72" transform="translate(39.208984 0)"/>
      <use xlink:href="#DejaVuSans-61" transform="translate(80.322266 0)"/>
      <use xlink:href="#DejaVuSans-69" transform="translate(141.601562 0)"/>
      <use xlink:href="#DejaVuSans-6e" transform="translate(169.384766 0)"/>
      <use xlink:href="#DejaVuSans-5f" transform="translate(232.763672 0)"/>
      <use xlink:href="#DejaVuSans-6c" transform="translate(282.763672 0)"/>
      <use xlink:href="#DejaVuSans-6f" transform="translate(310.546875 0)"/>
      <use xlink:href="#DejaVuSans-73" transform="translate(371.728516 0)"/>
      <use xlink:href="#DejaVuSans-73" transform="translate(423.828125 0)"/>
     </g>
    </g>
    <g id="line2d_38">
     <path d="M 529.915625 50.372813 
L 539.915625 50.372813 
L 549.915625 50.372813 
" style="fill: none; stroke: #ff7f0e; stroke-width: 1.5; stroke-linecap: square"/>
    </g>
    <g id="text_22">
     <!-- val_loss -->
     <g transform="translate(557.915625 53.872813) scale(0.1 -0.1)">
      <defs>
       <path id="DejaVuSans-76" d="M 191 3500 
L 800 3500 
L 1894 563 
L 2988 3500 
L 3597 3500 
L 2284 0 
L 1503 0 
L 191 3500 
z
" transform="scale(0.015625)"/>
      </defs>
      <use xlink:href="#DejaVuSans-76"/>
      <use xlink:href="#DejaVuSans-61" transform="translate(59.179688 0)"/>
      <use xlink:href="#DejaVuSans-6c" transform="translate(120.458984 0)"/>
      <use xlink:href="#DejaVuSans-5f" transform="translate(148.242188 0)"/>
      <use xlink:href="#DejaVuSans-6c" transform="translate(198.242188 0)"/>
      <use xlink:href="#DejaVuSans-6f" transform="translate(226.025391 0)"/>
      <use xlink:href="#DejaVuSans-73" transform="translate(287.207031 0)"/>
      <use xlink:href="#DejaVuSans-73" transform="translate(339.306641 0)"/>
     </g>
    </g>
   </g>
  </g>
 </g>
 <defs>
  <clipPath id="p7d03081d0f">
   <rect x="56.50625" y="22.318125" width="558" height="554.4"/>
  </clipPath>
 </defs>
</svg>
