<?xml version="1.0" encoding="utf-8" standalone="no"?>
<!DOCTYPE svg PUBLIC "-//W3C//DTD SVG 1.1//EN"
  "http://www.w3.org/Graphics/SVG/1.1/DTD/svg11.dtd">
<svg xmlns:xlink="http://www.w3.org/1999/xlink" width="621.70625pt" height="614.274375pt" viewBox="0 0 621.70625 614.274375" xmlns="http://www.w3.org/2000/svg" version="1.1">
 <metadata>
  <rdf:RDF xmlns:dc="http://purl.org/dc/elements/1.1/" xmlns:cc="http://creativecommons.org/ns#" xmlns:rdf="http://www.w3.org/1999/02/22-rdf-syntax-ns#">
   <cc:Work>
    <dc:type rdf:resource="http://purl.org/dc/dcmitype/StillImage"/>
    <dc:date>2026-05-22T03:26:16.149241</dc:date>
    <dc:format>image/svg+xml</dc:format>
    <dc:creator>
     <cc:Agent>
      <dc:title>Matplotlib v3.10.9, https://matplotlib.org/</dc:title>
     </cc:Agent>
    </dc:creator>
   </cc:Work>
  </rdf:RDF>
 </metadata>
 <defs>
  <style type="text/css">*{stroke-linejoin: round; stroke-linecap: butt}</style>
 </defs>
 <g id="figure_1">
  <g id="patch_1">
   <path d="M 0 614.274375 
L 621.70625 614.274375 
L 621.70625 0 
L 0 0 
z
" style="fill: #ffffff"/>
  </g>
  <g id="axes_1">
   <g id="patch_2">
    <path d="M 56.50625 576.718125 
L 614.50625 576.718125 
L 614.50625 22.318125 
L 56.50625 22.318125 
z
" style="fill: #ffffff"/>
   </g>
   <g id="matplotlib.axis_1">
    <g id="xtick_1">
     <g id="line2d_1">
      <path d="M 81.869886 576.718125 
L 81.869886 22.318125 
" clip-path="url(#p8c56916bc8)" style="fill: none; stroke: #b0b0b0; stroke-width: 0.8; stroke-linecap: square"/>
     </g>
     <g id="line2d_2">
      <defs>
       <path id="m762e082572" d="M 0 0 
L 0 3.5 
" style="stroke: #000000; stroke-width: 0.8"/>
      </defs>
      <g>
       <use xlink:href="#m762e082572" x="81.869886" y="576.718125" style="stroke: #000000; stroke-width: 0.8"/>
      </g>
     </g>
     <g id="text_1">
      <!-- 0 -->
      <g transform="translate(78.688636 591.316563) scale(0.1 -0.1)">
       <defs>
        <path id="DejaVuSans-30" d="M 2034 4250 
Q 1547 4250 1301 3770 
Q 1056 3291 1056 2328 
Q 1056 1369 1301 889 
Q 1547 409 2034 409 
Q 2525 409 2770 889 
Q 3016 1369 3016 2328 
Q 3016 3291 2770 3770 
Q 2525 4250 2034 4250 
z
M 2034 4750 
Q 2819 4750 3233 4129 
Q 3647 3509 3647 2328 
Q 3647 1150 3233 529 
Q 2819 -91 2034 -91 
Q 1250 -91 836 529 
Q 422 1150 422 2328 
Q 422 3509 836 4129 
Q 1250 4750 2034 4750 
z
" transform="scale(0.015625)"/>
       </defs>
       <use xlink:href="#DejaVuSans-30"/>
      </g>
     </g>
    </g>
    <g id="xtick_2">
     <g id="line2d_3">
      <path d="M 145.358338 576.718125 
L 145.358338 22.318125 
" clip-path="url(#p8c56916bc8)" style="fill: none; stroke: #b0b0b0; stroke-width: 0.8; stroke-linecap: square"/>
     </g>
     <g id="line2d_4">
      <g>
       <use xlink:href="#m762e082572" x="145.358338" y="576.718125" style="stroke: #000000; stroke-width: 0.8"/>
      </g>
     </g>
     <g id="text_2">
      <!-- 100 -->
      <g transform="translate(135.814588 591.316563) scale(0.1 -0.1)">
       <defs>
        <path id="DejaVuSans-31" d="M 794 531 
L 1825 531 
L 1825 4091 
L 703 3866 
L 703 4441 
L 1819 4666 
L 2450 4666 
L 2450 531 
L 3481 531 
L 3481 0 
L 794 0 
L 794 531 
z
" transform="scale(0.015625)"/>
       </defs>
       <use xlink:href="#DejaVuSans-31"/>
       <use xlink:href="#DejaVuSans-30" transform="translate(63.623047 0)"/>
       <use xlink:href="#DejaVuSans-30" transform="translate(127.246094 0)"/>
      </g>
     </g>
    </g>
    <g id="xtick_3">
     <g id="line2d_5">
      <path d="M 208.846789 576.718125 
L 208.846789 22.318125 
" clip-path="url(#p8c56916bc8)" style="fill: none; stroke: #b0b0b0; stroke-width: 0.8; stroke-linecap: square"/>
     </g>
     <g id="line2d_6">
      <g>
       <use xlink:href="#m762e082572" x="208.846789" y="576.718125" style="stroke: #000000; stroke-width: 0.8"/>
      </g>
     </g>
     <g id="text_3">
      <!-- 200 -->
      <g transform="translate(199.303039 591.316563) scale(0.1 -0.1)">
       <defs>
        <path id="DejaVuSans-32" d="M 1228 531 
L 3431 531 
L 3431 0 
L 469 0 
L 469 531 
Q 828 903 1448 1529 
Q 2069 2156 2228 2338 
Q 2531 2678 2651 2914 
Q 2772 3150 2772 3378 
Q 2772 3750 2511 3984 
Q 2250 4219 1831 4219 
Q 1534 4219 1204 4116 
Q 875 4013 500 3803 
L 500 4441 
Q 881 4594 1212 4672 
Q 1544 4750 1819 4750 
Q 2544 4750 2975 4387 
Q 3406 4025 3406 3419 
Q 3406 3131 3298 2873 
Q 3191 2616 2906 2266 
Q 2828 2175 2409 1742 
Q 1991 1309 1228 531 
z
" transform="scale(0.015625)"/>
       </defs>
       <use xlink:href="#DejaVuSans-32"/>
       <use xlink:href="#DejaVuSans-30" transform="translate(63.623047 0)"/>
       <use xlink:href="#DejaVuSans-30" transform="translate(127.246094 0)"/>
      </g>
     </g>
    </g>
    <g id="xtick_4">
     <g id="line2d_7">
      <path d="M 272.335241 576.718125 
L 272.335241 22.318125 
" clip-path="url(#p8c56916bc8)" style="fill: none; stroke: #b0b0b0; stroke-width: 0.8; stroke-linecap: square"/>
     </g>
     <g id="line2d_8">
      <g>
       <use xlink:href="#m762e082572" x="272.335241" y="576.718125" style="stroke: #000000; stroke-width: 0.8"/>
      </g>
     </g>
     <g id="text_4">
      <!-- 300 -->
      <g transform="translate(262.791491 591.316563) scale(0.1 -0.1)">
       <defs>
        <path id="DejaVuSans-33" d="M 2597 2516 
Q 3050 2419 3304 2112 
Q 3559 1806 3559 1356 
Q 3559 666 3084 287 
Q 2609 -91 1734 -91 
Q 1441 -91 1130 -33 
Q 819 25 488 141 
L 488 750 
Q 750 597 1062 519 
Q 1375 441 1716 441 
Q 2309 441 2620 675 
Q 2931 909 2931 1356 
Q 2931 1769 2642 2001 
Q 2353 2234 1838 2234 
L 1294 2234 
L 1294 2753 
L 1863 2753 
Q 2328 2753 2575 2939 
Q 2822 3125 2822 3475 
Q 2822 3834 2567 4026 
Q 2313 4219 1838 4219 
Q 1578 4219 1281 4162 
Q 984 4106 628 3988 
L 628 4550 
Q 988 4650 1302 4700 
Q 1616 4750 1894 4750 
Q 2613 4750 3031 4423 
Q 3450 4097 3450 3541 
Q 3450 3153 3228 2886 
Q 3006 2619 2597 2516 
z
" transform="scale(0.015625)"/>
       </defs>
       <use xlink:href="#DejaVuSans-33"/>
       <use xlink:href="#DejaVuSans-30" transform="translate(63.623047 0)"/>
       <use xlink:href="#DejaVuSans-30" transform="translate(127.246094 0)"/>
      </g>
     </g>
    </g>
    <g id="xtick_5">
     <g id="line2d_9">
      <path d="M 335.823692 576.718125 
L 335.823692 22.318125 
" clip-path="url(#p8c56916bc8)" style="fill: none; stroke: #b0b0b0; stroke-width: 0.8; stroke-linecap: square"/>
     </g>
     <g id="line2d_10">
      <g>
       <use xlink:href="#m762e082572" x="335.823692" y="576.718125" style="stroke: #000000; stroke-width: 0.8"/>
      </g>
     </g>
     <g id="text_5">
      <!-- 400 -->
      <g transform="translate(326.279942 591.316563) scale(0.1 -0.1)">
       <defs>
        <path id="DejaVuSans-34" d="M 2419 4116 
L 825 1625 
L 2419 1625 
L 2419 4116 
z
M 2253 4666 
L 3047 4666 
L 3047 1625 
L 3713 1625 
L 3713 1100 
L 3047 1100 
L 3047 0 
L 2419 0 
L 2419 1100 
L 313 1100 
L 313 1709 
L 2253 4666 
z
" transform="scale(0.015625)"/>
       </defs>
       <use xlink:href="#DejaVuSans-34"/>
       <use xlink:href="#DejaVuSans-30" transform="translate(63.623047 0)"/>
       <use xlink:href="#DejaVuSans-30" transform="translate(127.246094 0)"/>
      </g>
     </g>
    </g>
    <g id="xtick_6">
     <g id="line2d_11">
      <path d="M 399.312144 576.718125 
L 399.312144 22.318125 
" clip-path="url(#p8c56916bc8)" style="fill: none; stroke: #b0b0b0; stroke-width: 0.8; stroke-linecap: square"/>
     </g>
     <g id="line2d_12">
      <g>
       <use xlink:href="#m762e082572" x="399.312144" y="576.718125" style="stroke: #000000; stroke-width: 0.8"/>
      </g>
     </g>
     <g id="text_6">
      <!-- 500 -->
      <g transform="translate(389.768394 591.316563) scale(0.1 -0.1)">
       <defs>
        <path id="DejaVuSans-35" d="M 691 4666 
L 3169 4666 
L 3169 4134 
L 1269 4134 
L 1269 2991 
Q 1406 3038 1543 3061 
Q 1681 3084 1819 3084 
Q 2600 3084 3056 2656 
Q 3513 2228 3513 1497 
Q 3513 744 3044 326 
Q 2575 -91 1722 -91 
Q 1428 -91 1123 -41 
Q 819 9 494 109 
L 494 744 
Q 775 591 1075 516 
Q 1375 441 1709 441 
Q 2250 441 2565 725 
Q 2881 1009 2881 1497 
Q 2881 1984 2565 2268 
Q 2250 2553 1709 2553 
Q 1456 2553 1204 2497 
Q 953 2441 691 2322 
L 691 4666 
z
" transform="scale(0.015625)"/>
       </defs>
       <use xlink:href="#DejaVuSans-35"/>
       <use xlink:href="#DejaVuSans-30" transform="translate(63.623047 0)"/>
       <use xlink:href="#DejaVuSans-30" transform="translate(127.246094 0)"/>
      </g>
     </g>
    </g>
    <g id="xtick_7">
     <g id="line2d_13">
      <path d="M 462.800595 576.718125 
L 462.800595 22.318125 
" clip-path="url(#p8c56916bc8)" style="fill: none; stroke: #b0b0b0; stroke-width: 0.8; stroke-linecap: square"/>
     </g>
     <g id="line2d_14">
      <g>
       <use xlink:href="#m762e082572" x="462.800595" y="576.718125" style="stroke: #000000; stroke-width: 0.8"/>
      </g>
     </g>
     <g id="text_7">
      <!-- 600 -->
      <g transform="translate(453.256845 591.316563) scale(0.1 -0.1)">
       <defs>
        <path id="DejaVuSans-36" d="M 2113 2584 
Q 1688 2584 1439 2293 
Q 1191 2003 1191 1497 
Q 1191 994 1439 701 
Q 1688 409 2113 409 
Q 2538 409 2786 701 
Q 3034 994 3034 1497 
Q 3034 2003 2786 2293 
Q 2538 2584 2113 2584 
z
M 3366 4563 
L 3366 3988 
Q 3128 4100 2886 4159 
Q 2644 4219 2406 4219 
Q 1781 4219 1451 3797 
Q 1122 3375 1075 2522 
Q 1259 2794 1537 2939 
Q 1816 3084 2150 3084 
Q 2853 3084 3261 2657 
Q 3669 2231 3669 1497 
Q 3669 778 3244 343 
Q 2819 -91 2113 -91 
Q 1303 -91 875 529 
Q 447 1150 447 2328 
Q 447 3434 972 4092 
Q 1497 4750 2381 4750 
Q 2619 4750 2861 4703 
Q 3103 4656 3366 4563 
z
" transform="scale(0.015625)"/>
       </defs>
       <use xlink:href="#DejaVuSans-36"/>
       <use xlink:href="#DejaVuSans-30" transform="translate(63.623047 0)"/>
       <use xlink:href="#DejaVuSans-30" transform="translate(127.246094 0)"/>
      </g>
     </g>
    </g>
    <g id="xtick_8">
     <g id="line2d_15">
      <path d="M 526.289047 576.718125 
L 526.289047 22.318125 
" clip-path="url(#p8c56916bc8)" style="fill: none; stroke: #b0b0b0; stroke-width: 0.8; stroke-linecap: square"/>
     </g>
     <g id="line2d_16">
      <g>
       <use xlink:href="#m762e082572" x="526.289047" y="576.718125" style="stroke: #000000; stroke-width: 0.8"/>
      </g>
     </g>
     <g id="text_8">
      <!-- 700 -->
      <g transform="translate(516.745297 591.316563) scale(0.1 -0.1)">
       <defs>
        <path id="DejaVuSans-37" d="M 525 4666 
L 3525 4666 
L 3525 4397 
L 1831 0 
L 1172 0 
L 2766 4134 
L 525 4134 
L 525 4666 
z
" transform="scale(0.015625)"/>
       </defs>
       <use xlink:href="#DejaVuSans-37"/>
       <use xlink:href="#DejaVuSans-30" transform="translate(63.623047 0)"/>
       <use xlink:href="#DejaVuSans-30" transform="translate(127.246094 0)"/>
      </g>
     </g>
    </g>
    <g id="xtick_9">
     <g id="line2d_17">
      <path d="M 589.777498 576.718125 
L 589.777498 22.318125 
" clip-path="url(#p8c56916bc8)" style="fill: none; stroke: #b0b0b0; stroke-width: 0.8; stroke-linecap: square"/>
     </g>
     <g id="line2d_18">
      <g>
       <use xlink:href="#m762e082572" x="589.777498" y="576.718125" style="stroke: #000000; stroke-width: 0.8"/>
      </g>
     </g>
     <g id="text_9">
      <!-- 800 -->
      <g transform="translate(580.233748 591.316563) scale(0.1 -0.1)">
       <defs>
        <path id="DejaVuSans-38" d="M 2034 2216 
Q 1584 2216 1326 1975 
Q 1069 1734 1069 1313 
Q 1069 891 1326 650 
Q 1584 409 2034 409 
Q 2484 409 2743 651 
Q 3003 894 3003 1313 
Q 3003 1734 2745 1975 
Q 2488 2216 2034 2216 
z
M 1403 2484 
Q 997 2584 770 2862 
Q 544 3141 544 3541 
Q 544 4100 942 4425 
Q 1341 4750 2034 4750 
Q 2731 4750 3128 4425 
Q 3525 4100 3525 3541 
Q 3525 3141 3298 2862 
Q 3072 2584 2669 2484 
Q 3125 2378 3379 2068 
Q 3634 1759 3634 1313 
Q 3634 634 3220 271 
Q 2806 -91 2034 -91 
Q 1263 -91 848 271 
Q 434 634 434 1313 
Q 434 1759 690 2068 
Q 947 2378 1403 2484 
z
M 1172 3481 
Q 1172 3119 1398 2916 
Q 1625 2713 2034 2713 
Q 2441 2713 2670 2916 
Q 2900 3119 2900 3481 
Q 2900 3844 2670 4047 
Q 2441 4250 2034 4250 
Q 1625 4250 1398 4047 
Q 1172 3844 1172 3481 
z
" transform="scale(0.015625)"/>
       </defs>
       <use xlink:href="#DejaVuSans-38"/>
       <use xlink:href="#DejaVuSans-30" transform="translate(63.623047 0)"/>
       <use xlink:href="#DejaVuSans-30" transform="translate(127.246094 0)"/>
      </g>
     </g>
    </g>
    <g id="text_10">
     <!-- Epochs -->
     <g transform="translate(317.590625 604.994688) scale(0.1 -0.1)">
      <defs>
       <path id="DejaVuSans-45" d="M 628 4666 
L 3578 4666 
L 3578 4134 
L 1259 4134 
L 1259 2753 
L 3481 2753 
L 3481 2222 
L 1259 2222 
L 1259 531 
L 3634 531 
L 3634 0 
L 628 0 
L 628 4666 
z
" transform="scale(0.015625)"/>
       <path id="DejaVuSans-70" d="M 1159 525 
L 1159 -1331 
L 581 -1331 
L 581 3500 
L 1159 3500 
L 1159 2969 
Q 1341 3281 1617 3432 
Q 1894 3584 2278 3584 
Q 2916 3584 3314 3078 
Q 3713 2572 3713 1747 
Q 3713 922 3314 415 
Q 2916 -91 2278 -91 
Q 1894 -91 1617 61 
Q 1341 213 1159 525 
z
M 3116 1747 
Q 3116 2381 2855 2742 
Q 2594 3103 2138 3103 
Q 1681 3103 1420 2742 
Q 1159 2381 1159 1747 
Q 1159 1113 1420 752 
Q 1681 391 2138 391 
Q 2594 391 2855 752 
Q 3116 1113 3116 1747 
z
" transform="scale(0.015625)"/>
       <path id="DejaVuSans-6f" d="M 1959 3097 
Q 1497 3097 1228 2736 
Q 959 2375 959 1747 
Q 959 1119 1226 758 
Q 1494 397 1959 397 
Q 2419 397 2687 759 
Q 2956 1122 2956 1747 
Q 2956 2369 2687 2733 
Q 2419 3097 1959 3097 
z
M 1959 3584 
Q 2709 3584 3137 3096 
Q 3566 2609 3566 1747 
Q 3566 888 3137 398 
Q 2709 -91 1959 -91 
Q 1206 -91 779 398 
Q 353 888 353 1747 
Q 353 2609 779 3096 
Q 1206 3584 1959 3584 
z
" transform="scale(0.015625)"/>
       <path id="DejaVuSans-63" d="M 3122 3366 
L 3122 2828 
Q 2878 2963 2633 3030 
Q 2388 3097 2138 3097 
Q 1578 3097 1268 2742 
Q 959 2388 959 1747 
Q 959 1106 1268 751 
Q 1578 397 2138 397 
Q 2388 397 2633 464 
Q 2878 531 3122 666 
L 3122 134 
Q 2881 22 2623 -34 
Q 2366 -91 2075 -91 
Q 1284 -91 818 406 
Q 353 903 353 1747 
Q 353 2603 823 3093 
Q 1294 3584 2113 3584 
Q 2378 3584 2631 3529 
Q 2884 3475 3122 3366 
z
" transform="scale(0.015625)"/>
       <path id="DejaVuSans-68" d="M 3513 2113 
L 3513 0 
L 2938 0 
L 2938 2094 
Q 2938 2591 2744 2837 
Q 2550 3084 2163 3084 
Q 1697 3084 1428 2787 
Q 1159 2491 1159 1978 
L 1159 0 
L 581 0 
L 581 4863 
L 1159 4863 
L 1159 2956 
Q 1366 3272 1645 3428 
Q 1925 3584 2291 3584 
Q 2894 3584 3203 3211 
Q 3513 2838 3513 2113 
z
" transform="scale(0.015625)"/>
       <path id="DejaVuSans-73" d="M 2834 3397 
L 2834 2853 
Q 2591 2978 2328 3040 
Q 2066 3103 1784 3103 
Q 1356 3103 1142 2972 
Q 928 2841 928 2578 
Q 928 2378 1081 2264 
Q 1234 2150 1697 2047 
L 1894 2003 
Q 2506 1872 2764 1633 
Q 3022 1394 3022 966 
Q 3022 478 2636 193 
Q 2250 -91 1575 -91 
Q 1294 -91 989 -36 
Q 684 19 347 128 
L 347 722 
Q 666 556 975 473 
Q 1284 391 1588 391 
Q 1994 391 2212 530 
Q 2431 669 2431 922 
Q 2431 1156 2273 1281 
Q 2116 1406 1581 1522 
L 1381 1569 
Q 847 1681 609 1914 
Q 372 2147 372 2553 
Q 372 3047 722 3315 
Q 1072 3584 1716 3584 
Q 2034 3584 2315 3537 
Q 2597 3491 2834 3397 
z
" transform="scale(0.015625)"/>
      </defs>
      <use xlink:href="#DejaVuSans-45"/>
      <use xlink:href="#DejaVuSans-70" transform="translate(63.183594 0)"/>
      <use xlink:href="#DejaVuSans-6f" transform="translate(126.660156 0)"/>
      <use xlink:href="#DejaVuSans-63" transform="translate(187.841797 0)"/>
      <use xlink:href="#DejaVuSans-68" transform="translate(242.822266 0)"/>
      <use xlink:href="#DejaVuSans-73" transform="translate(306.201172 0)"/>
     </g>
    </g>
   </g>
   <g id="matplotlib.axis_2">
    <g id="ytick_1">
     <g id="line2d_19">
      <path d="M 56.50625 526.560768 
L 614.50625 526.560768 
" clip-path="url(#p8c56916bc8)" style="fill: none; stroke: #b0b0b0; stroke-width: 0.8; stroke-linecap: square"/>
     </g>
     <g id="line2d_20">
      <defs>
       <path id="m97ffa22b0e" d="M 0 0 
L -3.5 0 
" style="stroke: #000000; stroke-width: 0.8"/>
      </defs>
      <g>
       <use xlink:href="#m97ffa22b0e" x="56.50625" y="526.560768" style="stroke: #000000; stroke-width: 0.8"/>
      </g>
     </g>
     <g id="text_11">
      <!-- 0.003 -->
      <g transform="translate(20.878125 530.359986) scale(0.1 -0.1)">
       <defs>
        <path id="DejaVuSans-2e" d="M 684 794 
L 1344 794 
L 1344 0 
L 684 0 
L 684 794 
z
" transform="scale(0.015625)"/>
       </defs>
       <use xlink:href="#DejaVuSans-30"/>
       <use xlink:href="#DejaVuSans-2e" transform="translate(63.623047 0)"/>
       <use xlink:href="#DejaVuSans-30" transform="translate(95.410156 0)"/>
       <use xlink:href="#DejaVuSans-30" transform="translate(159.033203 0)"/>
       <use xlink:href="#DejaVuSans-33" transform="translate(222.65625 0)"/>
      </g>
     </g>
    </g>
    <g id="ytick_2">
     <g id="line2d_21">
      <path d="M 56.50625 464.167373 
L 614.50625 464.167373 
" clip-path="url(#p8c56916bc8)" style="fill: none; stroke: #b0b0b0; stroke-width: 0.8; stroke-linecap: square"/>
     </g>
     <g id="line2d_22">
      <g>
       <use xlink:href="#m97ffa22b0e" x="56.50625" y="464.167373" style="stroke: #000000; stroke-width: 0.8"/>
      </g>
     </g>
     <g id="text_12">
      <!-- 0.004 -->
      <g transform="translate(20.878125 467.966592) scale(0.1 -0.1)">
       <use xlink:href="#DejaVuSans-30"/>
       <use xlink:href="#DejaVuSans-2e" transform="translate(63.623047 0)"/>
       <use xlink:href="#DejaVuSans-30" transform="translate(95.410156 0)"/>
       <use xlink:href="#DejaVuSans-30" transform="translate(159.033203 0)"/>
       <use xlink:href="#DejaVuSans-34" transform="translate(222.65625 0)"/>
      </g>
     </g>
    </g>
    <g id="ytick_3">
     <g id="line2d_23">
      <path d="M 56.50625 401.773978 
L 614.50625 401.773978 
" clip-path="url(#p8c56916bc8)" style="fill: none; stroke: #b0b0b0; stroke-width: 0.8; stroke-linecap: square"/>
     </g>
     <g id="line2d_24">
      <g>
       <use xlink:href="#m97ffa22b0e" x="56.50625" y="401.773978" style="stroke: #000000; stroke-width: 0.8"/>
      </g>
     </g>
     <g id="text_13">
      <!-- 0.005 -->
      <g transform="translate(20.878125 405.573197) scale(0.1 -0.1)">
       <use xlink:href="#DejaVuSans-30"/>
       <use xlink:href="#DejaVuSans-2e" transform="translate(63.623047 0)"/>
       <use xlink:href="#DejaVuSans-30" transform="translate(95.410156 0)"/>
       <use xlink:href="#DejaVuSans-30" transform="translate(159.033203 0)"/>
       <use xlink:href="#DejaVuSans-35" transform="translate(222.65625 0)"/>
      </g>
     </g>
    </g>
    <g id="ytick_4">
     <g id="line2d_25">
      <path d="M 56.50625 339.380584 
L 614.50625 339.380584 
" clip-path="url(#p8c56916bc8)" style="fill: none; stroke: #b0b0b0; stroke-width: 0.8; stroke-linecap: square"/>
     </g>
     <g id="line2d_26">
      <g>
       <use xlink:href="#m97ffa22b0e" x="56.50625" y="339.380584" style="stroke: #000000; stroke-width: 0.8"/>
      </g>
     </g>
     <g id="text_14">
      <!-- 0.006 -->
      <g transform="translate(20.878125 343.179803) scale(0.1 -0.1)">
       <use xlink:href="#DejaVuSans-30"/>
       <use xlink:href="#DejaVuSans-2e" transform="translate(63.623047 0)"/>
       <use xlink:href="#DejaVuSans-30" transform="translate(95.410156 0)"/>
       <use xlink:href="#DejaVuSans-30" transform="translate(159.033203 0)"/>
       <use xlink:href="#DejaVuSans-36" transform="translate(222.65625 0)"/>
      </g>
     </g>
    </g>
    <g id="ytick_5">
     <g id="line2d_27">
      <path d="M 56.50625 276.987189 
L 614.50625 276.987189 
" clip-path="url(#p8c56916bc8)" style="fill: none; stroke: #b0b0b0; stroke-width: 0.8; stroke-linecap: square"/>
     </g>
     <g id="line2d_28">
      <g>
       <use xlink:href="#m97ffa22b0e" x="56.50625" y="276.987189" style="stroke: #000000; stroke-width: 0.8"/>
      </g>
     </g>
     <g id="text_15">
      <!-- 0.007 -->
      <g transform="translate(20.878125 280.786408) scale(0.1 -0.1)">
       <use xlink:href="#DejaVuSans-30"/>
       <use xlink:href="#DejaVuSans-2e" transform="translate(63.623047 0)"/>
       <use xlink:href="#DejaVuSans-30" transform="translate(95.410156 0)"/>
       <use xlink:href="#DejaVuSans-30" transform="translate(159.033203 0)"/>
       <use xlink:href="#DejaVuSans-37" transform="translate(222.65625 0)"/>
      </g>
     </g>
    </g>
    <g id="ytick_6">
     <g id="line2d_29">
      <path d="M 56.50625 214.593795 
L 614.50625 214.593795 
" clip-path="url(#p8c56916bc8)" style="fill: none; stroke: #b0b0b0; stroke-width: 0.8; stroke-linecap: square"/>
     </g>
     <g id="line2d_30">
      <g>
       <use xlink:href="#m97ffa22b0e" x="56.50625" y="214.593795" style="stroke: #000000; stroke-width: 0.8"/>
      </g>
     </g>
     <g id="text_16">
      <!-- 0.008 -->
      <g transform="translate(20.878125 218.393013) scale(0.1 -0.1)">
       <use xlink:href="#DejaVuSans-30"/>
       <use xlink:href="#DejaVuSans-2e" transform="translate(63.623047 0)"/>
       <use xlink:href="#DejaVuSans-30" transform="translate(95.410156 0)"/>
       <use xlink:href="#DejaVuSans-30" transform="translate(159.033203 0)"/>
       <use xlink:href="#DejaVuSans-38" transform="translate(222.65625 0)"/>
      </g>
     </g>
    </g>
    <g id="ytick_7">
     <g id="line2d_31">
      <path d="M 56.50625 152.2004 
L 614.50625 152.2004 
" clip-path="url(#p8c56916bc8)" style="fill: none; stroke: #b0b0b0; stroke-width: 0.8; stroke-linecap: square"/>
     </g>
     <g id="line2d_32">
      <g>
       <use xlink:href="#m97ffa22b0e" x="56.50625" y="152.2004" style="stroke: #000000; stroke-width: 0.8"/>
      </g>
     </g>
     <g id="text_17">
      <!-- 0.009 -->
      <g transform="translate(20.878125 155.999619) scale(0.1 -0.1)">
       <defs>
        <path id="DejaVuSans-39" d="M 703 97 
L 703 672 
Q 941 559 1184 500 
Q 1428 441 1663 441 
Q 2288 441 2617 861 
Q 2947 1281 2994 2138 
Q 2813 1869 2534 1725 
Q 2256 1581 1919 1581 
Q 1219 1581 811 2004 
Q 403 2428 403 3163 
Q 403 3881 828 4315 
Q 1253 4750 1959 4750 
Q 2769 4750 3195 4129 
Q 3622 3509 3622 2328 
Q 3622 1225 3098 567 
Q 2575 -91 1691 -91 
Q 1453 -91 1209 -44 
Q 966 3 703 97 
z
M 1959 2075 
Q 2384 2075 2632 2365 
Q 2881 2656 2881 3163 
Q 2881 3666 2632 3958 
Q 2384 4250 1959 4250 
Q 1534 4250 1286 3958 
Q 1038 3666 1038 3163 
Q 1038 2656 1286 2365 
Q 1534 2075 1959 2075 
z
" transform="scale(0.015625)"/>
       </defs>
       <use xlink:href="#DejaVuSans-30"/>
       <use xlink:href="#DejaVuSans-2e" transform="translate(63.623047 0)"/>
       <use xlink:href="#DejaVuSans-30" transform="translate(95.410156 0)"/>
       <use xlink:href="#DejaVuSans-30" transform="translate(159.033203 0)"/>
       <use xlink:href="#DejaVuSans-39" transform="translate(222.65625 0)"/>
      </g>
     </g>
    </g>
    <g id="ytick_8">
     <g id="line2d_33">
      <path d="M 56.50625 89.807005 
L 614.50625 89.807005 
" clip-path="url(#p8c56916bc8)" style="fill: none; stroke: #b0b0b0; stroke-width: 0.8; stroke-linecap: square"/>
     </g>
     <g id="line2d_34">
      <g>
       <use xlink:href="#m97ffa22b0e" x="56.50625" y="89.807005" style="stroke: #000000; stroke-width: 0.8"/>
      </g>
     </g>
     <g id="text_18">
      <!-- 0.010 -->
      <g transform="translate(20.878125 93.606224) scale(0.1 -0.1)">
       <use xlink:href="#DejaVuSans-30"/>
       <use xlink:href="#DejaVuSans-2e" transform="translate(63.623047 0)"/>
       <use xlink:href="#DejaVuSans-30" transform="translate(95.410156 0)"/>
       <use xlink:href="#DejaVuSans-31" transform="translate(159.033203 0)"/>
       <use xlink:href="#DejaVuSans-30" transform="translate(222.65625 0)"/>
      </g>
     </g>
    </g>
    <g id="ytick_9">
     <g id="line2d_35">
      <path d="M 56.50625 27.413611 
L 614.50625 27.413611 
" clip-path="url(#p8c56916bc8)" style="fill: none; stroke: #b0b0b0; stroke-width: 0.8; stroke-linecap: square"/>
     </g>
     <g id="line2d_36">
      <g>
       <use xlink:href="#m97ffa22b0e" x="56.50625" y="27.413611" style="stroke: #000000; stroke-width: 0.8"/>
      </g>
     </g>
     <g id="text_19">
      <!-- 0.011 -->
      <g transform="translate(20.878125 31.212829) scale(0.1 -0.1)">
       <use xlink:href="#DejaVuSans-30"/>
       <use xlink:href="#DejaVuSans-2e" transform="translate(63.623047 0)"/>
       <use xlink:href="#DejaVuSans-30" transform="translate(95.410156 0)"/>
       <use xlink:href="#DejaVuSans-31" transform="translate(159.033203 0)"/>
       <use xlink:href="#DejaVuSans-31" transform="translate(222.65625 0)"/>
      </g>
     </g>
    </g>
    <g id="text_20">
     <!-- Accuracy -->
     <g transform="translate(14.798437 322.34625) rotate(-90) scale(0.1 -0.1)">
      <defs>
       <path id="DejaVuSans-41" d="M 2188 4044 
L 1331 1722 
L 3047 1722 
L 2188 4044 
z
M 1831 4666 
L 2547 4666 
L 4325 0 
L 3669 0 
L 3244 1197 
L 1141 1197 
L 716 0 
L 50 0 
L 1831 4666 
z
" transform="scale(0.015625)"/>
       <path id="DejaVuSans-75" d="M 544 1381 
L 544 3500 
L 1119 3500 
L 1119 1403 
Q 1119 906 1312 657 
Q 1506 409 1894 409 
Q 2359 409 2629 706 
Q 2900 1003 2900 1516 
L 2900 3500 
L 3475 3500 
L 3475 0 
L 2900 0 
L 2900 538 
Q 2691 219 2414 64 
Q 2138 -91 1772 -91 
Q 1169 -91 856 284 
Q 544 659 544 1381 
z
M 1991 3584 
L 1991 3584 
z
" transform="scale(0.015625)"/>
       <path id="DejaVuSans-72" d="M 2631 2963 
Q 2534 3019 2420 3045 
Q 2306 3072 2169 3072 
Q 1681 3072 1420 2755 
Q 1159 2438 1159 1844 
L 1159 0 
L 581 0 
L 581 3500 
L 1159 3500 
L 1159 2956 
Q 1341 3275 1631 3429 
Q 1922 3584 2338 3584 
Q 2397 3584 2469 3576 
Q 2541 3569 2628 3553 
L 2631 2963 
z
" transform="scale(0.015625)"/>
       <path id="DejaVuSans-61" d="M 2194 1759 
Q 1497 1759 1228 1600 
Q 959 1441 959 1056 
Q 959 750 1161 570 
Q 1363 391 1709 391 
Q 2188 391 2477 730 
Q 2766 1069 2766 1631 
L 2766 1759 
L 2194 1759 
z
M 3341 1997 
L 3341 0 
L 2766 0 
L 2766 531 
Q 2569 213 2275 61 
Q 1981 -91 1556 -91 
Q 1019 -91 701 211 
Q 384 513 384 1019 
Q 384 1609 779 1909 
Q 1175 2209 1959 2209 
L 2766 2209 
L 2766 2266 
Q 2766 2663 2505 2880 
Q 2244 3097 1772 3097 
Q 1472 3097 1187 3025 
Q 903 2953 641 2809 
L 641 3341 
Q 956 3463 1253 3523 
Q 1550 3584 1831 3584 
Q 2591 3584 2966 3190 
Q 3341 2797 3341 1997 
z
" transform="scale(0.015625)"/>
       <path id="DejaVuSans-79" d="M 2059 -325 
Q 1816 -950 1584 -1140 
Q 1353 -1331 966 -1331 
L 506 -1331 
L 506 -850 
L 844 -850 
Q 1081 -850 1212 -737 
Q 1344 -625 1503 -206 
L 1606 56 
L 191 3500 
L 800 3500 
L 1894 763 
L 2988 3500 
L 3597 3500 
L 2059 -325 
z
" transform="scale(0.015625)"/>
      </defs>
      <use xlink:href="#DejaVuSans-41"/>
      <use xlink:href="#DejaVuSans-63" transform="translate(66.658203 0)"/>
      <use xlink:href="#DejaVuSans-63" transform="translate(121.638672 0)"/>
      <use xlink:href="#DejaVuSans-75" transform="translate(176.619141 0)"/>
      <use xlink:href="#DejaVuSans-72" transform="translate(239.998047 0)"/>
      <use xlink:href="#DejaVuSans-61" transform="translate(281.111328 0)"/>
      <use xlink:href="#DejaVuSans-63" transform="translate(342.390625 0)"/>
      <use xlink:href="#DejaVuSans-79" transform="translate(397.371094 0)"/>
     </g>
    </g>
   </g>
   <g id="line2d_37">
    <path d="M 81.869886 452.381965 
L 82.504771 457.23477 
L 83.139655 452.03532 
L 83.77454 449.608917 
L 84.409424 432.970688 
L 85.044309 427.771237 
L 85.679193 392.414963 
L 86.314078 389.641915 
L 86.948962 374.390209 
L 87.583847 363.991309 
L 88.853616 330.368204 
L 89.488501 331.061466 
L 90.123385 314.07659 
L 90.75827 318.582779 
L 91.393154 308.183878 
L 92.028039 294.665313 
L 92.662923 304.370952 
L 93.297808 304.024335 
L 93.932692 278.3737 
L 94.567577 274.214157 
L 95.202461 315.80976 
L 95.837346 282.879888 
L 96.47223 283.919796 
L 97.107115 272.134371 
L 97.741999 290.159124 
L 98.376884 274.907419 
L 99.011768 273.520895 
L 99.646653 258.615806 
L 100.281537 259.309068 
L 100.916422 273.867511 
L 101.551306 262.775348 
L 102.821075 272.480987 
L 103.45596 268.321444 
L 104.090844 249.603429 
L 104.725729 266.241658 
L 105.360613 247.176997 
L 105.995498 263.121994 
L 106.630382 250.296691 
L 107.265267 264.855134 
L 107.900151 271.441109 
L 108.535036 249.603429 
L 109.16992 274.214157 
L 109.804805 260.695592 
L 110.43969 234.005078 
L 111.074574 231.23203 
L 111.709459 259.309068 
L 112.344343 246.137119 
L 112.979228 255.842758 
L 113.614112 236.43148 
L 114.248997 261.388854 
L 114.883881 238.511266 
L 115.518766 231.578675 
L 116.15365 248.216905 
L 116.788535 240.591052 
L 117.423419 249.256783 
L 118.058304 252.029831 
L 119.962957 228.112365 
L 120.597842 227.419103 
L 121.232726 242.324192 
L 121.867611 246.137119 
L 122.502495 253.06971 
L 123.13738 247.523643 
L 123.772264 233.658432 
L 124.407149 224.992672 
L 125.042033 226.379225 
L 125.676918 231.578675 
L 126.311802 235.044956 
L 126.946687 232.271937 
L 127.581571 240.937668 
L 128.216456 221.873007 
L 128.85134 238.16462 
L 129.486225 227.419103 
L 130.121109 240.591052 
L 130.755994 218.753343 
L 131.390879 226.725841 
L 132.025763 207.661209 
L 132.660648 213.553921 
L 133.295532 232.271937 
L 133.930417 203.155021 
L 134.565301 213.900538 
L 135.200186 217.366819 
L 135.83507 227.76572 
L 136.469955 217.020202 
L 137.104839 221.873007 
L 137.739724 217.713435 
L 138.374608 227.072487 
L 139.009493 225.685963 
L 139.644377 209.740966 
L 140.279262 222.219682 
L 140.914146 209.740966 
L 141.549031 217.366819 
L 142.183915 208.007826 
L 142.8188 210.434257 
L 143.453684 206.621302 
L 144.088569 206.967918 
L 144.723453 194.142644 
L 145.358338 212.167397 
L 145.993222 220.833158 
L 146.628107 206.274685 
L 147.262991 203.155021 
L 147.897876 214.247154 
L 148.53276 218.406726 
L 149.167645 229.152244 
L 149.802529 200.728589 
L 150.437414 210.434257 
L 151.072298 217.366819 
L 151.707183 219.446634 
L 152.342067 196.222401 
L 153.611837 215.980295 
L 154.246721 201.42188 
L 154.881606 229.498889 
L 155.51649 189.983072 
L 156.151375 210.087582 
L 156.786259 190.676305 
L 157.421144 202.115113 
L 158.056028 206.967918 
L 158.690913 208.354442 
L 159.325797 202.115113 
L 159.960682 176.11789 
L 160.595566 208.701058 
L 161.230451 192.062829 
L 161.865335 195.529168 
L 162.50022 183.050452 
L 163.135104 205.928069 
L 163.769989 188.596548 
L 164.404873 206.274685 
L 165.039758 173.344842 
L 165.674642 193.795969 
L 166.309527 200.035356 
L 166.944411 178.89088 
L 167.579296 199.342065 
L 168.21418 209.740966 
L 168.849065 181.317312 
L 169.483949 201.075206 
L 170.118834 190.676305 
L 170.753718 202.46173 
L 171.388603 183.050452 
L 172.023487 190.676305 
L 172.658372 192.409503 
L 173.293256 197.262308 
L 173.928141 192.409503 
L 174.563026 198.995449 
L 175.19791 182.703835 
L 175.832795 186.170116 
L 177.102564 183.397068 
L 177.737448 192.062829 
L 178.372333 189.983072 
L 179.007217 188.943164 
L 179.642102 193.795969 
L 180.276986 196.569017 
L 180.911871 187.210024 
L 181.546755 191.022979 
L 182.18164 203.155021 
L 182.816524 172.651551 
L 183.451409 187.210024 
L 184.086293 196.915692 
L 184.721178 185.130267 
L 185.356062 198.648832 
L 185.990947 208.007826 
L 186.625831 178.89088 
L 187.260716 205.928069 
L 187.8956 201.075206 
L 188.530485 168.838654 
L 189.165369 205.581394 
L 189.800254 182.357219 
L 190.435138 179.237555 
L 191.070023 183.050452 
L 191.704907 183.397068 
L 192.339792 188.249931 
L 192.974676 189.636455 
L 193.609561 187.903315 
L 194.244445 185.476883 
L 194.87933 179.584171 
L 195.514215 193.449353 
L 196.149099 193.102736 
L 196.783984 164.332465 
L 197.418868 172.998226 
L 198.053753 179.584171 
L 199.323522 172.651551 
L 199.958406 189.983072 
L 200.593291 202.46173 
L 201.228175 187.55664 
L 201.86306 188.596548 
L 202.497944 174.384692 
L 203.132829 174.038075 
L 203.767713 169.18527 
L 204.402598 179.237555 
L 205.037482 186.516791 
L 205.672367 174.384692 
L 206.307251 191.369596 
L 206.942136 180.970695 
L 208.211905 187.210024 
L 208.846789 174.731366 
L 209.481674 179.584171 
L 210.116558 179.930788 
L 210.751443 178.89088 
L 211.386327 167.798746 
L 212.021212 196.222401 
L 212.656096 183.743743 
L 213.290981 188.943164 
L 213.925865 171.958318 
L 214.56075 172.998226 
L 215.830519 183.397068 
L 216.465403 189.636455 
L 217.100288 176.464507 
L 217.735173 169.878503 
L 218.370057 158.786369 
L 219.004942 178.544264 
L 219.639826 180.970695 
L 220.909595 143.88128 
L 221.54448 178.197647 
L 222.179364 181.663928 
L 222.814249 173.691459 
L 223.449133 183.050452 
L 224.084018 160.866126 
L 224.718902 145.614421 
L 225.353787 163.292558 
L 225.988671 174.731366 
L 226.623556 165.718989 
L 227.25844 185.476883 
L 227.893325 193.449353 
L 228.528209 164.332465 
L 229.163094 157.399845 
L 229.797978 168.145363 
L 230.432863 167.798746 
L 231.067747 165.718989 
L 231.702632 168.838654 
L 232.337516 184.090359 
L 232.972401 170.225178 
L 233.607285 180.970695 
L 234.24217 157.053229 
L 234.877054 167.798746 
L 235.511939 175.771216 
L 236.146823 167.45213 
L 236.781708 161.559417 
L 237.416592 156.706613 
L 238.051477 156.706613 
L 239.321246 173.344842 
L 239.956131 156.359938 
L 240.591015 178.89088 
L 241.2259 173.691459 
L 241.860784 158.439753 
L 242.495669 171.611702 
L 243.130553 157.053229 
L 243.765438 162.599325 
L 244.400322 178.197647 
L 245.035207 172.998226 
L 245.670091 169.18527 
L 246.304976 163.985791 
L 246.93986 151.160517 
L 247.574745 143.88128 
L 248.209629 177.504414 
L 248.844514 158.093137 
L 249.479398 172.998226 
L 250.114283 165.718989 
L 250.749167 152.200424 
L 251.384052 162.945941 
L 252.018936 164.679082 
L 252.653821 155.320089 
L 253.288705 151.507133 
L 253.92359 162.945941 
L 254.558474 157.053229 
L 255.193359 173.344842 
L 255.828243 139.375092 
L 256.463128 149.427376 
L 257.098012 162.599325 
L 257.732897 149.773993 
L 258.367781 154.626797 
L 259.002666 156.706613 
L 259.63755 166.412222 
L 260.272435 166.412222 
L 260.90732 164.332465 
L 261.542204 157.399845 
L 262.177089 170.571794 
L 262.811973 162.599325 
L 263.446858 166.065606 
L 264.081742 172.998226 
L 264.716627 151.160517 
L 265.351511 161.906034 
L 265.986396 160.51951 
L 266.62128 157.053229 
L 267.256165 161.906034 
L 267.891049 158.093137 
L 268.525934 149.427376 
L 269.160818 154.626797 
L 269.795703 158.786369 
L 270.430587 136.94866 
L 271.065472 144.574513 
L 271.700356 160.51951 
L 272.335241 167.798746 
L 272.970125 161.212801 
L 273.60501 144.574513 
L 274.239894 154.973414 
L 274.874779 154.973414 
L 275.509663 147.694236 
L 276.144548 164.332465 
L 276.779432 147.000945 
L 277.414317 165.372315 
L 278.049201 134.868903 
L 278.684086 152.200424 
L 279.31897 143.534664 
L 279.953855 167.798746 
L 280.588739 144.574513 
L 281.223624 153.240274 
L 281.858509 167.798746 
L 282.493393 146.307712 
L 283.128278 138.335184 
L 283.763162 160.172893 
L 284.398047 142.14814 
L 285.032931 142.841373 
L 285.667816 158.439753 
L 286.3027 160.172893 
L 286.937585 143.534664 
L 287.572469 170.571794 
L 288.207354 140.414999 
L 288.842238 136.255427 
L 289.477123 148.387469 
L 290.112007 151.507133 
L 290.746892 153.240274 
L 291.381776 158.439753 
L 292.016661 161.559417 
L 292.651545 167.105513 
L 293.28643 144.227897 
L 293.921314 146.307712 
L 294.556199 152.200424 
L 295.191083 152.200424 
L 295.825968 131.749239 
L 296.460852 134.522287 
L 297.095737 134.522287 
L 297.730621 144.921188 
L 298.365506 149.427376 
L 299.00039 138.681859 
L 299.635275 141.108232 
L 300.270159 134.868903 
L 300.905044 144.227897 
L 301.539928 131.402622 
L 302.174813 124.123386 
L 302.809697 135.562136 
L 303.444582 157.053229 
L 304.079467 136.94866 
L 304.714351 143.88128 
L 305.349236 165.372315 
L 305.98412 160.51951 
L 306.619005 143.188047 
L 307.253889 160.51951 
L 307.888774 139.028475 
L 308.523658 134.522287 
L 309.158543 158.786369 
L 309.793427 141.454849 
L 310.428312 133.135763 
L 311.063196 147.347561 
L 311.698081 147.347561 
L 312.332965 128.976191 
L 312.96785 153.933565 
L 313.602734 152.893657 
L 314.237619 155.666705 
L 314.872503 139.375092 
L 315.507388 145.614421 
L 316.142272 160.51951 
L 316.777157 151.160517 
L 317.412041 135.562136 
L 318.046926 143.188047 
L 318.68181 157.746462 
L 319.316695 135.21552 
L 319.951579 145.267804 
L 320.586464 149.080702 
L 321.221348 150.8139 
L 321.856233 165.372315 
L 322.491117 129.322807 
L 323.126002 139.375092 
L 323.760886 142.841373 
L 324.395771 157.746462 
L 325.030656 177.851031 
L 325.66554 127.589667 
L 326.300425 130.709331 
L 326.935309 141.801523 
L 327.570194 137.641951 
L 328.205078 132.095855 
L 328.839963 135.908811 
L 329.474847 130.709331 
L 330.109732 122.043571 
L 330.744616 122.736862 
L 331.379501 135.562136 
L 332.014385 142.494756 
L 332.64927 155.320089 
L 333.284154 144.921188 
L 333.919039 143.88128 
L 334.553923 136.94866 
L 335.823692 147.347561 
L 336.458577 149.427376 
L 337.093461 128.282958 
L 337.728346 128.282958 
L 338.36323 155.320089 
L 338.998115 132.789146 
L 339.632999 131.055948 
L 340.267884 138.681859 
L 340.902768 108.525006 
L 341.537653 143.88128 
L 342.172537 130.362715 
L 342.807422 130.362715 
L 343.442306 141.108232 
L 344.077191 147.000945 
L 344.712075 137.295335 
L 345.34696 123.77677 
L 345.981844 157.746462 
L 346.616729 136.255427 
L 347.251614 128.282958 
L 347.886498 131.402622 
L 348.521383 144.574513 
L 349.156267 137.988568 
L 349.791152 123.430095 
L 350.426036 129.322807 
L 351.060921 126.203143 
L 351.695805 140.761616 
L 352.33069 125.50991 
L 352.965574 134.522287 
L 353.600459 133.482379 
L 354.235343 132.789146 
L 354.870228 118.923907 
L 355.505112 139.375092 
L 356.139997 148.040852 
L 356.774881 137.295335 
L 357.409766 156.706613 
L 358.04465 139.721708 
L 358.679535 154.973414 
L 359.314419 127.936283 
L 360.584188 132.442472 
L 361.219073 152.200424 
L 361.853957 134.522287 
L 362.488842 144.227897 
L 363.123726 161.212801 
L 363.758611 128.976191 
L 364.393495 152.547041 
L 365.02838 151.160517 
L 365.663264 135.908811 
L 366.298149 141.108232 
L 366.933033 143.88128 
L 367.567918 140.761616 
L 368.202803 147.694236 
L 368.837687 145.267804 
L 369.472572 110.258146 
L 370.107456 125.856527 
L 370.742341 146.307712 
L 371.377225 124.816619 
L 372.01211 131.749239 
L 372.646994 117.884057 
L 373.281879 122.390246 
L 373.916763 129.322807 
L 375.186532 115.111009 
L 375.821417 119.270581 
L 376.456301 110.258146 
L 377.091186 111.991345 
L 377.72607 119.963814 
L 378.360955 124.470003 
L 378.995839 99.512629 
L 379.630724 126.54976 
L 380.265608 104.712108 
L 380.900493 113.724485 
L 381.535377 121.003722 
L 382.170262 89.113728 
L 382.805146 116.497533 
L 383.440031 98.47278 
L 384.074915 106.098632 
L 384.7098 93.2733 
L 385.344684 98.819396 
L 385.979569 116.150859 
L 386.614453 98.47278 
L 387.249338 99.166013 
L 387.884222 99.512629 
L 388.519107 100.552537 
L 389.153991 99.512629 
L 389.788876 110.604821 
L 390.423761 103.672201 
L 391.058645 92.233393 
L 391.69353 94.659824 
L 392.328414 119.270581 
L 392.963299 99.512629 
L 393.598183 107.485156 
L 394.233068 90.500252 
L 394.867952 102.285677 
L 395.502837 80.101351 
L 396.137721 112.684578 
L 396.772606 101.939061 
L 397.40749 104.365492 
L 398.042375 95.006441 
L 398.677259 110.604821 
L 399.312144 121.696955 
L 399.947028 96.739581 
L 400.581913 99.166013 
L 401.216797 100.552537 
L 401.851682 106.445249 
L 402.486566 123.430095 
L 403.121451 105.405341 
L 403.756335 108.525006 
L 404.39122 80.794642 
L 405.026104 112.337961 
L 405.660989 89.807019 
L 406.295873 104.365492 
L 406.930758 106.791865 
L 407.565642 96.392965 
L 408.200527 89.807019 
L 408.835411 99.512629 
L 409.470296 95.353057 
L 410.10518 101.939061 
L 410.740065 113.031194 
L 412.009834 80.794642 
L 412.644719 88.420495 
L 413.279603 89.807019 
L 413.914488 98.126105 
L 414.549372 102.285677 
L 415.184257 112.684578 
L 415.819141 85.300831 
L 416.454026 93.966591 
L 417.08891 112.337961 
L 417.723795 89.113728 
L 418.358679 93.966591 
L 418.993564 97.086256 
L 419.628448 84.954214 
L 420.263333 98.126105 
L 420.898217 87.380588 
L 421.533102 89.807019 
L 422.167986 88.073879 
L 422.802871 70.395742 
L 423.437755 98.819396 
L 424.07264 91.54016 
L 424.707524 96.392965 
L 425.342409 82.874399 
L 425.977293 81.834492 
L 426.612178 93.966591 
L 427.247062 80.447968 
L 427.881947 95.353057 
L 428.516831 94.313208 
L 429.151716 87.380588 
L 429.7866 85.300831 
L 430.421485 110.258146 
L 431.056369 80.794642 
L 431.691254 99.512629 
L 432.326138 84.954214 
L 432.961023 85.994064 
L 433.595908 71.088975 
L 434.230792 63.809738 
L 434.865677 116.150859 
L 435.500561 110.951437 
L 436.135446 98.47278 
L 436.77033 104.018817 
L 437.405215 98.126105 
L 438.040099 85.300831 
L 438.674984 90.153636 
L 439.309868 100.899153 
L 439.944753 105.751958 
L 440.579637 82.874399 
L 441.214522 100.899153 
L 441.849406 80.447968 
L 442.484291 100.20592 
L 443.119175 99.166013 
L 443.75406 95.006441 
L 444.388944 88.420495 
L 445.023829 83.56769 
L 445.658713 117.537383 
L 446.293598 102.285677 
L 446.928482 79.408118 
L 447.563367 79.061502 
L 448.198251 77.674978 
L 448.833136 101.592444 
L 449.46802 89.460403 
L 450.102905 96.739581 
L 450.737789 81.487875 
L 451.372674 106.445249 
L 452.007558 85.647447 
L 452.642443 84.954214 
L 453.277327 90.846869 
L 453.912212 81.487875 
L 454.547097 107.485156 
L 455.181981 91.193543 
L 455.816866 89.807019 
L 456.45175 73.16879 
L 457.086635 81.487875 
L 457.721519 104.365492 
L 458.356404 84.260923 
L 458.991288 102.632293 
L 459.626173 108.87168 
L 460.261057 86.687355 
L 460.895942 71.088975 
L 461.530826 93.619917 
L 462.165711 97.432872 
L 462.800595 85.994064 
L 463.43548 103.325585 
L 464.070364 98.126105 
L 464.705249 91.886776 
L 465.340133 72.475499 
L 465.975018 67.622694 
L 466.609902 93.619917 
L 467.244787 96.392965 
L 467.879671 97.779489 
L 468.514556 96.046348 
L 469.784325 80.794642 
L 471.054094 104.018817 
L 471.688978 100.552537 
L 472.958747 76.635071 
L 473.593632 89.113728 
L 474.228516 65.889553 
L 474.863401 80.101351 
L 475.498285 84.260923 
L 476.13317 98.819396 
L 476.768055 88.767112 
L 477.402939 88.073879 
L 478.037824 58.2637 
L 478.672708 85.300831 
L 479.307593 71.782266 
L 479.942477 96.739581 
L 480.577362 70.742358 
L 481.212246 76.288454 
L 481.847131 73.515406 
L 482.482015 78.021594 
L 483.1169 67.622694 
L 483.751784 91.193543 
L 484.386669 102.285677 
L 485.021553 64.849646 
L 485.656438 85.994064 
L 486.291322 88.073879 
L 486.926207 80.794642 
L 487.561091 89.113728 
L 488.195976 84.954214 
L 488.83086 94.659824 
L 490.735514 59.996841 
L 491.370398 112.684578 
L 492.005283 68.662601 
L 492.640167 107.138482 
L 493.275052 90.500252 
L 493.909936 92.580067 
L 494.544821 66.23617 
L 495.179705 85.300831 
L 495.81459 57.917026 
L 496.449474 78.368211 
L 497.084359 70.742358 
L 497.719244 94.659824 
L 498.354128 78.368211 
L 498.989013 104.712108 
L 499.623897 92.580067 
L 500.258782 62.769889 
L 500.893666 91.886776 
L 501.528551 89.113728 
L 502.163435 89.113728 
L 502.79832 88.767112 
L 503.433204 76.635071 
L 504.068089 73.515406 
L 504.702973 93.966591 
L 505.337858 85.994064 
L 505.972742 90.500252 
L 506.607627 103.325585 
L 507.242511 69.009218 
L 507.877396 70.049125 
L 508.51228 85.994064 
L 509.147165 76.981687 
L 509.782049 91.193543 
L 510.416934 87.380588 
L 511.051818 72.822115 
L 511.686703 67.96931 
L 512.321587 89.113728 
L 512.956472 74.208639 
L 513.591356 97.432872 
L 514.226241 95.699732 
L 514.861125 92.580067 
L 515.49601 83.221016 
L 516.765779 56.183885 
L 517.400663 80.447968 
L 518.035548 64.156413 
L 518.670433 84.60754 
L 519.305317 80.101351 
L 519.940202 87.033971 
L 520.575086 78.714827 
L 521.209971 88.767112 
L 521.844855 67.276077 
L 522.47974 69.702451 
L 523.114624 76.981687 
L 523.749509 81.487875 
L 524.384393 93.2733 
L 525.019278 51.677697 
L 525.654162 70.049125 
L 526.289047 80.447968 
L 526.923931 97.086256 
L 527.558816 98.126105 
L 528.1937 98.47278 
L 529.463469 58.610317 
L 530.733238 88.767112 
L 531.368123 75.595163 
L 532.003007 80.794642 
L 532.637892 90.500252 
L 533.272776 84.260923 
L 533.907661 70.049125 
L 534.542545 69.702451 
L 535.17743 71.435591 
L 535.812314 79.408118 
L 536.447199 80.101351 
L 537.082083 85.300831 
L 537.716968 99.512629 
L 538.351852 78.714827 
L 538.986737 73.515406 
L 539.621621 77.674978 
L 540.256506 85.300831 
L 540.891391 74.208639 
L 541.526275 68.315927 
L 542.16116 95.353057 
L 543.430929 73.862023 
L 544.065813 75.595163 
L 544.700698 71.088975 
L 545.970467 81.487875 
L 546.605351 81.141259 
L 547.240236 80.101351 
L 547.87512 56.530502 
L 548.510005 93.966591 
L 549.144889 83.56769 
L 549.779774 89.113728 
L 550.414658 79.754735 
L 551.049543 77.674978 
L 551.684427 82.874399 
L 552.319312 85.647447 
L 552.954196 85.647447 
L 553.589081 84.260923 
L 554.223965 71.435591 
L 554.85885 85.994064 
L 555.493734 92.233393 
L 556.128619 84.954214 
L 556.763503 71.782266 
L 557.398388 86.34068 
L 558.033272 79.061502 
L 558.668157 74.90193 
L 559.303041 112.684578 
L 559.937926 47.518125 
L 560.57281 78.714827 
L 561.207695 88.767112 
L 561.84258 72.475499 
L 562.477464 89.113728 
L 563.112349 70.742358 
L 563.747233 91.193543 
L 564.382118 75.941779 
L 565.017002 85.994064 
L 565.651887 69.702451 
L 566.286771 78.368211 
L 566.921656 82.874399 
L 567.55654 63.809738 
L 568.191425 80.447968 
L 568.826309 60.690074 
L 570.096078 82.874399 
L 570.730963 76.288454 
L 571.365847 84.60754 
L 572.000732 72.128882 
L 572.635616 84.260923 
L 573.270501 76.288454 
L 573.905385 49.944556 
L 575.175154 83.914307 
L 575.810039 66.23617 
L 576.444923 74.555314 
L 577.079808 74.555314 
L 577.714692 76.981687 
L 578.349577 73.16879 
L 578.984461 72.475499 
L 579.619346 77.328303 
L 580.25423 47.8648 
L 580.889115 58.610317 
L 581.523999 65.542879 
L 582.158884 83.56769 
L 582.793768 69.355834 
L 583.428653 64.503029 
L 584.063538 73.16879 
L 584.698422 73.16879 
L 585.333307 78.368211 
L 585.968191 64.156413 
L 586.603076 91.54016 
L 587.23796 57.570409 
L 587.872845 81.141259 
L 588.507729 84.954214 
L 589.142614 81.834492 
L 589.142614 81.834492 
" clip-path="url(#p8c56916bc8)" style="fill: none; stroke: #1f77b4; stroke-width: 1.5; stroke-linecap: square"/>
   </g>
   <g id="line2d_38">
    <path d="M 81.869886 492.244399 
L 82.504771 470.406719 
L 83.139655 470.406719 
L 83.77454 492.244399 
L 84.409424 457.928032 
L 85.044309 507.84275 
L 85.679193 492.244399 
L 86.314078 423.611665 
L 86.948962 492.244399 
L 87.583847 429.850994 
L 88.218732 442.329681 
L 88.853616 386.175634 
L 89.488501 436.090352 
L 90.123385 445.449345 
L 91.393154 486.005056 
L 92.028039 495.364064 
L 92.662923 454.808368 
L 93.297808 504.723086 
L 93.932692 492.244399 
L 94.567577 473.526383 
L 95.202461 479.765727 
L 95.837346 451.688703 
L 96.47223 526.560766 
L 97.107115 439.210017 
L 97.741999 414.252643 
L 98.376884 439.210017 
L 99.011768 442.329681 
L 99.646653 448.56901 
L 100.281537 451.688703 
L 100.916422 436.090352 
L 101.551306 429.850994 
L 102.186191 492.244399 
L 102.821075 457.928032 
L 104.090844 504.723086 
L 104.725729 454.808368 
L 105.360613 498.483743 
L 105.995498 479.765727 
L 106.630382 492.244399 
L 107.900151 467.287055 
L 108.535036 476.646048 
L 109.16992 489.124735 
L 109.804805 461.047697 
L 110.43969 454.808368 
L 111.074574 439.210017 
L 111.709459 436.090352 
L 112.344343 448.56901 
L 112.979228 495.364064 
L 113.614112 439.210017 
L 114.248997 486.005056 
L 114.883881 479.765727 
L 115.518766 470.406719 
L 116.15365 501.603407 
L 116.788535 504.723086 
L 118.058304 464.167361 
L 118.693188 473.526383 
L 119.328073 464.167361 
L 119.962957 489.124735 
L 120.597842 476.646048 
L 121.232726 467.287055 
L 121.867611 551.518125 
L 122.502495 489.124735 
L 123.13738 492.244399 
L 123.772264 479.765727 
L 124.407149 473.526383 
L 125.042033 464.167361 
L 125.676918 461.047697 
L 126.311802 486.005056 
L 126.946687 476.646048 
L 127.581571 482.885391 
L 128.216456 445.449345 
L 128.85134 479.765727 
L 129.486225 479.765727 
L 130.121109 489.124735 
L 130.755994 489.124735 
L 131.390879 504.723086 
L 132.025763 495.364064 
L 133.295532 451.688703 
L 133.930417 454.808368 
L 134.565301 507.84275 
L 135.200186 473.526383 
L 136.469955 467.287055 
L 137.104839 461.047697 
L 137.739724 476.646048 
L 138.374608 486.005056 
L 139.009493 501.603407 
L 139.644377 429.850994 
L 140.914146 482.885391 
L 141.549031 510.962415 
L 142.183915 498.483743 
L 142.8188 482.885391 
L 143.453684 470.406719 
L 144.088569 476.646048 
L 144.723453 501.603407 
L 145.993222 482.885391 
L 146.628107 492.244399 
L 147.262991 495.364064 
L 147.897876 470.406719 
L 148.53276 479.765727 
L 149.167645 495.364064 
L 149.802529 492.244399 
L 150.437414 482.885391 
L 151.072298 467.287055 
L 151.707183 495.364064 
L 152.342067 479.765727 
L 152.976952 501.603407 
L 153.611837 476.646048 
L 154.246721 473.526383 
L 154.881606 495.364064 
L 155.51649 470.406719 
L 156.151375 457.928032 
L 156.786259 461.047697 
L 157.421144 448.56901 
L 158.056028 439.210017 
L 158.690913 470.406719 
L 159.325797 507.84275 
L 159.960682 482.885391 
L 160.595566 489.124735 
L 161.230451 489.124735 
L 161.865335 464.167361 
L 162.50022 451.688703 
L 163.135104 517.201758 
L 163.769989 439.210017 
L 164.404873 473.526383 
L 165.039758 495.364064 
L 165.674642 510.962415 
L 166.309527 495.364064 
L 166.944411 464.167361 
L 167.579296 454.808368 
L 168.21418 492.244399 
L 168.849065 439.210017 
L 169.483949 486.005056 
L 170.118834 520.321423 
L 170.753718 504.723086 
L 171.388603 492.244399 
L 172.023487 501.603407 
L 172.658372 470.406719 
L 173.293256 464.167361 
L 173.928141 473.526383 
L 174.563026 464.167361 
L 175.19791 470.406719 
L 175.832795 467.287055 
L 176.467679 492.244399 
L 177.102564 461.047697 
L 177.737448 489.124735 
L 178.372333 495.364064 
L 179.007217 495.364064 
L 179.642102 479.765727 
L 180.276986 514.082094 
L 180.911871 470.406719 
L 181.546755 473.526383 
L 182.18164 482.885391 
L 182.816524 510.962415 
L 183.451409 470.406719 
L 184.086293 501.603407 
L 184.721178 486.005056 
L 185.356062 479.765727 
L 185.990947 492.244399 
L 186.625831 454.808368 
L 187.260716 479.765727 
L 187.8956 473.526383 
L 188.530485 479.765727 
L 189.165369 504.723086 
L 189.800254 476.646048 
L 190.435138 457.928032 
L 191.070023 476.646048 
L 191.704907 473.526383 
L 192.339792 473.526383 
L 193.609561 461.047697 
L 194.244445 479.765727 
L 194.87933 436.090352 
L 195.514215 504.723086 
L 196.149099 504.723086 
L 196.783984 482.885391 
L 197.418868 498.483743 
L 198.053753 489.124735 
L 198.688637 495.364064 
L 199.323522 504.723086 
L 199.958406 489.124735 
L 200.593291 467.287055 
L 201.228175 498.483743 
L 201.86306 436.090352 
L 202.497944 467.287055 
L 203.132829 476.646048 
L 203.767713 464.167361 
L 204.402598 448.56901 
L 205.037482 486.005056 
L 205.672367 479.765727 
L 206.307251 476.646048 
L 206.942136 498.483743 
L 207.57702 479.765727 
L 208.211905 495.364064 
L 208.846789 489.124735 
L 210.116558 454.808368 
L 210.751443 495.364064 
L 211.386327 473.526383 
L 212.021212 507.84275 
L 212.656096 461.047697 
L 213.290981 486.005056 
L 213.925865 504.723086 
L 214.56075 473.526383 
L 215.195634 482.885391 
L 215.830519 464.167361 
L 216.465403 470.406719 
L 217.100288 464.167361 
L 217.735173 467.287055 
L 218.370057 498.483743 
L 219.004942 510.962415 
L 219.639826 482.885391 
L 220.274711 486.005056 
L 220.909595 467.287055 
L 221.54448 414.252643 
L 222.179364 457.928032 
L 222.814249 482.885391 
L 223.449133 464.167361 
L 224.084018 461.047697 
L 224.718902 492.244399 
L 225.353787 476.646048 
L 225.988671 489.124735 
L 226.623556 507.84275 
L 227.25844 507.84275 
L 227.893325 479.765727 
L 228.528209 457.928032 
L 229.163094 464.167361 
L 229.797978 492.244399 
L 230.432863 532.800109 
L 231.067747 507.84275 
L 231.702632 498.483743 
L 232.337516 476.646048 
L 232.972401 479.765727 
L 233.607285 486.005056 
L 234.24217 464.167361 
L 234.877054 504.723086 
L 235.511939 523.441102 
L 236.146823 482.885391 
L 236.781708 492.244399 
L 237.416592 482.885391 
L 238.051477 486.005056 
L 238.686362 470.406719 
L 239.321246 510.962415 
L 239.956131 514.082094 
L 240.591015 520.321423 
L 241.2259 476.646048 
L 241.860784 489.124735 
L 242.495669 482.885391 
L 243.130553 467.287055 
L 243.765438 495.364064 
L 244.400322 498.483743 
L 245.035207 467.287055 
L 245.670091 514.082094 
L 246.304976 486.005056 
L 246.93986 479.765727 
L 247.574745 498.483743 
L 248.209629 464.167361 
L 248.844514 517.201758 
L 249.479398 489.124735 
L 250.114283 476.646048 
L 250.749167 467.287055 
L 251.384052 476.646048 
L 252.018936 454.808368 
L 252.653821 510.962415 
L 253.288705 504.723086 
L 254.558474 457.928032 
L 255.193359 532.800109 
L 255.828243 489.124735 
L 256.463128 492.244399 
L 257.098012 529.68043 
L 257.732897 467.287055 
L 258.367781 510.962415 
L 259.002666 514.082094 
L 259.63755 476.646048 
L 260.272435 492.244399 
L 260.90732 457.928032 
L 261.542204 489.124735 
L 262.177089 539.039453 
L 262.811973 482.885391 
L 263.446858 498.483743 
L 264.081742 473.526383 
L 264.716627 489.124735 
L 265.351511 529.68043 
L 265.986396 482.885391 
L 266.62128 470.406719 
L 267.256165 498.483743 
L 267.891049 498.483743 
L 268.525934 482.885391 
L 269.160818 476.646048 
L 269.795703 492.244399 
L 270.430587 492.244399 
L 271.065472 498.483743 
L 271.700356 510.962415 
L 272.335241 517.201758 
L 272.970125 489.124735 
L 273.60501 498.483743 
L 274.239894 498.483743 
L 274.874779 476.646048 
L 275.509663 498.483743 
L 276.144548 529.68043 
L 276.779432 461.047697 
L 277.414317 507.84275 
L 278.049201 514.082094 
L 278.684086 501.603407 
L 279.31897 445.449345 
L 279.953855 501.603407 
L 280.588739 482.885391 
L 281.223624 473.526383 
L 281.858509 501.603407 
L 282.493393 495.364064 
L 283.128278 495.364064 
L 283.763162 501.603407 
L 284.398047 470.406719 
L 285.032931 501.603407 
L 285.667816 486.005056 
L 286.3027 504.723086 
L 286.937585 489.124735 
L 287.572469 479.765727 
L 288.207354 517.201758 
L 288.842238 510.962415 
L 289.477123 514.082094 
L 290.112007 489.124735 
L 290.746892 529.68043 
L 291.381776 507.84275 
L 292.016661 504.723086 
L 292.651545 520.321423 
L 293.28643 526.560766 
L 293.921314 520.321423 
L 294.556199 504.723086 
L 295.191083 523.441102 
L 295.825968 520.321423 
L 296.460852 498.483743 
L 297.095737 510.962415 
L 297.730621 529.68043 
L 298.365506 504.723086 
L 299.00039 532.800109 
L 299.635275 520.321423 
L 300.270159 510.962415 
L 300.905044 542.159117 
L 301.539928 545.278782 
L 302.809697 495.364064 
L 303.444582 514.082094 
L 304.079467 492.244399 
L 304.714351 514.082094 
L 305.349236 526.560766 
L 305.98412 479.765727 
L 306.619005 489.124735 
L 307.253889 529.68043 
L 307.888774 498.483743 
L 308.523658 514.082094 
L 309.158543 495.364064 
L 309.793427 495.364064 
L 310.428312 489.124735 
L 311.063196 489.124735 
L 311.698081 504.723086 
L 312.332965 504.723086 
L 312.96785 492.244399 
L 313.602734 489.124735 
L 314.237619 517.201758 
L 314.872503 523.441102 
L 315.507388 514.082094 
L 316.142272 507.84275 
L 316.777157 486.005056 
L 317.412041 498.483743 
L 318.046926 482.885391 
L 318.68181 523.441102 
L 319.316695 548.398461 
L 319.951579 523.441102 
L 320.586464 545.278782 
L 321.221348 535.919774 
L 321.856233 501.603407 
L 322.491117 473.526383 
L 323.126002 486.005056 
L 323.760886 501.603407 
L 324.395771 495.364064 
L 325.030656 529.68043 
L 325.66554 489.124735 
L 326.300425 510.962415 
L 326.935309 473.526383 
L 327.570194 498.483743 
L 328.205078 486.005056 
L 328.839963 495.364064 
L 329.474847 510.962415 
L 330.109732 529.68043 
L 330.744616 464.167361 
L 331.379501 451.688703 
L 332.014385 504.723086 
L 332.64927 532.800109 
L 333.284154 517.201758 
L 333.919039 495.364064 
L 334.553923 501.603407 
L 335.188808 517.201758 
L 335.823692 504.723086 
L 336.458577 517.201758 
L 337.093461 539.039453 
L 337.728346 507.84275 
L 338.36323 489.124735 
L 338.998115 486.005056 
L 339.632999 517.201758 
L 340.267884 535.919774 
L 340.902768 486.005056 
L 341.537653 539.039453 
L 342.172537 507.84275 
L 342.807422 517.201758 
L 343.442306 501.603407 
L 344.077191 495.364064 
L 344.712075 514.082094 
L 345.34696 507.84275 
L 345.981844 482.885391 
L 346.616729 473.526383 
L 347.251614 507.84275 
L 347.886498 520.321423 
L 348.521383 504.723086 
L 349.156267 504.723086 
L 349.791152 514.082094 
L 350.426036 492.244399 
L 351.060921 514.082094 
L 351.695805 498.483743 
L 352.33069 504.723086 
L 352.965574 501.603407 
L 353.600459 501.603407 
L 354.235343 451.688703 
L 354.870228 495.364064 
L 355.505112 526.560766 
L 356.139997 501.603407 
L 356.774881 523.441102 
L 357.409766 520.321423 
L 358.04465 495.364064 
L 358.679535 461.047697 
L 359.314419 492.244399 
L 359.949304 495.364064 
L 360.584188 489.124735 
L 361.219073 486.005056 
L 361.853957 479.765727 
L 362.488842 486.005056 
L 363.123726 510.962415 
L 363.758611 492.244399 
L 364.393495 517.201758 
L 365.02838 510.962415 
L 365.663264 482.885391 
L 366.298149 507.84275 
L 366.933033 451.688703 
L 367.567918 517.201758 
L 368.837687 445.449345 
L 369.472572 464.167361 
L 370.107456 457.928032 
L 370.742341 514.082094 
L 371.377225 436.090352 
L 372.01211 473.526383 
L 372.646994 467.287055 
L 373.281879 482.885391 
L 373.916763 467.287055 
L 374.551648 464.167361 
L 375.186532 454.808368 
L 375.821417 489.124735 
L 376.456301 482.885391 
L 377.091186 520.321423 
L 377.72607 476.646048 
L 378.360955 464.167361 
L 378.995839 470.406719 
L 380.265608 470.406719 
L 380.900493 473.526383 
L 381.535377 461.047697 
L 382.170262 482.885391 
L 382.805146 482.885391 
L 383.440031 476.646048 
L 384.074915 482.885391 
L 384.7098 486.005056 
L 385.344684 461.047697 
L 385.979569 429.850994 
L 386.614453 461.047697 
L 387.249338 517.201758 
L 387.884222 464.167361 
L 388.519107 539.039453 
L 389.153991 482.885391 
L 389.788876 482.885391 
L 390.423761 489.124735 
L 391.69353 436.090352 
L 392.328414 479.765727 
L 392.963299 461.047697 
L 393.598183 520.321423 
L 394.233068 470.406719 
L 394.867952 504.723086 
L 395.502837 479.765727 
L 396.137721 492.244399 
L 396.772606 457.928032 
L 397.40749 476.646048 
L 398.042375 473.526383 
L 398.677259 429.850994 
L 399.312144 501.603407 
L 399.947028 464.167361 
L 400.581913 495.364064 
L 401.216797 451.688703 
L 401.851682 448.56901 
L 402.486566 492.244399 
L 403.121451 479.765727 
L 403.756335 451.688703 
L 404.39122 429.850994 
L 405.026104 448.56901 
L 405.660989 457.928032 
L 406.295873 473.526383 
L 406.930758 473.526383 
L 407.565642 461.047697 
L 408.200527 467.287055 
L 408.835411 451.688703 
L 409.470296 442.329681 
L 410.10518 445.449345 
L 410.740065 464.167361 
L 411.37495 467.287055 
L 412.009834 445.449345 
L 412.644719 461.047697 
L 413.279603 461.047697 
L 413.914488 420.492001 
L 415.184257 445.449345 
L 415.819141 461.047697 
L 416.454026 473.526383 
L 417.08891 470.406719 
L 417.723795 498.483743 
L 418.358679 451.688703 
L 418.993564 476.646048 
L 419.628448 442.329681 
L 420.263333 423.611665 
L 420.898217 461.047697 
L 421.533102 461.047697 
L 422.167986 479.765727 
L 422.802871 451.688703 
L 423.437755 467.287055 
L 424.07264 476.646048 
L 424.707524 495.364064 
L 425.342409 464.167361 
L 425.977293 439.210017 
L 426.612178 476.646048 
L 427.247062 454.808368 
L 427.881947 439.210017 
L 428.516831 461.047697 
L 429.151716 454.808368 
L 429.7866 467.287055 
L 430.421485 486.005056 
L 431.056369 495.364064 
L 431.691254 451.688703 
L 432.326138 429.850994 
L 432.961023 486.005056 
L 433.595908 442.329681 
L 434.230792 448.56901 
L 434.865677 457.928032 
L 435.500561 423.611665 
L 436.135446 432.970688 
L 436.77033 470.406719 
L 437.405215 436.090352 
L 438.040099 432.970688 
L 438.674984 451.688703 
L 439.309868 486.005056 
L 439.944753 473.526383 
L 440.579637 470.406719 
L 441.214522 451.688703 
L 441.849406 464.167361 
L 442.484291 448.56901 
L 443.119175 448.56901 
L 443.75406 461.047697 
L 444.388944 445.449345 
L 445.023829 451.688703 
L 445.658713 473.526383 
L 446.293598 423.611665 
L 446.928482 436.090352 
L 447.563367 401.773985 
L 448.198251 445.449345 
L 448.833136 470.406719 
L 449.46802 457.928032 
L 450.102905 457.928032 
L 450.737789 439.210017 
L 451.372674 457.928032 
L 452.007558 448.56901 
L 452.642443 467.287055 
L 453.277327 432.970688 
L 453.912212 454.808368 
L 454.547097 439.210017 
L 455.181981 470.406719 
L 455.816866 470.406719 
L 456.45175 473.526383 
L 457.086635 451.688703 
L 457.721519 451.688703 
L 458.356404 448.56901 
L 458.991288 461.047697 
L 459.626173 436.090352 
L 460.261057 420.492001 
L 460.895942 442.329681 
L 461.530826 426.73133 
L 462.165711 414.252643 
L 463.43548 451.688703 
L 464.070364 417.372337 
L 464.705249 429.850994 
L 465.340133 439.210017 
L 465.975018 451.688703 
L 466.609902 470.406719 
L 467.244787 429.850994 
L 467.879671 426.73133 
L 468.514556 461.047697 
L 469.14944 432.970688 
L 469.784325 445.449345 
L 470.419209 439.210017 
L 471.688978 464.167361 
L 472.323863 479.765727 
L 473.593632 432.970688 
L 474.228516 457.928032 
L 474.863401 432.970688 
L 475.498285 417.372337 
L 476.768055 448.56901 
L 477.402939 423.611665 
L 478.037824 457.928032 
L 478.672708 451.688703 
L 479.307593 411.132979 
L 479.942477 414.252643 
L 480.577362 476.646048 
L 481.212246 451.688703 
L 481.847131 448.56901 
L 483.1169 473.526383 
L 483.751784 426.73133 
L 484.386669 445.449345 
L 485.021553 454.808368 
L 485.656438 457.928032 
L 486.291322 439.210017 
L 486.926207 457.928032 
L 487.561091 426.73133 
L 488.195976 457.928032 
L 488.83086 408.013314 
L 489.465745 379.936276 
L 490.100629 439.210017 
L 491.370398 457.928032 
L 492.005283 445.449345 
L 492.640167 395.534627 
L 493.275052 464.167361 
L 493.909936 429.850994 
L 494.544821 408.013314 
L 495.179705 461.047697 
L 495.81459 429.850994 
L 496.449474 429.850994 
L 497.084359 411.132979 
L 497.719244 464.167361 
L 498.354128 420.492001 
L 498.989013 398.654321 
L 499.623897 395.534627 
L 500.258782 454.808368 
L 500.893666 417.372337 
L 501.528551 398.654321 
L 502.163435 436.090352 
L 502.79832 423.611665 
L 503.433204 467.287055 
L 504.068089 408.013314 
L 504.702973 404.89365 
L 505.337858 436.090352 
L 505.972742 411.132979 
L 506.607627 408.013314 
L 507.242511 445.449345 
L 507.877396 420.492001 
L 508.51228 383.05597 
L 509.147165 461.047697 
L 509.782049 426.73133 
L 510.416934 436.090352 
L 511.051818 408.013314 
L 511.686703 464.167361 
L 512.321587 442.329681 
L 512.956472 404.89365 
L 513.591356 448.56901 
L 514.226241 404.89365 
L 514.861125 414.252643 
L 515.49601 429.850994 
L 516.130894 404.89365 
L 516.765779 457.928032 
L 517.400663 420.492001 
L 518.035548 426.73133 
L 518.670433 414.252643 
L 519.305317 436.090352 
L 519.940202 417.372337 
L 520.575086 461.047697 
L 521.209971 411.132979 
L 521.844855 445.449345 
L 522.47974 395.534627 
L 523.114624 429.850994 
L 523.749509 420.492001 
L 524.384393 417.372337 
L 525.019278 404.89365 
L 525.654162 398.654321 
L 526.289047 439.210017 
L 527.558816 386.175634 
L 528.1937 389.295299 
L 528.828585 420.492001 
L 529.463469 414.252643 
L 530.098354 414.252643 
L 530.733238 423.611665 
L 531.368123 398.654321 
L 532.003007 389.295299 
L 532.637892 457.928032 
L 533.272776 436.090352 
L 533.907661 423.611665 
L 534.542545 432.970688 
L 535.17743 379.936276 
L 535.812314 401.773985 
L 536.447199 432.970688 
L 537.082083 379.936276 
L 537.716968 432.970688 
L 538.351852 429.850994 
L 538.986737 436.090352 
L 539.621621 404.89365 
L 540.256506 445.449345 
L 540.891391 370.577283 
L 541.526275 354.978932 
L 542.16116 423.611665 
L 542.796044 373.696947 
L 543.430929 376.816612 
L 544.065813 361.218261 
L 544.700698 398.654321 
L 545.335582 383.05597 
L 546.605351 389.295299 
L 547.240236 408.013314 
L 547.87512 386.175634 
L 548.510005 404.89365 
L 549.144889 392.414963 
L 549.779774 383.05597 
L 550.414658 392.414963 
L 551.049543 404.89365 
L 551.684427 398.654321 
L 552.319312 376.816612 
L 552.954196 392.414963 
L 553.589081 376.816612 
L 554.223965 398.654321 
L 554.85885 426.73133 
L 555.493734 376.816612 
L 556.128619 370.577283 
L 556.763503 373.696947 
L 557.398388 392.414963 
L 558.033272 379.936276 
L 558.668157 370.577283 
L 559.303041 383.05597 
L 559.937926 376.816612 
L 560.57281 401.773985 
L 561.207695 395.534627 
L 561.84258 401.773985 
L 562.477464 379.936276 
L 563.112349 379.936276 
L 563.747233 386.175634 
L 564.382118 358.098596 
L 565.017002 370.577283 
L 565.651887 333.141252 
L 566.921656 358.098596 
L 567.55654 376.816612 
L 568.191425 336.260916 
L 568.826309 386.175634 
L 569.461194 358.098596 
L 570.096078 376.816612 
L 570.730963 401.773985 
L 571.365847 354.978932 
L 572.000732 379.936276 
L 572.635616 386.175634 
L 573.270501 401.773985 
L 573.905385 392.414963 
L 574.54027 392.414963 
L 575.175154 379.936276 
L 575.810039 364.337954 
L 576.444923 358.098596 
L 577.079808 386.175634 
L 577.714692 408.013314 
L 578.349577 364.337954 
L 578.984461 367.457618 
L 579.619346 379.936276 
L 580.25423 386.175634 
L 580.889115 414.252643 
L 581.523999 358.098596 
L 582.158884 351.859267 
L 582.793768 333.141252 
L 583.428653 361.218261 
L 584.063538 404.89365 
L 584.698422 386.175634 
L 585.333307 361.218261 
L 585.968191 376.816612 
L 586.603076 342.500245 
L 587.23796 354.978932 
L 587.872845 364.337954 
L 588.507729 383.05597 
L 589.142614 364.337954 
L 589.142614 364.337954 
" clip-path="url(#p8c56916bc8)" style="fill: none; stroke: #ff7f0e; stroke-width: 1.5; stroke-linecap: square"/>
   </g>
   <g id="line2d_39">
    <path d="M 56.50625 470.016754 
L 614.50625 470.016754 
" clip-path="url(#p8c56916bc8)" style="fill: none; stroke-dasharray: 11.1,4.8; stroke-dashoffset: 0; stroke: #ff0000; stroke-width: 3"/>
   </g>
   <g id="patch_3">
    <path d="M 56.50625 576.718125 
L 56.50625 22.318125 
" style="fill: none; stroke: #000000; stroke-width: 0.8; stroke-linejoin: miter; stroke-linecap: square"/>
   </g>
   <g id="patch_4">
    <path d="M 614.50625 576.718125 
L 614.50625 22.318125 
" style="fill: none; stroke: #000000; stroke-width: 0.8; stroke-linejoin: miter; stroke-linecap: square"/>
   </g>
   <g id="patch_5">
    <path d="M 56.50625 576.718125 
L 614.50625 576.718125 
" style="fill: none; stroke: #000000; stroke-width: 0.8; stroke-linejoin: miter; stroke-linecap: square"/>
   </g>
   <g id="patch_6">
    <path d="M 56.50625 22.318125 
L 614.50625 22.318125 
" style="fill: none; stroke: #000000; stroke-width: 0.8; stroke-linejoin: miter; stroke-linecap: square"/>
   </g>
   <g id="text_21">
    <!-- Train and Val Accuracy -->
    <g transform="translate(267.727813 16.318125) scale(0.12 -0.12)">
     <defs>
      <path id="DejaVuSans-54" d="M -19 4666 
L 3928 4666 
L 3928 4134 
L 2272 4134 
L 2272 0 
L 1638 0 
L 1638 4134 
L -19 4134 
L -19 4666 
z
" transform="scale(0.015625)"/>
      <path id="DejaVuSans-69" d="M 603 3500 
L 1178 3500 
L 1178 0 
L 603 0 
L 603 3500 
z
M 603 4863 
L 1178 4863 
L 1178 4134 
L 603 4134 
L 603 4863 
z
" transform="scale(0.015625)"/>
      <path id="DejaVuSans-6e" d="M 3513 2113 
L 3513 0 
L 2938 0 
L 2938 2094 
Q 2938 2591 2744 2837 
Q 2550 3084 2163 3084 
Q 1697 3084 1428 2787 
Q 1159 2491 1159 1978 
L 1159 0 
L 581 0 
L 581 3500 
L 1159 3500 
L 1159 2956 
Q 1366 3272 1645 3428 
Q 1925 3584 2291 3584 
Q 2894 3584 3203 3211 
Q 3513 2838 3513 2113 
z
" transform="scale(0.015625)"/>
      <path id="DejaVuSans-20" transform="scale(0.015625)"/>
      <path id="DejaVuSans-64" d="M 2906 2969 
L 2906 4863 
L 3481 4863 
L 3481 0 
L 2906 0 
L 2906 525 
Q 2725 213 2448 61 
Q 2172 -91 1784 -91 
Q 1150 -91 751 415 
Q 353 922 353 1747 
Q 353 2572 751 3078 
Q 1150 3584 1784 3584 
Q 2172 3584 2448 3432 
Q 2725 3281 2906 2969 
z
M 947 1747 
Q 947 1113 1208 752 
Q 1469 391 1925 391 
Q 2381 391 2643 752 
Q 2906 1113 2906 1747 
Q 2906 2381 2643 2742 
Q 2381 3103 1925 3103 
Q 1469 3103 1208 2742 
Q 947 2381 947 1747 
z
" transform="scale(0.015625)"/>
      <path id="DejaVuSans-56" d="M 1831 0 
L 50 4666 
L 709 4666 
L 2188 738 
L 3669 4666 
L 4325 4666 
L 2547 0 
L 1831 0 
z
" transform="scale(0.015625)"/>
      <path id="DejaVuSans-6c" d="M 603 4863 
L 1178 4863 
L 1178 0 
L 603 0 
L 603 4863 
z
" transform="scale(0.015625)"/>
     </defs>
     <use xlink:href="#DejaVuSans-54"/>
     <use xlink:href="#DejaVuSans-72" transform="translate(46.333984 0)"/>
     <use xlink:href="#DejaVuSans-61" transform="translate(87.447266 0)"/>
     <use xlink:href="#DejaVuSans-69" transform="translate(148.726562 0)"/>
     <use xlink:href="#DejaVuSans-6e" transform="translate(176.509766 0)"/>
     <use xlink:href="#DejaVuSans-20" transform="translate(239.888672 0)"/>
     <use xlink:href="#DejaVuSans-61" transform="translate(271.675781 0)"/>
     <use xlink:href="#DejaVuSans-6e" transform="translate(332.955078 0)"/>
     <use xlink:href="#DejaVuSans-64" transform="translate(396.333984 0)"/>
     <use xlink:href="#DejaVuSans-20" transform="translate(459.810547 0)"/>
     <use xlink:href="#DejaVuSans-56" transform="translate(491.597656 0)"/>
     <use xlink:href="#DejaVuSans-61" transform="translate(552.255859 0)"/>
     <use xlink:href="#DejaVuSans-6c" transform="translate(613.535156 0)"/>
     <use xlink:href="#DejaVuSans-20" transform="translate(641.318359 0)"/>
     <use xlink:href="#DejaVuSans-41" transform="translate(673.105469 0)"/>
     <use xlink:href="#DejaVuSans-63" transform="translate(739.763672 0)"/>
     <use xlink:href="#DejaVuSans-63" transform="translate(794.744141 0)"/>
     <use xlink:href="#DejaVuSans-75" transform="translate(849.724609 0)"/>
     <use xlink:href="#DejaVuSans-72" transform="translate(913.103516 0)"/>
     <use xlink:href="#DejaVuSans-61" transform="translate(954.216797 0)"/>
     <use xlink:href="#DejaVuSans-63" transform="translate(1015.496094 0)"/>
     <use xlink:href="#DejaVuSans-79" transform="translate(1070.476562 0)"/>
    </g>
   </g>
   <g id="legend_1">
    <g id="patch_7">
     <path d="M 63.50625 74.90875 
L 230.629687 74.90875 
Q 232.629687 74.90875 232.629687 72.90875 
L 232.629687 29.318125 
Q 232.629687 27.318125 230.629687 27.318125 
L 63.50625 27.318125 
Q 61.50625 27.318125 61.50625 29.318125 
L 61.50625 72.90875 
Q 61.50625 74.90875 63.50625 74.90875 
z
" style="fill: #ffffff; opacity: 0.8; stroke: #cccccc; stroke-linejoin: miter"/>
    </g>
    <g id="line2d_40">
     <path d="M 65.50625 35.416562 
L 75.50625 35.416562 
L 85.50625 35.416562 
" style="fill: none; stroke: #1f77b4; stroke-width: 1.5; stroke-linecap: square"/>
    </g>
    <g id="text_22">
     <!-- train_accuracy -->
     <g transform="translate(93.50625 38.916562) scale(0.1 -0.1)">
      <defs>
       <path id="DejaVuSans-74" d="M 1172 4494 
L 1172 3500 
L 2356 3500 
L 2356 3053 
L 1172 3053 
L 1172 1153 
Q 1172 725 1289 603 
Q 1406 481 1766 481 
L 2356 481 
L 2356 0 
L 1766 0 
Q 1100 0 847 248 
Q 594 497 594 1153 
L 594 3053 
L 172 3053 
L 172 3500 
L 594 3500 
L 594 4494 
L 1172 4494 
z
" transform="scale(0.015625)"/>
       <path id="DejaVuSans-5f" d="M 3263 -1063 
L 3263 -1509 
L -63 -1509 
L -63 -1063 
L 3263 -1063 
z
" transform="scale(0.015625)"/>
      </defs>
      <use xlink:href="#DejaVuSans-74"/>
      <use xlink:href="#DejaVuSans-72" transform="translate(39.208984 0)"/>
      <use xlink:href="#DejaVuSans-61" transform="translate(80.322266 0)"/>
      <use xlink:href="#DejaVuSans-69" transform="translate(141.601562 0)"/>
      <use xlink:href="#DejaVuSans-6e" transform="translate(169.384766 0)"/>
      <use xlink:href="#DejaVuSans-5f" transform="translate(232.763672 0)"/>
      <use xlink:href="#DejaVuSans-61" transform="translate(282.763672 0)"/>
      <use xlink:href="#DejaVuSans-63" transform="translate(344.042969 0)"/>
      <use xlink:href="#DejaVuSans-63" transform="translate(399.023438 0)"/>
      <use xlink:href="#DejaVuSans-75" transform="translate(454.003906 0)"/>
      <use xlink:href="#DejaVuSans-72" transform="translate(517.382812 0)"/>
      <use xlink:href="#DejaVuSans-61" transform="translate(558.496094 0)"/>
      <use xlink:href="#DejaVuSans-63" transform="translate(619.775391 0)"/>
      <use xlink:href="#DejaVuSans-79" transform="translate(674.755859 0)"/>
     </g>
    </g>
    <g id="line2d_41">
     <path d="M 65.50625 50.372812 
L 75.50625 50.372812 
L 85.50625 50.372812 
" style="fill: none; stroke: #ff7f0e; stroke-width: 1.5; stroke-linecap: square"/>
    </g>
    <g id="text_23">
     <!-- val_accuracy -->
     <g transform="translate(93.50625 53.872812) scale(0.1 -0.1)">
      <defs>
       <path id="DejaVuSans-76" d="M 191 3500 
L 800 3500 
L 1894 563 
L 2988 3500 
L 3597 3500 
L 2284 0 
L 1503 0 
L 191 3500 
z
" transform="scale(0.015625)"/>
      </defs>
      <use xlink:href="#DejaVuSans-76"/>
      <use xlink:href="#DejaVuSans-61" transform="translate(59.179688 0)"/>
      <use xlink:href="#DejaVuSans-6c" transform="translate(120.458984 0)"/>
      <use xlink:href="#DejaVuSans-5f" transform="translate(148.242188 0)"/>
      <use xlink:href="#DejaVuSans-61" transform="translate(198.242188 0)"/>
      <use xlink:href="#DejaVuSans-63" transform="translate(259.521484 0)"/>
      <use xlink:href="#DejaVuSans-63" transform="translate(314.501953 0)"/>
      <use xlink:href="#DejaVuSans-75" transform="translate(369.482422 0)"/>
      <use xlink:href="#DejaVuSans-72" transform="translate(432.861328 0)"/>
      <use xlink:href="#DejaVuSans-61" transform="translate(473.974609 0)"/>
      <use xlink:href="#DejaVuSans-63" transform="translate(535.253906 0)"/>
      <use xlink:href="#DejaVuSans-79" transform="translate(590.234375 0)"/>
     </g>
    </g>
    <g id="line2d_42">
     <path d="M 65.50625 65.329062 
L 75.50625 65.329062 
L 85.50625 65.329062 
" style="fill: none; stroke-dasharray: 11.1,4.8; stroke-dashoffset: 0; stroke: #ff0000; stroke-width: 3"/>
    </g>
    <g id="text_24">
     <!-- Random-Guesser Accuracy -->
     <g transform="translate(93.50625 68.829062) scale(0.1 -0.1)">
      <defs>
       <path id="DejaVuSans-52" d="M 2841 2188 
Q 3044 2119 3236 1894 
Q 3428 1669 3622 1275 
L 4263 0 
L 3584 0 
L 2988 1197 
Q 2756 1666 2539 1819 
Q 2322 1972 1947 1972 
L 1259 1972 
L 1259 0 
L 628 0 
L 628 4666 
L 2053 4666 
Q 2853 4666 3247 4331 
Q 3641 3997 3641 3322 
Q 3641 2881 3436 2590 
Q 3231 2300 2841 2188 
z
M 1259 4147 
L 1259 2491 
L 2053 2491 
Q 2509 2491 2742 2702 
Q 2975 2913 2975 3322 
Q 2975 3731 2742 3939 
Q 2509 4147 2053 4147 
L 1259 4147 
z
" transform="scale(0.015625)"/>
       <path id="DejaVuSans-6d" d="M 3328 2828 
Q 3544 3216 3844 3400 
Q 4144 3584 4550 3584 
Q 5097 3584 5394 3201 
Q 5691 2819 5691 2113 
L 5691 0 
L 5113 0 
L 5113 2094 
Q 5113 2597 4934 2840 
Q 4756 3084 4391 3084 
Q 3944 3084 3684 2787 
Q 3425 2491 3425 1978 
L 3425 0 
L 2847 0 
L 2847 2094 
Q 2847 2600 2669 2842 
Q 2491 3084 2119 3084 
Q 1678 3084 1418 2786 
Q 1159 2488 1159 1978 
L 1159 0 
L 581 0 
L 581 3500 
L 1159 3500 
L 1159 2956 
Q 1356 3278 1631 3431 
Q 1906 3584 2284 3584 
Q 2666 3584 2933 3390 
Q 3200 3197 3328 2828 
z
" transform="scale(0.015625)"/>
       <path id="DejaVuSans-2d" d="M 313 2009 
L 1997 2009 
L 1997 1497 
L 313 1497 
L 313 2009 
z
" transform="scale(0.015625)"/>
       <path id="DejaVuSans-47" d="M 3809 666 
L 3809 1919 
L 2778 1919 
L 2778 2438 
L 4434 2438 
L 4434 434 
Q 4069 175 3628 42 
Q 3188 -91 2688 -91 
Q 1594 -91 976 548 
Q 359 1188 359 2328 
Q 359 3472 976 4111 
Q 1594 4750 2688 4750 
Q 3144 4750 3555 4637 
Q 3966 4525 4313 4306 
L 4313 3634 
Q 3963 3931 3569 4081 
Q 3175 4231 2741 4231 
Q 1884 4231 1454 3753 
Q 1025 3275 1025 2328 
Q 1025 1384 1454 906 
Q 1884 428 2741 428 
Q 3075 428 3337 486 
Q 3600 544 3809 666 
z
" transform="scale(0.015625)"/>
       <path id="DejaVuSans-65" d="M 3597 1894 
L 3597 1613 
L 953 1613 
Q 991 1019 1311 708 
Q 1631 397 2203 397 
Q 2534 397 2845 478 
Q 3156 559 3463 722 
L 3463 178 
Q 3153 47 2828 -22 
Q 2503 -91 2169 -91 
Q 1331 -91 842 396 
Q 353 884 353 1716 
Q 353 2575 817 3079 
Q 1281 3584 2069 3584 
Q 2775 3584 3186 3129 
Q 3597 2675 3597 1894 
z
M 3022 2063 
Q 3016 2534 2758 2815 
Q 2500 3097 2075 3097 
Q 1594 3097 1305 2825 
Q 1016 2553 972 2059 
L 3022 2063 
z
" transform="scale(0.015625)"/>
      </defs>
      <use xlink:href="#DejaVuSans-52"/>
      <use xlink:href="#DejaVuSans-61" transform="translate(67.232422 0)"/>
      <use xlink:href="#DejaVuSans-6e" transform="translate(128.511719 0)"/>
      <use xlink:href="#DejaVuSans-64" transform="translate(191.890625 0)"/>
      <use xlink:href="#DejaVuSans-6f" transform="translate(255.367188 0)"/>
      <use xlink:href="#DejaVuSans-6d" transform="translate(316.548828 0)"/>
      <use xlink:href="#DejaVuSans-2d" transform="translate(413.960938 0)"/>
      <use xlink:href="#DejaVuSans-47" transform="translate(453.669922 0)"/>
      <use xlink:href="#DejaVuSans-75" transform="translate(531.160156 0)"/>
      <use xlink:href="#DejaVuSans-65" transform="translate(594.539062 0)"/>
      <use xlink:href="#DejaVuSans-73" transform="translate(656.0625 0)"/>
      <use xlink:href="#DejaVuSans-73" transform="translate(708.162109 0)"/>
      <use xlink:href="#DejaVuSans-65" transform="translate(760.261719 0)"/>
      <use xlink:href="#DejaVuSans-72" transform="translate(821.785156 0)"/>
      <use xlink:href="#DejaVuSans-20" transform="translate(862.898438 0)"/>
      <use xlink:href="#DejaVuSans-41" transform="translate(894.685547 0)"/>
      <use xlink:href="#DejaVuSans-63" transform="translate(961.34375 0)"/>
      <use xlink:href="#DejaVuSans-63" transform="translate(1016.324219 0)"/>
      <use xlink:href="#DejaVuSans-75" transform="translate(1071.304688 0)"/>
      <use xlink:href="#DejaVuSans-72" transform="translate(1134.683594 0)"/>
      <use xlink:href="#DejaVuSans-61" transform="translate(1175.796875 0)"/>
      <use xlink:href="#DejaVuSans-63" transform="translate(1237.076172 0)"/>
      <use xlink:href="#DejaVuSans-79" transform="translate(1292.056641 0)"/>
     </g>
    </g>
   </g>
  </g>
 </g>
 <defs>
  <clipPath id="p8c56916bc8">
   <rect x="56.50625" y="22.318125" width="558" height="554.4"/>
  </clipPath>
 </defs>
</svg>
